<svg xmlns="http://www.w3.org/2000/svg" width="228" height="278" viewBox="0 0 836 1024"><path fill="#855e5c" d="M0 0h836v1024H0z"/><path fill="#ece5f2" fill-opacity=".808" d="M633.356 755.862L898 699.907V1086H699.205z"/><path fill="#e3e8f6" fill-opacity=".898" d="M-62 1021.983V744.48l221.712 62.885-.796 278.635z"/><path fill="#c6c7c6" fill-opacity=".965" d="M107.465 563.457l71.444 59.364 184.547-358.725-191.967 131.249z"/><path fill="#b9000c" fill-opacity=".514" d="M212.554 1086H704.4L515.655 279.496 269.316 429.072z"/><path fill="#033f2b" fill-opacity=".373" d="M28.551 787.488l138.838-381.74L676.037-47.314-62 2.612z"/><path fill="#ffbbc1" fill-opacity=".682" d="M515.877 275.456l163.72 76.07 6.892 189.734-146.987-76.197z"/><path fill="#4a4c43" fill-opacity=".824" d="M516.889 283.33l-360.124 43.442 712.457-340.37-42.594 347.355z"/><path fill="#30251a" fill-opacity=".671" d="M619.289 666.203l205.745 16.414L898 430.423 620.884 567.557z"/><path fill="#b5bab3" fill-opacity=".42" d="M446.218 489.981l30.606 143.497-148.985 14.46 404.596 118.533z"/><path fill="#400" fill-opacity=".455" d="M271.708 984.248l-67.354-486.564 346.388 125.35-191.313 21.95z"/><path fill="#ea4751" fill-opacity=".482" d="M671.755 566.742l-62.502-204.157-296.55-13.104-50.612 143.572z"/><path fill="#ecebee" fill-opacity=".824" d="M369.874 359.335L146.862 478.08l26.37-82.64 144.783-83.098z"/><path fill="#e8e6e9" fill-opacity=".933" d="M653.365 337.498L503.13 272.765l157.413 161.618 18.777-25.82z"/><path fill="#92a9af" fill-opacity=".537" d="M118.477 783.869L142.866 1086l87.548-318.58-9.79-170.497z"/><path fill="#4a290a" fill-opacity=".592" d="M35.85 770.363l54.665 25.841 112.913-156.823-82.756-51.952z"/><path fill="#64422b" fill-opacity=".831" d="M498.295 343.822L385.358 371.44l-79.384-72.967L380.278 27.88z"/><path fill="#658b7a" fill-opacity=".659" d="M655.769 340.903L717.59 509.19 898 475.4l-67.856-203.592z"/><path fill="#89a9a8" fill-opacity=".608" d="M682.47 773.275l-63.633-30.199L898 614.864V750.9z"/><path fill="#0b1f22" fill-opacity=".518" d="M51.813 582.57L-62 407.462l204.174-52.81 1.795 111.411z"/><path fill="#ea414b" fill-opacity=".549" d="M708.448 1082.699l-263.098-78.411 156.1-11.232-16.961-458.793z"/><path fill="#810811" fill-opacity=".431" d="M247.105 746.457l374.373-57.982-39.697 228.202L174.921 1086z"/><path fill="#64fff4" fill-opacity=".384" d="M447.836 525.438l28.243 74.332 65.829-40.932-22.56-41.92z"/><path fill="#7b7f80" fill-opacity=".643" d="M181.853 199.247l-8.068-181.01-104.83 54.747 11.733 99.629z"/><path fill="#6d6d66" fill-opacity=".784" d="M682.439 159.503L898-62 249.42 82.282l292.497 25.178z"/><path fill="#dff1ea" fill-opacity=".6" d="M398.626 458.791l5.038 21.775-46.283 23.716-13.106-38.35z"/><path fill="#c71621" fill-opacity=".565" d="M640.146 458.138l-8.952-41.92-107.857 202.34 95.39 8.887z"/><path fill="#a5bdb3" fill-opacity=".412" d="M668.503 409.995l-48.15 140.704L898 588.643 700.316 600.16z"/><path fill="#92a79e" fill-opacity=".584" d="M157.634 488.939l-21.861 104.342 77.975 33.484 58.032-157.24z"/><path fill="#014a47" fill-opacity=".412" d="M182.216 915.783l17.647-91.516 45.076-27.881-22.185 244.66z"/><path fill="#df3f47" fill-opacity=".878" d="M634.363 408.93l-133.551 8.802 8.063-87.74 102.161 46.413z"/><path fill="#273e38" fill-opacity=".443" d="M484.542 62.081l76.96 221.773 115.457 61.313 90.72-140.845z"/><path fill="#e5edfb" fill-opacity=".557" d="M144.467 784.07L30.523 1086-62 630.05 51.838 786.465z"/><path fill="#350e05" fill-opacity=".686" d="M898 637.572l-257.88 45.07L619.9 556.09l98.724 58.69z"/><path fill="#b57943" fill-opacity=".396" d="M384.538 40.222L508.67 391.82l-.02-271.39-33.435-82.475z"/><path fill="#360000" fill-opacity=".278" d="M215.654 627.442l68.224-181.333 97.95 352.744-265.706-207.37z"/><path fill="#c4aba1" fill-opacity=".745" d="M542.224 663.729l67.822-16.275-93.227-18.833-152.433 38.925z"/><path fill="#4b0000" fill-opacity=".31" d="M408.128 679.87l285.28-1.142 42.938 68.544 30.038-115.746z"/><path fill="#fcfef8" fill-opacity=".361" d="M528.382 431.18l68.39-19.76 8.702 69.611-45.506 3.232z"/><path fill="#283e3c" fill-opacity=".655" d="M869.18 480.2l-38.782 97.708-150.32-42.662 4.189-40.549z"/><path fill="#2b1a0b" fill-opacity=".584" d="M386.887 327.727L369.93 201.67l102.593 73.536-31.101 60.845z"/><path fill="#e4dfec" fill-opacity=".514" d="M658.414 712.954l89.013 124.026L696.473 1086l-31.196-152.129z"/><path fill="#a76a69" fill-opacity=".816" d="M352.884 694.35l39.97 26.393 309.656-42.45-339.907 16.677z"/><path fill="#eff1f5" fill-opacity=".51" d="M322.195 283.67l-71.192 214.98-24.46-148.896 46.932-26.523z"/><path fill="#221e0d" fill-opacity=".349" d="M395.919 98.216l200.476 32.365-384.71 17.594 52.423 79.775z"/><path fill="#facca6" fill-opacity=".129" d="M356.982 156.136l149.484-24.158-333.824 196.33 193.656-19.363z"/><path fill="#82d7ff" fill-opacity=".153" d="M563.922-41.771l-2.951 4.833L741.795-62l-135.14 231.324z"/><path fill="#ebf4f6" fill-opacity=".616" d="M618.538 352.773l36.437-22.36-137.851-51.076 10.095 43.155z"/><path fill="#311a13" fill-opacity=".298" d="M419.347 627.032l-283.111-12.996 128.673 48.4-81.119-169.08z"/><path fill="#a6866b" fill-opacity=".424" d="M106.404 726.302l4.108-166.679-170.755 93.329 149.758-27.43z"/><path fill="#a6242d" fill-opacity=".741" d="M527.548 530.17l98.077 59.98-72.535 36.954-7.46 68.151z"/><path fill="#8bc3be" fill-opacity=".369" d="M619.978 672.45l95.667 12.065-63.14 110-23.13-74.008z"/><path fill="#370e0a" fill-opacity=".506" d="M288.087 1004.562l-67.072-10.125 25.794 63.64 111.888-41.666z"/><path fill="#e44d55" fill-opacity=".957" d="M634.967 483.238l-87.21-121.27 81.186 35.134 21.856 85.267z"/><path fill="#677d7e" fill-opacity=".835" d="M527.966 602.849l-70.608 3.801 59.177-33.748 12.045-50.192z"/><path fill="#b57b76" fill-opacity=".871" d="M291.527 320.16l182.208 13.118-165.199-12.434 31.591 53.071z"/><path fill="#c5222e" fill-opacity=".471" d="M382.902 602.92L262.018 485.029l107.016 11.942 223.07-119.065z"/><path fill="#6d8179" fill-opacity=".396" d="M171.162 782.48l10.982 195.229-145.11 87.909L255.883 1086z"/><path fill="#bebdab" fill-opacity=".373" d="M360.656 676.45l76.107-7.698 195.484-42.447-250.045 11.738z"/><path fill="#c02732" fill-opacity=".471" d="M563.934 1023.322L216.87 990.907l422.978-127.611-28.574-295.37z"/><path fill="#c4f2f7" fill-opacity=".388" d="M671.08 371.285l-53.148-34.31 46.476 218.555 19.351-87.069z"/><path fill="#b10f18" fill-opacity=".365" d="M467.596 690.786l-94.054-16.113 193.508-15.235 107.37 6.118z"/><path fill="#7b0f15" fill-opacity=".384" d="M275.088 668.03L572.93 791.303l38.043 198.764-167.615-113.643z"/><path fill="#cd3a41" fill-opacity=".741" d="M635.993 757.197l28.078 119.513-44.446 181.596-49.183-308.413z"/><path fill="#b3c8c4" fill-opacity=".475" d="M217.112 413.564l41.847 160.72 5.896-136.965-127.286 30.749z"/><path fill="#60291c" fill-opacity=".518" d="M651.183 639.747l236.456-7.627-243.733-66.247 62.767-77.719z"/><path fill="#6b4f34" fill-opacity=".945" d="M176.985 642.7L50.72 763.243 4.862 706.257l32.57-69.86z"/><path fill="#f8fff6" fill-opacity=".349" d="M515.923 585.14l-70.017-20.917 27.565-33.084 31.509 24.544z"/><path fill="#07222d" fill-opacity=".2" d="M163.877 264.186l-170.142-4.574L85.092 19.746-62 25.204z"/><path fill="#9ba098" fill-opacity=".333" d="M167.624 700.055l86.097-137.13-44.86-12.05 43.117 286.323z"/><path fill="#3f463c" fill-opacity=".482" d="M413.788 13.452L159.825 132.066 591.662-36.708 548.875 91.363z"/><path fill="#6d7068" fill-opacity=".49" d="M-59.565 365.784l3.169-17.036L85.938 242.753l50.267 95.941z"/><path fill="#89c7b6" fill-opacity=".192" d="M796.503 349.14l-132.739 53.399-32.514 147.158L827.034 410.84z"/><path fill="#1a1e00" fill-opacity=".259" d="M37.13 628.052l118.195 151.46 17.149-66.22L91.38 796.2z"/><path fill="#6d171a" fill-opacity=".51" d="M189.15 616.912l-59.53-19.625-25.323-54.905 11.413 133.359z"/><path fill="#f1f7ff" fill-opacity=".192" d="M134.488 472.748l256.048-246.067-277.493 332.761 119.735 73.567z"/><path fill="#c42b35" fill-opacity=".698" d="M301.945 403.962l253.3 102.816-31.837-133.142-151.796-17.259z"/><path fill="#ffcab8" fill-opacity=".212" d="M123.52 718.013l-25.947-31.276 85.924-38.493-44.152-6.49z"/><path fill="#9b755a" fill-opacity=".631" d="M341.573 105.22l-14.016-43.442 115.028-26.82 65.631 52.935z"/><path fill="#d2bbcd" fill-opacity=".31" d="M156.688 757.314l20 168.059L141.887 1086 98.675 784.667z"/><path fill="#604930" fill-opacity=".631" d="M311.572 271.31l174.088-44.84-83.036-42.8-88.159-149.676z"/><path fill="#710913" fill-opacity=".624" d="M537.486 1005.681l-106.297-35.759-101.33 2.073 212.173 37.435z"/><path fill="#60645c" fill-opacity=".639" d="M726.473 252.24L898 253.328l-221.202 121.81-35.712-54.767z"/><path fill="#071417" fill-opacity=".459" d="M237.464 835.457l-8.02 102.887-12.123-12.813-16.107-85.576z"/><path fill="#fea470" fill-opacity=".231" d="M697.67 601.657L898 562.344v42.161z"/><path fill="#e5e8f9" fill-opacity=".49" d="M801.442 775.23L797.849 1086 898 954.78l-67.697-180.024z"/><path fill="#5e5b52" fill-opacity=".957" d="M170.517 152.806L282.535 296.19l-77.276 83.638-30.093-2.06z"/><path fill="#dc4953" fill-opacity=".463" d="M267.776 391.282l67.571-36.049-60.416 69.067 157.712-47.323z"/><path fill="#d31d31" fill-opacity=".247" d="M240.994 630.43l6.76 381.395 153.392-129.157-119.377 39.826z"/><path fill="#be956a" fill-opacity=".333" d="M416.125 178.342l14.38-59.448 80.252 217.341-25.949-159.524z"/><path fill="#2e3632" fill-opacity=".569" d="M547.386 199.934l78.618 88.526 160.36-106.005-198.652-11.778z"/><path fill="#585450" fill-opacity=".71" d="M705.778 9.556l-43.017 164.253-212.644-74.12L898 166.925z"/><path fill="#dcd0cd" fill-opacity=".604" d="M393.22 486.736l-59.307 1.847 28.912-25.304 31.056-9.5z"/><path fill="#2d4341" fill-opacity=".4" d="M236.536 31.46l114.861 223.235-28.911 29.803L193.45 140.133z"/><path fill="#e0cac4" fill-opacity=".302" d="M603.208 660.675l-70.136 2.463 39.624-34.689 32.798-13.488z"/><path fill="#015c4b" fill-opacity=".216" d="M618.667 659.005l151.261 10.966-12.062 77.158-126.386-76.892z"/><path fill="#926b4e" fill-opacity=".616" d="M500.666 260.87l7.479 102.438-120.921 7.48 86.24-20.99z"/><path fill="#a21d26" fill-opacity=".792" d="M501.475 605.461l20.217-4.553 116.464 18.803-238.435 14.13z"/><path fill="#1c0a00" fill-opacity=".369" d="M479.311 95.527l6.874 53.16-102.094-43.364-7.735 45.87z"/><path fill="#9a8272" fill-opacity=".584" d="M350.784 670.868l36.31-51.388 31.87 40.035-35.548 11.881z"/><path fill="#bec2d0" fill-opacity=".706" d="M898 778.162l-247.45 6.292-30.803-74.309 47.748 38.527z"/><path fill="#fb4f59" fill-opacity=".431" d="M652.798 965.923l-71.468 88.982-56.935-96.065L715.793 1086z"/><path fill="#6495b1" fill-opacity=".29" d="M174.032 875.725l72.014-91.904-10.87-32.48-124.28 15.512z"/><path fill="#ae2531" fill-opacity=".749" d="M413.154 390.378l-95.616-83.587-2.124-26.825 148.467 176.095z"/><path fill="#fef2d3" fill-opacity=".176" d="M482.695 104.941l21.137 45.188-17.94-92.709-37.57-19.985z"/><path fill="#3a0d0a" fill-opacity=".494" d="M178.017 643.08l-32.866-23.687 75.147.322L131.175 726.9z"/><path fill="#430003" fill-opacity=".576" d="M499.033 1020.492L675.677 1086l-261.182-43.747 60.33-30.726z"/><path fill="#b6d6ff" fill-opacity=".055" d="M303.375-62L14.385-5.34 142.33 165.978l45.961-49.564z"/><path fill="#ffe1b2" fill-opacity=".078" d="M349.849 162.16l13.79 213.717-52.255-175.152 84.41-240.008z"/><path fill="#515f56" fill-opacity=".463" d="M844.661 496.229l-8.458-41.346-154.83 10.356 4.077 59.183z"/><path fill="#2a0f08" fill-opacity=".412" d="M742.703 669.394l-107.159-119.14-11.698-22.344 3.36 143.211z"/><path fill="#710f13" fill-opacity=".675" d="M464.58 770.225l-76.973 140.907 50.854-35.228 71.5 36.295z"/><path fill="#94a29f" fill-opacity=".522" d="M853.372 645.826l-151.549 99.809 3.262 16.82 191.333-48.362z"/><path fill="#242502" fill-opacity=".322" d="M144.11 749.278l-61.267 46.154L-2.82 683.984l47.249 93.699z"/><path fill="#4f331e" fill-opacity=".635" d="M468.019 179.914L358.72 247.36l113.556-24.722-88.337-41.457z"/><path fill="#f5fdff" fill-opacity=".439" d="M517.964 328.524l10.044-13.003-3.61-.033 51.349 39.96z"/><path fill="#f4fafc" fill-opacity=".435" d="M255.543 333.463L150.842 429.2l200.931-62.629-103.192 65.56z"/><path fill="#ef3647" fill-opacity=".486" d="M640.085 1044.416l-226.687-60.582 10.399 64.792 34.826-37.112z"/><path fill="#b02e34" fill-opacity=".976" d="M602.467 638.882l23.943-29.374-14.52 246.264-7.547-1.908z"/><path fill="#d9303e" fill-opacity=".506" d="M504.446 986.043l-82.763-13.069-64.06-47.308 39.698 5.682z"/><path fill="#421b16" fill-opacity=".749" d="M117.71 683.591l-3.897-32.551 228.906-69.797-184.564 52.708z"/></svg>