<svg xmlns="http://www.w3.org/2000/svg" width="228" height="278" viewBox="0 0 836 1024"><path fill="#68595d" d="M0 0h836v1024H0z"/><g fill-opacity=".502"><path d="M706 298l-540-84 244 872z"/><path fill="#ffffce" d="M850 2L558 150l288 520z"/><path fill="#ede5ce" d="M130 282L22-26 406 98z"/><path fill="#f78ded" d="M242 646l8 440-312-96z"/><path fill="#0a1123" d="M542 78l12 1008-616-396z"/><path fill="#ec62c5" d="M590 706l308 372-352-32z"/><path fill="#c4cede" d="M270 502L126 734l140 40z"/><path d="M706 750L534 254l144 44z"/><path fill="#fffbae" d="M730 350L606-62l-44 296z"/><path d="M230-62l-56 228 76-32z"/><path fill="#fdfff3" d="M254 138L-62 310l220-20z"/><path d="M306 1086l268-148-340-140z"/><path fill="#fff" d="M350 278l24-232 36 160z"/><path fill="#9faeae" d="M638 590l-320-20 304-68z"/><path fill="#d8deb6" d="M806 838l52-900-168 460z"/><path fill="#0b45b0" d="M282 810l56-152 236 216z"/><path fill="#fff" d="M534 430l-48 44-8-72z"/><path fill="#e0f2df" d="M102 494l-40-96 156-20z"/><path d="M-6 550l264-164 328 128z"/><path fill="#7fb5e0" d="M566 726l40-296 52 392z"/><path fill="#dcba36" d="M746 586L630 154l160 16z"/><path fill="#3779c9" d="M898 534l-96 288-84-264z"/><path fill="#391100" d="M478-62l72 556-164-376z"/><path fill="#dc63ab" d="M238 794l32 292-332-288z"/><path fill="#f8f8e5" d="M714-62L498-2l124 80z"/><path fill="#363303" d="M-62 34l8 244 216-92z"/><path fill="#f9fbfe" d="M186 218L2-62h136z"/><path fill="#fec9b7" d="M538-62L266-2l4 80z"/><path fill="#02120d" d="M158 386l-44-116-124 80z"/><path fill="#e0e4dc" d="M182 378l104-76-24-32z"/><path fill="#f7f8eb" d="M898 574L682 402l184-128z"/><path fill="#000921" d="M186 654l340 164 76-260z"/><path fill="#b8c2b8" d="M258 502l-80 52 120 116z"/><path fill="#c5baf6" d="M82 1086l132-172-276 44z"/><path fill="#fffff7" d="M166 266l-56 48 60 28z"/><path fill="#1a0900" d="M222 378l-76 356-208 84z"/><path fill="#fffff1" d="M198 210l200-104-112-12z"/><path fill="#792424" d="M842 794l-72 140-176-156z"/><path fill="#f25dbc" d="M778 962l48-160 72 236z"/><path fill="#e3b700" d="M798 426l-100 36 28 108z"/></g></svg>