<svg xmlns="http://www.w3.org/2000/svg" width="228" height="278" viewBox="0 0 836 1024"><path fill="#635558" d="M0 0h836v1024H0z"/><g fill-opacity=".502"><path fill="#f2d2c2" d="M898 162L-22 450-62-18z"/><path fill="#000014" d="M558 1086l-60-872-560 356z"/><path fill="#facac9" d="M502-62l264 528L898 22z"/><path fill="#110f11" d="M798 362l-608 724 708-212z"/><path fill="#ffffdf" d="M606 710l104 120 36-196z"/><path fill="#68392c" d="M342 62L570-62l-60 952z"/><path fill="#beb1a7" d="M514 334l384 124L750-62z"/><path fill="#f2aa62" d="M46 774l268 268L54 586z"/><path fill="#00072d" d="M-6 482l388 604 40-700z"/><path fill="#000300" d="M898 446l-256-4 256 644z"/><path fill="#bec1b4" d="M658 590l-140 64-140-100z"/><path fill="#caaaad" d="M170 470L-62 10l472-72z"/><path fill="#000602" d="M-34 914l196 4-208-300z"/><path fill="#fbffff" d="M762 702l-96-56-16 108z"/><path fill="#c2303d" d="M26-62L146 82l228-56z"/><path fill="#f5c399" d="M158 950l16-120 140 140z"/><path fill="#050800" d="M290 446l-44 448-108-124z"/><path fill="#000600" d="M334 90l96-88 132 76z"/><path fill="#2f051f" d="M378 642l284 4-136 372z"/><path fill="#c8c1c4" d="M318 70L-54 258l444 4z"/><path fill="#151213" d="M546 534l192 128 160-260z"/><path fill="#a7a896" d="M898 370L514 82l148 352z"/><path fill="#0b1200" d="M-62 830l204-364-184-20z"/><path fill="#55797b" d="M570 898l328 96-388 92z"/><path fill="#2a2f6e" d="M146 450l368 76-180-216z"/><path fill="#dcadbb" d="M894 78L574 46l-4 212z"/><path fill="#94a88a" d="M-62 250l460 24-288 184z"/><path fill="#190d00" d="M406 178l12-40 144 16z"/><path fill="#741f48" d="M558 606l28-276-180 140z"/><path fill="#1b29a8" d="M646 470L522 310l132 80z"/><path fill="#0d1810" d="M818 926l-280-76 360-148z"/><path fill="#b3815a" d="M82 594l120 304L2 726z"/><path fill="#191b4e" d="M470 1086l-60-588-172 384z"/><path fill="#b57646" d="M726 822l-80-12 4-120z"/><path fill="#93987d" d="M818 246l-356 48 432 148z"/><path fill="#bc6773" d="M898 66L806-62 442 6z"/><path fill="#dca770" d="M478 186l48-92h-84z"/><path d="M-26 854l104-4L2 706z"/><path fill="#6a2e59" d="M566 818l-180 36 76 60z"/><path fill="#c2b7af" d="M550 646l76-24 16-44z"/></g></svg>