<svg xmlns="http://www.w3.org/2000/svg" width="228" height="278" viewBox="0 0 836 1024"><path fill="#572b2a" d="M0 0h836v1024H0z"/><g fill-opacity=".502"><path fill="#fff" d="M70 650l324 76-220 204z"/><path fill="#001612" d="M38 294L-46-62 898 66z"/><path fill="#fff" d="M370 822L262 654 102 810z"/><path fill="#fffff9" d="M-18 382l32-96 112 80z"/><path fill="#001119" d="M878-62l-72 704L530-6z"/><path fill="#dd7e6f" d="M634 1086l64-104-312-212z"/><path fill="#f75753" d="M246 850L30 966l48 120z"/><path fill="#a82931" d="M90 354L50 946l332-736z"/><path fill="#470000" d="M502 686L230 342l168 600z"/><path fill="#a3956e" d="M570 94l-184 72L502-14z"/><path fill="#160300" d="M142 870l256 156 156-132z"/><path fill="#b2cbd0" d="M226 586l24-96L90 674z"/><path fill="#760000" d="M362 666l-28-180L90 698z"/><path fill="#eefffe" d="M90 678l196 100-124 88z"/><path fill="#460e0c" d="M-62 578L614 94l72 332z"/><path fill="#8c9c85" d="M482 526l-156-16 68-128z"/><path fill="#120100" d="M898 698L570 450l20-152z"/><path fill="#8a1b1d" d="M794 658l-56 428-220-276z"/><path fill="#dd1f29" d="M458 186L54 470l144-192z"/><path fill="#00100e" d="M106-62L470 62 94 378z"/><path fill="#6d925b" d="M298 782L122 974l240-144z"/><path fill="#aa857c" d="M758 426l-96-20 184 152z"/><path fill="#fff4fb" d="M534 866l-48 16-52-60z"/><path fill="#fddae6" d="M106 962l60 24-60-104z"/><path fill="#f80714" d="M470 934l112-16-92 104z"/><path fill="#ff5258" d="M534 230l-12 60 104-20z"/><path fill="#090d00" d="M542 210L510-2l-80 400z"/><path fill="#886944" d="M530-62L386 130l60 144z"/><path fill="#d7d5dc" d="M70 730l84-100-40-12z"/><path fill="#001516" d="M898 1082l-68-356-64 212z"/><path fill="#03090d" d="M678 366L846 90l-52 408z"/><path fill="#eec4ac" d="M38 302l-48 32 176 124z"/><path fill="#fff" d="M138 730l100-56 88 52z"/><path fill="#8a2629" d="M166 910l-228-40 96-316z"/><path fill="#820003" d="M390 226L134 418l336-40z"/><path fill="#480001" d="M354 762L254 490l256 48z"/><path fill="#640008" d="M146 714l244-128-256 48z"/><path fill="#bdcbcc" d="M522 126l52-32-36-44z"/><path fill="#7a282a" d="M866 694l-464-12 196-232z"/><path fill="#626e7c" d="M562 430l-140-36 144-28z"/></g></svg>