<svg xmlns="http://www.w3.org/2000/svg" width="228" height="278" viewBox="0 0 836 1024"><path fill="#827777" d="M0 0h836v1024H0z"/><g fill-opacity=".502"><path fill="#def4ff" d="M250 386l392 700-704-84z"/><path fill="#3d1f06" d="M898 26L326 42l348 1044z"/><path fill="#fff" d="M194 458l236-240L42 322z"/><path fill="#fffe50" d="M610 258L462 610l280-212z"/><path fill="#d3dffd" d="M486 1054L-62 718l660-44z"/><path fill="#640000" d="M602 518L438 210 258 446z"/><path fill="#edfeff" d="M678 670l72 416 36-248z"/><path fill="#001b24" d="M610 74l288-36-68 648z"/><path fill="#270005" d="M850 326l-308 712 40-444z"/><path fill="#8891a6" d="M426 862l208-348-456-56z"/><path fill="#2a3941" d="M206 418l-268-12 196 328z"/><path fill="#e90000" d="M302 430l-8-136 264 176z"/><path fill="#000035" d="M654 638l76 360-104 88z"/><path fill="#ffd600" d="M686 298L478 466l188 12z"/><path fill="#0f1212" d="M578 74l-380 68L582-46z"/><path fill="#bccde7" d="M582 710l-48-200-224-48z"/><path fill="#524c4b" d="M386 750l188-128-308-16z"/><path fill="#c4c7ff" d="M726 686l-48 112 116 204z"/><path fill="#39574e" d="M-62 362L54 10l296 204z"/><path fill="#e8f0ff" d="M730 406l-48-100-12 196z"/><path fill="#e10003" d="M610 654l56 316-84-76z"/><path fill="#e09777" d="M610 190l-324-72 84 112z"/><path fill="#f7ffff" d="M62 342l228 56-4-168z"/><path fill="#668dff" d="M86 922L-38 618l52 468z"/><path fill="#e4f2ff" d="M274 934l220 24 108-280z"/><path fill="#da8753" d="M742 522l64 564 92-268z"/><path fill="#000023" d="M546 958l120 16-124-136z"/><path fill="#270900" d="M574 226l-4 176-188-44z"/><path fill="#ee4125" d="M-62 426l192-12-72-100z"/><path fill="#e2e1fb" d="M10 702L-2 858l488 36z"/><path fill="#ffa900" d="M118 1026l-52 60 32-224z"/><path fill="#ffffaf" d="M578 254l136 88-124-24z"/><path d="M494 482l184 4-92 24z"/><path fill="#00278c" d="M34 974l32-76-128-24z"/><path fill="#f90009" d="M290 342l96-68 48 144z"/><path fill="#1f323a" d="M778 54l120 644-188-172z"/><path fill="#dbe2f8" d="M130 550l76 232-64 64z"/><path fill="#e7f0ff" d="M234 898L30 1086l260-56z"/><path fill="#0e1120" d="M210 902l-28-28-4 104z"/><path fill="#757e82" d="M274 954h204l-164 132z"/></g></svg>