<svg xmlns="http://www.w3.org/2000/svg" width="228" height="278" viewBox="0 0 836 1024"><path fill="#674958" d="M0 0h836v1024H0z"/><g fill-opacity=".502"><path fill="#9fd3d5" d="M558 242l232-116 108 676z"/><path fill="#0e000a" d="M674 426L534 978 90 1086z"/><path fill="#ce6f75" d="M502 194L-22 766l84-468z"/><path fill="#ae0f2d" d="M282 918l-52-664-292 688z"/><path fill="#fff" d="M2 922l124 32-56 132z"/><path fill="#b8e9e4" d="M642 1086l12-468-92 196z"/><path fill="#e3f6ff" d="M574 602l-212 40-136-84z"/><path fill="#082734" d="M226 66l672 104L774-62z"/><path fill="#001530" d="M578 650l-20-320 256 324z"/><path fill="#1e0a26" d="M302 582l320 348-376 56z"/><path fill="#cdfbff" d="M714 1050l-148-88-172 112z"/><path fill="#bae6ec" d="M166 850l-44-100 64-136z"/><path fill="#0e2f4c" d="M386 250H-62L34-62z"/><path fill="#d3001d" d="M786 634l112 452-212-380z"/><path fill="#9f000c" d="M578 446L358 638l104-288z"/><path fill="#00285e" d="M274 330l164 120-152 168z"/><path fill="#b9152d" d="M522 650L370 922l28-296z"/><path fill="#a98f78" d="M646 382l-344-32 72-280z"/><path fill="#130000" d="M214 558l-40-124-76 316z"/><path fill="#c6dfee" d="M282 642l108-84-164 12z"/><path fill="azure" d="M446 658l108 4-96-52z"/><path fill="#c10423" d="M246 954l-28-308-88 440z"/><path fill="#062a2a" d="M702 758l12 328 144-44z"/><path fill="#b7909d" d="M-62 630l108-52-16 436z"/><path fill="#fff" d="M550 398h-36l20-112z"/><path fill="#77191a" d="M378 514l136 72V94z"/><path fill="#fff" d="M298 326l36 28 16-80z"/><path fill="#c7aea4" d="M206 274L86 546l8-280z"/><path fill="#e4ffff" d="M518 494l52-16-32 76z"/><path fill="#f8fcff" d="M258 470l-28-32 120 16z"/><path fill="#c8cbb2" d="M702 734l-80-112-28 192z"/><path fill="#fff" d="M34 942l72 16-64 128z"/><path fill="#012" d="M490 678l124 280-144 40z"/><path fill="#810418" d="M330 1030l132 56 16-452z"/><path fill="#3c5a70" d="M690 86L542 26l28 520z"/><path fill="#adb8b6" d="M782 662l116-136-244-180z"/><path fill="#275a67" d="M102 866l16 220 64-296z"/><path fill="#7099ae" d="M730 930L546 806l104 228z"/><path fill="#671636" d="M30-62h432L278 186z"/><path fill="#ffebff" d="M354 650l132-68-36-20z"/></g></svg>