<svg xmlns="http://www.w3.org/2000/svg" width="228" height="278" viewBox="0 0 836 1024"><path fill="#6f5a5c" d="M0 0h836v1024H0z"/><g fill-opacity=".502"><path d="M526 970L798 34 222 978z"/><path fill="#d0dce5" d="M218 270L42 1086-62 242z"/><path fill="#efdece" d="M838 502l-100 548-384 36z"/><path fill="#130000" d="M286 994l-16-516 288 476z"/><path fill="#27000a" d="M254 334l644 16-284 360z"/><path fill="#f6ffff" d="M402 1086l-240-96h596z"/><path fill="#f1ffff" d="M426 694l28-188-124 44z"/><path fill="#1a0000" d="M178 698l-20-284 208 176z"/><path fill="#fff6ff" d="M170 370l160-92-392 4z"/><path fill="#789d9b" d="M254 1026l12-412-328 392z"/><path fill="#fffff2" d="M558 378l-36 96-60-80z"/><path fill="#150000" d="M622 362L358 926l268-124z"/><path fill="#eed0da" d="M714 510l-36-136-68-44z"/><path fill="#bb6a51" d="M446 78l96 236-604-80z"/><path fill="#002a45" d="M890 702l-128-44 64 372z"/><path fill="#fca258" d="M734 510L610 910l180-264z"/><path fill="#2e0c0d" d="M494 442L370 226l-48 324z"/><path fill="#c5c9ce" d="M406 650l108 20-172 20z"/><path fill="#d3c0b2" d="M-62 878l360-20L98 746z"/><path fill="#6c9eae" d="M662 1002l124 84 8-456z"/><path fill="#49001a" d="M294 322l-112 40-28 188z"/><path fill="#340000" d="M654 874l24 88-56-4z"/><path fill="azure" d="M202 1026l444 60 20-120z"/><path fill="#997c81" d="M794 14l28 348-128-152z"/><path fill="#babacb" d="M186 450l68 64 96-64z"/><path fill="#f3ffff" d="M406 650l80-56-160 12z"/><path fill="#fff" d="M490 562l-92-56-52 44z"/><path fill="#ffcfa6" d="M702 738L602 934l-76-72z"/><path fill="#a39182" d="M170 114l428 220L190-46z"/><path fill="#1f0811" d="M674 66L538 6l360-68z"/><path fill="#2c0013" d="M358 1002L222 498l316 464z"/><path fill="#271a00" d="M530 106L282 70l108-52z"/><path fill="#160001" d="M654 386L446 578l276 48z"/><path fill="#231729" d="M694 186l-116 92 300 304z"/><path fill="#762930" d="M-38 214L86-62l140 316z"/><path fill="#050000" d="M286 618l20 56 144-20z"/><path fill="#7b7c85" d="M170 370L-62 470l204 264z"/><path fill="#20030f" d="M734 430l-356 60 140 84z"/><path fill="#020000" d="M338 174l-16-32 116 12z"/><path fill="#180003" d="M170 518l36 112 208-140z"/></g></svg>