<svg xmlns="http://www.w3.org/2000/svg" width="228" height="278" viewBox="0 0 836 1024"><path fill="#4f4a53" d="M0 0h836v1024H0z"/><path fill="#d5d0cc" fill-opacity=".6" d="M493.68 1086l212.046-847.893L890.07 91.178 898 511.395z"/><path fill="#00001e" fill-opacity=".686" d="M122.096 341.154l306.233-1.617 249.789 266.74L391.887 1086z"/><path fill="#a5a9bf" fill-opacity=".588" d="M831.72 717.273L126.794 24.113l437.9 295.843L898 188.788z"/><path fill="#e7aa79" fill-opacity=".49" d="M91.205 977.37L71.182 866.705l25.51-365.73 180.825 330.353z"/><path fill="#1d201e" fill-opacity=".91" d="M200.42 82L-62 448.88 15.007-62 898 51.841z"/><path fill="#ffa95f" fill-opacity=".431" d="M425.867 110.87L186.47 66.453l-3.038 243.823 213.676 54.59z"/><path fill="#dbb8a0" fill-opacity=".996" d="M569.114 1049.896l-155.858-15.683 113.162-110.81 70.864-183.132z"/><path fill="#212e30" fill-opacity=".988" d="M421.994 242.393L431.715-62 898 16.616l-305.619 282.94z"/><path fill="#4d68a2" fill-opacity=".796" d="M673.446 440.256L513.36 254.52l78.873 332.89 104.196 40.436z"/><path fill="#020040" fill-opacity=".604" d="M898 751.992l-166.447-53.84-84.491 156.75L531.732 1086z"/><path fill="#a9a4f7" fill-opacity=".49" d="M627.376 1002.723l100.037-51.98 49.588-120.495 38.33 251z"/><path fill="#ced5d7" fill-opacity=".729" d="M680.244 523.4l26.21 135.717 132.215 36.326 3.096-221.651z"/><path fill="#e4a876" fill-opacity=".651" d="M683.45 639.018l30.008 109.095-149.11 249.233 42.398-335.744z"/><path fill="#ef0e11" fill-opacity=".659" d="M847.78 1086L898 709.39l-95.683 153.377 3.794 143.795z"/><path fill="#0a2238" fill-opacity=".733" d="M-17.503 1032.286l110.73 8.275-31.746-328.793-73.27-17.257z"/><path fill="#100" fill-opacity=".486" d="M168.007 357.656l89.879-61.432-92.793 361.344-56.36 74.922z"/><path fill="#e9e1bb" fill-opacity=".439" d="M64.13 871.02l21.092-159.03 38.35-317.625 16.22 110.845z"/><path fill="#ffcdc1" fill-opacity=".459" d="M163.28 746.563l44.817 134.856 31.066 40.06L258.98 782.29z"/><path fill="#0a0635" fill-opacity=".631" d="M485.29 973.96l91.983-183.251-318.7-116.892 15.435 296.723z"/><path fill="#2d2a54" fill-opacity=".996" d="M418.808 247.396l33.81 299.527-51.714 13.719-46.259-121.06z"/><path fill="#001536" fill-opacity=".345" d="M123.388 841.865l27.69-109.563 92.47 290.882-116.418 61.206z"/><path fill="#000004" fill-opacity=".482" d="M377.754 652.574L497.468 399.25l69.2-20.11-39.014 282.03z"/><path fill="#312978" fill-opacity=".894" d="M697.572 645.043L780.256 1086l-83.708-182.704 91.886-132.525z"/><path fill="#c4987e" fill-opacity=".627" d="M203.689 962.603l-86.453-230.01-7.72 353.407-39.622-339.998z"/><path fill="#e0e2dd" fill-opacity=".525" d="M265.256 504.72l-18.87-58.265-16.345 46.871 22.278 8.946z"/><path fill="#7161ff" fill-opacity=".231" d="M351.781 1086l4.207-119.736 19.404-275.805-136.124 380.913z"/><path fill="#674425" fill-opacity=".839" d="M365.772 307.566l-150.755-31.21 65.163 91.174 77.226 9.997z"/><path fill="#cfaa92" fill-opacity=".702" d="M219.434 66.205l127.464 51.416-163.585 43.33 1.61-69.21z"/><path fill="#050300" fill-opacity=".549" d="M635.442 605.047L428.617 740.104l66.977 217.02 53.201-95.315z"/><path fill="#a38970" fill-opacity=".667" d="M195.24 783.872l27.755-264.749-1.155-22.986-86.102 253.769z"/><path fill="#8b9599" fill-opacity=".604" d="M665.31 266.238L872.984 79.642l-7.986 390.704-324.768 1.65z"/><path fill="#00e5c7" fill-opacity=".337" d="M564.764 506.206l87-10.92 26.345 88.359-89.723 12.896z"/><path fill="#b6a6aa" fill-opacity=".839" d="M239.141 227.287l-48.982-42.835 26.955 128.565-69.509 14.547z"/><path fill="#554ba3" fill-opacity=".988" d="M567.635 440.444l64.96-63.355L415.094 251.5l96.682 8.261z"/><path fill="#08063b" fill-opacity=".592" d="M533.826 477.764L144.91 452.16l296.871-116.202 118.547 91.3z"/><path fill="#93420c" fill-opacity=".349" d="M344.79-62l69.013 142.434 10.128 35.227-236.904-42.426z"/><path fill="#000b18" fill-opacity=".427" d="M289.993 145.839l-45.074 63.66L-9.36-62-62 257.159z"/><path fill="#fffcf9" fill-opacity=".18" d="M383.607 419.612l81.576 90.72-65.815 34.588-11.36-23.69z"/><path fill="#b7bf64" fill-opacity=".267" d="M541.338 654.21l-31.87 27.108-102.312 3.288-107.593-25.203z"/><path fill="#efcdbf" fill-opacity=".655" d="M463.021 1086l-32.057-89.706 172.577-69.409L531.407 1086z"/><path fill="#c0c1d4" fill-opacity=".898" d="M447.4 300.176l107.265 61.52-58.196-58.594 40.47 80.84z"/><path fill="#6e6b31" fill-opacity=".537" d="M52.48 684.441l6.648-371.422L-62 310.118v374.8z"/><path fill="#080527" fill-opacity=".671" d="M625.347 894.832l125.433 71.301-89.84 6.558L539.223 1086z"/><path fill="#0d0055" fill-opacity=".514" d="M682.337 624.482l7.238-61.712-146.403 64.124 91.276 23.296z"/><path fill="#fcffeb" fill-opacity=".357" d="M821.741 1086l-47.54-195.32-35.116 6.608 6.076 8.482z"/><path fill="#e8edd3" fill-opacity=".475" d="M720.448 1081.207l-40.064-60.81 127.41 30.94-166.78-75.973z"/><path fill="#a1aaad" fill-opacity=".89" d="M689.678 283.512l-75.003 60.184 45.578 99.894 236.76-91.734z"/><path fill="#000608" fill-opacity=".475" d="M691.748 418.01L367.471 634.2l176.569 13.78 8.067-114.748z"/><path fill="#bbf3f9" fill-opacity=".702" d="M648.732 513.054l-26.696 8.627-1.161-23.83 14.26-22.01z"/><path fill="#d9d9e6" fill-opacity=".51" d="M513.916 384.703L415.55 276.49l57.673 41.534-58.384-3.374z"/><path fill="#52f7a7" fill-opacity=".216" d="M318.335 652.656l85.36-63.403-72.897-12.486 22.606 135.375z"/><path fill="#4c5959" fill-opacity=".847" d="M41.747 288.63l213.787-33.482-76.159-22.934L90.038 548.53z"/><path fill="#996549" fill-opacity=".984" d="M102.907 740.233l29.43 128.97L120.36 1086 99.135 832.13z"/><path fill="#000217" fill-opacity=".675" d="M405.168 319.226l-196.064 263.26 300.579-4.923-199.031-62.283z"/><path fill="#303748" fill-opacity=".808" d="M135.782 771.869l-7.849 15.84 122.271 220.533-102.667-237.437z"/><path fill="#c1c1c4" fill-opacity=".847" d="M743.182 967.18l-55.602 9.57-4.964 109.25h-98.664z"/><path fill="#071456" fill-opacity=".357" d="M479.18 840.529L134.628 1086l-9.529-213.442 55.24 74.736z"/><path fill="#383f51" fill-opacity=".698" d="M398.66 338.032l73.868-132.77L344.905-62l93.568 84.78z"/><path fill="#eeecfe" fill-opacity=".573" d="M462.936 279.513l49.226 37.364-90.096-45.711 42.071 3.988z"/><path fill="#fed0b3" fill-opacity=".369" d="M308.636 193.613L193.277 246.91l6.68-55.985 154.258 70.979z"/><path fill="#8f5000" fill-opacity=".294" d="M216.84 507.315l-47.625 167.04-66.109 92.348-1.776-168.291z"/><path fill="#966a56" fill-opacity=".996" d="M179.696 951.018l21.34-35.48-3.035 8.901L96.96 807.957z"/><path fill="#5651aa" fill-opacity=".839" d="M628.99 445.105l-40.396-138.127 79.846 153.35 6.031 121.261z"/><path fill="#a57350" fill-opacity=".98" d="M403.036 227.866l21.731-92.818-28.988-78.431-71.36 109.67z"/><path fill="#1d1749" fill-opacity=".698" d="M686.666 1040.377l27.677-311.312-89.576 206.957 51.9-34.908z"/><path fill="#ffb840" fill-opacity=".282" d="M613.982 429.561l20.18 27.92-71.148 47.243-18.05-62.162z"/><path fill="#271712" fill-opacity=".843" d="M15.64-43.78L285.308-62 191.237 95.995l-20.296 44.101z"/><path fill="#ffedce" fill-opacity=".294" d="M84.162 730.42l18.862-92.55-22.237 331.047-6.23-189.424z"/><path fill="#7f878b" fill-opacity=".796" d="M898 369.746l-234.652 79.796 9.04 57.977L898 414.535z"/><path fill="#fdc5a1" fill-opacity=".286" d="M709.691 748.567l-15.04-148.89-35.819 71.25-111.667-25.157z"/><path fill="#000025" fill-opacity=".412" d="M309.563 619.337L208.587 724.144l18.598 43.186 113.352-1.826z"/><path fill="#ebf952" fill-opacity=".145" d="M390.92 731.836l140.636-18.692-138.759-15.791-39.183 11.366z"/><path fill="#2d2858" fill-opacity=".639" d="M458.257 655.975l-57.721-384.022 199.765 159.115-186.383-132.255z"/><path fill="#ffdac0" fill-opacity=".412" d="M373.617 297.157l17.529 20.814 3.88 8.759 19.356-110.935z"/><path fill="#fff0e0" fill-opacity=".259" d="M211.716 58.001L197.06 89.206l-26.233 88.851 60.378-10.178z"/><path fill="#3a346e" fill-opacity=".898" d="M708.58 991.248L705.915 1022l61.032-38.407-10.506-.331z"/><path fill="#243341" fill-opacity=".722" d="M54.057 888.39L116.043 1086 46.17 735.251l47.2-72.755z"/><path fill="#222e1f" fill-opacity=".404" d="M898 717.288l-157.297-22.954 55.39 195.06 49.218-88.785z"/><path fill="#ffdbcd" fill-opacity=".294" d="M286.074 792.842l-10.435 38.01-77.23-64.978-17.128 101.825z"/><path fill="#354746" fill-opacity=".624" d="M200.76 272.166L-62 343.198l.882 68.467 235.963-297.189z"/><path fill="#5c6f6f" fill-opacity=".612" d="M590.56 312.109l-2.32 26.427L898 114.169l-35.593-26.056z"/><path fill="#03040c" fill-opacity=".729" d="M153.09 516.783l-13.295 22.44 93.95-29.348-71.997-144.941z"/><path fill="#fdfeff" fill-opacity=".318" d="M559.99 377.14l-26.28-59.79 8.582 63.137-127.111-96.429z"/><path fill="#a8a1f2" fill-opacity=".22" d="M324.189 977.643l-47.913-15.746L244.71 1086l129.826-104.304z"/><path fill="#162323" fill-opacity=".902" d="M599.218 165.946L730.663-62 865.67-2.908 624.214 205.8z"/><path fill="#0b0a2a" fill-opacity=".647" d="M355.404 1048.06l152.07-94.622-57.94-248.08-62.334 50.566z"/><path fill="#cfa27d" fill-opacity=".839" d="M593.596 923.46l-101.372 44.502 52.382-85.83 88.614-125.66z"/><path fill="#532ce5" fill-opacity=".196" d="M790.974 935.205l22.507-31.632-86.068-187.535-36.175 17.794z"/><path fill="#00060a" fill-opacity=".737" d="M102.859-31.407L15.865-62l24.754 177.468 83.488 20.789z"/><path fill="#111156" fill-opacity=".471" d="M159.977 376.45l-24.89-43.742 76.255-19.272 106.423 76.237z"/><path fill="#564baa" fill-opacity=".918" d="M602.615 382.063l35.07 53.222-183.21-177.09 114.172 41.53z"/><path fill="#2e3549" fill-opacity=".851" d="M898-40.73L457.289 289.482l72.392 56.364-81.719-49.741z"/><path fill="#7d8a93" fill-opacity=".651" d="M898 686.884l-113.91 21.005-50.502-18.513 107.884-19.703z"/><path fill="#512905" fill-opacity=".427" d="M264.43 166.97l32.05 34.105-114.445-16.2 78.682-36.693z"/><path fill="#3e8dc0" fill-opacity=".31" d="M131.505 361.98l21.752 78.115-60.631 127.972 23.035-142.406z"/><path fill="#381907" fill-opacity=".663" d="M232.346 59.934l115.27 47.24L223.943-62 372.548 53.953z"/><path fill="#070512" fill-opacity=".596" d="M566.569 1003.648l89.868-136.858-35.199 129.363L652.944 1086z"/><path fill="#f4f7f2" fill-opacity=".286" d="M224.874 475.259l-2.386 17.894 61.114 4.84-51.211-26.787z"/><path fill="#84a0b5" fill-opacity=".333" d="M223.356 631.713l-47.637 6.449 6.316 31.998 46.402 57.8z"/><path fill="#2f2382" fill-opacity=".431" d="M567.107 359.224l21.515 52.384-2.925 40.88-97.377-30.079z"/><path fill="#eef0eb" fill-opacity=".51" d="M715.43 975.813l-67.81 15.366-11.155 61.27.187-51.397z"/><path fill="#000002" fill-opacity=".204" d="M324.042 634.1l335.936-78.272L430.4 499.825l244.118-42.988z"/><path fill="#090a26" fill-opacity=".471" d="M435.808 267.125l-119.252 332.43-122.224 24.77 20.165-49.122z"/><path fill="#f5d3bf" fill-opacity=".373" d="M93.98 855.295l-8.504 22.388-3.18 34.578L120.99 1086z"/><path fill="#00fe73" fill-opacity=".141" d="M430.392 641.895l-61.14 12.972-64.537-80.696 72.59 13.152z"/><path fill="#1f1957" fill-opacity=".824" d="M732.596 964.152l-34.35-163.527 46.729-5.227L633.85 989.841z"/><path fill="#976544" fill-opacity=".635" d="M270.714 326.507l96.042-51.497-122.738-52.445-23.55 108.477z"/><path fill="#f7f6ff" fill-opacity=".357" d="M535.247 396.704l-47.675-46.882-84.668-52.285 120.676 97.328z"/><path fill="#d9dcb4" fill-opacity=".176" d="M459.272 523.122l-35.094 38.258-22.745-78.409 48.948 22.05z"/><path fill="#3c328c" d="M764.868 958.343l14.663 116.543-28.156-148.993-66.029 35.684z"/><path fill="#b0a8b8" fill-opacity=".69" d="M241.856 297.1l9.26-1.345-92.451 28.138 21.42-44.464z"/><path fill="#ffe7c6" fill-opacity=".255" d="M81.872 655.465l27.713-56.403 27.077-92.16-1.567-74.441z"/><path fill="#1a1000" fill-opacity=".412" d="M195.274 347.868l145.482-43.357-2.552-23.764-48.18 71.546z"/><path fill="#050218" fill-opacity=".694" d="M649.354 867.183l111.2-12.733-56.51-24.799-51.202 23.206z"/><path fill="#69538b" fill-opacity=".306" d="M390.538 832.02l-128.699 69.438L235.082 1086 214.4 893.042z"/><path fill="#ffe4e0" fill-opacity=".306" d="M175.659 855.973L146.36 844.56l62.02 106.49-98.17-160.655z"/><path fill="#0b1b00" fill-opacity=".196" d="M-62 566.456l134.557 47.481 46.72-101.363-46.502 22.333z"/><path fill="#b58562" fill-opacity=".631" d="M334.799 110.03l-141.686 23.318 120.061 40.972 82.535 164.865z"/><path fill="#021d2b" fill-opacity=".639" d="M79.667 238.647L-62 357.168-15.596 8.066 17.51-37.722z"/><path fill="#191150" fill-opacity=".635" d="M267.43 892.541l127.323-41.324-49.527 197.262L510.277 1086z"/></svg>