<svg xmlns="http://www.w3.org/2000/svg" width="228" height="278" viewBox="0 0 836 1024"><path fill="#514146" d="M0 0h836v1024H0z"/><g fill-opacity=".502"><path fill="#200000" d="M74 350l480 736 264-700z"/><path fill="#e1c1d3" d="M234 618l-100 460-196-468z"/><path fill="#8b917c" d="M-42 302l-8-316 948 268z"/><path fill="#000007" d="M190 1034l432 16-452-248z"/><path fill="#fff" d="M362 842l84 108-188-132z"/><path fill="#688b87" d="M898-62v548L462 42z"/><path fill="#d70000" d="M594 1086l64-260-84-256z"/><path fill="#fffdff" d="M114 582l-60-4 56-128z"/><path fill="#020717" d="M706 630l-524-44 376-368z"/><path fill="#7a0004" d="M234 750l252-68 32 296z"/><path fill="#adab99" d="M566 618l-224 28 164 48z"/><path fill="#f2ddd4" d="M498 514l56-8-24-92z"/><path fill="#94070c" d="M58 766l152-204-68-128z"/><path fill="#afc2ff" d="M238 578l-96 76 20 224z"/><path fill="#0a0706" d="M494 98L378-62 262 166z"/><path fill="#f50002" d="M646 454l168 20-200-112z"/><path fill="#fff" d="M214 526l108-8-92-20z"/><path fill="#e4ffa7" d="M890 990l-88 96-200-72z"/><path fill="#000415" d="M594 590L114 430l148-168z"/><path fill="#b65835" d="M246 166l256-44-96 276z"/><path fill="#637c76" d="M66 554L358-62-62 14z"/><path fill="#000015" d="M638 1014V578l68 244z"/><path fill="#000018" d="M162 1086l280-88-228-236z"/><path fill="#163436" d="M66 686l76-40-4 204z"/><path fill="#cf728b" d="M858 366l-276-96 108 100z"/><path fill="#16000a" d="M202 678l240-12-20 204z"/><path fill="#ff4463" d="M510 878l-72 60 76 40z"/><path fill="#940000" d="M638 666l-68-220 4 444z"/><path fill="#394c57" d="M478 74l296-56-216 504z"/><path fill="#d19071" d="M190 954L-62 578 58 946z"/><path fill="#ff0417" d="M182 470l-12 132-56-32z"/><path fill="#f29e8e" d="M330 118l24 52 168-12z"/><path fill="#fff" d="M718 390l-24-48h-28z"/><path fill="#556b6d" d="M702 690l-12-196 88 16z"/><path fill="#86a1a2" d="M790 330V-62L898 94z"/><path fill="#f0fffd" d="M562 674l-28-56-20 28z"/><path fill="#000823" d="M490 602v232l100 108z"/><path fill="#fef" d="M366 858l64 88-148-116z"/><path fill="#740005" d="M366 846l-136-56 124-152z"/><path fill="#fbfffb" d="M514 734l-40-4 20-24z"/></g></svg>