<svg xmlns="http://www.w3.org/2000/svg" width="228" height="278" viewBox="0 0 836 1024"><path fill="#6a6183" d="M0 0h836v1024H0z"/><path fill="#d2c9e1" fill-opacity=".631" d="M356.976 403.13l80.92 682.87h155.281l22.576-658.453z"/><path fill="#26160a" fill-opacity=".714" d="M480.522 412.735l156.537-124.95L490.092-62 286.408 325.894z"/><path fill="#e8ac78" fill-opacity=".647" d="M116.9 483.682L12.322 710.44 208.65 1086l-10.866-518.46z"/><path fill="#000602" fill-opacity=".333" d="M236.759 966.144l-30.696-631.312 142.155 158.236 234.15 52.378z"/><path fill="#192a88" fill-opacity=".486" d="M344.216-62L-62 33.256v603.67L443.171 339.86z"/><path fill="#ae97ba" fill-opacity=".773" d="M786.852 1086L898 450.257l-177.434 163.82 57.83 323.208z"/><path fill="#051135" fill-opacity=".788" d="M174.666 807.11l307.693 74.634-183.397 29.183-137.38-63.92z"/><path fill="#dbd5e2" fill-opacity=".694" d="M302.365 464.133l348.14 87.428 38.254-77.398-360.38-100.494z"/><path fill="#0020d7" fill-opacity=".306" d="M845.675-58.602L664.202 146.814l-48.093 295.19 232.8 255.802z"/><path fill="#f8e6ff" fill-opacity=".333" d="M898 1078.894l-275.637-32.874L300.06 802.911l232.483-21.09z"/><path fill="#291d0b" fill-opacity=".663" d="M-62 650.073l131.992-63.621 40.669-134.283-87.705-104.555z"/><path fill="#460207" fill-opacity=".655" d="M115.608 932.15l-20.373-44.818L-62 947.047 87.063 1086z"/><path fill="#fafdff" fill-opacity=".337" d="M382.93 747.63l156.754 3.718 49.293-65.11L44.83 648.554z"/><path fill="#1a0801" fill-opacity=".459" d="M768.363 907.296l-8.874 10.215-56.342-443.799-78.335 125.653z"/><path fill="#9fb0f6" fill-opacity=".459" d="M246.565 261.183l65.61-4.413-110.937 183.505L70.787 557.49z"/><path fill="#000f44" fill-opacity=".592" d="M338.938 792.386L218.92 738.829l-95.38-63.346 418.057 109.413z"/><path fill="#3e2d07" fill-opacity=".482" d="M416.895 108.49L660.45-62h118.708L898 61.113z"/><path fill="#001260" fill-opacity=".627" d="M305.137 490.84l21.618-175.952L131.413 528.75l452.794 15.352z"/><path fill="#ffaf35" fill-opacity=".278" d="M651.375 247.715L610.58 385.417l-121.1-270.072 140.39-28.7z"/><path fill="#eae7ff" fill-opacity=".365" d="M290.61 813.874l-151.153-11.4L234.65 1086 133.9 664.421z"/><path fill="#ffad02" fill-opacity=".255" d="M642.71 699.616l97.905-115.128 84.603 466.115L791.883 1086z"/><path fill="#9e8a99" d="M8.229 1040.532L545.954 909.04 367.6 1086l28.089-100.293z"/><path fill="#f1f4ff" fill-opacity=".647" d="M590.8 990.76l-8.306-228.335-229.88 65.021 164.829 11.832z"/><path fill="#000c74" fill-opacity=".788" d="M695.711 483.241l-71.406 116.637 95.26 24.185 17.39-164.237z"/><path fill="#311e00" fill-opacity=".573" d="M398.928 64.203l221.869 143.099-22.593 158.93-138.581 22.608z"/><path fill="#001485" fill-opacity=".494" d="M331.091 909.201l81.385 2.22 104.602-55.804-100.022-6.03z"/><path fill="#7677cc" fill-opacity=".616" d="M718.4 268.828l179.6 309.4-82.507 423.769-99.486-677.93z"/><path fill="#c08655" fill-opacity=".839" d="M63.967 781.262L235.641 568.59 96.048 495.926 167.36 1086z"/><path fill="#c0b8c8" fill-opacity=".737" d="M568.105 678.905L469.097 548.7 340.95 568.335l297.94-.25z"/><path fill="#6863bc" fill-opacity=".714" d="M736.223 945.014l-134.744-.363-21.08-116.283 24.684-215.627z"/><path fill="#863216" fill-opacity=".486" d="M411.427 677.28l144.49-68.206-88.223-50.737-82.858 23.48z"/><path fill="#020800" fill-opacity=".529" d="M198.44 734.76l129.816 54.242-93.04-231.306 119.799 88.471z"/><path fill="#ffd0d9" fill-opacity=".294" d="M626.998-62l20.075 361.805-70.765-196.956 155.826-13.858z"/><path fill="#000b55" fill-opacity=".357" d="M481.148 394.751l273.258 29.405-418.72-129.134 30.057 137.768z"/><path fill="#7574c8" fill-opacity=".796" d="M73.053 908.866L39.227 697.535l6.606-79.826L-62 719.614z"/><path fill="#0a154c" fill-opacity=".682" d="M76.268-62h289.285L306.998 49.396l-204.856-.577z"/><path fill="#ae96ae" fill-opacity=".686" d="M701.993 473.422l-144.809 51.314 77.863-148.991-60.946-21.94z"/><path fill="#444795" fill-opacity=".992" d="M391.878 135.51l48.099 179.832-58.49-85.35L-62 224.412z"/><path fill="#ebebf9" fill-opacity=".757" d="M460.897 706.15l138.457-38.115-15.994 77.1-92 7.544z"/><path fill="#ab7b57" fill-opacity=".984" d="M258.445 1056.273L118.413 897.44l-19.667 143.578-128.252-33.56z"/><path fill="#6a73ff" fill-opacity=".235" d="M342.681 435.826L41.97 200.196l92.28 321.292 91.57-408.253z"/><path fill="#001176" fill-opacity=".494" d="M667.572 623.358l93.157-27.742-453.077-81.079 349.288 31.97z"/><path fill="#2033b5" fill-opacity=".373" d="M360.552 793.009l327.887-90.517-185.372 91.883-61.295 3.92z"/><path fill="#f4eefe" fill-opacity=".463" d="M252.67 1071.745l252.82-93.019 232.77 80.21 8.469-46.904z"/><path fill="#f4d1af" fill-opacity=".318" d="M85.975 845.292l339.751 111.971-231.229-40.313L261.705 1086z"/><path fill="#f0f8d8" fill-opacity=".18" d="M489.52 732.529l-139.616-12.725 79.044-183.46-159.981 34.063z"/><path fill="#1d1100" fill-opacity=".635" d="M550.818 31.048L475 203.541l-93.165-69.692 266.178-48.921z"/><path fill="#dfe7ff" fill-opacity=".4" d="M568.053 407.272l-3.199 123.423-164.913-9.782-74.952-69.24z"/><path fill="#0e22a7" fill-opacity=".541" d="M75.754 478.263l163.541 4.72 27.269 3.661-27.27 83.632z"/><path fill="#eab695" fill-opacity=".659" d="M141.342 640.025L23.784 725.739l72.781-208.22 93.755 509.739z"/><path fill="#5454a1" fill-opacity=".667" d="M451.454 687.426l106.14-3.626 9.113-10.831 130.255-56.58z"/><path fill="#1d50fc" fill-opacity=".251" d="M755.832 448.872l-341.055-35.239 166.816-53.707 132.604-36.279z"/><path fill="#090a06" fill-opacity=".71" d="M893.636 51.384L877.843-62 739.338 11.906l12.124 22.692z"/><path fill="#b5615d" fill-opacity=".447" d="M581.158 962.58l-11.352 31.587-149.578-11.149 103.814-73.877z"/><path fill="#0a0d00" fill-opacity=".424" d="M235.812 405.541l113.285 107.31-154.69 97.68 124.607 59.801z"/><path fill="#080f44" fill-opacity=".992" d="M320.847 250.001l-32.402 51.278 108.039 75.777-16.546-162.415z"/><path fill="#070e28" fill-opacity=".71" d="M181.608 871.162l214.25 30.949-232.826-100.408-3.316 7.91z"/><path fill="#e8eafa" fill-opacity=".6" d="M536.696 972.78l-63.506-97.107 126.422-51.834-129.268 140.985z"/><path fill="#ffcf9d" fill-opacity=".318" d="M771.385 695.394l32.793 343.132L708.645 603.1 898 680.456z"/><path fill="#f3efff" fill-opacity=".322" d="M213.428 601.094l9.197-62.938-55.497 135.576 79.768 7.986z"/><path fill="#280d02" fill-opacity=".529" d="M362.551 560.109l118.9 77.369 77.564-32.968L409.7 631.78z"/><path fill="#77615b" fill-opacity=".945" d="M708.955 40.438l-347.54-29.894L496.262-62h259.503z"/><path fill="#ffb67d" fill-opacity=".337" d="M648.423 143.341l-53.11-57.915-84.824 96.259 127.805-14.979z"/><path fill="#bfc2c1" fill-opacity=".663" d="M428.15 591.104l-38.02-11.49 91.022 29.113 167.199-21.617z"/><path fill="#000326" fill-opacity=".255" d="M152.894 712.252l98.989 32.87-137.655-136.92 68.052-54.044z"/><path fill="#0d1f92" fill-opacity=".627" d="M729.442 580.912l-55.86-198.718-163.872 8.087 237.039 69.909z"/><path fill="#90b607" fill-opacity=".239" d="M258.43 402.104l-76.71-23.08-26.825 103.366 26.45 20.14z"/><path fill="#a7a8a9" fill-opacity=".337" d="M343.635 863.586L228.83 769.479l226.813 30.592-92.573 67.038z"/><path fill="#e9e9f5" fill-opacity=".686" d="M560.258 661.773l-42.461-1.742 67.17-78.99 40.203 12.428z"/><path fill="#feeaee" fill-opacity=".31" d="M181.135 948.215l25.837 110.62 1.628-41.641 129.075-21.098z"/><path fill="#1d2364" fill-opacity=".329" d="M715.558 99.086l43.11 196.091 91.996 18.308L749.78-62z"/><path fill="#ffd0dd" fill-opacity=".157" d="M572.413 214.521l-83.42-8.752 188.712 161.383-81.715 27.675z"/><path fill="#c6d0f5" fill-opacity=".365" d="M333.902 924.803l106.834 41.554L315.648 1086l189.924-197.731z"/><path fill="#052be1" fill-opacity=".357" d="M342.49 367.317l-88.904 29.245-72.794-36.948 165.932-54z"/><path fill="#281218" fill-opacity=".243" d="M744.418 652.038L733.626 810.05 609.433 641.11 578.8 775.316z"/><path fill="#2b0213" fill-opacity=".306" d="M453.891 1000.33l-46.637 1.404 88.642-91.542 2.821 19.061z"/><path fill="#c4ccfc" fill-opacity=".573" d="M293.483 272.772l-49.472 9.495-13.296 87.105-12.085-30.728z"/><path fill="#0811a1" fill-opacity=".259" d="M825.95 887.77l32.763 116.676-45.502 4.901-41.268-292.017z"/><path fill="#a5a2bd" fill-opacity=".549" d="M375.527 761.018l70.759-139.38 11.266 1.572-22.724 133.038z"/><path fill="#d1d8ff" fill-opacity=".549" d="M167.643 807.107l50.384-21.32-49.896-73.461-20.965 35.014z"/><path fill="#5f5e95" fill-opacity=".725" d="M175.06 57.94l20.619 104.906 172.82-136.625 30.713 127.202z"/><path fill="#cdd9fd" fill-opacity=".294" d="M339.477 668.632L452.838 544.25l-55.66 2.35-.672 21.673z"/><path fill="#5e5d8b" fill-opacity=".424" d="M641.616 152.68l-15.443-57.94-5.444-96.866L898 108.373z"/><path fill="#e0e4ea" fill-opacity=".349" d="M414.371 491.838l-91.378-127.484-28.29 103.777 33.213-24.785z"/><path fill="#716561" fill-opacity=".682" d="M328.452 713.943L161.1 590.811l186.121 92.22-181.564-2.17z"/><path fill="#171901" fill-opacity=".553" d="M524.24 283.076l84.363 75.256-187.13 41.057 44.988-81.857z"/><path fill="#635356" fill-opacity=".773" d="M400.45 952.633l-138.573 80.55L-62 1004.388 270.127 1086z"/><path fill="#4f1105" fill-opacity=".318" d="M444.015 672.876l146.008-103.398-31.936 48.835-79.871-15.667z"/><path fill="#00030d" fill-opacity=".482" d="M605.354 381.459l53.401 6.24 17.12 13.306 7.944 31.783z"/><path fill="#f1fff9" fill-opacity=".247" d="M682.78 511.35l19.224-34.559-38.903-54.335-45.69 142.306z"/><path fill="#e1dce9" fill-opacity=".373" d="M604.49 434.84l-119.813-43.922 37.646-18.703-50.895 161.265z"/><path fill="#fd9c44" fill-opacity=".208" d="M490.918 239.162l-91.66-31.922 40.48 128.332 4.536-129.395z"/><path fill="#9286cb" fill-opacity=".557" d="M738.57 1006.997l-4.047-108.108-146.508-17.572L605.052 1086z"/><path fill="#1f1e1d" fill-opacity=".792" d="M6.161 478.856l85.593 53.38 16.573-46.304L-62 355.75z"/><path fill="#f2654f" fill-opacity=".373" d="M632.383 480.448l-33.964 32.46-21.583 13 37.59-86.811z"/><path fill="#1b2700" fill-opacity=".216" d="M263.953 978.743l7.945-137.37 86.868-5.34-12.85 112.109z"/><path fill="#5b3c83" fill-opacity=".549" d="M87.985 920.484l-33.93 15.346-109.4-26.784L82.93 830.983z"/><path fill="#5a60c6" fill-opacity=".643" d="M490.342 524.633l-5.682 2.817-131.346-8.688 10.208-29.456z"/><path fill="#f2b4a3" fill-opacity=".435" d="M603.664 265.673l45.377 25.342-42.413 50.398 43.549-123.778z"/><path fill="#523703" fill-opacity=".263" d="M200.126-62L609.541 46.44l-219.317 83.652 17.153-72.494z"/><path fill="#768bff" fill-opacity=".435" d="M726.772 443.572l15.365-61.581-191.793 5.358 89.427-44.132z"/><path fill="#6464ab" fill-opacity=".996" d="M173.534 667.45l50.914 40.821-87.854-26.085 20.321 3.862z"/><path fill="#333a8a" fill-opacity=".616" d="M519.92 673.031l-28.708-17.588 63.053 6.877 21.03 3.869z"/><path fill="#e79d64" fill-opacity=".439" d="M42.694 732.545L112.84 612.65l46.393 234.392 74.688 233.205z"/><path fill="#616291" d="M425.865 334.136l-48.754-14.789 49.412 42.336 6.738 112.435z"/><path fill="#534c3f" fill-opacity=".38" d="M395.582 700.748l-107.328-18.549-32.353 94.261-72.673-13.821z"/><path fill="#aab9ff" fill-opacity=".639" d="M186.298 348.079l81.107-70.43 60.368-34.75-130.734 106.406z"/><path fill="#edfafc" fill-opacity=".267" d="M485.984 554.331l79.586 20.519-30.532 23.056-23.776 31.49z"/><path fill="#4e3e58" fill-opacity=".655" d="M116.51 490.783L70.85 342.76-62 349.121l114.155 68.345z"/><path fill="#071b99" fill-opacity=".278" d="M360.908 271.093l42.18-79.914 5.023 66.127 72.187 220.346z"/><path fill="#5f593e" fill-opacity=".525" d="M253.012 522.333l32.527 82.86 117.165-15.747-111.19-71.694z"/><path fill="#070d1a" fill-opacity=".733" d="M182.762 695.866l77.38 70.528 119.812 16.596-64.106-51.466z"/><path fill="#a30200" fill-opacity=".518" d="M451.389 552.197l-29.823 25.605 79.127 11.857-53.279-36.34z"/><path fill="#5f62bc" fill-opacity=".522" d="M530.685 457.767l86.206 96.147-279.01-19.64 286.006 44.038z"/><path fill="#000726" fill-opacity=".396" d="M508.813 369.261l-167.441-27.804 178.265 85.446-45.134-2.433z"/><path fill="#945f2a" fill-opacity=".482" d="M122.412 1086h32.157l24.229-123.684-41.831-74.353z"/><path fill="#d35f04" fill-opacity=".271" d="M793.473 1073.28l-76.09-2.445 42.445-89.073 1.403-181.137z"/><path fill="#e5e2f0" fill-opacity=".843" d="M591.7 980.137l-124.805 105.636 42.718-116.14L610.408 1086z"/><path fill="#5b5573" fill-opacity=".851" d="M71.774-57.668l9.121 148.732L-62 94.216v-120z"/><path fill="#020629" fill-opacity=".773" d="M249.047 402.183l-28.62 59.524 126.965 76.922-60.826-75.402z"/></svg>