<svg xmlns="http://www.w3.org/2000/svg" width="228" height="278" viewBox="0 0 836 1024"><path fill="#9b7868" d="M0 0h836v1024H0z"/><path fill="#810704" fill-opacity=".604" d="M323.167 201.779l387.156 209.383-159.044 609.548-358.417-86.67z"/><path fill="#a4b5b1" d="M816.377 728.228L898-1.558l-544.924-42.67 194.74 110.703z"/><path fill="#dfeef1" fill-opacity=".894" d="M720.5 703.836l-72.303-1.489-1.88 373.182 71.556-34.688z"/><path fill="#8ee4ef" fill-opacity=".455" d="M-62-62l363.504 37.464 76.84 288.516L-62 380.393z"/><path fill="#f4f2f5" fill-opacity=".969" d="M510.107 1086L362.913 979.334l-151.523-32.6L210.152 1086z"/><path fill="#9d261c" fill-opacity=".98" d="M186.804 331.372l-81.759 127.357-37.852 125.33 410.1 28.296z"/><path fill="#020204" fill-opacity=".855" d="M298.114 877.359l285.79 4.87 11.59-96.5-357.146 12.938z"/><path fill="#bda68a" fill-opacity=".78" d="M594.378 617.327l-630.98 34.236 497.686 54.987-18.73-207.35z"/><path fill="#fbec2e" fill-opacity=".529" d="M-62 799.42L75.264 134.434l6.656 486.27 92.515 148.385z"/><path fill="#093640" fill-opacity=".624" d="M213.468 426.617l-12.905 98.966 391.763-22.086-10.385-81.763z"/><path fill="#e2372a" fill-opacity=".945" d="M605.457 280.51L360.489 422.814l223.955-5.38 186.89 278.48z"/><path fill="#cf1f19" fill-opacity=".996" d="M603.14 875.267l-408.68 15.369 106.398 51.619 308.491 43.86z"/><path fill="#5691cd" fill-opacity=".729" d="M522.781 131.73l-19.552-10.501L635.379-62 898 59.308z"/><path fill="#000c0b" fill-opacity=".424" d="M486.286-62L291.905 111.074l146.36-31.465 68.028 106.645z"/><path fill="#c2a234" fill-opacity=".573" d="M557.927 294.992L123.168-28.552l47.739 165.99 523.866-8.18z"/><path fill="#f7f1d0" fill-opacity=".624" d="M796.163 618.031L688.907 408.025l-34.033-56.492 43.506-230.945z"/><path fill="#94f2ff" fill-opacity=".251" d="M193.546 1047.991L-62 1086l7.262-327.2 280.338-3.97z"/><path fill="#c5beab" fill-opacity=".4" d="M526.667 443.108L481.72 695.913l99.537-63.808-291.754-364.532z"/><path fill="#633119" fill-opacity=".765" d="M717.847 700.156l-13.291-264.071 55.557 181.905-412.787 97.077z"/><path fill="#dda371" fill-opacity=".82" d="M464.01 590.625l174.684 68.064 117.664-27.528-76.222-29.346z"/><path fill="#4d9eff" fill-opacity=".412" d="M-6.22-62l1.623 202.122 392.443 152.495L28.295-27.773z"/><path fill="#f0c131" fill-opacity=".451" d="M869.49 407.689l-127.026-11.63-17.574 155.07L898 606.153z"/><path fill="#ff8d39" fill-opacity=".427" d="M375.929 428.11L-62 429.124l12.391-89.856 357.286-4.967z"/><path fill="#00171e" fill-opacity=".537" d="M478.221 1021.876l157.834-60.587-181.191 12.6-226.56-45.84z"/><path fill="#85b2b7" fill-opacity=".443" d="M776.568 524.026l-94.209 561.938-362.454-94.426L898 1031.764z"/><path fill="#d4b07d" fill-opacity=".839" d="M161.332 728.54l56.238-223.33 23.112 139.596-178.125-66.431z"/><path fill="#310000" fill-opacity=".592" d="M550.305 901.085l-152.55-285.417-14.705 85.688 208.284-21.678z"/><path fill="#87a0a1" fill-opacity=".647" d="M591.344 646.18l19.713 212.601 42.83 215.365 6-356.75z"/><path fill="#804432" fill-opacity=".988" d="M172.433 340.01l432.273-24.724-154.419-72.364-126.8 28.717z"/><path fill="#f12820" fill-opacity=".816" d="M212.591 965.747l-4.83-130.921 334.992 120.388-290.665-27.675z"/><path fill="#8c0503" fill-opacity=".678" d="M600.784 765.676l-331.086-80.618-20.77-209.682-11.477 336.222z"/><path fill="#ff120b" fill-opacity=".533" d="M407.008 617.778l-170.302-26.899 12.267-68.24 221.1-4.27z"/><path fill="#bfbd7c" fill-opacity=".71" d="M23.674 225.494l64.633-70.066L203.382 284.89 87.629 489.6z"/><path fill="#6097cb" fill-opacity=".745" d="M594.276 48.225L90.422-62 322.813 79.724 427.68-61.968z"/><path fill="#d80902" fill-opacity=".624" d="M637.524 592.452l99.409 9.804-30.265-104.372-145.988-147.87z"/><path fill="#ba946a" fill-opacity=".714" d="M125.182 92.08l200.578 85.793 27.234 214.195 88.581-289.419z"/><path fill="#210000" fill-opacity=".616" d="M567.893 419.045l-57.79 44.092 92.955 139.968 1.579-166.978z"/><path fill="#bffef5" fill-opacity=".388" d="M475.448 672.055l-333.354 17.679 402.341-2.657-40.16-56.588z"/><path fill="#171301" fill-opacity=".624" d="M648.042 663.913l-125.836 28.404 12.78-24.297-23.333-36.49z"/><path fill="#ffc8bc" fill-opacity=".824" d="M285.156 403.13l-11.898 17.44-51.639-77.378 44.146 11.362z"/><path fill="#111919" fill-opacity=".627" d="M509.3 627.185l-278.954 3.55 39.181 94.082-4.999-112.84z"/><path fill="#050b03" fill-opacity=".565" d="M467.553 347.473l36.48-105.944-54.54 90.788-93.073 114.749z"/><path fill="#9ebecf" fill-opacity=".549" d="M274.517 453.484L248.5 495.816l28.407-5.006 45.735-6.284z"/><path fill="#061f40" fill-opacity=".49" d="M646.666 947.015L623.38 904.96 592.398 1086l43.753-51.606z"/><path fill="#07070b" fill-opacity=".384" d="M290.088 772.829l39.762-229.432-92.746 321.96 284.213 32.677z"/><path fill="#fe4034" fill-opacity=".89" d="M500.192 310.403l-99.25 109.185 179.107-7.643 45.518-50.24z"/><path fill="#260114" fill-opacity=".361" d="M292.421 147.587l222.47 8.612-23.965-63.067-32.91 97.846z"/><path fill="#a8bed6" fill-opacity=".553" d="M359.54 253.182L-28.325 282.29-62 331.147l230.046 2.269z"/><path fill="#df1d18" fill-opacity=".796" d="M221.372 408.757l12.613-90.544-72.292 68.084-51.232 174.03z"/><path fill="#c7eefd" fill-opacity=".545" d="M288.448 695.55l46.557-78.027 28.213 82.14-6.88-15.492z"/><path fill="#b2c6dd" fill-opacity=".494" d="M473.405 505.746l59.365-58.013-53.89-27.202-29.215 48.345z"/><path fill="#130d15" fill-opacity=".612" d="M286.72 301.358l56.04-42.42-11.594 53.067 37.958 88.508z"/><path fill="#990200" fill-opacity=".749" d="M481.16 504.959l65.625 87.683 60.791-30.2-48.1-50.607z"/><path fill="#91ccff" fill-opacity=".306" d="M701.598 153.462l-101.776 95.174-17.627 60.508L898 254.8z"/><path fill="#070000" fill-opacity=".357" d="M197.819 467.713l227.144 64.956 44.89-114.93-282.526 131.928z"/><path fill="#481b00" fill-opacity=".427" d="M752.028 708.854l-96.282-323.81 110.57 245.334-201.41 35.476z"/><path fill="#ff1a17" fill-opacity=".584" d="M295.26 322.145l71.898 88.444-70.645 13.735-41.678-102.616z"/><path fill="#010908" fill-opacity=".341" d="M95.255 588.369l73.948-251.67L59.427 573.847l66.197 1.048z"/><path fill="#df160d" fill-opacity=".404" d="M423.602 799.999l30.237-81.37-224.075-21.155 111.71 99.052z"/><path fill="#aec2ca" fill-opacity=".671" d="M605.445 993.352l-7.894-12.765L608.196 1086l-265.53-55.51z"/><path fill="#d4ba3a" fill-opacity=".867" d="M90.468 348.538l-123.217 9.03 49.355 365.349L91.29 499.184z"/><path fill="#bea639" fill-opacity=".722" d="M565.011 288.689L414.06 237.114l18.984 28.548 256.215-172.46z"/><path fill="#f7faff" fill-opacity=".588" d="M733.89 238.733l-31.274-33.294-33.81 154.504 43.484 95.354z"/><path fill="#f9ffff" fill-opacity=".314" d="M736.14 716.685l-84.506-29.034L672.566 1086l49.58-125.148z"/><path fill="#d6f3ff" fill-opacity=".537" d="M362.011 676.226l25.09-59.5 5.882 78.871-128.183-21.43z"/><path fill="#c6a96f" fill-opacity=".565" d="M686.687 658.028L898 654.206l-289.055-20.595-.226-96.65z"/><path fill="#031b26" fill-opacity=".565" d="M343.034 618.476l92.18 1.539-62.375-7.125-11.05 91.091z"/><path fill="#1e1d17" fill-opacity=".396" d="M311.25 150.779l40.93-129.376 154.047 90.99-128.574-33.064z"/><path fill="#d0a102" fill-opacity=".22" d="M123.994 270.21L156.065-5.426l129.503 79.285L-44.186 257.52z"/><path fill="#f7b59f" fill-opacity=".8" d="M457.084 520.752l-5.514 58.192 30.402-5.006 41.417-17.88z"/><path fill="#011f17" fill-opacity=".533" d="M503.541 607.118l-49.954 49.469 6.943 28.842.906 32.08z"/><path fill="#c4b049" fill-opacity=".753" d="M589.386 675.45l18.567 69.629 57.114-44.688-71.586-28.608z"/><path fill="#dfae7f" fill-opacity=".624" d="M133.477 676.777l95.28-140.354 18.53 198.818-33.648-48.788z"/><path fill="#f1a595" fill-opacity=".506" d="M344.295 139.043l11.307-48.845 42.415-11.878 87.853 76.75z"/><path fill="#9ea087" fill-opacity=".62" d="M700.059 74.343l41.687 18.926-11.567 53.18-234.729 2.45z"/><path fill="#0e0c0e" fill-opacity=".639" d="M540.903 681.67l-76.896 29.881-216.829-10.815 124.46-3.405z"/><path fill="#320000" fill-opacity=".604" d="M180.165 604.885l-36.674-9.77L273.219 461.57l-55.197-42.227z"/><path fill="#f82014" fill-opacity=".325" d="M204.665 950.373l31.473-452.924 13.977 268.994-1.871 206.543z"/><path fill="#000f0e" fill-opacity=".588" d="M520.891 1011.136l-150.824-31.142 260.508-2.02-17.648-1.136z"/><path fill="#08090a" fill-opacity=".584" d="M388.863 802.522l269.417-30.895-409.796 76.895.606-77.73z"/><path fill="#868985" fill-opacity=".796" d="M898 804.498l-50.805-218.68-114.417 136.533L728.453 1086z"/><path fill="#fc3027" fill-opacity=".584" d="M450.868 979.253l83.028-2.333-105.673-86.646-140.186-7.664z"/><path fill="#80afde" fill-opacity=".388" d="M3.253 149.774l319.253-42.803-61.47-75.92 22.392 252.032z"/><path fill="#6d9aff" fill-opacity=".349" d="M656.692 913.949l-13.146-108.875-46.294 3.837 23.495 138.706z"/><path fill="#050100" fill-opacity=".6" d="M601.685 495.439l-88.508 20.72 21.73-97.39 40.4-11.791z"/><path fill="#f5fded" fill-opacity=".565" d="M447.723 660.309l-.604-23.797-39.035-6.915 53.523 67.732z"/><path fill="#cee3ed" fill-opacity=".729" d="M264.572 632.644l34.78-4.689-33.006 44.626 23.89 12.11z"/><path fill="#c1b559" fill-opacity=".557" d="M573.667 308.644L544.131 208.24 652.19 351.845l15.573-85.069z"/><path fill="#a20f0d" fill-opacity=".757" d="M369.572 901.722l239.587-21.916-33.912-222.234 18.301 208.58z"/><path fill="#ee9824" fill-opacity=".6" d="M413.884 697.995l-13.123-11.032 98.41-97.21-31.314 50.603z"/><path fill="#c7a486" fill-opacity=".749" d="M369.56 386.005l-24.787-39.256-9.742-24.842 83.207 50.728z"/><path fill="#f2f7fe" fill-opacity=".286" d="M470.547 696.463l62.803-34.808-82.791-62.41 58.435-14.676z"/><path fill="#080700" fill-opacity=".549" d="M462.895 611.556l-116.67 8.2 148.705 17.056-28.22 54.586z"/><path fill="#ea2218" fill-opacity=".682" d="M640.26 373.173l18.272 234.067 78.838-20.745-7.357-5.954z"/><path fill="#ee3825" fill-opacity=".663" d="M255.438 410.019l258.39-3.93-308.269 31.05 23.494-87.604z"/><path fill="#eba598" fill-opacity=".459" d="M413.288 173.818l89.986 23.269-113.326 17.003 21.08-128.523z"/><path fill="#a0734f" fill-opacity=".941" d="M122.956 705.273l98.745 70.747 26.351-70.424-17.572-21.57z"/><path fill="#000e18" fill-opacity=".369" d="M392.178 703.11l-95.42-24.775 2.47-108.201 15.036 147.914z"/><path fill="#c3e5c0" fill-opacity=".498" d="M800.27 971.093l-42.856 87.543L866.272 1086l-5.567-82.405z"/><path fill="#912d2c" fill-opacity=".639" d="M600.439 326.314L716.702 498.81l-11.037-57.625-72.098-121.326z"/><path fill="#3c77ca" fill-opacity=".271" d="M579.337 248.113l86.433 34.7-.812-129.86-55.432 55.228z"/><path fill="#3d84d6" fill-opacity=".361" d="M553.93 40.416L842.092-62 712.068 125.349 816.49 86.342z"/><path fill="#d81b14" fill-opacity=".784" d="M467.24 583.945l-29.439 29.311-155.926-1.386-51.142-31.419z"/><path fill="#a70702" fill-opacity=".722" d="M114.364 569.983l64.81-.965 12.353 3.853 24.83-189.03z"/><path fill="#fbcdc1" fill-opacity=".494" d="M210.677 702.452l-78.311-24.135 89.433-54.21-54.173 89.602z"/><path fill="#93a59e" fill-opacity=".525" d="M426.144-.801l202.61 148.693-126.27-14.636 67.888-97.223z"/><path fill="#750301" fill-opacity=".722" d="M401.735 722.04l167.579-30.894-.929-51.116 38.375 132.216z"/><path fill="#02141a" fill-opacity=".616" d="M276.912 657.727l2.198 5.447 41.476-44.448-23.117 60.088z"/><path fill="#000007" fill-opacity=".38" d="M398.421 424.623l122.89-155.969-128.594 128.151-66.92-41.939z"/><path fill="#2f0a0f" fill-opacity=".639" d="M636.836 357.799l56.681 102.323 49.85 142.85-99.544-228.862z"/><path fill="#040205" fill-opacity=".365" d="M314.916 500.421l-105.502 16.59 187.583 2.441-132.183-107.71z"/><path fill="#041106" fill-opacity=".529" d="M418.638 657.627l-25.152-25.211-1.531 51.602-4.82 30.303z"/><path fill="#926024" fill-opacity=".596" d="M693.527 641.56l-154.05-4.715 221.485 54.39-20.795-62.993z"/><path fill="#050103" fill-opacity=".435" d="M418.694 260.029l4.921-12.003-35.626-4.695-25.333 16.147z"/><path fill="#000708" fill-opacity=".502" d="M541.13 874.697l-130.303 15.175-135.012-73.697 338.201-45.03z"/><path fill="#352f10" fill-opacity=".451" d="M779.101 692.54l-335.623-81.61 89.665 37.544 133.734 51.037z"/><path fill="#ebb292" fill-opacity=".675" d="M697.924 627.091l-122.687 4.135L439.14 497.918l27.585 79.048z"/><path fill="#393439" fill-opacity=".769" d="M330.76 488.804l72.254-3.395 90.898-66.876L250.848 431.3z"/><path fill="#c7e8fc" fill-opacity=".333" d="M262.82 492.691l26.607-5.995 3.404-34.858-34.853 10.112z"/><path fill="#fdffff" fill-opacity=".447" d="M349.127 969.734L441.46 1086l-246.495-87.105 17.15-41.811z"/></svg>