<svg xmlns="http://www.w3.org/2000/svg" width="228" height="278" viewBox="0 0 836 1024"><path fill="#783c3d" d="M0 0h836v1024H0z"/><g fill-opacity=".502"><path fill="#fff" d="M158 798l556 200-652 88z"/><path fill="#2d0a09" d="M-62 10l88 1076L538-50z"/><path fill="#ff5077" d="M526 222L330 570l568-124z"/><path fill="#fdffff" d="M166 818l480 144-268 124z"/><path fill="#020000" d="M546 242L770-62l128 440z"/><path fill="#d0021f" d="M690 414L530 934 138 786z"/><path fill="#d6f4de" d="M586 142l-80 204-36-388z"/><path fill="#a6cb7a" d="M558 1086l32-384 228 24z"/><path fill="#003208" d="M834 1082l64-408-292 328z"/><path fill="#f89eb9" d="M242 258L6 554l148-92z"/><path fill="#5a0001" d="M486 666L142 370v472z"/><path fill="#320000" d="M690 406l-96 284 304-52z"/><path fill="#002428" d="M-62 938l164-380 4 528z"/><path fill="#000607" d="M110 186L398 34 70-62z"/><path fill="#698473" d="M534-30L398 254 374 62z"/><path fill="#dc465f" d="M602 666L286 414l332-152z"/><path fill="#c2e5e9" d="M594 498l40-108-84-12z"/><path fill="#e3f7ff" d="M210 1046l476-8-464-228z"/><path fill="#540000" d="M6 618l272-336h248z"/><path fill="#eff" d="M810 398l88 96-108-48z"/><path fill="#631712" d="M898 14L574 210l-8-236z"/><path fill="#ab031a" d="M438 390L270 518l352 24z"/><path fill="#a39ea3" d="M614 598l-260-20 188-36z"/><path fill="#04140b" d="M834 522l-96 456 160-20z"/><path fill="#626e44" d="M838 722l-204 364-36-128z"/><path fill="#fe4b62" d="M582 822l-176-84 156 208z"/><path fill="#881b12" d="M-62 710l324-544-252 68z"/><path fill="#e71b39" d="M602 290l40 188 256 40z"/><path fill="#000310" d="M898 94L562 214l248 52z"/><path fill="#d0a1b4" d="M170 346l164-92-116 28z"/><path fill="#daffff" d="M134 406l-56 76 32-4z"/><path fill="#ffccdb" d="M690 310l108 80-100-32z"/><path fill="#2d3a25" d="M482 306l-108 20L482-50z"/><path fill="#f7ead9" d="M574 150l-48 136-32-128z"/><path fill="#76898a" d="M302 574l-12-52 204 16z"/><path fill="#5a0a0e" d="M14 634l232-344 104 556z"/><path fill="#eae7ea" d="M662 314l-68-48-20 28z"/><path fill="#edfbff" d="M346 886l272 200-28-144z"/><path fill="#bfafa3" d="M570 66L406 54l100 76z"/><path fill="#b0dff4" d="M350 402l64 24-120-8z"/></g></svg>