<svg xmlns="http://www.w3.org/2000/svg" width="228" height="278" viewBox="0 0 836 1024"><path fill="#62515f" d="M0 0h836v1024H0z"/><path fill="#e9eef0" fill-opacity=".898" d="M723.773 845.59l-161.446 76.175-314.904 75.513L773.494 1086z"/><path fill="#b9e4c2" fill-opacity=".561" d="M392.675 205.51l185.861 61.071L810.537 383.98l-82.304 239.35z"/><path fill="#3c031f" fill-opacity=".784" d="M890.639 589.422l-743.28 47.77 319.59 302.39 128.976-36.221z"/><path fill="#b9c7d4" fill-opacity=".8" d="M-13.525 379.219l41.606 258.967 106.003-129.269 32.949-140.872z"/><path fill="#0a1e28" fill-opacity=".612" d="M136.323 371.202l36.174-335.146L364.807-62-62 24.336z"/><path fill="#420722" fill-opacity=".761" d="M615.832 790.657L455.818 544.08-57.784 702.991l638.4-325.442z"/><path fill="#b9c6ea" fill-opacity=".329" d="M140.382 793.643L339.737 1086l98.146-83.34L288.02 717.006z"/><path fill="#f5ffd1" fill-opacity=".624" d="M440.443 365.281l-78.835 13.161 29.97 89.64 60.14-12.2z"/><path fill="#5b0028" fill-opacity=".447" d="M177.58 406.6l47.315-148.979 272.858-19.717L26.145 920.676z"/><path fill="#272316" fill-opacity=".463" d="M153.206 229.932l210.507 208.892L284.545-62l411.084 172.761z"/><path fill="#ffd6bc" fill-opacity=".639" d="M290.592 49.165l-107.38 7.954-25.681 62.354 68.548 2.475z"/><path fill="#c8cfca" fill-opacity=".612" d="M471.12 573.32l-214.033 80.524-11.144-38.605 199.325-72.86z"/><path fill="#665643" fill-opacity=".996" d="M638.432 418.792l-237.915-15.144 387.835-8.29L898 473.411z"/><path fill="#96d6ff" fill-opacity=".494" d="M471.805 234.277l213.261 85.468-46.331 43.729-103.722 88.273z"/><path fill="#eff2f4" fill-opacity=".914" d="M352.74 1086l339.346-151.756-235.108 15.13-120.642-4.617z"/><path fill="#345374" fill-opacity=".898" d="M58.476 830.562L24.88 901.19 60.605 1086l246.785-82.698z"/><path fill="#c73c8d" fill-opacity=".553" d="M134.282 365.05l104.173-53.812 42.391 113.917-68.126 84.242z"/><path fill="#e4b4c9" fill-opacity=".298" d="M383.475 107.345l-85.7 250.328 96.564-93.84 159.059 46.555z"/><path fill="#363641" fill-opacity=".651" d="M893.089 383.357L558.66-62 148.896-38.592l546.05 372.518z"/><path fill="#b07f54" fill-opacity=".686" d="M78.767 650.535L-32.824 777.213l55.29-255.527 74.228 15.828z"/><path fill="#2f0013" fill-opacity=".584" d="M388.977 935.18L309.13 721.085l192.323-186.288 32.05 402.162z"/><path fill="#f4ab71" fill-opacity=".518" d="M269.724 214.875l-100.139-3.082 3.785-47.478 149.275-23.883z"/><path fill="#c38d73" fill-opacity=".925" d="M898 391.766l-223.935-62.292-7.143 64.36L898 433.123z"/><path fill="#27000f" fill-opacity=".596" d="M468.502 552.922L446.16 362.147l11.867-69.732 118.333 192.68z"/><path fill="#83ff65" fill-opacity=".259" d="M581.895 468.098l127.963-43.463 154.958 215.558-197.318-21.967z"/><path fill="#73a4f3" fill-opacity=".388" d="M783.59 80.947l-86.377 68.402-49.231-94.423 75.25-46.503z"/><path fill="#f0fbff" fill-opacity=".443" d="M153.759 423.181l-2.958-57.994-51.331 50.807L-62 747.664z"/><path fill="#1f1f14" fill-opacity=".333" d="M147.959 405.353l61.613-8.99-221.069 366.738 330.664-16.552z"/><path fill="#ff5ce9" fill-opacity=".137" d="M491.788 623.543L898 817.438l-315.048-7.245 30.617-356.94z"/><path fill="#373d4a" fill-opacity=".894" d="M43.425 115.108l-79.292 238.314 205.454-3.987 71.113-63.942z"/><path fill="#67c5ff" fill-opacity=".341" d="M-62 977.32l105.454-48.975 59.433 1.468L90.053 1086z"/><path fill="#38313e" fill-opacity=".627" d="M898 847.953L560.567 472.86l164.336 406.88 74.548-373.48z"/><path fill="#00012a" fill-opacity=".408" d="M19.075 509.339l240.674 107.128-196.477-77.755-91.014 76.463z"/><path fill="#c98c82" fill-opacity=".647" d="M341.932 880.46L288.14 966.8l5.003 119.2L396.67 895.32z"/><path fill="#a0096b" fill-opacity=".431" d="M389.775 256.258l-144.262 200.16L478.747 321.23l11.531-85.13z"/><path fill="#bfc0ba" fill-opacity=".847" d="M356.318 380.983l74.671-30.104L441.25 375.3l11.921 59.056z"/><path fill="#39031f" fill-opacity=".541" d="M363.836 446.237l230.696 107.437-396.578-34.009 123.649-120.857z"/><path fill="#d8e9ff" fill-opacity=".573" d="M548.704 253.615l114.197 57.32-188.357-13.171 16.815-40.74z"/><path fill="#3baecf" fill-opacity=".416" d="M104.172 548.808l64.872 19.998-19.542-110.329-51.612 34.754z"/><path fill="#3c2c3c" fill-opacity=".827" d="M590.48 37.123L668.87-62l162.724 175.536L898-45.188z"/><path fill="#171502" fill-opacity=".702" d="M249.636 283.647l102.053-89.76-68.126 157.579-70.49-67.552z"/><path fill="#7c003f" fill-opacity=".302" d="M459.888 953.582L578.44 441.897 700.788 854.09l-71.824 39.366z"/><path fill="#54678e" fill-opacity=".549" d="M217.28 967.86l159.815-92.099-80.8-133.182-104.441-10.474z"/><path fill="#4d5964" fill-opacity=".592" d="M507.73 1086l119.836-77.982 31.115-1.974-29.127 75.849z"/><path fill="#462603" fill-opacity=".6" d="M183.565 127.521l99.348-23.126 16.674 39.742-138.368 9.106z"/><path fill="#cf8e58" fill-opacity=".373" d="M275.758 21.879L171.349 256.255l58.794-171.794L374.08 207.885z"/><path fill="#a9e3d0" fill-opacity=".471" d="M197.044 467.225l61.915 33.605-21.165-40.945-44.405 52.224z"/><path fill="#011419" fill-opacity=".427" d="M165.028 63.875l.487 99.833L14.602 53.72 475.9-8.33z"/><path fill="#201" fill-opacity=".533" d="M567.212 748.694l-219.135 124.93-26.708-241.712 118.012-42.72z"/><path fill="#046c7d" fill-opacity=".251" d="M675.332 390.529l75.526 42.297-207.574-120.561-9.946 146.16z"/><path fill="#aee1b1" fill-opacity=".439" d="M802.402 471.021l-114.87-49.317-101.895 8.85 123.392 129.117z"/><path fill="#172c4b" fill-opacity=".549" d="M898 947.363L754.692 595.058 898 782.256 742.381 909.534z"/><path fill="#2b364c" fill-opacity=".506" d="M149.696 1086l149.672-109.57-29.37 85.37L35.959 692.595z"/><path fill="#26011c" fill-opacity=".494" d="M157.165 388.317l-7.133 222.43-58-60.439 153.406 58.221z"/><path fill="#321f02" fill-opacity=".525" d="M831.864 465.966l6.306 22.67-22.91-68.709-157.37-4.518z"/><path fill="#473024" fill-opacity=".918" d="M251.645 189.955l-40.031 2.437-1.3 30.183.688 21.49z"/><path fill="#6689aa" fill-opacity=".588" d="M-43.965 398.85l99.424-53.91 112.174 17.702-182.544 60.63z"/><path fill="#c5c5c7" fill-opacity=".788" d="M458.713 587.352l5.314-46.553-67.973 67.14 4.915-27.096z"/><path fill="#767a91" fill-opacity=".271" d="M681.479 826.352l-54.883-102.58L898 762.794l-170.396 123.02z"/><path fill="#f6df29" fill-opacity=".714" d="M409.721 379.952l-14.488 55.178 31.692 8.081 3.028-6.685z"/><path fill="#eb59a4" fill-opacity=".42" d="M256.252 329.161l-41.589 74.137-41.868-43.09 53.314-57.423z"/><path fill="#71848e" fill-opacity=".435" d="M502.293 263.798l-22.461-99.604-64.227-37.75-86.549 89.18z"/><path fill="#dcaf99" fill-opacity=".635" d="M226.806 135.327l-32.453 106.04-20.723-70.16 43.506-17.813z"/><path fill="#e0e8eb" fill-opacity=".835" d="M741.842 945.898l24.535 35.726-61.177 41.807-158.062-49.619z"/><path fill="#3d1328" d="M293.365 612.803l-42.328-19.31 273.127-201.488L290.66 598.491z"/><path fill="#b70867" fill-opacity=".294" d="M355.441 875.82l10.61 58.018 32.553 17.485 162.557-21.286z"/><path fill="#c4e8ff" fill-opacity=".353" d="M75.957 354.641l-120.74 230.166L19.76 474.07l143.434 14.938z"/><path fill="#74db18" fill-opacity=".208" d="M820.968 505.904l-199.192 4.105 52.046 104.616 65.308-6.04z"/><path fill="#000e06" fill-opacity=".416" d="M509.875 439.54L386.378 543.242l18.907 21.802L627.78 394.747z"/><path fill="#4898f2" fill-opacity=".208" d="M734.584 156.82l116.01-51.924 2.207 155.806L637.097-62z"/><path fill="#88abfc" fill-opacity=".286" d="M587.304 419.147l14.617 112.652 41.895-18.527 40.505-93.463z"/><path fill="#4b424d" fill-opacity=".8" d="M898 284.581l-411.264-33.798 82.172-126.574L464.13-62z"/><path fill="#764e28" fill-opacity=".522" d="M317.48 132.356l78.13-13.027-28.431 46.383-174.313 154.65z"/><path fill="#301d1a" fill-opacity=".416" d="M638.358 415.257L898 468.09l-233.268-51.736 27.378-104.448z"/><path fill="#7d592a" fill-opacity=".584" d="M98.493 543.257l18.381 32.519-13.35 67.9-148.773 159.3z"/><path fill="#300219" fill-opacity=".988" d="M383.75 886.963l125.875-112.165-27.268 113.378 179.835-82.629z"/><path fill="#58566c" fill-opacity=".58" d="M203.609 999.648l76.53-195.841L82.89 917.81l248.946 77.166z"/><path fill="#d41d86" fill-opacity=".2" d="M723.979 762.495l-142.61 59.572-144.906 83.647 82.475-97.163z"/><path fill="#450a34" fill-opacity=".494" d="M149.639 310.598l-3.468-15.963 89.842 198.783 13.632 94.44z"/><path fill="#212122" fill-opacity=".749" d="M266.568 17.496l120.589 35.929-56.94 91.921-9.963-61.293z"/><path fill="#6a8082" fill-opacity=".427" d="M605.433 999.691l-199.004 43.971 428.448-20.831L454.945 1086z"/><path fill="#ffb288" fill-opacity=".337" d="M-9.318 718.238L-62 671.197 78.506 512.529l-4.084 63.7z"/><path fill="#5c0c3a" fill-opacity=".612" d="M431.741 345.099l43.014-62.252 42.668 125.046-59.135 27.948z"/><path fill="#56032f" fill-opacity=".506" d="M418.63 573.71l184.607 216.988L589.92 421.33 408.515 662z"/><path fill="#4b5167" fill-opacity=".792" d="M808.774 645.429L898 838.993V513.944l-106.545-67.118z"/><path fill="#fffef8" fill-opacity=".427" d="M196.963 116.08l-33.966 3.428 17.667-49.778 34.096-11.051z"/><path fill="#b2afb2" fill-opacity=".949" d="M321.647 639.451l27.143-58.892-77.203 38.607 39.68 14.961z"/><path fill="#cba708" fill-opacity=".216" d="M359.243 218.759l-82.749 122.064 51.273-1.215 29.173-51.009z"/><path fill="#eff3f6" fill-opacity=".718" d="M418.849 955.84l-69.382-19.31-6.556 143.263 346.357-174.077z"/><path fill="#381225" fill-opacity=".733" d="M336.284 602.534l-48.691-29.896-38.085-28.94 72.61-19.288z"/><path fill="#372709" fill-opacity=".243" d="M796.154 737.979L589.777 476.885l12.731 83.997 37.01 156.188z"/><path fill="#250313" fill-opacity=".698" d="M249.122 657.948l183.906 200.64-96.505-196.692 166.47-85.799z"/><path fill="#e7f2fe" fill-opacity=".545" d="M160.225 376.006L51.073 541.22l22.32-94.588L111 402.189z"/><path fill="#c2cccc" fill-opacity=".91" d="M392.377 462.943l-25.268-77.82 31.753 7.361-4.535 65.185z"/><path fill="#ad796e" fill-opacity=".561" d="M189.227 248.326l18.61 5.017 25.527.936 30.969-19.218z"/><path fill="#d4d9fe" fill-opacity=".306" d="M789.988 360.517L898 405.695l-38.353-8.258-244.103-85.917z"/><path fill="#c8a793" fill-opacity=".604" d="M315.835 893.819l-14.698 41.753L321.081 1086l42.262-159.008z"/><path fill="#3b1326" d="M320.007 522.456l65.882-66.821-14.754 126.028 6.846 9.8z"/><path fill="#62103a" fill-opacity=".529" d="M238.407 376.547l140.075-73.966-15.705 55.79 21.388 115.633z"/><path fill="#082e4a" fill-opacity=".322" d="M849.239 381.854l-144.59-48.477-36.753-14.555 214.843-46.92z"/><path fill="#8bb8d7" fill-opacity=".475" d="M655.67 389.716l-135.797-1.611-43.215-90.82 197.524 35.75z"/><path fill="#00629a" fill-opacity=".325" d="M133.929 888.088l-3.8 165.555-45.384 2.449-18.36-131.348z"/><path fill="#78a089" fill-opacity=".561" d="M757.303 442.53l61.376 21.398-27.893 43.053-40.392 60.663z"/><path fill="#7f3d5f" fill-opacity=".898" d="M231.012 563.26l148.875-123.455 78.774-161.599-95.51 196.469z"/><path fill="#a6217c" fill-opacity=".42" d="M708.115 845.99l-93.723-177.702-19.2-33.698 87.86 227.123z"/><path fill="#0b224a" fill-opacity=".278" d="M854.717 724.056l-60.84-161.359-27.867 9.735-15.126 196.147z"/><path fill="#851655" fill-opacity=".561" d="M216.628 431.227L153.78 465.66l-2.407-75.78 206.357 15.93z"/><path fill="#7992b2" fill-opacity=".271" d="M292.566 770.25l-63.158 197.648 115.706-51.055 7.88-110.144z"/><path fill="#423945" fill-opacity=".6" d="M44.325 858.674L-62 963.378l196.125-113.49-12.5-243.955z"/><path fill="#554a46" fill-opacity=".714" d="M658.319 39.577l-213.56-77.232-62.517 47.22 277.608 101.3z"/><path fill="#b36a35" fill-opacity=".435" d="M652.688 393.621l69.705 24.967 118.778 8.541-54.742-38.675z"/><path fill="#000638" fill-opacity=".157" d="M659.85 248.591l-202.21-.427 11.383-63.262 4.984-145.478z"/><path fill="#e9fff8" fill-opacity=".235" d="M378.697 556.187l99.91 13.414-30.814-30.04-36.493 60.334z"/><path fill="#917aa7" fill-opacity=".247" d="M146.783 701.864l95.628 100.546-86.75 76.795-25.233-162.66z"/><path fill="#d9a088" fill-opacity=".475" d="M298.879 141.843l-50.852 57.226-25.813-67.363-58.365 82.806z"/><path fill="#3a1124" fill-opacity=".925" d="M419.346 567.509l-30.902-18.315-231.897 110.183 226.208-207.252z"/><path fill="#272537" fill-opacity=".663" d="M39.767 533.644L-62 575.525v80.518L38.427 557.79z"/><path fill="#380a22" fill-opacity=".855" d="M384.864 612.308l.248-17.078-107.328 135.358 243.024-112.385z"/><path fill="#dcbdaf" d="M37.191 558.824L51.66 538.87l23.41 9.176L-62 684.182z"/><path fill="#a2a098" fill-opacity=".278" d="M761.837 899.068l-106.36 31.501 163.664 37.524-80.23 104.89z"/></svg>