<svg xmlns="http://www.w3.org/2000/svg" width="228" height="278" viewBox="0 0 836 1024"><path fill="#67594b" d="M0 0h836v1024H0z"/><path fill="#050b17" fill-opacity=".737" d="M898 654.69V-62H581.469l4.073 283.597z"/><path fill="#fcd578" fill-opacity=".302" d="M765.878 325.03l-61.031 758.415L675.01 1086-62 347.367z"/><path fill="#021337" fill-opacity=".718" d="M-62 317.632l441.063-34.929L360.868-62H-33.448z"/><path fill="#1d130d" fill-opacity=".918" d="M-48.385 625.73l8.094 90.637L240.885 1086l12.368-250.667z"/><path fill="#2b4277" d="M486.261 573.138l13.853 478.756-100.3 34.106-.153-516.81z"/><path fill="#a4a4ac" fill-opacity=".816" d="M-29.316 609.83l100.92-9.332L220.385 327.89-62 329.497z"/><path fill="#c68836" fill-opacity=".722" d="M568.121 984.852l-311.088 1.532 50.98-791.041 94.204 753.48z"/><path fill="#db9d33" fill-opacity=".941" d="M581.001 946.446l-76.99 17.323-24.2-569.87 54.26-23.814z"/><path fill="#254b93" fill-opacity=".788" d="M475.353 473.939L355.728 148.377l-94.362-65.81 121.16 418.396z"/><path fill="#c07912" fill-opacity=".804" d="M320.862 296.008l-218.083 189 288.62 256.847-10.464-205.323z"/><path fill="#f72a0d" fill-opacity=".565" d="M166.485 994.731l-44.6-128.363-158.31-10.92L23.283 1086z"/><path fill="#c9ddf1" fill-opacity=".753" d="M219.675 951.724l73.233 38.106 430.023-26.257-335.885.875z"/><path fill="#1a4da6" fill-opacity=".686" d="M590.522 369.038l32.493 143.9-59.47-15.501-55.88-199.245z"/><path fill="#4689f5" fill-opacity=".263" d="M898 730.755L637.553 288.603l97.222 512.01 71.776 177.393z"/><path fill="#f8b992" fill-opacity=".267" d="M620.998 72.827L409.732 348.874 363.369 66.1l112.14-68.05z"/><path fill="#0a0200" fill-opacity=".498" d="M204.753 531.751l95.573 245.779-137.84-91.792 165.218-213.262z"/><path fill="#eea05c" fill-opacity=".404" d="M101.906 600.539L307.73 825.307l-356.29-223.57 391.67-306.143z"/><path fill="#1a4d94" fill-opacity=".808" d="M236.835 1028.223l387.25 32.81-24.9-83.508-326.513 9.767z"/><path fill="#a9b867" fill-opacity=".925" d="M610.03 628.87l-1.97 376.402L664.99 1086l48.632-197.794z"/><path fill="#082f80" fill-opacity=".702" d="M573.04 750.176l34.89-165.719-48.713-10.665 6.464 128.467z"/><path fill="#18191e" fill-opacity=".973" d="M860.628 302.7l-6.172-29.66L648.805-62l-101.69 376.174z"/><path fill="#cab285" fill-opacity=".945" d="M605.77 567.133l13.885-19.905-57.977-53.187-199.004 24.83z"/><path fill="#964904" fill-opacity=".71" d="M604.907 596.388l49.992-159.104 25.72 71.024-36.256 183.715z"/><path fill="#384d7b" fill-opacity=".647" d="M250.148 345.647L67.903 540.652l273.793-371.516 84.504 60.366z"/><path fill="#633a23" fill-opacity=".69" d="M475.78 791.455L256.075 837.68l47.687 43.927 116.483-18.637z"/><path fill="#af826e" fill-opacity=".859" d="M189.697 779.636l262.637-51.642-93.622 93.519 27.278 25.568z"/><path fill="#dae7ff" fill-opacity=".486" d="M637.372 973.781l-63.876 8.238-273.995-4.933 271.392-29.093z"/><path fill="#e2a739" fill-opacity=".722" d="M326.963 308.983l-70.821 7.7 40.446 91.229 97.087 142.256z"/><path fill="#0c151a" fill-opacity=".824" d="M238.383 42.115L898-44.165 653.706 80.196 356.324-62z"/><path fill="#d3e2fb" fill-opacity=".596" d="M107.398 486.3l-62.67-25.891 141.81 122.549-49.542-68.033z"/><path fill="#131008" fill-opacity=".506" d="M190.834 315.656L75.7-9.827-48.425-62-62 263.427z"/><path fill="#00226d" fill-opacity=".353" d="M898 625.296L830.518 1086l-23.334-456.216-115.377-248.845z"/><path fill="#14100b" fill-opacity=".612" d="M155.933 806.86L126.319 1086l88.112-19.631 58.423-244.79z"/><path fill="#fdb73d" fill-opacity=".529" d="M595.036 351.456l70.285 56.522-36.387 109.735-47.474-185.111z"/><path fill="#eefef2" fill-opacity=".298" d="M589.21 53.88L497.324 6.764 384.261 46.768l15.003 15.251z"/><path fill="#eaac3a" fill-opacity=".753" d="M478.436 495.325l113.199 26.466-65.3-83.629-88.025-83.671z"/><path fill="#111e39" fill-opacity=".871" d="M500.045 980.364l-110.927 11.407 151.95 12.104 35.94-26.365z"/><path fill="#122f70" fill-opacity=".725" d="M394.01 715.931l90.923 32.83 5.73-141.367-105.973-48.812z"/><path fill="#efa317" fill-opacity=".443" d="M237.206 964.721l21.23-81.32 125.428-20.45 12.694 93.508z"/><path fill="#828080" d="M222.758 552.163l6.861-4.116-.324 59.77-86.082-18.568z"/><path fill="#28304f" fill-opacity=".569" d="M481.966 342.488L243.786 1.015 29.562 172.219l592.822 145.213z"/><path fill="#afc3e4" fill-opacity=".494" d="M398.722 410.78l44.445 28.907-16.351 22.652-43.944-4.848z"/><path fill="#c08689" fill-opacity=".561" d="M605.761 847.297l40.965-4.556 89.451-211.449-123.31 48.262z"/><path fill="#b19c94" fill-opacity=".988" d="M375.233 283.444l53.395-20.97-33.163 10.576 85.201 90.988z"/><path fill="#b76200" fill-opacity=".404" d="M403.335 799.768l40.834 18.138-270.472-433.644 87.455 300.131z"/><path fill="#8c99a6" fill-opacity=".573" d="M649.19 403.305l-98.035-86.694 163.111 36.782-40.714 121.703z"/><path fill="#000703" fill-opacity=".565" d="M232.657 624.848l-34.876 82.702 91.38 61.47 4.39-30.035z"/><path fill="#3d6fa7" fill-opacity=".988" d="M255.607 968.613l-2.24 91.09 124.704-44.653L562.107 1086z"/><path fill="#0d0d0c" fill-opacity=".557" d="M-28.289 886.026l-32.25-295.345 309.847 286.607-189.225-39.98z"/><path fill="#003ea8" fill-opacity=".475" d="M304.708 274.647l129.77 60.544 5.507 63.854-64.04 33.905z"/><path fill="#4daefd" fill-opacity=".169" d="M283.264 331.238L94.242 484.978 7.795 291.548l310.49 39.14z"/><path fill="#a17c6b" fill-opacity=".941" d="M581.007 174.907l-19.293 89.93-27.349-54.517-108.885-26.849z"/><path fill="#6d7275" fill-opacity=".655" d="M871.322 961.091L663.71 796.257l54.756-99.043-18.52-369.886z"/><path fill="#e2e0f1" fill-opacity=".314" d="M722.761 604.211l-133.566 31.45.2 33.716L693.05 567.714z"/><path fill="#032f84" fill-opacity=".514" d="M391.97 969.24l82.112-12.026 23.187-94.059-94.115-30.92z"/><path fill="#003c9a" fill-opacity=".557" d="M99.473 460.437l67.974-32.77-55.711 60.036-26.875-8.065z"/><path fill="#71eb31" fill-opacity=".247" d="M685.064 1086l65.053-210.55-81.995-99.05-57.503 207.964z"/><path fill="#48332e" fill-opacity=".659" d="M733.483 153.08l-234.841-7.991-54.106 15.785 59.086 12.925z"/><path fill="#fee4e6" fill-opacity=".345" d="M204.944 398.603l-24.708-38.87-28.173 26.131-35.446 66.236z"/><path fill="#d6ad54" fill-opacity=".537" d="M484.449 559.229l-96.518 15.703-25.266-84.314 154.019-3.011z"/><path fill="#6c3e27" fill-opacity=".561" d="M661.744 692.423L570.28 564.145l75.677 55.406 58.111.67z"/><path fill="#61462d" fill-opacity=".808" d="M80.95 730.979L-62 566.758l311.374 249.244-38.72-4.564z"/><path fill="#420b2c" fill-opacity=".282" d="M562.287 680.045l58.24 127.68 19.542 45.31-60.155 5.855z"/><path fill="#bd907b" fill-opacity=".58" d="M230.858 800.423l-55.582-76.649L359.09 790.92l95.853 38.513z"/><path fill="#0e254e" fill-opacity=".533" d="M253.384 168.267L-3.828-62h538.94L382.902 54.786z"/><path fill="#1653af" fill-opacity=".655" d="M580.703 357.67l-43.832-53.523.899 117.605 61.87-6.844z"/><path fill="#7e3622" fill-opacity=".349" d="M177.17 992.84l-196.324-159.2 63.18-50.065 124.32 127.612z"/><path fill="#fcfbc4" fill-opacity=".38" d="M269.68 834.24l-1.525 109.555 19.942 33.906-43.378-23.446z"/><path fill="#78563b" fill-opacity=".573" d="M380.539 195.623l140.485-87.03 24.16-36.542-151.351 5.017z"/><path fill="#fa4c2a" fill-opacity=".435" d="M107.768 905.024l-3.616 115.494L-62 915.475 64.043 884.64z"/><path fill="#ac7b5b" fill-opacity=".714" d="M74.87 509.832l-110.977 190.32L-62 508.978l307.43 306.79z"/><path fill="#834010" fill-opacity=".369" d="M552.8 211.728l-16.171 88.75-55.582 52.59-56.769-88.444z"/><path fill="#3b393a" fill-opacity=".459" d="M755.926 562.25l-14.673-180.174-148.947-75.118 216.42-15.128z"/><path fill="#212744" fill-opacity=".557" d="M564.237 175.247L875.284 48.28 898 126.75v64.085z"/><path fill="#003530" fill-opacity=".188" d="M676.873 946.848l182.847-21.367L863.282 1086l-141.583-3.161z"/><path fill="#000301" fill-opacity=".412" d="M768.73 527.077l25.866-112.12L898 408.995l-89.339 153.314z"/><path fill="#d8921d" fill-opacity=".675" d="M613.703 859.103l-5.385 105.368-107.91-438.691-2.872 390.636z"/><path fill="#262633" fill-opacity=".561" d="M571.004 640.078l40.517 44.967-19.174 83.785 7.667-57.332z"/><path fill="#f1ddaa" fill-opacity=".616" d="M599.72 620.224l38.227 61.408-40.75-8.055-1.544-36.41z"/><path fill="#2668bc" fill-opacity=".459" d="M615.874 988.175L607.787 1086l-21.532-200.17-12.339 66.883z"/><path fill="#111415" fill-opacity=".906" d="M611.888 112.364L898 9.774 277.242-58.823l301.856 93.148z"/><path fill="#732c02" fill-opacity=".333" d="M95.353 611.282l130.363-59.81 76.385 31.337-4.269-126.427z"/><path fill="#4d1e00" fill-opacity=".506" d="M337.04 862.812l94.35 15.42-108.833-51.9-47.61 64.935z"/><path fill="#ce7801" fill-opacity=".42" d="M620.1 518.619l16.794-126.56 57.762 155.23-20.886 46.828z"/><path fill="#0c225c" fill-opacity=".459" d="M435.967 770.644l-75.798-9.764 129.54-16.389 7.737 149.935z"/><path fill="#faf1ef" fill-opacity=".278" d="M28.8 550.85l70.09-79.48L-62 543.22v112.83z"/><path fill="#b98d7a" fill-opacity=".835" d="M406.735 775.582l-175.646 35.007 97.037-47.49 132.588 50.34z"/><path fill="#b79482" fill-opacity=".992" d="M700.74 724.392L587.546 820.68l87.985-23.608-110.982-8.293z"/><path fill="#5e6357" fill-opacity=".769" d="M838.475 949.282l-98.633 31.236-9.383-294.822-55.437 103.94z"/><path fill="#c3b49f" fill-opacity=".765" d="M425.543 509.286l134.157-.498 21.094 32.62-130.351 5.156z"/><path fill="#dee5fe" fill-opacity=".412" d="M242.378 951.075l125.358 38.136 286.695-24.488-420.949-1.833z"/><path fill="#dad6ba" fill-opacity=".388" d="M399.647 73.337l-33.321 29.5 7.297-47.23 68.539-32.164z"/><path fill="#35302f" fill-opacity=".647" d="M163.58 292.046L33.146 319.215l263.292-18.784-109.612-159.963z"/><path fill="#283e71" fill-opacity=".537" d="M281.207 292.149l-39.414-145.081 207.769 201.716 56.57 37.783z"/><path fill="#c2a79a" fill-opacity=".439" d="M605.693 76.025l-40.88-30.871L581.02 154.56l-59.63-17.179z"/><path fill="#142210" fill-opacity=".463" d="M146.181 627.546l69.498-9.091 63.21 152.07-93.772-72.872z"/><path fill="#121413" fill-opacity=".918" d="M162.881 1058.286L263.44 1086l-12.42-104.624-56.353-97.28z"/><path fill="#0e50ff" fill-opacity=".133" d="M834.528 534.12l-62.851 118.978 43.218 273.545 68.908-188.47z"/><path fill="#b37110" fill-opacity=".545" d="M238.727 622.789L397.439 740.28 381.763 501.3l-72.822-41.644z"/><path fill="#1161cf" fill-opacity=".502" d="M263.231 344.275l.72-16.516-83.404 44.6 24.876 17.625z"/><path fill="#652106" fill-opacity=".239" d="M167.04 573.825l-46.175 27.292-19.65-17.982-22.504-92.432z"/><path fill="#d5e5ff" fill-opacity=".439" d="M76.384 463.633l57.097 53.443 53.543 75.113L82.332 491.053z"/><path fill="#d09126" fill-opacity=".647" d="M402.147 555.14l10.922-.795 203.488 33.623-75.56-43.281z"/><path fill="#eaa111" fill-opacity=".294" d="M357.08 397.746l-52.237-93.953-202.305 193.249 212.136-35.02z"/><path fill="#ab98a5" fill-opacity=".565" d="M528.997 312.141l-34.568 56.087-44.873-29.35 77.052 23.422z"/><path fill="#e9910e" fill-opacity=".376" d="M383.61 744.42l-76.232 17.315L238.16 630.46l79.304 45.907z"/><path fill="#b0a37d" fill-opacity=".635" d="M325.65 948.404l-70.382 133.954L354.62 1086l-82.967-66.178z"/><path fill="#abd05c" fill-opacity=".902" d="M637.375 1086l41.195-270.98-68.435 55.391 3.473 153.564z"/><path fill="#e1a53a" fill-opacity=".769" d="M428.478 346.525l47.957 109.934 95.027 54.68-34.415-85.498z"/><path fill="#000309" fill-opacity=".384" d="M346.39 59.679L-40.097-62l9.955 278.866L180.46-62z"/><path fill="#22469c" fill-opacity=".192" d="M117.453 149.967L151.735-62l250.284 536.452L332.482 74.12z"/><path fill="#09307d" fill-opacity=".435" d="M588.103 609.385L577.21 801.436l-11.937-88.32-9.002-98.332z"/><path fill="#2155a9" fill-opacity=".745" d="M468.564 474.886l-39.136-116.142 3.605 124.657 33.733 2.358z"/><path fill="#f9d6ab" fill-opacity=".078" d="M624.396 265.09l179.948 487.45 7.762 152.025L701.6 663.225z"/><path fill="#f7d1bb" fill-opacity=".275" d="M468.31 346.438l-83.382-47.365 53.57-100.197-25.711 100.305z"/><path fill="#214f9d" fill-opacity=".769" d="M378.218 498.065l23.827-50.047-64.957-182.247 41.838 238.397z"/><path fill="#1e56aa" fill-opacity=".82" d="M248.743 1086l52.095-83.655 31.586-15.534 99.509 1.693z"/><path fill="#c19686" fill-opacity=".392" d="M295.58 751.525l188.8-4.604-81.301-16.177-150.876 101.542z"/><path fill="#2a4376" fill-opacity=".431" d="M517.402 349.461l-47.057 44.203 125.077-62.682-50.261-17.104z"/><path fill="#674442" fill-opacity=".482" d="M598.426 504.689l-31.951-37.869-.518-36.146 42.01 36.386z"/></svg>