<svg xmlns="http://www.w3.org/2000/svg" width="228" height="278" viewBox="0 0 836 1024"><path fill="#5b6561" d="M0 0h836v1024H0z"/><path fill="#b4b7ba" fill-opacity=".749" d="M437.182 863.85l100.239-735.134 31.835 581.194L898 1086z"/><path fill="#1d2217" fill-opacity=".678" d="M552.443-62H166.776L-17.543 301.517l465.918 85.144z"/><path fill="#000002" fill-opacity=".816" d="M599.038 1072.207l-112.894-183.55-320.678 56.928 66.318 86.34z"/><path fill="#c8d7f9" fill-opacity=".647" d="M524.269 40.074l90.165 218.538 100.776-51.975-89.843-268.212z"/><path fill="#c5dde2" fill-opacity=".788" d="M57.204 395.307L347.65 507.804l206.248-62.031-161.68 135.658z"/><path fill="#a38173" d="M201.686 1031.919L155.42 803.012l-14.484-351.83L-62 1031.39z"/><path fill="#001c0c" fill-opacity=".851" d="M284.61 515.643L169.206 758.116l365.172-36.148-274.753-54.182z"/><path fill="#b98485" fill-opacity=".988" d="M554.117 1043.163L898 1086l-16.469-328.99-315.638 204.97z"/><path fill="#00040e" fill-opacity=".51" d="M539.515 420.21l325.034-43.592-127.472-437.86-93.902 602.244z"/><path fill="#bfced3" fill-opacity=".941" d="M301.41 503.22l-106.542-25.905 248.558-67.47-134.318-43.761z"/><path fill="#fee3d1" fill-opacity=".443" d="M851.437 631.397l-345.935-337.19L733.2 443.213l154.937-5.227z"/><path fill="#08402a" fill-opacity=".851" d="M156.438 788.745l297.5 24.653-19.504 31.282-248.831 107.645z"/><path fill="#e3f5ff" fill-opacity=".643" d="M359.218 917.57l201.67-53.767-114.281 1.571-200.76 57.212z"/><path fill="#1d7667" d="M273.905 282.517l20.92 89.939L-62 519.21l40.806-142.032z"/><path fill="#d5e2f9" fill-opacity=".275" d="M397.73 686.566l24.129-193.606 109.253-55.774L824.07 644.394z"/><path fill="#e1f7fe" fill-opacity=".624" d="M258.407 586.482l-33.113 51.465-146.799-80.276 102.864 17.013z"/><path fill="#c0dddc" fill-opacity=".753" d="M160.185 394.92l101.949 32.749 38.882 68.635-171.376-42.696z"/><path fill="#023821" fill-opacity=".898" d="M501.106 709.38l4.396-50.736-165.377 94.746 99.38 3.236z"/><path fill="#072917" fill-opacity=".859" d="M275.445 621.015l-89.964-104.97 202.991 84.878-17.374 27.915z"/><path fill="#351c07" fill-opacity=".851" d="M601.797 386.353l198.372 221.178-218.785-126.145-27.367-59.743z"/><path fill="#3c4d58" fill-opacity=".639" d="M571.253 483.287l38.974-7.92-60.923 300.031 242.375 11.305z"/><path fill="#005e40" fill-opacity=".808" d="M271.565 528.434l251.163-87.56-21.39-75.38 2.792 14.877z"/><path fill="#bfd6d8" fill-opacity=".525" d="M221.767 793.622l220.64-43.133 63.86-37.799-33.102 85.787z"/><path fill="#a9c6e6" fill-opacity=".439" d="M827.925 690.097l-67.763-100.619-117.833-70.583 96.48 198.658z"/><path fill="#0b0703" fill-opacity=".725" d="M362.209 176.981l-64.981-48.117 57.53-143.643L551.11 103.099z"/><path fill="#486d74" fill-opacity=".753" d="M386.802-62L251.181 51.791l32.33 343.054L303.277 87.6z"/><path fill="#52331b" fill-opacity=".871" d="M310.055 223.703l185.548-113.29L506.71 321.6l-43.627 92.914z"/><path fill="#0c0f11" fill-opacity=".804" d="M501.555 881.845l-302.497 142.01L568.5 1086l-23.732-188.024z"/><path fill="#b1d2c9" fill-opacity=".592" d="M536.448 336.583l-76.512 39.415 138.75 24.292L490.16 135.47z"/><path fill="#00220d" fill-opacity=".741" d="M229.029 821.206l-68.824-21.027-10.419-56.82 130.879-186.152z"/><path fill="#6af0ff" fill-opacity=".239" d="M898 923.067v-130.88l-427.038-13.883-37.32 80.472z"/><path fill="#004c49" fill-opacity=".431" d="M187.61 143.799L-62 287.056 1.726 505.613l91.091 85.37z"/><path fill="#a1d9f9" fill-opacity=".459" d="M-62 901.52l100.75 34.874 43.236-14.102-40.351-130.968z"/><path fill="#003012" fill-opacity=".475" d="M282.82 384.207l193.746-38.292-166.61-95.912-145.014 252.16z"/><path fill="#f3f2fc" fill-opacity=".478" d="M174.745 827.364l26.642 34.485 98.904-10.845-74.307-3.238z"/><path fill="#2d0000" fill-opacity=".424" d="M184.83 890.792l126.978 35.674-221.745 23.06 8.3 136.474z"/><path fill="#041410" fill-opacity=".643" d="M63.833 591.456l61.774-2.772L418.383 748.84 160.076 631.286z"/><path fill="#60361d" fill-opacity=".753" d="M898 775.1L572.62 343.334l222.528 243.742 80.634 56.762z"/><path fill="#004d34" fill-opacity=".859" d="M183.037 892.335l315.826-112.486-65.174 65.012-42.575 39.976z"/><path fill="#0b141e" fill-opacity=".467" d="M829.097-45.805l-147.34 470.598 143.743-36.17L651.895-20.922z"/><path fill="#d36264" fill-opacity=".686" d="M538.564 942.409l98.175 129.888 155.4-132.53-199.02-24.185z"/><path fill="#c2ccd2" fill-opacity=".667" d="M492.017 545.187l-150.85 27.826-17.36-.084-78.99-80.213z"/><path fill="#005437" fill-opacity=".616" d="M301.175 458.87l4.09 65.682 69.55-45.054-232.828-185.983z"/><path fill="#d0dde4" fill-opacity=".733" d="M274.15 914.532l52.437 4.472 318.554-74.088-410.487 63.31z"/><path fill="#bdc9ce" fill-opacity=".824" d="M421.763 694.519l-2.16-83.506 17.603 7.42 98.637 28.297z"/><path fill="#8eabca" fill-opacity=".427" d="M534.791 210.746l182.469-89.97-1.5 123.17-189.07 35.826z"/><path fill="#183f5e" fill-opacity=".616" d="M687.097 322.115l13.077 117.683L555.927 307.46l186.668-86.031z"/><path fill="#a97553" fill-opacity=".576" d="M179.668 1086L-48.818 643.172l253.76 16.432-79.769 144.587z"/><path fill="#e5ecf3" fill-opacity=".498" d="M529.896 749.951l45.75 175.526-62.201-92.669-91.506 34.675z"/><path fill="#7f8e89" fill-opacity=".894" d="M378.57 767.678l33.065 37.9-166.277-9.27 2.984-64.086z"/><path fill="#004548" fill-opacity=".271" d="M800.305 709.454l-48.818 203.108-55.493 6.034-18.969-210.294z"/><path fill="#14261d" fill-opacity=".667" d="M357.59 568.042l97.162 53.727-54.285-57.87-60.61 59.512z"/><path fill="#677077" fill-opacity=".584" d="M471.76 39.172l145.328 122.599-102.262 111.714 46.175-285.31z"/><path fill="#f5f8ff" fill-opacity=".455" d="M189.67 533.93l6.476 88.556 36.735 5.098-3.859-52.037z"/><path fill="#cedde2" fill-opacity=".631" d="M454.983 397.613l-92.195-17.855-85.583 6.792 61.304 49.426z"/><path fill="#215045" fill-opacity=".765" d="M184.585 596.68l26.94-120.889 71.614 63.305-141.347 16.976z"/><path fill="#dae5f5" fill-opacity=".412" d="M629.699 34.645l56.699 165.505-45.484 8.143L536.243 36.07z"/><path fill="#7a9194" fill-opacity=".333" d="M177.424 389.165L336.24 138.221l-51.352 148.062-208.482 60.975z"/><path fill="#c1aea4" fill-opacity=".725" d="M157.128 909.957l56.656 163.703-42.96-179.732-36.818-208.41z"/><path fill="#cbdee5" fill-opacity=".549" d="M470.709 747.114l-96.617 58.36 103.3-21.837 91.47-158.974z"/><path fill="#ebffff" fill-opacity=".369" d="M499.254 372.313l43.174-156.963 48.204 173.13-37.51-51.6z"/><path fill="#fefbfa" fill-opacity=".478" d="M575.87 335.952l-13.573 71.379 59.613-44.13 130.285 147.454z"/><path fill="#408671" fill-opacity=".918" d="M539.785 349.986l16.922 68.956 14.996-64.172-19.256-22.787z"/><path fill="#dde4ed" fill-opacity=".608" d="M259.984 517.77l208.461-7.094-41.947 190.24 22.28-157.633z"/><path fill="#080b09" fill-opacity=".902" d="M212.045 893.059l172.874 74.236L216.507 1086l-44.502-227.528z"/><path fill="#578abe" fill-opacity=".373" d="M56.311 90.751L-62 .894 2.35 285.052l19.103.429z"/><path fill="#001508" fill-opacity=".655" d="M174.874 723.274l212.96 37.277 103.292-25.9-285.38-67.372z"/><path fill="#021710" fill-opacity=".659" d="M469.691 367.761l-173.87 8.456 90.108-80.309 100.31 172.546z"/><path fill="#8f4437" fill-opacity=".306" d="M288.44 101.848L-62 36.559 161.715-62l202.131 416.403z"/><path fill="#009383" fill-opacity=".361" d="M128.286 510.72L59.71 636.194 28.726 393.686 154.765 366.1z"/><path fill="#555556" fill-opacity=".561" d="M889.325 291.131l-23.863 389.733-82.939-512.066L742.128 9.589z"/><path fill="#299178" fill-opacity=".859" d="M485.604 796.452l31.994-44.3-15.545-21.71-30.878 86.948z"/><path fill="#d7e3e9" fill-opacity=".816" d="M548.409 413.678l-3.724 93.39-57.253-24.933-68.701 83.476z"/><path fill="#f8fcff" fill-opacity=".529" d="M208.023 427.264l20.582-15.693-73.836-5.127-20.782 69.75z"/><path fill="#0f0803" fill-opacity=".196" d="M477.598 638.498l37.297-36.747-232.77-78.728 194.56 106.106z"/><path fill="#ffdfd3" fill-opacity=".357" d="M898 960.337l-181.699 38.535-50.176 61.854L898 1086z"/><path fill="#363c3f" fill-opacity=".643" d="M95.469 28.694l-133.541 364.99 294.644-93.954-195.858-9.557z"/><path fill="#e8738c" fill-opacity=".416" d="M-51.85 1074.416L62.814 1086l48.843-150.47-164.265-22.678z"/><path fill="#00a76e" fill-opacity=".298" d="M213.73 322.994l77.929-70.891 4.754 157.403L181.91 482.21z"/><path fill="#84593d" fill-opacity=".553" d="M523.025 249.807L467.896 119.29l125.316 53.553-239.108 63.054z"/><path fill="#f1d9d4" fill-opacity=".478" d="M784.003 573.718l-40.508-57.37-152.844-172.141 242.003 240.692z"/><path fill="#ddf8fd" fill-opacity=".498" d="M226.713 611.975l-124.454-63.8-7.587 14.367 1.496 20.547z"/><path fill="#090400" fill-opacity=".212" d="M359.37 482.18L461.404 505l72.36 37.044-15.215-48.351z"/><path fill="#afbfc7" fill-opacity=".875" d="M674.963 848.024L507.97 778.606l19.82-225.895 30.395 339.274z"/><path fill="#141001" fill-opacity=".573" d="M89.64 1086h73.117l-59.623-110.95-.64-59.269z"/><path fill="#9f6c4b" fill-opacity=".98" d="M68.606 875.892L49.97 798.066l121.77 145.32L154.57 1086z"/><path fill="#ccd4dc" fill-opacity=".655" d="M205.747 465.482l63.402-35.223 39.697 38.223-14.79 71.51z"/><path fill="#2f0f00" fill-opacity=".376" d="M249.168 347.357l159.795-25.853L254.642 124.86l183.308 22.776z"/><path fill="#005c3c" fill-opacity=".808" d="M289.357 389.762l-93.985-41.2-5.414 37.19L314.32 452.71z"/><path fill="#887b63" fill-opacity=".506" d="M681.898 417.48l53.406 65.398 96.995-41.657-60.2-57.984z"/><path fill="#000c0e" fill-opacity=".769" d="M509.375 326.301l-2.572-48.421-16.15 24.708-6.473 60.621z"/><path fill="#301b09" fill-opacity=".431" d="M567.707 474.447L898 658.497l-82.45 12.03-222.21-306.033z"/><path fill="#022829" fill-opacity=".482" d="M262.458 258.676l-57.025-142.627-81.744 94.492L6.965 287.302z"/><path fill="#bfccd0" fill-opacity=".988" d="M475.33 387.852l-2.93-9.066 78.512-74.018-62.16 81.999z"/><path fill="#30fffc" fill-opacity=".145" d="M321.26 218.425l-90.003-40.115 56.268 126.858L62.3 460.142z"/><path fill="#a8806a" fill-opacity=".91" d="M185.781 643.213l-81.01-35.686-98.68 135.662 180.529-63.563z"/><path fill="#707f76" fill-opacity=".886" d="M295.025 681.51l69.135-14.12 31.71-126.757-9.172 153.098z"/><path fill="#00311e" fill-opacity=".263" d="M-58.217 470.047l248.61 120.496L9.59 422.013l43.326-177.554z"/><path fill="#002612" fill-opacity=".604" d="M394.611 834.305l-136.625 13.576-98.577-17.172 111.246-33.796z"/><path fill="#d7e8f9" fill-opacity=".251" d="M194.472 495.615l-93.844 59.828-3.32-14.994 89.627-68.855z"/><path fill="#697f9f" fill-opacity=".655" d="M728.036 190.143l-95.193-251.89-16.968 30.182 104.69 240.173z"/><path fill="#ffc397" fill-opacity=".235" d="M529.916 152.152l-20.814-13.039-133.838 60.369 149.259-40.236z"/><path fill="#4f505b" fill-opacity=".58" d="M493.393 988.294l67.45-2.052-.07-17.7 9.89 80.335z"/><path fill="#000700" fill-opacity=".463" d="M387.942 638.255L241.43 598.698l14.814-25.102 116.63 12.562z"/><path fill="#a4b8fd" fill-opacity=".192" d="M291.082 108.785l30.481-51.802-28.027-29.738-70.934 53.617z"/><path fill="#366d63" fill-opacity=".431" d="M473.879 863.463l174.45-145.85-64.868 14.88-73.393 128.349z"/><path fill="#606d72" fill-opacity=".902" d="M738.852 739.009L699.78 622.053 584.215 633.39 561.81 453.457z"/><path fill="#047756" fill-opacity=".737" d="M315.979 478.117l211.51-58.632-10.451 28.208-93.707 40.534z"/><path fill="#9ba09a" fill-opacity=".459" d="M435.803 408.278l-81.2-34.689 113.737 2.61-26.78-19.921z"/><path fill="#a7afb7" fill-opacity=".588" d="M617.984 514.087l76.924 32.509 59.432 42.944 35.37 113.866z"/><path fill="#d7e0e8" fill-opacity=".859" d="M426.591 582.212l8.145-56.923-15.653-30.867-63.036 17.677z"/><path fill="#76746e" fill-opacity=".82" d="M486.268 362.91l53.681 69.447-77.23-100.806 24.551-46.933z"/><path fill="#6c330f" fill-opacity=".49" d="M353.861 310.675l92.757-104.153-128.803-44.192-8.666 105.174z"/><path fill="#005133" fill-opacity=".722" d="M301.293 560.8l-53.518-60.998 15.79 124.432-47.719-73.44z"/><path fill="#eaf7fd" fill-opacity=".345" d="M222.98 864.541l-38.826-29.758 92.274 23.038 33.566-13.94z"/><path fill="#fcf3fb" fill-opacity=".239" d="M342.743 465.364l27.618-23.975 65.381-17.06-6.367 14.816z"/><path fill="#f1f7fd" fill-opacity=".431" d="M576.097 876.42L435.82 854.934 538.3 773.01l-89.388 116.755z"/><path fill="#b1cbcb" fill-opacity=".569" d="M209.969 547.269l58.94-110.799-115.97 7.834 115.08-26.177z"/><path fill="#54525a" fill-opacity=".337" d="M551.046 663.845l118.567-81.92-17.862 195.633-80.718 29.873z"/><path fill="#7acfdf" fill-opacity=".184" d="M105.59 622.31L-43.934 913.53l122.008-15.764-62.89-218.25z"/></svg>