<svg xmlns="http://www.w3.org/2000/svg" width="228" height="278" viewBox="0 0 836 1024"><path fill="#566340" d="M0 0h836v1024H0z"/><path fill="#e6dcd6" fill-opacity=".6" d="M825.12 347.168L742.457 206.67 428.4 239.852 784.89 447.37z"/><path fill="#012f10" fill-opacity=".78" d="M280.9 979.967L237.992 681.6 674.8 750.154 456.28 1086z"/><path fill="#b4a192" fill-opacity=".58" d="M-62 282.808L417.397 92.852l-147.423 274.87-298.525 111.207z"/><path fill="#002a08" fill-opacity=".761" d="M461.211 600.65L626.82 318.38l106.614 243.065-189.989 60.621z"/><path fill="#e5e4eb" fill-opacity=".416" d="M342.434 428.472l110.202 166.272 49.336 134.058-141.715-137.184z"/><path fill="#0f0100" fill-opacity=".753" d="M483.575 96.428l-35.202-77.413L204.35-62l270.531 210.271z"/><path fill="#2e1d06" fill-opacity=".933" d="M431.792 292.087l-64.345 74.435-68.914-79.99 123.464-83.955z"/><path fill="#996303" fill-opacity=".694" d="M898 244.112L841.273-3.562 640.258 4.384l98.398 193.046z"/><path fill="#c4956e" fill-opacity=".831" d="M262.553 84.572l76.553 148.258 41.817-172.278-66.934-15.266z"/><path fill="#ff926c" fill-opacity=".447" d="M111.81 665.372l153.478-7.296L400.187 554.87l-167.17 15.387z"/><path fill="#0e0807" fill-opacity=".686" d="M271.076 656.296l-76.416 73.637-156.81 49.413 143.2-119.368z"/><path fill="#1da54e" fill-opacity=".416" d="M60.636 712.938l109.041-356.695 486.763-36.338L87.404 620.313z"/><path fill="#0d3118" fill-opacity=".725" d="M472.93 698.968l47.306-117.704-186.531-41.357 128.318-39.55z"/><path fill="#d1d3d2" fill-opacity=".8" d="M353.814 653.228l77.648 37.259-27.093-79.692-14.224 101.573z"/><path fill="#d7d0ff" fill-opacity=".176" d="M-29.182 654.068l86.442 32.803 75.797-27.799 44.686-404.024z"/><path fill="#746963" fill-opacity=".792" d="M483.955 677.543L898 740.493l-259.641 94.19 6.713-282.73z"/><path fill="#ede2d9" fill-opacity=".396" d="M630.962 281.912L771.97 269.7l-8.944 189-74.337-21.033z"/><path fill="#080003" fill-opacity=".588" d="M229.374 746.625l284.474 82.396-108.216-272.042 28.41 137.034z"/><path fill="#2f0d00" fill-opacity=".322" d="M276.014 158.497l96.188 90.305-243.325-49.834L247.724-62z"/><path fill="#5e890a" fill-opacity=".529" d="M276.72 1056.469L-16.436 1086l-4.346-248.725 275.455-1.412z"/><path fill="#487619" fill-opacity=".698" d="M823.148 825.698l-208.093-29.565-16.079 288.4L898 1016.439z"/><path fill="#04350d" fill-opacity=".788" d="M273.014 520.904l-84.166-.143-45.318 105.32 55.604-23.249z"/><path fill="#fbf9fd" fill-opacity=".518" d="M432.979 574.31l30.134 33.38-8.83 40.285-84.821-113.121z"/><path fill="#a99296" fill-opacity=".478" d="M535.011 279.607l-99.35-5.108 39.157-90.98L500.609-62z"/><path fill="#18612f" fill-opacity=".529" d="M435.966 1086l32.72-219.288L631.97 698.367l52.074 370.7z"/><path fill="#151e0c" fill-opacity=".816" d="M296.222 651.169l-41.887 224.587 131.594-268.65 18.352 47.588z"/><path fill="#327c45" fill-opacity=".706" d="M517.818 549.22l119.941-222.611-159.04-23.88-113.353 130.043z"/><path fill="#c1e3d3" fill-opacity=".318" d="M201.27 242.188l-53.15 196.174L-62 391.766l387.282-57.49z"/><path fill="#0c2b10" fill-opacity=".871" d="M598.443 561.728l-300.692-42.284 180.855 63.552 120.37 46.053z"/><path fill="#ffcf97" fill-opacity=".459" d="M413.375 488.95l-46.373 54.95-40.189-80.128 59.494-16.268z"/><path fill="#793108" fill-opacity=".404" d="M507.808 134.177l-210.907-31.169L493.174 309.15 340.998 409.686z"/><path fill="#7e3e19" fill-opacity=".596" d="M758.098 642.455l-186.55 95.218-54.226-51.611 233.851-139.37z"/><path fill="#f5d9f8" fill-opacity=".302" d="M250.779 459.369l39.892 16.338-4.022 61.806-76.129-49.299z"/><path fill="#6f7174" fill-opacity=".8" d="M172.165 827.647l89.898-1.519-13.768-91.704-117.771 15.734z"/><path fill="#001d2d" fill-opacity=".282" d="M873.991 695.535l-114.192-298.77L898 530.924 559.372 724.957z"/><path fill="#fdc49c" fill-opacity=".278" d="M870.91 526.226l-265.693 118.96-141.91 49.157 27.07-29.353z"/><path fill="#093c1e" fill-opacity=".639" d="M353.716 531.152l35.333 10.314-94.565 29.893 26.497-164.965z"/><path fill="#371a23" fill-opacity=".471" d="M-62 114.932l74.99 64.626 71.111-2.13L68.092-62z"/><path fill="#e4eef4" fill-opacity=".643" d="M345.572 589.882l34.602-42.713-50.761 16.845 79.282 48.566z"/><path fill="#d4e3fe" fill-opacity=".216" d="M459.408 525.7l65.056 14.158 20.945-59.622-78.825-30.448z"/><path fill="#a9a3b3" fill-opacity=".655" d="M616.946 984.426l-49.102-12.1-4.392-2.32-27.128 34.154z"/><path fill="#8f8576" fill-opacity=".561" d="M780.266 186.17l.18 60.595-317.82 2.288-24.392-35.91z"/><path fill="#58cc63" fill-opacity=".627" d="M500.414 299.403l101.924 14.347-25.535 60.53-100.284-37.856z"/><path fill="#19160e" fill-opacity=".451" d="M103.504-62L462.931 42.996 289.34 52.66l-46.485 78.042z"/><path fill="#ddb38d" fill-opacity=".635" d="M257.892 97.877l101.83-41.23-108.119 114.04 129.361 8.541z"/><path fill="#321f5a" fill-opacity=".286" d="M-62 404.58l201.716 80.347L-62 769.071l227.872 70.246z"/><path fill="#666c69" d="M673.135 596.927l-61.993-60.741-8.53 67.948 19.65 24.346z"/><path fill="#806d6e" fill-opacity=".58" d="M72.05 39.282l90.86 307.535L-62 300.713 202.934 61.792z"/><path fill="#927153" fill-opacity=".941" d="M260.392 711.21l15.83-172.444-71.793 48.873 158.708-19.918z"/><path fill="#5f4819" fill-opacity=".722" d="M714.073 171.85l-73.17 12.063-.874-226.952L732.677-62z"/><path fill="#a3692e" fill-opacity=".549" d="M320.97 286.536l115.263-201.09-82.518-28.704 9.674 90.727z"/><path fill="#8d716a" fill-opacity=".431" d="M507.724 126.956L425.937-28.892 653.102 51.44l4.223 62.216z"/><path fill="#fffdff" fill-opacity=".29" d="M368.265 661.473l217.928-6.801-166.283 32.47-69.617-22.45z"/><path fill="#021800" fill-opacity=".651" d="M622.556 537.922l-162.68 53.598L672.4 387.198l12.467 209.324z"/><path fill="#134c21" fill-opacity=".882" d="M451.974 842.277L315.058 1086l-53.987-172.87-2.824-116.174z"/><path fill="#facac4" fill-opacity=".357" d="M505.309 717.32l-40.462-4.68 112.35-39.869 35.28-6.593z"/><path fill="#f8fafc" fill-opacity=".647" d="M393.566 550.469l61.274 43.876-57.188-20.546-68.75-14.356z"/><path fill="#fa853f" fill-opacity=".31" d="M63.622 651.876l214.868-60.428.651-73.103-149.79 180.647z"/><path fill="#62ff6c" fill-opacity=".314" d="M131.837 636.935L95.14 598.063l55.92-179.355 30.604 78.421z"/><path fill="#0a5120" fill-opacity=".263" d="M132.464 386.03l305.44 79.051 252.235-.864-33.129-118.213z"/><path fill="#67748d" fill-opacity=".361" d="M671.066 836.962l-54.618-131.471 180.757-13.055L898 778.246z"/><path fill="#022111" fill-opacity=".545" d="M453.827 639.912l-82.417-66.707 20.052-.83 58.285 66.513z"/><path fill="#ffe8c6" fill-opacity=".392" d="M383.036 134.659l-64.424 22.35-4.169 39.948 68.25-30.795z"/><path fill="#312c18" fill-opacity=".667" d="M267.155 630.434l110.547 1.894-143.294 75.955 202.156 15.229z"/><path fill="#c6c1b4" fill-opacity=".643" d="M780.287 264.368l-347.05 3.614 146.323 37.337L784.803 424.8z"/><path fill="#030703" fill-opacity=".722" d="M230.467 712.588L445.31 760.09l44.057-129.646-96.036 201.278z"/><path fill="#120702" fill-opacity=".541" d="M377.73 285.196l-107.794-7.582 106.107 83.275-58.955-31.732z"/><path fill="#9dffa7" fill-opacity=".404" d="M275.276 934.414l13.9-38.573-27.488 63.81L284.43 1086z"/><path fill="#09841a" fill-opacity=".353" d="M162.464 385.042l-30.248 191.287 16.679 68.634L243.8 420.457z"/><path fill="#130000" fill-opacity=".263" d="M254.256 632.397l-136.167 57.874-66.927 56.154 23.294 100.417z"/><path fill="#8dfda9" fill-opacity=".463" d="M298.944 298.769l-108.825 32.546 54.645 40.556 46.293-28.107z"/><path fill="#203212" fill-opacity=".914" d="M452.354 653.648l29.833-1.202 53.551 1.363-10.494-25.573z"/><path fill="#876f6b" fill-opacity=".459" d="M806.452 383.271l-74.325-196.717L898 405.797l-222.918 89.156z"/><path fill="#0b3819" fill-opacity=".604" d="M488.253 637.481l9.594-57.456-88.035-155.036 2.912 114.221z"/><path fill="#050a01" fill-opacity=".576" d="M497.055 842.275L374.016 739.96l227.83-29.384-218.48 101.151z"/><path fill="#1d0f00" fill-opacity=".227" d="M357.674 147.123l150.905-37.241-286.81.68 92.653 27.05z"/><path fill="#706f84" fill-opacity=".498" d="M89.143 623.493l-16.325 97.141L-62 529.116l196.342 8.27z"/><path fill="#00320e" fill-opacity=".549" d="M470.324 281.75l65.546 13.548-78.462 33.797 16.482-42.747z"/><path fill="#ff9e63" fill-opacity=".392" d="M297.49 302.467l70.376 69.66 36.648-15.223-73.636 6.182z"/><path fill="#fefcff" fill-opacity=".494" d="M436.437 679.027l-18.089 26.242-8.309-97.371-44.019-26.24z"/><path fill="#0f0c09" fill-opacity=".937" d="M479.804 157.616L379.184-14.783l-96.71 48.51 195.397 30.91z"/><path fill="#ac724a" fill-opacity=".761" d="M559.426 651.883l107.541-3.734-119.762-28.041-64.06-5.588z"/><path fill="#918718" fill-opacity=".188" d="M693.267 1086h138.376l22.48-314.212-204.553 59.53z"/><path fill="#dfdcd9" fill-opacity=".706" d="M472.426 647.231l-12.629-47.013-59.221-48.171 47.833 95.49z"/><path fill="#a5760f" fill-opacity=".576" d="M898-48.497L734.189 47.861l48.833 139.765 64.959-38.93z"/><path fill="#85430a" fill-opacity=".325" d="M471.226 657.027L100.15 618.103 80.798 755l111.383-114.928z"/><path fill="#104719" fill-opacity=".58" d="M665.89 1086l-52.76-74.662-2.56-92.517 38.08-60.856z"/><path fill="#e8e6f4" fill-opacity=".604" d="M374.298 535.545l-19.141-24.421-7.354-17.72 51.017 10.416z"/><path fill="#112a13" fill-opacity=".827" d="M456.937 652.806L305.32 999.08l127.97-280.078 4.585-73.65z"/><path fill="#251201" fill-opacity=".427" d="M312.948 317.988l57.474-75.294 91.042-203.57-78.749 325.285z"/><path fill="#002817" fill-opacity=".576" d="M360.405 561.095l-4.64 20.872 46.52.27 25.717 26.645z"/><path fill="#d0ebfd" fill-opacity=".42" d="M287.043 665.104l-16.432 1.917-21.186 13.045 42.716-.024z"/><path fill="#fcf3e4" fill-opacity=".173" d="M73.366 706.326l59.894-244.822 68.086-233.251-79.322 331.366z"/><path fill="#314f00" fill-opacity=".298" d="M105.982 456.594L-44.295 489.55 94.99 515.733l61.221-27.074z"/><path fill="#326e41" d="M302.61 346.601l-3.889 152.095-57.227 11.12 175.523-94.367z"/><path fill="#712900" fill-opacity=".298" d="M310.395 148.622l4.412-47.612L256.6 238.618l64.569-14.466z"/><path fill="#fba267" fill-opacity=".196" d="M440.225 178.77L324.405 42.592l128.889 201.353 9.276-96.502z"/><path fill="#3c4d48" fill-opacity=".533" d="M817.583 431.928l23.082-287.209L898 760.734 734.922 517.05z"/><path fill="#63604a" fill-opacity=".502" d="M-11.17 221.138l-22.76-43.282 303.183-30.976-18.836 83.24z"/><path fill="#bea150" fill-opacity=".71" d="M338.558 495.43l61.636-14.737 18.863-29.185-64.344-.1z"/><path fill="#162e11" fill-opacity=".608" d="M494.732 992.772l106.766-99.809 1.518-224.536-65.578 266.482z"/><path fill="#23712f" fill-opacity=".984" d="M217.973 441.618l8.263-78.88-11.81-18.241-49.846 248.251z"/><path fill="#694116" fill-opacity=".612" d="M432.697 287.119L393.22 164.576 322.049 281.03l142.607-88.75z"/><path fill="#f8bc8a" fill-opacity=".255" d="M379.115 614.37L103.89 630.299l-5.065-73.382-12.047 96.814z"/><path fill="#ffdbad" fill-opacity=".212" d="M306.177 50.219l62.921 49.013-109.74 22.783 6.025 117.941z"/><path fill="#09230a" fill-opacity=".561" d="M423.368 549.091l153.428-33.082 40.22-145.53-13.299 268.198z"/><path fill="#1b2914" fill-opacity=".71" d="M277.236 658.97l40.037 45.3 22.697-56.066 193.445 4.993z"/><path fill="#f2e1fc" fill-opacity=".271" d="M545.645 718.247l-71.834 1.395-17.376-113.133 21.914 89.24z"/><path fill="#30a551" fill-opacity=".322" d="M600.97 890.16l34.69-174.846 3.536 168.906L412.238 1086z"/><path fill="#9ca69b" fill-opacity=".294" d="M768.512 545.502l-83.82-85.01-19.62-263.962 90.136 424.946z"/><path fill="#367c46" d="M204.932 486.89l149.728-74.727-59.299-97.201 24.469-32.276z"/><path fill="#fff1dc" fill-opacity=".22" d="M287.784 577.129l173.022-21.668-216.8 9.202-23.3 35.83z"/><path fill="#105606" fill-opacity=".349" d="M762.822 628.056L586.23 288.434l102.168 312.267 28.06-132.729z"/><path fill="#00040e" fill-opacity=".486" d="M333.199 591.88l57.05 39.904-4.836-23.679-19.696-9.01z"/><path fill="#301500" fill-opacity=".345" d="M570.71 661.548l-93.39 37.891 256.477-31.042-209.566 46.55z"/><path fill="#dbd1fe" fill-opacity=".208" d="M241.508 450.854l26.515 65.5-60.439 14.273 80.685-45.34z"/><path fill="#635035" fill-opacity=".314" d="M898 238.579l-248.807-30.312L465.54 196.8l74.055-110.99z"/><path fill="#464029" fill-opacity=".514" d="M16.125 23.409l323.758-68.281L215.25 192.724l-55.723-153.72z"/><path fill="#001600" fill-opacity=".431" d="M161.681 623.23l36.099-112.057-35.724-116.021 68.307 177.683z"/><path fill="#f5efda" fill-opacity=".192" d="M802.128 327.916l-11.723 58.102-127.94 16.006 44.953-123.097z"/></svg>