<svg xmlns="http://www.w3.org/2000/svg" width="228" height="278" viewBox="0 0 836 1024"><path fill="#5f4241" d="M0 0h836v1024H0z"/><g fill-opacity=".502"><path fill="#fff" d="M66 1082l832-64-96-216z"/><path fill="#380000" d="M886 754L298 990 38 398z"/><path fill="#cbe7e4" d="M218 802L-62 994l328 92z"/><path fill="#fff" d="M702 834l84 248-676 4z"/><path fill="#4d0601" d="M782 502L50 686 342-62z"/><path fill="#a7ffff" d="M646 674l20-156 108 128z"/><path fill="#001c18" d="M614-34L70 54l828 244z"/><path fill="#e39ea4" d="M638 286l260 4-72 304z"/><path fill="#99a09e" d="M-62 382l96 144 224-416z"/><path fill="#f9ffff" d="M382 494l40-16-52-132z"/><path fill="#af060d" d="M374 978l-88-728-184 88z"/><path fill="#fff" d="M482 234l8 76-68 68z"/><path fill="#ea0000" d="M526 618l4 260 156-36z"/><path d="M354 754l80 200 300-556z"/><path fill="#f3ffff" d="M62 1086L-62 946l92-140z"/><path fill="#241500" d="M158 478l-52 608-76-260z"/><path fill="#bf0000" d="M458 382l328 56-272-212z"/><path fill="#758681" d="M454 654l-252-44 420-52z"/><path fill="#f1fdff" d="M770 1074l-524-72 484-124z"/><path fill="#00080a" d="M790 602L622 490l-16-192z"/><path fill="#000001" d="M110 598l40-280 112 568z"/><path fill="#00090b" d="M326 346l68 608 156-56z"/><path fill="#001417" d="M890 882L558 554l72 224z"/><path fill="#a00" d="M306 986l124-44-224-328z"/><path fill="#c6d8df" d="M138 798l-16 192 160 12z"/><path fill="#97cbdc" d="M654 614l8 92 160-176z"/><path fill="#0d1d22" d="M898 70l-32 200-396-32z"/><path fill="#f3bec6" d="M218 438l-28 40 140-44z"/><path d="M446 366l64 208-120-8z"/><path fill="#980106" d="M530 870l88-164-156-344z"/><path fill="#14353e" d="M-62 298L34 10l120 272z"/><path fill="#d30c24" d="M622 294l148 248 60-48z"/><path fill="#93eaff" d="M898 482l-120-12-8-84z"/><path fill="#838776" d="M302 350L122 150l176 72z"/><path fill="#fff" d="M122 398l-36-40-4 76zm352-76l-20-112 36 48z"/><path fill="#5b6f6a" d="M650 234L898-34 674-62z"/><path fill="#fff" d="M654 338l68 24-60-60z"/><path fill="#000e00" d="M366 234l84 68-152 144z"/><path fill="#c5d1cb" d="M414 606l4 44 76-20z"/></g></svg>