<svg xmlns="http://www.w3.org/2000/svg" width="228" height="278" viewBox="0 0 836 1024"><path fill="#623136" d="M0 0h836v1024H0z"/><g fill-opacity=".502"><path fill="#bda9a1" d="M-62 686l204-276 48 608z"/><path fill="#a97865" d="M518 22L330 242l568 780z"/><path fill="#710004" d="M558 1086l152-904L62 614z"/><path fill="#001628" d="M538-42l-584 4 36 624z"/><path fill="#fff1d4" d="M390 914l-172-16-80-112z"/><path fill="#1b2d35" d="M550-54l172 700L898 10z"/><path fill="#c9c9b4" d="M898 886L606 658l84-68z"/><path fill="#cceefd" d="M538 418L354 242l60 128z"/><path fill="#600000" d="M350 246L138 390l296 696z"/><path fill="#fff9fd" d="M610 958l76 4 8 124z"/><path fill="#b29e7c" d="M370 102l236 56-88 264z"/><path fill="#977475" d="M370 438l48 168 280-20z"/><path fill="#a80113" d="M546 666l-216 420 392-164z"/><path fill="#cbdcc8" d="M54 522L-58 698l208-112z"/><path fill="#070000" d="M214 606l-112-52 248-112z"/><path fill="#1f0000" d="M238 962l-24 104 328-156z"/><path fill="#7f5660" d="M-42 946l352-16-360-268z"/><path fill="#82000c" d="M506 458l-388-24 196-200z"/><path fill="#001000" d="M502 34l68 92-160-24z"/><path fill="#144368" d="M718 1086l-52-204 232 88z"/><path d="M634 458l16 168-52-40z"/><path fill="#43220d" d="M506 238l-84 80 76 68z"/><path fill="#92020a" d="M346 534l328-32-52-168z"/><path fill="#530007" d="M598 702L230 846 90 594z"/><path fill="#e4a57a" d="M574 382l20 192 24-140z"/><path fill="#fff" d="M410 486l-40-8 56-32z"/><path fill="#54496f" d="M282 114L-62 234 178 34z"/><path fill="#fdc" d="M358 922l-152-84 108 20z"/><path fill="#bae2f4" d="M162 450l4 72-56-8z"/><path fill="#d2bb9f" d="M450 310l-20-196-56 56z"/><path fill="#a49577" d="M58 558l-68 132 304 252z"/><path fill="#40353d" d="M786 738l112-556-256 312z"/><path fill="#625d58" d="M354 38l412 88L398-62z"/><path fill="#b10e1f" d="M310 1006l312-124-20 204z"/><path fill="#636659" d="M574 642l200 180-120-240z"/><path fill="#d9f2ff" d="M82 574l100 32-124-88z"/><path fill="#131918" d="M378 210L290-62l-44 352z"/><path fill="#0a0409" d="M234 194L98 454 54 266z"/><path fill="#b7c0cb" d="M278 650l-40-72 32 20z"/><path fill="#372212" d="M414 198h152l-128-36z"/></g></svg>