<svg xmlns="http://www.w3.org/2000/svg" width="228" height="278" viewBox="0 0 836 1024"><path fill="#41454d" d="M0 0h836v1024H0z"/><g fill-opacity=".502"><path fill="#ffe7b8" d="M-62 614l308-116-136 588z"/><path d="M42 870l476 216 188-584z"/><path fill="#dcb131" d="M654 586l-88 500 332-92z"/><path fill="#fff" d="M106 898l236 148-252-12z"/><path fill="#00044b" d="M558 690L338-30 138 474z"/><path fill="#679fff" d="M898 654L790 290l-152 32z"/><path fill="#d68630" d="M446 426l208-300-240-20z"/><path fill="#2e65be" d="M42 526L-62 130l448 152z"/><path d="M898 158L518 438 710 98z"/><path fill="#b8d3ae" d="M598 686l-144 52-164-76z"/><path fill="#000049" d="M614 638l-8-360 292 392z"/><path fill="#000006" d="M118 902l144-304 408 488z"/><path fill="#89b817" d="M-62 834l96 252 112-272z"/><path fill="#f9e0e3" d="M194 494l12 264L74 578z"/><path d="M150 290L370 10l40 224z"/><path fill="#afceed" d="M546 610l80-56-84-76z"/><path fill="#fdffff" d="M334 1066l-268 20 52-184z"/><path fill="#ff1526" d="M646 750l128 84-92-244z"/><path fill="#070400" d="M450 46L590 6l280 264z"/><path fill="#7c8fb4" d="M242 118L-6-62l344 28z"/><path fill="#002c84" d="M794 514l-92-152-440 152z"/><path fill="#8a4100" d="M778 666l120 52-164 368z"/><path fill="#b6acce" d="M694 834l-52-180-44 228z"/><path fill="#899abd" d="M898 106L802-62 694 50z"/><path fill="#ffffe0" d="M342 534v-60l-48 20z"/><path fill="#00000b" d="M638 774l-272 312-136-408z"/><path fill="#f4ba7b" d="M578 198l4 144 52-136z"/><path fill="#000023" d="M330 638l116-176 192 236z"/><path fill="#5bce26" d="M742 1050l-208 36 144-260z"/><path fill="#c7847c" d="M254 542L-62 834l184 36z"/><path fill="#ddfbd5" d="M354 590l-76 44v-56z"/><path fill="#1b0800" d="M646 342L474 458l-80-104z"/><path fill="#000003" d="M774 794L638 490l148 36z"/><path fill="#00060a" d="M558 182l284 104 56-204z"/><path fill="#000e2e" d="M106 78L-14 246 6-62z"/><path fill="#00083d" d="M90 514l196-20-16-184z"/><path fill="#4182fd" d="M762 386L590 278l220 240z"/><path fill="#aba9ba" d="M122 386L-62 546l116-36z"/><path fill="#000005" d="M166 946l444-44-28-168z"/><path fill="#62a2ff" d="M118 378l92-12 28-84z"/></g></svg>