<svg xmlns="http://www.w3.org/2000/svg" width="228" height="278" viewBox="0 0 836 1024"><path fill="#645d54" d="M0 0h836v1024H0z"/><g fill-opacity=".502"><path fill="#fff" d="M218 1086L-62 966l300-68z"/><path fill="#000035" d="M46 350l368 736 256-220z"/><path fill="#d7a929" d="M898 6L574-22l244 1108z"/><path fill="#ffb87e" d="M890 1086L706 674l-52 392z"/><path fill="#080000" d="M458-14L278 138l32 472z"/><path fill="#fff" d="M-62 930l296 8-168 148z"/><path fill="#0c225f" d="M506 654l348 44-344-384z"/><path fill="#0a0000" d="M434 26l188 20-36 224z"/><path fill="#ef9169" d="M494 442L378 126l148-12z"/><path fill="#001046" d="M662 1010L410 674l-204 388z"/><path fill="#567a97" d="M290-22l8 624-360-492z"/><path fill="#000016" d="M238 370L82 658l188 4z"/><path fill="#9f8986" d="M94 878l124-256 120 264z"/><path fill="#e09b80" d="M282 682l196-88 56 96z"/><path fill="#f1ffff" d="M878 434l20 208-132-136z"/><path fill="#ffb185" d="M514 354L402 486l-52-132z"/><path fill="#2047a5" d="M338 458l12 196 328-208z"/><path fill="#030200" d="M730 850l-528-76 192-104z"/><path fill="#fff" d="M606 550l-128-32 76 60zm-376 536V946l-292-8z"/><path fill="#d4af28" d="M526 358l160 80-64-240z"/><path fill="#fff" d="M734 1086l52-148 112 40z"/><path fill="#a97a27" d="M778 970l120-448-320 216z"/><path d="M610 494l36 180-100 40z"/><path fill="#000819" d="M534 530l-8-164-124 132z"/><path fill="#b8b8a6" d="M230 374l-12-152 120 124z"/><path fill="#7c90d7" d="M498 430l-44 176-76-68z"/><path fill="#4584ae" d="M238 934l-300-88 240-36z"/><path fill="#040000" d="M506 330l64-16-8-172z"/><path fill="#3563dd" d="M566 978l-36-168-24 276z"/><path fill="#d37750" d="M454 722l140 8-192-188z"/><path fill="#ffff9a" d="M618 690l100-12-76 52z"/><path fill="#4f82a5" d="M94 550l128-112-284 32z"/><path fill="#346ff0" d="M282 602l24-304-60 116z"/><path fill="#3360de" d="M470 838l-44 108 36 140z"/><path fill="#1c1007" d="M546-38L290 134l-8 176z"/><path d="M262 1054l16-156-44-16z"/><path fill="#265ddc" d="M590 378l80 312 4-172z"/><path d="M730 698l-64-256-4 152z"/><path fill="#6193f5" d="M558 618l-36-112 52-140z"/></g></svg>