<svg xmlns="http://www.w3.org/2000/svg" width="228" height="278" viewBox="0 0 836 1024"><path fill="#6f7a85" d="M0 0h836v1024H0z"/><g fill-opacity=".502"><path fill="#00073e" d="M198 770l432 200L198 70z"/><path fill="#ecad53" d="M-18-58L306 990 6 1086z"/><path fill="#19f" d="M254 1014l528 68-76-468z"/><path fill="#b8d5e6" d="M614-62L234 222l664 228z"/><path fill="#005fc5" d="M390 206l356 136-372 440z"/><path fill="#99e2ff" d="M266 346H-62V-42z"/><path fill="#f09437" d="M898 230l-8 500-324-148z"/><path fill="#120000" d="M206-2l260-12-276 164z"/><path d="M622 530l60-64-192-96z"/><path fill="#ef743f" d="M218 110l100 260L430 46z"/><path d="M170 410l88 456 88-168z"/><path fill="#382813" d="M778 1086l120-376-156-16z"/><path fill="#2f1c3f" d="M398 726l56 176 304-360z"/><path fill="#f58059" d="M626 774l-120 16 52-224z"/><path fill="#e9ffff" d="M678 434l76-192 144-8z"/><path fill="#8c863c" d="M-2 366l-44 556 288-608z"/><path fill="#ffd2aa" d="M334-62L18-54l84 148z"/><path fill="#448eee" d="M178 70L6 114l204 224z"/><path fill="#4d3625" d="M358 906l-8-208-268-44z"/><path fill="#f9fffb" d="M390 42l108 156-116 8z"/><path fill="#ffd9cb" d="M10 866l232-84-52 88z"/><path fill="#18549c" d="M306 474l44 420 200 176z"/><path fill="#4ab9ff" d="M778 850L642 630l72 444z"/><path fill="#ff9e85" d="M514 682l324-236-84-80z"/><path fill="#0b0000" d="M158 894l-196 32 96-48z"/><path fill="#070000" d="M398 90L310-34 186 58z"/><path fill="#e0feff" d="M-46 342L-62-2l184 304z"/><path fill="#338bda" d="M398 266l196 308-320-200z"/><path fill="#02092e" d="M502 646l76 144-220-8z"/><path fill="#276ac6" d="M698 114l4 140 196-24z"/><path fill="#612100" d="M186 158l148 156-64 64z"/><path fill="#6f360e" d="M898 30L674-62l40 140z"/><path fill="#48acf1" d="M742 390L502 138l-40 176z"/><path fill="#ec9253" d="M338 834L86 922l144 164z"/><path fill="#b89f8b" d="M530-62L370 106l528 20z"/><path fill="#3ca9ff" d="M706 642l-132 48 196 188z"/><path fill="#320400" d="M206 142h164l-168 52z"/><path fill="#000034" d="M686 646l32-76-156 88z"/><path fill="#021a4b" d="M222 758l132-416-176 132z"/><path fill="#3cb5ff" d="M354 902l132 116-268 68z"/></g></svg>