<svg xmlns="http://www.w3.org/2000/svg" width="228" height="278" viewBox="0 0 836 1024"><path fill="#3f4950" d="M0 0h836v1024H0z"/><path fill="#e3a695" fill-opacity=".941" d="M349.58 346.3L312.995 97.728l160.059-34.58L428.04 386.84z"/><path fill="#e6b180" fill-opacity=".659" d="M210.826 683.5l38.66-106.21 87.216-11.455 156.43 129.623z"/><path fill="#001525" fill-opacity=".812" d="M175.613 698.34l442.002-6.343L562.895 1086 200.929 971.032z"/><path fill="#01090f" fill-opacity=".878" d="M898 564.96v180.508l-281.71-225.71 31.224-156.051z"/><path fill="#e7dded" fill-opacity=".376" d="M865.796 98.911l19.806-145.017-372.66 43.773 34.369 83.397z"/><path fill="#a1a5aa" fill-opacity=".608" d="M-31.163-62L377.16-27.249l-60.914 92.844L-62 80.122z"/><path fill="#5f777b" fill-opacity=".647" d="M898 1009.02L746.167 590.346 594.242 767.064l.404 318.936z"/><path fill="#eef6f7" fill-opacity=".824" d="M93.294 524.531L62.519 511.06l-31.698 78.72 43.552-15.377z"/><path fill="#020003" fill-opacity=".459" d="M210.983 760.777L-62 795.654l250.911-392.356 53.21 138.233z"/><path fill="#667c84" fill-opacity=".761" d="M139.638 844.322L-62 831.352v137.38l243.177 10.909z"/><path fill="#071820" fill-opacity=".737" d="M783.695 108.126L604.44 538.947l-54.992 45.805 55.655 150.223z"/><path fill="#c1c2c5" fill-opacity=".62" d="M524.183 512.348l58.465-27.883-4.42 65.833-50.615 17.704z"/><path fill="#90844e" d="M297.415 611.794l291.78 6.34-6.175 15.717-252.91 23.26z"/><path fill="#ffc1d6" fill-opacity=".388" d="M206.508 661.235l129.634-203.222-73.693-17.081 34.58 229.572z"/><path fill="#fea89a" fill-opacity=".404" d="M421.712 350.546l109.553-172.72-219.014-25.828-9.672 49.505z"/><path fill="#0c1e36" fill-opacity=".525" d="M409.633 317.647l77.263-2.634 279.102 66.833-319.35 92.884z"/><path fill="#054c96" fill-opacity=".325" d="M375.1 398.32l-84.7-29.141 45.734 288.016 328.937-254.223z"/><path fill="#0f0606" fill-opacity=".651" d="M388.053 53.729l118.844 25.81 32.746-23.774-47.29-53.373z"/><path fill="#1e3138" fill-opacity=".439" d="M-42.103 88.886l392.042 5.411-10.099 51.953L57.752 384.143z"/><path fill="#9e9c8f" fill-opacity=".427" d="M561.413 964.827l245.644-12.151 87.96 46.873-191.899-162.383z"/><path fill="#020d14" fill-opacity=".773" d="M191.049 510.25l101.842 47.156-78.752 56.535-123.233 36.174z"/><path fill="#8a5152" fill-opacity=".529" d="M514.703 295.216l14.325-166.208-68.73-70.903-39.14 374.255z"/><path fill="#132e46" fill-opacity=".992" d="M478.208 805.22l-32.31-155.804L309.125 1086l63.932-417.34z"/><path fill="#c7b19f" fill-opacity=".886" d="M26.022-62l54.65 82.258-24.82 45.205-106.652-2.38z"/><path fill="#163751" fill-opacity=".714" d="M175.424 861.84l-75.985 29.449 397.654 48.245L186.733 1086z"/><path fill="#04121c" fill-opacity=".976" d="M547.318 1086l85.603-526.451-138.607 262.21L647.031 1086z"/><path fill="#ffc6ad" fill-opacity=".525" d="M366.157 80.573l30.644 292.46-96.817-189.965L464.855 54.7z"/><path fill="#021e3f" fill-opacity=".498" d="M279.764 449.499l62.818-166.248-159.9 82.127 38.761 146.11z"/><path fill="#3f5c69" fill-opacity=".922" d="M868.577 934.495L898 711.98l-283.966-49.55-9.909 130.06z"/><path fill="#ffb8b0" fill-opacity=".624" d="M230.57 597.77l2.838 83.64 70.14-40.567 26.856-80.109z"/><path fill="#021c30" fill-opacity=".467" d="M488.464 304.42l162.289 57.336 15.956 306.439-69.732-104.828z"/><path fill="#172b35" fill-opacity=".314" d="M898 266.87L790.32 82.499l-394.898 88.51 3.863-52.271z"/><path fill="#d1c036" fill-opacity=".627" d="M517.075 645.647l-11.669 38.306-4.916 12.554 37.294-8.373z"/><path fill="#fafd67" fill-opacity=".549" d="M271.348 529.16l-27.633 8.501-13.875-12.178 107.665-18.327z"/><path fill="#cff392" fill-opacity=".424" d="M383.385 650.37l34.74-35.565 51.55-2.954-84.76 100.9z"/><path fill-opacity=".337" d="M380.616 617.385L151.302 827.148l294.491 101.616-203.712-228.301z"/><path fill="#1f65ad" fill-opacity=".549" d="M393.935 609.745l49.98-26.603-1.946-175.89-43.424 6.2z"/><path fill="#1d2315" fill-opacity=".718" d="M540.634 626.357l-28.528 153.166 51.94-133.452-104.432-21.37z"/><path fill="#161b1f" fill-opacity=".596" d="M280.434 281.043l73.152 97.242 136.116-4.626-21.692 79.362z"/><path fill="#252b23" fill-opacity=".455" d="M440.98 459.512l-102.828-35.001 45.813 334.355 6.129-295.642z"/><path fill="#265b90" fill-opacity=".992" d="M318.399 359.79l-33.643 32.991 53.216 126.848 2.283-150.47z"/><path fill="#2369b5" fill-opacity=".404" d="M507.267 602.655l17.138 6.611 4.962-246.568-39.907 4.702z"/><path fill="#001c34" fill-opacity=".388" d="M631.332 615.117l-316.675-2.926 128.167-22.33 12.462-95.121z"/><path fill="#c0ffff" fill-opacity=".161" d="M147.335 537.51L-62 525.954l40.226 67.873 108.516.618z"/><path fill="#38363b" fill-opacity=".875" d="M224.878 692.983L-62 677.533l278.43-56.816 14.453 40.541z"/><path fill="#5d6b77" fill-opacity=".529" d="M404.621-62L-.288 78.911l365.997 10.891-33.503 12.312z"/><path fill="#1d426a" fill-opacity=".788" d="M600.207 385.657l-9.988 156.607 53.3-79.048-2.675-41.796z"/><path fill="#fdc0aa" fill-opacity=".376" d="M357.774 350.153l92.678-267.384 37.409-7.631-109.178 298.566z"/><path fill="#567382" fill-opacity=".494" d="M898 775.483L692.49 561.67l43.593 168.905-65.675 54.032z"/><path fill="#6b454a" fill-opacity=".867" d="M606.718 127.105L496.09 230.709l-93.602 20.203 59.44 9.793z"/><path fill="#79bdf3" fill-opacity=".145" d="M278.855 664.356l2.542 87.601 212.557-70.004-115.188 78.517z"/><path fill="#23130e" fill-opacity=".275" d="M613.316 1012.61l266.577-9.321-124.448-30.622-126.476-2.12z"/><path fill="#8b8773" d="M626.912 880l-48.866 87.288 37.024 22.271 54.034-88.797z"/><path fill="#ce5a53" fill-opacity=".345" d="M358.389 578.807l38.472 39.4-167.577 84.677 103.463-132.763z"/><path fill="#ffe347" fill-opacity=".318" d="M586.004 616.283l.682 29.304-292.535-7.667 272.342-5.34z"/><path fill="#436776" fill-opacity=".62" d="M166.93 743.377l-32.332 94.547L-62 891.201l265.958-17.862z"/><path fill="#fefe57" fill-opacity=".353" d="M348.896 651.51l25.132 50.964-96.916-40.367L453.5 675.892z"/><path fill="#3f77aa" fill-opacity=".506" d="M289.416 995.928l53.947-24.271 4.566-21.646L103.997 1086z"/><path fill="#fff7f0" fill-opacity=".275" d="M518.049 483.689l11 68.135 27.601 8.118-1.894-57.188z"/><path fill="#ffece4" fill-opacity=".353" d="M303.57 498.898l-51.58-26.412 1.076-2.097 65.838-20.104z"/><path fill="#253b43" fill-opacity=".729" d="M619.347 731.749l53.767 14.324 53.514-37.656-97.499-16.99z"/><path fill="#131712" fill-opacity=".467" d="M339.976 1010.323l23.35 75.677 92.112-293.858-5.006-176.026z"/><path fill="#ffee20" fill-opacity=".243" d="M478.814 682.909l126.476 1.097-156.794 16.105L466 631.347z"/><path fill="#231817" fill-opacity=".38" d="M355.844 227.852L267.732 336.21l114.915 49.496L270.66 237.78z"/><path fill="#0b0d06" fill-opacity=".475" d="M294.38 1037.234l49.799-387.452L244.22 1086l-.82-65.088z"/><path fill="#000609" fill-opacity=".416" d="M261.339 709.797l-73.685-43.548 15.02 406.292 65.185-270.998z"/><path fill="#23363f" fill-opacity=".761" d="M724.512 427.054l-54.468-53.542 23.939-121.926L793.1 116.323z"/><path fill="#27425e" fill-opacity=".729" d="M145.799 451.212l73.53-63.462 60.125 129.693 41.18-7.927z"/><path fill="#f5b9a7" fill-opacity=".859" d="M308.526 155.868l148.21 28.098-107.027 160.55-14.878-138.029z"/><path fill="#011925" fill-opacity=".298" d="M568.197 638.506l-8.252-11.338-139.643-3.974-76.286 5.453z"/><path fill="#fff6f1" fill-opacity=".482" d="M77.185 505.368l-50.23 80.513 69.27-48.468 12.886 17.918z"/><path fill="#164060" fill-opacity=".859" d="M212.021 544.441l132.961 25.895 1.826-65.607-98.213 39.593z"/><path fill="#37363c" d="M-62 614.046l225.437 39.651-47.985 10.045-148.84 150.612z"/><path fill="#020507" fill-opacity=".667" d="M686.997 550.246L602.7 595.853l99.632-215.19L898 728.523z"/><path fill="#2f484f" fill-opacity=".671" d="M821.903 835.814l-240.215-14.153 29.472-30.776 218.192-1.815z"/><path fill="#373c3c" fill-opacity=".973" d="M338.472 638.506l134.22 12.61-145.223-2.13L183.34 860.291z"/><path fill="#01060a" fill-opacity=".722" d="M529.124 967.61l61.627-49.928-26.502 70.875L336.455 1086z"/><path fill="#da9790" fill-opacity=".847" d="M361.426 577.638l-26.889-3.597-15.408 75.435-92.138 1.987z"/><path fill="#1b90f2" fill-opacity=".243" d="M204.908 1060.16l88.431-178.153-73.685 90.738 52.569 26.765z"/><path fill="#557485" fill-opacity=".596" d="M822.394 838.44l-230.843-4.519-7.8 55.585L898 859.14z"/><path fill="#5a6a74" fill-opacity=".627" d="M526.544 66.477l-4.932 30.943 210.227 6.15L898 96.282z"/><path fill="#0a7ffc" fill-opacity=".098" d="M393.229 1086l14.287-161.978 104.907-270.218-53.885 300.8z"/><path fill="#899391" fill-opacity=".4" d="M-.453 909.652L-62 958.368l240.232.798 2.826-38.133z"/><path fill="#83796c" fill-opacity=".871" d="M825.13 1048.994L570.976 1086l37.436-67.71L898 1012.447z"/><path fill="#090603" fill-opacity=".482" d="M132.622 704.442l133.087 1.97-129.728 61.57-75.991 17.536z"/><path fill="#751f03" fill-opacity=".216" d="M322.536 22.109l241.987-79.066L367.106 84.747l-43.095 27.958z"/><path fill="#f7b7a0" fill-opacity=".792" d="M351.88 349.424l29.296 20.754 22.442 4.72-37.748-296.37z"/><path fill="#61a1c5" fill-opacity=".204" d="M614.516 793.139L898 756.474l-278.394-13.73-26.602 13.89z"/><path fill="#ffc6ba" fill-opacity=".561" d="M238.441 601.793l67.379-38.881-61.92 131.013-9.55-9.073z"/><path fill="#000d0e" fill-opacity=".353" d="M500.4 311.857l-18.958 153.178-21.482-85.15 226.399-2.03z"/><path fill="#2c4d71" fill-opacity=".969" d="M603.033 531.92l-109.905 83.164 12.296-89.709 65.217 51.685z"/><path fill="#7d595c" fill-opacity=".792" d="M505.116 85.012l11.187 106.543-115.292 23.381 140.312 14.986z"/><path fill="#305968" fill-opacity=".788" d="M35.127 562.473l-72.905-87.39 121.334 1.328 3.04 7.493z"/><path fill="#fffc4a" fill-opacity=".31" d="M417.515 607.38l-85.058 14.532 102.354 2.828 133.41-1.585z"/><path fill="#270b09" fill-opacity=".235" d="M329.382 584.363l7.095 175.287 8.602-147.385 113.95 3.446z"/><path fill="#f8ff8e" fill-opacity=".322" d="M423.298 682.13l16.44-2.363-43.589-51.368-16.7 68.851z"/><path fill="#fff65b" fill-opacity=".333" d="M267.545 528.285l-33.348 8.465 7.707-39.558 31.06 43.196z"/><path fill="#f5fd87" fill-opacity=".486" d="M323.02 679.077l-17.943-1.47 53.586 12.994 19.201-37.113z"/><path fill="#394349" fill-opacity=".796" d="M340.854 235.942L77.157 338.109 302.155 93.552l16.506 256.34z"/><path fill="#031119" fill-opacity=".647" d="M531.765 669.76l62.92 266.007-111.143 25.97-42.676 68.578z"/><path fill="#152a34" fill-opacity=".561" d="M68.398 362.648l107.847-214.022-34.098-6.171-81.92 108.708z"/><path fill="#040608" fill-opacity=".706" d="M881.604 736.285l-84.777-58.663L898 455.936 721.649 571.034z"/><path fill="#070606" fill-opacity=".467" d="M339.268 302.391l-186.29 97.736 88.075-23.709 47.364-80.02z"/><path fill="#000400" fill-opacity=".361" d="M164.112 629.814l98.473-49.375-38.723 40.716-33.429-234.911z"/><path fill="#30424e" fill-opacity=".929" d="M635.371 642.287l-8.743-27.155 52.342-56.41 65.23 46.224z"/><path fill="#314953" fill-opacity=".996" d="M78.913 852.742L-62 693.49v141.187l249.37-88.1z"/><path fill="#071a24" fill-opacity=".275" d="M467.97-8.767L311.673-62l275.173 183.817-28.237 106.477z"/><path fill="#fdc0aa" fill-opacity=".349" d="M341.628 319.512l138.116-15.52-173.62-92.516 91.73-155.985z"/><path fill="#f2bcb0" fill-opacity=".349" d="M407.85 63.638L508.2 119.56l-140.302-3.451 8.53-15.608z"/><path fill="#1d1d22" fill-opacity=".984" d="M394.043 377.12l-123.627-63.031 113.177 78.148 102.84 1.103z"/><path fill="#113c6c" fill-opacity=".522" d="M261.655 1086l98.188-21.174-37.254-155.152 74.49-63.098z"/><path fill="#020f1a" fill-opacity=".616" d="M443.307 719.367L244.727 845.52 174.54 949.052 495.941 694.14z"/><path fill="#550006" fill-opacity=".196" d="M362.793 165.454l66.924 1.57-29.25-40.917 136.24-2.161z"/><path fill="#d18067" fill-opacity=".412" d="M429.934 350.568l-121.4-169.208 126.25 202.765 43.718-19.755z"/><path fill="#1d99ff" fill-opacity=".204" d="M342.775 547.837l-60.843 28.7 55.402-125.04-4.504 50.505z"/><path fill="#fec8bd" fill-opacity=".518" d="M442.869 148.47l13.914 53.628-47.782-4.71 46.645-103.062z"/><path fill="#120d0d" fill-opacity=".396" d="M394.187 32.562l123.998.814-10.286 44.32-160.4-28.599z"/><path fill="#4eabff" fill-opacity=".129" d="M398.845 921.349L82.547 1086l129.544-116.088L154.233 1086z"/><path fill="#121d23" fill-opacity=".71" d="M605.277 493.601l-45.922-153.734 34.875 119.79-67.585 20.671z"/><path fill="#050f18" fill-opacity=".612" d="M577.075 557.919l9.458 78.903-9.243 211.67 66.732-276.347z"/></svg>