<svg xmlns="http://www.w3.org/2000/svg" width="228" height="278" viewBox="0 0 836 1024"><path fill="#525e5b" d="M0 0h836v1024H0z"/><g fill-opacity=".502"><path d="M418 1086l344-508-692-12z"/><path fill="#fce8de" d="M-50 278l12 740 268-12z"/><path fill="#4c8eff" d="M10-62l296 200-368 496z"/><path fill="#000500" d="M750 638L606 374l-448 712z"/><path fill="#cda089" d="M898 938l-68-640-212 788z"/><path fill="#000b00" d="M314 542l-120 544h492z"/><path fill="#e1fee8" d="M186 546l328 28-12-112z"/><path fill="#a09494" d="M786 590L722-58 382 102z"/><path d="M274 286l-160 96-4 456z"/><path fill="#352600" d="M598 478l-276-4 16-536z"/><path fill="#c4d3d1" d="M214 606L38 986l172 40z"/><path fill="#95d2b2" d="M650 610l60 464-132-316z"/><path fill="#2c6ce4" d="M786-50l-48 268L450-34z"/><path d="M670 422L478 302l244 532z"/><path fill="#897261" d="M-62 878l284-4L30 370z"/><path fill="#b27e45" d="M306 214l592 276L450 50z"/><path fill="#d1fbe1" d="M206 558l4-96 160 24z"/><path fill="#712e00" d="M662 682l52 404 44-308z"/><path fill="#f5ffff" d="M-38 858l256 88-248 72z"/><path fill="#002706" d="M194 1074l456 12-64-660z"/><path d="M330 370l32 164 92-224z"/><path fill="#c09b77" d="M490-50L70-46l160 152z"/><path fill="#1eb965" d="M662 938l-96-260-8 280z"/><path fill="#8297cc" d="M150 334L282 90l12 188z"/><path fill="#080000" d="M306 66l144-40-152 180z"/><path fill="#4c94be" d="M770 714l128-184-184 12z"/><path fill="#aec6ff" d="M762 894l24 108 112-164z"/><path fill="#0e0600" d="M142 842l68-356-100-64z"/><path fill="#004e15" d="M210 966l120-28-68-372z"/><path fill="#8fa2ae" d="M-30 626l148-248-20 264z"/><path fill="#26b080" d="M490 334L374 486l124-16z"/><path fill="#000321" d="M898 158l-224 48 116 44z"/><path fill="#001500" d="M294 530l112-164-88 16z"/><path fill="#51dc95" d="M326 442l-124-36 108-56z"/><path fill="#917865" d="M214 602L-38 910l280-120z"/><path fill="#001c03" d="M606 1086L418 554l-208 44z"/><path fill="#b66b3c" d="M318 346l4-196 68 212z"/><path fill="#d3eeff" d="M518 306h64l40 60z"/><path fill="#ffd8bf" d="M426 74l104 72-20-64z"/><path fill="#ecfbff" d="M682 1010l-40-116 44-12z"/></g></svg>