<svg xmlns="http://www.w3.org/2000/svg" width="228" height="278" viewBox="0 0 836 1024"><path fill="#625d78" d="M0 0h836v1024H0z"/><path fill="#e3b8db" fill-opacity=".965" d="M340.477 975.251L2.28 1086-62 252.537l167.043 654.899z"/><path fill="#052150" fill-opacity=".529" d="M-62 274.632L640.288 1031.4l213.6-604.145-427.644-126.177z"/><path fill="#fd93ad" fill-opacity=".918" d="M898 559.718L840.066 1086l-112.729-74.67-33.947-56.04z"/><path fill="#162040" fill-opacity=".988" d="M67.325 445.516L462.947 1086 320.21 616.666 83.507 770.823z"/><path fill="#fbe4da" fill-opacity=".259" d="M-62 42.217l591.199 306.24 352.59-191.405L801.22-62z"/><path fill="#dffbff" fill-opacity=".318" d="M523.936 478.67l-262.014-14.216 25.655 167.311L-62 1038.21z"/><path fill="#87a6a6" fill-opacity=".663" d="M556.952 1086l8.15-162.854-132.5-238.917-126.168 23.401z"/><path fill="#f5cae7" fill-opacity=".671" d="M154.542 1086l102.612-26.293-77.392-441.869 90.775 132.884z"/><path fill="#010a2d" fill-opacity=".835" d="M418.662 895.811L193.269 479.96 366.777 1086h89.484z"/><path fill="#000131" fill-opacity=".612" d="M583.877 1029.408L406.316 239.245l302.59 779.978L898 1048.306z"/><path fill="#0050ec" fill-opacity=".667" d="M607.923 327.674l-215.5-54.876 281.574 199.437 3.221-123.17z"/><path fill="#a9bec3" fill-opacity=".494" d="M661.127 820.829l-135.48-276.367 133.604 116.605 85.957-46.36z"/><path fill="#000c36" fill-opacity=".737" d="M282.286 618.9L24.468 706.007l143.13 87.43 32.596-493.526z"/><path fill="#d82404" fill-opacity=".388" d="M890.778 846.053l-216.991-59.491-35.95 169.858 240.458-59.265z"/><path fill="#fcb47b" fill-opacity=".42" d="M442.768 120.887L235.42 43.888l-39.867 29.538 190.211 319.308z"/><path fill="#060f38" fill-opacity=".988" d="M651.932 448.657l101.292 184.161-112.489-16.816-124.337-240.703z"/><path fill="#483429" fill-opacity=".78" d="M324.512 546.339L182.493 219.296l88.202-21.458L388.63 400.016z"/><path fill="#a2c5ca" fill-opacity=".584" d="M570.703 467.518L557.91 657.584l-42.647-224.642 26.03 12.635z"/><path fill="#bebbfe" fill-opacity=".51" d="M729.918 90.893l-19.312 94.396 103.467 17.206L877.266-3.108z"/><path fill="#000c39" fill-opacity=".675" d="M413.436 685.55L401.87 524.744l286.025 304.158-85.256 73.98z"/><path fill="#00227f" fill-opacity=".882" d="M198.231 411.675l2.813-90.142L55.029 436.59 69.02 582.844z"/><path fill="#a9abb8" fill-opacity=".663" d="M265.336 820.673L92.798 847.387-2.89 367.15-62 739.897z"/><path fill="#000837" fill-opacity=".827" d="M439.994 1086l-40.972-237.85-141.756 234.574-3.955-107.597z"/><path fill="#59433c" fill-opacity=".922" d="M394.088 163.837l-10.605-77.903-151.622-54.517 54.56-23.383z"/><path fill="#b8cedb" fill-opacity=".537" d="M419.807 679.795L263.474 466.722l36.039 211.055 78.451-235.663z"/><path fill="#b0b1ca" fill-opacity=".604" d="M321.73 996.427l-107.319-24.845-3.604-31.122 90.4-121.951z"/><path fill="#602b00" fill-opacity=".345" d="M798.146 678.943L898 128.566 783.13 250.154l-93.204 659.814z"/><path fill="#68593c" fill-opacity=".561" d="M231.402 152.287L-62 459.144 128.537 81.9l238.571 63.302z"/><path fill="#e93500" fill-opacity=".286" d="M46.167 819.845l207.04 11.874-20.143 80.092-93.86 44.962z"/><path fill="#365d5d" fill-opacity=".345" d="M575.98-62L436.477 90.616l250.979 140.698L738.095-7.998z"/><path fill="#fcc5ea" fill-opacity=".894" d="M898 914.92l-169.789 40.14L764.934 1086h82.425z"/><path fill="#001972" fill-opacity=".816" d="M411.904 325.712l-26.262-53.742L568.27 395.715 387.854 501.448z"/><path fill="#c9c9e2" fill-opacity=".98" d="M164.418 836.097l71.891-123.403 19.786 117.845-73.322-115.837z"/><path fill="#cfe5ed" fill-opacity=".667" d="M824.417 549.326l36.237 57.433-78.675 190.605 77.616-2.356z"/><path fill="#143ca6" fill-opacity=".541" d="M720.114 629.809L624.56 322.158l189.77 189.698-129.644 123.372z"/><path fill="#3a71ba" fill-opacity=".8" d="M401.25 477.248l12.86 79.218 43.187 2.298 79.15-75.905z"/><path fill="#ffcdc4" fill-opacity=".529" d="M355.112 103.415l-61.584-48.366-69.44 1.975-59.39 78.248z"/><path fill="#3f3c4f" fill-opacity=".584" d="M117.412-15.615l19.458 99.358 181.255-58.618 59.723 43.223z"/><path fill="#0e1b4c" fill-opacity=".886" d="M253.474 358.257l25.485 386.3-120.21-162.696 1.302-122.807z"/><path fill="#fec8a8" fill-opacity=".451" d="M455.72 126.096l-224.448 52.158-80.359-27.534 18.326 75.73z"/><path fill="#809ed7" fill-opacity=".592" d="M6.182-62h102.059l18.251 169.893L52.6 145.03z"/><path fill="#a0bfde" fill-opacity=".439" d="M149.265 462.891l-38.748 96.666 242.39-17.261-193.477-12.622z"/><path fill="#2a272d" fill-opacity=".663" d="M305.431 298.566L41.57 330.054l66.076-135.113L361.518 569.45z"/><path fill="#dcd8ff" fill-opacity=".333" d="M493.54 263.683l163.196-75.214-260.31-21.867L384.42 43.437z"/><path fill="#ffbde5" fill-opacity=".627" d="M-62 753.783l192.729 145.78L339.646 1086H-62z"/><path fill="#849dae" fill-opacity=".773" d="M327.343 1074.352L418.018 1086l93.044-281.807 82.688 228.306z"/><path fill="#99d6f9" fill-opacity=".467" d="M52.64 507.437l31.053 133.788L-62 672.222l109.413 145.72z"/><path fill="#ab873c" fill-opacity=".302" d="M862.863 625.794l-204.324 413.414 79.884-377.945L898 416.677z"/><path fill="#010400" fill-opacity=".592" d="M48.651 727.535l100.596 36.597 53.467-65.986-148.98-2.036z"/><path fill="#000002" fill-opacity=".318" d="M549.082 544.864L898 313.13 681.747 541.915l11.376 139.49z"/><path fill="#142035" fill-opacity=".945" d="M380.175 694.293l-90.521 8.452 48.34-70.498 58.22 2.831z"/><path fill="#6c9bff" fill-opacity=".235" d="M-62 326.709l44.883 252.226L237.43 280.2 117.942 382.534z"/><path fill="#778ea8" fill-opacity=".992" d="M274.444 758.116l-66.584-113.49 102.966 270.61-11.476-83.797z"/><path fill="#746483" fill-opacity=".82" d="M793.053 214.506l-59.96 318.932 52.1-52.308-222.497-229.32z"/><path fill="#fe2e4e" fill-opacity=".988" d="M761.33 839.863l-33.375 62.033L898 906.898V838.31z"/><path fill="#02060b" fill-opacity=".745" d="M811.984 524.348l-40.841 93.236-72.902 7.27 94.627-98.316z"/><path fill="#845948" fill-opacity=".443" d="M424.472 201.657L97.27 386.65l137.265-279.528 2.01 128.956z"/><path fill="#ffa986" fill-opacity=".357" d="M85.124 730.065l146.28 160.515 27.66-87.446-187.011 41.285z"/><path fill="#7bb3fd" fill-opacity=".494" d="M725.251 660.9l-34.064 87.093-4.926-142.031 43.422 52.132z"/><path fill="#202e01" fill-opacity=".337" d="M46.318 821.329l163.781 61.716-4.887 52.783-32.77-10.59z"/><path fill="#86a2ce" fill-opacity=".663" d="M647.104 419.603l-12.95-22.578 37.193-29.061 6.083 51.186z"/><path fill="#75495f" fill-opacity=".435" d="M392.472 277.14l129.646 35.776 111.845-10.155-231.35-82.634z"/><path fill="#95aac6" fill-opacity=".976" d="M258.8 441.528l19.351 141.811 34.335-27.383-13.832-76.112z"/><path fill="#000236" fill-opacity=".639" d="M187.287 432.891L48.277 513.5l131.81 228.273-69.7-231.496z"/><path fill="#c4d3ed" fill-opacity=".765" d="M243.475 752.32l-28.411-100.572-42.334 114.75 91.586 52.918z"/><path fill="#839aa8" fill-opacity=".82" d="M504.15 791.561l46.193 87.116 13.667 92.968-134.402 5.48z"/><path fill="#000e4d" fill-opacity=".608" d="M500.56 525.231l-8.088-151.633L548.05 608l-178.585-22.912z"/><path fill="#001b65" fill-opacity=".839" d="M53.659 647.042l-1.743 3.258 5.13 60.671 94.619-20.956z"/><path fill="#03024a" fill-opacity=".639" d="M274.828 839.134l.976 19.517-44.801 45.035 41.58-106.424z"/><path fill="#3988ff" fill-opacity=".22" d="M447.347 233.699l-5.47-91.78 168.787-37.776 52.462 55.112z"/><path fill="#290300" fill-opacity=".4" d="M323.964 124.506l-41.157 51.456 4.457-4.65-24.975-62.147z"/><path fill="#031145" fill-opacity=".898" d="M440.628 973.45L214.134 1086l65.162-93.201 166.766-1.204z"/><path fill="#0d194d" fill-opacity=".976" d="M313.051 541.292l141.581-232.488-2.874 67.272-149.745 95.892z"/><path fill="#6d747d" fill-opacity=".918" d="M667.105 836.687l-71.77-253.135 102.217 145.443-21.047 109.811z"/><path fill="#a4bec8" fill-opacity=".306" d="M545.826 551.39l-52.723-161.858L666.035 770 542.39 621.26z"/><path fill="#102b4d" fill-opacity=".569" d="M10.176 131.179L-62 233.819-2.85 9.143l34.764 56.688z"/><path fill="#0046da" fill-opacity=".565" d="M655.91 341.648l52.206 59.241-264.03-111.361 119.849 136.275z"/><path fill="#576a72" d="M441.083 613.792l156.515-12.08-144.895 14.647-109.41 160.621z"/><path fill="#001907" fill-opacity=".282" d="M295.324 847.264l211.3-19.536-156.666-31.067 189.287 81.644z"/><path fill="#8c6a4b" fill-opacity=".424" d="M307.208 384.8l57.79 50.482 47.955-79.65-94.9-177.441z"/><path fill="#9cb3cc" fill-opacity=".663" d="M351.999 470.26l-.372 156.115 38.038-114.234-1.57-73.611z"/><path fill="#ffe2c9" fill-opacity=".361" d="M316.072 99.525l35.403 109.326L417.28 88.81l39.054 138.947z"/><path fill="#4b356b" fill-opacity=".325" d="M607.178 315.962L677.103-62l53.68 16.508-56.927 352.94z"/><path fill="#c6d8ef" fill-opacity=".506" d="M336.796 744.726l97.42 5.635 28.218.91-136.06 10.485z"/><path fill="#ff7cae" fill-opacity=".435" d="M153.715 1006.442l86.593-144.762 13.863 162.815-208.556-206.03z"/><path fill-opacity=".29" d="M380.243 572.967l-217.303 86.89L66.629 587.6l298.181 26.097z"/><path fill="#692909" fill-opacity=".259" d="M888.55 615.234l-70.127-274.17-158.896 3.052.62-8.838z"/><path fill="#372000" fill-opacity=".424" d="M174.655 59.72l173.689-29.866 57.374 128.171-89.313-143.9z"/><path fill="#d7dffb" fill-opacity=".267" d="M722.551 549.75l-21.7 18.087-15.41-59.348 50.198 18.543z"/><path fill="#2f1508" fill-opacity=".635" d="M239.525 137.334l-4.406 30.105-45.023-14.151 19.328-26.57z"/><path fill="#fad8b9" fill-opacity=".247" d="M172.831 46.329l101.743-94.786 148.205 185.749 6.176-189.761z"/><path fill="#e1f9f6" fill-opacity=".224" d="M391.875 521.818l14.767 106.455-88.737 2.186 28.294-89.64z"/><path fill="#4d3625" fill-opacity=".784" d="M759.158 1086l-103-183.944 93.915-331.405L638.198 1086z"/><path fill="#072071" fill-opacity=".992" d="M404.704 488.506l1.37 88.359-25.615-155.266 59.8-129.509z"/><path fill="#465661" fill-opacity=".984" d="M327.506 749.132l161.011-65.418-8.591 8.443 64.845-49.874z"/><path fill="#7a9e7f" fill-opacity=".678" d="M529.847 99.625l105.1 5.038.498-107.391L492.758 28.12z"/><path fill="#cfb7aa" fill-opacity=".576" d="M702.154 929.429l1.118 59.683 49.918 47.413-32.683-159.812z"/><path fill="#00073a" fill-opacity=".612" d="M631.328 993.255l11.853-229.972-71.21-92.939-128.34 25.137z"/><path fill="#987285" fill-opacity=".396" d="M44.285 344.063L-62 120.21v471.965L47.292 613.93z"/><path fill="#80a0bd" fill-opacity=".576" d="M123.812 495.22l32.976-26.638 1.464 135.52-27.781-38.237z"/><path fill="#deafa9" fill-opacity=".824" d="M301.416 190.39l-65.873 10.866 13.005-91.905-29.51-16.492z"/><path fill="#88c0fb" fill-opacity=".592" d="M81.15 776.642l-34.86-82.554-61.752-14.178 81.66 119.65z"/><path fill="#001873" fill-opacity=".824" d="M689.203 535.875l65.803-74.635-82.706-78.125 1.5 77.645z"/><path fill="#010520" fill-opacity=".541" d="M382.008 806.422l-231.872-251.77 161.58 246.84L331.347 1086z"/><path fill="#485a60" fill-opacity=".533" d="M289.06 644.152l-73.884.177 14.87-12.46 220.992-78.306z"/><path fill="#685846" fill-opacity=".525" d="M774.665 808.243l16.771-121.013-154.93 204.754 33.439 76.594z"/><path fill="#649dff" fill-opacity=".518" d="M544.54 339.204l-22.575-6.498-27.086-30.4 150.57 28.37z"/><path fill="#0d1850" fill-opacity=".918" d="M346.862 477.63l-52.615-33.737 22.497 101.599 36.166-15.562z"/><path fill="#ffe4ff" fill-opacity=".282" d="M121.82 962.646L99.975 1086-9.498 903.82-62 487.072z"/><path fill="#525a51" fill-opacity=".741" d="M593.518 640.324l-34.347 4.36 90.33-40.243 6.655 83.615z"/><path fill="#2a3b3e" fill-opacity=".431" d="M298.069 927.57l33.988-25.426L267 900.506l-.92 34.55z"/><path fill="#f4a794" fill-opacity=".208" d="M817.63 509.175l-63.952-48.366 109.884 136.694L781.19 758.38z"/><path fill="#686442" fill-opacity=".635" d="M179.237 100.316l41.203-82.954L96.374 163.024l68.998 119.863z"/><path fill="#cbd2ee" fill-opacity=".506" d="M231.159 818.504l24.353 16.06-60.067-210.392-6.817 61.692z"/><path fill="#03071d" fill-opacity=".522" d="M613.745 887.472l-28.36-25.468-2.932 192.028 98.023-57.067z"/><path fill="#7f6e9f" fill-opacity=".424" d="M782.828 291.042L714.16 130.2l-149.168 59.676 163.925 161.73z"/><path fill="#0041ba" fill-opacity=".792" d="M83.066 404.704l76.545-51.93-44.874 90.024-58.655 8.967z"/><path fill="#110500" fill-opacity=".373" d="M200.241 512.49L167.74 822.362l-48.858-91.183 80.028-104.354z"/><path fill="#0e152f" fill-opacity=".714" d="M308.466 858.042L319.883 630.4l83.415 65.383-148.667 10.606z"/><path fill="#091544" fill-opacity=".749" d="M673.319 509.406l20.796 195.208-58.604-114.452 64.868 32.556z"/></svg>