<svg xmlns="http://www.w3.org/2000/svg" width="228" height="278" viewBox="0 0 836 1024"><path fill="#58825b" d="M0 0h836v1024H0z"/><path fill="#0f0a0f" fill-opacity=".635" d="M-62 465.012L76.726-62h354.705l-17.346 329.249z"/><path fill="#56ffac" fill-opacity=".439" d="M720.01 400.208L213.53 293.604l52.136 440.268 614.748 141.974z"/><path fill="#201819" fill-opacity=".867" d="M654.385-62l-52.488 372.245 221.72-34.21L881.98-62z"/><path fill="#e7d5dd" fill-opacity=".42" d="M137.05 1086L-62 619.025l441.853 286.097 283.097 114.32z"/><path fill="#f89467" fill-opacity=".529" d="M595.167 309.087l-160.458 29.315L417.443 42.77 659.039-62z"/><path fill="#beaba4" fill-opacity=".906" d="M898 845.387l-318.18 27.445 48.27-168.686L898 652.296z"/><path fill="#00ac4e" fill-opacity=".447" d="M286.12 1030.757L171.617 338.556l427.214 455.96-43.39 148.204z"/><path fill="#281b00" fill-opacity=".471" d="M898 593.485l-197.537-66.687-77.896 90.457L690.3 734.16z"/><path fill="#3d413b" d="M-62 311.97L3.976 705.789l86.627-92.34 138.565-342.85z"/><path fill="#f4b8b4" fill-opacity=".541" d="M208.768 802.882L26.343 898.315-39.84 834.09l169.775-272.786z"/><path fill="#343e30" fill-opacity=".961" d="M52.325 1015.777L-62 894.597l114.443-2.571 136.178-49.202z"/><path fill="#c3dd1c" fill-opacity=".608" d="M733.436 312.151L898 247.858l-60.8 284.606-68.183 12.024z"/><path fill="#251e1a" fill-opacity=".753" d="M859.227 864.245l-151.286.712-50.602 102.055 192.376-9.212z"/><path fill="#63f9ad" fill-opacity=".592" d="M249.993 326.684l181.974-47.193-16.592 291.81L150.38 421.804z"/><path fill="#e7f4fc" fill-opacity=".643" d="M316.857 1086l276.07-116.078L27.727 1086 147.03 898.52z"/><path fill="#bf9769" fill-opacity=".976" d="M618.35 1031.685L531.916 1086l224.517-489.277L739.245 803z"/><path fill="#7e7451" fill-opacity=".976" d="M321.851 1086l-10.097-253.993-75.11 69.09L29.554 636.43z"/><path fill="#f3ffe4" fill-opacity=".255" d="M717.593 218.325l24.365-111.43L575.839-.487l92.671 193.442z"/><path fill="#0d0608" fill-opacity=".494" d="M621.536 334.606l.178-172.631 84.811 53.727 61.313 251.34z"/><path fill="#dfab7b" fill-opacity=".886" d="M347.313 889.545l-117.5-81.11L71.691 635.413l154.95 264.941z"/><path fill="#0d1e05" fill-opacity=".533" d="M139.399 706.41l109.85-212.337L276.3 515.9l-46.745 153.052z"/><path fill="#121e14" fill-opacity=".976" d="M399.876 145.567L-62 282.62l474 2.775 24.88-9.277z"/><path fill="#8effd3" fill-opacity=".188" d="M372.141 124.719L28.916 74.099l79.204 318.377 42.138-248.116z"/><path fill="#d9e5f9" fill-opacity=".788" d="M575.71 1086l-55.705-140.357-90.397 49.114L47.93 1086z"/><path fill="#0a0002" fill-opacity=".616" d="M392.49 96.415L536.686-62h-393.6L120.762 73.715z"/><path fill="#bbbfd2" fill-opacity=".937" d="M164.687 832.087L12.328 685.22-62 907.386l170.246-55.23z"/><path fill="#aacdaf" fill-opacity=".627" d="M280.813 640.033L764.63 762.728l-395.302-68.725-73.443-23.703z"/><path fill="#1d3600" fill-opacity=".369" d="M535.828 435.517l-99.53-37.328 27.484-96.64 84.777-26.925z"/><path fill="#32e68a" fill-opacity=".439" d="M751.778 576.353l-444.377-23.585 312.485-227.647 150.688 141.972z"/><path fill="#cadadd" fill-opacity=".733" d="M130.962 518.726l46.903-47.834 27.009-103.503-17.671 19.93z"/><path fill="#c1c7eb" fill-opacity=".58" d="M739.104 837.762l13.578-175.798L898 699.27l-15.235 171.54z"/><path fill="#191511" fill-opacity=".961" d="M578.003-10.665l291.26-6.974-87.394 296.96-67.347-202.907z"/><path fill="#332700" fill-opacity=".408" d="M453.868 91.036l285.333 47.537-96.012-3.576L529.397 34.513z"/><path fill="#0a060e" fill-opacity=".341" d="M-11.957 562.515l74.42 241.117-55.457 24.09L98.948 588.52z"/><path fill="#00b559" fill-opacity=".502" d="M313.108 397.303l-87.147-23.797-92.532 177.357 77.614 59.226z"/><path fill="#fff5f7" fill-opacity=".561" d="M367.188 380.166l-108.33 9.94 52.54-32.624 92.962-4.244z"/><path fill="#e79451" fill-opacity=".541" d="M82.432 729.149l110.936-98.188-73.313-98.81L81.32 650.955z"/><path fill="#8fb400" fill-opacity=".478" d="M875.914 1023.296l-42.169-56.277-198.443 8.342 6.72 110.639z"/><path fill="#8b9d7e" fill-opacity=".796" d="M789.447 829.705l-65.79-324.998-12.983 161.502 108.013 86.96z"/><path fill="#c9d6d9" fill-opacity=".671" d="M673.532 695.442l-44.96 119.943-19.844-162.126-204.737-43.554z"/><path fill="#005e34" fill-opacity=".302" d="M301.982 1009.118L94.26 892.967l28.195-59.532L355.493 977.73z"/><path fill="#0aa04d" fill-opacity=".518" d="M602.246 845.5L342.443 698.576l-18.165 250.076 252.546 1.813z"/><path fill="#1d8640" fill-opacity=".992" d="M462.642 652.071l134.82 20.038-107.202 14.166-158.457-43.02z"/><path fill="#004405" fill-opacity=".408" d="M740.397 732.51l-111.25-70.338 86.514-202.213-15.35 199.816z"/><path fill="#ffc89c" fill-opacity=".42" d="M464.671 164.343l152.761 3.835 1.063-56.63-201 2.223z"/><path fill="#1c061f" fill-opacity=".478" d="M755.627 553.054L898 560.294l-65.464 113.959-70.497-23.651z"/><path fill="#85cf96" fill-opacity=".165" d="M188.944 95.926l140.476-1.732-22.72 153.408L325.465 405.6z"/><path fill="#455d48" fill-opacity=".824" d="M588.862 346.282l194.176-53.438-184.953-16.387-77.633 168.621z"/><path fill="#e2e7ff" fill-opacity=".647" d="M101.943 740.463L28.206 694.55l10.072 30.39 64.602 135.83z"/><path fill="#ecba98" fill-opacity=".529" d="M618.747 200.698l-208.25 14.676 154.239 25.354-20.023 163.232z"/><path fill="#1cb766" fill-opacity=".714" d="M333.063 860.578l-72.402-220.77-66.093 85.44 35.747 85.72z"/><path fill="#00b456" fill-opacity=".361" d="M643.222 657.562l25.875-176.514 130.806 82.64-423.702 37.884z"/><path fill="#706a64" fill-opacity=".345" d="M674.43-10.786l68.168.973-2.104 218.192-94.752-21.165z"/><path fill="#000102" fill-opacity=".706" d="M766.525 278.403l5.445 8.303 58.538-138.287L592.71 270.304z"/><path fill="#d2f546" fill-opacity=".655" d="M746.124 335.924l18.414 45.376L898 311.217l-104.885-19.655z"/><path fill="#2cffa6" fill-opacity=".29" d="M596.853 789.12l15.858 43.268-184.86 151.115-67.923-13.578z"/><path fill="#46e48e" fill-opacity=".706" d="M216.918 947.251l-38.765-79.767-28.695-21.052 5.289 46.006z"/><path fill="#003302" fill-opacity=".431" d="M376.566 893.148l79.13-7.156L344 842.001l181.064-19.013z"/><path fill="#5cd693" fill-opacity=".737" d="M739.537 437.459L429.954 576.74l231.342 14.73-79.704-287.17z"/><path fill="#565d52" fill-opacity=".788" d="M341.947 290.797l-113.365 51.35L-62 347.707l130.578-46.932z"/><path fill="#c2bed2" fill-opacity=".592" d="M193.405 740.124l-16.536-36.982 5.524-17.222 29.487 11.893z"/><path fill="#000a03" fill-opacity=".518" d="M-62 148.673l33.23 174.123L249.402 150.2 204.64 309.212z"/><path fill="#363935" fill-opacity=".945" d="M85.773 588.043L64.785 718.645l-11.178-310.61 152.375-59.32z"/><path fill="#50352a" fill-opacity=".867" d="M120.916 50.982l-78.762 3.79L-62-54.493l233.705.805z"/><path fill="#0a0d0a" fill-opacity=".91" d="M419.129 116.569l-13.337 170.157-70.186 3.15L397.73-62z"/><path fill="#1a1000" fill-opacity=".263" d="M212.136 453.237l71.788 88.797-176.557 102.233 121.454 36.817z"/><path fill="#c9cae2" fill-opacity=".671" d="M326.381 991.19l7.92-7.377 136.899 37.801-156.986 19.859z"/><path fill="#0eb25b" fill-opacity=".549" d="M424.032 390.391l6.931-93.557 7.39 45.973 243.805 178.452z"/><path fill="#1d8a48" fill-opacity=".808" d="M608.04 924.927l-37.528 56.277-42.24-4.099-34.153-109.569z"/><path fill="#b8613a" fill-opacity=".498" d="M231.503 930.423l-2.995-40.996 128.465.667-65.84 65.7z"/><path fill="#dfa778" fill-opacity=".506" d="M693.248 666.699l81.658 20.062L600.961 1086l168.78-495.038z"/><path fill="#18f685" fill-opacity=".329" d="M686.985 653.135l52.394-27.406 29.569-63-74.362 29.857z"/><path fill="#8e5535" fill-opacity=".569" d="M496.545 374.273l-51.902-32.227 113.689-76.043-10.74 109.63z"/><path fill="#c4cfbf" fill-opacity=".62" d="M404.708 513.71l-76.902-17.378 19.346-5.603 13.737-43.257z"/><path fill="#62c991" fill-opacity=".933" d="M591.855 918.114l-8.976-157.718-140.356-10.192 177.942-25.965z"/><path fill="#1a1c12" fill-opacity=".588" d="M651.635 362.6l-31.325-25.203 96.88.008 43.74 111.607z"/><path fill="#68a822" fill-opacity=".478" d="M23.903 1067.293l85.766-84.276-92.68-12.151L-62 1086z"/><path fill="#fbc49c" fill-opacity=".443" d="M225.69 822.464l68.326 17.837 43.612 39.282-4.859 52.414z"/><path fill="#2b2a27" fill-opacity=".616" d="M898 962.73L717.886 839.558l-54.325 99.734 231.986 8.062z"/><path fill="#2c2f29" fill-opacity=".941" d="M94.19 974.818l54.223-99.993-202.309 46.167L-62 986.418z"/><path fill="#22b76a" fill-opacity=".89" d="M308.094 572.715l-96.712-111.368 369.324 191.418 36.495-4.808z"/><path fill="#464656" fill-opacity=".651" d="M798.422 799.767l-.007-70.987-17.925 10.057 5.943 58.072z"/><path fill="#d8ddf9" fill-opacity=".616" d="M898 799.714L760.716 681.55l-21.247 158.827 63.592-172.919z"/><path fill="#bde9c9" fill-opacity=".663" d="M381.69 609.472l-91.005 2.674 54.249-.151 182.028 21.432z"/><path fill="#bbe4cd" fill-opacity=".38" d="M533.874 560.924l1.348 38.04-88.152-12.804-15.816-41.278z"/><path fill="#052800" fill-opacity=".357" d="M572.499 391.78l-74.587-28.454-104.147-169.374 165.13 208.03z"/><path fill="#006821" fill-opacity=".549" d="M240.29 742.173l73.824 61.879 108.646 48.08-175.014-47.09z"/><path fill="#7bffb2" fill-opacity=".49" d="M438.402 282.373l-14.657 34.744-228.26 35.193 165.674-59.794z"/><path fill="#ac9ebd" fill-opacity=".259" d="M76.926 217.395L87.02 103.067l33.06 11.194 2.654 104.259z"/><path fill="#c52f00" fill-opacity=".196" d="M643.617 803.995l21.441-100.125-49.738-44.059 167.96-11.214z"/><path fill="#c58d4b" fill-opacity=".561" d="M172.042 826.276l-79.642-81.3 10.088-61.235 148.134 264.176z"/><path fill="#d5b77b" fill-opacity=".831" d="M631.725 76.643L520.54 4.353 475.003-62l181.04 127.203z"/><path fill="#0d1806" fill-opacity=".353" d="M29.636 752.038l1.7 88.266 14.543-18.058 4.033-39.754z"/><path fill="#d09776" fill-opacity=".635" d="M427.845 237.822l-20.073-65.4 61.582 6.749 60.654 61.413z"/><path fill="#36d281" fill-opacity=".616" d="M412.581 353.202l-24.659 103.333-3.877 34.775 260.75 125.217z"/><path fill="#9de5b3" fill-opacity=".427" d="M730.222 483.861l2.345 119.485L756.7 468.55l-48.28-64.767z"/><path fill="#bec6fc" fill-opacity=".325" d="M671.12 667.94l-47.311 8.804 10.721 169.618-61.506 31.679z"/><path fill="#51e49a" fill-opacity=".576" d="M293.715 784.116l-66.9-117.127 13.832 80.621-41.213-45.162z"/><path fill="#eceeff" fill-opacity=".318" d="M703.346 767.106l88.159 108.47 43.102-186.95L898 876.13z"/><path fill="#ddb282" fill-opacity=".537" d="M92.738 605.889l41.808-97.661-3.732 235.304-50.736-95.46z"/><path fill="#6b3519" fill-opacity=".38" d="M481.795 188.232l24.773 16.03 105.648-37.16-120.71-1.427z"/><path fill="#c4ffed" fill-opacity=".302" d="M389.934 715.846l-74.432-66.755 4.24-16.626-74.558 6.706z"/><path fill="#133924" fill-opacity=".259" d="M623.214 732.308l4.104 66.785-193.999 11.708 145.648 13.002z"/><path fill="#010001" fill-opacity=".384" d="M558.168 369.517l110.305-157.634-50.67-72.619 42.537-25.412z"/><path fill="#000511" fill-opacity=".184" d="M439.312 999.987l150.623-130.553-177.987 114.972L134 953.18z"/><path fill="#abcbb2" fill-opacity=".537" d="M640.49 520.01l-23.157-33.748-34.964 45.884 49.35 35.704z"/><path fill="#7e6029" fill-opacity=".659" d="M135.027 626.893l84.06-24.588-77.257 86.987 64.277 85.365z"/><path fill="#e5eefc" fill-opacity=".588" d="M487.757 973.335l72.474 15.554L534.366 1086H232.61z"/><path fill="#043713" fill-opacity=".698" d="M708.708 563.511l-78.698 46.417 26.024 68.21-.609-18.08z"/><path fill="#116b28" fill-opacity=".475" d="M313.733 704.65l96.386 67.531 139.531-12.05-137.617-8.59z"/><path fill="#e3e9ff" fill-opacity=".384" d="M58.117 694.31l43.83 192.13L-62 858.105l197.633-49.061z"/><path fill="#7b9833" fill-opacity=".459" d="M772.09 559.603l67.4-13.692L898 580.835 723.847 310.93z"/><path fill="#a4b4c2" fill-opacity=".8" d="M248.687 971.31l34.109 31.802-207.407 6.05 224.08 25.942z"/><path fill="#f8fef9" fill-opacity=".612" d="M84.132 1006.73l100.378-38.555-36.245-63.12 70.117 96.567z"/><path fill="#004407" fill-opacity=".275" d="M257.397 599.32l130.618 36.82-28.718-17.336.278 47.749z"/><path fill="#4e4d35" fill-opacity=".847" d="M783.256 291.761l-50.877-2.904L898 268.843l-17.73-160.959z"/><path fill="#620308" fill-opacity=".231" d="M583.02 1051.78l41.035-196.663-11.36 23.191L520.019 1086z"/><path fill="#05e377" fill-opacity=".235" d="M294.52 632.367L88.97 509.243l140.242-2.676 22.274 250.419z"/><path fill="#005640" fill-opacity=".31" d="M152.943 813.05l77.241 169.84 95.38-38.471-11.993 107.357z"/><path fill="#005510" fill-opacity=".459" d="M318.144 915.61l37.72 4.387 92.421 22.377-94.065-45.466z"/></svg>