<svg xmlns="http://www.w3.org/2000/svg" width="228" height="278" viewBox="0 0 836 1024"><path fill="#63302f" d="M0 0h836v1024H0z"/><path fill="#f6daed" fill-opacity=".686" d="M-10.306 417.132l-14.885-89.114 394.033-45.666 29.589 10.474z"/><path fill="#cfcff5" fill-opacity=".659" d="M555.489 1029.58l-338.54 47.113-62.919-110.33 170.891-33.31z"/><path fill="#0f1a23" fill-opacity=".718" d="M898 59.523L884.459 468.7 387.544 103.78 753.266-25.143z"/><path fill="#dbd2b2" fill-opacity=".592" d="M404.566-9.601l138.688 45.713-193.195 24.735 8.735 343.17z"/><path fill="#bdc580" fill-opacity=".565" d="M348.334 539.09l173.998.862 1.664 96.924-192.313 10.081z"/><path fill="#780200" fill-opacity=".918" d="M171.842 886.674l24.618-297.918 412.439 147.366-83.445 259.668z"/><path fill="#800401" fill-opacity=".741" d="M236.386 330.551l514.748 37.262L200.77 611.742 44.76 420.937z"/><path fill="#43607c" fill-opacity=".62" d="M813.866 333.077L898 969.237l-289.83 95.718 220.444-401.233z"/><path fill="#00254e" fill-opacity=".42" d="M347 227.998L362.83-1.836-62-15.182l48.083 385.648z"/><path fill="#f38184" fill-opacity=".553" d="M814.464 422.43L507.129 310.531l31.883-39.988 101.405 28.17z"/><path fill="#7a0000" fill-opacity=".671" d="M558.383 291.84l-64.226 539.993 229.637-333.946-40.422-152.355z"/><path fill="#964d30" fill-opacity=".992" d="M151.364 859.028L83.306 607.763 42.472 362.096l-48.65 459.427z"/><path fill="#100f1e" fill-opacity=".737" d="M66.283 1086L185.49 865.803l-5.215-70.16-239.96 204.493z"/><path fill="#c71a17" fill-opacity=".537" d="M214.505 539.523l57.576 523.248-97.93-114.4 9.66-444.78z"/><path fill="#ffff06" fill-opacity=".192" d="M810.281 388.558L684.295 376.26l32.4 268.193 120.604 95.577z"/><path fill="#a3d1ff" fill-opacity=".286" d="M117.73 481.255L-62 37.59l193.763 179.55L-62 225.293z"/><path fill="#36303b" fill-opacity=".655" d="M628.682 477.107l174.994 315.924L584.704 1086l-.564-305.462z"/><path fill="#e4d2ab" fill-opacity=".694" d="M520.716 10.064l-133.08 75.061-23.138-19.745 24.398-33.458z"/><path fill="#b7e0ff" fill-opacity=".392" d="M504.465 999.312l65.424-8.488.508 95.176L173.13 928.515z"/><path fill="#fde1e6" fill-opacity=".498" d="M339.519 291.307l83.16 80.277-97.814-48.695L-62 378.167z"/><path fill="#abc3ff" fill-opacity=".298" d="M737.704 788.967l-29.985 138.1-22.93 125.804 76.652-63.285z"/><path fill="#f8f1fe" fill-opacity=".506" d="M499.457 348.001l76.77-70.894 70.726 33.323-134.927-25.088z"/><path fill="#715923" fill-opacity=".596" d="M566.37 179.604l-191.173-75.68-9.136 215.225 82.941 84.895z"/><path fill="#8eb7bc" fill-opacity=".506" d="M-62 860.292l83.674-151.62L-.802 561.79l48.3 203.018z"/><path fill="#dde3fe" fill-opacity=".427" d="M754.884 430.505L642.46 311.78l-.998-15.044 99.536 88.448z"/><path fill="#a10d05" fill-opacity=".988" d="M600.316 680.217l-15.689-56.714-37.14 64.594 6.494 301.435z"/><path fill="#f3faff" fill-opacity=".604" d="M105.298 398.42l6.085-76.924-58.99 30.58 11.23 57.413z"/><path fill="#2d232d" fill-opacity=".894" d="M116.431-62l249.461 309.572-9.948 32.132-116.352 21.523z"/><path fill="#610000" fill-opacity=".545" d="M482.49 975.666l23.415 55.436-257.599-174.126-38.034-513.694z"/><path fill="#bf1d11" fill-opacity=".576" d="M194.523 342.216l161.925-20.818L38.55 476.838l59.523-86.72z"/><path fill="#600" fill-opacity=".878" d="M678.115 549.256L368.507 393.974 300.694 746.14l-87.742-240.91z"/><path fill="#c63235" fill-opacity=".725" d="M146.143 1015.845l84.18-65.645 95.5 135.8-140.797-231.598z"/><path fill="#e03d1d" fill-opacity=".639" d="M135.264 794.719l4.166 33.103-28.027 38.423-71-373.732z"/><path fill="#b8c3cb" fill-opacity=".302" d="M515.499 490.332l12.94-96.488 33.44 39.393 2.144 57.184z"/><path fill="#2d1c24" fill-opacity=".647" d="M-56.292 19.363L480.893-7.924 20.384 172.168l7.511-92.31z"/><path fill="#fffcc6" fill-opacity=".322" d="M562.522 60.546l2.371 20.668-165.92-67.929 95.683-3.04z"/><path fill="#1e161f" fill-opacity=".882" d="M729.673 333.206l-138.356-59.523-99.414 19.194L700.556 67.01z"/><path fill="#a9a7aa" fill-opacity=".435" d="M302.155 451.29l36.06-12.58 14.767 37.305-71.64 3.764z"/><path fill="#4e2538" fill-opacity=".784" d="M158.882 830.165l21.465-271.381-20.74-93.156-93.968 6.049z"/><path fill="#1a1304" fill-opacity=".624" d="M448.424 53.423l129.959 64.25-125.15 55.699-82.01-53.291z"/><path fill="#57a8ff" fill-opacity=".239" d="M813.653 373.22l-17.33-128.023L898 247.229 695.914 418.697z"/><path fill="#aecdfe" fill-opacity=".49" d="M240.001 958.643l101.733-20.467 243.864 123.006L402.888 1086z"/><path fill="#80472f" d="M363.234 581.544l27.254 110.425L534.13 668.77l-177.682-41.108z"/><path fill="#a38577" fill-opacity=".737" d="M402.056 134.152L374.931 310.63l-30.778-120.883 2.673-35.498z"/><path fill="#ffe8e9" fill-opacity=".624" d="M141.342 303.442l52.14.789-18.224 28.799L-62 407.252z"/><path fill="#1d1115" fill-opacity=".4" d="M830.276 859.905L741.295 661.17l33.53 156.123L752.832 1086z"/><path fill="#df0800" fill-opacity=".29" d="M721.582 530.97l36.698-113.514-142.003-114.574-53.302-15.971z"/><path fill="#97555b" d="M222.879 1001.36l-23.435-24.381 119.712 34.951 4.815 40.25z"/><path fill="#874c14" fill-opacity=".576" d="M-52.647 474.462L81.05 785.758 55.68 399.239l-6.804-32.786z"/><path fill="#779cff" fill-opacity=".322" d="M796.463 924.868l-.512 42.906L881.886 1086 898 875.998z"/><path fill="#5e0000" fill-opacity=".608" d="M535.79 304.796l44.11 200.025-135.182 252.26L697.62 478.666z"/><path fill="#05070d" fill-opacity=".529" d="M98.537 1002.647l59.967-118.105L-62 795.67l86.087 37.772z"/><path fill="#988d68" d="M337.391 607.181l166.04-79.558 30.257 28.151-11.27 38.758z"/><path fill="#990d07" fill-opacity=".694" d="M578.218 977.434l-28.997 9.126-98.467 15.344 131.88-104.334z"/><path fill="#0083bc" fill-opacity=".11" d="M20.563 1086L-62 673.369l234.26-63.445L51.443 797.796z"/><path fill="#5d7198" fill-opacity=".467" d="M-62 196.112l167.502-39.049L184.57 181.8l-243.23 52.618z"/><path fill="#2d1d26" fill-opacity=".835" d="M593.968 726.86l25.065-152.805 73.908 236.737-39.775 10.622z"/><path fill="#f2211f" fill-opacity=".514" d="M174.932 518.079l3.132-67.81 20.518 218.14-7.97 140.933z"/><path fill="#3d0000" fill-opacity=".443" d="M177.086 444.084l248.209-13.514-38.637-118.419 94.326 34.437z"/><path fill="#e8e3eb" fill-opacity=".749" d="M331.774 289.579L172.57 353.442l192.705-80.86-5.755 61.92z"/><path fill="#600" fill-opacity=".776" d="M433.967 685.484L210.253 948.986l64.81-12.907 265.469 7.209z"/><path fill="#ffe3ef" fill-opacity=".373" d="M542.426 318.542l-44.842-24.07 87.4-17.205-19.135 28.812z"/><path fill="#0a1c2d" fill-opacity=".482" d="M590.471 291.88l294.022-190.015-137.235 288.37-162.95-156.694z"/><path fill="#ffdfd9" fill-opacity=".482" d="M744.39 413.003l-18.193-18.927 77.836 3.66-77.204-22.15z"/><path fill="#620403" fill-opacity=".761" d="M323.34 488.632l190.985 73.074-15.862 21.157-64.782-130.3z"/><path fill="#5a0101" fill-opacity=".698" d="M613.743 353.483l63.796 221.446-147.627-263.096-129.147 164.769z"/><path fill="#35232c" fill-opacity=".867" d="M686.173 18.673l96.852 111.241L626.535 86.1 462.67-6.4z"/><path fill="#729075" fill-opacity=".176" d="M618.936 582.19L898 481.243 687.733 644.635l152.591 418.233z"/><path fill="#576b9f" fill-opacity=".882" d="M21.27 92.651L-62 463.933l89.317-124.621-60.64-307.74z"/><path fill="#795f07" fill-opacity=".537" d="M886.155 654.311l-150.788 43.788 60.264-300.955-105.628 21.624z"/><path fill="#c80601" fill-opacity=".467" d="M644.468 314.247l-74.277-17.648-48.45 58.855 154.46 3.529z"/><path fill="#d3f9a9" fill-opacity=".302" d="M368.844 656.81l-36.63-42.869 31.007-80.967-39.169 27.093z"/><path fill="#4f344b" fill-opacity=".671" d="M84.422 277.931l157.655 33.523-14.279 8.604 93.071-69.408z"/><path fill="#880a02" fill-opacity=".835" d="M31.034 428.764l313.063-80.335-240.431 132.522-47.44-86.555z"/><path fill="#fedcc1" fill-opacity=".467" d="M25.874 747.77L9.989 783.856l-19.273 40.779 52.67-71.274z"/><path fill="#c3fffa" fill-opacity=".396" d="M203.082 968.638L241.189 1086l-83.529-47.305 35.705-56.73z"/><path fill="#979287" fill-opacity=".89" d="M293.52 1086l293.158-105.82-22.516 16.19 12.077 34.567z"/><path fill="#daffff" fill-opacity=".161" d="M365.641-13.33l7.234 84.71L502.11-4.697 275.342 67.037z"/><path fill="#c74039" fill-opacity=".569" d="M99.732 381.08l27.385.503 18.032 88.77-30.179-137.345z"/><path fill="#772e18" fill-opacity=".737" d="M415.378 615.4l13.737-22.615 34.098 55.08 100.95 8.476z"/><path fill="#f64119" fill-opacity=".463" d="M122.705 860.708l-44.029-8.483 23.84-159.782 34.691 92.706z"/><path fill="#131828" fill-opacity=".745" d="M163.352 177.796l-1.487 88.457L282.712 165.17l71.777 119.876z"/><path fill="#7d4c1f" fill-opacity=".702" d="M522.927 140.646l11.732 28.091-44.727 186.118L374.854 255.7z"/><path fill="#275778" fill-opacity=".424" d="M898 717.306l-78.451-485.175L898 272.917l-103.613 227.78z"/><path fill="#bd080e" fill-opacity=".447" d="M342.17 313.659l-211.62 58.104 154.067 15.075 83.102 16.575z"/><path fill="#69502f" fill-opacity=".655" d="M580.034 96.17l-49.63-46.974-107.189-8.554 22.305 20.296z"/><path fill="#341118" fill-opacity=".792" d="M185.782 743.7l-8.286 123.331-118.448-15.01L40.59 983.546z"/><path fill="#5c0100" fill-opacity=".667" d="M419.673 482.26l-11.98 72.96L208.69 454.513l299.643 70.777z"/><path fill="#23212c" fill-opacity=".816" d="M858.081 1044.725l-161.31 8.859 39.114 15.887 43.033-95.014z"/><path fill="#5a75c4" fill-opacity=".529" d="M-4.524 303.455L-62 391.808l151.744-57.11 15.735-17.518z"/><path fill="#cbffca" fill-opacity=".282" d="M478.91 622.63l-97.896-51.39 70.736-53.538-38.599 51.438z"/><path fill="#7a91c7" fill-opacity=".631" d="M744.601 941.01l-.356 58.223-41.618 7.063 25.31-101.117z"/><path fill="#501324" fill-opacity=".682" d="M155.429 501.981l35.13 95.347-104.364 38.938-19.117-95.491z"/><path fill="#64040e" fill-opacity=".392" d="M417.995 585.995l-.875-1.947 10.882-32.113 30.707 7.726z"/><path fill="#680503" fill-opacity=".851" d="M274.566 770.975L408.56 647.141l-10.108-26.261-111.264 180.165z"/><path fill="#a18c61" fill-opacity=".592" d="M47.874 422.02L-62 466.119v-38.764L15.642 393.9z"/><path fill="#635863" fill-opacity=".984" d="M898 789.635v-209.64L783.317 719.818l25.522 48.36z"/><path fill="#8f0708" fill-opacity=".722" d="M194.37 891.025l47.414 73.231 28.714-125.584-20.78-65.652z"/><path fill="#5b444e" fill-opacity=".639" d="M608.474 759.94l-13.89-11.573-29.1 112.421 24.839 104.157z"/><path fill="#b7b3fc" fill-opacity=".161" d="M209.613 850.314L100.295 990.366l158.253-23.938-112.13 6.874z"/><path fill="#a7b48b" fill-opacity=".678" d="M382.543 604.99l76.12-.657-24.085-72.649 49.88 35.673z"/><path fill="#e2644f" fill-opacity=".435" d="M61.682 450.452l5.837 54.172 3.897 121.101L44.43 492.857z"/><path fill="#6e0c2a" fill-opacity=".373" d="M272.627 146.092l74.928 52.645L363.05 25.523l-.621 27.109z"/><path fill="#241e20" fill-opacity=".467" d="M630.766 780.005l40.172 232.383 33.843-68.192-106.604-68.837z"/><path fill="#0b2658" fill-opacity=".329" d="M27.756 712.728L-62 860.318V673.283l76.802-41.344z"/><path fill="#80502f" d="M511.291 695.729l-5.47-93.256 39.54 4.585-59.778-6.124z"/><path fill="#190110" fill-opacity=".416" d="M102.692 138.768l8.987-150.216-87.752 32.436 27.76 143.137z"/><path fill="#2b0006" fill-opacity=".506" d="M771.92-62l-1.087 170.157 84.736 29.697L898-21.023z"/><path fill="#3f211e" fill-opacity=".714" d="M516.994 244.86l-66.878 131.996 158.208-219.52 55.871 72.077z"/><path fill="#7c6049" fill-opacity=".659" d="M398.355 289.11l77.997-47.133-30.575-36.051-78.084 20.051z"/><path fill="#b1cf65" fill-opacity=".357" d="M530.665 609.669l-42.35 36.624 51.031-92.982-25.36 3.31z"/><path fill="#4a3c22" fill-opacity=".525" d="M375.167 82.067l-9.082 95.8 41.75-92.197 119.692 26.567z"/><path fill="#b23837" fill-opacity=".545" d="M96.693 378.703l89.573-48.39-83.585 31.273 107.882 69.675z"/><path fill="#674654" fill-opacity=".486" d="M781.06 818.013l-136.808 14.822 49.616 81.76 85.638-32.018z"/><path fill="#4b474f" fill-opacity=".525" d="M101.276 245.976l187.1-132.76L-62 255.103l128.054-26.794z"/><path fill="#630727" fill-opacity=".31" d="M223.145 276.352L63.348 270.93l32.568 67.83 10.046-17.61z"/><path fill="#770d06" fill-opacity=".902" d="M358.294 658.212l-18.69-6.377 254.924-23.79-171.081 29.56z"/><path fill="#0b2855" fill-opacity=".451" d="M549.827 291.251l-23.532-28.456L627.533 98.434l-67.552 6.013z"/><path fill="#bde8ff" fill-opacity=".435" d="M329.499 278.928l50.463 61.952 26.956 13.123-48.507-5.72z"/><path fill="#081931" fill-opacity=".549" d="M800.812 405.194l-30.39 72.995L898 171.504l-47.7 314.711z"/></svg>