<svg xmlns="http://www.w3.org/2000/svg" width="228" height="278" viewBox="0 0 836 1024"><path fill="#71766d" d="M0 0h836v1024H0z"/><path fill="#f4e82f" fill-opacity=".925" d="M552.448 538.87L153.16 568.265l57.07 148.718 441.587-6.646z"/><path fill="#dde5ee" fill-opacity=".718" d="M-18.07 62.613l-35.408 368.224 317.44-22.332L196.076 33.55z"/><path fill="#9cb5c5" fill-opacity=".894" d="M853.296-47.335L498.689-21.186l-7.756 361.841 325.26 112.512z"/><path fill="#000a2d" fill-opacity=".525" d="M-62 1086l181.965-622.804 142.391 349.889L898 843.699z"/><path fill="#000212" fill-opacity=".412" d="M637.441 1057.428L898 1086l-50.08-447.967-337.226-288.244z"/><path fill="#000007" fill-opacity=".553" d="M408.368-22.512l196.157 289.66-126.13 3.782L170.948 38.073z"/><path fill="#3d7db0" fill-opacity=".996" d="M793.83 267.749l-330.937-51.392 30.59-56.638L898 144.469z"/><path fill="#fddfc1" fill-opacity=".737" d="M860.633 263.796l-84.96 171.825-92.778-21.285-251.26-132.692z"/><path fill="#4d8abb" fill-opacity=".969" d="M228.589 262.545l-260.667-9.54 14.022-66.62 242.427-8.718z"/><path fill="#c8c3d8" fill-opacity=".745" d="M251.993 716.453l8.116 90.064 196.198 10.38-51.146-80.756z"/><path fill="#2e3256" d="M434.346 719.177L459.786 1086l-237.067-46.018 473.04-309.96z"/><path fill="#f57838" fill-opacity=".408" d="M241.139 86.431L201.04 291.683l231.781 103.596-5.416-188.413z"/><path fill="#4a3e3a" fill-opacity=".988" d="M286.656 478.496l126.231-235.363L898 210.544l-621.2 97.6z"/><path fill="#121980" fill-opacity=".361" d="M612.954 337.007L-7.336 535.543l588.886 27.43L898 825.693z"/><path fill="#5a7133" fill-opacity=".988" d="M-62 434.967v516.57l227.598-493.086 21.127-19.636z"/><path fill="#fcf9f3" fill-opacity=".906" d="M169.115 168.764l-7.663-105.277-177.009-8.627-6.173 130.438z"/><path fill="#f4df0b" fill-opacity=".859" d="M642.644 668.261l-28.396 53.715-199.68-81.995 136.002-72.957z"/><path fill="#bbe8f9" fill-opacity=".71" d="M610.752 91.896L898 127.18V-39.065l-344.59-22.71z"/><path fill="#001" fill-opacity=".388" d="M485.284 209.845l8.211-133.027L677.995-62 182.919 81.892z"/><path fill="#536631" fill-opacity=".996" d="M4.769 1034.78L212.143 1086l21.879-402.798-50.293 150.188z"/><path fill="#080c27" fill-opacity=".627" d="M-23.94 1084.99l188.905-526.397 20.578 156.03 73.807-16.804z"/><path fill="#fefa52" fill-opacity=".894" d="M518.042 566.157L322.28 711.42 167.128 552.368l163.235-1.604z"/><path fill="#6e5a44" fill-opacity=".757" d="M898 216.093l-64.095 44.688-267.165 15.354 75.806-54.993z"/><path fill="#cb8066" fill-opacity=".871" d="M424.948 1076.694l148.226-34.416 60.61-43.197-48.696-97.885z"/><path fill="#fef2e2" fill-opacity=".843" d="M146.598 281.906L-62 291.813l18.828 97.688 143.235 36.34z"/><path fill="#ffbd95" fill-opacity=".349" d="M416.642 539.185l115.237-69.801-174.9-66.66 63.977-251.519z"/><path fill="#2694e9" fill-opacity=".753" d="M273.01 5.167L-33.87-62l17.948 91.202 188.29-9.71z"/><path fill="#b89278" fill-opacity=".847" d="M341.422 281.894l-38.337-157.996-84.163 106.943L-62 277.443z"/><path fill="#a9a4b3" fill-opacity=".996" d="M812.644 544.079l-58.636 40.976-22.939-73.45 21.991-24.862z"/><path fill="#41571c" fill-opacity=".996" d="M559.765 1041.13L849.701 1086 898 763.575 653.9 997.912z"/><path fill="#2765aa" fill-opacity=".839" d="M570.225 65.03L597.052-62H437.476L374.73-.963z"/><path fill="#353a64" fill-opacity=".914" d="M898 621.46l-84.473 198.25-193.7 165.1-17.074-94.866z"/><path fill="#a4dbff" fill-opacity=".373" d="M451.365 295.668l53.642-210.335-29.605-33.159 128.673-1.627z"/><path fill="#dde0e5" fill-opacity=".486" d="M71.035 942.615l145.325-41.19 5.994 19.132-130.288 25.742z"/><path fill="#3a4176" fill-opacity=".686" d="M468.677 563.314l274.218-67.97-150.872-96.53-10.902-106.524z"/><path fill="#00010b" fill-opacity=".384" d="M605.207 641.049l154.354 70.66-61.114-191.994-144.693-1.3z"/><path fill="#43446d" fill-opacity=".549" d="M220.055 483.516L-62 975.324l244.368-547.923 14.75-175.992z"/><path fill="#abdf0f" fill-opacity=".267" d="M658.409 704.057l58.588-47.59 20.568 111.688-110.083 115.558z"/><path fill="#302037" fill-opacity=".82" d="M379.37 1086l181.887-138.48-14.419 9.082-102.804 19.501z"/><path fill="#404776" fill-opacity=".62" d="M352.33 358.164L164.988 531.726l-29.875-229.84-7.515 142.828z"/><path fill="#6e7a10" fill-opacity=".51" d="M805.474 423.305l-123.845 7.262L898 601.497v-84.52z"/><path fill="#2f8edb" fill-opacity=".914" d="M898 135.181l-406.65 43.181-25.157 46.693L898 209.67z"/><path fill="#1b0400" fill-opacity=".455" d="M356.445 257.718l99.54 64.555 10.627-141.431-209.657 285.123z"/><path fill="#f7e71d" fill-opacity=".796" d="M335.157 635.567l-173.702-79.454 30.46 114.838 17.994 40.125z"/><path fill="#9b8c79" fill-opacity=".996" d="M622.21 321.68l22.973 103.449-6.095-174.825-35.835-32.754z"/><path fill="#ffefd5" fill-opacity=".4" d="M288.998 376.576l-65.867-34.51-94.714-86.476 27.057 193.417z"/><path fill="#fff1cc" fill-opacity=".51" d="M576.862 310.154l-78.537 55.16-30.73-58.399 3.932-59.781z"/><path fill="#f5997d" fill-opacity=".561" d="M577.791 948.583l-135.868 27.255-25.503-6.33 172.888-55.252z"/><path fill="#fffcff" fill-opacity=".537" d="M447.406 850.121l-71.983-127.309 2.396 4.034 34.957.257z"/><path fill="#92857b" fill-opacity=".839" d="M-62 244.53l292.684-6.97L37.18 290.466-62 271.598z"/><path fill="#2d3465" fill-opacity=".757" d="M655.121 795.399l-260.635 32.483-160.567-25.843L214.563 1086z"/><path fill="#f8e7d1" fill-opacity=".957" d="M820.118 404.495L800.733 276.99l-112.548-4.37 4.821 137.718z"/><path fill="#d8884d" fill-opacity=".592" d="M327.096 409.517l72.45-139.658 70.963 78.48-95.628 78.749z"/><path fill="#1c1e1b" fill-opacity=".675" d="M694.925 251.153l148.252-4.678-22.49-21.042-121.768-2.577z"/><path fill="#ffb57f" fill-opacity=".455" d="M184.48 153.176l58.478-40.705 98.782 75.544 20.86 41.866z"/><path fill="#152388" fill-opacity=".357" d="M853.18 760.668l-43.991-498.683L898 498.294 739.25 600.459z"/><path fill="#fbe912" fill-opacity=".576" d="M567.303 545.197L313.48 713.281l142.07 7.771 149.639-17.988z"/><path fill="#1c92f0" fill-opacity=".486" d="M250.993 192.724l-37.117 44.712-247.196-.594 9.899-59.195z"/><path fill="#baac91" fill-opacity=".737" d="M113.17 36.998l47.209 26.237 6.355 103.863 52.805-122.013z"/><path fill="#2e3358" fill-opacity=".741" d="M461.72 1011.31l-164.324-77.262L395.58 690.79l-36.108 122.822z"/><path fill="#160f0f" fill-opacity=".58" d="M245.436 358.728l113.677 24.065-73.789 50.037 71.932-126.474z"/><path fill="#ebf6f6" fill-opacity=".408" d="M640.707 798.25l6.173 11.902 105.284-42.026-113.019 27.609z"/><path fill="#344189" fill-opacity=".435" d="M78.893 706.939L-62 870.973v142.756l197.554-200.007z"/><path fill="#1e213b" fill-opacity=".678" d="M898 697.615l-271.668-38.6 147.541-128.152-245.547 14.354z"/><path fill="#9b9cae" fill-opacity=".792" d="M457.724 525.919l-28.604 4.038-18.759-87.509 91.452 7.758z"/><path fill="#7d4817" fill-opacity=".294" d="M221.37 458.677l-40.527-73.97-6.373-78.17 27.614-38.679z"/><path fill="#3f354a" fill-opacity=".553" d="M364.528 714.636l-23.108 61.956-14.515-71.967-169.564 11.85z"/><path fill="#0f0300" fill-opacity=".302" d="M466.851 37.638L261.398 215.844l-60.908-33.157 300.536.689z"/><path fill="#d7ae95" fill-opacity=".671" d="M821.766 418.082l-195.041-19.048-43.012-76.013L697.24 443.627z"/><path fill="#42446f" fill-opacity=".973" d="M390.483 424.077l99.376-92.789-12.56 54.207 131.991 92.517z"/><path fill="#060e2b" fill-opacity=".486" d="M639.736 972.143l253.536-220.51-206.099 231.594L622.546 1004z"/><path fill="#34375e" fill-opacity=".694" d="M316.244 758.398l28.44 148.747 78.335-105.2L297.78 837.43z"/><path fill="#4d5581" fill-opacity=".89" d="M466.428 558.76l-94.592-98.264-123.917-61.569-97.414 108.132z"/><path fill="#fbb788" fill-opacity=".51" d="M295.496 319.727L252.68 202.094l-42.032 62.287 129.556-85.99z"/><path fill="#ffffd6" fill-opacity=".373" d="M336.16 725.776l-107.44-33.188 72.581-13.874 29.547 154.02z"/><path fill="#24201e" fill-opacity=".902" d="M277.11 44.311l-72.14 16.036 15.62 64.662L495.988-62z"/><path fill="#fff" fill-opacity=".612" d="M143.953 420.47l5.623-163.252 25.33 52.974-1.282 116.522z"/><path fill="#fdee9a" fill-opacity=".533" d="M246.374 479.485l21.121-6.085-56.079 36.038-.446-23.56z"/><path fill="#050806" fill-opacity=".463" d="M147.916 884.806l-206.012 171.22 252.904-319.138-39.564-264.37z"/><path fill="#b4dbea" fill-opacity=".91" d="M891.53 19.202l-186.678 9.251-126.864 122.8 4.165-195.569z"/><path fill="#2a2c43" fill-opacity=".588" d="M636.265 804.151l36.301-231.708-45.814 141.65-99.344-6.742z"/><path fill="#262c52" fill-opacity=".89" d="M445.388 880.839l-163.468 164.24 97.81-240.983 23.399-5.154z"/><path fill="#fc9562" fill-opacity=".408" d="M428.884 189.702l-32.108-20.236-28.634 112.133 65.428-70.704z"/><path fill="#6694bc" fill-opacity=".824" d="M800.856-7.776l12.167 189.924-12.969-60.892-3.612-62.214z"/><path fill="#7c4e31" fill-opacity=".549" d="M395.598 300.292L273.021 71.887 378.217 198.68l-127.95 149.99z"/><path fill="#4b5d9f" fill-opacity=".792" d="M147.817 434.314l-8.823-97.874-10.548-16.542-2.09 102.886z"/><path fill="#495691" fill-opacity=".643" d="M568.808 89.309L586.12 358.94l131.01 105.658-147.616-10.362z"/><path fill="#340803" fill-opacity=".639" d="M570.885 1009.458l17.388-6.696L533.76 1086l-.252-34.444z"/><path fill="#272938" fill-opacity=".894" d="M133.332 529.1l52.374 187.278 54.885-20.34 4.092 118.68z"/><path fill="#fbfa6c" fill-opacity=".624" d="M539.323 558.962L226.877 548.74l-1.333 58.719 195.15 4.871z"/><path fill="#e8e2df" fill-opacity=".89" d="M207.913 285.088l35.376-2.342 7.903 118.598-22.701-12.34z"/><path fill="#fff" fill-opacity=".38" d="M129.753 428.7l-52.975 2.01L70.397 280l41.639-22.754z"/><path fill="#fff0d2" fill-opacity=".396" d="M465.988 323.902l-6.992-67.528 30.02 50.35 238.83 79.298z"/><path fill="#583d26" fill-opacity=".898" d="M402.273 1086L563.74 984.994 456.7 1086l221.86-83.038z"/><path fill="#31355c" fill-opacity=".773" d="M485.206 950.119L669.82 751.893 415.449 718.67l15.676 63.003z"/><path fill="#fefaff" fill-opacity=".51" d="M334.1 832.554l18.067-65.62 9.91-44.22 14.502 2.099z"/><path fill="#f3eaf5" fill-opacity=".427" d="M736.503 495.337l-15.497 18.925-7.031 19.627 76.74-17.002z"/><path fill="#fffffe" fill-opacity=".475" d="M357.85 782.924l89.176 44.05-38.845-103.291-.339 67.267z"/><path fill="#ffae6a" fill-opacity=".286" d="M-62 444.097l74.062-319.871L-62 331.354l188.867 108.5z"/><path fill="#000700" fill-opacity=".169" d="M188.307 237.325l-80.771-6.941 169.98 32.376-95.737 38.833z"/><path fill="#171717" fill-opacity=".702" d="M245.864-62L479.213 52.641l20.29 49.544-34.668 138.027z"/><path fill="#0b0200" fill-opacity=".263" d="M355.066 267.666l96.01-24.739 231.117-27.873-236.186 62.754z"/><path fill="#a99986" fill-opacity=".616" d="M683.714 452.283l10.793-215.594-65.788-23.615 49.948 64.445z"/><path fill="#dbf0f0" fill-opacity=".267" d="M474.113 37.11L574.7 60.368l-91.48 70.088 57.017 40.589z"/><path fill="#476ea8" fill-opacity=".89" d="M574.515 85.09l-13.38-112.04 4.917 158.168 17.385 258.116z"/><path fill="#b6d4e4" fill-opacity=".659" d="M730.918 128.064L588.185 156.31l208.5-11.187-8.707-64.88z"/><path fill="#101206" fill-opacity=".165" d="M189.731-12.658l-7.938 271.248-3.739-155.35-7.424-74.124z"/><path fill="#dd9473" fill-opacity=".812" d="M579.419 902.72l39.788 87.611-94.325 2.848 78.922-104.427z"/><path fill="#030607" fill-opacity=".596" d="M636.333 774.255L589.146 891l40.499.714-5.184-47.324z"/><path fill="#354e12" fill-opacity=".596" d="M229.54 773.853l-7.402 126.692-78.802 14.483-49.452 6.292z"/><path fill="#ffffe9" fill-opacity=".576" d="M329.298 812.949l21.509.745-44.097-148.61 19.826 104.552z"/><path fill="#070b23" fill-opacity=".608" d="M295.097 1085.828L449.76 922.334l79.496-123.529-160.669 198.366z"/><path fill="#f3df05" fill-opacity=".718" d="M224.547 677.82l-16.437 29.743-44.914-149.73 51.257-8.106z"/><path fill="#e6db8e" fill-opacity=".737" d="M528.279 303.577l-38.548 81.512-4.467-4.114-7.102-8.36z"/><path fill="#87725c" fill-opacity=".784" d="M826.028 262.633l-352.895 14.558 15.57-54.241-36.817 33.769z"/><path fill="#f7e5c7" fill-opacity=".596" d="M187.056 171.387l13.936 3.051 5.823-58.737-24.347-83.552z"/><path fill="#fefbe7" fill-opacity=".506" d="M298.774 787.087l-31.947 30.45 43.934-18.722-22.162-128.213z"/><path fill="#f8e8d2" fill-opacity=".918" d="M897.885 244.655l-105.649 91.832 21.327 79.25L698.446 307.99z"/><path fill="#495798" fill-opacity=".365" d="M219.749 1069.903l16.31-138.295 97.834-48.496L241.155 1086z"/><path fill="#292f51" fill-opacity=".482" d="M539.487 556.784l252.262-75.6-193.155-.468-112.203 71.486z"/></svg>