<svg xmlns="http://www.w3.org/2000/svg" width="228" height="278" viewBox="0 0 836 1024"><path fill="#686e73" d="M0 0h836v1024H0z"/><path fill="#0781ba" fill-opacity=".992" d="M677.195 595.59l14.693 201.966L898 794.624V614.14z"/><path fill="#edf7ff" fill-opacity=".569" d="M889.185 427.948L433.59 265.72l271.176 134.022L898 597.08z"/><path fill="#41141e" fill-opacity=".451" d="M131.922 312.712l145.063-30.668L305.079 9.971-38.578-62z"/><path fill="#d4e6eb" fill-opacity=".486" d="M898 626.73L532.176 390.913l-.527 454.447 67.06-475.157z"/><path fill="#00120d" fill-opacity=".494" d="M575.03 425.703l243.99 168.015-215.195 19.801L548.348 1086z"/><path fill="#b3938e" fill-opacity=".8" d="M177.565 589.828L159.937 447.27l277.947-231.832L-62 429.294z"/><path fill="#100005" fill-opacity=".478" d="M602.35 52.45l64.916 318.853L691.53-57.633 336.156 52.38z"/><path fill="#dff4ff" fill-opacity=".412" d="M890.121 1008.258L107.24 1086l192.357-244.763-17.91 165.1z"/><path fill="#d6e5f3" fill-opacity=".659" d="M678.725 994.982l-33.641-276.378L674.34 608.1l20.88 234.69z"/><path fill="#172325" fill-opacity=".851" d="M459.713 1015.882l36.822-18.696 15.207-345.475-36.877-7.04z"/><path fill="#f7fcfe" fill-opacity=".388" d="M466.866 297.314l-4.621 641.693-32.633 115.842-23.593-28.807z"/><path fill="#c77e66" fill-opacity=".502" d="M346.23-62L277.223 3.562l26.434 405.71 269.58-144.601z"/><path fill="#00080e" fill-opacity=".631" d="M670.889 820.717l-18.964 171.61L618.458 1086l10.597-312.676z"/><path fill="#306e82" fill-opacity=".827" d="M-62 703.911l197.76 10.946 76.463 247.854L21.023 1086z"/><path fill="#becbd0" fill-opacity=".553" d="M377.096 344.404l-25.051 287.491L331.038 1086l51.324-178.351z"/><path fill="#000b0a" fill-opacity=".443" d="M422.08 925.72l12.796-712.902-53.494 508.38L368.736 1086z"/><path fill="#c0c4d1" fill-opacity=".71" d="M318.86 504.2l-37.96 60.992 6.74-180.798 58.165-79.307z"/><path fill="#bac0cc" fill-opacity=".851" d="M209.327 489.947l17.768 95.58 18.984-164.935-40.026-148.127z"/><path fill="#5a1600" fill-opacity=".357" d="M9.042 661.445l209.617-264.88-118.207-118.75 167.689 371.17z"/><path fill="#242f31" fill-opacity=".976" d="M340.9 633.794l-27.78-18.65-1.678 195.28 31.393 130.286z"/><path fill="#abb9bb" fill-opacity=".827" d="M508.205 768.567l24.316-178.864 22.368 316.316L520.846 1086z"/><path fill="#edfffe" fill-opacity=".369" d="M627.639 526.842l-37.017 176.633-.338 366.45 28.102-40.018z"/><path fill="#3a333e" fill-opacity=".604" d="M540.37 269.99L646.843 142.7 898 344.891l-266.609-4.694z"/><path fill="#000e12" fill-opacity=".494" d="M571.027 1086l-20.973-37.82 6.682-460.977 40.724 252.072z"/><path fill="#b0939c" fill-opacity=".898" d="M476.653 344.952L431.298 616.07l-60.291 3.457 157.195-81.592z"/><path fill="#000b12" fill-opacity=".553" d="M321.6 564.133l39.82 34.67-3.324-188.849-24.891-36.437z"/><path fill="#d7feea" fill-opacity=".298" d="M43.391 678.485l330.802 88.909-382.314-58.371-27.352-667.425z"/><path fill="#000a05" fill-opacity=".322" d="M281.695 758.096l-.663-402.416-37.988 50.757-5.603 621.013z"/><path fill="#b2bbc4" fill-opacity=".98" d="M581.378 421.803L578.17 583.31l-40.203-216.88 91.631 29.772z"/><path fill="#d1a6c3" fill-opacity=".357" d="M720.187 134.02L637.73-62 829.799 67.011l36.17 140.042z"/><path fill="#695755" fill-opacity=".98" d="M191.228 329.098l231.734 23.424 30.881-43.11-209.459.124z"/><path fill="#1e2527" fill-opacity=".969" d="M642.218 555.342l28.701 33.844-41.388 186.388-8.426-9.245z"/><path fill="#afcf75" fill-opacity=".612" d="M240.501 790.01l16.699-64.752-32.85-50.026-98.362 104.722z"/><path fill="#c8cfda" fill-opacity=".694" d="M393.469 578.611l15.171-133.328-25.664-15.568-20.146 41.323z"/><path fill="#000506" fill-opacity=".431" d="M464.131 740.679l74.836-189.541-222.124 16.973 221.875 40.911z"/><path fill="#020c1c" fill-opacity=".392" d="M768.358 445.694L459.839 293.737l208.2 135.434 87.43 77.56z"/><path fill="#ffeefb" fill-opacity=".357" d="M355.459 338.216l-175.147 7.801-42.324 232.12L95.82 383.4z"/><path fill="#d7b7a6" fill-opacity=".376" d="M176.854 106.377l-48.175 48.126L83.544-62 174-33.875z"/><path fill="#017fbc" fill-opacity=".698" d="M3.668 805.654l-33.701-83.516 154.023-10.676 33.479 69.403z"/><path fill="#a9b0b9" fill-opacity=".753" d="M328.623 1022.655l-19.134-243.453-74.21 159.8 138.189 3.018z"/><path fill="#0a1b2b" fill-opacity=".294" d="M-23.015 360.633L334.586 193.63 202-62l-31.647 447.875z"/><path fill="#ff5344" fill-opacity=".698" d="M197.727 576.363l-60.483-7.796-30.195-52.997 52.58-43.217z"/><path fill="#061723" fill-opacity=".651" d="M201.522 355.467l-35.037 51.531 4.74 80.146 29.73 85.874z"/><path fill="#291703" fill-opacity=".467" d="M411.907 269.116l-67.471 162.762 121.696-89.78-42.83 263.626z"/><path fill="#051422" fill-opacity=".475" d="M504.44 371.943l-10.777 94.907 44.26 17.395.543-158.922z"/><path fill="#7e9180" fill-opacity=".714" d="M821.936 627.168L741.36 575.18l-129.406-61.304 19.185 43.28z"/><path fill="#ffd7b0" fill-opacity=".286" d="M527.441 135.689L371.876 256.587l317.332 129.045-387.36-245.688z"/><path fill="#206574" fill-opacity=".506" d="M854.763 769.445L701.821 799.05 690.77 985.793 898 994.646z"/><path fill="#422d0b" fill-opacity=".447" d="M534.798 104.707l-18.747 93.046-230.754 24.526 169.264 27.908z"/><path fill="#e7f0fb" fill-opacity=".816" d="M333.408 289.407l-11.461 18.28-88.97-8.932 49.385-16.663z"/><path fill="#919795" fill-opacity=".69" d="M269.463 562.408l223.288 84.519-238.596-39.651-57.623-89.85z"/><path fill="#633200" fill-opacity=".388" d="M28.34 647.662l58.563 40.012-4.396-180.397-44.965-118.78z"/><path fill="#dfe3eb" fill-opacity=".537" d="M108.492 1063.41L242.693 1086l-32.467-159.99 83.833-32.22z"/><path fill="#b9bec7" fill-opacity=".973" d="M483.448 342.81l-43.617 142.047 45.079-37.573 18.394-69.33z"/><path fill="#a4b7bf" fill-opacity=".659" d="M876.225 545.22l-111.442-57.618-22.494-145.861 140.969 59.414z"/><path fill="#9aa9ab" fill-opacity=".757" d="M479.58 646.843l-58.633 56.536-7.689 125.855 64.982-148.26z"/><path fill="#ccd7e1" fill-opacity=".494" d="M630.997 734.14l70.733 34.87L664.645 1086l-3.253-269.38z"/><path fill="#a47969" fill-opacity=".514" d="M593.773 29.153l33.931 83.712-153.82 253.292 74.791-338.744z"/><path fill="#000609" fill-opacity=".549" d="M577.373 435.462l253.718 171.71-204.264-91.078-28.793 66.15z"/><path fill="#fea395" fill-opacity=".314" d="M25.459 300.025l-6.723-91.983 78.619 8.243-1.54 118.722z"/><path fill="#0a1718" fill-opacity=".62" d="M825.647 518.396l-114.985-57.529 109.423 82.484L898 527.315z"/><path fill="#a7b2b3" fill-opacity=".631" d="M264.397 726.783l15.282 184.889 18.078-336.905 15.94 223.91z"/><path fill="#1f2a31" fill-opacity=".478" d="M271.88 941.364l35.925-40.44-14.062-29.851 23.856-51.214z"/><path fill="#e7f3ff" fill-opacity=".494" d="M681.5 350.87L898 550.943 652.935 368.257 519.39 319.2z"/><path fill="#100000" fill-opacity=".267" d="M700.086 90.529L352.032-10.367l155.317 114.828L615.29-58.193z"/><path fill="#f80070" fill-opacity=".243" d="M244.098 47.186L309.51-62l114.727 97.203-171.421 66.553z"/><path fill="#000013" fill-opacity=".275" d="M219.282 960.038l12.196 54.58 42.917-167.796-12.838-99.205z"/><path fill="#1e292e" fill-opacity=".647" d="M274.894 1031.004l47.976-117.431-8.428-292.568L354.25 905.64z"/><path fill="#d3dae3" fill-opacity=".506" d="M371.482 838.51l-50.65 138.446L330.26 1086l57.671-228.59z"/><path fill="#011114" fill-opacity=".416" d="M392.15 669.71l-8.692 269.57 56.128-306.046 63.17 6.124z"/><path fill="#eaeefe" fill-opacity=".439" d="M566.562 398.651l-58.829-39.2 97.19 24.757 105.102 88.138z"/><path fill="#1d1c1e" fill-opacity=".71" d="M177.728 491.054l-21.255-16.583L243.775 655.6l11.414-36.468z"/><path fill="#d7dce5" fill-opacity=".753" d="M194.395 927.436l105.202 14.855-58.185 91.167 26.03-116.746z"/><path fill="#9ba9a5" fill-opacity=".702" d="M802.546 577.559L616.375 460.285l53.187-25.333L898 605.915z"/><path fill="#6d5962" fill-opacity=".792" d="M756.911 140.964l-69.104 50.71 25.995 197.902 160.192-167.032z"/><path fill="#adacab" fill-opacity=".886" d="M43.638 673.655L-62 679.965 44.357 539.768-62 285.047z"/><path fill="#faf8ff" fill-opacity=".302" d="M317.387 563.704L296.605 377.42l88.107-88.226-122.93 206.487z"/><path fill="#22262d" fill-opacity=".706" d="M267.976 355.062l-7.808 181.183 128.526 47.058-111.485-8.944z"/><path fill="#8a562f" fill-opacity=".404" d="M411.152 411.035l-90.728-84.513 151.683-72.401 64.804 69.714z"/><path fill="#dce3ec" fill-opacity=".89" d="M218.809 337.523l-19.312 4.437 37.83 46.879 30.703-47.248z"/><path fill="#a2aeb4" fill-opacity=".969" d="M412.818 593.034l-.47 29.463-67.123 63.038-6.09 126.615z"/><path fill="#dfebfc" fill-opacity=".396" d="M402.266 1078.744l56.378-132.242 26.434-16.743-82.731 18.474z"/><path fill="#d9eef6" fill-opacity=".306" d="M103.661 563.383l-9.463-47.47 20.368-63.73L213.27 315.23z"/><path fill="#1e2729" fill-opacity=".796" d="M641.685 483.358l-66.54 214.535 9.046-281.084 9.868 3.437z"/><path fill="#47686c" fill-opacity=".804" d="M-62 867.484L152.391 1086l65.667-297 52.045-15.527z"/><path fill="#596b76" fill-opacity=".631" d="M124.369 292.038l23.226 113.825 72.612-97.793-1.173-83.236z"/><path fill="#a0aeb3" fill-opacity=".706" d="M556.195 681.086l27.855-152.82-.146-105.035-46.353 52.75z"/><path fill="#03141f" fill-opacity=".424" d="M407.973 966.294l11.483-207.606-58.278 312.663-2.399-127.685z"/><path fill="#ba8893" fill-opacity=".98" d="M476.881 570.69l-29.766-1.487-1.693-98.67 99.755 37.116z"/><path fill="#fcd9bd" fill-opacity=".318" d="M440.376 161.027l92.8 87.454-48.608 56.756 3.96-226.45z"/><path fill="#293437" fill-opacity=".965" d="M511.445 900.486l-6.19-120.007-56.8 231.911 42.109-1.219z"/><path fill="#2c3240" fill-opacity=".667" d="M718.027 308.48l-91.32 38.008-49.715-58.338 36.907-87.443z"/><path fill="#c1c9d5" fill-opacity=".886" d="M621.136 1002.526l-.49-61.418-28.314 9.752L575.456 1086z"/><path fill="#837a7c" d="M432.816 153.887l46.525-82.82L376.776 45.29l-60.283 72.009z"/><path fill="#04121d" fill-opacity=".384" d="M310.746 395.912l1.61 22.8-67.62-51.724 20.32 109.439z"/><path fill="#728c91" fill-opacity=".659" d="M93.974 703.345L214.109 560.75l-48.02 82.639 15.173 174.984z"/><path fill="#0283c0" fill-opacity=".694" d="M898 676.06v128.672l-218.791-68.006-.324-162.317z"/><path fill="#90bec4" fill-opacity=".514" d="M681.146 796.82l-6.55 192.777L898 1004.032 644.252 1086z"/><path fill="#cdd6da" fill-opacity=".333" d="M540.706 850.973l-44.69 122.493 17.191 71.353 50.731-147.623z"/><path fill="#3a384a" fill-opacity=".604" d="M731.01 426.636l-74.262-47.617-122.706-55.777-69.094 17.763z"/><path fill="#141e22" fill-opacity=".639" d="M593.243 781.1l-8.29-249.957-29.09 207.23 9.473 303.895z"/><path fill="#f4f1ff" fill-opacity=".51" d="M568.794 314.316l-20.215-20.88-34.467 23.946 220.09 73.957z"/><path fill="#dcad92" fill-opacity=".612" d="M402.545 164.382l-64.276-59.887-15.58 247.587 16.673-156.542z"/><path fill="#bdc9d4" fill-opacity=".659" d="M633.753 831.034l-20.66-.99-32.257-24.092 37.372-33.116z"/><path fill="#deecfb" fill-opacity=".345" d="M262.631 931.608l-36.015-88.981-9.465 48.592 68.356 21.522z"/><path fill="#12191b" fill-opacity=".62" d="M537.866 525.579l-73.092 250.47 65.382-178.224-77.994-2.703z"/><path fill="#05100f" fill-opacity=".357" d="M386.19 632.408l11.368-9.194-88.375 84.738 11.653-85.11z"/><path fill="#040d00" fill-opacity=".161" d="M385.554 198.93l54.334 536.032-7.05-439.236L273.925 187.7z"/><path fill="#9aa8a4" fill-opacity=".663" d="M610.64 803.548L593.651 668.72l1.856-75.462 35.368 26.595z"/><path fill="#bdc3d1" fill-opacity=".506" d="M252.301 393.426L222.713 583.46l-25.242-127.85 10.19-54.84z"/><path fill="#00000a" fill-opacity=".294" d="M796.874-39.043L898-50.275l-95.99 417.79L898 323.85z"/><path fill="#0f151d" fill-opacity=".549" d="M197.76 74.494l19.058-61.549 47.047 170.156-51.191-5.276z"/><path fill="#878990" fill-opacity=".588" d="M661.766 344.22L898 374.896v114.511l-64.944-33.75z"/><path fill="#ebe0db" fill-opacity=".361" d="M-62 458.035l154.843-74.166L-62 382.23l115.043 67.491z"/><path fill="#1d2728" fill-opacity=".773" d="M467.661 834.242l-4.102-128.72 65.736-105.577-3.027 43.703z"/><path fill="#eef3ff" fill-opacity=".243" d="M369.22 455.997l37.29 4.037L378.36 570.3l-34.424 49.23z"/><path fill="#a47856" fill-opacity=".376" d="M365.689 251.066l99.153 144.013-203.33-163.414 18.817-73.355z"/><path fill="#e6e5eb" fill-opacity=".314" d="M680.075 552.65l-40.64 206.472 4.269 3.489 42.476 76.337z"/><path fill="#192529" fill-opacity=".741" d="M409.55 650.743l-36.344 97.342 27.165 186.722 18.943 10.633z"/><path fill="#fdfeff" fill-opacity=".471" d="M883.195 432.834l-69.006 62.293-4.912 21.046-36.061-35.317z"/></svg>