<svg xmlns="http://www.w3.org/2000/svg" width="228" height="278" viewBox="0 0 836 1024"><path fill="#686e73" d="M0 0h836v1024H0z"/><g fill-opacity=".502"><path fill="#0089e1" d="M714 942l-40-356 224 32z"/><path fill="#fdffff" d="M862 406l-260-76 296 216z"/><path fill="#5e2f34" d="M118 286L702-2-26-54z"/><path fill="#bd9085" d="M234-62l348 204-12 512z"/><path fill="#0e0919" d="M662-62l52 420-144-52z"/><path fill="#cab0a7" d="M-38 410l-24 288 432-452z"/><path fill="#000700" d="M562 674l176-136-148-96z"/><path fill="#fff" d="M638 766l56 100-16-284z"/><path fill="#b1bec9" d="M682 1086L230 870l-88 216z"/><path d="M502 974l-44-176 52-176z"/><path fill="#1c6678" d="M-50 1086L54 470l156 484z"/><path fill="#fdfaff" d="M298 542l60-236-72 84z"/><path fill="#e9f9ff" d="M438 734l-40 352 68-172z"/><path fill="#f5feff" d="M198 414l48-92-12 252z"/><path fill="#000004" d="M430 890l-80 188 48-368z"/><path fill="#864121" d="M314 626L34 678l-4-240z"/><path d="M670 854l-40 164-8-292z"/><path fill="#efffff" d="M646 474l92 4-200-128z"/><path d="M198 346l-36 100 40 136z"/><path fill="#231501" d="M466 338l-76-68 24 328z"/><path d="M598 854l-44 160V694z"/><path fill="#242733" d="M70 378L242-62l48 324z"/><path fill="#f2fbff" d="M358 458l8 156 40-172z"/><path fill="#ddf0f3" d="M510 794l48 108-32 156z"/><path fill="#c3d6da" d="M362 634l28 336-60-160z"/><path fill="#c6ddda" d="M502 746l44-164 12 328z"/><path fill="#161c34" d="M566 334l-72-32 16 196z"/><path fill="#e5f4ff" d="M578 1018l60 68-32-240z"/><path fill="#c8eafc" d="M534 362l68 24-64 240z"/><path fill="#ffa49c" d="M126 386L82 546l108 8z"/><path fill="#152222" d="M290 614l76-204-36 404z"/><path fill="#1f9cda" d="M190 766L-50 606l64 204z"/><path fill="#ffdff0" d="M506 342l-60 112 20 112z"/><path fill="#fff" d="M666 366l-104-76-52 20z"/><path fill="#0075a3" d="M670 562l228 116-124 348z"/><path fill="#aad6df" d="M674 826l-24 228 104 32z"/><path fill="#afc483" d="M226 798l40-76-312-96z"/><path fill="#b999ad" d="M718-62l180 244-200-36z"/><path fill="#cadedc" d="M458 602l8 244-48-80z"/><path fill="#a97650" d="M394 418L638 50 262 194z"/></g></svg>