<svg xmlns="http://www.w3.org/2000/svg" width="228" height="278" viewBox="0 0 836 1024"><path fill="#5a3f39" d="M0 0h836v1024H0z"/><path fill="#d3ccd4" fill-opacity=".918" d="M646.048 359.657L389.743 386.27l-153.587 636.294 252.714-22.661z"/><path fill="#070604" fill-opacity=".98" d="M564.709-62L898 156.506-14.858-62l33.145 699.59z"/><path fill="#070000" fill-opacity=".918" d="M522.103-35.152L898 6.263 806.566 1086l-140.18-577.89z"/><path fill="#fc0000" fill-opacity=".392" d="M416.934 199.411L264.038 864.484 172.652 1086l-64.228-626.003z"/><path fill="#a06048" fill-opacity=".718" d="M569.277 532.344l133.15 32.573-348.258-221.7L546.45-62z"/><path fill="#eae5eb" fill-opacity=".929" d="M608.382 586.496l-218.415-17.42-26.785-224.86 41.302-3.949z"/><path fill="#ab7853" fill-opacity=".914" d="M203.896 901.634L53.953 684.208l99.717-192.382 33.151 22.562z"/><path fill="#fb7c46" fill-opacity=".376" d="M700.407 358.206l-100.908-45.721L649.783 1086l57.895-159.937z"/><path fill="#381e12" fill-opacity=".753" d="M724.182 498.991l-21.141-67.976-17.104-31.935-184.911 451.803z"/><path fill="#060400" fill-opacity=".718" d="M181.3-35.355l492.14-8.306-435.043 253.443L501.26 348.026z"/><path fill="#382c1a" fill-opacity=".984" d="M-62 1086h267.472l-215.81-624.705-38.802 549.243z"/><path fill="#450000" fill-opacity=".533" d="M195.499 751.938l-56.413-119.511 199.143-169.21 15.195 119.998z"/><path fill="#ca2122" fill-opacity=".902" d="M574.113 302.784l103.612 63.554-275.122-4.538 110.764 85.664z"/><path fill="#eefefa" fill-opacity=".325" d="M177.036 799.766l320.833-18.072L514.416 983.4l-157.837 46.464z"/><path fill="#dfdee6" fill-opacity=".773" d="M456.871 595.226l177.808-63.694-68.61 128.984 9.37-322.944z"/><path fill="#cd0009" fill-opacity=".741" d="M255.957 331.336L124.454 514.568l112.483 41.29 196.351-318.435z"/><path fill="#121409" fill-opacity=".894" d="M700.267 875.33l6.739-166.444L898 760.09 840.597 1086z"/><path fill="#313130" fill-opacity=".976" d="M795.48 1086l-697.925-81.583 338.132 16.317 116.931-82.554z"/><path fill-opacity=".957" d="M534.548 286.539L898 437.14 855.04-58.482 655.092 22.863z"/><path fill="#fedc8d" fill-opacity=".255" d="M342.841 190.568l88.161-106.684 139.09-11.97-4.344 162.248z"/><path fill="#4d2c1e" fill-opacity=".38" d="M525.221 703.172L492.026 1086l162.19-405.255-415.885-8.483z"/><path fill="#221d15" fill-opacity=".91" d="M156.914 475.095L56.59 649.13-62 379.705l276.656-14.834z"/><path fill="#f4c373" fill-opacity=".341" d="M696.07 857.79l4.083-357.223-77.058 429.064 123.542 9.537z"/><path fill="#d5000a" fill-opacity=".788" d="M681.51 428.062L528.85 282.678l144.733 65.618 33.906 33.671z"/><path fill="#dadae2" fill-opacity=".733" d="M233.98 1013.217l16.91-105.39 286.295 73.69L380.82 814.192z"/><path fill="#cabbc1" fill-opacity=".914" d="M634.933 449.979l-92.679-164.187 84.149 251.095 7.364-49.447z"/><path fill="#422f21" fill-opacity=".898" d="M510.523 840.96l87.287-224.15 48.916 222.089-50.006 196.943z"/><path fill-opacity=".945" d="M-62 338.309L173.37-62l222.11 287.643-83.564 79.025z"/><path fill="#06140e" fill-opacity=".439" d="M274.582 958.64l51.58 24.408 134.861-24.624-171.196 15.428z"/><path fill="#402a11" fill-opacity=".769" d="M355.284 217.176l112.912 165.847 33.33-4.455 16.448-64.583z"/><path fill="#bb8964" fill-opacity=".729" d="M82.79 679.3l106.397 231.032-61.005-404.257 109.886 60.228z"/><path fill="#43494c" fill-opacity=".545" d="M382.763 495.545l2.38-52.474 51.64 50.908-4.192-30.299z"/><path fill="#a80002" fill-opacity=".765" d="M314.288 563.277l-62.777 29.238L210.1 750.958l75.127 58.496z"/><path fill="#bb0c16" fill-opacity=".925" d="M162.387 865.023l-20.692 96.245 78.262 39.968 10.827-67.997z"/><path fill="#a7a4a5" d="M533.949 723.596L292.643 850.735l262.445-113.007-51.565 108.32z"/><path fill-opacity=".2" d="M294.375 649.808l165.461-5.778-339.721-213.363 192.466 8.274z"/><path fill="#fceef6" fill-opacity=".596" d="M428.115 399.513L604.59 509.46l-208.136-78.996-5.516-165.346z"/><path fill="#2b2b2a" fill-opacity=".996" d="M-62 923.603l246.532 63.07L518.974 1086H25.998z"/><path fill="#ececf3" fill-opacity=".769" d="M638.643 392.013l-184.566 68.471 64.18 192.434 49.958-310.485z"/><path fill="#041605" fill-opacity=".392" d="M398.36 872.93l-227.275 37.29 76.642-53.024 38.303 44.377z"/><path fill="#ffd4a2" fill-opacity=".353" d="M571.891 123.047l-132.836 4.522-5.215-52.22 84.233-5.776z"/><path fill="#ba0003" fill-opacity=".612" d="M503.473 448.46l-101.41-109.458 89.552 43.709 79.178-14.095z"/><path fill="#050804" fill-opacity=".396" d="M898 126.714l-549.174 10.574L749.82 196.52 426.694 13.315z"/><path fill="#87262c" fill-opacity=".996" d="M534.072 877.703l5.893-117.253-32.39 105.496 19.044 146.005z"/><path fill="#dd020c" fill-opacity=".698" d="M214.605 367.697l-9.855 27.456 138.542 87.703L371 259.79z"/><path fill="#370100" fill-opacity=".545" d="M639.605 394.724l-17.363 185.447 47.885 31.807 23.885-169.133z"/><path fill="#eeeef2" fill-opacity=".78" d="M478.56 987.928l45.363-23.229-209.28 53.423 95.856-4.902z"/><path fill="#272a22" fill-opacity=".788" d="M898 966.046L872.711 1086l-213.245-40.119L728.72 937.72z"/><path fill="#181400" fill-opacity=".2" d="M619.885 509.056l-20.367-81.039-50.417 29.624 31.944 85.537z"/><path fill="#072612" fill-opacity=".357" d="M289.593 500.559L184.744 752.566l-31.832-117.578 12.816 4.225z"/><path fill="#0c3517" fill-opacity=".392" d="M572.119 676.518l-105.571 3.087-19.475 2.359 61.283 15.057z"/><path fill="#4e2815" fill-opacity=".808" d="M479.185 215.753l5.169-18.54 37.289 6.398-2.245 14.376z"/><path fill="#c09252" fill-opacity=".365" d="M644.324 791.231l-10.536 217.054 83.714-406.826-112.788 26.887z"/><path fill="#cfa177" fill-opacity=".455" d="M467.884 293.644l31.97-172.227 71.823 86.7L419.655 156.5z"/><path fill="#250011" fill-opacity=".373" d="M286.065 829.063l79.576-342.279-70.478 187.436 1.534-25.992z"/><path fill="#be8357" fill-opacity=".702" d="M298.127 829.454l-95.147 15.53-79.425-292.058L54.617 678.82z"/><path fill="#1e0e0b" fill-opacity=".439" d="M264.73 933.508l-83.16-120.275 39.915 67.362-57.725 10.16z"/><path fill="#c1c7d1" fill-opacity=".714" d="M387.47 803.912l36.342-111.991 124.706-.029.41 33.812z"/><path fill="#010000" fill-opacity=".565" d="M543.644 380.7L584.46 82.69 898 364.7l-366.21-72.861z"/><path fill="#000100" fill-opacity=".635" d="M466.196-54.446L-62 26.785l438.217 112.43 29.372 31.018z"/><path fill="#c2cdd9" fill-opacity=".6" d="M628.932 518.72l-151.466 78.709-118.112 91.947 247.37-90.686z"/><path fill="#710000" fill-opacity=".8" d="M713.989 437.354l-4.264-44.945-59.475 26.95-15.817 96.277z"/><path fill="#e7e3eb" fill-opacity=".565" d="M520.8 924.133l-248.522 32.59 242.745 11.3-2.076-56.287z"/><path fill="#fdf9fe" fill-opacity=".506" d="M291.123 877.256l77.436-3.188 157.734-89.163-266.2 70.288z"/><path fill="#f7f3f8" fill-opacity=".8" d="M370.276 430.35l10.957-81.138 34.931 12.835L539.485 504.09z"/><path fill="#3f300f" fill-opacity=".988" d="M122.672 552.48l19.502-64.445L43.952 698.73-62 555.906z"/><path fill="#e00913" fill-opacity=".898" d="M373.262 267.642l27.661 63.809-204.235 82.371 10.34-32.158z"/><path fill="#af8061" fill-opacity=".867" d="M495.22 389.229l34.86-6.192 11.992-91.911-96.82 200.473z"/><path fill="#030c0c" fill-opacity=".282" d="M422.374 462.42l16.434-14.94-2.396 45.056-34.516-24.253z"/><path fill="#563221" fill-opacity=".988" d="M660.989 1003.372L688.453 1086l-22.52-156.216-14.77 5.024z"/><path fill="#d7000a" fill-opacity=".451" d="M487.7 428.973l121.213-138.131-81.672 142.873-152.913-112.728z"/><path fill="#1e2328" fill-opacity=".902" d="M521.563 1033.772l-270.304-21.949 69.01 44.293 226.797-92.132z"/><path fill="#2e0000" fill-opacity=".627" d="M204.904 635.943l95.193-168.03-7.574-37.13 31.156 57.83z"/><path fill-opacity=".875" d="M719.63 770.815l-16.598-296.976L821.522-38.6 898 746.88z"/><path fill="#302d23" fill-opacity=".886" d="M451.765 72.834l57.982-63.322 56.299 34.72-10.127 25.753z"/><path fill="#dddde4" fill-opacity=".871" d="M601.219 358.964l33.74 31.01-14.487 38.743-109.725 17.9z"/><path fill="#adacfb" fill-opacity=".286" d="M144.066 516.839l6.599 34.403 75.13 38.26-6.308-36.014z"/><path fill="#88837d" fill-opacity=".49" d="M322.152 902.686L456.85 839.35l-118.242 41.79 4.708-3.14z"/><path fill="#170200" fill-opacity=".247" d="M278.381 850.496l-25.522-40.82 78.984 26.972 190.146-91.609z"/><path fill="#0c2c07" fill-opacity=".153" d="M733.22 538.768l-188.888 78.7 84.833 392.385 6.512-390.11z"/><path fill="#eff5fc" fill-opacity=".494" d="M434.079 600.69l144.13-99.718 51.977-19.493-260.433 8.976z"/><path fill="#734c2b" fill-opacity=".725" d="M448.103 198.787l-43.63 103.894-12.697-113.622-21.803-53.555z"/><path fill="#dfe8f3" fill-opacity=".537" d="M320.828 673.577l168.024-27.764 49.883 13.61-214.04 24.503z"/><path fill="#eeecf4" fill-opacity=".533" d="M241.247 891.078l63.129 77.385 218.994-147.02-246.274 94.382z"/><path fill="#e1967a" fill-opacity=".486" d="M649.244 905.577l-21.762-10.5-.737 62.19 24.247 18.62z"/><path fill="#00010e" fill-opacity=".169" d="M461.063 993.24l-233.616-46.352-40.02-2.02 105.054 30.32z"/><path fill="#d3be8d" fill-opacity=".408" d="M475.057 290.457l64.045-3.125-9.996-20.363-62.738 1.606z"/><path fill="#50361e" fill-opacity=".898" d="M157.58 835.377L71.065 713.253l16.215 218.95 58.246 15.206z"/><path fill="#a50104" fill-opacity=".792" d="M264.249 563.983l-63.554 224.47 52.705-2.6 70.533-186.12z"/><path fill="#f7f4fa" fill-opacity=".639" d="M542.996 724.643l-243.931 94.92 9.78 14.825 73.306-33.416z"/><path fill="#f8f8ff" fill-opacity=".506" d="M209.165 996.526l205.032 5.796 61.51-8.754-113.152 24.872z"/><path fill="#c7805e" fill-opacity=".71" d="M737.3 938.6l-54.91 22.658-31.588-118.627 57.44 49.263z"/><path fill="#40260e" fill-opacity=".416" d="M576.553 247.343L458.646 411.529l-41.223-171.215 90.427 60.85z"/><path fill="#1d1d0a" fill-opacity=".565" d="M60.013 941.158l-111.789 38.764 2.567-342.69 91.146 28.674z"/><path fill="#f60810" fill-opacity=".451" d="M257.342 674.778l-42.537 3.768 4.327 43.973 67.783-2.705z"/><path fill="#949199" fill-opacity=".447" d="M368.366 759.05L184.7 914.2l131.666-109.263 265.146-95.276z"/><path fill="#4c3723" fill-opacity=".78" d="M215.642 735.055l-18.534 41.159-32.277-132.832 46.589-63.802z"/><path fill="#ff9a82" fill-opacity=".333" d="M364.566 153.94l47.764 66.222-30.465-9.96-6.59-19.296z"/><path fill="#494d39" fill-opacity=".624" d="M612.664 545.012l92.67-72.403-15.613 122.08-2.026-76.259z"/><path fill="#5a433a" fill-opacity=".267" d="M528.712 822.97l-14.926-40.213 121.003 1.127-235.192 127.744z"/><path fill="#ae0204" fill-opacity=".608" d="M411.249 338.102l112.22 90.068-36.737 9.118-83.071-95.348z"/><path fill="#6f3320" fill-opacity=".765" d="M265.222 871.965l-2.643 23.782-44.899-70.222 3.394-5.876z"/><path fill="#edc1a4" fill-opacity=".388" d="M510.245 158.676l16.922-25.949-31.842-58.016-34.616-4.485z"/><path fill="#041805" fill-opacity=".204" d="M316.809 978.36l-49.164-5.016 175.73-10.33-36.886 11.365z"/><path fill="#010000" fill-opacity=".702" d="M-62-4.592L-14.706 376.2l296.388-52.333L457.86.259z"/><path fill="#cd8f68" fill-opacity=".553" d="M227.405 839.698l-34.962 17.91 25.261 24.083L113.09 589.67z"/><path fill="#4c291e" fill-opacity=".624" d="M246.9 906.333l15.261-19.573-65.054-5.115-37.77-45.339z"/><path fill="#554c4c" fill-opacity=".427" d="M865.696 515.346L605.055 450.58l-47.746 75.896 74.852-69.195z"/><path fill="#8fa9c4" fill-opacity=".322" d="M397.868 536.4l-54.043 34.424-11.581 71.143 142.976 9.083z"/><path fill="#c90a13" fill-opacity=".647" d="M130.783 943.488l53.696-51.5 20.111 93.597-41.655-4.376z"/><path fill="#af0a19" fill-opacity=".443" d="M511.882 834.544l36.98 42.616-42.985 37.922 33.946 83.13z"/><path fill="#ddb47f" fill-opacity=".314" d="M530.72 171.907l-34.112-14.584 73 6.57-41.33 120.764z"/><path fill="#423013" fill-opacity=".278" d="M444.547 18.693l-88.882 38.68 159.927 98.856-190.91-.257z"/><path fill="#022a18" fill-opacity=".267" d="M381.829 674.804l113.51-.414 72.467 8.05L462.07 692.7z"/><path fill="#210a04" fill-opacity=".49" d="M846.017 237.26l-367.384-10.323 20.597 25.275 49.415-28.809z"/><path fill="#84796e" fill-opacity=".678" d="M381.33 882.812l166.89-116.751-88.278 69.068 336.894-201.313z"/><path fill="#a90000" fill-opacity=".345" d="M377.184 385.625L353.39 502.114l-180.454-88.395 113.693-23.528z"/><path fill="#7b0000" fill-opacity=".537" d="M214.204 646.381l75.383-125.945 74.706-31.839-100.425 191.348z"/><path fill="#b4b2b6" fill-opacity=".965" d="M554.32 721.163L500.026 860.29l16.257-84.993-70.348 28.838z"/><path fill="#f3edf3" fill-opacity=".71" d="M595.326 503.77L357.908 347.203l22.266 48.753 84.09 41.791z"/></svg>