<svg xmlns="http://www.w3.org/2000/svg" width="228" height="278" viewBox="0 0 836 1024"><path fill="#35424f" d="M0 0h836v1024H0z"/><path fill="#d2e4f0" fill-opacity=".824" d="M224.829 1001.479l245.198 30.039 57.91-141.189L165.29 716.267z"/><path fill="#295d9c" fill-opacity=".839" d="M735.784 384.093l-340.78 573.778-98.544-711.036 322.162 64.238z"/><path fill="#181712" fill-opacity=".627" d="M-62 71.645L15.396 1086l289.67-551.638L331.64 63.246z"/><path fill="#59a7f9" fill-opacity=".525" d="M121.26 446.413l50.012-131.721L413.668 462.55l10.463-217.532z"/><path fill="#291e0e" fill-opacity=".725" d="M813.051 1086L898 87.143-62 70.908 708.292 343.76z"/><path fill="#133e78" d="M125.247 707.125L552.52 880.536l-45.034-263.288-258.543-69.203z"/><path fill="#4192de" fill-opacity=".808" d="M607.097 283.247l102.403 89.89-143.91 136.46-57.633-144.62z"/><path fill="#1f211e" fill-opacity=".988" d="M735.03 1086L630.133 481.873l188.974 222.039L898 939.316z"/><path fill="#463324" fill-opacity=".996" d="M453.477 347.395L455.006-62 688.59 95.388 540.88 338.009z"/><path fill="#e3f7ff" fill-opacity=".537" d="M407.94 883.497L240.5 1047.525l-63.831-214.213 88.718-99.319z"/><path fill="#4a90fe" fill-opacity=".478" d="M666.712 752.757l-9.073-145.484-54.976-87.216 27.396 349.489z"/><path fill="#122b4b" fill-opacity=".804" d="M591.128 565.248l-170.1 228.588 73.117-235.629 272.098-138.775z"/><path fill="#afc8f1" fill-opacity=".647" d="M422.293 343.223l119.03 38.986-101.306-63.842-34.768-77.855z"/><path fill="#88623e" fill-opacity=".604" d="M374.292 983l-115.685 31.852L413.403 1086l-29.44-204.753z"/><path fill="#2679d5" fill-opacity=".682" d="M445.359 864.233l14.799-71.944 94.167-59.694-31.56 150.307z"/><path fill="#bcc9ec" fill-opacity=".349" d="M747.746 603.968L729.91 458.254l-47.44 59.196L885.664 716.1z"/><path fill="#9b9b8e" fill-opacity=".537" d="M276.771 33.924L6.736 27.715-3.715-15.914 241.993-62z"/><path fill="#221a0b" fill-opacity=".475" d="M898 979.212L460.137 1086l152.656-472.754-9.774 233.965z"/><path fill="#fdeab4" fill-opacity=".294" d="M424.355 549.2l-120.984-1.935 93.009 33.722 289.103 57.808z"/><path fill="#7b9fbe" fill-opacity=".431" d="M212.562 387.403l-100.84 81.416 23.062-115.393 106.379-82.508z"/><path fill="#1a5eb1" fill-opacity=".745" d="M164.833 753.854l-35.985-107.139 213.16 120.975-206.326-10.323z"/><path fill="#000313" fill-opacity=".349" d="M383.93 538.22L-62 785.66l293.356-437.07L485.31 572.92z"/><path fill="#af7c59" fill-opacity=".412" d="M610.655 54.787L495.871 44.002l71.792 188.385 70.08-47.874z"/><path fill="#25231b" fill-opacity=".714" d="M242.703 1057.927L-62 1022.813 58.153 22.706l90.616 747.149z"/><path fill="#6eb6f2" fill-opacity=".459" d="M632.21 597.654l-79.274 89.084-35.87-19.714 109.271-133.808z"/><path fill="#4d3e3b" fill-opacity=".933" d="M266.609 278.816l-16.658-106.793 72.181 123.961-87.861 184.783z"/><path fill="#2580dc" fill-opacity=".655" d="M311.58 242.847l26.35 149.756 118.336 13.772-63.222-167.683z"/><path fill="#271c12" fill-opacity=".898" d="M395.981 114.903L540.616-62 433.421 307.846l171.474-45.65z"/><path fill="#002e89" fill-opacity=".522" d="M469.177 368.613l-171.349 91.749 292.459 115.137-102.392-196.557z"/><path fill="#0d2f62" fill-opacity=".616" d="M512.137 633.928l-80.98 258.47-73.22-70.635-143.784-247.089z"/><path fill="#ddecf2" fill-opacity=".506" d="M414.442 891.626l-190.519-49.237 276.194 126.29 27.33-96z"/><path fill="#ef8a2c" fill-opacity=".349" d="M604.966 841.292l-29.858-72.16 85.254 48.376-4.307 44.733z"/><path fill="#1e1e11" fill-opacity=".592" d="M106.7 421.353l130.174-156.84 266.957-64.92L-62 34.738z"/><path fill="#ffeff1" fill-opacity=".298" d="M559.695 356.637l29.127-86.64-93.466 108.359 33.66-11.27z"/><path fill="#fddacb" fill-opacity=".482" d="M156.855 344.653l57.322 36.224-7.366 1.822-36.312 37.565z"/><path fill="#00124d" fill-opacity=".443" d="M628.327 591.783l5.332 137.739-94.535 79.395-20.645-85.191z"/><path fill="#64766c" fill-opacity=".733" d="M383.519 912.555l-24.624-6.272-1.243 56.644 52.075-31.131z"/><path fill="#1d7fdf" fill-opacity=".514" d="M742.993 443.016l-31.079-43.775-141.57-143.488-.604 156.61z"/><path fill="#8f8f81" fill-opacity=".541" d="M780.142 12.022l-56.3 54.043L712.341-62 898 36.916z"/><path fill="#b2c1cf" fill-opacity=".988" d="M259.23 983.082L248.561 1086l-43.639-162.25-34.13-160.69z"/><path fill="#155aae" fill-opacity=".604" d="M243.978 419.805l147.736-172.452-147.989 214.4-27.924 21.64z"/><path fill="#fbffff" fill-opacity=".341" d="M323.927 765.385l-36.514 226.951 193.858 1.082-298.42-113.29z"/><path fill="#0c1e2d" fill-opacity=".333" d="M509.2 693.133l28.224-65.26 59.473-45.312L446.26 433.924z"/><path fill="#040908" fill-opacity=".796" d="M445.848 43.148l161.334-2.753-82.719-76.774L617.297-62z"/><path fill="#010f23" fill-opacity=".729" d="M704.525 669.72l-19.493-172.17 7.46-22.243-81.427 42.724z"/><path fill="#fef2f8" fill-opacity=".518" d="M625.33 627.504l9.063 22.139 21.957-6.497 4.442-28.684z"/><path fill="#0352b8" fill-opacity=".584" d="M182.623 325.122l31.512 52.27 22.86-40.541-21.089-51.062z"/><path fill="#f4ebf5" fill-opacity=".431" d="M722.626 533.757l10.951-27.534-9.227-34.758-29.218 69.588z"/><path fill="#0a0806" fill-opacity=".443" d="M146.802 540.397l180.236 147.91L154.931 439.48-44.42 684.475z"/><path fill="#262520" fill-opacity=".851" d="M840.005 912.27l6.494-266.494-178.517 89.298-24.92 200.931z"/><path fill="#9f9ca6" fill-opacity=".506" d="M556.555 486.469l13.978-50.067 54.381 39.039-57.623 42.97z"/><path fill="#746c57" fill-opacity=".49" d="M-22.699 289.1L33.244-55.663l-94.836 439.61L82.842 318.99z"/><path fill="#171810" fill-opacity=".58" d="M806.016 334.853L598.998 123.27l30.776-33.3L898 99.778z"/><path fill="#dbe4eb" fill-opacity=".149" d="M642.473 1003.292l-21.75-28.994 9.703-46.836 104.47 19.334z"/><path fill="#00193f" fill-opacity=".604" d="M167.426 734.33l54.456 333.38-91.564-350 154.317 12.759z"/><path fill="#2b6cc0" fill-opacity=".451" d="M448.422 908.214L192.308 625.15l163.354 80.94-141.604-12.147z"/><path fill="#6d513a" fill-opacity=".659" d="M317.951 994.172l48.598-4.203 31.309 37.417-170.848 7.093z"/><path fill="#04409d" fill-opacity=".655" d="M705.586 607.051l-19.95-59.819 52.217 30.019-5.97-78.52z"/><path fill="#94c5f8" fill-opacity=".576" d="M594.278 629.38l-27.406-5.638-10.165 15.749 48.664-93.503z"/><path fill="#b6c2bd" fill-opacity=".604" d="M451.333 554.735l-49.308 12.708-99.092-17.909 106.9 34.974z"/><path fill="#09172f" fill-opacity=".843" d="M183.567 652.266l139.424 101.382-58.696-52.175-157.21-151.266z"/><path fill="#ffc496" fill-opacity=".467" d="M428.65 912.066l11.408 142.728-59.23-54.666 24.506-64.353z"/><path fill="#96502a" fill-opacity=".314" d="M224.524 325.58l31.405-90.136-3.124-88.103 65.547 178.612z"/><path fill="#cbe2ff" fill-opacity=".51" d="M439.863 345.708L411.455 258.8l59.261 106.228 94.62-1.039z"/><path fill="#ddeef9" fill-opacity=".788" d="M183.527 824.363l149.325 171.856 44.764-170.047 25.509 74.89z"/><path fill="#003797" fill-opacity=".451" d="M689.537 403.606l-69.597-.72 18.21 75.016 102.809-9.634z"/><path fill="#3599fb" fill-opacity=".427" d="M397.08 747.344l11.147-.647-48.816-24.819 100.266 25.416z"/><path fill="#1d5391" fill-opacity=".937" d="M383.95 760.663l-30.544 55.963 128.22-4.028-80.959 86.653z"/><path fill="#1c1e1b" fill-opacity=".718" d="M758.2 468.882L728.452 393.8 612.006 288.89l37.7-173.213z"/><path fill="#0f49a8" fill-opacity=".451" d="M521.104 563.708l-111.595-45.76-111.572-178.19-13.38 89.52z"/><path fill="#113f94" fill-opacity=".596" d="M344.704 204.127l172.134 249.679 4.304-83.903-81.132 2.529z"/><path fill="#3c291c" fill-opacity=".659" d="M569.465 311.883l-169.67-121.429 38.806 104.228 88.66 57.331z"/><path fill="#241c10" fill-opacity=".22" d="M483.211 1070.012L630.991 1086l-54.655-157.904-131.212 57.73z"/><path fill="#165cba" fill-opacity=".588" d="M541.499 359.29l4.964 129.52-24.484 38.803-54.735-79.079z"/><path fill="#230f00" fill-opacity=".412" d="M275.825 379.898l51.72-120.964-252.562 277.56 51.914 67.084z"/><path fill="#553823" fill-opacity=".725" d="M455.977 194.598l35.366-150.174 110.782 75.508-197.904 13.06z"/><path fill="#b2cfe9" fill-opacity=".565" d="M366.108 456.845l6.304-31.915-41.814-19.814 23.401-17.58z"/><path fill="#2f89de" fill-opacity=".69" d="M619.5 522.263l23.696 56.017-42.073 43.337-3.645-63.489z"/><path fill="#4b544c" fill-opacity=".376" d="M159.201 995.576L115.32 865.962l-.858-185.498 98.33 390.468z"/><path fill="#e3af84" fill-opacity=".294" d="M620.727 215.382L508.574 134.71l10.122 1.386 17.11-25.164z"/><path fill="#595549" fill-opacity=".373" d="M-54.88 129.208L656.873-62 328.926 83.269 35.062 17.034z"/><path fill="#faf38a" fill-opacity=".192" d="M130.524 406.337l83.232-15.653-70.545-61.563-21.62 38.668z"/><path fill="#05131f" fill-opacity=".706" d="M548.136 608.065l20.691-1.517 38.024-70.563-4.058-31.558z"/><path fill="#020d21" fill-opacity=".522" d="M368.516 674.305l56.334 53.698L280.4 601.176l215.376 123.092z"/><path fill="#1974e8" fill-opacity=".255" d="M168.256 636.213l-42.836 22.246 26.924 60.714 118.543 5.23z"/><path fill="#1d73fd" fill-opacity=".271" d="M605.834 752.936l46.164-74.508 7.01 63.388-41.685 89.91z"/><path fill="#000e31" fill-opacity=".51" d="M121.576 674.475l226.928-186.244-63.647-127.016-.406 36.375z"/><path fill="#ffe49b" fill-opacity=".251" d="M500.614 636.68l88.6 29.997-72.605 13.296 9.18-25.425z"/><path fill="#424a3a" fill-opacity=".612" d="M355.15 513.11l-46.898-1.388 277.975 93.255-147.443-73.249z"/><path fill="#656e85" fill-opacity=".812" d="M328.992 274.798l-50.046-21.428-26.608 7.56 69.168-13.974z"/><path fill="#141b19" fill-opacity=".494" d="M377.946 80.743L41.029 62.373 363.82 231.178l119.046 37.505z"/><path fill="#103671" fill-opacity=".945" d="M438.516 618.526l-221.18-74.36L369.443 655.74l67.158-95.684z"/><path fill="#c0a68a" fill-opacity=".251" d="M891.01 541.749l-56.426 110.837-143.613-73.168 126.02 84.192z"/><path fill="#daedfc" fill-opacity=".718" d="M441.57 865.716l-11.082 24.574 58.947 73.802-7.543-81.996z"/><path fill="#d8eaf6" fill-opacity=".851" d="M374.016 851.39l-86.126-78.701-108.586-3.694 12.34 97.118z"/><path fill="#4ab7ff" fill-opacity=".275" d="M322.126 383.432l90.418-4.093-15.877-74.572L307.93 287.8z"/><path fill="#62432e" fill-opacity=".58" d="M-16.248 822.418l-32.758 35.048 77.488 69.588 31.354-5.57z"/><path fill="#5d96d4" fill-opacity=".439" d="M367.667 792.174l-39.082-33.927 100.03 32.191-266.794 8.605z"/><path fill="#e3f4ff" fill-opacity=".561" d="M540.513 365.678l-39.542-2.787 12.046-4.79 56.09-28.833z"/><path fill="#fefbdb" fill-opacity=".196" d="M415.864 526.946l-1.714 31.28-17.707 19.49L496.84 601.36z"/><path fill="#211107" fill-opacity=".384" d="M564.536 302.68L458.14 28.89l26.08 320.608-31.362 32.099z"/><path fill="#2d82e7" fill-opacity=".373" d="M267.036 598.816l.45 12.558 74.235 73.39 68.091 60.197z"/><path fill="#3692f7" fill-opacity=".408" d="M356.327 619.563l105.557 56.227-63.475-41.466-57.685-27.468z"/><path fill="#16150c" fill-opacity=".78" d="M664.173 638.278l69.117 69.199 158.538-5.94L652.84 592.803z"/><path fill="#3a9af9" fill-opacity=".263" d="M378.349 658.543l103.68 46.321-78.073-42.029-102.178-59.422z"/><path fill="#021031" fill-opacity=".431" d="M490.184 770.66L343.43 724.774l-62.839-25.167 107.986 82.25z"/><path fill="#1a7bf2" fill-opacity=".341" d="M252.958 692.09l-59.851-99.4-11.7 22.179 117.414 86.809z"/><path fill="#051542" fill-opacity=".506" d="M247.174 689.006l74.612 52.384 74.684 117.13 44.09 19.487z"/><path fill="#1c2e55" fill-opacity=".627" d="M391.926 559.446l10.451 39.896 3.308-34.954 18.694-47.828z"/><path fill="#ff7200" fill-opacity=".122" d="M671.685 806.116L555.024 818.69l75.636 131.851-11.678-71.875z"/><path fill="#152029" fill-opacity=".843" d="M81.745 784.475l128.223-22.809L91.17 744.871l84.594-22.211z"/><path fill="#eabfaa" fill-opacity=".145" d="M559.434 87.744L537.158 41.88l63.24 4.441 29.396 61.76z"/><path fill="#051f4b" fill-opacity=".835" d="M256.88 518.72l161.337 104.198-137.162-56.75 31.33 100.801z"/><path fill="#f7ffff" fill-opacity=".259" d="M404.479 277.605l21.662-50.477-10.459 91.842 70.862 53.972z"/><path fill="#131614" fill-opacity=".506" d="M106.364 1040.517L-62 1033.108l74.442-98.741 128.873-36.507z"/><path fill="#f7af97" fill-opacity=".424" d="M635.697 827.509l12.581 2.72-4.705 29.778-32.951-28.768z"/><path fill="#2371c3" fill-opacity=".639" d="M533.678 881.937l-79.193-96.517-3.1 40.31-41.25 22.604z"/><path fill="#141600" fill-opacity=".247" d="M507.35 1001.696l71.993-342.224 3.008-24.72 48.946 55.725z"/><path fill="#475f13" fill-opacity=".416" d="M179.428 354.332l-64.008 40.783 15.076-49.267 57.02-23.756z"/><path fill="#2f3742" fill-opacity=".863" d="M548.715-43.408l69.07 120.847 168.647-20.537 7.658 28.156z"/></svg>