<svg xmlns="http://www.w3.org/2000/svg" width="228" height="278" viewBox="0 0 836 1024"><path fill="#72451b" d="M0 0h836v1024H0z"/><g fill-opacity=".502"><path fill="#ff9909" d="M158 346l212 740 344-748z"/><path fill="#000b1e" d="M14-62l-76 560L898 30z"/><path fill="#000d1c" d="M838-62L406-46l480 704z"/><path fill="#ff992a" d="M634 286L154 422l716 244z"/><path fill="#0c121b" d="M-62 1030l292 4L10-62z"/><path fill="#ff7408" d="M698 898l132-352-552 484z"/><path d="M614 686l112-60-156-192z"/><path fill="#9da48e" d="M822 1086l76-480-212 300z"/><path fill="#000010" d="M678 906l36 160-440-16z"/><path fill="#ff6e17" d="M62 858l104-272 40 156z"/><path fill="#fff" d="M758 482l-80-120 16 140z"/><path fill="#ff830c" d="M234 286l-92 176 532 264z"/><path fill="#4d3222" d="M898 778l-300-84-384 140z"/><path fill="#181418" d="M378 390L150 278l444-80z"/><path fill="#031015" d="M150 242l4 404-216 80z"/><path fill="#ffa216" d="M498 278L230 578l476-180z"/><path fill="#660a00" d="M634 434l-8 120-252 44z"/><path fill="#ff7e18" d="M750 526l148 144-228 52z"/><path fill="#ff9d16" d="M494 638l-248 68h464z"/><path fill="#e4720a" d="M386 786L278 946l472-40z"/><path fill="#530900" d="M214 562l220 16-268 64z"/><path fill="#25231b" d="M330 22l564-84-12 600z"/><path fill="#283432" d="M318 1046l-280 40 204-376z"/><path fill="#ff7623" d="M46 742l144 20-20-96z"/><path fill="#0d1a1e" d="M790 510l-8-52-128 100z"/><path fill="#000008" d="M610 682l-20-232 60 112z"/><path fill="#ff8511" d="M158 366l104 232 32-276z"/><path fill="#665338" d="M330 294L246 66l152-8z"/><path fill="#ff8500" d="M726 506l-64 40-76-176z"/><path fill="#545445" d="M886 850l-56-152-176 140z"/><path fill="#573325" d="M614 314l-184-24 44-352z"/><path fill="#61462f" d="M54 850l28-132 300 188z"/><path fill="#f4740e" d="M566 518L270 822l336-156z"/><path fill="#f3ffff" d="M734 450l-64-16 64 72z"/><path fill="#ff960f" d="M222 502l148-148 172 196z"/><path fill="#96a27e" d="M442 474l4-96 80 40z"/><path fill="#011115" d="M638 914l-440 172 524-8z"/><path fill="#510000" d="M270 730l16 64 52-84z"/><path fill="#6d2508" d="M474 942l104-76-232 76z"/><path fill="#ff800a" d="M374 1006l116-104 180-4z"/></g></svg>