<svg xmlns="http://www.w3.org/2000/svg" width="228" height="278" viewBox="0 0 836 1024"><path fill="#614651" d="M0 0h836v1024H0z"/><g fill-opacity=".502"><path fill="#9ce4ff" d="M618 1086l-680-64L90 766z"/><path fill="#860200" d="M14 546l640 540L786 98z"/><path fill="#008dd3" d="M374-62L10 678-62-62z"/><path fill="#004c63" d="M866 422L898-2 306 22z"/><path fill="#3aacdc" d="M898 1026L794 706l-148 320z"/><path fill="#d4000c" d="M634 1086L298 598l-40 272z"/><path fill="#fff4ff" d="M142 1086h464L254 870z"/><path fill="#caa66e" d="M594 866l-72-92 352-220z"/><path fill="#31a5de" d="M538 278L494-2l188 52z"/><path fill="#f3232e" d="M646 242l252 348-440-324z"/><path fill="#2f7294" d="M138 1086l172-388-372 152z"/><path fill="#f5ffff" d="M182 578l100 44-44-108z"/><path fill="#6b0407" d="M330 242l568 200-780 20z"/><path d="M94 722l112-132 96 128z"/><path fill="#2d0000" d="M714 390L478 634l168 104z"/><path fill="#5c9ebf" d="M-62 302l284 44 152-180z"/><path fill="#ff0c39" d="M146 466l188-200-200 120z"/><path fill="#dcffff" d="M694 1006H430l52 80z"/><path fill="#070c0a" d="M898 314L626 214l92-172z"/><path fill="#ad7755" d="M566 374L270 558l324-88z"/><path fill="#1e0a00" d="M290 74l252 40L362-62z"/><path fill="#daa464" d="M14 626l116-108L2 750z"/><path fill="#cc9767" d="M274 98l36 148L434 86z"/><path fill="#00002d" d="M162-38L-62 22l200 32z"/><path fill="#3f140b" d="M114 554l380-88-32-268z"/><path fill="#96abb0" d="M290 738l-204 4 168 104z"/><path fill="#820004" d="M382 958l312 52-456-500z"/><path fill="#4b0000" d="M286 978l52 100-96-100z"/><path fill="#ad9688" d="M470 234l200 8 48 88z"/><path fill="#b9501e" d="M786 726l-52-252 164-68z"/><path fill="#0d72a2" d="M314-62L-62 154l316 156z"/><path fill="#003456" d="M134 466L10 646l88-324z"/><path fill="#905f29" d="M590 642l-224 28-120-232z"/><path fill="#ff2a41" d="M478 234l248 96-252-12z"/><path fill="#fff" d="M146 1078l180-176-76-20z"/><path fill="#2f9add" d="M866 274l32 228-132-168z"/><path fill="#000053" d="M898 162L798-62l4 364z"/><path fill="#55899f" d="M898 714l-224 308 44-260z"/><path fill="#372100" d="M422 174l-148-16 240-48z"/><path fill="#cd0020" d="M414 962L294 638l-24 228z"/></g></svg>