<svg xmlns="http://www.w3.org/2000/svg" width="228" height="278" viewBox="0 0 836 1024"><path fill="#526d87" d="M0 0h836v1024H0z"/><path fill="#3faef8" fill-opacity=".949" d="M618.333 1070.64L584.57 318.582l-370.543 55.534L284.665 1086z"/><path fill="#541c02" fill-opacity=".514" d="M898 345.575V42.699L148.204-62-62 283.945z"/><path fill="#631f06" fill-opacity=".569" d="M17.909 520.673L-62 972.287l296.05-168.981-8.8-283.5z"/><path fill="#bfdbff" fill-opacity=".694" d="M274.468 1086H42.735l96.757-241.961 114.951 2.305z"/><path fill="#290f01" fill-opacity=".541" d="M873.51 1063.798L644.055 633.59l-70.342-144.571 58.599 543.513z"/><path fill="#4bb7fe" fill-opacity=".804" d="M651.345 355.726l108.949 249.638-76.878 40.91-240.435-395.605z"/><path fill="#503636" fill-opacity=".941" d="M737.126 531.381l-201.973-431.26 328.797 9.08 6.446 869.5z"/><path fill="#f99c58" fill-opacity=".518" d="M883.952 1040.088L726.099 826.074l-45.715-164.4 81.395-51.985z"/><path fill="#c18f72" fill-opacity=".749" d="M528.886 287.245L356.982 392.043 507.6 151.996l-226.117-10.86z"/><path fill="#46aef0" fill-opacity=".804" d="M96.848 418.257L-62 482.437l734.833 23.671-404.524-200.65z"/><path fill="#4a3c3c" fill-opacity=".82" d="M94.516 412.5l262.657-155.665L-1.02 68.879l40.187 362.93z"/><path fill="#fb8827" fill-opacity=".506" d="M458.064 461.672l50.478 19.266-47.753 65.756-36.001-55.335z"/><path fill="#3daefc" fill-opacity=".89" d="M191.736 1086l430.166-152.778-214.949-500.07L229.28 927.386z"/><path fill="#1b4477" fill-opacity=".98" d="M641.027 603.273l-56.02 209.058-9.203-3.131 15.925-288.491z"/><path fill="#efbb91" fill-opacity=".788" d="M-62 445.49l16.361 110.046L57.12 507.053l-36.861-65.046z"/><path fill="#ffaf82" fill-opacity=".31" d="M383.752 274.319l-74.682-84.351 7.625-92.395 136.911 36.7z"/><path fill="#001749" fill-opacity=".275" d="M81.885 500.938L-12.896 666.49l257.459-42.635-21.179-191.873z"/><path fill="#221d22" fill-opacity=".561" d="M532.104 112.025l-36.67 41.211-13.732 116.492 173.816 86.027z"/><path fill="#736575" fill-opacity=".725" d="M147.965 670.36l104.58 154.527 15.149-50.477-36.251-183.254z"/><path fill="#0048c4" fill-opacity=".286" d="M507.592 648.246l59.2-169.324 53.576-57.44 94.062 224.714z"/><path fill="#5e5d73" fill-opacity=".996" d="M878.313 11.42L617.555-62 744.49 132.956l40.776-75.919z"/><path fill="#ffd4d2" fill-opacity=".282" d="M59.351 952.08L176.24 1086l80.704-251.768-136.816 41.803z"/><path fill="#0a0903" fill-opacity=".455" d="M384.289 280.043l91.323-147.32-40.434 151.047-68.535 18.039z"/><path fill="#81e0ff" fill-opacity=".506" d="M767.946 610.087l-20.332-13.927-182.796-286.172 104.02 64.836z"/><path fill="#7a6e7d" fill-opacity=".69" d="M14.77-62l146 121.727-83.077 42.348L-62 69.39z"/><path fill="#208cee" fill-opacity=".482" d="M269.86 589.521L118.433 433.59l233.574-151.48-78.495 222.875z"/><path fill="#4f5e5f" d="M763.626 948.964L898 901.504l-123.385 7.102 115.31 100.055z"/><path fill="#c0794f" fill-opacity=".639" d="M464.644 343.636l-92.851 21.042-34.449-35.892 154.528-38.304z"/><path fill="#323c67" fill-opacity=".788" d="M-62 888.766l142.799 3.027-24.522 79.659L34.605 1086z"/><path fill="#4dbffc" fill-opacity=".98" d="M642.002 385.326L475.58 339.61l-232.863 75.833 44.419 125.227z"/><path fill="#853d34" fill-opacity=".545" d="M740.073 549.823L668.921 353.08l46.697-62.754L871.313 439.67z"/><path fill="#924821" fill-opacity=".584" d="M25.108 741.903l5.061 98.86 149.607-50.41-57.294-117.585z"/><path fill="#26242a" fill-opacity=".471" d="M138.859 82.729L46.23 258.027l37.714 81.992L311.588-62z"/><path fill="#302d32" fill-opacity=".541" d="M735.365 250.472l-37.684-178.95-488.064 84.35 264.687-15.434z"/><path fill="#51c0fa" fill-opacity=".698" d="M420.482 1048.325l193.238-22.884 8.262-138.574-191.072-8.475z"/><path fill="#0e0000" fill-opacity=".282" d="M580.005 684.014l160.167-69.524L611.71 774.44l6.145-268.899z"/><path fill="#f9c3ac" fill-opacity=".337" d="M444.83 130.496l33.992 245.263-13.04-196.876L301.87 185.1z"/><path fill="#ffc699" fill-opacity=".306" d="M689.366 653.94l65.594-34.094 15.4 50.917 71.094 192.382z"/><path fill="#0d0b11" fill-opacity=".353" d="M251.465 318.755l174.05-39.7-143.11-32.804 122.948-90.586z"/><path fill="#878191" fill-opacity=".486" d="M78.626 1086L58.758 918.464l217.641-82.31-136.574-7.201z"/><path fill="#00397e" fill-opacity=".443" d="M108.843 552.642l12.003-5.07 182.397-74.026-238.273 20.21z"/><path fill="#655657" fill-opacity=".565" d="M386.455-62L140.117 395.771-62 179.557V540.91z"/><path fill="#233544" fill-opacity=".561" d="M841.093 510.567l30.814 274.286-65.897-23.445-44.436-120.584z"/><path fill="#35acff" fill-opacity=".549" d="M523.275 390.314l188.93 206.763-65.65-206.926-154.43-117.818z"/><path fill="#abfdfd" fill-opacity=".388" d="M898 939.47v-18.13l-133.8 43.24 37.26-41.277z"/><path fill="#9d958e" fill-opacity=".765" d="M558.413 1086h-59.335l15.7-82.828 42.786 13.852z"/><path fill="#1f1803" fill-opacity=".447" d="M352.282 90.52l-50.057 35.374 2.433-69.746 174.897 7.896z"/><path fill="#337dbc" fill-opacity=".996" d="M727.451 512l-97.893 98.834-50.568 211.631 33.535-188.76z"/><path fill="#232b32" fill-opacity=".945" d="M845.928 996.912l-75.143 30.618 5.934-66.844 81.3-4.519z"/><path fill="#171818" fill-opacity=".514" d="M818.153 55.929L898 250.988l-112.465-74.424 15.936-88.74z"/><path fill="#0158d3" fill-opacity=".149" d="M258.561 1086l-20.02-163.195 17.993-113.664 223.15 38.19z"/><path fill="#1b1c27" fill-opacity=".369" d="M570.05 253.344l-91.656 90.944 114-198.42-177.868 82.472z"/><path fill="#000b1e" fill-opacity=".384" d="M172.95 490.189L71.142 554.68l142.919-39.976L84.749 466.68z"/><path fill="#e2be7d" fill-opacity=".188" d="M420.222-24.516L243.782 82.583l141.646-70.596 175.46 68.886z"/><path fill="#e1eaff" fill-opacity=".431" d="M216.613 956.741l-83.345-2.27 37.344-88.265 80.097 13.2z"/><path fill="#543d28" fill-opacity=".329" d="M779.442 889.217L685.548 650.61 596.054 1086h164.32z"/><path fill="#0c0005" fill-opacity=".329" d="M592.4 551.24l28.036 24.33-39.87 141.668 6.111 126.57z"/><path fill="#fdb99e" fill-opacity=".427" d="M326.963 245.404l23.581-19.461 66.14 6.01-43.54 22.043z"/><path fill="#4abaff" fill-opacity=".624" d="M238.92 390.84L63.546 442.467l1.852-10.65 192.3-113.129z"/><path fill="#2781dc" fill-opacity=".765" d="M251.021 335.387l96.337-35.087 5.254 54.709-63.565 41.344z"/><path fill="#ea894b" fill-opacity=".282" d="M328.421 78.346l117.822 63.49-44.428-53.703-22.248 110.413z"/><path fill="#5d534f" fill-opacity=".51" d="M786.77 340.21l-81.032 70.544-112.721-115.228 39.19-51.395z"/><path fill="#289ef9" fill-opacity=".545" d="M581.872 694.293l16.192-102.966-95.219-154.51L458.9 714.99z"/><path fill="#2382d5" fill-opacity=".608" d="M706.342 611.09l-40.798 48.767L559.82 454.866l70.467 19.449z"/><path fill="#ac0006" fill-opacity=".243" d="M422.408 494.623l27.712 29.619.964 22.05 58.233-41.319z"/><path fill="#cd8c56" fill-opacity=".376" d="M765.714 921.458l-65.418-299.315 104.859 171.96 9.503 94.119z"/><path fill="#cc9d72" fill-opacity=".702" d="M470.782 250.278l-8.464 76.477-56.774 38.577 61.442-150.411z"/><path fill="#5d4642" fill-opacity=".6" d="M462.426 226.392L-62 213.236 36.854 62.635l51.999 96.22z"/><path fill="#321f03" fill-opacity=".42" d="M494.867 95.987L361.564 64.435l86.988 74.143 10.173 45.103z"/><path fill="#0958b6" fill-opacity=".471" d="M460.893 695.855l191.673-35.844-152.715 36.92-68.475 53.324z"/><path fill="#2b7dca" fill-opacity=".624" d="M156.138 487.29l123.746 55.257L102.841 434.01 48.96 513.613z"/><path fill="#e7b19b" fill-opacity=".541" d="M375.15 146.29l-58.143 64.87-8.172-48.146 141.883 34.472z"/><path fill="#463835" fill-opacity=".275" d="M190.788 716.807l82.24 119.525-76.94-7.635L16.72 964.826z"/><path fill="#4d0707" fill-opacity=".271" d="M67.245 713.199l45.916-34.707-71.283-77.446L-62 1024.244z"/><path fill="#533f32" fill-opacity=".447" d="M243.908 651.68l-12.289-109.94-265.744-15.862L79.77 620.736z"/><path fill="#3d5171" fill-opacity=".482" d="M298.203 41.913l7.543 100.74-77.275 24.844-7.108-90.56z"/><path fill="#ffff7d" fill-opacity=".357" d="M436.689 479.676l38.003-18.67 30.516 33.56-64.62 4.962z"/><path fill="#271502" fill-opacity=".275" d="M363.588 178.04l46.723 34.57-64.513 161.05 73.44-94.554z"/><path fill="#5fd7ff" fill-opacity=".286" d="M344.82 869.516l-20.618 99.457 95.5-95.496-183.576-306.495z"/><path fill="#1583f0" fill-opacity=".62" d="M447.828 834.911l-123.737 167.554 154.286-152.14 19.156-47.482z"/><path fill="#000a14" fill-opacity=".165" d="M-62 196.502l113.469 74.532 20.358 195.989 77.313-256.227z"/><path fill="#2c2025" fill-opacity=".435" d="M671.27 873.643l-42.747-279.207L613.36 889.6l59.609 118.506z"/><path fill="#4ec2fe" fill-opacity=".875" d="M435.527 546.33l3.09-115.25 58.45-127.615-201.72 199.87z"/><path fill="#54000d" fill-opacity=".275" d="M782.864 530.614L771.15 381.926 898 285.588v135.415z"/><path fill="#91f0ff" fill-opacity=".42" d="M741.372 608.116l-1.304-64.43-46.608-64.618-87.049-164.347z"/><path fill="#36adff" fill-opacity=".6" d="M393.39 844.144l-136.513-321.98 213.577 10.832 150.9-158.368z"/><path fill="#d6a98c" fill-opacity=".471" d="M773.893 695.335l-12.003-79.268-32.782 25.912-66.819 25.489z"/><path fill="#78a3ff" fill-opacity=".153" d="M-46.176 361.646l96.248-.731-3.286-104.828L-62 311.075z"/><path fill="#5d4746" fill-opacity=".698" d="M497.85 20.972l82.895-10.054 193.369-61.095L500.29 151.69z"/><path fill="#b3022e" fill-opacity=".412" d="M445.76 333.424l10.61 4.287 18.682-7.005 22.171-46.733z"/><path fill="#ffb9a8" fill-opacity=".059" d="M74.506 753.419l6.715 42.809 191.86-132.02-170.63-73.03z"/><path fill="#e9ac8c" fill-opacity=".349" d="M497.325 193.922l-132.633-51.916 40.985 80.919 77.634-69.421z"/><path fill="#012b6f" fill-opacity=".184" d="M133.493 38.138l-81.21 83.465 87.606 95.832L153.405 62.9z"/><path fill="#74d0f2" fill-opacity=".675" d="M593.697 361.502l-89.57-84.477 74.125 49.226 54.73 17.115z"/><path fill="#000529" fill-opacity=".306" d="M640.216 610.36l-78.292-67.902 50.878 3.197-25.98 76.853z"/><path fill="#99693b" fill-opacity=".353" d="M427.412 296.692L411.64 315.83l-46.935 54.906-30.432-59.676z"/><path fill="#372d33" fill-opacity=".647" d="M306.812 100.365l-50.884 190.897-39.243 46.649 93.842-51.043z"/><path fill="#3c3936" fill-opacity=".718" d="M745.731 913.145l-127.68 53.344 5.36 51.592 226.971-118.114z"/><path fill="#834d38" fill-opacity=".443" d="M751.282 402.341l-70.373-9.81L787.608 660.84l-2.084-85.962z"/><path fill="#41a9ed" fill-opacity=".737" d="M591.092 961.749L578.162 1086l33.368-276.926-15.969-94.21z"/><path fill="#2e1407" fill-opacity=".192" d="M139.08 391.006l-79.839 38.99L-62 452.246l81.207-71.028z"/><path fill="#8df" fill-opacity=".431" d="M49.126 447.485l-75.919.524 135.86-23.906-87.725 30.976z"/><path fill="#847f91" fill-opacity=".62" d="M-45.504 2.642l149.97 31.477L81.93 78.478-62 42.503z"/><path fill="#6e5547" fill-opacity=".365" d="M153.024 151.034l95.225-31.921 12.222 74.396-63.322 165.687z"/><path fill="#72644d" fill-opacity=".475" d="M69.334 502.02l.078 10.804-116.585 187.814L-62 538.125z"/><path fill="#2a94f0" fill-opacity=".522" d="M248.639 894.84l25.551-167.05 37.216 64.534 82.561 92.897z"/><path fill="#4c4856" fill-opacity=".549" d="M896.38-62L746.01 95.727l-97.69-82.492 99.669 154.756z"/><path fill="#cb9372" fill-opacity=".463" d="M383.552 87.627l3.086 25.333-58.554 96.753 46.763-115.306z"/><path fill="#2588e5" fill-opacity=".761" d="M230.856 394.24l-12.812 115.483 79.454 134.828-53.544-177.182z"/><path fill="#1f1f27" fill-opacity=".451" d="M647.784 621.823l-33.756 41.775-15.1 104.197 81.763-22.459z"/><path fill="#4d2919" fill-opacity=".388" d="M315.843 219.904l-43.147 37.056 77.91-68.89 114.045 47.06z"/><path fill="#401604" fill-opacity=".392" d="M735.945 628.896l41.081-32.248-71.69 37.194-37.18 29.013z"/><path fill="#18284e" fill-opacity=".667" d="M579.97 686.958l-3.533 14.66 35.222-122.944-32.221 244.23z"/><path fill="#4ac0ff" fill-opacity=".529" d="M574.572 793.46l-188.537 37.198 113.162-133.102 63.272-2.029z"/><path fill="#7881a7" fill-opacity=".298" d="M701.494 25.264l-4.06 13.267 37.838 46.565L872.546-62z"/><path fill="#524143" fill-opacity=".616" d="M569.293 314.433l77.361 29.613 51.31 95.005-43.705-313.916z"/><path fill="#b09561" fill-opacity=".298" d="M345.882 12.006l43.236 58.535-71.684-40.402 331.721-74.59z"/><path fill="#361c0c" fill-opacity=".247" d="M84.58 861.803L252.423 795.6l-4.466 35.996-147.32-39.133z"/><path fill="#aba7b3" fill-opacity=".227" d="M108.48 867.228L65.957 997.176 232.895 835.09l-68.373-10.117z"/><path fill="#00040b" fill-opacity=".49" d="M191.036 515.598l-64.61 19.194 3.026-15.077 12.015-16.975z"/></svg>