<svg xmlns="http://www.w3.org/2000/svg" width="228" height="278" viewBox="0 0 836 1024"><path fill="#656669" d="M0 0h836v1024H0z"/><path fill="#babfbf" fill-opacity=".749" d="M256.945 367.08l29.777 574.83L898 881.108 597.04 317.281z"/><path fill="#2c2a2d" d="M872.137 802.919L836.027-62-62 28.144l776.69 371.435z"/><path fill="#0d1118" fill-opacity=".831" d="M-28.901 321.823L378.53 353.86 198.087-62H-62z"/><path fill="#00020d" fill-opacity=".525" d="M-52.64 768.544l311.761-134.045 34.183 450.277-310.738-99.668z"/><path fill="#f8eeea" fill-opacity=".804" d="M207.467 381.129l-75.601 107.777-115.281-23.754 63.38-118.054z"/><path fill="#bbbcbc" fill-opacity=".996" d="M310.591 587.01l-221.473-.337-89.874 54.19-52.37 106.849z"/><path fill="#9be0fd" fill-opacity=".514" d="M898 633.985l-315.7 386.23-377.599-14.368L841.463 1086z"/><path fill="#856851" d="M348.235 319.198l215.602 5.54-153.026-235.94-79.694-.12z"/><path fill="#666869" fill-opacity=".675" d="M593.383 568.162L339.851 552.91l-137.34 90.843 454.13 111.566z"/><path fill="#fffdfe" fill-opacity=".427" d="M568.981 336.017l166.264 127.49-516.724 38.03-12.447-85.49z"/><path fill="#d6d4d2" fill-opacity=".682" d="M285.618 786.24l292.94-168.835-276.332 439.69-13.95-33.033z"/><path fill="#2e3020" fill-opacity=".525" d="M674.954 814.62l-260.562 194.854 393.004-241.706-55.33-20.078z"/><path fill="#010109" fill-opacity=".302" d="M585.827 805.72l-205.52 7.033 253.686-124.616-87.406-176.444z"/><path fill="#16171a" fill-opacity=".816" d="M-32.658-62h352.936l-1.763 396.41-56.42 86.623z"/><path fill="#431707" fill-opacity=".408" d="M503.4 948.78l-98.184-20.379 84.561-69.49L718.097 1086z"/><path fill="#25375c" fill-opacity=".933" d="M565 332.94l125.815 88.306L898 787.154l-31.996-386.428z"/><path fill="#bbbabb" fill-opacity=".737" d="M310.588 519.875l-66.775 52.684 1.794-199.24-117.26-55.054z"/><path fill="#1b0a00" fill-opacity=".596" d="M62.888 470.266l-38.859 3.103 127.823 113.416 49.98-18.458z"/><path fill="#f0eae3" fill-opacity=".353" d="M387.94 502.068l70.155 152.167 164.439-260.792-89.01-102.634z"/><path fill="#795535" fill-opacity=".549" d="M385.52 393.01l46.751-276.51 84.389-14.27 19.903 204.586z"/><path fill="#010302" fill-opacity=".471" d="M-57.333 947.47L257.92 838.6l18.087-52.62L-62 743.084z"/><path fill="#1c2647" fill-opacity=".816" d="M-62 475.157L204.338 228.13l-242.972 64.754 84.948 316.563z"/><path fill="#171a1c" fill-opacity=".745" d="M512.523 40.614l32.876 209.67L898 397.815l-14.115-443.76z"/><path fill="#f9f9fd" fill-opacity=".404" d="M282.155 846.386l16.873 126.618L500.62 759.55l42.436 118.4z"/><path fill="#3e455b" fill-opacity=".941" d="M285.04 1016.335L-62 1068.173l88.024-140.064 205.584-3.672z"/><path fill="#e5e2e5" fill-opacity=".322" d="M758.827 763.232L667.716 382.37l111.362 244.802-275.959 260.614z"/><path fill="#bc8563" fill-opacity=".384" d="M310.636 1065.548L603.155 1086l-123.17-216.186-103.409 21.74z"/><path fill="#e5e8d5" fill-opacity=".408" d="M61.468 564.301l93.35-36.128-123.381-3.789L-7.95 412.465z"/><path fill="#46292b" fill-opacity=".871" d="M-62 691.252l78.862-282.763-52.577 67.69L80.003 582.116z"/><path fill="#515463" fill-opacity=".961" d="M578.098 588.79l-57.025 178.823 1.714 77.958 60.434-101.155z"/><path fill="#6f010a" fill-opacity=".541" d="M199.755 505.46l-51.116-82.061 64.268-12.948-9.588 80.561z"/><path fill="#000b07" fill-opacity=".153" d="M399.749 500.11l-61.205 31.033L257.49 765.08l182.26-91.782z"/><path fill="#a38b7b" fill-opacity=".729" d="M316.45 195.526l135.87 228.567h-79.413l30.487-239.067z"/><path fill="#d2d2d3" fill-opacity=".71" d="M100.125 585.186l-67.988 38.68 125.755 42.26 77.983-28.96z"/><path fill="#fffeff" fill-opacity=".396" d="M390.898 337.16l-92.39 30.662-28.866 101.964 110.611-1.585z"/><path fill="#9e9fa0" fill-opacity=".816" d="M708.417 438.86l30.933 116.53-236.397 2.892 141.41-169.644z"/><path fill="#f9e8ff" fill-opacity=".22" d="M.167 420.634l51.467 122.581-51.187-53.02 189.985-233.947z"/><path fill="#172220" fill-opacity=".294" d="M396.527 961.5l317.012-77.014-240.932 23.512 211.166 66.179z"/><path fill="#121617" fill-opacity=".824" d="M92.647 490.101l-59.895-9.357 7.089 40.654 99.163 5.807z"/><path fill="#7ebcd8" fill-opacity=".529" d="M893.684 1086L642.607 928.802l-2.539-47.064 114.07-84.258z"/><path fill="#d2b194" fill-opacity=".525" d="M365.027 150.77l-39.272-5.99 44.615-58.397 36.005 39.503z"/><path fill="#5b656d" fill-opacity=".867" d="M638.948 764.215l32.338-34.856-36.985-28.05-23.378 80.935z"/><path fill="#e6efe7" fill-opacity=".392" d="M7.582 469.57l99.11-139.053 17.067 226.923 47.069-140.567z"/><path fill="#1c2b48" fill-opacity=".824" d="M138.713 183.655L278.96 431.57l-66.899-82.549-170.142-45.344z"/><path fill="#565149" fill-opacity=".475" d="M47.992 721.992l141.195 79.027 96.604-96.95-178.822-50.518z"/><path fill="#afaba1" fill-opacity=".753" d="M466.148 468.48l-49.045 49.241L543.561 753.57l-60.456-289.81z"/><path fill="#81796f" fill-opacity=".694" d="M518.527 20.553L415.38 23.546l87.08-44.15L364.142-62z"/><path fill="#dfdfe4" fill-opacity=".467" d="M535.797 888.41l-28.493-31.905 231.444-160.2-91.676 126.766z"/><path fill="#c3c5c4" fill-opacity=".592" d="M221.724 555.573L96.157 669.429l429.432-301.88-20.991 1.59z"/><path fill="#f6f3f2" fill-opacity=".337" d="M382.261 962.358L316.212 1086l147.325-136.634L242.309 1086z"/><path fill="#fff6f2" fill-opacity=".22" d="M607.658 685.65l10.645-34.622L719.18 585.25l-.602 142.821z"/><path fill="#e6e7e3" fill-opacity=".463" d="M282.934 745.789l-12.558 84.62 68.605 17.763-59.693-177.817z"/><path fill="#1a253a" fill-opacity=".565" d="M556.844 322.524l97.35-222.84L898 466.402 578.159 348.615z"/><path fill="#16230e" fill-opacity=".341" d="M597.358 911.664l139.74-145.309 53.128 15.44-195.764 110.62z"/><path fill="#fcf3ff" fill-opacity=".345" d="M184.02 414.414l80.163-19.347-158.116-73.474 118.408 38.351z"/><path fill="#1e2b3f" fill-opacity=".557" d="M568.667 1026.366L480.48 851.244l111.791 110.838-1.588-45.863z"/><path fill="#c9eef4" fill-opacity=".302" d="M455.437 1026.496l-10.352 31.637 86.15-86.016 1.807-42.741z"/><path fill="#0b0a02" fill-opacity=".612" d="M581.563 91.755l-60.076-46.608L409.64 31.27l-37.212 45.906z"/><path fill="#eaeaf0" fill-opacity=".42" d="M545.034 334.866l-42.5 52.839-197.47 95.324 382.269-72.433z"/><path fill="#684d41" fill-opacity=".965" d="M528.503 879.82L383.81 1038.595l140.699-102.391-123.11 146.445z"/><path fill="#0e1202" fill-opacity=".243" d="M551.384 561.125l-52.775-17.311 105.988 147.005 4.383-73.922z"/><path fill="#7d5c4a" fill-opacity=".49" d="M865.965 646.385L683.768 848.277l109.147-129.84-47.96-163.172z"/><path fill="#5f4d37" fill-opacity=".427" d="M157.68 853.547l-28.611 215.903 157.39-56.155-67.696-169.454z"/><path fill="#22242d" fill-opacity=".576" d="M521.109 242.025L250.558 396.092l-73.6-88.247 205.988 33.708z"/><path fill="#1a0c00" fill-opacity=".431" d="M184.913 581.14l-50.562-67.19 57.434-56.033-86.312 134.672z"/><path fill="#002b90" fill-opacity=".302" d="M-62 931.42l155.577 96.846 34.164-118.412-131.758-16.7z"/><path fill="#2a2606" fill-opacity=".243" d="M393.928 823.382l131.745-80.1-80.752 63.152-57.68 49.155z"/><path fill="#acadae" fill-opacity=".749" d="M459.49 664.52l89.24 63.26-185.47 14.92 87.09-84.8z"/><path fill="#e5e5e7" fill-opacity=".494" d="M-62 868.93l83.532-180.256L-62 681.009l146.002-87.171z"/><path fill="#332e2b" fill-opacity=".49" d="M278.459 574.12l-1.033 206.029-265.619-52.38L189.69 834.665z"/><path fill="#b0b5b5" fill-opacity=".631" d="M289.76 619.024l15.816-188.684 22.27 179.85 56.759 9.068z"/><path fill="#241b16" fill-opacity=".725" d="M351.875 65.767L198.64 211.323l182.196 17.139-74.18 11.755z"/><path fill="#474c50" fill-opacity=".859" d="M427.374 621.826l3.738 67.84-72.677-19.719 16.905-37.929z"/><path fill="#cbccd1" fill-opacity=".765" d="M568.88 341.096l-166.33 25.087 57.587 16.493 87.155-85.763z"/><path fill="#032a7d" fill-opacity=".161" d="M683.101 508.393L898 230.134V556.21l-243.846 16.398z"/><path fill="#868b87" fill-opacity=".573" d="M573.642 911.607l142.575 30.86-93.93 71.67-64.17-142.905z"/><path fill="#506071" fill-opacity=".294" d="M418.811 430.97l-54.587-43.14 90.425-1.42 52.035-8.458z"/><path fill="#a8d0e3" fill-opacity=".808" d="M767.996 802.098l57.565-76.512L898 868.55l-231.03-15.076z"/><path fill="#6b4e37" fill-opacity=".761" d="M554.276 150.94l-89.417 27.327-73.83 186.385 71.886-62.436z"/><path fill="#e3e4df" fill-opacity=".765" d="M160.313 364.802l13.172 36.39-55.353 106.056-58.98-140.637z"/><path fill="#91949a" fill-opacity=".784" d="M539.142 945.835l2.19-227.734 49.13-89.732-56.104 133.899z"/><path fill="#020c30" fill-opacity=".333" d="M427.09 685.623l66.424-.897-28.815-30.744 10.201 43.993z"/><path fill="#bf9599" d="M39.612 397.664l-27.317 22.164-2.56 47.16 48.786-61.859z"/><path fill="#150b0a" fill-opacity=".486" d="M34.943 503.586l63.583-29.779 58.907 102.71 10.644-27.385z"/><path fill="#684738" fill-opacity=".984" d="M524.105 912.248l-162.561 89.984 78.931-65.066 64.211 34.133z"/><path fill="#212546" fill-opacity=".337" d="M530.485 743.627l50.61 60.788-42.548 30.322 9.093-158.77z"/><path fill="#d1d2d5" fill-opacity=".992" d="M536.194 770.549l8.636 100.64-144.629-22.023 133.69.725z"/><path fill="#e0b697" fill-opacity=".357" d="M366.7 192.822l78.628-21.6-13.711 24.484-70.077 60.834z"/><path fill="#aeafb0" fill-opacity=".863" d="M580.186 566.719l33.28 77.579 181.279 81.913-38.97-110.982z"/><path fill="#001617" fill-opacity=".353" d="M212.984 441.801l-68.17-4.324 40.073 37.053-22.592 96.193z"/><path fill="#1c335f" fill-opacity=".714" d="M.22 477.474L38.34 353.57l107.885-23.61-199.575-31.023z"/><path fill="#ffdcac" fill-opacity=".208" d="M417.372 344.096l49.39-66.154 35.082 69.498-95.997 45.388z"/><path fill="#f6393d" fill-opacity=".439" d="M162.167 420.22l52.088 38.206-.727-57.77 10.733 2.348z"/><path fill="#c8c8c7" fill-opacity=".306" d="M436.593 641.724l130.238-20.372-48.605 153.025-109.554-312.09z"/><path fill="#606b61" fill-opacity=".306" d="M169.205 596.325l122.218-48.241-91.653 93.34 103.358-331.452z"/><path fill="#141418" fill-opacity=".412" d="M273.216 280.882L-62 139.88l492.546 46.618-68.569-39.308z"/><path fill="#3f0207" fill-opacity=".341" d="M114.869 337.946l-.113 18.166 57.073-.6 56.945 49.71z"/><path fill="#dddfde" fill-opacity=".424" d="M298.991 750.467l219.28-2.292-90.44 24.298-136.89 260.436z"/><path fill="#c8b3ae" fill-opacity=".663" d="M21.654 456.636l122.362 38.012 38.812-24.827-126.138 7.372z"/><path fill="#aaabaf" fill-opacity=".659" d="M562.822 907.82L550.57 691.592l14.558 92.184-13.953 96.578z"/><path fill="#220" fill-opacity=".282" d="M704.645 823.458l-56.241-36.172 121.185 14.317 5.204-8.559z"/><path fill="#13120f" fill-opacity=".678" d="M818.04-62L657.51 31.946l-173.66 83.605 337.334-41.732z"/><path fill="#364645" fill-opacity=".482" d="M615.783 1009.635l-131.18-7.153 143.845-54.53-50.346-21.747z"/><path fill="#dcdbda" fill-opacity=".624" d="M84.673 582.21l11.175-3.318L-62 686.352 125.696 587.4z"/><path fill="#9ca6a1" fill-opacity=".341" d="M-26.078 654.73l88.31 79.702 36.398-19.961 8.926-18.442z"/><path fill="#e2e1e3" fill-opacity=".714" d="M315.98 917.22l186.752-106.747 23.753 42.974-63.722 6.861z"/><path fill="#9da49e" fill-opacity=".498" d="M427.285 1003.044l29.181-27.81 13.744 61.112 122.444-21.485z"/><path fill="#22211d" fill-opacity=".639" d="M260.893 745.26l22.829 130.75-7.156 61.702-65.3-156.907z"/><path fill="#dddcdc" fill-opacity=".651" d="M193.647 415.135l-17.224-75.86 37.22 14.924-69.453 46.32z"/><path fill="#696c5e" fill-opacity=".996" d="M204.382 578.347l-34.81-44.333-48.005-8.237 139.57-17.818z"/><path fill="#f9ffde" fill-opacity=".227" d="M27.555 523.084l16.645 26.78 31.035 22.807-104.383-173.726z"/><path fill="#8e928f" fill-opacity=".71" d="M696.505 703.69l67.808 8.813-171.648 182.151 179.696-164.24z"/><path fill="#969793" d="M579.553 604.44l-65.426 9.552-8.652-58.169-80.003 48.384z"/><path fill="#e1bfa2" fill-opacity=".286" d="M361.163 86.155l-37.215 136.88 31.375-61.574-34.965-9.237z"/><path fill="#cfcfd1" fill-opacity=".404" d="M474.171 456.528l80.264 97.321 48.755-170.063 115.289 58.543z"/><path fill="#dfdfe0" fill-opacity=".71" d="M262.76 424.372l172.99 70.86-67.532-135.434-49.8-.186z"/><path fill="#a8aba7" fill-opacity=".404" d="M247.878 633.185l42.093-54.2-113.162 2.996-24.974 93.159z"/><path fill="#2a2b25" fill-opacity=".576" d="M566.362 143.848L535.823-38.905l239.832 435.239-4.595-295.683z"/><path fill="#273c66" fill-opacity=".827" d="M898 586.006L719.844 390.8l9.646 136.418 25.15 44.393z"/><path fill="#010624" fill-opacity=".396" d="M536.066 744.16l9.992-21.157-25.061 16.139 4.293 100.783z"/></svg>