<svg xmlns="http://www.w3.org/2000/svg" width="228" height="278" viewBox="0 0 836 1024"><path fill="#878384" d="M0 0h836v1024H0z"/><g fill-opacity=".502"><path fill="#fff" d="M730 998L430 118l-12 968z"/><path d="M638 722l260 20-116 344z"/><path fill="#14242e" d="M-62 922l436-216 64 380z"/><path fill="#030000" d="M458 214L390-62 202 50z"/><path fill="#fff" d="M346 318l428 316-300-408z"/><path fill="#b14620" d="M250 442l212-252L214 62z"/><path fill="#334b5e" d="M-62 682l140 404 40-920z"/><path fill="#fcfaff" d="M462 362l260 592-208 60z"/><path fill="#d1dbf2" d="M294 810l-40 276h96z"/><path fill="#b45636" d="M478 470l-156 16L70 158z"/><path fill="#c6c4d0" d="M742 514L350 754l64-276z"/><path fill="#0d222d" d="M818 1018l80-416-240 484z"/><path fill="#8b8376" d="M538 314l-108-56-4-256z"/><path fill="#866759" d="M898 526L578 682l-4-96z"/><path fill="#0e0000" d="M430 162L202 22l200-8z"/><path fill="#4488c5" d="M10-62l76 448-148 312z"/><path fill="#17232a" d="M322 754l-140 332-4-312z"/><path fill="#f0b198" d="M166 230l284 204-136-20z"/><path fill="#1f2b6f" d="M374 358l88 108-20-96z"/><path fill="#fff" d="M342 354l248 12-180-116z"/><path fill="#2b0a00" d="M342 490L230 390l184 92z"/><path fill="#69655d" d="M106 506l92 580-260-88z"/><path fill="#1a2532" d="M590 546l-12 88-20-152z"/><path fill="#191b22" d="M422 898L302 766l100 320z"/><path fill="#f0eaf0" d="M610 670l-24-276 88 96z"/><path fill="#200000" d="M366 286h-88l56 64z"/><path fill="#797871" d="M898 742H658L790-62z"/><path fill="#383d4a" d="M594 442l-40 56 12-92z"/><path fill="#b99a8f" d="M230 266L62 174 210-62z"/><path fill="#853b2c" d="M174 282L78 70 50 202z"/><path fill="#303038" d="M18 1074l-80-212 164-24z"/><path fill="#a39d98" d="M234 382l-20 324 248 64z"/><path fill="#a45537" d="M634 742l-16-160 48-8z"/><path fill="#dc7e59" d="M318 82l100 176-112 4z"/><path fill="#fff" d="M686 1086l-48-324 76 168z"/><path fill="#185189" d="M66 650L-62 526 70 414z"/><path fill="#2c1811" d="M322 166l-120-16 84-32z"/><path fill="#888b87" d="M186 846l-64-196 12 408z"/><path fill="#9bc0dc" d="M10 374l-72-236 120 52z"/><path fill="#496176" d="M54 186l68-248-184 96z"/></g></svg>