<svg xmlns="http://www.w3.org/2000/svg" width="228" height="278" viewBox="0 0 836 1024"><path fill="#3c475b" d="M0 0h836v1024H0z"/><g fill-opacity=".502"><path fill="#f7ccce" d="M218 798L22 1086l-84-596z"/><path fill="#000211" d="M378 1086l428-676-716-16z"/><path fill="#00061c" d="M110 1026l488-432 88 492z"/><path fill="#b59a99" d="M858 1086L654 986l100-480z"/><path fill="#6286a9" d="M814 598l72-632-316-28z"/><path fill="#987b87" d="M-62 50l604 368-76-284z"/><path fill="#476789" d="M438-46L-62 6 66 598z"/><path fill="#ffdbe3" d="M162 858L-58 510l-4 216z"/><path fill="#001730" d="M50 602l588 68-340-384z"/><path fill="#173f58" d="M-62 942V714l212 204z"/><path fill="#fff" d="M66 558l32-108 32 48z"/><path fill="#001734" d="M142 1086l96-372 576 28z"/><path fill="#7e7730" d="M718 662l-560-16 280 84z"/><path fill="#a18391" d="M766 634l-24 112-216-244z"/><path fill="#000c28" d="M534 286l96 380 96-276z"/><path fill="#b3be97" d="M-58 1010l160 76 64-176z"/><path fill="#5d688a" d="M202 578l-4 192-140-56z"/><path fill="#88514b" d="M478 458l100-324-256 172z"/><path fill="#324e71" d="M742 798l76-416 76 600z"/><path fill="#cf9597" d="M334 302l-16-176h112z"/><path fill="#0e060b" d="M506 206L394 42l164 60z"/><path fill="#b3bdcd" d="M574 602l-24-60 68-16z"/><path fill="#b9cba4" d="M670 962l84 124 144-136z"/><path fill="#00162e" d="M198 634l92 452 400-100z"/><path fill="#2c4b68" d="M370 174l-244-12-172 480z"/><path fill="#8f95ae" d="M122 6l516 8-256-76z"/><path fill="#011322" d="M386 354l-216 24-92 328z"/><path fill="#8a7a69" d="M366 550l-96 28 68-96z"/><path fill="#e7a1bc" d="M702 790l-44 52 152 12z"/><path fill="#001b39" d="M730 390l-188-84-76 320z"/><path fill="#deb924" d="M302 642l-44-20 8 76z"/><path fill="#f0b3c5" d="M226 790L-2 746l104 108z"/><path fill="#31587a" d="M526 278l252 148L606-38z"/><path fill="#f8b7b8" d="M-62 642l180 16-76-56z"/><path d="M742 546l-56-184 4 244z"/><path fill="#52373a" d="M410 422l68-112-164-24z"/><path fill="#4b2829" d="M426 226l8-60-104 28z"/><path fill="#fff" d="M102 538l20-40-24-36z"/><path fill="#c18d90" d="M666 746l104-228-8 168z"/><path fill="#00182e" d="M606 1014l40-476-312 516z"/></g></svg>