<svg xmlns="http://www.w3.org/2000/svg" width="228" height="278" viewBox="0 0 836 1024"><path fill="#69483f" d="M0 0h836v1024H0z"/><g fill-opacity=".502"><path fill="#e8ffff" d="M194 558L90 1070l688 12z"/><path fill="#480000" d="M898 2L-62-10l496 804z"/><path fill="#dc795f" d="M510-62l72 252-644 488z"/><path fill="#f7ebd0" d="M90 478l48 508L-6 606z"/><path d="M894 482L466 138 826-62zM362-62L-62 402l440-188z"/><path fill="#002e28" d="M498 742l192 344 208-400z"/><path fill="#a80000" d="M298 234l516 156L98 630z"/><path fill="#bca98f" d="M326 526l384 12-44 152z"/><path fill="#e9f2ff" d="M402 1086l284-4-200-308z"/><path fill="#b6bca7" d="M586 130L466-62 366 98z"/><path fill="#920000" d="M558 598l-336 16 308 200z"/><path fill="#181d00" d="M6-38L-6 590 450-42z"/><path fill="#e5f1ff" d="M242 666l-136 420 160-192z"/><path fill="#000200" d="M898-46l-76 468L474-62z"/><path fill="#00110e" d="M-26 514l-36 360 176 144z"/><path fill="#8d9db6" d="M218 634l116 452 228-252z"/><path fill="#230000" d="M402 454l-172-40 72 244z"/><path fill="#b9e8ff" d="M214 346l20 64h-92z"/><path fill="#a3acb7" d="M270 486l-12 196L98 838z"/><path fill="#1e0200" d="M806 514l-200-64 292 220z"/><path fill="#aa7963" d="M810 626L566 406l-20 280z"/><path fill="#b1937f" d="M822 538l76-116-220-20z"/><path d="M386 206l-236 96L370-62z"/><path fill="#7f684d" d="M542 350L366 162 570 26z"/><path fill="#ff3224" d="M194 342l84 52 52-164z"/><path fill="#814a00" d="M74 494l112-136-248-84z"/><path fill="#63757c" d="M190 638l244 148-176-196z"/><path fill="#9d0d07" d="M746 470l-276 68 80-304z"/><path fill="#bda58c" d="M414 290L382 54 490-62z"/><path fill="#da0000" d="M134 426l80 172 32-160z"/><path fill="#1b3636" d="M898 1066L522 694l376 20z"/><path fill="#60a32c" d="M678 1086l-56-124 276 28z"/><path fill="#bc9987" d="M14 654l208 208-132 32z"/><path fill="#c90000" d="M546 618l-12 204-80-68z"/><path fill="#222300" d="M566 102l308 332-180-36z"/><path fill="#ba5b56" d="M650 506l-260-52 196-28z"/><path fill="#d7ddbc" d="M158 498L10 558l104-92z"/><path fill="#f2fcff" d="M182 1010l-76 76 12-192z"/><path fill="#c2c5d1" d="M546 842L382 970l48-216z"/></g></svg>