<svg xmlns="http://www.w3.org/2000/svg" width="228" height="278" viewBox="0 0 836 1024"><path fill="#757379" d="M0 0h836v1024H0z"/><g fill-opacity=".502"><path fill="#ebf7ff" d="M218 1086l-36-764 548 36z"/><path fill="#150305" d="M14-62L898 50-62 410z"/><path fill="#120414" d="M898 42L478 218l300 212z"/><path fill="#e5f3ff" d="M206 1022l332-92-336-392z"/><path fill="#251b29" d="M218 1086L114 430-62 858z"/><path fill="#f8ffff" d="M-62 374l384-24L26 514z"/><path fill="#504d40" d="M542 854l356-200-664-108z"/><path fill="#e6f1ff" d="M866 506L486 262l176 288z"/><path fill="#d6c3d2" d="M566 718l48 368 284-100z"/><path fill="#632e0d" d="M602-62L490 418l-124-44z"/><path fill="#a26c51" d="M598 158L378 366 342 90z"/><path fill="#8b9ba4" d="M534 886l-64-304-204 228z"/><path fill="#004f28" d="M602 1086l-48-388-52 328z"/><path fill="#becedc" d="M494 762L218 966l312 40z"/><path fill="#281a27" d="M-50 494l248 40L-2 698z"/><path fill="#dfe8ff" d="M322 302l-24 236 256 36z"/><path fill="#3a8c6a" d="M574 386l16 216-120-220z"/><path fill="#3c3543" d="M186 542l-248 536 268-224z"/><path fill="#efffff" d="M662 338l-116-32 192 216z"/><path fill="#38353e" d="M898-62v532L278-62z"/><path fill="#562600" d="M698 538l172 200-112 12z"/><path fill="#2b6d54" d="M394 918l324 168-160-168z"/><path fill="#008144" d="M62 1086h668L334 978z"/><path fill="#b6d6ea" d="M406 454l-44-160-284 68z"/><path fill="#eaf2f9" d="M470 1006l-284-56 24-96z"/><path fill="#412b1c" d="M450 230l68 156-136 32z"/><path fill="#fffad5" d="M774 522l8 124 48 24z"/><path fill="#292a34" d="M398 250l-104 84L-30 6z"/><path fill="#c47c98" d="M690 794l208 4-72 288z"/><path fill="#3f3d4a" d="M730 738l-132 72 40-328z"/><path fill="#bc4f5d" d="M462 554l-240 24 220 64z"/><path fill="#959ea2" d="M410 386L-62 494l256 16z"/><path fill="#707d86" d="M370 922l-128 8-24 56z"/><path fill="#4b414b" d="M706-62l192 456-184 52z"/><path fill="#c6cad4" d="M582 990l208-156-192 12z"/><path fill="#00582a" d="M618 1086l16-112-240 56z"/><path fill="#fff" d="M562 306l-56 88 16-88z"/><path fill="#eef1fc" d="M190 594l72-96-28 336z"/><path fill="#f0f0ff" d="M678 562l64-88-96-104z"/><path fill="#403a44" d="M526-62l28 404L894-14z"/></g></svg>