<svg xmlns="http://www.w3.org/2000/svg" width="228" height="278" viewBox="0 0 836 1024"><path fill="#8d9190" d="M0 0h836v1024H0z"/><g fill-opacity=".502"><path fill="#2a241d" d="M-62 386L14-62l884 96z"/><path fill="#fff3ac" d="M634 542l-164 544 428-92z"/><path fill="#afedff" d="M-26 542l260-284 356 376z"/><path fill="#70d0ff" d="M182 998l20-432 536 520z"/><path fill="#ffbb50" d="M46 1086l180-412-256-164z"/><path fill="#ed6a05" d="M898 942L542 766l232-284z"/><path fill="#82ccff" d="M886 474L94 694l732-464z"/><path fill="#851e00" d="M346 422L538-62l-8 512z"/><path fill="#ffaf62" d="M446 130L274 94l96 356z"/><path fill="#fff" d="M642 1086l256-128-312-136z"/><path fill="#236996" d="M510 898L282 678l340-148z"/><path fill="#2e628a" d="M474 326L738-62l160 320z"/><path fill="#05253b" d="M698 450l132 284-224-212z"/><path fill="#ffffca" d="M170 598l-96 48 56 336z"/><path fill="maroon" d="M122 598l-96-56 28 128z"/><path d="M-62 994l108 92-32-240z"/><path fill="#090400" d="M502 14L330 58l224 144z"/><path fill="#4b789b" d="M258 126l-276 52-44 492z"/><path fill="#ffb450" d="M38 1082l216-16L18 734z"/><path fill="#c1ebff" d="M310 290L54 386l372 160z"/><path fill="#a1e3ff" d="M758 378l-172-48-184 240z"/><path fill="#010004" d="M214 538l-56-20 12 100z"/><path fill="#533825" d="M270 706l276-16-136-112z"/><path fill="#ffc264" d="M898 950L622 538l-60 260z"/><path fill="#528bc2" d="M606 982L290 790l260-92z"/><path fill="#ffff98" d="M898 754V594L738 494z"/><path fill="#2d2a22" d="M94 146L518-62-62 10z"/><path fill="#6e1500" d="M402 438l100-148-176 60z"/><path fill="#cbb39b" d="M658 1046l84-336-96-40z"/><path fill="#5d3128" d="M314 286l-12-84-144 120z"/><path fill="#d5f5ff" d="M274 922l216-168-344 140z"/><path fill="#fbba82" d="M530 246L306 122l4 136z"/><path fill="red" d="M490 442l-144-60 88 80z"/><path fill="#6b2000" d="M682 590l140 244-68-296z"/><path fill="#8fbcdc" d="M602 362l48 220-428 48z"/><path fill="#0f0019" d="M66 434l-56-72-68 104z"/><path fill="#eef1f6" d="M90 790l40 68 184-200z"/><path fill="#fdf0f5" d="M202 1086l696-220-100 220z"/><path fill="#d05d28" d="M38 530l84 384-148-276z"/><path fill="#866c38" d="M890 66L374 10l352-72z"/></g></svg>