<svg xmlns="http://www.w3.org/2000/svg" width="228" height="278" viewBox="0 0 836 1024"><path fill="#57674b" d="M0 0h836v1024H0z"/><path fill="#a6f97e" fill-opacity=".557" d="M431.214 231.79l261.103 151.48 74.442 555.075-612.587-18.782z"/><path fill="#1e1a23" fill-opacity=".867" d="M805.573 739.42L680.676 393.71 181.636-62 898 6.885z"/><path fill="#0d0119" fill-opacity=".616" d="M297.321 354.191L188.124 509.42-62 173.354 188.776-62z"/><path fill="#422f36" fill-opacity=".792" d="M-17.917 1086L-62 475.35l303.868 58.126L65.25 1075.96z"/><path fill="#b3ec8e" fill-opacity=".494" d="M215.12 554.127l498.65-104.142-156.597-160.679-309.036 127.587z"/><path fill="#f0807f" fill-opacity=".435" d="M342.757 68.014L220.016 105.25l12.55 125.316L460.5 242.324z"/><path fill="#4e5773" fill-opacity=".894" d="M754.683 796.123L563.165 1086 898 1016.592l-90.905-467.967z"/><path fill="#94db6d" fill-opacity=".804" d="M605.883 867.205l-48.56 91.89-308.486-11.564 278.276-83.955z"/><path fill="#33532b" fill-opacity=".643" d="M133.516 1046.158l128.005-198.95-27.51-423.678 76.885 496.827z"/><path fill="#17001b" fill-opacity=".498" d="M372.344 385.995L-60.14 100.59l497.681 209.434 112.876-61.355z"/><path fill="#5d837b" fill-opacity=".961" d="M240.103 556.98l351.118-4.457-10.207-35.09-266.66-28.328z"/><path fill="#3a3ce9" fill-opacity=".49" d="M140.773 1086l200.285-127.62 151.1 3.4L444.762 1086z"/><path fill="#326620" fill-opacity=".671" d="M629.983 824.98l19.768-57.444-77.95-288.364-20.585 17.674z"/><path fill="#fdc789" fill-opacity=".655" d="M431.93 1012.624l189.191 36.035-118.336-51.227-64.954-22.803z"/><path fill="#d0625b" fill-opacity=".533" d="M85.801 878.725l27.758 75.205 109.431-18.434-55.047-141.436z"/><path fill="#f8e0f9" fill-opacity=".455" d="M711.43 486.725l-26.886 67.834-44.3-158.899 34.96-7.29z"/><path fill="#c0ff91" fill-opacity=".592" d="M682.83 739.243l-58.82 99.57 88.726 38.064 45.426-162.245z"/><path fill="#584d50" fill-opacity=".557" d="M824.704 179.637l-160.41 7.397-4.933 116.137 176.756 26.673z"/><path fill="#292d3b" fill-opacity=".961" d="M459.379 259.136l-36.635-90.47 224.088 22.856-53.22 115.257z"/><path fill="#3f404d" fill-opacity=".882" d="M224.45 532.234l9.494 200.859-122.428 99.451-42.19-578.273z"/><path fill="#07685c" fill-opacity=".631" d="M707.852 979.798L598.25 859.96l31.422-6.324 54.928 11.162z"/><path fill="#110506" fill-opacity=".38" d="M-62 371.055l414.895-327.87L41.801-62l91.423 136.495z"/><path fill="#96796f" fill-opacity=".82" d="M422.87 122.802l36.384 353.647 50.778-63.9-111.337-99.897z"/><path fill="#abf479" fill-opacity=".467" d="M96.744 839.079l515.72-19.181 4.765-40.245-53.013-39.403z"/><path fill="#0d0e1b" fill-opacity=".71" d="M898 548.013V328.885l-196.738 113.59 36.588 187.038z"/><path fill="#0e0e04" fill-opacity=".502" d="M898 158.473l-458.837-9.649 32.994-195.812L854.85-62z"/><path fill="#131210" fill-opacity=".643" d="M-62 189.105v35.137l398.933-42.96-18.693-21.46z"/><path fill="#348400" fill-opacity=".263" d="M513.86 620.939l142.337-149.898-344.986 118.861-137.126 56.14z"/><path fill="#3c0000" fill-opacity=".251" d="M-22.81 662.435L-62 1032.799 178.882 1086l40.172-151.393z"/><path fill="#2d1809" fill-opacity=".624" d="M403.959 262.057l-54.05 134.792-23.747-80.237 62.014-134.99z"/><path fill="#417934" fill-opacity=".859" d="M272.66 865.708l292.769-30.075-355.408 16.8L323.84 980.68z"/><path fill="#704737" fill-opacity=".51" d="M39.072 742.78l65.441-5.627 17.523-409.579L-62 218.55z"/><path fill="#b6f487" fill-opacity=".584" d="M345.012 395.693l320.245-14.1-153.61-112.892-221.099 275.378z"/><path fill="#f1dffd" fill-opacity=".569" d="M647.91 903.705l-43.123 7.064 11.39 9.063 49.28 35.688z"/><path fill="#241dd8" fill-opacity=".471" d="M488.857 299.336l-52.669 41.028-81.318 30.364 159.161-114z"/><path fill="#ffbda4" fill-opacity=".216" d="M379.237-62L274.663 116.164l347.86 336.05L207.55-62z"/><path fill="#a2d281" fill-opacity=".718" d="M516.244 515.016l-243.982-35.893L342.759 344.6l-90.365 63.267z"/><path fill="#91707d" fill-opacity=".267" d="M-11.208-62l240.861 199.085 23.438-89.148-210.495 68.388z"/><path fill="#183e14" fill-opacity=".467" d="M227.281 892.116l118.57-5.817 94.74 12.83-210.394 29.14z"/><path fill="#48506a" fill-opacity=".757" d="M898 776.896l-14.059-212.34L731.6 614.469l40.374 262.85z"/><path fill="#e0e4fa" fill-opacity=".353" d="M170.487 868.782l9.894-19.352 46.836 12.08-5.906 81.924z"/><path fill="#9ef163" fill-opacity=".278" d="M218.147 529.256l16.452 55.112 407.209 276.348-87.586-182.018z"/><path fill="#b3f192" fill-opacity=".475" d="M484.928 881.592l101.46 95.533-182.305-26.476 239.185-39.655z"/><path fill="#9fe26a" fill-opacity=".447" d="M712.454 520.672L598.772 535.25l40.218 106.08 120.89 162.281z"/><path fill="#3a4b50" fill-opacity=".494" d="M321.998 428.376L78.716 377.863l209.705-104.795-45.152 213.07z"/><path fill="#b3f88f" fill-opacity=".337" d="M126.076 801.831l164.086 78.782-54.325-20.845 144.919-17.01z"/><path fill="#260a98" fill-opacity=".282" d="M230.277 1061.487l48.573-154.611-43.135-5.126-115.1 184.25z"/><path fill="#275f11" fill-opacity=".518" d="M584 528.43l-341.546 92.748 9.594 140.382 38.134-166.983z"/><path fill="#7a84a4" fill-opacity=".506" d="M575.325 1086l140.482-98.809 176.203-2.955L851.632 1086z"/><path fill="#77af58" fill-opacity=".894" d="M312.353 943.95l211.916-37.522-251.526 22.082-27.227 101.646z"/><path fill="#000c76" fill-opacity=".294" d="M464.77 954.05l-57.525 90.413-139.907-62.286 75.125-36.317z"/><path fill="#131516" fill-opacity=".796" d="M195.53 74.811L-62 206.927 142.288 316.11l97.897-53.058z"/><path fill="#ffc0b4" fill-opacity=".314" d="M239.024 243.146L241 207.084l143.42-37.605-33.86 29.997z"/><path fill="#a65a47" fill-opacity=".4" d="M87.666 983.96l-21.78-77.654 61.211-78.792 89.457 107.254z"/><path fill="#6e666b" fill-opacity=".698" d="M445.372 464.525l59.534-47.4 4.916-27.13-70.574 14.61z"/><path fill="#71da23" fill-opacity=".212" d="M685.197 562.654L498.364 678.678l40.487-234.496 94.699-66.039z"/><path fill="#6c2811" fill-opacity=".302" d="M427.279 75.907l-78.063 132.115-120.641 34.754 83.315 125.752z"/><path fill="#001106" fill-opacity=".29" d="M-62 1000.814V811.953l151.94-52.74-62.908 304.424z"/><path fill="#fd8ec1" fill-opacity=".373" d="M438.682 250.116l-7.094-18.703 61.488 48.778-74.522 44.212z"/><path fill="#105c00" fill-opacity=".263" d="M653.749 791.428l19.154-98.773-91.553 38.517 1.44-154.559z"/><path fill="#eb8d35" fill-opacity=".851" d="M554.877 1011.623L626.62 1086l-146.288-67.032 16.247-11.114z"/><path fill="#ffbfb2" fill-opacity=".286" d="M331.07 69.67l-91.857 85.887 27.214 20.269 92.467-71.34z"/><path fill="#343f56" fill-opacity=".675" d="M648.382 1009.82l45.51-131.674 23.677 54.3L898 927.533z"/><path fill="#6b5a4f" fill-opacity=".592" d="M303.284-44.255L218.15 68.232l95.562-58.584 122.421 49.93z"/><path fill="#e5d8e8" fill-opacity=".459" d="M660.86 433.121l29.72-31.165 21.332 119.276-44.476 2.266z"/><path fill="#1301d1" fill-opacity=".235" d="M490.305 547.856l-101.31-56.913 127.777 98.649 2.867-120.31z"/><path fill="#889d7c" fill-opacity=".749" d="M431.94 841.047l136.087 103.596 48.992 8.375 37.337 56.478z"/><path fill="#242433" fill-opacity=".612" d="M627.466 348.091l103.132 104.177 148.16-107.561L437.112 222.27z"/><path fill="#1c510a" fill-opacity=".659" d="M267.93 658.607l17.841 274.488-5.717-14.436-27.54-265.666z"/><path fill="#e2fdea" fill-opacity=".486" d="M515.441 1005.176l-63.734-24.379-13.334 31.408 72.991-6.602z"/><path fill="#7d6a5d" fill-opacity=".42" d="M667.043 214.824l49.287 59.78 46.375-36.274-17.646-52.368z"/><path fill="#a2e277" fill-opacity=".816" d="M376.566 515.88l-4.651-159.638 77.983 169.062L628.64 364.755z"/><path fill="#11033f" fill-opacity=".263" d="M582.403 557.552L619.42 822.64l22.707-35.636-28.528-113.395z"/><path fill="#815042" fill-opacity=".435" d="M429.027 31.089l8.344 170.157-106.179-89.92 103.882-9.903z"/><path fill="#1b2237" fill-opacity=".584" d="M104.88 449.8l30.623-32.711L360.23 300.374 196.8 475.452z"/><path fill="#313a4f" fill-opacity=".749" d="M228.24 529.798l1.752 170.403-45.23 134.746-51.89-298.864z"/><path fill="#7068ff" fill-opacity=".149" d="M544.692 524.86l-186.62-38.9-118.87 5.752 8.13 66.032z"/><path fill="#404db3" fill-opacity=".8" d="M286.06 1030.579l216.529-63.256-158.736-.459-19.471 5.221z"/><path fill="#5b8f3e" fill-opacity=".922" d="M478.525 751.827l-178.249 19.008-47.716 5.1 132.728-2.148z"/><path fill="#737a9e" fill-opacity=".443" d="M755.647 856.144L898 853.256l-87.93 50.418L689 920.934z"/><path fill="#cde3cc" fill-opacity=".463" d="M184.994 838.478l58.974-7.828-101.412 2.439 29.46-43.013z"/><path fill="#100118" fill-opacity=".435" d="M539.278 963.819l6.9 44.25-46.456-11.385-2.796-8.157z"/><path fill="#91c86b" fill-opacity=".902" d="M426.428 835.614l-139.139 15.932-11.077-91.618 2.355-8.185z"/><path fill="#adea81" fill-opacity=".765" d="M494.349 303.547l123.049 31.522 75.977 87.676-256.215-42.124z"/><path fill="#6bac49" fill-opacity=".647" d="M218.606 443.68L251.35 718.2l23.128 132.404-20.405 44.549z"/><path fill="#3f7222" fill-opacity=".51" d="M268.462 606.836l170.252 16.433 113.83-4.784L431.6 630.437z"/><path fill="#6a9551" d="M265.585 402.413l-26.763 201.323 1.299 189.509-14.569-329.834z"/><path fill="#024350" fill-opacity=".365" d="M208.1 835.839l48.144 40.354-106.037-42.806 20.106 23.7z"/><path fill="#354054" fill-opacity=".69" d="M898 814.425L750.348 782.17 724.49 882.772l-2.074-34.551z"/><path fill="#35281f" fill-opacity=".808" d="M361.456 38.817L311.788 13.82l-87.37 74.504 28.315 20.1z"/><path fill="#b5fd88" fill-opacity=".416" d="M566.701 654.162l-98.049-65.834 110.546 23.624-189.845 24.413z"/><path fill="#498430" fill-opacity=".984" d="M539.551 627.617l-69.902-11.81 68.558 3.145 65.884 15.527z"/><path fill="#575d6a" fill-opacity=".345" d="M47.024 746.199l157.178 33.307L59.055 607.76l190.912-.58z"/><path fill="#a5eb76" fill-opacity=".592" d="M305.588 881.664L674.93 843.13l-222.51 5.527-71.677 11.19z"/><path fill="#2f3557" fill-opacity=".549" d="M157.55 407.908l10.611-119.796 183.275 77.968 110.89-56.203z"/><path fill="#228f66" fill-opacity=".647" d="M675.714 922.65l-83.81-28.842 57.123-38.307 61.636 26.691z"/><path fill="#9fe17a" fill-opacity=".765" d="M546.063 863.455l19.73 75.422-63.738 43.167-25.2-98.329z"/><path fill="#a9df81" fill-opacity=".612" d="M257.85 474.26l312.78-148.01-291.764 176.626-24.89 73.862z"/><path fill="#8f9f8b" d="M638.723 945.495l-54.252-33.843 61.403 52.901-33.206-78.215z"/><path fill="#0d0a55" fill-opacity=".478" d="M359.005 1039.835l66.17-39.73-8.975-27.559-48.398 37.85z"/><path fill="#246807" fill-opacity=".478" d="M433.598 721.016l-6.87-1.111 53.4-16.18 64.4-4.732z"/><path fill="#312c1d" fill-opacity=".416" d="M705.957-34.884L597.155-61.207l-67.557 245.339 158.224 34.78z"/><path fill="#151720" fill-opacity=".635" d="M174.41 199.572L215.8 57.708 311.666-62H77.51z"/><path fill="#257500" fill-opacity=".271" d="M601.454 850.468l-5.058 2.327 14.332 15.01-193.892 12.237z"/><path fill="#adf17b" fill-opacity=".459" d="M412.239 722.668l-83.684-24.473 280.44-.257-91.293-38.994z"/><path fill="#154300" fill-opacity=".396" d="M254.68 996.385l66.049-41.76 129.055-19.533-114.404 32.642z"/><path fill="#69ab42" fill-opacity=".522" d="M311.353 382.303l120.35-33.823-174.158 107.797 59.667 1.778z"/><path fill="#9ca292" fill-opacity=".569" d="M669.338 899.504l-46.304 152.047 15.299-95.95 20.007 1.498z"/><path fill="#b2f681" fill-opacity=".404" d="M220.427 838.44l-41.352-9.25 51.363-57.595 38.99 112.797z"/><path fill="#1b5700" fill-opacity=".271" d="M384.026 634.072l217.468 29.679-48.51-214.251 62.977 235.148z"/><path fill="#24170d" fill-opacity=".424" d="M396.376 185.05L292.556 381.6l-1.196-71.33 84.7 60.035z"/><path fill="#4f8f2f" fill-opacity=".882" d="M505.09 577.903l72.11 25.654-156.028-24.396L348 581.452z"/><path fill="#070808" fill-opacity=".671" d="M719.125 150.393l3.362-210.26L794.297-62l-5.293 197.402z"/><path fill="#98d06f" fill-opacity=".639" d="M345.61 382.84l-31.427 158.926-28.747 38.87 10.202-28.214z"/><path fill="#c48e82" fill-opacity=".729" d="M263.905 168.847l-.545 56.196 166.987-89.273-133.357 88.278z"/><path fill="#2d313f" fill-opacity=".839" d="M898 164.954l-126.076 10.993L786.5 315.505 898 439.789z"/><path fill="#0d0a16" fill-opacity=".318" d="M665.71 499.87l207.303-56.088-158.297-135.328 11.426 150.582z"/><path fill="#755144" fill-opacity=".518" d="M-16.402 312.648L-62 507.058l153.05 21.718 13.778-202.36z"/><path fill="#4b6096" fill-opacity=".592" d="M364.758 554.863l-45.443-69.196 39.244 1.478 18.724 1.747z"/><path fill="#c70013" fill-opacity=".153" d="M224.747 939.9L111.57 849.138l59.951-12.651L109.413 1086z"/></svg>