<svg xmlns="http://www.w3.org/2000/svg" width="228" height="278" viewBox="0 0 836 1024"><path fill="#5a758e" d="M0 0h836v1024H0z"/><path fill="#071b7b" fill-opacity=".871" d="M675.836 417.391l-497.087-42.5L80.237 1086l456.5-76.638z"/><path fill="#d2f7d3" fill-opacity=".745" d="M-62 452.054V26.565l427.456-37.12 55.448 291.39z"/><path fill="#adfa67" fill-opacity=".576" d="M462.072 204.844l22.253-107.55L862.201-62l4.694 650.832z"/><path fill="#f34145" fill-opacity=".973" d="M688.55 1049.065l-.462-130.476 143.972-3.14L898 1026z"/><path fill="#f6f9f6" fill-opacity=".573" d="M-62 892.717l176.866-83.915 40.264-234.103L-62 715.715z"/><path fill="#1433a8" fill-opacity=".992" d="M427.88 493.815l209.342-91.575 176.49 149.039-29.617 157.752z"/><path fill="#f1ffe4" fill-opacity=".439" d="M727.153 709.359L898 866.247l-338.245-8.698 96.689-248.331z"/><path fill="#b54008" fill-opacity=".408" d="M571.404 410.412L640.872-62h-246.33l22.293 552.125z"/><path fill="#0c31b5" fill-opacity=".875" d="M191 368.669l157.936-69.272L475.359 512.83-62 613.374z"/><path fill="#16c7fd" fill-opacity=".871" d="M527.75 1086l37.155-165.928 104.791 7.481L667.728 1086z"/><path fill="#06bef2" fill-opacity=".992" d="M-18.224 1049.714l101.95-5.492-1.37-135.287L-62 923.779z"/><path fill="#d4e3ec" fill-opacity=".643" d="M824.606 701.948L781.53 122.963 845.835 8.307l37.79 751.049z"/><path fill="#a4a4a7" fill-opacity=".659" d="M519.88 673.496l116.56-23.66-403.17-43.847 67.491 35.219z"/><path fill="#09091e" fill-opacity=".718" d="M-62 707.895l229.277-212.931 175.146 91.532-181.504-15.063z"/><path fill="#0b1507" fill-opacity=".631" d="M522.49 71.643l95.719 9.44L449.839-62l-62.23 231.72z"/><path fill="#dbddd6" fill-opacity=".631" d="M582.69 490.332l-49.883 43.485 27.16 52.494 48.293-30.1z"/><path fill="#001702" fill-opacity=".329" d="M696.484 509.127l71.307 421.62-707.213-59.562 627.099 9.078z"/><path fill="#150400" fill-opacity=".498" d="M621.31 518.275L898 824.346 646.287 616.658 509.485 849.65z"/><path fill="#60d653" fill-opacity=".82" d="M588.091-62l83.086 428.537 115.465 114.296L773.211-62z"/><path fill="#074dff" fill-opacity=".553" d="M560.879 381.208l272.278 278.89-57.34-170.787-198.552-167.716z"/><path fill="#89c4c2" fill-opacity=".698" d="M377.774 331.894l-221.968 67.128-190.282 190.58 10.683-214.887z"/><path fill="#eea285" fill-opacity=".408" d="M486.149 74.364L626.78 88.367 430.915 452.356l-46.908-89.304z"/><path fill="#8ace8b" fill-opacity=".827" d="M249.191-10.53l66.051 332 10.36-256.888L721.302-62z"/><path fill="#be5b03" fill-opacity=".525" d="M898 599.645l-134.364 91.793-44.902-2.482L898 890.13z"/><path fill="#73cc6d" fill-opacity=".631" d="M63.196 39.93l-9.722 459.125L133.27-39.844-62-7.87z"/><path fill="#00092e" fill-opacity=".643" d="M141.374 643.043l438.598 90.221-320.5 38.152L144.717 663.78z"/><path fill="#1766ff" fill-opacity=".584" d="M395.96 285.424L260.968 448.513l-193.473-.74 134.551-91.13z"/><path fill="#ccd4de" fill-opacity=".631" d="M643.644 626.365l-52.135 93.19L617.427 871.9l107.28-176.48z"/><path fill="#dbe4f5" fill-opacity=".522" d="M296.252 507.405l92.835 2.568-36.73 17.348-69.63-4.893z"/><path fill="#0045fa" fill-opacity=".475" d="M314.41 1011.825l-199.395-45.817-127.28-74.404 376.618 93.545z"/><path fill="#ffe3ff" fill-opacity=".239" d="M-19.324 362.84l150.547-211.981L629.5 176.907l-13.392 23.3z"/><path fill="#413804" fill-opacity=".463" d="M534.846 449.003l-86.688-187.535 129.838 59.72 6.556 66.776z"/><path fill="#0a080f" fill-opacity=".565" d="M360.877 398.703l9.628-74.28 30.02-26.437-.797 126.728z"/><path fill="#ff9fff" fill-opacity=".455" d="M695.318 932.948l-48.695 6.66L660.083 1086l49.114-39.723z"/><path fill="#000229" fill-opacity=".498" d="M431.305 949.413l-215.077-11.706-62.397-115.922 403.143 50.1z"/><path fill="#bacae3" fill-opacity=".839" d="M762.46 481.273l50.91 93.954 24.66 85.681L898 478.083z"/><path fill="#dce2e9" fill-opacity=".62" d="M355.952 300.591L334.869 27.637l91.046-4.833-38.925 76.137z"/><path fill="#432800" fill-opacity=".663" d="M-18.73 533.92l60.537 59.52 54.737 20.98-97.675 51.222z"/><path fill="#ccdcde" fill-opacity=".761" d="M343.954 346.746L82.127 258.414 213.52-62l92.463 429.18z"/><path fill="#f4beb5" fill-opacity=".62" d="M624.767 212.613L512.64 202.021l124.144-106.58-117.571-10.87z"/><path fill="#0d0c0a" fill-opacity=".478" d="M403.428 62.165l236.451 20.91-57.66-62.804-156.904.531z"/><path fill="#a6acc1" fill-opacity=".835" d="M397.707 606.877l38.775 36.636-130.299-28.669-5.298 36.174z"/><path fill="#61bf5a" fill-opacity=".651" d="M89.79 448.088l36.557-32.934-71.353-35.343-106.903 42.246z"/><path fill="#c3efff" fill-opacity=".341" d="M603.727 394.761l5.816-104.462 98.406 159.522-76.952-48.026z"/><path fill="#001642" fill-opacity=".671" d="M513.913 532.252l56.946 62.33-297.193-9.32L55.19 557.106z"/><path fill="#bd862d" fill-opacity=".369" d="M504.158 447.176L400.82 433.881l-3.366-141.57 185.034 73.84z"/><path fill="#0024da" fill-opacity=".608" d="M448.607 544.763l194.77-59.851-256.729-35.286-90.306 30.244z"/><path fill="#0b2acd" fill-opacity=".58" d="M591.555 842.683l-54.008 80.89-286.337 84.755 304.705-48.984z"/><path fill="#4b0030" fill-opacity=".31" d="M567.989 412.273l-11.724-283.568-94.076-3.668L603.43 237.481z"/><path fill="#00189a" fill-opacity=".569" d="M694.448 683.205l108.718-5.524 37.187-41.025-112.492-104.73z"/><path fill="#ffd8ec" fill-opacity=".443" d="M108.531 457.211l-80.783 1.772L-62 536.06l93.703-19.523z"/><path fill="#000136" fill-opacity=".42" d="M74.562 1016.339l8.361 1.66 141.108-502.166-66.352 72.345z"/><path fill="#00092b" fill-opacity=".541" d="M527.608 963.689L453.285 1086l-20.866-77.733-419.466 46.308z"/><path fill="#f8f6ff" fill-opacity=".392" d="M898 904.99L763.812 738.244l-3.031 78.073L898 944.144z"/><path fill="#a77e54" fill-opacity=".749" d="M442.051 333.124l80.047-114.057-58.188-13.835-74.57-42.88z"/><path fill="#051036" fill-opacity=".914" d="M436.458 703.862l120.162-.29-17.56 65.785-312.91-74.678z"/><path fill="#000635" fill-opacity=".463" d="M540.52 641.985l-50.701-5.302 145.773-99.03 145.698 59.171z"/><path fill="#898e96" fill-opacity=".557" d="M254.476 562.39l-4.34 48.62 25.372 29.644 14.324-32.095z"/><path fill="#001ed1" fill-opacity=".447" d="M210.077 769.812l-84.874 9.16 172.983 71.637 177.52-14.675z"/><path fill="#4dc93d" fill-opacity=".325" d="M336.311-62L-62 41.326 250.417 7.053l54.005 134.312z"/><path fill="#00007d" fill-opacity=".302" d="M170.854 561.256L383.75 381.394-62 555.117l141.886 69.175z"/><path fill="#040a50" fill-opacity=".831" d="M307.63 673.832l117.115.262-144.884-23.32 8.931-92.24z"/><path fill="#181a00" fill-opacity=".388" d="M508.743 344.295l-41.24-51.867 98.856 28.297-124.226 162.046z"/><path fill="#e4997a" fill-opacity=".357" d="M571.139 361.563l-71.987 32.83 114.69-115.513-99.852-17.328z"/><path fill="#00017f" fill-opacity=".424" d="M692.84 599.511L578.238 326.986l35.576-34.01L544.2 410.929z"/><path fill="#0032f2" fill-opacity=".514" d="M234.304 467.603L87.122 476.84l31.258-62.765 250.666-56.816z"/><path fill="#eadfff" fill-opacity=".349" d="M-62 14.832l99.838-7.66 9.974 131.509L11.864 413.48z"/><path fill="#2a1b03" fill-opacity=".392" d="M468.088 83.533l20.777 37.287-92.656 69.623-5.244-100.529z"/><path fill="#6cd15e" fill-opacity=".682" d="M338.068-37.703L613.6 26.43l11.779 310.255L872.331-62z"/><path fill="#0030e8" fill-opacity=".51" d="M826.279 596.764l-28.78 77.98-91.614-215.689-125.51 50.928z"/><path fill="#000c3f" fill-opacity=".604" d="M377.682 388.048l48.184 80.091 166.323-26.813-147.789 2.093z"/><path fill="#d5dfe4" fill-opacity=".6" d="M136.965 393.637l33.392-21.74L162.137-62 92.078 406.962z"/><path fill="#f1f0e2" fill-opacity=".329" d="M300.78 495.027l86.063 15.128-21.458 24.638-42.73-11.498z"/><path fill="#724f43" fill-opacity=".608" d="M850.387 931.188l-195.632-16.385 119.336-36.063 109.787 30.46z"/><path fill="#e2ecf5" fill-opacity=".4" d="M60.173 858.385l-107.062-65.533L43.23 649.89l13.58 10.401z"/><path fill="#1d2cff" fill-opacity=".306" d="M294.524 766.217l-56.863-40.264 225.32 54.178-108.448 7.062z"/><path fill="#270002" fill-opacity=".459" d="M593.072 249.42l11.695 15.48-22.786 9.262-74.061-18.435z"/><path fill="#0224bc" fill-opacity=".682" d="M151.888 413.042L51.355 507.38l-71.344 43.124L91 586.872z"/><path fill="#c4ced7" fill-opacity=".529" d="M688.65 675.778l-31.757-75.085-69.216 152.483 70.854 121.903z"/><path fill="#05167e" fill-opacity=".886" d="M432.544 787.464L225.57 776.812l343.324 83.852 18.273-117.258z"/><path fill="#022ffd" fill-opacity=".459" d="M426.564 684.997l-73.678-7.92 49.209 25.282 103.711.822z"/><path fill="#f6f8e6" fill-opacity=".525" d="M578.414 495.352l2.042 85.33 12.618-12.84-38.707 7.333z"/><path fill="#265a3a" fill-opacity=".467" d="M100.949 892.743l-2.424-42.818L-62 884.27v35.125z"/><path fill="#000322" fill-opacity=".565" d="M134.736 519.716l141.602 22.39-30.485 59.247 38.49 60.435z"/><path fill="#14ae02" fill-opacity=".275" d="M106.565-3.274l-3.77 82.824-16.019 11.814L42.62-.767z"/><path fill="#373c2b" fill-opacity=".78" d="M619.265 110.63l-2.444-50.661 18.032-3.316-90.436-40.666z"/><path fill="#00130f" fill-opacity=".369" d="M311.51 1086l-184.547-20.708-50.282-70.59 157.543-7.827z"/><path fill="#ffd9d0" fill-opacity=".22" d="M414.95 208.657L607.765 97.775 517.82 77.351 391.135 335.514z"/><path fill="#031068" fill-opacity=".976" d="M473.496 985.234l-246.643-18.368 302.807-35.791-389.159-33.092z"/><path fill="#b7daec" fill-opacity=".886" d="M499.626 1023.43l-31.16 62.57h7.3l87.394-68.79z"/><path fill="#ffaf81" fill-opacity=".576" d="M793.904 682.936l74.173-54.809L898 674.414v115.59z"/><path fill="#b0bec7" fill-opacity=".769" d="M-33.362 678.068L86.66 644.622l85.784-99.797-73.116 175.68z"/><path fill="#4eb66c" fill-opacity=".435" d="M765.588 474.123l-113.637-94.55 241.582 74.567L898 469.92z"/><path fill="#fec2b1" fill-opacity=".427" d="M633.484 186.332l-27.628 76.844-18.572-63.784-267.22-34.23z"/><path fill="#040000" fill-opacity=".208" d="M718.569 659.336l32.648-91.154-115.068 42 230.607 234.196z"/><path fill="#04122c" fill-opacity=".651" d="M196.462 881.493l322.221-32.897 50.034-21.355-17.332 48.745z"/><path fill="#e2e7f7" fill-opacity=".486" d="M812.196 123.929L880.052-62 854.5 580.609l-40.702-312.097z"/><path fill="#46877b" fill-opacity=".392" d="M702.111 935.144l-30.99-231.493 103.753 156.978-225.421 67.348z"/><path fill="#000b26" fill-opacity=".592" d="M-62 508.064L41.933 622.179l184.528-128.1L89.205 623.642z"/><path fill="#0d2eca" fill-opacity=".725" d="M613.043 350.477l-28.552 188.525 75.004-5.12-80.155-132.055z"/><path fill="#89cdab" fill-opacity=".686" d="M168.339 328.44l39.385-35.993 39.345 80.912-89.792-23.47z"/><path fill="#6cc972" fill-opacity=".341" d="M117.548 188.522L94.257 321.58l-5.252-2.777-48.578-163.196z"/><path fill="#041147" fill-opacity=".475" d="M402.553 415.245l-94.473-12.882-111.926 140.124L393.74 342.374z"/><path fill="#00c8ff" fill-opacity=".506" d="M543.17 963.731l-19.39 17.168L631.747 1086l20.708-148.897z"/><path fill="#b4e1cb" fill-opacity=".647" d="M593.812 330.38l76.302 8.217-12.957 42.774-61.401-33.43z"/><path fill="#ccd4d8" fill-opacity=".325" d="M589.37 650.263l-28.316 25.32-9.585-2.636-239.794-55.993z"/><path fill="#060f5f" fill-opacity=".922" d="M520.426 670.135l-174.25 2.508 166.206 16.438 14.428-107.895z"/><path fill="#f79d16" fill-opacity=".243" d="M-62 737.832L47.975 630.049l-52.448-57.484L-62 700.46z"/><path fill="#0864ff" fill-opacity=".369" d="M777.104 471.243L639.85 416.838 830.106 640.14l-61.393 26.006z"/><path fill="#173dfe" fill-opacity=".4" d="M540.679 945.439l-324.482 63.618 180.933-15.726 15.013-47.847z"/><path fill="#66e555" fill-opacity=".341" d="M804.696 303.367L599.59 318.8l34.785-202.103 158.774-88.032z"/><path fill="#301000" fill-opacity=".384" d="M636.373 154.11L491.43 166.117l56.105-21.183 36.565 22.132z"/><path fill="#050d26" fill-opacity=".608" d="M668.306 596.302l-5.122-78.072L558.69 778.934l66.405-124.96z"/><path fill="#1ad422" fill-opacity=".122" d="M276.974 246.709L296.167-62l43.31 329.619-50.28 24.638z"/><path fill="#ffe6fd" fill-opacity=".192" d="M446.952 275.724L401.115 391.37 383.534-52.81l-66.222 350.09z"/><path fill="#0578f9" fill-opacity=".263" d="M-62 909.33l342.03 91.517-160.28-68.68 82.561-45.082z"/><path fill="#89a39c" fill-opacity=".494" d="M125.3 770.028L-8.34 856.741 63.82 867.6l63.392-75.748z"/><path fill="#0b42f6" fill-opacity=".404" d="M142.224 795.807l254.552 41.359-161.293-8.42-54.321-89.54z"/><path fill="#00044d" fill-opacity=".412" d="M268.077 476.504L145.32 546.76l-45.3-88.56-46.781 55.983z"/><path fill="#0829c8" fill-opacity=".749" d="M318.785 428.672L446.16 459.05l-247.286 66.7 100.89 18.574z"/></svg>