<svg xmlns="http://www.w3.org/2000/svg" width="228" height="278" viewBox="0 0 836 1024"><path fill="#64605d" d="M0 0h836v1024H0z"/><g fill-opacity=".502"><path d="M634 1086l-24-824-404 736z"/><path fill="#e0dfd5" d="M150 302L898 90l-960 12z"/><path fill="#d8bac6" d="M898 998L722 230l-104 856z"/><path fill="#ffd4ce" d="M266 806L-62 966l248 120z"/><path d="M794-62L214 30l684 72z"/><path fill="#f2d0c1" d="M666 694l-292-48 104-80z"/><path fill="#ffc" d="M234 374l-20 224-84-172z"/><path fill="#f6ffff" d="M898 78l-404 44 312 52z"/><path fill="#141f26" d="M-62 830l360-352 516-48z"/><path fill="#150000" d="M-30-62l-32 176L614 2z"/><path fill="#06090e" d="M262 1086l388-380-384-48z"/><path fill="#6d7256" d="M358 450l540-284-960 12z"/><path fill="#efeef2" d="M438 62l-500 80 252 36z"/><path fill="#391f00" d="M562 706l204 4 132-88z"/><path fill="#faf9a7" d="M174 914l76 16 8-272z"/><path fill="#252f42" d="M194 914L-62 794l204-384z"/><path fill="#b5c8cc" d="M658 982l-48-240 288-80z"/><path fill="#999a9b" d="M530 250l232 252 100-252z"/><path fill="#0a0d14" d="M478 602l180-256 56 272z"/><path fill="#a67e5c" d="M486 506L254 102 438-46z"/><path fill="#919297" d="M494 690l4-136-256 56z"/><path fill="#000002" d="M738-62L454 86l444-4z"/><path fill="#9dacae" d="M898 662L638 562l84-136z"/><path fill="#1e2630" d="M578 262l-132-88 452 4z"/><path fill="#d4ff8d" d="M150 466l24 72 228-116z"/><path fill="#d5b5cf" d="M-62 810l248 148-92 84z"/><path fill="#0a0e14" d="M158 1066h516L574 810z"/><path fill="#e2ff88" d="M306 382l-36-52 164 28z"/><path fill="#d8306e" d="M898 958l-228 128-36-148z"/><path fill="#ffc89d" d="M602 706l-12-52 196-40z"/><path fill="#dfdee1" d="M486 162l252-20-420-88z"/><path fill="#00096f" d="M702 518l-44 72 132-100z"/><path fill="#daff85" d="M246 626l-56-200-8 120z"/><path fill="#37313c" d="M310 334L78 262-62 382z"/><path fill="#492413" d="M286 130l148-20 16 44z"/><path fill="#d31b67" d="M-62 946l80 140 72-140z"/><path fill="#000002" d="M346 382l-116 72 24-80z"/><path fill="#000400" d="M254 666l-32 68-84-236z"/><path fill="#bfdc98" d="M390 430l92-100 84 8z"/><path fill="#ffe8d4" d="M446 694l32-76 76-16z"/></g></svg>