<svg xmlns="http://www.w3.org/2000/svg" width="228" height="278" viewBox="0 0 836 1024"><path fill="#888a70" d="M0 0h836v1024H0z"/><g fill-opacity=".502"><path fill="#ffff79" d="M726 214L34 942l496 144z"/><path fill="#00000e" d="M90-10v516L534-18z"/><path fill="#002987" d="M806-62L590 866l256-8z"/><path fill="#ffff7c" d="M722 390l-308 696-196-744z"/><path fill="#001f80" d="M246 414l-84 548-208-396z"/><path fill="#06081e" d="M618-62l12 348 268-56z"/><path fill="#00011c" d="M506 438L202 202 314-62z"/><path fill="#ffb092" d="M378 102l152 296 24-328z"/><path fill="#dcabe7" d="M774 1086l124-232-372 20z"/><path fill="#fae452" d="M594 906L286 406l-124 640z"/><path fill="#768bef" d="M-62 990V390l220 568z"/><path fill="#ffffdf" d="M722 402l176 124V354z"/><path fill="#ffff91" d="M342 298l292 416-432-360z"/><path fill="#b2b4c3" d="M82-62L-62 366 74 554z"/><path fill="#aad6ff" d="M702 410l36-136-180 56z"/><path fill="#343b45" d="M842 266l-296-24L842-62z"/><path fill="#190308" d="M586 150L498 34l68-80z"/><path fill="#001f79" d="M58 662l204-88-48-208z"/><path fill="#1134c1" d="M386 362l172 32-56 48z"/><path fill="#2f67c9" d="M706 886l152 44-168-524z"/><path fill="#c9b29f" d="M658 158L762-62l-40 240z"/><path fill="#a59923" d="M134 1086l196-460-136-32z"/><path fill="#1a2816" d="M182 850L62 862l136-188z"/><path fill="#1c3234" d="M610 854l44-320 76 332z"/><path fill="#cab7ff" d="M142 950l24-88-228 16z"/><path fill="#fff675" d="M634 702l-208 360-260-136z"/><path fill="#06348c" d="M482 998l104 16-116-72z"/><path fill="#f5eb85" d="M602 458l-20 520-384-628z"/><path fill="#1f313f" d="M442 182L150-18 86 458z"/><path fill="#fcaf8d" d="M414 82l184 84-144 176z"/><path fill="#851311" d="M594 942l64 32-172 108z"/><path fill="#305da7" d="M-62 658l236-280-236 656z"/><path fill="#ee9a7f" d="M606 1022l136-132 120 168z"/><path fill="#dcc33b" d="M210 630l300 308-124-292z"/><path fill="#9fabff" d="M606 862l80-8v228z"/><path fill="#054584" d="M898 558L798 802l-76-380z"/><path fill="#978f6d" d="M70 670l60 120-140 144z"/><path fill="#121600" d="M238 622l80 8-124-60z"/><path fill="#bdd4ca" d="M802 282l84-124-56 348z"/><path fill="#172728" d="M710 238l60 160 92-340z"/></g></svg>