<svg xmlns="http://www.w3.org/2000/svg" width="228" height="278" viewBox="0 0 836 1024"><path fill="#545b62" d="M0 0h836v1024H0z"/><path fill="#c5d3ee" fill-opacity=".902" d="M-62 838.774V1086l329.022-481.468-51.712-62.793z"/><path fill="#c5d6f1" fill-opacity=".816" d="M756.424 794.385l21.42-307.568L898 1011.869 582.731 1086z"/><path fill="#071a39" fill-opacity=".941" d="M728.812 419.945L160.113 789.02-17.885 1086h487.95z"/><path fill="#dbe1fb" fill-opacity=".592" d="M678.893 728.813L533.86 1086l41.369-283.711L636.6 660.444z"/><path fill="#000e26" fill-opacity=".565" d="M763.814 727.605l-39.512-372.257-586.04-169.991 8.547 324.146z"/><path fill="#8a855e" fill-opacity=".973" d="M589.811 300.607L898 537.545V157.59L-59.713 47.339z"/><path fill="#bfa3a1" fill-opacity=".969" d="M124.718 486.543L55.278 689-62 603.825v-22.019z"/><path fill="#aab0b5" fill-opacity=".565" d="M514.128 626.087l-334.88-72.65 145.155 104.526 216.062 49.721z"/><path fill="#270e00" fill-opacity=".659" d="M411.495 126.684l6.714-58.953L517.197-62 624.443 97.237z"/><path fill="#8c8a8a" fill-opacity=".831" d="M408.203 197.46L-62 160.952V77.82L422.215-61.162z"/><path fill="#075dc9" fill-opacity=".369" d="M249.269 571.88l-26.664-205.907 381.002 49.787-31.612 155.64z"/><path fill="#032d6d" fill-opacity=".792" d="M332.789 1015.804L85.68 879.034l44.302-115.82 183.221-120.911z"/><path fill="#798484" fill-opacity=".988" d="M739.06 156.649L463.653-62 898 2.689 794.981 258.64z"/><path fill="#130700" fill-opacity=".69" d="M743.399 769.023l16.134-250.53L542.73 253.538 667.26 722.45z"/><path fill="#a64300" fill-opacity=".482" d="M773.925 735.036l-19.49-152.747L522.92 1086l98.518-57.607z"/><path fill="#785238" d="M442.798 170.948l-63.717 151.46 41.881 61.504 140.385-201.316z"/><path fill="#c4cfe4" fill-opacity=".78" d="M130.775 647.137L14.533 1086-62 962.02V792.282z"/><path fill="#200d00" fill-opacity=".616" d="M74.013 695.778l72.326-241.674 113.684-302.996-39.51 367.48z"/><path fill="#f1d7b1" fill-opacity=".631" d="M479.004 560.2l-22.372-37.156 67.226-24.831-6.619 70.622z"/><path fill="#93a3c9" fill-opacity=".784" d="M767.5 517.099l129.999 17.203.501 278.163L758.904 650.29z"/><path fill="#1f0e05" fill-opacity=".71" d="M426.12 251.72l98.519 12.912 57.637 6.483-51.794 216.443z"/><path fill="#06132c" fill-opacity=".988" d="M488.097 1086l53.236-509.103 18.133 327.11-20.725 102.149z"/><path fill="#ccb948" fill-opacity=".38" d="M749.088 464.64L516.95 75.827 463.506 202.15 683.652 82.12z"/><path fill="#070400" fill-opacity=".682" d="M419.383 1086H48.626L37.247 966.639l68.99-84.898z"/><path fill="#a5a49d" fill-opacity=".686" d="M445.95 327.636L350.847-14.65l-23.89 273.125 81.64-13.662z"/><path fill="#050203" fill-opacity=".553" d="M413.374 567.202l58.54-250.453-80.338 112.892-35.04 151.83z"/><path fill="#e5ebff" fill-opacity=".408" d="M223.774 507.887l40.547 30.253-95.386 215.307-40.109-116.84z"/><path fill="#08387f" fill-opacity=".965" d="M255.064 600.179l6.903-234.995 2.876 396.692-131.15 173.137z"/><path fill="#e6eeff" fill-opacity=".486" d="M820.808 1086l-80.574-264.386 47.017-142.94L898 763.92z"/><path fill="#040c1d" fill-opacity=".773" d="M344.384 619.234l-78.833 440.324 89.096-180.723L375.462 755.3z"/><path fill="#797769" fill-opacity=".635" d="M127.466 464.678l45.273 46.457-203.524 52.305 25.63-477.013z"/><path fill="#0c2d4f" fill-opacity=".208" d="M580.066 920.063L744.73 849.94l32.172 188.86-214.754-225.65z"/><path fill="#004a30" fill-opacity=".31" d="M826.654 146.687l-86.083-13.283-.586 220.78 46.829-13.05z"/><path fill="#e6edff" fill-opacity=".459" d="M669.442 793.172l-19.955-122.425-36.727 14.219-20.465 147.862z"/><path fill="#a3b4ce" fill-opacity=".894" d="M-62 1083.842l165.605-196.467L-62 861.382l73.492-104.549z"/><path fill="#23150e" fill-opacity=".8" d="M443.51 18.894l174.928 82.319-27.035 33.396-177.842-72.395z"/><path fill="#0e77fe" fill-opacity=".376" d="M246.96 525.86l37.634-189.424 51.29-7.35-53.324 158.366z"/><path fill="#310" fill-opacity=".6" d="M602.612 201.404l11.294-27.19-112.873 12.902 12.466 27.706z"/><path fill="#030100" fill-opacity=".647" d="M488.444 752.507L446.922 634.87 366.217 1086h17.953z"/><path fill="#2f3018" fill-opacity=".369" d="M318.29 328.265l8.534-161.87L91 212.516 23.423 326.562z"/><path fill-opacity=".298" d="M846.546 452.327l-89.118 127.009-255.987 200.403 105.503-335.407z"/><path fill="#0065ff" fill-opacity=".2" d="M509.38 315.061L405.278 886.946l-73.792 154.94-34.436 11.843z"/><path fill="#0067ff" fill-opacity=".259" d="M566.122 394.461L530.68 511.985l93.632 13.837 4.802-88.952z"/><path fill="#090e1c" fill-opacity=".682" d="M240.156 826.638l58.15-267.01-21.452 271.027-150.019 217.743z"/><path fill="#fef6ed" fill-opacity=".494" d="M270.199 488.695l90.404-7.369-73.98-8.654-17.576-1.647z"/><path fill="#feffff" fill-opacity=".259" d="M233.23 599.235l265.098 83.22-27.203 14.046-192.144-60.53z"/><path fill="#ff5504" fill-opacity=".224" d="M54.427 701.219l117.308-191.026-52.937-47.822-95.955 251.674z"/><path fill="#0053cb" fill-opacity=".443" d="M405.702 377.687l-21.694-53.913L299.445 594.3l94.517-141.281z"/><path fill="#ada34a" fill-opacity=".51" d="M490.2 281.465l-86.52-153.403 312.204 255.653 10.992-269.398z"/><path fill="#d4b4a3" fill-opacity=".282" d="M783.049-47.21L355.996.86l350.899 35.19 164.748 77.39z"/><path fill="#481900" fill-opacity=".706" d="M-62 760.436l100.69-56.81-1.6-49.414L-62 689.89z"/><path fill="#dce3ff" fill-opacity=".4" d="M56.357 656.152l-20.93-124.324L-62 505.343v156.041z"/><path fill="#130600" fill-opacity=".424" d="M314.133 541.366l-48.276 73.173 51.427-161.988 89.173-237.815z"/><path fill="#f9b576" fill-opacity=".239" d="M422.95 251l57.677 137.046-85.953-24.669-8.583-64.175z"/><path fill="#898889" fill-opacity=".541" d="M145.27 227.114L572.333-62-33.923 141.143 71.793-62z"/><path fill="#0045a0" fill-opacity=".58" d="M447.889 419.21l-38.8 184.236 43.42.885 63.533-240.06z"/><path fill="#042a64" fill-opacity=".651" d="M514.089 906.087L388.736 1086l69.316-196.294 53.713-281.136z"/><path fill="#ced9ee" fill-opacity=".851" d="M129.515 764.766L-62 729.934l82.016-6.623 14.875 210.7z"/><path fill="#020b1d" fill-opacity=".784" d="M537.95 915.493l14.67-173.025 50.596-329.507 23.51 248.605z"/><path fill="#55605e" d="M450.74 632.167l-137.79-51.794 197.705 91.244 43.525-53.602z"/><path fill="#00040a" fill-opacity=".549" d="M264.414 290.15L128.378 450.789l77.394 119.816L195.3 552.57z"/><path fill="#012c75" fill-opacity=".318" d="M784.473 716.728l29.487-9.038-15.19-87.473L898 637.7z"/><path fill="#003ea4" fill-opacity=".404" d="M262.06 961.89l-70.242-11.22 46.918-53.218 117.272-292.229z"/><path fill="#5d6250" fill-opacity=".471" d="M152.06 443.498l47.384-144.55-160.32-19.094 51.911 231.86z"/><path fill="#e4edff" fill-opacity=".549" d="M330.404 661.583l12.308-43.187-35.427-10.137-2.674 36.972z"/><path fill="#fa6d88" fill-opacity=".29" d="M474.85 96.997l144.308 45.49L486.64 285.75l104.976-55.263z"/><path fill="#eae6cf" fill-opacity=".525" d="M417.2 685.44l22.29-26.626-1.731-23.048-20.188 3.213z"/><path fill="#1c0500" fill-opacity=".388" d="M428.02 271.58l56.195-218.758-60.858 49.219 79.23 298.95z"/><path fill="#000814" fill-opacity=".549" d="M656.012 324.146l-132.356 12.537-20.075 91.105-24.936 70.281z"/><path fill="#4c2f1b" fill-opacity=".639" d="M128.967 646.111l-36.433 26.954-33.987-17.288 120.192-161.36z"/><path fill="#402200" fill-opacity=".671" d="M653.512 698.056l-2.324-71.391 94.44 6.19-38.797 143.818z"/><path fill="#dbe6ff" fill-opacity=".592" d="M177.293 595.013L58.96 716.882l153.568-22.4 34.723-66.533z"/><path fill="#98a352" fill-opacity=".365" d="M626.545 25.655L770.22 259.009l-282.998 45.684 97.011 20.731z"/><path fill="#ac705a" fill-opacity=".533" d="M637.953 824.432l46.73-88.41-60.097 211.434L515.743 1086z"/><path fill="#3b0016" fill-opacity=".192" d="M206.067-12.915L137.388-62 82.267 34.564l101.656 64.277z"/><path fill="#6b3b0e" fill-opacity=".616" d="M705.834 880.129L561.225 1086l127.71-245.499 76.451-77.7z"/><path fill="#557597" fill-opacity=".824" d="M416.76 204.16L348.505 337.6l20.91-69.878.204 6.874z"/><path fill="#706965" fill-opacity=".725" d="M465.283 511.454l69.328-5.428-14.442 78.668-4.938-114.565z"/><path fill="#bcc4db" fill-opacity=".427" d="M898 583.612L749.062 597.2 898 994.824 752.138 518.289z"/><path fill="#16396f" fill-opacity=".976" d="M370.32 783.405l32.102-146.217 19.716-15.325-46.68 164.247z"/><path fill="#fdfdef" fill-opacity=".231" d="M212.941 552.808l27.73-7.506 17.63 27.921 350.855 85.058z"/><path fill="#58634e" fill-opacity=".584" d="M718.253 448.757l164.046 62.156L898 506.378l-266.031-182.91z"/><path fill="#c7d2e8" fill-opacity=".682" d="M675.802 723.779L629.395 833.12l-64.374 12.685 61.442-153.925z"/><path fill="#d26a63" fill-opacity=".349" d="M424.357 128.18l-38.106 22.432 18.118 40.943 182.102 77.68z"/><path fill="#00001b" fill-opacity=".431" d="M280.68 287.281l90.412 83.02-27.048-124.31-93.584 185.64z"/><path fill="#6b7260" fill-opacity=".475" d="M355.985 146.878L191.951 221-62 143.56l267.478 13.076z"/><path fill="#b2b9cc" fill-opacity=".957" d="M537.437 1012.947l31.982-98.198-6.834 53.608L513.835 1086z"/><path fill="#0660bf" fill-opacity=".537" d="M139.195 866.223l56.91-4.75-38.958 51.963-42.6-26.184z"/><path fill="#00040f" fill-opacity=".608" d="M556.686 773.316l-16.533-82.359-138.479-1.322 164.66 38.717z"/><path fill-opacity=".318" d="M362.159 588.626L473.036 623.4l255.135 14.63 29.636-116.205z"/><path fill="#fcf0d5" fill-opacity=".518" d="M517.696 514.633l1.627 23.865-53.943 4.916 22.31-31.104z"/><path fill="#431800" fill-opacity=".42" d="M415.288 252.957l179.123 11.077L427.898 398.31 517.69 237.2z"/><path fill="#d2fa31" fill-opacity=".184" d="M753.62 444.149l-43.496-58.912L898 449.284l-53.572-236.8z"/><path fill="#d3a697" fill-opacity=".714" d="M34.5 698.326l42.612-26.622-42.495-84.755 51.035-56.24z"/><path fill="#2568bb" fill-opacity=".435" d="M175.715 798.773l14.637-44.963 14.86-51.129-114.77 133.572z"/><path fill="#001d5a" fill-opacity=".506" d="M327.214 661.131l-77.585-29.128 65.353 187.128 42.206-219.491z"/><path fill="#04020a" fill-opacity=".388" d="M311.855 545.602l-2.782-67.937-20.39 195.264L235.578 778.9z"/><path fill="#f2fef5" fill-opacity=".255" d="M511.883 692.271l-137.58-12.637 101.794-7.084-9.666-14.519z"/><path fill="#0e0100" fill-opacity=".459" d="M248.15 502.478l-144.181 49.643 32.624 51.715 85.329-152.087z"/><path fill="#414c54" fill-opacity=".82" d="M485.17 689.69l10.42-60.278-103.233-9.12 138.533 29.167z"/><path fill="#0b0b05" fill-opacity=".498" d="M457.57 683.272l23.63-71.143-4.73 38.234-42.46-6.427z"/><path fill="#3a7dc8" fill-opacity=".227" d="M625.785 884.146L431.408 774.063l117.35 34.831 28.104 164.86z"/><path fill="#f4f9ff" fill-opacity=".388" d="M369.016 608.2l49.035 17.606-7.345 5.464-91.05-28.122z"/><path fill="#000010" fill-opacity=".451" d="M272.75 560.265l35.877 16.347 9.866-78.94-40.863.855z"/><path fill="#0b0f10" fill-opacity=".459" d="M85.367 242.386l239.86 59.913-160.054 94.81 146.201-179.49z"/><path fill="#fff7e7" fill-opacity=".294" d="M325.787 476.09l.561 11.219-76.546-2.149 22.75-9.51z"/><path fill="#77828c" fill-opacity=".545" d="M629.937 122.409l91.77 33.175L898 92.454 594.048 19.397z"/><path fill="#050609" fill-opacity=".765" d="M451.932 909.525L371.172 1086l-22.049-58.175L486.11 686.544z"/><path fill="#095bb8" fill-opacity=".498" d="M413.09 1000.885l-41.087 64.46-22.14 9.491 122.886-92.88z"/><path fill="#030815" fill-opacity=".796" d="M373.226 816.823L253.466 1086l70.309-260.37-96.78 198.73z"/><path fill="#daae9c" fill-opacity=".51" d="M25.796 671.05l2.536-88.164 119.825-95.941-23.224-20.884z"/><path fill="#99a3a7" fill-opacity=".275" d="M309.93 250.51l-128.103 51.113 228.073-68.14L368.552-62z"/><path fill="#fff6c4" fill-opacity=".267" d="M460.042 660.803l59.145-37.342-51.21 70.633.87 6.77z"/><path fill="#06477f" fill-opacity=".173" d="M693.593 1016.13l48.687-126.052-56.403.408 87.09 96.325z"/><path fill="#0068fe" fill-opacity=".271" d="M585.186 331.99l-37.48 45.468 1.812.884 35.246-103.418z"/><path fill="#1356a9" fill-opacity=".812" d="M607.437 428.594l-72.694 114.109L554.32 425.15l25.346-22.047z"/><path fill="#c48875" fill-opacity=".69" d="M550.07 173.51l-68.727-4.281 4.724-57.138 47.743-11.152z"/><path fill="#a1a44c" fill-opacity=".961" d="M572.257 287.331l158.316-83.893-22.095 161.154 87.912 49.812z"/><path fill="#0172e6" fill-opacity=".31" d="M361.955 967.498l-43.082-4.4-30.41 34.133 53.453 22.855z"/><path fill="#b0b7bd" fill-opacity=".753" d="M304.072 577.142l120.212 37.06-159.765-41.377 4.914-10.722z"/></svg>