<svg xmlns="http://www.w3.org/2000/svg" width="228" height="278" viewBox="0 0 836 1024"><path fill="#3f3c3b" d="M0 0h836v1024H0z"/><g fill-opacity=".502"><path fill="#aeada9" d="M546 1086l352-332-248-396z"/><path fill="#cda88c" d="M198 606l-260-40 60 468z"/><path fill="#0f0c00" d="M22 614L434 38-58-62z"/><path fill="#030100" d="M898-6v556L442-34z"/><path fill="#091b3b" d="M194 1086l544-292-132-568z"/><path fill="#ffffec" d="M634 1086l116-308-24 264z"/><path fill="#a99b5c" d="M234 562l-84 436 112-56z"/><path fill="#fdf7f8" d="M302 318l88 32 140-60z"/><path fill="#daddd3" d="M750 790l96-24-172-328z"/><path fill="#eafaff" d="M630 1078l-12-204-92 156z"/><path fill="#bbbfb0" d="M618 550l64 268-100-92z"/><path fill="#03122d" d="M350 1086l256-144-440-556z"/><path fill="#667b94" d="M458 578l96-208-404 284z"/><path fill="#745000" d="M782 290l-24 404-140-584z"/><path fill="#39160a" d="M678 1082l-56-184 104-252z"/><path fill="#ffffe8" d="M514 182V98l-52-72z"/><path fill="#001239" d="M566 334L158 598l-24-228z"/><path fill="#f2ffff" d="M666 366l-68-40 100 140z"/><path fill="#edd3c9" d="M38 858l-100-40 100 268z"/><path fill="#fff" d="M618 570l84-76 16 48z"/><path fill="#011f2e" d="M6 774l100 24-20 180z"/><path fill="#000a0c" d="M718 1086l180-120-140-172z"/><path fill="#edffff" d="M114 618l32-28 104 52z"/><path fill="#713c1a" d="M266 306l168 16 56-384z"/><path fill="#fff2df" d="M498 298l-52 36 64-124z"/><path fill="#2e1600" d="M542 534l160 56 36 128z"/><path fill="#141305" d="M502-62l396 84-364 280z"/><path fill="#7f432c" d="M38 1086l116-460 48 456z"/><path fill="#fff" d="M746 834l-48 112 36 28z"/><path fill="#fffff8" d="M722 866l12-220 28 120z"/><path fill="#121e30" d="M418 554l168 384-412-72z"/><path fill="#694c18" d="M22 82l112 232-196 88z"/><path fill="#000c26" d="M350 478l312-44 12 92z"/><path fill="#dcebe2" d="M302 574l44 20-56-104z"/><path fill="#e2e133" d="M254 894l-84-4 80 88z"/><path fill="#cfdcd6" d="M430 486l24 88 24-52z"/><path fill="#17202d" d="M170 230L-46 518l364 136z"/><path fill="#a5b7d3" d="M582 970V810l44 44z"/><path fill="#dbe8e7" d="M390 526l-8 68-20-120z"/><path fill="#a7b9d8" d="M466 454l8-64 56 64z"/></g></svg>