<svg xmlns="http://www.w3.org/2000/svg" width="228" height="278" viewBox="0 0 836 1024"><path fill="#432b30" d="M0 0h836v1024H0z"/><g fill-opacity=".502"><path fill="#d9faff" d="M638 150l260 84-128 148z"/><path fill="#de000e" d="M34 1086l268-536-364-32z"/><path fill="#000d10" d="M158 1086l168-796 572 336z"/><path fill="#ff2b2d" d="M574 1086l128-416 168 416z"/><path fill="#878aad" d="M18 46l-80 220 344-100z"/><path fill="#a2805f" d="M754 110l-392 28 4 212z"/><path fill="#6da1a2" d="M526 254l232 340 36-132z"/><path fill="#ffe" d="M822 1086H658l208-180z"/><path fill="#000204" d="M-10 330l-20 172 576 32z"/><path fill="#64a2a8" d="M630 718L486 934l68 40z"/><path fill="#000c11" d="M514 1086l-440-52 424-476z"/><path fill="#adb9ff" d="M818 374L670 262l228-108z"/><path d="M706 506l192 176-96 268z"/><path fill="#bf111c" d="M-62 1078l316-424-88 284z"/><path fill="#ffb07d" d="M374 154l52 76 68-112z"/><path fill="#9ac8d2" d="M470 454h72l-56 64z"/><path fill="#091811" d="M418-62l-92 208L898 22z"/><path fill="#3a3b50" d="M682 6L426 218l356-20z"/><path fill="#6ca7b7" d="M670 718l-72 40 52-136z"/><path fill="#001415" d="M690 470l-572-72 412-60z"/><path fill="#000a25" d="M738 330l72 200 88-160z"/><path fill="#e1ffff" d="M298 426l48-8 8-24z"/><path fill="#97b8c0" d="M706 386l-148-12 232 88z"/><path fill="#87000d" d="M746 730L542 894l236 108z"/><path d="M626 830l-40 140-24-112z"/><path fill="#7b5027" d="M474 126l-72 228 292-80z"/><path fill="#021317" d="M518 898L146 398l532 172z"/><path fill="#74667d" d="M-62 174l316 64-92-208z"/><path fill="#b7e1e9" d="M558 778l28 16-40 76z"/><path fill="#3d5060" d="M506 314l-380-28-68 116z"/><path fill="#daffb5" d="M898 938l-128 148 20-116z"/><path fill="#6771a6" d="M706 318V98l-72 8z"/><path fill="#de9969" d="M374 238l52 52 100-60z"/><path fill="#000608" d="M642 606l164-72 68 344z"/><path fill="#041418" d="M662 1062l-524 24 92-320z"/><path fill="#bbc7f8" d="M898 258l-184 60-12-112z"/><path fill="#020c05" d="M414 22l132 32v136z"/><path fill="#0a1c23" d="M-46 206l-16 436 220-384z"/><path fill="#0c0500" d="M330 206l72 28 92-24z"/><path fill="#5566a0" d="M798 390L666 270l232 104z"/></g></svg>