<svg xmlns="http://www.w3.org/2000/svg" width="228" height="278" viewBox="0 0 836 1024"><path fill="#605458" d="M0 0h836v1024H0z"/><g fill-opacity=".502"><path fill="#e7f4ff" d="M402 946L170 410l488-60z"/><path d="M-62 94l168 812L306-62z"/><path fill="#080500" d="M606 438L174-62 898-2z"/><path fill="#fff" d="M426 266L298 554l360-40z"/><path fill="#151a1e" d="M374 698l248-24-192-152z"/><path fill="#ffb5be" d="M74 966l488-184-308 224z"/><path fill="#fff" d="M698 962l-244 124 12-100z"/><path fill="#dae4ff" d="M826 1086l-72-156 144-164z"/><path fill="#edf4ff" d="M210 630l-12-212 244 200z"/><path fill="#7e3e1f" d="M418 178L318 506 162 46z"/><path fill="#110805" d="M354 842L22 306l-84 384z"/><path fill="#9e745f" d="M402 1010l460-288-316-176z"/><path fill="#010006" d="M626 482l272 76-120 148z"/><path fill="#7e889a" d="M590 314l108-164 200 200z"/><path fill="#97a1ff" d="M62 978l84-156L6 870z"/><path fill="#ac471e" d="M22 1050l204-396 60 388z"/><path fill="#d9ae9b" d="M218 278l-20-172 80-20z"/><path fill="#d9e8ff" d="M282 938l148-248-44 240z"/><path fill="#000209" d="M54 286l248 44L-2 646z"/><path d="M326 1086l-8-144 172 20z"/><path fill="#f1f9ff" d="M554 378l-208 24 92-112z"/><path fill="#2e1f20" d="M354 842l-44-180-192 276z"/><path fill="#fff" d="M338 590l-72-208-52 40z"/><path fill="#e4f9ff" d="M678 966v-84l-100 144z"/><path fill="#000016" d="M446 398l52-36 12 56z"/><path fill="#120401" d="M362 322l-48 192-36-124z"/><path fill="#ffe7cc" d="M642 522l-12 56 96 60z"/><path fill="#0e0003" d="M702 1022l-48-276 96 184z"/><path fill="#13140d" d="M630 406L418 278 314-62z"/><path fill="#fff" d="M510 590l-20-52 136-24zm240 392l24 104-72-128z"/><path fill="#b3c2e1" d="M542 734L434 898 298 698z"/><path fill="#4d4c52" d="M498 682l-20-172-220 204z"/><path fill="#99b3cf" d="M486 938l168-104 32 60z"/><path fill="#11080f" d="M898 6l-280 8 280 272z"/><path d="M614 1034l84-88 60 140z"/><path fill="#d1c9ff" d="M814 1078l-20-200 104-24z"/><path fill="#92aeb5" d="M794 690L670 798l160-20z"/><path fill="#9b5435" d="M770 702L506 918l120-380z"/><path fill="#ecf4ff" d="M502 514l-60-216-108 196z"/></g></svg>