<svg xmlns="http://www.w3.org/2000/svg" width="228" height="278" viewBox="0 0 836 1024"><path fill="#908949" d="M0 0h836v1024H0z"/><g fill-opacity=".502"><path fill="#190346" d="M898 74L-62 422 238-62z"/><path fill="#f9ff59" d="M898 610L-62 822l764 264z"/><path fill="#7d8000" d="M234 230l552 156-252 652z"/><path fill="#ffa" d="M602 354L346 206l552 104z"/><path fill="#d2d2ff" d="M706 510l184 72-64 504z"/><path fill="#e2edf4" d="M-18 910l344-36-16-260z"/><path fill="#fdfc39" d="M-62 586l456-72-156-216z"/><path fill="#030340" d="M238 1086l68-192-368 52z"/><path fill="#372556" d="M898 294L758-62 406 214z"/><path fill="#3340ff" d="M138 578L-62 842V614z"/><path fill="#251200" d="M398 30l-32 412L126-62z"/><path fill="#d3b6c6" d="M386-62h116l-80 416z"/><path fill="#c3c40d" d="M298 590l492 208-432 288z"/><path fill="#614200" d="M-62 870l352-412-140 308z"/><path fill="#d09a52" d="M114 86l268 112-424 8z"/><path fill="#3143ff" d="M186 710l72-152 52 88z"/><path fill="#ffe982" d="M158 642l-40-264-180 100z"/><path fill="#182914" d="M646 486l-388 76 264 44z"/><path fill="#2f34cd" d="M782 1086l116-216-156 44z"/><path fill="#e1d70e" d="M362 394l388-48-320-96z"/><path fill="#f2f86e" d="M310 1062l96-428-164 60z"/><path fill="#858400" d="M626 326l52 556-212-12z"/><path fill="#52389d" d="M-62 18l388-80L190 66z"/><path fill="#181b39" d="M642 254l28-316L426 54z"/><path fill="#ffffad" d="M898 338L586 238l4 92z"/><path fill="#685f00" d="M314 390l584-36-44 172z"/><path fill="#5b5fcf" d="M222 914l-8-216-60 208z"/><path fill="#4349ff" d="M874 570l20 104-192-60z"/><path fill="#879604" d="M354 458l-144-44-68 236z"/><path fill="#f8f856" d="M690 922l-408 96 516 68z"/><path fill="#e2d33d" d="M686 470l-48 296 120-240z"/><path fill="#4e2a04" d="M342 414l84-264-192 148z"/><path fill="#2e2e67" d="M98 1066L18 826l-80 220z"/><path fill="#ffb" d="M898 646L798 878l-96-224z"/><path fill="#2e305e" d="M238 266l-300-88 208 212z"/><path d="M402 78l-224 44L298-46z"/><path fill="#9a8eee" d="M278-62l216 176-28-168z"/><path fill="#c585a1" d="M774 270l124-76-152-20z"/><path fill="#ffbc30" d="M726 430l48 40 124-64z"/><path fill="#b6a88a" d="M250 142l-8 184-56-200z"/></g></svg>