<svg xmlns="http://www.w3.org/2000/svg" width="228" height="278" viewBox="0 0 836 1024"><path fill="#888a70" d="M0 0h836v1024H0z"/><path fill="#f8ee72" fill-opacity=".796" d="M538.644 1086l-362.863-13.296 105.898-723.48L688.4 394.297z"/><path fill="#020c23" fill-opacity=".616" d="M87.087 516.97L95.745-62 898 28.313 471.433 59.292z"/><path fill="#053585" fill-opacity=".561" d="M584.96 855.424L821.975-62l19.36 767.371-54.086 193.153z"/><path fill="#3c5377" fill-opacity=".992" d="M264.746 512.116l-68.612-167.215L-53.58 648.739l211.51 224.563z"/><path fill="#14132b" fill-opacity=".592" d="M272.065-62l-21.783 288.004 195.005 192.659 83.428 14.624z"/><path fill="#41484e" fill-opacity=".914" d="M570.961 229.89l72.213-180.61L898-62l-86.853 375.55z"/><path fill="#ebf7c4" fill-opacity=".565" d="M898 340.465v243.573L641.387 283.404 405.61 553.062z"/><path fill="#fdad8e" fill-opacity=".655" d="M584.281 186.064L538.441 63.58 401.626 99.858l57.821 251.11z"/><path fill="#efb0ff" fill-opacity=".412" d="M552.773 915.218l40.474-55.5L898 868.664 784.911 1086z"/><path fill="#f0ef8a" fill-opacity=".902" d="M209.777 351.675l146.431-34.15 180.618 244.841-284.119-87.814z"/><path fill="#8598ff" fill-opacity=".443" d="M-62 999.588l199.61-38.182 21.877-62.956L-62 470.412z"/><path fill="#d4d5ff" fill-opacity=".29" d="M-62 427.666L74.814-62l9.058 260.837-14.187 327.282z"/><path fill="#b0a124" fill-opacity=".502" d="M145.025 1086l185.804-384.696-17.088-223.208-127.722 176.808z"/><path fill="#e5d3be" fill-opacity=".561" d="M759.19 35.752l-89.378 124.61 44.847 16.222L708.166-62z"/><path fill="#4562a7" fill-opacity=".757" d="M546.03 429.272l40.755-132.392-118.337 137.365-84.54-74.737z"/><path fill="#735a5e" fill-opacity=".808" d="M457.804 942.394l94.87 49.35 103.735-45.384L555.685 1086z"/><path fill="#c9dec5" fill-opacity=".671" d="M676.712 529.573l-44.336-242.145 93.288-8.301 4.816 35.553z"/><path fill="#121d00" fill-opacity=".373" d="M-47.078 872.034l229.548-15.107 18.35-175.687L73.55 831.036z"/><path fill="#296ef8" fill-opacity=".325" d="M693.678 882.335l156.776 69.536-156.565-571.335L715.08 882.79z"/><path fill="#000343" fill-opacity=".286" d="M284.788 599.36l-97.543-302.375-18.567 294.223 169.484 70.658z"/><path fill="#1d2b23" fill-opacity=".431" d="M634.195 691.431l-40.407 134.3 146.075 78.5-91.944-358.593z"/><path fill="#adabe7" fill-opacity=".831" d="M44.37 874.663L-7.566 988.166l142.077-49.13 37.923-70.964z"/><path fill="#29333c" fill-opacity=".647" d="M118.696 193.882l9.692 201.791 262.959-131.325 60.748-104.164z"/><path fill="#d8e4d4" fill-opacity=".506" d="M795.8 445.043l71.94-187.214-72.321 16.227 70.428 248.584z"/><path fill="#bab092" fill-opacity=".675" d="M626.254 178.368L611.027 9.14l-33.106 12.72 24.07 135.75z"/><path fill="#4f4138" fill-opacity=".902" d="M592.083-62L366.84 70.378l167.329-18.036 34.635 114.474z"/><path fill="#14232f" fill-opacity=".506" d="M863.466 67.745l-98.17 346.972-34.676-145.128-127.117 28.65z"/><path fill="#fddbce" fill-opacity=".424" d="M151.141 478.88l-24.292-53.81 22.75-2.403 46.178-13.858z"/><path fill="#ff9b59" fill-opacity=".463" d="M837.924 1059.994l-155.492 16.59 11.354-156.114 64.961-18.91z"/><path fill="#fff367" fill-opacity=".498" d="M415.138 1046.005L644.72 699.793 190.898 840.646l-23.775 101.52z"/><path fill="#da8d79" fill-opacity=".569" d="M553.455 274.585l-26.604 130.493-99.546-32.36 199.448-101.673z"/><path fill="#e2d14f" fill-opacity=".918" d="M188.726 884.615l176.457-287.08 157.713 371.61-128.131-162.606z"/><path fill="#a7a8f5" fill-opacity=".573" d="M611.402 896.54l67.55 189.46 15.965-227.644-111.651 27.48z"/><path fill="#1b52ba" fill-opacity=".439" d="M80.531 658.428L-62 1042.178l60.736-477.49 216.613-16.892z"/><path fill="#929274" fill-opacity=".533" d="M9.234 817.01l72.323-146.645 43.277 119.117-50.685 68.568z"/><path fill="#f5eb68" fill-opacity=".573" d="M188.074 363.063l190.191 46.977-36.996-118.727 14.2-.627z"/><path fill="#184d8b" fill-opacity=".647" d="M897.354 527.486l-180.68-67.343 53.17 266.99 66.321 63.621z"/><path fill="#4b6eb0" fill-opacity=".6" d="M536.63 346.534l13.835-55.973 86.261 63.062-10.987 21.81z"/><path fill="#f4e978" fill-opacity=".584" d="M328 558.103l382.493-159.795-101.629 270.248-32.795 305.33z"/><path fill="#87502c" fill-opacity=".49" d="M479.326 378.498L393.195 81.313l-30.028 83.493 58.825 174.387z"/><path fill="#417dff" fill-opacity=".188" d="M365.804 427.372L286.37 544.317l114.348 19.465 10.317-44.27z"/><path fill="#8d9276" d="M-62 515.899l190.384-.332-47.647 73.69 63.501-81.443z"/><path fill="#020200" fill-opacity=".357" d="M499.353 338.387l-49.808-5.488-98.324-103.784 35.783 148.564z"/><path fill="#9f2510" fill-opacity=".435" d="M577.163 952.392l-42.555 114.556 120.482-78.866-7.841-24.51z"/><path fill="#2a2c34" fill-opacity=".525" d="M550.79 264.28L720.605 25.877 570.177-53.74l115.487 274.576z"/><path fill="#9dae9f" fill-opacity=".831" d="M493.164 1086l51.8-77.402 12.08-101.077-9.039-15.438z"/><path fill="#bb7428" fill-opacity=".482" d="M173.255 936.603l41.487 46.05L-62 1001.057l286.562 84.717z"/><path fill="#c5c3ac" fill-opacity=".667" d="M799.91 362.853l67.957 131.284-173.436-97.476L898 396.438z"/><path fill="#685f13" fill-opacity=".522" d="M240.035 718.12l-85.187-161.01 182.658 281.468 32.47 15.937z"/><path fill="#2e57af" fill-opacity=".6" d="M560.11 370.393l-36.76 67.832-66.548-12.585 25.513-22.31z"/><path fill="#0d1a0f" fill-opacity=".271" d="M685.648 386.887l131.045-70.39-123.446 138.57 130.326 29.992z"/><path fill="#181f24" fill-opacity=".816" d="M262.603-15.975l443.12 21.66L459.09-62 264.53 268.406z"/><path fill="#315ea9" fill-opacity=".631" d="M773.57 902.593L645.714 549.111l208.04 142.615-157.94 209.951z"/><path fill="#fff88c" fill-opacity=".373" d="M325.961 797.608l-75.84-86.816-62.585-145.19L355.92 836.113z"/><path fill="#fcf881" fill-opacity=".588" d="M274.474 619.863L703.057 396.01l-137.39-37.977 2.884 219.359z"/><path fill="#e9e172" d="M448.385 1086L250.828 776.084 197.97 637.13l26.516 108.73z"/><path fill="#393902" fill-opacity=".553" d="M185.11 712.47l25.43-98.903 118.901 26.138-134.356-60.528z"/><path fill="#005d86" fill-opacity=".298" d="M456.955 974.123l25.746-43.14 4.25 18.272 99.71 78.018z"/><path fill="#a8856b" fill-opacity=".49" d="M664.151 170.133l49.767-146.072 17.106 130.007-27.484 33.75z"/><path fill="#0a3183" fill-opacity=".373" d="M119.928 744.645l69.037-385.363 52.332 58.878 15.655 99.76z"/><path fill="#1e3d66" fill-opacity=".518" d="M790.26 885.513l-18.472-180.876L734.6 463.002l73.553 3.55z"/><path fill="#a5a9da" fill-opacity=".467" d="M898 787.593L800.318 1086l15.705-262.125-36.392-44.257z"/><path fill="#a2725a" d="M404.326 163.323l114.262-.814-22.762 1.242-15.93 28.11z"/><path fill="#51696b" fill-opacity=".494" d="M128.555 178.686L96.374-62 79.379 193.535 93.82 540.89z"/><path fill="#edd953" fill-opacity=".659" d="M654.186 531.287l-44.001 253.26-140.746-81.412 208.706-205.118z"/><path fill="#2f34b9" fill-opacity=".137" d="M563.05 500.027l32.198 80.333 64.86-102.006-273.044-19.978z"/><path fill="#394e53" fill-opacity=".51" d="M163.375 863.77l49.753 88.792-113.43-310.769-16.34 218.992z"/><path fill="#f3bb9c" fill-opacity=".706" d="M507.434 209.994l-68.915-37.09-11.247 71.412 91.851 46.37z"/><path fill="#d9dce0" fill-opacity=".525" d="M40.354 337.466L-41.47 230.602-62 402.955 41.988 385.28z"/><path fill="#b3cfd7" fill-opacity=".624" d="M610.408 308.002l92.223-20.504 10.947 145.408-116.897-114.72z"/><path fill="#102259" fill-opacity=".659" d="M84.42 590.199l54.08 54.947-41.285 25.425-43.844-120.503z"/><path fill="#feffb2" fill-opacity=".337" d="M304.083 506.605l-19.267-162.012 234.23 103.06 139.81-63.209z"/><path fill="#3a2b34" fill-opacity=".49" d="M620.902 249.236l-88.432-4.796 57.533-52.161-49.716-198.34z"/><path fill="#e4d658" fill-opacity=".918" d="M340.025 547.504l64.852 131.032-163.051-87.448 108.63-12.617z"/><path fill="#b2f5fc" fill-opacity=".149" d="M895.695 5.459l-94.625 112.22L723.397-62 693.886 98.975z"/><path fill="#d15d16" fill-opacity=".408" d="M33.49 906.298l-.968 30.04L-62 903.942v-93.474z"/><path fill="#214996" fill-opacity=".455" d="M696.99 382.577l8.835 386.78-61.714-184.948 43.674-109.462z"/><path fill="#ffbe9f" fill-opacity=".243" d="M372.193 162.25l279.1-12.506-151.19 91.245-3.254-215.804z"/><path fill="#2c6fb2" fill-opacity=".725" d="M738.177 732.564l116.82-27.001-41.917-243.17-2.886 193.352z"/><path fill="#376ad6" fill-opacity=".361" d="M425.687 1086l-137.893-85.208-20.96 49.04 50.99-48.54z"/><path fill="#f7f279" fill-opacity=".835" d="M443.651 825.781L238.323 968.314 501.035 1086h-5.792z"/><path fill="#5e5f1f" fill-opacity=".765" d="M206.2 849.88l-24.504-169.635 54.136 148.843L166.77 723.04z"/><path fill="#bcb044" fill-opacity=".918" d="M302.86 567.86l13.683 56.554-43.959-39.814-25.314-118.748z"/><path fill="#894259" fill-opacity=".4" d="M751.185 890.303l68.23 55.685-67.892 105.89 80.904-16.687z"/><path fill="#102c55" fill-opacity=".557" d="M253.621 332.717l139.39-75.217-53.584-112.352-61.976 97.11z"/><path fill="#394949" fill-opacity=".773" d="M656.117 601.971l-19.326 33.708 75.05 228.315-126.782-9.39z"/><path fill="#223037" fill-opacity=".478" d="M898 136.351l-171.598-33.15 90.075 259.684-117.557 39.942z"/><path fill="#efe66a" fill-opacity=".635" d="M187.85 794.637L271.865 1086l-130.878-93.158L210.205 1086z"/><path fill="#275637" fill-opacity=".341" d="M145.866 948.786l39.677-145.6-24.603 166.359-140.024 28.607z"/><path fill="#bc9500" fill-opacity=".275" d="M514.965 985.906l-44.777-145.278-98.644-202.487 114.224 322.042z"/><path fill="#e49979" fill-opacity=".384" d="M509.413 251.11l129.003.765-16.046 37.418-199.357 8.728z"/><path fill="#00518c" fill-opacity=".239" d="M595.956 974.294l-38.139 53.089-88.142-103.526 2.233 82.598z"/><path fill="#54738b" fill-opacity=".392" d="M408.668 713.624l-29 71.83 11.968-59.884-1.665-29.652z"/><path fill="#8e918e" fill-opacity=".984" d="M64.879-62H-62l34.757 337.03 45.66-13.47z"/><path fill="#efdaac" fill-opacity=".216" d="M94.737 686.997L58.071 867.476 44.857 708.484l46.959-27.29z"/><path fill="#4c0900" fill-opacity=".298" d="M505.855 339.934l73.723-135.726-111.69 155.704-81.808 18.927z"/><path fill="#e1a1fa" fill-opacity=".416" d="M606.894 1084.42l60.202-49.505 2.446-38.225-61.464 15.003z"/><path fill="#645101" fill-opacity=".212" d="M237.14 937.209l74.607 26.771-47.462-27.891L162.68 731.817z"/><path fill="#b4a9e2" fill-opacity=".596" d="M898 893.722l-29.608 159.935-84.995-144.359-4.243-51.05z"/><path fill="#92835d" fill-opacity=".439" d="M285.832 511.64l139.242-11.56-23.185 12.508 3.17 21.075z"/><path fill="#061f2d" fill-opacity=".333" d="M634.423 672.958l80.52 229.31-24.339-138.902-46.785-198.157z"/><path fill="#a0a7e8" fill-opacity=".58" d="M705.74 877.278L593.228 966l-2.101-91.4 51.075-11.258z"/><path fill="#f6f48c" fill-opacity=".761" d="M655.922 549.502l32.423-81.072-247.523-2.101 217.819-94.655z"/><path fill="#74a1f6" fill-opacity=".204" d="M165.228 608.566l-32.534-29.17-143.507-120.004 119.974 159.07z"/><path fill="#2e3d59" fill-opacity=".753" d="M780.232 858.447l42.873 3.28 44.795-5.942-86.933-7.306z"/><path fill="#b9960a" fill-opacity=".306" d="M150.45 736.77l156.125 143.203 128.96 99.124-102.896-57.65z"/><path fill="#fae7bd" fill-opacity=".349" d="M740.916 616.255l16.746 30.766 2.964-14.992-39.05-56.13z"/><path fill="#2a2420" fill-opacity=".439" d="M792.542 132.982l-176-47.235L655.432-62l45.78 155.8z"/><path fill="#172f6f" fill-opacity=".561" d="M527.214 420.275L383.537 348.16l40.641 35.382 72.27 39.9z"/><path fill="#b08167" fill-opacity=".627" d="M398.781 238.7l-26.366-25.59 55.911-34.737 33.622-114.64z"/><path fill="#300210" fill-opacity=".224" d="M565.61 222.646l-17.404 134.728-18.818 46.973 19.24-160.473z"/><path fill="#f5f789" fill-opacity=".741" d="M592.098 912.842l-10.19 30.851-19.025 31.571 13.596-91.428z"/><path fill="#2184ce" fill-opacity=".384" d="M179.276 716.37l-36.587 9.166-49.704 9.493 84.154-64.265z"/><path fill="#5d6631" fill-opacity=".98" d="M379.442 285.648l-54.333 9.32 59.332 55.529-26.561-67.033z"/><path fill="#ede367" fill-opacity=".588" d="M133.067 1018.53l324.155-22.658-326.174-23.14 60.499 19.86z"/><path fill="#b49814" fill-opacity=".42" d="M440.923 926.386l-47.725-38.835L187.01 663.054l176.96 177.522z"/><path fill="#090709" fill-opacity=".373" d="M242.348 531.866l19.59-36.398-11.165 76.933-67.22 53.501z"/><path fill="#fde74f" fill-opacity=".392" d="M63.124 529.121l31.312-24.911 55.92 19.478-15.124-24.41z"/><path fill="#e3da9c" fill-opacity=".439" d="M511.85 796.151l-82.44-30.922 2.411-159.477 59.562-28.01z"/><path fill="#6190d2" fill-opacity=".522" d="M523.41 433.81l-58.871-2.715-65.487-48.592 11.464-1.89z"/></svg>