<svg xmlns="http://www.w3.org/2000/svg" width="228" height="278" viewBox="0 0 836 1024"><path fill="#66535b" d="M0 0h836v1024H0z"/><g fill-opacity=".502"><path fill="#f1e1ff" d="M670 366l148 604-640 116z"/><path d="M374-62l508 824L854-6z"/><path d="M450-62L-62 782l32-844z"/><path fill="#e6e0ff" d="M130 354l288 136-168 192z"/><path fill="#ffc5ca" d="M766 602L398 46l140 512z"/><path fill="#37150b" d="M-50 542l588 156-520 388z"/><path fill="#e5efff" d="M678 822l-400 80 292 184z"/><path fill="#664c37" d="M898 926L678 706l-52 340z"/><path fill="#160000" d="M346 498L214 210l252 76z"/><path fill="#fff" d="M190 1046l44-124 188 132z"/><path fill="#c79072" d="M678 570L282 102l168-28z"/><path fill="#c19376" d="M266 582L130 746l-16 296z"/><path fill="#fff" d="M742 782V574L614 374z"/><path fill="#300000" d="M386 518L86 1086l384-408z"/><path fill="#c1bcff" d="M282 358l-160 56 200 196z"/><path fill="#544e4f" d="M642 366L462 262 634-42z"/><path fill="#fff" d="M514 422l-32-36-96 116z"/><path fill="#0f0811" d="M594-62l156 696L898 2z"/><path fill="#bd0600" d="M538 1086L234 886l160 180z"/><path fill="#0d1a31" d="M582 726l-24-160 56 24z"/><path fill="#10070a" d="M-38 206L582 18-62-26z"/><path fill="#332b21" d="M666 838l168-108-212 44z"/><path fill="#00060f" d="M34 1086l96-344-192 80z"/><path fill="#929dda" d="M546 894l24-388-220 376z"/><path fill="#190c12" d="M-62 710L38-62l116 584z"/><path fill="#d0deff" d="M574 574L470 374l140 132z"/><path fill="#fffbff" d="M510 294l72 120 108 24z"/><path fill="#d06a77" d="M526 338l144 124 36 312z"/><path fill="#503c43" d="M406 138L58 206l76 204z"/><path fill="#ae0c00" d="M546 534l-64 96-4-208z"/><path fill="#b78c7a" d="M58 1002l80 68-20-212z"/><path fill="#55455a" d="M730 514l76 552 88-556z"/><path fill="#f1f8ff" d="M242 930l236 156-284-44z"/><path fill="#cb6531" d="M494 382l4-124-172 252z"/><path fill="#e5ebff" d="M606 766l64 88-116 228z"/><path fill="#c1c2ff" d="M258 634l204-180-180 56z"/><path fill="#081314" d="M522 730l-252-64 164-16z"/><path fill="#7b0400" d="M294 910l-12-92 148-72z"/><path fill="#b094b2" d="M162 354l136-44-80 432z"/><path fill="#3b1f03" d="M386 486l-36-384-60 340z"/></g></svg>