<svg xmlns="http://www.w3.org/2000/svg" width="228" height="278" viewBox="0 0 836 1024"><path fill="#6b5766" d="M0 0h836v1024H0z"/><g fill-opacity=".502"><path fill="#ff2920" d="M326 2L-62-2 38 542z"/><path fill="#005799" d="M58 1034l656-724-592 16z"/><path fill="#ff322d" d="M562 218l336 400-68-680z"/><path fill="#1e6fba" d="M602 278L102 378l796 384z"/><path fill="#3a362b" d="M694 502L98 910l36-400z"/><path d="M482 194l-204 16 128 208z"/><path fill="#f1fff0" d="M254 94l200-12 8 120z"/><path fill="#52bdff" d="M382 570L138 346l168-72z"/><path fill="#6d93a0" d="M122 998l288 48-148-468z"/><path fill="#cfbf9a" d="M582 854l212 4-152 228z"/><path fill="#00258a" d="M606 1086l8-120-440 20z"/><path fill="#f8d0b5" d="M574 714l24-200 80 96z"/><path fill="#6a6831" d="M298 894l600-100-640-220z"/><path fill="#000613" d="M514 530l32 200 108-368z"/><path fill="#ffcd20" d="M278 694l56 160-36 132z"/><path fill="#ea3f40" d="M6-62l-24 656L318 74z"/><path fill="#0070e0" d="M234 686l104 400H230z"/><path fill="#000b4d" d="M74 718l152-308-108 676z"/><path d="M494 150L350-30l128 72z"/><path fill="#ffc116" d="M434 958l-60 12V742z"/><path fill="#34a1fb" d="M502 258l156 68-220 104z"/><path fill="#0033b6" d="M350 974l-40-284 60 140z"/><path fill="#182c4e" d="M694 782L594 366l256 452z"/><path fill="#3a8aff" d="M834 822l4-168-128-172z"/><path fill="#003596" d="M470 902l-60-180 20 344z"/><path fill="#eb474a" d="M590 82l128 404L826 86z"/><path fill="#fcad0a" d="M506 918l-76-140 12-172z"/><path d="M406 162l32-36-68-16z"/><path fill="#000626" d="M170 422l176 188-248-88z"/><path fill="#f9a30d" d="M386 714l-64-120 52 264z"/><path fill="#ffbeb5" d="M134 990l24-116 76 80z"/><path fill="#ffc410" d="M274 758l-28-204 44 92z"/><path fill="#fff" d="M298 158l84-16-88 60z"/><path fill="#9799a2" d="M594 234L430-58l168 28z"/><path fill="#eda88d" d="M58 878l-120 84 152 20z"/><path fill="#002d69" d="M498 518l8 332-88-288z"/><path fill="#001805" d="M358 14l-84 40 8 68z"/><path fill="#ffe715" d="M346 334l-44-88v76z"/><path fill="#002787" d="M386 766l64 56-60-236z"/><path fill="#221a03" d="M346 170L158 330l300-132z"/></g></svg>