<svg xmlns="http://www.w3.org/2000/svg" width="228" height="278" viewBox="0 0 836 1024"><path fill="#4b7d60" d="M0 0h836v1024H0z"/><g fill-opacity=".502"><path fill="#99ffc4" d="M142 366l392 720 148-784z"/><path d="M-10-62l508 32-560 672z"/><path d="M898 18L762 354 398-62z"/><path fill="#72ff9f" d="M650 1014l-496 72 248-824z"/><path fill="#090217" d="M578 822l320 124-52-964z"/><path fill="#ff8d9a" d="M306 186l252 124-56-372z"/><path fill="#c5ffe2" d="M-62 782l96 304 52-596z"/><path fill="#a0ffc8" d="M898 326l-236-20 52 108z"/><path fill="#00000e" d="M38 866l176-368-12 384z"/><path fill="#060013" d="M886 310l-356-16L650-62z"/><path fill="#13001d" d="M426 262L2-62l-16 492z"/><path fill="#fff" d="M118 1086l-180-48 80-164z"/><path fill="#83ff9f" d="M106 378l524 4-40 568z"/><path fill="#3b25ca" d="M602 846l296 132-268 108z"/><path fill="#5cf37b" d="M394 274L134 390-62 906z"/><path fill="#a14537" d="M338 114l240 248-216-12z"/><path fill="#43f776" d="M662 1086l-452-96 40-456z"/><path fill="#ffb5b0" d="M338 206L510 54l48 152z"/><path fill="#4739ce" d="M138 1086L38 894l180-36z"/><path fill="#190821" d="M854 126l4-188-712 52z"/><path fill="#008221" d="M162 494l60 224 96-120z"/><path fill="#33da54" d="M630 454L478 322l420 24z"/><path fill="#f5a3c9" d="M546 506l-228-12 228-72z"/><path fill="#151527" d="M622 546l-20 344 296-40z"/><path fill="#5cff82" d="M42 926L-62 714 90 554z"/><path fill="#141525" d="M94 642L46 902l160-252z"/><path fill="#0c240a" d="M562 370l-12-64-176-36z"/><path fill="#004600" d="M666 414l-12 128 244-172z"/><path fill="#a3ffb9" d="M898 390l-36-76-196 24z"/><path fill="#ffe6e6" d="M494 626l-220 8 76 40z"/><path fill="#181224" d="M554 286l328 36L542-42z"/><path fill="#7a464d" d="M306 62L502-62 322 206z"/><path fill="#171629" d="M326-62L-62 542l348-260z"/><path fill="#fff" d="M110 1086H-62l76-184z"/><path fill="#35ea69" d="M538 490l128-44-72 224z"/><path fill="#5eff8f" d="M602 1086L362 698l240-64z"/><path fill="#f59190" d="M374 250l112 120-96-12z"/><path fill="#fdada8" d="M414 58l100 244 24-208z"/><path fill="#99f4af" d="M178 366l256 280-80-356z"/><path fill="#10081d" d="M270-26l76 332L50-62z"/></g></svg>