<svg xmlns="http://www.w3.org/2000/svg" width="228" height="278" viewBox="0 0 836 1024"><path fill="#6d6d7a" d="M0 0h836v1024H0z"/><g fill-opacity=".502"><path fill="#fff" d="M398 158l292 812-280 88z"/><path fill="#fff" d="M594 550l-384-80 168-236z"/><path fill="#3c3854" d="M494 666L-62 82 2 1086z"/><path fill="#152240" d="M702 18l196 808-320-80z"/><path fill="#fff" d="M542 642l160 360-356-160z"/><path fill="#3b4031" d="M846 58L122 258l728 8z"/><path fill="#2c1c08" d="M222 2L-2 106l576-12z"/><path fill="#94503d" d="M506 698l-16-200-432 84z"/><path fill="#bbbeeb" d="M646 930l-200 156-156-432z"/><path fill="#c1ca82" d="M794 362l104-112-464 48z"/><path d="M234 410l100-140-120-20z"/><path fill="#fff" d="M246 518l84-252 128 36z"/><path fill="#ffb295" d="M218 78l144 44-32 128z"/><path d="M686 982l212 104-552-20z"/><path fill="#18205f" d="M558 658l84 204 256-460z"/><path fill="#31407d" d="M30 422l-92 600 512 20z"/><path d="M246 506l56 92 144-32z"/><path fill="#b3c38d" d="M-30 254l-32 136 308-76z"/><path fill="#2a2416" d="M-62 226l240-88 64 152z"/><path fill="#df948b" d="M134 622l8-108 252 124z"/><path fill="#7785bb" d="M174 762l212 264L30 854z"/><path fill="#8fa09f" d="M682 98l216 72-432-4z"/><path d="M630 242l268 28-88-100z"/><path fill="#242444" d="M278 650L-62 546l436 372z"/><path fill="#ffd0c0" d="M618 562l-188-4 104 124z"/><path fill="#fff" d="M358 934l4 88-52-36z"/><path fill="#9aac82" d="M370 82L258-62l588 76z"/><path d="M354 894l20 192 36-104z"/><path fill="#061766" d="M838 742l-8 312-96 32z"/><path fill="#e2e8ff" d="M506 378l-172 68 24 100z"/><path fill="#fff" d="M358 250l-80 108 220 24z"/><path fill="#4a5344" d="M614 570l228-232-372-4z"/><path fill="#999bd2" d="M322 850l-72 124 36-244z"/><path fill="#fff" d="M438 702l112-32 160 332z"/><path fill="#aba8c7" d="M434 366L162 514l260-24z"/><path fill="#5260b7" d="M822 770l-172 24 80 292z"/><path fill="#c77663" d="M166 90l68 200 92-208z"/><path fill="#42261b" d="M418 622l88 68-316-12z"/><path fill="#9995cb" d="M26 930l56 52 32-184z"/><path fill="#a4a8c2" d="M298 670l180 56-44 344z"/></g></svg>