<svg xmlns="http://www.w3.org/2000/svg" width="228" height="278" viewBox="0 0 836 1024"><path fill="#414b44" d="M0 0h836v1024H0z"/><path fill="#f0a89d" fill-opacity=".494" d="M873.088 1050.903l-201.03-10.803-15.108-67.673 70.293-465.513z"/><path fill="#eba593" fill-opacity=".541" d="M123.224 805.852L49.789 677.179-33.573 1086h270.814z"/><path fill="#c89c7f" fill-opacity=".627" d="M437.56 52.534l17.193 345.208-181.62-121.511-31.422-155.586z"/><path fill="#023522" fill-opacity=".98" d="M210.536 748.854l464.744-56.417-56.718 285.285L211.032 1086z"/><path fill="#edad8d" fill-opacity=".639" d="M289.307 612.795l2.378 121.394 227.957-32.474-66.89-97.096z"/><path fill="#005a3e" fill-opacity=".847" d="M59.26 692.48l656.746-186.51L522.97 369.548l-412.35 79.897z"/><path fill="#cdf2ff" fill-opacity=".612" d="M484.32 328.414l140.993 41.847 62.55 49.802-219.016-61.81z"/><path fill="#cceff9" fill-opacity=".565" d="M73.418 491.486l23.134-48.028 148.615-90.529 32.16 12.93z"/><path fill="#150013" fill-opacity=".482" d="M898 190.27L800.165-62l-381.84 348.515 163.348 68.911z"/><path fill="#370016" fill-opacity=".549" d="M-62-62l205.865 487.61 107.77-314.104L423.713 6.793z"/><path fill="#002d1d" fill-opacity=".729" d="M712.034 623.774l-83.843-219.072L455.24 643.837l175.205 55.403z"/><path fill="#031001" fill-opacity=".506" d="M281.122 754.491L160.915 485.635l-82.513 60.748.929 237.393z"/><path fill="#be9fcb" fill-opacity=".412" d="M732.912 672.897l67.205-81.344-.062-50.172-128.306-59.424z"/><path fill="#ff72ce" fill-opacity=".247" d="M69.723 260.358L-62 229.748 84.94 544.14l25.964-103.357z"/><path fill="#ae9eff" fill-opacity=".192" d="M559.685 342.428l266.142 92.513L898 401.947 701.594 250.16z"/><path fill="#c7d8e5" fill-opacity=".545" d="M218.781 576.653l37.882-57.712 27.076 37.01 18.45-.64z"/><path fill="#00724f" fill-opacity=".635" d="M677.506 1049.706l-488.74-41.44 432.932-59.946-86.678-341.297z"/><path fill="#280011" fill-opacity=".424" d="M602.427 414.91l9.23 399.201 160.717 64.23-114.08-202.106z"/><path fill="#097857" fill-opacity=".529" d="M388.22 393.158l90.284-43.62 137.219 347.166-25.203 164.7z"/><path fill="#9c8371" fill-opacity=".761" d="M381.413 16.499L260.58 402.176l216.907-198.914-50.764-128.499z"/><path fill="#574533" fill-opacity=".996" d="M326.109 199.454l88.614-34.208-76.913-3.04L226.684 186.9z"/><path fill="#46001e" fill-opacity=".435" d="M898 480.465l-253.521-91.598 142.398 142.096 21.05 325.897z"/><path fill="#d7af94" fill-opacity=".608" d="M812.05 835.378l46.168 250.03-71.094-112.063L743.3 600.637z"/><path fill="#066e4f" fill-opacity=".918" d="M488.402 561.342L239.715 333.863l19.148 44.123L97.23 472.78z"/><path fill="#a79890" fill-opacity=".922" d="M259.866 725.658l10.889-42.671 246.455-23.752-41.898 47.384z"/><path fill="#7c675e" fill-opacity=".706" d="M589.845 963.117l180.187-226.544-137.728-134.335 160.203 389.495z"/><path fill="#7b6742" fill-opacity=".729" d="M363.804 408.912l-87.07-16.195 62.335-174.553 100.208 168.454z"/><path fill="#ff82d1" fill-opacity=".2" d="M-62 590.24l173.786-122.136L-62 931.72V627.14z"/><path fill="#584041" d="M133.56 867.995l47.002 105.216 32.636-179.238-36.07-139.524z"/><path fill="#252329" fill-opacity=".98" d="M898 283.815l-65.274 50.264-280.13-242.174 51.745-50.862z"/><path fill="#001b10" fill-opacity=".588" d="M624.778 964.672l10.169-101.965L302.77 756.114l-134.752 176.09z"/><path fill="#060a13" fill-opacity=".576" d="M774.077 682.001l-19.579-68.787L898 711.663l-86.093 95.822z"/><path fill="#871428" fill-opacity=".6" d="M81.616 116.808L-62 124.17l29.119-177.36L118.572-62z"/><path fill="#421f2f" fill-opacity=".596" d="M268.052 250.722l15.632 67.14-273.582 188.6L244.81 201.064z"/><path fill="#ecc39a" fill-opacity=".388" d="M132.69 1086L23.31 757.325 179.323 1086 115.58 746.534z"/><path fill="#00815e" fill-opacity=".624" d="M314.854 518.448l367.048-91.584-195.81-64.648-152.194 66.48z"/><path fill="#000901" fill-opacity=".541" d="M616.527 431.033l106.257 211.003-30.4 16.442-104.4-98.443z"/><path fill="#b77047" fill-opacity=".922" d="M393.335 668.222l-116.712 23.011 86.998-83.667-80.531 7.121z"/><path fill="#f8a2e9" fill-opacity=".157" d="M829.125 616.843l-86.637-288.141 74.111 14.75-99.86 301.04z"/><path fill="#afcade" fill-opacity=".576" d="M633.347 388.26l27.399 11.36 13.247 52.687 16.895 47.611z"/><path fill="#2a1320" fill-opacity=".451" d="M404.85-60.446l90.234 385.79 12.88 7.15L508.95-62z"/><path fill="#181901" fill-opacity=".624" d="M318.27 329.344L368.6 373.4l48.74-81.29-49.1 44.471z"/><path fill="#c49f8c" fill-opacity=".62" d="M245.729 169.181l179.314-12.948-39.772-70.882-133.501 21.577z"/><path fill="#001e14" fill-opacity=".533" d="M116.612 692.63l195.392-23.635L95.908 500.711 65.847 622.937z"/><path fill="#4f5240" fill-opacity=".745" d="M514.172 569.735l14.178-58.143-60.992-29.318-12.681 69.528z"/><path fill="#122019" fill-opacity=".541" d="M217.97 116.946l137.734-25.882 20.5-3.84L318.983-62z"/><path fill="#abbfc4" fill-opacity=".698" d="M104.073 472.572L264.56 336.964l-163.721 102.77-20.115 93.48z"/><path fill="#695760" fill-opacity=".702" d="M134.087 1083.165L-62 1033.958l161.234-68.462-158.912-302.085z"/><path fill="#6a9ebb" fill-opacity=".376" d="M629.696 976.541l1.603-165.906 36.123 180.663-87.858 11.257z"/><path fill="#4c3a38" fill-opacity=".404" d="M697.015-62l78.513 199.54-52.394 446.604-66.03-193.322z"/><path fill="#b6b1af" fill-opacity=".627" d="M314.501 628.436l127.215-19.575 28.187 36.815-178.257 13.701z"/><path fill="#15000b" fill-opacity=".439" d="M94.065 273.917l46.783-9.842L209.52-62 87.604 32.47z"/><path fill="#bd9e8f" fill-opacity=".765" d="M363.813 243.366l75.57-156.517 9.997 129.52-168.36-21.867z"/><path fill="#014b2c" fill-opacity=".761" d="M554.135 865.1l-47.976-208.62-99.164-121.233 170.273 36.149z"/><path fill="#c7a275" fill-opacity=".518" d="M403.465 409.957l50.055-84.116-16.857-66.407-48.546 125.526z"/><path fill="#d9560e" fill-opacity=".341" d="M413.944 670.238L536.4 657.847l-158.406-53.23 101.262-4.234z"/><path fill="#9886b4" fill-opacity=".518" d="M71.087 911.402l-86.566-55.686 59.279 205.94 4.144-53.476z"/><path fill="#00927e" fill-opacity=".58" d="M564.139 699.2l-1.493-102.055 40.717 59.791 5.805 86.966z"/><path fill="#a1bec3" fill-opacity=".949" d="M630.248 370.17l20.767 43.315-181.672-100.368 16.353 49.714z"/><path fill="#422b31" fill-opacity=".894" d="M-14.417 526.745l77.649 5.132L228.852-47.06l25.531 372.822z"/><path fill="#043721" fill-opacity=".918" d="M205.296 812.867l-11.498-229.632 62.832 147.19 244.46-12.585z"/><path fill="#91774e" fill-opacity=".784" d="M630.533 606.737l154.412 168.34-19.004-69.697 4.703 186.54z"/><path fill="#c17820" fill-opacity=".306" d="M137.424 733.489L37.335 689.825 159.54 1086 96.06 759.434z"/><path fill="#281d24" fill-opacity=".765" d="M497.116 326.13l170.28-76.628-234.048-36.593 13.325 87.008z"/><path fill="#00ffb4" fill-opacity=".188" d="M685.801 1055.686l-37.889-123.869L364.31 1086l280.405-101.986z"/><path fill="#372c48" fill-opacity=".494" d="M41.427 91.275l134.774 201.621-55.29 81.554L-62 158.46z"/><path fill="#0d050a" fill-opacity=".416" d="M304.451 286.133l54.544-5.444-3.795-16.958-38.51-4.52z"/><path fill="#c6b9af" fill-opacity=".337" d="M265.4 379.642l58.506-200.244L412.38 63.394l-20.615-37.606z"/><path fill="#e9f6c6" fill-opacity=".333" d="M803.263 796.149l-72.642-159.813-29.827-100.196 73.865 146.952z"/><path fill="#d1dfd6" fill-opacity=".463" d="M130.731 797.214l2.357 30.096-.324 83.518-30.845-116.375z"/><path fill="#056d44" fill-opacity=".714" d="M186.397 944.269l268.893 123.175-35.705 14.744-216.582-86.5z"/><path fill="#3d3f5d" fill-opacity=".439" d="M386.882 87.26L667.75-62 498.059 251.819 599.54 139.53z"/><path fill="#020916" fill-opacity=".522" d="M866.347 8.013L747.878-20.77l13.43 99.95 45.592 59.226z"/><path fill="#53444d" fill-opacity=".49" d="M626.032 812.298l120.606-86.693-40.509 141.455-97.443 36.794z"/><path fill="#f6fafe" fill-opacity=".322" d="M237.042 365.112l-128.989 94.024 191.557-97.46-208.652 86.839z"/><path fill="#c38c68" fill-opacity=".435" d="M-4.398 775.356L175.55 1086l52.227-58.921-36.98-57.589z"/><path fill="#7fa7d2" fill-opacity=".216" d="M717.866 375.178L898 432.198 735.993 293.074l6.81 1.829z"/><path fill="#594141" fill-opacity=".988" d="M171.012 693.508l34.67 28.051-18.879 252.407-49.484-232.974z"/><path fill="#002e23" fill-opacity=".737" d="M677.87 476.572l-34.782-65.628-106.484 74.411L668.75 516.84z"/><path fill="#cc9b7d" fill-opacity=".345" d="M799.704 1041.21L697.472 524.55l125.732 347.614L898 706.27z"/><path fill="#d34f04" fill-opacity=".651" d="M496.147 655.37l-186.505 22.987-47.425-5.714 86.051-12.476z"/><path fill="#12776a" fill-opacity=".729" d="M691.653 594.937l19.779-75.43-25.832.37-2.083 53.85z"/><path fill="#634b4b" fill-opacity=".71" d="M-62 829.41L68.552 616.85 35.356 775.082 23.31 887.216z"/><path fill="#a7b1b5" fill-opacity=".655" d="M295.747 683.346l137.778 15.985-166.936 16.433-3.088-39.767z"/><path fill="#ffda91" fill-opacity=".247" d="M326.806 384.862l-41.371-75.759.677 75.554 82.003 28.134z"/><path fill="#aba4f1" fill-opacity=".357" d="M784.93 1015.326l7.573 69.575-134.761-68.55 126.014-13.067z"/><path fill="#cb73bf" fill-opacity=".153" d="M19.439 345.134l107.347-15.638-33.523 108.43-79.62 9.7z"/><path fill="#00472e" fill-opacity=".659" d="M356.104 1086l-51.909-111.875 329.067-12.601-.786-96.368z"/><path fill="#b4f8ec" fill-opacity=".486" d="M98.901 464.82L88.6 529.4l-19.169-.876 9.984-50.062z"/><path fill="#160f14" fill-opacity=".612" d="M497.714 842.647l117.52-77.923-23.09-198.824 108.51 190.466z"/><path fill="#aa5c27" fill-opacity=".545" d="M545.332 711.779l-238.506 10.679 205.231-27.728-13.576 17.793z"/><path fill="#e2eeb4" fill-opacity=".208" d="M65.12 697.3l5.315 214.385-50.43-111.093 12.644-36.553z"/><path fill="#697990" fill-opacity=".89" d="M736.208 546.804l29.258 109.053-93.057-186.755 4.912 49.376z"/><path fill="#0f141e" fill-opacity=".388" d="M600.623 368.799l-144.234-62.927L823.45 88.234 594.803 98.03z"/><path fill="#ac003f" fill-opacity=".224" d="M679.619 493.521l32.415-1.885 93.02-6.172L898 637.897z"/><path fill="#9d4b0e" fill-opacity=".333" d="M337.245 646.848L388.96 754.68l-37.34-151.573 57.657.018z"/><path fill="#250215" fill-opacity=".369" d="M178.375 1012.145L40.006 1086l52.606-123.011L112.186 1086z"/><path fill="#e886e9" fill-opacity=".118" d="M892.876 938.022l-214.776 1.57 5.615 141.197-70.769-235.038z"/><path fill="#003c2c" fill-opacity=".686" d="M590.285 1010.975L377.353 1086l258.563-74.277 16.217-37.913z"/><path fill="#43719c" fill-opacity=".459" d="M626.855 25.173L596.36-46.743l-77.87 40.46 26.915 47.652z"/><path fill="#037763" fill-opacity=".808" d="M409.91 499.942l58.387-203.761 3.48 38.577 27.751 125.17z"/><path fill="#597577" fill-opacity=".992" d="M-62 727.465L166.252 422.33l-93.018 45.454 104.692-60.86z"/><path fill="#014a2e" fill-opacity=".706" d="M221.099 668.013l15.372-48.467 361.257-36.688-401.319-12.912z"/><path fill="#0f735a" fill-opacity=".557" d="M475.036 333.427l120.362 52.67-108.105-38.47-278.696 358.2z"/><path fill="#d1662b" fill-opacity=".624" d="M281.16 617.08l99.861-9.856-81.748 32.078-1.754 47.49z"/><path fill="#140c00" fill-opacity=".514" d="M325.884 172.649l41.331-12.401 26.043-1.51-19.896 28.075z"/><path fill="#1a311d" fill-opacity=".8" d="M472.603 633.641l94.04 3.72-99.958 18.575 7.251 41.435z"/><path fill="#522436" fill-opacity=".694" d="M588.997 564.715l4.082 46.83 59.397 33.872-10.44-35.213z"/><path fill="#c09689" fill-opacity=".514" d="M462.491 165.206l-153.22 100.225 125.13-15.396-194.823-37.673z"/><path fill="#b2917e" d="M324.436 181.28l87.405 89.431-119.003 25.47 99.796 1.774z"/><path fill="#151409" fill-opacity=".686" d="M278.11 171.708l44.242 9.091-38.332 19.523-8.951-10.089z"/><path fill="#00f9b2" fill-opacity=".11" d="M673.514 892.21L548.67 786.832l-45.475-85.492-40.13 53.62z"/><path fill="#00402c" fill-opacity=".549" d="M141.54 758.432l-37.324-268.9 154.452-59.813L64.727 646.162z"/><path fill="#f7ffff" fill-opacity=".424" d="M565.026 385.843L477.8 355.63l-16.667 5.058 34.709-10.973z"/><path fill="#bfe8ff" fill-opacity=".271" d="M451.13 601.938l19.78 111.583-28.05-71.033-13.04-4.625z"/><path fill="#08291f" fill-opacity=".306" d="M304.914 731.704l-25.807-95.27L5.412 529.638l165.847 15.276z"/><path fill="#000f05" fill-opacity=".357" d="M351.636 786.48l193.386-2.41 37.766 78.48-344.586 50.425z"/><path fill="#e6f6fa" fill-opacity=".529" d="M643.89 382.285l-81.046 3.966 56.885 6.703 41.953 27.87z"/><path fill="#822d4d" fill-opacity=".224" d="M649.957 983.118l40.737 15.758 178.82-24.387-178.497-64.818z"/><path fill="#055636" fill-opacity=".78" d="M290.166 849.168l-34.262 18.196-63.93 7.517 127.88-51.307z"/></svg>