<svg xmlns="http://www.w3.org/2000/svg" width="228" height="278" viewBox="0 0 836 1024"><path fill="#6d757b" d="M0 0h836v1024H0z"/><g fill-opacity=".502"><path fill="#cbd7df" d="M898 430L490 18 86 506z"/><path fill="#003475" d="M174 438l572 192-628 456z"/><path fill="#fc6f00" d="M526 702l276 384 96-368z"/><path fill="#252119" d="M398-62L74 546 26-62z"/><path fill="#fffff5" d="M654 1086L526 834l204-20z"/><path fill="#cecbd5" d="M838-62l60 668-236 76z"/><path d="M354 782l-16-344-152 648z"/><path fill="#3abcff" d="M-18 650l488-188-192-168z"/><path fill="#562200" d="M546 270l-16 460-124-452z"/><path d="M470 762l-8 324-84-156z"/><path fill="#ee933a" d="M34 1086l-96-548 220 176z"/><path fill="#4b2200" d="M730 126l56-164L242 6z"/><path fill="#edb38a" d="M202 138l376 276-8-360z"/><path fill="#84cbfd" d="M474 470L274 134l172 704z"/><path d="M626 654l72-152-64-96z"/><path fill="#8fdeff" d="M666 342L542 762l4-440z"/><path d="M354 458l8 244-160-64z"/><path fill="#81bee0" d="M334 890l8-184 188 8z"/><path fill="#19abff" d="M182 1034l96-424-108 140z"/><path fill="#c25c04" d="M702 1086l196-100-184-468z"/><path d="M494 466l48 236-92 12z"/><path fill="#fff" d="M386 406l100 68 92-40z"/><path fill="#364145" d="M706 822L554 678l308 8z"/><path fill="#006ee2" d="M390 1066l-88-80 88-304z"/><path fill="#003980" d="M122 1062l8-492 160-96z"/><path fill="#e5eaf3" d="M246 194l124-64 32 260z"/><path d="M294 1086l-12-336-80 212z"/><path fill="#caf4ff" d="M18 634l80 32 4-172z"/><path fill="#006bc6" d="M538 694l-16 392-72-180z"/><path fill="#49525c" d="M790 146l-52 344-68-376z"/><path fill="#471f00" d="M486 142l44 44-152-4z"/><path fill="#ffd5a9" d="M118 830l48-164-64 36z"/><path d="M386 954l68-152 20 284z"/><path fill="#66390e" d="M390 330l56 88 128-124z"/><path fill="#6cd8ff" d="M726 534V390l-148-80z"/><path fill="#aa6624" d="M122 1086L98 694l-160-12z"/><path fill="#ecdbcb" d="M574 1054l160 8-88-300z"/><path fill="#78d0ff" d="M558 946l24 140-128-128z"/><path fill="#000006" d="M534 458l-68 36 72 192z"/><path fill="#1f3439" d="M10 202l264-92-96 296z"/></g></svg>