<svg xmlns="http://www.w3.org/2000/svg" width="228" height="278" viewBox="0 0 836 1024"><path fill="#735552" d="M0 0h836v1024H0z"/><g fill-opacity=".502"><path fill="#f6a9a3" d="M378 1086L166 318l468-4z"/><path fill="#000311" d="M834-62H534l344 960z"/><path fill="#080d11" d="M-62-38l608-4-608 592z"/><path fill="#f186ac" d="M614 618l48 312-424-36z"/><path fill="#ffc1bc" d="M678 334L330 142l424 408z"/><path d="M674 1086l100-120-488-60z"/><path fill="#3c361e" d="M-14 682l856 56 56-276z"/><path fill="#ffefcf" d="M58 526L14 774l212-440z"/><path fill="#fff" d="M282 874l4-256 88 292z"/><path fill="#e2ccb1" d="M450 90L306 426l36-304z"/><path fill="#f0fbef" d="M470 342l52 360-92-172z"/><path fill="#430611" d="M546-54l124 484L354-62z"/><path fill="#c7eb77" d="M170 1086L-62 986l252-64z"/><path fill="#fff" d="M186 342l56-8 20 192z"/><path fill="#9d0000" d="M494 962L382 686l92 100z"/><path fill="#e0ffff" d="M450 722l68 228 16-92z"/><path fill="#a80000" d="M362 926l-20-216 80 216z"/><path fill="#482a24" d="M218 410l80 676L74 590z"/><path fill="#000108" d="M482 366L190 214l60-72z"/><path fill="#dcffff" d="M322 486l-72 88 64-276z"/><path fill="#e2b500" d="M498 614l-192 80-76-80z"/><path fill="#cfffff" d="M442 822l-92-116 104 256z"/><path fill="#e60000" d="M442 298l12 204-48-52z"/><path fill="#fdffff" d="M438 562l-72-120 16-112z"/><path d="M318 1002l-52-72 128-32z"/><path fill="#b90000" d="M554 786l20 168-92-228z"/><path fill="#bfc2cd" d="M558 658l96 216-44-324z"/><path fill="#680000" d="M570 738l-48-352-28 196z"/><path fill="red" d="M326 474l16-164 28 136z"/><path fill="#00020d" d="M746 978l-340 108 12-156z"/><path fill="#d6ffff" d="M602 934l-96-268 88 120z"/><path fill="#f90000" d="M266 482l40-204-56 88z"/><path fill="#abe8f2" d="M434 974l-48-44-128 156z"/><path fill="#c68763" d="M898 738l-316 44 316 208z"/><path fill="#ffff19" d="M430 538l-104 68-44-40z"/><path fill="#000001" d="M326 594l52 120-44-8z"/><path fill="#292427" d="M670 738L538 378l348 328z"/><path fill="#ffd9b3" d="M502 210l-92-8 112-60z"/><path fill="#b70000" d="M570 682v96l64 92z"/><path fill="#f8f3ff" d="M170 370L98 522l204-236z"/></g></svg>