<svg xmlns="http://www.w3.org/2000/svg" width="228" height="278" viewBox="0 0 836 1024"><path fill="#848c8b" d="M0 0h836v1024H0z"/><path fill="#ccd0cf" fill-opacity=".949" d="M230.044 1086l493.87-100.911-34.997-622.572-502.85-31.168z"/><path fill="#202b2a" fill-opacity=".667" d="M3.505 300.627L-2.928-55.07 857.742-62 898 342.8z"/><path fill="#000b00" fill-opacity=".353" d="M368.802 617.634l339.125-19.662L740.788-62 898 824.655z"/><path fill="#f9fdfe" fill-opacity=".604" d="M44.948 963.718L-62 969.2l248.167-711.544-86.375 615.772z"/><path fill="#3f4d4f" d="M64.444 566.246L199.6-62-62 628.712l302.286.358z"/><path fill="#5c5245" fill-opacity=".859" d="M395.706-62L523.05 340.348l-90.936 80.357-108.193-69.123z"/><path fill="#223a39" fill-opacity=".529" d="M217.642 498.486l-17.593 402.08L10.91 1086l103.314-289.244z"/><path fill="#f1f2f5" fill-opacity=".69" d="M81.624 511.556l468.905-27.173-301.441-179.84-119.798 56.596z"/><path fill="#e9ecee" fill-opacity=".949" d="M684.264 451.162L464.02 514.276 520.69 298l165.013 74.235z"/><path fill="#424f51" fill-opacity=".655" d="M898 992.785l-220.109-885.63 48.293 689.114L687.625 1086z"/><path fill="#082218" fill-opacity=".494" d="M568.064 651.292l73.695 416.687-46.642-469.752 219.706 22.397z"/><path fill="#dee6e8" fill-opacity=".627" d="M641.77 839.945l-499.765 233.74 54.778-124.489L223 606.448z"/><path fill="#435357" fill-opacity=".835" d="M174.382 337.365L-62 512.853 29.049 7.505l274.03 280.092z"/><path fill="#b19f9a" fill-opacity=".78" d="M561.199 472.264l-156.753 220.25-285.271-170.102 489.33 185.529z"/><path fill="#f9feff" fill-opacity=".494" d="M139.58 361.25l194.876-83.92L443.29 397.847l-124.14-87.674z"/><path fill="#f0ffe5" fill-opacity=".569" d="M696.825 1013.032l20.954-244.545-15.183-130.946-61.909 18.53z"/><path fill="#152829" fill-opacity=".518" d="M-50.597 1086L62.14 516.986-62 929.22l318.39 131.246z"/><path fill="#fcfefe" fill-opacity=".541" d="M107.567 821.83l-54.99 151.664-68.946-64.39 82.811-326.169z"/><path fill="#fdede5" fill-opacity=".416" d="M385.854 22.408L553.437-62 417.617 60.908l-66.156-14.343z"/><path fill="#31403c" fill-opacity=".427" d="M647.068 1001.484l-49.29-168.707 10.67 256.519 149.349-85.627z"/><path fill="#344346" fill-opacity=".718" d="M897.07 385.123L898-42.713 474.633-62l218.49 477.469z"/><path fill="#dbe1e2" fill-opacity=".965" d="M570.592 607.865L475.74 1086h144.823l-44.74-252.318z"/><path fill="#251d0d" fill-opacity=".565" d="M435.802 347.601l90.203-13.915L361.15 144.747l42.112 200.797z"/><path fill="#a7b1af" d="M147.23 591.975l-.86-127.96 196.388 86.524-41.722-66.233z"/><path fill="#001b00" fill-opacity=".337" d="M549.45 689.812l76.299 97.022-38.7-173.78 188.917-24.168z"/><path fill="#263131" fill-opacity=".808" d="M160.91 639.623L-62 565.892l271.357 48.883 5.768 121.322z"/><path fill="#637370" fill-opacity=".969" d="M83.16 1086L67.488 924.259l59.066-113.853 104.601 54.125z"/><path fill="#ce5853" fill-opacity=".522" d="M240.594 637.938l24.908-19.787 230.764-4.63 60.203 43.834z"/><path fill="#021c26" fill-opacity=".514" d="M272.289 287.45l170.845 111.224 4.866-.003-83.184-15.556z"/><path fill="#725f50" fill-opacity=".529" d="M352.676 107.645L503.785-62l64.408 373.706 261.04 37.742z"/><path fill="#ebeeef" fill-opacity=".937" d="M147.843 362.355l-28.48 54.965 178.915 46.155 3.712-173.883z"/><path fill="#394e4f" fill-opacity=".925" d="M147.897 847.462l-26.666-114.028 60.071-121.022 23.466 252.002z"/><path fill="#edf0f2" fill-opacity=".925" d="M579.924 317.131l125.92 211.562-11.11-105.309-366.52 61.125z"/><path fill="#d8dfe0" fill-opacity=".812" d="M143.484 488.343l38.708 121.35-118.03-59.283 170.734-207.981z"/><path fill="#d2dadc" fill-opacity=".882" d="M339.643 647.523L575.3 668.834l-32.003 121.744L178.22 1086z"/><path fill="#3c4f51" fill-opacity=".788" d="M-33.795 647.857l161.3-311.757L36.72 688.738-62 777.254z"/><path fill="#483f46" fill-opacity=".376" d="M590.388 514.818l-40.238 75.134-22.104-38.609 2.63-62.321z"/><path fill="#263e45" fill-opacity=".682" d="M163.656 125.726l176.02 227.099-35.443-118.587 66.686-283.993z"/><path fill="#8dbd66" fill-opacity=".498" d="M626.528 776.168l-58.262-144.422 108.065 23.583-15.635 111.948z"/><path fill="#000b0c" fill-opacity=".561" d="M81.087 1015.194L-62 1016.229l23.98-25.32 70.98-32.402z"/><path fill="#001317" fill-opacity=".627" d="M692.94 996.475L688.633 1086l-66.722-63.32 20.476-17.117z"/><path fill="#eef7fd" fill-opacity=".412" d="M527.97 457.497L387.8 626.148 272.26 425.67l253.003 190.407z"/><path fill="#d5f6ff" fill-opacity=".325" d="M460.437 350.507l-121.97-22.377 89.825 56.913 104.652-75.363z"/><path fill="#fe8392" fill-opacity=".553" d="M400.806 550.165l-1.226-72.375 51.485-.598 16.031 51.238z"/><path fill="#000c0d" fill-opacity=".612" d="M671.337 606.79l51.78 31.915-138.758 1.27 4.955-29.46z"/><path fill="#adb9b8" fill-opacity=".702" d="M260 893.729l107.389-.409 178.503 4.998-215.49 43.317z"/><path fill="#585b59" fill-opacity=".671" d="M709.797 393.886l-169.244-97.495-121.704-97.125 330.015 27.872z"/><path fill="#0b1916" fill-opacity=".557" d="M109.21 634.522l-47.117-61.889 116.862 34.319-21.068 33.473z"/><path fill="#182829" fill-opacity=".373" d="M596.916 237.354L898-62 515.553 175.566l-194.624-6.335z"/><path fill="#000406" fill-opacity=".329" d="M315.36 511.447l-31.997 23.792-19.461 6.376 31.21-58.785z"/><path fill="#efeff5" fill-opacity=".616" d="M719.763 730.904l-67.115 239.22 68.386 63.888-21.129-16.324z"/><path fill="#9aa49f" fill-opacity=".702" d="M608.788 832.393L622.061 688.3l18.497 320.44-56.985-113.906z"/><path fill="#5f756f" fill-opacity=".427" d="M293.469 455.586l-72.521 31.794 5.088 84.84-45.256-30.381z"/><path fill="#35484c" fill-opacity=".855" d="M706.476 616.337l2.334 125.616L898 564.559l-133.364-49.426z"/><path fill="#0f2830" fill-opacity=".514" d="M507.745 355.757l79.34-257.288-75.027 227.555-104.384 81.999z"/><path fill="#c0cece" fill-opacity=".753" d="M509.055 600.883l28.508-55.78 35.113 143.53 28.146-140.93z"/><path fill="#c1cac9" fill-opacity=".808" d="M49.683 602.002l31.125 19.38 70.868 27.764-47.857 124.181z"/><path fill="#927965" fill-opacity=".667" d="M539.61 113.42l5.347 22.554-207.582-16.543 61.017-24.284z"/><path fill="#edf7f9" fill-opacity=".459" d="M381.006 66.58l12.775-48.529L514.599-6.574l-85.997 9.41z"/><path fill="#ebeff0" fill-opacity=".486" d="M195.527 837.595l81.544 48.323 76.782-182.667-102.09-80.437z"/><path fill="#cfd7d8" fill-opacity=".871" d="M612.933 606.236l95.963-45.913 6.56 30.62-60.634 13.545z"/><path fill="#dce1e2" fill-opacity=".765" d="M189.113 995.221l74.095 74.714 87.643-152.349-157.153-9.88z"/><path fill="#54706a" fill-opacity=".408" d="M514.719 969.462l-205 24.862 17.717 8.373 96.63-14.267z"/><path fill="#42372a" fill-opacity=".851" d="M409.482 93.2l31.153-31.37 121.782 14.277-28.162 29.748z"/><path fill="#140d00" fill-opacity=".369" d="M372.993 337.58l132.903-109.723-71.516 124.907-85.472-55.95z"/><path fill="#dae0e1" fill-opacity=".816" d="M139.514 591.618l-77.56-23.1 41.648-76.615 50.041 105.013z"/><path fill="#e0e6e5" fill-opacity=".839" d="M703.552 639.39l-64.722 369.267 82.931-200.13-16.19-108.26z"/><path fill="#011920" fill-opacity=".494" d="M424.486 403.439l50.326-13.435 46.63-71.951-.836-8.446z"/><path fill="#ebb1ad" fill-opacity=".435" d="M531.807 236.842l-48.545-10.118-27.153-16.306 35.45 1.574z"/><path fill="#002832" fill-opacity=".165" d="M558.847 773.608l88.273-290.743 6.507-.961-47.769 42.074z"/><path fill="#f4f9fc" fill-opacity=".51" d="M353.435 341.913l-33.8-40.075 16.21-6.595 38.304 57.24z"/><path fill="#585c5a" fill-opacity=".945" d="M144.96 354.099l33.256-43.137L-62 357.068 96.95 429.72z"/><path fill="#a2b0b0" fill-opacity=".486" d="M439.394 836.134L267.09 844.19l.229 16.748 200.144-.454z"/><path fill="#62706f" fill-opacity=".992" d="M155.42 1086l31.193-179.447 8.052 71.85-128.26 7.708z"/><path fill="#ced6d6" fill-opacity=".682" d="M216.946 733.438l93.18-125.228 57.83 157.155L207.58 573.66z"/><path fill="#ebeef0" fill-opacity=".741" d="M288.023 560.776l95.875-88.493 43.369-32.542-57.254 119.968z"/><path fill="#a6b3b3" fill-opacity=".569" d="M225.294 536.93l70.468 38.095-95.708 105.886-7.665 158.345z"/><path fill="#572524" fill-opacity=".204" d="M543.953 697.738l.819 32.285-71.554-111.11 6.563-23.154z"/><path fill="#193641" fill-opacity=".455" d="M66.818 131.789l53.831 156.381L46 328.571l-15.874-48.225z"/><path fill="#f0f2f2" fill-opacity=".953" d="M71.742 619.75l-29.64 323.417-64.66 36.362-.936-46.964z"/><path fill="#ffd3b3" fill-opacity=".188" d="M508.46 23.818L451.485-7.635l23.485 70.008 68.619 12.968z"/><path fill="#c8615c" fill-opacity=".388" d="M260.484 623.926l311.39 9.77-15.078 37.834-133.985-71.634z"/><path fill="#87807f" fill-opacity=".294" d="M562.628 790.315l-148.2-197.055 22.004 56.545L558.684 801.57z"/><path fill="#fdfdff" fill-opacity=".537" d="M457.319 827.055l42.353 62.145-271.421-7.89 339.94-30.82z"/><path fill="#3f1f06" fill-opacity=".341" d="M319.65 77.704l86.37 72.235-98.913 28.332 241.301 41.401z"/><path fill="#eef2f5" fill-opacity=".71" d="M451.485 940.542l42.339 24.762-269.946 11.603 147.043 10.436z"/><path fill="#3f605b" fill-opacity=".22" d="M604.065 913.292l-98.93-2.366L358 965.41l229.074-57.344z"/><path fill="#122e26" fill-opacity=".129" d="M325.636 1001.724l-86.074-11.184 387.522-92.716-344.595 75.383z"/><path fill="#38534d" fill-opacity=".161" d="M222.928 922.247l-43.788-7.417 210.04-28.845 42.68 6.921z"/><path fill="#e7ecee" fill-opacity=".576" d="M655.045 380.687L574.57 592.905l5.327-70.782-29.048-221.186z"/><path fill="#b6c3c4" fill-opacity=".592" d="M232.258 402.461l161.773-2.722-58.224-8.874-143.85-13.073z"/><path fill="#36494c" fill-opacity=".584" d="M-33.545 574.769l71.528 121.558 43.125-224.166 20.08 28.084z"/><path fill="#65676e" fill-opacity=".545" d="M891.594 479.803l-213.521 46.835 13.783 41.96L858.796 362z"/><path fill="#273a3e" fill-opacity=".863" d="M582.337 198.684L619.28-62 417.644-26.712l108.922 57.948z"/><path fill="#bac0cb" fill-opacity=".553" d="M617.92 761.17l17.272-56.827 69.992 23.382-94.006 149.096z"/><path fill="#0f0000" fill-opacity=".322" d="M444.208 189.585l79.19 26.831-50.533-98.988 48.142 24.481z"/><path fill="#f2f4f5" fill-opacity=".769" d="M98.59 440.067l6.527 53.697L266.89 307.043 143.5 359.715z"/><path fill="#e0cdbb" fill-opacity=".086" d="M753.15 913.572L898 1026.355 756.298 637.829 898 720.98z"/><path fill="#f7d7bd" fill-opacity=".153" d="M505.637 173.843l-63.852-35.327-23.474 73.1 141.791-109.965z"/><path fill="#28312c" fill-opacity=".537" d="M228.21 499.093l-25.387 90.235 8.606 113.81-30.924-85.6z"/><path fill="#000e12" fill-opacity=".345" d="M301.682 315.349l158.006 90.696-117.726-38.126 4.6 1.907z"/><path fill="#505048" fill-opacity=".941" d="M521.688 130.685l38.736 180.731-97.731-27.128 31.982 73.99z"/><path fill="#f7f8f9" fill-opacity=".518" d="M349.899 388.731l-58.22-81.966-151.82 42.622-4.757 23.904z"/><path fill="#525e64" fill-opacity=".6" d="M613.408 833.513l-.196-118.991-28.43 69.58 27.174 59.89z"/><path fill="#eff2f3" fill-opacity=".643" d="M261.001 546.161l32.431-131.738 264.176-10.033-331.853 105.665z"/><path fill="#5e6d6c" fill-opacity=".349" d="M-62 51.045l242.372 18.627-135.36 84.595L-62 597.598z"/><path fill="#fbfeff" fill-opacity=".408" d="M242.744 995.152l-77.967-10.96 42.5 34.944 248.664-2.764z"/><path fill="#646d6a" fill-opacity=".541" d="M-18.878 1048.78l218.122-42.516 20.64 79.736 275.057-43.371z"/><path fill="#29434c" fill-opacity=".345" d="M187.75 340.275L144.99-62l219.374 268.196-118.718 102.298z"/><path fill="#5b412a" fill-opacity=".467" d="M421.79 17.77l76.371 2.27-168.073 215.24 121.139 3.159z"/><path fill="#98a6a4" fill-opacity=".612" d="M387.537 935.59l-92.3 12.34-15.425-6.862 207.097-38.439z"/><path fill="#eef1f3" fill-opacity=".663" d="M421.04 896.592l-156.742 42.404 124.415-19.095 83.113-38.002z"/><path fill="#535c5c" fill-opacity=".729" d="M775.287 402.771L636.754 223.683l87.847 314.715L898 336.24z"/><path fill="#ebedec" fill-opacity=".557" d="M117.102 647.416L13.243 784.803l2.404-40.492 62.345-127.398z"/><path fill="#f8fcfc" fill-opacity=".431" d="M597.444 847.447L477.612 656.61l118.195 144.732-151.92-43.21z"/><path fill="#a8ff26" fill-opacity=".216" d="M590.438 649.092l93.407-8.603.23 53.62-82.383 25.851z"/><path fill="#ddf8fe" fill-opacity=".251" d="M586.294 621.065l-108.298 6.06 81.536-53.95 7.302 138.863z"/><path fill="#dfe8ea" fill-opacity=".588" d="M498.44 977.904l76.437-31.774L645.102 1086l-281.698-78.604z"/><path fill="#765e49" fill-opacity=".592" d="M339.765 135.55l53.037 208.414-46.965-33.382 24.075-240.786z"/><path fill="#f0fafd" fill-opacity=".376" d="M366.855 55.534l13.092-29.321 69.191-30.028 58.936-47.433z"/></svg>