<svg xmlns="http://www.w3.org/2000/svg" width="228" height="278" viewBox="0 0 836 1024"><path fill="#ac634e" d="M0 0h836v1024H0z"/><g fill-opacity=".502"><path fill="#f9ffff" d="M578-62l248 1072L898-2z"/><path fill="#810001" d="M-62 1022l248-644 712 640z"/><path fill="#ffff75" d="M-62 18l536-80-340 588z"/><path d="M366 198L654 90 422-62z"/><path fill="#ca0019" d="M638 1082l80-656-628 620z"/><path fill="#001c1f" d="M850 1074L650 494l36 532z"/><path fill="#183736" d="M322 862l-384-32 232-408z"/><path fill="#e8ffff" d="M898 458L554 298 898 74z"/><path fill="#e6df74" d="M30 522l464-292L-42-58z"/><path fill="#e5001f" d="M-26 550l680 20-296-236z"/><path fill="#773922" d="M482 262l244 396 172-116z"/><path fill="#f0ec50" d="M898 38L634-62l-52 380z"/><path fill="#e8ffff" d="M766 930l48-352 84 412z"/><path fill="#83a07a" d="M286 706l-348-36 288-116z"/><path fill="#f8ffff" d="M486 686l52-140-76 24z"/><path fill="#000b08" d="M458-54l-76 228 252-60z"/><path fill="#66654b" d="M-10 490l260-124-184-36z"/><path fill="#300" d="M-62 630l264-160 56 84z"/><path d="M662 730l-52-112 80-144z"/><path fill="#f5002c" d="M290 682l148-252 276-32z"/><path fill="#00070b" d="M294 694l-64 224-120-156z"/><path fill="#fee054" d="M518-62L6 354-62-30z"/><path fill="#0a1b13" d="M342 338l188 24-68 68z"/><path fill="#dddecc" d="M650 726l228-164-148 216z"/><path fill="#cb0321" d="M394 538L246 862l500 224z"/><path fill="#f31d33" d="M374 998L-22 842l36 244z"/><path fill="#a6b2af" d="M474 262l280-144-68 160z"/><path fill="#000912" d="M690 1030l-8-248 216 304z"/><path fill="#a1e097" d="M690 466l200-32-184 148z"/><path fill="#e8feff" d="M898 398L774 102 654 362z"/><path fill="#f2df82" d="M406 346L54 106l316-4z"/><path fill="#fff" d="M630 494l-72-12 52 52z"/><path fill="#f5ffff" d="M106 486l108-96-100 48z"/><path fill="#f1ffff" d="M858 586l-24 364-76-304z"/><path fill="#f8d444" d="M510-54L898-6 718 174z"/><path fill="#db0023" d="M618 550l36 364-148-388z"/><path fill="#9ff" d="M374 466l-60 12 108 12z"/><path fill="#00000a" d="M570 418l52-40-68-56z"/><path fill="#031414" d="M766 722l-96 188 100 176z"/><path fill="#000f0e" d="M394 34l220 104-240-16z"/></g></svg>