<svg xmlns="http://www.w3.org/2000/svg" width="228" height="278" viewBox="0 0 836 1024"><path fill="#7c6761" d="M0 0h836v1024H0z"/><path fill="#10110c" fill-opacity=".596" d="M626.58 190.868L522.597 810.81-59.026 1086l266.432-695.704z"/><path fill="#dfead7" fill-opacity=".812" d="M396.097 1057.959L830.59 1086 898 757.384l-392.314 56.682z"/><path fill="#fbc8af" fill-opacity=".675" d="M263.292 850.485L489.353 1086 255.221 979.653-62 254.995z"/><path fill="#ddafa8" fill-opacity=".659" d="M898 251.287l-72.08 389.978-136.554-35.096-68.854-528.592z"/><path fill="#f0a7a9" fill-opacity=".71" d="M372.941 9.504l262.81-61.693L-62 512.776l568.442-276.463z"/><path fill="#000003" fill-opacity=".714" d="M38.811 822.446L-62 531.5 338.384 1086H6.73z"/><path fill="#4a423d" d="M397.591 736.96l241.66-172.324 46.274-153.842L512.924 46.17z"/><path fill="#cca09f" fill-opacity=".694" d="M-54.665 24.96l198.351 327.46-11.825 205.213-158.282 111.084z"/><path fill="#999896" fill-opacity=".996" d="M425.392 689.22l-9.618-5.058 19.572-90.201 210.61 18.59z"/><path fill="#e61d14" fill-opacity=".396" d="M426.656 178.28l-125.61 83.222-200.898 261.766L258.71 12.441z"/><path fill="#000205" fill-opacity=".58" d="M186.545 708.319l107.936-138.53 245.485 208.347-143.182 186.407z"/><path fill="#070200" fill-opacity=".706" d="M527.526 30.18l-34.842 65.023 205.513-35.678-73.566-75.679z"/><path fill="#a46c4f" fill-opacity=".89" d="M14.4 550.991l220.053 66.545-76.584 124.085L319.787 1086z"/><path fill="#311b31" fill-opacity=".478" d="M646.819 913.815l-88.496 88.1-63.982-376.189 72.525 285.386z"/><path fill="#e3f3fa" fill-opacity=".58" d="M457.581 199.711l-63.282-246 322.607 69.496L547.306-62z"/><path fill="#f1eae9" fill-opacity=".722" d="M253.05 873.186l84.302 42.282 43.6 40.18-93.284 85.184z"/><path fill="#37a9cc" fill-opacity=".753" d="M2.178 1086l-8.025-317.237 60.992 20.72L20.9 918.386z"/><path fill="#d2dedf" fill-opacity=".647" d="M214.455 456.393l51.727-8.569 26.562 68.678-24.095 1.96z"/><path fill="#000406" fill-opacity=".631" d="M292.484 689.372l247.27-141.097 109.611 59.84-502.518-123.238z"/><path fill="#23343c" fill-opacity=".576" d="M898 664.101l-317.904 5.604 16.767 102.477L898 752.614z"/><path fill="#ecb387" fill-opacity=".718" d="M526.99 774.827l24.702-62.051 23.202-138.588 23.25 283.338z"/><path fill="#767a77" fill-opacity=".996" d="M543.575 1086L408.798 958.832l102.516 50.432 75.842-55.317z"/><path fill="#a8827b" fill-opacity=".984" d="M159.35 117.994L263.002 74.37 150.252-62-62 468.32z"/><path fill="#220600" fill-opacity=".545" d="M473.385 167.132l105.591 277.583-26.39-413.966-18.508-16.548z"/><path fill="#d8ced4" fill-opacity=".624" d="M789.668 489.588l-35.53 80.625-114.418-2.09 27.79-105.79z"/><path fill="#d6b3b5" fill-opacity=".784" d="M252.548 337.686L482.872 146.14l4.865 109.078-17.8 23.35z"/><path fill="#9d7369" fill-opacity=".925" d="M546.518 200.049L895.265-34.79 726.228 266.952 587.585 41.866z"/><path fill="#85140c" fill-opacity=".333" d="M26.452 329.466l353.368-108.97-12.369-35.08-221.141-70.778z"/><path fill="#f3f1f2" fill-opacity=".624" d="M575.565 820.36l-42.376 167.99-123.054-9.91L898 817.828z"/><path fill="#35383a" fill-opacity=".627" d="M145.915 478.772l78.49 80.321-241.998 91.678L31.823 873.02z"/><path fill="#c1b1b6" fill-opacity=".749" d="M656.82-55.515l62.763 200.046 21.41-45.068L714.377-54.89z"/><path fill="#090805" fill-opacity=".565" d="M576.881 918.175L449.478 711.832l107.506-50.91-27.413 134.68z"/><path fill="#fff" fill-opacity=".545" d="M473.923 914.643l149.242 44.059L615.434 1086 512.022 797.554z"/><path fill="#f6c8c3" fill-opacity=".361" d="M647.9 346.302L898 503.154 754.305 286.671l-170.957-18.255z"/><path fill="#404748" fill-opacity=".729" d="M429.967 979.328l50.86-86.834-238.708-103.737 19.305 65.917z"/><path fill="#32221c" fill-opacity=".992" d="M701.195 147.585l-1.187-19.865 5.501-51.987-87.56-81.17z"/><path fill="#e7abb6" fill-opacity=".345" d="M-8.65 538.151l201.71-56.945-42.222-166.776L-62 372.355z"/><path fill="#d38a5b" fill-opacity=".553" d="M498.954 365.204l.446-54.636 8.971-26.03 64.564 166.576z"/><path fill="#120600" fill-opacity=".447" d="M512.862 31.09l23.06 82.889 179.278 37.73-223.711 5.481z"/><path fill="#2e3233" fill-opacity=".937" d="M609.066 537.424l-176.12-259.88 94.152 311.953-8.784 47.642z"/><path fill="#ebb48e" fill-opacity=".761" d="M679.566 104.722l-43.853 37.852 37.92 104.453-94.346-186.883z"/><path fill-opacity=".698" d="M234.85 1070.714L14.408 835.817l99.645-12.554 171.244 169.848z"/><path fill="#f3fcf9" fill-opacity=".643" d="M330.98 892.512l22.829 40.08-127.153 15.37 78.67-48.898z"/><path fill="#0d215f" fill-opacity=".525" d="M386.962 964.787l41.193 23.188-19.999 9.47-74.723 3.87z"/><path fill="#bbbebd" fill-opacity=".996" d="M425.088 633.536l-12.096 48.89 69.988-52.752 1.31 57.686z"/><path fill="#532516" fill-opacity=".58" d="M123.844-62l-135.89 27.28L3.114 69.948l66.577 11.956z"/><path fill="#fbf3eb" fill-opacity=".792" d="M478.348 1032.176L250.266 1086l103.105-80.676 85.902-2.289z"/><path fill="#d37543" fill-opacity=".333" d="M635.846 341.273l-91.675 69.124 183.708-210.42-207.817-53.867z"/><path fill="#070809" fill-opacity=".718" d="M204.64 400.725l-40.85 124.638 282.74 2.638-83.428 338.62z"/><path fill="#200b04" fill-opacity=".659" d="M512.831 177.896l20.648 198.249 121.678-66.617-171.33-23.346z"/><path fill="#defda2" fill-opacity=".843" d="M690.455 965.66l92.797-21.92L898 1015.06 623.332 1086z"/><path fill="#404546" fill-opacity=".839" d="M531.147 498.233L220.878 368.21l128.109-58.187 80.479-13.93z"/><path fill="#ffad6c" fill-opacity=".475" d="M137.897 741.744l45.15 86.595 104.497 103.158-129.55-290.683z"/><path fill="#091214" fill-opacity=".631" d="M591.465 596.961l-24.914 26.496 69.601-36.148 37.762-187.46z"/><path fill="#52d7ff" fill-opacity=".345" d="M-61.953 784.213l130.336 12.5-39.349 41.549L8.144 1086z"/><path fill="#b7989a" fill-opacity=".659" d="M504.125 239.093l-129.988-74.726L392.23 70.99l-10.075-97.654z"/><path fill="#dcecf3" fill-opacity=".388" d="M727.862 764.598L898 853.812l-260.845 81.48-16.62-148.098z"/><path fill="#240c4e" fill-opacity=".314" d="M549.616 952.295l40.32-53.758-121.338-53.333 193.305 86.61z"/><path fill="#e25e5b" fill-opacity=".573" d="M140.545 502.614l-28.55-86.685 40.26-123.718 104.638 27.903z"/><path fill="#ab6c6a" fill-opacity=".412" d="M765.08 582.433l-163.167 8.38L778.52 718.337 898 421.863z"/><path fill="#282d2e" fill-opacity=".82" d="M466.277 608.963l.323 74.993 31.322-185.96 106.318 49.961z"/><path fill="#381c17" fill-opacity=".992" d="M649.223 235.819l-10.05 13.96-25.905-.603-60.918-31.192z"/><path fill="#c1aeb4" fill-opacity=".463" d="M-62 202.976l91.58 372.736 39.592 63.033 62.751-89.314z"/><path fill="#611400" fill-opacity=".31" d="M119.09 816.602L50.227 693.587l71.417-135.516 43.828-61.994z"/><path fill="#ff493d" fill-opacity=".337" d="M267.326 138.37l117.703-59.502 29.562 164.984-56.548-5.344z"/><path fill="#974e61" fill-opacity=".722" d="M326.391 956.144l-54.201 23.769 6.23 17.755 90.216-90.213z"/><path fill="#232a2c" fill-opacity=".576" d="M478.076 626.67l-46.88 51.23 40.1-138.308L202.84 404.88z"/><path fill="#0a0908" fill-opacity=".718" d="M490.101 92.518l34.536 107.791-12.213-162.89 171.737 2.209z"/><path fill="#def1fb" fill-opacity=".365" d="M444.168 523.1l.107 10.956-22.918-35.93 61.367 8.317z"/><path fill="#dbe8e7" fill-opacity=".204" d="M278.37 338.138l-51.526 11.702 19.583-113.64 216.938 32.062z"/><path fill="#010000" fill-opacity=".337" d="M546.488 857.32l-193.3-244.656-175.5 66.95 388.95 131.665z"/><path fill="#d2b6af" fill-opacity=".788" d="M19.402 1075.669l-74.871 5.054-1.194-179.337 68.448 74.928z"/><path fill="#500c13" fill-opacity=".357" d="M745.955 134.335L720.7 177.22l176.137-32.073-16.945-14.658z"/><path fill="#f1fbff" fill-opacity=".388" d="M435.778 25.314L560.426-62 500.283 66.125l-11.185 76.957z"/><path fill="#ba7148" fill-opacity=".624" d="M247.391 640.628l.887-11.621-88.083-39.046-61.121 136.412z"/><path fill="#f2fffb" fill-opacity=".278" d="M533.916 579.786l-75.57 42.321-12.986 44.07 39.36 21.943z"/><path fill="#2d2f2f" fill-opacity=".98" d="M298.4 895.427l179.663-13.459 18.99-94.5-213.995 90.987z"/><path fill="#6b2022" fill-opacity=".541" d="M153.62 317.354l62.357-87.762-2.886-85.09-97.874 86.7z"/><path fill="#020708" fill-opacity=".584" d="M457.967 753.957l34.223-91.24 76.51 2.994-55.185 117.927z"/><path fill="#a84444" fill-opacity=".549" d="M632.125 996.8l-3.308-2.278 30.107-9.641L606.707 1086z"/><path fill="#edb191" fill-opacity=".545" d="M622.473 150.674l97.559 24.037-15.401 59.295-84.372-60.107z"/><path fill="#f9f3e5" fill-opacity=".71" d="M585.806 872.693l-63.434 106.089L637.27 959.23l-134.504-8.74z"/><path fill="#897e6c" fill-opacity=".463" d="M529.984 403.26l32.872-37.017 50.947 190.37 19.438-100.057z"/><path fill="#734040" fill-opacity=".725" d="M250.142 4.718l133.445 44.03-32.02 52.036L263.5 67.922z"/><path fill="#fcfffe" fill-opacity=".518" d="M438.52 585.867l-23.936 110.118 41.52-101.847-20.914 40.284z"/><path fill="#889694" fill-opacity=".388" d="M545.612 825.695l119.571-72.343L866.85 769.89l-16.97 9.346z"/><path fill="#d8675d" fill-opacity=".671" d="M810.937 612.386l-7.594-91.696L898 367.216 832.136 638.42z"/><path fill="#a57161" fill-opacity=".525" d="M93.756 259.834L-62 94.792l27.804-44.139 214.362 58.776z"/><path fill="#b2c1c8" fill-opacity=".282" d="M609.455 334.174l-27.24 44.323 303.293-257.02L736.887 382.05z"/><path fill="#f1a770" fill-opacity=".369" d="M614.885 836.698L565.86 662.461l-47.819 124.25 18.994 18.066z"/><path fill="#c1b9bc" fill-opacity=".302" d="M108.435 105.283l144.702-46.785L238.62 5.626 94.193 53.751z"/><path fill="#232e33" fill-opacity=".604" d="M642.22 492.543l40.417-42.258.06-70.918-56.777-43.823z"/><path fill="#5e545e" fill-opacity=".212" d="M898 264.758L754.403 384.166l9.519-294.432-81.663 165.916z"/><path fill="#020d13" fill-opacity=".275" d="M458.92 1001.063l11.328 66.546 20.826-50.389-21.672-60.51z"/><path fill="#101414" fill-opacity=".561" d="M321.29 892.907l137.426-224.856 41.15-134.352-75.424 304.15z"/><path fill="#8d5636" fill-opacity=".325" d="M-59.275 475.906l173.713 204.12L322.82 1086 147.798 820.173z"/><path fill="#f7ffff" fill-opacity=".439" d="M264.799 986.273l-9.233-47.237 72.185-57.03 1.035 60.697z"/><path fill="#eaf0ec" fill-opacity=".518" d="M599.788 1000.94L898 752.347 882.099 1086 735.055 772.82z"/><path fill="#35393a" fill-opacity=".973" d="M453.236 793.824L350.18 947.837l119.356-40.326 14.315-106.358z"/><path fill="#b6dbe0" fill-opacity=".404" d="M549.577 666.78l14.235-50.108-20.029-17.794 47.024-6z"/><path fill="#eefcfe" fill-opacity=".259" d="M282.093 519.153l9.843-42.03-65.965-32.883-1.65 44.654z"/><path fill="#26282a" fill-opacity=".788" d="M402.317 486.577l-220.322-51.94 35.925-55.19 72.915-21.513z"/><path fill="#fea17a" fill-opacity=".251" d="M537.347 147.069l73.02 14.258-34.016 102.292 44.714 32.943z"/><path fill="#3f2319" fill-opacity=".765" d="M545.02 891.874l-26.928-114.978 21.026 18.317 15.193 107.655z"/><path fill="#a37e7b" fill-opacity=".608" d="M651.059 537.09L608.5 659.56l-43.692-40.408 304.906 30.817z"/><path fill="#c8b2b3" fill-opacity=".651" d="M725.143 109.155l-59.928-93.39 55.077-48.967-16.103 240.865z"/><path fill="#0b0a0c" fill-opacity=".467" d="M137.015 523.788l94.16-109.437-118.416 165.36 130.735 35.099z"/><path fill="#9b736a" fill-opacity=".741" d="M74.28 199.6l29.54 45.023L-62 308.604l226.838 38.32z"/><path fill="#333736" fill-opacity=".973" d="M555.734 614.12l-147.68 162.524L546.9 615.338l90.728-101.166z"/><path fill="#2d0946" fill-opacity=".243" d="M609.044 898.26L536.87 954.2l70.785 2.503L642.72 932.6z"/><path fill="#fdfcf3" fill-opacity=".78" d="M556.63 833.625l4.343 81.658 14.054 2.37 29.06-87.435z"/><path fill="#977b6e" fill-opacity=".467" d="M72.55 635.184L.36 667.854-62 618.423l99.617-104.39z"/><path fill="#e2eaea" fill-opacity=".541" d="M417.513 1031.147l53.602-93.05 86.764-4.53-48.943-132.841z"/><path fill="#fcc290" fill-opacity=".349" d="M603.849 58.731l90.269 101.79-14.885-70.108-94.21 41.173z"/><path fill="#080c0c" fill-opacity=".412" d="M457.716 840.776L218.638 751.2l270.76-21.01 19.954-196.279z"/><path fill="#2b3132" fill-opacity=".686" d="M479.512 609.79l-79.076-73.183 217.486-68.48-109.606-73.178z"/><path fill="#a97572" fill-opacity=".906" d="M799.194-62l-33.23 132.468 18.145 47.056 107.776-27.657z"/><path fill="#b4aaac" fill-opacity=".698" d="M492.572 145.603l-4.429-53.762-88.407-22.584 55.746 134.967z"/><path fill="#f8fffd" fill-opacity=".345" d="M518.742 604.346l-24.036 21.113-9.064-22.85 50.025-16.534z"/><path fill="#dea8a6" fill-opacity=".675" d="M634.603 303.853l202.892 132.884 44.175-136.068-178.818 120.836z"/></svg>