<svg xmlns="http://www.w3.org/2000/svg" width="228" height="278" viewBox="0 0 836 1024"><path fill="#7b5f6d" d="M0 0h836v1024H0z"/><g fill-opacity=".502"><path fill="#e5ffff" d="M66 170l236 916-364-76z"/><path fill="#000200" d="M-62 74L898-62 794 446z"/><path fill="#fff" d="M898 626l-80 460-256-196z"/><path fill="#c1404b" d="M426-26L122 786l536 300z"/><path fill="#000003" d="M366 470L-62 94 222-62z"/><path fill="#f9ffff" d="M898 854l-232 232-76-328z"/><path fill="#e7ffff" d="M302 1086L-62 974l292-208z"/><path fill="#abf4ff" d="M190 362l-252 708 48-696z"/><path fill="#421203" d="M54 858L6 770l372-64z"/><path fill="#c7cd98" d="M442 78L262 226l224 52z"/><path fill="#b90f2c" d="M418 654l180-336 152 360z"/><path fill="#000e1f" d="M314 410l584-184L766-62z"/><path fill="#c8c6d6" d="M426 678l-8-144L34 662z"/><path fill="#ae1836" d="M262 1086l380-144-344-324z"/><path fill="#0045ca" d="M206 534L54 458l-116 68z"/><path fill="#2e0000" d="M246 710l-64-24-8-188z"/><path fill="#e1ffff" d="M162 738l-224-76 228-148z"/><path fill="#00151c" d="M578 46L-62-46v280z"/><path d="M630 774l104 4 20-100z"/><path fill="#d4e1ff" d="M794 654l104 432-264-96z"/><path fill="#2d3e3b" d="M346 246L46 402 6 318z"/><path fill="#396b7f" d="M898 234L622 362l192 380z"/><path fill="#d7c9ad" d="M406 762l128-108 144 52z"/><path fill="#d85374" d="M714 450L466 326l-72 240z"/><path fill="#3d0000" d="M518 818l72-76 28 180z"/><path fill="#b8294c" d="M326 326v388L158 422z"/><path fill="#dffdff" d="M162 490l-16-136-208 84z"/><path fill="#001928" d="M50 22l292 260-156 100z"/><path fill="#ac956b" d="M474 102L314 374l24-284z"/><path fill="#e1ffff" d="M206 1086l24-304-124 48z"/><path fill="#270000" d="M566 510l80 176-132-112z"/><path fill="#c8f6ff" d="M18 1086l228-96-308-200z"/><path fill="#dce0ff" d="M602 786l64 300 232-312z"/><path fill="#462115" d="M90 794l108 4L34 698z"/><path fill="#bfb98c" d="M446-62h-80l176 168z"/><path fill="#d0e7eb" d="M214 562l32 128 40-124z"/><path fill="#deebed" d="M438 574l-108 8v116z"/><path fill="#001425" d="M522-62l376 228-316 208z"/><path fill="#2f1910" d="M442 398l-96 64-148-332z"/><path fill="#8b8862" d="M530 290l-216 68V242z"/></g></svg>