<svg xmlns="http://www.w3.org/2000/svg" width="228" height="278" viewBox="0 0 836 1024"><path fill="#7c6761" d="M0 0h836v1024H0z"/><g fill-opacity=".502"><path fill="#fff" d="M806 734l-572 276 664 56z"/><path d="M-62 1082L598-34l-60 832z"/><path fill="#fccbc3" d="M898 278L742 702 602 54z"/><path fill="#ffcfd3" d="M498-62l-12 320-304 112z"/><path fill="#fff4c8" d="M254 974h136L90 610z"/><path d="M342 1086L34 630l-16 412zM142 410l392 332-128 280z"/><path fill="#fbbabb" d="M-62-2v720l252-268z"/><path fill="#e8f0ee" d="M414 686l12-84 248-4z"/><path fill="#fafef1" d="M454 934l84-200 360 136z"/><path fill="#e1332b" d="M106 494L262 18l156 140z"/><path fill="#212d2e" d="M166 394l528-32-88 296z"/><path fill="#fff" d="M366-10l168-8-60 140z"/><path d="M498 70L622-58l80 140zm40 588l20 252-76-212z"/><path fill="#102a34" d="M618 634l-28 140 308-16z"/><path d="M162 482l340 100-408 24z"/><path fill="#ddaaab" d="M898 638L758 222 630 594z"/><path fill="#1ee8ff" d="M-2 1074l-60-376L38 798z"/><path fill="#e9ffce" d="M898 1018l-424 68 424-376z"/><path fill="#c46d40" d="M190 602L-6 534l208 360z"/><path fill="#000003" d="M286 1022L-62 530l156 544z"/><path fill="#000109" d="M402 286L182 482l24-100z"/><path fill="#862922" d="M382 202l-164-96-280 244z"/><path fill="#fffafe" d="M294 1018l92-60-160-112z"/><path fill="#c89a91" d="M-62 322L258 54 166-62z"/><path fill="#020028" d="M650 938l-48-40-48 36z"/><path fill="#000609" d="M298 898l256-204-376-36z"/><path fill="#b88164" d="M582 50l316 176-360-36z"/><path fill="#f4e4ee" d="M734-30l-84-16 80 172z"/><path fill="#ffd4d6" d="M482 266l-284 80 280-172z"/><path fill="#433b35" d="M638 598L190 414l452-232z"/><path fill="#190000" d="M606 418L526-6l-44 188z"/><path fill="#172828" d="M574 994H454l80 92z"/><path fill="#ffaf69" d="M606 826l-32-188-52 152z"/><path fill="#ffa972" d="M490 346l68 84-48-148z"/><path fill="#ffb57a" d="M162 806l108 92-112-264z"/><path fill="#fff" d="M494 1018l12-228 48 168z"/><path fill="#df999e" d="M-62 442L70 622l216-368z"/><path fill="#8b5336" d="M-34 610h300L106 750z"/></g></svg>