<svg xmlns="http://www.w3.org/2000/svg" width="228" height="278" viewBox="0 0 836 1024"><path fill="#5a4d22" d="M0 0h836v1024H0z"/><path fill="#e1d91a" fill-opacity=".647" d="M495.227 807.7L140.704 947.614l94.712-673.524 408.977 119.069z"/><path fill="#0f0708" fill-opacity=".949" d="M681.876-62L572.302 293.666l131.18 295.708L898 448.32z"/><path fill="#1a79fe" fill-opacity=".522" d="M98.647 1086l202.047-236.012L863.009 1086l-1.4-183.405z"/><path fill="#130005" fill-opacity=".761" d="M177.78 317.308L-44.367 559.692l2.38-560.308L891.35-45.753z"/><path fill="#bdb635" fill-opacity=".871" d="M138.194 546.691L23.776 495.124l175.267-186.868 272.225-67.719z"/><path fill="#18110d" fill-opacity=".808" d="M569.89 664.97l202.582 91.135-171.966 325.522L496.89 869.708z"/><path fill="#9ca3b9" fill-opacity=".627" d="M622.63 1074.01l73.279-181.167 180.981-81.892L871.06 1086z"/><path fill="#6b2410" fill-opacity=".98" d="M176.755 535.28L-62 595.698 18.91 1086l155.795-230.57z"/><path fill="#094c9c" fill-opacity=".937" d="M361.039 871.667l213.494 116.18-438.186 54.616 44.438-108.456z"/><path fill="#003192" fill-opacity=".396" d="M528.018 573.722l25.39 89.756-216.522-47.87 91.004-89.627z"/><path fill="#0a0506" fill-opacity=".824" d="M898 142.869L848.958-62 425.02 45.47l92.632 60.57z"/><path fill="#06070d" fill-opacity=".929" d="M829.306 668.094L898 519.831l-180.696 97.621 34.157 64.445z"/><path fill="#838d44" fill-opacity=".996" d="M473.096 998.063l136.192 2.107-287.19 85.83 83.649-112.084z"/><path fill="#cfcee0" fill-opacity=".549" d="M174.439 319.426L-15.323 554.402-62 528.68l212.36-96.943z"/><path fill="#d2c512" fill-opacity=".455" d="M154.207 746.937l139.862-263.7 222.114 398.22-5.373 71.244z"/><path fill="#a1715a" fill-opacity=".431" d="M622.889 97.352L408.672 152.43l-13.888 191.91 192.394-96.987z"/><path fill="#344051" fill-opacity=".698" d="M898 721.232l-236.416 340.115 48.146-137.139 23.317-189.031z"/><path fill="#701709" fill-opacity=".471" d="M267.917 106.153L32.984 123.672l1.224 202.054 232.652-39.194z"/><path fill="#171816" fill-opacity=".914" d="M3.8 978.945l111.894-14.35 74.588 54.025L-5.649 1086z"/><path fill="#d0c925" fill-opacity=".757" d="M396.474 858.925l-75.11-18.27L204.465 559.38l-39.259 364.106z"/><path fill="#e2e1fd" fill-opacity=".549" d="M802.988 564.735l-116.356 56.947 76.347-57.773 14.427-7.342z"/><path fill="#d3e4ff" fill-opacity=".561" d="M898 976.92v67.027L756.108 934.225 693.788 1086z"/><path fill="#6b4602" fill-opacity=".824" d="M180.535 593.151L284.361 437.47l-167.618 98.996 20.83-15.539z"/><path fill="#d2c525" fill-opacity=".435" d="M617.87 659.102l-26.195-53.37-400.184-322.95 453.863 148.266z"/><path fill="#060405" fill-opacity=".843" d="M542.574 314.309L898 241.953 633.734 591.548l8.419-168.267z"/><path fill="#542218" fill-opacity=".663" d="M451.515 188.217l431.36-78.718-36.843 180.543-131.296-75.39z"/><path fill="#100b08" fill-opacity=".961" d="M249.955 185.953l13.562 106.187 92.95-28.267 51.157-47.383z"/><path fill="#693e00" fill-opacity=".298" d="M570.92 440.145l151.044 296.14L375.897 846.95 542.189 604z"/><path fill="#b4ab06" fill-opacity=".753" d="M85.156 527.524L177.04 379.45l238.664-94.021 73.922 68.256z"/><path fill="#fca79b" fill-opacity=".282" d="M816.4 687.703l-204.672-62.371 102.077 83.766 127.777 17.824z"/><path fill="#076fed" fill-opacity=".329" d="M562.527 986.376l-181.31-139.438-33.951 112.875 170.15 57.136z"/><path fill="#070707" fill-opacity=".89" d="M523.013-51.204L332.44 97.006-62 105.716l25.14-151.034z"/><path fill="#0e0c08" fill-opacity=".671" d="M549.429 706.565L496.064 850.51l37.68 118.449 227.666-161.69z"/><path fill="#f9cd5c" fill-opacity=".427" d="M553.383 984.568l91.828 68.488L898 1027.033l-455.296 58.573z"/><path fill="#481b0d" fill-opacity=".624" d="M513.676 737.042l130.784 4.245-12.319-192.63L898 473.406z"/><path fill="#e6e7fa" fill-opacity=".263" d="M-.51 528.277l105.213-61.013 104.405-119.846 1.383-52.7z"/><path fill="#cac129" fill-opacity=".671" d="M538.707 345.373l48.727 17.553-78.187 207.609L334.53 467.17z"/><path fill="#e5eefa" fill-opacity=".498" d="M675.043 949.33l38.278-83.781-14.877 88.35-63.402 87.936z"/><path fill="#a39500" fill-opacity=".486" d="M542.795 668.418L339.203 627.85l-7.82 166.23 155.748 128.482z"/><path fill="#a8aeb2" fill-opacity=".808" d="M654.8 1045.6l75.561-123.736-22.668 50.483-10.032 21.535z"/><path fill="#513120" fill-opacity=".675" d="M172.544 849.917l-35.677 155.118-121.843-31.357 161.911-165.587z"/><path fill="#96845f" fill-opacity=".506" d="M346.717 272.637l208.677-167.285-123.839 187.11-42.263 33.662z"/><path fill="#3b5fb0" fill-opacity=".306" d="M596.638 490.747l-27.106-55.344-20.293 9.213 27.57 104.821z"/><path fill="#0351b4" fill-opacity=".851" d="M137.404 961.32l433.277 20.529-72.558 38.712-113.572-91.44z"/><path fill="#1d1d1d" fill-opacity=".643" d="M772.881 864.644l4.207-75.285-21.889 97.645L701.246 1086z"/><path fill="#a17c5d" fill-opacity=".984" d="M673.01 666.828l82.166 24.385 112.057-35.043-77.54 59.973z"/><path fill="#0b0c0d" fill-opacity=".925" d="M29.862 484.638L-62 501.682V302.413l192.167 78.228z"/><path fill="#bfa700" fill-opacity=".341" d="M649.017 659.783l-267.973-78.122 217.48 21.608 2.713-82.638z"/><path fill="#b5c3dd" fill-opacity=".537" d="M718.034 913.274l19.35-89.827-5.529 85.395-9.894 19.876z"/><path fill="#0c255d" fill-opacity=".631" d="M309.25 878.394l66.197-17.807 11.632 5.501-179.156 89.56z"/><path fill="#392a1d" fill-opacity=".733" d="M152.587 302.172l-88.93 46.311-93.593-131.249 86.94-117.637z"/><path fill="#d5d330" fill-opacity=".404" d="M502.019 896.001l30.51 91.075-61.915-81.398-252.307-159.933z"/><path fill="#617287" fill-opacity=".616" d="M750.854 923.214L898 1029.954 797.457 762.746l-58.745 215.586z"/><path fill="#9b3015" fill-opacity=".314" d="M159.406 808.59l31.952-222.417L73.592 482.764-49.7 526.438z"/><path fill="#c3b920" fill-opacity=".984" d="M369.116 245.017l72.83 231.243-232.128-176.18 219.484 21.136z"/><path fill="#040608" fill-opacity=".596" d="M727.533 649.106l-66.817-390.614 223.882 49.715L684.27 634.964z"/><path fill="#411e0a" fill-opacity=".306" d="M456.91 367.99l59.236-8.5 67.388-119.945-130.56-.048z"/><path fill="#aba108" fill-opacity=".788" d="M426.278 593.555L137.194 350.099l315.794 104.686-148.086-67.969z"/><path fill="#002a6e" fill-opacity=".816" d="M147.538 1021.815l247.094-28.862-36.59 18.696 17.152 23.031z"/><path fill="#570700" fill-opacity=".725" d="M87.247 106.372l77.057 226.955 84.345-72.929 27.131-121.01z"/><path fill="#572a00" fill-opacity=".443" d="M689.658 680.777l204.155 74.82-353.62-30.683 13.55-117.362z"/><path fill="#071409" fill-opacity=".467" d="M354.06-.156l78.896 155.387 200.954 23.785-94.603 17.387z"/><path fill="#03279d" fill-opacity=".235" d="M454.769 446.253l-130.838-12.01 9.962-12.379 112.362 7.797z"/><path fill="#201302" fill-opacity=".325" d="M685.324 1045.866l41.696-146.877-68.776 122.054 65.68-66.928z"/><path fill="#d9cd41" fill-opacity=".992" d="M200.83 719.297l-10.89-129.623-2.32 36.919-14.062 124.079z"/><path fill="#8b382b" fill-opacity=".431" d="M802.883 238.198l-97.646-76.708 10.978-5.534 161.348-24.222z"/><path fill="#fdeb03" fill-opacity=".353" d="M440.174 1010.945l-59.54-5.12 38.5-27.73L618.387 1086z"/><path fill="#e6eaff" fill-opacity=".294" d="M751.86 595.829l-22.314 8.625-34.285-4.93 122.817-53.828z"/><path fill="#032d7a" fill-opacity=".227" d="M439.903 515.897l87.381 104.464 5.523-65.301-145.214 39.285z"/><path fill="#836e04" fill-opacity=".851" d="M473.797 839.11l-109.841-39.371 155.47 95.034-80.008-175.518z"/><path fill="#c2e4f9" fill-opacity=".169" d="M164.147 394.407L11.857 538.055l26.169-73.935-3.19 106.529z"/><path fill="#392a20" fill-opacity=".91" d="M442.925 138.6l-25.865-14.988-22.47 159.503-38.877-105.278z"/><path fill="#cfcd4c" fill-opacity=".753" d="M157.527 951.163l8.368-53.78 17.866-111.877-1.19 153.468z"/><path fill="#644d00" fill-opacity=".557" d="M362.665 515.1l-203.47-10.297 126.277-49.094-48.502 37.12z"/><path fill="#a79e00" fill-opacity=".584" d="M77.578 497.892l29.61 31.26 36.69 27.054 175.784-202.032z"/><path fill="#9c7556" fill-opacity=".427" d="M806.762 699.655L692.508 742.8l10.236-107.475-80.56 7.829z"/><path fill="#050405" fill-opacity=".851" d="M880.38 558.38L552.26 343.884l44.475-109.821 285.157 142.184z"/><path fill="#004eb3" fill-opacity=".776" d="M395.65 987.363l-217.997 29.194L158.95 971l14.577-32.777z"/><path fill="#030100" fill-opacity=".569" d="M663.664 1007.246l30.37-43.029-4.718 17.744-67.89 85.075z"/><path fill="#f3ffb3" fill-opacity=".282" d="M400.741 265.777L163.636 336.55l28.555-20.531 38.375-23.518z"/><path fill="#591000" fill-opacity=".855" d="M84.44 731.977L-.14 619.892l-39.895 170.672 125.152-.401z"/><path fill="#292a22" fill-opacity=".988" d="M510.051 933.8l159.964 25.434-29.636 62.65 24.617 57.33z"/><path fill="#27292e" fill-opacity=".882" d="M764.405 800.146l16.525-75.917-63.457 265.76 27.315-173.22z"/><path fill="#090102" fill-opacity=".541" d="M242.98 290.761l54.228-8.153L403.758-62 223.45 245.741z"/><path fill="#ffe1f0" fill-opacity=".125" d="M537.811 271.653l65.247-158.823-3.479 131.556-41.825-2.554z"/><path fill="#090808" fill-opacity=".647" d="M643.104 206.744L581.855 56.388 423.672-62 778.75 38.238z"/><path fill="#bebebf" fill-opacity=".471" d="M750.799 788.87l13.775-38.315 5.74-15.96-6.377 46.153z"/><path fill="#fef5d6" fill-opacity=".322" d="M746.023 914.04l1.719 1.29-25.186 82.278-21.546 24.041z"/><path fill="#0c5c80" fill-opacity=".529" d="M354.714 255.613l46.297 72.235-47.427-51.2 6.76-24.474z"/><path fill="#c2be1d" fill-opacity=".706" d="M257.95 906.07l153.41-70.872-12.29 34.848-206.751-91.353z"/><path fill="#161923" fill-opacity=".694" d="M676.824 756.047l42.505 166.01 12.197-98.836 26.614-95.644z"/><path fill="#4a2c04" fill-opacity=".612" d="M209.23 537.54l71.008-104.964-100.898 84.76-18.376 33.506z"/><path fill="#0c0a07" fill-opacity=".675" d="M732.092 990.447l-47.632 92.34-3.005-68.597-23.635 58.867z"/><path fill="#063389" fill-opacity=".314" d="M473.425 603.75l23.632 62.39 32.935-25.504-154.964-14.728z"/><path fill="#d3cb1d" fill-opacity=".482" d="M188.496 650.241l64.18-121.578 110.775 31.804 2.86 141.964z"/><path fill="#d6573b" fill-opacity=".22" d="M29.095 905.44l-11.075 3.71-32.97-102.476 134.043 10.212z"/><path fill="#050403" fill-opacity=".62" d="M618.11 362.905l147.21 103.758-90.24 127.424-35.976-138.75z"/><path fill="#d2e0fc" fill-opacity=".176" d="M742.777 935.18l26.358-276.266-7.644 77.142 11.935 49.355z"/><path fill="#070808" fill-opacity=".675" d="M551.963 977.279L520.84 950.73l-16.032-143.86 48.544-86.666z"/><path fill="#000001" fill-opacity=".522" d="M717.293 1042.52l43.681-149.87 14.435-50.415 15.37-95.884z"/><path fill="#6f2019" fill-opacity=".624" d="M743.838 522.862l-11.257 54.29 67.804-22.92L898 512.11z"/><path fill="#741e09" fill-opacity=".573" d="M75.042 499.025l91.316 310.278 28.801-297.642-54.465 45.94z"/><path fill="#899e88" fill-opacity=".651" d="M421.52 883.89l-50.226 13.434 10.82-18.663 113.174 58.03z"/><path fill="#acc0ec" fill-opacity=".286" d="M786.934 991.277l34.442-141.201-71.345 102.286 21.41-88.957z"/><path fill="#b3c4dd" d="M656.121 1086l173.816-118.841-199.73 100.084 80.779-62.368z"/><path fill="#f8e541" fill-opacity=".165" d="M603.875 597.485l12.406 57.775-116.825-2.75 194.257-46.54z"/><path fill="#bcaa09" fill-opacity=".471" d="M594.699 516.861l50.317-40.981-110.43-140.623 97.457 66.18z"/><path fill="#742a15" fill-opacity=".988" d="M74.038 821.013l102.524 16.947 1.017-79.065L145.803 650.1z"/><path fill="#3a3907" fill-opacity=".631" d="M448.912 1014.848l-68.762 20.832 43.185-26.82 75.298 77.14z"/><path fill="#d5c91b" fill-opacity=".643" d="M124.49 511.5l-50.238-13.333-20.377-31.363 22.6-10.233z"/><path fill="#001154" fill-opacity=".333" d="M275.163 935.606l-99.226 4.755 33.661-26.847 161.728-29.152z"/><path fill="#c8c427" fill-opacity=".514" d="M407.909 608.799l-41.747-16.332 127.535 5.333-76.436-16.58z"/><path fill="#1b1514" fill-opacity=".573" d="M699.591 245.408l40.635 121.083 35.88-154.884-247.282-44.22z"/><path fill="#aecffe" fill-opacity=".337" d="M64.44 448.945l42.226 24.35 27.371-33.17 2.188-64.214z"/><path fill="#6a5200" fill-opacity=".424" d="M579.024 678.025L508.313 545.88l48.304 55.808 71.71-131.548z"/><path fill="#82583f" fill-opacity=".427" d="M515.168 175.699l-111.082-22.616-13.33 43.009 151.455 143.653z"/><path fill="#281d0c" fill-opacity=".769" d="M754.316 720.253L898 747.045l-115.71-8.392-98.26 20.135z"/><path fill="#ba9f90" fill-opacity=".478" d="M711.593 642.236l16.263 8.837-94.32 2.966 40.767-15.026z"/><path fill="#e3d23b" fill-opacity=".514" d="M408.13 1086l161.224-98.841L635.69 1086l-61.78-87.072z"/><path fill-opacity=".643" d="M718.958 983.584l33.288-160.938-17.46 113.932-50.394 87.344z"/></svg>