<svg xmlns="http://www.w3.org/2000/svg" width="228" height="278" viewBox="0 0 836 1024"><path fill="#796e6b" d="M0 0h836v1024H0z"/><path fill="#16110c" fill-opacity=".69" d="M403.93 1086l62.893-333.875-265.306-461.132-44.66 777.084z"/><path fill="#eef3fb" fill-opacity=".627" d="M-43.388 629.049L3.201 1086l169.166-232.111 5.165-479.37z"/><path fill="#dae4e8" fill-opacity=".725" d="M732.753 792.299l-279.366 22.522 40.77 234.567 237.423 10.04z"/><path fill="#bdaca3" fill-opacity=".588" d="M506.387 685.582L763.4 719.025 559.336 20.533l-80.235 118.372z"/><path fill="#41131b" fill-opacity=".478" d="M753.69 626.821l91.087 33.184L898-31.758 640.099-62z"/><path fill="#111210" fill-opacity=".753" d="M548.789 50.414L505.48-62H326.108l29.139 213.285z"/><path fill="#fafa98" fill-opacity=".769" d="M226.55-21.382L99.279 13.503 79.42 81.007l148.908 19.46z"/><path fill="#2f0122" fill-opacity=".58" d="M743.202 1086h106.893l-.648-365.452-100.14-20.443z"/><path fill="#222224" fill-opacity=".784" d="M-2.646 215.03l174.92 3.203 23.325-79.425L-62 79.208z"/><path fill="#5d4540" fill-opacity=".576" d="M547.568 201.594l-75.72 156.704 22.148 134.072L-62 333.616z"/><path fill="#c4a597" fill-opacity=".471" d="M834.43 370.18L399.91 698.505l261.263-370.338 37.013-94.363z"/><path fill="#001013" fill-opacity=".514" d="M788.755 228.483l7.145-87.634-251.92-5.762 125.07 119.319z"/><path fill="#8f999b" fill-opacity=".831" d="M702.221 223.627L547.548 676.986l130.338 340.39 58.526-217.074z"/><path fill="#f0d5d4" fill-opacity=".675" d="M416.708 531.845l-33.132-73.652-74.352 11.476 43.373 83.979z"/><path fill="#7a7d7f" fill-opacity=".98" d="M11.56 453.318l16.97 327.095 37.11 19.521-52.618-504.883z"/><path fill="#c29b9a" fill-opacity=".612" d="M221.538 158.836l413.168 407.957-356.788-317.176-162.704 1.298z"/><path fill="#cf937a" fill-opacity=".714" d="M425.853 554.016l120.127 45.068-21.257 86.621-188.9-76.91z"/><path fill="#3b332e" fill-opacity=".827" d="M488.765 982.23l-247.793 93.936-137.741-58.112 71.324-199.531z"/><path fill="#9dabad" fill-opacity=".6" d="M178.873 524.28L-62 439.245l182.559-77.882 85.807 34.46z"/><path fill="#fafffc" fill-opacity=".467" d="M53.602 522.083l6.59 217.92L161.3 779.429l20.93-272.47z"/><path fill="#f5f5f8" fill-opacity=".682" d="M467.026 836.453L672.662 1086 599.68 826.268 512.097 1086z"/><path fill="#4f0010" fill-opacity=".502" d="M806.98 645.064L898 390.649l-151.107 29.325-28.984 228.436z"/><path fill="#fdd7c3" fill-opacity=".451" d="M466.794 145.742L684.83 90.176l-238.439-2.02-21.348 15.81z"/><path fill="#020401" fill-opacity=".455" d="M453.545 831.79L296.557 730.11 151.622 479.997l173.56 103.805z"/><path fill="#ff9084" fill-opacity=".357" d="M317.486 264.016l159.076 186.95-15.164 24.524-56.314-246.014z"/><path fill="#738b8e" fill-opacity=".447" d="M631.981 179.622L784.56-62l-17.862 212.226L494.365 8.663z"/><path fill="#1f0000" fill-opacity=".196" d="M551.23 442.815l-305.449 27.22 307.433-128.957 85.583 10.146z"/><path fill="#ffcdb7" fill-opacity=".243" d="M631.612 387.62L461.24 255.612l-35.776-113.464 229.043 112.73z"/><path fill="#a293b2" fill-opacity=".933" d="M-41.222 985.782L-62 639.188 110.355 1086l7.224-176.618z"/><path fill="#ebe9e9" fill-opacity=".365" d="M574.315 616.558l49.806-174.462 7.032 24.367-55.512 592.589z"/><path fill="#301907" fill-opacity=".537" d="M535.78 319.626l-35.056-16.413-50.84 64.108-23.834-140.596z"/><path fill="#5f534f" fill-opacity=".906" d="M455.44 234.748L75.732 115.712l205.04-14.026-23.679 133.88z"/><path fill="#fafffc" fill-opacity=".549" d="M102.418 804.293l-132.701-7.658 174.916 68.739 43.714-55.37z"/><path fill="#e7edef" fill-opacity=".471" d="M511.605 931.508l-58.531-65.137 16.51-114.434 16.961-33.205z"/><path fill="#30281c" fill-opacity=".329" d="M571.17 616.778L427.765 782.66l-39.017-196.442 173.257 229.62z"/><path fill="#b9bcbc" fill-opacity=".796" d="M162.55 818.868L90.39 426.383l21.68 303.965 83.842-8.771z"/><path fill="#e9ff62" fill-opacity=".725" d="M-62 205.266L66.31-62l160.785 81.482L-62-24.245z"/><path fill="#1c160f" fill-opacity=".549" d="M-55.53 223.255l138.485-34.658L20.007 27.613 109.05-62z"/><path fill="#433d3a" fill-opacity=".549" d="M388.88 485.252l69.493 72.712 51.85-21.653L300.045 250.9z"/><path fill="#607175" fill-opacity=".361" d="M611.427 852.723L680.77 973.95l-.625-273.98-26.219-459.553z"/><path fill="#785742" fill-opacity=".627" d="M654.187 159.767L323.63 182.762l93.123-90.164 29.185 37.94z"/><path fill="#fbece0" fill-opacity=".98" d="M84.004 1086L33.282 960.412-62 961.985v-16.544z"/><path fill="#75797b" fill-opacity=".463" d="M560.47 1083.623l-2.595 2.377 23.855-124.022-55.122-106.801z"/><path fill="#333230" fill-opacity=".325" d="M344.476 803.626l-262.1-30.075-41.425-46.917-49.825 58.901z"/><path fill="#2e444a" fill-opacity=".259" d="M331.015 493.423L-39.077 353.776-62 250.412l366.347 25.842z"/><path fill="#b5968e" fill-opacity=".808" d="M132.731 79.8l116.934 22.767-185.693-2.601L88.77-62z"/><path fill="#fff4f1" fill-opacity=".349" d="M191.895 439.956l-5.797 41.92L-62 462.028l73.71-18.252z"/><path fill="#e99691" fill-opacity=".388" d="M296.733 237.894L359.22 97.319l-69.1 16.83-7.02 54.189z"/><path fill="#171615" fill-opacity=".698" d="M335.485 100.667l216.88-99.005-78.119-35.403L552.19 73.23z"/><path fill="#6a798b" fill-opacity=".341" d="M898 592.404l-385.54 151.66 211.75 1.5L898 929.273z"/><path fill="#afc8c2" fill-opacity=".267" d="M122.242 501.943l61.634-308.107 225.812 65.233-291.64-6.573z"/><path fill="#6c5e56" fill-opacity=".612" d="M456.487 983.22L316.84 802.664l127.1 65.129L512.645 1086z"/><path fill="#010f0f" fill-opacity=".4" d="M658.29 171.517l-23.593 94.275L784.5 193.79 668.68 98.097z"/><path fill="#d6d5d2" fill-opacity=".698" d="M-62 476.552L10.813 824.85l2.342-151.493 1.748-158.885z"/><path fill="#822d3c" fill-opacity=".682" d="M879.753 234.788L742.321 247.99l2.173 116.509 31.793-16.52z"/><path fill="#9ba5af" fill-opacity=".522" d="M539.545 18.225l117.242 99.4L521.4 136.566 672.99 7.555z"/><path fill="#d79977" fill-opacity=".498" d="M494.468 698.34l-58.22-5.29L651.54 269.255l-55.961 266.03z"/><path fill="#d44056" fill-opacity=".329" d="M717.819 461.445L898 472.38l-149.886 42.235-36.154 151.173z"/><path fill="#77b2c9" fill-opacity=".294" d="M562.18 177.274l206.197 154.643-206.006-59.515-60.899 254.306z"/><path fill="#e7fbff" fill-opacity=".38" d="M417.59 531.382l-77.417-9.175 113.275-30.472-37.535-34.173z"/><path fill="#fabfa1" fill-opacity=".6" d="M478.577 214.977l-44.821-54.102 130.467 52.949-.423-56.226z"/><path fill="#f8f4d4" fill-opacity=".227" d="M213.618-62l114.82 98.04-39.034 100.75 42.3 4.713z"/><path fill="#66776e" fill-opacity=".439" d="M106.06 835.56l-35.82 23.958L98.284 1086l-2.895-172.364z"/><path fill="#fcfbff" fill-opacity=".408" d="M589.851 824.358l-152.328 1.882 99.688 37.773 128.366 132.594z"/><path fill="#011f1d" fill-opacity=".443" d="M703.155 40.214l175.298-60.001-57.9 66.678L598.842-59.953z"/><path fill="#f8b9b5" fill-opacity=".553" d="M647.69 301.605l-6.754 54.96-102.25-26.447 38.041-59.081z"/><path fill="#25231d" fill-opacity=".678" d="M170.969 723.674l9.08-102.121 333.887 91.781-7.527 16.303z"/><path fill="#dbdae2" fill-opacity=".533" d="M507.173 534.4l32.081-80.862 2.966 26.683-55.689-27.192z"/><path fill="#aab7b6" fill-opacity=".667" d="M733.938 1067.544l-55.43-49.55 31.114-324.265 28.366 90.84z"/><path fill="#460914" fill-opacity=".447" d="M886.595 893.112L744.645 1086l17.903-278.082 15.476 17.044z"/><path fill="#f9ff8b" fill-opacity=".949" d="M140.292 88.028l73.355-25.216L220.847-62l-81.312 78.692z"/><path fill="#675754" fill-opacity=".635" d="M562.91 236.735l-82.574 6.497 194.152-96.448-105.88-33.264z"/><path fill="#82604b" fill-opacity=".478" d="M443.355 707.645l-60.75 2.687-18.296-114.72 114.92 53.182z"/><path fill="#eaf0f4" fill-opacity=".396" d="M26.357 905.342l6.861-113.695 34.09-4.488 11.97 209.214z"/><path fill="#4f403a" fill-opacity=".71" d="M473.993 415.895L456.51 595.231l72.655-76.808-26.18 24.65z"/><path fill="#fabcda" fill-opacity=".565" d="M329.833 616.803l104.185-62.47-22.63 14.102 48.158-8.82z"/><path fill="#ffcdb8" fill-opacity=".4" d="M229.252 231.5l-51.36 9.581 33.363-84.717 33.342 6.152z"/><path fill="#575e62" fill-opacity=".961" d="M733.648 20.296l-84.67 12.147-29.855 37.932 76.8 47.635z"/><path fill="#fccab4" fill-opacity=".361" d="M563.212 75.805L446.119 90.347 613.23 231.64l-100.76-27.577z"/><path fill="#221007" fill-opacity=".361" d="M399.783 244.517l59.221 79.956 105.592-24.909-64.444-3.513z"/><path fill="#eb6a7e" fill-opacity=".514" d="M263.894 360.524l45.563-67.338-43.083 29.54-12.545 35.056z"/><path fill="#cf1d3b" fill-opacity=".478" d="M-14.678 611.803L-62 842.113 43.811 960.427l-90.603-9.973z"/><path fill="#ff2c40" fill-opacity=".247" d="M892.529 851.741l-168.114 38.305 21.072 20.425L898 916.09z"/><path fill="#2f2b27" fill-opacity=".753" d="M422.93 429.56l-102.865 42.355L177.102 669.67l5.762-176.49z"/><path fill="#bec0c1" fill-opacity=".992" d="M123.53 936.227l28.255-69.219-48.117-38.237-.303 164.979z"/><path fill="#030809" fill-opacity=".325" d="M325.938 199.84l47.526 48.515L349.522 1.098l125.71 43.481z"/><path fill="#d19c9e" fill-opacity=".537" d="M478.105 334.48l18.893-22.915-43.523 164.272 28.252-70.794z"/><path fill="#828b8e" fill-opacity=".82" d="M217.067 399.029L-62 373.978l75.32 58.507 185.363 8.99z"/><path fill="#1c1715" fill-opacity=".459" d="M155.959 763.614l168.629 69.593 41.814-231.068L211.09 892.804z"/><path fill="#2b1d1c" fill-opacity=".337" d="M43.166 368.792l14.596-113.557L-62 274.808l45.208 102.569z"/><path fill="#000b11" fill-opacity=".153" d="M40.13 532.024l-5.97 145.994-25.41-198.8 74.962-72.038z"/><path fill="#4c3c3b" fill-opacity=".718" d="M380.181 580.366l55.08-54.887-106.037 34.83 12.84 44.475z"/><path fill="#8f7163" fill-opacity=".604" d="M840.196 198.676l10.794-10.585-15.644-154.227-31.449 145.523z"/><path fill="#eefdff" fill-opacity=".369" d="M466.149 737.925l.521 47.483 44.459-50.614 11.16-11.328z"/><path fill="#060100" fill-opacity=".298" d="M519.84 1086L277.45 912.943l142.948 63.463-97.58-159.62z"/><path fill="#21201c" fill-opacity=".459" d="M195.093 135.544l112.125-55.696-33.286 36.816-18.968 44.623z"/><path fill="#8a9093" fill-opacity=".988" d="M736.583 687.136l-56.715-23.127 146.514-6.877L898 701.737z"/><path fill="#f8f9f9" fill-opacity=".569" d="M87.366 772.574L55.458 524.899l61.788-26.386-22.772 112.974z"/><path fill="#0f0f0b" fill-opacity=".831" d="M185.79 467.483L337.742 719.74l48.142-52.956-78.32-75.309z"/><path fill="#725a56" fill-opacity=".827" d="M509.582 461.718l-57.384-148.33 56.506 95.64L527.6 539.47z"/><path fill="#181016" fill-opacity=".376" d="M860.351 525.029l-87.796-24.39-32.772 106.09 30.412 42.972z"/><path fill="#ffcced" fill-opacity=".463" d="M408.709 369.32l29.914 18.128-93.879-109.33 12.439 20.663z"/><path fill="#809194" fill-opacity=".647" d="M-1.307 220.374L-62 242.942l227.433 18.297 205.37-10.995z"/><path fill="#745ee5" fill-opacity=".514" d="M-62 990.672l89.533-86.004-12.895-95.343-76.626-16.414z"/><path fill="#717b80" fill-opacity=".431" d="M656.723 143.142L554.08 209.508l67.074 8.474-8.953 163.386z"/><path fill="#5c6467" fill-opacity=".569" d="M449.063 802.93l38.764-20.346 76.15-192.039-2.91 222.23z"/><path fill="#022931" fill-opacity=".224" d="M321.824 269.197L189.813 393.459l-44.082-68.896 64.964-61.159z"/><path fill="#c08950" fill-opacity=".278" d="M459.544 226.32l-85.23 71.195-13.198-61.983L476.141 73.383z"/><path fill="#42322f" fill-opacity=".424" d="M239.298 469.925l184.69-19.284-93.94-167.934 60.83 61.663z"/><path fill="#a6a9ac" fill-opacity=".392" d="M693.556 262.87l33.508-18.106-5.99 291.95-52.772 128.703z"/><path fill="#7b350d" fill-opacity=".227" d="M374.04 314.153l150.448-82.423-143.369-61.074 97.154 243.593z"/><path fill="#9bf3f5" fill-opacity=".196" d="M258.597 63.203l-135.136 1.961 19.946 47.171 105.054-.095z"/><path fill="#0b0a07" fill-opacity=".757" d="M420.969 947.755l-8.443 14.426-94.98-103.932 54.095 31.215z"/><path fill="#ffd4d2" fill-opacity=".643" d="M331.324 467.682l39.438 62.107 35.87 3.607-32.768-79.297z"/><path fill="#f1f2f1" fill-opacity=".671" d="M118.558 505.458l12.637 49.032 21.385 212.876 27.951-190.432z"/><path fill="#f7f7f9" fill-opacity=".659" d="M576.183 845.766l13.46 200.137L569.366 1086l86.653-92.168z"/><path fill="#884939" fill-opacity=".325" d="M629.133 380.935l-22.477-42.244-67.863 12.85 45.931 84.296z"/><path fill="#543f3f" fill-opacity=".553" d="M256.454 602.482l82.341-71.732-12.766-45.744 30.998 22.399z"/><path fill="#525251" fill-opacity=".69" d="M357.007 69.253L296.415-62 330.68 70.286l29.253 131.289z"/><path fill="#3f1f1c" fill-opacity=".933" d="M456.287 430.498l25.393-142.373-44.255-33.063 45.102 115.627z"/></svg>