<svg xmlns="http://www.w3.org/2000/svg" width="228" height="278" viewBox="0 0 836 1024"><path fill="#6e6a72" d="M0 0h836v1024H0z"/><path fill="#b3c2d6" fill-opacity=".643" d="M578.96 309.299l-356.45 25.027-12.47 135.897L704.193 783.46z"/><path fill="#0d1c39" fill-opacity=".765" d="M337.207 910.545L-62 773.406l144.62 299.262L898 938.57z"/><path fill="#010400" fill-opacity=".639" d="M763.24 538.275L518.395 555.39l-35.413 232.263 165.542-425.482z"/><path fill="#000102" fill-opacity=".749" d="M219.29 608.136l-81.835-32.225 22.149-216.214 54.102-40.955z"/><path fill="#0e0500" fill-opacity=".576" d="M874.974 8.944L344.626-62l-59.812 193.692 343.352-91.936z"/><path fill="#e3f1f4" fill-opacity=".467" d="M118.791 103.322L-11.04 224.882l8.604 111.88 271.73-126.167z"/><path fill="#b7c4da" fill-opacity=".918" d="M349.253 966.463l62.02-278.739-11.193-343.442-59.523 534.632z"/><path fill="#bfcde3" fill-opacity=".914" d="M413.772 878.19l33.515 36.694 72.405-372.382-35.216-29.894z"/><path fill="#b7cae3" fill-opacity=".824" d="M543.994 612.534L500.278 867.47l52.095 40.188 18.929-236.952z"/><path fill="#afbdd2" fill-opacity=".988" d="M242.313 333.49l42.558 140.065 3.134 462.1 66.9-630.588z"/><path fill="#f73800" fill-opacity=".31" d="M655.4 1072.505L801.016 560l-248.5 228.012L581.558 1086z"/><path fill="#012dab" fill-opacity=".573" d="M898 1047.058l-137.901.968-67.265-155.436 68.555-173.616z"/><path fill="#13161e" fill-opacity=".647" d="M417.286 576.066L360.646 1086l76.027-310.432 27.97-237.158z"/><path fill="#725249" fill-opacity=".996" d="M221.402 132.738l266.933-59.309-12.592 255.053-86 22.835z"/><path fill="#af9083" fill-opacity=".565" d="M675.831-9.085l67.977 224.275-53.204 685.634L898 107.598z"/><path fill="#20416f" fill-opacity=".992" d="M72.303 1086L23.116 796.326l228.65 30.62 23.066 21.294z"/><path fill="#f3ffff" fill-opacity=".427" d="M518.164 514.578l-87.329-161.663 160.706-138.838-74.922-90.484z"/><path fill="#1e2023" fill-opacity=".949" d="M571.745 909.718l-6.325 170.179L699.84 1086 182.196 913.316z"/><path fill="#70b9db" fill-opacity=".596" d="M-62 520.508l33.065 191.805 135.746-41.03 18.672-85.474z"/><path fill="#21252d" fill-opacity=".816" d="M368.689 582.835l-43.582-6.576L301.402 1086l50.49-345.036z"/><path fill="#0d0300" fill-opacity=".565" d="M612.687 509.396l-4.547-197.634L735.877 590.3l-20.914 42.926z"/><path fill="#563c32" fill-opacity=".616" d="M308.177 282.52l1.275-66.77L-62 412.397l1.193 179.165z"/><path fill="#d9ced1" fill-opacity=".459" d="M266.925 714.429l-11.927-35.61 4.412-142.538-108.463 207.743z"/><path fill="#000f1f" fill-opacity=".306" d="M530.43 502.402l-357.906-14.746 115.518 252.612-17.47-195.46z"/><path fill="#c9daf5" fill-opacity=".69" d="M613.773 496.958L597.27 345.227l-118.038-68.838 94.805 163.17z"/><path fill="#abbbd3" fill-opacity=".859" d="M291.038 906.088l36.166-308.945-75.877 319.511 20.94-5.291z"/><path fill="#cbdae9" fill-opacity=".863" d="M526.84 371.513l-299.44-38.29-13.62 135.097 48.388-51.922z"/><path fill="#22252c" fill-opacity=".78" d="M515.777 595.756l-16.87 434.49-48.362-63.344 48.907-311.837z"/><path fill="#16191a" fill-opacity=".804" d="M176.557 1017.3L289.04 692.822l-34.464 204.8 211.928 175.354z"/><path fill="#b1b6bb" fill-opacity=".937" d="M668.37 735.913l30.223-116.014-38.766-50.782-116.188 108.15z"/><path fill="#110d12" fill-opacity=".525" d="M368.68 415.788L331.269 428.6l14.812 49.842 42.027-38.694z"/><path fill="#1a1514" fill-opacity=".553" d="M292.925 463.895l-106.15 37.27 6.121 198.282 65.353-288.54z"/><path fill="#1d0500" fill-opacity=".314" d="M749.425 333.383L619.032 221.778l108.52-61.4 30.985 27.204z"/><path fill="#76655c" fill-opacity=".831" d="M474.36 487.682l326.87 125.404-71.483-118.587L638.78 600.9z"/><path fill="#03071b" fill-opacity=".447" d="M559.594 409.052l7.134 46.558 14.517 22.812-62.82-11.772z"/><path fill="#353444" fill-opacity=".698" d="M424.012 419.796l6.96 57.536 42.019-9.083 3.564-50.177z"/><path fill="#85a8ee" fill-opacity=".463" d="M880.764 995.268L898 716.22 775.333 727.2l-1.195 61.36z"/><path fill="#99918b" fill-opacity=".639" d="M493.733 75.6l171.875 217.893L814.586 431.84 550.83 311.925z"/><path fill="#e97c2a" fill-opacity=".337" d="M152.142 579.434L240.34 754.34l-74.708 25.338-62.843-118.527z"/><path fill="#272938" fill-opacity=".502" d="M85.158-15.054L360.22-33.727l-27.17 239.015-88.572-166.883z"/><path fill="#dde4f0" fill-opacity=".498" d="M320.658 266.066l-42.455 213.34 204.802-159.621-76.732 183.352z"/><path fill="#f6a994" fill-opacity=".333" d="M478.26 171.185l-54.426 77.15 26.258-156.668-130.276 3.483z"/><path fill="#d1d8ef" fill-opacity=".337" d="M261.2 540.03l19.468.933-75.492 97.549 41.546 208.15z"/><path fill="#5b0c02" fill-opacity=".471" d="M598.998 1086l107.454-167.371-.485-67.588-180.711 188.118z"/><path fill="#010b15" fill-opacity=".42" d="M469.428 283.186L346.786 327.65l90.938 27.013 62.808-107.998z"/><path fill="#b98d6d" fill-opacity=".992" d="M649.91 835.009l103.576-268.262-51.122 290.912-30.766 9.655z"/><path fill="#c2d3e7" fill-opacity=".741" d="M330.742 869.222l76.502-256.744-37.54 295.207-36.2 9.323z"/><path fill="#b1c1d7" fill-opacity=".969" d="M559.735 897.854l-59.61.89 17.339-125.464 34.341-188.728z"/><path fill="#7f6258" fill-opacity=".678" d="M291.791 259.382l-162.818 73.116-80.362 196.77 29.01-278.773z"/><path fill="#09070b" fill-opacity=".459" d="M282.343 782.282l-44.953-39.417 53.275-94.031-33.644-110.514z"/><path fill="#171d25" fill-opacity=".925" d="M48.533 969.49L-62 984.969V901.58l80.895-67.647z"/><path fill="#ecd4bf" fill-opacity=".173" d="M89.405 256.26l155.828 9.11 27.505-138.244L91.612-62z"/><path fill="#733400" fill-opacity=".29" d="M-33.692 49.042L-62 145.154l146.156 22.081 77.048-88.875z"/><path fill="#d0deff" fill-opacity=".478" d="M417.303 526.015l158.725.929-17.185 29.802-345.015-7.359z"/><path fill="#d5e3ff" fill-opacity=".557" d="M235 476.625l-3.793 27.454 331.168-25.653-139.327-4.793z"/><path fill="#97a3b4" fill-opacity=".651" d="M832.818 535.111l-31.466-70.01-84.89 17.566 53.41 82.24z"/><path fill="#a91828" fill-opacity=".475" d="M565.75 682.209l-1.24 62.605 87.387 18.762L569.841 1086z"/><path fill="#1f2b38" fill-opacity=".549" d="M479.92 531.022l51.519-42.356 44.306 38.562 129.439-25.372z"/><path fill="#110a02" fill-opacity=".545" d="M373.264-62L500.658 63.86l-16.055 107.183 25.593-15.165z"/><path fill="#a9a8b3" fill-opacity=".475" d="M730.296 32.459l-63.482 34.667 181.931 136.783L898 133.829z"/><path fill="#000400" fill-opacity=".259" d="M594.191 324.518l61.88 242.074L877.9 334.105l-156.457 95.91z"/><path fill="#020812" fill-opacity=".427" d="M169.56 576.878l52.319 16.956 39.305-172.525 46.623-8.57z"/><path fill="#452e18" fill-opacity=".659" d="M108.019 742.542l57.192 38.293-57.475-110.963 1.508 25.71z"/><path fill="#5bbbff" fill-opacity=".176" d="M159.699 1086l32.315-78.814-2.948-49.684L-62 991.882z"/><path fill="#292c39" fill-opacity=".714" d="M493.357 31.554L666.175-62 792.08 58.46 898 2.307z"/><path fill="#7a4a37" fill-opacity=".467" d="M634.185 291.53L599.41 34.144 498.932 75.25l-40.22-114.375z"/><path fill="#b3c4db" fill-opacity=".831" d="M314.037 674.2l3.586 72.928-35.297 167.274-25.332-7.371z"/><path fill="#4f3105" fill-opacity=".306" d="M775.232 632.01l-160.66-106.281 220.792 65.334L712.6 831.466z"/><path fill="#c3cfe8" fill-opacity=".737" d="M369.745 579.746l-20.362 267.391 30.778-20.26 47.824-307.299z"/><path fill="#c9e1ff" fill-opacity=".392" d="M606.53 412.766l-21.923-106.752-35.687 312.788 11.565-24.236z"/><path fill="#4d5666" d="M283.67 495.964l40.433 30.436-95.883 27.154 14.515-48.96z"/><path fill="#412c24" fill-opacity=".992" d="M343.813 172.594l137.556-36.13-29.09 30.89-120.562-25.993z"/><path fill="#20232a" fill-opacity=".639" d="M304.516 829.905l50.535-133.852 1.088 75.918-85.15 255.166z"/><path fill="#32343f" fill-opacity=".89" d="M323.763 553.146l10.228 147.81-4.966-62.414 46.595-78.631z"/><path fill="#1f2836" fill-opacity=".392" d="M396.064 816.871l4.136 39.411-281.621-36.525 228.748 47.114z"/><path fill="#d6e4ff" fill-opacity=".561" d="M482.675 482.346l105.856 10.109-19.642 38.419-110-199.172z"/><path fill="#c0cee1" d="M453.097 719.287l-32.61 187.373 48.145 1.363-4.282 1.227z"/><path fill="#2a2c35" fill-opacity=".973" d="M514.898 585.733l-35.063 401.494 46.638-296.467 28.111-138.63z"/><path fill="#c5d3e9" fill-opacity=".788" d="M438.165 395.632l-107.646-99.054-95.968 48.982 277.524 75.412z"/><path fill="#996d64" fill-opacity=".588" d="M875.265 438.835l-88.041 24.677-40.44-270.907 37.84-141.18z"/><path fill="#c5e5ff" fill-opacity=".275" d="M126.524 127.559l102.512 95L-62 211.612v312.617z"/><path fill="#2f3334" fill-opacity=".557" d="M242.892 192.771l51.978 27.715-74.424 123.288 93.043-39.59z"/><path fill="#e18183" fill-opacity=".561" d="M468.114 996.206L361.569 1086l64.318-77.492L522.203 1086z"/><path fill="#bb8372" fill-opacity=".486" d="M402.378 167.144L344.5 187.941l26.608 23.272 220.37-26.018z"/><path fill="#828e9b" fill-opacity=".427" d="M318.567 45.07L-62 3.27l308.62 93.61L420.422-62z"/><path fill="#9e9090" fill-opacity=".6" d="M107.971 656.862L100.382 722l-96.095 1.423 44.388-74.985z"/><path fill="#1d1e22" fill-opacity=".953" d="M593.835 930.097L272.697 1086 487.73 898.89l92.524 11.569z"/><path fill="#ffc94b" fill-opacity=".596" d="M397.61 402.555l-32.996 22.024-17.291-22.931 23.588-16.584z"/><path fill="#0f101b" fill-opacity=".4" d="M527.83 423.194l-2.724 39.433 44.673 9.508-12.047-45.857z"/><path fill="#d0e5ff" fill-opacity=".482" d="M242.526 822.956l-1.677 2.957-29.538 4.6 42.997-65.433z"/><path fill="#988d8b" fill-opacity=".376" d="M755.712 865.273l-199.008-142.21 147.516-53.435-62.89 216.67z"/><path fill="#00224e" fill-opacity=".231" d="M567.074 615.268l-50.307-10.065 110.7-34.633-92.932-77.798z"/><path fill="#d3d7ed" fill-opacity=".549" d="M312.534 524.817l61.857-15.848 23.322-150.157 79.468 23.318z"/><path fill="#86d5ff" fill-opacity=".137" d="M765.7 557.23l34.158-258.358-114.414 80.962 29.857 95.55z"/><path fill="#0d0700" fill-opacity=".282" d="M598.658 78.924L346.388 3.688l-66.27 172.54 81.044-91.241z"/><path fill="#061e11" fill-opacity=".373" d="M690.197 883.721l-60.83 73.759 8.69 12.8 98.592-29.732z"/><path fill="#2b252a" fill-opacity=".349" d="M377.29 463.01l4.659 17.706-58.87-20.45 62.774-54.685z"/><path fill="#472822" fill-opacity=".463" d="M290.865 742.88l-90.985-11.392 18.403 82.098 1.992-92.742z"/><path fill="#020211" fill-opacity=".243" d="M48.874 463.275L-62 490.645l178.337-226.134-84.921 154.26z"/><path fill="#060e0e" fill-opacity=".506" d="M598.753 333.61l66.942 30.27 41.714 156.84-90.984-48.959z"/><path fill="#2d2e39" fill-opacity=".675" d="M403.677 908.09l62.716-327.195 3.155-9.76-48.732-21.048z"/><path fill="#0d1522" fill-opacity=".369" d="M433.981 345.461l27.01-14.633-111.333-54.692 53.965 85.772z"/><path fill="#aaac95" fill-opacity=".635" d="M530.855 287.054l-34.178-66.64 22.166-38.968 93.388 60.056z"/><path fill="#172f90" fill-opacity=".804" d="M820.402 932.92L797.437 1086l-34.993-21.763-15.706-282.177z"/><path fill="#7a5f57" fill-opacity=".541" d="M427.375-62l-256.11 230.62-14.862-110.55 96.593 71.453z"/><path fill="#626976" fill-opacity=".847" d="M343.546 488.896l81.863 44.73-28.317-46.654-201.411 48.046z"/><path fill="#8c8989" fill-opacity=".922" d="M648.506 553.133l-40.641-31.209-.728 23.735 71.73 58.906z"/><path fill="#0a0b0c" fill-opacity=".596" d="M178.34 412.078l-52.883 177.876 92.422-16.913 25.631-42.133z"/><path fill="#040c19" fill-opacity=".325" d="M287.169 550.303l-30.204 22.254 3.469 210.785 24.28-91.953z"/><path fill="#98685c" fill-opacity=".275" d="M630.188 4.795l64.278 32.238L736.45 172.28l-295.36 17.59z"/><path fill="#fe1536" fill-opacity=".196" d="M550.587 1014.466L667.744 1086l57.419-192.1-15.284 49.701z"/><path fill="#bcf8cc" fill-opacity=".169" d="M666.342 368.285l65.256 151.568-110.532-224.987 66.397-36.594z"/><path fill="#cacfe1" fill-opacity=".408" d="M514.193 596.078l-36.311-132.39-77.511 90.815 128.072-7.212z"/><path fill="#c1897c" fill-opacity=".537" d="M404.656 167.791l29.004-45.671 8.723-30.81-86.544 15.932z"/><path fill="#565a6b" fill-opacity=".678" d="M231.432 820.367l-122.273.342-120.173 5.088L-62 744.444z"/><path fill="#a26d47" fill-opacity=".549" d="M118.064 722.584l.259 9.428 11.113-152.745 93.636 27.439z"/><path fill="#cbdaee" d="M315.597 489.832l-32.683-17.35 19.804-90.502 49.937-9.85z"/><path fill="#96a1b7" fill-opacity=".796" d="M229.817 466.526l28.089 43.033-2.324 240.87-2.956-220.653z"/><path fill="#d6eafd" fill-opacity=".475" d="M526.953 851.832l-22.559 54.016 28.956-7.23 46.3 5.263z"/><path fill="#2c445e" fill-opacity=".278" d="M521.413 505.451l28.523-69.175-57.934-54.389 56.469-7.76z"/></svg>