<svg xmlns="http://www.w3.org/2000/svg" width="228" height="278" viewBox="0 0 836 1024"><path fill="#4c5671" d="M0 0h836v1024H0z"/><g fill-opacity=".502"><path fill="#fff" d="M-62 562l312-264-124 668z"/><path fill="#000072" d="M102 1086l552-136-188-800z"/><path fill="#fff" d="M-62 818l180-468 108 528z"/><path fill="#bcd6e0" d="M786 858l-52-440-168 668z"/><path d="M302 306l12-296-376 172z"/><path fill="#1e1700" d="M666-62l164 912 68-808z"/><path fill="#bc8b53" d="M290 254l608 124L386-62z"/><path d="M-62 810l296 188-204 88z"/><path fill="#001b7d" d="M478 1086L134 598l552-300z"/><path fill="#024ed8" d="M170 266l140 344 284-112z"/><path fill="#fff" d="M-62 830l232-492 80 128z"/><path fill="#050500" d="M46-2l312 264-376-20z"/><path fill="#bd7f50" d="M70 482l144-196-276-52z"/><path fill="#e7ffff" d="M710 1086l-48-160-176 120z"/><path fill="#716441" d="M678-62l172 808L442 50z"/><path d="M834 850l64-220-180 84z"/><path fill="#271600" d="M450 438L554 70 350 350z"/><path fill="#d8b38f" d="M502-62L378 318 310 70z"/><path fill="#00054f" d="M302 1086l16-624-160 132z"/><path fill="#000905" d="M834-62l12 276-208 52z"/><path fill="#e1f8ff" d="M206 418L102 934-62 550z"/><path d="M-62 922l312 8-164 156z"/><path fill="#ffeed4" d="M894 886L710 778l80 104z"/><path fill="#b18455" d="M62-62L254 46l-96 92z"/><path fill="#bcd6e5" d="M798 638l-164 92 16-144z"/><path fill="#0650c4" d="M790 926l-188-44-92 104z"/><path fill="#9e9ab0" d="M678 338L578 158l-80 188z"/><path fill="#ffc19c" d="M86 910l56-132 52 132z"/><path fill="#1d67f1" d="M178 354l172-60 28 232z"/><path fill="#244a6a" d="M154 618l-60 12-8 56z"/><path fill="#00196a" d="M166 586l132 500 396-324z"/><path fill="#382a22" d="M318 210l180-8L650 78z"/><path fill="#00171f" d="M326 290L270 6 170 346z"/><path fill="#947059" d="M790 522l-72-288-40 392z"/><path fill="#122534" d="M582 746l-68-112 204-312z"/><path fill="#f6ffff" d="M114 390l132 120-28-148z"/><path fill="#5e6134" d="M742 42l-344-4 336 164z"/><path fill="#d2f2ff" d="M738 858l-60 48-24-128z"/><path fill="#215dc4" d="M518 314l8 252 128-176z"/><path fill="#556e97" d="M574 614l-300 16 112 48z"/></g></svg>