<svg xmlns="http://www.w3.org/2000/svg" width="228" height="278" viewBox="0 0 836 1024"><path fill="#82796e" d="M0 0h836v1024H0z"/><g fill-opacity=".502"><path fill="#fdffff" d="M722 278l-464 808-104-756z"/><path fill="#1f0000" d="M14 390L-30-62l928 76z"/><path d="M142 1046l-176-60 328-568z"/><path fill="#fff" d="M554 1086l-396-60 128-488z"/><path fill="#f2fafd" d="M738 506L638 290 86 530z"/><path fill="#381e04" d="M634 690l192 396 72-648z"/><path fill="#b07d45" d="M482 386l80-320-444 188z"/><path fill="#435521" d="M398 662l192-208 8 272z"/><path fill="#4b301e" d="M346-34l332 408L898-42z"/><path d="M86 1050l208-496-308 392z"/><path fill="#f4f8fa" d="M194 790l-36 296 356-228z"/><path fill="#fff" d="M98 574l248-300-164 56z"/><path d="M338-34L-62-6l92 196z"/><path fill="#00001b" d="M874 622l-32 296-104-468z"/><path fill="#d5862d" d="M746 578l48 160-256 308z"/><path fill="#dce2e0" d="M614 606l144-24-76-244z"/><path fill="#092056" d="M278 586l-56-116L70 874z"/><path fill="#5a3c2e" d="M10 690L-54 54l252 252z"/><path fill="#dee6db" d="M638 598l-92 352 96-168z"/><path d="M-62 958l224-116 16 200z"/><path fill="#177e8f" d="M898 930l-312 156 68-160z"/><path fill="#fff" d="M734 438l-236-20 20-164z"/><path fill="#cfd7d8" d="M278 1086l-8-816 212 524z"/><path fill="#e9b773" d="M366 194l56-96 136 52z"/><path fill="#3c1700" d="M478 358l24-116-104 132z"/><path fill="#74878f" d="M842 226l-308 20 320 276z"/><path fill="#bc7a30" d="M158 646L-30 942l148-492z"/><path fill="#5a2e00" d="M606 982l164-96-52-116z"/><path fill="#050900" d="M346 98l224 16L290-62z"/><path fill="#ffcd90" d="M438 1086l224-272-96 212z"/><path fill="#e2ac6f" d="M402 294l148-92-216-8z"/><path fill="#000604" d="M690 718l-56 100 20-160z"/><path fill="#fdffff" d="M302 290l-160 96 236-12z"/><path fill="#ffd49d" d="M22 902l-84 104 96-268z"/><path fill="#ced1c1" d="M106 578l52-192 156 84z"/><path fill="#86875c" d="M466 1046l-28-176 148 44z"/><path fill="#f4f3f6" d="M434 938L218 726l-52 308z"/><path fill="#a8c6f3" d="M810 538l-28-88 100-64z"/><path fill="#85896e" d="M718 518l-28 64-192-136z"/><path fill="#573724" d="M746 82l152 116-480 4z"/></g></svg>