<svg xmlns="http://www.w3.org/2000/svg" width="228" height="278" viewBox="0 0 836 1024"><path fill="#655e63" d="M0 0h836v1024H0z"/><g fill-opacity=".502"><path fill="#fff" d="M722 934L234 806l28 280z"/><path fill="#0f0000" d="M10-62l-72 468L898 30z"/><path fill="#fff" d="M710 286L14 394l476 52zm-44 408l-516 32 296 68z"/><path fill="#000705" d="M442-6h456L758 462z"/><path fill="#f5ffff" d="M186 538l152 96 332-128z"/><path fill="#fcffff" d="M630 834L206 942l452 144z"/><path fill="#8e5500" d="M850 126L614 898l216 188z"/><path fill="#0022a3" d="M174 434l532-32-544 184z"/><path fill="#602f22" d="M718 14L366 406 122 98z"/><path fill="#fff" d="M122 450l408-48-360-56z"/><path fill="#004" d="M174 658l380 60-56-112z"/><path fill="#000062" d="M506 866l-328-72 480-24z"/><path fill="#fff" d="M242 802l508 284H254z"/><path d="M-62 654l92 204 40-400z"/><path fill="#000014" d="M646 918l36 168 216-300z"/><path fill="#fff" d="M690 390l76 92H638z"/><path fill="#002" d="M654 558L506 418l152-40z"/><path fill="#daa90b" d="M898 346L606 898l244-224z"/><path fill="#fff" d="M614 286l-236 92 196 24z"/><path fill="#5585c8" d="M170 562l-32 316 192-296z"/><path fill="#e2ced3" d="M566 486l32 108-320 36z"/><path fill="#d48a6d" d="M482 210l-192 4L414 94z"/><path d="M18 358L218-62-62 22z"/><path fill="#007a98" d="M610 394l160-104-124-108z"/><path fill="#d9ab88" d="M158 1062l20-196-232 172z"/><path fill="#ffd1a4" d="M82 858l-60 16 52-216z"/><path fill="#7985ad" d="M22 314l136 48-80 304z"/><path fill="#f8ffff" d="M270 770l148-4-200-92z"/><path fill="#d0d9dc" d="M314 762l356-120-100 128z"/><path fill="#613214" d="M730 774l-144 4 152-364z"/><path fill="#000005" d="M146 502l-20-84 172 112z"/><path fill="#000041" d="M586 666l-356-52 92 104z"/><path fill="#b7cbdb" d="M338 854l292-4 28 236z"/><path fill="#ddb896" d="M806 494L546 602l112 12z"/><path fill="#3b0000" d="M338 162l92 164-76 68z"/><path fill="#1559ff" d="M434 322l28-52 148 24z"/><path fill="#3b2000" d="M98 578l92-68L90 762z"/><path fill="#3c5e92" d="M190 14l-44 332 96 8z"/><path fill="#d1dbe0" d="M526 506L262 630l-28-88z"/></g></svg>