<svg xmlns="http://www.w3.org/2000/svg" width="228" height="278" viewBox="0 0 836 1024"><path fill="#60616b" d="M0 0h836v1024H0z"/><g fill-opacity=".502"><path fill="#eaeffe" d="M206 242l112 796 372-168z"/><path d="M-62-42l16 612L798-62z"/><path fill="#fff" d="M126 414l192-80L42 846z"/><path d="M206-54L-62 6l72 932z"/><path fill="#43b3ff" d="M810 890l88-396-236 8z"/><path fill="#100000" d="M318-62l-4 464 376-260z"/><path fill="#f1f3fd" d="M234 334l284 196-464 64z"/><path fill="#000019" d="M570 1074l328-60-96-188z"/><path fill="#2b3749" d="M674 486L178 614l336 44z"/><path fill="#ea946e" d="M274 394L214 90l108 48z"/><path fill="#d4dbff" d="M770 454L502 294l360 100z"/><path fill="#ffa56c" d="M22 1006l60-392 36 300z"/><path fill="#d2b8bd" d="M674 142l132-72L638-62z"/><path fill="#eeecf5" d="M346 990l280-164-320-28z"/><path fill="#020503" d="M230 282L22 630 210-62z"/><path fill="#1f0000" d="M278 1086l-340-56 228-96z"/><path fill="#fff" d="M138 438L70 650l96 12z"/><path fill="#41291c" d="M254 758l-48-268L82 882z"/><path fill="#204369" d="M846 690l16-144-452 156z"/><path fill="#000028" d="M334 1086l392-156-184-4z"/><path fill="#888d9e" d="M126 814l208 272-24-300z"/><path fill="#efe9ff" d="M754 242l120 148 24-168z"/><path fill="#221c39" d="M566 170l112 164 220-224z"/><path fill="#83c7ff" d="M738 826l12-212 136 240z"/><path fill="#6d7ea6" d="M746 394L514 210 310 530z"/><path fill="#2d1100" d="M454 210L198 346l208 28z"/><path fill="#fff" d="M502 602l-88-4-52 36z"/><path fill="#110f0a" d="M106 390L-62 510l72 532z"/><path fill="#fffeff" d="M226 362l-68 40 96 240z"/><path fill="#767c8a" d="M778 782l-328-24 68-188z"/><path fill="#9ee5ff" d="M702 562l-32-68 228 24z"/><path fill="#273853" d="M578 914l320-40-228-80z"/><path fill="#767e91" d="M162 526l140-84-144 244z"/><path fill="#0d0200" d="M846 386l-148-40 68-60z"/><path fill="#282d11" d="M558 502l72-84 224 68z"/><path fill="#fff" d="M750 370l60 16-44 84z"/><path fill="#ffbb9f" d="M34 994l12-208 52 180z"/><path fill="#fcf8fd" d="M422 478L274 346l44 156z"/><path fill="#b6b8c7" d="M662 918l-160 12-240-280z"/><path fill="#fff" d="M338 406L90 538l68-140z"/></g></svg>