<svg xmlns="http://www.w3.org/2000/svg" width="228" height="278" viewBox="0 0 836 1024"><path fill="#7f544f" d="M0 0h836v1024H0z"/><g fill-opacity=".502"><path fill="#ffffd7" d="M898 1022l-84-304-360 368z"/><path fill="#7d0000" d="M290 62l424 820-472 152z"/><path fill="#ffff84" d="M314 1086L178 686-62 962z"/><path fill="#ffbadb" d="M882 622L474 242l156 256z"/><path fill="#5f0000" d="M434 258l280 320-332 372z"/><path fill="#ffff7a" d="M642 730l256 48-112 308z"/><path fill="#252a44" d="M-62 702l292 60-96-824z"/><path fill="#e22842" d="M310 618L-62 302l572 116z"/><path fill="#efffe4" d="M206 38l-8 120L442-62z"/><path fill="#30526c" d="M318 34l552 588-20-684z"/><path fill="#ddff6c" d="M10 1086l264-184-336-220z"/><path fill="#001f35" d="M-10-62l112 332L250-58z"/><path fill="#9d9aa8" d="M210 26l284 312 176-52z"/><path fill="#a8cdef" d="M686 898l128 188H182z"/><path fill="#b60016" d="M262 1038l-52-456 352 316z"/><path fill="#80c2db" d="M646 586l108 88-120 100z"/><path fill="#d50017" d="M898 818l-92-284-136-4z"/><path fill="#470005" d="M642 830l-364-96 332-312z"/><path fill="#d592a0" d="M426 622L214 522l-8 88z"/><path fill="#ff6684" d="M-38 322l320 12-104 72z"/><path fill="#222416" d="M258 130l36 276h168z"/><path fill="#bd0005" d="M462 406l120 104 80-84z"/><path fill="#fff" d="M674 450l72 60-104 16z"/><path fill="#4a0000" d="M86 466l-148-96 356 96z"/><path fill="#c9e46e" d="M270 1054l-48-320-176 4z"/><path fill="#bca78d" d="M418-62l8 216-120 20z"/><path fill="#2b4e5c" d="M-62 266l256 96 8-256z"/><path fill="#b7bdc5" d="M418 482l16-88-76 64z"/><path fill="#35504b" d="M858 786l-156-60 12-176z"/><path fill="#32535e" d="M210 466l-28 300-244-308z"/><path fill="#f0ff86" d="M654 734l88 280 156-140z"/><path fill="#ffd7e5" d="M538 314l-40 24-48-76z"/><path fill="#ffe7f9" d="M638 842l-68 40 76-20z"/><path fill="#c40817" d="M294 418L-62 318v108z"/><path fill="#eff" d="M214 410l4 32 40-8z"/><path fill="#849599" d="M266 322L198 50l-8 304z"/><path fill="#b40b22" d="M734 626L434 394l112-28z"/><path fill="#1b0104" d="M502 450l136 132-236 28z"/><path fill="#fff" d="M594 374l-8-28-72 28z"/><path fill="#304460" d="M514 298l-80-60 52-284z"/></g></svg>