<svg xmlns="http://www.w3.org/2000/svg" width="228" height="278" viewBox="0 0 836 1024"><path fill="#3c3a3d" d="M0 0h836v1024H0z"/><path fill="#1d67bd" fill-opacity=".616" d="M680.15 334.789l-473.255-1.43-31.09 123.904L325.677 652.17z"/><path fill="#8c6444" fill-opacity=".969" d="M366.345 82.12l160.434 200.788L389.781 385.3 252.083 104.877z"/><path fill="#8a6d45" fill-opacity=".675" d="M542.203 575.3l-2.344 407.334-292.972 20.793 82.54-366.973z"/><path fill="#dae0cf" fill-opacity=".443" d="M691.387 856.25L898 867.46 816.818 1086 708.993 946.618z"/><path fill="#050100" fill-opacity=".659" d="M642.17 207.405L-32.753-38.37 898-60.515l-31.317 235.5z"/><path fill="#cbf4f7" fill-opacity=".702" d="M658.112 509.89l-27.402-52.888 61.998-60.37 43.082 85.6z"/><path fill="#0b1021" fill-opacity=".741" d="M732.465 679.547L502.27 848.912 461.102 1086 447.81 716.214z"/><path fill="#210f0c" fill-opacity=".78" d="M318.249-62L-62 9.466l17.24 625.286 153.824 33.954z"/><path fill="#aa805a" fill-opacity=".624" d="M898 658.227l-99.831-142.82L662.25 621.371 55.824 697.798z"/><path fill="#002865" fill-opacity=".639" d="M425.672 609.707L898 246.9 365.14 562.95 385.479 1086z"/><path fill="#1c0d02" fill-opacity=".506" d="M247.875 695.587L-62 786.026 230.907 1086l52.281-372.294z"/><path fill="#ffa463" fill-opacity=".271" d="M179.568 588.413l-32.79 40.341-24.101 53.361 519.517-44.109z"/><path fill="#012f6e" fill-opacity=".8" d="M300.674 610.912l26.63-31.599 9.132 358.955-31.54-153.05z"/><path fill="#fbac18" fill-opacity=".616" d="M369.394 892.325l.171-238.708-34.911-31.735 8.01 464.118z"/><path fill="#00143e" fill-opacity=".702" d="M628.237 367.871l-111.925 64.721 47.45 202.136 93.59 1.973z"/><path fill="#609dfd" fill-opacity=".412" d="M112.679 1014.156l-44.084-58.894-129.98 34.699 113.392 79.035z"/><path fill="#ff9b04" fill-opacity=".522" d="M420.363 1002.815l21.805-29.845 13.095-163.375-43.928-130.96z"/><path fill="#02397e" fill-opacity=".675" d="M605.286 1077.55l21-297.872-89.39 48.718L541.357 1086z"/><path fill="#15110c" fill-opacity=".6" d="M898 349.749l-269.814-64.852 160.77 264.331 76.574-105.355z"/><path fill="#fea415" fill-opacity=".592" d="M519.505 993.704l19.418-154.45-38.716-5.25-8.52 133.168z"/><path fill="#164d8e" d="M458.807 364.265l245.034 33.49-70.638-77.77-128.693-31.64z"/><path fill="#af7e5e" fill-opacity=".365" d="M247.965 116.985l76.04-32.628 229.855 64.908-261.655 157.527z"/><path fill="#110700" fill-opacity=".518" d="M474.696 865.44L898 653.702l-63.51 189.003L446.847 701.32z"/><path fill="#583523" fill-opacity=".855" d="M295.72 323.15l142.347-131.954-74.262 173.145-55.596 7.69z"/><path fill="#85c4eb" fill-opacity=".388" d="M469.131 533.144l-219.6-24.325 58.961-111.104-118.886 25.638z"/><path fill="#4b1916" fill-opacity=".969" d="M173.443 618.644L8.547 471.032l70.448-109.46 104.994 78.989z"/><path fill="#ffb411" fill-opacity=".51" d="M309.032 1086l1.27-299.415-21.452-182.912-8.939-12.287z"/><path fill="#0d418a" fill-opacity=".643" d="M474.793 1086l27.99-255.194-43.114 14.614-29.834 232.812z"/><path fill="#f3aa25" fill-opacity=".631" d="M425.573 328.675l51.38-53.58 41.411-15.534-58.454 91.621z"/><path fill="#0b3066" fill-opacity=".839" d="M733.96 464.48l27.714 77.445-85.253 45.717-39.22-60.507z"/><path fill="#002b64" fill-opacity=".561" d="M219.65 418.834L129.405 579.02l87.367 6.345 67.737 122.341z"/><path fill="#e0825e" fill-opacity=".38" d="M402.24 597.212l199.31 55.048-133.264 80.347-50.031-.395z"/><path fill="#68695f" fill-opacity=".698" d="M677.783 274.51l149.305 35.545L898 213.706l-162.2 3.276z"/><path fill="#031445" fill-opacity=".667" d="M495.714 335.524l-116.9 57.537-108.372-44.923 75.73 11.574z"/><path fill="#1a1715" fill-opacity=".894" d="M5.651 418.527L84.605-62l180.798 237.476 13.42 122.636z"/><path fill="#c59b78" fill-opacity=".925" d="M332.331 210.566l-70.86-3.057 73.446-108.012-62.402.79z"/><path fill="#0b0b0c" fill-opacity=".592" d="M574.435-19.639l-19.708 269.924 62.146 66.249L875.497-62z"/><path fill="#033272" fill-opacity=".655" d="M174.306 536.319l195.02 107.965 37.604 334.544 1.492-349.243z"/><path fill="#186ab7" fill-opacity=".749" d="M269.168 371.129l25.211-76.556-98.172 58.247 31.1 157.535z"/><path fill="#e2a432" fill-opacity=".757" d="M453.996 921.373l-18.5 65.507-31.198 11.585 9.674-127.077z"/><path fill="#f4a553" fill-opacity=".314" d="M517.72 445.261l-59.908-4.397-4.473-64.223 74.94 4.832z"/><path fill="#ff9d68" fill-opacity=".306" d="M176.462 741.767l13.173-90.484 4.279-85.45L113.22 677.21z"/><path fill="#0d376e" fill-opacity=".753" d="M306.145 785.288l39.714 229.955 284.809-24.44L325.851 1086z"/><path fill="#ceffff" fill-opacity=".169" d="M822.101 600.593L612.716 280.577l159.608 338.316 27.63 60.575z"/><path fill="#f7960f" fill-opacity=".463" d="M550.175 558.017l-47.527 6.569 14.388 101.364 30.974-38.993z"/><path fill="#28221a" fill-opacity=".494" d="M356.034 170.082l-213.725-8.212 242.133-25.082 375.983-91.23z"/><path fill="#f7b92e" fill-opacity=".565" d="M291.937 977.708l1.83-112.47 21.3 80.02-13.869 99.065z"/><path fill="#fffdfb" fill-opacity=".455" d="M291.291 403.211l-9.962 45.43-10.727 4.038-22.118-35.727z"/><path fill="#0355a4" fill-opacity=".467" d="M288.071 934.793l8.058-155.552-17.008 70.188L274.285 1086z"/><path fill="#07204d" fill-opacity=".757" d="M546.06 484.628l89.427-120.53-190.197 219.36 46.172 46.212z"/><path fill="#fe9b00" fill-opacity=".451" d="M759.465 580.563l13.586-37.276-47.801 23.393-68.12 44.047z"/><path fill="#e2c39c" fill-opacity=".459" d="M259.722 108.77l21.299 44.544 56.15-19.796 43.38-41.33z"/><path fill="#7d6041" fill-opacity=".424" d="M255.756 52.395L414.75 15.502l69.288 57.002L334.905 5.851z"/><path fill="#171415" fill-opacity=".847" d="M145.066 904.903l-19.282 47.315 153.364-63.072-78.708-214.07z"/><path fill="#804f12" fill-opacity=".753" d="M283.663 818.248l-23.122-152.52-28.87-67.847 44.377 243.438z"/><path fill="#fab51e" fill-opacity=".565" d="M274.05 583.951l-3.368 25.68 13.166 107.566 17.567-62.258z"/><path fill="#ffd955" fill-opacity=".506" d="M246.24 1001.01l23.646-5.226 10.455-83.97-35.404 92.353z"/><path fill="#000213" fill-opacity=".486" d="M476.643 576.81l132.195-152.27 95.129 203.965-118.89-99.477z"/><path fill="#3a342c" fill-opacity=".816" d="M106.727 880.372l41.14-16.376-34.557-257.64-160.36 282.663z"/><path fill="#3f2000" fill-opacity=".471" d="M754.733 647.771l47.618 63.24-382.908-1.4 183.81-25.421z"/><path fill="#d69b2d" fill-opacity=".757" d="M370.74 1000.284l-16.299-226.926-19.71 233.684 198.71-37.268z"/><path fill="#10396e" fill-opacity=".918" d="M242.544 1074.186L402.84 980.54l-25.222-290.356-3.877 363.375z"/><path fill="#22201d" fill-opacity=".843" d="M175.23 609.054L44.464 684.29-10.29 570.236l191.476-56.431z"/><path fill="#b1adfc" fill-opacity=".416" d="M842.978 1059.187L817.486 1086l-67.905-64.356 86.805-45.79z"/><path fill="#616053" fill-opacity=".592" d="M898 863.964L655.927 823.59l91.31 262.41-29.721-194.003z"/><path fill="#0c2958" fill-opacity=".733" d="M517.548 1086l95.01-113.975-346.695 58.512-28.413-44.857z"/><path fill="#3a6e9d" fill-opacity=".596" d="M239.391 490.887l236.55.459-40.7 82.169-166.097-1.913z"/><path fill="#0043a6" fill-opacity=".365" d="M349.03 500.781l180.879 1.859L407.862 381.2l-176.245-61.18z"/><path fill="#b88263" fill-opacity=".867" d="M460.928 592.358l-61.363 72.426 192.172-4.432-166.81-62.29z"/><path fill="#651e03" fill-opacity=".478" d="M251.14 592.645L234.857 700.46l-53.027 37.336L195.6 602.97z"/><path fill="#514941" fill-opacity=".529" d="M480.724 63.975l-41.735 241.7 124.32-149.034L312.053-50.252z"/><path fill="#ffa55b" fill-opacity=".208" d="M372.689 365.488l122.479-63.25-161.775 13.44-66.69 11.076z"/><path fill="#2a0f00" fill-opacity=".553" d="M429.027 741.742l105.957-4.326-200.047 221.87L457.208 838.75z"/><path fill="#083c81" fill-opacity=".373" d="M447.895 553.502l215.55-160.327L494.73 237.297l31.64 170.774z"/><path fill="#1c0500" fill-opacity=".188" d="M435.478 102.34L329.208 283.5l-34.483 117.562 124.958-144.805z"/><path fill="#0d0904" fill-opacity=".38" d="M609.509 1003.774l-119.038-13.889 192.928-12.33-33.509-120.908z"/><path fill="#febf41" fill-opacity=".259" d="M561.355 931.97l-44.418-53.514-22.738-29.69-3.045 141.403z"/><path fill="#e0f9e9" fill-opacity=".447" d="M660.733 433.447l-4.638 84.444 65.44-54.393-21.63-61.689z"/><path fill="#5ed1ff" fill-opacity=".231" d="M624.292 343.753l-163.013-88.46 205.446 89.108 35.11 64.087z"/><path fill="#b58664" fill-opacity=".949" d="M353.054 188.999l-12.38 46.92-35.636-4.793-15.374-81.165z"/><path fill="#393934" fill-opacity=".941" d="M630.622 909.807l146.94-219.28-67.754 37.018-93.864-20.64z"/><path fill="#1869c2" fill-opacity=".322" d="M625.664 709.415l-17.435 97.807-90.147 124.944 101.227-61.61z"/><path fill="#8e0000" fill-opacity=".278" d="M64.14 493.331l-55.115-101.6 152.486-4.028-24.167 105.826z"/><path fill="#c08662" fill-opacity=".29" d="M527.065 199.883l-209.203-93.36L415.83 217.64l65.33-7.679z"/><path fill="#e2f1b3" fill-opacity=".192" d="M733.928 918.292l37.401 39.467L898 913.691l-150.02-41.963z"/><path fill="#0c0400" fill-opacity=".216" d="M325.177 703.943l25.251 55.37-7 20.294L-62 761.393z"/><path fill="#451a11" fill-opacity=".455" d="M422 683.768l112.14-16.457-141.18 39.145 23.574-9.184z"/><path fill="#16427f" fill-opacity=".925" d="M205.472 394.973l3.64 108.284-21.053 96.804-8.37-145.516z"/><path fill="#17110b" fill-opacity=".486" d="M601.918 634.56l19.058-107.405 77.305 90.693 57.194-34.753z"/><path fill="#556b68" fill-opacity=".443" d="M898 590.6l-110.751-91.393-24.443 43.53 68.82 128.475z"/><path fill="#201d1a" fill-opacity=".957" d="M257.328 157.187l26.54 123.012L131.66 400.178 284.934 27.38z"/><path fill="#e3a884" fill-opacity=".251" d="M569.16 644.374l38.267 51.066-110.57-25.07-90.215-73.884z"/><path fill="#1c140d" fill-opacity=".741" d="M373.14 285.576l-179.72 5.13 178.877 20.217-3.45 2.8z"/><path fill="#f9fffe" fill-opacity=".137" d="M386.131 1012.096l-100.23-6.028 51.302-20.901 133.383-65.187z"/><path fill="#0c030e" fill-opacity=".522" d="M452.743 361.347l-95.331 8.66 84.492-32.594 26.72 18.357z"/><path fill="#1a1616" fill-opacity=".749" d="M685.123 347.54l40.044 113.322 40.28 61.256 18.493-203.345z"/><path fill="#104284" fill-opacity=".886" d="M343.2 546.998l-48.02 72.646 63.406 4.057 49.11 12.854z"/><path fill="#032e6f" fill-opacity=".533" d="M615.391 540.463l-40.446-29.34-22.605 133.665 60.744-79.855z"/><path fill="#d5a236" fill-opacity=".776" d="M301.515 820.277L316.33 1008l-20.963-10.461-10.418-42.936z"/><path fill="#7b2c00" fill-opacity=".322" d="M528.192 658.236l15.66 209.24-44.083-42.644.675-33.18z"/><path fill="#ce912a" fill-opacity=".984" d="M538.871 983.948l-44.435 3.71 5.343-135.888 10.213 6.746z"/><path fill="#571030" fill-opacity=".294" d="M631.54 968.805l-21.07 65.739 166.014-13.405-.279-48.513z"/><path fill="#2c1d17" fill-opacity=".749" d="M332.75 250.682l16.908.848-25.198-12.996-249.726 25.66z"/><path fill="#e0a128" fill-opacity=".675" d="M334.365 646.151l37.12-24.787-4.492 61.006-31.437 53.83z"/><path fill="#000016" fill-opacity=".282" d="M405.281 872.128l-93.42 133.151 74.357-70.095 28.082 2.152z"/><path fill="#004296" fill-opacity=".329" d="M314.252 776.807l28.204 10.62-7.51 224.894-17.656-12.891z"/><path fill="#69ceff" fill-opacity=".149" d="M272.591 470.893l-6.593 90.385-83.805-201.652 227.782 175.133z"/><path fill="#ffba28" fill-opacity=".38" d="M446.868 355.591l67.142-77.766-35.739-30.542-12.883 71.159z"/><path fill="#114691" fill-opacity=".631" d="M546.239 337.553l-133.463 25.663-188.584 125.465 141.747-36.85z"/><path fill="#082854" fill-opacity=".518" d="M229.006 555.58l83.722 6.923-46.285-34.915 10.5 204.368z"/><path fill="#0f0a00" fill-opacity=".318" d="M425.976 131.056l12.086-85.155-101.641 120.767-71.717-17.866z"/><path fill="#feb039" fill-opacity=".29" d="M801.456 674.283L767.3 536.675l-78.16 66.437 64.47-24.977z"/><path fill="#020001" fill-opacity=".329" d="M384.841 845.003l180.9-150.163 39.1 121.531-159.08-43.743z"/><path fill="#300400" fill-opacity=".322" d="M365.952 819.446l-27.594 51.133-47.014 62.828 113.909-199.79z"/><path fill="#000821" fill-opacity=".757" d="M357.332 1029.21l45.563-30.12 83.6-10.452-26.49 6.008z"/><path fill="#542011" fill-opacity=".565" d="M445.857 301.717l9.798-81.604 15.622 27.226 6.82 29.844z"/><path fill="#ffc09e" fill-opacity=".239" d="M133.237 649.265l-2.811 7.348 35.48 13.526 51.852-110.286z"/><path fill="#38352e" fill-opacity=".627" d="M439.668 228.034l388.066 115.104L898 285.776l-267.915 38.127z"/><path fill="#955f3f" fill-opacity=".365" d="M518.642 669.334l-97.947 66.188 264.914-66.756 79.348-78.88z"/><path fill="#1a1110" fill-opacity=".914" d="M99.807-62h-24.18l26.309 147.606 249.972 9.21z"/></svg>