<svg xmlns="http://www.w3.org/2000/svg" width="228" height="278" viewBox="0 0 836 1024"><path fill="#5e786a" d="M0 0h836v1024H0z"/><g fill-opacity=".502"><path fill="#fff7ff" d="M898 998L750 98l-100 988z"/><path fill="#003f21" d="M530 1086L498-2 6 678z"/><path fill="#ffa495" d="M430 102L-26 90l-36 480z"/><path fill="#eda48d" d="M794 598l104-368-424-68z"/><path fill="#058265" d="M682 458l24 576L26 90z"/><path fill="#fff2e9" d="M350 98l-52 204L158 90z"/><path fill="#510c07" d="M110-10l368 216 88-148z"/><path fill="#fff" d="M890 966L658 558l240 16z"/><path fill="#18f8c9" d="M254 902L98 598 70 730z"/><path fill="#ff95ce" d="M578 710l28 320-68-176z"/><path fill="#012b21" d="M14 502l400 584-176-748z"/><path fill="#ffddc9" d="M690 282L558 50l12 300z"/><path fill="#bcaed6" d="M-62 746l184 92-24 244z"/><path fill="#ffb5a2" d="M74 510l140-248L6 302z"/><path fill="#7e5b44" d="M562 318l336 340-20-216z"/><path fill="#653935" d="M-62 86l228-76 64 348z"/><path fill="#000600" d="M610 846l32-324-84 88z"/><path fill="#661210" d="M570 186l-80 196-228-124z"/><path fill="#89b1a8" d="M414 602l-216 24 352 84z"/><path d="M138 814l32 152-68 120z"/><path fill="#00e492" d="M714 922l-68-276-20 440z"/><path fill="#e6add6" d="M178 594l-12 148-36-88z"/><path fill="#fff3ff" d="M-62 54L158 6 34-62z"/><path fill="#ffe1f6" d="M58 550L-62 938V602z"/><path fill="#91a6c3" d="M526-62l300 372L722 58z"/><path fill="#312f49" d="M782 62L634 210l220-12z"/><path fill="#007751" d="M530 678l32 340-324 68z"/><path fill="#c1805e" d="M634 162L478 454l60-516z"/><path fill="#002003" d="M34 634v108l140 144z"/><path d="M166 774l56-336 96 84z"/><path fill="#fff" d="M166 434l40 100-36-48z"/><path fill="#a7d0ff" d="M678 1018l220 68V722z"/><path fill="#d19ea0" d="M358 78l36 140L50 402z"/><path fill="#ff9fbc" d="M546 462l-44 52 48 36z"/><path fill="#a3b5c7" d="M190 798l124 200-124-68z"/><path fill="#ba6c60" d="M710 662l-8 284 80-12z"/><path fill="#1f0600" d="M474 26l-48 72 216-20z"/><path fill="#f8e6da" d="M722 238l60 124 80-144z"/><path fill="#341409" d="M66 78l152-92 144 92z"/><path fill="#08936e" d="M338 410l364 112-108-164z"/></g></svg>