<svg xmlns="http://www.w3.org/2000/svg" width="228" height="278" viewBox="0 0 836 1024"><path fill="#606164" d="M0 0h836v1024H0z"/><path fill="#deedf4" fill-opacity=".588" d="M317.506 1086L177.79 357.351l518.155 23.694-49.493 616.996z"/><path fill="#1f1917" fill-opacity=".843" d="M-38.153 2.583L889.7-48.814l8.3 381.15-960 4.462z"/><path fill="#00000f" fill-opacity=".627" d="M-51.688 1086h315.99l.912-499.96-235.68 84.503z"/><path fill="#c1cacf" fill-opacity=".835" d="M153.576 367.18l168.222-51.918-197.5 311.372-86.021-21.644z"/><path fill="#abbdc8" fill-opacity=".965" d="M668.089 380.004l122.183 215.091-89.265 81.29L448.068 294.96z"/><path fill="#564036" d="M443.196 419.268l-106.469 2.157-73.643-281.56L492.6 200.158z"/><path fill="#2e2d2f" d="M855.087 1038.941L898-3.101 563.262 251.562l230.829 307.47z"/><path fill="#191413" fill-opacity=".706" d="M95.619 486.454L-62 800.218l34.3-836.604 401.713 47.102z"/><path fill="#d4dee4" fill-opacity=".702" d="M559.662 1021.96l179.695-188.79-475.588 37.092 8.19 205.23z"/><path fill-opacity=".22" d="M358.642 641.753l473.683 285.986 31.709-52.219-221.805-356.795z"/><path fill="#d10810" fill-opacity=".741" d="M397.587 516.083l18.54 50.045-45.576 29.093-26.912-94.664z"/><path fill="#fbffff" fill-opacity=".447" d="M724.432 462.375l-519.495-64.272-104.441 31.622 173.938 105.424z"/><path fill="#26211e" fill-opacity=".882" d="M762.87 693.645l-103.998-18.431-17.924 83.098 58.676 66.988z"/><path fill="#857f83" d="M627.833 1086h166.78l-8.839-126.83-212.326 23.713z"/><path fill="#acbcc3" fill-opacity=".718" d="M598.419 665.627L282.365 553.745l219.503 106.207 219.795 233.722z"/><path fill="#373e49" fill-opacity=".702" d="M198.98 507.98l-31.643-27.157 18.916 258.384 76.864-117.094z"/><path fill="#000002" fill-opacity=".345" d="M345.56 400.295L599.634-62H797.08L383.21 446.467z"/><path fill="#33344b" fill-opacity=".922" d="M281.699 760.652l-22.697 201.544L69.017 915.21l97.567-58.065z"/><path fill="#61686f" fill-opacity=".471" d="M838.006 281.293l-68.848 55.486-154.592-172.418 44.072-42.98z"/><path fill="#c7d4de" fill-opacity=".651" d="M478.523 310.696l185.659 78.464 53.767 61.155-307.542 137.323z"/><path fill="#191918" fill-opacity=".816" d="M503.409 166.473L898 407.624l-68.637 59.838L567.83 335.614z"/><path fill="#745648" fill-opacity=".749" d="M562.08 1026.956l262.104-232.414-7.413-254.848L613.214 1086z"/><path fill="#03140e" fill-opacity=".412" d="M597.514 607.103l-34.893-30.334 25.744-52.285 51.845 106.19z"/><path fill="#312928" fill-opacity=".878" d="M-62 193.11l324.659 134.024-88.87 43.392-68.984 75.24z"/><path fill="#001e15" fill-opacity=".176" d="M721.409 756.902L452.8 824.214l-148.02-88.178 184.628 25.436z"/><path fill="#d3dee3" fill-opacity=".565" d="M186.854 492.316l120.725-156.124 43.437 225.556-78.29 76.283z"/><path fill="#e6f4f5" fill-opacity=".643" d="M736.219 1086L722.39 956.134l-67.397 119.283 25.49-65.247z"/><path fill="#f5a584" fill-opacity=".255" d="M431.77 322.148L272.83 151.387l177.77 11.488-137.829 105.692z"/><path fill="#774d35" fill-opacity=".592" d="M-62 868.593L35.672 576.36l57.764 44.004-23.783 107.923z"/><path fill="#e1e6eb" fill-opacity=".529" d="M108.37 592.926l82.727-236.493-47.378 40.867-97.396 196.53z"/><path fill="#5a6666" fill-opacity=".561" d="M488.283 920.39l-21.327-6.023-129.377-51.76 227.38 69.954z"/><path fill="#3775aa" fill-opacity=".482" d="M614.213 653.29l-324.42-15.89-68.796-61.366 92.451 102.373z"/><path fill="#f3ffff" fill-opacity=".247" d="M683.716 819.378L285.2 796.333l-30.478 172.883 343.18-140.88z"/><path fill="#73a2c4" d="M713.152 441.743l47.716 101.801-52.937 5.6L685.089 524z"/><path fill="#f7fff6" fill-opacity=".255" d="M766.844 557.786L630.99 575.26l52.86 112.308 84.187-62.732z"/><path fill="#ca060d" fill-opacity=".4" d="M417.006 551.847l-39.344-50.499-44.178 24.688 79.326 72.573z"/><path fill="#121211" fill-opacity=".678" d="M492.684 173.867l-327.018-52.806L728.048-62 898 56.54z"/><path fill="#00488c" fill-opacity=".275" d="M585.542 397.173l-245.207-30.528 119.424 2.437 209.945 98.292z"/><path fill="#d8e2e5" fill-opacity=".537" d="M577.169 739.587l-73.247-67.948 78.495 18.554 76.559 95.222z"/><path fill="#191c22" fill-opacity=".529" d="M-62 976.153l342.242-165.658-15.85-120.127-163.552-75.67z"/><path fill="#505c5d" fill-opacity=".565" d="M370.137 981.51l117.806 32.309 26.878-.023-28.553-13.173z"/><path fill="#423836" fill-opacity=".824" d="M808.032 537.652l-40.961 69.56 95.485 181.715L898 548.497z"/><path fill="#041405" fill-opacity=".29" d="M667.053 798.813l-135.94-91.309 39.594 58.725 58.308 23.123z"/><path fill="#9c9d96" fill-opacity=".408" d="M790.107 832.627l-13.779 15.364 8.012-212.112 46.147 104.135z"/><path fill="#0325a5" fill-opacity=".302" d="M719.006 978.196L779.22 853.27l59.177-17.608-39.244 147.881z"/><path fill="#9eabb5" d="M250.246 1032.553l33.475-36.817 91.544 18.688L653.34 1086z"/><path fill="#352a27" fill-opacity=".737" d="M204.88 148.609L35.702 292.342-49.139 653.72 93.955 510.438z"/><path fill="#000609" fill-opacity=".498" d="M96.567 226.212L-62 16.422 318.204-62 260.43 50.012z"/><path fill="#d0dde2" fill-opacity=".561" d="M691.82 890.532l-83.611-62.31-85.866 210.255 131.832-95.293z"/><path fill="#d1d8dd" fill-opacity=".643" d="M447.715 401.047l-104.05 71.606-16.353-90.434L442.21 609.371z"/><path fill="#100f0e" fill-opacity=".545" d="M397.6 426.756l60.531-36.653-140.976-42.56 8.324 44.483z"/><path fill="#201e21" fill-opacity=".71" d="M407.977 303.452l249.099 30.569 126.563 245.377L898 385.663z"/><path fill="#92a0a2" fill-opacity=".69" d="M105.445 627.665l43.473-4.401 29.795-48.02-.448-128.344z"/><path fill="#000301" fill-opacity=".412" d="M65.42 950.156L-62 579.355-34.07 1086l358.541-37.091z"/><path fill="#3779b7" fill-opacity=".498" d="M216.519 390.733l-61.962 15.007 37.058-26.095 161.915-3.114z"/><path fill="#ffc9a4" fill-opacity=".224" d="M303.383 105.722l15.858 221.382 54.921-83.823-88.423 24.552z"/><path fill="#7a5342" fill-opacity=".631" d="M630.432 988.053L622.128 1086 792.87 832.124 780.492 726.14z"/><path fill="#def7fe" fill-opacity=".251" d="M440.42 652.417l-92.644 85.992-61.873-55.037 272.033 66.726z"/><path fill="#cad3da" fill-opacity=".976" d="M538.239 323.487L673.86 444.608l-182.588-75.68 17.612-42.903z"/><path fill="#45382e" fill-opacity=".776" d="M274.684 57.023l132.818-29.317 93.581 62.984L378.674-31.76z"/><path fill="#d7dbde" fill-opacity=".698" d="M189.832 360.934l116.625-40.404 6.513 45.26-145.364 22.28z"/><path fill="#19343b" fill-opacity=".443" d="M518.12 695.641l-118.414-65.638 27.365 10.642 171.868 127.41z"/><path fill="#2d2f3b" fill-opacity=".675" d="M287.43 807.15l-67.815-270.62L82.472 696.836l-28.206-53.424z"/><path fill="#dbe4e9" fill-opacity=".906" d="M563.956 1014.713l-296.44-61.234 13.515-154.614 37.597 98.797z"/><path fill="#24232b" fill-opacity=".855" d="M782.68 856.326L898 876.884V985.29l-51.975-253.112z"/><path fill="#b3bdbf" fill-opacity=".961" d="M399.34 883.237L276.46 770.39l-20.442-183.763L359.419 897.54z"/><path fill="#584236" fill-opacity=".949" d="M434.868 426.872l30.706-154.816-111.79 47.182 104.23-158.87z"/><path fill="#afbec6" fill-opacity=".776" d="M511.194 635.948l-178.808-3.43L650.244 439.2 469.462 589.294z"/><path fill="#112620" fill-opacity=".349" d="M460.724 609.065l56.174-15.687 69.24 58.265-81.238-43.477z"/><path fill="#e1f5fa" fill-opacity=".369" d="M619.62 625.515l-1.328 30.853-4.395 1.95-69.478-43.074z"/><path fill="#23332c" fill-opacity=".239" d="M682.734 555.215L631.45 583.97l64.966 145.077L556.85 543.155z"/><path fill="#596762" fill-opacity=".384" d="M314.483 731.739l173.307 115.23 1.335-14.306-169.098-111.52z"/><path fill="#fcacb4" fill-opacity=".341" d="M346.05 359.986l59.677-14.95-33.78-7.148-45.877-3.883z"/><path fill="#dfe6ea" fill-opacity=".651" d="M557.809 487.207l-17.282 31.338-328.796-37.16 63.523-75.655z"/><path fill="#c5d2d8" fill-opacity=".631" d="M580.905 411.555l114.657 173.733 3.03-129.485-540.59-17.774z"/><path fill="#c4141c" fill-opacity=".49" d="M355.245 575.77l-1.877-59.257 35.41-19.054 22.511 101.324z"/><path fill="#ffe9d8" fill-opacity=".149" d="M111.133 514.938L-62 823.345 91.292 709.937-62 739.25z"/><path fill="#5293de" fill-opacity=".471" d="M480.73 323.6l52.615 101.158-69.239-136.853-3.59 99.899z"/><path fill="#150800" fill-opacity=".302" d="M282.32 211.965l176.386 74.054-77.34 131.943 39.721-204.81z"/><path fill="#221d1c" fill-opacity=".78" d="M109.682 377.006l186.962-411.29-16.283 312.057L84.987 446.636z"/><path fill="#a4aef1" fill-opacity=".086" d="M877.568 331.439l-165.496-20.84 118.314-195.158-152.413 22.729z"/><path fill="#03100d" fill-opacity=".192" d="M550.42 941.68l-225.033-93.125 76.149 49.87 131.815 21.666z"/><path fill="#0a61ad" fill-opacity=".267" d="M744.574 536.202L606.696 417.367 369.03 338.731l243.678 92.366z"/><path fill="#252221" fill-opacity=".549" d="M749.7 461.373L508.999 262.02l326.98-82.236L617.222 320.28z"/><path fill="#597a9e" fill-opacity=".49" d="M296.205 536.812l-46.422-16.218-12.709 16.354 23.41 12.097z"/><path fill="#f2f7f9" fill-opacity=".31" d="M271.4 670.853l41.515 23.628 148.894 99.577-114.253-54.695z"/><path fill="#e3e5e8" fill-opacity=".675" d="M125.747 415.72l-17.035 154.604-42.524 33.399L108.86 464.91z"/><path fill="#dce3e7" fill-opacity=".984" d="M352.05 993.225l-88.215 6.249 13.737-28.12 20.45-1.297z"/><path fill="#1b1c1f" fill-opacity=".82" d="M728.323 749.48l-21.426-25.986-69.203 30.511 66.497 83.523z"/><path fill="#1f1b1b" fill-opacity=".529" d="M-22.623 523.456l71.178 79.531 13.563-52.683 47.869-109.495z"/><path fill="#a1acae" fill-opacity=".624" d="M427.21 934.31l-31.548-8.811-124.372-51.295 63.002 16.772z"/><path fill="#222123" fill-opacity=".851" d="M243.556 197.276l27.9 57.523 63.68 133.353 17.532-3.183z"/><path fill="#4c270e" fill-opacity=".376" d="M86.04 616.975l-111.38 92.63 109.144 3.332 56.473-75.02z"/><path fill="#4a3327" fill-opacity=".741" d="M761.106 739.445l-93.194-57.1 65.154-19.888 17.005-6.528z"/><path fill="#c2cccf" fill-opacity=".855" d="M310.143 636.007L248.09 596.99l268.844-257.24-146.847 132.512z"/><path fill="#e3f8ff" fill-opacity=".169" d="M286.742 151.572l24.67-5.268 9.058 55.503-32.967 8.142z"/><path fill="#9aa5aa" fill-opacity=".996" d="M536.393 877.116l20.152-46.736L670.743 708.5 494.944 894.39z"/><path fill="#b8c3c8" fill-opacity=".969" d="M354.214 595.426l95.174-14.123-128.058 62.403L199.795 516.04z"/><path fill="#d6e1e7" fill-opacity=".741" d="M305.535 768.617l171.213 131.925 16.698-68.64-99.751 24.18z"/><path fill="#474f55" fill-opacity=".384" d="M276.415 623.005L132.28 475.762l80.501 45.682-7.454 184.355z"/><path fill="#859699" fill-opacity=".729" d="M339.425 714.536l135.78 36.823 117.2 43.682-42.834 14.011z"/><path fill="#0765bd" fill-opacity=".255" d="M507.88 676.525l-138.4-33.837 127.07-3.557 55.41-13.973z"/><path fill="#593a2e" fill-opacity=".631" d="M558.708 1074.377l11.3-54.864 20.715-27.172 35.787-16.835z"/><path fill="#433430" fill-opacity=".553" d="M215.46 133.79l36.936 65.823L49.63 282.8-62 640.144z"/><path fill="#c1d0d8" fill-opacity=".478" d="M695.88 835.312l-49.564-72.563 37.344 122.4-261.595-83.125z"/><path fill="#899ba2" fill-opacity=".416" d="M661.097 528.972l-218.199 70.725 131.37-66.93-26.578-68.168z"/><path fill="#091201" fill-opacity=".271" d="M595.334 771.452l-36.823-25.99-94.618-85.518 76.185 52.147z"/><path fill="#f9fff6" fill-opacity=".247" d="M720.853 560.262l-67.32-107.257-76.063-101 56.902 9.483z"/><path fill="#58a9e5" fill-opacity=".424" d="M725.781 588.695l-9.9-104.849-39.826 29.987 2.727 18.947z"/><path fill="#806048" fill-opacity=".231" d="M480.736 207.42L440.45-30.642l51.13 144.897L375.79 360.64z"/><path fill="#c6d4db" fill-opacity=".635" d="M378.596 691.608l29.455.966-25.185-46.154-10.052 4.913z"/><path fill="#647db0" fill-opacity=".322" d="M839.156 950.491l-117.04-5.74 6.08 62.335L763.437 1086z"/><path fill="#808b8d" fill-opacity=".784" d="M553.628 1018.016L342.642 974.88l70.737 21.097 211.682 42.64z"/><path fill="#eaf3fa" fill-opacity=".369" d="M610.973 1037.562l-307.53-62.953 12.451 19.914L621.51 1086z"/><path fill="#0c1601" fill-opacity=".22" d="M593.111 657.342l-46.622-42.818-32.627-14.734 79.31 77.957z"/><path fill="#373c4c" fill-opacity=".6" d="M288.948 796.194l-75.297 138.389 15.576-195.633-86.29-84.441z"/><path fill="#93a1a4" fill-opacity=".612" d="M630.788 442.322l78.348 21.133 21.97.49-37.303-31.3z"/><path fill="#fcbdab" fill-opacity=".243" d="M327.385 330.821l14.488-62.407 11.075-24.803 12.724 29.159z"/><path fill="#fff2e4" fill-opacity=".129" d="M834.377 770.945l-33.17-9.908-72.91-144.088 92.848 119.08z"/><path fill="#c0c8ce" fill-opacity=".475" d="M125.907 418.78l51.988 108.983-111.963 87.696 226.474-231.957z"/></svg>