<svg xmlns="http://www.w3.org/2000/svg" width="228" height="278" viewBox="0 0 836 1024"><path fill="#687d8b" d="M0 0h836v1024H0z"/><g fill-opacity=".502"><path fill="#9ff8ff" d="M338 190l352 896H102z"/><path fill="#190100" d="M898 134L106-50-2 334z"/><path fill="#190600" d="M478 614l420-100-48 392z"/><path fill="#8ee1ff" d="M898 458L198 286 50 546z"/><path d="M494 374L694-62 366 302z"/><path fill="#372422" d="M14 1086l-52-352 308-300z"/><path fill="#5fa9d3" d="M402 978L94 498l660-236z"/><path fill="#e1f2ff" d="M718 1086l-680-80 532-156z"/><path fill="#432d26" d="M362 70L-62 34l96 512z"/><path fill="#bfc1d5" d="M518 330l368 268 12-356z"/><path fill="azure" d="M170 342l224-116L34 570z"/><path fill="#386b80" d="M182 618l4-196 480 272z"/><path fill="#685852" d="M798 26L114-22l784 328z"/><path fill="#9ce7ff" d="M706 378l-160-96-52 276z"/><path fill="#0a0802" d="M762 530l-48 284-124-208z"/><path fill="#00070d" d="M354 170l-252 16 36-248z"/><path fill="#827689" d="M86 406l56-152 324-108z"/><path fill="#beaba1" d="M726 674l64-36 44 180z"/><path fill="#8bc4ef" d="M46 922l52 164 564-232z"/><path fill="#240e03" d="M66 550L34 866l108-276z"/><path fill="#fff" d="M630 918l-84 168-316-52z"/><path fill="#0c0800" d="M530 338l8-288-136 304z"/><path fill="#ad8e82" d="M74 86l8 152-144 60z"/><path fill="#959fa3" d="M406 10l-36 108L634-10z"/><path fill="#937674" d="M518 262l100-116 280 320z"/><path fill="#7dc3ea" d="M290 586l344-88-332-244z"/><path fill="#2b2b2b" d="M858 886L606 522l-52 208z"/><path fill="#794e4c" d="M-62 1086l252-428-16 196z"/><path fill="#bd9d94" d="M82 474l-120 56 8 352z"/><path fill="#aff3ff" d="M154 590l-4-144-84 88z"/><path fill="#9a787b" d="M854 890l-308 196 156-276z"/><path fill="#76bbe3" d="M190 730l120 284 372-192z"/><path fill="#1a2b34" d="M698-62L426 166l208 12z"/><path fill="#7ae1ff" d="M650 558l48-96-4 100z"/><path fill="#001c26" d="M230 458l-48 116 72-60z"/><path fill="#1b1d20" d="M822 590l-120 64 8-156z"/><path fill="#fbffff" d="M558 898l-104 68 212 12z"/><path fill="#5b3931" d="M-50 458l200-16-48-148z"/><path fill="#436e7f" d="M506 546l-220 40 356 92z"/><path d="M326 490h56l-44 16z"/></g></svg>