<svg xmlns="http://www.w3.org/2000/svg" width="228" height="278" viewBox="0 0 836 1024"><path fill="#8a7b7a" d="M0 0h836v1024H0z"/><path fill="#291816" fill-opacity=".824" d="M7.179-62L898 13.71 184.745 399.866-62 839.858z"/><path fill="#d9d9dd" fill-opacity=".992" d="M538.434 1086l179.115-318.425-443.4-88.581L-62 1008.321z"/><path fill="#f6faff" fill-opacity=".733" d="M89.228 561.015l137.92-210.571 482.858 71.037 73.157 216.488z"/><path fill="#452e2e" fill-opacity=".902" d="M867.599 547.406L895.634-40.63 596.414 86.066 538.27 313.591z"/><path fill="#a0816f" fill-opacity=".996" d="M545.344 418.652L388.891 475.84l5.892-329.722 94.455-32.223z"/><path fill="#77050a" fill-opacity=".529" d="M667.72 741.827L-62 635.895l640.275-19.368 85.815-27.509z"/><path fill="#00050b" fill-opacity=".62" d="M238.193 540.149l22.212 47.202-19.188 154.648-122.787-13.77z"/><path fill="#ecfdfc" fill-opacity=".533" d="M609.343 1086l204.564-167.248L898 1030.565l-58.246-300.486z"/><path fill="#130e0d" fill-opacity=".518" d="M693.295 224.347L898 716.48l-252.918 19.642 138.029-79.772z"/><path fill="#03020a" fill-opacity=".729" d="M-62 437.585l34.902-145.283L396.9 244.564l1.484 79.553z"/><path fill="#c3c7c5" fill-opacity=".831" d="M120.615 1086L-62 984.42 72.476 767.576l186.62-17.03z"/><path fill="#efeef1" fill-opacity=".871" d="M596.445 632.207l-257.609-46.478L583.61 369.923l92.775 36.672z"/><path fill="#f2cbad" fill-opacity=".216" d="M898 126.38L670.678 275.364-62 233.951l933.756-107.17z"/><path fill="#c8c8cf" fill-opacity=".945" d="M709.002 700.428l-51.052-74.33 72.093-180.641 60.301 224.757z"/><path fill="#0c131a" fill-opacity=".812" d="M748.442 1008.754L793.299 1086 898 958.916l-136.028 1.718z"/><path fill="#e9ebf1" fill-opacity=".992" d="M137.217 628.056L99.739 560.05l175.933-207.317 89.376-16.343z"/><path fill="#060308" fill-opacity=".831" d="M246.923 164.681L172.767-61.174-62 30.18 92.833 190.463z"/><path fill="#3a393c" fill-opacity=".984" d="M440.471 461.54l-72.437-153.876 6.088 88.679 10.246 20.044z"/><path fill="#06070c" fill-opacity=".659" d="M599.783 229.816l-66.642 135.107-74.654 96.178 91.67-54.608z"/><path fill="#edeff4" fill-opacity=".922" d="M125.299 1086l110.88-246.715 21.03-198.464 258.42 423.093z"/><path fill="#b99370" fill-opacity=".463" d="M469.929-50.19L317.83 109.36l166.215-85.75 177.685 93.014z"/><path fill="#bb875a" fill-opacity=".396" d="M585.92 1086l270.727-360.018-290.086-4.098 27.147 92.834z"/><path fill="#b15257" fill-opacity=".992" d="M451.592 602.699l142.968 75.647-324.081-46.743-21.88-48.664z"/><path fill="#eff1f5" fill-opacity=".941" d="M533.806 589.23L360.522 386.104l5.76-60.545-119.397 239.28z"/><path fill="#3b0000" fill-opacity=".569" d="M770.58 682.524l-234.777 49.82 96.121-136.968 79.66 190.746z"/><path fill="#c5ab9b" fill-opacity=".761" d="M74.972 612.24l123.998 18.671 67.834-158.258L-62 819.98z"/><path fill="#2f080e" fill-opacity=".612" d="M86.502 189.023l21.042 407.137 83.02 62.483L-62 543.561z"/><path fill="#10181e" fill-opacity=".663" d="M865.638 448.507l-121.249 5.145L550.701 331.41l179.003-22.16z"/><path fill="#eef0f4" fill-opacity=".918" d="M570.83 358.375l-5.748-16.657L734.99 461.813 491.313 503.44z"/><path fill="#191517" fill-opacity=".816" d="M828.99 610.677l54.056 160.854-107.281-89.988-41.948 31.207z"/><path fill="#c6a58b" fill-opacity=".824" d="M456.904 308.302l-49.358-188.844-15.92 233.35 56.561 135.53z"/><path fill="#b5bac1" fill-opacity=".514" d="M730.376 780.008l-82.894-60.793-185.817 10.712 150.318 224.34z"/><path fill="#bef2e8" fill-opacity=".145" d="M189.8 267.61l-249.038-56.417 354.94-26.757 54.273 82.513z"/><path fill="#ca864f" fill-opacity=".478" d="M-62 875.503l6.54 52.304 198.432-207.811L92.56 577.168z"/><path fill="#1d0f04" fill-opacity=".631" d="M617.625 155.676L509.332 32.814l-97.62 15.34 173.776 156.893z"/><path fill="#0b0910" fill-opacity=".992" d="M101.031 530.513L84.914 295.019l206.164 27.62-104.573 69.227z"/><path fill="#afeee8" fill-opacity=".314" d="M391.444 626.991l212.282 38.852-80 5.326-187.084-38.872z"/><path fill="#9ea2a5" fill-opacity=".875" d="M637.88 563.432l-46.1 74.035 105.348-91.432-19.026 163.21z"/><path fill="#12141b" fill-opacity=".871" d="M130.35 698.319l41.674-67.616 71.054 9.355 1.042 88.353z"/><path fill="#eaedf8" fill-opacity=".525" d="M426.484 657.41l50.766 27.29-306.996 259.302 365.577-73.846z"/><path fill="#625e5e" fill-opacity=".992" d="M779.249 472.541l73.612-8.59 40.634 84.318-115.352 15.626z"/><path fill="#9b998c" fill-opacity=".561" d="M78.837 782.72l157.273 29.146 14.36-77.266-137.644-12.867z"/><path fill="#0f0809" fill-opacity=".455" d="M459.823 441.412l149.41-129.005-37.346-93.292-59.519 225.613z"/><path fill="#720000" fill-opacity=".455" d="M456.493 714.797l138.56-94.59 75.42 66.596-114.63 44.133z"/><path fill="#9c765f" fill-opacity=".718" d="M452.857 274.062l101.84-138.669L537.66 377.93l-95.757 48.26z"/><path fill="#5a3f3c" fill-opacity=".612" d="M560.028-62l145.45 50.141-20.488 306.212-51.058 88.626z"/><path fill="#a1242a" fill-opacity=".565" d="M286.083 586.983l-80.631-32.354 123.25 141.02 133.005 8.67z"/><path fill="#1f0b00" fill-opacity=".247" d="M412.933 141.551l152.005 50.676-260.517-5.523L465.423 15.378z"/><path fill="#16161a" fill-opacity=".702" d="M340.77 190.688L194.807 22.078l199.808 219.806-2.964 170.341z"/><path fill="#270e15" fill-opacity=".933" d="M-9.188 343.517L72.01 623.724-47.895 749.807-62 747.069z"/><path fill="#c7c8c7" fill-opacity=".894" d="M736.36 1068.206l-9.485-133.069 6.574-31.278-115.562 152.8z"/><path fill="#cb9548" fill-opacity=".353" d="M562.722 575.828l-33.705 1.416-10.276-70.298 64.313 11.924z"/><path fill="#f1eff6" fill-opacity=".475" d="M758.077 598.996l-85.232 106.26 116.49-53.027L746.39 502.4z"/><path fill="#a8bfff" fill-opacity=".216" d="M713.085 200.728l59.355 33.81 18.559-112.887-47.458-1.233z"/><path fill="#ae7145" fill-opacity=".522" d="M735.488 709.02l60.821-9.199-31.408 155.42L583.91 1086z"/><path fill="#edeef4" fill-opacity=".878" d="M166.477 468.262l46.174-88.877 231.004 75.567-125.958 140.697z"/><path fill="#080b11" fill-opacity=".686" d="M745.946-57.306L791.03-62 757.173 84.082l-66.19 23.879z"/><path fill="#672524" fill-opacity=".584" d="M762.027-62L898 191.34l-342.784 83.957 284.517 57.793z"/><path fill="#e1a185" fill-opacity=".545" d="M510.798 1086h43.781L726.57 816.69l6.233-56.593z"/><path fill="#606266" fill-opacity=".506" d="M317.937 512.121l13.118 4.238-34.403-35-16.91 15.263z"/><path fill="#12151c" fill-opacity=".686" d="M738.21 469.515l-76.364-118.912 110.528-39.94-8.446 222.95z"/><path fill="#cc0211" fill-opacity=".478" d="M443.732 607.533L295.25 588.575l154.157 49.753 159.451 3.033z"/><path fill="#fca784" fill-opacity=".133" d="M517.576 42.894l83.378 55.344L607.974-62 193.28 11.975z"/><path fill="#220004" fill-opacity=".427" d="M565.289 629.51l82.832-11.611 30.802 79.864-2.807 29.48z"/><path fill="#e5e8f0" fill-opacity=".6" d="M146.97 459.262l-47.36 122.18 43.943 44.793 30.084 3.203z"/><path fill="#461820" fill-opacity=".992" d="M71.59 394.776l33.676 196.245-81.686 33.101 27.656-244.24z"/><path fill="#2c0008" fill-opacity=".455" d="M491.56 255.195l-63.697 25.341 44.11.971 20.844 1.92z"/><path fill="#deaa98" fill-opacity=".576" d="M407.11 194.382l-36.215 24.076 145.577 10.923 48.691-33.382z"/><path fill="#b58688" fill-opacity=".706" d="M300.836 642.753l12.878 8.799-7.652-61.16-48.728 134.834z"/><path fill="#632710" fill-opacity=".604" d="M32.689 286.764l84.177-49.47-37.553-49.754-41.519-9.555z"/><path fill="#eff0f5" fill-opacity=".584" d="M168.819 425.936l188.795 85.362 15.322-181.494-136.24 31.954z"/><path fill="#4c5c65" fill-opacity=".486" d="M770.805 969.809l100.824-13.787-136-14.993 15.306 116.071z"/><path fill="#f0f2f7" fill-opacity=".678" d="M316.297 492.518l389.941-69.071 44.088 168.344-44.43-78.341z"/><path fill="#d9a583" fill-opacity=".58" d="M-62 800.761l35.787 56.526L103.208 614.93l-8.898-24.348z"/><path fill="#757871" fill-opacity=".482" d="M365.552 181.64l-29.598-92.53.522 150.75-240.56-8.107z"/><path fill="#b9b8bd" fill-opacity=".592" d="M365.777 918.73l153.145-24.199 73.47 102.92 2.032-45.201z"/><path fill="#ced3d4" fill-opacity=".561" d="M721.22 915.211l102.435 32.468 30.531-75.064-51.815-76.971z"/><path fill="#e5c1a1" fill-opacity=".694" d="M401.697 307.873l-3.98 66.82 26.14 37.822 32.851-54.398z"/><path fill="#000b18" fill-opacity=".42" d="M438.922 438.155l-1.66 17.035-43.358-30.134-37.127-76.477z"/><path fill="#47361e" fill-opacity=".427" d="M420.512 295.57l46.816 74.02 25.197-33.208-70.946-12.264z"/><path fill="#9a060d" fill-opacity=".718" d="M420.68 699.198l-86.87-12.738 33.891-44.705 65.683 21.484z"/><path fill="#23191c" fill-opacity=".898" d="M206.095 669.447l-80.874-34.815-66.506-86.597 50.35 53.48z"/><path fill="#150a04" fill-opacity=".533" d="M442.755 37.637l-108.359 84.19 242.878-44.393 14.894 126.052z"/><path fill="#82593a" fill-opacity=".612" d="M623.81 1011.611l37.993-19.107 120.2-176.336-19.02-3.949z"/><path fill="#004838" fill-opacity=".184" d="M629.705 787.295l43.8-238.084-58.512 40.137L696.68 723.86z"/><path fill="#00020a" fill-opacity=".42" d="M612.353 290.524L435.414 470.292l117.242-82.447 28.784-89.26z"/><path fill="#ebecf0" fill-opacity=".741" d="M619.386 431.244l-183.398 23.275 36.82-42.416-39.619 81.511z"/><path fill="#5f2c30" fill-opacity=".376" d="M232.596 521.954l53.413 115.98-21.954 2.885-62.764-70.46z"/><path fill="#b7bbc0" fill-opacity=".91" d="M720.057 626.376L684.23 525.6l-12.198 169.889 22.621 4.426z"/><path fill="#262228" fill-opacity=".463" d="M227.448 168.135L139.635-62 251.057 90.425l156.55 155.16z"/><path fill="#f1f3f7" fill-opacity=".749" d="M169.378 1034.785l54.508-131.24 334.55 48.85-43.746 51.837z"/><path fill="#cbcfd1" fill-opacity=".616" d="M236.582 803.846L2.784 857.993-15.352 1086l174.442-54.021z"/><path fill="#c9a682" fill-opacity=".31" d="M558.955 165.254l-5.245 101.94-24.95 120.624-38.308-133.23z"/><path fill="#8c6646" fill-opacity=".765" d="M157.34 656.682l-29.64-27.206-57.711 33.855 5.853 50.855z"/><path fill="#e2e3ee" fill-opacity=".608" d="M279.635 690.93l-7.253 154.428 203.971 75.41-35.845-215.45z"/><path fill="#020c10" fill-opacity=".659" d="M685.59 717.113l48.241.417 42.866-26.218-142.814 17.517z"/><path fill="#8f4d51" fill-opacity=".502" d="M143.227 464.191l11.182 38.466 21.573-71.183L56.024 549.187z"/><path fill="#bf6a89" fill-opacity=".337" d="M898 336.724l-90.96-66.498 7.757-26.223 65.615-72.454z"/><path fill="#becada" fill-opacity=".545" d="M623.344 556.741l-79.234 67.858 73.408-3.699 13.216-4.527z"/><path fill="#979391" fill-opacity=".482" d="M549.227 676.086l28.507-10.126 3.797-13.975-96.588 3.473z"/><path fill="#321d1b" fill-opacity=".51" d="M535.315 345.225L898 331.927 655.961 283.75l-109.244 1.755z"/><path fill="#c89c85" fill-opacity=".686" d="M368.4 199.45l161.502 76.064-84.973-23.417 21.144 86.044z"/><path fill="#653d2f" fill-opacity=".404" d="M545.216 152.821l-73.455 91.794 24.493 19.77L478.55 99.776z"/><path fill="#d6dbd7" fill-opacity=".278" d="M410.087 675.47l66.304 30.549 29.412-19.12-93.96-12.24z"/><path fill="#54534a" fill-opacity=".302" d="M241.511 759.863l8.788 3.707-145.09-34.232 150.1-33.203z"/><path fill="#d6a38e" fill-opacity=".525" d="M502.386 155.087l-107.914 89.184 111.206-11.938-57.657-100.996z"/><path fill="#eaecf2" fill-opacity=".639" d="M242.56 452.807l303.924 6.45-230.995-15.832 74.777-131.26z"/><path fill="#a9a59c" fill-opacity=".671" d="M898 700.345l-92.087 57.92-24.656-83.242L798.72 834.98z"/><path fill="#5d2a24" fill-opacity=".631" d="M255.63 77.162l110.28-29.149 94.495-67.684L171.055-62z"/><path fill="#04090e" fill-opacity=".286" d="M270.13 359.69L-62 281.585l301.695-30.158 162.89 63.574z"/><path fill="#efba94" fill-opacity=".231" d="M395.277 190.277l58.026 147.2-29.813-234.91-15.746 10.896z"/><path fill="#eeeff4" fill-opacity=".612" d="M756.704 510.653l-37.494-55.481-.33-21.391-216.385 3.95z"/><path fill="#313551" fill-opacity=".314" d="M705.33-61.173L536.864 36.423 495.488-62l220.19 259.726z"/><path fill="#c5cfe0" fill-opacity=".431" d="M133.907 617.665l57.196 19.286 1.067-63.194 85.055-159.903z"/><path fill="#f2f2f6" fill-opacity=".863" d="M294.985 586.384l85.355 9.223 221.775-194.961-353.12 152.547z"/><path fill="#a9383e" fill-opacity=".58" d="M278.489 692.77l-24.653-80.08 99.994 95.256.222-121.216z"/><path fill="#850010" fill-opacity=".376" d="M805.564 260.923L898 325.586l-176.377-21.829 21.24-48.221z"/><path fill="#0c060c" fill-opacity=".702" d="M23.736 458.028l36.338-173.364L-62 259.632 16.759 710z"/><path fill="#74513f" fill-opacity=".376" d="M701.312 271.432l-160.653-23.64 322.694-133.384L832.058-62z"/><path fill="#311f13" fill-opacity=".325" d="M455.552 194.42L405.078 36.591l138.432-3.523-130.229 144.703z"/></svg>