<svg xmlns="http://www.w3.org/2000/svg" width="228" height="278" viewBox="0 0 836 1024"><path fill="#784e4d" d="M0 0h836v1024H0z"/><g fill-opacity=".502"><path fill="#ef1123" d="M554 1086l52-836L38 694z"/><path fill="#003d4a" d="M78-26L-62 678 546 14z"/><path fill="#86a78b" d="M898 446L182 242 830-62z"/><path fill="#f46674" d="M498 690l160-356-492-36z"/><path fill="#001400" d="M898 394l-356 60 248 180z"/><path fill="#92bda2" d="M898 650l-260 372-44-388z"/><path fill="#a90005" d="M242 366L142 978l400-776z"/><path fill="#000f0b" d="M898 874l-112 212-168-248z"/><path fill="#00060e" d="M30 1086l-92-300 308 140z"/><path fill="#a6d7bb" d="M142 830l-204-16L58 538z"/><path fill="#000c00" d="M174 510l-236 36L186-62z"/><path fill="#d6e8e6" d="M626 498L338 626l16-104z"/><path fill="#5a86c0" d="M190 414l72-476 200 8z"/><path fill="#1a6fe6" d="M486-54l204-8-56 284z"/><path fill="#002241" d="M534 946l-12-248 176 388z"/><path fill="#77c3c7" d="M198 826l192 128-124 132z"/><path fill="#9f0001" d="M618 618L390 950 134 606z"/><path fill="#d7e8e3" d="M414 610l136 4 40-116z"/><path fill="#202004" d="M366 74l172 232-60 80z"/><path fill="#7fb0b2" d="M146 82L78-62-62 106z"/><path fill="#ffe54d" d="M898 202l-120 4 32-268z"/><path fill="#ed2a40" d="M146 514l160-208 300 180z"/><path d="M498 6L378 78l208 8z"/><path fill="#74968e" d="M210 386l-272-12 448-104z"/><path fill="#3d0000" d="M350 434L210 682l136-28z"/><path fill="#d10000" d="M166 878l84 132-92 76z"/><path fill="#c2bad6" d="M234 426L118 598l84-20z"/><path fill="#a30000" d="M442 558l176 172-36 160z"/><path fill="#7f99a0" d="M886 426l-264-24-92-320z"/><path fill="#efd24f" d="M754-42l-96 20 56 228z"/><path fill="#313200" d="M742-62l12 260 48-124z"/><path fill="#061501" d="M618 406l280 56-320 124z"/><path fill="#001316" d="M98 478L26 122l196-60z"/><path fill="#c80000" d="M538 590l-28-28 36-104z"/><path fill="#a3bdbc" d="M894 862l-284-48 288-44z"/><path fill="#efee7c" d="M674 1086l-32-172 48-8z"/><path fill="#8ccbff" d="M202 930l76-88-84 12z"/><path fill="#b7c5d3" d="M682 718l-108-72 324 28z"/><path fill="#00272a" d="M154 1086L-62 874l220-56z"/><path fill="#d81022" d="M78 726l384 32 144 328z"/></g></svg>