<svg xmlns="http://www.w3.org/2000/svg" width="228" height="278" viewBox="0 0 836 1024"><path fill="#e6e0de" d="M0 0h836v1024H0z"/><g fill-opacity=".502"><path fill="#872c03" d="M278 58L550-62 450 542z"/><path fill="#576072" d="M610 1058L6 878l752 20z"/><path fill="#fff" d="M498 298L822-62l68 1148zm-156 0L6-62l-40 1148z"/><path fill="#c67f5f" d="M330 470l236-64-268-304z"/><path d="M422-30L318 58h200zM118 894l68-8-12 108z"/><path fill="#2d0000" d="M646 1022l68-104-88-56z"/><path fill="#fff" d="M454-62l404 736 40-736zM346-30L-62-62l40 1088zM334 974l288-12 56 124z"/><path fill="#fbfdff" d="M186 394l536 152-536 360z"/><path fill="#274471" d="M246 658l-32 68 84-12z"/><path fill="#cf8c73" d="M278 162l308 12-216 296z"/><path fill="#5d7491" d="M478 810l-172-24 176 88z"/><path fill="#a8a091" d="M538 626l108 292 28-188z"/><path fill="#3d2115" d="M530 58L378-50l164 204z"/><path fill="#cf9779" d="M454 510l88-164-228 76z"/><path fill="#fff" d="M898 482L634-62 494 502z"/><path fill="#718aa7" d="M222 862v108h268z"/><path fill="#f8f9fb" d="M494 590L314 418l-80 568z"/><path fill="#fff" d="M898 758v328l-276-40z"/><path fill="#000028" d="M54 862l52 44 44-4z"/><path fill="#fff" d="M898 302L450-6l392-36z"/><path fill="#4c2714" d="M646 942l-8 72 160-152z"/><path fill="#fff" d="M22 1002L-62-22 330-6z"/><path fill="#fff" d="M230 1086l-292-92L90 894z"/><path fill="#5d1a00" d="M314 362l24-8v76z"/><path fill="#680000" d="M170 986l16-76-52-4z"/><path fill="#f4f9fb" d="M510 890l-228 8-136-96z"/><path fill="#001043" d="M358 786v52l28 44z"/><path d="M334 46l76-40 96 36z"/><path fill="#fff" d="M-62-46l308 720 84-388z"/><path fill="#f9fbf8" d="M162 1022l60-64-8-132z"/><path fill="#895947" d="M474 458l52-60-28-72z"/><path fill="#371b04" d="M350 26l-44 48-4 88z"/><path fill="#00001c" d="M294 958l-16-16 4-48z"/><path fill="#000026" d="M226 930l44 36-44-8z"/><path fill="#001542" d="M418 970l-12-76 20 28z"/><path fill="#00001c" d="M226 886l-8-20 40 16z"/></g></svg>