<svg xmlns="http://www.w3.org/2000/svg" width="228" height="278" viewBox="0 0 836 1024"><path fill="#6f8ca3" d="M0 0h836v1024H0z"/><g fill-opacity=".502"><path fill="#8ae9ff" d="M898 1018l-644 68-40-936z"/><path fill="#001552" d="M94 818L62-62l224 660z"/><path fill="#463219" d="M898 226L854-62-62 6z"/><path fill="#0047b7" d="M522 998L302 182l236 404z"/><path d="M-62 990l324-112-40 208z"/><path fill="#dff" d="M666 426l-72 660-124-772z"/><path fill="#fcd5d0" d="M614 122l-676 92L150 62z"/><path fill="#792b00" d="M302 366l160 52-80-480z"/><path fill="#004bcf" d="M482 254l260 76 28 336z"/><path fill="#fff87d" d="M898 1022l-212 4-24-404z"/><path fill="#866831" d="M898 750L682 510l20 440z"/><path fill="#0087ec" d="M122 434l276 476-148-560z"/><path fill="#d19064" d="M26 1006l-88-416 200-160z"/><path fill="#fff6ff" d="M242 414l136 4 72 464z"/><path fill="#f4e2fc" d="M282 642l32 244-248 8z"/><path fill="#0a0000" d="M190 178L-18 434l176 8z"/><path fill="#0087f6" d="M558 1086L438 970l88-364z"/><path fill="#fff" d="M338 1086l108-32-4-364z"/><path fill="#0080f0" d="M506 294L374 450l92 348z"/><path fill="#002752" d="M294 654l196 28 96-92z"/><path fill="#a4e1ff" d="M466 374l196 24 44 644z"/><path fill="#e3d6ff" d="M190 426l136-136L214 46z"/><path fill="#1c1622" d="M-30 838l40-280 72 84z"/><path fill="#502b1b" d="M550 82L94-62-58 74z"/><path fill="#00197d" d="M194 810L66 682l160-260z"/><path fill="#cb8c5b" d="M586 274l-332-68 88-144z"/><path fill="#000b56" d="M666 530l128 192-120-384z"/><path fill="#576d6e" d="M358-62l500 568-4-400z"/><path fill="#d08842" d="M62 702l120 52-244 316z"/><path fill="#eef1ff" d="M86 470l52-12-44 196z"/><path fill="#00002e" d="M-62 1046l324-12L86 910z"/><path fill="#008ef4" d="M302 1086l8-468 80 308z"/><path fill="#0094ff" d="M282 338L94 466l260-76z"/><path fill="#008cf9" d="M574 390l88-112 176 292z"/><path fill="#c18a5b" d="M742 590l140-132-16 588z"/><path fill="#fff" d="M686 1034l-136 52V874z"/><path fill="#0096ff" d="M630 738l-20 228 60-4z"/><path fill="#bfc8eb" d="M274 50l-324 76 324 96z"/><path fill="#fff" d="M238 998l40 56 28-220z"/><path fill="#1f1414" d="M150 434l60-216-164-4z"/></g></svg>