<svg xmlns="http://www.w3.org/2000/svg" width="228" height="278" viewBox="0 0 836 1024"><path fill="#61556a" d="M0 0h836v1024H0z"/><g fill-opacity=".502"><path fill="#ffd" d="M454 22L2-62l-36 332z"/><path fill="#000030" d="M698 1086l-44-756-452 608z"/><path fill="#b8c1a8" d="M290 770L-46 598l20 468z"/><path fill="#de9247" d="M446-62L138 182l308 140z"/><path fill="#000013" d="M666 418l232 328-76 340z"/><path fill="#cdb9dd" d="M494 390L202 554l344-8z"/><path fill="#160736" d="M182 554h484l-284 504z"/><path fill="#8c9fbd" d="M746 462l152-332-336 164z"/><path fill="#989b98" d="M270 642l16 444-116-196z"/><path fill="#b5b664" d="M726 598l60 320-100-4z"/><path fill="#432288" d="M210 310l368 196-468-16z"/><path fill="#190f00" d="M494 150l92-192-164 52z"/><path d="M522 566l92-156 148 180z"/><path fill="#a8a9a6" d="M134 234L26 414l276-136z"/><path fill="#2c105f" d="M346 322l156-72 308 312z"/><path fill="#211548" d="M150 730l-16-304 200 232z"/><path fill="#8693a7" d="M206 614L-62 754 74 502z"/><path fill="#e0dfd7" d="M-62 238L466-62l-308 8z"/><path fill="#c6c2d0" d="M206 486l52 84 280-60z"/><path fill="#0a001e" d="M782 1086l112-152-132-396z"/><path fill="#e9774b" d="M142 734l28 108 128-88z"/><path fill="#0e3a2d" d="M230 946l-128 140-20-164z"/><path fill="#ba9180" d="M238 142l352 152 40-108z"/><path fill="#455152" d="M662-54l132 540-200-248z"/><path fill="#5f2800" d="M454 322l-168-56 64 104z"/><path fill="#ffdab6" d="M518 390l-44 108-32-76z"/><path fill="#8f99a5" d="M702 302L842-62l56 432z"/><path fill="#402669" d="M822 1070l-440 16 176-376z"/><path fill="#764fce" d="M554 382l-56-140 184 92z"/><path fill="#8e997b" d="M710 866l-48-312 100 112z"/><path fill="#73775f" d="M294 74L-62 286 58 430z"/><path fill="#fff" d="M402 38h36l20 68z"/><path fill="#fff6f4" d="M262 402l8 36h-52z"/><path fill="#bf7131" d="M350 82l-40 272-60-312z"/><path fill="#8d6fc5" d="M770 474l128 464V682z"/><path fill="#1a1a2a" d="M286 542L154 670l56 64z"/><path fill="#86a895" d="M278 682l-40-84-16 100z"/><path fill="#331c69" d="M402 510l-124-60 232-172z"/><path fill="#4b3a36" d="M454 210L846-62 466 6z"/><path fill="#5f3822" d="M174 846l12-56 112-12z"/></g></svg>