<svg xmlns="http://www.w3.org/2000/svg" width="228" height="278" viewBox="0 0 836 1024"><path fill="#855d5e" d="M0 0h836v1024H0z"/><path fill="#f3a0ae" fill-opacity=".757" d="M-62 584.719l87.28 361.427 581.354-593.548-280.926-63.883z"/><path fill="#0b0c0f" fill-opacity=".878" d="M167.353 829.24l476.904 70.127L740.607 1086H237.343z"/><path fill="#19301e" fill-opacity=".835" d="M325.68 32.81l550.414 104.03L898 436.63l-250.41-1.296z"/><path fill="#032914" fill-opacity=".706" d="M-62 433.19V105.31l348.722 5.71-86.718 343.148z"/><path fill="#ec8288" fill-opacity=".78" d="M586.39 877.364l119.012-408.372 148.408-3.715 5.18 402.206z"/><path fill="#98e0db" fill-opacity=".659" d="M-42.831-56.949l-17.963 146.15 321.54-13.875L444.878-60.656z"/><path fill="#ad0428" fill-opacity=".396" d="M350.579 918.644l344.677-424.621-735.5-48.684L288.19 576.005z"/><path fill="#8ff6ec" fill-opacity=".549" d="M876.82 78.33l-343.607-7.319L333.633-62 898-25.279z"/><path fill="#f5c8c1" fill-opacity=".863" d="M172.46 986.374l-49.354-47.66-60.44-1.605L-38.744 1086z"/><path fill="#efebff" fill-opacity=".514" d="M241.656 462.16L205.52 332.195l331.214 55.746-20.35 141.81z"/><path fill="#de4865" fill-opacity=".973" d="M712.988 499.078l-188.974-167.58-191.847 81.682-17.156-135.063z"/><path fill="#c0d2fa" fill-opacity=".369" d="M437.116 478.833l27.228 428.724-108.197-390.79 203.41 370.228z"/><path fill="#6d0008" fill-opacity=".804" d="M406.828 627.159L572.999 1086 420.085 492.878l-22.594 13.04z"/><path fill="#caa9c2" fill-opacity=".937" d="M402.932 883.442l-26.15-139.553-96.69-335.592 97.546 457.132z"/><path fill="#8a0415" fill-opacity=".894" d="M486.104 600.836l11.849 131.352L651.99 489.522 563.535 377.35z"/><path fill="#fbf3f7" fill-opacity=".439" d="M272.594 555.358L148.677 827.652-.916 801.758-62 680.18z"/><path fill="#e19ca8" fill-opacity=".984" d="M810.695 614.788L758.98 842.24 645.456 456.62l81.843 25.574z"/><path fill="#c97f79" fill-opacity=".992" d="M735.146 745.65l43.254 340.12-180.755-316.29-51.701-161.52z"/><path fill="#ffd9db" fill-opacity=".361" d="M288.185 104.726l203.457 50.717-256.83 174.393 88.287 237.088z"/><path fill="#b3001e" fill-opacity=".831" d="M332.824 592.131l-4.827-134.657 34.563-5.22 9.663 158.352z"/><path fill="#6f0513" fill-opacity=".922" d="M608.89 897.326l-53.007-166.754-94.212-207.04L564.53 887.08z"/><path fill="#d5647a" fill-opacity=".988" d="M329.616 788.802l-53.128-195.167-61.233 185.156 109.995 71.253z"/><path fill="#e2e2f1" fill-opacity=".702" d="M583.15 352.99L362.134 480.987l23.747 173.436 18.217-269.416z"/><path fill="#291419" fill-opacity=".635" d="M695.682 549.444L528.871 650.557l-72.384-67.285 200.832 57.901z"/><path fill="#18111a" fill-opacity=".878" d="M403.59 905.429l-291.991 7.264 96.317 59.387 4.024-188.467z"/><path fill="#e7626c" fill-opacity=".937" d="M304.304 501.878L49.688 641.32l37.454-117.635L-62 451.1z"/><path fill="#344431" fill-opacity=".937" d="M613.606 161.91L448.86 347.243 466.643 83.59l427.355 15.517z"/><path fill="#ed0f1c" fill-opacity=".361" d="M781.953 523.64l-109.624-75.852L898 442.81l-68.7 468.844z"/><path fill="#0f0f14" fill-opacity=".859" d="M606.254 1086l35.38-227.582-108.92 27.467-400.22-47.054z"/><path fill="#b00e22" fill-opacity=".957" d="M335.967 672.389l-65.9-207.412 72.064 412.544 22.383-46.44z"/><path fill="#f9002b" fill-opacity=".447" d="M737.544 629.374l-145.473-263.4-34.464 15.204-30.28 75.086z"/><path fill="#f2ebf7" fill-opacity=".804" d="M270.428 310.484L409.14 482.31l-196.915-96.257 9.239-39.386z"/><path fill="#d0c5e4" fill-opacity=".565" d="M480.99 875.952l-39.685-139.925-83.73-238.14 102.882 395.88z"/><path fill="#d00422" fill-opacity=".847" d="M276.303 573.772l18.77 260.954-37.337-81.614 17.196-78.763z"/><path fill="#e7ddec" fill-opacity=".851" d="M416.682 486.038l66.524-184.786 57.164 7.948-219.388 122.97z"/><path fill="#1f3326" fill-opacity=".855" d="M-62 419.741l320.659-272.158 49.24 132.189L97.772 388.365z"/><path fill="#e5d6f0" fill-opacity=".549" d="M284.168 632.633l23.598 215.566 12.395-52.865-9.335-126.939z"/><path fill="#f06346" fill-opacity=".306" d="M256.169 1086L-44.02 834.106 406.664 1086l.886-147.5z"/><path fill="#ae99aa" d="M477.094 724.03L461.867 588.8l15.3-186.607-55.895 41.65z"/><path fill="#f4c1cc" fill-opacity=".58" d="M87.56 500.131l-10.894-17.986L-62 495.877l60.45 307.57z"/><path fill="#5e8c6d" fill-opacity=".576" d="M428.665 25.248L476.758-62l.877 169.868L898 104.089z"/><path fill="#8f0213" fill-opacity=".894" d="M356.993 562.329l-33.21-23.312 99.148 359.557 20.285-72.894z"/><path fill="#7c3e3f" fill-opacity=".69" d="M243.501 472.165l-27.752-82.037-20.358 31.745L-62 447.905z"/><path fill="#498565" fill-opacity=".592" d="M185.037 46.95l60.07 27.081 52.655 41.712-359.762.963z"/><path fill="#156300" fill-opacity=".388" d="M845.41 1079.256l-122.043-226.37-23.569 33.927L898 920.094z"/><path fill="#587128" fill-opacity=".639" d="M75.732 915.404L30.789 883.2 7.654 895.8l-27.615 155.051z"/><path fill="#1d3021" fill-opacity=".745" d="M442.504 232.566l227.99 203.546L898 251.801 513.975 111.745z"/><path fill="#d0c1e4" fill-opacity=".596" d="M527.81 862.906l1.476 24.156 26.377-35.15-69.772-178.173z"/><path fill="#ba6f74" fill-opacity=".984" d="M444.81 270.47l-183.295 27.027 108.278 60.254 84.439-2.72z"/><path fill="#ebe5ff" fill-opacity=".494" d="M187.586 887.916l-8.541-32.411-78.503 41.81 59.84-.813z"/><path fill="#340900" fill-opacity=".302" d="M336.633 172.904L281.85 30.114l71.071-4.225 110.765 9.492z"/><path fill="#fbdaff" fill-opacity=".349" d="M533.046 628.555l73.384 80.672 31.717-25.554-51.697-68.486z"/><path fill="#e9d1e1" fill-opacity=".992" d="M252.452 499.82l82.871-94.523-26.25 176.961-26.769-238.598z"/><path fill="#ff0142" fill-opacity=".627" d="M554.175 322.584l-.886 15.593-65.457 49.585 1.356-62.93z"/><path fill="#bf0028" fill-opacity=".784" d="M182.801 951.139l-64.577-32.607-18.555.307 226.282 164.143z"/><path fill="#f7002d" fill-opacity=".557" d="M314.29 301.6l31.79 56.77 100.674-1.477-95.264 63.15z"/><path fill="#55090f" fill-opacity=".518" d="M462.166 525.91l196.07 21.264-81.388 65.874-66.818 140.38z"/><path fill="#efeefc" fill-opacity=".616" d="M527.274 392.776l16.938 26.671-38.091 86.776-62.285-154.358z"/><path fill="#800010" fill-opacity=".753" d="M463.769 719.747l34.224 4.32 6.058 98.01-20.968 110.245z"/><path fill="#ff0935" fill-opacity=".349" d="M646.6 792.095l-107.772 28.497 44.012-103.125 73.204 3.76z"/><path fill="#c54b3f" fill-opacity=".459" d="M771.02 805.426l36.533-81.852 66.19 150.841-262.247 58.544z"/><path fill="#09080d" fill-opacity=".647" d="M256.38 1017.8L133.322 905.79l228.247-43.227 242.077 36.303z"/><path fill="#4a6832" fill-opacity=".776" d="M473.43 1026.127L397.12 968.4 203.494 1086l275.834-15.454z"/><path fill="#ddd3fd" fill-opacity=".322" d="M603.158 872.7l96.282-43.642-151.38-52.72 32.6-2.07z"/><path fill="#eee7f2" fill-opacity=".976" d="M314.45 297.842l-56.95 90.72 171.222 105.374L321.601 376.64z"/><path fill="#bc001c" fill-opacity=".62" d="M298.007 619.726l22.277 26.975-57.51-152.727 39.07-35.827z"/><path fill="#8b5747" fill-opacity=".91" d="M485.44 489.643l-35.484 11.368-25.775-23.636 44.75-7.179z"/><path fill="#de716b" fill-opacity=".631" d="M79.727 850.196l68.34 54.926L-62 901.839l192.38-124.246z"/><path fill="#d39085" fill-opacity=".761" d="M782.563 1086l-97.097-141.007 82.557-14.97 29.138 94.694z"/><path fill="#ab6561" fill-opacity=".514" d="M342.228 136.387l94.047 136.16 45.277-126.807L331.4 96.937z"/><path fill="#7e6c85" fill-opacity=".486" d="M544.369 697.426l38.14-21.004-76.203-119.46 12.949-66.567z"/><path fill="#950012" fill-opacity=".627" d="M313.93 796.716l-42.64 52.55-1.429-70.795 17.285-10.71z"/><path fill="#daa5a5" fill-opacity=".984" d="M385.82 164.383l-101.15 2.364 2.868 31.462 62.728-5.573z"/><path fill="#467d63" fill-opacity=".463" d="M727.053 71.833L898 34.167l-36.083 231.515-65.466-130.738z"/><path fill="#6e2b33" fill-opacity=".839" d="M274.738 586.091l-69.365-191.324-69.945-133.824 120.923 228.342z"/><path fill="#001316" fill-opacity=".518" d="M630.835 655.062l44.687-111.583-42.927 46.886-46.663 25.75z"/><path fill="#ede2ee" fill-opacity=".976" d="M390.255 453.036l142.112-97.763 56.073 6.492-212.077 66.574z"/><path fill="#b70022" fill-opacity=".525" d="M395.013 576.61l37.298-60.387-43.92-36.966 3.779 81.24z"/><path fill="#e3dbe9" fill-opacity=".702" d="M233.437 437.033l-7.082-114.758 37.833 114.076 6.143 96.788z"/><path fill="#f5d0d3" fill-opacity=".282" d="M172.806 444.539l45.205 1.023 68.639 159.656-17.348-24.74z"/><path fill="#ca8e84" fill-opacity=".588" d="M150.237 970.613l-19.88-35.575 101.983 90.822L-18.795 1086z"/><path fill="#e4edfd" fill-opacity=".18" d="M788.442 772.137l-57.073 84.658 3.439-316.604 77.478 83.88z"/><path fill="#afd3d8" fill-opacity=".396" d="M-62 77.647l245.64-49.124L443.268 14.43 81.503-62z"/><path fill="#a3000f" fill-opacity=".757" d="M665.655 537.611l-29.168 36.422-48.954 15.746-40.643-148.54z"/><path fill="#a4ccd3" fill-opacity=".502" d="M497.73 18.194l15.575-79.365L898 18.075 720.666 55.332z"/><path fill="#b00026" fill-opacity=".639" d="M502.497 297.69l-8.406-24.764-44.913 82.655-85.586 30.5z"/><path fill="#8d774e" fill-opacity=".392" d="M659.33 593.377l83.784 238.358-113.575 77.54 63.772 53.052z"/><path fill="#ccf4ff" fill-opacity=".455" d="M268.146 755.644L261.52 824.7l-17.903-36.188-.334-5.147z"/><path fill="#8b0012" fill-opacity=".682" d="M392.21 543.537l89.59 314.407 42.902 32.098-10.154-85.729z"/><path fill="#fff9fd" fill-opacity=".322" d="M74.783 936.18l66.193 7.127 2.295 21.023-146.345 61.145z"/><path fill="#ff0053" fill-opacity=".49" d="M314.02 266.347l-38.99 42.77-4.118 11.155 33.749 9.409z"/><path fill="#c6e0fb" fill-opacity=".518" d="M298.534 831.257l23.163-37.702 10.643 21.376-14.315 42.24z"/><path fill="#233129" fill-opacity=".596" d="M222.438 439.087L-62 425.331l350.983-269.405-75.158 196.348z"/><path fill="#1e1b24" fill-opacity=".561" d="M124.809 846.783l408.26 141.544-294.224-188.141-122.886 72.21z"/><path fill="#a6abcc" fill-opacity=".529" d="M474.125 701.7L447.02 506.257l54.985 210.164 37.149 65.832z"/><path fill="#290f0d" fill-opacity=".216" d="M370.923 341.774l96.171-312.943-185.802 40.094 120.367 75.052z"/><path fill="#c89bb0" fill-opacity=".529" d="M721.141 452.56l-12.014 42.824-58.351 79.115-30.758 27.142z"/><path fill="#ea003d" fill-opacity=".639" d="M652.37 452.941l-57.515-80.468-72.291 9.254 94.617 67.203z"/><path fill="#c4c9e1" fill-opacity=".588" d="M366.432 533.63l27.456-91.038-3.942 210.334-24.592-92.384z"/><path fill="#ffe5ff" fill-opacity=".278" d="M392.054 773.016L377.468 875.1l-19.056-92.532-12.602-110.586z"/><path fill="#b06668" fill-opacity=".506" d="M142.338 883.694l98.774-124.092 10.048-80.67-80.492 102.735z"/><path fill="#e7e6f2" fill-opacity=".878" d="M268.722 440.215l163.171 27.694 20.654-16.172-90.45-40.457z"/><path fill="#ffc0d4" fill-opacity=".318" d="M577.028 587.513L638.83 706.99l-68.257-2.02-.13-93.49z"/><path fill="#9a99ba" fill-opacity=".588" d="M679.617 1018.054L699.063 1086l140.554-12.3-192.241-53.473z"/><path fill="#d6b5d8" fill-opacity=".467" d="M444.201 872.664l-1.187 3.84 35.665 2.105-41.883-176.94z"/><path fill="#ceb6ab" fill-opacity=".549" d="M301.735 266.38l45.302 85.062 26.777 11.549-30-59.968z"/><path fill="#ffaba6" fill-opacity=".271" d="M475.115 168.581L261.45 126.19l122.426-4.715 50.073 82.107z"/><path fill="#e4d7e3" fill-opacity=".49" d="M248.99 588.692L115.86 775.821l-.594-63.645L-62 726.79z"/><path fill="#970013" fill-opacity=".561" d="M454.243 815.483l-15.106 66.965-97.31-321.685 69.052 331.304z"/><path fill="#a1c0be" fill-opacity=".38" d="M200.09 90.55L263.998-62 299.54 39.459l-32.346 60.228z"/><path fill="#723232" fill-opacity=".576" d="M853.024 421.253l-11.283 29.141-227.402-4.67 20.3-17.346z"/><path fill="#3a543a" fill-opacity=".494" d="M168.354 61.191L286.83 299.646l-4.747-141.415-239.825-36.645z"/><path fill="#f4e3f6" fill-opacity=".471" d="M274.093 297.703l-24.65 98.101 54.355 297.029-79.136-356.737z"/><path fill="#d6ddf0" fill-opacity=".514" d="M299.627 559.55l12.572-175.945 18.118 291.709 24.406 3.456z"/><path fill="#d90028" fill-opacity=".62" d="M347.095 451.855l28.545 23.986-51.763 99.086 5.759-107.863z"/><path fill="#f80640" fill-opacity=".769" d="M569.195 348.694l-6.985-7.426-50.756-12.964-51.564 29.6z"/><path fill="#280100" fill-opacity=".243" d="M333.163 555.779l41.223 117.958-52.581-99.606 342.382 67.621z"/><path fill="#ff2625" fill-opacity=".165" d="M77.697 648.826l32.177-200.07 78.188-2.36-38.767 171.365z"/><path fill="#bacee7" fill-opacity=".565" d="M495.42 529.468l-53.231-38.297-3.355 82.656 67.925-134.22z"/><path fill="#f5d9ff" fill-opacity=".306" d="M200.3 902.104l-33.065-8.924-31.164 18.892-7.332-57.389z"/></svg>