<svg xmlns="http://www.w3.org/2000/svg" width="228" height="278" viewBox="0 0 836 1024"><path fill="#464e6c" d="M0 0h836v1024H0z"/><path fill="#7b97f3" fill-opacity=".706" d="M576.637 338.366l-386.71-9.56-2.165 737.019 397.79 15.187z"/><path fill="#1d1c1a" fill-opacity=".902" d="M641.25 391.612L898 1037.542 833.097-62-62 48.249z"/><path fill="#b5c9ff" fill-opacity=".647" d="M127.08 783.391l53.243-486.682-144.75 406.047 30.298 59.6z"/><path fill="#2d2823" fill-opacity=".988" d="M691.796 106.724L134.34 380.362l-157.625 543.63L-8.42-62z"/><path fill="#c2cce7" fill-opacity=".898" d="M804.422 837.75l-62.018-13.48-70.78-153.166 53.103-52.823z"/><path fill="#ffbf8d" fill-opacity=".318" d="M472.702 576.064L496.734 73.9l-65.981-14.64-143.417 99.635z"/><path fill="#6b82cb" fill-opacity=".988" d="M63.06 603.258l571.263-218.717 59.307 194.408-514.153-188.15z"/><path fill="#29282c" fill-opacity=".961" d="M-62 1086l216.337-.188 21.993-276.27L-62 704.902z"/><path fill="#ccd0e7" fill-opacity=".851" d="M325.165 373.69l122.876 33.663-158.69-101.315 17.135 315.115z"/><path fill="#221304" fill-opacity=".573" d="M425.044 268.13l71.29 4.387L377.47 375.559l-45.815-202.231z"/><path fill="#1236af" fill-opacity=".859" d="M408.485 544.074l-65.902 101.123 99.65-16.674L416.9 1086z"/><path fill="#1738a8" fill-opacity=".937" d="M388.83 794.897l-7.77 287.892-17.733-268.828 27.318-496.52z"/><path fill="#05123a" fill-opacity=".427" d="M564.8 591.105l-13.77 229.051L656.287 1086l36.569-542.709z"/><path fill="#e2eaff" fill-opacity=".631" d="M510.679 317.86l-58.043-12.987L435.473 1086l44.196-708.476z"/><path fill="#05299a" fill-opacity=".808" d="M292.253 1086l4.684-289.197-6.867-613.038-19.185 513.121z"/><path fill="#f3f7ff" fill-opacity=".631" d="M268.703 1086l1.314-644.183-17.717-119.71-5.22 196.134z"/><path fill="#f0f5ff" fill-opacity=".439" d="M293.224 644.229L362.243 1086l3.923-439.962-60.919 428.548z"/><path fill="#0a2ea7" fill-opacity=".839" d="M318.198 995.024l-.48 90.976h28.066l-13.235-529.794z"/><path fill="#f4f5ff" fill-opacity=".475" d="M425.576 541.298l-7.42-184.553-66.318 212.177-16.837-254.178z"/><path fill="#012ca7" fill-opacity=".71" d="M246.187 1086l11.238-285.65-14.767-298.723-11.136 97.015z"/><path fill="#f5fbff" fill-opacity=".467" d="M39.234 707.566l26.413-92.414 76.022-2.636-43.835 174.329z"/><path fill="#8a675d" fill-opacity=".98" d="M193.072 673.492l-68.133 48.615-18.436 60.102 98.935 16.5z"/><path fill="#012eb7" fill-opacity=".694" d="M430.213 385.73l24.387 49.501-21.535 170.313-10.296-147.988z"/><path fill="#e3eaff" fill-opacity=".714" d="M495.148 1045.393l-14.46-14.972-.98-277.16 24.385-229.302z"/><path fill="#002cb0" fill-opacity=".788" d="M473.689 1054.008l5.36-414.426-27.581 183.42L467.311 1086z"/><path fill="#dfe6fd" fill-opacity=".765" d="M538.59 1086l3.195-171.633-18.865-299.771.415 346.808z"/><path fill="#e2e8ff" fill-opacity=".671" d="M410.56 1086l-3.86-465.304-23.022 293.509 12.384 122.695z"/><path fill="#c2cdef" fill-opacity=".969" d="M433.105 874.27l10.803-227.795 15.705 398.075L438.71 1086z"/><path fill="#afc1f0" fill-opacity=".816" d="M156.892 1081.635l87.04-213.517L215.624 1086l-22.106-205.435z"/><path fill="#6580b8" fill-opacity=".522" d="M749.22 842.455l-70.715-84.635-126.92-63.96 149.01-40.14z"/><path fill="#0b30b1" fill-opacity=".659" d="M389.94 376.774l26.985-35.535-53.517 72.56 45.357 289.79z"/><path fill="#070b0c" fill-opacity=".608" d="M873.722 305.882l-246.151 14.296 97.082 327.448L898 873.649z"/><path fill="#002fb9" fill-opacity=".827" d="M245.156 346.622l-96.677 42.271 68.973-19.404 19.378 249.105z"/><path fill="#c7d6fb" fill-opacity=".671" d="M559.553 499.78l-55.192-172.12-8.764 133.221L582.55 372.5z"/><path fill="#fefbfd" fill-opacity=".533" d="M697.224 646.41l100.73 225.188-8.877-113.342-61.223-107.186z"/><path fill="#0735b4" fill-opacity=".663" d="M500.767 363.825l-14.322 288.94-12.718-262.556-1.99-7.987z"/><path fill="#693d00" fill-opacity=".31" d="M858.61 838.41l-278.418-47.28L625.29 1086 898 861.847z"/><path fill="#d9e3fa" fill-opacity=".667" d="M215.33 356.461l-10.923 33.629-3.278 91.448 35.474 217.08z"/><path fill="#0d3dc9" fill-opacity=".824" d="M551.33 718.54l18.725-102.378 6.23 187.492L546.798 1086z"/><path fill="#0433bb" fill-opacity=".788" d="M496.383 931.13l14.325-251.194L527.365 1086l-11.515-23.849z"/><path fill="#000002" fill-opacity=".318" d="M-62 393.671l361.215-94.716L386.261-62-62 90.52z"/><path fill="#fcb49e" fill-opacity=".396" d="M398.694 64.698l84.438 114.307-129.603 9.454L509.7 90.731z"/><path fill="#0028af" fill-opacity=".482" d="M338.01 695.39l-26.68-220.927 22.156-112.076 13.441 130.398z"/><path fill="#a4785a" fill-opacity=".776" d="M339.11 271.53l-40.188 38.471 57.366 49.784 92.382 19.125z"/><path fill="#2040a7" fill-opacity=".831" d="M551.407 376.58l-12.06 149.708-37.03 228.735 24.872-363.812z"/><path fill="#1f41b7" fill-opacity=".996" d="M187.271 366.904l-43.617 88.94-35.537 157.493 8.44 4.436z"/><path fill="#f4f9ff" fill-opacity=".42" d="M576.968 510.149l49.687-153.106-10.62 111.277-42.606 102.591z"/><path fill="#0e161a" fill-opacity=".859" d="M458.028 53.405l146.78 190.246L898 171.46 828.747-62z"/><path fill="#f5fbff" fill-opacity=".463" d="M438.356 335.182l31.328 231.808 1.583-254.299 168.312 75.062z"/><path fill="#2a4dbc" fill-opacity=".992" d="M613.325 388.885l-74.06 244.45 47.202-268.523-21.774 19.897z"/><path fill="#ffbc94" fill-opacity=".314" d="M828.914 1086l-19.257-194.297-91.023-74.054L898 871.658z"/><path fill="#fffeff" fill-opacity=".318" d="M357.453 1086l-20.269-321.3 13.948-482.227 14.735 304.69z"/><path fill="#042494" fill-opacity=".851" d="M341.512 663.036L328.89 961.41l-10.08-155.576.22-130.88z"/><path fill="#4865c9" fill-opacity=".953" d="M483.807 640.03l-15.394 40.125-143.767-13.257-19.942-43.301z"/><path fill="#24439b" fill-opacity=".769" d="M202.993 1086l-1.377-273.605-57.083 125.777 78.312-255.45z"/><path fill="#b4c4ef" fill-opacity=".643" d="M127.665 705.02l47.789-282.236-69.548 240.77 70.529-50.25z"/><path fill="#00218f" fill-opacity=".737" d="M628.367 418.776l58.006 209.622-38.984-75.522-27.57-101.212z"/><path fill="#fbfeff" fill-opacity=".537" d="M417.755 581.447l8.574-149.598-26.773-92.338-.357 193.929z"/><path fill="#8da5f7" fill-opacity=".596" d="M598.748 1040.732l-39.8-141.125 1.634-55.68 52.103 154.403z"/><path fill="#feecd4" fill-opacity=".329" d="M526.376 422.976l16.715 163.913 43.262-214.88L462.216 687.11z"/><path fill="#f9fdfe" fill-opacity=".412" d="M231.78 522.833l3.559 477.263-21.52-151.375 3.969-81.316z"/><path fill="#1e44ba" fill-opacity=".812" d="M176.012 415.068l46.677 262.568-27.52-270.255-15.566-57.07z"/><path fill="#c2d2f4" fill-opacity=".718" d="M169.006 395.816l-67.347 100.9 52.11-111.504 53.617 226.282z"/><path fill="#00134a" fill-opacity=".396" d="M76.641 643.367l76.651 70.602 39.518-191.774 1.12 163.544z"/><path fill="#0c29a4" fill-opacity=".753" d="M138.796 621.848l34.182-146.038-12.304 204.174-.146-40.177z"/><path fill="#dbe5fd" fill-opacity=".486" d="M308.04 978.321l-7.795-640.802-156.27 33.968 177.668-72.012z"/><path fill="#fdffff" fill-opacity=".337" d="M674.982 527.676l-15.564-69.526L627.2 603.308 615.474 497.24z"/><path fill="#1b3eb5" fill-opacity=".839" d="M269.192 553.948l6.11-207.623 24.99-9.894-16.798 254.467z"/><path fill="#d5ddf5" fill-opacity=".498" d="M391.4 675.615l-4.774 394.34L403.63 866.1l18.574-223.342z"/><path fill="#fcffff" fill-opacity=".467" d="M237.905 1086l34.423-61.55 8.13-151.42 2.944-84.72z"/><path fill="#0e41c2" fill-opacity=".8" d="M187.133 980.86L200.461 1086l-5.799-35.046 25.01-131.236z"/><path fill="#001342" fill-opacity=".667" d="M746.145 597.04l-85.662 70.161-62.064-177.532 16.714 176.942z"/><path fill="#000208" fill-opacity=".306" d="M898 438.322L459.2 309.458l-5.096 58.567L335.31 232.13z"/><path fill="#ecedf4" fill-opacity=".788" d="M304.228 363.602l103.443 34.039 92.437-48.593-66.333 20.322z"/><path fill="#e1ecff" fill-opacity=".573" d="M133.917 483.064l20.407-74.52-31.939 50.836-20.86 141.811z"/><path fill="#0737c5" fill-opacity=".647" d="M550.498 733.013l44.332 164.263 6.778 36.241-4.52 93.453z"/><path fill="#3a5cad" d="M128.134 397.014l-28.177 98.167-7.173 74.742 3.5 47.625z"/><path fill="#f7a37e" fill-opacity=".278" d="M322.039 215.764l-41.324-54.926L495.247 97.24 360.151 85.569z"/><path fill="#0833ae" fill-opacity=".667" d="M227.162 1071.652l21.903-315.795 11.642 126.24L242.384 1086z"/><path fill="#424663" fill-opacity=".784" d="M719.02 819.087l-45.062-25.531-89.63 27.493-19.239-266.594z"/><path fill="#022fb4" fill-opacity=".69" d="M413.78 783.469l9.01 75.92 17.33 225.695-32.072.916z"/><path fill="#f7ffff" fill-opacity=".337" d="M587.653 509.523l21.589-132.61 66.196 190.79-27.036-155.59z"/><path fill="#896b59" fill-opacity=".788" d="M519.25 454.329l11.93 14.378 15.335 50.784-47.666-38.194z"/><path fill="#edf0ff" fill-opacity=".514" d="M523.739 770.238l12.39-165.813 11.331-38.107-20.607-4.776z"/><path fill="#0b0b0d" fill-opacity=".831" d="M364.134 79.007l131.128-20.708-149.73-68.626-90.284 122.664z"/><path fill="#fdfeff" fill-opacity=".31" d="M312.022 455.778L320.18 513l-8.07 54.583-45.624-116.214z"/><path fill="#eff7fb" fill-opacity=".475" d="M554.27 822.511l35.608 151.155-21.02 70.911-.95-114.783z"/><path fill="#0235c8" fill-opacity=".545" d="M639.518 415.24l-172.64-74.852 166.536 56.159-33.099 136.915z"/><path fill="#0b0f0f" fill-opacity=".275" d="M740.547 839.068L626.165 1030.86l-44.019-171.74 114.355-90.434z"/><path fill="#ffe2c8" fill-opacity=".388" d="M210.71 774.706l-14.397-60.127-.867-16.685 4.358-171.715z"/><path fill="#002cb5" fill-opacity=".588" d="M508.64 582.24l11.213 194.83-5.7 21.58-17.889 82.988z"/><path fill="#90a2d8" fill-opacity=".996" d="M509.577 577.96l-35.292-22.289-64.37 4.98 9.47 28.32z"/><path fill="#e4e9ff" fill-opacity=".714" d="M243.691 378.737l31.118-18.91-8.02 86.582-18.097 6.118z"/><path fill="#1b3fad" fill-opacity=".973" d="M94.78 407.882l139.096-40.825 39.515-11.597 11.198-17.869z"/><path fill="#dae3fa" fill-opacity=".663" d="M317.667 1034.506L291.287 1086l15.586-192.376 13.057-18.429z"/><path fill="#edf5ff" fill-opacity=".541" d="M365.842 926.553l-.916-82.415L327.584 1086l36.611-25.366z"/><path fill="#0033c0" fill-opacity=".675" d="M384.31 1045.462l-22.225-11.706 8.098-177.551 15.816 111.973z"/><path fill="#022aab" fill-opacity=".655" d="M377.339 565.395l13.054-44.567 11.658-80.591-30.163-53.42z"/><path fill="#9f6e50" fill-opacity=".675" d="M466.703 349.697l-155.618-42.89 8.759 33.433 81.86 33.945z"/><path fill="#dde2f3" fill-opacity=".678" d="M105.615 782.234l33.65-91.289-90.91 14.857 35.193-117.315z"/><path fill="#e9efff" fill-opacity=".722" d="M221.934 421.443l-25.327-49.778-2.433 45.86 26.287 76.963z"/><path fill="#151e28" d="M898 779.56L700.316 537l89.538 230.592 10.115 66.334z"/><path fill="#182436" fill-opacity=".675" d="M498.846 157.904L898 260.218l-396.91 65.864-31.125-34.494z"/><path fill="#1e272f" fill-opacity=".761" d="M51.827 737.37L19.506 590.112-62 798.694l237.525 96.898z"/><path fill="#0c31af" fill-opacity=".996" d="M322.493 367.427l.33 163.338 18.088 40.804 1.558-172.953z"/><path fill="#d09783" fill-opacity=".463" d="M350.704 140.1l140.412 71.295.989-58.049L339.41 176.43z"/><path fill="#0835b6" fill-opacity=".941" d="M272.163 1086l21.444-52.174 3.719-214.15-22.487 177.515z"/><path fill="#e1e8fa" fill-opacity=".702" d="M348.902 427.417l-4.672 187.53 24.587-77.35 1.49-173.838z"/><path fill="#3a53ac" fill-opacity=".992" d="M586.523 547.208l33.897-91.203-24.652 131.017-44.544 5.392z"/><path fill="#052291" fill-opacity=".831" d="M383.673 658.614l-19.152 19.854 5.438 183.152 15.965 78.084z"/><path fill="#fbfcff" fill-opacity=".412" d="M545.194 459.632l21.073-109.212 4.616 86.15-16.444 116.805z"/><path fill="#d0daf8" fill-opacity=".592" d="M623.06 480.669l23.005 94.918-23.103-11.727-11.595-70.036z"/><path fill="#fefbf4" fill-opacity=".294" d="M505.122 647.923l8.69-286.161-20.246 267.645-184.74-11.294z"/><path fill="#1438b7" fill-opacity=".843" d="M294.569 640.256l223.016 7.156-213.975-16.919-23.797-238.231z"/><path fill="#001934" fill-opacity=".533" d="M645.218 665.773l66.964-32.53-34.087-86.925-105.019 73.911z"/><path fill="#001a8e" fill-opacity=".31" d="M485.336 449.333l68.051 91.23-51.937-32.108-49.242 157.798z"/><path fill="#c7dafa" fill-opacity=".506" d="M203.746 758.41L184.863 1086l35.043-80.903-54.054 76.738z"/><path fill="#003bc9" fill-opacity=".533" d="M170.565 844.865l23.64-46.578L149.362 1086l44.286-167.249z"/><path fill="#022eb4" fill-opacity=".596" d="M558.44 878.136l-13.743 20.886 4.135 128.419L571.837 1086z"/><path fill="#052aa8" fill-opacity=".71" d="M460.711 997.71l22.877-324.92-20.32-10.621-1.76 70.646z"/></svg>