<svg xmlns="http://www.w3.org/2000/svg" width="228" height="278" viewBox="0 0 836 1024"><path fill="#83959a" d="M0 0h836v1024H0z"/><path fill="#32230b" fill-opacity=".757" d="M536.28 208.278L-62 13.138 832.136-62 898 674.63z"/><path fill="#dff1ff" fill-opacity=".796" d="M-62 817.038l960-281.257-164.734 227.091L800.733 1086z"/><path fill="#5c5143" fill-opacity=".992" d="M-62 22.683L46.565 742.518l70.518-512.888 399.89-153.22z"/><path fill="#97dbff" fill-opacity=".635" d="M366.122 1086l-184.12-658.306 230.925-274.13L712.822 389.06z"/><path fill="#000201" fill-opacity=".616" d="M723.24 723.4l96.366 337.903L898 1018.03l-81.057-276.813z"/><path fill="#1c2020" fill-opacity=".808" d="M244.352 674.884l-99.89-.338-67.08-45.338 121.364-130.775z"/><path fill="#a7d7f0" fill-opacity=".933" d="M175.757 448.252l141.323-31.785L173.462 215.42 71.547 283.427z"/><path fill="#3785ae" fill-opacity=".949" d="M563.406 549.696l-66.99-184.924 177.995 146.43-6.87 168.03z"/><path fill="#f8eef0" fill-opacity=".541" d="M29.28 589.02L-62 895.11l736.335 51.255L81.96 675.614z"/><path fill="#845e4d" fill-opacity=".988" d="M308.672-62L143.504 150.078 254.085 318.57l96.1-69.302z"/><path fill="#1f2f19" fill-opacity=".498" d="M81.156 915.827L32.72 990.6l319.793 55.252-43.026-105.951z"/><path fill="#c4ddec" fill-opacity=".965" d="M784.436 722.915l-94.737 27.9-26.783-380.527L898 790.183z"/><path fill="#fff2ec" fill-opacity=".561" d="M318.74 949.605L366.103 1086l419.35-158.288-102.251-235.815z"/><path fill="#cde7f8" fill-opacity=".765" d="M624.414 315.7L304.542 428.59l63.221-282.747 193.098 106.991z"/><path fill="#34372f" fill-opacity=".729" d="M802.355 603.563L677.758 395.827l18.327-22.587 43.789-308.264z"/><path fill="#35a6d7" fill-opacity=".322" d="M89.941 551.056l3.63-221.948 192.546 176.656L683.05 759.163z"/><path fill="#393720" fill-opacity=".894" d="M-62 27.606L153.89-62l26.25 281.89-41-4.31z"/><path fill="#3a3623" fill-opacity=".929" d="M333.002 74.523L898-62 729.003 364.044 436.595 166.658z"/><path fill="#464737" fill-opacity=".937" d="M-62 508.224L77.433 630.232 93.6 395.723 77.922 253.026z"/><path fill="#0380b6" fill-opacity=".329" d="M359.853 522.577L628.43 505.08l-65.21-138.865L320.114 488.43z"/><path fill="#7ec4e6" fill-opacity=".475" d="M301.856 855.182l419.32-210.779-60.895-66.008-427.742 62.184z"/><path fill="#502808" fill-opacity=".467" d="M638.3 574.944l-63.135-119.23 74.044 59.26 14.722 57.831z"/><path fill="#d4a894" fill-opacity=".667" d="M743.991 1024.537l-161.612-26.211-94.698-32.25-77.272 62.09z"/><path fill="#2b1400" fill-opacity=".302" d="M168.328 506.947l29.047-35.858 31.03 224.548-126.136 24.708z"/><path fill="#c58c79" fill-opacity=".682" d="M311.87 62.553l-3.55 38.608-116.117 25.195-15.09-67.98z"/><path fill="#6cb9df" fill-opacity=".706" d="M71.838 606.627l73.974-38.14-69.744-282.648 56.138 54.996z"/><path fill="#b51407" fill-opacity=".141" d="M371.629 439.718l18.44 120.594-127.647 1.53 15.804-150.822z"/><path fill="#f9f9fc" fill-opacity=".867" d="M326.19 1086l344.59-296.339-337.464 49.35 65.22 189.674z"/><path fill="#25272c" fill-opacity=".651" d="M898 827.73l-27.747 138.329-129.09-130.131-11.535-79.197z"/><path fill="#3da5d1" fill-opacity=".686" d="M248.363 301.357l-30.624 40.74 83.91-29.637 133.86-26.336z"/><path fill="#d1d7dc" d="M782.393 925.13l-212.35 8.257 37.39 63.781 183.443 78.687z"/><path fill="#dbdee4" fill-opacity=".733" d="M898 873.117L758.594 659.654l31.743-102.793L898 712.913z"/><path fill="#454d42" fill-opacity=".2" d="M.576 1035.654l318.01-54.598-21.184-109.347-256.093 48.375z"/><path fill="#a9d7f1" fill-opacity=".992" d="M430.8 825.822l-107.175-64.903 351.834-72.444-52.394 61.356z"/><path fill="#0a0015" fill-opacity=".267" d="M197.522 261.457l172.28-62.496-30.73 53.563-70.971 59.456z"/><path fill="#ace1f9" fill-opacity=".624" d="M552.044 466.45l-44.971-33.532 67.27 66.418-157.832-42.64z"/><path fill="#e2effb" fill-opacity=".518" d="M605.526 493.01l61.285-22.565 15.656-116.68-28.037 31.662z"/><path fill="#b0775d" fill-opacity=".875" d="M364.207 137.754L166.28 192.363l53.162 21.797 128.226-31.313z"/><path fill="#cce7fc" fill-opacity=".506" d="M95.895 245.782l92.537-35.384 10.287 30.712L87.516 342.306z"/><path fill="#5c4f40" fill-opacity=".988" d="M251-2.282l-30.673 48.275 224.476 3.624L477.868-62z"/><path fill="#0164ae" fill-opacity=".694" d="M567.432 536.548l-9.637-133.512 64.81 173.938-79.646-13.085z"/><path fill="#899aa2" fill-opacity=".463" d="M10.927 619.344l277.692 77.463-36.056-41.408L-62 745.958z"/><path fill="#000008" fill-opacity=".471" d="M208.918 666.427l26.919-44.018-96.438-41.67-84.743 51.87z"/><path fill="#208bc2" fill-opacity=".553" d="M121.401 569.12l60.219-110.998-27.605-25.825-39.102-92.52z"/><path fill="#3d3e56" fill-opacity=".361" d="M816.872 604.522l-42.357-59.359-117.126-170.69L898 476.847z"/><path fill="#e4e6ee" fill-opacity=".522" d="M254.499 708.726l-131.751 25.726L-62 754.608 61.761 900.695z"/><path fill="#39b4ea" fill-opacity=".337" d="M576.995 358.69l131.75 312.993-16.828-200.381-108.473 16.794z"/><path fill="#bcdff3" fill-opacity=".776" d="M288.313 398.783l-146.08-21.82 462.604-90.448-166.699 136.33z"/><path fill="#4b627f" fill-opacity=".78" d="M339.576 553.355l37.809-19.352-15.195-85.782 31.951 48.128z"/><path fill="#46442f" fill-opacity=".82" d="M89.765 527.997L-62 278.396l162.828 74.833-3.947 43.119z"/><path fill="#141b37" fill-opacity=".306" d="M242.49 479.453l71.628 83.403 53.157-19.512-89.294 8.512z"/><path fill="#3e5049" fill-opacity=".894" d="M767.133 845.396L898 1031.986 850.011 1086h-44.4z"/><path fill="#014573" fill-opacity=".439" d="M506.72 406.777L610.848 527.73l-231.662-78.21 286.48 80.9z"/><path fill="#fff3f3" fill-opacity=".506" d="M404.7 188.64L298.286 294.913l98.396-27.01-44.68-137.443z"/><path fill="#4b5049" fill-opacity=".996" d="M148.661 583.637l25.562-90.33 13.919-20.8 37.227 134.403z"/><path fill="#c5d6e0" fill-opacity=".992" d="M310.503 538.556l34.514-184.517-42.153 157.1-54.994-67.295z"/><path fill="#053d71" fill-opacity=".408" d="M336.828 423.558l32.366 47.415-63.326-53.316-35.866 23.694z"/><path fill="#78bfe0" fill-opacity=".996" d="M309.384 724.877l-66.5-51.727-12.295-85.092 197.83 151.824z"/><path fill="#443f2f" fill-opacity=".643" d="M55.222 61.753l39.39 197.054 116.34-92.94 73.883 14.01z"/><path fill="#646f71" fill-opacity=".561" d="M163.597 695.728L88.442 663.1l-66.108-44.962L-62 484.383z"/><path fill="#3d3633" fill-opacity=".784" d="M392.83 56.092l323.665 223.362-304.59-111.469-64.382-29.69z"/><path fill="#3c382d" fill-opacity=".878" d="M667.275 357.084l67.32-211.136-206.077 14.157 87.432 157.062z"/><path fill="#202331" fill-opacity=".451" d="M732.38 749.781l31.353-31.978 58.288 22.817-77.255 88.012z"/><path fill="#8ba4a9" fill-opacity=".294" d="M851.191 1086L571.86 911.814l18.99 32.85L622.74 1086z"/><path fill="#97afc4" fill-opacity=".333" d="M23.497 708.134L214.52 694.03l73.584 50.096 183.348 89.99z"/><path fill="#d1e7f7" fill-opacity=".91" d="M550.437 245.035l-81.328-48.417L360.9 216.402l241.815 82.384z"/><path fill="#e6e8ed" fill-opacity=".835" d="M556.226 906.192L671.04 680.475l110.704 241.098 5.3 78.857z"/><path fill="#9ed4ef" fill-opacity=".663" d="M523.644 369.679l174.37 11.897-31.785-31.178-298.334-107.669z"/><path fill="#fb6502" fill-opacity=".173" d="M680.35 635.813l-12.433-66.916-45.973-71.933-45.922 4.806z"/><path fill="#7bddff" fill-opacity=".31" d="M653.68 631.89l-326.737-44.096 76.062-85.237 93.24-15.266z"/><path fill="#f7f9fc" fill-opacity=".761" d="M559.138 852.274l44.545 161.414-313.918-172.8 126.255-28.061z"/><path fill="#345788" fill-opacity=".51" d="M335.698 416.346l5.118 41.365-2.009 44.692-18.794-4.14z"/><path fill="#575e63" fill-opacity=".525" d="M-62 256.951l132.302 53.931 44.748-90.56-54.975-108.675z"/><path fill="#643b2d" fill-opacity=".498" d="M315.435 237.062l-143.58-18.95 190.925-11.46 3.163-31.89z"/><path fill="#d3edff" fill-opacity=".4" d="M98.197 440.872l-18.44 166.892 19.681-11.471 11.12-179.212z"/><path fill="#0785be" fill-opacity=".416" d="M507.01 644.35l-170.718 9.226 143.834 6.45L610.01 617.27z"/><path fill="#faede7" fill-opacity=".459" d="M369.675 497.695l-32.417 55.793 8.409-100.902 11.68 102.936z"/><path fill="#28bae0" fill-opacity=".443" d="M334.106 884.1l26.476 29.844-25.774 35.549 4.832-10.89z"/><path fill="#687872" fill-opacity=".906" d="M182.332 918.737l-154.604 1.57L41.138 1086l59.555-157.6z"/><path fill="#00b2e3" fill-opacity=".212" d="M585.296 425.936l59.963-76.082-132.351 25.067-88.57 98.217z"/><path fill="#fdc5aa" fill-opacity=".451" d="M235.794 214.94l-26.247-11.27 9.128-41.28 28.04 20.22z"/><path fill="#d3e7f4" fill-opacity=".651" d="M719.89 765.416L898 543.376l-73.038 164.15-92.636-228.923z"/><path fill="#0281d1" fill-opacity=".584" d="M680.518 652.228l-21.101 13.52-47.394-113.132-77.65-35.245z"/><path fill="#aed8eb" fill-opacity=".627" d="M178.11 462.445l-51.7-134.337 229.446 206.058L279.3 431.623z"/><path fill="#1082b3" fill-opacity=".482" d="M298.878 578.82l162.353 41.777 104.099-8.456-165.566-3.082z"/><path fill="#0280cf" fill-opacity=".294" d="M362.005 794.295l-28.747-18.322 47.005 34.822 130.329 14.572z"/><path fill="#0e2312" fill-opacity=".231" d="M58.969 949.626l185.24-18.363-.314 154.737-31.678-80.612z"/><path fill="#37351b" fill-opacity=".851" d="M160.342 164.654l33.734-186.998L-62 193.08-42.453-62z"/><path fill="#3c3816" fill-opacity=".796" d="M451.305 64.183l416.535 79.602L898-62 489.212-9.297z"/><path fill="#4da7c7" fill-opacity=".78" d="M242.233 506.218l71.445 63.76-101.602-56.524-77.61-105.65z"/><path fill="#d8dfe6" d="M315.242 955.481l28.774 7.585-70.417-185.23 48.096 69.659z"/><path fill="#b96e56" fill-opacity=".376" d="M363.339 118.34l-4.967 116.35-102.07-99.572 9.533-101.537z"/><path fill="#b2dbf2" fill-opacity=".729" d="M631.075 629.952L525.41 677.189l-94.74 19.996 34.26-33.909z"/><path fill="#0597ce" fill-opacity=".31" d="M439.297 270.556l-47.349 2.167-32.255 17.098-24.949 16.113z"/><path fill="#abe3f8" fill-opacity=".529" d="M268.763 543.173l67.65 40.392-64.942-22.883-47.917-34.386z"/><path fill="#dff5ff" fill-opacity=".31" d="M215.627 585.048l263.419 70.01-164.415-15.227 49.8-5.682z"/><path fill="#4e2206" fill-opacity=".408" d="M187.722 158.784l94.606-33.126-37.48 59.111 35.235-5.22z"/><path fill="#dcad98" fill-opacity=".757" d="M533.47 979.428l69.639 45.818L321.699 1086l134.872-108.015z"/><path fill="#229dd2" fill-opacity=".525" d="M495.71 695.457l-30.954 7.834-126.42-3.536 22.709-.593z"/><path fill="#7b5e4c" d="M211.498 263.11l-30.943-109.273-8.298-39.376-2.508 64.766z"/><path fill="#c3bfc9" fill-opacity=".271" d="M60.5 921.336L-62 928.385l185.659-80.248 263.796 73.57z"/><path fill="#19a1dd" fill-opacity=".157" d="M636.34 700.788l-199.632 86.53 127.17-15.481-31.973-76.965z"/><path fill="#1897ca" fill-opacity=".494" d="M398.467 532.906l175.31-5.571-158.395 13.898-47.164 3.68z"/><path fill="#f5f5f8" fill-opacity=".596" d="M670.206 608.685l48.1 87.81-283.17 176.807 271.337-57.727z"/><path fill="#bec1c4" fill-opacity=".392" d="M622.577 865.62l117.559-50.578-141.832 100.905-27.016-16.664z"/><path fill="#7f8c8c" fill-opacity=".447" d="M388.385 1051.963L20.904 973.231 306.646 1086l61.939-98.116z"/><path fill="#b1e1f9" fill-opacity=".576" d="M93.322 586.14l8.577-140.997 7.585-81.963-11.88 33.593z"/><path fill="#a9b0b8" fill-opacity=".969" d="M-62 548.756l200.981 181.62 111.662-21.656-305.308 18.89z"/><path fill="#0377af" fill-opacity=".235" d="M228.017 428.351l199.294-21.844-129.96 29.155-23.426 2.984z"/><path fill="#343635" fill-opacity=".498" d="M737.07 491.952l-63.972-95.308 99.706-106.18L898 376.673z"/><path fill="#dcf5ff" fill-opacity=".373" d="M604.234 423.92l69.634-53.609 4.231 43.15 73.322 107.737z"/><path fill="#0197c1" fill-opacity=".224" d="M330.449 622.91l-.652-8.926 100.133 17.802-210.695-96.253z"/><path fill="#90b0c3" d="M591.402 520.771l176.77 221.741-143.62-180.79-4.24-28.46z"/><path fill="#697f77" fill-opacity=".365" d="M306.137 917.567l-41.961-14.73-.57 135.72L364.08 1086z"/><path fill="#e4f0fe" fill-opacity=".51" d="M478.487 528.262l55.947-19.615 24.139 10.559-181.991 6.551z"/><path fill="#a3d2eb" fill-opacity=".494" d="M650.86 605.677l30.983 44.006 57.041-24.042-30.308-131.176z"/><path fill="#ca9e8d" fill-opacity=".384" d="M281.448 92.187l24.601-37.65-38.162-6.83-101.831 53.48z"/><path fill="#f4f2f5" fill-opacity=".714" d="M357.872 260l-24.514 22.727 46.886-126.58 22.835 16.455z"/><path fill="#393825" fill-opacity=".486" d="M636.99 590.986l-10.87-54.176-46.267-25.706 58.223-3.35z"/><path fill="#edece9" fill-opacity=".596" d="M342.603 446.125l3.36 68.225 12.95-48.05 1.5-1.53z"/></svg>