<svg xmlns="http://www.w3.org/2000/svg" width="228" height="278" viewBox="0 0 836 1024"><path fill="#3f352d" d="M0 0h836v1024H0z"/><path fill="#90a7af" fill-opacity=".996" d="M766.394 1086l-38.086-202.916-156.337 81.013L-62 1009.034z"/><path fill="#f0f0ff" fill-opacity=".388" d="M399.885 274.85l262.13 130.48 59.8-53.673-294.842-128.614z"/><path fill="#7c7a73" fill-opacity=".937" d="M-45.402 1029.506l27.014-275.717 87.292 175.634 170.486 125.524z"/><path fill="#fbf1d6" fill-opacity=".439" d="M764.235 537.758l-78.41 21.244 104.411-104.603 70.753 135.626z"/><path fill="#270500" fill-opacity=".514" d="M529.726 324.44L898 740.53l-389.524 261.384L-62 589.454z"/><path fill="#1a2018" fill-opacity=".988" d="M297.555 253.51L158.51 419.775-62 926.95l33.828-803.956z"/><path fill="#d7f8ff" fill-opacity=".475" d="M429.568 309.325L308.882 444.913l73.14-123.486 56.249-115.443z"/><path fill="#98a08b" fill-opacity=".545" d="M488.224 578.43l11.97 29.92-192.641 42.622-18.346-62.099z"/><path fill="#7f5c40" fill-opacity=".62" d="M721.51 970.711l80.15-288.465-18.17-484.788L898 1058.328z"/><path fill="#dbd6ff" fill-opacity=".647" d="M318.451 1051.492l-159.97-.658 66.671-86.911 55.187-.171z"/><path fill="#16272e" fill-opacity=".984" d="M563.037-62l122.2 401.295-52.622-52.613-283.588-80.803z"/><path fill="#e4fffe" fill-opacity=".533" d="M240.7 306.696l73.432 120.331 57.566-39.039-97.827 17.09z"/><path fill="#747a6c" fill-opacity=".431" d="M-61.964 118.88l448.429 3.33L322.89-12.077-3.267 62.442z"/><path fill="#bac3c2" fill-opacity=".835" d="M624.455 433.396l30.875-89.255 51.976 12.099-72.206 81.073z"/><path fill="#665745" fill-opacity=".996" d="M236.771 675.143l-76.589 288.605 36.361 46.652-104.249 69.415z"/><path fill="#e8e7ff" fill-opacity=".486" d="M-50.3 1051.79l97.105-92.121L164.21 1086l148.721-75.724z"/><path fill="#110700" fill-opacity=".494" d="M635.836 765.342l71.598-288.466-120.556-64.114-444.05 595.532z"/><path fill="#bb905d" fill-opacity=".506" d="M492.694 495.707l-53.708 22.162-27.208-77.809 46.457-9.405z"/><path fill="#e5fbfe" fill-opacity=".533" d="M701.602 558.156l-3.37 13.754 86.52-73.076 6.115-48.09z"/><path fill="#acccd2" fill-opacity=".98" d="M670.535 939.505L802.94 1047.37 685.443 1086l-89.257-93.516z"/><path fill="#5e0e0d" fill-opacity=".792" d="M679.516 893.851l45.637 4.605 71.311-76.883-110.31-267.468z"/><path fill="#53503d" fill-opacity=".812" d="M865.075 570.864L898 519.849 642.23-62l29.413 387.271z"/><path fill="#024778" fill-opacity=".298" d="M185.092 258.454L-62 248.314-5.054-36.87 161.266-62z"/><path fill="#1a1e07" fill-opacity=".584" d="M197.93 770.232l-78.546 215.673-44.515-20.27-4.191-347.707z"/><path fill="#c2bac1" fill-opacity=".471" d="M166.59 437.832l89.594-105.937-3.632-21.305L162.6 420.928z"/><path fill="#470f0b" fill-opacity=".831" d="M370.206 435.447l252.305-26.866-41.128-58.545-168.765-45.426z"/><path fill="#b7ada7" fill-opacity=".584" d="M248.242 527.555l-.167 11.424 42.38-8.173L247.767 485z"/><path fill="#b7eed5" fill-opacity=".416" d="M173.85 647.606l-.156 25.738 100.317 6.5-63.003-21.592z"/><path fill="#131002" fill-opacity=".871" d="M394.89 295.909L248.07 285.84l37.054 78.054 42.346 29.972z"/><path fill="#825f40" fill-opacity=".592" d="M318.459 254.553l-53.172-72.367 110.233-19.624 34.303 118.055z"/><path fill="#bee2e1" fill-opacity=".553" d="M433.86 966.132l-47.416-10.308-17.092 76.897 71.487-43.695z"/><path fill="#60211d" fill-opacity=".961" d="M245.307 502.87l51.082-82.427-53.793-64.622-112.745 108.285z"/><path fill="#a20002" fill-opacity=".365" d="M567.234 257.3l118.685 64.233-8.414 171.435 126.499-17.678z"/><path fill="#2f0402" fill-opacity=".596" d="M565.49 314.367L438.692 289.22 426.6 269.422l178.759 79.476z"/><path fill="#666a5e" fill-opacity=".62" d="M527.824 656.87l-6.921-26.645-137.475 43.103.71 11.74z"/><path fill="#4f868f" fill-opacity=".765" d="M597.025 946.35l64.397-.612-97.696 55.027-139.518 4.746z"/><path fill="#5d5b71" fill-opacity=".624" d="M357.293 973.527l-153.86-28.002 139.4 76.454 79.816-83.196z"/><path fill="#fdfffc" fill-opacity=".369" d="M443.28 238.947l-63.856-25.985 68.579 49.654L344.299 414.92z"/><path fill="#472f15" fill-opacity=".765" d="M240.424 774.613l118.167-37.017L140.94 1086l-47.735-13.774z"/><path fill="#841f21" fill-opacity=".647" d="M451.252 975.558l-63.13-36.004 4.438-110.03 65.286 109.23z"/><path fill="#24353b" fill-opacity=".933" d="M369.577-62l7.189 230.169 153.281-35.212 46.885-99.111z"/><path fill="#c4eef1" fill-opacity=".392" d="M653.805 917.455l79.131 65.181L547.894 1086 779.7 884.263z"/><path fill="#e9f8d5" fill-opacity=".408" d="M472.077 582.53l31.488 42.263-33.802-71.964-5.476 6.687z"/><path fill="#110600" fill-opacity=".431" d="M769.765 873.972l-159.164 63.054-235.834-158.73L543.46 634.544z"/><path fill="#c8dbd9" fill-opacity=".42" d="M345.725 426.361l-99.509-83.007 38.024 72.124-13.704-10.05z"/><path fill="#150300" fill-opacity=".729" d="M204.534 507.104l114.43 147.727-93.065 11.922-75.516-89.772z"/><path fill="#867a6a" fill-opacity=".733" d="M898 977.193l-89.9-214.685 23.58 229.967L756.923 1086z"/><path fill="#f1f9dd" fill-opacity=".259" d="M282.755 609.65l154.754 21.594-24.826-59.81-47.504 70.331z"/><path fill="#a49a86" fill-opacity=".427" d="M183.568 37.201L175 103.348l38.725-8.42L265.06-1.246z"/><path fill="#fdfaec" fill-opacity=".247" d="M163.942 927.082l58.39-203.788-72.836 208.434-46.511 98.233z"/><path fill="#9ddae0" fill-opacity=".494" d="M654.784 394.722l-47.818-39.103-244.972-82.165 162.984 42.041z"/><path fill="#535a55" fill-opacity=".671" d="M57.84 818.42l-71.915-82.953-32.453 78.705 158.646 192.99z"/><path fill="#2c1501" fill-opacity=".42" d="M789.447 498.779l-212.61 176.137L898 661.1l-110.519-84.04z"/><path fill="#472502" fill-opacity=".463" d="M298.456 29.268l-22.5 281.616-75.9-64.127 56.253-230.9z"/><path fill="#040900" fill-opacity=".588" d="M286.634 297.298L-62 267.21l19.158 98.773 204.84 5.61z"/><path fill="#7b5354" fill-opacity=".996" d="M639.692 300.023l-193.325-36.938 189.513 73.439-209.156-110.581z"/><path fill="#2a260f" fill-opacity=".698" d="M174.514 647.12L-40.731 819.926l60.187-445.845 134.014-17.059z"/><path fill="#cbfff9" fill-opacity=".286" d="M725.38 556.534l107.42-127.76-169.46 147.412 7.514-1.305z"/><path fill="#010600" fill-opacity=".29" d="M724.124 374.793L590.584 53.476l-74.95 193.981 81.997 31.713z"/><path fill="#cae9ed" fill-opacity=".494" d="M697.19 401.657l-96.816-79.864-37.899-11.171 139.952 93.344z"/><path fill="#40290c" fill-opacity=".549" d="M808.555 938.208l25.473 42.974-36.955 45.09-74.467-37.121z"/><path fill="#0c180e" fill-opacity=".58" d="M388.657 957.371l-2.68-138.579-35.709-89.16-83.12 215.78z"/><path fill="#52302f" fill-opacity=".937" d="M645.042 373.788l-52.487-42.315-47.117-20.632 104.05 72.54z"/><path fill="#371b12" d="M379.556 545.907L275.73 610.712l60.2-173.364 68.24 265.872z"/><path fill="#200000" fill-opacity=".447" d="M727.98 521.55L473.914 635.278l209.39-246.44 65.958 112.597z"/><path fill="#f3fffe" fill-opacity=".329" d="M626.885 436.76l42.914-71.65-143.332-123.43 169.77 130.765z"/><path fill="#b4f8ff" fill-opacity=".263" d="M656.923 407.896L490.763 288.01l116.856 10.396-106.807-31.596z"/><path fill="#260e07" fill-opacity=".851" d="M428.452 567.057l240.963-143.14L389.42 560.04l56.213 56.846z"/><path fill="#756f61" fill-opacity=".918" d="M320.085 557.632l52.55 135.498-2.873-107.38-53.36 63.345z"/><path fill="#240200" fill-opacity=".467" d="M459.042 284.224L470.49 302.9l31.23 8.524 59.4 5.232z"/><path fill="#484438" fill-opacity=".757" d="M898 61.923l-98.744 309.659L619.895-61.571l-4.046 134.254z"/><path fill="#fffff1" fill-opacity=".298" d="M418.925 609.327l-50.727-.472-28.996-5.66 84.035-21.31z"/><path fill="#fffff8" fill-opacity=".341" d="M456.958 208.763l-92.264 166.602-31.86 37.192 48.314-41.681z"/><path fill="#770906" fill-opacity=".459" d="M773.32 1086l-62.186-75.537L602.79 1086l186.664-1.993z"/><path fill="#d0996d" fill-opacity=".11" d="M400.576 307.554L382.042 47.561-62 66.687l402.504 53.146z"/><path fill="#3b1213" fill-opacity=".624" d="M481.892 276.554l-44.656-21.969 79.286 25.834 73.921 30.112z"/><path fill="#e4fdfe" fill-opacity=".216" d="M262.458 306.47l6.052 93.8-19.388-60.86-90.991 96.725z"/><path fill="#ffb78b" fill-opacity=".094" d="M768.702 569.176L898 596.621 754.28 320.064l-33.288 130.88z"/><path fill="#21200f" fill-opacity=".91" d="M305.93 641.456L193.034 734.54l-37.445-172.664-63.964 321.852z"/><path fill="#a2cfd6" fill-opacity=".627" d="M408.5 260.179l8.32 4.216 207.445 66.4-84.232-32.905z"/><path fill="#bcfac7" fill-opacity=".22" d="M311.307 660.107l-64.428 21.05-84.41-13.056 110.346-8.568z"/><path fill="#490000" fill-opacity=".314" d="M578.236 303.168l137.635 106.275L581.4 293.638l-8.675 11.52z"/><path fill="#886a4e" fill-opacity=".6" d="M898 1023.121L751.812 897.429l-14.858 97.006L874.433 665.88z"/><path fill="#eeffd7" fill-opacity=".322" d="M463.944 627.828l-16.63-12.412-13.587-46.76 9.535 15.797z"/><path fill="#968769" fill-opacity=".404" d="M232.724 724.097l-23.144 23.251-29.042 72.826-2.643 80.705z"/><path fill="#0d293e" fill-opacity=".612" d="M453.35-22.872l58.165 256.541-47.504 14.338-87.72-51.396z"/><path fill="#fed31b" fill-opacity=".38" d="M466.001 465.83l-1.008 3.688-51.155 24.068 27.38-43.201z"/><path fill="#eef4ea" fill-opacity=".471" d="M258.598 369.16l69.813 56.151 41.12-55.747-62.854 53.698z"/><path fill="#48130e" fill-opacity=".561" d="M275.686 552.124l17.716-83.745 309.736-36.56-178.72-134.871z"/><path fill="#a42023" fill-opacity=".298" d="M683.048 824.646l127.298 14.013L674.73 577.872l73.148 226.766z"/><path fill="#37180f" fill-opacity=".949" d="M387.124 609.538l-3.172-172.37-117.255-24.902 34.605 121.395z"/><path fill="#dfae8e" fill-opacity=".404" d="M303.05 169.921l20.493 17.222-10.5 32.293-14.574-14.743z"/><path fill="#0f2d43" fill-opacity=".796" d="M26.107 134.434L-62 215.258l273.725 35.882-57.954-101.972z"/><path fill="#380e09" fill-opacity=".925" d="M478.78 515.408l80.398-173.809-144.004-43.397 216.033 106.63z"/><path fill="#b8fcfe" fill-opacity=".318" d="M586.218 966.748l-27.785 37.686-165.373 13.002 116.748 12.726z"/><path fill="#aee7eb" fill-opacity=".408" d="M554.094 326.592l75.534 46.758 22.45 28.205-114.645-74.317z"/><path fill="#d9d7f9" fill-opacity=".561" d="M213.82 976.302l61.384 26.773L461.451 1086h-325.56z"/><path fill="#7cd5fe" fill-opacity=".298" d="M826.614 1003.563L898 648.67l-1.978 390.782L741.973 1086z"/><path fill="#f9fefb" fill-opacity=".49" d="M701.21 365.839l-61.57 56.78 48.59-74.08-1.945-8.675z"/><path fill="#9a0000" fill-opacity=".176" d="M649.203 412.818l75.257-61.832 44.404 133.446-89.937 67.518z"/><path fill="#2e130b" fill-opacity=".855" d="M335.074 586.396l209.679-93.113-204.82 39.539 9.077 127.21z"/><path fill="#bbdbe0" fill-opacity=".678" d="M688.061 938.873l32.782 1.322 15.708 72.224-76.692 9.054z"/><path fill="#38271f" fill-opacity=".988" d="M400.269 772.711l-60.887-98.657-6.828-59.86-56.701-92.326z"/><path fill="#71a3ae" fill-opacity=".725" d="M603.49 964.578L459.897 1086l193.449-115.334-63.2 108.256z"/><path fill="#342109" fill-opacity=".388" d="M373.14 239.56l-63.21-138.035 57.52 256.408 16.417-32.44z"/><path fill="#3c767d" fill-opacity=".522" d="M674.592 939.005l25.753-3.959-67.399 27.633-194.565 27.74z"/><path fill="#392713" fill-opacity=".996" d="M229.26 225.919l160.38 66.653-180.906-25.169 128.24-47.868z"/><path fill="#311c01" fill-opacity=".486" d="M213.523 145.865l-51.263 21.91 101.823 11.476 125.214-74.729z"/><path fill="#1a281a" fill-opacity=".451" d="M786.1 591.134l15.21 223.738-78.816-163.242-24.97-89.837z"/><path fill="#625560" fill-opacity=".486" d="M497.803 463.618l-20.721 44.323-35.716 6.388-64.126 4.27z"/><path fill="#d7fbfe" fill-opacity=".424" d="M620.511 308.05l-10.535-.296 30.263 24.792-86.611-49.497z"/><path fill="#190a04" fill-opacity=".827" d="M678.835 409.548L584.886 694.33 445.39 579.487l26.722 65.806z"/><path fill="#1f1904" fill-opacity=".71" d="M276.605 776.672l76.687-134.967-92.879 45.954-140.325-17.013z"/><path fill="#fffff1" fill-opacity=".298" d="M316.038 597.61l52.5-4.273-8.838 17.402-38.542-29.453z"/><path fill="#3a0805" fill-opacity=".651" d="M570.236 622.513l195.34 153.864-151.872-29.134 98.816-92.432z"/><path fill="#5e5b5e" fill-opacity=".745" d="M295.213 994.25l244.062-38.572-111.87 1.202 55.669 14.587z"/><path fill="#fdf3fe" fill-opacity=".196" d="M171.071 886.938l-58.175 143.85-87.564-27.072L73.842 1086z"/><path fill="#7b3733" fill-opacity=".89" d="M609.758 282.125l-31.631-1.486 82.164 59.216 40.693 9.05z"/><path fill="#f1ffff" fill-opacity=".404" d="M417.176 304.32l2.254 3.296-34.61 37.01 50.289-109.072z"/><path fill="#5d352c" fill-opacity=".765" d="M526.144 425.996l-61.141 25.619L293.51 463.02l215.645-38.24z"/></svg>