<svg xmlns="http://www.w3.org/2000/svg" width="228" height="278" viewBox="0 0 836 1024"><path fill="#5b5e61" d="M0 0h836v1024H0z"/><g fill-opacity=".502"><path fill="#fff" d="M234 410l152 420 432-588z"/><path d="M678 750L-62 862l208 224z"/><path d="M-62 514l88 572 136-644z"/><path fill="#fff" d="M302 770l196-336 28 320z"/><path fill="#3e5c00" d="M586 1086l-72-620 384 240z"/><path fill="#3b1c16" d="M458 402L898 22 154-62z"/><path fill="#fff8f7" d="M566 162l244 168-260 68z"/><path fill="#3d5ced" d="M258-62L22 494-62 58z"/><path fill="#fff" d="M494 882l84 204-152-68z"/><path d="M-62 878l472-80-136 288z"/><path fill="#253775" d="M502 582l396-264-312 76z"/><path fill="#00132f" d="M898 258l-296-4L798-62z"/><path fill="#d0d2d8" d="M486 474l272-60 140 80z"/><path fill="#9cb1e3" d="M-62 426l428-172L74 474z"/><path fill="#8da8ff" d="M422 162L106 286l80-104z"/><path fill="#000010" d="M-62 442l188 72-68 572z"/><path fill="#fcf2e7" d="M458 354l88 456-244-360z"/><path fill="#1d1c16" d="M210 206l20-256L570 78z"/><path fill="#000002" d="M-62 898l640-152-376 340z"/><path fill="#fff" d="M362 946l184 16-92-44z"/><path fill="#000040" d="M126 250l-84-92-104 216z"/><path fill="#6c769a" d="M366 794l-252 52 172-572z"/><path fill="#c88262" d="M598-54l-92 496 156-284z"/><path fill="#4b6111" d="M898 574l-388-4 296 516z"/><path fill="#b1b4ae" d="M682 578l216-56-360-4z"/><path fill="#250d13" d="M310 258l252-12-44 144z"/><path fill="#fffffe" d="M598 254L486 538l180-232z"/><path fill="#7296ff" d="M198 94l16-156L38 162z"/><path fill="#fff" d="M514 410l4 328-104 44z"/><path fill="#8db6ff" d="M806 334l4-72-124-20z"/><path fill="#4f4e66" d="M102 786l32-468 196 252z"/><path fill="#344d87" d="M182 266l160-80 56 224z"/><path fill="#899f40" d="M898 994l-320 92-52-136z"/><path fill="#fffce7" d="M306 378l-100 24 204 24z"/><path fill="#f2f1db" d="M530 794l28 60-28 100z"/><path fill="#120e0a" d="M294 398l-60 60 80-20z"/><path fill="#082d96" d="M898 434l-140-84-160 56z"/><path fill="#b7b1b2" d="M326 814l140-292-180-88z"/><path fill="#03030b" d="M454 770l36 148-552 28z"/><path fill="#bacfff" d="M354 950l-32 44 132-52z"/></g></svg>