<svg xmlns="http://www.w3.org/2000/svg" width="228" height="278" viewBox="0 0 836 1024"><path fill="#6e7a7f" d="M0 0h836v1024H0z"/><g fill-opacity=".502"><path fill="#85c6ff" d="M642 334l76 752L2 430z"/><path fill="#462e05" d="M78-62l820 680V230z"/><path fill="#1e7bd7" d="M318 1086L126 538l536 460z"/><path fill="#492e13" d="M-62 1010l236-360 152 436z"/><path fill="#b77d40" d="M-62-50l376 500 220-196z"/><path fill="#412500" d="M898 1086l-188-12 116-612z"/><path d="M454 194L410 10 190 70z"/><path fill="#331d00" d="M-62 462l132-68-60 512z"/><path fill="#053370" d="M678 566L450 690l196-272z"/><path fill="#a8c7f7" d="M26 746l488-408-424 64z"/><path fill="#ff936d" d="M710 886l92-96-48-288z"/><path fill="#7d804e" d="M898 10L718 478 322-62z"/><path fill="#7c6a33" d="M-42 10l20 460 320-136z"/><path fill="#bac8f6" d="M726 658l-136-64 60 492z"/><path fill="#ff9b78" d="M138 918L14 834l48-148z"/><path fill="#b3dcff" d="M466 498l184-116-244-52z"/><path fill="#4c89c7" d="M594 614L58 570l552 516z"/><path fill="#060000" d="M182 126l188-44L258-30z"/><path fill="#711b00" d="M722 698l-44-120 68-84z"/><path fill="#c9daff" d="M722 1034l-68-208-116 144z"/><path fill="#111900" d="M770 482l72 296 56-268z"/><path fill="#120000" d="M290 374l-64-44 140-20z"/><path fill="#da8f6d" d="M378 462L206 118l124 4z"/><path d="M450 74L302 34l80 184zM158 666l40 84-96 56z"/><path fill="#93c6fa" d="M34 690l24-152 100 188z"/><path fill="#809852" d="M258-54L-62-2l196 280z"/><path fill="#2a5e8e" d="M310 1086L110 518l268 376z"/><path fill="#fff" d="M410 446l-44-20 72-100z"/><path fill="#686356" d="M402 314l496 140L526-62z"/><path fill="#8cbbf2" d="M78 450l244 236 244-172z"/><path fill="#131000" d="M50 738l-72-216-40 376z"/><path fill="#75b2f9" d="M682 570l-84-212 120 124z"/><path fill="#8d4a38" d="M722 966l56-128-108-56z"/><path fill="#ce8b5b" d="M258 394l104 44 88-164z"/><path fill="#5d4c12" d="M110 406L-6 654l-56-136z"/><path fill="#ffb392" d="M254 922l-28 60 44 16z"/><path fill="#00357f" d="M362 442l-44 52 116-40z"/><path fill="#de9790" d="M58 846l112-72L54 934z"/><path fill="#4d2b27" d="M582 522l36 104 48-72z"/></g></svg>