<svg xmlns="http://www.w3.org/2000/svg" width="228" height="278" viewBox="0 0 836 1024"><path fill="#5e373a" d="M0 0h836v1024H0z"/><g fill-opacity=".502"><path fill="#d1ccd4" d="M30-62l492 320-584 284z"/><path fill="#2eccff" d="M310 558l348-12-152 204z"/><path fill="#270000" d="M210 1086L-58 410l956 564z"/><path d="M754-62l4 564L450 50z"/><path fill="#ff3442" d="M178 366L22 794l372-492z"/><path fill="#b10000" d="M670 758l228-212-96-608z"/><path fill="#a9acae" d="M122 594l28-644 240 40z"/><path fill="#000603" d="M894 1086L534 754l136-216z"/><path fill="#740f06" d="M-22 722l504-536 172 236z"/><path fill="#2ca3ff" d="M334 686l-4-116 356-28z"/><path fill="#f65977" d="M742 466L578 330l28 212z"/><path fill="#998289" d="M558 794L450 622l-12 196z"/><path fill="#000104" d="M762 466L702-62 554 306z"/><path d="M30 1086l-92-304 88-336z"/><path fill="#7e5c33" d="M546 90l-224 56 244 344z"/><path d="M246 882V482L62 1086z"/><path fill="#740b0f" d="M190 978l380-300-292-4z"/><path fill="#ffdcb4" d="M898 854l-20 92-116-248z"/><path fill="#9a0000" d="M898 18l-96 624-80-704z"/><path fill="#000909" d="M470-18L318 106l140 20z"/><path fill="#ff94ad" d="M110 546l180-164-68-48z"/><path fill="#888978" d="M-10 270L-38-62h600z"/><path fill="#a7733d" d="M114 1086L10 758l88-88z"/><path fill="#032a2d" d="M618 1066l276-16-312-412z"/><path d="M678 434v108l-40-124z"/><path fill="#c5c2d7" d="M450 462l-76 28-80-16z"/><path fill="#d0000b" d="M198 358l96 68 8 280z"/><path fill="#cafefb" d="M442 818l28-68-16-68z"/><path fill="#ff1126" d="M522 550l20-184 28 180z"/><path fill="#170905" d="M526 522l-168-92 140-108z"/><path fill="#ff000c" d="M494 546l-64 4 20-124z"/><path fill="#ff1327" d="M798 730l-84-76-4-212z"/><path fill="#becde0" d="M658 530l-68-16 12-96z"/><path fill="#cea677" d="M422 390l-64-100 80-72z"/><path fill="#000c13" d="M134 486L-62 838V482z"/><path fill="#007dff" d="M582 662l-112-32-132 44z"/><path fill="#00050a" d="M846 802l-8-148-88-72z"/><path fill="#95adbf" d="M10 198l376 108-448 44z"/><path fill="#b90003" d="M346 710l32 196-72 180z"/><path fill="#000d0b" d="M462 690l-72-8-28 264z"/></g></svg>