<svg xmlns="http://www.w3.org/2000/svg" width="228" height="278" viewBox="0 0 836 1024"><path fill="#3a3d6e" d="M0 0h836v1024H0z"/><path fill="#ac7c5c" fill-opacity=".804" d="M70.605 72.245l136.943 294.273 214.256 26.07L314.238-62z"/><path fill="#d8e7f8" fill-opacity=".51" d="M169.725 766.55l-45.408 170.542 234.817 18.924-61.224-173.1z"/><path fill="#080f56" fill-opacity=".851" d="M458.194 1086L227.78 618.923l351.172-34.825 206.639 327.463z"/><path fill="#bacbfd" fill-opacity=".459" d="M756.645 724.178L898 759.467l-93.342 293.981-193.023-618.375z"/><path fill="#dbbccb" fill-opacity=".639" d="M898 329.536V237.44l-280.554-4.716 52.833 65.85z"/><path fill="#001243" fill-opacity=".8" d="M884.16 201.106L898-62 303.491 2.228l171.376 254.449z"/><path fill="#a57e6f" fill-opacity=".706" d="M144.997 588.088l32.707 29.735L-47.42 1086 73.837 552.98z"/><path fill="#1a1613" fill-opacity=".859" d="M46.044 365.708L-62-.923l623.832 27.14L117.82-62z"/><path fill="#adbcfb" fill-opacity=".337" d="M525.59 396.555L287.98 644.946l372.909-169.21 54.626 196.041z"/><path fill="#314cff" fill-opacity=".502" d="M633.747 224.496l25.982 80.232-285.715 115.206 26.996-137.88z"/><path fill="#603e24" fill-opacity=".898" d="M178.272 747.44L94.2 664.45 32.962 923.43l86.323 10.448z"/><path fill="#1d2b81" fill-opacity=".945" d="M23.839 340.112l533.934 149.884-295.538 105.906L-62 536.77z"/><path fill="#032379" fill-opacity=".537" d="M898 497.108L638.633 106.285l62.793 83.194 41.604 595.18z"/><path fill="#94a6ff" fill-opacity=".329" d="M269.098 489.484l-24.025 49.923 226.263 49.764L650.8 540.155z"/><path fill="#4967a8" fill-opacity=".671" d="M-62 1040.821L140.28 904.9l250.087 32.623L385.956 1086z"/><path fill="#efc0a0" fill-opacity=".467" d="M400.589 395.627l23.063-113.406-65.08-22.725-29.943 198.251z"/><path fill="#1520a2" fill-opacity=".549" d="M600.55 455.462L659.155 1086 780.93 951.132l-34.838-135.716z"/><path fill="#9a9dc1" fill-opacity=".984" d="M825.076 893.007L713.418 1083.49l155.396-161.262-177.84 148.025z"/><path fill="#27231e" fill-opacity=".408" d="M164.916 41.815L10.723 644.305-62 199.522l430.705-106.68z"/><path fill="#00096a" fill-opacity=".451" d="M842.629 375.923L624.158 514.198 425.069 307.649l158.516-1.45z"/><path fill="#ffae6b" fill-opacity=".545" d="M828.405 242.964l-79.22-15.092 35.66 148.084L898 239.195z"/><path fill="#533426" fill-opacity=".957" d="M336.47 293.282l-67.992 69.309-56.982 11.848 90.166 65.266z"/><path fill="#000300" fill-opacity=".318" d="M550.882 879.313l-410.505-373.16 33.87 73.305 254.476 473.743z"/><path fill="#d7e4fa" fill-opacity=".467" d="M-62 783.532l131.372-5.635 3.016-98.796-112.233 385.157z"/><path fill="#c99887" fill-opacity=".773" d="M137.828 292.911l130.1-176.014-151.207 59.989 152.952 89.59z"/><path fill="#f0f8eb" fill-opacity=".384" d="M77.843 74.673l203.692-47.434 35.613-9.562-139.625-7.567z"/><path fill="#0f1f53" fill-opacity=".941" d="M841.84 121.225l-295.8 133.794-173.771 10.867-3.397-172.2z"/><path fill="#0e2b73" fill-opacity=".722" d="M-62 854.66L50.75 747.234l10.78-51.494 8.796-437.623z"/><path fill="#fed9e0" fill-opacity=".475" d="M64.71 550.045l10.419 60.173 105.741 5.884-57.334-25.863z"/><path fill="#f4f4e4" fill-opacity=".333" d="M571.106 441.3l-49.83-36.79-52.739 24.95 37.986 51.707z"/><path fill="#fffff8" fill-opacity=".227" d="M123.43 780.171l22.59 93.154 178.476 26.883-19.18-79.496z"/><path fill="#2c1902" fill-opacity=".612" d="M67.97 909.517l46.97-247.154 8.673 265.856-59.461 26.24z"/><path fill="#112462" fill-opacity=".867" d="M199.75 381.854L-62 505.563l32.324-141.193L129.51 250.122z"/><path fill="#0b0e1a" fill-opacity=".992" d="M-62 165.068L158.68 10.974l23.759 8.162L30.01-62z"/><path fill="#d8d8cf" fill-opacity=".522" d="M251.32 535.436l21.755-44.312 47.622 36.566-37.886 10.184z"/><path fill="#162c84" fill-opacity=".451" d="M105.792 679.016l413.471-55.848-21.348-96.783L185.9 793.476z"/><path fill="#422f2d" fill-opacity=".608" d="M-62 173.874l11.074 226.958 301.732-223.877-5.316 52.91z"/><path fill="#fca586" fill-opacity=".337" d="M203.455 117.494l145.716 77.197 39.158 113.593-136.929-65.13z"/><path fill="#111246" fill-opacity=".451" d="M796.948 824.2L395.863 1086l403.368-185.643L581.637 747.91z"/><path fill="#98a1c3" fill-opacity=".667" d="M666.417 494.934l135.925 471.461-163.448-434.5 6.947-86.907z"/><path fill="#b4afb9" fill-opacity=".349" d="M590.084 476.32l36.331 74.89-136.062 11.954-203.671 36.518z"/><path fill="#090f5c" fill-opacity=".576" d="M484.777 538.116l-32.53-151.623-167.145 87.432 101.31 20.223z"/><path fill="#1525a1" fill-opacity=".392" d="M682.784 685.431l-186.85 123.46-71.92 52.632L627.31 503.757z"/><path fill="#e8fdff" fill-opacity=".345" d="M635.357 234.2l27.058 68.03 42.092 12.287 27.783-53.927z"/><path fill="#543408" fill-opacity=".373" d="M150.17 83.408l-211.662 180.8L310.885 70.047l51.667 102.998z"/><path fill="#a45f3c" fill-opacity=".549" d="M390.339 349.987l-21.949-64.568-59.872 70.747 7.785 107.52z"/><path fill="#401c00" fill-opacity=".463" d="M898 347.508V207.91l-89.656 124.766-141.52 80.426z"/><path fill="#fffbd7" fill-opacity=".227" d="M369.914 71.568L175.708-62l184.311 174.918.828 85.428z"/><path fill="#8a1039" fill-opacity=".588" d="M321.854 575.873l8.615-12.596-38.102 99.178-35.477-67.436z"/><path fill="#f6fff7" fill-opacity=".224" d="M898 729.022L783.913 765.46l38.67 202.872-74.218 35.368z"/><path fill="#1a3278" fill-opacity=".98" d="M642.806 344.042L898 750.704l-173.634-74.77-33.007-78.13z"/><path fill="#fff0c6" fill-opacity=".282" d="M85.213 77.568l80.1-66.229-52.1 81.516 43.24 197.628z"/><path fill="#00011e" fill-opacity=".561" d="M586.61 360.557l11.435 27.82-217.135 17.857 236.95 5.637z"/><path fill="#e8846d" fill-opacity=".384" d="M85.317 681.831l91.738-26.779-17.37-86.36-110.71 83.027z"/><path fill="#5e94df" fill-opacity=".365" d="M51.226 933.557l16.27 16.666L-62 1050.536 19.13 839.48z"/><path fill="#cee5e8" fill-opacity=".49" d="M334.723 466.234l86.03-149.683-37.392-58.622 17.697 114.746z"/><path fill="#212fa1" fill-opacity=".612" d="M580.696 897.166l135.523-183.64-128.383 217.13L431.956 1086z"/><path fill="#2830b6" fill-opacity=".631" d="M777.775 367.247l-47.895 4.274-15.373-137.404 43.284 26.938z"/><path fill="#936557" fill-opacity=".957" d="M192.868 311.66l156.233-25.048-136.367 101.069-83.85-146.711z"/><path fill="#464d58" fill-opacity=".969" d="M327.505 798.953l-82.221-91.82 62.678 94.382 81.51 164.649z"/><path fill="#361b02" fill-opacity=".592" d="M104.792 769.567l.59-20.756-38.606-62.674 83.23-19.528z"/><path fill="#000746" fill-opacity=".549" d="M183.98 602.084L164.103 744.69l88.337-161.142-135.174-19.855z"/><path fill="#b1b4c6" fill-opacity=".973" d="M757.443 1086h-64.752l127.594-89.047L898 844.003z"/><path fill="#ffba7d" fill-opacity=".204" d="M148.49 717.39l.423 173.126-76.837-181.477L-62 1008.95z"/><path fill="#2730bf" fill-opacity=".761" d="M744.428 939.006l-24.518 2.879L548.37 1086l181.877-43.643z"/><path fill="#6577a5" fill-opacity=".573" d="M113.044 777.573l157.59 27.3 6.799-133.416-25.211 86.854z"/><path fill="#192582" fill-opacity=".82" d="M532.828 536.87L335.873 793.808l171.02-192.462-283.265 72.248z"/><path fill="#2735a8" fill-opacity=".765" d="M138.526 601.82l-82.747-66.98 73.257-115.946-.5 127.97z"/><path fill="#a7afd1" fill-opacity=".973" d="M760.823 804.276l-41.353-21.88 5.797-88.166-61.174-77.494z"/><path fill="#e1fbdb" fill-opacity=".302" d="M248.66 404.52l18.563 10.314 106.517 26.559-96.055-4.082z"/><path fill="#0f2bfb" fill-opacity=".169" d="M708.08 334.187l-260.908 73.371-48.938-129.716 210.506-46.287z"/><path fill="#000d9c" fill-opacity=".306" d="M130.926 494.015l351.907 13.833-97.077 54.49L168.33 328.902z"/><path fill="#102054" d="M751.431 227.941l-97.143 9.038 6.102-164.536 233.981 172.58z"/><path fill="#000009" fill-opacity=".278" d="M259.338 675.05l13.945-49.66 33.75 192.671 192.255-166.823z"/><path fill="#0d1354" fill-opacity=".898" d="M167.857 527.205l-33.46-30.516 274.87-27.696-79.31-23.844z"/><path fill="#031039" fill-opacity=".671" d="M463.235 79.162l427.312-37.56L879.834-62 200.467-15.041z"/><path fill="#4161fd" fill-opacity=".224" d="M644.931 472.657L438.606 745.039l-78.035 125.196 80.28-153.476z"/><path fill="#09093f" fill-opacity=".522" d="M444.941 501.931l130.685-13.977 8.413-32.989 40.284.02z"/><path fill="#3e1907" fill-opacity=".337" d="M124.195 254.559l83.721-63.908 65.608 12.921-15.59 11.034z"/><path fill="#0d1150" fill-opacity=".878" d="M754.307 804.116L508.865 1086 701.07 882.268l51.832-30.658z"/><path fill="#1a2585" fill-opacity=".835" d="M585.116 745.038l-135.903 4.732 199.931-231.08-196.36 306.52z"/><path fill="#212d9d" fill-opacity=".82" d="M738.845 706.828l-59.295 65.105-92.307-168.754 161.96 152.387z"/><path fill="#000628" fill-opacity=".824" d="M680.17 405.072l55.172-.01 31.601-29.864-94.393 2.185z"/><path fill="#281000" fill-opacity=".506" d="M344.891 411.815l-11.804 10.747-98.143-36.144 39.05-28.044z"/><path fill="#c69384" fill-opacity=".847" d="M182.16 286.555l139.633-56.724-181.473 23.121 22.262 49.777z"/><path fill="#f9fff9" fill-opacity=".263" d="M536.933 522.369l28.71-56.749L557 536.642l-80.697-119.665z"/><path fill="#2e3e9b" fill-opacity=".945" d="M313.857 484.462l143.898 66.42-24.22 25.034-2.647-65.454z"/><path fill="#a4afbe" fill-opacity=".6" d="M387.539 993.892l7.804 19.484-28.698-63.498 8.056-27.688z"/><path fill="#eaf1fc" fill-opacity=".435" d="M776.553 836.144l18.736 5.673L898 1043.83l-63.836-129.317z"/><path fill="#3e2700" fill-opacity=".463" d="M64.419 102.488l-97.747 129.91-4.977 65.957 169.183-121.828z"/><path fill="#00001c" fill-opacity=".294" d="M468.108 770.627l-128.04 144.268L560.41 717.108l80.082-145.347z"/><path fill="#e4c3c0" fill-opacity=".557" d="M817.277 244.235l-50.818 32.437-41.715-46.115 103.337 8.05z"/><path fill="#1c275a" fill-opacity=".435" d="M595.18-58.375l86.017 340.839 24.947-16.699-57.883-35.516z"/><path fill="#1a217f" fill-opacity=".863" d="M323.723 575.85l-29.85 110.804 76.408-66.975 4.592 12.51z"/><path fill="#01012c" fill-opacity=".514" d="M603.598 901.177l56.736-71.429 4.59 45.48L511.911 1086z"/><path fill="#360800" fill-opacity=".533" d="M195.683 342.533l-7.708-2.304 54.527-24.844-56.285 3.89z"/><path fill="#d0c2b9" fill-opacity=".506" d="M346.626 56.779l7.405-1.234-40.894-28.082-144.322-11.248z"/><path fill="#2637af" fill-opacity=".725" d="M383.54 236.634l42.565 86.607-36.97 80.677 124.568-8.635z"/><path fill="#080c3e" fill-opacity=".427" d="M818.313 966.472l-36.268 117.194L898 994.735l-119.741 17.42z"/><path fill="#f0d8cb" fill-opacity=".455" d="M26.749 785.036l51.732-72.658-3.74 40.28-46.526 57.834z"/><path fill="#e3eced" fill-opacity=".475" d="M418.933 341.315l-54.77 78.911 34.402-43.402-5.754-116.404z"/><path fill="#d7a591" fill-opacity=".408" d="M225.493 125.252l-43.502 137.093 103.904 43.928-162.129-113.598z"/><path fill="#0b1048" d="M611.903 867.761l-227.337 92.682L421.576 1086l28.952-190.02z"/><path fill="#00003c" fill-opacity=".325" d="M653.344 525.137L583.726 341.59l-11.407-51.956-16.701 111.326z"/><path fill="#e6e5e3" fill-opacity=".541" d="M803.502 988.242l17.325-58.552-24.039 49.881-51.866 65.702z"/><path fill="#2b37a0" fill-opacity=".71" d="M608.977 948.199l12.118 1.263L733.33 774.089l17.02 29.011z"/><path fill="#a4a8bb" fill-opacity=".431" d="M345.682 592.568l39.203 9.526 86.968-38.918-143.606 14.766z"/><path fill="#2f40c3" fill-opacity=".443" d="M265.61 550.363l-107.342 20.509 33.968-55.472 56.447 8.977z"/><path fill="#1f289b" fill-opacity=".459" d="M786.9 989.383l33.85-95.617-20.34 50.646-22.914 30.865z"/><path fill="#6584fd" fill-opacity=".298" d="M638.363 226.026L449.51 276.972l53.856-23.431 114.71 32.74z"/><path fill="#0c1f9d" fill-opacity=".404" d="M340.487 513.107l53.327 121.83-3.653-63.545-136.729-9.056z"/><path fill="#2531a0" fill-opacity=".655" d="M561.292 483.984l-18.768-37.746L719.1 404.913l-92.361-7.005z"/><path fill="#00011a" fill-opacity=".631" d="M419.315 986.756l193.5-276.71L457.2 963.742l-36.117 27.877z"/><path fill="#a96027" fill-opacity=".325" d="M21.434 845.54l23.843 92.32 55.492-137.944-32.985-47.495z"/><path fill="#000204" fill-opacity=".318" d="M228.867 606.908l-123.27-63.89 216.911 179.505L423.956 987.82z"/><path fill="#03063d" fill-opacity=".482" d="M480.55 503.919l20.484 41.848.921-60.712-149.91 2.788z"/><path fill="#3d210e" fill-opacity=".267" d="M185.096 129.223l-198.96 84.006 315.36-167.763 37.307 25.733z"/><path fill="#8f6d54" fill-opacity=".541" d="M135.55 102.684l69.539-77.216 49.39 29.915-85.434 64.672z"/><path fill="#222f88" fill-opacity=".776" d="M325.664 834.473l188.162-292.555L626.1 508.435 517.938 556.66z"/><path fill="#3d51ce" fill-opacity=".71" d="M735.526 265.27l-59.546-26.625 34.867-14.188 42.89 34.88z"/></svg>