<svg xmlns="http://www.w3.org/2000/svg" width="228" height="278" viewBox="0 0 836 1024"><path fill="#857a7b" d="M0 0h836v1024H0z"/><g fill-opacity=".502"><path d="M758 390l-624-36 256 732z"/><path fill="#fff" d="M-62 1010l372 76L66 290zm960-704l-72 780-168-768z"/><path fill="#ffd4b6" d="M118 374l620-184L86-18z"/><path fill="#000003" d="M294 1086l-48-480 504 172z"/><path fill="#fffdfc" d="M770 30L566 330 506 30z"/><path d="M506-62L290 54l228 96z"/><path fill="#ff934c" d="M162 686l4-468-228 276z"/><path fill="#bef1ff" d="M-62 1070l352 16-68-500z"/><path fill="#47362d" d="M242 274l404 48 108 356z"/><path fill="#53031d" d="M630 638l64 448-268-60z"/><path fill="#bed8d8" d="M310 622l368-60-228 112z"/><path fill="#bee6ff" d="M898 1014l-80-624-156 664z"/><path fill="#fff0ee" d="M302 30L150 422 134-6z"/><path fill="#fffccc" d="M578 522l36-80-104-4z"/><path fill="#b86339" d="M454 422L306 274l244-172z"/><path fill="#a57e6a" d="M598 518l156 524-8-364z"/><path fill="#000110" d="M286 630l396-120-572 16z"/><path fill="#06213d" d="M414 534l236-172-144-100z"/><path fill="#ffe6e6" d="M602 322l68-292-180 220z"/><path fill="#feffff" d="M622 646l52 72-52-188z"/><path fill="#ff983e" d="M194 306L38 278l52 324z"/><path fill="#c8eeff" d="M102 1062L10 434l-72 548z"/><path fill="#5dcfff" d="M170 722l88-4 16 300z"/><path fill="#50464a" d="M630 282L822 38l52 236z"/><path fill="#90623b" d="M122 842l72-276-76 96z"/><path fill="#563a34" d="M22 182l-84 316 192-232z"/><path fill="#fff" d="M374 510l-24-24-56 36z"/><path fill="#001321" d="M614 642l-348 56 232 260z"/><path fill="#573010" d="M510 114l-204 48 168 12z"/><path fill="#d1374d" d="M722 734l-84 216-164 40z"/><path fill="#001726" d="M266 958l180 108-172-664z"/><path fill="#2d4053" d="M122 466l300 40-92-236z"/><path fill="#000004" d="M602 418l68 204-4-260z"/><path fill="#ffc8ac" d="M458 142l-32-72-236 68z"/><path fill="#fa5b60" d="M686 90l52 64-140 160z"/><path fill="#003640" d="M674 1078V934l-216 84z"/><path fill="#eea888" d="M178 862l-92 40V566z"/><path fill="#fff1f6" d="M122 98l180 60-208 72z"/><path fill="#59201e" d="M250 278l20-68-64 12z"/></g></svg>