<svg xmlns="http://www.w3.org/2000/svg" width="228" height="278" viewBox="0 0 836 1024"><path fill="#44272a" d="M0 0h836v1024H0z"/><g fill-opacity=".502"><path fill="#ffe1b2" d="M874 810l-176 276-72-208z"/><path fill="#c6a157" d="M818 138l-332 48L702-62z"/><path fill="#002498" d="M534 1062l84-524-164-228z"/><path fill="#070002" d="M14 702l380-192-112 508z"/><path fill="#001000" d="M302 102L-62 30l92 596z"/><path fill="#f6eac4" d="M166 578l-84-28 108-104z"/><path fill="#ffc786" d="M586 126l-36 176-56-184z"/><path d="M390 62l320 120L494-62z"/><path fill="#8f0020" d="M454 1058L306 274l192 212z"/><path fill="#bfab6c" d="M234 26l48 68L478-62z"/><path fill="#a78b64" d="M110 1078l4-180 144 96z"/><path fill="#880016" d="M150 774L78 638l252-260z"/><path fill="#a99a45" d="M270 294H138l88 124z"/><path fill="#880013" d="M754 898L614 362l-28 364z"/><path fill="#ffa771" d="M286 866l68-12 60 88z"/><path fill="#f3ffff" d="M458 434l-124-4 68 24z"/><path fill="#645c3d" d="M626 454L794 6l12 560z"/><path fill="#00141a" d="M658 470l240 232-172 120z"/><path fill="#f8bd67" d="M830-62H646l-28 180z"/><path fill="#050126" d="M702 1086l-28-148-440 64z"/><path d="M458-26l-84 136 92 300z"/><path fill="#00022f" d="M334 446l36 420-196-136z"/><path fill="#9e6b3c" d="M514 382l-76-184 148-12z"/><path d="M-46 234l300 216-316 60z"/><path fill="#031204" d="M654 378l-116-64L678 86z"/><path fill="#002e7f" d="M562 410l20 344-160-408z"/><path fill="#b1062f" d="M594 750v232l72 32z"/><path fill="#002572" d="M506 542l104 456-124-52z"/><path fill="#e9bf9c" d="M686 862l20 164 112-164z"/><path fill="#64000f" d="M514 986L362 866l12-388z"/><path fill="#58000a" d="M106 554l248 388L34 678z"/><path fill="#cad5c1" d="M650 958l8-96-36-32z"/><path fill="#eceff4" d="M258 374l-44-16-12 56z"/><path fill="#000700" d="M-26 1086l136-100-160-216z"/><path fill="#9c0e39" d="M666 414l-36 188-92-264z"/><path fill="#72001a" d="M294 546L114 646l196-360z"/><path fill="#070000" d="M522 182v44l-100-72z"/><path fill="#470000" d="M678 894l-28 16 28 84z"/><path fill="#1e1d14" d="M302 378l232-28L-18-46z"/><path fill="#212717" d="M898 350l-148 88 76-500z"/></g></svg>