<svg xmlns="http://www.w3.org/2000/svg" width="228" height="278" viewBox="0 0 836 1024"><path fill="#44272a" d="M0 0h836v1024H0z"/><path fill="#e9c49f" fill-opacity=".604" d="M684.094 1086L898 813.652l-312.845 72.651 93.047 40.729z"/><path fill="#fdce6c" fill-opacity=".459" d="M777.234 146.788l-44.393 22.067L580.804 45.88 745.16-62z"/><path fill="#e0a66c" fill-opacity=".667" d="M589.921 130.011l-87.254-17.467-13.55 21.136 61.891 175.176z"/><path fill="#062673" fill-opacity=".776" d="M479.445 348.364L504.487 1086l92.725-263.55-20.303-373.225z"/><path fill="#ccc1a4" fill-opacity=".698" d="M197.272 486.27l-42.864-27.318-55.303 89.628 52.09 38.83z"/><path fill="#050e05" fill-opacity=".69" d="M121.966 510.94L242.355 59.377-11.324 255.438-53.61 605.006z"/><path fill="#2a0516" fill-opacity=".933" d="M459.726 710.87L345.687 486.712 22.831 736.763 221.17 941.54z"/><path fill="#8d0022" fill-opacity=".533" d="M351.552 928.064l24.468-639.712L498.859 557.9l-18.94 438.594z"/><path fill="#080700" fill-opacity=".82" d="M617.284 65.129L382.958 183.282l15.489-151.716 90.7-34.344z"/><path fill="#b79e61" fill-opacity=".486" d="M374.058-62L397.37 65.493 260.984 87.742l-33.322-44.47z"/><path fill="#f1caaf" fill-opacity=".298" d="M206.859 403.45l284.366 36.588-152.2 19.997L149.18 253.581z"/><path fill="#b39566" fill-opacity=".482" d="M244.016 1041.59l-138.436 42.978 16.229-169.799 67.12 16.923z"/><path fill="#710520" fill-opacity=".725" d="M582.045 823.701l39.89-520.337 88.079 439.437-112.341 202.783z"/><path fill="#6a001d" fill-opacity=".855" d="M301.907 503.91l6.876-214.835L106.81 658.977l32.344 72.717z"/><path fill="#00161b" fill-opacity=".58" d="M898 639.94l-.093 142.868-175.083 19.032-65.47-288.377z"/><path fill="#6b633f" fill-opacity=".455" d="M783.602-62l-121.04 478.701-109.728 5.22 251.964 159.61z"/><path fill="#bc7f56" fill-opacity=".639" d="M355.349 858.423l69.632 95.734-105.32-44.297-29.151-47.756z"/><path fill="#11122b" fill-opacity=".984" d="M235.69 1000.085L538.447 1086l97.68-46.948-49.94-78.801z"/><path fill="#000d25" fill-opacity=".537" d="M350.461 858.982L180.645 734.794l45.777-142.359 183.138-45.001z"/><path fill="#242718" fill-opacity=".62" d="M458.382 178.953l-26.032 170-487.53-100.888L3.027-10.806z"/><path fill="#a8a494" fill-opacity=".714" d="M656.774 863.829l-27.79-20.913-10.046-19.5 34.378 170.969z"/><path fill="#e4a24a" fill-opacity=".255" d="M497.156 421.841l-.272-84.358-64.548-120.38 151.997-13.205z"/><path fill="#0e2c71" fill-opacity=".827" d="M534.366 372.706l-101.443 1.362 120.02 343.318 54.444-162.261z"/><path fill="#001501" fill-opacity=".431" d="M620.806 387.075l107.472-183.482-93.845-72.512-96.643 165.658z"/><path fill="#deffdd" fill-opacity=".302" d="M664.394 1086l165.202-218.197-92.485-29.239 60.766-32.53z"/><path fill="#150707" fill-opacity=".941" d="M2.497 684.687L261.66 988.852l49.675 37.871-40.14-137.594z"/><path fill="#f9c163" fill-opacity=".396" d="M652.036-62H794.3L650.36 110.536l-38.482 25.072z"/><path fill="#705d1a" fill-opacity=".592" d="M261.002 354.097l-1.048-79.306-129.33 29.428 13.673 95.65z"/><path fill="#510718" fill-opacity=".91" d="M646.524 540.026l-34.8 292.53L727.02 862.49l29.284 29.736z"/><path fill="#4d0210" fill-opacity=".855" d="M37.393 681.21L341.11 932.396l-55.122-80.141L91.586 571.584z"/><path fill="#19140a" fill-opacity=".796" d="M13.19 855.41l-45.43 49.398L7.63 1086l104.768-101.972z"/><path fill="#150a00" fill-opacity=".769" d="M490.612 348.449L387.055 63.154l60.717 314.201 102.665-42.134z"/><path fill="#231002" fill-opacity=".518" d="M556.807 188.56l36.923-8.936-35.993 39.38-214.86-61.928z"/><path fill="#aa0038" fill-opacity=".341" d="M663.477 522.93l-52.96 82.598-69.257-278.649 114.51 65.603z"/><path fill="#ffb77d" fill-opacity=".455" d="M535.094 198.574l55.82-26.545-25.874-47.972-103.33 1.646z"/><path fill="#070000" fill-opacity=".592" d="M216.2 482.495l37.004-97.69L70.258 545.288-62 187.897z"/><path fill="#002070" fill-opacity=".537" d="M332.812 409.566l13.336 144.931-11.672-5.747-49.631-217.805z"/><path fill="#6b001a" fill-opacity=".824" d="M417.01 421.913l-86.274 12.103-22.117-123.883 46.832 12.395z"/><path fill="#f2fee9" fill-opacity=".439" d="M209.643 426.314l32.918-44.443-28.522-4.05-11.385 32.9z"/><path fill="#112b6f" fill-opacity=".808" d="M521.807 962.37l-24.644-58.998 91.932-54.713 5.373 120.924z"/><path fill="#e8f7fd" fill-opacity=".4" d="M446.688 429.483l-9.576 31.291 7.014-6.392-117.916-14.307z"/><path fill="#091a00" fill-opacity=".325" d="M636.272 538.854L898 332.512 823.39-62l-18.458 341.385z"/><path fill="#718287" fill-opacity=".286" d="M688.852 227.33l-34.406 36.919 66.066 71.323L898 248.797z"/><path fill="#811428" fill-opacity=".588" d="M682.403 1086l-98.517-348.188L623.519 1086l61.853-242.111z"/><path fill="#634d36" fill-opacity=".682" d="M400.998-18.49l-75.468-7.198 84.649 304.254-75.046 27.329z"/><path fill="#6a7559" fill-opacity=".463" d="M695.934 1070.078L898 850.524l-198.17-24.123 138.39-22.474z"/><path fill="#cd8c55" fill-opacity=".51" d="M495.473 277.79l-52.503-84.77 60.868 26.451-.258 16.396z"/><path fill="#980333" fill-opacity=".525" d="M329.9 453.304l31.282 85.728 136.564 49.133-34.35-131.686z"/><path fill="#080601" fill-opacity=".906" d="M608.75 123.86l-206.357-21.906 33.595-69.758 165.9 45.697z"/><path fill="#ffaa7c" fill-opacity=".408" d="M679.978 872.615l30.333 174.71 42.789-138.87-27.147-50.139z"/><path fill="#6e0320" fill-opacity=".894" d="M116.255 711.632l99.18 97.584-96.276-218.297 145.794-102.724z"/><path fill="#560011" fill-opacity=".635" d="M355.863 827.49l133.763-9.21-33.08-211.569-88.778-94.633z"/><path fill="#211513" fill-opacity=".78" d="M510.275 234.188l-22.731 49.128 187.831 20.37-46.47 86.548z"/><path fill="#031510" fill-opacity=".624" d="M898 1086l-16.487-194.174-91.603 74.195L769.425 1086z"/><path fill="#000f2d" fill-opacity=".643" d="M210.258 627.46L343.12 501.683l14.58 360.506-39.045-10.079z"/><path fill="#2d0000" fill-opacity=".682" d="M14.297 701.024l90.729-127.985-10.262 133.202 261.234 272z"/><path fill="#f7bd77" fill-opacity=".518" d="M522.973 348.354l-49.632 33.456 41.034-5.56 11.648-28.577z"/><path fill="#ffa882" fill-opacity=".212" d="M-62 762.313l217.57-294.96-187.59 315.79L-62 954.162z"/><path fill="#ffb049" fill-opacity=".082" d="M854.473 466.84L641.905 767.112l41.545-167.108 42.234-156.941z"/><path fill="#296df6" fill-opacity=".212" d="M359.787 1003.5l301.807 30.354L483.414 1086l-310.242-47.83z"/><path fill="#72593a" fill-opacity=".416" d="M748.36 10.733l88.894 76.043-80.162 109.289-133.085-69.894z"/><path fill="#441117" fill-opacity=".816" d="M437.378 1028.938l8.396 57.062-91.406-171.026-4.436-35.295z"/><path fill="#d8a480" fill-opacity=".714" d="M547.174 216.356l-21.947-77.974 6.552 117.758 42.872-27.084z"/><path fill="#230404" fill-opacity=".404" d="M663.623 419.576l70.428 121.275-64.22 69.946-54.647 243.36z"/><path fill="#0a1013" fill-opacity=".506" d="M126.533 272.512l115.605-5.003 39.998-125.666L137.16 77.5z"/><path fill="#10173b" fill-opacity=".827" d="M457.948 382.636l-88.836-104.2-1.42 45.518 43.655 43.783z"/><path fill="#fffec8" fill-opacity=".275" d="M160.062 525.485l34.257-25.708-36.55 73.376-71.365-12.246z"/><path fill="#3e0107" fill-opacity=".796" d="M156.794 414.064l42.866 89.004 47.224-10.805-5.358-70.49z"/><path fill="#78ca88" fill-opacity=".392" d="M627.28 419.656l-34.274 23.158 16.085 25.597 26.34-22.895z"/><path fill="#ffb758" fill-opacity=".192" d="M340.024 987.674l-64.215-66.16 92.171 53.79-92.399-113.974z"/><path fill="#01030a" fill-opacity=".765" d="M627.07 1011.764l-340.31-9.985-36.137-139.18-10.516 111.603z"/><path fill="#ffa287" fill-opacity=".243" d="M407.252 948.84l-154.35-156.815 167.39 139.336 4.969-14.298z"/><path fill="#930632" fill-opacity=".431" d="M721.175 818.476l-40.418-170.492-88.756 180.413-10.008-171.253z"/><path fill="#d2c491" fill-opacity=".18" d="M307.338-3.399L373.8-56.82 333.883 58.3 199.845 94.364z"/><path fill="#0c0400" fill-opacity=".435" d="M683.953 868.681l-54.936-204.714-2.756 161.037 42.692 49.965z"/><path fill="#5c4a2c" fill-opacity=".51" d="M27.476 796.993l99.132 259.73 4.524-227.736-49.787-32.62z"/><path fill="#060006" fill-opacity=".439" d="M257.396 339.607l45.322 35.407 120.76 1.647-149.947-46.994z"/><path fill="#e8f3c9" fill-opacity=".459" d="M99.74 1086l200.04-71.31-2.732 71.31-128.012-22.7z"/><path fill="#720624" fill-opacity=".788" d="M463.274 963.314l-75.417 20.714 93.426-144.609 22.755 145.004z"/><path fill="#c0c4ad" fill-opacity=".537" d="M744.922 845.847l20.064 100.44 42.993-42.49-61.417-66.095z"/><path fill="#a05d2f" fill-opacity=".553" d="M478.765 174.789l46.383 8.182-24.933-62.012-33.552-5.485z"/><path fill="#050300" fill-opacity=".58" d="M321.876 785.255l-81.195 4.05-92.003-101.038 67.044 3.64z"/><path fill="#78463c" fill-opacity=".792" d="M713.673 999.745l-72.3 55.614 21.732-158.013-3.821 75.435z"/><path fill="#3569ff" fill-opacity=".18" d="M328.73 753.247l48.986 14.52-37.182 26.605-77.239-73.69z"/><path fill="#f0eeec" fill-opacity=".271" d="M202.368 403.852l39.126-48.34 5.43 17.54 26.256 4.525z"/><path fill="#ff9b64" fill-opacity=".224" d="M469.808 328.816l-2.53-34.249 90.073 16.919-27.682-40.526z"/><path fill="#d2b9c2" fill-opacity=".4" d="M333.442 428.188l8.98 13.468 14.281 13.484 80.115-14.607z"/><path fill="#183e8d" fill-opacity=".533" d="M589.667 480.809l-96.429 27.48-5.097 69.424 109.054-13.351z"/><path fill="#314274" fill-opacity=".522" d="M650.25 371.77l18.485-25.954 4.473 30.031-8.984 139.15z"/><path fill="#050200" fill-opacity=".718" d="M402.077 230.485l54.466-79.358-7.92-71.174-57.998-29.462z"/><path fill="#64001b" fill-opacity=".808" d="M624.275 364.911l-28.948 36.029-24.802 65.722-23.169-132.788z"/><path fill="#0e0702" fill-opacity=".561" d="M528.294 236.028L409.919 80.268l-5.777 61.626 113.38 41.275z"/><path fill="#e3b98c" fill-opacity=".157" d="M228.793 948.705l-120.426-10.516 61.279 92.033 53.504-130.036z"/><path fill="#810629" fill-opacity=".847" d="M448.736 423.544l-118.255-25.669-.858-18.755 96.999-6.565z"/><path fill="#000900" fill-opacity=".192" d="M734.76 184.612L898 126.529l-152.69 117.9-308.195-57.933z"/><path fill="#88012c" fill-opacity=".561" d="M310.01 402.393l-34.104-42.887-18.195 84.311 42.26 105.457z"/><path fill="#0c0100" fill-opacity=".612" d="M439.83 974.244l109.44 9.568 99.367 29.73-31.308 16.83z"/><path fill="#082465" fill-opacity=".725" d="M547.73 323.794l-5.137 193.794-90.798-77.055 72.124-78.901z"/><path fill="#030f06" fill-opacity=".255" d="M770.981 663.928l-4.367-100.834 129.323-57.893L898 1086z"/><path fill="#eaf1ec" fill-opacity=".612" d="M738.287 979.973L639.69 1086h74.182l4.09-121.893z"/><path fill="#6e0420" fill-opacity=".659" d="M183.28 740.643l140.697 111.37-122.822-42.787-97.717-182.825z"/><path fill="#939b1d" fill-opacity=".294" d="M198.484 288.734l-18.099 70.255 83.402-18.23 8.274-44.244z"/><path fill="#820c31" fill-opacity=".522" d="M631.193 951.216l-24.072 47.791-22.239-102.867 17.99-402.459z"/><path fill="#49381f" fill-opacity=".741" d="M367.89 44.625l-.465 146.625-70.879-11.164 6.442-95.756z"/><path fill="#ed9160" fill-opacity=".325" d="M297.189 849.119l72.42 20.683-41.581 6.386 55.984 103.113z"/><path fill="#160000" fill-opacity=".404" d="M463.447 615.885l-81.355-.188-170.453 3.307 95.893-88.267z"/><path fill="#0e2462" fill-opacity=".871" d="M536.784 552.483l55.299 319.158-96.21 25.734-9.95-98.732z"/><path fill="#50431a" fill-opacity=".498" d="M561.08 34.774l31.858 17.709L748.453-62h-477.08z"/><path fill="#583e3d" fill-opacity=".886" d="M188.159 925.812l72.704 81.096-92.877 9.042L223.17 1086z"/><path fill="#000613" fill-opacity=".678" d="M329.915 981.661l-128.558 89.246 29.741-21.353L286 946.917z"/><path fill="#2c1119" d="M677.931 891.975l-1.867 72.448-303.926 36.082 289.492-33.694z"/><path fill="#d5fcdd" fill-opacity=".192" d="M652.693 983.131l-19.956-75.101-10.95-92.496 33.151 67.86z"/><path fill="#6b001b" fill-opacity=".525" d="M296.246 549.507l-97.962 93.437-55.044-66.984 168.713-145.84z"/><path fill="#921135" fill-opacity=".698" d="M585.37 479.142l25.828 93.02 13.466 45.763L660.51 479.14z"/><path fill="#c29f78" fill-opacity=".914" d="M189.75 476.269l-15.588 59.942-27.136-3.992 24.394-66.596z"/><path fill="#7b0026" fill-opacity=".455" d="M459.74 737.728l37.644 27.916-17.062-204.476-105.449 189.96z"/><path fill="#473a1e" fill-opacity=".529" d="M-62 1041.698l99.841-397.407 49.708-92.436L-62 516.987z"/><path fill="#012a75" fill-opacity=".439" d="M318.66 380.515l-13.264 146.528 17.147 3.163 17.465-64.088z"/><path fill="#0f1124" fill-opacity=".741" d="M817.65 394.01L898 182.533 757.936-62H888.02z"/><path fill="#362822" fill-opacity=".463" d="M-62 130.017l183.783 189.736.64 96.746 75.573-141.324z"/></svg>