<svg xmlns="http://www.w3.org/2000/svg" width="228" height="278" viewBox="0 0 836 1024"><path fill="#5f5f7b" d="M0 0h836v1024H0z"/><path fill="#a9b2ea" fill-opacity=".776" d="M526.541 1086l-21.94-215.597L608.116 650.11l186.147 322.93z"/><path fill="#002d83" fill-opacity=".592" d="M620.26 389.869l134.993 178.895L173.385 1086l-24.547-724.83z"/><path fill="#fff0f4" fill-opacity=".447" d="M162.107 416.07L54.828 552.356-62 413.55l686.543-225.57z"/><path fill="#091e4d" fill-opacity=".965" d="M512.511 802.106l-17.76 237.531L242.721 1086l86.727-355.202z"/><path fill="#f1edea" fill-opacity=".741" d="M816.904-62H408.6l206.757 95.724 60.015 93.109z"/><path fill="#f36100" fill-opacity=".353" d="M636.619-62l-506.64 432.271L-24.26-62l602.877 433.611z"/><path fill="#30271f" fill-opacity=".776" d="M256.878 139.223l127.046 141.424L495.03-31.44 77.33 145.33z"/><path fill="#6b96f1" fill-opacity=".8" d="M5.056 864.516l143.966-92.884-20.61 292.894-163.28 15.625z"/><path fill="#bf9468" fill-opacity=".82" d="M887.544 806.175l-158.9-174.953L716.795 1086h136.839z"/><path fill="#e7dad2" fill-opacity=".533" d="M573.244 338.877l152.51 126.705 12.766 131.972L898 476.604z"/><path fill="#d6a98e" fill-opacity=".871" d="M448.554 346.598l-46.405-94.37L482.54 25.3l67.753 105.905z"/><path fill="#50320d" fill-opacity=".549" d="M898 270.432l-197.352-41.24-221.24 289.676 69.816-477.42z"/><path fill="#4b403f" fill-opacity=".976" d="M-62 577.285l245.17-80.737-43.955 260.316-59.32 22.492z"/><path fill="#080f1f" fill-opacity=".675" d="M731.047 475.096L566.137 624.1l-23.427 69.642 197.304-56z"/><path fill="#2657ca" fill-opacity=".663" d="M508.483 521.112l-71.075-193.901-205.026 3.074L74.97 434.878z"/><path fill="#f6f1d7" fill-opacity=".494" d="M593.21 582.328l59.304-64.396-64.123-56.336-24.367 62.886z"/><path fill="#f7c5b1" fill-opacity=".416" d="M266.297 237.075L-62 642.877l169.028-362.64 161.25-121.888z"/><path fill="#e8aebb" fill-opacity=".89" d="M648.929 709.421l11.352 74.919-118.541-3.475 73.613-132.358z"/><path fill="#1d4fbd" fill-opacity=".655" d="M206.86 546.837l-4.788 489.322-122.534-43.57-7.693-41.896z"/><path fill="#ffc0a3" fill-opacity=".459" d="M352.094-35.18L228.583 66.54 85.466 70.55 54.918-45.55z"/><path fill="#56657e" fill-opacity=".827" d="M528.73 776.05l26.432-120.58-218.974-35.465-8.396 115.905z"/><path fill="#c7dafb" fill-opacity=".878" d="M-62 950.646l117.75 134.61 13.535-101.192-16.235-31.12z"/><path fill="#7e5618" fill-opacity=".549" d="M622.476 645.414L709.5 855.922l65.694-142.902-56.748-49.205z"/><path fill="#df1600" fill-opacity=".294" d="M101.952 3.51l141.823 229.91-104.192 10.244L-19.54 90.258z"/><path fill="#ffca9a" fill-opacity=".706" d="M-62 507.23l95.7-99.09 106.796 80.101-50.048 35.805z"/><path fill="#ffac74" fill-opacity=".31" d="M714.65 350.446l-1.226-78.61-275.982-93.09 323.294 16.373z"/><path fill="#9f9d9c" fill-opacity=".624" d="M728.96-60.381l69.762 241.199 78.051.967L898 59.945z"/><path fill="#312b2d" fill-opacity=".8" d="M755.089 49.661l13.07 264.51 86.678-54.836-153.809-124.13z"/><path fill="#6d9bfe" fill-opacity=".627" d="M514.449 1011.488L495.564 869.46l201.358-51.383L761.714 931.8z"/><path fill="#72606b" fill-opacity=".651" d="M75.805 344.622l-109.233 56.625 89.654 28.916 81.56-66.006z"/><path fill="#0d1827" fill-opacity=".6" d="M645.744 593.274L388.342 878.778l171.707-81.417-105.696 133.7z"/><path fill="#def0ff" fill-opacity=".494" d="M555.763 1086l205.074-29.731-88.33-87.592-147.218 3.304z"/><path fill="#422f18" fill-opacity=".635" d="M423.643 243.591l111.47 209.201L657.483 221.2 496.55 321.612z"/><path fill="#f2fdf6" fill-opacity=".498" d="M227.056 311.698L417.95 269.44l-11.922 43.168-249.035 28.257z"/><path fill="#c7966e" fill-opacity=".447" d="M131.911 809.92l-27.15-48.81L-62 666.43v200.538z"/><path fill="#77b2fd" fill-opacity=".424" d="M898 872.632L757.776 580.879l-32.874 35.675 153.447 278.407z"/><path fill="#ffd1b6" fill-opacity=".537" d="M444.417 174.623l4.046-121.207 55.443-5.845 35.435 50.518z"/><path fill="#ff854e" fill-opacity=".373" d="M898 650.232L783.992 496.4l14.079-132.553 68.985-189.002z"/><path fill="#4c95ff" fill-opacity=".188" d="M574.85 493.179l11.575-162.54 199.395-33.696-20.229 270.489z"/><path fill="#0a2e85" fill-opacity=".49" d="M288.39 401.256l40.307 475.556-54.097 171.805-157.852-70.545z"/><path fill="#cecbb5" fill-opacity=".788" d="M640.061 410.967l73.708 19.773-122.827-101.078-8.894-.128z"/><path fill="#231e0f" fill-opacity=".337" d="M636.199 77.774l10.533 296.359 31.923-157.634L374.585-62z"/><path fill="#faedaa" fill-opacity=".514" d="M337.588 453.827l25.564-23.31 40.29 46.172-58.354-25.499z"/><path fill="#05213c" fill-opacity=".302" d="M420.404 266.438l-171.494 43.48L410.58-7.055l23.732 329.844z"/><path fill="#aa7b46" fill-opacity=".506" d="M19.58 508.286L-62 565.42l235.238-16.684 27.198-38.895z"/><path fill="#4c2e16" fill-opacity=".647" d="M641.66 124.774l-8.826 53.02-172.372-33.875 20.548 35.436z"/><path fill="#071e57" fill-opacity=".624" d="M198.918 532.125l129.163 97.362-69.537-164.365-91.305-46.927z"/><path fill="#eaf6fc" fill-opacity=".376" d="M631.685 34.742l23.634 101.846L754.27-44.4 530.217 11.35z"/><path fill="#fe983e" fill-opacity=".365" d="M442.087 302.807l60.446 69.734 26.668 60.664-83.527-66.542z"/><path fill="#03254a" fill-opacity=".459" d="M785.912 588.533l102.946-60.324-6.504 186.962-90.347-28.375z"/><path fill="#0e2d6e" fill-opacity=".592" d="M587.861 667l-244.65-80.825 46.75 124.743 102.032-309.592z"/><path fill="#681e23" fill-opacity=".435" d="M103.07 96.299L41.935 196.997l52.84 64.195 145.75-179.105z"/><path fill="#4a3832" fill-opacity=".992" d="M49.908 21.221l-57.315 62.39L-38.15-62H79.868z"/><path fill="#4884fd" fill-opacity=".247" d="M200.552 573.57l-15.078-52.436-52.788 271.337 186.265-142.462z"/><path fill="#000419" fill-opacity=".361" d="M634.135 580.36l-7.37 117.113 95.061-52.434-6.27-210.673z"/><path fill="#306fff" fill-opacity=".443" d="M95.831 428.023l126.722-115.039 57.206 47.37-153.304 103.86z"/><path fill="#9eadc4" fill-opacity=".522" d="M507.753 683.048l1.612 31.089-73.943-25.722 10.336-44.388z"/><path fill="#f89e84" fill-opacity=".22" d="M156.44-49.1L-36.6 120.892 88.635 258.463-62 363.25z"/><path fill="#967c7e" fill-opacity=".573" d="M735.958 850.515L546.856 766.54l-21.389 68.825L745.9 773.421z"/><path fill="#a16235" fill-opacity=".494" d="M399.79 51.297l-84.824.095L288.49-62h145.185z"/><path fill="#fcf4fa" fill-opacity=".31" d="M850.958 499.8L898 443.415 746.065 561.797l-20.246-114.975z"/><path fill="#eeead2" fill-opacity=".392" d="M315.365 755.373l34.522-135.132 17.045 19.072-18.46 37.75z"/><path fill="#021d59" fill-opacity=".596" d="M494.815 714.001l-174.952-36.883 139.61 46.535 86.686 10.762z"/><path fill="#d4f2ff" fill-opacity=".49" d="M233.423 313.378l-82.314 43.111L-62 523.034l336.428-224.933z"/><path fill="#ffd6b9" fill-opacity=".231" d="M409.826 146.074l100.245 36.306 64.797 13.208 4.866 91.508z"/><path fill="#1f47a6" fill-opacity=".62" d="M714.826 442.265L321.25 573.625l-81.81-222.338 152.548 132.227z"/><path fill="#d4997b" fill-opacity=".255" d="M683.375 298.554l-31.88-253.807 90.373 171.898 4.264 124.284z"/><path fill="#25202b" fill-opacity=".49" d="M144.08 737.145l-32.36-137.39L-62 540.967l151.925 196.73z"/><path fill="#001227" fill-opacity=".314" d="M433.179 489.162l117.993-191.31 96.05 60.576 8.55-124.085z"/><path fill="#fffaed" fill-opacity=".275" d="M457.985 628.404l-46.688 120.36 59.81-13.337-31.814 25.847z"/><path fill="#fdbe8a" fill-opacity=".325" d="M749.626 831.747l143.259 53.09L737.59 636.788l46.444 126.625z"/><path fill="#272524" fill-opacity=".929" d="M710.565-62L455.938-36.128 417.11 210.278 277.846 100.971z"/><path fill="#1d3873" fill-opacity=".984" d="M399.846 720.86l33.762-118.942 40.262 77.02 31.21-121.785z"/><path fill="#81a8ff" fill-opacity=".361" d="M-56.041 997.52l241.424-292.013-105.146 210.32 81.456 42.006z"/><path fill="#000417" fill-opacity=".278" d="M460.96 878.102l-31.228 21.078-122.259 176.608 241.476-30.19z"/><path fill="#183677" fill-opacity=".941" d="M507.439 662.051l109.918-85.861-88.706-38.192-76.384 260.152z"/><path fill="#ae7c5f" fill-opacity=".984" d="M488.255 321.581l44.512-29.244-140.754-45.683 47.459-31.898z"/><path fill="#234aa5" fill-opacity=".922" d="M643.042 550.074l74.535-92.789-19.328-21.943-74.782-24.225z"/><path fill="#9e8864" fill-opacity=".502" d="M551.543-33.457l-122.79 118.18L602.67-2.385l95.44 177.814z"/><path fill="#ffba98" fill-opacity=".447" d="M548.482 135.558L430.62 306.19l97.222-74.044-13.313-188.764z"/><path fill="#2e56ba" fill-opacity=".69" d="M431.458 229.88l-29.87 112.736L245.355 486.55l188.948-117.72z"/><path fill="#43567a" d="M533.476 739.653L420.168 716.15l36.54-37 51.643 98.016z"/><path fill="#224596" fill-opacity=".392" d="M60.163 309.688L-62 306.231 80.435 415.646l8.133-80.464z"/><path fill="#264cae" fill-opacity=".678" d="M100.851 429.64l35.414 60.073 12.567.73 63.5-80.431z"/><path fill="#9c7768" fill-opacity=".455" d="M203.696 165.31l-9.525 151.725 110.123-15.05-27.259-164.675z"/><path fill="#c28d50" fill-opacity=".4" d="M898 839.725l-220.093 180.063L866.197 1086l-192.53-304.876z"/><path fill="#557ecd" fill-opacity=".659" d="M642.632 797.15l26.321 61.956 41.11 2.21-29.613-79.273z"/><path fill="#f1e2b8" fill-opacity=".286" d="M566.696 531.782l46.918 42.304 30.278-63.08-43.357-43.684z"/><path fill="#34548d" fill-opacity=".463" d="M413.121 251.365l-93.915-45.747-46.082 105.941 105.247-40.141z"/><path fill="#c8c0bb" fill-opacity=".243" d="M147.622 542.712l31.968 71.532 11.7-115.598-64.316 29.615z"/><path fill="#fceb9d" fill-opacity=".365" d="M399.958 499.337l7.09-56.652-9.376 16.431-36.785-21.339z"/><path fill="#206fe7" fill-opacity=".235" d="M667.688 642.305l145.689 6.86-49.207-121.048-25.05 65.562z"/><path fill="#121c3b" fill-opacity=".659" d="M623.3 453.026L501.08 467.5l93.092-119.253-38.091 100.881z"/><path fill="#2c1c00" fill-opacity=".447" d="M570.323 299.647l-81.1 88.873 103.467-75.747L656.04 87.55z"/><path fill="#cf9d99" fill-opacity=".569" d="M188.882 316.233l1.73-52.057-73.955-12.419-20.74 145.545z"/><path fill="#fbfef9" fill-opacity=".18" d="M529.17 641.423l-84.143 123.41 46.069-127.523 9.59 78.751z"/><path fill="#fee8c1" fill-opacity=".51" d="M93.865 424.415l36.434 59.367L-62 489.83l144.64-74.427z"/><path fill="#6559f5" fill-opacity=".29" d="M-43.218 246.928L58.171 207.83l9.408-51.196L-62 135.264z"/><path fill="#a5aaa6" fill-opacity=".827" d="M394.656 625.477l-48.518 10.268 26.935 52.276-29.782-30.078z"/><path fill="#fcecc4" fill-opacity=".231" d="M427.855 608.04L394.87 733.248l115.314 24.743-126.035-47.713z"/><path fill="#b0a8a6" fill-opacity=".408" d="M625.769 113.846l-37.627-46.129 100.117 67.921L793.184-32.4z"/><path fill="#ffebf3" fill-opacity=".506" d="M540.618 787.791l60.397-51.601 21.825-86.264-33.095 51.534z"/><path fill="#1d0702" fill-opacity=".314" d="M529.608 262.065l-3.592-77.131 64.42-6.865L573.58 50.53z"/><path fill="#6294ff" fill-opacity=".286" d="M510.365 997.342l14.67-195.862 168.422 156.708-254.65 105.151z"/><path fill="#0b182c" fill-opacity=".804" d="M595.055 659.064L494.96 883.219l-27.236-16.158 129.928-246.83z"/><path fill="#ffe6da" fill-opacity=".251" d="M427.261 159.308l-.159 192.3 35.855-199.921L529.316 31.36z"/><path fill="#0f2862" fill-opacity=".718" d="M203.532 875.168L355.05 706.926l39.859 287.439 20.518-265.318z"/><path fill="#0c235a" fill-opacity=".706" d="M299.826 1014.165L175.42 951.623l291.258-71.84 3.16-148.93z"/><path fill="#0f2862" fill-opacity=".592" d="M307.537 676.075l99.43 18.646 116.811 32.995L327.765 693.1z"/><path fill="#3c2425" fill-opacity=".345" d="M876.053 308.95l-71.565 13.876-76.387-68.975L898 161.452z"/><path fill="#fefff6" fill-opacity=".478" d="M322.083 290.421l-74.609 37.28 74.907-4.786 83.733-49.689z"/><path fill="#224aa7" fill-opacity=".686" d="M66.419 955.151l68.49-156.339 67.563 106.035 57.517-253.003z"/><path fill="#9cc9bf" fill-opacity=".192" d="M273.911 76.61l-55.305 28.028L-9.397-62l255.47 29.776z"/><path fill="#797ba7" fill-opacity=".671" d="M96.073 849.961L-25.08 868.55l-9.222-23.326 164.288-57.427z"/><path fill="#5f6aa5" fill-opacity=".557" d="M779.221 452.26l20.013-129.376-128.97-19.068-7.792 85.982z"/><path fill="#363427" fill-opacity=".349" d="M785.219 272.261L898 239.94l-221.452-85.868 84.136-122.558z"/><path fill="#0a0802" fill-opacity=".635" d="M649.425 575.011l-24.188 76.869 106.22-60.034 2.473-22.645z"/><path fill="#9d9c86" fill-opacity=".718" d="M587.537 336.741l7.281 38.797 33.417 31.408 31.963 13.177z"/><path fill="#72522c" fill-opacity=".435" d="M666.731 768.686l107.272-14.584-41.062-115.675-80.827 38.186z"/><path fill="#ff4519" fill-opacity=".227" d="M143.161 281.777l82.081-97.125L30.02 61.592l97.429-25.433z"/></svg>