<svg xmlns="http://www.w3.org/2000/svg" width="228" height="278" viewBox="0 0 836 1024"><path fill="#605858" d="M0 0h836v1024H0z"/><g fill-opacity=".502"><path fill="#dff2fe" d="M458 370l96 716-244-4z"/><path fill="#ffffe3" d="M26 758l108 328 4-532z"/><path d="M578-62l16 704 304-172z"/><path fill="#e8f6f9" d="M218 958l128-664 28 360z"/><path fill="#051327" d="M474 834L-62 446l192-188z"/><path fill="#fff" d="M530 678l72-192-60-152z"/><path fill="#1a0f08" d="M-62-62l400 432 44-340z"/><path d="M434 978l-56-40 104-212z"/><path fill="#e4ede6" d="M246 1030l100-372-252 428z"/><path fill="#fffcfd" d="M406 382l44 232 72-244z"/><path fill="#f2dcd3" d="M874 1042l-472 44 48-200z"/><path fill="#00051a" d="M442 830l64-412 36 192z"/><path fill="#000014" d="M182 406l24 500 124-564z"/><path fill="#ffdcb5" d="M194 610L62 934l24-344z"/><path fill="#e69567" d="M542 306l40-240-212 24z"/><path d="M374 598l4 212-128 180z"/><path fill="#2c2626" d="M862-62l-64 968-300-40z"/><path fill="#e7f4ef" d="M294 1050l152-248-48-104z"/><path fill="#fcffff" d="M358 274l44 88-116 208z"/><path fill="#f4f4ff" d="M158 410l24 96-68 40z"/><path fill="#87664a" d="M662 566l-32 516-132-164z"/><path fill="#fff" d="M262 1022l272 64 24-124z"/><path fill="#ffcfae" d="M38 838l148 196L70 630z"/><path fill="#61331c" d="M442 406l336-168-432-48z"/><path fill="#000018" d="M422 434l-28 184-28-248z"/><path fill="#faeff5" d="M378 458l-60-64-28 216z"/><path fill="#000008" d="M178 734l-4 260 108-340z"/><path fill="#fff" d="M446 950l68 136-16-368z"/><path fill="#040506" d="M122 494L-62 246l248 96z"/><path fill="#777871" d="M266 706l76-128 372 44z"/><path fill="#000543" d="M526 770l-28 156 48 40z"/><path fill="#1f4061" d="M-14 874l164-440-196 56z"/><path fill="#00001c" d="M442 806l-52 176h48z"/><path fill="#00000f" d="M258 1006l48-168 12 172z"/><path fill="#020f21" d="M898 582L566 214l36 324z"/><path fill="#fff" d="M590 422l-48-56 8 224z"/><path fill="#55667d" d="M638 566l200 8 16 372z"/><path fill="#0d0708" d="M274 310l124-60L266-62z"/><path fill="#fff" d="M314 918l16 168 124-48z"/><path fill="#9c6a61" d="M-62 242l292-108 28 172z"/></g></svg>