<svg xmlns="http://www.w3.org/2000/svg" width="228" height="278" viewBox="0 0 836 1024"><path fill="#7b723a" d="M0 0h836v1024H0z"/><g fill-opacity=".502"><path fill="#ffff59" d="M338 54l424 988-616 44z"/><path fill="#000015" d="M-62 14l948 516-48-592z"/><path fill="#00000c" d="M6 1086l236-904L-6-62z"/><path fill="#ffff38" d="M82 466l528 620 28-748z"/><path fill="#000019" d="M654 1030l-28-424 148 92z"/><path fill="#fff8a5" d="M826 566L430 278l444 588z"/><path fill="#000027" d="M46-62l160 948-268 108z"/><path fill="#e797ae" d="M342 482L202 122l228 20z"/><path fill="#000009" d="M898-6L758 534 342-46z"/><path fill="#ffbcd3" d="M874 626l-124 428-140 8z"/><path fill="#fffd16" d="M222 942l432-460-104 604z"/><path d="M70-62l228 432-360-36z"/><path fill="#7356d6" d="M306 614l224 64-352 20z"/><path fill="#ffff17" d="M406 438l72-132 276 292z"/><path fill="#ffff5e" d="M262 346L130 486l84 188z"/><path fill="#004e6d" d="M410 242l88 40-100 124z"/><path fill="#000021" d="M774 666l-124 336-28-332z"/><path fill="#3396ff" d="M618 386l56 128 128 36z"/><path fill="#000037" d="M814 1086l-44-124 128-196z"/><path fill="#9f7c71" d="M182 50l148 436L434-34z"/><path fill="#1a1329" d="M214 718L66 314l68 772z"/><path fill="#dc8fb1" d="M270 962l-40-252-88 336z"/><path fill="#fff625" d="M690 1018L246 694l32 292z"/><path fill="#3bbc9f" d="M418 466l92-4-68 112z"/><path fill="#f1bcac" d="M422 346L242 154l132-32z"/><path fill="#ffc6d0" d="M898 662l-212-40 76-104z"/><path fill="#005760" d="M178 1086l108-92 132 36z"/><path fill="#00000c" d="M670 1086l-220-64 168-8z"/><path fill="#0e1843" d="M266 338L22 574l32-280z"/><path fill="#000100" d="M194-62L-62 22l244 364z"/><path fill="#4c3b3d" d="M642 170L418 286l228 108z"/><path fill="#f3b195" d="M794 590l88 188-164 236z"/><path fill="#264269" d="M758 386l-44 164 180-52z"/><path fill="#f6e715" d="M618 402l68 192-316 24z"/><path fill="#08144a" d="M698 938l80-268-108 80z"/><path fill="#ffff3c" d="M194 414l100 216 180-232z"/><path fill="#5a474d" d="M142 462L14 634l120 64z"/><path fill="#020200" d="M322-10l232 124L898-2z"/><path fill="#fff947" d="M650 1086l-24-360-196-192z"/><path fill="#009e80" d="M470 290l-92 88 28 32z"/></g></svg>