<svg xmlns="http://www.w3.org/2000/svg" width="228" height="278" viewBox="0 0 836 1024"><path fill="#696a7b" d="M0 0h836v1024H0z"/><g fill-opacity=".502"><path fill="#fff" d="M534 1086L50 430l596-160z"/><path d="M454 2l444-36-92 1120zM-62 930L-34 2l348-8z"/><path fill="#edf6ff" d="M190 1086l68-796 424 704z"/><path fill="#f3e7ff" d="M322 598l576-408-428 112z"/><path fill="#000614" d="M658 1086l240-444-328-248z"/><path fill="#f6efff" d="M290 294L118 394 86 830z"/><path fill="#150303" d="M486 298L-62-62l436 492z"/><path fill="#c7d2ff" d="M190 922l420-496-24 660z"/><path d="M214 626L62 1086l128-28z"/><path fill="#00091f" d="M18 950l136-716L-62-62z"/><path fill="#665359" d="M86 702l96-132 340-16z"/><path fill="#ffb499" d="M182 758L66 726l-48 360z"/><path fill="#000a0f" d="M646 294L898 86 414-50z"/><path fill="#dd8e6d" d="M302 318l196-184L282 14z"/><path fill="#000510" d="M302-62l-60 396L-62 2z"/><path fill="#c8cfff" d="M210 1086l416-244-404-260z"/><path fill="#0e1b24" d="M590 706l296 380-72-884z"/><path fill="#ecf5ff" d="M290 306l-36 312-108-256z"/><path fill="#dfeaff" d="M478 270l168 20-152 256z"/><path fill="#f3f6ff" d="M566 986l20-280 60 288z"/><path fill="#000d32" d="M226 834L98 1086l100-484z"/><path fill="#222e2c" d="M446 270l72-228 156 240z"/><path fill="#d59a72" d="M494 82l-64 244-36-388z"/><path fill="#00123f" d="M-62 586l48 420 124-420z"/><path fill="#172546" d="M586 714l100 372 212-224z"/><path fill="#bb7a00" d="M378 554l-156 44 136 12z"/><path fill="#ced8ff" d="M606 518L130 378l-24 208z"/><path fill="#66717f" d="M566 390l16 144 152-228z"/><path fill="#744136" d="M454 226l-132-72 52 316z"/><path fill="#1c51c9" d="M522 530l-124 24 24 60z"/><path fill="#c98b83" d="M42 774l24 312 116-492z"/><path fill="#dbe1ff" d="M174 1086l208-164-132-280z"/><path fill="#bfc6f5" d="M470 1046L270 734l356-276z"/><path fill="#69390c" d="M450 70L298 46l144-72z"/><path fill="#091b24" d="M270-34l12 328L74 394z"/><path fill="#e1ae95" d="M578 330l152-8 168-164z"/><path fill="#7e92cf" d="M138 658V434l108 160z"/><path fill="#e6ebff" d="M410 610l-56-228-192-28z"/><path fill="#33376b" d="M898 986L718 862l-156 224z"/></g></svg>