<svg xmlns="http://www.w3.org/2000/svg" width="228" height="278" viewBox="0 0 836 1024"><path fill="#262b2c" d="M0 0h836v1024H0z"/><g fill-opacity=".502"><path fill="#857569" d="M554-62L350 78l324 564z"/><path fill="#a9bbc1" d="M398 750l116-184 76 196z"/><path fill="#edbdbe" d="M86 598l80-216 8 236z"/><path fill="#ce9874" d="M546 1010L382 894l-32 88z"/><path fill="#cc6f7c" d="M526 478l20-84-216-120z"/><path fill="#001013" d="M414 18L-62 786l48-848z"/><path d="M502 706L258 426l-56 316z"/><path fill="#0f2328" d="M410 330l488 316-64-688z"/><path fill="#e8e6ff" d="M610 554l56-36-68-64z"/><path fill="#041113" d="M538 950l128-468 232 396z"/><path fill="#0c1212" d="M22 1086l544-272-628-200z"/><path fill="#dfedfe" d="M370 466l88 40h-80z"/><path fill="#fff" d="M470 638l44 64-12-108z"/><path fill="#9f8d7d" d="M462-62L382 98l216-4z"/><path fill="#cee0e6" d="M358 718l68-4-48 40z"/><path fill="#987c64" d="M426 278l132-136-188-8z"/><path fill="#9cdd5d" d="M590 926l28 156 16-96z"/><path fill="#0c191c" d="M798 542l-36 220-276-124z"/><path fill="#ffb7d7" d="M234 646l-28-36-76-12z"/><path fill="#e2d0cb" d="M150 570l36-120-84 104z"/><path d="M462 714l76 4 72-48z"/><path fill="#0e1313" d="M138 590l388 132-280-288z"/><path fill="#af5f71" d="M574 330l-56 200-16-108z"/><path fill="#e5fcff" d="M482 606l72 12-16-32z"/><path fill="#010f14" d="M882-2L426-62l328 224z"/><path fill="#192528" d="M138 470l200-20 64-512z"/><path fill="#a4b4ba" d="M490 726l-16 60 112-60z"/><path fill="#e099b0" d="M374 334l-20-64 108 116z"/><path fill="#595651" d="M326 306L114 470l68-120z"/><path fill="#fff" d="M414 470l16 8 4 28z"/><path fill="#d6f2fc" d="M546 686l-80-48 28 60z"/><path fill="#896c55" d="M486 950l-140-68 16 148z"/><path fill="#2f281f" d="M426 166l180 44-268 12z"/><path fill="#3e2615" d="M518 418L386 314l176-84z"/><path fill="#1a2123" d="M642 614l-212-44 16-112z"/><path fill="#c7cee2" d="M638 566l12-60-52 12z"/><path fill="#050507" d="M746 1086L610 950l-8-352z"/><path fill="#323234" d="M46 794l352 132L70 630z"/><path fill="#1b1215" d="M70 570h132l20 44z"/><path fill="#2e2e2e" d="M530 542l144-156-140 28z"/></g></svg>