<svg xmlns="http://www.w3.org/2000/svg" width="228" height="278" viewBox="0 0 836 1024"><path fill="#7e5a57" d="M0 0h836v1024H0z"/><path fill="#0d2934" fill-opacity=".612" d="M19.453 358.758L-24.075-15.9 755.87-62l-.818 324.03z"/><path fill="#f9fbff" fill-opacity=".612" d="M-27.036 723.456l127.275 42.64 215.445-447.25-149.423 73.761z"/><path fill="#f6f8ff" fill-opacity=".851" d="M387.572 1086l240.142-168.082 127.387 47.244 74.341 118.453z"/><path fill="#ad3129" fill-opacity=".941" d="M195.703 428.038L220.083 1086l440.37-174.68-46.408-527.032z"/><path fill="#2ecaff" fill-opacity=".337" d="M844.378-62L490.443 186.924l-3.557 146.079L898 749.669z"/><path fill="#feceb7" fill-opacity=".729" d="M721.45 571.576l49.3 16.477-116.224-221.187-200.679-75.899z"/><path fill="#c3f1c8" fill-opacity=".494" d="M145.632 1086L90.093 955.743l20.983-646.921 105.665 740.54z"/><path fill="#cee9f6" fill-opacity=".431" d="M291.632 336.177L-62 573.03l11.363-241.15L478.28 467.918z"/><path fill="#cf6654" fill-opacity=".835" d="M755.557 813.216l-107.168 3.912-196.087-439.9 164.928 2.517z"/><path fill="#40291d" fill-opacity=".78" d="M442.104 409.83l108.76-382.524L93.826-46.323l261.018 454.915z"/><path fill="#fffbf5" fill-opacity=".616" d="M569.45 346.176l-204.682 92.55 89.712 8.522 33.808-146.889z"/><path fill="#921a17" fill-opacity=".984" d="M207.217 963.154l23.99-178.919 315.378-51.039L447.184 1086z"/><path fill="#231201" fill-opacity=".549" d="M898 981.506L778.837 764.495 638.75 569.545l102.958 21.046z"/><path fill="#81f4e4" fill-opacity=".263" d="M423.923 636.093l-152.686 116.2 202.379 2.243 101.051-42.98z"/><path fill="#1c5a84" fill-opacity=".525" d="M530.44 203.063l286.377 380.113L847.12 267.46 848.605-62z"/><path fill="#26312f" fill-opacity=".671" d="M820.878 1014.513l-66.63-169.096-139.902-7.127 42.796 67.828z"/><path fill="#a16040" fill-opacity=".451" d="M506.587 195.934l-19.854 124.924-207.158-46.218 23.02-159.797z"/><path fill="#ce3128" fill-opacity=".875" d="M625.367 397.246l5.738 91.134-276.275 34.37 153.338-154.405z"/><path fill="#dee4f6" fill-opacity=".831" d="M209.834 1086l-5.512-108.487-66.487-35.667-32.394 115.31z"/><path fill="#ffcdb4" fill-opacity=".365" d="M705.758 662.866l-138.812-23.617L753.19 856.58l55.41-32.3z"/><path fill="#0d1018" fill-opacity=".494" d="M291.992 269.162l-32.544 90.764-195.696-24.443L240.838-62z"/><path fill="#789b4e" fill-opacity=".553" d="M45.029 835.53l150.314 75.055 30.13-118.772-9.6-225.675z"/><path fill="#d13630" fill-opacity=".882" d="M321.915 383.83l-135.109 64.444L334.064 631.69l71.431-144.599z"/><path fill="#4c0002" fill-opacity=".494" d="M196.097 510.814l58.047 412.762-13.825-252.853 174.849 52.614z"/><path fill="#8c7878" fill-opacity=".58" d="M34.82 95.382l71.004 68.46 65.667-71.12-67.194-79.217z"/><path fill="#ed2b22" fill-opacity=".58" d="M633.798 651.486l-17.756 275.85-175.943 111.03-11.796-50.712z"/><path fill="#e1e4e9" fill-opacity=".851" d="M151.925 405.458L105.153 692.32l-44.417 18.875-67.234 2.905z"/><path fill="#9dffdc" fill-opacity=".29" d="M738.888 542.914L662.02 363.53l-71.607 247.062-2.548 59.73z"/><path fill="#5f0200" fill-opacity=".263" d="M420.427 740.12l181.607-261.786 218.117 234.52-70.087-155.44z"/><path fill="#f9fcfe" fill-opacity=".584" d="M695.276 431.455L470.608 343.88l76.407-10.979 107.201 31.18z"/><path fill="#000a09" fill-opacity=".439" d="M170.928 79.617L859.63-62 514.707 87.01l14.118 72.421z"/><path fill="#7eecf5" fill-opacity=".557" d="M849.38 557.568l-68.545 20.898 50.008 134.28 63.947 246.028z"/><path fill="#f3ffe8" fill-opacity=".545" d="M593.534 655.715l31.887 33.735-27.179-123.615-9.758 80.476z"/><path fill="#d2c7b9" fill-opacity=".6" d="M5.461 1086L-62 980.359V810.35l90.617 112.644z"/><path fill="#e6edfa" fill-opacity=".486" d="M82.765 478.783l222.107-84.324L401.542 445 294.67 338.663z"/><path fill="#f8745c" fill-opacity=".906" d="M690.02 765.991l-64.3 54.63-2.662-182.595 75.503 21.738z"/><path fill="#9c634c" fill-opacity=".631" d="M104.409 896.144L124.43 1086-62 783.703l319.977 94.763z"/><path fill="#e5fff6" fill-opacity=".471" d="M259.587 528.777l58.625 30.471-13.642 2.024-60.45-15.637z"/><path fill="#5d7a86" fill-opacity=".596" d="M-43.399 349.19l305.163-6.74-65.287 55.725L-62 367.488z"/><path fill="#7dadaa" fill-opacity=".38" d="M809.153 806.699l21.175 122.312-119.86-142.466 3.68-103.185z"/><path fill="#550d0a" fill-opacity=".427" d="M403.59 920.42l85.93-172.242-285.285 19.849 38.513-66.826z"/><path fill="#92b16f" fill-opacity=".855" d="M-62 826.676l103.626-216.72-12.39-39.278L-62 644.5z"/><path fill="#652621" fill-opacity=".867" d="M450.595 703.867l-184.047 4.67 127.834-24.577 135.376.668z"/><path fill="#ba7c74" fill-opacity=".996" d="M475.852 653.978l-12.006 23.6-94.352 1.348-.906-40.511z"/><path fill="#2c5c82" fill-opacity=".565" d="M636.506 35.974l167.128 395.538-262.498-107.454-1.578-187.183z"/><path fill="#c5ffea" fill-opacity=".337" d="M268.751 747.778l17.493 1.15-22.494-83.922-3.442 92.247z"/><path fill="#a11612" fill-opacity=".663" d="M233.536 579.627l66.126 56.075 288.662 20.274 1.619-77.483z"/><path fill="#7ec97a" fill-opacity=".427" d="M204.199 801.61L163.56 614.154 72.265 729.206l20.539 109.325z"/><path fill="#332524" fill-opacity=".71" d="M360.365 188.83l-265.836 6.714L-62 9.218l122.612 313.75z"/><path fill="#91a1cd" fill-opacity=".647" d="M732.04 939.049l-107.268-15.23 75.252 28.443 89.217 50.459z"/><path fill="#d1ffce" fill-opacity=".29" d="M575.42 539.578l-52.887 16.08-7.586-64.912 68.396 17.889z"/><path fill="#d3dada" fill-opacity=".631" d="M433.988 437.1l-41.452 19.398-100.37-138.176-32.883 35.643z"/><path fill="#885c48" fill-opacity=".635" d="M423.915 192.214l-2.777-68.087-131.63 10.98 11.77 39.947z"/><path fill="#c1b4a2" fill-opacity=".302" d="M302.095 713.928l264.143-20.084-39.735 47.968-199.884 12.764z"/><path fill="#e6e7de" fill-opacity=".729" d="M440.442 438.691l23.949-27.826 50.531-103.103-95.008 135.698z"/><path fill="#e84438" fill-opacity=".91" d="M470.702 469.424l22.504-117.544 92.402 55.818-113.224 20.788z"/><path fill="#98bfc9" fill-opacity=".322" d="M221.897 364.452L-17.647 498.338l55.206-292.644L-62 383.652z"/><path fill="#593924" fill-opacity=".557" d="M826.109 922.08l-50.517 121.753 116.878-79.267-116.54-339.513z"/><path fill="#b61e17" fill-opacity=".698" d="M614.81 677.78l-59.67 207.304-146.227 85.454 169.15-294.392z"/><path fill="#a4814d" fill-opacity=".624" d="M732.49 560.824l43.29 12.922 40.66 97.127 38.738 127.531z"/><path fill="#f6f2f3" fill-opacity=".545" d="M801.9 1078.644L745.844 969.77l-152.81-38.612-62.965 55.351z"/><path fill="#ec5441" fill-opacity=".867" d="M600.35 886.493l24.77-31.627 34.451 76.925-53.429-19.418z"/><path fill="#6e1511" fill-opacity=".678" d="M253.055 628.04l-39.245 89.456L265.033 968.2l20.902-33.235z"/><path fill="#b8b7c2" fill-opacity=".718" d="M168.058 1011.348l1.682-118.596-81.384 17.707 98.772 126.852z"/><path fill="#fdf1ff" fill-opacity=".176" d="M323.17 307.749l79.316-2.977-277.323 152.264 202.027-158.13z"/><path fill="#343432" fill-opacity=".835" d="M779.461 925.829l-100.382-97.22-47.793-5.913 33.307 108.721z"/><path fill="#8c827f" fill-opacity=".518" d="M116.422 711.322l79.774-197.061 24.78 352.498-2.198-255.046z"/><path fill="#5b3019" fill-opacity=".655" d="M90.877 982.698l-22.783 95.63-46.73-73.622 5.992-13.452z"/><path fill="#12100f" fill-opacity=".573" d="M425.63-2.829l94.921 187.606-114.818-73.922-278.704 44.322z"/><path fill="#301e14" fill-opacity=".631" d="M443.328 408.004l-62.449 10.09-61.404-72.58 61.725-19.991z"/><path fill="#436f80" d="M695.76 450.948l74.359 114.823 52.017-26.807 8.489-135.48z"/><path fill="#9e644a" fill-opacity=".455" d="M38.901 589.11l80.04-129.846-54.717-19.247L-62 664.43z"/><path fill="#d0d0df" fill-opacity=".439" d="M103.165 789.702l97.243-384.178-62.919-13.176-51.355 325.827z"/><path fill="#b76a5f" fill-opacity=".173" d="M117.617 247.683l-59.054-79.106 70.964-223.843 41.935 311.588z"/><path fill="#bb1e17" fill-opacity=".529" d="M628.09 390.633l8.11 22.467-63.986 258.935 12.879-263.11z"/><path fill="#732521" fill-opacity=".898" d="M389.591 662.131l36.184 253.606-24.543-244.86L517.21 825.054z"/><path fill="#ca2923" fill-opacity=".533" d="M308.723 600.102L302.78 374.14l132.696 130.64 136.908 65.736z"/><path fill="#171b20" fill-opacity=".773" d="M187.108-62L295.3 319.292l-30.795 28.15-96.207-183.283z"/><path fill="#e2d9c0" fill-opacity=".58" d="M626.46 502.03l11.55-91.76 81.87 81.167 25.1 84.055z"/><path fill="#811a16" fill-opacity=".494" d="M376.274 794.29l-215.961 61.074 138.377 127.76 54.827-276.168z"/><path fill="#921e1a" fill-opacity=".835" d="M479.476 900.655l-11.119-275.881 56.588 65.425-42.28-8.597z"/><path fill="#b3211c" fill-opacity=".631" d="M208.802 952.775L212.059 1086l124.566-89.106 102.28-78.382z"/><path fill="#768588" fill-opacity=".522" d="M76.549 744.406L-62 693.553l157.625 44.69 38.785 33.206z"/><path fill="#42403b" fill-opacity=".596" d="M474.726-62L235.504 30.485 432.468 7.75 567.01 126.613z"/><path fill="#5c7667" fill-opacity=".369" d="M662.344 487.055l-63.18 88.124 18.846 71.492 51.642-41.82z"/><path fill="#3f1f0f" fill-opacity=".42" d="M395.563 347.296l93.75-31.646-148.44-115.419 53.315-25.2z"/><path fill="#b3846a" fill-opacity=".443" d="M829.03 911.33L631.635 776.739l132.413-25.698-.397 188.826z"/><path fill="#041b21" fill-opacity=".322" d="M225.137 541.75l-33.57 10.457 14.724 93.064 21.972-126.46z"/><path fill="#f4f1ed" fill-opacity=".8" d="M520.677 369.496l134.785 28.82-171.92-105.05 8.18 47.114z"/><path fill="#41818e" fill-opacity=".459" d="M898 347.705V-62L722.76-7.863l9.947 318.608z"/><path fill="#484d55" fill-opacity=".659" d="M39.2 249.8l-10.028 81.218 248.7 16.675-290.404 14.219z"/><path fill="#841511" fill-opacity=".808" d="M358.93 694.463l23.266 28.05-23.761-122.503-127.773 73.912z"/><path fill="#e7edff" fill-opacity=".698" d="M199.058 960.083l-112.28 84.768L214.574 1086 203.91 977.03z"/><path fill="#f5f8d4" fill-opacity=".29" d="M553.349 746.48l-.069-79.919-44.302 59.702 30.22-31.134z"/><path fill="#aeffeb" fill-opacity=".29" d="M288.084 714.43l-29.527-35.917 74.947 38.065-84.173-30.676z"/><path fill="#ffb198" fill-opacity=".125" d="M311.897 258.95l152.734-28.25-175.28-17.378 17.889 160.846z"/><path fill="#a07356" fill-opacity=".992" d="M46.757 846.769l58.996 183.56 23.806-52.911L43.22 822.073z"/><path fill="#5a1917" fill-opacity=".651" d="M443.411 755.075l-20.394-71.634 7.5 181.75-59.235-94.572z"/><path fill="#e83c33" fill-opacity=".69" d="M403.233 1072.98l250.93-182.067-196.626 36.36 155.342-60.212z"/><path fill="#81756e" fill-opacity=".624" d="M818.89 427.696l-10.957 36.421 21.87 81.47L898 370.974z"/><path fill="#7a5741" fill-opacity=".98" d="M478.066 165.305l-26.02 228.673 24.007-28.65 8.375-55.7z"/><path fill="#2d0706" fill-opacity=".537" d="M258.223 678.008l-43.217 34.558 20.467 94.658 9.232-90.29z"/><path fill="#fffeea" fill-opacity=".282" d="M399.488 759.28l-35.962-33.812 19.4 12.863 10.796-67.04z"/><path fill="#254285" fill-opacity=".353" d="M731.478-62l17.124 325.618-163.278-18.835 72.108-152.561z"/><path fill="#8b1612" fill-opacity=".859" d="M309.923 1086l-48.475-343.933 95 49.365-30.94-71.582z"/><path fill="#dbf4ea" fill-opacity=".427" d="M301.344 546.758l-40.557-11.35 8.937 4.666 39.604 42.222z"/><path fill="#f3fefd" fill-opacity=".345" d="M148.769 435.32l49.276-45.69-10.063 136.24-44.702-25.384z"/><path fill="#a05958" fill-opacity=".318" d="M220.831 972.026l-102.308-110.48 127.384-74.845-8.03-.815z"/><path fill="#eafbf9" fill-opacity=".322" d="M365.355 412.114l94.834 5.183-17.062 20.239-65.809 15.803z"/><path fill="#c5211d" fill-opacity=".525" d="M315.293 392.673l-60.506 107.411-11.781 104.579-53.169-143.107z"/><path fill="#212123" fill-opacity=".808" d="M318.29 128.005L33.894-62-62 113.466 172.641-62z"/><path fill="#010100" fill-opacity=".235" d="M827.68 855.325L796.444 1086l-9.085-121.066 64.401-73.568z"/><path fill="#effbea" fill-opacity=".267" d="M465.303 675.473l1.468-44.775-22.883 50.83 10.41 19.995z"/><path fill="#372015" fill-opacity=".4" d="M743.302 563.84l7.736 18.592 60.531 223.442-124-166.966z"/><path fill="#971f1c" fill-opacity=".4" d="M487.56 422.77l141.904-14.507-229.626 66.522-.128 218.077z"/><path fill="#7e5746" fill-opacity=".969" d="M65.166 763.432l-14.15-16.992-88.773-18.389L107.77 883.646z"/><path fill="#ee5537" fill-opacity=".459" d="M683.462 612.071l-65.02 24.852-1.053 70.697 76.58-31.255z"/><path fill="#afaaaa" fill-opacity=".459" d="M204.219 523.537L73.309 723.073l18.663 69.21 95.01-197.67z"/><path fill="#cbbebe" fill-opacity=".878" d="M522.178 1006.276l-57.545 12.867L407.568 1086h34.379z"/><path fill="#9aa8af" fill-opacity=".604" d="M77.541 373.301l24.95 122.183-5.202-9.988 100.173-103.7z"/></svg>