<svg xmlns="http://www.w3.org/2000/svg" width="228" height="278" viewBox="0 0 836 1024"><path fill="#838183" d="M0 0h836v1024H0z"/><g fill-opacity=".502"><path fill="#d1faff" d="M86 1086l648-592-500-292z"/><path fill="#301f02" d="M-10 414l8-476 900 76z"/><path fill="#4e0d02" d="M498 938l400 24L826-54z"/><path fill="#8fcfff" d="M542 1054L442 458l-504 556z"/><path fill="#f1f0ff" d="M370 234l344 300-776-32z"/><path fill="#0f202c" d="M434 686l464 60-424-204z"/><path fill="#453423" d="M742-62l20 688L354-62z"/><path fill="#effdff" d="M626 426l64 76-172 268z"/><path d="M750 470L526 762l268-88z"/><path fill="#556974" d="M370 522l-232-12 184-120z"/><path fill="#d50919" d="M546 990l352-180-392-8z"/><path fill="#fff" d="M326 282L-6 462l-56 200z"/><path fill="#927462" d="M622 86l272 264-740-104z"/><path fill="#738622" d="M126 822L-62 642l248-140z"/><path fill="#e5ece7" d="M-62 706l132 96-44 284z"/><path fill="#edf4ff" d="M294 286l312 320-128-340z"/><path fill="#77b8f7" d="M530 670L78 998l396 72z"/><path fill="#101313" d="M326-2L78 282 594-62z"/><path fill="#665f4a" d="M898 522L502 342 826-62z"/><path fill="#000005" d="M742 134L534 50l80-112z"/><path fill="#857774" d="M854 1030l-16-428-124 168z"/><path fill="#e09ea7" d="M530 962l-20 124 388-92z"/><path fill="#d6e2fd" d="M458 694L198 490l-44 228z"/><path fill="#cad4dc" d="M598 374l92 168-120 136z"/><path fill="#daac96" d="M650 82l24 68-160-12z"/><path fill="#000333" d="M570 614l-76-68 40 152z"/><path fill="#b2e14f" d="M74 558L50 802-50 638z"/><path fill="#726c5c" d="M-62 90v408l312-208z"/><path fill="#656256" d="M482 250L42 326 474 42z"/><path fill="#000507" d="M646 402l92 60 12 192z"/><path fill="#61574c" d="M86 1058L70 846l48 44z"/><path fill="#bad6fa" d="M510 786l-328 24 284 144z"/><path fill="#154287" d="M354 918l-180-60h92z"/><path fill="#604335" d="M554 226l200 152-248 16z"/><path fill="#277cde" d="M302 770l68-60-84 196z"/><path fill="#1c6fc1" d="M62 1086l128-104 320 48z"/><path fill="#816c4a" d="M74 18l384-80-512 348z"/><path fill="#d02e3e" d="M770 882l28 88-184-12z"/><path fill="#071511" d="M758 494l-64 272-124-96z"/><path fill="#b77467" d="M738 186l-280-12 180 112z"/></g></svg>