<svg xmlns="http://www.w3.org/2000/svg" width="228" height="278" viewBox="0 0 836 1024"><path fill="#696265" d="M0 0h836v1024H0z"/><g fill-opacity=".502"><path fill="#f4ccc0" d="M550 894l288 24-84-516z"/><path d="M898 994L318 890l-116 196z"/><path fill="#bfc1bf" d="M-62 502l708-232-380 432z"/><path fill="#290d02" d="M478 398L-62-46 270 2z"/><path fill="#0f0d1b" d="M758 474L898 22 642-62z"/><path d="M522 626l120 216-112-448z"/><path fill="#a2efff" d="M206 614l60-120 296 136z"/><path d="M774 1086L254 962l504-56zM398 546l68 8-36-244zm112 132l-100-60 140 272z"/><path fill="#e6eedc" d="M450 558l64-272 20 488z"/><path fill="#ebd4c0" d="M782 674L670 898 570 530z"/><path d="M526 346l112 196-120 44z"/><path fill="#c5cfff" d="M898 782l-152 88 56 216z"/><path d="M314 326l76-40-72 228z"/><path fill="#dfe6e3" d="M526 306l160 92-52 128z"/><path fill="#e0e7f6" d="M322 342l-28 212-92-260z"/><path fill="#764125" d="M306 286L50 654l120 88z"/><path d="M334 578l36 196 128 144z"/><path fill="#130208" d="M-38 286l260 88L6 462z"/><path fill="#ecfde1" d="M510 818l4 132-128-276z"/><path fill="#320e1d" d="M702 850l196-116-100-64z"/><path fill="#c0bcbd" d="M394 822L150 558l124-24z"/><path fill="#fcffff" d="M366 606l-16-180 72-108z"/><path fill="#5e2c0e" d="M698 726l32-164-92-168z"/><path fill="#ffc19c" d="M382 46l64 204-104-92z"/><path fill="#fff" d="M290 898l72-88-28 80z"/><path fill="#d7ddbf" d="M510 538l88 308-88-140z"/><path fill="#3c2830" d="M374-46l76 384 164-120z"/><path fill="#fff" d="M234 438l-16-100 48-44z"/><path d="M654 802l-64-12-52-180z"/><path fill="#b0d9d6" d="M458 766l-72-272-48 104z"/><path fill="#7a7d9f" d="M254 1014L-62 810l388-100z"/><path d="M490 1086L362 814l-44 272z"/><path fill="#c8b9d1" d="M2 666l-24-140 216-96z"/><path fill="#fff" d="M486 298l52 4-76 152z"/><path d="M538 898l-80-232 108 144z"/><path fill="#fff" d="M726 902l-32-80-136-4z"/><path fill="#eedccf" d="M830 602l-88 104-8-224z"/><path d="M346 330v172l-44-16z"/></g></svg>