<svg xmlns="http://www.w3.org/2000/svg" width="228" height="278" viewBox="0 0 836 1024"><path fill="#676d78" d="M0 0h836v1024H0z"/><g fill-opacity=".502"><path fill="#e7ffff" d="M730 1086L566 186-6 1074z"/><path fill="#010000" d="M18-62l-80 544L898 26z"/><path fill="#0b000c" d="M-62-58v972l384-216z"/><path fill="#100b16" d="M854 1042L834-62 602 390z"/><path fill="#fff" d="M-62 890l632 196 108-220z"/><path fill="#96c2f7" d="M702 586L230 254 90 446z"/><path fill="#caf8ff" d="M674 250l100 172-336-224z"/><path fill="#043b8d" d="M334 530l116-60-56 432z"/><path fill="#10468f" d="M554 482l-100 24 84 368z"/><path fill="#051119" d="M898 298L402 182 774-62z"/><path fill="#e0f4fe" d="M450 310l-28 364-72-324z"/><path fill="#e3e4e6" d="M-62 798v288l944-60z"/><path fill="#300807" d="M278 558l-40 268-300-124z"/><path fill="#994c23" d="M650 862l144-456-20 536z"/><path fill="#fff" d="M570 554l136 448-128-104z"/><path fill="#42250c" d="M230-34l436-4-364 440z"/><path fill="#fff" d="M658 530l-64-100 64 212zM322 642l-92 444 172-52z"/><path fill="#cbd9e9" d="M178 326l152 328-64-412z"/><path fill="#002478" d="M586 462l20-192 100 88z"/><path fill="#0d4379" d="M-50 582l292-280-64 296z"/><path fill="#f7f5ff" d="M578 298L458 194l120 304z"/><path fill="#225297" d="M710 718L594 506l56 328z"/><path fill="#f8ffff" d="M470 622l60 420-112-208z"/><path fill="#88a9b9" d="M322 754L-62 902l196 184z"/><path fill="#161209" d="M370-22L222 282l-284-60z"/><path fill="#97592e" d="M234 110l212-4-76 184z"/><path fill="#ff3f42" d="M654 1086l-8-152-60-8z"/><path fill="#91461c" d="M-62 934l164-328-36 244z"/><path fill="#fff" d="M194 314l-68 132 16-76zm500-36l44 116-112-152z"/><path fill="#1c3f70" d="M330 590l52 288 28-280z"/><path fill="#fff" d="M442 418l-28-128-68 128z"/><path fill="#141c28" d="M678 794l-12-352 96 40z"/><path fill="#7ea0c8" d="M350 586l104-248 148 224z"/><path fill="#1c212a" d="M522 58l364 496-52-616z"/><path fill="#173159" d="M734 794l128-312-52 516z"/><path fill="#2f6dc3" d="M558 622v256l-64-36z"/><path fill="#5b1600" d="M754 930l-12 76-80-184z"/><path fill="#b96b40" d="M718 1050l-44-260 96-244z"/></g></svg>