<svg xmlns="http://www.w3.org/2000/svg" width="228" height="278" viewBox="0 0 836 1024"><path fill="#665d59" d="M0 0h836v1024H0z"/><path fill="#fffaf3" fill-opacity=".651" d="M722.889 507.44l-220.832-241.1-281.08 147.12 179.4 672.54z"/><path fill="#0a0607" fill-opacity=".784" d="M-47.519-16.654l395.144 5.532-153.529 665.827-213.972-66.545z"/><path fill="#13110f" fill-opacity=".91" d="M843.926-62L390.974 30.49l445.475 652.12 58.425-386.47z"/><path fill="#cfd2cd" d="M575.789 781.378l-215.855 24.024L248.35 1086h455.14z"/><path fill="#270000" fill-opacity=".329" d="M613.972 562.44L361.898 750.617 858.675 1086 898 721.903z"/><path fill="#f4f3ec" fill-opacity=".475" d="M-62 682.678l644.79-7.193-312.925-323.438-116.664 437.167z"/><path fill="#201110" fill-opacity=".612" d="M-62 940.51L41.81 1086l233.144-66.757 55.11-306.66z"/><path fill="#e4e4e3" fill-opacity=".992" d="M203.49 583.584l248.163-307.012 124.035 49.853 69.8 65.634z"/><path fill="#b07d66" fill-opacity=".925" d="M644.141 682.41L348.975 791.122 751.02 496.665l26.656 155.003z"/><path fill="#ffa787" fill-opacity=".337" d="M354.386 340.389L266.704 85.668l219.143-44.68-27.296 233.23z"/><path fill="#a7836a" d="M295.936 611.736l27.26 62.869L97.04 881.012 73.55 734.206z"/><path fill="#8ac4ed" fill-opacity=".831" d="M105.133 676.52L59.97 728.208-62 771.608V547.271z"/><path fill="#1e1b17" fill-opacity=".824" d="M570.746-61.49L456.318 266.03l207.002 88.116L898 900.29z"/><path fill="#292323" fill-opacity=".988" d="M309.321 200.609l28.506 121.506-165.178 160.547-132.922-56.676z"/><path fill="#1e1917" fill-opacity=".627" d="M686.752 1073.008l154.653-84.828L726.35 724.183 578.99 725z"/><path fill="#eff0ee" fill-opacity=".929" d="M332.351 336.974L441.446 365.1 186.594 639.068l98.093-261.847z"/><path fill="#eaedea" fill-opacity=".835" d="M650.553 928.877l-364.335 58.852L527.69 1086l48.38-268.068z"/><path fill="#3d390a" fill-opacity=".29" d="M572.083 518.241l112.57 146.075-177.994-196.468-289.273 102.813z"/><path fill="#190f31" fill-opacity=".471" d="M465.108 416.479l-50.514 39.357-14.622-49.983 42.534-19.407z"/><path fill="#211d1e" fill-opacity=".745" d="M326.686 849.862l-87.852-58.989 64.322-138.56 7.288 2.738z"/><path fill="#342823" fill-opacity=".831" d="M600.252 559.043l-8.304 92.482 59.62-53.317-2.578-1.956z"/><path fill="#f3f9f8" fill-opacity=".545" d="M749.3 558.438L573.977 321.833l45.452 258.968 73.653-47.71z"/><path fill="#eaeeef" fill-opacity=".722" d="M304.144 568.134l161.755 18.064-103.127 187.998-20.373 182.142z"/><path fill="#300c09" fill-opacity=".949" d="M3.931 833.875l69.923 60.555L126.08 1086l-154.25-48.552z"/><path fill="#aeb1ab" d="M476.965 975.16l105.87-249.69 2.113 91.414-152.794-18.754z"/><path fill="#7e5f46" fill-opacity=".612" d="M206.963 780.325l-165.456-47.58L-62 787.364l259.509 177.593z"/><path fill="#301f1c" fill-opacity=".776" d="M116.088 705.35l-42.441-84.187 170.27-248.06-64.678 292.774z"/><path fill="#292422" fill-opacity=".906" d="M561.682 120.103L483.75-62l-62 93.044-168.204-10.276z"/><path fill="#000102" fill-opacity=".824" d="M186.788 203.248L129.585-36.428-5.537-62l-8.773 242.235z"/><path fill="#ffcb9d" fill-opacity=".22" d="M764.213 637.66l-207.786 61.102 218.575-216.358 36.414 50.979z"/><path fill="#994a41" fill-opacity=".576" d="M361.448 711.547l72.068-24.14-79.062 111.458 130.483-35.1z"/><path fill="#bc8b7b" fill-opacity=".839" d="M362.721 63.905l-58.92 7.515 80.905 186.31-104.797-60.56z"/><path fill="#ffc8a4" fill-opacity=".424" d="M193.773 662.33l.8-27.78-74.71 150.602 141.675-35.247z"/><path fill="#a8967b" fill-opacity=".722" d="M284.355 45.998l123.182-34.71-72.536-3.848-24.536 17.322z"/><path fill="#011121" fill-opacity=".525" d="M306.01 950.918L230.543 1086H25.092l303.135-195.35z"/><path fill="#f7f8fb" fill-opacity=".686" d="M458.318 308.054l-179.896 89.388 290.368-24.938-111.957-123.68z"/><path fill="#e6e8e6" fill-opacity=".973" d="M457.037 828.546l-69.3-44.613-58.252 133.866L230.223 1086z"/><path fill="#6d5035" fill-opacity=".976" d="M742.164 684.502l-31.778-25.055-211.372 71.838 50.336 8.216z"/><path fill="#825847" fill-opacity=".62" d="M451.914 290.543l-79.692 61.363-1.402-154.017 53.337 4.26z"/><path fill="#aea88e" fill-opacity=".459" d="M288.599 673.586l-35.96-165.736 51.987-7.634 62.646-19.176z"/><path fill="#c4dc6e" fill-opacity=".725" d="M898 956.228L876.122 1086l-92.626-56.122L898 963.24z"/><path fill="#eaecee" fill-opacity=".545" d="M570.872 654.504l-88.296 27.33-66.088 8.192-115.141-153.772z"/><path fill="#413d3f" fill-opacity=".835" d="M150.562 787.737l181.47 28.07-212.22 216.363 58.579-124.293z"/><path fill="#030305" fill-opacity=".576" d="M845.037 391.409l-42.403-142.304L316.029-62 830.66 106.038z"/><path fill="#919b96" fill-opacity=".714" d="M403.092 960.694l-122.881-7.493 135.157-3.885 238.08-50.224z"/><path fill="#0e0d10" fill-opacity=".58" d="M188.717 641.736l47.394-172.651-13.597 97.467L-62 389.25z"/><path fill="#e7eceb" fill-opacity=".635" d="M241.079 457.625l30.71 153.282 164.231 17.678-220.244-12.722z"/><path fill="#191411" fill-opacity=".455" d="M595.24 741.498l86.722 69.227L898 635.642v-33.158z"/><path fill="#a09c97" d="M411.928 812.535l152.617 25.072-103.824 49.918 70.607-151.62z"/><path fill="#fbd0b1" fill-opacity=".173" d="M48.814 835.014l153.625 94.416L91.534 691.57l187.25 39.58z"/><path fill="#201d12" fill-opacity=".353" d="M-35.947 803.216l363.264-48.749-3.235 49.122-285.199-3.002z"/><path fill="#b6ac9f" fill-opacity=".306" d="M454.094 308.092L443.25 17.554l33.702 39.314-11.379 99.609z"/><path fill="#634f38" fill-opacity=".427" d="M898 626.874L716.966 916.569l-154.313 44.048 21.06 28.604z"/><path fill="#050001" fill-opacity=".678" d="M313.145 211.158l11.288 108.738-76.448 12.341-1.245-83.551z"/><path fill="#080c10" fill-opacity=".71" d="M852.545 945.594L898 1064.544 737.443 901.34 729.648 1086z"/><path fill="#e4e3de" fill-opacity=".667" d="M584.896 812.92l87.753 232.544-30.66-125.617-129.718-3.69z"/><path fill="#070b0a" fill-opacity=".588" d="M522.134 296.78l300.926 24.227-10.852 184.586-81.705-89.236z"/><path fill="#37393a" fill-opacity=".863" d="M241.178 432.215l49.368-72.688-171.227-14.987 35.486 88.301z"/><path fill="#fafafa" fill-opacity=".78" d="M481.43 1086l-221.773-27.334 79.74-170.163-34.287 56.533z"/><path fill="#dee6eb" fill-opacity=".463" d="M595.804 468.596l67.404 78.394-186.327-45.31-4.25 199.83z"/><path fill="#8b6f53" fill-opacity=".525" d="M640.516 585.655l136.062-112.551-244.5 168.16 2.972-42.756z"/><path fill="#99775d" fill-opacity=".812" d="M312.11 627.498l-90.587-13.325-7.413 27.026-27.872 63.668z"/><path fill="#f7f9f9" fill-opacity=".988" d="M300.767 356.835l120.361 1.912-30.15 131.729-155.266-20.395z"/><path fill="#cb8273" fill-opacity=".702" d="M475.49 683.6l-88.318 6.622 81.887 77.807L615.08 633.341z"/><path fill="#eef0f0" fill-opacity=".918" d="M594.84 342.965l50.029 64.074-31.856 58.14-116.995-178.55z"/><path fill="#001816" fill-opacity=".173" d="M590.334 543.475l-64.16-75.378L411.793 542.9l125.653-33.581z"/><path fill="#e4e6e4" fill-opacity=".914" d="M315.617 974.764l24.538-199.89 112.031 113.658-65.284-117.41z"/><path fill="#fcfdfc" fill-opacity=".478" d="M562.443 751.146l11.01-25.974 12.898 44.356-6.4 62.368z"/><path fill="#573b30" fill-opacity=".596" d="M433.262 102.51l-103.553 49.904 19.563-53.066 90.597 45.492z"/><path fill="#d59f90" fill-opacity=".514" d="M425.878 154.995l-86.32 21.77 91.764-107.249-94.518-1.58z"/><path fill="#100b0e" fill-opacity=".545" d="M584.434 135.38l39.01 76.648-142.804 67.979-24.833-63.422z"/><path fill="#272320" fill-opacity=".71" d="M712.622 375.051L543.91 223.161l134.525 240.873 57.777 44.967z"/><path fill="#94c1ec" fill-opacity=".278" d="M20.968 605.058l72.46 42.912 34.644 41.822L-62 802.094z"/><path fill="#614c49" fill-opacity=".867" d="M695.528 954.417l18.102 80.006L680.653 1086l-23.61-103.873z"/><path fill="#944f46" fill-opacity=".565" d="M438.814 811.15l-56.834-50.331 30.728-34.754 79.402 30.329z"/><path fill="#c5857b" fill-opacity=".427" d="M256.897 158.214l122.526 115.038-4.999-69.92 75.6-18.732z"/><path fill="#201610" fill-opacity=".729" d="M112.776 23.57l325.216 31.116-176.554 16.836 33.725 155.39z"/><path fill="#e5e8e5" fill-opacity=".839" d="M427.002 922.302l-44.21 5.972-54.413-19.502 139.47-118.47z"/><path fill="#af8876" fill-opacity=".722" d="M386.499 353.878l-61.043-125.432-13.597-161.88 29.19 282.764z"/><path fill="#0c0b0c" fill-opacity=".753" d="M288.983-62L-62 560.736 304.995 8.292l191.83-2.136z"/><path fill="#ebe9ff" fill-opacity=".298" d="M712.604 505l66.64 112.01-5.009 32.261-26.757-59.264z"/><path fill="#4c3315" fill-opacity=".549" d="M145.111 918.613L-62 853.575 79.506 767.29-62 774.69z"/><path fill="#433b2f" fill-opacity=".882" d="M270.774 54.753l36.647 123.357 1.346-174.14-.087 25.96z"/><path fill="#f8d3bc" fill-opacity=".529" d="M81.914 728.374l102.196-38.321L-62 754.663l57.26-5.44z"/><path fill="#354e55" fill-opacity=".494" d="M780.727 923.584l116.552 76.896-53.905-166.543-82.142-14.204z"/><path fill="#6a5001" fill-opacity=".227" d="M469.276 562.601l2.924-103.21-25.93 65.522-83.851-35.247z"/><path fill="#312e09" fill-opacity=".235" d="M327.646 247.98l132.882 31.21-56.335 28.155-94.232-48.519z"/><path fill="#251b1c" fill-opacity=".671" d="M530.614 303.749l52.294-329.682-76.806 56.976L461.81 264.22z"/><path fill="#100" fill-opacity=".247" d="M681.113 593.307l-35.516-35.532-53.733 68.26-9.442 8.424z"/><path fill="#000007" fill-opacity=".212" d="M29.76 322.958L-62 357.783l45.302 274.92 174.824-46.877z"/><path fill="#5f5874" fill-opacity=".565" d="M423.348 384.222l32.376 6.938-11.41 51.868-24.29 13.304z"/><path fill="#220104" fill-opacity=".408" d="M430.464 215.478l-67.684 4.664 42.298-23.775-.97 4.808z"/><path fill="#fbd9ab" fill-opacity=".208" d="M442.914 7.53L254.962 27.307 424.3 20.028l43.175 39.674z"/><path fill="#393131" fill-opacity=".592" d="M789.45 563.89l-16.04 139.063L898 803.598l-180.364-292.56z"/><path fill="#544e4d" fill-opacity=".435" d="M402.237 887.394l-95.38-4.313-9.73-68.431-183.778 94.98z"/><path fill="#222d33" fill-opacity=".518" d="M70.611 194.798l190.488 63.522L-62 256.367l138.928-94.34z"/><path fill="#74774a" fill-opacity=".314" d="M582 887.567l-5.174-43.515-91.723 23.822 27.489-35.199z"/><path fill="#ba7957" fill-opacity=".353" d="M158.602 783.954l-180.11-28.29 238.657-63.088-11.1-127.773z"/><path fill="#58443f" fill-opacity=".898" d="M335.023 840.707l-31.303 95.637 18.823-19.837-70.748-89.112z"/><path fill="#bf906e" fill-opacity=".282" d="M124.54 735.272l104.073 43.674-251.054 54.57 198.364 26.642z"/><path fill="#4b2c28" fill-opacity=".722" d="M173.984 669.687l-50.134 35.825-32.79-99.343L146.594 592z"/><path fill="#afb4b0" fill-opacity=".941" d="M489.34 892.763l22.902 34.017 21.126-68.362-145.081 35.28z"/><path fill="#c19d86" fill-opacity=".635" d="M318.705 66.476l-9.777 47.022 134.865-14.785 26.238 1.401z"/><path fill="#dff0f3" fill-opacity=".267" d="M589.18 377.227l-114.67 146.28-26.471-176.305L614.474 553.37z"/><path fill="#605151" fill-opacity=".294" d="M587.885 495.122l30.99-34.167 33.44-18.52 90.484-45.144z"/><path fill="#f1f4f6" fill-opacity=".651" d="M311.237 554.698l4.86 159.565L461.911 605.49l-34.209 84.344z"/><path fill="#fbddc6" fill-opacity=".4" d="M12.205 742.835l132.564-36.044 63.408-50.42-122.25 66.416z"/><path fill="#a3a098" fill-opacity=".78" d="M593.67 655.411l-8.452-9.297-25.327-76.637 34.596-32.459z"/><path fill="#040203" fill-opacity=".514" d="M63.996 947.095L-62 925.694l26.37-103.563L98.015 925.05z"/><path fill="#fcfeff" fill-opacity=".49" d="M595.737 583.304l125.635-68.581-59.002-67.154-6.626 103.112z"/><path fill="#d09f9f" fill-opacity=".502" d="M304.215 148.652l72.653 44.23 9.461-62.71 97.467 34.55z"/><path fill="#816b64" fill-opacity=".847" d="M406.59 690.676l340.642 72.404-357.638-76.343-86.075 21.632z"/><path fill="#4f5559" fill-opacity=".494" d="M116.223 959.337l50.756-136.025 56.904 78.157-53.707 65.955z"/><path fill="#d0d7d9" fill-opacity=".514" d="M541.496 639.03L252.15 547.405l-2.702 41.232 303.42-76.945z"/><path fill="#ac8273" fill-opacity=".922" d="M420.033 246.947l8.805-111.751 9.32 132.602-112.776-36.639z"/><path fill="#a97d09" fill-opacity=".212" d="M302.13 490.93l165.919 18.094-6.655-48.224-36.847 62.178z"/><path fill="#39281f" fill-opacity=".459" d="M235.265 260.59l80.945-155.434-161.906 114.99 75.325 301.552z"/><path fill="#02060d" fill-opacity=".569" d="M-62 534.714L73.593 261.412l123.07 31.353-146.626 69.953z"/><path fill="#6e5936" fill-opacity=".416" d="M570.903 607.586l-18.771-13.722-24.824 30.789 57.68 13.48z"/><path fill="#402f29" fill-opacity=".682" d="M582.92 310.302l-58.562-6.902 12.793-68.195 68.23 13.712z"/></svg>