<svg xmlns="http://www.w3.org/2000/svg" width="228" height="278" viewBox="0 0 836 1024"><path fill="#7a7169" d="M0 0h836v1024H0z"/><g fill-opacity=".502"><path fill="#f4f2ea" d="M386 278l512 732-944 76z"/><path d="M894 410L834-62-62 14z"/><path d="M30-62l236 836-328-148z"/><path fill="#fefdff" d="M214 590l-68-252 200 48z"/><path fill="#671c07" d="M262 518l52 124 420-52z"/><path d="M830-62L274 58l596 336z"/><path fill="#0b0000" d="M-46-62l-16 404 396-16z"/><path fill="#c6e3ff" d="M646 598l192 488-588-76z"/><path fill="#ffd2ae" d="M250 46l-92 72 220 72z"/><path fill="#1f0004" d="M646 454l-140 72-60-260z"/><path fill="#d8b857" d="M254 606l-300 396 336 84z"/><path fill="#feb263" d="M834 1086l64-368-196-20z"/><path fill="#fec9a8" d="M690 454l48 100-352 12z"/><path fill="#86552e" d="M-62 698l360-104-168 244z"/><path fill="#7e959a" d="M666 770L430 918l-52-396z"/><path fill="#1e1b1a" d="M674 338l76 276 136 48z"/><path fill="#dee9f7" d="M298 1054l-52-500 228 532z"/><path fill="#151211" d="M182-62L-62 58 94 654z"/><path fill="#b08164" d="M150 262l232-32-44-176z"/><path fill="#090706" d="M398-62l500 348-532-64z"/><path fill="#d9c3d4" d="M658 358L494 238l84 140z"/><path fill="#4a2d21" d="M462 282l-184 96-80-124z"/><path fill="#873d07" d="M898 650l-240-92 20 128z"/><path fill="#e5dce7" d="M426 570l32-100-272-144z"/><path fill="#522b30" d="M422 458l28-112-68 56z"/><path fill="#ff274d" d="M898 1038L762 898l124-132z"/><path fill="#dfe493" d="M290 914l-352 100 344-288z"/><path fill="#e9f5ff" d="M838 1086L642 594l24 324z"/><path fill="#af5238" d="M278 758l-52-164L42 734z"/><path fill="#9fabb0" d="M790 346l108 196-192-112z"/><path fill="#e8efff" d="M454 314l-92-8 84 68z"/><path fill="#3d1821" d="M770 254l-164-84 92 316z"/><path fill="#3b6d68" d="M-54 742l-4 200 248-164z"/><path fill="#83a2b8" d="M390 598L278 710l308-96z"/><path fill="#0d1400" d="M614 610l-152-12 132-28z"/><path fill="#c9ea95" d="M702 738l196-16-144 140z"/><path fill="#a24030" d="M282 630l180-48-172-96z"/><path fill="#230a00" d="M266 138v56l-72-12z"/><path fill="#23040c" d="M582 330l-68 112-64-76z"/><path fill="#1b242b" d="M234 618L78 374-62 738z"/></g></svg>