<svg xmlns="http://www.w3.org/2000/svg" width="228" height="278" viewBox="0 0 836 1024"><path fill="#687095" d="M0 0h836v1024H0z"/><g fill-opacity=".502"><path fill="#fffffb" d="M606 638l180 448 112-724z"/><path fill="#0044c9" d="M782 1086L410 230 194 974z"/><path fill="#905a35" d="M378 354L898 10-26-62z"/><path fill="#d8c5b4" d="M138 550L266-10-62 78z"/><path fill="#001180" d="M542 270l152 52-92 500z"/><path fill="#4c4b33" d="M278 1014L-62 886l280-476z"/><path d="M486 142L218 90 398-62z"/><path fill="#0552d2" d="M170 334l4 264 472-312z"/><path fill="#ffd3d5" d="M898 542l-256 8 176 536z"/><path fill="#edffff" d="M210 958l-272 16 212 112z"/><path fill="#8fb8e4" d="M446 790L318 498l184-8z"/><path fill="#001c6d" d="M898 558L574 410l144-76z"/><path fill="#fff" d="M898 490L662 282l188 92z"/><path fill="#dcf5ff" d="M490 250h132L374 362z"/><path fill="#033ba2" d="M690 1086l-88-596-340 596z"/><path fill="#cbb5c8" d="M234 626L86 762h180z"/><path fill="#b39175" d="M-2 134l-20 684 176-240z"/><path fill="#9c5a50" d="M602 246L834-62l4 428z"/><path fill="#221f25" d="M198 434L-2 850l280-296z"/><path fill="#ff9a8d" d="M574 374l-56 100-44-88z"/><path fill="#a7b9c5" d="M-30 426l16 164 216-4z"/><path fill="#b4e3f8" d="M34 342l304-56-228 116z"/><path fill="#eb3b47" d="M66 78L-62 14l396-76z"/><path fill="#1563da" d="M282 1014l-36-532 256 604z"/><path fill="#1e71ec" d="M662 278l-176-8 96 160z"/><path fill="#b87864" d="M-62 330l88-164 320 116z"/><path fill="#69420a" d="M458 314l-16-188-84 216z"/><path fill="#fff" d="M606 246l88 52-180-44z"/><path fill="#8f869d" d="M530 146l368-4L354-62z"/><path fill="#f2ffff" d="M406 638l12 116 40-108z"/><path fill="#f5ffff" d="M702 514l-40 300-32-136z"/><path fill="#093086" d="M602 550l48 92-332 4z"/><path fill="#685541" d="M-6 610l212 56-104-144z"/><path fill="#e6bfc7" d="M750 1086l148-256-260-260z"/><path fill="#bbe5ec" d="M206 158l-72 112-16-212z"/><path fill="#483a34" d="M114 458l-92-16-64-192z"/><path fill="#b09b82" d="M654 546h216l-208-96z"/><path fill="#eff" d="M254 290h60l76 68z"/><path fill="#002056" d="M538 466l124-88-28 248z"/><path fill="#a08361" d="M438 202L78 294 366 78z"/></g></svg>