<svg xmlns="http://www.w3.org/2000/svg" width="228" height="278" viewBox="0 0 836 1024"><path fill="#764443" d="M0 0h836v1024H0z"/><g fill-opacity=".502"><path fill="#fff" d="M594 854l44 232H310z"/><path fill="#850000" d="M150 334l560 8-336 744z"/><path fill="#b2ddd8" d="M482 142L166-62-62 78z"/><path fill="#b8daff" d="M778 266l-296-16 276 188z"/><path fill="#f1b1a0" d="M270 266L-62 630l92 112z"/><path fill="#a1e5ff" d="M818 738l-68 112 148 152z"/><path fill="#ab0000" d="M670 806l-496 64 76 216z"/><path fill="#620000" d="M190 726l460 168-456-544z"/><path fill="#cab97f" d="M402 846l-84 68L66 642z"/><path fill="#dfffff" d="M578 882l60 156-248-16z"/><path fill="#253932" d="M382 46l392 236L874-62z"/><path fill="#021f3c" d="M82 1078l132-128L18 666z"/><path fill="#d5a99d" d="M342 334L454 74 230 354z"/><path fill="#7f0000" d="M654 326l76 244-652-68z"/><path fill="#232a2d" d="M626 414l244 328-216 68z"/><path fill="#0a1400" d="M406 406L510 58l72 72z"/><path fill="#4b3234" d="M-62 422L350 46l-16 220z"/><path fill="#002135" d="M-10 282L94 430-58 650z"/><path fill="#596850" d="M866 510L406 702l-60-124z"/><path fill="#eac79c" d="M358 66h96L318 226z"/><path fill="#bdfff9" d="M374 466l-52 40 80-4z"/><path fill="#d2000f" d="M198 318l240 76-256 116z"/><path fill="#a093a8" d="M710 302l184 412-172-208z"/><path fill="#c39b67" d="M170 642l-232-44 316 224z"/><path fill="#400" d="M286 482l116 356L78 578z"/><path fill="#e8ffff" d="M190 458l-48 28 32-84z"/><path fill="#959eb0" d="M534 190l-32 120 284 64z"/><path fill="#e9e8c6" d="M54 490l96 56-168 60z"/><path fill="azure" d="M638 870l-144 48-104 168z"/><path fill="#bc0000" d="M186 790l24 232 184-32z"/><path fill="#680000" d="M626 358L430 458 322 242z"/><path fill="#666470" d="M866 914l-284-84 68 256z"/><path fill="#4b656b" d="M538 1078l64-108-108 24z"/><path fill="#830000" d="M562 874l-308 212 308-512z"/><path fill="#a9b6d8" d="M702 450l-68-204 160 76z"/><path fill="#55606d" d="M-46 38l160 64-32 404z"/><path fill="#d76c8e" d="M90 906l-72 92-80-160z"/><path fill="#556180" d="M546 454l120 252 196 92z"/><path fill="#080d00" d="M278 114l120-92-76 108z"/><path fill="#fbdbf6" d="M318 282l-48 76-32-44z"/></g></svg>