<svg xmlns="http://www.w3.org/2000/svg" width="228" height="278" viewBox="0 0 836 1024"><path fill="#555b76" d="M0 0h836v1024H0z"/><g fill-opacity=".502"><path fill="#ffc0b8" d="M662 366l236 616-272 104z"/><path fill="#e3e1db" d="M-62 1066l396-808-152 776z"/><path fill="#000019" d="M166 1058l128-400 416 404z"/><path fill="#10161c" d="M898-62L778 534 494 110z"/><path fill="#4f8dff" d="M166 502l536-48-100-192z"/><path fill="#ffdbb6" d="M762 674L370 798l108 60z"/><path fill="#001c6a" d="M678 670l-88-308-344 420z"/><path fill="#f4c091" d="M482 54l20 168-236-56z"/><path fill="#fff" d="M-62 914l252 40-132 132z"/><path fill="#001" d="M214 1078l416-108-56-184z"/><path fill="#24384b" d="M10-62l256 616-328 176z"/><path fill="#001822" d="M-62 818l28 100h284z"/><path fill="#aaabe0" d="M50 166l132 200 24-244z"/><path fill="#dbeeec" d="M510 658l-48-64-176 32z"/><path fill="#cd1226" d="M586 830l312 4-164 100z"/><path fill="#ffdfe5" d="M626 918l272 16-236 152z"/><path fill="#3970e4" d="M450 538L270 222l-68 276z"/><path fill="#202830" d="M2-50l16 180 512-64z"/><path d="M506 314l-132 76 8-140z"/><path fill="#000839" d="M166 682l368 72V646z"/><path fill="#5a8ccc" d="M698 458l-80 140 280-132z"/><path fill="#aecce9" d="M578 834l320-156-40 124z"/><path fill="#000514" d="M842 58l48 196L562-62z"/><path fill="#002688" d="M746 546l-460 40 28-120z"/><path fill="#efbfae" d="M530 818l-156-76 292 16z"/><path fill="#968cab" d="M106 330l28-392 76 144z"/><path fill="#7390c0" d="M710 138L510 66l68-128z"/><path fill="#071d39" d="M294 198l-88 156L222-2z"/><path fill="#c7b3ad" d="M90 750l140-256-44 468z"/><path fill="#001451" d="M414 1086l-52-476-172 324z"/><path fill="#000916" d="M718 494L610 174l100-12z"/><path fill="#8f6b49" d="M258 62l124 308 60-220z"/><path fill="#91858a" d="M530 158l68-24 40 256z"/><path fill="#c4deed" d="M658 514l64-20-104-176z"/><path fill="#a395a7" d="M558 798l16-260 88 388z"/><path fill="#a6c8dd" d="M278 714L34 698l188 128z"/><path fill="#0c131b" d="M754 594l28 104 116-100z"/><path fill="#b2ab9e" d="M486 606l-312-36-12 84z"/><path fill="#4d7cfc" d="M654 362L498 250l4 220z"/><path fill="#2e0409" d="M898 222L694 430l188 4z"/></g></svg>