<svg xmlns="http://www.w3.org/2000/svg" width="228" height="278" viewBox="0 0 836 1024"><path fill="#5d5859" d="M0 0h836v1024H0z"/><path fill="#c2d1dd" fill-opacity=".455" d="M-53.461 977.839l7.756-156.384 536.948-486.888L898 959.842z"/><path fill="#0e0605" fill-opacity=".965" d="M392.315 184.074L-20.633 576.037-48.601-62h447.82z"/><path fill="#130707" fill-opacity=".953" d="M751.428 681.609L898 664.69V-56.791L551.189-62z"/><path fill="#00030a" fill-opacity=".714" d="M348.034 698.936L237.406 1086h87.277l115.89-459.254z"/><path fill="#d1e1f8" fill-opacity=".765" d="M356.095 271.69l37.676 162.791-131.048 529.516 48.765-688.306z"/><path fill="#00050c" fill-opacity=".749" d="M526.999 1086l17.593-468.21-87.841 258.868L443.559 1086z"/><path fill="#fefbff" fill-opacity=".659" d="M303.367 312.519l3.912-35.641-116.78 90.159L5.081 640.25z"/><path fill="#b5bccd" fill-opacity=".996" d="M616.914 326.426l72.979 13.24-73.672 252.677-18.356-248.263z"/><path fill="#a29f9b" fill-opacity=".992" d="M572.464 678.313L524.628 954.9 898 1083.446V689.15z"/><path fill="#d9e7ff" fill-opacity=".631" d="M549.055 513.557l-28.566-215.688-156.21 647.418 71.308 30.454z"/><path fill="#ac9f93" fill-opacity=".941" d="M195.619 1086l-91.245-594.392-58.082 59.344L-62 997.453z"/><path fill="#000003" fill-opacity=".584" d="M324.463 397.322l-71.866 233.456-158.614 71.634 135.54-319.6z"/><path fill="#2a2a2d" fill-opacity=".941" d="M467.828 524.375L387.541 33.571l-7.53 490.528 5.541-4.49z"/><path fill="#000406" fill-opacity=".659" d="M581.73 994.444L195.657 1086l32.085-356.1-65.564 221.005z"/><path fill="#2f1100" fill-opacity=".4" d="M705.505 942.228l5.525-445.371-176.127 43.466 4.064-289.612z"/><path fill="#d5dff1" fill-opacity=".827" d="M214.14 906.886l61.344-193.224 111.233-144.238-105.895 342.215z"/><path fill="#020000" fill-opacity=".616" d="M898 27.098L-1.15-62 637.184 98.38 533.597 391.433z"/><path fill="#accae4" fill-opacity=".816" d="M284.207 488.835l334.477 105.456-112.012 89.378-236.81-74.215z"/><path fill="#fea863" fill-opacity=".361" d="M589.117 184.564l13.018-130.426-200.71 72.004 71.227 328.126z"/><path fill="#181d27" fill-opacity=".631" d="M555.443 651.642l61.534 209.035-2.39-184.651-149.47 216.88z"/><path fill="#d4e3ff" fill-opacity=".573" d="M595.448 929.926l31.19 148.475-96.91-158.383 61.007-343.883z"/><path fill="#211d1b" fill-opacity=".996" d="M720.562 523.008l69.753-167.285L603.273 721.29l102.134-463.34z"/><path fill="#987659" fill-opacity=".992" d="M710.252 521.145l27.197 147.632L680.618 1086l-32.711-112.42z"/><path fill="#c0c1c6" fill-opacity=".51" d="M194.708 675.432L-62 696.775l323.178 61.052-60.473-262.338z"/><path fill="#191d25" fill-opacity=".678" d="M354.301 639.568l9.381 14.06 88.532 14.65-94.98 216.616z"/><path fill="#d3dcf3" fill-opacity=".773" d="M386.511 275.062l-114.743 8.918 102.28 210.399-5.886-164.036z"/><path fill="#201f1b" fill-opacity=".976" d="M91.982 476.252L-55.005 333.147l97.551 330.405-68.54 9.58z"/><path fill="#c7d3e7" fill-opacity=".878" d="M524.244 396.124l15.96 76.347L408.83 935.035l64.84-568.218z"/><path fill="#0c1014" fill-opacity=".62" d="M145.296 482.004l39.85 61.848 132.977-55.612-12.313-129.514z"/><path fill="#250908" fill-opacity=".953" d="M425.926 257.21l-5.917-83.981L-62 266.455l207.529 32.74z"/><path fill="#ac7d57" fill-opacity=".718" d="M166.474 446.776l-45.202 156.452 18.06 321.648-79.62-335.367z"/><path fill="#131823" fill-opacity=".6" d="M258.859 672.931l-72.913 179.206 88.548-280.909-109.345-123.552z"/><path fill="#120f09" fill-opacity=".416" d="M607.22 466.108l-23.162-185.944-79.413-.7-3.202 56.288z"/><path fill="#9fbacc" fill-opacity=".671" d="M625.623 531.14l-346.168 8.393 399.019 164.365-68.142 91.111z"/><path fill="#e9f1ff" fill-opacity=".51" d="M113.032 475.487l181.254-200.663-101.892 183.211-113.836-12.582z"/><path fill="#ecd7be" fill-opacity=".573" d="M29.091 770.992l-82.698-160.38L116.977 812 44.992 538.205z"/><path fill="#0d0f0e" fill-opacity=".663" d="M563.977 1086l12.4-119.469-385.549 71.739-3.83-98.531z"/><path fill="#d1e8ff" fill-opacity=".263" d="M675.13 491.909L571.791 294.738l155.496 68.67-239.754 111.631z"/><path fill="#14161c" fill-opacity=".596" d="M441.577 901.94l84.085-224.167 56.815-13.738-45.807 149.103z"/><path fill="#000211" fill-opacity=".357" d="M231.298 637.382l68.64 16.896-112.214 291.085 101.4-321.218z"/><path fill="#d4dceb" fill-opacity=".773" d="M340.15 752.836l8.09-90.041-27.956-119.28-111.673 424.817z"/><path fill="#d2dbe7" fill-opacity=".831" d="M165.221 1086l4.144-.055 21.729-124.812-29.015-16.335z"/><path fill="#ccd7e8" fill-opacity=".957" d="M376.057 944.355l-21.017 24.08 100.672 2.28L413.91 752.19z"/><path fill="#e7ffff" fill-opacity=".439" d="M898 760.902v-69.103L731.353 704.26l-4.683 41.695z"/><path fill="#07101b" fill-opacity=".584" d="M551.246 535.928l67.324-1.065-20.462-44.86-56.813 6.142z"/><path fill="#0c0b06" fill-opacity=".608" d="M146.284 655.649l-26.147-72.43 50.085-37.032 42.277 133.707z"/><path fill="#baa58d" fill-opacity=".604" d="M652.891 789.37L601.292 1086l81.068-264.962-38.884-310.785z"/><path fill="#2c0807" fill-opacity=".953" d="M892.968 329.512l-265.256-8.863-50.168-103.216L898 271.192z"/><path fill="#0c0900" fill-opacity=".561" d="M707.401 409.83l-50.073 253.803 54.505-63.325-98.225-36.56z"/><path fill="#081320" fill-opacity=".325" d="M605.157 1065.905L592.973 959.15l30.658-79.029-24.327-191.49z"/><path fill="#484c57" fill-opacity=".906" d="M200.196 804.19l-41.801 131.002 103.517-159.404-5.388-19.709z"/><path fill="#2a282b" fill-opacity=".694" d="M215.824 354.933L-62 622.113l195.681-241.056 204.475-162.353z"/><path fill="#242931" fill-opacity=".733" d="M456.198 537.539L364.41 302.362l86.282 50.09 11.41 85.672z"/><path fill="#050a08" fill-opacity=".384" d="M167.565 1032.733l65.218-101.239 134.588 23.71L350.063 1086z"/><path fill="#edffff" fill-opacity=".208" d="M180.057 830.983l65.78-44.625-11.393-119.616-116.541 39.35z"/><path fill="#d6e4ff" fill-opacity=".49" d="M600.484 856.017l-51.782-79.858-22.586 95.699 81.963 72.401z"/><path fill="#0f1116" fill-opacity=".702" d="M200.208 554.095l53.96 72.484-32.993 146.195 81.544-456.104z"/><path fill="#c5cee4" fill-opacity=".722" d="M387.976 404.374l-88.102 16.692 72.434-151.154-21.512-.48z"/><path fill="#dee1f1" fill-opacity=".541" d="M338.26 505.934l-55.565-20.204-10.84 79.234 36.798 182.795z"/><path fill="#eaebf6" fill-opacity=".553" d="M345.978 259.807L167.632 398.388l-41.49 52.565-48.686 94.643z"/><path fill="#ccd5e8" fill-opacity=".847" d="M541.07 592.25l-77.676-101.87-8.323-144.383 81.683 95.906z"/><path fill="#b6c2d6" d="M601.508 610.76l-7.503 58.419L455.83 652.82l-150.981-6.504z"/><path fill="#5c4d3c" fill-opacity=".6" d="M485.98 118.987l-86.615 42.231-22.28-111.021L529.288-2.165z"/><path fill="#1f1d16" fill-opacity=".651" d="M70.127 520.012L-46.552 694.434-62 375.394l179.329 111.503z"/><path fill="#dba265" fill-opacity=".38" d="M203.833 546.86L58.055 532.985 85.043 834.48l15.889-373.114z"/><path fill="#e0ebfb" fill-opacity=".42" d="M300.261 882.656l-22.149 72.127-55.398-87.772 56.03-125.651z"/><path fill="#9c9fc1" fill-opacity=".443" d="M651.806 334.8l-102.674-50.827L687.11 340.79l26.724 48.826z"/><path fill="#161c27" fill-opacity=".741" d="M538.318 409.57l5.573 92.462 15.381-213.97 51.51 141.169z"/><path fill="#b68668" fill-opacity=".4" d="M413.839 287.033l12.192-80.277-46.965-99.605 253.097 79.25z"/><path fill="#73b8dc" fill-opacity=".196" d="M-53.74 940.112L8.654 645.565 82.55 831.593l148.254 125.57z"/><path fill="#010100" fill-opacity=".714" d="M475.637-47.272L-4.445-51.867l-9.707 257.732 265.326 18.296z"/><path fill="#745847" fill-opacity=".914" d="M651.458 907.183l-11.718 160.98-11.314-89.622 89.502-77.346z"/><path fill="#4aaad5" fill-opacity=".392" d="M353.533 506.697l-25.943 100.7 89.498 10.676 15.728-56.741z"/><path fill="#161a1f" fill-opacity=".694" d="M310.254 388.264l-3.381 98.817-81.065-94.092 69.877-58.348z"/><path fill="#947546" fill-opacity=".89" d="M452.938 333.684l-16.804-11.108 59.828 55.693 68.792-45.732z"/><path fill="#a59d98" fill-opacity=".906" d="M514.62 1086l96.52-112.635 31.726 37.072L455.406 1086z"/><path fill="#0e1018" fill-opacity=".576" d="M268.525 619.964l26.545 20.666-19.111 14.733-46.681-66.67z"/><path fill="#000109" fill-opacity=".4" d="M622.764 756.372l-48.962 11.06 43.83-91.838-9.692 77.067z"/><path fill="#edf5ff" fill-opacity=".486" d="M300.952 325.05l-124.946 91 117.016-131.966 109.721-25.256z"/><path fill="#c2c9da" fill-opacity=".831" d="M608.87 689.168l-9.04-20.788-62.497 165.571 36.583-68.6z"/><path fill="#91a4b5" fill-opacity=".757" d="M596.001 610.236l79.035-167.016L511.19 639.518l46.007-3.51z"/><path fill="#191d23" fill-opacity=".714" d="M538.748 962.388L589.843 1086l-149.777-34.493 44.41-286.662z"/><path fill="#ccd3e6" fill-opacity=".694" d="M591.508 350.476l79.324-20.787-12.43 147.36-28.215 30.738z"/><path fill="#d0d9ea" fill-opacity=".49" d="M378.088 972.636l61.108-49.528L540.189 599.01 385.012 815.594z"/><path fill="#ffe4c9" fill-opacity=".482" d="M29.684 596.038l7.976-36.765 29.825-12.345-4.606 180.12z"/><path fill="#373941" fill-opacity=".78" d="M173.938 867.164l29.2 119.122 32.791-197.237 12.755-16.798z"/><path fill="#b1c3f0" fill-opacity=".408" d="M205.743 757.652l25.478-41.224 1.719-111.76-30.464-51.018z"/><path fill="#cedaef" fill-opacity=".576" d="M535.918 791.59l71.46 57.759-18.241 116.68-54.41-.259z"/><path fill="#b7ffff" fill-opacity=".067" d="M898 1086L705.09 822.006l79.903-244.317 48.21-150.606z"/><path fill="#060201" fill-opacity=".776" d="M588.556 140.5l58.929 114.18L898 206.908v-87.774z"/><path fill="#1c1f25" fill-opacity=".659" d="M434.206 694.903l-14.394 50.213-72.266-95.585 90.962 11.629z"/><path fill="#111316" fill-opacity=".718" d="M141.669 493.385l119.862 67.692 25.362-73.141-8.566-117.058z"/><path fill="#0b0c06" fill-opacity=".224" d="M528.357 689.077l-163.43 82.666 182.246-71.895 5.644 80.27z"/><path fill="#0e0b0b" fill-opacity=".682" d="M719.974 290.203l-37.62 226.26-8.266-168.718 105.776 162.68z"/><path fill="#121410" fill-opacity=".694" d="M623.021 547.389l24.097 54.448-2.249 86.18-16.507-28.62z"/><path fill="#070404" fill-opacity=".976" d="M210.02 223.525L365.11 10.149l53.19 242.825-3.302-18.394z"/><path fill="#010201" fill-opacity=".412" d="M587.558 248.605L656.871 90.85 413.805 51.97 898-35.66z"/><path fill="#8a8c95" fill-opacity=".545" d="M173.774 917.692L153.027 1086h-207.65l4.61-131.692z"/><path fill="#bcc3cd" fill-opacity=".353" d="M695.683 353.628l9.38 20.954 7.708 56.523-31.454-90.397z"/><path fill="#9d7056" fill-opacity=".29" d="M589.857 285.999l16.32-196.673-184.676-62.498 147.16 145.924z"/><path fill="#380a0a" fill-opacity=".643" d="M215.004 307.45l115.282-35.96L-62 211.934l28.725 85.168z"/><path fill="#fcd6aa" fill-opacity=".251" d="M643.376 718.09l9.68-147.647 32.79 351.513-73.508-242.717z"/><path fill="#1c2027" fill-opacity=".706" d="M354.04 1029.251l-61.538-96.25 11.003-101.35 91.157-167.162z"/><path fill="#c4cfeb" fill-opacity=".314" d="M317.73 546.127l29.166-57.42 47.8-241.064-91.77 93.406z"/><path fill="#986a4c" fill-opacity=".471" d="M140.823 882.836l-19.28-357.5-54.699 89.636 80.92 186.988z"/><path fill="#cbd7f3" fill-opacity=".729" d="M249.361 731.092l19.486-68.819-.854.346-9.623-19.863z"/><path fill="#cad1d9" fill-opacity=".702" d="M167.314 893.886l14.87-53.574 2.097-15.444-15.767 6.806z"/><path fill="#030707" fill-opacity=".545" d="M659.507 478.44l-37.21 103.772 88.856-46.486-31.434-177.348z"/><path fill="#33251e" fill-opacity=".408" d="M526.618 123.536l22.046-3.922 27.39 5.6-24.216 46.09z"/><path fill="#ba8d70" fill-opacity=".573" d="M178.294 813.3L89.935 704.699 87.87 852.58l43.423 24.773z"/><path fill="#d2dcee" fill-opacity=".702" d="M306.975 580.43l-46.855 25.99 95.579 60.341 9.873-38.932z"/><path fill="#1b0f12" fill-opacity=".604" d="M587.433 301.374l68.21-113.711L545.41 299.519l61.63 167.637z"/><path fill="#8e8373" fill-opacity=".522" d="M407.733 83.59l-19.764-17.216 8.633 89.544 48.339 79.553z"/><path fill="#d9e7df" fill-opacity=".424" d="M209.97 702.85l-12.27 29.787-71.78-12.359 3.354-50.125z"/><path fill="#15171b" fill-opacity=".612" d="M518.033 659.306l2.137 66.648-10.319 108.18 68.7-160.32z"/><path fill="#5e4025" fill-opacity=".529" d="M711.022 999.504L643.48 1086l35.233-96.899-139.057 72.866z"/><path fill="#1a222c" fill-opacity=".616" d="M432.954 524.791l-55.565-5.91 8.404-94.498 75.47 106.597z"/><path fill="#242b38" fill-opacity=".792" d="M606.755 783.61l-11.454 61.816 8.484-5.918 11.566 51.897z"/><path fill="#0b0d11" fill-opacity=".522" d="M238.833 727.155l59.31-348.462 15.899 110.068-80.301-.438z"/><path fill="#b2c3d8" fill-opacity=".898" d="M397.365 658.029l164.872-14.38-166.69-120.915 192.18 21.983z"/></svg>