<svg xmlns="http://www.w3.org/2000/svg" width="228" height="278" viewBox="0 0 836 1024"><path fill="#66615d" d="M0 0h836v1024H0z"/><g fill-opacity=".502"><path fill="#fff" d="M258 1086l-20-844 548 192z"/><path d="M898 26L-62 438 14-62z"/><path d="M898-62l-68 1148L602-18z"/><path fill="#fff" d="M690 998l-456 88-12-408z"/><path fill="#0b0700" d="M-62 854l332-440-88 672z"/><path fill="#fff2f9" d="M726 634l-32-340-580 104z"/><path d="M602 722l56 364 240-368zM18 274L898-22-62-62z"/><path fill="#b87641" d="M450 450L598 70l-204 92z"/><path fill="#edebfd" d="M254 270L34 530l404-168z"/><path fill="#fff" d="M658 1086l-48-220-360 112z"/><path fill="#030000" d="M462-62l436 36-64 692z"/><path d="M-30 314l4 296 216-276z"/><path fill="#df8a50" d="M174 850l-104 8 4-324z"/><path fill="#000900" d="M-62 1002l172 84L10 402z"/><path fill="#988b72" d="M898 366l-416-80 376-28z"/><path fill="#fff" d="M546 282l140 368 24-264z"/><path fill="#c2bfd0" d="M206 818l408-24-252-540z"/><path fill="#000017" d="M126 534l4 272 196-296z"/><path d="M410 254L302-62-62 222z"/><path fill="#ffc082" d="M566 110l-92 4 96 188z"/><path fill="#5d4231" d="M586 278l-184 8 44 124z"/><path fill="#60250c" d="M586 626l-72 100 252-96z"/><path fill="#04160e" d="M898 838l-160 248-16-692z"/><path fill="#867960" d="M-62 234l152 88 280-52z"/><path d="M898 238l-336 24L678-62z"/><path fill="#dda568" d="M574 490l100 140-324-148z"/><path fill="#b5b3c6" d="M74 474l76 56 232-176z"/><path fill="#2e5000" d="M214 854l28 232-304-124z"/><path fill="#fbf9ff" d="M166 370l208-108 72 128z"/><path fill="#a5a7b7" d="M578 946L246 626l48-164z"/><path fill="#fff" d="M594 298l116 140-236-52z"/><path fill="#1c1a21" d="M334 390l-44 12 112 24z"/><path fill="#3d6200" d="M898 966l-228 120-52-220z"/><path fill="#dfddf0" d="M214 762l548 324H250z"/><path fill="#000013" d="M146 798l104-328-8 232z"/><path fill="#f7faff" d="M726 622l-36-216-64 220z"/><path fill="#0a102a" d="M806 882l92-560-208 16z"/><path fill="#a76330" d="M30 646l64-192 44 404z"/><path fill="#000014" d="M-6 566l216-252-236 88z"/></g></svg>