<svg xmlns="http://www.w3.org/2000/svg" width="228" height="278" viewBox="0 0 836 1024"><path fill="#888683" d="M0 0h836v1024H0z"/><path fill="#5d5149" fill-opacity=".973" d="M858.813 345.586L90.44 263.341-62-6.383 898-.897z"/><path fill="#f8ffff" fill-opacity=".333" d="M898 1028.472l-960-5.688 466.293-206.343L554.335-40.27z"/><path fill="#876f59" fill-opacity=".839" d="M653.588 634.6l198.71 20.095-194.144 348.932-56.845-610.745z"/><path fill="#bcc2c4" fill-opacity=".949" d="M780.327 450.873L414.56 558.558 243.265 428.523 676.692 311.33z"/><path fill="#2f2618" fill-opacity=".996" d="M503.281 314.22l-127.77 75.372L310.726 8.539l89.003 189.284z"/><path fill="#a6adb0" fill-opacity=".996" d="M330.349 246.833l39.614 204.998L-62 382.904l50.61-65.684z"/><path fill="#695652" d="M474.603 68.365l297.533 364.77 71.238 147.402L898 49.934z"/><path fill="#e7ebef" fill-opacity=".855" d="M755.253 622.573l76.487 39.14-1.889-108.088-38.688-43.184z"/><path fill="#070e0d" fill-opacity=".42" d="M266.238 63.732L46.477 273.617l89.815 45.917L492.703 10.603z"/><path fill="#e5edf6" fill-opacity=".537" d="M632.128 819.925L423.208 1086l127.288-507.313 64.16-27.973z"/><path fill="#2a1a1c" fill-opacity=".537" d="M73.761 520.453L27.815 708.735-62 509.065l164.13-87.03z"/><path fill="#566e73" fill-opacity=".737" d="M531.027 611.243L383.787 722.06 77.415 992.818l224.85-446.413z"/><path fill="#d5dadb" fill-opacity=".753" d="M898 763.702L708.888 937.616l-318.778 72.573L831.108 1086z"/><path fill="#9e8f74" fill-opacity=".851" d="M387.009 87.451l139.97 96.622L497.963-62l163.214 86.422z"/><path fill="#745334" fill-opacity=".694" d="M-34.45 912.98l97.752-265.535 71.929 6.597 18.48 64.242z"/><path fill="#b7a6af" fill-opacity=".447" d="M674.13 101.77l55.08 146.766 82.837-33.67-36.745-179.497z"/><path fill="#eef4fb" fill-opacity=".592" d="M132.35 657.947l-54.102-16.084-32.087 5.708L83.313 525.28z"/><path fill="#6a5744" fill-opacity=".835" d="M755.191 895.836l-206.709 26.87 137.728 27.548 28.084-19.203z"/><path fill="#5c6f69" fill-opacity=".565" d="M469.536 703.272L78.88 370.321l327.486 468.16 98.535-56.334z"/><path fill="#594e4a" fill-opacity=".996" d="M651.208 804.94l-32.441-120.293 2.382-38.034 93.103 28.155z"/><path fill="#1b1b1f" fill-opacity=".38" d="M804.881-62l71.16 719.888-205.426-418.81 227.385 8.5z"/><path fill="#7ea6b9" d="M668.088 309.91l-121.872-36.63-41.49 45.39 139.745 58.485z"/><path fill="#c0c6c7" fill-opacity=".773" d="M258.502 904.762l7.636-96.05 291.55 159.47L-62 1069.22z"/><path fill="#838570" fill-opacity=".914" d="M254.3 354.163l13.038 150.465 51.93-107.977-17.071-51.352z"/><path fill="#176ea8" fill-opacity=".42" d="M80.41 945.846l183.391-24.452-8.56-109.93-134.62 47.561z"/><path fill="#80462f" fill-opacity=".435" d="M626.544 99.727L286.01 202.739l290.737 77.767 151.441-129.098z"/><path fill="#f0fcf4" fill-opacity=".2" d="M119.268 807.523l65.461-263.133 27.325 308.371-231.268 45.907z"/><path fill="#d6d9db" fill-opacity=".922" d="M460.754 336.614L774.5 429.34l-83.244-77.051-207.993 113.674z"/><path fill="#5a2202" fill-opacity=".486" d="M64.219 944.991l20.567 36.732-115.198-51.032 100.277-54.309z"/><path fill="#3c3b3b" fill-opacity=".718" d="M435.435 143.342L54.157 103.737-62 218.291 15.563-62z"/><path fill="#b1967a" fill-opacity=".659" d="M495.639 909.556l192.758-43.17 65.59 76.933 13.093-194.61z"/><path fill="#909285" fill-opacity=".639" d="M514.731 445.352l-40.286 80.343 245.608-8.25 10.788 193.569z"/><path fill="#244028" fill-opacity=".361" d="M219.836 524.735l-85.125 77.3 33.269-188.432 46.852 17.944z"/><path fill="#0f0300" fill-opacity=".255" d="M373.025 229.148l210.963-8.306-167.326 169.15-104.678-96.239z"/><path fill="#241f1b" fill-opacity=".635" d="M471.524 129.3l19.579 41.778-318.754-5.123-40.903 122.248z"/><path fill="#fdf6ff" fill-opacity=".322" d="M101.848 423.238l281.157-107.764-202.959 21.12-18.736-30.473z"/><path fill="#babfc6" fill-opacity=".635" d="M415.212 478.507L312.178 271.253l-4.177 306.617 306.38-235.144z"/><path fill="#fcd4a6" fill-opacity=".173" d="M488.286 173.152l-254.675-2.977 333.882 58.72L482.513-62z"/><path fill="#4986aa" fill-opacity=".671" d="M242.514 324.378l-60.018 10.974-8.307-47.168 159.876 1.94z"/><path fill="#dee1f4" fill-opacity=".243" d="M-62 331.923l86.794 113.915 37.691-320.706-65.618 60.807z"/><path fill="#b6bcbc" d="M750.24 509.59l-31.925 155.014 69.963-92.154-381.81-178.889z"/><path fill="#f8fbfe" fill-opacity=".612" d="M689.787 330.32l-29.758-18.815-1.412 116.762 90.995 6.709z"/><path fill="#ffb26b" fill-opacity=".278" d="M7.713 909.64L61.34 729.376l44.762-2.306-9.81 178.752z"/><path fill="#181609" fill-opacity=".506" d="M457.207 14.913l70.207 53.863-196.523 3.735L430.35 9.126z"/><path fill="#e4e9ed" fill-opacity=".467" d="M611.166 600.475l21.678-22.139-60.814 325.481-28.763-540.576z"/><path fill="#828d89" fill-opacity=".478" d="M279.442 884.99l151.324 54.11-124.707 26.143-9.56 120.757z"/><path fill="#08291c" fill-opacity=".255" d="M635.63 392.692l-10.96 171.044-60.374-33.98 48.947-17.122z"/><path fill="#2f4c55" fill-opacity=".561" d="M589.412 628.255l-107.423-22.248-155.052 37.404-69.65-55.62z"/><path fill="#a8b0b2" fill-opacity=".973" d="M243.672 865.731l130.205-74.055 181.354-74.1-143.743 74.33z"/><path fill="#001f2a" fill-opacity=".435" d="M374.575 254.035l319.81 131.718-258.023-88.12-78.52-168.852z"/><path fill="#d1d4cf" fill-opacity=".541" d="M-62 1006.443L258.742 1086l46.916-121.5-286.063 6.909z"/><path fill="#aeb5b8" d="M597.972 690.665l-220.22-3.901 176.29-23.15-207.864-7.647z"/><path fill="#e3e8eb" fill-opacity=".706" d="M669.383 326.377L615.51 288.93l-92.15-13.688-8.17-10.293z"/><path fill="#c7ccd0" fill-opacity=".749" d="M484.836 548.637l12.906-224.888-97.662 74.598-119.797-90.793z"/><path fill="#5b350f" fill-opacity=".498" d="M143.365 664.264l-14.932 94.475-66.195-49.81 15.779-67.09z"/><path fill="#60656e" fill-opacity=".988" d="M35.418 835.43L-52.097 1020-62 879.11 43.133 725.94z"/><path fill="#352e27" fill-opacity=".545" d="M890.87 77.435L766.548 390.707l-14.943 56.415L898 457.127z"/><path fill="#cfd4d9" fill-opacity=".62" d="M618.778 1086L471.68 833.473l-84.926 42.556L466.704 1086z"/><path fill="#664416" fill-opacity=".353" d="M321.602 270.8l23.879 85.1 55.914 39.783 75.825-55.82z"/><path fill="#612805" fill-opacity=".216" d="M248.918 646.226l9.806 296.412-61.44-127.094 33.687-165.386z"/><path fill="#170d01" fill-opacity=".251" d="M898 96.3L613.142 21.432l232.581-57.144L888.85-7.356z"/><path fill="#87a0aa" fill-opacity=".561" d="M637.21 1042.22L521.976 904.04l93.903-29.952L560.875 1086z"/><path fill="#030100" fill-opacity=".357" d="M-62 625.549l81.57-95.959 37.475 94.034L-62 644.364z"/><path fill="#000305" fill-opacity=".506" d="M335.39 219.513l147.128 63.384 46.008 13.615-115.869 41.011z"/><path fill="#6a7e78" fill-opacity=".463" d="M274.807 860.345l86.639 6.54 172.82-123.26-246.628 104.688z"/><path fill="#925f24" fill-opacity=".404" d="M743.282 646.826l152.586 44.2L679.962 807.01l50.791-59.062z"/><path fill="#ebeef0" fill-opacity=".831" d="M823.602 675.043l-6.016-131.76-64.87 95.773 64.369 12.46z"/><path fill="#636158" fill-opacity=".788" d="M326.494-62l-40.106 231.267 43.797-121.125L473.763-7.01z"/><path fill="#9b9980" fill-opacity=".447" d="M206.526 766.952l-127.2-192.117 81.936 36.482 154.844 28.515z"/><path fill="#a2a4a2" fill-opacity=".694" d="M760.597 606.16L659.645 443.264l75.903 293.694-82.99 102.458z"/><path fill="#867066" fill-opacity=".396" d="M61.204 132.36l83.634 193.345-90.834-10.5-22.09-70.991z"/><path fill="#6b556d" fill-opacity=".98" d="M739.155 539.692l29.102 22.157 98.786-145.092-28.756 88.608z"/><path fill="#d5c0b1" fill-opacity=".702" d="M494.83 176.121l20.668 39.427 11.628-44.338-11.997.338z"/><path fill="#360c00" fill-opacity=".349" d="M647.169 848.067l25.629-28.215-57.682 129.813 39.628-24.577z"/><path fill="#62626a" fill-opacity=".988" d="M51.453 594.587l6.98-133.208 83.128 72.977-66.698-10.973z"/><path fill="#fffdff" fill-opacity=".373" d="M255.993 890.908l36.043-46.332-28.452-76.513 5.354 44.969z"/><path fill="#5f3e1d" fill-opacity=".494" d="M395.947 72.017l37.033 81.307-132.792 108.71-30.032-33.337z"/><path fill="#effcff" fill-opacity=".192" d="M257.484 247.432l-140.786 66.862 236.723-74.675-25.022 144.18z"/><path fill="#6c5c64" fill-opacity=".824" d="M839.407 604.978L789.005 421.17 898 673.032l-105.803 88.549z"/><path fill="#eef8ff" fill-opacity=".212" d="M46.986 668.14L-62 764.625l185.513-192.112-49.688-75.134z"/><path fill="#6b7a7c" fill-opacity=".345" d="M372.226 1009.951l70.748-48.39L321.299 1086l-46.54-117.424z"/><path fill="#ffd1bc" fill-opacity=".239" d="M502.339 61.164l-77.399 79.56 127.494-17.19-2.726 46.678z"/><path fill="#436270" fill-opacity=".514" d="M227.966 645.893l241.803 13.55L533 645.577l-102.405-15.836z"/><path fill="#836454" fill-opacity=".478" d="M725.448 385.396l92.856-51.06-260.369-87L489.772 1.74z"/><path fill="#b2b7bf" fill-opacity=".898" d="M302.913 448.773l-159.321-45.546-39.87 48.357 29.565-92.895z"/><path fill="#237fb6" fill-opacity=".302" d="M242.744 906.022l16.914-53.13-158.536-36.975 13.053 86.79z"/><path fill="#59879d" fill-opacity=".996" d="M685.664 358.866L528.72 303.104l-43.405-36.462-13.343 3.02z"/><path fill="#7c8e72" fill-opacity=".455" d="M514.957 44.37L414.302-16.103 742.867-62 552.552 112.158z"/><path fill="#f3f5ff" fill-opacity=".259" d="M512.966 911.065l-267.572 68.993 258.942-13.596-222.954-35.987z"/><path fill="#1b3331" fill-opacity=".169" d="M297.65 928.301l177.099-34.655 85.535-1.89L455.736 916.8z"/><path fill="#708b9b" fill-opacity=".447" d="M310.168 397.682l-99.203 84.134 346.96 128.83-261.45-24.788z"/><path fill="#fdf8f5" fill-opacity=".278" d="M30.738 854.278l-31.496 57.46 71.343-51.058-39.17-46.44z"/><path fill="#0f0e01" fill-opacity=".361" d="M63.442 984.569l-109.687-96.907L-62 932.397l86.318-22.947z"/><path fill="#624734" fill-opacity=".624" d="M80.193 89.597l-3.502 189.197L188.95 168.315l11.127-94.795z"/><path fill="#afb5bc" fill-opacity=".647" d="M318.982 487.195l23.478-152.124 121.658 236.027-235.668-80.08z"/><path fill="#919b9b" fill-opacity=".839" d="M481.257 851.784l-235.645-76.345 193.57-21.45L318.75 784.79z"/><path fill="#49574f" fill-opacity=".584" d="M177.34 336.592l38.263 161.586-30.721 33.198-3.62-196.446z"/><path fill="#a68834" fill-opacity=".278" d="M563.215 523.27l58.33 14.626-145.864-32.224 55.865-77.713z"/><path fill="#cce2ec" fill-opacity=".341" d="M799.47 494.513l-61.357-.687-27.425-85.37 9.22 151.61z"/><path fill="#401f0e" fill-opacity=".227" d="M629.902 129.326L806.773-62 567.52 108.45l162.85 276.484z"/><path fill="#273c1c" fill-opacity=".278" d="M579.5 543.626l99.924-11.235-63.982-39.586 9.178 18.934z"/><path fill="#b4b9ba" d="M569.76 597.667l184.89-7.622-324.917 15.967-9.91-6.623z"/><path fill="#0f4299" fill-opacity=".235" d="M712.493 751.931l-47.128 42.756 13.96-120.937 40.098-48.739z"/><path fill="#010f1f" fill-opacity=".467" d="M238.362 159.334L180.488 296.44l32.765.29-77.86-24.798z"/><path fill="#dfe3e6" fill-opacity=".922" d="M534.954 862.694l81.857-22.166 20.645-49.95-6.146-47.83z"/><path fill="#a9b2b5" fill-opacity=".675" d="M492.788 855.941l-19.949-255.28 67.095 157.893-80.574 122.894z"/><path fill="#025482" fill-opacity=".518" d="M183.006 327.986L335.1 291.79l-46.252 16.782-25.344 8.413z"/><path fill="#9f7349" fill-opacity=".518" d="M32.392 702.155l.578-55.605 90.635 115.733-46.829 115.226z"/><path fill="#082708" fill-opacity=".212" d="M443.711 765.624l-144.716 41.062 40.667-17.664 200.465-75.676z"/><path fill="#08030d" fill-opacity=".11" d="M664.816 953.435l113.48-37.784L770.71 756.7l-29.081 114.975z"/><path fill="#090700" fill-opacity=".365" d="M469.313 172.611l-81.912-26.7 151.457-7.405-23.264-6.761z"/><path fill="#dde4e5" fill-opacity=".49" d="M678.07 950.702l-58.11 76.071-6.049-69.738-77.923-33.285z"/><path fill="#f7f6fc" fill-opacity=".412" d="M166.579 349.593l-59.187 51.16 64.454-116.314 5.592 99.04z"/><path fill="#a6a8b0" fill-opacity=".212" d="M806.748 228.552L749.364 40.246l-54.808 45.162 64.026 183.262z"/><path fill="#a4d6ff" fill-opacity=".106" d="M110.338 444.944l7.387 108.797 146.248 108.343 69.574-1.247z"/><path fill="#546354" fill-opacity=".502" d="M375.508 632.94L266.47 752.489l83.767 28.537-5.699-268.346z"/><path fill="#9fa0a1" fill-opacity=".941" d="M366.819 933.946l191.755-4.642 139.663-184.87-158.733 197.329z"/><path fill="#241c10" fill-opacity=".718" d="M434.412 261.895l61.264-51.724-3.596 52.395-6.524 3.26z"/><path fill="#e4e5ff" fill-opacity=".227" d="M730.058 659.458l-74.767-76.202-12.124-37.658 121.87 85.875z"/><path fill="#9fb2cb" fill-opacity=".325" d="M85.795 830.207l92.598 16.31 1.129-77.305-25.501-61.536z"/></svg>