<svg xmlns="http://www.w3.org/2000/svg" width="228" height="278" viewBox="0 0 836 1024"><path fill="#484e77" d="M0 0h836v1024H0z"/><path fill="#d2e2ea" fill-opacity=".773" d="M-19.902 807.918l311.91 19.748L456.965 960.9 201.45 516.572z"/><path fill="#ebf4f8" fill-opacity=".8" d="M677.863 501.794l200.733-11.218L898 837.022l-146.319-50.696z"/><path fill="#01208b" fill-opacity=".765" d="M98.8 345.292l362.564 613.935 358.941 41.203-207.879-663.948z"/><path fill="#2c1c02" fill-opacity=".541" d="M320.458 413.757L53.408 1.048l317.967-29.194 258.758 180.458z"/><path fill="#185dff" fill-opacity=".518" d="M748.397 1086l56.417-211.362-78.42-154.117L380.614 1086z"/><path fill="#0a1516" fill-opacity=".671" d="M348.698 1086l-90.98-245.61-163.696-.579L103.728 1086z"/><path fill="#c5cfdb" fill-opacity=".718" d="M499.92 489.275l-40.729-83.394-49.402 36.389 1.32 68.014z"/><path fill="#120000" fill-opacity=".373" d="M354.693 635.154L898 463.591l-232.702-68.95-417.99 205.934z"/><path fill="#d6e0ec" fill-opacity=".518" d="M575.112 295.453l-140.66-21.045-20.936 39.74 223.942 42.537z"/><path fill="#ff6305" fill-opacity=".298" d="M898 301.262L508.53 196.426l219.227 162.409-45.177 225.567z"/><path fill="#ac8671" fill-opacity=".655" d="M461.34 82.536L497.198-62 733.47 72.044l-11.647 58.766z"/><path fill="#e5b574" fill-opacity=".243" d="M175.057 666.353L-62 612.885 360.633 91.743l-414.448 57.01z"/><path fill="#03072a" fill-opacity=".745" d="M304.813 691.247l290.978 96.383-106.552 84.124-94.094-26.67z"/><path fill="#ffffe1" fill-opacity=".435" d="M553.965 977.561l139.98-52.834L570.071 1086l-123.91-11.694z"/><path fill="#ffde80" fill-opacity=".227" d="M417.472 739.459L232.8 648.302 490.11 597.6l38.844 105.696z"/><path fill="#481e00" fill-opacity=".557" d="M719.723 113.527L898 254.481V7.872L628.428-62z"/><path fill="#97a1a1" fill-opacity=".729" d="M347.684 768.577l55.031 78.747 44.293 125.238-169.876-27.988z"/><path fill="#73420d" fill-opacity=".427" d="M65.349 855.942l8.006-158.59 116.903-199.779-234.875 161.858z"/><path fill="#010207" fill-opacity=".467" d="M397.728-62l214.613 379.117L329.17 98.68 198.476 63.063z"/><path fill="#282a30" fill-opacity=".961" d="M795.397 833.168l96.3-22.958-47.149 260.069L785.283 1086z"/><path fill="#d0e4eb" fill-opacity=".525" d="M61.456 535.668L-62 724.002l87.726 59.41L-62 445.32z"/><path fill="#ccdff5" fill-opacity=".6" d="M372.157 808.87L190.45 512.089 47.715 743.597l93.164 39.03z"/><path fill="#03187b" fill-opacity=".78" d="M245.891 321.117l283.3 285.318L72.502 497.11l25.291-88.447z"/><path fill="#427dff" fill-opacity=".31" d="M210.057-62L97.478 532.22l1.405-130.102 117.982-67.627z"/><path fill="#0021d0" fill-opacity=".396" d="M501.998 605.05l180.48-63.175 53.963 164.61L595.7 1036.239z"/><path fill="#923632" fill-opacity=".788" d="M504.407 269.068l54.225 22.898 143.491 12.6-104.649-125.693z"/><path fill="#c26618" fill-opacity=".384" d="M-46.12 257.558l-6.622-278.184L93.831-62l2.935 139.917z"/><path fill="#8a6146" fill-opacity=".447" d="M400.551 186.158L362.594 82.292 279.23 93.706l-9.187 240.905z"/><path fill="#0433d4" fill-opacity=".506" d="M689.65 363.682l-272.636 70.654-21.325-98.064 9.13-24.335z"/><path fill="#caa6a2" fill-opacity=".584" d="M660.053 466.894l32.627 11.767 120.105 18.09-122.187 67.623z"/><path fill="#001c8b" fill-opacity=".463" d="M645.059 200.557l127.19-89.165 102.31 97.034-86.047 58.942z"/><path fill="#d8eaf2" fill-opacity=".482" d="M724.8 743.494l63.91-255.224L898 836.974l-149.45-35.436z"/><path fill="#fafbde" fill-opacity=".557" d="M290.774 616.983l15.775 41.653 16.175-39.456-31.443-9.78z"/><path fill-opacity=".357" d="M495.156 545.752l151.922-176.637 59.333 72 93.354 22.437z"/><path fill="#002eb7" fill-opacity=".698" d="M450.346 1064.068l-15.333-205.405 289.342 93.835 42.557-166.515z"/><path fill="#443b0a" fill-opacity=".388" d="M-51.145 290.015l55.49 215.786 86.211-47.508L74.9 309.085z"/><path fill="#0a1242" fill-opacity=".882" d="M159.83 447.698l66.951 10.635L332.46 734.378 255.406 609.87z"/><path fill="#716ccf" fill-opacity=".506" d="M699.783 416.156l67.728-67.558-489.07-127.65L649.028 338.34z"/><path fill="#001f81" fill-opacity=".659" d="M111.315 937.155L-62 906.25v-69.518l168.718 9.737z"/><path fill="#080200" fill-opacity=".553" d="M250.701 330.464l119.447-9.462 7.542 84.525-82.915 11.869z"/><path fill="#0529a5" fill-opacity=".937" d="M622.866 1005.99l169.643-69.415 6.528-44.482L748.796 1086z"/><path fill="#cfc787" fill-opacity=".702" d="M269.388 481.409l-47.936-24.581 7.476-14.256 44.508 38.486z"/><path fill="#1c346b" fill-opacity=".631" d="M59.088 183.685L95.66 65.752l105.529-49.935-16.33 104.61z"/><path fill="#ffdb91" fill-opacity=".29" d="M207.528 293.617l-.19 9.808-132.605 80.824 281.871-107.146z"/><path fill="#8c909a" fill-opacity=".62" d="M-17.095 831.975l409.187.467-275.005-36.672L-5.27 713.833z"/><path fill="#06030b" fill-opacity=".345" d="M548.363 291.674L221.218 113.827l-10.741 101.324 349.152-72.247z"/><path fill="#000349" fill-opacity=".522" d="M481.522 910.81l253.177-253.33-95.137 167.913 78.63-99.972z"/><path fill="#fbfae0" fill-opacity=".333" d="M404.103 468.714l31.759-53.24 51.497 23.363-36.502 78.079z"/><path fill="#032195" fill-opacity=".824" d="M533.1 479.207l88.693-175.87L505.001 421.92 460.66 541.737z"/><path fill="#2b2f25" fill-opacity=".353" d="M262.82 803.987l60.435 159.416L600.368 1086l-659.2-13.467z"/><path fill="#cdddf7" fill-opacity=".737" d="M559.343 972.905L457.559 1086l136.079-80.456-3.125-26.563z"/><path fill="#003ce3" fill-opacity=".286" d="M114.701 410.024l270.041 84.454-274.027-240.571 135.794 5.647z"/><path fill="#090e44" fill-opacity=".506" d="M354.116 529.125L140.49 464.001l241.648 230.071 11.228 36.01z"/><path fill="#b2bee2" fill-opacity=".447" d="M523.958 713.072l-49.13-117.51 13.345 106.758 41.783 12.005z"/><path fill="#fffe95" fill-opacity=".325" d="M559.937 1086l37.898-74.747 83.162-117.594-25.841 75.603z"/><path fill="#634b38" d="M60.25 643.086l12.262 69.783L-62 753.836l58.497-138.143z"/><path fill="#151208" fill-opacity=".514" d="M71.174 688.35l29.71-83.13L189.3 500.816l-40.203 72.759z"/><path fill="#00052d" fill-opacity=".565" d="M483.432 722.507l65.512-4.37-133.076 158.41-84.05-153.278z"/><path fill="#281a0a" fill-opacity=".824" d="M815.87 445.517L725.3 482.4 898 499.819v6.258z"/><path fill="#b3a091" fill-opacity=".51" d="M898 404.082l-89.257-29.347-11.886-72.85L898 207.82z"/><path fill="#90a094" fill-opacity=".282" d="M442.787 991.777L306.112 978.66l-53.837-23.352 60.603-174.671z"/><path fill="#e6e8ca" fill-opacity=".314" d="M563.655 351.67l32.611-30.837-162.303-56.582-30.453 15.175z"/><path fill="#000d91" fill-opacity=".525" d="M706.123 440.836l-48.646-68.02-10.218-71.589-69.285 105.52z"/><path fill="#0e4ee5" fill-opacity=".902" d="M569.675 1045.233l67.544-90.102 89.143-221.33-31.576 23.156z"/><path fill="#91705f" fill-opacity=".596" d="M105.643 356.325l36.663-1.671L3.524 86.96-62 270.117z"/><path fill="#042eb7" fill-opacity=".922" d="M511.32 633.554l191.18-31.986 23.926 75.194-242.696-3.634z"/><path fill="#866351" fill-opacity=".867" d="M101.083 499.803l51.413 26.45-99.682 134.633-6.465-76.999z"/><path fill="#3961e7" fill-opacity=".494" d="M652.605 325.727l-275.81-69.384-50.117-8.525L657.234 305.4z"/><path fill="#04105d" fill-opacity=".973" d="M417.38 492.175l23.006 200.738-49.553-127.63-155.734 9.499z"/><path fill="#00071b" fill-opacity=".475" d="M188.22 837.215l108.019 3.878L170.06 946.089l-97.238-41.644z"/><path fill="#fcfbda" fill-opacity=".337" d="M419.344 661.942l-3.27-53.535-29.09 68.732-19.865-63.064z"/><path fill="#fffce4" fill-opacity=".247" d="M400.74 641.818l62.898 23.552-35.755-48.748 79.953-9.63z"/><path fill="#7d4430" fill-opacity=".341" d="M827.852 208.526L815.881 74.931 526.978 236.442 814.131-62z"/><path fill="#000a39" fill-opacity=".267" d="M498.454 100.479l177.95 143.012-50.979-163.926-330.47 317.71z"/><path fill="#e7d7d6" fill-opacity=".188" d="M623.272-62l58.196 168.819-190.316-77.403 124.73-16.199z"/><path fill="#3d2108" fill-opacity=".463" d="M399.326 363.965l-17.36-146.254-135.899 95.673-36.091-120.945z"/><path fill="#e38249" fill-opacity=".192" d="M123.021 195.765l118.353 38.452 64.37 1.376 124.065-46.085z"/><path fill="#0029f3" fill-opacity=".29" d="M133.768 351.78L69.349 479.218l99.66 53.685-16.833-42.01z"/><path fill="#92a1a5" fill-opacity=".573" d="M772.486 819.044L754.78 780.14 898 771.346v56.315z"/><path fill="#963d36" fill-opacity=".851" d="M550.115 245.479l161.751 97.431 87.927 11.976-4.946-24.218z"/><path fill="#000765" fill-opacity=".427" d="M500.377 623.711L273.784 495.427l367.763 20.357-10.483 69.15z"/><path fill="#815f52" fill-opacity=".478" d="M86.649 129.191l69.947 103.906L320.433 80.584l1.536 94.81z"/><path fill="#381e20" fill-opacity=".922" d="M897.724 1017.709l-109.239-28.044 8.611-22.656L718.512 1086z"/><path fill="#00116e" fill-opacity=".561" d="M480.732 933.94l103.171-63.68-166.57-144.597 206.502-.904z"/><path fill="#021980" fill-opacity=".682" d="M432.469 234.55l-52.204 126.755-127.324 150.966 135.7 13.85z"/><path fill="#070b09" fill-opacity=".596" d="M415.16-2.049l51.778-51.59-35.176 148.414L213.148 79.83z"/><path fill="#000c6e" fill-opacity=".561" d="M641.197 913.86l100.84-59.553 10.753-18.499-23.37-12.623z"/><path fill="#0154f8" fill-opacity=".49" d="M738.296 759.682l53.105 95.36-72.966-25.443-197.177 133.648z"/><path fill="#b34900" fill-opacity=".259" d="M688.127 508.042l-40.882-45.605L898 459.002l-27.833-97.592z"/><path fill="#b0c6e1" fill-opacity=".745" d="M98.522 648.477l105.843-134.385 50.112 112.632-2.03 27.844z"/><path fill="#5e4d56" fill-opacity=".494" d="M106.713 919.91l55.743 139.15L-62 1005.14l144.483-57.841z"/><path fill="#dad6c0" fill-opacity=".318" d="M425.537 695.055l-5.107-5.188-67.66 28.878 80.826-5.677z"/><path fill="#838ea6" fill-opacity=".996" d="M338.83 617.439l46.425 108.943-37.323-115.347-236.068 163.143z"/><path fill="#5a5761" fill-opacity=".569" d="M498.727-62L445.24 68.529l228.586 42.067-208.244 4.652z"/><path fill="#000548" fill-opacity=".502" d="M715.183 658.479l18.73 36.004-102.457 126.992 32.082-13.594z"/><path fill="#063ed7" fill-opacity=".906" d="M744.136 914.109L568.32 1086l170.402-129.919-150.54-50.295z"/><path fill="#d2eff1" fill-opacity=".235" d="M114.159 512.404l-36.12-25.408-69.244 143.03-23.658-140.11z"/><path fill="#0f1316" fill-opacity=".988" d="M898 829.57l-55.243 47.042-39.97 35.094-12.794-72.817z"/><path fill="#01150e" fill-opacity=".553" d="M77.948 685.216l-29.414 42.962 9.558-.797-61.802 4.122z"/><path fill="#081863" fill-opacity=".722" d="M433.227 650.046l-2.882 357.378 13.261-381.374 106.067-19.145z"/><path fill="#10151f" fill-opacity=".929" d="M527.008 263.304L433.782 69.056l-13.637 179.513 58.804 23.545z"/><path fill="#e3eff7" fill-opacity=".267" d="M33.856 664.52l53.02 31.94 43.499 142.129 183.33-131.097z"/><path fill="#534549" d="M221.684 51.489l2.873 35.804L145.71-62l178.42 3.006z"/><path fill="#071316" fill-opacity=".373" d="M213.578 1086l229.736-29.23 8.905-46.625-224.45-29.784z"/><path fill="#020e56" fill-opacity=".439" d="M397.992 645.138l42.621 52.248-115.857-36.25 49.992 47.451z"/><path fill="#000414" fill-opacity=".247" d="M898-45.294l-38.483 374.592L664.323-62l133.13 208.143z"/><path fill="#000032" fill-opacity=".337" d="M489.275 407.068l79.51 144.973 140.783-126.715-34.683-13.704z"/><path fill="#063dd3" fill-opacity=".682" d="M504.407 476.654l-68.248-96.37-10.228-45.411 35.048-5.24z"/><path fill="#291501" fill-opacity=".471" d="M380.968 190.774l-158.207 3.627 5.456-23.183 145.274-10.007z"/><path fill="#2a57cf" fill-opacity=".322" d="M733.403 147.684l-92.535 36.5 139.774 40.318-.4-48.972z"/><path fill="#0a1213" fill-opacity=".482" d="M344.133 710.272l42.95 21.394 42.108 155.301-196.719-307.894z"/><path fill="#e2ecf3" fill-opacity=".451" d="M724.197 754.447l115.44-58.322L898 524.821l-150.581-1.148z"/><path fill="#1f190b" fill-opacity=".565" d="M213.643 208.143l120.235 197.713-41.67-20.183L227.15 271.19z"/><path fill="#fca396" fill-opacity=".439" d="M284.612 281.737l29.344 6.35-16.367 23.35-36.507-21.668z"/><path fill="#131f66" fill-opacity=".965" d="M522.942 831.874l-67.304-168.975-78.21 29.321 101.063-24.991z"/><path fill="#0033d1" fill-opacity=".424" d="M723.053 649.724L604.906 752.473l37.673-224.477 29.584-12.71z"/><path fill="#ff433d" fill-opacity=".235" d="M696.704 260.624l16.365 54.335-173.898-29.983-27.412-21.231z"/><path fill="#68676a" fill-opacity=".792" d="M109.582 398.17L62.93 511.725l42.617-220.446 54.054 29.122z"/><path fill="#3261ce" fill-opacity=".894" d="M551.389 988.89l.452 19.752 26.096-9.021-131.891-71.97z"/><path fill="#f7ffcb" fill-opacity=".227" d="M237.25 315.527l-91.92 38.28 16.342-28.286 88.64-38.952z"/></svg>