<svg xmlns="http://www.w3.org/2000/svg" width="228" height="278" viewBox="0 0 836 1024"><path fill="#5f6037" d="M0 0h836v1024H0z"/><g fill-opacity=".502"><path fill="#ffff59" d="M514 54l116 1032-500-20z"/><path fill="#00001f" d="M450-62L-30-38-62 978z"/><path fill="#000010" d="M838 1086L574-62l324 36z"/><path fill="#e7ea57" d="M206 346l32 740 516-676z"/><path fill="#fff37b" d="M718 426L510 290l204 616z"/><path d="M142 1086l80-336-284 216z"/><path fill="#00022e" d="M830-58l-420-4 480 840z"/><path d="M598 1086l296-596 4 584z"/><path fill="#00123d" d="M-62 106v308l812-140z"/><path d="M-54 886L50 158l144 396z"/><path fill="#e4a48a" d="M706 494l48 292-184 300z"/><path fill="#030000" d="M578 906l20-212 116-16z"/><path fill="#e9f28c" d="M378 310L246 778l-32-372z"/><path fill="#8e8e1c" d="M582 750L242 466l416 28z"/><path fill="#9a594b" d="M410 410L282 34l280 112z"/><path d="M798 1086l100-792-208 20z"/><path fill="#ffffa0" d="M682 398L518 294l-84 120z"/><path fill="#e09379" d="M-50 874l228-268-80 196z"/><path fill="#e6e25c" d="M158 1034l456-4-380-284z"/><path fill="#000008" d="M150 1086l-212-84 268-240z"/><path fill="#000001" d="M250 290H-62l196 372z"/><path fill="#023259" d="M534 22l36 312 328-140z"/><path fill="#00000c" d="M858 1082l-20-496-224 500z"/><path fill="#677fa1" d="M214 502l288-92-36 104z"/><path fill="#002e5f" d="M-62 94l380 12v244z"/><path fill="#bdb503" d="M250 630l-104 48 60-196z"/><path fill="#301400" d="M498 294l-124 92-12-132z"/><path fill="#c2c12e" d="M690 558l-360 528-96-404z"/><path fill="#131511" d="M330 86l492-12L526-62z"/><path fill="#e1ffa4" d="M742 674l-80-4 20-272z"/><path d="M898 310l-204 80-160-88z"/><path fill="#c6826a" d="M710 870l-184 216 148-400z"/><path fill="#f1f898" d="M178 574l56-200 120-32z"/><path fill="#e4e578" d="M578 490l-348-40 80-76z"/><path fill="#7d3c07" d="M-34 934l256-168 8-208z"/><path d="M378 254l-48 88-192 52z"/><path fill="#1638d0" d="M726 554l-32-40-36 32z"/><path fill="#ebf28b" d="M234 714l-76 372 96-68z"/><path d="M602 646l44 96-56 132z"/><path fill="#d7ce41" d="M378 1086l108-488 112 288z"/></g></svg>