<svg xmlns="http://www.w3.org/2000/svg" width="228" height="278" viewBox="0 0 836 1024"><path fill="#77535f" d="M0 0h836v1024H0z"/><path fill="#e3aeb7" fill-opacity=".678" d="M562.795 317.113l-366.96 19.697L92.964 732.08l367.87 214.432z"/><path fill="#160508" fill-opacity=".58" d="M35.727-62L898 362.212 805.982-62-62 388.952z"/><path fill="#a0caff" fill-opacity=".533" d="M877.612 845.353l-506.23-31.514 156.897 167.64 313.178 9.301z"/><path fill="#140009" fill-opacity=".498" d="M681.16 374.584L898 504.107 688.25 861.029 516.349 519.753z"/><path fill="#634846" d="M321.864 361.075L439.78 441.5l32.417-501.723L218.382 8.36z"/><path fill="#b20218" fill-opacity=".694" d="M171.43 625.905l73.737 114.084 47.8-249.172-46.573-76.023z"/><path fill="#fd2646" fill-opacity=".576" d="M63.445 1086l471.686-77.546-337.615-172.757-56.972-45.049z"/><path fill="#292029" fill-opacity=".8" d="M58.802 597.42l113.95-213.481L220.22-62-29.363-7.795z"/><path fill="#f4001f" fill-opacity=".69" d="M562.586 481.926L662.8 425.261l12.389-69.564-137.86-23.718z"/><path fill="#f9f0ff" fill-opacity=".435" d="M431.464 425.9l93.473-140.448-2.348 326.13L189.29 368.458z"/><path fill="#4e303c" fill-opacity=".89" d="M394.893 650.097L67.465 660.123l57.419-60.924 117.268 34.998z"/><path fill="#2b161d" fill-opacity=".671" d="M898 30.006l-528.089 77.368L-62 241.933 519.64-62z"/><path fill="#cda8bb" fill-opacity=".78" d="M241.458 963.269l201.024-4.98-247.259-76.538 206.277 6.672z"/><path fill="#ffe1bd" fill-opacity=".561" d="M698.37 354.711l11.547 52.186 34.072 13.495 141.118-103.788z"/><path fill="#ffcca9" fill-opacity=".286" d="M449.534 109.938l63.365 244.91-218.961-118.395 40.296-135.774z"/><path fill="#222f53" fill-opacity=".49" d="M898 764.944L618.4 872.749l-136.688-65.16 49.236-318.845z"/><path fill="#e4616c" fill-opacity=".761" d="M144.598 446.872L258.622 232.63l24.141 75.352-164.982 264.955z"/><path fill="#cd001c" fill-opacity=".776" d="M231.474 843.183l-80.902-31.816-54.998 189.96L209.304 1086z"/><path fill="#4d63a7" fill-opacity=".592" d="M622.667 964.008L793.802 684.48 417.239 1086 898 994.371z"/><path fill="#e0cbde" fill-opacity=".706" d="M417.417 492.597l-37.775 117.026-158.405-237.652 71.959-57.614z"/><path fill="#005c7d" fill-opacity=".424" d="M67.335 1060.84l74.342-297.106L-62 851.198v226.807z"/><path fill="#ded9e8" fill-opacity=".631" d="M542.009 1009.623l-364.25-10.119 240.15-8.083 79.223 71.533z"/><path fill="#614247" fill-opacity=".827" d="M505.27 196.488L436.78-55.196l361.24 400.892-361.998-54.93z"/><path fill="#cdb8c7" fill-opacity=".984" d="M464.104 960.815l38.009-329.295-251.07 78.337 171.246-1.39z"/><path fill="#42232a" fill-opacity=".753" d="M833.152 414.32L898 793.71l-31.203-13.654-371.015-170z"/><path fill="#31040d" fill-opacity=".639" d="M703.682 355.376L898 302.44V-33.481l-124.618-1.652z"/><path fill="#d5ecfe" fill-opacity=".588" d="M399.81 756.328l126.609-45.16-188.668 16.444-133.35 33.454z"/><path fill="#a10321" fill-opacity=".522" d="M463.093 699.581l-4.46 6.496-34.656 17.871-204.698-5.704z"/><path fill="#ffae98" fill-opacity=".329" d="M584.921 918.435l-43.563 72.449-137.208-41.996-123.438-178.844z"/><path fill="#dac9df" fill-opacity=".71" d="M564.056 424.248L501.46 291.355l-51.754 28.498 4.432 104.33z"/><path fill="#ce6f1e" fill-opacity=".443" d="M471.708 556.598l-42.113-92.61-43.307 173.038 112.269-80.444z"/><path fill="#ec3047" fill-opacity=".675" d="M174.512 370.57l119.032 87.133-144.978 156.333 150.33-.114z"/><path fill="#401d25" fill-opacity=".541" d="M-62 736.392l166.266-334.314-152.97 494.396 170.523-131.238z"/><path fill="#ffc6e5" fill-opacity=".427" d="M175.097 445.447l53.736-6.397L193.1 573.381l-91.762 48.09z"/><path fill="#432334" fill-opacity=".49" d="M399.34 591.366l-139.29-4.963-17.297 123.15-60.612-71.374z"/><path fill="#dcefff" fill-opacity=".529" d="M358.59 967.356l94.635-30.56-259.41 11.685 152.368 12.38z"/><path fill="#bc2c4c" fill-opacity=".463" d="M227.953 553.06l187.99-2.282-231.394-36.393 294.084-44.566z"/><path fill="#4355b0" fill-opacity=".431" d="M442.38 791.708l78.03 66.724 299.216-6.97L898 789.693z"/><path fill="#13277c" fill-opacity=".424" d="M898 1015.98L467.096 1086l153.34-164.528 20.158 62.181z"/><path fill="#c80926" fill-opacity=".694" d="M308.95 944.314l-144.867-30.346 169.82-4.016 62.958 23.105z"/><path fill="#847267" fill-opacity=".357" d="M82.614 255.333l119.697 97.98 79.693-51.782 9.121-141.366z"/><path fill="#020111" fill-opacity=".478" d="M421.63 428.395L270.44 249.642l86.934 151.512 95.417-25.99z"/><path fill="#bda7b9" fill-opacity=".831" d="M485.012 983.727l-246.356 26.276-35.414-20.289 44.664 4.867z"/><path fill="#2f5656" fill-opacity=".561" d="M139.257 432.883l-34.39 208.084 4.005 234.309L34.314 410.07z"/><path fill="#c83c56" fill-opacity=".773" d="M340.58 808.39l8.21 9 131.856-14.619 15.519-16.32z"/><path fill="#eee9ff" fill-opacity=".647" d="M445.902 528.93l-46.42 46.52-69.206 18.784-33.6-.342z"/><path fill="#c5e0f7" fill-opacity=".69" d="M475.197 775.51l-193.679.58 53.842 28.472 128.616-16.627z"/><path fill="#cfecf0" fill-opacity=".31" d="M634.156 873.386l239.945 8.978-30.261 70.405-186.467-.907z"/><path fill="#00dcf5" fill-opacity=".157" d="M258.504 600.388l273.222 22.068-213.728 85.082-55.734-1.283z"/><path fill="#c59582" fill-opacity=".769" d="M347.405 218.058l95.91-102.43-113.997 9.782 132.093 96.434z"/><path fill="#820216" fill-opacity=".592" d="M110.43 901.854l234.032 92.191 131.38-37.31-234.497 20.659z"/><path fill="#5d3d3a" fill-opacity=".741" d="M404.081 148.809l135.913-18.588-424.406 61.27 469.213-19.958z"/><path fill="#dbf9ff" fill-opacity=".455" d="M284.954 457.698l264.31-34.417-285.703 110.462 171.895.334z"/><path fill="#3e0005" fill-opacity=".369" d="M670.277 450.74L473.586 571.693l142.61-160.598 91.008 8.073z"/><path fill="#ecf8ff" fill-opacity=".616" d="M359.337 831.923l125.149-32.76-14.457 43.632-52.41 12.302z"/><path fill="#757da8" fill-opacity=".647" d="M.418 948.919l34.35 24.792 27.284-127.584-44.713 6.973z"/><path fill="#dcb399" fill-opacity=".718" d="M122.731 658.897l-.78 73.675 218.565 108.659-163.894-190.545z"/><path fill="#860126" fill-opacity=".365" d="M359.073 769.348l54.558 3.94-60.157 45.532 158.284-95.667z"/><path fill="#96554a" fill-opacity=".345" d="M631.286 569.534l84.801 22.58 59.393-190.367-69.965-8.22z"/><path fill="#c5142b" fill-opacity=".69" d="M367.502 1012.346l144.506-38.333-92.913 88.177-295.535-55.537z"/><path fill="#df425e" fill-opacity=".639" d="M313.566 443.358l157.759-15.01-157.687 25.777-93.828 29.938z"/><path fill="#e8415a" fill-opacity=".624" d="M431.348 418.331l244.814-65.13-133.092-30.685-9.258 55.874z"/><path fill="#620119" fill-opacity=".537" d="M389.537 727.623L215.216 697.41l49.12-97.684-24.19 124.272z"/><path fill="#fffafb" fill-opacity=".592" d="M576.913 1086l-30.117-45.283-42.994-52.573-49.474 52.675z"/><path fill="#0e0519" fill-opacity=".318" d="M111.986 421.866l104.419-65.819-236.4-211.251L-62 348.01z"/><path fill="#d7fce9" fill-opacity=".224" d="M-62 208.408l95.445 252.856 20.44 17.592L4.17 554.263z"/><path fill="#6c8486" fill-opacity=".318" d="M558.602 121.503l-7.265 137.714 123.298 121.986 1.119-94.97z"/><path fill="#733501" fill-opacity=".314" d="M157.914 835.854L99.402 740.83l64.388 16.56 167.913 118.624z"/><path fill="#5f4952" fill-opacity=".718" d="M685.591 814.775l17.472-126.544 67.7-5.655 16.424 74.777z"/><path fill="#cb5f61" fill-opacity=".349" d="M486.392 826.46l33.635 169.057-78.334 33.17-45.858-109.164z"/><path fill="#0a1a25" fill-opacity=".259" d="M494.347 848.724l123.267-214.855 100.4-298.791L506.367 639.38z"/><path fill="#bce3ff" fill-opacity=".431" d="M243.671 882.786l80.894-4.098-50.294 37.336-54.3-20.391z"/><path fill="#ede9f9" fill-opacity=".443" d="M199.033 409.927l143.485 31.964 59.026-16.665-123.696-98.609z"/><path fill="#f93649" fill-opacity=".702" d="M115.78 616.548l6.61-40.52 126.297 60.003-9.431-49.98z"/><path fill="#d6d9e3" fill-opacity=".722" d="M550.57 453.46l-6.092-14.251-88.593 54.817 26.966 61.35z"/><path fill="#f33d58" fill-opacity=".639" d="M129.458 491.33l170.17-201.5-98.303 63.906-78.905 136.403z"/><path fill="#cf1b35" fill-opacity=".612" d="M592.438 435.414l-93.509 15.739 56.379-27.413-44.733-155.363z"/><path fill="#000106" fill-opacity=".286" d="M532.099 115.631L355.966 10.768 258.35 199.675l75.54-93.022z"/><path fill="#202e31" fill-opacity=".761" d="M87.355 455.78l34.332 94.188-103.756 26.308-9.796-12.688z"/><path fill="#fbe1b1" fill-opacity=".294" d="M845.965 417.899l-135.263-75.201-7.045 57.002 102.771 19.787z"/><path fill="#ff3230" fill-opacity=".227" d="M36.681 802.186l-65.498-163.044 83.68 18.337 27.559 114.804z"/><path fill="#d3e5f5" fill-opacity=".659" d="M489.869 684.259l-7.859-28.57-192.456 49.665 49.972 10.025z"/><path fill="#09001b" fill-opacity=".271" d="M391.33 766.963l29.211-15.334-139.847 13.443-4.206 16.021z"/><path fill="#5f4543" fill-opacity=".6" d="M309.574 273.112l-131.786-74.836 383.06 100.068 101.232 30.79z"/><path fill="#25121c" fill-opacity=".686" d="M286.484 297.741l121.606 88.338-30.897 14.497-80.187-75.526z"/><path fill="#e0f1ff" fill-opacity=".51" d="M140.344 589.423l9.458-44.3 64.954-16.014-37.055 62.856z"/><path fill="#ea2845" fill-opacity=".631" d="M461.724 362.8l71.267-23.014 122.858 89.216-119.587-106.888z"/><path fill="#ea1e33" fill-opacity=".682" d="M280.627 519.31l-33.345 94.75-43.115-118.585 72.598-46.874z"/><path fill="#602228" fill-opacity=".533" d="M523.919-62l231.06 340.149-17.699 56.91L416.754-62z"/><path fill="#a9001b" fill-opacity=".624" d="M552.547 462.719l8.002-75.285 72.262 73.282-122.598 40.537z"/><path fill="#001823" fill-opacity=".412" d="M141.78 612.933l57.738-2.42 39.848 59.043L90.55 636.463z"/><path fill="#b5e4ff" fill-opacity=".416" d="M516.278 524.456L313.69 588.952l-46.483-.403-5.388-10.075z"/><path fill="#412e37" fill-opacity=".796" d="M105.642-62H233.81l91.383 200.898-17.211 36.26z"/><path fill="#ceab21" fill-opacity=".569" d="M445.907 595.968l-53.68 39.228 46.084-94.094 43.652 65.89z"/><path fill="#e46f86" fill-opacity=".824" d="M289.642 409.692l78.268-4.86-69.632-10.225-137.41 75.266z"/><path fill="#a47f6f" fill-opacity=".686" d="M230.99 234.783l70.786 51.821-107.029 49.959 2.514-91.087z"/><path fill="#e5e8fe" fill-opacity=".467" d="M410.201 964.117l-189.39-12.943-1.584 48.582 3.958-66.178z"/><path fill="#ac0622" fill-opacity=".678" d="M292.734 962.203l-169.978-21.605 200.563 60.134 49.394-31.61z"/><path fill="#b48b76" fill-opacity=".741" d="M498.088 223.332L396.625 96.66l67.384 63.654-70.458 97.205z"/><path fill="#ba0633" fill-opacity=".353" d="M405.973 549.177l-218.79 7.484 219.66-19.712 155.743-54.255z"/><path fill="#012a4e" fill-opacity=".176" d="M358.072 527.323l-25.538-84.458-99.073 290.972 39.848-216z"/><path fill="#490506" fill-opacity=".392" d="M728.337 438.93l12.486 189.568 113.008-153.44-36.317-60.452z"/><path fill="#221d2a" fill-opacity=".675" d="M340.127 365.479l110.083 28.35-10.188 32.239-51.459-15.186z"/><path fill="#8c3545" fill-opacity=".596" d="M338.915 663.745l-120.949-31.919 143.754 16.059-13.25-33.671z"/><path fill="#81a3cc" fill-opacity=".216" d="M537.329 818.72l-32.433 177.275 55.51-1.289 253.61-165.774z"/><path fill="#996758" fill-opacity=".478" d="M344.023 910.521l160.525 92.687-535.694-349.04L490.11 951.77z"/><path fill="#35818b" fill-opacity=".376" d="M96.498 421.894l22.957 86.737 40.714-110.906-46.515 4.54z"/><path fill="#f7011f" fill-opacity=".157" d="M531.122 456.933l-50.648-54.755-27.442 136.424-55.375-53.062z"/><path fill="#d0e6fe" fill-opacity=".471" d="M346.595 764.642l-95.614-33.539 246.884-6.557-39.766 22.03z"/><path fill="#d9ecff" fill-opacity=".49" d="M366.93 604.526l-71.564 25.936 111.891-66.263-116.747-10.62z"/><path fill="#c10628" fill-opacity=".318" d="M450.949 713.728l-82.466 18.877 138.798-59.151 44.946-26.328z"/><path fill="#ef3248" fill-opacity=".769" d="M263.619 430.28l-70.857 172.662 35.56-150.566-52.63-69.088z"/><path fill="#e0c2b9" fill-opacity=".659" d="M705.888 376.444l5.93 14.424L898 308.532l-192.893 50.952z"/><path fill="#9e2135" fill-opacity=".549" d="M406.307 578.49l-11.987 16.42-84.791 6.92 4.959-2.01z"/><path fill="#704243" fill-opacity=".4" d="M324.88 373.604l-66.235 5.914 192.702-66.965-68.398-98.438z"/><path fill="#f1f3ff" fill-opacity=".404" d="M514.022 345.615l-75.057-35.271 28.102-14.446 39.61 10.167z"/><path fill="#f1475d" fill-opacity=".62" d="M106.457 640.55l35.169-186.06 24.643-36.683-20.681 124.339z"/><path fill="#cef1ff" fill-opacity=".396" d="M423.01 509.31l-122.656-5.839-18.934 32.116 56.585 6.148z"/><path fill="#542e39" fill-opacity=".588" d="M29.826 128.398l85.048-51.61-38.557 244.573 107.628-36.425z"/><path fill="#dceffe" fill-opacity=".482" d="M482.49 784.867l15.235-34.489-181.195 64.483 93.627-45.014z"/></svg>