<svg xmlns="http://www.w3.org/2000/svg" width="228" height="278" viewBox="0 0 836 1024"><path fill="#7e4939" d="M0 0h836v1024H0z"/><g fill-opacity=".502"><path fill="#ffff46" d="M406 738L26 1086l-88-608z"/><path fill="#fff" d="M818 518l-168 516 248-4z"/><path fill="#500" d="M650 1086l-360-48L846-62z"/><path fill="#000e18" d="M386 26l432 408 80-476z"/><path fill="#051316" d="M422 78L202 378-62-26z"/><path fill="#ffe936" d="M222 1086l28-540-312 376z"/><path fill="#8f0329" d="M250 1018l76-836 348 904z"/><path fill="#b9deff" d="M66 542l120-172-140-36z"/><path fill="#870017" d="M-26 658l284-368 492 80z"/><path fill="#baf9fa" d="M434 674l-92-20 68 164z"/><path fill="#c5a387" d="M522 90l4 256-224-156z"/><path fill="#f2cbba" d="M470 466l96 24-100 160z"/><path fill="#97bebd" d="M522 622l-236-72-16 76z"/><path fill="#c8edfc" d="M898 618l-68 236-72-308z"/><path fill="#415a6f" d="M-38 110l188 72-212 524z"/><path fill="#5d737d" d="M898 402l-200-4 108 204z"/><path fill="#6a000a" d="M618 386l168 276-456 288z"/><path fill="#c1eafa" d="M726 1086l72-332 100 236z"/><path fill="#200000" d="M222 410l24 144-216 80z"/><path fill="#769ec2" d="M266 70l184-80-256-52z"/><path fill="#9b0014" d="M198 1074l136-500 32 436z"/><path fill="#d4774d" d="M754 678v296l-128 112z"/><path fill="#ede05d" d="M-26 666l272-112-292 336z"/><path fill="#400" d="M370 502l180 104-224-36z"/><path fill="#d9ffff" d="M378 746l-28 44V666z"/><path fill="#cea598" d="M102 594l-164-28 140-72z"/><path fill="#1e1b1d" d="M898-62L730 426 506 94z"/><path fill="#000001" d="M686 770L574 574l60-76z"/><path fill="#980520" d="M590 274L406 422l368 144z"/><path fill="#332b23" d="M414 2L-30 338l372-48z"/><path fill="#c1303e" d="M190 342l136 196 88-224z"/><path fill="#9d9eaf" d="M-34 190l164-12-68 76z"/><path fill="#485565" d="M630 202l40 100-236-36z"/><path fill="#e6cb3b" d="M206 1086l76-380-344 324z"/><path fill="#fff" d="M410 690v96l20-24z"/><path fill="#2c1208" d="M314-62L-10-22l-52 244z"/><path fill="#deab95" d="M518 178l-192 28 184 60z"/><path fill="#9f805a" d="M342 202l60 236 44-348z"/><path fill="#420000" d="M570 638L430 766l-4-128z"/><path fill="#890318" d="M686 966V786l-424 4z"/></g></svg>