<svg xmlns="http://www.w3.org/2000/svg" width="228" height="278" viewBox="0 0 836 1024"><path fill="#5f564d" d="M0 0h836v1024H0z"/><g fill-opacity=".502"><path fill="#dc9b70" d="M486 50L94 594l804 8z"/><path fill="#000a21" d="M454-62L-62 910V-46z"/><path fill="#6bccec" d="M570 1086l328-772-332 256z"/><path fill="#6d1d00" d="M534 210L30 1086l524-188z"/><path fill="#cfffff" d="M706 894l-8 192-216-128z"/><path fill="#002443" d="M882 490L814-62 566 254z"/><path fill="#ff5200" d="M510 318l-268-60-4 260z"/><path fill="#72eeff" d="M810 418l-160-52 248 476z"/><path fill="#00040f" d="M898 1002L658 842l52-156z"/><path fill="#000d1a" d="M150 902l424 124-512 28z"/><path fill="#b2ffff" d="M898 790V606L742 842z"/><path fill="#fed8b0" d="M98 650l140-80 4-252z"/><path fill="#dfffff" d="M234 650l-48-12 8 164z"/><path fill="#ff4f00" d="M246 734l144-184-168 408z"/><path fill="#cf6f3c" d="M422 926l220-768 44 400z"/><path fill="#e0c341" d="M206 786L26 830l48 164z"/><path fill="#ff4a03" d="M318 998l12-216 160-212z"/><path fill="#bdd3bd" d="M726 622L430 510l-40 84z"/><path fill="#000613" d="M266 1010l16-236 148-188z"/><path fill="#ddc19e" d="M430 310L602 78H446z"/><path fill="#072737" d="M-62 414l468-188L306-62z"/><path fill="#001a31" d="M-62 890l244-156-72-132z"/><path fill="#002433" d="M386 570l20-184 168-44z"/><path fill="#001c34" d="M838 718l-100 44 8-224z"/><path fill="#000307" d="M322 590L222 814l36-236z"/><path d="M338 490l-76 36 96-116z"/><path fill="#abebff" d="M674 362l-16 124 240 48z"/><path fill="#1d373d" d="M898 22L578 250l20-312z"/><path fill="#4fafd6" d="M546 806l68-288 68 488z"/><path fill="#383834" d="M518 746l188-80-136-56z"/><path fill="#000e2a" d="M530 398l-36 160h48z"/><path fill="#ff6819" d="M182 922l128-200-68 216z"/><path fill="#ff6a1d" d="M242 558l220-324-212 60z"/><path fill="#c86c25" d="M630 306l-20 224 124 200z"/><path fill="#00171d" d="M486 1086l-4-172-352 104z"/><path fill="#090000" d="M774 390l60-24v116z"/><path fill="#ff660a" d="M474 878l-68 56 88-216z"/><path fill="#00091a" d="M398 954l96-312-96 148z"/><path fill="#00da7c" d="M70 958l32 128-164-92z"/><path fill="#6a6857" d="M390 242l88 128 288-176z"/></g></svg>