<svg xmlns="http://www.w3.org/2000/svg" width="228" height="278" viewBox="0 0 836 1024"><path fill="#5f564d" d="M0 0h836v1024H0z"/><path fill="#8db9c2" fill-opacity=".647" d="M565.146 1086l-.696-691.962 146.286-15.357 147.462 91.09z"/><path fill="#bf774a" fill-opacity=".702" d="M557.78 31.118l150.106 570.81-587.387 10.551 98.468-278.635z"/><path fill="#a8daeb" fill-opacity=".671" d="M709.992 895.505l-3.355 174.822L622.08 1086 472.298 950.277z"/><path fill="#182934" fill-opacity=".835" d="M-62 1075.455l268.928-697.713L478.62-62-11.03-24.397z"/><path fill="#692f16" fill-opacity=".678" d="M535.27 237.657l25.982 692.791L86.322 1086l166.591-437.872z"/><path fill="#87d9f4" fill-opacity=".722" d="M889.516 810.614L650.923 343.658 898 528.958 772.869 825.03z"/><path fill="#00171e" fill-opacity=".624" d="M648.121 841.52l120.424-249.646 41.36 105.86-83.387 211.79z"/><path fill="#203948" fill-opacity=".733" d="M590.258-62H898v577.547L584.387 270.086z"/><path fill="#fff8d4" fill-opacity=".408" d="M179.916 465.125l-43.8 87.576-27.85 100.366 267.311-130.155z"/><path fill="#f76926" fill-opacity=".749" d="M466.902 905.748l-45.683 25.928 150.573-490.288 28.792 40.34z"/><path fill="#fd5d11" fill-opacity=".729" d="M471.72 344.808L261.067 511.152l-22.62-201.905 121.1-45.809z"/><path fill="#c2faeb" fill-opacity=".38" d="M604.74 613.718l69.287-19.36L423.18 509.96l-38.15 85.62z"/><path fill="#dd490f" fill-opacity=".859" d="M392.08 549.885L251 911.424l-58.793 25.849L326.72 587.976z"/><path fill="#001921" fill-opacity=".678" d="M146.105 937.114l-84.407 114.332 457.545-30.247-6.003-44.273z"/><path fill="#fd4807" fill-opacity=".612" d="M499.289 527.973l-168.611 477.969-22.728-90.213 62.931-180.472z"/><path fill="#a4e3f9" fill-opacity=".69" d="M194.492 644.263l-15.715 55.091 26.475 98.282L232.7 657.574z"/><path fill="#ffde38" fill-opacity=".38" d="M91.168 823.29l125.77-30.604L77.26 994.524 8.046 827.645z"/><path fill="#bb9d81" d="M577.221 82.024l11.289 113.15-178.398 47.261L453.081 85.1z"/><path fill="#061215" fill-opacity=".741" d="M433.03 600.182l-61.871 14.404-161.777 421.229 33.619 8.75z"/><path fill="#182934" fill-opacity=".804" d="M396.288 236.155l-207.782 83.858L-48.763 134.07l429.166-44.769z"/><path fill="#1e0307" fill-opacity=".675" d="M351.64 491.206l4.205-107.243 6.772 12.412-92.136 133.595z"/><path fill="#29b2eb" fill-opacity=".408" d="M658.697 953.35l28.909-228.288-129.135-15.406-5.48 200.687z"/><path fill="#94d2ec" fill-opacity=".741" d="M788.998 408.304l-97.235-16.341-43.79 34.997 79.683 183.413z"/><path fill="#463b34" d="M388.726 570.621l185.592-225.663-156.693 40.721-56.236 133.53z"/><path fill="#001120" fill-opacity=".298" d="M654.704 631.96L898 958.759l-141.875-11.89L553.49 607.45z"/><path fill="#2b363c" fill-opacity=".984" d="M-6.494 504.777l191.213 188.412-11.95 63.393L-62 879.246z"/><path fill="#01171c" fill-opacity=".655" d="M480.498 720.922L532.33 583.33 421.61 731.472l-77.129 349.293z"/><path fill="#e77338" fill-opacity=".655" d="M642.96 242.482l30.768 141.989-54.147 107.755 3.19-279.975z"/><path fill="#0b1f20" fill-opacity=".502" d="M241.023 593.68l91.179-35.146-93.96 227.465-86.764 251.775z"/><path fill="#3d3931" d="M489.893 223.846l11.513 329.056 38.108 15.775.738-30.974z"/><path fill="#005e79" fill-opacity=".369" d="M852.975 698.224l-69.3-188.243-60.722 82.851 40.873 183.027z"/><path fill="#6e4a28" fill-opacity=".812" d="M578.963 570.114l17.08-116.975 91.449 167.137-39.865-168.479z"/><path fill="#b9a082" fill-opacity=".812" d="M674.201 466.149l74.218 232.868-3.962 17.39-58.572-3.486z"/><path fill="#07ae6a" fill-opacity=".792" d="M-62 1063.133L80.245 1086l1.016-99.546L23.192 966.6z"/><path fill="#f77441" fill-opacity=".506" d="M545.49 751.196l34.875-143.999-39.507 277.056-35.294 18.237z"/><path fill="#adebf9" fill-opacity=".584" d="M750.67 753.462l34.874 8.201L898 719.566l-91.758 109.431z"/><path fill="#fd7833" fill-opacity=".549" d="M504.083 422.288l-15.489 173.146-27.98 46.942 15.924-233.366z"/><path fill="#ff7225" fill-opacity=".788" d="M554.63 288.427l2.739 284.08 19.54-222.56 81.823-17.334z"/><path fill="#798184" fill-opacity=".996" d="M564.703 1002.198l17.95-98.291 2.51 33.507-117.388-23.2z"/><path fill="#1e282a" fill-opacity=".796" d="M437.63 958.374l-195.919 14.89 212.151 105.25 84.703-370.153z"/><path fill="#092d58" fill-opacity=".471" d="M842.379 218.003L478.955 318.349l-42.087-59.117 400.251 96.419z"/><path fill="#cac3b9" fill-opacity=".471" d="M394.39 439.608l57.394 25.237L137.383 570.19l217.86-34.323z"/><path fill="#655e48" fill-opacity=".486" d="M439.892 153.21l397.46-42.136L393.789 451.87l215.774-256.714z"/><path fill="#ff6233" fill-opacity=".592" d="M231.18 633.046l-7.283 81.402 39.416-76.444-24.167-12.634z"/><path fill="#020915" fill-opacity=".514" d="M615.017 407.712l-68.314-76.82-23.727 52.45 94.886-40.868z"/><path fill="#1f2824" fill-opacity=".725" d="M434.718 57.901l82.463 24.452 53.537-8.716-81.785-52.036z"/><path fill="#9accfe" fill-opacity=".361" d="M164.714 852.362l61.996-238.62-11.738 139.613-139.786 70.91z"/><path fill="#83dbff" fill-opacity=".451" d="M678.752 656.113l-29.523-50.942-35.056-57.383-82.826 22.163z"/><path fill="#17232a" fill-opacity=".494" d="M461.952 523.037l23.349-68.496-86.898-106.359-.002 48.707z"/><path fill="#d0c1ad" fill-opacity=".627" d="M220.642 364.02l-31.936 244.64-71-10.602L261.063 367.53z"/><path fill="#b4d3c1" fill-opacity=".278" d="M374.263 115.359l92.878-101.996 176.623 104.762L463.274-62z"/><path fill="#b5f1fa" fill-opacity=".196" d="M526.958 143.912l-11.644 143.884 135.904-68.792 10.797 111.693z"/><path fill="#e95d1d" fill-opacity=".729" d="M205.46 936.048l2.231-63.527 57.703-132.855L251.95 945.89z"/><path fill="#253537" fill-opacity=".749" d="M893.466 376.692L898 586.516 785.534 412.645 645.52 362.251z"/><path fill="#dfe2fc" fill-opacity=".396" d="M573.489 406.257l32.507 73.766 22.887-54.916-27.727-41.322z"/><path fill="#bd9176" fill-opacity=".827" d="M385.159 167.916l15.765-43.716 31.91 87.849 39.238 187.015z"/><path fill="#f8651a" fill-opacity=".733" d="M400.778 266.387l-121.064 10.106L433.207 381.19l49.3 9.075z"/><path fill="#d46c2f" fill-opacity=".706" d="M79.346 1009.458l121.857-243.251-33.671 133.287-79.918-41.178z"/><path fill="#fb6d23" fill-opacity=".894" d="M184.062 465.622l108.736 41.14-27.44-216.484 83.74 91.076z"/><path fill="#d3e2ea" fill-opacity=".878" d="M551.716 1086l33.24-140.802L799.57 1086 608.874 984.006z"/><path fill="#6dafc7" fill-opacity=".686" d="M555.442 821.149L716.29 657.254l-39.634 94.636-132.41 21.004z"/><path fill="#abe5f1" fill-opacity=".651" d="M789.98 416.615L898 648.729l-59.587-109.064-150.472-162.897z"/><path fill="#242e2e" fill-opacity=".863" d="M130.175 902.327l56.953 7.73 45.74 58.62L55.536 1086z"/><path fill="#5bee2f" fill-opacity=".247" d="M49.581 810.1l-52.253-55.47 44.674 242.019 73.65-152.847z"/><path fill="#101922" fill-opacity=".506" d="M831.215 714.894l-55.082 64.012-1.613-11.426-26.912-190.6z"/><path fill="#0e1718" fill-opacity=".788" d="M770.136 897.383l-72.544-184.875-7.94 129.341-30.373 59.295z"/><path fill="#0a1715" fill-opacity=".639" d="M444 515.761l34.075-57.992.226-23.93-153.789 133.38z"/><path fill="#e75518" fill-opacity=".765" d="M411.851 937.624l36.108-131.58 68.75-149.685-41.242 228.575z"/><path fill="#110e0e" fill-opacity=".416" d="M547.766 629.063l-27.284 190.224 57.1-191.203 102.355 27.509z"/><path fill="#2a3539" fill-opacity=".769" d="M553.524 946.786l12.427 12.526 9.371-56.693-81.546-3.33z"/><path fill="#0b4355" fill-opacity=".373" d="M873.458 817.663L791.325 1086H678.18l101.9-259.849z"/><path fill="#efc595" fill-opacity=".325" d="M503.862 476.122L446.386 620.74l174.336-40.542-237.46-24.584z"/><path fill="#111717" fill-opacity=".757" d="M318.307 1086l60.782-213.933 63.158 105.364-273.308-30.506z"/><path fill="#fe7035" fill-opacity=".694" d="M403.97 440.597l-23.876-118.474-36.039 170.37 7.566 1.753z"/><path fill="#b99a6c" fill-opacity=".549" d="M508.191 346.038l-2.413 44.796 51.613-96.462-98.294 67.95z"/><path fill="#223745" fill-opacity=".6" d="M179.145-62l240.947 287.338-76.81 46.85-143.389-84.933z"/><path fill="#1a3140" fill-opacity=".569" d="M739.408 85.446L478.493-.2l397.59-19.206-3.14 374.455z"/><path fill="#97fffd" fill-opacity=".18" d="M818.866 1010.692L654.684 955.35l-86.108-102.638L898 1001.418z"/><path fill="#c1f2ff" fill-opacity=".412" d="M231.038 642.755l4.588 39.31-55.116 118.971 10.936-149.198z"/><path fill="#f6661d" fill-opacity=".616" d="M670.295 349.664l-38.791 130.391.203 39.91-24.357-225.796z"/><path fill="#101818" fill-opacity=".655" d="M387.543 550.71L271.91 1074.857l33.43-344.038 96.497-36.192z"/><path fill="#000b04" fill-opacity=".404" d="M648.787 633.5l14.472 84.093 22.04-75.361-133.877 23.382z"/><path fill="#282e2a" fill-opacity=".729" d="M591.044 156.963l1.375 17.322 61.453 24.859-84.193 39.908z"/><path fill="#d94811" fill-opacity=".647" d="M383.49 850.395l120.877-336.064-203.754 449.742 53.315 2.023z"/><path fill="#090002" fill-opacity=".349" d="M268.65 522.352l72.6-41.923 19.725-176.308 5.396 102.848z"/><path fill="#1f0100" fill-opacity=".282" d="M659.21 455.79l-37.397 10.823-27.92 6.06-18.138 108.128z"/><path fill="#c3e8f5" fill-opacity=".498" d="M760.958 818.717l-14.483 24.557 19.143 25.558-.591-28.762z"/><path fill="#303535" fill-opacity=".898" d="M490.302 566.572l36.157-17.936 20.793-55.024-15.948-137.805z"/><path fill="#459cb9" fill-opacity=".769" d="M692.867 816.593l-48.02 10.76-98.687-28.164 87.89-101.953z"/><path fill="#413f3a" fill-opacity=".6" d="M98.479 224.663l98.919 226.625L-62 509.788l188.545 130.157z"/><path fill="#014253" fill-opacity=".42" d="M248.41 373.372l15.368 21.611-25.275 41.402-22.334 9.593z"/><path fill="#ff782e" fill-opacity=".741" d="M591.36 455.365l-20.354-96.844-21.971 33.674-1.895 200.373z"/><path fill="#20221f" fill-opacity=".722" d="M276.611 583.914l-98.114 283.975 107.268-164.034 37.645-130.96z"/><path fill="#b77b40" fill-opacity=".514" d="M724.787 662.033l-21.646 20.825-72.981-116.365-19.463-118.121z"/><path fill="#1a1b19" fill-opacity=".792" d="M364.286 917.453l98.627-261.333 23.287-43.31 37.292 15.13z"/><path fill="#a0aaac" fill-opacity=".996" d="M592.907 1023.882l-81.762-25.28 8.569-73.424 34.635 87.545z"/><path fill="#1d281f" fill-opacity=".447" d="M-50.945 675.63l236.35 41.97 5.87-116.517 97.016 24.5z"/><path fill="#59513d" fill-opacity=".616" d="M726.168 58.26l-171.64 114.446-71.853-47.995-.479 58.817z"/><path fill="#74deff" fill-opacity=".275" d="M888.905 848.991L768.06 602.411 898 459.538l-75.059 201.987z"/><path fill="#272020" fill-opacity=".42" d="M554.914 810.39l-98.822 111.08 47.326-157.059 41.369 109.309z"/><path fill="#130d03" fill-opacity=".251" d="M-7.747 232.88l26.56 263.201 177.564-326.84-71.976-111.425z"/><path fill="#f5d7ba" fill-opacity=".478" d="M122.303 625.955l86.3-180.72-17.058-.886-69.066 145.516z"/><path fill="#c73c0c" fill-opacity=".882" d="M425.646 614.05l-9.773 151.73 55.636-140.349 12.233-23.353z"/><path fill="#eac7a6" fill-opacity=".525" d="M434.035 145.737l19.09 64.065 45.242-131.4-35.29 13.282z"/><path fill="#6fb8d3" fill-opacity=".576" d="M550.293 894.56l28.793-85.632 42.123-2.417 94.864 204.559z"/><path fill="#f9fbed" fill-opacity=".278" d="M385.716 75.85l80.878-84.3L479.824-62 418.938 78.91z"/><path fill="#1c3344" fill-opacity=".729" d="M-33.344 3.484L626.019-62 395.444 39.274l-9.917 150.723z"/><path fill="#86b2bb" fill-opacity=".694" d="M790.084 834.565l23.886-3.207-67.232-123.079 45.641 111.436z"/><path fill="#88765e" fill-opacity=".678" d="M562.097 215.677l-29.174 83.853-69.071-28.805-10.536-51.517z"/><path fill="#8e8046" fill-opacity=".584" d="M133.97 621.323L391.544 520.97 129.592 657.505l-7.686-8.393z"/><path fill="#c82f04" fill-opacity=".69" d="M304.892 446.918L262 539.144l84.078-114.662-92.011-10.795z"/><path fill="#fe6b2c" fill-opacity=".49" d="M547.571 903.598l-18.535-17.172 36.305-183.575-64.196 185.106z"/><path fill="#355254" fill-opacity=".769" d="M-56.238 924.677l83.796-226.733.475 256.32 30.219 44.588z"/><path fill="#464c42" fill-opacity=".627" d="M768.043 256.22l-121.526-18.338L558.809-62l297.207 314.545z"/><path fill="#fe7e38" fill-opacity=".643" d="M274.94 378.88l83.907-117.155-83.57 24.72-59.826 76.276z"/><path fill="#0086a1" fill-opacity=".345" d="M723.564 638.108l21.783 40.052 43.903-128.858-48.998-19.065z"/><path fill="#283435" fill-opacity=".906" d="M445.229 919.195l110.292 126.92-69.484-29.241-174.083 34.542z"/><path fill="#fccdb5" fill-opacity=".325" d="M592.25 156.698l-23.617 60.25-195.016-39.486 164.657 6.56z"/><path fill="#f4510c" fill-opacity=".557" d="M529.572 744.127l17.21-89.888-51.344 5.547 1.187 75.972z"/><path fill="#13305b" fill-opacity=".718" d="M706.009 257.238L898 317.601l-230.029 52.576-16.445 76.355z"/></svg>