<svg xmlns="http://www.w3.org/2000/svg" width="228" height="278" viewBox="0 0 836 1024"><path fill="#615b5e" d="M0 0h836v1024H0z"/><g fill-opacity=".502"><path fill="#e7f2ff" d="M582 934L-62 826l640-232z"/><path d="M-62 30l888-92 60 456z"/><path fill="#d6deed" d="M286 598l556-164-688-192z"/><path d="M182 834l464 180-480 68z"/><path fill="#f1dfff" d="M-62 738l288 4-172 344z"/><path fill="#3d1600" d="M398 450L714 18 238-50z"/><path fill="#010300" d="M186 714l-248-4L150-62z"/><path fill="#fff" d="M686 358L534 490l-24-264z"/><path fill="#eaf1ff" d="M314 174L38 374h308z"/><path fill="#fff" d="M898 770l-88 316-36-356z"/><path d="M410 170L-2-62l124 332z"/><path fill="#1a0200" d="M566 514l332 120-300 184z"/><path fill="#fff" d="M726 1002l-80-160 20-152z"/><path d="M646 866l44 92-372 72z"/><path fill="#f7caff" d="M-58 842l248 172-172 72z"/><path fill="#b96e2f" d="M550 162l-236 60 20-200z"/><path fill="#6f7577" d="M434 834L90 454l444 128z"/><path fill="#030000" d="M386 442l104-112-116-184z"/><path fill="#7a3200" d="M766 1086L634 602l136-104z"/><path d="M770-62L474 258l424-36z"/><path fill="#d5ddeb" d="M666 558L490 214l252 272z"/><path fill="#000006" d="M162 970l456 116-412-268z"/><path fill="#c0ccdc" d="M246 554l232 380-224-68z"/><path fill="#11180a" d="M730 498l116-216-152 60z"/><path d="M306 226L-62-18l404-44z"/><path fill="#0c1212" d="M234 562l-296 44 316 148z"/><path d="M594 958l-4-276 96 288z"/><path fill="#fcfaff" d="M158 266l172-24L86 358z"/><path fill="#dfc2ff" d="M798 1086l100-180-108-176z"/><path fill="#fffbff" d="M638 810l12-100 64 212z"/><path fill="#fff" d="M738 1030l-44-84 12 92z"/><path fill="#7e818b" d="M318 818L218 474l320 328z"/><path fill="#7b4414" d="M310 210l212 84-16-332z"/><path fill="#e3eaff" d="M586 274L402 462l284-84z"/><path fill="#8a9286" d="M610 286l148-40-20 92z"/><path fill="#feffff" d="M510 930l-136-24 248-24z"/><path fill="#dfe8e6" d="M626 974l44 88-100-84z"/><path fill="#000006" d="M526 1034l-312-52 428-80z"/><path d="M-42 470l272-20-32-64z"/><path fill="#fffffe" d="M94 398l48 12-40-64z"/></g></svg>