<svg xmlns="http://www.w3.org/2000/svg" width="228" height="278" viewBox="0 0 836 1024"><path fill="#797571" d="M0 0h836v1024H0z"/><g fill-opacity=".502"><path fill="#e3fbff" d="M294 1058l504-108-516-624z"/><path fill="#1f0c00" d="M-62 322L810-62l88 440z"/><path fill="#dcf0f6" d="M898 482L-62 602l588-256z"/><path fill="#040005" d="M42 926l192-408 60 368z"/><path fill="#3c312c" d="M-62 810l24-828 492-44z"/><path fill="#fff0c7" d="M-58 866L70 582l8 312z"/><path fill="#35352d" d="M630 522L418 658 78 634z"/><path fill="#b78f6f" d="M466 374L66 22l416 112z"/><path fill="#201614" d="M614 250L734-62 278 46z"/><path fill="#dceff6" d="M314 362L98 478l164 84z"/><path fill="#cddbdc" d="M614 390l-144 624 248-48z"/><path fill="#fffff8" d="M898 526L706 350l8 168z"/><path fill="#181a18" d="M-62 158l212 296 196-124z"/><path d="M778 1086l-64-104-312 48zm-80-696l-48-88-24 132z"/><path fill="#d9e6eb" d="M478 978L318 690l-64 316z"/><path fill="#63493e" d="M870 802L678 594l52 384z"/><path d="M266 1006l184 16-332 64z"/><path fill="#ffc9a6" d="M-62 842l204-368-92 372z"/><path fill="#c8cbdb" d="M134 950l-120 52 248 84z"/><path fill="#151a18" d="M486 586l-32-48-180 72z"/><path d="M202 470l-32-64-12 52z"/><path fill="#0d1a2d" d="M42 826l240 48 4-188z"/><path fill="#42321b" d="M242 346l204-92-20 160z"/><path fill="#b8c0c5" d="M390 402l-96 308-88-308z"/><path fill="#835a3b" d="M234 514L78 630l112 192z"/><path fill="#00151f" d="M670 378L502 158l-32 180z"/><path fill="#6c5b47" d="M898 574L750 678 594 450z"/><path fill="#e5f4fe" d="M610 362l28 92-240-16z"/><path fill="#9faca8" d="M598 786L270 634l436-84z"/><path fill="#ecf7f9" d="M94 578l76-4-32-144z"/><path fill="#ad7b5c" d="M502 154L314 330 250 74z"/><path fill="#667e87" d="M86-62L302 98 170 234z"/><path fill="#809cc4" d="M786 866l92 220-156-88z"/><path fill="#a6b7bb" d="M406 398L66 594l564-64z"/><path fill="#1b1815" d="M822 286l-96-168L898-62z"/><path fill="#01080a" d="M106 930l8-160-56 44z"/><path fill="#f1fbff" d="M730 362l-68 72 136 8z"/><path fill="#cc9171" d="M2 926l68-256 72 16z"/><path fill="#e6f3fa" d="M318 362l-80 168-52-104z"/></g></svg>