<svg xmlns="http://www.w3.org/2000/svg" width="228" height="278" viewBox="0 0 836 1024"><path fill="#48444f" d="M0 0h836v1024H0z"/><path fill="#d6c3cf" fill-opacity=".651" d="M854.57 506.492l-19.43 488.392L687.95 1086l-36.768-446.662z"/><path fill="#dfa58f" fill-opacity=".635" d="M401.688 85.64l-168.043 15.792 26.613 158.597 192.752-17.166z"/><path fill="#21000a" fill-opacity=".863" d="M-62-62l304.06 31.672 5.245 394.536-263.058 36.698z"/><path fill="#a8b0dc" fill-opacity=".431" d="M146.608 412.039l13.082 446.565L-62 1015.601l1.18-383.895z"/><path fill="#fb5e55" fill-opacity=".694" d="M298.43 602.677l170.266-25.121-.232 108.61-159.87 60.75z"/><path fill="#37010c" fill-opacity=".906" d="M445.308-9.33l16.95 368.6L898 360.53 872.638-62z"/><path fill="#004d58" fill-opacity=".588" d="M433.158 303.427l234.344 54.208L639.252 1086l-165.73-109.726z"/><path fill="#7f7fb3" fill-opacity=".996" d="M807.006 440.319l77.73 128.626-219.401-122.793 12.029-49.892z"/><path fill="#00090d" fill-opacity=".49" d="M219.293 571.396L-51.7 966.104-62 664.066l452.388 149.529z"/><path fill="#082b2f" fill-opacity=".776" d="M762.541 656.84l-107.386-87.943L298.407 978.85l339.83-633.279z"/><path fill="#237381" fill-opacity=".525" d="M218.798 846.448L754.115 724.92 628.656 999.184-62 1052.986z"/><path fill="#2c6d80" fill-opacity=".859" d="M590.638 352.644L211.975 515.929l35.248 90.21 270.896-65.204z"/><path fill="#f4bd9c" fill-opacity=".675" d="M166.941 719.914L86.04 815.84-55.547 976.116l142.866-55.05z"/><path fill="#e2baa5" fill-opacity=".812" d="M697.843 892.68l-75.324 93.305 126.73-12.487L898 395.136z"/><path fill="#808cca" fill-opacity=".996" d="M652.805 553.235l112.784 145.92-77.798 38.648-38.79-65.783z"/><path fill="#ecab81" fill-opacity=".478" d="M422.955 367.31l-72.846 74.751-80.578 4.744 159.83-159.649z"/><path fill="#000904" fill-opacity=".741" d="M259.228 755.221l-3.597-82.71L142.378 470.11l31.768 302.677z"/><path fill="#0c0c17" fill-opacity=".788" d="M246.146 256.342l-10.031 218.131 40.231 6.116 18.843-108.217z"/><path fill="#7a8ccd" fill-opacity=".58" d="M260.33 384.421L-62 629.144l215.945 67.653-15.014-299.151z"/><path fill="#d77879" fill-opacity=".988" d="M453.747 598.545l-176.343 91.402 185.11-20.835 15.237-40.65z"/><path fill="#000006" fill-opacity=".537" d="M828.374 520.566l-175.557 32.478-43.913 327.2-11.267-424.304z"/><path fill="#320917" fill-opacity=".753" d="M312.12-57.495L-62 439.822l147.384 81.176-2.001-91.016z"/><path fill="#2d1b0e" fill-opacity=".655" d="M354.896 169.606l29.805 22.747-85.213 7.126-45.34-28.689z"/><path fill="#f1f2ff" fill-opacity=".596" d="M712.07 487.14l-42.976-78.812 127.047 87.641-50.785-33.878z"/><path fill="#4d83b4" fill-opacity=".588" d="M857.49 690.162l-88.434 214.302L809.762 1086l84.585-167.182z"/><path fill="#edc6b1" fill-opacity=".412" d="M232.847 133.755L402.502 78.72l-50.494 244.748 80.49-143.087z"/><path fill="#014150" fill-opacity=".431" d="M430.55 1058.616l89.197-288.944-278.538-73.793 84.62 332.262z"/><path fill="#5681a4" fill-opacity=".671" d="M206.134 1029.04l50.946-210.622L83.83 946.193l220.058 37.354z"/><path fill="#395069" fill-opacity=".792" d="M-62 866.864v-185.2l220.542 8.64-98.425 167.083z"/><path fill="#0c030d" fill-opacity=".604" d="M362.422 477.851l69.69-139.544 6.295-108.725 62.27 114.984z"/><path fill="#bf8c83" fill-opacity=".471" d="M396.746 47.614l-129.59-4.03 115.19-68.78L453.827 82.84z"/><path fill="#513529" fill-opacity=".761" d="M407.32 310.945l-98.947-79.786-51.525 71.035L330.87 409.43z"/><path fill="#6761aa" fill-opacity=".729" d="M795.956 416.307l-76.977-18.61L898 702.507l-55.975-250.485z"/><path fill="#ec220c" fill-opacity=".471" d="M436.458 572.048L318.38 593.702l-59.063 86.264 99.538-41.848z"/><path fill="#56311e" fill-opacity=".435" d="M97.23 851.429l75.487-115.06 98.838 41.48-114.363 129.49z"/><path fill="#62889c" fill-opacity=".631" d="M426.235 518.787l76.755-26.904 28.458 137.577-12.369-268.91z"/><path fill="#35030a" fill-opacity=".741" d="M148.505 65.547L309.127-62l219.672 197.709L576.406-62z"/><path fill="#e3b89a" fill-opacity=".6" d="M795.516 531.386l-28.951 63.24-54.778 305.241 166.439-234.513z"/><path fill="#000f0f" fill-opacity=".49" d="M687.302 973.69l-29.693 11.585 10.158 45.462-312.672 1.16z"/><path fill="#3d1222" fill-opacity=".608" d="M438.6 226.3l372.964 50.385L898 431.359 428.047 315.305z"/><path fill="#020f17" fill-opacity=".733" d="M749.052 482.104l-196.533 32.96 136.896 62.311 105.204-42.437z"/><path fill="#0e4756" fill-opacity=".525" d="M268.427 457.72l139.754-38.435 21.18 111.295-131.599 86.859z"/><path fill="#c08475" fill-opacity=".357" d="M340.893 214.009l-36.968 94.07L426.313 279.8l49.493-121.804z"/><path fill="#01090e" fill-opacity=".655" d="M-62 210.65l175.582 66.427L110.452-62-62 3.624z"/><path fill="#88a9b5" fill-opacity=".463" d="M284.476 493.543l-14.771 90.224L194.803 481.8l13.425 73.604z"/><path fill="#6d428b" fill-opacity=".478" d="M757.699 723.492l-105.633-27.295 23.64 136.862 65.646-53.97z"/><path fill="#3a4190" fill-opacity=".298" d="M65.668 364.065l247.649-15.866L78.429 552.656l1.2-184.552z"/><path fill="#eab4af" fill-opacity=".596" d="M310.57 223.764l-24.123 16.15 66.895-10.697-35.985-62.853z"/><path fill="#e2fe25" fill-opacity=".161" d="M271.075 963.876l-173.41 29.449-158.398.39L116.018 1086z"/><path fill="#848e9f" fill-opacity=".478" d="M613.359 363.531l-13.984-33.354 57.29 24.612 29.133 7.894z"/><path fill="#4a767f" fill-opacity=".51" d="M555.928 1086l34.241-524.33 28.085 391.494-91.402-160.129z"/><path fill="#004047" fill-opacity=".424" d="M318.569 765.074l-171.894-264.01 122.84-138.913-52.334 165.406z"/><path fill="#94b8c4" fill-opacity=".365" d="M466.383 1007.968l126.191 41.137-104.116-8.978-47.775-276.619z"/><path fill="#fcffff" fill-opacity=".184" d="M-62 817.097l190.137 21.086-162.5 136.517L-62 924.992z"/><path fill="#75878d" fill-opacity=".918" d="M529.58 750.923l-11.847-126.775 3.524 111.578 24.013 214.497z"/><path fill="#a56a62" fill-opacity=".639" d="M306.41 311.438l-51.77-56.9-25.556-101.54 25.098 5.646z"/><path fill="#0e0b12" fill-opacity=".659" d="M595.285 601.815l1.275 151.333 52.82-35 1.243-211.022z"/><path fill="#6a8696" fill-opacity=".647" d="M383.145 940.354l21.95-9.705-26.778-112.446.753 254.907z"/><path fill="#f52619" fill-opacity=".471" d="M277.15 692.576l49.389 32.224 85.66-9.711 39.833-42.261z"/><path fill="#000800" fill-opacity=".259" d="M406.346 345.429l22.668-205.516-41.752 154.51-181.932 83.029z"/><path fill="#f1b48b" fill-opacity=".212" d="M277.113 404.373l158.123-89.784-35.378 91.43-90.383 42.986z"/><path fill="#ffecfa" fill-opacity=".38" d="M476.149 459.696l-40.565 21.084-17.086-5.638 76.038 14.377z"/><path fill="#c1c3eb" fill-opacity=".349" d="M659.39 429.551l156.692 68.332-18.59 36.825-107.916-145.87z"/><path fill="#b498a0" fill-opacity=".494" d="M341.926 553.56l10.615-101.69 6.225 188.37-11.607-159.177z"/><path fill="#754e32" fill-opacity=".659" d="M767.03 649.009l-19.889 3.356-36.052-68.446 56.908 29.847z"/><path fill="#848fb8" fill-opacity=".502" d="M156.272 685.719L-62 579.725l78.262-66.568 139.737 76.096z"/><path fill="#e4a1aa" fill-opacity=".412" d="M376.448 635.698L273.585 672.85l39.87 22.458 162.43-83.893z"/><path fill="#002a30" fill-opacity=".678" d="M468.354 603.337l55.296-90.218-15.22 262.768 17.644-18.383z"/><path fill="#000706" fill-opacity=".573" d="M145.802 539.907l24.153 187.485L275.471 611.74 291.35 712.4z"/><path fill="#313e4d" fill-opacity=".749" d="M-62 742.107l217.64-20.806L43.715 854.98l52.377-56.063z"/><path fill="#e0bdb0" fill-opacity=".463" d="M416.5 115.86l-48.329-35.756-113.687 86.815 131.548.636z"/><path fill="#ffecee" fill-opacity=".447" d="M224.827 521.52l-22.05 3.084 56.047 27.067-9.273-15.73z"/><path fill="#0e748c" fill-opacity=".518" d="M471.74 362.596l97.885.161 16.24 95.566-146.497-23.48z"/><path fill="#000d0d" fill-opacity=".376" d="M380.052 992.565l-157.764-51.2 116.495 66.131 414.7 78.504z"/><path fill="#180c00" fill-opacity=".373" d="M395.758 170.32l-6.062 27.82-122.949-35.115 4.343 38.148z"/><path fill="#1c0701" fill-opacity=".22" d="M313.442 422.48l25.61-184.258-51.418-4.701 96.514 173.362z"/><path fill="#43ccea" fill-opacity=".302" d="M288.404 1012.129l-91.2-33.48 117.559 18.2L539.809 1086z"/><path fill="#f4a68c" fill-opacity=".294" d="M263.18 40.301l-16.411 60.876 18.99-29.793L369.55-8.869z"/><path fill="#e8b9aa" fill-opacity=".318" d="M650.005 935.693L692.62 1086l91.2-130.892-23.861-111.014z"/><path fill="#410a0b" fill-opacity=".518" d="M125.556 74.066L172.916 2.5l130.618 105.014 78.63-37.028z"/><path fill="#c3c6dc" fill-opacity=".255" d="M300.108 920.434l-7.978 100.142 24.82-94.939 1.75-65.49z"/><path fill="#031217" fill-opacity=".616" d="M493.597 323.206l-80.244 109.909-210.373 23.629 106.805 22.162z"/><path fill="#f7bab0" fill-opacity=".443" d="M-52.36 958.388l231.082-216.3-28.027-16.84L42.808 884.244z"/><path fill="#d69a9d" fill-opacity=".384" d="M304.344 370.048l-17.048-55.125 50.603 127.902-52.268-3.03z"/><path fill="#9894a0" fill-opacity=".592" d="M440.488 574.094l-33.823 33.96 22.59 47.75 3.436-290.106z"/><path fill="#151626" fill-opacity=".808" d="M669.8 415.462l31.426-42.9-70.132-4.789-.855 14.257z"/><path fill="#00323f" fill-opacity=".49" d="M382.017 1086l16.137-333.121-53.186 2.622 106.542-73.24z"/><path fill="#869be2" fill-opacity=".78" d="M645.54 554.05l22.033 128.356 47.615 7.182 37.675-28.291z"/><path fill="#466f82" fill-opacity=".686" d="M255.918 832.79l135.354-7.048 5.16-76.521-52.101 107.365z"/><path fill="#124951" fill-opacity=".8" d="M526.73 747.89l21.904 175.493 38.508-329.329-58.268 100.748z"/><path fill="#693602" fill-opacity=".192" d="M848.256 678.938l34.072 34.527-132.025 199.423 85.975-201.372z"/><path fill="#fdcbdb" fill-opacity=".235" d="M342.961 330.427l-25.467-48.241-23.777 13.825 67.714-18.855z"/><path fill="#efbdb1" fill-opacity=".227" d="M457.687 96.419l-65.976 342.77 50.705-287.962L421.814 21.15z"/><path fill="#95605d" fill-opacity=".361" d="M112.837 796.224L83.391 940.769l130.191-170.573-50.63-32.884z"/><path fill="#0b0100" fill-opacity=".408" d="M576.8 478.365l67.082 239.386 7.877-207.9 124.899 168.323z"/><path fill="#7987c9" fill-opacity=".537" d="M122.378 688.27l10.144-267.79 85.766-7.626-62.879 41.528z"/><path fill="#ffebea" fill-opacity=".388" d="M709.825 491.483L681.324 370.8l36.99 65.633 17.217 33.982z"/><path fill="#bdc2cf" fill-opacity=".42" d="M438.044 763.142l11.852 65.443 16.985 132.106-14.492-153.888z"/><path fill="#556c7c" fill-opacity=".871" d="M213.295 611.31l-14.184-96.836 1.547-110.646 13.773 209.017z"/><path fill="#7d5005" fill-opacity=".184" d="M706.504 995.722L898 985.802 755.498 1086 605.86 865.643z"/><path fill="#031806" fill-opacity=".282" d="M417.104 714.847L135.9 848.381l-20.787 78.122 223.143-187.921z"/><path fill="#054f4b" fill-opacity=".416" d="M716.882 499.114l-43.246 16.389-111.473-63.333 39.018-108.733z"/><path fill="#010809" fill-opacity=".604" d="M296.126 342.877l1.46 39.93-41.331 108.929-37.401-12.905z"/><path fill="#5f352a" fill-opacity=".392" d="M413.59 41.41l-45.24-11.556 95.229 203.18-47.798-46.587z"/><path fill="#586391" fill-opacity=".627" d="M1.37 672.758l-.742 37.273 160.962-15.303-14.122-46.344z"/><path fill="#e2b59e" fill-opacity=".286" d="M445.645 198.587l-77.338 218.896 64.165-93.89-10.946-113.555z"/><path fill="#e22f18" fill-opacity=".459" d="M484.106 614.295l-84.7 104.743 82.25-75.795-79.51-71.097z"/><path fill="#173241" fill-opacity=".608" d="M706.535 616.34l27.394-154.483 4.657 11.707 63.826 59.21z"/><path fill="#ccced8" fill-opacity=".494" d="M523.331 520.538l1.26 3.736-8.843-168.414-2.18 94.516z"/><path fill="#4e7492" fill-opacity=".757" d="M177.123 893.314l41.232-27.586-198.575 106.2 254.784-27.951z"/><path fill="#3a020c" fill-opacity=".671" d="M763.488-62L421.791 252.47l22.69 42.821L898 206.073z"/><path fill="#005165" fill-opacity=".525" d="M489.022 599.93l24.469-145.48 6.494 66.26-130.037 49.399z"/><path fill="#040d0d" fill-opacity=".667" d="M611.248 1000.796l29.472 40.002-44.39-24.955-227.474 4.366z"/><path fill="#deada4" fill-opacity=".373" d="M245.214 231.047l160.27-35.99-27.872 77.806-136.284-87.533z"/><path fill="#efc9aa" fill-opacity=".416" d="M898 666.698l-150.655-58.383-23.89-6.225 69.928-58.222z"/><path fill="#d53f33" fill-opacity=".78" d="M306.222 684.725l-25.498-42.848 22.14-24.314 79.45-44.56z"/><path fill="#460c20" fill-opacity=".349" d="M107.263 498.592L-62 494.605l378.845-221.308-229.976-.157z"/><path fill="#000805" fill-opacity=".259" d="M236.306 820.89l-12.222-15.588-18.568-86.152 70.785-241.828z"/><path fill="#002730" fill-opacity=".49" d="M395.28 724.344l-77.492 181.801 62.535 13.689-49.798-110.764z"/><path fill="#dfcae4" fill-opacity=".216" d="M335.588 793.352l-20.395-64.59 13.24 110.071-25.854 40.15z"/></svg>