<svg xmlns="http://www.w3.org/2000/svg" width="228" height="278" viewBox="0 0 836 1024"><path fill="#a3604d" d="M0 0h836v1024H0z"/><path fill="#f4eff4" fill-opacity=".941" d="M543.987 940.469L338.844 885.96l-230.618 124.9L638.855 1086z"/><path fill="#ee404c" fill-opacity=".98" d="M151.758 924.16l51.096-635.66 485.677 135.563-82.757 440.486z"/><path fill="#456333" fill-opacity=".784" d="M-62 21.033l265.748 216.214L898 458.731 833.893-62z"/><path fill="#120008" fill-opacity=".788" d="M353.399 248.812L332.515 86.39 457.442-46.42l59.642 397.279z"/><path fill="#ac010a" fill-opacity=".898" d="M162.316 562.68l-76.044.578L1.374 969.743l46.497 68.685z"/><path fill="#f7f7f5" fill-opacity=".698" d="M564.461 304.882l-73.6 224.948 123.77 1.819-123.456-162.65z"/><path fill="#d60d13" fill-opacity=".992" d="M200.277 340.749L124.344 484.52l51.073 59.313 192.91-27.906z"/><path fill="#e6dee6" fill-opacity=".918" d="M367.595 276.661l22.058-8.998L467.9 368.96l-55.896 4.415z"/><path fill="#6a8c40" fill-opacity=".627" d="M661.515 31.463L806.34-62 898 1086 669.673 812.568z"/><path fill="#e6212f" fill-opacity=".988" d="M728.438 900.795L579.873 692.834l-362.766-92.71L688.79 924.56z"/><path fill="#d5faf2" fill-opacity=".325" d="M504.25 650.093l-227.473-121.56 126.721 16.023 349.306 211.866z"/><path fill="#4c0a06" fill-opacity=".878" d="M92.311 925.274l-112.799 53.418L70.97 1086l18.75-83.88z"/><path fill="#6b664c" fill-opacity=".851" d="M574.409 982.631l-58.67-204.552 73.534 78.46 188.693 128.054z"/><path fill="#d1acb0" fill-opacity=".957" d="M267.829 908.52l-44.288 136.22-149.552 9.08 113.928-110.642z"/><path fill="#7b8c4d" fill-opacity=".549" d="M88.224 557.368L-40.211 975.873-7.104-62 382.69 9.227z"/><path fill="#eb121e" fill-opacity=".788" d="M642.99 512.21l-51.468-20.576-94.346 208.8 84.591-48.162z"/><path fill="#c4c3d0" fill-opacity=".859" d="M171.458 574.083l54.088-4.953-73.411-41.048-57.026-24.232z"/><path fill="#ff5f74" fill-opacity=".812" d="M536.076 880.155l21.985 69.277-249.276-74.666 22.494-90.109z"/><path fill="#f0f2fd" fill-opacity=".722" d="M644.988 663.038l-9.394 34.65-95.76-13.906 18.434-13.561z"/><path fill="#fb4d5d" d="M235.94 312.551l158.917 243.206 138.924 3.365-172.733-271.435z"/><path fill="#13121f" fill-opacity=".667" d="M544.04 79.5l52.21 123.449L547.615-49.98 327.768 73.04z"/><path fill="#947a54" fill-opacity=".796" d="M177.515 595.16L75.887 864.968l31.843 143.302 122.994-488.405z"/><path fill="#ffebff" fill-opacity=".239" d="M591.356 551.75l2.63-275.823-66.81 10.385-8.255 255.778z"/><path fill="#ad9d74" fill-opacity=".894" d="M719.575 1086l137.414-33.267 16.945-106.559-293.488 73.737z"/><path fill="#8a070a" fill-opacity=".784" d="M108.177 529.572l100.288 71.754-26.358-13.448-51.627 126.735z"/><path fill="#f6f9fd" fill-opacity=".871" d="M586.608 1058.353L231.074 1086l5.63-164.07 195.172-31.246z"/><path fill="#381c1a" fill-opacity=".804" d="M488.83 364.842l-68.003-52.136L448.01 10.143l88.394 276.243z"/><path fill="#fc5367" fill-opacity=".91" d="M655.98 428.677L476.034 455.51l71.538-81.534 5.264-38.549z"/><path fill="#e9dfe4" fill-opacity=".565" d="M372.85 447.498l-76.98-4.1 28.58-26.848 5.572-14.819z"/><path fill="#f52b39" d="M236.898 753.268l-14.842-204.212 204.637 61.127L527.058 856.63z"/><path fill="#ca94e1" fill-opacity=".271" d="M447.502 84.056l62.762-16.854 59.652 64.3-111.127 8.88z"/><path fill="#f5ccd4" fill-opacity=".376" d="M394.963 582.892l-15.48-100.8 70.534 51.49 39.445 97.859z"/><path fill="#637a3e" d="M608.711 370.47l77.11 73.562L721.3-62H569.621z"/><path fill="#69743a" fill-opacity=".875" d="M178.8 238.33L294.76-42.047l60.17 312.772L198 322.68z"/><path fill="#a80000" fill-opacity=".494" d="M512.079 707.295l264.231 310.628-262.715-240.056 163.185-85.88z"/><path fill="#e8d9e3" fill-opacity=".722" d="M394.875 258.169l-22.712 34.616 110.053 79.04-41.15 22.706z"/><path fill="#e3000a" fill-opacity=".29" d="M239.62 1086l-9.088-164.06-56.812-155.992-22.292 90.419z"/><path fill="#cd010f" fill-opacity=".714" d="M39.1 709.803l-.458 212.451 113.523-263.682-45.773-118.047z"/><path fill="#f8030d" fill-opacity=".392" d="M462.045 581.515l-21.45-98.062 59.685 29.351 167.2 175.04z"/><path fill="#eefff0" fill-opacity=".463" d="M481.17 464.862l108.547-16.04-30.062 91.298-26.264 10.017z"/><path fill="#aa9068" fill-opacity=".914" d="M139.956 909.3l-43.545-1.8L86.288 1086l67.5-50.331z"/><path fill="#010000" fill-opacity=".412" d="M298.718 85.594l299.04 74.746-302.91 20.506L542.364 39.67z"/><path fill="#e2f1fe" fill-opacity=".753" d="M187.618 930.134l3.352 111.348-36.1 39.26-.782-78.24z"/><path fill="#0c0301" fill-opacity=".655" d="M337.44 35.117l172.672 298.247L404.217 247.4l-37.179 42.12z"/><path fill="#ff5f7b" fill-opacity=".58" d="M615.385 771.103l14.05-23.69 131.718 185.895-71.198-62.274z"/><path fill="#780000" fill-opacity=".322" d="M273.531 458.03l-45.713 200.726-10.883-30.866-10.183-245.192z"/><path fill="#85867e" fill-opacity=".596" d="M575.755 853.03l-54.632-86.867 21.139 129.197L615.247 1086z"/><path fill="#ea989f" d="M298.33 516.522l-22.9 63.527 37.443-46.902L502.245 621.1z"/><path fill="#727d43" fill-opacity=".816" d="M647.885 673.918L898 667.736 711.326 864.92l-70.413-106.988z"/><path fill="#eb1a25" fill-opacity=".616" d="M222.091 407.728l177.668 83.5-64.903 113.105L496.9 696.1z"/><path fill="#331713" fill-opacity=".596" d="M700.61 987.79l47.31-9.454-2.67-25.276-68.553-6.5z"/><path fill="#ff3d4c" fill-opacity=".616" d="M138.877 971.812l56.05-338.379L386.86 849.76l-208.584 83.58z"/><path fill="#94795c" fill-opacity=".733" d="M201.574 544.755l38.07 21.885 6.004-3.608L100.5 789.244z"/><path fill="#c3d3ee" fill-opacity=".506" d="M192.803 582.83l-68.33-86.521-10.621 9.183 21.638 46.982z"/><path fill="#9d7b56" fill-opacity=".961" d="M122.55 497.37L48.77 686.64l-49.933 328.377L8.932 595.133z"/><path fill="#fff6ff" fill-opacity=".584" d="M514.446 362.348l30.476 38.52-3.193 7.252 7.436-113.51z"/><path fill="#8a0002" fill-opacity=".867" d="M97.188 932.403l-61.23-50.94-29.61 91.245 69.435 8.815z"/><path fill="#ff3d4b" fill-opacity=".631" d="M672.231 437.594l4.117 39.605-22.48 184.983-81.349-214.717z"/><path fill="#6a5b4e" fill-opacity=".902" d="M481.252 242.277l63.29 43.161-29.714-123.454 128.703 56.927z"/><path fill="#ff4556" fill-opacity=".761" d="M441.749 762.689l5.072 50.431-131.436-86.634-54.287-92.795z"/><path fill="#716d47" fill-opacity=".773" d="M154.424 407.73l132.412-170.161L47.519 447.763l56.51 68.643z"/><path fill="#6e7b52" fill-opacity=".918" d="M674.643-30.924l-127.8 52.954 48.083 28.181-7.155 230.295z"/><path fill="#600605" fill-opacity=".792" d="M118.706 571.813l29.321 54.13 49.349-46.716-46.446-14.41z"/><path fill="#e8040d" fill-opacity=".486" d="M195.569 355.606l-78.37 129.786 39.939 55.314L287.92 346.954z"/><path fill="#000400" fill-opacity=".525" d="M27.77 1046.068L4.985 959.485l80.666 54.462-4.44-50.942z"/><path fill="#e90c17" fill-opacity=".506" d="M500.842 584.248l45.304 91.636 105.838-163.072-215.901 60.14z"/><path fill="#e673a8" fill-opacity=".169" d="M416.424 170.223l65.969 34.236 99.058-16.257-10.154-20.817z"/><path fill="#16111d" fill-opacity=".529" d="M541.874 51.333l59.58 60.297-19.346 78.787L502.204-62z"/><path fill="#f9495a" d="M426.285 407.903l18.779-50.54-46.732 29.597 110.63 216.81z"/><path fill="#f2a6ad" fill-opacity=".69" d="M425.724 620.107l108.066 15.687-144.003-87.981-25.904 3.113z"/><path fill="#f02c37" fill-opacity=".918" d="M330.092 714.362l180.566-92.147L533.85 927.5l-57.84-300.717z"/><path fill="#b60109" fill-opacity=".529" d="M431.132 380.928l64.593-4.694 24.521 28.898-140.71-48.183z"/><path fill="#d6000b" fill-opacity=".671" d="M543.88 713.185L706.1 938.117l-.646-28.145-137.895-61.37z"/><path fill="#778a4a" fill-opacity=".835" d="M58.976 173.193L-62 305.402-42.979-62h143.823z"/><path fill="#bb0104" fill-opacity=".635" d="M589.895 859.204L386.21 591.134l70.711 62.965 19.973 69.232z"/><path fill="#333232" fill-opacity=".984" d="M509.78-18.623L407.057 46.144l216.759-6.911-81.276 35.24z"/><path fill="#e91924" fill-opacity=".812" d="M212.905 689.169l56.773-128.855 42.952-57.739-70.425-3.28z"/><path fill="#6c8168" fill-opacity=".616" d="M611.921 386.635l-60.54-54.144-8.477-21.159 45.529-117.216z"/><path fill="#aa9577" fill-opacity=".69" d="M700.087 951.802l47.038-54.675L792.605 1086 898 938.572z"/><path fill="#c7000a" fill-opacity=".4" d="M164.351 757.02l24.508 177.424-42.79 33.634 9.89-36.954z"/><path fill="#f9fbff" fill-opacity=".553" d="M417.562 365.464l-52.032-79.129 34.641-.71 61.118 72.763z"/><path fill="#f9fbfd" fill-opacity=".918" d="M612.632 1075.553l-60.866-130.73-296.13-24.326L311.395 1086z"/><path fill="#8c7b51" fill-opacity=".635" d="M674.462 575.081l175.984-211.188-133.974 373.35-88.319-5.469z"/><path fill="#fb5a6e" fill-opacity=".549" d="M284.474 773.222l254.725 105.823 26.522 53.83-99.375-1.627z"/><path fill="#442a37" fill-opacity=".455" d="M493.068 369.987l39.456-120.133-67.54-88.523 124.16 72.086z"/><path fill="#f6000e" fill-opacity=".537" d="M284.34 762.803l186.968 77.867 37.543-59.793 16.45 43.313z"/><path fill="#006456" fill-opacity=".169" d="M539.382 682.783l-9.473 51.932 2.83 234.916 24.452-349.503z"/><path fill="#000302" fill-opacity=".51" d="M349.795 191.33l-10.493 13.311L352.678 40.23l151.613-4.507z"/><path fill="#f5f7f9" fill-opacity=".761" d="M540.263 340.508l-67.935 35.023 23.03-5.104 20.093 22.626z"/><path fill="#db7f66" fill-opacity=".122" d="M94.236 401.11L-62 408.182 162.152 37.828l63.786 63.523z"/><path fill="#e70b11" fill-opacity=".604" d="M436.224 722.938l38.153 53.121-33.776-11.631-141.039-153.505z"/><path fill="#dc0818" fill-opacity=".702" d="M81.573 889.927l-63.972-19.185 31.722-92.185 41.481 11.227z"/><path fill="#2c1b49" fill-opacity=".161" d="M336.063 918.524L302.53 905.56l50.269-14.243 92.893-.998z"/><path fill="#ff2f42" fill-opacity=".369" d="M274.89 442.04l102.041-54.816-3.477-104.796-200.272 64.844z"/><path fill="#eef0e4" fill-opacity=".506" d="M568.666 536.622l23.78-63.195-49.154-31.578-9.085 100.31z"/><path fill="#f94356" fill-opacity=".937" d="M424.04 502.5l82.19-24.591-49.048-81.444-98.593 226.978z"/><path fill="#ff4f5c" fill-opacity=".78" d="M492.644 667.955l-57.08-44.212 92.95 149.219-81.542-238.99z"/><path fill="#ff4150" fill-opacity=".792" d="M308.07 605.284l147.262 82.644 55.87 155.235-33.066-76.57z"/><path fill="#960000" fill-opacity=".62" d="M218.367 378.308l6.578 152.148 69.005-91.763-44.83 16.462z"/><path fill="#bf0621" fill-opacity=".455" d="M235.215 1086l-4.686-154.09-5.969 91.32 40.497 44.138z"/><path fill="#e4d7df" d="M533.943 967.024L224.255 1086l-10.622-150.427L236.655 1086z"/><path fill="#dce6e2" fill-opacity=".345" d="M407.832 548.411l20.604-42.738 6.444 67.057 36.515-55.32z"/><path fill="#fd3d4a" fill-opacity=".878" d="M563.196 662.302l77.177 7.607 14.38-.814-30.132-111.23z"/><path fill="#ff0425" fill-opacity=".369" d="M543.287 691.647l89.825 7.505 12.882 132.692-29.97 31.841z"/><path fill="#b0505f" fill-opacity=".788" d="M203.387 923.633l-28.335 15.764 18.276 4.172L192.151 1086z"/><path fill="#ec040f" fill-opacity=".773" d="M386.024 776.91l-89.63-65.97-27.744 12.154 78.741 39.443z"/><path fill="#5b7d2f" fill-opacity=".573" d="M825.703 84.803l44.365 159.854L609.68 372.561l-3.052-169.234z"/><path fill="#f7556a" fill-opacity=".486" d="M308.111 293.427l-106.107 11.949 89.319 28.39 84.056 132.418z"/><path fill="#eafcff" fill-opacity=".243" d="M514.854 634.31l-6.897-34.673 24.85 55.773-36.167 3.596z"/><path fill="#edb4c5" fill-opacity=".502" d="M441.03 391.136l-16.98 68.854 9.701-11.155 10.894-40.211z"/><path fill="#250c09" fill-opacity=".553" d="M464.5 352.996l-42.114-39.354-57.238-183.897L527.311 281.41z"/><path fill="#e4aeb2" fill-opacity=".62" d="M255.643 568.453l65.993-1.226 3.773-23.26 66.966 8.69z"/><path fill="#cfe8ff" fill-opacity=".384" d="M154.443 572.699L108.46 489.25l56.951 59.922 65.2-3.712z"/><path fill="#cdac81" fill-opacity=".847" d="M5.647 1020.842l-.125-42.153-26.945-211.49L2.67 1051.745z"/><path fill="#fb5767" fill-opacity=".776" d="M634.981 398.218l34.195 46.108 10.182 43.94-151.782-103.734z"/><path fill="#8b687c" fill-opacity=".341" d="M549.84 83.564l-30.787-7.029-85.337 67.369 129.677-8.639z"/><path fill="#eff1ff" fill-opacity=".553" d="M550.141 666.426l21.322 23.703 26.114.023 22.17-23.927z"/><path fill="#b80004" fill-opacity=".451" d="M547.056 720.18l-58.138-91.216 25.284 68.01 120.794-3.244z"/><path fill="#ff3b56" fill-opacity=".612" d="M692.472 904.832l60.627 1.398-178.953-142.654 61.09-28.785z"/><path fill="#7f0110" fill-opacity=".529" d="M208.206 917.37l-34.131 18.73 51.49-3.403 9.556-18.092z"/></svg>