<svg xmlns="http://www.w3.org/2000/svg" width="228" height="278" viewBox="0 0 836 1024"><path fill="#a37676" d="M0 0h836v1024H0z"/><path fill="#f8e9f2" fill-opacity=".784" d="M715.763 352.508l-564.536 25.04-96.424 297.28 689.675-200.833z"/><path fill="#231d12" fill-opacity=".737" d="M898-62L-52.779-37.126l-9.221 265L837.957 118.38z"/><path fill="#f4f0f7" fill-opacity=".663" d="M527.002 948.2l252.791-179.878L-62 746.366l755.402-87.045z"/><path fill="#efeff7" fill-opacity=".933" d="M224.79 866.659l369.66-21.309 46.977 74.239-417.8 11.092z"/><path fill="#ae0114" fill-opacity=".851" d="M303.28 658.972l-56 40.532-32.408-159.448 78.434-27.552z"/><path fill="#886257" fill-opacity=".996" d="M372.232 415.773L898 225.115 439.791 72.328 226.07 68.456z"/><path fill="#d0041b" fill-opacity=".8" d="M608.216 839.266l15.296-83.522-375.959 12.476-18.427 84.438z"/><path fill="#d50117" fill-opacity=".631" d="M249.576 920.395L48.092 1018.3l532.206-12.047 43.666-66.128z"/><path fill="#110209" fill-opacity=".498" d="M887.106 357.064L727.88-62l-12.198 349.035 84.305 222.08z"/><path fill="#e4bba8" fill-opacity=".918" d="M-10.761 913.61l66.529-260.508L167.223 875.73l-34.411 104.857z"/><path fill="#411b28" fill-opacity=".761" d="M109.886 492.344L-62 704.178v-315.69l202.627-1.137z"/><path fill="#f5ffff" fill-opacity=".592" d="M609.734 505.755l-345.32 8.954 344.57-211.349 182.54 265.483z"/><path fill="#e20017" fill-opacity=".549" d="M255.098 517.448l396.208-15.29-80.603 192.733-50.086-159.074z"/><path fill="#663a1b" fill-opacity=".706" d="M871.079 1014.225L613.596 534.397l39.635 24.58 197.421 224.072z"/><path fill="#030305" fill-opacity=".678" d="M600.772 85.708l-133.084 67.43L462.13-62 898 20.686z"/><path fill="#effbff" fill-opacity=".675" d="M167.03 700.78L44.841 638.607 211.5 336.853l70.334 37.935z"/><path fill="#eeb897" fill-opacity=".729" d="M339.691 158.923l118.414-17.446-15.479-69.297-172.635 15.122z"/><path fill="#ffe7fc" fill-opacity=".329" d="M513.126 763.929l20.28-242.128-226.487 82.732-1.635 161.391z"/><path fill="#c0b3bd" fill-opacity=".859" d="M898 1086L646.676 609.897l-41.562-32.799 35.445 212.278z"/><path fill="#0f0200" fill-opacity=".384" d="M507.041 193.27L249.877 330.337 63.596-62l342.223 457.382z"/><path fill="#e9d7dd" fill-opacity=".992" d="M646.844 999.244l-168.822 25.526-286.057-8.701L668.457 1086z"/><path fill="#e8ecf4" fill-opacity=".902" d="M672.605 676.748l-428.179 15.535 4.855 71.178 329.43-7.673z"/><path fill="#000501" fill-opacity=".541" d="M295.133 91.935l-128.056 91.386L-62 39.521 167.088-62z"/><path fill="#ac6f48" fill-opacity=".471" d="M99.445 415.04l632.76-301.192-343.78 66.148L-62 172.115z"/><path fill="#867378" fill-opacity=".675" d="M217.642 439.413L220.728 1086 87.772 674.074l108.606 19.757z"/><path fill="#b22030" fill-opacity=".906" d="M608.836 630.309l-420.274 4.844 173.408-18.629 239.315-2.472z"/><path fill="#f7f7fb" fill-opacity=".91" d="M121.929 480.584l524.022-97.296-242.067 13.07-183.341-48.313z"/><path fill="#060006" fill-opacity=".357" d="M626.308 265.424l-61.783 68.77L898 322.596 883.387 209.21z"/><path fill="#03101c" fill-opacity=".322" d="M656.132 1074.835l-15.357-242.773 62.59-35.133.884 169.909z"/><path fill="#f3f8fc" fill-opacity=".796" d="M637.103 1024.199l-17.986-67.135 1.006-137.042 31.384 175.598z"/><path fill="#da192e" fill-opacity=".706" d="M622.336 1011.372l-2.344-101-191.93 29.956-180.934 78.73z"/><path fill="#dcab98" fill-opacity=".263" d="M710.691 108.326L898 183.384l-331.733 74.393-297.047-49.334z"/><path fill="#e6424f" fill-opacity=".698" d="M517.6 519.656l-45.691-12.27-312.553 24.3 157.71 7.613z"/><path fill="#d10015" fill-opacity=".537" d="M302.18 674.332l-36.493 14.343 317.42-9.484 29.15-16.357z"/><path fill="#19130f" fill-opacity=".557" d="M348.487 371.52l135.485-189.18-14.815 112.393-98.261 95.786z"/><path fill="#eaebf4" fill-opacity=".788" d="M323.355 931.626l-114.71-78.172 120.56-3.238 172.334 74.333z"/><path fill="#ff4b5d" fill-opacity=".8" d="M661.296 346.108l-66.848-18.627-103.3 40.437 30.42-76.605z"/><path fill="#aa554c" fill-opacity=".988" d="M190.92 980.922l26.7 98.202L-62 1007.48l194.15-53.13z"/><path fill="#f9c3a5" fill-opacity=".58" d="M298.348 174.8l21.717 68.793 111.26-38.75-53.735-12.618z"/><path fill="#be939d" fill-opacity=".992" d="M697 1049.598l173.975-52.673-120.893-78.542-2.46-39.164z"/><path fill="#e6b0b5" fill-opacity=".957" d="M296.344 618.678L460.787 617l74.001-98.876-190.365 35.232z"/><path fill="#7d4d5f" fill-opacity=".675" d="M789.299 635.568L898 829.517V590.919L729 283.818z"/><path fill="#ff4354" fill-opacity=".753" d="M326.252 364.074l-24.486-91.247 11.192 41.837-104.215 40.725z"/><path fill="#b5bbca" fill-opacity=".522" d="M730.629 575.184l-138.115-68.907 149.968-46.121 65.432 234.324z"/><path fill="#c21124" fill-opacity=".812" d="M538.57 675.917l2.718-106.946L612 525.861l-1.81 131.561z"/><path fill="#190d02" fill-opacity=".239" d="M365.72 130.588l103.498 289.126-172.751-134.838 164.352-131.752z"/><path fill="#f9f3f6" fill-opacity=".867" d="M698.257 359.78L364.753 516.17l100.55-136.844 127.708-49.993z"/><path fill="#edf5fe" fill-opacity=".545" d="M693.858 658.407l-74.025-74.904-4.708 158.856-314.836-19.724z"/><path fill="#5d5648" fill-opacity=".827" d="M308.442 67.29l177.112-86.37-221.63 41.653-27.231 200.069z"/><path fill="#d8182a" fill-opacity=".639" d="M463.76 553.71l26.407-16.732-28.815 66.624 42.88-6.543z"/><path fill="#f0b29a" fill-opacity=".486" d="M468.544 297.912l43-135.038L487.18 330.41l-52.634 45.41z"/><path fill="#f5c7aa" fill-opacity=".447" d="M15.013 648.948l64.005 396.32 60.028-211.48-7.37-110.612z"/><path fill="#664448" fill-opacity=".463" d="M529.098 164.29L407.188-21.36l101.63 90.26L898 135.714z"/><path fill="#5c3817" fill-opacity=".325" d="M624.084 171.267L40.37 134.498-62 306.982l399.163-131.801z"/><path fill="#a5b0bf" fill-opacity=".788" d="M161.83 643.351l38.412-22.967 40.025 196.239-9.433-190.567z"/><path fill="#c37363" fill-opacity=".365" d="M632.254 730.857l144.205-85.845-44.981-129.688-100.08 166.1z"/><path fill="#c5182a" fill-opacity=".957" d="M242.693 921.27l-23.159 4.309 30.082 90.364 261.126 1.586z"/><path fill="#fff8fd" fill-opacity=".6" d="M177.946 1086H165.05l52.891-83.75L467.8 1086z"/><path fill="#c9182c" fill-opacity=".565" d="M613.36 842.108l-45.764-.619-163.463 15.69L628.99 732.92z"/><path fill="#84757e" fill-opacity=".471" d="M-30.169 921.487l73.297-223.751 91.283-249.376L-6.316 603.487z"/><path fill="#eaf2fe" fill-opacity=".494" d="M176.21 716.11l33.958-131.91-24.247-243.29-94.896 303.353z"/><path fill="#a50718" fill-opacity=".647" d="M219.116 609.132l24.01-99.68 12.383 12.723 59.459 167.315z"/><path fill="#ff4047" fill-opacity=".451" d="M80.852 1021.947l-35.32-118.918-105.762 129.973L309.363 1086z"/><path fill="#080909" fill-opacity=".659" d="M824.639 96.943L496.262 38.644l-96.677-50.102L871.812-21.83z"/><path fill="#011f64" fill-opacity=".369" d="M149.475 682.544L94.901 663.46l-27.219 20.096 92.672 34.468z"/><path fill="#3c414e" fill-opacity=".298" d="M164.386 1086l-75.98-156.41 63.496 30.13L258.33 759.201z"/><path fill="#b0071a" fill-opacity=".647" d="M381.78 768.392l-85.888 75.291-71.019-12.475 21.516-72.682z"/><path fill="#f6d9c9" fill-opacity=".627" d="M66.284 902.95L18.645 732.979l133.4 212.792 28.328 42.588z"/><path fill="#999198" fill-opacity=".639" d="M756.58 334.947l-20.117 207.437-11.2-137.538-74.675-89.388z"/><path fill="#3643a2" fill-opacity=".447" d="M416.788 401.457L300.97 309.642l16.08 24.834 13.618 40.75z"/><path fill="#b12735" fill-opacity=".894" d="M457.742 673.102l-27.08 15.105 11.124-66.989 13.902 67.469z"/><path fill="#ff0b15" fill-opacity=".329" d="M367.423 442.631l3.62 16.75-92.579 2.64 6.72-19.54z"/><path fill="#2c6a8a" fill-opacity=".38" d="M599.507 620.67l16.855-32.567 23.944-107.13 41.29 27.883z"/><path fill="#efdadd" fill-opacity=".992" d="M542.448 562.805l2.943 1.071-2.958 9.893-191.697-1.875z"/><path fill="#03000e" fill-opacity=".373" d="M724.449 486.66L898 258.99l-149.876-25.013 51.105 138.52z"/><path fill="#ffc38f" fill-opacity=".506" d="M866.43 795.103l-111.2-221.48 16.412 14.87-32.513 24.284z"/><path fill="#c3feff" fill-opacity=".392" d="M676.595 547.86l77.217-44.73-68.805-156.985-38.983 207.18z"/><path fill="#e24d00" fill-opacity=".165" d="M68.217 685.37l30.72 141.148 123.922-27.28-14.262-80.957z"/><path fill="#03000f" fill-opacity=".298" d="M1.58 435.239l-5.7 284.63L38.587 517.14 105.122 433z"/><path fill="#e53142" fill-opacity=".725" d="M551.063 752l-97.18 87.478.273 12.225-159.882 4.345z"/><path fill="#d79c79" fill-opacity=".627" d="M432.117 280.298l-2.567-51.305-102.061-106.431 52.631 97.026z"/><path fill="#325bd7" fill-opacity=".412" d="M436.279 399.098l77.332-127.679-8.519 65.758-39.64 48.16z"/><path fill="#b87936" fill-opacity=".49" d="M252.805 258.674L66.24 179.448l-18.664 70.343 69.908 74.075z"/><path fill="#f5f8fb" fill-opacity=".722" d="M203.757 359.526l-68.187 59.63-22.974 73.927 180.88 16.862z"/><path fill="#190a01" fill-opacity=".42" d="M427.47 272.153l-99.158 2.095-10.675 19.995 46.771-75.408z"/><path fill="#56270a" fill-opacity=".631" d="M788.765 850.132l11.09-81.206L898 864.492v164.67z"/><path fill="#d8d2df" fill-opacity=".529" d="M621.755 862.007l1.725-185.09 178.139 206.827-135.815-96.169z"/><path fill="#eefcfc" fill-opacity=".518" d="M439.778 548.92l-50.519-14.371 3.587 56.665 41.912 24.013z"/><path fill="#0e0802" fill-opacity=".6" d="M48.774 113.48L34.362 71.536 5.64-48.293l-34.91 297.84z"/><path fill="#271000" fill-opacity=".69" d="M385.531 149.805l-9.398 16.167 8.705 16.108 75.395-30.517z"/><path fill="#d62b3a" fill-opacity=".529" d="M374.541 589.046l7.195-77.983 7.976 92.677-30.648 3.398z"/><path fill="#f5e8e8" fill-opacity=".557" d="M498.668 669.494l-26.697-30.112 53.695-6.177 10.203 32.425z"/><path fill="#554c56" fill-opacity=".62" d="M687.427 656.42l-77.853-102.533 103.508 62.558 49.905-28.71z"/><path fill="#a0643e" fill-opacity=".651" d="M843.896 781.307l-86.848-148.724 12.435 202.94-69.503-115.111z"/><path fill="#f4f2f6" fill-opacity=".973" d="M685.383 347.774l-58.82 166.114-59.226-6.524-302.83-1.618z"/><path fill="#fce3d2" fill-opacity=".137" d="M647.55 234.553L591.839 125.01l77.385-33.828 26.533 122.508z"/><path fill="#d81729" fill-opacity=".643" d="M242.416 531.038l12.441-13.28 46.547 19.895.816 147.579z"/><path fill="#eef0f7" fill-opacity=".769" d="M512.27 928.71l-235.56-.84-58.624-10.052 409.574-81.55z"/><path fill="#1c1a18" fill-opacity=".431" d="M435.037 24.237L536.84 152.004 427.787 63.638l-187.525 27.7z"/><path fill="#c4757a" fill-opacity=".937" d="M735.671 519.587l-46.293 29.583-14.606 74.16 86.708-49.283z"/><path fill="#edaeb4" fill-opacity=".627" d="M519.207 406.939l43.978 5.485-37.99 113.507 13.08 22.722z"/><path fill="#e4b7a1" fill-opacity=".914" d="M457.495 107.057l-176.366-8.67 119.33-23.517 59.816 11.327z"/><path fill="#864c54" fill-opacity=".69" d="M-62 400.95l307.17-68.792-83.544 36.884-29.215 44.143z"/><path fill="#dcab8d" fill-opacity=".98" d="M286.333 142.5l14.96 3.857 7.61-51.37 109.769 51.444z"/><path fill="#a0a3c3" fill-opacity=".671" d="M98.957 678.323L48.33 644.04l-13.92-17.216 2.364 84.588z"/><path fill="#cc9287" fill-opacity=".671" d="M17.335 797.759l70.55 152.227-4.5-39.705L-62 1026.407z"/><path fill="#0dc2db" fill-opacity=".608" d="M752.287 527.54l-11.728-41.147-3.473-28.02-8.98 31.955z"/><path fill="#e73441" fill-opacity=".424" d="M663.048 521.84l-149.277-15.004-249.448 10.99-51.097 17.558z"/><path fill="#937c81" fill-opacity=".945" d="M898 1040.208l-79.996-128.222-11.979-33.225 7.805 183.7z"/><path fill="#002760" fill-opacity=".137" d="M194.79 493.677l-9.105 124.999-20.818 166.457 88.47-244.017z"/><path fill="#eac7cc" d="M126.646 377.553l423.858 233.498-128.453 4.058 103.808-17.298z"/><path fill="#b3add2" fill-opacity=".314" d="M325.155 343.114l-12.266-60.719 12.964 16.814 74.668 66.283z"/><path fill="#be192b" fill-opacity=".847" d="M571.217 620.834l-57.976-32.007 115.457-70.976-13.554 80.135z"/><path fill="#fffeff" fill-opacity=".49" d="M850.861 1086H137.108l364.475-70.834 97.378-5.458z"/><path fill="#e9ae8e" fill-opacity=".286" d="M334.772 301.552l-36.444-162.96 39.15 132.775 90.383 4.078z"/><path fill-opacity=".275" d="M221.439-11.793l-21.92 231.401-65.499-14.419-1.948-250.53z"/><path fill="#e33544" fill-opacity=".537" d="M471.05 624.982l3.444-55.682 26.747-21.96-41.003-12.077z"/><path fill="#170900" fill-opacity=".31" d="M292.77 140.637l-39.278-.928 106.198 13.03-16.454 46.243z"/><path fill="#5b0b1f" fill-opacity=".4" d="M827.102 682.729L898 655.76l-107.434-42.885.24 39.205z"/><path fill="#8d95c0" fill-opacity=".494" d="M736.037 468.43l61.605 80.365 7.971 48.204-24.715 12.045z"/></svg>