<svg xmlns="http://www.w3.org/2000/svg" width="228" height="278" viewBox="0 0 836 1024"><path fill="#87653b" d="M0 0h836v1024H0z"/><g fill-opacity=".502"><path fill="#ffa635" d="M-62 326l744 52-532 520z"/><path d="M-2 1078l68-224 516 148z"/><path fill="#00001e" d="M414-62l484 228-124 376z"/><path fill="#faef7a" d="M618 582l-84 504 364-260z"/><path fill="#00062b" d="M366-62l-76 428L-62 2z"/><path fill="#b9ddfd" d="M166 334L-30 774-62 54z"/><path fill="#fff" d="M766 134L898 30 738-42z"/><path fill="#a43100" d="M626 574L110 462l320 532z"/><path fill="#e8cbc2" d="M322 58l64 324L510 74z"/><path fill="#fcdb89" d="M806 874l92-332-208-72z"/><path fill="#0c1f2a" d="M702-62l188 596-428-252z"/><path d="M542 962l-372 124-224-204z"/><path fill="#ffb130" d="M286 314l-68 256 372-24z"/><path fill="#c15700" d="M702 378L362 938 82 854z"/><path fill="#abffe8" d="M826 1058l-256 16-32-176z"/><path fill="#3d0200" d="M190 446l40 72L30 690z"/><path fill="#501200" d="M638 522L326 630l256 56z"/><path fill="#f0dd49" d="M58 702l152-180-48 348z"/><path fill="#b28922" d="M818 970l12-272-380 204z"/><path fill="#1d2931" d="M170 366l168-48 20-368z"/><path fill="#00030f" d="M346 1006L-22 734l228 352z"/><path fill="#5a7180" d="M-62-22l288 320-76 112z"/><path fill="#1d2526" d="M466-62l296 48-188 376z"/><path fill="#d6ad9e" d="M514 166l-212-20 188 164z"/><path fill="#ffffe2" d="M898 6l-84 144-80-212z"/><path fill="#dda6a2" d="M898 614L582 830l-72-80z"/><path fill="#ad2c00" d="M762 570L530 402l156 240z"/><path fill="#000007" d="M542 958l24 128-428-168z"/><path fill="#e26d00" d="M-62 622l220-76 140-212z"/><path fill="#e38b18" d="M570 682L158 802l32-164z"/><path fill="#ffc631" d="M158 870l144 56-124-116z"/><path fill="#fae8dc" d="M434 50l-64 72 152 4z"/><path fill="#8e3300" d="M182 786l336-72 28 228z"/><path fill="#ff9525" d="M426 326l216 52 60 148z"/><path fill="#ffd532" d="M726 690l-88-104-68 140z"/><path fill="#f9d349" d="M834 742l64 128-328-20z"/><path fill="#88685c" d="M442 110l60 276-120-4z"/><path fill="#baa834" d="M790 154l108-52-160-40z"/><path fill="#e7ffff" d="M710 450l36 88-40-8z"/><path fill="#acaed9" d="M-26 794v160l76-96z"/></g></svg>