<svg xmlns="http://www.w3.org/2000/svg" width="228" height="278" viewBox="0 0 836 1024"><path fill="#647185" d="M0 0h836v1024H0z"/><g fill-opacity=".502"><path fill="#620700" d="M706-42L466 454 390 2z"/><path fill="#41a9eb" d="M554 942L326 58 82 974z"/><path d="M102 1002l700-128-324 212z"/><path fill="#ff6760" d="M606 206l-8-268 300 400z"/><path fill="#690c06" d="M374 146L126 306-62 94z"/><path fill="#fff" d="M398 182l4-152-124 56z"/><path fill="#67b9eb" d="M666 310L338 514l424 80z"/><path fill="#5ad1fd" d="M322 290L-62 690 94 322z"/><path fill="#070b13" d="M726 726l-84-216-108 228z"/><path fill="#fffff7" d="M94 1086l16-164-172 44z"/><path fill="#f7ffff" d="M146 42L46 46l104 148z"/><path fill="#000400" d="M598 198V58L266-62z"/><path fill="#ffb297" d="M762 922l-156 76 284 52z"/><path fill="#2c1e0e" d="M454 430L270 90l312 268z"/><path fill="#ffcdbf" d="M570 274l56-196 36 316z"/><path fill="#6ad5ff" d="M898 738l-184 16 108 200z"/><path fill="#a1d5f8" d="M-62 810L46 450l24 404z"/><path fill="#253040" d="M262 470L50 530l36 264z"/><path fill="#ff2b35" d="M-30 210l20-272 96 312z"/><path fill="#0c0000" d="M834 182L742 50l-52 100z"/><path fill="#005c55" d="M-34 314l-28 236 232-244z"/><path fill="#fff8fe" d="M658-62l156 172-8-144z"/><path fill="#1b0800" d="M886 542l-40 220-92-144z"/><path fill="#ba8f7c" d="M602 258l-300-92-124 88z"/><path fill="#e67c5b" d="M414-62L278 138 174 54z"/><path fill="#63433f" d="M518 810l112 276 140-456z"/><path fill="#def7fe" d="M834 246l-148-24 212-64z"/><path fill="#000017" d="M738 1086L154 986l336-36z"/><path fill="#be6431" d="M106 970L-62 802l176-16z"/><path fill="#79b1d9" d="M594 542L134 350l148-116z"/><path fill="#26669a" d="M578 666L18 502l192-124z"/><path fill="#ff0814" d="M750 162l-92 64-44-100z"/><path fill="#341b2d" d="M778 450l-20-120-132 24z"/><path fill="#67a2cc" d="M314 962l276-672-60 648z"/><path fill="#fff" d="M442 26L314 86l52 48z"/><path fill="#9c6215" d="M534 322l88-152-216-52z"/><path fill="#052937" d="M130 262L62 162l240-48z"/><path fill="#ff0715" d="M694 18l-52 72L514-62z"/><path fill="#287bb1" d="M670 394l4-176 112 24z"/><path fill="#b3d2eb" d="M6 490l224-240-20 128z"/></g></svg>