<svg xmlns="http://www.w3.org/2000/svg" width="228" height="278" viewBox="0 0 836 1024"><path fill="#828b60" d="M0 0h836v1024H0z"/><path fill="#d8ffab" fill-opacity=".58" d="M549.797 1085.233L83.12 434.3l509.876-125.01 263.597 462.814z"/><path fill="#1a1b1f" fill-opacity=".851" d="M459.455 99.164L398.28 292.138 813.777 411.39 898 100.749z"/><path fill="#000315" fill-opacity=".694" d="M-22.187 96.3l-11.894 474.56 270.563-254.436-35.014-240.467z"/><path fill="#94d15c" fill-opacity=".965" d="M506.823 621.74l-74.315-11.754-270.923 400.036L490.522 1086z"/><path fill="#09160d" fill-opacity=".62" d="M605.618 791.243l73.268 8.893-1.412-64.803-96.648-146.961z"/><path fill="#eeffe6" fill-opacity=".471" d="M240.2 417.478L77.676 516.587 48.868 772.213l583.328-409.07z"/><path fill="#710003" fill-opacity=".384" d="M138.423 736.097l49.19 133.818L473.405 633.27l-296.203-20.08z"/><path fill="#653e37" fill-opacity=".584" d="M835.683 1086l33.312-717.992-221.298-1.232 94.216 197.215z"/><path fill="#cef1bd" fill-opacity=".925" d="M687.204 422.304L787.68 785.68l-18.74 179.358-63.37-8.329z"/><path fill="#812804" fill-opacity=".471" d="M496.502 320.974L421.533-62 898 33.304 469.812 165.051z"/><path fill="#384545" fill-opacity=".984" d="M769.229 974.815l21.186-218.335L898 1086l-243.708-92.387z"/><path fill="#293539" fill-opacity=".957" d="M-17.94 636.685l8.274-275.738 98.651 50.706-28.354 212.935z"/><path fill="#734c30" fill-opacity=".82" d="M69.994-62L-37.663 79.321l569.32 54.771-251.573-85.206z"/><path fill="#046c00" fill-opacity=".373" d="M114.823 857.972l234.67 34.929 9.2-125.424L155.86 661.978z"/><path fill="#d5dec3" fill-opacity=".792" d="M681.01 413.323L149.409 571.928l228.132 79.524 28.416-358.812z"/><path fill="#ff616e" fill-opacity=".627" d="M153.932 604.825l176.788-10.771 51.471 126.164-131.396 2.72z"/><path fill="#bbf58c" fill-opacity=".757" d="M510.917 831.99l16.212-513.576L654.71 1086 277.575 948.381z"/><path fill="#bdf5a0" fill-opacity=".816" d="M57.908 813.93l81.913-22.568L82.635 473.63l-27.35 295.338z"/><path fill="#0e43be" fill-opacity=".624" d="M800.733 511.7L898 525.65l-22.887 135.132-94.13-26.021z"/><path fill="#e46a56" fill-opacity=".384" d="M-55.977 1086l74.445-520.319 34.407 262.463L281.448 1086z"/><path fill="#8f3200" fill-opacity=".333" d="M731.95 1086L600.602 863.579l12.837-94.654 40.14-.808z"/><path fill="#948271" fill-opacity=".871" d="M411.031 168.601L200.035 55.085l103.597 360.198 102.488-22.567z"/><path fill="#02022d" fill-opacity=".424" d="M207.689 680.53l-85.46-.202 32.83 141.81 153.42-85.714z"/><path fill="#7b471c" fill-opacity=".788" d="M799.664-62l81.807 116.304L776.88 165.759l-69.725-65.73z"/><path fill="#7bc429" fill-opacity=".412" d="M382.787 969.341L-62 796.82l268.992 4.593 256.22-127.817z"/><path fill="#f2ffd9" fill-opacity=".565" d="M680.69 404.886l-40.378 162.179 154.732 211.997-120.958-358.098z"/><path fill="#65ef06" fill-opacity=".275" d="M565.065 648.489l35.19-176.626 122.566 467.062 3.629-262.247z"/><path fill="#f5cffe" fill-opacity=".302" d="M361.39 85.954l101.137-14.478L250.074-62l-34.553 14.774z"/><path fill="#29312c" fill-opacity=".98" d="M766.748 980.03L673.884 1086l.778-111.107 51.814-11.17z"/><path fill="#1d1f1c" fill-opacity=".847" d="M788.033 370.868l96.463-297.585-191.973 168.974 87.185 274.032z"/><path fill="#e1ffd3" fill-opacity=".631" d="M432.611 456.574L169.165 445.7l144.54 139.509 143.214 4.823z"/><path fill="#ed7200" fill-opacity=".224" d="M898 377.058l-244.6 4.97 78.285 154.18 1.076 87.349z"/><path fill="#b3a15b" fill-opacity=".859" d="M782.52 786.67l12.333-101.435 22.476-47.519 78.762 134.536z"/><path fill="#daf3b8" fill-opacity=".906" d="M630.932 931.03L669.773 1086l-64.023-83.128-44.396-232.203z"/><path fill="#242c30" fill-opacity=".565" d="M432.59 96.029l.074 55.86-205.837-83.59 17.012-17.636z"/><path fill="#c49d79" fill-opacity=".722" d="M189.528 809.841l-13.22 240.557-51.08 4.678 25.489-195.409z"/><path fill="#a75f05" fill-opacity=".337" d="M438.141 537.75l71.965 29.286 19.301-71.455-64.311-37.05z"/><path fill="#5f3d21" fill-opacity=".749" d="M129.42 130.993L197.595-62l21.901 249.18 98.924-15.413z"/><path fill="#101720" fill-opacity=".4" d="M271.433 258.296L-62 178.47l268.147 201.385 82.095-103.705z"/><path fill="#b3ceb1" d="M130.275 407.99l127.43 170.427L279 522.556l-184.265-73.94z"/><path fill="#0e2403" fill-opacity=".408" d="M219.605 913.353l-16.901 42.027-20.564-8.059 10.82-155.701z"/><path fill="#9dcb01" fill-opacity=".345" d="M477.015 994.11l-171.382-3.765 272.054-40.28 103.032 9.247z"/><path fill="#93c278" fill-opacity=".941" d="M107.424 441.19l-31.872 65.3 49.774 88.84 42.823-28.962z"/><path fill="#a4c297" fill-opacity=".882" d="M680.664 449.43l-102.542-56.95-103.774-60.244 40.389 75.98z"/><path fill="#653600" fill-opacity=".384" d="M89.189 821.66l66.477 79.383-75.146 65.658L149.096 1086z"/><path fill="#819385" fill-opacity=".6" d="M492.952 652.716L333.075 705.61l106.59-91.754 92.298-15.271z"/><path fill="#caffac" fill-opacity=".616" d="M623.713 432.408l-6.675 75.407-19.234-3.186-422.837-114.705z"/><path fill="#74340d" fill-opacity=".482" d="M262.042-62L520.74 107.19 494.01-62 91.616 62.903z"/><path fill="#d9ebf9" fill-opacity=".486" d="M110.2 612.441l99.949-83.403 12.64 120.694L340 518.01z"/><path fill="#1d2a30" fill-opacity=".671" d="M490.875 112.323l122.149 249.07L898 375.075 701.287 106.31z"/><path fill="#d94c4a" fill-opacity=".525" d="M362.989 731.783l-98.756 11.908-21.675-73.252 48.387-106.373z"/><path fill="#5e2e00" fill-opacity=".325" d="M793.817 370.754l-30.483 72.576-21.348 158.958 46.213 181.872z"/><path fill="#fd8726" fill-opacity=".204" d="M-62 51.807L108.437-62l29.446 32.652 41.123 154.123z"/><path fill="#39474a" fill-opacity=".992" d="M898 784.305v298.41L742.312 1086l54.672-293.257z"/><path fill="#738f4f" fill-opacity=".714" d="M512.308 688.9l-30.39 30.797L360.133 579.11l42.093 124.778z"/><path fill="#dcdee9" fill-opacity=".545" d="M588.761 349.229l21.995 6.61 53.905 48.67-273.83-101.943z"/><path fill="#c2814c" fill-opacity=".255" d="M486.53 79.438L667.737-62 769.304 60.922l15.82 63.2z"/><path fill="#797a54" fill-opacity=".651" d="M300.354 404.981l89.788 4.659L206.37 183.466l28.215 105.654z"/><path fill="#19273b" fill-opacity=".424" d="M682.03 792.842l-84.004-23.612 10.337-154.81 65.838 129.929z"/><path fill="#98c794" fill-opacity=".557" d="M262.71 328.342l24.445 53.924-163.508 127.178 46.755-107.396z"/><path fill="#d4ffaf" fill-opacity=".424" d="M631.759 1035.222L329.06 951.02l302.296-36.545-334.804 126.902z"/><path fill="#86ff02" fill-opacity=".157" d="M553.113 439.688l151.752 160.235-29.857 152.903-107.01-188.9z"/><path fill="#fdfeff" fill-opacity=".337" d="M777.163 829.18l7.947 67.642-146.47-530.568L785.813 752.82z"/><path fill="#9fe86c" fill-opacity=".576" d="M500.699 898.245l81.957-134.109-62.604-157.664-141.12 340.402z"/><path fill="#b3975c" fill-opacity=".976" d="M670.93 1039.877l7.311-238.903-17.097-12.503-28.789 183.988z"/><path fill="#e3fad7" fill-opacity=".475" d="M608.452 862.67L655.8 1086l-67.569-213.767L392.373 668.18z"/><path fill="#f36964" fill-opacity=".745" d="M166.58 638.85l25.916 35.577 73.912 32.422-72.857-135.499z"/><path fill="#9dbdcc" fill-opacity=".345" d="M595.993 152.528l-2.186-28.031 38.849 4.675-12.312 32.728z"/><path fill="#1e1e19" fill-opacity=".592" d="M247.689 30.764L118.332 368.218l79.54-280.108 124.385 1.033z"/><path fill="#ae9fb7" fill-opacity=".396" d="M334.652 110.099L226.15 81.315l-23.783 75.437 83.086-5.943z"/><path fill="#e3f2d8" fill-opacity=".655" d="M394.684 284.394l91.777 68.738-35.285 105.135-43.751-189.908z"/><path fill="#c19262" fill-opacity=".388" d="M790.226 401.85l29.943-45.74L898 542.452l-111.025-52.546z"/><path fill="#fd9a9b" fill-opacity=".431" d="M274.655 629.11l21.956-70.282 124.915 121.634-72.077-9.425z"/><path fill="#ffd7ee" fill-opacity=".196" d="M478.027 99.348l-74.02 144.83L448.52 96.746 276.864-62z"/><path fill="#f4ffec" fill-opacity=".4" d="M149.963 398.201l216.56 229.66-64.626-191.054-95.438 122.67z"/><path fill="#b28760" fill-opacity=".827" d="M61.558 672.242l8.942-32.29-132.5 4.04L28.523 1086z"/><path fill="#191e1e" fill-opacity=".792" d="M763.813 461.762l-53.47-127.442L898 52.263l-84.226 232.302z"/><path fill="#a9e98d" fill-opacity=".788" d="M745.244 824.393l-3.438-24.712-62.541-59.21 13.995 233.433z"/><path fill="#3e4849" fill-opacity=".859" d="M617.476 366.75l-1.44-116.014-57.677 24.023L673.48 376.93z"/><path fill="#1b2222" fill-opacity=".8" d="M535.702 102.475L409.648 235.404l31.99 74.068 89.305 22.485z"/><path fill="#0c0b0e" fill-opacity=".369" d="M202.038 802.836l11.233 149.887-41.39-226.171 147.774 6.758z"/><path fill="#ba968e" fill-opacity=".765" d="M258.805 770.376l4.803-21.846-37.71-191.764 48.232 190.312z"/><path fill="#05344d" fill-opacity=".271" d="M274.578 539.07l-48.611 23.789 25.506-68.62-1.098 11.41z"/><path fill="#c8f0a1" fill-opacity=".424" d="M388.758 467.856l-127.349-98.77 201.032 232.649-64.493-408.509z"/><path fill="#5f9b23" fill-opacity=".898" d="M61.861 847.186l38.285 35.768 105.223-71.41-63.047-14.88z"/><path fill="#d9ffc0" fill-opacity=".427" d="M161.616 711.858l-89.795 86.7-.332-185.105 45.353 107.67z"/><path fill="#e3e5ff" fill-opacity=".192" d="M564.52 732.264l-76.018-51.07 80.757 131.84-241.47-279.17z"/><path fill="#3f583d" fill-opacity=".529" d="M234.673 1066.064l-60.49-101.132 45.253 36.943-101.98 76.798z"/><path fill="#7ab800" fill-opacity=".431" d="M467.896 987.655l-147.506-16.61-154.227 12.817 274.598 10.86z"/><path fill="#c4f7ae" fill-opacity=".627" d="M537.547 430.949l34.292 110.796-222.52 43.037 167.731 26.327z"/><path fill="#55300d" fill-opacity=".655" d="M807.487 8.684l2.04 138.528-32.514 126.474-2.48-334.039z"/><path fill="#aca59a" fill-opacity=".639" d="M224.814 23.74L210.8 77.01l83.17-96.441 137.415 67.579z"/><path fill="#a17232" fill-opacity=".749" d="M782.041 524.287l-61.712 57.805 65.801 70.704-127.525-263.759z"/><path fill="#792c00" fill-opacity=".255" d="M349.993 665.101l42.259-5.947-16.327-46.675 139.755 25.437z"/><path fill="#71cb01" fill-opacity=".251" d="M371.037 659.887L544.57 829.925l8.733 53.92-98.656-90z"/><path fill="#a08c89" fill-opacity=".482" d="M231.569 104.926l183.833-30.384-120.37-36.497 111.31 207.747z"/><path fill="#6fb712" fill-opacity=".427" d="M199.631 812.521l149.32-30.565-51.539 139.553-79.638-2.974z"/><path fill="#8dad52" fill-opacity=".78" d="M181.517 803.987l23.925 117-.318 28.87-3.616-9.636z"/><path fill="#dfda37" fill-opacity=".243" d="M680.4 795.62l15.677 101.36-67.628-.833-69.393-126.982z"/><path fill="#567c58" fill-opacity=".4" d="M483.622 350.956l-48.562-56.072 89.234 71.284 54.137 57.885z"/><path fill="#2a3738" fill-opacity=".541" d="M-62 634.59L96.814 429.172 60.79 549.655l12.434 87.463z"/><path fill="#038a86" fill-opacity=".22" d="M276.01 613.014l25.86-53.827-66.954 59.659 9.822 28.078z"/><path fill="#8bc54a" fill-opacity=".796" d="M630.155 524.922l5.259-81.36-65.377 223.567 10.266-12.162z"/><path fill="#a9c4bb" fill-opacity=".737" d="M105.598 610.043l34.353 106.801 47.481-155.823-2.163 26.052z"/><path fill="#321d0b" fill-opacity=".471" d="M462.183 16.151l46.534 148.037 8.913 12.7L494.323 5.661z"/><path fill="#b8f19d" fill-opacity=".718" d="M144.978 580.336l-36.57 94.963-22.956 6.672L67.34 535.277z"/><path fill="#d5443e" fill-opacity=".796" d="M312.168 741.115l-98.698-73.687 138.495 30.893-.505 22.921z"/><path fill="#a2e775" fill-opacity=".922" d="M435.487 885.606L411.603 741.35l102.082 157.324L232.62 979.65z"/><path fill="#bbd4b2" fill-opacity=".624" d="M92.485 496.388L222.35 375.701l-75.754 112.736 26.44-116.485z"/><path fill="#96986f" fill-opacity=".741" d="M430.888 311.135l-9.04 74.38-189.472-88.28 165.37 91.53z"/><path fill="#dafec4" fill-opacity=".58" d="M532.425 437.984l-169.15 95.604 66.736-188.272 116.612 190.036z"/><path fill="#2f3435" fill-opacity=".42" d="M284.46 205.685l-26.653-29.9L-62 194.222l365.408-39.345z"/><path fill="#1b2323" fill-opacity=".714" d="M147.027 379.213l105.486-48.058-64.638-155.138-120.642 189.55z"/><path fill="#efffec" fill-opacity=".341" d="M741.582 924.368l-17.652-4.265 42.688 74.72 15.7-265.296z"/><path fill="#e2ffc4" fill-opacity=".42" d="M677.421 430.049l47.958 108.494-.037 110.492-99.315-76.872z"/><path fill="#e0eedc" fill-opacity=".541" d="M493.826 318.741l-84.837 76.673 62.368-76.054 132.268 112.418z"/><path fill="#0e3c0a" fill-opacity=".125" d="M41.727 641.153L186.614 433.75l76.205-131.775-56.72 122.079z"/><path fill="#7d936e" fill-opacity=".525" d="M386.402 712.342l-68.185 69.84-64.285 3.655 45.833-38.711z"/><path fill="#26142c" fill-opacity=".29" d="M325.794 36.742l-85.217-6.72 9.82 6.316 105.018 19.897z"/><path fill="#9f703f" fill-opacity=".69" d="M660.111 412.867l-20.92-42.322 71.02-.433 60.458 143.214z"/></svg>