<svg xmlns="http://www.w3.org/2000/svg" width="228" height="278" viewBox="0 0 836 1024"><path fill="#83636b" d="M0 0h836v1024H0z"/><path fill="#f5c3e4" fill-opacity=".557" d="M320.027 1086L176.795 360.906l300.035-63.794L620.392 1086z"/><path fill="#9d1e22" fill-opacity=".769" d="M427.897 1048.818L320.142 726.932l99.214 9.59L534.234 1086z"/><path fill="#ca020c" fill-opacity=".655" d="M741.155 559.747l-109.877 59.209-180.91-118.775 68.503-257.047z"/><path fill="#4f4b4a" fill-opacity=".722" d="M222.645 348.625L898 33.723-62-62l89.134 1148z"/><path fill="#9f5852" d="M346.07 517.147l-80.016 28.985 34.003-451.099 143.235 10.242z"/><path fill="#d5e4ff" fill-opacity=".62" d="M338.528 528.646l-154.935 22.718L516.96 805.138l-58.635-555.006z"/><path fill="#a52f33" fill-opacity=".933" d="M588.6 669.51l105.654 295.074L643.195 1086 519.31 705.966z"/><path fill="#3a3031" fill-opacity=".722" d="M231.065 638.537L-62 922.17l11.625 151.938L219.75 1086z"/><path fill="#464d52" fill-opacity=".745" d="M898-24.858l-614.128 42.5 390.364 361.83 165.923 537.73z"/><path fill="#f1e1f3" fill-opacity=".788" d="M670.695 835.725l15.5-.85L771.68 1086h-67.149z"/><path fill="#828cc0" d="M241.69 671.66l167.238-46.327 317.61-23.405-408.343 113.819z"/><path fill="#d9cae3" fill-opacity=".984" d="M387.63 1086l-78.946-403.107L211.139 1086l41.457-305.83z"/><path fill="#c52d3d" fill-opacity=".965" d="M268.694 847.001l-33.116-167.778 73.912 223.595L252.54 1086z"/><path fill="#e6e6fe" fill-opacity=".831" d="M202.934 585.326l56.365 6.566 19.942-270.2-60.499 45.715z"/><path fill="#ca0919" fill-opacity=".627" d="M122.595 417.223l74.64 195.657 3.675-111.29 16.62-152.706z"/><path fill="#460000" fill-opacity=".424" d="M595.893 449.804l47.762 276.611L465.366 444.42l-18.143 108.97z"/><path fill="#484044" fill-opacity=".737" d="M735.777 992.776L828.115 1086 898 743.91l-219.514 42.067z"/><path fill="#ff7e85" fill-opacity=".545" d="M791.698 740.893L639.29 415.228 310.08 243.185l346.076 109.247z"/><path fill="#d5cde9" fill-opacity=".847" d="M488.778 566.603l45.45-5.285 46.963 122.838-49.33 4.22z"/><path fill="#b17d67" fill-opacity=".835" d="M437.338 930.836l306.03-333.723 39.344 153.755-21.616 7.271z"/><path fill="#e1defe" fill-opacity=".875" d="M412.179 1084.06L290.357 1086 311 916.993l87.943 26.719z"/><path fill="#cf1828" fill-opacity=".8" d="M364.103 526.315l-5.655-144.988-73.951 29.998-15.955 112.08z"/><path fill="#dbdefd" fill-opacity=".671" d="M623.97 1086l-112.042-11.867-18.16-179.637 104.995 47.93z"/><path fill="#987264" fill-opacity=".863" d="M222.085 234.878l184.374 88.034L432.19 100.07 233.267 89.088z"/><path fill="#eee9f9" fill-opacity=".976" d="M351.626 640.086l120.21-244.35 10.371-83.858-109.744 70.601z"/><path fill="#9e7768" fill-opacity=".996" d="M213.764 565.31L-62 860.34v24.169L170.768 698.04z"/><path fill="#bcd7ff" fill-opacity=".467" d="M238.34 753.798l172.638-37.445-226.3-275.8 49.478 238.34z"/><path fill="#221e1a" fill-opacity=".855" d="M202.468 81.716l70.468-60.794 131.153 18.047-76.115 49.412z"/><path fill="#f7edfd" fill-opacity=".722" d="M606.426 635.025l133.82-44.307.04-14.648-25.18-1.892z"/><path fill="#4d5055" fill-opacity=".886" d="M414.636 235.282l92.283 81.656 296.051 15.759-1.406-299.617z"/><path fill="#ffc5ce" fill-opacity=".933" d="M602.86 367.116l38.825 47.039 12.618-56.284-47.863-18.624z"/><path fill="#714b45" fill-opacity=".992" d="M386.438 152.061l-90.574-2.353 75.337 238.222-124.299-106.59z"/><path fill="#010000" fill-opacity=".345" d="M520.653 873.013l143.818 54.163-41.544-45.332 77.077-90.537z"/><path fill="#a46669" fill-opacity=".988" d="M413.655 874.232l95.38 35.007-107.612-133.87-68.12 147.437z"/><path fill="#fa0513" fill-opacity=".361" d="M707.873 577.237L468.311 396.656l35.258-85.702 186.606 124.152z"/><path fill="#003cad" fill-opacity=".239" d="M260.378 570.646l-38.267 95.015 342.165-58.19-284.591 126.254z"/><path fill="#cc2232" fill-opacity=".855" d="M297.693 865.59l-34.734 5.301L228.289 1086l73.303-9.944z"/><path fill="#e9e7ff" fill-opacity=".471" d="M482.575 604.519L398.893 262.59l85.48 26.2-190.601 333.942z"/><path fill="#dbdaff" fill-opacity=".651" d="M379.995 669.706l138.642 43.485 28.559 68.53-77.31 33.401z"/><path fill="#a11924" fill-opacity=".882" d="M397.4 887.253L410.55 1086l96.75-116.478-70.28-52.742z"/><path fill="#7b0107" fill-opacity=".392" d="M619.02 450.507l37.028 135.286-173.945-50.832-55.238-64.706z"/><path fill="#ad101e" fill-opacity=".839" d="M411.628 714.864l-88.87 32.41 8.898 26.41 91.673 21.335z"/><path fill="#424a50" fill-opacity=".663" d="M91.77 572.908L274.417-62-62 13.119 56.142 135.443z"/><path fill="#e3e4ff" fill-opacity=".722" d="M323.643 830.407l-2.44-144.45 15.851 56.6-110.938-46.892z"/><path fill="#733333" fill-opacity=".427" d="M431.681 618.635l286.212 62.1L519.097 835.83l95.556-203.436z"/><path fill="#e40015" fill-opacity=".388" d="M624.777 1050.846l82.82-73.069-51.122-105.203-75.505 13.607z"/><path fill="#753a3b" fill-opacity=".992" d="M452.15 884.607l38.283-.71-127.848 56.812 3.934-22.04z"/><path fill="#020000" fill-opacity=".353" d="M251.596 193.833l-30.685-27.84 137.754-11.929 8.88 21.53z"/><path fill="#fff1ff" fill-opacity=".412" d="M765.275 1064.587L652.528 876.229l50.266 2.338-16.744-57.837z"/><path fill="#dadafe" fill-opacity=".694" d="M547.08 619.224l-9.89-67.452-210.235-20.956-135.756 67.878z"/><path fill="#e7b795" fill-opacity=".333" d="M402.168 416.232l16.893-245.111-222.63-66.305L380.854 90.57z"/><path fill="#d89f98" fill-opacity=".631" d="M501.66 877.214l102.853-55.28-22.759-.548-225.94-29.942z"/><path fill="#340309" fill-opacity=".357" d="M229.165 704.1l13.682-67.645 8.96 49.019-100.76-223.195z"/><path fill="#fee9ff" fill-opacity=".506" d="M250.522 901.684l2.04-210.31-24.493 315.886 21.483-40.948z"/><path fill="#961c26" fill-opacity=".478" d="M274.177 755.251l26.916 167.33-53.385-144.73-73.388-92.09z"/><path fill="#fd7079" fill-opacity=".416" d="M503.257 457.342l-9.572 39.337-49.632 9.602 53.036-217.55z"/><path fill="#cba198" fill-opacity=".369" d="M342.543 193.097l-116.413.73 96.236 204.694-87.796-127.937z"/><path fill="#ffceb8" fill-opacity=".29" d="M668.419 735.543l109.454 11.81L708.46 442.91l33.897 232.66z"/><path fill="#55c6f9" fill-opacity=".09" d="M84.62 488.287L39.66 41.22-7.025 659.197l222.331-52.48z"/><path fill="#b50411" fill-opacity=".592" d="M522.261 724.402l5.383-33.793 69.506-4.978-40.231 103.095z"/><path fill="#b3b2c3" fill-opacity=".757" d="M717.973 1023.31L561.797 1086l146.707-100.465 35.978 36.865z"/><path fill="#eb2734" fill-opacity=".741" d="M482.61 344.445l135.793-19.482-51.637 88.625-91.129-8.071z"/><path fill="#e5e1ff" fill-opacity=".58" d="M442.91 717.303l-3.983 127.158 83.334-203.224 67.562 30.232z"/><path fill="#4f3c3f" fill-opacity=".835" d="M243.642 815.874L221.93 967.71l-77.396-248.234 89.808-3.568z"/><path fill="#ddecff" fill-opacity=".388" d="M369.327 874.603l-60.856 43.816-21.316-145.813 85.371 55.128z"/><path fill="#000a19" fill-opacity=".282" d="M339.453 641.237l106.788-8.82 83.318 5.522-37.148-25.775z"/><path fill="#8f4647" fill-opacity=".6" d="M437 814.525l-57.708 112.786-2.084-133.227-50.525 75.36z"/><path fill="#dcdafb" fill-opacity=".796" d="M531.1 570.312l-347.252-43.205 80.893 45.586 7.993 96.69z"/><path fill="#2a1219" fill-opacity=".369" d="M601.278 586.596l45.246 88.323-118.196-134.56-.174-112.117z"/><path fill="#737980" fill-opacity=".376" d="M823.434 5.9l-17.875 499.393-40.733 116.372L898 616.59z"/><path fill="#e4c8d8" fill-opacity=".933" d="M423.93 431.11l-68.354-5.943 147.743 1.613-70.413 48.648z"/><path fill="#002a40" fill-opacity=".2" d="M755.56 784.065L570.765 911.82l-48.757 35.029-2.404-64.775z"/><path fill="#693c3c" fill-opacity=".557" d="M324.63 899.395l136.576-51.73-64.838 105.425 88.628-37.627z"/><path fill="#f1ecff" fill-opacity=".675" d="M573.988 905.601l39.866 86.35-39.148-12.552-65.321-14.718z"/><path fill="#5b5d63" fill-opacity=".729" d="M198.948 311.019L132.997-62l1.801 387.652-26.315 156.488z"/><path fill="#d5a481" fill-opacity=".537" d="M395.414 365.879l72.308-71.626-50.664-.325-44.278-185.622z"/><path fill="#da1c2c" fill-opacity=".706" d="M506.79 974.93l-98.206 46.103-32.959 14.97L502.76 1086z"/><path fill="#cf121d" fill-opacity=".424" d="M606.016 534.657l6.517 88.532 130.06-57.098-81.72-114.601z"/><path fill="#eca7a4" fill-opacity=".333" d="M260.534 216.782l63.853 5.605 3.056 56.854-34.233-131.013z"/><path fill="#c7728e" fill-opacity=".553" d="M177.827 464.067l8.408-8.664 106.13-.223-71.014 25.976z"/><path fill="#e9eefe" fill-opacity=".424" d="M633.466 638.45l-31.67-19.771 2.055 9.522 164.473-62.025z"/><path fill="#5d5d63" fill-opacity=".851" d="M602.174-62l-27.33 33.17 15.885 354.706 44.504 12.883z"/><path fill="#a6101a" fill-opacity=".557" d="M163.27 557.626l20.101 24.296 21.912-92.211-64.247-58.974z"/><path fill="#4d3d41" fill-opacity=".718" d="M765.523 895.607l11.196-168.554-9.23-80.924L898 670.959z"/><path fill="#422012" fill-opacity=".569" d="M179.391 745.386L-62 925.736 65.008 798.204 240.137 669.68z"/><path fill="#6b4038" fill-opacity=".561" d="M608.046 748.552L578.9 685.559l106.439-68.193 28.914 30.648z"/><path fill="#9b5a50" fill-opacity=".773" d="M446.726 198.294l-42.856 46.332 29.63-123.957 23.857 32.678z"/><path fill="#e6e2fb" fill-opacity=".882" d="M275.77 742.24l26.374-38.228L351.46 972.88l-45.138-76.407z"/><path fill="#d8e2fe" fill-opacity=".486" d="M227.379 944.25l39.997 24.3-36.53 23.891 3.85-73.923z"/><path fill="#fce6d2" fill-opacity=".114" d="M121.41 638.755l17.4-183.366 37.47 184.316L55.93 769.558z"/><path fill="#ebe7fc" fill-opacity=".592" d="M192.556 458.144l20.208-.458 62.188-25.484 10.124-66.562z"/><path fill="#d00f1e" fill-opacity=".592" d="M663.034 371.056l-7.785 13.72 1.525 37.73 24.435 15.212z"/><path fill="#ad7861" fill-opacity=".376" d="M466.364 827.842l214.455 14.86 50.277-264.15-109.572 173.09z"/><path fill="#ded8f7" fill-opacity=".784" d="M570.513 663.346L340.305 734.87l-110.191.052 314.121-70.117z"/><path fill="#f8f6fe" fill-opacity=".6" d="M406.072 515.913l68.04-240.944L368.11 415.86l107.529 107.955z"/><path fill="#7c627d" fill-opacity=".549" d="M591.744 742.024l25.85-95.78-106.646-120.86 118.63 216.521z"/><path fill="#1c0016" fill-opacity=".204" d="M642.924 988.15l-180.001-8.085 111.505 10.181 145.287 77.575z"/><path fill="#d1d5f2" d="M235.65 690.77l4.341 51.937 35.978-103.294 51.553-78.566z"/><path fill="#4f4851" fill-opacity=".698" d="M172.09 847.832l-195.343 56.394 244.79 117.507 8.932-88.992z"/><path fill="#fcf6fe" fill-opacity=".561" d="M711.073 882.755L739.653 1086l-14.329-125.919-35.155 59.531z"/><path fill="#595a60" fill-opacity=".996" d="M500.74-9.407l18.65 323.174-54.805-31.412 5.688-321.588z"/><path fill="#d61320" fill-opacity=".455" d="M179.711 364.336l-41.709 66.37 61.999 30.764 18.288-107.96z"/><path fill="#5e5a61" fill-opacity=".965" d="M752.818 314.668L672.78 372.82l-2.967 35.05 61.38 133.732z"/><path fill="#2e2e20" fill-opacity=".525" d="M106.874 40.717L-62 39.069v-58.134L98.101-42.43z"/><path fill="#ffdde3" fill-opacity=".871" d="M620.962 381.857l-28.276-22.634 55.777 2.022-.372 53.355z"/><path fill="#e0dffb" fill-opacity=".749" d="M342.623 571.02l14.004 123.038-20.832-43.604-130.641-154.756z"/><path fill="#d71525" fill-opacity=".345" d="M447.134 454.85l19.787-12.455 26.448 90.167-16.547 15.724z"/><path fill="#075cd4" fill-opacity=".196" d="M235.21 659.893l9.764-106.316 18.194 36.261 20.266 97.14z"/><path fill="#001c79" fill-opacity=".153" d="M577.813 755.99l-137.57-109.917-45.752-15.618-43.125 4.864z"/><path fill="#320000" fill-opacity=".478" d="M575.365 873.522l70.962 49.566-24.793-39.3 38.732-66.763z"/><path fill="#f02d3d" fill-opacity=".584" d="M630.4 869.183L675.985 985.7l27.907 3.226-38.834-111.613z"/><path fill="#deddf9" fill-opacity=".682" d="M298.615 696.508l53.812 127.329-70.813 25.03 23.67 24.503z"/><path fill="#8c593c" fill-opacity=".435" d="M230.72 665.44l-30.865-32.93L2.852 836.055 135.515 757.1z"/><path fill="#9a786d" fill-opacity=".627" d="M287.495 369.898L219.163 192.06l5.201-52.743 90.62 229.63z"/><path fill="#c4c9f2" fill-opacity=".824" d="M398.312 717.208l15.07-46.691-46.055 40.938-.649-67.575z"/><path fill="#b10c1a" fill-opacity=".486" d="M482.831 893.084l11.45 108.054-4.784-23.276-109.69 74.787z"/><path fill="#c5131e" fill-opacity=".753" d="M516.921 712.25l-1.664-17.97 71.416 5.273 7.131 62.996z"/><path fill="#fff6ff" fill-opacity=".373" d="M238.659 467.978l-40.08 30.662 22.172 115.837 30.118 10.308z"/><path fill="#ebe4ff" fill-opacity=".455" d="M308.626 890.537L292.672 1086l101.552-161.087 17.052 68.167z"/><path fill="#210209" fill-opacity=".404" d="M246.194 264.632l96.377-7.25 6.957 23.883-10.66-5.74z"/></svg>