<svg xmlns="http://www.w3.org/2000/svg" width="228" height="278" viewBox="0 0 836 1024"><path fill="#83636b" d="M0 0h836v1024H0z"/><g fill-opacity=".502"><path fill="#ffeaff" d="M226 710l228-484 160 828z"/><path fill="#f6d4fe" d="M234 318l196 768-204-108z"/><path fill="#283f3c" d="M866 454L-62 10l892-72z"/><path fill="#e50000" d="M770 598L522 242l-80 280z"/><path fill="#413735" d="M314 970L46-62-62 1086z"/><path fill="#980000" d="M530 1086L418 706l-108 40z"/><path fill="#fff" d="M282 278L182 502l72 184zm-16 372l184-44 16-332z"/><path fill="#a70e04" d="M522 698l152-36-24 424z"/><path fill="#fff" d="M674 790l8 296h88z"/><path fill="#cc0001" d="M262 534l44-312 68 292z"/><path fill="#86b0fc" d="M586 678l-380 36 320-176z"/><path fill="#282d2e" d="M690 834l208-300-88 552z"/><path fill="#d19071" d="M422 82L210 98l216 276z"/><path fill="#c09472" d="M466 918l264-368 56 188z"/><path fill="red" d="M314 1086l-32-288-48 236z"/><path fill="#394f52" d="M330 294L10 450-18-62z"/><path fill="#f9ffff" d="M402 1002l-88 84-16-332z"/><path fill="#e10000" d="M194 602l16-260-80 84z"/><path fill="#690000" d="M622 634L442 474l216-20z"/><path fill="#f8ffff" d="M526 1086l-32-192 120 76z"/><path fill="#d6a07e" d="M218 650L-30 846l200-272z"/><path fill="#ffdffb" d="M246 734l-20 276 52-144z"/><path fill="#fff" d="M646 342l8 76-72-76z"/><path fill="#9a1117" d="M482 854l20 220-168-188z"/><path fill="#476ebb" d="M234 634l36 88 292-104z"/><path fill="#edf5ff" d="M370 406l-12 192 208 20z"/><path fill="#ed0003" d="M594 1086l60-240 44 128z"/><path fill="#fffbff" d="M458 798l-60-100 168-52z"/><path fill="#f8f5ff" d="M310 334L210 554l4-192z"/><path fill="#fff" d="M606 630l132-32-4-40z"/><path fill="#46221b" d="M194 662l84 112-340 140z"/><path fill="#d8e2ff" d="M282 662l264-112-356-24z"/><path fill="#fd091a" d="M726 566l-108 48 40-252z"/><path fill="#404b53" d="M846 902L798-62 562 38z"/><path fill="#0b0600" d="M426 66L162 94 294 6z"/><path fill="#161219" d="M730 790L594 890l-76-20z"/><path fill="#fff" d="M354 546l56-272 84 48z"/><path fill="#030000" d="M226 178h128v-36z"/><path fill="#d5eeff" d="M226 706l120 104-68-196z"/></g></svg>