<svg xmlns="http://www.w3.org/2000/svg" width="228" height="278" viewBox="0 0 836 1024"><path fill="#515d6a" d="M0 0h836v1024H0z"/><path fill="#a1bbde" fill-opacity=".573" d="M643.89 1086L431.247 116.884-23.128 644.37 228.3 1086z"/><path fill-opacity=".808" d="M84.337 508.589L414.077-37.84-62-62l81.227 800.436z"/><path fill="#0b1118" fill-opacity=".969" d="M542.128 220.188L522.11-62H898l-14.345 758.317z"/><path fill="#beddfd" fill-opacity=".522" d="M454.287 276.894l194.242 71.544 107.237 230.777 56.87 334.052z"/><path fill="#f8fefe" fill-opacity=".639" d="M177.814 326.936L13.372 729.404 285.165 1086 142.559 723.39z"/><path fill="#002c5e" fill-opacity=".451" d="M398.223 668.602l-133.28-286.549-131.712 349.25 250.164 252.76z"/><path fill="#00050a" fill-opacity=".62" d="M720.584 821.946L576.117 390.728l14.724 488.228L707.384 1086z"/><path fill="#e2f1ff" fill-opacity=".71" d="M340.165 1035.784l300.877-13.778-70.743-178.323-61.838 62.376z"/><path fill="#a38564" fill-opacity=".945" d="M474.653 377.331l-109.64-6.604-52.934-220.179 235.489-90.455z"/><path fill="#0b0b10" fill-opacity=".882" d="M315.287 201.227l28.62 64.173-356.1 140.51L336.889 63.373z"/><path fill="#111416" fill-opacity=".788" d="M827.844 351.276L793.123 1086 898 746.416 776.82 686.19z"/><path fill="#02080e" fill-opacity=".851" d="M504.681 303.254l.773-38.538L758.602-62l-107.61 410.842z"/><path fill="#002f7c" fill-opacity=".608" d="M436.85 730.494l-22.599 231.061 2.292-606.744 43.75 293.946z"/><path fill="#b1c2cf" fill-opacity=".988" d="M751.891 565.084l54.32 269.507-61.042 18.266-99.207-468.247z"/><path fill="#b7c8d8" fill-opacity=".988" d="M46.744 571.749l77.841-39.596 152.605-231.16L134.816 447.07z"/><path fill="#6484b6" fill-opacity=".784" d="M638.308 365.92l-154.706-25.807-56.455 240.44 235.377-70.608z"/><path fill="#dae3e9" fill-opacity=".729" d="M285.655 984.743L131.812 741.986l124.945-357.982L44.572 755.36z"/><path fill="#3f3222" fill-opacity=".988" d="M306.144 18.5l239.933 29.743-16.274-30.26L399.428 133.15z"/><path fill="#c4a993" fill-opacity=".996" d="M358.715 1034.5L247.739 918.323l-44.682 24.41L166.725 1086z"/><path fill="#eafff9" fill-opacity=".471" d="M368.355 1080.129l-6.84-47.364.72-364.466-33.26 237.94z"/><path fill="#a6724b" fill-opacity=".749" d="M805.41 832.657l-96.25 43.525 20.228 127.427 57.64 82.391z"/><path fill="#ffdaa2" fill-opacity=".365" d="M318.031 37.233l209.117-9.469-154.351-80.362-.941 436.128z"/><path fill="#072142" fill-opacity=".647" d="M302.29 476.09l-34.425 376.191 86.61-314.37-140.653 212.992z"/><path fill="#153c7b" fill-opacity=".663" d="M239.96 376.36l130.776-46.94 14.544 421.144 5.686-355.773z"/><path fill="#1e3947" fill-opacity=".757" d="M31.247 758.571l85.434 126.095L-62 841.586 67.726 490.395z"/><path fill="#a9c6ff" fill-opacity=".424" d="M153.656 398.539l136.085-39.902 189.764-170.942L186.01 338.016z"/><path fill="#002335" fill-opacity=".412" d="M641.809 398.881l-108.486 235.29 3.287 80.52 125.483-196.046z"/><path fill="#003fb4" fill-opacity=".686" d="M151.09 510.154l-45.836 71.064L258.557 343.44 163.87 547.544z"/><path fill="#cde5ef" fill-opacity=".455" d="M229.961 1086l-21.48-251.593 54.057-337.154-108.665 427.084z"/><path fill="#e1f8dd" fill-opacity=".322" d="M206.493 971.353l128.27-454.4-31.85-231.237 11.606 175.018z"/><path fill="#e5edee" fill-opacity=".557" d="M505.38 511.763l-13.19-272.255-13.003 142.163 7.024 221.457z"/><path fill="#321100" fill-opacity=".282" d="M480.61 133.823L425.768 478.22l-18.214-170.25 27.585-128.658z"/><path fill="#001c4b" fill-opacity=".557" d="M297.003 686.647l-92.156 197.958 38.309-237.518 31.189 333.827z"/><path fill="#010c10" fill-opacity=".51" d="M712.281 720.102l-156.814 33.332L676.006 1086l55.974-241.454z"/><path fill="#022c6d" fill-opacity=".702" d="M316.907 975.242l23.206 17.923-14.19-303.912-14.442 236.543z"/><path fill="#171e28" fill-opacity=".741" d="M898 439.4L721.47 43.886l62.967 702.283L898 1086z"/><path fill="#003a93" fill-opacity=".498" d="M456.892 964.556l-7.036-172.932 28.689-463.167-11.314 593.995z"/><path fill="#82d3ff" fill-opacity=".176" d="M424.342 765.335l8.85 202.433 119.297-96.455 125.073-297.96z"/><path fill="#083ea6" fill-opacity=".992" d="M147.1 707.819l41.76-101.915 3.47 191.776-8.92 6.566z"/><path fill="#e5ffdd" fill-opacity=".239" d="M227.84 957.874l20.192-240.14 58.188 281.732 19.097-342.179z"/><path fill="#e1f5fc" fill-opacity=".467" d="M541.088 384.995L412.32 401.576 403.07 609.7l-18.526-233.289z"/><path fill="#ebba99" fill-opacity=".588" d="M321.052 229.17l-2.206-46.743 203.798 18.008 20.421 18.893z"/><path fill="#c7d9eb" fill-opacity=".486" d="M551.38 325.64l-61.233-39.344 92.057 102.932-22.33 216.606z"/><path fill="#003793" fill-opacity=".745" d="M428.1 984.86l-16.443-28.72 1.335-181.166 22.58 142.184z"/><path fill="#fbffe2" fill-opacity=".318" d="M369.763 505.052l7.828 223.68-16.477 37.072-19.627-719.15z"/><path fill="#d9e4ed" fill-opacity=".945" d="M250.158 920.825L102.933 657.37l-66.89 90.129L123.7 881.34z"/><path fill="#143679" fill-opacity=".984" d="M338.965 371.057l6.314 114.219-30.45-119.506 20.843-29.927z"/><path fill="#a5b6c8" fill-opacity=".769" d="M523.306 515.072l7.085 265.311 11.749-313.346-24.734-162.39z"/><path fill="#dee7e7" fill-opacity=".506" d="M440.63 553.728l18.348 12.02.167-246.162-25.213 143.538z"/><path fill="#002c7b" fill-opacity=".612" d="M604.844 436.484l-27.662-89.423-4.946 250.673 25.175-180.174z"/><path fill="#0137a1" fill-opacity=".459" d="M491.456 378.09l85.77-14.745-70.248-33.52 21.444 313.442z"/><path fill="#14469b" fill-opacity=".549" d="M485.353 782.754l22.062-269.172-6.078 194.249-1.996 231.882z"/><path fill="#012152" fill-opacity=".541" d="M270.72 478.876l-88.829 310.621 66.795-358.26-59.141 121.08z"/><path fill="#e9f0fd" fill-opacity=".592" d="M653.529 1019.212L515.745 859.857l-42.892-26.04L650.39 1086z"/><path fill="#06080b" fill-opacity=".733" d="M474.779-62L309.592 79.644 165.174 371.466-62 14.426z"/><path fill="#4780c4" fill-opacity=".525" d="M553.117 947.45l-52.184-11.182 21.629 63.69L567 1016.87z"/><path fill="#c1dbe8" fill-opacity=".435" d="M377.95 828.346l32.711-133.678 13.815-61.825-27.21 407.229z"/><path fill="#001c5d" fill-opacity=".51" d="M429.907 572.112l37.614-20.795L361.197 827.1l22.071-118.692z"/><path fill="#5a7d8a" fill-opacity=".992" d="M682.193 611.241l-68.547-83.248 23.708-29.135 71.256 95.08z"/><path fill="#121518" fill-opacity=".812" d="M743.424 1069.216l9.12-152.144 8.612 87.176-139.384-16.87z"/><path fill="#bccfdf" fill-opacity=".816" d="M635.96 574.423l3.684-12.425 55.305 81.992 76.177 220.982z"/><path fill="#004bb4" fill-opacity=".686" d="M318.865 289.674l-13.498 9.416-169.701 59.865 195.103-96.479z"/><path fill="#08080b" fill-opacity=".792" d="M516.623 310.353l43.447-194.898L463.022-62l391.629 86.189z"/><path fill="#0a0602" fill-opacity=".337" d="M577.767 162.439l-441.51-12.319L216.56-.586 380.492 196.98z"/><path fill="#dde8f0" fill-opacity=".612" d="M450.382 1086l-1.034-297.763-12.615-81.064-9.678 98.919z"/><path fill="#012251" fill-opacity=".522" d="M345.1 761.678l38.186-178.003-60.182 171.93-25.071 173.919z"/><path fill="#162331" fill-opacity=".698" d="M792.089 68.399L681.272 411.876l33.35 107.012 92.203-136.87z"/><path fill="#00225d" fill-opacity=".702" d="M309.707 508.248l2.853 36.793-12.74-159.9-37.002 291.512z"/><path fill="#03388f" fill-opacity=".788" d="M459.274 401.913l.495 87.42 19.877 90.517-4.093-188.058z"/><path fill="#f3fff8" fill-opacity=".435" d="M596.274 373.51l32.149 31.466-40.318 91.365 19.32 18.514z"/><path fill="#e6f5fb" fill-opacity=".396" d="M280.426 560.408l10.422-157.945-27.37 123.564 3.697-11.623z"/><path fill="#001f56" fill-opacity=".78" d="M255.088 876.984l30.232 81.275-2.31-225.205 51.081-202.77z"/><path fill="#f0f7ff" fill-opacity=".416" d="M475.132 700.998l-29.115-28.86 48.05 24.474-23.065 323.736z"/><path fill="#dbe6f3" fill-opacity=".773" d="M449.402 999.922l51.208-81.586 87.874-79.2 15.535 13.098z"/><path fill="#e1ebf4" fill-opacity=".925" d="M106.036 688.797l86.292-282.912L45.238 668.69l-.522 87.659z"/><path fill="#0041b7" fill-opacity=".369" d="M97.214 482.867l23.556 67.136 68.898-31.626-27.49 45.571z"/><path fill="#052150" fill-opacity=".925" d="M214.85 838.828l91.97-328.258-67.97 161.413-7.362 214.384z"/><path fill="#fda969" fill-opacity=".361" d="M522.403 245.785l30.113-76.694-190.746-18.883 120.933-72.133z"/><path fill="#fed9ce" fill-opacity=".361" d="M736.053 764.129l21.035 82.777-45.03 58.08 19.743 133.223z"/><path fill="#b8cddd" fill-opacity=".573" d="M193.237 490.305l4.6 185.01 28.32-121.54-102.475 143.973z"/><path fill="#d5e2f8" fill-opacity=".616" d="M533.13 383.315l-1.632 27.657-15.217 9.715-11.59-87.77z"/><path fill="#e3f0ff" fill-opacity=".333" d="M759.156 574.47l24.847 133.726-139.809-296.17-44.575-98.335z"/><path fill="#dbbe8e" fill-opacity=".616" d="M510.832 37.031l-45.975-97.758-80.7 85.024 50.074 3.394z"/><path fill="#090b0c" fill-opacity=".616" d="M556.895 91.127L505.9 173.274l5.14-77.014 85.809 231.213z"/><path fill="#2e5973" fill-opacity=".992" d="M37.678 780.513L-62 764.758l33.445-214.596L32.49 660.92z"/><path fill="#002e7e" fill-opacity=".729" d="M378.36 807.243l-10.682-27.26-5.272 156.708 29.166 56.295z"/><path fill="#d8bda3" fill-opacity=".765" d="M413.19 172.08l26.238 15.193-94.219 134.768-20.158-41.359z"/><path fill="#e0eeff" fill-opacity=".325" d="M320.408 317.582l37.676 142.771-18.26 151.967 42.354-146.305z"/><path fill="#012c7d" fill-opacity=".416" d="M549.913 367.424l9.003 72.802-59.04 50.356 9.973 76.701z"/><path fill="#063382" fill-opacity=".651" d="M656.432 491.003l-37.306-119.94 2.507 61.955 37.687-.606z"/><path fill="#043785" fill-opacity=".541" d="M393.107 530.234l-.535-66.605-19.921-147.123 3.411 350.29z"/><path fill="#c1d2db" fill-opacity=".729" d="M430.349 1086l-39.32-333.185 1.318 235.42-73.072 11.156z"/><path fill="#dae5f2" fill-opacity=".965" d="M527.16 812.881l47.033 152.987 50.472-35.52-37.122-15.133z"/><path fill="#0c161b" fill-opacity=".855" d="M605.584 949.417l61.543-47.791L780.277 1086h-71.073z"/><path fill="#08337e" fill-opacity=".765" d="M430.379 450.323l17.791 201.362-44.49 159.575 19.89 124.844z"/><path fill="#a0702a" fill-opacity=".651" d="M536.618 455.668l5.945-6.336 19.21 42.249-36.04-.955z"/><path fill="#bdd0e9" fill-opacity=".745" d="M203.274 472.418l61.114-114.303-17.456 4.544 19.91 55.551z"/><path fill="#89a6af" fill-opacity=".816" d="M295.232 772.804l10.5-72.895 29.155-14.062-50.46 263.224z"/><path fill="#1e5981" fill-opacity=".498" d="M534.42 616.221l85.643 54.705-71.685 115.923-9.711-22.08z"/><path fill="#001e5c" fill-opacity=".612" d="M352.812 450.312l-34.774-93.717 31.4 187.943-94.883 308.247z"/><path fill="#090a01" fill-opacity=".306" d="M589.381 633.187l-240.364 23.456 193.477-38.624 88.078-140.58z"/><path fill="#b8c9e1" fill-opacity=".988" d="M570.155 357.144l47.276-1.513-117.845-58.523-5.242 26.58z"/><path fill="#002e91" fill-opacity=".49" d="M283.072 363.244l97.25-47.588L192.54 440.119l25.604-48.14z"/><path fill="#d6e4f7" fill-opacity=".667" d="M506.98 660.698l10.549-38.9-12.498 197.864 19.894 20.72z"/><path fill="#4c6977" fill-opacity=".933" d="M46.928 937.337l149.242 121.096-44.458-144.35-55.655-63.891z"/><path fill="#251807" fill-opacity=".518" d="M463.999 22.453l-133.44 40.288 38.716 19.546 136.677-2.528z"/><path fill="#cee4ff" fill-opacity=".569" d="M73.583 568.242l116.34-231.232 78.668-14.748-74.542 33.611z"/><path fill="#9d643d" fill-opacity=".298" d="M809.758 687.435l-86.523-180.17.945-43.565 55.851 40.248z"/><path fill="#effff1" fill-opacity=".239" d="M395.495 565.589l1.895-195.51 20.865 123.04 4.265 278.4z"/><path fill="#eaf3ff" fill-opacity=".341" d="M307.03 333.56l25.757 134.22-12.442 114.251-11.656-1.872z"/><path fill="#101a25" fill-opacity=".871" d="M45.665 648.718l-23.342 59.113 50.59-128.792L-62 429.413z"/><path fill="#b28664" fill-opacity=".565" d="M321.547 998.254l-147.67-33.104 77.62-44.363 13.024 2.93z"/><path fill="#014ed5" fill-opacity=".533" d="M208.514 375.962l-6.325-.557-38.137 46.2 59.626-113.309z"/><path fill="#1461d5" fill-opacity=".463" d="M75.643 515.766l44.684-33.784 48.264-113.497-95.85 162.166z"/><path fill="#0038ac" fill-opacity=".525" d="M491.539 804.562l1.651 20.29 42.736 56.561 8.85-14.271z"/><path fill="#f2ffff" fill-opacity=".251" d="M602.926 436.468L746.53 606.553 637.98 439.99l-52.112 42.551z"/><path fill="#04283e" fill-opacity=".741" d="M590.652 304.715L681.8 396.48l31.532-50.755-76.937-59.325z"/><path fill="#e1ebf4" fill-opacity=".847" d="M54.486 653.427l146.46-82.035-142.515-5.14 71.807-105.833z"/><path fill="#426288" fill-opacity=".996" d="M426.566 672.376l81.363 16.602-51.674-100.972-27 123.773z"/><path fill="#083ca2" fill-opacity=".902" d="M541.05 424.358l-10.953-65.468 19.092-7.224-1.626 77.501z"/></svg>