<svg xmlns="http://www.w3.org/2000/svg" width="228" height="278" viewBox="0 0 836 1024"><path fill="#92878f" d="M0 0h836v1024H0z"/><path fill="#cdd0dc" fill-opacity=".953" d="M676.805 1061.579l-442.022-2.17 44.157-373.904 300.284 27.875z"/><path fill="#c9e7ff" fill-opacity=".682" d="M-62 573.78l317.101-246.404 317.71-15.593 141.98 214.26z"/><path fill="#000006" fill-opacity=".565" d="M898 1019.952l-72.225-311.628-190.082 130.515L669.56 1086z"/><path fill="#3e3e3e" fill-opacity=".843" d="M20.354-51.472l864.163 8.92L898 89.169l-960-1.985z"/><path fill="#00c2fc" fill-opacity=".769" d="M4.696 433.543L129.5 507.18 43.128 926.952l-91.252 54.781z"/><path fill="#730005" fill-opacity=".573" d="M345.601 248.686l-364.49 16.836 157.511 251.272 19.976-122.129z"/><path fill="#83010a" fill-opacity=".6" d="M648.035 441.962L604.248 259.19l291.49-12.574-24.164 174.486z"/><path fill="#390001" fill-opacity=".376" d="M262.383 743.701L644.237 621.8l-509.668-60.743L211.686 1086z"/><path fill="#f67b7a" fill-opacity=".533" d="M546.559 713.068l90.885-193.854L898 318.164v445.412z"/><path fill="#8a6d5f" fill-opacity=".816" d="M325.856 376.332l79.16-18.134L520.629 70.226l-322.944 1.96z"/><path fill="#fffdff" fill-opacity=".518" d="M636.015 367.424l20.207 112.214-258.174-39.18 14.468-198.95z"/><path fill="#13000f" fill-opacity=".263" d="M480.183 455.867L384.67 730.519l265.44-123.963-104.05-134.092z"/><path fill="#c1bbc5" fill-opacity=".992" d="M644.83 985.805L262.74 804.272l314.903-167.065 62.394 162.834z"/><path fill="#a96964" fill-opacity=".831" d="M78.528 670.025L69.059 832.36l213.667-132.936L233.557 519.3z"/><path fill="#d5d4cc" fill-opacity=".706" d="M169.382 713.9l15.933 269.655-172.143-45.058L171.52 816.903z"/><path fill="#a1a2a8" fill-opacity=".91" d="M608.379-62L500.682 245.115 898 212.673 616.993 94.691z"/><path fill="#342f2a" fill-opacity=".722" d="M389.117 55.814L420.9 232.005l61.175-14.621-30.647-122.112z"/><path fill="#153942" fill-opacity=".647" d="M261.188 888.738L70.07 1086l-1.458-124.664L220.34 1086z"/><path fill="#730e16" fill-opacity=".71" d="M588.293 535.383l-173.598 58.736 80.79 17.824 184.714-106.406z"/><path fill="#d5ddf5" fill-opacity=".569" d="M278.346 579.935l-126.87-174.932 127.841-102.837L522.89 551.94z"/><path fill="#e3f0fc" fill-opacity=".804" d="M283.307 844.048l29.249-176.788-68.566 355.392L787.844 1086z"/><path fill="#c19a8a" fill-opacity=".788" d="M451.816 291.851l-41.488 55.728L270.893 91.334l109.97 18.527z"/><path fill="#b2b2c1" fill-opacity=".729" d="M620.416 568.97l-144.427 68.785-60.663 5.991 26.238-21.214z"/><path fill="#dab3a4" fill-opacity=".867" d="M675.575 432.62l-5.767 218.213-111.76 302.79 182.245-285.218z"/><path fill="#3f3940" fill-opacity=".863" d="M262.134 927.356l-17.905-174.63-67.733-19.444L199.504 998.4z"/><path fill="#c10514" fill-opacity=".243" d="M655.41 818.721l215.723 5.531L898 347.703 740.51 651.227z"/><path fill="#a0b7ca" fill-opacity=".573" d="M101.048 427.283l342.868 56.264-336.132 67.286L44.14 442.461z"/><path fill="#b6c1d4" fill-opacity=".761" d="M258.657 864.098L265.8 661.44l26.262 20.357 333.721 74.245z"/><path fill="#10131a" fill-opacity=".596" d="M662.904-62L619.387 69.049 898 75.3V-30.546z"/><path fill="#59080e" fill-opacity=".314" d="M752.108 283.467l-301.594-31.512 150.112 100.062 73.53 78.998z"/><path fill="#8d8073" fill-opacity=".847" d="M491.06 80.762L263.81 29.725l97.3-49.227.274 25.738z"/><path fill="#02151a" fill-opacity=".643" d="M392.663 676.899l-55.148 19.499-69.453-34.489-4.74-38.354z"/><path fill="#2b2c2a" fill-opacity=".686" d="M220.517-62l46.434 279.33-38.717-36.023.012-54.607z"/><path fill="#0b1b1e" fill-opacity=".725" d="M581.756 638.701l-123.996 49.58-56.942-8.522 193.771-92.222z"/><path fill="#002f0f" fill-opacity=".235" d="M245.103 538.924L141.871 731.626l-5.47-95.657 57.48-152.962z"/><path fill="#e1feed" fill-opacity=".208" d="M288.568 237.704L157.377 110.7 3.014 117.268-36.738 221.67z"/><path fill="#d06773" fill-opacity=".992" d="M268.014 648.595l-33.108-68.446-73.821 135.509 113.032 10.555z"/><path fill="#0072ae" fill-opacity=".757" d="M31.973 608.104L-62 603.709l141.68-49.38 5.093 127.909z"/><path fill="#f0faff" fill-opacity=".239" d="M618.378 403.185L599.569 27.311 552.613 447.4l269.025 16.867z"/><path fill="#6a161c" fill-opacity=".525" d="M108.522 432.598l59.076-112.057-78.151-82.55-90.278 8.408z"/><path fill="#9996b6" fill-opacity=".408" d="M192.742 599.512l141.75 21.11 18.43-132.359 61.686 191.86z"/><path fill="#e2e9f8" fill-opacity=".929" d="M157.379 398.148L297.434 296.2l40.969 193.7-54.562-91.992z"/><path fill="#e2ecfa" fill-opacity=".518" d="M613.926 620.72l-21.885-48.622 6.4 214.356-104.662-57.13z"/><path fill="#06d0ff" fill-opacity=".612" d="M-15.942 631.837l69.265 53.017 13.655 181.63L-62 1062.688z"/><path fill="#6a5659" fill-opacity=".988" d="M664.442 796.97l70.834 84.145 16.553-139.266-20.538-3.345z"/><path fill="#3adbff" fill-opacity=".612" d="M26.493 421.172l110.611 118.64-13.648 57.268-15.446 29.59z"/><path fill="#030300" fill-opacity=".314" d="M192.59-62l-2.137 124.837L462.929-62 588.585 91.39z"/><path fill="#bd3601" fill-opacity=".141" d="M568.957 987.974l59.131-33.387 65.194-351.75-63.77-26.461z"/><path fill="#aa3e54" fill-opacity=".424" d="M671.957 466.263l40.77 93.39L898 591.733v-90.805z"/><path fill="#e4edfb" fill-opacity=".98" d="M391.794 460l42.498 18.956L599.365 348.81 459.51 271.86z"/><path fill="#536a95" fill-opacity=".239" d="M485.023 454.754l96.777-47.59-7.224 86.551-311.167 8.265z"/><path fill="#af8572" fill-opacity=".506" d="M15.333 1086l189.46-392.53L72.48 683.305l-6.104 148.792z"/><path fill="#d8fffe" fill-opacity=".341" d="M170.893 863.138l-29.032-54.946-51.166 159.907 89.918 29.34z"/><path fill="#92828e" fill-opacity=".612" d="M457.707 804.347l159.611 13.842-340.657 5.4 167.96 18.523z"/><path fill="#b5796f" fill-opacity=".675" d="M-55.036 272.443l49.02 186.048 91.68-30.147-55.478-112.062z"/><path fill="#6b4937" fill-opacity=".439" d="M401.437 271.68l-17.803 99.38-67.653-11.337-19.088-87.748z"/><path fill="#d1e0f1" fill-opacity=".765" d="M504.31 1086l69.279-163.189-125.69-69.441-66.045 61.102z"/><path fill="#d1aa9a" fill-opacity=".541" d="M410.684 243.397l22.34-69.982-39.399-21.77-118.653 26.419z"/><path fill="#d6e1fa" fill-opacity=".843" d="M594.327 411.265l-325.18 79.311-71.772-18.875 201.217-113.315z"/><path fill="#af4c58" fill-opacity=".827" d="M794.208 320.732L898 440.428l-145.034-14.253-14.313-110.996z"/><path fill="#6f3323" fill-opacity=".318" d="M225.241 549.589l172.143 102.917-269.921-109.73-9.77 259.176z"/><path fill="#fffdea" fill-opacity=".294" d="M681.937 497.981l-55.209 48.14 146.43 159.543-84.653-180.367z"/><path fill="#01a1e0" fill-opacity=".722" d="M52.128 1012.37l26.756 42.815 8.707 13.187L75.28 978.63z"/><path fill="#922831" fill-opacity=".439" d="M141.727 520.466l-18.472-219.065 161.964-93.31-170.597 274.975z"/><path fill="#6f040f" fill-opacity=".337" d="M182.155 601.514l345.132-14.389 91.738-25.552-250.23 16.682z"/><path fill="#a3a3a5" fill-opacity=".553" d="M484.416 100.262l217.228 184.504L898 78.126l-420.995 184.96z"/><path fill="#181406" fill-opacity=".278" d="M542.042 447.025l36.228 128.449 116.533-86.885-159.741 97.497z"/><path fill="#2b2525" fill-opacity=".302" d="M260.564 400.202l14.787 35.432-51.548-39.13-3.64 43.62z"/><path fill="#a9e7fe" fill-opacity=".427" d="M52.245 501.207l166.728 70.823 1.251-22.576L64.71 464.102z"/><path fill="#00252e" fill-opacity=".212" d="M758.282 724.169l-104.857 350.133L898 1086V770.446z"/><path fill="#e26776" fill-opacity=".714" d="M754.598 719.222L735.335 595.37l34.174-96.741 121.257 236.01z"/><path fill="#d6aea8" fill-opacity=".976" d="M519.246 829.286l99.623-38.828 43.618 7.507-83.165 142.161z"/><path fill="#a4afc0" fill-opacity=".863" d="M491.165 688.472l-164.358 11.275-1.467 39.467 206.365 30.976z"/><path fill="#fff6f9" fill-opacity=".404" d="M655.32 435.618l11.186 65.906-79.143 39.64-31.671-8.942z"/><path fill="#65252c" fill-opacity=".659" d="M253.598 732.074l-66.313-7.526 66.612 120.509 7.906-47.004z"/><path fill="#adb3c5" fill-opacity=".671" d="M305.433 578.686l217.378-78.583 5.566 51.357-67.1 21.467z"/><path fill="#d6e9fe" fill-opacity=".471" d="M281.965 634.602l-24.52-20.335 91.907 19.163-5.955 11.138z"/><path fill="#c4abb6" fill-opacity=".749" d="M690.098 461.083l-57.851-18.91L898 432.64l-20.961 53.997z"/><path fill="#77383d" fill-opacity=".424" d="M577.64 257.12l-7.075 79.192-46.932-41.803-125.979-45.393z"/><path fill="#300003" fill-opacity=".169" d="M729.37 278.648l-104.242-57.347-9.477 22.21 90.401 314.573z"/><path fill="#b7bdd4" fill-opacity=".494" d="M408.967 620.694l79.06 16.754 51.441-26.897-265.85 16.473z"/><path fill="#a4a6a8" fill-opacity=".42" d="M229.61 116.04l30.03-60.161L60.893 206.133 151.9 288.72z"/><path fill="#edf3fa" fill-opacity=".827" d="M645.544 1086L229.17 946.365 490.448 1086l157.887-139.522z"/><path fill="#8b5b4e" fill-opacity=".98" d="M665.773 592l-.428 37.334-12.294 22.626-34-39.371z"/><path fill="#6f3f50" fill-opacity=".58" d="M491.79 869.568l1.521 8.776-1.227-80.794-14.884 22.394z"/><path fill="#47001a" fill-opacity=".18" d="M340.247 862.621l81.321-4.458 8.487 62.368-95.723-114.308z"/><path fill="#221000" fill-opacity=".208" d="M199.502 137.98l71.347 66.747-52.474-10.682 177.167-64.111z"/><path fill="#1a2226" fill-opacity=".937" d="M400.264 652.622l12.223-36.996 11.507 77.259L566.086 622.7z"/><path fill="#03cdff" fill-opacity=".443" d="M106.83 601.253L-19.714 501.155l53.475-63.276 101.122 133.614z"/><path fill="#000605" fill-opacity=".259" d="M482.954 157.839L368.126 48.349l108.216 197.275-66.978-32.16z"/><path fill="#d3e0f0" fill-opacity=".6" d="M251.242 848.162l63.317-130.026-68.378 28.814 132.191 54.495z"/><path fill="#917163" fill-opacity=".812" d="M132.863 531.009l112.432 92.183-63.677-53.03-47.24 57.194z"/><path fill="#3c4649" fill-opacity=".89" d="M180.763 880.233l84.112 198.114-241.157-36.959 181.207-56.903z"/><path fill="#9aa1b3" fill-opacity=".929" d="M379.688 508.505l25.772 219.508 97.307-5.408-114.663-31.326z"/><path fill="#090007" fill-opacity=".275" d="M293.145 684.775l1.305-2.631 76.882-62.68 26.308 74.384z"/><path fill="#983f4a" fill-opacity=".816" d="M679.173 400.55l-74.337-76.209 8.113 36.679L676 437.45z"/><path fill="#fdfcfa" fill-opacity=".506" d="M601.705 353.973l-115.287-72.71-7.978 20.91 224.872 225.226z"/><path fill="#dce4ed" fill-opacity=".455" d="M608.69 771.498L291.33 1086l260.541-267.9 47.733-236.6z"/><path fill="#a8b5c1" fill-opacity=".42" d="M571.06-44.522L470.898-62 623.436-3.16 581.53 382.652z"/><path fill="#743f54" fill-opacity=".565" d="M438.947 837.765l34.667 23.947-40.487-39.116-24.025 41.528z"/><path fill="#e8c0bc" fill-opacity=".365" d="M252.187 120.22l80.445 19.225-46.925-67.15-45.043 66.713z"/><path fill="#800116" fill-opacity=".227" d="M37.99 400.654l199.835-183.9L78.718 424.02l70.497 105.371z"/><path fill="#2b2626" fill-opacity=".494" d="M242.767 113.148L262.127-62 212.59 86.532 329.053 34.61z"/><path fill="#382229" fill-opacity=".184" d="M253.088 587.606l-1.714-36.078-92.429-37.663 42.943-51.962z"/><path fill="#a27a6b" fill-opacity=".588" d="M400.263 360.061l42.346-37.085-148.904-63.661 46.115-10.558z"/><path fill="#b5c0d4" fill-opacity=".569" d="M506.97 519.266l94.512-96.952-22.65 126.075-63.45-152.178z"/><path fill="#34001d" fill-opacity=".247" d="M493.45 810.053l55.15 5.341-58.534 35.993 72.292-20.807z"/><path fill="#192325" fill-opacity=".278" d="M542.586-32.44l-68.912 96.032 90.158 49.698 13.18-79.873z"/><path fill="#00152e" fill-opacity=".337" d="M-2.025-62L298.7 10.45l-237.665.063L-62 166.383z"/><path fill="#d5dffb" fill-opacity=".29" d="M4.026 439.967l140.299 27.452 364.09 12.953-310.632-55.542z"/><path fill="#7b1e23" fill-opacity=".345" d="M858.875 441.752L898 242.596l-127.233-3.743-29.823 9.531z"/><path fill="#162327" fill-opacity=".404" d="M380.88 703.706l103.834-24.193 45.96-9.067 58.6-86.633z"/><path fill="#f19fa1" fill-opacity=".278" d="M97.15 899.254l-59.447 135.163L8.34 962.531 77.698 842.57z"/><path fill="#9e9e9d" fill-opacity=".514" d="M578.307 155.682L230.049-62 474.443 73.817l14.58 222.462z"/><path fill="#ecf4fb" fill-opacity=".859" d="M269.04 926.65l-23.368 103.648L459.066 1086 252.982 840.184z"/><path fill="#612427" fill-opacity=".412" d="M387.088 327.72l-40.305-50.905L19.7 336.23l196.82-90.028z"/><path fill="#6d0319" fill-opacity=".4" d="M312.55 625.102l-94.642-51.571 150.515 37.993 55.923.624z"/><path fill="#58606d" fill-opacity=".369" d="M10.073 106.444L114.245-44.544l159.67 194.448-51.24-61.06z"/><path fill="#a07969" fill-opacity=".525" d="M112.668 908.736l-22.729-278.28 114.62 92.27L65.884 896.633z"/><path fill="#99abbe" fill-opacity=".443" d="M407.374 602.154l31.925 31.828-64.908 73.128 72.134-100.092z"/></svg>