<svg xmlns="http://www.w3.org/2000/svg" width="228" height="278" viewBox="0 0 836 1024"><path fill="#9d948a" d="M0 0h836v1024H0z"/><path fill="#e9f2f4" fill-opacity=".82" d="M898 1024.634l-930.127 7.416.543-281.829 818.121 6.493z"/><path fill="#594433" fill-opacity=".729" d="M-40.968 390.91l29.581-449.66 802.473 15.98L898 335.686z"/><path fill="#d4d1c1" fill-opacity=".733" d="M144.78 420.087L537.475 1086l125.552-742.55-401.786-16.193z"/><path fill="#313733" d="M835.376 404.856L579.517-62 503.306 47.628l360.006 574.394z"/><path fill="#741e1b" fill-opacity=".922" d="M88.143 365.762L17.503-62-62 706.833l310.515-402.14z"/><path fill="#230702" fill-opacity=".627" d="M638.223 742.258l-55.976 138.116 65.444-331.789 196.714 182.516z"/><path fill="#4a4634" fill-opacity=".69" d="M172.29 560.358l80.102-67.31 16.112 233.92L-62 744.25z"/><path fill="#d55e1f" fill-opacity=".733" d="M402.795 557.138l133.67 61.901-95.08 44.36-132.76-45.457z"/><path fill="#856e51" d="M509.206 353.409l-78.345 40.399L38.88 166.745l480.389-72.418z"/><path fill="#dedcd0" fill-opacity=".769" d="M841.664 603.505l-115.779 52.277-72.938-298.355 71.726 36.412z"/><path fill="#dbdbd5" fill-opacity=".78" d="M228.641 351.767l215.2 36.98-332.892 187.09-98.325 39.218z"/><path fill="#6a9992" fill-opacity=".471" d="M286.915 274.223l75.211-165.132L195.05-26.982 25.903 323.463z"/><path fill="#bfcbc0" fill-opacity=".949" d="M616.121 691.933l-215.9 386.902-104.248-78.202-36.262-348.463z"/><path fill="#8e5b2f" fill-opacity=".882" d="M884.687 985.384L759.38 654.813l76.746-57.684 10.82-161.478z"/><path fill="#80d6ff" fill-opacity=".996" d="M793.148 890.358l70.035-55.577L780.942 1086l-39.639-82.401z"/><path fill="#f8ffff" fill-opacity=".294" d="M680.176 486.278L572.968 282.672 246.143 552.338l256.17 35.092z"/><path fill="#5b1413" fill-opacity=".839" d="M-61.743-60.033L50.067 213.24l51.965-121.42 94.88-145.384z"/><path fill="#faf7fc" d="M-62 787.188l327.406-16.42L210.455 1086 7.082 1009.661z"/><path fill="#677965" fill-opacity=".769" d="M708.855 229.938L645.06-62l188.564 14.157 12.197 465.437z"/><path fill="#a5302e" fill-opacity=".816" d="M623.455 644.24l-31.946 145.027 16.97 77.898 35.295-322.454z"/><path fill="#fcfbff" fill-opacity=".784" d="M642.043 1086L618.75 750.212l204.752 61.722-108.034 198.471z"/><path fill="#1a201e" fill-opacity=".882" d="M874.318 503.624l-269.39-203.031 18.928 6.92 49.489-96.634z"/><path fill="#7d2f00" fill-opacity=".302" d="M369.581-62l243.8 226.374-134.98 209.103-104.23 14.62z"/><path fill="#000b0c" fill-opacity=".404" d="M616.303 546.773l53.999 177.658 79.701 26.08-75.654-222.622z"/><path fill="#c87d53" fill-opacity=".463" d="M299.905 101.176l197.652 6.281L339.01 266.353l347.098 140.789z"/><path fill="#f4d9d7" fill-opacity=".475" d="M360.248 286.136l54.446 171.73-261.128-40.278 36.183-39.188z"/><path fill="#a6713a" fill-opacity=".843" d="M-62 629.088l105.376-33.11 51.05 29.569L7.383 747.803z"/><path fill="#011e0a" fill-opacity=".302" d="M333.563 31.782l141.159 157.411-122.407 2.49L622.936-62z"/><path fill="#030f26" fill-opacity=".169" d="M50.248 746.128l192.45-253.173-215.789-65.04L356.596 621.28z"/><path fill="#691b1a" fill-opacity=".62" d="M-62 497.344l400.635-243.816 44.187 25.01-165.02 80.923z"/><path fill="#c32122" fill-opacity=".659" d="M301.296 606.475l80.152-12.305 166.6 62.283-46.184-49.089z"/><path fill="#e3c13d" fill-opacity=".976" d="M409.497 674.446l38.869-98.436-40.732-18.652-22.963 14.57z"/><path fill="#b7ae9c" fill-opacity=".78" d="M613.368 1086l-11.944-49.897 43.86-404.752-23.406 78.846z"/><path fill="#0c1d1d" fill-opacity=".459" d="M805.832 646.164l-27.777 101.333-150.35-30.147 170.505-92.308z"/><path fill="#edfdef" fill-opacity=".302" d="M36.648 598.838l132.477 46.55L113.79 587.4l75.489-208.3z"/><path fill="#47484b" fill-opacity=".714" d="M562.464 298.546L499.136-62l73.004 40.322 86.51 376.62z"/><path fill="#191d1c" fill-opacity=".89" d="M898 477.867l-60.657 119.39-21.25-43.663L718.94 365.01z"/><path fill="#dadfcf" fill-opacity=".69" d="M633.537 580.864L473.662 797.416l170.433 53.279-107.314 175.462z"/><path fill="#b6aea5" fill-opacity=".843" d="M723.679 654.91l7.55-126.393-87.944-187.204 47.294 243.245z"/><path fill="#0c0000" fill-opacity=".267" d="M452.114 273.71l-80.65-7.483 113.437 102.214-108.837 23.81z"/><path fill="#dca85e" fill-opacity=".31" d="M340.463 163.249l128.146 2.262 65.914 56.189-26.644-137.368z"/><path fill="#48211e" fill-opacity=".667" d="M128.326 646.45l73.082-83.245-92.06 165.17L40.9 732.87z"/><path fill="#876b5d" d="M346.706 468.342l-47.933-1.908-356.809 342.468 333.718-320.453z"/><path fill="#88a4b0" fill-opacity=".263" d="M153.06 733.85L-62 757.67l431.424 12.678L169.06 625.49z"/><path fill="#cfefe7" fill-opacity=".306" d="M662.23 523.692l-437.612-44.705 73.637 250.854-6.52-148.658z"/><path fill="#ffa2ae" fill-opacity=".373" d="M674.714 452.17L476.345 257.088 714.71 386.196l36.346 39.643z"/><path fill="#8ca293" fill-opacity=".322" d="M163.724 76.34L62.717 339.698l145.194-37.366-4.935-192.045z"/><path fill="#e4ebe4" fill-opacity=".984" d="M373.76 468.74l-138.931-73.406 64.592-29.923 56.849-22.74z"/><path fill="#9d1422" fill-opacity=".345" d="M579.785 481.303l-.86 2.221-8.215-22.507-89.618 10.198z"/><path fill="#f0ffe6" fill-opacity=".357" d="M784.497 496.434L898 733.46l-86.342-119.096-83.913 50.626z"/><path fill="#502826" fill-opacity=".612" d="M182.882 369.103L44.492 396.75l29.323 143.948 62.638-81.962z"/><path fill="#931917" fill-opacity=".306" d="M-36.288 35.24L-62 665.912 80.766 540.67l9.979-409.178z"/><path fill="#6b2526" fill-opacity=".573" d="M572 92.651l-3.659 215.993-93.484-65.692-7.054 79.857z"/><path fill="#ff0024" fill-opacity=".184" d="M350.647 347.347l-108.851 32.692 63.126-80.486 23.337-20.941z"/><path fill="#dbe1d7" d="M472.561 396.63l81.072-106.096-20.251 47.693 93.95 145.62z"/><path fill="#bc012b" fill-opacity=".369" d="M352.462 576.103l61.862 56.834-99.64-2.595 3.7-28.515z"/><path fill="#57675c" fill-opacity=".808" d="M385.86 8.846L258.92 110.257 80.482-62l480.264 74.169z"/><path fill="#d5bd65" fill-opacity=".996" d="M400.5 635.693l-23.734 22.451 37.177 8.327 69.633-10.198z"/><path fill="#535e54" fill-opacity=".729" d="M247.432 508.386l-42.962-18.779 69.78 237.905-101.394-113.681z"/><path fill="#202c28" fill-opacity=".663" d="M657.337 40.852l28.394 191.27-85.344-100.006L619.83-62z"/><path fill="#e9dcd4" fill-opacity=".596" d="M696.376 370.937l51.254 48.474 17.914 85.31-107.02-153.375z"/><path fill="#a7b195" fill-opacity=".271" d="M694.477 67.452l9.847 50.877L898 23.29 848.887-62z"/><path fill="#d8ddd2" fill-opacity=".945" d="M594.693 1057.12l-245.83-56.713-110.788-14.018 382.359-53.484z"/><path fill="#a0ada1" fill-opacity=".522" d="M289.655 960.12l170.61-191.387L270.28 896.908l226.9-20.512z"/><path fill="#a9aca4" fill-opacity=".631" d="M252.562 831.133l261.572-206.056-71.36 20.54 46.47 44.345z"/><path fill="#87839a" fill-opacity=".282" d="M642.266 728.348l-28.858 50.937L898 749.146l-234.614-18.975z"/><path fill="#d28e5b" fill-opacity=".475" d="M429.842 244.673l-102.766-51.68 199.513 23.581-27.523-42.55z"/><path fill="#b1a195" fill-opacity=".357" d="M175.263 449.867l-43.426 201.907 85.332-137.062 14.085-169.036z"/><path fill="#4f5848" fill-opacity=".529" d="M794.208 323.934L835.16 59.173 898 526.147 657.448 154.178z"/><path fill="#443820" fill-opacity=".651" d="M408.1 122.503l-71.261-58.177 86.11-89.813 114.217 99.43z"/><path fill="#d40327" fill-opacity=".231" d="M540.436 336.277l37.47-63.162 5.675 59.302 58.707 65.799z"/><path fill="#1c1d1e" fill-opacity=".51" d="M633.841 540.968l117.4 141.4 38.146 50.087-149.277.983z"/><path fill="#ede8f2" fill-opacity=".761" d="M-62 989.684l438.828-76.471-86.568-8.46L179.323 1086z"/><path fill="#b3b192" fill-opacity=".733" d="M797.368 1086l-241.907-75.102 57.117-24.444-15.45 99.546z"/><path fill="#656f6f" fill-opacity=".345" d="M227.419 734.459l-186.687 12.62 335.893-95.68 6.119-37.627z"/><path fill="#9e693c" fill-opacity=".773" d="M838.086 869.574L898 687.074l-89.043-69.722-26.472 115.001z"/><path fill="#22200d" fill-opacity=".435" d="M424.775 386.332l-52.462-70.321-7.017 4.3 91.236 10.001z"/><path fill="#d5dad2" d="M345.024 341.29l226.563 224.985-192.3-120.615-36.212-152.626z"/><path fill="#b8c2ba" d="M347.887 977.529L234.775 906.27l195.42 53.75-48.4 18.44z"/><path fill="#ac0202" fill-opacity=".325" d="M646.572 536.96l-49.33 230.87.851 97.577 15.715-50.564z"/><path fill="#7ddeff" fill-opacity=".247" d="M820.558 814.45L898 1061.234 706.202 997.6l48.48-87.844z"/><path fill="#888374" fill-opacity=".671" d="M656.65 551.444l53.553 74.872-41.523-163.072-17.413 27.888z"/><path fill="#637f73" fill-opacity=".455" d="M353.828 268.383L299.661 90.31 155.513 60.55l31.51 217.838z"/><path fill="#4a1800" fill-opacity=".22" d="M335.84 304.6l-33.531 19.783 73.62-195.963 24.064 48.138z"/><path fill="#aa8154" fill-opacity=".831" d="M383.122 109.592l-54.437 98.803 3.733-95.765-1.431-36.228z"/><path fill="#4c260b" fill-opacity=".333" d="M137.532 727.543l-10.06-84.686-64.835-34.868 2.732 112.637z"/><path fill="#e6dcdd" fill-opacity=".71" d="M142.942 448.952l20.948-42.929 53.275-44.799L105.064 505.47z"/><path fill="#181d1d" fill-opacity=".58" d="M670.494 357.633L605.76 319.97l93.376-25.494 54.438 63.647z"/><path fill="#c0001f" fill-opacity=".427" d="M438.288 597.343l70.834 48.577 21.923-27.768-74.626-26.23z"/><path fill="#dfe6de" fill-opacity=".969" d="M464.193 528.268l-164.761-2.622-53.23-36.985 105.757-4.748z"/><path fill="#701b18" fill-opacity=".678" d="M47.796 358.783l-39.47 83.253 56.218-17.753 269.968-120.322z"/><path fill="#ecf9f0" fill-opacity=".412" d="M39.654 574.837l11.544 11.6 173.42-80.444-79.295 8.141z"/><path fill="#774e45" fill-opacity=".4" d="M165.48 349.202L43.147 361.097l207.386-104.175 193.692-14.882z"/><path fill="#960917" fill-opacity=".255" d="M283.418 428.478l-5.783 49.236 23.234 16.259-20.318-53.469z"/><path fill="#25baff" fill-opacity=".427" d="M668.458 1079.274l93.723-49.584 38.128-127.845L791.708 1086z"/><path fill="#d7e1d8" fill-opacity=".561" d="M453.255 650.765l22.007 2.567-166.368 119.824-32.466 3.973z"/><path fill="#ac7f4f" d="M471.46 339.223l22.3 25.904 56.411-72.353-56.049 1.212z"/><path fill="#999e96" fill-opacity=".373" d="M341.185 458.854l223.088 53.419-286.429-41.374 50.284 5.516z"/><path fill="#b4864e" fill-opacity=".537" d="M406.551 385.028l-23.401-10.446-25.654-15.963-4.494-95.57z"/><path fill="#c9d0c7" fill-opacity=".706" d="M574.182 292.418l45.438 99.274-331.306-17.035 353.198 45.752z"/><path fill="#abb29f" fill-opacity=".745" d="M560.482 622.432l-54.744-11.24 176.08-121.377-41.1 34.783z"/><path fill="#dee4d9" fill-opacity=".596" d="M550.988 1086l-116.563-43.373 159.462-275.185 6.448 126.435z"/><path fill="#1c1e1c" fill-opacity=".722" d="M881.347 581.478l-203.774-242.83L898 512.647l-127.202-18.248z"/><path fill="#eefcd7" fill-opacity=".267" d="M487.073 92.934l15.53 77.123-8.591-42.29-44.487-12.033z"/><path fill="#74211c" fill-opacity=".827" d="M500.442 258.554l21.061 33.984 24.446-92.416-38.462 23.345z"/><path fill="#bcc8c0" fill-opacity=".8" d="M266.368 620.21l13.376 288.658-17.368-109 47.7-187.314z"/><path fill="#fff" fill-opacity=".404" d="M369.34 1005.228L-62 715.363l18.298 145.145 393.175 145.324z"/><path fill="#fffeff" fill-opacity=".722" d="M323.546 857.87L19.888 981.238l239.248-202.942 2.504 80.035z"/><path fill="#cfd8cb" fill-opacity=".58" d="M627.809 614.993l-115.41 67.181L468.521 1086l160.05-446.568z"/><path fill="#973937" fill-opacity=".471" d="M-62 416.575L45.203 593.991l-28.05-.428 76.118-68.419z"/><path fill="#fffeff" fill-opacity=".784" d="M799.013 783.435l-170.96 17.707 8.98 183.562L817.53 843.663z"/><path fill="#272107" fill-opacity=".11" d="M591.298 751.039l98.01-132.113L454.95 881.9l-111.098 65.046z"/><path fill="#eef5ef" fill-opacity=".545" d="M629.947 390.871l-111.232-50.777 77.417 61.204 97.093-7.253z"/><path fill="#4c3c38" fill-opacity=".549" d="M95.394 44.932L205.82-62 152.28 49.627 80.108 139.3z"/><path fill="#711818" fill-opacity=".659" d="M603.817 774.506l2.292-56.612 48.756-101.74-13.44-67.217z"/><path fill="#b5c3b5" fill-opacity=".408" d="M478.21 537.648l-146.035.904-98.268-41.877 56.801 114.35z"/><path fill="#d7d1c7" fill-opacity=".91" d="M675.52 405.507l-20.772 90.286 3.809-76.918-87.267 24.446z"/><path fill="#ababa3" fill-opacity=".627" d="M775.576 583.258L672.322 398.484 793.357 568.95 646.664 682.606z"/><path fill="#535e48" fill-opacity=".353" d="M253.39 1015.877l122.93 61.08-30.53 8.804-116.944-76.567z"/><path fill="#dce7dd" fill-opacity=".424" d="M463.85 852.105l67.72-67.743 53.623-41.88L241.06 990.798z"/></svg>