<svg xmlns="http://www.w3.org/2000/svg" width="228" height="278" viewBox="0 0 836 1024"><path fill="#334054" d="M0 0h836v1024H0z"/><path fill="#dbcfd1" fill-opacity=".851" d="M421.73 432.843l-146.962-127.06-69.499 736.543L347.975 1086z"/><path fill="#41b0ff" fill-opacity=".667" d="M29.922 775.928L61.553 516.75l116.764-185.713 206.156-64z"/><path fill="#e6352e" fill-opacity=".988" d="M367.406 507.952l-4.657 112.07 158.344 8.66 30.272-110.287z"/><path fill="#fe9d5b" fill-opacity=".686" d="M364.212 334.664l2.665-248.87 130.037 23.199-54.969 194.983z"/><path fill="#030003" fill-opacity=".757" d="M512.481-62L-62-34.978l63.01 711.92 132.204-294.687z"/><path fill="#1d6fa2" d="M224.677 802.263l-21.679 244.527L46.541 642.68l410.813 234.689z"/><path fill="#000613" fill-opacity=".612" d="M432.125-62l200.792 1148h238.544L875.9-62z"/><path fill="#9caec8" fill-opacity=".698" d="M517.615 407.025l110.133-63.521 53.31 54.164-150.39 134.616z"/><path fill="#7dacdb" fill-opacity=".553" d="M546.177 940.971l25.046-347.837-143.466 426.898 198.807-51.303z"/><path fill="#000a3c" fill-opacity=".651" d="M240.86 809.66l32.873-279.752-44.273-107.946-108.189 257.755z"/><path fill="#001325" fill-opacity=".847" d="M-62 1086V631.971l255.634 272.563L40.419 1086z"/><path fill="#e2e4e7" fill-opacity=".82" d="M383.085 379.53L333.98 812.477l-90.22-421.07-25.895-66.008z"/><path fill="#c68a69" fill-opacity=".831" d="M230.97 790.227l146.077 66.595-21.973 139.226-173.251-161.465z"/><path fill="#fce9d8" fill-opacity=".741" d="M128.112 512.055L94.127 468.9l51.375-99.981 25.233 44.504z"/><path fill="#0067d3" fill-opacity=".573" d="M420.173 631.431l82.781-2.926-55.436 247.344-89.436-61.037z"/><path fill="#0570d6" fill-opacity=".725" d="M281.414 285.224l165.023 186.352 34.205-64.96-70.156-83.574z"/><path fill="#05a0e9" fill-opacity=".89" d="M48.073 621.312l-16.18 123.05 150.158 101.145 19.547-64z"/><path fill="#f5ffff" fill-opacity=".714" d="M140.52 1080.384l221.033-76.155-81.375-57.446-35.606-45.955z"/><path fill="#0d0b0a" fill-opacity=".933" d="M327.704-23.884l-60.477 212.855-31.675 117.37 134.155-41.543z"/><path fill="#022567" fill-opacity=".878" d="M526.929 206.901l164.916 75.333-33.284 381.029 129.907-468.829z"/><path fill="azure" fill-opacity=".596" d="M247.136 736.888l30.36-184.837 127.743 84.584-26.988 189.598z"/><path fill="#13a60b" fill-opacity=".612" d="M659.253 932.774l23.944-152.249-78.292-67.468 15.424 213.335z"/><path fill="#fbfffc" fill-opacity=".639" d="M470.124 935.635l-13.4 70.953 2.436-1.873 86.242-15.547z"/><path fill="#f4ece2" fill-opacity=".58" d="M50.002 618.731l160.635 30.793-14.734-2.37-150.11-65.456z"/><path fill="#010000" fill-opacity=".686" d="M880.62-2.405L898 200.193l-296.953-17.2L389.572 50.234z"/><path fill="#3f466b" fill-opacity=".549" d="M-27.24 112.764l71.467 34.526 59.53 63.227L166.156-62z"/><path fill="#435876" fill-opacity=".91" d="M559.096 453.108l6.51 505.701-61.962-255.384L665.77 433.467z"/><path fill="#0d0403" fill-opacity=".792" d="M432.154 315.819l80.537 116.73 6.885-134.54 48.47-257.686z"/><path fill="#000333" fill-opacity=".38" d="M383.097 844.006l145.821-134.732-89.238 282.224-313.6-349.463z"/><path fill="#006ece" fill-opacity=".804" d="M227.785 371.818L65.618 574.016l77.413 45.33L250.612 419.6z"/><path fill="#269de1" fill-opacity=".835" d="M238.431 854.388l-39.155 157.583-25.7-3.145-3.515-106.308z"/><path fill="#0062bd" fill-opacity=".557" d="M552.58 997.367l-36.235 62.536L350.177 905.04l-1.602 135.053z"/><path fill="#070100" fill-opacity=".643" d="M888.006 575.112L546.402 1086H663.71l221.838-181.28z"/><path fill="#0c2039" d="M160.588 1023.768l-43.178-13.345L-62 662.495l241.053 194.998z"/><path fill="#05070a" fill-opacity=".992" d="M-56.044 939.378l13.926-355.188 92.984 27.016 4.19 10.118z"/><path fill="#ffb472" fill-opacity=".51" d="M431.832 151.338l-72.932 65.29L371.6 75.35l116.663 27z"/><path fill="#000008" fill-opacity=".753" d="M714.084 632.707l82.498-341.182L533.81 314.51 898 409.679z"/><path fill="#f42b2f" fill-opacity=".208" d="M765.493 749.821L898 678.708l-58.944-223.056-108.62 254.066z"/><path fill="#cfb2af" fill-opacity=".541" d="M542.84 580.095l-23.278 20.024-202.656-24.46 144.026-13.154z"/><path fill="#f9b081" fill-opacity=".69" d="M387.038 927.537l-80.481-97.898-104.888-16.598-2.268 43.009z"/><path fill="#8b4119" fill-opacity=".8" d="M481.147 249.968L498.585 85.46l-94.524 89.16 69.056 17.94z"/><path fill="#003f95" fill-opacity=".69" d="M532.876 510.631l-10.303-99.836-114.146 40.853 1.96 44.38z"/><path fill="#9da6b2" d="M345.807 460.697l68.473-64.448-177.072 99.482 63.01-84.145z"/><path fill="#071131" fill-opacity=".878" d="M497.285 949.263l72.364-43.557L571.096 643l58.116 305.44z"/><path fill="#052463" fill-opacity=".631" d="M796.83 870.18L614.096 453.885l135.208-117.557-18.891 306.607z"/><path fill="#040310" fill-opacity=".698" d="M145.617 682.643l102.988-211.68-17.548 248.967 3.802 81.31z"/><path fill="#006ac3" fill-opacity=".659" d="M277.973 542.472l-46.407 233.16 15.626-219.093 27.736-56.202z"/><path fill="#d9f4fd" fill-opacity=".525" d="M458.899 892.816l61.742-58.061 24.747-42.835-14.153 3.357z"/><path fill="#ff0e05" fill-opacity=".671" d="M556.716 518.65l-192.832-17.004 15.171 52.49 102.67 13.47z"/><path fill="#eff2f3" fill-opacity=".416" d="M661.039 385.551l21.273-2.862-117.596 2.782 51.164 66.28z"/><path fill="#393234" fill-opacity=".796" d="M277.919 154.716l35.39 55.165-101.532 91.694 8.834-138.527z"/><path fill="#89abd4" fill-opacity=".631" d="M523.478 893.636l69.756 78.649-67.08 19.313 56.412-89.73z"/><path fill="#00052b" fill-opacity=".49" d="M377.627 836.325l92.734 46.046 136.325-98.062-201.387 203.857z"/><path fill="#000012" fill-opacity=".584" d="M723.644 809.887l-143.11-160.502-27.255 33.652 96.874-272.867z"/><path fill="#006cc3" fill-opacity=".384" d="M565.434 652.569l-175.543-14.03-20.907 206.252 97.568-69.736z"/><path fill="#020306" fill-opacity=".941" d="M29.418 545.59L-62 691.88l266.541-411.05L-62 89.74z"/><path fill="#002fa7" fill-opacity=".29" d="M831.001 202.913L522.739 348.535l-2.978-94.179 56.728-56.522z"/><path fill="#946251" fill-opacity=".996" d="M359.042 925.127l12.638 37.76-64.082 1.84-23.786-21.817z"/><path fill="#0d72c6" fill-opacity=".918" d="M275.783 326.218L397.25 361.61l-50.16-86.685-197.121 76.36z"/><path fill="#ceb5b9" fill-opacity=".898" d="M495.398 516.205l50.89 1.309-61.078-10.493-224.671-16.855z"/><path fill="#a2b5cb" fill-opacity=".918" d="M161.645 354.354l162.863-4.405-48.383-29.094-127.014 64.456z"/><path fill="#681309" fill-opacity=".471" d="M512.29 628.684l62.73-216.99 20.467 33.025-52.92 178.194z"/><path fill="#dcf8f8" fill-opacity=".38" d="M521.56 444.578l15.717 69.99 51.043-147.526-38.343 61.258z"/><path fill-opacity=".431" d="M175.859 127.797l280.32 61.403L-14.663-16.665-62 9.132z"/><path fill="#dedcdf" fill-opacity=".776" d="M435.06 614.37l-114.286 2.66-78.021-156.638L375.339 644.78z"/><path fill="#86350b" fill-opacity=".506" d="M423.277 304.752l78.715-168.86-29.002 174.191-76.758-160.57z"/><path fill="#d3ffff" fill-opacity=".271" d="M362.122 503.68l53.84 3.14-50.29-362.906-.818 152.17z"/><path fill="#5669d0" fill-opacity=".376" d="M727.892 21.277L683.232-62 568.506 55.006 537.752-62z"/><path fill="#1188d3" fill-opacity=".671" d="M335.49 1033.903l96.773-103.814-98.234 46.884 70.788 74.208z"/><path fill="#0097e6" fill-opacity=".737" d="M96.538 477.644L48.15 578.72l34.928 28.393 90.262-73.569z"/><path fill="#398ffb" fill-opacity=".31" d="M125.554 85.954L78.308 147.42l-12 44.719L127 151.299z"/><path fill="#bfa9e0" fill-opacity=".165" d="M333.01-37.235L260.502 65.03 105.964-62l-38.66 89.446z"/><path fill="#000004" fill-opacity=".682" d="M112.453 1086L28.57 889.1l-.677-358.08-89.519 489.223z"/><path fill="#ffdba4" fill-opacity=".38" d="M453.515 101.451l-76.953-11.923 13.78 27.114-19.74 138.155z"/><path fill="#f51103" fill-opacity=".729" d="M364.072 561.703l-6.32 45.15 172.259 19.662-117.995-33.41z"/><path fill="#476389" d="M523.257 633.082l-13.219 16.787 36.32 178.379 31.938-134.463z"/><path fill="#001554" fill-opacity=".655" d="M637.878 358.95l-5.16-32.45-179.657 69.054-38.744-44.435z"/><path fill="#d68f6b" fill-opacity=".976" d="M351.588 855.513l-.225 77.464-107.313-14.984 152.65-55.549z"/><path fill="#000507" fill-opacity=".682" d="M743.92 829.116l81.294 132.655-328.508 33.67 97.45 17.622z"/><path fill="#ffbf7d" fill-opacity=".518" d="M488.672 181.613L462.41 223.65l-27.216 33.913-9.348-76.215z"/><path fill="#185270" fill-opacity=".565" d="M142.823 847.58L23.071 915.626l20.508-170.41 10.33 108.07z"/><path fill="#0e0815" fill-opacity=".263" d="M308.333 445.916l72.422-19.072-61.21 42.627 10.781-3.505z"/><path fill="#02bf9c" fill-opacity=".235" d="M691.224 778.626l14.279 10.575-106.922-5.742.06-112.264z"/><path fill="#0082de" fill-opacity=".471" d="M430.014 866.15l15.922-55.08-45.947 31.507 96.619-14.14z"/><path fill="#001c4f" fill-opacity=".431" d="M529.517 662.973l-94.157 114.53L533.4 609.55l-128.64 75.385z"/><path fill="#030007" fill-opacity=".475" d="M648.26 196.83l-279.776-27.01 97.645-10.524L702.439-62z"/><path fill="#fcc699" fill-opacity=".541" d="M232.93 801.78l-23.71-1.692-5.41 48.656 138.302 126.273z"/><path fill="#d3d7de" fill-opacity=".682" d="M298.98 332.227L282.997 546.19 244.07 442.08l149.95-45.383z"/><path fill="#eef0f2" d="M180.568 1044.44l157.502-77.905-2.3 119.465-162.28-87.695z"/><path fill="#003180" fill-opacity=".612" d="M139.901 501.098l66.288-130.766-9.507-10.12-25.278 50.17z"/><path fill="#5e70fa" fill-opacity=".243" d="M690.209 621.913l30.697-11.62 38.136 37.306-25.082 69.035z"/><path fill="#0161ba" fill-opacity=".827" d="M451.77 438.668l-32.874 27.954-26.55-120.836-139.812-57.087z"/><path fill="#0669fd" fill-opacity=".165" d="M726.5 508.712l-47.377-66.844-133.5-103.427 190.961 35.55z"/><path fill="#00296f" fill-opacity=".616" d="M95.72 1086h104.185l-70.141-196.742-26.803 29.048z"/><path fill="#c8c9d0" fill-opacity=".592" d="M514.232 520.869l32.175-24.041 40.418 12.18-88.63 2.305z"/><path fill="#7cbbfc" fill-opacity=".275" d="M419.138 970.835l179.82-135.028-97.843 109.238 141.564 43.598z"/><path fill="#0031bd" fill-opacity=".435" d="M152.216-62l11.16 92.175-65.062 2.579L-.234-62z"/><path fill="#c9cacb" fill-opacity=".518" d="M357.65 622.222l292.382 17.088-254.326-20.79-152.677 113.964z"/><path fill="#ededee" fill-opacity=".839" d="M357.04 827.458l-3.783-369.798-55.933-.88-46.715 243.587z"/><path fill="#fdfef9" fill-opacity=".369" d="M177.15 635.24L62.713 617.667 32.841 682.41l50.886-82.856z"/><path fill="#c8cad3" fill-opacity=".675" d="M457.677 392.818l18.97 16.934 3.133.1 5.797-24.636z"/><path fill="#4d5d71" fill-opacity=".882" d="M291.91 548.205l39.119-31.198-178.796 192.117 91.91-97.08z"/><path fill="#f7fff8" fill-opacity=".459" d="M457.565 1014.193l1.406-71.783 69.603 41.766-58.714 26.756z"/><path fill="#00011d" fill-opacity=".624" d="M377.774 1017.646l48.483-67.4-68.822-67.376 121.652-38.023z"/><path fill="#231808" fill-opacity=".616" d="M499.539-62l40.662 96.537-123.866 65.853-40.16-52.55z"/><path fill="#305380" fill-opacity=".851" d="M350.983 840.507l-86.186-17.592-25.166-69.62 31.917 2.534z"/><path fill="#003578" fill-opacity=".42" d="M301.458 1057.78L494.19 886.613l-73.796 129.753L527.41 939.1z"/><path fill="#002144" fill-opacity=".498" d="M355.886 870.74l178.42-128.39-198.736 54.612 167.647-66.834z"/><path fill="#020304" fill-opacity=".882" d="M361.85 192.334L358.629-4.209-23.472 279.137 274.71 139.68z"/><path fill-opacity=".647" d="M842.298 469.249l-81.342 30.16-35.764-191.589 159.743 102.399z"/><path fill="#000d35" fill-opacity=".816" d="M504.189 346.26l-33.31 95.93 17.918 11.293 111.78-148.23z"/><path fill="#2a2230" fill-opacity=".769" d="M126.556 694.089l48.27 50.8 12.638-104.325-27.313 2.022z"/><path fill="#061829" fill-opacity=".431" d="M625.86 503.898L898 617.228 583.644 436.444l-30.842 53.111z"/><path fill="#180300" fill-opacity=".424" d="M496.37 284.485l-113.616 36.792L534.5 364.95 396.319 222.904z"/><path fill="#002c98" fill-opacity=".345" d="M273.592 450.319L151.255 621.064l-35.253-7.131 110.41-181.974z"/><path fill="#fff7eb" fill-opacity=".561" d="M160.715 381.083l-66.89 93.582 33.087 30.985 45.683-110.016z"/><path fill="#fff4ef" fill-opacity=".435" d="M154.183 643.318L28.268 606.467l49.964-7.454 88.8 40.706z"/><path fill="#006fd5" fill-opacity=".62" d="M126.708 645.967l-18.656 65.87-31.243-51.115-24.16-47.855z"/><path fill="#003b9a" fill-opacity=".263" d="M713.949 154.044l74.068 114.315-66.095 74.673-52.984-237.924z"/><path fill="#0a1234" fill-opacity=".831" d="M64.706 618.21l-31.709 36.318 40.74-172.773L-62 562.873z"/></svg>