<svg xmlns="http://www.w3.org/2000/svg" width="228" height="278" viewBox="0 0 836 1024"><path fill="#644d42" d="M0 0h836v1024H0z"/><g fill-opacity=".502"><path fill="#ffa740" d="M462 342L318 986l-28-644z"/><path fill="#ffaf61" d="M454 350l72 656 128-672z"/><path fill="#00111e" d="M538 58l360 124-504 152z"/><path fill="#000008" d="M78 986l576-52-24 152z"/><path fill="#ffc954" d="M218 614l4-288-100 248z"/><path fill="#0a3c67" d="M426 942l124-496-136-68z"/><path fill="#ffae43" d="M718 370l-76 320 88-4z"/><path fill="#102737" d="M450 314L-50-62l-12 460z"/><path fill="#ffab3b" d="M466 910l92-436 32 508z"/><path fill="#ff841f" d="M342 522l24 440-120-4z"/><path fill="#fff" d="M430 478l20 116 60-24z"/><path fill="#000005" d="M286 826l-80-244 88-300z"/><path fill="#000d1c" d="M354 1002l60-484 92 568z"/><path fill="#879eb3" d="M78 526L62 918l116-4z"/><path fill="#b1cbf3" d="M538 374l-208-68 144 124z"/><path fill="#001129" d="M770 770l-24 316 152-156z"/><path fill="#06202f" d="M570 1066l120-340-84-188z"/><path fill="#000007" d="M330-62l280 284-56-188z"/><path fill="#001f32" d="M-62 558l80 432 64-396z"/><path fill="#9e1233" d="M794 442l-4-216-244 100z"/><path fill="#f9ffff" d="M726 642l-96 52 120-28z"/><path fill="#000422" d="M490 390l16 164 32-164z"/><path fill="#081118" d="M230 1074l-44-220 76-212z"/><path fill="#faffff" d="M478 394l88-84-4 60z"/><path fill="#fff" d="M218 598l-80-52-36 28z"/><path fill="#ff9046" d="M414 390l-32 368-96-408z"/><path fill="#ff9d4c" d="M506 778l32-352 100 68z"/><path fill="#9b7563" d="M450 58l104 128-284 44z"/><path fill="#000004" d="M462 410l-60-40 32 120z"/><path fill="#99b3be" d="M62 718l168-12-68 88z"/><path fill="#160b04" d="M322 274l148-44-8 140z"/><path fill="#ff8d3b" d="M234 378l-20 264-72-116z"/><path fill="#16252f" d="M522 542L394 722l72 192z"/><path fill="#000003" d="M646 730l-56-144 60-76z"/><path fill="#e97d30" d="M238 882l116 44 44-328z"/><path fill="#ff8014" d="M654 550l60-156v260z"/><path fill="#885864" d="M578-62l320 72-312 156z"/><path fill="#d6e0f9" d="M154 450l-12-44-28 112z"/><path fill="#0c080a" d="M462 254l128-92 20 200z"/><path fill="#011a25" d="M186 206l80 296 32-224z"/></g></svg>