<svg xmlns="http://www.w3.org/2000/svg" width="228" height="278" viewBox="0 0 836 1024"><path fill="#5b719b" d="M0 0h836v1024H0z"/><g fill-opacity=".502"><path fill="#cef1ff" d="M54 586l372-236L242-42z"/><path fill="#002e6d" d="M590 14L474 1086 62 810z"/><path fill="#350000" d="M274 106L526-62l8 444z"/><path fill="#fc8785" d="M898 902L498 578l156 508z"/><path fill="#9dd9f1" d="M502 58l288 224L898-62z"/><path fill="#3ea5ff" d="M610 486l-444 44 208-244z"/><path fill="#3b0000" d="M258 230l-56 172-28-172z"/><path fill="#29a1ff" d="M354 1086l292-84-136-276z"/><path fill="#03285e" d="M238 498l-136 588 484-516z"/><path fill="#f0f4ff" d="M82 534l236-268-148 372z"/><path fill="#115dd3" d="M-18 918l152-468L18 14z"/><path fill="#f0624a" d="M126 1086L-62 878l188-4z"/><path fill="#ffffe8" d="M106 374l120 92-92-288z"/><path fill="#ff869a" d="M814 910l84-244-144-56z"/><path fill="#9f917c" d="M430 54l468 156-80 368z"/><path fill="#593f2d" d="M742 958l156 72-176-312z"/><path fill="#321900" d="M590 266L266-62l196 436z"/><path fill="#001757" d="M658 394l60 316-132-204z"/><path fill="#ffffe9" d="M350 266l156 128-64 4z"/><path fill="#000567" d="M38 186l172-92-28 108z"/><path fill="#5b9bff" d="M-6 18l84 184L282-62z"/><path fill="#000017" d="M134 870l12-192 212-208z"/><path fill="#2a75ce" d="M286 810l-348-60 428 336z"/><path fill="#3498f2" d="M414 446l284-60-96-124z"/><path fill="#c9cfcc" d="M698 470l-48 108 248-72z"/><path fill="#fff" d="M386 218L186 414l216-116z"/><path fill="#4b2809" d="M74 878l-136-32 76 240z"/><path fill="#d48da5" d="M646 602L502 746l288 340z"/><path fill="#041372" d="M114 242L46 438-62 222z"/><path fill="#1f76cc" d="M134 566l208-248 204 136z"/><path fill="#fff9d4" d="M82 234l-144-36 144-8z"/><path fill="#67c7ff" d="M574 10l96 48-96 240z"/><path fill="#825340" d="M450 190l80-252 56 340z"/><path fill="#fff" d="M74 158L34 86h80z"/><path fill="#e6a7c4" d="M122 750l-92 336 100-140z"/><path fill="#ffb3b9" d="M842 1042l-60-132-32 160z"/><path fill="#fff" d="M202 650L78 550l32-56z"/><path fill="#6b4a57" d="M638 738l260 52-360 36z"/><path fill="#bedbf9" d="M270 122l56-84L94-62z"/><path fill="#3aa8f2" d="M290 122l100 100-84 68z"/></g></svg>