<svg xmlns="http://www.w3.org/2000/svg" width="228" height="278" viewBox="0 0 836 1024"><path fill="#666a87" d="M0 0h836v1024H0z"/><g fill-opacity=".502"><path fill="#fff" d="M898 1058l-948-60 76-236z"/><path fill="#002ff0" d="M242 874l312 56-40-840z"/><path fill="#3d240e" d="M-2-62l-60 584L898 42z"/><path fill="#fff" d="M574 1002l132-632-184-140z"/><path fill="#fdf7ff" d="M246 262L82 442l72 528z"/><path fill="#5c2a15" d="M602 522l272-184-204 748z"/><path fill="#040000" d="M898 266l-384-20L782-62z"/><path fill="#e8b196" d="M454 218l40-236-384 228z"/><path fill="#050000" d="M142 18L-62 558 74 802z"/><path fill="#fff" d="M650 1010l-28-164-520 204z"/><path fill="#0041da" d="M566 486L206 306l148 620z"/><path fill="#ffca98" d="M718 438l20 408 152 120z"/><path fill="#d2f4ff" d="M662 346l-320 48 144-156z"/><path fill="#1f1810" d="M598 226l300 476-28-324z"/><path fill="#000830" d="M234 622l8 104L22 606z"/><path fill="#f3ffff" d="M110 394l104-92 40 268z"/><path fill="#00000a" d="M366 370L86 246l348-16z"/><path fill="#da9d78" d="M286 726L86 646l148 344z"/><path fill="#10100f" d="M530-62L38 206-50-62z"/><path fill="#cb9cad" d="M534 90l92-92-16 248z"/><path fill="#001b9c" d="M278 506l268 380-244 8z"/><path fill="#f5fdff" d="M614 598l-108 488 132-156z"/><path fill="#f2f8ff" d="M626 982L270 878l-112 208z"/><path d="M814 786l84-136-112 8z"/><path fill="#11243f" d="M746 1086l-8-404-112 224z"/><path d="M818-62l52 308L554-62z"/><path fill="#a77160" d="M706 70l48 364 124-92z"/><path fill="#eda073" d="M674 530l212 52-140 120z"/><path fill="#d7e5ff" d="M278 590l4 220-68 16z"/><path fill="#005cfb" d="M438 534L234 262l16 268z"/><path fill="#58494e" d="M210 962l-272 40 236 84z"/><path fill="#590e16" d="M754 702L586 430l36 208z"/><path fill="#fffeff" d="M566 538l-64-292 124 32z"/><path fill="#0034cc" d="M538 430l20 476H378z"/><path fill="#0048db" d="M446 346l-28-148 112 144z"/><path fill="#becfd5" d="M342 606l-24-56 164-28z"/><path fill="#fdffff" d="M826 786l-84-88-4 100z"/><path fill="#0c1e3a" d="M510 146l-112 80 368 64z"/><path fill="#d3d2f7" d="M178 622L50 522l196-244z"/><path fill="#f3f7ff" d="M554 866l8-456 64 252z"/></g></svg>