<svg xmlns="http://www.w3.org/2000/svg" width="228" height="278" viewBox="0 0 836 1024"><path fill="#5b6579" d="M0 0h836v1024H0z"/><path fill="#dedcc5" fill-opacity=".667" d="M667.538 1078.819L549.355 750.704l196.412-7.516 142.891 309.704z"/><path fill="#dac5c4" fill-opacity=".698" d="M47.811 880.049L-62 532.899l284.156 220.214-4.1 183.306z"/><path fill="#efa979" fill-opacity=".639" d="M282.719 67.827l253.358 51.678-49.867 261.588-108.975 53.582z"/><path fill="#0e3a7b" fill-opacity=".914" d="M446.811 1086H218.69l8.29-401.73 344.024 35.473z"/><path fill="#072452" fill-opacity=".788" d="M606.974 436.768L767.93 593.71l9.713 97.18-501.095-82.072z"/><path fill="#031e4c" fill-opacity=".753" d="M139.967 447.158L104.79 606.637l163.84-4.748-15.889-284.615z"/><path fill="#30210e" fill-opacity=".565" d="M833.3-27.73L898 383.047 671.164 152.78 649.182-26.389z"/><path fill="#adbfcd" fill-opacity=".749" d="M507.054 694.922l3.825-55.304-272.803-27.69 66.268 82.068z"/><path fill="#f5decf" fill-opacity=".635" d="M207.395 314.455L84.14 434.122 57.587 775.338-62 750.326z"/><path fill="#a6caee" fill-opacity=".647" d="M651.186 383.148l-11.239 55.694L898 746.438 821.286 606.42z"/><path fill="#191308" fill-opacity=".569" d="M191.576 161.4l172.835-82.17 190.585 9.841L426.832-26.14z"/><path fill="#444d5a" fill-opacity=".984" d="M328.955 312.531l129.435 232.35L-62-62h351.084z"/><path fill="#fcf9e2" fill-opacity=".612" d="M352.262 544.61l-18.815-71.015 87.449 18.754-51.878 90.855z"/><path fill="#191102" fill-opacity=".549" d="M209.086 964.32L41.603 894.072-62 996.757l148.043 6.95z"/><path fill="#623a0e" fill-opacity=".722" d="M363.844 318.034L482.62 260.32l-78.147 127.665-6.399 4.626z"/><path fill="#264c8b" fill-opacity=".651" d="M430.224 703.524L643.13 430.638 591.324 219.75 421.118 440.672z"/><path fill="#2889ff" fill-opacity=".302" d="M632.303 1060.543l-31.116-170.75-27.793-164.685-215.44 222.175z"/><path fill="#f3f2e4" fill-opacity=".596" d="M467.295 437.883l-16.849 34.915 87.051 15.532 9.517-32.745z"/><path fill="#6579a0" fill-opacity=".804" d="M-9.065 828.374l246.321-105.647L38.092 617.13l53.598 99.033z"/><path fill="#071530" fill-opacity=".839" d="M674.257 521.22l-78.39-44.073-141.275 164.052 333.325-65.173z"/><path fill="#fcf7ed" fill-opacity=".196" d="M193.908 153.924L-25.206 318.619l380.173 101.279-87 30.726z"/><path fill="#010820" fill-opacity=".875" d="M263.355 1086h-104.59l411.198-168.73-275.083 74.551z"/><path fill="#fffedc" fill-opacity=".231" d="M805.417 332.499l-92.85 203.507-36.582-59.755-6.032-253.546z"/><path fill="#e6b79e" fill-opacity=".706" d="M401.162 80.002l148.194 128.425-236.79 7.155 11.926-127.55z"/><path fill="#c2ffbf" fill-opacity=".369" d="M701.55 937.957l67.3-71.608-207.908-184.373 4.336 245.319z"/><path fill="#183f7f" fill-opacity=".749" d="M143.149 406.778l232.406-6.067-6.982 37.377-41.54-180.242z"/><path fill="#3b3d58" fill-opacity=".8" d="M562.152 152.953l-60.17 78.324 3.814 73.8 131.842 56.194z"/><path fill="#013885" fill-opacity=".529" d="M363.19 518.805l-153.793-64.286 166.838-21.612-180.58 323.947z"/><path fill="#ffc293" fill-opacity=".651" d="M796.295 663.953l-25.766 13.499 84.288 36.033L898 553.98z"/><path fill="#ecf5f5" fill-opacity=".702" d="M244.673 675.054l73.578-59.039-.633 77.368-79.366-52.655z"/><path fill="#254571" d="M354.632 699.717l41.996-39.02-7.023-10.637-5.38-56.67z"/><path fill="#2b3d5c" fill-opacity=".796" d="M636.596 583.34l248.53 166.755-342.209-52.233-29.777-33.67z"/><path fill="#c45d78" fill-opacity=".553" d="M721.715 944.132L691.29 1086l182.48-174.193 24.23-74.48z"/><path fill="#ffceba" fill-opacity=".788" d="M172.868 911.467L35.578 848.49l24.957-60.894 74.75 16.62z"/><path fill="#0f356f" fill-opacity=".941" d="M327.32 660.946l-21.465-125.23-101.573 79.806 177.835-54.507z"/><path fill="#07153a" fill-opacity=".855" d="M387.314 768.364l87.814-57.468L206.93 985.504l25.034-58.85z"/><path fill="#65b5ff" fill-opacity=".306" d="M313.38 934.895L133.21 1086l111.13-266.526.6 266.526z"/><path fill="#2b1316" fill-opacity=".42" d="M389.012 126.142L219.34 252.728l12.86-69.973 189.628-7.658z"/><path fill="#fed7be" fill-opacity=".682" d="M7.499 645.258l-65.38 213.767L91.03 589.22l-27.446-53.38z"/><path fill="#7788a1" fill-opacity=".941" d="M114.336 519.72l46.094 38.845-92.3-25.919 35.994-267.122z"/><path fill="#eaf8ed" fill-opacity=".71" d="M476.423 976.306l10.584-19.583 51.497-4.855 12.318 15.25z"/><path fill="#140500" fill-opacity=".408" d="M225.154 495.374l-57.2 102.432-118.786 69.721 234.176-328.366z"/><path fill="#5376d7" fill-opacity=".314" d="M449.985 732.105l274.285 46.89L898 1034.378l-110.654-336.85z"/><path fill="#21559b" fill-opacity=".608" d="M691.528 586.872l96.27 84.827 57.15-72.774-177.794-37.819z"/><path fill="#d4e1e2" fill-opacity=".584" d="M516.544 701.71l-6.561-72.898-73.112 75.914-162.854-25.383z"/><path fill="#ff9342" fill-opacity=".376" d="M13.25 704.775l32.083-90.814 50.79-38.553-15.376 174.587z"/><path fill="#f1ffff" fill-opacity=".471" d="M338.467 408.46l-71.312-11.021-1.22 35.86 70.276 7.585z"/><path fill="#45495f" fill-opacity=".839" d="M-4.908 346.958L-62 796.268 42.31 556.242 34.428 386.47z"/><path fill="#94c1e2" fill-opacity=".451" d="M253.483 546.15l76.162-37.707-37.429-22.74-46.467 4.524z"/><path fill="#123469" d="M440.812 707.545l46.671-86.717-251.033-70.37 218.866 22.406z"/><path fill="#030220" fill-opacity=".459" d="M606.625 951.736l-143.852-2.777-10.035-9.078 109.177-21.819z"/><path fill="#376eff" fill-opacity=".729" d="M36.503 810.57l-.183-40.926 43.003-25.15L99.42 776.51z"/><path fill="#dee9e7" fill-opacity=".69" d="M408.182 697.986l19.043-36.699 32.622-21.46-74.898-10.675z"/><path fill="#00245a" fill-opacity=".725" d="M225.087 736.69l-15.974-49.383 30.84-316.812-1.267 324.498z"/><path fill="#ce5c16" fill-opacity=".365" d="M164.984 933.84l-58.476-3.587-78.724-26.995 88.559-49.762z"/><path fill="#4f5457" fill-opacity=".839" d="M-19.53-14.072L376.112-62l-74.62 201.238-254.735 57.067z"/><path fill="#4bc30b" fill-opacity=".227" d="M571.093 821.275l-11.479-11.643 100.322 44.384-18.801 155.605z"/><path fill="#1f0e00" fill-opacity=".29" d="M472.646 139.42l120.16-177.484-259.79 86.073 62.99 24.286z"/><path fill="#ffc4a0" fill-opacity=".494" d="M530.214 174.667l-128.081 7.66 107.026 122.188-55.687 99.307z"/><path fill="#f5fbff" fill-opacity=".424" d="M578.792 909.335l2.95 77.854 23.803-7.07-21.14-83.824z"/><path fill="#4695ff" fill-opacity=".302" d="M548.725 918.12l-220.194 55.413-116.909 43.241L308 928.564z"/><path fill="#312c38" fill-opacity=".6" d="M415.188 262.196l-89.552-9.794-74.906-175.43-23.579 197.962z"/><path fill="#0e3f93" fill-opacity=".6" d="M389.04 1005.57l169.373-42.227 69.052 51.88-347.126 37.642z"/><path fill="#3e2301" fill-opacity=".498" d="M837.598 759.108L659.505 594.514l150.029 101.16L898 740.651z"/><path fill="#ceeeff" fill-opacity=".451" d="M722.716 477.97l-98.53-98.31 94.321 168.745 36.67-4.076z"/><path fill="#fff9ec" fill-opacity=".322" d="M395.507 217.583l-103.162 5.045L406.189 92.536l-103.773 2.106z"/><path fill="#1a3d74" fill-opacity=".855" d="M413.034 520.911l95.534-163.752-125.724 93.52 238.208 86.99z"/><path fill="#0158ce" fill-opacity=".251" d="M51.156 552.751l28.603-29.285L258.98 268.95 124.514 591.449z"/><path fill="#2558aa" fill-opacity=".58" d="M573.066 301.156L694.33 519.298l-60.177-54.203-182.194-50.599z"/><path fill="#000c3c" fill-opacity=".627" d="M337.376 921.399l-17.984 38.686 107.06-80.858 49.209-85.613z"/><path fill="#504d54" fill-opacity=".608" d="M713.17 457.546l181.857-53.578-119.66-203.154L898 693.543z"/><path fill="#06285d" fill-opacity=".733" d="M236.602 672.715l271.573 66.943-74.28-29.967-130.78 93.409z"/><path fill="#dbdefb" fill-opacity=".251" d="M655.907 724.649l156.875 93.603-86.38 123.274-69.388-101.276z"/><path fill="#cdf4ff" fill-opacity=".4" d="M189.289 323.804L17.186 664.721-62 769.71l222.451-417.684z"/><path fill="#03020c" fill-opacity=".698" d="M635.645 527.495l94.418 110.085-87.36-54.594L455.22 639.6z"/><path fill="#f2fcfe" fill-opacity=".761" d="M333.19 693.41l16.449 4.96 14.853-52.313-9.517-30.69z"/><path fill="#020607" fill-opacity=".2" d="M193.833 997.924l8.689-117.911-254.418 137.46 314.877-72.628z"/><path fill="#5b5e5d" fill-opacity=".718" d="M134.798 650.016l80.105-142.053 2.58 171.563-2.908-69.012z"/><path fill="#f5f0dc" fill-opacity=".424" d="M352.02 470.751l-13.575 51.55 37.112 50.322 20.567-90.756z"/><path fill="#6d8eaa" fill-opacity=".467" d="M484.139 622.22l-11.855-123.663 66.465 58.78L464.407 578z"/><path fill="#67645d" fill-opacity=".341" d="M596.31 388.524L784.817 254.45 601.373-62 507.642 84.326z"/><path fill="#205bae" fill-opacity=".792" d="M532.994 924.098l49.875-124.32 8.729 55.264-132.079-34.394z"/><path fill="#c7a69f" fill-opacity=".608" d="M446.24 404.177l-70.492 48.195 143.176-156.138-39.952 79.734z"/><path fill="#a3d8ff" fill-opacity=".333" d="M212.62 708.558l-53.38 39.875 72.561 191.68-15.358-198.483z"/><path fill="#437bc8" fill-opacity=".416" d="M417.541 821.156l-209.086 229.893 149.13-150.661 273.55-260.748z"/><path fill="#1342a0" fill-opacity=".627" d="M898 997.633V831.137l-86.332-90.339-35.324-11.178z"/><path fill="#eaf8ff" fill-opacity=".631" d="M262.145 607.237l-19.15-4.826-3.692 32.342 26.735-15.846z"/><path fill="#7d7b7d" fill-opacity=".494" d="M135.956 397.808l-56.932 99.32L1.917 209.843l166.452-72.478z"/><path fill="#fddaeb" fill-opacity=".196" d="M566.164 668.251l3.42 32.688L607.068 570.6l-43.476 348.812z"/><path fill="#0b2a5f" fill-opacity=".671" d="M553.878 428.718l-29.464 182.19 105.565-159.072-231.962-12.949z"/><path fill="#eef8fe" fill-opacity=".49" d="M321.858 669.18l-68.363 12.24-16.193-34.971 76.967 38.666z"/><path fill="#1b407d" fill-opacity=".706" d="M519.92 505.123L208.748 329.967l134.395-38.247 4.03 175.94z"/><path fill="#00307e" fill-opacity=".357" d="M523.075 767.453L493.31 510.864l91.426 268.62 8.554-22.648z"/><path fill="#0e3875" fill-opacity=".753" d="M421.68 643.096l101.217-123.208-253.06 86.53 57.948-91.525z"/><path fill="#565554" fill-opacity=".706" d="M-61.434 905.535L47.863 945.84 37.078 811.124-62 647.322z"/><path fill="#132a5b" fill-opacity=".996" d="M463.763 639.396l-34.368 31.764 38.344 102.105-56.687 43.231z"/><path fill="#697f83" fill-opacity=".471" d="M116.311 796.604l53.717 33.856-33.34-232.168L65.89 671.05z"/><path fill="#ebf7f4" fill-opacity=".592" d="M456.274 713.255l27.088-82.661-1.053 3.652 26.203-3.465z"/><path fill="#c9c9b3" fill-opacity=".388" d="M192.298 1010.566l-80.353-5.779L38.12 1086h288.598z"/><path fill="#000828" fill-opacity=".533" d="M206.519 960.308l163.108-178.611-165.4 216.936 15.162-11.583z"/><path fill="#09030c" fill-opacity=".427" d="M368.622 1044.893L347.894 1086l79.934-84.207 135.408-40.424z"/><path fill="#698ab5" fill-opacity=".929" d="M790.6 577.373l-59.047 61.037 81.85-42.745-68.26-80.147z"/><path fill="#0e0e00" fill-opacity=".157" d="M669.98 207.358l106.588-17.724L860.773-62l-240.04 225.112z"/><path fill="#dff7f6" fill-opacity=".278" d="M443.703 510.107l16.777 45.348 49.636 6.123-73.672-14.099z"/><path fill="#000018" fill-opacity=".431" d="M242.237 634.461l-36.552-237.523-74.008 219.135 71.89-103.062z"/><path fill="#432e02" fill-opacity=".373" d="M424.894 372.768l-55.088-48.704 106.436-78.005-91.068 130.107z"/><path fill="#d8b6a8" fill-opacity=".153" d="M127.316 244.923L43.505 355.355l437.132-77.012-276.428 8.033z"/><path fill="#679fd5" fill-opacity=".416" d="M277.028 871.158l-72.952 20.017-1.228 155.198-9.523-65.676z"/><path fill="#b57a66" fill-opacity=".996" d="M500.482 166.729l-5.31 14.31 42.77 11.24 1.7-39.23z"/><path fill="#fffdf0" fill-opacity=".361" d="M458.201 438.126l73.79 18.798-6.757 6.687-63.173 24.541z"/><path fill="#0d356f" fill-opacity=".545" d="M244.284 598.835l100.545 19.101-30.807 201.76 23.286-316.219z"/><path fill="#222d5b" fill-opacity=".525" d="M554.38 223.016l-49.373.804 4.1 81.861 103.547 53.8z"/><path fill="#9e9994" fill-opacity=".224" d="M617.076 219.467l123.936 252.326 72.815-21.666-34.883-179.629z"/><path fill="#10376f" fill-opacity=".765" d="M299.818 588.465l-3.212-46.304-28.218 4.68-1.522 121.3z"/><path fill="#deebee" fill-opacity=".6" d="M262.43 686.384l33.32-76.02 24.45 13.103.258 40.782z"/><path fill="#fdf0e3" fill-opacity=".718" d="M847.952 694.837l-.989-72.687L814.089 645l-1.207 14.815z"/><path fill="#ffc7ab" fill-opacity=".494" d="M375.03 243.623l-38.965 16.708 69.577-74.334 132.03-43.339z"/><path fill="#040000" fill-opacity=".576" d="M440.99 73.16l73.088-30.544L342.784 55.6l-4.347 14.453z"/><path fill="#fffff3" fill-opacity=".529" d="M79.865 562.522L6.425 677.115l38.295 75.257L-62 704.353z"/><path fill="#ffb9e1" fill-opacity=".349" d="M898 1006.269L818.107 1086l-47.898-80.613 35.105-55.024z"/></svg>