<svg xmlns="http://www.w3.org/2000/svg" width="228" height="278" viewBox="0 0 836 1024"><path fill="#5e6f7f" d="M0 0h836v1024H0z"/><g fill-opacity=".502"><path fill="#fff" d="M-62 1006l196-336 148 416zm628-232l332 52-208 260z"/><path fill="#462a1b" d="M838-62l36 1048L190 74z"/><path fill="#001c69" d="M214 778l320 308 156-692z"/><path fill="#388fd6" d="M222 1086l-76-788 504 44z"/><path fill="#cdd1b9" d="M-22-18h364L-62 626z"/><path fill="#fff" d="M210 798l-60 288L2 766z"/><path fill="#f6fff4" d="M574 838l244-72 36 320z"/><path fill="#00d2ff" d="M614 958l60 128 224-108z"/><path fill="#53290f" d="M318-62L750-2 342 426z"/><path fill="#9cb9c6" d="M362 622L114 322l176-216z"/><path fill="#183556" d="M810 678L38 730l372 176z"/><path fill="#976f59" d="M358 230L-62 126l516-80z"/><path fill="#000842" d="M130 378l48 124-204 108z"/><path fill="#a8a186" d="M642 214L610 62l288 56z"/><path fill="#b86241" d="M882 710l-92 240-40-428z"/><path fill="#fff" d="M594 778l36 204 160-92z"/><path fill="#155ea8" d="M230 1086l452-80-492-312z"/><path fill="#d7ffff" d="M-62 1018l260-256 4 324z"/><path fill="#001330" d="M514 546l124-140-64 540z"/><path fill="#2f7dc4" d="M174 522l356-232 172 152z"/><path fill="#2a2319" d="M298 226l600 208V198z"/><path fill="#90846c" d="M126 522l96 272-284-24z"/><path d="M294 46l100-76 80 68z"/><path fill="#c4dad3" d="M338-62L286 94-62 34z"/><path fill="#180000" d="M486 186L378 362l-68-124z"/><path fill="#a7d2e2" d="M526 406h-88l64 148z"/><path fill="#357dc6" d="M742 510L626 354l36 220z"/><path fill="#4d3b1f" d="M582 786l204-12-176-220z"/><path fill="#550600" d="M38 558L-62 458l76 272z"/><path fill="#186ebe" d="M106 510l124-236-256 232z"/><path fill="#a2391c" d="M42 862l-60-100 44 196z"/><path fill="#6bc3ff" d="M-54 1038l152-96 268 56z"/><path fill="#00caff" d="M898 978l-196 108-76-104z"/><path fill="#222104" d="M534 34l364 60L794-62z"/><path fill="#fffff5" d="M78 1014l136-180-200-48z"/><path fill="#c2d2e8" d="M410 370l-192 20 20-52z"/><path fill="#13396e" d="M542 634l-224 428 316-40z"/><path fill="#de8f69" d="M314 142l12 64 136-36z"/><path fill="#b5bbba" d="M338 510l-68 100 224-100z"/></g></svg>