<svg xmlns="http://www.w3.org/2000/svg" width="228" height="278" viewBox="0 0 836 1024"><path fill="#495154" d="M0 0h836v1024H0z"/><path fill="#ececdf" fill-opacity=".686" d="M633.124 152.541L898 231.107l-58.022-286.37-250.055-3.903z"/><path fill="#becabf" fill-opacity=".859" d="M585.827 583.927l-322.813 8.386 31.192-89.115 324.707-3.6z"/><path fill="#0c2a13" fill-opacity=".776" d="M41.28 661.386l463.702 188.259 91.507-255.177-413.777-.904z"/><path fill="#0a1606" fill-opacity=".722" d="M685.834 1004.519L117.059 1086l32.31-288.066-6.303 45.29z"/><path fill="#ffb085" fill-opacity=".529" d="M147.9 552.512L36.31 599.178 318.086 868.08 42.574 759.127z"/><path fill="#ef935a" fill-opacity=".486" d="M454.37 88.017l163.81-1.624L550 322.85 367.444 200.063z"/><path fill="#161916" fill-opacity=".925" d="M257.753 595.692l111.37-301.267L175.717 411.47l-70.982 268.81z"/><path fill="#080b06" fill-opacity=".788" d="M606.932 296.962l13.333 272.973 71.043 99.611 75.578-100.85z"/><path fill="#ffac7c" fill-opacity=".341" d="M656.612 1022.072l119.127 37.956 58.266-193.13-86.187-319.186z"/><path fill="#f8f8fe" fill-opacity=".529" d="M170.718 174.98l26.464 144.092 60.154 72.182-38.549-195.61z"/><path fill="#2f2c1c" fill-opacity=".996" d="M602.328 346.75l-176.58-91.515 26.377 327.287 40.59-143.794z"/><path fill="#173d78" fill-opacity=".624" d="M6.363-52.318L-62 762.464 2.832 830.49l203.386-685.856z"/><path fill="#b97850" fill-opacity=".722" d="M441.542 938.965l19.06-104.689L41.23 759.381l272.13 124.796z"/><path fill="#e7f1fe" fill-opacity=".482" d="M71.668 658.817l7.209-164.168 54.098 7.006-15.877 131.936z"/><path fill="#053a91" fill-opacity=".506" d="M369.433 262.254L382.184 1.661l-171.53-8.885 24.199 301.02z"/><path fill="#00378d" fill-opacity=".455" d="M544.577 134.268l271.768 78.642L898 1086 757.126 452.3z"/><path fill="#d8d9cf" fill-opacity=".557" d="M75.87 1038.786l10.412-174.71 29.684 138.538 17.646 15.476z"/><path fill="#003889" fill-opacity=".565" d="M669.094 621.837l-1.36 180.867-163.17 66.177 96.717-287.257z"/><path fill="#d3d5e3" fill-opacity=".898" d="M789.709 995.52l-61.728-9.011 11.83 99.491 66.074-8.293z"/><path fill="#1c1c15" fill-opacity=".592" d="M882.681 1056.878L898 905.7 7.71 1086l630.468-196.343z"/><path fill="#5d8469" fill-opacity=".996" d="M400.576 432.86L243.38 412.163l181.335 89.863-59.345 95.545z"/><path fill="#f1edea" fill-opacity=".592" d="M262.097 296.907l6.006 2.748 38.674 53.024 6.75-64.798z"/><path fill="#0c0d0a" fill-opacity=".733" d="M532.115 566.778l-37.193-1.037-137.024 241.44 73.181 13.005z"/><path fill="#fffbfb" fill-opacity=".549" d="M200.94 360.459l-41.925 26.921 39.199 37.086-.84-9.47z"/><path fill="#f56f11" fill-opacity=".275" d="M683.284 1086L667.61 666.773l101.97 13.196-36.703 327.401z"/><path fill="#5d9662" fill-opacity=".616" d="M208.554 604.659l31.174 75.65L75.384 850.77l11.004 72.83z"/><path fill="#fffef7" fill-opacity=".404" d="M654.553 377.272l-70.501-113.728-20.819 50.017 99.16 12.165z"/><path fill="#421f05" fill-opacity=".471" d="M391.591-62l-11.187 245.849L481.818 79.692l157.457 30.722z"/><path fill="#121311" fill-opacity=".91" d="M320.73 650.926L87.147 552.697l195.613-61.935-46.908 313.12z"/><path fill="#0b3570" fill-opacity=".659" d="M753.863 867.32l10.533-91.077 3.663-39.555 107.846-64.878z"/><path fill="#b78162" fill-opacity=".965" d="M49.817 684.26l8.824-16.006 375.87 240.532L36.794 725.529z"/><path fill="#e0f0d8" fill-opacity=".337" d="M558.23 366.108l44.96 247.553 17.912-126.156-87.381-50.814z"/><path fill="#1a1816" fill-opacity=".808" d="M77.165 1086l-4.776-105.558 457.249 25.192L-62 953.62z"/><path fill="#34422a" d="M-19.62 747.901l124.414 65.803 199.87 148.718 23.904-76.893z"/><path fill="#0f2e1a" fill-opacity=".725" d="M647.554 357.709l-204.382 32.404-109.416 146.883-9.081-32.793z"/><path fill="#2d3640" fill-opacity=".984" d="M103.784 257.673l-81.706-9.183-8.699 61.526 136.995 216.276z"/><path fill="#ebe8e7" fill-opacity=".659" d="M141.246 452.7l14.842-33.71 11.21 58.69-32.674-10.73z"/><path fill="#0c110e" fill-opacity=".694" d="M702.814 429.657l15.674 259.887L603.81 572.422l74.755-259.643z"/><path fill="#a1c1d3" fill-opacity=".439" d="M818.294 789.64L898 952.107l-94.907-37.44-26.325-119.955z"/><path fill="#7f5637" fill-opacity=".937" d="M377.608 355.554l99.857 23.551-50.544-71.726 9.57-226.983z"/><path fill="#c1d6fc" fill-opacity=".22" d="M127.085 18.158L81.505-62l-2.204 171.278 143.79-45.175z"/><path fill="#0e0e0d" fill-opacity=".725" d="M283.265 1086L68.408 888.564 23.854 963.99l198.933-116.01z"/><path fill="#225430" fill-opacity=".992" d="M422.055 582.884l-68.628 244.214-95.574-44.31L368.28 608.186z"/><path fill="#0f0e0c" fill-opacity=".851" d="M304.537 574.681l-.383 130.076-32.005 86.59-83.535-33.065z"/><path fill="#101a13" fill-opacity=".596" d="M576.11 571.624l25.23-109.166-31.998 226.732L415.692 1086z"/><path fill="#fdc59c" fill-opacity=".408" d="M581.356 117.029l-81.05-45.66-26.669 64.045 130.708 23.825z"/><path fill="#0c0b17" fill-opacity=".561" d="M648.48 290.014l-63.764 87.351 25.776-112.4-140.087-9.914z"/><path fill="#f3f7f2" fill-opacity=".522" d="M391.033 508.311l-44.254 89.308 66.39-4.258-139.416-39.338z"/><path fill="#0a1209" fill-opacity=".565" d="M524.983 464.965l-83.376 32.85-88.72-234.54-42.516 35.28z"/><path fill="#f4fef9" fill-opacity=".314" d="M464.727 565.09l11.298-74.995 142.304 18.697-9.827 71.247z"/><path fill="#37a542" fill-opacity=".259" d="M390.393 947.427l212.2-486.86L450.62 977.054 347.23 964.33z"/><path fill="#151615" fill-opacity=".933" d="M52.312 675.174l117.331 15.54 113.342-399.62-153.16 337.898z"/><path fill="#7b8288" fill-opacity=".565" d="M596.71-62l7.32 191.187 118.543 37.972-48.027 109.837z"/><path fill="#37cd60" fill-opacity=".369" d="M324.392 490.474l19.46-136.927 74.264 32.117-10.69 123.585z"/><path fill="#fcf3e8" fill-opacity=".525" d="M196.122 280.633l42.686 75.35-31.454-156.93-28.991 3.286z"/><path fill="#1f3a65" fill-opacity=".922" d="M164.325 375.11l-48.16 140.227-9.079-153.533 144.74-55.456z"/><path fill="#fff3e5" fill-opacity=".224" d="M623.218 292.856l85.486 59.117 8.845 171.444 18.161-79.136z"/><path fill="#302e25" fill-opacity=".816" d="M701.315 882.366l-84.767 64.09-201.343-71.724L614.198 1086z"/><path fill="#01266c" fill-opacity=".573" d="M-62 114.778l447.805 41.645L4.884 224.778-62-6.378z"/><path fill="#04255f" fill-opacity=".541" d="M577.585 272.598l20.118-93.108 54.01-53.708-3.408 182.832z"/><path fill="#111913" fill-opacity=".631" d="M369.901 397.095l-135.556 38.827-50.908-90.216 201.341 46.613z"/><path fill="#cc987c" fill-opacity=".553" d="M357.255 186.898l31.288-31.417 170.91 110.507 38.062-78.596z"/><path fill="#c1c1c5" fill-opacity=".525" d="M131.004 489.481l-67.15 158.92 22.255-139.796 62.72 47.16z"/><path fill="#2b7f89" fill-opacity=".447" d="M36.689 775.455l128.573 76.818-8.546 39.945L-62 850.685z"/><path fill="#fcd2a2" fill-opacity=".173" d="M794.712 126.442L259.747-51.718l91.576 178.756L363.738-62z"/><path fill="#fff" fill-opacity=".31" d="M163.627 980.864l-70.822-29.46L85.765 1086 75.54 917.843z"/><path fill="#0e0e0e" fill-opacity=".898" d="M178.941 917.21l310.239 102.95L222.675 1086 92.227 913.834z"/><path fill="#39754d" fill-opacity=".914" d="M494.322 569.769l10.115-127.249 66.01-90.492-14.62-5.668z"/><path fill="#43fd9e" fill-opacity=".282" d="M324.22 922.513l-72.804-33.4-16.244 25.74 93.346 33.889z"/><path fill="#311600" fill-opacity=".349" d="M518.48 129.896l-71.255 55.211 173.322-40.57-58.55 41.644z"/><path fill="#111613" fill-opacity=".639" d="M789.939 578.018l27.719-40.149-142.613 5.645-144.211 56.503z"/><path fill="#bf8366" fill-opacity=".616" d="M464.249 840.604L249.1 856.824l-27.403-13.388 188.368-36.588z"/><path fill="#fcfffe" fill-opacity=".42" d="M447.632 485.798l-25.396 21.557-55.738 100.92 80.401-27.668z"/><path fill="#143770" fill-opacity=".984" d="M737.504 498.454L898 506.947V396.06l-173.138-7.336z"/><path fill="#678170" fill-opacity=".871" d="M540.854 458.09l52.857 78.796-3.77-143.694-64.62 173.895z"/><path fill="#8f908c" fill-opacity=".659" d="M775.458 191.107l35.261 53.386L898 185.114l-277.294-22.561z"/><path fill="#ffce5f" fill-opacity=".208" d="M-62 220.32l42.142 47.701 92.599-8.604 64.051-29.275z"/><path fill="#fbf9f7" fill-opacity=".675" d="M245.83 356.767l-17.935-13.957 18.803-23.79 16.706 12.8z"/><path fill="#0b0c0b" fill-opacity=".616" d="M401.146 584.264l109.769 30.393-69.294 210.726-47.173-23.248z"/><path fill="#77553e" fill-opacity=".745" d="M355.623 201.374l225.64 85.35-2.876 10.837-53.365 33.114z"/><path fill="#163161" fill-opacity=".714" d="M91.294 934.469l-55.4-198.178L5.358 547.003l-38.832 190.048z"/><path fill="#8e9993" fill-opacity=".796" d="M313.606 423.568l90.38 10.82-35.845 16.596-102.026-11.461z"/><path fill="#00184e" fill-opacity=".592" d="M667.836 756.296l2.698 73.15-100.833-21.169-46.567-45.577z"/><path fill="#5080a8" fill-opacity=".325" d="M623.463 570.95l59.73 76.852-92.65 80.784-18.235-60.698z"/><path fill="#282d29" fill-opacity=".667" d="M898 952.225l-151.097-32.822-16.036 73.417 66.986-13.407z"/><path fill="#16120a" fill-opacity=".525" d="M487.11 283.21l9.299 219.513-37.819-70.553-83.973 152.507z"/><path fill="#18201c" fill-opacity=".906" d="M683.89 314.81l19.92 173.883 9.245-81.283-114.837 87.712z"/><path fill="#0f100f" fill-opacity=".788" d="M335.294 466.362L135.78 486.315l-2.15 29.477 37.237 76.71z"/><path fill="#312312" fill-opacity=".635" d="M559.036 37.938L359.46 55.573l200.562 32.546 52.35 48.011z"/><path fill="#8e99ac" fill-opacity=".561" d="M324.614 109.303l-6.817 32.77-48.596-23.42 27.018-14.977z"/><path fill="#d5c29b" fill-opacity=".325" d="M740.647 600.462l50.082 24.795 8.428 40.744-41.89 51.407z"/><path fill="#d8e2ff" fill-opacity=".412" d="M51.492 638.583l19.798-43.826 56.261-1.51-28.599 61.948z"/><path fill="#fdf9f9" fill-opacity=".494" d="M116.647 1012.9l33.577 33.368-48.36-60.024-37.293 42.399z"/><path fill="#fefcf9" fill-opacity=".533" d="M621.888 329.74l33.606-18.73 12.758 22.944-20.294 21.995z"/><path fill="#611600" fill-opacity=".29" d="M32.134 763.742l109.874 75.92 157.745 50.55L70.819 739.21z"/><path fill="#2c2c27" fill-opacity=".984" d="M66.378 932.3L-38.56 896.519-2.324 1086l72.35-135.96z"/><path fill="#0f4422" fill-opacity=".898" d="M461.462 748.738l126.903-162.924-97.896 4.407 46.408-45.96z"/><path fill="#dee2dd" fill-opacity=".741" d="M295.35 492.674l27.352 23.723 1.974 42.642-47.472 10.176z"/><path fill="#211c13" fill-opacity=".635" d="M423.198 218.24l-63.946 106.052 137.05 127.4-179.091-128.634z"/><path fill="#111e14" fill-opacity=".576" d="M501.76 680.67l-363.909-75.31-25.688-90.605-20.436 44.549z"/><path fill="#e1e0de" fill-opacity=".478" d="M302.947 358.358l-11.37-61.253-27.463 16.044 61.714-6.415z"/><path fill="#fff" fill-opacity=".431" d="M580.157 524.764l-70.472-16.619 67.694 72.669-64.249 12.317z"/><path fill="#494b4c" fill-opacity=".941" d="M94.921 439.226l-28.16 2.96-40.876-98.881 75.7-13.239z"/><path fill="#ac8062" fill-opacity=".847" d="M691.288 942.16l77.585-205.502-23.845 173.439-23.153 171.1z"/><path fill="#d4d1cd" fill-opacity=".416" d="M697.255 528.711l37.648-56.42-15.534-1.107-6.465 23.289z"/><path fill="#f2d6c5" fill-opacity=".22" d="M106.445 864.456l-165.358 49.321L5.643 804.49l18.893 61.505z"/><path fill="#fff" fill-opacity=".275" d="M489.744 497.075l92.78 88.483-112.677-23.305 135.767-66.167z"/><path fill="#181c18" fill-opacity=".98" d="M629.167 378.991l34.888 67.005-117-102.673 3.11-39.95z"/><path fill="#355785" fill-opacity=".8" d="M67.556 522.064l21.11 49.447-56.093 73.218-30.22-136.173z"/><path fill="#d1d8d2" fill-opacity=".596" d="M303.089 596.169l86.793-104.056-19.995 93.345-26.03 10.755z"/><path fill="#ffbda9" fill-opacity=".235" d="M415.292 326.75L373.41 196.71l10.125-1.767 33.83-16.185z"/><path fill="#e2e5e4" fill-opacity=".427" d="M701.05 417.765l-8.68-70.848 19.058 15.686 6.426-34.881z"/><path fill="#00153c" fill-opacity=".314" d="M209.287 150.025L212.017-62l43.337 189.874 41.736 305.104z"/><path fill="#fdfcfb" fill-opacity=".486" d="M595.737 513.567l25.61-36.985-14.27 84.272-11.463 21.324z"/><path fill="#ecfff4" fill-opacity=".282" d="M577.085 476.623l-27.216-56.58-7.862-57.505 47.282 102.563z"/><path fill="#14386e" fill-opacity=".663" d="M499.986-62H347.5l28.123 325.266-140.598-38.132z"/><path fill="#0c130f" fill-opacity=".569" d="M332.047 645.991l10.963-90.188-83.991 182.557-25.663-191.394z"/><path fill="#c9cac0" fill-opacity=".765" d="M898 162.055v-29.75L612.819-62l42.611 194.946z"/><path fill="#1f75e6" fill-opacity=".118" d="M111.641-61.577L206.69 343.17-62 40.52 16.814-62z"/><path fill="#0e223e" fill-opacity=".431" d="M527.33 158.937L876.824 265.12 837.76 319.9l-75.002-116.815z"/></svg>