<svg xmlns="http://www.w3.org/2000/svg" width="228" height="278" viewBox="0 0 836 1024"><path fill="#723f3e" d="M0 0h836v1024H0z"/><g fill-opacity=".502"><path fill="#9fa19e" d="M370 978L-62 362l72 724z"/><path fill="#94a9a8" d="M622 562l212 524 64-704z"/><path fill="#860000" d="M786 1070L498 94l-220 972z"/><path fill="#1b2c26" d="M10-62L442 74-54 578z"/><path fill="#ff8b88" d="M658 314l-244-60-84 144z"/><path fill="#4c0000" d="M298 522L82 762l20-292z"/><path fill="#dcffff" d="M-62 510l160 4-12 76z"/><path fill="#a29385" d="M334 614l172-236 28 188z"/><path fill="#0f2423" d="M182 38l320 236 396-32z"/><path fill="#960c09" d="M734 518L58 478l624-180z"/><path fill="#b9dcef" d="M630 506l268 144-244-36z"/><path fill="#294759" d="M402-54l484 360L898 2z"/><path fill="#6b0204" d="M482 1086L198 586l492 128z"/><path fill="#8f989f" d="M322 898l-60-196-220-92z"/><path fill="#bfffff" d="M326 382l48 20 76-92z"/><path fill="#96684c" d="M202 270l380-140-464 40z"/><path fill="#aa7b6c" d="M878 286l20 364-272-336z"/><path fill="#ff5156" d="M78 458l132-108 160 12z"/><path fill="#ddb6bb" d="M54 846l72 240-188-116z"/><path fill="#693b1d" d="M214 730L70 654-50 898z"/><path fill="#170100" d="M522 486l108-44 176 120z"/><path fill="#fff" d="M786 446l-88 96 116-64z"/><path fill="#cdffff" d="M494 590l44-76-52-12z"/><path d="M410 118l-228 24L290 6z"/><path fill="#deeedc" d="M458 282l-64-76 24 148z"/><path fill="#fff" d="M286 470l-20 36-32-24z"/><path fill="#9dadd6" d="M626 54l100 60-52-104z"/><path fill="#6d2e09" d="M898 646V374L734 538z"/><path fill="#423518" d="M434 274l-68 100-276-72z"/><path fill="#87070b" d="M482 506l-20-196-220 236z"/><path fill="#ae8481" d="M10 426l76-40 32 100z"/><path fill="#ad1c1f" d="M390 934l420 64-92-168z"/><path fill="#ff4441" d="M438 298l308 104-152-124z"/><path fill="#876c68" d="M62 190L278 6 114 74z"/><path fill="#687077" d="M226 598L46 850l140 236z"/><path fill="#080e11" d="M-62 390l344-104-120 104z"/><path fill="#200000" d="M782 998l-384-4 52 92z"/><path fill="#69595d" d="M898 626L730 858l-76-188z"/><path fill="#9c7b7e" d="M898 198L866 18 746 150z"/><path fill="#390000" d="M278 570l-152-72v192z"/></g></svg>