<svg xmlns="http://www.w3.org/2000/svg" width="228" height="278" viewBox="0 0 836 1024"><path fill="#b37f4c" d="M0 0h836v1024H0z"/><path fill="#2b282f" fill-opacity=".871" d="M898 12.807L5.768-62l-60.995 411.766 388.65-238.52z"/><path fill="#f49d2f" fill-opacity=".949" d="M291.26 1086L146.263 427.511 612.427 309.52 825.81 776.79z"/><path fill="#d0e1ff" fill-opacity=".769" d="M18.182 693.424l92.301-409.266-140.548 5.385L6.563 824.747z"/><path fill="#062b96" fill-opacity=".455" d="M405.75 200.272l217.51 148.245 199.116 256 67.974-364.552z"/><path fill="#c0cec5" fill-opacity=".627" d="M238.832-29.989l82.281 338.584-100.311 61.966-7.952-289.698z"/><path fill="#c7a398" fill-opacity=".929" d="M898 116.22L744 314.368l-85.669-126.414-271.81-81.49z"/><path fill="#410200" fill-opacity=".616" d="M590.069 308.442l-176.705 28.212 42.381-194.372 175.507 103.103z"/><path fill="#101e47" fill-opacity=".714" d="M90.183 773.8l-138.38 33.005L-62 965.494l101.15 36.053z"/><path fill="#000221" fill-opacity=".373" d="M225.114 220.527L-14.647-62 95.85 442.664l92.097 8.31z"/><path fill="#f8a346" fill-opacity=".8" d="M395.197 319.929l-255.66 127.673L45.7 1086l203.053-347.404z"/><path fill="#450435" fill-opacity=".451" d="M769.725 867.335L606.15 626.196l36.974 309.945 64.672-25.434z"/><path fill="#3b1814" fill-opacity=".788" d="M191.883 802.79L158.16 980.633l77.695-16.214 10.18-59.308z"/><path fill="#fdb337" fill-opacity=".933" d="M255.172 697.62l-22.49 380.844 416.81-59.08-29.58-143.482z"/><path fill="#c1d4f0" fill-opacity=".6" d="M87.511 976.374l136.857.883 16.608 56.238-275.147-5.622z"/><path fill="#414676" fill-opacity=".769" d="M461.717 103.462l-26.006-59.208 251.992-5.757-15.04 65.85z"/><path fill="#af2b02" fill-opacity=".439" d="M627.048 604.718l32.5-157.665-355.793 227.54-5.141-110.877z"/><path fill="#eafeff" fill-opacity=".306" d="M-48.241 579.291l238.261-308-33.647-19.74-187.47 18.72z"/><path fill="#4179d6" fill-opacity=".525" d="M616.34 274.044l171.788 370.72-20.639-54.973 25.135-255.477z"/><path fill="#86a7ff" fill-opacity=".314" d="M641.056 970.772L844.843 1086 898 830.116 646.714 933.69z"/><path fill="#4f3530" fill-opacity=".976" d="M593.562-62L898 154.449l-97.067 309.303 68.53-487.833z"/><path fill="#0a0500" fill-opacity=".757" d="M12.833-62l-62.355 311.121 117.142 5.672L210.203-50.008z"/><path fill="#d6bbc4" fill-opacity=".514" d="M210.756 620.576l-4.796-65.268-90.194-52.834-131.963 130.64z"/><path fill="#69a9fe" fill-opacity=".349" d="M260.156 734.219l-2.402 145.823-64.485-54.493 42.672-165.896z"/><path fill="#855335" fill-opacity=".729" d="M249.338 15.574l14.268 86.626 9.29 62.13 214.294-61.827z"/><path fill="#ecc4b8" fill-opacity=".573" d="M805.963 543.448l60.947 82.82-102.228 2.96-22.102-76.112z"/><path fill="#f25b00" fill-opacity=".514" d="M195.458 832.02L120.894 1086l-8.674-175.955 163.364-480.82z"/><path fill="#6d7da7" fill-opacity=".427" d="M-62 724.167l124.292-220.17 26.333 310.406-23.819 41.805z"/><path fill="#090013" fill-opacity=".655" d="M697.476 982.279l-3.103 96.19-39.272-4.83-7.042-89.413z"/><path fill="#3b0100" fill-opacity=".384" d="M133.294 477.195L68.72 501.42l35.982-159.38 107.018 4.979z"/><path fill="#ffcfd7" fill-opacity=".216" d="M477.281 201.224L255.044 346.597l-2.49-133.486L774.764 68.79z"/><path fill="#fbad39" fill-opacity=".678" d="M628.708 329.767l-343.055-3.534-41.196 291.992 430.501-227.77z"/><path fill="#4c5656" fill-opacity=".569" d="M111.002 47.89l108.41 41.273-1.764 297.152-103.272-218.563z"/><path fill="#380001" fill-opacity=".306" d="M379.712 345.09l230.128-25.658 88.958-146.674-208.493 70.267z"/><path fill="#3d211a" fill-opacity=".447" d="M752.028 961.97l68.983-18.77 3.977 118.251-75.117-75.56z"/><path fill="#fe6410" fill-opacity=".804" d="M740.169 804.727l2.436 6.753L898 815.874l-133.86 57.61z"/><path fill="#00051e" fill-opacity=".569" d="M575.09 96.964L339.135-62 10.909 78.527 605.82-62z"/><path fill="#720014" fill-opacity=".494" d="M716.981 484.116l-29.995-61.624 7.044 139.218 43.781-18.97z"/><path fill="#ff910f" fill-opacity=".522" d="M431.067 907.085l205.972-73.282-26.053-290.378L286.83 652.467z"/><path fill="#5e3933" fill-opacity=".878" d="M492.961 264.854l26.216 15.296-79.546-105.795 16.5-163.434z"/><path fill="#8a90a8" fill-opacity=".867" d="M180.641 303.755L.89 322.68-62 297.97l237.8-37.035z"/><path fill="#be5800" fill-opacity=".353" d="M828.01 318.314l-104.787-16.787-50.424-35.8 214.757-23.82z"/><path fill="#915e46" fill-opacity=".831" d="M834.29 126.363L713.165-31.44l-51.2 101.195 51.004-24.78z"/><path fill="#fdfbf9" fill-opacity=".753" d="M-62 698.828l105.835-199.29 39.856-163.11-145.691 8.9z"/><path fill="#944c24" fill-opacity=".498" d="M487.864 544.923l170.07-13.934-316.473 96.328-62.485-25.088z"/><path fill="#afb2b8" fill-opacity=".71" d="M46.792 1086h34.202l-8.869-183.919-24.226 1.367z"/><path fill="#1b0000" fill-opacity=".318" d="M622.995 872.49l113.643-63.779-5.299 99.814-91.162 19.988z"/><path fill="#050526" fill-opacity=".396" d="M886.885 179.484l-81.476 97.619 23.483 272.392 65.2 125.626z"/><path fill="#f4f3ff" fill-opacity=".345" d="M749.112 921.308l-12.635 86.387L854.694 1086 638.57 938.344z"/><path fill="#674853" fill-opacity=".698" d="M126.728 949.055l-27.033 110.968 64.206-110.301-37.162 120.02z"/><path fill="#ffce38" fill-opacity=".455" d="M142.166 636.744l33.38 283.057-103.201-41.823 67.951-357.708z"/><path fill="#1c1000" fill-opacity=".506" d="M86.497 1086L-62 880.397l126.21-22.46L25.931 964.97z"/><path fill="#adb7d6" fill-opacity=".38" d="M693.933 162.599l28.497 138.49-123.857-14.94L898 210.314z"/><path fill="#a0a48e" fill-opacity=".408" d="M207.87 17.478l58.807-32.683 10.268 53.581-65.789 351.468z"/><path fill="#fa6a57" fill-opacity=".263" d="M320.94 286.932L39.326 519.713 448.92 300.877l-9.855-280.468z"/><path fill="#fef5ee" fill-opacity=".816" d="M832.429 1064.768L898 883.508v-1.997l-73.392 85.927z"/><path fill="#40210e" fill-opacity=".835" d="M269.223 76.455l42.408 44.573-35 48.249-11.736-54.866z"/><path fill="#fff8ea" fill-opacity=".647" d="M214.468 1086l-105.417-14.268 48.044-71.73 80.67-17.106z"/><path fill="#fdcdb8" fill-opacity=".333" d="M883.7 147.57l-408.15 11.154 1.497-105.08 67.032 56.687z"/><path fill="#b77462" fill-opacity=".855" d="M634.54 629.571l36.642 199.978-28.362 10.804-28.35-209.149z"/><path fill="#565686" fill-opacity=".337" d="M676.674 308.876l-91.827-43.435L818.87 161.43l-186.97 8.905z"/><path fill="#ea0600" fill-opacity=".404" d="M615.362 430.935l-20.654 225.272 44.45-33.985-18.35-88.897z"/><path fill="#6c1a1c" fill-opacity=".424" d="M802.209 692.278l-10.293-2.687-49.85-65.534 146.732 45.814z"/><path fill="#d95a24" fill-opacity=".855" d="M680.975 411.639l-38.111 72.176 1.497-82.12-12.573-78.74z"/><path fill="#edf1f5" fill-opacity=".686" d="M898 917.912l-24.51-85.09-75.505 54.668-17.08-20.64z"/><path fill="#dc3600" fill-opacity=".267" d="M150.124 610.842l101.877 78.754-6.57-212.405-87.843 311.794z"/><path fill="#ee5d17" fill-opacity=".733" d="M600.498 719.001l50.723 340.115-33.436-390.274-118.053 145.782z"/><path fill="#a82100" fill-opacity=".565" d="M390.327 281.285l-66.49-21.963 122.55 77.919 85.27-14.771z"/><path fill="#fcaf37" fill-opacity=".929" d="M819.14 799.186l-83.003 32.554-40.706-140.221 74.672-24.032z"/><path fill="#0067ff" fill-opacity=".216" d="M442.396 23.355l77.052 7.057 41.67 45.823-63.28 48.527z"/><path fill="#c1c3b2" fill-opacity=".663" d="M241.877 348.957l-17.555-240.398 87.67 105.18 16.455 89.3z"/><path fill="#f07d69" fill-opacity=".996" d="M191.978 550.258l-13.754-34.085-37.76 83.035 51.66-9.686z"/><path fill="#241a1d" fill-opacity=".286" d="M201.29 763.623l-26.83 201.28 55.86 15.882 20.865-89.385z"/><path fill="#fd2700" fill-opacity=".357" d="M69.876 884.233l102.055 33.354-.682 36.659-83.36 15.456z"/><path fill="#fbfbee" fill-opacity=".498" d="M183.595 626.765l29.96-29.532-107.124-6.244-8.305-6.163z"/><path fill="#e1acb3" fill-opacity=".71" d="M115.882 954.905l20.992 37.159-45.382 89.291 60.947-112.357z"/><path fill="#9ca332" fill-opacity=".769" d="M523.344 425.737l41.447 12.87-8.746 38.585-41.757-13.122z"/><path fill="#282b36" fill-opacity=".933" d="M155.067 236.458l44.078 38.773 2.757-78.078-15.085-4.576z"/><path fill="#eaa183" fill-opacity=".486" d="M327.342 170.493l124.635 109.27-73.91 1.417 87.892-100.896z"/><path fill="#c3623e" fill-opacity=".937" d="M162.638 433.46l26.033 16.267 113.484-104.501-140.94 64.959z"/><path fill="#050507" fill-opacity=".565" d="M735.974-7.838l137.734 88.724 19.755 11.262L898-62z"/><path fill="#ffa87d" fill-opacity=".204" d="M408.998 86.634l62.892 49.084-103.794 31.124-58.198-94.828z"/><path fill="#f6fdfd" fill-opacity=".592" d="M2.103 1086l46.029-67.517 69.985-10.022-27.238-34.22z"/><path fill="#e97b52" fill-opacity=".329" d="M758.602 1050.854l-29.99-159.23 35.02-27.993 39.006 63.333z"/><path fill="#4c1a02" fill-opacity=".4" d="M439.16 64.934l-93.51 106.047L491.301-62 315.185 74.318z"/><path fill="#dc805d" fill-opacity=".627" d="M356.705 181.964l-38.804 191.3 124.346 5.016-184.535-219.24z"/><path fill="#fdb536" fill-opacity=".651" d="M120.986 500.418l197.777 72.765 265.835-47.86-279.203-163.768z"/><path fill-opacity=".737" d="M203.503-18.33L-3.353 146.66-62-62 194.91 67.883z"/><path fill="#ea7002" fill-opacity=".302" d="M80.633 512.301l20.527-63.828 177.185 176.77 56.727-129.451z"/><path fill="#fdc64b" fill-opacity=".522" d="M446.324 909.629l-208.722 17.703-9.637 123.498 219.303-48.385z"/><path fill="#2e0d0b" fill-opacity=".518" d="M178.762 903.66l1.29-17.366 63.706 18.52-106.444 99.002z"/><path fill="#26130b" fill-opacity=".439" d="M139.128 406.836l64.932-139.663-7.88 98.006-56.119 90.082z"/><path fill="#1e0e0d" fill-opacity=".471" d="M399.682 237.83l204.3 35.794 34.643-39.65-180.392-10.743z"/><path fill="#f4ba93" fill-opacity=".455" d="M723.87 90.503L898 158.78l-163.637-7.58-196.661 22.843z"/><path fill="#8c573f" fill-opacity=".6" d="M585.974 233.268l-24.383-71.096-202.29 12.634 37.772-21.794z"/><path fill="#837890" fill-opacity=".494" d="M895.051 574.35L759.3 571.724l30.048-284.717L804.28 538.36z"/><path fill="#4e53a4" fill-opacity=".298" d="M660.413-30.53L595.052-62l47.009 181.305 55.755-26.815z"/><path fill="#1a64bf" fill-opacity=".282" d="M650.469 314.572l95.388 255.85 18.772-129.361 1.688-116.817z"/><path fill="#e0f5fe" fill-opacity=".267" d="M794.58 217.28l-69.899-28.44-41.191 22.897 65.653 53.988z"/><path fill="#fca72f" fill-opacity=".961" d="M686.54 450.623l-60.87 72.273 13.867 117.126 54.293-104.005z"/><path fill="#fead24" fill-opacity=".729" d="M362.675 850.903L361.554 584l34.581 57.322-131.306-4.71z"/><path fill="#e3c693" fill-opacity=".216" d="M117.554 745.957L37.56 643.626l-8.747-46.196 153.28-152.337z"/><path fill="#6b1c08" fill-opacity=".51" d="M812.018 882.245L898 644.043v242.968l-94.546-38.65z"/><path fill="#ccbaa3" fill-opacity=".29" d="M134.17 369.085l41.824-51.105-31.452-68.5-15.682 39.3z"/><path fill="#ff5f05" fill-opacity=".376" d="M660.851 467.133L492.027 724.535l141.782-109.103-97.513-126.254z"/><path fill="#9b85af" fill-opacity=".298" d="M829.765 405.003l-158.285-2.01-17.299-40.791 163.107 1.477z"/><path fill="#fea620" fill-opacity=".898" d="M527.653 554.696L313.775 801.883l140.577-34.013 96.561-129.615z"/><path fill="#4d012c" fill-opacity=".357" d="M342.128 521.277l-65.61-14.67-.57-7.817 11.175-4.854z"/><path fill="#b7b4b2" fill-opacity=".451" d="M262.512 851.263l-26.04-191.882-35.2 110.05 19.407 10.404z"/><path fill="#b1b2a1" fill-opacity=".686" d="M278.595 49.942l-62.87 150.727 63.262-25.302-50.076-142.575z"/><path fill="#83827f" fill-opacity=".875" d="M26.03 1020.597l103.992-10.544-72.655 18.068L-62 913.705z"/><path fill="#ded5d6" fill-opacity=".91" d="M803.894 905.431L782.3 865.806l23.619-3.361 2.11 50.72z"/><path fill="#2d4faf" fill-opacity=".188" d="M81.225 809.445L-62 379.979l91.154 354.982-56.974 114.51z"/><path fill="#4f5b8a" fill-opacity=".353" d="M-57.29 318.401l93.674-10.274L159.12 252.08l-24.893-30.118z"/><path fill="#782e1e" fill-opacity=".396" d="M562.868 581.38l25.147-50.323L511 536.712l-4.727 4.053z"/><path fill="#f06011" fill-opacity=".482" d="M621.426 1035.707l39.966 12.997-19.287-84.7-24.807-249.532z"/><path fill="#1f0400" fill-opacity=".325" d="M390.682 171.34l86.114-17.18-9.201-72.422-2.093 41.821z"/><path fill="#80362c" fill-opacity=".42" d="M580.333 125.753l51.291-70.088-7.997-35.958-50.96 22.94z"/><path fill="#a57356" fill-opacity=".463" d="M92.941 781.199l-78.544-76.222 110.687-122.421L96.26 769.305z"/><path fill="#ff9718" fill-opacity=".635" d="M190.344 738.046l-80.73 17.603 56.405 152.607 7.688-3.982z"/><path fill="#b35137" fill-opacity=".357" d="M199.904 875.794l22.56-14.292 2.158-59.687-74.438-187.357z"/></svg>