<svg xmlns="http://www.w3.org/2000/svg" width="228" height="278" viewBox="0 0 836 1024"><path fill="#585a74" d="M0 0h836v1024H0z"/><path fill="#c7c5de" fill-opacity=".761" d="M544.843 758.557L397.704 988.17l65.936-251.664 158.708-614.152z"/><path fill="#c0c8e8" fill-opacity=".659" d="M402.93 233.494l-54.637 60.433-60.557 644.234L439.06 526.578z"/><path fill="#ccc2e0" fill-opacity=".91" d="M390.775 65.998l55.609-67.21-424.1-3.78-67.87 42.565z"/><path fill="#2f1f00" fill-opacity=".529" d="M474.12 377.109l-160.252-224.16L454.022-2.296 898 179.74z"/><path fill="#08122c" fill-opacity=".616" d="M314.39 588.401L149.146 379.3-14.445 573.76l306.121 244.058z"/><path fill="#c0bad0" fill-opacity=".941" d="M492.43 518.832l66.698 10.345 101.363-104.492-112.56-98.369z"/><path fill="#c6d0df" fill-opacity=".741" d="M885.359 870.224l-16.163-129.289-68.663-45.93-77.342 119.477z"/><path fill="#ffe7a4" fill-opacity=".341" d="M592.455 307.6L559.991-62 898 12.805 639.64 78.94z"/><path fill="#010e46" fill-opacity=".753" d="M460.396 778.73l-128.273 233.71 74.02-418.45 85.343-9.25z"/><path fill="#271e13" fill-opacity=".604" d="M653.75 801.116L642.749 588.02 743.79 481.925l34.599 234.747z"/><path fill="#303536" fill-opacity=".659" d="M-61.759 65.223l259.53 7.017 200.03 142.965L31.803 315.712z"/><path fill="#c7cae8" fill-opacity=".976" d="M389.897 902.065l89.622-104.536-20.782 159.51-72.43-12.58z"/><path fill="#081c82" fill-opacity=".553" d="M214.968 909.314L-33.725 731.305 68.62 1086l512.977-63.237z"/><path fill="#9fa6c3" fill-opacity=".996" d="M391.834 684.578L355.61 835.39l-76.248 104.56-54.434-31.946z"/><path fill="#b7c6ff" fill-opacity=".478" d="M575.738 480.817L194.595 264.553l25.973 180.639 84.832-225.21z"/><path fill="#bbc5fb" fill-opacity=".663" d="M687.616 361.274l111.674 87.05-47.741-94.52-66.537 203.988z"/><path fill="#1b286a" fill-opacity=".702" d="M527.564 412.335l-169.841 67.42-152.954 125.383 92.35-35.628z"/><path fill="#d0d7fb" fill-opacity=".647" d="M135.859 862.965l-14.024-44.325 108.128-36.445-83.761 95.356z"/><path fill="#495191" fill-opacity=".957" d="M562.188 589.612l-147.901-66.266 261.136 8.88-164.737 423.229z"/><path fill="#7e83ae" d="M109.133 541.834l-80.298-98.297 234.992-218.264L59.49 444.601z"/><path fill="#e7e8f5" fill-opacity=".663" d="M395.38 238.747l-50.882 95.626-21.894 112.826 89.282 1.255z"/><path fill="#e7fbc8" fill-opacity=".275" d="M163.79 774.161l48.894-101.163L20.61 695.56-7.983 767.6z"/><path fill="#f8d0a0" fill-opacity=".561" d="M577.974 966.498l31.643 21.903-2.017-137.868-53.99 85.325z"/><path fill="#cbcbe5" fill-opacity=".631" d="M518.298 396.64l-76.109 1.95 162.243-78.83 27.911 247.922z"/><path fill="#464a53" fill-opacity=".898" d="M898 44.548L577.63 62.199l-1.532-35.564L898 624.92z"/><path fill="#261900" fill-opacity=".675" d="M407.068 35.82l34.649 324.539 77.023-.83 66.044-44.768z"/><path fill="#201600" fill-opacity=".722" d="M25.403 516.492l71.76 20.86-130.811 257.167L-62 615.609z"/><path fill="#0d1030" fill-opacity=".478" d="M768.059 1012.89L8.069 997.35 582.733 1086l60.098-228.405z"/><path fill="#00033b" fill-opacity=".451" d="M228.844 321.442l-28.662 120.793 172.836 198.059L58.02 427.915z"/><path fill="#c27c5c" fill-opacity=".576" d="M408.173 36.14L215.006 61.516l41.579 42.625 120.212 24.231z"/><path fill="#000e96" fill-opacity=".369" d="M243.62 380.746l80.832-192.34L348.277 363.2 229.765 552.825z"/><path fill="#a36200" fill-opacity=".306" d="M578.08 965.213L587.162 1086 469.415 935.46 898 588.172z"/><path fill="#6c7fda" fill-opacity=".71" d="M802.748 446.247l-64.106 183.244 74.56-70.188-114.78-227.597z"/><path fill="#b48a9a" fill-opacity=".8" d="M429.866 513.002l205.968 38.85-37.523-50.067-187.308-39.24z"/><path fill="#6a88fe" fill-opacity=".369" d="M355.652 1004.554L64.532 896.337 4.426 1086-62 951.078z"/><path fill="#00095a" fill-opacity=".561" d="M462.032 882.952l1.335 46.003 3.52 102.411 108.35-257.318z"/><path fill="#d5dbf4" fill-opacity=".612" d="M522.555 797.852l53.513-210.495-100.215 76.145-4.97 206.115z"/><path fill="#1b256a" fill-opacity=".831" d="M180.223 965.274l304.063 4.023-364.258-73.876L307.96 746.658z"/><path fill="#f8fbff" fill-opacity=".361" d="M426.834 333.854l-211.232-7.072 21.461 261.706-2.918-289.64z"/><path fill="#2c3888" fill-opacity=".914" d="M650.803 427.157l-65.18-177.424 109.427 138.87-96.675 305.005z"/><path fill="#142050" fill-opacity=".89" d="M488.129 578.148l-100.13-23.703 11.376-2.065-2.673 200.088z"/><path fill="#9291a4" fill-opacity=".51" d="M723.618 671.674l-34.414-10.327-100.92 74.811-51.977 151.417z"/><path fill="#bdb3a2" fill-opacity=".925" d="M691.123-59.796l181.013 79.693-287.532 15.004-125.406-53.685z"/><path fill="#4e504f" fill-opacity=".651" d="M7.983 685.24l190.372 15.38-3.293-191.181-87.382 17.342z"/><path fill="#5b77fe" fill-opacity=".459" d="M144.438 366.766l265.524-126.953-159.705 8.898-94.951 59.402z"/><path fill="#010a23" fill-opacity=".655" d="M738.586 710.434l-75.698-167.698 115.017-13.815-37.984-70.397z"/><path fill="#16235d" fill-opacity=".737" d="M264.214 432.222l-19.48 35.616-77.514 354.046L293.753 680.04z"/><path fill="#a7acca" d="M621.292 595.054l-2.37-51.492-99.83 165.815 25.204-128.585z"/><path fill="#e0e6ff" fill-opacity=".506" d="M101.216 533.001l-55.33-54.484 5.52-62.966.932 11.78z"/><path fill="#eee8ff" fill-opacity=".384" d="M321.318 566.007l-40.503-41.459-1.217-44.116 17.83-6.19z"/><path fill="#fef1c7" fill-opacity=".133" d="M769.98 966.95l-78.292-51.967 136.86-469.045-65.142 600.744z"/><path fill="#d1cef0" fill-opacity=".89" d="M128.915 27.72l258.894 9.06L487.878-2.713-39.329 5.739z"/><path fill="#a4abca" fill-opacity=".8" d="M326.23 622.107l71.673 55.759-115.644 172.696 19.647-141.848z"/><path fill="#3c4cb5" fill-opacity=".725" d="M392.256 1000.6l86.453 85.4-8.638-120.19-365.163 24.851z"/><path fill="#000414" fill-opacity=".725" d="M373.414 1000.135l-145.019 22.75L67.29 963.21 256.052 1086z"/><path fill="#321d00" fill-opacity=".482" d="M530.548 916.813L782.24 598.269l5.065 52.382L609.63 846.6z"/><path fill="#141e55" fill-opacity=".627" d="M460.251 779.103l30.655-377.02 43.521-34.092-256.468 656.447z"/><path fill="#d3d6f7" fill-opacity=".471" d="M329.593 847.968l-67.847-3.606-40.123 62.865 72.348 30.786z"/><path fill="#321f0d" fill-opacity=".827" d="M500.82 1066.393l27.026-14.58 20.077-124.243-16.83-13.117z"/><path fill="#4d505c" fill-opacity=".996" d="M-51.998 184.178L-62 525.804 87.472 398.967l74.59-100.093z"/><path fill="#000c00" fill-opacity=".243" d="M116.685 403.072l316.019 243.614-19.363-.62-197.629-44.527z"/><path fill="#364597" fill-opacity=".969" d="M615.93 496.844l55.648 30.398 18.612-92.544-96.321 43.817z"/><path fill="#c8cbe8" fill-opacity=".69" d="M709.254 506.234l-51.882 50.257 1.746 14.205 56.801-200.247z"/><path fill="#0025b4" fill-opacity=".345" d="M706.832 462.23l35.501 148.135 43.265-35.367-38.338-204.416z"/><path fill="#4e57a6" fill-opacity=".992" d="M740.413 385.192l-92.888-39.441-48.78-67.785 154.151 79.119z"/><path fill="#162054" fill-opacity=".957" d="M206.043 833.435l113.914-239.764-40.706 241.125.652 11.025z"/><path fill="#8f98cb" fill-opacity=".588" d="M-62 55.667L34.352 8.84l-26.705.182 307.899 58.281z"/><path fill="#cccfe5" fill-opacity=".816" d="M205.01 432.992l27.146-40.934 41.874-91.334-36.398-2.99z"/><path fill="#d12002" fill-opacity=".522" d="M331.379 456.531l5.667 26.675-42.032 17.958-.662-53.464z"/><path fill="#252c6f" fill-opacity=".863" d="M-62 993.703l186.226-153.694 17.816-58.05L-62 796.433z"/><path fill="#031d98" fill-opacity=".361" d="M603.09 852.07l-33.597-89.16-68.81 109.668 90.862-301.704z"/><path fill="#99a0c5" fill-opacity=".737" d="M223.094 741.497l-7.785 17.01-4.894 53.699 29.776-97.485z"/><path fill="#2e2415" fill-opacity=".565" d="M576.075 33.697l-79.01-30.36-137.92 105.355 237.61-38.48z"/><path fill="#2d3474" fill-opacity=".847" d="M421.653 446.927l-8.24 17.102 98.323 12.824-79.36-106.467z"/><path fill="#3c290b" fill-opacity=".588" d="M582.162 143.532L389.087 69.764l33.162 243.391 174.208-81.009z"/><path fill="#f3f2fd" fill-opacity=".208" d="M64.09 884.487l178.408-121.806-299.14 269.262 71.668 18.495z"/><path fill="#eaedff" fill-opacity=".541" d="M611.243 345.494l-9.014 31.938L533.3 408.67l65.345-111.336z"/><path fill="#f3f2f4" fill-opacity=".592" d="M801.93 571.96l-3.035-51.929 14.154 21.429-68.314 78.245z"/><path fill="#fbf4ff" fill-opacity=".239" d="M609.232 908.638l-76.5-49.051 28.985-27.05-1.191 183.85z"/><path fill="#b0aec9" fill-opacity=".976" d="M789.908 523.604l-11.87-2.516 19.74-61.67-9.768 84.635z"/><path fill="#2e4e46" fill-opacity=".408" d="M579.38 425.737l-9.12-1.239 19.237-22.555 47.63 14.64z"/><path fill="#1d2b80" fill-opacity=".62" d="M384.2 473.064l36.3 12.105-13.127 31.233-120.022-.387z"/><path fill="#ffd2c4" fill-opacity=".227" d="M627.873 127.876l-140.83-38.44 42.94-9.19 86.715.021z"/><path fill="#333849" fill-opacity=".545" d="M861.076 920.21L898 1004.6l-155.42 20.175-147.795-8.585z"/><path fill="#a8adcd" fill-opacity=".667" d="M495.937 577.45l-68.713-14.176 81.044-6.815-55.75 316.964z"/><path fill="#e1e5ff" fill-opacity=".337" d="M462.697 420.7l44.524 22.406-62.472-94.945-58.969-72.5z"/><path fill="#3e53b8" fill-opacity=".965" d="M118.245 979.104l68.07 24.587 215.78-24.727-362.39-36.354z"/><path fill="#000200" fill-opacity=".369" d="M434.683 830.996l10.658-36.488-87.114 22.872-107.04 13.81z"/><path fill="#e6eafd" fill-opacity=".557" d="M131.605 851.421l31.409 20.883 17.36-51.565-39.084-26.711z"/><path fill="#1336d6" fill-opacity=".322" d="M91.606 500.24l59.19-200.285 79.43 69.545-179.459 46.603z"/><path fill="#b0b7c6" fill-opacity=".369" d="M410.29 531.206l-135.912 8.173 10.42-118.455 47.805 281.956z"/><path fill="#000406" fill-opacity=".376" d="M193.23 397.063l-43.413 21.903-93.319 172.256 159.057-117.839z"/><path fill="#ced0ef" fill-opacity=".655" d="M618.415 559.697l18.296-61.088-211.903-27.568 188.355 17.175z"/><path fill="#4b474d" fill-opacity=".6" d="M74.015 360.158L359.7 58.114l62.84 181.913-153.524 3.294z"/><path fill="#1f2768" fill-opacity=".773" d="M673.146 1019.957l-53.4.156-12.191-94.217 84.111-75.553z"/><path fill="#081863" fill-opacity=".471" d="M599.023 601.83l87.396-108.952-79.548 144.449-43.763 10.232z"/><path fill="#0e1764" fill-opacity=".514" d="M686.852 459.795l2.314-49.878-13.973-80.183-66.643 10.776z"/><path fill="#b5bada" fill-opacity=".565" d="M204.79 432.217l23.937 61.209 18.993-173.442-31.098 46.011z"/><path fill="#fadab8" fill-opacity=".157" d="M609.646 841.591l.375-5.767-52.758 167.005 177.725-242.744z"/><path fill="#76808c" fill-opacity=".463" d="M697.799 977.223l17.968-170.895 62.445 4.06 91.37 46.39z"/><path fill="#3b49b3" fill-opacity=".494" d="M311.87 316.995l92.735-48.331 4.946 27.134-71.287-67.11z"/><path fill="#e3e3fe" fill-opacity=".478" d="M426.228 523.104l3.095 39.574-94.909-24.213 49.348-18.26z"/><path fill="#131d1f" fill-opacity=".353" d="M459.587 646.898l125.762 17.784-180.491-53.766-2.655 34.833z"/><path fill="#384fa4" fill-opacity=".914" d="M123.31 1001.995l-52.955-6.151L-62 1068.232l86.29-12.444z"/><path fill="#f1f2ff" fill-opacity=".498" d="M526.886 776.083l-60.196-77.51 78.213-39.025-4.236 88.1z"/><path fill="#03142a" fill-opacity=".239" d="M472.152 725.78l-52.84 162.197 1.91-177.2-208.572 74.05z"/><path fill-opacity=".294" d="M401.585 986.012l61.53 11.997-176.236 38.294-214.095-13.502z"/><path fill="#4d505e" fill-opacity=".788" d="M586.706 272.015l268.845 19.419-59.44 209.818-8.845-114.747z"/><path fill="#0c1543" fill-opacity=".722" d="M124.154 853.86l78.84 68.892 21.188 12.588 66.737 13.937z"/><path fill="#634d36" fill-opacity=".725" d="M470.485 165.877l54.041 17.404 130.065-47.287-109.095 81.872z"/><path fill="#e2e4ed" fill-opacity=".569" d="M433.92 400.809l-14.428 5.682-69.161-56.698 40.668-94.067z"/><path fill="#f7f8ff" fill-opacity=".251" d="M697.882 374.256l95.094 41.631-49.637-64.278-64.408 187.634z"/><path fill="#bdc2ff" fill-opacity=".549" d="M560.868 813.395l27.859-48.482-31.942 94.603-11.506 11.41z"/><path fill="#e2e3f1" fill-opacity=".941" d="M458.963 958.19l-72.184-34.176 3.634-22 65.41-14.872z"/><path fill="#100f0b" fill-opacity=".522" d="M477.584 380.729l89.75-60.503-172.127-36.313 69.032 83.23z"/><path fill="#bcc2e8" fill-opacity=".58" d="M325.815 839.119l32.448 29.11-135.773 16.216 26.004 31.902z"/><path fill="#1a205a" d="M293.402 942.753l-57.64-12.004 129.783 6.054-31.12-66.74z"/><path fill="#535f9f" fill-opacity=".569" d="M158.535 739.5l147.384 5.772-227.246 18.7 135.404 71.035z"/><path fill="#202b74" fill-opacity=".682" d="M509.542 473.698l8.01-44.072 3.229-53.944-72.075 91.93z"/><path fill="#dfe6fc" fill-opacity=".412" d="M617.357 325.807l-171.565 90.32 99.002-78.818-34.52 139.312z"/></svg>