<svg xmlns="http://www.w3.org/2000/svg" width="228" height="278" viewBox="0 0 836 1024"><path fill="#191f38" d="M0 0h836v1024H0z"/><path fill="#0c44ae" fill-opacity=".784" d="M643.186 376.059L388.189 265.44l47.251 497.803 314.81-189.021z"/><path fill="#fe9d61" fill-opacity=".443" d="M771.001 605.725l59.62 171.575L703.836 1086l1.068-575.01z"/><path fill="#985d33" fill-opacity=".6" d="M253.709 183.132L421.083 72.989l53.108 163.936-107.635 306.103z"/><path fill="#b17348" fill-opacity=".655" d="M63.467 921.086L111.189 1086l75.748-191.987-70.413-253.495z"/><path fill="#02267d" fill-opacity=".722" d="M218.132 365.702L92.122 463.26l483.902 408.217 53.22-249.602z"/><path fill="#000209" fill-opacity=".843" d="M663.348 417.778L309.56-45.338 898-16.264v172.441z"/><path fill="#000510" fill-opacity=".812" d="M-62-24.597l40.988 723.804L420.953-62l6.347 17.388z"/><path fill="#1b1214" fill-opacity=".749" d="M565.4 552.132l30.714-7.755 152.142 198.83-40.067 201.154z"/><path fill="#1085fe" fill-opacity=".576" d="M705.91 591.723L539.19 330.348l105.97 59.795 102.22 179.546z"/><path fill="#00000e" fill-opacity=".333" d="M-62 505.471L234.369 993.35 712.08 1086 449.088 637.128z"/><path fill="#a97563" fill-opacity=".757" d="M444.696 362.425l-26.023 17.244-52.735-219.123 79.036-21.69z"/><path fill="#523421" fill-opacity=".996" d="M377.002 56.184l-16.624 416.428-61.774-43.817.85-290.05z"/><path fill="#0050c4" fill-opacity=".906" d="M479.657 320.074l-20.846 104.007 28.145 193.98 82.272-81.138z"/><path fill="#d4867a" fill-opacity=".357" d="M682.062 526.13l115.272 139.09 19.967 115.905-152.66-130.34z"/><path fill="#0553d2" fill-opacity=".447" d="M107.173 508.55l244.847-24.213 231.907 18.977-443.994-88.791z"/><path fill="#b46a47" fill-opacity=".42" d="M772.961 928.457l40.863-233.134-170.785 333.559L691.663 1086z"/><path fill="#e7985d" fill-opacity=".165" d="M115.685 608.516l95.777 248.751L81.999 1086l-7.28-249.745z"/><path fill="#624919" fill-opacity=".498" d="M409.46 560.052l-49.871-44.007-49.992 68.757 83.694 25.085z"/><path fill="#fadf46" fill-opacity=".506" d="M359.512 445.837l65.055-19.949-71.498 41.854-45.693-39.99z"/><path fill="#061022" d="M-62 788.352V221.488l186.547 88.225-39.42 493.274z"/><path fill="#00040d" fill-opacity=".612" d="M382.114 349.26l118.084-161.758 278.215-6.997-449.352 150.19z"/><path fill="#000211" fill-opacity=".765" d="M286.182 767.616L281.081 979l397.131-135.994-72.878 59.313z"/><path fill="#36312b" fill-opacity=".686" d="M774.628 235.694l-63.688 286.57 148.098 77.826-3.126-263.998z"/><path fill="#3b1d0d" fill-opacity=".78" d="M106.726 778.22l76.092 39.97 25.59-138.977-57.806-7.379z"/><path fill="#0061ef" fill-opacity=".263" d="M125.362 442.915l-23.116 95.07 10.423 109.713 42.502 8.976z"/><path fill="#0d1418" fill-opacity=".773" d="M820.533 814.492l-10.869-304.113L898 1002.901 704.085 1086z"/><path fill="#004bec" fill-opacity=".169" d="M596.163 654.033l-360.065 42.805 128.155 54.481 209.192 14.778z"/><path fill="#000029" fill-opacity=".502" d="M574.746 541.928L644.94 1086l17.17-297.367-33.267-259.459z"/><path fill="#0a1322" fill-opacity=".992" d="M78.992 1086l-3.163-132.05-8.474-118.166-91.657 116.75z"/><path fill="#000021" fill-opacity=".455" d="M521.799 232.001l118.09-59.454-126.17 205.67 62.218 156.403z"/><path fill="#a1735d" fill-opacity=".996" d="M134.746 1086L83.764 954.319l-7.196 105.636 81.784-149.753z"/><path fill="#f0b69e" fill-opacity=".384" d="M460.395 237.878l9.056-41.389-70.104-22.94-.075 50.903z"/><path fill="#3e281b" fill-opacity=".471" d="M748.938 909.235l-71.783 54.237-19.346-341.706 87.636 82.857z"/><path fill="#00020e" fill-opacity=".525" d="M273.438 17.811L293.71 363.8-4.681 216.92-35.314-62z"/><path fill="#d0f7d4" fill-opacity=".239" d="M86.415 1038.612l-14.46-179.23 13.503-87.236 5.154 43.151z"/><path fill="#7b5239" fill-opacity=".541" d="M274.624 183.544L445.9 159.312l-186.948 86.739-8.82-70.902z"/><path fill="#003" fill-opacity=".514" d="M576.18 620.581l-95.58 56.866-382.556-30.973 276.526-1.082z"/><path fill="#a4694d" fill-opacity=".663" d="M448.52 121.3l-29.297 274.122-66.6-40.683 92.642-52.587z"/><path fill="#042a7a" d="M247.554 437.474l365.488 127.625-424.709-154.896 81.886-81.136z"/><path fill="#0073e4" fill-opacity=".569" d="M610.92 506.19l-4.383-148.23 75.013 79.074 36.49 75.62z"/><path fill="#05258a" fill-opacity=".671" d="M139.04 550.762l91.552-13.69 176.703-95.745 95.594 83.753z"/><path fill="#754e40" fill-opacity=".91" d="M351.467 132.53l29.267-55.083 54.979 28.076-21.17 79.76z"/><path fill="#000039" fill-opacity=".38" d="M137.765 598.552l-13.273-110.177 108.439 13.473 190.376 324.966z"/><path fill="#03101a" fill-opacity=".741" d="M185.826 884.498l76.167-35.104-12.27 173.123-109.666 17.453z"/><path fill="#040507" fill-opacity=".941" d="M470.198 74.386l-19.846-1.445-97.546-53.213-175.814 75.794z"/><path fill="#223e8d" fill-opacity=".69" d="M748.836 526.377L625.21 615.98l142.003-47.812-109.49 60.445z"/><path fill="#c38c77" fill-opacity=".325" d="M730.253 524.879l31.23 278.401-.47 120.128 61.458-160.565z"/><path fill="#000b32" fill-opacity=".494" d="M501.554 813.182l-217.247 249.864 347.133 20.378 76.434-248.855z"/><path fill="#020918" fill-opacity=".663" d="M472.046 131.282L781.98 356.909l-339.849-61.52 16.304 70.43z"/><path fill="#0072ff" fill-opacity=".153" d="M507.94 661.497l-264.662 39.806 351.055-25.443-128.63-393.202z"/><path fill="#0045bb" fill-opacity=".596" d="M238.479 630.963l205.991 1.071-33.356 5.83-68.859.118z"/><path fill="#000743" fill-opacity=".6" d="M534.76 534.23l-212.235-44.427-138.597 22.871 260.976-14.359z"/><path fill="#603525" fill-opacity=".529" d="M99.897 821.88l22.582-128.065-1.435 242.002-24.658 115.582z"/><path fill="#b2f5f0" fill-opacity=".306" d="M121.889 479.975l40.953-74.281-27.263 29.579-18.742 32.023z"/><path fill="#001744" fill-opacity=".839" d="M-34.956 926.916l94.106-48.38L99.474 758.9-62 814.24z"/><path fill="#ffebaf" fill-opacity=".184" d="M305.314 164.971l11.235-78.31-39.116 95.585 30.307 23.18z"/><path fill="#946a60" fill-opacity=".898" d="M436.06 250.73l-111.87 6.767 78.956 21.881-7.873 19.159z"/><path fill="#1d1416" fill-opacity=".349" d="M114.308-25.371l324.164 286.176-104.782-15.65 33.61-85.922z"/><path fill="#00031c" fill-opacity=".702" d="M447.617 777.83l292.837-41.164-364.366 32.878 111.35 155.704z"/><path fill="#141b2e" fill-opacity=".639" d="M673.28 420.595L536.05 291.697l234.13 53.729.675 107.216z"/><path fill="#0e1516" fill-opacity=".647" d="M878.738 636.612L719.955 517.947l70.964 134.626 21.264 60.4z"/><path fill="#00020b" fill-opacity=".812" d="M249.99 666.428l-50.923-104.559-27.414-1.72 32.186 140.504z"/><path fill="#0d0000" fill-opacity=".333" d="M262.785 428.243l106.46-10.585-48.502-135.624 84.744 21.567z"/><path fill="#030b28" fill-opacity=".757" d="M333.769 694.641l213.099-10.567-87.593 13.648-245.273 25.24z"/><path fill="#004ef7" fill-opacity=".208" d="M103.616 498.209l30.02 44.727 79.256 2.814 72.046 8.242z"/><path fill="#00116d" fill-opacity=".647" d="M525.053 403.479l-72.79 58.949 124.3-84.828-79.862-60.901z"/><path fill="#88533f" fill-opacity=".855" d="M662.163 631.216l114.682 125.772-57.547-124.83-19.645-22.743z"/><path fill="#001ea3" fill-opacity=".294" d="M687.626 543.692l-352.337 71.377 216.486 6.126 50.81-229.617z"/><path fill="#0030a7" fill-opacity=".675" d="M453.34 477.582l-63.353 21.704 60.88-170.966 43.252-27.747z"/><path fill="#1787fe" fill-opacity=".196" d="M300.389 718.79l181.055 5.63 129.111-96.75-47.456 60.594z"/><path fill="#0d1a43" fill-opacity=".902" d="M349.637 851.244l68.864 35.937 120.95 103.079-28.223-17.175z"/><path fill="#041042" fill-opacity=".98" d="M432.414 725.137L218.14 762.475l263.613-34.799 61.51-20.108z"/><path fill="#fc66a5" fill-opacity=".361" d="M697.337 580.366l-4.198 2.373 22.942-49.627-45.692 30.523z"/><path fill="#925f39" fill-opacity=".741" d="M423.03 427.29l-29.39 10.584 16.868-96.096-55.033 32.34z"/><path fill="#ccff78" fill-opacity=".082" d="M216.801 745.103l54.412 118.354-8.05 222.543 30.175-303.527z"/><path fill="#5f412e" fill-opacity=".855" d="M291.13 265.54l-.934 118.76 10.412 31.96 6.574-28.634z"/><path fill="#00020e" fill-opacity=".776" d="M575.519 536.362l147.542 216.86-84.33-111.587 17.519 151.7z"/><path fill="#000008" fill-opacity=".482" d="M815.108-62H308.416L840.13 296.052 898 46.982z"/><path fill="#01030d" fill-opacity=".788" d="M531.488 992.415l-175.278-18.5-106.735-150.242 124.3 109.37z"/><path fill="#4a574f" fill-opacity=".271" d="M749.325 427.24l-14.539 59.516 77.515 54.996 73.902-159.724z"/><path fill="#00052f" fill-opacity=".788" d="M138.605 585.971l188.869-21.396 4.544 33.457-4.36-51.23z"/><path fill="#001b73" fill-opacity=".447" d="M530.005 457.855L634.104 622.91l86.971-53.17-24.311 9.342z"/><path fill="#473530" fill-opacity=".431" d="M-62 193.806L33.896 297.32 21.25 359.637-62 492.74z"/><path fill="#a56e5a" fill-opacity=".651" d="M703.219 985.638L643.625 1086l73.964-51.474 91.715-271.975z"/><path fill="#e4ad8a" fill-opacity=".2" d="M457.492 227.395l-121.74-38.248 125.502-25.182-72.03 144.798z"/><path fill="#0049fc" fill-opacity=".133" d="M297.432 510.258L249.45 620.403l145.06-4.912-214.682-90.361z"/><path fill="#0460d3" fill-opacity=".569" d="M660.302 473.25L504.27 309.398l52.6 28.517 83.304 43.353z"/><path fill="#f8fec5" fill-opacity=".157" d="M67.656 860.658l10.62-7.54 17.75-33.751 14.932-110.913z"/><path fill="#feae8f" fill-opacity=".216" d="M401.154 88.42l-.6 6.58-37.923 34.125 91.442.84z"/><path fill="#46a3aa" fill-opacity=".106" d="M643.95 651.154l43.38 265.21-26.514 55.314 61.076-215.947z"/><path fill="#0e1f54" fill-opacity=".827" d="M251.533 319.124l39.585 2.118-44.214 39.179-116.34 70.234z"/><path fill="#00004b" fill-opacity=".443" d="M585.731 536.658l-7.386 61.089-271.696 76.925 191.852-1.723z"/><path fill="#2854b5" fill-opacity=".369" d="M544.088 865.29l49.034-12.162 13.714-12.068-81.763 13.319z"/><path fill="#ffb49f" fill-opacity=".188" d="M439.404 268.865l-67.512-16.658 83.46 63.408-44.616 73.97z"/><path fill="#151116" fill-opacity=".8" d="M392.806 153.107l43.411 13.41L898 55.187l-491.87 118.98z"/><path fill="#010408" fill-opacity=".298" d="M331.167 138.272l51.185-2.905 66.703-5.86-120.381 46.99z"/><path fill="#006bfc" fill-opacity=".247" d="M571.308 564.125l-47.813-4.81-63.421 27.317-21.467-81.436z"/><path fill="#000d4f" fill-opacity=".69" d="M584.008 758.702l-103.845 76.77-38.062-20.684 5.307-45.696z"/><path fill="#2b1f18" fill-opacity=".447" d="M730.927 360.2L898 432.878 814.272 233.93l-78.264 19.846z"/><path fill="#0043c4" fill-opacity=".306" d="M487.754 309.866l-56.66-34.824 149.781 227.994 11.362 14.562z"/><path fill="#4f3f16" fill-opacity=".541" d="M392.537 530.69l-58.446 40.78 16.904 35.985 35.173-35.263z"/><path fill="#d0f3ed" fill-opacity=".118" d="M110.977 545.69l-4.3 154.353 33.618-38.755-17.44-14.087z"/><path fill="#ffe788" fill-opacity=".086" d="M693.596 440.326L555.243 331.54l34.609-42.343 102.733 184.536z"/><path fill="#2b448f" fill-opacity=".2" d="M653.045 873.896l-136.07 68.74-54.012 14.852-60.983-12.16z"/><path fill="#004ec7" fill-opacity=".6" d="M680.82 564.257L550.768 397.145 588.751 532.8l-12.506-183.526z"/><path fill="#f9e641" fill-opacity=".345" d="M350.08 461.1l51.175-33.856 19.735-14.805-12.827 23.856z"/><path fill="#0066e2" fill-opacity=".639" d="M581.944 553.67l-86.069-84.655 3.787 31.887 70.343 14.368z"/><path fill="#381000" fill-opacity=".38" d="M364.892 450.617l65.669-60.827-63.531 25.423-62.243-32.259z"/><path fill="#a9796c" fill-opacity=".745" d="M709.32 599.014l38.336-25.038 51.443 106.48 5.265 93.896z"/><path fill="#0a94f3" fill-opacity=".478" d="M718.53 525.38l-33.832 1.806-38.122-128.926 35.15 42.889z"/><path fill="#d0aea2" fill-opacity=".173" d="M409.643 515.358l-12.176 24.051-68.451-7.437 22.948-10.918z"/><path fill="#0035ab" fill-opacity=".09" d="M39.424 375.64l-20.886-55.517 93.154-39.065 180.65 189.05z"/><path fill="#703722" fill-opacity=".486" d="M646.723 1086l105.934-211.588-2.065-184.115-45.889 206.3z"/><path fill="#feb798" fill-opacity=".192" d="M428.66 244.13l-51.612-122.585-12.541 7.804 13.79 55.581z"/><path fill="#000843" fill-opacity=".561" d="M117.44 588.606l25.38-97.236 48.918 126.336-2.323 66.679z"/><path fill="#0089fd" fill-opacity=".278" d="M552.056 628.483l51.352-12.888-110.366 64.575 65.628-53.97z"/><path fill="#604027" fill-opacity=".333" d="M366.518 79.76l29.588 32.699-142.292 36.493 2.407-27.811z"/><path fill="#000013" fill-opacity=".659" d="M285.604 766.527l189.854 32.49-63.506-42.568-160.085-11.254z"/><path fill="#05081b" fill-opacity=".447" d="M709.628 760.578L490.37 814.459l248.74-25.03-232.847-34.96z"/><path fill="#090406" fill-opacity=".596" d="M740.11 767.167L555.5 537.382l190.367 210.813-6.102-10.018z"/></svg>