<svg xmlns="http://www.w3.org/2000/svg" width="228" height="278" viewBox="0 0 836 1024"><path fill="#666959" d="M0 0h836v1024H0z"/><g fill-opacity=".502"><path fill="#e7feff" d="M574 30l260-92 64 860z"/><path fill="#002527" d="M250 954l428-24-496-828z"/><path fill="#ff5b17" d="M206 558L-62 978l304 108z"/><path fill="#ff3000" d="M706 1086l-76-528 268 328z"/><path fill="#004e4a" d="M898 542l-792 96L-62 82z"/><path fill="#deeff2" d="M738 610L422 718l-136-88z"/><path fill="#d6c95e" d="M102 222L-62-62 506 90z"/><path fill="#fff" d="M470 642l28-208-84 24z"/><path fill="#e3ffff" d="M694 982l-20 104-228-108z"/><path fill="#00140f" d="M346 1026L222 682l428 12z"/><path d="M822 730L718 334l-68 188z"/><path fill="#ccd0f1" d="M818 350L682-62 582 290z"/><path fill="#70a0a2" d="M338 370l-384-20-12 372z"/><path d="M622 74L530-62 334 50z"/><path fill="#ff6d3f" d="M-62 1054l72-508 232 504z"/><path fill="#000b06" d="M122 530l236 108 212-84z"/><path fill="#08787f" d="M722 318l-192-20 56 688z"/><path fill="#ff6a2f" d="M858 846l-224 8 16-308z"/><path fill="#002e18" d="M254 158L-62 266l672 168z"/><path fill="#d08743" d="M590 194L234-62l144 392z"/><path fill="#fff" d="M638 362l-104 4 152 48z"/><path d="M274 410l4 376-104-312z"/><path fill="#bab4aa" d="M-62 602l316 196-180 12z"/><path fill="#fff" d="M326 470l36 56-80 4z"/><path fill="#005e5c" d="M454 922l144-256 104 320z"/><path fill="#fbedec" d="M134 454l-8 116 92-164z"/><path fill="#d2c9de" d="M898 522l-68 212-84-440z"/><path fill="#000300" d="M94 710l144-184-172 60z"/><path fill="#fff" d="M62 594l-44-12-4 152z"/><path fill="#ff5d27" d="M90 730l116-144 40 204z"/><path fill="#b8c7c6" d="M618 670l-336 12 224-104z"/><path fill="#addee6" d="M562 426l68 44-44 72z"/><path fill="#00140c" d="M494 954L358 642 250 930z"/><path fill="#b62600" d="M650 850l248-44-84 280z"/><path fill="#8ba5be" d="M78 30l200-92-84 228z"/><path fill="#002c26" d="M326 950l156-312 124 280z"/><path fill="#fff" d="M406 718l68-100-28 92z"/><path fill="#002724" d="M630 474l128-132-136 320z"/><path fill="#005c58" d="M30 442l52 188 64-196z"/><path fill="#fff" d="M418 442l72 4v100z"/></g></svg>