<svg xmlns="http://www.w3.org/2000/svg" width="228" height="278" viewBox="0 0 836 1024"><path fill="#6d6276" d="M0 0h836v1024H0z"/><g fill-opacity=".502"><path fill="#000e29" d="M638 1086L50 850l488-656z"/><path fill="#fdf" d="M898 118l-472 28 388 424z"/><path fill="#dae0ff" d="M-62 326L222 98 30 1086z"/><path fill="#002747" d="M106 414l252 672 396-840z"/><path fill="#e93f3c" d="M-62 74l960 100L790-62z"/><path fill="#ff8aa0" d="M650 1086l248-92-300-324z"/><path fill="#82a7b8" d="M346 602L182 70l420 568z"/><path fill="#001134" d="M646 1050l-92-452-372 412z"/><path fill="#e0d7fa" d="M30 306L258 98l92 232z"/><path fill="#b6faf2" d="M154 930l72-200-20 356z"/><path fill="#001429" d="M150 370l-8 408 212-432z"/><path fill="#000012" d="M578 562l92-184-348 128z"/><path fill="#e8505a" d="M-10 282L-26 2l372-20z"/><path fill="#d3a5c5" d="M610 194l288-88-4 980z"/><path fill="#425031" d="M318 322L282-62 494 70z"/><path fill="#e3d7f0" d="M638 146l-284 24 296 160z"/><path fill="#6d1939" d="M-62 394l76 388 32-448z"/><path fill="#8e5636" d="M786 754l64-192-472 4z"/><path fill="#6d4800" d="M86 766l152-188-148 508z"/><path fill="#be212c" d="M654 234l24 216 84-184z"/><path fill="#fc3231" d="M738 1018l160-164-276 44z"/><path fill="#2487b7" d="M218 466l244-224 40 200z"/><path fill="#ced9fa" d="M166 102l-48 512-60-340z"/><path fill="#00275d" d="M706 494l-88-192-304 48z"/><path fill="#c6deff" d="M898 206L734 642l24-508z"/><path fill="#c79473" d="M766 634L438 534l8 96z"/><path fill="#a5b3e3" d="M578 678l72 236 56-184z"/><path fill="#00132e" d="M618 642l-404 444 48-420z"/><path fill="#001932" d="M282 94l72-144 96 84z"/><path fill="#d1ffff" d="M502 230l-68 76-96 24z"/><path fill="#00215c" d="M122 454l112-136 140 52z"/><path fill="#00315f" d="M198 974l424 112V810z"/><path fill="#94644e" d="M494 42l-76 248-208-188z"/><path fill="#282300" d="M666 714l148 4-236-104z"/><path fill="#a0c9cc" d="M142 602L26 1086l-88-192z"/><path fill="#e4545c" d="M498 154L898 42 434-18z"/><path fill="#ebcadb" d="M898 994l-260 92 8-104z"/><path fill="#ceb9e1" d="M666 126l-8 240-196-240z"/><path fill="#001434" d="M346 494l-64 172-180-116z"/><path fill="#38b09e" d="M162 902l108 180-184-8z"/></g></svg>