<svg xmlns="http://www.w3.org/2000/svg" width="228" height="278" viewBox="0 0 836 1024"><path fill="#513237" d="M0 0h836v1024H0z"/><path fill="#edae89" fill-opacity=".561" d="M331.13 817.921L56.85 609.725l210.342-309.66-52.226 301.153z"/><path fill="#9a827d" fill-opacity=".624" d="M663.864 122.534l-84.308 194.018L83.023 206.176l309.506-153.35z"/><path fill="#ad887f" fill-opacity=".788" d="M628.381 617.094l37.59 165.686-543.884-102.92 295.756 131.92z"/><path fill="#380003" fill-opacity=".584" d="M290.187 736.815l418.95-123.973-378.959-451.728-126.91 440.966z"/><path fill="#390c13" fill-opacity=".871" d="M324.822 1086h347.172l8.972-234-556.416-91.307z"/><path fill="#224067" fill-opacity=".639" d="M861.963 558.973l20.5 508.492L704.597 1086l-59.996-340.88z"/><path fill="#ffc099" fill-opacity=".38" d="M573.608 142.415L476.65 16.097l-26.243 285.84 32.598 45.218z"/><path fill="#a8a7d5" fill-opacity=".58" d="M891.676 351.154l-130.827-8.55 14.326-71.641L898 207.49z"/><path fill="#26191f" fill-opacity=".749" d="M118.93 959.31L-62 214.19l471.826 124.701-353.468 72.496z"/><path fill="#d6ddf2" fill-opacity=".706" d="M285.075 388.62l-62.92-8.112-29.977 60.457 38.77 2.17z"/><path fill="#8cbce5" fill-opacity=".4" d="M-62 1027.933V495.687l98.335 134.346-4.543 174.24z"/><path fill="#35060e" fill-opacity=".761" d="M159.47 423.88l234.466 87.503 155.64 104.738-68.469 178.003z"/><path fill="#90131d" fill-opacity=".518" d="M116.445 935.821l-5.996 115.375 205.766 5.751L206.028 721.04z"/><path fill="#03151d" fill-opacity=".478" d="M526.156 968.395L898 558.386l-268.601-44.14L696.013 1086z"/><path fill="#1b1726" fill-opacity=".976" d="M127.449 854.588l66.107-108.357L47.703 588.774l-5.35 149.84z"/><path fill="#26140e" fill-opacity=".565" d="M745.024 283.848L582.78-62h243.98l70.162 235.69z"/><path fill="#61192c" fill-opacity=".992" d="M898 449.94l-358.178 92.69 31.725-222.97L761.019 326z"/><path fill="#000514" fill-opacity=".463" d="M107.484-62L-62 70.347l438.045-95.403-35.74 182.144z"/><path fill="#7eace7" fill-opacity=".333" d="M-62 128.73l89.7 115.544 263.653-113.162-86.598 138.606z"/><path fill="#d29670" fill-opacity=".549" d="M316.83 809.213l21.153-55.202L96.615 515.298l25.752 163.3z"/><path fill="#010b1a" fill-opacity=".49" d="M-46.116 49.252l203.328 311.515L-62 413.989 168.53 116.76z"/><path fill="#4f282c" fill-opacity=".749" d="M276.063 410.23l194.094-178.971-165.955-61.514-72.732 80.888z"/><path fill="#95848d" fill-opacity=".482" d="M680.319 679.685l-130.555-25.81-69.384 127.808 159.037 30.247z"/><path fill="#c99582" fill-opacity=".898" d="M260.84 756.49l127.458-49.759 69.9 52.326-188.658 15.9z"/><path fill="#5c382e" fill-opacity=".941" d="M547.93 649.245l103.273 62.13-39.597-58.975L641.8 315.938z"/><path fill="#060000" fill-opacity=".38" d="M325.144 737.709L138.918 544.723l90.136 24.738 141.918-210.743z"/><path fill="#f2d7cb" fill-opacity=".545" d="M132.16 489.496l-53.148 83.248.057 31.357 86.008-137.449z"/><path fill="#9c643c" fill-opacity=".38" d="M552.631 406.714L337.034 260.428l373.088 7.628-91.664-226.95z"/><path fill="#fac03a" fill-opacity=".6" d="M416.823 483.262l-14.217 10.232 78.906 16.252-86.36.653z"/><path fill="#85898a" fill-opacity=".376" d="M668.07 1086l28.765-177.632L898 907.278l-139.68 57.346z"/><path fill="#6b6d8b" fill-opacity=".565" d="M383.985-45.102l94.394 270.148L164.557 96.15l195.874 32.842z"/><path fill="#354766" fill-opacity=".475" d="M137.231 348.818l71.01-218.61-122.564 41.501-69.287-20.578z"/><path fill="#8e2937" fill-opacity=".4" d="M608.271 1086L477.482 817.36l4.153 146.839-64.152 22.727z"/><path fill="#fb8683" fill-opacity=".208" d="M114.881 827.86l9.962 127.667-30.792 106.604L205.763 823.55z"/><path fill="#b6c8fc" fill-opacity=".447" d="M583.862 752.038L569.75 658.31l5.803 12.385 68.689 37.319z"/><path fill="#1a161b" fill-opacity=".608" d="M343.084 224.276L170.12 288.958l33.086 121.744 142.996-204.543z"/><path fill="#111317" fill-opacity=".863" d="M600.751 1086l68.036-40.325 7.636-206.744-176.109 8.142z"/><path fill="#49020b" fill-opacity=".424" d="M302.758 779.23L61.144 1086l493.397-51.695-197.459-254.084z"/><path fill="#c07f5e" fill-opacity=".451" d="M56.964 626.06l206.464-91.643L139.6 402.634l62.416 14.742z"/><path fill="#e8a686" fill-opacity=".329" d="M456.733 232.834L647.36 98.557 458.354 93.3l170.043 107.222z"/><path fill="#574850" fill-opacity=".945" d="M734.653-62L477.457 60.804l-43.698 95.699-18.796-103.174z"/><path fill="#090007" fill-opacity=".286" d="M706.532 24.28l-86.76 301.184-110.41-3.071L720.47 162.528z"/><path fill="#bb8c4f" fill-opacity=".996" d="M417.153 245.437l32.305 75.315 26.298-126.547-29.08 148.107z"/><path fill="#4f2e23" fill-opacity=".525" d="M494.896 134.898L817.87 211.52 467.645 149.7l52.538-3.545z"/><path fill="#2c3d37" fill-opacity=".439" d="M104.49 1086l30.172-283.918-143.25-8.724L6.753 1086z"/><path fill="#d5fff0" fill-opacity=".078" d="M170.65-28.82l7.703 332.064 58.634-30.984 54.092-154.496z"/><path fill="#f4f0f3" fill-opacity=".612" d="M205.724 416.683l23.822-31.588 31.93 30.563-22.053 25.757z"/><path fill="#430a13" fill-opacity=".98" d="M439.134 383.38l-18.54-120.704-68 56.56L338.3 710.594z"/><path fill="#563b35" fill-opacity=".667" d="M101.71 430.83l190.525-129.474L86.96 551.826-62 615.72z"/><path fill="#dcd6ff" fill-opacity=".149" d="M486.125 238.133L378.713 26.4l-2.397 162.198 131.617-117.35z"/><path fill="#372e26" fill-opacity=".718" d="M576.021 104.19l-57.898-24.33-31.036-50.143 200.965-5.348z"/><path fill="#4d576a" fill-opacity=".4" d="M-22.64 950.5l83.644 9.613-17.435-60.095 11.32-325.603z"/><path fill="#fcb59c" fill-opacity=".098" d="M547.483 487.13l34.086 108.089 35.776-133.267-187.782-254.985z"/><path fill="#422d2f" fill-opacity=".996" d="M488.07 844.776l207.154-2.88-252.927-28.157-30.862-66.455z"/><path fill="#011119" fill-opacity=".498" d="M605.413 608.587l31.54-96.92 74.616 34.994-79.134 105.09z"/><path fill="#061027" fill-opacity=".6" d="M297.21 111.797l66.714-139.553L254.584-62l-11.08 155.042z"/><path fill="#380c00" fill-opacity=".243" d="M-62 108.041L44.917-62 223.84 111.591l-13.851 59.981z"/><path fill="#7b3549" fill-opacity=".612" d="M230.708 377.462l18.746-43.954 54.357-54.967 86.803-14.536z"/><path fill="#815440" fill-opacity=".784" d="M520.568 233.322l144.71-51.36L567.48 322.14l19.918 82.602z"/><path fill="#639cfb" fill-opacity=".118" d="M896.223 774.422l-191.36 25.502 92.06 68.679L814.613 1086z"/><path fill="#a3a6c0" fill-opacity=".447" d="M.232 623.633l9.29-32.215 11.48 160.04-68.69 101.806z"/><path fill="#4d0918" fill-opacity=".545" d="M291.426 281.778l328.263 170.624-468.922-4.793 102.565 55.194z"/><path fill="#96a0aa" fill-opacity=".322" d="M625.889 631.623L594.79 617.61l59.762 111.067 8.124-60.678z"/><path fill="#5a2d1f" fill-opacity=".318" d="M898 414.731l-276.227 346.86 70.26 106.988 22.41-363.163z"/><path fill="#37160f" fill-opacity=".561" d="M605.034 663.53l-132.077-52.756-19.644 238.487 148.302-311.975z"/><path fill="#606073" fill-opacity=".424" d="M420.307 153.523l-146.609 27.2 159.806 52.742L530.368-62z"/><path fill="#55372f" fill-opacity=".561" d="M898 56.3L734.658 79.772l1.24 94.492L898 170.414z"/><path fill="#a5737a" fill-opacity=".427" d="M521.217 891.304l19.788 53.784-2.864 25.462-18.64-46.6z"/><path fill="#d9d8da" fill-opacity=".953" d="M234.409 377.927l-37.466 49.767 69.067-44.018-33.71-9.82z"/><path fill="#b68a7d" fill-opacity=".239" d="M642.741 146.962l61.545 167.964-.451-114.132-165.706 44.262z"/><path fill="#acb0d5" fill-opacity=".498" d="M823.297 265.983l-42.32 36.334 15.024 17.709L898 308.739z"/><path fill="#ecdd9c" fill-opacity=".227" d="M360.102-62L630.21 21.764 505.55 18.19 842.874-62z"/><path fill-opacity=".306" d="M189.937 588.494l145.95-132.029-78.859 234.345-43.452-166.727z"/><path fill="#20274c" fill-opacity=".627" d="M898 738.907l-215.293 60.39 50.907-197.555 141.096 37.91z"/><path fill="#000721" fill-opacity=".467" d="M-62 133.072l116.488 35.204 40.047 26.19 54.046-89.693z"/><path fill="#5d0023" fill-opacity=".486" d="M609.09 363.844l-3.516 175.44 28.34-49.173L898 425.578z"/><path fill="#daa286" fill-opacity=".592" d="M76.847 585.76l191.711 161.66-156.824-193.73-37.023 55.423z"/><path fill="#65493e" fill-opacity=".443" d="M376.114-31.473L327.005 100.48l-93.56 145.697L358.877 197.2z"/><path fill="#291515" fill-opacity=".682" d="M674.906 70.79l-29.852 85.93L857.122 16.74 891.532-62z"/><path fill="#feb50d" fill-opacity=".353" d="M437.26 309.216l3.332 24.779-25.5-79.812 19.63 2.057z"/><path fill="#431918" fill-opacity=".624" d="M487.139 378.265l-55.253-99.118-5.965-74.163 22.317 80.534z"/><path fill="#872d58" fill-opacity=".424" d="M898 559.975L749.499 334.262l14-13.944 104.957 32.41z"/><path fill="#3b2729" fill-opacity=".82" d="M414.995-62L126.307 20.48l347.177-38.245-34.491 141.108z"/><path fill="#2e060a" fill-opacity=".718" d="M519.443 955.719L293.815 794.675l55.032-16.583 70.525 44.722z"/><path fill="#c48974" fill-opacity=".455" d="M426.8 825.8l-129.79-90.384 71.12-24.931 59.564 47.638z"/><path fill="#bb7e85" fill-opacity=".322" d="M552.915 691.874l57.253 46.131-118.36 46.869 60.876-166.431z"/><path fill="#6e5648" fill-opacity=".455" d="M166.995.23l-22.112 74.86 86.09 76.831-3.589-138.904z"/><path fill="#fbdccf" fill-opacity=".443" d="M80.542 584.26l94.497-121.175-32.12 16.798-25.631 35.27z"/><path fill="#ae755a" fill-opacity=".863" d="M151.259 574.807l101.29 150.78 37.424 28.937 25.576-25.46z"/><path fill="#5c121a" fill-opacity=".733" d="M321.82 806.644L215.03 924.1l2.301-55.22-34.427-138.715z"/><path fill="#fcfeac" fill-opacity=".149" d="M631.486 674.91l-15.682-48.654 4.998-160.623-22.326 192.149z"/><path fill="#371c25" fill-opacity=".71" d="M54.987 643.492l102.51 59.042L49.126 598.12l99.882-201.165z"/><path fill="#884d3f" fill-opacity=".392" d="M490.619 775.403l105.46 54.038-40.905-129.649-78.773 208.902z"/><path fill="#2d3433" fill-opacity=".459" d="M374.306 264.045l82.664-21.02 18.293-33.96-238.758 29.693z"/><path fill="#e1a88c" fill-opacity=".286" d="M619.157 134.711l-37.762-8.136L450.38 333.88l24.71-163.352z"/><path fill="#e4bfae" fill-opacity=".365" d="M345.631 767.76l-44.34 15.361-23.299-20.77 85.335-51.726z"/><path fill="#112e65" fill-opacity=".349" d="M22.063 687.448l13.732-78.172 38.78 179.783-24.685 28.4z"/><path fill="#161013" fill-opacity=".596" d="M-62 355.245l214.44-29.424 133.72-75.541-55.309 122.624z"/><path fill="#030c11" fill-opacity=".365" d="M172.352 811.42l7.037-72.017L94.11 630.505 85.39 812.54z"/><path fill="#2c1700" fill-opacity=".259" d="M484.364 124.671l38.18 14.324 13.735 26.784-45.381-3.121z"/><path fill="#775137" fill-opacity=".392" d="M-49.602 703.592L-62 536.798l39.182-234.936 60.286 243.202z"/><path fill="#ffbb2f" fill-opacity=".286" d="M417.284 487.23l37.07 32.696-58.652-20.185 37.586-36.414z"/><path fill="#2b030b" fill-opacity=".592" d="M296.715 401.898l95.793 296.715-75.48 32.702-61.742-68.182z"/><path fill="#11142c" fill-opacity=".353" d="M633.453 221.832L563.35 325.81l-65.616-23.542 151.528 8.334z"/><path fill="#c88a6d" fill-opacity=".624" d="M174.76 468.793l-50.428 48.496 128.734 6.782-30.943-35.553z"/><path fill="#271417" fill-opacity=".404" d="M834.924 504.781L898 697.331 601.85 458.387l56.983 202.495z"/><path fill="#968fa9" fill-opacity=".533" d="M170.972 216.904l41.306 49.745 15.847-139.64 58.169 13.688z"/><path fill="#8f98d0" fill-opacity=".239" d="M70.587 203.816l-71.16 18.532L16.7 167.633l19.517-1.466z"/><path fill="#061d52" fill-opacity=".4" d="M809.792 856.516l63.729 33.555-141.902 10.383-10.263-46.385z"/><path fill="#d09383" fill-opacity=".612" d="M461.385 788.124l-13.539 3.76-49.743-74.088 58.114 54.2z"/><path fill="#261f21" fill-opacity=".424" d="M58.415 969.088L-62 1029.359l178.24-24.932-49.083-302.5z"/><path fill="#251500" fill-opacity=".345" d="M619.506 168.318l-37.098 2.09-19.366 11.317 22.932-46.61z"/><path fill="#3b0800" fill-opacity=".267" d="M565.062 259.276l-46.873-3.078 12.96-2.373 37.631-70.174z"/><path fill="#ebc2ac" fill-opacity=".2" d="M461.095 239.001l23.126 11.62-39.14-112.857L515.413 60.6z"/><path fill="#9a4c1f" fill-opacity=".271" d="M110.654 552.846l147.608-36.542-38.065 59.803-29.03 37.738z"/><path fill="#31000c" fill-opacity=".412" d="M443.528 949.657L431.676 769.82l59.23 72.091 1.834-330.041z"/><path fill="#5a5672" fill-opacity=".506" d="M761.394 259.975L898 213.318l-120.052 72.645-15.554 49.515z"/><path fill="#e9fc91" fill-opacity=".204" d="M591.664 486.465l-8.336 38.086 8.716 16.412 15.586-33.74z"/><path fill="#e3daec" fill-opacity=".145" d="M281.16 302.873l28.795-20.25 37.358-8.757-109.553 62.683z"/><path fill="#4c322d" fill-opacity=".812" d="M78.952 543.907l91.302-157.617 133.427-22.97-258.845 29.44z"/></svg>