<svg xmlns="http://www.w3.org/2000/svg" width="228" height="278" viewBox="0 0 836 1024"><path fill="#703835" d="M0 0h836v1024H0z"/><path fill="#f75c5f" fill-opacity=".827" d="M356.914 1086l110.288-575.26 166.964-152.423-438.3-8.828z"/><path fill="#df3736" fill-opacity=".757" d="M636.772 1086l202.75-130.525-514.276-245.458-79.833 375.36z"/><path fill="#041c15" fill-opacity=".631" d="M13.397 1038.45l-32.23-801.363 179.86 143.856 107.006 692.028z"/><path fill="#effcf4" fill-opacity=".529" d="M281.019 736.75l-18.29-154.313 145.511 2.18 48.253 125.673z"/><path fill="#363130" fill-opacity=".996" d="M441.175 198.202L179.449 32.182l679.674-53.726-8.021 621.313z"/><path fill="#000f06" fill-opacity=".624" d="M832.824 911.612L898 789.868l-162.823-129.57L581.825 893.5z"/><path fill="#ebffe2" fill-opacity=".71" d="M594.459 767.474l9.063 52.693-54.782 67.175-56.184-44.588z"/><path fill="#e14346" fill-opacity=".647" d="M386.833 159.764l126.358 266.495L644.1 645.252l122.75-110.876z"/><path fill="#b5bac9" fill-opacity=".435" d="M6.658 257.305L-62 70.803 194.52-46.768 45.299 252.238z"/><path fill="#fdd8de" fill-opacity=".89" d="M637.302 1060.3l-28.834-16.948 108.21-15.92-59.687-81.95z"/><path fill="#900" fill-opacity=".612" d="M410.16 485.497l183.013-52.435-.602 314.983L462.257 871.36z"/><path fill="#a3cec2" fill-opacity=".592" d="M710.636 499.944l68.99-.657 31.542 93.676.527 110.937z"/><path fill="#86878b" fill-opacity=".612" d="M767.728 219.518L898 363.974l-196.976-.361-8.676-94.114z"/><path fill="#4e92cb" fill-opacity=".322" d="M419.64 281.052l105.027 22.474 62.21-195.135L476.735-62z"/><path fill="#7c503e" d="M115.061 769.998l164.15-200.763-59.582 183.723L-62 968.744z"/><path fill="#d9fced" fill-opacity=".467" d="M646.88 729.522l-31.187-150.854-27.17 129.74 49.443 41.78z"/><path fill="#072a00" fill-opacity=".4" d="M369.836 948.008l80.427 49.965L556.61 916.68l-59.977-79.384z"/><path fill="#2b1f03" fill-opacity=".427" d="M87.95 49.057l266.227 341.867 91.613-67.714-52.527-358.103z"/><path fill="#80706d" fill-opacity=".659" d="M271.24 362.39L84.717 115.005l22.63 169.19L3.622 378.33z"/><path fill="#f40e19" fill-opacity=".58" d="M265.125 628.491l-65.826 13.228-19.26-83.425 19.941-172.407z"/><path fill="#fd5356" fill-opacity=".882" d="M898 970.94l-208.651 26.924-52.551-83.274L898 917.924z"/><path fill="#181817" d="M830.463 382.355l-189.536-13.407 41.005 109.306 184.314 39.426z"/><path fill="#da3538" fill-opacity=".631" d="M256.308 622.145l146.56 61.978-142.163 16.38 124.143-87.1z"/><path fill="#2d261e" fill-opacity=".922" d="M273.283 631.364l.798 154.716 18.705 142.43L122.093 1086z"/><path fill="#f0363c" fill-opacity=".98" d="M318.718 313.056l-109.861 61.159 291.602 124.293-248.894 38.79z"/><path fill="#f11821" fill-opacity=".576" d="M501.44 682.609l10.12 95.431-225.882 291.435 7.167-309.187z"/><path fill="#151614" fill-opacity=".886" d="M-62 965.18L3.585 401.026l189.578-32.739-15.848 307.515z"/><path fill="#0e0701" fill-opacity=".557" d="M860.322-62L698.57 282.206 646.537 397.99l-100.034-87.932z"/><path fill="#f4fdf5" fill-opacity=".694" d="M388.72 664.12l61.559-30.895-168.127 4.257.976 33.41z"/><path fill="#c1fef8" fill-opacity=".341" d="M290.919 525.477l197.23 13.938-120.37 26.182-163.612-13.558z"/><path fill="#8f5641" fill-opacity=".847" d="M336.268 455.295l-47.382-215.513L302.53 82.39l-81.02 14.265z"/><path fill="#500004" fill-opacity=".627" d="M475.567 531.875l-101.99 48.012 230.232 59.25-43.97-167.087z"/><path fill="#e5fff6" fill-opacity=".427" d="M679.512 580.586l-13.371 24.258-91.408-134.447 43.125 36.794z"/><path fill="#060006" fill-opacity=".427" d="M116.26 104.712L490.754-62 217.246 118.936l65.902 243.79z"/><path fill="#060002" fill-opacity=".737" d="M721.643 32.485L586.93 90.727l-88.553-140.16L649.34-62z"/><path fill="#403025" d="M632.532 636.487l119.113-80.076 3.936 218.793 80.133-84.96z"/><path fill="#eb010c" fill-opacity=".439" d="M510.332 311.306L284.276 452.53l166.416-67.81 300.764 194.26z"/><path fill="#f4f9f8" fill-opacity=".451" d="M300.957 438.746l-89.848 5.441-1.302-19.088 68.437-13.118z"/><path fill="#958fae" fill-opacity=".314" d="M532.375 35.428L339.047-45.276l92.242 95.373 168.622 91.101z"/><path fill="#b7e8d6" fill-opacity=".333" d="M476.573 245.067l-17.156 48.724-37.757 194.097 30.806 18.626z"/><path fill="#f9fffe" fill-opacity=".659" d="M313.87 575.297l-59.971 38.071 166.793.305-3.612-15.039z"/><path fill="#8cada9" fill-opacity=".596" d="M898 751.293v-269.49l-71.02 15.139 4.65 252.123z"/><path fill="#a7181b" fill-opacity=".855" d="M612.339 839.748l-34.92 30.51L628.907 1086l26.65-167.21z"/><path fill="#d2b6c3" fill-opacity=".522" d="M116.31 116.07L-62 109.177l60.746-64.614L54.45 60.281z"/><path fill="#f2fff5" fill-opacity=".612" d="M252.123 717.644l181.375-3.668 4.972-57.476-13.615 21.9z"/><path fill="#314f6e" fill-opacity=".435" d="M261.398 334.092l-70.885 65.382L9.43 367.665l219.491-97.93z"/><path fill="#a20107" fill-opacity=".525" d="M176.209 455.2l108.21 180.7 151.725-9.159-217.692-22.626z"/><path fill="#a46e42" fill-opacity=".298" d="M456.838 300.577L319.977 92.127l-4.24-27.95 165.891 69.659z"/><path fill="#220e00" fill-opacity=".525" d="M400.852 368.002l-61.012-44.12 33.17-151.855 85.58 137.547z"/><path fill="#f5383e" fill-opacity=".702" d="M516.066 293.974l-96.885 74.903 254.93 80.044-33.569-49.827z"/><path fill="#61f2d2" fill-opacity=".341" d="M368.72 370.941l82.194-25.459-101.265 67.035-37.456-37.742z"/><path fill="#f02228" fill-opacity=".8" d="M315.043 1086l169.674-111.773 118.774-36.193 33.88 56.29z"/><path fill="#a75b3b" fill-opacity=".471" d="M605.145 155.785l-28.425 50.767 82.178 21.633 17.304-49.475z"/><path fill="#d5120b" fill-opacity=".314" d="M360.52 850.841L220.324 710.237l232.86-46.614-191.455 8.06z"/><path fill="#a5afae" fill-opacity=".596" d="M665.998 621.339l-83.277 35.473 218.786-135.158-67.43 21.138z"/><path fill="#0e1007" fill-opacity=".514" d="M737.128 995.974l33.375 35.037L898 1006.201l-137.163-25.06z"/><path fill="#1a1b1a" fill-opacity=".675" d="M-62 333.82l28.55 131.538 141.11-205.246-31.222-17.36z"/><path fill="#ff9637" fill-opacity=".224" d="M171.078 144.507l27.814 157.932L97.68 296.89l-8.134-105.846z"/><path fill="#071a45" fill-opacity=".392" d="M458.912 19.41l1.21 4.878 171.032 248.63-152.672-42.498z"/><path fill="#91644c" fill-opacity=".925" d="M569.517 801.966l140.914-147.653-52.73-10.933 13.156 106.43z"/><path fill="#814725" fill-opacity=".557" d="M898 163.253l-116.753 51.095-26.124-87.405 17.745-23.118z"/><path fill="#c86c3b" fill-opacity=".4" d="M14.982 867.977l27.243-3.68.462 77.179L-62 1031.079z"/><path fill="#0f1712" fill-opacity=".435" d="M589.47 797.072L898 731.283l-80.215 157.01-132.2 34.627z"/><path fill="#fffaef" fill-opacity=".337" d="M584.648 784.768l.807-107.366 11.64 171.516-119.059-5.553z"/><path fill="#aa1418" fill-opacity=".91" d="M709.181 515.595l-136.895-66.66L695.76 592.041l12.446-29.856z"/><path fill="#eb2d31" fill-opacity=".984" d="M367.356 1086l-9.949-362.117-76.168 7.856 19.38 308.678z"/><path fill="#f22b33" fill-opacity=".894" d="M390.517 571.145l-22.164-84.116-131.2-135.824 169.019 87.473z"/><path fill="#afa5a4" fill-opacity=".78" d="M218.875 668.118l74.284-31.186-21.955 21.045-80.58-16.281z"/><path fill="#ba181c" fill-opacity=".941" d="M449.078 593.16l41.811 95.01-190.087 69.705 134.187-28.066z"/><path fill="#140b06" fill-opacity=".529" d="M656.156 238.43L898-17.411 606.251 150.023l243.046 76.047z"/><path fill="#050200" fill-opacity=".576" d="M272.676 12.668l-20.114 59.095 193.515 8.516-41.64-61.625z"/><path fill="#a22628" fill-opacity=".808" d="M286.225 571.407l-74.213 3.187 40.09 15.526 301.377-35.993z"/><path fill="#dc8a88" fill-opacity=".722" d="M565.818 386.559l44.001-17.475L499.358 281.3 618.58 394.903z"/><path fill="#630300" fill-opacity=".592" d="M570.573 934.69L461.69 982.557l-87.54 70.37 98.358-123.365z"/><path fill="#762f0d" fill-opacity=".565" d="M599.07 806.66l184.223-197.652-137.115 199.84-113.406-68.618z"/><path fill="#cf0009" fill-opacity=".514" d="M633.777 556.14l-124.35-134.885 106.078 186.263 35.42.828z"/><path fill="#daccd0" fill-opacity=".471" d="M410.806 413.124l128.434 23.532-166.773-6.915 12.797-16.812z"/><path fill="#5c473d" fill-opacity=".757" d="M6.464-62L-4.208 44.203 338.842-.084 92.471 78.611z"/><path fill="#451f12" d="M272.981 675.656l.813 68.536-54.487-88.158 51.894 5.382z"/><path fill="#80523d" fill-opacity=".682" d="M575.156-62L447.315 80.79l-34.532-60.591-127.58-33.55z"/><path fill="#92a8a1" fill-opacity=".498" d="M786.616 737.278l19.341-61.305-2.537 26.971-72.045 61.74z"/><path fill="#200" fill-opacity=".557" d="M500.598 487.71l80.551 57.487-121.848 20.94-8.582-4.172z"/><path fill="#d8f8ed" fill-opacity=".494" d="M444.38 352.928l11.283-3.78 14.414-46.868 13.242-54.865z"/><path fill="#fd5c5d" fill-opacity=".643" d="M611.561 848.979l161.792 194.294 12.028 38.466-71.341-45.427z"/><path fill="#b3ddd2" fill-opacity=".271" d="M757.727 485.242l58.212 78.69-6.986 10.526-131.222-79.282z"/><path fill="#c4c0c4" fill-opacity=".278" d="M699.12 309.496l188.658-75.227-32.761 67.547-120.472-65.553z"/><path fill="#aa846c" fill-opacity=".6" d="M240.296 85.682l82.677 48.762L285.8 157.92l-50.695-49.269z"/><path fill="#001312" fill-opacity=".502" d="M638.633 641.759l-17.34 3.176 97.604-60.11-67.681 99.507z"/><path fill="#593625" fill-opacity=".416" d="M50.85 321.044l26.098-129.53 473.168.187-493.277-55.563z"/><path fill="#f6f4ee" fill-opacity=".816" d="M365.959 725.16l-86.938-5.94-4.266-18.54 163.428-11.03z"/><path fill="#fafef8" fill-opacity=".486" d="M273.417 651.113l138.7-15.702 35.515 38.803-263.192-22.515z"/><path fill="#f3373d" fill-opacity=".847" d="M264.578 333.648l59.323-10.63-119.059 118.276-11.071-20.796z"/><path fill="#f5a772" fill-opacity=".333" d="M658.768 101.551L662.3 64.65l26.66-.996 8.895 33.19z"/><path fill="#d61e22" fill-opacity=".82" d="M462.14 442.825l203.975 16.197-68.881-73.99-127.226 135.352z"/><path fill="#d5b8b4" fill-opacity=".643" d="M631.019 521.704l42.185 77.93-92.2-109.029 24.8-4.194z"/><path fill="#adf5a7" fill-opacity=".153" d="M543.397 327.449l-27.33-76.995L392.865 188.7l5.22 66.615z"/><path fill="#45282b" fill-opacity=".627" d="M392.38 393.594l3.135-5.779-55.626 26.465 93.793-57.683z"/><path fill="#1e0f07" fill-opacity=".737" d="M462.244 300.476l-5.004-21.39-94.524 76.228-46.246-43.112z"/><path fill="#f53033" fill-opacity=".537" d="M259.828 1013.74L189.722 1086l227.061-84.453-86.069-250.904z"/><path fill="#c48357" fill-opacity=".478" d="M347.647 177.845l-28.158 27.742 7.505 40.87 22.499-31.962z"/><path fill="#251716" d="M-39.732 620.945l312.15 19.555-.839 5.191-31.52-.17z"/><path fill="#2572c6" fill-opacity=".282" d="M528.919 130.527L487.563 96.75l18.36-76.27 116.465 96.502z"/><path fill="#bfd8d1" fill-opacity=".349" d="M605.083 601.466l-4.002 54.706-6.744 43.413 64.766 17.14z"/><path fill="#cbded8" fill-opacity=".212" d="M277.1 554.691l-48.967 36.855 52.42-74.456 209.28 59.601z"/><path fill="#f5fff9" fill-opacity=".529" d="M412.667 596.543l-55.865-13.404-104.438 53.64 37.16-51.257z"/><path fill="#100905" fill-opacity=".608" d="M679.875 643.566l47.286-35.747 28.115-67.372-89.778 92.08z"/><path fill="#fb333a" fill-opacity=".757" d="M385.198 392.11l-88.812 147.828L189.261 418.85l48.402 132.108z"/><path fill="#d4f8f8" fill-opacity=".427" d="M648.237 614.867l-38.183 15.362 66.732-20.32 55.606-44.24z"/><path fill="#dd0209" fill-opacity=".373" d="M365.42 694.443l52.585-29.8-56.731-.315-118.212 24.55z"/><path fill="#1e0414" fill-opacity=".478" d="M203.95 281.393l32.919-194.474-78.905-46.71 125.955 271.205z"/><path fill="#bc3a36" d="M398.986 588.331l3.286-26.678 18.678-117.37 8.079 54.062z"/><path fill="#f5f6f9" fill-opacity=".263" d="M216.392 429.149l87.841-23.585-52.195 39.59 22.138 82.51z"/><path fill="#201309" fill-opacity=".678" d="M268.36 836.487l-185.773 32.46-62.124 71.298 255.19-213.466z"/><path fill="#5c0103" fill-opacity=".561" d="M629.925 891.96l25.586 98.796-73.021-131.963-15.003 16.71z"/><path fill="#151411" fill-opacity=".812" d="M813.955-34.237L729.828 123.36 661.53.049l187.76 142.922z"/><path fill="#a70e14" fill-opacity=".541" d="M499.453 712.571l-48.333 68.323-27.312-207.425 98.008 15.071z"/><path fill="#fdfbff" fill-opacity=".702" d="M619.533 1086l48.095-125.019 24.37 56.546 71.56 68.473z"/><path fill="#58260b" fill-opacity=".533" d="M290.773 713.708L80.943 841.095l-96.283 124.48 161.304-121.323z"/><path fill="#2c2d27" fill-opacity=".922" d="M284.083 856.893l-36.041 196.199L-62 1033.924 173.543 836.87z"/><path fill="#e5fffe" fill-opacity=".161" d="M774.33 50.014l-28.209-2.226-22.452-18.64L750.36-62z"/></svg>