<svg xmlns="http://www.w3.org/2000/svg" width="228" height="278" viewBox="0 0 836 1024"><path fill="#473f41" d="M0 0h836v1024H0z"/><g fill-opacity=".502"><path fill="#000007" d="M898 922L194 202l264 884z"/><path fill="#b29c45" d="M-62 666l936-184L14 938z"/><path fill="#a28875" d="M806-62L-62 286l960-60z"/><path fill="#000010" d="M202 290L46 630l852-224z"/><path fill="#9b8f8a" d="M-62 6l12 1024L230-18z"/><path fill="#90838a" d="M462 1066L234 526 26 878z"/><path fill="#ff0" d="M614 646l-60-84 232-100z"/><path fill="#00002a" d="M806 1086L286 730l440-120z"/><path fill="#421800" d="M342-62L150 126l476 404z"/><path fill="#ede7d2" d="M766 234l128 8-80 140z"/><path fill="#000036" d="M562 214l336 224-548 148z"/><path fill="#988b7e" d="M898 446l-208 44 168 432z"/><path fill="#000021" d="M306 594l592 360-444 132z"/><path fill="#00000c" d="M66 790l8-292 272-188z"/><path fill="#76747f" d="M834-42l24 376L278-46z"/><path fill="#975c28" d="M486 358l-48-236-276 172z"/><path d="M426 102l-244 20L314-62z"/><path fill="#858368" d="M562 550l40-128-100 20z"/><path fill="#200" d="M274 1086H22l8-220z"/><path fill="#898275" d="M230 286L166 78-62 570z"/><path fill="#727400" d="M326 706l300-64-344-52z"/><path fill="#000d4d" d="M858 998l-196 36 44-528z"/><path fill="#ff0" d="M542 554l-88 48-12-28z"/><path fill="#000d50" d="M742 254l116 224-360-252z"/><path fill="#00001d" d="M746 658l-428 40 172 388z"/><path fill="#000021" d="M298 238l264 296-452-88z"/><path fill="#2e2d00" d="M358 602l36 76 252-84z"/><path fill="#827973" d="M406 902L70 878l156-344z"/><path fill="#fff" d="M814 318l-4 72-28-104z"/><path fill="#823b1b" d="M130 658L-10 962l64-388z"/><path fill="#85807a" d="M802 258L430 50l8 164z"/><path fill="#746960" d="M718 454l20 244 160-232z"/><path fill="#00042b" d="M610 534L122 430l172 164z"/><path fill="#fff309" d="M706 502l-176 60 148 16z"/><path fill="#ffd800" d="M506 330V226l20 72z"/><path fill="#a86c3a" d="M146 178l148-72 40 64z"/><path fill="#e2d935" d="M254 498l32 8 40-28z"/><path fill="#e0d117" d="M602 646l-108 24 192-108z"/><path fill="#00000b" d="M542 562l-24 40 96 60z"/><path fill="#00001c" d="M766 430L442 206l204 316z"/></g></svg>