<svg xmlns="http://www.w3.org/2000/svg" width="228" height="278" viewBox="0 0 836 1024"><path fill="#5e7383" d="M0 0h836v1024H0z"/><g fill-opacity=".502"><path fill="#0067c7" d="M178 342l72 632 448 112z"/><path fill="#7b3b19" d="M-62 82L626-18 442 394z"/><path fill="#00a4ff" d="M794 466L62 510l212-160z"/><path fill="#fbeedf" d="M-62 1022l28-164 484 180z"/><path fill="#ff9da8" d="M302 506l296-24-136 288z"/><path fill="#f7f0eb" d="M-62 318l212 164L38 178z"/><path fill="#003461" d="M826 526L334 630l548 72z"/><path fill="#ffecd7" d="M726 806l-108 280-12-264z"/><path fill="#005b9b" d="M78 446l548 400-168 240z"/><path fill="#9bd5e9" d="M566 486l112-240-216-36z"/><path d="M430 414l16-220-132 160z"/><path fill="#fff" d="M410 746l188-16-176-84z"/><path fill="#f6b47d" d="M18 1086l-80-288 164-324z"/><path fill="#5a433e" d="M270 854L90 1026l136-500z"/><path fill="#a58e77" d="M-38 610l496-420L298-6z"/><path fill="#070000" d="M470 18L286 90l316 84z"/><path fill="#008dde" d="M466 370l192-4 120 336z"/><path fill="#caf0fb" d="M202 822L98 794l192 268z"/><path fill="#684a47" d="M770 1086L658-58l240 372z"/><path fill="#0068a6" d="M606 690L198 950l400 124z"/><path fill="#dc9861" d="M798 1086l100-216-148-220z"/><path fill="#003b7b" d="M114 514L90 642l424 12z"/><path fill="#ff8d82" d="M650 586l-328 28 48-124z"/><path fill="#141c15" d="M30 718l8 88 248-28z"/><path fill="#d6e5e7" d="M130 794l-80 284-16-252z"/><path fill="#004f8a" d="M622 494l276-172-360 468z"/><path fill="#dc97a7" d="M206 610l36 96-220 48z"/><path fill="#0094d9" d="M250 978l152-40-108-520z"/><path fill="#4b3415" d="M738 662l48 184-192-60z"/><path fill="#fffff4" d="M450 646l100 104 4-100z"/><path fill="#0085d7" d="M434 446l-300 24-80 164z"/><path d="M262 634l-124-64 84-28z"/><path fill="#40d5ff" d="M126 438l204 40-4-148z"/><path fill="#0c0700" d="M358 402l96-120-168-64z"/><path fill="#ff1013" d="M398 494l-76 4 8 92z"/><path fill="#ff6f6d" d="M414 490l172 124V482z"/><path d="M678 702l-28-188-32 52z"/><path fill="#9c7373" d="M574-62L34 218 78-62z"/><path fill="#86625c" d="M786-62l112 300-516-8z"/><path fill="#000d12" d="M178 958l-56-104-12 128z"/></g></svg>