<svg xmlns="http://www.w3.org/2000/svg" width="228" height="278" viewBox="0 0 836 1024"><path fill="#2c4d60" d="M0 0h836v1024H0z"/><path fill="#299fd1" fill-opacity=".678" d="M661.752 318.616l-358.309 37.937L138.108 892.61l362.122-39.937z"/><path fill="#322d2b" fill-opacity=".906" d="M898 381.28l-8.69-411.156L-62-62-.719 235.31z"/><path fill="#fdbf8b" fill-opacity=".322" d="M320.62 102.479l122.888-25.946 116.84 282.508-230.686-129.18z"/><path fill="#2b86ac" fill-opacity=".941" d="M551.322 291.91l203.329 157.822 55.474 128.723L447.88 331.639z"/><path fill="#060214" fill-opacity=".663" d="M157.4 1086l7.386-182.434 274.482-51.598-40.714 66.42z"/><path fill="#fd9751" fill-opacity=".529" d="M454.296 1086l-185.157-64.816 99.019-89.372 49.755 16.797z"/><path fill="#44cbfc" fill-opacity=".298" d="M-62 506.092l17.078-51.743 354.046-216.104 65.724 101.631z"/><path fill="#171f24" fill-opacity=".851" d="M649.859 352.322L532.5 295.098 898 184.468l-3.535 423.381z"/><path fill="#e4d4c9" fill-opacity=".498" d="M536.94 545.523l-226.766-42.621 47.457 66.578 158.244 15.27z"/><path fill="#fe8835" fill-opacity=".467" d="M-62 464.412l130.116-74.637 52.265 47.106-140.6 94.99z"/><path fill="#3eacd8" fill-opacity=".471" d="M467.458 959.69l75.788-73.853-28.301-347.455L412.16 893.115z"/><path fill="#09020a" fill-opacity=".337" d="M68.34 756.308l126.006-12.524 16.965-333.234-175.913 75.59z"/><path fill="#040000" fill-opacity=".212" d="M898 764.989V727.34L607.392 368.643l-68.416 387.162z"/><path fill="#281c16" fill-opacity=".494" d="M-62 325.366l564.926-87.125-111.58 163.491L258.424-28.996z"/><path fill="#f87c1f" fill-opacity=".42" d="M792.227 507.008l-31.598 40.971 57.04 91.928 52.699-45.535z"/><path fill="#e5f2fd" fill-opacity=".482" d="M588.16 414.24l-104.773-3.99-.209 33.751-31.278 35.272z"/><path fill="#00507b" fill-opacity=".4" d="M144.08 326.42L404.8 613.936l-35.17 117.486-67.348 49.013z"/><path fill="#1b75a1" fill-opacity=".957" d="M475.813 485.453L316.505 260.65 154.35 314.938 142.383 367.1z"/><path fill="#31a0cb" d="M234.34 610.985L132.497 907.538l260.361-56.834-175.832-7.74z"/><path fill="#b2b3af" fill-opacity=".749" d="M266.09 525.981l82.994-65.9-70.02-1.364-12.84 51.346z"/><path fill="#0a131e" fill-opacity=".6" d="M565.329 7.745l163.794 148.068L898 217.028 828.963-62z"/><path fill="#00121d" fill-opacity=".204" d="M299.317 480.408L898 673.306 630.485 461.284l-73.581 15.83z"/><path fill="#8d6143" fill-opacity=".522" d="M471.934 345.856l41.087-197.694-182.83-66.225 12.08 186.969z"/><path fill="#173c72" fill-opacity=".655" d="M898 804.339v202.533l-361.175 12.33-3.73-289.138z"/><path fill="#181a1b" fill-opacity=".612" d="M170.92 50.93l242.653 142.68 52.62-57.314-240.047 71.922z"/><path fill="#23b0e7" fill-opacity=".412" d="M705.119 393.199l-13.155 36.987-215.998-99.967 38.356-50.931z"/><path fill="#190f20" fill-opacity=".639" d="M515.506 984.172L441.85 1086l-9.128-108.628-81.034-90.15z"/><path fill="#18160f" fill-opacity=".675" d="M497.676 94.356L212.648 78.632 278.21-35.804l219.415 88.589z"/><path fill="#000d1c" fill-opacity=".314" d="M623.489 402.113l-262.547-39.962 152.68-126.763-155.199 73.134z"/><path fill="#2896c1" fill-opacity=".529" d="M71.096 382.06l82.913 98.603-4.187-172.82 213.261-48.414z"/><path fill="#323a49" fill-opacity=".91" d="M501.432 310.475l147.96-231.302 64.003 147.254-247.713-30.249z"/><path fill="#38302d" fill-opacity=".729" d="M212.99 287.378L-37.25 415.309l25.083-199.769 407.947 14.096z"/><path fill="#239dcb" fill-opacity=".569" d="M625.272 514.447L520.761 697.23l14.61 270.317-101.999-339.428z"/><path fill="#c5926f" fill-opacity=".463" d="M433.898 212.271l74.065-19.536-188.858-95.292 138.364-9.958z"/><path fill="#f3bab5" fill-opacity=".49" d="M432.062 896.738l-7.51-19.518 69.209 38.312-7.636 25.48z"/><path fill="#004063" fill-opacity=".729" d="M203.958 368.53l-70.569 67.773 125.812 52.564 49.722-44.612z"/><path fill="#4e575b" fill-opacity=".565" d="M695.557 559.134l23.77 220.641 81.577-33.12-28.06-138.88z"/><path fill="#080c14" fill-opacity=".694" d="M504.388 869.45L251.04 915.56l7.303 170.44 80.959-219.68z"/><path fill="#66ccf1" fill-opacity=".416" d="M787.702 505.292l-8.735 33.082-150.812-194.01 27.184 14.51z"/><path fill="#1484b6" fill-opacity=".482" d="M213.982 807.067l277.836 75.216-21.085-171.703-267.548-148.211z"/><path fill="#182241" fill-opacity=".941" d="M140.013 916.69L107.163 1086l65.9-26.921L289.5 876.9z"/><path fill="#12132a" fill-opacity=".663" d="M492.781 910.853L464.488 1086l56.016-122.133-19.547-69.61z"/><path fill="#0c192a" fill-opacity=".286" d="M536.016 670.62l-51.367 7.145L657.065 546.6 592.63 791.885z"/><path fill="#f7d1be" fill-opacity=".263" d="M346.16 429.193l-9.185 127.153-33.667-69.5-49.72 5.505z"/><path fill="#1b3867" fill-opacity=".6" d="M194.591 667.568l-92.602 363.527L-62 966.312l34.203-153.298z"/><path fill="#ffcdb9" fill-opacity=".224" d="M481.643 184.022l37.407-40.783-128.598 79.034-99.823-28.335z"/><path fill="#4f535d" fill-opacity=".51" d="M735.98 474.79l53.972-16.646-26.895-86.617-46.124 77.714z"/><path fill="#dff8ed" fill-opacity=".337" d="M105.9 349.773l46.424-33.176 109.208-40.618-61.005 25.325z"/><path fill="#003156" fill-opacity=".459" d="M548.83 483.719l150.31-42.113-33.974 69.81-308.467-34.99z"/><path fill="#f9f9f0" fill-opacity=".267" d="M325.433 163.759l-3.843-36.144 7.366-29.906 21.264-6.846z"/><path fill="#ff821e" fill-opacity=".086" d="M-62 771.483l126.834-32.388.943-262.377-4.175-277.783z"/><path fill="#00b5ff" fill-opacity=".235" d="M786.5 521.062l-39.633 36.33-99.75-82.969 64.535-10.075z"/><path fill="#2f3855" fill-opacity=".851" d="M423.756 965.848l55.924-57.905-42.842 125.528L466.33 871.7z"/><path fill="#0f608e" fill-opacity=".78" d="M178.956 811.88l-40.875 11.596 230.383-12.042-116.801-6.205z"/><path fill="#ffe0e0" fill-opacity=".329" d="M490.166 943.218l-38.08 24.86 22.709-40.464 19.022-8.037z"/><path fill="#55c8f3" fill-opacity=".275" d="M532.188 548.106L320.22 413.678l65.89-45.334-136.069 31.745z"/><path fill="#060a0a" fill-opacity=".537" d="M-62 99.437L-24.547-62h76.843L65.441 70.386z"/><path fill="#9eaeb3" fill-opacity=".624" d="M289.82 553.786l-29.807-64.495 36.094 51.799 221.046 2.855z"/><path fill="#06547d" fill-opacity=".561" d="M208.685 568.938l10.869-299.25 52.097 253.525 67.787 109.246z"/><path fill="#384448" d="M137.88 340.27l-74.617 25.85 47.63 6.434 30.42-17.79z"/><path fill="#11222d" fill-opacity=".784" d="M663.772 527.066l-24.448-87.249-21.614 61.618-54.417 160.124z"/><path fill="#024" fill-opacity=".341" d="M354.342 461.994l61.513 27.013 75.654 48.864-299.247-137.504z"/><path fill="#8b6f51" fill-opacity=".659" d="M474.162 93.325l2.497 145.014-49.128 117.035 58.692-31.14z"/><path fill="#120b00" fill-opacity=".227" d="M177.278 332.83l43.645 116.241-270.976 68.827 237.885 25.686z"/><path fill="#d6bc7e" fill-opacity=".114" d="M46.11-31.835l139.496 5.165L229.26 79.941l-77.665 4.126z"/><path fill="#bb926e" fill-opacity=".647" d="M804.922 567.29l-33.546-8.22 10.106-46.827 74.397 55.744z"/><path fill="#361f00" fill-opacity=".51" d="M879.35 711.04l-48.75-35.716-107.92-117.59 57.701 13.3z"/><path fill="#141819" fill-opacity=".49" d="M298.414 193.922L374.9-62 113.6 135.751l329.136 26.346z"/><path fill="#289fce" fill-opacity=".851" d="M555.073 347.158l-28.025-52.65-85.373 60.652 122.743 13.951z"/><path fill="#8c96d7" fill-opacity=".231" d="M292.804 1049.061l595.179-24.443-66.142-8.656-254.465-1.889z"/><path fill="#34c8fe" fill-opacity=".271" d="M652.51 452.82l-217.985-20.257 118.768 78.07-117.935-2.77z"/><path fill="#003059" fill-opacity=".624" d="M605.28 391.335l-70.248-22.514-89.411-5.622 164.337 38.387z"/><path fill="#a4bfc6" fill-opacity=".58" d="M534.754 591.291l-16.548-36.998-110.4-34.145 55.72 65.006z"/><path fill="#0d547e" fill-opacity=".408" d="M191.147 734.875l323.447-18.215-323.238 54.526 224.288-74.448z"/><path fill="#014175" fill-opacity=".675" d="M391.224 805.472l-64.922 20.624L243.44 853.2l90.17-40.82z"/><path fill="#2abff5" fill-opacity=".243" d="M625.704 476.18L574.34 614.36 178.408 810.708l302.175-132.336z"/><path fill="#160e29" fill-opacity=".576" d="M436.55 862.9l52.74 24.408 21.697 36.762-12.771-10.043z"/><path fill="#1e7eaa" fill-opacity=".655" d="M422.148 400.044L364.42 780.095l92.427-234.326-75.757 61.8z"/><path fill="#080500" fill-opacity=".506" d="M307.919 898.975L215.106 1086l120.54-136.034 99.482-24.484z"/><path fill="#fcf4e3" fill-opacity=".349" d="M314.792 973.883l7.078-2.979 5.174 8.262-68.3 78.346z"/><path fill="#2a9ecb" fill-opacity=".824" d="M529.122 676.055l5.628 192-156.129-85.941 158.86-75.748z"/><path fill="#3ca8cf" fill-opacity=".82" d="M508.732 877.338l15.415 49.656-59.947-67.559-46.789-2.01z"/><path fill="#ffe3df" fill-opacity=".322" d="M401.828 881.747l19.042 16.444 48.543 19.226 25.609-15.525z"/><path fill="#141b24" fill-opacity=".69" d="M689.873 308.428L580.063 159.97l-13.664 144.96 158.259 98.08z"/><path fill="#11191f" fill-opacity=".922" d="M887.78 589.757l-94.14-73.369-3.618-266.525 97.053-49.171z"/><path fill="#1b5fd3" fill-opacity=".129" d="M576.347 127.64l123.413-23.366 3.397 90.89-29.001 68.974z"/><path fill="#ccddfa" fill-opacity=".067" d="M327.916 148.678l-65.84 24.498-45.65 126.101 148.422-35.085z"/><path fill="#119ed6" fill-opacity=".396" d="M82.316 397.47l73.003-49.859-45.65 135.25 53.148-21.386z"/><path fill="#0a5078" fill-opacity=".51" d="M118.563 673.852l422.303-17.67-124.008 18.357-22.784-28.97z"/><path fill="#91e0fc" fill-opacity=".337" d="M78.372 372.508l22.4-8.18L-4.306 438.65 98.21 382.835z"/><path fill="#534333" fill-opacity=".584" d="M368.262-14.532L323.21 68.35l72.669-49.488 169.66 32.592z"/><path fill="#000a00" fill-opacity=".294" d="M372.794 317.223l94.967-68.73-69.016 123.67 54.814 18.995z"/><path fill="#87edff" fill-opacity=".149" d="M93.504 1010.005L237.26 686.798l200.764-26.24-224.703 15.087z"/><path fill="#0b6493" fill-opacity=".51" d="M228.604 302.413l113.68-39.39 34.438 95.592-253.182 51.468z"/><path fill="#1b264a" fill-opacity=".533" d="M468.644 1019.763l-71.723-113.982 65.734-1.077-12.872-60.054z"/><path fill="#36b1e0" fill-opacity=".69" d="M288.17 873.031l157.916-18.379-142.964.58-187.702 53.064z"/><path fill="#292e35" fill-opacity=".682" d="M510.686 308.413l-39.758 9.46 192.56-261.432-160.523 31.285z"/><path fill="#c0d8df" fill-opacity=".533" d="M406.752 566.889l-39.136-2.331-28.705-29.225 46.865 4.655z"/><path fill="#885f44" fill-opacity=".855" d="M515.623 187.818l-11.41-33.409-118.996-39.198-21.078 7.733z"/><path fill="#40110e" fill-opacity=".235" d="M516.176 874.508l-116.17-33.059 38.44 5.253 63.429 10.213z"/><path fill="#25262a" fill-opacity=".745" d="M246.694 276.812l-52.792-19.73-93.607-199.588 19.8 270.698z"/><path fill="#062f4d" fill-opacity=".227" d="M397.962 515.962l78.744 99.967-94.354-97.857L195.08 373.054z"/><path fill="#e3a880" fill-opacity=".22" d="M372.505 154.31l-25.556 90.321 42.726-28.817 57.228 84.238z"/><path fill="#003861" fill-opacity=".369" d="M530.08 554.556l133.68-85.907 32.558-53.338-169.594 109.262z"/><path fill="#35b0dc" fill-opacity=".557" d="M323.278 771.416l-135.355 27.641 243.612 1.07-156.934 4.526z"/><path fill="#1c4d68" fill-opacity=".6" d="M328.388 542.29l-25.668.814-18.371-27.15 11.906-24.684z"/><path fill="#7990a8" fill-opacity=".498" d="M271.616 409.732l34.794-21.362-28.908 4.42 123 7.804z"/><path fill="#045181" fill-opacity=".651" d="M527.804 750.304l-113.976 43.93-64.213 19.99 84.17-34.753z"/><path fill="#000723" fill-opacity=".243" d="M397.733 741.43l90.816-33.182-.418-5.372-138.987 45.922z"/><path fill="#14658f" fill-opacity=".71" d="M472.426 606.072l6.042-94.163-12.007 81.865-211.534 1.46z"/><path fill="#2ea1cc" fill-opacity=".667" d="M250.863 747.193l-28.367-19.117 248.281-48.23-284.635 41.401z"/><path fill="#060700" fill-opacity=".302" d="M13.428 473.012L-62 193.82l113.738 3.69L-62 466.345z"/><path fill="#403c38" fill-opacity=".882" d="M486.561 274.714l-8.107-21.934 34.808-75.616 36.452 127.678z"/><path fill="#2ea1cd" fill-opacity=".949" d="M129.471 911.816l57.955-58.084 349.988-121.825-307 120.162z"/><path fill="#4a3e27" fill-opacity=".639" d="M119.16 438.035l-2.648 25.85-126.494 78.02 54.724-64.182z"/><path fill="#464645" fill-opacity=".549" d="M71.798 386.367l51.315-117.186-46.452-28.31L-62 470.698z"/><path fill="#0b527a" fill-opacity=".835" d="M462.979 362.923l-88.67 7.734 125.682 25.049-168.66-65.532z"/><path fill="#035a95" fill-opacity=".584" d="M439.843 820.486l-39.857-.256-107.442 26.751 91.416-7.242z"/><path fill="#2394c2" fill-opacity=".733" d="M475.054 623.754l-139.85-28.474 149.383 60.413L323.4 648.84z"/><path fill="#feecec" fill-opacity=".192" d="M576.712 411.098l.361 9.429-122.898 59.91 29.91-52.732z"/></svg>