<svg xmlns="http://www.w3.org/2000/svg" width="228" height="278" viewBox="0 0 836 1024"><path fill="#847f88" d="M0 0h836v1024H0z"/><path fill="#d1deee" fill-opacity=".757" d="M610.926 340.535l-412.787 51.052-23.598 622.544L620.773 1086z"/><path fill="#160003" fill-opacity=".702" d="M409.67-62L136.129 474.853 35.586 772.922-62 15.959z"/><path fill="#5c3d3f" d="M889.34 577.008L242.838 5.346l514.778 105.37L833.419-62z"/><path fill="#062525" fill-opacity=".725" d="M618.774 964.181l19.736-413.757 154.097 190.584-96.39 166.85z"/><path fill="#cfdcec" fill-opacity=".643" d="M291.31 353.065l176.008 70.82-524.647 602.212 222.44-601.559z"/><path fill="#00154f" fill-opacity=".655" d="M-41.272 1086l157.236-72.126L190.98 851.69l37.617-207.23z"/><path fill="#e9ebfd" fill-opacity=".498" d="M898 614.22L609.276 323.007 898 1049.384l-251.754-74.778z"/><path fill="#8c381e" fill-opacity=".498" d="M168.39 606.123l339.018 4.084-3.965 64.07-319.254-14.528z"/><path fill="#613b3b" fill-opacity=".941" d="M124.61 419.816L766.73 113.76 376.339 397.11 259.945 170.632z"/><path fill="#fff7ff" fill-opacity=".475" d="M463.683 363.138l-349.811 126.66 684.038-8.047-374.022-219.015z"/><path fill="#2b0f18" fill-opacity=".722" d="M711.31 407.469L465.145 292.086 898 342.737v277.309z"/><path fill="#d9e3ec" fill-opacity=".882" d="M898 840.457L781.777 587.73 898 582.068 692.001 919.546z"/><path fill="#b0e4f5" fill-opacity=".353" d="M496.289 218.848l-73.876-50.152 475.587.478v38.614z"/><path fill="#000305" fill-opacity=".816" d="M133.066 412.562L91.976 675.76-45.98 580.336l38.53-170.472z"/><path fill="#d5e0ef" d="M133.425 1012.206l138.167-2.003 56.345-344.066-181.677 286.74z"/><path fill="#9a7761" fill-opacity=".992" d="M485.445 301.758L315.2 369.142l-.032-257.08 144.449-27.34z"/><path fill="#3e485c" fill-opacity=".859" d="M898 944.031l-130.73-6.2 72.637-83.221 12.205 216.992z"/><path fill="#798596" fill-opacity=".788" d="M201.768 817.604l32.103-152.476-36.384-149.644-76.374 197.936z"/><path fill="#171347" fill-opacity=".576" d="M811.13 526.748l-62.854 46.064 22.455 30.277 55.28-36.957z"/><path fill="#191f24" fill-opacity=".816" d="M206.72 873.269l-4.128-8.859-30.63-103.172L46.42 958.392z"/><path fill="#59535f" fill-opacity=".749" d="M199.695 197.55l3.77 84.289L-62 232.199l67.523-87.905z"/><path fill="#485b6a" fill-opacity=".604" d="M780.817 775.184l34.301-99.087-247.777-107.182 82.462-32.962z"/><path fill="#bdadc1" fill-opacity=".604" d="M670.213 577.578l-59.286 261.758 110.527-370.044-185.015-134.91z"/><path fill="#d46701" fill-opacity=".38" d="M275.711 649.77l93.64-72.336 132.835 59.076-128.411 57.599z"/><path fill="#e1f3ff" fill-opacity=".49" d="M264.71 734.064l23.925-101.482 282.614-268.19-422.113 52.49z"/><path fill="#520001" fill-opacity=".463" d="M819.509 233.808L527.12 364.885l311.003-14.099L428.52 237.353z"/><path fill="#465760" fill-opacity=".902" d="M6.649 741.712l-25.324 145.333 104.006-231.65-50.749-55.214z"/><path fill="#6b3115" fill-opacity=".761" d="M610.994 1086l40.014-105.376 95.684 23.539L703.903 1086z"/><path fill="#3e0007" fill-opacity=".776" d="M-3.166-62l207.421 6.455-45.208 203.265L-62 146.033z"/><path fill="#cbcfdf" fill-opacity=".831" d="M146.476 440.395l-28.597 75.7-21.894 211.846 127.001-349.015z"/><path fill="#d4dce5" fill-opacity=".914" d="M154.373 533.456L23.688 788.616-62 1054.476 38.884 830.545z"/><path fill="#7c735d" fill-opacity=".78" d="M294.99 132.981l52.055-101.574 434.95 96.687L301.077-26.253z"/><path fill="#afc0d8" fill-opacity=".733" d="M621.148 552.55L616.73 1086l39.902-158.444-432.43 149.361z"/><path fill="#1134a2" fill-opacity=".851" d="M142.582 937.377L98.058 1086H-55.25l76.9-124.196z"/><path fill="#2d0513" fill-opacity=".463" d="M307.17 331.78L276.387 91.981 99.984 509.646l68.438-103.887z"/><path fill="#6b472c" fill-opacity=".447" d="M407.858 127.765l36.264 248.474-98.828 15.132-29.292-15.313z"/><path fill="#cddcec" fill-opacity=".882" d="M387.926 988.013L289.964 686.46l-109.455 98.65 34.813 74.129z"/><path fill="#000507" fill-opacity=".839" d="M898 396.956l-159.882 28.832 67.94 94.985 50.013 38.135z"/><path fill="#e6d0da" fill-opacity=".729" d="M778.365 472.39l-13.658 61.546L567.49 344.113l90.335 33.186z"/><path fill="#000d1d" fill-opacity=".608" d="M738.902 630.261l-125.698 328.59 46.806-292.027 89.696 155.413z"/><path fill="#2b0312" fill-opacity=".259" d="M183.336 563.447l113.766-66.968-72.209 20.177 1.068 227.378z"/><path fill="#aab5c5" fill-opacity=".761" d="M108.456 717.992l60.21 49.196L87.22 882.304l-127.734 153.119z"/><path fill="#ab353d" d="M202.98 1011.029l-36.353 3.497L-56.364 1086H357.67z"/><path fill="#ded85d" fill-opacity=".851" d="M341.783 596.522l83.02-15.61-21.785-1.308-21.817 112.934z"/><path fill="#e3eefc" fill-opacity=".671" d="M520.31 586.085L182.734 483.703 305.678 327.28l20.524 52.66z"/><path fill="#83a0b8" fill-opacity=".431" d="M358.642 691.995l-89.85 63.128 124.296 70.36 203.203-20.912z"/><path fill="#c59884" fill-opacity=".565" d="M506.553 232.003l-147.957 11.34-93.64-41.107 252.68-8.635z"/><path fill="#580711" fill-opacity=".706" d="M823.676 156.935L898 91.658 793.125-62l-2.418 199.218z"/><path fill="#954f61" fill-opacity=".529" d="M629.628 397.104l-141.163-62.458L637.33 303.46l-134.92-27.99z"/><path fill="#031c1b" fill-opacity=".373" d="M491.944 182.849l-388.44-34.468L158.32-28.281l174.707 226.393z"/><path fill="#fde0bd" fill-opacity=".282" d="M323.267 105.914l159.345 50.048-167.047-2.66-58.455 55.51z"/><path fill="#dbe0f9" fill-opacity=".584" d="M754.693 1039.14L898 1033.06 698.866 901.55l115.518-157.684z"/><path fill="#09005a" fill-opacity=".165" d="M504.037 673.98l163.702-136.124-158.745 68.696-158.197 21.516z"/><path fill="#d68a68" fill-opacity=".514" d="M693.164 915.424L744.12 934.1l2.238 71.586-113.822-21.117z"/><path fill="#e1f2fe" fill-opacity=".686" d="M785.798 607.662L898 476.916 787.757 666.08l-45.317-76.89z"/><path fill="#5d7588" fill-opacity=".592" d="M507.67 950.121l-94.64-49.842-6.712-4.623 190.085 62.638z"/><path fill="#521413" fill-opacity=".565" d="M528.704 157.951l-61.148 24.389 11.708-74.292 364.011 27.47z"/><path fill="#3d370b" fill-opacity=".596" d="M518.16 81.8l-196.195 18.217-13.028-53.659 54.574-10.435z"/><path fill="#16965b" fill-opacity=".49" d="M735.507 849.476l-53.634-99.346-16.63 44.212 10.05 131.414z"/><path fill="#141000" fill-opacity=".365" d="M612.703 860.284l13.362-115.49 65.444 177.102-66.262 21.828z"/><path fill="#f5fdff" fill-opacity=".314" d="M564.626 812.93l-51.56 50.119-96.127-14.24 233.617 124.015z"/><path fill="#8cc2f2" fill-opacity=".153" d="M896.765 397.365l-196.809-72.008 63.701-174.548-11.338 255.778z"/><path fill="#690614" fill-opacity=".392" d="M446.534 484.526l80.817-1.094-3.273 16.997-75.747-8.742z"/><path fill="#cde2fe" fill-opacity=".408" d="M614.756 755.572l27.895-134.041-122.005-97.73 40.748-154.622z"/><path fill="#324256" fill-opacity=".369" d="M174.779 513.314l37.127 60.537-61.55-25.918-9.878-3.154z"/><path fill="#44010c" fill-opacity=".455" d="M535.51 333.982L477.575 229.41 898 248.955 558.43 276.75z"/><path fill="#74d0f9" fill-opacity=".173" d="M625.286-62h166.15l-72.289 182.004-127.482-8.7z"/><path fill="#27090b" fill-opacity=".525" d="M334.839 284.679l33.863 22.921 39.95-22.366-29.142-14.985z"/><path fill="#e1ecfa" fill-opacity=".808" d="M399.534 429.96l224.464 63.259 3.802-52.657-149.75-111.776z"/><path fill="#6f0007" fill-opacity=".494" d="M651.674 681.721l11.68-127.846-17.758 8.212-22.361 193.08z"/><path fill="#d7e6f4" fill-opacity=".761" d="M254.21 669.969L211.532 523.21l24.738 210.11 101.549 26.181z"/><path fill="#68808e" fill-opacity=".745" d="M48.616 672.546L-59.051 912.228-62 603.788l90.715 21.797z"/><path fill="#ac856c" fill-opacity=".69" d="M446.99 90.478l-15.296 282.757 49.517-31.446-10.279-234.43z"/><path fill="#020100" fill-opacity=".475" d="M203.851 723.882L124.927 838.84l-21.308 36.589 59.736-16.833z"/><path fill="#fa5069" fill-opacity=".122" d="M69.041-40.8l18.408 27.194L20.03 449.34-62 158.533z"/><path fill="#971322" fill-opacity=".612" d="M417.352 601.515L396.1 639.808l103.52 23.744-20.323-27.823z"/><path fill="#000204" fill-opacity=".58" d="M74.756 396.9L-62 443.774v293.751L178.623 396.8z"/><path fill="#d6d3c9" fill-opacity=".322" d="M378.277 200.35l-11.754-30.834-72.293 196.838 9.428 15.73z"/><path fill="#4f0c13" fill-opacity=".882" d="M185.68 356.542l111.37-123.816 13.756 8.336-41.136 109.539z"/><path fill="#020b05" fill-opacity=".604" d="M723.027 849.165l17.777-96.46 33.559 15.977-20.296 50.85z"/><path fill="#98b1c8" fill-opacity=".51" d="M377.432 668.758l118.571-23.04 141.658-180.06-75.408 222.831z"/><path fill="#543a47" fill-opacity=".565" d="M204.469 8.701L146.49 277.686l103.502-217.2L455.996-62z"/><path fill="#0f273d" fill-opacity=".137" d="M612.773 1086L336.037 918.786l95.575 136.853-192.026-160.737z"/><path fill="#01080b" fill-opacity=".424" d="M131.44 306.475l-62.963 31.911-35.168-47.35 109.53-78z"/><path fill="#000d27" fill-opacity=".282" d="M664.36 659.019l-31.312 119.325 217.738-161.42-40.188 60.71z"/><path fill="#e5e8f2" fill-opacity=".616" d="M669.209 388.588l75.579 136.34 71.897 11.4-94.902-107.884z"/><path fill="#452125" fill-opacity=".31" d="M600.157 53.98L463.354 206.534 634.7-59.47 360.428-62z"/><path fill="#ae0039" fill-opacity=".447" d="M362.48 661.06l-85.466-9.277 61.335-53.26-.55 13.835z"/><path fill="#581019" fill-opacity=".722" d="M736.18 229.157l125.358 139.896-158.328-2.877 168.414-137.41z"/><path fill="#e5edfb" fill-opacity=".635" d="M143.969 947.978l305.875 94.82-326.494-44.766 4.034 24z"/><path fill="#3a6180" fill-opacity=".322" d="M568.353 1004.828l29.818-13.865-148.478-30.314-16.937 3.365z"/><path fill="#677a93" fill-opacity=".333" d="M502.708 160.252l49.374 64.202L898 221.444l-27.146-69.884z"/><path fill="#040505" fill-opacity=".58" d="M-62 850.524l88.117-83.548-14.002 56.716L-62 905.499z"/><path fill="#010303" fill-opacity=".506" d="M90.457 666.394L-62 531.017l215.127-115.785L36.208 716.29z"/><path fill="#ffe3f5" fill-opacity=".345" d="M327.225 333.744l-111.03 39.3-68.757 115.13 126.666-102.11z"/><path fill="#516271" fill-opacity=".761" d="M622.744 498.697l92.3 131.294-8.258 37.787-83.21-133.562z"/><path fill="#411a00" fill-opacity=".435" d="M314.742 151.271l133.981 54.23-38.1-56.027-77.438 43.163z"/><path fill="#aab3c5" fill-opacity=".827" d="M781.955 670.21l-77.823-197.942-65.918 6.089 104.827 176.81z"/><path fill="#fff5b8" fill-opacity=".239" d="M285.658 172.15l6.355-5.281 34.867 163.772.626-203.236z"/><path fill="#5a5a66" fill-opacity=".584" d="M535.386 320.67l9.578-47.069 80.56-8.847-2.347 60.873z"/><path fill="#433d48" fill-opacity=".494" d="M170.895 408.275l-52.666-18.2-37.104-28.816 230.87-233.46z"/><path fill="#460910" fill-opacity=".863" d="M607.928 341.648l71.154-112.51L697.81 300.3l-33.381 84.155z"/><path fill="#00185d" fill-opacity=".475" d="M145.533 994.866l-25.082-1.294 52.075-85.893-128.59 20.65z"/><path fill="#b2b27b" fill-opacity=".494" d="M528.702 89.538l-66.434-29.662 1.73-14.377 39.866-6.933z"/><path fill="#b6cae2" fill-opacity=".537" d="M286.193 526.788l199.209 110.815 2.626-95.837 145.549 69.18z"/><path fill="#def8ff" fill-opacity=".208" d="M185.99 596.627l6.236 99.785-105.61 2.845 8.938-70.67z"/><path fill="#234e7a" fill-opacity=".208" d="M267.035 624.58l37.708 23.55-176.964-27.821 219.145-13.088z"/><path fill="#637783" fill-opacity=".667" d="M184.812 761.785l34.889-9.43 19.445-75.09-78.112 25.911z"/><path fill="#00060b" fill-opacity=".635" d="M104.827 177.41l64.312-207.894 35.857 13.61-52.828 174.39z"/><path fill="#604853" fill-opacity=".624" d="M713.252 163.41l94.395-104.294L775.985-62 762.792 75.63z"/><path fill="#d5deef" fill-opacity=".467" d="M332.498 668.567l-100.129-3.072 209.996 88.99L238.893 631.45z"/><path fill="#dae5ef" fill-opacity=".565" d="M357.7 629.213L204.263 505.766 218.37 624.17l77.516-133.12z"/><path fill="#dfa7b6" fill-opacity=".514" d="M635.033 363.663l-85.58-26.303 28.508 48.837 110.061 84.827z"/><path fill="#d29f7d" fill-opacity=".329" d="M521.606 184.78l-112.362-35.312 23.388-111.39L466.93 278.98z"/><path fill="#a493a0" fill-opacity=".569" d="M213.344 831.105l16.42-21.344-58.073-3.376 20.568 30.792z"/><path fill="#cad9eb" d="M316.023 862.687l278.165 85.32-110.943-45.333-219.894-74.642z"/><path fill="#e9f5ff" fill-opacity=".4" d="M157.078 894.875l201.962 34.177L636.771 1086 296.177 866.324z"/><path fill="#030405" fill-opacity=".855" d="M898 578.363l-117.333-80.817-18.608-82.316L898 440.19z"/><path fill="#d7e4f9" fill-opacity=".561" d="M592.1 820.675l27.76 230.254-4.015-153.379-126.1-105.971z"/><path fill="#5e7b99" fill-opacity=".29" d="M587.777 872.757l-143.94-22.838 7.46-20.187 92.28 14.244z"/></svg>