<svg xmlns="http://www.w3.org/2000/svg" width="228" height="278" viewBox="0 0 836 1024"><path fill="#74787d" d="M0 0h836v1024H0z"/><g fill-opacity=".502"><path d="M130 902l284-604-196 64z"/><path fill="#f7ffff" d="M574 846l116 240-636-96z"/><path d="M270 962l-8-240 212-292zm492-320l-176-40 144-184zm-212-92L422 706l12 204z"/><path fill="#e8ba9a" d="M18 686l-80-268 368-140z"/><path fill="#e2e9ff" d="M202 738l132-220-116 448z"/><path fill="#f5effd" d="M602 546l196-236-160 32z"/><path d="M174 818l76-456 140-12z"/><path fill="#cfd5f0" d="M350 690l148-164-168 452z"/><path fill="#000009" d="M518 346l-60 204-20-292z"/><path d="M622 282l-84 232 64 20z"/><path fill="#73914b" d="M46 1034l212-600-164-24z"/><path fill="#82a4c8" d="M426 66L-18-62l460 440z"/><path fill="#dce7ff" d="M638 1070l-200-28 64-344z"/><path fill="#09250c" d="M182 886l40-192-284 240z"/><path fill="#915838" d="M534 382l-84-280 448-4z"/><path fill="#d4e0ff" d="M570 414l-68-76-8 256z"/><path fill="#88a4ce" d="M130 854L-6 1050h256z"/><path fill="#396da2" d="M102 338L-18 50l516 164z"/><path fill="#e6b69e" d="M562-62l116 184-216 16z"/><path fill="#fff" d="M418 294l-144-4 212-52z"/><path d="M266 766l116-224-72 372zm456-24l-12-340-72 152z"/><path fill="#7bef38" d="M158 674l-172 96 128 100z"/><path fill="#5c87cc" d="M530 482l-200 8 340 148z"/><path fill="#a3a0a6" d="M830 1058L690 186l208 400z"/><path fill="#14181f" d="M358-62l72 164L602-62z"/><path d="M570 570L426 706l-16 160z"/><path fill="#c8cee8" d="M210 802l208-324-132 84z"/><path fill="#f3f4ff" d="M394 402l40-160 4 176z"/><path d="M182 902l20 32-24 76z"/><path fill="#d6faff" d="M214 306l4 64 152-96z"/><path fill="#8e8561" d="M886 994L758 602 506 830z"/><path d="M326 722l136-176-72-28z"/><path fill="#000002" d="M294 322l-60 324 184-364z"/><path fill="#e8ab97" d="M138 710L22 402l4 284z"/><path fill="#2c2720" d="M-62 626L70 882l-56 120z"/><path fill="#050f1e" d="M122 582l112 68-60 248z"/><path d="M634 578l104-112 28 116z"/></g></svg>