<svg xmlns="http://www.w3.org/2000/svg" width="228" height="278" viewBox="0 0 836 1024"><path fill="#544258" d="M0 0h836v1024H0z"/><path fill="#afbfd8" fill-opacity=".741" d="M36.74 122.38l276.55-12.849 62.86 170.514-419.1 24.195z"/><path fill="#98ceef" fill-opacity=".655" d="M800.877 729.335L898 983.721 711.405 1086 579.958 849.588z"/><path fill="#33091c" fill-opacity=".678" d="M67.563 500.977L-17.11 743.865l547.272 227.018L754.65 497.912z"/><path fill="#00245b" fill-opacity=".871" d="M445.457 100.746l-55.832 831.868L469.251 1086l88.176-587.28z"/><path fill="#9db9d4" fill-opacity=".596" d="M630.057 149.152l-89.804-181.09L747.558-62l59.78 185.316z"/><path fill="#221411" fill-opacity=".91" d="M433.958-62L323.648 75.571l77.444 271.497L546.73 307.41z"/><path fill="#ff0600" fill-opacity=".302" d="M434.947 507.388l-85.389 446.301L240.06 842.297l96.997-614.002z"/><path fill="#170e17" fill-opacity=".925" d="M298.407 921.96l-147.624-24.297 33.788 159.706 334.56 6.963z"/><path fill="#ff2330" fill-opacity=".373" d="M633.332 321.45l-84.458-24.79-24.016 520.094 47.867-77.985z"/><path fill="#c7c4ca" fill-opacity=".765" d="M183.125 895.383l45.304-73.433 61.561 35.4-44.308 28.31z"/><path fill="#9a7d83" fill-opacity=".875" d="M250.472 347.103l103.918 31.834-283.657 56.067 112.451 106.654z"/><path fill="#050009" fill-opacity=".627" d="M170.2 766.015L350.83 574.62 247.662 421.732l-79.933 196.335z"/><path fill="#0054af" fill-opacity=".659" d="M568.77 569.242L431.568 472.72l-17.075-136.138 116.66 62.128z"/><path fill="#0341ac" fill-opacity=".314" d="M543.232 170.951l90.29 204.766L898 208.108V39.462z"/><path fill="#ba0a0e" fill-opacity=".506" d="M721.127 608.407l39.118-82.455L641.85 345.918l13.552 200.173z"/><path fill="#6f636d" fill-opacity=".843" d="M723.649 683.964L531.478 713.37 898 800.685l-83.667-319.53z"/><path fill="#fe253a" fill-opacity=".31" d="M418.72 367.064l-91.54-90.995-156.553 108.206 249.861 188.592z"/><path fill="#f70c0c" fill-opacity=".416" d="M541.135 810.1L469.302 1086l85.094-25.315 24.91-88.576z"/><path fill="#908494" fill-opacity=".412" d="M898 308.578v53.506l-221.7 64.62-84.685-177.18z"/><path fill="#24140f" fill-opacity=".988" d="M179.255 887.597l22.994-38.233L-62 600.681 64.787 782.027z"/><path fill="#1b0000" fill-opacity=".624" d="M756.17 631.1l-81.344 71.368-95.192-155.483 48.619-29.636z"/><path fill="#250203" fill-opacity=".635" d="M293.608 560.573L64.332 672.224l111.1-307.6-92.444 143.951z"/><path fill="#4c6589" fill-opacity=".478" d="M352.324 121.45L-62 6.8 73.957 565.976 38.95 158.972z"/><path fill="#c0c5d3" fill-opacity=".616" d="M376.816 234.689l-118.18-86.499L1.254 218.923l351.862 53.411z"/><path fill="#87badc" fill-opacity=".8" d="M758.435 1086l58.859-267.886-126.623-45.76-41.743 47.926z"/><path fill="#120000" fill-opacity=".329" d="M486.815 941.668l207.073-171.86-378.753-39.018 88.221 243.138z"/><path fill="#031744" fill-opacity=".992" d="M161.962 690.48l88.54-88.122-2.217 234.576-57.28-54.67z"/><path fill="#c7b4ca" fill-opacity=".553" d="M311.451 461.49l118.68-4.291-30.282-21.94-114.328 9.587z"/><path fill="#dbe5ea" fill-opacity=".584" d="M252.84 398.482l-17.665-13.551 25.545-47.924 41.458 27.148z"/><path fill="#fce176" fill-opacity=".18" d="M106.595 772.846L90.86 693.318l66.56-70.9 45.184 207.693z"/><path fill="#1b0b04" fill-opacity=".424" d="M-38.658 1086l157.674-74.146L-62 724.474 95.944 533.438z"/><path fill="#70607e" fill-opacity=".498" d="M258.748 263.548L-23.21 662.742 82.334 336.725-52.38 282.19z"/><path fill="#816d7b" fill-opacity=".757" d="M534.79 941.755l113.5-70.372L689.57 1086l-68.702-108.154z"/><path fill="#540105" fill-opacity=".682" d="M431.317 636.28l-119.466 2.558-22.525-227.47-97.623-22.753z"/><path fill="#dec5b9" fill-opacity=".169" d="M461.273 125.812l-82.115-51.976 67.468-29.279 387.188-3.978z"/><path fill="#002e73" fill-opacity=".722" d="M496.66 755.058l-113.28 17.339 36.17-202.628 130.18-23.273z"/><path fill="#69738e" fill-opacity=".996" d="M869.913 528.667L798.098 1086 898 825.297 742.378 558.594z"/><path fill="#160701" fill-opacity=".698" d="M511.311 378.848l-73.827-27.83-111.489-183.463 87.579-38.45z"/><path fill="#f4c7cd" fill-opacity=".647" d="M692.169 389.946l2.482 37.992-34.406-42.538 2.666-22.345z"/><path fill="#1d2a69" fill-opacity=".757" d="M554.055 256.329l15.412-75.433 236.116-22.768 7.538 87.818z"/><path fill="#5e2824" fill-opacity=".631" d="M520.399 226.365l51.384-140.106-149.047 87.382 228.481 279.235z"/><path fill="#8f8a82" fill-opacity=".988" d="M181.356 527.368l47.96-61.134-.221-41.647L121.81 499.73z"/><path fill="#44250d" fill-opacity=".522" d="M760.453 769.259l11.192-55.662-121.254 45.072-92 28.844z"/><path fill="#c8e6ea" fill-opacity=".353" d="M231.164 930.48l15.725-56.458 2.994-61.983-65.113 65.271z"/><path fill="#fd344a" fill-opacity=".365" d="M637.318 513.517l-56.995-28.663-36.83-231.518 9.36 288.637z"/><path fill="#00408c" fill-opacity=".8" d="M417.397 582.497l25.483-186.252L543.773 340.3 516.17 455.5z"/><path fill="#acadc0" fill-opacity=".451" d="M342.588 130.561l-33.026 177.306-145.109-10.053 161.81-193.736z"/><path fill="#053f89" fill-opacity=".914" d="M447.57 994.424l59.977 33.622L715.675 1086H284.793z"/><path fill="#022d70" fill-opacity=".663" d="M369.18 271.087l-26.99 13.157 86.415 96.454.406-32.713z"/><path fill="#03000c" fill-opacity=".584" d="M508.357 688.573l-120.92-52.408-312.95-53.42 390.32 51.613z"/><path fill="#89765c" fill-opacity=".322" d="M639.044 628.95l33.009 130.655-144.94 26.763 24.928-42.781z"/><path fill="#000822" fill-opacity=".604" d="M81.218 529.475l-7.691-34.663 123.677 110.701L339.07 845.968z"/><path fill="#280000" fill-opacity=".671" d="M345.125 807.19l83.483 27.8-116.73-130.038-65.956-62.928z"/><path fill="#430000" fill-opacity=".439" d="M630.622 504.79l-16.458-192.497L701.279 608.7l-203.656-12.844z"/><path fill="#08225d" fill-opacity=".761" d="M582.786 974.972L563.86 840.32l-2.563-1.543 31.325-1.142z"/><path fill="#00090d" fill-opacity=".565" d="M334.886 137.155L349.788 32.39 518.26 46.221 487.489-32.47z"/><path fill="#d0f3f2" fill-opacity=".169" d="M692.74 150.441L549.495-61.609 642.408-62l146.9 209.64z"/><path fill="#f13757" fill-opacity=".435" d="M250.764 763.053L388.908 901.7l-42.944-15.98-99.32-104.743z"/><path fill="#622f4f" fill-opacity=".569" d="M197.842 995.873l-51.566-139.2L-62 658.004l58.459 250.032z"/><path fill="#880005" fill-opacity=".322" d="M141.91 331.557l113.466 11.271L85.723 485.934l44.26 57.912z"/><path fill="#343648" fill-opacity=".475" d="M566.207.6l-387.17 47.563L-62 136.232 27.329-12.461z"/><path fill="#8b7986" d="M578.255 472.764l.872-30.026 53.185 16.893-54.74 19.648z"/><path fill="#4a6887" fill-opacity=".553" d="M810.2 17.119L898 427.694 773.356 84.41 689.382-48.403z"/><path fill="#700" fill-opacity=".349" d="M146.645 575.384l48.504-5.731 174.648-189.87-54.55-12.272z"/><path fill="#7d0003" fill-opacity=".529" d="M534.599 794.079l8.768-146.09-46.589 174.452 86.523 85.414z"/><path fill="#ff0023" fill-opacity=".251" d="M631.63 411.393l-102.452 12.164 28.27-128.474 40.24 8.069z"/><path fill="#94cffd" fill-opacity=".11" d="M346.97 153.094l-200.892 172.25L-55.62 147.55l257.116-92.91z"/><path fill="#002678" fill-opacity=".624" d="M613.175 327.832l18.45-.98 11.121 11.545 7.508 122.056z"/><path fill="#554345" fill-opacity=".702" d="M894.628 465.69l-149.252 87.4-21.426-57.887-47.832-147.012z"/><path fill="#331000" fill-opacity=".502" d="M399.118 927.99l-153.802-38.71L246.54 1086l97.846-213.717z"/><path fill="#ddf0fa" fill-opacity=".427" d="M309.819 377.758l-26.151.343-43.35-7.37-6.01 39.204z"/><path fill="#004b9d" fill-opacity=".675" d="M539.444 550.64l-2.54-228.9-122.891 235.24 11.452-73.158z"/><path fill="#72526f" fill-opacity=".467" d="M535.045-62l124.51 200.025-243.1 39.581 140.016 14.65z"/><path fill="#705049" fill-opacity=".851" d="M252.173 875.036l178.485 127.28 6.224-2.478-84.701-97.623z"/><path fill="#fe5895" fill-opacity=".235" d="M318.63 805.266l99.573 57.908-85.513-72.471L226.242 649.09z"/><path fill="#003374" fill-opacity=".749" d="M663.573 636.813l82.497-30.57 13.538-48.239-.268 9.513z"/><path fill="#060001" fill-opacity=".443" d="M537.48 531.972L101.095 641.07 359.62 461.45 251.655 584.845z"/><path fill="#000f3b" fill-opacity=".612" d="M397.002 762.427l-12.014 4.619-12.132 170.535 143.855 68.082z"/><path fill="#0065da" fill-opacity=".271" d="M257.71 793.232l-13.303-81.749-50.135-18.679 27.036 72.136z"/><path fill="#0060c1" fill-opacity=".275" d="M560.037 561.475l-121.145 6.18 94.902 113.972-3.967-385.56z"/><path fill="#930714" fill-opacity=".439" d="M643.823 413.449l36.824 207.8 59.578-43.59-22.56-151.414z"/><path fill="#0d081b" fill-opacity=".792" d="M153.742 826.677L195.865 1086l275.389-112.371-213.074 64.08z"/><path fill="#ff3b56" fill-opacity=".353" d="M379.9 676.644l.546-22.703 39.635-1.219-136.1-19.789z"/><path fill="#f94469" fill-opacity=".408" d="M413.562 609.57l-33.815 1.442-75.95-2.378 113.994-12.656z"/><path fill="#57668a" fill-opacity=".416" d="M347.967 266.327L-62 302.384l358.98 17.098 16.826 23.254z"/><path fill="#888d9f" fill-opacity=".839" d="M224.833 428.042L127.75 493.19l10.644-34.47 52.576-62.89z"/><path fill="#062253" fill-opacity=".675" d="M608.897 701.61l-38.343 5.405 46.1-141.298-14.872 135.712z"/><path fill="#4c3a3b" fill-opacity=".424" d="M52.274 338.458l18.971 140.255-86.277 15.682-26.264-329.19z"/><path fill="#4c020b" fill-opacity=".835" d="M401.44 713.749l-142.373-75.096 16.516-13.642 138.632 81.812z"/><path fill="#b82538" fill-opacity=".796" d="M292.443 336.818l24.74 87.138 97.701 8.085 6.753-67.61z"/><path fill="#725871" fill-opacity=".855" d="M75.299 410.608l99.435-55.793-96.62 151.322L-3.05 660.875z"/><path fill="#ffecf1" fill-opacity=".463" d="M569.806 960.785l-37.783-21.251-.36 3.971 38.65-19.035z"/><path fill="#b71826" fill-opacity=".49" d="M589.696 975.054l-89.794-62.374-6.48 4.94L510.245 1086z"/><path fill="#31436d" fill-opacity=".584" d="M406.163-1.615L164.821 79.914l154.268 30.491 13.546-52.15z"/><path fill="#ef1f3e" fill-opacity=".224" d="M395.269 710.9l-165.572-83.483 118.9 96.198 17.317 60.077z"/><path fill="#fe2732" fill-opacity=".235" d="M534.216 671.9l61.098-190.047-46.863 85.113 56.445 96.227z"/><path fill="#394f44" fill-opacity=".463" d="M576.16 418.268l51.962 2.33-35.387 39.104-31.79 11.226z"/><path fill="#cb334b" fill-opacity=".765" d="M566.966 470.683l-5.462-150.66-26.83 43.234 9.104 74.223z"/><path fill="#080304" fill-opacity=".8" d="M609.937 531.563l48.158 150.671 77.138-42.946-54.585-6.948z"/><path fill="#5e8ab1" fill-opacity=".486" d="M735.975 895.806L580.07 1086h123.578L634.96 855.924z"/><path fill="#005bb3" fill-opacity=".51" d="M549.336 704.582l-140.502-26.138-3.093-32.158 101.839 50.502z"/><path fill="#ffffe1" fill-opacity=".176" d="M209.297 806.692l65.104 56.477-30.01 14.292-101.985-130.188z"/><path fill="#bbbdcb" fill-opacity=".631" d="M346.781 144.551l-17.998 32.818 47.57 83.92-282.72-50.647z"/><path fill="#0d0519" fill-opacity=".565" d="M163.942 746.886l65.255 85.253 5.65-12.574-58.315-116.349z"/><path fill="#8a7478" fill-opacity=".71" d="M898 885.08l-24.762 153.675L814.392 1086l-8.668-159.95z"/><path fill="#28110c" fill-opacity=".298" d="M476.709 31.967l13.384 362.852-85.743 81.767 117.942-76.826z"/><path fill="#0f0400" fill-opacity=".851" d="M239.272 978.361l13.846-31.817 140.24 61.802L351.142 1086z"/><path fill="#9d4385" fill-opacity=".275" d="M59.718 790.33l28.366 18.578 92.06 67.958-135.4 2.562z"/><path fill="#2d0000" fill-opacity=".502" d="M310.614 555.044l-64.742-117.31-69.626 115.016 273.48-47.874z"/><path fill="#003176" fill-opacity=".678" d="M376.366 847.793l15.163 10.872 52.059 12.65-60.02-49.9z"/><path fill="#44000c" fill-opacity=".624" d="M564.86 327.644l23.334 46.28 59.47 75.79-30.572-57.71z"/><path fill="#000323" fill-opacity=".176" d="M529.497 277.239l-483.612 52.15 47.629 34.936 394.531-56.144z"/><path fill="#9a443f" fill-opacity=".996" d="M200.928 429.358l135.866 46.284-118.698-40.387-6.594 42.201z"/><path fill="#19b5f9" fill-opacity=".114" d="M-62 329.081v169.672l170.882 3.148-95.224 112.806z"/><path fill="#5f6062" fill-opacity=".494" d="M171.021 711.841l-30.49-19.315-21.83-15.36 48.087-71.757z"/><path fill="#000014" fill-opacity=".333" d="M505.058 639.227l2.655 270.871-215.706-99.983 138.01 98.929z"/><path fill="#050111" fill-opacity=".675" d="M219.286 625.61l49.224-15.382 32.881-182.725-94.877 188.078z"/><path fill="#1d1900" fill-opacity=".435" d="M88.482 526.976l69.233 90.424L30.502 747.844 19.13 625.357z"/><path fill="#901a26" fill-opacity=".698" d="M271.005 321.284l-48.267 86.964 162.567-7.676-227.979 4.178z"/><path fill="#643c30" fill-opacity=".549" d="M284.305 848.101l-35.892 35.418 44.046 52.78 49.716 56.616z"/></svg>