<svg xmlns="http://www.w3.org/2000/svg" width="228" height="278" viewBox="0 0 836 1024"><path fill="#3d5d8e" d="M0 0h836v1024H0z"/><g fill-opacity=".502"><path fill="#e8a568" d="M518 110l380 588-756-316z"/><path fill="#0035cb" d="M230 482L-62 986l956 48z"/><path fill="#512f09" d="M122 82l776 300-76-444z"/><path fill="#29aadb" d="M42 690L334 42-62-62z"/><path fill="#05000a" d="M194 554l380-72-88 200z"/><path fill="#e2a483" d="M626 194l-348 76 92 296z"/><path fill="#1d68e8" d="M186 618l-4 304 716-224z"/><path fill="#0a0000" d="M354 274L534-62 278 182z"/><path fill="#0086db" d="M610 442l288-32-260-112z"/><path fill="#00197a" d="M262 998L46 630l-108 456z"/><path fill="#002191" d="M530 1014l256-364 40 404z"/><path fill="#ffd0b8" d="M498 130l132 88-236-32z"/><path fill="#fffff9" d="M350 806l-120-4 40-68z"/><path fill="#686d6f" d="M130 190l4 376 396-40z"/><path d="M634 78l40 128L330 46z"/><path fill="#fff" d="M822 922l40 164-44-16z"/><path fill="#000023" d="M230 426l264 212H350z"/><path fill="#82796c" d="M826 438l72 352-392-404z"/><path fill="#d3bc9f" d="M574 758l68-36v136z"/><path fill="#0086d4" d="M26-62l136 220L58 614z"/><path fill="#1d0c0c" d="M506 270l48-60-128 36z"/><path fill="#52393a" d="M102 58l40 76 264-60z"/><path fill="#d5e3ff" d="M398 1002l48 84-260-64z"/><path fill="#db986d" d="M310 338l16 172 132 44z"/><path fill="#597e9a" d="M322 362L154 654 86 178z"/><path fill="#004dda" d="M738 854l24-156-256-96z"/><path fill="#fcc7b3" d="M562 254l52 80-292-24z"/><path fill="#004ec6" d="M706 878L334 758l-12 264z"/><path fill="#d4d5f9" d="M806 774l48 96-28 56z"/><path fill="#00206c" d="M662 934l84 128 88-388z"/><path fill="#35475c" d="M770 450l-212 36 76-112z"/><path fill="#00062a" d="M582 610l-36-100-180 116z"/><path fill="#192f65" d="M358 582l-44-108-376 228z"/><path fill="#0090dd" d="M630 378l20-80 248 160z"/><path fill="#004bc4" d="M166 634L46 690l260 396z"/><path fill="#68aecf" d="M-62 262L38-62 26 614z"/><path fill="#0078c4" d="M94 98L-62 234l348-28z"/><path fill="#001451" d="M118 1034l52-208-128 16z"/><path fill="#e2b29d" d="M402 198l-56 160 216 32z"/><path fill="#ab9a80" d="M818 698L706 578l184-192z"/></g></svg>