<svg xmlns="http://www.w3.org/2000/svg" width="228" height="278" viewBox="0 0 836 1024"><path fill="#6a3638" d="M0 0h836v1024H0z"/><path fill="#c5e1e7" fill-opacity=".78" d="M371.104 940.13L604.73 1086H54.712l168.564-136.247z"/><path fill="#b88c85" fill-opacity=".635" d="M393.884 322.458l-9.673-147.385L7.064 442.811l-68.303 120.257z"/><path fill="#b60007" fill-opacity=".565" d="M183.953 355.338l447.552-3.943-138.489 599.448-355.798-9.418z"/><path fill="#101313" fill-opacity=".949" d="M180.782 17.076L75.96 362.39-62 455.339 28.809-62z"/><path fill="#002c2a" fill-opacity=".502" d="M430.314-62l357.674 218.064-283.63 216.292-111.163-127.712z"/><path fill="#78e398" fill-opacity=".498" d="M344.455 610.153l153.96 33.277 75.934-67.25-106.66-25.99z"/><path fill="#032136" fill-opacity=".604" d="M654.39 893.285l192.24-492.013 48.58 289.55-369.982-93.067z"/><path fill="#d8313b" fill-opacity=".592" d="M766.742 607.65l-48.616-229.833-149.704-90.954-80.989 183.455z"/><path fill="#845e59" fill-opacity=".698" d="M20.883 676.812L-62 1086l258.22-109.678L394.16 1086z"/><path fill="#001516" fill-opacity=".71" d="M733.922 1056.533L898 1086l-45.263-351.39-82.276 47.012z"/><path fill="#4b7f94" fill-opacity=".463" d="M400.653 268.315l-274.07 78.421L256.205 67.961 451.05 223.233z"/><path fill="#c8f1fd" fill-opacity=".529" d="M590.153 348.858l160.752 26.716-167.212-69.472-36.965 1.1z"/><path fill="#070a00" fill-opacity=".753" d="M107.493 571.446L-62 809.356V697.731l132.463-186.92z"/><path fill="#e1fbff" fill-opacity=".796" d="M338.915 944.698l154.387 61.24-59.66 80.062-176.808-140.24z"/><path fill="#680001" fill-opacity=".733" d="M697.734 619.804l-144.646-5.184 98.873-175.253 83.98 32.64z"/><path fill="#26ddf4" fill-opacity=".169" d="M862.514 379.546l19.257-262.012-132.886 840.067-41.614-612.6z"/><path fill="#595153" fill-opacity=".843" d="M710.19 1005.11L497.93 1086l-7.04-138.55 53.245-287.19z"/><path fill="#a1010d" fill-opacity=".769" d="M538.402 800.739L221.645 599.603l-84.06 409.086 51.191-35.173z"/><path fill="#670004" fill-opacity=".918" d="M390.011 590.336L267.046 402.592l-158.71 126.02 11.194 22.73z"/><path fill="#7de5de" fill-opacity=".435" d="M507.42 679.9l28.828-20.87-206.525-3.84 6.557 20.435z"/><path fill="#e7cfec" fill-opacity=".537" d="M264.399 320.221l125.381-39.003-8.309 54.748-112.24 29.137z"/><path fill="#c3f9ff" fill-opacity=".49" d="M770.818 621.188l-96.92 19.986-44.544-14.99 126.885-18.836z"/><path fill="#b2bdba" fill-opacity=".98" d="M114.266 566.699L69.55 447.287l3.593 45.363 23.26 57.421z"/><path fill="#9c939a" d="M149.4 491.345l-40.865-10.116L135.8 371.086l37.004 80.69z"/><path fill="#b7f9f4" fill-opacity=".518" d="M381.974 475.651l-43.66 38.217 64.477 3.946 18.191-5.478z"/><path fill="#b90819" fill-opacity=".678" d="M150.745 335.137L177.178 459.6l245.487-163.802 155.556 268.15z"/><path fill="#565657" fill-opacity=".718" d="M898 221.074L518.445 60.078l175.017-47.586L898-62z"/><path fill="#bfa413" fill-opacity=".557" d="M44.094 391.816l127.288-22.62L30.981 506.022l-74.154-24.56z"/><path fill="#27292e" fill-opacity=".859" d="M555.928 24.818l292.637 246.084-247.578-43.988L725.344-62z"/><path fill="#96886f" fill-opacity=".373" d="M208.84 583.346l-8.024 92.886L44.556 940.22-35.52 783.918z"/><path fill-opacity=".188" d="M568.77 971.406L342.619 731.104l362.349-149.985-166.156-58.17z"/><path fill="#190d00" fill-opacity=".498" d="M455.889 360.378l94.404-22.898-17.258-230.17-126.972 1.903z"/><path fill="#b61b2b" fill-opacity=".69" d="M370.12 937.734l143.746-109.279-16.965 165.322-37.158 8.396z"/><path fill="#1a2a64" fill-opacity=".976" d="M649.826 700.128l-96.472-20.292 53.195-93.756 15.723 12.297z"/><path fill="#4d616e" fill-opacity=".439" d="M729.009 272.255l103.185 242.658L557.95 231.969l-3.449-99.022z"/><path fill="#102e3b" fill-opacity=".565" d="M307.918 1030.323l-46.915-81.65 78.714 71.08-120.518-65.718z"/><path fill="#d1fdf8" fill-opacity=".329" d="M608.74 135.038l-62.83-86.922 1.848-5.446 38.378 12.716z"/><path fill="#1a1207" fill-opacity=".533" d="M784.292 800.995L603.727 625.471l165.883 34.807-194.523 112.928z"/><path fill="#ecfdf4" fill-opacity=".153" d="M583.33 940.436l-165.886 61.898 251.364 35.82-16.058-71.307z"/><path fill="#6c534e" fill-opacity=".663" d="M139.59 404.503L502.114-62l-375.07 294.359-26.483 145.02z"/><path fill="#bbfcae" fill-opacity=".322" d="M802.638 761.771l-78.486 3.924 10.462-73.79 66.64 30.852z"/><path fill="#d03f52" fill-opacity=".831" d="M234.94 316.44L115.737 406.2l315.01-113.95-150.52 62.886z"/><path fill="#cf192a" fill-opacity=".647" d="M146.869 871.616l87.123-166.907 11.258 169.997-96.91 73.928z"/><path fill="#f10008" fill-opacity=".247" d="M721.363 379.344l23.178 235.204-88.646-19.88-52.32-214.624z"/><path fill="#51100d" fill-opacity=".447" d="M207 714.772l-81.55 221.332 18.134-161.1-98.322-131.122z"/><path fill="#8ecbf4" fill-opacity=".596" d="M-62 1005.074L68.88 1086l-9.981-71.675-73.805-21.588z"/><path fill="#b98f87" fill-opacity=".31" d="M724.417-62l84.013 269.157L898 89.397l-203.696 6.702z"/><path fill="#273245" fill-opacity=".592" d="M839.066 418.475l-17.95 386.017-78.446-288.25-.153-6.035z"/><path fill="#0e89eb" fill-opacity=".196" d="M404.133 163.316l8.362 96.583-205.56 70.2-39.226-30.786z"/><path fill="#3b302d" fill-opacity=".902" d="M661.836 1001.69L766.858 1086l-15.009-306.866 40.688 103.588z"/><path fill="#ce1f36" fill-opacity=".749" d="M421.598 239.14l5.406 10.015-44.777 27.872 34.74 101.177z"/><path fill="#561513" fill-opacity=".502" d="M186.569-3.554L93.063 214.78l192.155 12.11-80.602-40.045z"/><path fill="#a5631f" fill-opacity=".867" d="M562.017 459.87l5.338 76.955 41.849-7.666 15.067-67.314z"/><path fill="#9e0e17" fill-opacity=".855" d="M85.054 449.557l77.675 63.41 98.89-157.29-146.433 180.84z"/><path fill="#dafaff" fill-opacity=".655" d="M759.58 610.907l-5.207-12.207-35.559 41.792-46.07-11.177z"/><path fill="#082730" fill-opacity=".427" d="M258.07 1014.05l95.003 71.95-134.607-118.806-30.445-.796z"/><path fill="#d1f0ff" fill-opacity=".443" d="M204.242 938.518l61.302 27.488L363.227 1086l-55.991-85.52z"/><path fill="#27424a" fill-opacity=".678" d="M65.937-62L55.863 78.813-62 122.306-26.376-62z"/><path fill="#444340" fill-opacity=".757" d="M52.702 976.075L273.093 1086-23.014 982.584l2.321-85.658z"/><path fill="#280000" fill-opacity=".482" d="M230.405 624.146l18.69-69.365 37.38-56.327-110.89-10.269z"/><path fill="#5a0001" fill-opacity=".608" d="M713.82 498.17l-68.31-38.151-248.56 471.343 184.376-308.73z"/><path fill="#053344" fill-opacity=".588" d="M898-58.357l-22.564 158.364-88.837-37.43 9.611-67.87z"/><path fill="#736856" fill-opacity=".459" d="M869.138 664.687l-206.037 192.75 51.867 81.03 58.453-313.629z"/><path fill="#847644" fill-opacity=".984" d="M366.131 583.908l126.707 59.622-22.4 15.758 99.719-68.462z"/><path fill="#96030c" fill-opacity=".914" d="M358.23 783.716l-31.105-220.792-65.39-32.268-25.129 60.984z"/><path fill="#ae8a75" fill-opacity=".373" d="M277.86 158.602l-64.462-10.563-7.514-43.517 109.394-20.484z"/><path fill="#9effe3" fill-opacity=".165" d="M427.862 620.24l114.766-70.472-163.49 22.412-27.166 45.07z"/><path fill="#f5e2fd" fill-opacity=".282" d="M572.123 296.46l161.982 122.77L613.7 303.182l-66.418 43.766z"/><path fill="#000f2a" fill-opacity=".298" d="M606.703 280.361l31.603 54.825 54.196-159.168L621.17-62z"/><path fill="#7b6e59" fill-opacity=".596" d="M176.28 612.611l31.123 23.763-13.318 69.232-87.002-72.483z"/><path fill="#322f3b" fill-opacity=".765" d="M772.293 591.251l-85.218 34.24L856.24 515.675l-167.958 226.71z"/><path fill="#b6f0ff" fill-opacity=".345" d="M140.323 585.413l-18.294-29.184-35.994-56.363-1.603 35.436z"/><path fill="#ffc09a" fill-opacity=".157" d="M609.94 860.263l-59.325 5.15-1.928-84.36 75.075 6.003z"/><path fill="#60493f" fill-opacity=".71" d="M141.881 448.406L87.695 216.112l76.508 73.393-45.319 194.075z"/><path fill="#8f6e63" fill-opacity=".588" d="M666.117 342.533l9.714-83.554 31.886 1.386 23.57 162.207z"/><path fill="#ebedff" fill-opacity=".373" d="M157.729 389.045l-34.65 32.41 52.013 10.283-25.91 66.774z"/><path fill="#890007" fill-opacity=".702" d="M436.715 497.346l-138.71 68.3 297.122-18.168-81.806-44.348z"/><path fill="#e6f6ff" fill-opacity=".498" d="M337.011 335.208l-96.288 31.853 148.74-39.679 15.12-16.314z"/><path fill="#414937" fill-opacity=".376" d="M393.657-62l-57.562 291.32 198.21-55.994L142.202 26.371z"/><path fill="#63090c" fill-opacity=".827" d="M461.385 657.74l104.76-16.819 7.26-26.754-70.47 11.091z"/><path fill="#818377" fill-opacity=".616" d="M622.316 148.202l-28.488 7.483-49.333 13.885 31.122 15.937z"/><path fill="#251c1e" fill-opacity=".561" d="M786.47 818.491L653.05 649.54l111.412-25.309-226.458 125.496z"/><path fill="#88030b" fill-opacity=".769" d="M383.525 933.27l94.604 26.12 29.218-12.812-132.174-75.341z"/><path fill="#f7616b" fill-opacity=".227" d="M158.31 781.848l-42.432-77.027L-62 794.116l126.956-10.554z"/><path fill="#db1731" fill-opacity=".467" d="M109.617 402.957l220.307-109.772-89.465 23.639 48.215 76.738z"/><path fill="#222837" fill-opacity=".608" d="M516.382 956.834l76.954-65.673-97.903-4.78 29.437 102.586z"/><path fill="#000803" fill-opacity=".306" d="M-40.676 162.97l-2.613 278.553 157.032-87.483-14.7-277.642z"/><path fill="#def9fc" fill-opacity=".824" d="M366.834 943.49L585.574 1086l-238.358-62.02-59.355-76.157z"/><path fill="#022023" fill-opacity=".592" d="M659.971 623.82l-35.998-14.753 98.702-2.6-13.2 14.308z"/><path fill="#93dcf2" fill-opacity=".404" d="M728.348 534.308l20.334 17.057-6.61-42.119-12.728-.838z"/><path fill="#6c0003" fill-opacity=".788" d="M356.65 691.152l187.706-14.618-41.111 166.625-25.884-80.426z"/><path fill="#6b9177" fill-opacity=".235" d="M154.136 1006.419L116.55 786.456 4.8 749.626l27.787 222.8z"/><path fill="#69614b" fill-opacity=".882" d="M-62 475.241l115.047 32.63-115.047 213L.48 751.618z"/><path fill="#db1937" fill-opacity=".533" d="M663.295 456.385l-147.363-5.312 46.715-113.333 137.048 39.92z"/><path fill="#820b17" fill-opacity=".612" d="M890.018 403.361l7.982-85.42-126.646-35.184-17.17 31.244z"/><path fill="#900005" fill-opacity=".525" d="M271.37 401.318l66.546 14.203 6.622 123.271-200.62-145.734z"/><path fill="#206f95" fill-opacity=".247" d="M738.125 502.312l24.657 66.434 64.43-152.531-63.272-84.504z"/><path fill="#19130e" fill-opacity=".635" d="M415.889 294.237l141.62-49.775 25.46 34.932-79.383 89.99z"/><path fill="#a70813" fill-opacity=".604" d="M110.078 587.64l201.489 42.607-54.376 338.864-53.227-435.253z"/><path fill="#ff263f" fill-opacity=".486" d="M753.318 580.858l-22.734 21.263-44.207-36.493 66.964-11.319z"/><path fill="#b40e1e" fill-opacity=".624" d="M589.442 474.229l-152.2-157.307-26.474 7.444-209.914 67.448z"/><path fill="#cff0ff" fill-opacity=".298" d="M281.139 373.597l35.418-22.984 12.783 7.416-84.13-41.56z"/><path fill="#849b97" fill-opacity=".408" d="M565.843 638.65l-101.154 18.088-110.783 19.236 102.716 3.16z"/><path fill="#c9dce5" fill-opacity=".812" d="M238.266 994.746l-17.855-4.028 25.321 69.615 84.15 25.667z"/><path fill="#d9fdff" fill-opacity=".263" d="M623.144 615.084l75.776 26.15 102.273-49.48-101.72 32.039z"/><path fill="#553332" fill-opacity=".639" d="M898 333.234l-235.02-201.93 8.591-50.83 85.57 59.354z"/><path fill="#78434e" fill-opacity=".984" d="M409.303 284.266l-62.659 28.014-39.095 5.372 239.764-78.203z"/><path fill="#eafaf3" fill-opacity=".188" d="M751.209 770.83l-20.529-19.468-2.862-16.984 19.356-120.629z"/><path fill="#0a0a07" fill-opacity=".255" d="M784.729 679.112L898 667.812 687.1 1054.15l181.832-114.774z"/><path fill="#d0f4ff" fill-opacity=".388" d="M304.967 1002.16l74.137 83.84-112.758-107.6-37.22-42.718z"/><path fill="#e20e2b" fill-opacity=".396" d="M232.142 924.087l66.573 23.509 77.59-16.408-63.547-42.896z"/><path fill="#000104" fill-opacity=".369" d="M208.712 972.072l80.064 65.78-16.684-27.725-13.484-11.253z"/><path fill="#a19d63" fill-opacity=".792" d="M508.569 582.513l-72.542 51.566 37.41 7.037-27.843-89.786z"/><path fill="#011f2e" fill-opacity=".439" d="M189.14 1086l174.577-34.953-70.649-78.549L368.675 1086z"/><path fill="#413b37" fill-opacity=".412" d="M638.545 942.725L552.33 623.36l100.193 219.657L858.573 1086z"/><path fill="#f6e5ff" fill-opacity=".443" d="M109.632 455.671l6.818-19.258 23.854-42.649 10.134 16.557z"/><path fill="#9d000c" fill-opacity=".467" d="M611.156 462.142l67.923-49.293 61.23 44.962-14.546 93.43z"/><path fill="#18120b" fill-opacity=".757" d="M75.65 494.107l-40.251 33.198 93.015 48.055-115.13 75.253z"/><path fill="#9bddf7" fill-opacity=".216" d="M521.813 768.239l30.282-11.146-12.698-46.51-12.106 19.99z"/><path fill="#eef044" fill-opacity=".204" d="M27.832 529.8l62.45-79.414 60.299-63.338-119.836 37.644z"/></svg>