<svg xmlns="http://www.w3.org/2000/svg" width="228" height="278" viewBox="0 0 836 1024"><path fill="#8c4544" d="M0 0h836v1024H0z"/><path fill="#c4b9a2" fill-opacity=".596" d="M898 997.476L793.794 470.629l-158.31 227.75 6.747 240.773z"/><path fill="#ed232f" fill-opacity=".545" d="M261.152 1020.466l373.738 11.838-1.082-700.63L137.4 353.551z"/><path fill="#05322c" fill-opacity=".494" d="M412.193 144.791L-11.784 532.055 16.02-62 898 9.312z"/><path fill="#dce9e2" fill-opacity=".675" d="M312.588 545.398l216.457 13.094-17.911 76.493-194.805 33.024z"/><path fill="#03373e" fill-opacity=".588" d="M6.462 677.624l208.42 22.838-74.175 320.633L-62 1018.65z"/><path fill="#bdc7c7" fill-opacity=".682" d="M248.768 238.757L426.427 426.57l151.179-153.707-210.314 135.385z"/><path fill="#f4fcff" fill-opacity=".8" d="M157.784 1025.289l63.078-35.162 149.987 51.588L21.227 1086z"/><path fill="#9c1117" fill-opacity=".945" d="M286.979 935.989l117.116 6.28-101.202-351.983-188.022-179.54z"/><path fill="#ffb3aa" fill-opacity=".506" d="M700.851 439.606L898 950.268 745.727 411.206l-281.134-151.28z"/><path fill="#3e3b36" fill-opacity=".788" d="M841.954 305.875L350.044 33.231 898-20.892v216.37z"/><path fill="#980800" fill-opacity=".447" d="M812.27 874.61l-41.13-205.719-129.11-312.484-37.838 179.794z"/><path fill="#f1ad95" fill-opacity=".639" d="M56.804 662.028L-62 676.763 51.355 542.99l95.046-.779z"/><path fill="#ad151c" fill-opacity=".953" d="M182.759 1001.134l457.368-222.532-362.61-95.982-90.337 98.548z"/><path fill="#ffafb5" fill-opacity=".475" d="M151.648 413.62L18.036 575.297l117.372-194.46L417.265 238.51z"/><path fill="#f13540" fill-opacity=".702" d="M566.573 542.66l-313.674 18.78 297.19-244.3 158.87 82.513z"/><path fill="#7c705d" fill-opacity=".737" d="M713.344 281.95l-252.38 39.038-34.961-238.532 323.491 147.272z"/><path fill="#e3feff" fill-opacity=".667" d="M772.842 546.412l-71.088 41.171-16.476 32.578 62.136-15.193z"/><path fill="#ace1fc" fill-opacity=".365" d="M686.103 976.047l-57.498-199.176L728.84 674.09l21.772 163.434z"/><path fill="#f71222" fill-opacity=".58" d="M67.337 587.928l-38.878-23.835 115.407-162.56 154.675-78.041z"/><path fill="#a00008" fill-opacity=".545" d="M665.595 457.687l-147.187 99.087-5.253 162.058 275.775-204.39z"/><path fill="#ff3644" fill-opacity=".729" d="M207.17 987.211l-31.799-89.424 491.618 139.448-128.991 29.203z"/><path fill="#794e33" d="M321.73 307.058l97.825 86.372 58.6-47.55-134.27-236.174z"/><path fill="#1d6b7a" fill-opacity=".357" d="M898 785.073l-219.147-416.99-1.265 13.78 197.828-17.246z"/><path fill="#ddd0d5" fill-opacity=".529" d="M503.407 452.506l32.675-27.666 12.067 80.375-34.701 24.287z"/><path fill="#f9b388" fill-opacity=".643" d="M813.267 587.587L898 1086H763.13l44.437-124.36z"/><path fill="#dcdce3" fill-opacity=".624" d="M522.737 293.177l152.056 72.752-77.484-25.097-114.24-37.33z"/><path fill="#a8756f" fill-opacity=".792" d="M415.109 623.985l-51.3 76.463 132.908.494 27.122-73.811z"/><path fill="#05372b" fill-opacity=".349" d="M684.568 606.653l-58.86-135.828 9.888 259.45 140.815-98.8z"/><path fill="#e1e5ea" fill-opacity=".675" d="M278.787 485.41l34.725-35.097 17.33 41.308-45.644 1.36z"/><path fill="#424851" fill-opacity=".659" d="M524.934 298L599.59 73.068l42.663 238.337 51.703 55.935z"/><path fill="#ebfeff" fill-opacity=".431" d="M411.574 413.25l-96.523-113.57 15.427-29.374-56.306 52.707z"/><path fill="#25282b" fill-opacity=".816" d="M-62 98.046l115.699 227.82-2.104 192.156 103.043-286.36z"/><path fill="#004e63" fill-opacity=".361" d="M664.012 928.55l-19.59-31.152L641.727 1086l132.53-163.317z"/><path fill="#bb0d15" fill-opacity=".553" d="M619.487 584.517l24.755 355.337-268.4 62.065-30.112-80.46z"/><path fill="#ffbf8a" fill-opacity=".376" d="M558.094 132.526l-62.165 226.342 12.812-193.427-87.463-73.626z"/><path fill="#9cfff9" fill-opacity=".235" d="M82.903 530.73l107.933 68.69L79.884 736.019l144.045-71.047z"/><path fill="#f91522" fill-opacity=".49" d="M680.586 436.456l-101.237-94.447 124.333 241.68 76.571-44.072z"/><path fill="#d3f3ff" fill-opacity=".647" d="M46.996 619.287L-62 551.695 60.695 585.44l.52 23.295z"/><path fill="#fdf2ff" fill-opacity=".345" d="M690.01 398.314l-13.271 12.82 99.643 147.147-34.698-124.66z"/><path fill="#352305" fill-opacity=".408" d="M160.785 603.369l-171.33 110.593 157.101 164.521-62.09-330.698z"/><path fill="#ebfdff" fill-opacity=".557" d="M427.961 409.43l54.88-36.591 30.502-59.478-3.075-24.486z"/><path fill="#58494a" fill-opacity=".988" d="M364.744 254.088l-133.909 78.044-102.083 43.948 73.24-213.858z"/><path fill="#680a0d" fill-opacity=".659" d="M209.135 682.529l278.801-30.89-153.651 26.294-216.659-225.037z"/><path fill="#67495a" fill-opacity=".992" d="M197.491 775.9l-72.234 102.79L162.965 1086l17.133-208.412z"/><path fill="#5a4d46" fill-opacity=".988" d="M738.595 211.454l-333.613-37.935 151.416-7.397 107.46-116.294z"/><path fill="#ddf5f9" fill-opacity=".416" d="M316.246 284.683l-155.723 85.283 15.696 8.525 121.867-59.19z"/><path fill="#704645" fill-opacity=".992" d="M108.284 78.105L-62 165.01 15.461-55.13l88.845 104.822z"/><path fill="#cb131d" fill-opacity=".627" d="M476.092 490.106l2.152-100.227L20.778 567.404l284.842-224.84z"/><path fill="#080200" fill-opacity=".192" d="M898 701.26L830.332-62l-72.963 249.154 17.319 208.432z"/><path fill="#98432b" fill-opacity=".639" d="M739.308 600.2l63.079 263.933-122.988 174.135 102.496-19.66z"/><path fill="#e4fff9" fill-opacity=".486" d="M316.849 680.308l166.03-130.315-17.085 97.675-54.239-26.729z"/><path fill="#564c51" fill-opacity=".824" d="M-19.27 658.49L-62 225.681 83.203 464.816l-55.217 91.255z"/><path fill="#0c0000" fill-opacity=".263" d="M75.156 767.426l349.925-5.274-268.93-60.824 221.118 94.33z"/><path fill="#d0b195" fill-opacity=".255" d="M217.685-41.567L533.693-62l33.722 163.02-96.082-83.962z"/><path fill="#ec2d38" fill-opacity=".643" d="M508.619 890.61l-103.39 36.19-159.261-79.537-4.658-2.747z"/><path fill="#7b080b" fill-opacity=".804" d="M570.36 781.341l-93.083-62.685 21.82 57.05 132.086 71.81z"/><path fill="#c21821" fill-opacity=".722" d="M463.87 524.618l-341.702-.73 239.17 24.061 14.837 20.746z"/><path fill="#fff7ff" fill-opacity=".227" d="M407.075 720.638l55.77-56.462-39.92 17.294-129.479-49.97z"/><path fill="#fcffff" fill-opacity=".467" d="M376.014 564.374l59.391-15.456-55.001 60.822-47.87-65.149z"/><path fill="#fdb05b" fill-opacity=".227" d="M531.732 216.444l-.047 26.793L346.55 206.91l-32.553-76.296z"/><path fill="#650700" fill-opacity=".427" d="M407.779 619.216l91.557 50.187-86.216-2.781-3.146 20.89z"/><path fill="#cbfffe" fill-opacity=".498" d="M103.099 467.746l-22.456 29.668-24.331 15.826 45.377-79.288z"/><path fill="#4c0a00" fill-opacity=".482" d="M764.182 638.045L605 571.842l36.21-91.514L745.7 721.85z"/><path fill="#5f0104" fill-opacity=".514" d="M409.882 783.85l208.612 156.428-93.647-98.469-139.524-91.408z"/><path fill="#f69042" fill-opacity=".337" d="M834.566 711.074L773.634 1086l16.46-251.62-41.627-255.062z"/><path fill="#c1dad9" fill-opacity=".569" d="M409.319 421.434l-84.35-73.056 103.146 42.259 79.505-69.418z"/><path fill="#4f7379" fill-opacity=".341" d="M-61.634 999.277L123.932 1086-11.842 770.238 78.5 736.91z"/><path fill="#9a030b" fill-opacity=".349" d="M368.769 646.68l-34.348-47.304 32.07-37.426-30.723 80.195z"/><path fill="#ed2936" fill-opacity=".573" d="M643.621 1010.374l-4.287-96.389-161.821 18.157L619.321 1086z"/><path fill="#182730" fill-opacity=".639" d="M215.076 742.585L84.574 916.737 30.24 820.08l94.26-93.393z"/><path fill="#7c7076" fill-opacity=".988" d="M761.792 515.58l-23.925-127.134L898 679.276l-30.086 67.39z"/><path fill="#e8fffa" fill-opacity=".573" d="M390.458 600.7l-74.305 32.715L346.36 547.3l-39.976 50.128z"/><path fill="#ee2d37" fill-opacity=".788" d="M515.847 309.882l188.37 164.151L685 393.988l-198.933 22.9z"/><path fill="#520000" fill-opacity=".518" d="M315.237 891.448l-35.068-34.294-92.545-13.302 3.778 37.138z"/><path fill="#a55e5a" fill-opacity=".784" d="M503.887 574.944l-32.653-1.854 44.505 109.156-44.577-41.805z"/><path fill="#ceded4" fill-opacity=".749" d="M499.505 550.766l-22.81 4.14 43.132 40.338-18.981 83.902z"/><path fill="#46290c" fill-opacity=".365" d="M514.924 236.64l-43.973 96.942-66.022 70.29 1.763-97.153z"/><path fill="#ffcea9" fill-opacity=".369" d="M149.738 541.44l-1.304 86.44 46.562 6.216-114.31-91.209z"/><path fill="#e52e38" fill-opacity=".78" d="M371.289 405.751l-76.995-89.207-15.68 24.475-159.76 67.039z"/><path fill="#292821" fill-opacity=".773" d="M573.978 134.718L463.19 92.526l-127.661-6.838 79.214-79.08z"/><path fill="#7b0001" fill-opacity=".404" d="M156.939 413.667l336.962-2.061-136.114 33.898 17.282-17.06z"/><path fill="#2f1700" fill-opacity=".596" d="M507.767 188.662l-72.525.198-.507-10.625 39.51-25.78z"/><path fill="#d52c33" fill-opacity=".624" d="M463.503 668.347l-17.32-52.22 60.128-238.534-76.36 27.319z"/><path fill="#751213" fill-opacity=".655" d="M598.263 662.865l-199.591 7.73-113.632 17.434 133.936-34.443z"/><path fill="#edffff" fill-opacity=".514" d="M780 577.14l-21.13-23.098-43.998 29.067-7.703 35.482z"/><path fill="#ccd7ef" fill-opacity=".141" d="M709.194 999.36l-92.129-410.833 114.462 175.94 12.315 139.672z"/><path fill="#ef333f" fill-opacity=".51" d="M390.09 752.818l-224.448-77.463 265.869 84.062L628.557 906.92z"/><path fill="#daffff" fill-opacity=".341" d="M169.505 1003.944L334.463 1086l27.698-67.506-88.028-13.515z"/><path fill="#160200" fill-opacity=".337" d="M639.844 788.22l-35.182-118.59-110.132-57.072 76.971 17.804z"/><path fill="#283c44" fill-opacity=".592" d="M189.064 991.334L33.428 811.85l29.798 185.086 75.259 54.176z"/><path fill="#400000" fill-opacity=".424" d="M139.103 475.817l69.68 18.752-10.37-17.14 3.934 158.8z"/><path fill="#d9232d" fill-opacity=".773" d="M325.422 559.204L201.306 393.64l-39.563 49.573 125.003 156.774z"/><path fill="#fe323e" fill-opacity=".451" d="M214.028 665.887l-27.52-18.255 7.132 2.26 130.737-19.826z"/><path fill="#e2b1b6" fill-opacity=".678" d="M549.254 475.516l-2.368-29.906-47.134 68.548 46.2-3.465z"/><path fill="#988163" fill-opacity=".537" d="M29.661 682.165l152.19-102.77 18.2 88.557-124.835-87.544z"/><path fill="#f88a39" fill-opacity=".271" d="M413.307 155.387l106.683-.725-21.475-53.796-71.896-5.548z"/><path fill="#b6fee2" fill-opacity=".392" d="M405.716 655.547l71.305-47.5 46.376-26.721-58.366 61.052z"/><path fill="#e2f8ff" fill-opacity=".396" d="M751.87 497.511l-34.913-20.336-35.044-94.589 36.86 61.029z"/><path fill="#4f0002" fill-opacity=".565" d="M325.296 821.2l96.583 4.89 28.792.322-174.18-31.582z"/><path fill="#d20b17" fill-opacity=".459" d="M150.368 441.649l17.018 141.29-14.731-42.959L24.31 550.821z"/><path fill="#f8f1f7" fill-opacity=".067" d="M750.318 320.062l-65.045-7.719-284.97-121.517 295.832-14.875z"/><path fill="#383333" fill-opacity=".749" d="M-62 170.214l202.813 211.663-92.46 125.078-16.117-167.89z"/><path fill="#870309" fill-opacity=".608" d="M373.131 947.175l135.907-26.143 59.118-32.217-75.15 3.427z"/><path fill="#690003" fill-opacity=".447" d="M475.406 805.758l94.999 80.348 49.916 71.513 34.203 58.387z"/><path fill="#55423a" fill-opacity=".984" d="M352.975 234.843l-52.854 69.465 89.851-355.28L245.73-62z"/><path fill="#f4fffe" fill-opacity=".51" d="M488.087 599.327l1.953 20.668-83.37-58.005-4.619-19.529z"/><path fill="#ffe7ea" fill-opacity=".376" d="M592.429 331.478l80.56 34.25-73.916-18.276-164.505-87.364z"/><path fill="#4b3214" fill-opacity=".557" d="M160.758 651.415L-62 708.016l194.684 43.882-82.125-124.005z"/><path fill="#ffb998" fill-opacity=".627" d="M869.656 806.56l-1.34 164.901-71.428-46.295-32.332 13.07z"/><path fill="#152a32" fill-opacity=".235" d="M443.149 260.245l210.306 32.308 58.097 133.163-51.369-70.905z"/><path fill="#dbfffa" fill-opacity=".357" d="M345.301 684.466l24.12-77.822-5.062 22.807L475.32 565.7z"/><path fill="#650002" fill-opacity=".6" d="M526.655 747.164l-15.847-.272-213.43-13.853 100.75-8.538z"/><path fill="#332926" fill-opacity=".604" d="M94.118-62l146.737 94.162-42.143 113.428-58.86-27.008z"/><path fill="#ff4555" fill-opacity=".318" d="M158.096 838.753l59.632 76.546 314.165 143.211-348.286-73.1z"/><path fill="#dad9e0" fill-opacity=".847" d="M379.53 396.765L302.272 289.13l22.568 68.556 42.785 33.512z"/><path fill="#416d7c" fill-opacity=".322" d="M169.859 545.165l30.466 114.32 9.965 78.654-53.578-38.987z"/><path fill="#747673" fill-opacity=".275" d="M644.38 559.553l86.56 112.224-99.46 134.015.414-148.817z"/><path fill="#b20c13" fill-opacity=".561" d="M567.399 520.1l-91.885-4.234-205.462 17.386 66.08 8.677z"/><path fill="#ff323f" fill-opacity=".294" d="M428.09 706.957L190.82 696.28l21.234 29.32 258.416 2.166z"/><path fill="#b72b2f" fill-opacity=".522" d="M345.357 651.42L270.77 517.948l32.542 95.78 64.484 19.294z"/></svg>