<svg xmlns="http://www.w3.org/2000/svg" width="228" height="278" viewBox="0 0 836 1024"><path fill="#9a7375" d="M0 0h836v1024H0z"/><path fill="#e0f4ff" fill-opacity=".808" d="M266.514 977.722l10.045-95.422L-62 1053.324l853.517-16.047z"/><path fill="#960204" fill-opacity=".757" d="M422.297 911.357l80.073-643.502 22.056 340.972-34.781 414.911z"/><path fill="#e2e8fa" fill-opacity=".518" d="M474.445 543.44L357.395 1086l25.063-649.196 70.038-136.637z"/><path fill="#f5edf3" fill-opacity=".569" d="M344.912 317.453L126.104 646.83l57.513-344.73 101.862 383.127z"/><path fill="#87080b" fill-opacity=".882" d="M283.005 979.366l36.902-403.697 63.32 20.173-23.202 255.027z"/><path fill="#691317" fill-opacity=".929" d="M590.715 462.925l55.46 30.267-27.318 302.326-50.724 19.314z"/><path fill="#36170e" fill-opacity=".494" d="M341.811 397.145l-28.682-120.531L623.49 93.04l17.654 135.918z"/><path fill="#fec5ce" fill-opacity=".471" d="M712.059 320.042L477.246 247.77l147.867 241.07 259.834 103.566z"/><path fill="#3b384a" fill-opacity=".42" d="M-2.67-62l5.85 915.378 147.473-475.18 82.527-236.559z"/><path fill="#c2e9fa" fill-opacity=".537" d="M547.297 392.851L491.744 1086l52.304-40.054 26.205-254.373z"/><path fill="#521004" fill-opacity=".392" d="M108.183 623.25l159.914-48.683-25.113 258.16L114.09 1013.99z"/><path fill="#d2e3f5" fill-opacity=".792" d="M344.957 896.288l89.802-144.205-21.47 314.556-72.75-1.86z"/><path fill="#cbb5d0" fill-opacity=".588" d="M830.175 1086l43.283-483.494-97.244 159.8-38.645 64.826z"/><path fill="#c7a18a" fill-opacity=".953" d="M657.188 887.11L898 379.29 702.476 664.812l-151.47 199.484z"/><path fill="#d7f0ff" fill-opacity=".671" d="M305.089 775.318l-46.011 235.12L168.575 1086l99.479-319.417z"/><path fill="#3b5e57" fill-opacity=".384" d="M624.066 286.067L304.134 15.016 898-10.96v314.553z"/><path fill="#dc272d" fill-opacity=".847" d="M671.716 342.902l-27.355 65.981-115.255-137.289-75.836 11.123z"/><path fill="#c7575d" fill-opacity=".988" d="M171.144 223.008l143.952 52.556-31.03 95.94-49.82 177.376z"/><path fill="#e8ccc4" fill-opacity=".478" d="M506.53 551.074L56.944 620.692l127.117-262.16 51.96 130.997z"/><path fill="#bae4ff" fill-opacity=".576" d="M513.858 300.956l127.209 100.792 79.83-53.143-39.946 210.872z"/><path fill="#d6d5e3" fill-opacity=".984" d="M247.563 522.93l90.584-83.26-27.929-159.245 3.408-4.29z"/><path fill="#df0006" fill-opacity=".525" d="M359.07 570.054l-38.625-87.596 29.215-122.964 50.367 17.329z"/><path fill="#b3bcb7" fill-opacity=".635" d="M405.938-62L265.105 92.602-6.765-62 586.783 47.779z"/><path fill="#750809" fill-opacity=".643" d="M498.785 943.888l35.389-435.102-88.443 73.257 4.173 205.9z"/><path fill="#ce323a" fill-opacity=".549" d="M211.018 907.213L-62 981.051 63.513 814.947l184.915 43.795z"/><path fill="#e0dcf2" fill-opacity=".722" d="M666.271 922.978l-91.547 18.07 6.86-4.328 73.805 47.446z"/><path fill="#001703" fill-opacity=".345" d="M780.98 676.876l-73.134 244.99-124.81-48.935 50.192 64.312z"/><path fill="#550506" fill-opacity=".675" d="M646.898 533.542L523.345 348.62l19.65 58.822 95.786 232.85z"/><path fill="#010" fill-opacity=".337" d="M477.3 79.72l-127.286 2.34-39.9-41.888L424.997-27.28z"/><path fill="#a91c20" fill-opacity=".914" d="M294.736 843.936l55.379 25.273-12.09 116.068-59.589-18.594z"/><path fill="#e43946" fill-opacity=".616" d="M457.827 537.166l6.093-276.375 119.124 15.527-68.66 41.472z"/><path fill="#b2b1bc" fill-opacity=".992" d="M520.035 434.683l64.999 222.144-63.483-325.934-11.298-17.536z"/><path fill="#efefff" fill-opacity=".51" d="M412.047 343.33l-38.824 153.944 113.685 7.283-9.49 88.158z"/><path fill="#005bdb" fill-opacity=".337" d="M21.106 459.789l.889-84.731 112.335-18.97 14.385 124.827z"/><path fill="#b4705b" fill-opacity=".467" d="M-57.786 449.368L59.32 713.548l245.93-233.874 17.298 135.61z"/><path fill="#1e170a" fill-opacity=".49" d="M279.273 166.72l103.572 197.012L495.5 269.348l-182.39 46.44z"/><path fill="#ebf4ff" fill-opacity=".651" d="M189.658 553.877l50.836-36.66-54.14-149.03-53.576 140.145z"/><path fill="#d6b28c" fill-opacity=".592" d="M470.267 145.931l-171.171-6.917 22.226-50.815L453.1 79.806z"/><path fill="#9ea7b2" fill-opacity=".816" d="M527.89 463.834l59.898 85.162-7.514 157.964-48.204 19.495z"/><path fill="#e2f1f9" fill-opacity=".749" d="M500.158 993.132l-366.914 27.355L601.127 1086l-76.713-138.443z"/><path fill="#e02527" fill-opacity=".518" d="M516.48 401.966l15.95 97.6-244.231 17.344 136.261-22.866z"/><path fill="#a3a1a1" fill-opacity=".38" d="M643.773 123.508L378.093-.472l357.052 29.524-44.04 220.617z"/><path fill="#86aaac" fill-opacity=".541" d="M755.294 576.038l-102.153-48.781-24.886 159.162 43.057 44.428z"/><path fill="#430000" fill-opacity=".227" d="M787.728 230.516l96.347-245.678L898 338.881 464.012 238.526z"/><path fill="#8f5148" fill-opacity=".608" d="M151.977 80.443l310.449 116.985-16.744-65.298-345.768 202.3z"/><path fill="#244c3a" fill-opacity=".412" d="M186.725 821.806l58.01-182.2-61.275-71.65-54.26 103.258z"/><path fill="#b61b21" fill-opacity=".71" d="M424.193 991.423l-6.115-102.57 85.168 7.288-12.157 103.747z"/><path fill="#f0d8e5" fill-opacity=".471" d="M232.242 300.444l-4.822 137.91-28.266-125.69-48.689 159.38z"/><path fill="#a1b1bc" fill-opacity=".624" d="M310.79 570.513l-26.978-7.274-36.982 256.299 49.631 58.022z"/><path fill="#720004" fill-opacity=".584" d="M595.47 586.367l66.046 168.59-102.11-13.481 17.162-35.352z"/><path fill="#bac2c3" fill-opacity=".678" d="M211.736 1086L96.705 955.257-3.775 978.71l-34.914 93.26z"/><path fill="#ac6e74" fill-opacity=".804" d="M562.338 1086l-7.18-223.54 31.605 126.977L898 868.97z"/><path fill="#e50810" fill-opacity=".525" d="M252.06 387.787l26.988 1.733 30.37-111.193-78.09 33.417z"/><path fill="#b3938a" fill-opacity=".616" d="M151.682 730.186l-13.776 102.272-17.167 4.877-66.5-152.71z"/><path fill="#353c46" fill-opacity=".549" d="M-6.596 740.82l45.216-95.309L60.957 767.85l-28.701 60.346z"/><path fill="#cb646e" fill-opacity=".518" d="M795.66 264.56L898 460.246l-166.446-65.809-72.34-81.445z"/><path fill="#770c0e" fill-opacity=".78" d="M428.86 874.716l82.742-71.295 17.772-85.41-49.52-161.936z"/><path fill="#e0eaff" fill-opacity=".573" d="M393.306 387.506l72.408-78.604-4.555 49.01-47.62 56.488z"/><path fill="#773206" fill-opacity=".341" d="M733.75 411.309l-32.13 26.496 71.08 137.471-81.265-28.39z"/><path fill="#5b0007" fill-opacity=".376" d="M264.952 585.93l73.419-9.943-100.196-12.315-1.245 292.679z"/><path fill="#3d3b30" fill-opacity=".741" d="M285.836 71.66l-11.447 58.197 21.328 35.085 5.815-106.24z"/><path fill="#b40003" fill-opacity=".427" d="M214.508 821.911l3.482-49.335 43.74-21.788-61.716 218.681z"/><path fill="#a4a8ce" fill-opacity=".839" d="M229.529 396.639l51.308 28.214 65.462-5.421-99.108-34.139z"/><path fill="#ddf1fa" fill-opacity=".906" d="M214.037 945.193l-32.343-34.66L117.1 1086l329.736-44.429z"/><path fill="#a10006" fill-opacity=".463" d="M273.344 417.411l-74.472-13.476 37.642 93.375 8.505 3.984z"/><path fill="#c6d6e8" fill-opacity=".608" d="M569.391 436.075l144.535 66.774L591.183 353.02l-55.218-44.327z"/><path fill="#c7a592" fill-opacity=".827" d="M111.022 513.235l-38 140.318 217.94-181.14-61.79 147.75z"/><path fill="#c7ac7c" fill-opacity=".388" d="M392.16 192.933l113.453-23.016-80.075 81.135-192.57-83.062z"/><path fill="#a8b5be" fill-opacity=".804" d="M436.604 822.752l-68.371 18.227 80.336-282.797-3.753 177.831z"/><path fill="#f5effe" fill-opacity=".506" d="M529.35 423.105l-10.332-105.257-9.54-18.704-5.817 66.987z"/><path fill="#dbdfe5" fill-opacity=".604" d="M315.28 526.418l16.176 60.709 25.638-77.187 67.816 29.5z"/><path fill="#521900" fill-opacity=".337" d="M598.037 941.935L545.242 1086l41.377-195.408 120.821-7.62z"/><path fill="#112631" fill-opacity=".263" d="M250.106 764.179l-87.525 53.593-5.499-112.656 286.201 50.354z"/><path fill="#3d5753" fill-opacity=".576" d="M111.614 88.96L12.37-62l-.87 379.488-73.5-42.25z"/><path fill="#173600" fill-opacity=".235" d="M700.36 766.426L898 573.204 763.148 757.126l-66.942 120.057z"/><path fill="#06000f" fill-opacity=".255" d="M94.58 340.343l15.454-46.193 81.386 10.736-82.412 123.029z"/><path fill="#d1b09e" fill-opacity=".561" d="M537.599 868.279l127.546-133.123 36.659 88.815-13.16 64.82z"/><path fill="#e0060e" fill-opacity=".498" d="M520.132 295.134l46.8 119.976-10.7 8.963-20.437-28.485z"/><path fill="#df3036" fill-opacity=".702" d="M667.749 366.02l8.116-18.236-74.744-52.246 35.132 111.082z"/><path fill="#c5484a" fill-opacity=".878" d="M472.406 574.103l42.378-8.008-53.12-2.172-177.154 22.13z"/><path fill="#000800" fill-opacity=".235" d="M598.382 431.704l50.745 136.656 5.865-68.588-171.475 53.295z"/><path fill="#d64d54" fill-opacity=".722" d="M132.145 417.362l28.378 6.25 10.545-42.413 81.059-148.906z"/><path fill="#dbeff7" fill-opacity=".271" d="M369.925-62H479.51l45.772 133.178-32.343 8.438z"/><path fill="#13050a" fill-opacity=".361" d="M467.774 191.646l5.36 98.626-116.91 134.654L477.39 194.258z"/><path fill="#ab3746" fill-opacity=".459" d="M-62 629.74l216.588-120.104L-62 466.642v162.374z"/><path fill="#e0edfc" fill-opacity=".639" d="M460.453 491.699l-65.124-104.11-8.507 105.873.392 3.711z"/><path fill="#63100b" fill-opacity=".427" d="M382.816 629.753l93.344-49.416-159.607 54.951-20.78 119.298z"/><path fill="#f6fdc2" fill-opacity=".106" d="M-15.48 389.006l-13.917 192.398L86.934 340.522l18.605-220.47z"/><path fill="#081519" fill-opacity=".188" d="M898 214.164l-95 117.598L819.225-62l-92.141 171.686z"/><path fill="#c72127" fill-opacity=".608" d="M349.994 474.714l40.824 60.797-28.629-171.493-35.858 8.742z"/><path fill="#c69c85" fill-opacity=".996" d="M736.946 663.41l21.169-133.48-80.79-79.449L898 492.546z"/><path fill="#c6d3e2" fill-opacity=".565" d="M548.223 1060.918l19.695-288.884-56.906 64.49L497.837 1086z"/><path fill="#d4c8dd" fill-opacity=".541" d="M426.711 393.747l43.085 55.843 8.6-72.36-63.681-20.395z"/><path fill="#aa1650" fill-opacity=".459" d="M687.998 461.733l45.432-59.687 4.691 27.699-29.208 43.692z"/><path fill="#2e2a1b" fill-opacity=".529" d="M468.806 233.465L481.48 81.917l-46.763-66.579 32.649 102.722z"/><path fill="#c7d1e7" fill-opacity=".647" d="M732.123 405.965l-77.268 94.117 18.721-164.77 115.1 112.882z"/><path fill="#ffd4d9" fill-opacity=".525" d="M559.52 307.589l-46.063 18.545 55.805-43.191 54.477 44.093z"/><path fill="#c6aac0" fill-opacity=".827" d="M761.602 821.39L898 957.734l-123.978 127.703 91.06-369.182z"/><path fill="#d50307" fill-opacity=".337" d="M491.988 246.941l3.638 40.28 39.786 256.84-80.164-199.785z"/><path fill="#6e0507" fill-opacity=".506" d="M374.739 761.86l-5.526 71.362-60.283 17.142L301 698.631z"/><path fill="#ea4d57" fill-opacity=".788" d="M602.524 363.854L485.358 261.316l19.042-5.272 21.003-4.065z"/><path fill="#995653" fill-opacity=".463" d="M702.453 1026.68l-52.361-125.208 143.438-6.151 8.81 62.616z"/><path fill="#e9ebff" fill-opacity=".4" d="M526.113 581.116l58.556-22.075-.276 19.555-63.426 51.054z"/><path fill="#d7e3ff" fill-opacity=".435" d="M667.1 956.997L526.019 977.5l53.011 4.5 44.6-61.925z"/><path fill="#9d1926" fill-opacity=".604" d="M455.705 457.625l38.366-25.327-42.868 72.093-1.29-102.53z"/><path fill="#001d4a" fill-opacity=".153" d="M522.14 28.894l108.13 114.528-157.14 161.323L723.501-62z"/><path fill="#d7b2a2" fill-opacity=".886" d="M621.442 757.018l-34.416 87.325-50.613 52.95 118.743-68.51z"/><path fill="#acbdd1" fill-opacity=".463" d="M661.509 744.53l-9.188-157.654 96.436-178.536-120.183 263.416z"/><path fill="#d8e7fd" fill-opacity=".239" d="M292.087 692.7l-61.264 5.56-21.267-141.436 47.716 166.432z"/><path fill="#b76766" fill-opacity=".549" d="M143.176 320.589L276.685 78.4l-101.507.95L288.32 280.757z"/><path fill="#232603" fill-opacity=".345" d="M440.513 143.675l-5.734 51.28-89.25-44.002-2.744 42.324z"/><path fill="#ffd6ad" fill-opacity=".082" d="M768.068 574.616L806.89 107.14 592.68 275.195l99.94-297.013z"/><path fill="#deefff" fill-opacity=".431" d="M263.738 501.833l7.567-91.898L320.22 298.31l19.512 143.419z"/><path fill="#e1ecf6" fill-opacity=".471" d="M227.448 404.943l2.405-8.002-9.805-131.005 2.785 199.302z"/><path fill="#720d12" fill-opacity=".624" d="M559.655 845.8l42.695-340.313 36.663 213.376-36.49 72.246z"/><path fill="#cfefff" fill-opacity=".263" d="M226.535 913.755l19.03-96.978 10.687-82.929 51.909 110.593z"/><path fill="#947798" fill-opacity=".655" d="M288.65 349.615l27.74-2.274 43.05 24.98 52.357-18.38z"/><path fill="#90ddd0" fill-opacity=".176" d="M89.227 85.567L69.829-10.955l293.395 8.5 8.2 19.84z"/><path fill="#d62637" fill-opacity=".576" d="M547.16 979.175l55.708 11.255-26.701 11.392L595.422 1086z"/><path fill="#b58c98" fill-opacity=".976" d="M739.682 1086l-159.647-29.545 4.023-58.812 38.99-30.449z"/></svg>