<svg xmlns="http://www.w3.org/2000/svg" width="228" height="278" viewBox="0 0 836 1024"><path fill="#744e4d" d="M0 0h836v1024H0z"/><path fill="#bcd7db" fill-opacity=".631" d="M310.32 881.946L14.036 526.292-62 1082.804 285.582 1086z"/><path fill="#c2e6f1" fill-opacity=".71" d="M676.214 1052.796L898 1048.042v-267.5L641.456 887.509z"/><path fill="#930006" fill-opacity=".694" d="M616.24 830.846l-15.785-477.17-482.876-4.82 63.939 488.993z"/><path fill="#c6e8bc" fill-opacity=".471" d="M898 701.167L355.736 895.441l274.474-27.903-23.592-427.792z"/><path fill="#930009" fill-opacity=".8" d="M673.917 1059.374l-39.564-169.79-294 46.939-95.6 149.477z"/><path fill="#3b423f" fill-opacity=".945" d="M529.723-62l25.326 421.722L898 658.72V-62z"/><path fill="#2c3e3a" fill-opacity=".737" d="M-61.191 3.04L269.723-62l33.518 374.896L-62 520.257z"/><path fill="#cbebf3" fill-opacity=".58" d="M453.493 490.138l28.883 49.617-68.01 48.377-25.98-72.225z"/><path fill="#725346" fill-opacity=".737" d="M198.723 642.201l-77.475 173.257-173.6 150.305 335.978-147.029z"/><path fill="#a0b0b6" fill-opacity=".957" d="M139.984 582.276l28.897 118.814L17.532 879.405-62 566.65z"/><path fill="#d50e23" fill-opacity=".694" d="M338.675 506.212l333.676-24.773-63.31-73.273-122.234-91.054z"/><path fill="#3d0000" fill-opacity=".529" d="M693.822 764.878L556.46 527.435l-213.435 151.52 411.251 3.213z"/><path fill="#afc3cc" fill-opacity=".847" d="M227.583 832.615l47.783-46.86L299.08 1086l-355.074-75.898z"/><path fill="#aac9a1" fill-opacity=".988" d="M765.258 618.658L659.965 471.965l-73.974 44.97 102.5 131.748z"/><path fill="#590001" fill-opacity=".596" d="M394.298 1018.69L164.461 633.558 73.57 402.897l194.59 180.709z"/><path fill="#cf0f22" fill-opacity=".686" d="M132.986 418.028l83.925-61.152 97.772-41.824L361.5 585.843z"/><path fill="#ac968c" fill-opacity=".651" d="M469.964 129.132l-18.493 52.205-157.419-21.404 5.464-69.586z"/><path fill="#eaf6ff" fill-opacity=".612" d="M547.168 827.638l24.78 69.063-42.65 6.909-24.005-50.599z"/><path fill="#9facb3" fill-opacity=".729" d="M898 578.379l-43.835 308.424-82.015-242.58-32.246-52.441z"/><path fill="#424a47" fill-opacity=".847" d="M124.073 545.428L9.42 585.499-62 244.914l207.413 89.328z"/><path fill="#820005" fill-opacity=".961" d="M268.872 726.733l28.22 137.51 219.902-28.357L626.267 727.9z"/><path fill="#b3ff83" fill-opacity=".247" d="M407.63 715.551l-71.645-96.33-92.334 64.197 103.995 50.988z"/><path fill="#643f38" fill-opacity=".996" d="M438.219 383.946L357.56 241.323l-43.869 135.929 47.966 49.802z"/><path fill="#373223" fill-opacity=".482" d="M420.392 987.38l94.36-39.978 324.197-150.228-462.758 145.06z"/><path fill="#51ce3b" fill-opacity=".482" d="M697.749 646.516L672.514 545.26 591.257 598l52.101 91.906z"/><path fill="#ebb4aa" fill-opacity=".525" d="M528.414 841.384l-5.834 7.397-130.76 35.478-47.372-24.95z"/><path fill="#94060f" fill-opacity=".8" d="M667.854 945.573l-238.061 30.8L290.668 832.35l49.15 253.65z"/><path fill="#41645f" fill-opacity=".4" d="M562.827-62L228.305 38.226l196.932 91.195 139.01 268.66z"/><path fill="#9b7365" fill-opacity=".804" d="M564.006 879.963l257.331-136.905-84.54-131.066-14.377 96.482z"/><path fill="#5a0001" fill-opacity=".569" d="M644.162 575.47l-82.955-49.79 74.439 192.53-298.887-21.77z"/><path fill="#1a2316" fill-opacity=".306" d="M602.09 330.158l188.785 25.113 89.91 162.487-131.128 90.221z"/><path fill="#987a73" fill-opacity=".737" d="M295.996 124.181l3.738 135.797 206.63-19.976-185.43-39.201z"/><path fill="#c69781" fill-opacity=".569" d="M203.265 762.692l-21.832 47.871L-62 934.67l194.532-173.247z"/><path fill="#0b0500" fill-opacity=".337" d="M218.142 823.643L176.84 501.82l70.595 156.994 7.89 153.748z"/><path fill="#fe3248" fill-opacity=".467" d="M511.756 345.78l91.086 42.175 45.27 78.878-120.676-24.438z"/><path fill="#372c25" fill-opacity=".612" d="M384.525 118.718l3.835-52.535 110.587-13.541.702 53.003z"/><path fill="#6d787a" fill-opacity=".357" d="M-62 96.908l309.685 65.728-53.362-110.433-150.57 165.799z"/><path fill="#643a33" fill-opacity=".557" d="M631.002 682.217l59.88 54.076 60.931-8.851-34.717-78.606z"/><path fill="#810004" fill-opacity=".659" d="M620.642 710.095L379.28 553.643l-180.304-8.658 428.997 258.991z"/><path fill="#4d1d18" fill-opacity=".525" d="M269.179 786.07l-19.087 19.668-77.358 64.068-125.01 45.607z"/><path fill="#3f1809" fill-opacity=".408" d="M741.136 850.966l90.877-67.07-211.03 68.843-106.396 83.824z"/><path fill="#adbec6" d="M309.915 933.419L272.791 1086l-320.827-99.305 325.052-177.363z"/><path fill="#89e4ed" fill-opacity=".18" d="M462.693 726.215l-23.344-80.348-19.957 52.721-169.513 5.251z"/><path fill="#abb8d6" fill-opacity=".51" d="M622.67 780.717l78.83-31.747-31.226-24.348-42.542-44.525z"/><path fill="#8f6c5f" fill-opacity=".761" d="M468.544 326.298l-47.528 73.866 6.016-59.952 44.346-259.117z"/><path fill="#be9bb0" fill-opacity=".49" d="M222.498 543.078l6.703-47.294 3.303 23.748 59.399-3.007z"/><path fill="#151404" fill-opacity=".416" d="M444.7 203.982l-8.186-17.96-168.964-15.737 154.63 49.335z"/><path fill="#a5020f" fill-opacity=".678" d="M299.04 493.836L480.388 339.14l18.145 225.627L670.31 462.536z"/><path fill="#b9c3ca" fill-opacity=".416" d="M403.072 491.605l-11.338 85.536 58.914-7.079-11.041-68.865z"/><path fill="#525959" fill-opacity=".51" d="M618.913 14.748L809.423-62 605.6 187.104 898 436.941z"/><path fill="#1e2019" fill-opacity=".31" d="M-62 265.527l170.557-68.407L19.305 5.942l283.813 262.842z"/><path fill="#f13b4f" fill-opacity=".471" d="M294.361 340.735l-65.576 64.588-104.816 15.705 88.288-65.106z"/><path fill="#e4dfff" fill-opacity=".302" d="M677.783 542.14l79.642 75.167-89.477-149.2-83.55 40.718z"/><path fill="#d50016" fill-opacity=".353" d="M642.03 909.604l25.477 51.548-20.885 64.68-220.041 31.531z"/><path fill="#87a6a9" fill-opacity=".416" d="M-62 557.118v-2.656l185.53 11.963 63.784 119.966z"/><path fill="#333833" fill-opacity=".682" d="M237.297 85.683L367.272-5.591-6.824-44.884l25.31 127.008z"/><path fill="#300" fill-opacity=".373" d="M640.736 679.106l-64.029-78.058 113.792-51.404-291.245 70.415z"/><path fill="#a2ff99" fill-opacity=".392" d="M701.444 569.584L623.715 629.2l27.772 41.225 137.986-85.811z"/><path fill="#31332d" fill-opacity=".722" d="M102.517 365.424L73.24 538.725l34.63 25.868 51.062-250.136z"/><path fill="#937c75" fill-opacity=".639" d="M320.986 373.936l35.412 42.458-68.617-223.71 22.53-68.342z"/><path fill="#91665c" fill-opacity=".969" d="M191.305 806.345L-1.437 954.813l-33.106-53.528 58.833-14.417z"/><path fill="#746657" fill-opacity=".376" d="M389.94 885.497l-12.983 77.375 163.016-22.51-24.339-67.943z"/><path fill="#eaf91b" fill-opacity=".227" d="M371.067 645.12L291.6 626.43l77.883 102.51-60.576-7.712z"/><path fill="#a80815" fill-opacity=".82" d="M399.738 573.465l142.33 36.227-257.855-49.119 23.877-218.938z"/><path fill="#85827c" fill-opacity=".463" d="M304.215 40.546L518.64 22.408l-6.757 68.577-92.995-128.508z"/><path fill="#a96f76" fill-opacity=".973" d="M396.879 519.977l62.143 6.36-76.069 11.19-15.35-19.343z"/><path fill="#712021" d="M329.58 695.193l-38.994-58.988-55.343 6.894 36.362 35.291z"/><path fill="#bd1524" fill-opacity=".867" d="M277.075 1051.662l20.39-52.238 83.311-15.745 25.054-5.846z"/><path fill="#6a0e10" fill-opacity=".773" d="M387.596 885.898l-6.166 71.335-49.15-43.369-44.464 99.665z"/><path fill="#4f2e21" fill-opacity=".69" d="M167.444 629.146l104.9 150.409-92.249-57.09-19.04-49.096z"/><path fill="#f2eeeb" fill-opacity=".161" d="M-62 760.936L2.603 884.982l3.648-5.169L183.587 727.98z"/><path fill="#adbec6" fill-opacity=".686" d="M711.456 881.798L898 750.355 667.606 1086l-10.17-152.93z"/><path fill="#f3f7ff" fill-opacity=".322" d="M520.201 823.54l45.388 43.984-.235 21.955-48.531 19.053z"/><path fill="#1e0600" fill-opacity=".333" d="M414.79 385.86l-54.164-.537-11.966-96.89 17.977-3.619z"/><path fill="#100" fill-opacity=".278" d="M586.242 509.778l50.074 94.137-132.954-65.907 117.256 163.68z"/><path fill="#4d595d" fill-opacity=".651" d="M464.533 296.726l64.945 49.54 39.508 30.254-22.519-245.87z"/><path fill="#950005" fill-opacity=".573" d="M194.68 570.412l119.997 65.383-188.142-191.55 131.208 1.283z"/><path fill="#c9d6d4" fill-opacity=".047" d="M-60.498 202.21l303.031 8.519L223.97 1.879l-166.656 99.74z"/><path fill="#f9dfd6" fill-opacity=".173" d="M387.04 170.372l-79.437-63.482 57.849-14.052-3.4 178.55z"/><path fill="#415857" fill-opacity=".349" d="M682.064 502.291l1.892-69.666 152.553 168.556-80.175-.213z"/><path fill="#a38073" fill-opacity=".988" d="M641.285 780.47l-76.309 59.515-6.256 36.43L726.835 767.96z"/><path fill="#201916" fill-opacity=".243" d="M614.154 427.473l144.627 82.355 25.42-370.845L898 240.453z"/><path fill="#aebec6" fill-opacity=".867" d="M264.195 788.721l17.13 33.73-265.772 117.73L81.97 1086z"/><path fill="#7c7b81" fill-opacity=".149" d="M114.115 387.223L20.159 250.521-62 261.963 14.733 532.66z"/><path fill="#0c0701" fill-opacity=".169" d="M166.869 247.06l101.28-113.61 31.984 96.17 132.442 46.587z"/><path fill="#e0eaff" fill-opacity=".051" d="M663.534 525.133L687.8 234.568l93.954-139.35-33.637 175.994z"/><path fill="#690107" fill-opacity=".671" d="M599.946 935.588L504.95 922.55l22.568-12.177 114.946-33.316z"/><path fill="#820006" fill-opacity=".439" d="M601.351 537.007l-264.6 176.76 76.489-107.92L584.647 476.49z"/><path fill="#8b0309" fill-opacity=".984" d="M492.276 847.166l129.937-56.158-229.684-79.524 83.878 134.202z"/><path fill="#b2aab2" fill-opacity=".204" d="M898 557.692v225.382l-111.773-6.792-50.884-194.865z"/><path fill="#d01021" fill-opacity=".529" d="M652.325 469.308l-44.87-22.385-134.312-138.367 88.798 209.861z"/><path fill="#bf8d82" fill-opacity=".4" d="M432.925 839.856l-46.067 76.516 85.837-28.099 45.857-23.938z"/><path fill="#680002" fill-opacity=".588" d="M634.547 778.078l-38.955 25.43L629.096 674l-174.229-79.527z"/><path fill="#9aa0d6" fill-opacity=".137" d="M396.077 725.3l-140.581-32.46 200.257-21.692-87.62-20.344z"/><path fill="#816561" fill-opacity=".859" d="M298.59 230.662l11.153 71.293 12.965-18.17 59.558 3.411z"/><path fill="#303431" fill-opacity=".306" d="M704.738 551.315L543.068 209.82l118.241-64.932 35.572 392.931z"/><path fill="#56686e" fill-opacity=".294" d="M485.066-62l27.95 272.586L761.01-62 622.674 164.896z"/><path fill="#677f80" fill-opacity=".435" d="M134.711 559.109l-65.338-8.122-123.222 43.386 185.11-6.75z"/><path fill="#bab7c0" fill-opacity=".737" d="M678.99 484.513l-23.627-16.126-40.78 101.675 61.911-27.42z"/><path fill="#44261c" fill-opacity=".259" d="M427.624 1024.393l-79.929-127.728 33.64 27.59 145.938-10.177z"/><path fill="#b10a18" fill-opacity=".827" d="M379.01 527.838l22.143-26.797 118.333-96.712-323.178 98.2z"/><path fill="#fe586f" fill-opacity=".318" d="M481.772 313.98l17.176 20.337 164.897 147.797-59.877-83.074z"/><path fill="#dbf8ff" fill-opacity=".341" d="M407.055 503.176l35.853 38.434-17.179-8.453 55.599-29.433z"/><path fill="#1e0204" fill-opacity=".278" d="M706.48 740.232l1.788-14.067-67.894-51.757 5.76 30.059z"/><path fill="#474b46" fill-opacity=".4" d="M310.883 108.521l-27.12 108.053L261.77 65.24l225.54-19.437z"/><path fill="#51201b" fill-opacity=".467" d="M219.017 840.072l47.598-103.228-19.021 71.616L-.516 941.807z"/><path fill="#000a01" fill-opacity=".286" d="M344.401 223.261l12.624-47.802-44.253-11.926 2.215 9.793z"/><path fill="#735a40" fill-opacity=".431" d="M825.203 744.579l1.12 49.05-277.396 93.698 208.88-123.133z"/><path fill="#790104" fill-opacity=".922" d="M556.14 808.866l-292.42-35.892 109.395 120.001-78.421-31.82z"/><path fill="#aa8776" fill-opacity=".471" d="M470.519 335.51l-6.653-63.345-51.284 94.28 6.548 13.705z"/><path fill="#880005" fill-opacity=".494" d="M368.18 1053.781l154.56-66.883 140.076-32.468-170.991-15.8z"/><path fill="#a1b1b8" fill-opacity=".961" d="M170.223 713.36L31.36 601.626l113.594-1.906 13.971 81.958z"/><path fill="#eef5f1" fill-opacity=".11" d="M306.136 106.104l120.375 40.454-73.49-53.677-63.004 143.825z"/><path fill="#af5d4b" fill-opacity=".275" d="M497.357 241.862l-89.203-102.155 39.308-21.839 68.167 80.615z"/><path fill="#800005" fill-opacity=".749" d="M472.616 584.27l-213.592 64.568-101.752-214.057L219.86 583.2z"/><path fill="#c0ffb7" fill-opacity=".475" d="M674.407 657.033l79.052-56.552-62.268-80.284 25.628 82.246z"/><path fill="#a0ed8d" fill-opacity=".714" d="M695.93 537.45l-39.718 25.582 38.105 33.551 5.15-3.937z"/><path fill="#9f7563" fill-opacity=".31" d="M750.17 618.116l-132.66 67.599 29.115-35.81L824.51 801.847z"/><path fill="#670000" fill-opacity=".565" d="M207.422 661.044l-5.552-184.425-78.417-3.883 31.711 150.267z"/><path fill="#b00b18" fill-opacity=".722" d="M489.8 572.236l21.554-119.264-384.649-25.18 350.936 78.985z"/></svg>