<svg xmlns="http://www.w3.org/2000/svg" width="228" height="278" viewBox="0 0 836 1024"><path fill="#744e4d" d="M0 0h836v1024H0z"/><g fill-opacity=".502"><path fill="#cff8ff" d="M-62 1086l396-88L34 498z"/><path fill="#9f0000" d="M50 342l628 8-268 736z"/><path fill="#bddac1" d="M698 1086l200-332-320-376z"/><path fill="#083834" d="M818-62L466 278l432 368z"/><path fill="#0e3e38" d="M382-14L34 614-62 2z"/><path fill="#cbfbff" d="M898 770l-80 316-184-180z"/><path fill="#a40000" d="M266 1002l368-132 44 216z"/><path fill="#6a0000" d="M606 462l16 324L42 886z"/><path fill="#bde1ef" d="M-58 994l348 92 4-292z"/><path fill="#e8f0e0" d="M538 898l-184-32 288-60z"/><path fill="#541c0d" d="M698 646l128 152-180 88z"/><path fill="#d8ffff" d="M434 586l-60-72 96-20z"/><path fill="#e50013" d="M666 462l-416 76 236-220z"/><path fill="#a5cfda" d="M130 558l-192 48 236 120z"/><path fill="#400" d="M266 542l36 316L70 454z"/><path fill="#b0e4c8" d="M854 606v120L566 494z"/><path fill="#e80018" d="M130 410l216 172-32-268z"/><path fill="#274f4c" d="M806-62L550 210 366 46z"/><path fill="#bdab9f" d="M482 170l-184-8 4-104z"/><path fill="#7b503a" d="M274 802L-62 978l264-276z"/><path fill="#620000" d="M310 574l328-8-36 268z"/><path fill="#b6cbde" d="M898 982L638 870l48 216z"/><path fill="#950000" d="M638 1010l-368 56 52-148z"/><path fill="#1b2e2a" d="M278 78l20 244-208 68z"/><path fill="#a0804d" d="M278 722l40-108 148 104z"/><path fill="#67ff5a" d="M654 682l-60-84 116-68z"/><path fill="#340400" d="M686 730l-48-52 48-28z"/><path fill="#b8dae2" d="M274 786l-84 72 120 68z"/><path fill="#d4eddd" d="M586 518l172 88-96-140z"/><path fill="#980000" d="M466 626l156 160-160 68z"/><path fill="#5d6657" d="M350 878l172-8-92 120z"/><path fill="#bc9d97" d="M778 738l-156-16v124z"/><path fill="#2f1209" d="M794 814l-148 16-124 112z"/><path fill="#2a3029" d="M898 426L574 282l176 312z"/><path fill="#3a3a2e" d="M446 410l-92-160-32 152z"/><path fill="#9b000a" d="M458 402L290 666 130 458z"/><path fill="#ec122d" d="M498 322l72 216 84-88z"/><path fill="#bac1cc" d="M406 574l-4-88 92 48z"/><path fill="#b6b8b6" d="M-62 910l236-96-32-252z"/><path fill="#817471" d="M558 358l-8-128-288-36z"/></g></svg>