<svg xmlns="http://www.w3.org/2000/svg" width="228" height="278" viewBox="0 0 836 1024"><path fill="#343240" d="M0 0h836v1024H0z"/><g fill-opacity=".502"><path fill="#fffc91" d="M38 370l248 364-348-40z"/><path fill="#ffffc3" d="M578 574l80-156 240 132z"/><path fill="#000016" d="M898 22L446 618l24-680z"/><path fill="#000637" d="M898 558L-62 834l536 252z"/><path fill="#001567" d="M190 674l460-84L6 214z"/><path fill="#a3d2ff" d="M574 950l100 136 24-160z"/><path fill="#f5f99d" d="M-18 450l96 304 68-324z"/><path fill="#ad6936" d="M218 242L378 58l112 360z"/><path fill="#ffb198" d="M194 710l144 36 28-116z"/><path fill="#fff9a1" d="M594 574l304-104-268-16z"/><path fill="#3049a4" d="M526 242l372 52-244 168z"/><path fill="#567bca" d="M110 302l112-28L98 638z"/><path fill="#ffc585" d="M734 302l8 76 156 24z"/><path fill="#06289e" d="M154 1050l148-312 136 248z"/><path fill="#070700" d="M218 70l644 188-28-308z"/><path fill="#231a00" d="M198 958l-260 76 40-476z"/><path fill="#000004" d="M166 658l144 16-36-456z"/><path fill="#173aac" d="M538 446l148 516-148-164z"/><path fill="#987543" d="M34 194L326-62 102 278z"/><path fill="#8eab00" d="M90 566l-152-44L38 698z"/><path fill="#2e1900" d="M746 1086l152-492-304-32z"/><path d="M278-62L-62 14 86 158z"/><path fill="#00239e" d="M266 298L70 590l124-20z"/><path fill="#000b55" d="M742 414L478 278l-44 264z"/><path fill="#f9a5a3" d="M58 734l340-32-336-60z"/><path fill="#000664" d="M-62 426l148 8-76-228z"/><path fill="#000123" d="M378 938l32-480 184 508z"/><path fill="#c18268" d="M314 402l-40-248 72-64z"/><path fill="#140600" d="M230 234l96-204L94 202z"/><path fill="#795b33" d="M406-34l156 296-44-212z"/><path fill="#e1bf5a" d="M606 566l220 8 20-80z"/><path fill="#ffffa1" d="M102 554l12-120-176 104z"/><path fill="#412807" d="M54 730l116 300 96-308z"/><path fill="#aeb8b3" d="M506 554l72-4-20-64z"/><path d="M226 678l-4-144 208 56z"/><path fill="#0c0300" d="M382 46l128 308-12-300z"/><path fill="#5976dd" d="M210 1082l24-216-72 184z"/><path fill="#a9c1ff" d="M702 990l-132-12 60-48z"/><path fill="#aa7f4a" d="M170 50L442 6 306-14z"/><path fill="#613613" d="M470 430l-156-16V214z"/></g></svg>