<svg xmlns="http://www.w3.org/2000/svg" width="228" height="278" viewBox="0 0 836 1024"><path fill="#947272" d="M0 0h836v1024H0z"/><path fill="#571927" fill-opacity=".871" d="M564.634 1086l197.478-784.51-454.454 145.36-191.977 631.006z"/><path fill="#fbfffa" fill-opacity=".753" d="M844.061-62l18.953 432.546L561.595 232.85 548.442-40.998z"/><path fill="#eae9e0" fill-opacity=".859" d="M277.076 298.003l-119.04 136.04L-62-49.634 340.16-62z"/><path fill="#fcfc9b" fill-opacity=".647" d="M174.791 682.504l-24.087 126.998L-62 746.842l76.772-399.073z"/><path fill="#ddded6" fill-opacity=".882" d="M668.677 617.944l37.535-125.28L898 450.409v194.584z"/><path fill="#a1394e" fill-opacity=".847" d="M345.873 250.585L77.438 512.746 487.41 623.764l279.455-323.44z"/><path fill="#041112" fill-opacity=".424" d="M579.216 382.817L490.01 100.484l-159.269 16.562L521.73-62z"/><path fill="#002d2e" fill-opacity=".592" d="M182.565 834.685l137.266 47.762 330.317 88.388L118.386 1086z"/><path fill="#0f0000" fill-opacity=".388" d="M293 399.948L-62 723.222l300.907-206.42 161.008 63.694z"/><path fill="#48000d" fill-opacity=".635" d="M307.248 1086l439.078-781.608L898 449.443l-179.626 33.455z"/><path fill="#eac2af" fill-opacity=".631" d="M506.949 97.97L344.99 169.042l124.276 207.973-84.196-29.633z"/><path fill="#68909c" fill-opacity=".569" d="M682.438 648.95l-100.214 406.055 268.898 2.888L898 599.381z"/><path fill="#aac4c3" fill-opacity=".431" d="M465.614 480.128L560.63 619.31l-216.14 3.852 117.24-107.561z"/><path fill="#ff4764" fill-opacity=".4" d="M344.193.765l58.839 464.91-147.59-64.926L293.08-7.635z"/><path fill="#29070d" fill-opacity=".573" d="M546.688 1086l106.188-293.362 42.397-419.47-228.045 374.386z"/><path fill="#868077" fill-opacity=".835" d="M-62 694.349l351.638-216.382-34.06 246.393L80.806 557.902z"/><path fill="#91b073" fill-opacity=".529" d="M102.862 542.77l-133.65-274.522L-56.002-8.041l205.846 328.12z"/><path fill="#eae9e9" fill-opacity=".51" d="M295.845 282.963L151.159-62l-44.705 565.677L213.372 365.86z"/><path fill="#e6154b" fill-opacity=".373" d="M620.195 332.711L527.77 224.995 898 385.773l-110.73 59.462z"/><path fill="#881b2e" fill-opacity=".8" d="M187.358 833.46l466.032 32.367-289.785 44.635-26.678-352.23z"/><path fill="#ff2e62" fill-opacity=".451" d="M256.697 316.49L91.307 500.394l48.27 28.236 246.315-232.506z"/><path fill="#48433b" fill-opacity=".549" d="M615.415 289.192l-85.707 93.55-97.31-35.142 89.606-130.958z"/><path fill="#faff94" fill-opacity=".631" d="M212.39 550.516L-62 731.804l227.377 48.318L106.54 592.58z"/><path fill="#2b050a" fill-opacity=".78" d="M317.812 649.46l-47.187-165.213-111.722 56.573 131.786-120.7z"/><path fill="#4e9293" fill-opacity=".384" d="M205.82 772.377L1.365 823.153-32.015 1086l159.575-19.334z"/><path fill="#bcd5fe" fill-opacity=".435" d="M508.56 365.225l-37.67 23.21-21.631-8.762 133.806-84.74z"/><path fill="#f0f1e5" fill-opacity=".592" d="M57.755 131.822l201.904-70.61L48.738-62-62 298.08z"/><path fill="#b2afaa" fill-opacity=".424" d="M519.683 377.883l38.879-128.519 68.44 18.122L560.165-62z"/><path fill="#2b4b1b" fill-opacity=".396" d="M104.612 393.932L-62 309.852v-36.724l174.174 36.893z"/><path fill="#dfdbc2" fill-opacity=".651" d="M71.575 549.115l-108.537 85.64 3.484-255.729 103.984 8.422z"/><path fill="#f23c5c" fill-opacity=".498" d="M489.806 834.632l110.374-83.493-109.624 105.55-184.843 32.791z"/><path fill="#2e0001" fill-opacity=".514" d="M256.629 818.748l171.808 35.031 244.717-195.035L431.478 758.94z"/><path fill="#58000c" fill-opacity=".373" d="M530.38 529.44l-55.317 58.774 201.969-52.837L373.95 323.33z"/><path fill="#e3b8a3" fill-opacity=".675" d="M371.088 219.341l36.573 58.035 247.007-129.07-112.511 62.425z"/><path fill="#681320" fill-opacity=".867" d="M448.77 568.832L309.159 471.52l-7.312 81.952 142.449 26.925z"/><path fill="#e5f7fa" fill-opacity=".239" d="M417.045 534.697l83.865 74.684 10.562-109.15-59.53-4.598z"/><path fill="#ffcfbc" fill-opacity=".525" d="M510.19 116.974l-142.87 28.361 11.086 44.261 108.172-5.124z"/><path fill="#4e3824" fill-opacity=".424" d="M383.522 216.468L353.231 94.151l-10.768 96.078 225.657 4.078z"/><path fill="#453c3a" fill-opacity=".816" d="M423.118 21.905l-67.95 46.028 68.091 66.614 103.913-80.976z"/><path fill="#c78cae" fill-opacity=".576" d="M565.205 393.706l60.104 65.646-91.457 2.396 57.97-40.775z"/><path fill="#d8a49d" fill-opacity=".573" d="M337.932 62.85L388.652-62 253.464 26.44l35.01 283.792z"/><path fill="#736f6b" fill-opacity=".792" d="M179.682 561.503l-4.347 318.277L295.77 584.396l-133.431-2.24z"/><path fill="#20343a" fill-opacity=".506" d="M630.637 892.665L239.578 912.29l3.107-10.213L522.653 1086z"/><path fill="#77c1fc" fill-opacity=".224" d="M640.451 803.377l38.834-121.97 159.368-21.4L898 704.186z"/><path fill="#2e111d" fill-opacity=".557" d="M141.492 530.027l-77.747-32.261 58.8 52.527 176.474-78.13z"/><path fill="#ff9b45" fill-opacity=".447" d="M83.197 734.333l52.308 78.501L.897 791.365l-14.794-26.08z"/><path fill="#f84667" fill-opacity=".514" d="M276.88 810.263l-99.12-14.731 47.082 16.904 245.48-73.44z"/><path fill="#e33551" fill-opacity=".561" d="M497.962 700.61l91.488-107.296-37.163 66.98-135.27 73.913z"/><path fill="#a29fa2" fill-opacity=".537" d="M506.102 604.547l96.566-20.5-143.929-7.934-148.09-3.317z"/><path fill="#906f57" fill-opacity=".996" d="M126.67 568.9l-140.74 88.515-44.123 54.871L46.62 659.403z"/><path fill="#b4b6af" fill-opacity=".733" d="M663.406 612.584l204.323-5.614L898 640.951l-227.143-2.282z"/><path fill="#5f001f" fill-opacity=".478" d="M575.101 377.37l-127.143 36.522 173.705-138.047-79.768-37.274z"/><path fill="#787e80" fill-opacity=".878" d="M596.068 961.8L855.79 708.453 898 1084.018 525.408 1086z"/><path fill="#6e0c1b" fill-opacity=".49" d="M424.347 838.609L272.333 654.443l93.72-372.813-63.811 131.005z"/><path fill="#e93761" fill-opacity=".573" d="M595.93 330.336l-49.34 37.841 241.462-49.538-111.933-36.675z"/><path fill="#320810" fill-opacity=".953" d="M623.315 827.683l-221.96 74.639 51.241-31.962 174.407-95.33z"/><path fill="#c7c6e3" fill-opacity=".541" d="M375.965 461.366l-28.6-1.26 13.979-40.663 28.231 16.033z"/><path fill="#a7846d" fill-opacity=".933" d="M444.177 371.424L399.39 269.037l87.479 33.607-55.575 34.741z"/><path fill="#30090d" fill-opacity=".506" d="M778.57 356.793l-126.23 38.533-92.302 475.393 176.108-458.42z"/><path fill="#c62e49" fill-opacity=".663" d="M228.526 790.593l16.094-38.372-11.176 5.814 201.04-25.48z"/><path fill="#3e070f" fill-opacity=".796" d="M385.204 686.066l117.518-62.984-47.747 67.138-209.763 31.908z"/><path fill="#eb3452" fill-opacity=".376" d="M373.988 898.659L201.61 815.145l34.653 41.774 229.2-.435z"/><path fill="#c8f073" fill-opacity=".416" d="M178.326 762.044l-11.583 41.59-79.709 3.621 63.129-270.399z"/><path fill="#e6e6e1" fill-opacity=".859" d="M167.537 333.329L6.626-62l267.97 319.312-145.02 223.941z"/><path fill="#ff3860" fill-opacity=".357" d="M449.458 889.726l67.471-4.77 27.9 19.172 70.883-65.027z"/><path fill="#ab5c6c" fill-opacity=".604" d="M593.803 567.876L397.708 676.093l-15.794 5.72 149.176-106.58z"/><path fill="#2c2627" fill-opacity=".478" d="M496.456 25.626l-55.954 1.592 106.335 167.455-1.615-95.911z"/><path fill="#162200" fill-opacity=".388" d="M448.55 341.97l84.32-111.659-40.168 118.574-18.4 17.538z"/><path fill="#a8999d" fill-opacity=".941" d="M514.407 601.566l-171.25-34.445 19.719 24.86 83.113 9.784z"/><path fill="#cae7ff" fill-opacity=".365" d="M487.485 377.578l-51.169 1.2-52.248-80.383 24.234 23.238z"/><path fill="#330b10" fill-opacity=".518" d="M553.941 568.447l117.28 9.886 50.788-147.61L466.515 580.55z"/><path fill="#a1c44c" fill-opacity=".361" d="M111.966 307.066L-62 386.906 64.09 405.84 41.406 97.033z"/><path fill="#3e060e" fill-opacity=".741" d="M374.016 732.02l110.593-33.67-209.718 34.487-50.81 15.41z"/><path fill="#4f0f19" fill-opacity=".671" d="M355.905 603.536l-50.622-102.06 288.696-79.322-323.842 106.403z"/><path fill="#14181c" fill-opacity=".624" d="M220.907 1086l-72.558-99.923 27.202-92.045 255.118 85.881z"/><path fill="#c78b79" fill-opacity=".624" d="M35.594 639.532l-44.87 3.759 87.99-103.887 61.248 18.1z"/><path fill="#8d98a3" fill-opacity=".412" d="M272.386 485.68l-13.2 98.538-112.452 15.536-42.256-11.57z"/><path fill="#ecebe5" fill-opacity=".506" d="M644.06 231.57L651.598-62H884.28l-54.936 421.621z"/><path fill="#dfdcd5" fill-opacity=".722" d="M723.094 480.326L898 468.759l-3.698 168.347-215.838-54.074z"/><path fill="#b5092b" fill-opacity=".278" d="M414.83 343.577l-79.75 52.528-214.765 166.941 197.358-276.611z"/><path fill="#dfb7a3" fill-opacity=".729" d="M361.358 138.626l4.042 44 43.78-1.311-34.09-74.165z"/><path fill="#d93758" fill-opacity=".565" d="M288.54 376.278l165.608 30.079-140.368 89.048 128.05-35.41z"/><path fill="#002027" fill-opacity=".224" d="M368.396 207.673l40.184 107.896-63.204-77.886 9.815-190.076z"/><path fill="#f8ffbb" fill-opacity=".682" d="M28.728 733.579L-62 736.919l87.425-66.092 104.644 27.378z"/><path fill="#fb5963" fill-opacity=".306" d="M349.335 93.63L399.822-62 290.46 95.42l24.886 319.038z"/><path fill="#6958a0" fill-opacity=".192" d="M57.899 485.61l39.226 43.254 62.041-227.774-54.793-28.001z"/><path fill="#8e1f34" fill-opacity=".69" d="M535.6 415.86l-51.76 131.258-5.783-44.716 99.616 27.306z"/><path fill="#711c2c" fill-opacity=".831" d="M400.852 510.909l17.555 106.752-29.251-84.948L521.47 461.78z"/><path fill="#f53055" fill-opacity=".431" d="M520.752 449.196l-7.98 11.618-156.323 65.097-7.646-11.51z"/><path fill="#69343f" d="M581.437 603.744l79.38 2.785-181.943 2.67-201.415-12.065z"/><path fill="#e50536" fill-opacity=".239" d="M583.625 257.196l109.868 148.24-131.991-.452 9.687-130.247z"/><path fill="#40444c" fill-opacity=".882" d="M399.03 991.501l74.574-16.494L459.352 1086h-112.48z"/><path fill="#ff4c74" fill-opacity=".573" d="M80.62 491.366l32.055 23.33 99.756-52.006-26.02-14.27z"/><path fill="#360006" fill-opacity=".514" d="M466.665 618.54L347.2 707.287l100.17-32.218-188.707 2.897z"/><path fill="#e9cabd" fill-opacity=".243" d="M730.95 277.744L430.86 164.025l41.514-82.828 96.75 175.347z"/><path fill="#390f15" fill-opacity=".529" d="M768.436 479.032L898 444.716 670.771 487.41l161.896-63.397z"/><path fill="#fd3756" fill-opacity=".427" d="M530.16 674.162L414.89 738.69l-75.68 25.15 44.996-22.73z"/><path fill="#230001" fill-opacity=".302" d="M242.602 495.676L378.6 468.668l-102.153-36.167L86.433 606.596z"/><path fill="#89b1ba" fill-opacity=".271" d="M583.472 138.442L435.872-62 557.1-31.511l-.983 224.078z"/><path fill="#350911" fill-opacity=".675" d="M671.544 682.99l-42.998 182.222-46.869-103.622-238.216 27.094z"/><path fill="#392304" fill-opacity=".357" d="M500.581 183.74l-19.106 29.44-7.379 4.505-49.446-14.904z"/><path fill="#c99b8a" fill-opacity=".533" d="M77.958 201.69l-117.763 42.726 23.94-75.083 95.735-16.854z"/><path fill="#e62c49" fill-opacity=".361" d="M437.932 692.127l-154.066 31.83 74.518-2.71 130.993-35.603z"/><path fill="#080f14" fill-opacity=".451" d="M505.618 1001.429l7.498 84.571 60.027-90.75 37.418-169.66z"/><path fill="#47464f" fill-opacity=".584" d="M273.899 894.243l151.618 31.365-96.785 11.301-63.82-8.727z"/><path fill="#ff4062" fill-opacity=".369" d="M341.479 679.644l-78.89 30.638 42.347-3.819 102.355-31.291z"/><path fill="#c1e0ff" fill-opacity=".341" d="M444.09 374.964l95.335-31.468 6.235-44.91-59.55 82.13z"/><path fill="#dc636c" fill-opacity=".729" d="M74.874 766.799l6.506 20.62-59.542 16.408L-62 781.287z"/><path fill="#d63455" fill-opacity=".596" d="M396.703 628.863L293.66 653.558l-11.536 2.664-24.895 15.799z"/><path fill="#001613" fill-opacity=".318" d="M326.336 497.195L280.42 612.047l16.2-5.589-36.225-137.262z"/><path fill="#f5b3c0" fill-opacity=".42" d="M-62 539.592V680.31L97.069 534.58 79.523 497.7z"/><path fill="#ed234a" fill-opacity=".153" d="M259.297 831.582l167.542-56.643 39.814 10.047-270.15 94.077z"/><path fill="#213c43" fill-opacity=".282" d="M856.918 695.132l-62.895 85.113-4.745 19.968L898 799.632z"/><path fill="#b32747" fill-opacity=".878" d="M863.392 465.417l-96.73-145.431-69.19 12.49 138.097 26.892z"/><path fill="#e5b09b" fill-opacity=".714" d="M434.872 225.674l-21.15-63.431 59.898 103.045 30.07-51.332z"/><path fill="#211320" fill-opacity=".686" d="M567.493 260.343l-7.032 77.582-11.582-30.476-12.906-.277z"/><path fill="#072d21" fill-opacity=".157" d="M99.015 325.252L-62 386.733V92.87l166.054 350.067z"/><path fill="#9b8f7c" fill-opacity=".475" d="M273.115 639.61l-96.258 7.961-19.602 58.067 93.405-6.112z"/><path fill="#061204" fill-opacity=".153" d="M180.192 599.066l-24.303 31.728 34.835 34.133 70.477-51.006z"/><path fill="#dedbd4" fill-opacity=".498" d="M558.667 245.555L696.192 35.438 676.36 292.894l-57.217-29.773z"/></svg>