<svg xmlns="http://www.w3.org/2000/svg" width="228" height="278" viewBox="0 0 836 1024"><path fill="#7f5a5b" d="M0 0h836v1024H0z"/><g fill-opacity=".502"><path fill="#bbf5ff" d="M346-62L14 818-62 2z"/><path d="M714 370l-72 480-488-36z"/><path fill="#ff5459" d="M58 402l568-36-136 368z"/><path fill="#f10000" d="M226 798l440 188-580 100z"/><path fill="#6daac6" d="M414-62h408l-4 700z"/><path d="M-62 894l140 192 8-356zm332-76l-132-16-12-428z"/><path fill="#d8f8ef" d="M358 614l212 72-384 16z"/><path fill="#641000" d="M502 38L290 10l80 700z"/><path fill="#fdebee" d="M102 450l-160-48 192 568z"/><path d="M766 546L222 822l420 8z"/><path fill="#ff545c" d="M146 402l80 220 380-200z"/><path fill="#d2c7c7" d="M238 582L142-6l160-20z"/><path fill="#2b1e08" d="M674 1006l176-344-436 424z"/><path fill="#26161c" d="M402 706l288-420 208 48z"/><path fill="#d1e2ff" d="M542 174l28 148 184-132z"/><path fill="#fff" d="M530 706l-12-92-52 32z"/><path fill="#59798f" d="M-62 86l264 72-56 348z"/><path d="M102 970L-62 842 86 742z"/><path fill="#ffe3e5" d="M418 490l156-132-64 168z"/><path fill="#000d16" d="M374-34L234 86l248-24z"/><path fill="#ff272d" d="M286 346l-76 252 328-16z"/><path fill="#1b0100" d="M362 430l224-132-300 16z"/><path fill="#080000" d="M626 554l48 100-388-48z"/><path fill="#ff1d1c" d="M578 602l-120-16 136-184z"/><path fill="#ffddc8" d="M498 854l128-40-124 96z"/><path d="M482 882L166 694l472 8zM154 402l-52 228 96 40z"/><path fill="#e42522" d="M530 842l-416-20 140 240z"/><path fill="#d1e7f5" d="M-62 98L534-26-50-62z"/><path fill="#fff" d="M286 614l40 60-88 32z"/><path fill="#e71806" d="M774 610l-136 36 132 60z"/><path fill="#ffaaa6" d="M650 542l32 56 28-108z"/><path fill="#38747c" d="M882 410l-184 96L834 18z"/><path fill="#ffceb5" d="M42 1054l112-172-36 156z"/><path d="M334 582l-140 36 188 4z"/><path fill="#bac1d1" d="M722 450l136 24-72 152z"/><path fill="#001c10" d="M818 554l8 388 72-180z"/><path fill="#fff" d="M526 690l-24-76-56 80z"/><path d="M678 634l60-112 36 80z"/></g></svg>