<svg xmlns="http://www.w3.org/2000/svg" width="228" height="278" viewBox="0 0 836 1024"><path fill="#858180" d="M0 0h836v1024H0z"/><path fill="#0d0e14" fill-opacity=".937" d="M404.454 563.183l-113.54-11.2L403.949 1086h98.425z"/><path fill="#d3ced2" fill-opacity=".824" d="M514.669 211.125l379.96 293.814-242.646 183.47-240.009-342.825z"/><path fill="#5d483f" fill-opacity=".992" d="M482.674 280.434L424.077-62-31.355-10.404 76.017 289.042z"/><path fill="#cfdeff" fill-opacity=".518" d="M655.985 567.059l16.382 249.262L539.457 1086 410.611 591.458z"/><path fill="#f1effc" fill-opacity=".729" d="M83.443 355.551l205.6 133.857 16.58-165.147-85.031-53.2z"/><path fill="#a9bfc4" fill-opacity=".773" d="M315.82 730.274l-368.666-30.413L21.865 1086 374.93 941.616z"/><path fill="#29282d" fill-opacity=".992" d="M471.118 516.454l84.356 70.906 1.951-115.756-476.36 16.794z"/><path fill="#311f06" fill-opacity=".659" d="M767.837 872.58l77.48-274.564-80.997-8.437-111.367 319.646z"/><path fill="#b1c3bf" fill-opacity=".992" d="M765.637 905.762l-205.23 85.073L898 1059.428l-71.325-369.25z"/><path fill="#0b0d14" fill-opacity=".91" d="M234.118 982.933l2.507 60.836 458.653 2.697-349.166-71.09z"/><path fill="#524a41" fill-opacity=".773" d="M817.707 17.345L271.275-62l469.683 225.655L898 381.287z"/><path fill="#473936" fill-opacity=".941" d="M687.309 171.336l-377.3 130.829-21.546 220.482L409.77 220.11z"/><path fill="#dbdade" fill-opacity=".89" d="M406.673 480.624l-1.725-179.111 195.862-39.384 134.138 120.677z"/><path fill="#17181e" fill-opacity=".733" d="M417.573 308.619L289.407 504.473l31.853-176.05 76.655 192.388z"/><path fill="#ffb47c" fill-opacity=".365" d="M663.551 121.33L358.407 271.1l-48.69-142.832 12.995-84.921z"/><path fill="#18181e" fill-opacity=".737" d="M152.71 444.669l188.957 178.234 275.156-97.392-394.93 67.413z"/><path fill="#b7896f" fill-opacity=".749" d="M752.473 672.724l-189.925 154.41L665.13 673.21l72.473-461.908z"/><path fill="#aaa6a8" d="M294.583 754.15L119.63 591.002l184.94-3.926 36.347 307.675z"/><path fill="#342e2e" fill-opacity=".949" d="M139.407 251.502l233.976 70.413L180.743-62h-8.433z"/><path fill="#ffa747" fill-opacity=".569" d="M898 359.274l-169.424 3.517-95.822-61.93 153.226-44.378z"/><path fill="#cfd7ee" fill-opacity=".82" d="M603.537 365.539l287.877 130.924-13.68 123.6-74.592-31.49z"/><path fill="#f9a151" fill-opacity=".651" d="M204.483 619.702l.756 63.09-84.88-56.806 69.681-147.41z"/><path fill="#aeb3c0" fill-opacity=".694" d="M150.584 476.947L35.427 589.755-62 527.914l179.588-116.937z"/><path fill="#f8f8fa" fill-opacity=".592" d="M338.729 345.782l11.857 45.205 56.709-76.244 81.062-48.662z"/><path fill="#fff7cd" fill-opacity=".471" d="M481.73 182.836l-29.474 43.687 53.203-149.482 137.314 79.552z"/><path fill="#cd975b" fill-opacity=".769" d="M-13.352 331.492l111.977 32.11 69.834-76.104L-12.48 275.23z"/><path fill="#051447" fill-opacity=".329" d="M-62 652.762l314.426-158.75-174.522-2.298 72.27 202.478z"/><path fill="#8d8f8f" fill-opacity=".698" d="M480.543 372.631l305.57 216.895-152.41-164.034-173.555 9.433z"/><path fill="#585a6d" fill-opacity=".976" d="M701.203 414.343L898 350.229v200.51L729.437 354.991z"/><path fill="#93a5c3" fill-opacity=".851" d="M518.627 718.913l-90.067-12.596 57.475 291.543 202.611-76.409z"/><path fill="#3d2a24" fill-opacity=".953" d="M687.485 792.574l-.638-53.018 113.927-138.79-4.47 208.928z"/><path fill="#fff5ec" fill-opacity=".733" d="M610.633 718.917l30.155-14.723 43.395-179.06-55.147-74.792z"/><path fill="#ddd06e" fill-opacity=".553" d="M898 746.437l-107.7-97.394 41.725 257.932-96.797-34.093z"/><path fill="#002b97" fill-opacity=".192" d="M251.675 1086l-30.713-274.119-23.224-267.276 138.394 298.343z"/><path fill="#3e322d" fill-opacity=".463" d="M671.2-62l69.705 197.04-265.713 63.743 123.213 75.803z"/><path fill="#aacfc7" fill-opacity=".976" d="M224.916 1086L-57.61 910.154-62 847.575l297.671 92.061z"/><path fill="#19191d" fill-opacity=".933" d="M312.582 588.473l-103.516-38.456 345.005 7.339-18.364 17.928z"/><path fill="#0d1019" fill-opacity=".686" d="M394.952 953.653L526.222 1063l131.131-69.517 34.96 92.518z"/><path fill="#cad2e9" fill-opacity=".529" d="M506.624 794.785l59.76-202.696-150.748-12.236 17.19 154.899z"/><path fill="#ffe791" fill-opacity=".38" d="M721.207 826.574l-28.289-24.392-38.527-171.223-48.862 239.127z"/><path fill="#471d12" fill-opacity=".439" d="M471.442 61.532l-95.03 10.814L485.59 262.707 364.7 328.163z"/><path fill="#e6dfea" fill-opacity=".518" d="M144.98 291.179l41.409 191.678 112.851-7.819 4.033-134.295z"/><path fill="#999fb0" fill-opacity=".659" d="M612.408 939.377L548.272 588.01l38.395-223.773 33.788 52.924z"/><path fill="#aaccf0" fill-opacity=".584" d="M731.829 916.817l-121.655 23.794 272.223 12.816-365.88 79.569z"/><path fill="#242429" fill-opacity=".918" d="M237.995 517.033l37.296-33.992 63.125-32.557-46.795 66.647z"/><path fill="#1e1f26" fill-opacity=".992" d="M-49.348 592.142L-62 668.255l107.831-43.858L-62 538.452z"/><path fill="#3c5797" fill-opacity=".396" d="M134.758 341.02L-62 376.95 45.426 458l111.97-75.228z"/><path fill="#867e6c" fill-opacity=".6" d="M796.723 120.526l-198.561-11.541 34.325 193.192 167.278-32.953z"/><path fill="#f7f8ff" fill-opacity=".522" d="M739.102 372.08L570.358 258.289l-143.274 27.63 14.772 85.113z"/><path fill="#201e21" fill-opacity=".725" d="M376.505 362.532l-3.046-16.831 60.23-31.634-59.707 130.183z"/><path fill="#f7f1ee" fill-opacity=".639" d="M661.166 755.495l-50.5 77.012 29.475 89.174.079 24.548z"/><path fill="#d1d3db" fill-opacity=".839" d="M-48.634 558.463l87.9-49.333L-62 463.338 81.782 585.75z"/><path fill="#716e64" fill-opacity=".667" d="M150.342 166.497L84.497 298.413 43.52 270.202-62 72.76z"/><path fill="#f6bb98" fill-opacity=".216" d="M11.09 700.749l221.417-2.06-237.915 384.324-8.831-413.256z"/><path fill="#00010a" fill-opacity=".341" d="M455.579 856.246L514.329 1086 335.082 856.484l-13.328-189.555z"/><path fill="#d4d3d8" d="M450.83 475.611l88.471-16.048 166.873-94.46-296.347 103.855z"/><path fill="#b37b85" fill-opacity=".561" d="M202.654 459.961l53.086-5.357-17.24-71.85-29.952 16.387z"/><path fill="#c86c33" fill-opacity=".376" d="M759.68 536.325l-41.952 175.573-70.547 71.54 22.799-188.8z"/><path fill="#e3d4ce" fill-opacity=".31" d="M360.215-23.136L272.81 48.746l-4.234 1.868-72.913-75.032z"/><path fill="#9ab0d8" fill-opacity=".694" d="M374.12 898.697l-5.055 49.9-29.844 23.233-110.022-190.726z"/><path fill="#f1ffff" fill-opacity=".165" d="M199.867 413.688L89.013 400.516l150.918-185.897 44.239 2.118z"/><path fill="#77797d" fill-opacity=".906" d="M582.837 457.798l40.306 31.943 5.723-.193 6.392-57.594z"/><path fill="#693c2b" fill-opacity=".816" d="M449.028 280.28l-61.942 34.28-60.602-37.127-63.457-122.713z"/><path fill="#12171a" fill-opacity=".447" d="M164.99 480.021l227.801-4.387-224.677 35.988-53.759-126.743z"/><path fill="#acafb8" fill-opacity=".686" d="M409.306 547.67l-152.082 7.017 70.146-51.457 3.814 15.287z"/><path fill="#121010" fill-opacity=".671" d="M241.974 562.782l-45.056-78.049 4.477 109.833 131.179-25.906z"/><path fill="#3cfc31" fill-opacity=".216" d="M-30.764 1056.164L-62 1033.17 59.623 936.2l90.051 57.232z"/><path fill="#f7f4f6" fill-opacity=".525" d="M337.01 388.08l93.327-90.952-56.346 30.737-6.546 76.55z"/><path fill="#2c2a29" fill-opacity=".557" d="M418.925-62L42.745 21.3l18.14 184L108.64 51.22z"/><path fill="#8f9a6a" fill-opacity=".722" d="M734.324 927.636l45.821-139.886-43.812 48.452 64.398 80.762z"/><path fill="#0e0f15" fill-opacity=".918" d="M448.546 1027.334l258.033-13.069-360.996 36.022L435.6 745.09z"/><path fill="#b7d6ff" fill-opacity=".314" d="M243.9 607.778l64.056-31.309 9.214 221.255-78.31-95.091z"/><path fill="#383a3e" fill-opacity=".631" d="M555.48 51.614L538.581-62 772.458 78.056l-66.12 60.319z"/><path fill="#322100" fill-opacity=".173" d="M534.563 370.41l-95.85 10.045 83.76 120.028-64.222 120.95z"/><path fill="#cad28e" fill-opacity=".796" d="M202.065 780.804l39.067 131.278-46.874-10.45-4.036-52.764z"/><path fill="#04153f" fill-opacity=".255" d="M400.655 836.358l199.107 89.77 3.001 62.46 61.358-16.432z"/><path fill="#e0866f" fill-opacity=".545" d="M476.785 242.768l52.742-35.02 47.205 42.757-20.793 3.177z"/><path fill="#252122" fill-opacity=".863" d="M360.595 450.064l-61.147-124.752 97.601-11.098-98.216-53.969z"/><path fill="#3d2b27" fill-opacity=".973" d="M813.93 591.209L710.899 886.552l96.424-205.1 52.154-57.46z"/><path fill="#010000" fill-opacity=".141" d="M454.202 159.849l294.622 94.644-45.688 46.848-93.32-26.294z"/><path fill="#000505" fill-opacity=".4" d="M788.244 765.943l-82.205-11.831 47.099 149.113-80.417-17.835z"/><path fill="#a88869" fill-opacity=".565" d="M445.98 84.238l144.837 18.739-45.601-45.401-52.613-75.466z"/><path fill="#627285" d="M264.23 731.39l-58.01 11.234 6.785-55.244 166.653 212.804z"/><path fill="#e8ecfa" fill-opacity=".357" d="M351.346 467.64l112.427-109.905-19.167 61.146-119.635 14.317z"/><path fill="#b0cee0" fill-opacity=".678" d="M898 929.376l-267.948 7.559 19.426 35.349L698.02 1086z"/><path fill="#93918d" fill-opacity=".647" d="M138.838 862.89l41.674 75.923 55.953-450.288 10.841 33.422z"/><path fill="#1c1b20" fill-opacity=".957" d="M478.664 571.7l79.19-58.142-.2-45.395-72.977 21.956z"/><path fill="#16151b" fill-opacity=".647" d="M419.621 488.776l-41.678-67.03 3.626 102.23-133.446-43.661z"/><path fill="#012c69" fill-opacity=".176" d="M638.747 916.346l-97.363-238.029 86.695 140.53-97.554 25.593z"/><path fill="#8893a3" fill-opacity=".533" d="M605.483 432.215l165.904 172.319-15.113-99.108-162.566-87.748z"/><path fill="#020b09" fill-opacity=".353" d="M704.085 385.785l50.49-5.608-15.877 29.103-41.621 7.716z"/><path fill="#b5c6eb" fill-opacity=".596" d="M757.176 478.75l-1.537 132.337L898 523.778l-219.75-33.254z"/><path fill="#e2e1e7" fill-opacity=".945" d="M519.067 450.537l24.138-184.71-2.393 209.094-113.971-13.541z"/><path fill="#cdd2de" fill-opacity=".404" d="M399.511 541.657l-24.765-12.845 119.627-11.519-261.133 2.327z"/><path fill="#eaf1fd" fill-opacity=".435" d="M241.965 269.948l-124.75 55.383 185.877 78.274-23.009-71.987z"/><path fill="#eadebe" fill-opacity=".384" d="M474.487 96.52l181.255 32.29L444.44 200.2l31.164 10.489z"/><path fill="#f09b81" fill-opacity=".424" d="M351.196 172.542l34.11-16.714 31.5 6.509-66.464 70.232z"/><path fill="#cfc041" fill-opacity=".29" d="M795.455 922.578l-10.116-75.36-107.135-.99L595.89 684.9z"/><path fill="#5d606b" fill-opacity=".937" d="M190.019 500.486l-151.4 32.077 96.607 25.733-146.54 104.361z"/><path fill="#536783" fill-opacity=".576" d="M235.277 930.484l123.092 58.23-64.815-28.515-60.923 54.284z"/><path fill="#101a2f" fill-opacity=".443" d="M345.29 974.89l251.464 10.762-47.45 6.826-205.343-14.786z"/><path fill="#fbae5a" fill-opacity=".42" d="M203.84 579.722l-24.524-107.558-19.935 155.52 40.184 97.094z"/><path fill="#bfdaf6" fill-opacity=".494" d="M234.094 1018.447l-113.3-79.384 118.808-31.892-12.71 96.835z"/><path fill="#000e1d" fill-opacity=".475" d="M467.206 288.855l-26.772-24.127-3.991-46.004 54.274 40.99z"/><path fill="#94553d" fill-opacity=".588" d="M273.868 190.937L380.432 45.264l88.833 136.313-1.132-51.641z"/><path fill="#17161b" fill-opacity=".706" d="M402.065 367.258l4.545 104.64-46.075-59.154-58.595 29.234z"/><path fill="#fff" fill-opacity=".165" d="M662.785 702.548l24.66-134.19-36.547-16.584-199.475 44.991z"/><path fill="#9aa3b0" fill-opacity=".69" d="M107.12 435.83l28.454 96.299-56.439-127.251 82.234-116.91z"/><path fill="#002707" fill-opacity=".173" d="M650.218 896.508l-69.833 111.515 96.097-104.402 4.677-116.928z"/><path fill="#aeb9c8" fill-opacity=".557" d="M320.094 327.182l35.399 34.583-7.66-28.841-137.37-61.495z"/><path fill="#7ecccb" fill-opacity=".592" d="M275.623 1021.899l-15.31 28.61-140.64-107.71-90.057 107.317z"/><path fill="#ebeaf5" fill-opacity=".498" d="M529.065 222.747L420.076 457.32l-17.604-62.856L416.13 351.2z"/><path fill="#d8ddee" fill-opacity=".553" d="M713.863 357.211l42.974 33.413-32.973 71.175 123.445 25.59z"/><path fill="#7f7364" fill-opacity=".529" d="M650.594-62L898 155.027l-316.77 27.231L898 48.534z"/><path fill="#d7c976" fill-opacity=".545" d="M898 613.151l-129.923 275.03 35.55-114.144-1.178-76.39z"/><path fill="#2a2b31" fill-opacity=".569" d="M440.236 497.806l-3.285 80.85-64.432-84.474 50.31 83.45z"/><path fill="#e39989" fill-opacity=".647" d="M607.344 704.868L661.7 691.53l-3.395 91.505-47.002-22.912z"/><path fill="#201200" fill-opacity=".318" d="M794.624 277.76l30.725 12.706-23.86-115.544L898 245.194z"/><path fill="#91aef1" fill-opacity=".325" d="M322.825 940.03L213.948 807.574l60.707 158.167 114.716 5.56z"/><path fill="#485d77" fill-opacity=".373" d="M288.699 818.447l-73.148-119.694 64.548 213.812-88.415-216.679z"/></svg>