<svg xmlns="http://www.w3.org/2000/svg" width="228" height="278" viewBox="0 0 836 1024"><path fill="#60676a" d="M0 0h836v1024H0z"/><g fill-opacity=".502"><path fill="#fff" d="M-10 182l-52 208 616-168zm0 904l-52-548 256 444z"/><path fill="#0f150c" d="M898 630l-576 456 160-876z"/><path fill="#fff" d="M750 214l-216 76 364 236z"/><path fill="#000700" d="M58 850L2 450l280-112z"/><path fill="#fcffff" d="M566 1086l332-140-348-28z"/><path fill="#e9f0f6" d="M278 1074l-20-652-80 320z"/><path fill="#000e00" d="M374 314l-88 508-48-504z"/><path fill="#000b37" d="M678 242L810-62 358 22z"/><path fill="#e1a78a" d="M322 738l64-616 144 88z"/><path fill="#0b1013" d="M474 858l136-360 288 380z"/><path fill="#a8b4be" d="M498 418l-20 212 196-148z"/><path fill="#fff" d="M18 1086l112-104-192-392z"/><path fill="#f9faf5" d="M418 294L90 170-62 342z"/><path fill="#f8faff" d="M286 390l-48 304-24-220z"/><path d="M238 754l28-124 24 228z"/><path fill="#fff" d="M234 734l-16 312 96 40z"/><path fill="#113888" d="M578-62L-62-2l80 212z"/><path fill="#c3c5d8" d="M290 826l84 212-28-428z"/><path fill="#000403" d="M686 374l-240-52 380 236z"/><path d="M346 954l-88-172 60 304z"/><path fill="#35403d" d="M214 982l16-300-128-52z"/><path fill="#2e1705" d="M410 382l48 152 164-412z"/><path fill="#bac6e3" d="M854 862l-368 224h412z"/><path fill="#f09766" d="M898 574l-80 184-76-104z"/><path fill="#020007" d="M-38 134l296-16-36 72z"/><path fill="#2d5398" d="M882-62l-396 8 412 448z"/><path fill="#b06438" d="M426 422l164-292-204-68z"/><path fill="#3a866b" d="M226 474L-46 362l280-64z"/><path fill="#fff" d="M2 506l-64 444 140 136z"/><path d="M438 1086l-88-148 84-304z"/><path fill="#acaeae" d="M214 790l-88 180 60-384z"/><path fill="#c8ccd5" d="M550 206l348 132-108 160z"/><path fill="#180f0e" d="M422-62l292 248-156 48z"/><path fill="#001907" d="M630 566l-12-216-92 192z"/><path fill="#fff" d="M630 558l36-84-40-28z"/><path fill="#c1dbfb" d="M426 442l-84 188 20-280z"/><path fill="#6b7484" d="M474 686l-48 264 80 100z"/><path fill="#192a20" d="M126 1022v-92l60 12z"/><path fill="#090c14" d="M198 498l-68 304L18 434z"/></g></svg>