<svg xmlns="http://www.w3.org/2000/svg" width="228" height="278" viewBox="0 0 836 1024"><path fill="#a17e85" d="M0 0h836v1024H0z"/><path fill="#7e292e" fill-opacity=".58" d="M266.327 360.77l493.125 55.478 17.557-290.428-426.752-33.48z"/><path fill="#7bc8ff" fill-opacity=".459" d="M453.028 242.862l329.519 771.732-626.59 46.697 199.102-41.7z"/><path fill="#134082" fill-opacity=".827" d="M618.797 956.888l-102-316.861-69.098 15.789L580.78 1086z"/><path fill="#ffece6" fill-opacity=".58" d="M122.887 430.111L106.28 825.053-62 332.083l361.329-14.42z"/><path fill="#323e62" fill-opacity=".957" d="M705.451 816.84L507.138 359.231 352.28 209.871l232.47 100.72z"/><path fill="#c8d1dc" fill-opacity=".945" d="M402.27 430.177L543.056 1086 345.309 582.195l11.446-185.432z"/><path fill="#5d0000" fill-opacity=".349" d="M202.112 448.633L-62 1001.386l79.5 56.191 202.519-231.371z"/><path fill="#da5652" fill-opacity=".835" d="M820.603 651.979l-7.053 169.074L580.726 159.63l202.669 9.05z"/><path fill="#cb1100" fill-opacity=".439" d="M-62 127.177L43.278 360.083l219.94-100.82 1.984-145.319z"/><path fill="#042e10" fill-opacity=".384" d="M898 140.52l-464.546-37.082-66.268-93.252-377.514 151.245z"/><path fill="#edf8fe" fill-opacity=".639" d="M217.04 710.95l-5.736-134.065 11.255-108.001 99.813-147.078z"/><path fill="#feeae0" fill-opacity=".471" d="M474.69 289.257l150.312 710.082 157.795 30.026L666.38 784.072z"/><path fill="#ffeade" fill-opacity=".365" d="M501.606 110.61L241.356-62h614.92l24.384 163.609z"/><path fill="#ebfcf4" fill-opacity=".498" d="M843.24 941.507L898 421.188 796.397 71.66l-12.94 194.092z"/><path fill="#033d90" fill-opacity=".592" d="M413.942 878.958L380.456 1086l96.396-117.38L348.92 562.088z"/><path fill="#c1c7c2" fill-opacity=".733" d="M274.162-22.263L198.807 118.07l-179.533-9.446L28.103-62z"/><path fill="#832e29" fill-opacity=".494" d="M367.169 736.83l21.094 77.615L315.709 1086l-193.796-89.026z"/><path fill="#00336b" fill-opacity=".482" d="M471.167 492.937l-59.907-84.903-167.699-51.252L501.82 267.99z"/><path fill="#e2b59b" fill-opacity=".843" d="M738.317 562.317l-111.005 5.262 58.239 105.1L749.374 1086z"/><path fill="#dc514c" fill-opacity=".765" d="M105.471 432.66l48.328-65.827 71.15 69.78-27.235 280.747z"/><path fill="#904b4b" fill-opacity=".91" d="M785.141 1086l-28.33-163.499-6.582-203.97L898 886.532z"/><path fill="#d65654" fill-opacity=".976" d="M400.088 172.179l57.927 85.562 308.173 103.884-197.883-210.903z"/><path fill="#1d305d" fill-opacity=".765" d="M622.63 569.346l122.852-33.437-48.823-62.125-97.235 47.754z"/><path fill="#01170e" fill-opacity=".341" d="M186.968 618.501l-14.847 309.94L53.413 510.21 38.047 692.426z"/><path fill="#215187" fill-opacity=".631" d="M257.224 668.672l91.873-450.247L349 564.91l-105.117 11.775z"/><path fill="#f7fafb" fill-opacity=".494" d="M-49.894 675.712l74.114-9.89 139.747-395.658L57.69 382.715z"/><path fill="#e3e4ea" fill-opacity=".733" d="M88.67 317.64l202.606 139.357 20.025 123.339-89.13-265.922z"/><path fill="#f4f6f9" fill-opacity=".545" d="M471.032 535.897l65.41 160.113-18.168-328.59-27.434-16.86z"/><path fill="#fcf0d8" fill-opacity=".498" d="M274.603 779.111L124.765 944.943l120.862-35.508-37.462-426.913z"/><path fill="#d76b5e" fill-opacity=".612" d="M350.496 89.96l15.76 130.693-91.635 109.893L-62 293.312z"/><path fill="#dcfefb" fill-opacity=".38" d="M128.277 514.316l-39.695-99.732L71.864 796.69l52.241 36.696z"/><path fill="#ace6fb" fill-opacity=".639" d="M601.758 415.038l38.834-25.786 69.206 95.06-76.513-4.713z"/><path fill="#d8deec" fill-opacity=".839" d="M490.408 775.467L474.9 801.702l-17.54 208.978 84.82 14.492z"/><path fill="#3c3b3c" fill-opacity=".941" d="M222.427 816.53l-32.418 39.962L30.676 877.2-62 816.49z"/><path fill="#b8b1a3" fill-opacity=".639" d="M313.518 556.018l-147.175 487.36 206.743-393.633 415.485-56.897z"/><path fill="#000707" fill-opacity=".459" d="M432.927 130.18l122.614-13.172L898 108.604l-199.172 49.623z"/><path fill="#242221" fill-opacity=".792" d="M-13.37 121.51L-62 154.745l292.874-3.008 57.398-26.043z"/><path fill="#f3f5ff" fill-opacity=".639" d="M402.126 949.875l-32.676 62.502-.866-58.98L393.14 743.94z"/><path fill="#243b72" fill-opacity=".898" d="M659.178 375.63l-118.3 84.134-57.036-182.737 89.8 20.256z"/><path fill="#4b6eaa" fill-opacity=".592" d="M482.621 600.834l-32.579-354.989-49.27 322.046-59.454 39.177z"/><path fill="#0a0f22" fill-opacity=".529" d="M690.852 676.586l5.892 200.27L679.143 775.7l-58.218-170.6z"/><path fill="#1f1c0a" fill-opacity=".424" d="M428.948 394.126l-218.32-66.467 162.882-5.888L405.766 8.897z"/><path fill="#265db5" fill-opacity=".839" d="M294.663 1006.684l214.6 12 102.595-20.456L835.71 1086z"/><path fill="#0c1418" fill-opacity=".51" d="M183.586 682.342L161.092 787.99l-60.186-96.902 73.354-114.673z"/><path fill="#293537" fill-opacity=".71" d="M384.42 820.442l-5.82 45.02-120.934 10.46 48.059-69.735z"/><path fill="#d85e51" fill-opacity=".706" d="M81.055 617.46l12.353-10.055-27.572-126.58-16.87 137.101z"/><path fill="#244e8b" fill-opacity=".906" d="M597.117 827.822l-56.532 248.692-6.158-252.698-9.637-147.406z"/><path fill="#cec5c6" d="M34.216 774.078l-17.4-90.483 57.633 19.286 62.625-185.949z"/><path fill="#5e4437" fill-opacity=".878" d="M332.944 215.094L403.193 34.25l-16.874 137.71-182.23 48.543z"/><path fill="#da665c" fill-opacity=".745" d="M188.288 757.145l13.42-143.855 47.14 186.545-87.6 23.366z"/><path fill="#cdd6dd" fill-opacity=".984" d="M477.674 579.077l56.875-13.041-211.172-6.921 24.389 21.676z"/><path fill="#d84937" fill-opacity=".62" d="M-30.198 366.302L-62 881.018l72.606-385.56 21.693-64.547z"/><path fill="#b1545a" fill-opacity=".988" d="M123.12 927.875l69.537-52.982L-62 876.596 44.821 1086z"/><path fill="#e7ebf6" fill-opacity=".702" d="M358.407 558.486l-9.575-117.517 62.592-60.35-13.535 161.093z"/><path fill="#2e0804" fill-opacity=".478" d="M307.42 556.957L255.814 430.21l31.765 86.28-50.116 104.309z"/><path fill="#2e3734" fill-opacity=".624" d="M777.937 626.061l-20.353 264.3L898 827.617l-129.167-23.112z"/><path fill="#ddb6a5" fill-opacity=".953" d="M716.487 736.948l-7.827 42.7-28.774 250.475 92.122 1.33z"/><path fill="#dee5f1" fill-opacity=".847" d="M297.79 519.346l3.058-111.332 8.515-57.865-55.04 66.136z"/><path fill="#192b5c" fill-opacity=".863" d="M260.466 467.413l-9.525-61.742 75.32-80.705-71.217 28.639z"/><path fill="#d0d5e1" fill-opacity=".647" d="M630.51 692.775l63.273 90.045-94.555 56.518-85.637-212.857z"/><path fill="#aaaba9" fill-opacity=".675" d="M395.127-62L425.7 122.586l-5.39-2.81 299.764-16.359z"/><path fill="#d95352" fill-opacity=".871" d="M259.39 342.76l50.594-23.724-103.15-158.966L-62 178.387z"/><path fill="#d1f6be" fill-opacity=".251" d="M256.607 251.928l109.418 19.293-150.34-127.294L370.51 92.58z"/><path fill="#1960c6" fill-opacity=".722" d="M416.674 998.756l156.99 58.455-269.707 20.412 44.412-89.61z"/><path fill="#eefdff" fill-opacity=".482" d="M239.162 398.579l-53.055-109.14L62.53 437.349-62 348.538z"/><path fill="#1f1703" fill-opacity=".467" d="M195.705 926.815l3.618 71.303 8.622 5.918-77.62-40.977z"/><path fill="#8e9aaf" fill-opacity=".651" d="M631.916 591.291l-5.976 64.68-115.927 3.746 61.019-160.969z"/><path fill="#021f0d" fill-opacity=".294" d="M53.067 666.2L64.77 924.894 82.808 696.19l120.694.57z"/><path fill="#eba0a2" fill-opacity=".98" d="M700.658 99.461l-2.365-112.775 113.356-18.904L898 106.945z"/><path fill="#5b625c" fill-opacity=".635" d="M39.168-62L70.46 123.551 81.7-56.954-62 122.29z"/><path fill="#203463" fill-opacity=".941" d="M540.532 458.821l29.8 48.226 88.054 14.947-68.214-122.881z"/><path fill="#040000" fill-opacity=".235" d="M713.51 849.751l-131.574-26.855-105.993 8.116 219.059-31.199z"/><path fill="#dfe9e9" fill-opacity=".675" d="M497.321 647.049l85.838-67.898-130.777 50.15-54.952 20.213z"/><path fill="#c0505b" fill-opacity=".639" d="M263.63 885.418l121.188-18.586L314.634 1086H153.368z"/><path fill="#fcc8b2" fill-opacity=".553" d="M165.434 894.865L80.607 1086l12.688-85.688 21.371-62.666z"/><path fill="#b87d5e" fill-opacity=".671" d="M427.103 289.278l40.686-20.023-10.41 26.11-34.106 80.859z"/><path fill="#063576" fill-opacity=".561" d="M474.629 526.351l6.655 34.026-68.103-3.576-4.115-22.448z"/><path fill="#deb4a4" fill-opacity=".678" d="M276.595 633.082l-.93-49.026 36.808 4.389 80.724 170.773z"/><path fill="#e6e7ea" fill-opacity=".788" d="M145.892 333.674l107.977 10.644-20.382 303.343-2.524-239.954z"/><path fill="#f2ffff" fill-opacity=".4" d="M118.545 733.673L87.554 710l-10.34 121.718 33.793-16.382z"/><path fill="#fffcff" fill-opacity=".365" d="M345.926 1041.745l93.678-252.373 88.192 64.554-141.4-29.797z"/><path fill="#1a4079" fill-opacity=".663" d="M537.868 741.542l.274 111.013-75.777-122.977-19.39-77.143z"/><path fill="#ff351c" fill-opacity=".424" d="M-26.457 839.895L-37.48 547.257l71.655 229.492 17.56-3.64z"/><path fill="#043783" fill-opacity=".329" d="M321.607 622.523l-72.31-203.101 126.836 296.22 10.222-57.242z"/><path fill="#fbfef3" fill-opacity=".427" d="M76.576 78.234l36.152 47.648L132.972 46 106.594-58.54z"/><path fill="#355e9f" fill-opacity=".98" d="M308.978 557.99l42.73-19.367-17.02-216.107-32.082 72.602z"/><path fill="#f2ffff" fill-opacity=".271" d="M627.341 1031.819l-47.94-277.547 134.786 126.563 28.057-106.25z"/><path fill="#071836" fill-opacity=".286" d="M690.917 913.968l10.467 42.92-112.588-5.683 98.452-19.081z"/><path fill="#db5551" fill-opacity=".596" d="M242.13 424.149l-92.042 183.118-52.054-188.655 100.982-31.875z"/><path fill="#e0e6f4" fill-opacity=".337" d="M524.905 474.897l-176.152 13.827 3.772-138.01 74.04 183.073z"/><path fill="#364436" fill-opacity=".282" d="M656.753 61.472l11.644-93.582 22.517 41.263 3.748 141.63z"/><path fill="#d4cecc" fill-opacity=".62" d="M831.325 274.148l-37.907 137.805-9.769-255.666 29.92-78.775z"/><path fill="#dfe3ea" fill-opacity=".698" d="M668.104 454.298l5.891 31.33-22.178 14.737-57.672-94.415z"/><path fill="#d95451" fill-opacity=".706" d="M583.936 300.865L669.26 157.08l100.905 1.121 41.847 371.585z"/><path fill="#d95552" fill-opacity=".851" d="M-19.924 294.914l87.457 66.108 180.444-159.378-299.864-42.66z"/><path fill="#2d64b7" fill-opacity=".612" d="M413.667 483.211l-8.333-102.915 84.92-47.873-17.708 140.808z"/><path fill="#3c2c27" fill-opacity=".784" d="M407.561 201.907l96.691 104.574-42.562-47.659-120.393 132.92z"/><path fill="#01317f" fill-opacity=".373" d="M394.235 953.031l71.134 101.575-96.998-370.9 109.583 263.196z"/><path fill="#d5dadc" fill-opacity=".596" d="M821.49 766.165l-6.81-78.923 1.453-338.051L898 983.74z"/><path fill="#b75359" fill-opacity=".773" d="M768.177 999.395l54.951 83.197 68.165-198.383-130.028-12.96z"/><path fill="#d6d6d9" fill-opacity=".592" d="M54.052 768.778l-55.93-238.115 52.33 281.187-35.985-1.389z"/><path fill="#d1c3c9" fill-opacity=".549" d="M380.471 734.03l5.775 50.18-30.922 26.097-15.567-5.554z"/><path fill="#6b5149" fill-opacity=".996" d="M290.072 293.165l68.236 46.442-38.068-84.287-29.732 6.952z"/><path fill="#e9ebf0" fill-opacity=".62" d="M129.401 591.32l7.213-33.267-81.172-202.348-103.535-74.722z"/><path fill="#58552e" fill-opacity=".278" d="M778.614 648.77l-67.587-148.65 31.808 229.387 30.002 79.74z"/><path fill="#ddbba2" fill-opacity=".643" d="M343.905 765.758l-33.82-65.936-161.945 255.87 203.307-376.63z"/><path fill="#e8f2fb" fill-opacity=".518" d="M218.403 719.529l43.116-260.667-41.673 81.33 40.662 226.155z"/><path fill="#233a70" fill-opacity=".933" d="M576.19 413.437l-119.848-97.422 86.427-31.066L665.05 396.832z"/><path fill="#dcdfea" fill-opacity=".678" d="M486.198 1030.51l22.888-194.171-48.96-116.432-55.58-68.137z"/><path fill="#593401" fill-opacity=".306" d="M277.096 708.257l-13.287 57.727-18.74-145.712 13.59-52.451z"/><path fill="#d5fdff" fill-opacity=".376" d="M623.338 81.846L637.11-41.508l26.832 79.561-5.713 78.087z"/><path fill="#000937" fill-opacity=".255" d="M625.283 880.074l93.628-72.924-27.59 15.496-3.05-23.403z"/><path fill="#c0b28d" fill-opacity=".42" d="M369.326 185.659l-35.76 151.815 35.428-34.78-78.411-65.33z"/><path fill="#12192f" fill-opacity=".765" d="M666.204 742.684l29.11-25.256-77.71-147.305 14.697 52.677z"/><path fill="#215ab0" fill-opacity=".796" d="M633.41 1086l54.771-83.765-90.689 10.165-335.231 62.368z"/><path fill="#e4e5f2" fill-opacity=".639" d="M418.14 893.897l-13.6-17.272 8.088-56.999-71.335 186.485z"/><path fill="#3e3529" fill-opacity=".616" d="M370.612 725.77l1.559-1.362L215.7 936.064 360.279 764.24z"/><path fill="#bfa594" fill-opacity=".604" d="M407.654 208.559l11.105 1.679 26.183-30.65-17.341-25.996z"/><path fill="#dfac93" fill-opacity=".62" d="M706.936 540.482l51.455 100.545-101.426.52-27.884-51.302z"/><path fill="#e0b49a" fill-opacity=".506" d="M742.751 1086l15.43-312.989-56.667-207.39-12.681 201.991z"/></svg>