<svg xmlns="http://www.w3.org/2000/svg" width="228" height="278" viewBox="0 0 836 1024"><path fill="#848080" d="M0 0h836v1024H0z"/><path fill="#121319" fill-opacity=".8" d="M416.445 1024.765L239.812 143.791l278.943 706.44L501.78 1086z"/><path fill="#e2e7f7" fill-opacity=".812" d="M760.269 565.218l-361.196-53.002L508.82 268.569l179.765 117.94z"/><path fill="#dee3f9" fill-opacity=".827" d="M364.853 726.792l-85.667-44.351-60.984 171.846 164.647 131.759z"/><path fill="#2b2121" fill-opacity=".918" d="M331.953 260.023l-33.437 41.252-1.477 333.486L502.17 287.74z"/><path fill="#dcdefd" fill-opacity=".612" d="M502.27 683.454L520.03 1086l131.087-75.957 37.26-284.027z"/><path fill="#f2e4fc" fill-opacity=".616" d="M295.978 555.143l-13.374-243.976-125.492 73.048-33.757 212.712z"/><path fill="#454346" d="M235.617 560.038l-109.352 132.99 482.224-19.88-2.725-92.694z"/><path fill="#10121b" fill-opacity=".788" d="M231.93 861.611l121.23 108.07 202.053 71.611L181.318 1086z"/><path fill="#0a0000" fill-opacity=".51" d="M321.235 17.619l108.936-2.971 50.91 89.321-242.847 6.248z"/><path fill="#b2b7c9" fill-opacity=".996" d="M756.8 546.346l-80.17-126.967-96.4 145.523 51.021 82.878z"/><path fill="#a03401" fill-opacity=".353" d="M714.877 1086L632.75 639.97l105.869-68.392 72.397 177.257z"/><path fill="#06060b" fill-opacity=".906" d="M479.023 676.522l35.446-90.395 58.842-33.797 39.257 99.995z"/><path fill="#17171c" fill-opacity=".91" d="M281.584 592.961l304.408-25.146-187.733 55.613 37.692-348.324z"/><path fill="#afb2b9" d="M487.208 458.267l-74.591 56.545 5.194 58.193 143.08-4.656z"/><path fill="#efffff" fill-opacity=".227" d="M38.31 603.041l392.693-8.73 71.7 66.819-238.27-5.456z"/><path fill="#090a10" fill-opacity=".682" d="M514.389 851.069l-110.62-218.524-28.446 329.748L501.99 1086z"/><path fill="#dab1ad" fill-opacity=".796" d="M56.451 778.246L-62 924.48l132.55-80.213 202.94-510.575z"/><path fill="#a57560" fill-opacity=".8" d="M296.32 92.646l-52.496 79.474 18.374 143.024 283.44-155.028z"/><path fill="#a8a9bb" d="M449.869 692.359l45.716 102.883 209.08-54.403-123.271-76.834z"/><path fill="#fff" fill-opacity=".514" d="M618.995 350.735l65.308 68.102-285.566 73.072L507.749 265.25z"/><path fill="#0a070b" fill-opacity=".463" d="M709.09 453.945l-25.065-16.686-35.561 9.911-5.567 49.397z"/><path fill="#282c33" fill-opacity=".882" d="M586.134 648.761l76.357-22.012 97.921-68.535-115.04 107.977z"/><path fill="#6d6b61" fill-opacity=".765" d="M282.171 679.987L150.38 800.181 88.78-47.121 36.17 582.494z"/><path fill="#e7ecff" fill-opacity=".471" d="M388.507 807.482l-15.149 188.42-137-177.861-7.235-85.643z"/><path fill="#661c00" fill-opacity=".267" d="M-29.434 933.919l361.341-368.913-183.675 95.565L93.764 1086z"/><path fill="#ee4a62" fill-opacity=".557" d="M180.514 477.397l-4.878-16.109 26.52-48.533 95.807 26.325z"/><path fill="#462412" fill-opacity=".627" d="M438.491 178.845l-134.093-4.337-4.95 30.533 125.387-.457z"/><path fill="#25303a" fill-opacity=".525" d="M253.372 490.54l-21.638 98.63 52.82 93.344-73.784-198.076z"/><path fill="#e6f8ca" fill-opacity=".165" d="M898 786.873l-172.266-5.626 93.425-811.63L898 693.573z"/><path fill="#f5f9ff" fill-opacity=".741" d="M273.206 324.797l-108.412 62.005-24.677 64.894 142.227-73.684z"/><path fill="#1d1e23" fill-opacity=".929" d="M355.008 652.178l8.866-59.357-39.33 40.54L435.31 956.836z"/><path fill="#c0785a" fill-opacity=".773" d="M674.663 1086h-78.338l101.704-244.323 50.074-7.224z"/><path fill="#9e9b95" fill-opacity=".878" d="M898-15.833L520.28-62 471.503 68.968 898 68.214z"/><path fill="#ff5e65" fill-opacity=".686" d="M165.226 1006.825l91.465 78.63-311.516-74.127 121.579-7.916z"/><path fill="#614338" fill-opacity=".604" d="M495.422 285.29l-37.388-60.227-178 62.84-5.43 91.967z"/><path fill="#7e6f67" fill-opacity=".576" d="M179.569 1008.519l88.814-190.721-208.156-34.15 186.414-57.064z"/><path fill="#8a988e" fill-opacity=".82" d="M691.793 134.295l26.638 308.59L458.327 164.85l133.065-64.8z"/><path fill="#dae4fe" fill-opacity=".659" d="M405.946 573.805l16.157-154.966 17.098-20.274 22.05 166.91z"/><path fill="#526180" fill-opacity=".988" d="M860.166 1043.668L710.94 1031.97l26.867-58.865 153.67-2.317z"/><path fill="#d1947d" fill-opacity=".773" d="M287.39 128.546l-8.493 44.59 178.198-.255-16.477-74.13z"/><path fill="#122930" fill-opacity=".392" d="M788.636 846.362L552.41 752.144l107.176 45.74 143.21-14.986z"/><path fill="#cdd3ee" fill-opacity=".49" d="M614.13 1060.56L504.875 1086l8.535-146.607 188.003-192.717z"/><path fill="#4d4209" fill-opacity=".263" d="M500.935 571.281l13.605-94.347-65.875-11.487 18.203 87.835z"/><path fill="#e3e9fb" fill-opacity=".725" d="M759.638 556.61l-13.45-30.857-111.222 82.579-.054 25.217z"/><path fill="#1b1c21" fill-opacity=".867" d="M266.696 560.36l187.926 17.569-253.974 16.056-30.106-4.47z"/><path fill="#bdc3d8" fill-opacity=".894" d="M272.057 558.538L123.72 598.31l64.748 43.055-46.845-200.899z"/><path fill="#a7a79c" fill-opacity=".553" d="M440.154-25.055L-62-62V73.949l293.265-18.723z"/><path fill="#636e66" fill-opacity=".835" d="M116.294 55.148L60.602 120.79l-.983 647.391 48.147-94.891z"/><path fill="#6e6a60" fill-opacity=".8" d="M267.153 73.177l-59.955-6.141 20.204 291.847 60.662-226.93z"/><path fill="#818994" fill-opacity=".996" d="M848.322 445.923L676.874 576.522l-16.897-17.355-3.324-10.23z"/><path fill="#ab7768" fill-opacity=".569" d="M99.344 719.875l53.408 124.605 75.954-222.898 59.825 86.313z"/><path fill="#101119" fill-opacity=".627" d="M360.728 430.778l103.907-63.733 36.8-77.294-172.432 123.86z"/><path fill="#101015" fill-opacity=".894" d="M488.156 935.631l-156.33-249.696-58.087-27.068 155.926 7.708z"/><path fill="#fdffff" fill-opacity=".322" d="M304.168 647.164l-2.745-35.867 23.507 51.734 12.904-102.156z"/><path fill="#eaedff" fill-opacity=".541" d="M505.84 482.416l154.22-120.543L623.472 550.5l136.103-51.64z"/><path fill="#f9fdff" fill-opacity=".373" d="M346.353 639.866l26.592 32.415 3.402-99.946-20.96 68.131z"/><path fill="#79787e" fill-opacity=".71" d="M562.657 655.562l155.73 155.32-127.72-75.437 81.765-77.13z"/><path fill="#c3c7dd" fill-opacity=".714" d="M529.978 865.46l-86.952-183.332 136.511 93.922-.03 114.436z"/><path fill="#090909" fill-opacity=".4" d="M475.748 46.933L434.641 40.6l-96.658 46.028 6.822 44.937z"/><path fill="#191a1f" fill-opacity=".839" d="M368.35 542.117l12.823 137.32 8.744-88.87 96.782 22.634z"/><path fill="#0f0d05" fill-opacity=".239" d="M539.021 878.77l-213.213-31.872 280.16 67.94 45.412-12.672z"/><path fill="#dfe8fe" fill-opacity=".553" d="M269.011 322.155l33.744 132.908-56.797 73.485 22.172-60.858z"/><path fill="#01030b" fill-opacity=".384" d="M591.087 679.827L755.79 561.398l11.372 4.264-14.088 36.602z"/><path fill="#ffa079" fill-opacity=".306" d="M408.558 297.457l62.898-114.723-155.304 99.022 45.922-115.64z"/><path fill="#050b1a" fill-opacity=".596" d="M147.994 648.3l-9.811-28.033 79.804 30.537-20.37 2.906z"/><path fill="#1d1d24" fill-opacity=".839" d="M450.358 1086l11.044-149.451-213.23 103.206 49.236-129.84z"/><path fill="#909890" fill-opacity=".733" d="M192.883 83.306l-49.02 55.036-29.555 309.653 98.966-111.458z"/><path fill="#101114" fill-opacity=".984" d="M461.739 661.013l-7.485-77.204 18.31-8.817-5.84 100.577z"/><path fill="#858586" fill-opacity=".973" d="M108.051 494.681l165.434 212.17-136.547-158.086-13.156 134.738z"/><path fill="#fafffe" fill-opacity=".212" d="M514.224 600.089L357.25 643.282l9.084-7.534 69.855 30.747z"/><path fill="#ffac90" fill-opacity=".392" d="M33.583 863.597l41.085 70.141-93.518-62.515 211.042-258.507z"/><path fill="#12151e" fill-opacity=".808" d="M608.234 648.866l-265.252 29.32 98.061 5.934 51.898.614z"/><path fill="#16181e" fill-opacity=".8" d="M426.386 363.783l27.21-50.293-44.666 171.23-171.143 156.065z"/><path fill="#c7cce4" fill-opacity=".745" d="M386.098 809.04L260.666 678.627l73.327 14.256 35.908 159.97z"/><path fill="#ff6a3d" fill-opacity=".212" d="M698.512 774.27l124.846 14.228-53.15-194.795-97.609 70.037z"/><path fill="#622a08" fill-opacity=".463" d="M85.923 956.891l-66.636-74.87-49.085 122.924L-62 920.08z"/><path fill="#1c1a1c" fill-opacity=".353" d="M152.269 814.4l-64.347 29.934.44-42.913 4.06-43.018z"/><path fill="#6f6a64" fill-opacity=".698" d="M183.818 373.904l100.327-147.703 67.543 181.248-58.136-98.863z"/><path fill="#e7f9fd" fill-opacity=".271" d="M299.547 677.147l-21.322-48.451L288.6 608.73l-46.837-29.154z"/><path fill="#5f6b62" fill-opacity=".455" d="M733.536 522.736L693.139 61.44l62.637 15.089-2.908 201.997z"/><path fill="#dde1f4" fill-opacity=".702" d="M373.197 994.398L232.753 813.983l13.577-80.928 125.126 39.878z"/><path fill="#f2f3fb" fill-opacity=".624" d="M700.342 458.794l-28.636-72.108 66.342 115.05-76.036 37.442z"/><path fill="#6f7a88" fill-opacity=".592" d="M353.378 442.388l-6.805 3.317-7.885-36.756-7.4 58.795z"/><path fill="#f4f5fb" fill-opacity=".847" d="M537.061 287.312L711.83 430.753 568.938 408l-89.101-152.476z"/><path fill="#728e7d" fill-opacity=".702" d="M-62 1086L55.702 641.409l16.596-227.135L25.58 36.12z"/><path fill="#e0e5fd" fill-opacity=".467" d="M617.489 640.617l51.522-18.028 85.265-70.697-153.192 36.91z"/><path fill="#121318" fill-opacity=".902" d="M377.742 739.415l5.819 107.149 67.127 173.16-40.847-402.406z"/><path fill="#fec3af" fill-opacity=".486" d="M-2.862 843.931l74.17-74.581 23.422 49.904-28.28 41.227z"/><path fill="#494441" fill-opacity=".706" d="M480.949 110.958l-23.628 75.136-8.548-141.875 3.842-14.033z"/><path fill="#17171d" fill-opacity=".843" d="M372.544 853.235l135.228-64.304L300.201 1086l197.359-77.13z"/><path fill="#702f04" fill-opacity=".294" d="M823.49 743.293l-42.176 118.314-86.678 179.33 20.17-140.277z"/><path fill="#030407" fill-opacity=".506" d="M608.888 626.183L419.14 595.746l165.891-39.935.994 20.22z"/><path fill="#d8dcf4" fill-opacity=".918" d="M509.63 996.009l122.401-14.751-10.531 48.579-110 56.163z"/><path fill="#6f838d" fill-opacity=".255" d="M8.145 900.055l270.983-86.696 142.638 64.66-121.844-29.854z"/><path fill="#939baf" fill-opacity=".62" d="M447.862 575.046l154.79-71.23 2.143 93.897-45.01-58.023z"/><path fill="#1e1d22" fill-opacity=".965" d="M307.129 696.948l-9.771-348.46 39.33 33.69-24.14 255.028z"/><path fill="#fbfffe" fill-opacity=".384" d="M400.629 580.506l-14.027 34.414 5.57 42.697 14.536-16.67z"/><path fill="#ebe8f5" fill-opacity=".925" d="M286.804 384.864l5.156 22.32-80.663-44.433 1.402 67.376z"/><path fill="#9fa4a1" fill-opacity=".922" d="M475.107 620.799l-5.233 41.437 15.144-3.486 4.688-52.255z"/><path fill="#01030a" fill-opacity=".29" d="M699.697 461.213l-20.841-26.835-22.414 36.66 7.102 35.513z"/><path fill="#e4eaff" fill-opacity=".659" d="M550.292 343.004L538.51 484.27l-125.24-28.94 27.23-68.947z"/><path fill="#d77d65" fill-opacity=".42" d="M467.556 168.963l25.474-3.79-71.376 183.335 39.13-46.992z"/><path fill="#855034" fill-opacity=".643" d="M683.07 644.337l27.95-49.027 75.505 106.043-38.781-2.067z"/><path fill="#fff" fill-opacity=".286" d="M341.033 609.191l-135.79 64.91 81.04-44.605 39.431-40.242z"/><path fill="#120b00" fill-opacity=".369" d="M422.49 373.638l-131.362-115.3-8.672 14.62 133.229 162.167z"/><path fill="#e2495a" fill-opacity=".675" d="M273.467 436.17l-7.696-22.8-87.236 51.672 16.26-35.369z"/><path fill="#d3d5ec" fill-opacity=".776" d="M295.872 519.906l-87.726-60.964-23.783 56.292 105.293-91.886z"/><path fill="#09101a" fill-opacity=".596" d="M267.487 613.151l-15.02-10.663-38.761 42.248-59.935 8.042z"/><path fill="#deecff" fill-opacity=".337" d="M147.716 567.416l63.624 53.03-28.866 19.503-68.316-37.05z"/><path fill="#f4f4fc" fill-opacity=".733" d="M142.703 488.928l8.275-69.71 15.008-18.721 112.117-83.956z"/><path fill="#40474c" fill-opacity=".235" d="M542.013 788.481l-48.81-26.718 244.274 63.796 73.487-47.59z"/><path fill="#dddff4" fill-opacity=".875" d="M642.153 897.55l12.817 2.311-138.877-60.955-.028 31.344z"/><path fill="#3d746d" fill-opacity=".38" d="M72.643 934.72l26.854-134.83 17.596 199.493L-62 991.193z"/><path fill="#8c978f" fill-opacity=".82" d="M813.246 792.608l-61.151 148.54L898 941.072 753.408-22.233z"/><path fill="#031222" fill-opacity=".298" d="M216.205 554.667l27.834 101.93 45.354-77.811-72.054 65.193z"/><path fill="#818c84" fill-opacity=".843" d="M492.506 232.379l-13.404 45.645 14.395-255.095 153.791 350.378z"/><path fill="#1e1d21" fill-opacity=".22" d="M487.234 806.795l-167.37-49.331 144.623 21.052 154.988 48.492z"/><path fill="#e0e5ff" fill-opacity=".294" d="M629.561 937.54l42.973-172.073 25.03-49.495-37.952 215.264z"/><path fill="#000608" fill-opacity=".271" d="M191.853 512.784l26.334-11.102 32.417 11.626-3.748-37.775z"/><path fill="#1b1c1f" fill-opacity=".808" d="M271.874 672.942l-4.978-106.97-6.144 99.703 257.489-4.075z"/></svg>