<svg xmlns="http://www.w3.org/2000/svg" width="228" height="278" viewBox="0 0 836 1024"><path fill="#4f504c" d="M0 0h836v1024H0z"/><path fill="#ebf7f9" fill-opacity=".722" d="M132.059 1026.85L4.727 1086-62 703.293l303.503 28.779z"/><path fill="#dde9ea" fill-opacity=".749" d="M898 744.904V1086H733.093l-4.723-337.674z"/><path fill="#020400" fill-opacity=".647" d="M251.898 649.443L703.253 299.16 722.06 1086l-576.05-.97z"/><path fill="#c7cdc0" fill-opacity=".78" d="M222.283-62L401.754 70.482l451.34.647L852.488-62z"/><path fill="#eea56b" fill-opacity=".482" d="M368.092 194.72l-229.951-73.322 31.006 162.684 210.217 51.91z"/><path fill="#ffd300" fill-opacity=".478" d="M279.338 622.36l-28.456-81.191 187.932-36.713 22.136 71.049z"/><path fill="#0b0e12" fill-opacity=".635" d="M370.054 327.892l173.905 438.067L898 569.806l-408.922-331.1z"/><path fill="#ebecd6" fill-opacity=".592" d="M-62 79.06l193.485-27.443L336.97-58.308-38.526 2.812z"/><path fill="#b5c2e6" fill-opacity=".275" d="M898 833.406L791.007 458.438 435.462 163.074 898 194.97z"/><path fill="#e5a878" fill-opacity=".627" d="M411.724 815.032l36.928-76.626 61.564-.847 60.81 62.106z"/><path fill="#9097aa" fill-opacity=".871" d="M36.62 765.208l40.19-223.533L-62 480.44v147.777z"/><path fill="#201205" fill-opacity=".667" d="M125.322 90.948l318.955 97.765-97.983-150.55-183.98-15.799z"/><path fill="#0d1b16" fill-opacity=".596" d="M338.369 527.434L99.528 265.554-62 429.656l466.76-86.103z"/><path fill="#111313" fill-opacity=".965" d="M616.13 1086L261.163 962.702 678.606 729.58l75.907 184.21z"/><path fill="#050c15" fill-opacity=".447" d="M695.558 303.88l60.935-155.558L898 104.867l-297.227-9.629z"/><path fill="#ecfcff" fill-opacity=".439" d="M278.564 906.295L244.8 962.12l-25.81 60.987 11.617 46.698z"/><path fill="#6a619d" fill-opacity=".847" d="M549.382 379.098l41.584-50.376 69.968-22.962-96.719 104.128z"/><path fill="#7d8294" fill-opacity=".694" d="M199.917 676.641L18.81 709.906l27.797 40.609 188.489-3.236z"/><path fill="#99a0a1" fill-opacity=".859" d="M898 720.67L719.608 820.885l-21.48-94.386 29.568 23.867z"/><path fill="#000306" fill-opacity=".337" d="M243.096 362.626l-9.027 141.594 73.51 179.697L114.217 622.4z"/><path fill="#646262" fill-opacity=".996" d="M-62 65.996V290.79l362.802-67.848-164.955-15.879z"/><path fill="#b48f6e" fill-opacity=".98" d="M121.861 220.536l136.374-19.47 134.106 116.818-125.067-187.76z"/><path fill="#7a7e87" fill-opacity=".71" d="M585.888 135.347l-100.86 25.352-60.477 90.443 233.55 11.474z"/><path fill="#0b0d0c" fill-opacity=".706" d="M451.3 256.525l-53.914-4.555 18.396 231.952 284.062 206.229z"/><path fill="#0d0e0e" fill-opacity=".757" d="M132.3 998.794l191.533-293.768-38.968 177.839-102.933 172.051z"/><path fill="#ddfba8" fill-opacity=".275" d="M304.836 756.628l220.676 15.183 12.312-35.128-91.835 9.777z"/><path fill="#c6d1cf" d="M898 1086H733.476l-10.327-117.335L877.89 706.8z"/><path fill="#82868e" fill-opacity=".937" d="M742.988 420.89l48.947 51.982 75.749 12.743-117.282-262.723z"/><path fill="#2d2017" fill-opacity=".404" d="M248.853 252.553l-102.775-25.156 458.833-89.772-248.489-70.607z"/><path fill="#151a16" fill-opacity=".827" d="M193.501 424.246l226.612-76.582-191.887 129.96 100.1 422.748z"/><path fill="#e9cc11" fill-opacity=".62" d="M240.81 559.435l134.833-50.059 68.758-11.852-119.109 62.663z"/><path fill="#5efc50" fill-opacity=".361" d="M500.253 324.08l-61.381-18.937 78.978-25.579 4.108 65.579z"/><path fill="#131612" fill-opacity=".82" d="M671.391 439.165l-205.37 27.031-227.145 61.096-11.098 18.444z"/><path fill="#e5e2fd" fill-opacity=".478" d="M283.776 482.697l-11.603-17.065-39.488 9.241 6.486 19.726z"/><path fill="#261c11" fill-opacity=".486" d="M213.263 147.91L392.21 61.836 171.381 37.989l-74.015 110.8z"/><path fill="#c4c0f9" fill-opacity=".322" d="M396.547 487.727l-29.603-37.131 14.095-18.978 45.263-25.22z"/><path fill="#805d3c" fill-opacity=".655" d="M321.11 301.17l-148.92-14.6 45.173 109.602 175.409-78.564z"/><path fill="#3e4243" fill-opacity=".957" d="M-62 313.327l267.871 161.79 62.068 251.823L-62 338.538z"/><path fill="#f2fffa" fill-opacity=".224" d="M-62 785.395L68.17 1086l157.315-257.408-8.695-40.614z"/><path fill="#7c8173" fill-opacity=".647" d="M328.687 59.602L500.24 88.073l375.231-6.181 12.174-20.51z"/><path fill="#498657" fill-opacity=".961" d="M328.634 386.646l37.61-34.124 30.076-59.488 10.64-78.031z"/><path fill="#53542f" fill-opacity=".671" d="M463.25 873.04l-111.697-9.578 168.594-39.84-59.991-70.798z"/><path fill="#25282b" fill-opacity=".478" d="M765.79 716.393L898 466.088 577.087 653.115l-35.914 106.07z"/><path fill="#ffe6f3" fill-opacity=".145" d="M234.63 248.73l-26.708-35.024-50.605 264.456 30.74-11.78z"/><path fill="#c6d0cf" fill-opacity=".8" d="M898 796.888l-191.301-23.511 41.766 119.828L807.45 1086z"/><path fill="#818690" fill-opacity=".6" d="M721.764 337.807l39.467-6.97 124.885-191.34-113.17 27.021z"/><path fill="#6d5f1b" fill-opacity=".839" d="M444.805 520.276l-198.528 79.777 219.298-39.04-55.233-125.381z"/><path fill="#5fec81" fill-opacity=".392" d="M418.988 671.129l-28.715 6.72-66.214 19.23 72.127-.201z"/><path fill="#090c0a" fill-opacity=".749" d="M692.266 500.723l-319.67 96.23 100.096 136.211 78.289-7.384z"/><path fill="#399250" fill-opacity=".612" d="M267.481 516.649l-51.03-3.029 164.327-36.32-40.802 25.962z"/><path fill="#606674" fill-opacity=".58" d="M97.16 744.576L27.963 710.79l44.105-205.038 20.277 36.273z"/><path fill="#1a1c20" fill-opacity=".984" d="M614.502 312.586L410.509 476.23l115.535-140.497 15.586-63.046z"/><path fill="#1d1b29" fill-opacity=".42" d="M27.738 292.598l232.926 37.476-192.118 53.57L-62 301.924z"/><path fill="#928369" fill-opacity=".49" d="M406.283-7.78L235.339-62 99.981 85.915-56.14 75.247z"/><path fill="#cd9f7a" fill-opacity=".443" d="M269.988 110.218L369.36 348.33l-13.99-141.247-154.752.564z"/><path fill="#252b32" fill-opacity=".463" d="M891.77 183.283l-86.091 110.129 21.17 71.477L898 448.784z"/><path fill="#1d1e24" fill-opacity=".471" d="M749.227 629.829L549.593 406.115l161.597-56.672 91.005 219.717z"/><path fill="#1d160e" fill-opacity=".631" d="M367.617 190.938l-67.73-76.527L210.248-62l196.831 265.225z"/><path fill="#e3eaff" fill-opacity=".286" d="M314.632 1001.908L189.55 1086l45.917-89.586 46.69 71.957z"/><path fill="#d1d7cd" fill-opacity=".404" d="M716.18 22.659L327.465 11.346l101.476 44.05L898 45.108z"/><path fill="#f79b84" fill-opacity=".255" d="M538.98 757.807l-65.371-21.17-77.872 57.996 153.145-10.398z"/><path fill="#4a4f59" fill-opacity=".337" d="M252.855 981.546L236.925 1086l89.594-192.743-4.406-106.977z"/><path fill="#a5b5d0" fill-opacity=".2" d="M-62 340.369L35.008 473.35-62 66.283l129.61 130.55z"/><path fill="#19201a" fill-opacity=".859" d="M520.465 880.594l-213.656-67.483-45.38-274.717 4.06 145.442z"/><path fill="#4e555f" fill-opacity=".302" d="M885.458 442.652l-9.065 299.238-144.56 24.954-34.68-40.376z"/><path fill="#020a06" fill-opacity=".341" d="M153.275 530.71l82.833-4.203 154.415-203.205-21.817 150.34z"/><path fill="#a6acc0" fill-opacity=".616" d="M18.728 633.857l42.42-61.735L-62 499.494l84.444 276.95z"/><path fill="#41a259" fill-opacity=".506" d="M340.274 414.97l21.068 6.743-102.994 29.146 10.537-14.124z"/><path fill="#f4de36" fill-opacity=".529" d="M250.346 568.752l134.92-54.344-28.437 5.765-106.988 25.084z"/><path fill="#e4f3ed" fill-opacity=".208" d="M105.496 70.57L197.81-29.3l17.356 44.596L-62 7.464z"/><path fill="#33383d" fill-opacity=".592" d="M514.638 143.864l-161.085 93.154 64.181-143.143 269.614 5.981z"/><path fill="#565a61" fill-opacity=".584" d="M738.655 397.172l-83.8-45.226-30.544-221.362 101.466 181.738z"/><path fill="#a6acb7" fill-opacity=".533" d="M227.87 754.756l-71.512-56.46-64.452 34.04L-62 773.183z"/><path fill="#b2896c" fill-opacity=".698" d="M143.819 141.524l160.963 48.21-135.224 31.574-6.072 54.843z"/><path fill="#0f1110" fill-opacity=".729" d="M392.508 1057.981L683.472 679.46l51.908 207.262-179.635-107.805z"/><path fill="#874b1c" fill-opacity=".498" d="M143.41 997.723l26.065 72.836L43.76 1086l-7.773-1.77z"/><path fill="#361b00" fill-opacity=".286" d="M297.62 385.275l27.952-17.476 13.847-79.145-44.356-14.423z"/><path fill="#605833" fill-opacity=".596" d="M559.068 795.467L456.71 824.466l-148-28.006 111.955 11.415z"/><path fill="#7d8596" fill-opacity=".255" d="M614.137 346.403l57.744 7.864-54.516-215.428-111.232-9.811z"/><path fill="#17191b" fill-opacity=".902" d="M641.95 999.42l115.002-77.777-46.527-76.244-170.536 66.744z"/><path fill="#06f172" fill-opacity=".141" d="M425.717 879.125L286.36 837.8l151.675 20.036 137.833 3.078z"/><path fill="#f9d500" fill-opacity=".184" d="M464.63 548.953l-144.437-48.776 171.105 60.116-225.542 51.734z"/><path fill="#7a512b" fill-opacity=".294" d="M246.819-42.678l145.524 98.243-250.091-33.721-76.166 177.351z"/><path fill="#404650" fill-opacity=".49" d="M56.533 311.04l122.843-6.663-55.872-23.004L76.924 53.43z"/><path fill="#c7d2d1" fill-opacity=".859" d="M795.575 1086l92.34-8.783-11.125-240.841-160.732 123.847z"/><path fill="#0b0c0c" fill-opacity=".569" d="M242.55 910.8l12.687-309.576-31.4-74.59 82.065 127.693z"/><path fill="#edfbf2" fill-opacity=".243" d="M242.625 958.354l-34.113 114.576 17.041 13.07 29.812-118.948z"/><path fill="#141618" fill-opacity=".918" d="M562.335 408.696L389.071 291.464l70.486-37.046-64.591 248.161z"/><path fill="#492200" fill-opacity=".475" d="M294.697 218.317l-140.822 1.477 19.95 19.956 99.516-8.6z"/><path fill="#484d58" fill-opacity=".49" d="M267.239 645.866L52.044 719.2l43.56-132.273L238.778 756.34z"/><path fill="#e9b48f" fill-opacity=".357" d="M181.848 308.83l39.928-5.928 20.962-27.095-14.818-35.939z"/><path fill="#a585b6" fill-opacity=".478" d="M554.89 397.944l108.03-101.55-55.273 41.07-62.851 47.85z"/><path fill="#47f48d" fill-opacity=".302" d="M401.42 273.98l-27.23 74.08-12.098-7.361 28.32-88.782z"/><path fill="#6c7383" fill-opacity=".667" d="M59.722 556.216l23.243 68.576-13.817-108.068L-62 485.431z"/><path fill="#936142" fill-opacity=".435" d="M281.778 211.81l78.715-46.095 16.085 106.574-108.036-171.894z"/><path fill="#241d15" fill-opacity=".549" d="M258.475 28.22L85.187 124.359l286.808-74.575-53.087 157.101z"/><path fill="#cbd5d4" fill-opacity=".78" d="M-62 714.996V1086l234.33-158.929 25.454-64.946z"/><path fill="#575c64" fill-opacity=".671" d="M510.342 164.412l-100.556 98.52 67.59-123.487 155.498 4.577z"/><path fill="#4efd85" fill-opacity=".278" d="M463.36 742.201l-51.646 22.312-5.612-.296-74.852-7.477z"/><path fill="#121816" fill-opacity=".898" d="M548.155 267.61l-151.538 27.495L345.48 419.14l121.108-162.923z"/><path fill="#fdc186" fill-opacity=".314" d="M368.81 262.99l-39.43-58.756 20.302 131.956 17.219-28.5z"/><path fill="#e2dffe" fill-opacity=".275" d="M369.144 434.73l8.854 32.591 22.44 11.142 3.334-17.567z"/><path fill="#c1af7d" fill-opacity=".169" d="M256.89-8.669l110.08-11.476 39.473 206.19 20.669-123.664z"/><path fill="#534d2d" fill-opacity=".996" d="M404.378 600.74l7.95-233.21-42.701 31.6 41.632-11.039z"/><path fill="#0d0f0f" fill-opacity=".761" d="M555.311 734.338l-197.015 11.98-2.97-42.305 144.123-14.852z"/><path fill="#1e1303" fill-opacity=".506" d="M131.259 182.904l-22.635-48.64-1.014 6.462 39.894-46.617z"/><path fill="#202429" fill-opacity=".525" d="M780.62 108.836l-229.513-4.546 112.759 49.452 18.44 69.974z"/><path fill="#7a7f8c" fill-opacity=".322" d="M836.881 608.315L898 796.951 707.912 740.91l109.5-22.944z"/><path fill="#232529" fill-opacity=".675" d="M213.123 911.29L160.79 962.7l52.855-139.569 51.477-179.262z"/><path fill="#736e67" fill-opacity=".988" d="M228.575 371.769L92.691 160.209l89.184 128.439 27.207 101.503z"/><path fill="#0e0f10" fill-opacity=".788" d="M630.712 989.176L373.26 866.387l-75.923 149.248 74.57 18.737z"/><path fill="#26252b" fill-opacity=".38" d="M-62 302.673L95.446 432.18l185.136-68.34-22.967 68.071z"/><path fill="#4cea76" fill-opacity=".176" d="M307.135 701.806l79.072-3.782 44.953-11.332 53.914-26.222z"/><path fill="#5b6168" fill-opacity=".439" d="M129.902 445.289l93.53 80.743-29.019-85.006 6.498-117.012z"/><path fill="#3a3e3d" fill-opacity=".592" d="M718.258 667.864L898 465.38l-98.235 232.53-106.36 54.04z"/><path fill="#ccb10a" fill-opacity=".498" d="M244.896 545.06l6.538 22.526 191.077-62.392-49.674 43.854z"/><path fill="#c39875" fill-opacity=".329" d="M150.819 119.282l18.28 19.311 51.458 112.743-82.465-71.343z"/><path fill="#834e31" fill-opacity=".702" d="M448.035 814.511l17.096-57.15 53.395 73.246-36.86-6.333z"/><path fill="#1c1d20" d="M804.884 567.038l-83.565-90.952-175.922 270.288 29.351 56.035z"/><path fill="#080908" fill-opacity=".675" d="M502.02 391.45l-39.138 192.404 191.962-2.767 17.977-79.133z"/></svg>