<svg xmlns="http://www.w3.org/2000/svg" width="228" height="278" viewBox="0 0 836 1024"><path fill="#343c56" d="M0 0h836v1024H0z"/><path fill="#d78f7c" fill-opacity=".494" d="M604.889 192.94L411.733 393.835 303.981 172.584 453.28 58.748z"/><path fill="#71a5f4" fill-opacity=".553" d="M642.154 991.115l215.185-2.387-39.22-222.764-207.883 158.328z"/><path fill="#afc0f1" fill-opacity=".576" d="M147.215 880.302L-62 863.18l1.366 100.92 223.994 1.778z"/><path fill="#cfd6df" fill-opacity=".318" d="M898 109.122l-219.586 51.74L453.225-62 898-7.888z"/><path fill="#030b15" fill-opacity=".475" d="M667.583 891.808L523.198 325.187l310.796-127.585-54.935 550.356z"/><path fill="#ffbbb7" fill-opacity=".373" d="M542.495 694.005L208.95 561.093l444.085 218.554-86.914 104.731z"/><path fill="#060a0f" fill-opacity=".678" d="M-62 632.432l345.305-119.273-210.727-44.22-31.192 425.129z"/><path fill="#091a49" fill-opacity=".816" d="M155.632 1039.692L667.915 1086 547.26 799.029 211.31 607.026z"/><path fill="#ecfffc" fill-opacity=".349" d="M181.941 657.335l15.624 114.889-102.288-.949.536-74.828z"/><path fill="#0d1729" fill-opacity=".561" d="M328.777 319.845L209.589 723.937 27.038-62l-76.262 484.445z"/><path fill="#7b8794" fill-opacity=".576" d="M279.498 665.057l-22.555-64.94 393.893 80.729-136.78 35.722z"/><path fill="#f6d8e6" fill-opacity=".392" d="M453.597 515.368l122.801 82.244 18.293-70.262-149.197 42.582z"/><path fill="#2263ff" fill-opacity=".227" d="M271.144 628.395L138.062 875.79-62 1014.094l362.717-63.437z"/><path fill="#ddecf1" fill-opacity=".565" d="M91.514 477.898l22.575-57.478 15.698-17.75 6.023 57.709z"/><path fill="#011b6a" fill-opacity=".533" d="M260.048 356.997l506.365 128.712-463.388 42.025-122.72 286.971z"/><path fill="#ffbdc3" fill-opacity=".518" d="M546.39 741.354l104.585-.163-65.786 28.337-52.267 35.777z"/><path fill="#080b0f" fill-opacity=".62" d="M527.01 650.132l22.107 247.075L540.443 1086l-78.574-308.153z"/><path fill="#dadef1" fill-opacity=".51" d="M300.914 553.848l80.247-18.537-86.938-10.43 5.868 18.693z"/><path fill="#141822" fill-opacity=".902" d="M370.493 271.329L-42.969 598.097-62 1029.613 98.9 599.721z"/><path fill="#7098f1" fill-opacity=".78" d="M898 955.953l-272.108 12.073-4.574-45.85 247.126-11.945z"/><path fill="#fcaba1" fill-opacity=".373" d="M415.025 236.522l104.824-.64L400.82 95.869l163.512 30.823z"/><path fill="#5e6a78" fill-opacity=".533" d="M156.692 361.556l244.385-84.23L378.3 78.16l-17.586-32.895z"/><path fill="#516882" fill-opacity=".839" d="M898 903.544L839.825 768.55l-39.941-74.435-104.846 207.484z"/><path fill="#193280" fill-opacity=".898" d="M550.135 506.994l-93.46 241.31 53.667-336.614 47.976-46.797z"/><path fill="#121b2a" fill-opacity=".788" d="M898 641.458l-223.186-257.72-91.17 356.488-264.536 16.28z"/><path fill="#6e4743" fill-opacity=".757" d="M552.584 252.534l-84.935-11.58-84.895 128.925 145.74 19.163z"/><path fill="#0a183a" fill-opacity=".671" d="M130.115 548.945l352.017 97.166 398.7-32.254-482.484-21.368z"/><path fill="#0537d2" fill-opacity=".333" d="M595.123 543.979l24.795 38.712 46.72-176.22-51.579-34.667z"/><path fill="#4d646d" fill-opacity=".69" d="M667.213 730.679l-16.149-88.71-11.305-39.335-35.82 150.222z"/><path fill="#143293" fill-opacity=".733" d="M371.898 606.89l42.296 31.568 25.655-196.665-48.453-74.462z"/><path fill="#f8a0a4" fill-opacity=".561" d="M558.658 739.537l82.253 93.961-50.675 23.695 29.954-93.573z"/><path fill="#121723" fill-opacity=".871" d="M520.17 890.403l129.615-14.224-28.212-123.214 118.912 43.773z"/><path fill="#292f3b" fill-opacity=".733" d="M206.666-56.369L-62 387.131l225.622 20.366 65.37-301.782z"/><path fill="#4d3823" fill-opacity=".341" d="M668.917 72.971l-176.92 158.785-.976-107.489L289.43-62z"/><path fill="#426fff" fill-opacity=".263" d="M328.613 448.396l-4.312-86.843-48.067 64.864L265.18 786.45z"/><path fill="#d5c9f1" fill-opacity=".565" d="M440.787 597.508l12.935.382 12.432-5.974-1.657-83.947z"/><path fill="#2e170a" fill-opacity=".49" d="M504.79 355.288l-81.078-.384 39.622 156.524 12.817 99.957z"/><path fill="#0339aa" fill-opacity=".373" d="M638.743 1083.256L898 984.337l-172.174-24.406-118.409-8.851z"/><path fill="#d4c372" fill-opacity=".286" d="M2.927 924.09l-52.923-48.892 228.001-20.974-67.392 77.774z"/><path fill="#949bb8" fill-opacity=".514" d="M898 96.083l-37.359-109.88-125.057 39.965 18.725 83.685z"/><path fill="#ffc4c8" fill-opacity=".227" d="M361.216 220.076l-42.503-96.938 126.768 72.104 162.769 29.546z"/><path fill="#feffe4" fill-opacity=".302" d="M262.474 664.06l31.925-19.378 7.308-36.709-30.229-25.796z"/><path fill="#0b121e" fill-opacity=".737" d="M468.574 1086L363.978 784.801l72.68-68.217-1.802 129.382z"/><path fill="#181f30" fill-opacity=".663" d="M349.663 369.67L133.07 417.423l248.612-154.04-5.087 331.068z"/><path fill="#fbb6b5" fill-opacity=".38" d="M594.075 137.22l-95.643 23.754-55.22-79.483-43.294 76.107z"/><path fill="#b2e7ff" fill-opacity=".165" d="M136.24 410.618l-12.203 100.639-98.352-127.092-60.748 181.996z"/><path fill="#111009" fill-opacity=".533" d="M361.616 531.713L304.803 737.83 321.3 919.628l15.746-243.688z"/><path fill="#fba980" fill-opacity=".231" d="M774.697 471.463l12.448-40.38L898 348.32l-39.498 141.257z"/><path fill="#3d6378" fill-opacity=".714" d="M203.51 611.147l-8.99 46.41-112.678 73.356 12.21-119.65z"/><path fill="#040002" fill-opacity=".302" d="M420.65 200.673l129.56-31.612-30.46 36.29-95.291-61.395z"/><path fill="#211d0c" fill-opacity=".451" d="M280.177 943.332l172.592 113.397-287.095-31.042 22.76-54.881z"/><path fill="#2d323d" fill-opacity=".635" d="M578.523 318.607l2.956-136.366L898 147.089 794.769 481.242z"/><path fill="#eef6ff" fill-opacity=".267" d="M303.481 650.477l83.736-.075 17.083 54.444-73.84-54.378z"/><path fill="#304691" fill-opacity=".769" d="M350.97 316.25l-14.09 219.432 19.63-159.654 32.025-180.056z"/><path fill="#101527" fill-opacity=".796" d="M540.838 605.468l36.422 92.397-28.582-9.798 38.686-93.862z"/><path fill="#4b4847" fill-opacity=".341" d="M856.947-21.987L525.924 47.87 383.64 139.69-62 35.656z"/><path fill="#9ebdff" fill-opacity=".49" d="M120.234 944.864l-98.534-3.92 29.579-43.93 113.715 28.17z"/><path fill="#0d0d0f" fill-opacity=".451" d="M721.659 387.371l48.46 386.153-111.405 69.618-4.746-256.933z"/><path fill="#ffffdb" fill-opacity=".282" d="M542.022 549.198l33.234-59.388-12.607 99.194-24.625-.738z"/><path fill="#f1f9ed" fill-opacity=".176" d="M483.135 625.5l-68.428 92.211 10.78-65.63 98.283 73.772z"/><path fill="#023aa5" fill-opacity=".294" d="M78.905 955.086L-62 903.834l136.935 165.813L186.92 956.225z"/><path fill="#181002" fill-opacity=".416" d="M597.52 520.538l2.908-72.3-34.722-84.113-25.557 158.614z"/><path fill="#535b6d" fill-opacity=".518" d="M608.305 201.482l148.15-61.592L622.744-62l-50.792 226.087z"/><path fill="#3f4151" fill-opacity=".98" d="M313.094 103.459L301.79 320.007l-74.015-84.343L152 221.074z"/><path fill="#0e45fe" fill-opacity=".161" d="M399.178 1078.256l24.575-9.273-86.073-364.372-4.011 147.72z"/><path fill="#faefe0" fill-opacity=".176" d="M179.573 694.382l-69.96 20.587 55.21 94.349 32.673-68.773z"/><path fill="#666c79" d="M392.338 664.871l-88.083-41.337 204.435 22.128 106.109 1.947z"/><path fill="#0e215a" fill-opacity=".667" d="M325.27 681.337l-87.05-66.07-80.623 307.128 33.27-55.333z"/><path fill="#264bb4" fill-opacity=".58" d="M584.365 376.149l11.289-60.363-23.584-36.937 9.019 60.033z"/><path fill="#142146" fill-opacity=".929" d="M409.874 715.748l4.28-60.667-34.514 80.452 288.688-29.607z"/><path fill="#4c6b6d" fill-opacity=".51" d="M167.466 899.072L43.446 777l118.434-25.84L34.89 889.38z"/><path fill="#213c9f" fill-opacity=".686" d="M210.004 886.98l117.098 88.877-7.27-61.6-130.714 57.815z"/><path fill="#b1b1bc" fill-opacity=".224" d="M130.529 385.686l46.969-37.238 68.713-97.997 1.306 78.34z"/><path fill="#262b38" fill-opacity=".949" d="M758.267 492.528L898 482.708v210.785l-107.928 2.831z"/><path fill="#001149" fill-opacity=".427" d="M320.437 613.857l108.225-77.373-166.764 15.561-69.669-29.908z"/><path fill="#4f718e" fill-opacity=".976" d="M743.844 903.443l-85.692 15.143-55.845-27.968 219.523-37.854z"/><path fill="#944746" fill-opacity=".518" d="M-32.561 1011.47L-62 1026.312 38.083 876.69l-2.756 38.822z"/><path fill="#8a352a" fill-opacity=".369" d="M627.931 781.182l10.703 36.119-85.966 27.767-13.05-58.957z"/><path fill="#638daa" fill-opacity=".475" d="M310.064 162.462l64.041-36.221-56.321 166.507 62.99-9.323z"/><path fill="#895c5a" d="M388.378 294.14l-4.163 65.569 126.007-22.715-8.095-7.666z"/><path fill="#b8c9ff" fill-opacity=".239" d="M599.879 697.996l-57.223-8.655-93.521 35.126 92.729-16.58z"/><path fill="#195dfd" fill-opacity=".216" d="M674.098 433.408l19.725 13.398-63.61 215.61 6.937 2.085z"/><path fill="#0f131a" fill-opacity=".816" d="M208.92 359.82l-73.896 46.552.799 84.972 95.348 38.923z"/><path fill="#ffc5d4" fill-opacity=".478" d="M543.99 780.469l12.191-43.99 55.612 21.094-73.361 37.198z"/><path fill="#302728" fill-opacity=".639" d="M574.732 86.106l-18.474-40.2-89.77-26.674 16.083 92.642z"/><path fill="#f0fbff" fill-opacity=".216" d="M577.506 703.45l17.217-6.777 11.808-82.998-24.386 53.799z"/><path fill="#a47864" fill-opacity=".247" d="M140.864 61.93L61.16-62 76.22 61.46l47.76 55.261z"/><path fill="#141516" fill-opacity=".604" d="M378.32 467.964l-25.795 66.029-1.093-79.652 38.949-98.28z"/><path fill="#ecf4fa" fill-opacity=".247" d="M390.623 644.342l9.564 22.008-58.732-13.844 220.006 16.573z"/><path fill="#a3acaf" fill-opacity=".494" d="M287.882 605.38l67.248 22.123 169.921 30.913L355.91 620.49z"/><path fill="#070805" fill-opacity=".286" d="M407.646 657.527l144.33 3.248 35.448-79.788-117.466 91.447z"/><path fill="#d5948b" fill-opacity=".29" d="M407.158 249.916l186.626-84.31-63.584-46.417 32.65 113.647z"/><path fill="#282e3d" fill-opacity=".89" d="M10.1-44.18L-62 382.446l300.649-234.409-146.742-57.69z"/><path fill="#0c215b" fill-opacity=".698" d="M481.153 663.156l5.582 157.616-44.15 94.044 27.416-246.424z"/><path fill="#181c25" fill-opacity=".886" d="M656.519 883.118l-41.55-4.993 33.383-85.51 44.658 71.304z"/><path fill="#462433" fill-opacity=".694" d="M522.86 283.312l-84.801-5.803 67.928 64.322-46.811-39.991z"/><path fill="#80242e" fill-opacity=".647" d="M462.667 568.706l-.37 29.188L485.5 572.26l1.23-69.015z"/><path fill="#cdf" fill-opacity=".455" d="M479.127 675.896l2.565-2.025 27.937-2.293-13.889 27.885z"/><path fill="#fff9fa" fill-opacity=".322" d="M284.47 521.192l46.743 14.62 160.32-2.483-179.07 6.019z"/><path fill="#111c01" fill-opacity=".42" d="M422.227 650.282l26.397-101.455 5.188-154.977-12.061 48.793z"/><path fill="#acf7fa" fill-opacity=".239" d="M632.827 640.46l13.106-30.22 5.51 20.63-.757 54.311z"/><path fill="#c3c7cb" fill-opacity=".49" d="M417.796 684.701l-.8 12.373 145.602 12.407-77.16-2.262z"/><path fill="#0b1326" fill-opacity=".431" d="M361.12 1086h78.767L275.325 857.386l26.337-254.25z"/><path fill="#010c19" fill-opacity=".439" d="M572.997 362.618l-11.157-79.762-90.322 216.598-9.53-66.062z"/><path fill="#0e1e47" fill-opacity=".839" d="M577.34 680.627l-2.082-80.773L681.652 468.47 544.85 707.433z"/><path fill="#0d1119" fill-opacity=".851" d="M508.503 768.852l58.065 259.857L507.637 1086l21.714-417.33z"/><path fill="#ffb6b4" fill-opacity=".212" d="M507.334 131.507l-3.193-25.176-140.376 114.137 97.648-135.795z"/><path fill="#db929a" fill-opacity=".847" d="M-61.73 906.955L-62 859.19l91.02 18.846-9.659 43.619z"/><path fill="#163290" fill-opacity=".918" d="M262.497 574.201l53.51-65.75 17.207-139.967-53.249 31.943z"/><path fill="#102351" fill-opacity=".784" d="M533.31 827.105l87.332 73.551-12.216 178.038-40.183-20.871z"/><path fill="#193183" fill-opacity=".82" d="M544.7 528.936L515.175 631.1l-23.142-134.878 10.395-110.44z"/><path fill="#c7d7ff" fill-opacity=".361" d="M123.325 472.559l7.49-38.857L95.33 445.89l8.552 37.986z"/><path fill="#153ec8" fill-opacity=".38" d="M373.128 750.192l-43.946-13.83 40.161-20.854 32.105 14.17z"/><path fill="#111c36" fill-opacity=".976" d="M263.852 666.757l5.377-311.972-9.922 51.667-5.974 133.584z"/><path fill="#1b202c" fill-opacity=".953" d="M94.717 459.426L-20.535 595.792 44 867.14l-106 13.358z"/><path fill="#463e43" fill-opacity=".773" d="M407.038 63.572l161.507 68.582L352.09-42.075l33.855 223.298z"/><path fill="#233881" fill-opacity=".91" d="M459.193 521.28l160.488 21.768 1.867-173.275-19.688 158.164z"/><path fill="#425467" fill-opacity=".529" d="M390.89 222.485l-.822 14.736L183.225 68.578 384.184 286.72z"/><path fill="#ffffe4" fill-opacity=".133" d="M419.503 509.288l43.487 20.259 123.248 47.201 9.552-28.543z"/><path fill="#2a344d" fill-opacity=".784" d="M65.77 488.182L491.479 662.05 373.39 651.61l155.128 26.515z"/></svg>