<svg xmlns="http://www.w3.org/2000/svg" width="228" height="278" viewBox="0 0 836 1024"><path fill="#7b8497" d="M0 0h836v1024H0z"/><path fill="#4f2e2e" fill-opacity=".655" d="M161.729-62l480.943 80.52 45.468 332.445L-62 32.932z"/><path fill="#fff6ee" fill-opacity=".353" d="M433.705 157.841L898 638.274-62 290.86 47.405 693.297z"/><path fill="#c9cdd2" fill-opacity=".804" d="M643.94 375.201L898 352.333v274.664l-376.882-8.907z"/><path fill="#7b5745" fill-opacity=".996" d="M564.903 402.857l-49.347-48.577-40.287-205.396 210.715-85.018z"/><path fill="#8b8d01" fill-opacity=".376" d="M255.264 463.09L143 517.715l30.598 475.761L304.495 1086z"/><path fill="#2175ed" fill-opacity=".31" d="M562.32 616.648L898 598.694 832.976 1086 431.624 963.139z"/><path fill="#000102" fill-opacity=".718" d="M564.9 3.049l104.843 58.299-195.9 84.512-13.72-15.126z"/><path fill="#003391" fill-opacity=".341" d="M-62 54.198l35.977 192.326 330.47-12.758L408.11-62z"/><path fill="#36363a" fill-opacity=".686" d="M432.52 455.647L250.994 601.824l-24.51-59.063 148.52-106.478z"/><path fill="#495637" fill-opacity=".639" d="M474 691.104l149.511 183.55 36.825-61.441-150.918-188.25z"/><path fill="#3e683e" fill-opacity=".984" d="M169.886 907.006L139.92 978.16l136.065 64.252L230.18 882.77z"/><path fill="#7591c7" fill-opacity=".871" d="M-62 631.777L124.17 1086l56.29-275.149-46.164-214.507z"/><path fill="#d5fee2" fill-opacity=".224" d="M256.183 719.193l358.5 299.664-296.73 55.04-47.275-67.379z"/><path fill="#e6dddb" fill-opacity=".353" d="M-62 656.378l328.343-170.006 53.464-169.685-336.641 63.189z"/><path fill="#392018" fill-opacity=".596" d="M895.515 60.91L838.569-62 723.612 24.54l49.084 47.428z"/><path fill="#ffe4f1" fill-opacity=".322" d="M898 88.273l-196.729 4.709-154.903 7.927 227.69 79.945z"/><path fill="#9df637" fill-opacity=".388" d="M156.965 753.683L319.362 858.87l-32.695 167.833-44.332-62.539z"/><path fill="#090e18" fill-opacity=".561" d="M332.99 866.018l58.474 48.523-51.003-2.035-26.254-20.998z"/><path fill="#c18169" fill-opacity=".663" d="M186.572 429.614L121.324 604.11l87.754 116.99 29.08-234.537z"/><path fill="#4aa9d6" fill-opacity=".988" d="M894.355 970.974l-327.253 25.13 48.23 89.896h247.069z"/><path fill="#fe8f67" fill-opacity=".286" d="M378.493 211.14L898 179.48l-430.467-15.794L444.267-57.58z"/><path fill="#0b0a09" fill-opacity=".518" d="M266.986 30.07L167.84 55.123l-6.536 51.92 208.065-31.076z"/><path fill="#291b09" fill-opacity=".612" d="M640.887 280.08l-115.94-38.384L569.533 400.7l11.5-87.293z"/><path fill="#0b132a" fill-opacity=".494" d="M383.452 288.391l-31.173 48.09 59.664-18.146 9.802-27.933z"/><path fill="#5a82ca" fill-opacity=".459" d="M-59.006 216.218L91.528 55.952l188.861 291.47L-62 354.715z"/><path fill="#91a4b1" fill-opacity=".588" d="M585.788 925.718l-76.424-614.055 63.795 156.504 39.547 324.82z"/><path fill="#0426bb" fill-opacity=".29" d="M741.964 666.857l117.028-39.367-44.785 254.094-184.292-241.376z"/><path fill="#6e3942" fill-opacity=".38" d="M407.714 252.653L474.686 8.382 98.63 198.848 367.057 229.3z"/><path fill="#776a67" fill-opacity=".871" d="M898 425.377l-87.305-82.862-190.34 7.173 29.372-175.112z"/><path fill="#02241c" fill-opacity=".514" d="M226.835 768.957l-55.495-4.262-6.349-39.405 70.435-18.527z"/><path fill="#cac2b6" fill-opacity=".616" d="M124.506 865.466l3.141 188.386 60.811-281.59-32.983-4.478z"/><path fill="#4067a7" fill-opacity=".871" d="M56.663 1086l74.02-65.612-7.882-55.927-184.801.4z"/><path fill="#0b0809" fill-opacity=".765" d="M514.295 171.28l-51.679-69.07L583.75 20.231l-28.412 80.517z"/><path fill="#c0d3ff" fill-opacity=".337" d="M469.505 337.62L331.617 222.202 216.352 410.424l278.582-221.327z"/><path fill="#000e06" fill-opacity=".608" d="M566.495 675.431l-55.154 47.26-47.377-44.379 97.352 1.368z"/><path fill="#8c919e" fill-opacity=".925" d="M276.585 829.122l140.38-213.124-82.468-96.829-102.318 179.678z"/><path fill="#6b7bbe" fill-opacity=".424" d="M395.287 68.314L409.445-62-62-22.025l371.259 54.276z"/><path fill="#0e0501" fill-opacity=".6" d="M631.443 822.384l-5.294-16.35-22.365-14.717 8.772 89.425z"/><path fill="#6b8bcb" fill-opacity=".678" d="M582.28 834.733L468.543 675.584l-18.105 217.811 144.839 19.507z"/><path fill="#b0b0bc" fill-opacity=".769" d="M137.366 1086l59.202-139.851L197.947 1086l-65.798-140.486z"/><path fill="#b5bcd4" fill-opacity=".694" d="M325.064 1055.365l3.835-94.023 214.536 85.259-22.131-91.866z"/><path fill="#042c67" fill-opacity=".106" d="M240.015 402.156l228.113 85.24 164.69 8.57-170.685-164.533z"/><path fill="#5981ca" fill-opacity=".612" d="M-2.345 603.41l45.929 35.466L159.47 764.457-62 1020.632z"/><path fill="#b0c0e6" fill-opacity=".408" d="M763.568 195.238l29.574-73.938-49.115-51.623L641.753 187.13z"/><path fill="#795f58" fill-opacity=".455" d="M730.403-62l75.688 168.57-190.674-92.752 59.612 183.449z"/><path fill="#cacbd3" fill-opacity=".294" d="M898 619.83L732.529 340.77 491 616.486l97.542 31.532z"/><path fill="#778e99" fill-opacity=".431" d="M296.017 143.26l-52.34 25.61-81.584-42.45 84.647-28.625z"/><path fill="#003895" fill-opacity=".278" d="M120.366 200.473L135.891-62l78.918 221.067 55.05 101.276z"/><path fill="#063e16" fill-opacity=".302" d="M339.17 868.779l-127.247-75.423 55.85-12.518 42.695 124.439z"/><path fill="#b5e783" fill-opacity=".49" d="M663.611 779.503L548.916 700.24 688.22 825.034l-19.566 6.482z"/><path fill="#597ec0" fill-opacity=".408" d="M363.895 196.44l44.426 41.785L171.722 368.31l19.847-133.072z"/><path fill="#71856a" fill-opacity=".98" d="M194.406 832.48l64.334-147.466-81.053 176.434-75.302 13.882z"/><path fill="#1b1e1c" fill-opacity=".506" d="M356.744 453.54l-54.869 93.884-56.21-10.169L446.1 448.729z"/><path fill="#120e03" fill-opacity=".71" d="M632.007 779.654l-25.792-24.231 69.467 87.46-23.291-47.91z"/><path fill="#33394d" fill-opacity=".557" d="M408.886 975.717l-29.566-13.442-27.969-27.827 78.3 28.428z"/><path fill="#ac573a" fill-opacity=".396" d="M384.57 213.797l193.437-246.86 46.123 48.008-245.935 45.472z"/><path fill="#01120e" fill-opacity=".596" d="M196.754 1017.47l190.38 20.364-111.104 42.772-48.386-110.289z"/><path fill="#484f4f" fill-opacity=".576" d="M388.332 581.137l20.198-2.2 96.639 135.087-81.565-79.036z"/><path fill="#30185d" fill-opacity=".227" d="M223.379 512.394l.108 92.368 54.706 167.727-1.093-254.856z"/><path fill="#312104" fill-opacity=".486" d="M589.694 862.044l15.044 33.382 27.402-21.121-5.224-6.65z"/><path fill="#9395a0" fill-opacity=".761" d="M366.317 339.323L208.36 469.3l71.698 47.682 61.885-43.933z"/><path fill="#09090f" fill-opacity=".773" d="M515.902 61.474l-43.33 91.223 150.18-87.708 58.952 36.87z"/><path fill="#98a5bd" fill-opacity=".949" d="M573.402 1009.161l-71.964-86.13-66.63 154.348 9.258-232.894z"/><path fill="#d09a80" fill-opacity=".349" d="M527.233 139.773l182.078 90.135-93.69-90.638-30.832 109.97z"/><path fill="#08040e" fill-opacity=".545" d="M200.995 898.878l8.428-3.246-29.223 86.086-27.889 9.172z"/><path fill="#bbd465" fill-opacity=".89" d="M191.554 764.952l25.433 10.658 63.798-2.603-101.46 26.307z"/><path fill="#c3d3d6" fill-opacity=".204" d="M159.798 394.997l26.488-188.303L-62 498.169l180.8 214.208z"/><path fill="#bf896c" fill-opacity=".6" d="M520.256 220.741l2.885 69.439-87-184.452-3.54 125.476z"/><path fill="#f8d8cc" fill-opacity=".204" d="M607.13 25.017l164.966 50.686-67.628 123.287 25.03-250.182z"/><path fill="#a49a98" fill-opacity=".494" d="M817.98 333.27l12.398-294.466L898 402.094l-303.11-32.02z"/><path fill="#c2fd44" fill-opacity=".251" d="M189.724 849.531l-25.223-12.505 87.55-42.22-40.908 181.638z"/><path fill="#adc1ff" fill-opacity=".11" d="M539.07 450.875l-89.196-322.709-48.355 341.578 470.39 565.733z"/><path fill="#b68775" fill-opacity=".651" d="M592.43 88.966L711.01 133.2l-146.613-.293-29.933-6.336z"/><path fill="#112361" fill-opacity=".545" d="M517.946 1086h49.996l-38.598-114.703 29.476 30.55z"/><path fill="#284382" fill-opacity=".718" d="M242.75-62L132.898 110.252-41.56 41.137-62 182.412z"/><path fill="#aaacc4" fill-opacity=".325" d="M358.988 729.731l32.985 246.564-125.705-424.683 31.557-5.741z"/><path fill="#9cbc9a" fill-opacity=".616" d="M548.37 702.968l35.686 2.429 10.93 71.103 71.84 57.794z"/><path fill="#354439" fill-opacity=".624" d="M177.476 905.483l61.947-12.861-2.447 64.105-38.545-67.318z"/><path fill="#afb2b6" fill-opacity=".627" d="M608.201 296.911l-36.47 47.136L898 392.411l-262.048 6.94z"/><path fill="#bcc3d6" fill-opacity=".494" d="M179.683 434.87l175.2-188.9 8.344 84.232-190.486 143.055z"/><path fill="#001109" fill-opacity=".376" d="M547.086 701.558l6.095 76.162-54.14-147.533-16.985 68.132z"/><path fill="#667483" fill-opacity=".369" d="M442.54 426.003l105.61 7.645-56.112-100.358 113.936 165.937z"/><path fill="#61d36e" fill-opacity=".718" d="M213.516 894.514l49.858-65.895 67.671 54.224-55.692-17.516z"/><path fill="#506aa9" fill-opacity=".698" d="M-62 339.748l145.768.333L-33.8 184.087l164.035 5.129z"/><path fill="#010303" fill-opacity=".608" d="M567.148 293.974l1.797 8.65 74.136-12.33-99.393-18.94z"/><path fill="#78d3a4" fill-opacity=".553" d="M212.877 734.933l-28.619 6.895-47.783 28.804 94.763-37.08z"/><path fill="#c1c1d4" fill-opacity=".243" d="M121.034 891.683L15.22 709.916-62 822.759l207.835 16.654z"/><path fill="#240a00" fill-opacity=".369" d="M566.06 152.07l80.72 9.093 32.566-10.2-123.48-20.476z"/><path fill="#87a0c9" fill-opacity=".553" d="M440.834 793.226L542.01 719.75l-117.243 10.506-11.434 13.984z"/><path fill="#4c4746" fill-opacity=".502" d="M349.332 93.428l-163.15 114.239 230.284 1.865L195.961 76.517z"/><path fill="#140004" fill-opacity=".243" d="M186.37 819.43l-9.166-19.832-60.132 13.419 141.411-28.672z"/><path fill="#88b6e9" fill-opacity=".196" d="M132.237 70.609l16.513 121.44L15.8 169.17l26.732-37.425z"/><path fill="#d58237" fill-opacity=".196" d="M330.63-62l-99.104 40.607-23.292 61.36 67.225 15.936z"/><path fill="#148ac0" fill-opacity=".322" d="M629.194 1086L547.17 969.251l277.26-4.189-217.029 70.894z"/><path fill="#030008" fill-opacity=".647" d="M245.838 724.504l-84.43 17.405 9.124-19.804 66.732-1.582z"/><path fill="#c1fd55" fill-opacity=".322" d="M494.452 673.238l69.4-12.487-1.23 9.915-58.672 18.245z"/><path fill="#383e5f" fill-opacity=".506" d="M503.26 970.641l-21.417-5.696 14.726-29.377 9.266-6.5z"/><path fill="#617dbd" fill-opacity=".365" d="M898 332.491l-113.022-166.57-115.81 8.482 188.366 161.762z"/><path fill="#5f7dd2" fill-opacity=".212" d="M844.007 662.144l25.595-76.744-358.893 19.992 89.858 127.971z"/><path fill="#af7e66" fill-opacity=".643" d="M233.307 662.205L125.9 512.842l28.523 200.956 81.487-1.511z"/><path fill="#000720" fill-opacity=".337" d="M366.634 112.984L138.496 32.469 157.7 98.458l164.188-63.979z"/><path fill="#503d36" fill-opacity=".475" d="M617.956 332.52l149.013 4.589-10.39-18.983-137.096-5.34z"/><path fill="#b2b6d6" fill-opacity=".506" d="M300.441 784.654l45.312 62.715 43.401 60.045-127.317-110.217z"/><path fill="#e5fcff" fill-opacity=".176" d="M421.099 1086l-56.592-163.865-236.346-111.91 202.936 121.889z"/><path fill="#462a14" fill-opacity=".384" d="M564.496 398.516l-55.558-78.284 140.306-71.967-36.358-58.405z"/><path fill="#898c92" fill-opacity=".729" d="M478.959 537.42l-157.07 29.745 79.18-100.474 68-23.855z"/><path fill="#86bfe6" fill-opacity=".576" d="M827.129 1086l-382.198-63.68 244.804 6.849L898 971.565z"/><path fill="#fdf931" fill-opacity=".255" d="M261.463 981.833l41.339 12.724-3.145-100.737-29.567-25.272z"/><path fill="#949ba6" fill-opacity=".988" d="M607.62 867.798l-5.132-104.618-13.159 142.7-4.919-62.179z"/><path fill="#c2cae2" fill-opacity=".557" d="M497.94 242.878l-59.227 40.044L355.3 264.2l125.53-39.926z"/><path fill="#3e6cc3" fill-opacity=".443" d="M90.76 725.405L-62 579.779 129.267 835.7l16.381-76.235z"/><path fill="#012100" fill-opacity=".318" d="M366.005 923.244l-22.44-46.437-25.469 6.232-38.432-10.074z"/><path fill="#130b00" fill-opacity=".361" d="M464.27 111.957l52.012-34.585-48.264 107.137 38.582 66.322z"/><path fill="#b67d64" fill-opacity=".69" d="M581.015 186.473l72.258-80.015-49.87 117.67-72.87-67.529z"/><path fill="#392b14" fill-opacity=".275" d="M264.282 536.625l120.238-61.511-168.386 51.557 78.264 136.459z"/><path fill="#5a6484" fill-opacity=".576" d="M430.597 882.177L353.095 775.23l-5.73-16.077 88.853 63.334z"/><path fill="#02112f" fill-opacity=".333" d="M534.671 664.735l3.139 119.444 56.315-57.138-22.936 41.396z"/><path fill="#3d4349" fill-opacity=".337" d="M346.99 451.277l131.168-4.612-106.545 30.241 33.097-80.94z"/><path fill="#899db7" fill-opacity=".365" d="M212.39 407.749L-.029 227.106l421.902 31.253-475.916 90.676z"/><path fill="#50bc4d" fill-opacity=".541" d="M209.689 995.638l-3.155-71.733 56.242 102.17-12.897-90.145z"/></svg>