<svg xmlns="http://www.w3.org/2000/svg" width="228" height="278" viewBox="0 0 836 1024"><path fill="#867a77" d="M0 0h836v1024H0z"/><path fill="#d8dedf" fill-opacity=".773" d="M592.015 314.263l-304.318 96.924-84.376 664.394 461.993-32.362z"/><path fill="#270e06" fill-opacity=".533" d="M4.759 782.54l131.63-389.78L746.28-10.815-2.974-53.75z"/><path fill="#020103" fill-opacity=".82" d="M624.076 680.746l8.196-160.52 234.38 363.203-211.855-7.688z"/><path fill="#e4f6ff" fill-opacity=".616" d="M139.018 527.255l-67.575-209.09 245.747 10.718 100.5 75.82z"/><path fill="#5f483c" fill-opacity=".988" d="M800.74 472.939l97.088-338.797L377.613 340.77l-64.7-261.779z"/><path fill="#d9dae0" fill-opacity=".898" d="M421.244 458.15l97.117-178.657 144.303 67.783 84.41 133.218z"/><path fill="#000800" fill-opacity=".208" d="M570.33 532.179l-361.71 14.46-68.55 373.874 536.192-423.065z"/><path fill="#3f2c24" fill-opacity=".894" d="M754.297 396.106l.67-11.489L898 734.681 743.996 551.852z"/><path fill="#7a563c" d="M409.693 99.33l144.695-37.135-119.66 378.591-105.441-272.484z"/><path fill="#7e1f10" fill-opacity=".706" d="M837.995 1086l-184.082-18.312 9.625-140.33L898 944.667z"/><path fill="#000309" fill-opacity=".78" d="M-36.762 571.982L97.425 540.39l-13.04-150.485-140.373-69.29z"/><path fill="#6a513e" fill-opacity=".988" d="M875.75-50.32L898 143.153 534.394 53.708l-32.685-67.044z"/><path fill="#010309" fill-opacity=".741" d="M223.669 877.014l14.982-141.876-8.037-94.398-62.168 229.897z"/><path fill="#2100cf" fill-opacity=".529" d="M187.452 1045.63L57.211 1086-62 979.956l282.822-15.372z"/><path fill="#0f0001" fill-opacity=".478" d="M192.248 77.895L168.747 310.52l332.277-281.6-365.74 61.81z"/><path fill="#f4f8ff" fill-opacity=".498" d="M670.835 1010.249L167.625 1086l70.336-164.777 254.318-150.18z"/><path fill="#b17a63" fill-opacity=".518" d="M162.097 69.868l23.28 134.608L41.388 406.49 98.966 73.46z"/><path fill="#c8dad8" fill-opacity=".329" d="M749.015 142.65L556.692 53.262l-82.88 150.834 218.923 3.205z"/><path fill="#da374d" fill-opacity=".718" d="M-26.831 971.082L-62 904.24l286.098 25.13-16.113 37.067z"/><path fill="#845636" fill-opacity=".82" d="M898 910.828l-152.996-187.61-99.844-175.081 106.911 40.285z"/><path fill="#e4e4e6" fill-opacity=".984" d="M224.87 466.629l-45.345-101.182 133.508-63.09 34.298 141.712z"/><path fill="#936b4b" d="M165.319 634.788l-93.93-20.471L-62 822.974l56.341 112.041z"/><path fill="#da9354" fill-opacity=".824" d="M573.622 529.523l17.355 62.538-143.859 8.335-38.372-60.734z"/><path fill="#000723" fill-opacity=".58" d="M678.596 350.764l50.156-53.205-52.643-82.103-108.962 88.401z"/><path fill="#b5babc" fill-opacity=".741" d="M158.17 629.067l-79.557-7.288 70.112-244.151 67.947 37.046z"/><path fill="#23101a" fill-opacity=".78" d="M335.287 290.117l-91.698-96.445-111.765 86.275 94.665 50.456z"/><path fill="#00262b" fill-opacity=".62" d="M646.384 1021.39L898 1086l-14.166-96.25-200.476-5.504z"/><path fill="#fd5636" fill-opacity=".58" d="M656.241 970.736l201.841 3.166L898 927.726l-219.146-7.982z"/><path fill="#feab6c" fill-opacity=".467" d="M839.06 768.304l-108.588-101.04 28.063-113.58 52.614 88.85z"/><path fill="#b3b7b9" fill-opacity=".941" d="M723.777 464.248l-124.562-50.051 117.351 153.15 30.883-28.866z"/><path fill="#57402e" fill-opacity=".757" d="M450.649 441.39l-35.06-58.264-88.168-37.304 144.936-135.86z"/><path fill="#babdc0" fill-opacity=".976" d="M571.91 815.43l-250.125-51.907L349.59 630.59 566.456 618z"/><path fill="#5d8bae" fill-opacity=".529" d="M119.79 457.966l9.98 17.579-94.956-165.856 175.242-1.007z"/><path fill="#a1a3a3" d="M298.956 443.737l403.552 44.584-310.813-13.478-145.402 33.032z"/><path fill="#030710" fill-opacity=".624" d="M762.128-62l102.633 7.385-56.186 423.082L898 267.353z"/><path fill="#1f1816" fill-opacity=".827" d="M898 895.37l-99.83-285.382-63.688-116.586L898 654.315z"/><path fill="#8c644f" fill-opacity=".745" d="M768.012 397.102L683.358 381.1l104.325-135.092L898 756.584z"/><path fill="#52c3d1" fill-opacity=".608" d="M402.333 541.664l-99.898-5.247 17.633 76.725 96.013-3.612z"/><path fill="#090d12" fill-opacity=".451" d="M51.313 609.336l-101.95-636.68L91.316 694.263l82.437-60.936z"/><path fill="#1c1008" fill-opacity=".824" d="M508.548 25.73l31.382 69.899-68.676-19.193-134.082 38.672z"/><path fill-opacity=".369" d="M677.597 591.685l-65.15 20.075 64.148 258.038 72.244-330.39z"/><path fill="#000019" fill-opacity=".318" d="M163.581-40.592L-62 530.718 51.604 110.352-62-29.747z"/><path fill="#c08f69" fill-opacity=".467" d="M413.865 203.477l146.74-114.043-181.368 9.092L614.628 237.34z"/><path fill="#fff2cb" fill-opacity=".173" d="M40.063 546.574L-62 647.979l277.53 154.009-230.794 17.109z"/><path fill="#fb9469" fill-opacity=".322" d="M232.69 84.81L204.91-62h104.934L272.545 83.946z"/><path fill="#836e69" fill-opacity=".408" d="M275.208 249.657l57.614-176.98 11.456 155.67L445.471 396.02z"/><path fill="#04070b" fill-opacity=".369" d="M848.114 897.257L898 776.273l-266.584-31.895 28.517 141.816z"/><path fill="#302b2c" fill-opacity=".698" d="M91.429 429.67l38.616-4.16-65.122 204.453-49.98 53.434z"/><path fill="#d7dadf" fill-opacity=".631" d="M221.784 856.956l427.54-16.5 12.81 131.603L292.31 764.554z"/><path fill="#76747a" fill-opacity=".769" d="M582.305 423.492l-45.517 26.844-17.234-7.344 4.947-14.8z"/><path fill="#8d6950" fill-opacity=".659" d="M714.823-62l16.637 199.914-5.391 128.201 121.956-114.84z"/><path fill="#0f1a2b" fill-opacity=".518" d="M187.86-48.924l-.978 41.838 158.2 363.85L113.643 13.399z"/><path fill="#e7e8eb" fill-opacity=".953" d="M404.628 464.253l114.09-27.092-245.733-22.384 20.678-30.433z"/><path fill="#e2e2e8" fill-opacity=".894" d="M644.696 344.049l53.865 75.426-124.41 15.13-83.18-160.006z"/><path fill="#323633" fill-opacity=".722" d="M199.936 595.914l38.952-111.711-12.698 79.64 13.176 178.628z"/><path fill="#2f1a1b" fill-opacity=".62" d="M358.677-45.057L201.203 347.61l140.407-69.205L116.066 292.3z"/><path fill="#e4e6ed" fill-opacity=".412" d="M599.02 490.553l-364.137 2.1 14.205 25.515 95.99 36.957z"/><path fill="#e9ecf6" fill-opacity=".357" d="M470.675 541.609l1.165 66.546 164.25 206.744-209.57-166.144z"/><path fill="#553b2a" fill-opacity=".749" d="M442.617 386.34l48.797-179.81-125.676 160.161 143.384-57.61z"/><path fill="#f9a271" fill-opacity=".196" d="M61.111 86.606L209.44 221.171 63.57 246.722 188.059 68.095z"/><path fill="#b2bcc0" fill-opacity=".671" d="M414.615 963.875l-96.958-44.38 104.74 13.394 205.677 4.366z"/><path fill="#edeef2" fill-opacity=".827" d="M471.558 1048.753l-189.265-47.608L159.035 1086l127.769-212.25z"/><path fill="#ad3ca3" fill-opacity=".49" d="M258.238 949.17l-65.535 36.75-178.652-12.756L-62 962.889z"/><path fill="#54786d" fill-opacity=".275" d="M143.637 566.278l76.401-110.658 142.063 144.463-17.685 10.781z"/><path fill="#aeaeb0" fill-opacity=".937" d="M577.978 631.289l55.605 55.515-12.77 58.624L503.865 589.53z"/><path fill="#9a6844" fill-opacity=".51" d="M795.071 820.574L755.033 565.99l-51.432 10.156 13.94 81.411z"/><path fill="#926046" fill-opacity=".514" d="M613.46 540.466l259.13-147.772-45.007 189.379-56.552-110.795z"/><path fill="#101116" fill-opacity=".596" d="M236.558 839.008l-61.683-105.043 66.75-51.493-9.281 67.905z"/><path fill="#001d29" fill-opacity=".157" d="M57.748 822.066l-28.616 49.78 241.45 11.127 102.805-6.355z"/><path fill="#ff9668" fill-opacity=".271" d="M35.229 128.693l2.93-50.102L-62 66.554v241.294z"/><path fill="#2b1000" fill-opacity=".376" d="M500.884 143.287l-72.257-8.583-31.206 28.546 141.247-.833z"/><path fill="#9fa39e" fill-opacity=".439" d="M244.993 763.428l-10.025-184.501-15.872-6.281 300.318 203.05z"/><path fill="#6c808e" fill-opacity=".353" d="M587.138 300.11L498.88 119.752l254.3 148.118-9.014-150.972z"/><path fill="#070a15" fill-opacity=".431" d="M698.737 353.055l-153.721-67.368 128.11-23.406-24.609 96.336z"/><path fill="#c6c7cb" fill-opacity=".541" d="M657.137 861.854l-408.314-15.191-3.123 36.396-15.207-128.77z"/><path fill="#141214" fill-opacity=".584" d="M635.727 781.701l14.15-180.017 104.235-41.133-129.338 18.052z"/><path fill="#2d0506" fill-opacity=".427" d="M32.25 315.235l35.172-169.592 68.547 8.595-177.207 108.9z"/><path fill="#e6f6ec" fill-opacity=".125" d="M606.398-62l4.326 296.411L776.122 91.48l-233.91 30.292z"/><path fill="#00010b" fill-opacity=".349" d="M180.577 402.083L-62 454.401l6.227 183.298 214.18-250.585z"/><path fill="#aab0b0" fill-opacity=".322" d="M-62 715.398L306.85 356.83 139.913 634.074l-196.99-78.93z"/><path fill="#859294" fill-opacity=".475" d="M711.741 572.904L586.235 423.611l87.14 46.829-50.926 83.837z"/><path fill="#081712" fill-opacity=".239" d="M199.505 623.267l246.547-10.694-275.148 36.194-81.066-11.808z"/><path fill="#8b5837" fill-opacity=".506" d="M399.994 268.558l-108.42-145.449 103.862 21.798 196.621 148.667z"/><path fill="#1f242c" fill-opacity=".4" d="M893.111 349.923l-175.738 53.602 51.973 87.525 53.016-311.365z"/><path fill="#ed863c" fill-opacity=".22" d="M68.01 634.825L-62 851.512l358.707 88.333-289.283 7.79z"/><path fill="#f1f0f2" fill-opacity=".945" d="M347.896 356.663l-83.699-38.797-97.145 61.784 12.012 17.446z"/><path fill="#8d9292" fill-opacity=".761" d="M195.094 649.849l-82.57 54.165 81.506 3.778 17.464-39.243z"/><path fill="#d8d7d9" fill-opacity=".557" d="M138.68 409.962l-34.328 118.893 60.452-67.235 250.474-93.967z"/><path fill="#080e0f" fill-opacity=".467" d="M77.863 571.686l-29.594 86.24L-62 793.447v-.295z"/><path fill="#030401" fill-opacity=".255" d="M480.005 64.493l-30.798-39.358 116.58 44.771-40.615 54.807z"/><path fill="#f0f0f6" fill-opacity=".467" d="M621.348 814.031l-297.115-69.328-5.62-1.767 48.521-.402z"/><path fill="#201309" fill-opacity=".627" d="M298.013 103.356L419.44 63.52l-52.188 104.22-37.764-115.067z"/><path fill="#e8a166" fill-opacity=".408" d="M404.187 139.905l43.639-55.546 48.564 8.122 24.23 37.048z"/><path fill="#e3effd" fill-opacity=".38" d="M722.972 520.055l26.142 18.63-27.726 20.957-54.5 8.193z"/><path fill="#e2e2e5" fill-opacity=".753" d="M233.215 469.16l113.077-79.963-73.27 68.146 141.334 7.673z"/><path fill="#c0c4cc" fill-opacity=".616" d="M580.141 602.921l61.207 295.285-21.607-278.795-.301-234.167z"/><path fill="#f7f9ff" fill-opacity=".329" d="M560.82 847.2l-14.986 161.034L680.04 1086l-75.443-234.422z"/><path fill="#210a00" fill-opacity=".357" d="M439.311 319.097l12.487-86.69 42.8 13.333-125.59 30.809z"/><path fill="#8dccfc" fill-opacity=".392" d="M164.695 311.218l-15.09 34.823-61.798-20.752 34.383 105.44z"/><path fill="#08070c" fill-opacity=".624" d="M197.984 863.233l45.816-29.03-36.853-88.253-18.078 137.192z"/><path fill="#d7d7db" fill-opacity=".659" d="M593.305 480.397l-354.2 49.377 305.71-18.757 20.327 57.956z"/><path fill="#d4d0c9" fill-opacity=".51" d="M441.664 595.798l-32.154-58.864-10.146 75.738 210.444-9.674z"/><path fill="#ffedd2" fill-opacity=".322" d="M335.243 329.376l22.57-55.196-42.55 24.887 54.497 54.769z"/><path fill="#051509" fill-opacity=".149" d="M603.977 647.991L499.81 602.217l-64.912 10.55 143.998 35.387z"/><path fill="#2e5384" fill-opacity=".341" d="M364.248 237.748l-31.36 49.887L261.4 232.53l32.52-55.836z"/><path fill="#d6a479" fill-opacity=".427" d="M834.395 663.732L725.357 513.55l117.556 272.59-31.057-150.76z"/><path fill="#fbfdfb" fill-opacity=".459" d="M374.12 850.766l-120.53 46.599 183.506 34.429L256.73 829.341z"/><path fill="#051937" fill-opacity=".392" d="M425.779 416.169l28.376 18.05-7.394-60.773 71.97-95.825z"/><path fill="#dd7108" fill-opacity=".388" d="M452.512 536.18l-.591 99.52-11.56-29.005-16.452-67.59z"/><path fill="#797971" fill-opacity=".608" d="M817.064 362.313l-117.586 45.065-10.218-67.772L898 470.766z"/><path fill="#000002" fill-opacity=".443" d="M699.85 867.055l40.754-12.608-119.335-371.656 44.453 397.552z"/><path fill="#1e6b95" fill-opacity=".255" d="M82.302 334.934l-5.614 3.36L-62 286.74l190.996 162.557z"/><path fill="#a0dffe" fill-opacity=".157" d="M58.22 902.57l74.096 23.881-39.473-164.759 110.77-1.405z"/><path fill="#d1d1d4" fill-opacity=".992" d="M193.652 401.33l197.54-23.826 18.692-1.012-85.997-21.033z"/><path fill="#e4e8f2" fill-opacity=".49" d="M428.28 381.003l1.503 18.796 57.582-62.07 136.45 75.659z"/><path fill="#8f5934" fill-opacity=".318" d="M138.919 670.645l-63.241-48.191-14.048 49.124L-53.111 1086z"/><path fill="#c48d62" fill-opacity=".459" d="M485.87 124.36l-49.336 89.125-62.054-62.334 110.552 33.542z"/><path fill="#c66108" fill-opacity=".255" d="M593.984 517.513L579.118 585.6l-70.705 13.886-27.138-3.904z"/><path fill="#565b62" fill-opacity=".161" d="M613.7 814.597L216.72 726.69l353.303 92.02 79.076 82.217z"/><path fill="#00070d" fill-opacity=".267" d="M68.99 624.415L7.23 706.062l47.532-105.369 141.146 69.072z"/></svg>