<svg xmlns="http://www.w3.org/2000/svg" width="228" height="278" viewBox="0 0 836 1024"><path fill="#404241" d="M0 0h836v1024H0z"/><path fill="#ef9782" fill-opacity=".565" d="M478.679 125.527l-7.442 201.606-131.07 40.503-64.91-297.599z"/><path fill="#ffce59" fill-opacity=".365" d="M659.039 648.954L898 245.634l-61.351 533.359-506.006 2.474z"/><path fill="#f9d4ad" fill-opacity=".537" d="M211.951 598.208L90.044 824.618-62 937.438l213.184-94.647z"/><path fill="#131f36" fill-opacity=".961" d="M533.777 761.496L168.437 1086l423.591-7.263 87.137-316.032z"/><path fill="#bfd6ee" fill-opacity=".424" d="M570.891 547.28l-283.678 7.43 8.864 73.34 234.545-22.421z"/><path fill="#000d1f" fill-opacity=".522" d="M704.542 576.526l-108.488 55.952-150.875-295.48L633.165-62z"/><path fill="#f49483" fill-opacity=".486" d="M759.726 647.652l-278.852 65.111-113.869 61.78 57.222 68.239z"/><path fill="#6b7b3d" d="M754.767 378.149L643.014 355.71 898 954.901V365.786z"/><path fill="#0e2f6e" fill-opacity=".663" d="M314.972 333.243l171.087 53.493-352.07 501.225 275.96 82.388z"/><path fill="#b6e137" fill-opacity=".4" d="M166.547 464.487l12.107-96.438-232.44-7.592 36.455 89.067z"/><path fill="#f8feff" fill-opacity=".486" d="M476.967 447.209l-13.65 30.19 35.937 34.119 26.67-73.502z"/><path fill="#0a1c36" fill-opacity=".522" d="M898-62L354.79 50.866 898 443.56 790.82 117.562z"/><path fill="#b0c45b" fill-opacity=".275" d="M252.647 868.64L174.23 405.248 127.382 715.56-62 745.77z"/><path fill="#0c1c3e" fill-opacity=".8" d="M359.891 730.573l260.504-46.536 20.95-79.843-353.603 21.764z"/><path fill="#04122d" fill-opacity=".506" d="M284.283 42.181l-97.96 443.11 39.258 148.858 117.897-110.846z"/><path fill="#060f15" fill-opacity=".494" d="M547.283 1020.607l189.616-194.079L898 823.477l-39.186 143.459z"/><path fill="#fdffff" fill-opacity=".631" d="M691.63 1012.537l-77.408-.844 7.022 74.307 66.366-66.289z"/><path fill="#c28161" fill-opacity=".839" d="M689.12 710.69l-25.065-112.783 81.226-31.03 32.793 133.531z"/><path fill="#262320" fill-opacity=".667" d="M8.675-62l162.932 416.506L-62 342.299V216.675z"/><path fill="#20428a" fill-opacity=".769" d="M672.006 789.062l-47.247 15.549-2.871 133.834 67.039.878z"/><path fill="#0b0d0e" fill-opacity=".459" d="M552.991 542.931l105.11 50.595 146.384-54.049-211.973-140.18z"/><path fill="#274ea9" fill-opacity=".482" d="M229.125 352.53L384.8 545.734l-8.7-171.182-92.697 182.658z"/><path fill="#19367b" fill-opacity=".878" d="M553.49 523.782L531.144 325.41l-30.484 59.282 24.249 158.005z"/><path fill="#758d34" fill-opacity=".773" d="M672.843 766.854l131.482-79.665L898 806.775l-216.714 5.365z"/><path fill="#121a25" fill-opacity=".486" d="M517.859 753.724l216.46 58.097L-62 946.969l550.177-136.384z"/><path fill="#e9fffd" fill-opacity=".376" d="M68.37 844.182l52.27-71.64 31.343 78.993-33.977 17.49z"/><path fill="#c48b71" fill-opacity=".788" d="M376.63 774.134l104.204-67.253 75.695-13.932-83.443 138.302z"/><path fill="#eb977f" fill-opacity=".369" d="M309.033 177.101l102.012-35.11L485.6 278.358l-59.48 83.65z"/><path fill="#0f4efa" fill-opacity=".275" d="M421.476 376.823l11.33 152.895 43.977 79.816-16.985-319.125z"/><path fill="#030a08" fill-opacity=".592" d="M299.76 589.474L170.897 363.46l20.32 144.548 12.298 77.178z"/><path fill="#835240" fill-opacity=".573" d="M121.159 804.453l59.401 4.477 95.361-143.112-49.347-77.037z"/><path fill="#2d63ad" fill-opacity=".392" d="M309.09 975.782l-45.028-245.719-145.747 120.662 216.087 17.752z"/><path fill="#7a604d" fill-opacity=".737" d="M405.652-62L235.97 102.552 220.954-9.034l248.95 45.998z"/><path fill="#2a2b27" fill-opacity=".616" d="M281.88 880.452L355.65 1086H-15.626l128.983-212.481z"/><path fill="#1c2122" fill-opacity=".976" d="M880.386 369.234l-10.829-58.969-193.953-12.692-208.727 39.185z"/><path fill="#1b5bf8" fill-opacity=".302" d="M570.673 861.122l6.432 89.767-50.726 6.518 14.093-135.753z"/><path fill="#001540" fill-opacity=".443" d="M242.146 542.76l243.155 13.076 2.434 70.166 60.655-139.236z"/><path fill="#bdc0b9" fill-opacity=".553" d="M274.353 489.94l19.72 17.156-13.087 4.166 65.215-44.106z"/><path fill="#dcff65" fill-opacity=".204" d="M860.016 393.224l-37.468 109.86-135.268-66.162-37.155-45.302z"/><path fill="#909ba3" d="M397.93 551.993l-44.272-4.682 6.438 64.833 140.074-1.794z"/><path fill="#0d0d00" fill-opacity=".506" d="M283.984 981.526l59.213-31.626 353.49 21.69L425.972 1086z"/><path fill="#e2eafa" fill-opacity=".416" d="M530.106 567.343l20.95 47.384 2.52-79.257-76.357 37.39z"/><path fill="#4a3c2f" fill-opacity=".494" d="M433.416 353.399L-62 244.243l457.45-111.48-265.389-17.839z"/><path fill="#5a8402" fill-opacity=".22" d="M145.933 730.784L-62 867.234l42.548-451.172 233.727 167.132z"/><path fill="#141c27" fill-opacity=".506" d="M413.875 635.029l-.57-8.336-48.515-258.72 69.555-24.552z"/><path fill="#003cb5" fill-opacity=".153" d="M859.25 140.443l-77.503 111.856-137.253-2.165L665.456-62z"/><path fill="#211d16" fill-opacity=".796" d="M314.596 69.012l166.159 12.726-49.24-59.597L276.24 47.006z"/><path fill="#cc5a29" fill-opacity=".227" d="M-62 886.45V1086l262.946-295.138-89.76 64.926z"/><path fill="#3a3d3b" fill-opacity=".671" d="M465.604 183.179l-5.237 77.043 148.107 83.43 4.418-74.18z"/><path fill="#123796" fill-opacity=".486" d="M475.778 873.309l4.332 72.334-45.757 8.384 1.614-123.409z"/><path fill="#0f0b12" fill-opacity=".325" d="M407.85 907.505L514.11 776.14l316.574-75.107-143.115 48.565z"/><path fill="#cfaa78" fill-opacity=".169" d="M533.705 19.363L296.318 27.18l132.184-49.452 72.279 170.275z"/><path fill="#152a58" fill-opacity=".933" d="M364.028 878.97l45.623-299.34 30.412 145.27-208.376 152.522z"/><path fill="#1c231f" fill-opacity=".655" d="M-62 791.232v116.344L64.962 849.37l27.097-34.79z"/><path fill="#000e1f" fill-opacity=".333" d="M222.544 111.674L154.682-62l16.312 278.726 38.689 29.448z"/><path fill="#c8e0e8" fill-opacity=".263" d="M355.863 647.787l-16.155-62.338-38.364 51.877-8.78-96.467z"/><path fill="#15347a" fill-opacity=".659" d="M266.837 352.413L237.78 405.31l31.922 128.464 39.54-170.962z"/><path fill="#fdffff" fill-opacity=".51" d="M800.472 1086H663.217l-9.488-77.535-52.391-2.819z"/><path fill="#1a1c01" fill-opacity=".318" d="M399.086 258.988L285.969 296.62-62 288.6l294.488 102.174z"/><path fill="#111921" fill-opacity=".62" d="M368.073 783.995L340.88 540.152l25.506 98.85L413.159 742.9z"/><path fill="#161c1d" fill-opacity=".973" d="M584.81 1086l-5.716-189.05 101.679 155.244-41.44-112.027z"/><path fill="#1a1d1d" fill-opacity=".725" d="M533.654-53.619l104.32 74.27L607.81 233.72l-88.67 8.749z"/><path fill="#2d2419" fill-opacity=".655" d="M-62 905.123l136.65 39.153 113.354-91.543-3.5 40.667z"/><path fill="#8a9ba3" fill-opacity=".212" d="M898 125.704L790.053 165.04l-42.177-31.396L763.64 73.41z"/><path fill="#15243e" fill-opacity=".761" d="M302.24 612.417l-21.934-102.603-1.215 171.902 6.496 139.704z"/><path fill="#11120d" fill-opacity=".537" d="M503.426 625.671l36.479 81.258 5.198-23.615-4.861-112.42z"/><path fill="#4a5438" fill-opacity=".698" d="M677.684 461.534l91.594 22.713 35.762 46.26-23.266 110.935z"/><path fill="#0e1826" fill-opacity=".788" d="M579.95 323.67l-26.204 252.034 21.218 107.42 53.624-6.084z"/><path fill="#f0f4ed" fill-opacity=".447" d="M461.247 553.165l27.177 66.418-116.526-34.807 100.574 31.145z"/><path fill="#55491f" fill-opacity=".443" d="M632.935 679.582l-33.332-131.915 111.171 98.203-95.72 27.617z"/><path fill="#c8917c" fill-opacity=".627" d="M376.541 293.666l42.137 62.123 47.842-37.924-6.35-122.727z"/><path fill="#e4ded9" fill-opacity=".49" d="M120.7 781.706l30.615 30.265-195.163 88.931 93.36-28.52z"/><path fill="#fffbe0" fill-opacity=".353" d="M500.544 444.918l7.895 41.252-43.174 17.39-.137-46.35z"/><path fill="#243a75" fill-opacity=".561" d="M478.531 653.102l9.666 57.116 47.935-17.757L415.8 536.742z"/><path fill="#152e6b" fill-opacity=".733" d="M315.701 703.092l8.938-133.093 66.308 287.112-14.674 107.349z"/><path fill="#2e312f" fill-opacity=".733" d="M898 978.686L676.728 1086l35.073-279.708-42.53 71.662z"/><path fill="#fdfff9" fill-opacity=".247" d="M341.196 112.733l-57.434 26.72 26.102-62.708 15.76 34.96z"/><path fill="#e5f2fb" fill-opacity=".561" d="M395.495 550.208l7.412 67.088-21.597-10.363 25.633-39.116z"/><path fill="#4e4734" fill-opacity=".592" d="M87.386 382.182l258.606-156.034-316.08-6.32L251.65 356.543z"/><path fill="#ebf3ee" fill-opacity=".561" d="M433.932 561.719l118.095-7.287-228.782 4.937 80.74-9.246z"/><path fill="#ba7764" fill-opacity=".537" d="M481.355 173.083L358.705 68.6l33.498 230.987 93.893-178.558z"/><path fill="#432f27" fill-opacity=".545" d="M236.349 143.988l140.772 7.018L311.236 7.379l54.803 117.595z"/><path fill="#ab7870" fill-opacity=".671" d="M311.6 125.985l22.338-39.025-2.21 235.954 26.557 31.142z"/><path fill="#ffee95" fill-opacity=".212" d="M133.256 768.178l43.093-68.45.174-135.888 41.927 31.736z"/><path fill="#c98566" fill-opacity=".545" d="M678.707 726.174l80.332-89.493-360.438 110.253 70.076 9.018z"/><path fill="#2d1d00" fill-opacity=".263" d="M531.45 561.445l-55.463 36.294 36.207-43.961-122.19 24.623z"/><path fill="#2152d1" fill-opacity=".278" d="M659.383 949.327l-34.714-9.632-12.059-155.08 30.886 53.656z"/><path fill="#1d2222" fill-opacity=".906" d="M685.418 901.507l69.513 33.891L898 849.449l-214.819-31.168z"/><path fill="#1d3981" fill-opacity=".816" d="M413.918 355.054L444.7 559.272l23.312-233.036 35.935-29.455z"/><path fill="#484f37" fill-opacity=".561" d="M107.725 437.521l-119.41 20.254L142.45 750.317l22.74-291.557z"/><path fill="#404c58" fill-opacity=".545" d="M424.64 582.447l-175.303 5.988 144.618-13.478 39.385-1.686z"/><path fill="#a7c243" fill-opacity=".196" d="M123.89 432.94L-62 409.082l247.158-54.416 79.758-46.107z"/><path fill="#0c1627" fill-opacity=".561" d="M561.18 835.573l-168.414 50.714L403.235 1086l-29.083-254.356z"/><path fill="#0c1119" fill-opacity=".478" d="M592.634 354.846l-130.789-5.808 1.696 115.863 72.579-173.764z"/><path fill="#bf8980" fill-opacity=".867" d="M293.225 152.676l87.03 15.595 72.792-24.947-158.28 32.846z"/><path fill="#cc8d6e" fill-opacity=".498" d="M514.393 703.311l-132.974 126.7-3.088-47.396 80.67 46.262z"/><path fill="#37414e" fill-opacity=".957" d="M422.518 558.978l-93.255 4.885 187.63-.948-80.03 7.338z"/><path fill="#a76a60" fill-opacity=".533" d="M21.858 930.966l25.344 59.464 2.942-55.046L-62 1086z"/><path fill="#181c1c" fill-opacity=".937" d="M737.998 558.205l-136.793 71.732 24.131-18.117-34.476-287.716z"/><path fill="#121d32" fill-opacity=".694" d="M523.66 537.578l89.417 9.475-99.532 41.707 160.38-107.932z"/><path fill="#3f342d" fill-opacity=".651" d="M254.357 214.215L309.951 58.03 45.033 266.933 42.341 62.885z"/><path fill="#131717" fill-opacity=".608" d="M179.926 381.328l49.438 234.274-25.355-185.605 118.999-148.174z"/><path fill="#1b3b91" fill-opacity=".494" d="M329.973 306.119l4.428 134.665 46.906-51.249-73.12-99.266z"/><path fill="#fcffe2" fill-opacity=".329" d="M356.634 617.674l99.08-45.856-113.89 45.943-20.111-39.9z"/><path fill="#fcfefd" fill-opacity=".404" d="M457.577 567.42l26.678 24.072-.115 17.368-9.276 9.286z"/><path fill="#0b1b33" fill-opacity=".604" d="M357.864 550.493l-27.797-66.526-33.07 11.038-44.677 69.375z"/><path fill="#172538" fill-opacity=".769" d="M898 114.102L788.869-14.467 898 257.063l-147.769-25.638z"/><path fill="#255dab" fill-opacity=".275" d="M218.144 773.124l106.581 14.62-69.038 100.64-84.556-75.236z"/><path fill="#df9a7c" fill-opacity=".455" d="M769.149 678.085l-93.525-88.539 58.05-18.025 20.456 65.849z"/><path fill="#34404f" d="M331.768 337.807L314.36 564.304l105.836-5.802-108.89 16.93z"/><path fill="#123690" fill-opacity=".29" d="M570.08 454.456l-5.413-84.235-59.497-48.383 17.8 227.386z"/><path fill="#d0e2ff" fill-opacity=".361" d="M529.381 539.495l31.858 65.434-6.176 14.495-11.362-21.699z"/><path fill="#6b5042" fill-opacity=".561" d="M380.96 119.125l39.809-4.675-210.24-65.277 328.037 75.672z"/><path fill="#434e33" fill-opacity=".718" d="M898 365.074l-245.884 15.004-113.734-83.035 118.755 65.04z"/><path fill="#0e181a" fill-opacity=".337" d="M618.132 838.494l-49.76-84.445-69.673 10.846L617.922 929.94z"/><path fill="#13130b" fill-opacity=".459" d="M292.724 571.794l-122.06-162.8 38.057 169.021 35.273 65.87z"/><path fill="#111a2b" fill-opacity=".49" d="M456.84 555.927l16.271-21.874-8.434-48.201 75.893 59.903z"/><path fill="#3d4f75" d="M466.05 506.525l67.11-9.876-46.8-72.349 59.664 52.518z"/><path fill="#dfeffd" fill-opacity=".408" d="M371.767 585.636l56.755-21.396-42.78 6.196 22.133 55.355z"/><path fill="#15253f" fill-opacity=".929" d="M377.194 753.677l21.208.658-76.716-167.337-7.877-.6z"/></svg>