<svg xmlns="http://www.w3.org/2000/svg" width="228" height="278" viewBox="0 0 836 1024"><path fill="#3a4c65" d="M0 0h836v1024H0z"/><path fill="#50a6f4" fill-opacity=".91" d="M254.75 1086l12.524-265.514L-62 829.05l60.864 222.649z"/><path fill="#a8c2ed" fill-opacity=".929" d="M722.476 802.39L898 830.033 867.762 1086h-130.58z"/><path fill="#f7f7cc" fill-opacity=".651" d="M180.435 239.076l-160.437.805L124.257 497.6l17.41-110.964z"/><path fill="#081b2c" fill-opacity=".969" d="M602.196 1017.5l-321.448 36.275-54.426-567.857L609.345 715.19z"/><path fill="#9dbcff" fill-opacity=".357" d="M898 560.181L397.363 660.205l11.813-97.27 367.71-265.673z"/><path fill="#f1b383" fill-opacity=".655" d="M401.997 98.28l127.827-22.312 57.54 175.691-208.037-34.27z"/><path fill="#1c1d2b" fill-opacity=".941" d="M661.84 60.927l-445.513 50.195L98.041 293.007-9.382-62z"/><path fill="#0260b3" fill-opacity=".992" d="M898 2.223l-64.044 420.94-70.217-210.288-80.612-256.477z"/><path fill="#000001" fill-opacity=".333" d="M620.615 275.439l29.1 730.31L737.94 82.47 161.274 526.243z"/><path fill="#ff5d4e" fill-opacity=".58" d="M709.262 809.684l56.222-93.585L898 749.897v127.2z"/><path fill="#a8c0ee" fill-opacity=".529" d="M137.828 662.506L125.092 815.16-62 892.822l322.622 9.158z"/><path fill="#000502" fill-opacity=".447" d="M6.97 143.392L45.692 509.29l229.999 71.16L-62 812.96z"/><path fill="#281200" fill-opacity=".486" d="M156.652 342.545l31.885 61.533 339.664-86.104-154.97-131.79z"/><path fill="#0183f6" fill-opacity=".949" d="M250.717 910L-62 911.381l157.085 113.51 171.78-75.504z"/><path fill="#ebfffa" fill-opacity=".271" d="M477.114 356.877l54.127-34.658 135.526 92.103-27.005 123.295z"/><path fill="#e5ebd3" fill-opacity=".671" d="M54.078 383.467l68.749-18.64L22.004 213.929l66.632-26.12z"/><path fill="#151e33" fill-opacity=".965" d="M553.955-62l107.359 168.78 111.593 94.53-171.804 183.22z"/><path fill="#c1b594" fill-opacity=".596" d="M153.603 524.864L44.67 470.804l111.946-29.859 84.614-57.622z"/><path fill="#ffcaa4" fill-opacity=".318" d="M485.274 41.068l45.345 346.783 60.3-213.953-65.783-99.65z"/><path fill="#b79156" fill-opacity=".69" d="M372.155 321.92l34.688-23.257 126.006 70.911-18.172 18.807z"/><path fill="#6392ce" fill-opacity=".769" d="M655.671 547.779l-19.159 88.483-176.76-3.813-52.411-89.472z"/><path fill="#fed4f0" fill-opacity=".208" d="M742.206 478.594L662.71 242.198 898 566.989l-201.13 50.438z"/><path fill="#372716" fill-opacity=".557" d="M585.302 149.419l-179.623-7.57-9.189 8.202 17.977 34.687z"/><path fill="#0a1e30" fill-opacity=".737" d="M681.572 874.096l-416.769-238.63 368.821 3.548 42.02-137.43z"/><path fill="#000008" fill-opacity=".365" d="M435.624 810.436L334.463 281.208 229.19 753.9l-57.283 81.357z"/><path fill="#4471c3" fill-opacity=".592" d="M114.742 679.475l11.584 154.593 64.816 2.861 60.806-205.052z"/><path fill="#1e4266" fill-opacity=".612" d="M606.327 538.69l-369.061 8.08-8.895-173.99 313.236 10.537z"/><path fill="#9ac1e2" fill-opacity=".839" d="M700.981 1009.06l156.958-67.976L642.046 1086l40.113-93.832z"/><path fill="#f9d3b7" fill-opacity=".314" d="M-34.154 909.453l298.734-31.19-3.184-31.432L-62 804.323z"/><path fill="#545853" fill-opacity=".808" d="M204.25 366.571L-4.651 490.313-62 787.418l153.986-324.86z"/><path fill="#f7c6a9" fill-opacity=".525" d="M391.639 251.21L534.776 70.723l-98.064 25.07 54.023 107.31z"/><path fill="#000c21" fill-opacity=".745" d="M221.43 63.606l-163.45 109L-62 374.298 92.285-17.289z"/><path fill="#8382d3" fill-opacity=".459" d="M672.857 700.872l65.945 162.255 23.31-138.261-59.15-41.137z"/><path fill="#d3f7ff" fill-opacity=".647" d="M608.582 505.286l25.227-27.407-45.586-52.537-17.261 30.549z"/><path fill="#3a2b1d" fill-opacity=".494" d="M687.258 24.287L490.547 75.205 362.12 141.364 314.537-62z"/><path fill="#00020d" fill-opacity=".424" d="M101.859 548.296l-65.936-28.898 6.502 163.006 82.998 155.549z"/><path fill="#1c2c3d" fill-opacity=".882" d="M655.03 883.249l38.553-126.843 29.49 208.268-26.27 47.418z"/><path fill="#f1e2cb" fill-opacity=".827" d="M172.562 499.295l-26.261 5.532 23.011-60.927 24.73 15.111z"/><path fill="#162f62" fill-opacity=".427" d="M627.773 450.073l40.808 113.683 95.197-125.41-293.903-44.84z"/><path fill="#eef4de" fill-opacity=".455" d="M123.313 422.543l-95.396-194.1 90.68 85.452 76.175-84.39z"/><path fill="#003a7e" fill-opacity=".561" d="M848.369 399.845l-63.837-4.006-65.77-281.753 19.46-45.03z"/><path fill="#a77f95" fill-opacity=".314" d="M329.978 279.122l28.673-165.519-58.825-3.795-42.394 170.2z"/><path fill="#3f5c7e" d="M476.02 530.174l-6.044 103.823 56.17-176.836-176.38 1.63z"/><path fill="#b2e1ff" fill-opacity=".545" d="M244.9 1002.65l33.04 83.35-136.372-71.188 28.743-41.849z"/><path fill="#321e05" fill-opacity=".522" d="M429.498 330.387l72.829 16.845 38.676-79.351-97.022-58.894z"/><path fill="#d69d9c" fill-opacity=".439" d="M246.094 700.89l-17.3 16.472-31.682-52.235 33.46-69.888z"/><path fill="#0d2a3f" fill-opacity=".839" d="M650.269 917.382l-388.26-19.092L251.342 1086H544.65z"/><path fill="#9f1100" fill-opacity=".204" d="M871.03 842.635l-173.449-217.17-20.17-164.73 85.384 125.178z"/><path fill="#ff7f7a" fill-opacity=".192" d="M645.465 120.604l-36.664-72.92L719.94-62l-7.397 146.743z"/><path fill="#050d1f" fill-opacity=".506" d="M319.27 349.823l-183.246 54.629 30.262-92.706 231.116-26.107z"/><path fill="#6d7c43" fill-opacity=".467" d="M49.564 502.225l52.766 17.478 72.543 120.933L6.979 213.822z"/><path fill="#00040b" fill-opacity=".608" d="M23.036 484.775L-62 342.62l182.297 104.187-69.522-4.14z"/><path fill="#738dd0" fill-opacity=".494" d="M784.973 363.936l-50.844 80.88-54.014-49.036-1.18-70.374z"/><path fill="#91907c" fill-opacity=".537" d="M243.09-62l294.707 87.784 22.974 31.353L425.46 4.313z"/><path fill="#6b302f" fill-opacity=".373" d="M338.356 321.782l-62.64-159.975-14.618-95.73-118.737 97.42z"/><path fill="#00030a" fill-opacity=".816" d="M393.836 620.082l-166.242-43.49 47.426 245.585 13.182 37.691z"/><path fill="#060a19" fill-opacity=".439" d="M625.24 242.87L503.598 420.356l65.78-63.324 76.756 41.926z"/><path fill="#c7d8ef" fill-opacity=".459" d="M574.086 643.78l-18.19-39.325-31.258-59.312 55.884-6.75z"/><path fill="#0f1321" fill-opacity=".984" d="M557.291 30.933l49.431 159.094L614-40.578 274.576-62z"/><path fill="#c9eaff" fill-opacity=".251" d="M491.856 314.58l92.954 51.337 86.62 49.993 2.2 42.83z"/><path fill="#754c3f" fill-opacity=".706" d="M194.92 413.108l-41.52-55.29-20.648 71.415.697 69.342z"/><path fill="#294668" fill-opacity=".647" d="M119.25 546.951l-6.836 11.124 37.364 111.667 225.657-375.39z"/><path fill="#62b7ff" fill-opacity=".91" d="M814.042 892.317L898 884.874l-75.3 114.86-21.22-14.885z"/><path fill="#af7d5c" fill-opacity=".525" d="M451.476 177.85l-13.954 91.771 111.566-5.67-171.532-31.29z"/><path fill="#f7cfb9" fill-opacity=".51" d="M576.66 196.74L500.033 67.236l-81.447 67.456 93.904 1.994z"/><path fill="#0048b2" fill-opacity=".725" d="M429.86 560.036l-9.929 70.624 127.896-17.29-86.49-1.505z"/><path fill="#100d32" fill-opacity=".557" d="M892.024 606.19l-135.98 1.774-27.701 65.007 47.946-11.123z"/><path fill="#152a3f" fill-opacity=".992" d="M466.157 402.822l-151.063-21.79 40.786-44.081 202.009 66.1z"/><path fill="#012" fill-opacity=".365" d="M355.545 718.503l69.806-179.47-131.892-24.88L169.09 405.63z"/><path fill="#692a2b" fill-opacity=".506" d="M-62 35.175L-6.287-62l60.669 171.389-40.082 71.54z"/><path fill="#1a2336" fill-opacity=".875" d="M-24.454 197.73l86.333-82.34 39.89 186.572 53.134-116.972z"/><path fill="#3e5f86" fill-opacity=".702" d="M647.054 989.452l48.028 91.452-38.276-184.235-34.162-169.395z"/><path fill="#8e6869" fill-opacity=".361" d="M271.348 825.49L4.883 847.684-62 778.224l314.861 72.83z"/><path fill="#efbd76" fill-opacity=".384" d="M487.05 376.079l61.279-102.467-10.122 96.217L418.1 347.214z"/><path fill="#0183f7" fill-opacity=".773" d="M249.668 1002.196L79.223 913.317 53.948 1086l205.998-181.238z"/><path fill="#11141d" fill-opacity=".757" d="M399.002 308.927l-29.2 5.358-12.379-136.719 53.428 72.215z"/><path fill="#f7e7d2" fill-opacity=".302" d="M442.711 476.148l-63.887.747-14.174-8.126 133.308-16.379z"/><path fill="#2053a2" fill-opacity=".498" d="M176.837 826.018L85.66 692.797l87.635-34.096-73.284 165.343z"/><path fill="#00071b" fill-opacity=".588" d="M207.974 719.855l134.365 68.563 52.882-61.656L221.62 814.03z"/><path fill="#fbfbdb" fill-opacity=".361" d="M71.09 311.414l-24.345 66.374L152.27 224.721l24.82 35.044z"/><path fill="#b7d9ff" fill-opacity=".447" d="M853.317 827.376l-92.322 16.984L739.722 1086l46.78-72.655z"/><path fill="#fed4cf" fill-opacity=".286" d="M460.15 184.098l54.966 97.986L472 263.113l101.888-88.464z"/><path fill="#ff7154" fill-opacity=".227" d="M727.895 735.165l13.256 99.632 70.886 42.245L898 809.964z"/><path fill="#fddebf" fill-opacity=".392" d="M614.176 628.61l-30.947 4.906-191.654 4.308 24.54-9.55z"/><path fill="#020a16" fill-opacity=".62" d="M672.705 515.555l9.676 181.862-40.072 12.382-29.267 14.49z"/><path fill="#cfffff" fill-opacity=".18" d="M815.211 482.114l2.232 81.987-130.224 1.171 80.57-74.251z"/><path fill="#429fff" fill-opacity=".294" d="M217.385 822.872l-75.675 46.027-5.783-140.897 54.547-22.073z"/><path fill="#183552" fill-opacity=".839" d="M519.59 731.862l-57.15-97.159 145.702 6.147 75.508-86.204z"/><path fill="#0b0000" fill-opacity=".31" d="M400.66 162.72l3.645-15.646 124.784.338-18.085 31.284z"/><path fill="#885561" fill-opacity=".294" d="M887.27 416.274L662.717 296.73l109.204-39.535-6.705 225.545z"/><path fill="#385370" fill-opacity=".667" d="M487.584 796.124l120.38-283.356 73.404-67.084L551.673 638.23z"/><path fill="#f5c0ab" fill-opacity=".427" d="M443.242 109.305l48.133 84.56 39.085 10.739-71.942 15.456z"/><path fill="#4595ec" fill-opacity=".204" d="M311.753-62L222.188 43.936l-58.886-4.252L176.496-62z"/><path fill="#afdeff" fill-opacity=".451" d="M95.9 1085.77L-62 1027.044l85.882-40.567 25.89 2.606z"/><path fill="#497ce4" fill-opacity=".247" d="M332.559 87.994L325.35 70.34l-63.084 96.937 90.97 17.055z"/><path fill="#453741" fill-opacity=".58" d="M602.935 129.959l-8.402 156.504-50.027 79.516.647-81.378z"/><path fill="#bd9068" fill-opacity=".694" d="M367.884 156.139l104.96 46.151-44.48-16.917-6.94 80.359z"/><path fill="#175ebd" fill-opacity=".761" d="M619.85 602.223l-37.012.305 58.673 36.655-1.746-43.84z"/><path fill="#170604" fill-opacity=".518" d="M437.941 248.894l-8.589-6.317 49.187-25.912 17.426 38.189z"/><path fill="#0182e9" fill-opacity=".231" d="M867.514 375.83l12.265-348.656-244.74-52.283 134.899 153.291z"/><path fill="#05161a" fill-opacity=".565" d="M173.108 670.39L34.936 501.02 88.91 704.956 279.957 546.54z"/><path fill="#b88470" fill-opacity=".329" d="M752.09 570.548l-54.38 84.542-8.913-148.213-39.781-52.967z"/><path fill="#839971" fill-opacity=".463" d="M32.223 408.777l11.263-186.204 1.984 277.15 45.522 2.006z"/><path fill="#0064e9" fill-opacity=".388" d="M505.022 564.922l46.776-15.394-27.28 74.9-30.673 6.713z"/><path fill="#e4e9dc" fill-opacity=".498" d="M70.17 189.068l-32.264 18.206 94.969 148.372-76.53 13.595z"/><path fill="#fef2dd" fill-opacity=".388" d="M429.585 531.526l-9.264 41.92-6.99 49.183-16.125 15.47z"/><path fill="#020809" fill-opacity=".631" d="M531.637 276.77l-111.054 31.786 72.647 32.066 43.916-64.108z"/><path fill="#211423" fill-opacity=".565" d="M184.688 95.219l63.99 41.607L521.906-62l-218.57 42.833z"/><path fill="#21456f" fill-opacity=".38" d="M593.86 633.425l77.735 408.942-54.13 43.633-36.47-360.607z"/><path fill="#97cdfb" fill-opacity=".463" d="M260.423 906.392L-62 904.444l308.137-63.014 14.913-21.752z"/><path fill="#6a706e" fill-opacity=".494" d="M375.1 53.283l138.606-39.248-97.562 16.213L506.216-62z"/><path fill="#fde6cb" fill-opacity=".278" d="M522.998 559.403l-33.918 11.395 7.966 85.705-24.746-57.069z"/><path fill="#7d9150" fill-opacity=".349" d="M66.983 345.691L21.38 238.95l3.793 143.094 91.053 56.6z"/><path fill="#0f2142" fill-opacity=".655" d="M765.085 253.04l-112.63 50.256-21.76-67.113L736.4 122.414z"/><path fill="#fffae5" fill-opacity=".294" d="M604.273 576.876l-42.37 23.877-123.355 5.022 142.945 4.216z"/><path fill="#78769c" fill-opacity=".596" d="M210.804 706.794l40.678 16.207-4.505-59.026-57.29-8.223z"/><path fill="#712728" fill-opacity=".467" d="M763.387 712.787L898 704.046l-40.257 46.149-82.042 8.166z"/><path fill="#31344d" fill-opacity=".675" d="M-62 885.92l91.803-185.309 85.214-21.304-18.497 64.649z"/><path fill="#161208" fill-opacity=".533" d="M503.267 72.648L421.36 97.523l-54.16 2.973 52.408-58.802z"/><path fill="#345276" fill-opacity=".78" d="M291.47 385.712l-124.243 49.52 135.061 48.837-63.513-119.791z"/></svg>