<svg xmlns="http://www.w3.org/2000/svg" width="228" height="278" viewBox="0 0 836 1024"><path fill="#574c48" d="M0 0h836v1024H0z"/><g fill-opacity=".502"><path fill="#fff" d="M614 1082l-364-80 164-864z"/><path fill="#0a0000" d="M842 994L342-62h556z"/><path fill="#d9f0ff" d="M386 1038l148-708-312 100z"/><path d="M706 382l64 364-312 228zm-468 36L-6-62l76 896z"/><path fill="#ac562a" d="M346 442l240-212L250 62z"/><path d="M-62 1038l320-52 44-412z"/><path fill="#fff" d="M274 522l324-144-116-60z"/><path fill="#dff1ff" d="M602 1086L474 978l208-164z"/><path fill="#dbedff" d="M570 794L462 530l-228 472z"/><path fill="#000710" d="M630 934L478 486l180-228z"/><path fill="#f1ffff" d="M346 618L222 482l104-132z"/><path fill="#1d2a3e" d="M402 570l-200 64 264-4z"/><path d="M782-54L498 150 190 50zM518 942l116-208-180 164z"/><path fill="#412207" d="M378 462L-62 42 190-62z"/><path fill="#8a583d" d="M814 654L598 34l192 264z"/><path fill="#eb9d6c" d="M446 166l-24 192-160-168z"/><path d="M342 446l112-104-96 32z"/><path fill="#b9bebb" d="M590 486l-24 72 92-4z"/><path fill="#fff" d="M422 402l56-84 116 72z"/><path d="M354 1046l-172 40 20-140z"/><path fill="#ef8246" d="M458 890l-176 196 216-92z"/><path fill="#b06949" d="M898 562l-148-48 64 224z"/><path fill="#f1ffff" d="M250 546l88-192-108 88z"/><path fill="#e8ffff" d="M302 766l72 292-112-84z"/><path fill="#000001" d="M298 778l-76-336-24 540z"/><path fill="#785747" d="M174 1014L-58 842l236-100z"/><path fill="#050106" d="M474 294l144-92 124 308z"/><path fill="#060000" d="M614 934l112-16-4 148z"/><path d="M822-62L674 38l224 276z"/><path fill="#a95715" d="M118 222l24-284 68 284z"/><path fill="#683f23" d="M-62-2L6 802l80-440z"/><path fill="#fff" d="M642 930l40-80-48-4z"/><path fill="#000302" d="M70 422L58 122l216 480z"/><path fill="#868774" d="M250 618l-84-72-56 156z"/><path fill="#03080c" d="M898 862L482 490l72 200z"/><path fill="#9d3d00" d="M422 518l-4-56-36 72z"/><path fill="#d1e2ff" d="M262 586l-8-176 184 160z"/><path fill="#d4dcf3" d="M450 378l96 408-176 196z"/></g></svg>