<svg xmlns="http://www.w3.org/2000/svg" width="228" height="278" viewBox="0 0 836 1024"><path fill="#605f62" d="M0 0h836v1024H0z"/><g fill-opacity=".502"><path fill="#300000" d="M230 578l-272 468 604 40z"/><path fill="#a1d6e7" d="M238 530L122-62-62 1070z"/><path d="M262 278l436 64-36 520z"/><path fill="#cacbcc" d="M562 1078L294 538l592 484z"/><path fill="#8ac3d4" d="M802 214l96 828-220-548z"/><path d="M814 894l-432-84 428-36z"/><path fill="#ffb787" d="M286 550l-8 184 356 104z"/><path fill="#deb091" d="M630 298l24-228-348 44z"/><path fill="#640000" d="M194 1086l-60-368 400 72z"/><path fill="#001021" d="M334 210l368 208-504 180z"/><path fill="#35caff" d="M366 362l-104 96 116 20z"/><path fill="#89c2e4" d="M514 1086l-24-256 408 84z"/><path fill="#a9d0da" d="M630 618l-120 68 52 100z"/><path fill="#a6b8b4" d="M330 290L2 230l-40 232z"/><path fill="#afc3c2" d="M202 278L46 34l136-96z"/><path d="M278 730l-160 64 144-304zm204-308l-172 72 184 160z"/><path fill="#302c18" d="M246 14l652-68-144 156z"/><path fill="#fec4ae" d="M290 726l-12-176 140 12z"/><path fill="#738a91" d="M898 642L698 774 598 450z"/><path fill="#f3fffd" d="M530 530l-52 56 56 16z"/><path d="M718 750L598 862l232 24z"/><path fill="#000008" d="M34 934l-96 148 576-12z"/><path fill="#b70811" d="M158 750L50 910l200 100z"/><path fill="#4b615e" d="M522 70L186-62l4 552z"/><path fill="#400000" d="M82 782l380 304 4-292z"/><path fill="#c08d7f" d="M454 314l132 12-120-184z"/><path fill="#547d8d" d="M18 786l164-372-244 4z"/><path fill="#ffba9b" d="M430 714l192 68-24 52z"/><path fill="#7b9da7" d="M858 1006l40-736-224-32z"/><path fill="#ffd1b4" d="M650 90l-16 80-132-96z"/><path fill="#030000" d="M478 294l76 328 100-16z"/><path fill="#001023" d="M586 1086L446 934l-204 84z"/><path fill="#000009" d="M270 406l-64 184 116-52z"/><path fill="#8fbacf" d="M658 758l192 8-96-80z"/><path fill="#040915" d="M390 426l68-196-160 80z"/><path fill="#9fbfce" d="M98 474l36 280 88-212z"/><path fill="#85aac2" d="M798 1086L458 946l432-68z"/><path fill="#4d2913" d="M702 166l-216-16 120 44z"/><path fill="#dd161e" d="M202 798l-60 132 164-196z"/></g></svg>