<svg xmlns="http://www.w3.org/2000/svg" width="228" height="278" viewBox="0 0 836 1024"><path fill="#8c514d" d="M0 0h836v1024H0z"/><g fill-opacity=".502"><path fill="#97f0ff" d="M22 646l-84 424 340-56z"/><path fill="#f60f00" d="M90 678l16-348 664 40z"/><path fill="#8d0000" d="M150 842l456-244 100 396z"/><path fill="#95deec" d="M814 730L618 574l144 512z"/><path fill="#0af" d="M230 1086l316-128 324 80z"/><path fill="#afefe3" d="M838 490l8-192-220 16z"/><path fill="#2c0d11" d="M482 990l-248-92-116-452z"/><path fill="#467d66" d="M-2 466L506-6-62 2z"/><path fill="#380000" d="M514 446l240-4-216 236z"/><path fill="#78a7d6" d="M534 610l-192 92-160-144z"/><path fill="#ff2e2a" d="M682 334l-288-60 504 364z"/><path fill="#02090e" d="M146 118L282-62l120 172z"/><path fill="#b3100b" d="M726 914l-512 132 340-436z"/><path fill="#194125" d="M382 450L202 330l224 12z"/><path fill="#ba916c" d="M30 438l148-320 240 32z"/><path fill="#900" d="M658 410l176 404 60-156z"/><path fill="#f71712" d="M86 490l144 276-100 64z"/><path fill="#29777e" d="M266 722L18 1086l232-152z"/><path fill="#ff2617" d="M134 306l376 268-240-4z"/><path fill="#afc8bd" d="M698 886l-44-340 104 52z"/><path fill="#008aff" d="M734 1010l-428 76 212-128z"/><path fill="#000009" d="M814 1086l84-288-80 52z"/><path fill="#684538" d="M890 334L266 118 826-62z"/><path fill="#0f0f18" d="M602 462l132-16-104 200z"/><path fill="#cb0900" d="M246 682l232 16-136 96z"/><path fill="#ff2219" d="M254 906l16 180 152-104z"/><path fill="#3a171e" d="M566 930l-140 80-200-228z"/><path fill="#ff2a22" d="M474 278l204 84-268 148z"/><path fill="#658a9c" d="M818 1042l-112-36 104-204z"/><path fill="#bbc0c4" d="M30 1086l80-420-172 104z"/><path fill="#1b1003" d="M282 218l-140-24 160-16z"/><path fill="#c098a1" d="M214 570l44 112 216 4z"/><path fill="#540000" d="M206 734l4-196-104 124z"/><path fill="#4d729c" d="M518 662l12-96-256 32z"/><path fill="#626a68" d="M98 726L66 94-62 690z"/><path fill="#b9bfbd" d="M770 842l-124-64 12-232z"/><path fill="#82b6a7" d="M114 798l140 288 4-172z"/><path fill="#ec2820" d="M510 854l228 144-56-140z"/><path fill="#400100" d="M594 418l204 164-256-72z"/><path fill="#6dcdb0" d="M214 734l44 12-32-92z"/></g></svg>