<svg xmlns="http://www.w3.org/2000/svg" width="228" height="278" viewBox="0 0 836 1024"><path fill="#a56b6a" d="M0 0h836v1024H0z"/><g fill-opacity=".502"><path fill="#780000" d="M334 1086l404-596-556-168z"/><path fill="#e4e3e2" d="M826 1086L514 94l384 4z"/><path fill="#c6cbc8" d="M-30 814l416-704-408-56z"/><path fill="#ac0000" d="M206 1002l460-728-96 812z"/><path fill="#8fd6d1" d="M-62 942l280 144 60-480z"/><path fill="#e70514" d="M454 414l172-124 164 352z"/><path fill="#5e070a" d="M-62 914l568-492-276-32z"/><path fill="#e5fff7" d="M686 178L446 426l52-240z"/><path fill="#242913" d="M410 450l20-440-116 48z"/><path fill="#cbf7f0" d="M834 286l-140 800 204-96z"/><path fill="#2b1c00" d="M710 762L602 594l88 408z"/><path fill="#b01317" d="M870 98L234 42 822-62z"/><path fill="#e0ffff" d="M178 158l-240 56 460 16z"/><path fill="#ddebce" d="M614 590l100-20 16 240z"/><path fill="#8cd4db" d="M518 430l-4 124-80-36z"/><path fill="#750412" d="M278 650l416-160-460 580z"/><path fill="#96d1cd" d="M586 1086l88-100-68-308z"/><path fill="#c06f6e" d="M778 298l-228-76 240 536z"/><path fill="#9ebec0" d="M90 522l180 240V650z"/><path fill="#ff2131" d="M430 1058l108-432 40 416z"/><path fill="#b4c2c1" d="M590 294l308 20L638-30z"/><path fill="#719796" d="M254 594l260 32-92 44z"/><path fill="#b05958" d="M166 314L-62 742l16-428z"/><path fill="#e7c697" d="M558 174l-136 80-56-84z"/><path fill="#88000b" d="M118 534l248 100-8-344z"/><path fill="#9a9d93" d="M794 474l-4 612-96-280z"/><path fill="#103623" d="M446-10l76 88H322z"/><path fill="#460007" d="M654 530l-128-84 48 364z"/><path fill="#b8c6c1" d="M370 314l-224-20L314 66z"/><path fill="#fff" d="M814 478l84 320-88 288z"/><path fill="#3d3b22" d="M50 838l-68-84 324-232z"/><path fill="#4f4326" d="M414 406l84-88-160-128z"/><path fill="#ffe2ae" d="M506 190l-108-72 44-40z"/><path fill="#f51e27" d="M782 554L598 342l60 236z"/><path fill="#ecffff" d="M830 558l68-396-112 28z"/><path fill="#fbbbb4" d="M326 102L146 34l-156 80z"/><path fill="#fff" d="M406 394l168-104-92 100z"/><path fill="#98000b" d="M454 418l-4 164-236-180z"/><path fill="#adb1ac" d="M266 590L6 902l264-116z"/><path fill="#d21218" d="M654 94l244-12L762-62z"/></g></svg>