<svg xmlns="http://www.w3.org/2000/svg" width="228" height="278" viewBox="0 0 836 1024"><path fill="#64618a" d="M0 0h836v1024H0z"/><g fill-opacity=".502"><path fill="#fdffff" d="M570 1086l328-116-340-356z"/><path fill="#fff" d="M-62 626l224-96-112 556z"/><path fill="#005" d="M686 1078L190 354l-84 584z"/><path fill="#ffecf2" d="M226 478l672 168-164-300z"/><path fill="#00000c" d="M258 710l312-92-84 468z"/><path fill="#1a224a" d="M-62-46l16 572L502 26z"/><path fill="#000f00" d="M722 866l-76-412 112 100z"/><path fill="#0dffe1" d="M690 806l84 280 124-568z"/><path fill="#ffd5fa" d="M62 542L-62 982l216 104z"/><path fill="#442d26" d="M418 338L342-30l556 400z"/><path fill="#fff" d="M586 594l24 492 164-144z"/><path fill="#fef2f6" d="M898 498L526 298l32 192z"/><path fill="#2c1ca7" d="M170 334l344 140 88-120z"/><path fill="#dcceff" d="M134 402l56-104 240-52z"/><path fill="#1c0f37" d="M30 174l-92 420 276-72z"/><path fill="#ff2027" d="M118 890l48 196L26 870z"/><path fill="#1c0000" d="M690 762l76-84-208-144z"/><path fill="#b8b1ff" d="M482 562l-260-92 100-92z"/><path fill="#ffebff" d="M10 1086l-72-412 208-52z"/><path fill="#e4f2ff" d="M734 922l156 164 4-308z"/><path fill="#00003e" d="M546 594H334L198 466z"/><path fill="#4a0505" d="M638 506l92 148-60-252z"/><path fill="#3d20b3" d="M134 686l120 400 188-208z"/><path fill="#2c396d" d="M814 470l28-532H490z"/><path fill="#fff" d="M386 334l-32-80 120 140z"/><path fill="#ab9bed" d="M162 446L46 466l148-168z"/><path fill="#00caa2" d="M898 818l-208 68 88-252z"/><path fill="#fffffb" d="M626 358l24 236-132-116z"/><path fill="#d2d0cd" d="M514 606l-192-12-4 56z"/><path fill="#0a070f" d="M510 542l-4 332 84-288z"/><path fill="#fff" d="M710 554l72-140-100-60z"/><path fill="#00dcb5" d="M846 990l-156-12 56 108z"/><path fill="#0b0c17" d="M802 294l-8 100-232-100z"/><path fill="#fef" d="M538 822l52-232 96 496z"/><path fill="#fff" d="M510 398l36-40-88 32z"/><path fill="#525993" d="M410-18L54-62l220 428z"/><path fill="#180700" d="M478 386l76-112-156 32z"/><path fill="#230b83" d="M250 478L2 570l272-268z"/><path fill="#030022" d="M538 942L354 630l196 48z"/><path fill="#876336" d="M798 526l-200 48 108 68z"/></g></svg>