<svg xmlns="http://www.w3.org/2000/svg" width="228" height="278" viewBox="0 0 836 1024"><path fill="#868a9d" d="M0 0h836v1024H0z"/><g fill-opacity=".502"><path fill="#edf8ff" d="M898 1010L442 282-6 1086z"/><path fill="#171926" d="M-18 590L898 6-62-62z"/><path fill="#1d2a3d" d="M898 38l-88 668L478-30z"/><path fill="#fff" d="M866 658l32 428H110z"/><path fill="#f0c9b9" d="M626 442L154 34l480 164z"/><path fill="#3e74df" d="M618 822L322 494l120 516z"/><path fill="#5c5b13" d="M302 718l-60-288-304 196z"/><path fill="#fff" d="M-62 722l376-32-200 124z"/><path fill="#6298ff" d="M502 622l124-332-396 100z"/><path fill="#563838" d="M898 690l-276-4-72-192z"/><path fill="#b94c2b" d="M342 742L22 974l-84-112z"/><path fill="#fff" d="M634 1022H42l20-172z"/><path fill="#053a83" d="M258 210L-62 886 14-62z"/><path fill="#682a06" d="M370 390L542-62 198 290z"/><path fill="#ecedce" d="M366-18L214 34l-12 136z"/><path fill="#fadfd2" d="M286 338l200 272 32 352z"/><path fill="#2e334a" d="M554 286l344-44-196 244z"/><path fill="#1444bf" d="M546 670L430 478l120 416z"/><path fill="#ffb98a" d="M410 690l232-284 104 176z"/><path fill="#00159b" d="M450 530l112-20-124-80z"/><path fill="#efffff" d="M338 710l-8-400-68 140z"/><path fill="#dba48b" d="M194 38l112 208 304-20z"/><path fill="#160400" d="M438 130L606-62 282 66z"/><path fill="#fef6ff" d="M802 1086L634 722l264-28z"/><path fill="#fff" d="M386 1086l-88-304L62 970z"/><path fill="#be9c54" d="M714 86l32 188L894 98z"/><path fill="#0046fc" d="M398 634l-32-212-28 136z"/><path fill="#3b0500" d="M146 890l-96-84 144 36z"/><path fill="#d9c740" d="M254 514L150 714l-4-256z"/><path fill="#0c428e" d="M290 546l-40 88 100 196z"/><path fill="#fff" d="M630 478l-92-172 132 140zm-36 104l-8 240-96-344z"/><path fill="#aa5530" d="M434 702l144-60-176-16z"/><path fill="#0052ed" d="M462 834L362 638l64 308z"/><path fill="#0048fe" d="M662 902l-12-136 56 148z"/><path fill="#0649ff" d="M570 486l48-48-168-144z"/><path fill="#1b0400" d="M442 158l-4 124-132 136z"/><path fill="#9b5128" d="M782 602L598 494l-16 160z"/><path fill="#fff" d="M590 506l-96-124-108-28z"/><path fill="#2e4f84" d="M-62 670l280-552-112 584z"/></g></svg>