<svg xmlns="http://www.w3.org/2000/svg" width="228" height="278" viewBox="0 0 836 1024"><path fill="#919da9" d="M0 0h836v1024H0z"/><path fill="#212d29" fill-opacity=".522" d="M731.594 985.54L850.451 1086 898 368.346l-230.15-68.27z"/><path fill="#0f0b02" fill-opacity=".404" d="M-62 302.496l82.347 772.2 47.76-473.576 107.998-297.801z"/><path fill="#e3e8ff" fill-opacity=".62" d="M31.948 753.87l82.724-299.554 71.154 623.17L710.917 1086z"/><path fill="#a6d4fe" fill-opacity=".663" d="M137.212 394.268l117.301-133.846 418.012 51.903L515.94 554.071z"/><path fill="#743a20" fill-opacity=".529" d="M353.363 64.733L465.343-62l27.653 435.887-106.336-95.881z"/><path fill="#3c3c02" fill-opacity=".376" d="M513.708 627.384l-340.83-75.84 442.19-24.055-33.108 499.097z"/><path fill="#f1fff0" fill-opacity=".376" d="M867.356-7.796L514.105-2.98l15.4 379.122L882.943 164.18z"/><path fill="#f8faf9" fill-opacity=".49" d="M-62 135.02l383.242 2.907L382.476-.17-62 22.665z"/><path fill="#74abeb" fill-opacity=".655" d="M162.855 870.424l375.997 142.197-10.073-376.831-305.777-79.491z"/><path fill="#ebdeea" fill-opacity=".749" d="M675.49 486.795l-61.419 148.178 45.66 263.313 51.531-193.902z"/><path fill="#f4c76c" fill-opacity=".69" d="M735.496 1073.332l5.628-122.978-189.143-.13-20.466 124.212z"/><path fill="#587375" fill-opacity=".851" d="M98.391 941.205L-11.922 1086h-16.364l82.369-455.538z"/><path fill="#ce9c89" fill-opacity=".769" d="M204.541 1085.173l.092-192.955L88.137 779.924l-.218 262.933z"/><path fill="#97903c" fill-opacity=".992" d="M370.98 528.888l-55.486-61.784 8.482 129.36 269.134-2.532z"/><path fill="#da6a60" fill-opacity=".624" d="M219.865 155.262l-19.117-17.234-58.485-10.142L-62 452.658z"/><path fill="#3b63a3" fill-opacity=".459" d="M314.725 508.159l58.062 195.852-232.936-224.65 58.14-118.617z"/><path fill="#424d5c" fill-opacity=".647" d="M526.402 772.85l45.228-272.11 71.612 268.162-77.074 32.331z"/><path fill="#6d7b76" fill-opacity=".933" d="M791.008 900.915L898 966.65l-347.74-25.415-17.953-83.678z"/><path fill="#faf7f7" fill-opacity=".58" d="M341.527 458.61l-2.96-159.032-138.176 26.25 176.76-116.912z"/><path fill="#f1eeff" fill-opacity=".565" d="M173.087 511.076L100.439 853.84 57.737 638.988l53.814-147.807z"/><path fill="#fae6e6" fill-opacity=".396" d="M623.352 14.516L898 39.71l-492.521 83.866 3.502-52.35z"/><path fill="#137aff" fill-opacity=".227" d="M383.556 540.857l335.867 28.174-52.034-166.088-277.411 64.923z"/><path fill="#fafbff" fill-opacity=".6" d="M480.056 1086L288.742 910.19l46.331-268.778-108.354 417.306z"/><path fill="#515f63" fill-opacity=".471" d="M194.282 764.586l22.275-254.106-82.9 147.243 26.806 179.26z"/><path fill="#ff8f6e" fill-opacity=".412" d="M591.053 811.884l50.02 126.82 79.875-106.62-51.121-96.033z"/><path fill="#cbecff" fill-opacity=".451" d="M490.12 489.587l192.14-63.597-31.748-93.445-141.147-81.647z"/><path fill="#aa8376" d="M553.8 114.378l-58.868 112.026-139.322-71.342 115.09-20.077z"/><path fill="#000608" fill-opacity=".373" d="M339.64 62.706l65.472-46.19 104.907 13.533-156.251 57.322z"/><path fill="#684b3f" fill-opacity=".949" d="M373.016 208.226l135.388-12.621-72.096 120.114-32.241-27.05z"/><path fill="#f3f6ff" fill-opacity=".522" d="M507.956 351.346L412.094 500.97l10.77-179.772 91.123 125.196z"/><path fill="#dee3f4" fill-opacity=".753" d="M283.735 655.111l-74.552 359.401 34.615-105.37 37.37-154.797z"/><path fill="#4d5456" fill-opacity=".6" d="M591.238 270.437l68.155 71.82 93.512 396.097L898 417.706z"/><path fill="#7095c5" fill-opacity=".988" d="M534.63 607.425l-98.22-2.224-113.574 98.684 202.537 96.417z"/><path fill="#eb5347" fill-opacity=".525" d="M-62 145.034l176.703-9.78 66.228 18.074-215.977 15.33z"/><path fill="#b8ab31" fill-opacity=".851" d="M345.173 581.354l165.39 22.092 51.398-44.358-211.846-12.201z"/><path fill="#5172a4" fill-opacity=".988" d="M598.51 595.616l-30.299-88.784 69.101-70.07 1.636 116.515z"/><path fill="#fcffde" fill-opacity=".157" d="M36.23 109.43l-96.262 228.074L374.869 74.34l-76.42 343.191z"/><path fill="#f5eff7" fill-opacity=".416" d="M367.772 746.31l-1.04-172.861-21.335 154.942L282.853 1086z"/><path fill="#a4b7b5" fill-opacity=".863" d="M898 159.406v186.231l-410.377-119.76L617.67 106.1z"/><path fill="#017dd7" fill-opacity=".525" d="M288.005 449.104l7.042-151.013-22.583 103.27 2.698 111.932z"/><path fill="#d1d8ee" fill-opacity=".694" d="M343.047 975.694l-.848 75.864 55.832-290.757 8.147-143.363z"/><path fill="#0083e3" fill-opacity=".459" d="M475.646 318.875l-1.834 185.115 7.758 62.493 16.167-213.54z"/><path fill="#0068b8" fill-opacity=".416" d="M331.477 925.936l51.314-133.388 3.59-264.805-30.574 287.26z"/><path fill="#006cb7" fill-opacity=".255" d="M569.836 303.911l-60.91 275.565 8.1-311.817 44.56 279.878z"/><path fill="#fefbff" fill-opacity=".384" d="M651.315 693.075l38.244 185.75 19.033-206.881-71.755-187.96z"/><path fill="#010224" fill-opacity=".263" d="M204.657 511.5l362.283 43.328-310.653-17.396-5.823-120.972z"/><path fill="#5d2d19" fill-opacity=".525" d="M108.047 970.409l-15.726 4.979 95.419 97.35-91.883-136.044z"/><path fill="#5e7679" fill-opacity=".812" d="M703.467 726.237l-4.25 121.818L770.103 1086 898 983.43z"/><path fill="#fff9f8" fill-opacity=".675" d="M651.937 349.214l-145.404-38.859 13.53-65.221 94.97 67.62z"/><path fill="#ffece2" fill-opacity=".384" d="M422.044 1002.562l9.81-119.873 86.53-500.485-70.095 507.639z"/><path fill="#0481dc" fill-opacity=".278" d="M378.188 282.742l-76.82 268.237 20.565-241.822 42.914 228.929z"/><path fill="#f2eeff" fill-opacity=".475" d="M214.397 858.538l45.223-236.806 10.421-118.052 6.64 66.117z"/><path fill="#003f92" fill-opacity=".235" d="M428.438 986.076l92.76-539.816L437.135 1086l-122.855-3.72z"/><path fill="#0069c5" fill-opacity=".42" d="M364.548 1028.901l54.885-294.782 6.015-147.334-46.129 294.485z"/><path fill="#01589d" fill-opacity=".42" d="M340.082 773.606l20.016-389.386-32.573 341.611-11.406 92.787z"/><path fill="#e9e9f3" fill-opacity=".925" d="M110.178 594.649L61.36 721.47l30.322 98.188 55.937-21.537z"/><path fill="#e1e7f8" fill-opacity=".749" d="M459.773 540.111l-13.833-2.073 21.04-185.514 7.766 88.075z"/><path fill="#0163b2" fill-opacity=".408" d="M418.77 852.304l45.768-279.279-3.996 143.53-54.724 281.351z"/><path fill="#d0dbf6" fill-opacity=".612" d="M248.515 326.412L135.589 586.9l64.019-189.16 90.718-62.809z"/><path fill="#f8ecf0" fill-opacity=".42" d="M441.179 769.053l-66.642 223.164 87.299-429.714-40.204 152.682z"/><path fill="#78370a" fill-opacity=".282" d="M469.793 10.904l30.385 17.82 27.484 43.238-22.082 58.307z"/><path fill="#028ae5" fill-opacity=".443" d="M589.15 371.316l-2.933 123.617 19.699-84.997-3.305-82.52z"/><path fill="#026fd4" fill-opacity=".455" d="M672.606 430.261l-24.42-69.324 23.653 204.428-20.256-7.313z"/><path fill="#048fe9" fill-opacity=".384" d="M426.015 344.494l5.57 16.67-33.9-19.855-1.434 229.672z"/><path fill="#fef2ff" fill-opacity=".467" d="M380.044 533.578l-17.388 9.996 33.061-217.552-2.747 140.488z"/><path fill="#4e595d" fill-opacity=".624" d="M-60.187 924.358l222.544-567.175 64.521-64.501L-62 412.8z"/><path fill="#f2e7fc" fill-opacity=".42" d="M212.793 628.766l34.914-82.382 2.025 49.484-36.232-70.086z"/><path fill="#005095" fill-opacity=".49" d="M315.452 631.457l9.058-167.177-22.975 170.726L269.74 869.8z"/><path fill="#1585e0" fill-opacity=".416" d="M266.73 723.454l13.556-98.37-23.886 55.41-49.895 293.128z"/><path fill="#a4b3de" fill-opacity=".592" d="M628.502 573.21L600.33 443.933l21.429 286.112 53.246-150.305z"/><path fill="#1a8ff6" fill-opacity=".337" d="M121.339 461.854l34.434 68.72 51.51-182.605 71.901-48.7z"/><path fill="#fffdfa" fill-opacity=".216" d="M80.977 757.437l106.429 257.672-34.373-200.411 320.033 92.544z"/><path fill="#0058b5" fill-opacity=".42" d="M195.69 442.512L173.594 551.23l35.787-92.919 61.16-126.236z"/><path fill="#bdc9e5" fill-opacity=".596" d="M523.567 777.127l6.938 108.258-30.558 182.19 53.732-84.208z"/><path fill="#d0d2e4" fill-opacity=".769" d="M64.814 760.268l91.57-356.747 79.957-111.433-71.625 132.102z"/><path fill="#a7acb0" fill-opacity=".914" d="M413.26-62L-31.15 18.244l539.764-6.585 241.722 1.78z"/><path fill="#ffeb64" fill-opacity=".478" d="M79.278 984.897l23.827 8.451L215.293 1086 .303 1068.017z"/><path fill="#c6cee6" fill-opacity=".859" d="M420.975 373.972l-6.892-60.454 95.668 23.578 21.782-63.51z"/><path fill="#fee9bc" fill-opacity=".337" d="M281.823 932.988L348.27 513.68l15.063-226.119-29.867 221.16z"/><path fill="#eceff8" fill-opacity=".733" d="M288.18 1086h178.622L323.494 924.782l-130.295-12.114z"/><path fill="#c0cae3" fill-opacity=".804" d="M451.564 1007.057l26.99-88.592 10.879-142.475-15.397 63.208z"/><path fill="#c35a59" fill-opacity=".471" d="M-56.258 430.97L-62 376.308l287.951-249.664L34.532 369.042z"/><path fill="#aebbb9" fill-opacity=".635" d="M147.995 167.323L-62 182.015l117.158 132.32-5.601-24.998z"/><path fill="#4f7e7c" fill-opacity=".502" d="M107.217 807.521L92.353 943.938l-.53 35.814L-62 1056.226z"/><path fill="#002270" fill-opacity=".251" d="M251.624 818.601l199.531-12.289 83.807-8.008-86.408 27.011z"/><path fill="#0b8fef" fill-opacity=".365" d="M303.493 848.397l44.896-143.19-50.173 249.445-6.31-59.427z"/><path fill="#004867" fill-opacity=".275" d="M535.225 970.77l-2.513-66.48 77.576-31.563 25.475-60.67z"/><path fill="#fde8ec" fill-opacity=".369" d="M592.845 404.998l-123.664 3.524 104.466 17.99-41.551 226.81z"/><path fill="#6c5000" fill-opacity=".333" d="M372.295 511.13l-55.112-38.961-7.8 104.432 19.895 8.618z"/><path fill="#e0e9ff" fill-opacity=".447" d="M368.084 233.985l-198.36 221.036 112.62-186.157 131.03 45.013z"/><path fill="#e8baae" fill-opacity=".847" d="M704.906 847.416l-16.604-108.143-31.099-.557-55.724 68.295z"/><path fill="#0097f3" fill-opacity=".345" d="M248.052 869.119l45.1-95.185L271.6 889.3l-4.59 46.473z"/><path fill="#dde8ff" fill-opacity=".416" d="M251.96 727.171l-48.438 175.05 47.965-283.708-40.696 50.647z"/><path fill="#edf5ff" fill-opacity=".42" d="M685.171 528.958l11.633 167.004-61.592 53.648-19.712-64.576z"/><path fill="#4d5255" fill-opacity=".671" d="M757.234 766.837l54.985-304.58-121.05 67.031 2.385 104.113z"/><path fill="#015db2" fill-opacity=".439" d="M474.368 987.935l20.537-64.527 8.768-194.6-11.495 85.61z"/><path fill="#005eab" fill-opacity=".412" d="M432.197 440.957l-5.826 161.81 25.946-129.423-.42-29.175z"/><path fill="#ffe2ce" fill-opacity=".243" d="M309.363 201.043l-13.354 153.733-5.719 219.528 26.097.568z"/><path fill="#bcc8e5" fill-opacity=".953" d="M588.066 1071.423l-100.53-104.285 32.485-200.93L489.535 1086z"/><path fill="#465d80" fill-opacity=".98" d="M332.237 473.97l-62.098 15.223-46.232-52.625 38.544 71.535z"/><path fill="#d7ab95" fill-opacity=".494" d="M350.15 113.704L486.722 45.68l46.26 162.225-65.38-95.314z"/><path fill="#845a54" fill-opacity=".416" d="M345.036 64.852l28.836 172.436 151.03.435L496.99 316.4z"/><path fill="#8b8a9c" fill-opacity=".612" d="M413.962 401.65l-83.487 8.744-76.928-26.168 39.583 3.157z"/><path fill="#781e01" fill-opacity=".129" d="M780.789 815.487L629.842 983.903l-10.699-358.736-22.125 253.385z"/><path fill="#edeef6" fill-opacity=".439" d="M166.134 839.886l12.637-54.511 37.431-60.424 15.072-6.728z"/><path fill="#fef2f3" fill-opacity=".435" d="M491.835 382.492l7.098 158.744L520.85 408.89l-27.636-117.493z"/><path fill="#a1b1b4" fill-opacity=".976" d="M334.85 256.14l36.24-66.115-268.257 74.539 95.952 38.953z"/><path fill="#7e908d" fill-opacity=".506" d="M638.773 281.844l132.064 2.694-72.752 65.956-113.484-61.41z"/><path fill="#231a0f" fill-opacity=".518" d="M397.843 541.261l-46.736-4.494 135.57 17.695 81.915-3.316z"/><path fill="#9ba9cb" fill-opacity=".478" d="M509.27 682.67l87.927-225.287-110.577 320.72 17.668-188.593z"/><path fill="#0a0200" fill-opacity=".337" d="M458.534 111.467l-75.59 33.482-27.7-38.725 97.312 41.084z"/><path fill="#b7bbda" fill-opacity=".745" d="M197.983 536.785l-38.039-16.292-59.282 73.424 38.774 39.638z"/><path fill="#c1ceec" fill-opacity=".722" d="M660.12 453.397l-24.933 248.968 9.043-255.962-39.135-167.223z"/><path fill="#2f436a" fill-opacity=".631" d="M612.748 451.222l-12.545 125.212-13.498-83.33-51.45 165.4z"/><path fill="#f3eaf4" fill-opacity=".286" d="M405.956 768.905l-63.408 183.24 73.88-370.78-27.915 60.129z"/><path fill="#7988ae" fill-opacity=".514" d="M167.022 892.2l77.096 193.8h12.15l-66.718-70.369z"/><path fill="#eedfe0" fill-opacity=".369" d="M427.294 663.325l12.25-92.863 7.21 104.856-27.907 145.913z"/><path fill="#d9e1f6" fill-opacity=".682" d="M404.469 534.956l13.507 2.308 12.976-30.61-6.28-88.443z"/><path fill="#e4e3fe" fill-opacity=".329" d="M231.087 434.875l48.183-102.863-11.005 191.364-8.76-109.12z"/><path fill="#dab2a6" fill-opacity=".714" d="M436.787 171.876l-35.197 5.596 8.943-50.47 36.022 43.873z"/></svg>