<svg xmlns="http://www.w3.org/2000/svg" width="228" height="278" viewBox="0 0 836 1024"><path fill="#7f6d6d" d="M0 0h836v1024H0z"/><g fill-opacity=".502"><path d="M266 2l-92 1076 476-100z"/><path fill="#fff" d="M778 254L-62-10 898 2z"/><path fill="#d5ffe2" d="M-62-6V998L278 2z"/><path d="M254 1086L138 358l484 532z"/><path fill="#cbc5c6" d="M598 974L654-62l244 1148z"/><path fill="#c4ffff" d="M22 722l232 360-296 4z"/><path fill="#610018" d="M130 354l468-48 36 780z"/><path fill="#e4ffef" d="M250 618l328-40-196 88z"/><path fill="#f2f7ff" d="M414 186l296 304 140-52z"/><path fill="#470d00" d="M442 106L242 50l84 584z"/><path fill="#f6eddf" d="M462 278l-104-96 400-72z"/><path fill="#ffffd7" d="M466 542l-20-120 108 56z"/><path fill="#01fb6e" d="M10 1086l-72-368L66 502z"/><path fill="#325c70" d="M882 186l-356 28 224 172z"/><path fill="#290000" d="M634 526L526 826l40-552z"/><path d="M382 626l232 304-440 72z"/><path fill="#51442d" d="M662 498l-8 188 244-196z"/><path fill="#fff" d="M894 62L766-62 358 26z"/><path fill="#f3e5ee" d="M618 1086l280-92-240-136z"/><path fill="#fffffb" d="M190 1086l-12-188-180 32z"/><path fill="#ab747f" d="M306 218l-368-28 172 284z"/><path fill="#d68864" d="M54 698l176 72-28 152z"/><path d="M246 594l-80-164-40 284z"/><path fill="#f3e2e1" d="M-2-22l260 216-320-12z"/><path fill="#b50054" d="M414 454l28-196 160 80z"/><path fill="#f4cce9" d="M278 498v40l-80-44z"/><path fill="#dbc4b6" d="M694 790l204-196-120-72z"/><path fill="#228b88" d="M138 438l40 208-212 32z"/><path fill="#b37268" d="M606 870l272 8-268-192z"/><path fill="#e3fbf2" d="M526 562l24 48-84 24z"/><path fill="#210000" d="M554 638l-36-300 104 148z"/><path fill="#dffff5" d="M-62 386l188 56L18 542z"/><path fill="#070000" d="M578 622l-256 464-116-404z"/><path fill="#baf0ff" d="M598 294l216 132-192 88z"/><path fill="#170000" d="M322 466l-76-364 260 496z"/><path fill="#d2ffd2" d="M522 426l8 100-80-92z"/><path fill="#5c9eac" d="M782 490L618 382l8 140z"/><path fill="#dae9e8" d="M898 150l-444 84-8-124z"/><path fill="#790029" d="M634 1010l-276 12 276-124z"/><path fill="#9ea490" d="M446 622l-220-4 40 52z"/></g></svg>