<svg xmlns="http://www.w3.org/2000/svg" width="228" height="278" viewBox="0 0 836 1024"><path fill="#5b5764" d="M0 0h836v1024H0z"/><g fill-opacity=".502"><path fill="#fff" d="M126 1058l388-952 56 964z"/><path d="M114-62L270 986l-332-88z"/><path fill="#e1efff" d="M478 1086l140-712-388 28z"/><path fill="#060000" d="M898 1002L514 850 786-62z"/><path fill="#0f092c" d="M222-54l456 552L898 2z"/><path fill="#b9caf5" d="M162 614l180-328 284 800z"/><path fill="#110d15" d="M226 10L-62-2l260 948z"/><path fill="#d5e5ff" d="M846 1026L358 886l-420 132z"/><path fill="#9d7a3d" d="M202 130l240 292 120-316z"/><path d="M-62 542l412-264-184 292z"/><path fill="#d3d9f7" d="M778 726l-96-76 56-108z"/><path fill="#7480a4" d="M190 586l44 500 248-464z"/><path fill="#120000" d="M558 938h340L598 510z"/><path fill="#fff" d="M230 478l392 100-316-220z"/><path fill="#cbcede" d="M22 430l36 56 104-116z"/><path fill="#1f0e01" d="M322 330l124 88 24-176z"/><path fill="#f8c9ac" d="M882 522l-236-48 128-24z"/><path fill="#fff" d="M350 614l132-276 104 36z"/><path d="M218 1018l28-176 24 216z"/><path fill="#f9f7fb" d="M830 698l68-232-88 104z"/><path fill="#05108b" d="M730 78L518 358l40-420z"/><path fill="#1d0000" d="M-62 954l72-576 200 536z"/><path fill="#ffe0a2" d="M426 102l108 28 4 116z"/><path fill="#fff" d="M530 806l44 228-264 52z"/><path d="M406-50l-96 160 260-4z"/><path fill="#13151d" d="M242 594l204 44-140 12z"/><path fill="#c1d0f5" d="M246 762l128-12-184-180z"/><path fill="#feffff" d="M614 454l-36-80 16 188z"/><path fill="#56648d" d="M122 222l16-284L38 150z"/><path fill="#090209" d="M514 346l-4-108 388 32z"/><path fill="#000105" d="M-62 490V134l272 160z"/><path fill="#afbddf" d="M898 970l-236-8 184 124z"/><path fill="#871f4e" d="M490 462l100-24-32 116z"/><path fill="#000003" d="M638 590l-48-280 136 284z"/><path fill="#fff" d="M234 934l-12-84-32 148z"/><path fill="#2b2e55" d="M470 590l8 48 128-44z"/><path fill="#cbd9ff" d="M362 654l192-20-24 244z"/><path fill="#9cabd0" d="M514 858L262 646l-12 404z"/><path fill="#000206" d="M898 870l-352-40 24 136z"/><path fill="#8e877c" d="M250 26l156 288H218z"/></g></svg>