<svg xmlns="http://www.w3.org/2000/svg" width="228" height="278" viewBox="0 0 836 1024"><path fill="#91868c" d="M0 0h836v1024H0z"/><g fill-opacity=".502"><path d="M898 26L-62-62 58 254z"/><path fill="#edebf6" d="M898 278l-340 808-444-648z"/><path fill="#2e2621" d="M210 590l128 496-348-44z"/><path fill="#600" d="M678 754l132 332 88-484z"/><path fill="#fdffff" d="M338 970l376-128 68 244z"/><path fill="#ffd6c9" d="M674 562L254 126l156-44z"/><path fill="#000002" d="M782 518L594 622l-32-64z"/><path fill="#6a6467" d="M486 126l412 568-80-640z"/><path fill="#2a1107" d="M414 386l-108 72-64-244z"/><path fill="#fff" d="M226 542l308-264 192 164zm588 128l-360 4 348-140z"/><path fill="#00000b" d="M898 14L694 134 434-62z"/><path fill="#a1898d" d="M-50 866l764-36-284-228z"/><path fill="#fff" d="M150 786l-20-100-192 144z"/><path fill="#22232a" d="M402 390l76-200 128-20z"/><path fill="#001b28" d="M754 970l-80-296 132 72z"/><path fill="#ff361b" d="M830 634l68 452-148-16z"/><path fill="#000b19" d="M378 90L2 174-62-58z"/><path fill="#313f4d" d="M714 954L614 702l-4 152z"/><path fill="#fff" d="M146 454l136-88 16 292z"/><path fill="#bacadb" d="M298 706l4 308 188-28z"/><path fill="#000700" d="M174 786l-48-128 120 36z"/><path fill="#fff" d="M238 50L350-58l-156-4z"/><path fill="#cf8674" d="M366 398L266 214 582 82z"/><path fill="#b32435" d="M486 642l-156-4-132 92z"/><path d="M570 1086l-88-80H306z"/><path fill="#f6feff" d="M758 1086L450 842l156-20z"/><path fill="#000714" d="M82 890l212-28-144 108z"/><path fill="#fff" d="M618 566l116-60-160-24z"/><path fill="#5d3b4b" d="M378 562l76-28-28-80z"/><path fill="#f9fdff" d="M462 438l-16 176 176 76z"/><path fill="#aba3a4" d="M618 346l84-252 124 188z"/><path fill="#faffff" d="M650 810l24-104 52 232z"/><path fill="#322928" d="M674 222l-108 32-132-116z"/><path fill="#9e0526" d="M338 518l-12 72-24-76z"/><path fill="#fff" d="M810 638l-60-92-308 156z"/><path fill="#564875" d="M642 474l16 40 124-108z"/><path fill="#2d3844" d="M650 698l-40 108-20-108z"/><path fill="#ebf0ff" d="M374 530l-100 84 176 20z"/><path fill="#fff" d="M674 370l-168-76 116 240z"/></g></svg>