<svg xmlns="http://www.w3.org/2000/svg" width="228" height="278" viewBox="0 0 836 1024"><path fill="#5f5e68" d="M0 0h836v1024H0z"/><g fill-opacity=".502"><path fill="#dbdff7" d="M398 38L-62 230l768 776z"/><path d="M254-50l584 12 60 624zM-62 998l388 88-140-576z"/><path fill="#a8bfef" d="M606 274l-272 40 60 772z"/><path fill="#0d0000" d="M898 942L582 338l132 748z"/><path fill="#fef2b8" d="M202 82L46 622-46 78z"/><path fill="#0033c7" d="M466 1038l192-68-212-500z"/><path d="M398 202L818-62l80 520z"/><path fill="#f0b178" d="M26 710l440-96-436-72z"/><path fill="#fff" d="M634 786L534 502l20 344z"/><path fill="#975221" d="M74-62L474 90 362 354z"/><path fill="#ffe39c" d="M754 806l120-52-60-196z"/><path fill="#001692" d="M198 650l-28-328-104 84z"/><path fill="#0f0700" d="M390 730l-452-48 96 404z"/><path fill="#150000" d="M-62 70l492-36L38-62z"/><path fill="#fffff9" d="M482 338l72-100 24 372z"/><path fill="#3b7be2" d="M834 1086l-520-4-44-264z"/><path fill="#fffadb" d="M134 270l96-212 16 460z"/><path fill="#ffffec" d="M470 902l-48-380-52 376z"/><path fill="#080d19" d="M622 762l-72-520 244 476z"/><path fill="#002198" d="M442 182l-24 252 92-16z"/><path fill="#2b6bf8" d="M554 254l24 192 192 20z"/><path fill="#0e43c7" d="M250 606V274l104 196z"/><path fill="#ffc57f" d="M674 494l52-72 172 252z"/><path fill="#b0e7ff" d="M674 798l-88 216 84 72z"/><path fill="#073495" d="M498 878l40-404-108 44z"/><path fill="#010000" d="M626 234L830-62l68 756z"/><path fill="#003" d="M346 642l-80 72 120 256z"/><path fill="#083caa" d="M666 982H294l348-168z"/><path fill="#fffff9" d="M350 562l-16-200 108-96z"/><path fill="#ffffa0" d="M190 262L70 422-62 286z"/><path fill="#fcfbd5" d="M262 778l36 164 36-44z"/><path fill="#fff" d="M554 826l-28-284 120 272z"/><path fill="#0a0400" d="M658-62L418 238l240 48z"/><path fill="#ffc1ac" d="M582 422l-148 84-232-32z"/><path d="M-58 1030l332-176 36 232z"/><path fill="#664133" d="M82 626l172-160 16 152z"/><path fill="#f9ffff" d="M526 274l-60 92 8-116z"/><path fill="#76160a" d="M-42 538l32 160 92-264z"/><path d="M702 934l-44 152 240-96z"/></g></svg>