<svg xmlns="http://www.w3.org/2000/svg" width="228" height="278" viewBox="0 0 836 1024"><path fill="#91868c" d="M0 0h836v1024H0z"/><path fill="#f1eef9" fill-opacity=".525" d="M113.93 460.494l471.633-155.393L798.3 539.098 568.177 1086z"/><path fill="#171418" fill-opacity=".643" d="M898-62L-62 2.962 53.234 247.366 898 62.418z"/><path fill="#6f0500" fill-opacity=".596" d="M679.568 700.807L766.535 1029l97.092 4.407L898 655.202z"/><path fill="#29221e" fill-opacity=".486" d="M-3.607 1039.794l508.69-26.746L345.84 1086 205.773 591.566z"/><path fill="#91726d" fill-opacity=".996" d="M316.341 479.532l-93.176-325.767 190.41-77.428 236.232 73.384z"/><path fill="#edf4fd" fill-opacity=".667" d="M483.369 1011.96l-159.157-8.622 262.002-168.014L826.518 1086z"/><path fill="#3b414b" fill-opacity=".941" d="M783.415 530.804l-199.383 91.901-.6-41.54 148.073-59.303z"/><path fill="#ad9da5" fill-opacity=".992" d="M308.925 602.551l234.236 97.655 181.283-.455-420.873 329.916z"/><path fill="#f2f4fb" fill-opacity=".725" d="M694.174 371.927l-196.41-70.84-133.883 147.49L636.84 535.55z"/><path fill="#f8fafe" fill-opacity=".737" d="M480.69 656.737l321.1-110.66 21.051 110.042-252.32 33.947z"/><path fill="#edf5ff" fill-opacity=".612" d="M119.415 689.242L-62 839.044l207.495-38.133L132.97 698.81z"/><path fill="#d9a598" fill-opacity=".698" d="M402.33 80.202l87.281 196.734-103.339 102.248L274.766 138.33z"/><path fill="#122633" fill-opacity=".722" d="M688.372 755.546l87.21-49.919 45.007 67.199-73.773 183.195z"/><path fill="#ff422e" fill-opacity=".58" d="M898 534.056L811.729 1086l-51.222-5.987 52.172-420.066z"/><path fill="#e3e3eb" fill-opacity=".98" d="M223.485 575.967l164.313-102.945-174.94-72.251-53.08 39.094z"/><path fill="#2d2a2f" fill-opacity=".537" d="M549.578 162.127L683.68 247.84l-172.472-3.498L323.627-41.722z"/><path fill="#6b6f79" fill-opacity=".969" d="M607.62 690.314l61.646 184.177-33.055 22.32-49.598-155.98z"/><path fill="#d7d4da" fill-opacity=".984" d="M686.743 886.5L628.24 657.403l104.25 249.866 30.976 104.473z"/><path fill="#000e15" fill-opacity=".373" d="M227.008 196.267l81.374 272.967 216.75-231.579-120.958 174.09z"/><path fill="#00101e" fill-opacity=".549" d="M513.305-62l73.78 154.166 201.947 33.136L856.102-62z"/><path fill="#000f1c" fill-opacity=".427" d="M299.016 194.88l-162.281 61.374L-62 72.08 91.757-62z"/><path fill="#4e0003" fill-opacity=".349" d="M223.186 684.775l-108.578-31.779 55.647 108.843 373.105-146.57z"/><path fill="#f6e5e1" fill-opacity=".541" d="M123.919-62l183.634 47.2-62.161 71.132-28.076-36.707z"/><path fill="#e3f1fc" fill-opacity=".29" d="M344.004 851.477l-160.947-115.48 281.292-63.982L62.724 866.079z"/><path fill="#131721" fill-opacity=".608" d="M120.657 955.292l-34.08-49.313 169.683-50.506 41.355 63.715z"/><path fill="#ffb4a0" fill-opacity=".278" d="M630.945 126.356L423.324-62l107.51 151.64-232.26 214.795z"/><path fill="#414a54" fill-opacity=".722" d="M605.059 620.301l-89.27-103.976 138.284 78.527-54.342 29.107z"/><path fill="#462d3b" fill-opacity=".463" d="M455.18 557.621l-63.937 17.855 4.932-76.124 43.55-15.782z"/><path fill="#00311e" fill-opacity=".38" d="M223.877 555.925l10.546 152.908-58.737 84.78-41.39-114.482z"/><path fill="#374351" fill-opacity=".671" d="M871.685 243.166l-102.162 2.478 29.434-97.45 98.518 24.745z"/><path fill="#eff5fe" fill-opacity=".557" d="M564.078 688.69L422.332 585.87l44.73-81.535 105.251 74.43z"/><path fill="#ba5d5e" fill-opacity=".478" d="M285.646 551.308L469.19 734.082l-100.985 82.213-33.501-317.712z"/><path fill="#150754" fill-opacity=".376" d="M668.878 455.283l68.49 31.608-86.275 12.741-16.416-15.799z"/><path fill="#dfe3ee" fill-opacity=".663" d="M269.994 651.398l151.092-28.619L211.41 343.12l161.555 170.233z"/><path fill="#250900" fill-opacity=".376" d="M362.065 156.82l23.526-5.526-1.253 45.565-162.66 1.05z"/><path fill="#02131f" fill-opacity=".545" d="M321.997 1014.014l172.974-7.022 37.603 50.548-291.168 17.864z"/><path fill="#918c93" fill-opacity=".996" d="M791.09 561.636L599.16 279.427l290.66-23.533L898 756.053z"/><path fill="#815e5d" fill-opacity=".992" d="M182.004 1004.627l20.733-68.867 138.64 19.72-67.161 87.994z"/><path fill="#8a8b92" fill-opacity=".996" d="M747.908 1055.693l-12.1-73.152-89.69-160.881 47.375 148.323z"/><path fill="#050b11" fill-opacity=".659" d="M227.845 91.075l91.89 31.014 44.811-53.574-50.173-37.447z"/><path fill="#031626" fill-opacity=".565" d="M425.84 375.588L317.737 458.06l120.898-130.406 53.906-32.626z"/><path fill="#eff3fb" fill-opacity=".522" d="M721.939 1042.956L458.447 851.26l81.53-33.507 127.258 90.554z"/><path fill="#e2e4ec" fill-opacity=".612" d="M321.771 663.296L215.33 406.159l79.515-47.942-69.055 212.958z"/><path fill="#070b18" fill-opacity=".337" d="M692.968 820.25l-9.127-38.464 186.91-1.195-103.944 140.671z"/><path fill="#e68e85" fill-opacity=".549" d="M372.037 662.591l112.993-44.266 48.967 93.922-91.082 75.959z"/><path fill="#f9ffff" fill-opacity=".569" d="M730.704 491.225l32.686 8.11-147.182 75.668 18.172-63.53z"/><path fill="#c2d8e6" fill-opacity=".42" d="M280.354 958.607l126.275-126.84-166.37-87.128 141.835-46.564z"/><path fill="#5b6769" fill-opacity=".714" d="M291.436 772.152l76.794 43.676 122.466 61.343-223.775-93.591z"/><path fill="#ffb5a2" fill-opacity=".322" d="M215.964 170.078l29.695 76.446 226.311-79.79-40.855 163.146z"/><path fill="#38475a" fill-opacity=".306" d="M600.202 609.643L499.563 515.87l118.72 47.97-93.967-137.058z"/><path fill="#e3e3eb" fill-opacity=".8" d="M367.504 564.122L491.95 289.216l121.162 54.635L316.49 449.776z"/><path fill="#513a38" fill-opacity=".843" d="M322.93 348.706L295.785 167.41l-8.193 257.76 24.075 6.953z"/><path fill="#db9b8a" fill-opacity=".514" d="M368.335 142.854L245.01 102.05l-6.726 61.578 188.505-13.926z"/><path fill="#f8422c" fill-opacity=".663" d="M809.784 873.11l26.603 180.084L763.37 1086l-7.338-108.4z"/><path fill="#f6f7fa" fill-opacity=".898" d="M566.03 423.116L500.925 303.01l125.681 42.458 89.657 116.036z"/><path fill="#0b2931" fill-opacity=".243" d="M689.082 207.752l-53.457 45.089-187.704 16.386 39.206-89.962z"/><path fill="#88777b" fill-opacity=".749" d="M142.632 575.606l12.848-164.01-195.25-76.682 80.788-173.643z"/><path fill="#4b594c" fill-opacity=".82" d="M-25.028 890.112l31.677-30.025 164.245-58.702-38.064 32.896z"/><path fill="#fffcf7" fill-opacity=".243" d="M543.166 659.284l-165.318 15.288 220.5 109.058-4.97-48.02z"/><path fill="#485e67" fill-opacity=".396" d="M630.04 681.424l24.4 169.929-80.508-153.126 240.833 25.864z"/><path fill="#8d8d93" fill-opacity=".855" d="M216.349 518.451l38.202 158.462-109.507 213.495 110.798-75.73z"/><path fill="#26262d" fill-opacity=".82" d="M501.836 81.18L299.988 3.489l113.079 79.396 45.473 61.778z"/><path fill="#b2a5a0" fill-opacity=".627" d="M808.232 79.057L672.091 308.216l6.728-147.59L898 118.51z"/><path fill="#4a393b" fill-opacity=".949" d="M227.166 889.559L17.006 1086-62 909.192 110.21 1086z"/><path fill="#ededf3" fill-opacity=".773" d="M697.39 879.98l61.16 155.68-15.322-92.462-107.436-221.653z"/><path fill="#64777d" fill-opacity=".443" d="M898 536.963L703.483 792.129l-33.414-97.805 225.635-55.483z"/><path fill="#ebecf3" fill-opacity=".843" d="M435.282 956.756l155.73 72.955-186.292-30.265 191.882-65.927z"/><path fill="#010a10" fill-opacity=".808" d="M210.493 716.249l28.723-27.826-113.489-11.777 38.072 30.27z"/><path fill="#ff654d" fill-opacity=".671" d="M783.31 671.847l20.585-6.376L898 651.038v225.107z"/><path fill="#8f8e95" fill-opacity=".773" d="M444.96 275.252l75.837-40.064 166.126 123.675-127.01-38.582z"/><path fill="#9fb1c1" fill-opacity=".482" d="M530.899 882.204l-96.385 98.372-93.282 21.692-64.406-147.424z"/><path fill="#bc8b80" fill-opacity=".78" d="M334.01 358.13l-18.803-47.58 146.953-11.658-86.046 70.545z"/><path fill="#a02949" fill-opacity=".592" d="M306.115 553.32l21.336-44.097 17.94 25.95-13.44 30.999z"/><path fill="#295767" fill-opacity=".337" d="M533.884 770.745l29.861-3.3 22.596 70.244-74.22-31.396z"/><path fill="#976b67" fill-opacity=".396" d="M378.01 21.246l156.933-44.66-57.233 250.112 172.488-107.523z"/><path fill="#cdd6e3" fill-opacity=".373" d="M422.815 555.056l-155.307 45.803-69.238 9.545 60.91 79.718z"/><path fill="#f8f8ff" fill-opacity=".427" d="M647.852 883.935l-34.336-108.518 14.308 33.69 11.162-8.04z"/><path fill="#be4659" fill-opacity=".522" d="M500.95 650.886L224.377 720.91l99.418-63.303 156.098-30.15z"/><path fill="#303e4d" fill-opacity=".345" d="M416.217 30.791l208.295 92.237 30.105 15.99 162.414-7.069z"/><path fill="#8d898e" fill-opacity=".859" d="M312.052 412.436l81.732-42.754 18.253-10.557-89.26 68.882z"/><path fill="#9aa2a8" fill-opacity=".624" d="M148.474 811.69l3.952-95.164-36.039 61.333L-62 853.619z"/><path fill="#cecfd9" fill-opacity=".957" d="M646.265 711.23l1.865 115.652 41.329-48.001-11.556-78.709z"/><path fill="#1b242e" fill-opacity=".718" d="M196.125 21.782l52.452 88.828-294.07 73.484L-62-18.839z"/><path fill="#3d2009" fill-opacity=".29" d="M383.433 760.642l44.316-48.388-49.41 116.937-16.172-111.467z"/><path fill="#dddce6" fill-opacity=".961" d="M549.85 337.577L375.81 517.035l-106.578-5.104 213.686-185.2z"/><path fill="#082f42" fill-opacity=".188" d="M558.241 924.393l-142.393-51.917-48.615 48.05 56.714-83.722z"/><path fill="#444c58" fill-opacity=".447" d="M262.633 921.648l-46.957-24.546 164.755 51.723 114.659-2.803z"/><path fill="#202c3b" fill-opacity=".286" d="M28.944 914.25l248.34-89.128 34.152 180.726-72.588-97.956z"/><path fill="#564f56" fill-opacity=".502" d="M131.364 243.344L-62 299.794l90.492 65.223L53.69 144.932z"/><path fill="#04121d" fill-opacity=".388" d="M677.229 893.067l-16.027-51.444-34.171 30.235 49.143-46.346z"/><path fill="#f5b2a6" fill-opacity=".353" d="M293.302 138.985l118.72-50.737L274.23 241.201l113.354 34.68z"/><path fill="#040a15" fill-opacity=".424" d="M599.367 773.758l36.138 103.83 16.196 30.753-45.484-146.627z"/><path fill="#e6ecf3" fill-opacity=".388" d="M289 580.816l-145.199-147.37 60.77 180.909 75.839-261.442z"/><path fill="#f2f3f8" fill-opacity=".82" d="M729.086 556.495l-145.358 77.668 227.226 5.927-7.78-64.132z"/><path fill="#100402" fill-opacity=".482" d="M307.072 182.333l-.504 23.186-51.067-47.368 45.517 12.697z"/><path fill="#e2e3ef" fill-opacity=".565" d="M390.108 963.978l114.642-11.822-211.804-7.314 2.286-24.113z"/><path fill="#cfe1f0" fill-opacity=".314" d="M452.795 776.254l373.193-195.518L507.314 767.45l36.1 101.63z"/><path fill="#001828" fill-opacity=".525" d="M295.842 432.688l44.901 13.641 14.05-28.818-71-7z"/><path fill="#ced8e1" fill-opacity=".306" d="M444.609 744.382l-146.04 162.694-29.34-141.153 81.848 187.421z"/><path fill="#def0fe" fill-opacity=".365" d="M297.166 779.459l-24.26-32.364 85.795 67.03 12.56-68.478z"/><path fill="#000811" fill-opacity=".216" d="M624.694 559.566l149.723-41.846-146.801 93.478-104.346-67.832z"/><path fill="#f2f5fb" fill-opacity=".38" d="M145.405 769.554l-12.773-86.299L-62 833.712l164.423-84.971z"/><path fill="#3d404a" fill-opacity=".565" d="M776.995 550.5l-120.149.085 92.126-30.016 49.696 40.362z"/><path fill="#7e5a56" fill-opacity=".749" d="M112.5 1086L2.6 978.765l31.89-23.115 67.536-25.736z"/><path fill="#5b6363" fill-opacity=".992" d="M184.829 686.256l41.363-134.562 9.58 46.826-102.84 68.71z"/><path fill="#e4e5ee" fill-opacity=".596" d="M785.781 1074.656l-251.4-121.482-186.185-30.38 243.152-13.934z"/><path fill="#533028" fill-opacity=".463" d="M357.065 302.86l-80.66-37.39-40.99-47.613 38.593 113.526z"/><path fill="#150645" fill-opacity=".149" d="M749.31 410.613l-22.8 55.278-59.206 46.997-37.52-17.92z"/><path fill="#003028" fill-opacity=".231" d="M358.485 868.913L264.3 786.09l30.062 11.223 47.106 43.017z"/><path fill="#2c3943" fill-opacity=".506" d="M731.722 713.209l68.356-18.804-73.862 181.705-44.257-95.764z"/><path fill="#18212c" fill-opacity=".541" d="M416.914 378.504l-36.33 35.429-40.408 5.607 176.871-148.101z"/><path fill="#676970" d="M721.612 998.44l-18.255-23.283-5.484-19.599.751 45.124z"/><path fill="#ab746d" fill-opacity=".631" d="M406.975 702.79l79.41 50.14-61.53 72.925 18.402-67.181z"/><path fill="#274a35" fill-opacity=".243" d="M245.395 664.874l8.743 69.054-114.432-153.79 38.87-20.326z"/><path fill="#8d888e" fill-opacity=".957" d="M272.06 378.403L76.345 468.091l-26.33-213.198 236.264 82.756z"/><path fill="#f9fdff" fill-opacity=".38" d="M658.001 522.92L605.27 418.85l-32.855-100.354 42.52 274.117z"/><path fill="#8d878d" fill-opacity=".514" d="M177.47 894.4l-38.863-21.1-76.193 3.31 221.73-118.002z"/><path fill="#d37d75" fill-opacity=".286" d="M280.955 1014.87l-33.012-90.982-20.714.08-56.89 47.165z"/><path fill="#e48275" fill-opacity=".282" d="M80.359 297.56l-21.397-19.023L27.72 163.51-62 259.533z"/><path fill="#a8c0cd" fill-opacity=".392" d="M119.157 639.158l83.806-69.218-62.85 93.348 47.423 20.375z"/></svg>