<svg xmlns="http://www.w3.org/2000/svg" width="228" height="278" viewBox="0 0 836 1024"><path fill="#84889d" d="M0 0h836v1024H0z"/><g fill-opacity=".502"><path fill="#c2d9ff" d="M738 70L146 970l524 116z"/><path fill="#343029" d="M-14 618l-48-484L650-62z"/><path fill="#89b8ff" d="M2 494l792 108-468-312z"/><path fill="#4f5043" d="M306 422L-62 810l212 240z"/><path fill="#63361f" d="M898 1042L622 510l112 560z"/><path fill="#96683d" d="M142-26l264 384 492-128z"/><path fill="#0038e7" d="M378 1086l36-452-96 136z"/><path fill="#243461" d="M726 466L866 10l-28 792z"/><path fill="#0058ff" d="M554 622l-60 420-32-244z"/><path fill="#ecf6ff" d="M566 346l-52 728 200-8z"/><path fill="#eef0ff" d="M282 326l104 164-88 368z"/><path d="M342 90h208L446-34z"/><path fill="#ffe1de" d="M462 922l28-568-124 124z"/><path fill="#e7efff" d="M242 370L78 614l84 28z"/><path fill="#dcb49c" d="M742 474l8-512-256 28z"/><path fill="#0037ba" d="M194 586l60-268 52 364z"/><path fill="#fff" d="M338 658l-112 360 100-52z"/><path fill="#c98254" d="M822 690L650 946l4-368z"/><path fill="#fff" d="M398 970l96 60-84-308z"/><path fill="#2c8bff" d="M462 382l92 240-4-336z"/><path fill="#0055e8" d="M598 642l40-304 40 148z"/><path fill="#8d4c6f" d="M494 670l-152 20 4-204z"/><path fill="#0045ea" d="M102 490l-8 132 124-260z"/><path fill="#1974fb" d="M566 846l44-160 4 320z"/><path fill="#c97450" d="M198 898l36 188-296-52z"/><path fill="#036fff" d="M342 350l12 232 72-212z"/><path fill="#8f520f" d="M154 662L-62 530v272z"/><path fill="#2372eb" d="M290 642l-40 380-40-252z"/><path fill="#fff" d="M226 734l28 128-48 24z"/><path fill="#a0aec3" d="M46 74l308-20-28 80z"/><path fill="#fff" d="M742 774l52 64 24-92z"/><path fill="#ea280b" d="M554 602l-56-44-4 124z"/><path fill="#242b2e" d="M898 826l-184-12 52 180z"/><path fill="#eeb481" d="M514 378L410 98l104-4z"/><path fill="#e9efff" d="M750 626l-76-232-12 228z"/><path fill="#005ef7" d="M730 602l28-88-68-124z"/><path fill="#0051dd" d="M422 714l-92 284 16-356z"/><path fill="#48484d" d="M-14 418L-58 50l532 204z"/><path fill="#0054ff" d="M222 338l-96 92 212-108z"/><path fill="#514b41" d="M506 66l152 200-108 52z"/></g></svg>