<svg xmlns="http://www.w3.org/2000/svg" width="228" height="278" viewBox="0 0 836 1024"><path fill="#7188ad" d="M0 0h836v1024H0z"/><path fill="#d9d8cf" fill-opacity=".878" d="M842.098 1086L880.463-62 449.211 12.112l236.59 496.531z"/><path fill="#0545b8" fill-opacity=".745" d="M109.778 562.124l-25.485 460.454 701.003 35.077-77.445-471.293z"/><path fill="#e3e3cc" fill-opacity=".816" d="M211.311 265.548l-213.278-42.8L-62 764.76l113.762-22.988z"/><path fill="#632f09" fill-opacity=".612" d="M266.88 122.866l73.812 313.405 203.205-78.249L416.814-39.814z"/><path fill="#001b69" fill-opacity=".588" d="M115.52 1086l47.106-65.454 97.611-782.78L90.262 712.823z"/><path fill="#02235d" fill-opacity=".733" d="M301.377 494.292l14.51 50.748L537.543 491l128.925-65.76z"/><path fill="#e0e7cf" fill-opacity=".596" d="M142.598-45.55l62.455 213.99-233.404-14.136L-62-47.304z"/><path fill="#25588e" fill-opacity=".992" d="M199.554 16.635l20.11 482.89 40.509-52.197L248.219-62z"/><path fill="#f9b672" fill-opacity=".388" d="M399.069 125.812l61.86 250.001 194.186 55.748-133.733-310.684z"/><path fill="#5fa7ff" fill-opacity=".357" d="M607.825 624.887l95.24 452-506.66-492.305L696.16 453.466z"/><path fill="#d2b081" fill-opacity=".541" d="M257.657 437.523l81.07-207.7L257.06-62l-4.835 164.577z"/><path fill="#1d1916" fill-opacity=".765" d="M409.644 20.348L378.643 2.75 262.712 138.427 496.645 92.02z"/><path fill="#c0c3c1" fill-opacity=".659" d="M155 181.82L-62 297.851l403.061 262.343-78.438 25.897z"/><path fill="#07288c" fill-opacity=".773" d="M764.84 1086l-54.496-34.481-100.68-398.836 22.84-145.53z"/><path fill="#2166d4" fill-opacity=".635" d="M409.635 422.79L105.524 570.56l27.866-85.773 162.903-98.875z"/><path fill="#3a2502" fill-opacity=".494" d="M45.14 1086L21.124 726.159l36.94 68.372L-62 1086z"/><path fill="#cad4e4" fill-opacity=".898" d="M417.355 438.505l-149.801 47.557 388.751-64.48 24.855-10.262z"/><path fill="#dfded7" fill-opacity=".459" d="M96.481 840.622l-.42-172.536-37.028-471.87-20.999 870.072z"/><path fill="#d0d9e7" fill-opacity=".992" d="M252.807 571.998l481.984-131.65-111.9 39.73-384.366 114.755z"/><path fill="#c1c4c8" d="M898 762.251l-122.561-32.027 2.085 313.011L861.915 1086z"/><path fill="#563501" fill-opacity=".525" d="M225.44 168.247l-6.53 8.768L-62 220.706v-61.358z"/><path fill="#1c0f0f" fill-opacity=".639" d="M351.961 408.014l91.287-36.042-106.343-104.284-26.931 41.902z"/><path fill="#d1cbbc" fill-opacity=".82" d="M258.964 110.567L385.624-.464 898 164.019 279.598-62z"/><path fill="#1d65de" fill-opacity=".529" d="M784.131 884.415L630.787 613.96l-88.373-104.719 138.426-31.21z"/><path fill="#0b103a" fill-opacity=".635" d="M213.325 608.035l-84.518 372.343 45.7-394.877 80.12-80.333z"/><path fill="#8b6b5d" d="M510.366 122.873l-27.945-40.45-94.12 218.205 117.563 58.569z"/><path fill="#fce8ba" fill-opacity=".392" d="M220.688 586.902l-53.516 222.725 73.637-225.361 20.639 11.075z"/><path fill="#f9f9fb" fill-opacity=".537" d="M519.347 599.666l-29.571-70.787 55.22-3.942 15.04 5.443z"/><path fill="#1e3c72" fill-opacity=".655" d="M384.737 530.435l-96.655-29.287 150.41-55.743 210.665 12.876z"/><path fill="#fbfdfb" fill-opacity=".427" d="M231.992 459.827l62.29 94.255-9.043-59.02 59.31-17.61z"/><path fill="#2667ce" fill-opacity=".804" d="M239.945 598.422L514.389 1086l-24.936-552.198-121.476 19.717z"/><path fill="#000348" fill-opacity=".525" d="M85.939 1003.272l44.663-31.806-3.4-283.974 69.744 367.666z"/><path fill="#544b3f" fill-opacity=".859" d="M50.067 744.742l-.04 27.75-86.787 104.032L-62 769.798z"/><path fill="#f8f692" fill-opacity=".694" d="M68.416 652.743l-2.026 70.695-120.274-24.177L49.65 569.86z"/><path fill="#7e8c8c" fill-opacity=".902" d="M-62 118.757l268.085 12.984 1.049-168.404-40.564 141.97z"/><path fill="#1149b7" fill-opacity=".816" d="M681.19 786.185l40.13 142.698 72.686-87.68-28.49-31.787z"/><path fill="#9ea7bf" d="M70.86 1076.753l23.005-107.687-7.515-49.813-61.083-54.884z"/><path fill="#104baf" d="M224.397 618.362l-60.922 258.117 22.633 114.337 313.383 94.532z"/><path fill="#a8a088" fill-opacity=".451" d="M212.364 336.09l-17.94-162.868L-62 213.014l35.734 24.758z"/><path fill="#c9cac5" fill-opacity=".816" d="M420.034 22.58l380.273 360.124-5.564-439.977L450.935-19.79z"/><path fill="#89827f" d="M338.093 150.852l-28.41 161.026L270.477 205.3l56.672-74.197z"/><path fill="#daceb2" fill-opacity=".537" d="M532.276 390.608l142.878 47.63-187.973-283.313 85.309 13.459z"/><path fill="#ffcd8d" fill-opacity=".443" d="M251.636 388.22l-3.35 19.235 53.501-43.513-36.448-194.8z"/><path fill="#fdfffa" fill-opacity=".471" d="M67.128 163.355L-62 141.818l177.894-24.182 85.574 30.415z"/><path fill="#dbe1dd" fill-opacity=".71" d="M192.804 454.865L-18.368 313.137l7.553 347.517 148.681-190.288z"/><path fill="#163166" fill-opacity=".698" d="M490.972 480.054l156.81-43.844 39.587 30.255-57.367-7.006z"/><path fill="#df913c" fill-opacity=".357" d="M574.313 231.585l-66.17-13.825-2.967 166.675 69.603 17.9z"/><path fill="#0e357d" fill-opacity=".553" d="M333.166 543.333l-218.88 21.476 24.052-74.217 34.64 105.171z"/><path fill="#eceae2" fill-opacity=".627" d="M284.515 1086l18.53-48.02-59.244-28.418L151.516 1086z"/><path fill="#bbc3d2" fill-opacity=".992" d="M84.038 618.982l56.198-253.933-27.891 195.577-46.006 342.806z"/><path fill="#070b0d" fill-opacity=".467" d="M499.653 101.63l-105.65-89.49-114.288 146.486 8.884-75.45z"/><path fill="#04013b" fill-opacity=".557" d="M652.742 817.407l-11.87-53.457 34.526-19.984 18.507 191.64z"/><path fill="#2964be" fill-opacity=".965" d="M187.203 429.22l82.772-34.587 176.051 37.278-270.924 5.395z"/><path fill="#021c7a" fill-opacity=".659" d="M69.723 909.4l18.394-45.99 329.997 134.716-340.823-101.34z"/><path fill="#4e89e1" fill-opacity=".667" d="M527.358 556.924L580.27 823.17l28.993 177.348 8.616-511.389z"/><path fill="#4083e9" fill-opacity=".643" d="M495.536 393.958l-174.05 59.29 166.453-24.723 127.809-10.918z"/><path fill="#643e31" fill-opacity=".992" d="M427.252 275.742L354.226 292.9l-11.77-198.814 77.803 109.11z"/><path fill="#fff4dd" fill-opacity=".522" d="M209.554 636.236l52.093-68.315-58.379 49.13 6.033 50.587z"/><path fill="#fefffc" fill-opacity=".537" d="M687.466 489.13l13.816 7.991-31.068-28.99-80.741.21z"/><path fill="#e0e7e9" fill-opacity=".184" d="M698.59 758.434L670.756-62 475.624 233.697 898 206.263z"/><path fill="#8a8f8c" fill-opacity=".929" d="M-62 913.816l94.239-5.956L57.39 798.355-62 847.479z"/><path fill="#dabfbd" fill-opacity=".475" d="M446.338 279.876l-54.146 4.47 47.591 41.166 17.735-19.953z"/><path fill="#171417" fill-opacity=".561" d="M39.732 1086L-62 921.9l95.276 41.846.974-37.621z"/><path fill="#0a3399" fill-opacity=".949" d="M552.216 978.475L737.906 1086l-13.183-255.128-46.06 187.156z"/><path fill="#e4effd" fill-opacity=".494" d="M748.816 778.55l54.331 61.495-3.598 91.123-56.35-349.404z"/><path fill="#154eae" fill-opacity=".671" d="M129.648 496.86l137.743 15.072-30.743 17.047-125.967 83.891z"/><path fill="#4f3d36" fill-opacity=".69" d="M306.8 252.646l-31.075-98.76L288.6 92.29l-8.129 165.23z"/><path fill="#113b9e" fill-opacity=".792" d="M104.455 623.117L87.262 767.848l31.521 82.319 30.432-299.534z"/><path fill="#b4c0c8" fill-opacity=".525" d="M315.152 299.357L292.97 136.483l38.97 15.648-10.639 38.454z"/><path fill="#d3d9e0" fill-opacity=".824" d="M296.02 532.208l-45.68-72.14 23.346-11.846-14.937 92.602z"/><path fill="#dab88d" fill-opacity=".714" d="M310.522 43.076L295.867 65.14l-35.81-92.77-.492 198.857z"/><path fill="#000964" fill-opacity=".569" d="M360.497 1000.127l-103.908.63 58.742 11.94L524.244 1086z"/><path fill="#00070d" fill-opacity=".349" d="M337.138 343.777l140.496 22.637-.325-54.76-82.957 106.424z"/><path fill="#033660" fill-opacity=".333" d="M201.896 94.032l6.449 282.323 50.85-401.191-58.49-25.613z"/><path fill="#fff" fill-opacity=".431" d="M327.347 457.169l224.877-25.951 112.734-28.922-115.333 45.501z"/><path fill="#0634a4" fill-opacity=".816" d="M689.762 760.209l-56.307-75.982 56.077-128.3-6.426 68.09z"/><path fill="#ff8532" fill-opacity=".596" d="M-31.903 689.407L-62 631.327v91.865l128.394-17.975z"/><path fill="#fafdff" fill-opacity=".494" d="M330.308 481.99l-67.459 20.758 77.286-44.308 165.936-31.418z"/><path fill="#a6a79e" fill-opacity=".384" d="M761.192 251.029L797.1 438.434l-.038-457.955L779.48-62z"/><path fill="#171d2f" fill-opacity=".506" d="M278.171 560.76l-.861-7.392-72.902 5.422-19.03 51.214z"/><path fill="#947364" fill-opacity=".827" d="M401.338 423.035l-2.768-4.486 138.341-134.88-72.806 118.15z"/><path fill="#1e3d72" fill-opacity=".875" d="M290.516 496.658l-15.459 2.599 51.554 47.23 297.95-84.029z"/><path fill="#387adc" fill-opacity=".761" d="M740.021 914.458l35.723 124.496-.054-144.097-21.37-32.884z"/><path fill="#a6837a" fill-opacity=".404" d="M418.869 90.84l48.85 1.631 45.033 58.843-120.54 18.359z"/><path fill="#05278b" fill-opacity=".604" d="M122.547 587.897L142.217 1086 74.204 891.434l39.733-36.155z"/><path fill="#fffffd" fill-opacity=".329" d="M245.565 579.846l230.017-76.86 36.603 97.79 23.928-83.104z"/><path fill="#2363cf" fill-opacity=".855" d="M582.88 764.336L553.283 948.51l115.396-21.463-261.615 132.4z"/><path fill="#cdcfc8" fill-opacity=".533" d="M47.799 240.754l158.717 76.28-5.583 107.37L78.26 453.92z"/><path fill="#2664c1" fill-opacity=".725" d="M269.382 405.814l35.42-44.937 52.817 90.565-75.474 30.613z"/><path fill="#e9f2fd" fill-opacity=".655" d="M783.634 1030.437l-8.518-175.872 19.072 90.8 5.82 137.432z"/><path fill="#e6ebe8" fill-opacity=".435" d="M898 103.348L796.037-62l-1.04 203.04 19.97 208.029z"/><path fill="#704a3c" fill-opacity=".557" d="M340.762 190.96l117.205-95.318-143.085 3.097 184.456 234.412z"/><path fill="#3d0700" fill-opacity=".231" d="M456.908 160.212l10.548 23.683 17.303 36.049-118.757-52.938z"/><path fill="#d3d8d8" fill-opacity=".643" d="M75.646 715.963l14.002 25.75-62.12 11.226-78.27-43.15z"/><path fill="#4d7dd0" fill-opacity=".996" d="M624.876 754.251l-115.27-273.998 154.67 370.973 12.587 101.01z"/><path fill="#f8f8f0" fill-opacity=".192" d="M300.494 480.642l-78.03 71.92 115.73-1.489-161.433-85.914z"/><path fill="#030b34" fill-opacity=".667" d="M163.591 796.277l-23.115 145.529 50.048 12.259-25.398 41.341z"/><path fill="#e1ebfb" fill-opacity=".569" d="M759.58 767.453l-61.843-242.375-28.866-54.805 45.988 21.98z"/><path fill="#f2faf6" fill-opacity=".671" d="M115.562 483.319L-.028 347.899l-10.344-39.552 127.533 151.64z"/><path fill="#a2b3b8" fill-opacity=".871" d="M174.97 86.683l5.112 18.707-77.847 14.96 74.521-149.436z"/><path fill="#00004f" fill-opacity=".384" d="M604.852 674.709l42.763-71.646-23.29-95.146 20.802 43.247z"/><path fill="#fdfcfa" fill-opacity=".49" d="M46.494 1086L38.39 916.035l9.981 17.886 1.11-9.463z"/><path fill="#c3cad9" fill-opacity=".608" d="M56.323 885.33L100.527 1086l-59.21-209.105 23.43-97.43z"/><path fill="#141516" fill-opacity=".365" d="M502.36 130.795L374.55-2.505l-58.79 87.45 189.516 15.144z"/><path fill="#4a65a1" d="M96.18 622.573l.726-37.246-15.767 45.204 138.456-71.522z"/><path fill="#000948" fill-opacity=".169" d="M67.829 874.087l-15.49 171.89-3.25-114.311-85.919 107.06z"/><path fill="#13518b" fill-opacity=".675" d="M207.675 418.757l18.787-467.203 29.164 441.805-14.278 14.416z"/><path fill="#3f2018" fill-opacity=".341" d="M386.768 424.03l-76.639-32.935 87.895-172.608 12.05 196.116z"/><path fill="#175cbc" fill-opacity=".482" d="M226.87 617.852l-66.9 231.835 213.908-106.815 5.197-99.144z"/><path fill="#3775d4" fill-opacity=".565" d="M473.047 543.107L643.473 708.94l-365.01-121.123 375.702-114.485z"/><path fill="#3d2000" fill-opacity=".141" d="M223.983 153.292L-62 181.573l243.01 14.743 28.516 104.336z"/><path fill="#022412" fill-opacity=".322" d="M134.831 120.708L-7.703 122.09-62 104.897l162.154 12.625z"/><path fill="#0e0a19" fill-opacity=".561" d="M199.027 694.193l-18.894 36.223-3.1-107.742 27.667 1.57z"/><path fill="#1b5aba" fill-opacity=".671" d="M202.966 936.537l139.779 46.056-187.602 33.977-2.589 7.18z"/><path fill="#caccc8" fill-opacity=".686" d="M735.624 490.37L512.267 149.779 571.627-62l17.202 457.982z"/><path fill="#fdf5eb" fill-opacity=".345" d="M269.152 565.162l79.239-18.57-146.648 77.453 26.616-32.607z"/><path fill="#0443c9" fill-opacity=".412" d="M635.812 739.144l9.817 137.473 16.272 50.337-47.14 25.945z"/><path fill="#f2ebec" fill-opacity=".384" d="M97.971 848.05L79.913 657.632l8.749 206.977L48.45 887.99z"/><path fill="#313137" fill-opacity=".349" d="M49.624 770.078l2.078-45.586 5.946 90.731L-62 722.973z"/><path fill="#fff3e9" fill-opacity=".314" d="M80.769 1018.93l20.403-87.238-17.081 13.14L69.569 1086z"/></svg>