<svg xmlns="http://www.w3.org/2000/svg" width="228" height="278" viewBox="0 0 836 1024"><path fill="#7188ad" d="M0 0h836v1024H0z"/><g fill-opacity=".502"><path fill="#ffffe8" d="M898-26l-12 1096L450-30z"/><path fill="#07379a" d="M370-62l460 1148H-42z"/><path fill="#ffffcb" d="M14-62l-76 980 280-596z"/><path fill="#ac600b" d="M374-62l248 456-408-16z"/><path fill="#0756d8" d="M810 1086L678 450 50 918z"/><path fill="#6c9bdc" d="M594 322l48 692-440-536z"/><path fill="#002185" d="M86 1070l44-612 328 580z"/><path fill="#f0e8cb" d="M-62 514l144 572 28-848z"/><path d="M386-14l116 120-240 20z"/><path fill="#281200" d="M-34 234l276-68-304-8z"/><path fill="#0a1a37" d="M638 458L202 578l188-124z"/><path fill="#45310b" d="M-62 718l84 368 28-328z"/><path fill="#e6dece" d="M558 26l288-88v1148z"/><path fill="#00276b" d="M250-42l4 424-64-200z"/><path fill="#fffec9" d="M258 190l64 152-68 52z"/><path fill="#391406" d="M314 390l124 32-60-412z"/><path fill="#fffffa" d="M286 534l-76 68 232-76z"/><path fill="#e7cfaf" d="M514-62l164 464-176 48z"/><path fill="#d4d3b0" d="M202-62H18l180 344z"/><path fill="#001176" d="M762 818l-48 268-108-492z"/><path fill="#fff7b1" d="M378 2L258-14v128z"/><path fill="#fffff8" d="M770 1086l68-16-60-208z"/><path fill="#eef7ff" d="M578 478l-132 36 80 80z"/><path fill="#00094c" d="M166 1070L74 898l128-348z"/><path fill="#1662d7" d="M626 1086L198 638l288-120z"/><path fill="#00003c" d="M674 462l-148-16 128-20z"/><path fill="#eae5db" d="M246 462l8 96 84-92z"/><path fill="#aea290" d="M246 106l84 36-28 244z"/><path fill="#fff" d="M538 434l-120-12-108 52z"/><path fill="#005199" d="M194 338l52-224 12 332z"/><path fill="#1962c5" d="M218 598l436 480-500-200z"/><path fill="#dfe3e8" d="M10 550l-72-332 264 220z"/><path fill="#c5cbd8" d="M-62 866l164-60-36 112z"/><path fill="#003164" d="M190-50l72-8-44 276z"/><path fill="#a67459" d="M510 98l20 312L370 94z"/><path fill="#042661" d="M266 502l208-60-108 88z"/><path fill="#fff" d="M574 478h104l-28-24z"/><path fill="#d3d5e2" d="M90 938l-56 16 24 132z"/><path fill="#fff" d="M394 282l56 4-32 20z"/><path fill="#002080" d="M258 506L86 774l36-224z"/></g></svg>