<svg xmlns="http://www.w3.org/2000/svg" width="228" height="278" viewBox="0 0 836 1024"><path fill="#576184" d="M0 0h836v1024H0z"/><path fill="#bcc6d7" fill-opacity=".643" d="M898 5.717L359.561-62l399.103 522.072 68.881 329.875z"/><path fill="#e0f696" fill-opacity=".867" d="M-62 1086h349.103l-57.139-250.56-287.404 3.483z"/><path fill="#d8f095" fill-opacity=".878" d="M581.73 1086l-1.48-251.655L898 838.398l-41.157 216.82z"/><path fill="#000764" fill-opacity=".588" d="M410.06 1086L-62 500.184 178.266 63.12l494.942 348.612z"/><path fill="#cfdddf" fill-opacity=".745" d="M606.746 521.238L591.86 744.011l126.04-32.887-15.802-58.215z"/><path fill="#bbcce9" fill-opacity=".537" d="M12.797 303.579L259.098-50.447-62-47.752l180.362 442.525z"/><path fill="#b1c4ac" fill-opacity=".584" d="M263.674 627.814l1.696 74.7-102.34 20.795L11.12 590.003z"/><path fill="#1a261c" fill-opacity=".824" d="M267.415 752.79L237.8 836.898-62 802.566 76.287 677.45z"/><path fill="#080000" fill-opacity=".565" d="M300.26 87.246L435.815-36.489l59.76 142.39-331.42 53.923z"/><path fill="#041424" fill-opacity=".608" d="M611.021 807.274l185.515-212.527L477.221 339.48l418.065 500.605z"/><path fill="#fcbc7f" fill-opacity=".373" d="M413.684 370.025l81.982-12.194 55.45-283.167L310.26 180.309z"/><path fill="#000476" fill-opacity=".533" d="M506.169 275.197l244.503 469.135-61.283-326.883 178.908 29.886z"/><path fill="#e3ecda" fill-opacity=".529" d="M679.841 754.694l-38.6-137.874L898 757.254V426.826z"/><path fill="#b8ceff" fill-opacity=".443" d="M782.86 253.869l-22.391 66.644-273.693-56.247-.345-178.572z"/><path fill="#85a3f8" fill-opacity=".514" d="M511.429 972.596l-112.85-78.118 193.563 178.732 12.87-332.65z"/><path fill="#191235" fill-opacity=".486" d="M511.386 186.662l-358.333-68.578L290.736-62l-21.288 288.833z"/><path fill="#000fa4" fill-opacity=".247" d="M534.378 153.752l-76.654 481.777 191.148-476.68L491.81-62z"/><path fill="#2937a3" fill-opacity=".933" d="M-3.039 480.279l2.713-365.492 63.692 232.541 64.632 48.313z"/><path fill="#e9f6de" fill-opacity=".506" d="M69.063 648.024l-37.718 85.939L9.19 699.247 40.2 611.16z"/><path fill="#000d66" fill-opacity=".545" d="M602.16 600.537l-319.215 25.621-31.612 366.429 254.552-69.282z"/><path fill="#2f4d00" fill-opacity=".322" d="M898 741.65l-303.318-24.362 20.268 134.156L898 846.556z"/><path fill="#feeadb" fill-opacity=".6" d="M506.312 297.09l29.422-157.21-36.405-99.286-11.486 292.513z"/><path fill="#b9cbde" fill-opacity=".553" d="M663.564 302.061L578.837-60.682 727.99 229.041l-13.186 278.991z"/><path fill="#fefdf1" fill-opacity=".427" d="M311.118 94.468L288.31 65.26 308.578-62h77.886z"/><path fill="#dff9df" fill-opacity=".306" d="M370.002 576.294l11.793 9.993 231.325-27.605-215.62 67.024z"/><path fill="#07033e" fill-opacity=".408" d="M792.594 463.678l-621.003 93.354 463.924-20.977 110.152 172.76z"/><path fill="#b9ceff" fill-opacity=".306" d="M161.587 518.368l16.458 208.17 38.957-57.897L63.827 504.109z"/><path fill="#e9fcf1" fill-opacity=".353" d="M552.636 516.82l-28.764-66.002 35.465-17.58 25.425 22.075z"/><path fill="#8eb3ff" fill-opacity=".749" d="M305.123 971.16l11.672.328 55.435 62.207-60.446-3.036z"/><path fill="#040b70" fill-opacity=".49" d="M224.316 32.212L87.242 230.487l13.943 283.784 330.45-35.19z"/><path fill="#111478" fill-opacity=".635" d="M599.399 267.253L242.415 523.606l466.573-135.799 97.842 126.578z"/><path fill="#cdcbc8" fill-opacity=".671" d="M763.956 638.05l82.913-235.088-60.14 14.023 12.896 280.202z"/><path fill="#7289c0" d="M495.572 785.483l92.051 137.475L382.668 1086 588.25 866.041z"/><path fill="#836764" fill-opacity=".608" d="M518.1 233.76L438.066 1.336l93.794 78.155-230.006 114.725z"/><path fill="#92af4d" fill-opacity=".51" d="M234.818 824.224l-255.516-7.988-31.101 32.557 295.353 14.277z"/><path fill="#89a2fe" fill-opacity=".4" d="M498.062 994.43l-80.69 22.849 56.74-94.8-81.985 6.737z"/><path fill="#2930c2" fill-opacity=".498" d="M206.156 404.265l173.632-148.863-78.24 31.752L11.512 425.287z"/><path fill="#172323" fill-opacity=".753" d="M86.558 613.35L15.046 789.96l249.516 21.27-112.152-13.38z"/><path fill="#aac2d6" fill-opacity=".871" d="M555.926 682.017l53.035 321.203-37.902-140.523 21.614-50.452z"/><path fill="#8da7ff" fill-opacity=".541" d="M58.796 368.515l14.786-146.572-59.324 23.792 90.605 147.046z"/><path fill="#1d2e24" fill-opacity=".867" d="M610.396 741.903L898 739.724v54.785l-293.516 21.627z"/><path fill="#a86359" fill-opacity=".471" d="M727.565 510.924l-11.272-71.466 61.218-14.706 29.356 133.733z"/><path fill="#ddf6f8" fill-opacity=".439" d="M292.095 486.065l15.593 12.97 42.309 4.128-45.864 19.048z"/><path fill="#0a1494" fill-opacity=".667" d="M516.184 910.304L484.036 1086h108.213l-127.99-160.444z"/><path fill="#fbffca" fill-opacity=".22" d="M104.878 689.448l10.74-39.007 107.76-17.962-44.006 110.336z"/><path fill="#3f4f7b" d="M31.687 538.082l-8.738 62.12 188.64 1.678-47.448 42.517z"/><path fill="#d4dee6" fill-opacity=".463" d="M617.288 525.857l36.076 213.202 63.115-5.45-82.134-199.53z"/><path fill="#c5c5be" fill-opacity=".533" d="M704.086 392.029L648.722 282.89 772.284 27.695l.52 319.597z"/><path fill="#0f1e66" fill-opacity=".675" d="M112.893 397.378L-62 868.834l49.365-117.943 37.43-295.185z"/><path fill="#5f4532" fill-opacity=".545" d="M364.706 327.73l44.65 40.057 64.93-1.256-12.015-132.959z"/><path fill="#222022" fill-opacity=".565" d="M215.223 147.883l3.761-201.64 119.09 212.915L456.063 43.44z"/><path fill="#80adff" fill-opacity=".494" d="M592.122 156.951l79.02 159.646-106.733-40.94-34.45-155.524z"/><path fill="#102a6f" fill-opacity=".878" d="M596.328 709.473l-3.18-103.518-45.958 9.508 41.927 172.18z"/><path fill="#fff1ed" fill-opacity=".337" d="M542.042 131.76l-58.468 207.125-25.152-136.908 33.31 20.139z"/><path fill="#d6e99c" fill-opacity=".855" d="M-46.122 929.62l288.497-79.73 4.654 46.903L272.203 1086z"/><path fill="#a4aebd" fill-opacity=".863" d="M138.642-62l-22.58 162.574L-62 176.778V10.089z"/><path fill="#2c3a95" fill-opacity=".69" d="M279.277 176.467l77.526 87.616-28.784-85.225-1.162-113.736z"/><path fill="#141315" fill-opacity=".663" d="M466.059 116.594l-128.188 8.798 3.675-86.572L435.65 8.896z"/><path fill="#182586" fill-opacity=".478" d="M512.002 806.4l30.08 203.5 48.283-73.462-226.049-14.059z"/><path fill="#4256c0" fill-opacity=".278" d="M233.471 588.004L-62 626.068l156.21-131.41 161.907 3.037z"/><path fill="#0e1678" fill-opacity=".718" d="M245.068 847.805L296.32 1086l4.71-106.524 181.858-8.635z"/><path fill="#0d1546" fill-opacity=".596" d="M216.388 296.906l-87.756-126.51L73.288 282.16l34.303 96.283z"/><path fill="#0d1562" fill-opacity=".886" d="M448.237 440.778l141.206 96.242-84.67 30.968-257.185 24.152z"/><path fill="#b1cf66" fill-opacity=".314" d="M577.838 831.942l260.602-18.327 33.67 73.857-270.87-3.985z"/><path fill="#001669" fill-opacity=".478" d="M41.836 233.586l-99.064-16.73L-62 107.4l109.535 67.5z"/><path fill="#0e1481" fill-opacity=".494" d="M726.61 590.344l-66.93-282.326-65.335-27.551-94.827 87.329z"/><path fill="#021533" fill-opacity=".529" d="M-62 508.032l359.394-71.512-242.077 77.744L-62 676.288z"/><path fill="#c7d9da" fill-opacity=".631" d="M587.097 1027.046l14.654-289.45-4.389 316.456-174.388-139.959z"/><path fill="#010f30" fill-opacity=".569" d="M706.81 505.74l84.283 26.946-110.108 105.283 75.835 14.775z"/><path fill="#899ca2" fill-opacity=".494" d="M628.891 754.77l18.158-206.248-117.285 53.94 80.927 3.104z"/><path fill="#597ea0" fill-opacity=".533" d="M529.68-62l104.815 169.66-23.263 60.691-86.817-42.953z"/><path fill="#000c9e" fill-opacity=".408" d="M524.164 269.45l-1.138-69.655 4.947-.31 47.495 47.09z"/><path fill="#fffffe" fill-opacity=".62" d="M522.005 87.798l-51.641 36.553 35.545 29.314 9.984 125.431z"/><path fill="#a69999" fill-opacity=".675" d="M519.69 80.896L452.297 9.624 294.763 17.79l218.559-49.112z"/><path fill="#010e56" fill-opacity=".592" d="M729.863 427.523l41.41 2.917-1.644-37.5-45.385 2.714z"/><path fill="#0e227c" fill-opacity=".565" d="M352.297 705.883l206.138 209.358-17.598-241.689 2.083 255.537z"/><path fill="#010360" fill-opacity=".4" d="M-5.737 370.047l37.98-98.389 30.487 92.443-28.543 56.836z"/><path fill="#b1cffe" fill-opacity=".431" d="M643.124 290.28l86.787 170.988-93.277-296.874-30.858 126.841z"/><path fill="#f0f2ff" fill-opacity=".255" d="M807.45 455.632l-25.178-21.711 30.452 56.052L741 649.94z"/><path fill="#7389ba" fill-opacity=".957" d="M540.772 719.264l18.425 76.54 40.896 190.808-33.11-99.082z"/><path fill="#efe3ff" fill-opacity=".357" d="M58.252 346.1l30.122 27.697 12.306 10.007-17.47-76.124z"/><path fill="#9fb9e0" fill-opacity=".722" d="M551.585 821.547l44.24 59.692L493.91 987.744l95.663-76.58z"/><path fill="#7f8eb1" fill-opacity=".702" d="M857.93-62L898 52.284 781.133 451.132l7.032-227.027z"/><path fill="#acc6ef" fill-opacity=".522" d="M611.306 297.084l35.883-7.582L690.462-62H653.8z"/><path fill="#0e1456" fill-opacity=".525" d="M383.184 864.474l215.143-271.458-158.775 65.972L210.211 421.76z"/><path fill="#131c1c" fill-opacity=".663" d="M263.132 709.306L239.598 833.85-62 709l173.827 55.53z"/><path fill="#a7a4be" fill-opacity=".227" d="M372.888 121.346L394.14 231.66l-25.603 34.256-53.095 40.46z"/><path fill="#eaf8ac" fill-opacity=".255" d="M547.838 948.21L898 920.522 717.948 1086 431.21 826.329z"/><path fill="#240902" fill-opacity=".204" d="M499.218 154.38l7.975 67.698-105.898-69.69-8.635 92.263z"/><path fill="#ecead4" fill-opacity=".357" d="M208.059 612.91l-19.041-1.599-27.95 93.41 39.458-3.988z"/><path fill="#698bff" fill-opacity=".482" d="M681.021 420.455l15.53 47.94 9.953 39.779 23.371-68.248z"/><path fill="#eaf6fd" fill-opacity=".286" d="M18.647 700.1l30.427-84.294 47.018-21.47-4.192 14.927z"/><path fill="#661b48" fill-opacity=".702" d="M317.85 570.268l-15.048 38.898 24.319 4.703 40.686-23.266z"/><path fill="#d5e899" fill-opacity=".839" d="M242.018 836.338L-60.68 986.086l366.377 53.808-105.23-96.684z"/><path fill="#0a1740" fill-opacity=".635" d="M753.759 555.008l53.89-36.422-161.106 59.987 95.987 90.27z"/><path fill="#06112e" fill-opacity=".42" d="M580.945 491.677l61.524-136.919-16.533 181.252-136.855-7.4z"/><path fill="#bbdce7" fill-opacity=".404" d="M579.21 868.02l-47.69-12.81-15.14-62.62 113.398 165.825z"/><path fill="#8d9b97" fill-opacity=".404" d="M634.797 539.532l-98.916 17.708-65.959 48.29 66.725-18.261z"/><path fill="#101c39" fill-opacity=".498" d="M528.534 101.478l-9.725-13.77 11.135-34.344 16.284 18.033z"/><path fill="#717da9" fill-opacity=".847" d="M517.84 481.604l38.64 10.19 21.66-5.383 9.395-33.414z"/><path fill="#162500" fill-opacity=".259" d="M181.577 607.046l-14.987 50.156-73.68-88.04 70.787 14.577z"/><path fill="#5a77aa" fill-opacity=".486" d="M162 66.107l-11.546-45.25-54.589 163.377 67.938-48.623z"/><path fill="#8497c7" fill-opacity=".992" d="M452.67 993.756l5.647 55.438-28.304-64.31 88.17-14.095z"/><path fill="#3d4d45" fill-opacity=".376" d="M220.71 584.076l53.823 47.601-41.29 9.779-56.57 215.13z"/><path fill="#273c2d" fill-opacity=".475" d="M770.17 689.35l-54.75-14.282 8.464 108.426L853.18 747.11z"/><path fill="#465fea" fill-opacity=".506" d="M43.561 435.719l-100.978-94.216L-62 534.052 84.072 373.079z"/><path fill="#a4c4ff" fill-opacity=".361" d="M564.84 720.408l-5.931 182.547-4.25-104.231 46.381-6.658z"/><path fill="#8cadf4" fill-opacity=".749" d="M361.813 1086l-6.875-46.9-25.418-61.826-37.353 15.444z"/><path fill="#c1d5ef" fill-opacity=".522" d="M598.259 748.909l.895-218.969 95.516 172.25-80.702-140.26z"/><path fill="#4960cb" fill-opacity=".761" d="M73.927 519.739l9.833-16.34 39.474-4.625 24.572 85.296z"/><path fill="#22289e" fill-opacity=".545" d="M478.703 967.075l38.128 130.888-70.078-75.381 101.387-8.67z"/><path fill="#0c165c" fill-opacity=".651" d="M497.162 895.614L314.67 754.424l195.41 182.147 36.429 3.844z"/><path fill="#425463" fill-opacity=".604" d="M52.657 711.9l-87.21 93.718 85.837 28.975-96.734-124.634z"/><path fill="#d9e0e7" fill-opacity=".675" d="M672.3 601.042l-16.464-3.164-14.896 125.364 71.1-3.333z"/><path fill="#131786" fill-opacity=".631" d="M435.47 1014.144l220.318 46.846-315.649-53.603 54.406-105.446z"/><path fill="#bac4c1" fill-opacity=".753" d="M747.734 660.29l16.204-13.024 37.98-141.497L898 761.156z"/><path fill="#cad5df" fill-opacity=".604" d="M676.884 637.414l64.68 33.186-99.785 10.965 76.174 43.238z"/><path fill="#1a1ea0" fill-opacity=".404" d="M692.135 469.306l40.36 39.555-83.634 77.697 52.356-245.212z"/><path fill="#0b156a" fill-opacity=".486" d="M29.03 481.337L352.435 352.46l191.815 44.06-15.165 108.463z"/><path fill="#7c91bf" fill-opacity=".871" d="M538.826-62L554.54 44.032 362.248-62l-38.06 99.083z"/></svg>