<svg xmlns="http://www.w3.org/2000/svg" width="228" height="278" viewBox="0 0 836 1024"><path fill="#576184" d="M0 0h836v1024H0z"/><g fill-opacity=".502"><path fill="#000062" d="M394 1086L-62 150l748 200z"/><path fill="#dbe9fd" d="M898 566L446 118 826-62z"/><path fill="#ffffa3" d="M310 1086L-62 978l244-188z"/><path fill="#ffffa9" d="M898 1086l-88-296-372 192z"/><path d="M74 654L-2 802l380 52z"/><path fill="#ccdff0" d="M210-14L-22-62l72 348z"/><path fill="#000362" d="M570 1026L258-42 62 250z"/><path fill="#fff" d="M602 730l-4-232 124 204z"/><path fill="#ffff9a" d="M-42 810l64 276 236-204z"/><path fill="#fffff7" d="M802 422l-36 260 132 64z"/><path fill="#001000" d="M594 798l172-124 132 176z"/><path fill="#f6ff98" d="M634 1086l-80-288 344 120z"/><path d="M242 130l240-16-64-124z"/><path fill="#00005a" d="M746 694L514 354l264 32z"/><path fill="#cde1ba" d="M278 706L94 682l128-88z"/><path fill="#ffffe7" d="M534 142l-40 200-32-120z"/><path fill="#0b1984" d="M-62 326v316l764-260z"/><path fill="#97b1dd" d="M434-46l292 520-52-536z"/><path fill="#00075c" d="M618 634l-412 64 72 304z"/><path fill="#a7c3ff" d="M70 246L2 230l104 184z"/><path fill="#e3ff98" d="M270 1086L-62 874l304-48z"/><path fill="#5071e4" d="M606 722l-172 288 144 12z"/><path fill="#a26d47" d="M366 322L494 2l-16 356z"/><path fill="#000076" d="M510 266l144 32 100 396z"/><path fill="#dbebe0" d="M94 586l-68 36-4 108z"/><path fill="#e8e7dd" d="M386-22L282 98l24-160z"/><path fill="#415a79" d="M630 190L502 70l100-28z"/><path fill="#cda39c" d="M898 422l-220 8 76 96z"/><path fill="#8292a4" d="M430 618l160-56-260 16z"/><path fill="#091555" d="M82 398l272 196 328-80z"/><path fill="#ecfaf2" d="M630 522l92 204-68 4z"/><path fill="#d2f785" d="M810 1086l88-268-336 32z"/><path fill="#0a1c7e" d="M510 970l60-328-336 332z"/><path fill="#d5d8d2" d="M614 158l88 248 100-168z"/><path fill="#122805" d="M610 830l-4-104 292 56z"/><path fill="#b7cdda" d="M526 450l68-8-40 60z"/><path fill="#fff" d="M518 62l-32 56 32 80z"/><path fill="#0b1c03" d="M246 830l-308-72 324-52z"/><path fill="#000023" d="M-38 602l192-168-140 40z"/><path fill="#5564b3" d="M122 574l-56-80h300z"/></g></svg>