<svg xmlns="http://www.w3.org/2000/svg" width="228" height="278" viewBox="0 0 836 1024"><path fill="#6f7987" d="M0 0h836v1024H0z"/><g fill-opacity=".502"><path fill="#fff" d="M202 986l252 100 444-192z"/><path fill="#dfe6e0" d="M890 1086L766 410 466 238z"/><path fill="#00002d" d="M406 738l424-160-632 16z"/><path fill="#150000" d="M722-62l176 420H654z"/><path fill="#0071da" d="M-62 530L86 986l152-476z"/><path fill="red" d="M646 926l252 52-224 108zm-708 48l340-40-88 152z"/><path fill="#ffcc94" d="M154 754l552-64-196 192z"/><path fill="#cdffff" d="M898 750l-268 40 16 180z"/><path fill="#0073c9" d="M70-62h332L-62 354z"/><path fill="#2a0900" d="M194 154l32 176-288 76z"/><path fill="#00002e" d="M662 934l-332 12-16-124z"/><path fill="#007bd2" d="M390-62L666-2l-72 300z"/><path fill="#cf8548" d="M526 94L262-62l104 508z"/><path fill="#e1984e" d="M314 838l-196 196 144-592z"/><path fill="#fff" d="M254 1086l288-112-292-48z"/><path fill="#c06717" d="M442 950l284-400 52 140z"/><path fill="#fff" d="M618 322l-260 60 136-124zm-408 16l140-4-24-60z"/><path fill="#00127f" d="M306 450l256 16 16-104z"/><path fill="#005ba0" d="M898 534L766 638l-36-188z"/><path fill="#0070b8" d="M166 878L82 470-62 954z"/><path fill="#4a2000" d="M450 178l-184 28 156 136z"/><path fill="#94d5ff" d="M622 938l216-380 60 344z"/><path fill="#c8bfa3" d="M222 594l424-124-440-16z"/><path fill="#d0c8b4" d="M846 362l-228 20-8 396z"/><path fill="#003580" d="M894 206L558-62l336 44z"/><path fill="#c9d1d0" d="M414 18L110 86l100 96z"/><path fill="#00001e" d="M610 782l20 144-124 20z"/><path fill="#000556" d="M438 730L234 570l412 100z"/><path fill="red" d="M818 1086L654 986l200-48z"/><path fill="#fff" d="M370 430l-20-92h88z"/><path fill="#6a4023" d="M634 18l240 132-188 232z"/><path fill="#000052" d="M266 898l128 52 80-124z"/><path fill="#332e1e" d="M474 582L278 478l192 12z"/><path fill="#000f83" d="M238 458l156-20-176-80z"/><path fill="#eaf7fb" d="M422 754l-144-64 108 160z"/><path fill="#90c5e5" d="M502 38l-56 192 128-52z"/><path fill="#0071c6" d="M254 182l80 76-148 64z"/><path fill="red" d="M-62 974l152 112 16-152z"/></g></svg>