<svg xmlns="http://www.w3.org/2000/svg" width="228" height="278" viewBox="0 0 836 1024"><path fill="#4d3334" d="M0 0h836v1024H0z"/><g fill-opacity=".502"><path fill="#a20115" d="M726 958L302 270l-72 816z"/><path fill="#76867f" d="M-50-30L6 1086l268-144z"/><path fill="#037a77" d="M718 1086L698-6l200 600z"/><path fill="#002011" d="M70 478L898 18 50-62z"/><path fill="#ed687a" d="M678 1086l108-88-268-260z"/><path fill="#a61a2a" d="M118 414l580-84-132 332z"/><path fill="#49040d" d="M30 434l692 204-412 248z"/><path fill="#a16e69" d="M558 390L486 62 350 78z"/><path fill="#00211c" d="M326 346L886-62 702 298z"/><path fill="#fbc7b9" d="M202 658l-48 132 92 48z"/><path fill="#00936b" d="M18 834l-80 176 200 68z"/><path fill="#8a998b" d="M-2 670L-50-62 82 250z"/><path fill="#f8354c" d="M198 1086l432-232-160 180z"/><path fill="#961932" d="M50 762l124-376 204-108z"/><path fill="#67857c" d="M830 426l68-292-180 4z"/><path fill="#140000" d="M654 410l-80 320 92 148z"/><path fill="#200000" d="M358 654L218 518l36 472z"/><path fill="#030300" d="M254 206l152 224 116-84z"/><path fill="#050e01" d="M130 142L606 2-62-22z"/><path fill="#fbe870" d="M598 506l-16 88-40-48z"/><path fill="#904d46" d="M334 202l92-44 188 216z"/><path fill="#002820" d="M130 1038L38 790l20 228z"/><path fill="#821f2c" d="M610 850l-92-448-368 32z"/><path fill="#0e0c06" d="M386 170l460-68-16-164z"/><path fill="#26685e" d="M878 806l-96 268-124-460z"/><path fill="#0c352c" d="M42 78l44 432 280-308z"/><path fill="#9b9fb7" d="M74 618l-124-24 96 120z"/><path fill="#750b1f" d="M58 622l252-236-128 300z"/><path fill="#ffff0d" d="M354 378l-40-68-4 36z"/><path fill="#0d182f" d="M786 694l112 188-72-488z"/><path fill="#b42e3c" d="M510 306l60 224 136-136z"/><path fill="#0d5b58" d="M502 178l296-64-16 136z"/><path fill="#ffe916" d="M298 594l16-24 68-4z"/><path fill="#8c6d61" d="M178 1086L78 806l156 12z"/><path fill="#9d253a" d="M398 778l256 212-76-284z"/><path fill="#1d5450" d="M258 98l56 100-376-20z"/><path fill="#00241f" d="M730 186L622 354 470 250z"/><path fill="#ff4b69" d="M742 958l-116-28 44-56z"/><path fill="#c0bbb5" d="M42 354l-104-76H62z"/><path fill="#380000" d="M442 1054l220 32-100-140z"/></g></svg>