<svg xmlns="http://www.w3.org/2000/svg" width="228" height="278" viewBox="0 0 836 1024"><path fill="#405669" d="M0 0h836v1024H0z"/><path fill="#fef7f7" fill-opacity=".455" d="M641.93 441.953l66.023-341.728-307.503.104-37.574 177.877z"/><path fill="#0f0505" fill-opacity=".722" d="M898 79.282l-396.615 6.836L-62 19.82 773.462-62z"/><path fill="#f59f6f" fill-opacity=".463" d="M383.471 202.7L-62 266.542l48.544-146.15L320.1 52.518z"/><path fill="#005a9b" fill-opacity=".596" d="M384.169 298.976l340.855 186.957 85.046 599.006L313.363 1086z"/><path fill="#4178a1" d="M276.152 705.075L104.728 368.004l355.694 80.903-21.363 279.05z"/><path fill="#2b1715" fill-opacity=".624" d="M109.466 110.4L-62 32.367 214.695-59.42-6.697 1086z"/><path fill="#3b2518" fill-opacity=".596" d="M-62 773.135l368.26 215.187 47.4-80.401-136.603-296.807z"/><path fill="#00203a" fill-opacity=".667" d="M488.764 657.113l-98.584-38.177 204.673-154.054 199.395 188.54z"/><path fill="#bcbcbe" fill-opacity=".765" d="M483.453 685.897l-32.944-54.688-185.331 44.58 91.828 44.943z"/><path fill="#d4ebfd" fill-opacity=".478" d="M-62 134.52L51.468 96.763l88.676 84.051L34.32 278.102z"/><path fill="#742400" fill-opacity=".416" d="M393.715 35.271L-62 414.568l275.42-68.789 172.346 58.692z"/><path fill="#333337" fill-opacity=".949" d="M695.48 399.487L727.82-62 898 153.228 738.651 445.507z"/><path fill="#ffc980" fill-opacity=".243" d="M182.49 696.92l44.475 228.47L76.2 1086l-70.662-17.871z"/><path fill="#e9fae3" fill-opacity=".212" d="M810.15 1086h-31.28L676.15 627.42l108.797 55.31z"/><path fill="#9db8cb" fill-opacity=".882" d="M134.398 377.81l106.354-52.238-17.597 45.928-117.352 62.106z"/><path fill="#3fb1f8" fill-opacity=".369" d="M619.662 331.026l-174.346-56.622-62.578 125.046 400.176 93.628z"/><path fill="#02355c" fill-opacity=".875" d="M350.003 708.541L655.57 877.898l-324.075-18.97-59.279-137.711z"/><path fill="#080000" fill-opacity=".306" d="M510.545 284.233l-45.319 34.99L513.462-33.1l103.412-19.917z"/><path fill="#501e01" fill-opacity=".565" d="M743.96 624.546l121.966-73.128-34.142 475.024-29.866-297.432z"/><path fill="#fff5d6" fill-opacity=".192" d="M680.563 107.624l54.583 163.363 3.396 20.366-608.22-107.69z"/><path fill="#00467a" fill-opacity=".675" d="M192.802 573.64l-50.25-173.537 17.083 297.053 431.736-129.499z"/><path fill="#2e282d" fill-opacity=".835" d="M109.237 731.01l-1.859-389.428L-62 859.818l86.538 157.212z"/><path fill="#0095ff" fill-opacity=".243" d="M751.561 800.159L468.506 941.727 618.168 1086h224.156z"/><path fill="#78492b" fill-opacity=".741" d="M229.702 376.052l63.046 69.04 87.104-58.51 30.84-106.772z"/><path fill="#c69894" fill-opacity=".996" d="M307.402 500.228l-1.277 90.405 32.43-27.496-2.69-59.738z"/><path fill="#94afc2" fill-opacity=".843" d="M556.86 371.874l5.46-42.542 151.03 120.547-39.82 41.5z"/><path fill="#aeb6ba" fill-opacity=".816" d="M278.376 683.803l-25.218-60.2 76.832 48.941-49.398 52.638z"/><path fill="#002a4f" fill-opacity=".451" d="M742.444 659.727l-274.746 56.941 63.261-352.307 65.263 41.947z"/><path fill="#096396" fill-opacity=".678" d="M697.065 430.599L614.48 309.163l223.373 253.539-92.243 67.966z"/><path fill="#c2e6ff" fill-opacity=".443" d="M392.912 451.718l58.313.81-22.621 125.999-12.02-4.41z"/><path fill="#00204a" fill-opacity=".549" d="M625.48 974.937l-140.275 53.865L160.832 1086l530.54-173.237z"/><path fill="#95b7d1" fill-opacity=".992" d="M408.264 339.918l223.335 42.42-89.602-55.07-103.295-28.563z"/><path fill="#fda06e" fill-opacity=".518" d="M227.977 131.451l-47.423-51.553 90.421-31.125L349.814 89.5z"/><path fill="#50332c" fill-opacity=".545" d="M-62 295.448l80.302 424.454 106.557-329.295 232.99-170.496z"/><path fill="#0a5f9b" fill-opacity=".827" d="M245.108 367.677l-139.294 69.621 28.164 83.172 131.432-96.09z"/><path fill="#0e73bb" fill-opacity=".737" d="M550.534 391.809l-121.609-48.907-112.649 102.976-174.069 115.6z"/><path fill="#973000" fill-opacity=".294" d="M168.741 706.702l-4.421 328.273L251.383 1086l-.94-334.391z"/><path fill="#000913" fill-opacity=".251" d="M813.315 255.971L592.43 347.805 738.932 460l-64.69-522z"/><path fill="#151417" fill-opacity=".757" d="M309.704-62l57.013 265.367L431.933-62l114.165 195.33z"/><path fill="#001a3c" fill-opacity=".62" d="M436.579 936.52l54.476-6.695L702.4 810.579l-98.168.837z"/><path fill="#1f99e9" fill-opacity=".565" d="M389.324 866.106l-59.125-8.085 64.305 76.389 65.797-39.294z"/><path fill="#7d9593" fill-opacity=".906" d="M165.635 1086h-62.96L74.661 893.913l85.219 36.37z"/><path fill="#e85d07" fill-opacity=".18" d="M785.645 819.424l-76.901-57.218-15.266-107.175 195.125-49.607z"/><path fill="#0e70b3" fill-opacity=".788" d="M439.793 565.654l-.278-98.847 97.526 24.758 1.644 46.71z"/><path fill="#021a2a" fill-opacity=".78" d="M505.923 783.17l-309.648-64.4-5.55-117.36 75.636 115.138z"/><path fill="#ffeef0" fill-opacity=".224" d="M600.439 74.651l60.29-3.285 20.987 126.416-141.518 153.785z"/><path fill="#4e270f" fill-opacity=".627" d="M185.325 165.578l103.736-52.72 30.225 44.061-130.216-38.64z"/><path fill="#1b150a" fill-opacity=".369" d="M302.791 431.764l58.662-195.626-231.126 146.996 61.85-141.538z"/><path fill="#a87778" fill-opacity=".231" d="M138.202 540.455l77.52 314.244L-62 327.52v475.787z"/><path fill="#1ca8ff" fill-opacity=".404" d="M613.72 756.496l81.455 28.463-194.839 50.77 76.014-46.653z"/><path fill="#01080f" fill-opacity=".549" d="M546.678 555.676l255.568 109.2-64.478-3.886-184.259-200.37z"/><path fill="#dde2dc" fill-opacity=".667" d="M211.397 1018.038l39.159 18.426-11.254 44.119-28.872-122.381z"/><path fill="#0964a6" fill-opacity=".659" d="M508.095 835.05l-96.627-45.892 266.598-113.433-46.433-54.685z"/><path fill="#ffe3da" fill-opacity=".243" d="M357.616 325.28l70.268-269.518 36.48 22.554 14.302 98.056z"/><path fill="#0c2c47" fill-opacity=".569" d="M279.301 1000.631L438.05 648.685l10.595 31.237-152.597 73.75z"/><path fill="#0464aa" fill-opacity=".596" d="M396.374 688.551l-4.97-241.334-275.208-6.614 217.216 61.902z"/><path fill="#021d3a" fill-opacity=".847" d="M487 674.621l93.695 25.71-137.92 20.283 71.663-88.254z"/><path fill="#feecde" fill-opacity=".494" d="M404.312 693.596l-7.897-63.097 49.146 108.535-34.378-18.55z"/><path fill="#2f1214" fill-opacity=".188" d="M551.44 35.466L443.138 284.358l85.95 13.218 19.73-119.914z"/><path fill="#1c191c" fill-opacity=".824" d="M185.82 80.605L384.62-62H4.637l139.666 206.431z"/><path fill="#edd7c8" fill-opacity=".427" d="M220.822 478.467L187.23 564.26l49.907 8.803-47.747-86.14z"/><path fill="#001222" fill-opacity=".361" d="M-42.282 653.449L158.1 896.18l-43.185-276.046L4.821 1020.518z"/><path fill="#8f817d" fill-opacity=".416" d="M718.788 313.79l-99.795 22.296 80.408-214.896 21.258-3.57z"/><path fill="#e9f5ff" fill-opacity=".302" d="M130.433 135.124L-62 140.247l84.638 90.674 37.859-21.282z"/><path fill="#2b8cc6" fill-opacity=".596" d="M625.38 353.136l-244.713-82.037 22.729 32.7 109.03-12.98z"/><path fill="#916d56" fill-opacity=".263" d="M742.523 388.366l91.71 247.328L898 329.97l-77.958-69.69z"/><path fill="#064c78" fill-opacity=".784" d="M783.956 619.905L645.532 439.06 772.71 540.29l-135.622 31.352z"/><path fill="#091019" fill-opacity=".38" d="M309.43 1024.318l55.08-132.67 44.452 93.832-201.339-205.397z"/><path fill="#766e6d" fill-opacity=".541" d="M-62 321.761L152.363 153.46 48.517 315.63l-34.552-27.074z"/><path fill="#003863" fill-opacity=".765" d="M601.397 710.615l-83.46 80.076 25.3 4.128 141.697-77.897z"/><path fill="#907f67" fill-opacity=".322" d="M293.58 849.49l-82.535 78.913 60.274 95.488-2.032-303.428z"/><path fill="#1069a9" fill-opacity=".831" d="M291.83 690.11l-3.72-131.527-2.293-117.37-74.566-50.215z"/><path fill="#c6c6c1" fill-opacity=".518" d="M264.27 712.136l217.227-13.98-205.45-1.327-32.843-14.667z"/><path fill="#0f79c3" fill-opacity=".51" d="M429.068 1000.908l-85.28-80.47-32.817 104.406 247.42-90.446z"/><path fill="#b26f4c" fill-opacity=".365" d="M297.198 461.646l86.278-80.514 22.37-321.898-71.935 295.363z"/><path fill="#187dc5" fill-opacity=".988" d="M742.562 1086l-80.848-114.93-130.976 46.304-84.531 67.564z"/><path fill="#1a2430" fill-opacity=".733" d="M898 928.152l-85.715-146.686-1.183 194.919 38.22 19z"/><path fill="#001842" fill-opacity=".529" d="M482.192 947.186l-107.12-10.964 96.097-23.73-102.416 110.12z"/><path fill="#3a2723" fill-opacity=".514" d="M8.749 307.846l262.67-55.26-3.109-75.09L-62 500.88z"/><path fill="#fcfcfc" fill-opacity=".325" d="M345.056 641.825l1.82 70.193 86.536-89.524 32.433 36.926z"/><path fill="#e09067" fill-opacity=".384" d="M160.704 249.263l89.778-141.438 46.324 132.053 60.854-104.313z"/><path fill="#53bfff" fill-opacity=".275" d="M724.376 426.007l-30.344-31.673 32.002 73.671 138.19 139.944z"/><path fill="#031016" fill-opacity=".624" d="M792.171 706.225l-45.458-86.444 84.64-44.35-47.565 57.025z"/><path fill="#00447a" fill-opacity=".341" d="M198.132 480.394l129.896 223.644 70.408-185.992-6.187 151.49z"/><path fill="#d1bbaa" fill-opacity=".439" d="M790.415 1076.573l13.714-87.8 12.259 5.115 48.6 15.572z"/><path fill="#129ffd" fill-opacity=".384" d="M489.784 874.638l-63.81 44.392 73.738-16.823 27.85-16.466z"/><path fill="#0e3458" fill-opacity=".757" d="M430.952 763.177l-31.068-72.367-18.407 77.68 121.709-110.82z"/><path fill="#678a98" fill-opacity=".294" d="M78.835 1086l-3.06-242.177 97.233-102.215-9.838-149.675z"/><path fill="#3b76a7" fill-opacity=".514" d="M528.663 343.616l123.963 99.695-70.411-79.866-123.887-32.928z"/><path fill="#d4ced8" fill-opacity=".125" d="M746.787 135.59l59.304 42.741 10.54-74.786-59.568-73.02z"/><path fill="#105580" fill-opacity=".831" d="M510.504 405.785L769.85 544.017 627.363 390.664 866.496 603.29z"/><path fill="#00000d" fill-opacity=".361" d="M697.632-45.517l96.711 342.952L677.287 68.353 337.107 10.68z"/><path fill="#f2eae3" fill-opacity=".525" d="M416.902 707.314l-45.02 5.301 91.698-14.534 2.956-32.975z"/><path fill="#fef4ef" fill-opacity=".318" d="M600.23 394.159l-111.853-76.536 198.229 167.266-27.972-2.893z"/><path fill="#cb7549" fill-opacity=".314" d="M867.101 730.73l-84.099-90.956 35.003-38.536 76.696-252.95z"/><path fill="#0b6da8" fill-opacity=".4" d="M775.55 978.056L605.652 573.314l-87.061 39.837 87.661 12.428z"/><path fill="#000515" fill-opacity=".325" d="M670.276 546.134L685.23 779.42l40.02 9.56-113.338-231.735z"/><path fill="#0e72bc" fill-opacity=".604" d="M629.193 695.211l-116.591 79.636-96.017-21.211 7.118-7.116z"/><path fill="#03395b" fill-opacity=".639" d="M108.403 451.158l46.475 149.324 129.99 105.994-159.231-222.954z"/><path fill="#49444a" fill-opacity=".239" d="M-21.66-62l213.103 204.306-35.973 94.818L-62-5.35z"/><path fill="#2493d4" fill-opacity=".51" d="M705.211 411.248l-78.64-76.761-61.352-7.114 48.577 39.598z"/><path fill="#015695" fill-opacity=".588" d="M635.275 447.87l-164.207 22.556-31.343-22.9 92.177-85.481z"/><path fill="#ece7e1" fill-opacity=".506" d="M297.038 719.614l-24.287-98.342-8.67 14.505 6.976 41.489z"/><path fill="#2bc5ff" fill-opacity=".243" d="M809.92 1037.131l1.915 48.869L710.62 851.02l43.916-23.141z"/><path fill="#cad0db" fill-opacity=".345" d="M508.62 164.115l-123.556-55.369 35.041 179.178-67.626-40.058z"/><path fill="#ee7b71" fill-opacity=".357" d="M217.198 448.943l5.376 62.973-22.431 5.292-11.48-25.658z"/><path fill="#001e3b" fill-opacity=".325" d="M808.394 818.234l67.016-25.741-460.538 99.815 241.314-95.301z"/><path fill="#f8f6f6" fill-opacity=".514" d="M542.724 329.41l86.46 72.097 68.033 68.656-142.412-123.335z"/><path fill="#433d43" fill-opacity=".525" d="M192.534 1086l-94.98-448.468-143.971 179.16L119.19 483.51z"/><path fill="#126198" fill-opacity=".639" d="M177.132 394.28l-34.51 12.202 66.751 119.673-44.998 111.273z"/><path fill="#0179d5" fill-opacity=".212" d="M497.93 939.52l-297.668 145.703 566.326-234.308-47.743-92.16z"/><path fill="#4a8e55" fill-opacity=".8" d="M309.72 597.775l-21.653-83.763-5.742-9.813 23.313 2.246z"/><path fill="#42b7fd" fill-opacity=".251" d="M199.507 714.86l-57.719-139.33-39.58-135.638 65.489 256.942z"/><path fill="#241206" fill-opacity=".298" d="M739.236 356.197l-49.283 45.477-75.806-100.68 25.803 14.522z"/><path fill="#06171f" fill-opacity=".459" d="M291.21 335.265L167.168 382.28l66.823-32.405 143.512-91.152z"/><path fill="#664531" fill-opacity=".835" d="M355.229 251.274l33.13-132.479 3.749 40.858-169.314 116.956z"/><path fill="#1d72a7" fill-opacity=".365" d="M357.714 840.912l106.965 14.496-158.09-51.122 40.613 133.515z"/><path fill="#0b0800" fill-opacity=".416" d="M151.746 525.227L277.021 764.85l-107.08-60.645 55.649.832z"/><path fill="#cbefff" fill-opacity=".271" d="M229.748 325.47l26.12 26.973-118.61 60.505-20.039-10.252z"/><path fill="#032c4d" fill-opacity=".867" d="M294.52 691.39l47.401 40.366L550.757 889.11l-239.35-129.82z"/></svg>