<svg xmlns="http://www.w3.org/2000/svg" width="228" height="278" viewBox="0 0 836 1024"><path fill="#b46a64" d="M0 0h836v1024H0z"/><path fill="#b82c28" fill-opacity=".851" d="M185.727 1086l105.828-790.927 393.997 71.735 127.153 192.427z"/><path fill="#f3d3d5" fill-opacity=".765" d="M898 665.905V1086H616.98l-47.09-253.088z"/><path fill="#e1e6e9" fill-opacity=".714" d="M224.68 687.178l8.343 80.41L79.497 1086-62 717.44z"/><path fill="#97c2c7" fill-opacity=".49" d="M468.857-62L139.971 276.124 53.913 555.54-62 14.817z"/><path fill="#b51313" fill-opacity=".765" d="M519.105 633.149l-267.357 62.05L165.889 1086l431.343-73.4z"/><path fill="#e54b46" fill-opacity=".988" d="M540.681 604.525L77.926 511.077l112.252-176.922 515.363 52.783z"/><path fill="#bcd1d2" fill-opacity=".549" d="M577.967 139.699l209.306 151.139L898 80.538 572.525 38.616z"/><path fill="#042a13" fill-opacity=".537" d="M388.73 284.33L401.194-62 592.679 86.975 309.409 47.24z"/><path fill="#1d0101" fill-opacity=".675" d="M687.381 431.24l-65.175 108.585 77.566 98.745 88.302-92.381z"/><path fill="#3a2500" fill-opacity=".553" d="M-46.015 731.05L251.35 515.316l75.085 3.557-26.5 95.379z"/><path fill="#4a504e" fill-opacity=".525" d="M305.065 222.925l-212.02 73.346-7.219 71.08 746.497-61.704z"/><path fill="#260103" fill-opacity=".698" d="M224.892 1086l88.257-177.212-46.602-123.906-105.517 280.465z"/><path fill="#e4b0a7" fill-opacity=".616" d="M335.765 709.683L453.357 543.81l-265.315-64.84 198.49-28.203z"/><path fill="#add9b7" fill-opacity=".353" d="M898 741.815l-368.159-250.57 78.002-46.176 48.553 447.45z"/><path fill="#ff6560" fill-opacity=".659" d="M676.099 848.055L898 904.276l-180.75 37.496L652.208 1086z"/><path fill="#d6eeff" fill-opacity=".549" d="M273.362 237.357L144.12 105.722 370.824 8.178 212.036-62z"/><path fill="#fd8676" fill-opacity=".976" d="M119.4 1086h47.895l47.684-242.8-71.48-8.167z"/><path fill="#e2e3e8" fill-opacity=".98" d="M657.01 973.425L614.039 762.09l-18.841 16.238-24.06 135.918z"/><path fill="#564a3a" d="M581.641 64.529l-38.85 188.658-7.543-139.133L428.982-42.735z"/><path fill="#83615f" fill-opacity=".702" d="M203.431-62L-34.43 222.329-62 345.096 168.731 105.31z"/><path fill="#7f4a38" fill-opacity=".898" d="M660.922 816.799l47.412-17.04-120.596-58.65-29.57-14.245z"/><path fill="#d4bdfa" fill-opacity=".357" d="M783.275 444.239L632.997 336.237 898 313.132v81.415z"/><path fill="#29251e" fill-opacity=".98" d="M346.964 185.285l9.954-114.625L438.718-62l-71.552 256.595z"/><path fill="#f2f5fc" fill-opacity=".388" d="M282.11 526.548l109.713 13.276-55.03 131.734 99.015-55.46z"/><path fill="#d32624" fill-opacity=".812" d="M510.602 1071.133l-222.552-220.6 146.048-228.721 171.827 129.44z"/><path fill="#bca285" fill-opacity=".769" d="M21.553 723.718l113.392-61.793 83.027-67.191 14.17 119.944z"/><path fill="#730300" fill-opacity=".353" d="M314.807 492.173l-3.045 292.005L90.48 491.242 21.07 588.08z"/><path fill="#db9e85" fill-opacity=".922" d="M580.704 103.963l-21.901-73.132 196.72 30.618-212.131 185.684z"/><path fill="#ffd498" fill-opacity=".62" d="M410.087 143.18l77.7 7.378 45.376-50.88-88.62-32.09z"/><path fill="#f93531" fill-opacity=".608" d="M61.54 520.653L310.706 309.82l113.775 16.4-281.093 234.054z"/><path fill="#dee5f2" fill-opacity=".671" d="M609.948 803.987l-11.964 242.004 162.234-335.339L898 872.698z"/><path fill="#ea9590" fill-opacity=".82" d="M44.948 794.77l19.575 231.473 135.184-16.007L-62 1058.023z"/><path fill="#c6e9f1" fill-opacity=".525" d="M-49.943 784.092l14.806-90.58 272.316 44.622-23.309 108.059z"/><path fill="#683b2c" fill-opacity=".98" d="M447.413 304.852l-76.816-53.012 86.36 130.342 96.391-60.196z"/><path fill="#1d2906" fill-opacity=".494" d="M528.807 184.982l33.752-23.09-7.566-8.602-252.144 11.217z"/><path fill="#8b7b6e" fill-opacity=".918" d="M258.52 53.41l83.264 282.503 8.31-277.203 20.67-13.502z"/><path fill="#061813" fill-opacity=".184" d="M551.452 817.174l22.346-154.184-62.39-83.683 323.154-88.43z"/><path fill="#cd955c" fill-opacity=".643" d="M598.666 706.99l95.41 113.261 124.477-296.91-35.01 52.15z"/><path fill="#12a9ff" fill-opacity=".137" d="M817.403-62l6.55 323.852-53.201 88.733-143.318 21.42z"/><path fill="#e0d8ff" fill-opacity=".522" d="M576.318 440.817l-18.223 72.717 25.502 17.83 40.567-17.681z"/><path fill="#e72523" fill-opacity=".686" d="M390.255 557.898l187.837 68.67-33.744-195.756-162.445 192.576z"/><path fill="#233000" fill-opacity=".435" d="M30.04 711.274l-66.203-84.643 217.39-3.706-84.418 60.848z"/><path fill="#a0a08a" fill-opacity=".475" d="M178.426 186.722l148.305-72.978 86.4 264.434 102.878 11.274z"/><path fill="#c1ffbc" fill-opacity=".325" d="M168.18 595.725l54.593-126.477 155.867 8.3-154.453 52.284z"/><path fill="#8c1615" d="M288.147 756.518l177.399-151.422-228.448 135.901-44.22 238.574z"/><path fill="#e8faff" fill-opacity=".561" d="M774.551 1086l-66.575-32.382 33.964-141.753 87.346 94.595z"/><path fill="#fb3c37" fill-opacity=".698" d="M223.646 325.63l343.458 158.174-301.999 14.153 201.834 64.624z"/><path fill="#fcdc97" fill-opacity=".408" d="M464.56 263.32l-90.463-84.344 224.775 23.608-151.207 20.5z"/><path fill="#ff6d4d" fill-opacity=".627" d="M743.05 874.863l112.815 132.32L898 952.227 764.396 855.22z"/><path fill="#47525a" fill-opacity=".424" d="M152.092 400.48l267.322-168.974-29.4-24.098L95.972 311.927z"/><path fill="#6c5728" fill-opacity=".722" d="M801.96 564.211l12.66 28.83-40.137 73.73-61.564 97.97z"/><path fill="#bc2c2c" fill-opacity=".976" d="M410.764 969.238l180.025-39.845 18.532 35.475L566.024 1086z"/><path fill="#ffdbe7" fill-opacity=".31" d="M-62 79.96l160.95 52.489-40.8-189.482L168.211-62z"/><path fill="#cfe0f8" fill-opacity=".357" d="M153.396 157.475l45.347 35.522 81.349-31.746-51.459-190.605z"/><path fill="#a3faf8" fill-opacity=".318" d="M346.53 615.604L330.055 493.72l-7.412 100.894 1.703 27.97z"/><path fill="#e7dee8" fill-opacity=".478" d="M145.38 1068.563l-8.103-328.008L70.25 853.344l6.684 167.33z"/><path fill="#3c0202" fill-opacity=".431" d="M176.117 549.807l144.248-36.838-279.34 66.324 7.416-43.793z"/><path fill="#bdeae4" fill-opacity=".698" d="M531.245 611.686l19.895 3.32 3.353 18.287-29.85-.464z"/><path fill="#dcffff" fill-opacity=".494" d="M399.083 550.75l-37.88 98.154 8.526-111.462 92.437 7.746z"/><path fill="#946f6a" fill-opacity=".659" d="M613.624 657.987l-30.778 131.594 102.888-135.899 32.777-89.37z"/><path fill="#ff3336" fill-opacity=".337" d="M75.971 155.884L-42.085 17.417 37.4 684.258-62 241.741z"/><path fill="#805655" fill-opacity=".612" d="M647.577 342.563L898 260.013 730.865 277.82l-300.95-66.063z"/><path fill="#b6c0be" fill-opacity=".596" d="M110.668 342.095l-125.063-20.383L-62 426.102l150.585-43.964z"/><path fill="#980102" fill-opacity=".455" d="M497.75 775.887L721.175 405.08l59.476 138.325-131.306-113.423z"/><path fill="#e1dbd6" fill-opacity=".616" d="M481.31 609.341l-11.063-3.147-11.525 23.306 38.594 1.551z"/><path fill="#921920" fill-opacity=".51" d="M356.352 343.054L493.38 410.08l59.123-39.243-141.223 39.535z"/><path fill="#83110f" fill-opacity=".745" d="M221.56 568.367l30.457 358.258-17.086-189.903 105.15-216.293z"/><path fill="#670002" fill-opacity=".573" d="M341.054 1003.034l271.142-70.836-161.453 24.737-112.786 39.676z"/><path fill="#ff2f2f" fill-opacity=".471" d="M701.017 403.795l-17.735 48.292-140.984-9.55-9.518-127.144z"/><path fill="#fdcba3" fill-opacity=".557" d="M485.885 147.118l-17.699-71.152-34.782 21.291 52.023 111.722z"/><path fill="#fff1ff" fill-opacity=".498" d="M375.544 495.897l-55.958-12.364 29.564-47.65 15.121 32.093z"/><path fill="#d32723" fill-opacity=".843" d="M373.565 899.287L593.23 661.819l-219.19-12.575 28.075-102.116z"/><path fill="#999586" fill-opacity=".545" d="M857.227 505.134L898 739.136l-188.747 1.207-14.484 86.956z"/><path fill="#423917" fill-opacity=".694" d="M262.869 570.814L92.163 666.967l149.032-146.591 44.308-1.7z"/><path fill="#fffefd" fill-opacity=".369" d="M428.82 562.92l-1.23 61.304-131.96 32.568 79.874 1.143z"/><path fill="#030b00" fill-opacity=".376" d="M551.165 159.377l-54.478 195.016 78.04-226.743-50.232-105.59z"/><path fill="#e2e0fe" fill-opacity=".353" d="M747.684 156.693l91.669 26.334L898 92.64l-122.957 5.98z"/><path fill="#b59643" fill-opacity=".353" d="M160.785 618.642L-62 684.389l125.915-89.23L218.19 542.3z"/><path fill="#787a81" fill-opacity=".694" d="M366.592 202.382l29.653 92-39.184 19.481-76.987 8.65z"/><path fill="#e6aa73" fill-opacity=".659" d="M725.793 686.595l-53.914 71.939-40.114-37.154L786.44 559.296z"/><path fill="#01211e" fill-opacity=".365" d="M717.274 561.78l-43.945 117.5 62.211-74.22 49.914-39.94z"/><path fill="#89a8ad" fill-opacity=".294" d="M215.097 704.53l-189.892-.329 40.24 363.759L83.42 757.52z"/><path fill="#d3e7e2" fill-opacity=".349" d="M512.625-26.557L200.93 87.986l127.885-44.397L-27.223-62z"/><path fill="#dda972" fill-opacity=".549" d="M394.295 361.363l53.858 25.913-27.967-57.846-27.696-40.085z"/><path fill="#94bcbf" fill-opacity=".345" d="M526.534 275.552l137.878 92.464-4.248 6.901-137.213-62.043z"/><path fill="#8f8065" fill-opacity=".427" d="M898-62L724.112 131.55l-53.198-91.435L367.738 55.37z"/><path fill="#ff302d" fill-opacity=".592" d="M457.09 1086L302.51 964.3l221.596-51.52-277.207 116.28z"/><path fill="#001a0c" fill-opacity=".196" d="M209.412-62l-63.916 167.82-55.599-72.062 88.134-70.438z"/><path fill="#e8ebed" fill-opacity=".635" d="M598.973 732.884l57.602 328.106-73.24 19.41 22.411-130.173z"/><path fill="#f02409" fill-opacity=".325" d="M232.5 875.157l-68.07 44.541-12.972-53.588 125.825-60.36z"/><path fill="#649bb4" fill-opacity=".576" d="M720.744 259.5l47.023 22.716 54.41-31.555-43.22-79.38z"/><path fill="#360405" fill-opacity=".647" d="M206.471 899.767l128.904-50.044-146.519 181.049 17.73-114.468z"/><path fill="#8c1312" fill-opacity=".992" d="M405.885 864.697L578.96 751.033l14.347 6.862L210 991.063z"/><path fill="#a07a69" fill-opacity=".533" d="M721.32 251.531l102.388 75.105-284.693-92.663 116.079-97.43z"/><path fill="#ec9db6" fill-opacity=".608" d="M888.707 900.824l-163.225-46.379-90.844 131.3 26.422-163.284z"/><path fill="#f63430" fill-opacity=".651" d="M379.649 603.59l236.635-45.761-304.702-241.058 137.23 258.454z"/><path fill="#cd201e" fill-opacity=".761" d="M265.694 732.556l99.95-65.712-77.248-25.37-39.081 107.067z"/><path fill="#c1906d" d="M198.029 607.886L102.565 720.08l123.63-60.665-5.387-52.004z"/><path fill="#3e0300" fill-opacity=".518" d="M564.04 606.555l199.367-125.697-139.59 56.125-10.794 120.898z"/><path fill="#d61d1e" fill-opacity=".424" d="M229.646 327.845L93.113 482.698l224.55-15.13-63.884-16.685z"/><path fill="#f1f7f9" fill-opacity=".639" d="M358.086 542.282l76.496 13.593-105.794-23.859-5.379 44.12z"/><path fill="#f5f0f5" fill-opacity=".506" d="M217.892 822.944l-83.902 5.765-14.16-62.147 117.214-11.488z"/><path fill="#fe3b36" fill-opacity=".639" d="M586.73 999.008L446.195 970.95l120.308-21.514-6.61-3.082z"/><path fill="#b39377" fill-opacity=".553" d="M348.017 119.501L-62 303.212l23.085 48.084 380.328-159.141z"/><path fill="#0d1e15" fill-opacity=".467" d="M442.038 77.184l-101.235 11.25 48.75-80.004-6.88 41.828z"/><path fill="#ffaf90" fill-opacity=".718" d="M684.61 72.613L581.515 58.02l-5.397 115.444 93.125-73.423z"/><path fill="#defcff" fill-opacity=".545" d="M427.477 594.524l3.952-25.44 2.702-15.595-27.312-7.296z"/><path fill="#650103" fill-opacity=".58" d="M445.566 972.458L329.22 997.857l228.898-74.97 17.329-37.304z"/><path fill="#e4eff2" fill-opacity=".945" d="M573.508 880.693l29.353-107.44 25.955 8.658-13.835 186.79z"/><path fill="#fb3630" fill-opacity=".573" d="M596.805 772.16L400.695 965.4l90.586-28.898 70.383-38.474z"/><path fill="#9d0d0f" fill-opacity=".561" d="M304.281 598.381l47.148-50.004 18.67-2.278-22.363 39.277z"/><path fill="#63150c" fill-opacity=".604" d="M412.245 854.942L671.963 727.94l-50.551 41.797-33.608-12.084z"/><path fill="#000202" fill-opacity=".302" d="M270.883 726.254L475.948 601.72l70.954-35.626-262.178 163.383z"/><path fill="#ad1917" fill-opacity=".98" d="M229.001 748.826l129.235-128.278-50.346-6.559-18.953-20.099z"/><path fill="#440304" fill-opacity=".506" d="M156.398 1086h-68.27L403.23 892.015l-93.917 73.672z"/><path fill="#d2f3f7" fill-opacity=".514" d="M730.049 731.092L898 779.772v88.518l-181.658-66.533z"/><path fill="#9b9797" fill-opacity=".604" d="M77.152 153.386l44.264 295.935 48.366-76.377L55.288 525.49z"/><path fill="#a46932" fill-opacity=".443" d="M391.705 208.068l122.693 82.79-53.769 30.709-125.967-110.724z"/><path fill="#bd332c" fill-opacity=".498" d="M318.641 524.085l123.137 20.45-162.553-54.396-41.374 147.478z"/><path fill="#d52c23" fill-opacity=".518" d="M28.288 550.554L19.806 472.4l-27.87.845L2.462 633.333z"/></svg>