<svg xmlns="http://www.w3.org/2000/svg" width="228" height="278" viewBox="0 0 836 1024"><path fill="#573b4f" d="M0 0h836v1024H0z"/><path fill="#acada7" fill-opacity=".71" d="M859.988-62L312.135 15.439l250.45 60.335L677.941 328.42z"/><path fill="#101106" fill-opacity=".573" d="M189.094 580.68l206.672-452.57L29.124-62-62 160.394z"/><path fill="#60449b" fill-opacity=".639" d="M606.222 1065.276L253.188 1086l72.922-700.704 287.044-22.783z"/><path fill="#370601" fill-opacity=".851" d="M631.99 969.478L697.468 1086 898 1005.395 699.14 770.047z"/><path fill="#f8f093" fill-opacity=".412" d="M161.81 484.51l-108.332-.33-75.131 71.81 134.237 107.19z"/><path fill="#5e180e" fill-opacity=".522" d="M895.09 101.591L748.32 83.142 553.448 759.39 898 772.07z"/><path fill="#000027" fill-opacity=".498" d="M322.297 505.727L-62 715.63l94.603 78.147 373.413-122.101z"/><path fill="#fff8d1" fill-opacity=".604" d="M621.91 101.537L399.658-54.54 377.206 93.113 559.348-62z"/><path fill="#f55d5d" fill-opacity=".58" d="M-62 771.905v143.668l150.434 1.99 14.12-98.09z"/><path fill="#90793b" fill-opacity=".416" d="M635.002 183.398l-92.7-159.46L318.526 88.46l95.31 339.515z"/><path fill="#886b99" fill-opacity=".804" d="M642.526 426.776l-94.415-79.52-172.445 277.241 215.411-5.733z"/><path fill="#ff796a" fill-opacity=".471" d="M898 773.017l-135.915-47.383-47.379 97.86L898 900.4z"/><path fill="#000606" fill-opacity=".533" d="M819.149 365.21L716.312-21.154l-93.95 9.506L898 149.677z"/><path fill="#020a04" fill-opacity=".643" d="M246.093 357.568L-62 53.416 76.914 323.285-62 519.073z"/><path fill="#e54f50" fill-opacity=".396" d="M589.508 239.553l220.194 18.932-81.648 264.745L898 499.214z"/><path fill="#1c0f09" fill-opacity=".627" d="M764.028 539.632l55.518 9.59-54.685 167.153-214.253-530.14z"/><path fill="#926ebc" fill-opacity=".659" d="M522.32 876.985l30.658-203.12L632.373 1086 498.05 811.737z"/><path fill="#331967" fill-opacity=".427" d="M295.154 293.805L58.138 975.692 449.646 1086l11.858-224.29z"/><path fill="#f2ddba" fill-opacity=".212" d="M264.701 307.503l-137.51-9.534 54.833-247.205L66.1 117.184z"/><path fill="#310e00" fill-opacity=".62" d="M-45.753 922.905l234.628 12.724 1.752-46.71 58.886 153.783z"/><path fill="#b1e3ec" fill-opacity=".271" d="M423.668 119.81l198.316-12.184 134.87 26.617 13.636 82.571z"/><path fill="#856a58" fill-opacity=".973" d="M397.546 309.025l143.85 28.568-62.52 83.597-171.659-93.9z"/><path fill="#e0d4ff" fill-opacity=".478" d="M833.39 68.744L801.73 87.44 695.804-62l134.794 85.727z"/><path fill="#af2521" fill-opacity=".369" d="M624.188 647.09l37.378-146.033L781.09 911.658l-104.834 40.877z"/><path fill="#33204e" fill-opacity=".965" d="M563.557 707.23L648.4 434.22l-17.099 150.25-5.923 437.489z"/><path fill="#4a0708" fill-opacity=".471" d="M499.606 35.523l-141.91 181.975-33.12 186.48L202.834 171.14z"/><path fill="#080d04" fill-opacity=".604" d="M21.845 1086L-62 797.784l201.262-35.283-177.211-226.163z"/><path fill="#0c201d" fill-opacity=".349" d="M829.311 233.66l-305.029 20.46L898 153.79 657.265 55.309z"/><path fill="#0c0e17" fill-opacity=".788" d="M176.557 443.576l44.162 53.33-92.742 292.319-27.833-8.292z"/><path fill="#573b8b" fill-opacity=".533" d="M583.704 462.537l-50.88 101.39-431.769-118.58 318.387-63.359z"/><path fill="#3f2928" fill-opacity=".851" d="M614.285 374.708l-90.528-28.711 59.25-191.889 86.52 217.815z"/><path fill="#f6f2e3" fill-opacity=".643" d="M612.938 43.292L419.636 23.623 417.448-62H612.48z"/><path fill="#922a28" fill-opacity=".706" d="M69.376 1061.902l-94.48-155.199 113.176-6.522 7.082 115.652z"/><path fill="#010a09" fill-opacity=".694" d="M549.976 1074.388L898 852.733v169.286l-434.932 12.263z"/><path fill="#b4948d" fill-opacity=".549" d="M375.264 563.863l226.385-23.758-215.72 96.234L359.56 525.2z"/><path fill="#10022f" fill-opacity=".322" d="M451.156 737.682l-140.413 53.773 132.92-174.443 69.04-1.014z"/><path fill="#8460b4" fill-opacity=".792" d="M635.562 1003.668l-47.3-37.751L400.2 1045.44 605.737 1086z"/><path fill="#89721b" fill-opacity=".38" d="M73.537 218.25L-62 386.57l178.834 109.534L-5.753 555.04z"/><path fill="#f485c1" fill-opacity=".173" d="M670.92 627.194l-29.838 314.598-17.907-388.249 104.118 6.089z"/><path fill="#ab83d2" fill-opacity=".749" d="M530.857 358.766l7.719 53.704 85.243 7.861-34.678-52.666z"/><path fill="#3b5d6a" fill-opacity=".435" d="M170.788 139.751l-60.352-3.693L237.9-56.867 413.77 7.365z"/><path fill="#ffb9c8" fill-opacity=".18" d="M735.915 130.929l-77.96 240.186 94.381-50.539.936-173.69z"/><path fill="#e0fae3" fill-opacity=".38" d="M-62 1086l20.194-38.257 227.86-41.986-64.53-5.568z"/><path fill="#52050b" fill-opacity=".773" d="M279.864 308.706l75.743 12.264 33.79-54.12-132.722-149.148z"/><path fill="#0f1516" fill-opacity=".659" d="M292.528 353.6l57.594 4.905 108 40.568-39.885 2.524z"/><path fill="#241539" fill-opacity=".827" d="M256.123 521.543l133.88 109.635-195.654 98.047 42.107 185.34z"/><path fill="#d9dfe1" fill-opacity=".51" d="M405.5 461.373l-58.29-11.283 8.788 14.7 39.784 16.88z"/><path fill="#e1eecb" fill-opacity=".216" d="M147.448 531.691L108.942 695.06l-27.353-53.592 41.33-188.855z"/><path fill="#f4e1c9" fill-opacity=".408" d="M327.294 331.27l58.286 44.369-9.612-9.075-3.767-56.843z"/><path fill="#6b6a71" fill-opacity=".506" d="M898 86.646L660.98 107.11l-59.043 174.54-5.367-227.124z"/><path fill="#ffdaba" fill-opacity=".141" d="M552.846 293.405L580.82 65.246l212.55 119.265L432.26 69.196z"/><path fill="#764ce9" fill-opacity=".165" d="M67.08 909.064L226.884 532.55l-61.467 408.32-47.778-17.1z"/><path fill="#583988" fill-opacity=".553" d="M252.39 843.914l225.877 202.768 94.896-159.937-307.638-201.644z"/><path fill="#2e363a" fill-opacity=".659" d="M339.853 363.164l-188.48 143.767L31.28 454.384l273.892-105.59z"/><path fill="#cf848e" fill-opacity=".69" d="M898 857.163l-151.088-53.9 19.358-34.084 113.953 19.839z"/><path fill="#ffeed6" fill-opacity=".2" d="M400.302 260.559l-51.263-30.477 48.357-77.963-64.054-38.91z"/><path fill="#0a101c" fill-opacity=".376" d="M678.532-62l72.09 97.419-47.164 55.73 72.981 60.224z"/><path fill="#303222" fill-opacity=".451" d="M190.516 46.748L417.88 172.541l13.216-148.87 110.623 67.98z"/><path fill="#c46901" fill-opacity=".404" d="M587.77 491.888l7.764-34.088-15.103-40.91-42.246 20.416z"/><path fill="#6c352c" fill-opacity=".612" d="M689.89 809.04l152.975-88.524-225.952-95.15 249.719 313.989z"/><path fill="#9ab4af" fill-opacity=".624" d="M571.338 613.357l-23.553-15.307-25.811-51.546 93.624 3.972z"/><path fill="#6b1412" fill-opacity=".459" d="M588.003 380.927l193.47-68.91 9.534-73.778L898 437.996z"/><path fill="#000a12" fill-opacity=".502" d="M237.911 244.71l29.407-68.571-67.6-80.547-52.026 138.467z"/><path fill="#171523" fill-opacity=".584" d="M616.375 521.166l-18.638-58.329 80.408 74.492 32.83-169.242z"/><path fill="#2f2118" fill-opacity=".561" d="M389.029 216.798l295.346 219.719-65.934-109.38-165.855-26.82z"/><path fill="#20191f" fill-opacity=".988" d="M621.55 977.422l-22.616-40.305 52.992-4.096 42.679 100.14z"/><path fill="#0d0f09" fill-opacity=".427" d="M748.24 573.065l29.727-49.026 20.119 156.815-110.732 21.409z"/><path fill="#191317" fill-opacity=".914" d="M220.815 990.662L92.446 1003.96l5.56-75.526 54.392 4.938z"/><path fill="#644295" fill-opacity=".918" d="M339.588 369.036L576.8 489.032l-289.042-72.7-29.585 8.304z"/><path fill="#b3aaf0" fill-opacity=".263" d="M231.55 380.342l-60.858 40.755-36.157 164.64-24.526-56.56z"/><path fill="#4d307b" fill-opacity=".608" d="M318.856 562.845l240.126-17.008-59.006-54.857-238.132 12.264z"/><path fill="#350b08" fill-opacity=".627" d="M-35.76 906.998L35.537 1086l.768-138.74L-62 931.53z"/><path fill="#6a1b14" fill-opacity=".482" d="M206.037 776.729l3.275 26.978 12.923 150.323-54.435 52.23z"/><path fill="#13151d" fill-opacity=".792" d="M193.485 424.018l51.434 34.693-86.627 94.307 149.307-192.032z"/><path fill="#d6ffff" fill-opacity=".176" d="M466.06 15.131l140.836 70.125 121.066 39.655 34.955 92.532z"/><path fill="#686ffd" fill-opacity=".176" d="M612.671 750.854l37.4-132.67-7.246 294.627-21.623-.679z"/><path fill="#d2797d" fill-opacity=".729" d="M-37.628 792.73L-62 912.69l93.505-36.807 17.706-52.24z"/><path fill="#df4f51" fill-opacity=".227" d="M829.3 318.213l-177.87-107.78-12.12 106.502 16.576 44.587z"/><path fill="#c490ff" fill-opacity=".188" d="M616.334 872.035l-114.822-75.083-35.964 12.119-13.694 61.81z"/><path fill="#10100f" fill-opacity=".824" d="M98.706 179.96L-62 66.346l4.061 149.776 217.822 97.844z"/><path fill="#3e2860" fill-opacity=".725" d="M528.543 792.91l-27.782-28.157-1.66-73.51 59.388 147.523z"/><path fill="#9d795f" fill-opacity=".337" d="M199.844 284.76l-88.128-25.02 140.746-4.814 19.718 40.857z"/><path fill="#f2b180" fill-opacity=".133" d="M113.572 61.128L92.638 90.99l45.466 133.16 40.797-91.975z"/><path fill="#764dad" fill-opacity=".208" d="M425.193 662.118L291.7 779.573l-66.272-222.404-38.682 121.74z"/><path fill="#622700" fill-opacity=".208" d="M518.938 8.777l41.518 173.81-15.592-6.559-74.282 2.478z"/><path fill="#090a03" fill-opacity=".549" d="M369.168 117.209l32.24 33.52 19.075 12.327 17.127-43.108z"/><path fill="#00163e" fill-opacity=".353" d="M740.005 19.532l-91.797 11.227L583.338-62H773.27z"/><path fill="#8e95c2" fill-opacity=".286" d="M587.906-13.346l-34.227 33.159 112.03 49.776L898 88.125z"/><path fill="#fff2bb" fill-opacity=".271" d="M369.333 65.986L503.165-55.987 384.953 85.234l-24.71 62.82z"/><path fill="#690200" fill-opacity=".533" d="M670.435 963.36l89.855-42.288 4.618-75.203L640.7 829.063z"/><path fill="#000306" fill-opacity=".294" d="M299.069 303.358L57.624 283.395l7.665 197.602L315.334 324.1z"/><path fill="#daebd9" fill-opacity=".549" d="M84.572 1086l100.922-70.738-48.758-13.153L294.703 1086z"/><path fill="#967384" fill-opacity=".271" d="M13.162 262.03L-40.95 454.747l10.276-41.314L76.33 291.237z"/><path fill="#12191d" fill-opacity=".557" d="M532.484 288.83l22.345-28.6-56.34 163.587 24.948-42.201z"/><path fill="#484146" fill-opacity=".596" d="M898 551.256l-402.416 5.692 6.553 61.335-36.456-56.726z"/><path fill="#29183d" fill-opacity=".565" d="M569.63 795.751l75.156-136.491-30.426-116.511-46.822 174.632z"/><path fill="#b9aeca" fill-opacity=".565" d="M586.449 1038.456l88.934 21.747-81.572-63.087 59.688-3.198z"/><path fill="#dbf0d7" fill-opacity=".42" d="M211.1 442.876l-17.073-10.375 13.377 22.445 16.183 29.593z"/><path fill="#9f8d75" fill-opacity=".486" d="M563.26 224.447l-61.545 122.517-12.675-6.02 82.917-188.131z"/><path fill="#b38f02" fill-opacity=".514" d="M59.57 517.768l8.174-29.529-23.974-24.812-36.506 49.394z"/><path fill="#4a5975" fill-opacity=".992" d="M182.884-62l72.85 92.042 64.378 13.1 59.532-29.893z"/><path fill="#bf1a19" fill-opacity=".525" d="M807.007 774.37l-28.586-51.502 85.748 2.205L898 780.339z"/><path fill="#a44144" fill-opacity=".42" d="M781.105 544.75l47.695-26.69-11.303-112.374-105.922-2.523z"/><path fill="#c0dcd8" fill-opacity=".451" d="M83.083 1008.533l65.41-3.796-52.28 30.21 72.746 26.501z"/><path fill="#b32722" fill-opacity=".322" d="M667.817 534.465l-39.023 17.085 4.51 114.573 103.834-75.175z"/><path fill="#442d69" fill-opacity=".631" d="M592.93 873.344l-177.193 119.48L274.047 1086l221.647-199.815z"/><path fill="#261333" fill-opacity=".62" d="M247.436 803.128l-201.745-4.426 217.748-26.923-145.773-113.906z"/><path fill="#200d25" fill-opacity=".235" d="M389.534 601.237l13.988 201.955-104.729-18.098 166.238-136.289z"/><path fill="#2b1918" fill-opacity=".388" d="M572.06 121.776l90.958 412.763-20.75-287.972-78.5-8.838z"/><path fill="#b0383f" fill-opacity=".525" d="M898 17.037v151.288l-83.079-138.12L799.324-62z"/><path fill="#5b586b" fill-opacity=".396" d="M164.118 515.797l21.5-79.346-4.113-39.557-117.73 103.85z"/><path fill="#657179" fill-opacity=".424" d="M646.971-44.708l-39.34 301.451 175.765-77.902-203.687 19.83z"/><path fill="#f2988e" fill-opacity=".267" d="M377.29 625.887l-10.147-47.795 117.626-28.239-16.076 70.231z"/><path fill="#af8d37" fill-opacity=".431" d="M55.64 600.195l12.925 45.268 62.68-15.857-19.057-72.074z"/><path fill="#aa353e" fill-opacity=".384" d="M92.014 845.391l11.743-108.334-74.192 155.24L92.155 1086z"/><path fill="#985fe5" fill-opacity=".263" d="M513.468 492.148l97.82 72.886-56.646-92.825-22.06-128.391z"/><path fill="#011205" fill-opacity=".596" d="M130.491 1009.808l-27.614 31.678 268.721 24.357L334.843 1086z"/><path fill="#0a0806" fill-opacity=".584" d="M802.838 283.365l-33.517-149.57 120.237-64.394-68.896 132.63z"/><path fill="#641f1b" fill-opacity=".663" d="M679.4 861.26l.45-82.482 28.574-236.458 23.757 239.064z"/><path fill="#221535" fill-opacity=".69" d="M588.051 825.614l-21.659-52.068 13.097-135.144 26.276-68.141z"/></svg>