<svg xmlns="http://www.w3.org/2000/svg" width="228" height="278" viewBox="0 0 836 1024"><path fill="#a76d6c" d="M0 0h836v1024H0z"/><path fill="#86aaf1" fill-opacity=".867" d="M111.397 1079.15L-59.17 980.356l69.49-400.007 288.06-39.11z"/><path fill="#3f2519" fill-opacity=".824" d="M372.012 399.467l107.717-13.99L612.46 82.174 319.98-62z"/><path fill="#f4360c" fill-opacity=".753" d="M621.108 681.968l-66.303 384.104-346.914-90.178 37.47-280.31z"/><path fill="#ff4b00" fill-opacity=".549" d="M152.533 333.945L33.12 527.416l748.522 54.854-146.181-288.797z"/><path fill="#6d9cef" fill-opacity=".722" d="M626.078 969.023l133.7-155.085 31.13-748.327L898 1086z"/><path fill="#343ea8" fill-opacity=".91" d="M756.54 399.77l97.416-19.206 3.61-151.903L543.91 250.72z"/><path fill="#00299a" fill-opacity=".506" d="M27.572 724.173l33.101-322.619L304.4 205.304l-359.955 32.773z"/><path fill="#ff9064" fill-opacity=".8" d="M898 201.051L844.148-62 519.412-14.093l175.585 220.352z"/><path fill="#ffffd4" fill-opacity=".486" d="M-62 759.235l318.256-54.999L152.824 1086h302.965z"/><path fill="#5278eb" fill-opacity=".757" d="M196.807 481.514l45.463 144.55-15.334 99.602L-62 664.354z"/><path fill="#b5afb0" fill-opacity=".8" d="M267.013 663.848L146.793 500.06l428.239 167.737-168.6 24.88z"/><path fill="#aeb9ca" fill-opacity=".961" d="M898 420.043v98.579l-115.483 74.101-93.538-214.155z"/><path fill="#ffa477" fill-opacity=".718" d="M73.04 62.237L19.671 234.074-62-62l352.07 83.063z"/><path fill="#724132" fill-opacity=".992" d="M467.632 385.7l88.98-146.125-219.087-38.3 42.384 183.319z"/><path fill="#adfdff" fill-opacity=".298" d="M-40.046 146.656l295.077-8.467L84.288 393.507l253.989-113.335z"/><path fill="#dbffeb" fill-opacity=".38" d="M898 116.219l-298.97 34.25-6.381 26.678 113.307 78.268z"/><path fill="#000e12" fill-opacity=".486" d="M647.345 108.421L475.805-21.645 331.925 90.268l220.465 87.657z"/><path fill="#bcd0c5" fill-opacity=".608" d="M521.386 427.978l-74.208 13.84 18.3 77.785 52.278-5.15z"/><path fill="#fd6a1e" fill-opacity=".761" d="M183.067 864.648l129.78-181.653-84.281-51.32L398.42 1086z"/><path fill="#450000" fill-opacity=".259" d="M463.565 901.281L566.64 441.805l64.654 156.029 79.71 58.516z"/><path fill="#b9d0ea" fill-opacity=".859" d="M844.621 861.028L808.9 719.957l-91.862 156.06 34.49 24.917z"/><path fill="#e4c1c5" fill-opacity=".71" d="M213.63 497.76l-20.302-9.586-157.245 78.68 163.896 1.33z"/><path fill="#dbeaf9" fill-opacity=".647" d="M646.867 673.04l35.828 32.884-24.966 85.722-20.295 56.383z"/><path fill="#3e2723" fill-opacity=".984" d="M-62 673.672L84.59 517.056l-58.964-25.4L-62 553.34z"/><path fill="#ffb854" fill-opacity=".447" d="M216.751 961.392l153.8 5.757L135.692 1086-62 985.736z"/><path fill="#ffaa3a" fill-opacity=".569" d="M343.614 297.146l-151.518 12.481-194.538 178.94 15.79 20.928z"/><path fill="#0042f1" fill-opacity=".459" d="M179.622 885.093L-62 898.814v55.42l206.332-3.513z"/><path fill="#0748f2" fill-opacity=".529" d="M673.367 906.892l-24.296 55.901 199.757 6.34L898 893.322z"/><path fill="#0045e9" fill-opacity=".475" d="M804.858 719.845l61.067 38.449-11.648-164.574-124.852-38.773z"/><path fill="#532e17" fill-opacity=".722" d="M584.998 1086l-77.315-35.159 83-96.85 65.391 27.696z"/><path fill="#c7c6ba" fill-opacity=".455" d="M412.437 806.864l-48.751-286.89-5.81 302.172 36.031 2.17z"/><path fill="#cdb6a2" fill-opacity=".624" d="M898 993.299L535.542 964.67l95.873-115.93 27.63 237.26z"/><path fill="#ff1600" fill-opacity=".345" d="M73.628 453.792L318.2 293.046l147.212 164.639-176.124 91.714z"/><path fill="#ff7a24" fill-opacity=".62" d="M688.175 362.105l73.105 221.924-233.136-147.197-2.199-185.877z"/><path fill="#d7e8f5" fill-opacity=".718" d="M122.061 709.145l-148.2 18.866L-62 897.068 202.922 835.7z"/><path fill="#736a6e" fill-opacity=".741" d="M207.56 229.907L185.327 82.495l253.776 164.01-58.359 48.233z"/><path fill="#edd6b3" fill-opacity=".737" d="M620.006 558.929l143.164-37.61L898 494.187l-268.3 80.7z"/><path fill="#e0542a" fill-opacity=".565" d="M706.242 125.679l-141.88-15.001L637.558-62l116.45 173.998z"/><path fill="#1e59f3" fill-opacity=".451" d="M251.086 585.315L232.8 690.168-62 709.998l96.895-128.085z"/><path fill="#785f4c" fill-opacity=".8" d="M651.568 942.335l133.024-271.61-.68 80.232-25.321 60.751z"/><path fill="#f0e5e4" fill-opacity=".808" d="M226.338 1086l-51.065-174.693 15.928-26.232 41.268 131.936z"/><path fill="#f8701f" fill-opacity=".835" d="M259.004 683.346L197.16 876.551 256.79 1086l14.915-69.901z"/><path fill="#f76d20" fill-opacity=".769" d="M152.408 940.423L149.055 1086h70.57L170.65 908.026z"/><path fill="#d40f13" fill-opacity=".416" d="M542.413 965.03L673.03 648.851 429.27 705.54l-64.916 350.203z"/><path fill="#85a0ff" fill-opacity=".498" d="M343.02 269.783l-38.152 24.054-144.792 30.69 83.315-95.583z"/><path fill="#839d92" fill-opacity=".369" d="M636.777 634.889l-100.59-71.107-422.444-11.613 398.023 138.999z"/><path fill="#0d0000" fill-opacity=".412" d="M423.758 400.058l82.83-48.789 11.11-30.096-166.807 22.483z"/><path fill="#2a3fa7" fill-opacity=".42" d="M516.874 267.105l144.27-72.428 39.344 228.348L898 309.229z"/><path fill="#d30003" fill-opacity=".392" d="M596.058 389.978l-119.6 151.453-8.317 17.853 164.305-9.266z"/><path fill="#700012" fill-opacity=".353" d="M192.962 492.587l55.981-5.45-32.084-75.495L-.585 569.049z"/><path fill="#004209" fill-opacity=".259" d="M706.007 720.646l-77.69-76.242-82.427 17.749 31.866-160.198z"/><path fill="#31298d" fill-opacity=".588" d="M-62 536.875V277.013l250.72-27.47-26.614 55.793z"/><path fill="#c1825e" fill-opacity=".318" d="M523.366 145.243l-10.159 48.727L373.3 174.609l7.196-60.572z"/><path fill="#794d6b" fill-opacity=".843" d="M757.981 204.823l45.773 1.963 89.155 48.729-163.035-23.328z"/><path fill="#c7c6bd" fill-opacity=".431" d="M80.064 413.121L-62 522.323l81.346-35.671 65.231 1.988z"/><path fill="#fb8057" fill-opacity=".373" d="M432.198 215.87L215.76 507.405l151.37-242.291 133.536-2.099z"/><path fill="#d8dee5" fill-opacity=".49" d="M238.944 640.332l113.677 47.546 112.74-7.77-64.899-36.678z"/><path fill="#f6ddb9" fill-opacity=".882" d="M235.514 1086L319.7 969.208l-53.01 12.796 10.387 56.502z"/><path fill="#f73a19" fill-opacity=".667" d="M407.9 685.956l-96.726-4.328L477.304 1086l-260.83-282.998z"/><path fill="#b39477" fill-opacity=".604" d="M770.31 630.01l13.916 88.207-149.531 191.957L466.936 1086z"/><path fill="#91a186" fill-opacity=".376" d="M571.412 257.708l15.604-218.964 93.011 232.582 207.627-113.802z"/><path fill="#0f1112" fill-opacity=".639" d="M321.643 86.35l254.043 73.95L531.694 5.03 360.303 138.132z"/><path fill="#224c4f" fill-opacity=".275" d="M54.453 144.763l78.322-28.196 385.158 266.197L101.548 50.101z"/><path fill="#c4e6fa" fill-opacity=".545" d="M70.188 392.792l39.73-28.663 17.531-18.07-11.648 60.77z"/><path fill="#d41e17" fill-opacity=".835" d="M270.126 509.415l18.576-19.365 124.66-98.06 103.497 3.15z"/><path fill="#a3bea2" fill-opacity=".255" d="M112.905 176.866l79.608 79.673L280.54 21.666 121.666 54.212z"/><path fill="#ff5b15" fill-opacity=".49" d="M481.255 364.47L429.32 579.453 272.696 519.43l370.857-161.79z"/><path fill="#4a4b7d" fill-opacity=".549" d="M141.607 284.813l173.907-76.92 71.284 76.884-314.905-94.095z"/><path fill="#f5a6a2" fill-opacity=".694" d="M554.168 297.741l-46.408 90.14 27.139-108.705 6.523 32.849z"/><path fill="#d06457" d="M641.863 826.776l-11.986 33.374-17.492-72.553 7.876-123.484z"/><path fill="#f4c3a9" fill-opacity=".769" d="M331.4 323.279l4.623 23.764 22.846-71.175L328.97 320.3z"/><path fill="#9fb5a2" fill-opacity=".467" d="M332.757 209.854l-53.595-43.176 5.767-44.102 64.693 16.055z"/><path fill="#d36a48" fill-opacity=".941" d="M457.072-62l-30.005 82.624-98.234-41.709L898 19.673z"/><path fill="#ff8813" fill-opacity=".337" d="M45.764 488.799l98.307-128.33 96.793-63.294 91.09 60.903z"/><path fill="#a0594c" fill-opacity=".839" d="M337.156 72.11l-76.771-47.889 33.394-74.611 68.186 106.94z"/><path fill="#ce271a" fill-opacity=".776" d="M605.089 788.311l-11.78 116.66-118.657-21.96-91.931-160.55z"/><path fill="#c31201" fill-opacity=".267" d="M279.593 599.09l86.519 29.188-21.777-28.748-109.753-28.34z"/><path fill="#f1a185" fill-opacity=".702" d="M577.93-62l1.766 184.51 4.888-76.57-42.687-1.667z"/><path fill="#9b7f69" fill-opacity=".769" d="M663.457 582.991l86.886-26.373 40.325 197.612-143.176-154.837z"/><path fill="#c4d8f4" fill-opacity=".502" d="M135.401 897.04l71.301-39.06-99.219-115.8 151.275-49.913z"/><path fill="#728cc0" fill-opacity=".686" d="M898 424.737l-203.34-21.71 2.3-21.616L898 379.554z"/><path fill="#dbffed" fill-opacity=".412" d="M406.836 705.171l-51.391 33.009 10.272-50.13-2.793 11.025z"/><path fill="#905941" fill-opacity=".906" d="M349.24 361.473l46.88-257.105-54.052 136.752 80.724-19.746z"/><path fill="#00151e" fill-opacity=".271" d="M650.354 17.528L620.92 139.314l-73.427-73.043-34.97 191.316z"/><path fill="#bcb1ae" fill-opacity=".961" d="M580.23 1076.48l80.7-91.689 201.345 27.604L851.437 1086z"/><path fill="#e9d3c9" fill-opacity=".478" d="M62.461 555.509L77.14 542.87l120.401-58.016 20.125 55.461z"/><path fill="#e7e1ca" fill-opacity=".349" d="M693.185 400.5L898 585.891l-169.315-45.44 11.93-24.99z"/><path fill="#512611" fill-opacity=".42" d="M587.742 1086h-5.02l-16.38-144.343 75.936 30.005z"/><path fill="#ea9273" fill-opacity=".859" d="M474.042 27.758L497.605-62l120.62 107.782L428.817-56.03z"/><path fill="#ff7339" fill-opacity=".443" d="M717.02 139.093l-78.607-18.85L680.121 1.005 898 80.438z"/><path fill="#bfc3ca" fill-opacity=".549" d="M393.203 608.791l-121.75-35.375 19.84-26.201 94.38 31.653z"/><path fill="#a3eff5" fill-opacity=".38" d="M453.048 435.72l29.401-7.33-32.655 69.041 47.217 10.345z"/><path fill="#ff6219" fill-opacity=".573" d="M547.949 341.401l201.24 159.205-110.978 50.65-16.937 26.02z"/><path fill="#e2b595" fill-opacity=".549" d="M121.955 202.383l-50.06-3.375L-31.99 1.846-62 207.253z"/><path fill="#fcd1b3" fill-opacity=".247" d="M538.848 199.24l295.706 6.507 11.494-95.865-172.124 23.15z"/><path fill="#ff671f" fill-opacity=".573" d="M461.433 1003.476l66.078-11.291L554.025 1086 273.46 988.837z"/><path fill="#d4ecfa" fill-opacity=".463" d="M644.27 838.56l37.135-136.44-24.45-11.778-21.188 72.313z"/><path fill="#daac95" fill-opacity=".49" d="M673.414 891.073l-135.16 77.982-22.303 112.924 62.514-176.72z"/><path fill="#c8f8fb" fill-opacity=".255" d="M532.411 624.088l-42.883-73.774 62.086 28.057-101.539-2.073z"/><path fill="#321d18" fill-opacity=".949" d="M93.008 527.905l-23.391-14.548L-62 538.287v74.402z"/><path fill="#856ccc" fill-opacity=".557" d="M50.968 558.693L22.47 589.156l227.463-1.502-76.584-25.259z"/><path fill="#f88b5b" fill-opacity=".792" d="M31.752 32.612L258.187 9.777 15.837-62-62 255.594z"/><path fill="#1b1a1a" fill-opacity=".804" d="M357.07 221.362l26.59-196.226 155.673-5.643-191.526 117.522z"/><path fill="#c5bdbe" fill-opacity=".576" d="M-62 1032.744l213.968 11.062-14.052-76.978L-62 968.934z"/><path fill="#f2f6ff" fill-opacity=".251" d="M209.36 312.225l-65.148 40.023 78.907-75.868 135.078 16.694z"/><path fill="#6b7556" fill-opacity=".196" d="M-16.303 279.35l384.004-83.289-263.88 10.73L119.67-61.88z"/><path fill="#371510" fill-opacity=".553" d="M371.139 301.207l136.616-.883 13.758 23.926-35.06 2.47z"/><path fill="#c81817" fill-opacity=".376" d="M163.066 455.311l139.96 101.517-93.006-21.896 117.508-174.415z"/><path fill="#f0461b" fill-opacity=".769" d="M295.13 791.602l-33.112-142.764 98.842 108.999 39.984 21.822z"/><path fill="#fc7023" fill-opacity=".827" d="M363.804 500.092l113.186 64.434 45.302-3.98-280.369-27.66z"/><path fill="#ef7639" fill-opacity=".8" d="M205.494 805.027l25.035 99.957-50.233-19.434 52.07-81.208z"/><path fill="#fe8855" fill-opacity=".424" d="M353.084 429.932l22.362-16.467-135.497 67.993 68.08-4.06z"/><path fill="#ff8c22" fill-opacity=".451" d="M672.034 336.671l-104.958-58.992 5.14 105.915 133.125 82.308z"/><path fill="#e8efef" fill-opacity=".455" d="M246.922 738.797L-54.877 882.054-62 719.08l251.133 137.778z"/><path fill="#030400" fill-opacity=".349" d="M381.952 218.965l153.22-35.532-74.843 53.16-42.423-46.936z"/><path fill="#ff9d27" fill-opacity=".588" d="M123.4 362.177l38.218 44.374 162.235-102.025-188.693 39.545z"/><path fill="#6b5f4f" fill-opacity=".667" d="M-47.58 517.191l116.634-12.66-34.567-32.315-92.49 78.189z"/><path fill="#be9c8f" fill-opacity=".529" d="M614.611 750.27l-24.055 223.566 37.436-264.382 2.646-82.917z"/><path fill="#291200" fill-opacity=".235" d="M622.24 983.532l139.307-213.585 27.887-51.995-14.13 60.986z"/><path fill="#aa8d79" fill-opacity=".596" d="M646.524 999.475l100.53-430.281L540.26 1086l81.194-189.707z"/></svg>