<svg xmlns="http://www.w3.org/2000/svg" width="228" height="278" viewBox="0 0 836 1024"><path fill="#312c20" d="M0 0h836v1024H0z"/><path fill="#efd381" fill-opacity=".361" d="M898 549.384L803.432 1086l-48.454-560.474-36.872-79.003z"/><path fill="#886a48" fill-opacity=".4" d="M241.99 28.706L898 144.976 115.083 401.711 34.298 200.126z"/><path fill-opacity=".596" d="M450.8 166.74L26.057 555.97l391.853 473.683 252.149-154.868z"/><path fill="#d2c291" fill-opacity=".537" d="M610.177 518.185l12.035 221.577 64.868 114.02 5.413-77.266z"/><path fill="#e2a5ae" fill-opacity=".576" d="M178.134 936.642l38.803-65.715 44.488 11.35-42.448 89.43z"/><path fill="#000502" fill-opacity=".78" d="M778.51 655.96L661.157 324.065l-58.14 132.088 125.68 463.62z"/><path fill="#ea92a0" fill-opacity=".184" d="M305.66 570.745l-58.427-24.47L64.16 326.657 326.805 295.1z"/><path fill="#665931" fill-opacity=".58" d="M849.9 74.924L483.34 41.711l88.622 307.184 271.017-14.69z"/><path fill="#68685c" fill-opacity=".706" d="M5.165 686.803l12.173-224.092L-62 1086 89.696 938.225z"/><path fill="#7a8191" fill-opacity=".831" d="M724.733 873.22l82.28-1.088-17.659 61.749-59.19-6.153z"/><path fill="#793325" d="M579.168 449.55l-67.002-3.492 8.557 111.76 50.306-17.29z"/><path fill="#040703" fill-opacity=".78" d="M322.87 698.123L56.35 336.472l-32.982 350.25-52.773 51.08z"/><path fill="#d4e4d0" fill-opacity=".369" d="M152.2 710.375l23.44 104.655 40.59-.767-.227-59.593z"/><path fill="#e46c58" fill-opacity=".675" d="M448.73 1086l85.2-73.336 252.029 66.346-253.025-89.932z"/><path fill="#d7d6ee" fill-opacity=".443" d="M352.858 58.83l12.235 45.923-47.758 11.633 7.11-73.108z"/><path fill="#bcc5ae" fill-opacity=".329" d="M38.793 815.266L-62 496.026l109.216 44.342L-62 825.492z"/><path fill="#000619" fill-opacity=".557" d="M51.049 887.857l125.742-29.1L189.044 1086l-93.792-14.875z"/><path fill="#e6553e" fill-opacity=".435" d="M256.979 340.973l-170.7 54.038 27.658-60.57 113.523-46.585z"/><path fill="#020a06" fill-opacity=".537" d="M563.144 446.936l135.565-19.504-358.763-238.823 39.467 288.194z"/><path fill="#fe5a3f" fill-opacity=".435" d="M274.139 502.439l37.672 46.055-87.86 9.618-1.802 3.926z"/><path fill="#262723" fill-opacity=".976" d="M-62 675.027l146.569-324.69 150.27-67.602-223.831 6.825z"/><path fill="#000500" fill-opacity=".824" d="M504.46 921.899l-282.35-51.808-12.15-139.034 417.142-30.464z"/><path fill="#f14135" fill-opacity=".463" d="M650.792 285.38l1.665 53.717-75.537-6.83-17.985-33.272z"/><path fill="#f5fffb" fill-opacity=".188" d="M759.403 523.86l121.701-4.611L898 593.653l-148.397 11.341z"/><path fill="#464729" fill-opacity=".761" d="M690.911 259.681L719.435 492.5 898 527.788l-63.6-304.825z"/><path fill="#cbcfb6" fill-opacity=".345" d="M784.306 715.392l-5.76 90.552L898 803.276v-45.65z"/><path fill="#91afbb" fill-opacity=".486" d="M413.491 101.48l44.887 42.153 3.043 34.734L394.024 95.5z"/><path fill="#ab4d35" fill-opacity=".706" d="M631.228 1068.844l11.811-93.164 31.19 12.67 9.167 73.9z"/><path fill="#e4f1d7" fill-opacity=".29" d="M677.003 739.299l23.247 87.48-82.398-88.366 43.203-52.068z"/><path fill="#39362a" fill-opacity=".996" d="M333.261 144.102l158.45 36.882-24.566 135.758-73.213-243z"/><path fill="#030400" fill-opacity=".384" d="M226.229 800.184l587.949 93.19-235.912 1.47L898 821.13z"/><path fill="#556920" fill-opacity=".933" d="M802.984 876.146l5.717 99.407L836.856 1086 898 687.621z"/><path fill="#e5ad76" fill-opacity=".125" d="M-62 296.672l32.674-271.49 99.932 158.021 170.689 54.272z"/><path fill="#050803" fill-opacity=".694" d="M524.304 656.74l182.259-255.406 80.268 430.252-186.057-380.512z"/><path fill="#2b312e" fill-opacity=".647" d="M375.573 494.732l-92.912-296.158-64.192 302.855 186.749 15.938z"/><path fill="#010908" fill-opacity=".463" d="M139.73 410.625l129.805 60.162-113.38 287.235L35.81 780.689z"/><path fill="#816b46" fill-opacity=".851" d="M596.417 556.01l37.86-8.705 19.646 155.688-23.406 5.378z"/><path fill="#181b18" d="M381.925 1086l230.704-177.958-230.205 27.886-213.911 137.74z"/><path fill="#4a1305" fill-opacity=".498" d="M470.331 711.1l-10.92-116.314-74.069-8.229-109.035 130.535z"/><path fill="#2d382d" fill-opacity=".765" d="M317.37 47.346L57.589 134.441 217.468-62 898 81.175z"/><path fill="#fc361f" fill-opacity=".388" d="M750.65 839.922l84.283 15.292-78.355 11.48-29.081-12.043z"/><path fill="#b5b2ff" fill-opacity=".416" d="M252.688 982.017l17.81-38.14 3.926 54.783-14.098-13.234z"/><path fill="#6e491c" fill-opacity=".62" d="M777.96 715.342l88.209 2.358-4.2-98.306-108.832-25.293z"/><path fill="#e49f76" fill-opacity=".392" d="M283.274 182.96l25.685-.39 13.115-53.97 28.62 62.21z"/><path fill="#1b1a13" fill-opacity=".635" d="M277.811 244.505l223.414-46.151-213.812-5.861 97.887 61.542z"/><path fill="#b2432b" fill-opacity=".867" d="M491.042 481.746l14.05 6.878 52.043 14.491 31.545-29.38z"/><path fill="#dae7ff" fill-opacity=".369" d="M807.796 897.83l-21.285-4.2-40.603 1.035-37.174 18.238z"/><path fill="#83471f" fill-opacity=".337" d="M898 519.87l-135.787-2.33-88.75-52.02 97.287-68.375z"/><path fill="#2d3739" fill-opacity=".604" d="M98.504 394.336L-62 279.959l346.853 227.773-8.435-169.818z"/><path fill="#050a05" fill-opacity=".843" d="M659.348 795.104l31.955 140.314L488.299 722.26l159.628 51.25z"/><path fill="#88c6ff" fill-opacity=".133" d="M210 871.769l-.678 135.795 112.381-139.87 39.533 56.115z"/><path fill="#4a332c" d="M69.83 384.912L441.358 266.56 333.75 292.854l-5.282-5.747z"/><path fill="#160c05" d="M635.013 619.938l-357.141 62.643-25.45 33.974-7.045-69.7z"/><path fill="#2c3236" fill-opacity=".643" d="M168.502 919.141L48.74 796.128l94.236-26.283 90.095 70.604z"/><path fill="#e6efd2" fill-opacity=".157" d="M222.06 813.083l-20.874-85.692-46.941 8.482.584 46.703z"/><path fill="#2e322e" fill-opacity=".804" d="M559.946 892.806l283.182 19.26-306.218 15.112 57.32 156.86z"/><path fill="#d5391b" fill-opacity=".51" d="M189.526 914.092l9.997-19.463 13.613 86.007-33.513-32.438z"/><path fill="#c3634e" fill-opacity=".725" d="M235.03 357.241l13.661-57.566-118.32 30.307 125.006-44.643z"/><path fill="#baadb1" fill-opacity=".267" d="M286.104 110.152l30.299-59.193 155.565 112.296-58.429-51.075z"/><path fill="#050a05" fill-opacity=".624" d="M519.94 928.386l77.552-37.37 24.736-198.774-38.574-220.898z"/><path fill="#0e181c" fill-opacity=".427" d="M670.194 1085.78l14.421-125.486L805.251 920.1l-1.957 71.934z"/><path fill="#000001" fill-opacity=".329" d="M321.467 140.654l166.292 9.463-214.77-39.835-16.361 44.833z"/><path fill="#2a4634" fill-opacity=".451" d="M653.825 329.248l132.043 103.956 104.222-176.28-258.264 29.644z"/><path fill="#ffcfe6" fill-opacity=".251" d="M297 251.587l56.691 3.05 29.167 5.853-82.138 5.166z"/><path fill="#92bff5" fill-opacity=".314" d="M820.577 994.907l-37.67 11.242L835.65 1086l-19.387-66.645z"/><path fill="#9ca5b2" fill-opacity=".494" d="M229.131 1006.497l-16.548-87.978 53.707-24.798-40.074-19.841z"/><path fill="#64532c" fill-opacity=".553" d="M528.406 83.546l256.077 102.13-76.117 115.847-251.524-40.996z"/><path fill="#040803" fill-opacity=".675" d="M780.02 737.242L741.836 512.53l-86.293 151.9 104.72 182.665z"/><path fill="#040000" fill-opacity=".447" d="M507.593 292.578l-22.873-49.413-67.917 354.446 159.442-327.69z"/><path fill="#46504d" fill-opacity=".576" d="M60.147 862.748L-11.287 1086l78.309-62.985 4.7-254.63z"/><path fill="#767a71" fill-opacity=".639" d="M27.632 619.809l6.38-76.692 4.282-16.625L-62 516.906z"/><path fill="#213b2e" fill-opacity=".341" d="M362.264 89.191L446.71 116.5 898 38.304 590.364-62z"/><path fill="#272928" fill-opacity=".639" d="M549.348 326.07l-13.722 74.652 177.665-10.784 48.176-23.835z"/><path fill="#eafff6" fill-opacity=".216" d="M628.76 599.819l-29.762-11.332 19.54-60.226 18.703 77.965z"/><path fill="#020601" fill-opacity=".706" d="M187.892 592.611l123.83 82.474 56.266-21.112-30.336-114.748z"/><path fill="#989a81" fill-opacity=".341" d="M111.977 734.421L-62 768.331l100.03 46.607-.39-75.175z"/><path fill="#fe7c62" fill-opacity=".549" d="M522.965 1000.713l-75.343 79.657-78.334 5.63 198.721-79.855z"/><path fill="#0f221e" fill-opacity=".388" d="M97.171 24.496l323.837 8.615L-62 90.6-.547-62z"/><path fill="#dde2fc" fill-opacity=".478" d="M770.295 917.425l16.094 6.307-5.986 5.546-67.459-3.683z"/><path fill="#c2361d" fill-opacity=".506" d="M250.283 705.296l2.346-31.605-2.352-32.403 13.075 68.102z"/><path fill="#262928" fill-opacity=".992" d="M636.876 976.062l-143.179 30.47 26.531-77.117 149.335-12.133z"/><path fill="#df9792" fill-opacity=".145" d="M71.972 253.785l21.405-82.272 52.504 30.274-29.07 73.774z"/><path fill="#32292b" fill-opacity=".867" d="M229.761 988.142l1.803-51.614 8.17-21.608 56.998-17.031z"/><path fill="#ff7e5a" fill-opacity=".396" d="M93.353 369.241l-3.121-11.918 244.857-66.795-201.823 62.51z"/><path fill="#191b12" fill-opacity=".749" d="M421.828 249.067l-160.45-10.252 218.256-23.678 8.894-71.862z"/><path fill="#fe5535" fill-opacity=".471" d="M554.24 334.97l18.343-2.073 93.685 3.041-114.299-18.011z"/><path fill="#7d2613" fill-opacity=".624" d="M369.723 626.515l17.668-34.893-29.635 2.439 3.396 35.74z"/><path fill="#030601" fill-opacity=".608" d="M685.92 629.629l120.549 228.534-72.815-50.262-27.631 93.69z"/><path fill="#c9efff" fill-opacity=".118" d="M349.436 161.502l55.516 27.544 71.046-76.197-3.782 66.88z"/><path fill="#060a05" d="M450.993 989.042l-94.581-84.5 213.998-73.384L326.095 1086z"/><path fill="#fa6941" fill-opacity=".353" d="M675.079 935.89l-.14-8.121-9.88 17.696 46.86 10.643z"/><path fill="#ff6d4a" fill-opacity=".408" d="M151.469 363.143l122.45-38.14L80.18 396.987l38.76-30.93z"/><path fill="#ad9599" fill-opacity=".275" d="M313.97 212.019l17.492 2.038 37.585 8.622-80.298 13.273z"/><path fill="#3c3929" fill-opacity=".702" d="M193.858 73.263L21.773 88.433l47.048 353.592L40.79 234.626z"/><path fill="#4a3529" fill-opacity=".969" d="M-62 411.924l211.55-75.991 24.76-12.667 401.587-132.654z"/><path fill="#232522" fill-opacity=".62" d="M33.198 728.426L1.73 616.998-23.868 749.29l109.11-39.364z"/><path fill="#050904" fill-opacity=".737" d="M579.47 392.93l46.93 161.777 126.456 165.74-1.13-199.004z"/><path fill="#19160e" fill-opacity=".573" d="M395.756 119.894l-100.509 1.03 143.306 39.68-12.707-26.192z"/><path fill="#aaa98d" fill-opacity=".753" d="M698.122 799.568l-32.894-79.277-48.26 30.683 23.378 1.187z"/><path fill="#d6e1ff" fill-opacity=".478" d="M719.744 902.376l48.674-8.896 35.008 12.13-61.955-.577z"/><path fill="#c4d5ff" fill-opacity=".345" d="M706.35 887.421l93.243-8.403-25.537-3.696 5.758-5.97z"/><path fill="#3d561f" fill-opacity=".91" d="M221.122 975.971L294.771 1086l-331.282-75.488L167.627 1086z"/><path fill="#0f0f09" fill-opacity=".882" d="M373.613 430.015L306.636 303.52l303.745 10.099-144.197 17.2z"/><path fill="#161612" fill-opacity=".698" d="M484.006 476.703l228.286-14.82-65.164-161.368 74.616 133.416z"/><path fill="#7f2d1e" fill-opacity=".525" d="M509.29 514.107l72.393-5.638-6.985 36.604-44.453 23.456z"/><path fill="#fd6d52" fill-opacity=".486" d="M645.546 1078.403l-138.806-62.194 36.946 39.12 61.705-53.588z"/><path fill="#605036" fill-opacity=".478" d="M345.76 400.135l-36.992-31.785-10.384-11.259L225.56 123.81z"/><path fill="#050804" fill-opacity=".592" d="M162.677 789.646l-68.745-426.52-28.165 74.245-35.374 139.71z"/><path fill="#c12e10" fill-opacity=".141" d="M488.864 710.003l63.488-65.228 15.971 14.218-291.572 55.449z"/><path fill="#14160e" fill-opacity=".816" d="M364.578 265.824l60.04-102.08L434.87 320.06l-133.865-44.528z"/><path fill="#030601" fill-opacity=".643" d="M417.204 689.473l63.456-106.92 45.641-31.005 48.428 66.197z"/><path fill="#8d8cff" fill-opacity=".098" d="M253.664 937.758l101.068 23.095-66.642-60.071-22.143 159.608z"/><path fill="#4c4e4a" fill-opacity=".325" d="M166.862 650.477l32.348 92.136-130.594-28.528 95.01 9.087z"/><path fill="#111510" fill-opacity=".827" d="M671.608 931.57l36.531-45.44 48.034-.111-127.236 36.503z"/><path fill="#060c08" fill-opacity=".471" d="M213.184 982.287L107.36 1086l23.402-157.377L54.88 811.247z"/><path fill="#020601" fill-opacity=".714" d="M193.947 726.254l-4.68-38.866 449.15 160.326-378.322 42.665z"/><path fill="#f58a4a" fill-opacity=".145" d="M407.439 178.176l-86.26-2.65-24.128-38.448-42.617 62.835z"/><path fill="#662110" fill-opacity=".549" d="M407.328 594.129l-30.257 1.525 79.934 41.875 7.266-34.704z"/><path fill="#161b18" fill-opacity=".529" d="M540.05 495.466l-63.24 46.178-327.478-56.963 2.752-26.072z"/><path fill="#050905" fill-opacity=".694" d="M662.136 411.565L493.43 436.522l-50.923 194.165-69.137-248.678z"/></svg>