<svg xmlns="http://www.w3.org/2000/svg" width="228" height="278" viewBox="0 0 836 1024"><path fill="#626a74" d="M0 0h836v1024H0z"/><g fill-opacity=".502"><path fill="#3ac7ff" d="M658 382l-436-36 84 740z"/><path fill="#3aa0ee" d="M526 294L190 930l432 72z"/><path fill="#2a0c07" d="M334 334L290-62-62 378z"/><path fill="#ffab69" d="M898 578H722l24 508z"/><path fill="#902e0f" d="M270 738L-62 282l76 804z"/><path fill="#004a8e" d="M298 586l196 312 224-440z"/><path fill="#a4d4fd" d="M722 490l-784-28 388-128z"/><path d="M214 938l56 128 376-56z"/><path fill="#424126" d="M374 366L762-62l136 432z"/><path fill="#e69b62" d="M650 98L366 338 318 90z"/><path fill="#b3f2ff" d="M290 630l80 320-160-16z"/><path fill="#2b2313" d="M862-18L54-62l288 164z"/><path fill="#ece4dd" d="M574 510l-88-4 12-292z"/><path fill="#77d8ff" d="M758 594l-88 8-56-224z"/><path fill="#281c00" d="M78 762l188-172-24-100z"/><path fill="#582a39" d="M594 714l172-32-92 404z"/><path fill="#86d6ff" d="M618 1006l-16-148-240 88z"/><path fill="#564d37" d="M-62 14l16 604L274-38z"/><path fill="#1c3320" d="M582 346l192 224-164-380z"/><path fill="#c49ca2" d="M898 402v448L714 394z"/><path fill="#e31a44" d="M178 950l-20 136-220-88z"/><path fill="#75ccff" d="M338 618l32-316-168 176z"/><path fill="#c99c7b" d="M42 778l116-372 60 100z"/><path fill="#00355c" d="M642 526l-24 164-264-96z"/><path fill="#30315d" d="M-62 922l240-92 52 180z"/><path fill="#ffb994" d="M702 978l52-156 64 116z"/><path fill="#7dcaff" d="M430 418l80-88 188 140z"/><path fill="#ffc897" d="M306 162l192 12-180 52z"/><path fill="#6f1719" d="M622 1022l276-100-92 164z"/><path fill="#00431d" d="M898 358L830 78l-72 276z"/><path fill="#110c00" d="M414 394l48-104-80 16z"/><path fill="#ffe3b1" d="M314 126l156-48 12 52z"/><path fill="#d16436" d="M242 558L22 534l-84 128z"/><path fill="#0772c3" d="M330 722l100 192 188-484z"/><path fill="#ed9d64" d="M554 298l-68-36-24 104z"/><path fill="#d89f92" d="M898 594l-256-4-20 88z"/><path fill="#78739a" d="M502 162l156-12-48-188z"/><path fill="#533a1d" d="M458 170l4-52-196 40z"/><path fill="#40abfd" d="M430 374l-136 96 240 84z"/><path fill="#bb7097" d="M898 102L794-62 758 74z"/></g></svg>