<svg xmlns="http://www.w3.org/2000/svg" width="228" height="278" viewBox="0 0 836 1024"><path fill="#515864" d="M0 0h836v1024H0z"/><g fill-opacity=".502"><path fill="#002d68" d="M150 1086l572-172-512-708z"/><path fill="#c9a883" d="M486 14l404 284-928-68z"/><path fill="#ff0711" d="M706 886l156-456-32 656z"/><path fill="#f5ba91" d="M-62 726l184-280-28 640z"/><path fill="#000012" d="M898 614L602 330l-16 196z"/><path fill="#f1c2a5" d="M886 494L542 182l192 300z"/><path fill="#93c4ec" d="M586 590l-280 20 76-100z"/><path fill="#1f87df" d="M-22 590l212-72 44-264z"/><path d="M334 1086l48-492 72 180z"/><path fill="#002054" d="M814 498L162 382l-20 180z"/><path fill="#097de4" d="M434 294l28 500 80-352z"/><path fill="#0d9bec" d="M246 638L134 970l96 12z"/><path fill="#3d2c20" d="M794 466L250-2l236 348z"/><path fill="#fffffa" d="M358 294l-36-104 136 104z"/><path fill="#1f2e2c" d="M734 14l56 208-268-120z"/><path fill="#007eff" d="M346 242l-64 40 60 216z"/><path fill="#ff8180" d="M706 602l192 36-164 92z"/><path fill="#001624" d="M242 1022l20-744 96 380z"/><path fill="#005ab7" d="M378 758l-104 304 40-608z"/><path fill="#20a3f4" d="M654 942l-100 20-16-168z"/><path d="M566 974l-404 28 328 84z"/><path fill="#0073e0" d="M474 978l-76-16 104-272z"/><path fill="#c6e1ff" d="M598 402l-48-52 4 152z"/><path fill="#363229" d="M470 750l220-176 40 368z"/><path fill="#ffb6ed" d="M406 382l-68-40 32 96z"/><path fill="#cdb6a4" d="M898 210l-288 92-152-104z"/><path fill="#8fa691" d="M110 846l76 224-248-72z"/><path fill="#ffffe7" d="M90 454l24 88 44-88z"/><path fill="#000209" d="M206 518l12 112-148-88z"/><path fill="#898f6d" d="M546 1038l160 48-60-276z"/><path fill="#daa898" d="M446 122l288 280L482-50z"/><path fill="#49473f" d="M582 102l-448 64L258 62z"/><path fill="#050c08" d="M574 726l-52-164-28 376z"/><path fill="#a1ae9b" d="M22 146l-68 124 452-68z"/><path fill="#efb28b" d="M106 566L78 846 10 538z"/><path fill="#583c29" d="M94 234l196 12-352 220z"/><path fill="#b0bfcc" d="M642 54l-40 48-24-136z"/><path fill="#4a2f1b" d="M886 294l-244-20 248 204z"/><path fill="#002045" d="M506 306l-172 8 240 136z"/><path fill="#0f0e02" d="M462 530l-80-28 36-184z"/></g></svg>