<svg xmlns="http://www.w3.org/2000/svg" width="228" height="278" viewBox="0 0 836 1024"><path fill="#618195" d="M0 0h836v1024H0z"/><g fill-opacity=".502"><path fill="#100000" d="M698 14L-6-62l-36 460z"/><path fill="#bff5ff" d="M-62 446l908-188 52 388z"/><path fill="#e3efff" d="M558 1086l24-404-644 324z"/><path fill="#001a5e" d="M506 1058l264-484 128 440z"/><path fill="#066495" d="M-62 854l752-96-264-440z"/><path fill="#dff" d="M342 306l-164-32-240 380z"/><path fill="#844f13" d="M302 390l196-4-56-448z"/><path fill="#eff1f9" d="M534 634l184-360 180 300z"/><path fill="#133a60" d="M-62 574v392l508-380z"/><path fill="#64b6e2" d="M390 586l460-216-680 40z"/><path fill="#c8e8ff" d="M558 618L262 954h324z"/><path fill="#0c0f00" d="M-58 138L302-62l240 172z"/><path fill="#447154" d="M602-62L490 242l408 68z"/><path fill="#e1a873" d="M378 110l92 284 72-260z"/><path fill="#dae6f6" d="M30 570l172-52-236-172z"/><path fill="#d9f8ff" d="M506 278l392 24-356 88z"/><path fill="#183f7c" d="M898 610l-348 36 100 440z"/><path fill="#6995ba" d="M38 922l304 164-112-364z"/><path fill="#2a9ed0" d="M542 842l76-484-168 356z"/><path fill="#0037b8" d="M-62 298L78 402l104-136z"/><path fill="#85502c" d="M294 510l-164 76 96-164z"/><path fill="#10252d" d="M318 258l36 152 148-40z"/><path fill="#ea9d54" d="M278 1078l156-164 100 100z"/><path fill="#76c5f4" d="M402 566L182 282l116-44z"/><path fill="#7fd68a" d="M690 150L466-2l152 220z"/><path fill="#008c86" d="M514 282l24-172 112 156z"/><path fill="#735752" d="M850-42L654 262l156 32z"/><path fill="#fff" d="M594 838l-124-4 60 172z"/><path fill="#b8a7f9" d="M150 858L-62 982l152 104z"/><path fill="#4972d0" d="M198 574l-260 56 216 72z"/><path fill="#4ba7c7" d="M266 910L106 790l368-40z"/><path fill="#090300" d="M366 222l-96-92 116-80z"/><path fill="#005b6f" d="M294 466l92 296-232 8z"/><path fill="#ebecea" d="M898 378L578 518l200 112z"/><path fill="#93c8ed" d="M386 422l116 132 132-268z"/><path fill="#ba8951" d="M94 62L-46 6l148-32z"/><path fill="#f2eaf5" d="M430 866l-64 136-160-84z"/><path fill="#544a38" d="M414 562l-232 76 328 12z"/><path fill="#395fcd" d="M742 714L534 614l364-4z"/><path fill="#90673e" d="M494 190l-200-16 48 148z"/></g></svg>