<svg xmlns="http://www.w3.org/2000/svg" width="228" height="278" viewBox="0 0 836 1024"><path fill="#7e8284" d="M0 0h836v1024H0z"/><g fill-opacity=".502"><path fill="#fbffff" d="M422 634L82 1086-62 586z"/><path fill="#fff" d="M898 502L590 810l228 276z"/><path fill="#5e4c27" d="M2-62l-64 684L898 14z"/><path d="M738 1086l-324-52 228-164z"/><path fill="#182c40" d="M894 278L406 914 806-62z"/><path d="M358 982l-96-28 60-348z"/><path fill="#fffbfa" d="M822 1086L562 542l336 84z"/><path fill="#d6f0ff" d="M210 1086L-62 646l368-52z"/><path fill="#89bdf6" d="M190 146l20 376L370 98z"/><path fill="#603404" d="M490 618l256-12-112 332z"/><path fill="#feffff" d="M438 682V470l120-168z"/><path fill="#0b0000" d="M402 318l156-44-188 288z"/><path d="M418 866l-20-288 116 308z"/><path fill="#e5ffff" d="M306 450l84-204-40 424z"/><path fill="#f2ffff" d="M426 894l-72-272-24 284z"/><path fill="#255fff" d="M74 818L-62 714l464 16z"/><path fill="#fff" d="M538 526l144-172-84 8z"/><path fill="#deb673" d="M330 74l148 276 164-200z"/><path fill="#f0bb79" d="M390 966l360-332-192 340z"/><path fill="#2273ff" d="M258 938l-60 148-260-132z"/><path d="M266 486l124-244-120 64z"/><path fill="#2d2b29" d="M898-62L674-10 506 498z"/><path d="M566 522l56 236-92 32z"/><path fill="#f5e519" d="M62 214L-62 30l196 40z"/><path fill="#003b8d" d="M638 138l260 464-144 4z"/><path fill="#1a1f35" d="M78-62l76 232L478 46z"/><path fill="#fff" d="M898 498l-92 588-152-156z"/><path fill="#fcffff" d="M714 666l28-136-152 32z"/><path fill="#fff" d="M-62 814l272 148 88-168z"/><path fill="#03010e" d="M666 410L510 578l232-52z"/><path d="M346 1006l372 80-24-132z"/><path fill="#fff" d="M-62 614h368L126 762z"/><path fill="#e6ffff" d="M450 398l104-56-104 240z"/><path fill="#4a8ca1" d="M582 570l-456-92 264 220z"/><path fill="#000005" d="M482 330L350 534l80-8z"/><path fill="#cdddb9" d="M570 122l-44 120 144 120z"/><path fill="#363434" d="M-62 278l88 240L222 86z"/><path fill="#1f0600" d="M158 374l64 28L30 582z"/><path fill="#fcffff" d="M246 286l-40 216 64-4z"/><path d="M462 874l-96-212 100 44z"/></g></svg>