<svg xmlns="http://www.w3.org/2000/svg" width="228" height="278" viewBox="0 0 836 1024"><path fill="#7d6566" d="M0 0h836v1024H0z"/><g fill-opacity=".502"><path d="M-62 14l508 12L14 666z"/><path fill="#dee6ff" d="M202 1010l644 76 52-412z"/><path fill="#edb790" d="M886 482l-636 84L814-62z"/><path fill="#0b0a02" d="M266 550L130 966-34-62z"/><path fill="#000003" d="M70-34l504 284-636 88z"/><path fill="#f5a1bf" d="M438 714L146 350l212-104z"/><path fill="#e2ffff" d="M390 1086l-36-572 96 280z"/><path fill="#600012" d="M706 1086L566 894l24-380z"/><path fill="#930000" d="M458 982l84-160-108-308z"/><path fill="#d7d9ff" d="M566 834l-32-644-80 300z"/><path fill="#fffcff" d="M354 1022l-88-368-12 432z"/><path fill="#870000" d="M266 202l108 600-144-300z"/><path fill="#4c8fff" d="M634 782l264-132-264 436z"/><path fill="#fff" d="M898 974L734 798l-68 288z"/><path fill="#8fc1ff" d="M618 450l128 256-136-20z"/><path fill="#d60000" d="M310 646l-8 308 84-24z"/><path fill="#a5cbff" d="M678 498l-32-188 252 212z"/><path fill="#a19936" d="M814 438L402 22l496-80z"/><path fill="#e6ffff" d="M318 534l-8-240 88 76z"/><path fill="#17204d" d="M-62 854l316 24-12 208z"/><path fill="#551b10" d="M514 122L290 58l140 448z"/><path fill="#ddf3ff" d="M590 914l-76-216 20 388z"/><path fill="#e8001a" d="M614 262l-88 4 80 300z"/><path fill="#d4ba18" d="M94 850L-62 674l168-44z"/><path fill="#f7ffff" d="M626 1018l-356 24 120-124z"/><path d="M726 638l48-76-140-84z"/><path fill="#2a78ff" d="M770 450l128-80-44 424z"/><path fill="#9eb2c4" d="M178 354l-32 200h64z"/><path fill="#850000" d="M490 566l32 404-88-128z"/><path fill="#c00000" d="M642 918l-68-168 20 252z"/><path fill="#7cccff" d="M-62 974l148-24 24 136z"/><path fill="#000514" d="M402 26L-62 58l84 480z"/><path fill="#d5142b" d="M482 478l-92 16 8-208z"/><path fill="#d6e7ff" d="M602 386l-124 92-12-164z"/><path fill="#870000" d="M518 842l-36-308-76 40z"/><path fill="#2c000f" d="M630 458l32 92-4-184z"/><path fill="#cfe0ff" d="M458 1086l-80-180 52-252z"/><path fill="#d10000" d="M426 490l-92 24-40-28z"/><path fill="#b1dfff" d="M270 722l-20-192 40 80z"/><path fill="#8c0000" d="M558 582l44 100 4-252z"/></g></svg>