<svg xmlns="http://www.w3.org/2000/svg" width="228" height="278" viewBox="0 0 836 1024"><path fill="#524c59" d="M0 0h836v1024H0z"/><path fill="#fef6f7" fill-opacity=".757" d="M338.662 858.008L44.622 1086 220.3 317.501-62 741.731z"/><path fill="#e5b56e" fill-opacity=".71" d="M599.816 70.445l20.067 139.757L427.244 389.28 388.36 170.162z"/><path fill="#2e1b00" fill-opacity=".8" d="M-62 554.762l331.87-235.45L554.29 42.043 19.573-62z"/><path fill="#faf7fb" fill-opacity=".867" d="M207.796 364.266l-59.751 32.018-106.62 203.67L238.03 573.26z"/><path fill="#3f4b99" fill-opacity=".886" d="M206.155 759.033l94.375 126.166 498.715-440.154L267.866 324.16z"/><path fill="#f6e3d8" fill-opacity=".722" d="M751.096 516.112l-6.207 267.695-67.685-200.488 36.53-206.633z"/><path fill="#00092a" fill-opacity=".624" d="M412.48 698.95L898 888.508l-36.855 195.483-590.494-32.671z"/><path fill="#301f00" fill-opacity=".698" d="M836.446 611.048L874.84 25.276 596.607-6.987l45.8 304.736z"/><path fill="#f6f3f5" fill-opacity=".949" d="M92.491 840.62L-41.445 695.066l86.873-72.09 179.322 250.91z"/><path fill="#5560ab" fill-opacity=".98" d="M191.421 902.469l160.236 162.367L141.551 1086l14.466-202.412z"/><path fill="#262c35" fill-opacity=".757" d="M82.904 668.437l108.815-64.873L238.85 846.74l-71.27-60.489z"/><path fill="#0f100b" fill-opacity=".808" d="M2.344 657.479L137.08 399.258l11.34-358.014-188.787 48.02z"/><path fill="#ad8e76" fill-opacity=".992" d="M785.916 796.15l-103.784 22.927L704.732 607l68.488 85.256z"/><path fill="#302515" fill-opacity=".969" d="M702.024-3.223L898 213.157 817.046 986.29l-65.64-437.06z"/><path fill="#ffcd75" fill-opacity=".298" d="M521.838 106.97l-24.791 305.582-90.064-85.82L354.218 22.32z"/><path fill="#f5b468" fill-opacity=".525" d="M366.255 839.637l-76.846-13.852-121.202 36.105 68.44 92.264z"/><path fill="#532b09" fill-opacity=".831" d="M357.784 306.452l-163.41 74.889 93.52-430.553 128.949 295.508z"/><path fill="#ece8a6" fill-opacity=".494" d="M562.835 470.566l19.702 99.846 23.963 16.043 17.292-83.452z"/><path fill="#1c296e" fill-opacity=".545" d="M720.182 639.93L595.017 795.696 316.31 834.383l96.977-288.335z"/><path fill="#7e6230" fill-opacity=".741" d="M598.26 297.379L499.96-62l33.248 297.411L454.8 441.94z"/><path fill="#5667cc" fill-opacity=".573" d="M613.58 955.816l-96.323 19.94 76.245 33.067 68.325 44.341z"/><path fill="#0b0401" fill-opacity=".376" d="M360.562 1008.112l370.792-219.22-431.142 70.717-35.225 52.5z"/><path fill="#3f4ba9" fill-opacity=".933" d="M207.414 635.378l17.689 212.585 99.559-35.56 71.362-539.948z"/><path fill="#4c3c29" fill-opacity=".988" d="M615.338 204.152l.85-57.005L813.58 439.173 578.518 341.08z"/><path fill="#5d4c22" fill-opacity=".498" d="M483.282 157.75L832.337.596 22.74-62l676.83 243.664z"/><path fill="#fcd7a7" fill-opacity=".533" d="M450.9 349.985l-47.025-34.288.683-51.356 119.44-193.74z"/><path fill="#fff" fill-opacity=".451" d="M749.222 527.01L704.67 343.654l1.507 274.682 45.65 30.791z"/><path fill="#233190" fill-opacity=".486" d="M182.39 354.684l77.078 120.069 301.397-46.477-185.54-109.947z"/><path fill="#9b9baa" fill-opacity=".518" d="M71.777 676.797l132.65-168.895 3.986 76.326L71.945 716.045z"/><path fill="#23242a" fill-opacity=".714" d="M734.364 621.851l-57.198 59.262-89.073 238.964 57.051-273.04z"/><path fill="#fdfcff" fill-opacity=".612" d="M221.673 441.039l18.41 118.626-105.916-143.607 55.38-51.568z"/><path fill="#986e41" fill-opacity=".773" d="M258.913 896.622l36.334-38.01 73.503 48.05 26.748 17.062z"/><path fill="#000305" fill-opacity=".22" d="M94.346 722.785l62.676 67.416 91.955-222.428L131.13 616.93z"/><path fill="#fff9ff" fill-opacity=".416" d="M198.41 791.034L144.168 902.32 105.396 1086 76.963 855.327z"/><path fill="#2c2e26" fill-opacity=".769" d="M621.994 925.321l212.6 157.963 18.27-624.493-76.28 339.605z"/><path fill="#fffffd" fill-opacity=".576" d="M159.34 456.362L50.774 553.505-1.184 721.286l151.166-129.3z"/><path fill="#344290" fill-opacity=".722" d="M543.218 321.198L711.14 401.17 310.201 634.478l233.455-267.774z"/><path fill="#0a0402" fill-opacity=".404" d="M471.231 425.124l-59.03-50.13 151.544 35.456-30.873 32.247z"/><path fill="#ddb386" fill-opacity=".588" d="M583.881 307.79l30.21-103.294-71.226 1.611 43.486-82.899z"/><path fill="#9b8c7a" fill-opacity=".447" d="M775.178 807.73L635.606 681.891l40.643 133.16 31.624 12.447z"/><path fill="#e1d592" fill-opacity=".149" d="M452.855 632.655l283.054 45.722-351.637 7.352-75.458-10.088z"/><path fill="#331d02" fill-opacity=".565" d="M531.515 14.225l304.056 307.62L567.778 77.523 422.9 80.473z"/><path fill="#d49b51" fill-opacity=".404" d="M332.227 981.63l24.929-17.472-154.316-27.566 64.249 26.981z"/><path fill="#3f4ca3" fill-opacity=".976" d="M446.934 472.315l-25.557-136.722-45.224-45.107-60.426 236.646z"/><path fill="#324d5a" fill-opacity=".435" d="M-62 1086H57.834l25.121-120.999L-62 536.803z"/><path fill="#5a3309" fill-opacity=".569" d="M449.75 189.202L344.885 31.735 281.82 232.422 488.657 51.09z"/><path fill="#d0c0ba" fill-opacity=".792" d="M784.756 748.398l-63.625-171.527L769.74 751.92l.485 42.465z"/><path fill="#fed6ae" fill-opacity=".557" d="M276.083 817.697L254.52 963.042l-64.234-125.737 174.017 15.458z"/><path fill="#554530" fill-opacity=".867" d="M585.184 235.058l-89.338 16.246 252.018-1.169 6.463 205.439z"/><path fill="#000949" fill-opacity=".322" d="M542 1086l15.561-469.718L319.531 879.9l-7.736-30.616z"/><path fill="#fef4b0" fill-opacity=".176" d="M594.269 266.593l-124.391 127.01 107.73 23.805-20.127-92.678z"/><path fill="#fcd3a0" fill-opacity=".439" d="M619.63 148.957l-4.866-10.167-41.351-51.039-42.875 42.379z"/><path fill="#26282a" fill-opacity=".898" d="M609.58 752.176L717.16 1086l-74.123-405.722 74.766 10.686z"/><path fill="#3656fb" fill-opacity=".165" d="M584.496 634.468l-91.843-44.532 211.926-25.198-135.654 270.906z"/><path fill="#2c2305" fill-opacity=".329" d="M471.011 281.411l17.052 37.047 210.503 56.01L870.89 431.66z"/><path fill="#fec293" fill-opacity=".267" d="M506.677 286.775l-126.444-97.498 6.834-36.03 191.552 30.705z"/><path fill="#0b2086" fill-opacity=".384" d="M241.358 1086l-7.247-131.026 116.616 44.155 240.19 9.767z"/><path fill="#1e2137" fill-opacity=".976" d="M567.01 673.277l153.73 187.764-160.344-166.483 10.67-43.28z"/><path fill="#2e2212" fill-opacity=".863" d="M754.656 663.286L738.59 74.44l70.867-6.362 31.103 780.445z"/><path fill="#fcf5ff" fill-opacity=".467" d="M56.774 1035.962l144.643-213.797-149.75-142.329L160.849 1086z"/><path fill="#2d3996" fill-opacity=".647" d="M399.449 302.388l-43.45 24.738-111.22 200.295-44.158-157.94z"/><path fill="#b79763" fill-opacity=".694" d="M582.013 143.5L487.55 82.547l-17.717 79.088 57.72-27.293z"/><path fill="#faf5ff" fill-opacity=".486" d="M731.128 428.026l-25.82-2.19-15.593 104.229 56.689 102.82z"/><path fill="#878992" fill-opacity=".424" d="M58.563 1086l46.906-223.605 5.124-20.251-39.532-12.47z"/><path fill="#a7aab7" fill-opacity=".475" d="M715.557 528.484L676.94 576.81l-35.88 64.142 66.937-11.319z"/><path fill="#262d64" d="M570.446 878.979l47.736-15.162 19.111 158.942 41.104 52.872z"/><path fill="#343b2e" fill-opacity=".427" d="M-12.132-25.988L362.528-62l91.807 110.47L-13.16 74.7z"/><path fill="#3c1a00" fill-opacity=".314" d="M125.384 25.807l-43.817 431.04L427.36 168.9l-28.397 80.807z"/><path fill="#040504" fill-opacity=".337" d="M651.534 744.177L426.587 929.706 265.8 845.857l303.21 48.6z"/><path fill="#a38040" fill-opacity=".455" d="M667.901-62L412.438 22.868l176.62 1.18L543.59 5.51z"/><path fill="#e5c292" fill-opacity=".498" d="M583.768 310.702l-31.207-6.86 31.75-41.449 30.509-71.409z"/><path fill="#4f5db4" fill-opacity=".502" d="M511.14 701.9l-18.532-7.115 109.428 105.869-1.612-24.777z"/><path fill="#706061" fill-opacity=".988" d="M644.79 698.054l9.64 34.664 106.308 4.486-193.64-55.402z"/><path fill="#f2f8ce" fill-opacity=".169" d="M612.398 478.302l-27.095 2.43-49.2 49.528 118.026 32.958z"/><path fill="#fefafe" fill-opacity=".455" d="M238.066 551.918l-21.634 43.139-95.2-163.172 77.368-67.981z"/><path fill="#7c90fe" fill-opacity=".224" d="M535.977 983.723L426.14 922.14l22.883 2.635 292.816 148.34z"/><path fill="#121617" fill-opacity=".616" d="M95.559 504.35l27.736-84.984L-62 42.817v658.58z"/><path fill="#9a9ab6" fill-opacity=".506" d="M166.914 872.563l-26.15 2.856-5.723 51.512L146.425 1086z"/><path fill="#523100" fill-opacity=".522" d="M269.479 966.55l-9.07-57.44 134.74 2.383-144.284 57.096z"/><path fill="#687ce6" fill-opacity=".627" d="M196.164 951.43l23.796-17.581 23.474 140.448-53.619-53.5z"/><path fill="#ffdbb4" fill-opacity=".369" d="M753.879 827.355l32.935-70.372-83.868-51.584 68.693 10.82z"/><path fill="#fff" fill-opacity=".824" d="M1.333 743.292l-20.706-103.306 209.975 200.496-6.048 48.06z"/><path fill="#191d29" fill-opacity=".624" d="M120.439 715.802l-7.84-26.797 138.98-136.151-44.851 84.781z"/><path fill="#5969ed" fill-opacity=".302" d="M273.998 628.198l-4.301 212.49-46.944-66.622 7.592-172.411z"/><path fill="#ffd8b6" fill-opacity=".478" d="M773.968 776.496l7.873-12.045-44.437-17.992-53.104-.053z"/><path fill="#483700" fill-opacity=".376" d="M494.323 328.281l9.296 64.822-90.906 4.374 179.658-99.701z"/><path fill="#2f1804" fill-opacity=".424" d="M610.892 232.968l208.164-10.574L839.215 83.43 629.61 64.97z"/><path fill="#232442" fill-opacity=".486" d="M501.398 430.155l69.13-116.09-95.693 123.621-59.08-108.65z"/><path fill="#7c450e" fill-opacity=".451" d="M686.2 759.134l37.842 2.78 35.371 17.304L747 788.373z"/><path fill="#ffe1b1" fill-opacity=".427" d="M483.116 99.38l20.938 86.26-48.772 59.241 8.407-90.32z"/><path fill="#6e8dfd" fill-opacity=".216" d="M597.14 426.362l-22.857-90.954-22.106 3.92-4.115 138.83z"/><path fill="#ffe1b4" fill-opacity=".537" d="M402.603 293.79l17.194-92.884 20.936 94.225-1.385 48.504z"/><path fill="#a6a2aa" fill-opacity=".353" d="M362.65 683.604l-5.342-64.179 41.125 73.782 4.535-70.677z"/><path fill="#323991" fill-opacity=".486" d="M473.097 684.423L228.43 840.544l-74.04-58.416 163.012 52.179z"/><path fill="#552901" fill-opacity=".392" d="M443.496 212.407l-111.434 8.989L218.987 38.078l33.36 317.677z"/><path fill="#fee7d4" fill-opacity=".408" d="M577.344 153.948l26.849 25.596 10.757 15.55-9.045 27.47z"/><path fill="#8d99fe" fill-opacity=".247" d="M605.106 955.714l-54.973-11.35 89.596 68.185-7.718 69.746z"/><path fill="#ffcaab" fill-opacity=".431" d="M769.16 802.078l-29.118-20.228-43.97-5.557-6.603 15.572z"/><path fill="#938440" fill-opacity=".318" d="M282.621 514.792l117.44 17.514-.027 2.79 5.481-32.906z"/><path fill="#263479" fill-opacity=".686" d="M302.107 637.376l31.044 35.099 163.8-155.39 29.51 127.455z"/><path fill="#0a0d56" fill-opacity=".365" d="M605.637 344.905l22.114 54.39-70.82 87.609 114.86-87.127z"/><path fill="#0b0b0d" fill-opacity=".537" d="M649.316 645.503l37.967 1.37-55.913 88.543 9.96-55.966z"/><path fill="#3f4b56" fill-opacity=".486" d="M17.038 774.372l-39.75-98.227L-8.454 1086l105.36-250.617z"/><path fill="#e7b081" fill-opacity=".486" d="M332.253 890.75l-68.514-51.557 4.098 12.411 49.147 56.388z"/><path fill="#8a4c07" fill-opacity=".494" d="M781.196 746.007l-18.329 11.658-57.064-31.583 8.217.291z"/><path fill="#fdf1cc" fill-opacity=".271" d="M470.012 668.829l-2.875-11.15 43.633 28.355-42.866-43.734z"/><path fill="#97733c" fill-opacity=".471" d="M494.58 168.047l34.06-134.946-2.394 225.444 82.016-46.546z"/><path fill="#ad9145" fill-opacity=".337" d="M519.621 409.1l15.215-4.818-92.96-118.446 7.89 94.161z"/><path fill="#272d6a" fill-opacity=".259" d="M147.053 875.033l54.65 31.691-7.6 10.918-7.7 150.158z"/><path fill="#28327f" fill-opacity=".792" d="M568.08 672.92l3.893-37.73 70.277 16.403 46.883-121.505z"/><path fill="#131c5c" fill-opacity=".671" d="M409.02 906.531l233.88 46.6-96.832-13.342 88.467 73.764z"/><path fill="#302105" fill-opacity=".647" d="M594.307 53.598l-46.133-24.413-53.512-10.79-51.07 68.56z"/><path fill="#95784e" fill-opacity=".639" d="M597.02 55.154L434.232-62 614.925 53.9l-22.17 71.483z"/><path fill="#000012" fill-opacity=".396" d="M569.097 416.63l-3.456 15.862-63.814-14.611 45.536-19.136z"/><path fill="#332c1f" fill-opacity=".584" d="M861.304 534.645L730.538 667.952l134.217 6.62-148.78 294.357z"/><path fill="#fee3c3" fill-opacity=".596" d="M767.536 701.888l-50.85-16.802 27.897-9.69 12.484 6.292z"/><path fill="#484434" fill-opacity=".604" d="M527.646-22.605l55.32 50.932 285.344 37.41L898 4.767z"/><path fill="#e6c283" fill-opacity=".498" d="M546.89 343.169L528.913 330.8l-5.28 13.859-19.803 37.149z"/><path fill="#6275d0" fill-opacity=".537" d="M218.033 574.077l19.948-15.346 16.374-41.825 75.675-11.632z"/><path fill="#2e3325" fill-opacity=".329" d="M745.311 797.797l-58.777 261.898-44.626-49.138-36.173-205.26z"/></svg>