<svg xmlns="http://www.w3.org/2000/svg" width="228" height="278" viewBox="0 0 836 1024"><path fill="#65777d" d="M0 0h836v1024H0z"/><path fill="#4b88f8" fill-opacity=".741" d="M6.73 656.26l880.536 7.823L714.178 1086-62 992.844z"/><path fill="#201208" fill-opacity=".824" d="M423.728-62l182.85 162.281 4.72 146.202L218.635 134.63z"/><path fill="#a37821" fill-opacity=".502" d="M898 235.605L-62 114.03v281.02l491.228 408.511z"/><path fill="#ffb09d" fill-opacity=".663" d="M542.015 180.793l-255.56 221.57 253.463.978-242.709-184.552z"/><path fill="#f73752" fill-opacity=".584" d="M656.201 882.078l40.21 85.165L569.225 1086 557.58 884.097z"/><path fill="#0e001a" fill-opacity=".431" d="M248.191 546.53l347.273 113.559-4.844-646.63-96.929 521.595z"/><path fill="#889753" fill-opacity=".961" d="M-62 726.572L-31.871-62h310.33l-80.262 593.08z"/><path fill="#dba99b" fill-opacity=".996" d="M544.102 706.131l-150.9 106.885-145.37-212.875 169.943 125.688z"/><path fill="#4592f5" fill-opacity=".867" d="M262.202 561.434l-56.54 33.76L-62 688.456 301.618 1086z"/><path fill="#3284f6" fill-opacity=".725" d="M879.8 683.148L590.47 569.41l-67.473 176.74 319.7 204.768z"/><path fill="#1b120e" fill-opacity=".792" d="M256.07 69.676l370.447 206.747L494.43 4.387 248.657 307.484z"/><path fill="#707f40" fill-opacity=".98" d="M575.7 556.17L898 688.48 871.652-51.533 631.166-44.58z"/><path fill="#00125f" fill-opacity=".824" d="M898 1028.294l-19.139-172.59-96.978 72.281L654.795 1086z"/><path fill="#001d6a" fill-opacity=".702" d="M572.497 770.92l-334.875 65.655 86.827-51.752 153.178 68.58z"/><path fill="#002782" fill-opacity=".824" d="M-62 1086l184.271-42.16-176.107-300.288L-25.464 1086z"/><path fill="#1b000a" fill-opacity=".51" d="M239.51 289.02l123.76 43.012 174.786-9.703-13.733-39.802z"/><path fill="#ffbda2" fill-opacity=".608" d="M295.12 260.265l100.703-94.632 108.932 91.277-84.444 43.984z"/><path fill="#4a0008" fill-opacity=".314" d="M562.037 711.618l52.389-72.292-207.603 80.531-143.568-308.17z"/><path fill="#4a99fb" fill-opacity=".722" d="M466.446 1086l108.346-186.043L898 682.006 126.03 969.108z"/><path fill="#eda58d" fill-opacity=".549" d="M210.49 316.624l137.8 109.437 213.301-74.674-553.628-53.36z"/><path fill="#849251" fill-opacity=".976" d="M784.966-10.888l-119.23 186.555-144.7-162.894L359.579-1.36z"/><path fill="#ef875b" fill-opacity=".396" d="M538.45 721.364l27.063-107.39-253.98 116.56-68.98-170.656z"/><path fill="#012c9b" fill-opacity=".565" d="M204.147 629.903l131.742 206.951-94.928-206.883 93.506-184.993z"/><path fill="#3e6ecd" d="M533.664 1018.513l74.057-57.623L544.987 1086l187.804-73.898z"/><path fill="#c5cfe0" fill-opacity=".58" d="M316.777 1019.037l-70.168-25.414-28.962-78.789-32.456 100.546z"/><path fill="#110f0b" fill-opacity=".961" d="M585.484 73.982l23.62 172.58-28.851 71.282-88.085-298.179z"/><path fill="#060049" fill-opacity=".325" d="M361.598 421.095L602.55 538.8l9.323 129.649-166.94-273.305z"/><path fill="#ffe7cd" fill-opacity=".365" d="M264.605 692.873l170.706 88.665 158.954-220.464L518.9 743.038z"/><path fill="#0b050d" fill-opacity=".365" d="M294.157 547.785l55.57-12.729-88.312-197.13 9.623-276.963z"/><path fill="#d27262" fill-opacity=".345" d="M555.22 196.203L438.35 568.991 562.444 321.75 390.893 156.59z"/><path fill="#889753" fill-opacity=".733" d="M-27.979 663.255l270.482-464.8 52.684 289.127-61.69 99.35z"/><path fill="#4e2d23" fill-opacity=".561" d="M571.013 372.092l-55.84 302.513-189.885-125.12 45.84 104.463z"/><path fill="#215dbb" fill-opacity=".855" d="M813.546 942.751l35.036-93.378-181.352 228.255 91.225-205.745z"/><path fill="#2055be" fill-opacity=".859" d="M647.504 602.147l-94.155-67.564 27.237 25.503L537.55 784.25z"/><path fill="#e19f83" fill-opacity=".565" d="M568.647 321.349l-110.726 27.105-132.092-154.44L485.53 446.039z"/><path fill="#021f6b" fill-opacity=".655" d="M518.567 796.38l-173.45 13.963 4.478 17.22 163.136 11.757z"/><path fill="#a19058" fill-opacity=".561" d="M645.475 245.714l-71.713 278.154-15.543-20.411 4.739-111.566z"/><path fill="#1879f1" fill-opacity=".408" d="M-44.228 775.49l158.368 260.17 90.015-33.817L-62 630.42z"/><path fill="#ff4957" fill-opacity=".557" d="M681.223 993.142l-72.028-117.307-8.954 145.304 92.226-124.33z"/><path fill="#d16870" fill-opacity=".369" d="M299.633 383.415l196.634 104.112-40.614 62.261-87.066-.709z"/><path fill="#4491f6" fill-opacity=".761" d="M838.341 661.47l-206.508-65.703-51.59 139.968L723.458 977.81z"/><path fill="#8b9756" fill-opacity=".89" d="M-62 20.252l507.536-33.225-131.227 38.576-65.551 83.28z"/><path fill="#e9031c" fill-opacity=".463" d="M415.73 788.179l-21.798 24.47-22.561-43.726-8.701-24.135z"/><path fill="#4795f8" fill-opacity=".722" d="M629.14 942.827l-72.158-35.684L-62 825.933l579.97 13.921z"/><path fill="#7d4937" fill-opacity=".565" d="M428.665 734.058l-83.983-110.675 190.393-35.178-29.74 116.083z"/><path fill="#080906" fill-opacity=".604" d="M244.057 189.286l27.34 136.404 43.017-272.228-45.056 23.143z"/><path fill="#f82138" fill-opacity=".486" d="M679.741 1012.779l-57.823 2.76-64.694-117.167 4.838 60.683z"/><path fill="#fd9d9a" fill-opacity=".58" d="M233.888 303.412l14.697-4.766 27.33 73.257-22.505 9.133z"/><path fill="#c8815d" fill-opacity=".624" d="M318.456 535.84l-64.118 54.51 59.4 91.158 73.738 24.636z"/><path fill="#3975da" fill-opacity=".843" d="M630.504 936.829L868.53 803.88l-55.37 88.8-159.715 7.003z"/><path fill="#040001" fill-opacity=".384" d="M593.683 284.913l-186.72 9.353 125.087 30.376 85.57-148.812z"/><path fill="#001b66" fill-opacity=".58" d="M556.69 783.28l-27.451-22.96-13.693 32.377L617.81 808.55z"/><path fill="#4e6cc6" fill-opacity=".98" d="M678.486 827.13l27.922 242.14L636.6 962.15l54.242 26.766z"/><path fill="#2871e6" fill-opacity=".549" d="M364.626 730.007l-56.74 68.194-45.384-138.286 112.836 139.347z"/><path fill="#000f47" fill-opacity=".839" d="M776.255 1086h-46.794l53.661-174.175 42.442 52.343z"/><path fill="#fac6aa" fill-opacity=".447" d="M434.101 270.436l-132.294 8.052 79.885-92.244L476 184.527z"/><path fill="#060000" fill-opacity=".263" d="M224.953 159.122l262.365 24.241 1.195 98.341L590.264 84.23z"/><path fill="#0d0008" fill-opacity=".314" d="M332.063 338.772l69.582-2.559-16.563-60.516-85.292 11.67z"/><path fill="#3e85ed" fill-opacity=".722" d="M575.837 649.658l-24.825 71.995-55.804 74.76-29.207-2.504z"/><path fill="#e95973" fill-opacity=".98" d="M657.564 887.403l-64.953-2.232 73.758 71.936-112.398 15.337z"/><path fill="#501c25" fill-opacity=".29" d="M524.053 457.15L388.39 395.556 227.466 619.298 353.616 475z"/><path fill="#00319e" fill-opacity=".361" d="M273.555 516.316l-61 93.786-79.203 10.487 189.114-70.257z"/><path fill="#c46742" fill-opacity=".404" d="M360.97 229.717l-87.225 87.852 26.742-99.431 49.213-46.416z"/><path fill="#fbf7f9" fill-opacity=".498" d="M662.33 948.985l-59.143 5-48.675-7.131 117.318-.719z"/><path fill="#4390f4" fill-opacity=".714" d="M566.138 1002.586l-18.23-88.376-377.424 78.29 474.13 53.426z"/><path fill="#feb89a" fill-opacity=".447" d="M362.383 429.816l59.525-172.453 10.704 110.455-148.482-40.589z"/><path fill="#889654" fill-opacity=".706" d="M727.13-62H529.257l99.91 265.605 14.315 12.09z"/><path fill="#ffe3c5" fill-opacity=".325" d="M507.443 734.752l-73.03 47.723L296.409 713.8l-8.366-27.526z"/><path fill="#f67a7b" fill-opacity=".404" d="M447.78 492.557l-116.25-7.697 135.386-33.498-72.75-15.59z"/><path fill="#3e3735" fill-opacity=".498" d="M305.802 35.768l-7.465 167.118L414.04-29.16 546.429 82.347z"/><path fill="#ff8790" fill-opacity=".498" d="M593.813 327.456l-1.975 69.108 32.807-69.075-.647-10.548z"/><path fill="#362822" fill-opacity=".604" d="M480.666 534.323l-138.964 46.16 167.777-5.07 109.833-347.347z"/><path fill="#4492f5" fill-opacity=".753" d="M334.556 805.353L46.258 936.493l38.285-92.207 491.222 228.505z"/><path fill="#00083d" fill-opacity=".506" d="M18.359 903.184l11.865 57.97 58.057 33.824L61.789 1086z"/><path fill="#385b15" fill-opacity=".122" d="M884.638 183.26l-17.23 483.247-192.369-47.252-44.84-421.104z"/><path fill="#4999fd" fill-opacity=".557" d="M180.415 1086l41.72-479.185-106.021 22.096-80.707 53.139z"/><path fill="#ea162f" fill-opacity=".549" d="M656.42 960.42l30.663 34.184-7.564-96.163-2.034 10.555z"/><path fill="#2c2a26" fill-opacity=".42" d="M380.989 495.765l108.356 64.62-88.823 36.18 50.336-97.878z"/><path fill="#fff0e2" fill-opacity=".416" d="M236.919 969.943l-13.022-43.726-30.776 81.732-43.13 21.394z"/><path fill="#ec1230" fill-opacity=".498" d="M659.226 889.89l-11.853 20.802-60.743-8.057 19.466-18.131z"/><path fill="#0039cd" fill-opacity=".267" d="M256.167 601.976l-45.037-22.87 32.74 153.056 75.934 48.349z"/><path fill="#80503b" fill-opacity=".725" d="M561.53 288.556l-15.455 106.597-20.926-132.014-3.024-95.463z"/><path fill="#1f5dbf" fill-opacity=".537" d="M131.302 1086h147.42l-151.686-88.113-164.822-236.558z"/><path fill="#ffbfa9" fill-opacity=".51" d="M486.076 342.072l37.128 11.924-43.453 74.805-16.404-71.768z"/><path fill="#000012" fill-opacity=".514" d="M563.423 613.613l-14.083-81.05 28.386-1.597-5.032 70.474z"/><path fill="#86954f" fill-opacity=".667" d="M-62 694.234l88.61-31.518 280.538-161.654-140.44-339.953z"/><path fill="#03206f" fill-opacity=".745" d="M828.09 877.943L806.986 1086 898 995.337l-58.71-174.742z"/><path fill="#ba9e84" fill-opacity=".502" d="M361.458 507.891l15.84 30.182 31.74 10.046 45.189-27.513z"/><path fill="#1e000a" fill-opacity=".322" d="M394.255 318.57l141.605-26.16-80.633 50.54-42.267-42.874z"/><path fill="#0e3180" fill-opacity=".973" d="M749.009 888.091l-5.91.294L898 1022.586 776.262 900.872z"/><path fill="#6c7e3e" fill-opacity=".796" d="M892.947 273.493l-265.986 301.21-74.25-67.2 10.034-111.651z"/><path fill="#febc98" fill-opacity=".463" d="M429.19 764.976L535.872 664.02l33.744-30.235-25.783 53.103z"/><path fill="#5d4438" fill-opacity=".624" d="M252.673 255.916l119.64 371.267-66.174-91.74-40.1-203.412z"/><path fill="#00001f" fill-opacity=".255" d="M379.435 828.024l-47.656-42.55-100.712 64.038 93.769-37.444z"/><path fill="#ffc7b9" fill-opacity=".286" d="M361.043 267.278l189.235 21.071-207.803-97.068 87.04-9.197z"/><path fill="#d6e5ff" fill-opacity=".325" d="M615.7 832.223L630.146 941.1l-.861 65.003-6.922-30z"/><path fill="#0c0806" fill-opacity=".784" d="M311.695 96.422L347.018 62.9l20.05 82.315 185.193 4.64z"/><path fill="#ffd7c1" fill-opacity=".408" d="M431.118 791.45l-57.75-39.37-13.846-80.81 100.189 98.14z"/><path fill="#4895f9" fill-opacity=".753" d="M681.947 881.584l174.206-212.418-128.436-33.088L560.58 886.891z"/><path fill="#ff0817" fill-opacity=".337" d="M635.592 953.685l34.868 86.078-19.343-36.887-24.726 7.605z"/><path fill="#844f3d" fill-opacity=".337" d="M359.969 639.137l214.716-36.595-128.971 131.33-36.76-.78z"/><path fill="#3880d7" fill-opacity=".533" d="M246.287 552.036l-5.792 14.024 6.744 35.692 20.683-79.045z"/><path fill="#4287e9" fill-opacity=".906" d="M294.63 717.598l75.666 31.831-262.86 166.724 222.989-134.318z"/><path fill="#f5b698" fill-opacity=".369" d="M414.334 304.416l-84.66 159.837-22.64-144.606 107.981 92.29z"/><path fill="#0025a0" fill-opacity=".298" d="M734.693 632.284l-97.572-52.351-92.205 194.502 41.422-175.286z"/><path fill="#468ff2" fill-opacity=".506" d="M599.473 1001.29l12.678-36.235-342.665 91.947 125.381-242.18z"/><path fill="#993e44" fill-opacity=".553" d="M602.141 272.04l-36.553 128.35 26.968-53.485 34.022-50.99z"/><path fill="#603a29" fill-opacity=".635" d="M529.016 508.423l35.616 70.853-39.504 71.574-108.745-15.889z"/><path fill="#ff2032" fill-opacity=".384" d="M572.397 1001.767l-9.866-2.103 1.604-96.137 27.744 32.625z"/><path fill="#251202" fill-opacity=".322" d="M376.87 402.863l69.9 11.93-26.493 35.21-42.77-27.343z"/><path fill="#090300" fill-opacity=".404" d="M564.64 270.061l3.667 108.602 41.802-196.871-72.178 66.263z"/><path fill="#a46647" fill-opacity=".584" d="M336.614 680.792l-48.529-58.496 12.944-100.861-3.418-28.838z"/><path fill="#488ef3" fill-opacity=".722" d="M545.313 713.35l-20.595 63.31-93.189 18.878-12.745-2.828z"/><path fill="#0a1132" fill-opacity=".525" d="M257.923 585.194l7.254-46.776 38.386-17.34 2.657 15.792z"/><path fill="#e0a685" fill-opacity=".439" d="M259.844 589.271l15.345-24.601L321.7 729.223l-50.525-76.254z"/><path fill="#00185d" fill-opacity=".459" d="M568.076 792.667l-208.238 19.41 13.366 21.11 75.964-41.717z"/><path fill="#0b0603" fill-opacity=".471" d="M524.842 20.896l63.274 100.555-319.624 68.396 303.887-126.48z"/><path fill="#4e403f" fill-opacity=".357" d="M311.366 41.317L552.425 74.27 343.529-25.558l141.486 130.094z"/><path fill="#70322e" fill-opacity=".718" d="M346.566 444.323l69.09 26.189 68.42-16.04-132.572 15.571z"/><path fill="#2f78e1" fill-opacity=".639" d="M758.601 852.567l54.972-129.727 20.032 147.94-30.82 69.621z"/></svg>