<svg xmlns="http://www.w3.org/2000/svg" width="228" height="278" viewBox="0 0 836 1024"><path fill="#87795e" d="M0 0h836v1024H0z"/><path fill="#e0efde" fill-opacity=".714" d="M232.65 1086l-3.158-745.876 434.584-9.308-110.656 704.73z"/><path fill="#201700" fill-opacity=".808" d="M853.285-61.005L398.445-62l100.8 336.908L898 512.928z"/><path fill="#563b11" fill-opacity=".933" d="M27.505 1086L-62 9.63 443.86-62 146.44 414.567z"/><path fill="#7a5b2f" fill-opacity=".647" d="M854.057 789.582l-328.283 71.44-54.877-230.969L898 429.221z"/><path fill="#ebf9ee" fill-opacity=".627" d="M93.064 661.244l296.223-247.167-96.916-99.152-129.837 84.397z"/><path fill="#391811" fill-opacity=".729" d="M-62 1039.677L67.516 693.17l126.839 88.778 137.12-6.914z"/><path fill="#d0dacc" fill-opacity=".878" d="M730.372 500.43l-100.21 69.03-140.234-289.686 176.498 88.278z"/><path fill="#12100c" fill-opacity=".918" d="M101.702-44.405l467.536 94.43-228.013 9.943-158.586 219.227z"/><path fill="#ecfce7" fill-opacity=".561" d="M215.182 881.71L600.532 1086l16.907-214.97-421.919 179.345z"/><path fill="#000810" fill-opacity=".49" d="M722.734 500.591L604.27 630.156 898 459.897 766.04-62z"/><path fill="#f3ac7f" fill-opacity=".42" d="M287.327 202.633l246.555 12.538L446.337 67.01l-119.36 2.494z"/><path fill="#0d0d00" fill-opacity=".439" d="M173.36 646.548l134.506 166.735-41.662 55.18-54.657-370.55z"/><path fill="#e0e8e1" fill-opacity=".839" d="M355.192 788.074L158.232 402.19l146.392-81.842L543.87 518.664z"/><path fill="#ffc74a" fill-opacity=".204" d="M-62-52.495l172.932 248.207 112.026 556.849L-62 730.377z"/><path fill="#ffbd8a" fill-opacity=".51" d="M795.776 668.929l-45.108-130.221-72.29 59.404-48.603 116.472z"/><path fill="#ca222d" fill-opacity=".498" d="M28.032 1071.281L69.424 906.82l183.319-72.377-104 248.785z"/><path fill="#1120ff" fill-opacity=".659" d="M366.918 641.735l1.079-68.64 34.916 4.756 1.697 48.365z"/><path fill="#9d9ef2" fill-opacity=".369" d="M718.264 1086l-51.13-95.374 141.31-203.457L898 989.136z"/><path fill="#a6967d" d="M611.07 503.862l15.097-27.366-3.802 211.271-154.71-18.478z"/><path fill="#765215" fill-opacity=".784" d="M343.84 293.773l-47.552-112.686L99.662 267.25 54.21 441.088z"/><path fill="#0c2e04" fill-opacity=".333" d="M405.212 746.3l158.562 97.671 309.263-160.97-467.455 112.598z"/><path fill="#d1a57b" fill-opacity=".988" d="M101.08 628.24l38.218 97.632 93.076 52.29 106.458 6.77z"/><path fill="#624211" fill-opacity=".388" d="M402.261 375.489l-83.696-40.964L672.076-62l89.616 194.56z"/><path fill="#282d23" fill-opacity=".714" d="M214.505 519.07l-14.408 166.831 22.186 39.568 19.843-100.455z"/><path fill="#f6fff2" fill-opacity=".412" d="M382.01 771.567L296.675 447.54l29.2 638.459L489.41 896.931z"/><path fill="#e7f0e5" fill-opacity=".722" d="M499.543 305.73l48.023-.138L629.76 435.37l-225.097-40.035z"/><path fill="#300800" fill-opacity=".263" d="M675.338 946.422L542.3 740.797l276.442 3.96-392.482-88.539z"/><path fill="#a7b5a2" fill-opacity=".757" d="M540.393 958.546l-90.327-102.174 12.22-177.4 99.522 168.625z"/><path fill="#372a10" fill-opacity=".675" d="M525.83 166.818l-142.7-37.08 212.518-75.58 171.755 466.09z"/><path fill="#fecea4" fill-opacity=".675" d="M320.743 114.093l124.143-2.016-44.715-49.241-84.578 19.073z"/><path fill="#39a711" fill-opacity=".416" d="M393.09 622.265l36.481-18.887L374.2 496.402l64.382 23.005z"/><path fill="#9fd25b" fill-opacity=".663" d="M506.237 502.232l53.44-35.312-3.223-86.683-87.414 58.515z"/><path fill="#311e13" fill-opacity=".529" d="M124.161 672.283L67.506 1086H-19.92l15.722-266.045z"/><path fill="#799476" fill-opacity=".569" d="M278.843 790.626l118.288 39.01-79.845 37.178-95.19-17.43z"/><path fill="#080b0b" fill-opacity=".439" d="M25.37 188.375l290.693 38.642-37.537-117.65 99.565 17.15z"/><path fill="#9d6c26" fill-opacity=".612" d="M620.4 975.293l100.228-81.47 18.106-142.342-125.858 15.782z"/><path fill="#000914" fill-opacity=".608" d="M607.626 597.005l148.13-46.957-10.09-51.954-85.556 48.932z"/><path fill="#117f01" fill-opacity=".455" d="M436.618 1086H600.28l-204.068-71.658 57.713-22.707z"/><path fill="#494738" fill-opacity=".812" d="M640.987 665.604l60.009-18.922-13.165-3.473-79.805-96.053z"/><path fill="#e9a277" fill-opacity=".529" d="M522.823 601.96l-123.722 68.025 348.362-9.686-152.945 65.944z"/><path fill="#2e7f55" fill-opacity=".537" d="M264.178 423.929l-7.27 53.67 44.644-42.627-38-4.345z"/><path fill="#61785d" fill-opacity=".651" d="M151.208 613.163l10.588-53.876L269.15 617.89l-45.831-60.474z"/><path fill="#dfe6d9" fill-opacity=".945" d="M240.02 819.47l37.823 128.02 11.662 52.91-84.157-16.869z"/><path fill="#c28d6d" fill-opacity=".678" d="M471.696 278.498l-125.295 65.6 42.005 66.47 81.844-86.46z"/><path fill="#7e5f1f" fill-opacity=".384" d="M836.215 398.213l32.059 343.24-99.427 52.268-18.23-367.967z"/><path fill="#322a1b" fill-opacity=".773" d="M601.729 276.276l-138.641 28.357 117.455-261.35-227.23-101.661z"/><path fill="#c89782" fill-opacity=".612" d="M429.147 450.597l45.63-208.632 49.746-66.052-22.29-42.976z"/><path fill="#0f150c" fill-opacity=".455" d="M168.73 802.692l-6.278-22.436L85.9 674.83 35.1 914.616z"/><path fill="#e8eeef" fill-opacity=".647" d="M657.15 370.093L428.7 658.548l40.292 108.474-183.353-28.686z"/><path fill="#fbecdc" fill-opacity=".322" d="M117.552 579.036l91.989 48.112-81.494 20.15 119.557 108.599z"/><path fill="#231f00" fill-opacity=".6" d="M796.425 737.09L677.45 758.632l-93.097-23.228 208.114-24.299z"/><path fill="#09480b" fill-opacity=".357" d="M527.413 839.98l-72.322 31.476-2.383-12.96 13.298-21.796z"/><path fill="#e4f1f9" fill-opacity=".51" d="M763.132 549.16l-87.422 65.953-9.122-25.314 58.752-22.554z"/><path fill="#58a63b" fill-opacity=".58" d="M325.533 513.062l-27.263 29.42-15.51-9.415 1.732-9.117z"/><path fill="#83570e" fill-opacity=".541" d="M174.77 58.156L15.348 37.863l161.514 391.209L-62 253.43z"/><path fill="#2d8209" fill-opacity=".349" d="M393.034 740.755l66.28 72.104-79.84-34.151 5.074-33.573z"/><path fill="#625111" fill-opacity=".51" d="M739.873-61.658L588.293-62l75.33 236.751-3.864 268.148z"/><path fill="#055820" fill-opacity=".235" d="M560.627 517.634l-72.214 27.275 154.221-18.875-95.873 105.324z"/><path fill="#eff2e8" fill-opacity=".953" d="M301.899 335.862l204.644 249.954L258.81 339.382l67.225-37.853z"/><path fill="#0f0c06" fill-opacity=".659" d="M358.22-1.622L-62-18.16l51.109 88.49 34.755-42.37z"/><path fill="#f4fdff" fill-opacity=".318" d="M682.017 491.901l79.84-.26-81.26 39.362-121.647 96.614z"/><path fill="#27170e" fill-opacity=".537" d="M228.028 680.052l6.061-35.135-144.475-16.502 29.42 5.144z"/><path fill="#2e2316" fill-opacity=".361" d="M434.064 315.512l-118.99-7.639 110.492-46.567L572.697-62z"/><path fill="#fdc593" fill-opacity=".408" d="M359.752 285.436l88.425-125.514-52.559-25.241 22.046 128.023z"/><path fill="#c54643" fill-opacity=".478" d="M183.044 1086l41.45-208.304-86.283-18.803-82.566 79.748z"/><path fill="#f6f7f0" fill-opacity=".71" d="M624.263 381.982l-210.788 7.71-170.679 356.396L432.45 423.249z"/><path fill="#a2b6a6" fill-opacity=".678" d="M386.288 741.261L624.212 762.6l-11.942-23.318 2.301-.977z"/><path fill="#f2f4ec" fill-opacity=".804" d="M245.083 578.13l-31.277-216.95-39.73 24.389 213.517 273.767z"/><path fill="#42980b" fill-opacity=".369" d="M308.205 673.595l-48.01-12.43 17.822-22.895 20.997 85.007z"/><path fill="#12110a" fill-opacity=".675" d="M752.752-62L898 11.087l-21.048 366.36L715.3 381.36z"/><path fill="#f1f3e7" fill-opacity=".769" d="M489.3 630.27L324.811 515.064l214.903 83.3-82.789-196.089z"/><path fill="#361800" fill-opacity=".259" d="M525.611 707.544l22.47-64.53 46.826 28.487-54.98 128.41z"/><path fill="#e9f1ea" fill-opacity=".584" d="M320.967 939.277l-39.12-66.21 129.756-5.293 166.653-1.134z"/><path fill="#7eb475" fill-opacity=".996" d="M508.864 1086l-7.047-42.333 83.966-28.699-42.243-4.178z"/><path fill-opacity=".231" d="M169.592 11.984L71.47 214.15l210.318 32.308L322.943-62z"/><path fill="#2f8700" fill-opacity=".357" d="M505.049 884.32l-28.252 65.798 63.632-77.412-32.965 12.761z"/><path fill="#b7a080" fill-opacity=".992" d="M530.206 700.842l-73.728-35.385 10.375 143.57 27.471-104.382z"/><path fill="#f9ad68" fill-opacity=".365" d="M677.834 718.272l125.73-71.455-76.925-49.289-95.356 124.22z"/><path fill="#3a3524" fill-opacity=".427" d="M262.816 749.828l-10.32 105.783 39.736-7.353-39.166-104.598z"/><path fill="#b38d6c" fill-opacity=".533" d="M329.45 223.4l3.153 159.412L500.46 251.318 390.135 425.175z"/><path fill="#8a6649" fill-opacity=".933" d="M222.98 808.914l-49.344-36.076 127.783-20.762-68.3-5.864z"/><path fill="#f6bf8c" fill-opacity=".518" d="M344.752 175.543l79.405-90.407-107.7 85.537 41.637 86.925z"/><path fill="#f0f2e8" fill-opacity=".992" d="M582.64 334.436l-29.765 146.677-114.119 100.34 136.131-73.694z"/><path fill="#c2d5d1" fill-opacity=".624" d="M119.592 632.548l30.75-.668 32.516-202.34-32.244.541z"/><path fill="#126c0a" fill-opacity=".29" d="M491.199 355.813l21.893 69.933 14.265-13.5-48.572-40.237z"/><path fill="#425a2e" fill-opacity=".482" d="M747.434 305.441l-162.68 72.295 20.961-76.28-1.176 63.094z"/><path fill="#87706b" fill-opacity=".588" d="M853.628 898.162L574.37 1000.704l302.09-251.997-194.595 82.532z"/><path fill="#2b555e" fill-opacity=".22" d="M233.237 556.744l-81.117-95.103 35.71 25.754-69.19 55.887z"/><path fill="#e6edd8" fill-opacity=".694" d="M596.498 1026.988l-57.282-204.506 7.28 121.397-48.556 3.277z"/><path fill="#382b0b" fill-opacity=".459" d="M543.885 332.599l102.921-14.516 84.234 176.206 10.655-300.626z"/><path fill="#805f21" fill-opacity=".451" d="M218.346 391.501L397.43 166.204l-213.01 98.538 67.083 121.636z"/><path fill="#bcc7bd" fill-opacity=".969" d="M429.97 738.812l93.25 91.43-87.226 8.254 3.658-113.332z"/><path fill="#ffbf85" fill-opacity=".424" d="M247.032 779.197L107.548 693.63l-13.13-37.976 80.989-3.452z"/><path fill="#856024" fill-opacity=".969" d="M174.405 323.458L-62 698.952l31.326 147.557L99.753 645.56z"/><path fill="#66ff37" fill-opacity=".561" d="M414.778 626.986l10.873-.121-1.048-60.639-20.787 66.993z"/><path fill="#c6dafa" fill-opacity=".173" d="M737.434 1086L898 930.399l-258.496 32.736 166.953 80.11z"/><path fill="#dde5d8" fill-opacity=".71" d="M289.52 793.812l80.394 118.158L406.519 1086l-119.13-277.538z"/><path fill="#c4c7df" fill-opacity=".686" d="M396.561 679.41l132.841 88.806L303.02 666.853l153.5-10.363z"/><path fill="#036516" fill-opacity=".302" d="M409.497 546.3l8.13-50.364 33.674 70.201 1.867-27.1z"/><path fill="#9dac9a" fill-opacity=".714" d="M594.3 845.773l31.475 74.237-6.54 76.24-55.678-149.772z"/><path fill="#fff6e0" fill-opacity=".486" d="M247.124 717.465l303.389 3.8-188.798-13.106-125.828-28.155z"/><path fill="#899d87" d="M278.742 593.123l-6.441-2.609-8.885-7.708-37.448 53.245z"/><path fill="#564c3d" fill-opacity=".553" d="M298.24 147.23l160.786-5.548-176.914-19.708 67.591-111.22z"/><path fill="#90b195" fill-opacity=".757" d="M587.516 493.657L576.883 456l79.94 60.528-23.268-34.502z"/><path fill="#07342d" fill-opacity=".369" d="M623.744 830.256l-64.921 15.01-24.112-121.265 35.381 50.55z"/><path fill="#60a66a" fill-opacity=".604" d="M520.2 984.535l-1.475-2.47-17.07-8.057 51.677-9.669z"/><path fill="#098b13" fill-opacity=".2" d="M283.537 1040.59L419.32 893.208l-89.493 114.777-88.13 78.016z"/><path fill="#fafbf7" fill-opacity=".506" d="M496.197 466.59l-222.922 10.874-107.53-16.789 46.924 64.982z"/><path fill="#f8f9fe" fill-opacity=".443" d="M590.327 341.607l8.75-11.93 77.818 207.078-5.393-113.918z"/><path fill="#f6f9f1" fill-opacity=".639" d="M276.698 968.585l109.37 60.483 22.351-76.718-201.604 71.167z"/><path fill="#d7e3de" fill-opacity=".263" d="M506.259 571.179l-8.437 88.191 122.145-82.006 2.681 105.675z"/><path fill="#1e7900" fill-opacity=".165" d="M274.496 892.822L183.41 1086l12.496-75.558 181.32-207.097z"/><path fill="#022c21" fill-opacity=".318" d="M484.222 591.079l-7.797 14.81 196.38-34.324-136.406 19.54z"/><path fill="#201f19" fill-opacity=".706" d="M206.208 704.483l-.753-45.744 26.824-116.162 1.373 163.679z"/><path fill="#237c09" fill-opacity=".388" d="M579.046 538.831l-31.208-10.114 23.919-18.093-53.458 35.451z"/><path fill="#622f2e" fill-opacity=".42" d="M233.615 769.82L-39.773 1086l34.45-197.93 235.221.38z"/><path fill="#278828" fill-opacity=".416" d="M370.14 458.573l-24.34-3.24 4.836-21.386-1.54 49.621z"/><path fill="#ffc08d" fill-opacity=".212" d="M478.878 114.556l-57.376 128.88-37.046-138.597-109.099 128.663z"/><path fill="#dbe4ce" fill-opacity=".918" d="M255.39 1022.066l27.71-88.189-54.256-126.074 7.987 65.77z"/><path fill="#fefcfe" fill-opacity=".58" d="M279.138 687.129l89.221-107.539 64.426-5.43-68.2-44.878z"/></svg>