<svg xmlns="http://www.w3.org/2000/svg" width="228" height="278" viewBox="0 0 836 1024"><path fill="#987360" d="M0 0h836v1024H0z"/><g fill-opacity=".502"><path fill="#ff832d" d="M574 1018l-544 32L630 98z"/><path fill="#123046" d="M898 122L730 854 582-62z"/><path fill="#002944" d="M322 322L30-62l-92 492z"/><path fill="#aef" d="M202 238l376-88L282 14z"/><path fill="#b4e9ff" d="M190 794l-80 292-172-272z"/><path fill="#04283f" d="M366-62L698 58-62 46z"/><path fill="#ff822f" d="M618 838l-476 248 116-524z"/><path fill="#9eb8c6" d="M534 1086l92-368 272 272z"/><path fill="#37313c" d="M898 738H554l224-528z"/><path fill="#ffb374" d="M606 218L178 526l484-100z"/><path fill="#ffebca" d="M310 582l-372 56 228 40z"/><path fill="#e22b00" d="M498 846l180-424-140-40z"/><path fill="#fddcf0" d="M438 762l64 196-12-356z"/><path fill="#3f2829" d="M462 298L426-30l124 308z"/><path fill="#b99f9c" d="M554 370l-52 244-364-112z"/><path fill="#422112" d="M462 534l-224 64-196-68z"/><path fill="#ff641d" d="M458 582L142 878l344 208z"/><path fill="#1e0d13" d="M150 754l76-72-288 8z"/><path fill="#637782" d="M226 174l80 296-344 8z"/><path fill="#9edbfb" d="M386 26L174 138l260 72z"/><path fill="#353d46" d="M-62-38l344 80L38 370z"/><path fill="#dca187" d="M466 214l188-36L518 34z"/><path fill="#636769" d="M502 242L822-58l76 424z"/><path fill="#1d201f" d="M690 190L506-46l216-16z"/><path fill="#8c9193" d="M570 734l320 8-56 344z"/><path fill="#9a0000" d="M282 1030l12-56 172 20z"/><path fill="#5e1813" d="M578 482l-184 44 204 16z"/><path fill="#c2f0ff" d="M-62 1086l132-52-112-180z"/><path fill="#ff9633" d="M270 478l368-172-220 8z"/><path fill="#c4e1fa" d="M502 598l-144-32 160-32z"/><path fill="#ffb573" d="M174 582l88 108 100-104z"/><path fill="#a25e5d" d="M718 526l152 284-64-340z"/><path fill="#a1a5aa" d="M50 386l196 32-296 128z"/><path fill="#ff7d2d" d="M474 1038l96-356 8 404z"/><path fill="#132b37" d="M626 590l96 112-160 16z"/><path fill="#fff" d="M450 110l-72-68 40 128z"/><path fill="#69656a" d="M370 186l152 120-448 96z"/><path fill="#5a7f8e" d="M26 814l200-40-288-104z"/><path fill="#2b3a46" d="M274-62l180 168L658-62z"/><path fill="#ff8f3d" d="M266 594l156 288-292 152z"/></g></svg>