<svg xmlns="http://www.w3.org/2000/svg" width="228" height="278" viewBox="0 0 836 1024"><path fill="#77463b" d="M0 0h836v1024H0z"/><path fill="#e6ebcc" fill-opacity=".741" d="M-62 949.63V482.275L133.246 622.25 241.426 1086z"/><path fill="#860e11" fill-opacity=".635" d="M156.754 323.18L272.085 1086l266.918-10.845L811.55 358.25z"/><path fill="#032121" fill-opacity=".631" d="M801.974-62L898 111.807 457.855 59.79-62 24.691z"/><path fill="#dc9c5e" fill-opacity=".6" d="M550.373 971.555L771.29 1086l-52.726-194.01L898 548.05z"/><path fill="#343833" fill-opacity=".682" d="M898 167.452L-15.049 303.933 623.065 293.5 898 757.074z"/><path fill="#d3944e" fill-opacity=".702" d="M61.493 927.283l90.433-289.357 23.243-8.719 72.172 160.785z"/><path fill="#bd4834" fill-opacity=".843" d="M527.051 465.196l-8.98-64.274-305.806 8.737-16.776 99.678z"/><path fill="#40473f" fill-opacity=".737" d="M362.516 62.205l-45.027 161.01-342.227 360.648L-14.146-20.67z"/><path fill="#2e211e" fill-opacity=".624" d="M719.975 706.126L605.742 938.25l-39.615-178.576 5.404-318.45z"/><path fill="#c09359" fill-opacity=".557" d="M475.142 44.955l-98.847 10.169-72.714 137.945 239.605 19.319z"/><path fill="#f6f7f8" fill-opacity=".62" d="M-62 498.466l182.119 153.357-44.61 218.672-24.54-20.337z"/><path fill="#a8a5a3" fill-opacity=".765" d="M.453 1013.972L231.767 1086l1.59-228.787L-35.466 1086z"/><path fill="#100605" fill-opacity=".294" d="M18.042 833.262L3.081 925.448l40.593-40.157 119.302 10.218z"/><path fill="#4f5b47" fill-opacity=".584" d="M390.035 111.137l273.689 129.582L898 103.876 693.25 54.589z"/><path fill="#003b6a" fill-opacity=".349" d="M809.55 786.05L898 961.982l-90.146 54.235-95.293-116.948z"/><path fill="#9a2221" fill-opacity=".812" d="M527.537 310.459l14.73-57.417 151.888 129.184-560.278 56.022z"/><path fill="#8c8669" fill-opacity=".467" d="M851.84 584.17L898 812.417 619.776 647.96l-8.256 101.722z"/><path fill="#79b9cc" fill-opacity=".251" d="M124.298 750.406l47.828-101.162-85.947-183.851-76.67 43.284z"/><path fill="#e1e2e2" fill-opacity=".875" d="M-62 1077.173l239.822 6.513-22.983-116.603-45.144 36.243z"/><path fill="#1f180c" fill-opacity=".549" d="M436.667 271.855l-76.594 6.283 52.59 72.613L616.86 25.694z"/><path fill="#29512a" fill-opacity=".404" d="M31.427 862.636L-44.211 1086l157.777-98.728-159.718-18.777z"/><path fill="#ecff77" fill-opacity=".431" d="M497.735 406.669l39.12 25.582-59.944 25.802-25.373-44.656z"/><path fill="#d42723" fill-opacity=".298" d="M686.965 367.836l101.382 293.448-34.738 135.679L609.98 303.098z"/><path fill="#ab7b57" fill-opacity=".918" d="M338.893 299.013l-8.616 21.807 64.47 24.836-50.922-89.569z"/><path fill="#5e1011" fill-opacity=".671" d="M243.765 660.955l-56.598-216.71-18.937 2.232 11.832 229.12z"/><path fill="#250104" fill-opacity=".451" d="M258.65 897.67l70.435 42.663-74.54-128.552-41.836 214.473z"/><path fill="#410001" fill-opacity=".251" d="M898 401.45L458.385 792.529l184.883 81.338L464.805 504.16z"/><path fill="#c13131" fill-opacity=".247" d="M337.61 825.54l-225.467-90.294 389.824-287.009-394.339-166.065z"/><path fill="#232826" fill-opacity=".553" d="M-62-62L24.339 63.47l285.843 24.487 165.148-66z"/><path fill="#ffde6f" fill-opacity=".706" d="M69.637 724.591l49.612 123.74 24.515 15.834-.775-87.437z"/><path fill="#e1a56a" fill-opacity=".525" d="M710.424 878.273l27.41 98.433-146.245-26.002 89.859-120.205z"/><path fill="#413732" fill-opacity=".894" d="M76.187 435.579l73.745 100.971.72-182.961L-62 349.822z"/><path fill="#332c24" fill-opacity=".702" d="M559.469 281.266l-86-340.72 22.042 37.606 129.544 326.479z"/><path fill="#fec05f" fill-opacity=".431" d="M338.93 468.779l-20.919-44.672 87.68 13.674 38.379-16.835z"/><path fill="#5b554a" fill-opacity=".655" d="M270.69 118.702l-42.953 209.136-149.272 26.26L-25.626 88.2z"/><path fill="#779185" fill-opacity=".255" d="M729.84 305.221L898 383.063 699.16 104.071 898 121.92z"/><path fill="#2b2323" fill-opacity=".514" d="M534.51 232.473l213.024 153.369-27.62-218.57L461.99 332.229z"/><path fill="#ffc38b" fill-opacity=".341" d="M409.297 169.846l-82.4 27.721 22.974-57.236 211.28 33.095z"/><path fill="#871e1e" fill-opacity=".855" d="M264.819 935.225l366.047 53.307L634.17 1086 199.24 970.15z"/><path fill="#e9a814" fill-opacity=".475" d="M554.678 268.62L477.85 340.5l81.829-48.833 11.072-6.236z"/><path fill="#b2753f" fill-opacity=".698" d="M735.915 665.331L669.33 867.592l144.98-99.642-38.817-115.988z"/><path fill="#340f0e" fill-opacity=".859" d="M652.464 542.517L593.48 783.261l-6.101-210.788-88.466-52.546z"/><path fill="#ffffe5" fill-opacity=".467" d="M17.713 781.753l64.21 171.373-57.045 4.124 86.219-239.767z"/><path fill="#263a44" fill-opacity=".553" d="M-56.03 802.14l67.745-47.217 2.318 52.5L-62 790.182z"/><path fill="#41534e" fill-opacity=".518" d="M637.08 616.47l-28.381 129.302 41.902 99.244 58.18-87.68z"/><path fill="#68591e" fill-opacity=".4" d="M131.513 898.271L17.64 867.746l132.648 9.276-13.617 111.992z"/><path fill="#841316" fill-opacity=".396" d="M306.202 944.755l-26.787-552.644 361.44 497.053-67.6 75.613z"/><path fill="#ffa964" fill-opacity=".29" d="M371.559 223.422l65.18 53.582 11.117-52.886.223 3.04z"/><path fill="#29201a" fill-opacity=".522" d="M34.328 523.63l-72.66-3.403L-62 326.36l97.852 6.893z"/><path fill="#831518" fill-opacity=".392" d="M774.712 567.173L451.161 272.618l183.653 326.804L724.83 743.67z"/><path fill="#c12f39" fill-opacity=".278" d="M264.135 904.97l-101.44 130.363L400.732 1086 292.746 909.738z"/><path fill="#ff8b34" fill-opacity=".176" d="M519.186 201.098L513.801 71.26 393.598 43.5l38.468 165.56z"/><path fill="#4f453b" fill-opacity=".835" d="M-62 280.89l511.414-28.266-126-37.84 2.583-70.434z"/><path fill="#ffce3e" fill-opacity=".4" d="M197.574 448.913l-5.776 30.042-4.174-1.328 80.389-36.653z"/><path fill="#5e6151" fill-opacity=".463" d="M69.09 538.462l70.903 130.621 17.163-182.643-126.8-61.88z"/><path fill="#3f3a34" fill-opacity=".443" d="M375.654 150.666l-8.77-48.96 371.445.59-28.518-78.432z"/><path fill="#db9687" fill-opacity=".157" d="M14.494 765.184l175.362-245.053L176 824.518l114.443-164.233z"/><path fill="#eff7f6" fill-opacity=".522" d="M-62 766.183v172.11l86.228-64.873-5.76-48.451z"/><path fill="#ffc78d" fill-opacity=".227" d="M471.455 58.853L324.532 73.106l91.289 34.195-8.86 46.287z"/><path fill="#5b8992" fill-opacity=".271" d="M793.204 697.023l100.21 138.356-20.17-263.5-106.45 4.887z"/><path fill="#130705" fill-opacity=".337" d="M527.27 753.446l-203.544-75.698 112.078 63.146 233.822 69.588z"/><path fill="#747157" fill-opacity=".349" d="M558.917 180.528L898 201.157 570.92 74.383 474.194 311.2z"/><path fill="#ced7be" fill-opacity=".604" d="M143.037 837.487L164.478 1086l15.041-231.344-12.282-33.715z"/><path fill="#ff713e" fill-opacity=".408" d="M135.827 846.063l-80.234 38.986 52.805 27.008L86.45 769.202z"/><path fill="#971e22" fill-opacity=".631" d="M408.822 319.983l75.362 190.509 190.179-130.42-303.284 145.937z"/><path fill="#181900" fill-opacity=".165" d="M225.37 680.099l12.83-165.102L135.557 737.43l11.612 43.099z"/><path fill="#1a0000" fill-opacity=".243" d="M420.498 162.612l76.674 170.947 39.746-55.807-159.731-67.657z"/><path fill="#000c07" fill-opacity=".329" d="M235.673 848.689l-33.037 16.882 61.986-75.99-21.686 205.335z"/><path fill="#f8ff79" fill-opacity=".455" d="M137.195 939.303l-82.002.505-4.954-33.5 72.726-18.312z"/><path fill="#dfeaff" fill-opacity=".231" d="M54.939 539.955L-62 627.762l181.405 138.833 29.339-49.095z"/><path fill="#47100f" fill-opacity=".616" d="M302.058 992.15l126.95-12.411 64.217 66.283 67.325-35.975z"/><path fill="#070701" fill-opacity=".537" d="M367.776 283.43l61.958-2.605 49.941-.745-76.257 47.927z"/><path fill="#99989c" fill-opacity=".624" d="M182.478 1085.324l-7.554-290.447 12.454 71.334 48.49-5.519z"/><path fill="#354343" fill-opacity=".565" d="M63.414 868.062l-25.563-11.819L-62 1061.13l42.297-147.309z"/><path fill="#030e13" fill-opacity=".224" d="M492.583 240.107L595.546 51.59 898 23.105 557.152-62z"/><path fill="#a92527" fill-opacity=".435" d="M336.985 282.555L225.78 789.387l28.553-364.247-105.222-59.57z"/><path fill="#3e332f" fill-opacity=".655" d="M727.561 493.755l-27.367-170.793 163.232 69.959-82.066 221.273z"/><path fill="#5a1514" fill-opacity=".98" d="M362.622 629.511l-207.997 2.237 99.94-10.998L453 615.13z"/><path fill="#a3282f" fill-opacity=".588" d="M697.425 386.143L590.68 286.429l127.208 291.777-2.324-148.598z"/><path fill="#f03e42" fill-opacity=".278" d="M193.762 626.011l40.612-15.663 179.796-27.254-50.089 27.88z"/><path fill="#e2e1ed" fill-opacity=".471" d="M-6.692 1023.679l176.057-14.275L53.173 1086-58.972 954.812z"/><path fill="#919787" fill-opacity=".631" d="M-62 798.695l129.632-60.302-55.223 2.805 20.67-2.796z"/><path fill="#b9071a" fill-opacity=".31" d="M190.662 578.814l7.106-32.363-30.586 123.11-15.204-268.752z"/><path fill="#506c8c" fill-opacity=".314" d="M704.454 330.18l13.587 92.612-25.023-29.31-42.843-58.247z"/><path fill="#8f9eff" fill-opacity=".094" d="M848.294 1039.515l14.103-84.791-148.456-46.917 23.884 95.586z"/><path fill="#2f4110" fill-opacity=".282" d="M131.848 984.66L-57.129 1086l134.212-69.697L-62 1012.775z"/><path fill="#ddac6c" fill-opacity=".259" d="M386.986 243.835L344.853 74.319l26.766 187.324 67.493 11.253z"/><path fill="#312521" fill-opacity=".427" d="M313.396 376.22l34.942-190.4-116.877 131.015 107.798-22.29z"/><path fill="#340d0c" fill-opacity=".647" d="M586.593 637.798l51.606 249.93-91.112-8.315 63.868 31.139z"/><path fill="#9d8c8c" fill-opacity=".996" d="M200.7 977.855l42.633 20.758-24.172 52.065L131.17 1086z"/><path fill="#4c341c" fill-opacity=".376" d="M715.175 867.35l112.659-106.288-5.895 109.791-108.606 6.324z"/><path fill="#b6292b" fill-opacity=".325" d="M335.252 624.153l-105.055 27.59.502 43.48 52.166 190.375z"/><path fill="#711415" fill-opacity=".58" d="M515.51 584.547l69.68 213.238 5.523-252.23-255.076 9.79z"/><path fill="#251f18" fill-opacity=".851" d="M536.71 181.651L511.125 45.995 314.888-17.624l223.398 102.64z"/><path fill="#c79465" fill-opacity=".875" d="M645.16 847.48l59.476 42.813-130.554 48.62 50.926 26.917z"/><path fill="#ecd2bb" fill-opacity=".075" d="M-62 70.738l205.583 257.034-114.225-7.762 97.454-146.396z"/><path fill="#fef8f3" fill-opacity=".251" d="M370.17 67.767l70.963-22.295-47.466 16.066-47.304 54.8z"/><path fill="#e79550" fill-opacity=".871" d="M330.643 433.882l-15.974 8.711 54.783 24.449L387.5 430.09z"/><path fill="#9b9c95" fill-opacity=".463" d="M176.368 647.937L20.174 528.927l15.988 22.637 120.174 140.579z"/><path fill="#0f0f07" fill-opacity=".161" d="M348.363 949.598l-190.349-118.25 289.274 93.73-28.267 20.63z"/><path fill="#d5af5b" fill-opacity=".255" d="M167.352 635.895l64.735 87.851-105.282 52.804 114.042 58.474z"/><path fill="#e1fa91" fill-opacity=".302" d="M522.747 445.6l-34.293-1.89-47.434-16.446 55.327-18.516z"/><path fill="#170202" fill-opacity=".239" d="M595.39 553.269l-120.387-17.364 135.153-59.746 56.658 36.564z"/><path fill="#c88f5c" fill-opacity=".729" d="M457.068 202.267L414.609 80.524l4.767 72.625 98.551-1.075z"/><path fill="#1a0706" fill-opacity=".302" d="M379.365 85.235l72.854 64.133 43.606-1.845-132.544-41.945z"/><path fill="#af1f28" fill-opacity=".514" d="M711.379 651.028l67.641-1.545-23.206-91.64-70.745 29.347z"/><path fill="#8d4f30" fill-opacity=".659" d="M458.024 310.624l-75 36.619 90.163-17.8 50.447-119.016z"/><path fill="#ffac1b" fill-opacity=".416" d="M560.63 278.37l-77.734 51.252 75.532-25.275-5.04-19.25z"/><path fill="#666157" fill-opacity=".992" d="M636.497 691.01l-21.802 32.226 19.616-97.446 23.39 43.388z"/><path fill="#e94342" fill-opacity=".333" d="M256.675 913.234l-6.253 30.452 85.158 36.742 34.516-.511z"/><path fill="#751115" fill-opacity=".412" d="M534.884 377.074l-280.023-11.973 383.342-62.223-61.364 113.541z"/><path fill="#090c08" fill-opacity=".655" d="M593.485 724.65l-7.151-71.669 33.446-10.644 5.154 39.833z"/><path fill="#8b1f1d" fill-opacity=".784" d="M225.082 774.55l230.337 168.868 140.99 24.873-121.97-152.555z"/><path fill="#ac2e33" fill-opacity=".718" d="M168.79 349.876l25.228 6.864-24.822 113.81-14.86-9.11z"/><path fill="#164408" fill-opacity=".169" d="M60.54 866.227l63.485 19.363 21.958 71.496 5.125-88.39z"/><path fill="#320a09" fill-opacity=".557" d="M435.286 532.974l126.259 68.365 35.613 22.06-146.566-71.21z"/><path fill="#252403" fill-opacity=".341" d="M734.82 708.883l-55.675-12.145-4.781-38.438 47.142-1.516z"/><path fill="#fffffa" fill-opacity=".388" d="M5.981 766.184l86.273 4.953-30.635 98.076-40.702-68.818z"/><path fill="#ccd2ec" fill-opacity=".204" d="M245.401 839.48l-33.208 79.801-24.846-4.908L220.56 973.1z"/><path fill="#dce8c0" fill-opacity=".455" d="M-4.396 970.705l141.712-30.064-74.436-31.737-19.225-26.706z"/></svg>