<svg xmlns="http://www.w3.org/2000/svg" width="228" height="278" viewBox="0 0 836 1024"><path fill="#939290" d="M0 0h836v1024H0z"/><g fill-opacity=".502"><path fill="#fff" d="M898 862L366 982 142 218z"/><path fill="#000006" d="M246 534L-62 954l412 132z"/><path fill="#1a0400" d="M-62-62L790 66 114 274z"/><path d="M814 1086l60-192-704 120z"/><path fill="#f9f9f7" d="M-62 234l16 488 944-360z"/><path fill="#fff" d="M350 442l548 80-372-320z"/><path fill="#573f22" d="M354 398L30-14l748-48z"/><path fill="#000004" d="M686 1086l140-404 72 324z"/><path fill="#465355" d="M566 574L90 678l80-144z"/><path fill="#c38e52" d="M422 94l-228 80 212 360z"/><path fill="#362d32" d="M810 214l-384-52 472 264z"/><path fill="#00131b" d="M458 1062l-348 8-128-348z"/><path fill="azure" d="M322 978l280-32-308-380z"/><path d="M374 1014l404 72 12-196z"/><path fill="#fff" d="M102 738l-164 8L46 298z"/><path fill="#eeeae2" d="M706 822L566 238l-212-32z"/><path fill="#584347" d="M786 622l-84 112-132-316z"/><path fill="#fff" d="M238 462l4-224-304 100z"/><path fill="#ffcba0" d="M78 938L-62 714l84 372z"/><path fill="#ffd3a4" d="M666 898l132-396 100 96z"/><path fill="#fff" d="M466 218l232 324 128-120z"/><path fill="#111d20" d="M394 642l16-120 68 264z"/><path fill="#b1c7e6" d="M882 34L730-62l-76 320z"/><path fill="#2a5360" d="M318 782L194 438 50 966z"/><path fill="#000611" d="M50-62L422 70l-196 84z"/><path fill="#edfbff" d="M210 578l200 32 40 136z"/><path fill="#14232f" d="M406 534l-16-216-56 12z"/><path fill="#f1f0ea" d="M470 970l228-60-56-424z"/><path fill="#0a233a" d="M434 222l48-284 136 288z"/><path fill="#82624e" d="M-58-62l32 376 308-88z"/><path fill="#fff" d="M774 806v80l-200 64z"/><path fill="#1f3126" d="M-62 382l156 52-20-44z"/><path fill="#0c3a45" d="M858 990l20-392-116 204z"/><path fill="#22292c" d="M454 706l12 104 60 76z"/><path fill="#000104" d="M534 1086l-444-76 808-88z"/><path fill="#cda070" d="M438 338l-96-112 76-288z"/><path fill="#f8fdff" d="M418 542l136-4-180-196z"/><path fill="#070900" d="M518 594l52-48-128 36z"/><path fill="#e09258" d="M614 790l148-4-56 100z"/><path fill="#000006" d="M2 826l116-56-120-24z"/></g></svg>