<svg xmlns="http://www.w3.org/2000/svg" width="228" height="278" viewBox="0 0 836 1024"><path fill="#655d67" d="M0 0h836v1024H0z"/><path fill="#e9ebe8" fill-opacity=".678" d="M126.07 66.472L-62 426.102l203.364 55.822 235.02-456.718z"/><path fill="#1b1c21" fill-opacity=".82" d="M288.179 308.888l433.225 78.404 48.124 383.115L99.723 544.436z"/><path fill="#e4b2b0" fill-opacity=".706" d="M615.207-62l-196.17 261.906 78.934 100.447L898 31.394z"/><path fill="#691419" fill-opacity=".91" d="M226.101 709.18l364.75 76.073-9.843 205.17L165.333 1086z"/><path fill="#0fa5f6" fill-opacity=".773" d="M40.453 1086l134.598-119.841 25.52-149.757L-62 835.386z"/><path fill="#0d9edb" fill-opacity=".624" d="M599.043 814.208L898 879.006 837.614 1086l-266.052-19.768z"/><path fill="#f3bba6" fill-opacity=".894" d="M617.519 1040.687l27.828-103.87 60.565 13.287L702.29 1086z"/><path fill="#050702" fill-opacity=".549" d="M469.437 75.63l88.515-8.315-185.49-128.374-52.926 329.904z"/><path fill="#04080d" fill-opacity=".698" d="M738.62 839.844l-19.102-419.685-66.37 496.387 38.996 33.885z"/><path fill="#d6e0e8" fill-opacity=".914" d="M3.619 1086l-34.865-110.13 181.024 16.263L102.486 1086z"/><path fill="#e39093" fill-opacity=".522" d="M620.527 211.148l85.935 204.958L898 429.982 693.95 145.996z"/><path fill="#cebebd" fill-opacity=".624" d="M228.583 539.81l-11.044 231.752L-62 731l222.231-27.785z"/><path fill="#caa983" fill-opacity=".718" d="M898 860.763V720.565L780.488 609.027l-47.064 242.825z"/><path fill="#a7afae" fill-opacity=".659" d="M460.747 618.578L314.43 599.777l41.846-55.218 80.661 9.028z"/><path fill="#e2e4dd" fill-opacity=".612" d="M-62 412.632l9.415-224.835 351.412 98.384L37.743 488.486z"/><path fill="#000514" fill-opacity=".439" d="M396.516 869.861L-62 808.022l367.014-90.764 274.934 72.667z"/><path fill="#303747" fill-opacity=".988" d="M165.202 504.002l-18.788 211.524-53.305-8.012L-62 503.565z"/><path fill="#b6ebfe" fill-opacity=".298" d="M662.803 892.21L559.652 761.22l-304.43-77.009 422.227-.694z"/><path fill="#320410" fill-opacity=".42" d="M700.075 29.244L735.528 234.8 898 335.458V210.915z"/><path fill="#bd7e7e" fill-opacity=".565" d="M667.366 743.131l-10.644-161.33-119.675-21.95 39.978-109.147z"/><path fill="#0e1428" fill-opacity=".675" d="M-29.228 207.748L-62 120.345 202.487-62l22.995 27.451z"/><path fill="#9e2a2f" fill-opacity=".769" d="M240.076 990.947l299.642-132.47 73.148-194.801L562.89 1086z"/><path fill="#0d0909" fill-opacity=".839" d="M327.211 551.527l-102.42-150.039 68.78 390.642-81.809-108.692z"/><path fill="#ada2a7" fill-opacity=".694" d="M114.478 250.932l213.033-41.378L296.007-62-2.906 221.3z"/><path fill="#b59188" fill-opacity=".894" d="M255.988 647.206l5.631-64.251-74.448-2.698-61.054 83.44z"/><path fill="#f0cece" fill-opacity=".667" d="M496.49 135.45l-49.556-51.409 232.78-26.889-114.87 91.27z"/><path fill="#10151e" fill-opacity=".663" d="M384.723 286.363L628.738 672.78 183.17 450.687l-4.009-66.41z"/><path fill="#05273d" fill-opacity=".737" d="M182.333 915.518L112.716 1086h385.596L182.457 964.161z"/><path fill="#9f9fb1" fill-opacity=".561" d="M-61.99 756.428l362.131 25.232-235.994-78.54L-62 483.408z"/><path fill="#0090cd" fill-opacity=".988" d="M705.369 1029.198L898 1024.94V859.677l-172.51 11.228z"/><path fill="#473446" fill-opacity=".714" d="M653.888 268.358l-72.457-61.864-54.776 195.26 94.67 168.959z"/><path fill="#b6825c" fill-opacity=".541" d="M590.086 257.733L507.93 361.696l-86.171-13.813-20.989-176.418z"/><path fill="#8a9fc6" fill-opacity=".51" d="M414.532 288.41L277.084 135.825l65.216 138.6-129.573 70.603z"/><path fill="#000304" fill-opacity=".616" d="M607.218 472.09l82.923 204.626 77.065-.956-37.2-226.398z"/><path fill="#070908" fill-opacity=".639" d="M365.955 610.309l-170.56-47.194 143.535 77.241-37.228 200.197z"/><path fill="#0c0902" fill-opacity=".588" d="M317.43 168.183l102.962 119.516-37.788-106.582L459.83 46.603z"/><path fill="#180d0e" fill-opacity=".514" d="M399.99 977.555l-67.677-24.838 112.089 34.636 108.38-416.166z"/><path fill="#007ad3" fill-opacity=".506" d="M149.211 971.615L-62 975.912 4.397 804.269l197.79 12.326z"/><path fill="#0092e0" fill-opacity=".871" d="M598.802 882.711l-2.742-36.213 76.609-5.843L580.496 1086z"/><path fill="#070000" fill-opacity=".431" d="M376.035 653.805l281.25 24.155-96.457 103.254 89.08-253.551z"/><path fill="#fe3033" fill-opacity=".486" d="M404.544 1086l55.807-62.366 71.323-224.466-51.855 47.494z"/><path fill="#fb4f53" fill-opacity=".51" d="M481.739 1086l98.653-130.667L543.24 1086l18.272-279.177z"/><path fill="#e1adc6" fill-opacity=".498" d="M564.828 29.824l-17.172 267.795L735.954-62 345.876-18.814z"/><path fill="#f8fae4" fill-opacity=".294" d="M447.761 716.24l133.216 44.064 9.977-103.52-106.208 94.5z"/><path fill="#1e2c39" fill-opacity=".784" d="M714.582 942.67l-87.97-6.3 37.906-48.128 99.573-214.278z"/><path fill="#fd1c1a" fill-opacity=".388" d="M414.65 827.842l51.84-51.3L367.306 1086l-35.671-7.085z"/><path fill="#79738b" fill-opacity=".722" d="M89.077 606.242l19.073-36.352 47.603-118.485-68.998 4.81z"/><path fill="#ffa7a6" fill-opacity=".349" d="M593.15 494.618l-48.74 95.904 53.74-26.027 26.346-52.267z"/><path fill="#c79fa5" fill-opacity=".733" d="M653.22 347.888L898 299.783 832.554 415.87 725.293 252.823z"/><path fill="#001e48" fill-opacity=".431" d="M237.21 812.685L20.739 846.532l-53.299-75.23 243.681 6.389z"/><path fill="#fe2531" fill-opacity=".196" d="M221.704 731.504l99.973 49.69-82.38 214.011-55.444-54.048z"/><path fill="#010a0a" fill-opacity=".533" d="M229.299 905.31l53.931-223.36 37.71 193.626 42.376-199.285z"/><path fill="#596268" d="M316.05 522.432l75.59-18.592-67.62-7.84-49.73 221.25z"/><path fill="#653436" fill-opacity=".298" d="M154.981 85.297L-62 184.512l181.026 25.012L98.038 1.863z"/><path fill="#000707" fill-opacity=".455" d="M400.512 761.44l46.12-30.476-89.315 258.975-45.289 30.908z"/><path fill="#fe0d0d" fill-opacity=".314" d="M271.443 995.137l91.114-195.945 19.644 31.702-79.991 189.146z"/><path fill="#7b8e9d" fill-opacity=".518" d="M198.2 149.359l73.8 171.48L392.415-14.29l-90.609 176.362z"/><path fill="#2d3d4b" fill-opacity=".569" d="M490.959 365.906l389.01 134.244-88.87 83.408-179.506-302.893z"/><path fill="#0f0d11" fill-opacity=".714" d="M424.115 621.524l140.458 54.287-78.437-305.325-58.053 365.8z"/><path fill="#0f130b" fill-opacity=".647" d="M111.736 658.317l75.803 11.265-53.308 42.393-71.777-16.614z"/><path fill="#fac6a3" fill-opacity=".459" d="M670.73 615.407l-39.844-51.361-1.953 104.04-1.705-24.198z"/><path fill="#c3fff4" fill-opacity=".271" d="M425.88 686.636l-157.448-54.589-6.26 80.422 50.253-45.899z"/><path fill="#d7bdb2" fill-opacity=".498" d="M898 47.015l-72.792 66.028-44.01 14.654L749.516-62z"/><path fill="#a6adae" fill-opacity=".831" d="M385.801 562.18l-49.47 39.47 9.057-64.572 93.987 93.36z"/><path fill="#cfd049" fill-opacity=".569" d="M898 805.395l-72.612 40.025-92.543-11.402 25.989-64.414z"/><path fill="#0a191f" fill-opacity=".373" d="M572.153 729.654l-62.904 138.165-23.085 75.029 13.343 96.335z"/><path fill="#e9efeb" fill-opacity=".416" d="M207.145 343.337l-59.468 102.064L-22.46 240.649l331.117 76.652z"/><path fill="#cababa" fill-opacity=".914" d="M104.906 731.36l112.012 13.379-4.401-93.09-3.068 13.413z"/><path fill="#ab3548" fill-opacity=".333" d="M543.098 213.564L898 230.494l-262.952 66.755-113.813-45.16z"/><path fill="#8eb8e0" fill-opacity=".478" d="M591.154 775.224l12.763 62.413 67.977 4.832-3.801-86.611z"/><path fill="#c5d1ca" fill-opacity=".533" d="M391.782 724.566l-21.178-11.416-31.789-42.45 135.995 65.23z"/><path fill="#a3788c" fill-opacity=".741" d="M773.099 765.737L898 776.042l-106.23-187.51-36.461-19.816z"/><path fill="#1f1100" fill-opacity=".376" d="M328.075 99.311l20.926 63.52 200.95-14.789-32.344 26.918z"/><path fill="#a66d5f" fill-opacity=".706" d="M635.435 940.572L607.829 1034l-5.7 52.001 58.212-150.784z"/><path fill="#52a6e5" fill-opacity=".694" d="M169.128 398.831l19.58 14.545-34.895 56.354-13.971.287z"/><path fill="#363547" fill-opacity=".82" d="M593.453 795.02l2.364 174.983-9.063-35.19-3.572-218.426z"/><path fill="#212532" fill-opacity=".843" d="M478.172 458.808L282.016 326.942 214.57 349.27l-46.71 52.996z"/><path fill="#c9d3da" fill-opacity=".361" d="M320.853 11L95.99 147.27l137.633-1.992 81.269 50.331z"/><path fill="#794754" fill-opacity=".502" d="M722.783 438.524l93.233-127.297-96.513 52.897-115.436-61.894z"/><path fill="#e7d4b0" fill-opacity=".314" d="M602.919 159.44l-118.38 28.85 35.868 163.609 17.731-22.387z"/><path fill="#b8b3b7" fill-opacity=".867" d="M24.156 729.397L-62 724.535l8.01-205.459 84.416 155.365z"/><path fill="#100d03" fill-opacity=".439" d="M532.842 313.844l-71.709-34.315 37.053 124.846-132.55-5.875z"/><path fill="#fc8e6f" fill-opacity=".322" d="M49.58 63.924L-62-29.321v24.527l175.68-35.83z"/><path fill="#000202" fill-opacity=".404" d="M236.228 604.132l56.819 66.003-59.585-118.606 213.422 117.508z"/><path fill="#0097e4" fill-opacity=".631" d="M179.743 940.17L-62 1002.333l27.92-154.517 232.044 15.91z"/><path fill="#212b3a" fill-opacity=".902" d="M207.925 561.484L84.308 678.917l-22.568 7.7 142.82-313.099z"/><path fill="#160300" fill-opacity=".435" d="M457.149 848.482L246.044 700.63l235.51 69.118 126.053-18.616z"/><path fill="#545a5c" fill-opacity=".992" d="M325.47 655.165l220.433 46.554-19.238.165 69.2-19.277z"/><path fill="#cbaca2" fill-opacity=".443" d="M98.944 474.367l-47.09 21.737L-62 446.383l102.866-124.6z"/><path fill="#1b2631" fill-opacity=".6" d="M757.382 136.455l73.163-6.281L898 230.014 743.774 201.76z"/><path fill="#8e6969" fill-opacity=".541" d="M729.064 261.29l-46.58-197.01 19.722-25.574 61.984-15.22z"/><path fill="#e1fbed" fill-opacity=".318" d="M347.489 735.032l177.524 29.225-142.739-29.479-94.816-31.947z"/><path fill="#fa4352" fill-opacity=".278" d="M292.44 674.427L170.39 952.186l187.751 77.993-159.863-96.656z"/><path fill="#08101b" fill-opacity=".765" d="M336.931 351.699l185.102 42.942-105.39-53.32-19.3-65.341z"/><path fill="#173266" fill-opacity=".427" d="M275.031 301.015l.95-67.721 56.306-.885 46.236 3.238z"/><path fill="#353848" fill-opacity=".835" d="M668.75 699.535l16.4-47.17-69.821-5.78-23.618 73.543z"/><path fill="#13080b" fill-opacity=".616" d="M373.525 773.732l-95.292 177.824 74.054-327.287-35.222 85.779z"/><path fill="#bb4044" fill-opacity=".965" d="M585.495 847.9l-12.524 63.069 3.895 57.74 12.807-6.425z"/><path fill="#95bdd0" fill-opacity=".49" d="M531.617 986.887l38.41 10.796-18.357 12.294-39.646-6.044z"/><path fill="#e0e5e5" fill-opacity=".369" d="M459.412 573.47l-45.522 31.92 40.91-1.624-89.12-40.15z"/><path fill="#404247" fill-opacity=".502" d="M574.106 79.872L317.016-62 347.85 60.134l190.177-38.079z"/><path fill="#b48676" fill-opacity=".686" d="M416.582 243.763l-35.667-57.231 120.186-13.591-29.664-103.502z"/><path fill="#759ee8" fill-opacity=".38" d="M334.76 255.078l110.177 5.718-69.822 33.327-48.918 9.28z"/><path fill="#c3ffce" fill-opacity=".251" d="M833.824 857.972l-82.193-50.968-36.197 50.179 93.182 11.622z"/><path fill="#83464a" fill-opacity=".996" d="M531.26 249.302l133.904 6.153-162.418 2.632 33.676-10.204z"/><path fill="#0392de" fill-opacity=".914" d="M616.004 863.496l-60.324 210.61 74.632-113.104 16.698-57.297z"/><path fill="#1a1207" fill-opacity=".314" d="M422.836 169.934l30.2 41.955-24.067-223.273-102.338 155.73z"/><path fill="#381e1e" fill-opacity=".722" d="M295.091 832.19l23.207-165.579-11.833-11.457.079 8.345z"/><path fill="#000101" fill-opacity=".831" d="M231.518 572.185l76.545 59.51-23.224-166.489-47.405 54.048z"/><path fill="#17171b" fill-opacity=".667" d="M405.268 572.144l-30.97-100.458 320.988-14.573-328.248 95.513z"/><path fill="#a6b2b1" fill-opacity=".514" d="M371.777 671.868l-71.845-98.126 109.066 26.025-94.828-6.584z"/><path fill="#ddc8ff" fill-opacity=".169" d="M720.482 437.711l33.231 69.504L898 85.576l-2.86 286.337z"/><path fill="#be171a" fill-opacity=".565" d="M222.691 936.87l15.413 49.665 64.58-152.076-5.038-31.568z"/><path fill="#ffe5f3" fill-opacity=".369" d="M576.745 566.557l15.884-27.28-50.877-20.384 2.181-13.821z"/><path fill="#000006" fill-opacity=".349" d="M411.628 912.24l-59.512 16.534-192.457-57.104 161.26 32.544z"/><path fill="#270000" fill-opacity=".522" d="M210.603 887.49l7.306 41.205 91.9-21.373-20.34 56.14z"/><path fill="#ff6e74" fill-opacity=".314" d="M551.244 915.092l-27.06 25.44-114.691 22.698 61.908-34.542z"/><path fill="#9497a6" fill-opacity=".475" d="M125.91 60.816l246.943 7.12-15.606-48.253-75.377-2.214z"/><path fill="#ffc4b1" fill-opacity=".224" d="M220.535 556.062l-65.596 67.8 79.784 35.991 25.301-51.615z"/><path fill="#170809" fill-opacity=".969" d="M225.254 746.69l-5.828-84.15 138.364 93.698-121.385-33.716z"/></svg>