<svg xmlns="http://www.w3.org/2000/svg" width="228" height="278" viewBox="0 0 836 1024"><path fill="#526b72" d="M0 0h836v1024H0z"/><path fill="#64deff" fill-opacity=".576" d="M687.426 1086l-27.65-733.76-518.757 27.973L342.795 1086z"/><path fill="#110812" fill-opacity=".773" d="M833.812 1086l-84.098-655.772L451.45 6.889 898-62z"/><path fill="#342f31" fill-opacity=".988" d="M-16.936 152.482L898 288.264l-616.224 29.079L98.304 421.4z"/><path fill="#a1deee" fill-opacity=".82" d="M361.34 456.245L51.336 640.78l75.007-235.745 180.178-99.997z"/><path fill="#6e5237" fill-opacity=".808" d="M363.511 401.161L3.821-57.685l604.102 195.376-142.739 299.713z"/><path fill="#490b00" fill-opacity=".337" d="M832.783 1086L600.808 701.609-62 664.709 783.242 537.49z"/><path fill="#88d2e7" fill-opacity=".824" d="M553.043 293.103l-198.27 244.1 380.764-61.327-19.175-111.45z"/><path fill="#601003" fill-opacity=".475" d="M-34.553 1086l289.148-11.182-9.805-412.548-162.234-32.81z"/><path fill="#191d20" fill-opacity=".867" d="M137.294 205.616L30.765 233.628 162.933-39.31 247.52 9.568z"/><path fill="#df8965" fill-opacity=".475" d="M113.985 821.944L241.05 960.315-31.255 839.48l89.017-257.068z"/><path fill="#24a9ca" fill-opacity=".898" d="M698.724 367.402L546.463 674.046 317.308 778.507l253.664 178.518z"/><path fill="#9ffd67" fill-opacity=".463" d="M186.694 102.9L324.763-62l-31.398 298.135-106.47-56.187z"/><path fill="#000509" fill-opacity=".745" d="M384.205-27.67l401.66 254.245L898 42.508l-579.163 9.246z"/><path fill="#7dc4d9" fill-opacity=".992" d="M624.725 453.772l36.324 409.105 65.136 72.353L613.949 1086z"/><path fill="#893928" fill-opacity=".678" d="M749.27 444.522l-70.177-115.16 48.283-94.044L898 306.416z"/><path fill="#000919" fill-opacity=".714" d="M336.435 290.021L85.515 430.074l65.408-224.623L530.36 342.794z"/><path fill="#64c7dd" fill-opacity=".604" d="M448.172 897.396L205.81 1086l66.8-102.524-43.97-590.694z"/><path fill="#0e7cae" fill-opacity=".541" d="M528.302 631.25l174.074-219.462L898 668.066l-132.821-83.843z"/><path fill="#a1745b" fill-opacity=".922" d="M342.102 52.37l157.66 154.58-279.503 11.093L512.49 60.858z"/><path fill="#b35855" fill-opacity=".757" d="M40.498 509.856l21.395-233.97L-62 248.112l39.519 239.37z"/><path fill="#00081a" fill-opacity=".471" d="M129.598 777.63l86.289-288.062 1.511 211.385-51.18 239.148z"/><path fill="#7c432b" fill-opacity=".682" d="M656.923 811.224L817.85 1086l-9.359-371.807-63.286-139.954z"/><path fill="#514c48" fill-opacity=".651" d="M446.858 547.246l151.646 84.556-240.608 68.853-18.194-81.226z"/><path fill="#460011" fill-opacity=".494" d="M531.428 218.213l-209.56 129.698 99.654 83.167 75.842-43.075z"/><path fill="#75c4d7" fill-opacity=".992" d="M67.773 623.056l20.452-120.438 116.89-1.25-63.027 141.636z"/><path fill="#0b0200" fill-opacity=".518" d="M763.227 663.901l-48.16 77.16-66.517-146.996-2.64-70.841z"/><path fill="#a5dceb" fill-opacity=".843" d="M599.972 427.924L503.57 272.088l137.847 64.405 54.31 2.43z"/><path fill="#1d1b21" fill-opacity=".737" d="M151.492 1086l84.245-62.451 30.246-70.9L-62 1001.934z"/><path fill="#293033" d="M705.46 335.258l-76.367-175.715-101.963 109.09 107.935 62.154z"/><path fill="#040d1b" fill-opacity=".706" d="M80.678 495.366l41.302-228.84 248.89-13.488-184.622 85.585z"/><path fill="#82c0dc" fill-opacity=".545" d="M232.257 783.642l57.937 219.775 116.58-59.217-215.668-102.017z"/><path fill="#ade8f6" fill-opacity=".608" d="M500.908 504.61l-384.019-56.992 197.49-142.63-10.035 38.371z"/><path fill="#001e5c" fill-opacity=".718" d="M878.951 517.472l-129.449-26.98 27.874 170.83 89.998 310.6z"/><path fill="#700" fill-opacity=".416" d="M-62 731.29l36.393-236.05L74.746 633.507l140.361 23.407z"/><path fill="#18b2e9" fill-opacity=".365" d="M667.855 628.88l45.568 130.718-143.24-121.51-99.173-150.046z"/><path fill="#f8bfa0" fill-opacity=".478" d="M78 811.179L-62 915.234l59.397-150.089L37.06 725.89z"/><path fill="#050d10" fill-opacity=".769" d="M540.213 681.982l-12.54-1.453 7.032-90.585 33.465 50.364z"/><path fill="#874a70" fill-opacity=".561" d="M109.7 121.004L-62 246.481V-27.12L122.716-62z"/><path fill="#96cee3" fill-opacity=".439" d="M692.03 836.897l18.806 73.218L706.31 1086 506.132 930.358z"/><path fill="#54d8e8" fill-opacity=".357" d="M671.976 605.682l52.678-10.278 31.91-27.712-26.211-168.263z"/><path fill="#06acd4" fill-opacity=".404" d="M627.518 676.947L505.135 950.389l-68.62 13.354L326.833 698.72z"/><path fill="#0186a9" fill-opacity=".718" d="M607.244 971.892L394.532 1086 619.39 946.224l57.47 5.893z"/><path fill="#ffcbc8" fill-opacity=".161" d="M301.228 156.525l290.858-11.822 59.51 119.342-148.323-63.188z"/><path fill="#127b94" fill-opacity=".816" d="M351.43 971.585l-93.072 57.38L165.56 1086l313.085-152.967z"/><path fill="#bc3039" fill-opacity=".494" d="M340.455 507.92l-17.656-28.067-10.393-9.126-40.414 47.181z"/><path fill="#78d0e7" fill-opacity=".498" d="M323.122 592.576l-58.5-52.244L503.09 375.958l172.884 136.93z"/><path fill="#07578b" fill-opacity=".671" d="M393.9 371.074l-42.525-34.98 74.404 69.084 51.832-51.18z"/><path fill="#b7e2eb" fill-opacity=".945" d="M82.738 512.735l209.426-190.166-97.153 47.503-43.175 16.674z"/><path fill="#a0fe6f" fill-opacity=".467" d="M209.48 156.864l-9.368-25.38 109.91-174.277L334.15 37.6z"/><path fill="#a09e9d" fill-opacity=".475" d="M379.09 613.64l175.807-6.025-176.266 70.572 136.187-1.924z"/><path fill="#2f5155" fill-opacity=".498" d="M108.99 284.943l224.287-174.136L36.609 262.248l52.582 257.616z"/><path fill="#0e0000" fill-opacity=".31" d="M396.572 201.596L804.268-62l-349.08 172.088-17.69 273.256z"/><path fill="#000d10" fill-opacity=".624" d="M375.806 698.197l-38.996-43.744 27.223-60.617 22.35 100.057z"/><path fill="#066b88" fill-opacity=".98" d="M671.918 458.687l46.878 141.426-31.158 12.869-33.821-91z"/><path fill="#3babc4" fill-opacity=".651" d="M173.277 454.433l162.397 296.344 16.985-217.422-112.39 154.909z"/><path fill="#473b35" fill-opacity=".788" d="M284.745 972.824l-336.64-54.793 157.962-104.307L7.143 997.191z"/><path fill="#83dff7" fill-opacity=".349" d="M77.764 543.945L46.14 628.55l133.89 9.578 15.67-41.908z"/><path fill="#390900" fill-opacity=".478" d="M701.906 780.913l-46.16-265.497-11.847 124.824 111.903-66.02z"/><path fill="#a1001a" fill-opacity=".682" d="M461.898 395.17l-28.73 35.368-132.07-132.36 55.06 91.605z"/><path fill="#8f6770" fill-opacity=".976" d="M642.4 687.734l22.882 147.546 10.167 35.74 49.706 74.717z"/><path fill="#c06619" fill-opacity=".369" d="M717.684 363.796l46.977-38.031 4.117 178.324-24.69-15.225z"/><path fill="#dcb6be" fill-opacity=".451" d="M-62 371.294l101.462 26.363 5.674 44.859-43.827 25.313z"/><path fill="#0b1112" fill-opacity=".639" d="M367.345 596.883l44.818 15.569 13.375-22.025-11.59-17.866z"/><path fill="#d99c78" fill-opacity=".455" d="M434.549 58.484L378.303 268.97l-52.092-144.039 106.093 51.721z"/><path fill="#875640" fill-opacity=".682" d="M801.817 735.81l17.417 288.984-55.233 14.215-53.64-124.1z"/><path fill="#000304" fill-opacity=".243" d="M86.896 783.19L214.6 834.17 114.564 988.315 241.22 531.527z"/><path fill="#258398" fill-opacity=".788" d="M308.513 823.837l50.084-90.922-124.953 173.538 32.741-14.956z"/><path fill="#a0736c" fill-opacity=".314" d="M239.755 937.09L128.788 821.98 51.07 912.558l155.588 72.398z"/><path fill="#030a12" fill-opacity=".718" d="M898 183.679L784.543-23.611l-363.57-18.16 272.443 265.703z"/><path fill="#94deef" fill-opacity=".729" d="M522.334 1086L717.96 935.27l-218.013 98.462-205.759-16.536z"/><path fill="#aeefff" fill-opacity=".337" d="M620.042 798.406l34.73-10.514-102.37 92.088-145.827 82.246z"/><path fill="#020200" fill-opacity=".694" d="M896.118 540.762l-30.67-137.104-74.39-18.766-18.336 110.444z"/><path fill="#8e0015" fill-opacity=".604" d="M513.501 357.958l9.898-88.512-11.129 19.523-66.176 127.54z"/><path fill="#936956" fill-opacity=".686" d="M234.17 258.641l28.53-148.706 119.627 93.572-70.827 15.189z"/><path fill="#ff5d2a" fill-opacity=".29" d="M59.563 632.463l28.945 7.373 53.619 49.828L41.735 744.25z"/><path fill="#262613" fill-opacity=".561" d="M452.56 361.854l-85.692-53.423 172.36-35.302-51.196-98.379z"/><path fill="#006e8a" fill-opacity=".243" d="M150.69 639.884l-12.44-135.526 49.398 14.036 111.053 98.185z"/><path fill="#2e4961" fill-opacity=".282" d="M859.958 212.209l-32.095 117.538-298.959-117.39 75.664-20.966z"/><path fill="#0d171f" fill-opacity=".647" d="M8.366 560.7l27.035 26.604-39.304 106.92-30.226 57.535z"/><path fill="#0aa7c9" fill-opacity=".573" d="M531.232 526.83l72.35 261.226-124.986 44.219 153.168-285.34z"/><path fill="#9bb1bc" fill-opacity=".275" d="M646.577 682.555L526.18 422.127l131.423 23.44-8.179 97.807z"/><path fill="#4c251b" fill-opacity=".545" d="M717.698 776.852l55.659-253.26-110.36 244.337 58.682 146.674z"/><path fill="#2f2d00" fill-opacity=".251" d="M326.474 109.607l214.684 26.755-288.468 9.718L379.18-48.824z"/><path fill="#bb8368" fill-opacity=".545" d="M341.829 52.113l140.572 42.44-110.097-.761-57.096 108.817z"/><path fill="#0e1f15" fill-opacity=".247" d="M252.05-62L13.18 169.132-62 331.534 252.105 67.697z"/><path fill="#5b7a8c" fill-opacity=".898" d="M652.112 997.541l150.884-39.998-160.473 54.67-123.902 69.855z"/><path fill="#fb4327" fill-opacity=".173" d="M342.088 264.842l119.257-27.265-115.138 141.996-45.785-52.612z"/><path fill="#8dd5e9" fill-opacity=".694" d="M724.915 380.937L476.16 465.005l56.797-184.502-11.942 28.055z"/><path fill="#a0e9f4" fill-opacity=".263" d="M322.74 985.058l92.333-52.646 96.88-158.622 4.2-21.378z"/><path fill="#006c88" fill-opacity=".404" d="M269.353 738.795l98.732-177.299-125.496 193.13-.84 63.959z"/><path fill="#000111" fill-opacity=".475" d="M328.658 295.187L72.776 386.98l24.759-80.392 243.99-76.453z"/><path fill="#3b0022" fill-opacity=".6" d="M692.8 348.498l72.884-33.276-82.58-44.858-76.036 15.962z"/><path fill="#19050c" fill-opacity=".353" d="M68.987 834.503l112.331-93.588 82.708 104.753-1.246-60.018z"/><path fill="#7d3600" fill-opacity=".553" d="M679.599 338.333l36.987 46.378 115.888 10.733 64.296-66.629z"/><path fill="#f4d0c6" fill-opacity=".129" d="M344.333 998.575L322.602 684.57l-136.008 82.612 18.57-97.393z"/><path fill="#b13123" fill-opacity=".541" d="M34.21 283.441l-94.06 6.935L-62 395.009l118.082-23.535z"/><path fill="#edecf9" fill-opacity=".604" d="M709.566 999.972l-46.852 15.075L415.406 1086l227.1-14.89z"/><path fill="#0082d6" fill-opacity=".596" d="M536.07 762.184l126.42-48.75-10.836-100.36 42.688 86.605z"/><path fill="#f8d7ff" fill-opacity=".275" d="M444.506 689.797l68.305 22.487-20.72 11.117-75.678 4.04z"/><path fill="#070809" fill-opacity=".282" d="M481.02 653.155l-81.856 6.556 132.71-69.568-47.09-28.493z"/><path fill="#9e8274" fill-opacity=".506" d="M735.487 521.882l75.323 307.959-5.91-77.503-34.7-109.114z"/><path fill="#c6c8c7" fill-opacity=".498" d="M394.421 660.058l24.83-31.318-44.153 13.044-1.672-35.629z"/><path fill="#907189" fill-opacity=".647" d="M103.45 35.381l-21.192 51.8-33.566 27.974-96.513-70.73z"/><path fill="#0095b1" fill-opacity=".376" d="M359.423 834.408l-91.445 174.916 24.427-94.579 215.082-197.69z"/><path fill="#b6e3ed" fill-opacity=".988" d="M633.115 338.974l-113.944-52.375 201.18 109.957-48.197-63.277z"/><path fill="#bce9ff" fill-opacity=".333" d="M780.365 576.685l-78.988-97.296 41.596 80.02 21.794-1.251z"/><path fill="#95d5e6" fill-opacity=".388" d="M238.167 821.378L264.33 563.93l-158.777-90.91 201.807-66.523z"/><path fill="#b61e2f" fill-opacity=".396" d="M559.6 472.428l18.604 4.605-2.627-1.525-1.03 47.543z"/><path fill="#a6ddeb" fill-opacity=".824" d="M383.792 954.64l21.977-30.393-127.314 76.731-41.153 28.959z"/><path fill="#443d4d" d="M246.964 874.033L272.846 989.6l-34.05-67.26-71.408-99.024z"/><path fill="#8cc7d9" fill-opacity=".678" d="M650.396 801.765l58.192 102.547-35.138-82.882-135.223 124.997z"/><path fill="#23911e" fill-opacity=".353" d="M304.444-62L188.764 78.572l-34.846 112.312 18.03-14.66z"/><path fill="#41cbe9" fill-opacity=".341" d="M412.483 541.87l-75.346-38.785 301.142.484-48.688 97.638z"/><path fill="#89d7eb" fill-opacity=".678" d="M421.562 1075.258L367.71 1086l142.207-97.87 171.599-105.64z"/><path fill="#fdac9a" fill-opacity=".298" d="M440.228 600.59l48.465-38.218-41.113-18.71-35.239 17.686z"/><path fill="#f3fefc" fill-opacity=".471" d="M675.851 344.955L524.45 286.413l.323 16.683 81.9 30.647z"/><path fill="#91d5e7" fill-opacity=".788" d="M375.78 510.417l-116.557-66.02 79.299-60.853 96.724 47.683z"/><path fill="#722900" fill-opacity=".353" d="M164.369 650.328l-103.8 84.92 56.145 54.838 90.37-166.015z"/><path fill="#a1a5a6" fill-opacity=".42" d="M535.771 631.081l-.778-9.605-40.298-21.767L365.743 640.5z"/><path fill="#9fdded" fill-opacity=".745" d="M55.329 620.772l82.95 8.779 44.332-15.051-97.795-21.554z"/></svg>