<svg xmlns="http://www.w3.org/2000/svg" width="228" height="278" viewBox="0 0 836 1024"><path fill="#4c3b34" d="M0 0h836v1024H0z"/><path fill="#d0d1d8" fill-opacity=".831" d="M178.469 962.493L203.829 1086l468.403-61.441-7.709-121.321z"/><path fill="#ac826c" fill-opacity=".808" d="M80.882 529.773L212.356 1086l178.259-136.716-309.956 1.634z"/><path fill="#c37f55" fill-opacity=".686" d="M898 669.74l-506.863 46.408 75.027 85.676L898 720.28z"/><path fill="#da8c5c" fill-opacity=".506" d="M330.48 220.2l191.49 160.913-17.806-299.128-125.803-3.11z"/><path fill="#000503" fill-opacity=".451" d="M570.22 741.247L898-21.919 402.212 20.294l170.174 168.414z"/><path fill="#290000" fill-opacity=".294" d="M197.852 892.354l159.19 108.754 261.021-791.16L-62 406.108z"/><path fill="#e8e6ec" fill-opacity=".686" d="M583.897 900.537L354.81 1045.046 657.103 1086l6.944-197.026z"/><path fill="#ffe4cf" fill-opacity=".251" d="M368.777 755.148l224.03-111.917-348.312 8.703 329.363 83.93z"/><path fill="#0b1b24" fill-opacity=".588" d="M-62 146.457l357.286 99.49L448.472-62H-28.16z"/><path fill="#100002" fill-opacity=".443" d="M751.922 775.714L898 757.68v169.608L133.198 831.23z"/><path fill="#c9bbbb" fill-opacity=".647" d="M111.552 442.566l36.538-54.52-4.874 119.263-26.089-26.272z"/><path fill="#d6dfce" fill-opacity=".29" d="M119.493 541.197l-57.09 77.847L-62 708.562l122.68 42.603z"/><path fill="#250c0b" fill-opacity=".663" d="M756.058 630.356l-.06 12.414-301.762 3.616 250.978-229.16z"/><path fill="#e24c53" fill-opacity=".416" d="M737.453 445.394l-195.33-160.631 156.153 62.207 32.408 78.542z"/><path fill="#ad7648" fill-opacity=".388" d="M509.62 382.93l52.389-227.6-188.434 81.114L350.759 360.8z"/><path fill="#e6976d" fill-opacity=".557" d="M135.831 1006.905l13.03-241.916-96.063 185.973 59.525 14.09z"/><path fill="#f83b44" fill-opacity=".239" d="M524.202 972.493l-3.937-586.374 40.821-11.734 11.955 121.17z"/><path fill="#8e1c23" fill-opacity=".694" d="M244.527 433.863L175.79 347.11l98.149 318.04-43.246 229.773z"/><path fill="#330f13" fill-opacity=".671" d="M144.234 776.587l39.496 172.798 285.047-21.343 200.307-86.415z"/><path fill="#f1e9db" fill-opacity=".494" d="M352.283 547.423l-50.652 2.63 18.633-34.707 11.873-9.482z"/><path fill="#88939a" fill-opacity=".627" d="M574.882 894.092l-248.334 63.76L28.194 1086 605.91 924.382z"/><path fill="#1d2323" fill-opacity=".733" d="M-62 923.396l152.617-27.743-3.456-110.868L-62 738.506z"/><path fill="#0a0000" fill-opacity=".373" d="M354.318 273.447l-77.932 279.88-151.128 90.524-14.013-123.595z"/><path fill="#eda682" fill-opacity=".42" d="M371.893 91.054l-.081 58.568 119.366 5.366L502.85 76.73z"/><path fill="#191011" fill-opacity=".694" d="M331.077 303.155L520.34 672.203l-2.621-321.589-148.818 290.501z"/><path fill="#471a16" fill-opacity=".827" d="M614.105 302.538l5.808 411.974-136.268 4.647 230.059-119.852z"/><path fill="#816957" fill-opacity=".847" d="M739.354 636.924L898 651.382V801.68L698.065 658.9z"/><path fill="#133c53" fill-opacity=".333" d="M189.203 333.569l180.125-103.836-398.2-85.797-2.222 488.343z"/><path fill="#31432d" fill-opacity=".843" d="M826.49 673.017L898 65.12 763.653 196.192 693.834 325.74z"/><path fill="#6c8c5a" fill-opacity=".455" d="M898 944.919l-17.375 109.13-231.744 5.408 30.147-116.667z"/><path fill="#5d6a42" fill-opacity=".949" d="M190.247 980.933L-3.94 1086l9.842-172.243L182.496 1086z"/><path fill="#7aa09f" fill-opacity=".38" d="M166.577 610.947l10.964 173.527 34.442-171.495-16.246 35.24z"/><path fill="#9d353b" fill-opacity=".718" d="M166.722 362.326l91.405-65.336-110.848 143.1-5.991-34.385z"/><path fill="#0f1010" fill-opacity=".804" d="M179.703 925l46.237-139.14 7.412-228.021-78.239 289.935z"/><path fill="#c46d34" fill-opacity=".333" d="M98.037 517.278L61.66 676.242l102.498 322.037 19.6-34.706z"/><path fill="#77675f" fill-opacity=".988" d="M311.691 668.748l-27.376-63.87 3.251 80.903 265.114 6.967z"/><path fill="#f4dce0" fill-opacity=".102" d="M742.026 542.643l91.75-225.547-177.066 5.381 43.048 89.867z"/><path fill="#091111" fill-opacity=".596" d="M333.573 956.215l33.766-320.467 49.956 249.146-14.666-90.61z"/><path fill="#b8bdc2" fill-opacity=".765" d="M316.127 948.475l-86.685-1.527L178.746 1086l13.384-104.499z"/><path fill="#120a00" fill-opacity=".396" d="M464.235 195.652l-110.92-61.886 29.92 66.707 88.347-61.47z"/><path fill="#651a1e" fill-opacity=".749" d="M335.991 963.908l12.72-189.667-2.715-133.742-69.176 262.003z"/><path fill="#282727" fill-opacity=".867" d="M106.306 285.565L70.376 633.03-62 622.603V343.118z"/><path fill="#616f81" fill-opacity=".349" d="M154.692 274.49l-111.26 17.104L-62 205.662l292.033 4.281z"/><path fill="#14151b" fill-opacity=".573" d="M898 615.805L586.253 645.09l186.396-52.699-7.617-179.514z"/><path fill="#c07e5b" fill-opacity=".8" d="M507.51 788.776l175.143-56.807-279.688-27.606 24.513 31.955z"/><path fill="#09110d" fill-opacity=".341" d="M410.778 326.99l306.724-83.764-220.018-7.208-235.581 592.398z"/><path fill="#a75f12" fill-opacity=".447" d="M624.714 623.915l-2.004 91.208 151.74-94.099 8.916 156.479z"/><path fill="#b50c1f" fill-opacity=".369" d="M291.485 509.45l16.713-132.183 47.249 37.572-6.918 103.423z"/><path fill="#8c2723" fill-opacity=".475" d="M435.156 894.76l-47.505 7.847 21.248-144.151 48.967-45.855z"/><path fill="#161716" fill-opacity=".796" d="M239.256 933.84l37.386-2.347 31.24-241.856-37.158-34.748z"/><path fill="#fe2d3a" fill-opacity=".204" d="M225.51 516.761l-33.718-30.08L241.2 354.657l20.719 479.683z"/><path fill="#fdbb95" fill-opacity=".294" d="M357.415 370.563l60.237-196.221 38.606 53.474-88.88 15.278z"/><path fill="#5f1319" fill-opacity=".706" d="M469.292 435.85L458.58 609.368l-52.763-50.628.511-129.685z"/><path fill="#feeadb" fill-opacity=".169" d="M416.893 783.58l-30.58-205.29 54.249 78.152-15.255 93.01z"/><path fill="#5e1d1f" fill-opacity=".918" d="M528.576 278.804l150.307 88.672-46.95 144.6-15.747-133.994z"/><path fill="#f3fee4" fill-opacity=".192" d="M528.151 542.613L546.9 569.83l-10.992-163.08 37.275 147.366z"/><path fill="#271112" fill-opacity=".635" d="M334.574 730.745l-54.799-181.73 47.888 149.067 179.985-4.45z"/><path fill="#88400d" fill-opacity=".318" d="M511.495 823.816l-96.418-14.546 346.601-74.862 22.08 50.294z"/><path fill="#1f201e" fill-opacity=".918" d="M898-62L172.4 75.183l334.88 1.046 109.456 248.8z"/><path fill="#c6c4cb" d="M647.089 886.03l-173.452 77.508-142.122 72.243 335.83-130.29z"/><path fill="#ab6c52" fill-opacity=".769" d="M555.786 176.216l-7.185 69.696-93.553-48.555 54.251 24.677z"/><path fill="#062426" fill-opacity=".4" d="M834.768 933.06l-160.814-7.636-45.416-104.546L898 737.458z"/><path fill="#15100f" fill-opacity=".624" d="M582.303 710.608l91.296-169.366-52.96-64.94-51.25-132.76z"/><path fill="#000e15" fill-opacity=".247" d="M418.346 224.375L152.658 699.97l173.878-441.591 121.37 30.226z"/><path fill="#1b1917" d="M475.4 389.334l42.972 122.097-23.588 185.624-33.23-223.934z"/><path fill="#eeffef" fill-opacity=".333" d="M127.993 497.862l27.922-50.344-33.19 5.085 10.215-85.915z"/><path fill="#fde7c2" fill-opacity=".176" d="M517.752 12.688l41.636 63.959-66.611-56.162L305.49-62z"/><path fill="#010d0f" fill-opacity=".518" d="M162.9 564.998l48.258-179.177-13.518-6.225-86.977 170.244z"/><path fill="#191616" fill-opacity=".796" d="M242.624 468.81l65.188 302.438-51.025-112.427 53.507-77.533z"/><path fill="#9c7e6f" fill-opacity=".541" d="M461.298 711.303l-44.39 57.835 155.136-141.8 9.883 39.196z"/><path fill="#46839f" fill-opacity=".306" d="M784.067 657.031l5.314 90.66 60.699 33.519L898 611.858z"/><path fill="#d3997b" fill-opacity=".663" d="M57.158 946.238l77.427-1.418 33.269-40.057-74.584-33.8z"/><path fill="#060909" fill-opacity=".478" d="M554.242 363.58l-199.84 83.395 121.046-14.954 77.597-152.963z"/><path fill="#130c0e" fill-opacity=".506" d="M509.523 869.592l78.188-102.271-1.4 128.503-336.97 39.07z"/><path fill="#6a1c23" fill-opacity=".553" d="M198.973 846.254l63.125-72.005-37.894 146.197-11.309 90.122z"/><path fill="#625b11" fill-opacity=".612" d="M648.548 638.878l50.35 67.007-82.668-1.306L635.32 543.9z"/><path fill="#0c1414" fill-opacity=".624" d="M685.828 549.223l54.71 99.61 1.648-102.999-84.82-170.733z"/><path fill="#6e8f9e" fill-opacity=".322" d="M76.406 756.288l-98.42-11.454L-62 587.332l134.702 90.626z"/><path fill="#e10f20" fill-opacity=".22" d="M779.538 565.25l-30.149 43.15-12.744-188-76.358-66.892z"/><path fill="#9a5f37" fill-opacity=".678" d="M497.372 285.111l22.425-39.88-20.489 132.876-47.996 16.675z"/><path fill="#161615" fill-opacity=".91" d="M351.355 615.641l50.467 52.932-26.274-127.714-21.386 16.27z"/><path fill="#941118" fill-opacity=".608" d="M569.625 376.478l-.558 84.326-47.437-15.182 9.603-79.455z"/><path fill="#89ddff" fill-opacity=".18" d="M426.062 929.865l-236.986 77.315-8.005-60.69 239.891 4.3z"/><path fill="#fab488" fill-opacity=".145" d="M476.019 288.502L350.496 170.32l20.93 231.566 48.901-263.66z"/><path fill="#9f272c" fill-opacity=".502" d="M240.292 837.499l24.611-103.606-3.25-191.872-27.189 36.449z"/><path fill="#6e8a95" fill-opacity=".459" d="M755.954 486.286l-18.857-51.497-17.004 72.481 39.623 5.133z"/><path fill="#d2ffe4" fill-opacity=".129" d="M131.403 770.343L199.32 623.64l3.454 51.459-57.141 114.242z"/><path fill="#592221" fill-opacity=".494" d="M300.526 308.01l162.563-86.578-278.283 208.87 15.61-104.137z"/><path fill="#306500" fill-opacity=".267" d="M694.026 362.46l90.726-213.963 69.896 71.765-101.38 172.257z"/><path fill="#e5ffec" fill-opacity=".361" d="M488.539 681.901l2.178-33.518-18.764 18.998 16.026 29.462z"/><path fill="#fe3f49" fill-opacity=".333" d="M351.683 790.039l-27.092-6.042-49.667 21.593 86.974-11.215z"/><path fill="#fa2f41" fill-opacity=".286" d="M120.898 486.516l-5.357-24.386-50.08 38.116 63.902.093z"/><path fill="#7ac9f9" fill-opacity=".129" d="M149.99 361.77l122.705-60.457 116.28-26.078-126.592 9.126z"/><path fill="#282c32" fill-opacity=".894" d="M292.532 144.49l-125.836-42.737L-62 91.881l437.97 203.276z"/><path fill="#be7d58" fill-opacity=".608" d="M387.156 758.32l356.003-68.828 2.314 13.448-65.632 42.656z"/><path fill="#191817" fill-opacity=".965" d="M91.742 533.31l137.72 97.828L82.758 506.684l-11.871 99.991z"/><path fill="#caffe5" fill-opacity=".141" d="M284.042 681.466l155.81-20.575-109.33-14.202 71.681 54.736z"/><path fill="#fcfdff" fill-opacity=".275" d="M667.536 1086L643.36 943.228 210.413 1057.05l300.13-43.593z"/><path fill="#a2968c" fill-opacity=".549" d="M326.214 511.118l-33.655 29.485 49.766 17.055 13.704-13.215z"/><path fill="#130e0b" fill-opacity=".447" d="M482.167 756.831l-247.6 71.83 94.668 8.95 42.701-16.263z"/><path fill="#e6a28a" fill-opacity=".412" d="M383.945 720.923l26.145-6.843 71.835-9.026 50.496 18.004z"/><path fill="#44321b" fill-opacity=".757" d="M462.677 301.634l-98.81 114.526L486.7 304.062l38.583-105.82z"/><path fill="#002a29" fill-opacity=".243" d="M337.45 858.2l-.138 119.151 38.71-146.565L372.284 1086z"/><path fill="#814726" fill-opacity=".392" d="M191.127 999.847l-8.66-63.563-51.693-5.731-36.805 77.536z"/><path fill="#191212" fill-opacity=".69" d="M412.11 566.65l-73.023 100.674 44.004 249.39-39.19-299.857z"/><path fill="#1b1917" fill-opacity=".757" d="M596.58 394.04l-1.243 5.11-78.061-57.96 178.593 52.342z"/><path fill="#782e29" fill-opacity=".494" d="M534.203 792.432l-125.757 24.845 86.932-46.286 18.059 178.661z"/><path fill="#4e2a28" d="M417.085 697.45l33.817-162.163-53.881 109.122 17.657-56.694z"/><path fill="#fc3b48" fill-opacity=".22" d="M292.93 838.152l4.222 137.008-19.747-70.534 69.383-51.446z"/><path fill="#41191a" fill-opacity=".808" d="M440.02 663.575l3.82 19.19 126.001-104.8-35.887 60.033z"/><path fill="#2d2f30" fill-opacity=".976" d="M193.102 344.907L-62 310.967l285.02-26.522 13.261-23.477z"/><path fill="#171817" fill-opacity=".878" d="M287.223 377.572l-6.813 367.045-34.39-370.953-80.21 41.443z"/><path fill="#cfccd3" fill-opacity=".471" d="M381.674 931.082l-10.904 61.003 42.363-65.24 76.922 129.944z"/><path fill="#ddfce2" fill-opacity=".153" d="M374.27 550.605l82.634 195.962-29.883-99.853-22.03 19.41z"/><path fill="#270d00" fill-opacity=".29" d="M481.609 146.318l10.853 40.01-43.61-.94-33.837-17.438z"/><path fill="#c6c5b5" fill-opacity=".537" d="M148.956 469.111l-32.095-9.195 9.295-52.866 26.329 43.67z"/><path fill="#e9fff1" fill-opacity=".353" d="M383.688 623.529l-1.747 70.815 35.476-4.55-28.33 7.662z"/><path fill="#4f1b1b" fill-opacity=".525" d="M521.938 685.827l-31.566 19.105 32.668 17.93 89.979-5.584z"/><path fill="#71292d" fill-opacity=".537" d="M645.112 887.509l-21.53-67.73-45.771 11.614 75.496 63.262z"/><path fill="#7c7e81" fill-opacity=".627" d="M425.641 965.683l36.633-47.602 139.978-22.905-89.198 44.484z"/></svg>