<svg xmlns="http://www.w3.org/2000/svg" width="228" height="278" viewBox="0 0 836 1024"><path fill="#61694a" d="M0 0h836v1024H0z"/><path fill="#d7f38a" fill-opacity=".808" d="M562.045 307.003l85.898 430.61-86.67-152.223-318.804-158.638z"/><path fill="#e5ee6e" fill-opacity=".725" d="M79.33 386.586l101.787 245.098-2.84 222.358L-62 737.085z"/><path fill="#d7e9f3" fill-opacity=".831" d="M661.546 951.079l27.079-159.607 174.46-5.696L898 954.641z"/><path fill="#040012" fill-opacity=".518" d="M-21.664-62L898 8.16 760.638 404.12-62 195.89z"/><path fill="#03202f" fill-opacity=".988" d="M625.47 1086l-430.183-47.933-24.707-79.939 370.267-72.938z"/><path fill="#aed100" fill-opacity=".463" d="M413.447 919.332l-330.155 43.98L408.42 456.404l138.81 381.047z"/><path fill="#ff8da8" fill-opacity=".478" d="M898 647.843l-253.953 16.271 31.41-195.435L898 243.952z"/><path fill="#001e29" fill-opacity=".663" d="M521.75 1003.375l216.744-247.63-329.232-62.596L579.237 497.58z"/><path fill="#43849a" fill-opacity=".878" d="M169.934 650.9l-2.144-248.657 167.937-133.525-42.964 398.329z"/><path fill="#ffd674" fill-opacity=".353" d="M549.55 62.03l-36.256 226.407L625.15 758.726 379.186 66.34z"/><path fill="#d0eb52" fill-opacity=".765" d="M520.398 701.018l-120.118 41.91 13.849 171.215 109.297-68.956z"/><path fill="#0a1123" fill-opacity=".518" d="M176.857 433.203l-205.134-40.41L193.98-62h105.284z"/><path fill="#0c171e" fill-opacity=".769" d="M630.947-59.997l-32.835 603.872L713.813 400.31 802.1-62z"/><path fill="#a32532" fill-opacity=".718" d="M898 783.921v-97.817l-266.877-95.82 27.568 179.686z"/><path fill="#3a5200" fill-opacity=".698" d="M184.647 752.7L546.6 677.714 175.032 856.512l152.324 39.728z"/><path fill="#ebff86" fill-opacity=".533" d="M486.58 574.235l-124.313-46.14-15.388-161.93 251.704-29.543z"/><path fill="#3294d0" fill-opacity=".773" d="M606.719 437.352l-13.054-40.975-114.63-95.234 119.311 26.933z"/><path fill="#c9dd42" fill-opacity=".596" d="M432.091 651.898l-1.31 39.116L-62 815.47V687.655z"/><path fill="#2b96f9" fill-opacity=".243" d="M480.467 866.354L583.757 1086l261.472-1.823-255.424-269.31z"/><path fill="#000b00" fill-opacity=".69" d="M528.538 796.252l-8.977-264.59-85.863 152.244 139.958 19.204z"/><path fill="#aacaa7" fill-opacity=".773" d="M281.622 313.549l55.08 49.58-69.752 34.7-63.678-31.452z"/><path fill="#014c72" fill-opacity=".6" d="M-62 905.985v-72.627l229.26-23.648-116.947 89.091z"/><path fill="#533209" fill-opacity=".588" d="M497.15 301.795L378.921 15.941 336.84 319.437l111.685 52.17z"/><path fill="#d9c3b7" fill-opacity=".341" d="M72.02 370.198L-5.352 562.341l182.71 107.241-9.196-140.78z"/><path fill="#55381b" fill-opacity=".675" d="M379.387 639.309l-74.629-2.726.122-130.947 90.156 55.533z"/><path fill="#cfc002" fill-opacity=".529" d="M279.894 420.984l-81.723 75.16 47.106 23.307-30.664-100.386z"/><path fill="#2a62ad" fill-opacity=".427" d="M636.3 618.758L590.538 407.05 559.84 531.5l179.61-127.717z"/><path fill="#f0fe49" fill-opacity=".525" d="M576.101 736.797l59.93-32.65-28.288-74.95-38.158 60.38z"/><path fill="#e0d5d8" fill-opacity=".282" d="M701.916 1086l-53.085-170.636 51.99-159.71 148.471 35.493z"/><path fill="#0059a0" fill-opacity=".49" d="M204.921 633.143L343.945 295.01l14.207 66.417-159.135 359.64z"/><path fill="#ffc7ad" fill-opacity=".447" d="M513.378 76.62l-91.304-6.962L545.965 199.35l-59.637-11.773z"/><path fill="#809415" fill-opacity=".467" d="M-62 65.362L80.344 204.05-62 434.997 41.107 843.428z"/><path fill="#587200" fill-opacity=".49" d="M208.368 646.516L133.663 1086l120.104-170.788 130.399-19.78z"/><path fill="#02427c" fill-opacity=".565" d="M205.986 408.084l19.04 255.733-44.03 8.068-6.85-166.958z"/><path fill="#000a00" fill-opacity=".612" d="M436.168 685.638l34.6 30.31 126.746-61.793-61.68-88.955z"/><path fill="#0c4967" fill-opacity=".8" d="M629.864 875.093l18.23 93.608-200.962-73.675 146.409-89.544z"/><path fill="#a3b930" fill-opacity=".82" d="M554.64 508.436L360.042 721.669l111.432-186.33 122.348 56.086z"/><path fill="#687266" fill-opacity=".729" d="M156.357 790.978L92.69 802.955 57.688 964.59 138.223 1086z"/><path fill="#061c19" fill-opacity=".718" d="M692.134 811.42l-53.478-98.778-44.185 14.476 38.802 168.757z"/><path fill="#c6dcf3" fill-opacity=".31" d="M768.296 418.49l-101.964 17.607 23.203 73.456 94.398-37.357z"/><path fill="#78715f" fill-opacity=".639" d="M379.252-22.32l126.193 48.88-111.442-4.986-114.312 89.005z"/><path fill="#e8fd95" fill-opacity=".506" d="M570.517 945.47l30.672 66.732L636.26 1086l-16.222-114.722z"/><path fill="#9ab00f" fill-opacity=".486" d="M423.257 548.833l-87.201-79.26-118.716 60.732-18.447-63.814z"/><path fill="#31302d" fill-opacity=".573" d="M470.736-43.895l297.65 351.057 13.62 120.837-182.974-77.414z"/><path fill="#c4d88c" fill-opacity=".749" d="M162.716 806.368l-16.382 34.42 1.336 126.88 25.569-157.292z"/><path fill="#0d0b01" fill-opacity=".706" d="M388.753 84.276l-33.398 112.116L329.31 57.264l135.78-23.287z"/><path fill="#cfe26b" fill-opacity=".675" d="M241.497 656.742l41.182 55.374 98.85-21.769 63.39-20.603z"/><path fill="#c1b0a4" fill-opacity=".62" d="M898 633.1l-116.57-5.814-43.192-31.495 23.973-71.077z"/><path fill="#e5f57e" fill-opacity=".651" d="M467.334 546.648l-3.29-235.032 55.94 24.221 26.096 178.61z"/><path fill="#a0c31a" fill-opacity=".514" d="M325.029 775.908l-9.472 162.275L419.192 900.3l70.513-192.665z"/><path fill="#2c2a32" fill-opacity=".549" d="M528.465 151.512l-408.647 32.852L-62 509.044 445.621 118.08z"/><path fill="#b7d6fc" fill-opacity=".537" d="M192.684 377.442l-14.472 31.783 2.377 39.765 50.587-98.058z"/><path fill="#ecff5e" fill-opacity=".408" d="M-17.16 557.099L93.943 536.28l43.727 37.839-21.453 225.28z"/><path fill="#020807" fill-opacity=".553" d="M160.899 1086l319.797-197.344L300.16 943.17l-100.55 1.805z"/><path fill="#000d12" fill-opacity=".553" d="M586.694 102.55L559.13-37.538l164.267 14.771 64.3 308.428z"/><path fill="#fdb283" fill-opacity=".212" d="M389.32 153.847l-21.848 169.627-23.895-72.469 123.872-79.964z"/><path fill="#05294d" fill-opacity=".333" d="M320.894 582.536l-6.006-113.434-256.635-55.41 212.38 83.734z"/><path fill="#000801" fill-opacity=".361" d="M313.32 312.862l41.792 34.146-.699 8.383 335.458-112.498z"/><path fill="#9c6582" fill-opacity=".322" d="M115.678 383.286l-83.681 13.368-16.89 127.585 142.183-.614z"/><path fill="#ffff92" fill-opacity=".263" d="M300.535 423.795L413.22 573.863l91.266-85.883-111.963-140.399z"/><path fill="#97a511" fill-opacity=".71" d="M194.24 883.14l-34.08-123.884 17.358-55.95 34.033-35.087z"/><path fill="#002360" fill-opacity=".365" d="M-57.816 1016.073L419.577 1086l-257.173-70.85-10.656-46.748z"/><path fill="#0d2427" fill-opacity=".671" d="M514.071 765.374l29.797-142.835 44.546 130.645-42.6 57.61z"/><path fill="#309fff" fill-opacity=".231" d="M380.044 636.714l-24.187-90.3L236.791 686.66l-33.243-175.755z"/><path fill="#967b67" fill-opacity=".373" d="M898 1047.61L818.11 1086 613.269 945.042 898 933.608z"/><path fill="#d52f25" fill-opacity=".416" d="M683.249 802.89l44.947-200.751-26.955-32.807-58.594 122.765z"/><path fill="#839b79" fill-opacity=".851" d="M429.894 478.932l-86.35 12.204 23.386 16.045 48.481-10.136z"/><path fill="#59a0b3" fill-opacity=".659" d="M584.631 321.951l-19.307-7.868-45.354-22.757-50.682 34.305z"/><path fill="#273f00" fill-opacity=".561" d="M203.356 788.571l85.38-73.876 36.46 28.945 156.472-21.77z"/><path fill="#eafe7a" fill-opacity=".4" d="M471.483 717.471l60.733-20.987-23.237 101.9-72.927 106.624z"/><path fill="#021624" fill-opacity=".416" d="M631.128 642.122l27.213-231.284-9.475-190.565-41.177 291.902z"/><path fill="#2a83b8" fill-opacity=".851" d="M267.876 336.287l59.2 96.684 11.606-65.405-76.752.31z"/><path fill="#e4955f" fill-opacity=".247" d="M898 301.02l-141.176 4.01 21.953 252.82L898 617.826z"/><path fill="#7c9b0a" fill-opacity=".894" d="M268.773 782.225l168.844 105.732-105.918 21.825 76.027-159.946z"/><path fill="#d77a5e" fill-opacity=".255" d="M143.729 1048.276L104.74 908.441-62 928.73l156.867 74.203z"/><path fill="#031a24" fill-opacity=".498" d="M189.982-62L-62 52.823 96.621 42.109l258.793 263.795z"/><path fill="#583b1d" fill-opacity=".969" d="M299.78 181.312l172.33 95.268-27.6-27.845 60.767-56.783z"/><path fill="#d7f9fe" fill-opacity=".365" d="M708.865 959.003l-53.658-78.217 55.824-67.031L898 864.767z"/><path fill="#452241" fill-opacity=".192" d="M692.245 473.35l148.05 334.692-62.19.468-58.282-65.66z"/><path fill="#3b3b3e" fill-opacity=".871" d="M798.38 261.86L759.267 62.486 898 256.13l-186.454 99.734z"/><path fill="#efff8d" fill-opacity=".22" d="M343.505 869.242l78.256 43.219-118.098 21.922 270.901-173.082z"/><path fill="#fabec0" fill-opacity=".239" d="M500.663 288.144l-31.85-38.455 56.695-108.238 1.673 81.184z"/><path fill="#161913" fill-opacity=".627" d="M528.95 230.445l133.718 211.316-47.77-189.088-195.704-22.09z"/><path fill="#c6a687" fill-opacity=".694" d="M504.907 77.916l21.887 40.62-94.956.457 42.077-57.05z"/><path fill="#423d43" fill-opacity=".604" d="M313.717 284.438L170.414 384.681l2.051-172.54 181.503 72.127z"/><path fill="#0170b0" fill-opacity=".38" d="M560.813 528.447l20.781 8.263 12.842-35.373 20.39-175.078z"/><path fill="#f0ef71" fill-opacity=".29" d="M353.867 575.517l96.864 149.719-21.667-80.046-94.086-33.533z"/><path fill="#eafc67" fill-opacity=".404" d="M631.486 644.53l-8.418 70.672-70.024-159.125 43.961-53.082z"/><path fill="#a3bb44" fill-opacity=".459" d="M216.655 806.938l-171.31-43.53-34.647-261.143L-62 819.042z"/><path fill="#bfcd5d" fill-opacity=".733" d="M470.921 359.649l-116.767 11.227 117.437 58.217-12.21-125.233z"/><path fill="#81a600" fill-opacity=".408" d="M314.434 448.95l-1.822 108.137 255.464-19.003-149.492 59.709z"/><path fill="#828679" fill-opacity=".212" d="M324.541 109.91l52.26 192.63L269.704 74.683 392.183-.672z"/><path fill="#222f49" fill-opacity=".482" d="M126.836 231.656l44.523 263.171L-62 186.793V644.38z"/><path fill="#fdfe9b" fill-opacity=".506" d="M239.66 382.921l-12.338-40.68 18.39 9.083 51.473 49.69z"/><path fill="#00364d" fill-opacity=".443" d="M177.44 399.923l93.078 133.178-64.697-16.142 73.957 64.228z"/><path fill="#03416c" fill-opacity=".922" d="M-62 853.046l20.918-38.463 105.127 18.741 1.116 51.137z"/><path fill="#0b63b0" fill-opacity=".443" d="M623.476 1037.579l-53.528-164.36-60.746 18.216 63.964 35.724z"/><path fill="#feff66" fill-opacity=".275" d="M211.719 430.476l-1.356-9.869 8.271-33.527 54.04 136.375z"/><path fill="#5e1300" fill-opacity=".58" d="M420.661 630.824l-127.127-13.34 50.572-36.524-4.92 55.735z"/><path fill="#76997b" d="M563.643 421.159l-27.246 27.891 67.966-224.57-56.071 184.907z"/><path fill="#defbb9" fill-opacity=".231" d="M168.91 552.43L64.54 472.455l-10.18 109.87 126.15 72.535z"/><path fill="#ffff7b" fill-opacity=".29" d="M377.489 333.633l-61.755 126.678 3.8 45.122 136.952-109.228z"/><path fill="#edee5d" fill-opacity=".451" d="M280.644 355.11l9.697-42.178 23.516 37.404 24.216 18.89z"/><path fill="#000c15" fill-opacity=".588" d="M122.036 952.784l418.602 77.072-382.546-2.437 127.036-81.046z"/><path fill="#d6ec64" fill-opacity=".522" d="M510.91 721.458l23.287 110.32 27.794-10.866-129.191 83.27z"/><path fill="#d8ee52" fill-opacity=".682" d="M376.842 540.127l54.167 18.198 121.063-24.988 4.063-19.456z"/><path fill="#a09bae" fill-opacity=".529" d="M647.196 909.194l58.787-95.407 185.045-34.12-183.944-5.826z"/><path fill="#00428c" fill-opacity=".463" d="M302.313 346.815l-9.106-30.922 47.852-20.752 23.834 59.605z"/><path fill="#2894dd" fill-opacity=".522" d="M520.042 292.63l73.774 120.595 12.475-65.069-101.268-11.704z"/><path fill="#7da5bf" fill-opacity=".533" d="M197.99 388.749l-26.245 52.78 6.071-59.434-19.207 204.227z"/><path fill="#526b00" fill-opacity=".384" d="M437.653 880.978l-86.646 28.689L258.51 713.84l-95.058 142.334z"/><path fill="#004cae" fill-opacity=".478" d="M448.92 410.221l6.094 10.708 17.281-2.52-14.947-21.412z"/><path fill="#4f92b7" fill-opacity=".918" d="M198.565 595.512l104.966 69.08-86.303-36.642 12.195 27.196z"/><path fill="#ecf28a" fill-opacity=".788" d="M288.976 393.735l-44.542-.546-8.145-14.736 64.864-2.97z"/><path fill="#285255" fill-opacity=".337" d="M585.282 782.247l-68.74-18.532 126.77 255.792 54.82-24.706z"/><path fill="#c8d43b" fill-opacity=".765" d="M609.254 656.567l-6.24 57.411-14.999 6.77-27.597-44.711z"/><path fill="#413e00" fill-opacity=".298" d="M414.113 589.258l156.12-44.146-273.516 35.206 31.906-74.459z"/><path fill="#374d32" fill-opacity=".992" d="M571.483 700.618l8.415 37.719 41.11-35.393-15.363 90.02z"/><path fill="#002c4b" fill-opacity=".553" d="M707.992 1086L422.884 924.96 566.27 814.173l-73.995 247.156z"/><path fill="#b8d338" fill-opacity=".588" d="M416.568 868.071L530.21 694.435l-133.416 64.84-29.797 127.548z"/></svg>