<svg xmlns="http://www.w3.org/2000/svg" width="228" height="278" viewBox="0 0 836 1024"><path fill="#5b6985" d="M0 0h836v1024H0z"/><path fill="#f9fdfa" fill-opacity=".933" d="M147.757 1086l580.276-26.637L625.6 940.255l-387.605 23.867z"/><path fill="#1d1a0c" fill-opacity=".651" d="M704.388 987.235l-36.477-774.082L838.438-62l44.1 1038.717z"/><path fill="#6fa0f0" fill-opacity=".882" d="M602.665 347.149L277.154 304.48l-84.956 65.604 402.89 419.031z"/><path fill="#084ee7" fill-opacity=".545" d="M261.943 546.975l389.864 121.22-175.69 280.129-216.543-4.869z"/><path fill="#639dfe" fill-opacity=".722" d="M154.156 409.571l75.266-77.679-86.768 498.707-179.288 19.429z"/><path fill="#7e5a2d" fill-opacity=".561" d="M898 354.39l-509.244-21.74L-62 60.326 376.227-62z"/><path fill="#000c1b" fill-opacity=".651" d="M-1.072 996.904l220.573-18.383-109.807-115.235-32.69-81.143z"/><path fill="#ffccc5" fill-opacity=".4" d="M616.81 947.009l-78.132-111.05 176.355-235.252 11.588 67.404z"/><path fill="#00207a" fill-opacity=".416" d="M206.697 427.436l186.73 25.465-54.127 299.05-222.766-63.327z"/><path fill="#fdc186" fill-opacity=".631" d="M60.17 643.878l5.166-207.421-114.318-23.416-5.222 265.695z"/><path fill="#f9c3a6" fill-opacity=".706" d="M268.18 898.99l-156.671-53.032 25.3-42.353 115.197-11.087z"/><path fill="#ffb788" fill-opacity=".4" d="M366.962 87.71l135.17 8.698 40.624 253.759-248.81-166.217z"/><path fill="#031f37" fill-opacity=".412" d="M207.995 338.1L104.412 492.301-24.563 355.26-35.836-62z"/><path fill="#f9f4ef" fill-opacity=".651" d="M543.581 584.78l11.747-92.8-175.887 5.018 9.734 84.96z"/><path fill="#182835" fill-opacity=".855" d="M837.222 954.707l-187.214 18.389-10.586-86.718L898 376.724z"/><path fill="#000d3d" fill-opacity=".529" d="M604.662 649.501l-22.425-114.963 71.752-88.14 154.65 81.132z"/><path fill="#293744" fill-opacity=".824" d="M519.459 98.5l-10.296 80.517 5.13 69.71L749.498-62z"/><path fill="#f9995c" fill-opacity=".251" d="M581.758 325.273l42.728-19.231L898 279.53 700.341 495.808z"/><path fill="#464c46" fill-opacity=".976" d="M140.584 681.705l33.523 109.6 47.057 10.795 17.105-256.037z"/><path fill="#efe4e5" fill-opacity=".847" d="M102.496 512.218l39.835-74.043 47.82-4.535-43.67 73.969z"/><path fill="#1f68ff" fill-opacity=".482" d="M602.365 315.154L708.38 809.99l-26.458-79.19-45.403 8.546z"/><path fill="#3970dd" fill-opacity=".78" d="M664.591 944.414l-147.428-111.39-152.357 133.529 176.605-34.51z"/><path fill="#8fbaf2" fill-opacity=".961" d="M528.544 456.428l-73.871-153.204 113.382 33.506 8.926 144.812z"/><path fill="#dde3d2" fill-opacity=".549" d="M233.286 847.428l-17.242 146.77L-62 1024.21l320.525 2.327z"/><path fill="#886f56" fill-opacity=".796" d="M585.678 250.73l33.211-175.783L780.414-53.065l-1.975 140.846z"/><path fill="#eee3db" fill-opacity=".624" d="M346.346 304l130.49 79.853-175.984-59.211 47.78-72.491z"/><path fill="#001a15" fill-opacity=".322" d="M654.582 140.35l-233.06-69.482-212.21 137.18L278.225-62z"/><path fill="#a8c9f5" fill-opacity=".682" d="M59.663 775.406L23.337 892.75-62 1057.638l24.69-427.076z"/><path fill="#00141e" fill-opacity=".439" d="M656.423 236.755L898 14.628 780.597 300.102l23.35 177.746z"/><path fill="#dc9a6b" fill-opacity=".361" d="M93.537 161.235L44.43 269.66l146.953-38.9 33.345-201.34z"/><path fill="#ebcaad" fill-opacity=".749" d="M670.313 824.336l24.096-52.6-27.813-43.811-99.093 43.911z"/><path fill="#3e7cec" fill-opacity=".741" d="M400.293 365.453l112.367 36.312-343.246 57.926 137.505-147.95z"/><path fill="#ffc9bf" fill-opacity=".341" d="M898 512.327V205.262l-98.513 88.872 13.78 150.531z"/><path fill="#363328" fill-opacity=".71" d="M298.718 249.209l161.283 46.92-42.1 54.807L238.298 99.42z"/><path fill="#434636" fill-opacity=".584" d="M267.437-62L-15.587 339.408-45.33 131.387-23.145 4.199z"/><path fill="#a08971" fill-opacity=".957" d="M682.137 993.32l8.558 92.68L898 1014.601l-131.091-25.37z"/><path fill="#ced7ea" fill-opacity=".498" d="M251.298 811.672L138.202 790.44l72.418 33.91 53.471-175.433z"/><path fill="#0037d1" fill-opacity=".298" d="M304.21 518.661l237.798-67.35-361.53-14.817-67.594 204.968z"/><path fill="#171701" fill-opacity=".376" d="M655.017 582.925l219.923 321.01L779.4 488.04l-137.995-59.243z"/><path fill="#271800" fill-opacity=".435" d="M538.144 177.48l-162.494-5.807 17.263-25.514 166.567 7.085z"/><path fill="#2364da" fill-opacity=".525" d="M654.62 609.584l-36.833-246.04-366.699 67.27 310.348-90.706z"/><path fill="#092166" fill-opacity=".878" d="M214.944 478.834l56.905-12.604 47.25 65.35-35.61 65.389z"/><path fill="#2e4644" fill-opacity=".533" d="M254.578 68.629l84.667 208.234-39.147 27.28-108.791 38.623z"/><path fill="#ffc8a8" fill-opacity=".624" d="M514.75 143.103l-20.726-40.21-98.75 12.291-24.477 24.528z"/><path fill="#fffffd" fill-opacity=".545" d="M532.85 452.338l65.273 24.26-40.709-69.908-54.671-28.527z"/><path fill="#c9d5e1" fill-opacity=".596" d="M553.992 621.077L445.18 598.263l-6.941 27.008 13.789 10.983z"/><path fill="#3d2549" fill-opacity=".494" d="M529.739 845.215l112.32-51.449-143.663 111.813 120.45-43.76z"/><path fill="#574f3a" fill-opacity=".686" d="M156.202 879.64l-20.767 120.311 77.524-.306.453-129.875z"/><path fill="#f1e9da" fill-opacity=".627" d="M450.177 373.643l49.689-66.96-110.419 56.978-75.006-68.89z"/><path fill="#b0d8ff" fill-opacity=".549" d="M476.368 971.66L643.5 899.87l14.1 115.58-49.153-114.767z"/><path fill="#949d9e" fill-opacity=".514" d="M223.178 699.417l29.036-149.983 31.383 70.743 9.174-27.318z"/><path fill="#96c1ff" fill-opacity=".255" d="M598.038 84.329l46.709-21.765L459.95-53.788 259.076-62z"/><path fill="#ffca90" fill-opacity=".224" d="M704.666 408.997l-130.31-221.012L710.015 57.12l-115.23 324.832z"/><path fill="#054093" fill-opacity=".404" d="M157.585 278.192l75.37 5.051-112.553 189.568-148.706-171.217z"/><path fill="#5396f6" fill-opacity=".694" d="M595.464 770.094l14.682-68.613-29.793-261.996-48.767 42.643z"/><path fill="#5e9bf6" fill-opacity=".89" d="M172.2 799.262L7.49 741.066l100.775-185.243 29.468 127.456z"/><path fill="#1c46b5" fill-opacity=".525" d="M150.05 933.106l-62.062-78.987L32.362 692.64l90.872 137.28z"/><path fill="#d8ffff" fill-opacity=".314" d="M338.656 397.033l59.592 52.554-85.594 31.641L371 371.282z"/><path fill="#171d10" fill-opacity=".392" d="M623.276 297.681L502.868 88.585l52.73 197.053 5.503 48.325z"/><path fill="#3770e0" fill-opacity=".718" d="M242.3 948.885l-17.884-21.888 64.024-62.678 147.1 54.49z"/><path fill="#cb9781" fill-opacity=".996" d="M276.638 862.717l3.646 8.712-137.272 8.798 44.75-73.45z"/><path fill="#f3bca0" fill-opacity=".686" d="M357.868 184.623l148.998-1.907-10.433 55.123 4.16-22.781z"/><path fill="#010a04" fill-opacity=".569" d="M137.761 965.106l-38.796 18.195-73.21-11.37 44.42-121.393z"/><path fill="#f2f7f6" fill-opacity=".722" d="M210.662 953.89l4.222-137.161L223.88 1086l311.272-110.011z"/><path fill="#231603" fill-opacity=".275" d="M516.213-62l233.136 195.721L694.593-62 898 46.763z"/><path fill="#0c1f5f" fill-opacity=".463" d="M522.63 603.986l-157.354 106.05-105.768 57.015 8.32-22.379z"/><path fill="#a87b60" fill-opacity=".812" d="M342.48 87.17l-9.733 178.904 120.002 96.28-104.497-47.204z"/><path fill="#a98273" fill-opacity=".494" d="M56.783 647.947l-6.243-89.219L-62 369.368l160.86 74.306z"/><path fill="#ffba8f" fill-opacity=".51" d="M533.855 828.974l132.099-20.842-126.272 70.364 147.906-134.754z"/><path fill="#00208d" fill-opacity=".486" d="M644.178 556.036L628.53 744.63l-36.37-145.699 16.033-169.547z"/><path fill="#2044a0" fill-opacity=".651" d="M243.215 914.094l229.163-86.706 159.328-61.17L489.643 855.2z"/><path fill="#09268d" fill-opacity=".435" d="M387.807 390.117l123.614 5.777-81.312-21.47-99.962-37.086z"/><path fill="#bab781" fill-opacity=".369" d="M3.01 979.327l225.578 18.195L79.887 1086-43.54 932.166z"/><path fill="#437fe6" fill-opacity=".404" d="M668.202 652.69L323.69 608.051l198.27 169.026 176.168-71.226z"/><path fill="#65aeff" fill-opacity=".576" d="M144.696 430.068l50.816-66.908 60.924-47.802 132.109 87.521z"/><path fill="#3d75e4" fill-opacity=".651" d="M82.994 513.648l30.547 131.893 89.591-70.583 1.958-59.224z"/><path fill="#672c00" fill-opacity=".29" d="M364.443 289.112l97.297-89.378 11.237 120.98-40.984 36.733z"/><path fill="#454b4c" fill-opacity=".471" d="M793.978 818.743l28.416 175.694-87.98 9.727-81.315-22.767z"/><path fill="#163d9d" fill-opacity=".651" d="M375.91 595.036l-99.51 13.949 43.967-133.135 68.961 54.944z"/><path fill="#417fee" fill-opacity=".757" d="M636.154 925.657l-1.293-26.263-275.91 19.59 76.916 30.982z"/><path fill="#f4e6da" fill-opacity=".78" d="M138.355 836.704l98.632-42.077-38.55 4.283-63.416 2.953z"/><path fill="#fed9aa" fill-opacity=".525" d="M29.637 511.07l22.165 91.508-25.981 28.756L-62 530.374z"/><path fill="#6c4e39" fill-opacity=".463" d="M734.262 520.78l26.026-211.946-78.23-42.423-43.288 184.177z"/><path fill="#e89b5e" fill-opacity=".459" d="M662.986 805.594l24.778-5.828-64.919 93.92-58.772 11.661z"/><path fill="#ad846f" fill-opacity=".247" d="M73.7 169.017l63.147 108.875L286.082 18.25 88.922 87.895z"/><path fill="#001521" fill-opacity=".278" d="M603.897 83.754l-84.91 60.304L898 209.826l-178.957 89.737z"/><path fill="#3e3d31" fill-opacity=".522" d="M342.49 87.52l184.644-6.107-45.315-39.464-450.107-69.15z"/><path fill="#2778f8" fill-opacity=".388" d="M341.89 497.995L496.728 332.48l18.096 115.413 39.991 25.01z"/><path fill="#fdf5e6" fill-opacity=".396" d="M241.284 807.855l-28.413-16.812 38.117 72.929 4.992-237.419z"/><path fill="#204eb5" fill-opacity=".867" d="M559.957 850.701l-99.33-74.972-198.572-11.05-13.902 61.932z"/><path fill="#78acff" fill-opacity=".431" d="M688.606 783.53l1.735-112.58-47.52-105.142.236 98.736z"/><path fill="#708373" fill-opacity=".533" d="M207.18 947.462l263.643.53-92.454 16.58-77.069.444z"/><path fill="#162257" fill-opacity=".263" d="M178.527 953.69l75.783-107.07-73.729 38.584L-62 779.192z"/><path fill="#00112f" fill-opacity=".302" d="M75.708 409.143L31.103 419.89-62 363.21l19.587-342.45z"/><path fill="#9b6d49" fill-opacity=".31" d="M720.12 566.657l17.262 123.594-23.836 25.912-60.778-119.279z"/><path fill="#0047d2" fill-opacity=".192" d="M563.255 150.56l-37.712 15.868 7.152-200.956 97.42 41.42z"/><path fill="#bbeef6" fill-opacity=".431" d="M276.453 308.314L130.865 459.252l75.695-110.865 1.48 6.652z"/><path fill="#1c1f2b" fill-opacity=".294" d="M33.855 533.974l159.193 42.05-123.716-17.058 26.18-44.307z"/><path fill="#3c6bcc" fill-opacity=".996" d="M458.783 580.975l-19.718-5.171L312.27 655.04l14.715 7.308z"/><path fill="#57a7ff" fill-opacity=".494" d="M614.244 362.031l-15.226 159.527-42.305-120.853-99.48-104.962z"/><path fill="#be9a66" fill-opacity=".329" d="M307.049 59.147L449.442-48.525l72.543 99.657-87.94-40.415z"/><path fill="#081f6b" fill-opacity=".463" d="M439.32 640.812l100.899-9.727-91.762 20.681-78.622 40.48z"/><path fill="#fff" fill-opacity=".51" d="M647.358 949.298L678.214 1086l-76.849-10.231-98.896-141.622z"/><path fill="#e0a57a" fill-opacity=".255" d="M575.738 254.261l-38.303 37.933L297.56 82.497l28.194 97.019z"/><path fill="#ffbf91" fill-opacity=".2" d="M666.916 466.052L585.18 345.188l100.076-49.549-30.206-19.402z"/><path fill="#4c575c" fill-opacity=".592" d="M675.306 195.979l34.746-83.473 73.86-103.161 9.783 89.173z"/><path fill="#380000" fill-opacity=".196" d="M553.483 901.32l102.556-78.007-136.746 30.783 123.127-70.663z"/><path fill="#06041a" fill-opacity=".255" d="M296.693 659.634l-129.237-53.798 38.52 68.746 133.049-98.069z"/><path fill="#fdeed9" fill-opacity=".463" d="M672.8 772.475l-90.702-6.998 20.582-20.798 84.936.614z"/><path fill="#fefcf3" fill-opacity=".557" d="M536.75 484.561l-91.829 62.327-41.491 40.162 11.253 8.556z"/><path fill="#e6f2fb" fill-opacity=".608" d="M304.49 302.73l68.87 44.741-37.95-55.56-5.669-9.972z"/><path fill="#fafde0" fill-opacity=".298" d="M246.55 558.534l6.964-11.352 20.362 59.534.18 24.386z"/><path fill="#1d4e31" fill-opacity=".196" d="M552.694 1004.957L433.775 1086l-10.605-73.827 59.27 11.918z"/><path fill="#e7f3f4" fill-opacity=".671" d="M319.475 321.72l142.475 33.874-15.307 15.955-24.58-4.01z"/><path fill="#3f68c2" d="M422.58 562.643L408.3 547.18l10.543 343.328-9.042-312.6z"/><path fill="#0e0d00" fill-opacity=".38" d="M826.634 118.413L824.54-62l-63.81 88.212 15.296 3.326z"/><path fill="#1a2c5f" fill-opacity=".98" d="M237.272 541.73l45.556 115.347-55.147-113.852 50.793-61.497z"/><path fill="#3453a8" fill-opacity=".675" d="M650.44 697.134l-70.538 55.695 66.241-17.062 5.435-11.475z"/><path fill="#dba385" fill-opacity=".651" d="M459.282 199.107l-138.116-55.773 104.276 82.398 51.202-106.423z"/><path fill="#021d83" fill-opacity=".361" d="M493.837 460.801l-132.692.508 125.912-18.215 58.988 14.596z"/></svg>