<svg xmlns="http://www.w3.org/2000/svg" width="228" height="278" viewBox="0 0 836 1024"><path fill="#6c635e" d="M0 0h836v1024H0z"/><g fill-opacity=".502"><path fill="#fff" d="M758 370l-576-56 140 772z"/><path d="M-6 434L898 22-2-62z"/><path d="M898-30L494-62l376 840z"/><path fill="#fff" d="M586 1086l-432-88 156-440z"/><path d="M858 1086l-332-4 112-592z"/><path fill="#f5ffff" d="M734 446L190 338 50 534z"/><path d="M214 1086l-276-80V454zM94 594l152-124 16 244z"/><path fill="#f8a872" d="M406 54l-44 324L566 74z"/><path d="M-62 246l584 60L74-62zM834-62l64 588-360-280z"/><path fill="#e3eaf3" d="M246 562l364-276 152 268z"/><path fill="#e4eff7" d="M622 542l-56 268-460 276z"/><path fill="#fbaf75" d="M58 806l172 16L34 534z"/><path fill="#150100" d="M534 1086l60-412 304 152z"/><path fill="#fff" d="M342 366l76-100-200 68z"/><path d="M-62 702V418l188-16z"/><path fill="#af2931" d="M554 654l-28-92-220 60z"/><path d="M246 318L-62 14l472-76z"/><path fill="#975d35" d="M346 162l248-52-136 300z"/><path fill="#ecf6ff" d="M246 1086l244-28-248-336z"/><path fill="#787881" d="M206 338L94 250 22 422z"/><path d="M538 274l20-112 272 248z"/><path fill="#e7e8ed" d="M522 278l184 92 32 200z"/><path fill="#315320" d="M430 902l44 64 96-144z"/><path fill="#ecfdfc" d="M530 1086l-56-116 76-80z"/><path fill="#d77f45" d="M746 506l76 276-116-56z"/><path fill="#3f412d" d="M694 462l-76 152 12-136z"/><path fill="#000019" d="M206 938l68 148h-48z"/><path fill="#f4faff" d="M82 498l72 56 64-220z"/><path fill="#090606" d="M898 474l-140 84-128-412z"/><path fill="#9c0000" d="M370 542l-44 92 76-16z"/><path fill="#d1d5db" d="M258 602l124 416 216-336z"/><path fill="#080100" d="M110 610l140-120v156z"/><path d="M586 774l-40 204 340 108z"/><path fill="#6e4848" d="M686 754l212 232-276-156z"/><path fill="#1d1b12" d="M178 1030l-240-20 208-200z"/><path fill="#dbe4ec" d="M462 646l100-256-132-20z"/><path fill="#e4e9ef" d="M178 898l144-280-4 468z"/><path fill="#5d2e10" d="M402 354l100 16 16-168z"/></g></svg>