<svg xmlns="http://www.w3.org/2000/svg" width="228" height="278" viewBox="0 0 836 1024"><path fill="#4e5992" d="M0 0h836v1024H0z"/><path fill="#0f021e" fill-opacity=".702" d="M434.123 1086l-206.286-65.472L112.38 425.12l411.794 122.34z"/><path fill="#779cef" fill-opacity=".918" d="M523.096 1086h366.418l-26.758-459.51-241.3-51.352z"/><path fill="#cb9753" fill-opacity=".635" d="M355.586-62l-58.492 358.89 124.984 53.288 66.316-257.526z"/><path fill="#2f74f1" fill-opacity=".627" d="M792.991 516.492L878.462-62 523.14-12.464l-43.351 282.828z"/><path fill="#bca1a2" fill-opacity=".718" d="M30.522 1086L-62 856.502l144.81-79.438 152.33 160.307z"/><path fill="#28060c" fill-opacity=".725" d="M819.146 591.618L565.728 378.217l-2.37 102.627 129.234 110.424z"/><path fill="#2a6fef" fill-opacity=".639" d="M261.898 246.662l26.539-297.768L147.84-62 53.138 504.21z"/><path fill="#5d4252" fill-opacity=".996" d="M-13.912 492.36l193.17 40.522 13.839 177.076L70.4 703.522z"/><path fill="#94544c" fill-opacity=".992" d="M64.345 954.45l98.444-63.964 58.389 135.714-105.506 59.8z"/><path fill="#7facff" fill-opacity=".796" d="M53.037 873.575L91.542 1086l-114.602-42.173L-1.202 680.02z"/><path fill="#3f5890" fill-opacity=".8" d="M708.613 1086l56.262-245.51 23.143-35.028 24.213-418.711z"/><path fill="#f99c44" fill-opacity=".455" d="M602.71 494.347l75.877-74.079L815.48 588.283 898 476.875z"/><path fill="#081553" fill-opacity=".525" d="M675.2-9.823l-50.918 385.76 46.105-102.28 44.155-245.029z"/><path fill="#60615b" fill-opacity=".831" d="M-62 14.298l81.125 695.266 35.914-377.24L139.418-62z"/><path fill="#ffc6ee" fill-opacity=".216" d="M489.306 493.164L359.37 103.752l95.854 17.509 179.165 154.082z"/><path fill="#412d7d" fill-opacity=".584" d="M95.629 399.719l352.304 207.316 42.43-282.027-213.082-1.74z"/><path fill="#5b4938" fill-opacity=".961" d="M500.27 103.523L303.347 44.101l-7.193 140.342 46.607-75.82z"/><path fill-opacity=".412" d="M457.827 717.795L223.156 791.93l-89.763-421.268 95.53 71.312z"/><path fill="#4680fa" fill-opacity=".694" d="M594.649 505.198l-49.173-15.318-10.874 274.31 18.221 50.932z"/><path fill="#ff4c27" fill-opacity=".675" d="M204.136 541.389L83.45 547.514 52.444 583.45l112.523-3.767z"/><path fill="#9ebefd" fill-opacity=".353" d="M144.72 857.033L91.918 794.92l79.95-194.781 26.242 73.99z"/><path fill="#2d2366" fill-opacity=".655" d="M471.886 1085.746l78.92-593.487-89.933-7.18-108.207 449.447z"/><path fill="#6e95ff" fill-opacity=".431" d="M810.193 501.509l-50.987-290.012-144.84 151.177 141.162 163.481z"/><path fill="#020542" fill-opacity=".541" d="M199.458 530.292l-3.256 52.496-148.386 10.78 60.16 146.542z"/><path fill="#a8ceff" fill-opacity=".824" d="M794.562 786.472L898 887.065l-179.013 124.936L898 1086z"/><path fill="#e5f9fe" fill-opacity=".486" d="M117.98 444.343l-2.309 69.445L84.893 531.5l7.954-81.072z"/><path fill="#fedfbc" fill-opacity=".537" d="M460.495 422.24l63.235-6.624-4.986 86.31-67.633-89.38z"/><path fill="#171431" fill-opacity=".718" d="M287.848 999.239L166.993 861.501l-9.288-117.58L465.888 1086z"/><path fill="#f9fdea" fill-opacity=".424" d="M265.614 488.067l9.149-39.385 39.094 14.594 22.165 22.107z"/><path fill="#c8edff" fill-opacity=".31" d="M583.345 865.597l-38.284-7.797 72.193-103.542 276.634 124.464z"/><path fill="#416108" fill-opacity=".498" d="M820.83 589.412L898 511.029l-139.219 11.923 37.157 135.89z"/><path fill="#0234a8" fill-opacity=".38" d="M732.334 988.14l85.873-84.373L586.31 939.8l93.876-69.637z"/><path fill="#031e6f" fill-opacity=".475" d="M488.902 34.281L458.967 296.37l68.12-232.661L898 36.92z"/><path fill="#553400" fill-opacity=".294" d="M273.333 319.57l102.335-170.1 20.805 120.676-5.689 130.956z"/><path fill="#f59d8d" fill-opacity=".537" d="M44.479 998.32l56.128-165.88 119.412 221.907L106.104 919.87z"/><path fill="#04243a" fill-opacity=".592" d="M112.445 944.922l16.819-57.396 6.823 102.075-74.143 10.05z"/><path fill="#190957" fill-opacity=".314" d="M505.81 541.629l36.66-182.208 313.637 39.485-213.209 14.515z"/><path fill="#115ad6" fill-opacity=".569" d="M545.799 166.232L860.03 74.227l-51.682 419.071 6.07-246.363z"/><path fill="#ffd8aa" fill-opacity=".384" d="M475.113 81.634L314.4 172.28l170.008-10.724-62.093 137.19z"/><path fill="#060c1d" fill-opacity=".278" d="M77.713 169.88L45.91 17.355 510.613 105.6 184.414 25.093z"/><path fill="#5a8dff" fill-opacity=".392" d="M247.57 365.279L11.452 384.084 142.655 244.66l10.162-8.117z"/><path fill="#8ab6ff" fill-opacity=".529" d="M523.082 725.929L695.279 580.16l113.723 137.523 58.65-62.058z"/><path fill="#2b2556" fill-opacity=".973" d="M186.09 964.758l379.707-141.403-319.69 174.712-.393 87.933z"/><path fill="#cfcd95" fill-opacity=".361" d="M35.192 650.163L-62 685.882 74.885 538.106l1.965 28.718z"/><path fill="#00021e" fill-opacity=".525" d="M800.548 609.347l-34.956-92.04-186.89-10.109L699.557 578.2z"/><path fill="#02062f" fill-opacity=".392" d="M241.93 529.295L26.73 513.1l13.74-119.863L84.644 552.48z"/><path fill="#8e64be" fill-opacity=".576" d="M592.988 883.49l8.855 202.51L501.58 963.572l53.847-97.613z"/><path fill="#ff4d31" fill-opacity=".518" d="M699.612 435.321l-26.136 67.358-74.38-29.406-49.062 15.85z"/><path fill="#364719" fill-opacity=".455" d="M94.9 818.588l-39.895 27.367-1.553 33.89 77.75-50.03z"/><path fill="#9b908c" fill-opacity=".812" d="M287.886 31.235l114.687-44.013 63.793 51.989 17.033 33.56z"/><path fill="#ffed9c" fill-opacity=".604" d="M224.111 947.572l-68.945-16.516 59.91-19.394-82.326-54.854z"/><path fill="#1f40a7" fill-opacity=".404" d="M757.97 764.507l-306.367-25.283L898 739.63l-132.11 44.123z"/><path fill="#c99d7e" fill-opacity=".573" d="M294.209 199.462l164.015 7.663-19.137 118.065-160.92-200.793z"/><path fill="#ff1f18" fill-opacity=".525" d="M166.97 983.745L268.866 1086l-180.154-71.297 59.037-31.918z"/><path fill="#427ff1" fill-opacity=".373" d="M271.668 281.463L24.478 161.566l166.804-48.357L33.3 403.096z"/><path fill="#033fba" fill-opacity=".482" d="M665.375 22.524L246.953-2.493 898-5.135v92.803z"/><path fill="#0d1e62" fill-opacity=".349" d="M462.136 269.48l46.288-36.723 351.973-12.39-408.627-9.49z"/><path fill="#402a03" fill-opacity=".514" d="M421.806 201.034l31.029-17.888-128.581-6.96 30.932 19.262z"/><path fill="#021c85" fill-opacity=".306" d="M236.878 235.92L-62 240.734l360.486-51.784-9.28 173.322z"/><path fill="#eee0a3" fill-opacity=".631" d="M775.478 525.247l24.631-37.198 15.968-1.975L898 483.952z"/><path fill="#2064e2" fill-opacity=".506" d="M541.813 490.293l87.723 161.415 12.244-54.092 41.087-21.272z"/><path fill="#6459b9" fill-opacity=".733" d="M-24.797 672.877l59.15 143.619 18.729-13.137 101.583-56.26z"/><path fill="#091836" fill-opacity=".451" d="M60.2 302.862l30.893 3.74 7.084-90.981-26.013-19.107z"/><path fill="#d7f0ff" fill-opacity=".31" d="M690.254 1086l190.88-97.043L404.019 1086l248.234-120.975z"/><path fill="#57449f" fill-opacity=".58" d="M444.292 299.128l-24.015 111.077 166.153-7.57 61.923-46.465z"/><path fill="#ffefcf" fill-opacity=".506" d="M120.504 817.162L-24.343 831.13-62 910.004 81.518 792.299z"/><path fill="#381f8a" fill-opacity=".471" d="M709.065 469.306l72.979 31.64-12.14 57.03L662.63 490.28z"/><path fill="#6997f7" fill-opacity=".718" d="M149.604 885.529l-6.794-194.724-16.686 141.233 49.024-6.13z"/><path fill="#e8ceff" fill-opacity=".133" d="M625.42 337.84l161.99 224.076L498.08 261.09l129-88.216z"/><path fill="#011962" fill-opacity=".431" d="M803.862 482.12L898 445.084l-72.474-248.065 2.164 170.554z"/><path fill="#8c7740" fill-opacity=".694" d="M405.542 347.44l-72.404-5.038-30.52-45.04L428.98 324.83z"/><path fill="#080515" fill-opacity=".51" d="M692.152 126.09l-18.865 6.35-4.234-62.797 29.448-28.458z"/><path fill="#12215e" fill-opacity=".514" d="M765.249 763.124l-24.116 97.81 52.184-81.074-11.26-21.575z"/><path fill="#316fff" fill-opacity=".271" d="M668.992 619.884l214.795-45.169L741.855 741.9l139.205-1.266z"/><path fill="#3e75db" fill-opacity=".714" d="M531.06 50.786l-70.542 166.301 108.095-42.678 95.589-107.454z"/><path fill="#141748" fill-opacity=".431" d="M815.76 626.348l-14.026 30.3-30.68-.748 18.926-77.98z"/><path fill="#8aaf1b" fill-opacity=".478" d="M814.115 594.508l58.361-41.351L898 373.839 778.417 573.488z"/><path fill="#487aed" fill-opacity=".51" d="M675.08 875.65l-147.321 7.68 177.748 57.248L898 880.94z"/><path fill="#304280" fill-opacity=".816" d="M761.339 954.759l-11.026-45.744L729 978.365l24.02-2.052z"/><path fill="#050135" fill-opacity=".447" d="M320.324 333.432l-35.439-71.352 18.157 105.517 101.393-8.82z"/><path fill="#072c82" fill-opacity=".416" d="M614.657 567.623l11.05 8.099-62.242 166.51 13.857-159.11z"/><path fill="#ffa991" fill-opacity=".424" d="M85.02 861.587l47.91-16.346 43.823 47.294-124.39 73.413z"/><path fill="#e6a12d" fill-opacity=".29" d="M120.225 93.352L-37.23 75.586l64.754 132.028L-62 130.568z"/><path fill="#3b347c" fill-opacity=".835" d="M332.929 929.943l282.384-38.926-290.456 70.839 283.85-168.904z"/><path fill="#96b7f9" fill-opacity=".992" d="M60.4 963.427L-62 923.443l31.878 145.307 137.157-7.537z"/><path fill="#7fa8ff" fill-opacity=".569" d="M657.528 305.477l116.444 4.095-27.222 39.6-95.932 2.024z"/><path fill="#0b0b1c" fill-opacity=".447" d="M491.87 687.111L202.602 495.017l-15.208 294.746 234.93-23.044z"/><path fill="#001132" fill-opacity=".259" d="M272.652 75.912L323.5-62l-71.116 254.826L374.817 33.739z"/><path fill="#2e2470" fill-opacity=".6" d="M274.17 450.813l-125.657-88.216-38.351 58.638 64.83 50.481z"/><path fill="#010317" fill-opacity=".4" d="M514.362 42.109l-33.896 109.973-2.928-104.875 92.365-4.325z"/><path fill="#03080b" fill-opacity=".337" d="M421.56 950.35l-131.32 22.581-133.88-27.697L390.106 1086z"/><path fill="#759bfe" fill-opacity=".518" d="M738.692 485.464l65.15 11.318-24.86-86.257-127.331-6.842z"/><path fill="#c0bdcb" fill-opacity=".557" d="M271.614 475.175l65.652-35.155-6.897.319-5.648 37.992z"/><path fill="#272262" fill-opacity=".659" d="M59.976 602.806l-31.882 80.553 64.552 26.103 27.597-126.508z"/><path fill="#98bcff" fill-opacity=".569" d="M574.025 889.79l31.011-129.825 136.019-6.853-42.845 108.934z"/><path fill="#4184f4" fill-opacity=".561" d="M792.197 176.21l-19.87-38.967-83.319-13.335L666.5 175.15z"/><path fill="#1d1747" fill-opacity=".408" d="M600.445 374.091L377.766 751.258l5.857-221.77 284.677-80.68z"/><path fill="#0526af" fill-opacity=".267" d="M64.979 879.978l-115.3 74.672 125.534-32.385-99.955-41.309z"/><path fill="#948172" fill-opacity=".973" d="M51.362 367.187l-97.015 18.897 10.798-40.491 64.673-2.676z"/><path fill="#1e193e" fill-opacity=".961" d="M427.25 885.585l-202.283 31.004L193.395 1086l82.263-141.082z"/><path fill="#a9c9ff" fill-opacity=".573" d="M687.136 701.948l32.169-48.326-107.75-4.114-27.283 38.704z"/><path fill="#2f7ff8" fill-opacity=".463" d="M663.331 234.415L898 398.883l-152.714-17.439 90.583-138.968z"/><path fill="#4f84f2" fill-opacity=".659" d="M559.714 468.473l-26.193 242.435 109.264-10.688-79.727 49.999z"/><path fill="#fff85e" fill-opacity=".376" d="M205.93 960.64l-15.495-5.726-33.357-39.607 65.743-1.824z"/><path fill="#f6d9b6" fill-opacity=".388" d="M532.59 475.269l-46.028 5.421-4.978-76.118 20.258-7.357z"/><path fill="#04040a" fill-opacity=".651" d="M703.691 585.692l40.14 10.824-56.234-101.087-101.271 1.115z"/><path fill="#0646c8" fill-opacity=".627" d="M494.197 27.904L472.812 2.076 319.843-62l158.42 106.175z"/><path fill="#ff9fa3" fill-opacity=".435" d="M221.453 1007.228l-74.929-20.576-21.968-55.115 17.964 13.058z"/><path fill="#030e1f" fill-opacity=".333" d="M137.639 121.844L102.836 11.13 87.813 156.94l-69.528-28.153z"/><path fill="#f8dbb8" fill-opacity=".365" d="M447.974 255.139l30.212-105.98-20.887-43.402-29.616 11.189z"/><path fill="#00000a" fill-opacity=".271" d="M686.107 295.277L643.91 310.52l-9.879-36.687 4.556-53.92z"/><path fill="#aa895a" fill-opacity=".361" d="M190.038 735.965l-60.17-38.702 29.691-23.436 43.193-4.574z"/><path fill="#443a8f" fill-opacity=".608" d="M351.657 430.101l109.786-145.205-30.38 273.155-118.723-38.977z"/><path fill="#3168d6" fill-opacity=".667" d="M53.626 495.449l44.08 3.44L69.74 304.966l-7.595 51.82z"/><path fill="#6548ae" fill-opacity=".439" d="M135.702 367.577l153.347 54.733-18.006-127.086 47.903-63.127z"/><path fill="#536351" fill-opacity=".467" d="M106.774 877.814l57.257 47.775 79.26 115.58-119.367-123.173z"/><path fill="#3a3283" fill-opacity=".439" d="M583.937 826.901l-73.523-137.415L403.64 865.538l196.295-127.237z"/><path fill="#a20c00" fill-opacity=".514" d="M643.777 462.812l8.74 42.347-46.132-10.263-28.27-23.23z"/><path fill="#fffdec" fill-opacity=".369" d="M98.292 525.74l33.263-51.139-8.988-2.097-15.128-20.887z"/><path fill="#886bfd" fill-opacity=".133" d="M497.155 680.191l-49.293-5.895 111.5-141.457 2.006 319.62z"/></svg>