<svg xmlns="http://www.w3.org/2000/svg" width="228" height="278" viewBox="0 0 836 1024"><path fill="#64697c" d="M0 0h836v1024H0z"/><g fill-opacity=".502"><path fill="#cfbfd9" d="M590 110l188 976L898-58z"/><path fill="#0b1623" d="M726 406L-62 230l268 448z"/><path fill="#003bbb" d="M282 490l288 480-464 116z"/><path fill="#e6be94" d="M166 654L26 1086l-88-752z"/><path fill="#e7a649" d="M870 1086l-348-36 164-408z"/><path d="M646 406L546 598l128 144z"/><path fill="#150000" d="M410 142l284-80L474-54z"/><path fill="#c6ffff" d="M462 666l-64-128 164 16z"/><path fill="#183764" d="M746 874l-248 84-304-512z"/><path fill="#a2a1a2" d="M6 562l412-344 16-280z"/><path fill="#000004" d="M50 594l296-64 48-280z"/><path fill="#b97256" d="M898 254L426 378 526 66z"/><path fill="#7a9eff" d="M642 818l-96-260-60 288z"/><path d="M550 418l32-108-136-108z"/><path fill="#1f6df4" d="M258 994l-76-360 408 452z"/><path fill="#002bb8" d="M714 698l56 128 128-128z"/><path fill="#afccfa" d="M658 458l220-40-24 348z"/><path fill="#ffaa9d" d="M234 410l-100 68 36-108z"/><path fill="#000d26" d="M158 874l-28 212 184-60z"/><path fill="#002c58" d="M94-38L-62 122l292-24z"/><path fill="#ffde3e" d="M782 1078L634 894l-108 124z"/><path fill="#134cc9" d="M626 366l40 80 232-48z"/><path fill="#f8fbff" d="M406 490l-16-44 76 12z"/><path fill="#edb09f" d="M634 734l188 260-140-368z"/><path fill="#ceedff" d="M390 634l28-100 108 76z"/><path fill="#000923" d="M198 350l168-76-132 136z"/><path fill="#000006" d="M642 394l-76 216 116 36z"/><path fill="#c1c6da" d="M662 394l-104-76 340-40z"/><path fill="#0e0d11" d="M646 786l92 204 4-88z"/><path fill="#ffc29e" d="M-62 706l84 252 32-440z"/><path fill="#b9a693" d="M798 258L630 2l268-12z"/><path fill="#898b83" d="M-2 958l160-436-16 564z"/><path fill="#c2f5ff" d="M546 478l32 36v-80z"/><path fill="#0f43be" d="M666 546l156 8-108 60z"/><path fill="#4f4d42" d="M-58 162l296 96L46 542z"/><path fill="#002046" d="M178 910l76-316-88-80z"/><path fill="#93999c" d="M466 302L410 70 70 178z"/><path fill="#bcaba0" d="M542 230L518 66l380 140z"/><path fill="#bdcfea" d="M478 738l88-128 44 88z"/><path fill="#d0bab3" d="M730 1050l108-260v252z"/></g></svg>