<svg xmlns="http://www.w3.org/2000/svg" width="228" height="278" viewBox="0 0 836 1024"><path fill="#543533" d="M0 0h836v1024H0z"/><g fill-opacity=".502"><path fill="#fff" d="M-62 990l776 96-220-196z"/><path fill="#eeaaa4" d="M454 118L78 442l672 40z"/><path d="M-62-14l952 464L858 2z"/><path fill="#bf1a1d" d="M46 962L530-14l-36 908z"/><path d="M-38-2l496-60-520 720z"/><path fill="#f3ffff" d="M78 898l536 80-576 108z"/><path d="M582 398l316 476-436 32z"/><path fill="#e8f2e1" d="M50 510l28 128 292-332z"/><path fill="#fff7f1" d="M626 314l208 296-384-320z"/><path fill="#dcaa8e" d="M238 742l-100 88-72-388z"/><path fill="#cfcea7" d="M502 326l-80-196 132 12z"/><path d="M550 222L806-62l92 716zM-50 346l60 740 116-328z"/><path fill="#edffff" d="M178 338l132-68v160z"/><path d="M22-62l-84 520 424-228z"/><path fill="#420000" d="M146 542l168 388 16-536z"/><path fill="#f6f9ff" d="M718 1086L170 962l300-64z"/><path fill="#b22229" d="M334 278l272 84-180 540z"/><path fill="#a2b1b3" d="M510 622l-188-16 140-80z"/><path fill="#ffc591" d="M830 570l36 164-148-272z"/><path fill="#000807" d="M734 482L418-46l480 68z"/><path fill="#850000" d="M454 598L310 938l-196-32z"/><path fill="#070f10" d="M662 1086L482 714l416-60z"/><path fill="#eff" d="M486 270l164 72 44 132z"/><path fill="#6a6544" d="M506 382L418 78l-76 280z"/><path fill="#d0ffff" d="M82 894l140 40-172 44z"/><path fill="#756a53" d="M102 422l128-56L94 658z"/><path fill="#e0f6ff" d="M202 330l84 116 64-132z"/><path fill="#200" d="M186 502l120-72 124 152z"/><path fill="#820002" d="M594 418l-260-56 240-16z"/><path fill="#ffcec9" d="M558 486v-96l-48 16z"/><path fill="#d8dbd4" d="M114 418L42 550l36 60z"/><path fill="#ce040e" d="M478 890l-188 40 184-280z"/><path fill="#010705" d="M262-26L-62 150l408 136z"/><path fill="#a2000a" d="M570 498l-64 80-172-280z"/><path fill="#0a0d13" d="M526 538l372 192-428 144z"/><path fill="#ccfeff" d="M350 554l-28 4-12 52z"/><path fill="#000001" d="M506 286l40-60 128 84z"/><path fill="#dbe8ed" d="M490 278l-24 92 60-80z"/><path fill="#000204" d="M42 526l-104-16 260-244z"/></g></svg>