<svg xmlns="http://www.w3.org/2000/svg" width="228" height="278" viewBox="0 0 836 1024"><path fill="#2f2928" d="M0 0h836v1024H0z"/><g fill-opacity=".502"><path fill="#c19d82" d="M818 530l56 464-168-76z"/><path fill="#9c7c5b" d="M574 74L322 322 266 22z"/><path fill="#a5bdbe" d="M438 646l120-68-324 16z"/><path fill="#ad7e55" d="M62 722l224 176 48-120z"/><path fill="#000d17" d="M478 886l284-284-640 44z"/><path fill="#c9cbc3" d="M750 518l104 84-112-168z"/><path fill="#0c0c12" d="M642 786L454 214 894-62z"/><path fill="#031119" d="M370 310L-14 138l196 604z"/><path fill="#00050d" d="M-14 1086l-16-304 516 168z"/><path fill="#fff" d="M474 494l20-44 8 44z"/><path fill="#9bb3ba" d="M326 470l-72 48 100 16z"/><path fill="#e6ffff" d="M602 1086l16-152 16 96z"/><path fill="#c6cac5" d="M826 662l-52 132 28 108z"/><path fill="#572010" d="M806 554l-16 296-228-92z"/><path d="M874 818l-64 20 24-220z"/><path fill="#612b2d" d="M30-62l-92 228L618 18z"/><path fill="#a3733e" d="M66 554l-8 196 72-160z"/><path fill="#713f42" d="M790 506l-24-184-132 24z"/><path fill="#97b0b1" d="M258 562l4 68 96-60z"/><path fill="#97815f" d="M458 234l48-108-236 52z"/><path fill="#06212b" d="M614 1050l-20-432-424 356z"/><path fill="#201014" d="M774-62L446 98l452 384z"/><path fill="#fff" d="M466 926l32-12-32-12z"/><path fill="#01222e" d="M338 586l356-312-344 124z"/><path fill="#627576" d="M566 450l-120-28 16 164z"/><path fill="#936525" d="M418 378l36-104-116 76z"/><path fill="#0e161b" d="M526 730l240-36-224-516z"/><path fill="#514449" d="M898 902v184L674 930z"/><path fill="#e9f9ff" d="M798 838l32 48-16 28z"/><path fill="#691f25" d="M-62 326l216 4-208 236z"/><path fill="#00070b" d="M322 750l-120 16-68-320z"/><path fill="#b9c7c4" d="M766 486l60 76 4 88z"/><path fill="#61461f" d="M786 762l-60-300 92 136z"/><path fill="#fff" d="M470 502l44-32h-28z"/><path fill="#959f9f" d="M442 590l108-4-64 56z"/><path fill="#aa855b" d="M802 714l-80 144 32 120z"/><path fill="#2c1012" d="M62 414L-62 138l372-4z"/><path fill="#501516" d="M650 310l248 340V382z"/><path fill="#102d38" d="M90 450l228 64-124-236z"/><path fill="#99795f" d="M186 826l76 60 28-124z"/></g></svg>