<svg xmlns="http://www.w3.org/2000/svg" width="228" height="278" viewBox="0 0 836 1024"><path fill="#584249" d="M0 0h836v1024H0z"/><g fill-opacity=".502"><path fill="#bc9f9c" d="M510 1066l136-608 160 84z"/><path fill="#00121c" d="M650-62l248 556-444-220z"/><path fill="#d4c4ae" d="M474 142L246 278l-8-196z"/><path fill="#210000" d="M662 614L546 846 438 366z"/><path fill="#bbb1aa" d="M594 878l-52 208-144-524z"/><path fill="#ffa562" d="M-22 798l-40 192 188 96z"/><path fill="#9c7c7b" d="M-62 482l240 72 124 532z"/><path fill="#071a1c" d="M634 54l-684 84 12-180z"/><path fill="#fff" d="M450 1086H210l64-104z"/><path fill="#dcb49f" d="M314 810l-16-124-156 316z"/><path fill="#f6ffff" d="M702 546l-64 56-32-108z"/><path fill="#d9b7bf" d="M898 582L758 846l140 76z"/><path fill="#010e23" d="M-38 758l156-100-4 348z"/><path fill="#42000d" d="M206 998l276-72-72-260z"/><path fill="#2b0002" d="M570 942l236-288-172 432z"/><path fill="#8f3247" d="M750 438L182 590l132-396z"/><path fill="#e3b2a8" d="M402 978l84 24 144-216z"/><path fill="#d7c5af" d="M442 342L334 86l80 24z"/><path fill="#16333c" d="M62 94L-62 526l400-188z"/><path fill="#b6bdc1" d="M506 670l-172 24-80-76z"/><path fill="#0f1b1a" d="M578 86l88 324L326 26z"/><path fill="#94aca8" d="M398 518l76 136-12-204z"/><path fill="#0b0e28" d="M318 598l-80 224-64-132z"/><path fill="#3c000e" d="M446 278l36 376 152-172z"/><path fill="#000c0f" d="M898 250L870 22 718 218z"/><path fill="#d6b6b9" d="M198 902l-80 152 4-104z"/><path fill="#635b69" d="M694 702l-40-528 172 432z"/><path fill="#36000c" d="M366 618l200 52 168-84z"/><path fill="#ff7c44" d="M26 1086l-88-348L54 942z"/><path fill="#0b3670" d="M898 926l-132 152-28-212z"/><path fill="#5b666a" d="M230 642L26 314l80-92z"/><path fill="#00141b" d="M870 610L694 318l156 40z"/><path fill="#b59e8f" d="M710 634L510 874l208-120z"/><path fill="#000b00" d="M394 282l-48 84-48-52z"/><path fill="#c0a298" d="M162 510l-60 128 80 32z"/><path fill="#a83462" d="M202 422l84 248 12-332z"/><path fill="#fff" d="M278 986l-40 60 208 40z"/><path fill="#130000" d="M546 850l-76-368 128 232z"/><path fill="#a29970" d="M462 150l-36 212-92 52z"/><path fill="#6e0a27" d="M290 354l128 276-148 4z"/></g></svg>