<svg xmlns="http://www.w3.org/2000/svg" width="228" height="278" viewBox="0 0 836 1024"><path fill="#7e7d8b" d="M0 0h836v1024H0z"/><g fill-opacity=".502"><path d="M-62 30l888-92 72 452z"/><path fill="#edffff" d="M898 466L194 234l248 852z"/><path fill="#000818" d="M642-6L-42 506-54-2z"/><path fill="#c00" d="M534 1058L178 818 54 1030z"/><path fill="#bfd8ed" d="M342 954l512-8-896-528z"/><path fill="#f3eaff" d="M298 494l448-100-208-176z"/><path fill="#fff" d="M758 894l60-436 80 508z"/><path d="M710 686l-64 212 140-76z"/><path fill="#111d20" d="M418 318L118-14l780 4z"/><path fill="#001a34" d="M834 490L634 238 834-62z"/><path fill="#394439" d="M294 678L142 902l88-496z"/><path fill="#f01" d="M470 1086l428-112-256-20z"/><path fill="#af1700" d="M494 546l-96-80-116 64z"/><path fill="#d4e2fb" d="M-62 618l436-296-120-72z"/><path fill="#000117" d="M-62-58l232 416L54 470z"/><path fill="#c8dfd5" d="M170 674L82 958-62 686z"/><path fill="#3b1f3a" d="M674 450l-76 232 16-300z"/><path fill="#d80028" d="M458 1086L74 942l164-120z"/><path fill="#dce7f6" d="M538 1006l-8-116 368-40z"/><path fill="#400" d="M734 1086H262l52-136z"/><path fill="#bccde6" d="M898 566L182 678l192 292z"/><path fill="#989ba0" d="M66 190l132-4-56-168z"/><path fill="#141607" d="M-62 650l160 8 4-80z"/><path fill="#e6efff" d="M802 734L654 290l244 288z"/><path fill="#283a38" d="M238 826H138l148-248z"/><path fill="#e9f8ff" d="M-62 558l88 48 128-200z"/><path fill="#6a5a5c" d="M590 302L498 58l-164 4z"/><path fill="#d7d3e9" d="M354 226l-184 88 272 192z"/><path fill="#001625" d="M666 874l144-164-120 12z"/><path fill="#f3727a" d="M-62 958l64 60 244-188z"/><path fill="#d8c9e3" d="M454 502l272-152-216-136z"/><path fill="#105553" d="M262 1086L126 946l-164 136z"/><path fill="#00477b" d="M730 386l80 72 88-392z"/><path fill="#000a0f" d="M846-62L590 6l224 260z"/><path fill="#e2ebfc" d="M254 830l52-272 28 376z"/><path fill="#506371" d="M130 490l100-188-8 196z"/><path fill="#252322" d="M426 306l168-176-432-20z"/><path fill="#001925" d="M106 438L-58 186l260 36z"/><path fill="#711c3c" d="M578 662l32-68-4 156z"/><path fill="#5d595d" d="M786 446L686 90l-96 32z"/></g></svg>