<svg xmlns="http://www.w3.org/2000/svg" width="228" height="278" viewBox="0 0 836 1024"><path fill="#7c89a1" d="M0 0h836v1024H0z"/><g fill-opacity=".502"><path fill="#151421" d="M718-34L370 370-62 6z"/><path fill="#fff" d="M278 942l296 144 324-296z"/><path fill="#f9ffff" d="M130 622L14 1082l620-860z"/><path fill="#25220d" d="M194 466l-220 620 12-728z"/><path fill="#fff" d="M718 670L358 838l-44-120zm180-120L666 406l180 436z"/><path fill="#4d1300" d="M98 1042l268 44-72-428z"/><path fill="#fff" d="M702 398l-552 16 392-120z"/><path fill="#0036bc" d="M318 718l-68-128 488 24z"/><path fill="#ffcd32" d="M258 442l-8-416-88 84z"/><path fill="#1d4ca5" d="M822 514L330-62l568 252z"/><path fill="#fff" d="M358 1086l540-200-544 28zm-44-476l120-124 204 56z"/><path fill="#0b5cdf" d="M754 442l-404-60-204 136z"/><path fill="#0648b7" d="M-62 94l256 332-28-488z"/><path fill="#0039cd" d="M702 786l-384 32 56 104z"/><path fill="#fff" d="M654 646l-20 124-336-28zM-2 1006l212-412 48 188z"/><path fill="#001774" d="M474 486l260-140-84 152z"/><path fill="#2e1800" d="M354 394L218-62 462 66z"/><path fill="#fff" d="M250 858l-40 80 72 60z"/><path fill="#faffff" d="M294 590l-64-212 84-64z"/><path fill="#fff" d="M818 490l-176-8 256 356z"/><path fill="#d9d4e1" d="M54 718l104-164-68 252z"/><path fill="#f7d4bf" d="M626 786l220 36-36 252z"/><path fill="#d5ecff" d="M666 126V-62l164 172z"/><path fill="#20446d" d="M806 742L650 530l-144 64z"/><path fill="#563d3a" d="M578 194l-364-36 388 172z"/><path fill="#fff" d="M650 342l-224-68 144 168z"/><path fill="#080000" d="M302 726L118 942l164-88z"/><path fill="#e9f4ff" d="M-62 322l184 56-24-112z"/><path fill="#2a1c00" d="M898 418l-76 76-132-100z"/><path fill="#080504" d="M14 706l68 136-144 232z"/><path fill="#d2871a" d="M286 322L198 94l-16 328z"/><path fill="#4d2409" d="M-62 950l236 56-76 68z"/><path fill="#d7dcdc" d="M642 502l92-76-92 300z"/><path fill="#022653" d="M118 554l128-8-88-160z"/><path fill="#fff" d="M658 1086L310 970l388-136zM318 822l8-112 312 32z"/><path fill="#7d4420" d="M678 1066l8-164 152 184z"/></g></svg>