<svg xmlns="http://www.w3.org/2000/svg" width="228" height="278" viewBox="0 0 836 1024"><path fill="#7c7e80" d="M0 0h836v1024H0z"/><path fill="#473831" fill-opacity=".776" d="M871.24 433.909L898 193.974 368.828-62-15.35 329.995z"/><path fill="#b8d4e9" fill-opacity=".565" d="M636.858 433.249l-621.873-88.59 9.846 436.972 177.119 276.902z"/><path fill="#342110" fill-opacity=".769" d="M898 754.135l-270.43-96.492-69.958 207.213 281.65 21.67z"/><path fill="#c1d1de" fill-opacity=".659" d="M552.957 883.486L898 974.36 53.667 1086-62 939.879z"/><path fill="#e0edff" fill-opacity=".804" d="M851.732 696.252l-182.02-67.436-3.14-82.436 80.88-67.5z"/><path fill="#352d20" fill-opacity=".788" d="M555.84 684.873l81.45-53.733-374.412-38.852-.715 33.127z"/><path fill="#292f2e" fill-opacity=".596" d="M193.473 405.854L105.709-62l61.459 785.012-139.26-191.757z"/><path fill="#b1c6e0" fill-opacity=".98" d="M188.244 371.663l157.01-27.553 241.334 251.704-392.475-20.706z"/><path fill="#191510" fill-opacity=".851" d="M671.052 510.78l100.393-46.557-355.874-274.385 247.926 247.088z"/><path fill="#ffb783" fill-opacity=".325" d="M597.408 197.02l-321.67 48.106 129.07-200.86 150.154.513z"/><path fill="#cadcfc" fill-opacity=".631" d="M479.558 489.072l71.49-110.922 84.243 41.266 69.78 128.612z"/><path fill="#4a1700" fill-opacity=".698" d="M64.555 826.679l-109.51 56.093-1.292 75.685 183.353-85.282z"/><path fill="#807372" fill-opacity=".992" d="M714.441 241.824l-22.986-19.916L898 551.145l-344.645-297.43z"/><path fill="#231c14" fill-opacity=".702" d="M248.183 249.861l415.843 76.26-196.98 101.517-68.73-29.15z"/><path fill="#e5fbff" fill-opacity=".541" d="M173.308 480.793l-53.171-148.68-149.171 74.223 79.748 112.653z"/><path fill="#b9d3fb" fill-opacity=".733" d="M-7.841 126.595L-62-15.34 96.552 50.857l-3.909 90.386z"/><path fill="#c3d8ee" fill-opacity=".788" d="M19.26 749.212l217.603 236.025 3.258-522.068-100.507 285.155z"/><path fill="#828a72" fill-opacity=".584" d="M274.367 614.6l366.15 92.975 73.146 64.235-397.016 183.162z"/><path fill="#cbd4dd" fill-opacity=".784" d="M544.019 750.487L578.427 1086 191.759 979.513l293.91-17.622z"/><path fill="#2d1c19" fill-opacity=".541" d="M800.662 60.16L800.52-62 600.068 249.454 616.313-8.223z"/><path fill="#000b0d" fill-opacity=".561" d="M181.701 371.554l9.228 76.918L58.043 276.515l485.545 39.462z"/><path fill="#675d5d" fill-opacity=".988" d="M234.181 293.954l138.011-54.666-393.701-97.985 2.777 43.392z"/><path fill="#43535d" fill-opacity=".788" d="M65.998 521.487l103.854-30.827-3.539 204.81-216.17-268.889z"/><path fill="#08000f" fill-opacity=".376" d="M75.744-62L237.9 231.737 491.764-62 134.165 161.01z"/><path fill="#3784ca" fill-opacity=".506" d="M813.133 169.014l-99.766-14.672-32.888-143.686L898 95.558z"/><path fill="#764227" fill-opacity=".824" d="M646.404 557.465l-54.181-26.18L578.65 645.92l88.555 27.94z"/><path fill="#111416" fill-opacity=".859" d="M173.23 1086H29.186l226.623-74.928L525.275 1086z"/><path fill="#d9a075" fill-opacity=".639" d="M665.502 684.899L898 741.702l-64.597-78.376-176.066-22.249z"/><path fill="#120c0c" fill-opacity=".361" d="M-62 397.877l147.71-41.952L460.577-62-34.77 373.776z"/><path fill="#46260d" fill-opacity=".6" d="M402.312 105.941l125.758 5.043 21.748 64.285-164.315-35.654z"/><path fill="#481c02" fill-opacity=".78" d="M-62 344.96l81.818 149.173L10.86 652.15-62 605.186z"/><path fill="#170b00" fill-opacity=".584" d="M696.123 868.914L898 875.288 792.616 723.284l-96.25-22.806z"/><path fill="#0d1312" fill-opacity=".588" d="M651.338 167.021l-40.642 43.607 172.397 44.888 41.93-74.119z"/><path fill="#9199a8" fill-opacity=".839" d="M898 927.536v109.184l-287.789-36.297L559.013 890.9z"/><path fill="#0f1313" fill-opacity=".894" d="M566.84 278.173l142.076 114.071 22.908 76.22-185.233-100.989z"/><path fill="#fdf0ee" fill-opacity=".251" d="M416.155 25.43l149 39.694-150.599 35.213-50.896 14.964z"/><path fill="#cdd7e5" fill-opacity=".427" d="M502.19 401.135l-164.222-47.19 120.482 43.364 83.757-27.668z"/><path fill="#6d7783" fill-opacity=".604" d="M327.333 533.722l8.296-43.051-79.638-14.108 35.137 56.416z"/><path fill="#e1ffff" fill-opacity=".165" d="M240.975 190.295l-62.958 107.532L-62 441.655 264.541 297.82z"/><path fill="#b8ccea" fill-opacity=".635" d="M668.52 486.072l-3.528-44.514-103.408-68.784-188.892 176.09z"/><path fill="#d6edfa" fill-opacity=".878" d="M-62 427.136l192.789-95.23-39.54 122.197-63.996 16.667z"/><path fill="#3d2400" fill-opacity=".361" d="M94.517 931.068l104.868 19.278-58.939-30.456-71.29-43.315z"/><path fill="#030e2e" fill-opacity=".31" d="M556.325 828.107l28.56-145.78 49.421 148.446-72.569 69.54z"/><path fill="#ce7326" fill-opacity=".329" d="M613.794 87.506l-77.507 299.38 8.016-139.948-82.711-22.104z"/><path fill="#bbd2f0" fill-opacity=".561" d="M599.29 562.168L153.4 443.35l196.1-106.224 180.22 302.002z"/><path fill="#0e1111" fill-opacity=".969" d="M725.748 436.617l-116.223-27.333 57.107-54.63-.275 155.866z"/><path fill="#a98c82" fill-opacity=".314" d="M576.863 645.066L640.71 759.05l-24.52 157.516 105.303-139.61z"/><path fill="#8e998d" fill-opacity=".541" d="M164.063 729.588L15.896 467.148l225.06-2.247L.22 543.266z"/><path fill="#acab97" fill-opacity=".573" d="M213.168 857.426l250.71 37.521 146.53-281.134-118.983 389.316z"/><path fill="#a6a1a7" fill-opacity=".898" d="M661.616 561.94l-118.785-46.025 93.357-9.116 98.93-15.916z"/><path fill="#69585e" fill-opacity=".545" d="M298.364 69.656L91.67 228.931l20.77-173.168L6.693-62z"/><path fill="#ecf6ff" fill-opacity=".451" d="M744.65 670.501l6.63-223.95 47.212 160.275L898 637.802z"/><path fill="#402207" fill-opacity=".447" d="M493.355 390.508l72.164-129.353-123.7-73.773-85.03 148.61z"/><path fill="#000907" fill-opacity=".443" d="M307.433 631.99l9.06-27.56 152.17 5.376 151.167 48.498z"/><path fill="#bec8be" fill-opacity=".663" d="M106.787 842.048l-77.878-39.424L.058 678.21l39.627-87.23z"/><path fill="#010604" fill-opacity=".388" d="M122.212 553.116l66.63-53.865-87.353 9.88-56.642 23.976z"/><path fill="#68753f" fill-opacity=".271" d="M516.862 768.305l-260.82-5.987 145.042 187.248 48.153-2.625z"/><path fill="#0a1011" fill-opacity=".392" d="M23.927 370.97l469.579-154.03L143.83 392.638l-30.845-175.63z"/><path fill="#d2cbdc" fill-opacity=".451" d="M580.986 42.942L705.271-62h-87.747L441.329-50.586z"/><path fill="#042e51" fill-opacity=".259" d="M886.416 559.679l-114.79-25.147L898 111.932l-179.212 67.21z"/><path fill="#a14200" fill-opacity=".408" d="M29.581 481.82L-62 767.993l86.287 57.656L12.22 653.57z"/><path fill="#8f827f" fill-opacity=".843" d="M744.249 275.86l26.48 237.74-60.569-138.567-97.963-105.688z"/><path fill="#390802" fill-opacity=".322" d="M39.126-27.439l577.39 86.966L251.55-62 130.028 57.255z"/><path fill="#c0dafa" fill-opacity=".737" d="M222.358 1008.638l240.454 15.653-29.7 28.028-283.773-200.562z"/><path fill="#f7ede2" fill-opacity=".522" d="M571.238 918.712l-109.112-89.87 88.474 19.465L558.808 1086z"/><path fill="#9fb1be" fill-opacity=".647" d="M351.448 1005.568l71.188 12.551-196.129-297.24-27.152 122.73z"/><path fill="#fcc89f" fill-opacity=".286" d="M510.722 43.34l89.888 205.634-63.364-64.182 30.757-106.987z"/><path fill="#000409" fill-opacity=".494" d="M533.803 405.89l-50.045 16.31-75.392-19.314-23.786-10.596z"/><path fill="#b3c7e3" fill-opacity=".714" d="M447.018 627.256l96.88-47.652-171.214-161.736 225.043 1.797z"/><path fill="#fbfce4" fill-opacity=".263" d="M381.39 70.734l104.5-33.262-67.677 3.534-49.428 165.27z"/><path fill="#fed5b1" fill-opacity=".255" d="M414.32 229.503l-53.153-91.236 101.762 61.955 8.361-119.484z"/><path fill="#acc1cc" fill-opacity=".851" d="M366.142 536.58l-103.774-30.16-112.007-101.789-89.062 21.566z"/><path fill="#9cb3c8" fill-opacity=".463" d="M415.153 640.288l121.9 103.293-66.679-31.496-90.489-65.855z"/><path fill="#717f7c" fill-opacity=".612" d="M203.533 994.51l-35.32-.028-31.66 2.188 89.052-31.685z"/><path fill="#b5c9cc" fill-opacity=".824" d="M96.179 930.102L240.519 1086l-241.564-35.001 66.563-144.44z"/><path fill="#5d3d2d" fill-opacity=".992" d="M108.9 941.467l-3.201-35.309-32.942-81.331 18.201 103.666z"/><path fill="#d1e1f5" fill-opacity=".894" d="M147.85 835.91l33.39-164.99-76.616 112.061 5.884 66.695z"/><path fill="#bdd1e4" fill-opacity=".784" d="M173.61 535.325l85.013 104.18-18.075 131.22-74.834-116.764z"/><path fill="#a9928d" fill-opacity=".204" d="M267.22 249.834l269.596 23.975L75.073 165.115l181.451 145.598z"/><path fill="#fecaaf" fill-opacity=".208" d="M374.626 351.37l56.779 46.927-16.82-28.68-40.969-110.723z"/><path fill="#9cadbe" fill-opacity=".733" d="M321.755 591.07l-93.625 82.177 149.507-106.96 215.727 44.93z"/><path fill="#414623" fill-opacity=".498" d="M463.178 603.25L562.6 725.803l-1.347 23.605-101.38-108.826z"/><path fill="#afbccf" fill-opacity=".541" d="M660.861 624.877l-17.547-149.272 100.37 182.85-15.904 11.12z"/><path fill="#865433" fill-opacity=".898" d="M444.928 227.273l174.524-48.743-73.923-78.953 63.744 132.058z"/><path fill="#321901" fill-opacity=".627" d="M629.236 691.195l-25.11-53.71 247.493 156.904-116.255-2.658z"/><path fill="#1c2020" fill-opacity=".835" d="M135.35 382.886l23.386-124.11 32.291 152.495-5.463 24.582z"/><path fill="#889795" fill-opacity=".769" d="M416.142 733.772L260.303 851.983l111.032-200.327 2.08-58.622z"/><path fill="#708888" fill-opacity=".451" d="M76.16 620.012l1.142-69.733 88.752 137.552L112 766.518z"/><path fill="#7e8b9f" fill-opacity=".353" d="M202.486 138.448l99.461-117.754-52.529-55.168-104.92 127.74z"/><path fill="#3f291e" fill-opacity=".659" d="M702.356 219.612l-80.376 2.583-12.589-118.57 51.742-144.778z"/><path fill="#261221" fill-opacity=".298" d="M383.322 97.216l-39.27 120.861L294.23-62h88.898z"/><path fill="#1d2235" fill-opacity=".29" d="M781.493 72.565l48.227-26.256L795.62-62 719.668 46.057z"/><path fill="#8c6c7b" fill-opacity=".486" d="M769.84 1082.687L563.674 1086l8.913-95.086 203.125-1.774z"/><path fill="#944e1d" fill-opacity=".51" d="M684.822 672.79l172.98 57.695L898 998.272l-82.162-256.83z"/><path fill="#eef6ff" fill-opacity=".149" d="M-19.523 200.039l123.79 234.689L12.311 319.74l71.738-64.275z"/><path fill="#00080e" fill-opacity=".537" d="M396.315 396.274l-50.91-150.517-93.3 116.207 102.46-22.246z"/><path fill="#d9804d" fill-opacity=".384" d="M630.01 498.82l33.248 186.063 15.908-86.791-81.368-72.505z"/><path fill="#97907b" fill-opacity=".545" d="M562.432 676.54l147.063 105.033-120.478-138.728-6.359 2.222z"/><path fill="#321808" fill-opacity=".482" d="M42.056 838.839l-36.04 32.934 31.273 65.043 34.588-31.19z"/><path fill="#5a5608" fill-opacity=".255" d="M541.005 878.684l-34.24 14.116-100.308-33.86-66.813-67.72z"/><path fill="#040400" fill-opacity=".42" d="M459.685 382.337L417.6 323.254l77.744-44.383 70.734-24.073z"/><path fill="#587289" fill-opacity=".576" d="M898 138.613l-66.426 158.05-23.234-18.598-2.91-41.094z"/><path fill="#a4bbd0" fill-opacity=".863" d="M199.503 570.036l223.154-33.45-15.091 88.002 40.213-29.35z"/><path fill="#232319" fill-opacity=".545" d="M462.422 27.378l38.565-33.483L399.013-62 592.392 76.986z"/><path fill="#599bd0" fill-opacity=".443" d="M719.988 107.222l125.3-45.326L898 93.015l-135.95 66.403z"/><path fill="#4c646d" fill-opacity=".388" d="M898 879.868l-133.265 30.29-194.061-7.975 24.513-41.048z"/><path fill="#ac5456" fill-opacity=".553" d="M321.086 597.802l-15.918-11.37-50.912 8.858 6.17 35.751z"/><path fill="#c3d7f2" fill-opacity=".49" d="M675.081 427.157l-195.764 14.78 85.234-62.236 85.428 75.351z"/><path fill="#0c0d0f" fill-opacity=".525" d="M514.447 414.768l49.822-38.613 112.287 64.948L575.35 315.387z"/><path fill="#90a19f" fill-opacity=".482" d="M347.614 681.469l106.925-63.603L270.16 896.981l5.327-252.697z"/><path fill="#724631" d="M575.046 587.877l82.018-.494 8.716 6.468-64.175 73.78z"/><path fill="#594630" fill-opacity=".816" d="M504.21 300.64l-80.028-26.041-61.562-95.858 8.15 109.135z"/><path fill-opacity=".275" d="M546.792 655.22l-264.559-23.459 100.407-38.627-92.458 4.899z"/><path fill="#2e140b" fill-opacity=".404" d="M16.175 484.238L4.985 690.012l9.7 111.527L-62 713.154z"/><path fill="#839083" fill-opacity=".537" d="M191.756 458.75l-112.15 25.148 77.392-60.464-20.632 84.624z"/><path fill="#4e1409" fill-opacity=".216" d="M523.283 518.226L638.6 575.428l-108.064-72.987 99.863 140.094z"/><path fill="#f0ddde" fill-opacity=".22" d="M445.935 402.175l81.387-10.84-7.66 6.007 29.362-39.933z"/><path fill="#bdd4f1" fill-opacity=".937" d="M343.071 356.687L356.66 480.39l-.092 40.336-166.923-153.264z"/><path fill="#885c48" fill-opacity=".439" d="M818.119 400.935l45.29 54.222-92.413 58.226-26.17-50.842z"/><path fill="#2e3e00" fill-opacity=".122" d="M467.71 825.817l58.67-14.592-56.215-65.194L291.93 613.028z"/></svg>