<svg xmlns="http://www.w3.org/2000/svg" width="228" height="278" viewBox="0 0 836 1024"><path fill="#684a41" d="M0 0h836v1024H0z"/><path fill="#d5f7f0" fill-opacity=".776" d="M644.542 279.084l36.99-131.34 196.926-81.461L771.54 355.428z"/><path fill="#2b0000" fill-opacity=".906" d="M520.073 1086L474.27 721.537 206.715 687.52 104.201 1086z"/><path fill="#eb0a0f" fill-opacity=".788" d="M145.854 369.982l458.11 86.68-175.03 118.018-326.546 8.82z"/><path fill="#c8cac8" fill-opacity=".753" d="M148.067 872.811l-7.165-76.763L-62 898.001l79.294 178.525z"/><path fill="#ff9b5f" fill-opacity=".557" d="M477.022 859.723L557.948 1086H898V785.122z"/><path fill="#032e28" fill-opacity=".498" d="M898 566.35L403.825-62l302.322 987.092-224.57-313.555z"/><path fill="#1e2c2b" fill-opacity=".859" d="M586.984 49.573L603.654-62-3.088-15.028-62 141.165z"/><path fill="#7db1a8" fill-opacity=".337" d="M898 259.764L76.117 134.146-62 507.666l696.28-403.728z"/><path fill="#3f0000" fill-opacity=".502" d="M219.476 350.839l164.583 239.244L123.9 660.23l402.867-427.31z"/><path fill="#b5825d" fill-opacity=".71" d="M196.155 644.795L60.397 631.853-62 780.962 691.86 524.21z"/><path fill="#f70000" fill-opacity=".545" d="M179.307 749.036l64.382 130.717-56.71-.934L61.103 1086z"/><path fill="#15352c" fill-opacity=".835" d="M725.75 351.443L898 293.621v342.847l-276.164-30.762z"/><path fill="#fff7e7" fill-opacity=".247" d="M483.707 396.718l-39.85 301.383-136.461 8.626 391.24-254.61z"/><path fill="#dd1000" fill-opacity=".388" d="M689.336 881.199l-234.88 25.123-138.512-167.83 175.062 10.223z"/><path fill="#001d2c" fill-opacity=".784" d="M892.067-62L898 83.652l-211.62 21.137 81.165-147.682z"/><path fill="#539694" fill-opacity=".431" d="M875.85 638.502l16.23 135.722-181.867 72.448-95.833-229.349z"/><path fill="#ff7845" fill-opacity=".427" d="M256.595 193.801l64.236 160.333-178.176 20.469 341.099-206.624z"/><path fill="#5b0c00" fill-opacity=".408" d="M774.291 1058.564L588.993 534.826 566.3 394.806l-67.196 215.77z"/><path fill="#1e1002" fill-opacity=".894" d="M392.214 649.768l28.955-35.498-318.434 146.4 25.665 33z"/><path fill="#fd0001" fill-opacity=".675" d="M253.842 394.947L235.46 586.77l-138.046-5.168 80.108-250.537z"/><path fill="#c9ffff" fill-opacity=".2" d="M560.75 218.649l115.553 139.863 148.329-9.462-39.814-267.66z"/><path fill="#00090a" fill-opacity=".816" d="M41.163 1086h527.489l-74.8-141.225-235.768-84.137z"/><path fill="#02212c" fill-opacity=".592" d="M814.948 215.347l-121.4-18.946 101.756 33.846L898 551.054z"/><path fill="#ccbab6" fill-opacity=".702" d="M682.9 719.573l-62.898-92.711 35.5 71.282L823.01 1086z"/><path fill="#df070a" fill-opacity=".612" d="M246.28 313.155l180.12 94.092 1.448-60.335 77.19 176.808z"/><path fill="#325055" fill-opacity=".49" d="M8.828-9.911L-62 318.884l323.333-92.45L276.526 99.1z"/><path fill="#ffc691" fill-opacity=".396" d="M408.731 58.574l-118.046 59.697 28.029 24.27 125.428-28.476z"/><path fill="#041112" fill-opacity=".459" d="M203.867 88.743L424.746-62l55.23 321.455L625.68 48.465z"/><path fill="#504750" fill-opacity=".996" d="M282 384.392l132.386 44.745-71.897-1.638-73.918-16.22z"/><path fill="#030002" fill-opacity=".588" d="M115.21 587.867l-12.892 29.474 146.444 23.072 117.451-64.328z"/><path fill="#fff8d5" fill-opacity=".176" d="M321.704 694.87L555.1 722.012 251.242 366.47l286.94 230.377z"/><path fill="#6fcfc7" fill-opacity=".208" d="M-62 520.72l469.812-355.127L63.483 498.984l76.069 246.15z"/><path fill="#edf9f9" fill-opacity=".608" d="M872.069 92.616l-134.975 18.97-56.595 90.877 171.167-13.809z"/><path fill="#001314" fill-opacity=".753" d="M202.154 711.78l382.299 53.396-68.585-47.51-99.655-11.036z"/><path fill="#150b00" fill-opacity=".667" d="M597.144 596.991L358.45 630.904l147.512 6.845 122.942 90.988z"/><path fill="#385f83" fill-opacity=".404" d="M741.53-33.791L604.716 4.111 494.71 184.693l236.255-35.373z"/><path fill="#d81c21" fill-opacity=".898" d="M37.626 1086l62.618-32.365 72.607-216.214-82.481 118.91z"/><path fill="#23372b" fill-opacity=".435" d="M351.684 208.708L800.61 371.946l-271.568 39.288-169.674-19.576z"/><path fill="#ffec98" fill-opacity=".169" d="M651.488 1056.367L475.664 954.461l99.592-172.58 127.216 77.317z"/><path fill="#006452" fill-opacity=".467" d="M-58.118 656.205L4.348 873.25l71.308-20.98-45.732-102.197z"/><path fill="#020000" fill-opacity=".424" d="M300.205 469.662l-74.27 9.861 32.223 49.703 4.809 119.608z"/><path fill="#4d635b" fill-opacity=".455" d="M690.791 264.684l60.18-106.925-199.583 226.31 111.198 305.64z"/><path fill="#fae2e1" fill-opacity=".224" d="M445.374 238.872L431.37 416.726l112.2-4.171-48.133 130.55z"/><path fill="#cea18c" fill-opacity=".753" d="M898 985.125l-161.826-93.36-10.124 78.605 122.612 38.752z"/><path fill="#bb6e38" fill-opacity=".345" d="M577.904 464.995l-288.99 166.232 333.666-31.976 12.996-115.77z"/><path fill="#ebfbd5" fill-opacity=".404" d="M805.61 243.744l9.124 90.627-140.784-28.868 40.061-95.65z"/><path fill="#d0f7f7" fill-opacity=".184" d="M-62 854.625L51.965 820.28l59.085-200.89-36.164 446.436z"/><path fill="#934602" fill-opacity=".329" d="M317.72 335.173l110.577-29.242 66.38-115.769L283.06 230.47z"/><path fill="#2a2720" d="M429.82 631.157l-3.34 73.808 15.62-60.27 3.639-30.228z"/><path fill="#190800" fill-opacity=".788" d="M412.519 398.715l-4.382 9.746-75.167-78.058 98.875-14.22z"/><path fill="#e10002" fill-opacity=".682" d="M266.606 473.565l-31.244 138.687L143.1 398.38l221.583 34.183z"/><path fill="#e49961" fill-opacity=".753" d="M419.071 521.75l-29.189-3.121-20.512-53.09-25.265 56.146z"/><path fill="#cca17f" fill-opacity=".694" d="M263.879 183.662l61.212 43.704 117.77-39.194 8.885-14.52z"/><path fill="#78492b" fill-opacity=".898" d="M713.445 829.24L727 965.102l-32.813 2.87-47.55-269.873z"/><path fill="#b1ecff" fill-opacity=".365" d="M430.224 711.735l-13.162-84.405-93.818 80.373 72.835-12.872z"/><path fill="#f1faec" fill-opacity=".506" d="M491.183 644.451l-16.803-18.464 13.923 89.706 15.227-3.019z"/><path fill="#700" fill-opacity=".592" d="M532.45 788.56l-26.436-40.282-260.512-6.934 242.234 166.102z"/><path fill="#42836f" fill-opacity=".349" d="M82.247 746.338l65.802-535.786-202.185 53.139 42.453 34.068z"/><path fill="#c31200" fill-opacity=".325" d="M174.982 833.747L48.028 845.879l172.239-95.98-3.193 35.61z"/><path fill="#0098a5" fill-opacity=".439" d="M781.822 329.86l41.067 6.034-78.042 37.752-59.358-53.93z"/><path fill="#050401" fill-opacity=".694" d="M439.399-39.202L296.079 22.34l-43.72 94.812 27.144 1.335z"/><path fill="#0e1009" fill-opacity=".58" d="M365.668 708.833l-10.338-77.505 191.97-9.41-160.03 20.611z"/><path fill="#001f15" fill-opacity=".784" d="M721.532 396.619l107.512 20.464-16.459-217.486 25.16 121.794z"/><path fill="#f81524" fill-opacity=".729" d="M479.5 514.125l-66.925 53.705-65.117-141.689 151.45 27.079z"/><path fill="#1f1700" fill-opacity=".498" d="M507.545 707.748l11.8-53.721-74.115 57.293 19.82-78.636z"/><path fill="#f2dde4" fill-opacity=".459" d="M91.002 652.23l41.715-12.661 7.937 30.636-46.11 18.623z"/><path fill="#ff8d0c" fill-opacity=".514" d="M499.593 631.383l25.838 12.79-76.242 61.88 45.147-11.328z"/><path fill="#d4000a" fill-opacity=".655" d="M520.541 448.143l52.92-12.909 16.604 44.176-40.269 13.993z"/><path fill="#e4fcff" fill-opacity=".412" d="M461.87 660.561l-16.744-64.26 10.168.645L432.83 715.76z"/><path fill="#f03b44" fill-opacity=".639" d="M133.818 458.468L90.15 640.913 129.6 411.93l62.988-58.042z"/><path fill="#412706" fill-opacity=".651" d="M304.58 177.553l41.434-30.582 82.688-22.233 22.102 37.258z"/><path fill="#d75d11" fill-opacity=".404" d="M898 882.052L763.278 935.31l-42.602-143.12 159.722 79.94z"/><path fill="#011216" fill-opacity=".604" d="M286.085 353.233l20.918 12.684 56.512 51.095-138.458-50.617z"/><path fill="#c5661d" fill-opacity=".537" d="M626.293 815.861l-110.348-5.77-17.334 91.63 210.125 9.275z"/><path fill="#233433" fill-opacity=".62" d="M615.537 399.637l-168.341-54.019 43.537-193.78L898 729.339z"/><path fill="#63291a" fill-opacity=".718" d="M548.248 524.082l31.433-26.703 18.365 123.992-41.6-8.441z"/><path fill="#cc9783" fill-opacity=".753" d="M687.707 945.303l-52.49 59.93-129.22-34.06-1.65-52.352z"/><path fill="#a9c6fd" fill-opacity=".161" d="M511.633 368.536l125.71 196.941-86.459-22.069 128.195-45.944z"/><path fill="#a84919" fill-opacity=".333" d="M-62 788.069l423.398-156.606-259.251 156.34L-62 334.592z"/><path fill="#e6fefc" fill-opacity=".192" d="M439.675 77.202l21.77 162.496-87.408-269.209 30.825 96.59z"/><path fill="#3b5e5a" fill-opacity=".478" d="M896.088 614.221l-249.734-18.475 38.592 147.786L815.05 795.79z"/><path fill="#265a49" fill-opacity=".525" d="M517.624 817.502l66.892-63.322-65.674-86.544 9.107-40.16z"/><path fill="#ffebea" fill-opacity=".337" d="M709.632 793.574l-36.534-32.398-36.414-110.293 9.075 5.094z"/><path fill="#837a8b" fill-opacity=".58" d="M661.79 262.293l-107.516-48.567 31.356-75.086 71.142 2.326z"/><path fill="#de0307" fill-opacity=".765" d="M445.482 472.156l-17.44-53.036-175.568-94.488 34.373-11.257z"/><path fill="#200506" fill-opacity=".42" d="M339.918 221.113l96.087 48.307-94.418 2.485 69.494-60.288z"/><path fill="#6e8372" fill-opacity=".757" d="M139.357 333.732l-91.97-93.936-2.649 199.419L299.596 288.18z"/><path fill="#acfdff" fill-opacity=".204" d="M476.64 519.158l67.246-5.322-90.93-90.637 84.428-14.618z"/><path fill="#bb7c4a" fill-opacity=".467" d="M403.22 86.099L303.14 73.93l54.076 68.222-41.299 184.74z"/><path fill="#d0c8cc" fill-opacity=".494" d="M148.487 883.836l-9.7-21.492L-60.38 966.005l134.56 6.25z"/><path fill="#b67e69" d="M503.739 374.598l-57.024-26.991 13.73 27.064-8.53-2.064z"/><path fill="#030823" fill-opacity=".49" d="M495.825 377.846L442.18 406.33l88.145 7.869-16.982-33.618z"/><path fill="#e9f2ec" fill-opacity=".871" d="M798.74 192.15L898 67.624 657.508 236.537l41.136-91.477z"/><path fill="#b00406" fill-opacity=".878" d="M147.853 967.148l-18.491-12.389 30.894-173.89 45.986-17.958z"/><path fill="#bd7d54" fill-opacity=".522" d="M561.1 597.331l-116.958 6.343-323.704 94.91 328.403-147.32z"/><path fill="#c7e3fb" fill-opacity=".412" d="M741.273 877.744l-10.674-46.647 3.568 95.644 36.798 55.46z"/><path fill="#090907" fill-opacity=".98" d="M399.891 739.636l38.838-19.974-312.612 37.79 274.792-60.145z"/><path fill="#c10000" fill-opacity=".843" d="M308.239 502.812l10.471-60.392-2.431 131.945 115.412-11.728z"/><path fill="#3c0000" fill-opacity=".376" d="M302.007 726.676L489.85 896.588l-318.119 4.466-36.075 12.365z"/><path fill="#052158" fill-opacity=".271" d="M711.812 213.936l12.277-36.424 96.848 70.748 19.925-46.163z"/><path fill="#cafae6" fill-opacity=".416" d="M898 254.85l-65.777-44.014-6.23 25.417 50.752 212.33z"/><path fill="#e40e1a" fill-opacity=".769" d="M419.547 568.316l7.695-101.887 19.016-93.063 15.326 19.324z"/><path fill="#bfeeff" fill-opacity=".361" d="M527.437 664.623l.497-24.795-16.457 76.882 7.713 27.602z"/><path fill="#002415" fill-opacity=".549" d="M-42.708 713.606L-62 858.21l96.883-52.335 8.572-37.984z"/><path fill="#aa8467" fill-opacity=".847" d="M255.956 218.69l32.963 99.85-5.706-169.38 53.76-59.857z"/><path fill="#003d2b" fill-opacity=".216" d="M139.46 379.642l-12.379-10.199L26.484 520.557l65.228 69.19z"/><path fill-opacity=".404" d="M230.686 627.594l99.313-16.307L227.691 471.43l55.616 19.968z"/><path fill="#f30003" fill-opacity=".592" d="M183.178 580.93l63.947 17.765 5.792-72.638-139.442-18.683z"/><path fill="#927a63" fill-opacity=".443" d="M122.152 828.116L-10.34 434.492l61.38 313.003L65.03 887.64z"/><path fill="#ebffff" fill-opacity=".396" d="M418.156 679.547l-95.335 5.605 10.955 30.94 25.976-17.582z"/><path fill="#050000" fill-opacity=".49" d="M578.51 624.147l-67.271-32.712 47.894 128.023 62.102-29.281z"/><path fill="#050a0b" fill-opacity=".851" d="M185.35 886.262l316.38 46.903-2.08 64.045L74.573 1086z"/><path fill="#202c2d" fill-opacity=".996" d="M266.072 18.84L109.866 40.6l14.88 56.688L271.57 77.332z"/><path fill="#b88755" fill-opacity=".635" d="M289.804 119.835l22.01 99.844 98.453 29.693-134.753 1.184z"/><path fill="#000f19" fill-opacity=".373" d="M866.719 73.304L751.856 99.558 674.68 159.67 822.862-62z"/><path fill="#ffe4fe" fill-opacity=".153" d="M340.309 407.039l52.79 119.665 11.463-81.332-152.428-52.565z"/><path fill="#f9030a" fill-opacity=".816" d="M220.757 359.987l-56.459 6.54 3.933 213.798-73.739 13.335z"/><path fill="#c6957e" fill-opacity=".918" d="M674.362 951.699l-130.624-13.094 83.64 57.97 78.568-145.197z"/><path fill="#1e2c23" fill-opacity=".443" d="M627.069 91.491l-27.23-62.143-231.043-63.526 90.296 171.127z"/><path fill="#6a3f22" fill-opacity=".494" d="M866.287 1086L682.404 934.932l38.183-99.455 23.56 238.383z"/></svg>