<svg xmlns="http://www.w3.org/2000/svg" width="228" height="278" viewBox="0 0 836 1024"><path fill="#684a41" d="M0 0h836v1024H0z"/><g fill-opacity=".502"><path fill="#fff" d="M874 62L758 366 582 186z"/><path fill="#010000" d="M106 1086l176-632 268 604z"/><path fill="red" d="M214 274L74 586l564-40z"/><path fill="#f6ffff" d="M154 822l-216 32 88 232z"/><path fill="#ffab70" d="M814 1086l72-340-428 204z"/><path fill="#003d38" d="M846 806l52-412-476-188z"/><path fill="#001b21" d="M-62 162L650 18 14-62z"/><path fill="#648e81" d="M-62 586V82l456 108z"/><path fill="#390000" d="M102 746l536-64-328 404z"/><path fill="#b49672" d="M566 714l-576-40 464-92z"/><path fill="#e9ffff" d="M726 342l-56-176L898 54z"/><path fill="#10394a" d="M402-14l116 296L898-6z"/><path fill="#f00000" d="M22 1086l212-228-36-116z"/><path fill="#da2e01" d="M722 850l-220 68-188-192z"/><path fill="#0d0200" d="M606 598l-116 4 228 332z"/><path d="M290 654l240 360-452 72z"/><path fill="#ff5d58" d="M494 614l88-212-280 48z"/><path fill="red" d="M158 334l-56 264 264-124z"/><path fill="#060000" d="M390 426l-160-60 212-76z"/><path fill="#547e7c" d="M546 362l148 448 204-16z"/><path fill="#001c10" d="M818 602l28-332-252 340z"/><path fill="#e6975e" d="M462 170l-204 4 20 136z"/><path fill="#787c8f" d="M702-62l-48 324-116-72z"/><path d="M262 702l256-92-152 12z"/><path fill="#a19079" d="M-26 442l172 228-64 208z"/><path fill="#c2e9f9" d="M434 626l-116 68 96 8z"/><path fill="#630000" d="M522 738l-36 208L82 742z"/><path fill="#ee9c6b" d="M498 858l208 16-156 212z"/><path fill="#1b0000" d="M190 638l116-28-20-172z"/><path fill="#14435f" d="M858 250l-160-56 200 12z"/><path fill="#d8fff0" d="M670 306l124-64 24 84z"/><path d="M898 110L794-62 746 62z"/><path fill="#e0b086" d="M446 122l-172 12 140-76z"/><path fill="#e9dedd" d="M646 678l68 148-16-96z"/><path fill="#ae824b" d="M662 442L198 662l292-52z"/><path fill="#f90000" d="M450 370l-80 224 112-80z"/><path fill="#060d03" d="M622 94L258 50 430-62z"/><path fill="#dbcbcf" d="M510 530l-36-120 52 4z"/><path fill="#1e6e63" d="M30 490l52 172 44-260z"/><path fill="#354b52" d="M290 182L-54 286 42-42z"/></g></svg>