<svg xmlns="http://www.w3.org/2000/svg" width="228" height="278" viewBox="0 0 836 1024"><path fill="#683e36" d="M0 0h836v1024H0z"/><path fill="#afb7cb" fill-opacity=".682" d="M490.401 563.322L737.397 1086h127.957L576.09 606.49z"/><path fill="#c07c6f" fill-opacity=".816" d="M338.13 614.778l-16.003-436.86L898 567.248 397.238 383.18z"/><path fill="#190a0a" fill-opacity=".776" d="M-62 491.024l47.245 255.093 433.213 6.676 105.71-80.467z"/><path fill="#7e8b9d" fill-opacity=".851" d="M453.035 653.093L558.387 1086 898 869.082l-315.43 41.929z"/><path fill="#070401" fill-opacity=".694" d="M272.695 76.376l74.86 156.149L423.012-62-62 91.456z"/><path fill="#bdd5d5" fill-opacity=".482" d="M141.332 514.571l-80.029-1.569L94.194 262.87l65.485-25.682z"/><path fill="#1f1e21" fill-opacity=".894" d="M-62 698.57l207.113-555.578-2.095-105.867L-3.849-62z"/><path fill="#b5dbfb" fill-opacity=".525" d="M315.19 459.102l62.323 194.874 7.605-104.338-24.579-313.213z"/><path fill="#320603" fill-opacity=".859" d="M655.082 700.104L383.367 382.697l276.514 148.89 39.325 164.551z"/><path fill="#651a11" fill-opacity=".976" d="M509.944-62l-71.011 194.913-117.069 113.174L898 45.967z"/><path fill="#a36e41" fill-opacity=".702" d="M779.893 482.56L567.558 1086l131.89-90.95 111.639-478.076z"/><path fill="#70b2db" fill-opacity=".784" d="M703.086 1086l13.31-167.672 115.687-63.577L806.848 1086z"/><path fill="#fdd997" fill-opacity=".38" d="M295.486 218.752l-113.203-2.338L292.528 75.536l-174.87 26.134z"/><path fill="#120b09" fill-opacity=".694" d="M238.887 534.582l-22.952-219.963-91.737 296.867L385.02 927.018z"/><path fill="#fcbb8f" fill-opacity=".267" d="M-62 632.72L35.529 803.8l165.299-127.224L-6.346 1086z"/><path fill="#450001" fill-opacity=".682" d="M462.066 537.96l164.875 288.347-269.519-242.64 36.493 20.545z"/><path fill="#a72000" fill-opacity=".486" d="M-1.294 1067.544L136.33 745.48l100.664 36.744L409.361 1086z"/><path fill="#0076b3" fill-opacity=".553" d="M460.5 951.697l-77.716 111.591L605.162 1086l-14.507-142.739z"/><path fill="#220304" fill-opacity=".725" d="M791.536 880.573l-89.774 34.184 48.519-162.182 26.147 23.205z"/><path fill="#7c0f00" fill-opacity=".678" d="M758.307-57.792L869.439-62 666.133 402.264l-96.983-48.237z"/><path fill="#ada5b6" fill-opacity=".984" d="M522.447 903.74l-12.6-164.595-56.216 66.296 126.448 56.953z"/><path fill="#7a899c" fill-opacity=".69" d="M376.557 613.482l116.756-91.98-17.121-33.687-153.525-2.282z"/><path fill="#aa533e" fill-opacity=".733" d="M612.227 102.496L478.059 340.977l65.391 123.277L677.19 89.655z"/><path fill="#f4e1ff" fill-opacity=".384" d="M583.621 605.592l68.137 139.99-4.886 234.552L569.52 616.51z"/><path fill="#130800" fill-opacity=".502" d="M-37.742 313.427l.467 143.898 332.99-170.291.549 160.056z"/><path fill="#a4e3fe" fill-opacity=".408" d="M255.665 559.533l16.888-54.226 34.419 102.625-28.04 30.116z"/><path fill="#0482c5" fill-opacity=".655" d="M649.502 565.123l90.477-104.029-24.694 29.771-3.12-60.002z"/><path fill="#832818" fill-opacity=".973" d="M746.478 462.498l6.533-80.869L898 105.082l-25.836 469.886z"/><path fill="#ead9d8" fill-opacity=".745" d="M491.872 373.265l-13.735-41.626-44.26 80.689 61.939-14.311z"/><path fill="#7a0501" fill-opacity=".729" d="M551.264 445.706l31.314-32.385-213.104-10.75 18.49 78.159z"/><path fill="#7f0000" fill-opacity=".686" d="M593.287 926.295l29.76-113.639L514.003 642.73l3.551 77.426z"/><path fill="#c56341" fill-opacity=".651" d="M751.482 731.365L898 1026.217l-86.098-461.312L898 811.153z"/><path fill="#371d1c" fill-opacity=".824" d="M432.805 724.603L265.319 438.84 349.14 713.9l166.803 214.625z"/><path fill="#00263e" fill-opacity=".675" d="M422.338 987.914l23.758-177.718 24.998 247.15L598.34 979.81z"/><path fill="#994e3a" fill-opacity=".745" d="M784.135 210.75l-96.179 99.943-45.54 221.907 175.553-234.196z"/><path fill="#faa580" fill-opacity=".337" d="M318.618 235.37l449.86 234.57-224.912-72.843 55.955-124.575z"/><path fill="#7b0500" fill-opacity=".478" d="M377.99 196.786l148.094 82.615L529.062-62 372.477 418.927z"/><path fill="#d6ddd9" fill-opacity=".275" d="M154.652 246.746l-74.084 1.929-7.47 68.476 129.979 22.033z"/><path fill="#7a090a" fill-opacity=".78" d="M706.807 686.3l-96.472-29.92 29.36 42.445 29.477 111.031z"/><path fill="#eee79a" fill-opacity=".243" d="M690.94 406.98l153.52 147.76-98.811 62.393-45.82-191.76z"/><path fill="#432411" fill-opacity=".729" d="M233.293 912.414l45.273-290.493 85.265 90.302-14.435 187.26z"/><path fill="#eef3f3" fill-opacity=".694" d="M403.321 379.768l40.183-30.916-32.706-50.455 3.764 42.26z"/><path fill="#90938e" fill-opacity=".431" d="M86.506 557.848l-50.548-90.011 79.617-105.702 76.698 113.967z"/><path fill="#c92100" fill-opacity=".431" d="M449.211 851.137l-77.22-99.96-18.773 57.87 65.844 123.877z"/><path fill="#48abe5" fill-opacity=".686" d="M608.486 925.755L534.059 1086l62.38-107.987-138-1.49z"/><path fill="#231718" fill-opacity=".914" d="M416.747 617.411l-7.764 189.995 67.908-136.98-88.494-158.175z"/><path fill="#0c0e02" fill-opacity=".698" d="M172.895 146.793l95.04 41.401 30.011-40.715-168.105 39.118z"/><path fill="#a0bcb8" fill-opacity=".49" d="M32.735 896.066L19.369 769.474-62 760.41V1086z"/><path fill="#57574d" d="M287.049 499.242l-69.14-177.906 9.286 83.59 23.807 156.392z"/><path fill="#d21e02" fill-opacity=".498" d="M507.69 444.892l42.179-54.854L364.74 273.992l102.636 9.42z"/><path fill="#430000" fill-opacity=".686" d="M115.684 693.156l-164.32 23.99 5.181-324.408 148.04 185.31z"/><path fill="#bd946a" fill-opacity=".467" d="M150.874 84.635l-4.524 68.206 138.984-10.64 26.133-54.817z"/><path fill="#4dc9ff" fill-opacity=".353" d="M588.813 481.287l34.242 28.577 53.766-98.295-4.725 9.52z"/><path fill="#ffdfd4" fill-opacity=".2" d="M622.764 729.09l-8.854 254.964 173.577-54.92-65.596-10.254z"/><path fill="#a25c45" fill-opacity=".757" d="M279.922 956.624l-64.057-2.71L123.696 1086h129.95z"/><path fill="#4a150e" fill-opacity=".627" d="M178.08 292.485L126.274 398.33l103.402 65.114-91.727-137.074z"/><path fill="#231011" fill-opacity=".427" d="M696.874 966.26l-30.303 14.914L698.72 1086l16.08-153.34z"/><path fill="#05001a" fill-opacity=".235" d="M556.155 956.421l-190.922 14.47-10.567-35.627 305.252-67.279z"/><path fill="#cac4d5" fill-opacity=".992" d="M311.537 424.412l61.743 58.792-6.165-217.938-37.3 152.908z"/><path fill="#1b1716" fill-opacity=".835" d="M81.476 188.925L70.326 52.732l76.785-6.395-5.86 205.569z"/><path fill="#e2e6f1" fill-opacity=".529" d="M553.275 367.714l47.567 12.706-16.248 38.158-25.562-24.095z"/><path fill="#50281b" fill-opacity=".659" d="M497.515-62L357.668-13.81l35.883 255.89-114.267-.92z"/><path fill="#8c0600" fill-opacity=".651" d="M696.323 460.13l-31.764 65.428-44.628-3.16 53.873-93.675z"/><path fill="#916e46" fill-opacity=".725" d="M322.226 408.598l-19.422-59.596 23.91-169.558 33.773 130.374z"/><path fill="#060001" fill-opacity=".451" d="M-4.003 733.798l57.509 47.628 103.102-132.37 81.68-242.438z"/><path fill="#720501" fill-opacity=".659" d="M636.045 409.008l43.83 113.206-35.035-90.38-81.386 71.536z"/><path fill="#808382" fill-opacity=".404" d="M505.905 951.669L438.42 824.971 324.77 655.588l39.295 81.962z"/><path fill="#cde2ff" fill-opacity=".306" d="M567.347 969.09l-4.778-152.355-37.605 116.5 115.688 9.79z"/><path fill="#cdedfb" fill-opacity=".4" d="M594.993 1005.563l-102.77 59.199-47.977-62.812-147.427 72.383z"/><path fill="#060406" fill-opacity=".263" d="M596.66 605.566L353.907 378.485 694.39 530.213 567.24 692.507z"/><path fill="#84d0fd" fill-opacity=".165" d="M554.26 540.539l115.253 236.577-35.834-20.008-161.296-184.631z"/><path fill="#940b08" fill-opacity=".584" d="M458.332 350.119l-78.376 141.786-3.7-136.211 26.261 26.413z"/><path fill="#d1e4f2" fill-opacity=".663" d="M658.607 1062.593l116.608-94.5-65.74 4.698L770.13 1086z"/><path fill="#a09db2" fill-opacity=".498" d="M465.978 796.216l-11.207 6.602 138.386 77.736L455.77 712.45z"/><path fill="#0f4973" fill-opacity=".4" d="M819.39 857.283l-93.456 123.392L898 797.725 786.009 948.138z"/><path fill="#3e3936" fill-opacity=".702" d="M58.863 205.505l261.734 79.022L-10.5 219.249 42.72-62z"/><path fill="#03030d" fill-opacity=".776" d="M48.634 200.939l16.382 183.463-84.196 35.585L-62 375.233z"/><path fill="#e5ae79" fill-opacity=".188" d="M281.678 218.156l-178.747-23.598 352.428-33.874-25.617-80.543z"/><path fill="#2a1609" fill-opacity=".635" d="M342.082 528.364l7.61 371.38L544.659 1086 305.027 800.127z"/><path fill="#52a5d3" fill-opacity=".929" d="M452.097 948.127l.414-7.483 47.52 34.651-19.157 1.319z"/><path fill="#4a615d" fill-opacity=".478" d="M437.032 679.467l-124.7-12.145 134.425-25.193-132.926-137.65z"/><path fill="#d8c9c5" fill-opacity=".925" d="M379.858 356.273l14.019 16.663 54.282-14.428-61.755-4.01z"/><path fill="#620001" fill-opacity=".91" d="M510.041 771.572l28.17-31.244 74.115 64.12-38.338 46.37z"/><path fill="#3b0000" fill-opacity=".686" d="M405.312 570.293l68.772-.78 90.78 127.188-124.405-59.508z"/><path fill="#76483b" fill-opacity=".549" d="M536.586 137.296l82.86-53.349 86.616 2.209-126.508 224.716z"/><path fill="#511d13" fill-opacity=".996" d="M302.633 564.855l14.264-179.333-43.52-66.377 81.802 280.368z"/><path fill="#6e3f34" fill-opacity=".533" d="M198.313 782.292L59.958 745.627l91.95-52.794 262.769 205.854z"/><path fill="#f0e4ff" fill-opacity=".318" d="M597.64 606.644l-36.23 94.813-.472 25.615-18.972-81.39z"/><path fill="#ac2e21" fill-opacity=".914" d="M393.047 271.573l17.764 73.31-44.908 18.636-4.467-5.612z"/><path fill="#892f1c" fill-opacity=".855" d="M796.743 1086L898 648.8l-87.45 51.132 32.521 317.282z"/><path fill="#ffaa89" fill-opacity=".463" d="M791.876 739.185l-14.915 12.832 31.68 103.927 21.228 27.28z"/><path fill="#eaeffd" fill-opacity=".471" d="M358.004 404.76l14.517-117.664-53.858-69.552 34.34 22.105z"/><path fill="#faf2e7" fill-opacity=".314" d="M709.473 430.293L652.9 412.986 898 589.963l-1.562 31.324z"/><path fill="#450005" fill-opacity=".502" d="M542.975 914.657l-80.52 37.684 66.604 6.443-138.667-205.86z"/><path fill="#a61f0f" fill-opacity=".573" d="M498.87 355.717l94.44 83.457-164.004-19.37 200.136-67.385z"/><path fill="#e4352a" fill-opacity=".592" d="M606.332 870.404l-51.962 26.783 20.256-36.363 41.904-51.508z"/><path fill="#f68857" fill-opacity=".498" d="M468.358 271.597l-111.016-34.18 164.913 121.592 52.396-8.313z"/><path fill="#4d3213" fill-opacity=".78" d="M812.281 669.024l35.12-115.097-89.736 192.31-64.06 168.867z"/><path fill="#231600" fill-opacity=".624" d="M279.016 318.445L373.242-62l-88.959 475.993L185.4 310.2z"/><path fill="#301217" fill-opacity=".725" d="M620.978-62l-2.27 127.897 72.356 28.215 2-58z"/><path fill="#9b6d3c" fill-opacity=".573" d="M898 665.32v-53.127L716.513 466.656l-21.542 88.38z"/><path fill="#690e02" fill-opacity=".773" d="M587.715-62L414.21 223.52l122.805 15.586 11.57-102.172z"/><path fill="#893a1f" fill-opacity=".812" d="M638.375 556.7l39.798 39.95L706.6 704.027l44.257-103.998z"/><path fill="#9f8c64" fill-opacity=".306" d="M379.25 962.795L264.583 762.582l83.362 211.843 87.93 18.278z"/><path fill="#b8b2ac" fill-opacity=".616" d="M113.48 379.243l58.885 113.79-83.628-218.945 78.92 7.188z"/><path fill="#7e1c0c" fill-opacity=".51" d="M783.007 208.106L596.399 412.021l.051-187.714 29.917-58.747z"/><path fill="#9ebee0" fill-opacity=".318" d="M377.201 474.92l96.904 70.74-38.577-93.637 39.086 45.11z"/><path fill="#060705" fill-opacity=".647" d="M246.767 7.124l119.368 182.635-5.54-121.584L79.537 87.09z"/><path fill="#ede7fb" fill-opacity=".353" d="M290.201 436.01l-5.29 12.694 6.864 28.122 17.743 34.262z"/><path fill="#e6e2fe" fill-opacity=".349" d="M326.66 513.617l13.275 23.48 55.77 33.044 2.103-27.05z"/><path fill="#8a1900" fill-opacity=".337" d="M77.86 1086L43.788 864.973l209.8-95.337L248.28 886.4z"/><path fill="#f7fcf9" fill-opacity=".384" d="M416.458 390.245l34.743 25.661 40.717-34.442-32.736-1.704z"/><path fill="#c4dcf7" fill-opacity=".22" d="M249.03 537.411l76.866-11.346-54.307 86.525 47.196 5.375z"/><path fill="#1a1100" fill-opacity=".396" d="M533.209 452.882l215.484 166.34-58.22-77.629-223.651 31.548z"/><path fill="#2b210d" fill-opacity=".627" d="M168.522 274.565l135.112-7.539-15.488 9.563-66.308-59.325z"/><path fill="#b43422" fill-opacity=".871" d="M466.633 377.641L436.53 290.97l2.837 73.194-50.77 19.307z"/><path fill="#a4a59f" fill-opacity=".361" d="M553.174 315.983l-53.69-7.23-22.823-61.29-131.194-13.651z"/><path fill="#d4cbe0" fill-opacity=".663" d="M633.332 691.582l-23.08 45.947 16.025 130.441 33.316-101.99z"/><path fill="#2e0002" fill-opacity=".686" d="M634.479 874.612l-6.216 20.886-23.717 22.214-37.329-7.128z"/><path fill="#a47e55" fill-opacity=".514" d="M251.247 257.401l-12.326-57.964 110.35-30.92-3.79-15.997z"/></svg>