<svg xmlns="http://www.w3.org/2000/svg" width="228" height="278" viewBox="0 0 836 1024"><path fill="#808e8e" d="M0 0h836v1024H0z"/><path fill="#11211e" fill-opacity=".941" d="M266.698 942.154l388.9-144.12 133.247 277.25L307.468 1086z"/><path fill="#4d2617" fill-opacity=".643" d="M217.604 77.08l190.02-124.854L469.17 313.61l-109.158 50.756z"/><path fill="#d9e5fa" fill-opacity=".671" d="M489.965 618.895l-46.286-182.492-279.633-22.978 100.073 218.197z"/><path fill="#004829" fill-opacity=".808" d="M621.14 610.159l-130.758 76.478-168.993 10.43-129.591-51.736z"/><path fill="#cad8fd" fill-opacity=".384" d="M898-62L761.611 596.29 423.812 25.673-62 17.23z"/><path fill="#045534" fill-opacity=".796" d="M226.553 769.27l57.046 47.526 264.4-26.208 95.453-61.977z"/><path fill="#d5e6fb" fill-opacity=".675" d="M179.32 835.915l496.735-64.688-221.952 95.366-162.122 24.931z"/><path fill="#acd5fd" fill-opacity=".412" d="M337.396 373.148L45.596-62-62 339.762l356.993 44.655z"/><path fill="#00492c" fill-opacity=".604" d="M672.327 355.09L568.829 515.695l38.296 38.571-208.137 9.59z"/><path fill="#d3e4fe" fill-opacity=".655" d="M219.038 691.62l355.421 19.275-114.992 37.992-235.802 4.12z"/><path fill="#d4ecfc" fill-opacity=".663" d="M543.563 301.711L516.481 460.36l131.885-87.926-339.157 1.004z"/><path fill="#ccd4e8" fill-opacity=".549" d="M-62 14.454L403.326-62 259.081 43.052l-48.303 92.165z"/><path fill="#264f3e" fill-opacity=".992" d="M624.9 675.436l-28.571 94.529-31.268-281.447 50.84 148.096z"/><path fill="#d3e6f2" fill-opacity=".82" d="M266.163 371.81L91.44 313.3l167.566-12.113 102.556 82.612z"/><path fill="#066d42" fill-opacity=".569" d="M594.68 289.955l-176.798-35.249 275.536 160.998-71.516 53.055z"/><path fill="#13754f" fill-opacity=".718" d="M371.678 885.297l301.572-79.041-270.634 136.812-208.22-43.907z"/><path fill="#e1f1ff" fill-opacity=".529" d="M135.256 409.56l187.996 239.592-166.703-71.046 178.68-153.13z"/><path fill="#006330" fill-opacity=".325" d="M615.38 291.484l-463.724-27.911L589.35 450.738l-488.792-48z"/><path fill="#c0b6ad" fill-opacity=".725" d="M581.335 500.688l125.118 224.219 44.814 228.537-45.342-31.914z"/><path fill="#a59e9a" fill-opacity=".804" d="M-45.065 405.415l235.113 146.546 53.79 414.178L-56.46 765.997z"/><path fill="#090402" fill-opacity=".392" d="M464.063 101.905l-205.315 62.971-23.352-101.762 125.44-87.826z"/><path fill="#dbcfef" fill-opacity=".263" d="M544.114-62l-1.316 337.582-376.311-118.234 173.65 152.374z"/><path fill="#8f624f" fill-opacity=".627" d="M695.048 494.525l-52.73-4.09L786.052 1086h87.854z"/><path fill="#cad7e2" fill-opacity=".976" d="M567.37 506.546l130.266-76.597-32.123 56.595-77.2 44.75z"/><path fill="#a29d99" fill-opacity=".835" d="M740.734 646.697l115.016 363.826L898 150.85 647.764 374.69z"/><path fill="#d3e3ff" fill-opacity=".639" d="M597.304 537.233L299.37 621.149l264.912-14.154 9.192-63.228z"/><path fill="#304d3f" fill-opacity=".275" d="M761.975 405.879L322.967 600.655-62 345.335 306.939 539z"/><path fill="#e1f0ff" fill-opacity=".604" d="M183.55 429.127l316.31 71.962 28.525-19.072-69.078-51.92z"/><path fill="#ced9f8" fill-opacity=".522" d="M601.316 722.24l4.199-5.79-163.862-14.79 135.584-46.336z"/><path fill="#2e2415" fill-opacity=".675" d="M1.036 407.703l-27.218 33.025 150.545-14.405-77.792-23.714z"/><path fill="#156845" fill-opacity=".745" d="M337.91 650.156l-141.585-42.182 17.51 61.957 117.2 36.314z"/><path fill="#0c3f2b" fill-opacity=".718" d="M613.155 760.427L550.47 578.78l74.806 131.395-295.36 68.31z"/><path fill="#ddf0ff" fill-opacity=".612" d="M590.716 419.692l29.29-32.666-137.868-74.06-53.966 20.773z"/><path fill="#9daa44" fill-opacity=".373" d="M-62 944.524l363.596-11.082L318.951 1086H-24.567z"/><path fill="#080108" fill-opacity=".4" d="M728.867 933.836L580.554 796.37 312.798 1086h473.888z"/><path fill="#005f34" fill-opacity=".647" d="M183.106 535.05l38.78 9.885-31.25-75.27-22.367 33.46z"/><path fill="#dae6f2" fill-opacity=".894" d="M101.17 406.794l-31.288-6.002 7.477-55.725 8.489-27.247z"/><path fill="#006f3d" fill-opacity=".549" d="M143.825 420.754l-17.396 14.423L93.09 355.51l18.942-50.412z"/><path fill="#117c55" fill-opacity=".643" d="M133.32 400.04l41.347-62.53 27.998 41.333 193.48 53.931z"/><path fill="#cfdef2" fill-opacity=".757" d="M437.072 570.713l-215.234 57.506 248.565-35.591-27.046-121.993z"/><path fill="#965843" fill-opacity=".498" d="M420.984 145.337L250.11 155.01l77.014 207.062 108.243-74.198z"/><path fill="#043c27" fill-opacity=".584" d="M599.772 548.572l-72.489-98.892 81.808-54.951L485.35 555.02z"/><path fill="#160504" fill-opacity=".188" d="M314.1 449.19l178.058 124.976-160.595-79.261-128.056 55.902z"/><path fill="#c5d1dd" fill-opacity=".459" d="M852.746-61.857l-4.152 137.42-269.47 30.693-289.499-130.03z"/><path fill="#a5a9aa" d="M629.076 616.25l16.472 95.105L654 821.72l-34.913-15.305z"/><path fill="#8ba0b8" fill-opacity=".984" d="M-62 433.128L.59 80.988l230.137 20.87 33.032 112.368z"/><path fill="#deecfb" fill-opacity=".718" d="M270.366 681.995l50.11 68.6-82.611-7.135-43.28-63.579z"/><path fill="#7a9cc0" fill-opacity=".478" d="M599.763 317.098L898 290.478l-.46-192.44-462.07 20.164z"/><path fill="#dff0ff" fill-opacity=".561" d="M299.92 401.984l-120.613-31.006 169.073 8.725-99.772-81.133z"/><path fill="#e5ecff" fill-opacity=".376" d="M370.914 527.326L269.946 631.423l144.034 1.154-286.856-201.733z"/><path fill="#047349" fill-opacity=".631" d="M641.806 460.572l-197.857-32.656 46-56.003L566.421 494.7z"/><path fill="#002611" fill-opacity=".329" d="M179.58 289.382l56.024-47.854 116.354 134.56 56.263-58.8z"/><path fill="#22825d" d="M336.397 783.294l8.53-32.519-101.652 1.992 8.842 71.467z"/><path fill="#d4e5f4" fill-opacity=".953" d="M189.677 300l184.92 77.197-253.436-50.234 13.364 59.614z"/><path fill="#e3f4ff" fill-opacity=".518" d="M285.63 889.985l161.87-22.571-86.798-48.15-128.776-4.267z"/><path fill="#0e3024" fill-opacity=".569" d="M576.866 593.678l-74.27 28.01-92.89-6.483 191.66 44.099z"/><path fill="#03030d" fill-opacity=".498" d="M598.947 548.534l55.889-54.55 43.796-.515-99.367 30.438z"/><path fill="#b5c8e4" fill-opacity=".251" d="M644.001 113.798L451.38 259.26l-56.013-146.603-47.766 75.301z"/><path fill="#238760" fill-opacity=".867" d="M294.964 948.233l-20.075-12.563 271.576-50.748-328.195 3.03z"/><path fill="#134933" fill-opacity=".643" d="M534.351 798.784l89.197-50.391-3.05-39.014-238.87 55.768z"/><path fill="#8d8d8c" fill-opacity=".42" d="M524.759 229.281l204.45 228.785L898 741.142 763.103 217.068z"/><path fill="#3a5352" fill-opacity=".996" d="M639.564 391.895l2.259 29.568-28.775-83.132-16.293 35.075z"/><path fill="#6c9d8e" fill-opacity=".988" d="M425.69 357.385l-57.984 45.926 59.588 33.18 57.582-54.418z"/><path fill="#dad1cb" fill-opacity=".306" d="M651.717 451.685l204.209 342.62L795.68 916.92l-24.02-369.147z"/><path fill="#106f4d" fill-opacity=".71" d="M393.4 427.936l-4.191-37.025 3.199-13.498-202.781 33.872z"/><path fill="#896f5d" fill-opacity=".631" d="M709.102 543.129l71.18 164.045-3.537 51.708-193.943-198.486z"/><path fill="#121519" fill-opacity=".867" d="M841.423 1059.378L271.271 930.636l183.22-18.048 157.605 18.916z"/><path fill="#9b9996" fill-opacity=".784" d="M115.612 412.345l140.705 419.878-41.225 95.804-154.575 7.096z"/><path fill="#abb9cd" fill-opacity=".992" d="M392.089 690.728l190.995.906-145.025 58.329-39.234 10.068z"/><path fill="#e8ecff" fill-opacity=".529" d="M591.913 333.446l-64 31.432-5.728-13.834 5.111 107.947z"/><path fill="#e8f1ff" fill-opacity=".447" d="M366.514 460.133l-207.236-57.502-22.459-32.965 22.421 100.999z"/><path fill="#002b21" fill-opacity=".388" d="M562.796 280.154l-183.63 71.255 74.972-102.496 20.947 33.404z"/><path fill="#111518" fill-opacity=".89" d="M339.942 1086l359.425-156.617-60.278-145.075 47.426 46.105z"/><path fill="#d6e6f6" fill-opacity=".686" d="M322.04 596.85l120.313 31.705-187.474 2.005-68.883-91.143z"/><path fill="#217957" fill-opacity=".851" d="M533.57 361.404l29.697-88.123-118.319 41.116 173.645-5.203z"/><path fill="#9c9b9c" fill-opacity=".725" d="M78.808 330.8l108.75-29.84-167.48-64.985L-62 475.812z"/><path fill="#fdfff8" fill-opacity=".125" d="M616.799 767.937l97.847 164.365 46.314-30.872-111.18-301.08z"/><path fill="#75736a" fill-opacity=".671" d="M780.238 725.176l-79.87-22.397-8.643 27.268-66.208 52.666z"/><path fill="#010603" fill-opacity=".333" d="M315.451 232.156l75.389-61.719 22.985 41.222-102.768-22.016z"/><path fill="#d5e3f5" fill-opacity=".792" d="M386.845 413.14l3.851 144.906-76.442 60.74 91.134-7.67z"/><path fill="#8f939a" fill-opacity=".671" d="M217.873 567.372l28.764-83.714 4.815 25.825 108.302-67.51z"/><path fill="#e3eeff" fill-opacity=".635" d="M339.71 485.284l-46.229 13.128 61.03 62.663.79-55.466z"/><path fill="#020317" fill-opacity=".302" d="M463.46 552.466l-71.851-26.16 32.683-36.752-9.324 34.072z"/><path fill="#09422b" fill-opacity=".588" d="M475.558 500.085l-20.707 69.871 116.08-33.02-4.753-50.647z"/><path fill="#dfedff" fill-opacity=".616" d="M310.78 441.501l191.172-.763 24.725 4.389-118.654 54.168z"/><path fill="#322722" fill-opacity=".678" d="M271.924 143.264l59.407-132.106 122.762 53.028-114.6 101.524z"/><path fill="#035b36" fill-opacity=".341" d="M182.813 413.643l-7.002-124.339-40.352 155.404-35.114-62.016z"/><path fill="#bfd4ef" fill-opacity=".482" d="M657.534 812.62l-146.4-9.812 114.496-42.903 12.46 38.628z"/><path fill="#1d4f3e" fill-opacity=".761" d="M639.68 870.263l-130.228-19.312 77.26-45.291 66.977 12.114z"/><path fill="#d7e6f2" fill-opacity=".647" d="M551.327 505.764L697.08 484.22l5.815 7.408-34.535-34.205z"/><path fill="#8eb2d7" fill-opacity=".624" d="M425.671 199.156l414.195.33 49.994-49.347-301.753-20.866z"/><path fill="#f7bf9b" fill-opacity=".302" d="M358.837 250.673l-18.396 28.768 18.328-83.485 53.973 63.605z"/><path fill="#754230" fill-opacity=".624" d="M801.034 990.13L898 856.046 882.262 1086 756.139 964.918z"/><path fill="#c7d3e5" fill-opacity=".494" d="M563.046 735.257l28.343-59.246-4.569 34.624-139.99-17.038z"/><path fill="#0e593b" fill-opacity=".62" d="M479.455 779.106l-133.615-28.97-66.284 44.449 99.361 21.361z"/><path fill="#d1d7db" fill-opacity=".549" d="M-62 29.266l87.17 62.46L-18.07-62 353.088 6.349z"/><path fill="#71a5da" fill-opacity=".482" d="M-62 149.117l288.778-18.887 31.335 67.028-280.045 3.51z"/><path fill="#976c5d" fill-opacity=".965" d="M233.622 195.606l218.433-28.148-74.234-49.286-19.495 53.205z"/><path fill="#026545" fill-opacity=".353" d="M492.981 400.852l66.704 103.468-46.236-103.79 36.739-73.736z"/><path fill="#bdd1da" d="M473.496 347.902l-85.281 25.287-92.857 5.463 173.156-41.14z"/><path fill="#0d4c32" fill-opacity=".663" d="M535.612 667.443l-251.686-36.848 13.833 68.89 43.253.371z"/><path fill="#35424f" fill-opacity=".529" d="M260.686 877.28L293.315 1086l66.37-96.682-135.433-114.646z"/><path fill="#4f404c" fill-opacity=".243" d="M250.337 546.217l-92.232-113.415 147.932 159.08 75.969-15.346z"/><path fill="#d8e3f0" fill-opacity=".925" d="M275.099 422.396l-27.019 61.33 16.159 117.06-.415-89.245z"/><path fill="#a9a199" fill-opacity=".698" d="M625.513 781.917l26.596-145.343-57.095-5.706 25.228-105.837z"/><path fill="#d5e1f1" fill-opacity=".627" d="M198.611 611.874l96.113-21.4 83.497 25.467-203.064-77.725z"/><path fill="#422f2e" fill-opacity=".773" d="M465.1 270.24l-144.127 74.043 22.143 24.063 71.076-31.324z"/><path fill="#d7e8fa" fill-opacity=".722" d="M144.539 330.305l157.4-12.63 20.087 49.362-58.953 3.427z"/><path fill="#cbd4dc" fill-opacity=".792" d="M490.982 18.233L377.194 2.995 885.09-6.397 898 14.928z"/><path fill="#166d49" fill-opacity=".671" d="M280.328 641.675l-67.926-38.597-8.228 81.507 181.335-56.494z"/><path fill="#9b9fa2" fill-opacity=".992" d="M645.228 402.889l-24.03-85.83-53.012 23.999L898 295.424z"/><path fill="#98938e" fill-opacity=".831" d="M25.968 438.158l120.945-6.095 42.776 142.954 7.115 59.18z"/><path fill="#0e744c" fill-opacity=".392" d="M277.926 371.553l-115.467-25.437 209.38 61.22-46.947-22.49z"/><path fill="#028452" fill-opacity=".373" d="M315.92 326.865l-25.134-55.92-78.476-10.475-26.482 17.534z"/><path fill="#c9d8ed" fill-opacity=".8" d="M492.626 559.847l66.246 26.209 3.164 15.772-212.49 22.602z"/><path fill="#135a3a" fill-opacity=".612" d="M181.308 539.408l31.218-41.459-52.155-30.222 14.934 51.996z"/><path fill="#103e2b" fill-opacity=".561" d="M487.584 613.214l41.927 61.768 47.994-37.593 13.252-23.7z"/><path fill="#a1b5c2" d="M440.567 801.602l55.346-12.27 29.196 54.408 59.884-42.778z"/><path fill="#9f796a" fill-opacity=".808" d="M338.647 349.35l-90.885-177.672 56.021 30.914 3.63 119.285z"/><path fill="#c1d2e7" fill-opacity=".769" d="M456.814 602.623l5.115-76.073-6.884-96.953-20.507 184.733z"/></svg>