<svg xmlns="http://www.w3.org/2000/svg" width="228" height="278" viewBox="0 0 836 1024"><path fill="#968384" d="M0 0h836v1024H0z"/><g fill-opacity=".502"><path fill="#5d1733" d="M690 1086L506-62 210 486z"/><path d="M802 1066L238 866l8 220z"/><path fill="#cff1da" d="M814 946l84-836L554-2z"/><path fill="#fff" d="M254 434L98 550l136 320z"/><path fill="#dbf7e8" d="M-62 110l372 268 88-356z"/><path fill="#ffffde" d="M278 1086H-62l40-460z"/><path fill="#1a1602" d="M390-62l4 536L610 58z"/><path fill="#170000" d="M46 730l44-360 96 16z"/><path fill="#e38fc5" d="M830 734L622 266 454 442z"/><path fill="#632d2d" d="M738 846l-524-84 548-124z"/><path fill="#a8edc3" d="M-38 38l-8 664 268-592z"/><path fill="#984e74" d="M626 526l-156 500-348-776z"/><path fill="#fff" d="M282 682l-88-284-88 236z"/><path d="M282 1062l-56-220 420 240z"/><path fill="#400c00" d="M62 738l20-204 88 244z"/><path fill="#1a0d03" d="M574 290L462 422 274 290z"/><path fill="#000721" d="M882 70L794-62 718 38z"/><path fill="#0a0b0d" d="M470-62L590 78 346 190z"/><path fill="#c2beae" d="M606 950l240 136 52-408z"/><path fill="#ce74a3" d="M542 1002L118 798l144-72z"/><path fill="#e4ded5" d="M-10 66l348 24 60 188z"/><path fill="#95eeb6" d="M318 94L162-22l304 8z"/><path fill="#e6edf3" d="M-22 914l124-24-88-352z"/><path fill="#94d4b3" d="M898 526L594 294 574-62z"/><path fill="#090504" d="M498 642l-212-44 156-20z"/><path d="M710 1086l-52-104-220 20z"/><path fill="#ef9dd1" d="M458 970l220-32-76 52z"/><path fill="#fffaec" d="M754 650l144 152-132 12z"/><path fill="#ffd77e" d="M230 1086l-292-96 300-52z"/><path fill="#654937" d="M590 98l-232 44 180 240z"/><path fill="#f2ede7" d="M870-34L770 262l76 280z"/><path fill="#a55984" d="M438 442L258 794l-24-548z"/><path fill="#80bf9c" d="M90 354l192-180-344-52z"/><path fill="#200c00" d="M574 814l164-60-8 76z"/><path fill="#fff" d="M246 538l-132 72 96 164z"/><path fill="#431816" d="M90 430l188-40-160-48z"/><path fill="#bf85a4" d="M654 338l244 308-496-228z"/><path fill="#7bbf99" d="M238 942l-300 4 216-88z"/><path fill="#ffb8e8" d="M642 662l-40-88 168 56z"/><path fill="#70be95" d="M766 122L514 266l264 4z"/></g></svg>