<svg xmlns="http://www.w3.org/2000/svg" width="228" height="278" viewBox="0 0 836 1024"><path fill="#736f73" d="M0 0h836v1024H0z"/><g fill-opacity=".502"><path fill="#fff" d="M-62 1006l644-828 44 816z"/><path d="M830-62L-62 14l960 400z"/><path d="M-62-62l388 40L2 818z"/><path fill="#fff" d="M90 606l668-92-556-232z"/><path d="M862 962L566-2l312-60z"/><path fill="#fff" d="M806 866L442 226l224 96z"/><path d="M334 238L-62 502 18-62zm420 644l-116 44-40-428z"/><path fill="#f7ffff" d="M622 598l-12 392-420-156z"/><path d="M898-30L294-62l544 584z"/><path fill="#672f16" d="M274 1034L14 590l204 44z"/><path fill="#00001d" d="M78 110L-62 730l192 116z"/><path fill="#f9ffff" d="M518 538L298 258 130 430z"/><path fill="#f8a673" d="M290 206L278 26l208 160z"/><path fill="#ffd7ae" d="M858 1078L738 962l16-336z"/><path fill="#902a37" d="M318 666l32-108 388 44z"/><path d="M854 10l28 964L558 2zM-62 470l384-216L34-62z"/><path fill="#f2feff" d="M302 966L194 570l408 424z"/><path fill="#dde8ef" d="M314 1086L26 806l-88 212z"/><path fill="#efffff" d="M350 394l284-100 108 256z"/><path fill="#f1ffff" d="M102 598l64-244 60 276z"/><path fill="#000005" d="M746 1046l-252 40-132-112z"/><path d="M474 230l48-292 368 472zM302 6L-62-18 42 666z"/><path fill="#ffb680" d="M106 714l184 252-124-324z"/><path fill="#00001a" d="M662 670l64 148-132 192z"/><path fill="#ffb688" d="M778 670L618 506l192 500z"/><path fill="#00002f" d="M226 618l-32 92 40 92z"/><path fill="#92a9c0" d="M598 394l8 400-108-372z"/><path fill="#935f39" d="M346-62l156 356-188 44z"/><path fill="#e3f9ff" d="M182 338l340 56-100 212z"/><path fill="#e7f2ff" d="M566 694l-216-52-48 344z"/><path fill="#860002" d="M550 550l-72 108 20-112z"/><path fill="#fb885c" d="M314 1086h188L202 870z"/><path fill="#eff9ff" d="M286 558l20-288-140 84z"/><path fill="#e5f6ff" d="M490 246l-32 416 148-364z"/><path fill="#091e43" d="M638 770l52-140-96-120z"/><path fill="#4c5d66" d="M242 498l-24 168 76-60z"/><path fill="#f3ffff" d="M614 510l128 24-112 52z"/></g></svg>