<svg xmlns="http://www.w3.org/2000/svg" width="228" height="278" viewBox="0 0 836 1024"><path fill="#a2b0bb" d="M0 0h836v1024H0z"/><path fill="#a36046" fill-opacity=".62" d="M324.536 54.277l177.4-106.132-47.265 428.818-67.612 14.498z"/><path fill="#66c2fe" fill-opacity=".435" d="M327.337 979.171L544.889 1086l106.38-689.128-458.554-41.305z"/><path fill="#f8fcff" fill-opacity=".404" d="M-62 1009.271l725.618-106.236L631.43 274.52 881.879 1086z"/><path fill="#021c36" fill-opacity=".259" d="M247.403 481.393l296.962 165.785-291.263 150.288-119.717-268.84z"/><path fill="#812900" fill-opacity=".329" d="M646.28 1079.852l19.911-389.685-86.436-140.449-2.956 172.744z"/><path fill="#e5f7fa" fill-opacity=".596" d="M551.198 693.273l86.329-287.029-217.115 473.1 104.664 68.284z"/><path fill="#fff8ee" fill-opacity=".545" d="M441.118 325.362l98.317-341.868-37.666 294.159 274.616 195.605z"/><path fill="#d4967b" fill-opacity=".698" d="M128.23 782.515l25.96-165.628 197.746 420.068L338.301 1086z"/><path fill="#1c6a49" fill-opacity=".608" d="M898 654.853L768.745 467.875l12.108-58.069 107.632-41.438z"/><path fill="#fff6eb" fill-opacity=".812" d="M886.535 970.832L867.51 1086H648.425l-1.59-138.924z"/><path fill="#6a2005" fill-opacity=".341" d="M128.492 516.64l176.95 139.677-44.623-106.106 99.178-22.245z"/><path fill="#bf9c95" fill-opacity=".878" d="M844.02 934.05L898 640.777l-112.661 241.68-87.132 83.425z"/><path fill="#8acdfc" fill-opacity=".667" d="M318.56 306.87l217.853 201.842-397.746-10.837 33.277-103.292z"/><path fill="#88d2ff" fill-opacity=".427" d="M464.887 617.245l163.276-238.668-67.913-55.366-309.844 287.684z"/><path fill="#f0e6d3" fill-opacity=".729" d="M202.227 1086L136.84 949.6l-160.87 4.075L-59.49 1086z"/><path fill="#3e89b5" fill-opacity=".722" d="M573.683 632.36l61.338-168.71-6.057-.231 12.399 217.607z"/><path fill="#ffe1cc" fill-opacity=".416" d="M477.352 408.18l58.374-349.287-214.525 33.272 165.65 31.626z"/><path fill="#76b6e2" fill-opacity=".549" d="M425.259 1086l52.033-393.903-190.534 7.942-46.686 98.641z"/><path fill="#c2e2f9" fill-opacity=".42" d="M754.455 913.532l16.27-81.86-17.39-585.313-121.489 379.255z"/><path fill="#91c2eb" fill-opacity=".82" d="M183.378 584.11l62.642 31.222-97.83 31.145-20.68-21.579z"/><path fill="#011b4f" fill-opacity=".227" d="M338.585 605.089l243.846 45.854-294.124 1.291-179.859-106.576z"/><path fill="#825547" fill-opacity=".576" d="M391.614 84.445l18.96 291.508 51.8 22.682-15.207-169.829z"/><path fill="#4e9fe2" fill-opacity=".337" d="M670.483 626.275L690.95 863.2l32.206 122.149 5.504-263.47z"/><path fill="#93cef6" fill-opacity=".714" d="M567.923 753.68l58.84 245.522-236.96-149.059L455.1 1086z"/><path fill="#a5a9ae" fill-opacity=".965" d="M898 10.496L260.57-62 524.535 53.294l119.729 311.66z"/><path fill="#99c8e9" fill-opacity=".984" d="M183.135 878.912L166.214 1086h74.18l20.97-102.14z"/><path fill="#a79c99" fill-opacity=".384" d="M273.774-62L-62-28.659v602.746l476.766-364.222z"/><path fill="#380600" fill-opacity=".267" d="M373.605 38.952l134.017-1.358-150.202 120.62 127.855-18.984z"/><path fill="#fee8df" fill-opacity=".682" d="M263.751 873.62l-43.376-99.932 27.333 28.422 132.017 263.626z"/><path fill="#c4947d" fill-opacity=".722" d="M214.96 905.046l20.561-265.122-71.686-6.387-37.747 23.486z"/><path fill="#c5928a" fill-opacity=".776" d="M446.744 152.58l-170.688-1.66 197.055 71.412 23-36.837z"/><path fill="#ff5e1e" fill-opacity=".408" d="M126.211 517.301l67.88 4.911 78.102 32.208-118.23 3.518z"/><path fill="#babfc5" fill-opacity=".769" d="M591.87 296.075l233.818 320.473-190.785-65.118L898 282.971z"/><path fill="#f0fcfb" fill-opacity=".51" d="M507.191 893.758l75.154-342.16-59.102 129.388-49.597 23.08z"/><path fill="#9daeb7" fill-opacity=".89" d="M524.484 690.144l31.489-110.251 44.87-87.878-79.93 3.799z"/><path fill="#02669a" fill-opacity=".188" d="M264.115 850.157l-38.182-397.054 55.664 20.095L303.64 786.15z"/><path fill="#e6a187" fill-opacity=".486" d="M664.564 854.01l-19.547 200.753-45.726-16.9 69.216-285.249z"/><path fill="#c9f2ff" fill-opacity=".416" d="M665.363 426.717l-178.124-25.96 31.82-93.664 114.106 53.635z"/><path fill="#f2fafa" fill-opacity=".694" d="M658.478 397.919l4.136 241.919 16.812-178.181 7.275-24.104z"/><path fill="#000002" fill-opacity=".153" d="M575.294 763.113l48.318-241.379-59.02 112.138 64.006 70.49z"/><path fill="#fff3e4" fill-opacity=".616" d="M461.16 65.065l57.83 125.175-63.837 120.7L526.9 95.6z"/><path fill="#a28271" fill-opacity=".173" d="M-62 930.087l179.431 31.84 117.937-76.882-198.4-468.737z"/><path fill="#ffefdf" fill-opacity=".663" d="M683.111 819.92l-15.708-186.542-8.607 260.11L652.267 1086z"/><path fill="#42080f" fill-opacity=".525" d="M458.972 223.243l-5.04 11.238-49.846 3.914 17.222-21.296z"/><path fill="#daf7ff" fill-opacity=".318" d="M378.293 275.634l-9.285 18.393-216.519 148.725 28.33-66.71z"/><path fill="#cef" fill-opacity=".565" d="M747.212 602.13l-131.487-18.025 87.85 80.965 67.7 272.002z"/><path fill="#00090f" fill-opacity=".243" d="M561.173 619.783l-46.532-2.745-54.496 1.745-17.474 39.776z"/><path fill="#624c3c" fill-opacity=".471" d="M321.273 81.302l181.749-34.718 4.206 15.946-108.144-47.575z"/><path fill="#0c462a" fill-opacity=".596" d="M898 657.122v-315.88l-86.118 148.232z"/><path fill="#c0938b" fill-opacity=".91" d="M423.927 123.716l-80.076.514 25.52-52.038 120.688-1.588z"/><path fill="#c88e87" fill-opacity=".6" d="M372.988 1021.677L243.351 1086l22.52-185.66 6.09 90.604z"/><path fill="#5ea1cb" fill-opacity=".455" d="M262.479 534.286l-118.827-31.524 161.756-48.532-34.412 239.304z"/><path fill="#ab5c30" fill-opacity=".22" d="M672.83 745.509L641.156 978.11l-59.044-321.44 72.867 10.848z"/><path fill="#67b1d9" fill-opacity=".439" d="M621.268 692.789l-4.285-154.34-58.023-189.837L663.2 508.226z"/><path fill="#002a4f" fill-opacity=".259" d="M249.903 501.78l-6.363 141.264-4.684 111.847 41.083-268.844z"/><path fill="#79b6e0" fill-opacity=".478" d="M339.655 487.96l207.148 176.924-107.5-273.494-58.05 313.768z"/><path fill="#6b8278" fill-opacity=".776" d="M128.435 589.512L137 542.976l164.856 28.879-99.81.948z"/><path fill="#612d1f" fill-opacity=".471" d="M442.761 117.831l56.576 17.47-40.805 23.636-16.813-44.09z"/><path fill="#3c0c00" fill-opacity=".227" d="M478.237 204.51l-74.058-13.144 31.938-68.517-68.735 11.126z"/><path fill="#2c3a4d" fill-opacity=".561" d="M238.992 636.242L395.388 619.8l-.78 42.057 32.162-38.875z"/><path fill="#909598" fill-opacity=".514" d="M809.806-2.195L371.684-62 550.895 45.529 898 49.99z"/><path fill="#860100" fill-opacity=".106" d="M688.552 923.227l141.845-6.978-18.62 2.626-110.473 82.778z"/><path fill="#8ec4eb" fill-opacity=".773" d="M244.849 636.012l-99.827-17.348-25.667-28.432 117.115 11.842z"/><path fill="#ffeff3" fill-opacity=".404" d="M453.169 192.914l10.609-29.618-25.986-17.226-.528 20.058z"/><path fill="#b48570" fill-opacity=".384" d="M353.775 339.796L323.218 136.67l103.709 58.225-47.03 178.58z"/><path fill="#a9acb1" fill-opacity=".69" d="M560.18.739l-65.423 270.296 39.37 51.162L898 284.47z"/><path fill="#ffc69a" fill-opacity=".365" d="M423.467 27.533L530.809-62l-56.492 172.581 66.992-70.005z"/><path fill="#29435f" fill-opacity=".706" d="M369.69 520.591l-57.359 22.104-24.602-10.224-42.26 5.988z"/><path fill="#81c2f1" fill-opacity=".439" d="M567.31 1021.201l66.39-63.999-92.463-229.782-5.823 53.94z"/><path fill="#d6e663" fill-opacity=".6" d="M199.095 558.46l-12.51-11.555 58.4 11.76-7.216 7.976z"/><path fill="#c7ecfb" fill-opacity=".412" d="M488.004 920.723l-62.696 85.63 154.883 29.444L469.367 661.73z"/><path fill="#fa0708" fill-opacity=".22" d="M265.544 567.77L122.07 514.713l141.83 19.65-9.58 12.2z"/><path fill="#def1ff" fill-opacity=".341" d="M787.303 908.247l-128.515 9.373 3.653 168.38L771.42 660.871z"/><path fill="#94ccf5" fill-opacity=".647" d="M608.615 518.363l-24.282-146.125L373.86 399.07l213.146 100.808z"/><path fill="#7e5d46" fill-opacity=".322" d="M444.04 239.708l-28.726 168.726 74.185-34.4-107.135-109.15z"/><path fill="#f8f1eb" fill-opacity=".769" d="M310.75 927.475l40.34 53.027 1.929 31.274-115.06-198z"/><path fill="#919b99" fill-opacity=".639" d="M548.111 985.384l-15.24 32.85 5.587-16.818-24.403-17.697z"/><path fill="#050001" fill-opacity=".373" d="M352.44 624.053l39.177-3.242-16.113.036-16.023 44.735z"/><path fill="#71aacf" fill-opacity=".867" d="M426.798 658.88l97.466-107.44 25.741 51.72-123.325 15.935z"/><path fill="#9b9b9c" fill-opacity=".525" d="M315.75-62L-60.77 32.795l418.564 6.289 74.168 65.65z"/><path fill="#7da298" fill-opacity=".545" d="M757.308 415.044L869.752 636.92 749.517 462.285 898 336.226z"/><path fill="#b5b5bb" fill-opacity=".612" d="M898 566.802l-173.764-49.758 51.129 184.765 15.48 188.996z"/><path fill="#359ad9" fill-opacity=".212" d="M681.714 750.085l39.868 80.228-21.771-194.824-24.334-25.368z"/><path fill="#6da4c7" fill-opacity=".455" d="M288.955 904.025l2.539-89.618 245.295-142.939-318.455 39.841z"/><path fill="#ffcda3" fill-opacity=".431" d="M491.194 360.07l-14.107-160.556-27.984 122.954 9.603 43.03z"/><path fill="#fffff7" fill-opacity=".627" d="M861.692 934.3L898 1086H782.382l-66.45-104.941z"/><path fill="#f8f6ed" fill-opacity=".6" d="M647.947 619.669l23.8-73.267-.093 136.506L685.4 825.61z"/><path fill="#46637c" fill-opacity=".463" d="M381.795 684.531l108.478 4.142-117.053-64.671 78.475 9.886z"/><path fill="#411b00" fill-opacity=".341" d="M460.182 64.24l7.328-41.046 41.78 25.194-116.124 11.64z"/><path fill="#ffedeb" fill-opacity=".388" d="M461.052 184.32l-22.318-45.385 26.45 79.803-25.118-4.908z"/><path fill="#0f0508" fill-opacity=".251" d="M452.991 656.195l2.834-34.321 89.267 43.349-49.337-41.63z"/><path fill="#bcc4ca" fill-opacity=".945" d="M796.341 578.975l-64.817-183.487-39.365-74.392-15.803 199.473z"/><path fill="#ab8569" fill-opacity=".459" d="M258.35 955.61l-83.178-103.483-30.597-75.672 59.666 14.015z"/><path fill="#b4ddf4" fill-opacity=".353" d="M580.851 648.22l2.51 76.304-51.181-61.394-257.756 215.818z"/><path fill="#135079" fill-opacity=".208" d="M551.626 674.93l78.357-176.56 32.477 73.835-5.877-64.442z"/><path fill="#6ca7c9" fill-opacity=".737" d="M270.892 613.077l9.629-91.684 61.568 68.226 147.886 28.977z"/><path fill="#fff8ef" fill-opacity=".525" d="M467.98 275.581l87.511 46.994-75.401 23.045 48.069-286.068z"/><path fill="#26170a" fill-opacity=".169" d="M261.97 635.599l81.217 27.137-65.014-49.447 169.814 10.515z"/><path fill="#012951" fill-opacity=".239" d="M544.657 584.417l-35.409-79.635 11.435 51.288 19.197 10.855z"/><path fill="#a4a9b0" fill-opacity=".792" d="M322.147 153.814l21.792-137.417L-62 555.817l438.73-305.133z"/><path fill="#6a9aba" d="M502.85 645.823l-87.02 26.31 15.247-37.412 67.124 61.71z"/><path fill="#675f56" fill-opacity=".529" d="M635.893 709.666l11.419-45.612-43.025-2.715-28.468 7.11z"/><path fill="#7fafd2" fill-opacity=".878" d="M412.472 624.372L210.09 278.266l194.509 333.133 3.346 122.612z"/><path fill="#ae7e73" fill-opacity=".988" d="M371.722 243.88l-39.727-120.62-11.539 49.987 124.858 27.464z"/><path fill="#ff9d47" fill-opacity=".137" d="M564.056 576.49l61.16-45.312-91.172-43.022 3.54 53.096z"/><path fill="#a6abb2" fill-opacity=".773" d="M131.564 575.89l48.656-310.911L-62 397.57l214.138 570.984z"/><path fill="#523320" fill-opacity=".302" d="M344.31 101.772l41.002-56.26 134.792 10.28-183.04 3.673z"/><path fill="#4c3a93" fill-opacity=".384" d="M288.76 606.035l-124.198-18.51-34.255-16.623 26.677-20.384z"/><path fill="#76b0d5" fill-opacity=".545" d="M300.082 640.824l43.44 11.312 4.107-96.95 144.077 12.003z"/><path fill="#f3ffff" fill-opacity=".318" d="M564.431 611.893l-41.493 5.861 42.271-58.943 53.818-54.596z"/><path fill="#92c5ec" fill-opacity=".271" d="M393.132 659.995l25.901-10.368-189.393 144.16 165.39-171.451z"/><path fill="#ecf7f7" fill-opacity=".663" d="M507.09 875.336l49.044-232.522-35.935 24.156 3.788 218.38z"/><path fill="#f9ada3" fill-opacity=".569" d="M516.105 168.816l-.308-30.199 29.74 5.929-27.031 53.643z"/><path fill="#ffd9c9" fill-opacity=".216" d="M223.381 814.204l124.272 209.243L221.039 737.3l-56.835-60.06z"/><path fill="#f9fcf9" fill-opacity=".776" d="M558.012 986.883l30.457 90.597 298.716-67.93-377.061 41.98z"/><path fill="#a7dcff" fill-opacity=".282" d="M152.037 449.722l81.509 71.165-107.543-7.688 269.723-265.414z"/><path fill="#a84519" fill-opacity=".188" d="M793.078 917.212L898 790.572l-157.34 160.03 31.26 5.277z"/><path fill="#b5bdce" fill-opacity=".494" d="M681.557 866.537l12.742 112.846 42.975-23.004-59.813-210.132z"/><path fill="#588dbb" fill-opacity=".439" d="M344.568 964.062l91.353-48.484 8.705-20.04-104.168 62.753z"/><path fill="#97c8ec" fill-opacity=".616" d="M476.992 847.993L327.963 891.86l199.513-138.9L307.73 979.043z"/></svg>