<svg xmlns="http://www.w3.org/2000/svg" width="228" height="278" viewBox="0 0 836 1024"><path fill="#766971" d="M0 0h836v1024H0z"/><path fill="#b0bbd1" fill-opacity=".749" d="M628.272 1033.972l-199.211 21.183 29.154-681.282L725.957 816.37z"/><path fill="#192549" fill-opacity=".835" d="M543.601 901.178l-50.132 79.378 31.161-404.863 51.531-16.078z"/><path fill="#141e3b" fill-opacity=".686" d="M142.797 498.486l166.325-332.718 22.148 548.778L-62 478.7z"/><path fill="#fff8ff" fill-opacity=".478" d="M410.723 448.445l-106.77-156.582 26.581 172.06L350.28 1086z"/><path fill="#01112e" fill-opacity=".537" d="M607.806 362.86L791.572 1086 735.69 340.336l-239.515-89.978z"/><path fill="#f7f6ff" fill-opacity=".592" d="M505.715 550.728L390.533 347.283l257.186 66.735L490.498 239.21z"/><path fill="#090603" fill-opacity=".663" d="M-12.948 1069.27l37.105-230.332 110.269 12.648L88.856 1086z"/><path fill="#390c10" fill-opacity=".498" d="M838.795 31.542L335.186 64.69 185.934 166.23 41.194-50.253z"/><path fill="#e7f5ff" fill-opacity=".596" d="M531.384 329.101l65.796 18.215 32.144 90.489-20.767 184.494z"/><path fill="#131933" fill-opacity=".667" d="M367.642 912.857L410.06 1086l33.888-389.383-34.94-180.242z"/><path fill="#f7f9ff" fill-opacity=".565" d="M509.13 947.875l-50.832-359.377L418.786 1086 718.64 858.626z"/><path fill="#33323e" fill-opacity=".988" d="M-45.166 300.005l349.212 107.1-180.445-3.374L18.76 542.924z"/><path fill="#343f62" fill-opacity=".871" d="M637.085 811.255L629 555.216l-24.982 272.346L793.559 949.66z"/><path fill="#f5f7ff" fill-opacity=".694" d="M549.256 954.947l41.195-458.728 22.508 350.576 33.658 159.501z"/><path fill="#f27736" fill-opacity=".431" d="M278.127 221.468L378.352 43.697l136.858 66.36-12.739 273.155z"/><path fill="#dbe0e3" fill-opacity=".569" d="M682.923 96.747l-11.185 127.45-80.397-7.191 6.502-157.44z"/><path fill="#a76042" fill-opacity=".608" d="M-62 479.676l37.188 263.57 423.67 117.712 12.161-107.53z"/><path fill="#676a73" d="M276.08 630.284l3.631-230.303-90.828 275.65 75.663 47.161z"/><path fill="#a4afbe" fill-opacity=".835" d="M229.55 922.873L94.79 1050.356l635.588 7.723L245.6 999.39z"/><path fill="#132c63" fill-opacity=".631" d="M572.822 477.213l-27.355 105.82-46.794-193.706 31.904-59.987z"/><path fill="#011624" fill-opacity=".49" d="M304.113 829.368l-83.805-26.733 17.54 177.119 87.14 20.98z"/><path fill="#e2e3dd" fill-opacity=".749" d="M-41.003 726.551L-62 810.554l134.504 3.237 6.653-33.789z"/><path fill="#d4ddfe" fill-opacity=".6" d="M75.884 467.836l58.521 43.63 34.232-78.756-36.8-30.212z"/><path fill="#ff6b1c" fill-opacity=".353" d="M744.303 393.043l58.222 208.377 56.938 343.42-105.85-174.688z"/><path fill="#14131b" fill-opacity=".596" d="M686.713 557.54L898 435.435 884.522 659.47l-316.62-380.213z"/><path fill="#0f172b" fill-opacity=".839" d="M275.447 751.676l49.744-69.029 8.05-264.086-61.504 259.196z"/><path fill="#92979e" fill-opacity=".816" d="M266.95 971.102l-29.4-104.448 28.913-53.877 27.086 244.794z"/><path fill="#eaecfd" fill-opacity=".565" d="M334.853 313.13l104.89 298.254-147.76-276.026 242.08 96.825z"/><path fill="#7f8b98" fill-opacity=".541" d="M666.079 505.042l22.447 31.255 44.28 125.893-441.851-153.137z"/><path fill="#6298fc" fill-opacity=".463" d="M196.63 178.885l78.198-42.608-10.229 175.965-100.881-35.231z"/><path fill="#3b1a00" fill-opacity=".671" d="M-62 675.374l310.716 139.827L83.43 782.435-62 710.478z"/><path fill="#82453d" fill-opacity=".765" d="M412.525 361.26l52.604 8.116L263.456-62l21.458 312.773z"/><path fill="#cfc4c7" fill-opacity=".478" d="M321.136 1086l91.402-551.949-42.58 96.236-50.664-8.565z"/><path fill="#0c1321" fill-opacity=".8" d="M260.082 538.371l-45.865-98.868L70.326 540.701l53.39 60.525z"/><path fill="#061e58" fill-opacity=".702" d="M414.347 496.512l-28.4-133.85 60.46 73.562.779 71.05z"/><path fill="#ced1dd" fill-opacity=".961" d="M518.379 601.53l-5.805 190.57-92.738 114.864 60.234-306.007z"/><path fill="#c4b4af" fill-opacity=".463" d="M859.085 288.633l35.536 178.674-108.312-25.074-62.142-205.362z"/><path fill="#25345d" fill-opacity=".639" d="M615.534 531.87l26.054 335.647-25.056 47.153-7.129-86.663z"/><path fill="#5a415e" fill-opacity=".988" d="M898-62H544.051L898 238.269l-226.223-65.905z"/><path fill="#cd906a" fill-opacity=".604" d="M136.057 300.35L-62 348.198l13.266-118.563 162.604-14.454z"/><path fill="#081630" fill-opacity=".663" d="M410.371 820.494l-29.996 229.3 88.131-69.511-35.353 58.01z"/><path fill="#bd725b" fill-opacity=".839" d="M438.119 755.725l-141.764-15.96-278.87-34.694 310.912 128.06z"/><path fill="#f2f3fb" fill-opacity=".929" d="M652.174 952.709L606.146 1086 589.72 938.729l73.725-74.124z"/><path fill="#001106" fill-opacity=".412" d="M538.657 54.776L301.76 57.292l129.833-69.209 53.619 167.824z"/><path fill="#0c1731" fill-opacity=".8" d="M730.374 453.506l-95.436 75.268L616.065 334.4l130.701 26.224z"/><path fill="#617aa0" fill-opacity=".863" d="M500.237 265.755l.867-60.585 80.894-24.81 131.7 135.743z"/><path fill="#ffae81" fill-opacity=".357" d="M447.63 48.057l34.176 203.706-73.211 36.243-54.743-227.794z"/><path fill="#eef0fb" fill-opacity=".78" d="M460.062 374.348l72.118-61.081-68.23 143.296-53.949-89.263z"/><path fill="#393543" fill-opacity=".702" d="M874.977 967.358l-209.53-40.269 66.828-87.191-79.034-173.146z"/><path fill="#151f3d" fill-opacity=".914" d="M454.05 568.048l-15.183 231.4-23.535-47.669-27.979-19.416z"/><path fill="#1b2234" fill-opacity=".831" d="M244.684 709.576l-5.085 31.911 21.753-5.73-36.127-470.293z"/><path fill="#897783" fill-opacity=".996" d="M91.41 650.11l86.297-79.636 9.241 82.376-9.505 72.178z"/><path fill="#1a2f5f" fill-opacity=".839" d="M325.899 269.176l-195.2 110.375 52.181 76.966 135.875-127.192z"/><path fill="#dce6f2" fill-opacity=".612" d="M666.343 642.155L641.39 730.96l-6.696-99.003.74-6.024z"/><path fill="#381c08" fill-opacity=".459" d="M470.037 139.327l-150.177 20.65-30.656-34.455 169.585-2.45z"/><path fill="#eff0fd" fill-opacity=".627" d="M313.878 324.55l27.19 9.53 37.197 171.41-42.479-12.619z"/><path fill="#a9adb5" d="M384.717 1033.148l-61.973-72.459-11.556-104.162 58.211 38.838z"/><path fill="#001734" fill-opacity=".427" d="M792.807 469.336l27.412 302.343 54.479 43.316L898 564.683z"/><path fill="#122254" fill-opacity=".667" d="M512.485 949.61l-10.577 13.202-3.856-135.468 55.326 82.84z"/><path fill="#d58259" fill-opacity=".506" d="M93.229 1086l71.81-288.513 32.607 16.617-34.721 180.01z"/><path fill="#dce0e6" fill-opacity=".416" d="M262.748 442.633l-6.314 190.524 26.935-2.24-12.04-179.189z"/><path fill="#84858a" fill-opacity=".969" d="M503.557 581.5l-166.445-6.75 7.207-67.253 129.765 42.974z"/><path fill="#ee977c" fill-opacity=".553" d="M834.352 795.613l-66.62-188.188 14.556 233.594L898 828.842z"/><path fill="#051540" fill-opacity=".576" d="M570.762 751.006l-81.698 107.342 30.277-92.763 20.374-174.76z"/><path fill="#000010" fill-opacity=".502" d="M271.28 871.545l26.562-48.633 30.577 222.198-38.008-53.703z"/><path fill="#a24300" fill-opacity=".302" d="M750.685 707.062L682.9 518.426l69.36-87.423 57.869 80.044z"/><path fill="#000412" fill-opacity=".49" d="M339.212 486.645l-31.707 263.037-28.101-201.595-84.186-10.495z"/><path fill="#31486a" d="M650.759 710.655l35.541-64.502 44.518 1.595 38.48 140.18z"/><path fill="#bcbecc" fill-opacity=".773" d="M312.73 721.554l79.425 29.914-61.603-175.536 15.42-32.623z"/><path fill="#4f5d7c" fill-opacity=".6" d="M596.295-62L495.668 46.718l40.33 290.872L641.836-62z"/><path fill="#e2e3ef" fill-opacity=".804" d="M478.364 359.653l-27.6 152.133 76.657-3.343 11.626 30.32z"/><path fill="#bfcad2" fill-opacity=".851" d="M215.054 824.757L242.607 1086l-36.431-234.302 25.149-34.131z"/><path fill="#827986" fill-opacity=".651" d="M898 922.582l-280.422 143.855 61.038-186.594 40.16 64.338z"/><path fill="#303d69" fill-opacity=".565" d="M563.079 967.423l-16.645 22.758L645.362 1086l-118.035-91.838z"/><path fill="#aa8757" fill-opacity=".424" d="M-62 84.237L-26.428-62l214.84 183.015-52.032 52.007z"/><path fill="#010510" fill-opacity=".635" d="M241.235 990.813l19.202-4.257-8.585-85.64-32.588-59.489z"/><path fill="#654142" fill-opacity=".498" d="M-62 320.936l170.211-18.344L193.36 84.414l-32.386 297.37z"/><path fill="#211411" fill-opacity=".659" d="M183.463 73.2l47.19-14.491L163.833-62H14.069z"/><path fill="#d88365" fill-opacity=".549" d="M136.795 695.81l-166.101-157.5L89.558 720.696l304.495 101.555z"/><path fill="#99b7ca" fill-opacity=".596" d="M42.653 1074.74l430.84-50.994-321.444-42.085L154.596 1086z"/><path fill="#222122" fill-opacity=".596" d="M-54.145 268.852l132.8 174.986 64.605 189.638-63.865-74.143z"/><path fill="#1c1300" fill-opacity=".408" d="M414.035 295.088l-70.334.696 64.188 44.422 72.678-76.26z"/><path fill="#c5cadd" fill-opacity=".988" d="M369.411 359.23l-43.62-93.65 16.652 321.136-15.876-273.72z"/><path fill="#ba908e" fill-opacity=".839" d="M378.534 779.411l63.275 25.765-101.133-5.897 54.294 55.02z"/><path fill="#2c3a60" fill-opacity=".647" d="M614.116 753.243l57.581 35.895-33.319-52.888-19.634-221.275z"/><path fill="#e7e9f3" fill-opacity=".882" d="M643.666 831.834l35.955 61.32-82.105 4.787 33.961 113.172z"/><path fill="#132657" fill-opacity=".627" d="M528.33 482.227l59.32 60.878-66-188.313-31.52 31.338z"/><path fill="#570c00" fill-opacity=".278" d="M203.356 889.683l26.26 95.998-55.582-21.41 50.887-211.304z"/><path fill="#f1f7ff" fill-opacity=".318" d="M542.412 328.795l30.21-30.505 54.095 110.87-50.322 128.281z"/><path fill="#f2fbff" fill-opacity=".486" d="M143.962 397.05l18.624 65.042-9.742 25.982-22.707 6.346z"/><path fill="#243564" fill-opacity=".831" d="M450.394 468.416l6.861 44.507-117.437-169.48 60.716 40.29z"/><path fill="#c15d2a" fill-opacity=".247" d="M644.085 198.222L782.088 178.9l113.878 102.969L729.28 299.45z"/><path fill="#7b7272" d="M851.915 214.805L732.311 416.22l24.967 43.954-45.354 26.472z"/><path fill="#ebeefa" fill-opacity=".588" d="M568.463 676.595l56.516 13.19-32.896 42.863-39.92-42.025z"/><path fill="#374166" fill-opacity=".588" d="M611.6 838.834l61.502-23.332-80.207 79.183 52.712-5.533z"/><path fill="#dadded" fill-opacity=".788" d="M429.868 925.907l22.534 38.293 77.793 27.187-109.96-148.226z"/><path fill="#293969" fill-opacity=".514" d="M572.679 1035.411l-31.788-53.868-33.228 57.013 84.607-50.21z"/><path fill="#4c3e43" fill-opacity=".898" d="M879.606 906.524l-61.36-77.726 19.071 139.048-157.195-108.497z"/><path fill="#f5f8ff" fill-opacity=".529" d="M342.406 465.492l-47.59-150.235 102.217 106.018-47.782 22.686z"/><path fill="#1d2f5f" fill-opacity=".984" d="M138.24 377.594l196.952 86.166-58.54-198.65 58.335 56.591z"/><path fill="#ffa984" fill-opacity=".357" d="M346.503 124.61l-6.245-78.613 67.228 173.263 126.57-44.327z"/><path fill="#3c0e09" fill-opacity=".278" d="M699.053 221.04l140.276-41.731-36.778-61.104-107.08 36.11z"/><path fill="#56423c" fill-opacity=".651" d="M-62 827.454l242.195 11.399-123.623 31.486-45.966 110.636z"/><path fill="#090219" fill-opacity=".459" d="M439.17 683.314l1.69 128.66-98.785-61.794 91.28 34.375z"/><path fill="#020f2d" fill-opacity=".557" d="M395.879 803.879l-18.123 221.018 51.711-66.24-9.402-106.185z"/><path fill="#f9ffff" fill-opacity=".231" d="M574.816 503.351l112.901 102.112-49.361 70.331-11.293-208.52z"/><path fill="#aaacae" fill-opacity=".714" d="M214.414 579.705l9.1 99.632-32.807-92.733 57.295 83.359z"/><path fill="#0f2a5c" fill-opacity=".455" d="M773.99 432.46l-52.548-113.748-194.611-46.801 65.598 74.438z"/><path fill="#02080b" fill-opacity=".561" d="M67.473 845.641L102.726 1086-62 1018.662l112.348-77.18z"/><path fill="#ededfc" fill-opacity=".306" d="M243.651 855.36l34.243-40.083-5.162 72.84-37.287-12.275z"/><path fill="#c02f6d" fill-opacity=".212" d="M319.12-33.245l-13.2 242.137-34.756 120.822L200.868-62z"/><path fill="#fd9e6c" fill-opacity=".318" d="M4.73 504.003l117.484 98.421-127.62-27.605L52.39 516.78z"/><path fill="#b3bfcf" fill-opacity=".596" d="M687.02 968.655l-67.75 100.226 83.35-159.019-50.916 55.823z"/><path fill="#6eb0ff" fill-opacity=".227" d="M296.28 147.83l-87.833 203.995-39.73 43.139 37.241-197.653z"/><path fill="#dedadc" fill-opacity=".318" d="M681.732 95.41l-46.347 111.707-59.203-85.97 74.11-69.851z"/><path fill="#141b34" fill-opacity=".749" d="M520.164 618.067l7.292 107.905 45.286-72.162-37.102-81.992z"/><path fill="#161a24" fill-opacity=".749" d="M631.49 509.464l107.812-82.998-53.309-33.372-57.968 187.475z"/><path fill="#852a00" fill-opacity=".271" d="M63.911 658.563l92.797 149.827L-62 644.99l247.578-74.742z"/><path fill="#a89797" fill-opacity=".827" d="M195.931 650.573L279.389 812.5l-84.097-135.988 49.525-98.087z"/><path fill="#c47f5f" fill-opacity=".988" d="M442.216 376.634l51.037-149.235 21.866 82.106-7.136 21.64z"/></svg>