<svg xmlns="http://www.w3.org/2000/svg" width="228" height="278" viewBox="0 0 836 1024"><path fill="#574e5f" d="M0 0h836v1024H0z"/><g fill-opacity=".502"><path fill="#090000" d="M850 490L350 198 870-62z"/><path fill="#b2b3c4" d="M214 346L-62 626l436 296z"/><path fill="#ffe3bd" d="M682 510l100 420 84-416z"/><path d="M198-62L-62 30 50 534z"/><path fill="#4785ea" d="M290 518l116-276 320 224z"/><path fill="#00003b" d="M430 290l136 568-152-200z"/><path fill="#eea987" d="M142 54l224 12-8 232z"/><path fill="#cdb4b5" d="M574 594l-52 356 152 28z"/><path fill="#84b3f7" d="M466 1038L346 566l140 244z"/><path fill="#000991" d="M394 870l212 216-356-72z"/><path fill="#c06c47" d="M898 1086L610 738l88-312z"/><path fill="#a36349" d="M182 482l136 368-196 236z"/><path fill="#140800" d="M490 174L166-22l296-40z"/><path fill="#0021b4" d="M190 570l-80-184 76-64z"/><path fill="#cadada" d="M174 614L-62 714l80-228z"/><path fill="#00003a" d="M278 594l100 84 8 212z"/><path fill="#cccfeb" d="M382 342v224l-72-152z"/><path fill="#00001f" d="M286 482l-84 176-36-48z"/><path fill="#00003d" d="M498 914l-76-464 144 316z"/><path fill="#90b3e9" d="M558 782l64-64-140-232z"/><path fill="#a60000" d="M630 666l-24-124 152-128z"/><path fill="#21010f" d="M-62 838l196 96 12-196z"/><path d="M870 82L622 398l240 4z"/><path fill="#cbe2ff" d="M666 438L510 302l120 180z"/><path fill="#0e66cc" d="M690 778l-80 168 116 140z"/><path fill="#4a270e" d="M318 350L-62 202l392-12z"/><path fill="#c1d0d6" d="M778 770l-68-296 188 124z"/><path fill="#201717" d="M-18 138l-44 328 208 60z"/><path fill="#d3f4ff" d="M334 930l44 16-52-156z"/><path fill="#000780" d="M466 470l-28-240-72 84z"/><path fill="#afd8ff" d="M202 306l-12 204 72 8z"/><path fill="#000150" d="M570 386l76 156-172-172z"/><path fill="#000058" d="M322 522l-88-80 76-64z"/><path fill="#7d4140" d="M658-62l36 208-336 8z"/><path fill="#726ba5" d="M430 494l-188 20 188 188z"/><path fill="#b49383" d="M294 674l-144 16 4 396z"/><path fill="#000046" d="M390 1018l-60-376 88 188z"/><path fill="#3e8ae9" d="M562 414l72-56-248-108z"/><path fill="#efbfb2" d="M306 46l-80 12 144 136z"/><path fill="#a77752" d="M686 574l112 64-308 352z"/></g></svg>