<svg xmlns="http://www.w3.org/2000/svg" width="228" height="278" viewBox="0 0 836 1024"><path fill="#904c4a" d="M0 0h836v1024H0z"/><path fill="#0e2e34" fill-opacity=".71" d="M-62 26.625L828.681-62 898 540.704 422.498 139.872z"/><path fill="#e3bba6" fill-opacity=".78" d="M-62 1023.493l382.584 15.738-43.607-211.248-157.233-38.21z"/><path fill="#ff6c61" fill-opacity=".471" d="M105.02 465.672L815.813 1086 537.971 338.014l-238.21-235.85z"/><path fill="#07373e" fill-opacity=".616" d="M13.083-62L-62 924.77l195.13-573.347 131.302-61.245z"/><path fill="#cf2122" fill-opacity=".612" d="M268.656 718.71l331.39-260.904L701.05 1000.93 342.977 1086z"/><path fill="#ce9696" fill-opacity=".945" d="M608.603 1086L898 1014.6 695.818 763.81l-8.08 117.278z"/><path fill="#af0102" fill-opacity=".682" d="M898 904.581l-322.675-511.07-5.382-83.168 219.99 178.767z"/><path fill="#b59e7a" fill-opacity=".827" d="M361.165 107.126l-150.473 9.426 80.9 317.355 189.758-114.64z"/><path fill="#d7fef7" fill-opacity=".506" d="M463.892 916.22l-43.056-630.386 60.692 528.685-22.043 270.473z"/><path fill="#bc0505" fill-opacity=".655" d="M167.93 363.37l17.388 475.672-116.58-122.169-.527-146.935z"/><path fill="#41494c" d="M413.703 263.538l33.473-171.876 405.17 22.921-199.74 186.524z"/><path fill="#cefbf7" fill-opacity=".553" d="M370.093 872.35l-29.758-202.455-38.685-257.368-4.405 191.163z"/><path fill="#eaf6f3" fill-opacity=".459" d="M581.606 992.05l-12.495-550.938-9.357-135.183-10.447 329.704z"/><path fill="#fffaff" fill-opacity=".545" d="M461.304 276.225l173.226 15.34-6.964 21.792-190.18-10.218z"/><path fill="#c91e1e" fill-opacity=".859" d="M383.391 655.428l-67.295-269.886 106.692 18.54 11.718 170.443z"/><path fill="#50595a" fill-opacity=".988" d="M221.441 225.58L229.9 81.607-62 100.3l82.078 147.859z"/><path fill="#faf6fe" fill-opacity=".525" d="M313.315 475.208l-14.934-142.935-211.45 56.422 174.975-90.856z"/><path fill="#d5ecfc" fill-opacity=".612" d="M509.678 492.27l20.57-66.14-40.459-8.586-27.823 31.14z"/><path fill="#00505b" fill-opacity=".337" d="M676.415 741.242l-92.067-241.036 54.313-51.927 150.317 287.08z"/><path fill="#620103" fill-opacity=".776" d="M130.275 698.59l28.707-233.338 46.56 91.706-36.48 169.144z"/><path fill="#ecf1f0" fill-opacity=".655" d="M458.32 534.895l-55.896-186.34 83.418-71.498-57.493 87.256z"/><path fill="#de584a" fill-opacity=".686" d="M-62 1015.924L83.76 689.73l141.389 185-37.954-164.148z"/><path fill="#583b14" fill-opacity=".537" d="M184.561 970.969l-1.698-4.263 38.079-77.105-105.667 44.732z"/><path fill="#dd3836" fill-opacity=".847" d="M672.551 320.248l-207.106 98.196-41.468-45.75 54.568-63.17z"/><path fill="#c32020" fill-opacity=".616" d="M530.348 459.363L469.463 784.63 445.5 447.421l203.898 221.833z"/><path fill="#151f25" fill-opacity=".6" d="M39.637 729.97l50.4-299.451 95.93-177.542L-62 334.165z"/><path fill="#e12829" fill-opacity=".827" d="M291.007 385.555l9.632 123.172L183.81 379.281l68.93-38.376z"/><path fill="#efc8de" fill-opacity=".714" d="M357.243 1086l-84.16-153.022-31.825-20.311-82.49 131.328z"/><path fill="#dac6c4" fill-opacity=".788" d="M185.232 380.972l-13.988-38.146-.774 88.789 33.162 132.932z"/><path fill="#dcc6c2" fill-opacity=".957" d="M566.845 366.916l-19.074-81.263 16.824 262.45 5.515-160.542z"/><path fill="#683f15" fill-opacity=".471" d="M268.872 270.262l114.76 3.502-29.193 97.448-58.352-25.578z"/><path fill="#201b23" fill-opacity=".678" d="M241.197 107.904L-13.147 72.022-.444-62 898 38.26z"/><path fill="#d55748" fill-opacity=".675" d="M829.384 776.15l-155.462-28.736 96.002 135.298 113.851 74.451z"/><path fill="#bebab3" fill-opacity=".639" d="M344.283 742.152l8.087 107.565 55.459 170.935-51.19-222.058z"/><path fill="#c52422" fill-opacity=".855" d="M238.315 499.623l75.275 47.056-117.382-37.118L330.383 857.2z"/><path fill="#d6e1dd" fill-opacity=".729" d="M460.151 639.919l-56.014-24.85 35.445-21.452-6.728-203.528z"/><path fill="#171b25" fill-opacity=".557" d="M598.887 179.492l-173.46 25.014 109.966 95.03 106.643-44.508z"/><path fill="#bf1915" fill-opacity=".722" d="M674.17 1046.5l34.898-108.522 7.101 65.946 6.388 82.076z"/><path fill="#edf6fe" fill-opacity=".486" d="M282.716 497.3l-125.213 1.832 63.897-6.752 24.908-45.215z"/><path fill="#d02121" fill-opacity=".788" d="M561.539 554.431l96.126 126.896 4.242 275.026L598.73 1086z"/><path fill="#700" fill-opacity=".612" d="M565.34 382.41l297.805 307.254-230.378-181.217-25.635 95.136z"/><path fill="#e4e3db" fill-opacity=".773" d="M451.45 337.111l-42.358 41.915-120.488 13.976 168.98-68.621z"/><path fill="#f7fffa" fill-opacity=".612" d="M98.806 878.53l68.357-65.281-42.194-22.673-30.106 19.58z"/><path fill="#3e413f" fill-opacity=".635" d="M130.818 132.765l191.062 68.198 25.292-59.511L71.979 311.244z"/><path fill="#d4514e" fill-opacity=".788" d="M95.968 421.666L70.657 535.594l83.912-152.209-29.649-14.829z"/><path fill="#b10100" fill-opacity=".431" d="M367.46 468.468L400.085 1086l50.352-60.677 17.436-223.058z"/><path fill="#ff8694" fill-opacity=".176" d="M542.688 293.153l48.384-13.114 74.893 3.73L887.9 661.773z"/><path fill="#e8fcfa" fill-opacity=".373" d="M588.759 742.447L564.59 897.3l-6.622 7.218 15.303 59.46z"/><path fill="#5e959a" fill-opacity=".498" d="M228.335 683.34L204.69 565.416l-34.778 203.108 68.821-39.764z"/><path fill="#94fcff" fill-opacity=".353" d="M387.146 630.537l-57.328 9.713 55.303-57.569-68.806-41.643z"/><path fill="#cc834a" fill-opacity=".478" d="M92.529 840.443L137.875 1086-62 866.008v-195.84z"/><path fill="#cdcd9e" fill-opacity=".161" d="M292.864 354.584l148.429-172.158 441.455-52.5-455.283-25.687z"/><path fill="#19252b" fill-opacity=".416" d="M674.878 200.244l76.167 263.154L898 581.029V173.267z"/><path fill="#950c0b" fill-opacity=".584" d="M300.95 929.719l22.958-244.62L405.696 1086l155.534-36.337z"/><path fill="#c4f6f7" fill-opacity=".506" d="M380.86 549.75l-119.746 7.278-1.09 27.387 62.825-15.751z"/><path fill="#e4fbf7" fill-opacity=".525" d="M554.818 760.155l16.979 53.194 11.94 16.101-23.589-144.41z"/><path fill="#c31313" fill-opacity=".584" d="M562.902 949.265l-16.146-556.27-70.706 393.822L497.215 1086z"/><path fill="#6a8c92" fill-opacity=".502" d="M729.941 664.475l-74.904 42.648L637.275 582.8l30.043-44.633z"/><path fill="#c6fcf6" fill-opacity=".69" d="M518.197 598.924l-1.44-12.816-22.344 1.065-.433 36.79z"/><path fill="#5a6068" fill-opacity=".808" d="M69.52 622.996L-62 680.635v49.673l120.823 13.369z"/><path fill="#c0b4b4" fill-opacity=".678" d="M834.176 960.175L672.619 806.752l64.757 246.133-7.37-55.905z"/><path fill="#c3fff6" fill-opacity=".455" d="M380.081 1086L393.8 930.093l-15.477 13.015 1.62 64.219z"/><path fill="#d1c6c1" fill-opacity=".698" d="M430.599 474.973l21.539 269.591 19.375 129.242 3.64-76.9z"/><path fill="#f62c2f" fill-opacity=".545" d="M102.798 789.015l-25.887 99.741-7.02-286.688 100.936 196.56z"/><path fill="#e9d2d0" fill-opacity=".627" d="M401.594 249.073l57.78 52.991 175.123 17.527-185.858-50.525z"/><path fill="#c22322" fill-opacity=".91" d="M425.16 763.462L310.705 381.67l12.182 174.67 87.082-43.695z"/><path fill="#fffdd9" fill-opacity=".133" d="M91.064 127.725l.127 165.631L-9.766 170.577l448.652-56.412z"/><path fill="#bebab7" fill-opacity=".475" d="M446.64 970.664l36.332 40.264 14.07 3.375-32.843-79.88z"/><path fill="#c92322" fill-opacity=".816" d="M294.62 479.265l-73.63 42.2 4.238 41.233 82.136-10.853z"/><path fill="#bed4ce" fill-opacity=".573" d="M284.859 613.79l57.97 91.754 16.17-35.235-104.103-45.2z"/><path fill="#fdc4c4" fill-opacity=".427" d="M243.81 644.064l55.693 212.003-69.29-220.38-18.306-89.12z"/><path fill="#741817" fill-opacity=".62" d="M289.944 564.12l20.953 80.27-35.955-41.514-1.787-24.211z"/><path fill="#ff6f77" fill-opacity=".773" d="M32.564 1086l23.549-102.634 136.303 6.15-98.156 79.932z"/><path fill="#df3130" d="M189.752 355.9l11.77 162.4 35.436-62.599 52.177-14.873z"/><path fill="#fcf6ff" fill-opacity=".384" d="M278.385 282.252l5.903 109.313 102.428-5.983L249.98 342.58z"/><path fill="#e51811" fill-opacity=".392" d="M568.064 454.665l5.457-73.012 48.005-90.32 75.936 123.577z"/><path fill="#d9d2ce" fill-opacity=".592" d="M556.107 454.098l-12.54-168.068 33.088 194.12-2.636 85.137z"/><path fill="#ec2322" fill-opacity=".408" d="M802.77 643.498L898 783.63 788.876 484.535l-67.939-90.137z"/><path fill="#838aa8" fill-opacity=".443" d="M700.27 454.297l-48.834-140.78 87.165 108.933-29.103 45.682z"/><path fill="#ae1617" fill-opacity=".608" d="M599.337 831.416l28.113 5.899 29.265-22.333 53.757 125.046z"/><path fill="#eae3fc" fill-opacity=".663" d="M53.563 1086l-63.14-10.762L-62 918.554l96.707 80.188z"/><path fill="#caa075" fill-opacity=".729" d="M221.92 189.09l136.37 104.235 97.964-150.505-215.933 87.085z"/><path fill="#87fffa" fill-opacity=".345" d="M98.933 521.45l-5.294-64.878-19.069 33.784 5.343 43.336z"/><path fill="#e6f8f3" fill-opacity=".784" d="M308.499 619.769l-1.561-117.095 28.157 170.209 16.598 5.114z"/><path fill="#c92322" fill-opacity=".984" d="M471.917 573.91l80.653 22.356 9.72-117.084-107.127 29.787z"/><path fill="#b81817" fill-opacity=".612" d="M355.276 1025.431l-68.512-449.804 36.975 96.93-85.231-56.479z"/><path fill="#cdc5d0" fill-opacity=".678" d="M494.529 423.706l44.128 45.672-17.49 16.24-55.142-6.256z"/><path fill="#cb1d1b" fill-opacity=".753" d="M125.359 382.381l-26.969 91.8 87.75 37.224-10.361-66.343z"/><path fill="#e1f9f7" fill-opacity=".333" d="M584.665 900.493l-29.44-141.331-.73-184.999 4.19-12.006z"/><path fill="#151b21" fill-opacity=".698" d="M570.602-4.118L445.158 75.139l271.078 9.941L898 4.99z"/><path fill="#b44e48" fill-opacity=".769" d="M212.493 845.734l-53.91-21.146 24.753-84.175 99.59 41.285z"/><path fill="#d32726" fill-opacity=".831" d="M465.48 312.606l-29.887 102.2 116.555-19.968-25.958-86.589z"/><path fill="#eef5f4" fill-opacity=".463" d="M310.197 387.545l-64.421-126.982 44.262 122.453 33.587 294.801z"/><path fill="#570606" fill-opacity=".808" d="M599.031 487.682l14.561-38.208 95.348 156.6 51.514-49.964z"/><path fill="#b6a7ab" fill-opacity=".624" d="M207.592 836.42l17.913 124.731 81.505-68.623-46.707-86.573z"/><path fill="#4f5e62" fill-opacity=".616" d="M256.415 282.319l9.165 21.061-96.42 26.474 6.9-256.733z"/><path fill="#a61617" fill-opacity=".973" d="M469.632 977.004l33.49 11.886 104.964-71.91 55.76 29.746z"/><path fill="#7c0e11" fill-opacity=".471" d="M385.26 566.06l1.625 64.575-65.65-77.751 11.71 80.155z"/><path fill="#d72929" fill-opacity=".91" d="M569.416 530.676l96.604 207.886-69.99 143.565-26.414-139.702z"/><path fill="#dcfff7" fill-opacity=".42" d="M638.92 1010.691l43.178-91.434L645.352 1086l69.188-155.587z"/><path fill="#cf2927" fill-opacity=".882" d="M325.75 751.815l11.076-71.69-75.769 32.705 39.328 98.863z"/><path fill="#3f4952" fill-opacity=".396" d="M739.757 286.854L338.986 103.946l59.172 81.2L363.736-49.49z"/><path fill="#e3c08a" fill-opacity=".561" d="M232.909 108.906l129.614 14.231-95.347 49.016-45.113-15.653z"/><path fill="#0ce8fe" fill-opacity=".188" d="M791.187 473.123l50.2 23.641 38.48 189.248-63.474-125.914z"/><path fill="#b9e36b" fill-opacity=".388" d="M80.692 964.103l-53.02-98.19 88.995 8.96 23.724 108.41z"/><path fill="#d6b492" fill-opacity=".788" d="M244.422 250.964l-18.42-40.7 49.646-13.188 62.716 29.085z"/><path fill="#b91b1a" fill-opacity=".745" d="M446.415 632.925l-71.77-28.969-21.071 185.591 54.403 183.132z"/><path fill="#ff8797" fill-opacity=".761" d="M724.211 990.774L898 976.958l-65.244 60.525L707.272 1086z"/><path fill="#6c0407" fill-opacity=".498" d="M575.276 875.526L431.67 961.904 356.998 1086l145.808-198.33z"/><path fill="#795536" fill-opacity=".396" d="M143 887.12l86.098 19.535-60.712 63.51-47.07-44.933z"/><path fill="#e02f2d" fill-opacity=".635" d="M62.473 722.534l12.31-132.252 45.836-90.464L90.89 867.755z"/><path fill="#292e33" fill-opacity=".91" d="M-2.775 386.94l151.38-33.662 30.57-21.603L149.3 185.952z"/><path fill="#536061" fill-opacity=".498" d="M379.39 134.04L898 80.022v112.09z"/><path fill="#cc2323" fill-opacity=".898" d="M426.422 456.465l-40.268 189.78-53.532-242.615 81.452-29.415z"/><path fill="#9a1311" fill-opacity=".729" d="M349.48 846.692L329.083 1086l-17.826-188.283-30.988-66.143z"/><path fill="#3f464a" fill-opacity=".596" d="M898 621.371L656.292 316.877l139.5 86.493 63.03-22.97z"/><path fill="#b00407" fill-opacity=".451" d="M195.96 531.057l40.193 177.953 44.671 133.902-16.69-94.196z"/><path fill="#191319" fill-opacity=".38" d="M94.594 522.194L54.002 668.422-62 432.822l117.789 108.34z"/><path fill="#d2fffd" fill-opacity=".514" d="M321.829 559.085l-69.443-.684 12.686 43.1 17.651-32.902z"/><path fill="#dad2cf" fill-opacity=".714" d="M561.575 432.645l1.88 137.139 9.896-38.31 5.335-47.703z"/></svg>