<svg xmlns="http://www.w3.org/2000/svg" width="228" height="278" viewBox="0 0 836 1024"><path fill="#526476" d="M0 0h836v1024H0z"/><g fill-opacity=".502"><path fill="#fff" d="M-62 538l716 512-524 36z"/><path fill="#004bd7" d="M610 938l32-660L98 806z"/><path fill="#391d00" d="M830-62L-62 42l960 448z"/><path fill="#ffdac7" d="M578 886l316-140-68-300z"/><path fill="#fea488" d="M562 394L354 134 598-62z"/><path fill="#2f2e00" d="M6-62l-16 612 480-420z"/><path fill="#004fad" d="M226 258v612l652-324z"/><path fill="#d3a392" d="M138 174l84 592-284 208z"/><path fill="#fff" d="M618 994L194 846 54 1086z"/><path fill="#f5fff7" d="M646 558l-340-88 180-4z"/><path fill="#0d0000" d="M898 1018l-316 12 164-152z"/><path fill="#001c19" d="M898 26L598-62l48 760z"/><path fill="#14280d" d="M386-62L-62 174l456 176z"/><path fill="#1077df" d="M614 346L146 446l676 36z"/><path fill="#0048a3" d="M202 754l432 260-56-476z"/><path fill="#edbfbb" d="M610 946l288-320-252 52z"/><path fill="#000012" d="M218 422l16 256 64-312z"/><path fill="#cc8875" d="M402 18l236 156-220 164z"/><path fill="#ad643c" d="M878 986l-36-228-192 64z"/><path fill="#004ca5" d="M166 854l444 12-240-384z"/><path fill="#9b6a51" d="M218 658l-52-424L6 562z"/><path fill="#cda184" d="M858 770L754 446l144 44z"/><path fill="#c0d0e2" d="M550 434l100-20 4 76z"/><path fill="#0d170e" d="M566-38L42 174-62 6z"/><path fill="#0367cc" d="M270 302l436 100-556 48z"/><path fill="#afb4c4" d="M-62 478l76 476 224-228z"/><path fill="#615962" d="M42 790l24 296 76-184z"/><path fill="#3f4418" d="M202 146l328 168-352 8z"/><path fill="#e8ecfb" d="M602 1002L314 842 10 1086z"/><path fill="#001a43" d="M478 806l120 44 48 216z"/><path fill="#000008" d="M634 602l44-172 32 248z"/><path fill="#ffe5db" d="M214 486l-60-48-8 92z"/><path fill="#eda89a" d="M186 342L54 358l104-96z"/><path fill="#051708" d="M478-62l200 188 20-176z"/><path fill="#b8d5ee" d="M306 502l156-20-156-40z"/><path fill="#b3a9b6" d="M698 966l-104-52 84-284z"/><path fill="#1b2916" d="M666-50l-92 380 324 156z"/><path fill="#facbb7" d="M710 610l52 212 136-192z"/><path fill="#004299" d="M342 858l-148-28 96-384z"/><path fill="#ccd3d3" d="M474 482l140 88 4-48z"/></g></svg>