<svg xmlns="http://www.w3.org/2000/svg" width="228" height="278" viewBox="0 0 836 1024"><path fill="#574458" d="M0 0h836v1024H0z"/><path fill="#5c85ae" fill-opacity=".855" d="M546.775-62l335.908 32.581-57.335 705.177-234.753-462.873z"/><path fill="#43001f" fill-opacity=".675" d="M451.085 1086l-139.59-14.35-118.213-687.908 509.864 140.77z"/><path fill="#836e76" fill-opacity=".996" d="M-41.068 558.363l321.879 94.023-144.808 421.28L-62 783.547z"/><path fill="#ae2348" d="M586.754 541.634l-201.712 12.918-45.744-93.003L664.45 451z"/><path fill="#f81141" fill-opacity=".773" d="M423.332 373.413l-205.73 6.645 11.225-37.017 125.2-68.138z"/><path fill="#ff586d" fill-opacity=".416" d="M898 926.048L459.177 898.2l-313.285-58.84 601.303-36.535z"/><path fill="#e0c0c1" fill-opacity=".612" d="M898 544.082l-81.865-169.96-128.42 104.966 25.407 99.068z"/><path fill="#191e1e" fill-opacity=".718" d="M96.387 233.771L-62 436.481 25.774-62l327.643 256.707z"/><path fill="#ef385d" fill-opacity=".969" d="M523.907 350.883l23.572-77.417 112.067 43.392 27.623 55.513z"/><path fill="#b7fc5d" fill-opacity=".698" d="M409.765 243.271l-80.726 50.658-19.905-88.057 83.396-33.858z"/><path fill="#012142" fill-opacity=".741" d="M156.707 1000.405l73.391-137.864L898 1005.056 626.967 1086z"/><path fill="#e80021" fill-opacity=".506" d="M628.546 722.706l-.442-84.316-330.711 6.739 164.383 88.245z"/><path fill="#291300" fill-opacity=".561" d="M539.825 383.788L418.5 357.941 386.446 82.202l60.239-86.776z"/><path fill="#83e1d4" fill-opacity=".365" d="M645.617 910.41l-74.728 86.55 66.103-208.696L898 878.352z"/><path fill="#00131c" fill-opacity=".51" d="M739.21 631.793l-634.006 10.179 107.02-282.123 139.423 169.254z"/><path fill="#c10024" fill-opacity=".62" d="M275.885 799.687l361.788 52.804-159.78 64.765L129.101 826.1z"/><path fill="#264589" fill-opacity=".992" d="M-53.552 351.002l228.849 117.63 31.452-70.961-160.442-78.664z"/><path fill="#001330" fill-opacity=".788" d="M542.92 829.366l-313.57-36.274 40.163-85.586L652.36 752.09z"/><path fill="#bbc5ca" fill-opacity=".682" d="M543.73-62L731.56 57.642l111.072 13.251L898-61.695z"/><path fill="#2f1805" fill-opacity=".62" d="M720.625 848.291l-29.456-514.386-48.786 88.726-8.986 176.29z"/><path fill="#0058f2" fill-opacity=".247" d="M91.138 904.223l21.548-80.012L404.392 1086-62 1021.106z"/><path fill="#376fa0" fill-opacity=".761" d="M898 184.841L613.392-2.426l-85.463 236.998 217.263 140.55z"/><path fill="#a78682" fill-opacity=".82" d="M160.054 697.56l14.966 249.224L276.06 636.12l-21.563-36.67z"/><path fill="#0096ff" fill-opacity=".243" d="M356.782 397.7l304.393-39.916-31.388 86.681-341.04 16.547z"/><path fill="#5e2b28" fill-opacity=".675" d="M134.192 451.254l131.005 55.02L40.875 744.766l105.821 51.84z"/><path fill="#ffb465" fill-opacity=".243" d="M565.765 84.944l-348.44-34.059L333.985-62l260.99 419.163z"/><path fill="#081e23" fill-opacity=".533" d="M849.964 798.5l-33.012-196.056-80.698 67.277 14.512 107.718z"/><path fill="#0e1310" fill-opacity=".643" d="M457.674-2.396L382.289 88.04l173.67-17.85 13.98-28.645z"/><path fill="#958d9f" fill-opacity=".463" d="M-62 309.823L94.774 426.03l18.617 111.326-24.707 59.655z"/><path fill="#bfcad9" fill-opacity=".71" d="M505.322 999.387l-5.8 2.911 47.14 36.178-14.823-42.959z"/><path fill="#ffc8b0" fill-opacity=".165" d="M183.884 66.673L129.26 326.656l-60.493-68.844L150.058 28.39z"/><path fill="#7d686d" fill-opacity=".922" d="M618.266 716.944l146.308 257.643-123.956-340.9-15.572-70z"/><path fill="#8b6a64" fill-opacity=".478" d="M725.833 788.944l56.948-442.25-33.649-4.174-76.293 125.56z"/><path fill="#facab7" fill-opacity=".255" d="M183.304 453.81l-42.376 50.467 78.165-270.032 50.624 16.028z"/><path fill="#7a809f" fill-opacity=".659" d="M782.231 939.857L898 588.784l-47.564 414.865-112.42-37.307z"/><path fill="#2d3f61" fill-opacity=".533" d="M354.573 366.593l146.064 171.808 12.663-65.936 46.048-115.69z"/><path fill="#005be5" fill-opacity=".451" d="M734.254 623.837l-16.338-83.685 83.939 51.876-44.056 62.466z"/><path fill="#ffb9ba" fill-opacity=".424" d="M22.178 687.572L-31.841 917.69l9.35-322.064 101.7-17.333z"/><path fill="#c1d0ff" fill-opacity=".416" d="M577.723 356.378l42.928 36.005-9.273 50.827-60.95-45.622z"/><path fill="#000012" fill-opacity=".545" d="M307.68 530.433l53.263-158.242-167.045 50.95 114.983 249.965z"/><path fill="#041532" fill-opacity=".91" d="M628.221 544.141l-360.66 18.964 109.67 73.712 214.413-2.625z"/><path fill="#121819" fill-opacity=".937" d="M512.213 1064.53L410.473 1086 685.54 953.13 898 1043.743z"/><path fill="#000209" fill-opacity=".361" d="M107.744 165.113l57.672 93.21L334.199 151.95l-22.58-66.665z"/><path fill="#e98ba5" fill-opacity=".447" d="M518.523 514.462l131.052 30.37-213.795-1.529-71.313-5.923z"/><path fill="#022d80" fill-opacity=".702" d="M94.672 938.327l-22.844-12.644-129.583 72.947 109.393 81.74z"/><path fill="#d2dffb" fill-opacity=".514" d="M379.484 397.692l17.588 34.838-41.318 7.482-14.205-29.319z"/><path fill="#00001a" fill-opacity=".255" d="M623.273 598.329l137.333-325.707-19.56 200.858-117.77-121.492z"/><path fill="#dd002b" fill-opacity=".435" d="M204.467 801.737l194.745 34.328 190.482 78.713-10.226-94.41z"/><path fill="#120000" fill-opacity=".333" d="M372.25 280.266l69.293-71.638 47.774 96.505-89.576 155.906z"/><path fill="#610002" fill-opacity=".443" d="M311.795 552.223L93.813 489.33l90.43-12.452 345.6 25.246z"/><path fill="#15304b" fill-opacity=".682" d="M603.555 815.07l-6.652 104.271 57.39-186.452-200.173 2.155z"/><path fill="#fab893" fill-opacity=".373" d="M-62 924.269l5.563 25.14L85.67 877.402l-8.502-84.904z"/><path fill="#73bf28" fill-opacity=".424" d="M316.97 175.634l-61.277 68.162 70.236 28.057 69.513-112.256z"/><path fill="#fe0940" fill-opacity=".412" d="M646.021 450.243l-35.514 99.663-96.986-67.658-15.01-34.19z"/><path fill="#92dcfa" fill-opacity=".263" d="M601.702 868.681l92.17-90.067 17.684 146.266-25.733 7.786z"/><path fill="#fe2154" fill-opacity=".576" d="M440.132 659.17l193.51-32.076-62.65 42.73 73.672-5.887z"/><path fill="#6c0011" fill-opacity=".706" d="M482.251 675.058l-32.629 54.192-182.378-19.945 9.82-85.439z"/><path fill="#d6b8ba" fill-opacity=".565" d="M210.84 817.345l35.962-73.835-71.248 5.834 28.141 148.153z"/><path fill="#f9f3fd" fill-opacity=".42" d="M880.746 515.03L771.4 542.69l19.495-100.56 74.161-18.887z"/><path fill="#e1b074" fill-opacity=".388" d="M740.286 702.756l33.64 218.466-41.397-130.524-10.148-221.572z"/><path fill="#00256c" fill-opacity=".451" d="M127.146 554.366l-28.803-128.36L-62 259.771l224.31 88.767z"/><path fill="#d7083b" fill-opacity=".639" d="M363.608 272.432l-88.214 141.053-71.603-52.32 205.464 7.026z"/><path fill="#20639b" fill-opacity=".749" d="M893.02 257.94l-16.986 136.488-71.598-52.67-248.614-70.414z"/><path fill="#0e1b3b" fill-opacity=".929" d="M346.032 1086l-82.28-218.487 160.396 35.743 164.001 1.978z"/><path fill="#3d372c" fill-opacity=".447" d="M265.268 498.341L92.496 705.598l44.276-249.74 78.578 265.01z"/><path fill="#e30036" fill-opacity=".424" d="M466.295 444.587l-165.371 29.317 236.174 75.567-90.91-40.63z"/><path fill="#acd678" fill-opacity=".957" d="M346.16 223.059l23.767 56.937 35.595-55.708-.955-38.251z"/><path fill="#231902" fill-opacity=".486" d="M557.65 143.648l-138.455-7.706 105.469 41.017.132 17.88z"/><path fill="#63797f" fill-opacity=".345" d="M387.555 91.867L437.8-20.476 237.413-62 132.94 122.644z"/><path fill="#8c022b" fill-opacity=".722" d="M241.642 883.28l43.95-74.08-61.193-19.373-23.264 64.655z"/><path fill="#ea2d4f" fill-opacity=".373" d="M508.084 370.036l38.086-131.84-76.438 114.492 141.286-51.732z"/><path fill="#2298ff" fill-opacity=".275" d="M152.35 634.449l59.183-61.168-4.915 69.585-69.657 19.538z"/><path fill="#8397be" fill-opacity=".522" d="M118.895 1025.307l39.123-27.342 50.952-123.723-82.75 2.914z"/><path fill="#553013" fill-opacity=".463" d="M29.992 682.878l7.501-27.151L-62 1031.738 73.803 609.817z"/><path fill="#f8ba94" fill-opacity=".314" d="M558.651 138.773l-11.684-58.236-91.038 1.433 61.33 50.963z"/><path fill="#03060b" fill-opacity=".349" d="M50.153 200.754l43.013 132.094-88.407-5.341L-17.611-62z"/><path fill="#444b4c" fill-opacity=".329" d="M185.567 858.48l-74.451-266.153-12.42 426.921-61.24-103.08z"/><path fill="#094581" fill-opacity=".29" d="M729.213 896.035l25.823 59.282-290.59 34.83-73.905-59.736z"/><path fill="#5a6e89" fill-opacity=".58" d="M477.762 507.426l-33.15-116.16 63.838-13.882 3.026 104.958z"/><path fill="#e9113d" fill-opacity=".733" d="M584.83 833.574l9.702 69.038-125.417 1.821 97.893-30.263z"/><path fill="#f2b4d5" fill-opacity=".255" d="M349.892 527.89L591.6 544.283l-110.644-.107-108.446 9.456z"/><path fill="#c79f9e" fill-opacity=".451" d="M784.555 521.262L735.82 562.89l31.26-211.733 53.764 13.965z"/><path fill="#c37a37" fill-opacity=".216" d="M-22.808 939.172l160.06-342.763 96.005-73.964L73.761 577.68z"/><path fill="#0e090f" fill-opacity=".435" d="M148.957-29.093L-32.005 68.5l166.968 23.402L181.095-48.98z"/><path fill="#fbc3ab" fill-opacity=".506" d="M803.603 894.042l-82.035-37.713 7.238 29.088 26.055-59.692z"/><path fill="#684204" fill-opacity=".322" d="M749.476 963.636l-46.858-104.823 55.444 5.414 36.52 32.33z"/><path fill="#e7607b" fill-opacity=".435" d="M548.129 261.75l-74.073 14.642-7.867-28.913 214.225 95.311z"/><path fill="#dc9b71" fill-opacity=".263" d="M130.052 212.554l28.526 66.745-63.033 63.55-2.806-123.416z"/><path fill="#052055" fill-opacity=".576" d="M231.904 442.454l138.33-19.752-106.045-38.492 171.268-15.096z"/><path fill="#7e9bff" fill-opacity=".227" d="M190.808 319.566L124.64 455.653l45.948 22.187 36.45-110.128z"/><path fill="#150a1a" fill-opacity=".878" d="M387.687 634.052l-88.199-26.145-160.112-105.56 5.712-13.166z"/><path fill="#00114c" fill-opacity=".373" d="M597.385 451.387l48.458-65.996 8.54-32.784 82.521 76.853z"/><path fill="#2c3e6d" fill-opacity=".647" d="M635.714 617.286l-16.434-92.458L589.94 642.7l-15.708-5.498z"/><path fill="#44739e" fill-opacity=".976" d="M465.418-59.793L607.679 90.56l249.527 38.442L489.619-54.391z"/><path fill="#9aa2d7" fill-opacity=".333" d="M691.306 431.028l11.748 100.72 60.703 55.679 58.913-22.108z"/><path fill="#061c44" fill-opacity=".765" d="M330.539 462.246l99.398-11.788-232.47-44.556 5.948-42.115z"/><path fill="#400001" fill-opacity=".467" d="M580.884 804.703l-130.152 28.848-90.31 103.102 127.652-103.468z"/><path fill="#2d1b0b" fill-opacity=".573" d="M711.76 835.42l24.603-7.025-86.645-393.21-23.679 104.987z"/><path fill="#ee204c" fill-opacity=".663" d="M239.817 334.254l22.134 51.783 101.341-13.039 7.84-98.584z"/><path fill="#886349" fill-opacity=".561" d="M541.866 256.35l-113.93-91.429 98.287 39.183 42.074-61.577z"/><path fill="#f92754" fill-opacity=".624" d="M689.394 363.388l-89.903-41.5-55.89-63.644L528.084 360.3z"/><path fill="#000309" fill-opacity=".565" d="M346.384 996.351l138.312-8.998-141.18 77.712-50.202-114.792z"/><path fill="#001b51" fill-opacity=".42" d="M562.926 363.805L416.184 348.24l202.353 105.296-100.694-4.816z"/><path fill="#f41240" fill-opacity=".459" d="M582.334 677.06l37.815 31.777 20.036-.453-129.427 18.972z"/><path fill="#363d49" fill-opacity=".62" d="M-62 485.96v183.842L59.23 486.674l-9.612-32.344z"/><path fill="#161315" fill-opacity=".914" d="M396.17 132.064l2.315-83.192 56.764-26.375-36.7 114.83z"/><path fill="#f6002b" fill-opacity=".235" d="M142.57 484.17l16.506-11.86 70.12 28.441 9.454 53.326z"/><path fill="#ef2856" fill-opacity=".725" d="M486.872 452.098l62.415 35.614 19.725 3.422 64.389-37.857z"/><path fill="#dbb37b" fill-opacity=".341" d="M248.585 23.61L173.47-62h181.748L283.26 54.514z"/><path fill-opacity=".322" d="M306.147 400.689l-109.56 76.63 254.233 96.117-177.964 104.56z"/><path fill="#876663" fill-opacity=".698" d="M280.258 697.885l-81.457-65.19 46.475-30.954-35.989 139.122z"/><path fill="#4b3a2a" fill-opacity=".565" d="M95.045 743.563l42.962-13.814 5.75-171.041L28.344 855.224z"/><path fill="#65546a" fill-opacity=".486" d="M898 471.465L783.086 599.928l45.033 125.617L898 525.14z"/><path fill="#ffb4c8" fill-opacity=".184" d="M128.266 959.369l107.244 90.127L92.439 994.51l5.526-17.023z"/><path fill="#ff0e53" fill-opacity=".373" d="M415.06 679.916l115.26-40.674-213.81 89.572 27.972-22.97z"/><path fill="#ca1140" fill-opacity=".553" d="M491.28 654.776l-70.269-14.893-200.732 55.034 62.488-16.68z"/><path fill="#563d31" fill-opacity=".341" d="M170.282 94.257L-41.378 77.55l315.745 297.765-144.138-209.388z"/><path fill="#d8e9ff" fill-opacity=".506" d="M351.323 396.972l41.612-2.827-40.456 37.38 12.689 2.962z"/><path fill="#152d5d" fill-opacity=".753" d="M312.808 902.823L215.942 1086l-41.564-147.475 62.791-72.86z"/><path fill="#051028" fill-opacity=".722" d="M576.73 733.896l-315.139-15.36 344.357 98.007-183.195 1.066z"/></svg>