<svg xmlns="http://www.w3.org/2000/svg" width="228" height="278" viewBox="0 0 836 1024"><path fill="#502f41" d="M0 0h836v1024H0z"/><g fill-opacity=".502"><path fill="#8d61cf" d="M646 310l-120 776-316-752z"/><path fill="#ff684a" d="M898 766L742 430l48 656z"/><path d="M438-62L126 406-62 14z"/><path fill="#000a0a" d="M426-42l408 608 32-588z"/><path fill="#ff6f42" d="M422 866l48-884 100 432z"/><path fill="#ff2f1f" d="M662 882l-52-384-80 588z"/><path fill="#000500" d="M-62 450l104 636 256-592z"/><path fill="#cc7b4a" d="M482 82l-168-8-8 596z"/><path fill="#0058f4" d="M510 434l32 440 124-628z"/><path fill="#f50000" d="M514 602L386 866l64 140z"/><path fill="#80ffe6" d="M818 578L698 358l40 200z"/><path fill="#be0000" d="M650 346l-72 332 272 108z"/><path fill="#000b09" d="M782 934l-164 12 52-468z"/><path fill="#0041ff" d="M546 938l-20-320-96 468z"/><path fill="#000608" d="M-18-54l-40 372 560 20z"/><path fill="#003ae1" d="M370 1086l-52-236 104-228z"/><path fill="#ff3b3e" d="M806 534l-60 528 152-72z"/><path fill="#ff946c" d="M242 462l-304-52 136-60z"/><path fill="#0061f5" d="M378 722l92-352H370z"/><path fill="#ed0000" d="M226 438l20-128-272 236z"/><path fill="#208eff" d="M258 1086l36-288-68 160z"/><path fill="#001010" d="M222 1042l-284-16 316-248z"/><path fill="#ff3f2a" d="M522 542l-84-196 132-76z"/><path fill="#f51709" d="M362 526l-80-56 88-256z"/><path fill="#001922" d="M826-62l72 508-424-208z"/><path fill="#0143d1" d="M270 538l68-256-96-4z"/><path fill="#c7c1be" d="M478 662l-200-52 248-76z"/><path fill="#ffffe0" d="M714 1086l184-100-136-12z"/><path fill="#d5bf97" d="M514 258L378 94l132-20z"/><path fill="#fa1610" d="M286 934l28-308 32 160z"/><path fill="#f2ffff" d="M538 410l32 96-72-24z"/><path fill="#ff3534" d="M522 1034l76-296 32 280z"/><path fill="#730000" d="M510 758l-80-120-32 156z"/><path fill="#005ffc" d="M282 678l24 124-60 64z"/><path fill="#0050ff" d="M162 1086h564L442 986z"/><path fill="#ec6b8c" d="M638 458l8-132 80 68z"/><path fill="#910000" d="M190 430l80 284 4-240z"/><path fill="#a8baaf" d="M518 550l-220 32-4-76z"/><path fill="#1e65ff" d="M554 526l8-248 80 80z"/><path fill="#ff4055" d="M334 1010l172-20-96-24z"/></g></svg>