<svg xmlns="http://www.w3.org/2000/svg" width="228" height="278" viewBox="0 0 836 1024"><path fill="#a0797d" d="M0 0h836v1024H0z"/><path fill="#d6c7d6" fill-opacity=".89" d="M685.907 95.231L898 90.404 545.271 516.267l92.907-404.572z"/><path fill="#e6f5fb" fill-opacity=".561" d="M185.595 917.93l40.391-177.552-244.553.58L45.85 925.557z"/><path fill="#001e51" fill-opacity=".671" d="M768.266 491.513l-70.352-232.909 171.396 37.201L898 493.058z"/><path fill="#e8bec6" fill-opacity=".949" d="M70.63 177.297L85.82-17.275 264.7-62l-57.188 251.94z"/><path fill="#630602" fill-opacity=".6" d="M526.69 814.635l58.686-365.258 211.488 309.152 16.9-191.345z"/><path fill="#452f20" fill-opacity=".82" d="M398.298 184.11l-59.764 154.917 68.394 44.366 160.074-72.405z"/><path fill="#dbebec" fill-opacity=".8" d="M556.656 896.882l43.282-153.338 89.455 162.383-87.862 104.268z"/><path fill="#3e2e27" fill-opacity=".741" d="M40.097 480.812l-39 220.607 194.099-232.985 234.743 318.723z"/><path fill="#0156bf" fill-opacity=".475" d="M394.777 252.684L321.483 136.37-62 267.905l240.526 31.343z"/><path fill="#ce0206" fill-opacity=".702" d="M488.055 1063.576L552.217 1086l22.385-440.18-22.171 28.818z"/><path fill="#e4a6bb" fill-opacity=".694" d="M697.445 245.165l-473.523 241.1 421.95-40.782 112.636 163.683z"/><path fill="#724f4f" fill-opacity=".663" d="M207.423 1029.375l284.939-314.158-178.2-216.902-82.523 53.879z"/><path fill="#950001" fill-opacity=".525" d="M-54.58 264.568L41.923 301.1 73.317 76.276-62 28.28z"/><path fill="#ac5642" fill-opacity=".682" d="M657.596 595.245L898 837.52 732.785 971.375 611.791 690.103z"/><path fill="#e9e8f1" fill-opacity=".565" d="M431.939-60.914L395.107-62l-88.342 188.44 59.799 27.865z"/><path fill="#f0fdff" fill-opacity=".569" d="M664.873 235.727L605.33-62H445.09l327.904 288.056z"/><path fill="#ffa7c4" fill-opacity=".498" d="M359.218 382.968L336.283 245.34l-171.62 119.424 162.191 88.625z"/><path fill="#dfe9fe" fill-opacity=".424" d="M518.72 826.163l83.233-333.868L448.73 889.571l52.103-300.282z"/><path fill="#12242e" fill-opacity=".498" d="M188.844 1013.416L221.291 1086-62 933.342V866.74z"/><path fill="#a00105" fill-opacity=".71" d="M447.609 993.941l92.124-428.931-38.638 297.472-48.062 178.57z"/><path fill="#33241e" fill-opacity=".976" d="M662.335 673.936l10.356-10.689 111.716 33.276 39.567-118.031z"/><path fill="#e1d0ca" fill-opacity=".408" d="M129.83 485.56L-62 498.993 75.572 378.188 132.346-62z"/><path fill="#fa767b" fill-opacity=".831" d="M645.93 663.586l69.99 20.402 62.327 34.011-63.228 120.942z"/><path fill="#82110b" fill-opacity=".573" d="M316.713 1008.156l66.43-460.657 212.75-497.861-185.559 495.599z"/><path fill="#93050a" fill-opacity=".71" d="M449.6 872.445l66.098-389.996-91.892 370.636L380.031 1086z"/><path fill="#040100" fill-opacity=".69" d="M97.556 513.717l-62.894-14.893 41.475 83.753 80.327-9.315z"/><path fill="#bcebff" fill-opacity=".4" d="M748.242 641.786L586.74 527.03l99.765 128.54-61.255-197.68z"/><path fill="#4d3819" fill-opacity=".682" d="M388.444 91.196l119.904 20.134 83.405 33.497-210.081-17.406z"/><path fill="#ee2a2b" fill-opacity=".663" d="M652.453 99.186L613.61-62l108.242 88.407-25.946 54.963z"/><path fill="#c60a0f" fill-opacity=".561" d="M770.488 672.628L597.016 392.833l-161.07-85.352L670.32 460.738z"/><path fill="#dbe1d2" fill-opacity=".631" d="M820.428 1005.056L696.536 1086l55.837-128.616 42.548-25.212z"/><path fill="#8f0106" fill-opacity=".643" d="M621.132 394.017l.448 67.974-115.46 237.894 10.24-69.296z"/><path fill="#b7bbca" fill-opacity=".914" d="M414.116 1000.791L387.326 1086l58.259-91.993 74.304-377.632z"/><path fill="#c70004" fill-opacity=".369" d="M448.754 727.027L553.52 302.698l-96.746 189.404 127.803-101.208z"/><path fill="#b3deff" fill-opacity=".384" d="M329.968 1055.136l75.31-365.72-136.928 343.14 85.39-359.146z"/><path fill="#bc561f" fill-opacity=".675" d="M340.02 631.547l91.784-295.935-87.386 169.916-95.654 12.637z"/><path fill="#881115" fill-opacity=".753" d="M343.332 1001.988l5.426 39.413 71.575-259.63-1.654-97.762z"/><path fill="#f5fedb" fill-opacity=".365" d="M152.26 723.38l48.805-178.323-128.247 71.948 175.948 42.442z"/><path fill="#404722" fill-opacity=".412" d="M630.31 828.74L898 1001.052l-63.327-260.377-36.098 94.693z"/><path fill="#690204" fill-opacity=".533" d="M38.721 616.408l168.95-277.026-.244 277.355-26.66-182.726z"/><path fill="#ab1a24" fill-opacity=".698" d="M241.006 595.405l44.657-154.812 37.9-84.415 40.807-54.025z"/><path fill="#b7e7ff" fill-opacity=".514" d="M458.187 659.703l-26.25 186.363L358.97 1086l39.587-229.243z"/><path fill="#a0cfff" fill-opacity=".439" d="M733.561 440.717l11.507 11.855-35.244-186.095-175.619 48.57z"/><path fill="#f9f3ef" fill-opacity=".478" d="M553.843 201.59l305.24-34.443-24.634 107.602L713.92 85.665z"/><path fill="#7d2a2e" fill-opacity=".992" d="M427.552 584.663l19.18-63.71 19.13 21.907-71.104 234.84z"/><path fill="#f0e7ef" fill-opacity=".561" d="M898 520.84l-141.259 92.792L551.6 268.762l203.514 302.654z"/><path fill="#d2efff" fill-opacity=".435" d="M517.278 589.73l39.513-223.09-79.184 119.753 118.063-19.309z"/><path fill="#d1e1f5" fill-opacity=".596" d="M442.032 1086l75.69-246.591-29.993 222.996 8.84-70.663z"/><path fill="#7b1b20" fill-opacity=".749" d="M413.584 497.083L287.182 1043.89l47.203-98.96 36.512-189.47z"/><path fill="#323854" fill-opacity=".816" d="M143.376 249.763l28.257-30.556 32.06 78.249-39.235 38.63z"/><path fill="#876141" fill-opacity=".875" d="M456.115 226.047l-69.847-2.848L500.675 326.43l93.12-239.268z"/><path fill="#b82a2c" fill-opacity=".769" d="M372.131 338.989l-7.33 89.25-64.027 109.867 34.8-101.036z"/><path fill="#c7e5ff" fill-opacity=".573" d="M413.085 405.409l18.238.472-80.289 258.35 26.41-158.31z"/><path fill="#670203" fill-opacity=".682" d="M553.914 870.547l52.712-155.636 37.426-90.39-56.759-76.134z"/><path fill="#bde1ff" fill-opacity=".573" d="M301.017 364.904l-58.789 131.715-1.819 75.232 9.785-12.051z"/><path fill="#a9000a" fill-opacity=".373" d="M220.382 563.559l92.114-239.302L194.244 475.78l76.844-192.34z"/><path fill="#57120f" fill-opacity=".761" d="M817.51 64.602L795.287-62 898 27.717v99.862z"/><path fill="#c6e5ff" fill-opacity=".42" d="M412.942 342.47L280.429 542.61l51.398-189.132 16.448 170.795z"/><path fill="#fd8f8d" fill-opacity=".616" d="M-62 55.872l340.144-75.387-17.6 146.155L128.568-62z"/><path fill="#e32530" fill-opacity=".612" d="M797.185 601.85l-20.2-11.642-67.325-93.545-40.452-81.139z"/><path fill="#9adefc" fill-opacity=".322" d="M417.82 633.837l19.769-125.013-37.14 66.668-65.489 469.223z"/><path fill="#161518" fill-opacity=".816" d="M366.31 354.471l161.09-21.475-58.784 30.031-75.07 11.02z"/><path fill="#6f1f24" fill-opacity=".835" d="M241.794 1086l77.905-375.61 33.814-106.317-50.851 280.262z"/><path fill="#d29487" fill-opacity=".745" d="M813.13-62l-160.78 2.817 172.658 270.7-67.038 54.29z"/><path fill="#4f5050" d="M453.096 677.077l-15.2 26.648 1.183 21.875-221.98-94.378z"/><path fill="#a1d4f2" fill-opacity=".427" d="M301.938 803.31l29.845-213.783-98.208 443.344 13.758-28.332z"/><path fill="#dffcff" fill-opacity=".314" d="M569.804 294.544L458.66 405.155l-5.653 369.223 23.148-331.84z"/><path fill="#794735" fill-opacity=".635" d="M-62 661.626L99.89 676.05 26.87 520.957l125.359-117.913z"/><path fill="#d2eaf6" fill-opacity=".349" d="M225.35 806.523l-93.66 158.014-49.285-41.157-2.284-242.086z"/><path fill="#173b3c" fill-opacity=".529" d="M-62 251.418l129.525 73.273 3.183-51.734-29.136-62.759z"/><path fill="#cfdcfa" fill-opacity=".592" d="M125.01 473.4l-39.765 49.318-4.315-18.185 125.843-181.049z"/><path fill="#3870e6" fill-opacity=".439" d="M368.272 261.808L190.645 298.89l8.118-96.239 172.086-33.243z"/><path fill="#ffc2d6" fill-opacity=".447" d="M311.578 1010.861l-122.897 6.942L368.234 1086l13.476-102.681z"/><path fill="#b60005" fill-opacity=".447" d="M526.808 464.534l55.507-95.84-6.53 55.477-115.724 237.571z"/><path fill="#c64654" fill-opacity=".961" d="M229.678 295.373l170.448 2.265-153.124 11.576-114.944 72.96z"/><path fill="#b07a47" fill-opacity=".533" d="M700.866 1086l-130.7-107.858 87.308-9.209L898 521.003z"/><path fill="#e4f1ff" fill-opacity=".506" d="M335.78 316.899l-57.428 139.564 14.35-171.732-53.697 119.66z"/><path fill="#d2b3ab" fill-opacity=".612" d="M24.307 299.058l-49.28 26.72 30.43 214.509L67.92 461.17z"/><path fill="#ffeefe" fill-opacity=".396" d="M205.305 398.602l18.12 13.978-.433-138.911 55.483 10.278z"/><path fill="#c6a9a3" fill-opacity=".592" d="M584.342 62.633l.408 264.521 69.959-62.542L634.893-62z"/><path fill="#0d3a73" fill-opacity=".224" d="M774.226 255.343L896.185 534.27 754.62 521.798l-85.524-273.691z"/><path fill="#e0bcc7" fill-opacity=".816" d="M880.646 623.728l-25.286-42.033-121.168-76.093 24.53 41.723z"/><path fill="#fed796" fill-opacity=".286" d="M497.5 199.654L378.067 10.832l187.054 56.83-161.666 70.99z"/><path fill="#3f060d" fill-opacity=".51" d="M264.584 498.108l13.823 77.601-16.238 199.463-15.918 56.073z"/><path fill="#dae6e7" fill-opacity=".557" d="M554.509 933.198l18.008-61.821 140.517-5.275-72.605 115.765z"/><path fill="#b1deed" fill-opacity=".514" d="M596.61 514.087l-5.454 30.754 53.568 54.32 19.523 1.483z"/><path fill="#1b060b" fill-opacity=".4" d="M195.098 561.753l-74.271 11.655 59.735-106.748 54.696-54.614z"/><path fill="#c2e0fc" fill-opacity=".408" d="M216.13 534.439l72.76-234.45L217.252 456.3l3.425-12.299z"/><path fill="#8a0408" fill-opacity=".624" d="M680.62 579.885l28.93 101.385-113.475-198.815 19.93 12.695z"/><path fill="#cf3700" fill-opacity=".341" d="M306.866-19.966L190.858-62l74.38 136.586 70.94-19.568z"/><path fill="#e33842" fill-opacity=".753" d="M396.112 530.796l96.643-173.044-14.199 3.46-41.684 46.144z"/><path fill="#b1e1fe" fill-opacity=".298" d="M285.91 456.097l-8.124 289.645L198.026 1086l91.815-487.883z"/><path fill="#30292d" fill-opacity=".808" d="M483.87 360.517l74.747-51.895-11.777-32.558-18.474-9.902z"/><path fill="#a9bccc" fill-opacity=".812" d="M458.388 556.804L439.12 748.379l41.884-161.952 5.502-43.924z"/><path fill="#03151c" fill-opacity=".282" d="M574.47 479.693l95.9 320.576 9.757 76.216-77.29-197.489z"/><path fill="#30211b" fill-opacity=".769" d="M371.46 372.965l105.47-90.132-117.369-8.079-11.738 22.472z"/><path fill="#be9c91" fill-opacity=".537" d="M27.601 1039.797L90.105 711.69-62 670.95 105.585 1086z"/><path fill="#ff383d" fill-opacity=".31" d="M100.184-62L71.698 197.53l-88.273-15.742-3.477-23.43z"/><path fill="#940003" fill-opacity=".522" d="M765.807 631.572l-98.816-112.765-14.822-37.065 32.242 18.24z"/><path fill="#b3d8eb" fill-opacity=".51" d="M518.842 542.59l-43.953 190.695 63.376-155.019 71.597-171.17z"/><path fill="#dd2735" fill-opacity=".659" d="M292.357 291.567l-87.676 161.61 52.711-139.68-22.438-18.488z"/><path fill="#1e1813" fill-opacity=".871" d="M51.603 478.686l14.004 140.74 92.844-73.8-30.432 23.434z"/><path fill="#3d5149" fill-opacity=".471" d="M546.394 18.162L490.286-3.05l-62.26 18.755 144.946 38.738z"/><path fill="#bc3131" fill-opacity=".788" d="M324.569 461.718l-20.072 95.062 71.686-168.47-2.583-39.124z"/><path fill="#a3191f" fill-opacity=".78" d="M332.833 1015.676l52.271-132.67L329.182 1086h-96.736z"/><path fill="#4f0209" fill-opacity=".431" d="M341.44 642.02l-98.416 298.59 24.398-150.751 55.98 14.957z"/><path fill="#e0d6e5" fill-opacity=".243" d="M176.377-62L54.67 54.774l13.396 136.641L232.05 209.68z"/><path fill="#66181d" fill-opacity=".843" d="M267.264 854.487L307.8 680.298l-1.204-4.318-18.157 5.957z"/><path fill="#071615" fill-opacity=".282" d="M469.597 621.243l38.245-6.726-38.681-160.26 51.736 50.017z"/><path fill="#7b5e48" fill-opacity=".878" d="M368.229 148.048l97.365 29.82-65.074 16.56-21.777 77.936z"/><path fill="#f5fbfd" fill-opacity=".427" d="M657.96 451.102l-43.77-96.629 96.423 132.137 9.31 53.648z"/><path fill="#c3e6fe" fill-opacity=".486" d="M328.314 374.434l-32.81 132.833 68.81-143.985-2.75-30.735z"/><path fill="#b5e4ff" fill-opacity=".388" d="M200.447 383.365l-23.169 88.876-45.422 61.43-14.574 2.43z"/><path fill="#eaf5ff" fill-opacity=".549" d="M529.442 409.027l-35.235 57.047 17.166 27.293 59.826-130.372z"/><path fill="#e1c6a8" fill-opacity=".424" d="M106.92 613.988l100.116 127.86 25.491-77.541-108.33-98.596z"/><path fill="#f1def6" fill-opacity=".373" d="M522.769 337.732l168.92-23.248 35.386 94.483-111.207-2.89z"/><path fill="#01261e" fill-opacity=".38" d="M546.61 554.266l20.06-27.172L674.467 629.62l-54.324-22.561z"/><path fill="#fd4d5b" fill-opacity=".624" d="M629.57 407.434l73.85 112.186-192.537-186.782 86.317 61.823z"/><path fill="#d6f0ff" fill-opacity=".576" d="M360.986 553.554l62.435-163.88-3.908-4.263 40.9-22.621z"/><path fill="#b80016" fill-opacity=".475" d="M409.843 423.381l-94.349 169.757 51.118-113.272 65.286-147.505z"/></svg>