<svg xmlns="http://www.w3.org/2000/svg" width="228" height="278" viewBox="0 0 836 1024"><path fill="#64544c" d="M0 0h836v1024H0z"/><g fill-opacity=".502"><path fill="#fff" d="M486 658L198 470l412-36zm168 428L538 870l360 88z"/><path fill="#ffffe4" d="M198 1086V866L-62 990z"/><path fill="#101914" d="M-62-2l260 696L330 2z"/><path fill="#fff" d="M558 746l-60 88-240-44z"/><path fill="#1b1e1a" d="M398-62L898 6 682 646z"/><path fill="#d10010" d="M294 734l-28-180 348-28z"/><path fill="#fff" d="M230 458l372 4-348 108z"/><path fill="#fdbb7a" d="M654 402l120 260 124 32z"/><path fill="#0e150c" d="M318 898L214 374 90 562z"/><path fill="#c57e84" d="M486 542L274 794l284-60z"/><path fill="#e4dfce" d="M898 870l-340 84 248 132z"/><path fill="#362c21" d="M626 786l-88 260-220-180z"/><path fill="#a27564" d="M218 894l-280 88 84-440z"/><path fill="#487290" d="M170 574L10 826l240-44z"/><path fill="#d16154" d="M566 930l332-28-352-104z"/><path fill="#312d1d" d="M86 438l560-260-200 276z"/><path fill="#fff" d="M262 542l312-12-120-84z"/><path fill="#bf7945" d="M514 118l-224 32 180 176z"/><path fill="#010600" d="M570 38L330 146l16-104z"/><path fill="#282517" d="M250 642l132 428-188-28z"/><path fill="#ff9c82" d="M526 1086H290l104-156z"/><path fill="#758b7f" d="M78 450l208-152-348 112z"/><path fill="#fff" d="M90 562l-32-36 60-32z"/><path fill="#b20000" d="M558 646l-20-108-60 136z"/><path fill="#deffff" d="M498 578l16 52-88-16z"/><path fill="#152d28" d="M690 754l-92-300 224 288z"/><path fill="#2b322e" d="M890 646L722 506 898 42z"/><path fill="#0f0600" d="M62 694l84-296 64 136z"/><path fill="#e3f9ed" d="M302 802l-12-60 192 84z"/><path fill="#e9bc73" d="M54 542l-88 164L6 822z"/><path fill="#d9fcc0" d="M150 938l100 148-312-56z"/><path fill="#c8cbc6" d="M258 986l128-40-104 4z"/><path fill="#dde5e6" d="M550 766l-188-20 184 72z"/><path fill="#b10000" d="M294 726l164 8-80 24z"/><path fill="#880913" d="M250 562l336 104-312 16z"/><path fill="#95b6b5" d="M558 678l-232 8 140 52z"/><path fill="#e3f4fc" d="M578 546l-256-80 276-36z"/><path fill="#120800" d="M582 494l168 152-128-228z"/><path fill="#2b302a" d="M566 826L454 974 214 818z"/></g></svg>