<svg xmlns="http://www.w3.org/2000/svg" width="228" height="278" viewBox="0 0 836 1024"><path fill="#6a7877" d="M0 0h836v1024H0z"/><path fill="#d0e5f0" fill-opacity=".647" d="M724.576 1086L338.924 268.595 86.63 445.402 253.734 1086z"/><path fill="#000c00" fill-opacity=".467" d="M898 343.174L854.66-62 7.347-60.491-62 321.619z"/><path fill="#281d0e" fill-opacity=".318" d="M255.91 610.054L838.56 1086 852.955-10.931l-106.31 612.575z"/><path fill="#fffffb" fill-opacity=".255" d="M304.252 72.53L179.808 560.686l634.109 15.4L420.134 68.421z"/><path fill="#133331" fill-opacity=".58" d="M-62 11.272L50.72 1086l62.785-657.807 237-460.953z"/><path fill="#143333" fill-opacity=".573" d="M898 818.11L742.534-62 330.928 382.795l335.858-45.941z"/><path fill="#ae9f8a" d="M231.845 865.384l-101.318 215.438-22.206-497.124 109.536 67.11z"/><path fill="#dff2ff" fill-opacity=".478" d="M443.79 526.28l251.328-143.341-568.923 7.594-5.122 104.882z"/><path fill="#91b3b6" fill-opacity=".761" d="M607.248 797.532l74.691 157.676-397.043-255.596L600.37 642.26z"/><path fill="#e1eff6" fill-opacity=".671" d="M233.86 659.668L413.374 868.57 347.867 1086l-121.89-69.12z"/><path fill="#260c0a" fill-opacity=".337" d="M614.3 742.376L693.684 1086l118.994-93.367-188.87-630.517z"/><path fill="#c3ced3" fill-opacity=".612" d="M616.766 367.336L387.532 237.512 672.15 364.908 898 816.57z"/><path fill="#39383a" fill-opacity=".596" d="M221.872 784.407l.991-158.138L179.3 993.088l53.7-23.237z"/><path fill="#ebad72" fill-opacity=".486" d="M272.914 98.697l48.58 271.416 75.892-230.33 74.54-85.253z"/><path fill="#3d6489" fill-opacity=".6" d="M665.716 643.228l-343.363 48.386-73.916-64.486-7.86-57.231z"/><path fill="#485853" fill-opacity=".984" d="M87.065 406.66l38.82 481.26L113.737 1086-62 1008.417z"/><path fill="#8e6e4f" fill-opacity=".98" d="M781.638 866.407L818.264 1086 898 706.41l-174.38-40.905z"/><path fill="#614827" fill-opacity=".769" d="M396.044 77.22l30.56 46.521-15.147 259.823-56.657-2.551z"/><path fill="#011e5d" fill-opacity=".69" d="M525.01 478.85l-50.475 27.458 21.61 43.932 41.356-21.683z"/><path fill="#163130" fill-opacity=".769" d="M898 196.654L844.987 1.136 534.48-62l-95.882 317.43z"/><path fill="#27403f" fill-opacity=".965" d="M287.45 199.319l13.923 75.434-237.54 149.368L-62 331.218z"/><path fill="#5c8579" fill-opacity=".78" d="M733.48 618.9l-94.775-204.5-129.833 252.874-212.79 20.948z"/><path fill="#f6c28b" fill-opacity=".392" d="M479.457 176.794L411.089 39.896l51.823 323.192-56.787-98.612z"/><path fill="#100000" fill-opacity=".404" d="M229.39-46.93L527.018-62 314.336 173.543l135.563-3.312z"/><path fill="#e1eaf9" fill-opacity=".424" d="M329.681 670.118l-100.616-339.4 79.53-51.91 47.357 177.672z"/><path fill="#e3bb8f" fill-opacity=".408" d="M284.517 72.405l81.367 315.09-119.481-244.8 238.368-58.544z"/><path fill="#03244b" fill-opacity=".392" d="M462.752 551.727l60.776 94.791-301.056 20.906 238.367 4.807z"/><path fill="#729894" fill-opacity=".718" d="M594.584 463.44l18.108 246.896-80.295 173.62-95.158 8.927z"/><path fill="#9bb5b8" fill-opacity=".992" d="M236.062 654.333l-74.251-177.584-54.556 78.487 10.133 101.779z"/><path fill="#667fac" fill-opacity=".894" d="M277.866 345.578l2.69-54.422L113.97 397.6l55.29-12.947z"/><path fill="#6c89ab" fill-opacity=".443" d="M431.443 396.17l47.411-117.246 158.311 63.266-21.272 114.037z"/><path fill="#ebbc98" fill-opacity=".553" d="M91.31 1086l123.282-347.345L101.35 708.84l87.82 302.757z"/><path fill="#5f3434" fill-opacity=".831" d="M671.656 835.918l111.478 17.497L807.444 1086H667.537z"/><path fill="#cad8e3" fill-opacity=".49" d="M678.23 1086l-176.3-24.672 106.648-253.96 51.621 96.194z"/><path fill="#abc3cb" fill-opacity=".925" d="M378.883 668.089l-88.455 45.666 16.28 117.395 144.909-154.808z"/><path fill="#082d30" fill-opacity=".659" d="M751.175 768.102L717.1 656.891l-84.981-26.977 32.303 140.004z"/><path fill="#fdcdad" fill-opacity=".298" d="M381.753 119.934l26.376 177.851 98.777 6.102L351.68 192.212z"/><path fill="#4a6ca9" fill-opacity=".514" d="M298.205 534.998l-34.34-41.752-4.604-2.47-33.355 42.209z"/><path fill="#d7e4ef" fill-opacity=".498" d="M514.577 427.601l-273.135 198.93 272.056-69.703-376.071-184.64z"/><path fill="#18173b" fill-opacity=".631" d="M521.501 353.326l119.362 32.36-195.81-77.727 6.202-4.257z"/><path fill="#eafbff" fill-opacity=".373" d="M638.534 342.186l-10.576 43.978-107.31-21.817 221.528 109.136z"/><path fill="#523f3d" fill-opacity=".765" d="M212.918 1086l-35.206-127.359 45.364-158.879.758 202.83z"/><path fill="#6e4409" fill-opacity=".373" d="M803.918 668.489l-23.151-78.44-54.963 28.77L898 1086z"/><path fill="#324a48" fill-opacity=".78" d="M867.76 230.978L548.869 244.51l117.777 125.67 218.905 171.87z"/><path fill="#011958" fill-opacity=".588" d="M513.823 669.399l-134.119-.684-73.212 22.906 27.391-40.938z"/><path fill="#fdfbd9" fill-opacity=".329" d="M447.957 202.998l7.283-101.182-19.91-47.835-20.248-15.718z"/><path fill="#163637" fill-opacity=".965" d="M836.064 708.423l-18.748-57.865-59.637-131.01L898 442.946z"/><path fill="#e5e6cf" fill-opacity=".471" d="M857.178 804.609l-52.434-183.19-82.06-40.732 29.26-70.016z"/><path fill="#e0ebf5" fill-opacity=".49" d="M256.072 349.38l-132.698 58.977L305.71 722.163 220.293 1086z"/><path fill="#0a0a01" fill-opacity=".706" d="M283.919 13.27l127.918-61.645-13.091 116.993-119.293-4.687z"/><path fill="#ae8f75" fill-opacity=".816" d="M810.382 1031.21l52.627 54.79-134.845-406.709 36.994 15.306z"/><path fill="#3a2f00" fill-opacity=".224" d="M416.255 262.084l76.238 139.686-142.848-13.72 12.096-144.09z"/><path fill="#57491b" fill-opacity=".475" d="M180.774 668.094l5.246 55.094L56.15 618.664l70.614 58.14z"/><path fill="#e6e2ca" fill-opacity=".435" d="M177.294 874.46l-3.968-135.532 33.794-103.945-3.05 214.424z"/><path fill="#1d3736" fill-opacity=".698" d="M372.513-62l82.688 133.854 34.28 220.712L898 211.652z"/><path fill="#00328f" fill-opacity=".631" d="M246.102 577.11l45.946 28.544 12.426-26.51-65.934-1.575z"/><path fill="#2c2201" fill-opacity=".639" d="M428.125 176.468l-99.674-47.875 5.407 39.553 99.147-32.286z"/><path fill="#cbdae3" fill-opacity=".753" d="M501.714 443.351l-175.435-73.864L351.53 622.53l27.59-15.68z"/><path fill="#e3ebf1" fill-opacity=".878" d="M287.223 333.038l-22.9.125 38.736-51.428-6.326 188.077z"/><path fill="#180304" fill-opacity=".686" d="M401.764 262.72l-4.098-14.704-55.097 8.185 41.936 17.7z"/><path fill="#284241" fill-opacity=".824" d="M133.625 372.228l-35.256 132.26L-62 431.686 47.91 179.814z"/><path fill="#334e75" fill-opacity=".541" d="M350.042 589.213l2.558 43.003 144.995 5.126-217.583 11.586z"/><path fill="#99b4b9" fill-opacity=".882" d="M370.713 967.329l210.5-80.094 18.652-199.664 17.485 245.196z"/><path fill="#91b2bc" fill-opacity=".686" d="M490.885 474.593l157.872-62.245-182.961 192.301 133.792-78.092z"/><path fill="#92aab7" fill-opacity=".973" d="M307.736 663.11l71.309-15.094-197.055 3.52-32.091-8.031z"/><path fill="#67130f" fill-opacity=".275" d="M126.193 957.316l.901-45.909L-62 1022.55 96.407 1086z"/><path fill="#e7ad9a" fill-opacity=".4" d="M385.745 174.583l-122.64 25.754-14.527-56.357 165.338 80.31z"/><path fill="#98b1b0" d="M688.085 525.69l51.093 72.847 17.392-37.957-117.546-163.83z"/><path fill="#f5fafe" fill-opacity=".4" d="M645.543 386.628l72.778 58.852-38.623-63.978-55.145-52.159z"/><path fill="#bfa681" fill-opacity=".553" d="M357.307 398.275l-56.983-65.943 4.991-209.757 49.638 113.632z"/><path fill="#daecf6" fill-opacity=".4" d="M467.847 1075.785l188.505-168.833-233.039 83.04 248.882 29.434z"/><path fill="#d8e5ed" fill-opacity=".875" d="M369.33 545.613l-79.327-261.562 13.106 228.655-88.933 77.18z"/><path fill="#305d45" fill-opacity=".212" d="M730.112 450.634L510.647 806.2l107.111-317.861 113.689 40.345z"/><path fill="#003694" fill-opacity=".439" d="M308.425 572.144l-55.21 12.049-7.314-14.442-5.224 57.569z"/><path fill="#425d59" fill-opacity=".839" d="M89.143 441.39L-62 710.291 110.93 814.54l2.678-182.388z"/><path fill="#dce7ef" fill-opacity=".8" d="M279.567 852.919l-56.714-176.277L238.315 1086l80.501-597.778z"/><path fill="#cfa981" fill-opacity=".388" d="M358.436 67.847l-79.204 53.978 115.007 22.839 25.59-18.218z"/><path fill="#cba37f" fill-opacity=".737" d="M128.84 962.77l-17.855-267.383 29.698-14.468 42.047 220.36z"/><path fill="#bbd3db" fill-opacity=".455" d="M294.414 820.305l211.57-78.764-68.467 106.122L365.153 1086z"/><path fill="#00222b" fill-opacity=".31" d="M542.541 618.833l-88.087-41.074 19.59-22.369 36.437 107.487z"/><path fill="#00136e" fill-opacity=".333" d="M641.377 373.807l-63.263-36.253 141.155 39.465-234.835-65.642z"/><path fill="#79a69c" fill-opacity=".655" d="M421.777 661.54l-17.589-14.416 96.31-7.806-23.054 22.096z"/><path fill="#0a434b" fill-opacity=".157" d="M164.509 435.065l56 215.016 91.496-.41-135.628-36.842z"/><path fill="#584340" fill-opacity=".824" d="M647.823 892.823L604.28 760.636l164.147 86.932-92.811 94.688z"/><path fill="#d3dde7" fill-opacity=".502" d="M748.813 507.26L640.779 347.394 462.842 276.5l201.628 90.592z"/><path fill="#c1d4dd" fill-opacity=".773" d="M426.327 619.642l20.976-81.817L582.767 566.1l-219.805-14.648z"/><path fill="#264040" fill-opacity=".741" d="M230.126 130.35l67.412 154.78-41.61 32.83-160.752 62.825z"/><path fill="#c6ccd2" fill-opacity=".694" d="M235.021 342.553l-86.378 35.097 183.965-63.58-29.17-7.504z"/><path fill="#10254b" fill-opacity=".376" d="M393.234 638.491l-6.75-74.5 17.829 47.117 137.843-2.771z"/><path fill="#1c322e" fill-opacity=".573" d="M-62-4.43l349.419 156.443-8.689 27.547L305.272-62z"/><path fill="#4e5d5c" fill-opacity=".706" d="M209.576 663.29l6.231 2.254 14.864 238.915-14.429 57.896z"/><path fill="#d8efff" fill-opacity=".392" d="M107.984 456.65l5.89 188.48 10.154 15.155 16.011-.692z"/><path fill="#383a39" fill-opacity=".745" d="M627.714 582.38L602.38 764.752l17.253 56.286 57.541-46.587z"/><path fill="#8ea9aa" fill-opacity=".639" d="M599.464 815.102l20.93-243.857L565.77 785.92l-124.182 62.778z"/><path fill="#e1ecf4" fill-opacity=".875" d="M362.762 439.106L126.28 407.164l153.75-64.781-.999-40.238z"/><path fill="#fff8e4" fill-opacity=".231" d="M770.202 546.783L898 881.453 729.34 494.897l-44.027-87.929z"/><path fill="#00144e" fill-opacity=".514" d="M479.278 518.962l44.793 33.112 4.628-63.701-19.605.882z"/><path fill="#738c8b" fill-opacity=".757" d="M425.73 390.054l-41.328-11.932 104.248.597-9.756-90.842z"/><path fill="#b8ccd5" fill-opacity=".714" d="M430.92 500.876l45.761 105.357-75.779-44.053 1.28 76.455z"/><path fill="#5e3007" fill-opacity=".439" d="M433.418 233.789l10.348-45.468-78.441 51.23 55.509-18.565z"/><path fill="#e3b897" fill-opacity=".498" d="M126.956 738.195l46.213 269.78L92.209 1086l38.322-126.187z"/><path fill="#594f1a" fill-opacity=".514" d="M791.085 667.664l-107.244-18.58 80.972-62.127 21.915 46.153z"/><path fill="#382e2d" fill-opacity=".427" d="M802.082 939.27L801.076 1086l-33.08-39.537-37.455-360.866z"/><path fill="#c4dae5" fill-opacity=".361" d="M293.173 964.258l276.853-110.402 30.869-73.214-25.972 110.25z"/><path fill="#bc9077" fill-opacity=".996" d="M806.464 902.642l32.913 179.126L898 874.224l-98.304 210.7z"/><path fill="#98afbe" fill-opacity=".851" d="M339.023 624.29l3.65 37.775-14.27-12.778 6.397-102.39z"/><path fill="#402d01" fill-opacity=".306" d="M409.485 159.675L448.63 135.7l-126.643-2.204-13.908 33.345z"/><path fill="#547a68" fill-opacity=".624" d="M656.702 605.481l-122.656-88.75 122.076 53.574-185.245-6.367z"/><path fill="#76a49d" fill-opacity=".388" d="M370.342 1084.895l205.923-122.446-100.25 37.33-74.717 7.621z"/><path fill="#3b5984" fill-opacity=".443" d="M46.351 483.674l101.975-109.75 145.888-31.16-170.846 51.678z"/><path fill="#9eb3c3" fill-opacity=".953" d="M465.46 483.827L608.75 418.7 445.533 533.182l6.665-3.036z"/><path fill="#cee0e8" fill-opacity=".616" d="M340.777 498.372L204.022 562.53l40.22 124.005-4.435-95.186z"/><path fill="#dce3e8" fill-opacity=".322" d="M650.972 962.356L581.52 740.437l84.61 198.214-212.986 145.83z"/><path fill="#59482d" fill-opacity=".882" d="M458.606 341.606l6.809-58.937-47.51 95.83-67.088-125.88z"/><path fill="#a7bdc9" fill-opacity=".6" d="M640.32 393.59l-149.473 73.934 80.126 31.837-57.01-151.468z"/><path fill="#ddeaf2" fill-opacity=".427" d="M258.487 598.612l22.396-6.088-57.144 139.678 55.328 351.425z"/><path fill="#daa69a" fill-opacity=".345" d="M413.233 194.882l-56.43-31.611 23.471 85.289-57.925 6.498z"/><path fill="#010234" fill-opacity=".349" d="M503.071 346.628l143.555 37.824-141.64-52.182-21.143-15.889z"/><path fill="#003288" fill-opacity=".545" d="M299.4 589.118l-60.398 17.718 16.665-27.804 52.61-6.155z"/><path fill="#2d3e3c" fill-opacity=".733" d="M898 477.029l-143.272 35.74-38.692-69.344 181.66 26.222z"/></svg>