<svg xmlns="http://www.w3.org/2000/svg" width="228" height="278" viewBox="0 0 836 1024"><path fill="#672e2d" d="M0 0h836v1024H0z"/><path fill="#d3f3af" fill-opacity=".561" d="M34.222 816.16L-62 1010.996l287.335 68.722 11.457-294.152z"/><path fill="#b7fdb5" fill-opacity=".486" d="M788.294 602.931l47.37-16.668 4.9 499.737-174.917-25.458z"/><path fill="#050e11" fill-opacity=".773" d="M-62 464.426L17.663 20.495 368.925-62l4.67 324.46z"/><path fill="#002538" fill-opacity=".604" d="M898 761.831L457.605 10.247 896.343-11.86l-78.62 742.507z"/><path fill="#a2000a" fill-opacity=".741" d="M229.937 692.945l23.851 317.576 380.821 61.192L774.53 748.298z"/><path fill="#970114" fill-opacity=".784" d="M180.904 361.036l513.134 39.341 67.597 263.525-552.374-24.417z"/><path fill="#c7a687" fill-opacity=".522" d="M560.002 268.912L375.76 416.472l-5.91-322.883 219.073 63.987z"/><path fill="#298265" fill-opacity=".62" d="M78.958 788.326l8.39-137.225 126.086-79.255 14.794 239.707z"/><path fill="#ff1826" fill-opacity=".565" d="M-62 1057.036V475.258l148.922 205.59-5.883 57.027z"/><path fill="#2352a6" fill-opacity=".463" d="M600.674 329.024L898 403.799 774.879 757.305 751.647 535.15z"/><path fill="#210900" fill-opacity=".459" d="M505.22 673.173l384.143 96.33-132.5-116.018-13.001-165.17z"/><path fill="#aca400" fill-opacity=".588" d="M46.26 803.177l182.082-35.13 12.45 122.089-217.476-16.311z"/><path fill="#aca40b" fill-opacity=".686" d="M884.507 873.461L844.755 692.79l-98.769 64.688-30.494 116.375z"/><path fill="#0f0d0f" fill-opacity=".82" d="M657.017-62L547.94 311.751l36.37 38.75 148.842-137.555z"/><path fill="#9ca0ac" fill-opacity=".859" d="M212.865 1086H68.218l-85.372-204.437 254.046 24.08z"/><path fill="#de0d30" fill-opacity=".388" d="M766.792 443.024l-404.348-63.035-21.44-83.123L27.542 514.562z"/><path fill="#a0aa71" fill-opacity=".29" d="M179.962 381.691L61.036 599.522-62 691.362l42.082-328.13z"/><path fill="#606c8e" fill-opacity=".788" d="M536.108 565.145l33.908 38.422 32.513-42.584-31.82-55.673z"/><path fill="#b7b3ff" fill-opacity=".365" d="M649.564 1086l64.281-194.797 117.946-15.4L898 1043.994z"/><path fill="#43b822" fill-opacity=".412" d="M349.7 712.375l-100.127-52.37 333.227 5.149-12.157 60.554z"/><path fill="#530000" fill-opacity=".718" d="M404.225 600.34L287.218 486.52 49.468 685.77l85.996-240.524z"/><path fill="#be98fd" fill-opacity=".318" d="M121.976 624.64l78.387-43.8 22.517 104.171-147.651 2.33z"/><path fill="#ef1d3c" fill-opacity=".553" d="M621.335 1086l60.176-357.95-119.622 58.602 129.424 218.588z"/><path fill="#014d35" fill-opacity=".875" d="M210.95 684.853l9.868 63.998-138.055 27.081 2.2-77.034z"/><path fill="#141910" fill-opacity=".549" d="M414.507-62L227.452 83.366 891.993-62 392.615 150.206z"/><path fill="#730005" fill-opacity=".863" d="M435.28 885.004l178.96-58.418-164.725-109.071-161.066 71.302z"/><path fill="#0d1118" fill-opacity=".824" d="M416.964 1056.6l-98.407-58.59-86.385.002L190.419 1086z"/><path fill="#7e6507" fill-opacity=".898" d="M79.453 486.602l11.54-51.273L-62 515.285l70.232 88.326z"/><path fill="#d192bc" fill-opacity=".51" d="M112.836 426.78l359.62-170.318-220 92.91-92.264 35.02z"/><path fill="#ffb483" fill-opacity=".102" d="M621.811 562.848l147.42-258.15L684.478-62 898 323.702z"/><path fill="#1c0f03" fill-opacity=".51" d="M462.096 182.987l74.977 22.484 174.534-31.041-237.41 62.708z"/><path fill="#7b020a" d="M294.258 506.957l-93.12-15.888 26.677 199.36 47.151 45.986z"/><path fill="#1f2e3b" fill-opacity=".545" d="M385.465 220.962l-31.078 79.277-240.51 110.722L-62 478.37z"/><path fill="#5171ac" fill-opacity=".816" d="M774.24 677.871l97.087 5.19-14.333-84.505-98.576-9.696z"/><path fill="#f1c0e9" fill-opacity=".471" d="M59.871 562.169l-16.434-22.57 61.168-11.593-29.04 48.116z"/><path fill="#7e8175" fill-opacity=".635" d="M576.652 11.772L442.9 16.428l-87.135 87.09 111.936-161.83z"/><path fill="#be9683" fill-opacity=".584" d="M393.234 394.86l50.228-145.56 24.043-167.248-101.345 221.38z"/><path fill="#b5031d" fill-opacity=".761" d="M557.766 328.859L593 397.537l153.84 93.816-237.76 35.218z"/><path fill="#d80022" fill-opacity=".341" d="M220.995 758.687l90.993 252.187 84.935-59.084-151.2-293.382z"/><path fill="#05286d" fill-opacity=".91" d="M760.679 574.807l-32.012-137.68 98.43 25.32L898 613.589z"/><path fill="#0c3223" fill-opacity=".624" d="M638.376 678.528l-256.054-26.6-95.198 6.573 92.618 25.67z"/><path fill="#080507" fill-opacity=".722" d="M747.378-7.238L559.934 30.163 814.82-62 898 266.649z"/><path fill="#2d2634" fill-opacity=".824" d="M222.334 363.98l31.07 22.666 1.329 18.67-45.515-15.227z"/><path fill="#5d0000" fill-opacity=".663" d="M683.365 461.33l-25.488 284.047 76.29 24.867 25.33-197.46z"/><path fill="#2f6e2f" fill-opacity=".722" d="M745.47 786.023l60.332-78.596L898 671.665l-150.517 12.462z"/><path fill="#9b9c00" fill-opacity=".557" d="M535.545 699.647l36.373 7.594-150.124 4.375-192.977-41.574z"/><path fill="#2c232b" fill-opacity=".678" d="M663.77 253.32l-54.292 11.102-45.208 137.122 328.628-102.728z"/><path fill="#775c3c" fill-opacity=".541" d="M409.614 409.692l6.55-35.1 146.38-134.656-50.57 162.953z"/><path fill="#da946b" fill-opacity=".376" d="M589.576 141.756l-7.636 46.821-159.866-.884 41.467-66.771z"/><path fill="#910014" fill-opacity=".675" d="M29.72 769.576l9.597-224.801 55.85 44.52 29.257-148.984z"/><path fill="#fc868b" fill-opacity=".427" d="M710.037 425.455l-33.136-25.506 30.346 69.115 39.407 30.896z"/><path fill="#cd0e2c" fill-opacity=".851" d="M402.818 420.575l-12.72-49.46-305.065 77.734 295.807-22.958z"/><path fill="#ea2148" fill-opacity=".592" d="M216.421 998.013l76.134-52.642-3.554.168 24.028 45.503z"/><path fill="#3e0104" fill-opacity=".671" d="M28.838 575.795l47.765 105.994 149.262-173.083-165.971 98.502z"/><path fill="#f4c7c1" fill-opacity=".333" d="M552.638 270.111l-32.516 94.232 18.803-162.706-52.567 72.256z"/><path fill="#750309" fill-opacity=".973" d="M627.433 728.909L309.597 715.72l263.745 65.831 25.568-223.69z"/><path fill="#776314" fill-opacity=".769" d="M205.739 603.39l-41.765 1.587-20.614-7.752 67.024-57.148z"/><path fill="#b68caf" fill-opacity=".275" d="M435.274 619.09l128.412 46.474-186.86-.251 116.503 12.541z"/><path fill="#200000" fill-opacity=".396" d="M699.625 695.749l-6.393-113.7-122.281-50.144 114.326 220.07z"/><path fill="#929797" fill-opacity=".506" d="M359.547 198.37l17.764-83.937-2.947-44.522 43.488-47.438z"/><path fill="#261200" fill-opacity=".482" d="M435.614 414.782l6.549-74.933 99.05 51.259 14.229-47.724z"/><path fill="#be9c7a" fill-opacity=".239" d="M577.324 13.575l55.085 163.61L511.758-57.633 474.742 5.845z"/><path fill="#ffc0fe" fill-opacity=".341" d="M32.479 609.605l2.22-11.28L-62 625.922l11.016 102.887z"/><path fill="#6d0008" fill-opacity=".663" d="M588.444 1086L313.446 900.085l282.326 100.618-249.04-31.826z"/><path fill="#000106" fill-opacity=".604" d="M-62 226.972l226.16-58.333-112.71 175.52L-62 418.35z"/><path fill="#111016" fill-opacity=".643" d="M389.16 243.642L217.349-58.512l167.45 45.31-28.232 317.034z"/><path fill="#8c000c" fill-opacity=".718" d="M610.995 627.582L333.463 429.088l235.34 26.175-334.961 144.828z"/><path fill="#bdb87f" fill-opacity=".459" d="M239.014 880.604l-24.577-20.233-269.96 16.107 295.677 77.341z"/><path fill="#3d1821" fill-opacity=".82" d="M93.5-18.052L-62-62v243.407l99.785-33.596z"/><path fill="#9b83bf" fill-opacity=".427" d="M491.19 722.122l120.243-8.598-174.957 4.768-285.642-40.66z"/><path fill="#bc897e" fill-opacity=".627" d="M395.847 190.774l-33.522-23.94 79.625 266.859-76.19-111.958z"/><path fill="#6a7f1b" fill-opacity=".553" d="M75.224 761.743l158.127 14.712-82.046 57.597-102.926-37.32z"/><path fill="#fcb2f7" fill-opacity=".361" d="M111.273 429.518l21.03-22.384 80.904-46.948-112.6 90.29z"/><path fill="#cfbf66" fill-opacity=".424" d="M898 858.601l-177.941-4.203-14.674 58.96 128.851-7.99z"/><path fill="#002a42" fill-opacity=".435" d="M313.931 386.243L275.02 355l11.02-14.655 45.072 21.362z"/><path fill="#a4cbff" fill-opacity=".267" d="M547.903 519.363l32.196-2.063 2.446 8.462-33.203 94.86z"/><path fill="#d4152e" fill-opacity=".529" d="M540.652 726.347l50.823-24.8 51.927 308.072 38.404-240.303z"/><path fill="#0e0900" fill-opacity=".514" d="M435.017 87.941l233.525-20.915L614.997-62l-36.075 208.84z"/><path fill="#6f0002" fill-opacity=".737" d="M445.981 886.287l203.705-3.666-57.017 30.004-119.3 25.431z"/><path fill="#f32833" fill-opacity=".353" d="M735.639 696.22l-16.453 37.225 19.479 60.8 12.331-108.563z"/><path fill="#007a71" fill-opacity=".29" d="M628.217 685.147l26.458-89.475-6.543-9.682-.849 212.447z"/><path fill="#7efff6" fill-opacity=".2" d="M382.098 655.439l63.123-55.814-7.884 31.968-158.02 21.78z"/><path fill="#54483c" fill-opacity=".796" d="M382.695 116.934l23.477 69.527 47.177-82.916-57.155-27.005z"/><path fill="#ad4846" d="M58.404 531.033l14.433 13.736 31.226-22.257.16-93.738z"/><path fill="#193273" fill-opacity=".259" d="M248.804 433.433L80.011 392.38-62 592.049l45.744-255.462z"/><path fill="#3b0002" fill-opacity=".408" d="M90.194 492.316l45.637-59.015-40.014 129.442 284.943-17.089z"/><path fill="#fc3c6a" fill-opacity=".259" d="M590.628 376.401l-41.591-30.7 1.6-13.028 177.269 90.997z"/><path fill="#de0425" fill-opacity=".439" d="M667.3 1000.09l-183.82-11.538L599.95 1086l100.688-46.004z"/><path fill="#455463" fill-opacity=".471" d="M758.249 414.578l92.492 48.377L898 304.151 602.353 430.114z"/><path fill="#e40014" fill-opacity=".286" d="M-11.597 679.716L99.026 659.02l-38.593 62.44-77.897 316.674z"/><path fill="#830109" fill-opacity=".953" d="M351.485 822.988L217.987 641.494l157.945 2.47-203.56-198.194z"/><path fill="#b60019" fill-opacity=".525" d="M430.098 911.693l161.37-43.826-179.692-31.886 105.019 81.197z"/><path fill="#070709" fill-opacity=".937" d="M689.694 119.313l9.424 95.842-148.897 77.426 38.197-96.81z"/><path fill="#dc0228" fill-opacity=".427" d="M307.09 382.357l30.683-69.173 37.947 90.213-298.256 89.375z"/><path fill="#fd2f4e" fill-opacity=".498" d="M526.453 765.191l52.637 21.203 55.343 4.254-79.848 13.25z"/><path fill="#520002" fill-opacity=".478" d="M381.117 957.04l-142.942-33.166 4.951-80.264 59.528 112.774z"/><path fill="#650000" fill-opacity=".522" d="M569.691 579.557l-103.068 70.185 250 19.843-45.67 28.853z"/><path fill="#010705" fill-opacity=".2" d="M263.085 514.037l112.648 25.464-170.958 13.223 24.71 146.695z"/><path fill="#040609" fill-opacity=".631" d="M444.898 454.644l11.959 18.456-24.994 13.576 4.744-32.18z"/><path fill="#9297aa" fill-opacity=".824" d="M213 1030.803l29.554-117.09-182.227 33.694L-16.115 1086z"/><path fill="#0c0a0e" fill-opacity=".824" d="M200.033.155L112.245 138.92 66.895-61.615l386.5 61.237z"/><path fill="#db0224" fill-opacity=".314" d="M520.62 386.72L248.302 509.654l50.763 15.662 240.67-114.027z"/><path fill="#f87dc5" fill-opacity=".204" d="M508.816 651.619l-69.189 11.573-65.426-7.047 72.175 21.874z"/><path fill="#730004" fill-opacity=".71" d="M300.816 706.595l50.312 145.645 217.593 9.562 48.34-46.924z"/><path fill="#94b0fb" fill-opacity=".208" d="M290.1 689.868l11.914 11.133 93.742 16.915 148.845 8.5z"/><path fill="#da0023" fill-opacity=".373" d="M548.69 962.301l70.53-58.61 19.92 24.244L364 937.79z"/><path fill="#000911" fill-opacity=".404" d="M295.21 146.23l98.963-119.397-46.22 142.883 24.096 228.517z"/><path fill="#b3071e" fill-opacity=".941" d="M385.866 417.467l257.191-29.881 24.896 15.656-209.434 56.133z"/><path fill="#bda7ac" fill-opacity=".369" d="M390.581 323.182l-12.526-111.464 37.285 39.666-78.863 62.4z"/><path fill="#7b7e99" fill-opacity=".612" d="M213.315 683.87l7.155-68.42-67.15-19.17-33.477 55.865z"/><path fill="#00070c" fill-opacity=".302" d="M520.08 413.125l48.377-206.746-42.906 13.135 59.819 59.739z"/><path fill="#d1dbfc" fill-opacity=".294" d="M121.789 466.143l-34.542 90.144-41-35.922 24.551 65.676z"/><path fill="#ba0722" fill-opacity=".667" d="M521.072 554.865l178.813-137.367-7.79 66.204-218.648-17.756z"/><path fill="#3a0000" fill-opacity=".486" d="M585.129 991.192l68.8-3.262-269.344-22.222-21.923 9.209z"/><path fill="#7b0000" fill-opacity=".647" d="M721.036 866.82l9.151-131.739-7.724-51.4-68.73 194.733z"/><path fill="#211c15" fill-opacity=".635" d="M423.44 91.51l196.242 51.99L519.965 4.311 419.097 27.28z"/><path fill="#c3effb" fill-opacity=".263" d="M108.953 507.512l-26.787 56.642 15.456-47.763-29.555-63.106z"/><path fill="#c40726" fill-opacity=".651" d="M254.67 705.818l-15.956 64.598 204.795 150.66-128.67-63.347z"/><path fill="#8d000f" fill-opacity=".675" d="M558.198 570.434l-466.86-85.375-1.832-18.73 171.74 11.79z"/><path fill="#825640" fill-opacity=".549" d="M430.824 285.164l4.127 116.793-34.91-94.401 19.395-44.72z"/></svg>