<svg xmlns="http://www.w3.org/2000/svg" width="228" height="278" viewBox="0 0 836 1024"><path fill="#764341" d="M0 0h836v1024H0z"/><path fill="#de1a21" fill-opacity=".6" d="M580.547 992.84l28.88-681.59-435.918 38.708 157.953 590.41z"/><path fill="#dad4d8" fill-opacity=".824" d="M605.55 984.144l-320.854-16.091L275.27 1086h273.504z"/><path fill="#0a1c15" fill-opacity=".62" d="M464.4 151.25L777.66-62 898 350.058l-153.817 89.383z"/><path fill="#c9fff9" fill-opacity=".561" d="M284.512 519.621l171.297 12.534 1.263 96.368-170.852 6.464z"/><path fill="#0d1914" fill-opacity=".718" d="M-62-53.512L276.08 90.762l43.799 205.332L-62 130z"/><path fill="#a7dfed" fill-opacity=".459" d="M883.577 1086l-47.589-255.926-262.304 164.727 18.359-245.394z"/><path fill="#a07d6a" fill-opacity=".816" d="M346.58-19.729l-16.982 425.926 178.28-79.523-24.584-268.04z"/><path fill="#ddd0c5" fill-opacity=".694" d="M757.25 470.53L898 394.367v190.41l-188.836-57.074z"/><path fill="#001916" fill-opacity=".498" d="M690.535 849.325L898 820.62 678.27 511.35l-114.543-73.412z"/><path fill="#b8a0a0" fill-opacity=".537" d="M-62 1086l2.062-333.55 253.185 160.544L274.432 1086z"/><path fill="#010200" fill-opacity=".294" d="M226.486 447.92l80.134 195.54 161.969 124.87L4.123 905.593z"/><path fill="#e08891" fill-opacity=".749" d="M698.004 389.81l-51.314-39.8-225.081-98.11L770.02 471.91z"/><path fill="#9e0000" fill-opacity=".588" d="M646.835 565.48L205.098 1086l387.948-746.286 165.042 137.914z"/><path fill="#846c68" fill-opacity=".976" d="M-62 349.853l275.31 184.52L-62 734.378l233.83-24.847z"/><path fill="#11100e" fill-opacity=".831" d="M483 275.077l25.826-136.695L614.942-4.849l3.019 212.759z"/><path fill="#4d5b59" fill-opacity=".537" d="M-62 802.613L157.858 511.71 181.641-2.363-42.903 274.029z"/><path fill="#dce1e5" fill-opacity=".961" d="M360.569 1086l-87.904-79.477 73.615-49.4 83.953 15.802z"/><path fill="#ff4d59" fill-opacity=".408" d="M144.654 448.951l86.658-136.854 112.59 3.78 283.673 147.284z"/><path fill="#bd0005" fill-opacity=".486" d="M463.302 1021.072l-62.409 56.155 129.692-630.864 43.7 435.949z"/><path fill="#152218" fill-opacity=".478" d="M90.329 321.9l29.597 241.263 65.205-192.05 189.586-150.116z"/><path fill="#57443a" fill-opacity=".996" d="M862.288-28.136l-118.25 158.524-53.68 244.653 79.525 3.501z"/><path fill="#79533e" fill-opacity=".988" d="M440.943 282.521l-156.386-94.494L379.79 369.94l121.891-92.668z"/><path fill="#113d44" fill-opacity=".569" d="M653.585 945.428L559.46 1086h209.438l-10.35-178.443z"/><path fill="#ae0003" fill-opacity=".659" d="M151.206 470.736l10.003 53.322 177.77-2.486-154.134-127.537z"/><path fill="#d7edfd" fill-opacity=".576" d="M518.347 274.145l-19.666 29.227-72.366 66.286-61.641 10.63z"/><path fill="#a10004" fill-opacity=".525" d="M455.666 682.25l-207.45 4.952 75.657 273.304 265.067 9.022z"/><path fill="#f1beaf" fill-opacity=".584" d="M494.964 125.025l-24.238-43.532-104.887-3.946-27.617 53.666z"/><path fill="#91b0eb" fill-opacity=".341" d="M78.395 387.109l33.322 51.198-80.804 96.038L-62 418.535z"/><path fill="#5fc1bf" fill-opacity=".243" d="M181.637 791.11L81.758 939.171l216.653-20.995-17.12-107.832z"/><path fill="#050f13" fill-opacity=".522" d="M489.992 499.532l177.363-9.238 37.633 368.795 42.568-292.022z"/><path fill="#353d3e" fill-opacity=".706" d="M755.556-58.895L515.525 135.018l-74.22-117.532L297.034-1.06z"/><path fill="#bcadac" fill-opacity=".463" d="M452.262 684.733L431.79 646.99l-112.37.913 33.917 31.642z"/><path fill="#faf7fa" fill-opacity=".42" d="M150.785 502.432l78.773 63.124L129.906 551l34.08-49.128z"/><path fill="#696257" fill-opacity=".647" d="M665.208 537.845l-3.64 252.486-92.395 54.947 60.17-332.73z"/><path fill="#35312c" fill-opacity=".733" d="M302.026 832.618l-4.144 122.484-106.174-104.249L269.233 1086z"/><path fill="#000201" fill-opacity=".553" d="M-62 109.233l8.656 18.582 128.86 103.652 9.642-270.624z"/><path fill="#daa9ae" fill-opacity=".627" d="M488.422 475.473l-38.98.183 21.575-81.148 31.177 26.757z"/><path fill="#e4111d" fill-opacity=".549" d="M653.503 396.99l-10.063-58.355-215.844 19.536 315.828 153.978z"/><path fill="#a09982" fill-opacity=".282" d="M-62 364.73l7.364-153.823 314.8 1.545L132.11 320.128z"/><path fill="#ff9ec7" fill-opacity=".4" d="M245.002 1086L172.3 910.95l-59.634-6.685L152.4 1086z"/><path fill="#defafb" fill-opacity=".322" d="M296.812 330.925l60.151-43.241-52.8 16.094-126.046 37.257z"/><path fill="#011f0f" fill-opacity=".408" d="M133.185 760.834L-9.921 737.33l141.565 150.548L231.752 554.96z"/><path fill="#ceecf1" fill-opacity=".482" d="M247.381 444.876l51.537-34.749-1.866 21.053 12.638 15.778z"/><path fill="#d4f4ff" fill-opacity=".443" d="M653.244 360.792l37.31 71.66 41.402 8.809 1.7-23.582z"/><path fill="#7a5749" fill-opacity=".918" d="M154.039 744.294l73.77-135.63 36.455 89.05-252.093-7.455z"/><path fill="#0b0d0a" fill-opacity=".529" d="M733.996 408.908L561.463 294.936l170.511-49.46-162.136-136.512z"/><path fill="#030000" fill-opacity=".298" d="M210.783 639.82l-75.81 168.939 88.078-397.799 42.16 200.119z"/><path fill="#5d5547" fill-opacity=".792" d="M303.815-7.779L458.369 75.98l-334.238-2.914L77.14-7.516z"/><path fill="#101c28" fill-opacity=".718" d="M30.122 543.235l36.334 40.08L-60.15 662.55l46.55-143.018z"/><path fill="#080f0b" fill-opacity=".439" d="M218.614 34.525l20.148 188.045-75.266 131.81 175.751-70.83z"/><path fill="#676e64" fill-opacity=".404" d="M816.604 844.996l-93.428-239.285 156.019 22.09-347.374 448.4z"/><path fill="#e5faff" fill-opacity=".494" d="M693.43 560.57l73.455-90.942 47.236 28.89 1.723-13.217z"/><path fill="#ece9ca" fill-opacity=".239" d="M55.55 833.903L-62 872.026l209.91-294.139L10.15 702.989z"/><path fill="#d52127" fill-opacity=".875" d="M300.355 325.869l207.333 193.02-127.236-18.395-49.963 38.786z"/><path fill="#d3cecd" fill-opacity=".808" d="M441.863 515.554l-74.908 25.719 77.418 34.576-89.507 61.595z"/><path fill="#e9b0a1" fill-opacity=".498" d="M440.572 159.59l9.122-23.143 48.335 55.612-163.062-4.187z"/><path fill="#700203" fill-opacity=".698" d="M304.05 696.108l-21.448 126.378L446.835 843.4 287.368 950.137z"/><path fill="#eaf8fd" fill-opacity=".31" d="M496.085 285.097l-89.631-49.996 213.84 107.666-165.201-37.618z"/><path fill="#9ec8d6" fill-opacity=".306" d="M617.04 1012.28l-48.16-164.875-4.315-47.265 106.451 68.411z"/><path fill="#3c2300" fill-opacity=".561" d="M814.664 587.183l-121.248-51.696L898 706.572l-34.647 6.66z"/><path fill="#060100" fill-opacity=".533" d="M623.356 184.4l-42.012-84.758-109.933 139.086-63.295-7.761z"/><path fill="#bedaf1" fill-opacity=".376" d="M837.878 976.14l39.462-130.917-75.69 25.618-33.592 40.792z"/><path fill="#021b0d" fill-opacity=".29" d="M442.377 172.207L219.485 45.908l-86.57 143.148 295.988-64.5z"/><path fill="#ff3038" fill-opacity=".369" d="M590.701 842.927l-216.313 3.822 97.14 116.954-200.725-10.446z"/><path fill="#000b08" fill-opacity=".475" d="M827.776 20.269L770.953-62 651.041 104.339l104.626-16.601z"/><path fill="#1b1e1f" fill-opacity=".918" d="M488.785-9.917L365.59 8.528 316.634-62 482.97 61.207z"/><path fill="#db2930" fill-opacity=".976" d="M506.835 309.778L322.083 436.57l342.153-65.963-101.02-31.74z"/><path fill="#890708" fill-opacity=".945" d="M275.415 532.333l41.176 188.87-16.357 98.56-48.91-179.76z"/><path fill="#e2fcfb" fill-opacity=".333" d="M437.063 667.36l-86.075-183.424 64.314 165.754 34.136-97.594z"/><path fill="#a3f4ff" fill-opacity=".306" d="M380.54 398.396l17.022-40.22-3.365-.024-72.42-18.896z"/><path fill="#672b15" fill-opacity=".58" d="M119.484 700.95l-33.639 78.622-38.028-58.677 17.918-58.724z"/><path fill="#dddbfe" fill-opacity=".161" d="M505.634 66.229l12.332-124.393 47.005 86.076-4.97 84.001z"/><path fill="#563422" fill-opacity=".624" d="M391.772 350.53l-5.587-75.932 262.452 23.496-38.715-111.118z"/><path fill="#bd7e59" fill-opacity=".635" d="M832.13 554.709l-47.787-58.206-47.916 37.63L898 627.375z"/><path fill="#ac080e" fill-opacity=".851" d="M729.848 495.365l-184.257-21.25 68.968-51.914 140.897 23.354z"/><path fill="#002220" fill-opacity=".4" d="M288.762 808.22l-2.018-89.595-3.057-.688-161.59 39.459z"/><path fill="#ffb89a" fill-opacity=".345" d="M30.684 633.92l108.504 77.017-43.62-76.314-70.528 92.655z"/><path fill="#ca1b21" fill-opacity=".882" d="M569.984 827.782l19.089 145.42-98.086 9.423 68.194-32.209z"/><path fill="#00050c" fill-opacity=".184" d="M730.389 848.577l43.167 9.304-103.199-388.735-123.37-9.815z"/><path fill="#81694d" fill-opacity=".424" d="M102.652 1086l44.35-319.17 75.818 77.99-264.767 18.831z"/><path fill="#c9a07f" fill-opacity=".373" d="M329.698 81.475l7.786 146.375-46.837-23.71 148.24-139.436z"/><path fill="#960a0d" fill-opacity=".82" d="M296.072 656.042l47.754-40.408-59.057 230.88 158.53 22.282z"/><path fill="#101100" fill-opacity=".455" d="M247.23 569.849l-88.574-10.696-15.784 98.635 48.643 6.578z"/><path fill="#000100" fill-opacity=".506" d="M492.154 99.342L698.01 202.62l-108.354-23.442-87.78 104.527z"/><path fill="#7b6f69" fill-opacity=".596" d="M835.233 1086L603.859 750.383 898 1067.413V1086z"/><path fill="#b43436" fill-opacity=".722" d="M328.102 474.133l85.678 70.94 26.766 1.663-10.185 21.778z"/><path fill="#c2c2c5" fill-opacity=".957" d="M403.407 1053.839l207.67-89.772L415.437 1086l33.168-116.73z"/><path fill="#52372b" fill-opacity=".467" d="M49.714 268.694L264.942 41.687l-140.077 5.2-95.02 172.32z"/><path fill="#990c0f" fill-opacity=".478" d="M527.234 565.742l-47.413-42.484-61.4 108.414-4.997-36.091z"/><path fill="#347674" fill-opacity=".294" d="M739.104 436.73L898 328.484 833.453 457.41l-24.89 34.39z"/><path fill="#d6eeeb" fill-opacity=".537" d="M450.603 603.557l-83.104-91.992-79.652 88.261 70.504-62.674z"/><path fill="#b20a0f" fill-opacity=".663" d="M426.711 490.577l186.896 52.938-24.884 190.017-8.872 39.607z"/><path fill="#95e4ff" fill-opacity=".192" d="M284.158 939.375l1.652-95.1-18.745-32.733-35.11 28.854z"/><path fill="#cfddeb" fill-opacity=".596" d="M485.73 289.888l3.584-29.112 19.674 30.634-92.661 74.591z"/><path fill="#fda47a" fill-opacity=".165" d="M782.297 598.888l-94.791 48.51 104.926 32.349 22.099-45.949z"/><path fill="#d2e1de" fill-opacity=".733" d="M308.337 624.14l2.582 8.644 99.631-82.275 17.465-35.165z"/><path fill="#8b0003" fill-opacity=".259" d="M356.423 543.4l23.796-16.79-7.984 80.005-10.032 7.33z"/><path fill="#543a2e" fill-opacity=".922" d="M571.223 321.664l5.38-105.659 38.227 6.617-.963 114.3z"/><path fill="#fe1d26" fill-opacity=".329" d="M219.912 333.56l-77.46 96 123.246 10.25 62.64-99.358z"/><path fill="#efffff" fill-opacity=".157" d="M429.716 969.417l-7.555 20.026L142.217 1086 341.99 936.423z"/><path fill="#dafcff" fill-opacity=".29" d="M807.618 470.523l-56.375 11.02-67.186 68.452-4.928 19.083z"/><path fill="#513b31" fill-opacity=".463" d="M237.35 284.753l30.683-66.008-63.13-28.77L-14.724 759.36z"/><path fill="#690401" fill-opacity=".337" d="M322.24 619.485l-22.116-83.957 24.018 20.02-22.033 33.81z"/><path fill="#00252f" fill-opacity=".361" d="M822.556 650.748L898 839.458l-130.679.46L898 531.31z"/><path fill="#7b0000" fill-opacity=".576" d="M521.296 873.752l-119.91 39.206 186.972 23.235-82.01 23.876z"/><path fill="#ffba98" fill-opacity=".137" d="M701.765 267.33l-16.193 49.565 59.125 48.742 31.362-74.555z"/><path fill="#cdcbc8" fill-opacity=".773" d="M311.99 528.077l39.258 45.15 30.601-12.531 71.388 107.56z"/><path fill="#e3bfb2" fill-opacity=".267" d="M466.063 347.92l-11.93-58.16 33.322-138.921 11.104 49.456z"/><path fill="#8e7457" fill-opacity=".361" d="M287.735 197.266L268.903 77.624l49.883 103.053L345.93 305.79z"/><path fill="#dda58d" fill-opacity=".459" d="M30.745 742.497L.453 698.757l-52.105-31.562L77.925 752.19z"/><path fill="#e9feff" fill-opacity=".325" d="M125.194 542.445l56.073 10.493 44.937-14.149-78.565-13.657z"/><path fill="#b11013" fill-opacity=".631" d="M390.568 636.111l138.96-5.267-115.205 17.559-35.347-44.822z"/><path fill="#02141d" fill-opacity=".431" d="M751.594 443.417l18.129 11.25L898 239.754l-70.663 2.596z"/><path fill="#644940" fill-opacity=".898" d="M163.64 494.745l-38.553 62.441-53.983 96.111L47.4 554.85z"/><path fill="#011015" fill-opacity=".392" d="M122.025 53.857l99.652 152.487L303.483 33.06l-96.948 75.185z"/><path fill="#790001" fill-opacity=".573" d="M473.167 566.938l148.321-18.807-61.945-59.932-35.7-3.632z"/><path fill="#e2fdfb" fill-opacity=".388" d="M457.23 546.22l-28.022-30.65 19.82 62.567 17.286-63.285z"/><path fill="#bc1015" fill-opacity=".843" d="M570.538 788.93l-219.454 44.677 122.523-110.255 109.672-173.53z"/><path fill="#aaa69e" fill-opacity=".169" d="M253.72 714.262l-6.35-101.452-16.417-5.587-64.506 108.617z"/><path fill="#001f35" fill-opacity=".29" d="M695.816 940.27l21.135 96.366-37.8 13.99-92.423-61.26z"/></svg>