<svg xmlns="http://www.w3.org/2000/svg" width="228" height="278" viewBox="0 0 836 1024"><path fill="#978c85" d="M0 0h836v1024H0z"/><g fill-opacity=".502"><path d="M90-62L-62 618l340-332z"/><path fill="#fff" d="M782 622l-844-36 744-352z"/><path fill="#eff" d="M690 1086l20-360L98 890z"/><path fill="#3b0700" d="M278 206L806-62l92 316z"/><path fill="#edf1f2" d="M182 226l8 572 336-244z"/><path fill="#271400" d="M-62 630l188 200 28-892z"/><path fill="#6e0500" d="M742 1086l-36-400 180 264z"/><path fill="#030000" d="M-62-54l264-8-16 272z"/><path fill="#fff55b" d="M178 506L38 678l-8-192z"/><path d="M182 446L14 202l-76 300z"/><path fill="#00c279" d="M134 978L22 822l-84 184z"/><path fill="#e8fbff" d="M390 434l368-132-292-72z"/><path fill="#effdff" d="M318 802l424 240-420-24z"/><path fill="#131f00" d="M294 826l-192-4 388-128z"/><path fill="#562621" d="M826 802L726 302l172 76z"/><path fill="#b86a41" d="M98 258L414-30l-4 384z"/><path fill="#e4e8f8" d="M94 214L58 46-62 178z"/><path fill="#1b110c" d="M570 310L738-10l160 64z"/><path fill="#f8f5ff" d="M562-62l-48 184-120-92z"/><path fill="#ce9f97" d="M578 106l160 32 160 256z"/><path fill="#cdd4e0" d="M302 310L78 526l240 272z"/><path fill="#571610" d="M114 318l280-128-228 196z"/><path fill="#f9ffff" d="M654 294l-48 312 180-12z"/><path fill="#00000c" d="M722 838l-28-160 124 180z"/><path fill="#f7b295" d="M318-50L154 118l176 88z"/><path fill="#ef4500" d="M402 502l-28 36 136 36z"/><path fill="#0d0000" d="M626 102L514-62l152 4z"/><path fill="#34060a" d="M82 274l80-12 24 300z"/><path fill="#f37944" d="M742 838l156 176-200 72z"/><path fill="#040000" d="M366 394l56-56-120-12z"/><path fill="#5a7f6f" d="M246 774l364 68-44-244z"/><path fill="#b1c3d9" d="M798 266l-256 8-100 392z"/><path d="M602 274l-36-112 128 68z"/><path fill="#d79882" d="M218 1058l104-132L10 778z"/><path fill="#20180a" d="M150 746L86 594l20 356z"/><path fill="#0a0000" d="M310 918l-36 76 52 92z"/><path fill="#150000" d="M258 6L-26-62-38 46z"/><path fill="#f5ffff" d="M274 290l100 140-196-4z"/><path fill="#f1a72e" d="M-62 590L54 470l132 172z"/><path fill="#000010" d="M94 246l-152-52 164 328z"/></g></svg>