<svg xmlns="http://www.w3.org/2000/svg" width="228" height="278" viewBox="0 0 836 1024"><path fill="#a27f7d" d="M0 0h836v1024H0z"/><path fill="#990702" fill-opacity=".612" d="M720.84 317.257L469.262 820.81l-208.827-24.94 1.646-619.518z"/><path fill="#e5f3fe" fill-opacity=".765" d="M-62 25.774L90.965 237.13l335.068-66.392 11.774-83.662z"/><path fill="#def3ff" fill-opacity=".541" d="M96.536 818.829L-62 971.101l764.222-3.038 183.394-192.011z"/><path fill="#d2e8ff" fill-opacity=".871" d="M897.784 126.757l-265.026-25.089-95.104 170.734L898 333.752z"/><path fill="#dbf6fb" fill-opacity=".953" d="M862.704 407.192l-158.685 22.914 57.37 139.108 75.402 44.49z"/><path fill="#77504e" fill-opacity=".722" d="M340.056 839.208L898 747.25 411.542 65.937l148.816 602.036z"/><path fill="#563027" fill-opacity=".443" d="M-62 394.254l74.626-112.175 271.01-89.952-86.674 583.657z"/><path fill="#eadeda" fill-opacity=".78" d="M230.118 995.823l-180.232-31.48L211.323 710.79l72.257-388.87z"/><path fill="#e2dde5" fill-opacity=".737" d="M-62 701.432l550.281 334.335L468.897 1086l26.833-224.88z"/><path fill="#1f9005" fill-opacity=".486" d="M442.101 1060.229l444.688-28.916-12.115-93.267-366.788 56.584z"/><path fill="#d2a69f" fill-opacity=".506" d="M323.83 398.308l224.779 37.725 36.832-40.947-256.873-53.87z"/><path fill="#a60000" fill-opacity=".353" d="M342.265 843.59l-107.188-95.38L349.86 326.84l227.47 455.496z"/><path fill="#673801" fill-opacity=".396" d="M565.692 226.395L423.633 362.603l41.395-383.426 145.151 85.29z"/><path fill="#634b3c" fill-opacity=".992" d="M595.34 384.908l161.894-22.103L898 409.36l-266.578 17.62z"/><path fill="#081b19" fill-opacity=".361" d="M693.144 744.135L575.647 625.407 622.523 1086l6.09-295.186z"/><path fill="#5a1200" fill-opacity=".635" d="M345.787 996.229l67.972 10.85-134.288-56.496-18.717 117.088z"/><path fill="#9dbee0" fill-opacity=".725" d="M623.533 946.876l252.455-.948-33.574-177.52-178.843 19.213z"/><path fill="#861204" fill-opacity=".545" d="M-62 333.277l418.715-46.573-86.834-108.166-122.325 103.474z"/><path fill="#974732" fill-opacity=".976" d="M118.558 968.363l216.745 99.558L51.44 1001.45l13.915-32.67z"/><path fill="#daeffa" fill-opacity=".549" d="M219.236 4.257L-35.597 237.113-62 109.19l476.58 85.035z"/><path fill="#ededf0" fill-opacity=".875" d="M5.466 790.21l258.186-3.67-240.405-24.045-75.715-61.303z"/><path fill="#7a8986" fill-opacity=".6" d="M543.436 616.066l45.843-192.489 138.827 1.884-69.374 162.356z"/><path fill="#020e0a" fill-opacity=".561" d="M839.02 763.816l-90.528 12.492L898 603.367l-52.402-33.912z"/><path fill="#13426e" fill-opacity=".38" d="M85.077 767.136L-62 574.892l269.982 145.409-64.036-225.978z"/><path fill="#505800" fill-opacity=".278" d="M49.129 831.128L-62 812.48l222.777-34.225-91.575 176.251z"/><path fill="#ad948f" fill-opacity=".643" d="M484.013 765.645l133.615 32.844-6.24 176.493-99.092-7.607z"/><path fill="#6f0101" fill-opacity=".318" d="M190.533 70.396L156.797-62l-180.55 27.285L-62 24.266z"/><path fill="#e4c18a" fill-opacity=".565" d="M176.903 298.135l-16.417-59.239L81.364 83.703 75.266 255.1z"/><path fill="#d4c2b3" fill-opacity=".961" d="M280.83 365.587l-8.126 103.881-38.378 142.185 29.395-286.89z"/><path fill="#dbdeec" fill-opacity=".588" d="M286.688 803.18l-28.237 246.842-75.797-62.956 40.51-243.13z"/><path fill="#931c1a" fill-opacity=".922" d="M621 309.866L445.517 838.737 286.38 389.409l282.896 57.258z"/><path fill="#dcebfd" fill-opacity=".702" d="M421.137 276.522L433.44 90.156-38.13 44.87l445.953 130.186z"/><path fill="#1e1508" fill-opacity=".231" d="M793.75 76.404L898 226.777V-62L494.091-14.259z"/><path fill="#e5c0d8" fill-opacity=".537" d="M579.22 345.85l-29.414-51.612-35.485 27.19 33.618 33.954z"/><path fill="#918580" fill-opacity=".627" d="M80.55 321.072L190.745 553.83 24.407 440.472-62 377.772z"/><path fill="#94878c" fill-opacity=".439" d="M599.939 551.01l174.58 336.214 37.993 30.367-63.139-327.152z"/><path fill="#97beff" fill-opacity=".325" d="M190.782 692.393L93.59 593.66l-15.143 56.685 72.968 131.975z"/><path fill="#c01309" fill-opacity=".596" d="M239.807 294.844l15.938 137.648-12.174 55.032L199.55 757.6z"/><path fill="#8d3e1f" fill-opacity=".329" d="M257.146-32.972L241.094 73.824l192.678-9.898 69.234-124.503z"/><path fill="#be2826" fill-opacity=".812" d="M249.521 769.163l24.16-217.104L468.844 817.69l-39.739 14.44z"/><path fill="#7a9eaf" fill-opacity=".576" d="M695.546 55.25l89.996-.513 32.875 72.172-266.278-27.297z"/><path fill="#c7c9d9" fill-opacity=".631" d="M64.385 914.218l-36.32-55.255L-62 916.937l99.897 156.122z"/><path fill="#e2e0e9" fill-opacity=".988" d="M486.66 817.75L319.139 954.158l130.711 52.51 24.629 17.155z"/><path fill="#df2b2a" fill-opacity=".475" d="M468.134 204.71l-203.486-21.454-64.807 51.22 129.95 9.21z"/><path fill="#7f6f70" fill-opacity=".302" d="M183.31 1030.816l220.355-172.957-123.676 54.547 164.567-21.892z"/><path fill="#406ea3" fill-opacity=".643" d="M714.955 961.3l83.36-11.912-15.344-37.403-50.639-5.221z"/><path fill="#292d14" fill-opacity=".349" d="M-22.592 660.477l94.618-168.985-82.053 243.502 129.792-15.235z"/><path fill="#911210" fill-opacity=".451" d="M183.203 219.167l-20.094-29.143-.57 96.215 555.05 141.988z"/><path fill="#0d2502" fill-opacity=".341" d="M63.362 322.297L5.087 199.847l57.876 20.565-103.105 104.812z"/><path fill="#342823" fill-opacity=".675" d="M529.904 790.573l-22.957 6.85-7.592-65.806 28.59-96.686z"/><path fill="#edf9ff" fill-opacity=".478" d="M721.607 865.135l-142.803-74.25 139.001-4.869-3.865 86.653z"/><path fill="#dc0908" fill-opacity=".416" d="M243.882 586.613l-20.479 23.071-56.929 141.467 20.264.5z"/><path fill="#cbf2ff" fill-opacity=".243" d="M700.449 632.51l81.573-222.12-122.828 73.89L898 570.574z"/><path fill="#906968" fill-opacity=".937" d="M566.901 473.947l23.85 181.8-39.957 154.719-19.927-202.358z"/><path fill="#9e1b23" fill-opacity=".8" d="M577.084 281.67l56.641 1.486 81.1 73.293-158.287 28.855z"/><path fill="#5f1f1b" fill-opacity=".722" d="M527.906 267.826l-102.903-82.897 102.171 147.613-184.401-76.929z"/><path fill="#f3c951" fill-opacity=".561" d="M54.042 885.59l-2.607-55.65 64.557 18.5-13.302 56.49z"/><path fill="#172f4a" fill-opacity=".431" d="M116.07 830.663L-62 798.117l164.311-8.256 12.923 22.408z"/><path fill="#deeeff" fill-opacity=".455" d="M579.611 84.553L752.93 319.756l-125.495-30.151 214.863-136z"/><path fill="#0346b6" fill-opacity=".427" d="M189.094 661.074L113.6 596.045l37.748 129.985 27.367-3.426z"/><path fill="#d8a2ab" fill-opacity=".792" d="M143.08 725.334l51.72 37.5-138.512 5.783L-62 748.937z"/><path fill="#3e0500" fill-opacity=".349" d="M599.07 739.664l-10.538-141.61 32.792-36.045 26.633 183.395z"/><path fill="#e8d7da" fill-opacity=".376" d="M446.353 398.897l89.08 13.065-8.765-27.8-124.989-23.786z"/><path fill="#4f0e03" fill-opacity=".169" d="M695.21 744.629l101.168-99.459-289.883-171.215 250.761 33.91z"/><path fill="#dfc2b7" fill-opacity=".788" d="M898 331.929L830.229 172.18 898 375.8l-184.755-46.423z"/><path fill="#d90004" fill-opacity=".427" d="M605.298 1086l-289.88-111.773 109.985 17.248L520.186 1086z"/><path fill="#c27f3b" fill-opacity=".549" d="M150.556 286.291L-62 270.695l146.486-23.274 34.187-45.823z"/><path fill="#f0f3ec" fill-opacity=".506" d="M59.962 957.193l86.845-143.216 23.94-61.422 128.73 45.775z"/><path fill="#e5dac5" fill-opacity=".769" d="M90.37 85.536L-62 134.746l290.569 76.623-39.014 22.16z"/><path fill="#616b6a" fill-opacity=".478" d="M617.302 1021.659l-26.856-64.385 26.911-158.208 22.404 164.738z"/><path fill="#5164a0" fill-opacity=".51" d="M718.965 843.829l79.575-25.092-11.428-38.203-59.912 24.82z"/><path fill="#012815" fill-opacity=".212" d="M254.33 249.98l85.537 156.355-144.874-104.64-182.676 28.481z"/><path fill="#fef4d5" fill-opacity=".392" d="M365.034 272.047l-47.189-8.67 11.18 1.267 72.202 37.55z"/><path fill="#1a0800" fill-opacity=".345" d="M612.932 170.158l-111.236-12.962-10.265-35.62 46.816 16.912z"/><path fill="#cafbff" fill-opacity=".141" d="M285.765 629.108l-69.376-123.396-77.842-380.724 34.314 349.701z"/><path fill="#fbc8cc" fill-opacity=".247" d="M535.009 723.148l8.23 304.373 13.81-264.74 68.474-13.465z"/><path fill="#a82324" fill-opacity=".702" d="M466.433 286.99l83.327 73.174-159.018-16.285 5.382 57.648z"/><path fill="#ecebf9" fill-opacity=".592" d="M494.015 850.008l-72.205 11.498 59.886-50.48 14.928-39.554z"/><path fill="#492e16" fill-opacity=".49" d="M181.511 469.998l-72.127 140.355 49.312 16.458 5.96-173.672z"/><path fill="#f3ffff" fill-opacity=".298" d="M33.497 704.353l39.242-32.299-42.415-24.273 4.216 12.679z"/><path fill="#c5dfec" fill-opacity=".725" d="M813.766 944.382l3.644 8.427-31.175-60.692L898 893.712z"/><path fill="#063936" fill-opacity=".231" d="M482.291 614.25l259.62 161.121-280.268 23.523 143.612-43.072z"/><path fill="#becfec" fill-opacity=".918" d="M560.8 284.491l107.099-89.424 49.826 6.973L898 239.162z"/><path fill="#babe9e" fill-opacity=".482" d="M477.56 14.573l169.245 35.392L439.545-62 573.198-6.593z"/><path fill="#000c07" fill-opacity=".184" d="M393.171 865.491L260.483 971.84l37.47 114.16 3.135-123.605z"/><path fill="#ad7c45" fill-opacity=".933" d="M134.19 998.401l7.572 87.599H29.41l42.367-100.923z"/><path fill="#e2f4e2" fill-opacity=".255" d="M404.357 172.327l15.235 80.158 62.68 33.417-44.95-46.117z"/><path fill="#e0cdd1" fill-opacity=".549" d="M-10.777 832.31l8.753 42.073-4.58-24.206 292.16-37.89z"/><path fill="#0c6f63" fill-opacity=".153" d="M465.118 1086l64.997-87.13-7.232-186.907-28 8.61z"/><path fill="#e68f49" fill-opacity=".196" d="M472.367 228.559l-54.789-98.356 24.613-46.626 196.899-8.111z"/><path fill="#d3dcf8" fill-opacity=".333" d="M664.609 554.351l-15.23 43.794-76.176-49.89 4.033 34.383z"/><path fill="#006988" fill-opacity=".161" d="M469.827 88.673l-131.44-5.723L402.233-62l103.09 101.195z"/><path fill="#c7e1f1" fill-opacity=".757" d="M706.16 957.682l-74.33 12.564 10.198-39.6L726.5 903.29z"/><path fill="#2d8cd7" fill-opacity=".322" d="M61.56 874.181L-62 819.077l140.48 90.916-23.363 73.077z"/><path fill="#764e40" fill-opacity=".725" d="M322.594 814.094l-66.813-39.343 181.064 53.756-96.657-8.826z"/><path fill="#daebfd" fill-opacity=".596" d="M898 185.754l-261.164 1.66-130.258 106.991 137.476-168.554z"/><path fill="#f6784a" fill-opacity=".345" d="M349.836 83.062l-84.014-14.628-33.297-43.527L334.74 10.76z"/><path fill="#bfc1d5" fill-opacity=".698" d="M260.108 212.463l-119.684-84.13 34.596 209.32-34.024-132.852z"/><path fill="#aa2428" fill-opacity=".847" d="M429.746 595.986l72.048 62.576 77.362-250.239-94.25 392.897z"/><path fill="#aba095" fill-opacity=".71" d="M158.927 904.307l-28.65 23.118 17.487 25.13 20.42-13.005z"/><path fill="#e88e9b" fill-opacity=".294" d="M667.827 752.176l61.426-27.232-23.396-95.907 91.251 107.202z"/><path fill="#272619" fill-opacity=".282" d="M667.341 444.74l-5.576-105.496-98.582 80.451L898 374.692z"/><path fill="#851c13" fill-opacity=".647" d="M484.169 626.192L303.402 345.171l-11.379-78.566-17.664 269.132z"/><path fill="#c3c3b3" fill-opacity=".435" d="M48.214 420.018L-62 211.344l104.239-72.358-102.91 266.612z"/><path fill="#0b1f17" fill-opacity=".306" d="M794.29 746.782l57.938-200.984 1.405 215.744-171.214 19.298z"/><path fill="#cfae9d" fill-opacity=".431" d="M251.047 439.326l-4.237 343.495 40.47-422.24-30.511-57.356z"/><path fill="#effffc" fill-opacity=".435" d="M791.202 763.193L829.3 841.6 898 661.929v125.21z"/><path fill="#ffe6b3" fill-opacity=".212" d="M141.743 767.916L100.932 585.96l53.33-105.226-83.3 114.398z"/><path fill="#243e3e" fill-opacity=".392" d="M33.88 170.68l42.159 61.386-130.465 25.092 87.273-39.764z"/><path fill="#c8d6ef" fill-opacity=".718" d="M351.937 149.835l23.19 49.048 65.962-21.6-6.758-22.91z"/><path fill="#0c2800" fill-opacity=".196" d="M165.053 735.074l-104.081-2.047-2.17-150.236L106.61 718.68z"/><path fill="#cae9ff" fill-opacity=".282" d="M95.686 209.111l152.72 9.264-1.826-177.148-68.365-19.45z"/><path fill="#910010" fill-opacity=".435" d="M143.694 976.338l75.005 40.252 19.996 29.033L64.28 960.796z"/><path fill="#99daff" fill-opacity=".09" d="M850.488 707.57L729.564 532.144l-161.758-87.446 130.045-86.209z"/><path fill="#c1c1cd" fill-opacity=".682" d="M462.696 46.224l-10.499 53.454L-62 35.897 448.741 82.4z"/><path fill="#d1c6b6" fill-opacity=".631" d="M527.97 965.062l27.82 24.15 41.079-142.07-61.921 9.512z"/><path fill="#564b44" fill-opacity=".796" d="M121.865 529.297l-14.088-46.055-122.099 23.448 20.087-68.894z"/><path fill="#eaffff" fill-opacity=".831" d="M776.137 526.168l118.339 92.62-4.264-183.165-147.054-18.227z"/><path fill="#7a6d67" fill-opacity=".98" d="M145.114 307.241l42.011-.803 47.505 4.08-18.925 198.265z"/><path fill="#cdeaf7" fill-opacity=".753" d="M39.518 888.436l22.683 35.954-56.982 4.277L-62 863.815z"/></svg>