<svg xmlns="http://www.w3.org/2000/svg" width="228" height="278" viewBox="0 0 836 1024"><path fill="#823e2e" d="M0 0h836v1024H0z"/><g fill-opacity=".502"><path fill="#ffff93" d="M322 1086l412-476 164 268z"/><path fill="#ffff6b" d="M218 938l-280-52 228-328z"/><path fill="#00020c" d="M-62 10l836-72 124 420z"/><path fill="#b40000" d="M614 886l4-948-516 1148z"/><path fill="#c7ebff" d="M46 322L-62 602l288-300z"/><path fill="#fff" d="M526 906l-284 180 456-28z"/><path fill="#000e1a" d="M-62 266l344 52-88-380z"/><path fill="#920000" d="M534 606l-596 32 328-332z"/><path fill="#e092ae" d="M522 302l348 352 28-144z"/><path fill="#0e0000" d="M682 418L562 554l300 140z"/><path fill="#edff69" d="M210 918L-62 814l196-204z"/><path fill="#d4ff6e" d="M642 566l-32 320 288-32z"/><path fill="#e60002" d="M634 958l-28-380-188 328z"/><path fill="#00281e" d="M298 886l-360 92 164 108z"/><path d="M146 478l48 88-256 184z"/><path fill="#f00e1d" d="M698 438L498 306 178 574z"/><path fill="#c6c3f3" d="M278 354L6 410l172-124z"/><path fill="#be818d" d="M554 678l-380 12 156-68z"/><path fill="#3f603c" d="M898 870l-16 216-264-152z"/><path fill="#977762" d="M226 110l152-4 196 252z"/><path fill="#420b0d" d="M646-62l184 468-372-132z"/><path fill="#8c0000" d="M526 878L194 482l24 604z"/><path fill="#fff" d="M518 366l68-8-24-36z"/><path fill="#e4f944" d="M206 902l-268 28 252-288z"/><path fill="#b99fac" d="M554 562l-80-16 36-120z"/><path fill="#fff" d="M818 566l-40 12-40-124z"/><path fill="#b40000" d="M170 370l372 120-492-12z"/><path fill="#e8e525" d="M898 922L638 758l-48 124z"/><path fill="#282c2e" d="M378 190L-26 382-62-38z"/><path fill="#fff4ff" d="M642 1086l-292-68 212-80z"/><path fill="#a4a0d1" d="M-30 630l40-256 168-104z"/><path fill="#363121" d="M78 270l360-36 4 160z"/><path fill="#ccd7df" d="M194 622l60 64 4-56z"/><path fill="#d4011a" d="M814 1086H674L502 770z"/><path fill="#470000" d="M638 610l180-168-492 188z"/><path fill="#ffe3f2" d="M706 426l-20-52H582z"/><path fill="#d0deed" d="M298 506l-40-24-68 28z"/><path fill="#8ba38a" d="M794 678L650 558l72 276z"/><path fill="#8fbde2" d="M662 1066l152-92 84 40z"/><path fill="#b68185" d="M534 702l-4-72-236 52z"/></g></svg>