<svg xmlns="http://www.w3.org/2000/svg" width="228" height="278" viewBox="0 0 836 1024"><path fill="#383839" d="M0 0h836v1024H0z"/><path fill="#dde3eb" fill-opacity=".984" d="M202.391 908.582l-32.036 142.44 430.795-40.352L590.6 1086z"/><path fill="#957d60" fill-opacity=".62" d="M421.143 453.53L210.188-62 898 34.924 537.557 185.786z"/><path fill="#020c18" fill-opacity=".714" d="M343.847 986.365L124.582 680.08l505.132-44.213-36.137 361.305z"/><path fill="#d9a093" fill-opacity=".718" d="M631.665 714.581L619.971 637.6l29.348-70.978 113.88 26.112z"/><path fill="#222326" fill-opacity=".992" d="M294.177 504.03L178.498-62-62 454.99l317.876 481.884z"/><path fill="#cad0e0" fill-opacity=".675" d="M445.266 370.75l-31.71 90.767-11.933-87.88 120.074-78.295z"/><path fill="#040b11" fill-opacity=".608" d="M590.657 388.59L466.76 634.65l108.087-11.724 273.898-201.682z"/><path fill="#acb4ac" fill-opacity=".451" d="M433.02 647.14l-16.568-83.692-96.853 6.285-3.04 74.73z"/><path fill="#3a2b1c" fill-opacity=".761" d="M320.94 47.355L460.92-13.26l39.857 87.52-139.575 48.912z"/><path fill="#c9d3e8" fill-opacity=".671" d="M326.173 429.286l-12.891 41.285-37.633-7.658 11.227-48.31z"/><path fill="#3d1a0e" fill-opacity=".584" d="M699.513 207.664l105.965-58.023 77.36 395.578L396.176 20.267z"/><path fill="#717d78" fill-opacity=".529" d="M342.66-62l531.049 4.233-33.083 201.823-161.93 30.325z"/><path fill="#ffae6c" fill-opacity=".408" d="M466.37 337.482l49.989-19.343-32.525-200.077-73.129-51.829z"/><path fill="#bcc4a5" fill-opacity=".376" d="M15.528 186.473l-38.762-23.25L-62-14.128 89.404 9.784z"/><path fill="#383a3e" fill-opacity=".757" d="M468.404 376.102l-113.83-204.081-393.896 270.083 436-84.765z"/><path fill="#07121e" fill-opacity=".596" d="M616.598 651.615l-431.03-175.014 274.463-31.79 175.053 148.365z"/><path fill="#ecf3f9" fill-opacity=".706" d="M380.899 998.853l-173.853-80.291-35.257 96.61 682.39 56.084z"/><path fill="#c2c2df" fill-opacity=".333" d="M553.176 472.391l-65.19 14.971 20.686-80.561 57.954 18.24z"/><path fill="#021732" fill-opacity=".4" d="M543.726 154.92l-63.845 246.133 218.301 76.546L602.826 63.14z"/><path fill="#4e5a7a" fill-opacity=".682" d="M104.972 362.292L-43.15 471.81l100.148-41.22 242.55-122.168z"/><path fill="#011025" fill-opacity=".549" d="M351.02 282.58l17.542 486.064 26.92-379.613L-62 525.196z"/><path fill="#ffbfb7" fill-opacity=".31" d="M622.326 642.44l30.539-133.898 41.953 65.553 89.986 32.98z"/><path fill="#030801" fill-opacity=".522" d="M274.385 208.115l-54.116-155.92L110.94 42.59 53.18 157.26z"/><path fill="#c7cdea" fill-opacity=".675" d="M736.376 405.567l-13.93-32.499-18.606 5.603 1.44 25.249z"/><path fill="#060d11" fill-opacity=".608" d="M579.872 427.377l246.015 233.95-103.993 85.492 66.127-222.464z"/><path fill="#c0c2cc" fill-opacity=".851" d="M592.089 1006.946L347.319 1086h254.754l9.573-112.65z"/><path fill="#13110c" fill-opacity=".604" d="M616.535 957.005l76.656-76.53 59.517 43.137.011 132.49z"/><path fill="#d8e2f8" fill-opacity=".467" d="M439.346 380.364l-91.77-49.42 59.886 54.66 87.787-76.797z"/><path fill="#391d00" fill-opacity=".639" d="M446.53 208.893l6.938-38.053-117.198 15.821.696 20.192z"/><path fill="#0a1318" fill-opacity=".702" d="M385.583 591.345L-51.959 480.627l301.54-66.496 95.843 206.525z"/><path fill="#f5f5d8" fill-opacity=".231" d="M364.256 603.52l-40.897 16 275.925 22.892-117.775 13.38z"/><path fill="#fe9457" fill-opacity=".353" d="M478.897 242.691l-99.695 17.976 61.284-146.124-138.55 4.847z"/><path fill="#4f4948" fill-opacity=".812" d="M631.914 703.116l91.48-98.915-17.561 94.735 125.031 356.167z"/><path fill="#2f2d30" fill-opacity=".914" d="M229.516 582.298L14.484 664.09 86.49 819.202l150.36 113.582z"/><path fill="#325e78" fill-opacity=".6" d="M791.415 721.35L898 615.335l-4.111 158.877-131.29 136.252z"/><path fill="#748579" fill-opacity=".349" d="M320.512 66.743l49.84 296.227L184.357-62 423.26-27.902z"/><path fill="#ffffec" fill-opacity=".212" d="M284.797 543.441l144.41 61.173-55.54 43.31 107.868-.223z"/><path fill="#045ef9" fill-opacity=".161" d="M77.293 895.415l29.08-100.371-81.085-43.689L-62 914.548z"/><path fill="#1e2a41" fill-opacity=".941" d="M439.655 372.728L569.27 270.021l113.71 43.78-265.174 160.005z"/><path fill="#c6855a" fill-opacity=".604" d="M527.643 122.91l-28.837 45.168-134.888 89.962 171.287-59.018z"/><path fill="#314b9d" fill-opacity=".42" d="M889.756 644.725l-131.93-49.632 106.378-76.344-106.894-70.43z"/><path fill="#0b1319" fill-opacity=".58" d="M279.201 631.689l173.603 386.944 162.57-118.144 46.383-183.246z"/><path fill="#1c1810" fill-opacity=".733" d="M556.64 154.25l-57.48 100.445 253.846 102.713-136.86-109.247z"/><path fill="#a6a88a" fill-opacity=".157" d="M666.047 285.244l91.85-238.84-77.886-16.103-87.88 167.995z"/><path fill="#edf3ff" fill-opacity=".643" d="M406.29 364.514l34.14 10.966-19.836 60.808-11.336-9.27z"/><path fill="#e2fff3" fill-opacity=".204" d="M297.723 648.048l47.45-82.61-40.884 14.588-37.055-37.547z"/><path fill="#c8d1dc" fill-opacity=".325" d="M170.883 381.619l-48.646-9.817 66.593-36.858 4.52-11.379z"/><path fill="#5c2900" fill-opacity=".431" d="M349.906 300.155l14.231-62.85 117.2 77.498-82.632 46.18z"/><path fill="#242219" fill-opacity=".78" d="M-46.224 384.804l44.169-116.337L-62 204.042l378.989 86.18z"/><path fill="#223d6d" fill-opacity=".533" d="M698.84 404.047L504.06 292.76l10.691-22.797 192.653 67.203z"/><path fill="#d48542" fill-opacity=".106" d="M155.301 205.998L-60.615 493.887 154.963 348.45-62 93.089z"/><path fill="#0e1b2d" fill-opacity=".663" d="M207.353 925.12l176.915 11.957L233.39 455.803l-7.171 444.306z"/><path fill="#e0ebff" fill-opacity=".416" d="M271.53 431.346l14.523-18.272 54.1 14.935-33.587 14.168z"/><path fill="#541206" fill-opacity=".325" d="M796.061 83.257l65.645 271.962-136.155 17.335 23.844-254.973z"/><path fill="#41391c" fill-opacity=".749" d="M545.804 607.346l-50.497-37.098-117.009 75.142 16.856-7.784z"/><path fill="#121824" fill-opacity=".675" d="M768.018 578.225l-105.834-5.54 64.237-132.959 90.414 116.045z"/><path fill="#575143" fill-opacity=".725" d="M476.708 138.023l197.693 11.944-66.589-73.028-138.601 30.86z"/><path fill="#ebf7fb" fill-opacity=".349" d="M264.404 926.835L244.223 1086l-40.071-218.936-8.135 56.789z"/><path fill="#683400" fill-opacity=".486" d="M434.338 1086l411.764-61.92 49.318-33.13-208.685 5.462z"/><path fill="#162234" fill-opacity=".773" d="M306.79 351.538l61.152 252.051 40.332-209.567-74.755-79.847z"/><path fill="#feb683" fill-opacity=".357" d="M411.46 99.147l45.039-3.452 28.018 76.07-75 1.733z"/><path fill="#c2c7d3" fill-opacity=".792" d="M400.903 390.587l110.338-75.223 6.484-16.329-47.853 36.375z"/><path fill="#111925" fill-opacity=".498" d="M556.667 1011.494l-310.49-392.827 51.977 333.57 93.547 50.729z"/><path fill="#cfdcf0" fill-opacity=".416" d="M229.874 630l-.966-74.42-6.108 75.813 1.376 32.52z"/><path fill="#121215" fill-opacity=".435" d="M121.094 645.236L-62 393.493 104.684 835.58l15.11-66.401z"/><path fill="#88968a" fill-opacity=".353" d="M210.406 892.257l-15.98 112.082-200.98 11.888L140.524 1086z"/><path fill="#fffee5" fill-opacity=".271" d="M385.025 574.234l-74.563-9.44 136.07 56.337-21.053-1.864z"/><path fill="#f2b0a6" fill-opacity=".631" d="M728.693 584.62l-36.716-15.368-51.144 31.013 119.936 8.925z"/><path fill="#817965" fill-opacity=".325" d="M791.322 216.886L819.03-59.635 852.351-62l-16.3 294.972z"/><path fill="#192231" fill-opacity=".875" d="M424.738 624.207l6.704-228.696 88.768 95.578 179.118-117.17z"/><path fill="#0b1116" fill-opacity=".953" d="M646.33 381.905l-10.602 201.452-122.345 386.47 21.744-266.373z"/><path fill="#a06c40" fill-opacity=".682" d="M392.684 286.4l57.706-67.896 31.905 5.7 18.586 87.298z"/><path fill="#8da8b0" fill-opacity=".259" d="M562.04 17.332l-26.052 153.144-24.979-62.565-.78-86.63z"/><path fill="#2f2a1b" fill-opacity=".608" d="M686.577 618.123l83.81 211.533-1.817-216.907-101.678 70.116z"/><path fill="#131b24" fill-opacity=".78" d="M58.239 578.96l258.182-20.825-13.866 40.562L432.78 442.473z"/><path fill="#0f2021" fill-opacity=".549" d="M87.227 1000.332l-.508-31.034-106.893-77.626-39.131 122.886z"/><path fill="#abc0e0" fill-opacity=".545" d="M436.073 404.23l-72.567-52.005-18.764-52.949 35.491 52.992z"/><path fill="#fcfff4" fill-opacity=".212" d="M607.43 917.46l-12.512 9.86 2.669 24.835 36.33-39.258z"/><path fill="#342719" fill-opacity=".349" d="M511.415 54.843l-140.988 79.394-45.994-51.468L464.91 9.88z"/><path fill="#14315b" fill-opacity=".424" d="M259.527 359.662L-62 486.465l237.012-132.617 144.765-93.032z"/><path fill="#fad778" fill-opacity=".247" d="M565.006 647.168l-61.25-13.13 62.301-3.548-68.999-55.182z"/><path fill="#403836" fill-opacity=".929" d="M224.224 802.245l-6.39 102.243-99.546-61.947 35.054-69.69z"/><path fill="#111a25" fill-opacity=".973" d="M378.835 677.694l-136.323-61.22L347.09 941.13l26.549-409.633z"/><path fill="#01090f" fill-opacity=".545" d="M816.526 682.148l-87.514-40.621L898 620.522v23.13z"/><path fill="#4b7fab" fill-opacity=".235" d="M716.564 750.79l-76.521-111.182L625.43 683.8l23.52 75.092z"/><path fill="#da6f2b" fill-opacity=".302" d="M761.84 614.865l-66.437 49.04-9.044-20.671 31.106-48.37z"/><path fill="#6a767d" fill-opacity=".518" d="M633.698 627.996l4.716-30.616 28.881-18.468-17.934-97.656z"/><path fill="#2f1f09" fill-opacity=".612" d="M434.251 180.05l34.667 10.309-32.055 11.937-101.709 3.151z"/><path fill="#fffbfe" fill-opacity=".18" d="M569.368 464.393l-50.773 19.74 41.559-40.402-35.684-56.332z"/><path fill="#ada689" fill-opacity=".22" d="M339.282 8.386l1.173 116.572-8.779 89.92L282.652 28.69z"/><path fill="#f6feff" fill-opacity=".447" d="M168.599 988.418l112.681-49.18 59.446 47.735L291.363 1086z"/><path fill="#523729" fill-opacity=".357" d="M157.528 724.21l68.012-136.034-266.394-16.865 149.667-62.908z"/><path fill="#150b07" fill-opacity=".349" d="M687.877 285.011l92.289 203.594-250.612 34.187 298.403-134.361z"/><path fill="#feae86" fill-opacity=".337" d="M449.36 266.199l-40.01-23.889-14.019-50.632-14.021 48.138z"/><path fill="#0f1419" fill-opacity=".439" d="M644.728 654.17l36.555-80.183-245.094 423.46L313.732 648.03z"/><path fill="#0f1313" fill-opacity=".839" d="M476.905 594.271l-37.773 30.558 106.126 2.2-45.876-33.894z"/><path fill="#624426" fill-opacity=".286" d="M801.213 873.028l-17.042-67.788-147.984-18.441L620.3 903.25z"/><path fill="#ffe" fill-opacity=".204" d="M388.22 649.1l-60.619-6.622 88.391-93.202-62.009 72.79z"/><path fill="#4c5245" fill-opacity=".416" d="M-62 152.619l135.906 81.424L96.844-38.5-62 314.402z"/><path fill="#001522" fill-opacity=".38" d="M839.136 1036.993l8.196-243.14 2.89 57.014-52.788-12.357z"/><path fill="#100c00" fill-opacity=".31" d="M385.66 362.597l10.84-46.145 35.244-.711 7.164 51.842z"/><path fill="#e7edf6" fill-opacity=".6" d="M195.32 1004.65l9.7-108.327 25.747 62.254 348.58 84.174z"/><path fill="#363e38" fill-opacity=".714" d="M93.905 761.808l100.979 207.574-44.523 47.062-64.518-42.658z"/><path fill="#302516" fill-opacity=".647" d="M360.862 25.178l-45.951 86.424 23.661-18.807 55.329 26.285z"/><path fill="#020809" fill-opacity=".38" d="M-62 566.847l245.343-96.43 128.98 143.999L194.117 379.68z"/><path fill="#362d20" fill-opacity=".741" d="M213.166 297.47l-103.183-79.077-144.35 6.956 308.757-34.353z"/><path fill="#858885" fill-opacity=".486" d="M526.076 649.683L272.771 639.18l211.193-7.99 70.952 1.503z"/><path fill="#213c5d" fill-opacity=".306" d="M303.094 801.516L184.278 952.823l30.098-62.116-15.985-148.824z"/><path fill="#192332" fill-opacity=".808" d="M324.485 442.103l43.697 136.542 92.558-133.29-168.04 5.983z"/><path fill="#84877c" fill-opacity=".569" d="M-62-15.294v291.052L40.45 67.696l2.176-37.155z"/><path fill="#2d230e" fill-opacity=".357" d="M501.81 126.003l6.467-65.294-55.067-48.85 42.312 180.295z"/><path fill="#d6def0" fill-opacity=".278" d="M256.238 477.758l60.76-70.45 3.782 70.83-30.65-48.753z"/><path fill="#3a3120" fill-opacity=".439" d="M409.93-26.875l252.497 350.687-41.84-208.133-110.593 14.756z"/><path fill="#1c3673" fill-opacity=".165" d="M898 306.905v347.498l-117.968-8.212-46.379-149.532z"/><path fill="#fecaa7" fill-opacity=".247" d="M411.672 133.5l-26.428 4.802 71.403-65.304 6.55 49.375z"/><path fill="#dee4fd" fill-opacity=".29" d="M588.684 1050.682l2.183 2.336 22.358-69.68 12.683-65.314z"/><path fill="#798280" fill-opacity=".482" d="M744.351 32.463L604.245 16.88l58.327 117.979 49.531 8.084z"/><path fill="#e4a100" fill-opacity=".204" d="M456.454 575.942l54.072 1.167-23.993 12.538-45.433 28.174z"/><path fill="#0a131b" fill-opacity=".62" d="M220.375 520.029l40.226 191.66 15.909-151.727 326.209 13.688z"/><path fill="#ffebd4" fill-opacity=".29" d="M168.76 343.873l-28.878 15.321-1.482 11.684 58.649-33.191z"/></svg>