<svg xmlns="http://www.w3.org/2000/svg" width="228" height="278" viewBox="0 0 836 1024"><path fill="#464345" d="M0 0h836v1024H0z"/><g fill-opacity=".502"><path fill="#fdffff" d="M502 790l264 296-152-564z"/><path d="M294 1086l472-820-828 176z"/><path fill="#d5ac9c" d="M-62 142l724 148-12-352z"/><path fill="#d5d7ec" d="M826 354l16 480-132-420z"/><path fill="#d6ffff" d="M518 598l140 488V598z"/><path fill="#ffe9e6" d="M-62 242l208 40L10 86z"/><path d="M510 394l300 464-104-396z"/><path fill="#00070a" d="M-62 730l636 356-44-492z"/><path fill="#d2d7e7" d="M678 986l220-12V750z"/><path d="M450 194L-62 498l544 116z"/><path fill="#e1e3ed" d="M382 242l-8-140L94-62z"/><path fill="#d7a469" d="M-62 874l92 212 208-120z"/><path fill="#201410" d="M486-50L298 74l316 20z"/><path d="M702-62L898 50 686 214z"/><path fill="#c1e7c6" d="M270 578l176 44-100 24z"/><path fill="#e2b79e" d="M626 90l4 288L466 98z"/><path fill="#c0cdff" d="M66 386l-36 80-68-156z"/><path fill="#810049" d="M690 682l-36 152 140 152z"/><path fill="#000019" d="M818 410l80 228-100-32z"/><path fill="#000709" d="M426 1086L-46 642l188-372z"/><path fill="#a5dfff" d="M602 742l172 256-260-104z"/><path d="M570 190l-124-36 140-4z"/><path fill="#ffe5d6" d="M798 434l-132-28 124 140z"/><path fill="#30485f" d="M582 1086h272L498 830z"/><path fill="#d9fbff" d="M686 942l-96-396-64 116z"/><path fill="#fff" d="M206 942l20 52-56-20z"/><path d="M146 926l80 152-120-128z"/><path fill="#fff" d="M318 994l68 92H206z"/><path fill="#8db56d" d="M466 570l84-8-48-100z"/><path fill="#25210a" d="M310-62L78 130-62 2z"/><path fill="#b78178" d="M682 230l208 24 8-156z"/><path fill="#000002" d="M574 474l212 396V642z"/><path fill="#805234" d="M606 326l-224-8 20-256z"/><path fill="#fff" d="M830 934l-60-24-20 40z"/><path fill="#5f2439" d="M50 370l148-216 140 48z"/><path fill="#6a645c" d="M102 958l-104 52 124-344z"/><path fill="#d7d8d0" d="M-58 730l84 168-12 188z"/><path fill="#a3a7c9" d="M898 366l-196-28 188 132z"/><path fill="#daf8ff" d="M594 926l84-252-68-116z"/><path fill="#ffa31e" d="M150 990l-112 96 40-120z"/></g></svg>