<svg xmlns="http://www.w3.org/2000/svg" width="228" height="278" viewBox="0 0 836 1024"><path fill="#8da388" d="M0 0h836v1024H0z"/><g fill-opacity=".502"><path fill="#4d3351" d="M894 534L-62 70 830-62z"/><path fill="#e0f8b3" d="M-62 550l64 536 896-80z"/><path fill="#a3ff6e" d="M130 358l564-52-148 780z"/><path fill="#2d4a9d" d="M398 154L-62-62l92 628z"/><path fill="#4bac17" d="M358 886L134 666l228-240z"/><path fill="#babdff" d="M650 574l164 512 84-556z"/><path fill="#d9c9f4" d="M214 462l-276 64 80 560z"/><path fill="#000f45" d="M662 502l236 60-76-280z"/><path fill="#00080d" d="M378-62L222 230l192-72z"/><path fill="#de9974" d="M378 302l288-156L494-62z"/><path fill="#cbe6d3" d="M546 290l132 72-192 288z"/><path fill="#c6d0fb" d="M302 30L94-62l140 180z"/><path fill="#94ea60" d="M510 1010l-332-60 236-524z"/><path fill="#fbe9ff" d="M466 1026l372 60 60-188z"/><path fill="#ceffa7" d="M470 490L170 378l244-132z"/><path fill="#d47f8b" d="M230 638l-116 448-36-484z"/><path fill="#a67998" d="M898 866L614 998l4-308z"/><path fill="#baaccb" d="M178 214l-240 32 216 108z"/><path fill="#16751f" d="M250 722l48-104-192-28z"/><path fill="#6e8db1" d="M486 658l412-140-428-40z"/><path fill="#6f4b0f" d="M518 346l-136-48 192-136z"/><path fill="#1c5da1" d="M90 530l216-324L206 74z"/><path fill="#ffdccb" d="M686 910l-8-252-56 176z"/><path d="M898 302l-128 20 40 184z"/><path fill="#cefeb4" d="M-62 554l316-64-4 124z"/><path fill="#5d729f" d="M778 562L622 294l128-48z"/><path fill="#2e66a5" d="M686 818l116 100 96-104z"/><path fill="#329315" d="M318 470l136 72-216 60z"/><path fill="#e2c9d8" d="M-54 1086l216-96 72-348z"/><path fill="#d1c1c8" d="M514-18L642 86 414 50z"/><path fill="#857783" d="M-46-62h192l52 416z"/><path fill="#c3f78a" d="M670 370l-188-32 192 280z"/><path fill="#483c3b" d="M330-62L222 346l272-236z"/><path fill="#343c4d" d="M570-26l112 228 40-220z"/><path fill="#66a514" d="M646 666l-52-136h68z"/><path fill="#ca8e75" d="M162 1086l12-452L70 782z"/><path fill="#195496" d="M898 510l-240 32 32-116z"/><path fill="#925636" d="M602 826l24 140 72 8z"/><path fill="#e3e0fc" d="M642 1086l256-164-188-20z"/><path fill="#bdcdeb" d="M138 494l-200 68 68 492z"/></g></svg>