<svg xmlns="http://www.w3.org/2000/svg" width="228" height="278" viewBox="0 0 836 1024"><path fill="#7e6e6a" d="M0 0h836v1024H0z"/><g fill-opacity=".502"><path fill="#f8ffff" d="M218 1086l608-140-636-680z"/><path fill="#140000" d="M278-62l620 72-188 808z"/><path fill="#2e1b0d" d="M14 414L-62-62 898 58z"/><path fill="#fff8fd" d="M470 362l44 200-380-156z"/><path fill="#c3593a" d="M298-38l364 492-464-136z"/><path fill="#1c0004" d="M898 610L386 198 830-62z"/><path fill="#dfebf2" d="M-62 762l684 24-64 300z"/><path fill="#b98d83" d="M898 942L710 486l-148 600z"/><path fill="#6c0000" d="M198 594l-68-264-96 220z"/><path fill="#a70000" d="M398 234l212 408 96-104z"/><path fill="#8ca78f" d="M-30 1070l560-664-592 312z"/><path fill="#772a02" d="M730 974l-8-268 132 316z"/><path fill="#0c9fbe" d="M898 870l-32-344-160 8z"/><path fill="#d0abab" d="M58 250l88-36 88 340z"/><path fill="#c6af75" d="M278 242l172-108-192-96z"/><path fill="#3a9ab1" d="M122 838l136 248-68-484z"/><path fill="#d8e7f1" d="M618 662l52 424 60-236z"/><path fill="#007088" d="M110 518L38 758-62 542z"/><path fill="#0b992d" d="M238 530v64l212 40z"/><path fill="#101213" d="M226 314L90 154 250-62z"/><path fill="#cfcee1" d="M834 926l64-84-164-252z"/><path fill="#cf7640" d="M58 966l16-364 116-16z"/><path fill="#fb0000" d="M146 314l116-24-144 112z"/><path fill="#ff2a35" d="M594 346l-220-76 284 220z"/><path fill="#5c0709" d="M626 642L490 494l408-176z"/><path fill="#ebf1fb" d="M258 458l176-116 80 96z"/><path fill="#000709" d="M366-10l480 244-80-296z"/><path fill="#0d1b24" d="M114 430L18-62l-80 404z"/><path fill="maroon" d="M358 462l56 24-32 36z"/><path fill="#e5e3ea" d="M150 406l264 132-200 12z"/><path fill="#92969a" d="M506 406l32 248-248 180z"/><path fill="#f6f8fe" d="M242 1030l340-4-104-152z"/><path fill="#a1cddc" d="M-62 1002l120-28-16-252z"/><path fill="#09171a" d="M530 318L450 94l-44 180z"/><path fill="#93a8a0" d="M58-62l72 132-56 64z"/><path fill="#010e00" d="M382 214l-80 96-56-36z"/><path fill="#8f0000" d="M198 570l-76-252-8 248z"/><path fill="#b5cabf" d="M110 478l-152 28 56-112z"/><path fill="#396d75" d="M266 1086l-328-80 308-104z"/><path fill="#718190" d="M642 862l20 224-136-164z"/></g></svg>