<svg xmlns="http://www.w3.org/2000/svg" width="228" height="278" viewBox="0 0 836 1024"><path fill="#898586" d="M0 0h836v1024H0z"/><g fill-opacity=".502"><path fill="#1c0000" d="M38-62l376 480L898 18z"/><path fill="#f3ffff" d="M178 586l636 480-636-28z"/><path fill="#fbffff" d="M310 266L-62 402l552 248z"/><path fill="#f8ffff" d="M466 570l48-356 384 304z"/><path fill="#2d0f05" d="M290 274L-62 374 66-18z"/><path d="M890 258l-452-20L618-50z"/><path fill="#262f1c" d="M178 1066L-62 558l224-80z"/><path fill="#f7faff" d="M734 294l-244-28 296 360z"/><path fill="#deeeff" d="M42 1086l580-284 108 264z"/><path fill="#c0ffb2" d="M-62 1074l200-344-28 356z"/><path fill="#626d71" d="M898 562L446 930 250 618z"/><path fill="#f3b890" d="M310 366l84-284-112 4z"/><path fill="#f6ffff" d="M302 266L-10 402l392 72z"/><path fill="#292c21" d="M642 482l-72 132 148 32z"/><path fill="#b2bfd5" d="M182 610l40-268 380 244z"/><path fill="#cb6a58" d="M898 146l-160 28-8-236z"/><path fill="#faffff" d="M194 1086l-28-312 280 272z"/><path fill="#020007" d="M702 262l40-164L142-62z"/><path d="M694 962l96 124 12-124z"/><path fill="#b4bbc0" d="M354 942l376-272 168 272z"/><path fill="#553624" d="M38 942l124-376-224-92z"/><path fill="#663309" d="M518 350l-92 116-8-464z"/><path fill="#fff" d="M710 606l124-64-160-20z"/><path fill="#d48a80" d="M194 66l-48 220-44-232z"/><path fill="#000310" d="M-14 342l-48-128 320 72z"/><path fill="#aa4e1a" d="M822 558l76 376-188-328z"/><path fill="#8b9bae" d="M262 938l412-464-236-56z"/><path fill="#141e2a" d="M282 674l-12-64 196-8z"/><path fill="#3f3c3e" d="M370 466l-64 32-104-24z"/><path fill="#f8ffff" d="M522 246l176 68-204 116z"/><path fill="#b3bfcd" d="M330 442l-384-24L66 534z"/><path fill="#9996a4" d="M82 630l108 192-112-12z"/><path fill="#373040" d="M770 510l32-28-44-120z"/><path fill="#cfb0a5" d="M898 498L650 282l148-8z"/><path fill="#000e39" d="M134 1086l56-68-48-164z"/><path fill="#422c6a" d="M646 254l248 4 4-248z"/><path fill="#68371d" d="M474 150l-264-8 456 148z"/><path fill="#c2ffbd" d="M214 1082L-62 826v176z"/><path fill="#12111b" d="M190 74l332 4L62-62z"/><path fill="#371b02" d="M334 334l100 108 64-192z"/></g></svg>