<svg xmlns="http://www.w3.org/2000/svg" width="228" height="278" viewBox="0 0 836 1024"><path fill="#7a4845" d="M0 0h836v1024H0z"/><g fill-opacity=".502"><path fill="#fff" d="M330 942l-92-780 432 772z"/><path fill="#f3ffff" d="M590 326L242 562l324 60z"/><path fill="#000401" d="M-26 486L-62-46l708-16z"/><path fill="#1e0000" d="M850-62L646 234l196 752z"/><path fill="#5b0208" d="M74 982l424-352-436-96z"/><path fill="red" d="M326 254L66 666l52-324z"/><path d="M310 1086l-76-144 596 16z"/><path fill="#ebffff" d="M290 946l260-288 92 268z"/><path fill="#9c0000" d="M586 806l-4-656 292 936z"/><path fill="#daffff" d="M258 346l236 176-248 84z"/><path fill="#ffb370" d="M38 486L-62 882l128 204z"/><path fill="#e00" d="M494 386l-216-60 144 136z"/><path fill="#ca9760" d="M526 366L326 162l232-88z"/><path fill="#fff" d="M582 410l-36-80-176 196z"/><path fill="#9fe4d4" d="M290 762l160 140-192-304z"/><path fill="#58291d" d="M470 502l428 176-64 280z"/><path fill="#f50816" d="M606 826V338l112 124z"/><path fill="#cf0316" d="M846 1086L626 726l16 220z"/><path fill="#0d3530" d="M618 166l280 384-388-292z"/><path fill="#8d0000" d="M898-30L606-50l220 368z"/><path fill="#600108" d="M222 366L38 814l276 148z"/><path fill="#f7ffff" d="M78 454l-40 96 56-28z"/><path fill="#00030c" d="M846 1086L250 982l296-52z"/><path fill="#2e4551" d="M358 282L306 70 34 274z"/><path fill="#e3a3c0" d="M174 1086L26 954l224 36z"/><path fill="#c21619" d="M298 702l220-16 20-100z"/><path fill="#e89f7f" d="M750 534l-140 92 140-8z"/><path fill="#ecfffd" d="M330 906l268-96 48 140z"/><path fill="#faffff" d="M406 490L302 334l-56 148z"/><path fill="#ff0005" d="M698 414L538 278l-4 64z"/><path fill="#da0005" d="M290 246L62 454l240-116z"/><path fill="#11150c" d="M602 54L10-62l-52 252z"/><path fill="#f8ffff" d="M586 438l-4-72-204 112z"/><path fill="#6e0000" d="M594 806l60-356-88 104z"/><path fill="#000b0e" d="M270 510l64 12-16-36z"/><path fill="#001736" d="M786 594l112-148-228-56z"/><path fill="#fa0011" d="M-2 566l156-48-56 104z"/><path fill="#1e1e0a" d="M658 742l68-132 24 348z"/><path fill="#92020e" d="M306 958l-160-24 172-148z"/><path fill="#d2e5dd" d="M546 554l56 308-92-24z"/></g></svg>