<svg xmlns="http://www.w3.org/2000/svg" width="228" height="278" viewBox="0 0 836 1024"><path fill="#7a4845" d="M0 0h836v1024H0z"/><path fill="#e8ede9" fill-opacity=".596" d="M576.853 376.748l19.438 562.934-257.204 12.29-113.901-592.285z"/><path fill="#040f0d" fill-opacity=".588" d="M-62-.395l718.415-60.759L168.08 317.169-62 594.801z"/><path fill="#750000" fill-opacity=".439" d="M858.825 468.495l-801.118 479.8 60.769-740.533 170.652 407.605z"/><path fill="#d8e3de" d="M642.315 946.425l-9.147-88.7-105.09-104.263L304.46 929.503z"/><path fill="#4b1d1d" fill-opacity=".988" d="M740.9 526.286L608.385 284.258 835.141-62l21.217 1148z"/><path fill="#001116" fill-opacity=".863" d="M736.976 1086l-557.06-2.734 115.7-136.817 399.357 8.72z"/><path fill="#c02626" fill-opacity=".988" d="M538.637 350.7l-448.351 4.115 180.618-63.31 138.521 181.969z"/><path fill="#99080a" fill-opacity=".627" d="M560.25 714.694l47.118-500.045L841.175 1086l-144.883-90.083z"/><path fill="#e3fffe" fill-opacity=".635" d="M604.204 450.8l-78.048-134.82-74.988 347.053-202.265-220.015z"/><path fill="#bd0b15" fill-opacity=".953" d="M113.539 355.482L70.146 621.833 247.813 460.5l15.312-179.743z"/><path fill="#e49774" fill-opacity=".647" d="M102.507 441.652L-62 650.288l193.482 399.34L-51.53 1086z"/><path fill="#cde0dd" fill-opacity=".694" d="M311.41 272.414l41.369 170.975 209.444 156.135-323.971-12.88z"/><path fill="#f8c06b" fill-opacity=".314" d="M442.304 88.342l112.963 9.155-19.93 254.62L309.9 163.78z"/><path fill="#de1d27" fill-opacity=".643" d="M721.042 611.947L634.043 644.2l-78.43-355.359L690.246 409.88z"/><path fill="#540710" fill-opacity=".541" d="M313.505 959.365L54.156 940.078l145.1-564.185 118.442 497.514z"/><path fill="#adcdc3" fill-opacity=".525" d="M316.585 960.942l1.022-143.2-50.905-129.769 320.993 29.943z"/><path fill="#5c271e" fill-opacity=".71" d="M718.307 637.94L516.861 512.094l238.761 433.765L898 971.006z"/><path fill="#32332f" fill-opacity=".737" d="M898 571.707L599.32 106.442l-55.388 144.434-46.252 1.264z"/><path fill="#990603" fill-opacity=".396" d="M703.81 252.77L898 232.76 841.12-26.994 430.233-62z"/><path fill="#a50002" fill-opacity=".388" d="M327.175 737.488l-23.135-147 135.197 29.135 113.658-8.633z"/><path fill="#ecfaf5" fill-opacity=".733" d="M572.632 462.313L453.54 448.78l74.082-97.245 66.479 17.11z"/><path fill="#3e3b40" fill-opacity=".992" d="M104.975 304.353l-46.629-77.908 260.342-128.64 34.936 176.101z"/><path fill="#c386a7" fill-opacity=".761" d="M225.914 1086H53.556L98.7 998.273l148.983-22.243z"/><path fill="#131b1f" fill-opacity=".616" d="M324.399 486.891l-55.241 46.658-2.243-44.46 52.196 37.355z"/><path fill="#e8f7f5" fill-opacity=".824" d="M312.448 354.18l-55.44 2.55-6.403 117.183 148.342 4.618z"/><path fill="#d28669" fill-opacity=".584" d="M655.854 660.464l-37.596-52.322 99.71-48.338 34.108 42.252z"/><path fill="#b0d3f9" fill-opacity=".561" d="M88.802 531.595l-3.771-82.292-54.987 64.845 4.427 38.878z"/><path fill="#cb0916" fill-opacity=".875" d="M108.554 627.219l-8.547-9.586 87.622-123.145L2.031 578.276z"/><path fill="#211714" fill-opacity=".863" d="M-62 112.07L42.928-62l532.18 116.816L513.95 83.96z"/><path fill="#8fdbd2" fill-opacity=".475" d="M341.27 720.865l-33.78-30.472-61.696-206.654 32.214 248.319z"/><path fill="#87706b" d="M471.346 484.458l45.325-39.939-26.068 99.365 90.568 44.131z"/><path fill="#e7efea" fill-opacity=".773" d="M629.748 900.229l-304.882-20.044-9.468 73.056 89.217-5.263z"/><path fill="#6c2800" fill-opacity=".537" d="M433.395 301.345l91.467 36.592L412.522 467.1 366.39 112.74z"/><path fill="#960a12" fill-opacity=".867" d="M266.708 794.644l52.983 8.834-13.96 158.767-48.865 7.86z"/><path fill="#000e10" fill-opacity=".443" d="M224.282 957.114L703.566 1086 534.99 917.23l-75.885 32.345z"/><path fill="#102134" fill-opacity=".6" d="M898 650.068V397.46l-240.921-39.02 78.807 178.257z"/><path fill="#af030a" fill-opacity=".592" d="M724.48 931.628L616.556 572.196l-55.889 81.132 100.926 307.173z"/><path fill="#d6f2ed" fill-opacity=".408" d="M523.962 701.86l25.713-145.706L583.7 769.38l1.248 194.088z"/><path fill="#d11723" fill-opacity=".976" d="M531.089 339.408l4.294-56.875 106.112 82.887 6.1 45.613z"/><path fill="#f81224" fill-opacity=".557" d="M419.876 426.913l-48.884 6.578-93.257-129.818-28.308-31.855z"/><path fill="#500" fill-opacity=".627" d="M562.385 581.298l29.73-84.184 55.811 10.214-81.635 212.081z"/><path fill="#3b2129" fill-opacity=".69" d="M85.098 981.463L46.849 807.91l12.257-112.086L175.25 928.45z"/><path fill="#deab8f" fill-opacity=".659" d="M469.671 214.87l-77.289-36.54 164.44-4.812-5.607 35.09z"/><path fill="#d29359" fill-opacity=".608" d="M45.05 818.542l10.238-165.636L-62 979.98l151.27 32.96z"/><path fill="#271f00" fill-opacity=".573" d="M728.781 606.081l10.124 146.03-32.334 81.608-60.486-93.069z"/><path fill="#d20a18" fill-opacity=".714" d="M310.172 281.52L128.756 526.263 62.572 449.14l124.583-135.93z"/><path fill="#fd3d5d" fill-opacity=".451" d="M725.146 969.203l-36.732-32.032L757.704 1086 898 978.598z"/><path fill="#6d433b" fill-opacity=".757" d="M533.16 139.798l-318.724-.22 462.134 50.058L694.81 30.92z"/><path fill="#d60513" fill-opacity=".71" d="M422.131 458.996l-51.973-32.965 137.677-63.4-35.006 63.327z"/><path fill="#390203" fill-opacity=".569" d="M253.044 627.676l-68.095-80.94 71.685-172.834-12.693 151.219z"/><path fill="#a69e99" d="M440.078 671.794l19.578-73.63L391 592.507l133.418-16.468z"/><path fill="#effef9" fill-opacity=".624" d="M378.219 855.009l75.063-26.062-81.702-11.53-69.89 53.944z"/><path fill="#340e14" fill-opacity=".694" d="M578.866 537.266l13.236-175.972 13.42 26.909-36.886 270.356z"/><path fill="#3a2124" fill-opacity=".902" d="M140.266 325.213L-38.458 643.526l-20.224-296.781L3.276 195.747z"/><path fill="#ffefeb" fill-opacity=".145" d="M644.858 48.652l140.748 75.728-304.788-40.151 12.887 85.131z"/><path fill="#eaf7f1" fill-opacity=".631" d="M516.482 736.97l-77.833-43.22-22.793 21.188-45.632 10.24z"/><path fill="#351004" fill-opacity=".255" d="M382.738 649.502l129.99 72.868L364.54 586.596-62 666.6z"/><path fill="#985a2e" fill-opacity=".784" d="M439.576 222.178l-45.768 187.387-66.793-67.313 76.678-172.43z"/><path fill="#00190b" fill-opacity=".216" d="M288.523 803.667L224.99 452.622l28.233 251.818 171.27 90.709z"/><path fill="#c90009" fill-opacity=".38" d="M322.543 726.914l96.237-70.596 109.455 36.225 22.32-60.778z"/><path fill="#7a0000" fill-opacity=".502" d="M827.358 325.818L898-62 226.816-30.528 735.984 48.39z"/><path fill="#60382c" fill-opacity=".639" d="M621.981 140.913L500.268-20.762l143.74 371.44 100.306-113.96z"/><path fill="#e6f0f0" fill-opacity=".871" d="M316.64 450.086l-66.251-74.19 56.434-32.335 8.791-79.491z"/><path fill="#d1d4cf" fill-opacity=".918" d="M567.65 759.754l-66.275-56.294 49.463-36.321 41.702 98.58z"/><path fill="#dffffe" fill-opacity=".412" d="M585.3 515.222l-17.927-149.354-3.074-22.503-7.242 226.523z"/><path fill="#e6f2f0" fill-opacity=".741" d="M609.957 827.992l-19.663-15.172-7.183 138.863 57.684-3.797z"/><path fill="#df1324" fill-opacity=".878" d="M302.355 273.368l-180.868 71.228 181.647 4.544-2.676-70.174z"/><path fill="#9d9e97" fill-opacity=".486" d="M316.538 644.319l136.324 221.376L305.44 730.751l106.591-87.104z"/><path fill="#6c4c45" fill-opacity=".984" d="M605.233 611.777L480.06 542.326l17.67-29.982 58.476 74.444z"/><path fill="#fc1d32" fill-opacity=".447" d="M658.65 963.441l58.192-62.418-29.168-82.158-37.46 16.793z"/><path fill="#4f3b2b" fill-opacity=".49" d="M490.944 819.495L259.97 902.324l41.88-26.395 178.376-42.744z"/><path fill="#c50000" fill-opacity=".455" d="M589.272 705.527l26.837-327.343 96.776 133.42-85.184 107.68z"/><path fill="#fe243a" fill-opacity=".584" d="M680.86 496.984l-81.599-174.317 90.37 105.744 23.63 67.735z"/><path fill="#a30106" fill-opacity=".722" d="M245.153 369.597l-122.067 63.575-36.226 44.076 146.128 24.205z"/><path fill="#74796c" fill-opacity=".737" d="M230.796 751.447l156.8 1.5 186.54.207-116.223-8.902z"/><path fill="#3e3642" fill-opacity=".686" d="M74.818 501.994l-71.69-6.903 29.949-215.945 11.94 255.546z"/><path fill="#050b07" fill-opacity=".757" d="M336.275 258.736l9.2 33.174-14.511 29.857-9.232-24.26z"/><path fill="#7b877f" fill-opacity=".627" d="M584.843 491.17l-72.672 17.35-8.601-63.838 31.565 6.983z"/><path fill="#5d2023" fill-opacity=".89" d="M206.23 662.971L42.626 821.906l21.7-156.705 126.637-175.106z"/><path fill="#6f4934" fill-opacity=".675" d="M614.82 663.253l9.7 40.93 54.252 52.217.841-89.623z"/><path fill="#3b3209" fill-opacity=".427" d="M500.452 356.373l-100.744 36.483 17.81-64.5-60.407-104.525z"/><path fill="#6e242d" fill-opacity=".663" d="M760.275 732.953l-10.444-195.428 117.98 439.764-176.975-28.596z"/><path fill="#150503" fill-opacity=".533" d="M242.523 673.443l65.636 112.416 17.207 74.485-13.256-16.261z"/><path fill="#8c0a0e" fill-opacity=".929" d="M627.562 580.004L585.516 805.13l66.028 57.556-75.663-143.703z"/><path fill="#e6fdfb" fill-opacity=".431" d="M305.227 572.183l229.321-205.246-101.312 209.656 99.78-94.541z"/><path fill="#e3d9d6" fill-opacity=".761" d="M531.636 289.834L515.4 300.35l16.946 113.907-8.818 32.833z"/><path fill="#87a0c3" fill-opacity=".357" d="M-4.105 604.574L-62 548.376l144.708 68.916 26.212 38.566z"/><path fill="#ddfdff" fill-opacity=".392" d="M100.145 518.51l-27.967-60.784 1.718 93.263-73.332-7.01z"/><path fill="#2b3120" fill-opacity=".553" d="M419.93 47.55l-29.671 133.866-32.758-32.93L-62 141.143z"/><path fill="#39352c" fill-opacity=".918" d="M786.623 406.547L474.433 242.35l-.435 22.426 126.966 9.576z"/><path fill="#b30005" fill-opacity=".498" d="M330.676 679.116l8.675 23.728 28.056 9.84 44.569-10.337z"/><path fill="#dbefed" fill-opacity=".698" d="M245.12 561.722l6.46-117.577 229.82 30.927-214.496 8.32z"/><path fill="#ea2234" fill-opacity=".91" d="M172.414 319.713l24.222 2.602L85.669 446.907l27.782-76.776z"/><path fill="#171811" fill-opacity=".596" d="M3.795 582.745L-42.89 412.963 115.38 56.719-5.494-62z"/><path fill="#7f8173" fill-opacity=".537" d="M504.622 921.877l-76.615 4.045 160.45 10.976-64.646-13.713z"/><path fill="#7da29b" fill-opacity=".49" d="M259.302 624.072l23.927 134.547-4.173-166.836 191.89-78.347z"/><path fill="#fd1120" fill-opacity=".275" d="M314.962 913.964l-67.66 61.382 25.172-199.515-1.34 38.117z"/><path fill="#0a1113" d="M257.425 963.124l100.027-9.319 181.427-9.743-289.867 70.943z"/><path fill="#bb7c5f" fill-opacity=".639" d="M635.408 590.004l113.164 30.56 3.355-102.63-56.78 114.192z"/><path fill="#00060a" fill-opacity=".278" d="M277.242 486.098l-23.112 34.296 68.714-33.613 4.266 51.536z"/><path fill="#f8ab7c" fill-opacity=".255" d="M408.292 341.562L560.543 88.71l-160.716 4.54 109.792 52.333z"/><path fill="#fff7ff" fill-opacity=".514" d="M328.013 327.284l-16.574-55.2-16.504 37.24 18.129 19.343z"/><path fill="#737267" fill-opacity=".914" d="M384.178 727.78l-146.718-3.817 138.312 10.924 78.397 3.103z"/><path fill="#352a1b" fill-opacity=".416" d="M458.416 167.522l112.1-35.193 43.69 76.12-172.938-86.261z"/><path fill="#860001" fill-opacity=".729" d="M212.621 515.608l7.426 125.71 67.32 229.592 25.214 54.314z"/><path fill="#41151b" fill-opacity=".592" d="M-41.867 283.569l297.735 1.451-99.682 43.504-74.28 77.873z"/><path fill="#dae8e5" fill-opacity=".98" d="M467.93 513.506l-117.02 74.461 141.644-7.07-148.828-176.691z"/><path fill="#82464c" fill-opacity=".451" d="M720.231 152.148l-151.29-10.5-15.663-104.536L775.53 71.477z"/><path fill="#180000" fill-opacity=".255" d="M273.575 667.722L126.96 458.808l48.855-8.669 67.9 106.999z"/><path fill="#d3b096" fill-opacity=".6" d="M539.268 247.017l-28.08-103.858-9.482 37.985 48.74-12.57z"/><path fill="#aa8f8d" fill-opacity=".992" d="M340.28 591.702l218.281 20.704-214.68-28.306 141.259 69.178z"/><path fill="#c40003" fill-opacity=".318" d="M367.226 723.346l104.317-110.24 100.662 16.237-160.024 19.39z"/><path fill="#b9beba" fill-opacity=".882" d="M551.599 592.108l20.632 32.12-30.9-11.935-84.125-86.955z"/><path fill="#141c22" fill-opacity=".941" d="M534.786 945.262l150.812 114.16 33.708-12.02-17.427-86.474z"/><path fill="#965a6b" fill-opacity=".604" d="M75.003 962.621l-22.373 64.375 46.26-19.737 152.367-27.05z"/><path fill="#400908" fill-opacity=".518" d="M608.156 656.584l-28.02-110.731-67.861 12.547 31.743-39.31z"/><path fill="#ecf5f1" fill-opacity=".969" d="M500.292 941.201l-148.305.761 247.381-79.96-285.937 54.068z"/><path fill="#f0fc6f" fill-opacity=".149" d="M769.794 712.564l-20.139 15.294L636.07 595.59l159.974 139.423z"/><path fill="#d1bfbc" fill-opacity=".918" d="M576.635 765.466l-15.604-30.444-93.319-57.408-71.35-68.972z"/><path fill="#753a45" fill-opacity=".361" d="M115.707 173.405l58.413 81.228-85.633 56.226-37.795-76.648z"/></svg>