<svg xmlns="http://www.w3.org/2000/svg" width="228" height="278" viewBox="0 0 836 1024"><path fill="#755" d="M0 0h836v1024H0z"/><path fill="#b9d0e2" fill-opacity=".573" d="M628.71 352.769l-202.5-81.993 190.029 690.22 245.783-99.12z"/><path fill="#000d11" fill-opacity=".635" d="M848.354 733.462L350.782-62h527.047l-15.208 460.488z"/><path fill="#d52728" fill-opacity=".749" d="M253.716 332.104l-31.824 609.897 288.557 35.33-54.31-684.02z"/><path fill="#c4e2f3" fill-opacity=".592" d="M-62 879.57l310.259-223.793L147.895 1086l378.785-64.643z"/><path fill="#fff6ff" fill-opacity=".365" d="M309.574 300.48l419.684 346.19-187.623-349.204L222.57 600.072z"/><path fill="#9d9fa5" fill-opacity=".882" d="M-62 680.698l205.387 1.557 102.057 264.133-235.59 3.355z"/><path fill="#2b260f" fill-opacity=".643" d="M-25.507-3.138L-62 330.361l339.032-50.347L328.73 1.218z"/><path fill="#edf2f0" fill-opacity=".596" d="M483.379 675.703l229.117-138.2-185.64 187.666-188.377-34.352z"/><path fill="#900c0d" fill-opacity=".788" d="M311.788 764.299l37.824 230.905 179.758-67.41 42.06-194.623z"/><path fill="#484b4a" fill-opacity=".702" d="M617.803 723.346l235.019-6.01 3.184-140.59-477.79 213.66z"/><path fill="#e0f2ff" fill-opacity=".345" d="M482.074 289.339l-12.866 161.42 189.603 106.864 82.429-156.248z"/><path fill="#391017" fill-opacity=".765" d="M558.661 632.404l70.428-59.097-138.678-98.896 68.801 67.758z"/><path fill="#f1e9f9" fill-opacity=".753" d="M154.618 1052.067l217.707 15.618L200.71 897.632l33.81-134.909z"/><path fill="#9c0c11" fill-opacity=".8" d="M303.5 707.402l150.602-317.598 28.56 185.096 78.836 62.428z"/><path fill="#97a4bc" fill-opacity=".792" d="M509.031 967.93l98.321-232.868L530.298 1086l-347.65-42.095z"/><path fill="#404131" fill-opacity=".62" d="M236.708 714.074l15.555-156.44-306.078-184.37 46.647 243.674z"/><path fill="#201818" fill-opacity=".729" d="M610.848 355.752L534.121 169.14 332.415 340.467l74.709-124.64z"/><path fill="#4dadfe" fill-opacity=".314" d="M139.53 566.036l84.644-4.694-.119-244.61-150.101 32.13z"/><path fill="#f4bd9c" fill-opacity=".714" d="M325.688 62.827l81.45-5.624.864 62.962-112.456 1.22z"/><path fill="#e25759" d="M356.539 579.497l-132.41-177.069 49.949-109.5L392.66 534.79z"/><path fill="#df1117" fill-opacity=".522" d="M267.433 559.454l96.297 17.814-8.143 428.727-150.883-87.123z"/><path fill="#13260a" fill-opacity=".306" d="M535.066 921.356l122.095-14.272L898 1000.414 639.195 1086z"/><path fill="#ed282e" fill-opacity=".831" d="M427.318 325.657l-1.21 132.777 57.831-105.46 19.383-25.625z"/><path fill="#6f4313" fill-opacity=".651" d="M68.38 314.601l469.407-26.487L-62 186.64l94.636 476.91z"/><path fill="#848f93" fill-opacity=".616" d="M548.627 880.368L898 623.488v305.97l-257.944 29.844z"/><path fill="#9f95a9" d="M477.095 574.611l81.057 56.909-110.09-232.65 35.852 109.815z"/><path fill="#d4a9a7" fill-opacity=".643" d="M252.204 483.68l109.957 8.41 21.435 60.995-153.959-19.391z"/><path fill="#0d0a09" fill-opacity=".545" d="M536.55-62l158.074 387.077 85.033 57.871 1.522-285.496z"/><path fill="#a31e21" fill-opacity=".659" d="M290.762 674.402l70.379-250.004 39.111 234.05 17.814-297.724z"/><path fill="#eafff4" fill-opacity=".369" d="M535.438 691.234l100.543-94.398-235.117 116.26-20.91 44.92z"/><path fill="#dca27e" fill-opacity=".514" d="M362.917 455.281l-35.13-263.679 148.154-25.356-178.72-13.763z"/><path fill="#d6daf1" fill-opacity=".843" d="M540.915 309.981l106.139 280.594L496.913 408.17l-5.955-126.693z"/><path fill="#013f10" fill-opacity=".404" d="M-62 1086l238.003-30.519-22.436-88.048-186.792 12.15z"/><path fill="#757050" fill-opacity=".518" d="M502.194 695.293l-46.257 3.487-84.272 68.071 111.928 26.566z"/><path fill="#920d12" fill-opacity=".678" d="M514.705 749.572l60.744 79.493-86.614 149.894-190.499 3.897z"/><path fill="#3e3932" fill-opacity=".906" d="M-62 287.271L301.37 64.195l177.97-36.521L226.404-62z"/><path fill="#9ca6ab" fill-opacity=".404" d="M9.074 664.271L-62 724.05l270.058 149.884 48.666-194.512z"/><path fill="#eaffe3" fill-opacity=".388" d="M337.17 297.508l-17.687 77.513 9.134 5.037 64.88-29.96z"/><path fill="#485479" fill-opacity=".478" d="M568.805 284.606l117.362 194.137 76.696-19.541-18.308-82.082z"/><path fill="#ff474c" fill-opacity=".663" d="M306.145 306.772l46.74 169.037-106.627-7.54L230.066 343z"/><path fill="#694334" fill-opacity=".647" d="M480.278 101.1l35.945 56.526-78.54 152.482-99.822 46.335z"/><path fill="#970219" fill-opacity=".533" d="M617.051 1083.781l-6.374-144.964 39.822 18.63-102.787-44.141z"/><path fill="#001838" fill-opacity=".31" d="M240.525 517.687L128.18 560.044 108.977 637.5l107.313 37.167z"/><path fill="#704209" fill-opacity=".675" d="M302.163 200.047l-102.835 6.118 70.037 111.573 78.032-30.442z"/><path fill="#ff3136" fill-opacity=".451" d="M297.522 893.86l-110.925 21.878 58.471-173.777 13.469-137.632z"/><path fill="#a0d0ff" fill-opacity=".247" d="M100.776 355.398l94.385-5.366 118.867-45.513L129.546 438.94z"/><path fill="#7a9bb4" fill-opacity=".502" d="M416.685 1042.509l205.444 42.144-53.95-120.442-45.398-37.423z"/><path fill="#2e2e30" fill-opacity=".639" d="M681.935 695.723l78.435-67.11-77.17-186.805L898 647.726z"/><path fill="#840c0f" fill-opacity=".761" d="M459.524 451.256l-97.437 25.72 48.433 101.25 77.56-90.79z"/><path fill="#d9eafd" fill-opacity=".584" d="M258.843 976.16l-56.948-89.673L167.2 1065.41l224.34-67.572z"/><path fill="#6e8284" fill-opacity=".384" d="M-50.199 740.84l16.836 230.98 217.544 4.03L28.06 765.478z"/><path fill="#ccdaf6" fill-opacity=".439" d="M458.318 409.154l6.978 54.41 191.588-24.434 99.673 170.073z"/><path fill="#403e6d" fill-opacity=".169" d="M497.003 495.16l97.288 93.708-111.774-156.94 210.04-70.64z"/><path fill="#1a1823" fill-opacity=".98" d="M561.418 325.775l-8.063-.652L488.55 220.74 627.348-62z"/><path fill="#9dfdf7" fill-opacity=".314" d="M320.321 572.846l58.364-83.291-6.895 68.016-152.413-4.23z"/><path fill="#490208" fill-opacity=".506" d="M308.05 949.417l-39.882 13.717 44.756 14.89 183.683 4.203z"/><path fill="#dfe3fe" fill-opacity=".518" d="M429.988 303.466l83.802-23.392-57.062 145.267 154.742-46.929z"/><path fill="#981013" fill-opacity=".769" d="M589.91 616.51l-131.827 11.335-137.734-2.083 124.966 60.417z"/><path fill="#830807" fill-opacity=".573" d="M283.935 706.499l122.786-6.266L348.856 803.2l132.838 13.061z"/><path fill="#585b6a" fill-opacity=".616" d="M236.309 379.495l-114.84 194.586L54.22 367.277l181.164 182.981z"/><path fill="#ed232a" fill-opacity=".667" d="M490.533 948.715l-117.37 8.825-75.977-21.186 107.215-1.567z"/><path fill="#3c352f" fill-opacity=".851" d="M438.165 121.324L43.73 220.984l205.55-124.82 144.73 65.515z"/><path fill="#ff484f" fill-opacity=".565" d="M505.423 326.645L235.078 505.747l28.927-84.378 113.364-63.938z"/><path fill="#98a1a7" fill-opacity=".553" d="M577.194 726.172l138.373-32.226 50.75 175.477-207.919 31.392z"/><path fill="#a56a3d" fill-opacity=".275" d="M361.448 212.99l49.868-232.837 4.266 27.446 103.16 186.06z"/><path fill="#281f1b" fill-opacity=".549" d="M169.49 253.52L17.855-62-62 110.133V75.582z"/><path fill="#480001" fill-opacity=".38" d="M482.958 796.23l77.83 35.826 14.652-130.13-20.734 6.027z"/><path fill="#41261e" fill-opacity=".631" d="M368.72 326.252l95.027-107.682 1.272-44.629L335.09 282.965z"/><path fill="#fecdb1" fill-opacity=".357" d="M294.203 188.407l55.73-5.882-28.038-145.238 54.229 71.28z"/><path fill="#3c1b1d" fill-opacity=".42" d="M615.394 595.6l-73.99 45.434 49.477-109.568-89.904-36.272z"/><path fill="#d09f95" fill-opacity=".996" d="M347.728 312.46l-110.835 18.476 106.399-33.968-9.933 98.134z"/><path fill="#f7f5ff" fill-opacity=".349" d="M619.135 588.856L431.267 725.08l200.28-84.987 56.85-119.13z"/><path fill="#292425" fill-opacity=".459" d="M672.363 512.538l63.198 36.89 32.186 135.937 48.168-211.236z"/><path fill="#626d72" fill-opacity=".271" d="M675.406 562.935L898 814.19l-220.91-74.656-44.816 7.425z"/><path fill="#694d15" fill-opacity=".251" d="M15.67 286.398l128.401 404.84-180.887 12.291L-62 549.618z"/><path fill="#9dabc3" d="M341.362 987.962l-47.942 91.633L551.2 970.804l-173.15 21.763z"/><path fill="#373534" fill-opacity=".91" d="M138.67 162.196l158.448 43.898 9.567-59.45-2.588-191.642z"/><path fill="#fffbff" fill-opacity=".58" d="M328.006 376.365l-17.155-33.606 45.61 12.651 24.67-1.056z"/><path fill="#e2e8fb" fill-opacity=".914" d="M647.663 523.584l-17.44 20.898-85.576-89.4 155.438 44.158z"/><path fill="#667681" fill-opacity=".294" d="M-55.763 647.24l291.424 112.703 1.675-287.075L256.3 656.597z"/><path fill="#ab1719" fill-opacity=".831" d="M341.294 589.389l-111.969 18.479 102.801-43.449 9.92-149.195z"/><path fill="#ede3e1" fill-opacity=".631" d="M316.602 481.132l14.571 18.374-4.106 39.083-25.025-33.963z"/><path fill="#adb4bc" fill-opacity=".584" d="M217.05 923.065l-46.442-87.697L24.179 729.386l149.575-26.399z"/><path fill="#f81c20" fill-opacity=".431" d="M350.774 299.558l-122.279 100.57 3.198-49.722 43.128-15.152z"/><path fill="#345a40" fill-opacity=".349" d="M637.386 1044.818L898 1086l-53.75-156.328-242.663 15.59z"/><path fill="#625c5f" fill-opacity=".545" d="M221.05 366.15l37.768-48.718-47.713-31.498-113.62 13.533z"/><path fill="#f04e51" d="M255.876 604.73l27.64-152.634 9.281-127.017-26.185 189.637z"/><path fill="#fe4045" fill-opacity=".682" d="M387.152 663.244l-126.319-31.752-37.197 306.686 21.773-291.624z"/><path fill="#b67356" fill-opacity=".373" d="M411.63 734.252l80.128 15.92 25.626-19.44-61.162-69.767z"/><path fill="#7b705d" fill-opacity=".541" d="M335.564 33.231l122.09-16.827-263.517-36.01L462.302-62z"/><path fill="#c6b6b1" fill-opacity=".988" d="M350.544 571.299l11.328-88.15 14.081 29.507 1.663 45.385z"/><path fill="#a3a9c2" fill-opacity=".627" d="M570.522 557.068l-95.73-19.749 12.192 47.091 60.65 34.24z"/><path fill="#e91619" fill-opacity=".396" d="M392.488 504.87l-94.797-33.058-5.03 85.308 26.759-121.203z"/><path fill="#624a66" fill-opacity=".522" d="M574.974 405.912l5.466 13.74 11.091-.692 38.536-33.309z"/><path fill="#440006" fill-opacity=".216" d="M668.777 920.143L378.041 957.67l-114.304-10.629 104.034 51.006z"/><path fill="#ebc2a9" fill-opacity=".529" d="M311.71 83.548l-10.646 48.603 94.883-68.893-69.407-1.898z"/><path fill="#ac1315" fill-opacity=".863" d="M458.357 688.163l44.242-34.803-79.773-73.506-141.02-16.148z"/><path fill="#633e21" fill-opacity=".773" d="M293.452 228.153l-86.521-10.213 176.271-1.465 14.981 17.558z"/><path fill="#cb7378" fill-opacity=".455" d="M424.272 363.001l-14.766 87.12-54.067 26.933.418-81.846z"/><path fill="#d20104" fill-opacity=".392" d="M453.476 366.266l-77.827-2.071 19.936-34.524 43.205-31.299z"/><path fill="#b8826c" fill-opacity=".706" d="M442.14 157.828l-68.044 55.933-21.245-104.274-18.832 55.473z"/><path fill="#c1181c" fill-opacity=".992" d="M256.88 778.97l-16.069 19.183 257.295 101.31 37.768 11.577z"/><path fill="#1b1b28" fill-opacity=".871" d="M464.572-62L675.47 154.388l-184.292 52.678 24.301-34.228z"/><path fill="#9ea4ac" fill-opacity=".69" d="M181.033 908.75L-7.59 924.246 237.705 718.11l-18.666 108.732z"/><path fill="#cd171c" fill-opacity=".71" d="M275.018 823.263l260.115 121.554-208.377-71.629-25.96 92.741z"/><path fill="#855446" fill-opacity=".694" d="M479.628 208.555l3.167 56.111-17.954 30.88-117.604 59.772z"/><path fill="#8a530f" fill-opacity=".463" d="M72.594 255.16l76.415 12.792L39.54 377.87l-4.507-97.985z"/><path fill="#84a9ff" fill-opacity=".169" d="M755.898 564.732l-92.405-97.492 49.633-95.394-120.31.874z"/><path fill="#6d6d77" fill-opacity=".361" d="M898 933.61l-291.101-48.045-3.223 67.19 81.493 20.01z"/><path fill="#a61114" d="M476.506 851.542l86.693 3.027-61.432-19.168L236.864 730.47z"/><path fill="#2f1111" fill-opacity=".125" d="M466.373 656.781l231.03-161.31-81.52 96.535-60.537 49.535z"/><path fill="#e4e6f1" fill-opacity=".58" d="M164.898 978.453l159.431 4.54-149.132-48.789L201.589 1086z"/><path fill="#f4f7ff" fill-opacity=".467" d="M554.857 644.758l146.723-116.16-182.29 171.825-74.091-9.938z"/><path fill="#839eb9" fill-opacity=".161" d="M233.887 358.959l-2.553 69.543-203.832-1.846 95.303-138.202z"/><path fill="#b17658" fill-opacity=".506" d="M416.421 135.588l39.925-70.942-76.282-10.648 20.01 63.827z"/><path fill="#1b1715" fill-opacity=".714" d="M664.256 56.75L433.203 5.575 237.636 23.047 768.993-62z"/><path fill="#d8080f" fill-opacity=".427" d="M162.857 935.708l28.813-11.196.262-2.63 2.448-20.95z"/><path fill="#e0e5f9" fill-opacity=".204" d="M530.862 284.03l104.965 304.999-174.841-200.373 18.855-31.509z"/><path fill="#4b3b37" fill-opacity=".529" d="M618.766 371.46l-38.636-52.389 34.846-87.045 59.55 84.551z"/><path fill="#c9c6dc" d="M538.184 305.053l-45.08-22.036 136.33 98.015-102.908-33.764z"/></svg>