<svg xmlns="http://www.w3.org/2000/svg" width="228" height="278" viewBox="0 0 836 1024"><path fill="#bdada1" d="M0 0h836v1024H0z"/><g fill-opacity=".502"><path fill="#3f0b00" d="M338-62l312 904-432 80z"/><path fill="#fff" d="M6-62l-8 1148 300-472zm544 704L818-62l80 1056z"/><path d="M898 986L702 826l-104 260z"/><path fill="#8b502c" d="M670 470L522-62 126 414z"/><path fill="#fff" d="M-62-62h360L10 1086zm892 992l68-992H546z"/><path fill="#fff" d="M682 1002l-616 84-32-236z"/><path fill="#5a3c2b" d="M598 914L186 406 290 58z"/><path d="M230 730l84 220-124-124z"/><path fill="#fff" d="M414 1086l180-16 160-372z"/><path fill="#040300" d="M606 114L494 6 306 58z"/><path fill="#4b2c16" d="M270 738l360-416-160 536z"/><path fill="#be8e71" d="M498 354l-228 92 64-500z"/><path fill="#4a2e1a" d="M614 326l-384-20 392-128z"/><path fill="#fff" d="M422 1050l108-20 64-288z"/><path fill="#fffffa" d="M114 218L462-62 22-58z"/><path fill="#fff" d="M-62 1006l196-288 132 224z"/><path fill="#f4b792" d="M426 366l104-256-160-16z"/><path fill="#000508" d="M654 770l-80 148 32-212z"/><path fill="#fff" d="M870 878L650 394l-4 432z"/><path fill="#01090e" d="M758 1086l-16-236 156 128z"/><path fill="#3d2b20" d="M430-22L222 330l16-172z"/><path fill="#002ee8" d="M102 986l60-20 52 120z"/><path fill="#c17c56" d="M570 814l-284 44 136 112z"/><path fill="#f6f7f3" d="M274 694l-12-240-320 504z"/><path fill="#ffffef" d="M710 190L898-22 462-34z"/><path fill="#fbf9ed" d="M558 546l20 212 136-420z"/><path fill="#37211a" d="M310 326l256-76-276-8z"/><path fill="#f1f6fc" d="M386 1042L270 806l248 280z"/><path fill="#31251b" d="M558 630l-280 32V538z"/><path fill="#000e14" d="M318 926l-116-88-4-104z"/><path fill="#fff" d="M594 1058l84-204-432 176z"/><path fill="#ff8e00" d="M174 974l20 44 56-76z"/><path fill="#402f19" d="M546 50l64 256 4-136z"/><path fill="#fdf9f0" d="M134 302l100 28-56-312z"/><path d="M554 866l52-76-36 108z"/><path fill="#ece8e0" d="M270 670L74-38-62 1074z"/><path fill="#eda67a" d="M434 282l-128 96 240 4z"/><path fill="#0a181b" d="M210 754l64 176 52-20z"/></g></svg>