<svg xmlns="http://www.w3.org/2000/svg" width="228" height="278" viewBox="0 0 836 1024"><path fill="#54413f" d="M0 0h836v1024H0z"/><path fill="#eff0f1" fill-opacity=".816" d="M92.095 1049.017l56.676-187.114 406.255-5.198L638.633 1086z"/><path fill="#f0f2ee" fill-opacity=".816" d="M173.517 654.764l72.297-327.081 175.552-108.07L237.692 727.09z"/><path fill="#ff8f92" fill-opacity=".529" d="M585.525 282.356l-265.208 55.977L603.87 765.754l34.01-446.263z"/><path fill="#dbdbdc" fill-opacity=".957" d="M380.943 751.843l-201.269-61.244 20.3-84.61 211.73 97.522z"/><path fill-opacity=".647" d="M277.352 266.091L3.514 1045.15-6.676-62 898 23.683z"/><path fill="#000103" fill-opacity=".706" d="M898-62L638.428 1.125l-30.84 1001.767 273.34-214.166z"/><path fill="#8f4136" fill-opacity=".667" d="M576.262 55.61l-86.53 843.357-132.2-781.767L719.513 15.286z"/><path fill="#dbe9e9" fill-opacity=".725" d="M612.068 477.923L608.81 746.33l-51.798-46.26-14.402-149.744z"/><path fill="#ecfcfc" fill-opacity=".714" d="M635.83 316.47l4.138 59.068-129.653-73.155 50.825-27.679z"/><path fill="#dedddc" fill-opacity=".945" d="M541.24 805.913l5.687 66.944L483.117 1086l-88.113-198.512z"/><path fill="#841b1b" fill-opacity=".82" d="M175.934 850.985l191.256 26.837 180.418-70.668-375.892-104.666z"/><path fill="#a10007" fill-opacity=".435" d="M302.205 523.32l237.639 55.351L595.71 447.36 395.53 315.415z"/><path fill="#271c1a" fill-opacity=".875" d="M72.599 1086L-62 1005.416l220.542-453.712 33.453 170.318z"/><path fill="#100f0f" d="M572.715-62l-10.087 335.68 244.158 121.166L898 13.545z"/><path fill="#d5d8d8" fill-opacity=".984" d="M125.795 1086L157.7 817.133l24.468 24.82 196.008 69.068z"/><path fill="#651919" fill-opacity=".741" d="M278.942 609.621l11.324 40.272 281.219 128.812-29.065-156.287z"/><path fill="#eaeaea" fill-opacity=".859" d="M297.908 430.751l-69.74-45.6 90.511-119.777 89.605 67.317z"/><path fill="#af9697" fill-opacity=".796" d="M389.259 581.341l-30.956 32.516 198.576 2.148 33.144-52.285z"/><path fill="#30211c" fill-opacity=".863" d="M898 988.758L622.406 824.325 565.2 902.343 677.111 1086z"/><path fill="#d4cbcc" fill-opacity=".851" d="M553.624 337.593l-110.509 9.46-30.99-52.47 80.344 77.175z"/><path fill="#100f10" fill-opacity=".843" d="M-62-62L426.701 99.44l-90.523 165.698L-62 495.577z"/><path fill="#01670d" fill-opacity=".31" d="M300.36 415.104l-21.58 88.316-45.04-8.51 5.453-79.002z"/><path fill="#443120" fill-opacity=".776" d="M531.41 334.386l-78.02-3.307-75.331-143.681L522.862 260.3z"/><path fill="#4a1012" fill-opacity=".827" d="M464.061 574.857l-48.093-.587-114.683-31.363 31-104.717z"/><path fill="#100f10" d="M708.254 162.85l-91.752 276.074-4.474 244.077 230.743-296.506z"/><path fill="#1e231f" fill-opacity=".604" d="M285.16 1086l102.658-106.343-8.86 9.911 7.587 96.432z"/><path fill="#8d5841" fill-opacity=".576" d="M418.55 689.937l-35.515 103.27 239.602 11.067-13.91-73.954z"/><path fill="#c9484c" fill-opacity=".847" d="M353.688 250.253l71.697 33.357-56.72 163.154 102.006-4.656z"/><path fill="#e1f6f6" fill-opacity=".545" d="M589.636 468.223l13.748 207.65 17.504-389.13 14.684 106.238z"/><path fill="#e9eced" fill-opacity=".745" d="M194.118 518.068L338.481 709.7l-163.854-37.03 83.114-312.119z"/><path fill="#d1fbb6" fill-opacity=".165" d="M547.926 298.913L434.76 91.816l109.997-39.354 24.43 70.48z"/><path fill="#de2229" fill-opacity=".537" d="M635.787 362.58l-80.76-33.605-98.586 155.027 169.717-125.57z"/><path fill="#8d6566" fill-opacity=".941" d="M546.7 529.926l-180.728 87.033 50.226.206 43.618-99.634z"/><path fill="#db393d" fill-opacity=".486" d="M154.283 811.663l39.404-87.447 45.56-30.897-36 161.04z"/><path fill="#5e0406" fill-opacity=".435" d="M359.128 455.732l194.167 97.06 46.32-105.148-312.628 142.57z"/><path fill="#f8eff1" fill-opacity=".412" d="M363.204 565.68l-22.677 40.334-14.51 16.132 13.967-68.922z"/><path fill="#dc3d46" fill-opacity=".447" d="M575.426 996.624l-33.802-95.898-13.487 24.637 7.776 22.822z"/><path fill="#0d0d0e" fill-opacity=".839" d="M78.816 360.61l87.47-145.62 226.925-24.436-.323 53.84z"/><path fill="#130f11" fill-opacity=".804" d="M-38.3 353.652L72.002 835.479l97.289-117.2 47.1-405.291z"/><path fill="#e4fbff" fill-opacity=".369" d="M376.61 188.333l39 126.455 107.935 64.607-80.683-33.807z"/><path fill="#eaeaeb" fill-opacity=".706" d="M550.54 729.532l57.726-44.356-11.765 68.629 17.534-215.665z"/><path fill="#e8fdff" fill-opacity=".361" d="M634.45 301.827l-95.602-27.348-19.984 92.816-74.76-.969z"/><path fill="#f2f5f7" fill-opacity=".604" d="M254.84 667.906l168.7 68.705-216.006-120.792 165.13-302.715z"/><path fill="#550c0f" fill-opacity=".702" d="M494.405 721.164l-142.687-35.736-80.862-65.705 25.34-35.438z"/><path fill="#fff5f0" fill-opacity=".278" d="M597.662 390.135l16.247 147.97-84.116-196.302-73.201 8.821z"/><path fill="#450001" fill-opacity=".341" d="M227.884 848.862l2.248-138.14 173.084 117.627-73.026 54.41z"/><path fill="#e9e9e8" fill-opacity=".725" d="M346.652 258.243L217.93 467.254l25.766-127.867 11.562-16.964z"/><path fill="#512a27" fill-opacity=".416" d="M898 991.402l-152.32-32.25-61.475-261.426.108-92.301z"/><path fill="#fbad86" fill-opacity=".294" d="M558.73 857.007l9.944 34.525 39.693-51.245.86-142.882z"/><path fill="#e9ffff" fill-opacity=".412" d="M388.767 415.818l23.993 25.42 12.417 14.615-56.583-30.454z"/><path fill="#191414" fill-opacity=".784" d="M611.174 505.59l-3.582-54.296 194.832 87.366 47.036 358.685z"/><path fill="#9b9e93" fill-opacity=".592" d="M241.61 723.237l183.17 44.598-170.074-64.678-61.538-3.545z"/><path fill="#252121" fill-opacity=".718" d="M552.449 700.774l-21.929-110.77-12.09 158.863 35.838-20.025z"/><path fill="#422c27" fill-opacity=".827" d="M-36.048 834.99l78.253 4.287 79.687 55.97-21.402 156.214z"/><path fill="#69594c" fill-opacity=".412" d="M539.91 26.116l-54.366-75.244-163.723 168.246 65.397-97.234z"/><path fill="#e6e9e8" fill-opacity=".702" d="M295.779 530.05l-25.128 36.28-55.324-110.595-26.137 102.64z"/><path fill="#eaebec" fill-opacity=".749" d="M533.273 290.546l16.866-20.613 85.996 72.771.131 36.105z"/><path fill="#c3c8c6" fill-opacity=".776" d="M271.69 935.98l249.734 30.555-212.68-92.413 108.398-9.873z"/><path fill="#c12a2e" fill-opacity=".761" d="M536.07 491.446L351.7 387.043l75.247-67.257-75.312-93.768z"/><path fill="#571114" fill-opacity=".737" d="M458.479 673.07l-193.002-41.878 193.693-7.023 36.999-56.002z"/><path fill="#80191a" fill-opacity=".882" d="M514.49 732.583l15.58-131.48-87.254 60.914-27.071 33.192z"/><path fill="#a62427" fill-opacity=".616" d="M400.572 867.492l97.172-28.024-179.904-102.51 87.274 67.967z"/><path fill="#0a1011" fill-opacity=".455" d="M611.822 726.851l.688 95.219 171.494 247.136-178.492-442.094z"/><path fill="#0c0c0e" fill-opacity=".455" d="M898 486.732L517.329-62l68.842 262.677-75.753 29.047z"/><path fill="#d6dada" fill-opacity=".827" d="M351.622 949.817l-210.172-65.32-32.751 96.76L246.613 1086z"/><path fill="#431112" fill-opacity=".957" d="M302.075 543.262l-19.868 93.615 41.442 21.85 14.985-208.265z"/><path fill="#8c0000" fill-opacity=".38" d="M617.02 428.214l1.791-49.946-20.838-36.747-30.584.577z"/><path fill="#baa9a9" fill-opacity=".776" d="M567.291 703.385L520.225 564.38l61.495-7.926-35.555 194.51z"/><path fill="#e0d4d0" fill-opacity=".255" d="M517.85 128.238l16.35-52.6 18.596 4.78 15.142 52.93z"/><path fill="#906139" fill-opacity=".549" d="M369.608 162.867l33.726 50.284 60.927-62.826 100.421 78.417z"/><path fill="#a9adae" fill-opacity=".349" d="M441.462 519.984l29.474-3.7 58.119 9-22.541 36.728z"/><path fill="#f4f9fb" fill-opacity=".471" d="M607.564 504.185l-46.498 99.682 41.141 31.924 14.39-113.462z"/><path fill="#5f100f" fill-opacity=".443" d="M544.921 561.401l-202.974 12.34 166.977-21.92 107.989-144.767z"/><path fill="#d8d5d3" fill-opacity=".788" d="M535.04 826.89l-61.274 247.919 72.595-256.082-23.665-38.3z"/><path fill="#837274" fill-opacity=".812" d="M116.519 548.89l46.122 7.41 69.824-6.614 41.53 14.719z"/><path fill="#e6e8e9" fill-opacity=".639" d="M229.724 646.083l-31.714-54.53 202.513 119.561-20.472 51.012z"/><path fill="#251f1e" fill-opacity=".714" d="M752.61 515.79l-140.116 86.928-5.689 61.243L730.46 795.263z"/><path fill="#2f2522" fill-opacity=".851" d="M169.088 793.888L-62 796.817l52.139-76.09 167.71 120.62z"/><path fill="#570002" fill-opacity=".459" d="M461.482 602.266l18.601-70.975-22.069-6.111 5.547 3.424z"/><path fill="#720008" fill-opacity=".349" d="M486.55 402.601L342.483 202.803l69.96 140.05 91.445 34.531z"/><path fill="#8f4a45" fill-opacity=".239" d="M579.887 1007.949l67.664-136.784 61.675 211.208L539.03 921.885z"/><path fill="#6b442f" fill-opacity=".569" d="M368.187 763.286l107.037 57.707 102.697-106.874 50.253 19.944z"/><path fill="#312b17" fill-opacity=".337" d="M204.148 42.635L537.03 279.069 416.658 128.316l318.854 68.816z"/><path fill="#6f1114" fill-opacity=".624" d="M453.36 431.767l-8.324 179.177-42.306-150.26-7.36 145.683z"/><path fill="#f7fcfc" fill-opacity=".325" d="M407.459 572.147l-31.094 51.844 7.278-49.452 32.183 52.196z"/><path fill="#b1161b" fill-opacity=".4" d="M380.432 503.123l183.539-4.601-7.72-114.888-27.123-24.355z"/><path fill="#efefef" fill-opacity=".529" d="M164.436 801.633l-1.614 51.734 137.5 22.102-97.47 47.421z"/><path fill="#eaefee" fill-opacity=".569" d="M313.405 367.87l-35.67 141.248 71.651-76.135 10.598-100.491z"/><path fill="#efeeef" fill-opacity=".553" d="M310.687 273.673l-62.37 62.089-15.859 88.835 137.918-164.31z"/><path fill="#f4f5f7" fill-opacity=".341" d="M349.339 928.44l98.456-80.127 91.865 22.015 38.084 38.225z"/><path fill="#dfedec" fill-opacity=".251" d="M462.54 622.722l-33.753-44.052-6.517 49.197 75.793-32.185z"/><path fill="#621819" fill-opacity=".969" d="M396.065 645.118l124.862-37.816-136.655 75.612 30.916-230.577z"/><path fill="#1f1617" fill-opacity=".996" d="M198.16 713.565l-35.148-5.361 43.512-249.607-160.627-32.894z"/><path fill="#dddede" fill-opacity=".871" d="M665.027 1086H639.25l-272.173-79.883 162.129-56.577z"/><path fill="#181115" fill-opacity=".416" d="M299.5 351.317l-10.376-22.115-259.19-30.439 170.712-26.401z"/><path fill="#5f1718" fill-opacity=".867" d="M450.488 562.476L430.749 718.99l8.839-134.456-81.414-134.636z"/><path fill="#ecf6eb" fill-opacity=".173" d="M179.081 697.028l232.387 48.66 79.411-16.287-107.612-33.929z"/><path fill="#fffbfe" fill-opacity=".188" d="M390.587 587.831l77.434 5.661-109.643-31.662-4.716 1.392z"/><path fill="#010202" fill-opacity=".439" d="M368.997 1002.354l23.654 66.353L306.967 1086l68.313-93.732z"/><path fill="#f1f9fa" fill-opacity=".4" d="M634.963 404.284l3.244-71.54-31.893-41.569-3.467 41.898z"/><path fill="#ebedec" fill-opacity=".604" d="M431.936 335.225l49.895 33.274 27.52-20.158-47.695-5.326z"/><path fill="#c0b4b6" fill-opacity=".933" d="M497.624 360.56l4.388 24.275 28.843-27.509 12.115-39.77z"/><path fill="#fafafc" fill-opacity=".353" d="M331.329 614.968l33.618-2.617-10.806-4.36-20.716-6.873z"/><path fill="#131111" fill-opacity=".714" d="M551.83 276.834l17.898 5.343L673.66 320.14 609.306-1.75z"/><path fill="#dbb4a7" fill-opacity=".231" d="M548.892 234.647l-14.895 107.86 35.077-168.45-37.575-37.38z"/><path fill="#b5b9b7" fill-opacity=".694" d="M473.81 905.255l-45.4 22.9-152.61 70.721 96.87-24.32z"/><path fill="#d54045" fill-opacity=".663" d="M359.56 368.242l42.474-29.956L446.62 485.48l2.896-28.496z"/><path fill="#d5373d" fill-opacity=".769" d="M514.193 472.88l35.471-63.424 32.058-31.7-39.925-56.278z"/><path fill="#9d2d45" fill-opacity=".306" d="M842.01 890.031l-53.856 21.948-56.959-27.892 58.872-37.58z"/><path fill="#501618" fill-opacity=".722" d="M265.957 625.082l39.704-25.432 124.078 41.366-81.148 42.19z"/><path fill="#edf0ef" fill-opacity=".604" d="M367.86 314.696L223.113 404.4l91.232 25.677 89.937-112.336z"/><path fill="#941d1f" fill-opacity=".42" d="M218.878 715.433l-26.382 134.49L272.4 870.49l-33.044-161.195z"/><path fill="#a88a83" fill-opacity=".667" d="M541.557 785.513l72.57-401.909-67.76 384.727-81.754-61.397z"/><path fill="#1c0901" fill-opacity=".38" d="M499.135 748.822l73.182 72.522-25.715 31.626 3.555-35.716z"/><path fill="#471012" fill-opacity=".714" d="M449.007 577.892L321.122 453.5l-5.15 203.085 19.295-100.36z"/><path fill="#edfdfe" fill-opacity=".365" d="M457.93 501.621l-4.947 45.585-1.685 60.868 3.554 7.815z"/><path fill="#0f0f10" fill-opacity=".714" d="M249.528 133.463l162.982 83.745-463.455 275.66L233.87 386.284z"/><path fill="#f1f8fb" fill-opacity=".443" d="M611.972 705.056l-25.778-161.92 7.29 136.608 11.574 80.941z"/><path fill="#0d0c0d" fill-opacity=".58" d="M780.268 261.194L620.256 409.348l-12.269 88.247 225.589 63.445z"/><path fill="#ffbeb3" fill-opacity=".322" d="M610.692 532.41l-25.93-59.618 15.14-89.637-45.492 24.666z"/></svg>