<svg xmlns="http://www.w3.org/2000/svg" width="228" height="278" viewBox="0 0 836 1024"><path fill="#272528" d="M0 0h836v1024H0z"/><g fill-opacity=".502"><path fill="#d7c9c8" d="M750 454l44 412L318 18z"/><path fill="#cbc7c9" d="M-62 222l676 112-472 52z"/><path fill="#ffd8a5" d="M374 298l-72-192 128-40z"/><path d="M818-62L470 198l428 336zM-62 710l644 376-204-772z"/><path fill="#6db0cf" d="M626 1086l124-96-4-364z"/><path fill="#020207" d="M418 1086l236-472-132-324z"/><path fill="#fff" d="M486 486l-32-48 52-28z"/><path d="M494-46l404 872L846-2zM18-62L402 58-62 254z"/><path fill="#d9d3d8" d="M770 574L462 246l212 104z"/><path d="M634 810l16 88 232-40z"/><path fill="#000002" d="M-62 322l356 116-272 648z"/><path fill="#b47051" d="M306 182l224-76-52 216z"/><path fill="#b2a5a7" d="M786 846l4-272-96 224z"/><path fill="#010000" d="M342-62L-62 202l340 92z"/><path fill="#c7c5cb" d="M110 342l-20-84 268 52z"/><path fill="#080000" d="M458 266L314 402l136-236z"/><path d="M870 434L510 258l60-320z"/><path fill="#f2d5bb" d="M446 266l100 44-136 56z"/><path fill="#080812" d="M58 1086l84-756 464 624z"/><path fill="#6d6b6e" d="M594 706l-32 380 76-208z"/><path fill="#b8a68f" d="M550-34L274 66 454-62z"/><path fill="#96959d" d="M326 322l-32 96-316-208z"/><path fill="#000015" d="M718 982l156-408 24 496z"/><path fill="#000001" d="M570 398l-176-8 140-68z"/><path fill="#2e9ad7" d="M746 1078l-24-188-140 188z"/><path fill="#4c5841" d="M306 446l8 96 224 20z"/><path d="M618 1018l92-164-52-252z"/><path fill="#c6deed" d="M462 486l8-84h48z"/><path fill="#b2ff91" d="M702 898l52 28-80 32z"/><path fill="#b2b2bd" d="M722 574l48 240-72 12z"/><path fill="#5e5d65" d="M606 538l-24 284 60-124z"/><path d="M-34-14l472-8-500 216zm752 432l180 68v416z"/><path fill="#050000" d="M638-14l260-32-392 356z"/><path fill="#606166" d="M262 402L-62 210v108z"/><path fill="#b18169" d="M522 154l-208-48 24 188z"/><path fill="#0c0a0d" d="M94 254l284-32-144 64z"/><path fill="#230f06" d="M530 162L342 294l76 12z"/></g></svg>