<svg xmlns="http://www.w3.org/2000/svg" width="228" height="278" viewBox="0 0 836 1024"><path fill="#7f7e4c" d="M0 0h836v1024H0z"/><g fill-opacity=".502"><path fill="#ffff1e" d="M382 58l316 824-404 92z"/><path fill="#000026" d="M870 842l-44 244-516-96z"/><path fill="#00000b" d="M898 142L806-62 78 54z"/><path fill="#16327a" d="M14 194l-76 716 408 20z"/><path fill="#f5ea2b" d="M606 174L382 726 70 498z"/><path fill="#d0e9ff" d="M26 1086l-88-220 444 124z"/><path fill="#000021" d="M778 366L642 670 502 390z"/><path fill="#919ecc" d="M878 118l20 224L70 98z"/><path fill="#251c2b" d="M-54 242l544-24L86 478z"/><path fill="#00000d" d="M-62 118l372-60L38-62z"/><path fill="#ffef00" d="M450 238l240 172 52-124z"/><path fill="#ffc521" d="M630 730l192-392 76 152z"/><path fill="#f6de2a" d="M686 650l-368 396 96-512z"/><path fill="#99a9d4" d="M-62 202l280 60L58 78z"/><path fill="#1c2d68" d="M898 994V418L734 722z"/><path fill="#1c2609" d="M338 778L154 534l-92 56z"/><path fill="#000f33" d="M898 838l-208 248-292-132z"/><path fill="#cba54e" d="M526 514l316 352-180 4z"/><path fill="#fcfd49" d="M118 534l228 16-136-188z"/><path fill="#9ca5b8" d="M278 118l32 136 436-92z"/><path fill="#62351c" d="M334 486L194 310 250-6z"/><path fill="#627ba3" d="M350 966L86 774-62 934z"/><path fill="#566831" d="M442 538l28-92-236 164z"/><path fill="#ffff65" d="M338 886l24 92 192-92z"/><path fill="#2a3787" d="M466 362l-84 36 56 28z"/><path fill="#222500" d="M534 450l224-48-228-72z"/><path fill="#000014" d="M898 102l-272-4L782-62z"/><path fill="#c7d2ee" d="M158 938l-220 72 568 72z"/><path fill="#1e2b36" d="M82 602l96-328-124-16z"/><path fill="#000006" d="M698 434l52-144 16 52z"/><path fill="#ebe12c" d="M558 214l-40 220-184-128z"/><path fill="#b5748c" d="M714 626l-156 36 168 148z"/><path fill="#fffe33" d="M666 870L354 970l216-184z"/><path fill="#8b675d" d="M374-62L162 158l164 156z"/><path fill="#170800" d="M110 170l160-8 8-52z"/><path fill="#f7b61a" d="M742 594l112-240-84-32z"/><path fill="#423c00" d="M294 430l-88-52 156-132z"/><path fill="#937d00" d="M450 706l180-44-4 64z"/><path fill="#bdbb00" d="M802 874l-44-92-276 92z"/><path fill="#000f3a" d="M710 594L530 334l60 248z"/></g></svg>