<svg xmlns="http://www.w3.org/2000/svg" width="228" height="278" viewBox="0 0 836 1024"><path fill="#8a5139" d="M0 0h836v1024H0z"/><g fill-opacity=".502"><path fill="#ffd444" d="M438 262l440 824H314z"/><path fill="#001a33" d="M-34 634L-62-14l636-48z"/><path fill="red" d="M306 1086l148-844-280 164z"/><path fill="#001528" d="M514-62l284 980L898 2z"/><path fill="#950019" d="M486 1086l232-416-72-428z"/><path fill="#c7d3fe" d="M786 1086L550 902l348-60z"/><path fill="#ffd229" d="M406 342l-36 744 304-704z"/><path fill="#002132" d="M34 730l140 152 104-388z"/><path fill="#d8e3d7" d="M-62 922l256-64-72 196z"/><path fill="red" d="M294 1086l136-616-256 460z"/><path fill="#f8e2fa" d="M198 438L-10 682 90 470z"/><path fill="#a10045" d="M286 630l464 20-304-104z"/><path fill="#fffb04" d="M330 866l140 220 96-476z"/><path fill="#e9cba9" d="M542 62L406 206h184z"/><path fill="#262526" d="M634 538l64 372-144-96z"/><path fill="#ff001d" d="M534 818l128 268H502z"/><path fill="#ff013f" d="M686 642L546 314l148 100z"/><path fill="#00141f" d="M554 306l148 100-112-288z"/><path fill="#ff7" d="M398 306l32 220 172-76z"/><path fill="#fe0022" d="M86 546l344 48-28-304z"/><path fill="#081d25" d="M130-62L-62 678l260-308z"/><path fill="#ffc1a8" d="M302 330l-92 12-92 144z"/><path fill="#ce7742" d="M102 502l-84 584-80-252z"/><path fill="#f10000" d="M202 1086l76-640 84 380z"/><path fill="#395358" d="M438 266L166 366l-8-388z"/><path fill="#cd978e" d="M766 974l-164 112 108-436z"/><path fill="#caaab8" d="M318 630h228l-216-60z"/><path fill="#fff94c" d="M318 994l36-124 192 144z"/><path fill="#180000" d="M166 1006l60 68-24-236z"/><path d="M510 18L370 78l196-4z"/><path fill="#ffe200" d="M398 630l148 40-228 356z"/><path fill="#54331d" d="M434 350L286 134l280 232z"/><path fill="#f1ca72" d="M578 330L322 478l296 12z"/><path fill="#162c2f" d="M46 774l260-324-176 436z"/><path fill="#c90000" d="M622 614L218 462l156 128z"/><path fill="#263433" d="M898 794L702 238l44 628z"/><path fill="#d7ffff" d="M174 430l-76 64 68 16z"/><path fill="#152025" d="M482 314l388-192-8 256z"/><path fill="#ff022f" d="M330 306L166 438l260 24z"/><path fill="#9bbfcf" d="M674 882l-104-36 100 240z"/></g></svg>