<svg xmlns="http://www.w3.org/2000/svg" width="228" height="278" viewBox="0 0 836 1024"><path fill="#8a705e" d="M0 0h836v1024H0z"/><g fill-opacity=".502"><path fill="#001130" d="M482 1086l416-912L70 470z"/><path fill="#ffd896" d="M778-62L-62 6l4 580z"/><path fill="#fff6a6" d="M894 1014l-388 72 316-536z"/><path fill="#ffcb81" d="M30 150l-92 844 252 92z"/><path fill="#181431" d="M250 1062L102 586l404 228z"/><path fill="#ffd090" d="M594-62l96 432-164-60z"/><path fill="#000004" d="M758 610l140-436-232 4z"/><path fill="#ed2a4e" d="M78 1086l152-164-32-436z"/><path fill="#fff" d="M306 1066l56-128 136 148z"/><path fill="#ffb269" d="M898 682L666 562l20 524z"/><path fill="#371812" d="M518 310L406 130l-68 248z"/><path fill="#fff" d="M670 922l-92 164-8-188z"/><path fill="#040204" d="M222 1086l-84-424 192 384z"/><path fill="#112329" d="M370 950l184 96 116-672z"/><path fill="#5c7180" d="M230 334l248 472 100-376z"/><path fill="#e5aa5d" d="M510 138l388 12-88-212z"/><path fill="#fff1ff" d="M446 94l112-36L386-62z"/><path fill="#0c131d" d="M394 582l-92 132-192-356z"/><path fill="#ffbde6" d="M106 386l232-252-28 184z"/><path fill="#ffbc7a" d="M26 1086l-40-808 172 500z"/><path fill="#273a54" d="M410 762l260-76-12 236z"/><path fill="#f97599" d="M142 566l76 204-24-300z"/><path fill="#ff1d43" d="M226 910l-112 176 48-272z"/><path fill="#204151" d="M178 778l-28-456-64 184z"/><path fill="#2b2a33" d="M710 618l-32-272 220 196z"/><path fill="#ff614d" d="M642 1022l28-232 96 296z"/><path fill="#dfa551" d="M374-2L94 422-62-58z"/><path fill="#f9cf86" d="M2 286l88 280 52-428z"/><path fill="#7c7492" d="M366 954L198 630l40 264z"/><path fill="#fff" d="M658 1086l-28-196-64 32z"/><path fill="#c4d6d5" d="M394 602l124 28 20-44z"/><path fill="#a698a3" d="M530 386l188-80-244-88z"/><path fill="#fff" d="M326 998l60-36 80 96z"/><path fill="#a46569" d="M514 86L370 326 342 58z"/><path fill="#faeb11" d="M474 734l36-28-116 16z"/><path fill="#c5dad7" d="M510 654l-120 12 116 24z"/><path fill="#2d3e50" d="M410 594l-96-336 328 312z"/><path fill="#1a1b0a" d="M450 430l60-132-96-96z"/><path fill="#ffc17e" d="M666 858l232-364-100 592z"/><path fill="#515578" d="M330 302l68 148H98z"/></g></svg>