<svg xmlns="http://www.w3.org/2000/svg" width="228" height="278" viewBox="0 0 836 1024"><path fill="#695529" d="M0 0h836v1024H0z"/><path fill="#d4b438" fill-opacity=".949" d="M633.909 1030.316l26.888-713.152L387.92 252.8l74.012 833.2z"/><path fill="#000118" fill-opacity=".69" d="M898 404.412L504.979 274.665 434.803-9.71 847.141-62z"/><path fill="#110915" fill-opacity=".706" d="M104.794 472.252L31.71 1085.356-62 15.108 400.095-62z"/><path fill="#d1b03c" fill-opacity=".871" d="M130.889 421.547L628.273 304.18l223.598 223.131L297.12 554.55z"/><path fill="#c6a68d" fill-opacity=".847" d="M898 262.194L797.122 891.645 700.008 787.34l76.53-68.996z"/><path fill="#1c161c" fill-opacity=".757" d="M453.007 493.363l32.014 140.946L-62 848.85 176.14 1086z"/><path fill="#c1ae98" fill-opacity=".78" d="M444.738 65.2l11.823 438.472 99.45-14.208L302.063 45.177z"/><path fill="#f4d239" fill-opacity=".71" d="M516.48 1086h228.186l-99.443-305.988-104.126-489.597z"/><path fill="#11071c" fill-opacity=".592" d="M754.555 747.302l4.734-187.593-136.394-75.049 23.514 336.055z"/><path fill="#a06b00" fill-opacity=".424" d="M578.818 835.517l-351.23-472.373-101.534 10.893 299.256 679.771z"/><path fill="#0a0513" fill-opacity=".616" d="M275.223 166.199l-109.99 200.083 277.229-110.63-47.174 58.053z"/><path fill="#fff28f" fill-opacity=".506" d="M670.812 326.053L352.57 240.536l258.862 118.19 244.986 228.383z"/><path fill="#372b0c" fill-opacity=".851" d="M477.948 619.128l3.963-80.536-184.195 29.686 22.563 99.397z"/><path fill="#1d172d" fill-opacity=".541" d="M266.095 667.675L335.641 1040 11.79 1084.416l-68.84-267.558z"/><path fill="#1e1015" fill-opacity=".643" d="M898 437.944l-27.627 120.483L650.26 308.183 783.974-43.35z"/><path fill="#26193d" fill-opacity=".412" d="M714.577 932.329l-152.779 5.167L898 810.611 705.41 1086z"/><path fill="#dac9ff" fill-opacity=".176" d="M720.064 187.333L636.21 55.971 398.795 265.867 376.99 150.76z"/><path fill="#1a120e" fill-opacity=".725" d="M-62-45.774l477.864 189.917-2.917-40.006L-62 292.17z"/><path fill="#f7df46" fill-opacity=".588" d="M299.507 493.088L457.86 284.233l172.807 19.8-37.338 64.846z"/><path fill="#703b00" fill-opacity=".545" d="M798.213 549.644L600.78 461.66l-13.403 37.943 46.562 55.451z"/><path fill="#1c0100" fill-opacity=".322" d="M262.61 317.97l49.692 113.69 197.696-298.78 42.92 67.928z"/><path fill="#f9ea52" fill-opacity=".537" d="M637.95 571.415l-171.836-31.08 247.202 427.087-77.37-204.623z"/><path fill="#cda418" fill-opacity=".463" d="M536.512 563.759L385.429 365.002l-182.884-13.62-102.06 98.486z"/><path fill="#c6a78d" fill-opacity=".631" d="M876.164 546.198l-124.87-113.065-6.876-20.3L898 911.296z"/><path fill="#ffded6" fill-opacity=".412" d="M425.261 52.785l-77.9 15.135 135.684 91.015-36.162 76.536z"/><path fill="#6b89fa" fill-opacity=".443" d="M468.413 503.837l-11.077-79.206 62.654-14.48 5.486 84.64z"/><path fill="#8d5f0a" fill-opacity=".875" d="M161.165 392.625l15.412 73.472-2.143 177.49-103.876-32.114z"/><path fill="#2f262b" fill-opacity=".941" d="M802.092 801.088l11.765 131.09L898 1026.462l-52.957-328.087z"/><path fill="#654600" fill-opacity=".702" d="M251.305 689.086L375.503 1086l31.01-261.89-241.977-361.5z"/><path fill="#422f2c" fill-opacity=".604" d="M128.278 424.72L407.655-62 29.431 359.6l67.401 211.685z"/><path fill="#ffdcd1" fill-opacity=".31" d="M797.365 706.526l7.097 178.767-43.382-58.928-99.873 35.4z"/><path fill="#99730c" fill-opacity=".655" d="M467.277 619.763L316.814 684.66l151.026 331.383-29.46-467.646z"/><path fill="#ebbcbc" fill-opacity=".494" d="M114.686 669.263l44.658 2.828 8.04 85.05 18.353-12.56z"/><path fill="#d4d2ff" fill-opacity=".604" d="M669.684 370.834l-17.834-52.697 75.725 83.907-21.588 4.78z"/><path fill="#181312" fill-opacity=".761" d="M550.428-49.117l-100.147 308.26 209.88 59.07-112.89-173.333z"/><path fill="#d6a609" fill-opacity=".475" d="M517.105 345.2l215.871 70.566-36.854 131.766-114.428-102.599z"/><path fill="#3a2d1f" fill-opacity=".953" d="M486.941 56.271l19.574-93.737L87.565-62l62.89 85.554z"/><path fill="#5a3f2b" fill-opacity=".847" d="M18.256 707.824L77.66 594.678l101.546 170.587-32.932 13.618z"/><path fill="#483c3a" d="M873.7 1024.271l-.145-80.636-172.38-51.836 15.072 183.132z"/><path fill="#3c1801" fill-opacity=".612" d="M165.814 666.29l-197.872-13.648 247.3-27.507-30.57-141.915z"/><path fill="#24203e" fill-opacity=".992" d="M-56.955 883.092L-62 1086H51.948l113.619-147.56z"/><path fill="#575070" fill-opacity=".596" d="M628.183 949.708l-53.854-18.782 4.113-22.797 50.507 16.936z"/><path fill="#896d73" fill-opacity=".486" d="M365.429 152.471l32.244 212.912 30.832-35.126 12.17-87.377z"/><path fill="#e4ae17" fill-opacity=".455" d="M327.253 1015.323l149.876-74.473 5.264-438 133.815 398.352z"/><path fill="#090b00" fill-opacity=".267" d="M71.301 900.237L40.531 770.33l390.359-2.13-272.94 150.5z"/><path fill="#1e1a21" fill-opacity=".761" d="M648.347 513.706l-10.16 163.929 122.978 9.708 2.79-76.288z"/><path fill="#fceb56" fill-opacity=".694" d="M744.875 436.984l10.397 70.871-118.11-66.073L783.69 470.94z"/><path fill="#fce3cc" fill-opacity=".388" d="M463.825 188.51l-17.262-43.916-95.713 1.228 133.968 69.765z"/><path fill="#f0ce35" fill-opacity=".275" d="M274.895 597.025l-5.265-197.792 178.462 19.998-15.922 48.6z"/><path fill="#cfa91e" fill-opacity=".788" d="M315.187 506.185l-1.622-46.833 218.565 122.68 76.227-85.527z"/><path fill="#4a2d1c" fill-opacity=".541" d="M183.129 844.508l51.33-346.841 77.063-19.735-147.68 83.992z"/><path fill="#ffed5c" fill-opacity=".533" d="M707.51 964.729L712.446 1086l-43.959-97.58 18.74-92.582z"/><path fill="#4e1a26" fill-opacity=".82" d="M782.967 329.957l-101.36-15.002 40.753 91.804 52.988 28.304z"/><path fill="#ffecb3" fill-opacity=".361" d="M503.123 332.252l-94.252-6.46 12.952-33.43 24.514-49.752z"/><path fill="#885400" fill-opacity=".42" d="M203.71 355.75l101.65-61.032 55.432 112.606-88.892 11.572z"/><path fill="#bdc9ed" fill-opacity=".776" d="M463.507 435.934l17.073 41.001 44.545-13.392 1.01-38.247z"/><path fill="#040408" fill-opacity=".361" d="M246.398 263.892l84.19 94.06 111.943-102.717-315.196 120.202z"/><path fill="#403b63" fill-opacity=".565" d="M512.651 485.98l-70.613 1.296 60.992 16.752 40.985-25.357z"/><path fill="#05191c" fill-opacity=".204" d="M449.305 588.178l43.886 92.704-100.593 19.75 116.203-108.181z"/><path fill="#3a2e28" fill-opacity=".729" d="M90.592 193.308l102.594 116.501 149.67-84.896 81.4-20.002z"/><path fill="#856045" fill-opacity=".569" d="M680.444 815.379l117.987 38.225-30.48 107.853-36.05-177.693z"/><path fill="#fef35f" fill-opacity=".494" d="M573.104 527.18l43.443 20.032 25.525 218.594-37.313 105.143z"/><path fill="#7c361e" fill-opacity=".349" d="M750.704 500.223l9.338 253.47 41.453-71.479 13.844-89.974z"/><path fill="#44352d" fill-opacity=".914" d="M637.272 700.582l97.279 16.06-68.284 127.56-21.339-41.971z"/><path fill="#503d47" fill-opacity=".761" d="M212.254 576.05l-34.66 95.732 77.032 53.744-25.652-120.604z"/><path fill="#120d10" fill-opacity=".506" d="M-13.67 798.706l-46.757-129.294L20.24-61.075l40.51 678.948z"/><path fill="#edc92b" fill-opacity=".322" d="M473.031 655.176L321.663 683.25l-37.607-2.278 158.347-37.597z"/><path fill="#3c3659" fill-opacity=".337" d="M540.603 199.846l5.158-113.248 142.451-18.456 5.463 151.348z"/><path fill="#1b170e" fill-opacity=".769" d="M386.836 662.36l57.605-80.523 16.496 7.23-54.577 62.423z"/><path fill="#75543c" fill-opacity=".749" d="M312.31 60.198l-25.976 51.078 179.202.812-115.882 13.74z"/><path fill="#bf9211" fill-opacity=".62" d="M228.408 520.408L369.53 501.81l34.513 22.015-48.005 46.767z"/><path fill="#9f8a76" d="M349.735 222.498l104.072 28.86-2.144-104.613-8.83 71.78z"/><path fill="#000107" fill-opacity=".431" d="M293.087 648.404l95.5-104.544-38.848 114.005 95.35-99.402z"/><path fill="#45383a" fill-opacity=".412" d="M342.052 1003.864l-75.766-292.69-9.8 191.994L69.65 1003.491z"/><path fill="#d57a05" fill-opacity=".275" d="M575.048 859.963l156.098 33.652-320.707 47.503 30.135 102.134z"/><path fill="#f2cf3e" fill-opacity=".616" d="M509.797 955.36l71.574-9.502 120.423 31.355-286.392 77.018z"/><path fill="#fecac7" fill-opacity=".184" d="M73.86 695.127l98.326 11.215 7.667 76.51-48.486-127.536z"/><path fill="#061116" fill-opacity=".353" d="M712.414 918.907l81.485 142.636 104.101-7.29-190.009-22.053z"/><path fill="#fffdf0" fill-opacity=".235" d="M783.444 760.714l-89.179 47.21 1.38-26.916 106.134 84.711z"/><path fill="#eed44a" fill-opacity=".682" d="M360.29 380.577l182.536 42.4 18.054-132.36-53.479-8.452z"/><path fill="#5d2a00" fill-opacity=".506" d="M650.588 540.482l-39.941-77.19-16.82 52.584 47.85 25.298z"/><path fill="#131212" fill-opacity=".859" d="M509.07-45.475L898 13.091 569.554 58.212l-101.24 166.506z"/><path fill="#412a2d" fill-opacity=".608" d="M46.09 325.486l134.935 35.704L75.68 470.253-1.342 456.71z"/><path fill="#645f86" fill-opacity=".627" d="M520.47 425.805l-81.427 2.85 83.218-17.132 13.843 20.156z"/><path fill="#7a5401" fill-opacity=".541" d="M322.17 1035.525l90.202-1.58 9.934-245.948-73.309-52.543z"/><path fill="#feee4d" fill-opacity=".541" d="M609.612 295.92l72.675 97.09-52.821 2.22-52.834-76.534z"/><path fill="#1d0e10" fill-opacity=".204" d="M792.776 516.031l-62.004.895L625.32 683.91l137.747 29.915z"/><path fill="#f6d738" fill-opacity=".392" d="M626.77 859.7l67.864 35.589-200.847-328.263-15.642 84.052z"/><path fill="#d4d1ff" fill-opacity=".525" d="M724.773 411.156l-35.884-66.808-27.986 13.73 56.192 52.943z"/><path fill="#13110f" fill-opacity=".682" d="M898 186.828L458.032 265.03l34.036 15.89 345.058 7.985z"/><path fill="#ffd9d9" fill-opacity=".243" d="M312.85 97.151l101.735-50.11 43.783 50.363-147.664 7.336z"/><path fill="#bd8f0f" fill-opacity=".557" d="M747.896 456.773l-188.883-7.487 177.765 79.072-99.9-111.505z"/><path fill="#b78001" fill-opacity=".471" d="M615.253 959.393l50.961-110.78 9.582 49.904 13.691 27.996z"/><path fill="#dabb9d" fill-opacity=".369" d="M476.974 136.259l-128.19 60.655 113.248 12.617 11.778-11.182z"/><path fill="#a68719" fill-opacity=".741" d="M456.45 580.11l-24.273-14.26 108.73-65-82.504 48.2z"/><path fill="#301a17" fill-opacity=".329" d="M588.867 148.322l-214.308-41.25 12.46 39.483 50.646-14.95z"/><path fill="#35251a" fill-opacity=".667" d="M18.605 706.659l87.184 31.506L-62 1058.599v21.27z"/><path fill="#ffb1c3" fill-opacity=".157" d="M366.662 107.624l29.18 64.304-117.102-41.97 44.498 69.855z"/><path fill="#956f0a" fill-opacity=".718" d="M165.712 385.077l49.833 157.71 50.915-18.02 104.86 255.377z"/><path fill="#c5a225" fill-opacity=".82" d="M274.586 675.178l172.141-12.34 165.748-130.502-122.297 110.448z"/><path fill="#5c3b21" fill-opacity=".788" d="M720.296 799.448l-28.132 82.99 148.355 25.6-108.39 5.987z"/><path fill="#c1981b" fill-opacity=".318" d="M384.091 452.218l27.921 245.413-33.676-122.712 106.543-65.695z"/><path fill="#4b4749" fill-opacity=".494" d="M453.43 159.155l-12.765-48.566-7.038-137.017 33.39 107.557z"/><path fill="#0d0d0c" fill-opacity=".612" d="M462.493 648.019l-144.734-82.27.778-8.823 153.379 77.296z"/><path fill="#fef56b" fill-opacity=".62" d="M766.791 451.38l-10.246-13.351-93.86-18.17 125.358 58.172z"/><path fill="#b08c1d" d="M340.949 647.739l10.495-14.583 250.52 154.797-270.57-165.901z"/><path fill="#080904" fill-opacity=".357" d="M238.874 214.356l51.157-99.032L6.627 171.155 44.063 3.412z"/><path fill="#ccab25" fill-opacity=".341" d="M177.209 367.926l-34.784 35.627 98.753 70.433.427-140.36z"/><path fill="#340a00" fill-opacity=".141" d="M296.649 585.532L109.663 470.79l72.302 104.584 242.516 141.73z"/><path fill="#c69971" fill-opacity=".294" d="M808.307 655.863L634.417 898.26 898 652.551 755.323 468.673z"/><path fill="#e3c843" fill-opacity=".608" d="M320.673 410.85l-47.96 51.902 125.952 9.04 79.355-63.904z"/><path fill="#cba113" fill-opacity=".612" d="M545.428 702.02l-126.083-10.777-25.336 25.288 133.83 39.718z"/><path fill="#080906" fill-opacity=".412" d="M26.384 871.914l161.06 36.23 43.782-118.683 66.474-48.317z"/><path fill="#442915" fill-opacity=".925" d="M170.191 667.443l-93.941-69.65 32.993 313.17-26.62-259.547z"/><path fill="#aa92b4" fill-opacity=".267" d="M898 580.347V542.08l-148.087-20.303 34.208-73.651z"/><path fill="#312219" fill-opacity=".576" d="M379.182 167.874l-50.365 44.397 31.5-85.904L-62-49.192z"/><path fill="#ad841a" fill-opacity=".443" d="M70.95 594.7l77.342 39.275-31.648-106.478 23.54-33.823z"/><path fill="#bd937e" fill-opacity=".596" d="M126.249 680.293l50.41-16.28 25.34 3.76-58.302 16.261z"/><path fill="#2f2322" fill-opacity=".816" d="M663.38 797.836l42.364-33.512-32.101 81.894-24.564-43.984z"/><path fill="#bc8e22" fill-opacity=".882" d="M353.13 1039.559L323.104 1086l122.487-88.834 115.227-17.196z"/></svg>