<svg xmlns="http://www.w3.org/2000/svg" width="228" height="278" viewBox="0 0 836 1024"><path fill="#442729" d="M0 0h836v1024H0z"/><g fill-opacity=".502"><path fill="#c9977f" d="M678 610L382 22 106 626z"/><path d="M-62-30l368-32-316 1148z"/><path fill="#cc0c12" d="M258 674l436 320-480 92z"/><path fill="#090004" d="M818-62L390 462l508 112z"/><path fill="#e7b395" d="M590 678l128-268-260 172z"/><path fill="#fff5d4" d="M150 694l-24-120 140-200z"/><path fill="#0f070c" d="M290 418l128 168-444 500z"/><path fill="#b99e8e" d="M250 530L498 30l28 284z"/><path fill="#fad4b4" d="M250 462l-44-220 80-12z"/><path fill="#000507" d="M834 238L34-26l864-36z"/><path d="M218 50l116 328 28-124z"/><path fill="#660002" d="M638 662l-412 8 360 416z"/><path fill="#7c0505" d="M646 522L346 422l336-92z"/><path fill="#000f18" d="M-34 1086l256-88L-2 98z"/><path fill="#071425" d="M614 918l284-44L778-62z"/><path fill="#d0b197" d="M510 106L366 330l-12-220z"/><path fill="#db353a" d="M374 978L250 646l-20 368z"/><path fill="#ff77b2" d="M778 1086l120-144-100-8z"/><path fill="#f8fdff" d="M338 318l68 88 80-60z"/><path fill="#4a1d05" d="M466 154l24 164-92 28z"/><path fill="#e1b692" d="M314 406l88 144 180 24z"/><path fill="#000611" d="M498 266L674-62l88 440z"/><path fill="#ec906e" d="M702 414l-44-80v232z"/><path fill="#ca282c" d="M658 1058L542 806l60-100z"/><path fill="#4f0000" d="M330 342l200 168-176-80z"/><path fill="#000d16" d="M-26-54L74 414 426 14z"/><path fill="#2c395a" d="M774 666l112 232-264 188z"/><path fill="#d5ab94" d="M498 242l44-76-216 40z"/><path fill="#220800" d="M482 202v-44l-112 12z"/><path fill="#1a0000" d="M598 738l-400-92 296-28z"/><path fill="#d5edf9" d="M646 522l-96-12 112 72z"/><path fill="#a30110" d="M162 434l80-64-72 152z"/><path fill="#d5b49d" d="M258 250l116 208-152-140z"/><path fill="#1e0000" d="M242 610l40-196 28 348z"/><path fill="#000001" d="M174 134l100-44 96 208z"/><path fill="#9ea5a8" d="M406 562l-112 20-8-36z"/><path fill="#c8d3e5" d="M430 382l76-112 36 28z"/><path fill="#fdddc3" d="M334 210l44-100 8 140z"/><path fill="#530003" d="M494 518l-92-72 272 40z"/><path fill="#f9c24d" d="M534 414l-32 76-4-64z"/></g></svg>