<svg xmlns="http://www.w3.org/2000/svg" width="228" height="278" viewBox="0 0 836 1024"><path fill="#885060" d="M0 0h836v1024H0z"/><g fill-opacity=".502"><path fill="#9a001f" d="M-6 486l660-236-12 836z"/><path fill="#cfffff" d="M338-62L90 562l12-616z"/><path fill="#8ab3a4" d="M878 634L286-58l560 92z"/><path fill="#8a0021" d="M194 1026l424-668 72 680z"/><path fill="#cdd9b7" d="M90 598l180 316-188 172z"/><path fill="#004539" d="M90 1086L78 254-62 798z"/><path fill="#00170c" d="M186 1018l692 68-212-148z"/><path fill="#c2eabe" d="M766 518l36 568 84-224z"/><path fill="#1c0100" d="M774 762L570 498l92-132z"/><path fill="#e5e3b1" d="M678 1046l56-212-72-224z"/><path fill="#cd0052" d="M134 398l132-136 368 348z"/><path fill="#e70055" d="M418 982l204-360 68 308z"/><path fill="#0b4840" d="M314 618L190 858V454z"/><path fill="#ff0068" d="M670 306L438 426l52-196z"/><path fill="#9ca08c" d="M266 1086l-24-528-140 176z"/><path fill="#a3002b" d="M266 1014l392-204-376-232z"/><path fill="#447071" d="M106-62L82 734-62 170z"/><path fill="#99c6be" d="M294 558l284-44-108 64z"/><path fill="#b5cac3" d="M2 194L162 22l152 240z"/><path fill="#3e3f1c" d="M446 334L354 58l-52 316z"/><path fill="#90876e" d="M210-62l-20 292 536 24z"/><path fill="#475c64" d="M686 402l36-464 176 184z"/><path fill="#caf5ff" d="M106 830l-32 256 88-44z"/><path fill="#cadbdd" d="M106 546l124-432L114-62z"/><path fill="#b5a399" d="M450-62l12 328 300-52z"/><path fill="#380000" d="M266 518L122 682l108-304z"/><path fill="#bf001f" d="M626 310l104 180-68 36z"/><path fill="#000305" d="M66 330l-128 52 76-176z"/><path fill="#140e00" d="M270 114l108-72 68 28z"/><path fill="#58818c" d="M898 322v528L706 522z"/><path fill="#000300" d="M350 1086l280-96-388-4z"/><path fill="#610010" d="M390 730l160-172-312 48z"/><path fill="#c5c3b8" d="M426-62L642 42H274z"/><path fill="#d7004d" d="M302 262L114 626l48-280z"/><path fill="#6f9d8b" d="M706 662l-60-116 8 224z"/><path fill="#000a05" d="M594 538l72 148-52-276z"/><path fill="#55a484" d="M574 398l-80-16 32 100z"/><path fill="#5a2f24" d="M198 962v124l-64-164z"/><path fill="#ac003b" d="M258 962l44-340 352 16z"/><path fill="#830028" d="M386 266L190 534l-64-88z"/></g></svg>