<svg xmlns="http://www.w3.org/2000/svg" width="228" height="278" viewBox="0 0 836 1024"><path fill="#897978" d="M0 0h836v1024H0z"/><path fill="#d7eef6" fill-opacity=".816" d="M791.408 560.643l-207.9-243.385-146.49-368.01L898 8.34z"/><path fill="#5f1f1e" fill-opacity=".761" d="M203.744 417.656L224.476 1086l514.513-148.677-281.386-681.076z"/><path fill="#c0fff0" fill-opacity=".282" d="M-7.98 782.465L-62 130.36 266.8 6.641l41.272 305.243z"/><path fill="#c4eeff" fill-opacity=".502" d="M780.995 650.662l-75.488 305.835L268.969 1086 898 1023.904z"/><path fill="#d6dad9" fill-opacity=".635" d="M495.7 699.156l127.824 42.84-304.377 6.247-29.264-38.831z"/><path fill="#4c1a1b" fill-opacity=".855" d="M669.51 540.336l-12.79-172.11-154.005 250.666 88.368 87.166z"/><path fill="#5a2c16" fill-opacity=".427" d="M561.4 391.968L351.717 467.39 281.245 55.715l147.201-44.07z"/><path fill="#a5afaf" fill-opacity=".773" d="M565.004 506.71l-65.33-454.95 166.99 212.946L475.01 436.671z"/><path fill="#54d6fd" fill-opacity=".388" d="M225.776 776.063L89.467 513.415l76.535-144.67 67.025 273.81z"/><path fill="#97bdc8" fill-opacity=".831" d="M754.24 590.696l141.53-277.512-223.353 102.353-1.07 63.112z"/><path fill="#110800" fill-opacity=".357" d="M181.028 625.688L-5.926 826.612l215.083-327.078L439.43 688.07z"/><path fill="#1c290a" fill-opacity=".494" d="M893.89 731.582l-99.707-174.84-42.309 22.462-160.106-58.81z"/><path fill="#aed7ec" fill-opacity=".831" d="M80.405 529.852L234.67 380.106l105.572-51.552-141.9-8.8z"/><path fill="#69141c" fill-opacity=".467" d="M713.833 989.625L751.857 964 617.511 712.3 165.453 864.534z"/><path fill="#aec5cd" fill-opacity=".655" d="M851.92 725.907l-169.837-2.804 29.528 132.976L823.973 1086z"/><path fill="#d9ff60" fill-opacity=".263" d="M503.546 632.025L394.41 772.168l-14.647-196.837 92.124-23.29z"/><path fill="#909f90" fill-opacity=".635" d="M133.506 677.352L-62 982.236 174.503 1086l56.026-432.862z"/><path fill="#e2eef7" fill-opacity=".49" d="M544.933 328.815L731.365-62l158.476 73.655-144.909 428.048z"/><path fill="#833137" fill-opacity=".741" d="M662.367 387.548l-188.175-78.792 67.116 232.835-77.028-130.573z"/><path fill="#501b1c" fill-opacity=".878" d="M506.11 973.819l10.355-249.045-301.13 304.073-8.316 27.565z"/><path fill="#7b7e81" fill-opacity=".82" d="M779.65 646.451L898 715.745l-268.963 45.733-30.512-89.75z"/><path fill="#defbd1" fill-opacity=".49" d="M598.403 400.175l-4.333 87.798-86.087-43.396 6.189-45.393z"/><path fill="#a4765b" fill-opacity=".459" d="M303.123 111.864l-38.96 110.322 211.605 127.837 118.61-159.922z"/><path fill="#00181c" fill-opacity=".412" d="M451.75 119.298l-119.63 10.145-61.857-17.404L413.32 16.79z"/><path fill="#833f47" d="M205.419 408.883l-14.335 94.164 163.052.481-77.251-144.896z"/><path fill="#c53d00" fill-opacity=".286" d="M169.29 619.9l-73.917-45.046L-4.02 740.2-62 957.384z"/><path fill="#0088a7" fill-opacity=".478" d="M734.8 601.58l-2.903-115.385-62.205-2.763-8.063 85.39z"/><path fill="#a83e48" fill-opacity=".627" d="M627.91 820.173l-234.388 152.84 187.207-79.408 161.779 80z"/><path fill="#a4e3ff" fill-opacity=".529" d="M175.189 545.323l-85.833-22.82 27.275 68.459 52.92 33.776z"/><path fill="#bbb2b0" fill-opacity=".992" d="M568.95 732.356l-113.68 6.794 103.563-49.827-2.078 53.79z"/><path fill="#b3a093" fill-opacity=".749" d="M721.95 354.828L898 452.82l-93.043 169.803 4.058-102.977z"/><path fill="#023949" fill-opacity=".388" d="M-62 98.325L3.913 316.907-21.81-62 202.444-7.895z"/><path fill="#95b2b8" fill-opacity=".482" d="M467.996 55.1l210.636 135.486-156.818 158.778 18.767-67.97z"/><path fill="#1a070e" fill-opacity=".478" d="M392.234 408.926l-81.807.373 1.01-57.284L577.48 361z"/><path fill="#340709" fill-opacity=".396" d="M490.318 441.268l-249.44 259.625 213.72 116.547-216.133-5.37z"/><path fill="#092537" fill-opacity=".537" d="M444.446 1086l229.548-14.962-39.724-68.875-121.367 58.478z"/><path fill="#3f1a15" d="M625.155 635.69l25.825-120.193-220.565 120.77 8.853-39.005z"/><path fill="#c3e9fb" fill-opacity=".875" d="M419.286 1086l167.21-93.758 74.544-20.789-6.087 22.88z"/><path fill="#310e0d" fill-opacity=".765" d="M511.998 929.084L693.03 827.421 490.722 974.386l-192.728 32.97z"/><path fill="#34230e" fill-opacity=".639" d="M363.887 217.669l21.682-2.897 50.928-23.228-146.623 8.49z"/><path fill="#ffa89a" fill-opacity=".282" d="M312.212 239.282l103.305-113.975-143.143 8.532 130.742 160.433z"/><path fill="#2c8397" fill-opacity=".675" d="M146.459 442.8l30.071 140.77 52.824 72.725-10.988-95.681z"/><path fill="#bdb6b5" fill-opacity=".875" d="M577.174 697.89l-259.832 46.862 31.93-65.711-49.24 39.67z"/><path fill="#d0edfc" fill-opacity=".537" d="M265.05 450.505l-8.077 16.533 5.767-35.152 49.471 25.994z"/><path fill="#712526" fill-opacity=".698" d="M266.343 658.068l87.334 320.03-139.305 32.358-11.03-214.132z"/><path fill="#7d3037" fill-opacity=".761" d="M603.88 546.513l-4.911-172.027 61.78 24.688 17.36 41.859z"/><path fill="#200d00" fill-opacity=".165" d="M-17.856 464.155l143.725-60.212-54.332 185.47 106.575 50.232z"/><path fill="#ffad98" fill-opacity=".416" d="M-34.829 722.605l121.002-148.03-43.997 182.841-102.664 33.078z"/><path fill="#b34756" fill-opacity=".631" d="M673.383 872.798l-123.85 124.754 214.722-65.1-254.517 48.37z"/><path fill="#c7d9e0" fill-opacity=".804" d="M529.533 331.12l203.084 75.87L898 336.034l-357.568-40.932z"/><path fill="#d1cecc" fill-opacity=".769" d="M463.532 739.005l14.064 14.35-5.072-78.56-12.993 17.315z"/><path fill="#541b1c" fill-opacity=".737" d="M669.79 830.782l64.185 94.997-50.293-152.921-417.633 107.557z"/><path fill="#f6fbff" fill-opacity=".443" d="M886.756 102.246L820.539-62 570.727 18.133l60.954 103.037z"/><path fill="#a2d8ef" fill-opacity=".631" d="M603.347 303.757l146.165 239.472 7.097 35.962 55.978-68.976z"/><path fill="#280100" fill-opacity=".286" d="M183.627 546.723l258.476 35.734-214.41 111.122-6.594-315.64z"/><path fill="#989e95" fill-opacity=".812" d="M50.616 805.756l131.996 22.185 49.9-91.348-40.036-130.19z"/><path fill="#300e04" fill-opacity=".529" d="M705.371 611.085l102.004-70.566-54.392 89.255 25.573-27.657z"/><path fill="#90958b" fill-opacity=".576" d="M-14.639 652.055L-62 146.963l420.264 108.016-256.226 136.775z"/><path fill="#bbb3b3" fill-opacity=".894" d="M351.82 746.903l38.492-45.018 9.478-21.913 71.134 63.133z"/><path fill="#fcfe44" fill-opacity=".29" d="M483.016 632.702l2.847-56.792-40.958 102.082-73.866-32.48z"/><path fill="#2b3009" fill-opacity=".369" d="M104.233 713.864l121.52-144.879L75.11 678.792 60.075 704.35z"/><path fill="#642e32" fill-opacity=".941" d="M515.645 241.8l-62.548 275.787 85.175-237.133-42.145-24.363z"/><path fill="#4a2021" fill-opacity=".733" d="M411.465 843.172l4.84-138.78-16.546 52.195 233.193-15.427z"/><path fill="#280a04" fill-opacity=".667" d="M283.468 839.838l93.671 11.221-120.787 29.542-15.597-21.912z"/><path fill="#5b2628" fill-opacity=".792" d="M469.468 677.809l41.333 42.235L487.14 509.35l153.728-28.41z"/><path fill="#c1dcfa" fill-opacity=".38" d="M116.533 452.35l54.098-98.98 122.202-78.03 38.059 50.859z"/><path fill="#f27f60" fill-opacity=".388" d="M898 678.428L778.928 591.15l16.347-27.565 13.764-59.772z"/><path fill="#9e9d85" fill-opacity=".725" d="M234.805 130.195L351.55 15.701 898-36.71 174.022 10.68z"/><path fill="#866f7c" d="M682.777 1086l-6.395-146.6-29.433 123.732-9.272-42.857z"/><path fill="#71988e" fill-opacity=".376" d="M612.597 310.635l-126.334-73.34 45.326-112.876 64.444 114.28z"/><path fill="#be4953" fill-opacity=".506" d="M350.057 987.039l-102.523 5.55 159.901-32.913-6.784 6.622z"/><path fill="#76aab6" fill-opacity=".694" d="M621.295 721.39l-8.88-63.847 34.219-18.577-1.682.45z"/><path fill="#441f1c" fill-opacity=".792" d="M358.129 605.893l33.149 151.548-10.334-186.361-155.231 15.186z"/><path fill="#4e5556" fill-opacity=".6" d="M461.965 24.001L351.967 12.9l-43.402 52.957 155.848 21.891z"/><path fill="#edf64d" fill-opacity=".267" d="M396.28 539.49l-14.84 91.572 48.21-71.392-42.95 14.72z"/><path fill="#c5d2d8" fill-opacity=".51" d="M399.932-9.658l182.935-11.925-119.282 132.26 276.42 83.253z"/><path fill="#491b1f" fill-opacity=".651" d="M527.687 664.679l-133.566 14.786-71.748-109.2 111.844 123.128z"/><path fill="#440116" fill-opacity=".384" d="M84.73 546.988l12.026 18.233 82.307 92.043-93.812-81.23z"/><path fill="#8aa1ab" fill-opacity=".541" d="M855.624 703.747l-139.573 7.195-69.169 52.484 149.781 17.007z"/><path fill="#fdf476" fill-opacity=".357" d="M375.108 650.9l72.344 9.908 45.295-20.824-26.122 36.155z"/><path fill="#f5f8ff" fill-opacity=".365" d="M898 673.754L786.81 492.55l-79.803 30.658 135.418 10.282z"/><path fill="#ff5a68" fill-opacity=".173" d="M616.67 901.965l107.156-17.182L561.22 782.8l73.02-47.695z"/><path fill="#b1b99b" d="M560.312 401.697l-48.249 58.314 33.246 31.3 33.085.794z"/><path fill="#722b2d" fill-opacity=".894" d="M197.223 856.752l103.673-228.964-79.777 47.593 38.036 244.178z"/><path fill="#622327" fill-opacity=".969" d="M610.904 948.73l97.711-86.727-48.53 88.012-216.531 64.66z"/><path fill="#a0ddff" fill-opacity=".4" d="M220.76 594.914l6.94 149.865-27.136-9.582 10.674-49.667z"/><path fill="#3a1615" fill-opacity=".478" d="M474.098 770.971l189.543-15.16-199.955-12.336-252.799 46.206z"/><path fill="#69b6d5" fill-opacity=".345" d="M737.387 590.463l-15.039-17.926-69.663-200.67 117.946 78.186z"/><path fill="#b4c5cc" fill-opacity=".796" d="M598.234 1086l140.255-116.037 142.35-317.33-25.99 369.412z"/><path fill="#b1dbee" fill-opacity=".639" d="M161.248 375.245l33.71 149.425-4.27-70.445 54.15-136.007z"/><path fill="#280703" fill-opacity=".557" d="M319.632 965.854l-94.94-16.054 223.023-14.875-130.71 38.595z"/><path fill="#96424a" fill-opacity=".89" d="M737.695 964.223l-11.692-79.894-52.216 32.44 29.942 78.029z"/><path fill="#071400" fill-opacity=".345" d="M401.51 432.267l49.028-105.56-1.025-28.605-86.223 67.12z"/><path fill="#008cc9" fill-opacity=".408" d="M473.16 1086H351.135l205.574-96.326L485.816 1086z"/><path fill="#c8ecfe" fill-opacity=".455" d="M520.752 415.558l75.177-17.913-26.295 55.493 35.503-19.24z"/><path fill="#fc6a84" fill-opacity=".251" d="M691.612 939.911l-12.07-31.759 52.964 59.758-208.18 25.666z"/><path fill="#064d54" fill-opacity=".396" d="M636.57 548.949l91.324 71.537-43.992-86.864 80.922-66.75z"/><path fill="#6f292e" fill-opacity=".82" d="M195.608 432.635l32.443-41.335 44.13 215.714-77.544-139.172z"/><path fill="#f6fffc" fill-opacity=".349" d="M337.06 741.34l1.02-67.787-34.42 60.499-.428-43.212z"/><path fill="#f1fe36" fill-opacity=".353" d="M416.874 606.552l-7.502 59.223 39.76-82.938-33.256 34.754z"/><path fill="#4d2127" fill-opacity=".431" d="M545.223 559.307l-139.15 146.23 66.547.782-41.331-16.3z"/><path fill="#5f3823" fill-opacity=".8" d="M487.042 635.957l9.116-33.062-48.788 62.389-18.499-11.943z"/><path fill="#c4ebfc" fill-opacity=".765" d="M692.056 349.7l21.987 53.914-188.9-81.809 15.438-13.181z"/><path fill="#2e1300" fill-opacity=".525" d="M439.778 577.125l-39.743 60.985-4.998-9.855 4.125-40.406z"/><path fill="#6d4a32" fill-opacity=".58" d="M326.585 270.03l52.86 80.322 61.87-41.357 22.28-63.05z"/><path fill="#451817" fill-opacity=".565" d="M320.046 826.91l-74.239-105.265 101.608 38.163-5.869-49.682z"/><path fill="#898e84" fill-opacity=".984" d="M-62 1068.318l285.81 10.921-28.882-270L-62 845.786z"/><path fill="#3e2f1b" fill-opacity=".647" d="M308.579 214.087l-23.968-27.926 32.99 9.255 92.062-1.803z"/><path fill="#bbdff4" fill-opacity=".51" d="M81.648 550.795l80.51 15.416-35.21-43.654-18.55-42.173z"/><path fill="#7e373e" fill-opacity=".537" d="M516.177 472.535l31.208 28.901-174.877 49.625 137.53-177.093z"/><path fill="#594316" fill-opacity=".435" d="M-17.656 834.9l97.325-77.768L58.74 792.11l-62.37 55.84z"/><path fill="#300609" fill-opacity=".361" d="M514.88 1003.166L353.362 1086l168.723-148.831-265.127 73.613z"/><path fill="#d05a68" fill-opacity=".263" d="M410.288 852.171l-191.17-64.727 66.91 53.642 218.697 2.065z"/><path fill="#882f34" fill-opacity=".686" d="M539.098 661.527l49.285-26.096-27.222 91.27 125.717 56.403z"/><path fill="#26211c" fill-opacity=".525" d="M353.186 87.74l90.352 19.679-132.473 20.307.018-71.605z"/><path fill="#eff" fill-opacity=".325" d="M379.881 733.313l-29.619-29.173 56.884 6.804-4.1 49.31z"/><path fill="#5c2b00" fill-opacity=".118" d="M792.95 683.96L898 615.66l-180.13-34.9-103.727 142.758z"/><path fill="#1a0c0a" fill-opacity=".518" d="M630.004 612.796l-4.496-67.503 44.745-82.756-7.869 86.273z"/><path fill="#f56572" fill-opacity=".18" d="M428.132 933.165l-244.825-43.016 120.031 36.373-165.745 20.665z"/><path fill="#a56550" fill-opacity=".424" d="M512.887 197.1L481.752 75.37 372.58 273.493l-3.867 28.45z"/></svg>