<svg xmlns="http://www.w3.org/2000/svg" width="228" height="278" viewBox="0 0 836 1024"><path fill="#8c5257" d="M0 0h836v1024H0z"/><path fill="#e1f5fd" fill-opacity=".725" d="M718.38 479.77L898 581.057v298.51l-245.125-14.241z"/><path fill="#f6f5fc" fill-opacity=".851" d="M503.173 1082.973l-233.305-181.26-65.381-23.404L99.292 1086z"/><path fill="#f0fcfd" fill-opacity=".725" d="M789.906 362.081L898 496.428v-263.49l-358.561-2.927z"/><path fill="#940000" fill-opacity=".675" d="M729.124 309.585L631.912 1086 320.099 950.257 121.02 382.513z"/><path fill="#c3c7c1" fill-opacity=".788" d="M420.047 196.644L264.22 357.703 33.435-62-62 85.8z"/><path fill="#004592" fill-opacity=".478" d="M-62 950.482L90.571 1086l197.713-370.995-48.106-187.841z"/><path fill="#011a2c" fill-opacity=".671" d="M898 887.66L640.31 877.6l4.102 140.678L898 1056.944z"/><path fill="#aa2828" fill-opacity=".992" d="M293 656.8l251.658-384.952 153.158 37.102 195.18 138.981z"/><path fill="#093e3e" fill-opacity=".494" d="M599.697 29.21L898-.173v211.346l-279.009 12.79z"/><path fill="#d1dcff" fill-opacity=".227" d="M-62 858.115l271.85 15.226 30.74-58.636L72.2 483.655z"/><path fill="#bbc5c3" fill-opacity=".596" d="M240.752 362.175L117.426 83.867l155.805-6.948 87.863 217.307z"/><path fill="#001900" fill-opacity=".408" d="M222.81 127.914l-229.813 2.352 207.164 213.846-17.871-178.094z"/><path fill="#c20013" fill-opacity=".71" d="M519.383 1086h173.108L286.043 673.563l-59.074 195.272z"/><path fill="#0442ab" fill-opacity=".482" d="M117.08 502.037L-36.342 272.94l10.623 431.186 153.856-208.423z"/><path fill="#384867" fill-opacity=".839" d="M295.018-62H152.884L49.124 80.877l287.43-8.2z"/><path fill="#c3df82" fill-opacity=".227" d="M350.188 686.583L268.847 434.94l340.258 151.38-55.677 96.097z"/><path fill="#ffe2be" fill-opacity=".282" d="M81.938 512.196L240.835 376.42-62 336.46 98.536 142.649z"/><path fill="#6b0000" fill-opacity=".659" d="M457.57 811.379l200.032-371.133 93.464-44.953-168.975 582.863z"/><path fill="#8e745f" fill-opacity=".843" d="M625.41 224.85L591.95-9.574 307.948 188.971l85.755 180.249z"/><path fill="#a80411" fill-opacity=".694" d="M184.404 613.727l209.027-338.153-219.983 130.66-76.84 159.69z"/><path fill="#2e3043" fill-opacity=".973" d="M138.81 1012.132L-62 1025.646l35.59-154.776 199.083 11.296z"/><path fill="#4d403b" fill-opacity=".996" d="M478.787-62h279.75L554.465-30.902l-10.639 297.056z"/><path fill="#cee9fe" fill-opacity=".353" d="M898 375.568L610.388 237.1 566.24-57.996l-5.507 327.313z"/><path fill="#eafeae" fill-opacity=".341" d="M661.235 366.31l-75.308 77.296-329.514 125.89 340.474-94.162z"/><path fill="#56090b" fill-opacity=".561" d="M552.28 319.422L415.022 342.51 215.91 425.543l273.824 56.5z"/><path fill="#8e9497" fill-opacity=".576" d="M746.45-34.394l2.28 282.199-48.257-10.13L706.54-62z"/><path fill="#573d2a" fill-opacity=".988" d="M341.12 194.012l57.1-87.544-90.788-74.912-17.895 89.016z"/><path fill="#ff0526" fill-opacity=".451" d="M729.845 318.64L840.42 419.274l-56.342 47.605-300.876-215.165z"/><path fill="#000002" fill-opacity=".353" d="M287.844 629.114l120.281 50.207-230.57-202.395 44.922 286.871z"/><path fill="#070207" fill-opacity=".475" d="M754.151 74.489l3.836 125.923 103.676 23.492-32.297-210.389z"/><path fill="#c7c5c6" fill-opacity=".573" d="M297.547 175.86l-128.363-19.32 37.16 221.824 155.67-96.022z"/><path fill="#3a2c25" fill-opacity=".694" d="M210.866 331.137L36.85 149.117l123.988-27.802-6.982 279.413z"/><path fill="#ecb492" fill-opacity=".514" d="M411.015 236.932l83.906 15.45-99.657-141.445 107.629-14.336z"/><path fill="#e8f8fa" fill-opacity=".463" d="M140.27-13.48L6.708 90.2l5.62 70.394L-19.779-20.5z"/><path fill="#5f0d00" fill-opacity=".467" d="M281.692 519.441L82.28 713.804l-25.288-3.702L222.25 498.663z"/><path fill="#410200" fill-opacity=".647" d="M738.738 488.703l-98.221 103.673 96.767-151.395L898 566.06z"/><path fill="#f8f4e9" fill-opacity=".427" d="M801.664 475.478l96.336.01-238.278-230.056L898 304.244z"/><path fill="#fff9ff" fill-opacity=".157" d="M124.152 580.141L-30.16 476.19l242.708-114.137-267.29 404.699z"/><path fill="#121741" fill-opacity=".69" d="M-62 317.074L49.335 603.89-62 745.068V630.515z"/><path fill="#efebf2" fill-opacity=".812" d="M167.321 970.976l-21.214-30.034 139.858-34.052 102.11 100.502z"/><path fill="#c30013" fill-opacity=".659" d="M560.618 545.583l90.896-60.044-150.976 6.141-162.75 64.941z"/><path fill="#7d0001" fill-opacity=".502" d="M271.217 675.736l366.09 51.94 24.404 200.542L614.512 1086z"/><path fill="#ffae2a" fill-opacity=".239" d="M-62 722.04l30.112 201.38 166.21-312.641-7.556-76.905z"/><path fill="#4bddff" fill-opacity=".231" d="M564.806 401.529l40.788 4.173-3.4 75.005-77.405 8.053z"/><path fill="#dde0e1" fill-opacity=".549" d="M676.88 691.75l-17.27 187.01 178.567-17.065L898 643.596z"/><path fill="#deffff" fill-opacity=".188" d="M76.403-33.242l194.674-26.48 45.195 338.24L245.277 46.96z"/><path fill="#141411" fill-opacity=".349" d="M372.373 145.957l-25.266-31.798-226.672 25.14-54.884 1.807z"/><path fill="#fffbf7" fill-opacity=".267" d="M134.645 184.746l34.587-36.804 140.333-.734-1.293 99.673z"/><path fill="#fb2545" fill-opacity=".498" d="M131.922 456.767l235.724-132.938-62.873-7.063-79.955 58.209z"/><path fill="#8c1c2e" fill-opacity=".616" d="M257.596 1070.559L87.603 1086l94.065-70.7 49.835 6.118z"/><path fill="#5f67bf" fill-opacity=".486" d="M198.687 596.756l-26.11 260.363-133.82-17.657 52.469-128.055z"/><path fill="#c50a1c" fill-opacity=".639" d="M339.214 770.75L176.642 886.462l259.704.27 79.478-34.786z"/><path fill="#9e6e4c" fill-opacity=".871" d="M349.881 213.697l193.728 59.04-57.46 65.372-136.041-1.708z"/><path fill="#675131" fill-opacity=".651" d="M426.208 15.21L275.251 56.332l56.073 45.72L567.07 78.976z"/><path fill="#011425" fill-opacity=".333" d="M523.922 72.42l50.098 185.89-68.315 2.308 20.052-55.434z"/><path fill="#6d0206" fill-opacity=".878" d="M639.663 968.641l26.782-197.604 8.02-65.062-225.177-24.444z"/><path fill="#001146" fill-opacity=".412" d="M173.302 17.922l81.935 64.137L76.85 70.104l82.748-91.706z"/><path fill="#1f1000" fill-opacity=".243" d="M146.985 412.749l66.837-157.647 54.248 55.474-137.673-148.765z"/><path fill="#c8995a" fill-opacity=".565" d="M372.16 568.209l14.891 121.024-55.635-154.483-78.62 30.292z"/><path fill="#caa27b" fill-opacity=".4" d="M8.053 210.19l-24.249 100.916 141.64 22.294 37.963-54.042z"/><path fill="#90593c" fill-opacity=".671" d="M359.534 674.386l99.504 8.325 111.031-9.588 31.087-154.015z"/><path fill="#89989f" fill-opacity=".643" d="M552.343 225.038l318.032 25.307L898 316.838l-49.497-100.703z"/><path fill="#471b01" fill-opacity=".416" d="M380.516 173.618l-13.87 28.003 182.58-30.678-172.367-.24z"/><path fill="#001550" fill-opacity=".4" d="M232.597 746.396l-64.304-28.15 87.632-188.92 13.525 288.83z"/><path fill="#c00005" fill-opacity=".38" d="M781.784 422.654l39.28 52.12-254.617-28.898L780.23 344.589z"/><path fill="#600307" fill-opacity=".408" d="M529.38 359.288l-143.088-35.744L503.678 471.4l-256.553 91.677z"/><path fill="#d1b5b9" fill-opacity=".784" d="M736.696 490.137l49.922 20.948-72.27 115.523-8.912-92.136z"/><path fill="#4a7893" fill-opacity=".22" d="M539.21-40l158.49-2.831-90.657 299.57-61.55 15.433z"/><path fill="#cea579" fill-opacity=".478" d="M600.222 402.222l-68.123 9.066-43.576 33.13 100.384-25.364z"/><path fill="#b6bbbd" fill-opacity=".616" d="M-62 113.501l61.118-47.42 247.27 24.322-9.073 30.2z"/><path fill="#f2e5e5" fill-opacity=".431" d="M575.894 268.101l130.001 52.245 183.01 16.545-259.803-89.924z"/><path fill="#ffce95" fill-opacity=".357" d="M301.433 470.315l-12.685 34.44 65.881-57.134-16.596 64.697z"/><path fill="#fe1e46" fill-opacity=".424" d="M401.604 1012.137l-108.257-98.888-100.289-46.756 99.996-18.343z"/><path fill="#171a3f" fill-opacity=".322" d="M58.425 453.503l38.146 48.165-38.837-134.434L-62 388.774z"/><path fill="#d29f82" fill-opacity=".412" d="M295.968 189.933l97.616 34.618-8.386 79.75 143.368-103.296z"/><path fill="#dda77e" fill-opacity=".349" d="M368.515 148.418l18.292 27.378 142.04-29.458-88.8-72.643z"/><path fill="#a6a1ad" fill-opacity=".518" d="M188.042 285.626l85.804-79.818 14.342 121.556-90.679 67.453z"/><path fill="#c9c07f" fill-opacity=".424" d="M465.35 554.366l-75.58 87.83 22.765-84.697 41.216-9.162z"/><path fill="#880007" fill-opacity=".435" d="M629.082 327.526l54.893 57.104-183.415 26.74 6.783-103.292z"/><path fill="#337dd3" fill-opacity=".282" d="M808.609 530.476l-43.373 54.186 3.195 11.162 85.156 15.317z"/><path fill="#c2cb76" fill-opacity=".361" d="M517.115 622.482l-3.034-83.711-63.995 79.008 130.87-3.984z"/><path fill="#bb0012" fill-opacity=".557" d="M175.092 611.466l-38.326-11.45-36.094-43.643 56.044-132.27z"/><path fill="#94aba9" fill-opacity=".38" d="M669.886 884.846l-13.493-10.939-5.79-48.912L898 878.047z"/><path fill="#514839" fill-opacity=".824" d="M99.435 128.614L-37.48 252.851-62 128.54l211.098-5.144z"/><path fill="#32354c" fill-opacity=".757" d="M-62 1029.115l205.296-15.121 3.445-61.805 76.325-91.979z"/><path fill="#9d1720" fill-opacity=".788" d="M203.567 399.468l379.929 52.15-231.35-47.378 27.794-67.768z"/><path fill="#580508" fill-opacity=".69" d="M692.475 655.312l-.933-239.284-46.606 544.127-14.972-136.336z"/><path fill="#750408" fill-opacity=".408" d="M526.933 618.895l-28.109-99.544 91.191 115.942-131.183 12.617z"/><path fill="#5e1226" fill-opacity=".392" d="M587.361 430.187l-13.004 40.152-54.088 8.355-92.001-34.104z"/><path fill="#7e5339" fill-opacity=".769" d="M342.887 246.296l29.74 132.771-4.597-2.038 60.315-8.63z"/><path fill="#6a7f6f" fill-opacity=".443" d="M327.89 41.184l164.086-24.25L876.22 15.27 291.626-62z"/><path fill="#3e0811" fill-opacity=".569" d="M445.067 295.456l41.154-5.395-15.864-11.96-51.576 8.823z"/><path fill="#9d040c" fill-opacity=".886" d="M526.723 993.738l112.034-14.964-11.878-46.188-306.614-67.007z"/><path fill="#e99a4e" fill-opacity=".604" d="M289.628 552.142l-.71 17.253 238.912-85.799L425.8 503.83z"/><path fill="#ef294b" fill-opacity=".557" d="M553.68 265.714l159.33 50.48 65.785 39.085 31.576 56.335z"/><path fill="#4e52ac" fill-opacity=".384" d="M233.332 719.93l-74.444 5.488 47.1 149.17 50.644-73.387z"/><path fill="#676fc8" fill-opacity=".412" d="M2.566 456.1l125.414 14.991-10.167 57.016-65.852 41.512z"/><path fill="#f4f7fd" fill-opacity=".545" d="M291.237 943.761l-146.19 76.2 16.11-88.609 87.907-40.157z"/><path fill="#9d0005" fill-opacity=".482" d="M309.354 643.746l-31.598 93.334-9.998-160.703 85.36-24.138z"/><path fill="#980f17" fill-opacity=".635" d="M457.377 584.199l-27.118-.818 72.49-56.23-76.593 129.548z"/><path fill="#f5fffa" fill-opacity=".463" d="M607.55 466.91l-8.9-19.661 18.05-24.287-38.229 40.07z"/><path fill="#251c00" fill-opacity=".165" d="M-62 981.991l241.331-398.82L-62 883.887l296.835-5.806z"/><path fill="#402918" fill-opacity=".596" d="M881.366 576.08L898 658.312l-64.904-159.935-105.071-20.694z"/><path fill="#d7d7da" fill-opacity=".969" d="M657.018 830.598l11.176 24.282 229.806.272-186.173-191.665z"/><path fill="#010710" fill-opacity=".184" d="M230.146 394.28l173.197 43.088-138.988 10.197-16.765 398.114z"/><path fill="#e3b89b" fill-opacity=".475" d="M-62 700.132L7.759 781.92l34.365-152.292-34.426 29.917z"/><path fill="#591b00" fill-opacity=".271" d="M370.756 94.345l-67.31 75.274 6.42 48.528 64.154-51.768z"/><path fill="#bae7ff" fill-opacity=".29" d="M20.188 308.964l-57.879 62.527L-62 235.413l81.184-8.847z"/><path fill="#1e1d0c" fill-opacity=".431" d="M387.582 329.762l121.078 27.921-108.44 44.502 18.048-50.322z"/><path fill="#a70510" fill-opacity=".796" d="M510.858 488.053l72.587 1.18 168.949-130.64-148.84 181.093z"/><path fill="#552a13" fill-opacity=".498" d="M492.356 197.006l-28.463-7.669 11.227-19.387 49.76-20.87z"/><path fill="#670000" fill-opacity=".361" d="M292.077 813.281l113.732 32.323 276.648-156.437L453.67 796.623z"/><path fill="#1c222c" fill-opacity=".545" d="M341.44-52.61L302.43 67.185l-19.16-20.43 31.572-92.614z"/><path fill="#96171b" d="M201.865 427.801l251.11 63.488-156.55 52.383 97.712-90.57z"/><path fill="#9d6d5c" fill-opacity=".545" d="M-61.67 345.774l285.104 41.275-167.36 48.897 110.764-154.122z"/><path fill="#9d0113" fill-opacity=".565" d="M429.48 522.218l-51.497 44.061 11.474 104.963 11.749-106.35z"/><path fill="#431f06" fill-opacity=".294" d="M526.26 130.69l31.417-79.504-140.9 39.536 27.725-65.494z"/><path fill="#8e5e41" fill-opacity=".69" d="M301.665 210.604L462.03 264.04l49.268-27.953-117.296 20.921z"/><path fill="#000015" fill-opacity=".294" d="M148.09 325.623l33.955 80.812 11.75-78.975-26.87-22.193z"/><path fill="#95070e" fill-opacity=".675" d="M270.216 633.237l134.286 21.041-60.623-35.125 16.743 155.832z"/></svg>