<svg xmlns="http://www.w3.org/2000/svg" width="228" height="278" viewBox="0 0 836 1024"><path fill="#897978" d="M0 0h836v1024H0z"/><g fill-opacity=".502"><path fill="#fff" d="M898 14L406-62l368 660z"/><path fill="#500000" d="M390-62L154 1086l584-148z"/><path fill="#a8beb5" d="M-62 834l484-688L-62 38z"/><path fill="#ceffff" d="M898 702l-108 384-104-328z"/><path fill="#e8ffff" d="M454 6l444-64-28 532z"/><path fill="#feffff" d="M398 754l188-48-300-4z"/><path fill="#2c0002" d="M182 618l236 64-200-300z"/><path fill="#280000" d="M498 686l192-136-56-180z"/><path fill="#c9d0cb" d="M502 450l92 68 20-376z"/><path fill="#4d0609" d="M694 778l-460-48 20 356z"/><path fill="#c7ffff" d="M202 310l132 8-224 140z"/><path fill="#87543d" d="M274-34l36 320 340 136z"/><path fill="#b7f5ff" d="M638 970l-248 88 508-36z"/><path fill="#d7f4ff" d="M526 322L890-62 734 414z"/><path fill="#120d00" d="M690 594l92-32 92 124z"/><path fill="#90ab98" d="M194 566l-256 452 284 4z"/><path fill="#58cdf5" d="M158 358l72 280-148-88z"/><path fill="#5fcbeb" d="M658 586l176-68-152-164z"/><path fill="#7f370c" d="M166 634l-80-80-60 268z"/><path fill="#4b1112" d="M178 434l476-56-232-88z"/><path fill="#0b2625" d="M282 114l156 4L354 6z"/><path fill="#819fa7" d="M898 742l-292-92 24 108z"/><path fill="#c1bda0" d="M414 622l172 120-204-12z"/><path fill="#361c1e" d="M634 466l128 140-308-76z"/><path fill="#300000" d="M378 982l252-112-188 176z"/><path fill="#979081" d="M594 134L286 246l320 44z"/><path fill="#a4b095" d="M554-62L74 174 230-62z"/><path fill="#440b0a" d="M226 534v252l156-164z"/><path fill="#d7eae5" d="M362 738l-64 4 28-64z"/><path fill="#244a56" d="M34-62l-96 180L162 2z"/><path fill="#013d3f" d="M210 502l12 80L98 690z"/><path fill="#3e0a09" d="M578 734l-76-176 168-60z"/><path fill="#ccf9d6" d="M602 418l-48 80-44-108z"/><path fill="#a23c4c" d="M294 582l24-248-112 68z"/><path fill="#f49c80" d="M14 770l112-184-172 100z"/><path fill="#886e27" d="M450 458l64 248-152-48z"/><path fill="#b8a695" d="M898 782L754 394l124-80z"/><path fill="#b02e3f" d="M670 842l64 116-248 28z"/><path fill="#485655" d="M466 10l20 84-180-64z"/><path d="M466 1070l200 16-28-84z"/></g></svg>