<svg xmlns="http://www.w3.org/2000/svg" width="228" height="278" viewBox="0 0 836 1024"><path fill="#8c5257" d="M0 0h836v1024H0z"/><g fill-opacity=".502"><path fill="#fcffff" d="M646 858l168-696 84 720z"/><path fill="#9a0000" d="M50 366l808-12-404 732z"/><path fill="#fff" d="M210 862l-108 224h420z"/><path fill="#d9fdf1" d="M166 62l252 176-212 144z"/><path fill="#fff" d="M898 426V234l-360-12z"/><path fill="#8d0000" d="M202 862l440 224 44-640z"/><path fill="#074589" d="M-62 938l376-476-204 624z"/><path fill="#dffdff" d="M898 826L718 466l-60 404z"/><path fill="#000115" d="M550 862l204 224 144-192z"/><path fill="#c30000" d="M750 326l148 252-588-372z"/><path fill="#cff" d="M6-62l156 172-224 4z"/><path fill="#1d4842" d="M898 266L366 30 898-2z"/><path fill="#fff" d="M538 1086l-396-92 68-116z"/><path fill="#9687a1" d="M214 858L82 214-22 878z"/><path fill="#c6714c" d="M266 566l240 132 140-308z"/><path fill="#7f0000" d="M642 290L142 430 98 678z"/><path fill="#073e68" d="M18 78l348-4L222-62z"/><path fill="#051802" d="M38 118l116 12 44 252z"/><path fill="#03379d" d="M114 510L-14 298l-40 432z"/><path fill="#e4000f" d="M522 1086L226 858l92-220z"/><path fill="#9b9578" d="M606 274l4-336-376 344z"/><path fill="#700" d="M290 694l392-28-64 408z"/><path fill="#141819" d="M-2 1086l-60-216h284z"/><path fill="#eff" d="M898 374L570 262l284-36z"/><path fill="#000433" d="M290 578l-40 244-60-272z"/><path fill="#cbd5d7" d="M158 186L262 38l100 280z"/><path fill="#262c13" d="M438 78l-280 52 180 28z"/><path fill="#ca9f77" d="M82 190l96 296-240-244z"/><path fill="#1d1a1b" d="M550-62h-84l84 312z"/><path fill="#8f0000" d="M646 558l236-164-488 136z"/><path fill="#020109" d="M782-18l116 232-152-12z"/><path fill="#030000" d="M874 570L722 462h76z"/><path fill="#efa76b" d="M34 794l-96-40 184-248z"/><path fill="#cd0011" d="M234 350l152-40L86 562z"/><path fill="#aedfff" d="M858 738l-4-184-116-64z"/><path fill="#4e64c1" d="M186 598l56 228L6 846z"/><path fill="#f7faf8" d="M-62-22l192-20L22 102z"/><path fill="#f8ffff" d="M258 890l244 196-364-140z"/><path fill="#5c0000" d="M730 418L478 778l148 160z"/><path fill="#8f999e" d="M686 50l48 208 12-288z"/></g></svg>