<svg xmlns="http://www.w3.org/2000/svg" width="228" height="278" viewBox="0 0 836 1024"><path fill="#836a64" d="M0 0h836v1024H0z"/><path fill="#d9ebf3" fill-opacity=".702" d="M599.266 1086l-477.8-89.536 251.752-673.773 212.413 30.762z"/><path fill="#3e140e" fill-opacity=".686" d="M898-26.244l-.222 355.799-919.504-46.65L5.29-39.742z"/><path fill="#3b563e" fill-opacity=".796" d="M870.712 654.072L528 793.085l97.828-442.957L898 412.892z"/><path fill="#b00" fill-opacity=".373" d="M453.523 851.44L300.915 571.057 404.8 152.27-62 436.006z"/><path fill="#c38069" fill-opacity=".639" d="M575.781 69.125l1.237 289.82-187.491-37.914 6.188-231.344z"/><path fill="#85411c" fill-opacity=".824" d="M-62 614.241l135.924-91.86L177.83 1086l-191.664-60.384z"/><path fill="#dadbc4" fill-opacity=".808" d="M665.866 900.559l146.452-35.569-185.384-84.914-20.38-50.149z"/><path fill="#d2dbe6" fill-opacity=".843" d="M687.742 1086H165.335l5.535-255.244 341.52-56.343z"/><path fill="#b57d6c" fill-opacity=".976" d="M465.909 715.868L44.912 548.462 265.474 313.45 155.136 517.902z"/><path fill="#111919" fill-opacity=".808" d="M517.005-58.341l96.449 260.512L898 176.39 798.48-62z"/><path fill="#c1060a" fill-opacity=".525" d="M368.824 309.65l-43.365 146.636L-62 208.989l244.61-23.664z"/><path fill="#181c1d" fill-opacity=".835" d="M.671-62l-43.068 231.03 349.104 20.388L281.103-62z"/><path fill="#d4dbe6" fill-opacity=".8" d="M599.063 382.524l1.161 64.061-335.543 148.596 136.867-286.846z"/><path fill="#002d50" fill-opacity=".455" d="M162.677 853.488L156.515 1086-62 1063.036l57.904-116.928z"/><path fill="#3c6142" fill-opacity=".267" d="M69.837 589.719l143.065-95.6 188.705 173.91 24 211.409z"/><path fill="#8a1c25" fill-opacity=".49" d="M882.726 441.664l-275.01-8.79-32.536-251.847L898 206.087z"/><path fill="#ce9f14" fill-opacity=".596" d="M53.151 741.28L34.605 889.213-62 954.02l85.249-427.594z"/><path fill="#90806b" fill-opacity=".541" d="M537.722 792.215L578.05 928.33l173.296-225.57L557.899 598.1z"/><path fill="#07b641" fill-opacity=".376" d="M465.125 492.44l-36.172 63.835 152.688 7.216-35.12-52.327z"/><path fill="#c00810" fill-opacity=".573" d="M218.358 552.44L-62 342.336l232.011 122.178 274.157-255.121z"/><path fill="#920b12" fill-opacity=".569" d="M542.827 303.707L357.446 262.19l105.076 72.794 48.93 28.546z"/><path fill="#091d1b" fill-opacity=".498" d="M862.38 1086l-207.068-59.719 20.25-39.723 206.052-12.3z"/><path fill="#dae8f1" fill-opacity=".573" d="M153.777 953.492l110.634-21.147-30.987-284.11-13.198 2.643z"/><path fill="#272e22" fill-opacity=".647" d="M220.41 335.265L389.21-62h55.964l-73.535 274.621z"/><path fill="#005d37" fill-opacity=".447" d="M643.41 617.292l52.945-190.652L898 432.207v301.341z"/><path fill="#ffeaf4" fill-opacity=".584" d="M129.249 472.26l62.826-84.15 32.995 2.71-34.445 53.393z"/><path fill="#b70300" fill-opacity=".357" d="M26.83 946.27l80.683-56.037 15.385-308.964-69.507 1.197z"/><path fill="#e6f2ff" fill-opacity=".486" d="M429.234 305.544l-76.813 15.285 1.65 101.292 251.713 105.581z"/><path fill="#5d5755" d="M72.524 956.457l66.737-169.722 45.831-26.86-45.699 258.475z"/><path fill="#95130f" fill-opacity=".773" d="M149.753 439.91L-62 508.21v-61.006l315.923-149.972z"/><path fill="#263f2a" fill-opacity=".365" d="M79.336 575.62l181.52 56.978 65.726 106.98L77.935 615.123z"/><path fill="#dd272e" fill-opacity=".584" d="M389.62 238.433l-189.217 96.73 50.178 67.565 172.867-118.01z"/><path fill="#b0cfa5" fill-opacity=".412" d="M431.188 27.826l61.3-27.528 27.404 14.943-119.94 50.865z"/><path fill="#c2d7ef" fill-opacity=".416" d="M539.753 856.271l-225.287-90.503 221.39-140.561 10.386 95.673z"/><path fill="#d4ced4" fill-opacity=".996" d="M575.15 529.469l34.067-152.138-76.393-49.07-5.707 35.16z"/><path fill="#08626a" fill-opacity=".31" d="M318.637 444.051L182.05 557.366l79.243 17.089 99.365-136.692z"/><path fill="#e1ffe0" fill-opacity=".2" d="M338.627 637.83l-26.092-88.326-138.742 236.854-20.224-137.817z"/><path fill="#ddfad1" fill-opacity=".216" d="M580.932 122.007L550.436 32.41 496.54 200.36l63.792 43.805z"/><path fill="#71757d" fill-opacity=".435" d="M420.648 979.46l49.562-3.49L417.498 1086H291.52z"/><path fill="#010505" fill-opacity=".475" d="M235.264 1086L-62 881.62l58.385 157.517 145.048-39.081z"/><path fill="#e7f0f8" fill-opacity=".549" d="M566.574 804.361l18.67 162.579-397.694-14.046 431.68-91.967z"/><path fill="#85494b" fill-opacity=".627" d="M644.169 412.43L513.654 299.194l207.273-33.978L898 326.033z"/><path fill="#626755" fill-opacity=".741" d="M683.193 559.107l-135.464 266.8-.527-181.763 79.977-228.846z"/><path fill="#251007" fill-opacity=".42" d="M578.235 209.328l119.933-47.057-284.642 15.298 194.838-43.083z"/><path fill="#4f5537" fill-opacity=".792" d="M356.585 192.299L342.674-62h-35.517l-15.231 238.868z"/><path fill="#8e5a2b" fill-opacity=".776" d="M656.956 777.035l61.623 14.701L898 768.258v119.073z"/><path fill="#a3200e" fill-opacity=".42" d="M575.42 486.737l-25.578-54.805 21.967-22.226-.317 26.26z"/><path fill="#eefcda" fill-opacity=".286" d="M794.87 834.212l-22.894 65.48-96.614-11.61-49.084-101.627z"/><path fill="#f36b7b" fill-opacity=".494" d="M620.698 1002.308l-45.843-76.681 40.332-8.784 59.285 64.179z"/><path fill="#adfaf9" fill-opacity=".2" d="M100.657 565.92l56.588-52.692-54.035-27.467-99.245 6.744z"/><path fill="#a4727c" fill-opacity=".447" d="M132.287 375.72L73.102 271.106-62 244.806 7.562 376.49z"/><path fill="#abb2bd" fill-opacity=".294" d="M140.585 987.963L79.29 915.891l356.735 1.102 64.93-281.562z"/><path fill="#bbc3cc" fill-opacity=".886" d="M461.837 517.647l-28.824 71.244 13.627 273.806-112.49-407.62z"/><path fill="#c07a5c" fill-opacity=".514" d="M424.365 711.99l-57.296-79.028-174.032-90.985 83.601 131.443z"/><path fill="#230000" fill-opacity=".231" d="M121.027 533.498l70.737-14.803 167.498-116.39-132.218 159.81z"/><path fill="#d9e3ef" fill-opacity=".753" d="M551.474 638.626l-12.994 128.83L482.49 1086l25.68-489.908z"/><path fill="#f43e4b" fill-opacity=".671" d="M541.77 309.205l-9.757 6.22 86.453 73.484-27.878-54.19z"/><path fill="#1b403c" fill-opacity=".322" d="M616.032 919.103L898 923.713l-120.543-77.962L802 888.811z"/><path fill="#111818" fill-opacity=".788" d="M367.545 195.843L353.302-62l225.402 14.938L406.042 36.5z"/><path fill="#501415" fill-opacity=".412" d="M201.763 354.124l47.95-182.937 200.311 39.047-170.357 78.933z"/><path fill="#e1e7f2" fill-opacity=".651" d="M459.404 409.403l86.128-84.327 30.38 27.79 19.745 73.965z"/><path fill="#c5c5d0" fill-opacity=".478" d="M362.239 639.292l-99.327-67.546L386.957 389.37l-42.267-50.203z"/><path fill="#707662" fill-opacity=".871" d="M898 765.33l-27.375-70.037-303.714-42.71 73.219 140.222z"/><path fill="#580400" fill-opacity=".267" d="M898 455.674v-50.886l-275.894-14.302-35.676 57.884z"/><path fill="#710d01" fill-opacity=".361" d="M614.02 863.414l5.376 85.152 41.328-14.433-91.979-166.22z"/><path fill="#082511" fill-opacity=".404" d="M621.927 547.543l-67.969 54.362 34.429-50.644 3.242-67.41z"/><path fill="#dbe6ee" fill-opacity=".71" d="M209.011 747.462l-47.498 124.92 268.11 24.762-118.052-31.992z"/><path fill="#2a1102" fill-opacity=".341" d="M76.586 646.623l25.893-60.42 162.571 54.915-91.967-4.184z"/><path fill="#d7e1eb" fill-opacity=".969" d="M419.701 301.483l-39.861 12.413-33.182 56.46 134.37 133.008z"/><path fill="#7f726e" fill-opacity=".624" d="M600.503 927.08l-62.57-95.451 11.037-6.818 65.218 85.947z"/><path fill="#b88c16" fill-opacity=".42" d="M57.203 591.67L51.65 878.275 15.593 926.64-62 592.41z"/><path fill="#175123" fill-opacity=".208" d="M360.646 568.966l132.046-38.175 11.173-21.443L297.253 621.92z"/><path fill="#ffe7c5" fill-opacity=".18" d="M402.065 99.936L583.6 154.923l-57.21 221.933 48.656-287.572z"/><path fill="#af091d" fill-opacity=".373" d="M65.833 536.289l15.715 432.326 15.611-355.158L-62 556.273z"/><path fill="#2f3b34" fill-opacity=".376" d="M163.44 929.559l3.806-94.786 30.715-42.107-91.977-17.906z"/><path fill="#4b462f" fill-opacity=".682" d="M386.063 81.006l107.84 10.362 57.995-6.232-43.906-72.722z"/><path fill="#c4907f" fill-opacity=".373" d="M682.647 937.548L620.09 836.994 557.332 590.72l8.302-9.017z"/><path fill="#3e2b1d" fill-opacity=".624" d="M459.61 275.018l22.637 58.577L561.06 286.9l-34.203 26.456z"/><path fill="#ae111a" fill-opacity=".725" d="M386.989 264.964l118.58 68.834-1.695 20.702-157.894-92.37z"/><path fill="#5e0204" fill-opacity=".329" d="M634.504 328.917l-62.16-153.533L898 185.739l-176.393 53.139z"/><path fill="#fdebf3" fill-opacity=".325" d="M195.805 379.399l35.57 11.985-60.659 72.699-21.961-15.668z"/><path fill="#9b1814" fill-opacity=".58" d="M-62 238.958l320.991-49.03-46.837 164.76 25.46-8.118z"/><path fill="#647787" fill-opacity=".22" d="M420.438 681.898l-241.736 71.821 221.88 11.903 31.377 71.587z"/><path fill="#d7e4e6" fill-opacity=".761" d="M570.24 562.167l12.085-184.166 8.568 116.847-5.596 54.49z"/><path fill="#c4cfd6" d="M549.334 515.742L448.356 719.027 352.7 598.389l175.413 42.873z"/><path fill="#e5eef7" fill-opacity=".557" d="M566.35 901.843L692.136 1086 539.122 831.985 272.262 998.89z"/><path fill="#548b9b" fill-opacity=".224" d="M730.364 880.72l-68.516 1.202 13.632 106.774L898 993.858z"/><path fill="#690006" fill-opacity=".502" d="M251.388 508.546l99.108-97.529-22.48-10.555-15.846 4.857z"/><path fill="#418377" fill-opacity=".259" d="M727.33 534.37L592.678 423.711l32.775 203.51L898 565.443z"/><path fill="#dbe5ef" fill-opacity=".714" d="M546.059 355.863l15.83 118.823-73.71 32.354-10.214-160.315z"/><path fill="#633f40" fill-opacity=".486" d="M602.17 706.411l-47.145-77.601-11.346 106.432 32.362 49.285z"/><path fill="#a76a4f" fill-opacity=".816" d="M390.707 247.793l30.713-27.366L473.486 70.62l-20.498 234.134z"/><path fill="#171616" fill-opacity=".608" d="M585.93-45.22l-17.232 372.4 9.951-122.639 112.98-63.619z"/><path fill="#dae3cb" fill-opacity=".494" d="M608.706 906.348l-18.68-60.315-15.762-42.618 36.43 46.135z"/><path fill="#91746b" d="M237.431 505.115l58.67 180.12-47.151-143.54-9.493 43.598z"/><path fill="#471415" fill-opacity=".667" d="M107.32 47.53L256.482-61.958 51.589-62-62 10.238z"/><path fill="#819384" fill-opacity=".6" d="M149.023 660.362L135.49 675.73l4.579 98.05L262.04 656.505z"/><path fill="#685a00" fill-opacity=".447" d="M611.369 558.498l-43.082 14.026 8.958 61.046 25.365-7.262z"/><path fill="#131e1b" fill-opacity=".529" d="M98.577-62l215.964 18.216-55.827 335.185 61.467-19.534z"/><path fill="#eeddbd" fill-opacity=".525" d="M144.124 513.633l-42.612 43.314-20.062-.452 50.554-50.204z"/><path fill="#f6f5e4" fill-opacity=".431" d="M644.618 804.252l99.497 58.372-102.377 34.974 20.34-6.81z"/><path fill="#ccffdf" fill-opacity=".192" d="M426.137 96.142l-28.43-61.1 3.092 72.693-1.385 20.232z"/><path fill="#a7afb8" fill-opacity=".584" d="M469.429 848.185L268.219 819l32.853-23.633 25.907-66.351z"/><path fill="#ffd5af" fill-opacity=".192" d="M534.029 151.958l-52.475 59.306-52.369-49.635 124.998 54.31z"/><path fill="#c8141a" fill-opacity=".416" d="M125.8 435.402l5.708 73.426 296.603-263.776-202.902 267.365z"/><path fill="#027947" fill-opacity=".361" d="M433.06 426.455l-15.148-9.247 42.957.627 1.703 1.185z"/><path fill="#ff676b" fill-opacity=".318" d="M204.824 374.13l47.012-66.354 68.343-38.11-117.376 140.32z"/><path fill="#545356" fill-opacity=".494" d="M535.228 1086l-108.822-1.934 21.244-93.11L348.743 1086z"/><path fill="#c8d4d7" fill-opacity=".937" d="M503.023 520.348l-10.779 90.623 27.488 17.509-97.661 43.51z"/><path fill="#009e2d" fill-opacity=".227" d="M563.254 504.459l-45.456 63.838-42.633-64.63-41.695 55.681z"/><path fill="#333f44" fill-opacity=".537" d="M62.269 944.07l126.635 84.495L220.306 1086l-139.697-23.814z"/><path fill="#135031" fill-opacity=".22" d="M813.02 782.922L695.01 481.888l-77.942 216.9 228.859-107.755z"/><path fill="#472b1a" fill-opacity=".506" d="M465.357 256.344l86.43-3.802-1.139-2.627-29.43-10.049z"/><path fill="#8b5c65" fill-opacity=".576" d="M35.156 563.55l32.085-9.175 56.77-87.211-180.666 47.291z"/><path fill="#242d0a" fill-opacity=".153" d="M278.007 884.37l119.381 22.317-76.641-2.371 62.149 28.093z"/><path fill="#766260" fill-opacity=".404" d="M685.781 298.93l211.069 11.701-62.208 66.193-142.71-15.387z"/><path fill="#590f11" fill-opacity=".506" d="M251.682 173.037l-282.65.088L-62 207.002l321.17-7.038z"/><path fill="#e9f0ff" fill-opacity=".275" d="M304.054 613.46l163.66-108.163-153.975 73.216-34.632-12.188z"/><path fill="#d6dee9" d="M730.013 1080.819l-221.14-166.57-72.3 144.577 223.065-19.23z"/><path fill="#afa27b" fill-opacity=".365" d="M681.811 789.984l135.683 63-22.442 36.218-140.8-89.868z"/></svg>