<svg xmlns="http://www.w3.org/2000/svg" width="228" height="278" viewBox="0 0 836 1024"><path fill="#575257" d="M0 0h836v1024H0z"/><path fill="#8faacd" fill-opacity=".518" d="M143.303 390.702l535.552-78.492-235.931 744.196L306.674 1086z"/><path fill="#31241e" fill-opacity=".875" d="M898 862.817l-207.461-481.6L-62 20.872 834.364-62z"/><path fill="#1e100c" fill-opacity=".537" d="M307.347 262.717L133.624-62-62-2.09l81.599 534.496z"/><path fill="#765242" d="M411.605 84.814L511.37 389.85l-152.906 73.116-105.648-355.885z"/><path fill="#e6ebfe" fill-opacity=".71" d="M134.258 434.064l184.737-97.963-28.714 45.076-218.83 136.62z"/><path fill="#eef4ff" fill-opacity=".553" d="M759.384 591.21l-32.98-148.714-66.317-78.406-25.013-5.822z"/><path fill="#535c70" fill-opacity=".98" d="M577.64 643.488L539.073 1086l-159.07-271.545-56.964-155.891z"/><path fill="#faf5ff" fill-opacity=".376" d="M408.795 641.898l183.65-327.073 24.742 198.54L352.53 443.32z"/><path fill="#986f58" fill-opacity=".976" d="M461.11 795.624l67.831 95.323 287.734-139.454-15.422-66.797z"/><path fill="#cecdcf" fill-opacity=".616" d="M463.4 1024.729l.504-57.716-161.338-235.656 94.242 350.756z"/><path fill="#eff1fe" fill-opacity=".725" d="M687.09 401.077L520.55 352.14l-19.226-48.553 127.222 50.32z"/><path fill="#442215" fill-opacity=".431" d="M62.594 923.682l-42.42-221.726L171.132 459.62l99.741 269.22z"/><path fill="#c8c3c4" fill-opacity=".573" d="M195.173 462.436l88.59-45.703 9.502 477.354-50.09-257.01z"/><path fill="#00306a" fill-opacity=".612" d="M717.938 585.94l-30.17-138.855-57.278-72.017-21.255 335.771z"/><path fill="#ff9641" fill-opacity=".29" d="M-62 605.364L83.857 1086 48.704 662.053l54.493-153.048z"/><path fill="#c9e9f3" fill-opacity=".388" d="M748.737 1011.939L898 1010.336 713.613 1086l-70.03-229.797z"/><path fill="#2b5a90" fill-opacity=".729" d="M319.406 622.475l-22.79-325.835 70.922 145.61-7.718 341.073z"/><path fill="#88807c" fill-opacity=".737" d="M581.579 1086L407.786 719.416l101.077 25.963L652.663 1086z"/><path fill="#00367e" fill-opacity=".329" d="M581.424 816.754l27.419-36.557-154.007-228.354 42.24-267.394z"/><path fill="#00428e" fill-opacity=".435" d="M218.869 650.448L97.072 610.14l-35.37-107.262 127.69-38.752z"/><path fill="#062954" fill-opacity=".565" d="M454.46 811.34l-45.453-50.38-42.768 28.837L556.969 1086z"/><path fill="#f38e40" fill-opacity=".333" d="M718.912 795.345l95.33-74.715-45.38-135.285-85.975 47.281z"/><path fill="#336096" fill-opacity=".835" d="M542.034 990.173L326.804 1086l-51.156-441.682L377.506 1086z"/><path fill="#1d5ea6" fill-opacity=".757" d="M585.339 371.564l-98.51-7.868 179.593 86.837 2.864-35.344z"/><path fill="#012341" fill-opacity=".624" d="M684.602 945.532L663.6 1086l-86.815-212.072 26.45-.817z"/><path fill="#cbb0a3" fill-opacity=".396" d="M528.71 387.32l-28.444 142.388 104.898 148.56 18.395-159.557z"/><path fill="#a1a5a8" fill-opacity=".98" d="M705.267 539.81l48.411 45.497 13.928-26.9-60.86-74.602z"/><path fill="#1f1c1c" fill-opacity=".961" d="M858.862 155.59l-318.151 164.5-58.69-17.76L739.344-62z"/><path fill="#f8b6a6" fill-opacity=".349" d="M347.867 160.886l-.71-63.406-67.316-2.195-15.772 73.653z"/><path fill="#cce6ff" fill-opacity=".337" d="M317.492 1036.724L294.07 844.751 252.845 1086l-70.68-92.734z"/><path fill="#5c2500" fill-opacity=".31" d="M526.1 910.237L898 692.768l-40.88 261.974-361.168-172.276z"/><path fill="#ffddc6" fill-opacity=".29" d="M-60.324 700.486L150.222 422.3l5.87-1.46L-62 832.442z"/><path fill="#252a2e" fill-opacity=".804" d="M606.538 673.227L635.5 774.058l17.473-3.298-9.806-284.085z"/><path fill="#f4f0ea" fill-opacity=".255" d="M504.627 686.437l-54.37-163.058 14.375-105.43L347.04 555.507z"/><path fill="#345e87" fill-opacity=".533" d="M267.812 861.645l-183.26-17.4 27.148 89.94 176.336 113.072z"/><path fill="#8a5336" fill-opacity=".718" d="M9.075 725.702l44.606 301.254L296.195 1086 123.747 951.212z"/><path fill="#493438" fill-opacity=".812" d="M212.54 400.722l90.136-136.29L-62 263.71l193.063 150.753z"/><path fill="#714935" d="M285.945 249.981l195.605-82.53 15.307 11.339-69.46 269.85z"/><path fill="#703315" fill-opacity=".365" d="M56.852 578.166L16.465 787.018l36.709 76.371 222.511-66.317z"/><path fill="#000909" fill-opacity=".353" d="M222.063 595.833L33.895 704.448l86.892-115.137 29.11-65.297z"/><path fill="#253f61" fill-opacity=".573" d="M511.708 683.06l98.105 113.84-57.938-26.273-237.806-191.834z"/><path fill="#2f6aa8" fill-opacity=".659" d="M288.28 424.44l-78.571 21.068 81.1-67.62 135.215 86.077z"/><path fill="#faf3fe" fill-opacity=".4" d="M626.568 349.754l62.153 41.245 27.88 61.614-181.5-136.811z"/><path fill="#15110c" fill-opacity=".533" d="M21.046-62l426.31 109.316 79.94 74.14L-62 22.664z"/><path fill="#26221c" fill-opacity=".51" d="M-33.378 232.564L-17.08-48.14l303.087 207.518 145.856 20.7z"/><path fill="#956660" fill-opacity=".251" d="M898 414.524l-157.257-12.707 11.109-122.133 33.346-57.258z"/><path fill="#9d7c72" fill-opacity=".659" d="M277.114 213.895l91.814 275.471-62.579-230.226 23.4-79.014z"/><path fill="#3c1a00" fill-opacity=".2" d="M748.213 682.235L503.465 541.932l5.884 127.636 183.317 63.147z"/><path fill="#544d4e" fill-opacity=".773" d="M-62 408.507l173.933 73.302-69.428 60.76L-62 793.315z"/><path fill="#8ba7ce" fill-opacity=".267" d="M350.444 724.726l74.187 55.063 196.333-69.39-122.893-11.803z"/><path fill="#d1bfbf" fill-opacity=".404" d="M204.437 544.734l102.531 108.834-12.551-197.664-90.671 17.05z"/><path fill="#440220" fill-opacity=".251" d="M220.145 524.15l216.96 65.1-133.782-23.283 3.58-50.91z"/><path fill="#53718c" fill-opacity=".647" d="M71.152 1086l-68.917-47.225L-62 411.472 37.678 953.72z"/><path fill="#224a7e" fill-opacity=".788" d="M769.93 574.703l14.405 15.78-119.29 40.264-14.71-81.504z"/><path fill="#b8886a" fill-opacity=".725" d="M801.41 667.232l-34.902 101.354-315.945 69.262L639.46 774.19z"/><path fill="#2c99ff" fill-opacity=".275" d="M66.446 569.121l20.173-61.73 142.57-88.752 15.31 28.09z"/><path fill="#245895" fill-opacity=".58" d="M512.877 309.595l-2.442 142.864-90.021-10.365 47.156-31.02z"/><path fill="#f6e6fa" fill-opacity=".212" d="M604.024 405.012l-94.997-9.954-6.464 175.88 38.428-95.168z"/><path fill="#54555b" fill-opacity=".49" d="M196.55 585.477l80.212 46.049-98.88 97.875L92.798 680.6z"/><path fill="#e0e8fe" fill-opacity=".455" d="M363.153 996.23l51.603-.212 116.592 50.444-158.564-10.892z"/><path fill="#b4e2fe" fill-opacity=".239" d="M623.684 1007.065l-183.456-89.652 159.821 26.947-105.258-59.923z"/><path fill="#c39684" fill-opacity=".914" d="M570.716 780.502L451.53 755.727l53.166 23.148-29.377 26.928z"/><path fill="#e4e5f3" fill-opacity=".659" d="M136.171 423.415l127.997-20.214-142.18 75.62 20.626-56.88z"/><path fill="#1e4983" fill-opacity=".949" d="M709.3 497.77l-17.288-42.348-74.89-50.646-2.486 92.199z"/><path fill="#d2e0e4" fill-opacity=".302" d="M671.83 879.65l-47.221-7.624 65.362 74.054 56.334 99.149z"/><path fill="#02398a" fill-opacity=".447" d="M458.11 663.095l100.163 25.965-174.884 30.228-65.862-19.846z"/><path fill="#21649f" fill-opacity=".212" d="M759.984 810.064l102.41 202.985-442.749-30.143L672.617 1086z"/><path fill="#e2dce5" fill-opacity=".392" d="M301.449 335.858L29.652 566.313 223.46 385.752l73.954 18.781z"/><path fill="#949695" fill-opacity=".765" d="M310.313 735.144l-93.095-163.84 99.217 81.352 116.042 310.182z"/><path fill="#cbced4" fill-opacity=".522" d="M292.189 919.028l-24.136-68.798 27.626-70.53-38.54-101.332z"/><path fill="#312513" fill-opacity=".506" d="M424.141 438.982l-34.249-127.449-41.045 17.97 34.684 77.542z"/><path fill="#7e8d95" fill-opacity=".482" d="M356.43 688.584l277.31-90.685-374.04 56.322 82.839-26.238z"/><path fill="#e8f5ff" fill-opacity=".255" d="M163.62 499.368l234.682-2.862 63.857 157.73-27.901-178.828z"/><path fill="#8d8a8d" fill-opacity=".922" d="M638.938 794.825l-80.657-111.202 4.267-301.868-2.82 346.784z"/><path fill="#3c2300" fill-opacity=".478" d="M702.445 817.45l118.214-30.032-114.41 59.786-145.417 36.45z"/><path fill="#070d55" fill-opacity=".204" d="M509.29 641.764l-6.402-211.68 68.786 46.726-96.616 10.374z"/><path fill="#df947e" fill-opacity=".259" d="M270.527 126.773L408.358 277.41l-162.041 34.75 115.166-34.018z"/><path fill="#2f2b2b" fill-opacity=".918" d="M622.524 298.724l40.402-91.518 164.207 326.19-90.512-68.14z"/><path fill="#00040f" fill-opacity=".231" d="M468.286 652.026l67.006 121.45 75.243 12.818-17.987-24.896z"/><path fill="#4c3c33" fill-opacity=".933" d="M898 856.948L728.093 476.36l110.562 67.404-59.116 78.007z"/><path fill="#1a242d" fill-opacity=".545" d="M128.864 392.248l-34.056-36.954-37.35 130.121 30.117 36.13z"/><path fill="#2a231f" fill-opacity=".859" d="M-25.85 18.945l294.91 223.824 6.229-216.419-301.82 92.51z"/><path fill="#755863" fill-opacity=".529" d="M254.807 885.57l27.866 31.197-31.606-206.012-83.518-76.17z"/><path fill="#dcdfec" fill-opacity=".663" d="M532.823 364.317L681.621 387.3l-93.668-58.113-77.826 21.745z"/><path fill="#17355c" fill-opacity=".725" d="M502.768 1086l-20.841-13.665.333-122.352 58.405 20.585z"/><path fill="#743a1b" fill-opacity=".537" d="M649.24 641.657l27.804-13.679 73.603 41.455-42.98 59.915z"/><path fill="#132037" fill-opacity=".396" d="M898 857.088l-94.818 32.99-13.29 102.875L898 1001.336z"/><path fill="#002456" fill-opacity=".165" d="M278.185 764.986l.656-85.331L384.932 508.59l-17.929 105.89z"/><path fill="#f0edeb" fill-opacity=".333" d="M609.111 480.387l-13.204-67.612-61.458-17.98 68.513 114.49z"/><path fill="#292423" fill-opacity=".976" d="M674.045-62L491.412 272.543 711.649 397.71 551.9 270.15z"/><path fill="#00031d" fill-opacity=".235" d="M325.481 499.655l-74.933 1.91 63.882 16.305 82.5-4.895z"/><path fill="#002051" fill-opacity=".631" d="M538.185 623.158l17.735-9.788-6.466 72.474-23.226.374z"/><path fill="#96090c" fill-opacity=".525" d="M299.642 544.507l4.377-7.24-60.918-9.705 21.694-13.324z"/><path fill="#000f27" fill-opacity=".212" d="M602.701 820.94L423.89 860.787 312.368 661.824l139.04 169.19z"/><path fill="#e7e5f1" fill-opacity=".357" d="M118.415 479.682l-20.677-11.638 42.732-28.588 217.258-132.448z"/><path fill="#b0afb2" fill-opacity=".42" d="M386.665 625.647l-6.418-127.493 126.665 183.754 13.566-50.5z"/><path fill="#d8d6e2" fill-opacity=".812" d="M85.855 529.406l81.163-114.316 65.2-9.386-112.147 39.951z"/><path fill="#d4f1ff" fill-opacity=".145" d="M688.912 1086l-23.9-116.317 159.677 106.56-373.522-92.974z"/><path fill="#ebeefa" fill-opacity=".592" d="M454.927 967.297l-85.144-3.917 10.447 13.17 77.015-.197z"/><path fill="#a0623c" fill-opacity=".4" d="M898 725.892L679.778 835.16l-163.071 46.055-16.24-32.748z"/><path fill="#2a0f00" fill-opacity=".396" d="M339.205 200.774l-18.163-40.042 201.003-3.873-67.51-60.944z"/><path fill="#888490" fill-opacity=".38" d="M122.794 947.428L407.942 1086 112.948 965.743 92.82 891.408z"/><path fill="#2c5e95" d="M361.25 428.028l-41.254-42.57-48.198 14.559-32.755 18.294z"/><path fill="#c9cedf" fill-opacity=".498" d="M299.82 1086l-20.59-211.384-5.242-6.588 20.284-34.517z"/><path fill="#ddd9d1" fill-opacity=".224" d="M262.664 1001.217L73.955 1086-62 986.942 310.05 1086z"/><path fill="#b0b0b3" fill-opacity=".49" d="M427.266 753.407l82.3 71.905-13.57-5.972-95.045-61.915z"/><path fill="#000b21" fill-opacity=".584" d="M649.6 514.423l-26.623 135.666-.962-168.129 24.612 84.612z"/><path fill="#165eab" fill-opacity=".38" d="M493.514 343.259l112.358 57.711-77.918-.27-46.5 139.416z"/><path fill="#4f3d31" fill-opacity=".655" d="M467.352 14.51L330.233-5.93l259.953 111.922-87.805 30.275z"/><path fill="#805945" fill-opacity=".973" d="M409.09 465.746l7.814 12.657 53.456-281.564 16.684 180.788z"/><path fill="#65604d" fill-opacity=".424" d="M520.664 544.194l42.186 1.606 6.742-17.765-26.39-45.038z"/><path fill="#010c14" fill-opacity=".412" d="M643.28 1001.522l13.596-83.12-114.983-41.194 39.84-5.384z"/><path fill="#5c4f4f" fill-opacity=".631" d="M664.481 763.002l28.187-43.738-53.04-107.843 7.889 167.074z"/><path fill="#00316c" fill-opacity=".31" d="M107.827 619.356l85.688-44.573-10.327-91.69-114.76 66.597z"/><path fill="#315371" fill-opacity=".561" d="M210.856 1011.571L174.7 970.094l99.136-97.223 14.249 47.382z"/><path fill="#4b6f95" fill-opacity=".255" d="M-62 311.526l82.161 41.217 29.918-99.866-52.15-5.288z"/><path fill="#e4effe" fill-opacity=".369" d="M291.873 500.334L179.31 493.9l20.833 3.74 93.53-42.812z"/><path fill="#033d84" fill-opacity=".318" d="M483.807 621.724l76-23.16-73.127-61.659-31.838 216.08z"/><path fill="#fbf2c3" fill-opacity=".067" d="M499.86 531.603l8.12-54.616 117.51 75.3-14.605 199.493z"/><path fill="#d99480" fill-opacity=".247" d="M286.547 85.57l133.862 119.2-16.952-53.63-132.3 19.158z"/></svg>