<svg xmlns="http://www.w3.org/2000/svg" width="228" height="278" viewBox="0 0 836 1024"><path fill="#715249" d="M0 0h836v1024H0z"/><path fill="#1e0903" fill-opacity=".753" d="M508.083 279.476L898 282.606 851.35-20.776 428.61-62z"/><path fill="#ffb4cc" fill-opacity=".365" d="M775.75 420.42L630.816 287.915-62 556.408l423.5 14.487z"/><path fill="#020706" fill-opacity=".808" d="M638.405 988.08l-346.594-61.092L90.578 1086l692.76-67.557z"/><path fill="#d4d1aa" fill-opacity=".706" d="M820.922 820.127l-52.333 149.248L898 1058.017l-83.95-593.13z"/><path fill="#cde1ff" fill-opacity=".392" d="M617.023 1086L592.77 413.34l74.338 614.616-114.809-415.119z"/><path fill="#c9a187" fill-opacity=".518" d="M123.2 463.05l209.145 7.247-85.623-449.848 238.342 52.792z"/><path fill="#c89da4" fill-opacity=".961" d="M780.804 501.953l-26.627-102.289-74.283-72.835-201.464-55.86z"/><path fill="#6a0b0b" fill-opacity=".647" d="M604.236 384.582l45.699 531.033 141.235 8.394 1.318-171.748z"/><path fill="#ffc6ff" fill-opacity=".188" d="M576.225 957.363L264 948.602l53.537-246.779 222.202 4.717z"/><path fill="#69342d" fill-opacity=".976" d="M257.915 990.507L133.771 853.799l69.033-393.265 109.228 237.442z"/><path fill="#7d785f" d="M-14.995 1086l85.537-121.164 41.33-555.636-173.872.41z"/><path fill="#4e3e2e" fill-opacity=".992" d="M239.69 181.454L101.038 282.198l394.053 71.406-123.538 57.648z"/><path fill="#641311" fill-opacity=".58" d="M898 576.113L729.292 372.987 483.496 192.764l211.505-27.416z"/><path fill="#4d6045" fill-opacity=".569" d="M-62-5.02L84.305 609.155l191.22-559.09L553.26-62z"/><path fill="#b39065" fill-opacity=".859" d="M825.762 854.828L898 627.675l-90.55-126.582-33.08 48.279z"/><path fill="#741416" fill-opacity=".659" d="M559.052 1071.277L490.49 701.918l-18.545-117.913-4.074-319.397z"/><path fill="#cdf2fe" fill-opacity=".584" d="M442.621 550.114l24.807 43.917 4.236-137.402-28.114-77.52z"/><path fill="#0f0a07" fill-opacity=".729" d="M823.466 466.928l-95.882 67.413-76.604 32.086 89.399 12.4z"/><path fill="#7c2f24" fill-opacity=".973" d="M476.376 774.663L397.379 238.76l74.052 687.905 25.96 49.966z"/><path fill="#99e6f0" fill-opacity=".357" d="M500.021 238.3l11.065 220.362 71 627.338-92.422-540.135z"/><path fill="#020e02" fill-opacity=".627" d="M57.784 581.646l79.92 58.656-36.496 74.615 104.207-102.289z"/><path fill="#c7eff4" fill-opacity=".612" d="M343.34 409.347l.046 147.839 26.544 40.265-6.088-195.854z"/><path fill="#b19f6c" fill-opacity=".541" d="M335.326 14.474l100.548 3.839L476.84 323.49 264.244 59.618z"/><path fill="#c6dce4" fill-opacity=".71" d="M396.057 544.447l20.039-2.139-4.245-140.826-24.875 1.492z"/><path fill="#ba0c10" fill-opacity=".537" d="M620.045 346.703l76.02 115.224-116.962-98.312-171.774-35.06z"/><path fill="#7e1a1d" fill-opacity=".933" d="M577.606 635.611l49.949 271.178-58.245-561.657 7.54 249.343z"/><path fill="#9fbcc8" fill-opacity=".533" d="M590.098 729.491l6.013 245.582-50.236-458.536 19.582-16.648z"/><path fill="#8d2604" fill-opacity=".592" d="M366.417 579.834l96.509 82.992-68.968-108.861-15.071-397.511z"/><path fill="#564c36" fill-opacity=".996" d="M388.632 202.618l-.335-29.287L-62 233.091l357.822-26.755z"/><path fill="#b2f9f6" fill-opacity=".506" d="M396.7 750.968l22.954 180.606-13.778 7.807-34.626-358.403z"/><path fill="#5e0405" fill-opacity=".698" d="M412.889 646.258l-5.65 137.18 39.893 296.188-7.376-193.32z"/><path fill="#aaa2a5" fill-opacity=".827" d="M204.175 508.84l-88.918 79.554 40.244-199.113 3.481 233.292z"/><path fill="#a2a9b3" fill-opacity=".996" d="M681.196 431.108l4.828-46.398 60.36 142.899-24.399-15.483z"/><path fill="#9efdff" fill-opacity=".341" d="M447.643 468.621l44.067 425.413 28.921 90.99-26.382-258.916z"/><path fill="#a6f5fd" fill-opacity=".376" d="M430.532 686.194l-7.512 18.556 30.15 263.298 23.82-28.495z"/><path fill="#9e3437" fill-opacity=".965" d="M237.355 387.221l4.647 37.514 3.224 184.767 25.852-234.319z"/><path fill="#4b4f48" d="M434.033 709.191l-53.144-22.93 193.523-53.546-10.585 46.7z"/><path fill="#201600" fill-opacity=".58" d="M320.264 366.202l124.24-148.572-30.46 109.223-13.309 73.763z"/><path fill="#9e0107" fill-opacity=".592" d="M314.447 540.269l63.65 102.006-31.347-15.87-11.31-292.785z"/><path fill="#b1eafe" fill-opacity=".392" d="M292.379 446.64l41.63 262.736-20.505-349.455-15.441 125.547z"/><path fill="#4a3b35" fill-opacity=".545" d="M473.067 505.088l52.13-90.058 64.483 88.897-63.934 21.941z"/><path fill="#770008" fill-opacity=".545" d="M589.075 982.027l-23.457-54.77-44.695-454.788L563.38 670.02z"/><path fill="#b28e66" fill-opacity=".82" d="M-62 801.331L70.642 606.856l34.637 6.712L-8.016 922.464z"/><path fill="#471915" fill-opacity=".902" d="M481.507 359.133l-83.12 42.344 158.126-183.74-85.158-6.453z"/><path fill="#922127" fill-opacity=".808" d="M279.943 444.695l-4.95 78.83 17.411 60.204 9.87-247z"/><path fill="#dbbdc7" fill-opacity=".765" d="M573.408 318.665l-68.59-17.752-17.843 28.297 89.54 7.173z"/><path fill="#001112" fill-opacity=".482" d="M424.49 18.031l-323.616-3.053L576.976-62l18.72 308.71z"/><path fill="#10100e" fill-opacity=".839" d="M776.108 1006.357L332.531 1086l-77.29-166.52 146.654 30.884z"/><path fill="#84342b" fill-opacity=".796" d="M898 230.37l-115.37 45.758-29.78 164.774L898 609.144z"/><path fill="#d2f6de" fill-opacity=".616" d="M810.107 866.795l-24.842 93.631 100.871 75.948L898 790.636z"/><path fill="#ded3ff" fill-opacity=".243" d="M310.87 296.476l-50.98 246.731 3.204-164.462L85.72 435.448z"/><path fill="#7b0308" fill-opacity=".439" d="M385.11 771.225l-47.663 188.94-2.455-230.174 72.371 291.449z"/><path fill="#b4eef8" fill-opacity=".498" d="M352.985 800.18l8.789 142.883 18.492-12.552-23.16-232.314z"/><path fill="#fcf6ff" fill-opacity=".267" d="M648.044 883.42L616.6 713.847l28.034 298.772 49.723-84.833z"/><path fill="#a20007" fill-opacity=".573" d="M187.473 423.255l-20.486 125.881 6.161-6.018L124.1 601.72z"/><path fill="#d6f0ff" fill-opacity=".325" d="M535.537 322.066l-7.392 149.486 69.271-119.18.23 130.164z"/><path fill="#ac251b" fill-opacity=".769" d="M421.413 475.281l7.88-121.362 13.984 123.498-28.126 165.222z"/><path fill="#8de6fa" fill-opacity=".345" d="M640.778 411.76l80.047 150.435-33.228-25.17-77.654-130.244z"/><path fill="#baf3ff" fill-opacity=".443" d="M763.647 477.735l-25.066-104.058-61.191 13.378-87.295-54.424z"/><path fill="#c2f1fb" fill-opacity=".455" d="M314.701 894.856l-7.037 26.468 24.2 7.746-2.768-222.092z"/><path fill="#aceeff" fill-opacity=".357" d="M279.16 567.367l-56.173-168.545-10.491 150.072 62.465-139.549z"/><path fill="#000d0c" fill-opacity=".643" d="M741.978 241.085L898 262.837V73.515l-175.227 8.202z"/><path fill="#d6f1fc" fill-opacity=".573" d="M481.587 340.336l20.391 21.783 13.518 95.42-24.827-5.599z"/><path fill="#ffb99f" fill-opacity=".235" d="M366.794 715.878l-185.807-21.92-32.533-22.337 80.56-24.884z"/><path fill="#910b0f" fill-opacity=".722" d="M563.94 347.877l-8.185 66.127 21.744 122.572 15.775 10.864z"/><path fill="#660f0b" fill-opacity=".631" d="M786.777 658.714l-179.453-309.61 142.751 202.582-129.603 97.32z"/><path fill="#9b010b" fill-opacity=".475" d="M608.12 910.856l-14.501-235.43 25.834 98.729 19.675 215.692z"/><path fill="#b0c3ca" fill-opacity=".69" d="M568.643 929.815L533.71 794.44l4.475 135.034 1.125-7.498z"/><path fill="#6a0000" fill-opacity=".6" d="M508.535 883.69l38.26 148.554-18.266-181.282-13.04-107.113z"/><path fill="#deebfe" fill-opacity=".29" d="M257.964 833.376l17.877 127.336 19.138-96.596 18.935-17.533z"/><path fill="#c3f6c8" fill-opacity=".208" d="M313.145 21.61L437.25 7.788 230.593 196.294l58.872-148.209z"/><path fill="#6d421b" fill-opacity=".42" d="M630.453 124.01L574.895-40.75 797.155-62 774.96 60.365z"/><path fill="#d5030f" fill-opacity=".439" d="M577.299 352.649l-42.172 5.256-18.759 108.298-9.77-141.87z"/><path fill="#acbdc6" fill-opacity=".765" d="M595.386 966.679l-23.245-347.303 35.512 287.707 17.304 63.264z"/><path fill="#a3081a" fill-opacity=".6" d="M186.036 410.327l72.855-37.45-47.042 38.52 3.068 72.594z"/><path fill="#d3ecff" fill-opacity=".396" d="M203.16 385.236l-68.683 82.637 16.05 67.9-45.052 65.29z"/><path fill="#9d6147" fill-opacity=".553" d="M684.524 712.469l161.848 13.778-56.527-50.599-95.508-37.01z"/><path fill="#b5d7e5" fill-opacity=".357" d="M639.442 601.376l-52.792-59.13 22.213 136.95 19.82-184.923z"/><path fill="#956412" fill-opacity=".639" d="M396.967 549.599l-52.932 54.814 109.624 48.435 17.082-74.468z"/><path fill="#d39d6c" fill-opacity=".494" d="M474.707 292.07L444.5 351.148l-46.42 22.06 55.692-124.698z"/><path fill="#790e11" fill-opacity=".824" d="M604.88 512.524l12.205 84.796 19.594 197.154 84.375 71.147z"/><path fill="#6d715c" fill-opacity=".718" d="M195.031 323.037L-6.694 316.19-62 809.778l192.167-308.394z"/><path fill="#2b6d77" fill-opacity=".208" d="M128.035 1086L277.36 954.655 71.301 817.12l-115.125 186.9z"/><path fill="#60352f" fill-opacity=".62" d="M806.577 808.024L751.06 1086h-73.064l12.717-152.803z"/><path fill="#9a2e33" fill-opacity=".914" d="M319.955 370.01l-130.838 37.463 78.04-35.57 74.777-25.69z"/><path fill="#4c4836" fill-opacity=".875" d="M315.656 18.412l-74.555 56.246L-34.45 34.327l78.58-54.978z"/><path fill="#94744f" fill-opacity=".902" d="M307.07 203.02l173.557 14.06L421.038 5.25l-37.427 302.519z"/><path fill="#544132" fill-opacity=".976" d="M209.11 356.258l40.518-225.614 45.99 182.387-189.443 93.277z"/><path fill="#b5f2fc" fill-opacity=".349" d="M300.407 564.633l116.776 235.096-98.37-222.17-6.494-281.387z"/><path fill="#00190b" fill-opacity=".322" d="M594.18 524.131l72.647-90.365-5.28 92.12L811.638 632.11z"/><path fill="#c54b4f" fill-opacity=".898" d="M688.027 383.498l-17.036-1.24-87.155-121.486 90.048 107.648z"/><path fill="#5a241a" fill-opacity=".455" d="M255.689 876.38l-142.656 31.99 28.098-244.906 164.664 67.016z"/><path fill="#c2f0fe" fill-opacity=".302" d="M595.133 595.09l12.97-122.022-36.806-200.605 19.231 237.307z"/><path fill="#caced7" d="M779.87 491.558L631.15 310.356l-130.466-16.093 152.444 25.762z"/><path fill="#811113" fill-opacity=".596" d="M384.292 767.526l16.991 208.619-40.644-244.99 6.187-37.573z"/><path fill="#ab0004" fill-opacity=".435" d="M463.696 367.413l5.284 194.971 30.76 75.347-21.308-299.543z"/><path fill="#9b0708" fill-opacity=".329" d="M434.835 176.021L681.07 315.455l-191.497-35.47 85.335-109.595z"/><path fill="#040003" fill-opacity=".439" d="M217.95 502.367L195.526 632.71l-140.86-82.136 95.222 100.175z"/><path fill="#b9ccd7" fill-opacity=".58" d="M312.554 383.471l16.492-35.615-24.401 238.15-7.324-116.152z"/><path fill="#4a0001" fill-opacity=".678" d="M641.121 733.962l42.31-18.22-4.967-160.87-33.62-15.414z"/><path fill="#86231e" fill-opacity=".588" d="M256.048 531.8l32.02 95.838-67.772 17.801 32.685-262.65z"/><path fill="#a8bcc4" fill-opacity=".6" d="M200.172 461.69l-59.41 147.91 47.766-49.34 5.587-131.759z"/><path fill="#f9fbfc" fill-opacity=".216" d="M547.596 469.048l-36.776 2.593-17.415 89.198 13.493 37.862z"/><path fill="#920008" fill-opacity=".361" d="M298.185 978.711l23.792-200.61-55.72 103.706 26.258-114.134z"/><path fill="#b0ccd6" fill-opacity=".659" d="M645.417 813.804l-34.759-76.864 60.236 263.216-39.386-93.238z"/><path fill="#1c1e1b" fill-opacity=".784" d="M438.346 384.12l-18.41 13.994 80.888-136.784-11.847 72.276z"/><path fill="#a5b9c0" fill-opacity=".631" d="M372.27 664.752l22.558-31.065-26.214-12.257 3.205 31.268z"/><path fill="#d5f2ff" fill-opacity=".447" d="M535.797 428.033l-2.046-89.765 30.997 119.935-25.57-12.072z"/><path fill="#4d4b44" d="M548.762 685.695l20.935-66.233-65.279 47.985-317.3-11.546z"/><path fill="#100c0a" fill-opacity=".388" d="M742.414 353.181l-32.934 9.735-30.326-133.67 66.912 4.795z"/><path fill="#540006" fill-opacity=".518" d="M521.464 516.307l10.23 138.75 28.013-77.108-30.932-74.33z"/><path fill="#c3d4db" fill-opacity=".729" d="M466.436 541.998l-32.412-138.224-3.3 11.914 25.307-50.236z"/><path fill="#a8d5d6" fill-opacity=".322" d="M417.474 1007.487l-17.829-352.46 30.107-22.707-47.65 123.531z"/><path fill="#8e1f21" fill-opacity=".784" d="M635.322 741.968l38.14 285.034-5.29-136.269 73.801 17.824z"/><path fill="#836845" fill-opacity=".984" d="M62.821 675.731l50.869-51.776-24.223 137.208-32.659 72.743z"/><path fill="#abf7fd" fill-opacity=".212" d="M522.617 683.643l41.4 333.756-22.625-364.343 31.999 26.692z"/><path fill="#0a0d0a" fill-opacity=".937" d="M668.607 987.202L726.414 1086 232.647 922.834l323.873 58.719z"/><path fill="#dcd8e1" fill-opacity=".616" d="M105.828 569.014L91.66 560.55l49.834-64.964-6.837-2.072z"/><path fill="#060e0b" fill-opacity=".702" d="M805.738 495.374l-5.169 16.563-77.021 62.664-47.836-13.011z"/><path fill="#041f1b" fill-opacity=".455" d="M275.337 510.715l10.128-32.622 29.538 34.87-40.874 7.146z"/></svg>