<svg xmlns="http://www.w3.org/2000/svg" width="228" height="278" viewBox="0 0 836 1024"><path fill="#968887" d="M0 0h836v1024H0z"/><g fill-opacity=".502"><path fill="#fff" d="M46 954L750 66 518 1086z"/><path d="M2-62l896 72-960 432z"/><path fill="#fff" d="M30 602l868-192-632-140z"/><path fill="#120608" d="M290 574L10 1086l-72-436z"/><path d="M898 706l-304 12 168-292z"/><path fill="#1f2328" d="M422 378l476-244L522-62z"/><path fill="#ff6a19" d="M898 1086L486 962l316-328z"/><path fill="#f7ffff" d="M586 990L422 318 70 1026z"/><path fill="#001" d="M254 294L14 594l-44-156z"/><path fill="#fff" d="M314 206L86 538l376-168z"/><path fill="#05141b" d="M734 242l144 224-48-528z"/><path fill="#000007" d="M258 666l-172 8 184-196z"/><path fill="azure" d="M846 462L662 222 398 458z"/><path fill="#ff7336" d="M598 710l20 376 280-332z"/><path d="M582 278l-188 28 92 56z"/><path fill="#be8152" d="M522 138l-76 120L238 70z"/><path fill="#151a28" d="M898 714l-76-228-220 240z"/><path fill="#e0e5f4" d="M554 622L366 202l-212 884z"/><path fill="#fcffff" d="M322 774L58 1086l76-268z"/><path fill="#43c9ff" d="M22 538l64 120 68-72z"/><path fill="#fa9e58" d="M390 538l276-8-288-72z"/><path fill="#6493c8" d="M578 294l68-232 148 68z"/><path fill="#130f0b" d="M738 454L630 646l28-136z"/><path fill="#f46443" d="M-14 1038l-48-192 180 20z"/><path fill="#0d1115" d="M102 306l264-96-332-28z"/><path d="M598 138L498-62 386 106z"/><path fill="#ff8247" d="M898 626v384l-352 60z"/><path fill="#c0cde1" d="M650 538L246 694l324 128z"/><path fill="#e8ffff" d="M122 530l168-292h124z"/><path fill="#21353e" d="M186 794l-248-52 328-120z"/><path fill="#542300" d="M474 350l-16-160 176-28z"/><path fill="#6c7d8f" d="M230 430l116-28-60 100z"/><path fill="#fd2b37" d="M550 962l-52 16-32-72z"/><path fill="#522a37" d="M606 1042l-44-140 36-132z"/><path fill="#e9ebf8" d="M518 558l280-160-212-152z"/><path fill="#f1edff" d="M582 1038l-20-208-52 160z"/><path fill="#ecffff" d="M222 418l-52 116-192 68z"/><path fill="#eef3fc" d="M546 570L266 730l4-236z"/><path fill="#22273b" d="M-62 650l176-396 40 188z"/><path fill="#1a2222" d="M38-62l-84 208L298 26z"/></g></svg>