<svg xmlns="http://www.w3.org/2000/svg" width="228" height="278" viewBox="0 0 836 1024"><path fill="#483b4a" d="M0 0h836v1024H0z"/><g fill-opacity=".502"><path fill="#c19a68" d="M270 1086L26 390l-88 616z"/><path fill="#e2a668" d="M630 1086h240L678 522z"/><path fill="#0c034c" d="M118 414l192 672 432-216z"/><path fill="#d58f62" d="M246 154l236 232-20-336z"/><path fill="#d3d4e8" d="M406 486l240 52-424 28z"/><path fill="#0c151f" d="M614 638L466-62 898 70z"/><path fill="#1c251a" d="M430-50L18 534-30-62z"/><path fill="#f7d95f" d="M118 938l-180 64 376 84z"/><path fill="#293666" d="M314 918L-58 714l28 208z"/><path fill="#36286a" d="M282 510l548-4-292-232z"/><path fill="#fffdd0" d="M538 394l40 44-68-8z"/><path fill="#575a80" d="M898 666L670 438l124 496z"/><path fill="#fff" d="M290 498l-8 64-16-48z"/><path fill="#0f093a" d="M314 566l136 432 136-444z"/><path fill="#f39289" d="M178 810l-4-108-148 4z"/><path fill="#574f75" d="M534 482l200 464-140-8z"/><path fill="#140f3e" d="M294 162l-40 460-176-96z"/><path fill="#a87158" d="M534 166L338 338 266 78z"/><path fill="#bebac9" d="M578 554l-228-8 232-56z"/><path fill="#25241c" d="M898 294V22L234 10z"/><path fill="#150f3f" d="M354 490L206 250l396 256z"/><path fill="#e2bb65" d="M642 958l256 16-252 112z"/><path fill="#6f452e" d="M754 1034L650 534l-24 272z"/><path fill="#da916e" d="M626 598l80-28 44 192z"/><path fill="#2b1669" d="M650 1086H490l60-604z"/><path fill="#030400" d="M162 482l112 84-152 36z"/><path fill="#070603" d="M414 158l-124 8 96 20z"/><path fill="#f9d1e3" d="M286 410l36 32-48-4z"/><path fill="#6f6781" d="M106 682l72-104 48 304z"/><path fill="#d9835f" d="M70 522L-62 698l188-128z"/><path fill="#232927" d="M474 282L594-62l304 492z"/><path fill="#d78c6f" d="M798 1030l-80-376-12 204z"/><path fill="#e29a86" d="M330 102l104-20 4 92z"/><path fill="#090230" d="M482 506l-20 160 44-4z"/><path fill="#0e033f" d="M558 594l148-40-60-124z"/><path fill="#110b35" d="M418 546l4-152 88-64z"/><path fill="#873f1d" d="M138 634L-62 798 90 558z"/><path fill="#160c00" d="M450 266L342 366l84-40z"/><path fill="#fffeff" d="M362 530l-24-16-52 12z"/><path fill="#23124c" d="M362 370l-92 88 92 68z"/></g></svg>