<svg xmlns="http://www.w3.org/2000/svg" width="228" height="278" viewBox="0 0 836 1024"><path fill="#616e82" d="M0 0h836v1024H0z"/><path fill="#c4d1dd" fill-opacity=".973" d="M-62 1010.088l603.86-45.122 314.279-142.163L807.244 1086z"/><path fill="#1a0e0b" fill-opacity=".651" d="M898-62L10.426-33.025-62 45.24l923.067 167.27z"/><path fill="#e0d4cc" fill-opacity=".792" d="M261.808 1068.766l-194.264-.152L-62 850.194l373.448 7.314z"/><path fill="#0376c7" fill-opacity=".643" d="M522.582 587.562l61.986-333.506 77.067 685.39-396.278 49.452z"/><path fill="#2dafef" fill-opacity=".565" d="M713.95 363.557l-209.094-65.015-119.81 114.648 378.186 147.396z"/><path fill="#c4c0d5" fill-opacity=".671" d="M32.645 380.16l111.427 142.943 38.305-275.43-49.048-4.352z"/><path fill="#003674" fill-opacity=".631" d="M424.278 1039.262L235.572 607.405l-128.08 95.601 119.446-501.753z"/><path fill="#010202" fill-opacity=".518" d="M708.57 621.296l187.496 275.167-275.834-488.497-1.013 215.417z"/><path fill="#ed544f" fill-opacity=".569" d="M526.154 456.908l-253.329 45.718 28.116 100.17 240.445-29.962z"/><path fill="#6b5752" fill-opacity=".969" d="M829.065 211.864L400.133 99.734 279.25 112.005l67.45 251.321z"/><path fill="#fcc1a8" fill-opacity=".529" d="M646.013 317.151l116.932 73.98L898 981.85 766.94 559.957z"/><path fill="#c59a87" fill-opacity=".925" d="M160.339 792.829l.504-34.696-76.754-85.912L-13.677 1086z"/><path fill="#1667ad" fill-opacity=".816" d="M133.281 496.84l471.42-35.398-320.955-130.165-95.104 33.625z"/><path fill="#aec8d0" fill-opacity=".722" d="M469.93 707.996l9.011-86.532-148.463 23.98 21.475 81.41z"/><path fill="#c28f72" fill-opacity=".867" d="M390.882 123.26l104.51 11.017-28.633 198.247-27.862 23.54z"/><path fill="#094280" fill-opacity=".776" d="M331.393 943.379L288.547 727.47l193.087-9.474 1.62 191.433z"/><path fill="#4d4144" fill-opacity=".804" d="M576.402 51.006l-93.167 238.076 175.448 44.947 202.185 73.405z"/><path fill="#b0433f" fill-opacity=".427" d="M-34.412 298.308l134.341 132.32 34.302 118.877L-62 1003.855z"/><path fill="#ffc6bd" fill-opacity=".427" d="M614.113 772.844l3.562-70.245 87.573-111.734 39.377 102.16z"/><path fill="#fffaf5" fill-opacity=".353" d="M692.878 285.683l49.003-64.82 97.11 12.471L898 305.324z"/><path fill="#b4b6bd" fill-opacity=".596" d="M572.858 535.87L293.3 588.719l28.58-55.471 200.477-34.663z"/><path fill="#002352" fill-opacity=".561" d="M219.29 583.8l337.469 5.512-239.588 62.975 3.234 119.841z"/><path fill="#4f0e06" fill-opacity=".333" d="M160.22 340.806l156.826-167.53L-62 165.842l475.302 174.416z"/><path fill="#8d4a15" fill-opacity=".38" d="M898 861.032l-142.994 25.945 11.386-46.192-32.985-305.91z"/><path fill="#f2ffff" fill-opacity=".486" d="M667.445 855.349l-2.992 189.334-122.96-15.936L760.507 859.81z"/><path fill="#a9ecff" fill-opacity=".722" d="M547.687 360.364l-52.062 27.946-1.133 38.493 65.815 7.318z"/><path fill="#f1cabb" fill-opacity=".31" d="M295.96 763.44l-3.385 60.046-73.818-14.848 6.393-250.23z"/><path fill="#323a4e" fill-opacity=".984" d="M-39.777 5.68l53.508 169.494L154.99-62l153.77 202.753z"/><path fill="#2f0f01" fill-opacity=".384" d="M417.343 379.733l-124.886.493 174.454-234.713-47.815 13.834z"/><path fill="#00172e" fill-opacity=".416" d="M214.784 666.122l25.62-273.501-106.165 483.27 106.783-176.068z"/><path fill="#e8e7ff" fill-opacity=".357" d="M278.47 330.536l53.743-33.675-1.838-73.645-68.464 7.617z"/><path fill="#31a1e7" fill-opacity=".322" d="M822.837 816.811L655.95 832.76l50.231 232.225-266.617-496.17z"/><path fill="#1d84bf" fill-opacity=".796" d="M466.61 260.645L706.577 448.6l-24.121 51.449L477.03 321.008z"/><path fill="#bed1ff" fill-opacity=".278" d="M103.387 511.789l99.163-145.75-50.96-307.73 77.575 30.644z"/><path fill="#13a4ff" fill-opacity=".373" d="M101.813 670.982l93.627 16.481-30.484-202.58-25.113 50.184z"/><path fill="#ffffe8" fill-opacity=".22" d="M708.489 267.83l-101.944 68.394 31.244 14.8 151.763 297.83z"/><path fill="#aebbe6" fill-opacity=".62" d="M27.184 574.081l-51.966 27.33L-62 416.065l98.72 103.167z"/><path fill="#5a4450" fill-opacity=".537" d="M262.363 348.513L45.857 252.415 196.853-62 93.736 329.67z"/><path fill="#9e0004" fill-opacity=".663" d="M276.769 558.315l2.787-62.352 72.505-9.163-60.167 91.291z"/><path fill="#16151a" fill-opacity=".851" d="M539.028-39.525L866.004 72.353 754.723 215.91 648.556-62z"/><path fill="#a0050b" fill-opacity=".635" d="M466.364 559.22l-190.82 42.331 30.734 3.993 243.064-35.72z"/><path fill="#00b3ea" fill-opacity=".357" d="M701.192 605.463l38.735-30.53 47.844-46.431-96.693-80.86z"/><path fill="#06306b" fill-opacity=".424" d="M358.33 990.787l107.487-11.42 168.424-52.536-243.129 43.25z"/><path fill="#a3918f" fill-opacity=".89" d="M-62 803.829l120.22-7.332L-24.045 1086l142.022-404.95z"/><path fill="#d0e1fe" fill-opacity=".518" d="M158.802 404.07l-49.1-96.58-45.233 68.443 86.466 95.301z"/><path fill="#dbebfd" fill-opacity=".796" d="M724.498 1031.419l-94.16-89.89L281.05 1086l-29.754-101.57z"/><path fill="#000107" fill-opacity=".482" d="M202.346 77.232L372.618-62l-93.052 176.626-48.148 11.549z"/><path fill="#000518" fill-opacity=".384" d="M576.128 332.372l-4.77-253.783 46.475-20.984L455.896-62z"/><path fill="#05172a" fill-opacity=".706" d="M652.189 645.372l-43.78-120.028 9.905-42.427 85.962 53.176z"/><path fill="#2493ce" fill-opacity=".659" d="M682.472 970.156l-127.31-554.29-25.626 413.01 60.949 101.646z"/><path fill="#885d40" fill-opacity=".478" d="M141.95 847.531l46.073-152.647-166.465-32.97L303.72 868.549z"/><path fill="#fab983" fill-opacity=".6" d="M749.69 566.996l148.31 276-19.312-105.186-116.864-191.145z"/><path fill="#d6dee2" fill-opacity=".467" d="M141.9 878.085l188.882 4.177L190.034 1086 34.564 882.004z"/><path fill="#ffc89d" fill-opacity=".298" d="M466.935 310.838L444.845 9.712 511.6 192.608l-128.759-2.654z"/><path fill="#fee4c9" fill-opacity=".29" d="M235.4 427.067l145.916-9.076-176.146 49.02 33.402-13.544z"/><path fill="#de0008" fill-opacity=".447" d="M408.33 472.694l-23.678 58.107 145.267-78.972 16.143 55.411z"/><path fill="#00122d" fill-opacity=".545" d="M272.989 666.35l4.798-94.457-68.603-113.487-7.893 74.797z"/><path fill="#304769" fill-opacity=".486" d="M587.937 64.07l-146.78 210.669 311.454-112.72-29.956 115.454z"/><path fill="#8c8195" fill-opacity=".6" d="M898 894.897l-287.226-166.47 7.258-125.168 18.685 56.952z"/><path fill="#002b61" fill-opacity=".573" d="M333.22 386.424l-39.925-55.573 142.26 54.563 61.827-57.846z"/><path fill="#d9f8fe" fill-opacity=".6" d="M451.203 509.402l2.706 51.78 4.642 2.571 23.77-86.132z"/><path fill="#2f1300" fill-opacity=".51" d="M477.674 166.08l-128.307 21.332-12.442-21.322 43.863-12.276z"/><path fill="#31a1df" fill-opacity=".831" d="M478.665 285.335l161.056 49.141-131.283 40.586-26.542-60.838z"/><path fill="#793a18" fill-opacity=".302" d="M655.429 356.06L511.477 228.1l69.308-32.248L898 348.804z"/><path fill="#952127" fill-opacity=".675" d="M319.365 559.224l71.044-15.425-28.67 25.702-17.788 4.385z"/><path fill="#836575" fill-opacity=".522" d="M847.888 673.946L898 407.506l-165.976 33.942-27.383-.331z"/><path fill="#180f0e" fill-opacity=".392" d="M218.184 178.947l46.951 1.114-31.12 176.3-35.565-108.579z"/><path fill="#5d3821" fill-opacity=".514" d="M863.13 899.655L698.245 600.269l21.205-8.732 53.214-3.92z"/><path fill="#b0bcc4" fill-opacity=".812" d="M372.25 491.47l-57.518 94.467 7.11-53.01 9.35-14.588z"/><path fill="#0c55a9" fill-opacity=".357" d="M412.19 885.231l-64.647 128.985 377.734-209.467-1.392-61.955z"/><path fill="#d3e6fe" fill-opacity=".627" d="M743.735 396.67l-26.512 38.141-36.496-21.588-36.915-66.163z"/><path fill="#30230e" fill-opacity=".282" d="M54.957 221.914L-62 521.1l100.071-54.444L-37.596-62z"/><path fill="#bb2a29" fill-opacity=".69" d="M539.7 516.778l-12.583 36.592-160.258 21.872 182.109 2.178z"/><path fill="#4e4563" fill-opacity=".8" d="M94.529 664.904l-48.592 75.711-28.46-93.045 97.787-30.58z"/><path fill="#372526" fill-opacity=".498" d="M145.32 12.552L5.26-62l100.217 190.792 26.883 126.193z"/><path fill="#efe1d1" fill-opacity=".51" d="M145.865 509.571l5.358 56.258-22.258-.062 1.925-56.464z"/><path fill="#04233c" fill-opacity=".31" d="M749.623 305.543L898 346.639 876.774 459.88l-131.45-61.015z"/><path fill="#1f93f0" fill-opacity=".384" d="M180.863 376.23l138.667-71.182-34.443 56.162-145.271 79.535z"/><path fill="#eab290" fill-opacity=".831" d="M46.465 889.528l17.963 46.288 86.025-145.402-28.027-46.062z"/><path fill="#a21e2a" fill-opacity=".467" d="M137.906 500.55l-97.314-12.179 4.434 54.6 69.459 26.848z"/><path fill="#034188" fill-opacity=".651" d="M506.48 621.146l21.085-46.523-144.021 24.278-94.108 42.541z"/><path fill="#6f91ff" fill-opacity=".251" d="M79.844 220.126l26.036-112.238-52.92-28.884-27.971 30.476z"/><path fill="#124477" fill-opacity=".741" d="M309.607 624.122L301 854.522l19.59 65 106.226 16.009z"/><path fill="#c1cdd1" fill-opacity=".698" d="M426.03 565.043l-43.717-66.994-9.188 31.786 30.066 39.686z"/><path fill="#7c160a" fill-opacity=".361" d="M56.716 931.857l-22.958 37.935 41.258 28.177-5.49-20.977z"/><path fill="#f9d1c9" fill-opacity=".302" d="M653.174 700.826l58.12-90.744 28.22 70.591 5.804 41.951z"/><path fill="#d6dee0" fill-opacity=".675" d="M492.995 519.826l-13.918 30.473 28.282 9.367 4.574-54.441z"/><path fill="#ac2125" fill-opacity=".824" d="M421.116 582.751l41.007-107.598-22.007.165 8.475 94.035z"/><path fill="#9d5b31" fill-opacity=".376" d="M318.75 134.348l-43.459 30.076L429.546 354.76l29.34-71.207z"/><path fill="#a2bdc6" fill-opacity=".996" d="M393.23 714.342l93.309-7.276-.845 1.507-13.552-53.2z"/><path fill="#d9c4c5" fill-opacity=".239" d="M78.77 304.646l-22.271-28.003 96.913-55.639 64.226 83.205z"/><path fill="#299ed6" fill-opacity=".6" d="M571.045 594.146l-2.142-93.642-89.006-81.46 153.296 36.359z"/><path fill="#eab99a" fill-opacity=".996" d="M483.084 207.295l-8.513-44.333-63.528 65.611 2.175-38.67z"/><path fill="#bc050f" fill-opacity=".376" d="M512.14 506.008l-29.454-60.454 6.667 129.372-26.14-46.102z"/><path fill="#5b5047" fill-opacity=".702" d="M399.233 44.176l103.874 116.982L468.442 39.49 288.719-60.142z"/><path fill="#fefffe" fill-opacity=".518" d="M651.898 944.578L735.4 1086 564.03 963.892l-76.291 4.953z"/><path fill="#d1d3d5" fill-opacity=".961" d="M709.31 1086l118.744-24.019-4.903-159.811-158.887-14.92z"/><path fill="#004278" fill-opacity=".31" d="M602.403 434.487l-85.998 16.096 133.188-62.576 89.45 277.276z"/><path fill="#7ebafe" fill-opacity=".298" d="M56.135 780.996l-1.671-81.536 70.788-54.804 5.53 10.157z"/><path fill="#18181b" fill-opacity=".361" d="M619.117 316.82l-122.616-20.104-8.096-55.371 58.075-21.378z"/><path fill="#00468b" fill-opacity=".463" d="M195.034 460.673l25.201 331.069-73.067-209.21 10.177-124.969z"/><path fill="#3e5e89" fill-opacity=".4" d="M503.582 109.06l-32.167 156.87L653.97 65.396l-53.393 170.886z"/><path fill="#a1c1ef" fill-opacity=".592" d="M295.505 967.732l261.309 39.741-8.51 78.527-109.39-66.638z"/><path fill="#0055a8" fill-opacity=".357" d="M412.241 485.595l105.875-137.197L173.37 438.59l139.267-130.849z"/><path fill="#433337" fill-opacity=".714" d="M615.599 199.571l39.74 89.24 160.006-158.86L898 217.465z"/><path fill="#493e02" fill-opacity=".302" d="M-8.761 869.684L-62 826.346l116.705-30.027-15.112 60.235z"/><path fill="#642b10" fill-opacity=".494" d="M826.774 1086l.503-138.151 27.11-57.429L898 1078.225z"/><path fill="#181200" fill-opacity=".259" d="M293.14 193.289l-109.18 68.163L421.106 43.321 252.981-7.327z"/><path fill="#5ce7ff" fill-opacity=".463" d="M672.48 493.535l43.395 28.75 28.868 72.856 7.97-85.663z"/><path fill="#d18563" fill-opacity=".188" d="M589.527 238.893l170.42 29.328-30.237 89.876-120.502-40.112z"/><path fill="#fe1646" fill-opacity=".369" d="M-62 681.58l86.859 78.999.324-91.104L-62 648.255z"/><path fill="#b3a6a4" d="M793.692 779.72l33.903 65.413-40.4-10.558-28.856 212.597z"/><path fill="#987069" fill-opacity=".965" d="M74.403 1027.942l4.605 73.178L3.726 955.764l10.024 76.102z"/><path fill="#e4f1fb" fill-opacity=".22" d="M732.345 240.028l94.3 68.948L898 66.104l-84.155 174.157z"/><path fill="#15aff0" fill-opacity=".722" d="M649.107 877.805l28.384 74.538-88.072-61.765-64.312 31.21z"/><path fill="#b5815f" fill-opacity=".427" d="M314.087 168.324l19.251 94.831 6.13-160.593 142.887 18.793z"/><path fill="#a2604e" fill-opacity=".247" d="M634.219 834.502l15.67-159.013 64.926-71.684-97.176-.673z"/><path fill="#180800" fill-opacity=".275" d="M102.763 678.297l120.266 8.089-38.908 96.452-25.31-81.268z"/><path fill="#536b78" fill-opacity=".592" d="M400.503 679.852l136.074-48.663-189.765 76.298 27.863-20.988z"/><path fill="#573c2b" fill-opacity=".682" d="M314.378 309.697l104.867 58.595 4.666 4.683-27.892-149.424z"/></svg>