<svg xmlns="http://www.w3.org/2000/svg" width="228" height="278" viewBox="0 0 836 1024"><path fill="#876e71" d="M0 0h836v1024H0z"/><path fill="#222521" fill-opacity=".757" d="M-62 1013.572l853.14-80.015-210.86-464.421L587.81 1086z"/><path fill="#f2afbf" fill-opacity=".424" d="M215.82 999.927L51.595 540.13l105.018-193.133 559.022 62.374z"/><path fill="#05273a" fill-opacity=".498" d="M-38.78 511.162L-29.374-62 370.79 31.705 23.839 513.07z"/><path fill="#99040f" fill-opacity=".773" d="M308.703 706.422L291.398 1086l80.178-366.003-4.956-68.983z"/><path fill="#efffee" fill-opacity=".431" d="M772.42 118.25L704.795-62 363.797 180.337 311.96-46.496z"/><path fill="#bdbec4" fill-opacity=".992" d="M446.204 370.297l25.47 152.536-90.683 469.54-52.842-31.626z"/><path fill="#ab1724" fill-opacity=".769" d="M230.216 605.149l-43.267 362.065 82.18-327.687-12.348-333.698z"/><path fill="#dcfafd" fill-opacity=".525" d="M297.353 838.11l-40.165 129.93-59.375 38.493L327.86 352.806z"/><path fill="#b3afb7" fill-opacity=".992" d="M485.117 956.438l-32.894-8.174L558.897 336.1 536.78 780.84z"/><path fill="#640108" fill-opacity=".443" d="M425.773 1028.519l65.92-848.686 180.603 114.572-128.956-4.474z"/><path fill="#fffcff" fill-opacity=".435" d="M215.507 395.873L-62 691.031l182.576-84.314 242.117-241.715z"/><path fill="#888488" fill-opacity=".722" d="M275.573 158.592L128.566 53.7 95.69 88.26l30.096 339.971z"/><path fill="#e20026" fill-opacity=".525" d="M113.277 429.728l249.726-69.156 52.745 302.703L306.676 284.64z"/><path fill="#706666" fill-opacity=".996" d="M220.862 491.818L6.994 859.83l31.641 69.868 135.652-106.355z"/><path fill="#000b1e" fill-opacity=".553" d="M1.682 191.03L-62 418.526l185.146 53.844-70.184-301.013z"/><path fill="#94111b" fill-opacity=".827" d="M494.156 673.97l-35.217-39.046-68.683 362.95 53.292-53.137z"/><path fill="#8c9398" fill-opacity=".851" d="M252.795 645.205l127.421-106.653 133.86 1.167 30.382 128.367z"/><path fill="#d2f1fd" fill-opacity=".494" d="M644.633 411.93l106.1 174.136-33.025 33.627-116.466-213.489z"/><path fill="#b30116" fill-opacity=".522" d="M653.476 363.873l-293.673-68.796 263.595 112.359 121.275 119.403z"/><path fill="#232833" fill-opacity=".894" d="M309.31 235.064l25.42-112.07-4.483-68.043-109.99-51.588z"/><path fill="#13171c" fill-opacity=".749" d="M544.43 936.738L678.742 1086 96.476 982.386l349.177 1.723z"/><path fill="#cfd6e4" fill-opacity=".667" d="M774.93 433.843L898 374.513l-62.38 157.193-46.217-37.03z"/><path fill="#dadae2" fill-opacity=".78" d="M267.848 375.507l68.49 5.107 1.323 178.57-75.018-3.004z"/><path fill="#e9f1f8" fill-opacity=".6" d="M472.98 405.863l-75.52 152.63 5.934-139.607-86.487-66.823z"/><path fill="#ab222f" fill-opacity=".82" d="M133.937 1032.722l76.113-202.859 68.788-631.624-45.192 673.259z"/><path fill="#a70115" fill-opacity=".541" d="M342.084 589.258l66.244-143.097L274.86 302.126l72.057-2.844z"/><path fill="#ffd1bf" fill-opacity=".314" d="M583.737 899.13l-31.515 100.539-22.149-135.986 236.177-131.7z"/><path fill="#d4dbe3" fill-opacity=".498" d="M373.193 414.161l217.034-28.283-4.487 255.973-87.728-272.95z"/><path fill="#394a67" fill-opacity=".788" d="M898 348.399V-62l-89.836 97.392-30.552 195.43z"/><path fill="#fff9fc" fill-opacity=".4" d="M114.208 1072.983l83.332-221.318 41.255-311.187-35.498 171.48z"/><path fill="#181200" fill-opacity=".322" d="M596.19 654.787l-96.037 249.82 290.414-247.368-33.25-48.406z"/><path fill="#f2cd9c" fill-opacity=".396" d="M359.783 434.602l-21.13-308.681L478.4 209.027l-101.32 66.985z"/><path fill="#435146" fill-opacity=".533" d="M403.484 383.503L576.81-62l-6.31 351.325-120.777 102.279z"/><path fill="#7e000a" fill-opacity=".655" d="M544.878 689.682l31.111-109.206-27.851 238.795-52.537 234.337z"/><path fill="#d7556a" fill-opacity=".941" d="M9.343 678.183l240.4-359.214L96.718 463.852l23.294 70.093z"/><path fill="#a71b27" fill-opacity=".882" d="M284.849 900.188l84.172-122.727-58.392 190.202-57.125 20.546z"/><path fill="#a1303f" fill-opacity=".992" d="M599.818 587.3l-6.523-204.767 18.412-36.42 2.013 150.545z"/><path fill="#1c2d2f" fill-opacity=".502" d="M775.358 872.019l-16.72-52.032-240.279 171.414 262.808-29.887z"/><path fill="#ffe3c0" fill-opacity=".333" d="M106.165 925.66l-108.22-14.746 25.45-380.963L-62 1086z"/><path fill="#c10016" fill-opacity=".576" d="M464.974 439.792l50.65 104.902 7.108-104.683-20.349-66.696z"/><path fill="#c0a293" fill-opacity=".851" d="M747.599 1053.885l35.124-111.242-.392-23.735 114.602 113.952z"/><path fill="#f1f2fa" fill-opacity=".561" d="M473.57 519.53l-200.208 35.566 325.23-19.417-155.613 27.488z"/><path fill="#132b39" fill-opacity=".4" d="M811.532 367.875L685.573 413.89l86.155 109.35-3.628-76.484z"/><path fill="#dfdbe1" fill-opacity=".392" d="M302.101 977.206l53.663 15.975 88.68-195.825-71.06 31.248z"/><path fill="#1b5987" fill-opacity=".451" d="M150.45 175.516l27.754 58.398-72.308 228.44-54.89-224.153z"/><path fill="#f2ddf4" fill-opacity=".369" d="M538.674 990.704l33.522-224.944 9.152-171.005-31.135 214.982z"/><path fill="#84a5ae" fill-opacity=".549" d="M631.916 1086l11.673-99.92-15.134-87.094-29.5 3.34z"/><path fill="#d85867" fill-opacity=".937" d="M-62 543.053l89.59 1.85 36.7 63.259 48.267-61.144z"/><path fill="#f7f4cd" fill-opacity=".267" d="M741.166 376.038L671 388.658l.174-125.317 58.936 1.29z"/><path fill="#9ab8d2" fill-opacity=".71" d="M47.438 534.384l50.953-81.01 23.515 36.381-6.282 63.738z"/><path fill="#b9fff3" fill-opacity=".165" d="M612.558 225.109L894.125-62H638.361L551.44 231.571z"/><path fill="#b37748" fill-opacity=".353" d="M677.448 772.251L572.84 812.998 898 856.068l-47.008-381.19z"/><path fill="#fdfcff" fill-opacity=".443" d="M116.047 901.264l36.036 25.955 125.603-20.844-27.418 83.01z"/><path fill="#707073" d="M645.858 585.114L296.35 557.552 317.1 667.05l2.893-112.74z"/><path fill="#54555d" fill-opacity=".702" d="M263.766 120.68l89.196 117.19-51.763 73.013-53.463-6.301z"/><path fill="#1c273b" fill-opacity=".439" d="M-5.859-31.876L280 125.255 461.967-55.593 321.047 40.37z"/><path fill="#effffc" fill-opacity=".322" d="M28.4 564.633l90.883 67.128 175.633-312.8-335.114 418.878z"/><path fill="#555250" fill-opacity=".659" d="M686.245 168.155l-59.87 57.962-56.328 14.604 76.668 143.404z"/><path fill="#17332e" fill-opacity=".675" d="M559.06 851.012l27.358-167.143 23.428-100.352 107.458 144.366z"/><path fill="#ffe5c5" fill-opacity=".314" d="M482.69 89.796L448.223 227.03 434.097-41.726 324.735 125.569z"/><path fill="#bfc0c9" fill-opacity=".686" d="M454.848 966.822l-17.475.696 115.69-369.316-50.743 349.234z"/><path fill="#c9223f" fill-opacity=".753" d="M699.13 428.101L526.047 376.54l-18.714-74.778 136.83 73.982z"/><path fill="#807266" fill-opacity=".894" d="M74.043 608.243l125.526 62.912-.483 89.848L-62 815.019z"/><path fill="#cc0123" fill-opacity=".38" d="M248.338 594.3l-3.2-223.083-79.267-.901 120.614-47.312z"/><path fill="#070d09" fill-opacity=".278" d="M281.299 616.834l72.708 20.06 242.374-11.577-250.23-5.42z"/><path fill="#930c15" fill-opacity=".69" d="M485.35 796.07l-78.087 180.707 43.342-309.952 35.983 31.823z"/><path fill="#5c7280" fill-opacity=".522" d="M585.738 156.281l19.638-120.21-57.924-89.335L383.216-62z"/><path fill="#ced2db" fill-opacity=".4" d="M415.484 867.536L353.658 616.86l85.029 99.134-9.655 132.033z"/><path fill="#7d7a7f" fill-opacity=".992" d="M602.127 590.202l-13.053 33.584-116.02-62.507 65.447 1.113z"/><path fill="#161a1e" fill-opacity=".992" d="M128.68 1027.69L559.452 1086l50.67-128.908-107.446 4.581z"/><path fill="#ffe8eb" fill-opacity=".204" d="M566.172 649.085l26.775 179.87 57.191-24.917-82.777-56.953z"/><path fill="#991b21" fill-opacity=".655" d="M663.46 414.876l66.076 112.907 38.26 11.033.35 79.446z"/><path fill="#d9e4ed" fill-opacity=".427" d="M482.248 354.052l149.435 168.64-107.455-149.706-52.136 32.387z"/><path fill="#ffa076" fill-opacity=".224" d="M231.84 274.247l-98.186-225.09-56.72 121.76 204.261-54.501z"/><path fill="#2d6449" fill-opacity=".204" d="M120.475 656.894l51.184-147.81 154.757-57.76-10.254 27.058z"/><path fill="#e0e6ff" fill-opacity=".431" d="M575.376 963.225L538.071 858.72l48.623 8.898-52.245 79.012z"/><path fill="#dadee2" fill-opacity=".627" d="M324.906 662.458l-47.591 225.21-30.116-78.123L270.687 634.3z"/><path fill="#e7eaf5" fill-opacity=".576" d="M392.455 405.158l13.682 141.692 59.86-20.112 2.358-83.137z"/><path fill="#cbf2fb" fill-opacity=".361" d="M625.769 553.381l36.003-106.617-17.149-43.694-32.066 33.438z"/><path fill="#af8d6c" fill-opacity=".4" d="M500.105 273.015l28.6-122.901L506.67 77.02l-110.344 28.813z"/><path fill="#281d00" fill-opacity=".408" d="M502.09 149.631l2.683 9.815 5.005 25.791-134.704-19.71z"/><path fill="#001420" fill-opacity=".345" d="M490.974 239.111l86.073-10.961-55.042 84.683-19.244 93.38z"/><path fill="#eef0f4" fill-opacity=".549" d="M365.63 608.873l-102.147-5.05 94.773-9.464 84.95.214z"/><path fill="#f1fff0" fill-opacity=".196" d="M898 720.363L628.839 521.518l169.19 69.757-2.064 12.354z"/><path fill="#526a70" fill-opacity=".749" d="M619.908 1081.998l140.997-55.768 5.138-71.945-109.72 4.837z"/><path fill="#202932" fill-opacity=".525" d="M-20.093 15.145L118.68 210.802l-69.248 39.68 51.795-220.737z"/><path fill="#ac9284" fill-opacity=".741" d="M783.325 94.4l-56.935 78.845-50.564-99.66 91.071-46.797z"/><path fill="#593605" fill-opacity=".38" d="M447.449 389.043l26.504-82.987-108.26-9.135-1.347-73.247z"/><path fill="#bb1d30" fill-opacity=".843" d="M359.774 388.486l-23.595 152.216 61.46-19.822-8.888-87.717z"/><path fill="#e9f5ff" fill-opacity=".494" d="M167.698 440.895l75.495 85.335-4.842-141.546-2.958 9.885z"/><path fill="#d9f3ff" fill-opacity=".404" d="M510.88-62L647.874 57.148 898-62 754.232-1.579z"/><path fill="#890110" fill-opacity=".612" d="M565.081 1004.496l-62.98-94 22.024-60.001 21.815 124.147z"/><path fill="#c3c2c9" fill-opacity=".667" d="M516.02 480.943l44.404 148.495 35.47-132.776-33.523-106.429z"/><path fill="#f5a0ba" fill-opacity=".357" d="M757.63 785.138l-18-87.197-3.76-19.49-47.978-7.287z"/><path fill="#e82344" fill-opacity=".435" d="M342.112 278.766L110.347 434.248l10.3 88.008 31.86-62.436z"/><path fill="#6b6969" fill-opacity=".827" d="M137.47 948.583l-95.435 52.906-23.701-54.017L121.102 1086z"/><path fill="#340b01" fill-opacity=".29" d="M288.63 905.026l-113.98-14.108 141.52-8.838 146.513-21.462z"/><path fill="#8292a3" fill-opacity=".635" d="M559.343 27.935l-93.488-64.05-159.752 84.774-39.475-63.816z"/><path fill-opacity=".49" d="M92.03 349.36l-30.777 78.298-115.293-65.412-5.357-100.232z"/><path fill="#f0faff" fill-opacity=".427" d="M209.452 868.568l-28.523-94.16-20.232 177.13-9.442-54.866z"/><path fill="#111a19" fill-opacity=".89" d="M670.118 666.789l-86.416 107.767-7.027-67.795 2.009-37.878z"/><path fill="#d9d4dc" fill-opacity=".816" d="M454.576 670.459l-39.002 9.021-37.947-32.227-65.165 14.592z"/><path fill="#6f0307" fill-opacity=".455" d="M618.482 507.174l-21.292-2.386-55.98 197.963 44.53-116.51z"/><path fill="#782402" fill-opacity=".251" d="M46.65 630.846L11.88 745.672 193.602 561.76l6.553 86.52z"/><path fill="#b71d2f" fill-opacity=".753" d="M495.525 396.472l-29.292 11.206L479.2 542.847l49.093-18.617z"/><path fill="#c22437" fill-opacity=".529" d="M132.278 997.58l60.626-17.228-28.987-80.234 67.145-55.598z"/><path fill="#9f060f" fill-opacity=".498" d="M321.622 668.847l71.118-5.501-83.933 111.598 41.966 98.243z"/><path fill="#573200" fill-opacity=".345" d="M788.679 718.64l-80.63-66.114-7.973-11.579 69.12-59.681z"/><path fill="#a3030c" fill-opacity=".376" d="M228.544 823.345L189.32 833.79l77.004-264.885-18.967 189.438z"/><path fill="#eaf2f5" fill-opacity=".463" d="M288.837 719.466l-22.326-166.471 127.308 6.62-115.33-61.42z"/><path fill="#777a70" fill-opacity=".608" d="M648.857 652.994L602.83 537.859l66.276-45.925 18.911 8.693z"/><path fill="#b1c4c1" fill-opacity=".541" d="M212.157 748.027l-18.46-166.858 54.684-19.403-12.948-48.094z"/><path fill="#e8e3eb" fill-opacity=".843" d="M192.803 976.022l58.338-.844 24.542-40.058-62.662-31.134z"/><path fill="#dde5ea" fill-opacity=".553" d="M425.816 620.196l-36.96-3.454 187.09-21.02-95.27 22.584z"/><path fill="#cb8d68" fill-opacity=".349" d="M83.91 613.867L-62 657.34 98.974 827.722-62 835.905z"/><path fill="#dcc4b9" fill-opacity=".675" d="M-19.822 962.467l36.902 51.454 1.54-105.837L-62 783.731z"/><path fill="#67433f" fill-opacity=".361" d="M489.267 637.934l-254.45 75.898-10.28 10.193 149.794-42.994z"/><path fill="#2f546e" fill-opacity=".416" d="M90.753 391.367l32.839-.888 19.144 9.617L-28.17 623.693z"/><path fill="#423333" fill-opacity=".808" d="M336.426 364.246l20.24 3.886-7.121-51.894-20.25-7.112z"/><path fill="#593e31" d="M414.712 254.71l32.378 6.573 56.556 1.246L444.172 244z"/></svg>