<svg xmlns="http://www.w3.org/2000/svg" width="228" height="278" viewBox="0 0 836 1024"><path fill="#59798c" d="M0 0h836v1024H0z"/><path fill="#dcfbeb" fill-opacity=".729" d="M167.642-49.383l54.72 1128.877-127.108-32.25L57.278-8.201z"/><path fill="#3c1500" fill-opacity=".576" d="M150.545 18.778L674.32 406.88 898 868.02 833.876-62z"/><path fill="#00295e" fill-opacity=".882" d="M296.794 535.865L92.867 450.347-62 602.823l113.462 4.433z"/><path fill="#0071db" fill-opacity=".655" d="M261.55 1086l563.674-303.944-68.733-203.562-476.53 52.148z"/><path fill="#51bbea" fill-opacity=".961" d="M163.884 476.41l573.943 46.097-82.752-149.313L239.07 358.98z"/><path fill="#defd4d" fill-opacity=".784" d="M191.764 578.137l63.766-25.612 22.397 242.55-61.741 133.242z"/><path fill="#7c6f64" d="M429.404 49.25l123.888 120.205L449.71 412.844 168.597 227.42z"/><path fill="#dc7979" fill-opacity=".918" d="M520.001 605.108l-199.09-11.103-13.967-100.337 250.491 4.452z"/><path fill="#352226" fill-opacity=".769" d="M756.727 975.723l74.128 85.051L898 703.055l-343.928 312.454z"/><path fill="#112b58" fill-opacity=".851" d="M453.239 964.729l163.308-197.953-14.193-289.304L713.25 731.29z"/><path fill="#004699" fill-opacity=".733" d="M187.785 1086l60.048-212.153 428.01 125.488-29.278 65.522z"/><path fill="#3aa8e4" fill-opacity=".976" d="M545.933 931.537L721.522 715.82 517.09 282.036l321.373 474.098z"/><path fill="#c9a587" fill-opacity=".792" d="M544.795 872.635l-18.853 53.35L667.9 938.264l-29.32-76.746z"/><path fill="ivory" fill-opacity=".318" d="M-62 654.882L209.835 547.24l3.646 52.151-25.693 434.013z"/><path fill="#481f12" fill-opacity=".565" d="M-62 344.209L34.122-62H41.6l7.497 411.465z"/><path fill="#fdd3ae" fill-opacity=".561" d="M361.498 76.757l-9.344 59.65 133.764.251 11.645-63.057z"/><path fill="#322626" fill-opacity=".933" d="M179.91-62l3.624 187.53 216.37-57.186 271.667 27.868z"/><path fill="#dafcf1" fill-opacity=".976" d="M161.64-1.17L60.016-62 89.62 404.93l84.885-7.37z"/><path fill="#1075d1" fill-opacity=".784" d="M528.358 1001.573L266.046 449.84l-25.935 20.075 81.735 470.693z"/><path fill="#000300" fill-opacity=".337" d="M898 344.317l-198.776 8.598-352.002-28.348 458.922-186.219z"/><path fill="#90928e" fill-opacity=".91" d="M196.233 489.132l-6.151-191.38 139.358 5.406L64.284 469.066z"/><path fill="#0051c5" fill-opacity=".541" d="M535.478 636.012l200.586-131.276-127.202-48.918-48.221 12.021z"/><path fill="#72e1fd" fill-opacity=".867" d="M677.226 396.52l-121.979-58.658-102.671 104.073 97.777 31.94z"/><path fill="#000019" fill-opacity=".533" d="M241.542 1001.44l-33.206-34.426 34.94-91.374 67.698 106.004z"/><path fill="#0046a1" fill-opacity=".769" d="M634.838 787.36L465.072 974.977l-8.577-209.25-11.938-17.53z"/><path fill="#1460b9" fill-opacity=".875" d="M340.368 327.344l103.506 94.525 105.746-70.775-173.763 45.872z"/><path fill="#9b8864" fill-opacity=".467" d="M-.819 779.991l-27.593 253.887 136.721 38.864-19.35-388.526z"/><path fill="#0f7fe2" fill-opacity=".761" d="M282.436 594.512l301.776 17.663 21.056 154.39-337.32-35.974z"/><path fill="#0081ff" fill-opacity=".533" d="M104.31 463.324l-7.788 37.19L-62 579.61l159.603-152.2z"/><path fill="#36b5f8" fill-opacity=".918" d="M734.626 526.234l75.681 186.483-112.058-68-22.371-57.854z"/><path fill="#5bd7ff" fill-opacity=".612" d="M190.704 413.995l118.054 114.591 69.188-194.743-139.234 23.142z"/><path fill="#d6b6b5" fill-opacity=".839" d="M319.03 580.706l157.809 1.319 59.54-23.464-165.027-44.182z"/><path fill="#001d53" fill-opacity=".596" d="M256.064 461.309L-57.03 573.059l315.452-9.012 16.536 128.01z"/><path fill="#a87e5a" fill-opacity=".631" d="M475.988 369.577l48.34-16.52-33.33-173.8-169.984-6.005z"/><path fill="#42382e" fill-opacity=".733" d="M641.443 153.409l-270.087 18.574L172.816 90.9l191.85 47.931z"/><path fill="#2cb8fd" fill-opacity=".616" d="M579.472 844.606l100.815 49.087 70.045-47.584 55.32-136.379z"/><path fill="#43362d" fill-opacity=".816" d="M641.853 808.084l-17.359 5.922 44.434-178.171 35.29 98.628z"/><path fill="#b60000" fill-opacity=".525" d="M280.135 591.344l274.929-13.277-30.307 24.825-9.027 2.962z"/><path fill="#daffff" fill-opacity=".349" d="M260.522 1025.844l-52.574-44.026-23.223-323.324-158.018 392.238z"/><path fill="#573a2d" fill-opacity=".733" d="M843.322 927.953l42.823-608.928-174.178 168.577 81.613 131.77z"/><path fill="#2d2c28" fill-opacity=".549" d="M335.421 235.048l90.728 173.593 27.544-117.645-138.597 56.086z"/><path fill="#150200" fill-opacity=".325" d="M63.312 766.956L-62 872.837l123.385-6.048 2.673-54.135z"/><path fill="#380a00" fill-opacity=".467" d="M62.255 452.644L-62 427.651l13.805 170.122L-62 590.81z"/><path fill="#aebdc1" fill-opacity=".302" d="M290.503 170.213L136.26 141.376l141.55 109.24 230.231-68.758z"/><path fill="#361700" fill-opacity=".302" d="M220.677 450.446l-102.598-71.219 59.361 72.118L-62 657.34z"/><path fill="#effffd" fill-opacity=".576" d="M586.434 445.012l-12.41-34.801-60.833 12.368 25.199 50.391z"/><path fill="#00001e" fill-opacity=".533" d="M616.335 583.907l49.66 109.894-43.908-188.218-28.037 18.09z"/><path fill="#555660" fill-opacity=".776" d="M646.806-7.105L710.269-62 750 137.348 648.12 156.78z"/><path fill="#e1f4e3" fill-opacity=".255" d="M198.404 465.076L-9.343 163.156l51.26 11.78L178.635 16.508z"/><path fill="#e40c02" fill-opacity=".333" d="M435.502 596.484L313.057 552.61l5.437-70.867 35.502 55.643z"/><path fill="#d8fdf2" d="M96.553 601.336l77.635-30.958L202.338 1086l-69.284-41.634z"/><path fill="#5e5f69" fill-opacity=".537" d="M695.307 272.479l100.965 131.483L677.71 543.425l64.92 2.48z"/><path fill="#241004" fill-opacity=".376" d="M595.988 1086l136.119-112.255 118.643 19.473-68.852-140.823z"/><path fill="#0983f1" fill-opacity=".42" d="M295.538 442.121l34.832 230.163-97.931-252.987-68.446 125.963z"/><path fill="#292726" fill-opacity=".537" d="M605.212-62l99.167 531.578-24.24-67.09-172.145-101.77z"/><path fill="#e6403b" fill-opacity=".82" d="M476.994 564.357l28.194-67.201 42.761 16.54-60.103 41.689z"/><path fill="#e4e1e3" fill-opacity=".898" d="M381.758 507.733l-21.58 12.098-23.71 47.203 71.393-60.77z"/><path fill="#0a387f" fill-opacity=".553" d="M535.942 951.633L358.994 794.82l144.721 171.766 70.206-88.881z"/><path fill="#f4211c" fill-opacity=".475" d="M403.33 495.623l64.699 110.454-40.518-71.966 84.893-28.874z"/><path fill="#55daff" fill-opacity=".659" d="M561.974 497.068l-67.124-78.572-249.796-22.653 60.898 94.334z"/><path fill="#323331" fill-opacity=".784" d="M629.08 282.958L500.053 141.292 479.357 20.947 898 422.763z"/><path fill="#dffefd" fill-opacity=".71" d="M696.808 453.704l-34.237 14.358 7.854-23.04-5.38-51.01z"/><path fill="#081c2d" fill-opacity=".718" d="M223.751 976.81l4.154-96.026 72.334 38.978-19.954-25.613z"/><path fill="#f3cbaf" fill-opacity=".2" d="M542.023 937.31l251.555 80.714L701.739 1086l-77.043-261.783z"/><path fill="#cbfdfd" fill-opacity=".373" d="M378.64 581.307l105.983-60.187 21.25 88.187 38.878-81.078z"/><path fill="#504f54" fill-opacity=".584" d="M307.143 161.46l14.303 161.085 29.72-283.418-169.865 90.17z"/><path fill="#492011" fill-opacity=".267" d="M174.545 245.64l35.91 65.736 40.905-17.096-23.413-93.494z"/><path fill="#eff8f4" fill-opacity=".322" d="M336.627 460.428l-127.65-80.234 95.142 41.179 85.535 11.998z"/><path fill="#1ba6fd" fill-opacity=".518" d="M697.964 514.805l-164.885-48.319 32.688 114.539 31.637-185.639z"/><path fill="#d2a784" fill-opacity=".62" d="M510.031 173.545l-81.94 56.914-9.778-84.278-65.976 66.168z"/><path fill="#452120" fill-opacity=".408" d="M378.528 208.32l75.546 73.372-84.627-7.22 70.147-63.455z"/><path fill="#1f94ec" fill-opacity=".549" d="M401.996 994.583L235.979 848.425 481.897 1086h266.876z"/><path fill="#3f454b" fill-opacity=".922" d="M658.299 1023.94l77.579-59.054-169.423 26.816 41.15-53.896z"/><path fill="#8c9a9d" fill-opacity=".643" d="M280.996 266.716l-79.542 58.544-13.153 75.942 139.985-65.163z"/><path fill="#001b2d" fill-opacity=".71" d="M116.17 483.548l36.925-5.746-60.191 99L-62 632.536z"/><path fill="#ffe7d2" fill-opacity=".361" d="M404.37 167.435l8.883 12.515L374.73 68.876l75.592 15.184z"/><path fill="#1a81d4" fill-opacity=".933" d="M331.864 704.793l-84.598 170.12L447.78 967.29 307.21 851.937z"/><path fill="#331514" fill-opacity=".671" d="M898-13.103L746.58-7.27l-6.326 65.059L898 44.215z"/><path fill="#0f539f" fill-opacity=".98" d="M529.583 1041.945l-48.145-153.161 94.147 89.42 9.56-75.897z"/><path fill="#0085f5" fill-opacity=".51" d="M565.674 350.757L384.73 438.01l85.532-28.356 76.408-92.169z"/><path fill="#adcaa8" fill-opacity=".475" d="M101.523 611.02L-62 603.729l112.355 35.019 60.469 422.748z"/><path fill="#d2f149" fill-opacity=".518" d="M256.634 562.526l18.296 253.097-28.299 60.516-53.335-319.474z"/><path fill="#3cc0f9" fill-opacity=".976" d="M771.217 654.393l-102.33 226.403 1.83 22.509-48.299-45.762z"/><path fill="#150000" fill-opacity=".329" d="M260.734 588.66L240.85 460.776l-7.617 5.026-17.607 105.227z"/><path fill="#0053b6" fill-opacity=".553" d="M598.075 478.844l35.575 297.358L566.5 606.36l-54.306 40.05z"/><path fill="#cee5d6" fill-opacity=".353" d="M59.82 453.825L60.628-62 46.148 90.808l77.015 333.046z"/><path fill="#46cefc" fill-opacity=".353" d="M239.387 708.078l251.33 175.566 37.263 50.692L294.627 742.09z"/><path fill="#ffa55a" fill-opacity=".255" d="M94.333 449.86l95.445 59.225 20.534-34.794-79.178-77.348z"/><path fill="#7e7a7c" fill-opacity=".769" d="M-3.862 306.138L42.09 468.342-62 250.416l117.348 1.377z"/><path fill="#b50c04" fill-opacity=".463" d="M320.79 567.356l43.871 29.65-53.02-11.404 6.462-73.2z"/><path fill="#2d0100" fill-opacity=".376" d="M-62 351.645L56.33 337.81l1.291-61.685-4.59-5.464z"/><path fill="#001314" fill-opacity=".435" d="M425.037-7.018l-87.702 63.984 111.317 9.056 103.766 52.4z"/><path fill="#d5413d" fill-opacity=".914" d="M393.834 597.874L451.3 588.5l18.131-93.691-26.453 85.76z"/><path fill="#db3d38" fill-opacity=".62" d="M407.737 565.574l12.723-47.15 82.914-24.835-136.829 76.503z"/><path fill="#002466" fill-opacity=".749" d="M486.931 989.217l-23.073-5.571-62.674-3.046 203.974 74.979z"/><path fill="#090000" fill-opacity=".341" d="M465.045 141.974l-150.452 7.89 116.212 12.016 36.3 25.712z"/><path fill="#846744" fill-opacity=".482" d="M562.994 184.895L417.064 409.94l77.18-315.49-37.306 23.197z"/><path fill="#032b6e" fill-opacity=".553" d="M260.822 493.78l7.963 254.09.697-29.27 11.363-50.233z"/><path fill="#611b24" fill-opacity=".416" d="M794.307 810.623l27.19-69.74-6.529 150.125-118.193-15.286z"/><path fill="#b01f1b" fill-opacity=".702" d="M530.471 578.73l-42.933 21.32 51.28 3.204 6.947-57.692z"/><path fill="#005fd6" fill-opacity=".384" d="M115.22 516.383l15.4 51.698 128.602-127.574-43.444 50.23z"/><path fill="#1d90e4" fill-opacity=".855" d="M386.517 685.97l-67.245-74.816-22.25-39.065-15.22 229.297z"/><path fill="#2097f0" fill-opacity=".667" d="M508.182 996.718L406.323 959l5.265-38.692-130.747-130.66z"/><path fill="#1a9bf7" fill-opacity=".576" d="M705.85 487.503l-68.715 85.37 105.996 163.34-84.04-268.769z"/><path fill="#043074" d="M224.183 935.77l151.142 87.492L466.692 1086 321.606 967.728z"/><path fill="#161d20" fill-opacity=".549" d="M411.848 374.61l-52.677-78.756 69.116 22.05-.52 23.753z"/><path fill="#141716" fill-opacity=".404" d="M506.95 310.818l11.98-99.788 147.467 180.025-43.613-27.528z"/><path fill="#0f0d00" fill-opacity=".263" d="M876.837 538.958L898 183.653 760.816 157.71l-36.428 50.222z"/><path fill="#bfa990" fill-opacity=".737" d="M647.187 956.402l-39.029-96.908-45.167 8.4 104.58 29.64z"/><path fill="#451401" fill-opacity=".467" d="M180.418 464.824L150.91 398.66l-8.013 18.72 47.305 6.745z"/><path fill="#0460c6" fill-opacity=".659" d="M360.536 783.424l154.388 131.65L470.959 729.5l-21.917-21.521z"/><path fill="#ff2520" fill-opacity=".412" d="M315.58 503.892l190.133 7.99-154.258-22.167-36.107 78.726z"/><path fill="#6e7c83" fill-opacity=".518" d="M203.751 126.899l116.624 12.245-5.635 222.592-127.853-200.718z"/><path fill="#003f93" fill-opacity=".459" d="M631.529 813.761L511.56 896.313l-31.01-98.028 154.96-96.616z"/><path fill="#384553" fill-opacity=".549" d="M760.906 684.88l-31.12 15.18-48.929 74.402-21.81-57.32z"/><path fill="#003caa" fill-opacity=".416" d="M405.17 414.648l-62.664-52.624 138.224 33.99-5.693-32.17z"/><path fill="#4fd2fe" fill-opacity=".667" d="M183.78 411.511l186.762-76.797-165.257 136.05-16.601-44.605z"/><path fill="#0c7bd9" fill-opacity=".62" d="M279.14 1007.84l89.702 78.16-191.382-43.118 81.865-54.628z"/><path fill="#5b483a" fill-opacity=".408" d="M69.724 369.935l4.867 5.778-46.844-19.242 5.146 126.095z"/><path fill="#404651" fill-opacity=".988" d="M528.5 73.816l-13.433-1.2L433.07-44.832 664.931-62z"/></svg>