<svg xmlns="http://www.w3.org/2000/svg" width="228" height="278" viewBox="0 0 836 1024"><path fill="#8a4563" d="M0 0h836v1024H0z"/><g fill-opacity=".502"><path fill="#fe0100" d="M238 146l4 920 496-48z"/><path fill="#1891ff" d="M898-58V970L510-62z"/><path fill="#1c8bff" d="M14 1078l192-924H-62z"/><path fill="#d21502" d="M98 378l616-116-284 824z"/><path fill="#2f5739" d="M406 402L-62 14l564-76z"/><path fill="#c50000" d="M90 706l132-344-68 700z"/><path fill="#5679ff" d="M314 154l-360 28 4 448z"/><path fill="#0070ff" d="M602 478l108 260-108-8z"/><path fill="#c30000" d="M802 954L562 342l200 252z"/><path fill="#8aa8a4" d="M462 262l12-324 324 452z"/><path fill="#4192ef" d="M162 918l96-8-44-296z"/><path fill="#db302c" d="M266 794l404-516-540 48z"/><path fill="#c88e68" d="M234 386L350 54l-120 4z"/><path fill="#003653" d="M-62 6L58 206 278-18z"/><path fill="#3061f7" d="M582 294L898 78 618-62z"/><path fill="#589ac4" d="M658 582l-36 300 112 28z"/><path fill="#3f6d90" d="M110 1086L74 614-62 978z"/><path fill="#4069ff" d="M898 410l-96 412-64-460z"/><path fill="#1a0800" d="M278 22l164 8 16 160z"/><path fill="#6c0000" d="M554 470l172 168-88-300z"/><path fill="#575b53" d="M898 250l-388-4 388 132z"/><path fill="#ad1411" d="M194 586l372 500 44-616z"/><path fill="#b8ad8c" d="M630-62L554 98 254-62z"/><path fill="#290000" d="M218 598l-92 108 64-224z"/><path fill="#446af8" d="M146 230L90 750l-152-64z"/><path fill="#6f381a" d="M382 410L230 226 482 98z"/><path fill="#fe4738" d="M90 1086l100-64-88-276z"/><path fill="#ffdae7" d="M150 538l-28-76-12 144z"/><path fill="#0054a4" d="M170 942l72-76-20 180z"/><path fill="#ff2f36" d="M654 314l-200-60-4 168z"/><path fill="#aea7ae" d="M758 298l-68 244-24-252z"/><path fill="#ef4838" d="M726 918l92 44-52-340z"/><path fill="#3a65dc" d="M-42 398l296-100-60-164z"/><path fill="#ff393e" d="M314 298l-168 44-24 152z"/><path fill="#ae9664" d="M50 750L-62 858l172 4z"/><path fill="#ff3233" d="M766 1086L510 926l124-72z"/><path fill="#fff7f8" d="M286 90l-60 20 20-60z"/><path fill="#f4242b" d="M350 786L214 558l64 528z"/><path fill="#235098" d="M802 926l24-436 72 340z"/><path fill="#c9d3b7" d="M74 1046l32-72 84 68z"/></g></svg>