<svg xmlns="http://www.w3.org/2000/svg" width="228" height="278" viewBox="0 0 836 1024"><path fill="#6b6f73" d="M0 0h836v1024H0z"/><path fill="#a9bae8" fill-opacity=".831" d="M638.989 1057.263l-382.717-16.831-5.95-659.761 441.816 35.453z"/><path fill="#000d01" fill-opacity=".698" d="M698.646 481.793l59.575 282.773L898 5.789 464.857-7.584z"/><path fill="#243418" fill-opacity=".937" d="M108.768 343.18L-62 21.86 366.966-62l-20.958 380.692z"/><path fill="#27429f" fill-opacity=".969" d="M528.55 1086l-76.87-25.707 19.051-376.407 87.718 28.412z"/><path fill="#0d2987" fill-opacity=".824" d="M300.334 686.565l76.86 8.222-9.88 377.012-72.472-3.054z"/><path fill="#fbfcfe" fill-opacity=".733" d="M627.215 339.201L558.164 693.8l-15.417 353.36L656.284 1086z"/><path fill="#fafced" fill-opacity=".478" d="M68.76 1086L-62 833.034l172.586-379.595-99.25-231.846z"/><path fill="#ff996e" fill-opacity=".471" d="M540.18 433.633L344.66 249.584l18.662-182.421 199.974-12.085z"/><path fill="#fdfffb" fill-opacity=".647" d="M374.192 747.65l44.985-327.798 94.004-25.087L419.315 1086z"/><path fill="#434940" d="M240.82 352.106l-168.834 518.3L87.596 1086l170.795-108.89z"/><path fill="#28343d" d="M781 286.717L898 665.62l-231.425 74.671-15.504-64.614z"/><path fill="#fea170" fill-opacity=".58" d="M736.247 1059.995L833.138 1086l-54.983-378.964-85.152 13.418z"/><path fill="#4d6bca" fill-opacity=".969" d="M418.698 353.773l-80.1 16.153-37.616 226.689 91.663-3.815z"/><path fill="#feffff" fill-opacity=".624" d="M269.565 1023.827l64.917-664.563-79.895 64.238-2.988 67.314z"/><path fill="#e6ebf6" fill-opacity=".988" d="M696.591 547.841l-140.6 290.203 48.598-442.97 90.945 55.293z"/><path fill="#012ab9" fill-opacity=".42" d="M569.4 614.264l50.026-355.278L499.582 450.82l-13.33 150.836z"/><path fill="#101d0e" fill-opacity=".69" d="M898 399.119l-281.377-5.055-84.835-135.751L675.918-62z"/><path fill="#d2e0dd" fill-opacity=".518" d="M18.715 744.912l-3.768-372.163 11.237-134.663 60.012 11.991z"/><path fill="#394538" fill-opacity=".667" d="M732.106 1086L624.307 802.598l128.691-120.39-72.308 46.833z"/><path fill="#bc8a6d" fill-opacity=".71" d="M183.45 623.698L47.204 526.986l77.157-222.418-6.125 461.718z"/><path fill="#233117" fill-opacity=".655" d="M49.079 217.632L566.194-16.694-53.09-25.908l32.836 378.305z"/><path fill="#453302" fill-opacity=".459" d="M-8.38 858.372l80.44-334.711 88.258 338.633-189.38-225.218z"/><path fill="#fac8bf" fill-opacity=".659" d="M495.206 64.927l-120.562-3.46-21.754 74.69 126.39 17.702z"/><path fill="#4c5640" fill-opacity=".988" d="M785.577 744.124L841.196 1086l55.87-787.017L782.294 462.91z"/><path fill="#000d5b" fill-opacity=".541" d="M276.048 336.706l-63.83 322.843-97.609-92.78 27.084-10.812z"/><path fill="#4e4b35" fill-opacity=".51" d="M209.377 277.397L65.785 424.951l415.533-88.146 32.466-75.557z"/><path fill="#3a4b7a" fill-opacity=".996" d="M752.32 429.789l-11.407 19.823-32.578 23.544L568.864 316.75z"/><path fill="#c5d1d0" fill-opacity=".714" d="M23.8 676.821l46.267 112.86-7.712 270.902L13.298 1086z"/><path fill="#d6e5d4" d="M551.892 702.993l-241.97-19.91-24.41-44.323 325.801 26.97z"/><path fill="#bf867b" fill-opacity=".992" d="M66.62 517.867l49.278-103.82 117.55-16.038-42.79 67.712z"/><path fill="#e0e6f6" fill-opacity=".878" d="M463.65 971.109l-98.784 108.252 21.519-283.628 66.529 42.094z"/><path fill="#7289be" fill-opacity=".827" d="M305.27 610.465l-5.365 28.206 219.12 13.91 102.195-5.977z"/><path fill="#d7a88f" fill-opacity=".78" d="M431.576 412.01l80.882 5.49 67.909-77.042-33.318-42.857z"/><path fill="#fffff9" fill-opacity=".431" d="M556.686 535.952l-194.513 98.642 77.34-146.936 273.31 42.47z"/><path fill="#000323" fill-opacity=".655" d="M709.414 485.866l-55.128 194.9 22.492 65.048 95.2-163.133z"/><path fill="#f0f3fc" fill-opacity=".553" d="M659.43 916.01L692.583 1086l-141.126-30.811 30.727-462.808z"/><path fill="#61483e" fill-opacity=".686" d="M463.213-62l44.317 217.195 58.454 42.227 21.17-94.192z"/><path fill="#375ecc" fill-opacity=".918" d="M367.695 1029.944L295.314 868.04l-6.722 132.13 19.351 47.267z"/><path fill="#e5eaf3" fill-opacity=".878" d="M291.648 1044.2l-18.94-313.191-13.691 229.234L243.74 1086z"/><path fill="#3c4877" fill-opacity=".796" d="M201.74 427.626l27.937 45.398-13.77-106.464L464.8 306.135z"/><path fill="#bf734f" fill-opacity=".451" d="M575.572 141.317L503.59 385.37l-87.68 12.465-57.995-147.098z"/><path fill="#e5ebf3" fill-opacity=".839" d="M308.95 593.21l248.064 43.202 114.188-111.059-60.655 87.158z"/><path fill="#476ad3" fill-opacity=".694" d="M404.672 499.565l-21.53-190.385-65.272 165.255-23.233 125.218z"/><path fill="#3256cc" fill-opacity=".639" d="M116.708 534.466l65.5-55.25-27.506 112.195-41.087-32.527z"/><path fill="#56665a" fill-opacity=".722" d="M5.742 350.234L-4.978 1086l22.064-207.151-3.645 41.094z"/><path fill="#3c5fd6" d="M507.71 444.925l81.49 26.945 17.546-85.098-50.89-12.649z"/><path fill="#162210" fill-opacity=".722" d="M482.98 20.303L404.075 58.91 898-8.288l-3.899 276.963z"/><path fill="#583706" fill-opacity=".353" d="M106.073 505.137l-53.944 50.19-19.393 81.892L94.35 838.953z"/><path fill="#474f3a" fill-opacity=".757" d="M65.596 795.412L220.74 1086l44.28-162.068-30.48-319.313z"/><path fill="#0a2995" fill-opacity=".478" d="M494.453 527.776l13.234 30.51 67.898 47.943L480 598.882z"/><path fill="#fbfdff" fill-opacity=".545" d="M287.083 390.913l60.117-18.959-71.788 219.01-23.793-192.595z"/><path fill="#0f2278" fill-opacity=".529" d="M780.714 517.821l-58.708-84.275 84.971 264.447-103.63 30.362z"/><path fill="#1d250e" fill-opacity=".31" d="M104.756-62l243.57 430.198L500.533 258.37l-49.068 117.24z"/><path fill="#031351" fill-opacity=".322" d="M373.404 701.498l-8.558 337.06-74.872-354.982 73.438 4.946z"/><path fill="#dfe5f1" fill-opacity=".659" d="M385.157 495.424l-131.379-3.777-14.783 50.92 69.148-28.583z"/><path fill="#ae937e" fill-opacity=".969" d="M150.633 701.052l-26.053-16.714-22.261-129.104 81.036 85.012z"/><path fill="#41411f" fill-opacity=".306" d="M747.314 788.844l-110.39 159.72L763.871 1086 638.355 780.031z"/><path fill="#f9fafe" fill-opacity=".616" d="M376.88 641.758l53.038-257.53 63.152 65.787 11.613 64.529z"/><path fill="#dce2f1" fill-opacity=".91" d="M261.567 858.095l6.74 208.542 33.02-230.098-51.75-321.652z"/><path fill="#041349" fill-opacity=".349" d="M460.88 817.207l11.36-126.84 65.45 66.982-80.735 130.133z"/><path fill="#67402a" fill-opacity=".588" d="M443.858 152.688l31.515 26.49-196.777-30.288 150.498-3.698z"/><path fill="#dfe4f2" fill-opacity=".988" d="M564.491 622.295l27.482 234.453 73.464-109.18 3.405-22.61z"/><path fill="#d0dadb" fill-opacity=".451" d="M75.367 496.165L8.35 667.194l33.264-401.986 21.773 25.954z"/><path fill="#525d40" fill-opacity=".537" d="M75.279 470.308l56.916-242.535 99.312 158.277L72.541 248.857z"/><path fill="#f3ada3" fill-opacity=".392" d="M568.484 185.849l-210.014 3.023-13.365-93.398L359.14 229.21z"/><path fill="#ecf0f9" fill-opacity=".733" d="M437.127 658.63l47.012-205.9 202.44 48.36-269.103-48.87z"/><path fill="#131a35" fill-opacity=".737" d="M175.696 676.485l66.508-93.615 11.506-183.53-34.08 29.932z"/><path fill="#305cd7" fill-opacity=".859" d="M479.505 1018.122L559.673 1086l-18.455-85.257-10.7-56.707z"/><path fill="#1a2917" fill-opacity=".655" d="M2.002 630.283L-16.446 44.806l140.89 33.57L9.372 260.655z"/><path fill="#414e39" fill-opacity=".957" d="M692.678 390.355L898 400.889 802.348 1086 898 587.626z"/><path fill="#2f53d1" fill-opacity=".769" d="M572.226 616.568l-48.736-85.703 43.694 10.203 14.31 20.089z"/><path fill="#000a37" fill-opacity=".337" d="M449.9 1005.153l55.845-43.628 30.169-39.59-68.434-15.509z"/><path fill="#97eb03" fill-opacity=".286" d="M541.236 672.502l10.504 5.668-35.602-20.863-189.306 35.421z"/><path fill="#f2f5fc" fill-opacity=".808" d="M610.851 388.833l-34.457 220.605 122.341-91.345 3.532-40.827z"/><path fill="#d89d7e" fill-opacity=".667" d="M773.295 1086l-41.27-212.517 51.568-151.69 25.885 161.65z"/><path fill="#0a0f21" fill-opacity=".749" d="M656.496 707.046l-3.802-62.664 78.98-113.518-36.231 195.639z"/><path fill="#fcc1b9" fill-opacity=".627" d="M133.385 358.37l-34.63-27.655L98.536 414l12.768-47.658z"/><path fill="#e7edf3" fill-opacity=".902" d="M322.655 609.227l-44.187.542 334.046 7.755-336.635-29.148z"/><path fill="#123aaa" fill-opacity=".153" d="M402.154 668.72l223.474-35.951L342.16 610.5l39.944-.74z"/><path fill="#fdc1a6" fill-opacity=".239" d="M431.72 17.031l-51.281 243.284 63.192 161.968-85.79-142.342z"/><path fill="#1e2c19" fill-opacity=".718" d="M350.581 201.128L77.135 260.36 238.048-62l133.956 429.195z"/><path fill="#e0e7f6" fill-opacity=".898" d="M471.892 1086h-80.984l-17.922-305.804 23.581 19.487z"/><path fill="#01209b" fill-opacity=".286" d="M383.749 600.579l-81.324-23.84 15.087-28.755 87.175-61.16z"/><path fill="#d78e7c" fill-opacity=".596" d="M517.672 227.178l47.176-35.614.375-48.349-174.11 62.37z"/><path fill="#010f4f" fill-opacity=".216" d="M596.29 368.607l-19.11-38.719-72.492 211.34-1.76-129.121z"/><path fill="#995333" fill-opacity=".267" d="M1.343 708.488l194.81-291.538-81.439 11.963-48.638 113.706z"/><path fill="#608fff" fill-opacity=".278" d="M348.594 346.797l-177.513 68.398 52.35-50.105 117.778-25.259z"/><path fill="#1e2b17" fill-opacity=".824" d="M536.004 233.456l18.238 66.239 137.402 89.842-94.393-237.669z"/><path fill="#facbc3" fill-opacity=".659" d="M219.27 403.344l-53.851 2.388-48.52 19.65 107.016-11.287z"/><path fill="#897269" fill-opacity=".565" d="M547.407-12.375l-80.44 32.65-84.855 26.474 27.099-26.607z"/><path fill="#474f40" fill-opacity=".992" d="M898 974.971L760.616 1086l-102.11-271.326L687.507 1086z"/><path fill="#3b4a2b" fill-opacity=".867" d="M365.03 275.246l-260.804-16.558-20.58 78.509 292.963-7.592z"/><path fill="#000a38" fill-opacity=".404" d="M375.222 946.701l-3.045 37.607-49.363-87.957-8.17-54.018z"/><path fill="#2f4077" fill-opacity=".788" d="M560.594 365.534l27.925-29.819 210.11 157.051-181.771-97.318z"/><path fill="#0d190c" fill-opacity=".329" d="M872.952 483.027L694.432-62 503.445 118.086l5.669-28.89z"/><path fill="#3862ff" fill-opacity=".392" d="M548.251 851.998L532.75 902.71l-52.855 10.764-.014-60.397z"/><path fill="#e9ccc4" fill-opacity=".678" d="M433.077 78.686L373.48 63.24l-5.965 22.55-21.054 70.468z"/><path fill="#f2f7fe" fill-opacity=".514" d="M606.961 1086l-64.423-107.882 5.979-175.777 114.181 78.355z"/><path fill="#e0e6f3" fill-opacity=".784" d="M254.729 768.27l50.018-19.758-14-91.396-14.36 356.014z"/><path fill="#1c1c41" fill-opacity=".624" d="M248.868 477.996l-80.729 25.944-36.633-6.672 104.443-39.37z"/><path fill="#c1ccca" fill-opacity=".439" d="M58.686 746.922l-58.8-64.267L59.71 855.368l13.454-102.21z"/><path fill="#29361f" fill-opacity=".773" d="M387.41 161.524L-62 257.72 63.68 143.504l142.3-13.594z"/><path fill="#edf1f8" fill-opacity=".886" d="M673.451 1010.975L555.832 859.142 654.746 1086l8.994-143.855z"/><path fill="#425794" fill-opacity=".502" d="M393.22 546.119L379.528 340.71l-68.69-69.633 114.629 111.25z"/><path fill="#d29b7f" fill-opacity=".557" d="M503.333 149.31l-2.82-94.134-44.173 78.178L563 343.25z"/><path fill="#3c3c22" fill-opacity=".753" d="M593.066 24.878l-180.99 41.896L364.32-62 270.2 43.9z"/><path fill="#7e918e" fill-opacity=".502" d="M104.527 242.877l-91.899 1.846-1.808 801.387 19.71-813.44z"/><path fill="#fccda7" fill-opacity=".357" d="M549.282 378.712l32.477-46.756-22.274-22.486-44.075-50.248z"/><path fill="#323a64" fill-opacity=".651" d="M174.365 427.843l54.059-6.926 35.62-69.22-15.274 103.447z"/><path fill="#e2e7f4" fill-opacity=".678" d="M591.416 380.58l79.165 47.003-91.28 438.355 122.973-355.985z"/><path fill="#565d59" fill-opacity=".882" d="M645.077 943.271L685.716 1086l2.02-241.706-10.462 185.388z"/><path fill="#0c226e" fill-opacity=".624" d="M506.806 838.99l22.422 14.349-23.27-154.924-34.396 4.263z"/><path fill="#424c47" d="M700.756 883.69l-53.86 64.374 32.43-82.19.902 142.927z"/><path fill="#ecf2f7" fill-opacity=".651" d="M572.894 654.616l-130.077 55.85-96.119-31.988 222.062 26.56z"/><path fill="#040002" fill-opacity=".161" d="M358.157 359.778l-30.38 9.79 62.188-66.315 165.538-31.26z"/><path fill="#8cdb0d" fill-opacity=".2" d="M421.883 688.862L346.26 659.99l33.525 26.488 284.69-46.258z"/><path fill="#db9ea3" fill-opacity=".478" d="M218.678 439.58l-49.2 46.84-17.199.858 11.712-52.486z"/><path fill="#f6f6fc" fill-opacity=".522" d="M422.79 677.39l4.986-127.036.938-152.606 80.594 20.687z"/><path fill="#111e4b" fill-opacity=".694" d="M701.012 487.138l-7.554-51.7 31.912 21.36 65.334 153.738z"/><path fill="#213dab" fill-opacity=".71" d="M560.62 721.416L536.553 854.29l-26.03-152.74 54.21 6.54z"/></svg>