<svg xmlns="http://www.w3.org/2000/svg" width="228" height="278" viewBox="0 0 836 1024"><path fill="#563d46" d="M0 0h836v1024H0z"/><path fill="#d77f51" fill-opacity=".592" d="M898 313.93v624.833L649.843 923.91l16.205-496.418z"/><path fill="#0e0d34" fill-opacity=".741" d="M216.247 355.771l.26 691.46L681.913 1086 344.94 309.593z"/><path fill="#a46a74" fill-opacity=".984" d="M207.245 778.216l-101.89 204.118 238.482-62.89L-62 874.124z"/><path fill="#825446" fill-opacity=".992" d="M-62 701.46L99.125 113.726l49.06 328.643L311.548 626.36z"/><path fill="#392720" fill-opacity=".957" d="M898 727.52l-287.506.473-53.11 61.373L898 803.004z"/><path fill="#a88988" fill-opacity=".616" d="M645.406 118.382l-182.273 61.44 217.812 140.726 51.537 4.72z"/><path fill="#cba7f5" fill-opacity=".4" d="M638.436 794.886L800.076 1086 562.254 769.385 342.94 931.915z"/><path fill="#dbd5e3" fill-opacity=".631" d="M753.596 526.553L898 381.338l-149.459 22.375L898 543.46z"/><path fill="#c0d1f9" fill-opacity=".376" d="M403.1 205.661l-111.076 52.025-177.243 118.431 93.742 16.998z"/><path fill="#dcd5cc" fill-opacity=".706" d="M-8.941 542.257l130.874-10.272-81.73-65.255L-62 620.569z"/><path fill="#ff6d3a" fill-opacity=".733" d="M714.329 913.864L594.96 797.568 898 815.91l-60.903 116.247z"/><path fill="#d9491e" fill-opacity=".71" d="M45.931 930.519L-62 788.467l207.35 28.036-5.46 79.814z"/><path fill="#cbe2f0" fill-opacity=".596" d="M145.517 862.91L94.209 1086l64.087-152.548 89.326 9.352z"/><path fill="#2041ea" fill-opacity=".231" d="M546.03 811l18.017-214.792L725.37 192.885 370.055 402.532z"/><path fill="#0b0e29" fill-opacity=".643" d="M426.433-62L264.566 596.893l249.406-309.16-278.859-82.575z"/><path fill="#5d3b2f" d="M898 618.838v-69.725l-290.584 12.365 35.876 31.14z"/><path fill="#c39b7b" fill-opacity=".427" d="M168.01 392.682l21.978-263.45 145.61-7.83L295.24-62z"/><path fill="#8e6c58" fill-opacity=".78" d="M516.913 71.99l164.563 24.356.142 47.56-184.545 220.478z"/><path fill="#dc1201" fill-opacity=".671" d="M748.303 728.227L898 736.58v-63.69l-145.792-50.182z"/><path fill="#040410" fill-opacity=".529" d="M470.857 400.216l-60.843 437.17-248.82 8.364 142.982-198.27z"/><path fill="#00121e" fill-opacity=".392" d="M860.756 398.894L898 50.69 608.929 230.661l-9.004-57.682z"/><path fill="#09000d" fill-opacity=".333" d="M29.077 348.586l80.767 163.16 392.811 123.036-311.903-240.655z"/><path fill="#140d4e" fill-opacity=".714" d="M576.89 816.298l97.454 119.735 67.005 58.984-595.71 35.859z"/><path fill="#0e1727" fill-opacity=".698" d="M-42.066 91.485l169.976 57.75 40.795-208.251-65.451 81.43z"/><path fill="#a9d77c" fill-opacity=".529" d="M155.154 962.777L99.494 1086-62 978.71l155.278 10.843z"/><path fill="#211400" fill-opacity=".561" d="M577.642-62L348.606 346.303l163.02-197.31L329.601 10.468z"/><path fill="#b05439" fill-opacity=".573" d="M-31.19 34.023L-62 330.464l333.461-114.6-166.444 181.062z"/><path fill="#26217e" fill-opacity=".765" d="M164.341 928.562L102.771 1086l176.602-120.48-135.1-45.85z"/><path fill="#c2c391" fill-opacity=".325" d="M433.812 602.363l73.058-132.276 57.441 210.152 64.941-82.332z"/><path fill="#ac9c83" fill-opacity=".565" d="M163.198 723.744l24.876-136.125-48.643 5.87-49.593 135.067z"/><path fill="#a2a5ff" fill-opacity=".404" d="M795.836 1076.564L569.119 816.52l-58.786 30.055 52.396-71.564z"/><path fill="#aded6e" fill-opacity=".412" d="M747.012 635.772l-94.23-51.764-1.551 137.801 107.168-14.688z"/><path fill="#c3a198" fill-opacity=".667" d="M685.45 550.307l-26.223-207.044 47.767 147.848L898 455.035z"/><path fill="#553422" d="M205.742 600.264l-40.989 39.689L281.62 697.51l27.574-52.135z"/><path fill="#d0e1f7" fill-opacity=".427" d="M508.357 260.046l125.282-42.138 72.865 110.409-7.308-67.64z"/><path fill="#a4c0cf" fill-opacity=".478" d="M361.384 916.851l-46.29 12.171-148.986 29.241 311.175-98.7z"/><path fill="#c3ca5d" fill-opacity=".51" d="M740.23 1079.405l19.657 6.595L898 983.89l-193.532 10.333z"/><path fill="#887368" fill-opacity=".675" d="M445.133 73.329l3.496 28.145-76.753 181.071-72.52 24.195z"/><path fill="#0e0263" fill-opacity=".412" d="M589.309 467.805l-239.45 44.867 334.376-240.24L519.31 257.39z"/><path fill="#451f03" fill-opacity=".678" d="M652.344 717.247l3.99-387.899-36.21 274.516L547.74 716.03z"/><path fill="#68200d" fill-opacity=".757" d="M193.171 572.532L-62 646.727l41.5-84.877 181.805-3.486z"/><path fill="#271a00" fill-opacity=".463" d="M163.464 818.816L-62 773.335l77.757-38.531 175.94-20.83z"/><path fill="#f4fbd9" fill-opacity=".439" d="M417.038 416.856l44.56 42.908-75.108-13.455 8.678-3.566z"/><path fill="#f6de98" fill-opacity=".494" d="M607.396 398.926l-7.69-31.307-25.529 17.907 25.57 73.27z"/><path fill="#0e0c19" fill-opacity=".831" d="M319.212 907.642l225.084-326.003-69.9 48.593L266.12 344.114z"/><path fill="#baadad" fill-opacity=".549" d="M126.55 550.921L-30.72 363.522l55.912-20.352 33.915 194.862z"/><path fill="#2919ff" fill-opacity=".341" d="M200.269 719.647l44.377-7.636-78.982 168.681-21.981-17.29z"/><path fill="#261a57" fill-opacity=".969" d="M89.878 392.363l120.328 82.07 234.45-133.712 127.965 92.16z"/><path fill="#352195" fill-opacity=".694" d="M670.294 888.88l-24.666-46.424-38.277-17.583-116.293 40.694z"/><path fill="#c72d1d" fill-opacity=".639" d="M46.098 718.241l16.395-125.098L-62 528.871v183.382z"/><path fill="#ffba74" fill-opacity=".282" d="M227.408 524.07l32.64 31.909 52.366 91.253-40.282 51.097z"/><path fill="#5b2b00" fill-opacity=".439" d="M493.286 375.989l29.223-106.29-57.04-234.37-71.738 234.155z"/><path fill="#3e3320" fill-opacity=".824" d="M-62 1029.12L97.149 882.725l-26.503 121.062L-62 707.377z"/><path fill="#fe6840" fill-opacity=".616" d="M99.627 789.32L59.67 804.133l96.267 107.99-54.36 6.728z"/><path fill="#a19d9d" fill-opacity=".494" d="M319.243 98.695L338.133-62 248.6 14.094l59.235 96.936z"/><path fill="#f2fed2" fill-opacity=".373" d="M485.264 612.427l74.88-44.103-34.289.85-74.663 31.605z"/><path fill="#140e41" fill-opacity=".706" d="M164.67 886.32l31.4-77.94 355.83 3.85-204.383 95.995z"/><path fill="#fff9ec" fill-opacity=".475" d="M187.041 394.363l24.873.476 28.018-35.457-69.186 16.876z"/><path fill="#444153" fill-opacity=".808" d="M375.642 562.446l133.424 19.981 79.479-72.686-202.174 33.556z"/><path fill="#dae6c1" fill-opacity=".392" d="M508.515 483.555l-46.165 58.123 46.023-27.336 52.934-24.544z"/><path fill="#fdf296" fill-opacity=".204" d="M616.601 518.47l-256.7 58.69 281.896-35.995-53.077 123.511z"/><path fill="#100900" fill-opacity=".631" d="M784.457 194.346l29.587-126.247L898-22.58v291.035z"/><path fill="#f87c13" fill-opacity=".408" d="M53.23 64.096L-4.945-62l90.021 2.526-6.709 99.25z"/><path fill="#f6d8b9" fill-opacity=".427" d="M558.505 126.887l3.221-40.368-27.504-19.608-4.955 62.136z"/><path fill="#f4f9f0" fill-opacity=".592" d="M504.817 844.66l84.997-37.364-8.842-11.097-1.45-12.901z"/><path fill="#67150e" fill-opacity=".608" d="M731.897 849.846l-22.802 37.33-19.014-10.856 14.584-42.383z"/><path fill="#362c1d" fill-opacity=".604" d="M642.642 818.629l56.223-130.584 81.05 143.544L853.6 723.17z"/><path fill="#850800" fill-opacity=".431" d="M62.688 231.458L54.375 376.54l28.74 59.932L-62 197.875z"/><path fill="#292001" fill-opacity=".475" d="M851.324 986.686L732.71 963.9l13.772-63.4 28.397 15.927z"/><path fill="#34314e" fill-opacity=".463" d="M789.302 220.612L743.604 620.06l-3.303-159.223-60.363-381.03z"/><path fill="#ffaf4a" fill-opacity=".165" d="M567.256 146.805L382.52 226.696l3.643-201.584L528.88 277.014z"/><path fill="#e0b8c9" fill-opacity=".294" d="M665.986 422.65l195.34 35.747-60.016-75.185-133.142 10.716z"/><path fill="#59418b" fill-opacity=".808" d="M204.686 297.59l-67.573 108.442-49.133-4.3 316.399-216.604z"/><path fill="#a7a2b8" fill-opacity=".988" d="M624.743 878.8l1.154 9.802 42.77-2.72 31.928 72.782z"/><path fill="#7d6439" fill-opacity=".455" d="M766.294 172.95L875.774-62 455.472 8.855 725.139 35.96z"/><path fill="#1f1308" fill-opacity=".278" d="M167.68 96.59l180.328 36.655L64.103-62l82.33 369.244z"/><path fill="#191f3f" fill-opacity=".694" d="M351.275-62l-50.6 305.394 31.335-35.99 54.88 49.83z"/><path fill="#321e90" fill-opacity=".549" d="M523.129 822.793l-39.258 13.594L530.21 678.88l50.235 106.267z"/><path fill="#0f0b2f" fill-opacity=".588" d="M199.157 1053.19l42.957-93.28 491.006.096L581.834 1086z"/><path fill="#9e7065" fill-opacity=".529" d="M94.345 442.995l-38.831-200.83 15.116-2.546 93.806 44.6z"/><path fill="#cdaeff" fill-opacity=".145" d="M794.145 180.828L616.543 386.416l-104.74-118.784 80.62 203.327z"/><path fill="#431e0d" fill-opacity=".816" d="M665.502 390.877L655.69 568.31l-48.912-51.273 33.138-120.581z"/><path fill="#7b453d" fill-opacity=".62" d="M617.382 160.872l-60.303 42.845 65.276 43.609 51.671-47.772z"/><path fill="#04131f" fill-opacity=".459" d="M521.278 16.109l39.187 57.36L321.376 57.9l68.262-100.97z"/><path fill="#474416" fill-opacity=".341" d="M779.374 77.953l-183.78 76.468-60.297-111.068L776.213-13.79z"/><path fill="#b2cbde" fill-opacity=".494" d="M253.107 945.655l79.605-29.176-5.189-5.448-179.963 6.397z"/><path fill="#37251a" fill-opacity=".682" d="M226.84 601.374L116.855 850.128l-16.898-86.882 176.674-110.124z"/><path fill="#000112" fill-opacity=".384" d="M510.165 264.769l-188.224 27.146-35.07 35.262 185.168 44.05z"/><path fill="#070705" fill-opacity=".376" d="M420.216 536.585L169.622 287.062l75.52 50.367 54.371 279.493z"/><path fill="#d3fdfd" fill-opacity=".204" d="M405.182 255.626l-158.01 50.76 125.425-60.36L208.9 364.342z"/><path fill="#c0c2c8" fill-opacity=".6" d="M693.482 278.081l-5.092-17.797-64.724-37.875-19.18 31.6z"/><path fill="#aba7b3" fill-opacity=".992" d="M653.427 255.199l-102.758-39.162-4.447 37.87 16.82 3.627z"/><path fill="#c1bfca" fill-opacity=".937" d="M160.97 920.86l-58.229 99.046 50.552-144.977 89.24 57.466z"/><path fill="#13102b" fill-opacity=".788" d="M480.171 726.046l39.482-96.651L210.386 915.8l83.044-6.447z"/><path fill="#eff9ec" fill-opacity=".314" d="M390.024 214.391l-68.533 38.587-80.663 77.347-40.586 14.479z"/><path fill="#ff854d" fill-opacity=".718" d="M730.957 788.18l-17.41 147.587 119.228-145.218-15.225 150.495z"/><path fill="#342921" fill-opacity=".796" d="M-62 727.298l168.42 1.632-61.15 119.63-8.923-72.063z"/><path fill="#bc91a0" fill-opacity=".435" d="M898 3.057L782.71 7.612l20.953 33.864 8.258 3.49z"/><path fill="#fc5e3b" fill-opacity=".714" d="M13.402 812.227l56.027 65.94-12.414 17.825-28.877 29.762z"/><path fill="#feffd4" fill-opacity=".227" d="M207.412 529.863l3.79-40.986-21.564 6.322-11.899 147.284z"/><path fill="#6c452b" fill-opacity=".988" d="M532.926 180.57l-52.784-60.489 3.375-35.983 68.018 58.07z"/><path fill="#362c33" fill-opacity=".443" d="M377.18 230.71L241.573 341.806l88.738-92.755 313.636-2.794z"/><path fill="#d2c8df" fill-opacity=".416" d="M704.246 477.086l16.58.46 19.963 55.506-69.218-9.668z"/><path fill="#001905" fill-opacity=".341" d="M174.001 551.02l12.885 18.399-71.701 35.863-90.647-26.957z"/><path fill="#483763" fill-opacity=".757" d="M56.033 659.992l14.606 41.963 60.293-10.49 6.046-36.336z"/><path fill="#35301a" fill-opacity=".573" d="M119.69 967.141l-35.708-98.692-37.256 62.89L-62 977.725z"/><path fill="#25118e" fill-opacity=".408" d="M662.415 263.753l16.065 52.502-153.745 75.014 18.31-129.67z"/><path fill="#fea399" fill-opacity=".431" d="M710.493 662.402l31.065 63.508 7.525-71.341-5.308-53.631z"/><path fill="#54290f" fill-opacity=".702" d="M127.864 408.34l-43.222 86.365 85.383 22.955 32.19-45.218z"/><path fill="#4d4a5f" fill-opacity=".859" d="M760.587 331.975l3.68-130.31-36.445 6.152-6.912 106.56z"/><path fill="#902c02" fill-opacity=".271" d="M653.972 519.013l5.384-102.802 109.19 110.306-1.305-123.992z"/><path fill="#fbe8c5" fill-opacity=".345" d="M561.157 649.93l63.578-55.85-2.02-31.758-69.098 128.63z"/><path fill="#1f1e3a" fill-opacity=".58" d="M697.311 349.257l175.659-74.33-138.411 137.4 12.733-14.31z"/><path fill="#fcead8" fill-opacity=".235" d="M89.718 687.819l-19.351 18.359 43.277 31.8 24.442-29.797z"/><path fill="#4b211e" fill-opacity=".62" d="M16.17 281.203l36.905 136.61-8.304 43.29 59.519-57.791z"/><path fill="#988580" fill-opacity=".89" d="M-3.558 511.595L-62 583.05l170.848-172.469-3.597-6.619z"/><path fill="#211663" fill-opacity=".655" d="M769.003 1005.548L582.54 868.132l-89.14-2.635 168.797 110.54z"/><path fill="#6fac21" fill-opacity=".333" d="M14.732 1086L124.12 970.325l-163.867-6.245 31.46 9.296z"/><path fill="#c06731" fill-opacity=".251" d="M149.672 257.052l140.43-197.508L248.177-62l.228 345.416z"/><path fill="#7158d1" fill-opacity=".275" d="M553.865 633.234L689.02 253.729l-83.834 174.504-96.213 270.892z"/></svg>