<svg xmlns="http://www.w3.org/2000/svg" width="228" height="278" viewBox="0 0 836 1024"><path fill="#543c43" d="M0 0h836v1024H0z"/><path fill="#e3e6dc" fill-opacity=".702" d="M695.585 1079.943l-52.116-161.356-78.18 56.46-414.084 41.116z"/><path fill="#828ba3" fill-opacity=".808" d="M898 344.169L646.518 621.143 587.716 390.71l-82.36-130.196z"/><path fill="#a6cbde" fill-opacity=".573" d="M189.008 527.729l26.294-231.964-60.088 35.418-209.546 382.874z"/><path fill="#28010a" fill-opacity=".831" d="M230.81 811.518L83.896 549.943 574.804 663.1 389.76 920.594z"/><path fill="#f5fad7" fill-opacity=".635" d="M553.52 434.378l-20.782 88.283-70.268-16.248 14.01-96.017z"/><path fill="#271a17" fill-opacity=".871" d="M383.143 466.705l-22.36-314.48L-62 11.763 736.655-62z"/><path fill="#74003e" fill-opacity=".694" d="M208.3 207.14l259.776 217.705-2.784 156.43-265.808-50.951z"/><path fill="#99aaa1" fill-opacity=".733" d="M508.789 633.397l14.196-36.985-291.502-50.77 51.388 58.693z"/><path fill="#d9f7ff" fill-opacity=".659" d="M621.285 361.818l56.218 56.247 42.979 162.386-108.834-146.939z"/><path fill-opacity=".49" d="M595.772 505.79l-413.305 47.638 33.924-106.94 482.431 268.318z"/><path fill="#846e69" d="M799.405 666.5L627.298 834.612 451.83 771.41l92.142-8.14z"/><path fill="#fddec8" fill-opacity=".184" d="M329.744 1078.93L-62 1064.438-6.66 840.63l93.188-134.62z"/><path fill="#352821" fill-opacity=".624" d="M860.851-45.91L544.762 46.244l100.596 327.082 206.706-124.935z"/><path fill="#ffc0ff" fill-opacity=".31" d="M140.353 340.17l-32.215 114.476 101.228-21.024 137.256-187.417z"/><path fill="#382826" fill-opacity=".98" d="M14.418 327.578L135.458.01l92.879 240.58L56.178 465.138z"/><path fill="#180000" fill-opacity=".573" d="M238.805 928.35l317.878 63.987 106.562-181.406-341.064 211.887z"/><path fill="#b70059" fill-opacity=".557" d="M619.493 346.285l-107.852-52.811-66.211 118.552 159.432 29.211z"/><path fill="#755958" fill-opacity=".988" d="M697.312 425.486l73.39 542.867L898 1039.858l-44.176-82.663z"/><path fill="#e5ffff" fill-opacity=".51" d="M612.809 1086l-6.977-144.834-36.514 42.11-210.928-6.63z"/><path fill="#448b97" fill-opacity=".655" d="M724.298 576.875L630.8 617.188l-38.2-35.453 7.389-137.382z"/><path fill="#170002" fill-opacity=".702" d="M462.96 753.822l110.528 23.055-18.126-41.67 53.734-323.603z"/><path fill="#edfdff" fill-opacity=".475" d="M315.97 479.36l-9.777-50.308-47.703 48.513-6.477-49.167z"/><path fill="#625859" fill-opacity=".976" d="M749.06 558.093l138.336 74.163-45.94-214.634-148.151 39.094z"/><path fill="#a08279" fill-opacity=".498" d="M681.477 782.297L599.988 614.49 551.07 777.441l-186.834 50.163z"/><path fill="#2ae1f2" fill-opacity=".208" d="M179.16 594.248l56.661 201.068-62.25-459.68-80.487 176.646z"/><path fill="#8f817c" fill-opacity=".627" d="M90.19 692.5l-126.333-51.866 35.537-90.046 104.01-56.405z"/><path fill="#614d49" fill-opacity=".667" d="M174.138 247.854l164.539 40.814 97.997-228.155 134.813 4.666z"/><path fill="#1b0018" fill-opacity=".42" d="M151.321 479.729l111.901-50.81-57.408-49.643 37.684 273.893z"/><path fill="#46171c" fill-opacity=".467" d="M693.615 819.687l50.808-56.678-364.29 129.607-34.462 136.78z"/><path fill="#0d0300" fill-opacity=".71" d="M724.803 649.075l-68.407 79.57-109.772-226.898-71.925 63.556z"/><path fill="#c60071" fill-opacity=".404" d="M307.12 431.609l-116.333-46.81 22.82-74.926L349.654 259z"/><path fill="#985d3e" fill-opacity=".38" d="M614.02 826.543l-3.824 197.242 77.42 62.215-7.239-231.68z"/><path fill="#31231f" fill-opacity=".788" d="M243.253 826.12L185.79 589.363l-90.033-62.456.658 98.29z"/><path fill="#9aa29a" fill-opacity=".996" d="M525.927 592.453L507.1 582.394l-52.943 26.762 64.08 24.826z"/><path fill="#58002c" fill-opacity=".671" d="M457.781 527.647l34.061-222.163-154.178 165.628-80.612 94.598z"/><path fill="#c0849a" fill-opacity=".353" d="M650.808 270.242l-30.052 125.787-121.538-113.76 44.983-36.137z"/><path fill="#d5d47b" d="M471.162 505.627l26.54 18.62 16.928-5.881.868-78.58z"/><path fill="#a9cbd8" fill-opacity=".902" d="M626.445 544.682l72.604-5.18 14.036 8.298-18.268-85.105z"/><path fill="#d5eefc" fill-opacity=".565" d="M243.928 1086l-27.904-93.583 71.516 9.225 9.091 9.084z"/><path fill="#080302" fill-opacity=".98" d="M433.585 245.944l64.696 56.537-62.05 54.76-57.399-6.223z"/><path fill="#573c35" fill-opacity=".518" d="M-62 364.055l204.498-55.982-58.05 232.637L-62 564.099z"/><path fill="#3e2e2c" fill-opacity=".878" d="M177.138 54.2l434.016 165.356L-62 88.036l20.862-53.192z"/><path fill="#ce977b" fill-opacity=".282" d="M273.705 906.596L217.8 826.548l141.588 56.556 20.952 53.265z"/><path fill="#5e5663" fill-opacity=".647" d="M675.669 416.474l-89.162-99.735 62.952 3.461 153.61-63.452z"/><path fill="#61373c" fill-opacity=".573" d="M250.855 623.766l-37.36-46.293L55.613 939.866l13.038 127.166z"/><path fill="#1c0000" fill-opacity=".659" d="M234.725 775.501l241.581-158.267 77.007 87.876-295.795 140.519z"/><path fill="#e1fefc" fill-opacity=".435" d="M169.969 318.669l-68.777 131.24 93.096-78.796 5.134-60.114z"/><path fill="#2b1b25" fill-opacity=".471" d="M746.096 946.108L507.264 835.561l98.16 73.24L785.327 1086z"/><path fill="#a6998e" fill-opacity=".435" d="M482.525 843.567l225.696-123.7-52.667 80.85-269.267 77.14z"/><path fill="#020100" fill-opacity=".663" d="M221.705 786.238l-100.642-148.16 92.96-93.25-44.257 157.269z"/><path fill="#250002" fill-opacity=".655" d="M421.97 928.986l7.995-68.293 138.96-61.497-115.993 18.653z"/><path fill="#d4ddde" fill-opacity=".839" d="M380.738 1009.458l230.105-7.46-4.417-83-83.288 161.363z"/><path fill="#1a0c01" fill-opacity=".376" d="M486.578 202.958L698.68 274.09l51.139-293.166L801.17 160.77z"/><path fill="#c2c9e2" fill-opacity=".098" d="M898 541.503L598.528 64.241l66.96-35.985 33.864 32.463z"/><path fill="#640739" fill-opacity=".855" d="M604.04 490.552l-63.89 21.866 19.944-156.365 54.83 173.522z"/><path fill="#40031d" fill-opacity=".996" d="M397.105 476.929l-79.592 3.617-40.38 18.99 45.182 77.845z"/><path fill="#170003" fill-opacity=".671" d="M373.913 581.675L591.7 494.612l-7.458 70.685-248.606-10.618z"/><path fill="#050606" fill-opacity=".851" d="M537.029 30.948L348.414 99.24l109.814-82.808 113.392 94.204z"/><path fill="#012829" fill-opacity=".404" d="M475.217 608.555l74.553-21.744 138.424-16.406-15.368-34.444z"/><path fill="#746263" fill-opacity=".988" d="M204.802 1077.58l33.257-166.84-69.962-72.644L101.681 1086z"/><path fill="#ff51af" fill-opacity=".459" d="M576.834 401.425l71.02-19.21-50.913-34.663-49.045-48.292z"/><path fill="#8a034b" fill-opacity=".592" d="M347.22 950.66l97.264-51.276 95.251 29.803-43.348 4.734z"/><path fill="#fbf2da" fill-opacity=".192" d="M448.302 52.068l99.507 38.02-22.193 8.233-96.78-28.694z"/><path fill="#8ab8cd" fill-opacity=".827" d="M162.01 573.397l-.295 3.11-61.298-52.248 17.688-92.023z"/><path fill="#5493bf" fill-opacity=".282" d="M884.578 415.837L898 301.715l-167.722-1.187-73.089 118.554z"/><path fill="#a8dbea" fill-opacity=".588" d="M193.219 453.917l22.794-43.752-42.766-27.319 6.119 91.908z"/><path fill="#d4a180" fill-opacity=".373" d="M457.62 197.479l30.598-48.649 13.355 27.486 9.39 12.925z"/><path fill="#1b0006" fill-opacity=".78" d="M435.945 961.833l161.98-50.504-30.443 70.918-23.946 1.176z"/><path fill="#baa39a" fill-opacity=".467" d="M421.758 834.06l116.089-56.024 88.194 21.388-190.856 3.89z"/><path fill="#edfbff" fill-opacity=".427" d="M697.075 479.362l-92.694-65.013-2.435 66.321 38.058-115.883z"/><path fill="#203031" fill-opacity=".275" d="M721.6 610.177l-175.328-16.61 300.434 130.827-114.199-325.085z"/><path fill="#080600" fill-opacity=".467" d="M239.128 976.96l155.88 5.734-92.24-55.802 57.178-52.419z"/><path fill="#010f1d" fill-opacity=".349" d="M146.174-5.029L52.576-62l71.985 324.495 55.402 4.226z"/><path fill="#b0beb9" fill-opacity=".651" d="M359.453 617.026l-11.452-55.538 46.085 34.821-62.463 17.85z"/><path fill="#5faf94" fill-opacity=".345" d="M357.971 1053.311l88.556-89.814-44.694-1.918-155.185 85.997z"/><path fill="#150102" fill-opacity=".659" d="M338.66 726.426l90.038-124.128 35.036 162.283 145.13-182.936z"/><path fill="#dc9186" fill-opacity=".294" d="M44.262 920.458L-62 791.271v246.471l99.86-15.372z"/><path fill="#9b9a9c" fill-opacity=".725" d="M-62 583.063l53.435 52.467 98.668-7.914 8.866-71.54z"/><path fill="#23000b" fill-opacity=".91" d="M452.682 885.37l-.377 13.827-60.29 22.727-123.136-134.547z"/><path fill="#2f0b12" fill-opacity=".992" d="M497.79 578.513l-107.63-28.248 36.37 41.596 58.246-46.633z"/><path fill="#151f04" fill-opacity=".627" d="M727.923 774.061l8.184 4.112-26.913 30.377-155.045 66.293z"/><path fill="#368498" fill-opacity=".522" d="M132.913 451.49l43.593-23.727 19.11 125.857-30.277 34.522z"/><path fill="#433e1b" fill-opacity=".314" d="M145.635 805.379L-34.54 719.727l100.25-83.851 268.519 410.753z"/><path fill="#bd9383" fill-opacity=".275" d="M736.968 858.117L898 834.369l-7.523 113.978-101.607-4.307z"/><path fill="#f2a987" fill-opacity=".353" d="M658.112 1086l-57.006-128.758 68.69-2.518 41.335 120.804z"/><path fill="#b3bfba" fill-opacity=".769" d="M382.728 617.328l17.042 7.355 48.515-26.984-43.126 14.022z"/><path fill="#520021" fill-opacity=".553" d="M596.67 775.383l-294.015-93.778-87.89-131.188-2.895 135.92z"/><path fill="#4b3532" fill-opacity=".569" d="M288.243 280.336l-11.664-150.072-64.414-19.984-77.57 220.85z"/><path fill="#d3d0d7" fill-opacity=".71" d="M255.633 465.385l7.58-33.255 13.953 5.265-15.924 36.144z"/><path fill="#130704" fill-opacity=".427" d="M-62 11.894l264.278 19.242 65.77 91.029L435.413-62z"/><path fill="#aab8b1" fill-opacity=".553" d="M230.683 550.058l4.582-17.035 66.376 67.46-49.917-14.858z"/><path fill="#010c16" fill-opacity=".584" d="M794.806-61.892l-65.623 82.6-135.06 21.026-27.295-37.955z"/><path fill="#355a51" fill-opacity=".263" d="M199.853-8.873l-250.526 171.74 19.826 155.246L54.56 260.32z"/><path fill="#5a4e48" fill-opacity=".271" d="M488.122-62L602.127 98.03l-12.515 250.175L745.52 439.3z"/><path fill="#80074c" fill-opacity=".906" d="M313.233 473.278l120.262-1.698-180.815-86.285 61.764-110.22z"/><path fill="#6c5354" fill-opacity=".992" d="M562.217 786.008l55.23-21.574-60.628-57.718 42.395-91.87z"/><path fill="#7e0a47" fill-opacity=".612" d="M239.303 908.999l38.733 86.008-43.083-2.583 2.355-4.465z"/><path fill="#fcf7ff" fill-opacity=".341" d="M299.343 449.795l-5.245 27.734 33.445-12.86-19.396-31.477z"/><path fill="#140600" fill-opacity=".631" d="M396.8 153.963l135.641-58.537-94.9 2.542 103.08 54.402z"/><path fill="#430621" fill-opacity=".851" d="M254.473 418.877L226.804 539.74l81.61 18.413-117.26-182.288z"/><path fill="#4998ac" fill-opacity=".357" d="M641.042 620.713l-41.138-195.505 70.875 62.04-78.82 126.219z"/><path fill="#0b0104" fill-opacity=".196" d="M856.139 326.163l-92.348-133.69-224.281 1.153 244.8-116.58z"/><path fill="#6c5849" fill-opacity=".635" d="M617.178 826.803L413.15 925.567l182.121-115.072 147.04-60.824z"/><path fill="#171719" fill-opacity=".604" d="M-50.733 592.03L-62 595.593v254.341L38.779 726.37z"/><path fill="#280007" fill-opacity=".631" d="M225.369 737.33l100.025-93.212 52.718-42.553 51.406 231.397z"/><path fill="#fff206" fill-opacity=".431" d="M485.781 469.041l34.397-18.821-8.74 33.231-9.538 26.767z"/><path fill="#1b0002" fill-opacity=".314" d="M364.29 646.078l-115.976-104.39 125.622-41.812-187.528-46.978z"/><path fill="#bf3f86" fill-opacity=".8" d="M228.454 301.786l112.022-36.176-142.989 77.795-2.026-38.798z"/><path fill="#696562" fill-opacity=".4" d="M-62 823.942L146.3 671.6l-170.632-32.964 252.516 258.506z"/><path fill="#c9e9ff" fill-opacity=".333" d="M495.16 523.324l54.597-103.513-14.4 107.193-57.59-17.557z"/><path fill="#670337" fill-opacity=".451" d="M335.657 813.17l97.987 70.017L302.12 749.408l160.305 106.49z"/><path fill="#7d725c" fill-opacity=".357" d="M151.757 735.211l145.406 132.565 62.932 105.121-174.542-170.175z"/><path fill="#91c1d0" fill-opacity=".325" d="M512.465 293.19l80.145 32.576-46.501-76.893-39.389 26.63z"/><path fill="#640037" fill-opacity=".635" d="M521.689 426.035l-182.46-91.847-48.472 106.98 128.545-28.254z"/><path fill="#040800" fill-opacity=".325" d="M369.938 394.353l-19.45-341.69 136.75-33.411-111.18 97.138z"/><path fill="#e2ca9b" fill-opacity=".078" d="M339.256 304.084l90.892-176.923-123.572-28.035-12.347 33.456z"/><path fill="#e4ecf9" fill-opacity=".42" d="M483.922 976.503l43.816 34.625-91.404 32.931-23.327-63.169z"/><path fill="#060101" fill-opacity=".984" d="M572.176 656.404L595.8 480.143l-66.66 85.068 3.794 133.111z"/><path fill="#000300" fill-opacity=".482" d="M305.511 1009.808l90.278-55.017-107.87 1.572-12.36 34.363z"/><path fill="#afbbb6" fill-opacity=".718" d="M397.112 590.59L287.72 602.896l49.247-31.707 9.25 22.64z"/></svg>