<svg xmlns="http://www.w3.org/2000/svg" width="228" height="278" viewBox="0 0 836 1024"><path fill="#312c26" d="M0 0h836v1024H0z"/><path fill="#c78953" fill-opacity=".573" d="M558.791 210.494L471.53-62 343.87 102.069l49.557 312.101z"/><path fill="#edfaec" fill-opacity=".392" d="M511.77 696.226l6.687-54.643-216.488-23.263-12.375 74.178z"/><path fill="#8c613e" fill-opacity=".694" d="M781.593 576.033L719.17 716.584l-60.365 366.42 200.687-184.446z"/><path fill="#92623c" fill-opacity=".792" d="M-62 820.932l183.433-246.376 49.248 84.105-3.68 35.277z"/><path fill="#b5bec2" fill-opacity=".651" d="M488.283 555.726l56.654-30.102 1.09-63.096-60.765 4.362z"/><path fill-opacity=".494" d="M724.732 570.423l-219.685 495.253-253.103-91.15 416.4-659.277z"/><path fill="#f6ff78" fill-opacity=".467" d="M726.294 532.922l-25.855-36.85 39.092-43.014 24.146 107.11z"/><path fill="#70382c" fill-opacity=".745" d="M298.748 646.637L152.52 718.48l74.463 248.768 73.004-185.783z"/><path fill="#00101d" fill-opacity=".396" d="M367.275 628.85L346.451-62-62-25.418v620.844z"/><path fill="#bd8b5d" fill-opacity=".612" d="M412.345 416.209l-41.012-209.293L382.749 95.93l85.797 6.786z"/><path fill="#1c2022" fill-opacity=".824" d="M574.352 108.908l237.622 257.25L898-37.7 424.456 85.507z"/><path fill="#3f423d" fill-opacity=".992" d="M720.701 838.915l-16.295 156.611-107.973-75.647L633.2 763.98z"/><path fill="#bac0b1" fill-opacity=".314" d="M532.285 634.776l-197.7-5.365-61.975 56.679 253.904 10.807z"/><path fill="#0b0b09" fill-opacity=".561" d="M429.51 337.912l228.918 28.311 111.451 279.775L471.01 422.67z"/><path fill="#030403" fill-opacity=".463" d="M422.476 505.846l-227.107 17.37 37.346 98.283 508.503 24.297z"/><path fill="#e8bc93" fill-opacity=".255" d="M-62 795.1l196.086-182.017L237.238 405.34l-98.96 246.548z"/><path fill="#6c472a" fill-opacity=".557" d="M489.537 164.796L408.103 424.07l118.316-76.633 45.1-243.05z"/><path fill="#111311" fill-opacity=".698" d="M546.585 734.154l-186.718-51.697-89.513 112.814 367.514 252.927z"/><path fill="#273136" fill-opacity=".545" d="M250.795 116.883l145.938 139.704-28.755 152.55L-62 327.25z"/><path fill="#091114" fill-opacity=".58" d="M-59.422 861.298l199.967-45.852 24.26 43.352L-10.643 1086z"/><path fill="#3e4846" fill-opacity=".808" d="M783.283 962.317l71.067-4.343 20.392-5.368-43.192-383.878z"/><path fill="#c37e4d" fill-opacity=".439" d="M716.297 1023.902l-3.943-246.493 6.474-100.5 47.623 161.218z"/><path fill="#b1805a" fill-opacity=".918" d="M345.038 161.344l10.005 64.942 101.105 7.065 43.753-8.039z"/><path fill="#0e0d0b" fill-opacity=".78" d="M140.954 618.881l110.861 55.928 42.968-88.527-49.167-149.388z"/><path fill="#68492a" fill-opacity=".976" d="M561.365 103.04l-141.27-69.036-76.84 94.278L534.22 40.127z"/><path fill="#fffff8" fill-opacity=".384" d="M301.182 681.854l4.652 8.326 33.977-9.778-20.411-92.018z"/><path fill="#f6fbf0" fill-opacity=".396" d="M313.16 506.504l-27.156 9.011-6.72-9.753 46.86-10.717z"/><path fill="#463d35" fill-opacity=".886" d="M96.002 556.804l103.549-.968-5.03 2.527-196.93 178.493z"/><path fill="#292a27" fill-opacity=".592" d="M327.594 658.66l167.682 12.777-48.265-11.652-105.832-5.345z"/><path fill="#484f47" fill-opacity=".518" d="M72.408 1026.106l83.986 1.216 194.493-136.663-237.325 58.694z"/><path fill="#6d4c2f" fill-opacity=".988" d="M413.044 190.23l92.235-3.443 63.965-38.126-149.077 12.979z"/><path fill="#121516" fill-opacity=".922" d="M334.653 116.638L72.687-62l17.328 216.359L431.594-62z"/><path fill="#b4ba65" fill-opacity=".729" d="M740.021 557.864l15.607-24.775-26.287-88.191-2.278 111.63z"/><path fill="#222d36" fill-opacity=".49" d="M779.072 498.788L898 403.07 584.538 57.509l-60.26 222.222z"/><path fill="#0a090b" fill-opacity=".525" d="M-62 516.367l25.447 153.567 225.688-176.49 6.533-104.545z"/><path fill="#000204" fill-opacity=".337" d="M701.612 550.92L565.806 291.352l-25.14 515.649L821.48 555.899z"/><path fill="#858a6b" fill-opacity=".498" d="M563.114 996.012l-53.973-9.41L636.348 1086l-97.193-27.22z"/><path fill="#ecf6f9" fill-opacity=".173" d="M481.783 498.794l37.497 76.722 36.75-94.336-34.883-43.903z"/><path fill="#7f3920" fill-opacity=".447" d="M119.842 663.88l-145.49 127.58L308.778 687.9l-34.072 182.7z"/><path fill="#232421" fill-opacity=".671" d="M384.805 482.15l-47.831 176.376-14.419-292.445 237.68 102.058z"/><path fill="#000d10" fill-opacity=".525" d="M795.043 895.18L751.973 1086h140.103l-96.637-156.199z"/><path fill="#c88761" fill-opacity=".494" d="M707.403 1015.667l16.669-61.517-60.597 59.996 2.313 71.854z"/><path fill="#7e6043" fill-opacity=".69" d="M485.416 240.378l-22.89 11.782 64.232 102.202 25.854-35.244z"/><path fill="#9d804c" fill-opacity=".545" d="M560.806 75.35L475.972 4.427l-93.609 37.68 18.745-34.615z"/><path fill="#f2fefe" fill-opacity=".427" d="M177.413 541.14l15.437-47.162 1.207 26.372-19.227 44.662z"/><path fill="#8a4a19" fill-opacity=".404" d="M758.168 1086l44.182-451.793-120.997 28.737 42.695 14.587z"/><path fill="#19130f" fill-opacity=".557" d="M470.907 261.539l-22.088 92.865L709.713 501.07l-278.13-222.763z"/><path fill="#272823" fill-opacity=".882" d="M707.793 971.088L545.93 1086H439.176l277.92-176.068z"/><path fill="#191512" fill-opacity=".557" d="M375.434-62L172.05 61.033l427.16-83.966 12.833 124.438z"/><path fill="#bd8e61" fill-opacity=".447" d="M401.354 404.058L434.14 288.47l50.596-182.854-112.341 232.867z"/><path fill="#7b7c71" fill-opacity=".498" d="M898 1012.977l-74.855-71.599-10.67-52.25L898 593.4z"/><path fill="#171917" fill-opacity=".745" d="M28.998 1086l573.366-113.665 5.072-145.576L261.58 987.593z"/><path fill="#b07945" fill-opacity=".494" d="M187.697 650.715l-66.217-27.32 17.25-18.216-7.535 123.875z"/><path fill="#363c3b" fill-opacity=".682" d="M647.858 333.052l64.002 118.22 103.837-124.42-14.803-16.946z"/><path fill="#121311" fill-opacity=".831" d="M676.8 647.704l-234.337 15.415 125.056 3.595 230.765-153.323z"/><path fill="#f4ffea" fill-opacity=".176" d="M483.474 700.903l-76.92-15.669 141.676 3.987-18.001-47.194z"/><path fill="#0c0d0b" fill-opacity=".729" d="M717.46 508.727L449.396 573.52l47.876 248.295-44.542-197.806z"/><path fill="#1e1c18" fill-opacity=".792" d="M253.248 598.57l113.308 24.583-47.566-128.73-22.372 192.081z"/><path fill="#d3ffff" fill-opacity=".063" d="M602.019 887.887l85.498-113.07 69.744-89.31L693.594 909.6z"/><path fill="#bfbf48" fill-opacity=".384" d="M708.38 488.602l60.161 33.968-38.14 44.648-13.86-60.44z"/><path fill="#ced0c4" fill-opacity=".475" d="M354.77 675.737l-46.712-60.268-13.644 73.55 44.288-32.06z"/><path fill="#feffef" fill-opacity=".188" d="M285.221 490.861l-12.595.67 84.233 7.1-82.204 8.496z"/><path fill="#252f33" fill-opacity=".694" d="M149.668 271.003L123.055 421.3-62 432.889l42.37-245.901z"/><path fill="#411e05" fill-opacity=".475" d="M540.605 93.942l-82.262-43.75 25.598 6.659-82.553 40.179z"/><path fill="#060609" fill-opacity=".38" d="M744.476 56.55l126.448 38.836L898 218.683l-125.505 2.125z"/><path fill="#cea374" fill-opacity=".361" d="M374.528 191.488l3.02 53.721 13.943 76.498 14.536-241.48z"/><path fill="#facfa1" fill-opacity=".122" d="M494.232 81.835l27.881 146.064 1.834 25.383 42.689-107.004z"/><path fill="#1a1b18" d="M405.856 757.492l-101.2-45.835 5.243 271.316L434.07 651.255z"/><path fill="#4d4f4a" fill-opacity=".424" d="M181.325 866.2l37.413-47.488-21.264-92.655-66.205.75z"/><path fill="#07161e" fill-opacity=".388" d="M763.5 466.73l-19.687-88.236 110.055 10.797 30.684 182.664z"/><path fill="#251600" fill-opacity=".373" d="M-62 1041.74l87.876-235.896L169.238 743l-158.91 10.861z"/><path fill="#c3dffe" fill-opacity=".094" d="M795.207 792.882l-.215-47.199L779.527 551.2l48.15 95.218z"/><path fill="#141412" fill-opacity=".894" d="M407.473 666.135l32.785 214.78-142.696-186.58 103.522 30.617z"/><path fill="#5cc9f6" fill-opacity=".11" d="M49.823 874.375L29.89 803.279l35.882-16.005 32.19 2.27z"/><path fill="#3a281c" fill-opacity=".525" d="M394.084 86.88l-85.619 161.41 20.145-118.522 113.045-75.404z"/><path fill="#522f15" fill-opacity=".651" d="M775.3 593.278l-29.237 41.829-68.904 67.849 113.815-32.949z"/><path fill="#7c4821" fill-opacity=".675" d="M785.322 899.918L746.323 1086H692.35l107.062-318.179z"/><path fill="#151615" fill-opacity=".725" d="M395.157 417.875l207.835-84.14 126.325 134.31-308.354-29.427z"/><path fill="#282b2c" fill-opacity=".812" d="M391.357 320.519L231.999 434.13l43.285-233.93 97.873 27.732z"/><path fill="#a87c58" fill-opacity=".796" d="M386.33 319.296l100.518-18.445-27.743-7.83-71.388-7.083z"/><path fill="#ad642a" fill-opacity=".325" d="M515.283 382.308l-94.924 17.543-36.912-62.817 115.02 51.879z"/><path fill="#062341" fill-opacity=".447" d="M96.398 57.242l-.256 74.421-139.576.083-16.148-87.002z"/><path fill="#f5a057" fill-opacity=".161" d="M143.567 604.206l-41.134 89.409-11.281 22.342-128.055 55.504z"/><path fill="#212422" fill-opacity=".576" d="M358.917 673.372l8.267 15.54L255.42 1086l7.132-233.284z"/><path fill="#ba934f" fill-opacity=".49" d="M374.903 53.706l-20.058 31.611 46.215-2.71-2.823-.72z"/><path fill="#793326" fill-opacity=".522" d="M285.513 799.134l9.584-132.426-59.367-8.106-49.13 50.369z"/><path fill="#ffcf64" fill-opacity=".161" d="M533.257 38.214L384.424 26.586l40.668 20.25 16.696-50.492z"/><path fill="#131417" fill-opacity=".478" d="M231.33-54.361L180.503 112.99l28.732 128.72-166.066-39.479z"/><path fill="#9da1a5" fill-opacity=".275" d="M557.724 462.998l-24.985-10.226-41.168 9.47 30.804 92.463z"/><path fill="#afb5a5" fill-opacity=".286" d="M446.075 633.108l98.794-2.276-120.665 16.473-132.665-13.22z"/><path fill="#11120f" fill-opacity=".855" d="M538.715 1086h77.5l-28.456-109.646 50.36-272.617z"/><path fill="#0a0600" fill-opacity=".38" d="M153.326 638.298l164.938-59.3-165.137 160.607 47.453-88.614z"/><path fill="#371506" fill-opacity=".184" d="M463.595 187.163l-71.331 40.488 21.044-57.097 404.574.125z"/><path fill="#31342c" fill-opacity=".769" d="M645.807 1086l52.263-171.622-102.622-2.052 8.013 86.594z"/><path fill="#1c1d1a" fill-opacity=".604" d="M486.626 650.68l-28.167 35.268 56.335-108.003-58.116-121.374z"/><path fill="#66655c" fill-opacity=".345" d="M79.993 1057.84l117.415 26.14-52.574-116.005-18.677-6.599z"/><path fill="#51392d" fill-opacity=".675" d="M620.648 821.343l93.197 13.473-7.253-60.033-69.501-12.56z"/><path fill="#131210" fill-opacity=".706" d="M424.538 336.222l216.236 182.234-70.767-192.786-67.38 36.008z"/><path fill="#f6c596" fill-opacity=".192" d="M392.025 168.105l21.58 129.808 45.368-48.708-112.466-40.688z"/><path fill="#1d1917" fill-opacity=".235" d="M290.294 827.7l4.576 68.882L81.372 746.033l89.045 222.262z"/><path fill="#171613" fill-opacity=".569" d="M358.601 369.653l-13.59 70.827L170.795 576.6 275.08 391.689z"/><path fill="#080807" fill-opacity=".616" d="M734.92 657.875l-50.603-29.59-263.385 1.62 279.184-190.223z"/><path fill="#c1fdff" fill-opacity=".051" d="M88.633 543.504l91.917 34.913-41.568 57.595-102.534-43.28z"/><path fill="#ced1c6" fill-opacity=".78" d="M311.05 686.37l34.636 4.038 9.116-15.736-49.489 4.03z"/><path fill="#fcfaef" fill-opacity=".153" d="M733.264 726.477l5.892-28.465-25.727 52.875-3.722 74.017z"/><path fill="#f7ffec" fill-opacity=".263" d="M461.557 647.16l32.095 46.74-20.214-5.607 4.58-33.316z"/><path fill="#242122" fill-opacity=".663" d="M628.056 767.266l46.555-151.649 36.158 117.612-108.079 47.426z"/><path fill="#490e00" fill-opacity=".184" d="M36.275 601.906L-62 746.957l200.53-111.071 8.283 61.73z"/><path fill="#0e0f0d" fill-opacity=".796" d="M617.34 831.415l14.911-134.385-178.39-2.499-110.22 88.246z"/><path fill="#5f4024" fill-opacity=".984" d="M420.462 347.817l-60.948 27.015 161.106-69.203-4.058 23.551z"/><path fill="#0b0b0a" fill-opacity=".698" d="M343.255 632.56l104.917-56.94-284.898 52.94 82.287-88.976z"/><path fill="#fbffcb" fill-opacity=".137" d="M567.074 998.378l-27.18 15.726-6.162-28.386-39.03 25.073z"/><path fill="#1a0007" fill-opacity=".373" d="M433.067 286.283l51.91-4.773-50.951-22.125 12.279 2.537z"/><path fill="#a3ad80" fill-opacity=".729" d="M730.291 522.818l-4.22-56.665 27.115 44.6 4.618 14.45z"/><path fill="#a5683c" fill-opacity=".278" d="M810.094 818.006L794.99 631.757 703.149 1086l33.758-391.055z"/><path fill="#846744" fill-opacity=".894" d="M511.995 66.62l6.258-34.184-67.07 23.53 22.934 6.365z"/><path fill="#373a39" fill-opacity=".898" d="M803.681 870.334l16.05-353.312-3.3 56.26 18.29 183.048z"/><path fill="#928778" fill-opacity=".996" d="M397.815 334.075l-22.563 19.716 4.84-18.983 7.567-5.961z"/><path fill="#1f211f" fill-opacity=".659" d="M471.417 554.255l-26.246-52.58-57.759-27.754 6.633 167.495z"/><path fill="#6f4b27" d="M482.646 32.61l-8.55 11.412-97.695-.49 34.153 48.044z"/></svg>