<svg xmlns="http://www.w3.org/2000/svg" width="228" height="278" viewBox="0 0 836 1024"><path fill="#716e88" d="M0 0h836v1024H0z"/><g fill-opacity=".502"><path fill="#001b6e" d="M442-62l152 880-372 268z"/><path fill="#b8c3ea" d="M-62 1054l524-628-524-252z"/><path fill="#aac8ff" d="M438 426l60-120 400 300z"/><path fill="#2d82ff" d="M246 1046l152-680-216-8z"/><path fill="#000037" d="M558 854l40-404-256 124z"/><path fill="#693700" d="M550 262L318 398 426-62z"/><path fill="#d2b9ba" d="M198 2L-62 654l404-408z"/><path fill="#9d756c" d="M-46 414l80 672 200-484z"/><path fill="#e1ffff" d="M78 974l96 4-4-112z"/><path fill="#82562f" d="M898 710L630 586 506 978z"/><path fill="#3b292a" d="M-18-62L-62 94l620-40z"/><path fill="#b58e89" d="M742 758l156-468L538 90z"/><path fill="#002b86" d="M210 774l304-96-180 396z"/><path fill="#fff" d="M410 498l-96-16 140-88z"/><path fill="#185af8" d="M522 370l124 188-324-188z"/><path fill="#754b41" d="M890-58l-32 292L458 70z"/><path fill="#f4e7df" d="M94 542L-62 154l252 292z"/><path fill="#8da7d3" d="M398 746l-48-156-144 120z"/><path fill="#003ed3" d="M654 1086l-48-188-116 144z"/><path fill="#fff" d="M482 290l124 124-80-20z"/><path fill="#67464b" d="M198 690l-248-44 260-76z"/><path d="M654 706L414 546l92-36z"/><path fill="#bc9e8e" d="M162 22l328 164-412 12z"/><path fill="#cdb0ad" d="M162 878L-62 714l296-36z"/><path fill="#c6a7ab" d="M590 638l-16 228 72-108z"/><path fill="#af8d85" d="M898 1078L606 930l172-172z"/><path fill="#292b35" d="M790 806l108-60-140-160z"/><path fill="#0039a3" d="M390 598l116-176-264 184z"/><path fill="#7e6468" d="M-62 14l372 284-116 52z"/><path fill="#6c4c4b" d="M762 358l-144 44-296-292z"/><path fill="#3f8dff" d="M230 954l-108 132 256-84z"/><path fill="#6db4ff" d="M362 498l-68-232-96 228z"/><path fill="#b8a2b2" d="M570 550l100-152 228 164z"/><path fill="#b07543" d="M358 1006l212-152-68 196z"/><path d="M378 258l96 40-100 88z"/><path fill="#002d74" d="M582 810L362 990l24-476z"/><path fill="#2e1100" d="M170 878l44-100 12 96z"/><path fill="#1d7fff" d="M142 866l40 100 24-96z"/><path fill="#d3d9e2" d="M246 42l4 152-96-56z"/><path fill="azure" d="M158 910L42 978l132-24z"/></g></svg>