<svg xmlns="http://www.w3.org/2000/svg" width="228" height="278" viewBox="0 0 836 1024"><path fill="#a78f91" d="M0 0h836v1024H0z"/><g fill-opacity=".502"><path fill="#eff" d="M682 934l-484 152L298 90z"/><path fill="#530e00" d="M898 1086L614 930l176-756z"/><path fill="#4e1808" d="M462 342L638-62-62-10z"/><path fill="#e5faff" d="M614 62L186 970l416-8z"/><path fill="#8e3529" d="M202 1086L-62 866l288-416z"/><path fill="#ddf3ff" d="M70 494l828-52-664-184z"/><path fill="#6b0500" d="M118 374l176-160-352-8z"/><path fill="#701610" d="M746 382L542 202l356 36z"/><path fill="#edf9ff" d="M670 546l108-64-192-264z"/><path fill="#120d00" d="M614 518l-12 88 296-16z"/><path fill="#d9a2ad" d="M310 70l84 216-268-148z"/><path fill="#7a8e94" d="M218 418l388 80-368 52z"/><path fill="#523021" d="M894 802l-192 284-100-372z"/><path fill="#812b13" d="M-2 570l-60-204 260 212z"/><path fill="#111c0a" d="M526 222l-164-48 84 192z"/><path fill="#fff" d="M34 582l348-352-192 76z"/><path fill="#c6e5d5" d="M794-46L650 202 530-62z"/><path fill="#aa6965" d="M690 354l208-64-132 300z"/><path fill="#def2ff" d="M638 794l-392 260-36-364z"/><path fill="#b1caf5" d="M598 622L306 890l-36-504z"/><path fill="#f6ffff" d="M562 534l92 452-184-100z"/><path fill="#fff" d="M518 1014l88-36 108 108z"/><path fill="#7a0000" d="M254 1086l-316-96 260 4z"/><path fill="#f48829" d="M590 474l-92 60-96-68z"/><path fill="#936763" d="M614 262l-4-220-128 168z"/><path fill="#511f1e" d="M34 906l-92-220 184 128z"/><path fill="#77302c" d="M-6 130l4-164 608 76z"/><path fill="#e8faff" d="M554 234l-96 92 248 52z"/><path fill="#dca3a0" d="M774 778l44-136-52-80z"/><path fill="#4b0000" d="M858 454l-96 64 76 152z"/><path fill="#ea434d" d="M898 1078L774 830l-12 256z"/><path fill="#935248" d="M594 610l156-48-120 356z"/><path fill="#755d67" d="M170 554l116 40-12-244z"/><path d="M554 966l-60 48 120-48z"/><path fill="#292c1c" d="M702 854l124-12-156-296z"/><path fill="#070800" d="M66 490l140 64-88-8z"/><path fill="azure" d="M594 710l-184 344 172-104z"/><path fill="#eff" d="M178 514l96-256L78 498z"/><path fill="#d2e6fe" d="M646 546l96-36-108-240z"/><path fill="#41211c" d="M706 394l-4-184 84 168z"/></g></svg>