<svg xmlns="http://www.w3.org/2000/svg" width="228" height="278" viewBox="0 0 836 1024"><path fill="#72462e" d="M0 0h836v1024H0z"/><path fill="#fb7c3f" fill-opacity=".624" d="M243.054 300.754l410.09 122.217L468.702 1086 6.924 775.001z"/><path fill="#00090f" fill-opacity=".616" d="M898-31.049L523.755-62l148.476 762.352L898 700.53z"/><path fill="#010912" fill-opacity=".58" d="M-10.579 484.867l380.566-180.036L435.98 5.078-62-62z"/><path fill="#f57927" fill-opacity=".996" d="M533.86 978.826L546.011 1086h-368.05l21.38-279.66z"/><path fill="#b0f5fd" fill-opacity=".51" d="M490.162 754.676l-229.36 13.15 142.93 126.608 109.09-105.823z"/><path fill="#f2f3f5" fill-opacity=".565" d="M117.174 535.77l94.395 32.837 21.62-73.761 5.925-140.025z"/><path fill="#011923" fill-opacity=".745" d="M848.314 1065.31l41.725-170.713-345.87 38.291L576.58 1086z"/><path fill="#ebfff0" fill-opacity=".549" d="M643.226 928.578l-44.761-30.282 54.787-100.989 57.06 62.39z"/><path fill="#d2ad74" fill-opacity=".541" d="M552.403 84.14l-115.78 280.407-63.988-204.39L493.622 45.012z"/><path fill="#af3109" fill-opacity=".769" d="M554.566 727.655L171.712 632.44 292.56 393.216l292.624 306.288z"/><path fill="#004766" fill-opacity=".365" d="M207.45 763.25l-31.763 280.033L-62 1086l44.242-422.321z"/><path fill="#ff7a28" fill-opacity=".443" d="M514.443 327.628L408.01 253.793 254.873 736.119 659.22 457.12z"/><path fill="#380006" fill-opacity=".333" d="M663.847 1086L173.286 765.28l257.84 114.053 47.503-75.883z"/><path fill="#e8ebef" fill-opacity=".671" d="M259.984 754.737l-9.176-65.619 15.805-73.53 14.572 60.865z"/><path fill="#3d322d" fill-opacity=".878" d="M556.836-62L-62 481.163 54.05 742.11l58.433-240.836z"/><path fill="#37271b" fill-opacity=".835" d="M451.01 260.705l-12.796-49.977L898 372.245 739.513 521.474z"/><path fill="#439ea3" fill-opacity=".224" d="M710.363 935.172l-153.125-161.3 39.02-144.979L898 773.913z"/><path fill="#5a0001" fill-opacity=".502" d="M271.419 527.199l126.72-84.276-175.617 237.139-40.017-45.164z"/><path fill="#afd3ea" fill-opacity=".29" d="M18.044 811.733l74.534-89.698 104.198 76.802 16.569 52.41z"/><path fill="#f4611b" fill-opacity=".918" d="M396.32 780.633L273.4 732.295l10.006-80.93 207.368 71.938z"/><path fill="#ff4f08" fill-opacity=".463" d="M253.374 503.656l234.831-86.426-120.057-115.05-164.41 133.132z"/><path fill="#080b0a" fill-opacity=".584" d="M387.226 84.373L502.916-62l393.512 99.833L473.11 49.945z"/><path fill="#c6b38a" fill-opacity=".325" d="M529.095 284.611l9.336 335.526-95.73-374.719-90.2 75.758z"/><path fill="#150100" fill-opacity=".463" d="M222.431-58.282l-63.585 434.154L-62 280.141v-93.368z"/><path fill="#eaa485" fill-opacity=".871" d="M161.564 461.94l33.255-67.873 168.559-87.846-20.316 20.43z"/><path fill="#e9e8d7" fill-opacity=".702" d="M374.55 774.227l134.38-10.824-124.113 73.835-80.317-86.249z"/><path fill="#7d8255" fill-opacity=".522" d="M438.97 912.874L226.86 686.156l-72.676 58.241 158.78 94.605z"/><path fill="#201c19" fill-opacity=".506" d="M-62 1018.856l29.7-99.661 221.582-10.015L170.98 1086z"/><path fill="#ff5f14" fill-opacity=".494" d="M131.75 767.213l94.304-97.221-84.612-143.112L63.6 686.285z"/><path fill="#f7f6fc" fill-opacity=".451" d="M476.773 1035.29l15.992 50.71-5.531-141.605-18.725-5.717z"/><path fill="#3a2f25" fill-opacity=".58" d="M597.031 630.613l69.744-223.669 116.08 278.776-31.724 127.779z"/><path fill="#d84d16" fill-opacity=".6" d="M484.73 883.565l70.388 90-74.932 95.534 148.972-556.723z"/><path fill="#ebffff" fill-opacity=".149" d="M231.694 518.382L95.22 412.03 73.296 589.796l43.26 33.488z"/><path fill="#ffecd1" fill-opacity=".314" d="M554.589 753.516l13.113-7.52 99.022 146.477-22.124 26.953z"/><path fill="#9b3f19" fill-opacity=".835" d="M377.46 667.24l-7.453-41.207 183.247-47.255 14.127 155.42z"/><path fill="#fee6ae" fill-opacity=".275" d="M547.646 224.118l-32.423 38.608L456.48 41.46l-24.947 116.409z"/><path fill="#007180" fill-opacity=".353" d="M492.209 853.07l-44.572 55.012-48.728-9.158 101.677-106.677z"/><path fill="#836347" d="M572.016 142.72L524.25 89.567l-47.516 15.501 87.145 145.318z"/><path fill="#201913" fill-opacity=".773" d="M189.838 168.969l148.897 140.327 66.44-23.95-5.957-69.685z"/><path fill="#4f4142" d="M266.38 265.061l-69.693-28.446-9.5 173.936 96.254-92.975z"/><path fill="#2d0000" fill-opacity=".322" d="M344.532 879.95l283.66 82.237L568.66 775.97l-10.14 118.856z"/><path fill="#444d43" fill-opacity=".443" d="M874.233 884.916l-231.525 88.413 24.575-81.347-28.751-45.366z"/><path fill="#65a0d0" fill-opacity=".447" d="M603.176 507.055L578.91 519.14l23.515 66.044 17.094-44.867z"/><path fill="#f4f7fe" fill-opacity=".333" d="M538.67 653.982l-11.741-202.376-24.069-63.823 28.496 184.075z"/><path fill="#f1d0b7" fill-opacity=".639" d="M484.633 508.374l-51.59 3.572-21.899 13.392-13.422-26.038z"/><path fill="#683213" fill-opacity=".518" d="M291.583 809.71l50.183 46.49-122.896-46.703 85.274-64.54z"/><path fill="#d3440d" fill-opacity=".686" d="M343.147 505.23l-45.67 66.796 180.234 78.202 39.236-103.425z"/><path fill="#19110f" fill-opacity=".808" d="M886.183-62l-118.71 308.664-34.43 52.607-82.194-248.614z"/><path fill="#ffeccd" fill-opacity=".447" d="M687.392 808.125l-73.858 116.036-1.352-11.385 14.567-82.868z"/><path fill="#ffca43" fill-opacity=".353" d="M237.032 827.3L219.61 1086l-40.938-104.481L200.55 834.91z"/><path fill="#81827c" fill-opacity=".541" d="M391.439 865.347l118.623-77.718-20.586 83.576-91.215-98.687z"/><path fill="#eb4c0c" fill-opacity=".545" d="M288.243 828.159l1.298 89.964L474.654 1086l-68.397-167.8z"/><path fill="#f1f4fe" fill-opacity=".592" d="M199.188 563.675l-27.573-10.627-35.238-66.18 81.198 37.832z"/><path fill="#690000" fill-opacity=".2" d="M160.151 619.511l58.986 80.08 172.17-294.87-81.198 14.074z"/><path fill="#77d7e1" fill-opacity=".102" d="M788.587 783.575l-37.758-112.856L898 452.85l-17.189 496.919z"/><path fill="#63868d" fill-opacity=".537" d="M185.114 519.476l46.345-34.768-18.077-17.022-39.732 10.802z"/><path fill="#603a2c" fill-opacity=".639" d="M322.15 896.497l35.908-89.14 5.188-5.534 9.84 5.31z"/><path fill="#fccf8b" fill-opacity=".294" d="M399.731 176.742l-1.217 93.82 19.044 61.32 30.655-184.044z"/><path fill="#030300" fill-opacity=".251" d="M531.342 297.674l-100.996-11.25 173.686-80.313-80.498 191.266z"/><path fill="#413922" fill-opacity=".58" d="M434.747 161.173L407.95-34.38l-206 236.985 189.01-58.135z"/><path fill="#983617" fill-opacity=".675" d="M551.3 806.825L364.858 601.203l129.119 57.507-37.142 83.328z"/><path fill="#fff3c1" fill-opacity=".173" d="M560.043 125.349L514.5-15.097l5.764 142.802 53.462 54.43z"/><path fill="#683439" fill-opacity=".62" d="M-62 110.019L55.03-44.599l26.98 106.6L4.373 72.878z"/><path fill="#f06b22" fill-opacity=".8" d="M268.61 371.779L524.917 498.77l-31.415-124.253-195.148-27.06z"/><path fill="#f9f0db" fill-opacity=".678" d="M369.564 787.842l122.012 5.547 18.509 1.926-46.852-44.327z"/><path fill="#fa7221" fill-opacity=".447" d="M597.08 389.507l-64.541-40.91 21.448 355.031L580.409 596.7z"/><path fill="#35231b" fill-opacity=".549" d="M-55.838 710.007l136.885-2.366-38.304-154.188-9.2-279.037z"/><path fill="#e4eeff" fill-opacity=".376" d="M248.693 630.72l27.274-.701.735 87.312-28.465.703z"/><path fill="#cddae0" fill-opacity=".671" d="M308.142 752.541l11 10.93-24.004 50.202 3.952-38.247z"/><path fill="#311210" fill-opacity=".424" d="M230.029 709.442l84.562-202.905-7.473 44.6-39.347-16.994z"/><path fill="#4d1b0c" fill-opacity=".424" d="M560.408 680.216l-109.385-45.71-41.266 55.633-49.873-15.828z"/><path fill="#831900" fill-opacity=".463" d="M204.087 757.421l243.26 188.71 4.182-22.013L65.956 711.632z"/><path fill="#3b2f2c" fill-opacity=".827" d="M662.536 60.982l-2.306 156.625L517.593 92.274 480 127.528z"/><path fill="#f4fff7" fill-opacity=".376" d="M429.182 878.66l-30.026-18.123-25.4-80.189-3.064 94.595z"/><path fill="#fae5eb" fill-opacity=".227" d="M262.98 377.534l143.534-92.587-156.381 78.35-95.388 180.731z"/><path fill="#472f24" fill-opacity=".863" d="M728.651 474.565L570.907 686.151l75.04-163.587-14.734-97.926z"/><path fill="#f55c13" fill-opacity=".667" d="M269.04 621.063l53.198-62.492 66.845 19.618-29.513 173.532z"/><path fill="#f66a1f" fill-opacity=".749" d="M505.641 1086l-20.628-137.879 65.3 17.29L479.018 1086z"/><path fill="#120300" fill-opacity=".388" d="M684.23 592.18l25.72-147.66 105.127 63.22-54.588 112.027z"/><path fill="#a20400" fill-opacity=".467" d="M545.09 920.033l-132.844 14.673-40.235-57.72 160.762 95.668z"/><path fill="#c72d0a" fill-opacity=".459" d="M209.254 580.015l-51.914-38.254-.252 88.297 94.986 85.203z"/><path fill="#4b4147" fill-opacity=".533" d="M146.945 481.945l-25.197 56.408L10.771 346.117l167.896 60.191z"/><path fill="#000d14" fill-opacity=".388" d="M377.543 694.637l29.506-83.023-24.025 12.94-6.09 30.627z"/><path fill="#321913" fill-opacity=".549" d="M557.951 207.332l-100.026-4.174 281.353-33.697-77.652 211.85z"/><path fill="#ff9647" fill-opacity=".506" d="M168.273 443.932L79.708 628.666l-3.623 47.174 27.513-27.665z"/><path fill="#ce5a23" fill-opacity=".859" d="M578.838 628.264l-185.116 12.713 117.138 11.128 69.52-105.052z"/><path fill="#412720" fill-opacity=".596" d="M619.444 850.318l-5.502-25.59-49.027 5.466-18.07 159.131z"/><path fill="#998e8c" fill-opacity=".831" d="M180.208 781.106l-73.339-43.77-35.416 53.014 68.967 19.925z"/><path fill="#f3ab57" fill-opacity=".243" d="M298.903 745.21l-26.614 51.288-86.813-59.916-72.055-125.802z"/><path fill="#d1420f" fill-opacity=".498" d="M428.745 418.73l-54.838 200.04-113.175-289.85 28.166 113.881z"/><path fill="#a4824e" fill-opacity=".8" d="M418.813 306.658l32.669 48.875 61.218 22.433 19.824-83.936z"/><path fill="#fcedcd" fill-opacity=".42" d="M664.29 815.186l-46.953 25.29 87.272 11.23 16.896 42.499z"/><path fill="#67655c" fill-opacity=".541" d="M197.706 840.905L-62 766.445l186.917 99.062 44.49 64.277z"/><path fill="#d34a18" fill-opacity=".651" d="M579.321 755.055l-194.958-89.213 53.787-60.997-21.601 138.242z"/><path fill="#dfbd86" fill-opacity=".29" d="M484.926 46.21l-45.23 34.1 104.506 23.652.352-41.738z"/><path fill="#fefcde" fill-opacity=".314" d="M464.75 815.273L347.01 789.69l-32.372-64.405L405.382 828.5z"/><path fill="#ff8b26" fill-opacity=".639" d="M269.903 1086l-34.852-280.217 73.732 49.549-36.303 208.61z"/><path fill="#121416" fill-opacity=".51" d="M688.442 78.054L641.984-62 575.19 117.967l-64.52-77.905z"/><path fill="#ebf5ff" fill-opacity=".196" d="M528.055 453.741l-16.046-79.426-10.29 30.696 37.692 181.224z"/><path fill="#6b6351" fill-opacity=".753" d="M692.835 815.678l-37.167-1.743L554.58 708.288l132.721-25.805z"/><path fill="#ffbd8e" fill-opacity=".322" d="M620.716 843.626l-44.53-81.86 3.85-58.613-20.511 60.174z"/><path fill="#f1772b" fill-opacity=".667" d="M533.427 477.965l103.94 32.207-7.464-73.586-120.91-51.754z"/><path fill="#dd511c" fill-opacity=".804" d="M261.9 465.799l-12.066 113.692-18.673-126.422-12.207-64z"/><path fill="#78412b" fill-opacity=".431" d="M-1.953 1067.448l141.835-32.69-50.255-60.395-26.997 1.458z"/><path fill="#fc6921" fill-opacity=".365" d="M510.035 770.163l-22.047 99.511 17.681 20.437 56.401-22.763z"/><path fill="#081a22" fill-opacity=".263" d="M656.073 1086l59.41-195.483L898 834.397 841.323 1086z"/><path fill="#fc4a00" fill-opacity=".38" d="M205.665 662.762L78.482 701.705l66.438 59.51 69.366-77.871z"/><path fill="#0a0809" fill-opacity=".49" d="M390.917 292.25l14.574-51.744-88.813 20.647-40.77 77.297z"/><path fill="#141e26" fill-opacity=".553" d="M183.886 986.264l.887-47.011-87.333 4.411 76.822 119.56z"/><path fill="#040119" fill-opacity=".267" d="M370.488 881.839l-1.327-88.417-23.281 39.944 67.01 76.84z"/><path fill="#67461d" fill-opacity=".412" d="M441.395 175.293l77.658 162.135-57.321-30.327-32.401-112.874z"/><path fill="#f7661c" fill-opacity=".741" d="M323.71 337.031l-57.408 37.852-51.745 81.546 249.171-100.07z"/><path fill="#e4dfc0" fill-opacity=".412" d="M411.684 767.95l92.872 41.759-11.808-81.981 31.025 33.562z"/><path fill="#f9c597" fill-opacity=".235" d="M387.221 183.667l79.096 1.714 101.598-68.401-108.761 33.88z"/><path fill="#2e211f" fill-opacity=".714" d="M174.655 416.939L17.147 289.167l212.307 83.008 118.659-108.838z"/><path fill="#001924" fill-opacity=".227" d="M389.609 854.877l49.073-34.615 42.36-27.597-20.032 35.01z"/><path fill="#f5fefb" fill-opacity=".439" d="M422.78 513.868l-4.973 12.122 55.339-26.607-70.391 20.06z"/><path fill="#c3b8ff" fill-opacity=".173" d="M147.468 659.944l10.93-13.9 40.332 8.444-58.621 38.23z"/><path fill="#f5e4d8" fill-opacity=".306" d="M473.234 999.943L517.083 1086l-65.251-189.532 35.269 68.537z"/><path fill="#232a26" fill-opacity=".204" d="M680.821 537.105l185.271 193.272-238.138-26.466-67.415-4.867z"/></svg>