<svg xmlns="http://www.w3.org/2000/svg" width="228" height="278" viewBox="0 0 836 1024"><path fill="#8f9292" d="M0 0h836v1024H0z"/><g fill-opacity=".502"><path d="M898 22L-46-62l84 496z"/><path fill="#e5f0f9" d="M630 158l100 892-792-116z"/><path fill="#fff" d="M510 474L-62 698l308-404z"/><path fill="#1f1f1d" d="M142 638l440-172-4 148z"/><path d="M898-26l-84 208L282 30z"/><path fill="#200e00" d="M-46 190l496 196 44-136z"/><path fill="#fff" d="M898 666L470 246l236 72z"/><path d="M130 1030l44-68 232 68z"/><path fill="#eff5ff" d="M-26 574l4 332 392-680z"/><path fill="#202213" d="M670 258l176-4 28 332z"/><path fill="#0d1014" d="M114 442L-62 10l408-72z"/><path fill="#936133" d="M594 230l-256 72-84-344z"/><path fill="#dae2e8" d="M-22 994l668-444 136 384z"/><path fill="#f2f6f6" d="M882 442l-48 488-64-272z"/><path fill="#8e989a" d="M338 542L186 962l-64-420z"/><path d="M802-62L626 158l272-12zM514 582l-136 60-52-36z"/><path fill="#e8f2ff" d="M718 382l-72 108-244 32z"/><path d="M70 1074l408-20-292-88z"/><path fill="#525052" d="M458 402l140 24-60 64z"/><path fill="#303528" d="M694 666l-28-164 108 136z"/><path fill="#242c2f" d="M310 274L282-62 10 502z"/><path fill="#d9dee7" d="M510 982L202 370l104 552z"/><path fill="#373736" d="M342 610l-36-68 268-36z"/><path fill="#d6ddc5" d="M550 218l348 28-96-88z"/><path fill="#2b2d2c" d="M178 606l96 144-64-204z"/><path fill="#c6cbc2" d="M130 1086l48-584-240 492z"/><path fill="#170500" d="M446 234l16 120-132 8z"/><path fill="#dae4f6" d="M482 502l8-156-384 96z"/><path fill="#791e00" d="M782 1086l32-156 84-4z"/><path fill="#656a63" d="M-54 122l156 324-76 120z"/><path fill="#d3d3d1" d="M542 566l-100-16-92 52z"/><path fill="#916339" d="M322 334L310 70l232 24z"/><path fill="#e5f5ff" d="M790 534L586 262l152 92z"/><path d="M558 606V494l40 88z"/><path fill="#ecf1fc" d="M326 278L106 434 2 726z"/><path fill="#dbe3f0" d="M234 834l316 252-268-104z"/><path fill="#060907" d="M398 622l-76-72 12 96z"/><path fill="#cbd2d7" d="M322 590l-136 96 124-188z"/><path fill="#b8bbad" d="M642 630l108 456 16-396z"/></g></svg>