<svg xmlns="http://www.w3.org/2000/svg" width="228" height="278" viewBox="0 0 836 1024"><path fill="#7d3a2e" d="M0 0h836v1024H0z"/><path fill="#fe5c3b" fill-opacity=".776" d="M305.568 1086l370.987-167.254-17.565-550.484L298.375 264.55z"/><path fill="#312d2f" fill-opacity=".859" d="M202.31 338.757l-192.26 672.59L-35.653-62 898 34.174z"/><path fill="#b2855e" fill-opacity=".769" d="M477.176 192.092l155.915 3.135-33.82-152.99L489.67 34.19z"/><path fill="#1f2324" fill-opacity=".698" d="M898 68.463l-47.722 878.691-104.04 107.693L602.55 22.107z"/><path fill="#f58564" fill-opacity=".882" d="M379.889 263.963l270.039 200.51L549.85 659.96 253.26 324.874z"/><path fill="#c21105" fill-opacity=".639" d="M242.431 1086l-14.732-602.44 53.172-162.73 146.34 193.807z"/><path fill="#0d0e16" fill-opacity=".843" d="M251.618 744.21l-11.716-121.757-93.268 225.277 28.97 238.27z"/><path fill="#e84727" fill-opacity=".941" d="M331.356 579.748l284.372 72.04L588.997 1086l-314.2-40.712z"/><path fill="#ff3119" fill-opacity=".541" d="M155.289 837.765l65.795-233.925-89.877-49.726-55.554 238.378z"/><path fill="#ffb7d2" fill-opacity=".235" d="M169.168 407.527l154.096-134.608L160.78 577.217-62 471.213z"/><path fill="#170610" fill-opacity=".596" d="M589.39 816.436L712.3 1086h-94.687l-23.156-74.787z"/><path fill="#1c181b" fill-opacity=".992" d="M-62 572.782l164.09 15.084L71.35 864 53.877 987.835z"/><path fill="#030101" fill-opacity=".42" d="M214.933 227.03L-62-62l862.763 456.205-510.48-192.22z"/><path fill="#ccdbf8" fill-opacity=".345" d="M382.354 609.968l43.018-70.507 132.979 40.587 68.193 27.341z"/><path fill="#301e1f" d="M630.415 143.94l198.752 223.468-185.944 9.633-56.138-41.378z"/><path fill="#8fb4f9" fill-opacity=".239" d="M294.72-29.743l68.004 76.521-56.8 89.875-74.256-21.08z"/><path fill="#f4dade" fill-opacity=".435" d="M209.074 388.275l-17.718 65.123 130.474-160.48-60.285 25.111z"/><path fill="#ff7244" fill-opacity=".635" d="M382.146 1086h157.51L500.64 872.995 307.908 837.61z"/><path fill="#ff8d49" fill-opacity=".514" d="M757.803 1086h-48.956l-54.123-348.555 18.738 74.336z"/><path fill="#a0140c" fill-opacity=".918" d="M320.265 425.686l4.225 4.514-161.248 278.05 240.355-165.417z"/><path fill="#473c3b" fill-opacity=".49" d="M633.208 658.272l91.312 304.432 110.391-535.679-100.035-80.366z"/><path fill="#1a1a1a" fill-opacity=".914" d="M396.57-4.526L569.408-62 321.097 284.21l71.089-16.51z"/><path fill="#525e70" fill-opacity=".827" d="M651.315-31.548l42.104 59.922 49.124 50.468L847.168-62z"/><path fill="#b20000" fill-opacity=".463" d="M582.842 839.634l56.813 120.957-5.299-418.24-26.385 22.239z"/><path fill="#beecd1" fill-opacity=".455" d="M435.602 448.488l22.63 20.682-22.219-124.097-68.074-7.23z"/><path fill="#f85730" fill-opacity=".549" d="M479.871 226.303L374.397 360.799l101.99 207.506-226.251-195.342z"/><path fill="#c01107" fill-opacity=".682" d="M320.19 997.535l-110.564 85.18 10.947-188.839 64.867-244.975z"/><path fill="#5a5b93" fill-opacity=".427" d="M186.604 301.969L57.182 275.755l65.934-91.053 73.49 18.782z"/><path fill="#663719" fill-opacity=".694" d="M476.343 92.067l175.193 21.128-254.41 32.036L547.222 375.1z"/><path fill="#e14800" fill-opacity=".639" d="M46.294 1013.399l118.405-36.868-41.377-135.874L152.054 1086z"/><path fill="#2b475c" fill-opacity=".616" d="M159.57 566.745L134.09 496.2l89.14 4.85-9.663 76.363z"/><path fill="#07152a" fill-opacity=".506" d="M720.355 724.949l58.795 207.124 118.85.778-155.977-354.886z"/><path fill="#090b14" fill-opacity=".671" d="M142.173 1086l60.023-3.3 25.644-320.96-37.974-101.958z"/><path fill="#f8dbdb" fill-opacity=".506" d="M576.196 327.75l60.482 43.277-48.265-17.718-38.849-36.231z"/><path fill="#2f2220" fill-opacity=".812" d="M181.163 444.913L-62 292.79l334.74 12.115-77.614 72.617z"/><path fill="#ffcfa6" fill-opacity=".388" d="M578.535 109.407l37.78-31.6-47.248-27.92-86.257 24.009z"/><path fill="#0e0a09" fill-opacity=".49" d="M3.278 167.496l48.363 16.345L262.657-18.547-13.16-62z"/><path fill="#789d66" fill-opacity=".627" d="M48.325 1068.295l-4.73-93.885-36.21-35.187-31.1 146.777z"/><path fill="#292122" fill-opacity=".675" d="M594.492 926.103l113.804-6.59-55.568 73.709-49.321 39.75z"/><path fill="#c42117" fill-opacity=".643" d="M195.185 380.083l-44.031 128.682L354.02 391.667 229.66 563.212z"/><path fill="#cf1904" fill-opacity=".376" d="M416.406 492.91l23.102 107.105 30.924-57.567 211.772 73.976z"/><path fill="#d7dc9a" fill-opacity=".212" d="M464.712 108.203l96.898 173.735 39.09-14.998-57.596-125.684z"/><path fill="#eda195" fill-opacity=".902" d="M569.738 522.561l-51.511 93.481 83.898 25.943-105.227-158.108z"/><path fill="#dec2c4" fill-opacity=".592" d="M392.63 296.536l-121.947 30.968 61.597-44.274 50.738-14.13z"/><path fill="#ca9998" fill-opacity=".706" d="M238.903 453.018l-48.382.523 38.389-102.13 42.102-38.606z"/><path fill="#171012" fill-opacity=".659" d="M681.133-22.253L461.43 59.11 479.793-62l212.978 217.708z"/><path fill="#533222" fill-opacity=".78" d="M814.742 285.257l-45.081-157.399L872.45-62 640.748 175.323z"/><path fill="#ad4e2d" fill-opacity=".722" d="M447.04 219.606L539.825 366.9l-74.132-29.813-65.822-63.767z"/><path fill="#e0351c" fill-opacity=".698" d="M334.145 551.282l199.03 119.952 19.819 256.78-259.125-340.698z"/><path fill="#ff7345" fill-opacity=".502" d="M660.657 517.777l11.282-95.134-335.014 9.452 231.251-104.563z"/><path fill="#a7471f" fill-opacity=".914" d="M130.69 939.043l16.607-23.636-66.255-6.466 95.174-133.712z"/><path fill="#90396c" fill-opacity=".608" d="M688.167 758.036l-53.993-76.408 12.693-38.118 86.451 58.966z"/><path fill="#e3371f" fill-opacity=".651" d="M226.75 569.076L239.502 487l13.957 160.763-95.068-53.823z"/><path fill="#181618" fill-opacity=".941" d="M68.303 886.604l147.273-3.84-22.265-6.74-157.58-.864z"/><path fill="#291e16" fill-opacity=".757" d="M-10.081 957.667l184.808 41.478-46.61-28.17L-62 958.507z"/><path fill="#810f0a" d="M180.62 636.387l128.112 14.323-113.734-25.683-81.963-20.952z"/><path fill="#fceef6" fill-opacity=".529" d="M392.628 457.058l81.543-10.003-42.522-28.294-30.52 39.22z"/><path fill="#4e120a" fill-opacity=".38" d="M666.259 681.343l145.503 13.419-80.519-147.557-66.666-186.31z"/><path fill="#fb472d" fill-opacity=".451" d="M106.119 655.124l6.668 153.987 52.69 9.845 25.963-115.14z"/><path fill="#fff8fe" fill-opacity=".302" d="M618.891 412.34l3.934 114.013-26.567-42.677-6.293-17.447z"/><path fill="#020307" fill-opacity=".855" d="M158.959 97.932l30.364 78.253 53.092 29.306 34.02-57.378z"/><path fill="#65382b" fill-opacity=".561" d="M674.745 318.023l62.318 275.417 70.777-56.698-89.751-221.517z"/><path fill="#ead9ad" fill-opacity=".318" d="M623.184 159.035l-47.87 118.233 39.297-61.214L560.272 97.18z"/><path fill="#fe5c01" fill-opacity=".604" d="M127.043 984.676L210.761 1086l-103.863-75.438-48.716-1.358z"/><path fill="#6d4139" fill-opacity=".475" d="M-35.82 516.846l83.889 26.594 94.057 60.536L64.16 358.534z"/><path fill="#e2482c" fill-opacity=".851" d="M550.365 563.772l109.405 66.806-29.297 41.897-27.706-145.7z"/><path fill="#5b0002" fill-opacity=".584" d="M361.005 513.811l-43.609-52.089-124.899 290.36 105.397-207.408z"/><path fill="#165bb1" fill-opacity=".165" d="M756.334 830.433l90.21-87.847-89.65-33.018-75.278 25.33z"/><path fill="#ffab87" fill-opacity=".251" d="M718.649 942.897l10.744 79.318-87.234-100.509 1.706 54.346z"/><path fill="#0e110e" fill-opacity=".592" d="M751.728 230.724L561.89 216.74l18.009-24.077 96.016 111.544z"/><path fill="#483933" fill-opacity=".69" d="M829.315 1030.104L898 973.141l-244.38 38.21-32.564-5.308z"/><path fill="#fc4b00" fill-opacity=".663" d="M74.258 903.09l46.81-19.108 23.289 41.014-11.026-9.53z"/><path fill="#b1f3ff" fill-opacity=".235" d="M405.29 531.102l26.715 70.328-44.123 10.064 65.074-68.057z"/><path fill="#f7623f" fill-opacity=".859" d="M660.94 402.12l9.784 74.92-301.822-201.824 133.944 73.799z"/><path fill="#e7a9a3" fill-opacity=".761" d="M450.984 602.364l11.025-43.627 140.06 52.16-44.24 14.67z"/><path fill="#e13923" fill-opacity=".792" d="M277.262 440.26l16.488 54.05-8.7-164.81-42.219 79.213z"/><path fill="#480f00" fill-opacity=".443" d="M572.95 270.742l-71.835 94.495-5.382-133.626-27.201 16.358z"/><path fill="#e84527" fill-opacity=".969" d="M429.927 919.181l46.852-384.03-.95 405.52 20.495-389.599z"/><path fill="#e8c6b7" fill-opacity=".443" d="M125.59 935.665l5.53 16.313-49.713 9.961 45.714 7.044z"/><path fill="#875c30" fill-opacity=".608" d="M559.133 238.386l-52.856 14.945-19.686-203.3-32.784 33.1z"/><path fill="#151c1d" fill-opacity=".537" d="M484.07 75.463L383.228 89.3l64.564 152.585-170.053 63.834z"/><path fill="#ff5f41" fill-opacity=".506" d="M430.401 254.712l63.995 144.924L387.623 297.9l-.523-31.041z"/><path fill="#1e1e23" fill-opacity=".604" d="M793.02 34.183l-41.196-75.017L898 13.986l-70.336 176.466z"/><path fill="#008f71" fill-opacity=".188" d="M736.738 444.464l75.513-67.803 72.047 147.37-107.791-35.873z"/><path fill="#4e3534" fill-opacity=".569" d="M368.371 1.986l-123.793 313.64 83.226-32.1 34.55-131.536z"/><path fill="#f95b33" fill-opacity=".792" d="M677.72 820.503l-32.16-76.552 4.462 169.459 50.496 2.194z"/><path fill="#f83e13" fill-opacity=".431" d="M507.03 564.4l-54.025-16.53-51.926-75.828 98.825 30.448z"/><path fill="#ef5c37" fill-opacity=".835" d="M594.888 940.596L545.635 691.52l-9.632-127.353-13.801 107.362z"/><path fill="#c1140b" fill-opacity=".486" d="M336.437 780.026l65.144 50.469 9.975 57.694-131.967-150.183z"/><path fill="#c0c5a4" fill-opacity=".62" d="M385.08 376.289l-8.578-36.717 43.309-4.652 19.813 76.149z"/><path fill="#be2419" fill-opacity=".745" d="M277.23 540.704l-8.878-184.28-36.977 100.506-73.816 19.94z"/><path fill="#0f0a06" fill-opacity=".639" d="M470.028 177.739l-14.293-166.14-80.62 191.499 61.342-86.581z"/><path fill="#111516" fill-opacity=".616" d="M35.453 277.487l-55.983 22.616 12.276 77.642 117.489-48.01z"/><path fill="#fffdfb" fill-opacity=".247" d="M505.856 500.315l-7.85 106.73 44.9-122.28 17.804 88.31z"/><path fill="#f19d6b" fill-opacity=".278" d="M464.9 195.431l-34.951-6.455-21.722-54.064-2.61.084z"/><path fill="#ddad93" fill-opacity=".596" d="M547.755 140.174l7.699 50.61-41.639-36.746-20.12-16.556z"/><path fill="#0c0a13" fill-opacity=".765" d="M138.73 920.858l30.414-112.838 74.898-.003-35.04 101.877z"/><path fill="#12501d" fill-opacity=".204" d="M770.12 1072.36l24.917-234.046-146.738-110.286 92.557 263.72z"/><path fill="#ad2b27" fill-opacity=".851" d="M201.538 414.43l26.671-63.988-34.99 39.647-55.188 162.319z"/><path fill="#830704" fill-opacity=".38" d="M185.019 715.158l70.642-66.224 83.013 78.046-209.081-87.157z"/><path fill="#080911" fill-opacity=".467" d="M718.748 97.342L642.623 10.32l-41.016 127.296-24.14-32.268z"/><path fill="#2d2428" fill-opacity=".792" d="M627.582 268.664l-77.03 12.688 28.252 51.395 84.713 15.41z"/><path fill="#be2a19" fill-opacity=".655" d="M405.923 501.192l40.497 42.154-122.765-14.5 88.321 102.297z"/><path fill="#281a16" fill-opacity=".694" d="M628.354 945.653l68.729-30.235-22.464 49.081 29.868-26.025z"/><path fill="#ff8a55" fill-opacity=".439" d="M614.43 533.993L549.212 298.5l39.281 41.166L429.271 467.41z"/><path fill="#0c0000" fill-opacity=".243" d="M520.296 103.253l84.89 80.234-62.683-20.514 21.667-58.833z"/><path fill="#222419" fill-opacity=".612" d="M81.477 808.055l5.688 86.206-70.65 6.74 17.488 72.41z"/><path fill="#2ac8ff" fill-opacity=".204" d="M669.673 612.271l-10.337 27-8.787-74.067 28.353 31.995z"/><path fill="#130c0f" fill-opacity=".455" d="M-45.996 690.582L132.885 571.09 80.742 752.595-62 730.872z"/><path fill="#5e5b74" fill-opacity=".322" d="M110.185 529.293l8.613 92.464 63.107-205.215-132.711-6.577z"/><path fill="#302626" fill-opacity=".655" d="M245.922 633.33l-67.097 103.085 2.007 21.482 66.494-5.407z"/><path fill="#051b2b" fill-opacity=".451" d="M227.123 566l2.534-63.749-34.642 71.314-44.902-44.553z"/><path fill="#6d81a9" fill-opacity=".294" d="M337.928 28.486l-66.324 19.722-9.433 53.974 58.61-5.68z"/><path fill="#fd6e41" fill-opacity=".725" d="M486.518 897.167l-89.985-21.328 116.964 193.991-36.6-397.977z"/><path fill="#ab450c" fill-opacity=".243" d="M674.362 134.767l17.302 55.437 65.087 14.408 8.106-72.826z"/><path fill="#e2381d" fill-opacity=".863" d="M512.993 594.454l45.895 231.851L375.75 599.39l131.708 14.574z"/><path fill="#501623" fill-opacity=".643" d="M677.856 310.815l69.425 8.451-46.262 128.652-68.43-79.42z"/><path fill="#b5a978" fill-opacity=".349" d="M620.78 207.814l.121-92.532-24.731 61.93-9.875 99.673z"/><path fill="#756339" fill-opacity=".396" d="M413.694 264.295l28.187-50.08 61.246 68.036-.839 47.844z"/><path fill="#e2cab1" fill-opacity=".2" d="M625.995 107.082l-37.522-58.72-114.646 63.28 69.96-10.64z"/></svg>