<svg xmlns="http://www.w3.org/2000/svg" width="228" height="278" viewBox="0 0 836 1024"><path fill="#6f7075" d="M0 0h836v1024H0z"/><path fill="#dde1ee" fill-opacity=".812" d="M248.458 1086l330.725-56.171 117.89-642.633-481.283-50.648z"/><path fill="#060401" fill-opacity=".675" d="M868.284-62H-13.878L-62 308.652l957.185 50.428z"/><path fill="#d8dde7" fill-opacity=".878" d="M56.9 788.874L13.453 636.928 219.91 378.482l234.73-114.267z"/><path fill="#1e2022" fill-opacity=".957" d="M659.016 251.11L837.251-62l5.71 1083.934-84.812-190.7z"/><path fill="#bcb8c4" fill-opacity=".996" d="M459.487 615.096L849.227 1086 704.87 657.958l-5.47-250.562z"/><path fill="#202324" d="M-62 238.877l478.38-96.634L-62 714.305 105.263 1086z"/><path fill="#1d1e20" fill-opacity=".918" d="M602.609 741.865l-19.42 119.016 48.134 99.53L784.91 1086z"/><path fill="#090300" fill-opacity=".6" d="M127.404 614.826l106.54-19.155-20.409 436.75L188.627 1086z"/><path fill="#e0e5ef" fill-opacity=".937" d="M162.361 868l-65.495 13.804-80.349-227.296 86.892-136.146z"/><path fill="#e1e6f2" fill-opacity=".969" d="M709.093 1060.574L324.892 983.73l-99.149-250.137 305.165 103.972z"/><path fill="#281c15" fill-opacity=".855" d="M169.635 901.038L-62 840.648v174.664l276.185 62.566z"/><path fill="#e3e7f3" fill-opacity=".945" d="M319.553 334.126l89.536-45.282L690.75 598.46 193.857 392.804z"/><path fill="#e7e7e7" fill-opacity=".894" d="M695.253 430.118l15.526 93.92-196.905-24.422 55.43-179.332z"/><path fill="#0d130d" fill-opacity=".294" d="M130.57 908.076l132.259-84.581-133.81-168.64 227.383-218.647z"/><path fill="#3b2f29" d="M335.254 273.189l224.514-299.21 147.401 459.376-127.608-111.62z"/><path fill="#cc071f" fill-opacity=".467" d="M590.949 572.464l-38.55 85.635-46.808-49.405 34.07-79.965z"/><path fill="#305d9b" fill-opacity=".475" d="M434.882 703.291l158.621 10.358 57.728-6.936-241.822-70.834z"/><path fill="#e4edfc" fill-opacity=".576" d="M716.59 929.061l-24.358-294.713L816.64 988.492l-33.594 58.252z"/><path fill="#202224" fill-opacity=".929" d="M704.08 658.543l-8.651-64.1 68-451.005 78.595 833.767z"/><path fill="#1f2122" fill-opacity=".906" d="M-62-61.709L215.681 367.35l93.013-27.362 202.278-297.14z"/><path fill="#322822" fill-opacity=".91" d="M495.49 370.86L332.55 204.524l220.03 38.816 4.135 134.54z"/><path fill="#b3a9a8" fill-opacity=".671" d="M180.261 924.517l90.977-35.889L280 1078.21 123.43 756.584z"/><path fill="#727477" fill-opacity=".62" d="M444.698 425.331l29.535 62.902-50.49-5.365-7.108-42.235z"/><path fill="#e7bbab" fill-opacity=".294" d="M468.74 83.532l136.23 8.758-1.919 56.167-121.256-19.129z"/><path fill="#99a5a9" fill-opacity=".486" d="M433.105 586.552L226.568 710.633l-6.135-248.856 80.244-7.687z"/><path fill="#1d1e1d" fill-opacity=".894" d="M20.629 705.676L176.38 1086-62 876.715 37.841 318.96z"/><path fill="#191c1e" fill-opacity=".733" d="M248.631 810.964l-23.841-67.106-73.66-147.876-10.533 187.59z"/><path fill="#1f2123" fill-opacity=".812" d="M677.657 886.708l-98.341-101.91 37.13 165.506L812.936 1086z"/><path fill="#a9afb5" fill-opacity=".867" d="M216.686 585.294L132.48 646.42l-9.69-39.4 242.917-168.652z"/><path fill="#632707" fill-opacity=".4" d="M342.648 1026.488l79.846-31.404 91.53 90.062L898 1033.057z"/><path fill="#68493e" fill-opacity=".769" d="M217.676 917.094l-1.648 60.514-138.602-90.46 82.087-23.099z"/><path fill="#e3e6f0" fill-opacity=".898" d="M790.06 989.581l-55.586-200.1 77.121 177.322 43.115 61.113z"/><path fill="#1d2022" fill-opacity=".878" d="M613.576 177.025l95.731 313.586L827.456-60.765 592.408-62z"/><path fill="#a5a9b1" fill-opacity=".792" d="M594.83 710.5l46.812 123.222 29.637 38.247 12.768-364.75z"/><path fill="#e3e7ef" fill-opacity=".757" d="M177.845 867.904L54.07 567.287 92.676 893.42l51.184-30.075z"/><path fill="#d1daec" fill-opacity=".616" d="M484.113 821.933l-140.81-171.939L229.01 850.025l-2.41 89.236z"/><path fill="#ccd5e6" fill-opacity=".843" d="M273.87 644.768l308.222 31.177-6.814-39.668L290.479 671.4z"/><path fill="#c1c1c5" fill-opacity=".996" d="M784.066 1086L624.414 964.348l-14.149 29.966L837.985 1086z"/><path fill="#e7eeff" fill-opacity=".686" d="M497.686 580.71l75.574-242.107-90.884 140.398-130.806 5.374z"/><path fill="#936f59" fill-opacity=".478" d="M580.694 265.78l19.425-51.457 1.912-39.143-72.065 8.69z"/><path fill="#020404" fill-opacity=".243" d="M139.957 656.209l101.561 292.479-108.523-190.704 179.598-255.678z"/><path fill="#e1e5f0" fill-opacity=".698" d="M52.366 779.877L25.754 707.48 43.682 584.4l60.067-58.31z"/><path fill="#c7d2e3" fill-opacity=".443" d="M225.833 637.094l109.749-58.33L627.222 951.1l-402.55-208.695z"/><path fill="#b32e40" fill-opacity=".808" d="M502.312 562.418l70.09 66.19-4.03-34.918-31.679-32.456z"/><path fill="#1d2023" fill-opacity=".745" d="M577.339 337.703l-19.97-35.114 154.193-188.776L898 464.792z"/><path fill="#c0c5d8" fill-opacity=".525" d="M761.088 1008.653L647.6 838.615l-26.885-91.887 113.834-29.505z"/><path fill="#1b1d1f" fill-opacity=".922" d="M245.14 811.575l-40.21 89.947-71.374-244.556 64.358-46.664z"/><path fill="#ecf2fc" fill-opacity=".698" d="M403.767 304.835l-199.75 78.954 381.056 82.775-.314-32.988z"/><path fill="#1d1f21" fill-opacity=".765" d="M800.537 1086l-136.174-93.587-87.94-157.307 33.24-60.104z"/><path fill="#fdfeff" fill-opacity=".722" d="M628.823 370.03L685 426.946l-92.407 8.111-34.856-110.627z"/><path fill="#eaecf5" fill-opacity=".537" d="M259.368 1019.035l338.815-228.262-77.479-74.727 105.426 265.71z"/><path fill="#dad2c1" d="M643.006 440.671l-2.421-.918-59.742 21.75 84.547 111.812z"/><path fill="#1b1c1d" fill-opacity=".698" d="M898 866.471l-96.984 60.85-37.958-79.453-12.045-97.73z"/><path fill="#023684" fill-opacity=".192" d="M422.646 662.212l-4.92 13.759 129.213 52.252 78.176-49.588z"/><path fill="#c9cfe0" fill-opacity=".835" d="M541.905 649.902l-135.897-145.41 127.035 86.436L291.64 670.34z"/><path fill="#080909" fill-opacity=".271" d="M451.406 431.709l-1.742 7.407-30.961 4.525 55.708 47.904z"/><path fill="#e5efff" fill-opacity=".325" d="M639.722 536.612l69.754-62.479-16.208 166.07-233.894-161.009z"/><path fill="#ecf1fa" fill-opacity=".612" d="M34.873 603.1l152.44-172.486-31.068 76.068 27.436 40.532z"/><path fill="#0c0903" fill-opacity=".565" d="M611.376 92.517l-87.553-61.264-115.58 86.832 29.318-51.172z"/><path fill="#dde1ec" fill-opacity=".922" d="M698.389 676.143l38.086 59.621 24.522 101.452 35.774 158.523z"/><path fill="#1a1c1e" fill-opacity=".612" d="M151.525 467.693l31.05-33.943-226.544 7.68L-62 643.171z"/><path fill="#949392" fill-opacity=".91" d="M227.378 977.466L189.624 1086l39.44-12.795 49.924-143.087z"/><path fill="#fafafc" fill-opacity=".38" d="M245.085 444.193L440.827 274.32 330.56 321.775l-124.573 90.729z"/><path fill="#d8dee8" fill-opacity=".529" d="M137.588 678.956l5.052 85.334-40.903 138.083-77.998-211.468z"/><path fill="#705243" fill-opacity=".486" d="M445.15 29.575l139.631-6.842 34.306 91.881L525.51-21.48z"/><path fill="#917a71" fill-opacity=".851" d="M861.29 991.225L894.04 1086l3.96-57.912L683.432 1086z"/><path fill="#cfd6e9" d="M511.986 653.5l-23.048 40.876-19.749-193.868 3.924 23.954z"/><path fill="#a40617" fill-opacity=".384" d="M590.1 610.832l-54.028 28.973 1.218-19.096-45.025-26.091z"/><path fill="#f0f3f8" fill-opacity=".565" d="M336.364 1037.21l114.842-96.403 14.836-88.442-201.659 45.216z"/><path fill="#6d4f45" fill-opacity=".537" d="M-62 959.761v-47.376l88.378 39.744 30.771 131.52z"/><path fill="#585c4b" fill-opacity=".196" d="M183.013 515.71l95.403-35.773-27.87 117.564 110.328-110.782z"/><path fill="#353a25" fill-opacity=".102" d="M617.687 650.765l73.348-151.587-28.278 221.809-44.511-19.765z"/><path fill="#311706" fill-opacity=".38" d="M127.302 873.052L79.84 912.609 193.158 1086l-39.396-223.448z"/><path fill="#1e2123" fill-opacity=".816" d="M314.454-62l114.79 322.022-26.928 35.91-452.612-85.47z"/><path fill="#492f22" fill-opacity=".776" d="M418.874 292.205l76.54-60.848 104.118-9.756-186.586-90.705z"/><path fill="#ba9aa4" fill-opacity=".969" d="M191.753 433.544l30.704.74-7.033-16.024-26.455-14.375z"/><path fill="#ebeef6" fill-opacity=".682" d="M626.21 384.023l-82.314 106.15-126.797-30.312 29.5 1.501z"/><path fill="#222325" fill-opacity=".847" d="M639.575 832.077l-55.087 42.225 61.516 74.464-24.957 15.384z"/><path fill="#1d1e1f" fill-opacity=".302" d="M603.289 726.093l41.208 148.652 23.196 161.486-80.581-243.364z"/><path fill="#fbfdff" fill-opacity=".467" d="M816.803 1086H568.19l42.68-193.634-50.474 71.886z"/><path fill="#003f5d" fill-opacity=".082" d="M496.944 714.413L358.106 632.41l-16.004 47.326 105.179-138.01z"/><path fill="#181a1b" fill-opacity=".847" d="M63.073 446.098L-62 342.882l65.012 313.64 86.293-140.645z"/><path fill="#ffe9dc" fill-opacity=".11" d="M442.674 183.436L609.2 208.522 547.893 46.279l74.9 141.265z"/><path fill="#bab5b5" fill-opacity=".537" d="M211.97 932.838l56.564-116.61 17.778 25.965-52.277 146.103z"/><path fill="#020406" fill-opacity=".263" d="M469.551 444.997l-45.556-6.777 60.948 52.321-31.899-26.795z"/><path fill="#e7ecf9" fill-opacity=".714" d="M469.587 397.118l91.857-20.253 33.991 129.357-121.91 74.937z"/><path fill="#947d77" fill-opacity=".867" d="M460.498 1010.722l-109.262 17.698 20.045-17.304 58.007-8.745z"/><path fill="#d0d6e9" fill-opacity=".671" d="M585.704 775.511l-183.046 64 193.525 77.56-16.916-28.85z"/><path fill="#c0c1ce" fill-opacity=".8" d="M661.822 593.318l-103.465-9.026 23.761 29.141-82.104 56.7z"/><path fill="#e7edf8" fill-opacity=".388" d="M19.525 640.502l1.93 59.115 98.757-2.536-44.233-146.74z"/><path fill="#5d5045" fill-opacity=".686" d="M554.552 387.639l12.9-84.846 31.64-60.063-47.916 23.633z"/><path fill="#c3ccdd" fill-opacity=".957" d="M335.571 692.156l220.075 18.834-53.043 131.455-29.118-14.818z"/><path fill="#e7eaf0" fill-opacity=".647" d="M83.91 875.256l53.382-9.126 4.859-9.47-1.554-164.603z"/><path fill="#221914" fill-opacity=".635" d="M472.607 316.38l-2.216 34.941 59.243 23.418 35.001-109.524z"/><path fill="#e1d3b8" fill-opacity=".537" d="M432.104 954.472l21.646 27.131-63.933 5.11-27.495-30.34z"/><path fill="#cfdaed" fill-opacity=".325" d="M411.53 310.778l-33.856 247.55-98.944-162.061 307.53 26.816z"/><path fill="#acab9b" fill-opacity=".38" d="M602.62 153.863l-28.457-27.54.32-37.98 22.573 12z"/><path fill="#b0b0b8" fill-opacity=".647" d="M675.638 882.292L796.6 1047.776l-84.225-171.818-92.756-94.9z"/><path fill="#1f1004" fill-opacity=".49" d="M595.555 144.137l-7.893 21.823-111.266.394 23.173-24.936z"/><path fill="#dbe4f7" fill-opacity=".655" d="M386.402 909.061l-56.943-219.449 178.015 175.862L285.789 711.26z"/><path fill="#212426" fill-opacity=".78" d="M688.426 416.644l139.726-36.983-226.314-227.993 7.786 200.087z"/><path fill="#d9dce3" fill-opacity=".945" d="M706.606 549.428l-1.885-69.114-57.793 84.861 18.165-139.694z"/><path fill="#d9ddeb" fill-opacity=".761" d="M231.505 748.8l2.3-166.905-7.299 93.903 70.111 188.904z"/><path fill="#ced6e9" fill-opacity=".792" d="M513.722 700.563l2.875-56.167-83.626-163.952 93.157 208.423z"/><path fill="#d3d5e4" fill-opacity=".537" d="M219.21 888.223l21.354-70.204 10.072 129.007 135.426-143.354z"/><path fill="#ebf0ff" fill-opacity=".388" d="M755.538 789.409l-70.392-151.363 130.609 371.103-82.12-126.005z"/><path fill="#a29f9d" fill-opacity=".467" d="M285.553 657.823l-33.442 36.92-25.786-126.889 25.954 9.222z"/><path fill="#232629" fill-opacity=".992" d="M-28.213 327.102l113.01 118.629 62.598 22.099L260.8 309.172z"/><path fill="#17191a" fill-opacity=".373" d="M175.555 873.787l52.017 48.397-33.236-239.438-51.79 91.193z"/><path fill="#050600" fill-opacity=".231" d="M266.122 1086L122.598 926.968l56.262 158.51 99.88-84.53z"/><path fill="#f6faff" fill-opacity=".388" d="M180.315 467.523l163.529-157.102 64.578-4.94L174.017 484.03z"/><path fill="#f7f7fb" fill-opacity=".486" d="M687.123 454.87l-174.16-73.373 83.143-19.403 21.388-5.993z"/><path fill="#e4eafb" fill-opacity=".58" d="M225.618 739.802L620.984 941.75l-7.626 25.682L266.269 826.15z"/><path fill="#e16a80" fill-opacity=".729" d="M512.58 555.242l-10.366 17.147 74.62-9.82-35-21.487z"/><path fill="#ccd4e5" fill-opacity=".855" d="M557.532 653.988l4.183-2.692 6.169 47.193-8.675-5.694z"/><path fill="#d8dbe2" fill-opacity=".765" d="M704.244 573.445l-15.018-18.719 11.65 139.327-20.012-87.049z"/><path fill="#1b1c1d" fill-opacity=".894" d="M798.984 930.237l15.763 39.722L898 804.262 749.837 772.55z"/><path fill="#1b1e1b" fill-opacity=".239" d="M618.736 994.396l147.443-6.426-29.752-13.38-125.164 12.116z"/><path fill="#e2ebff" fill-opacity=".349" d="M303.78 526.671l363.725 17.18-26.01 74.69-148.512-142.528z"/><path fill="#feffff" fill-opacity=".384" d="M841.492 992.945L887.146 1086l-72.27-98.204L712.009 1086z"/></svg>