<svg xmlns="http://www.w3.org/2000/svg" width="228" height="278" viewBox="0 0 836 1024"><path fill="#719b97" d="M0 0h836v1024H0z"/><path fill="#e0eae3" fill-opacity=".804" d="M720.16 444.379L898 608.116V1086l-597.547-50.76z"/><path fill="#0c1728" fill-opacity=".549" d="M166.081 298.319L898 26.823-62-62 62.791 1086z"/><path fill="#11435a" fill-opacity=".847" d="M658.077 375.468L518.399-36.985 718.106-62l149.52 635.347z"/><path fill="#8cd7b9" fill-opacity=".804" d="M-62 641.079L55.596 790.895l513.31-657.857 60.896 836.306z"/><path fill="#f5fffb" fill-opacity=".714" d="M238.285 220.38l-128.61 214.401 463.748-88.03-285.98 18.346z"/><path fill="#008f53" fill-opacity=".745" d="M-62 615.388l574.674-14.884L758.71 432.006 559.73 515.25z"/><path fill="#0fc682" fill-opacity=".992" d="M137.065 508.755l407.565-83.868 78.938-85.51-378.712 77.436z"/><path fill="#6a594c" fill-opacity=".992" d="M340.021 361.464l-50.908 11.483-61.544-346.1L568.194-62z"/><path fill="#e7ebeb" fill-opacity=".878" d="M247.538 572.24l-61.935-72.648 502.064-96.213-127.462 101.809z"/><path fill="#00adc1" fill-opacity=".518" d="M-38.16 1023.762l202.043-262.35 445.194-116.66-532.352 399.032z"/><path fill="#cbdee0" d="M328.326 837.862L555.88 818.37l-423.89-97.762L242.91 573.19z"/><path fill="#a2958b" d="M761.106 632.507l-22.549-57.05-164.272-12.366 296.234 286.994z"/><path fill="#16b67a" fill-opacity=".941" d="M562.121 773.22L406.953 864l142.05-18.234 137.541-118.094z"/><path fill="#83472d" fill-opacity=".639" d="M-62 469.994L142.752 751.26l-14.358 171.915-156.426-60.5z"/><path fill="#fef4fc" fill-opacity=".573" d="M272.551 1057.36L898 1059.656l-11.704-234.111-231.116-60.59z"/><path fill="#f0dac3" fill-opacity=".878" d="M898 397.177l-115.913-141.06-9.192-58.518L898-3.744z"/><path fill="#f2fff7" fill-opacity=".459" d="M629.057 197.2l-229.994-3.639-15.038 193.354 153.31-37.688z"/><path fill="#f2e7ea" fill-opacity=".631" d="M271.82 632.747l435.638-56.611-461.41 145.843 204.006 335.843z"/><path fill="#10455d" fill-opacity=".737" d="M210.302-62L-62 250.601l308.265 331.314L76.507 738.676z"/><path fill="#184659" fill-opacity=".961" d="M845.86-62L474.487 128.193 677.44 248.304 843.777 96.908z"/><path fill="#05b972" fill-opacity=".984" d="M323.81 766.14l-2.27-56.458 285.96-25.567-135.933 77.414z"/><path fill="#e1eced" d="M498.465 490.24l118.583-143.392-36.351-65.968 91.194 118.242z"/><path fill="#ebf1f3" fill-opacity=".945" d="M736.31 726.052l-121.116-63.99-125.595 162.514-205.629-34.107z"/><path fill="#003401" fill-opacity=".259" d="M282.605 365.588L270.06 218.889l96.067 12.386 258.161 24.733z"/><path fill="#0fbcf2" fill-opacity=".616" d="M132.093 773.105l18.395 130.94 206.528-23.291-135.044-166.366z"/><path fill="#e1e1de" fill-opacity=".741" d="M680.036 764.976l-70.607-204.694-353.107 121.187 526.184-43.073z"/><path fill="#b2957c" d="M297.759 891.947L248.664 906.4l-125.907 169.696 220.14 9.905z"/><path fill="#ffb989" fill-opacity=".475" d="M201.962 729.844l-111.37-55.812L-62 987.654 2.497 636.085z"/><path fill="#09c17a" fill-opacity=".878" d="M580.526 495.234l-5.926 75.044 92.989-47.727 10.642-120.406z"/><path fill="#9a7f6f" fill-opacity=".922" d="M817.406 755.757l-28.818-83.719-96.222 88.277 3.98 21.45z"/><path fill="#289857" fill-opacity=".859" d="M271.086 625.887l46.365 3.716 157.413-24.426-238.716-41.964z"/><path fill="#eef1f5" fill-opacity=".8" d="M466.526 376.901L311.76 393.53l98.326-86.308 161.37-6.879z"/><path fill="#096682" fill-opacity=".969" d="M112.674 1086l60.832-203.28 30.204 82.665 4.216-7.559z"/><path fill="#0abf78" fill-opacity=".863" d="M555.468 735.966l-203.54 17.586 266.63-124.44-27.398 50.463z"/><path fill="#bc947b" fill-opacity=".569" d="M362.293 116.908l63.18-178.399 68.396 27.7 30.04 112.18z"/><path fill="#99b8ba" fill-opacity=".788" d="M245.812 202.865L123.035 390.573 250.36 560.59 114.02 459.465z"/><path fill="#27667c" fill-opacity=".882" d="M297.847 879.711l38.159 179.84-9.5-28.6 32.048-121.114z"/><path fill="#fffcff" fill-opacity=".639" d="M714.085 492.496l11.886-70.755L898 662.215l-123.375 9.362z"/><path fill="#f6f8fb" fill-opacity=".702" d="M783.788 1086H327.551l34.464-222.471 76.163 22.96z"/><path fill="#04111b" fill-opacity=".349" d="M133.803 750.774l12.947 118.647-54.332 99.593L-.748 844.456z"/><path fill="#f9da9d" fill-opacity=".667" d="M316.144 73.66l29.18-86.622 229.963-42.56L291.652 7.612z"/><path fill="#04b073" fill-opacity=".592" d="M452.64 885.885l-101.77-21.942 13.44-21.665 242.976-33.423z"/><path fill="#5d4e41" fill-opacity=".549" d="M635.84 652.572l120.034-32.754-14.466-37.137-110.414 3.343z"/><path fill="#00cf7e" fill-opacity=".553" d="M588.63 256.751l-129.15-14.728 176.674 87.689-143.791 114.003z"/><path fill="#009ccc" fill-opacity=".667" d="M69.104 933.2L220.097 1086l-272.82-108.5 5.288-180.197z"/><path fill="#fff5fd" fill-opacity=".404" d="M660.402 252.668l-159.879-93.937L360.38 384.069l67.61-149.733z"/><path fill="#003850" fill-opacity=".529" d="M-62 173.215l365.633-112.14-25.33-112.795L-62-53.299z"/><path fill="#09b675" fill-opacity=".565" d="M721.023 860.332l-47.393-43.514 28.958-7.991 35.887 51.8z"/><path fill="#024560" fill-opacity=".549" d="M-62 696.037V241.562l199.86 179.486-42.472 178.366z"/><path fill="#54465c" fill-opacity=".341" d="M567.59 968.894l17.506-87.041 51.092 32.681-15.406 68.77z"/><path fill="#cdd6d3" d="M412.121 696.33l-310.105 20.546 127.874-91.547 285.943 51.928z"/><path fill="#1d5066" fill-opacity=".898" d="M883.139 342.029l-247.667-106.82-10.723 90.955 264.42 281.722z"/><path fill="#2b2317" fill-opacity=".439" d="M532.271 135.89l-375.589 28.2 187.886 187.903-121.521-243.656z"/><path fill="#eef3f5" fill-opacity=".788" d="M738.16 660.569l70.42-35.477-340.611 205.983-92.003-35.686z"/><path fill="#09c97f" fill-opacity=".863" d="M167.22 467.728l-10.096-40.559 189.783-31.149 168.587 45.385z"/><path fill="#fffcfc" fill-opacity=".459" d="M473.649 266.628l-65.38-.449 236.644 52.918-83.556-48.627z"/><path fill="#faa276" fill-opacity=".259" d="M54.97 861.236L35.687 614.058l40.385 97.95 32.133 187.411z"/><path fill="#09b772" fill-opacity=".78" d="M550.271 654.837l-43.29 91.464-216.693-55.04 30.824 64.15z"/><path fill="#270000" fill-opacity=".369" d="M287.076 360.83l78.16-12.34 42.702-49.676-83.346-34.298z"/><path fill="#00c37f" fill-opacity=".561" d="M412.511 245.083l89.204 68.266-96.294-11.935 102.174-52.784z"/><path fill="#86d3bd" fill-opacity=".996" d="M572.369 874.722l-79.556 21.029 20.36 1.745-113.154-40.841z"/><path fill="#00141e" fill-opacity=".396" d="M412.825 80.114l-51.973-11.686-47.817 41.162 51.73-149.344z"/><path fill="#d68c3d" fill-opacity=".71" d="M789.615 271.573L898 249.949l-74.295-38.14-17.365 91.942z"/><path fill="#f3f4f7" fill-opacity=".851" d="M633.612 560.155l218.518 12.74-120.975-122.139-3.725 2.65z"/><path fill="#fffcff" fill-opacity=".565" d="M146.386 374.318l-17.932 20.135 98.535 24.331 198.753-57.887z"/><path fill="#04465d" fill-opacity=".314" d="M-62 365.046L241.316-13.001l-68.38 375.787 180.962-52.437z"/><path fill="#acc5ce" fill-opacity=".961" d="M153.927 754.213l81.385-99.776 45.916 103.623-164.217-43.662z"/><path fill="#ecebed" fill-opacity=".459" d="M263.893 59.863l-38.624 40.718-7.998-2.805 48.641 5.568z"/><path fill="#9a63a4" fill-opacity=".62" d="M240.506 842.458L206.39 893.67l-26.527 4.225 11.932-26.395z"/><path fill="#eee7f2" fill-opacity=".596" d="M80.597 741.906l109.13-100.627 34.712-26.328 11.861 52.154z"/><path fill="#eee8e3" fill-opacity=".769" d="M882.241 113.983l-56.793-5.588-32.998 41.955-9.87 123.528z"/><path fill="#01a85b" fill-opacity=".671" d="M535.102 512.138l123.69 35.201-251.477 55.363-40.958-46.143z"/><path fill="#004d27" fill-opacity=".592" d="M413.022 835.897l-54.592.644 116.997 22.297-32.95-29.666z"/><path fill="#f6f7fa" fill-opacity=".894" d="M640.974 875.004l-140.04 71.693 10.2-52.218 106.69-45.4z"/><path fill="#edf0f5" fill-opacity=".741" d="M455.868 607.393l167.684 7.31L505.08 671.84l-38.16 20.974z"/><path fill="#fef6fe" fill-opacity=".431" d="M623.38 219.413l-202.575 16.224-9.793 175.18-7.376-215.16z"/><path fill="#020207" fill-opacity=".169" d="M679.557 965.797l-31.945 98.482-12.888-158.883-48.066-14.627z"/><path fill="#deecf0" fill-opacity=".525" d="M410.123 93.688l5.499-1.841-42.167 17.125-14.174-36.295z"/><path fill="#fef1f4" fill-opacity=".361" d="M510.689 495.434l-303.962 33.255-58.2-116.12-16.084 69.179z"/><path fill="#c2f3ff" fill-opacity=".6" d="M-47.808 1086l104.581-97.652-19.783 6.72-80.01 59.442z"/><path fill="#987a68" fill-opacity=".706" d="M748.45 669.229l-49.92 133.097 113.04-96.438-6.996-26.992z"/><path fill="#8c5538" fill-opacity=".325" d="M396.231 17.748l154.212 47.385-81.853 148.66-72.71-41.185z"/><path fill="#00ae68" fill-opacity=".573" d="M675.065 739.478L537.58 840.894l19.558-63.81 81.473-43.493z"/><path fill="#02bbdc" fill-opacity=".557" d="M167.47 748.475l185.168 182.978-1.484-36.482-69.362-128.18z"/><path fill="#e6a590" fill-opacity=".247" d="M229.057 173.38L351.2 192.317l57.624-31.12-203.32-17.318z"/><path fill="#e7ebef" fill-opacity=".867" d="M568.087 518.635L442.6 469.173l202.396-82.126 25.18-.06z"/><path fill="#b1cffb" fill-opacity=".431" d="M161.715 899.497l-38.11 24.708-19.887-5.552 24.605 62.434z"/><path fill="#0f5a5b" fill-opacity=".596" d="M73.374 510.795l252.931 106.772L207.3 536.004l-15.16-37.72z"/><path fill="#0bcd8b" fill-opacity=".706" d="M578.211 541.274l67.894-45.157 95.674-70.679-95.269 118.018z"/><path fill="#cbaf73" fill-opacity=".439" d="M329.232 691.849L297.18 659.05l167.596-14.167-14.734 24.611z"/><path fill="#0a0205" fill-opacity=".365" d="M146.483 754.236L83.85 848.67l39.999 53.46-21.217-153.465z"/><path fill="#6b5d5c" fill-opacity=".486" d="M93.69 732.441L38.348 879.806l58.058-263.93 94.465 23.21z"/><path fill="#eff3f8" fill-opacity=".506" d="M322.268 836.02l41.158 42.357-85.498-233.813-6.442 107.522z"/><path fill="#3a2a1f" fill-opacity=".702" d="M-24.93 625.505l97.262 18.7-29.89-60.579-99.853-33.72z"/><path fill="#00c075" fill-opacity=".706" d="M601.5 361.89l-1.135-37.583-45.669-13.859-40.83 136.703z"/><path fill="#004a6f" fill-opacity=".545" d="M59.326 1054.873l53.046-163.66L-62 1015.7 75.312 884.605z"/><path fill="#03b5de" fill-opacity=".435" d="M217.302 712.782l-47.428 207.725-16.433 35.634-26.406-188.158z"/><path fill="#e9edef" fill-opacity=".937" d="M627.634 739.818l-29.972-144.897 12.48-38.412 10.16-1.344z"/><path fill="#38cae8" fill-opacity=".902" d="M199.434 936.313l98.815-66.636-77.77 10.046L198 898.465z"/><path fill="#03cd8b" fill-opacity=".482" d="M337.035 805.755l137.75 91.27 44.1-10.722-138.202-16.994z"/><path fill="#008b73" fill-opacity=".208" d="M511.456 888.923l209.518-64.277-29.251-20.034-39.393 15.324z"/><path fill="#f2f4f7" fill-opacity=".769" d="M595.146 994.638l-94.025-106.765-161.279 6.687L460.075 1086z"/><path fill="#00cd80" fill-opacity=".502" d="M616.156 346.179L296.658 478.824l-177.388-81.93-5.552 40.697z"/><path fill="#342418" fill-opacity=".424" d="M440.514 191.125l66.123-48.626-212.641-8.001-20.667-102.77z"/><path fill="#f2f3f7" fill-opacity=".816" d="M403.596 839.164l327.966-149.14-320.582 106.53-164.908-48.013z"/><path fill="#001a34" fill-opacity=".427" d="M179.183 892.039l8.091 56.486-6.267 15.424L114.415 1086z"/><path fill="#fbf6fc" fill-opacity=".592" d="M264.005 343.926L147.54 356.543l18.26 65.909 162.099-36.803z"/><path fill="#f8f5f8" fill-opacity=".675" d="M801.553 727.528L898 497.553 740.87 645.83 898 746.489z"/><path fill="#310006" fill-opacity=".255" d="M540.584 554.785l71.92 35.266-36.14-56.306-16.778-9.007z"/><path fill="#c49d7f" fill-opacity=".859" d="M283.247 1086l-78.05-138.715 24.004-30.936 74.403 35.377z"/><path fill="#003f61" fill-opacity=".475" d="M331.443 888.723l15.063 99.464-10.434 17.136-21.547 9.534z"/><path fill="#008a49" fill-opacity=".506" d="M325.39 633.877l-48.56-3.28-28.246-65.559 55.435-6.985z"/><path fill="#fcf6ff" fill-opacity=".455" d="M607.761 851.48l58.105 170.935-57.597-231.103-70.545 80.856z"/><path fill="#fec23e" fill-opacity=".184" d="M384.034 632.613l7.645-39.32-27.821-57.497-56.012 73.35z"/><path fill="#f5eef0" fill-opacity=".357" d="M546.09 304.967l-117.765-35.722-43.107-13.474 267.298 39.375z"/><path fill="#e9eaea" fill-opacity=".471" d="M267.012 287.97l-16.905-42.754-60.811 41.12 94.668 48.005z"/><path fill="#15d287" fill-opacity=".486" d="M368.466 239.081L599.86 281.64l24.202-11.902 1.608-15.182z"/><path fill="#8b7ec0" fill-opacity=".337" d="M657.693 456.697l114.1-1.672-50.577-52.944-48.955 32.835z"/><path fill="#030e00" fill-opacity=".396" d="M30.544 897.703L138.75 920.63 5.983 849.564l37.477-52.883z"/><path fill="#d5e6e5" fill-opacity=".918" d="M489.445 880.245l80.743-15.832 101.06-8.82-211.174 9.683z"/></svg>