<svg xmlns="http://www.w3.org/2000/svg" width="228" height="278" viewBox="0 0 836 1024"><path fill="#6d736d" d="M0 0h836v1024H0z"/><g fill-opacity=".502"><path fill="#fff" d="M594 778l-460 308 764-84z"/><path fill="#2f060f" d="M-62 22l888-84 64 300z"/><path fill="#a3e7d0" d="M730 406L254 566-62 266z"/><path fill="#4d0c19" d="M-62 994l276 64-64-620z"/><path fill="#fff" d="M526 858l-320-12-8 92z"/><path fill="#202529" d="M458 534l268 388-64-468z"/><path fill="#006e31" d="M306 458L86 382l452 16z"/><path fill="#fffff7" d="M898 578l-236-52 64-72z"/><path fill="#00521c" d="M418 942l160-76-344 56z"/><path fill="#cfe2ef" d="M202 830l396-120-376 12z"/><path fill="#583834" d="M-62 74L510-42 386 394z"/><path fill="#fff" d="M586 1086l-372-96 464-120z"/><path fill="#003608" d="M382 858l244-104-408 52z"/><path fill="#005324" d="M334 738l-164-76 460-28z"/><path fill="#fff0fd" d="M310 530l276-64-528-28z"/><path fill="#003d0b" d="M658 518l-480 4 224 68z"/><path fill="#fff" d="M130 346l200 52-8-100z"/><path fill="#d6ff45" d="M666 1078l116-236 116 148z"/><path fill="#210d1f" d="M646 402l252 148-276-296z"/><path fill="#fff" d="M78 470L-30 618l124-92z"/><path fill="#ccc2c3" d="M170 586l148 80 268-72z"/><path fill="#00874b" d="M362 438l272-88-108 100z"/><path fill="#fff" d="M374 386l144 4 56-68zm232-32l-52 156 116-88z"/><path fill="#252027" d="M-62 766L86 542l148 236z"/><path fill="#192035" d="M22 210L294-30-62-10z"/><path fill="#004e33" d="M66 422l196 140-112 60z"/><path fill="#6b7070" d="M370-62L-34 290l168 112z"/><path fill="#dec6df" d="M294 1086l-84-128 16-212z"/><path fill="#bf746a" d="M14 794l36 164 108-184z"/><path fill="#c8cfe2" d="M714 854H406l296-92z"/><path fill="#d7dcd0" d="M-58 342l188 32 80 140z"/><path fill="#00834e" d="M162 434l248 24-288-116z"/><path fill="#004130" d="M458 934l-48-32 192-60z"/><path fill="#004b27" d="M602 694l-164-56-208 84z"/><path fill="#d4cac4" d="M178 570l32 88 160-8z"/><path fill="#d6d4e6" d="M558 766l-4-68-240 36z"/><path fill="#00643b" d="M530 814l-312-32 80 76z"/><path fill="#ff9e76" d="M762 498l136 400V558z"/><path fill="#27151c" d="M790 206L562 66l288-92z"/></g></svg>