<svg xmlns="http://www.w3.org/2000/svg" width="228" height="278" viewBox="0 0 836 1024"><path fill="#9498a0" d="M0 0h836v1024H0z"/><g fill-opacity=".502"><path fill="#000716" d="M38 402L898 18-62-62z"/><path fill="#fff" d="M582 1086l72-772-716 80z"/><path fill="#fff" d="M58 990l604 96-100-460z"/><path fill="#002f55" d="M450 246l448 248L650-2z"/><path fill="#0f1215" d="M214 498L30 618l164 128z"/><path fill="#824724" d="M874 662l24-212-524 88z"/><path fill="#fff" d="M-34 506l336-228 280 216z"/><path fill="#b66423" d="M566 134L430 394 318 106z"/><path fill="#ede9f3" d="M110 782l468-236 320 176z"/><path fill="#1a5a87" d="M810 1086L594 846l304-116z"/><path fill="#bd5c1c" d="M-62 666l356 224L38 518z"/><path d="M578 138L334 90 482-62z"/><path fill="#eee7e8" d="M762 1042L-42 758l40 252z"/><path fill="#000e03" d="M214 302l-276-52L94 410z"/><path fill="#fff" d="M750 550L466 286l164 44z"/><path fill="#285672" d="M714-62L378 366 898 46z"/><path fill="#746b51" d="M594 558l-336 16 180-72z"/><path fill="#eff0ff" d="M234 494l452 532-400-28z"/><path fill="#894a2e" d="M110 794l204 20-84 76z"/><path fill="#d2a06e" d="M490 138l-152-8 28 212z"/><path fill="#5d1e03" d="M378 342l88 12 52-224z"/><path fill="#200100" d="M642 562l88 68 8-100z"/><path fill="#245a7d" d="M-62 350l468-228L30-62z"/><path fill="#fff" d="M538 522L330 286 126 386z"/><path fill="#001926" d="M186 634l20 112L54 634z"/><path fill="#788aa2" d="M490 630l152-196 72 92z"/><path fill="#28597f" d="M674-62l80 552-208-248z"/><path fill="#d4d6e7" d="M386 778L50 518l848 152z"/><path fill="#235273" d="M614 906l92-8 8 188z"/><path fill="#594954" d="M534 478l-32-72 60 8z"/><path fill="#37394b" d="M194 462l-12 180 48-140z"/><path fill="#f0a678" d="M226 818L-62 482l84 204z"/><path fill="#fffdff" d="M482 270l180 108-84 108z"/><path fill="#b45b3e" d="M774 662l-64-208 188-56z"/><path fill="#564275" d="M234 998l-16-36 68-20z"/><path fill="#e4e6fb" d="M354 886l180-328-352 116z"/><path fill="#dedcf2" d="M670 530l80-8-108-128z"/><path fill="#c2c1b1" d="M194 910L-22 674l40 412z"/><path d="M622 70L366 34l88 92z"/><path fill="#f5f4ff" d="M230 314l328 76L2 534z"/></g></svg>