<svg xmlns="http://www.w3.org/2000/svg" width="228" height="278" viewBox="0 0 836 1024"><path fill="#505466" d="M0 0h836v1024H0z"/><path fill="#f9c1d3" fill-opacity=".894" d="M438.729-62l-62.644 163.524-430.498 14.132L3.274-39.411z"/><path fill="#a1d098" fill-opacity=".894" d="M593.737 907.835l264.813 6.16-2.022 159.468-192.626-9.612z"/><path fill="#111523" fill-opacity=".592" d="M450.534 207.958L436.602 1086l-247.05-719.665-213.936 455.44z"/><path fill="#ddd9fb" fill-opacity=".784" d="M128.424 619.19l122.563 26.158-48.854 52.068-138.817 27.837z"/><path fill="#181c2e" fill-opacity=".753" d="M699.723 391.272L452.938 241.083l48.744 527.155 170.016-83.08z"/><path fill="#e2d9f5" fill-opacity=".478" d="M198.65 363.99L-62 788.283l269.395-571.305 163.964 12.081z"/><path fill="#ffc5aa" fill-opacity=".588" d="M782.74 700.497l-16.154-182.35-178.48 299.5-216.422-23.038z"/><path fill="#c66147" fill-opacity=".518" d="M640.265 57.968L514.051 320.221 223.696-62H628.82z"/><path fill="#003c81" fill-opacity=".816" d="M858.176 724.337L839.815-62 542.618 169.69l177.193 85.719z"/><path fill="#9cb1d9" fill-opacity=".655" d="M265.32 780.652l107.216 40.59 14.435 52.925-205.945 85.687z"/><path fill="#0b1511" fill-opacity=".639" d="M769.098 886.255l-409.593-18.283 234.793-65.816L817.78 689.118z"/><path fill="#011c38" fill-opacity=".843" d="M-59.152 781.38L-62 901.113l321.673-18.352-163.024-98.947z"/><path fill="#01071b" fill-opacity=".686" d="M6.316 134.145L-62 197.975l422.536-8.403 113.478-80.262z"/><path fill="#95f553" fill-opacity=".518" d="M28.154 906.158L-62 979.363l145.847 100.084 95.504-173.332z"/><path fill="#0b69f3" fill-opacity=".584" d="M165.883 837.313l45.865-129.45-133.744-8.902-33.938 64.508z"/><path fill="#011a3f" fill-opacity=".667" d="M310.194 1073.46l75.715-246.955 141.425 71.762 83.37 114.177z"/><path fill="#fea1c6" fill-opacity=".392" d="M752.454 416.095l-28.916-193.49-176.89 47.931-34.14-100.742z"/><path fill="#e0b59f" fill-opacity=".851" d="M410.812 1086h-264.75l50.46-100.2 63.785-.25z"/><path fill="#19141c" fill-opacity=".996" d="M275.46 495.592l39.105-110.122-113.485 6.618L62.101 642.463z"/><path fill="#4f5b69" fill-opacity=".996" d="M509.89 669.9l-136.395-14.976-168.243-51.288 410.701-3.659z"/><path fill="#ebffff" fill-opacity=".596" d="M810.306 950.882l87.694-.087-280.425 124.628 33.082-83.318z"/><path fill="#ff6f0b" fill-opacity=".329" d="M-62 705.68l184.025-196.514L88.51 649.018-62 882.906z"/><path fill="#ffdecf" fill-opacity=".545" d="M664.556 757.576l-227.951-1.337 136.854 46.098 136.097-131.889z"/><path fill="#f56b81" fill-opacity=".765" d="M628.912 123.303L459.156-62 287.168 78.435 613.294-62z"/><path fill="#68a151" fill-opacity=".675" d="M878.866 861.375l-250.743 43.584-17.474 106.156 279.955-103.25z"/><path fill="#001942" fill-opacity=".502" d="M292.495 639.945l44.913-185.456L167.329 806.98l485.366-100.714z"/><path fill="#c18a74" fill-opacity=".788" d="M766.661 546.276l-106.13 16.546 85.121 157.28-146.576 48.883z"/><path fill="#d0dafa" fill-opacity=".322" d="M41.339 420.159l213.56-228.1L-62 246.98l430.787 10.01z"/><path fill="#5b3922" fill-opacity=".722" d="M440.419 45.83l-49.002 12.251-35.713 256.947 123.43 69.041z"/><path fill="#3764c2" fill-opacity=".929" d="M250.413 608.238l-126.835 11.698 52.845-61.933 64.524-13.711z"/><path fill="#4070cb" fill-opacity=".933" d="M-62 733.21V522.342l158.685-11.663-29.06 38.738z"/><path fill="#efecff" fill-opacity=".639" d="M-62 57.389L75.08 84.412l222.358 8.072L296.08-62z"/><path fill="#b7c8f3" fill-opacity=".416" d="M600.063 466.96l-17.597 52.084-58.45-20.742 37.026-43.346z"/><path fill="#a8bac6" fill-opacity=".506" d="M520.134 570.336l-99.804-13.631-3.032 44.614 79.373 4.264z"/><path fill="#d4977b" fill-opacity=".639" d="M428.27 841.996l-1.142-88.45 37.677-13.884 71.725 58.147z"/><path fill="#e04863" fill-opacity=".455" d="M372.677 131.857l-419.428-20.594 335.634-17.038L382.825-62z"/><path fill="#000b0f" fill-opacity=".784" d="M118.88 986.589l100.012-36.638L105.746 1086l57.686-6.974z"/><path fill="#164687" fill-opacity=".541" d="M89.966 869.166L411.52 1086 209.432 846.807l90.717-121.21z"/><path fill="#000200" fill-opacity=".392" d="M377.36 512.709l314.905 172.264-55.529-272.902L585.95 532.79z"/><path fill="#884e73" fill-opacity=".604" d="M405.663 317.202l-427.83 143.87 328.085-183.415 85.988-42.623z"/><path fill="#00010b" fill-opacity=".322" d="M532.49 635.996l-562.221-222.1-2.795 115.303 130.319-12.73z"/><path fill="#0c3470" fill-opacity=".769" d="M654.064 276.342L741.82-62 577.994 159.856l.919 69.53z"/><path fill="#ff596e" fill-opacity=".569" d="M444.35 390.538l12.354 223.479 9.472-156.335-3.141-119.93z"/><path fill="#e2ecef" fill-opacity=".604" d="M300.022 499.762l-13.25-14.407 28.293 20.484 75.67-27.07z"/><path fill="#2963ca" fill-opacity=".345" d="M501.344 994.21l40.066-172.905 28.034-3.154 74.476 207.63z"/><path fill="#f2fbf7" fill-opacity=".286" d="M448.613 651.28l-171.145-64.086 52.139 70.978-29.725-95.741z"/><path fill="#fff7f6" fill-opacity=".506" d="M218.19 793.976l154.13 44.433-1.981 44.089-82.588-93.458z"/><path fill="#ffd190" fill-opacity=".349" d="M588.798 189.917L480.77 193.21l-108.716-68.507 137.46 138.35z"/><path fill="#30354f" fill-opacity=".729" d="M720.607 385.844l114.251 450.959-53.477-448.957L518.792 693.72z"/><path fill="#fbdecf" fill-opacity=".498" d="M688.573 229.59l35.35 23.58-7.949 54.818-66.377-12.271z"/><path fill="#000313" fill-opacity=".439" d="M130.5 771.603L-62 863.18l345.04-56.233-100.167 79.115z"/><path fill="#0d1827" fill-opacity=".996" d="M410 1051.527L421.035 915.8l-15.773-244.973-53.66 346.711z"/><path fill="#f8f4f3" fill-opacity=".749" d="M305.298 790.026l-68.467 65.57 7.034 21.64 51.764-58.95z"/><path fill="#9f256e" fill-opacity=".329" d="M504.168 211.844l245.497 138.892 6.934 228.647-88.725-149.547z"/><path fill="#ffb5dc" fill-opacity=".416" d="M242.59 607.195l-109.298 4.952-42.282 63.64 142.98-2.954z"/><path fill="#c9d5d4" fill-opacity=".631" d="M712.503 522.842l13.952-35.612 35.194 11.61-4.241 17.293z"/><path fill="#0b0e18" fill-opacity=".694" d="M458.125 637.872L221.849 527.391l83.063 87.716L153.27 373.072z"/><path fill="#314e84" fill-opacity=".82" d="M379.676 977.924l-79.976-8.44 25.984-161.14-45.744 23.543z"/><path fill="#523821" fill-opacity=".839" d="M464.761 176.076L383.868 48.24l70.615 82.813 143.155 48.35z"/><path fill="#15100f" fill-opacity=".51" d="M573.302 261.796l33.972 112.877-281.918-229.3 172.487 262.888z"/><path fill="#150b02" fill-opacity=".275" d="M374.996 701.596l375.368-110.32-58.103 66.465-165.51 118.04z"/><path fill="#7c8c9d" fill-opacity=".745" d="M24.692 269.154l97.341-15.241L367.415 211.2l-421.834-.503z"/><path fill="#fcfdff" fill-opacity=".42" d="M539.324 755.748l128.25-38.753-103.44 101.395-6.937-29.083z"/><path fill="#edbd9c" fill-opacity=".353" d="M573.037 104.9l-129.352 6.08 137.64 59.021L595.131-62z"/><path fill="#757c8c" fill-opacity=".678" d="M175.221 352.075l-59.875-77.302-65.454 141.263 45.736 109.346z"/><path fill="#023074" fill-opacity=".392" d="M442.427 477.653l11.71-108.024-115.357-64.794-88.885 178.73z"/><path fill="#004180" fill-opacity=".651" d="M898 59.696L704.14 328.258l64.527 47.127 9.865 258.642z"/><path fill="#eaf6ff" fill-opacity=".365" d="M242.145 312.38l81.93-61.59-99.78-23.846-28.656 122.413z"/><path fill="#0e0b01" fill-opacity=".698" d="M-62 915.876l185.232-45.633-128.376-89.165 77.991-87.982z"/><path fill="#231c00" fill-opacity=".337" d="M603.777 782.949L765.2 689.826l23.438 196.65-159.979 4.556z"/><path fill="#4a1e02" fill-opacity=".271" d="M217.585 207.447l-112.332 61.59-133.842 23.678L.173 433.162z"/><path fill="#006a76" fill-opacity=".231" d="M504.24-36.222l82.55 138.14-200.846-13.615 22.205-62.49z"/><path fill="#112749" fill-opacity=".749" d="M353.041 637.448L231.303 526.357l26.952 117.086 71.378-61.685z"/><path fill="#0e2f66" fill-opacity=".541" d="M451.23 561.812l16.716-30.008.365-172.053 145.312 39.583z"/><path fill="#0a0009" fill-opacity=".322" d="M802.55 462.285l-204.9 57.219 13.818-100.334-20.677-53.801z"/><path fill="#e0f7ff" fill-opacity=".698" d="M121.618 655l113.506.252-43.852 49.222L86.058 682.58z"/><path fill="#fdede4" fill-opacity=".322" d="M335.626 802.684l-20.261 13.421 47.947 82.86 20.62-58.471z"/><path fill="#1e1f35" fill-opacity=".698" d="M347.125 795.337l-.96 52.385 59.877-45.818 111.377-213.96z"/><path fill="#c59686" fill-opacity=".761" d="M608.231 781.958l124.677-87.825 26.378-100.561-162.504 149.285z"/><path fill="#3995fe" fill-opacity=".247" d="M211.666 670.641l-62.605 31.084-22.087 196.807 19.494 40.374z"/><path fill="#0d2f52" fill-opacity=".694" d="M409.37 199.654l-43.808 66.935-22.41-60.025-299.666-53.78z"/><path fill="#fffff5" fill-opacity=".376" d="M150.147 384.013l-23.749 93.732 25.365-25.861 21.422-95.826z"/><path fill="#3f5b91" fill-opacity=".937" d="M175.566 716.024l116.496 63.292 34.922 72.965-16.911-91.231z"/><path fill="#4c77c5" fill-opacity=".427" d="M229.463 797.503l-4.718 112.653 128.166 36.262-183.226 10.992z"/><path fill="#e3b8a6" fill-opacity=".718" d="M603.056 1015.646l-345.31 67.91 263.016-17.392 238.679 3.292z"/><path fill="#404a4b" fill-opacity=".796" d="M799.634 887.467l97.265-350.042-103.24 36.029-22.792 217.858z"/><path fill="#44153b" fill-opacity=".576" d="M166.977 422.772l10.617 8.726 139.812-78.611-157.484 20.044z"/><path fill="#ff7490" fill-opacity=".6" d="M735.947 439.672l-16.192-85.604 42.265 28.378-5.917 3.46z"/><path fill="#1e4383" fill-opacity=".878" d="M898-33.6L861.611 83.435l-216.188 36.88L643.846-62z"/><path fill="#f5fef1" fill-opacity=".263" d="M447.695 617.903l-129.335-7.574 104.058 23.473 11.512 29.724z"/><path fill="#db8e7e" fill-opacity=".514" d="M495.094 830.282l-63.478-23.78 23.284-109.61-26.517-8.752z"/><path fill="#e1f7f8" fill-opacity=".259" d="M481.186 595.54l26.913-51.514-9.465 129.845 23.435-30.519z"/><path fill="#0a1b3d" fill-opacity=".612" d="M573.298 244.33l14.081-129.87 44.463 6.815 3.428 12.04z"/><path fill="#051122" fill-opacity=".455" d="M337.4 884.949l241.481 64.86-151.28 21.256-112.282-69.386z"/><path fill="#d59ab3" fill-opacity=".569" d="M281.595 105.897l43.83 4.323-158.75 1.443 64.631-85.56z"/><path fill="#0e1b2a" fill-opacity=".51" d="M441.008 665.637l29.416-72.614 22.669 167.244-54.464-235.582z"/><path fill="#5453b6" fill-opacity=".447" d="M253.419 493.118l-52.065 74.449-93.363 66.973 132.92-5.566z"/><path fill="#f7faff" fill-opacity=".263" d="M192.263 872.903l108.545-27.947-56.497 81.066 110.96-50.777z"/><path fill="#321f08" fill-opacity=".616" d="M172.968 531.596l44.356-68.215L43.094 751.1l37.433-167.575z"/><path fill="#122138" fill-opacity=".722" d="M398.414 913.415l27.937-310.774-59.656 328.45-75.813-67.589z"/><path fill="#f79250" fill-opacity=".192" d="M434.864 346.93L355.014-7.567l38.057 232.589-58.722 88.073z"/><path fill="#060b0f" fill-opacity=".714" d="M350.752 604.716l148.946 22.438-80.065-21.296L248.09 473.43z"/><path fill="#2b6bd5" fill-opacity=".522" d="M14.071 789.194l53.16 3.093 160.222-94.073-151.548 12.36z"/><path fill="#001335" fill-opacity=".384" d="M275.964 949.847l68.29 20.72-189.99 25.888-18.782-29.338z"/><path fill="#152339" fill-opacity=".925" d="M416.092 751.83l-113.453-31.18 245.915 40.087 57.38-147.422z"/><path fill="#0d2239" fill-opacity=".659" d="M164.58 843.154l-1.488 118.849 34.528-109.089 58.224-209.584z"/><path fill="#793f78" fill-opacity=".859" d="M591.137 251.718l-25.915 6.218 54.34 124.152 83.92-43.27z"/><path fill="#c68270" fill-opacity=".533" d="M33.15 663.87l-56.822 175.99 22.79-222.335 76.838-33.72z"/><path fill="#e5ffff" fill-opacity=".184" d="M368.764 682.17l2.486-64.314 147.875-52.787-98.43-.235z"/><path fill="#1c2f53" fill-opacity=".533" d="M466.468 958.464l84.494-72.904-116.73-79.269-54.93 52.597z"/><path fill="#f5ffff" fill-opacity=".29" d="M380.084 480.295l-77.179 19.125 14.626-47.723-34.246 67.776z"/><path fill="#00132e" fill-opacity=".376" d="M446.006 208.501l-231.99-80.2-23.728 103.604L-62 105.499z"/><path fill="#39394f" fill-opacity=".361" d="M5.752 241.96l49.603 29.921 99.022 125.143-2.21 43.397z"/><path fill="#fce3af" fill-opacity=".243" d="M558.421 159.536l-95.386 57.869 107.336 3.946-94.708-136.517z"/><path fill="#000314" fill-opacity=".349" d="M404.661 31.29L355.78 205.696l-126.138-88.76 205.631 14.494z"/><path fill="#3e2103" fill-opacity=".545" d="M392.704 262.057L551 285.569l-51.873 62.039-110.36-51.299z"/><path fill="#6199fc" fill-opacity=".275" d="M581.938 859.449L671.789 1086h35.08l-158.42-177.468z"/><path fill="#542d54" fill-opacity=".816" d="M795.143 555.723l-133.979-59.29 79.065-71.904-75.84 128.986z"/><path fill="#f7fef3" fill-opacity=".404" d="M327.788 578.086l-17.939 46.899-.225 5.195-6.739-64.19z"/><path fill="#fff7dc" fill-opacity=".176" d="M127.52 417.938l48.126 19.136-67.645 27.41-80.577-150.132z"/></svg>