<svg xmlns="http://www.w3.org/2000/svg" width="228" height="278" viewBox="0 0 836 1024"><path fill="#949d8c" d="M0 0h836v1024H0z"/><path fill="#c5c9db" fill-opacity=".765" d="M470.359 298.491L-62 300.514-19.357-62h192.885z"/><path fill="#6f874b" fill-opacity=".961" d="M548.583 758.325l-103.93 118.51-77.43-238.828L583.107-62z"/><path fill="#37a209" fill-opacity=".588" d="M528.742 1086L303.526 829.083l4.837-374.545-116.9 560.31z"/><path fill="#3c2b22" fill-opacity=".533" d="M-35.258 575.737l266.673-.17-13.544 182.686L-62 834.537z"/><path fill="#685551" fill-opacity=".922" d="M456.688-5.64L898 99.797 626.014 146.77l-54.55 202.074z"/><path fill="#adfe8c" fill-opacity=".631" d="M317.749 635.762l-56.041-218.788 97.147-146.745L523.68 419.867z"/><path fill="#8ea5ff" fill-opacity=".325" d="M804.07 534.915L898 356.037 709.815-62 537.619 528.588z"/><path fill="#c8c9e8" fill-opacity=".612" d="M-49.535 530.6L-62 397.932l309.295 31.984-103.028 154.759z"/><path fill="#e9bbcc" fill-opacity=".345" d="M839.835 1084.595l-334.973-6.946-63.219-165.821 251.721-318.722z"/><path fill="#f8e3dc" fill-opacity=".482" d="M-62 849.976l176.759 3.535L192.509 1086H-10.158z"/><path fill="#553d2c" fill-opacity=".345" d="M655.63 424.44L440.008 340.6l-5.235-84.12 399.715 111.098z"/><path fill="#0029f0" fill-opacity=".125" d="M130.075 520.34L-62 203.87l377.01-32.718 97.116 71.911z"/><path fill="#d5f6c7" fill-opacity=".737" d="M271.475 758.111l-38.511-222.495-9.108 286.639-17.254-43.927z"/><path fill="#e1d8d5" fill-opacity=".573" d="M-62 24.362l713.309-49.586-400.75 80.57-91.691 219.37z"/><path fill="#2a3341" fill-opacity=".404" d="M836.548 48.468L898 125.26l-204.997 17.091-278.892-109.01z"/><path fill="#fc9460" fill-opacity=".392" d="M301.103 812.1l199.46 263.522-104.26-401.785-78.836 12.255z"/><path fill="#6e540f" fill-opacity=".667" d="M285.483 403.004L235.858 525.42l-38.201 78.053-60.677-3.804z"/><path fill="#1edc00" fill-opacity=".188" d="M255.565 654.579L228.97 537.335l275.606-133.449 1.873 308.77z"/><path fill="#b37257" fill-opacity=".537" d="M522.522 283.214l-88.586 13.925L405.012 50.8l235.045 59.986z"/><path fill="#aac2f3" fill-opacity=".455" d="M796.89 140.716l-177.277 57.11-36.38 136.58L898 269.72z"/><path fill="#72a0ff" fill-opacity=".498" d="M898 16.383L665.388 68.434l-90.505-46.253L478.874-62z"/><path fill="#170908" fill-opacity=".322" d="M436.024 663.2l65.746-68.42 61.483 59.104 11.168 129.812z"/><path fill="#403d58" fill-opacity=".51" d="M416.223 95.958l12.12-39.24-147.335 3.108-15.096 53.367z"/><path fill="#87d85f" fill-opacity=".635" d="M214.33 1086l-81.117-117.992 91.263-226.382 28.022 59.315z"/><path fill="#e9e4f6" fill-opacity=".271" d="M626.232 449.325L615.495 1086l-69.063-742.464 15.235-26.493z"/><path fill="#d0e7c8" fill-opacity=".992" d="M393.722 446.545l65.836-24.458 36.782-10.383-52.818-54.372z"/><path fill="#22600d" fill-opacity=".765" d="M183.305 896.602l42.646-20.31 69.815 2.881-144.34 47.41z"/><path fill="#979882" fill-opacity=".745" d="M381.966 683.103l206.3 72.376-52.685 148.146-124.145-173.268z"/><path fill="#233200" fill-opacity=".216" d="M485.422 1004.323l-71.096-90.284-81.77-83.38-83.547 162.651z"/><path fill="#32312c" fill-opacity=".596" d="M196.32 665.56l-69.025 45.91-163.236.723 42.883-84.658z"/><path fill="#696568" fill-opacity=".694" d="M240.989 339.84l47.126 32-71.737 69.423-113.526-79.593z"/><path fill="#7092e1" fill-opacity=".498" d="M272.383 31.485L565.286-62 416.991 64.537l-154.118-.403z"/><path fill="#d2e6ff" fill-opacity=".302" d="M898 329.456L502.521 567.05l97.3-142.076 185.31 95.283z"/><path fill="#134e00" fill-opacity=".565" d="M460.92 868.649l20.936-24.146-68.758-107.766-2.149 53.993z"/><path fill="#b4e69c" fill-opacity=".773" d="M350.504 269.198L222.22 562.994 460.06 302.32l-46.178-48.6z"/><path fill="#361806" fill-opacity=".361" d="M533.624-16.747l120.172 127.11 69.037 2.78-296.502-58.58z"/><path fill="#827c73" fill-opacity=".757" d="M188.118 826.847L-62 814.294v-91.877l290.917 12.436z"/><path fill="#e9d3c0" fill-opacity=".424" d="M402.067 205.633L95.357-62-62 171.474l508.998-56.765z"/><path fill="#c08f00" fill-opacity=".506" d="M565.055 516.834l-72.223 65.498-19.116 65.734 49.953-17.689z"/><path fill="#2f8f05" fill-opacity=".278" d="M246.588 630.42l61.302 134.113 3.611-309.089-46.25 16.844z"/><path fill="#99e27a" fill-opacity=".675" d="M314.39 516.92l118.337 165.1-119.38-13.443-13.304 5.66z"/><path fill="#ffd4a8" fill-opacity=".404" d="M306.557 346.564L152.574 589.122l-209.157-79.76 203.853 19.643z"/><path fill="#f7d2be" fill-opacity=".455" d="M309.703 849.273l54.227-64.915-18.096-83.95-34.21-25.196z"/><path fill="#2d2711" fill-opacity=".439" d="M530.508 135.917l-35.722 24.572 43.6 23.429 103.267-28.146z"/><path fill="#6a6482" fill-opacity=".384" d="M898 1015.64L663.346 910.193l158.639-18.481-30.564-373.3z"/><path fill="#ebf9c6" fill-opacity=".231" d="M271.866 959.872L136.15 977.147l93.51-174.72-189.965 39.345z"/><path fill="#234a00" fill-opacity=".345" d="M456.047 253.686l-9.155 98.727 97.61 52.745-11.645-88.926z"/><path fill="#3c7717" fill-opacity=".824" d="M198.776 967.699l-48.909 13.287 234.138 15.541 18.532-18.783z"/><path fill="#c5b9b6" fill-opacity=".439" d="M433.024 1086l327.573-386.972 56.344 178.765-97.313 18.473z"/><path fill="#f5f5fb" fill-opacity=".541" d="M372.296 303.476l-39.077 3.151-7.507 40.446 49.96.94z"/><path fill="#887483" fill-opacity=".333" d="M898 599.228L658.545 494.194l-57.161 59.794 95.24 230.565z"/><path fill="#93b1d9" fill-opacity=".373" d="M-31.917 147.493l473.89 54.788-103.637 115.938-319.297 4.689z"/><path fill="#3c7a28" fill-opacity=".753" d="M451.65 568.658l113.212-86.901-5.51-37.073-66.368 131.087z"/><path fill="#86cc69" fill-opacity=".596" d="M456.727 388.832l-78.684-76.057 53.855 114.228-174.034-60.583z"/><path fill="#7b7f8e" fill-opacity=".443" d="M898 337.205l-340.731 85.009-1.709-121.896 118.51-4.856z"/><path fill="#bdeda5" fill-opacity=".718" d="M256.144 823.925l-52.23 12.085-49.667 60.833 63.846-130.672z"/><path fill="#78361d" fill-opacity=".357" d="M468.529 285.338l158.12-86.567-37.019 95.549-80.78 79.416z"/><path fill="#ba998f" fill-opacity=".741" d="M558.733 212.576l26.443-53.337 36.08 141.04-29.74-90.401z"/><path fill="#4b9933" fill-opacity=".506" d="M226.124 700.702l59.588 51.205 34.855 170.74-12.895-227.57z"/><path fill="#f7d5be" fill-opacity=".224" d="M515.447 48.088l-5.554 89.02 90.967 4.567L416.6 81.9z"/><path fill="#f0f9fd" fill-opacity=".349" d="M539.036 491.499l-79.14-125.73-51.131 32.527 112.363 33.048z"/><path fill="#255f07" fill-opacity=".549" d="M475.431 705.96l-53.069 12.618 30.801-44.966 93.373-69.3z"/><path fill="#754c07" fill-opacity=".251" d="M212.248 606.866l-91.757-6.632L234.9 446.8l31.438-5.935z"/><path fill="#fdfef3" fill-opacity=".4" d="M250.193 492.22l33.943-69.119-56.2 135.454 9.518 158.603z"/><path fill="#cc9f85" fill-opacity=".8" d="M321.357 691.611l81.205 92.7L594.107 1086H517.52z"/><path fill="#9bafd2" fill-opacity=".827" d="M-62 510.323L90.594 402.44l73.748 7.034 20.74 80.68z"/><path fill="#d9fcb8" fill-opacity=".369" d="M417.086 458.824l-141.95-17.68 100.92-110.3-66.139 258.311z"/><path fill="#6f6874" fill-opacity=".51" d="M553.895 834.884l-57.963-115.987 12.324-35.335 62.595 43.774z"/><path fill="#a3f782" fill-opacity=".373" d="M326.007 955.37l-154.325-43.476L181.178 1086l-48.41-107.731z"/><path fill="#115300" fill-opacity=".388" d="M256.42 857.023l96.56-2.041-111.41-16.477-83.407 51.64z"/><path fill="#f2ebdf" fill-opacity=".341" d="M169.127 498.481L44.182 516.965l86.016 58.634 229.283-275.687z"/><path fill="#63413b" fill-opacity=".149" d="M411.528 53.11l-151.836-7.88-17.129 74.111 190.82 12.385z"/><path fill="#001413" fill-opacity=".102" d="M829.312 393.681l-65.515-18.595-270.96-9.04 163.01 66.144z"/><path fill="#fffda2" fill-opacity=".255" d="M619.21 525.179l-68.167-35.821-24.758 52.589-50.12 55.03z"/><path fill="#2ace23" fill-opacity=".235" d="M560.453 528.453L474.095 311.41l-113.166 38.753 203.227 26.801z"/><path fill="#75bf52" fill-opacity=".42" d="M530.69 416.64L414.081 583.701l58.857 235.035-138.863-263.012z"/><path fill="#c7d6f1" fill-opacity=".251" d="M798.449 169.236l-44.223 157.756-94.823-81.25-173.95 160.475z"/><path fill="#44822a" fill-opacity=".871" d="M269.298 663.87l38.855-115.851-15.538 148.085 38.449-19.742z"/><path fill="#c4b8af" fill-opacity=".42" d="M470.939 845.674l87.693 213.015 128.159-81.548-196.127-192.047z"/><path fill="#b4a59d" fill-opacity=".62" d="M187.679 822.93L-62 842.66l204.786 98.286-6.552.247z"/><path fill="#0e5301" fill-opacity=".384" d="M131.91 945.78l93.462-55.944-48.002 16.14-10.718-9.277z"/><path fill="#6b86b9" fill-opacity=".702" d="M602.107 47.927L850.874 58.91 817.41-16.156 898 21.086z"/><path fill="#817c84" fill-opacity=".6" d="M-7.466 357.881l54.592 61.102 272.763-82.826L-62 327.48z"/><path fill="#fffdff" fill-opacity=".427" d="M256.64 619.779l.759 37.024-25.89-46.6 28.259 163.594z"/><path fill="#beffa7" fill-opacity=".271" d="M287.617 872.414l-87.08 5.652 91.518-28.509 38.784 31.762z"/><path fill="#00346a" fill-opacity=".075" d="M292.666 192.89l-16.235-35.832-64.632 27.42-54.375 394.77z"/><path fill="#21650f" fill-opacity=".341" d="M495.223 735.316l-32.815-150.419-33.971-3.828-41.231-45.913z"/><path fill="#b1bacf" fill-opacity=".533" d="M410.909 164.304L437.76 244.5l-226.355 45.546L360.13 141.221z"/><path fill="#c0b5a7" fill-opacity=".592" d="M37.516 2.282L-62-62l12.877 122.03 207.354-28.046z"/><path fill="#91ca54" fill-opacity=".416" d="M476.798 1022.859L347.715 878.58 434.2 999.97l-283.59.235z"/><path fill="#cbad97" fill-opacity=".278" d="M643.046 103.36L189.34 97.688l116.765 63.933 146.6-94.27z"/><path fill="#4c5860" fill-opacity=".365" d="M625.411 169.592l226.621-80.36 35.324-20.792-268.218-21.41z"/><path fill="#d7f8cd" fill-opacity=".333" d="M482.111 747.866l2.788-35.65-64.594 14.728 84.932 17.459z"/><path fill="#0f5900" fill-opacity=".392" d="M481.483 777.654l-29.96 29.376-27.25-62.076 40.19 135.194z"/><path fill="#2f3900" fill-opacity=".494" d="M513.445 597.607l3.49-19.138-56.014 70.962-25.76 60.978z"/><path fill="#270d58" fill-opacity=".263" d="M549.047 562.763l13.001 163.097-53.646-31.875 29.66-80.159z"/><path fill="#ffa589" fill-opacity=".196" d="M472.788 155.146l-71.576 72.249 205.86-44.678 20.616 58.33z"/><path fill="#31701c" fill-opacity=".361" d="M462.391 436.443l-55.45 14.226 59-32.232 28.849 12.476z"/><path fill="#7ccb62" fill-opacity=".569" d="M221.802 783.23l103.776 27.713L130.52 853.06l184.406-12.058z"/><path fill="#a57658" fill-opacity=".596" d="M405.253 117.077l42.353 144.302 150.974 46.408-82.517-.215z"/><path fill="#e6dfda" fill-opacity=".424" d="M196.74 124.946L-62 93.506 502.441-62 239.744 55.218z"/><path fill="#3a8426" fill-opacity=".71" d="M241.817 769.366l-22.922 12.48 98.957 10.094-24.755-7.15z"/><path fill="#c17b5b" fill-opacity=".31" d="M445.058 706.417l-112.04 167.26 153.191 163.73-144.805-371.554z"/><path fill="#093505" fill-opacity=".565" d="M271.628 838.078l48.95 20.662-47.009-2-25.221-1.075z"/><path fill="#cfc6c2" fill-opacity=".624" d="M-2.756 1050.483l151.522-56.027-10.513-79.31L-62 929.537z"/><path fill="#57585c" fill-opacity=".388" d="M274.676 388.086l-72.975 65.83-10.128-63.749 109.532-27.232z"/><path fill="#134800" fill-opacity=".337" d="M367.243 918.436l-18.138-26.698-107.17 39.432 182.756-13.434z"/><path fill="#72bf54" fill-opacity=".659" d="M252.292 729.184l-3.772 6.704-17.364-45.378 79.935 51.865z"/><path fill="#8fabda" fill-opacity=".69" d="M515.085-.102L898-6.522 703.925 30.243 528.255 3.727z"/><path fill="#80aa4e" fill-opacity=".616" d="M223.364 479.307l81.332-79.83 13.393-.137 17.976-52.948z"/><path fill="#a49f9f" fill-opacity=".341" d="M721.967 818.357l45.514-293.877-220.767 204.818 86.573 110.794z"/><path fill="#41322e" fill-opacity=".133" d="M144.743 844.887L108.04 581.672 49.118 534.69l25.609 291.022z"/><path fill="#f6f5fb" fill-opacity=".247" d="M251.6 773.548l41.42-22.987-71.807-44.365 3.248 28.356z"/><path fill="#46362d" fill-opacity=".686" d="M445.43 35.943L611.222 67l-36.336-52.51-107.685 5.7z"/><path fill="#5b5d5f" fill-opacity=".757" d="M276.074 86.01l143.97 19.609L431.23 40.54l1.269 30.25z"/><path fill="#9eb8ff" fill-opacity=".231" d="M677.23 442.57l98.617-47.499 49.82 134.559-155.255-42.527z"/><path fill="#d6d1cd" fill-opacity=".275" d="M178.838 252.242l84.637-140.369-34.454-29.627L10.893 291.48z"/><path fill="#1d0a00" fill-opacity=".325" d="M520.288 246.697l62.603 36.605-18.217-10.258 48.057-14.636z"/><path fill="#351a00" fill-opacity=".239" d="M622.19 168.743l-1.407 55.81-55.814-92.222-62.737 37.279z"/><path fill="#7f97ca" fill-opacity=".271" d="M633.259 152.983l-57.682 201.782 103.422-26.828 21.583-189.354z"/></svg>