<svg xmlns="http://www.w3.org/2000/svg" width="228" height="278" viewBox="0 0 836 1024"><path fill="#63433f" d="M0 0h836v1024H0z"/><g fill-opacity=".502"><path fill="#460000" d="M-6 470l780-32-332 648z"/><path fill="#b8d5ab" d="M898 398L786 110 394 326z"/><path fill="#bac2bc" d="M610 662l204 424 80-568z"/><path fill="#360000" d="M186 630l612 336-500 120z"/><path fill="#f1e2cf" d="M298 398l88 88 132-148z"/><path fill="#f5ffff" d="M42 694l168 28-172-92z"/><path fill="#7390a0" d="M322 362L42 330 186 98z"/><path fill="#a10000" d="M514 302l200 136-372 200z"/><path fill="#ccac79" d="M442 90L286 26l160 296z"/><path fill="#0f314a" d="M818-58l80 236L270 46z"/><path fill="#900000" d="M514 662L90 474l152-136z"/><path fill="#9f9f8d" d="M554 698l-276 20 276-96z"/><path fill="#2658a1" d="M30 1086l-88-412 232 332z"/><path fill="#052625" d="M706 434l112 232 80-236z"/><path fill="#8d9d89" d="M898 190l-376-72-60 228z"/><path d="M58 642l60-192 156 236z"/><path fill="#473a07" d="M210 166l256 180-84 96z"/><path fill="#998061" d="M86 790l152 272-32-408z"/><path fill="#0f2c2a" d="M-62 390l232-284L50-62z"/><path fill="#fff" d="M650 666l136-44-16-52z"/><path fill="#a4937e" d="M642 802l236-228-124 492z"/><path fill="#570000" d="M710 1086H518l64-624z"/><path fill="#210000" d="M570 666l188-88-128-184z"/><path fill="#e6f6ff" d="M218 578l72-20-16 36z"/><path fill="#1d0000" d="M778 622l-64 88-16-48z"/><path fill="#6e8979" d="M18 790l-80-368 140 72z"/><path fill="#1a4099" d="M602 22l-64 172-96-244z"/><path fill="#eeb83e" d="M518 514l28 96 20-120z"/><path fill="#fff" d="M310 410l80 72 28-32z"/><path fill="#4f4e6d" d="M898 978L734 858l-52 228z"/><path fill="#fff" d="M406 450l76-148 4 68z"/><path fill="#5f5e51" d="M594 618L282 742l-12-88z"/><path fill="#4a6563" d="M430-58L34 318 194-58z"/><path fill="#400" d="M630 646l-260 440-180-208z"/><path fill="#c27c4f" d="M786 610l-4 140-184 108z"/><path fill="#e0f3ff" d="M286 326l76 128-68-64z"/><path fill="#fff" d="M554 642l-40 28 40 20z"/><path fill="#8d0414" d="M502 322L334 622l348-236z"/><path d="M74 742l-36-56 92 32z"/><path fill="#151000" d="M258 54l56-12-64 184z"/></g></svg>