<svg xmlns="http://www.w3.org/2000/svg" width="228" height="278" viewBox="0 0 836 1024"><path fill="#6f6f71" d="M0 0h836v1024H0z"/><g fill-opacity=".502"><path fill="#fff" d="M214 1086h612L286 570z"/><path fill="#090200" d="M98 530l152 556-312-208z"/><path fill="#001514" d="M574 810l324-364-80 608z"/><path d="M318 646l24 156 84-316z"/><path fill="#fff" d="M714 1086L574 798l-444-16zM310 646l32-472 52 228z"/><path fill="#fff" d="M170 482l172-272-204 132zm328 0l-36-188-84 432z"/><path fill="#321206" d="M578 86L382 470l28-532z"/><path fill="#000003" d="M194 454l140-164-80 456z"/><path fill="#fff" d="M290 1086l120-164-248-112zm396-560l44-84-104-176zm-116-36l16-276-72 8zm-80-160l-12 104-112-228z"/><path fill="#383e40" d="M730 554L406 806l108-508z"/><path fill="#3d3e3e" d="M534-62L114 386-62 6z"/><path fill="#38342a" d="M70 1086L-62 342l276 176z"/><path fill="#1f1818" d="M662 982h236L546 702z"/><path fill="#d2d4dc" d="M278 450l-84 112 4 168z"/><path d="M594 454l76 12-76-264z"/><path fill="#d1d1de" d="M594 442l-36-156-56 352z"/><path d="M314 766l60 8-20-216z"/><path fill="#fff" d="M378 202l8 196-60-88zm-24 868L250 814l52-280z"/><path d="M394 938l12 112 40-28z"/><path fill="#fff" d="M598 682l80-44-32 92z"/><path fill="#f5f5ff" d="M470 654l-28 308 184 124z"/><path fill="#475352" d="M670 286L870-62l-44 944z"/><path d="M502 566l-64 208-32-72z"/><path fill="#0e0e14" d="M278 262l-76 96-40-12z"/><path fill="#fff" d="M126 470l148-108 16-124zm580-20l-76 72 96-24z"/><path fill="#1a2d31" d="M6 1086l172-92-4-508z"/><path fill="#fff" d="M34 1030l-8-112-88 72z"/><path fill="#dedefb" d="M382 834l92-328-100 164z"/><path d="M546 478l-64-8 52-196z"/><path fill="#fff" d="M174 798l36-104 24 264z"/><path fill="#010000" d="M410 262l132-108-48 148z"/><path fill="#eff1ff" d="M294 542l28 128 56-280z"/><path fill="#63636a" d="M290 934l-60-8V746z"/></g></svg>