<svg xmlns="http://www.w3.org/2000/svg" width="228" height="278" viewBox="0 0 836 1024"><path fill="#885f59" d="M0 0h836v1024H0z"/><path fill="#e5e8ef" fill-opacity=".682" d="M782.834 843.437L898 1025.63l-883.449 41.28-20.7-148.376z"/><path fill="#670f15" fill-opacity=".682" d="M305.998 922.198L463.607-62l260.385 792.643-217.3 174.5z"/><path fill="#d83d3d" fill-opacity=".98" d="M699.345 392.147L248.549 513.46 108.641 388.664l526.057-99.123z"/><path fill="#d3b086" fill-opacity=".82" d="M885.183 303.356l-120.56 578.11-65.213 160.71 41.428-670.552z"/><path fill="#4c3332" fill-opacity=".678" d="M851.074 315.63L626.824-62-62-20.593l790.416 344.016z"/><path fill="#c60c0f" fill-opacity=".851" d="M312.356 796.66L293.34 656.494l262.042-69.938 4.44 140.264z"/><path fill="#020f11" fill-opacity=".529" d="M733.606 380.766L486.886 826.99l218.233-23.86-261.944-331.41z"/><path fill="#f0f8fc" fill-opacity=".553" d="M593.32 816.825l-186.967 262.216L623.009 968.17l122.515-178.783z"/><path fill="#aebeab" fill-opacity=".702" d="M244.347 619.445l260.707-60.232-32.863-47.189-187.363 34.704z"/><path fill="#004a56" fill-opacity=".373" d="M-30.634 806.078l341.228-346.956-220.952 600.03L318.899 1086z"/><path fill="#ffeefe" fill-opacity=".408" d="M657.191 344.304l81.1-127.592-183.36 89.184 100.205 113.905z"/><path fill="#350900" fill-opacity=".576" d="M463.733 503.504l-194.798 48.94-83.947 113.226-17.045-208.658z"/><path fill="#7efbff" fill-opacity=".263" d="M77.39 162.654L-36.956 431.51l204.144 17.67 21.091-162.586z"/><path fill="#fca762" fill-opacity=".471" d="M434.215 219.726l-36.534 82.146-265.217-172.034 200.18-6.779z"/><path fill="#000619" fill-opacity=".392" d="M-62 298.393l415.475-353.25L113.032 90.89 9.146-11.287z"/><path fill="#eafef6" fill-opacity=".573" d="M422.85 366.728l-34.657 42.149 36.472 47.987 40.572-74.737z"/><path fill="#ebfbfc" fill-opacity=".455" d="M139.966 1086l411.318-84.757-224.96-110.4 17.696-92.32z"/><path fill="#2c2323" fill-opacity=".988" d="M606.081 573.976l-341.854 89.326-30.887-32.574 342.508-88.733z"/><path fill="#021e24" fill-opacity=".475" d="M443.475 872.744l229.964-75.2-81.401-60.711-359.615 30.561z"/><path fill="#7a2f2f" fill-opacity=".984" d="M494.112-17.365l309.084 7.083 73.724 68.304L455.896 162.52z"/><path fill="#001116" fill-opacity=".416" d="M184.314 184.292l-88.936 33.72 184.319 77.18-99.27 113.383z"/><path fill="#d3ae3c" fill-opacity=".69" d="M142.383 530.166l-61.825-96.187 93.948-78.615-20.945 327.464z"/><path fill="#00151a" fill-opacity=".42" d="M612.857 474.53L478.793 613.994l80.088-438.748-127.306 70.972z"/><path fill="#fb2735" fill-opacity=".604" d="M551.936 838.231l-264.451 85.421 177.635-9.158 90.214-29.059z"/><path fill="#ffbd68" fill-opacity=".4" d="M215.123 635.778L-62 682.217V666.24l180.806-103.368z"/><path fill="#dcee9d" fill-opacity=".353" d="M802.81 228.327l-80.438-25.535 8.317-92.418 95.295-25.312z"/><path fill="#010f0d" fill-opacity=".588" d="M898 281.656l-43.078-54.059-118.852 19.055-54.691 90.553z"/><path fill="#01404c" fill-opacity=".255" d="M-31.337 800.2L-62 890.081l370.225 20.15L676.34 801.338z"/><path fill="#055aa5" fill-opacity=".592" d="M705.388 1086l59.403-134.611 11.537 24.605 14.592 38.82z"/><path fill="#f60c16" fill-opacity=".424" d="M428.69 238.467L151.566 457.629l131.248 48.064 65.852-28.451z"/><path fill="#bfd1fc" fill-opacity=".227" d="M315.366 942.804l-77.75-307.714-136.688 91.592 253.944 101.805z"/><path fill="#c09e57" fill-opacity=".757" d="M783.816 319.597L666.297 532.45l42.16 135.81 101.428-334.832z"/><path fill="#78756e" fill-opacity=".843" d="M761.297 897.966l76.993-387.794 3.066 388.724-55.817 13.343z"/><path fill="#128dd2" fill-opacity=".733" d="M138.153 955.112l48.449 8.165 3.144 63.318-86.214 14.295z"/><path fill="#7a1a1c" fill-opacity=".569" d="M-62 628.882L62.913 461.546l87.63 67.87-58.72 59.1z"/><path fill="#f3000a" fill-opacity=".329" d="M642.396 696.106l20.6 106.115 72.118 27.493L573.467 427.41z"/><path fill="#e9efe5" fill-opacity=".592" d="M278.587 463.67l-27.967-18.835 3.9-23.878 18.344-13.222z"/><path fill="#c11219" fill-opacity=".89" d="M399.29 322.238l163.598 51.288 107.503 32.683-69.837 32.564z"/><path fill="#2a1c00" fill-opacity=".42" d="M540.125 295.696l-280.86 66.774 64.877-127.087 26.268 74.86z"/><path fill="#32363e" fill-opacity=".898" d="M434.686 256.99l-60.11 82.887 282.524-85.7-212.757-55.239z"/><path fill="#64748f" fill-opacity=".514" d="M-62 340.809L241.723-62 31.636 19.23l104.119 160.084z"/><path fill="#ffbdb6" fill-opacity=".643" d="M743.334 392.736L642.516 277.305l-20.622 3.89 52.243 73.612z"/><path fill="#c7ebea" fill-opacity=".447" d="M62.68 945.705L-62 909.797l261.033-19.861L45.807 1086z"/><path fill="#151516" fill-opacity=".753" d="M577.41 752.883L525.816 370.88l55.073 93.58 68.386 264.44z"/><path fill="#2a2a1e" fill-opacity=".553" d="M293.523 146.562l-35.109 3.39L135.008-62h244.336z"/><path fill="#e6e8e1" fill-opacity=".549" d="M632.206 405.027l26.472-18.417-67.807-97.75-15.49 19.702z"/><path fill="#f41823" fill-opacity=".624" d="M665.077 337.403l-17.21 42.79-41.294-81.848-20.442-36.831z"/><path fill="#bf4800" fill-opacity=".29" d="M898 943.585L544.584 1086l76.906-114.83 181.584 50.537z"/><path fill="#1e191a" fill-opacity=".718" d="M631.105 714.484L366.007 861.267l-79.231-165.099-3.136 121.595z"/><path fill="#aef47f" fill-opacity=".22" d="M638.974 268.83L565.837 29.68l87.83-88.889-92.139 293.73z"/><path fill="#d71416" fill-opacity=".635" d="M565.468 731.978l-244.676 52.943 232.15-202.502 9.43 80.845z"/><path fill="#321b19" fill-opacity=".996" d="M652.891 441.873l37.483 216.098L656 591.026l-27.247-157.331z"/><path fill="#e7c481" fill-opacity=".341" d="M167.732 251.655l72.27-6.574-114.974-100.626L230.492 70.22z"/><path fill="#d09f80" fill-opacity=".933" d="M735.023 567.096l72.271 317.767-140.637-46.844 55.579-69.041z"/><path fill="#141614" fill-opacity=".694" d="M196.732 527.054l49.618 23.832 448.062-99.577-155.27-.435z"/><path fill="#d6fffd" fill-opacity=".369" d="M462.655 495.76l38.088 71.48-100.598-3.288L416.15 591.2z"/><path fill="#93bdc2" fill-opacity=".624" d="M898 595.816l-117.46-97.592 96.26-155.262-97.586 29.323z"/><path fill="#eee6c5" fill-opacity=".478" d="M230.184 367.04l40.924-16.825 4.088-34.47-17.213-12.942z"/><path fill="#ecf1f5" fill-opacity=".749" d="M652.543 809.943l-59.531 17.754-44.527 75.991-.401 177.78z"/><path fill="#af051f" fill-opacity=".882" d="M734.673 64.027l-20.31 21.163L585.612-62h179.125z"/><path fill="#5f4728" fill-opacity=".984" d="M221.892 636.294L-62 692.871l148.719 8.408 109.596-42.857z"/><path fill="#e6152c" fill-opacity=".8" d="M434.836 197.771l10.054 2.271-45.52 112.388 14.378-128.18z"/><path fill="#e8eaef" fill-opacity=".961" d="M536.578 958.938L316.543 1086l17.488-150.456 77.278-16.989z"/><path fill="#010612" fill-opacity=".463" d="M684.578 627.613l10.808 118.236 8.962 45.55 22.005-100.14z"/><path fill="#10030b" fill-opacity=".333" d="M170.243 817.146l57.492-52.14-7.592 100.734-233.708-42.42z"/><path fill="#352d20" fill-opacity=".8" d="M416.508 618.136l29.354-19.514-39.323-48.441 35.519-55.68z"/><path fill="#180000" fill-opacity=".208" d="M188.89 522.923l48.052 79.859-7.536-446.98-71.962 352.134z"/><path fill="#c00" fill-opacity=".38" d="M416.425 480.87l125.639-187 22.626 61.67-36.57 102.005z"/><path fill="#49341d" fill-opacity=".588" d="M128.496 241.49l124.488-52.385-33.437-19.994-104.483 46.669z"/><path fill="#75809a" fill-opacity=".549" d="M59.783 338.38L47.216 165.718 216.481 300.78-62 557.368z"/><path fill="#fc1e28" fill-opacity=".49" d="M356.212 319.094l-44.321 19.967-59.7 174.172 161.72-35.387z"/><path fill="#e9c4aa" fill-opacity=".459" d="M318.108 200.847l9.289-74.052 87.306 84.979-18.753 14.994z"/><path fill="#920204" fill-opacity=".867" d="M318.386 802.27l160.14-70.155-62.041 31.979-57.14-96.583z"/><path fill="#7c3433" d="M657.554 477.37l-53.491 38.2 122.274-112.058 30.307 25.923z"/><path fill="#dde7f0" fill-opacity=".443" d="M898 945.779V437.533l-67.266 464.46-300.104 92.84z"/><path fill="#00424b" fill-opacity=".341" d="M595.668-62l164.195 43.697-1.713 114.939L898 21.68z"/><path fill="#815927" fill-opacity=".824" d="M371.722 526.654l-9.497 45.188 27.013 25.943 7.35-16.788z"/><path fill="#d09384" fill-opacity=".929" d="M-62 1003.805v81.9L53.995 972.142l-11.637-23.023z"/><path fill="#c4bbc9" fill-opacity=".235" d="M266.71 661.307l9.416 198.592-85.968-166.382 139.096 37.937z"/><path fill="#ebab90" fill-opacity=".4" d="M898 728.564L708.805 489.652l-49.003 1.527 81.98-62.691z"/><path fill="#c00004" fill-opacity=".651" d="M166.772 419.322l14.921-55.464 40.482 30.792 37.753 127.32z"/><path fill="#b4b10b" fill-opacity=".4" d="M712.54 370.576L898 333.844l-146.245-24.336 42.735 164.816z"/><path fill="#474f61" fill-opacity=".318" d="M518.486 1086l29.62-98.891-58.598-3.252 95.26 78.673z"/><path fill="#7278a6" fill-opacity=".545" d="M679.699 968.613l-38.48-44.704-9.106-9.137 43.689-9.8z"/><path fill="#2f302e" fill-opacity=".882" d="M334.496 503.44l-49.43 81.396 29.069-4.865-18.874-56.725z"/><path fill="#312c33" fill-opacity=".925" d="M659.32 789.207l-33.846 19.633-79.99 56.086L642.06 710.71z"/><path fill="#4f585c" fill-opacity=".498" d="M775.013 774.363L898 765.35 791.458 908.056l51.857-325.42z"/><path fill="#adc3fb" fill-opacity=".365" d="M683.411 623.36l44.5 50.358-34.085-103.77-6.226-15.807z"/><path fill="#3a2629" fill-opacity=".416" d="M644.457 294.462L613.832-39.255l52.479 116.981 66.098-14.419z"/><path fill="#e9c396" fill-opacity=".396" d="M132.73 158.778l63.46-79.9 54.52 44.607-42.145 1.64z"/><path fill="#87899b" fill-opacity=".651" d="M713.508 279.524l13.183-45.113-31.192-24.047-48.355 54.811z"/><path fill="#841317" fill-opacity=".867" d="M643.652 549.208l-7.616-81.806-21.87 65.434 81.529 190.825z"/><path fill="#705749" fill-opacity=".647" d="M54.533 608.92l38.925-181.01-11.29-29.138L43.94 388.75z"/><path fill="#c3bbb9" fill-opacity=".565" d="M330.733 801.45l-28.637 39.952 6.574 209.377 20.32-120.103z"/><path fill="#684621" fill-opacity=".404" d="M157.908 623.757l21.616-97.332 79.108 11.386 44.27 150.605z"/><path fill="#d3a380" fill-opacity=".753" d="M143.84 566.57L-62 647.174v9.838l112.817-4.491z"/><path fill="#cdc0d2" fill-opacity=".243" d="M-62 408.344L112.956 277.74 85.65 115.16 58.722 400.698z"/><path fill="#bfd8d6" fill-opacity=".38" d="M194.335 1086l-19.9-233.966-86.632 85.084 248.236-25.644z"/><path fill="#fe2d31" fill-opacity=".443" d="M629.141 258.413l-129.426 68.312-342.003 94.952 356.952-67.23z"/><path fill="#d8cdca" fill-opacity=".604" d="M645.07 395.296l25.628-6.789-37.457-19.975-69.077-2.348z"/><path fill="#cff0ff" fill-opacity=".337" d="M355.098 605.51l25.628-83.899 16.47 14.415-102.584 57.044z"/><path fill="#4d272c" fill-opacity=".918" d="M44.88-3.457l-75.494-10.17 47.688 227.225 41.733-58.088z"/><path fill="#d00c1b" fill-opacity=".682" d="M432.92 912.722l-105.352-5.643 4.704-13.881 194.428-7.022z"/><path fill="#423231" fill-opacity=".831" d="M316.798 502.582l20.342-14.807 19.393 175.053-11.89-84.175z"/><path fill="#270000" fill-opacity=".412" d="M620.184 529.012l-55.904-38.67-76.805-141.159 118.644 100.793z"/><path fill="#a97a25" fill-opacity=".373" d="M338.835 223.77l-167.132-24.225 193.369 127.856 27.445-48.804z"/><path fill="#fe9e1d" fill-opacity=".482" d="M428.115 509.416l-27.598 63.408-34.253 33.309 37.816-82.892z"/><path fill="#231517" fill-opacity=".424" d="M280.368-65.856l237.8 90.268-272.84-3.042 116.129 130.318z"/><path fill="#606c68" fill-opacity=".588" d="M33.518 810.586L-62 680.849l243.57 35.736 16.254 89.594z"/><path fill="#e3deff" fill-opacity=".329" d="M279.178 542.94l16.456 2.545-42.948 74.615-6.466-18.408z"/><path fill="#d7b12f" fill-opacity=".427" d="M150.417 501.067l32.727-143.605-51.439.148-43.862 147.651z"/><path fill="#e9cec8" fill-opacity=".471" d="M460.256 447.634l-28.728-58.43-25.973-26.261-13.91 51.704z"/><path fill="#926c2f" fill-opacity=".847" d="M647.444 489.71l68.643 9.266 12.924 99.89-27.266-65.467z"/><path fill="#ff5136" fill-opacity=".267" d="M617.635 44.464l-79.021 53.574L509.209-62l54.695 67.728z"/><path fill="#0871bc" fill-opacity=".471" d="M772.68 1017.12l-25.98 10.12 3.3-74.415 50.914 89.325z"/><path fill="#15567e" fill-opacity=".224" d="M599.953 248.636l187.244 146.143-149.425-181.536-170.059-8.17z"/><path fill="#30373a" fill-opacity=".62" d="M554.658 831.852l-142.222-22.014-83.143 38.644 6.655 53.904z"/><path fill="#6e1a26" fill-opacity=".58" d="M343.668 114.095l220.197 87.624 15.644-118.832-180.683 109.581z"/><path fill="#48320c" fill-opacity=".612" d="M340.247 325.367l5.472-5.61-136.84-31.682 125.17-12.81z"/><path fill="#001820" fill-opacity=".294" d="M8.938 890.455l95.986 15.72 67.082-80.475 82.942 2.042z"/></svg>