<svg xmlns="http://www.w3.org/2000/svg" width="228" height="278" viewBox="0 0 836 1024"><path fill="#7a5964" d="M0 0h836v1024H0z"/><path fill="#722430" fill-opacity=".969" d="M674.46 1086L101.386 829.246l114.597-413.31 531.985-33.68z"/><path fill="#7cbffe" fill-opacity=".412" d="M295.015-28.413L-62 246.638l79.264 550.673 301.938-484.539z"/><path fill="#7fb4d1" fill-opacity=".573" d="M839.783-62L448.967 270l296.196 167.606 90.935 594.931z"/><path fill="#ffd8ab" fill-opacity=".486" d="M123.984 917.098L152.701 1086l86.987-8.064 31.122-339.554z"/><path fill="#00260b" fill-opacity=".4" d="M250.502 756.75L28.613 1086-62 868.356l304.427-243.828z"/><path fill="#ffd636" fill-opacity=".192" d="M464.514 395.146l167.55-17.862 17.004-168.537L-62-62z"/><path fill="#762334" fill-opacity=".984" d="M733.04 985.884L691.005 1086h-473.75l174.856-531.389z"/><path fill="#59080d" fill-opacity=".584" d="M757.76 483.29l-412.334 98.36L660.85 742.724l116.308-49.17z"/><path fill="#e2c88d" fill-opacity=".349" d="M898 1086H774.018l-82.94-162.83 132.465-355.587z"/><path fill="#868f97" fill-opacity=".678" d="M497.188 393.824L865.394-62 238.616-.768 497.267 30.08z"/><path fill="#bfba96" fill-opacity=".42" d="M177.224 579.658L-62 676.548l211.649 143.685-5.717-136.739z"/><path fill="#7e2536" fill-opacity=".961" d="M164.09 508.233L376.02 860.64l16.315-471.555-183.11 36.61z"/><path fill="#111d0b" fill-opacity=".537" d="M308.393 89.677l49.482-68.934 99.692 5.035L472.93 69.53z"/><path fill="#f2a07e" fill-opacity=".624" d="M569.23 483.374l-30.973-30.01-49.286 23.067 27.269 50.29z"/><path fill="#728bbf" fill-opacity=".678" d="M323.829 260.736L-55.82 215.069l.698 310.179 413.344-149.135z"/><path fill="#944400" fill-opacity=".435" d="M278.525 465.779l60.337-100.442 108.443 44.967 76.162-259.162z"/><path fill="#5d7eb4" fill-opacity=".671" d="M701.071 388.823L830.353 644.54l-12.19-596.947-156.64 262.654z"/><path fill="#29231a" fill-opacity=".459" d="M643.103 746.627l159.322 314.076-20.966-38.215L617.1 408.117z"/><path fill="#1c0805" fill-opacity=".867" d="M197.767 801.083l58.27-42.231-6.576-142.864-53.856-6.708z"/><path fill="#f3a896" fill-opacity=".38" d="M234.628 1086l34.819-213.464-139.196-22.667-18.327 78.254z"/><path fill="#402105" fill-opacity=".541" d="M313.862 159.111l-24.515 29.377 126.327 5.729 21.068-36.603z"/><path fill="#ffcab6" fill-opacity=".361" d="M898 767.74l-159.44 271.392-64.655-219.246L818.29 1086z"/><path fill="#dbaf8f" fill-opacity=".396" d="M281.92 266.274l123.497-61.448-147.818-85.04 200.453-56.208z"/><path fill="#ffea86" fill-opacity=".302" d="M442.418 388.997l58.911 1.685L632.086 363l-87.799-77.793z"/><path fill="#3d3c22" fill-opacity=".341" d="M174.944 723.583l113.161 140.763L-62 818.544l3.133-74.691z"/><path fill="#808970" fill-opacity=".494" d="M407.836 24.378l-135.52-39.921L-62-45.093V206.16z"/><path fill="#675f55" fill-opacity=".663" d="M766.624 748.186l-59-35.984-51.77 88.865 104.71 146.536z"/><path fill="#923447" fill-opacity=".808" d="M265.931 778.342l-8.101 217.877 81.914-243.276-114.152-291.83z"/><path fill="#691a27" fill-opacity=".937" d="M265.034 407.86l126.258 88.754 230.177-119.39-210.586 25.908z"/><path fill="#a6a59b" fill-opacity=".957" d="M111.856 728.223L-62 734.87l219.566-121.9-22 66.141z"/><path fill="#250000" fill-opacity=".388" d="M205.27 1027.41l407.63-92.938-228.234-52.122 85.04 59.474z"/><path fill="#353b40" fill-opacity=".792" d="M-62 1086l183.735-37.697-15.363-223.149L-62 886.731z"/><path fill="#a098ae" fill-opacity=".533" d="M323.196 39.897L95.606 97.454l29.445 82.291 153.208-20.384z"/><path fill="#4c2602" fill-opacity=".659" d="M369.657 335.66l-18.218-4.814 50.994 49.617 55.348-54.231z"/><path fill="#65769d" fill-opacity=".667" d="M-38.184 540.684l209.072-102.072-3.17 160.934L-62 680.348z"/><path fill="#d1c2a1" fill-opacity=".204" d="M173.784 443.638l-219.792 29.875 54.861-95.706 396.142-19.908z"/><path fill="#b6d8cb" fill-opacity=".404" d="M634.754 951.011l9.609 24.78 25.577 3.949 21.216-14.614z"/><path fill="#5377c5" fill-opacity=".522" d="M269.965 255.49l15.82 80.412L-62 361.857l34.067-104.82z"/><path fill="#65759a" fill-opacity=".71" d="M587.092 216.768L485.08 306.237l33.735-124.955-42.049-160.637z"/><path fill="#c0956c" fill-opacity=".604" d="M304.951 270.754l45.868-35.545-7.511 156.647 49.736-7.201z"/><path fill="#a57045" fill-opacity=".565" d="M383.336 62.943l47.638-22.691 93.33 139.427-60.885 109.686z"/><path fill="#6d4863" fill-opacity=".349" d="M193.786 159.82l-32.212 7.7 12.105 104.107 140.568-48.185z"/><path fill="#2b0102" fill-opacity=".447" d="M723.176 916.006L608.205 506.808l73.457-4.479-14.627 113.951z"/><path fill="#000d07" fill-opacity=".22" d="M289.947 92.854l148.741-14.618 73.032 52.233-61.575-143.753z"/><path fill="#8f1925" fill-opacity=".447" d="M769.274 571.534l9.672 137.795-132.314-24.662 91.321-238.297z"/><path fill="#ad424c" fill-opacity=".282" d="M188.576 420.71L116.322 815.4l97.826-59.27-27.057-14.059z"/><path fill="#a02a3d" fill-opacity=".318" d="M694.794 939.881L566.302 664.707 426.308 611.77l59.862 245.49z"/><path fill="#451304" fill-opacity=".592" d="M362.73 262.871l-.026 6.576-25.953 14.38 67.854-1.911z"/><path fill="#90a7b1" fill-opacity=".6" d="M770.419 76.38L592.846 367.864l59.493 12.66-66.82-188.978z"/><path fill="#5b737d" fill-opacity=".698" d="M202.474-23.312l-9.248 82.704 86.962 3.077L425.92-62z"/><path fill="#8a786d" fill-opacity=".486" d="M682.942 702.303L804.405 1086l20.633-313.416-73.954 46.496z"/><path fill="#221b08" fill-opacity=".698" d="M-13.42 823.652l-40.163-12.963 265.336.64-33.518 35.534z"/><path fill="#e0bdab" fill-opacity=".729" d="M522.856 356.419l-11.82-32.137 47.75 53.762-75.502 12.044z"/><path fill="#3b080a" fill-opacity=".78" d="M380.202 907.37l-92.183 26.798 136.863-13.318 69.225-18.848z"/><path fill="#fecac2" fill-opacity=".545" d="M845.811 1061.818l-33.024-175.024L816.9 843.9l31.024 38.82z"/><path fill="#a99fae" fill-opacity=".757" d="M429.637-32.793l-86.692 49.77 331.757-70.753-125.848 91.097z"/><path fill="#ffb372" fill-opacity=".353" d="M248.44 507.586l56.047-19.198-63.988 44.04-10.836-3.127z"/><path fill="#737f7a" fill-opacity=".38" d="M258.179 750.569l-86.835 107.578 96.15 37.858-3.226-173.234z"/><path fill="#8c1826" fill-opacity=".475" d="M539.179 355.547l118.283 32.201-44.336 152.626-48.34-203.675z"/><path fill="#ffc4b4" fill-opacity=".333" d="M761.905 1000.788l31.074 36.191-98.065-99.562-3.963-103.555z"/><path fill="#8bc28d" fill-opacity=".537" d="M616.91 343.14l-108.375-3.905-18.242-38.69 106.231-34.747z"/><path fill="#907b53" fill-opacity=".459" d="M-62 115.811L203.044-62 97.358 128.347-47.545 277.735z"/><path fill="#b9a992" fill-opacity=".49" d="M805.21 637.842L788.044 832.11 773.23 692.195l.482-108z"/><path fill="#d8e1ca" fill-opacity=".322" d="M516.527 496.488l-16.998-29.004 20.59 3.83 66.917-9.67z"/><path fill="#6e7398" fill-opacity=".576" d="M727.955 30.089l79.18 157.299L898 170.646 820.385-62z"/><path fill="#bdb5cc" fill-opacity=".184" d="M120.61 104.264l185.423 55.157L425.919 38.67l37.406 71.844z"/><path fill="#df954e" fill-opacity=".259" d="M482.298 164.568l-50.4 119.129-136.802-108.689 5.53 66.445z"/><path fill="#330406" fill-opacity=".631" d="M671.696 641.07L534.711 533.12l99.24 100.563 25.754 175.262z"/><path fill="#77625b" fill-opacity=".6" d="M127.532 722.762l37.829 49.507-67.018 29.796L-62 753.268z"/><path fill="#000b0c" fill-opacity=".169" d="M227.309 1003.764l94.435 32.999 245.217-31.994L391.515 971.1z"/><path fill="#390901" fill-opacity=".357" d="M721.263 956.906l-133.525-29.587 66.761 1.68 71.953 83.023z"/><path fill="#8c7c7c" fill-opacity=".514" d="M750.378.927l19.294 94.31-169.647 3.898L432.93 29.483z"/><path fill="#200004" fill-opacity=".212" d="M778.653 1017.181L765.054 1086l20.203-105.723-93.552-147.954z"/><path fill="#2d1600" fill-opacity=".376" d="M417.663 143.17l20.17 32.668-38.545 18.17-38.575-30.566z"/><path fill="#f9bca3" fill-opacity=".478" d="M167.228 982.012l41.488 25.411 29.173-80.037-54.185-34.578z"/><path fill="#ad6235" fill-opacity=".376" d="M501.453 359.754L465.317 71.727l14.69 341.179-129.458-22.585z"/><path fill="#ecf2c5" fill-opacity=".173" d="M436.513-2.915l-23.722-35.083-150.333 157.955 57.306-106.42z"/><path fill="#6a1825" fill-opacity=".545" d="M267.552 622.087l141.065 41.32 316.69-209.784L350.85 565.5z"/><path fill="#110102" fill-opacity=".576" d="M219.31 758.032l40.327-7.835-16.092-121.816-40.38-58.811z"/><path fill="#ffac3a" fill-opacity=".408" d="M600.45 313.956l-67.67 76.878 31.411-7.439 19.63-18.577z"/><path fill="#c19b81" fill-opacity=".627" d="M368.393 150.39l-28.677 53.827-28.98 74.074 40.48-19.222z"/><path fill="#842a40" fill-opacity=".565" d="M553.095 994.343l169.23 12.54-133.398-65.472-190.295 23.72z"/><path fill="#92603d" fill-opacity=".725" d="M335.92 234.054l-27.075 2.922 94.453-8.643-38.069 36.04z"/><path fill="#996942" fill-opacity=".855" d="M402.614 327.933l79.102-60.072-149.574 36.52 22.493 33.537z"/><path fill="#858c93" fill-opacity=".62" d="M-62 664.537l169.519-3.07 53.11-52.53 11.748-47.902z"/><path fill="#7b7169" fill-opacity=".451" d="M667.984 845.08l35.386 50.89 3.098-30.188-36.602-114.096z"/><path fill="#8b2c3c" fill-opacity=".69" d="M375.665 803.08L165.633 514.628 176.171 718.4l37.059-211.362z"/><path fill="#120e08" fill-opacity=".384" d="M312.46 71.333l14.081 26.344 72.733-34.007-39.686-29.594z"/><path fill="#a44864" fill-opacity=".318" d="M404.161 967.187l-336.06 70.498L126.684 1086l174.641-145.416z"/><path fill="#721726" fill-opacity=".584" d="M609.067 426.572l29.143-42.774-191.916 6.101-15.259 90.452z"/><path fill="#06290a" fill-opacity=".235" d="M690.19 689.634l67.77 14.028-113.624 91.06 7.041-72.107z"/><path fill="#438af5" fill-opacity=".102" d="M726.332 139.96l-81.22 13.581 122.18 397.683 51.204-133.786z"/><path fill="#56111e" fill-opacity=".392" d="M358.732 392.489L239.04 423.572l-3.985 48.258L482.1 461.7z"/><path fill="#6178a2" fill-opacity=".502" d="M574.605 176.292l-43.372-100.58-24.76 243.757-25.366-77.58z"/><path fill="#415794" fill-opacity=".278" d="M-62 609.413l129.182 15.992L85.49 567.15l-2.21-60.678z"/><path fill="#706861" fill-opacity=".451" d="M709.05 821.664l-27.032-112.43L875.434 867.32 898 771.506z"/><path fill="#0c0d0b" fill-opacity=".314" d="M693.331 1019.372l-140.434-11.902-116.67-10.753 207.533 6.244z"/><path fill="#ae8679" fill-opacity=".616" d="M125.625 887.79l63.404-45.07-38.316 111.857L138.675 1086z"/><path fill="#280203" fill-opacity=".635" d="M504.676 936.664l-.864-.14 149.22-7.683L418.41 962.8z"/><path fill="#c93355" fill-opacity=".239" d="M678.16 393.412l-98.269-30.187 178.612 126.812-40.69-72.623z"/><path fill="#300400" fill-opacity=".341" d="M326.124 998.99l-90 22.214 73.772-36.18L552.58 964.8z"/><path fill="#720011" fill-opacity=".329" d="M147.323 662.267l-18.994 44.25 63.012 33.263 17.384-134.868z"/><path fill="#302322" fill-opacity=".459" d="M770.392 1009.973L649.534 644.071l35.412 121.99 4.504 45.449z"/><path fill="#a26b40" fill-opacity=".973" d="M434.833 408.037l80.452-254.807-97.332 77.254 76.698 98.383z"/><path fill="#130100" fill-opacity=".239" d="M309.044 193.887l41.427-2.177-63.826-31.045 113.912 5.767z"/><path fill="#c2f9ea" fill-opacity=".275" d="M677.647 977.827l-20.044-6.748-42.097-21.943 68.082 20.722z"/><path fill="#7c2639" fill-opacity=".624" d="M243.536 821.742l216.145 118.275 115.025-13.162-125.798-8.752z"/><path fill="#250000" fill-opacity=".337" d="M451.826 516.932l212.992 21.39-23.563 142.816 27.025-111.996z"/><path fill="#667dc4" fill-opacity=".231" d="M195.786 406.684l89.178-279.935 25.523 146.625-304.6-104.235z"/><path fill="#88283d" fill-opacity=".447" d="M250.427 971.892l115.956-127.957 255.75-94.157-315.466-103.725z"/><path fill="#572500" fill-opacity=".204" d="M357.293 405.441l128.443-194.53-57.705 183.667-24.723-31.652z"/><path fill="#b28060" fill-opacity=".722" d="M384.521 132.895l132.785 75.642-26.142 29.727-60.096-96.57z"/><path fill="#fe819f" fill-opacity=".09" d="M256.432 577.14l69.987-112.763-122.101 34.605 68.553 207.619z"/><path fill="#8fa697" fill-opacity=".471" d="M613.766 96.056l49.33 274.269-66.527 4.247-43.722-95.305z"/><path fill="#c0a981" fill-opacity=".467" d="M746.562 704.827l73.933 30.884-15.386 12.557-57.828-12.904z"/><path fill="#beb9a8" fill-opacity=".306" d="M141.909 731.31L-62 659.195l131.765 92.61 58.377-59.883z"/><path fill="#791722" fill-opacity=".525" d="M481.92 434.802l282.413 110.445-85.413-146.466-55.067 61.178z"/><path fill="#821c28" fill-opacity=".439" d="M648.874 862.207l-93.764-268.75 44.023 25.136 47.937 78.832z"/><path fill="#5679ab" fill-opacity=".467" d="M720.46 416.968l-82.169-57.076 123.737-15.441 33.39 249.882z"/><path fill="#877c86" fill-opacity=".373" d="M176.92 94.078L352.005 37.66l-208.29 6.48L-62 280.441z"/></svg>