<svg xmlns="http://www.w3.org/2000/svg" width="228" height="278" viewBox="0 0 836 1024"><path fill="#747868" d="M0 0h836v1024H0z"/><g fill-opacity=".502"><path fill="#94f9d6" d="M858 678L650 270 82 390z"/><path fill="#600105" d="M-62 334l960-132L18-62z"/><path fill="#73ffd8" d="M606 1086L210 914l276-320z"/><path fill="#caffff" d="M94 470l36 336-192-64z"/><path fill="#d6ffff" d="M898 814l-116 92-52-496z"/><path fill="#efffff" d="M358 414l-8-160-212 92z"/><path fill="#262a30" d="M578-62L326 430 898 70z"/><path fill="#5b1c15" d="M802 1086L522 594l180-120z"/><path fill="#fff" d="M714 382l-180 52-32-224z"/><path fill="#ad0913" d="M-62 782L22-62l132 372z"/><path fill="#157c52" d="M58 510l144 484 284-440z"/><path fill="#ff4956" d="M578 1086l196-104-208-272z"/><path fill="#fe0002" d="M-14 1086L94 934-38 602z"/><path fill="#f13c4c" d="M598 250l244 308 56-312z"/><path d="M274 902L102 782l-64 88z"/><path fill="#79e4b7" d="M606 626l-112 392-176-388z"/><path d="M86 190l384 12-304 116z"/><path fill="#b67e5b" d="M226 74l364 212L462-62z"/><path fill="#281c00" d="M510 374L338 42l32 332z"/><path fill="#0c3020" d="M146 570l532-20-184 100z"/><path fill="#7cebbf" d="M542 554L290 274l-60 264z"/><path fill="#e5ffff" d="M334 1034l208-84 132 136z"/><path fill="#223142" d="M818-62L494 242l404 12z"/><path fill="#4fab79" d="M150 674l324 84-96 328z"/><path fill="#0b0005" d="M218 482l-80 352-20-164z"/><path fill="#351100" d="M134 894l128 68-204 124z"/><path fill="#deffff" d="M30 802l104-28L30 574z"/><path fill="#000009" d="M898 894l-148 192 36-188z"/><path fill="#d2ffff" d="M898 918l-136-56 52-272z"/><path fill="#fff" d="M82 954l-64 112 96 20z"/><path fill="#f57477" d="M-62 306l108-84 116 128z"/><path fill="#e2ffff" d="M362 254l-192 72 52 80z"/><path fill="#0d8241" d="M626 458l132 280 28-96z"/><path fill="#afffff" d="M570 1078l-336-96-40 104z"/><path fill="#f8565c" d="M666 782l52-124-80-112z"/><path fill="#c6c4bc" d="M238 150l-104 16 32-80z"/><path fill="#4aab78" d="M346 438L38 638l76-228z"/><path fill="#b2ffff" d="M250 962l120-24-168-40z"/><path fill="#40060a" d="M-10 394l32 200 92-220z"/><path fill="#e1ffff" d="M778 518L486 242l204 108z"/></g></svg>