<svg xmlns="http://www.w3.org/2000/svg" width="228" height="278" viewBox="0 0 836 1024"><path fill="#747868" d="M0 0h836v1024H0z"/><path fill="#89cbaf" fill-opacity=".824" d="M801.19 544.444L678.463 304.79 145.72 322.083 283.44 563.73z"/><path fill="#723932" fill-opacity=".988" d="M745.98 114.5L128.607 342.174-3.897 656.587-62-62z"/><path fill="#6ce7ba" fill-opacity=".616" d="M546.917 628.557l29.166 421.517-367.718 7.25L341.203 635.84z"/><path fill="#b8f5e5" fill-opacity=".859" d="M759.471 485.544l13.84 411.442L898 888.99V772.537z"/><path fill="#c7fbf3" fill-opacity=".78" d="M-5.268 738.188l134.986 83.39-8.003-119.132-86.728-110.064z"/><path fill="#4c4943" fill-opacity=".922" d="M338.018 321.809l78.483 94.345L898 26.355 581.919-62z"/><path fill="#d3f8f1" fill-opacity=".824" d="M719.406 382.129l-180.498 56.397-33.18-192.951 173.3 98.958z"/><path fill="#a03537" fill-opacity=".604" d="M576.251 1001.004L819.835 1086l-149.18-638.292-129.087 386.249z"/><path fill="#003d22" fill-opacity=".498" d="M131.191 513.293l613.59 76.41-558.945 69.162-74.968 415.688z"/><path fill="#ca4e53" fill-opacity=".702" d="M898 264.403V777.23L705.853 364.426 495.086 233.732z"/><path fill="#b6e6d4" fill-opacity=".937" d="M159.121 332.045l48.364 43.413 136.148 44.549 20.92-168.133z"/><path fill="#be3936" fill-opacity=".91" d="M-22.725 615.253l67.763 196.67 51.15 127.85L-8.04 1086z"/><path fill="#08643c" fill-opacity=".322" d="M37.334 849.778l126.882 145.423 260.685 5.17-86.072-437.576z"/><path fill="#383b44" fill-opacity=".89" d="M591.775 259.926l264.87-20.373-4.627-161.606-373.229-99.64z"/><path fill="#25100f" fill-opacity=".808" d="M130.689 265.122l12.589-86.529 299.137 24.784L152.18 335.224z"/><path fill="#d69c6d" fill-opacity=".353" d="M532.67 31.448l4.806 244.46L237.178 66.023l23.756-101.608z"/><path fill="#fffbff" fill-opacity=".255" d="M733.134 1086H477.6l-65.505-247.216 279.595 37.905z"/><path fill="#c14749" fill-opacity=".91" d="M37.266 387.121l119.95-32.092-81.51-117.452L-62 232.017z"/><path fill="#67f1b8" fill-opacity=".435" d="M117.66 401.548l100.19-54.283-110.816 333.418-84.793-74.634z"/><path fill="#01451f" fill-opacity=".404" d="M793.639 700.923L627.801 818.087l127.028 79.319-120.45-450.954z"/><path fill="#96fcda" fill-opacity=".467" d="M352.16 964.515L152.966 671.28l105.69 225.343-72.077 26.145z"/><path fill="#4b2723" fill-opacity=".573" d="M128.279 790.073l-76.257 22.735 49.86 217.442 152.734-40.118z"/><path fill="#00111e" fill-opacity=".541" d="M826.08 1086l21.94-187.989-61.894-5.74-33.979 171.133z"/><path fill="#e6fff1" fill-opacity=".573" d="M79.68 904.645l50.205-12.45L.185 1076.81l105.932 9.19z"/><path fill="#2b1800" fill-opacity=".576" d="M348.899 253.927l39.536 98.66 49.632 22.232 76.725-191.08z"/><path fill="#ff2927" fill-opacity=".376" d="M568.67 979.002l-6.026-91.994 216.082 54.633-81.536 144.346z"/><path fill="#d9ede8" fill-opacity=".384" d="M182.028 93.372l-27.955 7.988-14.591 61.222 95.385.742z"/><path fill="#000103" fill-opacity=".498" d="M749.66 842.466l-43.97 48.425-91.21-301.231-17.23 121.28z"/><path fill="#61be90" fill-opacity=".671" d="M282.46 731.385L527.42 901.96 173.8 753.702l30.183-145.526z"/><path fill="#479d72" fill-opacity=".475" d="M526.616 508.662l283.62 187.543L704.872 470.03l-185.638-38.587z"/><path fill="#bffbf2" fill-opacity=".686" d="M355.391 1086l175.893-144.792 121.905 123.57-447.032-62.391z"/><path fill="#1c7f47" fill-opacity=".345" d="M234.803 443.577l-88.039-23.82L86.827 610.54l351.452 223.73z"/><path fill="#d7fefd" fill-opacity=".498" d="M166.894 906.232l151.516 42.586-174.255-64.543-72.773 20.483z"/><path fill="#2b2726" fill-opacity=".992" d="M74.703 802.43l-29.971 76.005 236.031 23.493L81.21 802.476z"/><path fill="#fcd8c4" fill-opacity=".251" d="M492.609 135.329l28.833-85.5 270.07-4.088-441.132-40.2z"/><path fill="#4e9075" fill-opacity=".992" d="M438.817 442.654l78.028-72.07-127.097-9.613 58.058 100.857z"/><path fill="#baffe8" fill-opacity=".322" d="M518.958 687.586l-203.226-79 8.534 83.252 115.723 76.859z"/><path fill="#c1fbe8" fill-opacity=".529" d="M731.813 400.908l-12.735 173.715L898 741.073 768.867 521.504z"/><path fill="#79d0ab" fill-opacity=".757" d="M215.054 497l113.023 78.673 201.188-56.452.874-90.572z"/><path fill="#003713" fill-opacity=".388" d="M416.868 992.765l158.957-72.986-239.364 100.415-177.53-64.418z"/><path fill="#0c0f04" fill-opacity=".376" d="M728.554 114.995L340.9 131.839l19.093-157.205-29.187 111.558z"/><path fill="#d0fff9" fill-opacity=".506" d="M109.536 668.44L6.321 635.86l15.044 140.063 45.314 39.838z"/><path fill="#264333" fill-opacity=".894" d="M587.095 628.73l-120.91-73.617-314.779 41.626 369.883 36.094z"/><path fill="#b5504c" fill-opacity=".859" d="M630.804 654.192l108.975 52.22-39.07-71.909-63.529-95.622z"/><path fill="#b40007" fill-opacity=".325" d="M153.623 130.916L-62 290.236 39.728-62l196.057 7.13z"/><path fill="#868683" fill-opacity=".62" d="M559.102 172.417L898 161.142l-29.375-13.698L490.31 158.86z"/><path fill="#006123" fill-opacity=".333" d="M487.954 724.29l260.717-236.733-84.907.268-165.89 284.202z"/><path fill="#79e3bc" fill-opacity=".471" d="M619.086 600.773L344.313 978.701l-147.638-81.225 308.555 64.038z"/><path fill="#1c0015" fill-opacity=".561" d="M131.179 796.822l-15.184-164.903 49.39.692 2.142 164.27z"/><path fill="#cbd3cf" fill-opacity=".404" d="M575.331 391.778l-6.726-238.72L581.086-62h8.575z"/><path fill="#ff585c" fill-opacity=".424" d="M545.576 868.434l4.102-55.713L586.3 705.137l67.206 129.851z"/><path fill="#5a8470" fill-opacity=".992" d="M194.106 454.766l199.252 12.125-18.146-18.847-118.065-8.988z"/><path fill="#aafae1" fill-opacity=".447" d="M623.353 446.682l139.36-5.298-275.585-152.039L616.31 542.552z"/><path fill="#790e17" fill-opacity=".451" d="M33.163 576.701L-62 864.292V319.747l196.573 45.097z"/><path fill="#241008" fill-opacity=".29" d="M-62 60.791l263.41 37.294 273.83 280.248L225.184-1.45z"/><path fill="#00010c" fill-opacity=".318" d="M501.292 41.188l-127.384-72.95 203.686-7.429-10.503 269.708z"/><path fill="#c09e99" fill-opacity=".557" d="M796.635 483.521L791.22-21.642l-12.865 422.954 6.76 173.875z"/><path fill="#82acac" fill-opacity=".557" d="M686.574 863.073l-299.87 23.658 392.366 12.694 24.784 7.892z"/><path fill="#000005" fill-opacity=".388" d="M782.097 33.442l13.039-91.19-69.576 48.71 60.127 302.786z"/><path fill="#6c0000" fill-opacity=".392" d="M898 335.584v38.81l-156.995 29.044-44.711-43.418z"/><path fill="#d6cbc8" fill-opacity=".416" d="M670.005 416.005L687.843-62l3.18 76.828L694.588 159z"/><path fill="#6f522e" fill-opacity=".827" d="M216.759 1086l3.976-99.387-124.973-86.83-8.23 51.085z"/><path fill="#c39998" fill-opacity=".51" d="M690.27 626.142L655.576 997.27l15.727-331.851-67.705-13.284z"/><path fill="#9a9fa1" fill-opacity=".408" d="M898 40.338L475.516 48.57l23.996-7.309L852.35 23.208z"/><path fill="#340925" fill-opacity=".314" d="M533.683 448.6l44.95-7.32-4.116 72.08-61.247-5.956z"/><path fill="#91c1a9" fill-opacity=".718" d="M60.155 625.856l85.88-276.571L35.901 566.402l-25.434 77.953z"/><path fill="#d9faf5" fill-opacity=".647" d="M257.872 376.557l96.105-112.006-167.255 51.886 7.754 56.987z"/><path fill="#0a0009" fill-opacity=".439" d="M436.09 438.003l93.722-94.9-68.156 85.185-83.798-54.075z"/><path fill="#c4fffa" fill-opacity=".349" d="M752.467 828.624L876.03 939.821 898 634.122l-145.563 84.132z"/><path fill="#a67e5f" fill-opacity=".612" d="M502.648 314.944l-7.342-253.382-79.698 101.592 139.68.876z"/><path fill="#000007" fill-opacity=".333" d="M630.376 251.887l39.216.58 8.6-204.01-66.818 43.616z"/><path fill="#98e3c7" fill-opacity=".663" d="M739.478 413.199l-234.47 32.74-143.376 28.38 180.543-95.565z"/><path fill="#890105" fill-opacity=".478" d="M682.002 667.49l-4.6 90.995 74.958-5.208-34.777-84.515z"/><path fill="#205f41" fill-opacity=".569" d="M297.884 927.573l-43.191-31.014-131.236-190.804 172.598 208.862z"/><path fill="#c5f6f0" fill-opacity=".765" d="M98.652 656.62l34.38 140.062-98.65-31.771 15.369-130.937z"/><path fill="#080000" fill-opacity=".345" d="M898 232.553V36.48l-98.266 7.69 5.894 214.093z"/><path fill="#1c7a45" fill-opacity=".259" d="M504.36 829.275l-147.985 188.931 241.403-84.131-326.244 79.829z"/><path fill="#f64244" fill-opacity=".275" d="M86.027 114.63l205.57-63.843L-62 228.642l21.588-175.876z"/><path fill="#faffff" fill-opacity=".306" d="M756.731 456.998L563.007 253.447l-59.589 150.236 62.955-38.64z"/><path fill="#b6ffec" fill-opacity=".471" d="M286.454 955.533l118.807-20.33-105.575-8.699-118.311-32.053z"/><path fill="#ffd5c5" fill-opacity=".173" d="M324.636 143.037l46.81-160.578 154.393 75.417-301.093 22.712z"/><path fill="#3c0d0c" fill-opacity=".443" d="M382.967 140.83L273.35-53.092l90.2 53.69-30.543 127.111z"/><path fill="#4e9e73" fill-opacity=".525" d="M172.832 622.947l385.128 52.338 99.88-35.836-176.216-14.814z"/><path fill="#5f1917" fill-opacity=".812" d="M341.694 180.168L9.327 205.01l116.37 69.47 38.246-48.954z"/><path fill="#7dfbcb" fill-opacity=".573" d="M455.546 407.439l31.238-27.879-79.72.894 16.098 31.18z"/><path fill="#a4e6d2" fill-opacity=".831" d="M247.144 984.088L364.124 1086H214.538l8.318-88.604z"/><path fill="#296f43" fill-opacity=".541" d="M406.935 775.622l-63.128 8.015L159.34 532.255l-9.707-101.513z"/><path fill="#b0ffeb" fill-opacity=".529" d="M359.983 982.378l205.245-54.841-27.962-47.555-13.715 23.912z"/><path fill="#8ddfbc" fill-opacity=".576" d="M358.51 362.316l100.27 93.406-349.351-51.976 60.06-30.685z"/><path fill="#553a1a" fill-opacity=".651" d="M429.278 375.627l20.735-210.958 47.119 10.685-6.652 181.238z"/><path fill="#67c995" fill-opacity=".314" d="M767.392 1032.697l38.077-398.362-100.842-149.31 63.963 381.933z"/><path fill="#64bf98" fill-opacity=".78" d="M436.689 618.433l1.317-139.584L612.2 567.872l-196.998-20.945z"/><path fill="#00080b" fill-opacity=".373" d="M163.267 922.643l33.164 55.216 123.152 22.894-185.567-102.498z"/><path fill="#c78f8b" fill-opacity=".792" d="M554.528 272.054l105.815 26.069L898 260.354v27.35z"/><path fill="#4dac7e" fill-opacity=".302" d="M153.144 896.101l19.459-216.816 85.952-194.713 24.835 215.95z"/><path fill="#bfffea" fill-opacity=".412" d="M460.564 717.715l-68.843 23.468-36.02-15.086 173.876-80.643z"/><path fill="#bacbc7" fill-opacity=".314" d="M551.4 756.642l270.641 14.656-197.612 5.766-85.047-6.42z"/><path fill="#d8d7d2" fill-opacity=".337" d="M650.264 1014.913l22.36-227.228-4.892 206.31 70.665 17.294z"/><path fill="#560000" fill-opacity=".255" d="M589.494 707.215l66.735-205.601-3.99 77.794 14.207 313.164z"/><path fill="#232323" fill-opacity=".965" d="M898 938.99l-113.708 26.137-84.8 120.873 122.416-98.81z"/><path fill="#15090c" fill-opacity=".51" d="M315.57 619.076l-52.873-9.662 16.096-77.053 45.532 51.493z"/><path fill="#328355" fill-opacity=".851" d="M269.568 804.15l-40.24-56.087 143.263 126.53-111.92-43.345z"/><path fill="#000f00" fill-opacity=".235" d="M468.69 379.221l-41.335-13.671-109.022-67.41 75.679-60.312z"/><path fill="#13000b" fill-opacity=".404" d="M668.07 806.9l14.761 61.42 70.826 16.833-61.92-124.71z"/><path fill="#441616" fill-opacity=".624" d="M34.194 579.852l-47.776-197.794 53.034 43.382 18.893 97.552z"/><path fill="#48a174" fill-opacity=".62" d="M531.81 731.203l79.667-199.477 6.817 99.707L268.55 909.314z"/><path fill="#2d1618" fill-opacity=".545" d="M184.217 343.732l-48.605-8.566 91.866-131.532L134.25 396.91z"/><path fill="#064522" fill-opacity=".275" d="M281.72 611.136l-89.76-133.222-55.258 213.102-81.47-74.21z"/><path fill="#689f82" fill-opacity=".996" d="M145.155 807.668l29.396-16.432-13.635 43.111 85.301 39.007z"/><path fill="#f9e5ed" fill-opacity=".471" d="M103.322 889.833l75.041 6.542-12.656 6.296-89.08 6.733z"/><path fill="#8ecdac" fill-opacity=".412" d="M331.166 770.486l95.467 38.371-121.604 13.85-74.74-131.127z"/><path fill="#e7b377" fill-opacity=".267" d="M372.018 180.236l146.581-77.28-73.057 74.956-57.473-81.519z"/><path fill="#730703" fill-opacity=".494" d="M803.747 574.426l-18.01-43.383L898 523.896v-1.513z"/><path fill="#c33531" fill-opacity=".588" d="M-38.256 724.63L14.254 1086l72.567-168.35L-19.1 660.594z"/><path fill="#99ffda" fill-opacity=".455" d="M293.22 978.721l-52.572-16.83-15.385-29.64 66.956 40.365z"/><path fill="#24292a" fill-opacity=".706" d="M198.199 852.365l73.645 38.523-28.296 16.135-117.81-19.42z"/><path fill="#c6fee9" fill-opacity=".596" d="M87.516 949.992L104.048 1086h-92.47L77.56 962.283z"/><path fill="#23201a" fill-opacity=".91" d="M100.447 983l-4.741 31.683L155.391 1086l-41.079-108.017z"/><path fill="#c10d05" fill-opacity=".278" d="M664.053 1002.171l-104.555-102.18 7.71 28.676 24.091 86.795z"/><path fill="#ff6664" fill-opacity=".333" d="M727.489 886.364l12.464 19.322 31.445 105.163 5.878-141.798z"/></svg>