<svg xmlns="http://www.w3.org/2000/svg" width="228" height="278" viewBox="0 0 836 1024"><path fill="#333658" d="M0 0h836v1024H0z"/><g fill-opacity=".502"><path fill="#0934e2" d="M634 1034L374 174l-212 912z"/><path fill="#bf7d2e" d="M530 354l96-416-328 256z"/><path fill="#254be3" d="M146 330l560-4-84 352z"/><path fill="#1f1800" d="M-62 802L454-62-54-42z"/><path fill="#d29b69" d="M798 722L406 502l140 244z"/><path fill="#ffb45f" d="M126 526L18 734l116 92z"/><path fill="#1b1c00" d="M898 658V-18L506-62z"/><path fill="#1d1b0c" d="M826 774l-456-88 516 400z"/><path fill="#d08b48" d="M586 738l196 8-4-212z"/><path fill="#8391ac" d="M478 634l-160-28 352-232z"/><path fill="#164cff" d="M190 358l-80 208 316-312z"/><path fill="#101309" d="M414 258L-46 434l420-332z"/><path fill="#3a2f13" d="M-62 974l360-552-148 640z"/><path fill="#000763" d="M754 638l-140 44-132-284z"/><path fill="#000042" d="M146 578l376-8-312-112z"/><path fill="#b88156" d="M422 30l-16 300L602 58z"/><path fill="#0b3cf2" d="M738 354l36 136-220-220z"/><path fill="#062bc1" d="M218 906l388 136V758z"/><path fill="#191100" d="M634 690l40-212h152z"/><path fill="#004" d="M506 622L330 774l180 44z"/><path fill="#000775" d="M454 346l316 144-148-192z"/><path fill="#fec28e" d="M38 678l12 136 72-272z"/><path fill="#f8f2ed" d="M546 434l60-24 8 80z"/><path fill="#6c562c" d="M778 1070L622 766l-20 320z"/><path fill="#ffffe3" d="M374 414l-44 32h60z"/><path fill="#ced7cf" d="M534 506l-116-16-4 56z"/><path fill="#19180b" d="M762 10L558 258l200 100z"/><path fill="#cccdad" d="M498 618l-144 4 8-56z"/><path fill="#113ddf" d="M370 274l288 276-416-200z"/><path fill="#633a17" d="M542 338l-120 8 20-148z"/><path fill="#1441f0" d="M298 622l-64 296 136-212z"/><path fill="#5b504a" d="M158 270l80-332L90-14z"/><path fill="#060d56" d="M442 1086l-24-176-168-68z"/><path fill="#d09c74" d="M570 210l20-60-216-36z"/><path fill="#172615" d="M-62 746l88-80 76 420z"/><path fill="#001894" d="M286 374l-100 60 288 160z"/><path fill="#40371a" d="M806 1002l92-316-128-264z"/><path fill="#825433" d="M126 866L82 530l88 52z"/><path fill="#393930" d="M294-18l604 172V-26z"/><path fill="#040915" d="M278 702l-72-252 72-16z"/></g></svg>