<svg xmlns="http://www.w3.org/2000/svg" width="228" height="278" viewBox="0 0 836 1024"><path fill="#5c5c63" d="M0 0h836v1024H0z"/><path fill="#deefde" fill-opacity=".58" d="M800.622-62l-109.72 411.939-250.237-58.911 59.41-308.745z"/><path fill="#1f2c3f" fill-opacity=".925" d="M651.824 378.801l-81.109 655.118L220.791 1086 82.839 422.361z"/><path fill="#e6b095" fill-opacity=".494" d="M898 560.892L469.826 708.316l212.841 71.18L827.191 926.19z"/><path fill="#fdc4af" fill-opacity=".345" d="M155.824 1063.517l108.434-317.405-319.966-107.52-6.292 388.08z"/><path fill="#cfd1d2" fill-opacity=".525" d="M98.385 457.859l-64.733-91.462 95.283-137.306 97.053 99.36z"/><path fill="#9b6559" fill-opacity=".851" d="M832.766 314.75L747.542 52.455l-33.016 186.88-67.083 817.232z"/><path fill="#f6ffcf" fill-opacity=".325" d="M231.872 592.008l39.369 71.863 199.888-6.653 98.148-45.358z"/><path fill="#178cff" fill-opacity=".255" d="M639.49 332.53l-97.998 203.92-378.38-48.686 398.53-191.972z"/><path fill="#000c19" fill-opacity=".71" d="M643.483 894.549L335.864 1086 222.95 679.34l213.466-22.879z"/><path fill="#ed9636" fill-opacity=".286" d="M284.27 53.622l124.085 2.137 73.23 331.333-241.109-96.535z"/><path fill="#1a1100" fill-opacity=".443" d="M493.773 126.475L373.77-62 189.268 237.013 171.626-45.923z"/><path fill="#00011c" fill-opacity=".576" d="M666.175 399.058l-70.09 44.865-78.946 243.65L720.206 509.33z"/><path fill="#f0effd" fill-opacity=".565" d="M748.862 754.928l6.868 71.24 72.869 43.58 45.174-129.06z"/><path fill="#9baab2" fill-opacity=".608" d="M741.123 437.66l144.801 77.821-266.339 95.35-17.732 102.296z"/><path fill="#85d8ff" fill-opacity=".345" d="M87.877 730.64L-62 460.738V1086L85.544 845.308z"/><path fill="#754a3d" fill-opacity=".937" d="M664.844 760.376L814.2 646.531 695.721 846.473l-219.169-127.34z"/><path fill="#01498f" fill-opacity=".663" d="M170.044 364.815l-50.237 76.188 229.274-27.198-84.192-94.411z"/><path fill="#ffe2cb" fill-opacity=".435" d="M270.48 70.681l158.956-8.518-30.422 49.479-109.514 2.904z"/><path fill="#2bb4fd" fill-opacity=".388" d="M605.842 1004.151l20.042-140.579 87.104 181.376-471.148 17.946z"/><path fill="#724a43" fill-opacity=".702" d="M246.815 834.513l-59.878 144.05-81.286-228.936 112.098-140.071z"/><path fill="#f7f6e0" fill-opacity=".322" d="M544.917 488.257l-33.45 50.149-35.745-38.187 21.313-88.418z"/><path fill="#ba2100" fill-opacity=".42" d="M861.691 170.494L689.661 367.05l12.48 44.639 85.828 34.073z"/><path fill="#430101" fill-opacity=".655" d="M705.855 632.205l-16.725 33.137-52.61-66.397 103.927-14.386z"/><path fill="#b0bdb7" fill-opacity=".976" d="M615.134-62L459.845 396.892l16.672-149.426L656.21 357.98z"/><path fill="#432d06" fill-opacity=".412" d="M494.604 164.078L299.719 241.41l79.306 162.314L449.698 12.92z"/><path fill="#66818e" fill-opacity=".694" d="M-62-42.202l219.654 15.818L-62 257.47l269.403 42.605z"/><path fill="#b9d9f3" fill-opacity=".612" d="M298.066 284.92l18.598 61.595 43.257 57.956-61.018-36.51z"/><path fill="#053168" fill-opacity=".553" d="M516.627 293.152L707.362 445.62l-513.943-61.113 136.29 188.595z"/><path fill="#00070b" fill-opacity=".604" d="M239.315 541.63l-86.87 199.943-16.814-299.708 182.353 227.866z"/><path fill="#00325f" fill-opacity=".612" d="M639.037 981.845l-25.821-214.888-70.209 222.372L504.532 1086z"/><path fill="#054199" fill-opacity=".455" d="M52.347 725.521l43.036-28.802 45.466-190.297L25.266 607.246z"/><path fill="#261d12" fill-opacity=".545" d="M399.323 153.793l-35.476-1.524-174.312-18.261 203.946-20.82z"/><path fill="#b19c88" fill-opacity=".831" d="M605.784 753.911l150.733-58.383-84.377-43.278-47.272-83.84z"/><path fill="#f6fdfd" fill-opacity=".635" d="M800.892 1073.318l-178.816-71.095 8.802 12.404-186.142 35.424z"/><path fill="#000f2b" fill-opacity=".349" d="M633.9 566.998L95.404 604.8l-84.34-294.074-18.256 207.031z"/><path fill="#9bb2c0" d="M484.744 336.672l-111.992 70.532L451.04 380.5l118.12-158.862z"/><path fill="#fbf6f1" fill-opacity=".22" d="M83.931 313.414l24.805 213.142 47.54-151.784 100.863-41.195z"/><path fill="#123455" fill-opacity=".604" d="M185.194 859.989l-18.499 70.981L227.162 1086 395.89 953.618z"/><path fill="#840a0b" fill-opacity=".627" d="M724.55 525.187l-16.757-25.772-77.436 41.5 6.99 40.678z"/><path fill="#878987" fill-opacity=".714" d="M680.111 353.198l19.557-218.233L820.207-62 731.25 268.098z"/><path fill="#ebf1e6" fill-opacity=".525" d="M275.518 474.114l-51.397 5.555 20.727-19.39 30.727 36.653z"/><path fill="#0077d8" fill-opacity=".384" d="M500.75 295.727l125.605 44.463 58.15 26.635-220.92 14.098z"/><path fill="#2d2f2b" fill-opacity=".541" d="M103.116 196.766l14.47 34.843 132.364-39.084 43.664-140.79z"/><path fill="#e7b5a3" fill-opacity=".647" d="M83.151 1029.228l95.135-65.158 5.588 102.069-49.829-132.584z"/><path fill="#0f100d" fill-opacity=".514" d="M695.433 787.581l87.766-80.169-359.421 179.666-136.434-151.75z"/><path fill="#85938c" d="M355.807 591.534l53.24 3.432-.543 59.019-59.938-2.409z"/><path fill="#0d1725" fill-opacity=".933" d="M545.91 657.092L340.349 882.474 629.186 514.3l-21.79 175.647z"/><path fill="#eea892" fill-opacity=".294" d="M546.626 622.964l-51.849 25.05 165.168 66.64-170.656 13.597z"/><path fill="#8f766e" fill-opacity=".663" d="M694.196 1086l-74.2-265.716 15.432-35.675L791.114 1086z"/><path fill="#060f1b" fill-opacity=".663" d="M356.58 611.472l148.776 2.424L639.21 489.138 392.468 616.7z"/><path fill="#a2a89a" fill-opacity=".682" d="M469.013 283.828L537.65-59.703l-95.64 70.261 39.853 63.84z"/><path fill="#4a313a" fill-opacity=".522" d="M898-5.41l-94.19 82.39-1.56 388.687L898 366.4z"/><path fill="#bdc4bf" fill-opacity=".639" d="M-16.276 842.074L-38.15 723.265l123.9 27.425 4.592 85.188z"/><path fill="#b68d64" fill-opacity=".416" d="M556.756 115.155L375.659 257.107l-44.513-168.13-42.536 113.61z"/><path fill="#6e7c8c" fill-opacity=".596" d="M898 488.67l-109.113-48.684-43.665 106.399 59.026 168.008z"/><path fill="#dbf3ff" fill-opacity=".302" d="M732.522 563.526l-67.57 40.735-6.811-40.395 116.74-49.345z"/><path fill="#ff8261" fill-opacity=".216" d="M159.144 1021.103L205.16 611.32l40.97 195.256L107.75 860.7z"/><path fill="#0b131c" fill-opacity=".922" d="M450.498 1035.376l-80.56-401.687 127.97 107.094 123.535 81.289z"/><path fill="#30709c" fill-opacity=".514" d="M204.93 1086l39.737-273.4-4.598 185.291 104.394 41.008z"/><path fill="#252f38" fill-opacity=".992" d="M333.65 625.793l-25.52 19.982 39.124 2.263-4.308-92.05z"/><path fill="#674740" fill-opacity=".761" d="M536.81 797.161l-36.472-25.84-3.44-42.182 48.573-40.007z"/><path fill="#95676e" fill-opacity=".49" d="M209.495 344.038l-97.986-81.265 78.124-46.8 167.863 59.63z"/><path fill="#c3a8b1" fill-opacity=".329" d="M701.71 771.065l54.644 121.02 51.313 40.896-12.35-205.4z"/><path fill="#e8ffed" fill-opacity=".329" d="M330.545 613.84l-31.919-29.471 44.298 82.53-56.94-11.859z"/><path fill="#008cfa" fill-opacity=".329" d="M288.657 354.976l-140.823 40.739 6.325-21.123 167.007-83.779z"/><path fill="#12458a" fill-opacity=".396" d="M721.979 571.76l-6.653-6.499L627.6 367.833l66.818 36.006z"/><path fill="#2d2a26" fill-opacity=".929" d="M195.408 42.557l33.763 113.95 92.56-143.093L477.48 64.932z"/><path fill="#786151" fill-opacity=".596" d="M201.255 151.13L-27.778 71.815 191.445 44.43l5.837-6.76z"/><path fill="#caa17a" fill-opacity=".498" d="M761.784 593.87l11.272 36.542-47.95 93.212-140.912 46.25z"/><path fill="#296b97" fill-opacity=".302" d="M-29.855 1072.454L96.653 887.53l-64.578-23.774-53.467 76.477z"/><path fill="#1a0400" fill-opacity=".259" d="M475.232 219.745l-39.726-73.37L404.188-1.232l68.262 55.484z"/><path fill="#101e2d" fill-opacity=".973" d="M329.278 741.298l-60.631-123.71 44.192-.002-83.53 89.867z"/><path fill="#62372c" fill-opacity=".231" d="M891.9 966.809l-29.707 111.3-224.54-167.073 77.858-111.662z"/><path fill="#10284e" fill-opacity=".553" d="M541.507 585.897L422.42 535.43 210.442 370.066l204.351 47.052z"/><path fill="#ff551c" fill-opacity=".267" d="M699.103 286.918l80.163-6.37 17.572 94.026-51.51 85.685z"/><path fill="#7e7266" fill-opacity=".478" d="M100.668 505.45l39.835-81.195-98.757-61.768-34.974 25.88z"/><path fill="#7d5623" fill-opacity=".49" d="M795.986 729.983l-106.995 20.122 77.237-89.895 19.858-33.486z"/><path fill="#9c755f" fill-opacity=".631" d="M163.279 901.973L21.86 1086l45.19-115.198 50.384-355.541z"/><path fill="#dbf6ff" fill-opacity=".396" d="M319.774 399.362l-4.427-32.956 53.875 39.524 102.683-31.763z"/><path fill="#2e2a17" fill-opacity=".714" d="M382.38 284.727l-62.053 2.991 69.996 76.416-16.721-53.011z"/><path fill="#fffffd" fill-opacity=".129" d="M294.447 226.868l56.61-59.537L188.709-62 350.325 63.476z"/><path fill="#000f2b" fill-opacity=".337" d="M573.453 388.013l-67.776-22.703 115.427 208.456 86.408-93.66z"/><path fill="#0566a4" fill-opacity=".439" d="M643.377 1017.823l-94.54-59.022 37.871-11.386 54.149-81.431z"/><path fill="#5a859a" fill-opacity=".58" d="M-41.223 171.178l142.514 113.726-72.6 128.452 81.651-283.934z"/><path fill="#e2efd7" fill-opacity=".286" d="M534.58 638.825l8.355-69.294-32.98 82.853-242.897 8.82z"/><path fill="#0d192c" fill-opacity=".765" d="M488.23 603.614l-4.945 125.011-112.8-94.107 54.354 160.21z"/><path fill="#9c6d68" fill-opacity=".431" d="M609.244 391.827l25.887-13.523 178.376-94.69-.283-116.818z"/><path fill="#b3beb6" fill-opacity=".616" d="M462.948 289.442l-17.508-73.233L718.66-62l-76.684 402.375z"/><path fill="#95a297" fill-opacity=".867" d="M245.07 636.325l76.362 26.03-25.76-16.19-36.825 11.22z"/><path fill="#fe374b" fill-opacity=".208" d="M618.074 789.212l94.347-14.81 19.446 73.619-101.65 19.071z"/><path fill="#101922" fill-opacity=".439" d="M152.208 398.146l329.383 52.859L207 417.835l-81.642 345.763z"/><path fill="#563744" fill-opacity=".996" d="M723.723 577.656l20.048 11.221-116.49-146.912 43.232 53.714z"/><path fill="#94e0ff" fill-opacity=".157" d="M283.173 522.676l-83.148-103.041L322.75 437.69l-52.836 38.45z"/><path fill="#071d38" fill-opacity=".62" d="M375.553 991.41l248.258-21.78L283.633 1086l-43.876-358.262z"/><path fill="#033d5b" fill-opacity=".216" d="M24.375 259.826l-34.44 299.432L70.71 286.213l99.487-161.26z"/><path fill="#6e6255" fill-opacity=".827" d="M238.63-53.086l33.424 76.19 2.147.486L478.017 7.446z"/><path fill="#778d9f" fill-opacity=".604" d="M503.586 516.773l58.687-.625-122.327-86.524 110.551 46.09z"/><path fill="#c13b52" fill-opacity=".337" d="M181.52 819.65l53.758 52.62 7.535-96.122-5.392-87.474z"/><path fill="#42261a" fill-opacity=".596" d="M488.575 799.776l49.88-55.968 84.029-44.292-14.233 8.722z"/><path fill="#e8c2ba" fill-opacity=".412" d="M531.567 676.8l44.95 2.207-1.742 4.298-79.514 29.547z"/><path fill="#8f0006" fill-opacity=".447" d="M755.481 562.277l-13.389 43.531-82.62 9.86 54.541-42.11z"/><path fill="#e4120a" fill-opacity=".408" d="M692.526 552.35l-45.103-7.615 61.422-45.503 9.677-5.242z"/><path fill="#0c3c78" fill-opacity=".451" d="M324.976 521.84l102.912 21.698-217.214 6.177-31.935-83.521z"/><path fill="#fffef7" fill-opacity=".133" d="M839.166 1086H47.35l607.992-78.76 123.14-23.839z"/><path fill="#8b6b42" fill-opacity=".592" d="M345.848 190.232l97.698 176.99-61.202 18.144 96.003-228.948z"/><path fill="#a48561" fill-opacity=".816" d="M429.49 362.782l41.917-34.065-31.21-91.893-19.195 29.377z"/><path fill="#4b669b" fill-opacity=".424" d="M54.34 569.262l-69.17-.596 41.162 128.25 71.152 37.173z"/><path fill="#08101a" fill-opacity=".769" d="M364.8 952.903l183.744-258.69-46.619 45.4-213.704-21.212z"/><path fill="#652519" fill-opacity=".608" d="M131.57 1049.332l18.5-61.958 21.09 87.11L122.735 1086z"/><path fill="#0c192d" fill-opacity=".749" d="M216.31 670.96l259.627 72.753 29.283-43.868 73.158-48.534z"/><path fill="#fdfef2" fill-opacity=".353" d="M270.497 494.547l-51.714-31.96 40.823 9.25 12.016 15.974z"/><path fill="#070c0f" fill-opacity=".51" d="M640.362 576.413l7.826-136.254-164.923 188.243-26.384-31.395z"/><path fill="#fff9ed" fill-opacity=".141" d="M75.387 364.078l127.027-138.78-33.873 134.199-40.964 55.354z"/><path fill="#e6f7ff" fill-opacity=".22" d="M898 776.04l-198.656-.604 54.11-31.479 37.13 114.486z"/><path fill="#041d0b" fill-opacity=".184" d="M675.297 616.333l-23.948 92.93 76.05-79.431 49.452 1.139z"/><path fill="#0c1827" fill-opacity=".969" d="M228.687 587.864l257.733-10.66-71.385 45.283-7.822-34.677z"/><path fill="#0d2549" fill-opacity=".741" d="M358.973 428.347l192.364-43.722 26.453-13.893-129.59 17.977z"/><path fill="#ddb19f" fill-opacity=".498" d="M174.273 946.458l-60 109.768-7.515-70.542 10.147-33.716z"/><path fill="#032b32" fill-opacity=".22" d="M61.775-35.801l-99.014 190.214 143.5-43.833L-62 45.44z"/><path fill="#fcfebe" fill-opacity=".224" d="M431.164 609l77.875 43.929-12.11-48.457 37.5 19.748z"/></svg>