<svg xmlns="http://www.w3.org/2000/svg" width="228" height="278" viewBox="0 0 836 1024"><path fill="#615247" d="M0 0h836v1024H0z"/><path fill="#eae7e1" fill-opacity=".808" d="M233.112 1025.79L203.76 770.662l-193.59 73.34-28.929 214.552z"/><path fill="#000105" fill-opacity=".6" d="M833.915 624.98l-277.77 303.373-283.48 47.256-194.59-363.403z"/><path fill="#cde4d7" fill-opacity=".482" d="M481.753-62H898v335.934l-412.149-13.04z"/><path fill="#b8c4b7" fill-opacity=".604" d="M-62-3.65v249.117l331.578 32.838 65.82-280.101z"/><path fill="#fa0010" fill-opacity=".851" d="M221.985 1065.47l469.48.804-48.261-143.773-413.086 47.483z"/><path fill="#29231c" fill-opacity=".792" d="M861.45 465.262L768.5 845.778 242.103 263.213 898 338.543z"/><path fill="#0d0d06" fill-opacity=".729" d="M134.292 367.94l101.936-23.598 34.47 265.963L1.148 815.632z"/><path fill="#d7e7ff" fill-opacity=".353" d="M294.407 657.238l-40.53-114.54 289.415 1.225 17.737 114.164z"/><path fill="#e1d0d3" fill-opacity=".698" d="M553.585 423.359l24.33 50.363-50.996 37.618-23.423-48.067z"/><path fill="#f8f8f8" fill-opacity=".765" d="M773.334 813.867L898 827.236l-12.034-58.774-90.8 8.107z"/><path fill="#e5fb32" fill-opacity=".541" d="M50.569 542.872l25.495-105.027-95.435-31.594L-62 637.138z"/><path fill="#2c1300" fill-opacity=".58" d="M311.515 432.26l155.417-212.045L499.925 40.62l-283.47 371.462z"/><path fill="#999b8a" fill-opacity=".624" d="M217.971 841.969l-12.234-114.942L100.6 763.506l-93.202 92.72z"/><path fill="#152000" fill-opacity=".51" d="M-62 194.886l14.575 205.053L337.963 553.93 36.3 271.882z"/><path fill="#1a1916" fill-opacity=".969" d="M898 309.613l-310.781 79.495-83.682 424.36 255.649-394.76z"/><path fill="#53666a" fill-opacity=".541" d="M540.78 179.65l246.494-24.75 14.244-114.544L590.1 33.433z"/><path fill="#dcd2b8" fill-opacity=".498" d="M479.108 245.379l-23.54-67.233 409.982 11.657 12.608 64.391z"/><path fill="#ffce52" fill-opacity=".635" d="M241.134 479.875l25.148-47.525 28.582 4.938-4.871 69.726z"/><path fill="#b2ae9c" fill-opacity=".812" d="M898-62L-62 14.808l489.36 8.348 53.528 19.083z"/><path fill="#f3ddbe" fill-opacity=".408" d="M307.93 259.575l-31.247-94.883 216.686-5.377-553.33 50.583z"/><path fill="#794015" fill-opacity=".663" d="M725.813 510.203l80.435 258.073L898 703.746l-160.77-282.93z"/><path fill="#ee0817" fill-opacity=".82" d="M615.904 887.692L690.61 1086 226.073 959.592l238.538 1.217z"/><path fill="#043147" fill-opacity=".353" d="M131.322 28.216L54.41 50.868l-33.436 63.25 72.444 60.867z"/><path fill="#0d1318" fill-opacity=".514" d="M272.426 549.265L53.138 642.49l237.66-156.977 389.985 25.844z"/><path fill="#161415" fill-opacity=".702" d="M132.552 546.183L619.886 884.11l-160.797 76.296-158.99 6.213z"/><path fill="#272425" fill-opacity=".69" d="M321.724 603.98l376.154 29.907-429.625 3.63 82.155-36.355z"/><path fill="#6a3e1f" fill-opacity=".831" d="M451.669 90.02l-174.437 31.074 244.51 160.28L388.565 397.8z"/><path fill="#ad7700" fill-opacity=".361" d="M138.558 525.68L-62 882.746l167.98-496.491L-62 430.051z"/><path fill="#b9b8bd" fill-opacity=".824" d="M350.219 612.442l81.435-68.787-164.27 6.674 274.883 67.123z"/><path fill="#272412" fill-opacity=".553" d="M793.462 1086l-24.245-193.623 62.257 2.784-202.389-12.005z"/><path fill="#453c40" d="M396.661 382.511l-53.466 200.884-32.083-91.525 331.177-80.514z"/><path fill="#e4dfda" fill-opacity=".933" d="M103.732 849.289L-62 980.694l293.305-2.817-6.153-75.484z"/><path fill="#e08356" fill-opacity=".259" d="M247.373 342.14l158.463-149.47 13.022-132.632-61.084-1.713z"/><path fill="#3e383d" fill-opacity=".694" d="M448.16 519.588L-45.587 267.324l563.811 165.252-48.871 175.87z"/><path fill="#29271e" fill-opacity=".984" d="M578.219 799.296l138.92 24.782 67.378-3.96-35.618-298.66z"/><path fill="#001c26" fill-opacity=".231" d="M270.729 70.84L522.31 50.023 200.209 25.277l25.406 152.634z"/><path fill="#161517" fill-opacity=".643" d="M433.564 214.819l77.089 173.717 110.96 9.865-84.975-117.004z"/><path fill="#474147" d="M418.863 491.978l5.9-53.248 14.099 206.562-18.399-35.585z"/><path fill="#0b0b0b" fill-opacity=".741" d="M530.663 557.055L766.49 372.692 500.906 537.415l13.56 65.816z"/><path fill="#8a8369" fill-opacity=".565" d="M625.635 799.726l-20.263 76.468 283.75 10.84-254.67-71.476z"/><path fill="#8c5b3b" fill-opacity=".847" d="M352.35 335.978l132.58-23.22-19.728 25.506-69.758 35.003z"/><path fill="#feeff2" fill-opacity=".251" d="M266.884 650.756l-28.003-12.531 291.362.416-190.431 27.429z"/><path fill="#0a0a0e" fill-opacity=".671" d="M242.339 617.021l39.992-88.624-131.646-145.63-83.392 119.137z"/><path fill="#c3aac1" fill-opacity=".576" d="M70.275 499.507l-4.564 27.622-76.545 64.93 72.056-113.27z"/><path fill="#70725b" fill-opacity=".631" d="M888.408 253.363l-234.898 94.47-118.47-91.446 172.61 7.298z"/><path fill="#a69fae" fill-opacity=".443" d="M121.766 412.749l10.95-54.966 87.97-57.126-14.192 6.067z"/><path fill="#8e1e2a" fill-opacity=".996" d="M200.42 319.324l-5.48 26.449 68.51-2.551 34.216-49.693z"/><path fill="#f7f8fe" fill-opacity=".635" d="M510.83 616.151l-22.152-78.448-3.167 73.654-131.166-43.12z"/><path fill="#030505" fill-opacity=".6" d="M293.94 602.504l-2.505-50.462 21.128 16.139 6.694 19.473z"/><path fill="#503115" fill-opacity=".698" d="M484.08 128.898l-204.13-23.277 7.547 64.62L484.772 55.919z"/><path fill="#000407" fill-opacity=".6" d="M401.959 256.637l-182.283 113.59 91.51 11.426 135.67-139.41z"/><path fill="#f8f9ff" fill-opacity=".608" d="M276.015 613.377l126.219-6.907-102.55 1.68-27.27-62.594z"/><path fill="#e6d6d2" fill-opacity=".2" d="M742.952 1086l-74.712-28.591-68.975-191.436 81.155 89.588z"/><path fill="#7e481c" fill-opacity=".616" d="M807.554 835.352L898 765.788v242.889L732.114 1086z"/><path fill="#e4d1b3" fill-opacity=".302" d="M698.469 48.98L548.175-62h218.874l-39.12 304.42z"/><path fill="#141313" fill-opacity=".949" d="M213.9 832.84l20.298 117.41 422.403-320.261-337.15 95.053z"/><path fill="#f1f1ef" fill-opacity=".373" d="M407.99 74.782l-19.137 44.172-20.999-27.455-13.652-20.932z"/><path fill="#f3f5fb" fill-opacity=".525" d="M317.187 597.373l-22.86 20.706 49.355-7.543-24.074-64.411z"/><path fill="#f8f8ff" fill-opacity=".553" d="M443.359 529.827l-11.517 61.056-69.555-18.37 98.522 23.82z"/><path fill="#beb9a5" fill-opacity=".773" d="M610.427 253.41l-146.13-13.401 72.16-213.005-2.714 114.206z"/><path fill="#beb9a5" fill-opacity=".694" d="M-62 140.804L20.981 245.75l331.63 4.654-138.6-36.688z"/><path fill="#002c46" fill-opacity=".306" d="M660.787 111.424l12.03 81.87 40.89-122.36-73.204-28.428z"/><path fill="#2c2a2d" fill-opacity=".941" d="M334.898 511.492l13.122 188.995 2.677-213.836.588 67.206z"/><path fill="#464a3f" fill-opacity=".541" d="M3.549 890.071l47.983-185.773 277.04 61.17-253.293-6.817z"/><path fill="#090000" fill-opacity=".49" d="M747.691 591.118l24.972-4.718-109.634-252.784-53.4 135.844z"/><path fill="#797e79" fill-opacity=".451" d="M47.619 1086l.337-94.775 157.606 80.954-17.151-77.572z"/><path fill="#fff1f5" fill-opacity=".263" d="M522.926 427.386l-17.928 38.94 43 49.367 33.03-63.719z"/><path fill="#8e4f27" fill-opacity=".769" d="M7.69 572.327l109.87-43.223-66.125 80.384-80.217 350.736z"/><path fill="#797765" fill-opacity=".592" d="M270.607 284.418l20.445 27.33 16.037-68.164L-8.898 262.87z"/><path fill="#f5f8ff" fill-opacity=".369" d="M536.22 607.219l-18.412-103.52 28.386 94.798-97.503 19.815z"/><path fill="#5b2e09" fill-opacity=".71" d="M490.438 150.8l-45.41 107.072-91.08-4.697 89.56-142.078z"/><path fill="#232601" fill-opacity=".71" d="M-31.097 403.09l49.567-61.029 132.279-17.03-21.895 44.001z"/><path fill="#254353" fill-opacity=".302" d="M746.992 43.625l20.165 151.452 22.014-107.92L892.723 24.29z"/><path fill="#fec15b" fill-opacity=".557" d="M238.517 448.428l52.79-19.702 11.291 46.237-33.457-1.37z"/><path fill="#f9fcff" fill-opacity=".384" d="M524.758 615.205l6.73-81.568 19.094 72.083-43.24-2.52z"/><path fill="#89fb00" fill-opacity=".196" d="M-62 478.52l125.84 6.277 73.84-110.977-139.746 29.547z"/><path fill="#c0bba7" fill-opacity=".729" d="M896.276 178.94l-107.791 65.92 18-144.645 80.49-56.732z"/><path fill="#21231e" fill-opacity=".992" d="M512.674 626.776l254.273 120.387-78.676-209.688-2.658-21.988z"/><path fill="#ececef" fill-opacity=".631" d="M354.872 540.007l2.487 37.758 63.885 22.528-53.607-42.183z"/><path fill="#020500" fill-opacity=".271" d="M30.247 605.329l119.073-78.04 60.187-282.378-71.96 510.762z"/><path fill="#fffefc" fill-opacity=".537" d="M895.28 785.943l-99.104 40.888-10.325-40.324L898 744.885z"/><path fill="#191916" fill-opacity=".98" d="M243.654 613.436l5.923-152.658-98.015 165.125 270.013 8.99z"/><path fill="#b48366" fill-opacity=".804" d="M416.093 151.2l-117.587 35.193 18.537-43.305 81.78 30.48z"/><path fill="#212319" fill-opacity=".753" d="M776.575 476.338l-98.577-151.056 180.914 54.093 23.732 331.812z"/><path fill="#fcfcff" fill-opacity=".631" d="M375.936 541.266l-18.659 17.806 53.09-1.603 3.273-12.532z"/><path fill="#242624" fill-opacity=".776" d="M492.469 482.778l226.257 100.88-239.573-40.222-4.998 98.988z"/><path fill="#2c2016" fill-opacity=".514" d="M806.333 901.887l-2.887 91.138L898 998.86l-99.419-98.23z"/><path fill="#43250e" fill-opacity=".839" d="M472.074 240.358l-41.48 21.464-111.841-43.36-32.914 14.568z"/><path fill="#ffeff1" fill-opacity=".165" d="M577.957 656.424l-44.138-12.311-231.166-6.383 98.527 23.273z"/><path fill="#c1beaf" fill-opacity=".282" d="M61.329 753.58l144.006 52.359 1.25 65.073-134.974 14.182z"/><path fill="#af4800" fill-opacity=".157" d="M708.77 482.494l64.323 301.18 69.67-15.2-41.297-228.318z"/><path fill="#f2040c" fill-opacity=".51" d="M574.708 1012.872l-349.674-63.768 5.734 109.255L458.558 1086z"/><path fill="#000712" fill-opacity=".357" d="M466.063 256.882l59.67 130.143-178.277 21.348L567.764 287.49z"/><path fill="#3d3b3f" d="M373.569 562.311l52.01 9.025 144.81-282.251-148.584 293.137z"/><path fill="#5b4e56" fill-opacity=".384" d="M346.83 849.643l119.534-13.347-71.054 49.765-40.93-17.475z"/><path fill="#eb7c51" fill-opacity=".243" d="M795.164 1022.845l29.969-198.066L898 951.45l-124.736-73.06z"/><path fill="#4d4247" fill-opacity=".91" d="M318.14 403.603l-17.52 86.543 130.493 10.02 118.014-77.01z"/><path fill="#4f4c48" d="M377.023 583.84L12.865 668.768l333.314-77.516 60.558 6.214z"/><path fill="#c3bba3" fill-opacity=".29" d="M572.406 294.834L501.65 266.95l-37.29-101.156 204.012 52.275z"/><path fill="#18181b" fill-opacity=".569" d="M315.616 494.218l44.697 142.906-54.968-10.576 58.296-37.104z"/><path fill="#472e15" fill-opacity=".369" d="M448.637 144.137L350.546 16.339 513.988 70.66l-205.623 78.073z"/><path fill="#f4f3fa" fill-opacity=".682" d="M322.06 615.19l-6.186-64.249 19.919 12.482.61 26.895z"/><path fill="#7a7e76" fill-opacity=".651" d="M520.111 35.595l-231.44-8.797 164.066-15.3 46.315 99.23z"/><path fill="#0f0f0f" fill-opacity=".686" d="M96.453 658.899l295.42 11.158 7.203-40.737 23.346 201.566z"/><path fill="#3b2f16" fill-opacity=".722" d="M29.628 816.978l82.925-229.612 12.758-47.701-162.374 303.439z"/><path fill="#143d56" fill-opacity=".396" d="M42.289 81.215l11.585 52.698L81.92 147.43 80.282 42.965z"/><path fill="#7c7f72" fill-opacity=".22" d="M279.167 777.807l-70.614-20.682 19.05-73.527-259.338 178.387z"/><path fill="#717075" fill-opacity=".996" d="M284.443 661.454l-14.736-38.776 77.2 47.902-24.044-32.075z"/><path fill="#cac2b3" fill-opacity=".361" d="M216.478 218.626l56.291 23.955 13.457-174.419L396.856-62z"/><path fill="#af744f" fill-opacity=".561" d="M37.529 586.05L-62 1013.272l82.8-160.078-82.8-189.74z"/><path fill="#fdb0f6" fill-opacity=".18" d="M137.58 348.625l119.268-47.334-48.205 1.208-98.848 108.31z"/><path fill="#331e0e" fill-opacity=".667" d="M313.939 248.176l100.593 109.732-2.5-44.637-119.79-24.556z"/><path fill="#505039" fill-opacity=".612" d="M898 278.004l-259.252 15.298 25.324 47.63 186.309-7.284z"/><path fill="#b8b4a1" fill-opacity=".451" d="M185.355 111.206L121.808-62-62 82.28 265.706-54.945z"/><path fill="#fdf8ff" fill-opacity=".365" d="M473.527 571.48l-44.685 25.543-85.735 3.028 46.096 19.146z"/><path fill="#d1c6af" fill-opacity=".247" d="M173.518 62.647l-21.063 146.628 283.418-12.831-215.012 28.588z"/><path fill="#0a0c0c" fill-opacity=".408" d="M524.67 502.674l.47 102.446-27.566.27 20.725-37.313z"/><path fill="#8a9188" fill-opacity=".608" d="M551.294 60.494l151.648 138.731-115.193-3.651 46.538-143.272z"/><path fill="#fbf9fe" fill-opacity=".459" d="M541.039 543.36l-11.888 28.834-.69 51.494 13.668-27.028z"/><path fill="#171217" fill-opacity=".588" d="M430.808 608.516l27.577 13.117-168.017 14.375 29.699-10.937z"/></svg>