<svg xmlns="http://www.w3.org/2000/svg" width="228" height="278" viewBox="0 0 836 1024"><path fill="#625856" d="M0 0h836v1024H0z"/><path fill="#b9c3c6" fill-opacity=".937" d="M581.4 886.733L759.413 1086l-2.94-320.96L597.48 630.02z"/><path fill="#320006" fill-opacity=".475" d="M622.924 1029.445l-116.07-608.78-293.426-141.473L84.945 1086z"/><path fill="#a9cfbb" fill-opacity=".294" d="M889.046-62L-62 1.589 5.305 313.745l845.844 35.67z"/><path fill="#000907" fill-opacity=".718" d="M713.552 704.145L898 1086 694.816 360.345l-79.16 273.294z"/><path fill="#121715" fill-opacity=".882" d="M-50.718 649.19l25.817 62.475 261.137-189.023-63.107-152.805z"/><path fill="#f1fff6" fill-opacity=".231" d="M140.488 693.705l201.016-21.921 31.9-73.064 293.279 194.446z"/><path fill="#afd5e9" fill-opacity=".353" d="M-62 1012.812l128.984 56.09 65.983-324.122-167.1-.718z"/><path fill="#17140f" fill-opacity=".62" d="M342.592 73.775L543.503 96.51l-1.31-41.25-92.138-95.157z"/><path fill="#c69466" fill-opacity=".627" d="M497.88 379.096l56.017-200.433L490.99 72.24l-205.76 62.82z"/><path fill="#d18890" fill-opacity=".627" d="M754.1 1086h136.978L766.193 840.766l-54.366-163.205z"/><path fill="#e0f4ff" fill-opacity=".6" d="M109.33 431.562l-40.403-24.944-20.245 81.117 31.69 7.704z"/><path fill="#802127" fill-opacity=".455" d="M640.748 568.094l61.158-191.25-318.67-111.08 189.062 447.784z"/><path fill="#061c17" fill-opacity=".557" d="M553.758 846.65L616.416 1086 77.008 943.6l298.01-48.012z"/><path fill="#e28a97" fill-opacity=".588" d="M262.036 505.19l86.24 13.243 5.606-78.886-109.331 46.21z"/><path fill="#bfcbce" fill-opacity=".898" d="M725.339 773.31L608.412 606.047 573.64 775.15l27.075 87.081z"/><path fill="#2b2725" fill-opacity=".808" d="M614.18 316.435l-23.87 220.877-69.187 438.63L632.036 498.4z"/><path fill="#171c19" fill-opacity=".831" d="M641.953 704.326l84.57-3.076L898 954.61 769.981 585.806z"/><path fill="#372a2a" fill-opacity=".902" d="M549.391 380.237l-144.752 59.006-61.66-169.525-92.203 84.43z"/><path fill="#8baeab" fill-opacity=".427" d="M898 174.794l-.414-162.017L563.902-62l-14.695 219.035z"/><path fill="#687879" fill-opacity=".643" d="M-58.771 491.46L4.128-62 355.58 136.175l-147.884 235.1z"/><path fill="#0f0901" fill-opacity=".561" d="M466.873 201.64l-83.506-35.617-21.02 27.601 120.132-33.77z"/><path fill="#fde7ed" fill-opacity=".431" d="M274.747 654.372l-48.44 78.661 8.441-58.517 2.654-28.365z"/><path fill="#fe768a" fill-opacity=".314" d="M550.783 579.687l-90.07-136.883 142.04 15.917-30.32-166.183z"/><path fill="#636b6b" d="M879.784 395.052L752.78 586.997l-17.93-59.3-38.142-371.262z"/><path fill="#98b3b3" fill-opacity=".941" d="M717.51 1040.9l-59.448-173.238-79.401-7.083 50.71 107.03z"/><path fill="#1a0c0b" fill-opacity=".412" d="M-62 798.7L80.105 616.48l513.548-16.595-654.378-121.27z"/><path fill="#db485a" fill-opacity=".647" d="M264.383 861.131l131.23-15.918-19.456 45.512-87.55-53.858z"/><path fill="#ff2043" fill-opacity=".286" d="M230.253 678.472l22.175-347.276 43.225-45.376-37.934 336.345z"/><path fill="#fe0e2e" fill-opacity=".227" d="M466.731 899.969l-39.16-15.27 65.243-500.438 35.799-26.868z"/><path fill="#912a38" fill-opacity=".765" d="M369.264 719.417l19.684-140.256 15.161-159.08 43.506 46.764z"/><path fill="#f5bd91" fill-opacity=".361" d="M517.086 122.663l-186.902 54.922 73.267 224.072L356.065 67.95z"/><path fill="#fe2d48" fill-opacity=".424" d="M211.839 335.714l15.868-65.005-28.712 185.27-25.899-130.58z"/><path fill="#260304" fill-opacity=".42" d="M438.234 851.215l-268.097-44.607 29.489-101.6 246.287 62.6z"/><path fill="#070300" fill-opacity=".357" d="M477.478 652.49l75.263-109.917-26.461 157.602-225.615-22.061z"/><path fill="#fe3251" fill-opacity=".341" d="M643.693 564.109l38.354-232.852-39.483 26.663-34.146 283.213z"/><path fill="#b12337" fill-opacity=".573" d="M335.074 332.184l29.221 56.35-18.505 201.48-35.504-29.844z"/><path fill="#4f6f80" fill-opacity=".494" d="M164.816 729.281l-4.609-185.636-72.836 75.598L-62 797.393z"/><path fill="#0f1715" fill-opacity=".667" d="M753.456 466.602l-96.703 236.17-17.682-159.468 73.382-137.397z"/><path fill="#d31e38" fill-opacity=".373" d="M232.633 631.832l-.699 197.857-12.35 79.082-33.665 21.335z"/><path fill="#bfcccf" fill-opacity=".675" d="M698.533 1086l-77.5-372.942 97.066-9.054 29.004 60.696z"/><path fill="#cbf6e9" fill-opacity=".294" d="M513.849 753.317l-110.01-10.175-8.658-6.025 78.51-50.623z"/><path fill="#00281a" fill-opacity=".337" d="M544.918 309.554L348.346 531.402l98.726-279.548-6.716 311.461z"/><path fill="#fe193c" fill-opacity=".267" d="M128.41 846.922l-9.981-23.207 98.586-237.561-56.33 272.204z"/><path fill="#2e3838" fill-opacity=".886" d="M121.79 1086L86.446 921.085l198.031 52.684L717.755 1086z"/><path fill="#ff193b" fill-opacity=".235" d="M603.926 321.64L546.03 535.258 519.65 913.73l64.892-330.268z"/><path fill="#c2fff7" fill-opacity=".455" d="M262.999 481.725l8.97 26.145 55.908.69-24.645-34.783z"/><path fill="#888e94" fill-opacity=".965" d="M28.784 922.48l103.262-15.016-30.862-114.8L-62 809.33z"/><path fill="#27241c" fill-opacity=".459" d="M497.403 19.323l40.466 162.688 21.377-94.943-237.267-3.744z"/><path fill="#edbf97" fill-opacity=".416" d="M361.857 351.91l83.352-160.777-73.436 13.179 38.089 144.626z"/><path fill="#030b05" fill-opacity=".376" d="M365.057 752.557l-73.718-243.46-52.797 230.814 108.177-139.63z"/><path fill="#292322" fill-opacity=".914" d="M230.528 545.365l9.026 57.104L187.7 876.67l-52.175 93.471z"/><path fill="#e5f5ee" fill-opacity=".408" d="M439.015 681.202l-18.67-51.648-25.322 25.578-4.169-44.078z"/><path fill="#151b18" fill-opacity=".851" d="M757.614 693.898l-1.19 116.904 108.956 220.986L898 975.41z"/><path fill="#63706f" fill-opacity=".847" d="M565.594 342.852L898 406.856 582.093 173.379l-75.73 143.968z"/><path fill="#9b8f8c" fill-opacity=".765" d="M545.146 567.914L531.43 445.912l29.288 58.221-52.284 48.243z"/><path fill="#201f1b" fill-opacity=".804" d="M147.727 732.019l78.688-411.952 20.96 81.38-34.957 163.915z"/><path fill="#1b201c" fill-opacity=".702" d="M323.926 820.638l-5.086-125.703 50.56 103.32L260.75 1086z"/><path fill="#0f0000" fill-opacity=".216" d="M621.102 927.781l-422.004 90.545 268.22-139.222 10.14-221.594z"/><path fill="#f6e8ea" fill-opacity=".631" d="M643.535 1015.175l-148.387 58.624L466.973 1086h314.981z"/><path fill="#e0ae86" fill-opacity=".525" d="M414.21 193.045l-48.926 106.501 191.811-148.763 4.17 81.19z"/><path fill="#b7a16d" fill-opacity=".686" d="M513.321 320.096l-15.728-26.526-33.028 84.68 29.932-.78z"/><path fill="#0e1411" fill-opacity=".655" d="M802.444 596.692L645.96 563.98l24.687 144.19 95.077-7.734z"/><path fill="#fa9da5" fill-opacity=".173" d="M266.77 821.105l209.83-218.27-96.846 152.629-70.466-73.978z"/><path fill="#202524" fill-opacity=".698" d="M494.686 437.383L360.13 424.52l5.262-171.501-36.83 71.035z"/><path fill="#ddb28b" fill-opacity=".529" d="M495.872 75.828L347.938 169.64l16.82-94.25 162.51 119.95z"/><path fill="#001813" fill-opacity=".302" d="M187.606 554.605l-144.997 1.743 183.648-322.681-44.688 107.166z"/><path fill="#26251b" fill-opacity=".467" d="M476.199 388.393l-75.024-142.35 26.116-.317 24.304 532.672z"/><path fill="#c2cfd2" fill-opacity=".988" d="M734.628 779.915L603.05 646.008l-28.584 108.658 19.44 112.7z"/><path fill="#373a37" fill-opacity=".733" d="M562.666 360.366l-45.234-73.462 17.839 157.608 18.855 16.262z"/><path fill="#2f3938" fill-opacity=".824" d="M589.286 874.843l37.166 106.76 55.8 24.549-120.139 21.98z"/><path fill="#ff4a62" fill-opacity=".227" d="M368.484 947.793l29.93-110.908-156.157 8.738 98.04 32.477z"/><path fill="#4a2426" fill-opacity=".851" d="M394.634 627.936l-75.191 51.922 56.37-15.45-4.696 121.99z"/><path fill="#fffbed" fill-opacity=".463" d="M88.729 408.183l-32.022 47.804 35.273 23.96 13.1-56.952z"/><path fill="#c5efe4" fill-opacity=".333" d="M356.021 602.969l.66 57.71 38.05-62.705 17.149 28.605z"/><path fill="#0c1712" fill-opacity=".773" d="M135.852 610.628l-30.433 6.283L-5.782 517.09l144.167-22.014z"/><path fill="#6a7172" fill-opacity=".565" d="M-18.729 981.18L212.772 1086 104.46 975.58l-156.977-91.63z"/><path fill="#15211f" fill-opacity=".616" d="M312.438 485.77l-29.597-83.957 20.771-80.475 30.61-9.676z"/><path fill="#261d16" fill-opacity=".314" d="M438.28 162.589l64.016 13.46-156.543-18.327 43.689 51.311z"/><path fill="#0c251f" fill-opacity=".498" d="M282.753 810.929L209.6 992.286l39.653-225.698 28.865-105.654z"/><path fill="#191f1a" fill-opacity=".882" d="M330.657 638.204l18.292 34.002-12.171 246.62 25.587-256.786z"/><path fill="#3a4a4c" fill-opacity=".49" d="M675.165 351.524L898 640.264l-69.228-52.783-145.074-153.166z"/><path fill="#2f1b1c" fill-opacity=".475" d="M581.727 580.915l34.81 51.574-1.14-86.79-184.876 35.9z"/><path fill="#912937" fill-opacity=".616" d="M406.176 567.94l-5.63-120.37 50.182-24.286-46.117 296.935z"/><path fill="#dcfffc" fill-opacity=".239" d="M230.22 638.697l162.622 101.181 4.78-124.007-2.376 97.481z"/><path fill="#b7ffe8" fill-opacity=".286" d="M569.374 761.203l-87.405-9 68.89-.704-24.998-49.656z"/><path fill="#191c18" fill-opacity=".671" d="M400.805 699.708l-15.911 307.097 30.015-94.653 18.867-81.016z"/><path fill="#c7ffeb" fill-opacity=".227" d="M566.865 709.617l-24.69 13.781-303.016-48.725 51.959 1.426z"/><path fill="#768381" fill-opacity=".745" d="M343.846 52.697l-2.34 60.194-.578 177.796L102.167 102.93z"/><path fill="#bf4354" fill-opacity=".427" d="M730.031 698.73L898 613.063l-31.496 6.28-72.945 63.867z"/><path fill="#4f1b20" d="M317.854 558.042L290.96 643.89l45.84 54.343-12.096 34.64z"/><path fill="#d7e2ff" fill-opacity=".188" d="M729.25 527.247l41.747 86.278 11.17-38.125-9.888-51.924z"/><path fill="#d1fff4" fill-opacity=".298" d="M449.42 761.674l-18.194-118.748 25.23-24.207-25.12 71.796z"/><path fill="#fe586b" fill-opacity=".541" d="M196.444 393.05l-21.921-56.75 45.777-13.552-12.798 47.846z"/><path fill="#ff0930" fill-opacity=".2" d="M303.693 902.816l-52.392 8.905 81.135-172.179-64.052 37.145z"/><path fill="#e9475a" fill-opacity=".486" d="M561.512 334.649l38.35 26.269.498 82.55-24.305-3.014z"/><path fill="#622228" fill-opacity=".957" d="M463.394 816.048l10.68-100.748 58.096 149.402 36.11-118.571z"/><path fill="#a23341" fill-opacity=".984" d="M523.364 435.38l10.91-81-43.872 64.48-7.863 86.364z"/><path fill="#3d3e39" fill-opacity=".886" d="M420.765-35.395l15.587 133.177-91.846-37.098-.44 59.732z"/><path fill="#e8627d" fill-opacity=".259" d="M-30.253 511.583L74.7 598.333l-62.234-22.026-2.246-25.383z"/><path fill="#05231d" fill-opacity=".431" d="M394.27 539.089l-57.655 118.969 25.625-182.51 16.085-122.71z"/><path fill="#5f6d6a" fill-opacity=".886" d="M98.962 394.915l-5.83-197.118-57.476 21.05-49.89 310.376z"/><path fill="#96784f" fill-opacity=".69" d="M401.52 365.108L528.622 206.65 441.32 343.067l-71.34-59.127z"/><path fill="#e1fbf9" fill-opacity=".384" d="M264.031 643.971l14.16 21.883-34.206-11.246-12.634 61.442z"/><path fill="#defff2" fill-opacity=".325" d="M459.773 698.765l-1.638 36.451 43.505-25.898-.094 56.59z"/><path fill="#120000" fill-opacity=".275" d="M508.145 680.15l61.232 123.51-94.115-19.159 140.168-180.14z"/><path fill="#962c37" fill-opacity=".816" d="M449.067 730.029l-14.143 64.24 39.036 39.727 6.115-50.56z"/><path fill="#454542" fill-opacity=".592" d="M476.705 293.046l-130.828-9.165-205.631 53.98 295.265-61.17z"/><path fill="#a8bfc0" fill-opacity=".808" d="M680.572 859.095l-82.11-43.578 23.346-89.63-43.225 165.407z"/><path fill="#180900" fill-opacity=".267" d="M449.188 202.93l16.902 10.027 41.75-51.326-81.41 25.071z"/><path fill="#402124" fill-opacity=".847" d="M400.724 716.796l-.547-12.734 40.743-4.782-38.744 27.295z"/><path fill="#1f221d" fill-opacity=".537" d="M495.719 702.952l-25.666 45.732 48.956-200.152 12.278 130.074z"/><path fill="#fa5566" fill-opacity=".51" d="M675.282 374.635l-30.855 73.185-4.814-38.78-.778-47.279z"/><path fill="#4f1c21" fill-opacity=".757" d="M392.46 596.654l-.268 91.542 142.763 1.378-166.449-24.517z"/><path fill="#dbfff2" fill-opacity=".333" d="M376.578 703.265l-22.172-64.88 18.59-12.306-17.816-20.557z"/><path fill="#f9fdf7" fill-opacity=".318" d="M537.276 754.103l26.852-14.628-23.475 23.279L481 741.839z"/><path fill="#798582" fill-opacity=".557" d="M778.412 429.823l34.748 40.108L898 292.225 813.828 135.39z"/><path fill="#11160b" fill-opacity=".29" d="M444.755 414.014l-251.922-14.158 213.095-27.448 75.881-55.659z"/><path fill="#1e1f1b" fill-opacity=".675" d="M426.724 657.164l3.54-145.952 46.39-5.027-40.783 137.109z"/><path fill="#c61423" fill-opacity=".145" d="M829.742 944.735l-79.267 22.86L680.968 1086H860.52z"/><path fill="#a39794" fill-opacity=".694" d="M559.503 502.18l-41.119-12.135 24.675-48.067 8.216 101.86z"/></svg>