<svg xmlns="http://www.w3.org/2000/svg" width="228" height="278" viewBox="0 0 836 1024"><path fill="#5d2c2b" d="M0 0h836v1024H0z"/><path fill="#db777c" fill-opacity=".663" d="M201.99 776.87l388.338-146.956-139.292-309.281-183.482 51.096z"/><path fill="#9b2529" d="M343.296 672.397L264.761 1086l359.517-14.607 4.379-428.72z"/><path fill="#0f0b08" fill-opacity=".682" d="M875.573-62l19.74 176.702L-62 87.926V-62z"/><path fill="#edfaff" fill-opacity=".318" d="M299.803 661.032l421.433-13.27-51.259-286.983-52.42 183.986z"/><path fill="#0c1413" fill-opacity=".584" d="M-62 296.103L12.126 1086l175.821-235.363 79.851-619.212z"/><path fill="#ca0003" fill-opacity=".435" d="M193.557 508.402l441.548-17.563 4.136-184.03-369.447 88.386z"/><path fill="#1c1616" fill-opacity=".741" d="M599.747 1069.09L898 921.1 786.528-62 724 625.517z"/><path fill="#e5f4ff" fill-opacity=".365" d="M412.934 664.535l93.417-298.63-91.617 133.597-138.095 22.467z"/><path fill="#6ff7de" fill-opacity=".286" d="M593.664 1086l26.956-198.592-11.585-261.196-84.293 291.72z"/><path fill="#795a49" fill-opacity=".961" d="M261.205 179.946L517.948 302.85 374.628 62.318l-89.332 7.446z"/><path fill="#926454" fill-opacity=".859" d="M167.997 1068.624L108.682 1086l164.9-542.711 77.997.273z"/><path fill="#c7b9bf" fill-opacity=".808" d="M503.213 269.395l-22.255 15.215-96.698 94.498 70.752-32.402z"/><path fill="#6b0000" fill-opacity=".573" d="M471.385 967.272l-74.392-256.046 317.645-109.418L588.09 577.52z"/><path fill="#291514" fill-opacity=".835" d="M461.32 224.51l190.884 118.277 65.676 146.306L898 306.596z"/><path fill="#dcbac2" fill-opacity=".6" d="M686.974 533.693l-178.96 63.47 207.995-26.725-72.934-197.732z"/><path fill="#8b000a" fill-opacity=".682" d="M655.041 495.468L437.37 332.222l157.21 221.616 149.196-23.446z"/><path fill="#c5f5ff" fill-opacity=".384" d="M182.538 599.73l419.86 48.193-266.81 15.856 2.911 1.05z"/><path fill="#a80411" fill-opacity=".529" d="M354.445 316.508L234.402 383.28l108.28 328.517-122.062-169.88z"/><path fill="#cef6fd" fill-opacity=".525" d="M327.478 513.26l155.762-9.881 65.81 13.892-269.732 33.71z"/><path fill="#271f22" fill-opacity=".894" d="M318.129 828.97l3.72-124.32-117.905 264.808L248.92 1086z"/><path fill="#221713" fill-opacity=".733" d="M121.625 222.063l39.397 268.319 258.838-317.06 8.103 167.026z"/><path fill="#60453b" fill-opacity=".953" d="M619.904 587.61l67.322-14.914 38.25 146.722-129.62 121.361z"/><path fill="#f7fdfa" fill-opacity=".525" d="M367.156 373.765l41.37-2.112-50.048-47.746-25.108 22.399z"/><path fill="#ff222f" fill-opacity=".447" d="M396.557 810.513L416.9 630.836l-93.179 151.573L264.765 1086z"/><path fill="#a28488" fill-opacity=".847" d="M567.747 521.693l15.596 32.978-73.479 76.425-250.02.597z"/><path fill="#2e0d0b" fill-opacity=".722" d="M-16.64 148.952l-37.293-33.574L234.363-25.485l43.88 182.142z"/><path fill="#e5edfe" fill-opacity=".42" d="M673.671 499.03l-15.901 9.313-30.918-92.585 58.634-2.14z"/><path fill="#71070d" fill-opacity=".749" d="M571.204 608.016l53.645-82.479-189.472-30.657 204.299-93.377z"/><path fill="#ae0e1c" fill-opacity=".612" d="M548.968 246.532l-11.66 30.22 165.408 120.116-335.419 25.719z"/><path fill="#21181a" fill-opacity=".992" d="M627.702 838.733l197.522-302.357 35.32 362.768-229.37 89.454z"/><path fill="#4d2015" fill-opacity=".663" d="M472.501 992.769l68.452-82.969 38.779 23.529-3.44 41.826z"/><path fill="#d9b6bc" fill-opacity=".973" d="M451.16 412.022l-8.118 66.06 37.042-8.935 5.109-51.465z"/><path fill="#692119" fill-opacity=".573" d="M898 91.757l-435.387 16.338L569.488 275.81l213.316-5.284z"/><path fill="#8a0008" fill-opacity=".545" d="M388.418 1086l211.238-379.132-17.216-50.435-166.331-.813z"/><path fill="#f2f6fa" fill-opacity=".275" d="M396.717 112.912l86.856 150.156 23.638.32-31.855 59.79z"/><path fill="#342523" fill-opacity=".996" d="M146.468 478.064l94.917 171.346-143.21 271.503-27.302-461.04z"/><path fill="#d8ebf9" fill-opacity=".376" d="M304.466 611.79l236.125-43.183-245.742 16.059 28.704-51.876z"/><path fill="#c01924" fill-opacity=".761" d="M261.94 343.929l207.214 150.824-206.161 25.137 179.156-131.88z"/><path fill="#b3131b" fill-opacity=".855" d="M279.56 971.43l222.125 101.331 104.21-4.644L388.93 871.774z"/><path fill="#ddf8ff" fill-opacity=".369" d="M287.572 642.875l-80.89-69.939 19.815 38.58-15.711 12.45z"/><path fill="#97a8ae" fill-opacity=".498" d="M599.64 789.35l-27.513-249.578L453.123 651.01l160.3-25.434z"/><path fill="#f9fef0" fill-opacity=".165" d="M617.51 973.31l1.458-126.492-171.092 144.717 50.448-131.201z"/><path fill="#77462e" fill-opacity=".58" d="M171.769 964.497l50.179-52.333 112.947-218.683-47.478-65.733z"/><path fill="#040e11" fill-opacity=".592" d="M63.39 899.767L-62 896.237v158.688L162.718 1086z"/><path fill="#7f000c" fill-opacity=".208" d="M162.841 605.653l198.329-72.83-40.13 2.526 441.663-2.032z"/><path fill="#563832" fill-opacity=".58" d="M541.258 376.904l301.937 81.609 2.276 156.916-163.96-196.445z"/><path fill="#e4fbfe" fill-opacity=".514" d="M599.758 592.745l48.438-43.51 58.7-9.831 10.677 15.868z"/><path fill="#d5e8f0" fill-opacity=".612" d="M319.767 478.508l-9.825-32.754-23.504 39.228 22.953-5.158z"/><path fill="#d8faff" fill-opacity=".388" d="M327.996 674.282l-35.16-63.631-103.798 2.39 201.288 30.342z"/><path fill="#dfe8b8" fill-opacity=".161" d="M463.492 66.008l-72.23 84.27-154.753 60.86 229.479-47.82z"/><path fill="#3b0205" fill-opacity=".341" d="M484.271 535.645l151.823-56.982-55.142-154.914-88.911 310.4z"/><path fill="#1c0807" fill-opacity=".396" d="M425.471 738.665l162.633-57.344L569 601.604l122.797-32.564z"/><path fill="#fe607b" fill-opacity=".388" d="M668.384 385.675l-9.307-38.441-58.457-36.574-39.362-9.801z"/><path fill="#fdeae9" fill-opacity=".255" d="M715.66 600.834l1.877 92.523-18.74 3.094-8.582-213.261z"/><path fill="#671912" fill-opacity=".463" d="M289.64 137.462l131.098-32.068-403.576 209.08-60.984-186.968z"/><path fill="#e4f9fb" fill-opacity=".525" d="M425.479 364.182l-.336-18.812-81.326 7.837 20.221 18.927z"/><path fill="#5e4728" fill-opacity=".592" d="M355.055 330.771l22.523 27.517 67.275-29.694 40.669-69.97z"/><path fill="#19070d" fill-opacity=".259" d="M223.006 418.305l93.453 187.69L-32.19 318.84l444.746-61.658z"/><path fill="#c61b26" fill-opacity=".718" d="M229.095 594.117l24.647-228.343 93.33 115.697-1.517-162.418z"/><path fill="#bc9398" fill-opacity=".933" d="M565.693 980.484l24.15 5.967L623.945 1086H548.15z"/><path fill="#fdffcf" fill-opacity=".173" d="M296.353 250.036l29.864-162.988 39.038-2.871-90.797.477z"/><path fill="#0d0000" fill-opacity=".255" d="M456.019-62l15.814 338.1 76.82-122.556L898 24.452z"/><path fill="#ba222a" fill-opacity=".447" d="M217.005 581.27l39.54 18.588 190.95-4.668 24.399 34.048z"/><path fill="#c11b23" fill-opacity=".753" d="M317.794 673.533l100.6-17.571-51.24 61.595-32.409 144.878z"/><path fill="#b1876e" fill-opacity=".4" d="M212.743 977.444l-85.36 40.491 154.565-350.039-92.153 121.36z"/><path fill="#2a1917" fill-opacity=".631" d="M898 323.61l-244.246-20.817 75.217 333.972L898-62z"/><path fill="#dde1e7" fill-opacity=".729" d="M438.004 631.553l23.006 23.9-146.99 8.797 32.77-22.391z"/><path fill="#8f4236" fill-opacity=".325" d="M526.16 136.54l20.6 79.274 70.093 29.89L898 164.91z"/><path fill="#71f8f2" fill-opacity=".161" d="M453.642 508.37l95.444 2.158 25.675 133.109-49.026 13.436z"/><path fill="#3b211f" fill-opacity=".933" d="M209.039 650.706L-14.985 447.478l251.263 2.197 5.986 64.665z"/><path fill="#720a0f" fill-opacity=".718" d="M526.612 776.795l58.99-22.019 6.658-251.363-22.95 162.735z"/><path fill="#6b0300" fill-opacity=".49" d="M673.638 571.777l-35.022 28.173-24.856 60.874-5.239 71.56z"/><path fill="#b8171f" fill-opacity=".667" d="M527.323 829.176l-57.79 135.572-185.93 44.347L619.05 787.26z"/><path fill="#f61521" fill-opacity=".314" d="M675.957 498.08l19.697-39.937 4.632 77.702-140.935 32.324z"/><path fill="#935d4c" fill-opacity=".973" d="M518.593 861.755l80.657-53.409-82.567 138.96-43.308 10.66z"/><path fill="#e2eaea" fill-opacity=".486" d="M347.336 350.648l53.617 19.223-44.748-21.291 5.924-73.42z"/><path fill="#6c493a" fill-opacity=".937" d="M314.037 633.403l-27.892 5.069-37.583 3.94 73.365 43.16z"/><path fill="#281514" fill-opacity=".722" d="M489.15 259.42l98.685 44.375 274.457 159.056-385.695-279.076z"/><path fill="#c7b5ba" fill-opacity=".969" d="M438.196 615.015l3.27-128.037 8.892 163.566 2.78 6.428z"/><path fill="#d1d8e1" fill-opacity=".412" d="M412.666 371.563l74.412-99.78-50.685-44.18 71.69 40.455z"/><path fill="#d3eff2" fill-opacity=".373" d="M695.87 541.404l-84 43.275.202 103.104-9.735-122.418z"/><path fill="#89070e" fill-opacity=".671" d="M428.311 761.995l120.35-87.88 18.504 140.142-252.612 133.827z"/><path fill="#3a352a" fill-opacity=".478" d="M494.215 96.026l-273.808 59.508 153.741 7.185L364.176-62z"/><path fill="#ff8ea3" fill-opacity=".118" d="M297.056 881.942l86.432 103.706-80.024 11.9-69.771-66.356z"/><path fill="#221318" fill-opacity=".698" d="M607.648 993.636l-42.83-23.886 95.686 6.836 69.262-159.36z"/><path fill="#480000" fill-opacity=".361" d="M508.943 709.346l-64.954-41.703-11.82 188.551-90.74 91.772z"/><path fill="#8f785e" fill-opacity=".592" d="M289.937 173.84l35.657 84.355 40.666 12.111-52.33 2.865z"/><path fill="#060509" fill-opacity=".522" d="M314.917 867.34l5.063-155.782-28.398 89.818-57.18 88.279z"/><path fill="#553635" d="M601.93 598.647l5.555 105.68-21.315-105.231L898 530.623z"/><path fill="#950004" fill-opacity=".49" d="M249.886 490.723l-11.28 108.478 44.631 7.337 32.627-.084z"/><path fill="#ccf8fe" fill-opacity=".278" d="M325.978 635.648l-23.62-53.554 199.192-10.819-237.905 40.132z"/><path fill="#410207" fill-opacity=".765" d="M360.085 988.852l-9.52 26.915-37.135-11.247 55.745-14.753z"/><path fill="#4c1614" fill-opacity=".427" d="M565.731 55.56l-86.099 218.493-33.818-92.746L898 103.727z"/><path fill="#ce222d" fill-opacity=".749" d="M265.69 363.59l-7.784 75.01 192.9 22.429-108.292-100.522z"/><path fill="#d4d7df" fill-opacity=".624" d="M315.408 544.84l19.907-32.202-47.935 13.005 34.098 60.566z"/><path fill="#3a2322" fill-opacity=".678" d="M139.273 217.603l168.368 10.548 15.435 100.674-54.883 30.374z"/><path fill="#191919" fill-opacity=".635" d="M82.117 780.646L58.75 899.882l116.568-28.79 22.294-73.292z"/><path fill="#500706" fill-opacity=".42" d="M576.724 955.906l-185.361 33.969 140.132-47.217L499.331 1086z"/><path fill="#a8141d" fill-opacity=".773" d="M511.758 505.964l-96.414-6.94 117.08-45.832-59.843-105.907z"/><path fill="#950c16" fill-opacity=".714" d="M621.34 420.685l-150.91-85.052 37.34-66.893 169.266 142.9z"/><path fill="#ccb1b5" fill-opacity=".298" d="M608.765 742.986l-17.649-92.613-.315 77.714-52.024 151.743z"/><path fill="#ccbec4" fill-opacity=".996" d="M410.618 637.483l8.327-126.58 3.095 66.402-18.548 21.197z"/><path fill="#d7d6db" fill-opacity=".714" d="M286.284 613.62l-13.689 19.494-48.828-8.513-2.677-27.704z"/><path fill="#fd586f" fill-opacity=".294" d="M646.165 333.036l41.734 79.909-24.503 1.936-26.788-18.404z"/><path fill="#c51a23" fill-opacity=".694" d="M217.504 584.67l73.801 27.258-57.824-68.697 91.962-52.727z"/><path fill="#cde6f8" fill-opacity=".373" d="M619.763 856.237l-6.828 69.65-20.768-32.85 3.5 47.174z"/><path fill="#5b5248" fill-opacity=".651" d="M569.253 824.147l129.598-161.614 11.907 59.116-90.47 117.413z"/><path fill="#e5e5ea" fill-opacity=".427" d="M686.146 504.394l-5.317 5.188-42.287-40.437 36.8-33.747z"/><path fill="#413b3b" fill-opacity=".525" d="M511.64 1014.985l162.252 19.547L898 875.218l-43.413 187.165z"/><path fill="#a20001" fill-opacity=".282" d="M349.558 627.414l4.836-32.387 78.406 30.334 42.916-40.705z"/><path fill="#170f0f" fill-opacity=".588" d="M168.657 102.063L44.603-62-62 67.963l107.293 56.75z"/><path fill="#480c0e" fill-opacity=".616" d="M539.036 482.582l53.795-30.566-13.77 138.026 34.99 17.446z"/><path fill="#a38463" fill-opacity=".467" d="M170.871 913.424l111.237-194.07-35.115-85.126-25.147 49.186z"/><path fill="#f6e7fa" fill-opacity=".314" d="M189.947 954.51l9.563 28.18 14.622-28.443-20.82-7.257z"/><path fill="#020f00" fill-opacity=".408" d="M608.472 606.846l47.106 1.222 48.101-39.746-79.513 20.865z"/><path fill="#4f0004" fill-opacity=".337" d="M308.274 608.435l-46.22-132.537-28.525-36.335 48.554 164.62z"/><path fill="#08110f" fill-opacity=".447" d="M239.576 391.845l-5.105-29.335 203.467-103.652-29.586-39.112z"/><path fill="#e91e2c" fill-opacity=".306" d="M308.428 998.576l87.675-99.346 136.692-142.72-70.42 100.378z"/><path fill="#6a4a2c" fill-opacity=".478" d="M368.362 173.651l102.766-9.929-94.878 85.236-33.632 38.8z"/><path fill="#ffebfa" fill-opacity=".267" d="M608.632 918.345L607.967 1086l9.71-236.055-4.326-41.585z"/></svg>