<svg xmlns="http://www.w3.org/2000/svg" width="228" height="278" viewBox="0 0 836 1024"><path fill="#666f82" d="M0 0h836v1024H0z"/><g fill-opacity=".502"><path fill="#c0eeff" d="M558 270l8 816-392-692z"/><path fill="#0e0a0a" d="M222-62l616 528 52-516z"/><path fill="#090914" d="M42 486L-62-14l444 292z"/><path fill="#fff1ef" d="M710 1058l-80-632-48 328z"/><path fill="#002dac" d="M478 558l28 468-132 36z"/><path fill="#bfe3ff" d="M414 638l20 332-176-4z"/><path fill="#070000" d="M166 778l-228 236 236 56z"/><path fill="#ffe5b7" d="M154 822l76-304L30 794z"/><path fill="#ffcd7f" d="M874 566l-88-88-192 336z"/><path fill="#fff" d="M558 258l-84 272 72 292z"/><path fill="#b17f56" d="M554 66L238 78l132 320z"/><path fill="#001c90" d="M386 1086l-80-228 48-244z"/><path fill="#4d2d1b" d="M774 650l124 436-264-288z"/><path fill="#001987" d="M498 566l-60 272-16-248z"/><path fill="#00204f" d="M390-18L190 254 58 154z"/><path fill="#fcffff" d="M318 562l100-224 16 296z"/><path fill="#2b78df" d="M562 266l128 68-124 452z"/><path fill="#fff" d="M222 386l88 300-8-352z"/><path fill="#005ee5" d="M322 306l-36 204 100-20z"/><path fill="#1276f4" d="M150 662l-4-208 108-92z"/><path fill="#0d70f0" d="M450 990l176 96 16-176z"/><path fill="#d7e9ff" d="M314 922l20-280-48 136z"/><path fill="#5e4c42" d="M-62 814l224 128 172-176z"/><path fill="#221a18" d="M786 326l-348-76L634 66z"/><path fill="#f9f5f3" d="M614 298l160 164-76-140z"/><path fill="#000e6a" d="M762 450L570 314l176 224z"/><path fill="#fefcff" d="M374 962l76 4-76-280z"/><path fill="#1a1810" d="M858 538l-16-204-196-48z"/><path fill="#fff" d="M506 362l112-68-136-16z"/><path fill="#005fe7" d="M418 362l52 136 20-224z"/><path fill="#1e1106" d="M662 666V562l124-40z"/><path fill="#fff" d="M614 462l44 136-36 112z"/><path fill="#fff4ff" d="M510 978l-16-344 76 232z"/><path fill="#eef4ff" d="M162 662l40-212 24 168z"/><path fill="#f2e7d8" d="M594 370l136 148h-64z"/><path fill="#d4c9bf" d="M174 762L-34 566l16 224z"/><path fill="#000142" d="M554 962l-240 16-52 84z"/><path d="M426 42L290 30l-56 76z"/><path fill="#fff" d="M626 874l36 136 16-148z"/><path fill="#604c3f" d="M-62 290l240 72-96 316z"/></g></svg>