<svg xmlns="http://www.w3.org/2000/svg" width="228" height="278" viewBox="0 0 836 1024"><path fill="#655c36" d="M0 0h836v1024H0z"/><g fill-opacity=".502"><path fill="#ffff2c" d="M658 1026L482 278 162 930z"/><path fill="#04002a" d="M-62 710L6-62l892 80z"/><path fill="#ffe95e" d="M-18 1014l-44-276 960 32z"/><path fill="#000023" d="M514 206L870 58l28 772z"/><path fill="#fdec27" d="M394 262l236 756-364-64z"/><path fill="#2e261f" d="M210 782l340-272-612-12z"/><path fill="#000034" d="M898 1006l-352 72 220-276z"/><path fill="#ffdd5b" d="M622 358l-284-24 280 172z"/><path fill="#fff" d="M186 518l4-124-48 68z"/><path fill="#7f8ad0" d="M898 754l-292-28 24 180z"/><path fill="#875657" d="M362 10l164 12 28 576z"/><path fill="#000023" d="M354 1086l412-36L58 922z"/><path fill="#ccbdac" d="M638 570l108 80-36-224z"/><path fill="#060000" d="M522 418l216 300-132-28z"/><path fill="#ffff46" d="M218 530l52 32-160 8zm160-28l-24-220 172 232z"/><path fill="#e5d624" d="M334 546l264 88-376 308z"/><path fill="#040e1e" d="M-62 350L14 26l500 228z"/><path fill="#9d5087" d="M70 1086L-62 938l304-28z"/><path fill="#1b0a06" d="M370 410L266 802l-104-56z"/><path fill="#ccb5b0" d="M470 10l84 76-192-44z"/><path fill="#e3da45" d="M70 698L-54 850l720 188z"/><path fill="#00001d" d="M630 510h84l-96-148z"/><path fill="#5f362e" d="M294 294l64-284 128 352z"/><path fill="#ded32e" d="M634 754l-76-188L82 874z"/><path fill="#361912" d="M554 566l-56-20 56-204z"/><path fill="#130c18" d="M898 142L498 78l296 424z"/><path fill="#ffff27" d="M626 542l32-40 64 36z"/><path fill="#42394c" d="M778 810l-156 76-12 188z"/><path fill="#231505" d="M142 526l220-168 8 120z"/><path fill="#e4e7fe" d="M198 482l-56 4 12-100z"/><path fill="#fffe2d" d="M306 450l-32 56 16-104z"/><path fill="#fdf236" d="M290 950l320-200 4 268z"/><path fill="#211b36" d="M6 694L-42 54l244 652z"/><path fill="#2e2142" d="M818 714l64-312-224 336z"/><path fill="#7b7a93" d="M854 874l16-172-248 48z"/><path fill="#fffe3e" d="M622 398l-56-52 48 220z"/><path fill="#00081d" d="M306 354L146 538l116-4z"/><path fill="#fffd47" d="M510 402l-84 76-84-176z"/><path fill="#27301c" d="M334 558l200-8-172-40z"/></g></svg>