<svg xmlns="http://www.w3.org/2000/svg" width="228" height="278" viewBox="0 0 836 1024"><path fill="#5f322d" d="M0 0h836v1024H0z"/><g fill-opacity=".502"><path fill="#fff" d="M586 1018l4-204-504 272z"/><path fill="#fa6358" d="M422 82l236 476-692 132z"/><path d="M858 606L394 38 838-62zM-62 778l8-824 464-4z"/><path fill="#ffe093" d="M266 1086L34 786l20-208z"/><path d="M598 442l4 644 296-164z"/><path fill="#de141c" d="M582 854L202 974l76-724z"/><path fill="#fff" d="M594 1038l-416 8 316-176z"/><path fill="#000100" d="M898 154L402 418 618-62z"/><path d="M118 710l136-260-80 420z"/><path fill="#000002" d="M150-62L-62 478l420-244z"/><path fill="#fff" d="M438 406L338 270l-12 100z"/><path fill="#ec3944" d="M326 634l236-328 192 156z"/><path fill="#fcc8b0" d="M90 782l80-404L70 558z"/><path fill="#d2aa73" d="M898 690L714 434l120 376z"/><path fill="#f2aa7b" d="M182 1086h140L34 666z"/><path fill="#abc6bf" d="M602 566l-348 12 156 48z"/><path fill="#cdcf93" d="M494 146l-132-44-40 208z"/><path fill="#ec040e" d="M222 302l148 84-268 196z"/><path fill="#00130f" d="M182 1070L-62 554v440z"/><path fill="#b0ffff" d="M526 426l32 92 48-84z"/><path fill="#efffff" d="M218 890l12-132-32 72z"/><path fill="#fcffff" d="M78 534l104 64-76 4z"/><path fill="#fff" d="M458 894l96 184-300-80z"/><path fill="#011614" d="M254 2L10 742-62-62z"/><path fill="#000608" d="M490-30L898-6v724z"/><path fill="#001314" d="M578 858l288 228-88-464z"/><path fill="#5c0000" d="M646 422l132 100-372 280z"/><path fill="#f5ffff" d="M706 602l40-4 48-68z"/><path d="M338 258L318-62 38 230z"/><path fill="#b4cd9d" d="M390-62L554 70 246-62z"/><path fill="#e52f34" d="M266 294l312 284-464-152z"/><path fill="#000506" d="M478 918l28-20 4 68z"/><path fill="#928352" d="M550 210L378 386l-36-248z"/><path fill="#7d0b0c" d="M226 466l228 312-212 8z"/><path fill="#c8ffff" d="M514 398l-20-12 52-60z"/><path fill="#151313" d="M798 662L630 550 454 802z"/><path fill="#1a1a07" d="M382 326h168l-96 92z"/><path fill="#f31215" d="M686 398l-52 112-104-216z"/><path fill="#98a29d" d="M538 966l40-216 36 208z"/></g></svg>