<svg xmlns="http://www.w3.org/2000/svg" width="228" height="278" viewBox="0 0 836 1024"><path fill="#975b44" d="M0 0h836v1024H0z"/><path fill="#c3d4d4" fill-opacity=".698" d="M744.03 1083.08L694.172-23.767 768.8-50.379l70.142 1122.13z"/><path fill="#21181c" fill-opacity=".651" d="M420.291 292.794L655.484 8.324-10.368-62l27.363 379.256z"/><path fill="#3ab7e2" fill-opacity=".8" d="M522.5 563.311l8.326-98.996-218.947 17.87-3.825 99.25z"/><path fill="#dad9db" fill-opacity=".737" d="M621.635 913.172l78.894 167.293L91.603 975.813 422.41 1086z"/><path fill="#f24200" fill-opacity=".678" d="M648.139 952.216l-19.504-345.16-345.458-43.345-16.108 454.945z"/><path fill="#361c14" fill-opacity=".78" d="M604.91 589.156l117.238 371.4 19.586-222.138-21.75-164.593z"/><path fill="#ff641f" fill-opacity=".714" d="M617.838 277.892l-456.09 32.896-51.861 232.04 563.401-135.27z"/><path fill="#d6cdbd" fill-opacity=".69" d="M241.868 859.323L253.798 1086-62 795.053 15.609 1086z"/><path fill="#000218" fill-opacity=".329" d="M87.057 847.501L-62 705.238l448.314-118.821L103.475 1086z"/><path fill="#f9712d" fill-opacity=".863" d="M519.943 877.194l61.172 87.273 98.451-69.872-151.288-643.136z"/><path fill="#010909" fill-opacity=".675" d="M461.01 268.043l-67.235 77.93-66.608-34.72-42.035-264.687z"/><path fill="#db4d13" fill-opacity=".761" d="M297.586 231.095L168.811 338.843 83.49 645.418l221.957-13.622z"/><path fill="#73a9b3" fill-opacity=".376" d="M591.503 210.214l124.468 309.899 98.848-65.31L798.395-62z"/><path fill="#d13001" fill-opacity=".831" d="M673.316 390.233l27.397 185.897-85.46 15.673-52.264-170.976z"/><path fill="#901700" fill-opacity=".506" d="M391.588 977.81l-131.493 19.322-64.87-535.663L313.8 551.688z"/><path fill="#d7dcdb" fill-opacity=".949" d="M874.765 1048.21l5.968-86.046-143.207-33.48L712.274 1086z"/><path fill="#543c3a" fill-opacity=".878" d="M-62 95.54l332.966-68.667-162.302 401.635-97.276-1.62z"/><path fill="#f77333" fill-opacity=".859" d="M466.75 218.684l163.009 81.904-31.46 156.767-212.947 20.689z"/><path fill="#683728" fill-opacity=".839" d="M597.272-62L452.26 228.076l179.54-55.83 70.118-34.974z"/><path fill="#4c93dd" fill-opacity=".227" d="M103.728 738.543L-62 961.973l211.673-556.689-196.011-17.42z"/><path fill="#f57f64" fill-opacity=".663" d="M79.756 795.645l21.24 145.975L-62 946.68v-40.292z"/><path fill="#fdffe8" fill-opacity=".275" d="M197.292 722.04l69.362 52.914L143.276 939.56 244.464 1086z"/><path fill="#d3d7ce" fill-opacity=".42" d="M731.047 648.807l57.486 411.125-23.466-865.712-87.02 288.686z"/><path fill="#021526" fill-opacity=".392" d="M828.215 522.638l-15.961-126.586-20.963-241.34 106.709-44z"/><path fill="#e18466" fill-opacity=".776" d="M898 945.21l-101.015 9.327 4.125-418.822 15.296 188.23z"/><path fill="#53362c" fill-opacity=".98" d="M651.84 941.923l73.048-167.986 6.816 179.947-13.236 85.372z"/><path fill="#dfefff" fill-opacity=".604" d="M656.515 976.655l-63.813-16.125-112.05 33.693 179.894 51.2z"/><path fill="#262823" fill-opacity=".58" d="M173.681 1048.051L104.621 1086 90.669 721.232l20.716-85.849z"/><path fill="#f88240" fill-opacity=".639" d="M327.034 468.092l-60.897-201.755-125.075 80.247-4.563 48.92z"/><path fill="#0190c2" fill-opacity=".749" d="M303.31 491.436l16.96 95.652 216.512-48.48-221.716-12.707z"/><path fill="#265161" fill-opacity=".475" d="M557.894 990.577L355.93 1086l-123.589-78.99 265.383-11.347z"/><path fill="#c7e5fc" fill-opacity=".694" d="M371.693 333.336l-33.642-17.366-20.733-10.143 10.022 30.459z"/><path fill="#74c2d8" fill-opacity=".992" d="M305.25 490.523l11.858 43.248 194.98-18.641-19.16-39.208z"/><path fill="#8b9b98" fill-opacity=".318" d="M457.33 32.945L359.825-17.13l-23.88 71.904L487.656 98.35z"/><path fill="#2d9cee" fill-opacity=".431" d="M302.422 413.046l-54.605 3.15-11.884 31.704 89.023-19.158z"/><path fill="#f58d5a" fill-opacity=".706" d="M643.92 972.15l35.124-145.63-29.06-84.108-57.764 178.204z"/><path fill="#c7e9ff" fill-opacity=".408" d="M187.398 1086l-22.374-146.27-149.326 22.362 237.196 1.636z"/><path fill="#de4207" fill-opacity=".502" d="M586.82 794l-91.199-234.147-201.063 29.176 98.837 402.483z"/><path fill="#380303" fill-opacity=".412" d="M605.532 588.434l-16.493-124.042 143.617 269.59-88.627 31.257z"/><path fill="#9a1700" fill-opacity=".459" d="M388.718 754.005L169.7 439.333l-57.486 36.475 228.355 298.456z"/><path fill="#5d7d83" fill-opacity=".361" d="M714.213 318.686l-13.82 29.795-128.05-83.723L725.14-62z"/><path fill="#af1801" fill-opacity=".933" d="M549.665 916.605L371.33 956.223l.542 31.922 103.193-25.529z"/><path fill="#a0311b" fill-opacity=".859" d="M470.901 327.103l-211.55 23.213 103.811 8.656 98.08-54.707z"/><path fill="#746556" fill-opacity=".604" d="M198.38 632.109L189.394 900.3l75.124-23.666-42.703-292.618z"/><path fill="#4f3d5d" fill-opacity=".576" d="M36.816 590.197L-62 314.797v510.785l151.928-8.978z"/><path fill="#2b373f" fill-opacity=".431" d="M709.135 454.03l-18.574-63.663 2.155-115.946-67.38-5.874z"/><path fill="#c4ccbc" fill-opacity=".992" d="M-62 1073.645l9.043-134.564 154.928 41.182-13.359 52.678z"/><path fill="#adaaa2" fill-opacity=".467" d="M577.308 237.344l142.636 29.106 106.619 331.785-65.924-478.88z"/><path fill="#160505" fill-opacity=".741" d="M-62 17.024L7.468 36.065l116.344.768L222.64-62z"/><path fill="#ffe8e3" fill-opacity=".294" d="M136.59 369.185l-30.585 125.542-19.211 151.556 53.399-249.425z"/><path fill="#01a3d7" fill-opacity=".702" d="M469.945 524.023l56.916-21.593-12.208 77.328-52.56-24.852z"/><path fill="#dfe5ec" fill-opacity=".839" d="M624.469 1086l-10.21-120.602L675.308 1086l14.586-103.504z"/><path fill="#f35c18" fill-opacity=".608" d="M104.106 646.546l110.089 12.98-105.539-175.709 18.539-19.897z"/><path fill="#001418" fill-opacity=".329" d="M249.429 748.43L62.266 638.595l7.74 6.467 192.657 27.066z"/><path fill="#3d312d" fill-opacity=".718" d="M307.379 239.964L48.313 397.414l-8.529-263.86 84.373 171.092z"/><path fill="#9da3bf" fill-opacity=".322" d="M530.032 448.634l-19.208 57.424 51.695-156.82-70.828 17.8z"/><path fill="#27211d" fill-opacity=".957" d="M346.119-13.625l-75.665 132.423 229.816 9.245-239.846-88.212z"/><path fill="#c7defd" fill-opacity=".424" d="M626.484 929.64l-22.767-3.715-16.124-16.224 42.009-21.22z"/><path fill="#d6cac0" fill-opacity=".667" d="M898 1003.417L731.631 949.16l17.889-341.878 56.943 306.99z"/><path fill="#fc5e21" fill-opacity=".812" d="M412.228 472.032L237.68 490.226l202.543-154.673 100.23 130.574z"/><path fill="#857070" fill-opacity=".455" d="M845.92 523.075l27.72 203.698-92.045-526.98 14.97 600.494z"/><path fill="#070704" fill-opacity=".439" d="M481.425 161.597l-80.728 166.549-111.36-72.488 95.864-99.991z"/><path fill="#bddef7" fill-opacity=".459" d="M439.619 320.27l-3.176-24.2 16.644-11.654 11.97 11.84z"/><path fill="#000510" fill-opacity=".282" d="M145.493 148.492l46.832-43.626 81.042 177.914-71.713-16.914z"/><path fill="#801400" fill-opacity=".561" d="M354.666 747.229L232.767 891.113l79.505-10.625-65.468-104.813z"/><path fill="#000a15" fill-opacity=".447" d="M650.883 978.3l32.653-41.271 8.35 9.895-23.724 68.32z"/><path fill="#fd4c02" fill-opacity=".416" d="M662.786 366.928l-17.064-25.708-91.905 15.072 155.495 221.573z"/><path fill="#9a2400" fill-opacity=".431" d="M690.582-62l-36.205 91.453-43.332 60.665-90.07-69.1z"/><path fill="#ef4d11" fill-opacity=".573" d="M650.811 871.522l-113.284 54.804-250.265-92.783 51.441-49.87z"/><path fill="#6e4c47" fill-opacity=".584" d="M111.068 378.65l25.573-307.945L15.29 97.203l184.626 196.553z"/><path fill="#cba26b" fill-opacity=".431" d="M160.859 953.884l7.168-81.88 73.114 5.614 19.65 60.205z"/><path fill="#000d27" fill-opacity=".149" d="M359.026 92.237l322.352 98.885L719.918 5.49l-50.366 88.724z"/><path fill="#2a180e" fill-opacity=".463" d="M356.492 1040.71L501.1 987.656l-146.95 14.087 107.356 83.427z"/><path fill="#bac1b8" fill-opacity=".286" d="M745.131 86.21L688.48 582.461l208.926-2.294-101.363-80.77z"/><path fill="#ff9f3a" fill-opacity=".251" d="M673.58 342.43L479.826 190.55l-32.905 38.562 49.61 146.849z"/><path fill="#78f0ff" fill-opacity=".118" d="M82.87 369.21l58.495-4.251-42.372 247.28-34.897-84.197z"/><path fill="#eff3ff" fill-opacity=".486" d="M594.881 969.044l61.281-13.995 6.527 110.849L513.727 1086z"/><path fill="#ff681e" fill-opacity=".569" d="M275.738 255.564l31.546 23.758-9.422 116.89-175.901 31.592z"/><path fill="#930000" fill-opacity=".349" d="M593.578 361.06l6.995 219.867 43.035-35.686-6.597-101.597z"/><path fill="#ff7421" fill-opacity=".459" d="M477.884 577.097l52.728.028 37.047-206.554L657.706 980.6z"/><path fill="#9d1531" fill-opacity=".404" d="M804.688 662.845l63.76-160.638-16.28 221.396-40.28 36.498z"/><path fill="#a4b3c1" fill-opacity=".522" d="M439.229 1046.246l75.592-57.17L238.204 1086l425.948-101.96z"/><path fill="#0f0600" fill-opacity=".22" d="M282.96 869.15l-151.732-35.148L105.488 1086l-17.43-340.151z"/><path fill="#7b0e00" fill-opacity=".541" d="M278.077 900.936l-80.456-535.5 11.87 229.275 67.148-9.435z"/><path fill="#eefeff" fill-opacity=".349" d="M219.844 988.203l35.165-67.543L231.532 1086l-76.388-112.633z"/><path fill="#ff712e" fill-opacity=".757" d="M642.95 952.257l-144.463 29.932-55.284-1.282 188.116-54.898z"/><path fill="#ff9460" fill-opacity=".286" d="M898 1026.446V757.837l-109.801-32.189-5.117 192.387z"/><path fill="#36140d" fill-opacity=".949" d="M639.781 730.6l56.228-149.369-61.352 9.927-17.024 30.48z"/><path fill="#5c0407" fill-opacity=".553" d="M410.351 334.91l-29.222 9.648-72.874-12.777 20.44 25.87z"/><path fill="#99d7fc" fill-opacity=".302" d="M362.702 336.635l25.03 43.43 9.18-47.79-66.62-2.75z"/><path fill="#41bdf4" fill-opacity=".133" d="M196.032 683.627l18.72-92.015.629-16.285 40.371 201.93z"/><path fill="#7f5e38" fill-opacity=".482" d="M571.931 271.62l65.822-112.977-94.444 36.276-138.518 10.477z"/><path fill="#f65b10" fill-opacity=".369" d="M222.476 523.072L199.762 352.98 329.84 593.244l-70.842-52.839z"/><path fill="#fef2fa" fill-opacity=".353" d="M286.843 267.984l45.505 69.492 12.122-12.04 3.903 12.601z"/><path fill="#ff5f1c" fill-opacity=".588" d="M366.427 945.536l158.65-19.86 79.642-164.239-97.19 105.333z"/><path fill="#0098cd" fill-opacity=".647" d="M310.952 577.2l185.329-21.823-46.4 14.584-36.204-66.357z"/><path fill="#7a5b4e" fill-opacity=".584" d="M40.954 357.139l-17.057 371.3 82.067-53.362-146.083-254.46z"/><path fill="#e0f9ff" fill-opacity=".592" d="M838.203 1072.419l-167.005 8.792 82.88-97.943 129.147 13.159z"/><path fill="#d67457" fill-opacity=".286" d="M197.124 751.739l58.012 24.768 4.71 48.81-83.375 3.522z"/><path fill="#362d29" fill-opacity=".718" d="M696.846 997.828l35.597-26.461L695.55 1086l-52.46-3.746z"/><path fill="#e4f8f9" fill-opacity=".275" d="M441.249 538.15l67.107-26.034-2.452-30.081-23.636-5.073z"/><path fill="#888b8e" d="M348.755 1055.635L106.618 1086l159.208-75.512 108.367 5.02z"/><path fill="#ffa773" fill-opacity=".427" d="M631.82 300.242l-43.093-31.68L673.05 390.82l-9.09-37.023z"/><path fill="#1ba7dc" fill-opacity=".718" d="M364.46 484.716l-60.768 3.545 1.435 3.422 58.848.406z"/><path fill="#ca3306" fill-opacity=".996" d="M334.418 889.89l-70.44 6.068 235.292-36.799-107.107 71.892z"/><path fill="#670e00" fill-opacity=".408" d="M95.796 38.865L-20.62 8.07-62 127.336 107.61 60.69z"/><path fill="#ff6c2e" fill-opacity=".467" d="M705.04 582.657l-21.1-157.668-10.115 118.94-40.813 29.592z"/><path fill="#958d95" fill-opacity=".851" d="M312.002 427.873l8.725-23.628-81.5 14.68 12.237 22.436z"/><path fill="#9e9991" fill-opacity=".667" d="M789.926-41.02l-5.184 425.693-14.056-205.75-16.1-168.44z"/><path fill="#f88544" fill-opacity=".408" d="M568.443 723.573l90.674 10.77 23.322 159.64-40.74-5.95z"/><path fill="#001416" fill-opacity=".216" d="M898 309.27L806.464-11.292 857.8 7.687l-48.788 493.402z"/><path fill="#212306" fill-opacity=".259" d="M3.336 845.948l13.23-187.48 6.362-84.05-42.887-73.803z"/><path fill="#6d5c53" fill-opacity=".725" d="M291.07 925.153l-25.472 3.658 6.94 29.032 33.541-59.075z"/><path fill="#b89c77" fill-opacity=".239" d="M635.277 631.587l-14.026-46.783-19.286-27.131 13.652 111.343z"/><path fill="#ff9763" fill-opacity=".349" d="M20.604 975.483l-11.54-97.355 86.378-14.712 2.226 88.668z"/><path fill="#b53505" fill-opacity=".353" d="M472.498 715.745l-206.35-80.487L390.325 747.57l-171.393 316.453z"/><path fill="#180105" fill-opacity=".2" d="M23.352 388.404l16.126-214.6 63.48 7.55-20.894 144.18z"/><path fill="#573ea2" fill-opacity=".227" d="M83.688 846.49l11.267-95.39-72.37-79.155 17.926 163.46z"/><path fill="#f9d2c7" fill-opacity=".267" d="M524.24 436.546l41.998-17.152 11.723-7.31-91.587 5.127z"/><path fill="#7d8d8d" fill-opacity=".345" d="M671.986-20.873L716.2 656.853l.336-612.193L789.626-62z"/></svg>