<svg xmlns="http://www.w3.org/2000/svg" width="228" height="278" viewBox="0 0 836 1024"><path fill="#99928e" d="M0 0h836v1024H0z"/><g fill-opacity=".502"><path fill="#f7f7ff" d="M754 1070l-400-8 136-844z"/><path fill="#1b1100" d="M-54 278l-8 724 332 84z"/><path fill="#fffbff" d="M186 530l404-248 160 216z"/><path fill="#442000" d="M290 430l12-492 160 432z"/><path fill="#070700" d="M-22-50l92 160L370-10z"/><path fill="#020100" d="M898 14L626 82 474-62z"/><path fill="#7c7c90" d="M130 370L46 870l520-12z"/><path fill="#fff" d="M246 1014l348-196 300 268z"/><path fill="#504041" d="M898 726L474 574l132-116z"/><path fill="#100b01" d="M-50 890L54 506l152-56z"/><path fill="#d8d5cb" d="M262 778L118 566 46 858z"/><path fill="#d3be9b" d="M534 10L342 266l556 172z"/><path fill="#0c1917" d="M786 838l112 244-164-148z"/><path fill="#fcf6ff" d="M486 570l-184 8 204-308z"/><path fill="#1f2440" d="M378 734L242 494l8 232z"/><path fill="#fff" d="M462 14l76 124 60-100z"/><path d="M234 990L54 902l164-36z"/><path fill="#9e9fbc" d="M698 622l116 280-624-312z"/><path fill="#45280a" d="M670 590l228 156V546z"/><path fill="#483426" d="M394 398l140-168-336 120z"/><path fill="#ffddcd" d="M694 398l-44 136 136 68z"/><path fill="#cac8e9" d="M274 386l252 228L54 374z"/><path fill="#ad8a64" d="M422 334L778 6 330 230z"/><path fill="#77758a" d="M338 974l180-168-316-60z"/><path fill="#f9f9ff" d="M614 1034l-44-416-104 436z"/><path fill="#b8b39b" d="M378-42L-2 630l104-428z"/><path fill="#615635" d="M258 138l240-68-164-48z"/><path fill="#fff" d="M34 46l-20 72-76-132z"/><path fill="#111205" d="M286 614V506l-64 60z"/><path fill="#dcd6ec" d="M674 398L570 526l-88-260z"/><path fill="#959ba0" d="M590 598l-8 292 140-52z"/><path fill="#36373d" d="M66 626l68-232 76 104z"/><path fill="#271807" d="M10 958l108-428-152 156z"/><path fill="#271000" d="M274 186l160-12-108 60z"/><path fill="#d4cfe5" d="M310 658l276-88v84z"/><path fill="#654761" d="M722 1018l-24-56 68 32z"/><path fill="#84817f" d="M138 546L-30 170l48 360z"/><path fill="#3b381f" d="M398-14L898 86 814-62z"/><path fill="#f7c3a3" d="M458 306L350 202l-16 56z"/><path fill="#837f5c" d="M30 90l-92 168L302 22z"/></g></svg>