<svg xmlns="http://www.w3.org/2000/svg" width="228" height="278" viewBox="0 0 836 1024"><path fill="#99928e" d="M0 0h836v1024H0z"/><path fill="#d7d5e0" fill-opacity=".992" d="M359.149 391.509l174.563 431.273L189.356 1086l639.924-18.225z"/><path fill="#423829" fill-opacity=".831" d="M-62 1086l341.656-110.693L87.715 823.004 62.167 411.543z"/><path fill="#e5dfec" fill-opacity=".8" d="M627.191 493.083L273.086 617.445l242.505-353.158 274.637 259.487z"/><path fill="#6b533c" fill-opacity=".859" d="M427.368 392.744l39.372-89.124L293.643-31.515l-2.273 466.773z"/><path fill="#262411" fill-opacity=".639" d="M-16.39-27.205L538.79-62 97.663 99.28 72.2 115.248z"/><path fill="#302d1b" fill-opacity=".718" d="M613.684 74.99l273.252-29.756L785.186-62 524.71-7.331z"/><path fill="#000512" fill-opacity=".392" d="M390.624 795.557L271.788 492.5-62 767.84l190.66-335.326z"/><path fill="#493325" fill-opacity=".71" d="M592.795 545.926l247.118 70.253 21.751 78.568-76.377 2.91z"/><path fill="#fdfcf3" fill-opacity=".898" d="M586.514 95.916l-76.379 33.481L480.24 25.295l94.979 11.926z"/><path fill="#000e0d" fill-opacity=".443" d="M874.698 1071.225l-34.572-130.204-51.656-68.28-89.678 34.232z"/><path fill="#dcd9f2" fill-opacity=".584" d="M278.974 616.433l329.508-266.814-382.461 116.786 250.185 255.64z"/><path fill="#c7c6c4" fill-opacity=".529" d="M178.178 560.694l41.383 220.004-187.668 99.68 89.34-309.456z"/><path fill="#c0b191" fill-opacity=".565" d="M456.874 282.522l-334.857 45.883L683.882 97.868 898 426.9z"/><path fill="#b0afc3" fill-opacity=".62" d="M526.08 570.923l-174.1 199.635L722.228 894.13l-.938-205.69z"/><path fill="#1a2515" fill-opacity=".58" d="M234.351 1086l-6.834-166.605-18.62-67.676-153.788 46.248z"/><path fill="#0e0700" fill-opacity=".337" d="M-44.238 910.429l251.81-456.986-175.62 144.921-32.95-408.187z"/><path fill="#01000a" fill-opacity=".322" d="M301.077 299.484l-.991-183.178 109.59 285.249-213.8-37.27z"/><path fill="#000a57" fill-opacity=".298" d="M418.524 886.284L209.65 666.2l290.796 6.048-262.82 103.157z"/><path fill="#fcfbff" fill-opacity=".714" d="M661.653 875.623l-217.887 18.073 75.13 179.653 213.2-122.343z"/><path fill="#a7a7bb" fill-opacity=".729" d="M247.2 1075.42l-21.382-131.37 348.678-130.503L204.778 1086z"/><path fill="#a9a494" fill-opacity=".914" d="M-14.405 659.33L330.35 10.438l-261.38 184.7-25.39 303.03z"/><path fill="#716260" fill-opacity=".643" d="M610.244 438.238l32.23 39.699 41.822 118.655-100.047 85.413z"/><path fill="#64512d" fill-opacity=".506" d="M355.566 124.73l-76.422 100.784 74.309-205.163 145.529 58.44z"/><path fill="#f5b785" fill-opacity=".525" d="M440.327 324.309L383.45 73.579l129.535 168.254-179.793-2.454z"/><path fill="#ffddc9" fill-opacity=".427" d="M757.45 496.907l23.703 134.154-103.797-124.838-75.146-209.466z"/><path fill="#c7c7ed" fill-opacity=".353" d="M100.565 390.737l111.6-29.273 325.94 176.428-156.482 69.52z"/><path fill="#fdfae2" fill-opacity=".718" d="M-62-26.707l13.618 229.467L28.605 87.587l2.66-36.35z"/><path fill="#7f7b8b" fill-opacity=".6" d="M761.597 1013.4l-82.76-152.526 153.274-25.34L678.613 987.49z"/><path fill="#f6f1fa" fill-opacity=".478" d="M541.81 731.24l19.631-154.096 39.72 247.635-216.405-78.536z"/><path fill="#5760a1" fill-opacity=".573" d="M555.355 706.884l-8.453-59.892-34.382 17.518-14.45 62.774z"/><path fill="#5e4428" fill-opacity=".329" d="M781.72 583.544l-99.085-217.81 213.948 274.66L749.15 749.551z"/><path fill="#000117" fill-opacity=".306" d="M233.746 539.96l24.972 230.327 30.633-55.015-8.534-185.144z"/><path fill="#9b9dbf" fill-opacity=".478" d="M235.011 633.865l189.947 70.2 61.867-110.076-151.688-28.982z"/><path fill="#f4eef6" fill-opacity=".612" d="M555.469 316.176l-74.046-24.74-60.705 185.86 41.484 175.56z"/><path fill="#827d60" fill-opacity=".514" d="M55.754 79.856L-62 179.786l220.855 9.597L275.219 22.066z"/><path fill="#8c865c" fill-opacity=".451" d="M889.937 260.13L575.352 76.527l196.493-49.179L898 57.653z"/><path fill="#9592a0" fill-opacity=".678" d="M319.277 388.742L94.004 619.182l181.987-93.599-14.716-139.053z"/><path fill="#6d3900" fill-opacity=".169" d="M449.325 382.367l-63.952 26.3 123.779-259.151 163.437-94.59z"/><path fill="#936e56" fill-opacity=".71" d="M34.334 871.537L190.59 1086 88.385 972.968l-26.788 57.473z"/><path fill="#4c4d55" fill-opacity=".678" d="M206.506 606.241l-88.863-161.13 29.65-31.272 35.182 42.156z"/><path fill="#fcfde9" fill-opacity=".545" d="M298.938 28.763l-40.182 93.55-8.055-25.191 1.144-41.185z"/><path fill="#302d21" fill-opacity=".671" d="M898 18.84L450.584-62l36.742 80.79 148.837 4.76z"/><path fill="#3a220e" fill-opacity=".459" d="M-62 657.554L39.776 1086l14.388-280.27 46.79-171.6z"/><path fill="#a2a5ad" d="M604.197 897.445l-45.933-53.295 149.485 40.747 44.401-179.705z"/><path fill="#77767b" fill-opacity=".714" d="M571.732 472.701l-81.21 119.97 69.948-15.157 6.432-181.114z"/><path fill="#817f90" fill-opacity=".502" d="M535.143 769.258l-219.01 219.028-225.12-233.53L35.412 893.16z"/><path fill="#eceaea" fill-opacity=".984" d="M690.519 910.677l132.041 114.635-180.743 43.75L854.17 1086z"/><path fill="#f27909" fill-opacity=".392" d="M479.64 703.966l-39.124 47.892-17.814-17.22 80.045-86.63z"/><path fill="#868279" fill-opacity=".843" d="M32.284 523.801L12.912 126.998-62 406.09l229.651 150.378z"/><path fill="#e5af68" fill-opacity=".973" d="M708.063 969.526l30.608-19.48L695.157 1086l45.52-64.909z"/><path fill="#c78679" fill-opacity=".996" d="M554.465 338.507l1.515 4.07 52.121-10.806 106.608 65.924z"/><path fill="#f8f7ff" fill-opacity=".412" d="M588.23 580.05l-38.367 294.895 68.905-39.26L511.38 595.483z"/><path fill="#e0daec" fill-opacity=".463" d="M441.592 666.16l83.68-3.356-145.209-50.411 55.787 117.538z"/><path fill="#030712" fill-opacity=".259" d="M353.94 425.537l-89.335-5.738 218.157-133.33-56.477 89.502z"/><path fill="#361400" fill-opacity=".412" d="M414.923 167.818l-7.972 76.657-121.99-77.198 6.208 47.04z"/><path fill="#f2f1fb" fill-opacity=".71" d="M564.764 349.417l111.261 39.949-4.826 126.87 93.721-12.032z"/><path fill="#fffbe1" fill-opacity=".376" d="M490.016 19.548L264.762-62 537.806 84.44l36.792-57.938z"/><path fill="#3a362a" fill-opacity=".965" d="M487.84-25.429L368.449 3.365-62-13.605 59.305 48.327z"/><path fill="#333c83" fill-opacity=".773" d="M396.504 670.972l-13.157 74.441 25.063-10.739-1.757-56.867z"/><path fill="#292216" fill-opacity=".937" d="M139.038 567.988L-62 735.026l73.601 147.77 68.66-347.941z"/><path fill="#afac9b" fill-opacity=".678" d="M306.99 296.351L32.927 396.548l230.82-236.628 44.463 97.88z"/><path fill="#f3c183" fill-opacity=".357" d="M364.541 118.411l-11.92 52.877 90.11 7.316 78.829-98.212z"/><path fill="#bebcba" fill-opacity=".557" d="M150.113 555.945l13.515-2.385 82.089 351.5-147.67-293.092z"/><path fill="#68769c" fill-opacity=".357" d="M783.742 653.655l-109.645-42.667 85.453 248.006 95.436 126.347z"/><path fill="#1b0d02" fill-opacity=".353" d="M709.01 572.917l-96.362 30.858 18.603-29.323L887.114 725.56z"/><path fill="#f7f4fd" fill-opacity=".455" d="M262.912 485.563l317.022-165.298-108.695-28.338 64.57 192.972z"/><path fill="#e9fffe" fill-opacity=".125" d="M513.473 38.071l241.435 246.29-100.812 99.178-68.57-114.774z"/><path fill="#b2aec1" fill-opacity=".557" d="M576.335 570.94l63.997-158.954 52.558 125.428-169.856-194.487z"/><path fill="#001d7d" fill-opacity=".251" d="M476.757 581.547l-41.36 38.446-78.701-3.786.713-32.947z"/><path fill="#6a0405" fill-opacity=".518" d="M141.165 363.202l-4.528-5.94-6.31 36.098 68.252-49.718z"/><path fill="#e5b697" fill-opacity=".549" d="M347.967 273.548l.547-72.775 86.073 97.164-53.056-16.134z"/><path fill="#576037" fill-opacity=".835" d="M245.651 1042.186l-19.087-61.718-59.81-3.545L-15.343 1086z"/><path fill="#a0a1ac" fill-opacity=".867" d="M579.926 679.858l2.443 70.082 64.24 120.55 82.333 37.18z"/><path fill="#a4a3c4" fill-opacity=".424" d="M358.327 635.225l57.774 176.774-189.293-78.268 130.971 3.204z"/><path fill="#0d1000" fill-opacity=".427" d="M295.278 541.685l10.441 57.85-66.815-10.975 14.586-61.246z"/><path fill="#918f98" fill-opacity=".667" d="M284.53 577.544l-111.244-62.218 37.76 46.557 176.829 1.9z"/><path fill="#ff955b" fill-opacity=".31" d="M671.127 521.31l-34.463 64.17 150.98-32.687-5.218-47.14z"/><path fill="#07060f" fill-opacity=".408" d="M226.54 958.416l-88.328-11.548-85.273-40.545 177.514-9.062z"/><path fill="#7c644c" fill-opacity=".988" d="M791.511 604.257l-30.817-74.085L898 614.236 791.778 639.48z"/><path fill="#232b61" fill-opacity=".506" d="M296.29 714.326l73.492 36.074-17.024-75.498-3.378-11.181z"/><path fill="#131c0d" fill-opacity=".263" d="M843.528 1007.475L898 1086 749.505 853.228l3.182 112.739z"/><path fill="#9c9cab" fill-opacity=".718" d="M235.624 1062.701L760.552 1086h-473.22l-72.654-651.923z"/><path fill="#f7f6fe" fill-opacity=".478" d="M708.8 932.11l-18.948-47.036-443.813 119.61 123.029 5.592z"/><path fill="#2b1201" fill-opacity=".569" d="M402.141 300.049l-27.07 19.392-37.355 4.995 31.517-42.558z"/><path fill="#e1deff" fill-opacity=".224" d="M71.412 434.392l63.14-35.615-75.227 206.788 68.43-256.096z"/><path fill="#fffff8" fill-opacity=".522" d="M591.817 67.252L530.022 15.29l-27.94 109.235 58.513.812z"/><path fill="#a7a48f" fill-opacity=".529" d="M752.024 499.543L898 522.094 770.744 80.65l-96.042 20.986z"/><path fill="#936a49" fill-opacity=".863" d="M480.532 295.35l-128.685 28.54 82.2 13.798 36.867-125.771z"/><path fill="#202e92" fill-opacity=".302" d="M468.24 677.448l17.28 43.463-8.316 26.032-51.064-81.681z"/><path fill="#11181c" fill-opacity=".251" d="M40.072 527.697l-97.158 147.758 8.054-172.78 89.616-45.233z"/><path fill="#7f7c88" fill-opacity=".937" d="M434.193 864.66l-12.51-69.357 126.479 11.047-273.636 51.732z"/><path fill="#ec8d7a" fill-opacity=".569" d="M628.926 333.3l78.566 120.49 31.857 16.456-19.629-34.256z"/><path fill="#a8a4a0" fill-opacity=".498" d="M60.89 814.78l-1.003-67.505 37.592-46.688 192.576 175.88z"/><path fill="#a68e73" fill-opacity=".729" d="M503.878 295.118l23.416-120.631L338.369 7.404l218.365 291.82z"/><path fill="#656262" fill-opacity=".514" d="M357.393 890.049l-221.6-42.634-83.297 13.792L75.28 888.26z"/><path fill="#deddfa" fill-opacity=".4" d="M215.828 845.768l83.573 30.253 64.775 7.757-121.912-36.998z"/><path fill="#d8d3e1" fill-opacity=".671" d="M272.274 452.011l87.828 119.929 103.214 14.995 109.731-99.551z"/><path fill="#a29fb0" fill-opacity=".949" d="M377.264 756.203l7.246-73.853-98.498-66.434 32.43-63.991z"/><path fill="#27260d" fill-opacity=".212" d="M436.9 117.425l71.948-69.429L308.86 86.27l111.777-13.082z"/><path fill="#434346" fill-opacity=".6" d="M151.627 439.284l-56.66 60.327 93.304 37.413 15.503 123.317z"/><path fill="#b7b2c7" fill-opacity=".549" d="M609.507 558.147l-8.89-38.08-14.244 116.857-287.687 28.699z"/><path fill="#241300" fill-opacity=".376" d="M308.561 238.256l93.72-62.374-111.174 13.382 56.366 110.896z"/><path fill="#dad3e2" fill-opacity=".631" d="M482.527 780.637l11.34-124.687-53.83-84.837 94.064 43.062z"/><path fill="#0112c0" fill-opacity=".196" d="M757.41 1018.501l11.508-25.361-11.73-5.067-104.328-17.22z"/><path fill="#c6cbf3" fill-opacity=".282" d="M305.424 697.07l4.122-6.342-59.52-.302 116.777 35.242z"/><path fill="#f6f4fb" fill-opacity=".506" d="M627.697 791.619l-79.997 65.79-88.752 8.39 68.989 65.118z"/><path fill="#cfcddd" fill-opacity=".796" d="M353.764 920.772l165.32-.96-151.49 41.82 202.524-109.096z"/><path fill="#af7e59" fill-opacity=".702" d="M388.98 195.198l46.884-3.794-58.14 65.883 82.448 13.749z"/><path fill="#ffc691" fill-opacity=".231" d="M436.02 323.106l-23.479-1.601 8.027-145.44 84.437-14.872z"/><path fill="#081672" fill-opacity=".259" d="M515.887 667.299l29.792-17.97-2.126 46.83L500.447 738z"/><path fill="#d5d2de" fill-opacity=".839" d="M464.577 749.353L302.91 737.535l274.277 44.091-32.675-63.183z"/><path fill="#adbbe2" fill-opacity=".282" d="M828.615 700.647l58.91-12.835L898 1064.269 795.944 799.042z"/><path fill="#030c23" fill-opacity=".263" d="M461.225 676.293l-219.9-8.25 12.48 55.105 11.656-42.13z"/><path fill="#000b54" fill-opacity=".278" d="M244.862 702.124l8.776 17.683 154.732 22.537-6.81-17.755z"/><path fill="#745945" fill-opacity=".498" d="M712.702 578.893l-98.421-51.598-33.255 135.515 35.785-46.338z"/><path fill="#6b6654" fill-opacity=".533" d="M610.647 88.967l-21.59-35.607L737.64 36.032 898 58.722z"/><path fill="#b8b4c7" fill-opacity=".494" d="M382.269 540.534l-325.476-182.4 252.991 88.486-78.786 80.094z"/><path fill="#424350" fill-opacity=".22" d="M322.912 977.548l75.644-7.45-169.772-30.847 39.23-15.554z"/><path fill="#72718d" fill-opacity=".376" d="M211.18 316.518l161.24-25.289-199.182 71.348 209.484 74.217z"/><path fill="#c1b095" fill-opacity=".835" d="M483.749 97.056l-75.584 75.936 91.597-119.839 6.863 147.181z"/></svg>