<svg xmlns="http://www.w3.org/2000/svg" width="228" height="278" viewBox="0 0 836 1024"><path fill="#825a5b" d="M0 0h836v1024H0z"/><path fill="#eee8fd" fill-opacity=".988" d="M245.71 1020.882L-7.42 1086l-48.095-306.976 315.285-6.506z"/><path fill="#eee6fd" fill-opacity=".988" d="M898 749.872l-295.372 17.476L680.166 1086 898 1055.85z"/><path fill="#190508" fill-opacity=".545" d="M-62 501.929l346.404-175.066 54.88-385.245L4.824-62z"/><path fill="#851b24" fill-opacity=".949" d="M602.797 701.335l-374.103-44.13L299.86 1086l328.433-65.546z"/><path fill="#0a0308" fill-opacity=".494" d="M586.446 228.894l271.518 60.13 36.638 140.624-399.02 248.984z"/><path fill="#03221b" fill-opacity=".467" d="M37.868 349.858l145.585 314.6-201.056 102.99 522.07-13.259z"/><path fill="#0b1410" fill-opacity=".733" d="M222.671-59.602l300.803 258.484 13.402-100.035-53.899-95.57z"/><path fill="#ccf9e5" fill-opacity=".604" d="M563.4 346.175L511.607-62l88.112 185.694-146.883 171.312z"/><path fill="#ff2131" fill-opacity=".537" d="M617.372 786.526l-34.395 188.249-339.103 5.927 71.393-205.742z"/><path fill="#ff635c" fill-opacity=".482" d="M215.056 630.677l333.274-85.37-25.524-132.919-298.879-.94z"/><path fill="#1f191b" fill-opacity=".651" d="M487.697-62h339.635L898 147.065 765.685 168.89z"/><path fill="#f4b2b3" fill-opacity=".71" d="M661.455 475.936l-75.502 17.932 20.55-65.174 49.507-13.309z"/><path fill="#beb06d" fill-opacity=".561" d="M382.77 398.587l199.118-320.95L898 248.292l-609.958-91.248z"/><path fill="#181f26" fill-opacity=".882" d="M252.898 989.844L198.076 1086l467.373-21.573-21.182-85.387z"/><path fill="#031a16" fill-opacity=".51" d="M877.279 676.498l-293.177 27.805-383.215 69.4 548.405-21.767z"/><path fill="#330b0f" fill-opacity=".702" d="M-62 299.238l316.82 77.671 88.248 39.595 2.834-138.07z"/><path fill="#95c3c8" fill-opacity=".282" d="M115.761 182.46l106.306 239.197-99.764 158.427L241.247-62z"/><path fill="#0b0000" fill-opacity=".478" d="M549.228 428.242l201.071 210.95-200.026 2.274-27.857-14.44z"/><path fill="#99c9ff" fill-opacity=".365" d="M898 162.41L769.214 268.526l-47.264 171.03-10.71-249.197z"/><path fill="#e28e7e" fill-opacity=".592" d="M718.146 477.235l-38.277 59.35L898 657.163v-35.629z"/><path fill="#f0f1ff" fill-opacity=".322" d="M273.446 942.98L54.986 1086-62 882.116l278.975-207.354z"/><path fill="#c40013" fill-opacity=".596" d="M537.9 347.632l.928 267.03-196.212 5.458 131.534-53.63z"/><path fill="#b1fdf3" fill-opacity=".353" d="M12.278 669.901l73.751-194.22-136.291-52.448 21.792 291.47z"/><path fill="#25222a" fill-opacity=".671" d="M118.532 571.137l-56.435-51.5 243.374-244.612-156.44 202.12z"/><path fill="#b6c50a" fill-opacity=".49" d="M704.43 89.6l-93.48 155.446-51.112-6.811 11.98-166.5z"/><path fill="#47010d" fill-opacity=".635" d="M590.48 373.417l-148.405 9.808-90.788 57.61 114.857-135.948z"/><path fill="#b0a38b" fill-opacity=".549" d="M436.855 656.822l-191.398-103.31 256.332-92.125-193.371 221.69z"/><path fill="#00020b" fill-opacity=".424" d="M451.02 723.561L147.323 568.157l87.493-193.78-19.13 401.49z"/><path fill="#ddb9b2" fill-opacity=".906" d="M305.311 480.162l-34.06-30.152-25.532-52.146 27.664-13.788z"/><path fill="#c44a3a" fill-opacity=".612" d="M255.585 559.672l-82.4 32.177-144.722-76.316 114.662 181.128z"/><path fill="#b8cacc" fill-opacity=".769" d="M529.771 183.85L563.99-54.415l.577 392.827-62.784-13.915z"/><path fill="#0d1418" fill-opacity=".694" d="M259.125 7.716L170.8 364.786 339.792 46.733 515.92 50.83z"/><path fill="#c76d5a" fill-opacity=".592" d="M653.152 649.099l-159.201-18.262-119.01 18.605 149.748 77.49z"/><path fill="#ebd8e7" fill-opacity=".631" d="M493.615 433.777l-61.11-15.177-6.143-17.78 73.211-15.284z"/><path fill="#af8976" fill-opacity=".537" d="M467.449 103.799L285.194 273.085l-11.764-84.862 75.452-121.849z"/><path fill="#c1000d" fill-opacity=".306" d="M162.01 326.185l163.657 111.419-175.725 70.367 375.064-53.038z"/><path fill="#0a0f14" fill-opacity=".659" d="M488.512 758.67L331.926 594.186l75.782 29.581-69.196 123.344z"/><path fill="#dffffa" fill-opacity=".369" d="M177.737 355.262l-50.251 73.668-46.207 15.272 130.813-47.18z"/><path fill="#07120e" fill-opacity=".306" d="M761.695 275.608l-100.528-64.75-29.729-40.115-116.697 292.414z"/><path fill="#f00010" fill-opacity=".29" d="M577.745 721.53l-21.308-52.672 165.158-193.555 28.869 17.173z"/><path fill="#a59c93" fill-opacity=".902" d="M789.23 532.441L898 420.03l-4.75 286.106-166.055-218.13z"/><path fill="#bfc6d0" fill-opacity=".49" d="M159.758 464.7l-42.163 94.442 29.952 13.755 34.811-133.445z"/><path fill="#d2f3ff" fill-opacity=".337" d="M362.28 662.973l-59.003 21.77-34.008-33.776 82.02 5.053z"/><path fill="#000c0d" fill-opacity=".518" d="M693.622 448.25l82.324-25.045L892.88 302.162 782.052 530.274z"/><path fill="#cbc2ba" fill-opacity=".439" d="M417.141 587.92l20.805-126.704 71.731 27.307-53.57 83.516z"/><path fill="#b3a6d3" fill-opacity=".565" d="M642.783 956.823l-41.998-196.625L898 741.448l-283.263 58.883z"/><path fill="#430e13" fill-opacity=".675" d="M75.265 461.833L259.62 284.32 8.42 263.61l-24.269 152.203z"/><path fill="#b8ced0" fill-opacity=".831" d="M590.973-35.18L497.197-62l9.544 97.996 26.465 37.664z"/><path fill="#d42031" fill-opacity=".667" d="M561.378 374.244L448.81 363.276l99.025 82.336-162.32 40.07z"/><path fill="#260005" fill-opacity=".267" d="M412.466 294.3l-140.292 30.754L535.24 183.676l.144-113.891z"/><path fill="#1b171e" fill-opacity=".824" d="M228.184 1060.961l187.629-73.944-30.867-12.702-137.392 7.55z"/><path fill="#c3121c" fill-opacity=".549" d="M222.073 570.153l-4.231-213.067 23.204-12.258 24.539 193.433z"/><path fill="#e42f3d" fill-opacity=".596" d="M237.42 997.547l355.8-204.478 68.07 191.497L432.13 767.16z"/><path fill="#c28b7b" fill-opacity=".988" d="M261.18 511.303l28.157 84.463 87.282-170.81-55.571 53.312z"/><path fill="#e9e0fa" fill-opacity=".722" d="M262.012 937.444L61.046 772.53l101.105-1.266 100.047 50.653z"/><path fill="#491300" fill-opacity=".267" d="M104.509 750.005l349.832-179.01L25.793 689.678-20.623 803.33z"/><path fill="#002634" fill-opacity=".298" d="M393.174 409.68l7.397 16.387 90.178-112.043L525.656 147.7z"/><path fill="#0a1215" fill-opacity=".714" d="M550.29 496.39l76.53 138.04-143.623.265L714.74 495.224z"/><path fill="#5a4c3e" fill-opacity=".714" d="M631.79-62l-64.7 117.39 311.255 106.34-174.312 20.316z"/><path fill="#0b0d12" fill-opacity=".675" d="M180.545 581.985l51.078-161.99-48.49 48.966-21.344 43.456z"/><path fill="#90baf9" fill-opacity=".286" d="M764.594 254.618l-137.09-64.5 47.798-26.692L898 202.71z"/><path fill="#2b1c20" fill-opacity=".918" d="M381.323 419.819l-80.215-76.253 31.95 80.535L495.46 321.558z"/><path fill="#8a9492" fill-opacity=".835" d="M83.34 509.65L-62 635.405v-70.02l195.402-126.048z"/><path fill="#a9111f" fill-opacity=".733" d="M475.39 747.387L259.619 947.412l13.163-161.576 46.053-9.474z"/><path fill="#e6fcc8" fill-opacity=".345" d="M130.126 469.88l157.43-52.554-8.628 44.76-65.737-43.526z"/><path fill="#0b0f10" fill-opacity=".769" d="M593.892 711.771l-149.44 33.885 86.28 28.618 82.78-29.959z"/><path fill="#111217" fill-opacity=".941" d="M229.568 691.98l22.72 97.87L456.8 733.29l-42.425-65.724z"/><path fill="#654b41" fill-opacity=".702" d="M-37.935 36.147L-62 295.321 156.38 3.757l83.44 104.873z"/><path fill="#ae9361" fill-opacity=".31" d="M98.549 705l391.608-219.295L146.55 615.932-62 531.918z"/><path fill="#1d1518" fill-opacity=".71" d="M148.384 455.745l68.233-56.644-16.996-204.904 89.915 51.195z"/><path fill="#f20024" fill-opacity=".502" d="M40.37 563.5l21.161-28.655 93.51 54.037 2.987 32.98z"/><path fill="#fad1d6" fill-opacity=".224" d="M558.53 490.492l94.625-.406-9.807-163.466-13.256 82.751z"/><path fill="#3f2725" fill-opacity=".58" d="M109.858 114.64l282.325 13.904 13.704 38.321L17.04 36.727z"/><path fill="#df2934" fill-opacity=".725" d="M366.3 859.254l26.792 117.706 39.538 15.444 105.573-11.437z"/><path fill="#835537" fill-opacity=".549" d="M731.303 619.02l42.05-65.185L898 724.873 603.406 676.95z"/><path fill="#dfb8a1" fill-opacity=".369" d="M307.288 79.608l99.695-4.81-133.372 96.08 95.012 17.453z"/><path fill="#f2eaff" fill-opacity=".996" d="M646.558 786.964L898 800.687 787.696 1086 630.637 925.92z"/><path fill="#101313" fill-opacity=".686" d="M535.458 74.707l-45.528 171.12 46.407-83.153L379.223-5.503z"/><path fill="#f0fde2" fill-opacity=".239" d="M511.487 628.805l-36.592 21.267 79.122 20.484-240.542-5.965z"/><path fill="#313139" d="M658.147 968.911l-12.718 69.274-202.623 41.65 183.47-115.188z"/><path fill="#f90013" fill-opacity=".122" d="M-15.75 157.808l-41.998 196.155 150.947 15.362 68.15-143.389z"/><path fill="#f6b28f" fill-opacity=".314" d="M335.396 343.259l138.975-65.78-80.17 114.125-68.712-46.154z"/><path fill="#5c3d42" fill-opacity=".851" d="M699.403 291.06L898 220.321 701.881 449.105 768 295.557z"/><path fill="#d9fff8" fill-opacity=".333" d="M211.383 325.275l-79 89.434.313 17.07 45.453-17.699z"/><path fill="#1d1e22" fill-opacity=".957" d="M566.651 356.458l63.063 39.19-91.143 124.78.31-139.404z"/><path fill="#280609" fill-opacity=".494" d="M475.045 620.524l-21.843 16.755-255.88-20.656 111.582-3.69z"/><path fill="#748da9" fill-opacity=".424" d="M599.351 749.532L829.936 776 898 658.153l-125.988 90.64z"/><path fill="#aeaae3" fill-opacity=".533" d="M-62 786.009l288.65 2.936-9.926 14.73 37.856-44.115z"/><path fill="#b17a5f" fill-opacity=".584" d="M266.368 271.527l74.02 19.214 168.497-83.505-88.513-76.064z"/><path fill="#e5f0fe" fill-opacity=".18" d="M165.783 208.935l27.034-51.951-17.933-35.594-58.506 8.468z"/><path fill="#131a1f" fill-opacity=".671" d="M122.924 417.815L106.415 560.88l76.244-148.849-35.186 19.288z"/><path fill="#120e20" fill-opacity=".494" d="M665.79-62l230.733 25.843-67.148 54.895-140.114 82.514z"/><path fill="#221819" fill-opacity=".827" d="M182.795 283.752l198.136 5.163-210.195 70.114-76.932 101.129z"/><path fill="#e60012" fill-opacity=".349" d="M709.433 554.034l-94.214 25.759 36.704-34.895 81.707-64.666z"/><path fill="#c91b2e" fill-opacity=".725" d="M199.923 521.408l97.33-26.19 6.105-127.802 49.406 81.833z"/><path fill="#5b453a" fill-opacity=".914" d="M710.803 578.563l-73.064 2.025-15.433-13.132-7.486 84.422z"/><path fill="#d5dbe7" fill-opacity=".459" d="M165.266 460.346l-11.296-8.7 1.931 58.983 57.307-105.2z"/><path fill="#f2ecff" fill-opacity=".898" d="M213.018 1086L-62 818.649l303.349-19.724 22.477 123.597z"/><path fill="#ff0227" fill-opacity=".459" d="M606.519 719.621l5.016-45.152-29.919-44.235-31.444 34.606z"/><path fill="#d4e7fb" fill-opacity=".353" d="M339.262 620.273l15.275 42.921-34.106 13.265-3.275-7.134z"/><path fill="#1b2229" fill-opacity=".741" d="M770.806 424.841L588.851 592.24l97.763-77.926-40.045-96.63z"/><path fill="#67646b" fill-opacity=".337" d="M704.036 369.267L512.055 340.32l276.009 102.12-84.162-291.833z"/><path fill="#160000" fill-opacity=".396" d="M165.806 517.357l-20.614-23.631 113.453 45.188-96.043 67.73z"/><path fill="#a9111c" fill-opacity=".698" d="M661.562 967.313l-62.714-2.158-69.79 8-58.472-116.669z"/><path fill="#feffe0" fill-opacity=".506" d="M237.955 387.751l62.257 17.552-43.287 36.582 47.123 15.378z"/><path fill="#6e684c" fill-opacity=".435" d="M402.952 672.504l162.965-10.357-29.882 70.476-48.165-.33z"/><path fill="#c62537" fill-opacity=".733" d="M419.454 394.296l24.764 73.348-55.094 33.81-58.792-2.503z"/><path fill="#b1c8cf" fill-opacity=".514" d="M459.955 284.138L536.8 182.226l15.635 78.568-53.784-7.288z"/><path fill="#cd4547" fill-opacity=".941" d="M614.606 490.427l-1.33-19.035 3.69-1.375 47.217 17.29z"/><path fill="#393332" fill-opacity=".996" d="M304.755 73.238l62.686-10.273L270.725-62l174.624 30.918z"/><path fill="#290c14" fill-opacity=".435" d="M81.264 524.545l169.665 36.946-180.77-27.207 107.766 70.792z"/><path fill="#7f7840" fill-opacity=".337" d="M702.728 97.908l-144.234 162.43-5.55 99.231 159.18-237.157z"/><path fill="#d02532" fill-opacity=".816" d="M477.203 472.938l53.025-129.867 3.385 127.85-52.683 6.828z"/><path fill="#7c5345" fill-opacity=".694" d="M486.748 542.88L206.91 638.69l283.146-107.04.014-17.773z"/><path fill="#89a7bb" fill-opacity=".38" d="M68.876 767.212l9.39 20.118 150.765-124.26-33.604 64.153z"/><path fill="#d7a85c" fill-opacity=".859" d="M253.307 428.02l-32.851 10.036 34.772 11.19 53.479-48.594z"/><path fill="#cc2132" fill-opacity=".89" d="M364.347 458.91l78.11-67.07 101.659-23.932-83.417-2.757z"/><path fill="#d9e1e8" fill-opacity=".431" d="M431.495 428.465l60.228-9.767-26.59-25.453-51.49 27.109z"/><path fill="#461e0e" fill-opacity=".435" d="M720.018 539.161l-78.973 51.445 177.943 24.147-187.49 13.696z"/><path fill="#f6162b" fill-opacity=".4" d="M523.246 547.998l-142.871 69.06 28.018 7.842 64.338-5.544z"/></svg>