<svg xmlns="http://www.w3.org/2000/svg" width="228" height="278" viewBox="0 0 836 1024"><path fill="#3c303a" d="M0 0h836v1024H0z"/><path fill="#eba76d" fill-opacity=".569" d="M293.616 102.286L511.16 79.545l-11.74 287.348-158.65 22.499z"/><path fill="#ffb270" fill-opacity=".506" d="M834.214 708.271l-377.46 284.242 17.888-107.18 328.817-233.158z"/><path fill="#999596" fill-opacity=".769" d="M340.898 724.158l155.83-33.018 33.064-45.69-238.966-3.01z"/><path fill="#b0a4b3" fill-opacity=".714" d="M130.989 864.848l-171.685 74.754 61.43-84.112 116.904-68.047z"/><path fill="#00143f" fill-opacity=".671" d="M898 404.823v120.203l-410.312 362.11L541.3 275.738z"/><path fill="#d2d7d3" fill-opacity=".537" d="M759.039 499.532l12.652 62.812-46.33 27.366-32.46-41.147z"/><path fill="#222227" fill-opacity=".945" d="M313.283-62H-27.172l16.585 513.503 311.892-144.08z"/><path fill="#a39081" fill-opacity=".349" d="M165.65 623.128L111.91 520.84-62 533.495l48.161 333.782z"/><path fill="#060400" fill-opacity=".631" d="M898 849.734V155.96l-145.57-22.323-23.79 316.81z"/><path fill="#00050d" fill-opacity=".671" d="M147.922 687.086l88.569-233.05 81.897 281.075-141.23 16.128z"/><path fill="#c88d67" fill-opacity=".816" d="M491.675 875.404l91.779 82.417 69.154-160.22-59.901 8.826z"/><path fill="#1c285f" fill-opacity=".698" d="M349.93 322.14l-40.01-68.049L49.27 697.968l317.305-282.81z"/><path fill="#040708" fill-opacity=".486" d="M162.828 870.798L-62 1007.514l339.031 76.784 20.435-248.818z"/><path fill="#023385" fill-opacity=".624" d="M556.95 1007.333l-172.497 29.11L716.021 1086l-43.519-236.487z"/><path fill="#3b001c" fill-opacity=".69" d="M424.947 708.29l98.464 2.442L430.721 1086l-90.703-369.043z"/><path fill="#2e2329" fill-opacity=".886" d="M485.444 274.416L612.56-62 898-37.404 745.601 400.79z"/><path fill="#ffddbe" fill-opacity=".224" d="M842.702 713.673L640.327 319.285l137.61 239.252-26.64 342.36z"/><path fill="#002aa1" fill-opacity=".325" d="M567.48 294.191L443.328 485.496l317.225 17.73-80.497-122.063z"/><path fill="#730c22" fill-opacity=".541" d="M336.67 571.775l39.962-269.27 73.867 64.917-55.088 308.615z"/><path fill="#151721" fill-opacity=".98" d="M898 914.142v-76.735L695.368 966.17 693.703 1086z"/><path fill="#fabb4b" fill-opacity=".439" d="M505.477 555.34l-8.556-41.046-70.782-15.35 20.22 45.335z"/><path fill="#ffd5bf" fill-opacity=".408" d="M342.876 310.878l-1.749-81.667 95.122-38.739-143.917-7.523z"/><path fill="#260b00" fill-opacity=".463" d="M622.77 787.517l-25.42-249.313 23.483-38.516L747.39 740.751z"/><path fill="#ebf6f2" fill-opacity=".408" d="M303.89 675.48l-15.36-70.078 79.115 81.196-27.58-68.512z"/><path fill="#ffb464" fill-opacity=".216" d="M528.812 421.194L407.845-62 186.506 120.3 358.63 29.476z"/><path fill="#200600" fill-opacity=".529" d="M365.135 138.504l80.924 23.828-56.57 32.601 2.468-.938z"/><path fill="#715045" fill-opacity=".776" d="M638.372 1015.015l27.684-47.556-222.113 14.924 76.8-97.962z"/><path fill="#ebbe83" fill-opacity=".42" d="M70.459 690.376L-56.778 863.37 92.015 692.714l60.958-93.164z"/><path fill="#162d7f" fill-opacity=".478" d="M278.739 1086l40.083-404.617 29.635 111.892L375.82 1086z"/><path fill="#767f82" d="M520.49 633.89l23.147 24.915-6.852 20.034-29.135-37.225z"/><path fill="#6a8df0" fill-opacity=".314" d="M641.692 379.157l-87.639-77.189 124.251 71.7 74.89 131.574z"/><path fill="#000036" fill-opacity=".443" d="M243.25 584.19l468.653-1.65-233.682-233.072 41.056 286.978z"/><path fill="#00090a" fill-opacity=".553" d="M130.23 76.278L323.175-62-62 15.413 92.015 223.791z"/><path fill="#603300" fill-opacity=".353" d="M132.046 622.744L-62 917.208l197.765-139.467 125.58-122.652z"/><path fill="#b98362" fill-opacity=".847" d="M502.775 106.971l22.14 84.735-14.549 23.618-175.582 47.564z"/><path fill="#fc9542" fill-opacity=".498" d="M543.296 306.948l-7.53-13.04-47.128 113.993 45.13-72.282z"/><path fill="#6a532f" fill-opacity=".42" d="M864.333 851.931l-195.41-209.924-27.246 48.41 46.1 215.7z"/><path fill="#241700" fill-opacity=".624" d="M456.976 68.052l-100.682 20.02-70.165-14.96 86.208-50.817z"/><path fill="#677aa2" fill-opacity=".455" d="M97.517 533.774l-155.485 44.348 16.747 57.641 201.545-56.47z"/><path fill="#030826" fill-opacity=".639" d="M669.505 627.363l-295.28 9.624 327.511-54.959 166.608-112.905z"/><path fill="#f9ef75" fill-opacity=".49" d="M271.91 517.492l10.465 5.87 31.64 6.762-33.412 17.706z"/><path fill="#533d34" fill-opacity=".639" d="M770.262 279.974l-60.217 136.028-58.88-61.963-1.523-107.701z"/><path fill="#302a2e" fill-opacity=".671" d="M377.987 149.387L65.835 286.76l237.863 30.88 5.76-177.384z"/><path fill="#1a1840" fill-opacity=".698" d="M499.589 783.53l2.144-76.1-226.145-14.543 377.209-8.874z"/><path fill="#040303" fill-opacity=".788" d="M840.445 756.758L811.54 644.94 711.126 403.17l186.874.062z"/><path fill="#005eee" fill-opacity=".22" d="M197.277 525.466l-6.214-63.503 22.764-79.546 112.5-76.969z"/><path fill="#5f0e3c" fill-opacity=".431" d="M318.09 618.677l201.883-172.495-146.517-43.24-57.445-93.585z"/><path fill="#fcb98d" fill-opacity=".275" d="M386.3 71.506L517.082 324.82l-51.706 59.399-5.68-266.23z"/><path fill="#c79e77" fill-opacity=".475" d="M801.163 620.388l37.13 121.034-94.077-1.696 24.079-83.158z"/><path fill="#f9fffd" fill-opacity=".322" d="M792.703 540.878L775.6 550.9l-44.751 44.636-34.193 2.759z"/><path fill="#a57959" d="M319.35 361.11l3.865-9.706 40.431-109.622-33.224 118.015z"/><path fill="#f9ffff" fill-opacity=".314" d="M680.334 530.023l44.8 41.732 23.48-71.523 22.73 58.58z"/><path fill="#72402b" fill-opacity=".757" d="M327.045 259.823l61.855 4.647-14.993 201.7 74.752-117.834z"/><path fill="#dafff5" fill-opacity=".376" d="M672.297 983.59l-16.919-10.538-45.86-8.422 2.3 20.67z"/><path fill="#735c5b" fill-opacity=".416" d="M287.943 777.293l-80.058-14.297L-.48 923.667l21.535 13.503z"/><path fill="#ffc58b" fill-opacity=".235" d="M406.384 106.016L283.45 80.548l21.316-137.829.452 210.85z"/><path fill="#ada4b4" fill-opacity=".596" d="M102.162 844.822l-149.993 72.06 103.936-83.046 82.549-51.467z"/><path fill="#000418" fill-opacity=".439" d="M170.426 614.627L326.628 812.34l-55.287-271.8-90.205-46.718z"/><path fill="#1a151a" fill-opacity=".6" d="M599.697 327.827l-100.625-56.063 33.318-126.063 171.827-1.53z"/><path fill="#040916" fill-opacity=".851" d="M645.205 845.732l29.113 30.155-68.155 31.27 4.092-11.977z"/><path fill="#fff" fill-opacity=".298" d="M320.936 717.863l56.066-9.27-82.366-38.562 65.227-7.448z"/><path fill="#f2f7ed" fill-opacity=".596" d="M462.553 702.49l-76.05 8.674-50.803-4.454 19.203-3.66z"/><path fill="#2a0d00" fill-opacity=".278" d="M100.79 651.683L-62 855.533 47.92 624.107l93.338-11.53z"/><path fill="#06225b" fill-opacity=".875" d="M611.495 894.179L597.756 1086l94.043-87.585-114.759-17.213z"/><path fill="#220a22" fill-opacity=".898" d="M534.104 798.743l-102.6-50.53 52.349 125.585-28.02 78.542z"/><path fill="#3e1126" fill-opacity=".835" d="M459.235 562.553l-17.618 131.8-10.902-170.683-82.063 119.849z"/><path fill="#d09c75" fill-opacity=".682" d="M691.419 780.138L530.458 887.093l59.63 41.77 21.49-45.545z"/><path fill="#1a000d" fill-opacity=".529" d="M547.776 909.589l-44.567 87.86-161.408 25.2 151.756 13.452z"/><path fill="#342c32" fill-opacity=".71" d="M145.132 63.48l167.453-6.235-186.891 577.007 65.527-472.694z"/><path fill="#fedcc6" fill-opacity=".325" d="M347.141 135.14l-2.252 122.915-47.06-73.539 84.92 9.806z"/><path fill="#1c1850" fill-opacity=".659" d="M516.918 329.438l-74.128 71.347 169.464 254.497L490.19 395.218z"/><path fill="#001d58" fill-opacity=".671" d="M734.133 654.386l89.143-37.086-154.207-20.956-28.653-225.932z"/><path fill="#223edd" fill-opacity=".192" d="M186.831 525.772l132.596-8.654 11.85-66.374-114.783 35.532z"/><path fill="#3e1e00" fill-opacity=".439" d="M826.797 739.279l-169.929 107.64L898 751.348V284.6z"/><path fill="#ffe89a" fill-opacity=".384" d="M383.491 342.345l-33.603-24.432 11.093 73.965 8.997-11.228z"/><path fill="#b2aaa4" fill-opacity=".478" d="M412.352 692.945l-72.383-5.6 210.794-14.448-125.148 22.83z"/><path fill="#9a7b52" fill-opacity=".635" d="M480.947 28.93l-59.63 12.32L379.06-.86l-67.559 22.347z"/><path fill="#4e162c" fill-opacity=".655" d="M435.735 761.721l-126.032-63.796 122.6 241.244L404.78 620.32z"/><path fill="#000f41" fill-opacity=".592" d="M489.216 671.718l123.826 132.623 6.163-242.456-164.172 235.538z"/><path fill="#2f2029" fill-opacity=".937" d="M665.6 2.664l-79.23 70.404-174.748-68.16-255.71-6.783z"/><path fill="#d09c79" fill-opacity=".62" d="M612.566 789.932L467.72 930.914l-3.5 42.98 27.476-95.262z"/><path fill="#252e32" fill-opacity=".584" d="M247.291 363.33L106.408 523.46-62 181.558l395.225 93.128z"/><path fill="#1b3f8a" fill-opacity=".714" d="M688.744 866.382l3.797 186.102-40.828-78.246 9.484-52.057z"/><path fill="#8c5e3b" fill-opacity=".588" d="M789.648 642.157l-42.104 16.025-77.803 144.997 117.221-125.096z"/><path fill="#523e25" fill-opacity=".49" d="M472.234 115.406l60.425-44.584-145.55-52.328-24.51 4.03z"/><path fill="#0a1d4c" fill-opacity=".878" d="M724.977 540.457L578.043 776.893l165.189-268.276L492.7 394.747z"/><path fill="#8e5f3e" fill-opacity=".973" d="M488.707 368.1L385.57 346.124l84.087-100.707-65.026 146.155z"/><path fill="#eac992" fill-opacity=".294" d="M149.613 608.085L60.365 698.58l101.439-87.248 25.917 49.217z"/><path fill="#875c49" fill-opacity=".835" d="M503.529 907.876l-44.79 41.058 131.92-29.189-20.6 80.658z"/><path fill="#b88d62" fill-opacity=".569" d="M438.924 555.194l72.548-53.406-12.505 17.002-64.054-9.5z"/><path fill="#6d142b" fill-opacity=".937" d="M434.345 521.972l43.208-162.752-16.947 24.593-1.134-5.844z"/><path fill="#e3dee0" fill-opacity=".282" d="M313.243 634.457l63.492 8.159-57.48 49.243-23.593-79.63z"/><path fill="#755691" fill-opacity=".314" d="M279.458 944.375l87.24-136.774-64.179-157.204 32.97 162.886z"/><path fill="#120b1f" fill-opacity=".796" d="M519.759 553.869l-89.235 120.685 19.643-53.555 39.762 34.5z"/><path fill="#b9d0ff" fill-opacity=".329" d="M810.785 660.877l14.283 45.429-51.02-128.94 7.229-6.425z"/><path fill="#211e4a" fill-opacity=".792" d="M446.508 387.744l-15.528 55.678-10.486 144.247L432.7 597.77z"/><path fill="#421e11" fill-opacity=".251" d="M612.13 235.25l-250.774-3.228 54.458 238.002-80.27-248.423z"/><path fill="#201605" fill-opacity=".361" d="M178.688 785.937l129.075-185.082-178.078 59.989-29.097 138.305z"/><path fill="#130300" fill-opacity=".376" d="M335.838 180.817l55.076-43.384 36.23 28.748-112.052-7.56z"/><path fill="#3e1123" fill-opacity=".627" d="M391.485 1086l-12.376-185.434L430.017 1086l94.124-193.744z"/><path fill="#4c1124" fill-opacity=".937" d="M374.388 624.518l55.543 2.222-88.848-92.303 7.795 118.735z"/><path fill="#f0fbe9" fill-opacity=".361" d="M540.565 658.634l-15.501-22.792 3.91 52.828 3.842-12.163z"/><path fill="#0f0001" fill-opacity=".506" d="M665.434 646.245l-40.139 104.499-17.294-226.891 136.027 178.802z"/><path fill="#bc3740" fill-opacity=".427" d="M612.859 745.411l2.778 46.69 26.149 42.99-16.522-112.247z"/><path fill="#6f1926" fill-opacity=".953" d="M364.443 511.473l44.16-174.238L382.1 683.53l15.02-16.656z"/><path fill="#000934" fill-opacity=".545" d="M239.976 485.545l71.715-50.864-5.396-12.72-67.147 1.873z"/><path fill="#e4ffeb" fill-opacity=".322" d="M407.235 634.262l26.23.241-9.45 50.106-15.536-51.43z"/><path fill="#031950" fill-opacity=".545" d="M502.703 363.088l33.095 12.61 85.256 313.093-114.151-86.578z"/><path fill="#3b2e38" fill-opacity=".757" d="M783.118 120.135l55.885-39.108-167.401-36.693-163.274 72.773z"/><path fill="#fc963e" fill-opacity=".357" d="M522.237 336.047l11.926-57.25 7.204 48.311-58.272 80.97z"/><path fill="#6e6573" fill-opacity=".49" d="M145.999 849.458L-62 919.991l156.192-7.163 53.891-151.215z"/><path fill="#251c22" fill-opacity=".902" d="M493.19 229.687l9.82 55.595 250.995-171.253L873.403 227.78z"/><path fill="#dbffdb" fill-opacity=".239" d="M515.872 635.188L365.31 665.999l33.408-16.449 147.59-.089z"/><path fill="#30163b" fill-opacity=".886" d="M337.827 639.44l-79.229-77.675 79.809-26.115 4.426 30.946z"/><path fill="#fde4cb" fill-opacity=".231" d="M317.598 100.377l-7.83 37.072 38.296 9.897-21.732-71.037z"/><path fill="#221e26" fill-opacity=".941" d="M305.508 161.807l-31.28-12.943 59.17 148.499-79.411 49.583z"/><path fill="#e6b58f" fill-opacity=".459" d="M511.153 205.9l-31.19-19.113 18.335 136.106-36.458-39.468z"/><path fill="#ffe8cb" fill-opacity=".188" d="M89.446 665.594l33.823-30.307L18.21 772.644-62 869.618z"/><path fill="#63411e" fill-opacity=".404" d="M41.014 537.85l-44.506-3.836-50.284-230.522L53.492 474.311z"/><path fill="#00215c" fill-opacity=".741" d="M674.253 958.585l5.685-14.136-59.676-49.952-35.4 80.174z"/></svg>