<svg xmlns="http://www.w3.org/2000/svg" width="228" height="278" viewBox="0 0 836 1024"><path fill="#6a675a" d="M0 0h836v1024H0z"/><g fill-opacity=".502"><path fill="#ffe4e5" d="M690 1086L506 722l392-96z"/><path fill="#004734" d="M370 1006L-62 314l764 100z"/><path fill="#ffafb1" d="M66 1086L-62 850l472-44z"/><path fill="#250800" d="M482 370L230 198 898-42z"/><path fill="#fd6360" d="M818 1086l80-884-220 164z"/><path fill="#f2c4bc" d="M726-38L350 150 70 94z"/><path fill="#081a00" d="M802 890L574 542l84-196z"/><path fill="#bdf3ff" d="M518 506l108-60-320-4z"/><path fill="#cef5ff" d="M898 330L742 142l64 280z"/><path fill="#7bdbab" d="M-62 278l148-92 396 200z"/><path fill="#000400" d="M330 374L110 566l116 284z"/><path fill="#ffdef4" d="M738 838l-204 4 220 244z"/><path fill="#f9f6ee" d="M222 966l240-4-180-56z"/><path fill="#fc8256" d="M-62 534l304 376-132-336z"/><path fill="#0b8468" d="M518 794l-304 32 452 260z"/><path d="M70-62h356L-62 118z"/><path fill="#94e0de" d="M678 222L494 382l204-24z"/><path fill="#ff1c24" d="M714 1086l184-108-132-100z"/><path fill="#a5887e" d="M250 558l560 196-204-176z"/><path fill="#ff1c20" d="M186 906l-248 168 44-172z"/><path fill="#32dda3" d="M66 506l264-236 72 68z"/><path fill="#0a0000" d="M-62 826l204-4-84-124z"/><path fill="#002102" d="M242 1058l-68-80 360-16z"/><path fill="#9d6f4d" d="M390 106L674-14 334 358z"/><path fill="#0c0107" d="M202 378L-62 554l56-228z"/><path fill="#011315" d="M326 158l-180 68-64-92z"/><path fill="#ffbbcb" d="M142 1086L-26 826l184 28z"/><path fill="#9f0000" d="M898 594l-192 4 192-244z"/><path fill="#09101f" d="M898 62L582 218 690-62z"/><path fill="#004522" d="M558 270l128 116-12 276z"/><path fill="#050004" d="M678 270l72 88 40-124z"/><path fill="#88bac5" d="M222 794l100 76 188-52z"/><path fill="#d8efff" d="M206 166l-72-56 92-36z"/><path fill="#ff2e2e" d="M638 898l-68-4 76 112z"/><path fill="#00250b" d="M502 714l-308-92 360 8z"/><path fill="#63a2a3" d="M238 662l60 80 260-32z"/><path fill="#8b5542" d="M130 370L314-62l-32 360z"/><path fill="#e53e30" d="M134 894l208 96-400-64z"/><path fill="#002004" d="M554 866l-260 4 108 56z"/><path fill="#00200a" d="M254 758l244-16 64 84z"/></g></svg>