<svg xmlns="http://www.w3.org/2000/svg" width="228" height="278" viewBox="0 0 836 1024"><path fill="#8d8c90" d="M0 0h836v1024H0z"/><g fill-opacity=".502"><path d="M478 186v900L310 634z"/><path fill="#fff" d="M126 1074l264-456-60 456z"/><path fill="#eaf2ff" d="M898 574L570 158l-96 432z"/><path fill="#331e1f" d="M798-62L6 46l892 116z"/><path fill="#000101" d="M718 682l-296 40 160-232z"/><path fill="#ebedf8" d="M370 218L34 926l-96-216z"/><path d="M482 1042l-44-564-116 608z"/><path fill="#e7ddeb" d="M898 694l-392 28-32 336z"/><path fill="#eddee6" d="M358 598l-48-452-164 344z"/><path fill="#3e4245" d="M-14 618l540 116-96-164z"/><path fill="#462518" d="M526 350L362 678l-20-504z"/><path fill="#fff" d="M286 670l-88 416 176-228z"/><path fill="#463f4d" d="M466 178l-484-64L114-54z"/><path fill="#c1c5c6" d="M898 138l-96 696-352-652z"/><path fill="#3e3734" d="M898 798L498 946l400-16z"/><path fill="#1c242a" d="M822 582l-132 68-4 140z"/><path fill="#bfc6c0" d="M-22 346l548-48L-62 98z"/><path fill="#fafbff" d="M778 634l120 92-264 200z"/><path fill="#fff" d="M474 498l64-172 240 108z"/><path fill="#a6836f" d="M458 46l332 376-504-208z"/><path fill="#deeeef" d="M26 650l-60 284 228-108z"/><path d="M358 694L206 522l52 140z"/><path fill="#dcdbed" d="M482 522l28 72 188-28z"/><path d="M398 594l264-4 8 96z"/><path fill="#a3a6a3" d="M310 630h268l-56 68z"/><path fill="#3d476b" d="M130 1086L-62 898l264 32z"/><path fill="#454848" d="M610 350l288 72v-80z"/><path fill="#967281" d="M326 418l-104 4-80 288z"/><path fill="#607c77" d="M10 358l204-16L38 674z"/><path fill="#e7eaff" d="M374 714l-108-48 68 420z"/><path fill="#e4e5ff" d="M786 598l-108 56 8-244z"/><path fill="#0a0c11" d="M482 614v344l-168 128z"/><path fill="#020e18" d="M330 358l148 192-76 116z"/><path fill="#1e1d1d" d="M258 54l268 16L198-62z"/><path fill="#914e38" d="M582 974l-52-84 172-12z"/><path fill="#fab5a1" d="M378 154l-16-84 188 28z"/><path fill="#cdd0e0" d="M678 898l-232 184 188-8z"/><path fill="#454143" d="M898 106L610 70 362 182z"/><path fill="#eae8fb" d="M898 842L710 678l88-56z"/><path d="M86 570l88 104-72-48z"/></g></svg>