<svg xmlns="http://www.w3.org/2000/svg" width="228" height="278" viewBox="0 0 836 1024"><path fill="#645e6a" d="M0 0h836v1024H0z"/><g fill-opacity=".502"><path fill="#eff" d="M178 1010l388-772 88 836z"/><path d="M242 1062l-304-52L58-62z"/><path fill="#f3ffff" d="M174 354l36 328 364-92z"/><path fill="#3c1003" d="M898 14L2 462-6-62z"/><path d="M730 218L590 646l188 440z"/><path fill="#fff" d="M506 318l156 76-100 304z"/><path fill="#d9fdff" d="M898 426l-76 376-88-128z"/><path fill="#dcab78" d="M462 426l52-304-252 8z"/><path fill="#551a18" d="M358 62l448 496 92-620z"/><path fill="#d8ebff" d="M538 678l-188 384 364-44z"/><path fill="#d5e5ff" d="M86 438l140-92 312 340z"/><path fill="#000005" d="M622 510l84 500 192-4z"/><path fill="#16274c" d="M554 674l-292-24 40 128z"/><path fill="#000110" d="M362 474L222-18-54-62z"/><path d="M86 374l120 244-128 440z"/><path fill="#b7cdff" d="M218 630l88 144-76 312z"/><path fill="#e9f7ff" d="M562 318L294 626l356-172z"/><path d="M394 486l100-84-224-16z"/><path fill="#a03631" d="M502 314l24-376 128 444z"/><path fill="#7185ba" d="M486 914l-36-268-288 248z"/><path fill="#eee2bf" d="M94 610l-56 16 40-120z"/><path fill="#e8eeff" d="M150 502l148-180-180 92z"/><path fill="#000814" d="M690 794l132-464-236 264z"/><path fill="#a3713e" d="M562 486l-8 136-56-92z"/><path fill="#beccff" d="M226 370l340 244-152 84z"/><path fill="#000a14" d="M70 630l136 356-252 20z"/><path fill="#b4c8ff" d="M742 594l28 180 128-164z"/><path fill="#42373e" d="M394 174l-444-4 64 336z"/><path fill="#c2d6ff" d="M374 718l172 200 96-208z"/><path fill="#cda180" d="M534 198L322 302l-24-84z"/><path fill="#d02321" d="M458 26l168-88-32 192z"/><path fill="#693a12" d="M330 398l100 32-48-268z"/><path fill="#080e0e" d="M270 646l8 72 152-8z"/><path fill="#000c3a" d="M510 658l36-16 32 68z"/><path fill="#000009" d="M194 526l20 288-108-236z"/><path fill="#e3f5ff" d="M494 326l156 56-24 148z"/><path fill="#112b41" d="M682 1002l136-252 80 284z"/><path fill="#1c2944" d="M306 574l-128 36 100-60z"/><path fill="#435471" d="M654 678l4 240-48-100z"/><path fill="#2b2430" d="M898 138l-396 76L790-62z"/></g></svg>