<svg xmlns="http://www.w3.org/2000/svg" width="228" height="278" viewBox="0 0 836 1024"><path fill="#66625e" d="M0 0h836v1024H0z"/><g fill-opacity=".502"><path fill="#fff" d="M234 1086l324-848-48 492z"/><path d="M234 1054L122 338l400-68zm144-72l212 20 60-648z"/><path fill="#b2b0ad" d="M834 534L378 114l376 44z"/><path fill="#fff9ff" d="M390 578l60 248 156-476z"/><path fill="#c2cbd8" d="M-62 402l80 500 112-460z"/><path fill="#faffff" d="M370 994l152-364-272 352z"/><path fill="#aea9ae" d="M42-22l484 76-588 152z"/><path fill="#170d01" d="M330 502l-348 556 276-920z"/><path fill="#fff" d="M602 382l-124 84 28-168z"/><path fill="#b58c76" d="M526 558l244 24 112 472z"/><path fill="#1e1106" d="M754-62l-84 240L478 22z"/><path fill="#d9e0cb" d="M342 622l-4-64 224 40z"/><path fill="#200" d="M774 830L566 510l44-200z"/><path fill="#aec0c2" d="M898 98L634 390 758 46z"/><path fill="#b9e7f0" d="M606 1086l116-136-116-48z"/><path fill="#000404" d="M194 498l208 160-148 332z"/><path fill="#000604" d="M598 990l-236 8 228-456z"/><path fill="#95a6b9" d="M206 650L94 914l116 56z"/><path fill="#7e5734" d="M670 314L226-62l132 388z"/><path d="M590 1026l-328 60-72-100z"/><path fill="#a6c1db" d="M594 550l156 280-84 12z"/><path fill="#463b33" d="M106 410L-54 178l744 100z"/><path fill="#fff" d="M574 538l-40 80 36-24z"/><path fill="#855e3f" d="M82 754l108-176-252 88z"/><path fill="#121919" d="M254 994l168-384-232 72z"/><path fill="#bec8ce" d="M374 418l-24 56-48-48z"/><path fill="#e2f5ff" d="M386 962l-128 36 188-400z"/><path fill="#0d181d" d="M490 366l-52 184-184-16z"/><path fill="#bda796" d="M510 306l44-136L418-50z"/><path fill="#ff232f" d="M510 454l68 4-52-64z"/><path fill="#aeb4bf" d="M234 166l-100 52 64-280z"/><path fill="#cc5534" d="M706 510l-68 24 120 240z"/><path fill="#3e1600" d="M190 634L22 1074l24-284z"/><path fill="#ecc4b1" d="M790 850l88 104-100-280z"/><path fill="#abb4bc" d="M878 426L646 190l88 244z"/><path fill="#e2eef6" d="M462 1006l-152-16 20-36z"/><path fill="#3d474c" d="M642 174L490 290l140 96z"/><path fill="#0c0000" d="M834 826l-36-132 40 4z"/><path fill="#fff" d="M602 374l-120 52 28-104z"/></g></svg>