<svg xmlns="http://www.w3.org/2000/svg" width="228" height="278" viewBox="0 0 836 1024"><path fill="#a9a395" d="M0 0h836v1024H0z"/><path fill="#482011" fill-opacity=".616" d="M443.44 487.55l181.114-124.792 76.08-325.67L454.575-62z"/><path fill="#12419e" fill-opacity=".843" d="M94.318 1056.835l487.334-30.295-379.48-100.78-94.41-26.434z"/><path fill="#d3cabd" fill-opacity=".984" d="M557.305 604.392L-62 299.692 184.698-62l142.99 340.645z"/><path fill="#f6e6cf" fill-opacity=".659" d="M826.902-62L587.329 483.22l101.269 230.705L898 734.738z"/><path fill="#e6f0fe" fill-opacity=".824" d="M248.83 778.845l307.54 100.47-22.814 119.161-288.8-58.555z"/><path fill="#003da6" fill-opacity=".714" d="M416.149 263.552l-235.27 17.062 187.47 40.824 76.465 116.46z"/><path fill="#314331" fill-opacity=".282" d="M-22.867 1086l249.456-496.018L889.23 1086 154.544 338.57z"/><path fill="#7f9351" fill-opacity=".894" d="M898 725.586L673.963 1086 656.95 624.344l-134 123.507z"/><path fill="#e7c89d" fill-opacity=".745" d="M-62-5.526v577.927L515.012 8.286l123.54-9.942z"/><path fill="#000302" fill-opacity=".525" d="M436.616 157.599l272.727-78.36L565.835-17.5 461.412 49.763z"/><path fill="#daa983" fill-opacity=".459" d="M898 54.558L694.795 361.781 438.096 204.6l114.466-55.513z"/><path fill="#9e6e56" fill-opacity=".976" d="M158.224 550.893L79.262 424.077l-39.084 82.45 163.582 510.345z"/><path fill="#cce4ff" fill-opacity=".533" d="M432.694 607.965l-155.277-67.411-90.235-297.561 353.775 267.222z"/><path fill="#f2e9d1" fill-opacity=".937" d="M102.406 700.878L45.581 561.256-62 621.721l79.988 82.243z"/><path fill="#4d534f" fill-opacity=".498" d="M578.592 657.104l-251.05 20.617 312.744-135.624L547.701 1086z"/><path fill="#7da056" fill-opacity=".906" d="M94.75 1039.295l-.468-327.268-154.855 1.12 58.237 353.277z"/><path fill="#8a9f55" fill-opacity=".776" d="M419.44 1086l192.496-79.859L898 1054.028l-78.133-326.804z"/><path fill="#d79979" fill-opacity=".933" d="M626.774 1086l31.743-74.642 10.206-298.413-80.297 38.44z"/><path fill="#d8be9a" d="M248.777-62l-52.87 334.409 264.265-29.92-36.346-211.142z"/><path fill="#011936" fill-opacity=".443" d="M474.96 464.979l196.247-126.51-68.799-9.774-193.979 73.61z"/><path fill="#0a0207" fill-opacity=".412" d="M72.208 451.396l102.479 95.32 53.575-110.932-56.489 214.401z"/><path fill="#c6e4ff" fill-opacity=".49" d="M720.929 356.558l-162.047 26.608-29.263 121.911 163.529 54.105z"/><path fill="#eca487" fill-opacity=".651" d="M248.92 838.907L125.12 554.58l-57.712-46.07 169.203 463.955z"/><path fill="#7ba5df" fill-opacity=".318" d="M511.863 924.886l-27.678-280.077-272.956-57.24-29.635 133.257z"/><path fill="#270011" fill-opacity=".314" d="M482.393 796.633l275.954-234.617-90.998 12.533-9.173 132.763z"/><path fill="#deecff" fill-opacity=".592" d="M79.643 370.182L433.138 423.1l-42.732-85.637-174.49-46.21z"/><path fill="#72472a" fill-opacity=".537" d="M572.942 387.82L520.05 190.3l-116.499 74.494 6.318 138.659z"/><path fill="#695f51" fill-opacity=".863" d="M627.535 739.343l-69.51-236.812-31.372 26.047-7.296 41.434z"/><path fill="#fefdef" fill-opacity=".62" d="M898 722.357V631.65l-222.167-23.71-12.998 101.108z"/><path fill="#5f84a6" fill-opacity=".427" d="M220.15 365.8l-89.715 17.116-13.429 103.128 257.833 33.3z"/><path fill="#e7e6d4" fill-opacity=".933" d="M573.074 638.568l-5.091 74.564-14.14 9.125-23.618-19.509z"/><path fill="#567351" fill-opacity=".541" d="M497.993 702.64l67.636 224.747L574.384 1086l45.203-217.12z"/><path fill="#69b8ff" fill-opacity=".447" d="M127.996 980.12l-13.534-256.447L85.476 1086h210.26z"/><path fill="#cfb7a0" fill-opacity=".549" d="M675.838 223.452L504.525 189.93l255.08 240.355L702.278-62z"/><path fill="#240b00" fill-opacity=".298" d="M742.816 108.714l-213.228 83.39 130.69 15.121L602.232-4.35z"/><path fill="#001666" fill-opacity=".541" d="M159.669 1006.245l290.88-18.017-149.425 82.624-178.287-175.605z"/><path fill="#ebeef9" fill-opacity=".486" d="M193.228 743.086l144.889 213.573 141.378 41.489-274.81-327.64z"/><path fill="#0066fb" fill-opacity=".502" d="M411.948 248.133l-152.664 43.078 81.352 33.052 60.596-3.673z"/><path fill="#b27e5c" fill-opacity=".855" d="M422.542 356.99l60.75 1.156 2.465-98.08-55.684 20.034z"/><path fill="#f6e1cc" fill-opacity=".361" d="M55.934 178.576L27.668 547.493 94.314 431.5l86.139 170.254z"/><path fill="#cfd9e4" fill-opacity=".933" d="M350.75 783.57l206.785 182.703 1.796-37.181-175-151.124z"/><path fill="#efd09f" fill-opacity=".376" d="M898 565.186L636.815-62 526.706 10.093 898 12.692z"/><path fill="#be7c6a" fill-opacity=".58" d="M267.025 940.286l-71.851 39.292-83.392-366.443 80.2 212.265z"/><path fill="#81604e" d="M696.115 275.98l-213.634 5.959 151.703 16.523-36.249-57.243z"/><path fill="#9db5cb" fill-opacity=".588" d="M699.77 579.5l-23.852 69.562-63.52 23.027 15.505-183.055z"/><path fill="#855a7a" fill-opacity=".62" d="M307.235 644.766l-58.8-88.078 285.537 57.455 231.465-20.307z"/><path fill="#260c00" fill-opacity=".235" d="M85.035 552.744L204.56 1030.79 43.414 520.477l234.174-49.913z"/><path fill="#e4ebf2" fill-opacity=".773" d="M428.708 427.609l-144.924 61.315-28.522-28.529 138.156-110.447z"/><path fill="#390301" fill-opacity=".439" d="M577.756 646.855l-9.36 62.428 106.325-2.12-32.852-31.295z"/><path fill="#424f68" fill-opacity=".749" d="M515.929 728.517l31.896-47.908-61.896 40.166 80.73 172.367z"/><path fill="#1c7fff" fill-opacity=".431" d="M225.241 921.344l58.943 98.585-97.483-36.445 203.782-1.94z"/><path fill="#a2bcea" fill-opacity=".58" d="M133.826 759.234l23.626 161.8-61.905-38.203 15.344-105.595z"/><path fill="#924a00" fill-opacity=".216" d="M692.573 572.661l128.093-.49-35.926-149.266-35.505 196.1z"/><path fill="#e59a7e" fill-opacity=".549" d="M659.686 143.628l-29.18 58.87-41.234-102.159-27.946 73.023z"/><path fill="#415360" fill-opacity=".71" d="M117.554 669.721L78.387 908.443l105.27 9.983-87.59-11.89z"/><path fill="#011537" fill-opacity=".494" d="M432.128 366.94l-38.96-105.136 24.755 150.587 51.412 53.563z"/><path fill="#281f19" fill-opacity=".612" d="M444.568 98.154l43.325-77.849 41.424 2.57L507.4 222.57z"/><path fill="#c0976c" fill-opacity=".557" d="M-62 28.024v153.229L191.004 60.364l-13.889 89.092z"/><path fill="#fefffc" fill-opacity=".333" d="M671.245 327.051l20.718-191.664L722 356.745 550.839 597.41z"/><path fill="#78899d" d="M346.918 493.84L182.15 555.48l67.854-58.796 92.308-22.186z"/><path fill="#e9f0f5" fill-opacity=".769" d="M565.795 957.345L541.144 856.26 382.02 971.483l78.201 22.326z"/><path fill="#633402" fill-opacity=".18" d="M20.196 189.533L-62 186.907 467.051 46.931 7.81 194.365z"/><path fill="#c2d0de" fill-opacity=".725" d="M320.611 571.776l64.32-101.647 114.624-17.343 4.552 149.465z"/><path fill="#8c98a9" fill-opacity=".769" d="M421.238 846.234l56.952 27.747-55.274 3.278-260.901-269.744z"/><path fill="#001d71" fill-opacity=".514" d="M635.167 325.774l-.464 11.03 44.785 19.53-145.473 12.294z"/><path fill="#719240" fill-opacity=".553" d="M667.343 902.922l-17.893 177.475L898 1006.97l-6.794-69.082z"/><path fill="#061c23" fill-opacity=".102" d="M757.438 94.178l-14.472 243.318-49.375 95.05 26.844-342.232z"/><path fill="#4e3726" fill-opacity=".373" d="M706.546 70.62l69.117-9.281-119.037-14.885-18.206 214.198z"/><path fill="#0265e9" fill-opacity=".725" d="M99.238 992.457l14.12-65.57 19.05 14.843 30.05 144.27z"/><path fill="#01134f" fill-opacity=".416" d="M375.804 344.33l28.066 7.648 43.353-95.871-30.183-.575z"/><path fill="#8f7957" fill-opacity=".518" d="M402.079 173.914l-60.176.01 65.401-69.878-59.693 6.11z"/><path fill="#ffe3d3" fill-opacity=".537" d="M163.028 1001.597l91.393 61.63L79.362 1086l77.98-74.304z"/><path fill="#ffe3bf" fill-opacity=".463" d="M770.867 85.692L816.569-62 704.429 80.038 656.562-62z"/><path fill="#022a83" fill-opacity=".596" d="M513.755 997.896L317.24 990.73l-96.736-18.706L501.062 1086z"/><path fill="#312400" fill-opacity=".333" d="M740.903 519.544l-38.993 1.336 33.55 76.308-42.975 2.107z"/><path fill="#73858c" fill-opacity=".369" d="M249.519 778.163l77.596 86.911-117.017-184.97 454.317-77.329z"/><path fill="#efd8b8" fill-opacity=".863" d="M898 171.134l-233.464 63.59 107.302 3.486-37.023 345.426z"/><path fill="#fcfeff" fill-opacity=".588" d="M193.16 297.518l97.366-.967 7.501 88.977-140.203-61.166z"/><path fill="#8aa65d" fill-opacity=".714" d="M603.229 920.433l-20.63-14.764-43.215-186.72 29.383 1.521z"/><path fill="#f3dab8" fill-opacity=".616" d="M439.17 252.967L406.017-62l-11.665 282.37-133.7 41.35z"/><path fill="#ecb497" fill-opacity=".71" d="M580.363 1008.774l71.777-52.102-12.036-259.04-18.965 354.016z"/><path fill="#eaca9d" fill-opacity=".722" d="M56.015 576.736l4.79 59.248-13.25-147.264-52.592 44.932z"/><path fill="#ddd1b7" fill-opacity=".467" d="M791.265 453.87L618.552 316.054 707.75 107.27l.864 292.921z"/><path fill="#ffd1a5" fill-opacity=".525" d="M176.686 538.826l-10.263 22-22.308-19.157 33.742-42.05z"/><path fill="#000b19" fill-opacity=".671" d="M518.331 437.908l-46.115 16.633 100.526-92.872 14.31 5.982z"/><path fill="#73361e" fill-opacity=".255" d="M205.813 202.806l56.73 69.614-63.892 22.405 52.752-97.748z"/><path fill="#b8c9df" fill-opacity=".714" d="M128.358 326.985L85.75 417.46l15.008 44.242 28.653 39.007z"/><path fill="#ffad93" fill-opacity=".38" d="M571.362 213.6l20.136 131.985-36.14-22.703 83.84-127.28z"/><path fill="#00140b" fill-opacity=".188" d="M175.407 545.161l51.248-29.49 14.327-137.727-26.286 11.72z"/><path fill="#c19676" fill-opacity=".792" d="M371.552 239.62l-21.973-34.063 153.617-.496-53.531-30.172z"/><path fill="#f9e7c7" fill-opacity=".408" d="M356.678 240.523L258.981 25.807l-4.405 143.932 100.572-116.64z"/><path fill="#20394f" fill-opacity=".227" d="M358.862 749.45l154.394-41.088 62.685 131.771-69.138-61.348z"/><path fill="#bcc8d3" fill-opacity=".965" d="M386.627 573.023L257.48 517.76l195.886-6.685-89.78 127.648z"/><path fill="#593403" fill-opacity=".137" d="M522.389 77.9L160.75 197.602-62 90.76l196.656 82.717z"/><path fill="#ffecc9" fill-opacity=".337" d="M219.155 24.474l-2.224 294.053L122.507-62l-5.556 259.932z"/><path fill="#91a9c2" fill-opacity=".655" d="M606.09 366.103l26.46 1.24-115.044 167.4-32.981-67.237z"/><path fill="#1f0300" fill-opacity=".318" d="M701.132 179.314l-155.288-11.523 43.366 43.816 28.05-18.599z"/><path fill="#99acc4" fill-opacity=".773" d="M365.508 766.636L527.404 798.3l21.877 59.491-55.06 22.178z"/><path fill="#7a9752" fill-opacity=".976" d="M591.757 903.375l-83.147 129.411 76.9-5.753 30.815-84.064z"/><path fill="#738c92" fill-opacity=".494" d="M464.33 753.363l80.562-187.536 20.706-5.642 122.417-37.445z"/><path fill="#5d3a01" fill-opacity=".267" d="M193.847 86.426L150.89 104.32l-40.026-54.195-39.337 13.23z"/><path fill="#573404" fill-opacity=".247" d="M403.234 60.814l1.052 31.352-124.762-66.027 16.844 29.938z"/><path fill="#88ae66" fill-opacity=".612" d="M677.185 909.332L898 940.039l-137.087-211.78-83.23 1.935z"/><path fill="#352500" fill-opacity=".247" d="M760.566 195.946l-52.689-1.354 42.421 72.634-44.689-16.147z"/><path fill="#a63927" fill-opacity=".322" d="M664.802 1086l13.582-330.306-23.971-113.384 5.39 268.46z"/><path fill="#3d2500" fill-opacity=".247" d="M697.33 149.226l36.968 19.579 43.53-41.704L898 130.463z"/><path fill="#83909f" fill-opacity=".62" d="M224.852 443.975l51.127 179.484-99.613-71.849 147.258-157.657z"/><path fill="#f2d7ae" fill-opacity=".592" d="M415.1 48.976L720.204-62 433.505 20.596-50.696 171.879z"/><path fill="#1a072a" fill-opacity=".282" d="M148.034 811.62L113.2 743.64l118.21 223.073-16.081 4z"/><path fill="#516e90" fill-opacity=".243" d="M441.25 948.206l-40.821-29.012 118.96 18.375-19.66 13.99z"/><path fill="#0b0c06" fill-opacity=".549" d="M668.444 68.935L567.81 69.964l24.262-54.882 73.894 6.917z"/><path fill="#072272" fill-opacity=".757" d="M308.002 1086L114.016 906.031l52.677 6.19-35.497 61.447z"/><path fill="#4a3423" fill-opacity=".357" d="M343.31 21.38l26.416-11.561 237.99 138.495-121.308-94.777z"/><path fill="#ffd0a8" fill-opacity=".404" d="M772.486 139.998l-67.569-22.675-63.055 63.279-67.948-14.85z"/><path fill="#7a023b" fill-opacity=".208" d="M426.686 611.032l140.146-13.85-81.436 55.025-282.066-93.088z"/><path fill="#845821" fill-opacity=".361" d="M320.954 242.85l-36.566-56.353 43.184-12.75-34.85 75.39z"/><path fill="#1263e0" fill-opacity=".698" d="M409.869 1011.07l-66.443 26.338 140.918-28.813 90.28 73.297z"/><path fill="#feccc4" fill-opacity=".494" d="M248.065 965.228l-63.89-125.945-25.772-36.153 74.075 148.712z"/><path fill="#f4bba7" fill-opacity=".545" d="M574.262 241.408l-41.744-58.856 104.38 69.236-3.634-71.624z"/><path fill="#1c0900" fill-opacity=".282" d="M123.453 556.728L89.156 420.075l-9.04 53.51 133.586 130.618z"/></svg>