<svg xmlns="http://www.w3.org/2000/svg" width="228" height="278" viewBox="0 0 836 1024"><path fill="#764547" d="M0 0h836v1024H0z"/><path fill="#fdcae9" fill-opacity=".89" d="M608.949 812.09L898 922.421 864.184 1086l-255.374-42.561z"/><path fill="#9dbbbe" fill-opacity=".675" d="M139.582 1086l-22.67-472.23-150.18 25.148L61.346 1086z"/><path fill="#332c25" fill-opacity=".827" d="M898 9.425v292.672l-838.814 5.568L-9.562 1.134z"/><path fill="#bcbfc5" fill-opacity=".612" d="M43.433 579.756l152.338-166.17 258.848-102.94L-62 407.044z"/><path fill="#ff455b" fill-opacity=".882" d="M895.69 748.193l-270.954-.614-31.446 75.485L898 943.775z"/><path fill="#82000f" fill-opacity=".569" d="M586.357 716.438l-15.673 299.986-420.426-12.3-5.765-585.766z"/><path fill="#9f5b4d" fill-opacity=".745" d="M434.991 94.824l187.442 32.34-180.498 582.742-143.653-137.224z"/><path fill="#84c3a5" fill-opacity=".396" d="M598.717 697.453L898 727.489l-184.049-77.932 79.117-365.014z"/><path fill="#250a0b" fill-opacity=".651" d="M252.458 478.535l-141.654 280.2 61.225-331.285 175.293-64.642z"/><path fill="#fdecf1" fill-opacity=".51" d="M106.969 819.767L149.43 1086l234.63-79.68-322.406 16.02z"/><path fill="#080004" fill-opacity=".51" d="M66.92 557.707l-109.47 485.069 154.436-499.802L-62 692.914z"/><path fill="#c62236" fill-opacity=".369" d="M604.352 366.327L77.546 734.903l50.574 191.78 8.118 154.971z"/><path fill="#412c22" fill-opacity=".886" d="M445.358 291.296L898 155.537 510.68 353.351l-55.263 53.427z"/><path fill="#00111c" fill-opacity=".49" d="M-62 62.386L134.719-62l264.413 87.974-113.679 316.572z"/><path fill="#b4bcba" fill-opacity=".569" d="M325.913 620.092l227.099 42.983 16.098-26.336-265.26-51.309z"/><path fill="#798195" fill-opacity=".576" d="M225.832 130.526l20.194-63.706-102.097-7.874-.553 67.022z"/><path fill="#401815" fill-opacity=".918" d="M604.127 681.634l-39.8 259.713-12.378-255.099 164.17-323.023z"/><path fill="#ff455b" fill-opacity=".871" d="M767.2 777.128l119.283 43.266-167.028 161.678 3.566-1.134z"/><path fill="#e7f3ff" fill-opacity=".643" d="M600.362 933.757L673.832 1086l63.575-235.193-74.154-10.601z"/><path fill="#c32238" fill-opacity=".463" d="M571.2 493.35L285.641 389.246 225.924 508.58l283.813 103.034z"/><path fill="#d3e7f3" fill-opacity=".557" d="M92.662 1086L42.741 800.689l-30.249 108.96 58.484 118.202z"/><path fill="#a68263" fill-opacity=".498" d="M394.443 46.79l186.376-.118L420.44-62l-36.289 589.417z"/><path fill="#80877a" fill-opacity=".663" d="M898 497.49l-247.536 60.785L867.306 308.35l-240.366 3.162z"/><path fill="#fcfff9" fill-opacity=".145" d="M691.906 465.818l14.603 87.226-419.042-269.865 268.809 300.778z"/><path fill="#806046" fill-opacity=".996" d="M61.504 147.577L37.552 452.79l39.78 18.968-139.201-355.104z"/><path fill="#380109" fill-opacity=".333" d="M665.794 720.272L347.275 923.273 213.357 873l262.766-236.565z"/><path fill="#ff5b60" fill-opacity=".714" d="M169.56 762.862l-44.073 241.314 5.627-141.116L106.1 735.158z"/><path fill="#400d00" fill-opacity=".345" d="M756.232 370.855l-198.85-14.797L898 623.27l-194.114 60.568z"/><path fill="#87fff2" fill-opacity=".239" d="M437.28 308.994L38.258 373.708 166.75 600.614 54.697 306.428z"/><path fill="#9d9390" fill-opacity=".831" d="M553.184 397.819l-43.849-30.987 84.33 16.285 66.533 77.926z"/><path fill="#002022" fill-opacity=".38" d="M51.113 937.288l45.585-284.214-16.025 225.597 21.47 90.024z"/><path fill="#daeffd" fill-opacity=".69" d="M-17.907 399.242l56.094 22.846 4.065 65.117-31.317 6.05z"/><path fill="#000e17" fill-opacity=".522" d="M388.468 180.265l-18.105 117.051-302.118 18.53L66.701 169.3z"/><path fill="#f6ecfa" fill-opacity=".506" d="M544.948 1086l-278.774-85.708-13.117-5.07L47.672 1086z"/><path fill="#fb2435" fill-opacity=".522" d="M898 740.677l-299.308-.033 12.53 118.653 86.575-67.381z"/><path fill="#180109" fill-opacity=".408" d="M784.692 133.929L484.215 94.892 888.99 5.02l-34.1 391.561z"/><path fill="#cdcfd7" fill-opacity=".533" d="M324.718 508.18l22.771 14.58 37.306 2.071-20.644-45.467z"/><path fill="#aaa2a8" fill-opacity=".875" d="M364.635 354.57l-2.056-19.232 23.848-49.8-191.643 121.598z"/><path fill="#5d131c" fill-opacity=".827" d="M104.231 515.304l-47.6-84.024 89.955 136.887-120.476 29.89z"/><path fill="#941a24" fill-opacity=".682" d="M329.614 996.621l22.23 89.379h217.854l-36.972-349.276z"/><path fill="#ccf5ff" fill-opacity=".349" d="M103.914 595.52L89.37 690.256-62 691.496l43.165 117.878z"/><path fill="#9cf09e" fill-opacity=".161" d="M729.732 345.279l-204.943 31.863-28.415-329.569-71.077 199.295z"/><path fill="#d4dde9" fill-opacity=".51" d="M163.349 542.45l-39.52-9.685L38.595 368.3l127.88 184.617z"/><path fill="#512522" fill-opacity=".953" d="M811.066 174.052l-6.089 133.514L589.333 205.52l-127.457-29.647z"/><path fill="#e7e9ff" fill-opacity=".541" d="M589.056 1086l292.679-227.528-75.944 204.551-175.058-217.365z"/><path fill="#000b03" fill-opacity=".176" d="M199.513 718.29l-249.514 84.926 346.487-242.06-199.487-170.53z"/><path fill="#748372" fill-opacity=".639" d="M109.769 886.081l31.183-315.167L117 564.522 87.993 650.06z"/><path fill="#4a171a" fill-opacity=".702" d="M659.3 424.104l-7.071 91.145-155.31-151.172L666.633 472.57z"/><path fill="#c5c6c7" fill-opacity=".49" d="M620.033 521.952l-62.763 17.193-6.74-47.074 45.795-5.998z"/><path fill="#eeffa6" fill-opacity=".216" d="M591.923 229.974L606.36 68.46l-78.976 160.797 44.461 16.393z"/><path fill="#afbac3" fill-opacity=".596" d="M110.581 490.27l73.683-65.734-59.585 9.135 57.112-44.58z"/><path fill="#8a1220" fill-opacity=".816" d="M204.5 716.65l-66.503 220.644 3.874 113.168 90.52-54.144z"/><path fill="#b6a288" fill-opacity=".631" d="M433.275 18.144l-48.792 29.982 20.627 16.613 2.43 17.462z"/><path fill="#39121b" fill-opacity=".859" d="M360.689 360.095l-149.281 43.488-69.703 73.133L366.584 382.2z"/><path fill="#ae1125" fill-opacity=".463" d="M365.102 381.33l-112.164 76.595 29.79 10.403 239.232 43.71z"/><path fill="#e8fdfa" fill-opacity=".408" d="M80.889 1086l210.541-85.206-159.097 31.509-38.566-258.945z"/><path fill="#6e0312" fill-opacity=".337" d="M545.063 526.105l-64.223 35.653-327.505-16.004 476.48 90.09z"/><path fill="#d4d7ec" fill-opacity=".4" d="M448.093 461.26l79.547-51.566-52.364 64.547L325.5 308.451z"/><path fill="#393e37" fill-opacity=".643" d="M-47.843 125.005l299.714 52.006 238.76-34-308.91-25.154z"/><path fill="#cceefc" fill-opacity=".251" d="M69.505 611.384L30.282 900.886l12.49 75.418 49.262-365.749z"/><path fill="#480812" fill-opacity=".349" d="M378.506 630.721L549.278 1086 289.994 738.266l195.786-80.212z"/><path fill="#aa7c53" fill-opacity=".698" d="M473.92 149.14l60.692 86.389-145.984-39.184 9.533 141.425z"/><path fill="#050003" fill-opacity=".565" d="M378.813 98.735l-107.905 24.71L224.69-62 385.182 63.188z"/><path fill="#001310" fill-opacity=".306" d="M71.756 618.238L13.271 901.242l34.936-328.62-108.443 39.64z"/><path fill="#f4f1f8" fill-opacity=".49" d="M80.918 392.445l-8.17-34.071-26.677 22.778 49.938 77.971z"/><path fill="#a51a25" fill-opacity=".439" d="M559.065 423.983l100.75 87.222-65.228-19.509-152.955-24.499z"/><path fill="#909f8f" fill-opacity=".341" d="M846.139 566.498L898 359.13 590.036 719.845l131.2-290.44z"/><path fill="#121e00" fill-opacity=".239" d="M435.81 212.202l-4.668 146.028 56.277-32.18 154.953 96.258z"/><path fill="#00131c" fill-opacity=".314" d="M73.68 763.474l6.122 210.736-25.277-89.232 54.758-225.2z"/><path fill="#4e5b54" fill-opacity=".463" d="M148.174 378.601l226.037-79.935-295.743-1.937-20.228 12.818z"/><path fill="#69514b" fill-opacity=".992" d="M848.534 112.909l-478.28 227.315-178.103 24.578 138.238-8.33z"/><path fill="#abc8dc" fill-opacity=".427" d="M45.701 604.081l-6.373 126.055L-62 799.5v-90.842z"/><path fill="#d6fcfe" fill-opacity=".184" d="M420.502 641.513l-105.044-19.25 156.225-26.045 72 30.993z"/><path fill="#3c3c45" fill-opacity=".714" d="M61.198 354.572l36.636 2.213 15.602 77.09-35.631-64.609z"/><path fill="#020708" fill-opacity=".643" d="M56.664 117.984l55.587 4.206L140.076 6.535 11.6 23.81z"/><path fill="#ffffd0" fill-opacity=".118" d="M516.196 816.158l26.955 207.06 20.302 42.813-8.591-250.5z"/><path fill="#58442c" fill-opacity=".565" d="M70.523 445.422l-21.162 52.69L45.96 290.37l-98.504 42.916z"/><path fill="#5f0900" fill-opacity=".365" d="M-56.77 472.574L.947 684.256l35.89-114.016L-62 346.816z"/><path fill="#dcecfa" fill-opacity=".353" d="M366.402 333.075l-72.486 11.312-78.733.533 91.208 13.28z"/><path fill="#200411" fill-opacity=".412" d="M157.388 414.3l-52.005 66.857 12.605-9.525 84.496-84.255z"/><path fill="#e5e6ff" fill-opacity=".416" d="M409.457 422.43l-7.021-5.172 52.187 28.927-94.44-88.551z"/><path fill="#808e81" fill-opacity=".631" d="M612.854 610.623L734.2 726.918 673.335 492.84l-31.906 104.77z"/><path fill="#624f3c" fill-opacity=".675" d="M415.867 54.08l-47.764 78.852 24.256 100.004L500.577 78.59z"/><path fill="#8f6e6e" fill-opacity=".208" d="M731.184 328.133l-38.507-176.918L898 116.542l-114.066 58.74z"/><path fill="#db341c" fill-opacity=".494" d="M74.735 542.93L43.19 511.16l31.66-10.151 14.757 3.88z"/><path fill="#100000" fill-opacity=".62" d="M170.766 606.906l73.981-71.891L89.069 554.2l55.683 3.938z"/><path fill="#100005" fill-opacity=".278" d="M595.312 179.585l-154.749 7.764 265.885 27.87-63.205 111.974z"/><path fill="#432121" fill-opacity=".659" d="M770.297 62.002l-.93-33.26L545.447-35.4l68.33 211.29z"/><path fill="#4f0f16" fill-opacity=".965" d="M254.636 511.015l-76.876.966L61.483 630.69 22.047 581.6z"/><path fill="#4d0000" fill-opacity=".306" d="M667.7 676.594l-68.957 31.227L898 746.378l-286.736 3.446z"/><path fill="#b1afb0" fill-opacity=".439" d="M505.82 453.538l29.384-75.259 167.972 116.28-170.49-142.775z"/><path fill="#931423" fill-opacity=".533" d="M173.744 786.377l-15.61-154.048 42.226-54.74 177.649-60.18z"/><path fill="#b2a6ae" fill-opacity=".992" d="M147.649 428.039l-41.07 35.515 33.548-55.67-54.99 36.39z"/><path fill="#283715" fill-opacity=".31" d="M586.387 1045.275l3.936-399.061 48.115-25.864-108.886 207.24z"/><path fill="#2d0004" fill-opacity=".486" d="M293.863 966.8l-130.42-2.912-36.4 69.72 84.895-96.162z"/><path fill="#360710" fill-opacity=".51" d="M221.506 461.466l165.493-7.748-204.637-23.399-63.67 57z"/><path fill="#9e6d4f" fill-opacity=".706" d="M593.844 784.1l9.027-53.849 9.658 153.936L591.592 1086z"/><path fill="#eea162" fill-opacity=".322" d="M78.273 247.126L-50.59 260.95 53.383 154.348-62 146.666z"/><path fill="#e2f5ff" fill-opacity=".369" d="M252.15 380.602l-60.497 36.764-98.904 82.905 104.403-100.69z"/><path fill="#e5f5fe" fill-opacity=".431" d="M282.104 370.27l-100.722 36.154 168.399-47.04 13.205-11.574z"/><path fill="#ff81c0" fill-opacity=".518" d="M739.005 944.799l68.652-46.579-91.387 148.997 17.85-232.302z"/><path fill="#ecf5fe" fill-opacity=".384" d="M233.162 374.4l-68.634 21.72 90.329-47.675-19.057-9.314z"/><path fill="#352c2f" fill-opacity=".522" d="M400.055 393.91L256.18 17.416l117.58 342.65L506.21 481.17z"/><path fill="#964350" fill-opacity=".486" d="M81.143 460.195l15.9-40.411L221.34 315.167 96.892 441.597z"/><path fill="#b13846" fill-opacity=".941" d="M546.441 1046.37l-308.603-27.284 193.372 43.748-161.912-73.28z"/><path fill="#070c12" fill-opacity=".698" d="M898 43.168l-116.782-4.513-37.834 79.265 107.342 2.274z"/><path fill="#0e0000" fill-opacity=".337" d="M563.88 770.833l84.848-182.962 11.967-65.66-100.31 143.214z"/><path fill="#be9061" fill-opacity=".447" d="M467.402 156.241l3.204-56.935 63.313 60.256-79.174 53.784z"/><path fill="#cae4e2" fill-opacity=".275" d="M416.297 605.151l-129.667 8.565 73.921-36.282-4.172 62.104z"/><path fill="#796049" fill-opacity=".663" d="M334.034-62l281.44 158.977L485.919-51.68 456.192-62z"/><path fill="#e0e7eb" fill-opacity=".494" d="M203.398 1086l-141.635-77.24 3.818-97.932-28.98 13.997z"/><path fill="#f7d5a3" fill-opacity=".306" d="M578.522 247.325l-34.904-35.929 35.862-23.37-8.703 102.922z"/><path fill="#481300" fill-opacity=".2" d="M832.17 605.742l-41.1 104.464-109.953-119.351 111.43-95.708z"/><path fill="#af2235" fill-opacity=".565" d="M268.538 614.037l29.074 255.529-99.95-82.839 65.714-189.347z"/><path fill="#473224" fill-opacity=".882" d="M121.61 736.433l19.026-173.776 16.114 24.427 9.672 150.523z"/><path fill="#766961" fill-opacity=".647" d="M718.777 368.99L839.74 488.27l-27.08-123.53-356.134-97.09z"/><path fill="#1d150e" fill-opacity=".631" d="M468.782 317.522l80.55-17.848-10.883 42.804-71.634 8.447z"/><path fill="#84877c" fill-opacity=".541" d="M604.292 611.546l47.777-12.824 9.656-113.79 89.426 224.87z"/><path fill="#eedf6a" fill-opacity=".204" d="M381.723 281.899l-16.084 36.218 41.026 70.093 61.798 53.123z"/><path fill="#cf3343" fill-opacity=".592" d="M253.812 457.969l-9.734 24.83 55.38 37.158 69.025-54.31z"/></svg>