<svg xmlns="http://www.w3.org/2000/svg" width="228" height="278" viewBox="0 0 836 1024"><path fill="#8b3a38" d="M0 0h836v1024H0z"/><g fill-opacity=".502"><path fill="#ff5056" d="M786 982L454 30-14 1086z"/><path fill="#0d2f1c" d="M898 82L-42 638 18-62z"/><path fill="#00190a" d="M882-14l-36 888L558-62z"/><path fill="#ff3e49" d="M826 450l-564 636-84-772z"/><path fill="#ffd0a3" d="M350 50l240 148-248 64z"/><path fill="#0096ae" d="M870 706l-8 312-292 40z"/><path fill="#000c12" d="M22 710l-84-536L394 62z"/><path fill="#e9fcf6" d="M578 694l-360-24 184-60z"/><path fill="#df131e" d="M146 382l224-68-288 772z"/><path fill="#ffa2aa" d="M766 698l-16-196-120 236z"/><path fill="#00212a" d="M718 90l84 956 96-540z"/><path fill="#002c31" d="M82 882L-18 538h144z"/><path fill="#e2ffff" d="M494 406l-116 8 192-68z"/><path fill="#da1c24" d="M662 350L410 994l332-128z"/><path fill="#9a0006" d="M250 642l-312 372 196 24z"/><path fill="#2e2e0b" d="M826-62l72 572-404-244z"/><path fill="#fff7b4" d="M618 1086l-60-140-180 140z"/><path fill="#e3aa83" d="M534 290L502 90l-164 20z"/><path fill="#480f16" d="M658 842l-32-208-52 252z"/><path fill="#ff2f3a" d="M534 322l180 76 56 208z"/><path fill="#0e0700" d="M406 390l116-160-28 144z"/><path fill="#58c8c9" d="M106 1086l72-52 24-176z"/><path fill="#f7ffff" d="M426 418l-72-96 8 52z"/><path fill="#bbc6bc" d="M794 1086L666 966l64-96z"/><path fill="#102022" d="M646-62L326 94h388z"/><path fill="#00101c" d="M374 314l-40-132-220 176z"/><path fill="#edf8fd" d="M466 542l80 16-20-56z"/><path fill="#feffff" d="M766 606l-56 28-8-64z"/><path fill="#eab6b5" d="M534 646l-300-32 60 84z"/><path fill="#e3ffff" d="M634 726l36-32 60 4z"/><path fill="#e1f2ff" d="M126 638l-28 24 92 20z"/><path fill="#fff" d="M58 770l-88 52 64-16z"/><path fill="#f23036" d="M726 882l-560 204 72-424z"/><path fill="#eeb688" d="M406 322l-40-52 104 12z"/><path fill="#c6ffff" d="M566 910h36l36 56z"/><path fill="#080f0e" d="M174 358L86 690l-140-64z"/><path fill="#5c3b21" d="M622 138l-124 52-128-20z"/><path fill="#f4ffff" d="M510 390l60-52-16-24z"/><path fill="#949e9b" d="M-18 662l96 28-16 76z"/><path fill="#10516a" d="M898 834L758 710l16 316z"/></g></svg>