<svg xmlns="http://www.w3.org/2000/svg" width="228" height="278" viewBox="0 0 836 1024"><path fill="#636480" d="M0 0h836v1024H0z"/><g fill-opacity=".502"><path fill="#fff" d="M330 1086L98 622-62 950z"/><path fill="#411a01" d="M-62 474V114l960 40z"/><path fill="#70a1ff" d="M666 366L226 934l-72-556z"/><path fill="#000b96" d="M242 1022l316-584 80 596z"/><path fill="#d2e1f9" d="M494 294l304 220-204 72z"/><path fill="#2e170a" d="M898 382l-460-60L830 82z"/><path fill="#fff" d="M94 1070l140-380 28 304zm500-92l100-92 44 200z"/><path fill="#dbf2ff" d="M358 326l-152 76-84 324z"/><path fill="#f7ffef" d="M222 734l216-124 48 132z"/><path fill="#000277" d="M542 574L178 694l72-136z"/><path fill="#00238f" d="M258 1086l444-392-448 72z"/><path fill="#542616" d="M86 690L-54 510l280-168z"/><path fill="#aa4502" d="M790 1086l-48-452-112 52z"/><path fill="#58311d" d="M138 926l-4-236 140-112z"/><path fill="#00174c" d="M446 534l216 56-104 344z"/><path fill="#a0816b" d="M506 242L-62 58 626 2z"/><path fill="#fff" d="M898 978l-112-92v200z"/><path fill="#2a67f9" d="M206 430l16 208 352-228z"/><path fill="#c5d0e7" d="M42 1030L-62 674l212-12z"/><path fill="#6b4232" d="M454 14l-96 420 296-192z"/><path fill="#181014" d="M734 626l80-128 84 184z"/><path fill="#43383b" d="M742-50L498 262l200 180z"/><path fill="#192816" d="M402 22L242-62-62 18z"/><path fill="#ffcfb3" d="M794 854l-56-104 12-104z"/><path fill="#fff" d="M234 630l-68-24 12-156z"/><path fill="#023494" d="M654 1086l-396-84 296-396z"/><path fill="#9ca094" d="M814 338l84 140-300 116z"/><path fill="#7ab2ff" d="M358 582l208-68-408-44z"/><path fill="#2a242b" d="M322 70L-62 402l376-124z"/><path fill="#dee4ed" d="M454 670l-208-16 36 84z"/><path fill="#e1b5ad" d="M326 278l64-216-60 4z"/><path fill="#eaf7ff" d="M618 906l92 20-52 160z"/><path fill="#eff4ff" d="M258 1038L50 878l204 12z"/><path fill="#001a91" d="M210 522l44 124 132 12z"/><path fill="#fff" d="M490 362l124 128-20-76z"/><path fill="#bc5442" d="M-34 1086l104-16 36-168z"/><path fill="#0d39bb" d="M242 734l188 44-148 288z"/><path fill="#00122e" d="M430 654l136-112 76 152z"/><path fill="#fff" d="M182 446l-12 92 76-148z"/></g></svg>