<svg xmlns="http://www.w3.org/2000/svg" width="228" height="278" viewBox="0 0 836 1024"><path fill="#323355" d="M0 0h836v1024H0z"/><g fill-opacity=".502"><path fill="#fff" d="M786 958L138 702 62 926z"/><path fill="#ffeada" d="M562 746l164-260 52 200z"/><path fill="#d7dde8" d="M574 818l104 268-532-264z"/><path fill="#00f" d="M578 846l320 44-196 196z"/><path fill="#060200" d="M486-26l-532 4 20 1012z"/><path d="M642 118l220 832L874-62z"/><path fill="#e69c61" d="M630 82l-60 236L450 90z"/><path fill="#003" d="M294 786L146 462l704 400z"/><path d="M426 1034l-320 12 208-164z"/><path fill="#00006d" d="M710 294L254 446l420 212z"/><path fill="#cbbac4" d="M26 370l144-28 124-132z"/><path fill="#144bff" d="M726 582l-12-228-136-96z"/><path fill="#0010c9" d="M446 218l-80 240-124-256z"/><path fill="#bcbcd5" d="M178 986L30 722l224 24z"/><path fill="#abb2c5" d="M546 798l152 288-324-108z"/><path fill="#abae95" d="M402 614l108-56-264-56z"/><path d="M618 426l40 196-288 84z"/><path fill="#ffc6b0" d="M570 722l204-80-248 12z"/><path fill="#000deb" d="M898 806L614 934l188 152z"/><path fill="#ffefec" d="M422 350l40 28-36-136z"/><path fill="#fff" d="M742 546l-84 4v40z"/><path fill="#75737a" d="M318 914l264-32v204z"/><path fill="#525f96" d="M90 822l-76-60 232-216z"/><path fill="#f3f9ff" d="M314 806l12 112-180-204z"/><path fill="#000075" d="M614 826L166 618l88 152z"/><path fill="#fff" d="M442 822h108l72 92z"/><path fill="#000111" d="M550 822l152-144 48 232z"/><path fill="#00000b" d="M-62 754L54 390l328 36z"/><path fill="#0f0d04" d="M550 230L890 42 754 370z"/><path fill="#000aff" d="M-2 1086l68-152-124-52z"/><path fill="#cce6ff" d="M586 262l-84 100 104-72z"/><path fill="#603106" d="M558 302L430 22l12 324z"/><path fill="#b07757" d="M98 314L-62 474l88 16z"/><path fill="#000097" d="M602 282l132 232-240-100z"/><path fill="#72767b" d="M190 974l112-72-96-112z"/><path fill="#171002" d="M626 50L-38-14 62 246z"/><path fill="#ebffff" d="M558 1006l52-84 40 76z"/><path fill="#000038" d="M410 834l120-200-284-80z"/><path d="M58 970L2 1086l408-100z"/><path fill="#000060" d="M198 282l288 224-96-256z"/></g></svg>