<svg xmlns="http://www.w3.org/2000/svg" width="228" height="278" viewBox="0 0 836 1024"><path fill="#818886" d="M0 0h836v1024H0z"/><path fill="#2c2f2b" fill-opacity=".863" d="M-24.26-1.276l20.675 291.16L898 143.79 834.664-52.43z"/><path fill="#b9c5ce" fill-opacity=".678" d="M829.982 979.015L-62 831.934 439.353 274.09 898 516.511z"/><path fill="#625c45" fill-opacity=".698" d="M424.238 590.534l85.739 276.522L483.673 1086 284.088 508.398z"/><path fill="#353333" fill-opacity=".757" d="M337.257 409.576L14.423 17.773 550.293 400.3 740.734-62z"/><path fill="#cdd9df" fill-opacity=".733" d="M397.441 864.877l54.36 194.548L143.4 1086l77.815-298.48z"/><path fill="#eff7f8" fill-opacity=".831" d="M72.714 317.075L230.7 229.24l-35.654 105.33-128.403 49.815z"/><path fill="#d3e2eb" fill-opacity=".518" d="M317.585 593.951l403.98-262.024-503.245 84.447L24.745 908.562z"/><path fill="#3d403a" fill-opacity=".741" d="M724.619 481.022l-44.592-90.362L898 511.963 810.95-62z"/><path fill="#2f342e" fill-opacity=".894" d="M52.393 349.347L336.343 45.06-62 338.122 45.268 476.57z"/><path fill="#c8d7e2" fill-opacity=".682" d="M512.541 1026.923l3.807-24.077 15.35-439.044L712.859 1086z"/><path fill="#d3e1f3" fill-opacity=".69" d="M443.638 235.166l71.636 99.213-151.945-60.7 81.634 147.168z"/><path fill="#322704" fill-opacity=".71" d="M699.604 880.601L680.587 1086 898 993.352l-170.72-1.513z"/><path fill="#8091b1" fill-opacity=".992" d="M522.772 728.52L317.56 853.85l-127.98-96.511-11.145-50.64z"/><path fill="#412702" fill-opacity=".463" d="M320.791 583.993l196.473 36.15-126.526 106.822-108.58-68.592z"/><path fill="#2d280e" fill-opacity=".639" d="M6.36 628.03L-62 987.5l94.664-295.196 123.49-113.654z"/><path fill="#05309b" fill-opacity=".675" d="M801.767 638.998l-8.244 49.9-84.5 14.937-14.373-56.334z"/><path fill="#8e6535" fill-opacity=".518" d="M437.667 169.209l312.817 282.115 9.252-67.568-15.078-314.273z"/><path fill="#000002" fill-opacity=".596" d="M375.056 261.579L223.35 312.946l142.567 94.61 17.667-47.838z"/><path fill="#eff6f6" fill-opacity=".533" d="M39.584 680.358l153.569-21.25-108.59 267-64.785-93.777z"/><path fill="#d6d7d1" fill-opacity=".671" d="M464.114 804.597l-48.886-124.968 421.179 256.689-24.973-240.843z"/><path fill="#e3edff" fill-opacity=".604" d="M544.621 313.633l187.071 156.81L898 474.19l-113.276 98.153z"/><path fill="#190700" fill-opacity=".443" d="M442.634 221.29L527.6 340.987l120.326-33.091-67.014-107.702z"/><path fill="#9d522d" fill-opacity=".549" d="M688.082 809.113l-57.821 38.393 57.399 63.016L735.86 871z"/><path fill="#5e756c" fill-opacity=".545" d="M650.46 454.818L501.811 623.694l47.34-135.761L738.64 641.93z"/><path fill="#5e6c68" fill-opacity=".463" d="M284.04 879.455l-63.546 200.26 91.487-4.035 34.594-113.245z"/><path fill="#e4ecf3" fill-opacity=".588" d="M338.286 907.06l62.827 145.724 10.691-258.99-32.828-60.16z"/><path fill="#1c1809" fill-opacity=".314" d="M406.913 821.442l120.78-13.324-19.251 120.421-80.408 73.996z"/><path fill="#93b8e2" fill-opacity=".302" d="M265.44-62L175.228 41.415l56.476 69.428 78.182-26.41z"/><path fill="#2c4377" fill-opacity=".424" d="M197.528 788.362l19.501-180.33L70.26 646.71l109.958 12.478z"/><path fill="#4568b1" d="M230.821 227.553l43.496 8.287-58.073 90.25-1.92-63.623z"/><path fill="#212623" fill-opacity=".961" d="M650.34 79.84L40.584 292.44l384.02-263.622 168.64-2.185z"/><path fill="#4f5f1a" fill-opacity=".478" d="M7.384 962.795l166.098-104.352 45.632-29.446L166.84 951.1z"/><path fill="#6e83b7" fill-opacity=".996" d="M335.238 218.186L515.075 369.36 412.089 215.633l-72.096 6.83z"/><path fill="#7f9386" fill-opacity=".475" d="M673.376 120.73l96.237 16.627L898 356.079 548.677 109.244z"/><path fill="#4461af" fill-opacity=".706" d="M341.969 850.114l39.883-89.925-69.812-55.67-87.995 83.847z"/><path fill="#247c2b" fill-opacity=".553" d="M428.906 541.217l29.895 31.232 30.562-62.616-45.39-24.7z"/><path fill="#d2e1ea" fill-opacity=".494" d="M319.962 400.199l-55.456-83.09-140.949 578.469 91.552-480.96z"/><path fill="#5a5b47" fill-opacity=".675" d="M228.494 388.337l-272.9 96.157L49.62 361.972l136.84 144.327z"/><path fill="#faffff" fill-opacity=".514" d="M238.6 790.7l16.425 189.887-139.388 31.89 65.326-71.83z"/><path fill="#dbe5f2" fill-opacity=".573" d="M544.283 335.736l42.346 120.011 109.304-.507-39.396-97.18z"/><path fill="#ffe585" fill-opacity=".345" d="M847.243 963.825l-68.78 51.25-86.227-110.85L898 769.688z"/><path fill="#a09356" fill-opacity=".659" d="M126.766 948.531l-80.82-67.753-67.724-234.572L-62 1039.432z"/><path fill="#c2d0d9" fill-opacity=".659" d="M478.105 712.112L595.502 515.69l123.68 134.047-270.34 140.925z"/><path fill="#5d8965" fill-opacity=".427" d="M514.98 613.458l-239.325-69.324 73.593-51.663L459.852 738.85z"/><path fill="#1e2422" fill-opacity=".698" d="M394.783 255.903L-62 151.553 149.768 3.967l196.458 329.517z"/><path fill="#180e02" fill-opacity=".345" d="M898 472.96L732.978 234.856l33.97 198.414-75.783 11.927z"/><path fill="#d5e1f2" fill-opacity=".765" d="M537.946 477.072L404.492 262.96l-32.459 26.981 168.61 189.434z"/><path fill="#012a99" fill-opacity=".549" d="M437.075 331.24l-32.976-184.37 41.958 151.45 60.285 76.162z"/><path fill="#00070b" fill-opacity=".741" d="M676.8 988.378L752.065 1086l5.44-7.377-50.57-132.402z"/><path fill="#d1d8da" fill-opacity=".561" d="M272.05 699.5l-47.444 98.867-19.287-151.705L463.905 755.22z"/><path fill="#ab9d5a" fill-opacity=".416" d="M-62 452.272l267.089 11.192-47.724 113.644-128.362 60.88z"/><path fill="#9dabaa" fill-opacity=".631" d="M173.531 400.673l131.215-118.007-32.523-28.404-1.304 156.42z"/><path fill="#f6faec" fill-opacity=".365" d="M201.25 813.212l-15.118-131.906L14.51 720.951l7.357 99.313z"/><path fill="#4a87c6" fill-opacity=".729" d="M544.6 539.933l-14.937-78.89 46.177-41.516 7.503 64.033z"/><path fill="#c68d66" fill-opacity=".651" d="M639.49 287.434l84.513-.026 33.889 102.114-123.444-20.052z"/><path fill="#848fa6" fill-opacity=".788" d="M228.24 584.191l64.493 2.1-179.637 84.615 14.25 20.225z"/><path fill="#141d01" fill-opacity=".267" d="M228.368 778.252l-36.48-153.349-9.779 76.658 17.172 80.555z"/><path fill="#007140" fill-opacity=".4" d="M-62 1038.09l371.713 39.77-130.997-84.967L24.676 1086z"/><path fill="#e7eff8" fill-opacity=".62" d="M291.39 468.37L130.145 602.968l46.65 18.15 113.71-73.842z"/><path fill="#8f7b49" fill-opacity=".584" d="M409.397 799.14l-.114 135.06 42.823-93.961-1.258-127.204z"/><path fill="#f2f9f3" fill-opacity=".424" d="M724.961 928.824l79.095 6.335 6.642-155.056-16.726-90.062z"/><path fill="#946a2d" fill-opacity=".522" d="M821.018 758.272L898 914.576l-178.255 93.502L898 1024.108z"/><path fill="#00040c" fill-opacity=".51" d="M402.371 318.66l-64.997 87.988-64.142-78.815-64.903-31.868z"/><path fill="#321506" fill-opacity=".373" d="M359.039 688.168l94.666-70.738 2.511 61.275-78.662 50.542z"/><path fill="#070706" fill-opacity=".188" d="M122.195 609.776l59.576-85.25L-62 647.95l35.693 102.825z"/><path fill="#f2fafc" fill-opacity=".302" d="M166.112 362.509l-109.82 14.637 17.52-65.697 163.363-91.686z"/><path fill="#acc3d3" fill-opacity=".333" d="M439.17 286.194l134.202 62.283 32.116-51.084 7.629 151.55z"/><path fill-opacity=".267" d="M536.643 236.43l-66.26-54.058 41.158 198.36 74.24-55.15z"/><path fill="#d4dcfe" fill-opacity=".525" d="M411.06 247.341l-29.803-30.277-36.78 11.158-4.598 20.41z"/><path fill="#a5b3b7" d="M715.014 895.575L616.327 1086l-22.284-35.65 20.479-124.013z"/><path fill="#1667ff" fill-opacity=".239" d="M726.335 534.093L898 606.356l-89.122 32.477-25.473-10.068z"/><path fill="#a4b59f" fill-opacity=".6" d="M179.61 952.386l-23.986 59.845-166.857 48.477L-62 995.74z"/><path fill="#060706" fill-opacity=".6" d="M486.252 97.374L468.17 46.061l163.14 5.535 10.31 64.726z"/><path fill="#e1e9ef" fill-opacity=".98" d="M426.84 1039.093l-3.935-77.426-27.693-85.112-17.96 190.986z"/><path fill="#483218" fill-opacity=".996" d="M519.574 252.267l60.965-109.132 43.024 78.26 17.52-66.787z"/><path fill="#465447" fill-opacity=".31" d="M304.384 894.07l-69.74 115.384 92.85-81.624-132.434-95.463z"/><path fill="#829291" fill-opacity=".812" d="M429.9 984.369l1.749 50.588L471 1086l72.201-118.839z"/><path fill="#47514d" fill-opacity=".655" d="M751.316 138.652l-103.785 17.8 6.777-105.136 233.51-72.47z"/><path fill="#fbfec2" fill-opacity=".161" d="M72.523 643.443l37.078-185.224L-7.483 526.85 47.25 631.098z"/><path fill="#fffbff" fill-opacity=".298" d="M474.877 185.78l-43.317 67.263 56.237 97.867-46.914-137.856z"/><path fill="#111515" fill-opacity=".851" d="M386.579 375.828l-170.153-71.036 16.559 31.023 126.76-82.695z"/><path fill="#d4dade" fill-opacity=".8" d="M288.871 699.078l-60.577-85.814 163.382 154.282-25.293-58.365z"/><path fill="#b09c64" fill-opacity=".361" d="M746.128 255.646l-142.745-24.768-102.473-22.471 299.788-12.533z"/><path fill="#b0bfc9" fill-opacity=".918" d="M286.01 483.107l108.838 82.254 27.89-179.132-20.714-36.554z"/><path fill="#77624e" fill-opacity=".788" d="M286.467 694.134L396.75 579.83l-8.43-5.313-89.204 24.631z"/><path fill="#4e4c41" fill-opacity=".584" d="M431.77 976.428l88.647-141.016-28.442-17.485-92.512 54.408z"/><path fill="#cfdae2" fill-opacity=".557" d="M372.053 473.076L601.27 323.835 481.15 555.467l1.763-60.232z"/><path fill="#cad8e9" fill-opacity=".255" d="M372.733 821.215l64.335 21.764-93.624-90.937-171.706-84.558z"/><path fill="#e9f1f9" fill-opacity=".565" d="M686.313 547.158l50.161-37.825L887.021 613.48 898 450.62z"/><path fill="#262d2b" fill-opacity=".592" d="M59.42 333.814L474.75-17.595-37.313 348.581l98.46 64.542z"/><path fill="#5b6750" fill-opacity=".459" d="M684.235 571.095l-58.628-78.761-26.578.216-8.625 33.499z"/><path fill="#bdcee3" fill-opacity=".482" d="M691.247 735.632l-233.874-9.591 2.565 68.377L618.121 885.9z"/><path fill="#f1f6f6" fill-opacity=".627" d="M120.859 282.139l-67.099 83.68 161.94-44.372-6.463-57.127z"/><path fill="#b8c3cd" fill-opacity=".843" d="M376.18 869.194l-161.632-87.168 178.96 144.587-155.157-25.974z"/><path fill="#6f5d40" fill-opacity=".973" d="M631.329 317.544l-18.975-76.638 172.133 29.909L544.79 294.79z"/><path fill="#2e3431" fill-opacity=".612" d="M506.996 170.166L443.4-62 206.093 348.387l100.066-108.789z"/><path fill="#815731" fill-opacity=".2" d="M727.859 920.663L808.684 1086 635.375 823.776l96.651-25.014z"/><path fill="#274b20" fill-opacity=".306" d="M94.87 920.615l78.876 32.623 44.476-140.042-44.113 59.867z"/><path fill="#18348d" fill-opacity=".431" d="M223.626 794.534l131.172 9.978-15.233 58.401-15.5-34.522z"/><path fill="#ffa624" fill-opacity=".612" d="M814.92 853.957L898 959.973l-77.05-117.659-36.937-.431z"/><path fill="#8ea094" fill-opacity=".592" d="M417.673 782.895L646.63 436.439 459.406 655.502l-65.75 74.936z"/><path fill="#7088bd" d="M48.575 670.677l115.418-.184-86.249-22.648 84.793-22.867z"/><path fill="#032a99" fill-opacity=".455" d="M731.472 682.353l77.25 15.016-41.366-69.632-38.216 42.554z"/><path fill="#ebf5ff" fill-opacity=".369" d="M721.651 638.63L603.698 531.645l-10.674-3.007-24.313 32.663z"/><path fill="#337396" fill-opacity=".447" d="M898 256.856l-68.168-47.683-52.021 78.59 111.74 118.206z"/><path fill="#768063" fill-opacity=".471" d="M128.998 467.313l36.454-137.55 82.348 5.279-309.8 156.4z"/><path fill="#cbd6d8" fill-opacity=".612" d="M506.44 957.71l28.989-137.277 116.819 64.022-61.425 106.865z"/><path fill="#ebfff1" fill-opacity=".243" d="M276.85 348.197l-5.933-27.848-122.705 66.588-18.836 2.978z"/><path fill="#00060f" fill-opacity=".502" d="M684.764 996.703l12.02-67.798 24.09-23.666-20.986 79.116z"/><path fill="#d6dfe7" fill-opacity=".569" d="M359.841 430.938l44.608-93.167-41.129-63.853 90.988 60.267z"/><path fill="#ebf1f3" fill-opacity=".659" d="M235.223 1042.008l-10.698-253.695-51.413 202.283 20.64-10.815z"/><path fill="#a1b7bd" fill-opacity=".663" d="M545.22 704.566l35.425-118.859 140.47 143.473-18.766 28.482z"/><path fill="#eaeffe" fill-opacity=".435" d="M659.453 371.521l-75.894-27.086 50.795 45.258 119.01 210.347z"/><path fill="#6072bd" fill-opacity=".294" d="M743.754 449.173l3.435 153.098 28.134-167.053-93.036 113.698z"/><path fill="#03290d" fill-opacity=".373" d="M433.768 528.085l17.052 1.415 9.828 31.988-42.474-11.618z"/><path fill="#e3e6e5" fill-opacity=".424" d="M354.072 559.089l-62.222 56.4-1.754 58.84-63.804-44.427z"/><path fill="#162125" fill-opacity=".525" d="M47.176 287.715l126.941-21.18 88.205-154.162 126.128 58.66z"/><path fill="#0d7c2d" fill-opacity=".38" d="M303.955 511.06l-7.152 44.108 38.045-21.934 10.545 50.242z"/><path fill="#93644a" fill-opacity=".569" d="M778.336 370.773l-51.162 102.373-72.599-112.799 10.092 22.61z"/><path fill="#032b98" fill-opacity=".49" d="M468.878 331.93l65.81 46.655-60.167-15.954-67.249-148.42z"/></svg>