<svg xmlns="http://www.w3.org/2000/svg" width="228" height="278" viewBox="0 0 836 1024"><path fill="#a88692" d="M0 0h836v1024H0z"/><g fill-opacity=".502"><path fill="#fff" d="M246 754L-62 22l524-84z"/><path fill="#6f042a" d="M514-62L94 1086l708-64z"/><path fill="#fff" d="M898 126L610-62l-8 668z"/><path fill="#003da2" d="M482 838l280 248 100-700z"/><path fill="#ff2426" d="M238 530l372-260-128 816z"/><path fill="#1d2700" d="M138 726l88-280-288-24z"/><path fill="#fff" d="M-62 458l544-152L38-62zm408 472L178 678l96-136z"/><path fill="#060800" d="M326 326L498-62l148 168z"/><path fill="#290000" d="M398 1074L90 934l104-232z"/><path fill="#ffffe8" d="M178 714l-240-12 100 320z"/><path fill="#f1ffff" d="M898 522L826-62 554 242z"/><path fill="#000012" d="M590 550l-72 216 380-96z"/><path fill="#0079f0" d="M898 942l-332 144-24-408z"/><path fill="#ff0217" d="M602 498L270 282l100-44z"/><path fill="#120d00" d="M898 606l-24-156-288-8z"/><path fill="#ebe4e2" d="M898 594L610 474l-236 72z"/><path fill="#fff" d="M118 2l280 32 16 264zm780 740l-96-12 4 356z"/><path fill="#f1ffff" d="M370 346l-60 188-372-260z"/><path fill="#17100b" d="M790 742l-140-44 248-284z"/><path fill="#f6ffff" d="M222 554l24 264 112 32z"/><path fill="#f7fffc" d="M898 26L558 306l72-296z"/><path fill="#dfffff" d="M610 418l260 28 4-508z"/><path fill="#5a4a29" d="M-62 778l40-356 268 96z"/><path fill="#f51e2c" d="M310 758l272 328-212-848z"/><path fill="#220200" d="M458 1022L174 746l96 340z"/><path fill="#141605" d="M618 50l-80 260L430-62z"/><path fill="#f8ffff" d="M-54-54L426 94-62 486z"/><path fill="#dbdee3" d="M550 482H386l16 68z"/><path fill="#ffffc6" d="M-62 726l252-16-248 376z"/><path fill="#dc0007" d="M170 794l104 292-164-168z"/><path fill="#05000b" d="M-62 990l172 76-4-72z"/><path fill="#fff" d="M378 238l128 76-40 24z"/><path fill="#dd3843" d="M358 394l224 112 68-252z"/><path fill="#9c9457" d="M214 722L110 534-62 706z"/><path fill="#0c55b7" d="M798 1086l-12-368-248 12z"/><path fill="#00132f" d="M534 738l40-188 220 84z"/><path fill="#defdff" d="M562 1002l-124-24 92-8z"/><path fill="#e3f8ff" d="M358 826L198 682l104 208z"/></g></svg>