<svg xmlns="http://www.w3.org/2000/svg" width="228" height="278" viewBox="0 0 836 1024"><path fill="#485e7c" d="M0 0h836v1024H0z"/><path fill="#9fcbfe" fill-opacity=".502" d="M460.652 294.008L81.667 873.548 809.012 1086 576.927 653.607z"/><path fill="#1b1b1e" fill-opacity=".902" d="M515.47-31.511L-2.564-50.691l-41.585 641.43 504.413-387.722z"/><path fill="#100c0f" fill-opacity=".831" d="M879.033 630.086L643.2 317.605 665.527-62 898-6.173z"/><path fill="#e2c3ad" fill-opacity=".867" d="M208.88 529.623l-65.706-37.518L-62 756.123l21.438 139.027z"/><path fill="#0065da" fill-opacity=".655" d="M855.804 501.365l-466.736-215.14-153.156 43.63-55.07 201.776z"/><path fill="#0163d6" fill-opacity=".875" d="M119.554 885.111L717.222 1086H-26.42L186.5 679.786z"/><path fill="#ffa769" fill-opacity=".514" d="M682.212 101.248L468.25 80.85l30.302 281.534 192.067-167.541z"/><path fill="#767d86" fill-opacity=".996" d="M433.135 539.117l3.49 46.95L711.36 1086 898 814.137z"/><path fill="#fff8ee" fill-opacity=".463" d="M372.34 725.291L196.522 966.583l198.13-391.516 228.294 217.777z"/><path fill="#cde0e7" fill-opacity=".91" d="M413.772 540.404l216.148 62.61 22.413-26.086-225.769-77.537z"/><path fill="#051e45" fill-opacity=".749" d="M675.856 690.388L408.443 556.144l101.948 114.148 385.288-246.847z"/><path fill="#fecfb4" fill-opacity=".475" d="M62.15 886.061l93.968-34.994-171.65 168.858L-62 626.693z"/><path fill="#dcae87" fill-opacity=".749" d="M726.715 752.375l-114.336 62.901L598.133 1086l94.506-158.634z"/><path fill="#0b57c0" fill-opacity=".969" d="M300.45 687.98l116.696-371.297-40.739 281.455-262.414 473.901z"/><path fill="#b4d0e4" fill-opacity=".592" d="M400.838 515.494l21.325-163.099 90.358 33.036-294.469 627.407z"/><path fill="#e1f6ff" fill-opacity=".714" d="M304.396 657.579L174.888 916.424l-15.511-42.15L338.83 549.291z"/><path fill="#0b66cf" fill-opacity=".835" d="M704.498 571.567L421.72 496.285l222.054-156.113 97.707 87.69z"/><path fill="#101016" fill-opacity=".91" d="M234.018-62l250.219 49.788-15.34 271.48-218.244 62.04z"/><path fill="#085cbe" fill-opacity=".898" d="M482.708 248.804L132.336 474.483l166.868 145.57-192.45 310.034z"/><path fill="#e6f5fe" fill-opacity=".867" d="M346.968 947.373l-32.987-8.335 38.12-140.658 46.56-31.46z"/><path fill="#112652" fill-opacity=".757" d="M115.554 677.56l240.92-253.528L63.728 852.3l-31.435-50.933z"/><path fill="#83b4d7" fill-opacity=".969" d="M581.248 653.685l72.053-64.042-62.666-102.789 72.863 9.398z"/><path fill="#3a3a46" fill-opacity=".878" d="M174.314 435.86L-62 754.844l225.609-482.821 116.555 106.55z"/><path fill="#084bb5" fill-opacity=".918" d="M429.067 773.173l-37.222 16.597-67.738 279.272L358.829 1086z"/><path fill="#e6f5ff" fill-opacity=".753" d="M457.906 778.138L435 932.756l-37.294 33.158L408.64 856.24z"/><path fill="#6e84a1" fill-opacity=".992" d="M710.124 940.935L898 962.946V543.711l-163.379 89.931z"/><path fill="#0056cb" fill-opacity=".718" d="M366.554 764.501L272.33 1030.95l-3.77-91.719 48.75-171.329z"/><path fill="#044bb4" fill-opacity=".843" d="M402.961 1086l49.186-246.092 46.408-61.273-32.741 157.585z"/><path fill="#544128" fill-opacity=".729" d="M490.34 94.013l219.404 13.653L622.276-62 508.34-11.844z"/><path fill="#292124" fill-opacity=".745" d="M516.72 388.32l39.9 3.291 268.213-171.832-325.467 131.598z"/><path fill="#352400" fill-opacity=".333" d="M724.42 753.062l-144.788-167.81-86.092-15.073 167.256 217.2z"/><path fill="#e7f7ff" fill-opacity=".655" d="M466.27 1027.172L517.6 843.72l-23.014-9.727-9.21-11.73z"/><path fill="#006fe0" fill-opacity=".859" d="M366.645 455.932L250.353 425.19l21.218-107.571 185.061-51.556z"/><path fill="#0857c2" fill-opacity=".835" d="M401.595 496.162L200.22 943.039l21.655-149.195 100.105-55.54z"/><path fill="#567aa6" fill-opacity=".651" d="M611.594 591.356l-142.58 408.437 106.673 75.349 58.679-353.082z"/><path fill="#ecfeff" fill-opacity=".631" d="M282.104 924.875l35.257-181.218-50.91 76.814-38.565 104.882z"/><path fill="#f3c8b2" fill-opacity=".627" d="M599.065 178.813l15.746-78.194-124.164 5.157 17.03 62.104z"/><path fill="#b0d1f9" fill-opacity=".659" d="M279.844 541.29l-53.38 168.005-77.148-13.862 23.03 63.526z"/><path fill="#002079" fill-opacity=".631" d="M240.844 733.125l98.919-271.466-26.7-19.6-25.992-19.762z"/><path fill="#11121b" fill-opacity=".902" d="M898 514.82l-131.952 6.335L657.017-62h237.31z"/><path fill="#93674e" fill-opacity=".749" d="M563.375 175.735l-47.362 172.452 101.98-34.771 68.02-160.268z"/><path fill="#b2b2b6" d="M567.344 714.925l-225.381 83.98 262.332-159.507-260.015 70.594z"/><path fill="#131100" fill-opacity=".396" d="M615.4 621.45l-144.49 60.64 49.983 17.13-105.636-132.939z"/><path fill="#0380ef" fill-opacity=".894" d="M104.153 913.96L327.68 1086H-23.965l224.428-263.887z"/><path fill="#b5d5ef" fill-opacity=".647" d="M257.504 728.038l37.332 2.086 35.403-230.246-93.115 255.336z"/><path fill="#003594" fill-opacity=".745" d="M669.525 518.832l-181.7-139.985L769.031 548.89l-127.578 52.791z"/><path fill="#0042aa" fill-opacity=".71" d="M231.387 713.508l-91.884 216.814 133.47-473.682-106.287 231.526z"/><path fill="#e5f2ed" fill-opacity=".69" d="M394.698 626.84l79.035-111.356-58.077 42.813 83.214 134.591z"/><path fill="#003797" fill-opacity=".604" d="M577.293 1086l-119.878-94.554-215.395-72.333L63.7 884.52z"/><path fill="#aa8e76" fill-opacity=".761" d="M-13.039 847.52l231.524-305.086-9.768-4.184-88.554 66.986z"/><path fill="#3c4048" fill-opacity=".463" d="M24.393 118.125L67.34 318.552l179.957 140.404-39.214-377.414z"/><path fill="#f0feff" fill-opacity=".471" d="M186.683 923.864l67.14-197.415L127.356 872.71l48.752-121.635z"/><path fill="#003372" fill-opacity=".518" d="M574.523 742.385l86.75-175.355-172.975 270.504-29.015-27.7z"/><path fill="#f4fcfd" fill-opacity=".494" d="M539.14 581.582l-114.443-49.925 174.605 4.34-59.263 81.584z"/><path fill="#242b2f" fill-opacity=".847" d="M489.282 563.33l-44.24-16.262-10.41 41.183 22.258 34.004z"/><path fill="#004cb5" fill-opacity=".545" d="M152.637 820.285l32.885-188.318L79.635 830.315l3.97 87.015z"/><path fill="#0a86e0" fill-opacity=".933" d="M166.81 431.558l56.409 114.347-88.907-52.868 87.859-60.778z"/><path fill="#f5e3d2" fill-opacity=".365" d="M413.885 334.116l-3.99 85.045 84.303-62.572-.05 129.228z"/><path fill="#cc6d00" fill-opacity=".267" d="M690.326 805.738l-77.785 7.43 52.966-126.378 87.277-27.264z"/><path fill="#b2d6f0" fill-opacity=".533" d="M244.256 635.111l-21.169 6.696 23.844-68.22 36.748-34.147z"/><path fill="#fdc9b8" fill-opacity=".392" d="M485.913 336.263l.401-138.003 178.848 22.818-126.868 18.215z"/><path fill="#0561d2" fill-opacity=".788" d="M277.15 715.551l-13.348 87.776L236.4 906.458l-89.94 125.743z"/><path fill="#f3ceb8" fill-opacity=".616" d="M19.84 812.204l42.376-230.237L-62 851.284l130.017 51.7z"/><path fill="#0659cb" fill-opacity=".992" d="M463.668 373.806l-143.71-64.774 140.09-21.17 49.976 61.993z"/><path fill="#002e8c" fill-opacity=".529" d="M449.185 769.78l-14.864 32.191-62.07-72.792-22.787 48.887z"/><path fill="#0147a8" fill-opacity=".51" d="M533.718 827.622l-58.161 240.277 38.737-243.147 58.308-13.523z"/><path fill="#14469b" fill-opacity=".843" d="M360.932 397.82l144.627 32.788 298.414-46.694-364.923 46.483z"/><path fill="#1a0c01" fill-opacity=".443" d="M113.977 736.88L94.41 717.527l34.392-56.616 189.057-172.037z"/><path fill="#4c6a8f" fill-opacity=".796" d="M637.075 1086l50.191-135.63L898 918.723l-190.328 164.74z"/><path fill="#494034" fill-opacity=".478" d="M663.73 78.108l-66.262 143.417-100.198-42.04 202.292-3.965z"/><path fill="#b5bfc7" fill-opacity=".784" d="M372.599 793.835l80.32-108.133 82.53 112.456 34.751-86.785z"/><path fill="#001c62" fill-opacity=".78" d="M747.783 488.836L736.955 647.17l-30.628 38.58-75.238-7.313z"/><path fill="#dae6ed" fill-opacity=".671" d="M500.82 730.37L401.77 962.7l22.475 14.916 2.924-137.944z"/><path fill="#002f78" fill-opacity=".749" d="M544.653 500.4L467.3 480.75l-191.475 12.367 112.1-1.768z"/><path fill="#fdfdfb" fill-opacity=".4" d="M600.147 503.098l41.48-25.573 10.258 61.822-38.158-1.082z"/><path fill="#0c3a9d" fill-opacity=".843" d="M262.206 702.066l35.857-159.939 46.67-128.108-124.754 315.647z"/><path fill="#ffeac6" fill-opacity=".294" d="M155.395 500.993l-49.307 36.897-71.939 101.914 195.238-70.515z"/><path fill="#deeefa" fill-opacity=".682" d="M480.087 995.91l25.554-109.142-5.559-48.961-47.02 140.658z"/><path fill="#131620" fill-opacity=".961" d="M409.213 280.812L386.726-62l92.134 260.994 5.898 62.06z"/><path fill="#dbefff" fill-opacity=".525" d="M227.38 934.862l48.942-163.85 56.41 19.472 61.579-201.373z"/><path fill="#e0e7e3" fill-opacity=".439" d="M532.57 616.333l-19.79 5.033-28.456-94.709 3.57 79.178z"/><path fill="#181518" fill-opacity=".98" d="M473.381-62l.447 130.358 73.354-63.536 198.297 20.525z"/><path fill="#0054c2" fill-opacity=".659" d="M271.676 939.743l38.23-40.28 59.249-161.125-63.452 67.433z"/><path fill="#0281e8" d="M248.074 336.278l148.951-55.604-49.038 13.34-61.032 152.355z"/><path fill="#1a1f2c" fill-opacity=".71" d="M673.924 363.905L898 614.682 693.494 179.488l-89.798 144.294z"/><path fill="#009fff" fill-opacity=".341" d="M19.203 877.002l1.371 199.184 218.682-200.158L63.993 974.22z"/><path fill="#271c21" fill-opacity=".529" d="M89.675 563.522l79.753-123.928-205.922-85.516L-62 562.698z"/><path fill="#061d5d" fill-opacity=".478" d="M378.52 797.452l97.203-24.484-31.028-24.18-16.03 61.62z"/><path fill="#78594a" fill-opacity=".694" d="M235.492 415.18l31.135-40.556-41.253-44.804-20.361 107.575z"/><path fill="#3a2b2a" fill-opacity=".984" d="M541.31 268.95L191.35-26.197 565.763 289.98l-62.982-5.596z"/><path fill="#f5fffa" fill-opacity=".506" d="M601.17 579.72l-81.69-15.853 105.322-9.688-25.76 98.97z"/><path fill="#0060ef" fill-opacity=".467" d="M763.362 544.455l-2.138-63.622-130.066-150.06-34.314 97.213z"/><path fill="#041125" fill-opacity=".51" d="M605.196 671.451l-45.784 100.436 33.893-123.45 251.391-151.734z"/><path fill="#000013" fill-opacity=".18" d="M217.425 510.953l61.568-68.133 43.196 36.92 177.801 42.484z"/><path fill="#f6d59d" fill-opacity=".192" d="M504.02 33.355l-17.078 41.462-5.082 200.659 80.52-265.48z"/><path fill="#8c797d" fill-opacity=".957" d="M613.607 746.005l79.594 18.4-268.375-52.981 53.073 21.297z"/><path fill="#0e9af9" fill-opacity=".529" d="M585.84 554.058l-16.413-63.343-195.173-28.683 240.222-2.892z"/><path fill="#0d151a" fill-opacity=".565" d="M500.444 671.318l92.754-42.267-11.787-41.017-108.324 57.81z"/><path fill="#0b4db8" fill-opacity=".69" d="M210.099 662.563l87.627-29.892-117.117 15.078 35.26 99.873z"/><path fill="#d9ffff" fill-opacity=".396" d="M565.008 655.272l13.933 28.741-96.089-11.71 129.405-42.777z"/><path fill="#000480" fill-opacity=".263" d="M560.05 436.82l137.745 88.009-221.036-220.06 79.134 247.453z"/><path fill="#010a0a" fill-opacity=".357" d="M468.694 633.746l31.22-36.425 21.421-33.395 23.771 26.578z"/><path fill="#d4cbcf" fill-opacity=".353" d="M484.925 487.464l-85.212-69.786 62.141 13.692 43.967-65.821z"/><path fill="#002180" fill-opacity=".565" d="M296.465 787.286l-25.12-56.74 72.524-9.835-42.36-22.16z"/><path fill="#fff" fill-opacity=".373" d="M206.23 681.605l-40.917 34.105-2.852 34.122 7.588 32.535z"/><path fill="#ccab90" fill-opacity=".804" d="M660.199 1086l9.832-245.983-52.273-76.598 16.756 276.591z"/><path fill="#2265c4" fill-opacity=".863" d="M187.386 776.757l-17.026-2.902 3.246 87.52 53.363-155.8z"/><path fill="#0f0700" fill-opacity=".302" d="M624.632 670.078l88.667-125.617-82.24 223.246 57.62 21.137z"/><path fill="#1eadfc" fill-opacity=".412" d="M602.055 681.694l4.248-44.421 40.39-33.63 18.582-148.604z"/><path fill="#fff" fill-opacity=".388" d="M200.365 888.752l-55.275 17.514 165.446-237.064L190.76 780.984z"/><path fill="#de715e" fill-opacity=".278" d="M468.412 724.352l74.978-27.274-150.616-40.314 2.813 50.689z"/><path fill="#ffc5b1" fill-opacity=".467" d="M541.163 338.028l1.202.872-39.907-28.49 72.324.843z"/><path fill="#e9fdf7" fill-opacity=".337" d="M557.622 771.739l-187.628-44.11 167.705 30.259-66.568 129.258z"/><path fill="#8195a6" d="M699.47 589.534l-262.85-80.86 7.21-3.01 18.592-.882z"/><path fill="#dcedfa" fill-opacity=".729" d="M430.1 948.214l12.886-129.933-58.1 131.747 5.05 15.933z"/><path fill="#000243" fill-opacity=".392" d="M440.446 1021.766l-101.07-.622 128.94-40.544-60.643-8.506z"/><path fill="#140f00" fill-opacity=".545" d="M193.186 33.591L-62 100.29 40.244-62l310.063 78.755z"/><path fill="#9cb3cc" fill-opacity=".239" d="M590.711 842.317l18.87-272.98 29.134 165.068-64.491 316.028z"/><path fill="#041773" fill-opacity=".631" d="M172.607 770.89l-20.263-54.382-50.647 81.052 56.166-39.781z"/><path fill="#0058d4" fill-opacity=".565" d="M80.339 891.043l135.49 17.917-167.45 155.147 287.035-99.754z"/></svg>