<svg xmlns="http://www.w3.org/2000/svg" width="228" height="278" viewBox="0 0 836 1024"><path fill="#8e875a" d="M0 0h836v1024H0z"/><path fill="#ddf752" fill-opacity=".914" d="M556.598 723.202l53.021 339.574L144.061 1086 245.21 709.993z"/><path fill="#2b273f" fill-opacity=".682" d="M898 233.582L342.07-62l-3.156 314.277L898 445.834z"/><path fill="#def85e" fill-opacity=".816" d="M102.546 492.477l238.703 64.637 143.375-232.466-284.08-48.631z"/><path fill="#512213" fill-opacity=".796" d="M84.628 550.073L39.332 823.937l521.65-340.85-294.347 88.716z"/><path fill="#e7fc83" fill-opacity=".824" d="M542.229 547.186l137.887-6.119-39.358-186.882-100.126-44.227z"/><path fill="#533b1b" fill-opacity=".925" d="M448.125 355.435l-31.683 136.039L658.605 809.26l29.378-58.1z"/><path fill="#666a83" fill-opacity=".992" d="M580.44 233.135L484.92 42.81 780.571-62 898 152.81z"/><path fill="#9bb6ff" fill-opacity=".306" d="M565.965 843.776l-35.009 212.92L898 1046.221l-7.215-540.964z"/><path fill="#e9684b" fill-opacity=".816" d="M453.235 536.489L303.286 691.567l202.444 64.911 18.894-144.52z"/><path fill="#1f001f" fill-opacity=".361" d="M622.138 316.385l73.254 193.511 156.826 43.577L898-62z"/><path fill="#ff6dad" fill-opacity=".478" d="M99.572 618.204l11.093-137.747L-62 410.853V789.23z"/><path fill="#422a08" fill-opacity=".553" d="M466.197 345.826l92.453 367.502L469.58-62 344.219 259.767z"/><path fill="#79797b" fill-opacity=".788" d="M-62-36.358l340.499-20.575 101.027 295.395-328.87 135.319z"/><path fill="#b25712" fill-opacity=".349" d="M492.767 515.206L35.814 811.24 20.808 1086l84.003-83.646z"/><path fill="#81000b" fill-opacity=".486" d="M59.582 515.195l-31.46 512.338 88.602-384.665-44.547-112.586z"/><path fill="#8fe421" fill-opacity=".424" d="M282.593 674.601l-89.91 32.237-20.226 344.58 197.836-318.252z"/><path fill="#cee5e1" fill-opacity=".392" d="M489.84 559.405l8.334 94.516-144.987-28.76 21.288-14.334z"/><path fill="#a7b4c3" fill-opacity=".624" d="M70.02 696.326l-19.567-107.39L-62 479.498l49.233 251.668z"/><path fill="#2f2905" fill-opacity=".569" d="M536.1 668.966L664.433 797.35l26.87-55.19 9.514-73.325z"/><path fill="#cdd84e" fill-opacity=".6" d="M195.885 454.158l324.042-169.281-152.432 256.426-110.32 34.607z"/><path fill="#84adfa" fill-opacity=".247" d="M491.452-54.988L775.216 114.4l-35.517 125.58-205-157.165z"/><path fill="#312514" fill-opacity=".729" d="M459.51 325.521l-80.257-29.432-46.087-233.085 87.84-95.438z"/><path fill="#26141c" fill-opacity=".188" d="M-62 399.198l196.381-388.18-36.065 777.893L400.478 642.52z"/><path fill="#f9ff69" fill-opacity=".561" d="M532.22 624.473l66.797 453.464-278.15-162.44L409.976 1086z"/><path fill="#adc2c3" fill-opacity=".906" d="M580.502 420.818l10.283 45.564-64.156 43.835 13.744-107.901z"/><path fill="#e6fe86" fill-opacity=".475" d="M405.979 445.55L86.26 336.47l261.095-61.34 82.713 61.26z"/><path fill="#9b9a98" fill-opacity=".882" d="M210.958 43.907L131.368-62h327.586L332.396 56.154z"/><path fill="#ff2c74" fill-opacity=".427" d="M367.506 451.604l-71.752-7.672-24.662-63.286 84.235 5.45z"/><path fill="#716d7b" fill-opacity=".584" d="M898 630.472l-53.691-101.286-168.473-39.906-47.632 169.4z"/><path fill="#6a4c39" fill-opacity=".871" d="M438.814 29.614l128.772 87.893-36.62 38.708 2.16 313.503z"/><path fill="#9b9a98" fill-opacity=".749" d="M361.905 204.374l-18.118-67.701-183.206-6.247-26.823 62.86z"/><path fill="#d52929" fill-opacity=".541" d="M110.477 551.186L-62 450.314l98.728 122.229 41.053 100.212z"/><path fill="#7ebcb1" fill-opacity=".855" d="M209.194 507.414l29.763 28.202-113.414-27.065-34.445-19.922z"/><path fill="#cac3f8" fill-opacity=".514" d="M202.312 745.03l-65.348 26.808-59.85 28.386 106.308-21.864z"/><path fill="#d09ff8" fill-opacity=".314" d="M19.862 1013.725L55.865 1086 6.34 765.509l-62.786 284.032z"/><path fill="#28435a" fill-opacity=".494" d="M554.212 194.505l108.526 224.904 95.212-12.033-3.065-224.954z"/><path fill="#db0212" fill-opacity=".271" d="M777.557 404.547l103.608-9.821L898 524.593l-235.296-52.948z"/><path fill="#5c3a1c" fill-opacity=".733" d="M541.96 581.047l-204.511-39.79-235.229 209.72 404.767-336.946z"/><path fill="#bdfb30" fill-opacity=".467" d="M295.33 567.495l137.872-91.759-221.866-41.68 25.986 151.722z"/><path fill="#bf8250" fill-opacity=".878" d="M-33.927 1064.497l80.717-35.83 129.874-105.762L191.7 800.237z"/><path fill="#f5ff3d" fill-opacity=".443" d="M668.662 431.757l-155.804 70.14 68.716 56.534 89.57-75.496z"/><path fill="#ffcfe7" fill-opacity=".463" d="M-62 415.672l172.977 141.191-8.964-49.207-5.717-.799z"/><path fill="#0e2005" fill-opacity=".361" d="M119.846 617.602l213.63 36.703L43.828 763.476l6.333-49.07z"/><path fill="#de1100" fill-opacity=".443" d="M314.426 699.638l1.835-47.86 21.731-19.964 133.95 107.72z"/><path fill="#969b97" d="M779.34 950.913l-194.404-230.72-10.362 92.71L898 691.328z"/><path fill="#210c00" fill-opacity=".506" d="M898 399.713l-138.265 9.023 17.52-172.053 109.6 21.476z"/><path fill="#463400" fill-opacity=".38" d="M569.324 756.296l-88.183-231.06 217.29 120.455-93.558-99.737z"/><path fill="#49331c" fill-opacity=".831" d="M528.998 401.346l-42.193 72.364-31.093-79.537 37.27-80.84z"/><path fill="#aee205" fill-opacity=".427" d="M519.135 738.867l61.065 78.016-3.773-40.312-44.798-173.643z"/><path fill="#664c37" fill-opacity=".663" d="M97.516 543.427l71.212-29.487 156.17 108.13-185.974-7.93z"/><path fill="#82c0bb" fill-opacity=".788" d="M658.934 529.38l6.973-24.185 6.814 44.049-110.476 16.803z"/><path fill="#462e1c" fill-opacity=".729" d="M-50.002 244.094L78.673 304.81-62 318.625V68.22z"/><path fill="#a80018" fill-opacity=".522" d="M17.524 873.529l72.45-112.537L46.553 973.05l4.244 10.82z"/><path fill="#cb674d" fill-opacity=".608" d="M59.404 630.777l-38.52-226.67 31.747-83.83-73.408-7.656z"/><path fill="#f4ff75" fill-opacity=".753" d="M634.847 359.26L672.48 476.4 528.146 361.32l9.486-37.774z"/><path fill="#5c5757" fill-opacity=".631" d="M898 7.62L756.752 241.93l10.907-196.337L608.124-8.653z"/><path fill="#deff3e" fill-opacity=".486" d="M137.209 493.128l10.364-150.108 153.768 20.619-76.849 153.155z"/><path fill="#94928d" fill-opacity=".722" d="M188.605 294.005l-94.586-2.07-23.614 56.062 69.838 34.589z"/><path fill="#3663ab" fill-opacity=".431" d="M800.377 944.388L898 776.778l-26.672 245.173L799.062 1086z"/><path fill="#ee5818" fill-opacity=".486" d="M450.682 668.045l83.362-30.818-67.95 103.467 9.5-245.274z"/><path fill="#756653" fill-opacity=".776" d="M558.232 242.36L454.437 113.51l117.264 215.008-117.384-34.264z"/><path fill="#d4042a" fill-opacity=".435" d="M196.504 712.065l-16.478 47.187-155.32 37.175 137.532-56.63z"/><path fill="#7a8ee7" fill-opacity=".294" d="M103.496 863.453l-48.2 72.214 31.988-131.341-5.112-55.56z"/><path fill="#859ca5" fill-opacity=".439" d="M27.237 1086l169.02-187.619-11.72-57.716-17.88 184.26z"/><path fill="#fdbb67" fill-opacity=".204" d="M449.687 39.972l95.646 66.371L595.14 7.895l-31.362 12.671z"/><path fill="#764d3e" fill-opacity=".447" d="M455.53 363.068l-51.927 64.285 59.807-2.92L699.242 763.27z"/><path fill="#838b83" fill-opacity=".784" d="M42.544 450.924l87.124-19.51-13.86 91.074 31.776-5.538z"/><path fill="#030a13" fill-opacity=".357" d="M364.813 17.194l-28.522 122.205L444.707-32.116l91.665 72.522z"/><path fill="#d4fa66" fill-opacity=".624" d="M286.67 525.782l142.099-60.81-118.286-140.928 180.415-3.293z"/><path fill="#383016" fill-opacity=".808" d="M516.555 253.923l-142.132-114.18L354.15 270.21l54.744 48.969z"/><path fill="#cceaff" fill-opacity=".49" d="M-48.352 445.955l-1.916 150.695 68.027-116.345 4.12-39.203z"/><path fill="#3e010e" fill-opacity=".298" d="M35.19 854.938l94.107-72.42-5.804 100.72L54.16 732.092z"/><path fill="#dd4e27" fill-opacity=".941" d="M396.163 631.122l19.295-47.51-54.249 76.646 71.03.581z"/><path fill="#65695f" fill-opacity=".573" d="M377.608 244.512l-312.083-53.49-3.728 62.872 218.07 36.642z"/><path fill="#4a3528" fill-opacity=".98" d="M559.887 114.717l-223.112 11.146 30.419 47.36 68.884-113.368z"/><path fill="#7fba05" fill-opacity=".408" d="M312.863 658.303L197.697 865.168l.15-144.545 114.075-71.928z"/><path fill="#eaf563" fill-opacity=".741" d="M567.828 484.79l21.379 95.87-62.258-106.87 5.928-9.937z"/><path fill="#e2d6f8" fill-opacity=".169" d="M357.711 628.885l119.138 62.903-111.022-.471 48.237-141.433z"/><path fill="#d8ff6f" fill-opacity=".569" d="M209.82 413.479l50.562-98.062 85.904-58.998 67.877 94.776z"/><path fill="#1f1d07" fill-opacity=".325" d="M686.01 778.152l-184.224-303.33 5.754 103.496L632.411 780.58z"/><path fill="#9a9e9d" fill-opacity=".392" d="M599.233 938.608L898 728.493l-241.203-197.99 52.649 162.423z"/><path fill="#d50013" fill-opacity=".361" d="M31.412 518.947L-62 529.965v98.411L48.997 427.704z"/><path fill="#f25324" fill-opacity=".769" d="M501.945 752.519l7.88-183.712 5.085 122.295-161.024 4.443z"/><path fill="#7d6f81" fill-opacity=".51" d="M-61.067 813.535l98.928-148.273 12.946 81.626-25.143 151.556z"/><path fill="#c3eaee" fill-opacity=".396" d="M508.3 608.393l-40.948 41.727.058-34.731 41.746-20.916z"/><path fill="#edff61" fill-opacity=".451" d="M332.114 1015.8l83.696-294.746 160.19 80.6-37.055 237.192z"/><path fill="#c7f33a" fill-opacity=".275" d="M172.334 821.275l134.482-134.059L455.65 901.968 247.31 1086z"/><path fill="#8b1925" fill-opacity=".188" d="M668.59 729.149l36.185-124.367-74.092-56.26-58.31 22.427z"/><path fill="#e1bffb" fill-opacity=".345" d="M317.055 701.039l174.09 59.097 28.776-12.182-22.981 3.692z"/><path fill="#acbefb" fill-opacity=".518" d="M557.031 1000.88l23.354-23.906-45.292 3.342 2.052 5.297z"/><path fill="#c8ceff" fill-opacity=".243" d="M116.164 798.093l-63.923 4.362 148.61-51.679-13.48 31.665z"/><path fill="#cb7e9d" fill-opacity=".412" d="M193.726 808.983l-.894-63.895 10.368-41.15-30.588 10.394z"/><path fill="#64645a" fill-opacity=".62" d="M140.632-33.412L42.125 455.163l36.01-324.836 127.46-16.793z"/><path fill="#cbc8e2" fill-opacity=".494" d="M-60.04 1086l-1.96-48.598 91.882-95.087-12.202-49.022z"/><path fill="#c8e737" fill-opacity=".514" d="M153.13 354.737l213.733 174.917-196.885-64.436-57.996 49.363z"/><path fill="#781514" fill-opacity=".89" d="M106.044 703.526L25.11 912.693l11.439-91.71 92.503-70.989z"/><path fill="#feb27d" fill-opacity=".227" d="M556.166 143.823l-59.154 58.152 58.825 14.764-40.584-106.252z"/><path fill="#d0f3f8" fill-opacity=".333" d="M451.208 642.604l-43.604 1.22 22.911-17.61 35.483-69.5z"/><path fill="#94b5ff" fill-opacity=".404" d="M527.522 431.468l25.432 39.442 57.633 11.639-37.31-64.507z"/><path fill="#624d34" fill-opacity=".788" d="M223.124 601.233l-99.981 12.422 159.493 13.856 165.301-136.267z"/><path fill="#f0fd5a" fill-opacity=".596" d="M601.25 432.17l63.004-19.628-9.972 125.052-73.38-41.69z"/><path fill="#c0ee4d" fill-opacity=".537" d="M329.57 538.774l74.956-31.278 17.874-39.072 11.536-99.22z"/><path fill="#596178" fill-opacity=".271" d="M898 200.133L793.17 78.157 562.433 189.598l-80.052 58.806z"/><path fill="#908d85" fill-opacity=".514" d="M-15.355 222.867l-28.658-195.31 84.075 34.057L54.06 268.78z"/><path fill="#452a17" fill-opacity=".592" d="M553.697 167.7l-58.856-25.965 13.988-12.388L355.162 199.3z"/><path fill="#14242e" fill-opacity=".247" d="M681.234 199.044L539.254 317.67l82.88 19.726 54.773 79.259z"/><path fill="#cd93a6" fill-opacity=".412" d="M68.458 590.631l-43.127-40.758-17.29-45.354 67.351 85.68z"/><path fill="#3179d3" fill-opacity=".141" d="M352.438 315.369l-65.477-73.853 132.54 99.356 66.423 58.896z"/><path fill="#43bdfd" fill-opacity=".373" d="M205.572 520.389l-95.759-6.331 46.385-18.76 89.075 34.587z"/><path fill="#f9fe79" fill-opacity=".62" d="M480.824 934.893L640.247 1086l-107.94-242.801L595.051 1086z"/><path fill="#e3beba" fill-opacity=".639" d="M374.088 426.52l-12.691 1.954-26.778-31.14-43.249 14.493z"/><path fill="#dff0ff" fill-opacity=".569" d="M53.465 512.036l21.424-14.944-33.758-21.135-1.398 33.05z"/><path fill="#979b95" fill-opacity=".937" d="M577.86 739.995l-2.844-18.835L788.84 923.096l-218.38-51.518z"/><path fill="#c0b9c7" fill-opacity=".639" d="M-48.184 456.652l89.249 135.739 24.742 64.382-42.85 3.612z"/><path fill="#61323d" fill-opacity=".361" d="M736.725 440.794l-66.722 95.133-2.958-136.992L898 382.48z"/><path fill="#e1f874" fill-opacity=".655" d="M389.56 391.115l-237.69-58.8 317.109 31.033 30.694-61.714z"/><path fill="#91b7ff" fill-opacity=".153" d="M633.893 172.613l-83.184-45.644 90.34-63.089L449.719-62z"/><path fill="#92af0e" fill-opacity=".435" d="M252.278 585.334l-59.263-24.66 33.443 11.73 28.119-157.71z"/><path fill="#4f5058" fill-opacity=".282" d="M132.367 454.953l9.208-72.728-142.908 5.76 30.41 61.503z"/><path fill="#4d331a" fill-opacity=".686" d="M73.308 694.319l248.412-40.747 139.273-145.273-148.755 96.868z"/></svg>