<svg xmlns="http://www.w3.org/2000/svg" width="228" height="278" viewBox="0 0 836 1024"><path fill="#8c8b7b" d="M0 0h836v1024H0z"/><path fill="#e7e4f2" fill-opacity=".643" d="M126.253 339.137l463.868-38.222L641.265 1086l-291.222-26.54z"/><path fill="#273b0a" fill-opacity=".561" d="M845.92 1086L559.942 108.19-3.25-62 898 2.534z"/><path fill="#4e5b37" fill-opacity=".961" d="M158.217-8.577L-62-1.331 9.374 1086l131.15-736.26z"/><path fill="#dfdee3" fill-opacity=".894" d="M367.808 241.302l-225.835 160.44-54.403 215.8 107.479 28.29z"/><path fill="#dad9dd" fill-opacity=".937" d="M176.425 435.497l388.883 129.409 113.268-185.36-53.32-73.735z"/><path fill="#4b5834" fill-opacity=".922" d="M156.918 841.015L-62 702.422l66.528 334.216 130.775 5.537z"/><path fill="#463e1d" fill-opacity=".451" d="M721.636 368.105L535.815 607.997 877.6 1081.2l-244.325-19.455z"/><path fill="#b2a09e" fill-opacity=".655" d="M559.529 587.143l-306.58-79.167L67.837 723.487 290.35 1086z"/><path fill="#4d5034" fill-opacity=".816" d="M406.073-36.315L308.18 280.357l-51.731 29.388-1.383-289.039z"/><path fill="#402900" fill-opacity=".408" d="M544.125 70.818l-83.283 337.76L325.66 256.819l298.656 46.115z"/><path fill="#e8eef7" fill-opacity=".431" d="M310.992 678.454l275.655-39.783 75.599 288.841L503.36 1086z"/><path fill="#d47976" fill-opacity=".525" d="M393.846 61.83l-96.102 106.76 188.125 175.993 29.333-274.6z"/><path fill="#0f0e26" fill-opacity=".357" d="M96.583 642.178l113.084 52.118L243.84 830.67l-6.212-196.778z"/><path fill="#8a8b93" fill-opacity=".996" d="M654.664 611.734l-327.629-8.753-29.871 56.903 208.499-6.193z"/><path fill="#4f5b38" fill-opacity=".667" d="M-62 342.833l255.29-8.255-25.165 47.168-143.52 281.259z"/><path fill="#ffb3af" fill-opacity=".51" d="M829.517 973.94l-111.8-151.593-63.448-290.649 70.896 213.31z"/><path fill="#faa083" fill-opacity=".533" d="M347.609 939.212L102.58 650.61 64.995 770.444l132.148 88.19z"/><path fill="#6d1104" fill-opacity=".337" d="M382.243 938.814l-29.2 25.267-139.03-21.583 94.476-62.045z"/><path fill="#faf6ff" fill-opacity=".349" d="M261.957 302.287l114.004-35.776 56.347 358.956-279.024-231.946z"/><path fill="#edf4ff" fill-opacity=".447" d="M212.621 1086l447.302-254.533-69.506 205.359-336.155-79.317z"/><path fill="#525d3a" d="M678.403 133.427l146.815 835.48-130.392-315.678-28.232-152.909z"/><path fill="#e4e4ec" fill-opacity=".894" d="M496.115 278.468L653.82 338.42l-217.88 38.557 64.951-42.963z"/><path fill="#989899" fill-opacity=".996" d="M366.922 511.48l-18.061-43.235-103.848 130.816-20.585-72.136z"/><path fill="#c6c1c0" fill-opacity=".965" d="M537.422 422.365l67.653 19.74L581.06 684.05l-27.77-57.031z"/><path fill="#5c5d44" fill-opacity=".98" d="M590.93 641.42l3.206-108.652 134.677 373.048-25.307 36.793z"/><path fill="#fcb8b6" fill-opacity=".529" d="M522.7 122.112l-121 6.702-36.145-59.952 121.178 5.044z"/><path fill="#515b38" fill-opacity=".631" d="M506.707 160.774l68.791 149.386 168.334-195.61-452.228 23.056z"/><path fill="#311b23" fill-opacity=".631" d="M342.513 160.65L390.425-7.32l118.247 58.424L311.45 74.777z"/><path fill="#d4d4d8" d="M240.778 401.775L93.569 619.522l121.55 28.323 6.427-14.905z"/><path fill="#936557" fill-opacity=".663" d="M344.759 290.691l123.934 63.499 47.604-117.812-208.2-19.661z"/><path fill="#c0c9d8" fill-opacity=".243" d="M162.808-10.999l104.305-12.326L230.06 86.82l-23.24 815.64z"/><path fill="#c6c0c2" fill-opacity=".976" d="M643.762 794.848l-253.247-91.36-139.686 194.184 373.733-159.316z"/><path fill="#264c1c" fill-opacity=".333" d="M898 1014.17L646.061 1086l-55.996-83.79 93.188-37.602z"/><path fill="#a48882" fill-opacity=".671" d="M611.088 444.779l19.445-15.663L735.03 781.59l-94.36-191.845z"/><path fill="#7e8593" fill-opacity=".639" d="M411.473 558.98l57.772-30.692 64.366 85.18 54.73-9.371z"/><path fill="#505d38" fill-opacity=".878" d="M898 28.228l-54.345 387.815-335.44-156.872 1.816-215.448z"/><path fill="#b0afb2" fill-opacity=".949" d="M434.487 352.021l69.408 56.056L355.962 375.8l55.126 32.262z"/><path fill="#16251d" fill-opacity=".337" d="M264.49 513.794l-36.713 96.916-12.797 144.483 41.41-217.54z"/><path fill="#755a50" fill-opacity=".533" d="M590.97 504.682l-1.857 194.378 110.61 99.526-67.86-296.583z"/><path fill="#ff8081" fill-opacity=".263" d="M808.155 910.263l-61.26-112.027-34.898 158.076 74.208 25.811z"/><path fill="#eae9ef" fill-opacity=".635" d="M598.685 408.269L383.149 571.225l207.754-271.017 84.808 63.026z"/><path fill="#010b0c" fill-opacity=".439" d="M223.015 631.642l19.804 100.009-6.526 80.55-16.146-133.642z"/><path fill="#6f5b43" fill-opacity=".953" d="M25.34 759.545l185.747 112.803-15.146 5.115-87.783-54.306z"/><path fill="#6c8779" fill-opacity=".165" d="M196.239 512.077l78.863 304.762 110.338-69.467L264.36 457.09z"/><path fill="#e8ac9d" fill-opacity=".69" d="M236.404 895.363L81.632 683.23l158.412 138.735 149.538 64.327z"/><path fill="#e3b1a5" fill-opacity=".686" d="M697.563 819.539l94.047 66.419-63.223-132.915-30.053-1.79z"/><path fill="#e4e5ee" fill-opacity=".447" d="M315.16 1081.5l322.496-102.182 25.547-118.926-48.942-69.014z"/><path fill="#d59e95" fill-opacity=".698" d="M493.346 199.81l18.935-44.379-199.652 24.09 20.607 9.358z"/><path fill="#4e5a36" fill-opacity=".863" d="M646.522 494.79l221.147 583.824L788.21 1086l52.98-598.938z"/><path fill="#4e5d39" fill-opacity=".796" d="M654.068 1086l1.561-359.13 51.834 126.985L721.658 1086z"/><path fill="#acb1b2" fill-opacity=".847" d="M634.76 472.865l-5.679 30.703 44.274-109.514-87.655 49.524z"/><path fill="#b0bac2" fill-opacity=".404" d="M196.426 1086l50.017-179.833 35.947 165.49-117.888-190.452z"/><path fill="#a88075" fill-opacity=".514" d="M414.084 359.516l53.513 216.45-86.542-489.378-65.04 176.098z"/><path fill="#c97e5c" fill-opacity=".549" d="M177.246 698.528l-106.37 14.437 22.312-65.28 94.652 12.273z"/><path fill="#505d39" fill-opacity=".835" d="M284.873 133.971l58.5 82.45-23.53 55.733-39.753 23.864z"/><path fill="#eae9f0" fill-opacity=".867" d="M383.548 437.445l3.959 53.21-158.008-74.707 101.118-162.916z"/><path fill="#4a5735" d="M96.741 563.475l-1.558 50.968-65.057 263.019L-62 719.86z"/><path fill="#834f43" fill-opacity=".745" d="M367.888 964.458l-32.403-15.484-55.625 13.49-12.245-76.232z"/><path fill="#00091e" fill-opacity=".267" d="M263.81 610.716l41.518-5.308 18.404 49.11 15.84-54.75z"/><path fill="#1d2934" fill-opacity=".478" d="M228.7 1026.267l-5.36-124.608-10.211-7.262 20.705 14.366z"/><path fill="#e1e8ee" fill-opacity=".357" d="M330.517 621.487l219.055-168.958-268.587 122.417 263.482 16.937z"/><path fill="#000c76" fill-opacity=".251" d="M93.522 621.093L238.108 653.9l-52.638 11.856-108.362-25.608z"/><path fill="#f7f5ff" fill-opacity=".373" d="M151.897 640.309l-54.843-80.466 12.983-50.148 104.597 128.77z"/><path fill="#dedee3" fill-opacity=".953" d="M578.29 390.506L489.713 250.31l19.884 102.55-39.916 190.942z"/><path fill="#f2acab" fill-opacity=".416" d="M469.083 114.878l42.502-31.717-96.452-21.674 48.32 132.343z"/><path fill="#c7cacd" fill-opacity=".682" d="M458.88 556.423L455.63 1086 341.892 817.653l79.265 20.476z"/><path fill="#bab7b6" fill-opacity=".729" d="M271.024 610.393l24.48-146.075 35.273 259.306-38.741 36.145z"/><path fill="#6b7761" fill-opacity=".694" d="M163.67 268.573l-5.855-324.037L138.37-8.642l2.185 409.28z"/><path fill="#68765d" fill-opacity=".631" d="M264.876-62L244.22-14.636l-1.233 341.88 33.138-53.364z"/><path fill="#011328" fill-opacity=".251" d="M433.761 587.853l-1.747-52.151-33.478 96.853-32.185 2.38z"/><path fill="#966a5c" fill-opacity=".996" d="M785.716 935.708l-45.114 50.274-26.502-130.98 6.998-27.509z"/><path fill="#9c9cab" d="M598.646 775.105l-14.042-.46 74.417 37.563-73.917-78.822z"/><path fill="#623e38" fill-opacity=".471" d="M468.43 310.953l-81.306-19.67 117.682-2.512-19.215 44.007z"/><path fill="#d5d5da" fill-opacity=".996" d="M577.98 622.649L358.51 1086l230.624-313.563-1.947-383.81z"/><path fill="#d7d8df" fill-opacity=".922" d="M400.986 392.018l-91.26-47.629 6.83-56.764 120.982 78.952z"/><path fill="#4c0816" fill-opacity=".282" d="M514.712 151.457L392.736 163.77l14.269-40.855 103.707 27.12z"/><path fill="#2d1a20" fill-opacity=".451" d="M447.738 30.392l88.685 54.124-188.63-63.249-35.206 91.531z"/><path fill="#652200" fill-opacity=".192" d="M553.257 441.69l-17.96 58.547 95.436 15.61-11.314 81.895z"/><path fill="#515b38" fill-opacity=".871" d="M898 191.507l-492.242 60.1 68.49-20.013 86.354 74.594z"/><path fill="#d1d0d5" fill-opacity=".851" d="M545.024 859.514l-20.26-222.66 5.848-106.359-27.848-16.29z"/><path fill="#bbbfc4" fill-opacity=".906" d="M225.181 1063.49l16.496-85.35 90.886-27.4 59.587 71.481z"/><path fill="#c9c9cc" fill-opacity=".808" d="M515.332 916.277L501.54 616.753l-86.245 349.391 62.69-361.04z"/><path fill="#eeedf3" fill-opacity=".969" d="M252.849 316.979l46.648-25.63 86.415 170.327-226.537-70.948z"/><path fill="#515f3d" fill-opacity=".745" d="M696.814 797.49L587.282 637.744l8.466 55.803 77.938 124.037z"/><path fill="#000209" fill-opacity=".196" d="M398.761 614.835l-33.128 16.618-.313-28.997-78.02 3.963z"/><path fill="#efedf5" fill-opacity=".608" d="M443.322 929.31l242.726 147.587-62.56-71.528-53.06 80.631z"/><path fill="#081c3f" fill-opacity=".282" d="M516.043 541.036l-12.25 28.35 9.536 94.503-17.505-114.058z"/><path fill="#cfcfd4" fill-opacity=".702" d="M514.733 559.808l82.47-68.601-5.052 74.433-99.938 33.445z"/><path fill="#989a95" fill-opacity=".82" d="M165.804 379.833l66.198-57.493 2.37-145.95-64.773 24.058z"/><path fill="#f19e80" fill-opacity=".31" d="M625.998 566.259l56.14 26.005-8.41-24.793-35.47-75.73z"/><path fill="#0e1c35" fill-opacity=".078" d="M752.705 558.051l-288.59 108.795-230.122 186.406 263.446-247.987z"/><path fill="#dca79c" fill-opacity=".635" d="M157.972 759.558l84.804 169.601 39.937-41.227 118.37 84.368z"/><path fill="#d5d4da" fill-opacity=".863" d="M458.908 606.275l12.186-35.523-34.039-172.97 51.107 207.483z"/><path fill="#b2795e" fill-opacity=".569" d="M194.52 864.734L73.148 789.646l12.111-37.697 153.188 143.846z"/><path fill="#707964" fill-opacity=".835" d="M163.815 987.585L-16.34 1086l150.898-1.182 13.14-257.988z"/><path fill="#00161a" fill-opacity=".22" d="M216.158 807.446l23.1 16.613 5.144-56.503-15.64-6.167z"/><path fill="#c9cbd3" fill-opacity=".718" d="M656.268 851.984l-14.906-79.453L632.26 987l-47.81-10.593z"/><path fill="#c8c8ca" d="M482.594 930.542L433.48 631.244l-46.417 134.382 20.633-147.444z"/><path fill="#270800" fill-opacity=".149" d="M445.147 306.236l-50.533-58.806 22.464 109.72 13.054 56.034z"/><path fill="#586242" fill-opacity=".749" d="M628.538 1016.867l134.46-87.104-40.426 71.358L670.73 854.58z"/><path fill="#001341" fill-opacity=".141" d="M411.895 612.967l17.443 79.444 43.883-197.078-5.255 79.532z"/><path fill="#cecdd2" fill-opacity=".588" d="M467.751 596.71l-41.929 10.73 4.595 74.505 14.409-139.066z"/><path fill="#de948a" fill-opacity=".376" d="M396.28 79.986l-71.497 122.73-10.847-67.003 81.686 70.63z"/><path fill="#a39f9c" fill-opacity=".988" d="M232.22 627.96l27.263-80.773 16.353 324.94-44.743-213.107z"/><path fill="#dadde5" fill-opacity=".816" d="M310.996 1023.54l242.767-178.897-57.58 125.53-239.032 50.07z"/><path fill="#b6b5b9" fill-opacity=".984" d="M391.143 645.505l-4.056 72.139-11.23-50.55 4.039-53.942z"/><path fill="#bbb9ba" fill-opacity=".867" d="M519.09 727.185L296.401 875.57l242.534-180.227 8.33-136.934z"/><path fill="#d3d2d7" fill-opacity=".976" d="M477.187 697.94l169.399 102.044-120.564-96.846 49.381-71.943z"/><path fill="#c0c0c1" fill-opacity=".667" d="M344.239 568.505l91.3 15.234-102.191 52.54 36.104 26.033z"/><path fill="#c49b93" fill-opacity=".38" d="M436.674 398.552l78.268-296.889-.02 6.612-11.028 105z"/><path fill="#b5b8bc" fill-opacity=".961" d="M395.567 994.975l-95.493-6.591-66.253-66.34 1.835 83.18z"/><path fill="#ebeaf2" fill-opacity=".82" d="M510.06 298.828l-27.844 39.565 183.767 41.298-55.84-69.548z"/><path fill="#6671a0" fill-opacity=".831" d="M86.668 613.67l59.58 35.812 23.858 3.963 12.135-8.441z"/><path fill="#54603d" fill-opacity=".922" d="M76.526 579.948l48.116-107.114 19.504-56.964-18.536-208.804z"/><path fill="#7c7867" fill-opacity=".902" d="M623.163 834.524l16.406 31.2 5.06-10.256L885.35 1086z"/><path fill="#eeeef4" fill-opacity=".988" d="M145.784 615.37l12.372 11.392-59.876-12.129 6.632-58.129z"/><path fill="#515e3a" fill-opacity=".804" d="M547.283 301.443l269.287 9.612-240.76-293.5-86.251 237.011z"/><path fill="#e0a098" fill-opacity=".325" d="M381.907 260.036l134.789.702-105.168-22.144L513.11 41.706z"/><path fill="#707d65" fill-opacity=".271" d="M-29.926 147.709l350.62-.413-29.567-43.185-353.127.588z"/><path fill="#53603b" d="M759.816 518.725l-109.251-.238-8.945-28.987 99.765-296.458z"/></svg>