<svg xmlns="http://www.w3.org/2000/svg" width="228" height="278" viewBox="0 0 836 1024"><path fill="#52576b" d="M0 0h836v1024H0z"/><path fill="#949a9b" fill-opacity=".741" d="M719.644 500.77l174.095 266.494L898 4.552l-215.395 108.41z"/><path fill="#173074" fill-opacity=".855" d="M170.295 994.122l439.529 45.46-8.22-441.413-400.377-18.473z"/><path fill="#c16501" fill-opacity=".392" d="M649.836 199.74L326.868 399.18 308.416 47.728 898-28.973z"/><path fill="#0034cb" fill-opacity=".553" d="M787.496 394.59L542.062 199.385l-52.594 107.093 193.39 203.145z"/><path fill="#898a90" fill-opacity=".973" d="M569.56 1086l118.212-245.126 134.949-25.377L843.263 1086z"/><path fill="#102251" fill-opacity=".655" d="M164.123 459.316l-200.365 36.867 242.277-234.146L491.073 494.54z"/><path fill="#15190e" fill-opacity=".498" d="M10.553-62L186.576 64.107l-81.67 235.054-136.887-21.528z"/><path fill="#feffc9" fill-opacity=".267" d="M208.39 668.425L50.965 1086l136.462-91.868-189.093-363.75z"/><path fill="#3d3401" fill-opacity=".408" d="M453.627 950.911l382.045-14.17L258.53 1086-62 766.297z"/><path fill="#e6fdcb" fill-opacity=".306" d="M270.76 200.965l25.61-188.768L161.615-62l14.403 339.257z"/><path fill="#1952fb" fill-opacity=".502" d="M331.068 353.41L54.497 359.9l94.273-96.732 160.356-27.853z"/><path fill="#d6ffe9" fill-opacity=".239" d="M345.313 588.532l213.9-11.656 57.954-73.823-569.114-34.694z"/><path fill="#a9a7cd" fill-opacity=".898" d="M145.998 1086l20.65-106.498-197.006-5.46L-62 1086z"/><path fill="#031a53" fill-opacity=".561" d="M764.958 574.454l-134.891-65.64-172.709-127.868 66.265-142.489z"/><path fill="#f07b00" fill-opacity=".392" d="M898 673.546l-60.369 219.501-70.427-291.638L898 519.378z"/><path fill="#e2fff5" fill-opacity=".557" d="M709.004 483.628l42.373-53.218 49.534 52.903-48.135 63.076z"/><path fill="#ecfbb4" fill-opacity=".239" d="M710.017 641.294l116.75 63.736-260.34 23.437 118.968-186.885z"/><path fill="#a0a1a3" fill-opacity=".765" d="M81.007 326.461l-96.054-23.991 43.641 134.149 37.998-36.504z"/><path fill="#996a43" fill-opacity=".769" d="M480.1 211.843l222.091 56.211 2.003-103.521-384.569-111.28z"/><path fill="#2c60fe" fill-opacity=".463" d="M390.61 945.714L113.455 752.282l251.902 133.109 219.974 50.49z"/><path fill="#293932" fill-opacity=".655" d="M558.31-62l56.062 247.102-50.245-49.125L434.682-23.437z"/><path fill="#18388d" fill-opacity=".871" d="M627.425 523.748L260.46 779.365l374.82 114.671-45.215-180.621z"/><path fill="#bec3ff" fill-opacity=".51" d="M621.975 958.223L898 1054.709l-349.886-23.789L580.11 1086z"/><path fill="#22291b" fill-opacity=".467" d="M623.362 838.925l-30.193-91.603 234.455-30.053-40.658 81.287z"/><path fill="#111505" fill-opacity=".369" d="M218.722 340.92L17.058 512.612l187.485 111.95-247.336 17.026z"/><path fill="#123db5" fill-opacity=".675" d="M819.572 485.978l14.804 15.398-78.332 79.553-60.624 6.282z"/><path fill="#b9cef4" fill-opacity=".549" d="M266.844 1002.418L295.491 1086H171.798l51.954-97.861z"/><path fill="#3467fa" fill-opacity=".435" d="M549.114 382.026l103.65-4.012L835.246 501.39 633.782 248.528z"/><path fill="#8b9492" fill-opacity=".729" d="M335.843 414.97l-91.92-11.595-4.654 29.406 99.944 5.57z"/><path fill="#3c4412" fill-opacity=".486" d="M895.932 353.39L898 279.651l-98.553-25.134-66.162 51.243z"/><path fill="#222116" fill-opacity=".639" d="M351.542 407.908l115.447-21.825-58.817 109.311-116.435-13.215z"/><path fill="#abc1cc" fill-opacity=".478" d="M524.631 471.797l-81.663-1.567-1.81-52.612L512.2 405.64z"/><path fill="#ffc08c" fill-opacity=".298" d="M548.633 99.686L400.801 219.324l139.457 33.31L357.656 71.063z"/><path fill="#1b3998" fill-opacity=".824" d="M310.859 751.009L229.52 521.95l-27.658-40.934-16.152 337.768z"/><path fill="#2f3234" fill-opacity=".831" d="M647.098 1043.62L328.95 900.053 161.123 795.5l3.478 191.492z"/><path fill="#7c817c" fill-opacity=".875" d="M144.596 450.84l-72.913 72.573 107.907 62.93 37.175-120.483z"/><path fill="#1d190c" fill-opacity=".584" d="M259.499 400.355l199.832 18.142-303.21-70.7-16.09 116.248z"/><path fill="#514433" fill-opacity=".675" d="M272.328 209.397L487.55 352.383l-109.673 22.872L347.348-62z"/><path fill="#fdd7a2" fill-opacity=".373" d="M432.008 380.954l-26.13 24.583-59.137-19.753-37.074-60.053z"/><path fill="#292b2c" fill-opacity=".867" d="M539.35 394.507l66.344-10.917-6.826 100.393-86.007 11.665z"/><path fill="#2b61ff" fill-opacity=".325" d="M534.726 766.555l87.097-107.301-117.617 299.473 130.356-71.886z"/><path fill="#373d42" fill-opacity=".863" d="M64.283 955.268l74.036 4.815-84.93-197.704L-62 653.39z"/><path fill="#b9cbcf" fill-opacity=".584" d="M700.705 355.877l-58.168-10.826-16.85 28.395 102.338-27.623z"/><path fill="#15265d" fill-opacity=".62" d="M459.481 596.793l216.771-34.055-306.798 178.186-150.74-172.797z"/><path fill="#6e726e" fill-opacity=".992" d="M12.098 685.194l138.077 260.818 13.931-52.075L-62 547.648z"/><path fill="#abc9cb" fill-opacity=".275" d="M204.922 184.325L-54.962 449.157l194.855-143.24 167.751-195.344z"/><path fill="#bfe8ea" fill-opacity=".376" d="M574.212 539.615l52.89-59.773-7.109 2.133-119.19 23.41z"/><path fill="#915033" fill-opacity=".855" d="M683.367-28.14l-4.841 323.635-78.39-81L601.36 3.168z"/><path fill="#2a302e" fill-opacity=".557" d="M555.9 937.131L14.89 1086l660.063-132.206-42.273-74.025z"/><path fill="#adbcc5" fill-opacity=".647" d="M377.547 511.246l15.341-13.115-160.857-26.193-63.616-1.922z"/><path fill="#bb7c57" fill-opacity=".667" d="M335.678 186.74l-25.205-41.43 22.677 84.162 218.56-32.14z"/><path fill="#848684" fill-opacity=".898" d="M730.421 232.896l-66.147 42.233 196.27 258.616-20.249 7.766z"/><path fill="#8c9086" fill-opacity=".902" d="M127.523 843.28L59.918 678.916l124.238-36.762 5.12 140.15z"/><path fill="#414034" fill-opacity=".463" d="M313.105 78.97L257.412-28.991 751.354-62 465.767 73.028z"/><path fill="#966440" fill-opacity=".851" d="M790.836 1086L898 937.48 784.341 591.12l51.182 316.834z"/><path fill="#ba9f7c" fill-opacity=".761" d="M532.713 155.54l-47.754-53.134-26.493-13.374 57.72-23.489z"/><path fill="#292a2e" fill-opacity=".98" d="M215.557 464.246l283.47 27.612-235.504-64.62-121.405 12.119z"/><path fill="#0e38bf" fill-opacity=".38" d="M75.613 335.718l-11.698 72.574 306.833-173.606-47.998-6.435z"/><path fill="#e1f0ff" fill-opacity=".227" d="M760.689 594.651L898 404.114 845.806 612.16l17.337 7.81z"/><path fill="#373d3d" fill-opacity=".416" d="M415.523 541.948L599.22 410.623 479.532 514.274l-318.924-2.722z"/><path fill="#cce0f0" fill-opacity=".286" d="M247.762 533.976l210.73 9.065-57.265 46.224 105.747.465z"/><path fill="#60697e" fill-opacity=".463" d="M888.974 975.218L609.85 996.877l-8.456-59.892 241.197-1.224z"/><path fill="#a05700" fill-opacity=".227" d="M488.15 338.361L454.407 177.38 292.479 300.158l98.344 93.036z"/><path fill="#3061fa" fill-opacity=".447" d="M483.638 790.884l-235.204-51.22 273.41 72.838 14.818 1.895z"/><path fill="#47551b" fill-opacity=".365" d="M365.215 187.911l141.351-45.824 109.862-79.151 6.62 111.825z"/><path fill="#0e2148" fill-opacity=".753" d="M437.5 828.662l144.76 45.132-82.247-4.183-198.903-59.838z"/><path fill="#2559fb" fill-opacity=".263" d="M281.25 776.684l329.136-7.38-304.795-11.065 232.069 182.25z"/><path fill="#193686" fill-opacity=".867" d="M762.501 577.448L659.927 392.581 695.83 540.66l16.518 55.586z"/><path fill="#c2c4ea" fill-opacity=".596" d="M618.229 1011.357l196.481-15.166-58.735 84.394-197.937-7.454z"/><path fill="#295eff" fill-opacity=".443" d="M375.738 926.875l27.105-2.154-221.605-143.88 25.556 43.583z"/><path fill="#8e8f44" fill-opacity=".529" d="M730.901 612.229L626.154 528.98l27.191-21.5 40.989 46.552z"/><path fill="#979b91" fill-opacity=".478" d="M898 130.017L653.834 95.286l66.369 135.977 102.794 22.397z"/><path fill="#0b3dce" fill-opacity=".318" d="M712.35 308.724l-175.003-98.528-26.821 21.229L620.75 361.417z"/><path fill="#112b8a" fill-opacity=".424" d="M306.296 382.067L196.752 246.37l-66.955 81.837 205.427-91.749z"/><path fill="#1d211f" fill-opacity=".792" d="M605.841 898.113l-45.563 40.966 21.754 135.327 22.73-24.028z"/><path fill="#ffd4b4" fill-opacity=".224" d="M346.969 177.004L316.41 354.258l39.142 33.247-27.191-193.09z"/><path fill="#613900" fill-opacity=".349" d="M780.04 652.303l42.268 40.705 4.59-78.823-157.609-1.98z"/><path fill="#1941ba" fill-opacity=".478" d="M554.383 348.035l54.014-125.728-7.092 246.272 136.88-50.016z"/><path fill="#161f1f" fill-opacity=".329" d="M337.86 74.056l16.859 196.594 102.94 76.465-68.388-10.018z"/><path fill="#2349c6" fill-opacity=".757" d="M209.78 641.198l11.454 16.159 44.656 29.136 223.464 117.088z"/><path fill="#1b212b" fill-opacity=".851" d="M577.654 385.985l-54.804 44.006-42.63-62.078-109.78 48.835z"/><path fill="#beb68f" fill-opacity=".361" d="M529.856 136.969l-18.972 129.617-19.943 58.521 1.15-98.632z"/><path fill="#898f87" fill-opacity=".647" d="M591.827 647.535l221.424 58.258-44.536-63.66-166.569 78.972z"/><path fill="#2e3133" fill-opacity=".961" d="M158.132 1012.38l61.6 73.62-73.14-269.546 123.626 46.751z"/><path fill="#fffca0" fill-opacity=".157" d="M-24.16 619.397l17.513-402.163 17.829 210.512 24.429 86.172z"/><path fill="#3a77fe" fill-opacity=".369" d="M572.512 787.487l-14.889 36.406-89.303 15.928 105.875 24.105z"/><path fill="#7c826c" fill-opacity=".463" d="M655.084 807.143l-6.7 114.693L844.92 810.452l-125.693 2.43z"/><path fill="#1c220d" fill-opacity=".22" d="M278.18 591.912l-80.752-114.474-41.944 203.154L222.08 559.28z"/><path fill="#deecf1" fill-opacity=".463" d="M509.751 449.039l-46.598-26.74 46.313.839-27.41 59.042z"/><path fill="#272c0a" fill-opacity=".431" d="M605.918 633.385l18.702-77.936 48.41-7.55 26.945-32.602z"/><path fill="#333737" fill-opacity=".298" d="M36.606 358.678L186.78 173.504l6.285-88.772L83.089-62z"/><path fill="#c4d8d7" fill-opacity=".875" d="M754.062 422.406l2.512 119.122 43.046-42.151-.182-5.661z"/><path fill="#071e5d" fill-opacity=".306" d="M-9.828 527.949l28.322-168.911L48.6 611l73.55-298.345z"/><path fill="#b5c7d9" fill-opacity=".302" d="M351.718 491.074l116.018 4.84L307.257 520.9l-54.736 4.565z"/><path fill="#1c252d" fill-opacity=".655" d="M261.344 234.687l50.715-4.139 19.002-5.084-21.38-53.223z"/><path fill="#f7fed8" fill-opacity=".38" d="M665.548 320.951l14.284 29.062-54.781 12.579 42.62 3.636z"/><path fill="#767e8e" fill-opacity=".494" d="M198.177 969.85L32.095 956.667-62 579.65v429.112z"/><path fill="#e0fce8" fill-opacity=".318" d="M159.858 263.07l-23.008 67.677-9.627-52.805 8.545 6.857z"/><path fill="#8d978a" fill-opacity=".255" d="M205.613 253.656l38.66 3.346 84.453-146.427L122.1-62z"/><path fill="#222326" fill-opacity=".867" d="M450.153 476.68l-17.77-50.479-108.78-53.805-110.805-17.255z"/><path fill="#915a1b" fill-opacity=".427" d="M544.354-23.425L690.708 81.66 898 39.126 883.868-62z"/><path fill="#caf1fd" fill-opacity=".22" d="M384.592 407.046l-20.122-15.383 112.143-28.34-33.864 22.56z"/><path fill="#112148" fill-opacity=".749" d="M315.141 646.586l178.473 89.19-72.377-9.656-65.59-42.616z"/><path fill="#2744af" fill-opacity=".431" d="M313.47 646.758l218.886 36.027-123.599-38.45 124.221 104.143z"/><path fill="#001a38" fill-opacity=".392" d="M622.534 495.163l-63.25 86.154 149.33-130.292-145.346 31.836z"/><path fill="#eafbf6" fill-opacity=".278" d="M234.778 471.54l67.944 21.102-89.34-16.246-73.506-32.489z"/><path fill="#080902" fill-opacity=".42" d="M478.861 616.523l39.443 9.264-19.991-27.708-209.73 3.942z"/><path fill="#021332" fill-opacity=".545" d="M490.714 927.338l-118.682-74.06-95.574-66.032 149.976 84.466z"/><path fill="#b97247" fill-opacity=".416" d="M377.513 44.112l115.262 108.795-98.404.135-60.491 190.73z"/><path fill="#200600" fill-opacity=".243" d="M548.185 172.965l-153.439 11.89-45.026-90.163-35.677 45.41z"/><path fill="#172959" fill-opacity=".69" d="M558.799 271.883l-55.852-5.984 17.991-43.845 38.029 191.131z"/><path fill="#4975cf" fill-opacity=".604" d="M168.158 261.953l163.14-34.246 17.683-5.155-30.74 28.555z"/><path fill="#000700" fill-opacity=".259" d="M430.966 798.153l129.59 26.187-50.518 11.411-177.235-117.154z"/><path fill="#eef3e3" fill-opacity=".133" d="M474.276 8.78l49.134 216.61 5.743-66.701 2.08-54.863z"/><path fill="#898c79" fill-opacity=".314" d="M213.096 560.677l-60.37-111.703-91.477 41.254 33.162 95.517z"/><path fill="#c5dbfd" fill-opacity=".282" d="M282.168 1031.15l-43.073-44.744L152.2 1086l59.092-69.283z"/><path fill="#fff2dd" fill-opacity=".302" d="M23.066 381.492l4.835 25.163 15.067 29.487 15.001-91.725z"/><path fill="#001017" fill-opacity=".196" d="M638.096 817.916L410.728 705.633l226.196 78.772-235.538-15.8z"/><path fill="#132865" fill-opacity=".725" d="M546.355 733.218l-278.6-130.238 204.969 112.866 99.244-51.474z"/><path fill="#2162ff" fill-opacity=".314" d="M771.079 420.777l-47.785 46.449-37.735-121.775 16.161-30.06z"/></svg>