<svg xmlns="http://www.w3.org/2000/svg" width="228" height="278" viewBox="0 0 836 1024"><path fill="#8c8a4c" d="M0 0h836v1024H0z"/><path fill="#062957" fill-opacity=".808" d="M649.926 530.418l-12.935 509.697L868.286 1086l-81.374-467.097z"/><path fill="#f2fb8d" fill-opacity=".604" d="M52.943 153.104l210.64.098 63.572 246.902L-62 706.991z"/><path fill="#eaeb3a" fill-opacity=".604" d="M261.095 567.122l299.839-8.713 73.882 503.504L218.58 1086z"/><path fill="#2d0a09" fill-opacity=".635" d="M506.965 20.492L386.597 465.068l-134.11-360.03L308.522-7.865z"/><path fill="#002458" fill-opacity=".71" d="M243.472 734.835l-27.998 294.931L-17.862 1086l208.483-431.607z"/><path fill="#dddc5b" fill-opacity=".757" d="M375.693 490.783l493.705 62.298-254.017-221.22-154.587-22.419z"/><path fill="#0b1a37" fill-opacity=".592" d="M898 342.792L552.74 262l220.99 213.18 57.935 34.758z"/><path fill="#8ca4b4" fill-opacity=".792" d="M478.74 205.194l323.954 11.176L898 158.328 650.344 12.105z"/><path fill="#bb5200" fill-opacity=".635" d="M268.314-3.194L-62-15.694l41.711 166.653 281.837 42.97z"/><path fill="#fcaa88" fill-opacity=".647" d="M898 673.242L744.649 760.5l17.413 91.75 43.039.544z"/><path fill="#858e08" fill-opacity=".38" d="M773.185 561.294L-19.757 754.592l200-323.1 441.096.07z"/><path fill="#afdded" fill-opacity=".675" d="M-62 680.618l275.522-321.28-275.522.446 108.886 97.142z"/><path fill="#580705" fill-opacity=".431" d="M-15.972 1064.403L26.18 833.53-62 658.004l245.719 39.81z"/><path fill="#fef54d" fill-opacity=".365" d="M230.942 526.225l170.256-33.784-47.76-139.854L-62 94.609z"/><path fill="#d7b033" fill-opacity=".337" d="M630.416 24.17l-20.202 272.02L-62 230.636l489.732-55.949z"/><path fill="#160027" fill-opacity=".322" d="M840.237-62l-888.59 187.647 734.031-82.574L796.24 147.62z"/><path fill="#4e708b" fill-opacity=".741" d="M606.455 578.072l-7.57 292.143 44.826 163.399 16.06-504.342z"/><path fill="#f0e55e" fill-opacity=".82" d="M261.622 837.76l-43.677 112.515 10.441 125.978 273.57-42.503z"/><path fill="#021e38" fill-opacity=".678" d="M812.795 670.576l-158.07 268.347 16.806-234.569L820.724 552.77z"/><path fill="#feff9f" fill-opacity=".439" d="M452.872 297.65l191.056 57.131L898 573.54 481.86 349.546z"/><path fill="#0b2547" fill-opacity=".467" d="M536.3 549.74l14.024-32.275-304.639 1.75 68.041 50.447z"/><path fill="#eac634" fill-opacity=".592" d="M-62 175.908l341.031 131.345-11.997-148.263-99.379-25.515z"/><path fill="#020803" fill-opacity=".525" d="M344.5 15.7l118.287 16.543 15.836 123.686-218.042-65.145z"/><path fill="#f5ffaf" fill-opacity=".349" d="M149.458 635.546L35.226 742.734l101.885-261L-62 653.386z"/><path fill="#226aff" fill-opacity=".204" d="M575.016 23.756l165.717-1.6L680.91 283.88 898 373.77z"/><path fill="#dafdff" fill-opacity=".365" d="M198.703 411.462l-224.704 26.52 128.837-160.217L233.6 363.654z"/><path fill="#959006" fill-opacity=".808" d="M404.174 823.001L337.43 806.86l140.782-28.634 75.496 35.707z"/><path fill="#989401" fill-opacity=".678" d="M120.012 696.386l-38.627-81.152 96.72-186.379 45.572 247.216z"/><path fill="#b6bf3b" d="M402.646 775.384l-160.548-25.99-27.827-113.748 30.918-97.95z"/><path fill="#3d7a87" fill-opacity=".306" d="M-62 431.258l5.206 100.675 136.16 9.027 65.518-103.177z"/><path fill="#fffc6a" fill-opacity=".529" d="M729.214 469.898l-22.81 57.848 78.321 59.327 66.79-67.322z"/><path fill="#02325f" fill-opacity=".98" d="M898 839.21L894.585 1086H624.007l69.453-211.75z"/><path fill="#373749" fill-opacity=".431" d="M823.33 348.79l-98.348 137.462-23.968-171.774 155.42-140.733z"/><path fill="#5f2f0a" fill-opacity=".451" d="M293.89 312.41l163.286 104.865-9.754-193.3-8.952-50.462z"/><path fill="#4c3900" fill-opacity=".392" d="M580.298 520.088l238.148 67.123-123.793 86.728-67.063-260.443z"/><path fill="#8b4b0b" fill-opacity=".988" d="M-62 155.617l210.01-43.599L22.275-62l-57.1 112.632z"/><path fill="#0c626c" fill-opacity=".2" d="M115.395 360.802L50.54 175.294 3.705 366.558l81.78 1.956z"/><path fill="#003456" fill-opacity=".6" d="M-62 686.897l43.055 256.755 34.95-168.303 42.016-81.855z"/><path fill="#9eafd9" fill-opacity=".478" d="M897.895 202.174l-460.756-25.2 344.439-31.936L898-55.022z"/><path fill="#13008a" fill-opacity=".29" d="M545.747 423.022l-34.303 122.316 45.882-16.173-92.174-98.786z"/><path fill="#a39403" fill-opacity=".714" d="M334.5 960.69l129.192-60.066 26.755-49.885 66.688 38.961z"/><path fill="#0a2240" fill-opacity=".396" d="M505.977 284.72l-15.865 27.753 216.482 46.696 55.696-14.613z"/><path fill="#cabd00" fill-opacity=".329" d="M585.291 376.726l28.933 93.65 179.86 179.175-103.392-233.26z"/><path fill="#c8c947" fill-opacity=".843" d="M478.741 543.199L298.291 371.42 352.58 528.1l117.6-170.246z"/><path fill="#ecec8f" fill-opacity=".722" d="M600.55 881.4l51.916 204.6-84.698-175.532 54.636 35.049z"/><path fill="#b3b324" fill-opacity=".675" d="M547.127 508.15l66.029-99.92-11.576 273.25-27.899 226.385z"/><path fill="#21415f" fill-opacity=".776" d="M115.12 1086l131.944-193.249-26.004-143.087L22.962 1006.05z"/><path fill="#f1ff5c" fill-opacity=".322" d="M610.717 26.618L530.375 87.2l62.343 77.909 50.541-32.174z"/><path fill="#faff78" fill-opacity=".412" d="M631.32 328.672L520.467 507.406l67.044-22.965-152.937-138.345z"/><path fill="#f4ff82" fill-opacity=".443" d="M464.75 646.638l-145.477 43.118 119.928-.478 198.62-45.424z"/><path fill="#dcde5f" fill-opacity=".718" d="M215.903 512.466l-35.152 57.849 107.917-81.928 226.679-15.328z"/><path fill="#c4701c" fill-opacity=".667" d="M475.338-62L256.352 46.465l8.456 95.277L105.94 20.772z"/><path fill="#859002" fill-opacity=".494" d="M355.629 708.112l32.09 35.388 110.669-45.702-229.164-15.863z"/><path fill="#a68165" fill-opacity=".525" d="M497.267 123.504l-66.795 104.164 153.993-84.408L442.441-62z"/><path fill="#7f7f02" fill-opacity=".71" d="M549.64 635.563l-15.508 10.384-143.516-24.828 66.858-19.307z"/><path fill="#605700" fill-opacity=".424" d="M605.784 992.949l-117.579.789 63.02-43.658 47.17 24.032z"/><path fill="#ac8262" d="M277.439 244.553l59-15.565-15.662-40.535-44.857 20.843z"/><path fill="#45553d" fill-opacity=".514" d="M235.247 504.716l102.568-28.86 19.045-6.08-87.598-5.168z"/><path fill="#d4af87" fill-opacity=".431" d="M125.613 496.632l-130.461 430.7L-62 970.49 50.36 708.464z"/><path fill="#2a1d00" fill-opacity=".384" d="M90.716 745.065l148.114 12.519-31.341-43.707L59.376 666.53z"/><path fill="#032849" fill-opacity=".659" d="M665.408 949.288l126.73-167.57-43.125 116.398-49.274-350.33z"/><path fill="#181300" fill-opacity=".243" d="M335.483 231.732l-63.416 9.385 122.051 235.685 9.91-109.078z"/><path fill="#c8dcab" fill-opacity=".259" d="M547.313 562.088l-40.32 50.173-153.614-9.582-88.886-35.462z"/><path fill="#c9cb41" fill-opacity=".71" d="M328.19 343.55L119.967 460.978l-9.715 41.808 264.065-145.328z"/><path fill="#ebfe6f" fill-opacity=".333" d="M30.226 566.831L-62 572.334 90.62 673.306l79.578-28.93z"/><path fill="#ffaf97" fill-opacity=".404" d="M740.97 820.236L898 556.666 828.58 637.7l29.35 103.027z"/><path fill="#00aaf6" fill-opacity=".2" d="M712.801 124.211l-55.57 47.435-23.871-111.35 77.435-103.679z"/><path fill="#f0f679" fill-opacity=".639" d="M325.154 794.419l217.167-24.178-261.341 1.714-55.722-53.279z"/><path fill="#865333" fill-opacity=".631" d="M389.386 158.886l42.49 108.626-38.109-173.5-66.18 26.015z"/><path fill="#343900" fill-opacity=".212" d="M172.417 623.842l7.334-142.298-56.277 49.864 220.68 85.412z"/><path fill="#866f11" fill-opacity=".325" d="M603.647 208.986L717.904 297.3l150.215 40.802-369.16-44.806z"/><path fill="#e5e256" fill-opacity=".573" d="M238.407 972.428l4.002-222.82 106.038 131.254 133.008 21.848z"/><path fill="#d4bd24" fill-opacity=".973" d="M281.038 946.144l.009 4.242 171.005 2.876-66.814-28.599z"/><path fill="#051921" fill-opacity=".392" d="M898 517.044v125.092L756.885 355.862l-32.794 87.44z"/><path fill="#4d5938" fill-opacity=".937" d="M301.463 561.053l156.655-55.09 55.28 59.567 30.04-65.48z"/><path fill="#728274" fill-opacity=".933" d="M500.336 495.308l-32.328-36.368 13.412-48.065-1.846 12.29z"/><path fill="#a86b49" fill-opacity=".875" d="M898 808.137l-91.377-172.86 13.861-74.61L898 420.212z"/><path fill="#e7f1ff" fill-opacity=".353" d="M698.737 421.335l52.91 59.123 143.846 90.617-114.87-98.1z"/><path fill="#b7bf44" d="M299.815 522.407l10.449-11.038-4.517 37.09-38.924 303.283z"/><path fill="#f6fd79" fill-opacity=".255" d="M450.944 772.363l146.469 9.326-30.555-102.284-282.847 140.47z"/><path fill="#290420" fill-opacity=".318" d="M898-61.053L748.212 49.67 623.313-62 486.516 46.447z"/><path fill="#6e6a00" fill-opacity=".58" d="M679.507 531.93l-74.838-39.657-20.252 108.432-74.754 5.491z"/><path fill="#d2ae33" fill-opacity=".345" d="M26.574 294.154l1.276 95.19-75.992-238.116 364.13-21.516z"/><path fill="#96a899" fill-opacity=".6" d="M627.566 202.994l32.055-28.287-187.505-27.403 1.427 67.995z"/><path fill="#e6f171" fill-opacity=".463" d="M266.564 815.378L218.08 668.943l328.663 43.364-300.724-57.237z"/><path fill="#cecf48" fill-opacity=".725" d="M430.72 444.069l4.19 135.357-21.64-91.861-76.065 35.488z"/><path fill="#808304" fill-opacity=".494" d="M552.395 654.99l-68.56 42.93 154.592-13.943-40.582 5.334z"/><path fill="#a98897" fill-opacity=".259" d="M652.936 278.75l193.528 3.42L898 567.818 721.032 140.462z"/><path fill="#283611" fill-opacity=".612" d="M258.053 519.984l100.798-20.702-83.946 13.529-1.184 73.691z"/><path fill="#1a3552" fill-opacity=".929" d="M807.571 624.01l4.194 75.447-18.089 17.406-132.893-78.959z"/><path fill="#e8fcfd" fill-opacity=".537" d="M119.164 427.596l109.06-55.927-108.525 2.156-176.857 28.008z"/><path fill="#8e4603" fill-opacity=".314" d="M126.64 798.657l-156.881 282.617 48.037-251.059 195.527-260.894z"/><path fill="#f8f06f" fill-opacity=".631" d="M254.639 1049.73l17.801-57.842-69.675-18.967 278.987-27.298z"/><path fill="#0c1413" fill-opacity=".643" d="M672.644 543.168l50.044 28.537 9.189 40.781-46.583 4.525z"/><path fill="#b9d715" fill-opacity=".369" d="M577.834 221.448l19.997 63.92-130.81-14.451-15.077-40.826z"/><path fill="#c4c34a" d="M335.805 464.441l-111.73-278.993L355.33 517.957l5.643 84.587z"/><path fill="#ba9f03" fill-opacity=".447" d="M375.806 1004.096l208.582-6.01-100.399-26.693 35.87-40.414z"/><path fill="#926762" fill-opacity=".545" d="M739.778 143.458l60.962-3.025 36.967-88.205-79.654 6.07z"/><path fill="#a19c00" fill-opacity=".396" d="M271.854 786.567l132.112 23.216-119.745 43.4L492.4 900.67z"/><path fill="#1b1d16" fill-opacity=".353" d="M30.22 38.959l77.752-93.078L-39.61-24.742-8.7 168.906z"/><path fill="#c2c854" fill-opacity=".996" d="M402.339 529.433l7.057 3.373 1.49 44.914-9.052.845z"/><path fill="#090802" fill-opacity=".561" d="M488.984 84.433l-57.702 83.686 5.272 77.809-28.302-142.486z"/><path fill-opacity=".267" d="M628.25 714.984l6.953 63.769 148.243-39.292 25.678-43.657z"/><path fill="#b16b4c" fill-opacity=".518" d="M22.035 874.053l4.288 195.297L-62 1000.182 86.814 641.884z"/><path fill="#7e8000" fill-opacity=".69" d="M393.633 614.997l-123.152 65.806 135.411-51.454 57.998-13.835z"/><path fill="#e2e45b" fill-opacity=".608" d="M467.547 881.753l-126.194-66.614 234.974 54.626-97.178-75.974z"/><path fill="#feef62" fill-opacity=".337" d="M87.247 376.415l189.367-152.76L324.8 387.75l21.328-36.442z"/><path fill="#6bd1ff" fill-opacity=".173" d="M89.683 273.528l16.477 122.559-12.112 206.125-64.905-303.847z"/><path fill="#954a65" fill-opacity=".259" d="M625.778 207.868l265.008-15.011L689.043 321.63l-53-44.278z"/><path fill="#627c82" fill-opacity=".384" d="M608.39 582.439l24.438-64.878 43.456 133.611-86.606 268.96z"/><path fill="#00143d" fill-opacity=".31" d="M263.523 516.724l81.653 36.817 77.491-54.47-162.25 69.604z"/><path fill="#9f9205" fill-opacity=".388" d="M569.99 873.112l-58.436-66.19 79.618 5.215 5.666 116.847z"/><path fill="#a6560b" fill-opacity=".498" d="M167.462 152.755L32.64 131.52 50.05-29.064l208.494 131.627z"/><path fill="#bfbd6f" fill-opacity=".761" d="M499.408 535.633l84.083-211.02-58.419 136.263-28.477 17.111z"/><path fill="#e8e86c" fill-opacity=".976" d="M447.693 354.864l179.089 12.699-65.435 82.047-91.455-158.251z"/><path fill="#946a05" fill-opacity=".525" d="M433.174 327.387l-120.459 90.71 46.297-63.309 116.987 42.258z"/><path fill="#d26c97" fill-opacity=".196" d="M489.614 139.738L350.596 200.78l-84.592-95.138 79.834 133.25z"/><path fill="#e9edb5" fill-opacity=".651" d="M623.143 334.577l87.555 86.02-75.07-56.476-74.492-30.266z"/><path fill="#0d0500" fill-opacity=".459" d="M368.228 200.335L263.958 54.911l79.128 35.366-20.292 92.002z"/><path fill="#d9e256" fill-opacity=".396" d="M379.806 450.537l-154.711 31.147 88.312-161.92 69.309 253.051z"/></svg>