<svg xmlns="http://www.w3.org/2000/svg" width="228" height="278" viewBox="0 0 836 1024"><path fill="#70865f" d="M0 0h836v1024H0z"/><g fill-opacity=".502"><path fill="#fff" d="M270 206L102-62l12 876z"/><path fill="#550021" d="M898 718L834-62 418 2z"/><path fill="#9effa5" d="M-62 694l860-224-352-216z"/><path fill="#0ab623" d="M646 1086l16-632L54 810z"/><path fill="#fff" d="M138 1086L86 866h188z"/><path fill="#9a2736" d="M226 382l544-140L238-62z"/><path fill="#320016" d="M-62 62L102-62 62 602z"/><path fill="#e7ecfe" d="M-62 534l252 264 4-268z"/><path fill="#2a0009" d="M622 602l12 484 192-48z"/><path fill="#b6ffbc" d="M714 902l104-136-168-420z"/><path fill="#fff6fc" d="M90-62h152l-68 576z"/><path fill="#320012" d="M122 798l-48 288-136-424z"/><path fill="#7fff8c" d="M618 342l-424 64 152 380z"/><path fill="#eca57f" d="M330 198l368 4L330 38z"/><path fill="#006308" d="M298 626L198 454l44 476z"/><path fill="#3c0010" d="M838 918l-92-540 152-92z"/><path fill="#32051e" d="M230-62l4 472 136-88z"/><path fill="#ffecff" d="M694 738l-36-80 140-48z"/><path fill="#2e192f" d="M-58 318l192 368L10-62z"/><path fill="#e6effb" d="M-62 518l212 24-212 260z"/><path fill="#ffeef8" d="M238 1086L58 878l164-16z"/><path fill="#43cd4d" d="M650 806l-408 280 32-436z"/><path fill="#6a0f28" d="M574 1014l256 72 68-312z"/><path fill="#003d05" d="M682 830L574 618l52-180z"/><path fill="#e2ffee" d="M686 386l24 96-200-176z"/><path fill="#fff" d="M690 962l52 12-52-52z"/><path fill="#120f0c" d="M746-58L706 54 322 42z"/><path fill="#051600" d="M-62 742l336 116-300 4z"/><path fill="#fff7ef" d="M606 942l-48 40 88-20z"/><path fill="#6b2f32" d="M734 406L522 302 446-46z"/><path fill="#f0e6e8" d="M98 550l20-428 124 296z"/><path fill="#168379" d="M158 626L78 522l-40 64z"/><path fill="#2dd23f" d="M802 674l8 172-136-100z"/><path fill="#ffd4a8" d="M390 38l-72 80 168-28z"/><path fill="#c27a48" d="M394 386l76-448 52 376z"/><path fill="#aa98a4" d="M730 330l4-272-44 144z"/><path fill="#a0e0a3" d="M538 654l-260 60 56-108z"/><path fill="#fff" d="M414 434l-72-76-52 24z"/><path fill="#ff91f3" d="M438 502l68 64 20-88z"/><path fill="#219629" d="M330 1086l276-88-372-148z"/></g></svg>