<svg xmlns="http://www.w3.org/2000/svg" width="228" height="278" viewBox="0 0 836 1024"><path fill="#3f2d42" d="M0 0h836v1024H0z"/><path fill="#e4a479" fill-opacity=".729" d="M336.591 443.996l133.355-85.782-33.131-300.749-91.572-22.446z"/><path fill="#edb4b3" fill-opacity=".451" d="M648.329 766.481L499.31 608.373l-252.585 34.195L584.42 838.401z"/><path fill="#120d29" fill-opacity=".843" d="M811.318 1086L514.646 541.515l-59.37-491.1L898-10.02z"/><path fill="#a3907d" fill-opacity=".592" d="M-62 944.237l279.677-271.6 23.814 102.323L176.459 1086z"/><path fill="#fff7f9" fill-opacity=".165" d="M69.964 666.026l82.12-723.693L491.717 656.21 451.3 243.297z"/><path fill="#280027" fill-opacity=".58" d="M404.84 677.753L226.934 794.33 272.76 1086l295.49-439.294z"/><path fill="#201966" fill-opacity=".906" d="M669.688 622.674l-107.51-334.15 249.037 365.149L562.8 1086z"/><path fill="#000143" fill-opacity=".69" d="M-62 600.48L32.803-62 152.53 717.205 279.206 353.06z"/><path fill="#c9d6d6" fill-opacity=".396" d="M559.104 611.526l-160.055 91.01-116.488 8.32-32.647-71.197z"/><path fill="#150e06" fill-opacity=".506" d="M887.693 12.57L898 542.992 361.312 251.686l-75.178 108.816z"/><path fill="#fdebd2" fill-opacity=".584" d="M47.832 655.885l67.146-144.773 9.525 21.537-11.757 60.965z"/><path fill="#ba805f" fill-opacity=".565" d="M493.243 191.233L332.672 42.17l-74.206 210.716 147.254 35.045z"/><path fill="#ffb586" fill-opacity=".678" d="M542.084 795.249l93.346 13.96-33.324-102.657-40.166-.739z"/><path fill="#d49e80" fill-opacity=".839" d="M342.39 439.782l145.032-103.033-65.124-71.53L301.032 410.16z"/><path fill="#010019" fill-opacity=".718" d="M198.179 562.852l112.883 73.039L-62 729.649l146.475 92.535z"/><path fill="#0c020c" fill-opacity=".612" d="M898 1023.058L832.978 717.62l-146.695 78.978L620.681 1086z"/><path fill="#28198c" fill-opacity=".408" d="M388.5 437.519l69.228-117.259 183.357 80.733 165.173 228.61z"/><path fill="#fea64a" fill-opacity=".459" d="M494.169 484.378l-68.925-13.628-26.177 57.324 44.892 31.293z"/><path fill="#120c02" fill-opacity=".824" d="M294.859 136.652L336.436-62l-97.79 129.284 47.052 121.771z"/><path fill="#120b02" fill-opacity=".82" d="M472.768 87.062l31.14 216.332 187.417-199.447-366.06-100.52z"/><path fill="#0c0938" fill-opacity=".969" d="M-62 571.763l123.619 36.169L91.356-21.265-37.494-7.923z"/><path fill="#777c68" fill-opacity=".353" d="M247.583-29.727L125.153-62 72.89 468.955l216.436-108.683z"/><path fill="#180a58" fill-opacity=".624" d="M473.611 874.679l15.665 177.4 246.196-36.952-136.9-192.631z"/><path fill="#0b0438" fill-opacity=".639" d="M655.29 742.841L445.202 561.183l186.325-83.347 116.179 114.496z"/><path fill="#6c163c" fill-opacity=".663" d="M495.071 374.831l-227.06 82.274 94.57 217.252 73.04-268.374z"/><path fill="#252087" fill-opacity=".749" d="M167 594.626l-22.299-86.448-75.563 196.868 35.938 40.903z"/><path fill="#2c2895" fill-opacity=".702" d="M813.499 728.661l-179.05 37.892-21.638-45.998 197.97-79.533z"/><path fill="#74686d" fill-opacity=".957" d="M-62 655.559L11.68 1086l180.107-440.168-49.97 337.048z"/><path fill="#49041f" fill-opacity=".498" d="M815.153 1064.086l-521.349 4.583 100.262-421.605L588.107 1086z"/><path fill="#463d2a" fill-opacity=".557" d="M450.143 31.862L232.928 13.46 775.506-62 748.51 150.294z"/><path fill="#d39a80" fill-opacity=".98" d="M357.033 118.89l-40.305 29.566 95.817 81.106 75.87-22.338z"/><path fill="#af7435" fill-opacity=".839" d="M191.01 1040.713l11.423-124.588-55.263-20.466L149.822 1086z"/><path fill="#12092e" fill-opacity=".78" d="M187.16 1038.589L375.665 1086l-188.18-485.89 126.33 133.194z"/><path fill="#c58771" fill-opacity=".992" d="M457.93 793.29l140.804-81.483-138.012 37.265 153.163 21.464z"/><path fill="#fdf1e8" fill-opacity=".447" d="M427.884 682.45l-119.48 17.308-48.317-38.838 42.875 61.067z"/><path fill="#3d1f53" fill-opacity=".984" d="M511.259 624.765l-79.412 134.487 129.886-42.006-75.2-75.245z"/><path fill="#734c4c" fill-opacity=".992" d="M23.97 598.048l-25.6 31.127 69.378 73.51 31.061-56.507z"/><path fill="#efba98" fill-opacity=".976" d="M371.334 319.195l76.978-58.07.157 80.787-28.916 43.975z"/><path fill="#0e0906" fill-opacity=".816" d="M463.09 330.741l149.358-288.69-35.169 21.88-127.848 187.892z"/><path fill="#6d4839" fill-opacity=".839" d="M386.146 146.192l-27.3-40.713 19.146-20.576 57.997 26.267z"/><path fill="#4d3546" fill-opacity=".984" d="M316.614 682.998l125.856-1.906 16.99-12.89-218.924 43.756z"/><path fill="#2d1600" fill-opacity=".478" d="M289.393 258.066l31.282 90.947 151.046-158.975-74.104 103.046z"/><path fill="#0e0700" fill-opacity=".835" d="M61.407 695.945l-86.155-70.31L-62 678.783 46.4 809.557z"/><path fill="#281463" fill-opacity=".702" d="M185.68 570.557L166.908 409.35l108.29-40.977 13 142.678z"/><path fill="#3d2017" fill-opacity=".808" d="M300.27 216.948l-13.953-17.455 83.179 12.901-11.839 11.43z"/><path fill="#4e182d" fill-opacity=".98" d="M459.44 766.533l-91.717-71.827-20.258 138.952 232.473-94.85z"/><path fill="#f0d663" fill-opacity=".557" d="M261.267 558.622l52.506-41.325-56.49 36.026-36.498 13.451z"/><path fill="#140b31" fill-opacity=".886" d="M614.803 720.056l-90.741-61.444-13.816-93.67 243.096 67.828z"/><path fill="#d8967b" fill-opacity=".58" d="M519.116 862.263l117.903-76.38-165.936 29.235 163.49-64.176z"/><path fill="#76696f" fill-opacity=".969" d="M161.639 694.592l49.167-42.948 31.378 201.99L38 964.019z"/><path fill="#fead74" fill-opacity=".427" d="M447.953 104.25l17.49-15.735L404.4 45.89l-95.175 29.482z"/><path fill="#a46840" fill-opacity=".553" d="M281.432 403.925l-3.737-74.714 90.952 22.133 8.828 57.591z"/><path fill="#ffcaab" fill-opacity=".404" d="M631.825 743.145l-15.685 50.798L475.402 593.06l74.026 83.795z"/><path fill="#08070f" fill-opacity=".706" d="M898 570.999L697.14 1086l121.587-404.572L679.43 391.382z"/><path fill="#571904" fill-opacity=".533" d="M793.83 862.093l-1.56 158.961L821.587 1086 898 868.081z"/><path fill="#d3d8dd" fill-opacity=".475" d="M456.516 620.714L520.88 606.3l-72.618 47.943-62.857-39.19z"/><path fill="#3f1740" fill-opacity=".808" d="M420.41 538.306l86.598 61.979-69.133 11.44-22.988 55.218z"/><path fill="#020208" fill-opacity=".725" d="M229.532 601.902L108.464 768.23l89.106-200.47 60.853 251.924z"/><path fill="#210e2b" fill-opacity=".812" d="M228.141 937.058l15.398-206.293 105.434-25.406 38.332-11.047z"/><path fill="#e1a634" fill-opacity=".749" d="M406.157 525.57l57.217-50.287 14.726 4.323 7.385 32.579z"/><path fill="#050300" fill-opacity=".384" d="M417.488 282.69L464.87 79.054l160.82 142.655-160.82-64.553z"/><path fill="#582c39" fill-opacity=".953" d="M549.227 789.542l14.424-8.348-8.495-7.202-163.183 51.063z"/><path fill="#531c39" fill-opacity=".984" d="M362.242 565.027l-38.365 90.37-39.123-327.6 88 348.92z"/><path fill="#1e1e7c" fill-opacity=".478" d="M480.546 460.782L539.094 346.5l168.291 123.35-220.18 79.644z"/><path fill="#7c86f8" fill-opacity=".161" d="M606.35 357.128l89.939 164.469 108.248 198.915 3.002-78.466z"/><path fill="#ffbe93" fill-opacity=".263" d="M501.824 163.618l-56.6 97.083 11.015-160.505-77.36 76.267z"/><path fill="#fffae3" fill-opacity=".443" d="M128.085 518.027l-17.02 69.767-17.359 34.972-26.889-5.238z"/><path fill="#fefff4" fill-opacity=".353" d="M484.403 621.552L331.45 646.309l17.703 40.845-82.486-43.723z"/><path fill="#231e51" fill-opacity=".561" d="M104.085 519.392l159.444 28.05L-62 398.98 74.72 615.836z"/><path fill="#120500" fill-opacity=".447" d="M320.058 133.898l-81.262-29.139 15.613-59.157 89.15 48.705z"/><path fill="#07000f" fill-opacity=".694" d="M543.445 977.158L178.208 1086l308.503-111.099L578.266 1086z"/><path fill="#57072a" fill-opacity=".863" d="M620.022 809.82l8.5 57.735 20.142.726 5.342-74.733z"/><path fill="#696163" fill-opacity=".545" d="M307.688 280.28L105.225 488.102l-31.58 13.77L203.79-22.536z"/><path fill="#e2a07e" fill-opacity=".643" d="M632.556 778.545l-4.092 30.728-90.48 26.493-10.892 1.754z"/><path fill="#36285a" fill-opacity=".973" d="M512.702 724.765L503.15 624.63l-8.351-1.491-8.06 6.356z"/><path fill="#261a16" fill-opacity=".741" d="M621.752 238.051l-178.78-14.785 174.008 171.88 51.964-102.226z"/><path fill="#090821" fill-opacity=".667" d="M670.314 435.494L647.903 183.17l170.756-80.539-45.733 486.85z"/><path fill="#251c68" fill-opacity=".906" d="M624.898 809.438l-39.516 22.718-57.278 8.525 86.607 213.106z"/><path fill="#b2a6a7" d="M290.934 702.497l29.382-76.269 4.644 4.54-14.716-13.512z"/><path fill="#30237b" fill-opacity=".537" d="M569.131 572.501l49.977 113.324-120.677-156.519-74.172-16.096z"/><path fill="#050002" fill-opacity=".655" d="M567.529 520.691l13.588 41.757 61.965 109.458 62.341-21.147z"/><path fill="#fea763" fill-opacity=".373" d="M417.405 55.182L338.273 35.01l-35.157 39.682 80.877 10.236z"/><path fill="#38092b" fill-opacity=".706" d="M309.304 563.953l-84.313 64.306 289.29-29.058-50.24 22.404z"/><path fill="#512759" fill-opacity=".988" d="M392.662 499.25l65.086-162.46-55.965 76.602 16.564 216.12z"/><path fill="#f7fff6" fill-opacity=".251" d="M379.989 602.457l97.498 60.978-273.845 34.48 232.533-44.7z"/><path fill="#75696e" fill-opacity=".827" d="M224.48 736.415l13.963 74.723L44.93 1047.922l-7.62-220.384z"/><path fill="#251912" fill-opacity=".859" d="M476.19 27.756L276.411 8.804l-16.234 24.119 263.318 15.383z"/><path fill="#ffbc9d" fill-opacity=".353" d="M317.683 192.541l101.46 40.467L299.864 95.183l114.26 66.182z"/><path fill="#fbb095" fill-opacity=".412" d="M588.051 713.005l-23.74 25.635-124.834 32.831 56.713-32.058z"/><path fill="#1e1962" fill-opacity=".843" d="M514.856 585.756l71.998 95.96-63.826-21.385.081 17.152z"/><path fill="#fec434" fill-opacity=".325" d="M456.444 385.658l-42.505-117.354 34.164 94.876 54.77-73.785z"/><path fill="#431639" fill-opacity=".686" d="M599.005 789.456l-2.88 6.485-212.966 126.152-196.76 20.866z"/><path fill="#dfd3f6" fill-opacity=".047" d="M557.69 389.874l74.462-238.004L746.368 21.792 578.156 474.055z"/><path fill="#edffff" fill-opacity=".322" d="M520.399 659.519l-4.21-70.451-37.36 75.541-4.14-60.88z"/><path fill="#63213c" fill-opacity=".494" d="M403.017 494.387L245.245 648.922 467.046 503.79 324.665 687.05z"/><path fill="#682d97" fill-opacity=".196" d="M550.452 945.232l-91.117 44.512-11.167-105.516 109.744-42.762z"/><path fill="#120006" fill-opacity=".529" d="M364.743 975.332l145.85-22.555-318.341.348 164.378-31.888z"/><path fill="#0b0905" fill-opacity=".404" d="M553.905 2.082l211.289 20.964 31.238 384.221L898-62z"/><path fill="#fcad82" fill-opacity=".416" d="M544.988 809.445l46.423-39.388-72.114 29.627-50.454 21.462z"/><path fill="#2a1300" fill-opacity=".478" d="M352.407 349.337L312.39 330.62l-2.95-30.023-22.134-97.594z"/><path fill="#16103f" fill-opacity=".439" d="M74.526 428.476l-26.63 241.398 60.32-46.95-78.192 4.74z"/><path fill="#e5cfbd" fill-opacity=".918" d="M118.36 530.41l-10.089-14.477-8.257 22.064-20.393 88.32z"/><path fill="#370f03" fill-opacity=".435" d="M323.133 163.823l.71-.857-10.815 30.884 51.692-18.014z"/><path fill="#ea9f8d" fill-opacity=".49" d="M51.218 681.815l19.769-8.43 11.944-10.424L93.6 633.27z"/><path fill="#170a3f" fill-opacity=".482" d="M448.274 559.587l141.77 54.5-117.376-5.35 6.807 60.672z"/><path fill="#ffe351" fill-opacity=".506" d="M253.276 561.733l-13.214-2.003-6.674-3.394 55.717-16.291z"/><path fill="#fab795" fill-opacity=".522" d="M595.34 736.543l34.96 9.2-102.568 30.54-72.48 13.708z"/><path fill="#040302" fill-opacity=".702" d="M450.81 281.227l5.373-55.211 74.087-22.797 116.42-7.125z"/><path fill="#fffefc" fill-opacity=".365" d="M271.57 706.768l14.012 1.592 3.784 9.105 179.247-41.06z"/><path fill="#820900" fill-opacity=".271" d="M422.848 898.218L358.54 691.076l42.921 355.976L428.574 1086z"/><path fill="#09052a" fill-opacity=".659" d="M730.063 936.267l-7.08-78.879-237.102 141.433 78-66.504z"/><path fill="#080009" fill-opacity=".553" d="M258.559 959.717l259.764-69.246-57.504 39.678-81.4-15.516z"/><path fill="#746970" fill-opacity=".965" d="M143.053 722.543l62.75-80.943-5.657 168.982-72.382 11.753z"/><path fill="#6e1b2c" fill-opacity=".922" d="M366.183 672.662l7.785-228.17-25.21-17.85-14.004 101.385z"/><path fill="#421810" fill-opacity=".537" d="M811.993 537.992l-1.173-115.095 17.179-175.922L898 483.94z"/><path fill="#da9253" fill-opacity=".412" d="M-62 623.528l85.034 36.353 39.96-54.098-8.322 41.303z"/><path fill="#b39328" fill-opacity=".863" d="M179.832 957.786l29.123 102.688 627.504 22.534-684.03-58.167z"/><path fill="#262841" fill-opacity=".369" d="M72.204 124.832L96.844-62l22.14 497.03-54.405 79.213z"/><path fill="#090017" fill-opacity=".349" d="M179.274 547.277l159.4 53.385-72.356 48.03-8.734 143.377z"/><path fill="#ffc8a2" fill-opacity=".337" d="M358.168 419.3l92.949-68.743-109.604 85.052-35.894-107.262z"/></svg>