<svg xmlns="http://www.w3.org/2000/svg" width="228" height="278" viewBox="0 0 836 1024"><path fill="#6d4c52" d="M0 0h836v1024H0z"/><path fill="#c69a93" fill-opacity=".824" d="M304.185-50.144L252.672 298.67l-150.606 53.325L59.605-19.217z"/><path fill="#141327" fill-opacity=".498" d="M-34.761 581.682l801.922-44.364-188.87-319.804-439.36 117.445z"/><path fill="#ceb1ad" fill-opacity=".788" d="M697.366 126.916L691.664-62 863.52 91.757 725.67 258.641z"/><path fill="#c1a5a6" d="M581.789 606.776l-234.343 66.489-41.89-65.93 264.243-66.026z"/><path fill="#460010" fill-opacity=".529" d="M654.168 491.07L265.076 996.671l101.308 75.936L768.47 1086z"/><path fill="#e7c693" fill-opacity=".627" d="M686.661 627.846l140.23-151.94 31.864 286.462-148.821-57.687z"/><path fill="#b36152" fill-opacity=".757" d="M-62 81.232l495.231 53.49 20.342 58.789-44.245 167.642z"/><path fill="#e21d26" fill-opacity=".733" d="M272.212 669.604l33.656 16.755 49.048 273.544-53.5 38.813z"/><path fill="#010f00" fill-opacity=".478" d="M394.121-43.645l97.676 132.178-9.988 116.052L282.48 63.912z"/><path fill="#cf2528" fill-opacity=".659" d="M579.836 1000.053L479.008 713.15l-26.493-183.954L601.59 884.803z"/><path fill="#da2227" fill-opacity=".565" d="M430.867 945.037l86.475 85.566-151.164-466.812-10.989 155.791z"/><path fill="#dc1923" fill-opacity=".741" d="M636.89 347.685l-14.384-54.169L889.85 392.57l-86.613 31.228z"/><path fill="#eef1e9" fill-opacity=".478" d="M75.013-62l255.205 46.481-42.092 83.448-189.953 51.624z"/><path fill="#fd1a1d" fill-opacity=".561" d="M603.563 598.984l3.333 202.083L709.49 950.406l-19.303-95.497z"/><path fill="#d8cfdb" fill-opacity=".529" d="M509.839 360.884l47.31 40.4-41.919 65.406-40.027-98.543z"/><path fill="#495e64" fill-opacity=".655" d="M-16.803 1086l-33.57-538.325 257.134-20.584 115.42 511.681z"/><path fill="#031c2e" fill-opacity=".663" d="M727.021 968.69L476.56 951.56l-356.391 125.893L758.645 1086z"/><path fill="#ddf5fe" fill-opacity=".592" d="M48.216 402.428l3.764 56.243L-62 516l83.06-115.917z"/><path fill="#b8b7b7" fill-opacity=".659" d="M440.606 715.473l-140.224-7.82 250.674-44.618-13.933 18.144z"/><path fill="#d6e2df" fill-opacity=".624" d="M346.366 463.578l-106.035 1.047-4.544 21.866 78.533 3.197z"/><path fill="#c04558" fill-opacity=".62" d="M701.015-62L434.298-20.485l91.852 175.602 174.018-20.734z"/><path fill="#c10303" fill-opacity=".624" d="M122.164 420.584L-62 561.29l183.429-57.68 27.123-82.738z"/><path fill="#2c273c" fill-opacity=".984" d="M449.872 1084.598l-74.669-112.87-82.654-311.124 90.629 115.947z"/><path fill="#e73233" fill-opacity=".533" d="M27.382-61.749l-86.853 243.745 400.442-38.842-253.907-31.3z"/><path fill="#7378a1" fill-opacity=".8" d="M172.02 811.342l49.39 82.756-43.22 159.618-63.38-168.006z"/><path fill="#ff0203" fill-opacity=".443" d="M648.525 396.723L591.173 573.56 569.6 447.22l16.61-11.599z"/><path fill="#011427" fill-opacity=".392" d="M629.75 222.303L259.143 621.516l188.671-387.135L898 380.795z"/><path fill="#0c2c35" fill-opacity=".522" d="M649.21 696.945L813.03 408.87l-155.99-23.283-59.212 181.085z"/><path fill="#192031" fill-opacity=".765" d="M562.328 1064.076l-83.78-368.173-66.862 23.709 77.041 189.873z"/><path fill="#8e6f73" fill-opacity=".565" d="M482.115 152.082L673.37 264.473l41.228 78.893L898 127.525z"/><path fill="#351d29" fill-opacity=".988" d="M305.697 542.779l16.45 89.029L124.39 504.17l15.471-71.621z"/><path fill="#006673" fill-opacity=".243" d="M887.689 778.638l-33.35 288.09L770.87 1086l-149.3-451.507z"/><path fill="#d3eed7" fill-opacity=".369" d="M504.553 239.107L484.515 70.655 389.99-62h114.83z"/><path fill="#010325" fill-opacity=".42" d="M225.897 774.554L314.451 1086l-40.509-369.852-44.034-114.008z"/><path fill="#2c2232" fill-opacity=".969" d="M575.292 850.01l134.757 206.661-105.277-271.757-87.695-234.02z"/><path fill="#789798" fill-opacity=".349" d="M290.131 289.78L1.075 358.956l-5.841-188.373 247.357 6.105z"/><path fill="#e8ac8f" fill-opacity=".447" d="M440.936 139.816L314.834 256.558l88.802 7.744-91.966-149.833z"/><path fill="#d71b21" fill-opacity=".608" d="M353.096 880.687L239.618 532.3l-30.341-12.28 125.257 400.92z"/><path fill="#292518" fill-opacity=".549" d="M326.394 40.776l-59.11 36.119 19.133 88.034 19.158 55.386z"/><path fill="#8996db" fill-opacity=".329" d="M772.787 1050.122L898 1012.37 747.185 847.398l-.86 63.124z"/><path fill="#b3fec6" fill-opacity=".486" d="M810.313 583.403l-16.211 140.674L898 822.098l-55.347-272.135z"/><path fill="#d5fefa" fill-opacity=".435" d="M103.84 354.761l-49.98 63.903 13.432-18.705-7.996 65.391z"/><path fill="#e6fefc" fill-opacity=".498" d="M454.492 650.791l-40.863-1.015-47.671-62.224 97.115-10.045z"/><path fill="#262336" fill-opacity=".82" d="M389.49 595.339L318.944 398.77l282.464 82.219 57.255-48.253z"/><path fill="#7b2228" fill-opacity=".961" d="M432.31 582.35l79.77-90.353 37.398 159.05-40.564-100.715z"/><path fill="#242d45" fill-opacity=".796" d="M170.802 461.642l134.767 7.012 2.664-207.082-189.645 111.454z"/><path fill="#b31f25" fill-opacity=".945" d="M470.472 659.256l25.817 131.04 89.447 177.47 39.7-5.837z"/><path fill="#0f0514" fill-opacity=".514" d="M387.288 671.33l87.588 9.488-8.246-88.984-16.758 56.513z"/><path fill="#c6282e" fill-opacity=".804" d="M482.161 966.966L357.808 588.813l51.46 55.27 6.123 303.05z"/><path fill="#e3fffe" fill-opacity=".549" d="M270.84 574.932l31.316 69.91 24.798 20.087-27.157 1.657z"/><path fill="#fbf2e8" fill-opacity=".357" d="M898 101.293L768.874 53.367 711.811-62l6.335 193.114z"/><path fill="#868e78" fill-opacity=".608" d="M135.782 753.578L-62 729.962l72.343-52.844 149.258 28.79z"/><path fill="#252306" fill-opacity=".22" d="M72.096 937.69l216.052-227.25L-62 779.53v180.248z"/><path fill="#e9cdcc" fill-opacity=".773" d="M480.905 632.109l.47-80.425 41.664 77.16-12.781 9.013z"/><path fill="#9c654d" fill-opacity=".973" d="M898 330.44l-26.24 216.4-64.493 24.099-30.121-46.255z"/><path fill="#854e3c" d="M332.151 241.189l-39.587-16.125 28.144 125.094 36.9 17.083z"/><path fill="#cf080c" fill-opacity=".639" d="M316.782 584.492l-1.134-31.35L398 571.902l-73.126 28.173z"/><path fill="#f0fcff" fill-opacity=".435" d="M475.201 389.922l16.343 48.118 35.031-9.112L527.847 405z"/><path fill="#141c28" fill-opacity=".725" d="M593.878 633.557l-36.53-43.843-5.637 71.395 27.044 197.446z"/><path fill="#deffff" fill-opacity=".498" d="M534.71 617.762l38.107-23.171-8.944-71.688-28.721 26.363z"/><path fill="#f1fbf8" fill-opacity=".447" d="M328.455 598.66l24.949-1.587 30.483 69.857-54.053.988z"/><path fill="#d42630" fill-opacity=".722" d="M616.222 346.993l166.515 2.241L898 372.094l-216.738 12.6z"/><path fill-opacity=".157" d="M515.69 421.123L721.2 728.642 898 822.185l-192.722 60.327z"/><path fill="#e7fef4" fill-opacity=".176" d="M341.645 723.83l-9.52-20.883 259.421-56.978-80.276 55.414z"/><path fill="#c14a5f" fill-opacity=".722" d="M898 69.55L775.327 46.725l-17.293-80.738L898 3.575z"/><path fill="#f0d5be" fill-opacity=".133" d="M618.245 228.089L24.08 285.623 535.34 184.93l249.55 181.883z"/><path fill="#f2100f" fill-opacity=".412" d="M555.432 663.35l-65.018-28.863 81.305 170.34-55.665-172.814z"/><path fill="#d22830" fill-opacity=".631" d="M614.633 826.075l98.21 101.172-18.91-100.253-88.68-31.78z"/><path fill="#24304c" fill-opacity=".694" d="M679.622 411.107L551.553 242.19l-20.542-5.18 12.496 183.013z"/><path fill="#8e95de" fill-opacity=".235" d="M308.73 1086l-73.754-220.398-135.453-7.74 113.337 92.661z"/><path fill="#090e06" fill-opacity=".337" d="M380.515 201.429l105.692 18.033-82.742-268.028 85.462 213.468z"/><path fill="#191823" fill-opacity=".8" d="M479.114 239.264l138.94-.4 14.072 13.216-251.813 143.584z"/><path fill="#212435" fill-opacity=".765" d="M561.026 944.652l-64.803 83.826-11.099-158.928-63.63-232.574z"/><path fill="#131f30" fill-opacity=".627" d="M307.598 493.304l24.05 176.64L183.67 438.461l-94.316 94.652z"/><path fill="#df3329" fill-opacity=".525" d="M280.338 110.982l-36.125-11.337-110.215 26.23 138.803 46.492z"/><path fill="#212d48" fill-opacity=".702" d="M816.576 304.972l27.834 31.15-109.693 5.853-26.558-49.265z"/><path fill="#190000" fill-opacity=".431" d="M693.76 386.431l55.144 6.853-39.038 17.993-217.748 150.765z"/><path fill="#e78170" fill-opacity=".431" d="M727.034 725.006l-37.05-57.523 58.34-131.745 67.778-4.608z"/><path fill="#c61b21" fill-opacity=".62" d="M357.536 719.223l14.59-14.656L463.93 819.43l-19.9 139.503z"/><path fill="#3b3d42" fill-opacity=".976" d="M702.714 604.331l181.184-365.65-70.646 163.793-173.393 59.814z"/><path fill="#41231c" fill-opacity=".8" d="M402.739 423.2l-50.003-70.085 52.703-19.72 93.365-189.65z"/><path fill="#141824" fill-opacity=".808" d="M536.767 525.886l-39.229-30.268 74.454-88.825 3.145 136.611z"/><path fill="#ad1b21" fill-opacity=".918" d="M44.72 545.344l-50.386-35.756-38.403 4.618 152.034-49.633z"/><path fill="#181924" fill-opacity=".957" d="M702.38 949.828l-178.251 58.28 205.891 75.546 4.4-200.425z"/><path fill="#dffbfb" fill-opacity=".404" d="M57.986 427.195l40.463-66.985-18.617 69.323-3.34-59.71z"/><path fill="#a5a99e" fill-opacity=".706" d="M289.707 277.302l-126.736 54.75-45.073-52.05 113.522-35.11z"/><path fill="#9d0925" fill-opacity=".278" d="M508.882-14.81l12.32 97.639 160.51 48.687 11.014-192.95z"/><path fill="#fd1112" fill-opacity=".294" d="M576.778 460.659l1.865-6.273 54.143-64.372-41.534 239.641z"/><path fill="#9b6064" fill-opacity=".514" d="M125.382 350.42L-62 169.582l182.466-17.077-26.942 83.1z"/><path fill="#741c21" fill-opacity=".965" d="M280.026 616.806l10.736 53.377-91.815-168.976-1.43 54.673z"/><path fill="#ced1d2" fill-opacity=".925" d="M552.806 547.12l-26.386-1.231 44.14 55.066 18.38.854z"/><path fill="#565c5d" fill-opacity=".51" d="M25.544 237.686l110.451 102.196-113.989 57.28L-62 695.037z"/><path fill="#0b1c2f" fill-opacity=".424" d="M575.998 1086l60.882-10.994-25.785-174.56 86.292-41.402z"/><path fill="#001426" fill-opacity=".318" d="M263.682 309.782L33.362 484.52l79.104-126.609 13.756-22.326z"/><path fill="#c4191c" fill-opacity=".557" d="M614.068 801.605l-28.736-145.56 38.818-24.43 19.17 109.32z"/><path fill="#e8e8e3" fill-opacity=".357" d="M381.784 682.326l25.686 33.861-77.203-34.877.787 33.415z"/><path fill="#24283c" fill-opacity=".961" d="M494.64 324.88l35.2-61.887L286.814 544.78l159.13 34.337z"/><path fill="#2f1622" fill-opacity=".706" d="M369.596 687.986l-90.427-28.63 23.117 41.183 58.488-19.514z"/><path fill="#f2fefb" fill-opacity=".271" d="M242.567 473.316l127.656 6.367-147.058 8.681 31.25-55.93z"/><path fill="#b7a29c" fill-opacity=".502" d="M290.71 22.818L420.57-1.485 225.277-7.793l-63.998 22.4z"/><path fill="#200" fill-opacity=".514" d="M562.607 855.781L639.02 472.47l2.397-64.528-38.664 150.924z"/><path fill="#c10406" fill-opacity=".565" d="M456.862 540.277l60.715-37.834-3.66 47.134-57.116 18.32z"/><path fill="#2d3943" fill-opacity=".349" d="M241.285 905.066L158.646 691.38l72.713-132.584 62.425 269.7z"/><path fill="#23273d" fill-opacity=".769" d="M440.298 1029.942l-144.357-26.231 58.36-34.586-6.075-251.064z"/><path fill="#f2303a" fill-opacity=".463" d="M727.392 905.419l-114.674-61.538 78.609-9.997-17.434 94.504z"/><path fill="#191b19" fill-opacity=".486" d="M501.173 85.51L461.967 96.2l-62.09 28.443L354.482-62z"/><path fill="#5a392d" fill-opacity=".659" d="M448.824 313.48l-46.833-56.467-40.142 43.719-77.758-22.746z"/><path fill="#f9424f" fill-opacity=".584" d="M458.715 937.497l5.936-7.411 25.726 28.51-93.127-3.165z"/><path fill="#1c0001" fill-opacity=".38" d="M-46.446 507.825L79.99 452.99l81.542 77.986 62.687-100.332z"/><path fill="#8caf77" fill-opacity=".557" d="M785.08 644.547L898 603.112 759.164 735.226l66.853 27.94z"/><path fill="#ff1c36" fill-opacity=".357" d="M340.361 374.037l43.557 23.228 43.605-9.39-57.7-8.524z"/><path fill="#e4eded" fill-opacity=".506" d="M464.751 566.804l-61.33 82.818 24.432 14.264-8.319 2.244z"/><path fill="#0a152d" fill-opacity=".404" d="M724.405 820.788L608.67 571.61l53.221 211.584 80.983 145.123z"/><path fill="#030b03" fill-opacity=".424" d="M369.926 201.739l-58.543 4.171-33.311-112.245 13.263 88.504z"/><path fill="#d6a080" fill-opacity=".302" d="M315.572 190.8l140.027-2.854-16.026-32.548-134.18-31.837z"/><path fill="#9f9e92" fill-opacity=".282" d="M766.686 168.2L686.183 63.393l28.87 193.058 182.947.117z"/><path fill="#d92830" fill-opacity=".8" d="M291.532 743.644l11.385 245.986 51.572-15.687-13.452-123.446z"/><path fill="#cc242d" fill-opacity=".631" d="M606.123 957.46l12.916-14.885-51.298-90.46-15.09 111.817z"/><path fill="#071910" fill-opacity=".408" d="M811.822 565.433L898 536.407l-94.921 15.824-1.117 35.534z"/><path fill="#eeedea" fill-opacity=".584" d="M25.81 403.772L9.057 455.805l12.038 14.948 21.69-6.254z"/></svg>