<svg xmlns="http://www.w3.org/2000/svg" width="228" height="278" viewBox="0 0 836 1024"><path fill="#693929" d="M0 0h836v1024H0z"/><path fill="#c65129" fill-opacity=".984" d="M582.153 247.271l12.08 836.978L202.52 1086l37.284-814.687z"/><path fill="#c7e4fa" fill-opacity=".898" d="M626.194 956.518L514.958 1086h314.537L898 955.852z"/><path fill="#c3d7ee" fill-opacity=".984" d="M-1.497 1086h166.23l23.945-136.386-225.44-9.196z"/><path fill="#bbd3cf" fill-opacity=".624" d="M361.648 588.379l118.159 18.21L551.2 313.553 309.283 415.448z"/><path fill="#000207" fill-opacity=".757" d="M-41.754-11.032L201.03-30.409l19.198 899.489L-62 895.064z"/><path fill="#000309" fill-opacity=".878" d="M486.4 233.836L395.18 10.313 898 55.585v255.294z"/><path fill="#e3ad44" fill-opacity=".643" d="M442.764 404.734L376.37-31.738l94.986 267.666L866.73 353.082z"/><path fill="#bb0c09" fill-opacity=".922" d="M168.774 1086h451.23l-196.95-356.786-205.967-.688z"/><path fill="#02000d" fill-opacity=".635" d="M563.94 776.281L898 1009.771l-75.103-879.768-25.18 498.739z"/><path fill="#21fff9" fill-opacity=".204" d="M553.79 463.68l16.396 229.132 229.717-62.183-22.253-181.435z"/><path fill="#ffece1" fill-opacity=".506" d="M794.12 342.785l38.765 89.728-158.62-159.142 27.34-20.309z"/><path fill="#feebf6" fill-opacity=".471" d="M337.566 73.388l81.419-9.144 33.91 86.492-22.453 34.101z"/><path fill="#ffab3e" fill-opacity=".576" d="M493.032 515.495l84.359-21.002 11.937 197.65-6.9 393.857z"/><path fill="#9199ac" fill-opacity=".224" d="M161.28 566.075L47.185 542.188l-60.777-286.277 195.621 215.557z"/><path fill="#da8321" fill-opacity=".753" d="M277.264 378.223l-43.432-241.93L306.85 249.44l169.984 160.508z"/><path fill="#9d3800" fill-opacity=".565" d="M461.258 256.691l-134.782 72.94-39.946 395.425-126.486-476.251z"/><path fill="#aac8d7" fill-opacity=".549" d="M295.675 489.97l220.234 24.995 15.839-93.054-200.686-28.766z"/><path fill="#0e070b" fill-opacity=".941" d="M815.186 373.598l23.376 433.5L837.698-62 674.988 59.56z"/><path fill="#2a201d" fill-opacity=".929" d="M357.908-62l397.25 123.445-384.975-6.855L249.64 174.68z"/><path fill="#ee9400" fill-opacity=".565" d="M664.556 319.382l-147.05-75.313-105.122 54.96 250.467 150.51z"/><path fill="#3c2528" d="M795.547 845.763l-211.718-53.971 5.146 156.84L898 958.653z"/><path fill="#050205" fill-opacity=".506" d="M898 294.949l-615.986-77.07 115.203 106.727 73.172-210.324z"/><path fill="#cdf4ff" fill-opacity=".388" d="M767.723-62l-63.94 103.114-42.595 11.144-44.413-22.733z"/><path fill="#000509" fill-opacity=".51" d="M601.536 448.215l175.945 29.238 53.26 399.806 63.79-484.981z"/><path fill="#7f5736" fill-opacity=".992" d="M272.217 123.739l-108.321 51.908 48.583-122.033L350.102-62z"/><path fill="#c33600" fill-opacity=".612" d="M226.49 755.055l369.859 27.976-147.255-164.708-209.558-67.163z"/><path fill="#e6f39c" fill-opacity=".675" d="M590.53 954.041l-22.919-35.772L590.73 1086l36.07-136.21z"/><path fill="#040203" fill-opacity=".91" d="M100.628 362.446L-62-62h370.906l-111.1 139.382z"/><path fill="#532e22" fill-opacity=".624" d="M682.438 333.667l-127.21-99.2 197.19 88.327-32.746 39.448z"/><path fill="#f7fd40" fill-opacity=".467" d="M665.667 336.447l-225.023-89.643 74.334-8.822 167.076 79.363z"/><path fill="#003c62" fill-opacity=".451" d="M175.639 872.145l2.834 73.765L-62 954.068V902.21z"/><path fill="#2a0025" fill-opacity=".169" d="M453.427 456.15l-25.784 195.754-91.526 91.723-15.94-294.708z"/><path fill-opacity=".686" d="M86.347 886.211L9.4 707.533l220.525-150.794-10.77 212.683z"/><path fill="#2b070b" fill-opacity=".804" d="M702.169 683.533l37.6 200.68-157.869-2.361 11.064-180.295z"/><path fill="#fa462e" fill-opacity=".588" d="M513.78 890.068L413.947 730.52l161.006-20.66L564.291 1086z"/><path fill="#e2bfc2" fill-opacity=".482" d="M402.611 148.639l40.881 132.168 3.848-133.466L375.655-7.492z"/><path fill="#fcf7fb" fill-opacity=".435" d="M257.876 233.713l-13.078-46.672 2.393-59.51 27.746 98.998z"/><path fill="#fee7ce" fill-opacity=".569" d="M816.033 358.528l.208 50.887-20.148-.494-57.64-114.002z"/><path fill="#d90611" fill-opacity=".627" d="M484.588 515.621l20.104 6.86 5.185 308.575-39.308-32.35z"/><path fill="#c03100" fill-opacity=".369" d="M810.625 386.314l-312.387 78.843 62.148 117.619-46.997-246.644z"/><path fill="#edc8b5" fill-opacity=".682" d="M660.824 273.295l-8.995 20.079 84.073 11.866 11.378-25.826z"/><path fill="#fffce6" fill-opacity=".396" d="M525.805 394.032L469.32 519.894l-94.334-176.95-2.46 95.462z"/><path fill="#043e51" fill-opacity=".78" d="M652.676 539.451l23.515 1.334 18.608-78.622-81.147-13.54z"/><path fill="#aa987b" fill-opacity=".275" d="M460.029 912.992l383.822 6.393-91.55-91.537-2.425 66.422z"/><path fill="#fefa60" fill-opacity=".592" d="M588.197 684.488L564.44 423.306l-11.915 127.629 32.044 203.03z"/><path fill="#603208" fill-opacity=".776" d="M167.441 154.676l15.474 196.1 75.458-47.371-35.466-156.479z"/><path fill="#e48822" fill-opacity=".973" d="M476.683 251.9l-55.278 174.758-88.582-147.052-15.745 120.631z"/><path fill="#050408" fill-opacity=".863" d="M499.616 222.944L629.29 288.9 898 103.036 585.261 51.214z"/><path fill="#d09509" fill-opacity=".643" d="M297.634 633.358l16.667-128.845 24.732 106.004-37.73 166.941z"/><path fill="#ec0015" fill-opacity=".49" d="M551.528 465.435l-3.232-104-22.561 96.459L566.9 871.766z"/><path fill="#ffff37" fill-opacity=".369" d="M516.497 821.566l34.593-129.398-37.345-268.045-1.227 175.329z"/><path fill="#980006" fill-opacity=".58" d="M384.156 1086L259.332 863.694l293.047 34.142L436.73 1086z"/><path fill="#fbc275" fill-opacity=".494" d="M459.302 792.762L628.84 1010.8 437.567 733.512l-17.113-7.03z"/><path fill="#782d10" fill-opacity=".529" d="M342.92 208.04l27.936 120.588-97.049-163.734 186.508-60.301z"/><path fill="#004765" fill-opacity=".243" d="M626.454 966.337L752.688 633.07l63.795-35.809-118.387 370.854z"/><path fill="#040406" fill-opacity=".984" d="M633.585 49.772l171.98 212.07-356.067-25.762-2.093-117.023z"/><path fill="#ffda11" fill-opacity=".204" d="M466.429 406.698l-166.647-89.334-43.332 377.504-.301-477.682z"/><path fill="#ffb618" fill-opacity=".263" d="M395.594 828.696l9.488-72.457L372.9 492.4l-7.467 332.43z"/><path fill="#ad1309" fill-opacity=".718" d="M374.589 872.205l-33.81-345.702 44.303-7.398-66.63-27.898z"/><path fill="#a8aeb0" fill-opacity=".784" d="M440.678 525.085l-68.244-16.519 143.91-71.199 3.938 80.535z"/><path fill="#c08a0b" fill-opacity=".4" d="M237.894 553.22l-60.672-259.185 69.322 118.76-16.627 164.381z"/><path fill="#b70104" fill-opacity=".678" d="M275.311 752.811l30.354-207.995-1.22-195.303-13.281-43.914z"/><path fill="#b1d6ff" fill-opacity=".357" d="M639.006 1086l253.266-133.802-218.668-1.51-91.63 3.741z"/><path fill="#e1fffa" fill-opacity=".235" d="M507.938 640.696l-43.649-64.93-152.684 10.873 124.564 16.757z"/><path fill="#000104" fill-opacity=".647" d="M212.489 420.491L100.1 110.485 23.295 227.042l201.812 341.804z"/><path fill="#a50706" fill-opacity=".757" d="M244.873 439.22l-20.404 331.149 22.712-51.578 9.54-257.83z"/><path fill="#62625d" fill-opacity=".482" d="M630.987 602.903l91.881-179.022 81.846 97.545-17.29 175.018z"/><path fill="#fcc088" fill-opacity=".447" d="M318.937 14.171L368.378-62 282.15 64.27l-29.675 91.563z"/><path fill="#d42618" fill-opacity=".698" d="M442.358 310.045l-19.785 11.632-83.926-5.023 123.125-43.85z"/><path fill="#44201d" d="M-23.356 312.653l75.643 145.4L97.22 338.649l-25.355-26.372z"/><path fill="#e9ff16" fill-opacity=".247" d="M446.79 793.786l26.54 8.425L453.4 571.42l-21.867 98.86z"/><path fill="#0d0502" fill-opacity=".804" d="M337.155-14.944l-81.203 184.782L415.485-62l41.021 138.392z"/><path fill="#f6e039" fill-opacity=".671" d="M611.843 1056.833l-42.776-167.668-11.27 23.007L598.61 1086z"/><path fill="#00173c" fill-opacity=".286" d="M882.877 964.187l-90.354-56.431-174.254 33.862 90.217 22.666z"/><path fill="#1c617c" fill-opacity=".216" d="M171.023 410.653L-62 469.668v69.253l242.763-3.514z"/><path fill="#793b12" fill-opacity=".443" d="M678.568 285.75l-27.162 110.43 133.88 35.628-2.915-60.873z"/><path fill="#0e0d17" fill-opacity=".741" d="M860.035 326l7.687-388-124.444 342.304 16.421 38.737z"/><path fill="#462508" fill-opacity=".51" d="M200.167 210.646l25.001-134.958 65.752 182.968-4.293-139.428z"/><path fill="#fdf9fa" fill-opacity=".529" d="M522.579 420.83l-23.507 40.49-68.033-40.408-98.72-19.274z"/><path fill="#da2224" fill-opacity=".784" d="M553.746 918.745l44.961 166.487-122.575-161.474 73.461-36.198z"/><path fill="#483629" fill-opacity=".549" d="M581.089 596.181l-9.756-195.923 41.777 328.63 85.446-42.972z"/><path fill="#0f0406" fill-opacity=".949" d="M898 438.04l-193.006-20.717 122.848 76.765-43.859 319.12z"/><path fill="#aa0009" fill-opacity=".714" d="M396.11 667.775l-2.21-59.005 40.65-8.854-18.465 211.918z"/><path fill="#000c22" fill-opacity=".529" d="M196.052 946.991l-9.214-31.24-38.823 8.099-210.015.118z"/><path fill="#d00500" fill-opacity=".161" d="M686.457 764.784l-91.636 14.275-199.89-225.732 251.303 364.558z"/><path fill="#fff2dd" fill-opacity=".518" d="M439.668 122.66l-47.644-11.723L370.94 65.89l37.055-6.03z"/><path fill="#ffff94" fill-opacity=".298" d="M569.686 778.3l-55.327-34.26 71.072 89.54-4.636-261.934z"/><path fill="#985439" fill-opacity=".553" d="M387.634 56.627l-40.792 138.052 44.56-1.008-73.918-104.785z"/><path fill="#ffd91c" fill-opacity=".169" d="M262.567 552.353l20.074 151.584-46.824 190.844 14.129-189.106z"/><path fill="#e09f75" fill-opacity=".906" d="M438.163 358.756l75.128-24.073 20.235 78.247-94.82-27.88z"/><path fill="#f6f9fd" fill-opacity=".455" d="M760.73 358.615l-11.401-48.024 33.046 14.831 21.896 13.278z"/><path fill="#2c0400" fill-opacity=".384" d="M265.086 226.544l166.654-34.473-105.751 103.604 111.61-29.49z"/><path fill="#cb6101" fill-opacity=".545" d="M503.106 613.6l32.982-89.61-190.659-4.044 170.562 19.177z"/><path fill="#d9d4cf" fill-opacity=".529" d="M739.69-9.903l15.645-26.337-90.15 47.14 36.368 11.754z"/><path fill="#ffffd6" fill-opacity=".318" d="M530.245 564.479l6.454 85.856 40.43 46.51-46.425-7.283z"/><path fill="#8a98c6" fill-opacity=".498" d="M210.86 939.5l-134.094 65.234 88.02-41.702-168.61-18.286z"/><path fill="#b30004" fill-opacity=".647" d="M339.199 618.911l36.804 39.803-25.576 222.402-20.546-128.493z"/><path fill="#fff5ff" fill-opacity=".263" d="M437.263 133.384l1.975-6.84 12.608 111.74-34.549 16.123z"/><path fill="#000105" fill-opacity=".686" d="M174.022 385.839L73.677 303.335l-133.27 9.933L172.05 96.14z"/><path fill="#410000" fill-opacity=".655" d="M778.948 802.92l14.23 93.729 84.572-33.208-87.436-99.71z"/><path fill="#fdf949" fill-opacity=".318" d="M510.318 233.976l102.204 47.428-150.2-43.19 8.63 110.642z"/><path fill="#587b8c" fill-opacity=".459" d="M462.415 462.342l5.657 25.012-146.785 2.533-10.563-13.269z"/><path fill="#00000d" fill-opacity=".243" d="M586.855 717.444l193.726 235.061-130.134-6.876L898 697.46z"/><path fill="#c35f05" fill-opacity=".596" d="M554.754 308.79l116.442 120.405-78.73 1.484-44.047 84.239z"/><path fill="#5c7d94" fill-opacity=".235" d="M476.154-50.014L500.788 72.84 616.04-62l95.14 109.267z"/><path fill="#070000" fill-opacity=".369" d="M291.713 100.183l23.076-66.218 111.93 17.308-32.462 10.504z"/><path fill="#df3b09" fill-opacity=".761" d="M321.884 254.253l4.134 101.269-15.355 66.086-15.725-75.385z"/><path fill="#edfeff" fill-opacity=".282" d="M858.967 976.607L898 1086H676.544L570.7 975.557z"/><path fill="#ed0021" fill-opacity=".322" d="M571.529 680.719l-21.052 343.29-3.553-356.354-10.179-255.203z"/><path fill="#e0f5ff" fill-opacity=".416" d="M176.749 981.312l-3.693-24.278L-62 992.194 185.416 1086z"/><path fill="#d4ba46" fill-opacity=".384" d="M327.65 326.639l-19.407 112.119 71.593-110.931-33.783-24.379z"/><path fill="#aaa2a7" fill-opacity=".467" d="M485.831 595.472l-135.93 4.684-.185-58.08 39.932 38.441z"/><path fill="#fbf2f3" fill-opacity=".329" d="M248.05 183.006l2.896-24.467 22.776 43.644-.995 65.403z"/><path fill="#c78810" fill-opacity=".522" d="M222.414 573.878l12.592 15.828 3.435-97.062-15.865-94.29z"/><path fill="#923321" fill-opacity=".18" d="M156.355 474.81l30.041 124.55L-62 715.522l186.281-127.633z"/><path fill="#2a0405" fill-opacity=".643" d="M96.211 855.449L-24.786 682.05-62 885.342l279.336-2.411z"/><path fill="#c6070a" fill-opacity=".643" d="M181.048 967.59L239.4 1086h46.603l13.264-393.855z"/><path fill="#7c0302" fill-opacity=".6" d="M466.444 1086l-195.58-201.397 94.089 43.502 112.929 141.624z"/><path fill="#0d0909" fill-opacity=".651" d="M540.857 235.923L588.34-62l63.48 367.327-9.336-3.625z"/><path fill="#816a60" fill-opacity=".267" d="M-37.9 863.195L-62 804.123l7.859 109.05 288.904-1.8z"/></svg>