<svg xmlns="http://www.w3.org/2000/svg" width="228" height="278" viewBox="0 0 836 1024"><path fill="#74716e" d="M0 0h836v1024H0z"/><g fill-opacity=".502"><path fill="#ecefff" d="M506 206L230 930l668-80z"/><path fill="#150200" d="M18-62l880 176-960 216z"/><path d="M890 1054L-62 750v300z"/><path fill="#c3cdbf" d="M402 966L282 222 6 418z"/><path fill="#1d191c" d="M854 342l-8-404-440 340z"/><path fill="#fff" d="M898 762l-44 240-224-612z"/><path fill="#0c0d04" d="M786 1022V726l-128-36z"/><path fill="#e7e9ff" d="M378 670l44 300 332-116z"/><path fill="#556e10" d="M-62 674l324 260-100-544z"/><path fill="#070b0d" d="M790 1086l-592-60 572-152z"/><path fill="#fff" d="M690 454L466 270l-28 104z"/><path fill="#1f0400" d="M450 382L294 222l84 260z"/><path fill="#a2704c" d="M414 374L258 202 582-6z"/><path fill="#939897" d="M806 726L402 466 10 670z"/><path fill="#0c0d13" d="M318 1086L182 714-62 958z"/><path fill="#1f1a12" d="M-6 190L574-62-26 442z"/><path fill="#000001" d="M42 518L-62 626 54 858z"/><path fill="#c0bfca" d="M270 926l-36-168 392 140z"/><path fill="#fff" d="M790 946l104-4-88-320z"/><path fill="#cdc8e1" d="M-50 474l336-68-52-156z"/><path fill="#564e4d" d="M778-34L662 394 474 262z"/><path fill="#000209" d="M810-62l-80 256 168 204z"/><path fill="#a0b750" d="M98 350L62 770l188-92z"/><path fill="#d3d2e0" d="M850 810l-84-308-344-64z"/><path fill="#17181e" d="M446 586l40-96-68 32z"/><path fill="#bebdbf" d="M686 966l-24-112-20 176z"/><path fill="#000d19" d="M290 254l-108 12 8-328z"/><path fill="#f5f1ff" d="M330 338l-180-48 136-32z"/><path fill="#a19a91" d="M658 350l136 272 104-312z"/><path fill="#f0f1ff" d="M650 682L542 938l152-72z"/><path fill="#363731" d="M754 694l-96 68 140 164z"/><path fill="#131516" d="M130 1086l676-96-496-72z"/><path fill="#000204" d="M466 178l24-116-96-8z"/><path fill="#2c1e11" d="M446 334l-72 44-160-44z"/><path fill="#cdcfe8" d="M402 534l60-144-200 212z"/><path fill="#cc8859" d="M334 202l168-36-80 140z"/><path d="M522 434l-40-40h-32z"/><path fill="#392315" d="M434 214l240 112-32 64z"/><path fill="#3e1821" d="M478 266L614-54l60 176z"/><path fill="#f3f4ff" d="M682 542L458 254l16 136z"/></g></svg>