<svg xmlns="http://www.w3.org/2000/svg" width="228" height="278" viewBox="0 0 836 1024"><path fill="#2c5b48" d="M0 0h836v1024H0z"/><path fill="#05a376" fill-opacity=".871" d="M248.894 358.465l315.326 15.833-1.634 692.045L211.483 1086z"/><path fill="#28030a" fill-opacity=".792" d="M-62-3.025l23.819 537.3 345.503-282.198L265.614-1.206z"/><path fill="#f26948" fill-opacity=".478" d="M311.011 363.294L286.304 61.533l210.367 2.264-66.49 321.821z"/><path fill="#3d0014" fill-opacity=".498" d="M871.234 659.528L404.775 271.654 737.381-62 898 449.273z"/><path fill="#f1f0f6" fill-opacity=".459" d="M525.482 636.21l-147.416 23.943-90.889-60.36 201.402-22.86z"/><path fill="#c6f49c" fill-opacity=".365" d="M761.434 960.924l-47.76 74.712-92.606-168.276-4.998-261.849z"/><path fill="#38f9a7" fill-opacity=".361" d="M152.943 1086l-30.57-721.404-49.798 212.572-43.7 213.643z"/><path fill="#1f1a35" fill-opacity=".729" d="M898 960.886l-235.043-130.2 140.861-346.32 83.879 393.344z"/><path fill="#007751" fill-opacity=".753" d="M279.24 959.512L88.082 638.289l68.343-286.175 166.498-16.792z"/><path fill="#92c76b" fill-opacity=".6" d="M90.679 976.584l-21.14-110.55 39.847-43.32L255.465 956.69z"/><path fill="#3c2621" fill-opacity=".992" d="M40.057 702.35l100.666-458.407L-62 459.718v263.105z"/><path fill="#fed8e0" fill-opacity=".584" d="M89.909 491.217l22.319 18.161-5.046 89.487-43.713 1.465z"/><path fill="#8c423c" fill-opacity=".341" d="M461.068 478.379l163.87-36.965 187.522 98.827-120.704 223.352z"/><path fill="#009b6f" fill-opacity=".827" d="M692.393 824.425l-520.32 100.19 375.48-333.887 119.149 241.176z"/><path fill="#b7fb73" fill-opacity=".416" d="M715.829 888.204l-60.796-82.79L702.4 980.342l182.23-50.22z"/><path fill="#000008" fill-opacity=".478" d="M578.825 995.147l125.627-3.022-117.566-125.224-75.639-198z"/><path fill="#3d3d45" fill-opacity=".996" d="M864.068 246.037l-371.993-75.49L451.786-45.35 529.79-62z"/><path fill="#00000e" fill-opacity=".58" d="M702.758 477.258l-261.534-164.41 47.282-106.808L583 217.918z"/><path fill="#bf8264" fill-opacity=".894" d="M376.14 76.99l98.793 166.738 5.033-90.305-25.828-93.638z"/><path fill="#00dda5" fill-opacity=".306" d="M79.822 438.355L357.2 505.89l221.725-39.973-343.69-150.654z"/><path fill="#4c3724" fill-opacity=".835" d="M270.704 111.788L271.166-62 894.392 6.072 386.816 63.397z"/><path fill="#db86f1" fill-opacity=".341" d="M898 198.343V49.763L780.717 7.814l-25.46 44.9z"/><path fill="#002a1e" fill-opacity=".42" d="M244.682 799.285l-42.938-187.919L-62 592.936v36.426z"/><path fill="#ecf8f5" fill-opacity=".329" d="M606.945 440.978l46.014-3.816 17.139 67.698-63.203-6.808z"/><path fill="#001c07" fill-opacity=".302" d="M516.588 794.714L638.74 562.86l-62.63-173.052-56.785 199.334z"/><path fill="#36363a" fill-opacity=".902" d="M-62 995.01l404.958 58.797-238.144-52.955-88.992-259.264z"/><path fill="#00ac7e" fill-opacity=".992" d="M346.134 737.275l284.399 305.993L545.676 1086 510.02 632.772z"/><path fill="#312109" fill-opacity=".596" d="M330.265 298.22l60.823 66.709 4.13-137.453 70.896 14.765z"/><path fill="#9294b3" fill-opacity=".494" d="M600.037 670.836l10.989 57.544 76.224 36.569 11.622-88.637z"/><path fill="#092249" fill-opacity=".969" d="M898 757.804l-40.692 296.839-107.472-369.495 45.707-75.892z"/><path fill="#b8a88b" fill-opacity=".71" d="M321.43 21.97l-11.813 14.231-7.808 13.737L501.673-62z"/><path fill="#3d3027" fill-opacity=".804" d="M827.027 866.66l-102.13-125.847-74.422 52.635 87.621 118.204z"/><path fill="#00976f" fill-opacity=".796" d="M46.513 843.376l-6.408-131.26 33.907-113.773 73.474 222.936z"/><path fill="#bc977a" fill-opacity=".859" d="M329.47 298.395l-13.19 31.275-31.688-31.057 36.089-62.924z"/><path fill="#01b183" fill-opacity=".839" d="M454.214 337.879l-121.511 140.5 94.803 114.304 117.297-216.256z"/><path fill="#008059" fill-opacity=".831" d="M391.675 977.163l-213.699 105.15 50.644-114.18-50.198-226.564z"/><path fill="#a8bdf3" fill-opacity=".345" d="M103.682 1086l29.603-165.769-36.597 83.54-138.946 1.137z"/><path fill="#db000d" fill-opacity=".247" d="M203.993 811.63L154.2 695.068l19.58 207.666L38.234 864.42z"/><path fill="#080808" fill-opacity=".659" d="M309.994 251.444L269.977-6.87 148.369 278.007l115.79 27.432z"/><path fill="#f67924" fill-opacity=".525" d="M509.276 528.938l13.069-59.302-36.629 3.282 1.586 23.877z"/><path fill="#000b00" fill-opacity=".204" d="M168.869 411.124l51.05 19.656-66.9 468.912 156.277-296.185z"/><path fill="#ffb89f" fill-opacity=".208" d="M270.876 119.58l201.288 21.332-15.048-113.67-145.452 226.732z"/><path fill="#ff7554" fill-opacity=".353" d="M668.33 866.56l38.082-63.586L606.03 856.21l14.938 49.235z"/><path fill="#1b2e45" fill-opacity=".624" d="M570.777 168.702L454.885-62l36.436 203.238-141.812 14.773z"/><path fill="#40ffa7" fill-opacity=".416" d="M234.541 827.861l-86.786 102.193 90.166 24.185-54.984-132.363z"/><path fill="#97c1b5" fill-opacity=".702" d="M316.204 575.752l104.738 58.387-22.536-60.63-94.498 81.963z"/><path fill="#773e2b" fill-opacity=".639" d="M-62 491.634L63.05 347.752l45.646 83.645-93.807 69.442z"/><path fill="#bb845c" fill-opacity=".6" d="M477.634 128.64l-67.402 255.51 43.154-97.965 28.033-93.37z"/><path fill="#008e63" fill-opacity=".804" d="M514.63 454.874l16.594 68.376 56.12 288.574-35.596-434.662z"/><path fill="#2bff73" fill-opacity=".51" d="M669.45 876.95l-33.06 43.753 37.294 40.257 50.382-61.532z"/><path fill="#003d00" fill-opacity=".631" d="M137.495 1078.943l-21.567-91.217 55.242-10.548 35.688-9.61z"/><path fill="#585f70" fill-opacity=".467" d="M619.72 98.673L606.576-12.248 525.128 179.53l156.675.737z"/><path fill="#362620" fill-opacity=".867" d="M690.042 525.641l-2.556 17.42L670.37 37.857l150.382 500.245z"/><path fill="#450d01" fill-opacity=".396" d="M558.813 520.141l69.204-5.7 27.309 25.797-68.163 157.395z"/><path fill="#88caba" fill-opacity=".941" d="M507.795 580.19l-56.976 6.501 40.173 48.658 29.608-45.503z"/><path fill="#3c3930" fill-opacity=".749" d="M699.085 863.15l-36.242-56.542 106.531-30.796-175.8 158.693z"/><path fill="#cbffa2" fill-opacity=".337" d="M697.739 963.966l113.343-61.42 5.423 63.402-128.145-100.13z"/><path fill="#235311" fill-opacity=".565" d="M743.466 1022.78L898 971.146l-118.055-17.763-7.582-78.01z"/><path fill="#004333" fill-opacity=".42" d="M94.23 878.66l11.093-17.685 84.243 51.895 73.417-64.549z"/><path fill="#6aeada" fill-opacity=".349" d="M130.644 399.148l103.347-82.309-120.712 123.689 12.447-38.283z"/><path fill="#01100d" fill-opacity=".71" d="M197.915 616.454l-18.833 27.696 46.34 174.213 2.883-72.852z"/><path fill="#7ee882" fill-opacity=".8" d="M203.708 955.479l-87.925-84.103-7.166 69.58 98.905-22.337z"/><path fill="#370007" fill-opacity=".737" d="M174.326 144.466l-89.02-60.608-60.48 76.236L70.58 288.456z"/><path fill="#101518" fill-opacity=".741" d="M-62 645.156l93.378 58.574 44.195-138.516-134.046-46.882z"/><path fill="#7869ef" fill-opacity=".176" d="M677.952 308.742l-72.15 7.398-24.894-47.263 112.643-12.77z"/><path fill="#c0815c" fill-opacity=".698" d="M118.99 832.363l5.82 8.19-48.954 61.481-13.41-51.935z"/><path fill="#00764f" fill-opacity=".671" d="M136.713 728.847l73.285-141.778-34.892-179.388L58.744 707.087z"/><path fill="#007350" fill-opacity=".588" d="M329.088 348.633l36.696 29.527-157.944-15.206 70.544-75.421z"/><path fill="#c77c59" fill-opacity=".141" d="M827.373 285.43l-43.863 60.984-83.378-185.12 23.68-71.808z"/><path fill="#311c0b" fill-opacity=".561" d="M311.166 119.206L382.229 1.228l81.67 65.02-168.997-16.131z"/><path fill="#885231" fill-opacity=".71" d="M301.788 143.626l-25.49 22.117 140.999 183.694-22.973-124.985z"/><path fill="#0d0a15" fill-opacity=".549" d="M672.684 347.414l-100.25 122.78 30.857 39.667-138.818-287.919z"/><path fill="#00b785" fill-opacity=".769" d="M567.055 950.172L592 1086l-192.924-52.596L544.3 930.288z"/><path fill="#63bf45" fill-opacity=".584" d="M737.62 1086l20.294-199.157 50.527 17.024-102.824 87.51z"/><path fill="#18fedc" fill-opacity=".318" d="M188.055 882.489l34.325-45.891-15.558-48.54-37.347 137.06z"/><path fill="#443846" fill-opacity=".541" d="M47.606 56.565L12.143 221.132l-72.426-89.72L-62 7.672z"/><path fill="#9a86e3" fill-opacity=".435" d="M815.329 1008.873l49.14-27.027-53.097 86.273L698.797 1086z"/><path fill="#169c02" fill-opacity=".498" d="M156.825 953.376l51.812 8.433-39.57-38.89-23.87 10.988z"/><path fill="#ffbda4" fill-opacity=".184" d="M292.971 47.434l93.434 14.226-61.58 199.194 20.792-250.472z"/><path fill="#745d52" fill-opacity=".376" d="M898 513.436L552.851 635.909l156.664 79.844.176-78.635z"/><path fill="#111123" fill-opacity=".596" d="M690.297 1003.68l-87.283.307-58.146-96.686 41.743-40.728z"/><path fill="#121519" fill-opacity=".412" d="M722.357 615.684l11.525 308.336 32.53-239.512 97.007-86.602z"/><path fill="#ac7462" fill-opacity=".867" d="M377.776 266.568l67.406 30.716-19.95 23.41 29.287-51.992z"/><path fill="#4e443d" fill-opacity=".835" d="M-36.722 938.818L-62 717.158l96.245-19.73 10.433 154.72z"/><path fill="#301912" fill-opacity=".545" d="M622.662 122.467l75.71-39.954 67.275-.248L650.395-62z"/><path fill="#0b090e" fill-opacity=".502" d="M314.554 350.749l-25.744 9.586L180.993 25.024 53.865 45.014z"/><path fill="#211303" fill-opacity=".573" d="M795.779 871.374l89.14-80.337 11.859 282.638-97.952-182.786z"/><path fill="#00be8c" fill-opacity=".51" d="M320.323 850.42l260.97 152.218-261.91-102.045-74.58-185.62z"/><path fill="#00338c" fill-opacity=".349" d="M763.648 800.267l104.728 32.98 14.264-169.97-80.143-9.455z"/><path fill="#002402" fill-opacity=".247" d="M414.608 947.499l-149.24 16.959 144.053 12.485 163.213-54.245z"/><path fill="#00754e" fill-opacity=".667" d="M619.132 852.134L517.46 564.644l-3.382 181.522 73.723 129.28z"/><path fill="#058761" fill-opacity=".706" d="M628.778 633.806l-246.797 7.56-123.53 128.11-30.468-130.474z"/><path fill="#484431" fill-opacity=".918" d="M194.855 819.215l-20.504-95.645-32.077-25.997 3.49 210.141z"/><path fill="#251416" fill-opacity=".788" d="M289.639 278.44L-62 343.755l166.996 2.48 9.165 55.12z"/><path fill="#252104" fill-opacity=".631" d="M326.852 271.517l25.986 19.32 58.066 41.387-38.998 10.82z"/><path fill="#00906a" fill-opacity=".78" d="M124.545 496.57l-47.851-7.106 33.325-51.545 184.196-160.952z"/><path fill="#27161a" fill-opacity=".451" d="M81.122 894.334l-35.299 81.873L-62 1015.8 40.151 837.805z"/><path fill="#fdf0f7" fill-opacity=".216" d="M395.501 612.193l-103.85 32.63 220.677-4.13-136.663 20.45z"/><path fill="#4a307d" fill-opacity=".427" d="M670.81 1086l-99.507-93.84 80.656-3.629 176.71 91.161z"/><path fill="#6c604e" fill-opacity=".996" d="M373.55 7.998l13.85-34.72 96.017 132.388-22.221-80.834z"/><path fill="#00c298" fill-opacity=".549" d="M294.683 892.763l-74.305 38.895-11.862-7.916-13.34-28.36z"/><path fill="#043e30" fill-opacity=".506" d="M308.577 541.141l-3.116-30.934 220.428 19.61-205.653-6.853z"/><path fill="#b1c181" fill-opacity=".824" d="M756.253 898.565l-53.285 25.797-14.078 49.766 74.295-42.552z"/><path fill="#8c663f" fill-opacity=".831" d="M356.19 372.06l-32.756-26.778 88.284.801-2.651 42.331z"/><path fill="#032f57" fill-opacity=".396" d="M484.608 171.037l-9.293 72.488L584.12 89.171 473.498 61.577z"/><path fill="#433c52" fill-opacity=".573" d="M737.69 16.496l58.56 136.99-71.203 102.386L898 195.372z"/><path fill="#b17a61" fill-opacity=".612" d="M291.067 133.376l185.863 65.51-142.848 3.218-52.948-132.953z"/><path fill="#d9cfc0" fill-opacity=".471" d="M104.36 593.523l8.08-99.923-14.169-2.01-23.112 33.935z"/><path fill="#a3ff72" fill-opacity=".431" d="M212.36 972.063l-57.157-60.487 23-11.269 50.042 47.29z"/><path fill="#0dff64" fill-opacity=".302" d="M124.165 877.128l-45.519 16.837 74.937 88.077-42.33 49.196z"/><path fill="#00a27a" fill-opacity=".678" d="M600.923 694.32l11.765 97.205-21.492 70.72 74.927-45.018z"/><path fill="#aca49e" fill-opacity=".267" d="M591.145 484.005l-4.876-33.92 81.495 4.983-1.802 67.806z"/><path fill="#015833" fill-opacity=".557" d="M221.482 943.079l1.306-9.366 64.992-31.596 76.645 26.363z"/><path fill="#0d0004" fill-opacity=".337" d="M405.1 196.92l45.684 76.387-56.014-12.287 56.324-61.026z"/><path fill="#fac9ad" fill-opacity=".345" d="M443.734 136.728l-6.155 33.728-37.939-78.47 65.824 7.717z"/><path fill="#003b1a" fill-opacity=".325" d="M363.792 590.942L183.759 502.77l-9.334-71.08 56.147 136.949z"/><path fill="#009364" fill-opacity=".4" d="M216.599 809.861l-97.005-180.907 39.67 49.176 45.269 36.155z"/><path fill="#281809" fill-opacity=".529" d="M103.64 188.688L356.457 40.952l-29.45 74.137-54.609-169.625z"/><path fill="#07ac7f" fill-opacity=".745" d="M490.147 599.064L480.37 441.7l-39.702 192.67-9.322-102.254z"/><path fill="#00a375" fill-opacity=".69" d="M150.124 856.796l-18.948-153.967 1.283 19.51-38.76 81.937z"/></svg>