<svg xmlns="http://www.w3.org/2000/svg" width="228" height="278" viewBox="0 0 836 1024"><path fill="#3c3638" d="M0 0h836v1024H0z"/><g fill-opacity=".502"><path fill="#f2e2d7" d="M-62 450l84 636 176-476z"/><path fill="#bdb4cd" d="M634 702l164 272-276 88z"/><path d="M842 30L-6 482l780 128z"/><path fill="#130000" d="M570 790L30 738l428 348z"/><path fill="#de9f84" d="M550 498l348 276-320-132z"/><path fill="#b98863" d="M642 182l-268 88V38z"/><path fill="#f0dccd" d="M854 734l-104-76 148-228z"/><path fill="#ffc0a3" d="M-6 774l172 68-44 120z"/><path fill="#000002" d="M498 386L-14 618l312-460z"/><path fill="#c9f0ff" d="M166 746L26 626l160-76z"/><path fill="#85b4b3" d="M254 642l-32 84 304 40z"/><path d="M450 418l-80 248 244 36z"/><path fill="#ccf4f3" d="M266 594l144 20-132-84z"/><path fill="#2d0000" d="M134 1086l524-200-476-164z"/><path fill="#091013" d="M714 170L898 2 250-18z"/><path fill="#5b82b7" d="M178-62L-62 26l168 48z"/><path fill="#000003" d="M550 310l256 284-100 68z"/><path fill="#727178" d="M-62 174l332-12L14 294z"/><path fill="#44dcff" d="M82 406l28 16 48-72z"/><path d="M254 638l-44-240-48 416z"/><path fill="#aba8b8" d="M570 766l144-4-76 160z"/><path fill="#ccd4e1" d="M618 946l40 76-236 52z"/><path fill="#0b0f14" d="M358 178L90 106 402-62z"/><path fill="#8c3734" d="M194 818l-256 248 300-152z"/><path fill="#ba9784" d="M390 70l-32 160L518 90z"/><path fill="#bd8e6d" d="M34 454l-96 188L98 982z"/><path fill="#5b5666" d="M518 942l48-128 332 124z"/><path fill="#e0ffff" d="M302 502l-24-20 72 8z"/><path fill="#4e4139" d="M706 122L474 402 654-62z"/><path d="M622 702L506 566l-224 84z"/><path fill="#669c94" d="M534 766l-180-76 200 24z"/><path d="M562 786l-64 224-216-236z"/><path fill="#00161f" d="M354 1086L230 934l-272 88z"/><path fill="#d19a8b" d="M682 658l-128-4 100-88z"/><path fill="#331e0c" d="M506 178l4-48-172 12z"/><path fill="#27292a" d="M714 910l184-104-204-96z"/><path fill="#7d1018" d="M338 910l-200-84 228 256z"/><path fill="#36344b" d="M802 622l-96-244 116-248z"/><path fill="#dfbcaa" d="M126 966l-4-128L22 718z"/><path fill="#a3c7ed" d="M786 538l112 248-28-224z"/></g></svg>