<svg xmlns="http://www.w3.org/2000/svg" width="228" height="278" viewBox="0 0 836 1024"><path fill="#4a5872" d="M0 0h836v1024H0z"/><path fill="#220a06" fill-opacity=".937" d="M567.92-62h305.257L898 214.593l-299.367 8.687z"/><path fill="#1c1c24" fill-opacity=".894" d="M292.936 191.648L521.688 53.816-28.997-62-62 147.987z"/><path fill="#527bfd" fill-opacity=".973" d="M711.596 781.134L691.17 1083.29 898 1057.4l-28.39-264.127z"/><path fill="#ffde7f" fill-opacity=".286" d="M497.637 363.497l71.335-284.622-581.646 148.783L-49.02 491.42z"/><path fill="#baa9d4" fill-opacity=".639" d="M-.909 774.603l223.613 12.728L120.344 1086-62 1029.12z"/><path fill="#060b00" fill-opacity=".741" d="M756.653 380.87l-14.63 392.394L898 777.162V298.844z"/><path fill="#085ce5" fill-opacity=".314" d="M559.193 1086l-373.373-73.598 347.435-712.616L735.05 517.49z"/><path fill="#a9bffc" fill-opacity=".808" d="M607.212 802.001l7.26 283.999-53.49-136.494 25.97-179.996z"/><path fill="#0f2761" fill-opacity=".725" d="M253.876 862.488l212.594 11.724 36.62-150.402L59.826 557.916z"/><path fill="#969da5" fill-opacity=".851" d="M231.378 581.261L553.18 608.05l19.47 61.958-336.421-30.977z"/><path fill="#a86d33" fill-opacity=".706" d="M87.928 1022.938l56.36 48.953-34.965-381.02-101.84-19.316z"/><path fill="#f77d00" fill-opacity=".365" d="M606.574 770.675l20.913 257.298 73.165 56.224 3.935-312.765z"/><path fill="#78accc" fill-opacity=".4" d="M415.45 497.581l-69.21-283.763L-62 169.582l269.971 329.384z"/><path fill="#b05100" fill-opacity=".278" d="M351.428 26.444l5.26 434.445L585.45 308.444 614.28-62z"/><path fill="#e6e2fe" fill-opacity=".98" d="M55.808 957.205l-34.564-59.211-68.95-6.533L-1.782 1086z"/><path fill="#f0faff" fill-opacity=".659" d="M603.814 770.107l123.885-38.523-5.52 12.518-59.692 32.843z"/><path fill="#3a77ff" fill-opacity=".592" d="M136.621 903.395l-15.234-129.107 129.478-22.023-36.36 132.538z"/><path fill="#1e69d6" fill-opacity=".325" d="M397.27 402.382l315.477 49.843-656.396 144.59 158.915-255.24z"/><path fill="#142648" fill-opacity=".855" d="M212.484 500.007l21.117 153.634-69.66 123.872-44.04-206.94z"/><path fill="#011a5e" fill-opacity=".545" d="M536.066 699.658l106.727 62.617 36.332-202.832-59.751-23.537z"/><path fill="#080614" fill-opacity=".439" d="M2.616 52.477l110.292 141.437 350.094-14.979-104.51-44.365z"/><path fill="#485f22" fill-opacity=".392" d="M849.507 200.91l-205.777-8.137 96.474 460.44L898 102.94z"/><path fill="#5c80ff" fill-opacity=".847" d="M-62 721.133l88.56 58.512 56.498 239.814-125.022-243.174z"/><path fill="#dce7f3" fill-opacity=".561" d="M57.443 690.396l-19.125-51.561 29.674 27.578 95.266 51.261z"/><path fill="#f1ffff" fill-opacity=".184" d="M478.608 386.85L355.202 508.484l119.893-207.506 261.4 166.94z"/><path fill="#c56338" fill-opacity=".753" d="M459.985 528.49l-39.771 26.676-90.507-5.771 3.704-24.808z"/><path fill="#465b2e" fill-opacity=".49" d="M2.413 322.249l-35.035 533.693L91.529 513.604 70.54 457.411z"/><path fill="#273e61" fill-opacity=".792" d="M351.31 60.204l-37.553 162.718L271.27-23.246 490.637-62z"/><path fill="#f3e7ff" fill-opacity=".498" d="M184.835 892.97l-53.38-32.854L176.272 1086l-42.11-32.461z"/><path fill="#652201" fill-opacity=".349" d="M333.053 329.257l109.691-84.296 22.746 138.636-30.035 16.602z"/><path fill="#1a68c6" fill-opacity=".322" d="M300.052 815.922l-78-162.63-5.188 409.816 366.367-69.976z"/><path fill="#0e1c56" fill-opacity=".675" d="M359.56 646.255l182.867 70.94-287.067 68.753 243.416-123.71z"/><path fill="#061b4b" fill-opacity=".635" d="M162.72 980.873l34.236-121.687L225.559 1086l-51.68-84.372z"/><path fill="#fbe5a7" fill-opacity=".282" d="M218.294 449.493l-20.47 52.436 132.023-13.972 23.095-35.99z"/><path fill="#2b5ca7" fill-opacity=".667" d="M411.988 546.52L304.243 387.929l-114 30.33 140.098-99.56z"/><path fill="#8ab7d9" fill-opacity=".537" d="M717.88 515.056l-1.902 14.739-128.462-165.217 104.041 82.18z"/><path fill="#8f867e" fill-opacity=".62" d="M515.359 677.57l5.128 16.92-254.807-24.54 31.204-11.715z"/><path fill="#ffbd85" fill-opacity=".306" d="M509.106 261.587l3.286 148.453L429.8 198.158l119.943-20.928z"/><path fill="#2462b6" fill-opacity=".718" d="M734.166 710.387l-18.234-187.885-48.345 221.35 49.212-10.027z"/><path fill="#859a95" fill-opacity=".945" d="M70.624 635.214l101.563-447.247 185.47 40.66-221.352 215.61z"/><path fill="#557865" fill-opacity=".573" d="M761.778 343.26l-157.303 35.932-102.828-58.093 100.057-139.62z"/><path fill="#b1815f" fill-opacity=".996" d="M83.67 933.883L77.884 1086l122.741-34.516L40.941 789.269z"/><path fill="#fffeb0" fill-opacity=".255" d="M-62 58.566v97.921L124.689 184.6-52.44 312.445z"/><path fill="#f8fffd" fill-opacity=".624" d="M621.148 1016.853l-49.25-97.35-4.342 13.41L607.978 1086z"/><path fill="#3e331b" fill-opacity=".533" d="M190.988 709.341l-119.567-5.913 38.398 58.627 138.526-.988z"/><path fill="#000e67" fill-opacity=".306" d="M587.428 790.02l23.57 42.876L898 759.602l-81.058-13.389z"/><path fill="#002f98" fill-opacity=".31" d="M225.496 584.671L115.604 690.874l-64.336-56.047 149.72-256.107z"/><path fill="#150b00" fill-opacity=".506" d="M494.522 39.098l-79.158-9.927-14.045 13.705 28.124 112.728z"/><path fill="#212f64" fill-opacity=".965" d="M337.445 645.482l14.028-92.228-3.689 111.802 210.156 4.202z"/><path fill="#a0aaaf" fill-opacity=".976" d="M277.192 558.097l-22.268 92.78 77.2-33.366-98.19-30.593z"/><path fill="#5a5c53" fill-opacity=".471" d="M188.932 197.472l190.9 3.07-349.994-52.486 115.288 118.145z"/><path fill="#f6ded4" fill-opacity=".431" d="M406.84 410.045l36.96-14.348-52.71 96.416 5.889-91.447z"/><path fill="#336aaf" fill-opacity=".776" d="M540.31 351.925l204.08 196.561-291.16-47.615-11.528-99.303z"/><path fill="#0d225f" fill-opacity=".886" d="M257.509 883.633l150.12-199.265-156.896 174.26-89.231 133.87z"/><path fill="#beccc2" fill-opacity=".416" d="M356.878 227.797L178.492 199.98l193.55 133.174-13.051 2.76z"/><path fill="#315595" fill-opacity=".984" d="M405.747 572.027L185.12 497.474l111.26 105.23-94.018 1.309z"/><path fill="#1e65c9" fill-opacity=".4" d="M568.546 950.295l8.194-223.276-88.138-28.613-1.936 371.042z"/><path fill="#ffc693" fill-opacity=".263" d="M683.06 707.238L671.18 1086l35.22-106.567 2.328-157.276z"/><path fill="#6383fd" fill-opacity=".961" d="M51.894 975.207l-36.545 73.9 59.698-5.503 3.72-56.541z"/><path fill="#000609" fill-opacity=".698" d="M852.163-35.492L667.7-62 898 361.967l-65.186-27.014z"/><path fill="#1d4590" fill-opacity=".651" d="M526.896 905.954l-251.271 30.342 174.294-47.033 98.758-285.716z"/><path fill="#000328" fill-opacity=".408" d="M249.741-62l2.196 188.072L125.3 137.133l227.99 72.311z"/><path fill="#390a09" fill-opacity=".427" d="M583.01 210.91L572.792-62 767.243 74.862 719.64 255.974z"/><path fill="#31301d" fill-opacity=".592" d="M31.45 508.104l77.678-10.036-58.05 113.72-27.006-85.72z"/><path fill="#536487" d="M538.293 575.802l-6.07-62.277-44.94 4.276 29.64 140.86z"/><path fill="#274990" fill-opacity=".627" d="M483.638 405.446L416.21 544.494l-63.217-199.345-.004 209.52z"/><path fill="#fcfce1" fill-opacity=".392" d="M547.374 618.273l-174.965 44.47 144.294-43.249 5.14 52.614z"/><path fill="#213269" fill-opacity=".996" d="M384.992 661.442l-1.589-65.01-22.85 61.858 289.997 19.46z"/><path fill="#feebe8" fill-opacity=".376" d="M318.405 381.873l-100.602 31.47-1.859 8.218 80.656-9.86z"/><path fill="#537cda" fill-opacity=".722" d="M621.883 995.666l-72.368-110.437-10.502 120.951 56.71-137.63z"/><path fill="#aa7d5b" fill-opacity=".886" d="M469.744 89.366l-46.59 122.624 100.772-89.849-21.188-49.164z"/><path fill="#3770b5" fill-opacity=".902" d="M226.313 922.815l253.397 6.924-231.727 89.935-52.689-73.206z"/><path fill="#698878" fill-opacity=".478" d="M36.184 377.978l-67.688 133.879 148.665-39.339 232.65-171.173z"/><path fill="#c8d3ef" fill-opacity=".522" d="M571.433 969.654l7.356-205.845 28.018 113.548-3-76.184z"/><path fill="#485736" fill-opacity=".518" d="M769.844 570.11L622.448 337.467l84.208 25.188 35.13 445.142z"/><path fill="#996238" fill-opacity=".824" d="M130.984 1012.839l-10.487-39.885 7.73-154.07-89.24-119.014z"/><path fill="#090e11" fill-opacity=".722" d="M894.742 421.202l-132.997 10.024 32.033 346.101L898 632.805z"/><path fill="#fdffeb" fill-opacity=".302" d="M220.983 651.182l156.949-60.295 208.8 30.464-221.415-14.244z"/><path fill="#273f79" fill-opacity=".612" d="M453.85 500.4l-6.098 232.654 38.668-228.719 8.815 92.023z"/><path fill="#111215" fill-opacity=".369" d="M78.067 674.736l156.352 30.96-46.857-213.885-18.874 170.098z"/><path fill="#5784ff" fill-opacity=".682" d="M213.64 788.114l-83.632-6.99-3.561 147.358 73.442-90.917z"/><path fill="#2d457e" d="M419.261 578.04l31.606 17.33-50.442-48.24 3.525 109.22z"/><path fill="#0b0800" fill-opacity=".431" d="M464.546 327.433l-45.998-11.127-30.994-11.404 27.298 51.386z"/><path fill="#0c33f2" fill-opacity=".4" d="M872.544 772.518l-172.176 5.808 11.442 30.668 134.248-4.803z"/><path fill="#161521" fill-opacity=".557" d="M30.98 758.934L-62 760.82l56.237-32.863 39.065-23.547z"/><path fill="#293b61" fill-opacity=".992" d="M281.136 653.216l-1.53-101.253 12.12 96.1-179.296 34.163z"/><path fill="#faf879" fill-opacity=".153" d="M487.843 16.61l110.855 33.457-84.78-2.938-231.253-14.462z"/><path fill="#b8714f" fill-opacity=".333" d="M420.706 108.054l-40.09-20.974 49.487 173.51-129.107-50.671z"/><path fill="#081959" fill-opacity=".51" d="M457.618 838.632l34.698-146.115-73.16-11.186-154.611 64.379z"/><path fill="#0f3683" fill-opacity=".447" d="M504.65 571.216l181.79 106.23-7.782-222.615-164.641 183.865z"/><path fill="#3063a5" fill-opacity=".851" d="M241.53 380.888l-207.1 254.33L82.362 663.2l56.252-218.744z"/><path fill="#5a3f0a" fill-opacity=".224" d="M143.607 241.596L3.062 317.538l274.02-281.526-105.267 9.932z"/><path fill="#f8fefb" fill-opacity=".373" d="M665.584 752.692l-57.393 8.627 75.605 10.647 51.587-46.285z"/><path fill="#808742" fill-opacity=".22" d="M206.451 641.609l5.04 240.431 39.127-140.885-149.532-21.98z"/><path fill="#fefdd9" fill-opacity=".42" d="M439.93 653.647l66.509-47.12 2.845 36.92-86.636-27.135z"/><path fill="#71795c" fill-opacity=".337" d="M765.22 166.992l102.047 151.76-368.515-10.986 170.224 115.037z"/><path fill="#1b1b48" fill-opacity=".416" d="M590.726 819.89l44.596-229.274 8.473 13.7-46.422-51.785z"/><path fill="#d3f5ff" fill-opacity=".263" d="M558.25 650.962l6.749-56.922-18.779 61.65 61.431 97.487z"/><path fill="#1f3335" fill-opacity=".275" d="M898 176.68l-252.57 21.363L385.496-62l290.406 347.322z"/><path fill="#333027" fill-opacity=".533" d="M768.322 717.44l-161.67 97.424 131.569-48.667L898 785.667z"/><path fill="#564f3c" fill-opacity=".424" d="M361.338 146.676l133.642 46.85L617.954-62l-36.768 226.738z"/><path fill="#bcb7aa" fill-opacity=".369" d="M358.127 669.178l-36.833 9.402-58.49-18.023-16.077 22.54z"/><path fill="#122251" fill-opacity=".525" d="M242.84 589.278l-2.917 56.77-126.926-83.797 151.9 74.972z"/><path fill="#ac794d" fill-opacity=".647" d="M491.334 370.568l-62.44 41.494-7.408-7.912 83.969-176.636z"/><path fill="#000ee1" fill-opacity=".314" d="M205.976 758.686l-68.093-1.754-14.101 6.33 12.665 52.127z"/><path fill="#011c69" fill-opacity=".525" d="M487.59 874.327l25.972-16.12-65.925 60.398-86.446-.335z"/><path fill="#f5fff9" fill-opacity=".325" d="M234.76 618.408l22.427-48.2-8.515-3.09-20.308 9.508z"/><path fill="#ffffaf" fill-opacity=".129" d="M745.52 568.79l-1.77-103.253-48.89.922-26.783 27.146z"/><path fill="#ffc08f" fill-opacity=".212" d="M535.672 202.03l-152.45 57.326 104.064-19.389 1.878-177.096z"/><path fill="#484d44" fill-opacity=".82" d="M541.62 205.214l-26.51 39.234 1.56 60.942 29.893 26.909z"/><path fill="#d9e9fe" fill-opacity=".408" d="M134.363 715.166L40.8 649.976l15.434-29.71-5.814 63.614z"/><path fill="#3773be" fill-opacity=".541" d="M555.37 913.95l34.545-174.557-102.02 116.534 116.268 214.33z"/><path fill="#fdfedf" fill-opacity=".176" d="M502.759 570.94l10.756 11.968 28.184-127.637-51.414 98.434z"/><path fill="#9fb1a2" fill-opacity=".471" d="M209.582 282.434L97.937 255.206l-50.84 49.621 159.951 50.878z"/><path fill="#fffcd6" fill-opacity=".376" d="M567.734 654.066l-33.228-46.659-12.219 47.164 41.075-45.058z"/><path fill="#0a0c00" fill-opacity=".275" d="M676.811 784.155l-79.42-8.279-143.826-157.029 198.27 210.26z"/><path fill="#b2b5ff" fill-opacity=".753" d="M-.558 1086L64 951.383-62 783.069 46.06 956.582z"/><path fill="#577efc" fill-opacity=".839" d="M708.881 966.832l-5.4-194.81L865.42 1086H665.246z"/><path fill="#74b3fe" fill-opacity=".243" d="M510.131 443l33.423-107.544-22.745-21.916-52.947 83.265z"/><path fill="#25170c" fill-opacity=".639" d="M421.803 23.245l42.467 109.432-64.365-53.319-73.619 22.157z"/></svg>