<svg xmlns="http://www.w3.org/2000/svg" width="228" height="278" viewBox="0 0 836 1024"><path fill="#784b53" d="M0 0h836v1024H0z"/><g fill-opacity=".502"><path fill="#ffcef2" d="M474 1086L54 978l512-784z"/><path fill="#fff" d="M298 742L194 382l124-84z"/><path d="M898 682L442-50 898-2z"/><path fill="#001f21" d="M-18 758L-62-62h556z"/><path fill="#b00" d="M434 718L322 310l4 776z"/><path fill="#7e0000" d="M898 678L590 318l-140 760z"/><path fill="#f1ffff" d="M398 390l184-140-148 712z"/><path fill="#cc0004" d="M134 1086l108-744L14 870z"/><path fill="#1f0000" d="M230 514l52 304-108-116z"/><path fill="#010000" d="M678 838l84-260-224-176z"/><path fill="#cf0008" d="M406 910l8-616-108 228z"/><path fill="#d9f0ff" d="M530 758l-80-404-72 732z"/><path fill="#fff" d="M226 374l136-112-88 392z"/><path fill="#e2f2ff" d="M154 1078l196 8-160-364z"/><path fill="#9d0000" d="M338 586l68 336-100 164z"/><path fill="#0087ea" d="M806 742l-96 212 188-104z"/><path fill="#ff4d4f" d="M150 410l-28 268 144-360z"/><path fill="#c3121f" d="M550 302l-64 784 148-352z"/><path fill="#df8d4f" d="M474 90l-136 68-32 376z"/><path fill="#9893c4" d="M622 210l120 268-252-284z"/><path fill="#d2f7ff" d="M326 714l-64 116 40 196z"/><path fill="#00111b" d="M66 750l-128 336 48-576z"/><path fill="#09191c" d="M898 646L514 142 850-62z"/><path fill="#faffff" d="M450 1086H338l152-300z"/><path fill="#e30c17" d="M558 306l128 32-156 172z"/><path fill="#f7ddb3" d="M690 866l-60 76V834z"/><path fill="#6d8ac5" d="M598 174l80 108-212 52z"/><path fill="#151b17" d="M342 58l-12 264-288-68z"/><path fill="#ff676d" d="M462 338L306 558l12-152z"/><path fill="#2b1c1d" d="M562 946l336-4-356 144z"/><path fill="#fff" d="M562 326L410 518l16-168z"/><path fill="#3e1900" d="M486 230L334 366l156-40z"/><path fill="#f74642" d="M546 1086l-112-32 128-248z"/><path fill="#f1bd8d" d="M158 606l-16-92-56 180z"/><path fill="#c1cbfa" d="M514 834l8-400-120 284z"/><path fill="#00082b" d="M774 806l124-328-16 272z"/><path fill="#f59d81" d="M786 514l-60 32-80-220z"/><path fill="#30111d" d="M550 794l112 60 72-420z"/><path fill="#9e000f" d="M414 462L314 678l84 260z"/><path fill="#c2d9ff" d="M302 538l-40 180 64 132z"/></g></svg>