<svg xmlns="http://www.w3.org/2000/svg" width="228" height="278" viewBox="0 0 836 1024"><path fill="#895349" d="M0 0h836v1024H0z"/><g fill-opacity=".502"><path fill="#fff" d="M810 834l84 252-376-104zm-872 172L74 834l292 252z"/><path fill="#c60009" d="M242 1086l-20-764 548 112z"/><path fill="#154f26" d="M598-62l300 76-92 912z"/><path fill="#7f0000" d="M658 642l-136 444-344-440z"/><path fill="#ff8687" d="M482 386L670 50-62 558z"/><path fill="#235241" d="M6-62L-6 454l508-224z"/><path fill="#fff" d="M182 858l76 228-320-104zm476-16l-56 244 296-136z"/><path fill="#ff1233" d="M222 1006l-8-236 496 316z"/><path fill="#edffff" d="M602 534l-80-60 104-28z"/><path fill="#325628" d="M206 874l52-428-280 428z"/><path fill="#e90e2a" d="M338 306l392 96L90 522z"/><path fill="#fff" d="M182 450l-84-4 136-96z"/><path fill="#e1d5ac" d="M646 62l-236-4 128-92z"/><path fill="#2f442a" d="M898 874l-216-12 76-772z"/><path fill="#7d000c" d="M314 426l276 660-480-616z"/><path fill="#f1ffff" d="M18 1086l216-88-296-180z"/><path fill="#d6af74" d="M346 622l160-64 24 96z"/><path fill="#f3ffff" d="M442 1086l396-224 52 176z"/><path fill="#ffdbc8" d="M14 574l204-168-280 124z"/><path fill="#c8ae86" d="M406 318l220-76-100-136z"/><path fill="#ff2f4c" d="M546 454l36-160 156 160z"/><path fill="#52715d" d="M434-62l-4 236L-62 10z"/><path fill="#580b0d" d="M730 442L562 554l-56 324z"/><path fill="#647f51" d="M-62 978l12-416 288-16z"/><path fill="#da9c75" d="M586 1086l4-224 116-192z"/><path fill="#9cff6f" d="M630 594l72 60-4-96z"/><path fill="#1b4822" d="M598 306l52-168 28 220z"/><path fill="#8f0211" d="M258 830l324-196-32 400z"/><path fill="#251b0b" d="M650 174l-112 28-8-36z"/><path fill="#483a26" d="M374 210l-68-84 304-48z"/><path fill="#e4c59e" d="M490 386l-64-44 28-156z"/><path fill="#9a9e93" d="M302 30l-68 100-36-192z"/><path fill="#dd142b" d="M78 462l212-8-156 68z"/><path fill="#bb061c" d="M586 430l-168-4 4 196z"/><path fill="#ff2f45" d="M494 970l-216 116 32-172z"/><path fill="#393c35" d="M122 450L66 18-62 446z"/><path fill="#f4fbff" d="M354 486h60l-48 20z"/><path fill="#ebffff" d="M198 366l28 44-120 44z"/></g></svg>