<svg xmlns="http://www.w3.org/2000/svg" width="228" height="278" viewBox="0 0 836 1024"><path fill="#41341b" d="M0 0h836v1024H0z"/><path fill="#9e652a" fill-opacity=".569" d="M-11.248 529.81L523.157 43.674l82.719 428.732-151.443 520.687z"/><path fill="#0a1605" fill-opacity=".827" d="M-62 403.649L40.093-1.207l365.403-32.501 3.807 364.618z"/><path fill="#020000" fill-opacity=".796" d="M657.571-52.886L898 212.162v313.864l-364.855-173.65z"/><path fill="#d7cd61" fill-opacity=".4" d="M807.83 746.789L898 848.627l-267.426-27.392 91.115-428.247z"/><path fill="#f0d0b9" fill-opacity=".373" d="M402.764 81.566l202.038 44.483-26.092 87.36-151.606 155.519z"/><path fill="#fbc9a8" fill-opacity=".486" d="M200.225 653.116l-130-214.824L34.49 525.98l125.012 196.163z"/><path fill="#070e10" fill-opacity=".643" d="M494.368 650.879L898 1086 439.272 812.554l90.896-536.217z"/><path fill="#000f0b" fill-opacity=".757" d="M240.555 603.228l-53.22 24.693-67.432-199.92 136.36 35.043z"/><path fill="#121b16" fill-opacity=".992" d="M-14.909 916.531L707.109 1086 212.323 849.89-39.974 386.462z"/><path fill="#16140c" fill-opacity=".878" d="M343.716 902.964l-5.543-168.446 85.09-378.214-70.292 638.834z"/><path fill="#ac8f7c" fill-opacity=".604" d="M241.116 524.942l328.034 21.296 45.949 193.929-124.007-145.582z"/><path fill="#d59125" fill-opacity=".694" d="M203.61 758.813l-45.987 87.692 169.086-6.247 28.391 80.2z"/><path fill="#fec35a" fill-opacity=".557" d="M191.58 385.461l86.933 27.094-216.876 47.54L240.25 292.696z"/><path fill="#fe8c09" fill-opacity=".482" d="M331.479 342.693l66.259 11.286-98.219 576.796 12.67-550.573z"/><path fill="#121005" fill-opacity=".792" d="M270.186 847.808l-24.562-92.976 8.726-25.715L358.637 39.88z"/><path fill="#162438" d="M472.345 951.037L535.119 1086H898l-36.52-251.65z"/><path fill="#aa703c" fill-opacity=".722" d="M623.195 318.913l-61.627 305.511 205.855 107.893-277.711-32.425z"/><path fill="#fb6f00" fill-opacity=".439" d="M485.726 541.592L395.31 761.545l32.315-395.357 67.12 40.45z"/><path fill="#ffa815" fill-opacity=".537" d="M242.843 640.824l15.825-246.438 29.056 130.996-28.197 183.015z"/><path fill="#f9992a" fill-opacity=".471" d="M776.09 627.565L562.555 349.972l-27.001 50.055 205.77 64.05z"/><path fill="#103886" fill-opacity=".576" d="M265.565 1086L-62 1070.086l19.785-141.188 195.933 11.683z"/><path fill="#000200" fill-opacity=".808" d="M846.935 775.01L758.57 543.078l-49.396-309.15L898 96.301z"/><path fill="#f08d00" fill-opacity=".506" d="M528.375 786.105l.767 146.328-72.824-112.11 15.373 154.803z"/><path fill="#1e1f10" fill-opacity=".918" d="M420.713 239.217l-185.88-38.018 216.973 170.605-82.999 184.38z"/><path fill="#212e0d" fill-opacity=".996" d="M104.601 65.392l111.42 132.613L23.903 527.083l-31.789-97.089z"/><path fill="#2d1b02" fill-opacity=".631" d="M696.705 667.102L590.282 480.898l157.008 84.897-250.702 78.876z"/><path fill="#110900" fill-opacity=".835" d="M496.807 696.914l-5.942-166.209-55.77 284.886-6.41 133.292z"/><path fill-opacity=".494" d="M664.705 88.63l-384.57 7.8L-56.14-2.438 898-62z"/><path fill="#f5a731" fill-opacity=".62" d="M311.088 1086l-17.812-94.436 51.86-11.517L354.244 1086z"/><path fill="#a35104" fill-opacity=".945" d="M368.478 783.036L480.151 544.04l-70.734 405.93-37.263-26.462z"/><path fill="#83a8c5" fill-opacity=".471" d="M514.933 576.032L266.01 547.169l186.007-16.07 136.398 35.709z"/><path fill="#161c12" d="M289.125 323.416l-178.82-21.772 233.113-15.29-61.978 226.313z"/><path fill="#9c5e0e" d="M625.274 537.083l8.016-45.302 37.91-114.065-26.532 12.108z"/><path fill="#090c06" fill-opacity=".627" d="M494.458 381.988l9.245 151.276 19.06 23.756 14.607-211.01z"/><path fill="#3e1c01" fill-opacity=".855" d="M708.31 36.91L855.367-62l-17.87 202.274-137.798 55.463z"/><path fill="#1f2213" fill-opacity=".945" d="M270.139 407.863L116.062-62l106.822 399.51-41.825 42.352z"/><path fill="#fc8c02" fill-opacity=".357" d="M614.477 379.368l-73.65-31.674-22.718 260.838 7.238-40.297z"/><path fill="#a1c0e8" fill-opacity=".459" d="M730.563 547.768l-16.397-86.443 19.18-35.687 16.715 65.085z"/><path fill="#f2bb9f" fill-opacity=".353" d="M217.09 706.031L37.218 500.766 136.064 669.9l138.602-81.65z"/><path fill="#fee0d6" fill-opacity=".282" d="M393.612 170.7l109.24-5.316-107.064 191.942 34.188-132.631z"/><path fill="#58ff05" fill-opacity=".294" d="M619.474 753.468l41.543 77.403 83.717 12.654 38.608-77.417z"/><path fill="#051200" fill-opacity=".369" d="M558.624 991.006l100.333-229.092 147.718-3.924-289.396-66.454z"/><path fill="#3d2e1a" fill-opacity=".667" d="M566.08 153.069l-180.81-6.274 147.868 31.265 251.43-201.808z"/><path fill="#e9ccb7" fill-opacity=".388" d="M114.582 438.886L21.497 512.85l92.316-107.66 121.805-94.303z"/><path fill="#c35f00" fill-opacity=".576" d="M319.582 877.596l37.543-231.524-54.588-76.036-28.601 198.652z"/><path fill="#020500" fill-opacity=".796" d="M436.851 871.655l-7.786 113.623L211.896 1086H501.29z"/><path fill="#52777b" fill-opacity=".502" d="M768.587 652.572l5.358-70.64-1.964 273.652L898 864.574z"/><path fill="#b87d50" fill-opacity=".659" d="M499.876 680.23l7.3-52.977 129.953 110.218 120.792-78.082z"/><path fill="#060e0a" fill-opacity=".486" d="M293.242 633.734L271.315 764.79 7.074 620.32l197.488 172.685z"/><path fill="#000100" fill-opacity=".773" d="M327.677-62l93.34 292.171-2.512 14.674L177.857 137.5z"/><path fill="#050805" fill-opacity=".8" d="M633.12 468.41l-56.662 137.911 33.914-199.566.802-93.025z"/><path fill="#141f1b" d="M255.121 853.156l-77.027-12.925L231.004 1086l122.541-183.086z"/><path fill="#b8936d" d="M54.46 491.73l15.135 104.632 64.837-82.188 30.524 76.145z"/><path fill="#e58f00" fill-opacity=".51" d="M118.397 431.12l9.403-34.507 157.068 10.31-3.664 42.518z"/><path fill="#756545" fill-opacity=".624" d="M524.057 345.658l87.64-262.505L383.185-62 586.768 39.147z"/><path fill="#000b0a" fill-opacity=".643" d="M50.298 384.645l75.773-12.272L-62 637.543 6.356 95.176z"/><path fill="#fc7300" fill-opacity=".239" d="M445.522 870.883l10.115 91.146 31.326-16.87 32.368-317.327z"/><path fill="#8a6741" fill-opacity=".792" d="M565.12 212.145l-101.77 30.498-16.52 124.332 83.099.635z"/><path fill="#1b1d11" fill-opacity=".663" d="M131.59 498.418l42.834 119.425 95.06-146.066-150.103-43.51z"/><path fill="#999791" fill-opacity=".78" d="M385.51 550.125l-70.421-44.882-12.553 22.682 43.388 34.759z"/><path fill="#8d5621" fill-opacity=".941" d="M699.41 668.976l-52.712 27.334 111.896-58.696-116.042-104.558z"/><path fill="#70a422" fill-opacity=".294" d="M118.058 287.244l17.515 64.953-71.842-1.586-27.305-130.113z"/><path fill="#ffe5bb" fill-opacity=".176" d="M553.223 108.537L408.137 52.77l.952 169.147 23.326-74.52z"/><path fill="#000404" fill-opacity=".718" d="M407.905 377.996l345.428-49.138L647.503-62 540.412 388.191z"/><path fill="#607b8f" fill-opacity=".663" d="M124.95 1006.07l14.462 64.207 65.458-35.697-18.587-51.39z"/><path fill="#bb6800" fill-opacity=".663" d="M636.659 431.25l12.818 60.367 103.472 89.676-62.236-129.09z"/><path fill="#e39926" fill-opacity=".463" d="M176.294 798.124l-9.299 21.1 91.792 37.482-24.097-99.139z"/><path fill="#d1c2c2" fill-opacity=".298" d="M472.365 531.324l-173.702 14.562 257.088.098 32.835 123.47z"/><path fill="#1f2a25" fill-opacity=".898" d="M184.695 989.34l19.513-212.16-43.666 111.987 165.44 164.738z"/><path fill="#132458" fill-opacity=".745" d="M842.898 1043.244L472.505 1086l51.284-128.581 346.735 21.73z"/><path fill="#102308" fill-opacity=".337" d="M347.87 1017.001l421.793-214.515L898 981.39l-182.39-49.823z"/><path fill="#0c0500" fill-opacity=".58" d="M347.774 943.813l39.309-101.394-57.614-31.62 79.648-246.92z"/><path fill="#f09d0c" fill-opacity=".541" d="M417.798 956.453l15.385-55.862-46.377 7.652-11.347 18.08z"/><path fill="#89430e" fill-opacity=".498" d="M187.878 682.061L78.238 478.75l135.312-14.232-90.143 53.95z"/><path fill="#cc6908" fill-opacity=".973" d="M482.276 523.561l-67.196-.172 15.279-119.511 70.11-13.061z"/><path fill="#3a3e35" fill-opacity=".729" d="M720.152 363.975L444.528 227.83l249.706 135.947 27.307 87.876z"/><path fill="#ffb62a" fill-opacity=".569" d="M310.341 392.151l69.986 57.604 13.501-37.993-1.928-13.898z"/><path fill="#131307" fill-opacity=".855" d="M645.828 499.467l97.749 73.072-39.722 10.457-41.113-33.829z"/><path fill="#af4b02" fill-opacity=".714" d="M484.016 547.641l-33.507 190.643-16.49-223.363-53.628 202.615z"/><path fill="#283021" fill-opacity=".604" d="M898 730.769l-111.366 16.463-2.101-30.995-15.259-144.152z"/><path fill="#0f1206" d="M487.108 1009.558l30.003-41.878L535.323 1086l-38.81-251.746z"/><path fill="#1d0000" fill-opacity=".384" d="M549.248 438.126L412.11 478.732l-.098 94.01-15.416-120.79z"/><path fill="#b87655" fill-opacity=".471" d="M757.016 528.752l25.322 165.296-65.755 13.39-35.329.444z"/><path fill="#e0e3fd" fill-opacity=".506" d="M154.94 397.207l-16.43-11.067 54.566-29.945 2.675 14.77z"/><path fill="#030803" fill-opacity=".843" d="M507.062 958.446L350.107 1086l4.21-293.471 26.916 166.654z"/><path fill="#ff9600" fill-opacity=".294" d="M537.95 828.705l-23.665 105.702-11.224-76.817 46.202-79.69z"/><path fill="#a44d00" fill-opacity=".851" d="M517.315 549.91l70.428-96.65 2.555 85.408 3.637-3.836z"/><path fill="#010101" fill-opacity=".984" d="M648.676-35.146l-97.949 9.654 63.391 138.657 142.573 365.79z"/><path fill="#977853" fill-opacity=".737" d="M590.206 209.69l6.505-116.206-45.875 181.835-128.648 17.296z"/><path fill="#030000" fill-opacity=".208" d="M264.076 689.054L675.64 928.558l-106.9-251.617L356.342 790.06z"/><path fill="#f3af20" fill-opacity=".553" d="M368.458 826.616l69.134 56.413-31.584-44.99-39.541-30.66z"/><path fill="#e97d0a" fill-opacity=".506" d="M362.43 644.12l5.353-53.453-62.18-6.195-15.032 81.558z"/><path fill="#ad7859" fill-opacity=".867" d="M167.387 703.902l-4.002-69.053 94.328-26.98-61.683 110.5z"/><path fill="#feae1a" fill-opacity=".439" d="M270.507 644.955l-3.985-37.073-32.292-8.016 48.081-160.41z"/><path fill="#cea882" fill-opacity=".439" d="M428.903 114.273L417.575 281.47l-6.918 58.62 58.81 30.126z"/><path fill="#302401" fill-opacity=".478" d="M449.669 294.377l52.798.807-47.591 86.896 26.533-42.532z"/><path fill="#140001" fill-opacity=".345" d="M515.372 574.87l-65.999 159.655 77.53-130.543-109.716-37.577z"/><path fill="#000201" fill-opacity=".58" d="M82.288-62l337.245 409.613L302.62 332.27 467.51-62z"/><path fill="#d7b2ae" fill-opacity=".329" d="M499.193 617.36l53.774 38.274 29.788-44.278-45.468 86.972z"/><path fill="#000f00" fill-opacity=".369" d="M690.155 618.001l-66.28-50.952-22.634 95.478 90.217-5.324z"/><path fill="#060401" fill-opacity=".761" d="M434.12 883.804l-13.278-44.927 64.774-127.774-41.966 154.07z"/><path fill="#010605" fill-opacity=".427" d="M291.454 891.272l-41.857-126.936 78.234-503.261-49.33 476.356z"/><path fill="#c78206" fill-opacity=".675" d="M448.501 826.405l42.546 115.837-23.228 17.72-12.25-52.098z"/><path fill="#8aeb3d" fill-opacity=".153" d="M791.04 846.087l-144.12 5.288-27.122-88.21 190.967-1.58z"/><path fill="#ffda56" fill-opacity=".341" d="M204.544 785.154l167.732 130.44-184.13-138.06-30.072 86.992z"/><path fill="#010505" fill-opacity=".557" d="M340.002 873.816l13.2-182.317 16.161-97.01 46.1-45.457z"/><path fill="#683600" fill-opacity=".388" d="M700.542 723.615l113.582-61.72-80.073 103.914-262.834-73.914z"/><path fill="#051413" fill-opacity=".475" d="M99.222 959.704L-62 959.993V695.029l275.956 25.74z"/><path fill="#040201" fill-opacity=".463" d="M568.685 165.223l11.352-100.08 13.255 180.416L898 319.044z"/><path fill="#d7b083" fill-opacity=".369" d="M51.455 466.684L179.59 669.406l-21.095 38.348-116.98-157.317z"/><path fill="#c56a00" fill-opacity=".471" d="M290.976 871.803l-17.33-102.226 63.932 55.14-8.817 49.4z"/><path fill="#d89a60" fill-opacity=".4" d="M167.909 476.9l-115.52-10.738 100.434-87.189-58.019 56.244z"/><path fill="#c66702" fill-opacity=".745" d="M258.903 353.28l16.939 123.106-16.913 21.955 27.207-152.31z"/><path fill="#783700" fill-opacity=".71" d="M258.277 817.091l-10.029-55.802 1.591-106.326-51.182 102.87z"/><path fill="#070e08" fill-opacity=".596" d="M672.321 403.388l61.42 29.525-18.516 26.495-58.664-25.304z"/><path fill="#303a33" fill-opacity=".706" d="M208.379 377.387l10.246-66.328 165.777-42.878-198.075 93.54z"/><path fill="#635b41" fill-opacity=".71" d="M454.465 29.901l76.733-14.87-132.006-29.023L515.95-29.816z"/><path fill="#de8b0f" fill-opacity=".631" d="M546.84 375.954l60.47-6.913-12.006 55.405-57.474 3.082z"/><path fill="#2e4a2d" fill-opacity=".376" d="M898 867.69l-158.572-.587-40.674 73.31-87.629-147.147z"/><path fill="#a0a9aa" fill-opacity=".839" d="M489.482 550.905l-9.981-19.877-63.417 8.495 50.147 18.69z"/></svg>