<svg xmlns="http://www.w3.org/2000/svg" width="228" height="278" viewBox="0 0 836 1024"><path fill="#7f5048" d="M0 0h836v1024H0z"/><path fill="#ee7b60" fill-opacity=".714" d="M68.292 910.29l117.894-545.891 377.916-38.852L898 1086z"/><path fill="#00101a" fill-opacity=".725" d="M35.41 742.555l138.75-316.366L528.286-52.437-62 10.568z"/><path fill="#06141e" fill-opacity=".745" d="M571.873-46.3L878.786-1.148 898 712.843 584.025 363.884z"/><path fill="#b6d5fb" fill-opacity=".788" d="M673.586 876.614l8.643 167.4L898 1086l-51.59-462.43z"/><path fill="#2a3640" fill-opacity=".698" d="M771.132 839.482l50.042-320.157L688.15 370.138l-24.195 432.503z"/><path fill="#d34e2b" fill-opacity=".898" d="M612.954 1086l-399.32-28.651-31.318-617.232L297.343 467.9z"/><path fill="#e69489" fill-opacity=".867" d="M581.887 385.938l104.135 57.636-22.76 215.42-309.244-8.918z"/><path fill="#7796ae" fill-opacity=".992" d="M84.707 921.478L-26.795 744.579l127.9-50.141-11.93 121.056z"/><path fill="#202227" fill-opacity=".722" d="M543.022 222.95l293.884 361.418L35.363-62l95.73 476.988z"/><path fill="#fbf9e5" fill-opacity=".424" d="M582.753 129.74L398.745 79.502l50.104-27.29 113.459 9.438z"/><path fill="#001e2e" fill-opacity=".6" d="M57.39 853.39l55.026 121.9 115.91 36.799L-51.188 1086z"/><path fill="#73c7ff" fill-opacity=".439" d="M372.213 647.289l-13.525-47.677 285.52 8.086-4.509 67.163z"/><path fill="#cda4a3" fill-opacity=".71" d="M125.937 598.587l28.533-153.573 70.758-82.162-55.91 235.77z"/><path fill="#ff724d" fill-opacity=".557" d="M613.712 606.007L140.02 476.077l147.15-132.369 109.256-43.624z"/><path fill="#ed6643" fill-opacity=".875" d="M608.705 1086l56.324-401.723-241.968-16.853 7.027 256.756z"/><path fill="#9b2406" fill-opacity=".588" d="M282.19 509.415l-55.976 244.62 124.36-23.84 31.554-149.309z"/><path fill="#84685f" fill-opacity=".859" d="M401.394 372.913l95.137 52.318 58.763-31.936-161.712-162.07z"/><path fill="#1b1c20" fill-opacity=".808" d="M824.54-62L898 405.843 554.006 57.846l-203.558-20.26z"/><path fill="#2e9894" fill-opacity=".298" d="M222.38 968.602L205.918 816.33-62 828.258l46.036 90.62z"/><path fill="#9d9a87" fill-opacity=".431" d="M581.157 166.78L445.875 42.933l-42.82 145.288 159.62 94.66z"/><path fill="#2a282d" fill-opacity=".91" d="M-62 535.517l240.044-279.429-65.76 420.083-69.507 27.355z"/><path fill="#2b1b11" fill-opacity=".745" d="M443.58 226.75l-24.82 54.142 73.991 54.231 56.456-52.149z"/><path fill="#ff886c" fill-opacity=".647" d="M676.46 583.607l-20.32-180.02-288.402 57.456 35.782 135.253z"/><path fill="#d6e5ff" fill-opacity=".741" d="M898 700.46L697.633 1086l160.537-9.34-53.241-419.528z"/><path fill="#989ea3" fill-opacity=".549" d="M838.323 799.595l-223.8 95.744 105.71 188.937-66.441-281.05z"/><path fill="#27003e" fill-opacity=".357" d="M537.099 650.964l112.228 35.414-85.362-8.357-262.133-20.391z"/><path fill="#ff8d7a" fill-opacity=".471" d="M259.217 1039.632l-59.601-29.23 119.412-220.237-105.84 72.844z"/><path fill="#600500" fill-opacity=".506" d="M194.277 921.466l4.863 38.286 382.15 48.075-190.568-4.92z"/><path fill="#e35933" fill-opacity=".835" d="M108.01 779.057L228.517 424.68l73.007-64.82L190.58 840.814z"/><path fill="#9cdbff" fill-opacity=".51" d="M108.206 702.621l-55.026 38.37 1.822 124.942 21.09-1.696z"/><path fill="#f9e7f8" fill-opacity=".518" d="M626.707 493.717l-35.34-62.871-14.15 73.54 53.319 11.13z"/><path fill="#6b677b" fill-opacity=".678" d="M9.914 988.626L55.011 720.14l67.395-36.417-163.437-7.939z"/><path fill="#1d0d59" fill-opacity=".369" d="M577.574 610.48l-163.183-16.647 125.896-5.933L717.614 640z"/><path fill="#2c000a" fill-opacity=".329" d="M186.446 807.026l-.868-72.353 19.553 7.72 7.72 276.757z"/><path fill="#beddf7" fill-opacity=".537" d="M147.332 498.322l34.674 70.831-28.66 29.427-25.88 5.991z"/><path fill="#8b93a9" fill-opacity=".549" d="M787.163 675.323l49.385-57.38-62.253 281.045-29.794-8.308z"/><path fill="#3e3831" fill-opacity=".733" d="M458.067 148.175L391.078 27.502l-64.764 80.45 353.227 39.565z"/><path fill="#ff7f63" fill-opacity=".576" d="M449.488 994.772l-248.61-65.195 388.44 43.308-.816-164.78z"/><path fill="#060417" fill-opacity=".255" d="M383.844 431.526l79.13 4.664-52.747 29.708-107.306-37.65z"/><path fill="#fee8e1" fill-opacity=".325" d="M573.928 227.932l-57.552-101.606 57.594 38.346 13.982 24.933z"/><path fill="#bb2c00" fill-opacity=".376" d="M377.614 705.46L244.255 921.79l205.953-204.473 28.802-104.972z"/><path fill="#b19086" fill-opacity=".451" d="M517.92 419.52L349.913 173.389l74.738 46.468-53.368 111.973z"/><path fill="#ffb58d" fill-opacity=".275" d="M142.387 973.757l24.657-215.01 47.602 293.327 96.592-60.68z"/><path fill="#730000" fill-opacity=".333" d="M617.115 978.979l-84.845-11.09-121.646 63.491 187.347-40.899z"/><path fill="#c43c0e" fill-opacity=".412" d="M604.071 814.942l79.147-364.14.403 63.869-60.025 331.18z"/><path fill="#101013" fill-opacity=".506" d="M106.071 1086l43.62-107.595 61.706-1.91-7.312 71.44z"/><path fill="#ff8566" fill-opacity=".62" d="M435.8 504.455l241.64-68.701-70.845-41.907-38.74-16.948z"/><path fill="#3f414a" fill-opacity=".62" d="M666.983 801.308l2.01-202.024 216.824-39.608L684.922 815.75z"/><path fill="#2a282e" fill-opacity=".953" d="M898 663.405l-53.047-215.048-263.426-286.533-5.54 184.201z"/><path fill="#d04120" fill-opacity=".498" d="M336.683 500.13l96.39 103.996-49.495-2.238L146.732 483.58z"/><path fill="#49332b" fill-opacity=".659" d="M537.09 179.325l-15.279 1.697-92.534 102.982 116.994-81.87z"/><path fill="#d1dfff" fill-opacity=".486" d="M898 1086L682.809 928.386l-12.989-85.99 27.907-17.288z"/><path fill="#6a4a6e" fill-opacity=".914" d="M633.64 677.8l-156.794-10.593 28.24-61.898-5.355 44.89z"/><path fill="#ffe3d2" fill-opacity=".204" d="M570.283 106.728L530.458 8.074l-24.011 192.674-59.341-20.11z"/><path fill="#191b22" fill-opacity=".792" d="M380.65-62l-50.719 382.244L-62 251.357-36.49-62z"/><path fill="#ff7b5b" fill-opacity=".482" d="M93.239 954.839l263.674 61.082 292.097-13.27L546.305 1086z"/><path fill="#94765c" fill-opacity=".878" d="M674.124 931.855l-38.83 7.776L655.51 1086l24.811-31.58z"/><path fill="#ceeffc" fill-opacity=".416" d="M559.79 646.935l-122.961-44.028 178.853 12.316 12.24 66.322z"/><path fill="#998876" fill-opacity=".569" d="M541.825 384.255l6.348-94.426-25.449 12.002-22.84 116.216z"/><path fill="#cac1cb" d="M374.063 599.757l69.402 21.377 13.83 32.484-81.402-1.38z"/><path fill="#310408" fill-opacity=".369" d="M493.856 422.924L397.3 367.711l12.472-2.063 108.565 53.35z"/><path fill="#24262e" fill-opacity=".78" d="M342.863 147.177L-62 404.759l297.283-41.022 150.623-60.66z"/><path fill="#f86641" fill-opacity=".737" d="M446.01 397.14l-51.135-32.818-45.585-55.389L195.325 479.58z"/><path fill="#1a1e25" fill-opacity=".435" d="M197.546 812.904l2.05 90.18-5.183 84.373 31.224-7.503z"/><path fill="#681425" fill-opacity=".369" d="M227.613 668.192l285.522-7.313 43.615-89.24-27.264 97.718z"/><path fill="#280009" fill-opacity=".408" d="M44.353 886.228l-15.886 67.31-90.467 27.2L121.366 1086z"/><path fill="#2c282f" fill-opacity=".757" d="M684.628 521.402l-11.959 84.818 165.047-23.41-175.473-272.134z"/><path fill="#656755" fill-opacity=".557" d="M133.91 1071.492l.518-221.133-55.762 36.658 32.298 159.852z"/><path fill="#95270f" fill-opacity=".686" d="M275.067 528.622l44.156-20.246-128.926 283.827 66.036-81.35z"/><path fill="#fec9bc" fill-opacity=".294" d="M406.055 299.892L169.738 408.886l175.136-92.993 72.726 34.498z"/><path fill="#ff8870" fill-opacity=".294" d="M360.498 897.338l260.509 47.413-1.503-113.252-240.587 38.095z"/><path fill="#c0a194" fill-opacity=".392" d="M414.646 66.236l168.84 18.741-150.595 60.976 11.708-98.089z"/><path fill="#931800" fill-opacity=".639" d="M351.011 975.878l-84.06-27.885 96.785 56.707 201.648-3.848z"/><path fill="#e46648" fill-opacity=".592" d="M83.181 840.538l28.31-23.664 51.037-8.683-34.593-220.753z"/><path fill="#df5226" fill-opacity=".514" d="M636.379 692.858l-72.084-17.155L649.19 883.28l25.571-25.662z"/><path fill="#413a34" fill-opacity=".973" d="M420.163 149.647L372.4 31.056l-17.552 151.242 18.241-23.45z"/><path fill="#8f8f9b" fill-opacity=".647" d="M13.198 858.246l13.189 46.892-78.08 131.736 65.678-328.57z"/><path fill="#d64a23" fill-opacity=".49" d="M421.163 628.166l-.044-47.123-30.752 260.213 81.682 11.558z"/><path fill="#902f14" fill-opacity=".718" d="M297.695 659.59L72.427 588.515l86.99 35.525 76.51 22.906z"/><path fill="#212222" fill-opacity=".259" d="M418.531 288.149l239.998-53.303L807.3 497.514l-295.268-153.82z"/><path fill="#ff7b5e" fill-opacity=".584" d="M485.5 684.252l-73.493 38.961 185.739 39.543-24.812-46.692z"/><path fill="#6d6785" fill-opacity=".557" d="M577.718 687.228l18.673-102.41-12.595 26.24-8.803 49.876z"/><path fill="#ff784f" fill-opacity=".404" d="M118.571 599.82l80.99 26.77 61.557 14.639 19.609-76.942z"/><path fill="#f36444" fill-opacity=".765" d="M451.976 1086l-236.08-132.778 27.425 5.807 86.464 29.006z"/><path fill="#6a605f" fill-opacity=".322" d="M759.707 607.166l40.474 143.54-50.264 95.103-48.207-201.743z"/><path fill="#423d42" fill-opacity=".569" d="M26.97 655.544l-88.97-319 75.348 372.182 138.106-31.936z"/><path fill="#bdcbec" fill-opacity=".71" d="M801.96 673.144L898 833.909 691.796 944.512 811.264 928.9z"/><path fill="#ff7051" fill-opacity=".459" d="M338.908 583.891l258.688 12.452-188.274-41.948-55.382-113.234z"/><path fill="#69594b" fill-opacity=".631" d="M419.127 283.678l5.135-45.286 122.93 38.342-153.69-113.572z"/><path fill="#fa7f61" fill-opacity=".843" d="M677.004 565.904l-4.783-128.725-341.894 39.24 274.997-65.815z"/><path fill="#a1402f" fill-opacity=".369" d="M226.605 560.733l-102.078-63.998 72.338-108.705-55.462 126.93z"/><path fill="#a99186" fill-opacity=".549" d="M500.579 188.946l12.488-31.431-137.987.612-23.544 5.368z"/><path fill="#022970" fill-opacity=".373" d="M607.795 668.595l-73.176-4.31 87.833 25.479 13.143-3.316z"/><path fill="#080e1f" fill-opacity=".235" d="M546.141 395.957l-67.92 51.44 85.015-92.463-.762-31.086z"/><path fill="#23272e" fill-opacity=".718" d="M399.313 232.114l1.17 58.471-25.44 25.379L37.037 304.49z"/><path fill="#f0fbfe" fill-opacity=".569" d="M523.545 608.86l-11.972 1.76-12.101 58.606 15.984-22.784z"/><path fill="#ff8870" fill-opacity=".322" d="M203.19 771.505l.969 108.675 86.22-55.78-29.249 84.468z"/><path fill="#ff6d4b" fill-opacity=".302" d="M214.444 938.694l334.131 48.263-203.429 7.65 124.582-118.806z"/><path fill="#740b0a" fill-opacity=".263" d="M478.113 584.7l-215.91 45.597 27.566-64.718 61.756 29.012z"/><path fill="#d3461c" fill-opacity=".663" d="M405.168 932.5l128.454 5.535-117.312 24.198-45.49-7.024z"/><path fill="#4f0000" fill-opacity=".38" d="M496.053 1007.727l111.928-11.705-222.231 2.103 127.242 15.308z"/><path fill="#c23f1d" fill-opacity=".706" d="M468.898 660.04l-182.863 15.23 46.968 96.66-204.857-.385z"/><path fill="#861936" fill-opacity=".576" d="M453.937 618.938l21.125 54.413-6.844-17.388-1.896-43.298z"/><path fill="#1c4856" fill-opacity=".431" d="M136.458 1074.868L8.318 847.653l22.047-20.203L162.693 1086z"/><path fill="#4c0006" fill-opacity=".271" d="M452.389 657.922L228.3 644.016l111.652-7.616 18.764 38.84z"/><path fill="#fd896e" fill-opacity=".824" d="M661.494 553.01l-5.372 69.182L364.428 449.83l178.258 14.74z"/><path fill="#f87a53" fill-opacity=".635" d="M668.005 837.54l5.045 21.614-28.697 28.07 7.803-300.627z"/><path fill="#201b19" fill-opacity=".71" d="M116.558 658.897l3.8-55.187-71.712-38.698-3.585 100.746z"/><path fill="#9a1e00" fill-opacity=".635" d="M327.396 1024.949L407.038 1086H189.27l85.516-76.114z"/><path fill="#1d1924" fill-opacity=".235" d="M328.913 427.4l150.241 17.939-75.979 4.138-71.558-1.904z"/><path fill="#1f0d00" fill-opacity=".357" d="M529.073 119.306l-62.206 17.892-28.178 11.864 66.857 1.62z"/><path fill="#9adefc" fill-opacity=".463" d="M82.163 711.196l4.111 94.947-.825 82.493-26.37-57.967z"/><path fill="#cf8061" fill-opacity=".871" d="M106.91 997.303l34.179-26.369 52.29 4.804-2.117-21.476z"/><path fill="#f5c5ad" fill-opacity=".196" d="M542.489 302.717l-49.61 108.171 50.686-19.375 1.367-59.079z"/><path fill="#f4e8ff" fill-opacity=".365" d="M623.724 475.519l-33.432-38.513 2.22 67.09 30.875 7.19z"/><path fill="#4c443d" d="M182.926 958.953L60.346 985.31l89.694-27.631-139.028-7.638z"/><path fill="#c9ddf1" fill-opacity=".392" d="M161.296 589.204l25.698-53.395-44.576-1.435-20.361 71.177z"/><path fill="#033ea2" fill-opacity=".271" d="M583.376 600.522l-120.917-1.777 123.63 13.99 54.107 2.46z"/><path fill="#fcf8f7" fill-opacity=".529" d="M425.246 621.272l-3.428-15.846 77.812-.233-40.914 5.337z"/><path fill="#8a8eab" fill-opacity=".376" d="M800.24 869.303l-133.069-38.33 27.492-42.831 109.496 40.533z"/></svg>