<svg xmlns="http://www.w3.org/2000/svg" width="228" height="278" viewBox="0 0 836 1024"><path fill="#585e63" d="M0 0h836v1024H0z"/><g fill-opacity=".502"><path fill="#fff" d="M110 754l212 276-260 24z"/><path fill="#ffff71" d="M490 1086l408-88-204-212z"/><path fill="#1a0500" d="M-2-62l-60 476L682-34z"/><path fill="#0e0000" d="M846-50L526-62l372 704z"/><path fill="#003f82" d="M170 842l308 244 252-672z"/><path fill="#1482cf" d="M870 570L714 322 46 358z"/><path fill="#ffae6b" d="M606 246L590 2 346 198z"/><path fill="#ff7961" d="M202 438l360 44-36 144z"/><path fill="#ffd668" d="M898 862l-224 224-112-232z"/><path fill="#c7d8c5" d="M454 742L130 626l336 20z"/><path fill="#f8ffff" d="M354 1086L134 770l-76 264z"/><path fill="#0979c0" d="M186 858l212 228-132-644z"/><path fill="#378bbb" d="M254 478l168-212L78 162z"/><path fill="#833e2c" d="M-62 406l408 36L22 910z"/><path fill="#9a5639" d="M670 554l228 296-320 28z"/><path fill="#002d48" d="M702 458L362 810l176 196z"/><path fill="#230b00" d="M898 342l-292-44V-62z"/><path fill="#0e0000" d="M270-62l132 308H246z"/><path fill="#fee7ff" d="M-62 1022l112 8-36-168z"/><path fill="#bc7739" d="M398 354l160 16L414 46z"/><path fill="#fffeb2" d="M-62 494V382l176-32z"/><path fill="#ffe380" d="M526 1086l84-228 288 144z"/><path fill="#4ba4e0" d="M766 374l132 372-324-464z"/><path fill="#d9bfac" d="M534 574l-268-36 92-80z"/><path fill="#00264f" d="M614 378l-320-52 172 112z"/><path fill="#1767c3" d="M278 1086L130 986l56-36z"/><path fill="#00256e" d="M602 614l-352-52 128 80z"/><path fill="#001b17" d="M174 374L-34 478l264-36z"/><path fill="#003b62" d="M566 494l188-24 40 192z"/><path fill="#150f08" d="M110 94V-62L658 62z"/><path fill="#866f66" d="M158 310l96-148-196-12z"/><path fill="#a86e69" d="M-54 738l208 52 108-200z"/><path fill="#fffffb" d="M90 822l52 244 16-308z"/><path fill="#f3bd96" d="M614 78L394 90l192 72z"/><path fill="#2b3024" d="M682 858l216-52-384-20z"/><path fill="#1377ac" d="M318 270l-72 320-40-312z"/><path fill="#d0ffff" d="M534 430l44 32 24-60z"/><path fill="#ac7269" d="M886 778L678 594l-92 188z"/><path fill="#06578d" d="M530 1086l60-224-444-68z"/><path fill="#110800" d="M62 850L38 974l68-104z"/></g></svg>