<svg xmlns="http://www.w3.org/2000/svg" width="228" height="278" viewBox="0 0 836 1024"><path fill="#7f7672" d="M0 0h836v1024H0z"/><g fill-opacity=".502"><path d="M-62 986l452-192 384 292z"/><path fill="#f7ffff" d="M234 610l592 232-888-52z"/><path fill="#fff" d="M42 454l220-212 508 188z"/><path fill="#e6faf9" d="M306 490l416-32-96-220z"/><path fill="#1f1f1d" d="M-62 142L46-62 786 94z"/><path d="M190 794l12 292 420-228z"/><path fill="#fff" d="M162 934L-62 702l260-16z"/><path fill="#fc4943" d="M258 658l-320 64L42 138z"/><path fill="#2e4139" d="M898 294L294 718l604-36z"/><path fill="#c1d1cc" d="M562 882l252-192 84 304z"/><path fill="#f5ffff" d="M550 210l132 380 76-80z"/><path fill="#f9ffff" d="M134 506L30 422l364-240z"/><path fill="#191a1f" d="M578 30l268 232-32-324z"/><path fill="#260b00" d="M442 366l124-96-212-28z"/><path fill="#869079" d="M190 346l24 348 684 204z"/><path fill="#030e20" d="M682 330l164 104 52 424z"/><path fill="#000003" d="M538 1050l36-192-636 60z"/><path fill="#dcf5ff" d="M-62 838l236-140-4 216z"/><path fill="#d10a09" d="M190 654L6 698l264-316z"/><path fill="#0d1714" d="M286 514l84 96 248-28z"/><path fill="#ff2034" d="M202 290l-264-24 164 140z"/><path fill="#c3c7c5" d="M614 686l-48 244 188 140z"/><path fill="#b97241" d="M766 790l-152 296 120-560z"/><path fill="#849dc0" d="M502 218l396 188-228-292z"/><path fill="#f6fefc" d="M378 474L174 278l176-72z"/><path fill="#101910" d="M574 722l148-56-136-212z"/><path d="M458 894l-288 8 32-116z"/><path fill="#829ca9" d="M90 70L-62 350l244-240z"/><path fill="#3b4a31" d="M26 582l304-136-92-48z"/><path fill="#dbd491" d="M334 610l-92 68-84-256z"/><path fill="#610f0b" d="M26 1086l-68-208 264 72z"/><path fill="#c9d9d9" d="M374 806l188 36-48-248z"/><path fill="#a6afa6" d="M706 446L362 546l84-192z"/><path fill="#fff" d="M646 294l-140-80 208 208z"/><path fill="#b1d9ed" d="M738 966l20-240 140-24z"/><path d="M542 326l20-52-56-68z"/><path fill="#3f2711" d="M298 218l16-60 196 16z"/><path fill="#c1d39f" d="M18 718l-80-96L74 486z"/><path fill="#054005" d="M714 970l76 116 108-92z"/><path fill="#b09270" d="M442 214L582-62l-84 400z"/></g></svg>