<svg xmlns="http://www.w3.org/2000/svg" width="228" height="278" viewBox="0 0 836 1024"><path fill="#929088" d="M0 0h836v1024H0z"/><path fill="#ebedff" fill-opacity=".682" d="M118.937 324.225L157.899 1086H597.24l-27.465-662.58z"/><path fill="#0d1c00" fill-opacity=".635" d="M856.747 279.731L599.62 493.916 592.995 1086 898 1017.584z"/><path fill="#47401f" fill-opacity=".635" d="M661.544 31.435L107.178 392.83l-88.12-246.46 93.77-162.094z"/><path fill="#dad9e3" fill-opacity=".882" d="M262.567 326.154L-31.38 994.02-62 786.288 98.39 409.093z"/><path fill="#283927" fill-opacity=".749" d="M157.007 761.257l-80.026-33.692L1.077 997.123 113.614 1086z"/><path fill="#e9e8f0" fill-opacity=".867" d="M898 166.859l-426.48 97.65 90.244 30.94 251.582-27.723z"/><path fill="#484f55" fill-opacity=".612" d="M226.333 654.655l-54.917-50.138 403.265-65.65-181.898 97.183z"/><path fill="#575d44" fill-opacity=".992" d="M897.5-62l-44.712 251.97-409.72-2.855 132.221 11.023z"/><path fill="#c75b51" fill-opacity=".612" d="M495.331 476.54L281.438 321.034 105.725 372.39 565.363 84.404z"/><path fill="#ccc7b3" fill-opacity=".655" d="M413.797-62L290.57 86.857 405.911 262.3l-68.838 41.391z"/><path fill="#5d6657" fill-opacity=".816" d="M577.053 678.202l89.958-378.327 61.724-1.305L627.615 1086z"/><path fill="#dbdee9" fill-opacity=".925" d="M122.15 1086l511.423-8.13-293.325-463.555L144.815 852.95z"/><path fill="#dfdde6" fill-opacity=".937" d="M277.387 314.915L504.523 516.85 16.23 561.57l15.384-66.294z"/><path fill="#161900" fill-opacity=".455" d="M697.224 1086l186.58-89.592-14.375-501.914-166.201 130.897z"/><path fill="#b4bcc2" fill-opacity=".741" d="M626.26 458.298l-43.51 120.304-103.65-41.287 68.592-283.39z"/><path fill="#0f2c04" fill-opacity=".306" d="M361.36 224.941L68.12-36.572l14.356 298.865 243.499 31.78z"/><path fill="#fe213b" fill-opacity=".537" d="M79.893 362.564l287.298-108.943L3.628 449.905l81.262 10.127z"/><path fill="#1b0300" fill-opacity=".353" d="M357.648 58.533l340.964 69.451L415.7-36.973l58.534 229.536z"/><path fill="#666b71" fill-opacity=".996" d="M456.336 598.456l53.752-7.151 14.32-69.919-32.909.94z"/><path fill="#677056" fill-opacity=".871" d="M117.706 302.745l-93.73 204.779-49.882-103.53L76.36 258.411z"/><path fill="#757c66" fill-opacity=".898" d="M627.917 212.609l84.12-98.718L838.658 52.71 564.095-43.992z"/><path fill="#f8081e" fill-opacity=".686" d="M111.902 368.304l167.239-47.336 84.586 57.682-66.066-100.828z"/><path fill="#162525" fill-opacity=".169" d="M106.062 684.952l-81.875-71.448 252.56 60.319-121.345-215.706z"/><path fill="#e9ece0" fill-opacity=".302" d="M395.675 376.718l37.755-126.097L898 282.832l-605.114 2.96z"/><path fill="#c79791" fill-opacity=".784" d="M579.155 188.89L478.93 111.404l38.3-24.753 101.535 30.228z"/><path fill="#101800" fill-opacity=".329" d="M679.083 211.23L888.64 39.716 842.604 192.06 467.96 178.832z"/><path fill="#f6f3fa" fill-opacity=".569" d="M213.821 334.713l-95.675 47.862-47.303 90.838 324.571-95.08z"/><path fill="#e7e8ed" fill-opacity=".933" d="M864.19 196.192L538.727 300.907l-21.506-39.987 234.061-72.134z"/><path fill="#dee1eb" fill-opacity=".804" d="M264.967 593.55l25.767 22.04 66.146 294.992-106.247-25.898z"/><path fill="#010507" fill-opacity=".314" d="M188.887 600.987l180.29-21.365L357.25 686.39l-13.603-84.018z"/><path fill="#7a424c" fill-opacity=".51" d="M431.111 441.288l57.103 26.154 10.673-10.263 31.643-121.764z"/><path fill="#dde0ec" fill-opacity=".851" d="M585.483 742.432l-145.95 219.582 27.042-461.798-26.023 81.901z"/><path fill="#f71026" fill-opacity=".62" d="M13.457 549.635L-23.8 635.472 37.923 573l.767-3.464z"/><path fill="#3f4a14" fill-opacity=".341" d="M683.92 399.96l17.86 398.701L898 276.426l-240.511 44.617z"/><path fill="#c00405" fill-opacity=".412" d="M225.98 434.699l-38.069-14.005 34.748 29.948 45.42 8.174z"/><path fill="#dfe2ec" fill-opacity=".725" d="M234.698 575.983l-91.472 69.559 151.062-231.2L508.18 552.06z"/><path fill="#cad4ba" fill-opacity=".549" d="M34.37-40.093l-76.481 84.781 86.749 205.613L-62 468.11z"/><path fill="#d6d9e3" fill-opacity=".827" d="M44.95 854.9l-88.819 179.227L-62 462.02 57.547 725.317z"/><path fill="#d9dee8" fill-opacity=".682" d="M312.119 615.982l125.752 263.27-46.9-470.923 52.16 266.32z"/><path fill="#e7eadd" fill-opacity=".392" d="M366.573 84.684l-2.38 100.292L321.47 73.874 463.16-62z"/><path fill="#343c22" fill-opacity=".498" d="M156.896 803.178L132 694.728 55.801 816.257-1.205 963.7z"/><path fill="#000001" fill-opacity=".239" d="M329.95 649.509l79.087-11.818-59.848-65.75 108.178 2.793z"/><path fill="#535d55" fill-opacity=".796" d="M603.063 997.926l67.555 54.583 15.591-443.543-103.372 243.526z"/><path fill="#1c0d08" fill-opacity=".341" d="M360.007 72.628l256.6 30.633-90.92-73.132-83.315 158.948z"/><path fill="#dce0eb" fill-opacity=".667" d="M600.941 495.712L261.344 845.086l321.888 120.39-20.566-198.947z"/><path fill="#912f2f" fill-opacity=".439" d="M82.598 635.41L-62 572.133l90.535 52.576 121.363 46.678z"/><path fill="#fd102d" fill-opacity=".592" d="M79.824 408.15l64.777-59.71L50.46 483.773l5.41-1.168z"/><path fill="#b2b3aa" fill-opacity=".412" d="M563.467 285.459L898 239.923 454.709 394.17l29.253-71.13z"/><path fill="#040409" fill-opacity=".427" d="M307.967 568.317l-8.269 33.825-6.72 52.74 25.135-2.785z"/><path fill="#dbdfe8" fill-opacity=".655" d="M422.575 522.662l12.811-122.48-208.845 244.416-12.302-27.725z"/><path fill="#351e07" fill-opacity=".416" d="M421.785 332.675l10.817 55.737 44.747-26.36-58.757-45.974z"/><path fill="#000002" fill-opacity=".318" d="M202.667 640.173l62.067 3.052-34.98 21.861-24.243-103.53z"/><path fill="#e7e9f2" fill-opacity=".631" d="M344.559 638.537l-38.943-16.593 126.26-104.424-86.136-98.588z"/><path fill="#8a9782" fill-opacity=".439" d="M592.258 596.45l-20.237-294.628-77.82 34.355 199.143 45.908z"/><path fill="#ceb6b2" fill-opacity=".29" d="M603.86 70.776l-66.6 260.985L650.74 33.828 471.25-62z"/><path fill="#c90012" fill-opacity=".565" d="M314.043 242.147l36.338 11.374-116.263 85.085-24.003 3.702z"/><path fill="#65744d" fill-opacity=".612" d="M150.217-17.542l33.738 139.969 133.749 16.79L328.426-1.985z"/><path fill="#dc0000" fill-opacity=".541" d="M354.627 366.64l-51.752-19.179-15.34-42.923 95.144 48.96z"/><path fill="#466077" fill-opacity=".769" d="M74.957 1032.421l-46.574-99.695L-62 1005.182l115.655 65.341z"/><path fill="#cad1dc" fill-opacity=".624" d="M624.767 480.698l-99.68 97.087-22.963-84.856-97.844-38.996z"/><path fill="#9aaab4" fill-opacity=".349" d="M219.752 1015.506l231.44-93.529-88.34-26.426-49.18 33.587z"/><path fill="#ddb6ae" fill-opacity=".988" d="M389.291 210.66l-45.13 89.505-36.026 4.209 61.968-72.507z"/><path fill="#000408" fill-opacity=".482" d="M518.63 565.095l-15.917-43.337-1.515 65.944 24.435-18.04z"/><path fill="#dec1c0" fill-opacity=".996" d="M82.448 465.604l45.366 23.532-74.641-33.591-42.698 107.104z"/><path fill="#d2d7e1" fill-opacity=".635" d="M505.283 549.484L325.209 448.013l92.147-76.308 67.413 209.882z"/><path fill="#ad6f5e" fill-opacity=".69" d="M379.272 167.815l16.312-27.866 34.414 75.084-48.638 157.435z"/><path fill="#8c9f9d" fill-opacity=".298" d="M9.166 756.56l124.428-145.532L161.37 500.24l21.907 223.179z"/><path fill="#716155" fill-opacity=".573" d="M652.82 218.836l-162.315-20.07 25.164-32.31 223.678 25.768z"/><path fill="#d2ffe6" fill-opacity=".145" d="M80.766 322.268l115.793 10.166-31.723-95.059-85.23 182.888z"/><path fill="#775e26" fill-opacity=".482" d="M524.758 284.101l-70.526-11.782-29.9 40.15 91.409-14.4z"/><path fill="#394c2c" fill-opacity=".357" d="M353.946 233.74l-59.93-117.43L-62 108.33l289.126 194.997z"/><path fill="#000002" fill-opacity=".259" d="M531.267 583.284l-179.755 32.824-4.518-10.551 162.068-28.086z"/><path fill="#7a8257" fill-opacity=".671" d="M714.224 293.06l-53.86 9.254 43.65 91.37 155.228-94.51z"/><path fill="#830e15" fill-opacity=".141" d="M299.544 465.73l-142.931 67.154 100.56-61.934-72.767-54.863z"/><path fill="#e69a9a" fill-opacity=".267" d="M590.38 254.81L433.095 142.87l79.492 104.843L628.74 127.925z"/><path fill-opacity=".208" d="M459.844 587.513l59.447 7.5-78.833-46.472 61.583-29.93z"/><path fill="#596358" d="M588.889 808.047l-1.676 76.783 73.216-450.679L588.9 575.105z"/><path fill="#d9dce7" fill-opacity=".922" d="M409.582 516.78l1.858 143.855 59.558 323.34-47.395-394.96z"/><path fill="#010509" fill-opacity=".584" d="M423.067 578.625l3.602-14.864 11.218-11.557-1.589 57.406z"/><path fill="#040409" fill-opacity=".392" d="M271.537 606.999l-58.843 50.336-3.353-28.416 35.161 26.79z"/><path fill="#849962" fill-opacity=".341" d="M-51.24 75.703L69.307 272.18 41.984 150.903l80.98-138.322z"/><path fill="#f8fff8" fill-opacity=".282" d="M444.675 273.209L311.448 515.022l117.723-255.954 227.68-4.347z"/><path fill="#e7e7ef" fill-opacity=".616" d="M275.533 309.684L512.51 572.892l-282-169.556-94.053 112.054z"/><path fill="#d2d5e1" fill-opacity=".973" d="M399.591 505.305l43.582 61.844.097 31.85 80.852-151.562z"/><path fill="#000406" fill-opacity=".435" d="M513.855 524.83l-5.816 18.065-31.215-2.989 3.437-14.922z"/><path fill="#e0baab" fill-opacity=".408" d="M434.168 394.196l146.703-104.744-109.122 38.779 15.38 74.417z"/><path fill="#dbdde9" fill-opacity=".69" d="M270.51 397.952l83.498 196.422-132.498-59.519 46.937 90.1z"/><path fill="#4e2818" fill-opacity=".243" d="M460.604 410.447l48.375 9.294 6.298-87.82 74.928-25.299z"/><path fill="#010003" fill-opacity=".357" d="M259.049 593.534l-12.45-1.884-1.835 69.644 11.94-20.427z"/><path fill="#2f391d" fill-opacity=".58" d="M898 135.153v35.284L713.484 196.96l19.85-69.037z"/><path fill="#d7dbe5" fill-opacity=".608" d="M264.03 905.516l-119.809-142.32 98.921-16.551-69.276-202.164z"/><path fill="#ccd2dd" fill-opacity=".749" d="M568.837 602.699L360.658 623.88l33.22-14.305 173.936 32.087z"/><path fill="#6b0302" fill-opacity=".227" d="M80.167 638.866l-87.902-41.334 49.992 31.972 115.386 51.292z"/><path fill="#647165" fill-opacity=".596" d="M591.897 84.286l124.188 112.462-153.526 48.962 63.188-28.137z"/><path fill="#e2e2ec" fill-opacity=".706" d="M116.242 650.177L65.499 486.612l-31.25 85.41 11.798 45.06z"/><path fill="#680e00" fill-opacity=".227" d="M519.91 195.055l-20.096-10.82 62.373-27.413 1.012 102.039z"/><path fill="#b0c2ce" fill-opacity=".424" d="M126.37 709.034l5.973-125.584 128.14-98.055-160.737 7.135z"/><path fill="#b1b3c9" fill-opacity=".4" d="M566.496 421.475l-68.16-42.32 88.371-55.614 63.93-7.919z"/><path fill="#d6dbe6" fill-opacity=".761" d="M434.572 538.237L579.464 893.05l-5.956-345.734-94.662 59.737z"/><path fill="#7d5b3f" fill-opacity=".431" d="M495.194-62h-186.19l249.584 84.296L366.02 61.465z"/><path fill="#6f765e" fill-opacity=".745" d="M779.894 113.559L601.05-58.642l66.824 221.255L850.857-62z"/><path fill="#fd0021" fill-opacity=".345" d="M112.422 365.537l-45.44 122.454-6.743-56.954 112.03-96.136z"/><path fill="#f1172d" fill-opacity=".702" d="M297.422 270.612l-71.66 52.688-60.88 19.44 88.146-6.938z"/><path fill="#dadee8" fill-opacity=".675" d="M147.483 760.292l82.14-68.066 63.982-94.84 18.29 289.963z"/><path fill="#02060b" fill-opacity=".557" d="M412.794 630.508l-8.89-9.121-56.67 3.628 8.122 13.481z"/><path fill-opacity=".337" d="M328.347 602.931l-17.701 5.043-36.245-9.72 138.554-24.346z"/><path fill="#3b4527" fill-opacity=".584" d="M92.777 758.83l33.61 73.789 10.275 131.992L92.657 1086z"/><path fill="#d3d7e2" fill-opacity=".784" d="M355.074 977.788l-22.888-246.211-.47-132.974-20.3 2.166z"/><path fill="#89947a" fill-opacity=".773" d="M589.804 467.309l106.4-60.503-38.649-63.714-16.522-8.621z"/><path fill="#384120" fill-opacity=".671" d="M717.015 384.448l-38.796-7.44 168.77 217.708-2.124-266.167z"/><path fill="#ff797c" fill-opacity=".408" d="M115.938 337.42L46.075 444.231l109.007-114.603 29.118 7.251z"/><path fill="#e6e8f2" fill-opacity=".765" d="M246.26 742.876l-96.883 134.96 260.92-209.675 12.807-49.109z"/><path fill="#e5e7f0" fill-opacity=".549" d="M264.387 454.802l129.32 131.238-24.2 17.02 82.91-109.393z"/><path fill="#687472" fill-opacity=".471" d="M150.977 638.273l4.39-34.958 10.457-63.212-30.963 68.594z"/><path fill="#bfc5a2" fill-opacity=".482" d="M-6.672-56.185L62.034-62 55.03 42.593 15.594 73.627z"/><path fill="#ececf4" fill-opacity=".8" d="M345.702 398.15l-130.054-52.587-74.665 19.552L74.815 467.18z"/><path fill="#bdc3d0" fill-opacity=".557" d="M898 196.682l-198.584 90.572 67.167-1.072 98.712-17.643z"/><path fill="#7c070d" fill-opacity=".69" d="M301.576 263.31l40.328-17.247 1.627 15.509-35.797 31.757z"/><path fill="#271610" fill-opacity=".29" d="M469.736 152.088l15.99-138.4-55.295 52.504-63.173-13.504z"/><path fill="#e1e2ef" fill-opacity=".318" d="M599.52 1042.117l-167.75 29.386 124.259-448.087 42.82 343.4z"/></svg>