<svg xmlns="http://www.w3.org/2000/svg" width="228" height="278" viewBox="0 0 836 1024"><path fill="#99674a" d="M0 0h836v1024H0z"/><path fill="#e0eddf" fill-opacity=".573" d="M10.087 310.927L-62 215.704l909.884.52 3.652 134.898z"/><path fill="#0f101e" fill-opacity=".612" d="M518.657 208.846L444.852.548l450.31-5.799L898 212.854z"/><path fill="#190202" fill-opacity=".651" d="M297.818-62l8.216 276.133-192.347-.378L-62 14.014z"/><path fill="#f8b57e" fill-opacity=".749" d="M595.19 202.52l127.291 851.615 80.86-2.786-60.642-504.583z"/><path fill="#d18145" fill-opacity=".808" d="M230.766 523.142L452.389-26.167l99.12 1087.555-315.805 15.977z"/><path fill="#4d221e" fill-opacity=".8" d="M-62 387.858L180.851 907.9l70.197-59.95-58.682-402.591z"/><path fill="#5a1b0a" fill-opacity=".69" d="M553.747 972.57l-12.803-358.366 85.164-20.238 57.857 231.94z"/><path fill="#ffbf8a" fill-opacity=".545" d="M142.491 743.1L26.4 1086l-88.4-43.65L80.86 636.887z"/><path fill="#51403a" fill-opacity=".757" d="M759.123 609.863l-75.837-240.386L898 351.021 812.775 1086z"/><path fill="#f77e40" fill-opacity=".522" d="M720.933 575.94L544.05 605.434l-76.58-333.396 160.801 90.022z"/><path fill="#252e28" fill-opacity=".659" d="M147.241 399.469l-167.6 33.393 3.207 500.374L77.774 614.93z"/><path fill="#f6ece7" fill-opacity=".851" d="M501.238 1086H256.765l28.255-85.501 81.76 2.222z"/><path fill="#cdf9ff" fill-opacity=".216" d="M-62 248.72l604.592-84.796-332.298 222.559L-62 428.179z"/><path fill="#c90016" fill-opacity=".424" d="M69.475 643.604l54.45 22.973 211.497-372.914L128.884 448.86z"/><path fill="#e2d6d5" fill-opacity=".616" d="M601.808 519.114l-64.83-9.886 3.529 91.914 68.575-10.456z"/><path fill="#abd6dc" fill-opacity=".275" d="M588.958 408.165l143.292-26.772-58.195-291.805L622.447 63.6z"/><path fill="#eec19e" fill-opacity=".616" d="M523.21 327.214L460.8 68.671l-171.985 75.335 168.87 12.362z"/><path fill="#9b3e1f" fill-opacity=".725" d="M614.202 789.79L658.744 1086l-107.322-47.59-85.12-246.763z"/><path fill="#44261a" fill-opacity=".565" d="M456.052 79.413l-225.75 38.813L553.782-62 898 83.86z"/><path fill="#1f1509" fill-opacity=".384" d="M382.792 229.248l-10.19 114.356 63.313 73.978-18.39-166.517z"/><path fill="#934216" fill-opacity=".651" d="M481.578 703.494l107.924-93.327-84.199-27.572-195.328 89.272z"/><path fill="#4f2f31" fill-opacity=".412" d="M30.42 1086l180.029-11.31 38.564-343.194-66.142-101.87z"/><path fill="#edf8ff" fill-opacity=".42" d="M487.359 226.824l393.717 2.037-36.586 49.065-382.285 10.572z"/><path fill="#8a4d16" fill-opacity=".812" d="M-35.624 205.712l190.808 9.058-12.724-68.827-172.04-69.186z"/><path fill="#002029" fill-opacity=".38" d="M617.674 908.616L601.907 579.37l79.738 215.066 3.115 146.697z"/><path fill="#9d2008" fill-opacity=".373" d="M617.09 424.214l57.785 146.555-252.352-148.815L526.1 375.17z"/><path fill="#ff8420" fill-opacity=".573" d="M672.125 753.522l39.734-310.996-71.566 39.302-4.104 181.502z"/><path fill="#cc9e77" fill-opacity=".839" d="M405.521 758.91l-121.766-45.032 274.31-13.548-147.985 99.91z"/><path fill="#440700" fill-opacity=".431" d="M224.704 603.492l-53.789-133.448-79.001 255.57 2.443 51.612z"/><path fill="#ff842b" fill-opacity=".376" d="M192.969 371.983l216.045 600.304-191.984 63.167 38.624-217.133z"/><path fill="#a3946e" fill-opacity=".494" d="M46.429 323.42L898 342.79l-372.683-63.18-562.27 24.862z"/><path fill="#979789" fill-opacity=".431" d="M130.417 636.672l10.158-25.303-83.446-46.474-70.975 16.896z"/><path fill="#fff1ff" fill-opacity=".173" d="M801.227 936.788l-69.056-355.656-26.406 365.524L749.158 1086z"/><path fill="#e3a97e" fill-opacity=".69" d="M367.826 361.27l-49.406 33.717-1.86-258.285 19.544-18.946z"/><path fill="#f4a55e" fill-opacity=".58" d="M612.956 411.742l-196.339-87.325L649.672 359.2l149.516 346.608z"/><path fill="#5a3c31" fill-opacity=".855" d="M898 632.412v87.152l-131.974 67.598-13.466-128.206z"/><path fill="#d6873c" fill-opacity=".788" d="M324.753 368.828l-98.642 68.676-6.285 249.957 232.298-211.567z"/><path fill="#782808" fill-opacity=".639" d="M362.252 647.386l270.642 4.85 14.029-144.206-102.327 164.479z"/><path fill="#d9a787" fill-opacity=".302" d="M492.68 30.384l20.216 75.975-12.039 231.127-125.288 341.61z"/><path fill="#06343c" fill-opacity=".224" d="M682 541.304l216-281.578-203.13 121.131 115.998 215.958z"/><path fill="#ffcfb5" fill-opacity=".412" d="M66.319 702.064L23.45 1086h-44.62L33.8 736.192z"/><path fill="#e9e7e7" fill-opacity=".533" d="M341.375 248.051l-17.263 31.266-323.99 2.019L-62 224.675z"/><path fill="#c41b2e" fill-opacity=".757" d="M129.604 442.782l4.217 44.87 188.21-108.161-7.112-58.262z"/><path fill="#080e00" fill-opacity=".318" d="M455.87 136.268l-106.859 53.85 10.198-30.332 71.772 34.752z"/><path fill="#873100" fill-opacity=".624" d="M239.143 886.992L526.2 938.054l100.545 33.943-149.705-59.812z"/><path fill="#bb6d1f" fill-opacity=".604" d="M221.875 588.465l72.983 160.368 156.626-138.868-41.885-21.45z"/><path fill="#e9c7a7" fill-opacity=".784" d="M297.881 555.843l73.7-21.511-107.693 45.658-14.968-22.17z"/><path fill="#4f3a2e" fill-opacity=".835" d="M252.076 748.421l-71.537 144.68-81.35-2.316L200.363 604.01z"/><path fill="#230b1d" fill-opacity=".247" d="M355.6-62L76.663 28.422l59.618 193.58 154.316-.565z"/><path fill="#1e191c" fill-opacity=".78" d="M527.609 143.183L502.259-62l81.85 258.016-77.408 17.975z"/><path fill="#ffa561" fill-opacity=".541" d="M411.73 970.791l-176.61 60.954-5.415-106.308L507.468 1086z"/><path fill="#310000" fill-opacity=".376" d="M863.585 205.734L880.07-62 755.461-10.022 738.136 205.68z"/><path fill="#735549" fill-opacity=".878" d="M636.12 809.553l34.542 10.836L717.2 992.404l-83.287-66.383z"/><path fill="#bf5e3a" fill-opacity=".745" d="M419.309 477.737l116.663 152.937-42.139-348.83 29.945 39.465z"/><path fill="#000703" fill-opacity=".365" d="M631.094 674.717l-26.76 149.742-155.657-31.757 241.364 18.273z"/><path fill="#89350a" fill-opacity=".518" d="M156.361 459.592l144.566 16.205 11.165-1.778 154.862 50.194z"/><path fill="#b95c28" d="M606.496 981.432l29.9 36.446-290.494-73.222-56.248-17.409z"/><path fill="#c6b5b7" fill-opacity=".537" d="M525.488 807.883l-28.518-82.297 22.638-71.613.814 31.321z"/><path fill="#a3a58a" fill-opacity=".647" d="M646.698 383.235l-122.704-83.487L898 291.677l-99 54.891z"/><path fill="#796958" fill-opacity=".765" d="M769.82 402.567L898 758.495l-79.264-165.912 49.69-180.673z"/><path fill="#f5b479" fill-opacity=".969" d="M776.698 657.438l-36.56-86.712-43.425 31.492-1.374 65.942z"/><path fill="#fbcdff" fill-opacity=".169" d="M415.107 602.017L581.548 493.1l32.508 76.903-236.198-54.743z"/><path fill="#a6967c" fill-opacity=".427" d="M405.332 34.424l-50.756-47.15 53.093 11.62 102.596 55.961z"/><path fill="#b07935" fill-opacity=".369" d="M41.827 912.069l58.313 55.772L76.253 660.42l89.012 25.847z"/><path fill="#954021" fill-opacity=".886" d="M551.985 627.39l-144.626-34.496 187.122 122.272-79.31 144.682z"/><path fill="#c06e20" fill-opacity=".506" d="M284.519 750.22l157.839 57.15 170.934 82.957-211.654 15.958z"/><path fill="#6d7c7d" fill-opacity=".204" d="M670.419 79.476L606.642-53.719l-24.197 217.791 219.51-22.709z"/><path fill="#fafffb" fill-opacity=".392" d="M408.352 765.344l-9.129-44.1 30.151 15.136 37.752 10.753z"/><path fill="#f8f7e8" fill-opacity=".361" d="M341.784 770.928l4.019 15.1 11.44-80.955-29.923 1.951z"/><path fill="#632406" fill-opacity=".145" d="M401.25 139.143l21.039 100.258-121.44-27.865 165.06 282.835z"/><path fill="#580004" fill-opacity=".494" d="M103.91 586.18l93.869 54.896 15.284-209.19-72.713 76.15z"/><path fill="#ffb376" fill-opacity=".404" d="M273.973 739.281l-32.016 54.024 76.061 94.143-88.768 4.937z"/><path fill="#b7703b" fill-opacity=".914" d="M489.537 738.803l-109.538-86.958 115.15 22.408-69.587 65.422z"/><path fill="#ef5560" fill-opacity=".631" d="M241.433 360.733l-76.889 48.763-25.21 31.477 43.116-4.851z"/><path fill="#964635" fill-opacity=".569" d="M798.494 1073.033L898 949.988l-105.092-99.752-6.133 92.981z"/><path fill="#635237" fill-opacity=".525" d="M312.988 131.178l1.47 85.14L257.613-62 437.646 64.602z"/><path fill="#c38f67" fill-opacity=".694" d="M657.334 692.82l97.106 17.527-80.108 110.79 59.032 192.944z"/><path fill="#ffaa5b" fill-opacity=".682" d="M548.439 366.42l176.365 119.032-36.917-71.484-149.719-98.366z"/><path fill="#171613" fill-opacity=".725" d="M-62 552.194l160.765-5.875 14.451-16.762-4.899-40.283z"/><path fill="#edae93" fill-opacity=".463" d="M296.568 181.492l145.26 15.66-70.86 46.548-59.017 2.72z"/><path fill="#eaf0fe" fill-opacity=".286" d="M467.09 795.863l60.932-12.34-9.427-104.953-6.757 88.414z"/><path fill="#00456d" fill-opacity=".169" d="M760.578 96.118l36.656 120.137-19.668 5.37-291.382.055z"/><path fill="#cfffff" fill-opacity=".153" d="M813.555 579.394L898 625.777l-206.862-1.032 42.263-28.873z"/><path fill="#e88d46" fill-opacity=".698" d="M565.363 1086L212.128 944.405l97.936-6.545 216.162 50.857z"/><path fill="#9c997e" fill-opacity=".588" d="M149.268 394.101L-62 383.619v-91.42l400.2 17.16z"/><path fill="#986c90" fill-opacity=".227" d="M112.927 223.445l61.6 11.024-1.887-96.537-76.865 18.919z"/><path fill="#970e1b" fill-opacity=".816" d="M274.935 394.893l21.565-1.66-7.711-42.538L89.385 556.841z"/><path fill="#934940" fill-opacity=".576" d="M35.407 1079.27l197.26 6.73-9.62-216.613-134.87 51.128z"/><path fill="#dcd4cd" fill-opacity=".353" d="M96.247 613.183l7.728-71.106-17.87 72.128 45.523 19.615z"/><path fill="#ad663a" fill-opacity=".976" d="M501.611 674.565l13.11 58.047-71.054-54.759-29.778 40.492z"/><path fill="#4a3e33" fill-opacity=".816" d="M48.684 624.14L-62 822.396V1086L4.022 905.592z"/><path fill="#803300" fill-opacity=".231" d="M357.656 765.982l235.61-153.776-260.64 136.943 338.057 14.068z"/><path fill="#f2f7fe" fill-opacity=".494" d="M502.504 1062.095L171.35 1086l151.366-93.156L545.692 1086z"/><path fill="#fff5fd" fill-opacity=".106" d="M462.675 254.402l14.672 146.444 47.823-116.764L404.452-43.466z"/><path fill="#5c5351" fill-opacity=".714" d="M710.167 553.662l107.32 51.769-108.407-71.7 32.52-169.814z"/><path fill="#dc8a41" fill-opacity=".867" d="M568.246 962.814l-204.183 62.737 157.368-48.583-171.285-64.454z"/><path fill="#eef5f4" fill-opacity=".267" d="M403.053 744.972l126.957-5.79-103.094 24.006-12.054 44.211z"/><path fill="#573c25" fill-opacity=".682" d="M249.244 138.229l263.314-85.476-235.55 33.053 41.48 108.067z"/><path fill="#f5b993" fill-opacity=".161" d="M323.204 69.17l85.635 140.793L340.763 14.75l-84.897 115.822z"/><path fill="#e8ba9d" fill-opacity=".929" d="M787.19 870.61l-23.867-113.014-7.96 261.855 26.32 62.883z"/><path fill="#ae4d2c" d="M619.718 422.981l-140.6 6.473 32.25-126.188-3.917 87.58z"/><path fill="#632904" fill-opacity=".4" d="M423.398 239.22l-31.029 15.748-38.423-19.877 98.046 1.575z"/><path fill="#581300" fill-opacity=".463" d="M606.083 978.726l35.832 30.937-18.33-41.36L471.537 908.5z"/><path fill="#440b07" fill-opacity=".412" d="M898 742.35l-75.84-8.589 37.438 153.574-74.392-46.411z"/><path fill="#ff872d" fill-opacity=".451" d="M655.55 700.971l-24.977-112.644 76.068-108.35-5.712 205.86z"/><path fill="#303533" fill-opacity=".573" d="M594.004 112.467l25.555 102.44-125.037-99.533-11.246 53.433z"/><path fill="#351816" fill-opacity=".624" d="M489.28 31.294l46.056 120.317L582.04 7.197 279.8-40.608z"/><path fill="#cd7e33" fill-opacity=".918" d="M304.007 568.82l-84.251 101.458-5.883-45.34 246.103 12.506z"/><path fill="#460000" fill-opacity=".278" d="M602.44 690.224l10.588-187.278 23.495 1.035L610.1 846.198z"/><path fill="#350b00" fill-opacity=".408" d="M110.864 765.554l61.695-101.716 55.697-59.91-44.477-62.483z"/><path fill="#ecd4bb" fill-opacity=".365" d="M598.821 602.948l-75.11-54.853 80.443-53.613-51.199 106.379z"/><path fill="#492416" fill-opacity=".51" d="M435.414 280.552l-35.19-19.09 3.122-8.277-39.871 34.077z"/><path fill="#f4f0e2" fill-opacity=".416" d="M431.132 722.869l49.444-10.846-36.193-10.17-33.873 95.19z"/><path fill="#554036" fill-opacity=".929" d="M26.923 644.935L87.1 557.43 65.77 680.98 13.573 793.277z"/><path fill="#433d36" fill-opacity=".973" d="M707.458 452.341l33.018 65.762 29.766-150.074-56.768 2.346z"/><path fill="#cc5332" fill-opacity=".992" d="M536.683 325.319l-22.387 106.375 34.112-92.348-4.815-14.28z"/><path fill="#c76948" fill-opacity=".749" d="M558.951 600.018L405.411 581.6 612.7 487.38l-142.182 11.424z"/><path fill="#7a7960" fill-opacity=".329" d="M191.978 405.02L-27.35 416.991l331.53-103.31-242.361-5.377z"/><path fill="#dfa57f" fill-opacity=".42" d="M482.99 234.39l-157.722 32.9 110.583-.424 67.686 128.39z"/><path fill="#df9751" fill-opacity=".439" d="M227.245 428.08l243.988 97.808-73.45-113.64 114.023 42.569z"/></svg>