<svg xmlns="http://www.w3.org/2000/svg" width="228" height="278" viewBox="0 0 836 1024"><path fill="#86919f" d="M0 0h836v1024H0z"/><g fill-opacity=".502"><path fill="#fff5f9" d="M866 314l-624 68 384 704z"/><path fill="#08213b" d="M378 342L-58-62l956 76z"/><path fill="#3f494c" d="M898 686L-62 490l72 380z"/><path fill="#c6d7e8" d="M518 1086l216-984H442z"/><path fill="#fff" d="M666 898l44 188-732-92z"/><path fill="#0a4f87" d="M898 362l-72-208-708 8z"/><path fill="#230400" d="M294-62l160 420-144 44z"/><path fill="#c3cce6" d="M282 102l64 564L106 98z"/><path fill="#edf4ff" d="M190 486l480-252 228 272z"/><path fill="#1b0000" d="M66 658l-128-36 284-240z"/><path fill="#1e476f" d="M210 1086L26 618l216-48z"/><path fill="#003d7e" d="M26 146l4 344 120-332z"/><path fill="#fff" d="M50 1086L-62 826l232 88zm680-344l168 52-144 200z"/><path fill="#001e3f" d="M898 118L6 50 602-62z"/><path fill="#fff" d="M186 238L34 494l128-44z"/><path fill="#cda993" d="M626 478l88 420-384 76z"/><path fill="#fff" d="M274 802l-24-60H138z"/><path fill="#205699" d="M738 750L570 518l328 228z"/><path fill="#e5f4ff" d="M854 158l-392 4 192-56z"/><path fill="#1969a9" d="M434 254l200 80-32-184z"/><path fill="#5b1c05" d="M138 522l120-228-76 32z"/><path fill="#004681" d="M-2 146l204 76 124-60z"/><path fill="#fff" d="M450 266l272 116-300 68z"/><path fill="#867850" d="M254 946l228 20-160-396z"/><path fill="#0f211b" d="M694 954l132 48-144 40z"/><path fill="#e3f7ff" d="M182 166l116-52-320-16z"/><path fill="#edf4ff" d="M78 242l48 208 56-128z"/><path fill="#0a1313" d="M234-2L-42-18 78 90z"/><path fill="#3b3738" d="M134 798h112l-76 288z"/><path fill="#f5f4e6" d="M686 930L514 426l40 660z"/><path fill="#523c5b" d="M438 462l36 64 56-56z"/><path fill="#3f2816" d="M502 154l-228 4 100 256z"/><path fill="#e3ad9d" d="M434 154L330 98l148-16z"/><path fill="#8c225d" d="M686 806l-88-128 4-116z"/><path fill="#613a58" d="M650 778l80 168 8-144z"/><path fill="#d6e8ff" d="M266 922l128 60-288 104z"/><path fill="#fff" d="M770 982l-40-72 168 56z"/><path fill="#a8c0d8" d="M542 62L518-50l64 72z"/><path fill="#0968ac" d="M766 386l132-216H726z"/></g></svg>