<svg xmlns="http://www.w3.org/2000/svg" width="228" height="278" viewBox="0 0 836 1024"><path fill="#6e5f62" d="M0 0h836v1024H0z"/><g fill-opacity=".502"><path fill="#300000" d="M154 1034l528 52-112-932z"/><path fill="#1bffff" d="M-62 970l272 116 20-580z"/><path fill="#40ffff" d="M626 490l60 596 212-212z"/><path fill="#7a0000" d="M334 1086L150 334l580 72z"/><path fill="#ddd2c8" d="M898-2L-62 2l472 192z"/><path fill="#f4feff" d="M-62 866l232-476-128-64z"/><path fill="#9e271f" d="M786 550l-684 28L362-62z"/><path fill="#1d0000" d="M674 1086l-516-48 444-616z"/><path fill="#ffaacf" d="M654 366l-252 16 60-140z"/><path fill="#3affff" d="M870 1086L646 870l104-324z"/><path fill="#d4e3ee" d="M798 142L170-62l728 16z"/><path fill="#57e5ff" d="M226 546l-4 352L2 778z"/><path fill="#ffdbc9" d="M682 422l216 300V518z"/><path fill="#d5e5ed" d="M-46 6l452-20L22 126z"/><path fill="#fffbff" d="M634 662l-12-112 140 52z"/><path fill="#100800" d="M194 586L38 698l156-308z"/><path fill="#001308" d="M302 110l172-44-152-96z"/><path fill="#1c0000" d="M786 1086l-588-64 60-400z"/><path fill="#fff" d="M246 350l44-76 8 84z"/><path fill="#900000" d="M446 458l52-168 304 320z"/><path fill="#f5ffff" d="M402 362l64 20 28-140z"/><path fill="#89918d" d="M174 670l4-104 364 76z"/><path fill="#1b2929" d="M-14 130l440 64-480 64z"/><path fill="#d0ffff" d="M382 378l-52 116-4-88z"/><path fill="#c17780" d="M-62 486l460-268-360 72z"/><path fill="#3d4f53" d="M742 390l72-296-352 160z"/><path fill="#ff123a" d="M738 434L514 282l-56 112z"/><path fill="#7f0000" d="M638 630L182 414l472 476z"/><path fill="#2adafe" d="M-62 1046l268-80 8-348z"/><path fill="#222100" d="M290 238l72 172 92-116z"/><path fill="#d97641" d="M50 866l-112 8L62 606z"/><path fill="#c80005" d="M322 398L162 294l72 284z"/><path fill="#3fe2ff" d="M630 590l68 448 200 4z"/><path fill="#2d917f" d="M458 446l36 96h-92z"/><path fill="#e7feff" d="M34 658l-96-96 164-48z"/><path fill="#d2814a" d="M894 726l-56 216-48-388z"/><path fill="#580000" d="M230 874l416-8-416-200z"/><path fill="#480000" d="M582 394l-72 88 284 132z"/><path fill="#9f0000" d="M506 406l-140-8-52 208z"/><path fill="#759889" d="M482 606l-8 52-180-40z"/></g></svg>