<svg xmlns="http://www.w3.org/2000/svg" width="228" height="278" viewBox="0 0 836 1024"><path fill="#647074" d="M0 0h836v1024H0z"/><g fill-opacity=".502"><path fill="#adcdff" d="M898 546l-60 524-732-784z"/><path fill="#0e0300" d="M-2-62l-8 444L898 18z"/><path fill="#ebfffb" d="M6 606l312-20 28 500z"/><path d="M490 550l-28 444 224 92z"/><path fill="#fff" d="M586 238l-104-16 68 400z"/><path fill="#181100" d="M562 138l316-96 20 664z"/><path d="M294 562l188-456-216 224z"/><path fill="#fff" d="M874 770l-220-88 44-304z"/><path fill="#e9ffff" d="M342 550l72-244 84 604z"/><path d="M574 266l44 404 72-260z"/><path fill="#004aff" d="M670 1086l-36-316 192 184z"/><path d="M330 878l136 208-116-524z"/><path fill="#6c7818" d="M54 1042l176-560 16 600z"/><path fill="#fff" d="M262 278l-104 36 140 300z"/><path fill="#222101" d="M294-18L-62-6v776z"/><path fill="#f4ffff" d="M426 1074L246 686v380z"/><path fill="#cadff5" d="M154 802l-20-476L22 762z"/><path fill="#000219" d="M522 478l-84-344-8 356z"/><path d="M190 342l-72 132 120 56z"/><path fill="#fff" d="M686 350l-52-92-144-32z"/><path fill="#dcefff" d="M682 610l-148-12 48 276z"/><path fill="#e6f9ff" d="M450 566l48 296-96-4z"/><path d="M638 850l-280 28 304 192z"/><path d="M530 590l40 312-120-288z"/><path fill="#fff" d="M366 506l-24-172 80 28z"/><path fill="#000053" d="M818 790L622 678l16 100z"/><path fill="#fff" d="M818 1026l-56-204 124-148z"/><path fill="#8baa68" d="M34 478l124 608-220-108z"/><path fill="#000006" d="M270 482l92 32-52-356z"/><path fill="#88bbe6" d="M682 538l-388-28-100 144z"/><path fill="#fff" d="M526 478l56-216-96-36zM314 246L114 422l40-104z"/><path fill="#56620f" d="M754 422l16 184 124 12z"/><path d="M578 494V286l124 140z"/><path fill="#43492f" d="M638 258L898-62 254 146z"/><path d="M370 854l-52-240 68 16z"/><path fill="#0045f4" d="M786 1086L598 818l196 64z"/><path fill="#def2ff" d="M622 874l-60-12 32-180z"/><path fill="#e8f9ff" d="M214 626l100-12 28 228z"/><path fill="#0042ff" d="M770 722l40 68-108 28z"/></g></svg>