<svg xmlns="http://www.w3.org/2000/svg" width="228" height="278" viewBox="0 0 836 1024"><path fill="#986e60" d="M0 0h836v1024H0z"/><path fill="#5b1219" fill-opacity=".624" d="M697.568 802.727L171.932 1040.96l492.909-719.4 221.158 314.652z"/><path fill="#edf4fd" fill-opacity=".749" d="M225.701 1063.39l585.714-285.178-187.02 133.606L838.274 1086z"/><path fill="#f6d6c9" fill-opacity=".482" d="M-46.464 276.485L18.846-60.65l324.688 162.715-72.928 144.804z"/><path fill="#ff665b" fill-opacity=".647" d="M702.653 681.12l-84.25-76.818L-62 794.103l443.987 17.71z"/><path fill="#632a29" fill-opacity=".773" d="M-62 354.243l475-71.66-3.83 157.707L21.503 576.025z"/><path fill="#cdb7ae" fill-opacity=".984" d="M296.916 483.467l-33.73 65.03 392.95-88.143-95.601-46.617z"/><path fill="#020711" fill-opacity=".506" d="M777.5 503.193L282.585 717.148 134.13 476.418l149.57 97.588z"/><path fill="#dedbc0" fill-opacity=".514" d="M705.433 2.501L434.215-62l13.368 311.043 115.764 49.942z"/><path fill="#d4d274" fill-opacity=".522" d="M289.935 944.22L-62 1086l85.267-396.304L245.782 629z"/><path fill="#030407" fill-opacity=".757" d="M775.595 1029.738l-106.22-144.823 69.254-36.334 53.974 60.543z"/><path fill="#f8524b" fill-opacity=".914" d="M118.693 388.383L99.37 376.767-62 462.077l200.032 40.13z"/><path fill="#052426" fill-opacity=".498" d="M898 888.668l-181.617-72.143L189.614 932.1 626.67 697.3z"/><path fill="#ecf1fe" fill-opacity=".38" d="M828.418 268.318l-96.282 81.723L637.74-62l-86.219 172.96z"/><path fill="#eb4a4b" fill-opacity=".824" d="M252.7 602.212L180.233 471.52l116.459 79.043 401.745-82.972z"/><path fill="#a89c92" fill-opacity=".988" d="M730.127 702.397l16.267 126.477 124.223-53.808-91.341-105z"/><path fill="#00131a" fill-opacity=".529" d="M504.731 276.271l243.183 305.623-188.799 44.031 220.93-183.477z"/><path fill="#e3ac22" fill-opacity=".961" d="M-54.683 928.288l206.247-85.482-51.36 215.855L-62 1072.815z"/><path fill="#e1373c" fill-opacity=".941" d="M353.154 997.385l5.391-46.779 106.059-59.517 273.583-81.302z"/><path fill="#0e0000" fill-opacity=".404" d="M213.06 44.076L59.12 205.199 330.71 5.855l88.676 61.23z"/><path fill="#fed7b9" fill-opacity=".388" d="M830.502 634.871l-37.48-445.59L798.642-62h88.072z"/><path fill="#203033" fill-opacity=".537" d="M251.486 287.017l-134.275 58.88 31.11 131.39 334.187-27.605z"/><path fill="#1373a2" fill-opacity=".337" d="M96.89 1086l92.672-281.23 23.608 121.343 259.663 88.52z"/><path fill="#fe0e0d" fill-opacity=".482" d="M774.71 438.668l-86.885 76.606 78.838 105.44 83.294-26.529z"/><path fill="#231713" fill-opacity=".965" d="M674.03 530.788l158.794 199.754L898 547.792 700.177 714.097z"/><path fill="#9b7e63" fill-opacity=".969" d="M709.407 284.456L420.224 131.739l207.915-86.745-186.903-75.232z"/><path fill="#dacaba" fill-opacity=".984" d="M-62 263.075L84.441 200.38-61.509-4.497 174.45-.956z"/><path fill="#421002" fill-opacity=".506" d="M210.009 142.079l26.994 31.939 165.507-39.336-91.537-10.26z"/><path fill="#f42229" fill-opacity=".514" d="M652.898 602.002l59.294 94.58-393.603 129.897-51.175-127.937z"/><path fill="#530000" fill-opacity=".761" d="M-40.513 552.482l85.9-76.37 115.204 34.661 69.6 43.812z"/><path fill="#cc9e65" fill-opacity=".91" d="M218.138 286.803l-136.3 74.82L28.5 377.394l99.579-105.657z"/><path fill="#3e0b03" fill-opacity=".651" d="M136.881 248.76l-28.951 52.15-169.369 156.038 8.846-94.75z"/><path fill="#dbd8cd" fill-opacity=".459" d="M95.942 813.518l189.28-20.06-4.445-88.434L15.451 718.1z"/><path fill="#a3928b" fill-opacity=".984" d="M247.961 637.236l-52.664-68.923-242.82-19.17 300.211 124.5z"/><path fill="#a77857" fill-opacity=".714" d="M41.619 29.28l129.034 118.138-95.025 34.275L32.34 93.15z"/><path fill="#75686a" fill-opacity=".518" d="M674.53 879.614l81.349 103.31-67.797-56.235-366.063 149.794z"/><path fill="#e67673" fill-opacity=".678" d="M352.39 424.583l-92.965-1.405L286.4 552.047l-101.619-65.558z"/><path fill="#7c797a" fill-opacity=".78" d="M-62 855.054l412.167-20.862-305.513-33.005L24.492 552.16z"/><path fill="#30261d" fill-opacity=".698" d="M134.608 663.688l-35.41-79.235-65.653 94.121-88.61-27.553z"/><path fill="#c76f60" d="M527.175 489.433l64.73-126.08-209.362 10.978 63.778-63.562z"/><path fill="#ffeaf4" fill-opacity=".337" d="M692.693 509.084l-15.685 28.844-113.688-57.125-27.66-84.82z"/><path fill="#da9c8d" fill-opacity=".792" d="M372.117 258.945L310.432 115.98l-27.265 80.672 132.89-73.288z"/><path fill="#ffce5b" fill-opacity=".631" d="M517.225 68.524L392.006 38.312l56.694 88.933 84.264 24.836z"/><path fill="#82806f" fill-opacity=".729" d="M277.498 704.896L255.085 1086l76.32-75.62-3.096-76.662z"/><path fill="#e4faf1" fill-opacity=".29" d="M464.23 213.884L606.47 366.7l140.132-211.176-76.597 159.42z"/><path fill="#fa5453" fill-opacity=".796" d="M578.854 657.737l101.18-54.908 27.223 156.63-9.018-18.796z"/><path fill="#141415" fill-opacity=".337" d="M377.17 304.036l203.254 32.095-148.553-50.782-19.974-212.447z"/><path fill="#410000" fill-opacity=".424" d="M847.851 904.096L551.747 711.55l-109.523-.722 162.142-33.41z"/><path fill="#011413" fill-opacity=".4" d="M807.899 619.791l-257.762-12.507-228.229-34.995 322.386-64.848z"/><path fill="#f1bf57" fill-opacity=".788" d="M811.166 886.199l-15.388 195.772L898 1055.221 757.935 854.6z"/><path fill="#a8dff0" fill-opacity=".267" d="M260.178 366.273l-138.049 14.123 232.762 60.236-162.375 10.636z"/><path fill="#fdc1b0" fill-opacity=".6" d="M133.677 234.016L-62 344.583 179.659 120.17l59.466 143.728z"/><path fill="#1c1c20" fill-opacity=".533" d="M576.167 422.716l77.966-111.755 100.82 106.634-45.073 86.89z"/><path fill="#af826d" fill-opacity=".996" d="M744.989 217.492l141.817-75.245-332.078 9.447L695.206 85.21z"/><path fill="#6bb3c9" fill-opacity=".643" d="M146.158 1060.14L102.82 1086l139.348-175.319-122.043 18.882z"/><path fill="#eaedff" fill-opacity=".6" d="M699.95 46.478L526.112 84.765l72.214 57.095L618.317-62z"/><path fill="#e7e9ff" fill-opacity=".749" d="M459.951-62h-37.826l77.293 86.627-63.366 44.41z"/><path fill="#fff" fill-opacity=".62" d="M477.108 1086h352.25L678.801 947.374l-202.967 74.454z"/><path fill="#fffbfd" fill-opacity=".388" d="M806.765 804.92l-388.848 219.59-75.475-26.524 271.586-122.311z"/><path fill="#13160e" fill-opacity=".639" d="M220.976 942.227l25.2 20.99 13.339 92.686-85.336 14.734z"/><path fill="#e1f6fe" fill-opacity=".588" d="M289.612 548.213l159.777-38.7-72.194-45.035-35.538 48.533z"/><path fill="#05102a" fill-opacity=".31" d="M597.354 274.492l111.34 13.675 2.717 48.564-140.098-198.309z"/><path fill="#fec6b9" fill-opacity=".592" d="M307.572 60.918l90.04 45.751-139.897 22.657 11.45-55.434z"/><path fill="#dec291" fill-opacity=".447" d="M666.137 333.643l205.055 151.476-192.38-188.107-88.336-323.688z"/><path fill="#030002" fill-opacity=".525" d="M220.158 307.252l-115.354 33.016 19.03 52.66 171.42-66.524z"/><path fill="#090d47" fill-opacity=".322" d="M22.875 884.607l20.622.687 2.27 192.16L28.48 1086z"/><path fill="#501600" fill-opacity=".494" d="M275.619 275.227l-160.637-29.748-138.295 214.974L67.888 282.08z"/><path fill="#2e3437" fill-opacity=".753" d="M308.28 847.192l34.521 158.832 7.586-55.191L739.74 759.234z"/><path fill="#182936" fill-opacity=".404" d="M530.693 341.527l-134.726 78.142L526.93 294.671l-159.166-26.346z"/><path fill="#000904" fill-opacity=".31" d="M751.766 370.26l64.831-35.003-70.153-53.206 48.068-81.678z"/><path fill="#271f17" fill-opacity=".518" d="M277.5 12.95l18.494.243-95.296 73.393 188.97-61.885z"/><path fill="#ebaf93" fill-opacity=".463" d="M366.421 291.643l-67.38 19.4-43.746-62.158 109.294-6.655z"/><path fill="#ff1828" fill-opacity=".384" d="M367.915 428.414l258.925-32.188 19.14 142.483-61.945-172.398z"/><path fill="#937f81" fill-opacity=".678" d="M132.444 146.136l107.117-27.452L199.466-62l-87.93 177.318z"/><path fill="#492423" fill-opacity=".431" d="M423.29 501.906L328.514 373.96l7.575 184.515 58.884-229.192z"/><path fill="#f13b3c" fill-opacity=".831" d="M296.918 723.982l12.777 135.011 151.406-107.58-75.224-91.014z"/><path fill="#e4f4ff" fill-opacity=".408" d="M696.193 351.848l95.702-91.508 104.453 119.062-161.865-117.617z"/><path fill="#110c0e" fill-opacity=".467" d="M730.162 739.974l7.72 93.943-69.16-11.42-219.852-46.853z"/><path fill="#ffb651" fill-opacity=".729" d="M249.876 669.958l-180.722-3.267-3.975 26.884 82.845 28.621z"/><path fill="#00181d" fill-opacity=".478" d="M214.943 709.424l86.54-53.232-135.5-150.749 129.11 213.907z"/><path fill="#6a2e14" fill-opacity=".451" d="M249.537 927.908l103.789-62.114-192.64 45.282-2.454-94.158z"/><path fill="#d8543b" fill-opacity=".533" d="M685.922 489.57l-178.658 13.634-58.897-76.659 7.099 110.592z"/><path fill="#06011f" fill-opacity=".306" d="M392.941 55.607L443.231-62l97.358 133.282-7.62-110.385z"/><path fill="#fff3df" fill-opacity=".482" d="M76.49 892.598L-62 871.808l56.788-17.057 98.603 9.534z"/><path fill="#e1d3cb" fill-opacity=".773" d="M898 985.764l-90.552-84.942-109.191-76.617 51.164 22.048z"/><path fill="#c99578" fill-opacity=".863" d="M431.946 391.091l50.47-58.575-58.838-35.156-31.399 98.838z"/><path fill="#e6e8f8" fill-opacity=".616" d="M19.387-40.309l-76.455 246.028L43.803 34.685l128.461 63.19z"/><path fill="#f6edf6" fill-opacity=".612" d="M510.042 190.586L499.13 186.2l-35.477-38.276-34.132 58.972z"/><path fill="#1a0703" fill-opacity=".498" d="M-62 133.601l85.128 38.072-1.986-2.402.086-38.95z"/><path fill="#390806" fill-opacity=".639" d="M328.645 221.847l-55.351 23.881 84.665-1.692-8.803-22.832z"/><path fill="#120d0b" fill-opacity=".659" d="M485.115 576.74l143.616-65.312 128.917 184.655 53.018-61.06z"/><path fill="#1d1d1c" fill-opacity=".627" d="M132.94 476.002L303.775 714.82 156.453 431.013l180.496 32.46z"/><path fill="#39220d" fill-opacity=".408" d="M329.918 434.714l-58.285-43.878L487.781 191.29l-6.812 18.045z"/><path fill="#ffd656" fill-opacity=".682" d="M-62 92.304l.698 46.382L73.32 129.2l1.839-29.088z"/><path fill="#ffbc3f" fill-opacity=".553" d="M231.394 882.372l2.744 72.982-51.528-113.626 129.242 11.722z"/><path fill="#979eab" fill-opacity=".478" d="M95.861 553.988L-56.275 854.527l146.169-125.89L-62 555.337z"/><path fill="#110700" fill-opacity=".325" d="M720.307 920.053L813.062 1086l-84.479-240.528-156.441 98.086z"/><path fill="#550001" fill-opacity=".678" d="M504.755 419.9l-24.428 2.964-214.321 53.559 183.474-68.794z"/><path fill="#77563e" fill-opacity=".49" d="M864.985 45.981l-97.953-28.229-177.627 407.419L693.17 128.726z"/><path fill="#f2ffff" fill-opacity=".298" d="M265.355 516.582l334.537-125.088-306.697 92.986 42.385 80.078z"/><path fill="#989cb3" fill-opacity=".624" d="M732.25 934.113l-86.624-9.574-53.587 16.069 109.385 30.236z"/><path fill="#f0f6ff" fill-opacity=".439" d="M769.713 207.817l-79.062 22.762 70.27 43.027-51.524 35.762z"/><path fill="#fbffed" fill-opacity=".4" d="M898 10.775l-94.792 133.987-13.174 23.395 2.724-78.566z"/><path fill="#c08876" d="M239.584 263.424l-34.47-.118 8.279-61.607 118.094 12.446z"/><path fill="#ff4f4c" fill-opacity=".537" d="M177.867 472.147l103.252 2.094 4.37 64.507-56.141 29.195z"/><path fill="#eefcff" fill-opacity=".675" d="M548.555 483.477l61.276-23.747-17.88-32.046-30.848-18.13z"/><path fill="#fcffaf" fill-opacity=".333" d="M439.008 10.993l-151-3.25-91.612 17.749L-50.908-56.33z"/><path fill="#ff9f9d" fill-opacity=".227" d="M-59.239 438.199l183.03-53.322 198.26-18.138L-52.93 485.465z"/><path fill="#fc4741" fill-opacity=".812" d="M792.577 577.187l21.768-46.58 35.486 45.145-45.32 45.886z"/><path fill="#fe0d0c" fill-opacity=".306" d="M27.823 522.79l112.812-23.426 8.875-20.822-187.954-57.103z"/><path fill="#ffc41c" fill-opacity=".557" d="M79.757 839.675L54.2 942.998 41.808 1086l122.576-216.589z"/><path fill="#ae9693" fill-opacity=".937" d="M753.969 418.283l-39.854-55.448 59.08 1.77L898 343.61z"/><path fill="#fed9c4" fill-opacity=".329" d="M290.528 906.289l-16.541 144.134-5.824 30.063-13.508-142.745z"/><path fill="#2f2a26" fill-opacity=".714" d="M402.42 47.599l10.35 50.917-72.06-72.382 15.642-11.549z"/><path fill="#dcd8e8" fill-opacity=".459" d="M455.925 242.271l152.93-37.14-116.045 77.457 156.978 25.675z"/><path fill="#080022" fill-opacity=".263" d="M656.798 134.17L554.203 34.393l37.346-13.826 23.69 113.162z"/><path fill="#f76361" fill-opacity=".894" d="M453.017 514.193l56.609-11.29 150.093-22.587 19.487 21.161z"/><path fill="#fe2631" fill-opacity=".525" d="M749.905 808.87l-61.067 16.455 80.18 15.886 5.195 7.756z"/><path fill="#363e42" fill-opacity=".604" d="M527.054 580.942l72.7.146L267.39 708.413l27.474-136.029z"/><path fill="#edeefe" fill-opacity=".812" d="M-62 202.533l121.906 9.827 1.96-54.499L-62 207.203z"/><path fill="#fe5158" fill-opacity=".584" d="M617.771 387.152l-79.942-16.657-41.796-17.451-71.923 67.681z"/></svg>