<svg xmlns="http://www.w3.org/2000/svg" width="228" height="278" viewBox="0 0 836 1024"><path fill="#986e60" d="M0 0h836v1024H0z"/><g fill-opacity=".502"><path fill="#460004" d="M658 302l240 368-628 356z"/><path fill="#fff" d="M310 1018l336-160 148 228z"/><path fill="#ffe2d6" d="M-62 282l372-60L26-62z"/><path fill="#ff8e52" d="M82 682l-120 352 776-416z"/><path fill="#09010a" d="M130 326l348-44-356 280z"/><path fill="#dfdbbe" d="M522 334L398 22l352-84z"/><path fill="#00000f" d="M222 582l56 132 480-208z"/><path fill="#ffe5df" d="M682 498l-468 24 332-124z"/><path d="M806 1014l-56-168-144 72z"/><path fill="#f10e29" d="M318 674l-24 188 604-304z"/><path fill="#9f0408" d="M30 294l-92 244 352 24z"/><path fill="#d3e6c5" d="M-62 710l320 168 8-172z"/><path fill="#001c20" d="M638 694l124 108-564 108z"/><path fill="#000100" d="M478 546l160-40 260 208z"/><path fill="#d7ecdd" d="M898 754l-164-80 16 132z"/><path fill="#ccb79f" d="M898-62L646 310l236 192z"/><path fill="#211214" d="M210 262l52 208 208-28z"/><path fill="#ffdc00" d="M154 826L-62 958l152 128z"/><path fill="#fff" d="M646 922l200 164-432-24z"/><path fill="#000e19" d="M694 502L522 286l256 144z"/><path fill="#18798b" d="M174 802l104 284H106z"/><path fill="#ff7a81" d="M474 526l-296-76 72 144z"/><path fill="#ff7a72" d="M142 382l-16 112-188-56z"/><path fill="#ff162a" d="M470 878L334 998l328-152z"/><path fill="#ffdecf" d="M170 142l252-48-160-28z"/><path fill="#fff" d="M454 946l280-120-160 128z"/><path fill="#f5fffa" d="M270-2L-62 86 66-54z"/><path fill="#f6ffff" d="M662 102l40-164-160 172z"/><path fill="#ff5e5c" d="M690 618l12 128-192-132z"/><path fill="#ff100e" d="M898 646L766 442l-56 104z"/><path fill="#5b4545" d="M358 10L74 94l16 84z"/><path fill="#050000" d="M178 490l-240 32 300 48z"/><path fill="#070000" d="M-62 362l200-108-168 188z"/><path fill="#4c1b00" d="M510 50l96 4-128-96z"/><path fill="#b3bcbf" d="M262 654l-80-108-216 16z"/><path fill="#838b6f" d="M358 1086L98 810l200-32z"/><path fill="#d1faff" d="M450 502l-192 52 56-88z"/><path fill="#212021" d="M386 82l68-80-208 24z"/><path fill="#5a443d" d="M458 142l116-24 68 128z"/><path fill="#cee8f0" d="M278 446l48-24-128-4z"/></g></svg>