<svg xmlns="http://www.w3.org/2000/svg" width="228" height="278" viewBox="0 0 836 1024"><path fill="#974e3f" d="M0 0h836v1024H0z"/><path fill="#fc4531" fill-opacity=".745" d="M144.555 317.227l488.964 34.345L554.37 1086-11.29 740.627z"/><path fill="#04343b" fill-opacity=".643" d="M539.547-42.405L-62 10.091l13.313 462.219 341.311-221.953z"/><path fill="#29383d" fill-opacity=".812" d="M530.395 230.725L898 801.104V-62l-365.898 4.727z"/><path fill="#c9db8a" fill-opacity=".808" d="M625.492 1041.997l212.91-19.429-51.857-233.295-146.764 84.204z"/><path fill="#dcec7f" fill-opacity=".702" d="M315.794 926.331L163.237 803.563l-44.09 46.392 100.81 212.656z"/><path fill="#f1a096" fill-opacity=".859" d="M537.877 692.762l-237.49 3.214 60.18-176.255 110.016 10z"/><path fill="#00000a" fill-opacity=".231" d="M306.64 595.352L-62 299.532 29.926 1086l148.923-187.097z"/><path fill="#fc3021" fill-opacity=".808" d="M681.392 449.331l97.977 255.644-58.529 64.65L477.835 291.36z"/><path fill="#d5cead" fill-opacity=".675" d="M286.07 282.51l-80.804 16.035 172.66 95.631 96.387-51.682z"/><path fill="#023a4b" fill-opacity=".478" d="M596.168 779.89l-19.275-148.738 77.184-52.2 75.75 316.514z"/><path fill="#fd3b22" fill-opacity=".776" d="M603.163 1086l-366.172-85.905 317.844-357.13 85.042 254.18z"/><path fill="#b99567" fill-opacity=".725" d="M500.312 58.753L320.164 167.945 509.287 299.23l25.89-180.878z"/><path fill="#223334" fill-opacity=".698" d="M194.954 674.544l18.764 188.915-81.144-117.418 4.833-126.783z"/><path fill="#175d5f" fill-opacity=".506" d="M77.237 385.956L-62 1066.926l254.895-42.629L-62 565.202z"/><path fill="#fffff7" fill-opacity=".314" d="M586.36 454.05L283.234 618.666l216.537-56.313-43.311-176.316z"/><path fill="#db0600" fill-opacity=".569" d="M44.796 659.151l717.954-62.607-436.704 68.967-177.388-310.423z"/><path fill="#37474a" fill-opacity=".824" d="M783.261 691.538L642.484 338.805l197.009 342.37-.16 356.641z"/><path fill="#d4e98d" fill-opacity=".6" d="M184.17 800.223l-48.925 22.726 35.477 180.864 101.532 4.143z"/><path fill="#fe291d" fill-opacity=".584" d="M62.804 801.606l-32.41-190.677 43.019-142.926 82.963 354.755z"/><path fill="#d50c00" fill-opacity=".541" d="M203.84 756.686L143.01 382.78l231.795 518.854-165.547-33.23z"/><path fill="#343939" fill-opacity=".835" d="M669.843 364.679L372.74 271.116l135.394 21.662 26.207-93.028z"/><path fill="#f1dbd8" fill-opacity=".659" d="M271.157 476.45l-34.297 10.896 21.273-59.547 42.263 51.453z"/><path fill="#f1ffff" fill-opacity=".6" d="M430.7 618.954l-79.067-94.919-28.663 88.434 143.076-68.499z"/><path fill="#f0f7a6" fill-opacity=".322" d="M829.73 980.764l-91.38 70.027-30.52-301.948 71.344-9.122z"/><path fill="#27221b" fill-opacity=".855" d="M337.075 13.768l-34.423 198.909 96.147-147.193 204.035-11.98z"/><path fill="#dfb7b7" fill-opacity=".408" d="M99.006 375.072l-1.705 204.15-27.215-125.597L182.772 313.06z"/><path fill="#f51e0a" fill-opacity=".412" d="M725.16 747.562l-115.755-147.22-153.543 69.48 139.637-338.636z"/><path fill="#807e50" fill-opacity=".412" d="M195.66 87.295L354.9 357.37l100.157-17.441L250.223 95.574z"/><path fill="#fff" fill-opacity=".404" d="M439.58 401.68L238.118 300.223l112.601-54.2-98.087 86.561z"/><path fill="#d62e19" d="M242.135 920.38l261.123 160.66 113.165-90.713-322.454 57.37z"/><path fill="#ff4d33" fill-opacity=".859" d="M585.488 656.904L236.143 292.44l71.117 215.817 226.216-27.245z"/><path fill="#faf8f7" fill-opacity=".506" d="M288.634 588.644l40.753-60.645 103.563-5.962-99.249 25.462z"/><path fill="#21313d" fill-opacity=".69" d="M318.261 260.503L100.134-9.464l-110.54 93.32 189.265 233.111z"/><path fill="#dfb7b3" fill-opacity=".549" d="M500.19 679.907l-80.54-31.817-130.146 18.12-18.427 41.304z"/><path fill="#cd9f74" fill-opacity=".667" d="M427.154 191.55l120.277-2.423-65.286-125.173-60.196 4.913z"/><path fill="#c18f8d" fill-opacity=".765" d="M668.633 471.565l23.963-3.076 19.158 28.383-88.29-123.896z"/><path fill="#8f9370" fill-opacity=".608" d="M628.401 1086l99.5-210.4-2.332-67.32-92.736 37.387z"/><path fill="#fcf6f9" fill-opacity=".196" d="M24.971 692.993l100.106-339.3L42.271 575.27-62 732.244z"/><path fill="#563532" fill-opacity=".91" d="M546.815-62l-133.38 34.66 194.512 196.024L708.335 54.21z"/><path fill="#f2331e" fill-opacity=".816" d="M315.614 1086l135.82-321.845 50.104-72.93-203.307 14.789z"/><path fill="#ff422a" fill-opacity=".651" d="M563.62 354.122l-431.91 64.756 85.05-124.095 217.66 152.774z"/><path fill="#f9e8e6" fill-opacity=".369" d="M494.587 306.293l69.867 27.866-106.787-23.522-63.834 99.288z"/><path fill="#ef2c19" fill-opacity=".624" d="M467.8 539.279l-24.595 72.634L670.86 489.585l-138.398 197.31z"/><path fill="#d7f6ff" fill-opacity=".412" d="M137.54 340.774l90.463-40.01-98.908 63.931L80.21 441.8z"/><path fill="#eadddf" fill-opacity=".494" d="M544.465 414.738l-50.313 70.197-22.247-64.71 38.908-6.142z"/><path fill="#39320d" fill-opacity=".412" d="M391.523 276.776l.166-233.797 40.427 290.043 69.11-46.18z"/><path fill="#35444d" fill-opacity=".631" d="M612.176 581.916l-43.192 75.15 160.274 187.27L628.43 621.79z"/><path fill="#3a434a" fill-opacity=".98" d="M808.83 219.108l-61.41 94.354-271.37-82.201 254.89-77.644z"/><path fill="#c11105" fill-opacity=".518" d="M232.127 719.118L56.973 512.57l288.29 111.411 88.605-48.305z"/><path fill="#00131d" fill-opacity=".298" d="M617.396 126.337L898 169.056l-7.324 38.37L839.307-62z"/><path fill="#4a4e52" fill-opacity=".784" d="M98.847 410.612l20.887-53.915L-62 425.941l16.209 230.031z"/><path fill="#282b2e" fill-opacity=".573" d="M124.939 715.202l26.438-107.31 27.11 34.184 13.814 188.95z"/><path fill="#fd5139" fill-opacity=".867" d="M367.187 572.402l127.265-254.193-216.087 180.344 170.384 42.896z"/><path fill="#7e7961" fill-opacity=".341" d="M510.6 23.105L44.108-9.144 328.574 65.64l58.1-81.434z"/><path fill="#a10000" fill-opacity=".502" d="M625.78 544.143l-39.367-5.536 39.007 96.95 90.34 51.288z"/><path fill="#9c0303" fill-opacity=".839" d="M524.285 1086l-100-70.305 172.16-7.205 24.072 21.887z"/><path fill="#f2ff7a" fill-opacity=".471" d="M243.07 918.534l37.345 136.857-125.917-239.802 154.988 111.103z"/><path fill="#55ade6" fill-opacity=".141" d="M-57.94 274.51L88.603-26.059-34.535-28.37l144.232 225.74z"/><path fill="#f93d28" fill-opacity=".878" d="M463.77 305.393L565.332 467.05l83.993-44.977-47.649-68.121z"/><path fill="#3f4642" fill-opacity=".725" d="M54.992 1022.045L172.536 1086l-15.24-182.247-184.638-207.43z"/><path fill="#ff5337" fill-opacity=".569" d="M455.327 730.65l121.824 275.46 71.456-83.534-206.91-269.261z"/><path fill="#47504d" fill-opacity=".918" d="M794.148 693.703l59.528 12.17-24.242 197.089-45.487-95.627z"/><path fill="#fc3d2c" fill-opacity=".651" d="M708.34 747.848l-21.29-7.57 33.789-194.33 71.096 188.016z"/><path fill="#60553f" fill-opacity=".396" d="M786.234 534.894L898 84.127l-159.038 205.99-22.77 244.085z"/><path fill="#eafefa" fill-opacity=".486" d="M378.281 385.505l88.84-33.374-113.404 6.2-125.863-67.305z"/><path fill="#f0fff9" fill-opacity=".529" d="M346.875 566.65l102.82 2.462 20.406-41.946-154.202 105.115z"/><path fill="#b1834f" fill-opacity=".576" d="M449.885 335.353l-62.12-61.696-142.644 12.398 155.858 73.312z"/><path fill="#212d69" fill-opacity=".443" d="M779.53 936.367l13.87 9.076-5.8 19.988-25.03-29.231z"/><path fill="#f8f61d" fill-opacity=".247" d="M728.616 876.305L643.283 1086 898 958.22 752.877 1086z"/><path fill="#e2c2bb" fill-opacity=".871" d="M393.149 628.537l-77.54-11.925-18.1-38.063 22.666 26.15z"/><path fill="#e9311e" fill-opacity=".988" d="M314.879 675.932l-3.015 118.967 36.127-118.542 51.7 118.717z"/><path fill="#fa4a34" fill-opacity=".961" d="M641.775 452.675L494.213 590.757l35.615 61.054-104.743 4.821z"/><path fill="#dcfaff" fill-opacity=".271" d="M486.276 684.52l-53.468-33.455 123.783 17.904-53.26 33.799z"/><path fill="#0c0e0a" fill-opacity=".51" d="M338.176 237.625L334.72 45.353l131.083-29.011L300.694 129.44z"/><path fill="#fb2c1e" fill-opacity=".455" d="M75.23 620.01l84.645 158.872-38.363 88.386-20.186-54.443z"/><path fill="#7c5e3f" fill-opacity=".882" d="M291.682 151.086l217.913-31.424-16.236 26.877-54.296-26.48z"/><path fill="#f6f3ed" fill-opacity=".671" d="M405.342 563.868l9.649 51.763 12.015 19.481 26.537-100.489z"/><path fill="#152339" fill-opacity=".557" d="M748.814 613.187L898 644.804l-47.542-138.267-111.28 65.83z"/><path fill="#d9ad7d" fill-opacity=".396" d="M511.746 285.823l-96.731-170.654 108.525 70.873-127.405 70.833z"/><path fill="#fafff5" fill-opacity=".247" d="M234.437 296.097l51.416 55.981 40.99-120.685 20.778 25.59z"/><path fill="#ff4f35" fill-opacity=".682" d="M240.155 559.867l-11.576-73.026 243.548-57.603 9.212 64.559z"/><path fill="#edfaff" fill-opacity=".392" d="M434.172 634.004l60.467-44.543-59.81 28.681-85.32 6.493z"/><path fill="#f52f18" fill-opacity=".361" d="M320.666 639.718l-60.945-24.946 148.698 9.892-3.1-48.507z"/><path fill="#d30f0b" fill-opacity=".471" d="M61.933 577.965l111.209-168.888-37.843 290.068-122.42 17.824z"/><path fill="#fe4e35" fill-opacity=".953" d="M159.789 388.755l202.276-8.88 188.048 156.047-41.282 22.931z"/><path fill="#c5cc8b" fill-opacity=".6" d="M123.929 867.1l128.072 183.299-81.304-229.633-15.561-14.692z"/><path fill="#494b41" fill-opacity=".749" d="M164.237 149.697L312.93-62l-11.66 209.386 21.286 105.721z"/><path fill="#385251" fill-opacity=".447" d="M623.496 851.756l101.436-24.512-71.721-185.299-65.916 19.536z"/><path fill="#f42918" fill-opacity=".475" d="M228.115 498.263l-127.574-41.859 34.024-97.699 113.215-61.75z"/><path fill="#1e1d11" fill-opacity=".408" d="M413.833 45.027l-104.105 26.34-3.581 43.4 103.914 40.654z"/><path fill="#fa462f" fill-opacity=".988" d="M425.928 724.258l178.396 231.353-213.16-213.599 22.285-78.14z"/><path fill="#263038" fill-opacity=".569" d="M690.342 306.272L503.178 180.206 632.62 377.975l63.555 93.887z"/><path fill="#f4ffff" fill-opacity=".275" d="M395.295 509.372l-74.306 39.157 126.404-18.318 87.904 67.623z"/><path fill="#f6fbfd" fill-opacity=".212" d="M615.61 361.669l70.241 92.597-18.35 35.348-23.618-84.591z"/><path fill="#c87e50" fill-opacity=".741" d="M723.938 805.975l66.764 11.448-11.9-89.407L693.9 748.65z"/><path fill="#0b2a42" fill-opacity=".463" d="M135.022 121.442l-35.096 18.614L-62 112.516l193.103-156.82z"/><path fill="#e72618" fill-opacity=".808" d="M525.166 699.345l-52.985-9.659 127.54 160.107 2.464-39.872z"/><path fill="#fd452c" fill-opacity=".788" d="M598.428 344.375L580.14 448.732l-8.046 261.366-47.7-381.421z"/><path fill="#fea385" fill-opacity=".506" d="M381.153 207.047l-5.959-20.333-30.494-54.85-2.476 36.038z"/><path fill="#9c0b05" fill-opacity=".49" d="M262.182 629.508l-122.859-39.784 68.71 127.994-37.352-258.876z"/><path fill="#e2effa" fill-opacity=".416" d="M148.367 342.29l62.394-36.878 17.406-3.24-62.359 37.868z"/><path fill="#fb3923" fill-opacity=".71" d="M612.214 774.123L461.764 916.06 211.61 1050.004l237.09-29.324z"/><path fill="#f7ffbb" fill-opacity=".361" d="M753.468 902.47l46.717-36.088-54.69-57.493 113.513 221.44z"/><path fill="#b2c368" fill-opacity=".529" d="M205.957 1086l-50.765-128.195 31.01-6.607 95.707 45.33z"/><path fill="#e92209" fill-opacity=".529" d="M433.567 650.59l-194.119 1.525 33.13-114.843 37.078 78.667z"/><path fill="#5c6949" fill-opacity=".788" d="M40.653 1086l-63.628-469.987 48.136 113.755L-62 907.161z"/><path fill="#d2c74c" fill-opacity=".733" d="M311.218 945.332l-2.2-25.736-42.273 4.413 17.832 26.401z"/><path fill="#c6ab8c" fill-opacity=".235" d="M354.831 4.285l-36.976 35.252 48.245-18.12 90.818-14.839z"/><path fill="#f6faff" fill-opacity=".388" d="M366.336 378.06l-79.24-26.596-34.18-46.598 6.732-5.68z"/><path fill="#de0c04" fill-opacity=".475" d="M466.52 385.074l21.661-34.775 125.374 3.08-140.392-37.393z"/><path fill="#95693a" fill-opacity=".545" d="M307.993 305.378l132.242-75.37-5.895-64.231-95.103 66.728z"/><path fill="#e3feff" fill-opacity=".322" d="M221.078 483.83l34.274-30.405 60.622 18.23-49.108 3.157z"/><path fill="#222202" fill-opacity=".239" d="M435.104 357.009l-34.522-139.782-95.263-41.48 158.169 127.688z"/><path fill="#2b4165" fill-opacity=".635" d="M47.14 548.461l-12.625 56.167-96.515.816L44.133 491.347z"/><path fill="#000d07" fill-opacity=".408" d="M481.188 70.833L380.107 21.188l92.82 5.885 43.523 31.9z"/><path fill="#ef2c16" fill-opacity=".988" d="M589.86 706.104l-7.154 44.541-82.575-181.599 39.939 25.518z"/><path fill="#d9b3a8" fill-opacity=".424" d="M105.341 374.994L66.066 545.28l31.483-36.626-2.852-41.315z"/><path fill="#e42914" fill-opacity=".816" d="M284.888 894.366l110.274-68.683-97.475-134.86L212.319 852.4z"/><path fill="#adaa7a" fill-opacity=".659" d="M616.784 983.654L797.73 858.945 638.319 901.08 627.467 1086z"/><path fill="#d51b15" fill-opacity=".6" d="M122.698 620.726l-35.79-196.179-27.381 68.71 104.762-147.845z"/></svg>