<svg xmlns="http://www.w3.org/2000/svg" width="228" height="278" viewBox="0 0 836 1024"><path fill="#a29465" d="M0 0h836v1024H0z"/><g fill-opacity=".502"><path fill="#dcff79" d="M334 1086l428-776-580 56z"/><path fill="#672f4b" d="M-62 2l960-4-488 404z"/><path fill="#b8ff2c" d="M682 394l-480 624 448 28z"/><path fill="#073fb6" d="M330 578l20 128 280-88z"/><path fill="#ffffd1" d="M294 730l180 356-268-28z"/><path fill="#ffc" d="M898 558L434 294l236 24z"/><path fill="#933d5b" d="M210 1086l68-492-340-44z"/><path fill="#f9ff99" d="M362 482l-24-200-360 292z"/><path fill="#b9d9ff" d="M654 910l244 52-212 124z"/><path fill="#894771" d="M346 246L-62 34l88 508z"/><path fill="#7c396c" d="M570 262l328 208V10z"/><path fill="#83b20d" d="M410 806l204 96 100-508z"/><path fill="#813961" d="M650 874l248 64-88-440z"/><path fill="#e4ff6f" d="M606 330L158 462l148 188z"/><path fill="#211d0f" d="M398-62L270 114l192-40z"/><path fill="#001589" d="M390 698l132-28-228-20z"/><path fill="#76a100" d="M234 542l-48-80-248 228z"/><path fill="#f3ff86" d="M274 810l-40 232 524 44z"/><path fill="#ebff8b" d="M486 426l12-148 384 236z"/><path fill="#a3745b" d="M426 66L42 382l584-104z"/><path fill="#5a3c00" d="M358 374l40-144 68 160z"/><path fill="#a96b7f" d="M254 1086l-316-92L98 590z"/><path fill="#c4ef44" d="M258 598l136 488 288-116z"/><path fill="#641e35" d="M266 682l-96 172 100-16z"/><path fill="#fffff7" d="M222 362l132-20-236 112z"/><path fill="#140764" d="M546 442l20 40-88-24z"/><path fill="#583700" d="M122 562L-62 750l80-172z"/><path fill="#276bc8" d="M438 570l-148 72 232-40z"/><path fill="#617d00" d="M670 618l-80-44 136-136z"/><path fill="#fdffbd" d="M238 902l264 44-272 88z"/><path fill="#1b0c00" d="M322 182l96-24 44 28z"/><path fill="#bce63d" d="M586 382l-76 344 200-328z"/><path fill="#aa5f66" d="M654 926l32-396 212-20z"/><path fill="#deff6c" d="M274 598l184-228 64 196z"/><path fill="#b3cbf2" d="M498 638l-112-32-36 44z"/><path fill="#f8ffc2" d="M118 554l52-148-96 112z"/><path fill="#f2ffd1" d="M682 326l-200-40 336 184z"/><path fill="#b5f037" d="M110 570l216-172-192 68z"/><path fill="#8c6468" d="M430 298L2 30l-20 412z"/><path fill="#697b89" d="M666 922l184-160 48 200z"/></g></svg>