<svg xmlns="http://www.w3.org/2000/svg" width="228" height="278" viewBox="0 0 836 1024"><path fill="#834139" d="M0 0h836v1024H0z"/><path fill="#efe9f6" fill-opacity=".89" d="M635.55 1086l-272.136-40.136 239.752-95.855 33.987 18.3z"/><path fill="#7c735f" fill-opacity=".914" d="M404.397 59.602L898 256.116 20.03 306.11-62 180.21z"/><path fill="#d10013" fill-opacity=".467" d="M100.466 885.623l431.98 105.948L658.353 727.79 9.513 628.86z"/><path fill="#082526" fill-opacity=".694" d="M42.087 583.32l-63.583 438.116L-62 359.816l223.377-79.08z"/><path fill="#35190d" fill-opacity=".584" d="M642.94 1017.017l104.515-58.668 130.37-677.502L659.41 382.058z"/><path fill="#ff906e" fill-opacity=".439" d="M-62 1023.334l201.082-96.989-146.55-234.93L432.9 1086z"/><path fill="#0b554a" fill-opacity=".341" d="M709.064 15.795l-337.369 13.8L898 533.579V-30.269z"/><path fill="#373c36" fill-opacity=".749" d="M-62 41.845V151.38l344.17 1.637 3.275-114.574z"/><path fill="#c71816" fill-opacity=".4" d="M167.36 319.102l105.778-65.356 340.97 304.549-550.61 95.042z"/><path fill="#3d363c" fill-opacity=".749" d="M203.632 861.424L127.99 699.202l96.046-297.696-20.627 208.753z"/><path fill="#e3c49c" fill-opacity=".525" d="M349.155 154.794l-36.418 188.852-37.649-284.86L419.673 74.25z"/><path fill="#ffb7ee" fill-opacity=".302" d="M81.066 457.525l107.832-164.567L29.868 741.46l-62.344 174.65z"/><path fill="#f92b3d" fill-opacity=".573" d="M847.986 620.223L898 795.778 790.75 915.665l-24.116-248.072z"/><path fill="#1a3c50" fill-opacity=".678" d="M60.816 811.586L-62 553.256l74.542 352.141 109.192-9.48z"/><path fill="#92090d" fill-opacity=".596" d="M413.14 771.984l194.58 199.69 9.316-420.08 117.363-238.728z"/><path fill="#6ffff4" fill-opacity=".212" d="M708.307 933.838L442.217 1086l384.691-37.041-21.172-175.377z"/><path fill="#ffca66" fill-opacity=".192" d="M265.553 680.608l20.58-134.43 307.734-81.582L489.71 702.694z"/><path fill="#bab788" fill-opacity=".584" d="M175.557 885.802l12.41 177.057 142.326-57.884-49.127-67.885z"/><path fill="#b11720" fill-opacity=".875" d="M641.952 918.269L282.322 1086l59.669-29.882-142.343-469.075z"/><path fill="#b50002" fill-opacity=".349" d="M534.37 271.205l-81.095 102.044L898 645.813 731.298 374.27z"/><path fill="#6c6756" fill-opacity=".898" d="M890.93 336.32l-488.523-91.068L898 111.565 770.5-62z"/><path fill="#cd332c" fill-opacity=".592" d="M224.394 1086L-62 986.234 261.29 833.96 17.799 670.74z"/><path fill="#afa58a" fill-opacity=".392" d="M-37.898 223.96l337.255 46.95 58.825 99.61 75.567-212.309z"/><path fill="#3a372f" fill-opacity=".729" d="M852.103 74.272l-438.949-22.59 59.208 95.587 246.589-3.981z"/><path fill="#0a241e" fill-opacity=".396" d="M744.728 536.33l32.918 159.974-38.865 317.508-95.843-19.494z"/><path fill="#8f5922" fill-opacity=".745" d="M612.976 536.8l-3.414 315.54 96.482-258.303-23.32-67.092z"/><path fill="#720000" fill-opacity=".522" d="M217.538 426.057l50.023 105.205-125.66 99.796-40.834-158.572z"/><path fill="#6cc2f9" fill-opacity=".522" d="M64.271 550.046L90.31 449.171l17.895 50.64-.458 47.006z"/><path fill="#ff304f" fill-opacity=".435" d="M279.18 329.64l29.43-87.852-151.054 93.52-71.763 130.21z"/><path fill="#f8a58b" fill-opacity=".361" d="M769.049 604.552l32.036 230.672-62.687 97.173 62.153 132.201z"/><path fill="#ff4862" fill-opacity=".545" d="M724.828 368.699l-125.29-82.126-57.383 51.763 30.76-4.518z"/><path fill="#61534b" fill-opacity=".604" d="M292.736 65.737L-62 19.98 574.609-62l26.883 131.958z"/><path fill="#775f42" fill-opacity=".667" d="M-62 161.382l642.99-32.21-173.943 295.05 17.566-253.057z"/><path fill="#93effc" fill-opacity=".212" d="M584.548 505.881l20.367-59.402-66.019-26.089-27.318 85.846z"/><path fill="#ba081c" fill-opacity=".616" d="M463.5 568.468l-211.62 4.212 319.661-66.695 7.647 51.747z"/><path fill="#637f7a" fill-opacity=".298" d="M302.02 155.29L-62 107.205l86.189 239.75 213.127-43.595z"/><path fill="#560c0a" fill-opacity=".482" d="M286.844 923.813L479.466 1086 210.844 891.38l-5.778-106.216z"/><path fill="#630505" fill-opacity=".573" d="M779.443 648.598L898 599.4l-326.004-97.003 169.41-110.42z"/><path fill="#ea253c" fill-opacity=".455" d="M640.171 948.289L591.04 641.206l24.538 241.133-217.1 126.38z"/><path fill="#845d5d" fill-opacity=".698" d="M185.865 851.013l-21.862-101.665 47.925-116.287-11.224 221.597z"/><path fill="#d5f19e" fill-opacity=".361" d="M245.277 513.244l15.73-31.516-12.648-14.998 75.94 30.466z"/><path fill="#081a04" fill-opacity=".435" d="M314.814 75.476l90.961-27.937-21.173-18.464-73.421-14.534z"/><path fill="#433c1d" fill-opacity=".694" d="M400.986 326.424l-15.98 23.045-35.952-33.4 121.824-60.873z"/><path fill="#811d1f" fill-opacity=".749" d="M246.417 348.105l-82.696 55.994 550.787 18.786-205.962-33.144z"/><path fill="#651b12" fill-opacity=".486" d="M545.027 449.845L109.978 608.488l101.492-92.426 427.966-52.167z"/><path fill="#521709" fill-opacity=".49" d="M358.888 212.979l-25.762-11.96-4.296 56.83 43.935-8.29z"/><path fill="#1d1e1b" fill-opacity=".573" d="M-34.045 391.035l19.926 339.628 52.824-176.056L170.247 308.62z"/><path fill="#916f45" fill-opacity=".804" d="M337.959 362.808l197.777-121.18-72.037 111.716-51.96 20.397z"/><path fill="#5a0600" fill-opacity=".373" d="M651.943 464.857L522.46 635.722l-272.471 22.136 317.021.355z"/><path fill="#252524" fill-opacity=".827" d="M655.094 324.242L898 367.393l-46.943 164.313-140.728-193.61z"/><path fill="#002d45" fill-opacity=".392" d="M155.938 748.616l-35.057-60.571 87.727-155.349-9.846 139.711z"/><path fill="#df1518" fill-opacity=".365" d="M169.449 573.064l-133.5 94.524 229.097-389.355L95.476 467.22z"/><path fill="#fa8094" fill-opacity=".302" d="M898 649.446L727.278 365.953l-95.534-53.71 155.901 126.39z"/><path fill="#fffa5e" fill-opacity=".31" d="M477.9 512.504L233.165 575.57l128.73-51.218 138.98-35.507z"/><path fill="#ead5c0" fill-opacity=".427" d="M294.181 59.627l-5.899 55.104 60.733 63.812-7.003-86.514z"/><path fill="#c7e07e" fill-opacity=".31" d="M375.691 678.177l10.256-25.838 84.98-39.279-14.603-66.043z"/><path fill="#b0975a" fill-opacity=".78" d="M319.925 570.458l-5.337-6.263-37.876 59.67 60.332 19.335z"/><path fill="#f32f4e" fill-opacity=".349" d="M24.083 750.813l18.775-102.315 107.249 102.008 20.954 193.518z"/><path fill="#371000" fill-opacity=".408" d="M142.055 937.242l-43.187-77.128L62.6 834.52 9 899.516z"/><path fill="#c97832" fill-opacity=".224" d="M356.078-48.523L502.07 175.96l-136.5 146.62 15.392-283.186z"/><path fill="#a5141a" fill-opacity=".875" d="M300.292 570.955l-85.855 214.662 403.7 118.681-422.116-303.887z"/><path fill="#d7d891" fill-opacity=".318" d="M286.704 89.895l19.968 220.213 88.994 76.887-104.537-181.24z"/><path fill="#fbffff" fill-opacity=".231" d="M408.038 1026.953l79.14 59.047 373.65-25.244-326.466-92.172z"/><path fill="#dc9b53" fill-opacity=".576" d="M90.23 648.835L63.794 546.584l-23.877 66.515 15.329 22.073z"/><path fill="#4475bb" fill-opacity=".302" d="M49.468 781.202L-62 518.092v379.367l124.666-90.41z"/><path fill="#cc9e5d" fill-opacity=".424" d="M598.166 460.595l-99.708-14.269 76.936-31.465 42.355 37.265z"/><path fill="#401c1d" fill-opacity=".243" d="M316.19 174.442L705.364-55.093l31.026 35.344-17.652 129.676z"/><path fill="#6d1513" fill-opacity=".647" d="M238.503 865.528l84.522 133.707 1.288 21.034L448.787 1086z"/><path fill="#25413c" fill-opacity=".624" d="M822.7 905.06l.394 180.94 33.33-85.008 23.254-100.658z"/><path fill="#ff7b98" fill-opacity=".424" d="M82.864 471.778l11.976 10.347 85.99-143.607-30.723 6.957z"/><path fill="#808174" fill-opacity=".537" d="M614.538 171.496l6.567 91.694 248.645-98.57 17.441 107.803z"/><path fill="#383f4a" fill-opacity=".616" d="M773.006 979.315l-131.113 34.844.706-127.821 128.327 154.658z"/><path fill="#cd202b" fill-opacity=".737" d="M420.028 901.574l60.29-29.785-217.38-34.117-2.872 57.181z"/><path fill="#b8c472" fill-opacity=".467" d="M341.867 662.864l51.583-83.515-23.17-10.345-10.774 16.4z"/><path fill="#cbdffb" fill-opacity=".329" d="M587.942 473.083l-25.593 21.279-104.451 13.117 135.902-2.665z"/><path fill="#64421d" fill-opacity=".514" d="M633.313 878.247l71.923 9.704-7.176-266.431-85.688 77.764z"/><path fill="#505340" fill-opacity=".522" d="M44.643 256.617l145.574 49.867-44.154 32.875L-62 341.965z"/><path fill="#dff5d1" fill-opacity=".188" d="M298.372 8.162l-151.326-33.74 278.947 36.157 8.056 20.346z"/><path fill="#33322d" fill-opacity=".584" d="M180 135.368L-58.155 83.21l351.358-12.228-12.525 48.812z"/><path fill="#973427" fill-opacity=".843" d="M387.948 653.709l-115.26-13.431 24.496 71.804 155.268-163.355z"/><path fill="#80817b" fill-opacity=".365" d="M898-62L469.454 36.148 625.81-62l168.4 121.714z"/><path fill="#c03a1e" fill-opacity=".537" d="M229.416 860.404L106.84 935.156l-131.678-30.753L-8.462 1086z"/><path fill="#dd010a" fill-opacity=".239" d="M468.994 269.577l45.507 47.495 220.629 84.192-185.616-137.95z"/><path fill="#261707" fill-opacity=".231" d="M762.49 909.894l-70.833-68.227L677.9 350.045 786.423 773.09z"/><path fill="#e4d0c0" fill-opacity=".247" d="M494.557 113.866l-1.922-48.432 14.753 5.817-50.426-34.804z"/><path fill="#5c1211" fill-opacity=".557" d="M449.551 387.503l99.687-40.672-40.4-26.331-99.608 69.592z"/><path fill="#c3872f" fill-opacity=".302" d="M633.489 511.615l69.78 35.89-54.23 89.05-36.676-68.434z"/><path fill="#7e0d10" fill-opacity=".655" d="M353.286 885.485l109.72-31.823 73.293-18.304-32.153-28.336z"/><path fill="#c8b785" fill-opacity=".427" d="M278.597 979.22l-73.468 42.97-53.722-91.98 58.392-31.38z"/><path fill="#525443" fill-opacity=".545" d="M843.887 332.413L727.61 136.872 898-62 700.194 324.625z"/><path fill="#ffb7a9" fill-opacity=".365" d="M783.281 792.218l2.968 89.837-45.78 46.17 25.217 43.964z"/><path fill="#b40001" fill-opacity=".243" d="M898 767.553V382.901L786.433 632.1l38.401 308.163z"/><path fill="#d5b16e" fill-opacity=".463" d="M268.362 501.934l64.366-47.18-24.361 56.739-49.668-38.271z"/><path fill="#b16b32" fill-opacity=".847" d="M268.009 567.536l-31.957 2.03-33.414-17.052 88.11-.11z"/><path fill="#850501" fill-opacity=".373" d="M185.107 596.116L92.561 721.843l30.003-190.698-58.01 35.836z"/><path fill="#ffcfbe" fill-opacity=".278" d="M289.802 180.828l148.297-2.255-87.227 23.243-57.888 9.002z"/><path fill="#eeebf7" fill-opacity=".647" d="M407.294 1055.353l74.054-57.536 129.647-44.253-25.446 74.623z"/><path fill="#94282d" fill-opacity=".729" d="M291.97 476.051l289.054-146.889-113.205 151.28 138.8 16.2z"/><path fill="#901115" fill-opacity=".753" d="M563.665 522.69l63.957-79.816-136.915 407.579 118.19-115.849z"/><path fill="#141400" fill-opacity=".255" d="M473.006 88.613L326.544 9.773l136.925 43.13-56.338 73.107z"/><path fill="#1d1904" fill-opacity=".314" d="M341.767 316.987l88.06-33.755 50.652-73.979-84.741 135.758z"/><path fill="#867446" fill-opacity=".478" d="M333.714 659.915l-49.887 11.61 39.781 28.103 215.99-38.578z"/><path fill="#e8f4ff" fill-opacity=".478" d="M285.487 88.914l23.31-22.24-7.95 29.53-8.202 46.413z"/><path fill="#ffdaff" fill-opacity=".133" d="M559.506 275.096l-.365 3.316 201.238 116.223-88.139-68.559z"/><path fill="#ad7660" fill-opacity=".824" d="M345.625 1086l-286.692-63.176 286.824-16.066-78.671-49.539z"/><path fill="#c12128" fill-opacity=".737" d="M440.204 521.39l58.738-8.4-1.651 43.06-12.543 65.557z"/><path fill="#e5181e" fill-opacity=".345" d="M308.499 266.147l-119.34 41.267 45.987 55.253 74.01-21.88z"/><path fill="#5c0f09" fill-opacity=".647" d="M647.898 509.803l66.591-125.925-86.12 5.994 188.57 258.399z"/><path fill="#c8262f" fill-opacity=".788" d="M208.23 643.196l3.407 132.676 23.633-28.803-14.24-198.53z"/><path fill="#762b1a" fill-opacity=".714" d="M455.876 620.718l143.742-19.865-77.04-24.567 16.392 59.922z"/><path fill="#170303" fill-opacity=".212" d="M284.238 540.169l-95.211-106.812 5.984 219.96-45.055-85.103z"/><path fill="#c32d2d" fill-opacity=".831" d="M55.515 606.94l82.402-45.241-68.753-10.529 41.966 84.12z"/><path fill="#8f6f46" fill-opacity=".659" d="M814.025 1037.58l-53.52-74.98 57.397-76.565 8.685 121.053z"/><path fill="#88887d" fill-opacity=".518" d="M236.853 287.059L22.525 194.413l259.548-17.596 16.442 78.483z"/><path fill="#db2539" fill-opacity=".459" d="M486.247 941.044L331.533 963.24l129.686 53.209-8.964-52.57z"/><path fill="#fbe7fb" fill-opacity=".255" d="M104.505 421.186L50.543 622.23l-6.767-51.66 10.707-4.07z"/><path fill="#fe4264" fill-opacity=".31" d="M784.41 739.822l-10.972-128.044 51.036 173.016-51.158 109.496z"/><path fill="#5b5b4e" fill-opacity=".537" d="M469.873 241.453l303.559-101.545-325.067-13.797L702.85 336.69z"/><path fill="#9aa325" fill-opacity=".298" d="M820.124 536.094l-25.346 26.589-33.281 10.574 71.99-79.766z"/><path fill="#ad1d23" fill-opacity=".408" d="M573.607 819.47l19.965-198.867 60.25 348.203-53.565-12.3z"/></svg>