<svg xmlns="http://www.w3.org/2000/svg" width="228" height="278" viewBox="0 0 836 1024"><path fill="#7b776d" d="M0 0h836v1024H0z"/><path fill="#624819" fill-opacity=".698" d="M898 1011.658l-960 60.325 646.203-883.316-66.923 630.96z"/><path fill="#ffeae6" fill-opacity=".502" d="M317.98 812.76l98.277 69.257L898 794.945l-50.962-178.226z"/><path fill="#a8ccff" fill-opacity=".529" d="M513.768-62L284.282 351.07-62 329.513-40.519-62z"/><path fill="#ffe5da" fill-opacity=".455" d="M-36.913 826.005L-62 688.42l292.439-84.901 143.576 196.22z"/><path fill="#b4c7e7" fill-opacity=".659" d="M627.366 292.453l11.051-212.104L787.688-62l52.03 399.511z"/><path fill="#003f89" fill-opacity=".533" d="M252.007 325.22L-62 339.46l52.842 256.213 155.14 19.754z"/><path fill="#003068" fill-opacity=".612" d="M715.728 293.455L675.935 590.31 898 606.16V404.674z"/><path fill="#0c0001" fill-opacity=".675" d="M658.48 103.676L437.993 89.2l10.936-52.965L551.39-24.186z"/><path fill="#1d242f" fill-opacity=".635" d="M871.084 814.519L497.45 945.222l-252.453 72.9 647.511 58.736z"/><path fill="#181509" fill-opacity=".871" d="M107.74 903.698l58.735-170.167 59.014 58.13-20.135.583z"/><path fill="#64511b" fill-opacity=".969" d="M267.407 680.739l216.592 136.923 39.54-66.974-82.242-537.579z"/><path fill="#070802" fill-opacity=".694" d="M320.008 419.216l-52.787-37.074-66.185 186.874 59.41-23.503z"/><path fill="#000304" fill-opacity=".784" d="M163.85 1086l48.073-27.704 67.344-280.799-111.19 142.895z"/><path fill="#0b0b05" fill-opacity=".824" d="M597.675 270.294l46.809 105.518 5.978 82.092-54.812-36.577z"/><path fill="#be9e40" fill-opacity=".992" d="M329.737 625.763l-206.573 273.48-11.72 113.019 127.54-191.935z"/><path fill="#edda91" fill-opacity=".812" d="M316.407 255.269L138.802 706.3l52.933-209.784 62.612-162.291z"/><path fill="#fdd02e" fill-opacity=".424" d="M224.618 948.694l319.144-538.117-216.025 442.469L281.652 1086z"/><path fill="#3369a2" fill-opacity=".827" d="M225.847 255.775l67.217 14.02 17.157-213.9L269.275-62z"/><path fill="#b7a03a" fill-opacity=".996" d="M442.242 375.695l-10.591 239.07 62.414-60.061-6.407-124.356z"/><path fill="#010113" fill-opacity=".604" d="M319.414 732.129l117.5-463.53 8.53 239.485-82.928 223.979z"/><path fill="#fcdd33" fill-opacity=".604" d="M373.788 308.247l27.66 75.675L377.845 521.6l-58.857-102.764z"/><path fill="#e8f2ff" fill-opacity=".525" d="M160.85 678.755l-187.13 4.14-31.836 146.382 203.699-1.835z"/><path fill="#020504" fill-opacity=".82" d="M295.781 1047.565L329.033 1086l62.575-218.006-60.88-30.405z"/><path fill="#e3c41b" fill-opacity=".706" d="M601.121 513.548l-52.984 94.442 3.805-188.948 37.617-73.226z"/><path fill="#e4dfd9" fill-opacity=".71" d="M520.169 804.87l98.786 3.077-15.488-167.764-62.58 24.84z"/><path fill="#915b23" fill-opacity=".588" d="M660.541 742.294l19.138-382.59-101.343 194.41L678.38 997.929z"/><path fill="#010202" fill-opacity=".78" d="M502.643 438.978L484.77 594.29l54.267-13.295 16.695-106.939z"/><path fill="#ffd353" fill-opacity=".51" d="M363.211 1000.357l10.842-81.912 125.96-249.286-88.823 326.126z"/><path fill="#eaf7ff" fill-opacity=".392" d="M898 714.88v147.138l-239.138-64.62 4.257-170.177z"/><path fill="#cc7c5d" fill-opacity=".624" d="M599.011 89.084l-179.73 60.518 48.174 195.381 127.108-124.618z"/><path fill="#1c2431" fill-opacity=".655" d="M-62 984.461L243.079 1086 102.736 975.793 47.417 834.348z"/><path fill="#cf957a" fill-opacity=".792" d="M163.534 615.479l469.386 330.69-454.273-194.242 145.06-233.177z"/><path fill="#ffe54f" fill-opacity=".678" d="M614.714 304.125l55.296 10.061 44.261 59.963-53.422 23.962z"/><path fill="#b1bacc" fill-opacity=".745" d="M404.526 235.169L362.122-47.768l-56.974 280.313-116.467 144.06z"/><path fill="#494444" fill-opacity=".745" d="M751.565 1086L499.299 841.48l40.838-11.265L898 857.402z"/><path fill="#0a0000" fill-opacity=".659" d="M401.161 808.125l48.46-157.943-90.962-23.699 150.198 46.904z"/><path fill="#246db1" fill-opacity=".69" d="M-62 426.411L80.477 322.44l52.104-56.455 91.495 178.095z"/><path fill="#1f5ea2" fill-opacity=".655" d="M799.24 159.036l5.596 86.185 70.977 15.293L835.65-49.462z"/><path fill="#171c18" fill-opacity=".533" d="M411.162 257.019l-22.71 165.742 89.464-86.117-191.95-30.676z"/><path fill="#451900" fill-opacity=".286" d="M-62 588.862V470.555l247.58 7.651-31.608 175.873z"/><path fill="#612215" fill-opacity=".31" d="M748.586 603.93l133.987 96.265L898 426.47 275.313 671.777z"/><path fill="#ffede8" fill-opacity=".18" d="M-27.775 121.601L-34.092-62 259.805 97.596l-38.425 301.59z"/><path fill="#111215" fill-opacity=".878" d="M479.048 1065.213l-123.207 4.104 92.38-140.651 122.978 56.17z"/><path fill="#0a8bf3" fill-opacity=".306" d="M755.834 293.717l-84.695 145.326 191.509-17.95L898 377.327z"/><path fill="#e1a496" fill-opacity=".494" d="M426.881 798.733L180.798 651.802l325.567 295.691 39.853-17.008z"/><path fill="#1b0903" fill-opacity=".584" d="M533.357 150.772l-32.333 21.326 107.785 7.116 34.259-14.949z"/><path fill="#7c7f7d" fill-opacity=".929" d="M384.493 490.676l100.895 11.017-6.04-10.844-96.878-28.168z"/><path fill="#0464d5" fill-opacity=".392" d="M424.03 273.05l-42.793-21.466L395.67 104.83l52.959 132.445z"/><path fill="#d8be68" fill-opacity=".702" d="M174.199 545.934l109.35 75.671 63.455-251.56L221.28 635.734z"/><path fill="#edc12b" fill-opacity=".42" d="M436.202 714.588l-90.489 49.253 143.289-174.074-13.886-69.942z"/><path fill="#d4bf43" d="M280.403 409.506l5.202-54.828 25.442-1.983 9.785 27.738z"/><path fill="#8c5839" fill-opacity=".847" d="M629.536 565.677L352.52 616.602l150.237 40.43-21.523 80.462z"/><path fill="#617ea8" fill-opacity=".788" d="M626.391 35.59l-188.78-84.64L783.143-62 635.77 115.74z"/><path fill="#0a0402" fill-opacity=".859" d="M301.597 703.114l49.089 47.139 7.033-30.69 43.77-196.007z"/><path fill="#d5cb47" fill-opacity=".451" d="M112.828 903.354l-40.318 4.518 85.592 124.564 30.464-217.709z"/><path fill="#301c07" fill-opacity=".435" d="M466.638 310.666l170.043-10.094-82.783 88.4-75.984-141.954z"/><path fill="#101103" fill-opacity=".471" d="M341.27 338.016l23.855 31.149-76.455-32.38 27.314-46.777z"/><path fill="#01040b" fill-opacity=".494" d="M457.056 337.19l92.29 179.439L417.832 324.22l1.497-96.1z"/><path fill="#cdb43b" fill-opacity=".647" d="M538.412 390.427l-85.876 73.038-25.68-105.479 95.918 91.408z"/><path fill="#34639b" fill-opacity=".69" d="M-44.436 302.499l-11.388-95.434 90.963-23.83 11.557 44.825z"/><path fill="#020502" fill-opacity=".612" d="M476.747 776.029l-.438 43.727 34.961-57.51 28.531-94.714z"/><path fill="#d79a86" fill-opacity=".592" d="M670.87 100.027L499.033 237.121l114.811-22.295L504.34 99.128z"/><path fill="#eeda6b" fill-opacity=".694" d="M376.33 305.371l-1.051-2.47 18.354 85.288-64.006-62.066z"/><path fill="#1d2021" fill-opacity=".729" d="M258.63 578.311l28.261-161.62-84.478 113.725 1.995 36.314z"/><path fill="#070805" fill-opacity=".698" d="M192.839 864.955l86.955-47.83 14.909 15.348-97.167 118.273z"/><path fill="#fcf526" fill-opacity=".306" d="M227.609 1047.157l14.787-112.734 65.89-130.567 1.87 166.326z"/><path fill="#444546" fill-opacity=".933" d="M19.295 1081.142l84.933-208.134 7.458-30.717-143.365 4.67z"/><path fill="#822003" fill-opacity=".216" d="M185.637 830.845l-5.03-62.068 215.165 105.42-258.26-242.92z"/><path fill="#837100" fill-opacity=".631" d="M284.91 698.578l57.934-57.85 48.898-144.154-106.367 68.133z"/><path fill="#c18061" fill-opacity=".443" d="M702.512 853.371L576.559 517.787l35.455 271.45 28.337 111.749z"/><path fill="#0f0e0a" fill-opacity=".757" d="M248.829 1063.471L88.92 978.463l32.485-97.631-25.8 195.07z"/><path fill="#b5a41e" fill-opacity=".71" d="M540.264 644.855L442.08 831.33l31.808-122.1 35.555-49.097z"/><path fill="#bdab02" fill-opacity=".573" d="M686.957 402.924l25.108-11.708-64.713-49.015 3.061 139.105z"/><path fill="#dedce4" fill-opacity=".333" d="M-62 377.448L50.283 349.18l45.445-64.29 4.677-111.8z"/><path fill="#bec2cb" fill-opacity=".478" d="M841.726-62l-73.824 291.174-113.604 55.489-.678-186.506z"/><path fill="#657c9f" fill-opacity=".49" d="M163.32-4.273L460.652.086 275.496 64.504l-159.025-9.129z"/><path fill="#040301" fill-opacity=".725" d="M458.273 665.824l-67.179 114.924 34.208 7.862 74.178-135.47z"/><path fill="#eca473" fill-opacity=".424" d="M143.934 688.012l25.037-130.64 80.143 22.637 71.525 185.709z"/><path fill="#003c85" fill-opacity=".161" d="M107.503 152.21l15.211 293.011 45.094-315.937L-62 25.508z"/><path fill="#bdbfc7" fill-opacity=".757" d="M438.696 52.04l90.293-86.4L322.443 98.493l113.176 7.339z"/><path fill="#d8aba0" fill-opacity=".898" d="M538.06 799.674L430.065 824.11l-38.884 12.642 30.244 73.681z"/><path fill="#2f2505" fill-opacity=".706" d="M359.835 459.32l-24.115 50.473L322.29 489l18.946-33.487z"/><path fill="#863733" fill-opacity=".722" d="M468.036 660.803L367.614 649.38l24.38-65.87 164.476 18.567z"/><path fill="#c1a42d" fill-opacity=".969" d="M430.889 972.569l-45.678-68.134-15.464 95.79 47.615-17.105z"/><path fill="#00020e" fill-opacity=".337" d="M470.1 38.592l-4.66 6.055 108.542 65.296 125.242-81.7z"/><path fill="#000400" fill-opacity=".424" d="M186.113 819.237l40.705-34.633L172.206 742 103.93 900.628z"/><path fill="#6787b5" fill-opacity=".576" d="M630.225 159.048L642.135-62l14.644 315.864-61.21 31.52z"/><path fill="#23221c" fill-opacity=".761" d="M236.1 540.705l-38.448 16.335 60.927-137.061 84.052-43.462z"/><path fill="#ccced4" fill-opacity=".494" d="M155.878 251.807l55.052 104.54 10.28-268.32-59.07-22.441z"/><path fill="#0a0b09" fill-opacity=".592" d="M566.263 930.129l-124.704 135.242L238.1 1006.7l135.973-4.04z"/><path fill="#161917" fill-opacity=".694" d="M391.488 342.153l-37.343-66.85 45.383 8.886 14.23 192.105z"/><path fill="#0b0c0b" fill-opacity=".765" d="M439.25 1005.188l-214.2 53.674 36.073-278.01-117.081 270.07z"/><path fill="#414141" fill-opacity=".89" d="M531.688 899.167L898 994.827 635.8 1086 530.042 929.636z"/><path fill="#ddf5f6" fill-opacity=".173" d="M618.731 445.505l34.449-7.142-145.35 351.37 104.7 15.147z"/><path fill="#c6896b" fill-opacity=".725" d="M494.237 85.943l-41.28 247.377-15.086-90.127 104.19-149.426z"/><path fill="#020e01" fill-opacity=".318" d="M898 590.157l-231.115-18.919 27.369-32.743L898 521.009z"/><path fill="#005298" fill-opacity=".525" d="M241.892 236.511l39.176 12.487 8.63-224.587-14.319 26.706z"/><path fill="#e9d046" fill-opacity=".38" d="M347.939 325.375l30.556 228.43 26.732-287.117 15.212 74.381z"/><path fill="#0e1802" fill-opacity=".369" d="M534.685 654.498l-75.882 180.658 98.962-191.824 63.16-140.873z"/><path fill="#daaa9f" fill-opacity=".753" d="M382.136 778.287l49.753 61.276 128.925 54.813-80.853-72.737z"/><path fill="#d3bc39" fill-opacity=".808" d="M562.126 533.392l-15.077-51.778 27.06-129.95 31.73 132.354z"/><path fill="#010002" fill-opacity=".827" d="M426.914 586.737l5.839-91.428-39.231 13.413-35.583 96.613z"/><path fill="#5d4024" fill-opacity=".38" d="M638.124 802.015l-8.95-216.813 17.248-168.274 36.98 172.934z"/><path fill="#24211e" fill-opacity=".467" d="M-62 587.337l204.766-4.142 14.277-58.084-207.68 31.863z"/><path fill="#0f100e" fill-opacity=".878" d="M598.412 393.871l2.233 44.776 45.817 4.133-53.513-152.172z"/><path fill="#141008" fill-opacity=".592" d="M489.848 610.1l36.552-88.51 42.892-145.793 5.34-60.928z"/><path fill="#e1e3ec" fill-opacity=".573" d="M898 705.042v95.103l-209.334-10.188 24.313-90.07z"/><path fill="#c98e70" fill-opacity=".678" d="M445.862 147.39l108.737 157.13-64.249-16.081 65.07-90.446z"/><path fill="#fef571" fill-opacity=".561" d="M501.317 934.623l28.288-16.82-5.646 23.641-44.274 9.006z"/><path fill="#ffff7d" fill-opacity=".353" d="M320.014 248.227l-157.378 293.17 149.948 69.545-134.661-24.098z"/><path fill="#b8beca" fill-opacity=".902" d="M171.96 339.681l208.09-75.755L351.06 8.308l-26.106 241.265z"/><path fill="#ceb92a" fill-opacity=".584" d="M564.207 418.555l-45.808 27.734-.565 12.58-29.418-40.345z"/><path fill="#94790d" fill-opacity=".929" d="M347.126 618.475l-60.137 30.12-37.38-6.862 47.61 56.71z"/><path fill="#688ab7" fill-opacity=".412" d="M706.687 344.543l-38.876-48.116 38.738-40.433L854.81 356.12z"/><path fill="#a09a8f" fill-opacity=".478" d="M885.896 620.33l-218.938 88.7L682.79 862.9l-26.657-223.764z"/><path fill="#e1c83e" fill-opacity=".388" d="M473.76 729.128l100.845-94.257-56.31 137.918 19.6-135.986z"/><path fill="#2a2e35" fill-opacity=".545" d="M285.932 308.652l41.458-24.065 18.1 91.28-22.757-26.525z"/><path fill="#ffe949" fill-opacity=".341" d="M145.24 859.815l-34.31 64.545 115.462-83.335 15.214-59.999z"/><path fill="#bdabb5" fill-opacity=".494" d="M617.629 288.794L516.12 277.381l7.773-6.09L898 273.61z"/><path fill="#906644" fill-opacity=".757" d="M214.642 781.888l-49.623-51.295 246.559 136.029-72.85-23.913z"/></svg>