<svg xmlns="http://www.w3.org/2000/svg" width="228" height="278" viewBox="0 0 836 1024"><path fill="#714243" d="M0 0h836v1024H0z"/><g fill-opacity=".502"><path fill="#ff7a7b" d="M626 490L50 622 402 82z"/><path fill="#e6e1da" d="M210 998l-232 88 76-472z"/><path fill="#001c1d" d="M390-62l-412 4 4 824z"/><path fill="#001e21" d="M318-62l416 480L898 10z"/><path fill="#ffc396" d="M706 1086l124-296-100-372z"/><path fill="#580005" d="M606 1086l72-464L66 842z"/><path fill="#cd2139" d="M850 346L578 810 90 506z"/><path fill="#bebc8d" d="M538 114L306 82l88 500z"/><path fill="#00131a" d="M322 342l-44-172-116 236z"/><path fill="#d3ffff" d="M546 314l-232 92 156 32z"/><path fill="#c5a9ad" d="M578 634l-328-4 72 100z"/><path fill="#2e1f2b" d="M110 830l260 256-160-632z"/><path fill="#b5b49c" d="M682 1054l-8-300 160 332z"/><path fill="#0c242b" d="M742 402L898-62 474 274z"/><path fill="#e99866" d="M14 726l76 360 32-580z"/><path fill="#b0b7e4" d="M-18 882l28 204 220-180z"/><path fill="#2f000a" d="M498 910l272 176-616-84z"/><path fill="#ed0e29" d="M190 398l200 32L90 658z"/><path d="M898 922l-56-208-60 264z"/><path fill="#a40719" d="M782 626l-228 64 8-380z"/><path fill="#ebffff" d="M394 394l24 120-36 40z"/><path fill="#a07955" d="M326 382L542 30l-92 376z"/><path fill="#dd2d44" d="M474 498l68-172 356 136z"/><path fill="#40b092" d="M462 510l52 88 48-96z"/><path fill="#720b18" d="M662 770l-508 316 152-388z"/><path fill="#061720" d="M-62 6l36 316L374-22z"/><path fill="#f4c395" d="M374 98l-76 160 4-160z"/><path fill="#fff" d="M322 354l4 72 48-28z"/><path fill="#b5091f" d="M418 422l-16 244 120-232z"/><path fill="#000718" d="M34 882L14 690l-76 68z"/><path fill="#00151f" d="M750 398l60 116-32 100z"/><path fill="#31565f" d="M106 890l116 24 28-384z"/><path fill="#eaffff" d="M478 434l56-108-116 84z"/><path fill="#22181c" d="M610 674l8-160 92 212z"/><path fill="#d7d6f3" d="M882 370l-32-100-56 84z"/><path fill="#c9915e" d="M46 1086l32-444 72 360z"/><path fill="#cda27b" d="M782 738l116-264-196 204z"/><path fill="#4b0000" d="M82 706l144-196 24 88z"/><path fill="#5c736d" d="M742 694l-108 40 64 236z"/><path fill="#93b4ff" d="M226 878l-52 156-8-100z"/></g></svg>