<svg xmlns="http://www.w3.org/2000/svg" width="228" height="278" viewBox="0 0 836 1024"><path fill="#5c6b81" d="M0 0h836v1024H0z"/><path fill="#e4c37f" fill-opacity=".847" d="M632.348 1042.913l-11.682-336.082 153.39-14.408L884.046 1086z"/><path fill="#0d387c" fill-opacity=".714" d="M611.789 628.763L579.466 990.32l-357.554 77.137-21.17-570.958z"/><path fill="#663d24" fill-opacity=".702" d="M561.235-59.985L544.7 315.932l-105.485 48.865L306.993 69.035z"/><path fill="#80b5e4" fill-opacity=".655" d="M19.044 510.364l34.478-153.602 305.862-97.929 43.974 87.503z"/><path fill="#ffd899" fill-opacity=".271" d="M490.877 108.147l-147.03 121.576 348.51 96.189L686.5-41.036z"/><path fill="#0c2863" fill-opacity=".722" d="M465.728 682.03l225.054-289.132L898 831.248 668.473 547.232z"/><path fill="#bfbeb1" fill-opacity=".596" d="M-62 1057.075l13.045-107.903 225.083-91.849-31.11 181.957z"/><path fill="#f1e2ba" fill-opacity=".447" d="M194.037 547.161l18.156 98.055-24.983 118.688L86.453 591.92z"/><path fill="#4f74a0" d="M304.364 597.776l210.484 3.192 239.435-306.801L235.19 406.123z"/><path fill="#00256b" fill-opacity=".475" d="M361.41 717.024l-186.235-178.42L-62 705.07l275.315-349.625z"/><path fill="#5987bb" fill-opacity=".439" d="M691.16 1086l-23.13-619.915-108.218 472.45-480.229-57.251z"/><path fill="#0e0000" fill-opacity=".502" d="M349.26 121.067l9.799-53.31L501.083-56.347 444.812 179.34z"/><path fill="#448dd3" fill-opacity=".675" d="M312.89 275.634L71.033 574.216l-123.779-38.884 128.994-76.644z"/><path fill="#44a4fe" fill-opacity=".333" d="M556.013 213.254l218.371 377.36 112.603 49.27-115.757-218.23z"/><path fill="#ffd67b" fill-opacity=".788" d="M718.162 740.873l60.646-31.904 57.428 233.442L712.69 1086z"/><path fill="#000025" fill-opacity=".357" d="M583.245 221.082l-219.003 88.713 75.032 57.674-72.576 141.223z"/><path fill="#fffadc" fill-opacity=".322" d="M-60.644 576.168l125.596-139.42-20.214-127.037L185.2 374.139z"/><path fill="#000e41" fill-opacity=".459" d="M179.93 462.873l123.914-64.04L171.04 841.058l77.826-30.08z"/><path fill="#3c80c9" fill-opacity=".573" d="M258.762 903.107L124.95 1086l48.905-262.019 190.896 32.297z"/><path fill="#9f9584" fill-opacity=".788" d="M676.367 1070.142l28.733-324.8-47.602-238.284-36.679 152.241z"/><path fill="#803600" fill-opacity=".216" d="M-62 991.348l195.982-98.294-17.48-285.939-109.466-3.59z"/><path fill="#8a7657" fill-opacity=".298" d="M-62-26.52L294.104-62h207.77L-62 578.485z"/><path fill="#00286c" fill-opacity=".345" d="M644.074 530.372l166.605-56.833-228.063-154.137 27.868 400.76z"/><path fill="#1c247e" fill-opacity=".584" d="M772.711 614.995L898 512.987l-31.182 449.86-88.397-246.473z"/><path fill="#43312a" fill-opacity=".992" d="M570.125 99.443l-90.276-32.567L390.252-62 574.738 73.43z"/><path fill="#9db5cf" fill-opacity=".933" d="M276.496 341.356l23.099 62.205 69.245-68.777 120.81 41.422z"/><path fill="#afb5b7" fill-opacity=".451" d="M556.349 499.384l-255.122-.81 168.306 120.618-49.242-63.346z"/><path fill="#050019" fill-opacity=".329" d="M695.137 474.382l2.492 208.976 127.154-33.83L594.39 468.986z"/><path fill="#e9f6f6" fill-opacity=".447" d="M748.881 604.474l27.624-4.482 47.982-37.293 46.098-53.158z"/><path fill="#e5fae8" fill-opacity=".176" d="M587.052 292.4l208.826 171.744-122.23-157.28L642.317-62z"/><path fill="#a8bacb" fill-opacity=".451" d="M574.673 588.674l-50.016-13.546 56.331-193.043-55.138-.888z"/><path fill="#132f67" fill-opacity=".663" d="M603.409 622.665l-290.445 151.53-58.968 53.642 214.525 77.417z"/><path fill="#142a65" fill-opacity=".741" d="M289.414 1025.793l248.113-102.79-82.778 23.258-177.712 13.157z"/><path fill="#d7cdaf" fill-opacity=".282" d="M102.084 921.55l89.495-390.31 16.812 132.054-43.356 198.576z"/><path fill="#044ba3" fill-opacity=".376" d="M424.139 396.834L321.59 281.274l102.734 220.5 208.85-224.02z"/><path fill="#295d9e" fill-opacity=".455" d="M517.88 502.203l-379.481-115.81-55.49 194.785 130.292-77.955z"/><path fill="#adbbd0" fill-opacity=".486" d="M265.037 456.015l167.857-96.49-113.013 48.721 71.482 40.064z"/><path fill="#3578bf" fill-opacity=".671" d="M591.162 900.732l40.684 163.645-518.13-67.11L366.069 1086z"/><path fill="#150503" fill-opacity=".624" d="M411.934 244.109l114.722 79.54-86.8 32.244 18.76-12.724z"/><path fill="#d0a27c" fill-opacity=".392" d="M436.847 319.299l-71.63-179.476 8.514 108.223-33.017 14.992z"/><path fill="#636870" fill-opacity=".937" d="M355.672 248.657l-135.111 62.365-229.222-2.715L349.584 34.331z"/><path fill="#200000" fill-opacity=".373" d="M371.664 76.384L544.23 191.129l17.293-53.454-218.747 8.89z"/><path fill="#0f2067" fill-opacity=".627" d="M-3.177 678.248l96.585-115.99-7.926 61.92-123.373-110.17z"/><path fill="#7e7c78" fill-opacity=".839" d="M346.831-62h308.296l-73.024 162.94-29.892-57.619z"/><path fill="#170000" fill-opacity=".224" d="M186.252 531.373l46.1 114.297L355.08 564.5l-138.36-92.088z"/><path fill="#7f91a4" fill-opacity=".667" d="M367.65 489.441l44.158 111.07-87.29-60.42L115.46 703.89z"/><path fill="#2e69b1" fill-opacity=".596" d="M540.066 356.261l14.732-93.584 44.113 25.114 106.397 185.401z"/><path fill="#6f612d" fill-opacity=".184" d="M740.641 447.516L677.7 1.066 851.08-62l10.909 561.757z"/><path fill="#538dc7" fill-opacity=".478" d="M261.52 795.082l218.238-129.928-202.843 138.42-134.168 59.246z"/><path fill="#0d6d75" fill-opacity=".749" d="M425.785 564.275l45.68-41.953 24.024 67.065-67.505-9.288z"/><path fill="#fbffe9" fill-opacity=".278" d="M163 1000.93L92.848 1086l-108.59-24.47 12.174-84.003z"/><path fill="#bf8c72" fill-opacity=".529" d="M585.4 115.762l-87.93-44.404-46.475 61.687 142.952 13.835z"/><path fill="#4183bd" fill-opacity=".412" d="M611.412 711.683l12.26 112.233-321.215-10.222 236.708 38.502z"/><path fill="#e1f0fc" fill-opacity=".624" d="M342.138 292.604l1.309-31.28 3.152 8.607 53.697 98.676z"/><path fill="#ecfeff" fill-opacity=".22" d="M117.724 375.427L28.99 328.66l37.64 142.79 155.031-165.027z"/><path fill="#4f90d2" fill-opacity=".929" d="M152.755 355.43l188.939-75.636 8.215 36.192-108.763 58.105z"/><path fill="#000225" fill-opacity=".494" d="M745.214 609.243l-93.292-99.6-29.21 142.187 16.238-227.853z"/><path fill="#0f235e" fill-opacity=".788" d="M598.507 855.11l-112.46-16.312-208.121 49.43 259.59-12.5z"/><path fill="#b4c8da" fill-opacity=".525" d="M447.444 362.28l84.267-33.07-39.442 28.407-22.179 13.097z"/><path fill="#06144b" fill-opacity=".529" d="M168.702 843.408l393.004-275.764-205.51 116.183 6.46 43.577z"/><path fill="#e1eae8" fill-opacity=".165" d="M345.76 693.828l193.138-198.601-30.712 111.762 1.955-33.591z"/><path fill="#244879" fill-opacity=".894" d="M507.872 545.596l120.837 97.02-54.292-173.354-16.601 167.965z"/><path fill="#eeaa91" fill-opacity=".294" d="M563.968 175.525l-122.945 9.957-69.906.283 215.685 48.066z"/><path fill="#fffbdf" fill-opacity=".341" d="M310.817 593.01l24.338 15.072-43.224-34.592 8.45-74.99z"/><path fill="#47a5fa" fill-opacity=".357" d="M405.51 979.31l-68.015 40.676L260.178 1086l202.166-118.991z"/><path fill="#969793" d="M623.231 672.724l66.32-95.832-21.904-52.185-12.429-6.314z"/><path fill="#7f7f84" fill-opacity=".671" d="M45.808 643.687l103.367-79.984-29.142 259.56 88.57-92.638z"/><path fill="#54b4ff" fill-opacity=".384" d="M58.277 449.138l-86.6 88.224L-62 618.975 97.835 506.359z"/><path fill="#352386" fill-opacity=".251" d="M853.602 635.711L898 811.551 869.626 1086l-53.37-88.139z"/><path fill="#463832" fill-opacity=".42" d="M-62 797.01v72.63l165.017-7.127 18.498-59.385z"/><path fill="#1a3e72" fill-opacity=".765" d="M183.718 445.476l-91.84 6.35 111.515 33.195 66.53-67.443z"/><path fill="#859cb3" fill-opacity=".518" d="M326.774 599.406L217.88 672.125l170.917-99.059 58.066-93.907z"/><path fill="#74777c" fill-opacity=".663" d="M270.726 211.792L46.422 184.656-40.18 54.107l408.742-9.412z"/><path fill="#193262" fill-opacity=".537" d="M378.465 649.157l-171.335 32.49 144.895-84.252-7.337-108.42z"/><path fill="#724b2f" fill-opacity=".529" d="M518.846 316.03l51.75-91.066-71.624 9.687-116.886 3.01z"/><path fill="#00126f" fill-opacity=".494" d="M423.276 358.132l58.16-7.045-25.862-27.012-90.27-25.097z"/><path fill="#2d5491" fill-opacity=".816" d="M254.267 933.74l-104.181-19.512 170.124 81.076-186.53-27.596z"/><path fill="#010232" fill-opacity=".451" d="M226.48 833.775l192.183-120.508-120.557 98.103 26.174 15.934z"/><path fill="#e6e4e2" fill-opacity=".467" d="M262.959 364.396l-14.808 32.881 81.21-49.822-13.832 53.8z"/><path fill="#274c8a" fill-opacity=".98" d="M630.709 949.164l-93.501-26.776-194.766 6.473 209.39-67.033z"/><path fill="#8d8c8c" fill-opacity=".545" d="M135.732 985.448L-62 904.098l145.666-25.116 91.518-19.614z"/><path fill="#d0a061" fill-opacity=".376" d="M728.753 744.408l-49.841 272.806 14.019-340.217 85.463 3.652z"/><path fill="#21589b" fill-opacity=".549" d="M320.23 446.417l243.192 30.995 120.086-125.063-69.22 161.815z"/><path fill="#565c62" fill-opacity=".871" d="M32.863 470.148l13.888-22.584L-62 183.31v372.174z"/><path fill="#3575b6" fill-opacity=".365" d="M496.821 694.224l-107.416 32.483 20.027-60.73 120.08-20.454z"/><path fill="#65c2ff" fill-opacity=".267" d="M898 716.733L741.94 454.154l35.686 7.94 10.26-16.057z"/><path fill="#dfdbb5" fill-opacity=".443" d="M203.116 576.577l2.982 143.095-30.474-37.13-22.983-22.89z"/><path fill="#fbd37d" fill-opacity=".867" d="M806.043 793.498l-91.91 140.405L810.568 1086l10.727-223.757z"/><path fill="#94ddff" fill-opacity=".349" d="M319.805 263.955L94.535 386.047 252.89 310.55l127.1-51.445z"/><path fill="#d8ded8" fill-opacity=".612" d="M492.825 565.793l-5.153-57.108-15.255-5.104 44.865 82.713z"/><path fill="#041143" fill-opacity=".561" d="M204.64 690.276l30.932 86.629-52.21 1.909 103.372-135.643z"/><path fill="#d3e2f6" fill-opacity=".192" d="M354.485 420.694l65.2 31.357-154.962-12.313 144.496-93.123z"/><path fill="#29508b" fill-opacity=".643" d="M249.788 445.026l246.955-48.797-171.696 19.335-94.054 116.56z"/><path fill="#8b98a0" fill-opacity=".443" d="M80.46 411.788l131.5-107.2L14.203 319.53l21.044 88.114z"/><path fill="#535860" fill-opacity=".596" d="M281.73 284.47l106.971-77.667L-62 278.151l36.245 24.46z"/><path fill="#3c4b6c" fill-opacity=".741" d="M300.158 647.256l143.996-138.932-44.233 74.956 9.902-43.484z"/><path fill="#3066ab" fill-opacity=".561" d="M134.729 966.458l284.857 10.26-253.833-40.548L330.846 1086z"/><path fill="#67bcfe" fill-opacity=".361" d="M687.972 330.08l60.8 75.11-138.196-79.766-5.44-34.69z"/><path fill="#89a6c9" fill-opacity=".596" d="M565.676 472.594l-6.696-93.404-55.445 11.427 15.996 43.924z"/><path fill="#090015" fill-opacity=".408" d="M196.484 550.233l-13.515-12.452 66.993-88.499-38.902 177.711z"/><path fill="#43a8ee" fill-opacity=".353" d="M579.896 768.69l61.552 138.965-57.694-5.34 43.225-98.245z"/><path fill="#081c59" fill-opacity=".816" d="M278.658 996.778l-93.013-36.266 127.131 64.353 40.428-34.201z"/><path fill="#001a4c" fill-opacity=".463" d="M386.247 680.035l197.545-96.14 8.612 36.98-116.534-22.388z"/><path fill="#020031" fill-opacity=".612" d="M772.503 658.875l-7.633-45.205 29.373-14.613 27.731 3.74z"/><path fill="#364b82" fill-opacity=".557" d="M834.64 809.15l-94.106-223.707-42.89 68.998 186.095 50.972z"/><path fill="#020b4d" fill-opacity=".6" d="M380.683 1055.085L264.798 1086 507.7 949.265l-79.461 52.382z"/><path fill="#0a245e" fill-opacity=".275" d="M533.611 367.753l19.725-59.074-306.997 267.464L521.177 371.69z"/><path fill="#ae8366" fill-opacity=".475" d="M377.596 295.952l-2.837-137.86 104.889 31.327-27.921-54.897z"/><path fill="#f5fae9" fill-opacity=".302" d="M371.837 598.17l-6.133 2.587 4.305-82.33 14.724-44.46z"/><path fill="#260801" fill-opacity=".686" d="M350.346 111.93l13.118 35.454 100.317-46.206-37.13 76.924z"/><path fill="#677279" fill-opacity=".812" d="M690.173 318.983l-1.996-334.444 102.751 427.317-102.442-72.913z"/><path fill="#4276b2" fill-opacity=".749" d="M340.582 680.573l146.081-99.343-38.257 43.135-117.577 70.217z"/><path fill="#5a3620" fill-opacity=".267" d="M598.305 133.939l-17.29 30.662-69.383 33.356-59.242-28.965z"/><path fill="#a2b3c8" fill-opacity=".89" d="M341.082 338.165l20.92 78.892 1.217-61.139-105.44 15.94z"/><path fill="#00083d" fill-opacity=".29" d="M174.588 731.257l192.856-44.9-115.735 112.886 146.903-87.453z"/><path fill="#354d9b" fill-opacity=".573" d="M376.933 320.792l-12.58-15.74-9.597-54.38 71.147 112.856z"/><path fill="#78bdee" fill-opacity=".329" d="M131.544 1086l22.043-177.25 150.947 41.047-141.695-78.374z"/><path fill="#1a366e" fill-opacity=".565" d="M335.546 482.094l-128.234 50.167 137.936-89.952-120.742 114.844z"/><path fill="#502d31" fill-opacity=".243" d="M272.602 370.282l42.17 40.13 59.918-46.693-128.545 83.319z"/><path fill="#183f73" fill-opacity=".765" d="M582.266 728.956l71.071-329.806-106.798 232.61-97.96-107.782z"/></svg>