<svg xmlns="http://www.w3.org/2000/svg" width="228" height="278" viewBox="0 0 836 1024"><path fill="#ab995f" d="M0 0h836v1024H0z"/><path fill="#f2d941" fill-opacity=".976" d="M451.368 194.954L714.018 1086l-193.392-26.145L212.38 853.647z"/><path fill="#3b3e2d" fill-opacity=".984" d="M189.534 541.329L14.47 320.69-62 618.102l293.988 50.334z"/><path fill="#182333" fill-opacity=".784" d="M705.83 269.59l90.086 549.404L898 387.604 645.344 509.623z"/><path fill="#351314" fill-opacity=".682" d="M239.824-43.238l46.29 396.707 51.666-7.792L427.63-62z"/><path fill="#c5d1c6" fill-opacity=".996" d="M316.133 490.144l220.161 21.094.827-117.615-305.869-10.062z"/><path fill="#b4c7f2" fill-opacity=".608" d="M-61.767 1005.739L37.47 623.624l164.874 255.123L240.508 1086z"/><path fill="#a0c3ff" fill-opacity=".463" d="M743.538 1086L898 983.439 695.33 486.548l-83.108 346.935z"/><path fill="#fadd31" fill-opacity=".941" d="M433.123 283.836l109.753 140.233-99.573 637.201 230.052-726.18z"/><path fill="#ffd706" fill-opacity=".624" d="M94.67 499.443l261.01-137.985-159.57-88.972-132.176 61.71z"/><path fill="#350ebb" fill-opacity=".22" d="M-50.332 591.397L87.172 274.49 898 173.454 7.444-62z"/><path fill="#021e3e" fill-opacity=".529" d="M586.032 681.8l72.673 29.13 13.557-189.892-60.483-32.18z"/><path fill="#facc00" fill-opacity=".455" d="M183.206 409.98l410.77 227.186-302.59 353.714-119.123-563.723z"/><path fill="#433400" fill-opacity=".592" d="M211.316 592.264l11.663 451.552 194.353-34.468-149.97-27.112z"/><path fill="#bb9a9c" fill-opacity=".78" d="M898 206.53L707.088 346.383l-325.846-68.415L844.35 76.848z"/><path fill="#c9d7f3" fill-opacity=".51" d="M245.517 276.428l-76.92-94.677-133.154-52.867 33.305 181.079z"/><path fill="#68879b" fill-opacity=".592" d="M219.57 905.583l-17.764-267.612L-62 619.384v90.922z"/><path fill="#242131" fill-opacity=".388" d="M898 775.539l-191.793-17.175 44.16-99.401 43.166-471.358z"/><path fill="#530e14" fill-opacity=".541" d="M86.166-32.89L-62 142.428v57.294L110.459 99.01z"/><path fill="#a56d70" fill-opacity=".863" d="M530.272-62l-36.15 3.942-177.95 251.4L879.433 45.534z"/><path fill="#fdf7f9" fill-opacity=".49" d="M-22.652 860.248L199.92 870.43l-7.03 79.939L-62 991.887z"/><path fill="#10033b" fill-opacity=".322" d="M667.288 460.674l-8.046-108.463 83.956-84.452L898 240.573z"/><path fill="#fffcfe" fill-opacity=".38" d="M695.687 1020.63l-34.013-103.01 197.76-60.275L898 993.06z"/><path fill="#2f1900" fill-opacity=".557" d="M306.69 502.998l-329.568-45.607L67.15 344.944l40.57 201.507z"/><path fill="#302d0e" fill-opacity=".486" d="M453.284 98.146L460.464-62 220.384 68.146l81.193 66.472z"/><path fill="#c9a590" fill-opacity=".988" d="M741.152 390.224l-17.137 82.31 80.033-72.796-66.464-70.839z"/><path fill="#665162" fill-opacity=".596" d="M513.684 94.82l185.638 10.453-183.14 165.092-36.45-15.02z"/><path fill="#a4b9e0" fill-opacity=".827" d="M256.424 388.21l-18.358 47.43 257.047 8.483 30.375-42.11z"/><path fill="#492300" fill-opacity=".537" d="M268.745 19.845l5.727 310.647 100.062 28.754L320.77 89.302z"/><path fill="#aa911f" fill-opacity=".796" d="M459.789 980.353l-187.38 34.291-32.923-265.44-32.768 139.379z"/><path fill="#543800" fill-opacity=".502" d="M254.374 1086l-41.389-136.992-11.835-80.17 89.223.529z"/><path fill="#262722" fill-opacity=".78" d="M674.624 344.791L650.25 493.088l67.308 11.519 24.821-151.15z"/><path fill="#d1b5ab" fill-opacity=".659" d="M687.588 218.719l-53.553 131.694-193.014-154.936-24.706 115.53z"/><path fill="#fada2a" fill-opacity=".929" d="M663.75 399.892l-12.21 98.545-105.05 26.628 24.073-221.336z"/><path fill="#949298" d="M-62 461.617L126.69 165.19-6.69 328.7l23.624 101.878z"/><path fill="#c9a79c" fill-opacity=".62" d="M898 110.334L808.798 287.01 551.604-62l-30.877 78.206z"/><path fill="#cca10c" fill-opacity=".808" d="M320.07 530.81l-20.552-81.064-243.86 50.55 126.128-136.774z"/><path fill="#c58361" fill-opacity=".753" d="M370.883 384.026l-19.71-242.216 76.888-65.266 10.474 219.512z"/><path fill="#060a06" fill-opacity=".573" d="M-62 336.08l129.007 8.31L22.33 494.14l92.33-20.893z"/><path fill="#fbd826" fill-opacity=".678" d="M107.138 388.913l-65.027-67.228 86.351-21.547 341.992 84.558z"/><path fill="#12001a" fill-opacity=".259" d="M398.05 975.332L194.049 1086 83.116 942.11 41.08 1086z"/><path fill="#7a8e97" fill-opacity=".443" d="M596.465 740.795l91.631-267.128 9.321 457.24L898 741.354z"/><path fill="#01193d" fill-opacity=".365" d="M154.412 665.187l-73.92 5.539-89.425-225.23 175.266 111.296z"/><path fill="#fde12e" fill-opacity=".722" d="M604.286 1086l59.745-123.449-124.242-454.648-121.958 505.14z"/><path fill="#d63e36" fill-opacity=".549" d="M211.343-62H-38.43L16.623 59.098l89.534-27.28z"/><path fill="#574a0d" fill-opacity=".702" d="M197.402 590.281L171.1 553.64l50.807 211.122 24.41-38.85z"/><path fill="#fedf2c" fill-opacity=".678" d="M330.219 508.875l-76.872 5.046L465.834 1086l39.353-583.927z"/><path fill="#de4a5a" fill-opacity=".576" d="M255.553 26.56L557.763-62l-12.78 146.089L332.968-62z"/><path fill="#6e8da1" fill-opacity=".42" d="M741.352 442.955l43.425 257.477-128.981-205.797 1.478 126.927z"/><path fill="#f1dd59" fill-opacity=".996" d="M528.589 449.376l-246.365-17.354L536.88 464.48 688.81 1086z"/><path fill="#dab1a1" fill-opacity=".62" d="M831.592-15.649L701.28 179.52 898 150.902 639.235-62z"/><path fill="#e5be20" fill-opacity=".471" d="M334.092 914.564l-48.386 82.648-60.072-166.507 67.768-424.544z"/><path fill="#79655e" fill-opacity=".847" d="M191.523 203.48l92.525 79.395-19.69-173.272L258.217-62z"/><path fill="#0f2329" fill-opacity=".38" d="M748.217 424.869L898 579.487 830.497 755.76l-95.763-237.274z"/><path fill="#103458" fill-opacity=".278" d="M24.362 217.872L98.53 282.91-62 286.188 45.228 36.906z"/><path fill="#879799" fill-opacity=".749" d="M199.254 643.77l-81.818 23.264L6.205 859.338l218.647-49.27z"/><path fill="#c4c5ca" fill-opacity=".663" d="M197.843 198.093l-3.266 70.155-160.622 66.047L.308 335.31z"/><path fill="#e2c8b7" fill-opacity=".408" d="M686.977 283.98l-84.123-150.85 3.898 175.56 146.264 54.604z"/><path fill="#6d6d83" fill-opacity=".345" d="M575.312 137.289l319.999 242.185-161.7-178.345L620.606-62z"/><path fill="#704935" d="M352.706 193.104l84.741-3.947-42.353 31.438-130.216-87.654z"/><path fill="#c36334" fill-opacity=".498" d="M736.44 456.29l83.875-110.562 42.465 36.876-63.666 74.263z"/><path fill="#5c3512" fill-opacity=".965" d="M349.445 269.27l-5.635 63.77-125.123-45.89 32.447-1.27z"/><path fill="#def5e9" fill-opacity=".62" d="M324.001 446.36l224.906 59.553-153.955-16.912-88.401 15.129z"/><path fill="#a77500" fill-opacity=".278" d="M169.78 563.576l96.076 180.928-14.603-322.102-80.409-87.547z"/><path fill="#9baefd" fill-opacity=".255" d="M514.661 114.342l-78.206 196.696L464.025 69.4 510.3 82.967z"/><path fill="#040f1f" fill-opacity=".502" d="M232.562 1050.586l170.912-46.767-100.875-1.163 57.807-17.924z"/><path fill="#640011" fill-opacity=".192" d="M732.374 840.098L520.607 821.03l219.1 67.01-.377-37.61z"/><path fill="#00030f" fill-opacity=".239" d="M601.493 540.992L586.68 659.547l91.653 45.509-56.595-205.258z"/><path fill="#5f4839" fill-opacity=".769" d="M455.543 141.182L415.83 96.121l-90.321-3.977L430.725-62z"/><path fill="#fce63a" fill-opacity=".827" d="M331.21 773.524l28.752 235.05 16.672-69.084 380.517 123.929z"/><path fill="#b3ccca" fill-opacity=".463" d="M606.513 700.084l20.01 109.29L898 768l-122.806 82.046z"/><path fill="#596c73" fill-opacity=".639" d="M-62 581.383l119.56-80.708-97.99-34.041 94.487 194.77z"/><path fill="#bdd5ed" fill-opacity=".22" d="M338.52 21.616L280.878-62 163.785 95.11l-53.801-107.2z"/><path fill="#f4cb2c" fill-opacity=".694" d="M330.454 509.34l-53.807-61.813 81.57-18.415-128.463 56.099z"/><path fill="#041231" fill-opacity=".286" d="M406.507 943.524l-20.82 57.343-38.98-59.287-46.543 59.452z"/><path fill="#1b202c" fill-opacity=".506" d="M405.142 952.708l22.267 30.346-37.62 79.285L430.652 1086z"/><path fill="#d7defe" fill-opacity=".706" d="M395.852 1014.332L431.975 1086l83.4-31.441-308.7-7.978z"/><path fill="#92b2ee" fill-opacity=".478" d="M423.717 391.114l-122.02 6.737 268.005 68.645-69.681-74.221z"/><path fill="#97aee1" fill-opacity=".584" d="M249.82 456.58l76.488-28.235-8.218-41.513-82.808 8.004z"/><path fill="#a55e01" fill-opacity=".659" d="M288.82 310.079l104.493 45.914-109.115-4.117-19.204-23.627z"/><path fill="#d2e7ff" fill-opacity=".467" d="M747.86 441.79l-17.082 8.674 11.641-115.85 8.598 39.104z"/><path fill="#5f3529" fill-opacity=".525" d="M896.01 60.438l-84.148 320.145-64.38-32.816 91.033-96.959z"/><path fill="#020d0b" fill-opacity=".435" d="M266.376 229.764l13.27-193.334 56.672 67.488-56.239 94.54z"/><path fill="#2d4245" fill-opacity=".596" d="M898 643.934v109.707l-155.215-18.02 16.696-54.184z"/><path fill="#27271e" fill-opacity=".565" d="M559.696 1086l-137.157-74.148-127.012-11.03 139.93 24.599z"/><path fill="#080e10" fill-opacity=".549" d="M62.34 503.241l16.077-135.875-36.625-38.89L7.634 476.745z"/><path fill="#eaeaea" fill-opacity=".537" d="M63.521 940.079L13.488 1086-62 887.931l242.093.438z"/><path fill="#fee12d" fill-opacity=".71" d="M116.726 288.697l97.336 92.742 64.246-55.93-84.653-38.638z"/><path fill="#e2f1df" fill-opacity=".69" d="M505.843 459.617L338.38 442.122l134.4 51.59 77.818 27.389z"/><path fill="#8f6552" fill-opacity=".475" d="M446.275 109.97l52.234 190.266 111.775-102.77-176.02-7.405z"/><path fill="#f5faf9" fill-opacity=".706" d="M-18.951 400.34l34.503 29.982-11.04-46.468L-62 370.436z"/><path fill="#d7af14" fill-opacity=".984" d="M269.624 488.925l-177.36-105.93-18.416 45.42 103.51 56.73z"/><path fill="#f6d320" fill-opacity=".553" d="M261.657 377.581l50.553 14.631 224.165-7.594-69.477-55.822z"/><path fill="#473554" fill-opacity=".353" d="M550.192 235.095l80.026-134.01 73.045 57.91-201.268-41.526z"/><path fill="#f9d622" fill-opacity=".761" d="M389.926 499.608l220.602 264.879-43.762-246.577-101.794 4.355z"/><path fill="#7b86a1" fill-opacity=".38" d="M-62 143.223l176.773 24.795 128.678 104.237-73.747-155.704z"/><path fill="#002733" fill-opacity=".282" d="M112.651 114.967L-62 158.987 85.448 58.697l-19.16-19.688z"/><path fill="#413100" fill-opacity=".373" d="M201.486 895.334l94.148-32.267-31.63 29.65L254.555 1086z"/><path fill="#e8bd1e" fill-opacity=".573" d="M285.997 835.49l-53.327-50.92-16.31 96.787 410.21-68.16z"/><path fill="#cb8a04" fill-opacity=".69" d="M515.896 1086l59.857-45.43-85.556-54.325 71.125 87.849z"/><path fill="#353126" fill-opacity=".886" d="M670.047 320.814l5.688 160.36-12.726-56.835-.912-42.637z"/><path fill="#947684" fill-opacity=".459" d="M680.653 308.732l72.772 35.41 77.172-89.758-22.15-101.707z"/><path fill="#886366" fill-opacity=".992" d="M810.92 30.967l74.546 172.098L898-62h-55.279z"/><path fill="#fadc31" fill-opacity=".569" d="M295.398 994.872l-43.723 9.862 172.472-151.828-107.234-203.613z"/><path fill="#5c3119" fill-opacity=".702" d="M292.978 312.643l90.608-15.38-123.853-150.54 53.018 186.315z"/><path fill="#bec0f6" fill-opacity=".239" d="M283.985 287.84l-.45-65.753-22.41 30.456-190.999 26.52z"/><path fill="#ccd8ed" fill-opacity=".804" d="M400.38 404.55l-156.697-5.965 61.539 17.2-62.167 27.64z"/><path fill="#d7def3" fill-opacity=".216" d="M214.919 247.877l-100.36 51.598-9.894-183.084-95.62 83z"/><path fill="#f9de30" fill-opacity=".459" d="M493.443 388.129l167.336 97.498-8.827-150.913-169.371-44.773z"/><path fill="#f5e33f" fill-opacity=".82" d="M429.188 1017.165L417.403 857.04l97.549 169.387-197.769-47.984z"/><path fill="#d2d1d1" fill-opacity=".745" d="M898 835.88L685.485 953.523 622.12 849.996l194.375 140.32z"/><path fill="#024ed2" fill-opacity=".267" d="M430.214 398.118l42.019 2.972 45.46 57.05-23.033-72.962z"/><path fill="#f0a28c" fill-opacity=".224" d="M411.174 94.678l49.97 142.288-58.718-51.675-106.015-7.77z"/><path fill="#1a1a1b" fill-opacity=".384" d="M741.352 369.736l-77.142 14.717-16.38 140.979 72.97-58.382z"/><path fill="#857483" fill-opacity=".482" d="M-62 832.15l261.04-23.621 30.634-19.955-12.846 68.687z"/><path fill="#cfa015" fill-opacity=".882" d="M311.412 915.043l14.696-21.942-63.24 10.22-21.714 25.864z"/><path fill="#b3c4b9" fill-opacity=".227" d="M144.282 1064.99L84.035 743.718l9.188-87.549L-62 653.477z"/><path fill="#2e2f2a" fill-opacity=".741" d="M63.55 409.785l-100.688-50.878L-62 348.8l118.841-19.843z"/><path fill="#5e3d00" fill-opacity=".659" d="M176.085 512.394l41.12 112.499L115.23 485.295l194.138 21.044z"/><path fill="#8c8a95" fill-opacity=".412" d="M88.541 320.219l-125.789.485 247.485-209.537-92.033 120.777z"/><path fill="#a1ad9f" fill-opacity=".471" d="M753.38 678.796l-31.086-180.562-69.766 1.266 63.866 259.365z"/></svg>