<svg xmlns="http://www.w3.org/2000/svg" width="228" height="278" viewBox="0 0 836 1024"><path fill="#8c8888" d="M0 0h836v1024H0z"/><path fill="#dfe7fe" fill-opacity=".792" d="M641.738 1038.09l-373.692-11.877-47.037-628.387 408.766-88.848z"/><path fill="#1c1616" fill-opacity=".725" d="M898 172.793V-45.615L-6.181-62l9.482 243.254z"/><path fill="#332005" fill-opacity=".533" d="M266.769 1050.135L131.049 571.69l-66.47 5.428L-14.79 1086z"/><path fill="#4b3323" fill-opacity=".588" d="M848.541 353.236L843.31 1086 654.02 882.966l-36.387-105.94z"/><path fill="#e1e5fd" fill-opacity=".788" d="M786.134 528.774l-47.266 82.868-257.144-338.368 185.161 64.266z"/><path fill="#e5e7fc" fill-opacity=".824" d="M171.799 354.326l147.595-84.952 37.739 93.576-273.33 169.937z"/><path fill="#3b1400" fill-opacity=".651" d="M373.512 390.404L314.064 233.2l171.599-56.538-17.53 163.815z"/><path fill="#1a3d3f" fill-opacity=".31" d="M721.99 529.107L257.563 630.245 240.728 1086l-63.273-574.694z"/><path fill="#121c00" fill-opacity=".29" d="M858.2 247.568l-345.934 22.241 181.951 81.865L846.59 664.616z"/><path fill="#837351" fill-opacity=".843" d="M87.264 507.459l112.468-225.806L-62 315.07l82.73 673.403z"/><path fill="#eef0fc" fill-opacity=".729" d="M245.3 900.635l373.697-179.542 51.205 347.343-422.953-21.558z"/><path fill="#dbdefd" fill-opacity=".69" d="M179.247 499.205l-16.031 72.46-80.78-11.43 6.09-42.164z"/><path fill="#9e5e3a" fill-opacity=".557" d="M397.188 259.078l130.579-75.494-111.33-95.893-116.185 24.463z"/><path fill="#363225" fill-opacity=".698" d="M801.433 606.127l-78.44-15.714L787.1 868.605l-167.663-84.142z"/><path fill="#fff2b6" fill-opacity=".259" d="M-62 271.002l508.094-26.662-175.707-47.335-306.44-6.011z"/><path fill="#08111d" fill-opacity=".569" d="M740.29 90.621l-457.708 2.95 79.841-69.38 364.763-38.04z"/><path fill="#7e777a" d="M650.322 888.31L663.48 1086h107.791l-14.732-235.219z"/><path fill="#7a7773" fill-opacity=".992" d="M235.212 596.937l-29.64 299.502-50.395-51.08-17.78-276.646z"/><path fill="#c67c60" fill-opacity=".506" d="M816.059 1004.742l-26.465-142.13 13.874-272.045L898 742.189z"/><path fill="#270500" fill-opacity=".302" d="M334.105 341.736l125.893 22.086 60.734-77.442-203.886-75.853z"/><path fill="#1b3b39" fill-opacity=".224" d="M655.686 1037.256l129.522-453.371-503.755-33.088 356.872-45.489z"/><path fill="#ffffd8" fill-opacity=".129" d="M898 174.78L309.217 679.096l186.768-470.514 136.988-54.264z"/><path fill="#c78569" fill-opacity=".435" d="M101.484 660.238L-18.813 558.505-62 922.939l267.258-336.04z"/><path fill="#010a0c" fill-opacity=".345" d="M739.89 431.695l90.515 208.403L898 447.8l-138.057-64.044z"/><path fill="#ebeeff" fill-opacity=".592" d="M263.202 508.297L134.915 391.003l57.173-62.549 98.692-18.607z"/><path fill="#434233" fill-opacity=".753" d="M251.197 959.034L232.63 1086-62 941.604l292.426-68.296z"/><path fill="#001a23" fill-opacity=".18" d="M104.232 459.876l91.828-152.442-180.248 30.735 376.084 301.533z"/><path fill="#5c4b46" fill-opacity=".518" d="M346.554 190.7L4.412 184.957l-29.557-13.717 245.36-200.245z"/><path fill="#b9bcd6" fill-opacity=".812" d="M389.143 732.459L240.14 505.372l2.36 220.44 120.065 84.181z"/><path fill="#401900" fill-opacity=".729" d="M94.152 581.734l-28.233 13.182 43.694 57.406 54.282-68.233z"/><path fill="#071934" fill-opacity=".827" d="M-62 149.194l32.758-203.89L119.128-62 66.017 85.773z"/><path fill="#c2c8e6" fill-opacity=".604" d="M671.857 551.765l-93.076-149.86 166.86 48.144 52.413 123.686z"/><path fill="#504e46" fill-opacity=".98" d="M648.341 665.171l-20.47 89.637 52.501 181.126L663.216 1086z"/><path fill="#ab9db9" fill-opacity=".733" d="M410.215 397.667l121.439-71.407-184.706 74.258-29.221-102.658z"/><path fill="#030300" fill-opacity=".553" d="M342.444 317.21l115.789-23.432 37.03-228.205-71.317 296.158z"/><path fill="#f0f2fe" fill-opacity=".584" d="M757.777 502.531l2.472-19.471-91.597-143.992-177.904-66.521z"/><path fill="#678285" fill-opacity=".612" d="M280.865 611.008l-13.647-65.727 8.267-56.973 66.524 96.671z"/><path fill="#f1f3fa" fill-opacity=".792" d="M389.454 999.19l263.582 81.87 4.784-155.842-48.943-133.845z"/><path fill="#250e00" fill-opacity=".576" d="M443.04 43.255l-38.51 154.71-44.073-44.292 140.979-64.486z"/><path fill="#7b7865" fill-opacity=".753" d="M455.16 253.601l167.78-3.737 168.192-4.872L898 433.206z"/><path fill="#d3d7f2" fill-opacity=".447" d="M407.894 1054.808L258.5 1027.814l-23.204-144.999 360.54-353.225z"/><path fill="#8d604e" d="M746.267 701.332l61.724 210.256 27.913-232.917-81.972-3.894z"/><path fill="#7c755f" fill-opacity=".655" d="M369.274 282.754l-134.742-34.628L53.65 352.645l408.465-111.368z"/><path fill="#c17b8c" fill-opacity=".545" d="M553.338 428.544l-18.91-19.03-16.167 34.675 24.222 43.927z"/><path fill="#cc9883" fill-opacity=".329" d="M315.35 148.928l79.938-12.183 38.49 2.686-123.607-52.832z"/><path fill="#3c3e31" fill-opacity=".576" d="M139.603 930.828L14.459 877.794 114.266 718.1l39.068-19.422z"/><path fill="#73778e" fill-opacity=".384" d="M748.662 503.495l-84.35-40.193 3.81 235.33-76.954-207.069z"/><path fill="#1a457a" fill-opacity=".204" d="M637.705 178.833L706.8-36.671 441.376-52.38l121.158 248.918z"/><path fill="#290400" fill-opacity=".337" d="M471.242 45.56l-116.61-18.993-18.447 262.248-22.864-135.739z"/><path fill="#161b02" fill-opacity=".243" d="M898 1034.568l-102.488-70.862 1.318-328.927L756.39 1086z"/><path fill="#e1e0f9" fill-opacity=".612" d="M200.017 475.7l393.55 54.411-78.65-80.463L549.57 332.41z"/><path fill="#c0c3e7" fill-opacity=".506" d="M620.828 568.354l-216.314-9.417-165.22 96.117 159.365 154.78z"/><path fill="#439d94" fill-opacity=".231" d="M370.569 504.275l-64.66 22.282 289.582 84.155-69.935-94.684z"/><path fill="#bdbea5" fill-opacity=".525" d="M898 192.28l-377.932 9.853-14.928 34.74 392.86-.384z"/><path fill="#975b3d" fill-opacity=".557" d="M518.45 308.208L443.8 359.38l62.07-255.27-14.875 179.796z"/><path fill="#515141" fill-opacity=".392" d="M298.262 1010.875L-.121 1042.72-62 878.484 372.267 1086z"/><path fill="#731700" fill-opacity=".314" d="M787.122 563.262l6.641 57.837 14.16 92.88L697.55 606.665z"/><path fill="#b3afc7" fill-opacity=".812" d="M450.637 358.608l-196.888 77.76 23.326 11.025 133.354-89.538z"/><path fill="#bba399" fill-opacity=".596" d="M-62 757.786l144.206-198.08-95.97 200.936 29.643-109.754z"/><path fill="#efdad0" fill-opacity=".318" d="M898 802.647l-46.806-107.926-19.881-65.45-64.352-99.867z"/><path fill="#394321" fill-opacity=".282" d="M169.492 360.259L88.68 448.094 41.5 353.676l33.128-50.321z"/><path fill="#dce1f7" fill-opacity=".776" d="M544.732 885.258L452.26 620.654l189.966 53.152-3.659-66.204z"/><path fill="#3f3e31" fill-opacity=".58" d="M664.28 916.06l-29.29-61.188 3.035-97.098 80.442-73.676z"/><path fill="#160c00" fill-opacity=".388" d="M411.568-20.198L284.841 112.76l215.581-74.375-33.338 167.348z"/><path fill="#9da2b7" fill-opacity=".933" d="M161.781 467.53l69.886-2.445-63.175-20.001-73.325 47.451z"/><path fill="#ffa686" fill-opacity=".243" d="M350.688 165.925l-29.057 83.929L467.588 149.82l-80.08 95.572z"/><path fill="#c2b5c7" fill-opacity=".188" d="M711.001 844.651l-39.358 24.466 41.995 216.672L763.472 958.9z"/><path fill="#444133" fill-opacity=".89" d="M146.575 1061.281l-66.78-321.42 140.223 241.47 35.348-157.416z"/><path fill="#827a92" fill-opacity=".455" d="M145.164 765.873l8.14 93.83 85.113-31.804 32.674-130.142z"/><path fill="#802615" fill-opacity=".31" d="M78.048 532.592l26.88 153.826L33.316 670.9l86.258-96.889z"/><path fill="#d6dcf0" fill-opacity=".894" d="M457.155 520.822l-5.31-105.04-51.632 147.063-3.71-58.973z"/><path fill="#df421b" fill-opacity=".208" d="M80.666 202.5l-109.357-9.358-33.188-53.788 145.751.514z"/><path fill="#e9e8fd" fill-opacity=".463" d="M609.668 326.202L510.6 558.946 617.226 446.59 493.982 306.718z"/><path fill="#5a5f67" fill-opacity=".435" d="M602.678 527.847l104.107 220.96 36.712-101.161-107.4-114.203z"/><path fill="#dfe1f5" fill-opacity=".82" d="M334.233 494.262l17.36 71.347 11.882-152.065-99.082-108.121z"/><path fill="#c1cceb" fill-opacity=".431" d="M179.79 573.935l9.19-78.26-103.422 11.613 51.238 69.583z"/><path fill="#eaecf6" fill-opacity=".639" d="M254.336 319.864l-152.44 175.082 49.71-107.187 45.879-55.958z"/><path fill="#5a584e" fill-opacity=".384" d="M519.913 185.922l162.805-100.79-13.001 73.209L898 181.567z"/><path fill="#91f3ff" fill-opacity=".063" d="M239.977 27.43L30.881 32.197l97.249 25.148 27.143 351.56z"/><path fill="#403732" fill-opacity=".91" d="M260.944-20.534l281.609 83.389-126.479-107.71-190.767 211.898z"/><path fill="#8a8c66" fill-opacity=".459" d="M52.169 332.2L10.647 702.658l-49.352-442.242 371.512-4.27z"/><path fill="#44040b" fill-opacity=".216" d="M270.76 426.673l40.048 17.991 11.149 16.626-24.911-51.332z"/><path fill="#888fab" fill-opacity=".318" d="M292.364 742.945l53.523-52.149 59.429 16.142-134.853 79.338z"/><path fill="#d9ddf2" fill-opacity=".604" d="M300.868 428.549l-87.882 73.89 130.63-71.826-59.133 136.275z"/><path fill="#5a5958" fill-opacity=".639" d="M241.888 553.915l-9.505-60.567-14.91 104.422-2.203-3.141z"/><path fill="#f2f4fa" fill-opacity=".761" d="M726.077 1086l-71.956-69.127 11.368-30.58-369.404-45.548z"/><path fill="#518880" fill-opacity=".514" d="M477.352 507.45l-26.724 48.288 61.388-49.287 19.022 75.74z"/><path fill="#c3cbf2" fill-opacity=".255" d="M688.15 598.099L581.818 386.626l137.844 10.167 54.772 179.484z"/><path fill="#00050a" fill-opacity=".341" d="M389.653 305.072l77.31-50.275-1.83 42.56-105.257 90.199z"/><path fill="#e3b19c" fill-opacity=".157" d="M453.344 98.85l-88.923 53.389-48.646-14.998-5.757-39.607z"/><path fill="#8d895e" fill-opacity=".447" d="M94.073 682.192l71.067-97.38 82.492 56.836-191.715 97.438z"/><path fill="#a57666" fill-opacity=".761" d="M797.617 938.185l18.467-165.27L898 1000.847l-98.395-32.731z"/><path fill="#1a775b" fill-opacity=".443" d="M384.364 544.85l4.806 22.61 10.893-64.142-10.983 5.31z"/><path fill="#a25043" fill-opacity=".306" d="M45.427 628.082l-81.603 305.55 64.358-73.412 99.363-207.716z"/><path fill="#e0e2f8" fill-opacity=".729" d="M464.188 368.225l100.528-40.599-116.28 191.12 12.73 45.393z"/><path fill="#c6cbe8" fill-opacity=".902" d="M369.833 573.688L511.5 706.555l-98.28 30.855-39.193-244.674z"/><path fill="#fcfffe" fill-opacity=".451" d="M293.218 1012.952l177.857-1.232-217.75-59.706 49.861 119.73z"/><path fill="#959944" fill-opacity=".329" d="M-45.339 411.08l179.795-8.398-9.651 64.153-149.495 82.66z"/><path fill="#454d5d" fill-opacity=".247" d="M357.176 1037.483l51.705-24.658-458.813 21.835 382.699-22.99z"/><path fill="#45655f" fill-opacity=".29" d="M375.132 502.502L271.57 584.968l-2.67 20.713 51.04-25.39z"/><path fill="#1f6f52" fill-opacity=".49" d="M267.312 504.569l15.494 71.65-4.384-54.073 12.121-23.844z"/><path fill="#e8e9f5" fill-opacity=".725" d="M336.19 307.313l-9.586-31.533-84.936 36.33-105.246 91.223z"/><path fill="#c0c7e2" fill-opacity=".616" d="M499.247 859.28l105.162-28.393-163.954 24.347L315 910.522z"/><path fill="#e5ebf2" fill-opacity=".153" d="M763.237 756.894l24.595-67.92 1.276-11.903-42.462 7.851z"/><path fill="#56584b" fill-opacity=".416" d="M672.774 360.765l186.635 26.259 38.591 58.4-141.08-9.806z"/><path fill="#3e3c2d" fill-opacity=".286" d="M256.625 910.982L12.306 1047.026 71.588 1086l176.52-81.134z"/><path fill="#dbada1" fill-opacity=".573" d="M-62 907.631l71.668-26.96 2.43 3.08 11.74 29.998z"/><path fill="#011530" fill-opacity=".498" d="M615.681-62l1.683 178.206-95.712-97.759L290.538-20.89z"/><path fill="#98674d" fill-opacity=".529" d="M318.804 244.919L446.5 158.076l-26.986 118.152L298.93 155.992z"/><path fill="#2b1500" fill-opacity=".424" d="M432.86 175.894l-81.893-12.696-13.558 45.358-32.172-68.313z"/><path fill="#eff2fb" fill-opacity=".773" d="M313.93 955.021L768.933 1086 237.87 888.41l8.836 19.4z"/><path fill="#e2e5fb" fill-opacity=".353" d="M246.065 740.572l40.715-445.977-53.541 333.871 39.364 38.422z"/><path fill="#fbfcfe" fill-opacity=".435" d="M706.404 420.677l21.828-6.152-75.339-68.3-167.67-79.758z"/><path fill="#c2c7e3" fill-opacity=".694" d="M566.734 552.066l-3.055 81.208 40.18 67 18.01-151.552z"/><path fill="#bebdab" fill-opacity=".427" d="M-62 214.267l356.323-6.604 22.575 28.1L1.291 256.077z"/><path fill="#080101" fill-opacity=".376" d="M378.524 362.607l-20.5-95.722-25.065 5.432 37.747-58.346z"/><path fill="#e0e5f8" fill-opacity=".561" d="M249.519 880.732l379.247-98.679 10.27 62.523-372.39-46.218z"/><path fill="#eff3fd" fill-opacity=".353" d="M186.738 490.91l-55.194 61.732-12.795 13.075-31.684-37.022z"/><path fill="#291506" fill-opacity=".176" d="M243.848 679.056l5.036 140.504 4.255 55.022-34.271-194.147z"/><path fill="#a7afca" fill-opacity=".804" d="M600.544 455.506l104.596 73.942-88.527-35.521 126.43-.845z"/></svg>