<svg xmlns="http://www.w3.org/2000/svg" width="228" height="278" viewBox="0 0 836 1024"><path fill="#747177" d="M0 0h836v1024H0z"/><g fill-opacity=".502"><path fill="#f5edf5" d="M78 266l640 68 128 752z"/><path fill="#250e06" d="M-62-2l540 400L898-2z"/><path fill="#fdf8ed" d="M250 626l-24 280 588 4z"/><path fill="#050810" d="M2 670l-28 416 508-48z"/><path d="M654 298l244 280L798-62z"/><path fill="#34000b" d="M590 586l-16 152-460-256z"/><path d="M670 1086l-376-96 348-92z"/><path fill="#004c7b" d="M22 778L226-22-62 102z"/><path fill="#f1fcff" d="M758 382L642 838 542 262z"/><path fill="#f8ffff" d="M366 254l104 332-320-296z"/><path fill="#fff" d="M258 598l132 340-160-40z"/><path fill="#421d04" d="M214 826l36-260-280 96z"/><path fill="#3f231d" d="M470 798l-48 132-64-324z"/><path d="M542 326l-172-24 72 112z"/><path fill="#2c0f09" d="M-62-2v268l336-4z"/><path fill="#c2e0dd" d="M238 250L78 374l108 244z"/><path fill="#d1b6bb" d="M506 750l388-300-104 636z"/><path fill="#008fca" d="M82 666l52-376-196-8z"/><path fill="#b2494d" d="M726 630l-88 284 72 172z"/><path fill="#6b7e92" d="M142 246L458-62H134z"/><path fill="#000019" d="M674 1086l-60-140-448-8z"/><path fill="#140a10" d="M646-62l100 528L862-6z"/><path fill="#0d0638" d="M602 570L370 702l204 8z"/><path fill="#ebecef" d="M354 606l68-204 280-48z"/><path fill="#e9faff" d="M446 710l32 116 336-92z"/><path d="M374 62L490-50l80 148z"/><path fill="#7b4538" d="M22 250l644 36 8-248z"/><path fill="#75171e" d="M706 682l192-44-188-20z"/><path fill="#fff" d="M214 990l36 52 20-48z"/><path fill="#ddecec" d="M706 790L406 942l152-16z"/><path fill="#fff" d="M170 406l240-144-212 12z"/><path fill="#261907" d="M186 74l156 192 184-120z"/><path fill="#ae0000" d="M898-30L762 274l136 124z"/><path fill="#002a96" d="M262 554l140 152-136-72z"/><path fill="#e25b55" d="M194 1086l-52-128 56-116z"/><path fill="#0b439d" d="M302 438l40-76-56-4z"/><path fill="#c90000" d="M606 574H482l60 64z"/><path fill="#08102d" d="M50-62l-80 364 192-196z"/><path fill="#effcff" d="M686 350l-128-64-56 132z"/><path fill="#a05d75" d="M698 274l-56-104-260 60z"/></g></svg>