<svg xmlns="http://www.w3.org/2000/svg" width="228" height="278" viewBox="0 0 836 1024"><path fill="#5d5d66" d="M0 0h836v1024H0z"/><path fill="#7abbee" fill-opacity=".718" d="M738.99 402.34L163.043 598.146l45.392-193.385 121.58-101.721z"/><path fill="#e5e9e1" fill-opacity=".533" d="M865.259 1086L826.74 588.219 666.7 556.617l2.91 254.232z"/><path fill="#16395e" fill-opacity=".82" d="M391.227 1086L687.6 873.85 372.673 401.686l-202.634 647.513z"/><path fill="#611a09" fill-opacity=".553" d="M112.914 1086L-62 337.665 615.096-62 198.464 420.166z"/><path fill="#efe9eb" fill-opacity=".604" d="M319.498 306.681l4.71 285.563-133.246-25.375 2.644-148.675z"/><path fill="#5e312e" fill-opacity=".796" d="M164.612 887.554l-226.612-.5V542.691l536.5 78.352z"/><path fill="#3a8dd0" fill-opacity=".635" d="M271.5 338.54l437.227 12.213-35.381 185.262-217.089-3.5z"/><path fill="#32a0ff" fill-opacity=".443" d="M620.739 539.407l-13.223 328.707L723.774 1086H500.72z"/><path fill="#825f40" fill-opacity=".769" d="M143.1 171.087L619.682 65.128l-31.37 167.941-48.356 159.442z"/><path fill="#a8725c" fill-opacity=".784" d="M592.975 625.82l-43.932-145.765-73.698 97.237-347.79 76.618z"/><path fill="#482e30" fill-opacity=".992" d="M880.818 643.678l-20.51-257.569-165.077-34.39 71.642 160.968z"/><path fill="#001828" fill-opacity=".624" d="M332.593 668.067L217.906 1086l-9.243-169.15 401.49-240.736z"/><path fill="#52b3f1" fill-opacity=".725" d="M276.719 346.932l252.975 163.29-142.522-269.334-13.423 39.455z"/><path fill="#0c140f" fill-opacity=".702" d="M599.607 69.008l-74.131-44.106-106.579 3.776-54.866 73.855z"/><path fill="#8a9190" fill-opacity=".678" d="M898 53.702V-62L422.565-26.577l398.927 150.038z"/><path fill="#deb459" fill-opacity=".255" d="M-62 216.945V157.05l386.876-10.17 140.047 163.888z"/><path fill="#bdc4c7" fill-opacity=".631" d="M263.911 832.181l7.82 253.819 10.183-77.784-3.816-121.357z"/><path fill="#180b04" fill-opacity=".498" d="M568.347 352.14l11.107-35.64-160.39-94.795L490.8 368.242z"/><path fill="#004084" fill-opacity=".478" d="M597.237 666.52L273.196 866.66 340.98 1086l186.462-18.18z"/><path fill="#9c7f8d" fill-opacity=".557" d="M168.637 958.465L42.56 982.215-62 927.836l188.442-56.293z"/><path fill="#f3ffe6" fill-opacity=".184" d="M472.916 475.666L584.37 265.013 529.826 171.3l183.884 21.215z"/><path fill="#471704" fill-opacity=".431" d="M814.48 1086l-84.28-53.913-135.704-206.42 30.102-77.861z"/><path fill="#d4d9e6" fill-opacity=".686" d="M347.11 428.56l-35.631-67.147L168.198 579.34l136.242 2.366z"/><path fill="#3c2125" fill-opacity=".706" d="M68.752 257.221l253.735 50.27-124.308 93.742L-62 263.691z"/><path fill="#deebed" fill-opacity=".51" d="M633.801 999.895l-92.116-29.277 96.541-18.857 15.125 32.428z"/><path fill="#ffc8b9" fill-opacity=".365" d="M589.54 131.977l-101.13-9.708-35.6-45.95 123.826 20.36z"/><path fill="#2684cd" fill-opacity=".667" d="M746.377 435.569l-305.329-52.541L629.68 526.109 568.65 283.29z"/><path fill="#76464d" fill-opacity=".376" d="M266.563 492.21L70.455 303.617l211.983 137.935-117.385 56.662z"/><path fill="#ac6d68" fill-opacity=".729" d="M617.735 439.923l25.195 83.576 35.892-38.042-27.486-53.365z"/><path fill="#003c82" fill-opacity=".475" d="M523.821 550.681l-177.702 63.52 5.811-89.778-7.913-142.16z"/><path fill="#e6d7d9" fill-opacity=".518" d="M521.9 390.063l13.45 26.184-83.9-55.015-87.838-86.91z"/><path fill="#45292c" fill-opacity=".851" d="M93 1101.501l94.744-142.428-119.382 44.433L-62 963.22z"/><path fill="#9a6a5c" fill-opacity=".471" d="M698.887 792.244L657.921 518.7 613.59 744.377 846.876 1086z"/><path fill="#688298" fill-opacity=".976" d="M617.427 632.523l7.211 44.66-156.92-19.259-10.943-8.305z"/><path fill="#b1bcbb" fill-opacity=".494" d="M898 769.283l-51.407 270.735-176.96-424.715 64.364-115.854z"/><path fill="#03150f" fill-opacity=".345" d="M148.058 719.884l299.25-75.612 87.048 140.608-83.002 28.697z"/><path fill="#1d1406" fill-opacity=".243" d="M898 185.526L642.692 552.83l-192.014 91.758 199.291-10.334z"/><path fill="#994d00" fill-opacity=".486" d="M352.225 231.94l-62.623-126.107-62.839 27.769-22.08 167.75z"/><path fill="#4f4739" fill-opacity=".667" d="M-62 115.861l579.459 64.003 117.534-24.924L325.01 93.18z"/><path fill="#1d66b0" fill-opacity=".686" d="M427.852 1010.897l-70.617-53.392 167.87-4.311L333.168 1086z"/><path fill="#141c23" fill-opacity=".953" d="M263.137 852.84l7.41-137.189-65.704 299.128L270.326 1086z"/><path fill="#86cfeb" fill-opacity=".635" d="M621.404 338.948l68.98 9.274 24.564 59.583-104.274-89.362z"/><path fill="#738176" fill-opacity=".404" d="M-7.989-62L201.9 4.119l5.895 256.227L-62 247.86z"/><path fill="#d4e8da" fill-opacity=".392" d="M274.468 717l11.638 18.256L272.635 1086l-6.102-171.003z"/><path fill="#1e5c8e" fill-opacity=".733" d="M627.886 391.645l56.344 87.257-49.452 102.1 92.256-136.857z"/><path fill="#0b0003" fill-opacity=".267" d="M570.242 348.02l-112.336-53.23 89.061-94.648 26.621 47.46z"/><path fill="#a97042" fill-opacity=".349" d="M166.894 702.492l440.918-100.146-357.744 7.585-104.546 37.041z"/><path fill="#b9867a" fill-opacity=".475" d="M442.198 626.998l201.79-86.89L564.083 520l14.515-71.948z"/><path fill="#1c2d45" fill-opacity=".749" d="M351.475 611.383l31.806-31.605-239.239 58.46 63.607-61.555z"/><path fill="#d8e0f1" fill-opacity=".553" d="M502.155 388.075l46.591 13.518 30.926-83.235-.261 44.605z"/><path fill="#191c1a" fill-opacity=".659" d="M551.088 10.11L385.916 46.092l-1.757 78.521 1.577 30.882z"/><path fill="#d8e7f4" fill-opacity=".863" d="M342.077 448.67l-109.901-70.898 42.572-33.567 43.928 39.73z"/><path fill="#052329" fill-opacity=".349" d="M244.73 424.33l-20.449 25.854 57.427-51.006-26.515 62.426z"/><path fill="#2b8dd7" fill-opacity=".549" d="M449.92 487.582l43.086-84.05 155.664-19.485-159.11 169.968z"/><path fill="#81817a" fill-opacity=".38" d="M348.586-62h253.907L299.952 104.116l116.097 197.48z"/><path fill="#4c4739" fill-opacity=".545" d="M835.207 127.11L644.33 306.358l93.354 102.819-21.489-281.765z"/><path fill="#0e1327" fill-opacity=".443" d="M392.06 518.817l-98.373 94.432 49.321-78.82 15.43-123.626z"/><path fill="#431720" fill-opacity=".604" d="M210.7 749.188L-11.15 592.265l191.124 18.97L-62 728.311z"/><path fill="#777d78" fill-opacity=".588" d="M856.461 637.854l-33.59-50.607-110.947-106.22L828.638 686.1z"/><path fill="#b2a09f" fill-opacity=".384" d="M307.637 426.748l50.287 77.276-85.5 135.871 57.953-24.808z"/><path fill="#145095" fill-opacity=".482" d="M384.216 315.714l200.258 144.662-171.698-103.523-17.927-29.942z"/><path fill="#727674" fill-opacity=".745" d="M736.575 52.911L898 127.562l-298.515-27.064-50.628-94.382z"/><path fill="#532b00" fill-opacity=".412" d="M195.843 662.673l-4.916 81.366L579.6 608.824 390.374 648.51z"/><path fill="#5796cf" fill-opacity=".439" d="M708.74 634.165l-132.296-155.48 75.958 54.343 37.594 222.081z"/><path fill="#062848" fill-opacity=".506" d="M291.717 707.576l229.152 216.471-19.797 24.697-214.218-93.517z"/><path fill="#f9fdef" fill-opacity=".255" d="M636.322 951.103l34.775 89.606-47.957-159.47-17.645-3.508z"/><path fill="#1f8edf" fill-opacity=".408" d="M449.525 392.55L255.284 339.5l162.567 109.818-57.897-205.245z"/><path fill="#124e89" fill-opacity=".467" d="M494.622 1080.223L626.677 668.7l-164.572 5.448 88.015 57.632z"/><path fill="#37b2fd" fill-opacity=".404" d="M251.014 771.763l-11.902 84.922 10.1-28.55-38.073 63.628z"/><path fill="#ffeff2" fill-opacity=".349" d="M443.848 365.254l-74.22-102.241 48.129 44.98 79.738 79.076z"/><path fill="#e1e9f2" fill-opacity=".545" d="M277.127 463.723L167.13 611.355l27.516-109.645 87.687 37.27z"/><path fill="#863e49" fill-opacity=".635" d="M197.452 900.158l20.524-36.746-199.595-5.003L-62 905.6z"/><path fill="#ff9680" fill-opacity=".192" d="M405.877 168.276l238.065 24.56-186.02 26.958L480.77 79.507z"/><path fill="#2d1d0f" fill-opacity=".506" d="M629.53 118.852l-151.726 65.385-5.563-48.826 76.4 3.757z"/><path fill="#3a7caf" fill-opacity=".98" d="M244.28 1067.448L45.474 1086l84.287-16.537 40.2-75.141z"/><path fill="#474837" fill-opacity=".337" d="M256.941 174.159l93.052-83.373-382.131 1.638-5.019 36.064z"/><path fill="#cdd1da" fill-opacity=".416" d="M472.978 472.971l-7.456-42.467-54.576-18.726 35.473 53.046z"/><path fill="#6e4433" fill-opacity=".471" d="M371.839 257.654L571.926 350.3l-57.595 32.991-43.287-21.228z"/><path fill="#5d2e35" fill-opacity=".82" d="M161.237 692.764l46.425-342.494-92.854-20.693L-62 313.165z"/><path fill="#252b2c" fill-opacity=".604" d="M522.944 33.761l-12.17-38.045 79.514 64.753.903 55.956z"/><path fill="#52c4ff" fill-opacity=".604" d="M376.057 281.176l19.285 34.703-67.742 60.98-62.23-30.133z"/><path fill="#a38283" fill-opacity=".416" d="M673.783 855.107l-9.022-77.387L898 1086h-59.88z"/><path fill="#006abd" fill-opacity=".392" d="M594.743 691.38l15.764-136.968 6.722 4.137 26.793 12.843z"/><path fill="#0e1a18" fill-opacity=".349" d="M339.956 298.57L249.6 357.967l-145.446-67.359-49.279-2.385z"/><path fill="#352319" fill-opacity=".439" d="M608.271 821.083l41.625 152.254 39.262-94.36-69.743-137.555z"/><path fill="#378ed5" fill-opacity=".859" d="M550.58 944.4l92.625-37.944-16.022 12.42 7.962 40.723z"/><path fill="#783c37" fill-opacity=".349" d="M869.16 164.9L898 610.694l-163.127-264.39 50.12-19.999z"/><path fill="#7a3f48" fill-opacity=".592" d="M31.157 816.053l257.125-104.842-111.423 99.521L-62 709.338z"/><path fill="#2163a7" fill-opacity=".992" d="M364.392 1018.067l69.802 47.105 94.232-72.123 239.28 50.773z"/><path fill="#899dad" fill-opacity=".239" d="M244.106 178.056L-62 150.825l46.931 68.85 190.395 10.533z"/><path fill="#fffee9" fill-opacity=".102" d="M163.853 694.252l18.95 12.527 29.768.093-49.52-183.88z"/><path fill="#8cd1ff" fill-opacity=".149" d="M582.95 1040.914l122.247-61.261.423-48.67-189.231 59.422z"/><path fill="#090801" fill-opacity=".427" d="M663.686 567.129l28.387-17.84 13.696-46.966-24.202 6.555z"/><path fill="#e59b8e" fill-opacity=".314" d="M513.26 119.246l52.658-11.15-58.761 84.456 70.837 14.364z"/><path fill="#b98677" fill-opacity=".553" d="M274.75 638.3l89.537-9.14 223.882-67.42-60.617-4.37z"/><path fill="#dde1e3" fill-opacity=".937" d="M194.352 430.501l56.746-64.193-31.322 61.09 5.983 21.25z"/><path fill="#513020" fill-opacity=".525" d="M640.769 556.294l-123.463-2.898 119.326-9.961-4.083 366.37z"/><path fill="#050100" fill-opacity=".239" d="M378.067 109.543l98.23-78.479-59.775 93.447 69.493 204.926z"/><path fill="#bcd6d9" fill-opacity=".145" d="M821.76-62L898 54.817 656.038 12.415 305.304 15.37z"/><path fill="#76454c" fill-opacity=".553" d="M-62 432.454l318.025 19.293-200.355 25.61 29.539 6.537z"/><path fill="#ef7e01" fill-opacity=".216" d="M359.281 172.505l-21.01 89.04-107.89-2.265 2.775-53.201z"/><path fill="#77745f" fill-opacity=".298" d="M880.402 79.132l-88.818 316.592-89.63-246.046-215.19 235.442z"/><path fill="#1376c3" fill-opacity=".341" d="M681.452 541.162l-145.636-141.03 55.408-49.548-31.168 175.09z"/><path fill="#ba866e" fill-opacity=".294" d="M589.237 90.946l-154.788 69.24 21.27-79.727 37.332-7.22z"/><path fill="#8f8171" fill-opacity=".859" d="M399.375 282.936l27.695-26.51-69.792-89.535 13.307 118.641z"/><path fill="#1e242b" fill-opacity=".435" d="M628.447 422.765l146.628 50.18-36.718-105.92-23.737 106.108z"/><path fill="#572129" fill-opacity=".675" d="M214.005 868.885l24.245-60.294-248.545-1.23-26.726 23.602z"/><path fill="#000707" fill-opacity=".396" d="M311.492 606.725l-23.17-14.23-81.63-15.851 38.205 26.943z"/><path fill="#a5b9c6" fill-opacity=".827" d="M530.028 986.508l98.881-16.394-49.143 33.311 3.571-44.914z"/><path fill="#317aba" fill-opacity=".816" d="M464.483 481.827l-84.78 123.081 66.63-120.636-171.334-140.56z"/><path fill="#785446" fill-opacity=".71" d="M652.781 742.75l14.19-188.612-51.015 107.204 34.856 179.7z"/><path fill="#2b2112" fill-opacity=".839" d="M303.611 716.831l203.142-86.676-358.341 106.777 83.147.638z"/><path fill="#660709" fill-opacity=".204" d="M891.02 1000.789L556.751 1086l212.891-146.4-26.479 139.712z"/><path fill="#9ba1a2" fill-opacity=".565" d="M703.3 619.759L601.29 518.458 898 736.068 737.973 534.712z"/><path fill="#4a2025" fill-opacity=".737" d="M-62 538.105l27.087-54.503 207.397 14.28 15.107 19.103z"/><path fill="#021314" fill-opacity=".275" d="M429.222 259.433l130.075 65.327 43.419-91.302-83.18 112.617z"/><path fill="#070400" fill-opacity=".424" d="M588.544 98.528L539.14 30.31 434.678 58.524l120.856 23.613z"/><path fill="#fdd1cb" fill-opacity=".329" d="M573.542 531.191l55.418 4.293-90.496 8.165 30.629-32.81z"/><path fill="#002062" fill-opacity=".259" d="M505.488 417.449L391.84 326.232l239.51 158.72-49.17-43.654z"/><path fill="#524f3c" fill-opacity=".435" d="M617.616 118.307l-66.009 42.757 242.136 15.641 95.024-28.008z"/></svg>