<svg xmlns="http://www.w3.org/2000/svg" width="228" height="278" viewBox="0 0 836 1024"><path fill="#7c7a78" d="M0 0h836v1024H0z"/><path fill="#e9f2fe" fill-opacity=".576" d="M226.904 1028.511l45.582-557.172 313.11 32.257 40.394 496.157z"/><path fill="#181714" fill-opacity=".522" d="M898 309.778l-960 11.538V-28.94L872.885-62z"/><path fill="#fcd0d4" fill-opacity=".667" d="M690.032 376.571L498.61 268.538l17.806 122.557 191.826 176.52z"/><path fill="#fdd9de" fill-opacity=".553" d="M429.762 277.933l-189.19 52.989-135.161 108.94 54.06 87.794z"/><path fill="#e7e9e3" fill-opacity=".494" d="M731.214 715.24L898 338.52v410.435l-98.697 98.533z"/><path fill="#bb2d2a" fill-opacity=".851" d="M278.96 474.794l210.542.173-4.07-64.227-248.942.408z"/><path fill="#002a72" fill-opacity=".616" d="M615.398 990.033l37.092-243.542 81.139 207.422L744.369 1086z"/><path fill="#120823" fill-opacity=".329" d="M799.554 507.574L443.03 621.114-62 492.724l846.16 115.01z"/><path fill="#e3e9f6" fill-opacity=".675" d="M543.078 425.875l192.292 15.59-271.406-63.1-287.618 6.674z"/><path fill="#8bbd00" fill-opacity=".447" d="M238.424 1068.043l-290.548-18.515L-28.1 804.88l240.68 6.619z"/><path fill="#4c4341" fill-opacity=".906" d="M287.786 283.662L-41.257 559.841l214.8-21.95-222.13-238.948z"/><path fill="#8e5431" fill-opacity=".698" d="M508.362 362.827L523.013-62 351.032 362.064l350.817 57.287z"/><path fill="#004ede" fill-opacity=".341" d="M687.34 360.284l206.82 31.673-160.09 296.514-15.292-53.534z"/><path fill="#86491f" fill-opacity=".553" d="M679.478 816.467L898 618.171 744.785 723.777 550.44 393.767z"/><path fill="#365062" fill-opacity=".796" d="M183.649 653.402l73.086-106.178 5.827 142.805-11.208 140.327z"/><path fill="#c6955a" fill-opacity=".475" d="M543.887 189.657l-202.212-9.353 53.272-106.315 115.539-13.244z"/><path fill="#c0bcc0" fill-opacity=".8" d="M289.03 526.177l-5.98 157.948-49.876-208.911 374.453 5.898z"/><path fill="#d48d54" fill-opacity=".51" d="M756.99 723.416l-94.381-217.622L764.694 1086H817.1z"/><path fill="#e7f9fc" fill-opacity=".678" d="M672.735 357.11l-27.64 37.587-31.547 56.36L718.66 576.803z"/><path fill="#ab4d42" fill-opacity=".827" d="M240.865 367.661l294.496-57.074 48.746-9.002-145.073 81.424z"/><path fill="#1a2309" fill-opacity=".494" d="M600.03 199.398l-225.087-5.226 51.076 168.829 67.69-107.209z"/><path fill="#193c76" fill-opacity=".714" d="M797.107 950.416l49.003 112.066L898 940.732l-119.978-94.54z"/><path fill="#4c94c8" fill-opacity=".337" d="M200.228 781.608l4.254-239.179-89.014 3.465L-53.25 802.192z"/><path fill="#b11d1f" fill-opacity=".824" d="M614.673 501.553l2.56-48.29-50.711-17.082-8.057 63.554z"/><path fill="#9b0201" fill-opacity=".596" d="M458.606 1086l153.514-73.236-69.83-5.925-407.369 32.527z"/><path fill="#eceffc" fill-opacity=".424" d="M575.542 495.482l-119.659 511.003 155.125 3.897-44.137-499.938z"/><path fill="#36424c" fill-opacity=".518" d="M683.532 386.368L519.758 220.824 676.09-62 898 322.846z"/><path fill="#d5e6ed" fill-opacity=".412" d="M65.496 431.038l61.594-12.568 121.81-93.362-8.601 195.635z"/><path fill="#983c00" fill-opacity=".467" d="M104.13 431.928L-62 513.974l96.85 40.615 132.406-15.197z"/><path fill="#5e6a64" fill-opacity=".341" d="M586.72 623.082l-29.576-11.163-161.203-144.447-77.364 135.947z"/><path fill="#fde8eb" fill-opacity=".569" d="M898 866.777l-18.881-282.818-142.101 91.749L898 409.129z"/><path fill="#061d4c" fill-opacity=".561" d="M761.697 636.028l41.669-88.226-94.067 15.487 9.887 72.204z"/><path fill="#c07169" fill-opacity=".961" d="M672.96 356.366l-7.03 11.301-185.01-67.378 29.135-29.545z"/><path fill="#4c3f2f" fill-opacity=".918" d="M401.636 121.446l9.665 39.968 403.937-91.6-268.977 58.261z"/><path fill="#e6f3ff" fill-opacity=".639" d="M531.788 329.725l9.782-16.6 98.024 63.358-134.339-7.994z"/><path fill="#d7d9e1" fill-opacity=".369" d="M105.523 715.618L83.24 831.29-40.73 608.28-62 883.8z"/><path fill="#010025" fill-opacity=".376" d="M636.214 555.958l4.25 151.108-32.153-30.624-3.497-174.255z"/><path fill="#343f46" fill-opacity=".561" d="M159.915 403.19l-146.17 24.676L-62 27.486l484.485 5.06z"/><path fill="#d6d9d7" fill-opacity=".718" d="M265.488 712.226L212.498 1086l157.715-464.217-106.89 23.45z"/><path fill="#dfdbe5" fill-opacity=".624" d="M255.685 322.77l122.536 13.337 14.104 20.256-172.908-4.77z"/><path fill="#a80202" fill-opacity=".545" d="M712.53 594.357l-9.945-30.845-100.371-29.964 13.57 34.858z"/><path fill="#c9001d" fill-opacity=".361" d="M471.38 357.848l-68.319 9.001 239.448 46.458-34.602-31.682z"/><path fill="#29444e" fill-opacity=".459" d="M87.382 610.17L45.535 757.555l-19.823-73.76 36.803-146.42z"/><path fill="#17432f" fill-opacity=".396" d="M757.961 732.049l23.388-39.273 77.283-72.68L898 668.791z"/><path fill="#0f180c" fill-opacity=".506" d="M426.988 75.545l28.656.093 92.848-39.936L428.875 3.716z"/><path fill="#cccad3" fill-opacity=".718" d="M330.274 413.108l-146.723-29.903 217.35-11.646 80.125 17.909z"/><path fill="#d8e2e5" fill-opacity=".267" d="M457.795 585.8l-102.74-86.978-20.9-84.559-99.587 101.319z"/><path fill="#c6d9de" fill-opacity=".275" d="M796.254 488.187L443.473 549.75 832.92 436.267l24.388 140.81z"/><path fill="#687c98" fill-opacity=".58" d="M618.108 913.464l-26.905-89.288 9.437-177.831 78.94 146.876z"/><path fill="#8a6848" fill-opacity=".78" d="M769.817 962.969L702.715 642.45l-52.366 112.33 58.909 143.28z"/><path fill="#ac2e2b" fill-opacity=".969" d="M503.077 373.628l-88.368-22.326-153.831 9.025-5.184 11.057z"/><path fill="#ffd696" fill-opacity=".224" d="M512.212 54.86l-135.54 92.37 24.889-94.407L543.86 169.205z"/><path fill="#c8ccd5" fill-opacity=".706" d="M563.192 492.049l-91.944 501.145 138.228-422.577-133.314-82.815z"/><path fill="#582c1b" fill-opacity=".714" d="M172.223 1024.944L50.977 1086l669.194-38.54-357.514-27.909z"/><path fill="#b6302e" fill-opacity=".816" d="M331.74 467.106l-86.369-40.283-5.763 37.331 6.639 12.226z"/><path fill="#555a5e" fill-opacity=".996" d="M636.89 256.305l30.744-29.19 81.04 66.626-58.46 117.476z"/><path fill="#819750" fill-opacity=".831" d="M.683 869.672l137.573-87.618 89.05 175.341 31.923-188.542z"/><path fill="#fd9a60" fill-opacity=".373" d="M-62 523.148l165.5-99.995-8.442 69.352L-62 366.803z"/><path fill="#2c3438" fill-opacity=".741" d="M79.357 273.223L230.239 55.149l132.663 244.044-26.72-238.314z"/><path fill="#c58388" fill-opacity=".859" d="M344.1 321.55l-43.67-20.016-40.353 13.44-5.314 21.404z"/><path fill="#d6d7de" fill-opacity=".949" d="M572.76 401.631l-119.896-27.353 67.1 43.579 172.488 51.315z"/><path fill="#1e3d6d" fill-opacity=".541" d="M644.264 1057.132l-38.23-191.448 100.717 18.55 43.006 90.809z"/><path fill="#f7fefb" fill-opacity=".404" d="M523.802 995.698l-27.496 8.84-52.625 13.469-264.989-2.493z"/><path fill="#050d0c" fill-opacity=".263" d="M396.402 531.942l-14.816 79.939 5.95-127.795-21.704 60.444z"/><path fill="#a61c1d" fill-opacity=".553" d="M347.827 413.256l173.177 66.642 78.428 12.91-240.524-21.71z"/><path fill="#8c9192" fill-opacity=".992" d="M281.234 602.407l18.493-43.772 14.33-9.209 38.366 55.076z"/><path fill="#ba8f65" fill-opacity=".557" d="M453.366 186.572l80.823-39.73-41.427 72.549-58.413-144.538z"/><path fill="#fffff4" fill-opacity=".145" d="M627.542 349.83l44.431 286.287 39.782 41.44-5.587-222.333z"/><path fill="#966b49" fill-opacity=".627" d="M435.69 316.947l-53.127-80-38.133 92.74 7.606-16.053z"/><path fill="#d1edff" fill-opacity=".337" d="M772.13 806.988l8.958-65.695L898 678.209 782.383 835.836z"/><path fill="#353c3e" fill-opacity=".71" d="M753.233 278.37L385.428-62l494.59 258.03L898 384.528z"/><path fill="#07294a" fill-opacity=".267" d="M216.441 755.388l-88.138 41.839 137.643-165.545-60.537-68.176z"/><path fill="#a60011" fill-opacity=".522" d="M119.197 517.498l38.694 34.72L105.5 428.8l-27.31 11.226z"/><path fill="#43566d" fill-opacity=".58" d="M57.669 446.1l-60.943-29.33L-62 226.352l198.115 179.88z"/><path fill="#95a3df" fill-opacity=".353" d="M754.796 428.612l96.148-28.794-73.039-36.542-21.967-1.493z"/><path fill="#d6dae3" d="M542.203 581.074L620.72 957.6l-6.966 48.728-40.751-1.268z"/><path fill="#151700" fill-opacity=".427" d="M475.432 265.1l-107.034-55.498 79.373 128.913-51.718 11.714z"/><path fill="#dadfe9" fill-opacity=".824" d="M494.166 354.923l52.485 17.216 148.405 24.306-120.273-63.856z"/><path fill="#cf1014" fill-opacity=".486" d="M547.531 288.372l-3.19 27.432-49.162 48.123-27.095 6.386z"/><path fill="#d4a784" fill-opacity=".784" d="M756.096 997.242l44.127-20.93 34.23 59.776-80.324-62.754z"/><path fill="#6f7578" fill-opacity=".749" d="M450.414 514.695l-63.995-21.858 129.698 134.551-80.56-32.869z"/><path fill="#002025" fill-opacity=".161" d="M251.033 682.95L21.05 582.25l99.44 95.57 156.806-106.703z"/><path fill="#48659c" fill-opacity=".643" d="M486.154 433.459l-.037 44.11 66.29 1.458 9.69-48.96z"/><path fill="#dfe681" fill-opacity=".314" d="M498.982 249.134l29.603 64.805-31.845 12.349-21.981-17.909z"/><path fill="#adb3bd" fill-opacity=".475" d="M607.84 575.537l-11.368-75.106-61.906-4.185-135.524 65.244z"/><path fill="#b23532" fill-opacity=".988" d="M609.546 390.926L426.603 346.04l199.172 69.216 1.745-5.991z"/><path fill="#bec3c7" fill-opacity=".827" d="M384.186 559.305l-21.953-65.922-220.691-36.016 183.962 95.903z"/><path fill="#b9bec5" fill-opacity=".863" d="M407.25 639.151l136.402 238.38-271.698 52.31 171.052-424.272z"/><path fill="#1c1503" fill-opacity=".376" d="M451.327 124.155l28.645 40.406 72.092-78.258-2.95 37.56z"/><path fill="#fefbf5" fill-opacity=".239" d="M256.4 318.58l-12.85 69.486-218.827 82.878 160.197-91.752z"/><path fill="#0436a4" fill-opacity=".263" d="M806.721 423.363l-126.262-21.19 133.97 116.609-113.054 62.566z"/><path fill="#e0e5ed" fill-opacity=".631" d="M672.515 352.414l-27.873 33.522-26.994 45.648 88.705 49.422z"/><path fill="#b22926" fill-opacity=".882" d="M239.058 411.6l249.284 44.702 3.645-35.348-79.5-10.917z"/><path fill="#022b81" fill-opacity=".298" d="M732.606 993.726l-65.355-11.608-51.511-358.314 56.283 194.552z"/><path fill="#8f5d33" fill-opacity=".518" d="M346.049 154.229l81.987 69.516 53.958 22.012L350.86 109.583z"/><path fill="#3f4753" fill-opacity=".769" d="M186.158 120.175l100.775 172.07L140.997 410.7l-60.993 10.105z"/><path fill="#b0b4ba" d="M398.334 608.074l-5.141-72.49-6.673 79.045 176.193 10.306z"/><path fill="#680000" fill-opacity=".247" d="M566.943 514.51l164.344 59.648 79.615 41.59-49.281 11.788z"/><path fill="#233036" fill-opacity=".631" d="M316.346 48.97l65.114 235.982-68.303 2.209 74.292-347.86z"/><path fill="#39403c" fill-opacity=".369" d="M520.277 582.852l-195.272-24.638 203.757 11.921 16.765 65.938z"/><path fill="#063d01" fill-opacity=".173" d="M269.91 490.094L-62 532.986l106.71 27.828 25.006-3.224z"/><path fill="#e0eaea" fill-opacity=".141" d="M594.964 795.886l-349.58 109.156 365.128-224.59 46.023 262.512z"/><path fill="#0c3b79" fill-opacity=".416" d="M744.447 674.592l50.383-177.24-92.194 41.664-2.138-63.922z"/><path fill="#fff2d3" fill-opacity=".353" d="M506.489 89.436l14.973 4.32-24.86-46.51-15.753 29.093z"/><path fill="#c5c8ce" fill-opacity=".851" d="M566.573 906.377l-236.212-8.341 30.36-335.226-125.837 435.86z"/><path fill="#a40e0d" fill-opacity=".392" d="M290.119 382.315l-30.043-9.98-8.89-21.383 53.517 9.277z"/><path fill="#567387" fill-opacity=".659" d="M120.036 786.247l137.587 4.902 3.033-72.245-137.405 24.134z"/><path fill="#e2fef4" fill-opacity=".294" d="M289.054 457.007l39.603 1.899 11.43-12.25-3.373-22.733z"/><path fill="#c4c7ce" fill-opacity=".867" d="M313.314 495.511l-143.837-21.088 239.383 2.88 131.63 12.865z"/><path fill="#eef3f4" fill-opacity=".718" d="M898 488.962v8.523l-119.138 98.57 68.467 23.108z"/><path fill="#83fffe" fill-opacity=".141" d="M119.367 535.726l48.52 74.109-202.004-45.237 208.138-20.271z"/><path fill="#cbd2ca" fill-opacity=".565" d="M704.105 562.417L687.5 394.091l-6.387 147.165-85.676-19.268z"/><path fill="#0b1808" fill-opacity=".463" d="M290.586 596.452l6.936-28.347 2.702-22.107-10.795-3.621z"/><path fill="#97a6a6" fill-opacity=".4" d="M113.953 804.243L-6.216 827.927-62 860.337 103.502 680.94z"/><path fill="#b5b9c0" fill-opacity=".851" d="M442.192 556.525l12.164 23.707.616 116.763 9.498-217.246z"/><path fill="#403117" d="M383.645 204.035l79.01-19.068-13.257 13.873-63.707 30.403z"/><path fill="#283439" fill-opacity=".8" d="M597.13 201.795l-82.781 81.596-7.49-33.616 34.61-79.51z"/><path fill="#140400" fill-opacity=".314" d="M418.953 115.458l-49.65 14.334 51.726 21.026 26.802-19.304z"/><path fill="#454a57" fill-opacity=".553" d="M689.611-62L563.802 261.395l45.567 67.576 56.517 10.14z"/><path fill="#989ba8" fill-opacity=".482" d="M456.986 871.274l18.43-69.862-50.936 57.312-76.893 82.18z"/></svg>