<svg xmlns="http://www.w3.org/2000/svg" width="228" height="278" viewBox="0 0 836 1024"><path fill="#60705e" d="M0 0h836v1024H0z"/><g fill-opacity=".502"><path fill="#fff" d="M718 1086L166 422l732 284z"/><path d="M886 610L834-62-62 14z"/><path fill="#ffffd6" d="M2 634l-12 208 468-144z"/><path fill="#100000" d="M454-62L-38-18l-12 728z"/><path fill="#e7ffe4" d="M898 1022l-4-436-744 500z"/><path fill="#449c7c" d="M782 386L346 178 226 590z"/><path d="M566 646l168-296 164 272z"/><path fill="#0f5b38" d="M510 926l48-304-468 392z"/><path fill="#000b00" d="M386 518l-56-184-108 292z"/><path fill="#ffffa1" d="M898 810l-552-88 512-104z"/><path fill="#40be8a" d="M-62 978l424-48-72-364z"/><path fill="#90d6c7" d="M510 158L150 370l20 164z"/><path d="M494 26l312 320 92-408z"/><path fill="#ffffa9" d="M-6 658l-44 264 268-280z"/><path fill="#fff" d="M374 518l232 60-328 60z"/><path fill="#271d00" d="M546 650l-116 48-156-68z"/><path fill="#250000" d="M2 482l272 128L2 650z"/><path fill="#200000" d="M-2 62l80 360 316-232z"/><path fill="#8acfb9" d="M858 326l-264 8-40 120z"/><path fill="#200009" d="M434 470l432-32-28 212z"/><path fill="#fff" d="M278 962l-144 124 228-40z"/><path fill="#894d2f" d="M646 126L374 18l108 288z"/><path fill="#b7bdd6" d="M58 458l228 36-24 92z"/><path fill="#717bff" d="M570 790l92 4 88 264z"/><path fill="#00130a" d="M346 542L182 350l132 68z"/><path fill="#002b27" d="M434 778l124-96-36 128z"/><path fill="#ffff9e" d="M546 794l32-156 308 12z"/><path fill="#120000" d="M830-62L478 286l376 36z"/><path fill="#25cb65" d="M618 1038l-272-16 216-84z"/><path fill="#f2eddc" d="M822 1086l76-332-296 256z"/><path fill="#002604" d="M50 974l268-44-232 156z"/><path fill="#fff" d="M318 574l120 84 180-108z"/><path fill="#c4b5d7" d="M622 430l-4 56-180-96z"/><path fill="#52bf8b" d="M482 546l-40-332-100 272z"/><path fill="#000900" d="M270 958l84 56-32-96z"/><path fill="#000918" d="M578 638l180-28-116-188z"/><path fill="#c2ffe9" d="M390 230l52 40-176 4z"/><path fill="#ffffa7" d="M-2 646l192 24-252 256z"/><path fill="#fff" d="M154 390l104 112-52-120z"/><path fill="#282621" d="M386 826l184 84-108 24z"/></g></svg>