<svg xmlns="http://www.w3.org/2000/svg" width="228" height="278" viewBox="0 0 836 1024"><path fill="#7e7171" d="M0 0h836v1024H0z"/><g fill-opacity=".502"><path fill="#050000" d="M122 334l776 140-576 612z"/><path fill="#fff" d="M726 474l-176 612 348-96z"/><path fill="#f2ffff" d="M-62 1082l364 4-364-636z"/><path fill="#ebeae3" d="M562 278L822-62l76 580z"/><path fill="#fff9db" d="M46 454l132-292L-34-62z"/><path fill="#210000" d="M190 926l100-676 352 676z"/><path fill="#eff" d="M854 1054l44-456-380 416z"/><path fill="#ffd100" d="M190 254L162 14 6-14z"/><path fill="#e3ffff" d="M-6 1086L6 626h176z"/><path fill="#cfc7d4" d="M394-62L170 326l236-48z"/><path fill="#571821" d="M898 638L726 358l-464-76z"/><path fill="#2f0000" d="M614 910l-200 100 296-572z"/><path fill="#412e30" d="M38 374l796 316-472 36z"/><path fill="#000005" d="M394 106l280-40L466 6z"/><path fill="#b8e4ff" d="M370 1030l-188 4L18 758z"/><path fill="#c8add0" d="M222 590l-20-124-184 60z"/><path fill="#c8d1d9" d="M506 574l-152-76 272 44z"/><path fill="#1d0105" d="M642 834l-524-24 228 208z"/><path fill="#e3f3ff" d="M202 310L50 402l-80-84z"/><path fill="#d1b59a" d="M694-62L518 394 898 78z"/><path fill="#34000c" d="M302 270l68 156-432 100z"/><path fill="#ecffff" d="M730 546l104 68-172 36z"/><path fill="#5b5268" d="M890 294L530-38l212 336z"/><path fill="#dbe4ff" d="M898 314l-64 184-148-184z"/><path fill="#f5ffff" d="M-62 182l168-76 20 140z"/><path fill="#0a4c0c" d="M122 942l-36-36-64 180z"/><path fill="#744b4d" d="M402 158L70 330l-132-72z"/><path fill="#4a2b00" d="M562 182l-68 216-72-232z"/><path fill="#e6fbff" d="M590 1046l76-312 232-12z"/><path fill="#c6dff8" d="M830 866l-648 220 716-20z"/><path fill="#c3c6cc" d="M690 458l-108-24 76-48z"/><path fill="#eded77" d="M534 78l164 180-104 72z"/><path d="M670 514l40-80 168 176z"/><path fill="#76e4ff" d="M246 254l164 48v-84z"/><path fill="#ceecff" d="M94 482L2 418l56-36z"/><path fill="#838aa2" d="M454 230L326 454l68 4z"/><path fill="#bbccdc" d="M370 78l116-88L94-62z"/><path fill="#271311" d="M134 718l412 236-400-104z"/><path fill="#2f0000" d="M570 410l100 164-356-156z"/><path fill="#e2b26f" d="M98 226L462 98 298 74z"/></g></svg>