<svg xmlns="http://www.w3.org/2000/svg" width="228" height="278" viewBox="0 0 836 1024"><path fill="#936f6c" d="M0 0h836v1024H0z"/><path fill="#ebeffb" fill-opacity=".765" d="M389.098 914.407l203.51 63.055 39.316-636.35-200.78 87.018z"/><path fill="#eff2fc" fill-opacity=".773" d="M264.183 921.204L15.737 744.702l170.074-448.934-16.03 401.443z"/><path fill="#100800" fill-opacity=".424" d="M200.606-62l676.33 21.792-286.198 807.735L898 648.077z"/><path fill="#ff2115" fill-opacity=".533" d="M194.184 366.358L229.78 1086l134.305-78.818 86.068-699.417z"/><path fill="#272b2b" fill-opacity=".808" d="M458.134 947.296l395.89 55.928L898 710.874 560.826 1086z"/><path fill="#fd0807" fill-opacity=".518" d="M803.745 838.487L665.236 498.035l7.77-143.218L898 620.048z"/><path fill="#fffaea" fill-opacity=".416" d="M572.492 833.772L328.878 1049.79l478.616-213.744-43.536-81.276z"/><path fill="#1e4e50" fill-opacity=".427" d="M-62 582.563l349.992-316.57 57.823-307.819L-11.162-62z"/><path fill="#eae9f0" d="M48.501 728.652l224.084 77.65L222.06 885.1 80.162 514.17z"/><path fill="#e2dde8" fill-opacity=".945" d="M532.72 341.825l141.976 54.958-28.145 112.568-159.278-104.37z"/><path fill="#5d605b" fill-opacity=".886" d="M52.664 345.864L-62 1030.41 261.514 1086 51.642 747.847z"/><path fill="#b91d1f" fill-opacity=".58" d="M441.835 606.651l-219.009-92.11-85.052 208.707 220.999 134.618z"/><path fill="#2d4d47" fill-opacity=".439" d="M883.32-25.909L335.487-2.023l354.175 373.325L898 612.975z"/><path fill="#ad8665" fill-opacity=".898" d="M289.864 122.347l127.479-21.317 89.717 74.796-84.546 307.842z"/><path fill="#f2effc" fill-opacity=".6" d="M57.59 646.638l143.724-67.05-16.273-239.104-83.313 111.737z"/><path fill="#d49a7b" fill-opacity=".949" d="M277.501 919.178l31.863-47.225 153.374 20.884-114.705 95.683z"/><path fill="#2f2a2e" fill-opacity=".71" d="M658.983 475.281l112.861 215.497-60.75 82.774-96.591-93.361z"/><path fill="#c32823" fill-opacity=".902" d="M332.139 967.041l-149.87-98.917-40.903 109.31L386.126 1086z"/><path fill="#725f5e" fill-opacity=".561" d="M729.597 468.68L559.096 616.718l-368.192-5.65L522.48 666.13z"/><path fill="#33312c" fill-opacity=".933" d="M690.75 980.51L722.417 1086l-334.877-47.908 90.788-63.156z"/><path fill="#7f6149" fill-opacity=".549" d="M595.95 525.452l-30.51-58.838-62.958 19.011 22.092 59.04z"/><path fill="#ff6460" fill-opacity=".569" d="M172.154 330.482l.977 102.566L389.341 564.8l-99.04-244.164z"/><path fill="#3b4330" fill-opacity=".373" d="M803.926-26.393L477.073 412.789l-92.44 14.48-65.636-63.276z"/><path fill="#393e3d" fill-opacity=".671" d="M99.958 473.136L269.21 163.078l66.974 118.108L-62 417.763z"/><path fill="#eacfd8" fill-opacity=".647" d="M309.808 329.055l-156.81 47.833 40.098-34.992 102.371-48.873z"/><path fill="#bc926b" fill-opacity=".675" d="M749.442 852.026l-92.28-121.075-49.654 266.11 89.043-28.145z"/><path fill="#f2f3ff" fill-opacity=".769" d="M720.664 809.091l37.283 47.553 43.57-49.472-61.062-49.908z"/><path fill="#2c2f32" fill-opacity=".957" d="M715.91 913.247l1.584 45.02L898 1086l-79.585-292.264z"/><path fill="#eed9e0" fill-opacity=".69" d="M333.018 496.551l-31.671-39.82-37.653 31.771 11.793 12.773z"/><path fill="#454137" fill-opacity=".757" d="M228.077-57.968L552.312 96.417 304.3 113.537l-93.016 201.998z"/><path fill="#707172" fill-opacity=".976" d="M-62-62l32.64 380.412 218.33 36.807L151.655-37.69z"/><path fill="#d17d87" fill-opacity=".776" d="M633.293 350.692l118.643 69.15-165.153-52.383-63.585-42.03z"/><path fill="#f2f0ff" fill-opacity=".604" d="M421.883 625.036l4.28-82.3L413.101 410l116.71 54.978z"/><path fill="#dedce6" fill-opacity=".863" d="M604.898 957.012l9.912-143.497-25.255-197.87-210.039 222.823z"/><path fill="#bc9267" fill-opacity=".561" d="M497.13 380.105l-154.583-11.533-41.471-166.536 166.336-30.823z"/><path fill="#343732" fill-opacity=".753" d="M40.311 1015.868L-62 1086l353.65-44.262-165.017-77.778z"/><path fill="#301e1c" fill-opacity=".62" d="M394.132 424.074l128.879-73.9-59.86 61.777-150.564-49.513z"/><path fill="#031a1c" fill-opacity=".29" d="M207.861 498.052l54.047 65.445-129.03 129.706 40.716 34.47z"/><path fill="#971312" fill-opacity=".71" d="M698.908 468.122l82.872 201.544-139.702-135.078 26.268-109.19z"/><path fill="#22150e" fill-opacity=".431" d="M898 452.288l-170.775-42.86 69.194 85.007L898 639.27z"/><path fill="#ffd7b8" fill-opacity=".341" d="M311.978 281.723l90.143-158.955-82.013-9.88-21.406 6.833z"/><path fill="#f3f7fd" fill-opacity=".565" d="M237.107 799.68l-50.537 71.233-121.945-87.21 73.779-74.717z"/><path fill="#afcfe4" fill-opacity=".337" d="M-62 952.076l81.447-46.429 46.452 24.423L22.516 1018z"/><path fill="#d62927" fill-opacity=".812" d="M383.83 870.683l25.111-174.261-184.296-111.224-51.16 142.292z"/><path fill="#e72c26" fill-opacity=".706" d="M816.324 807.955l59.341-92.451L847.08 527.59l-106.5 222.5z"/><path fill="#8e9da5" fill-opacity=".227" d="M898 372.503l-216.842 8.563 105.906-225.375L898 202.275z"/><path fill="#576364" fill-opacity=".608" d="M609.812 801.992l17.151 85.377 44.765-370.281-55.371 61.183z"/><path fill="#41423e" fill-opacity=".882" d="M496.09 299.341l-23.236-52.91L699.578-62l11.525 447.006z"/><path fill="#eef2fd" fill-opacity=".588" d="M163.402 367.443l-48.885 77.132 98.47 101.88-19.002-89.568z"/><path fill="#ff1f15" fill-opacity=".29" d="M367.781 391.745l-118.44-51.48-88.36 34.68 70.922 158.384z"/><path fill="#282a2f" fill-opacity=".859" d="M644.31 598.167l121.438 54.988-5.034 63.592-36.43 46.76z"/><path fill="#dfe0ec" fill-opacity=".765" d="M527.873 954.345l-132.714 46.54-24.861 55.997 240.116-214.95z"/><path fill="#221915" fill-opacity=".647" d="M325.915 296.64l-11.05 27.598 16.304 38.202 20.766 24.577z"/><path fill="#c7cad5" fill-opacity=".843" d="M653.704 466.432l-22.73-16.821-76.21 100.684 79.573-6.093z"/><path fill="#070002" fill-opacity=".243" d="M148.291 949.019l-73.667 43.756 142.42-103.476-106.774-64.717z"/><path fill="#ee3833" fill-opacity=".675" d="M419.719 425.27l-73.295-25.003-29.12 187.625 96.156 27.093z"/><path fill="#c19882" fill-opacity=".867" d="M698.295 906.952l-129.633 66.122 177.62-224.94-183.943 176.37z"/><path fill="#6981be" fill-opacity=".42" d="M731.173 510.026l27.057 11.87 25.118-18.73-15.905-54.52z"/><path fill="#f23c36" fill-opacity=".796" d="M322.274 836.231l-43.05-36.357-87.69 151.226 12.053 47.221z"/><path fill="#e6d3dd" fill-opacity=".647" d="M419.53 618.36l9.323 217.142-46.364 56.78-2.155 15.222z"/><path fill="#ebebf7" fill-opacity=".557" d="M526.306 320.314l22.482 74.172-128.92 29.703 13.645 283.618z"/><path fill="#1c2b37" fill-opacity=".396" d="M118.08 402.165L57.1 351.52l-115.472 29.034L93.677 507.468z"/><path fill="#606466" fill-opacity=".306" d="M345.633 596.332l291.829 55.494-332.627 2.475-33.627-97.262z"/><path fill="#090908" fill-opacity=".271" d="M488.158 966.873l-66.612 43.313 117.01 73.696 108.142-136.875z"/><path fill="#e0dfe9" fill-opacity=".8" d="M480.967 698.066l135.448-75.436-25.302 253.522-75.663-252.03z"/><path fill="#674c33" fill-opacity=".459" d="M475.021 153.254l-178.067 25.268 110.985 18.958 45.204-246.155z"/><path fill="#5c5446" fill-opacity=".263" d="M417.01 418.07l8.583-183.226L99.329 384.62 213.447 65.326z"/><path fill="#351800" fill-opacity=".255" d="M420.96 993.176l-127.78 4.458-47.69-34.592 194.761 5.08z"/><path fill="#f6f0f7" fill-opacity=".737" d="M791.17 802.224l-97.392 12.286 22.483-28.06 40.6-26.048z"/><path fill="#e2e6eb" fill-opacity=".631" d="M571.686 508.373l-78.352 68.625 45.245 19.743L551.88 462.8z"/><path fill="#311f23" fill-opacity=".596" d="M517.66 241.812l-30.6 150.775-135.312 48.425 163.234-68.577z"/><path fill="#e9e9f5" fill-opacity=".788" d="M519.321 617.43l-102.56-4.51 64.937-212.867 34.404 144.416z"/><path fill="#921114" fill-opacity=".431" d="M217.415 752.212l-22.697-207.053 78.77 265.004-103.954-62.513z"/><path fill="#6d746e" fill-opacity=".792" d="M44.963 778.586L73.648 462.88l28.41 6.408L-62 503.124z"/><path fill="#732900" fill-opacity=".235" d="M510.42 478.449l-8.011 58.312 69.3-53.842-25.674-20.854z"/><path fill="#f3fdf9" fill-opacity=".145" d="M768.166 1086L689.92 867.807l13.24 162.11L516.49 701.65z"/><path fill="#fe4638" fill-opacity=".51" d="M655.885 358.087l36.927 81.915 63.026 51.25-5.092-56.888z"/><path fill="#3b3429" fill-opacity=".82" d="M267.837 96.766l104.887-85.088L484.39 63.152l-134.742 42.162z"/><path fill="#9e9aa4" fill-opacity=".494" d="M212.213 537.1L170.28 662.346l-42.204 38.777 64.638-165.212z"/><path fill="#02211f" fill-opacity=".227" d="M492.655 602.846l47.556 25.32 8.698-43.913 4.299 75.35z"/><path fill="#fecfb3" fill-opacity=".263" d="M460.139 188.108l41.933 31.094-194.24 8.097-8.538-30.99z"/><path fill="#ededf8" fill-opacity=".824" d="M654.414 386.845l12.817 41.505-230.96-5.81 94.229-35.473z"/><path fill="#c14148" fill-opacity=".592" d="M285.002 327.65l-45.352 3.362 23.685-11.043 65.466-4.526z"/><path fill="#32302f" fill-opacity=".435" d="M424.241 947.16l150.029 72.012-239.717 43.133 185.498-96.422z"/><path fill="#0f131c" fill-opacity=".529" d="M385.988 403.73l23.189 17.568 58.953-9.662 18.404-15.313z"/><path fill="#ff2919" fill-opacity=".318" d="M869.204 624.268l-47.604-91.25-28.65-49.027-82.58 88.947z"/><path fill="#db2d27" fill-opacity=".702" d="M233.486 503.306l135.56 120.541 38.45-52.66-59.256-66.516z"/><path fill="#535855" fill-opacity=".553" d="M148.074 703.608l28.187 44.473 1.132-109.774 68.382-174.099z"/><path fill="#fffbfc" fill-opacity=".439" d="M343.352 315.696l-130.568 29.027 77.746-1.254-19.365 2.082z"/><path fill="#edeff7" fill-opacity=".569" d="M227.843 856.74L59.38 772.274l-14.966-74.222 63.237-64.457z"/><path fill="#f64d45" fill-opacity=".992" d="M229.02 356.825L426.773 474.35l-7.562 31.861-61.538-15.343z"/><path fill="#a19e9f" fill-opacity=".827" d="M639.152 525.591l-29.31 79.128-29.974-34.535 17.7-3.775z"/><path fill="#f2f1fe" fill-opacity=".247" d="M187.308 342.266l-31.81 38.047 210.244-99.77-43.196 4.263z"/><path fill="#e9e8f7" fill-opacity=".518" d="M652.932 927.77l-152.131 34.413-67.79-32.098-21.932-15.897z"/><path fill="#d6a78c" fill-opacity=".318" d="M419.6 1086L260.474 884.922l248.67-3.703-153.172 96.577z"/><path fill="#e4e4ef" fill-opacity=".918" d="M435.686 459.21l92.603 78.74-50.162 131.673 22.172 3.54z"/><path fill="#54534c" fill-opacity=".667" d="M203.682 168.005l147.203 24.582-73.848-49.543L224.908-62z"/><path fill="#5b4233" fill-opacity=".831" d="M523.958 985.06l181.146-8.854-177.434 92.006 147.953-103.63z"/><path fill="#5e5d54" fill-opacity=".486" d="M501.25 145.153L444.415-60.335 257.116 46.815l316.106-60.078z"/><path fill="#fa362e" fill-opacity=".361" d="M245.873 770.855l-9.397-207.233 84.82 89.147 96.788 65.992z"/><path fill="#fffafd" fill-opacity=".337" d="M384.786 884.91l-28.056 14.54 147.48-83.5-114.932-17.1z"/><path fill="#b58356" fill-opacity=".455" d="M465.591 393.34l38.15-74.767-49.16-48.147-91.701 125.219z"/><path fill="#e5e5ef" fill-opacity=".965" d="M622.244 866.153L492.826 967.456l-16.808-26.643 117.373-152.23z"/><path fill="#ffd2af" fill-opacity=".29" d="M298.958 106.434l20.988 60.143 38.893 6.11 64.805-6.66z"/><path fill="#d9d6e0" d="M398.549 790.015l39.054-171.731 56.95 125.3-105.068 96.536z"/><path fill="#f1f4fd" fill-opacity=".624" d="M64.186 582.453l-5.35 132.124 109.282-137.613 29.728-67.466z"/><path fill="#a71818" fill-opacity=".71" d="M245.897 794.479l-54.78-180.189 79.1-115.181-37.303 125.07z"/><path fill="#021d1b" fill-opacity=".259" d="M438.45 614.883l104.488 13.6-21.742 2.778-99.523-10.476z"/><path fill="#1f272a" fill-opacity=".29" d="M780.769 656.298L713.065 796.38l-69.983-160.132 44.3-60.456z"/><path fill="#de2d27" fill-opacity=".647" d="M143.313 921.868l81.326 89.27 69.266-134.001-39.575 31.729z"/><path fill="#92694e" fill-opacity=".439" d="M492.39 110.163l.956 58.064L365.727 55.36l40.663 88.713z"/><path fill="#414a50" fill-opacity=".553" d="M631.065 786.956L741.047 646.91l1.775-34.925-121.135 155.688z"/><path fill="#ecf3f9" fill-opacity=".427" d="M310.351 453.053l1.39 11.024 17.151 33.265-58.185-5.26z"/><path fill="#f6f7fc" fill-opacity=".51" d="M75.81 742.201l112.054 102.171 98.154-31.93-138.52-58.474z"/><path fill="#4e5750" fill-opacity=".627" d="M29.5 1049.873l122.966-66.84 2.915-103.893-8.703-43.59z"/><path fill="#bd9575" fill-opacity=".988" d="M701.087 787.069L649.42 973.825 633.59 820.16l42.416-84.42z"/><path fill="#eef3fc" fill-opacity=".494" d="M192.145 459.004l-.238-9.24-27.935-82.196-77.303 126.164z"/><path fill="#dda889" fill-opacity=".514" d="M706.407 858.66l.644-51.4-133.039 160.49 22.497 1.696z"/><path fill="#e3afbf" fill-opacity=".706" d="M677.8 385.238l-93.717-30.613-30.758-13.92-32.013-18.063z"/><path fill="#6a0006" fill-opacity=".2" d="M186.049 760.885l65.2 42.926 22.979-.819 97.003-39.094z"/></svg>