<svg xmlns="http://www.w3.org/2000/svg" width="228" height="278" viewBox="0 0 836 1024"><path fill="#344160" d="M0 0h836v1024H0z"/><g fill-opacity=".502"><path fill="#fff" d="M534 1086L174 366l532 300z"/><path d="M794 286L-62 78 898-62z"/><path fill="#1e0a00" d="M314 894l432-224 28 180z"/><path fill="#fff" d="M354 806l296-116-176-248z"/><path fill="#00000f" d="M-62 406l92 680 164-540z"/><path fill="#fff" d="M666 858l-180 228-64-160z"/><path fill="#1242a3" d="M118-62L-62 270l480 588z"/><path d="M554-62L290 342l608-220z"/><path fill="#00000b" d="M710 386l24 392-244-336z"/><path fill="#f1f6fa" d="M538 514l-336-48 84 136z"/><path fill="#050000" d="M446 1006L-62 842l92 244z"/><path fill="#170000" d="M890 1086l-224-16 28-356z"/><path fill="#3038b1" d="M174 562l724-264-332-60z"/><path fill="#24428d" d="M126 630l320-60-284 384z"/><path fill="#c8c292" d="M682 1002l-56-116 28-164z"/><path fill="#121606" d="M370 806l-36 280 184-260z"/><path fill="#966a43" d="M354 54l-56 288-68-248z"/><path fill="#000c52" d="M338 490l444 12-96-152z"/><path fill="#fff" d="M478 882l132-12-176 216z"/><path fill="#00306c" d="M230 462L-62 22l256-84z"/><path fill="#000700" d="M654 882l-24-84-144 36z"/><path fill="#3b30b5" d="M250 302L22 494l440-84z"/><path fill="#000e9b" d="M106 602L86 386-62 870z"/><path fill="#f9ffff" d="M554 522L390 630l52 208z"/><path fill="#69868f" d="M738 638l160 128-328-112z"/><path fill="#1440b2" d="M862 238L742 550l-68-312z"/><path fill="#000018" d="M554 350v220l260 76z"/><path fill="#ff996a" d="M450 374l68 56 24-44z"/><path d="M734-58l164 264-592-8z"/><path fill="#00000b" d="M82 518l116 16-208 388z"/><path fill="#00143f" d="M510 1074L234 782l36 240z"/><path fill="#191677" d="M474 574l-264 32 152 32z"/><path fill="#eeeaf1" d="M342 442l-140 32 32 44z"/><path fill="#251100" d="M642 846l32 224-64-88z"/><path fill="#003069" d="M862 306L758 570l-168-52z"/><path fill="#00060f" d="M770-62l-88 372L206 10z"/><path fill="#00196d" d="M614 186L222 398h176z"/><path fill="#ecffff" d="M554 878l52 104-188-16z"/><path fill="#023772" d="M382 598l-48 436-92-84z"/><path fill="#daeeef" d="M542 494H390l176 216z"/></g></svg>