<svg xmlns="http://www.w3.org/2000/svg" width="228" height="278" viewBox="0 0 836 1024"><path fill="#473d3b" d="M0 0h836v1024H0z"/><g fill-opacity=".502"><path fill="#d2d8c5" d="M174 1086l84-388-320 48z"/><path fill="#a2a388" d="M790 390l108 628-356 16z"/><path fill="#000008" d="M-14-14l548-48-548 608z"/><path fill="#f2ffff" d="M50 586l136-220-248 224z"/><path fill="#200000" d="M742 386L210 938l328 108z"/><path fill="#fffffc" d="M274 686l164-56 184 52z"/><path fill="#b0865b" d="M302 130l200-64 120 460z"/><path fill="#050001" d="M222 374l244 264-484 52z"/><path fill="#c9ffff" d="M458 402l-168-64 36-56z"/><path fill="#e1ffff" d="M898 654L726 374l52 192z"/><path fill="#c9ded0" d="M-18 1042l-4-228 192 272z"/><path fill="#001137" d="M878 558L446 2l452-12z"/><path fill="#100000" d="M842 654l-228 64-176-320z"/><path fill="#c9ffff" d="M698 346l-164-44 8 52z"/><path fill="#420000" d="M250 614l312 252-336 220z"/><path fill="#bfffff" d="M162 1086l276-96 160 96z"/><path fill="#b6e1cc" d="M514 410l64 76 68-96z"/><path fill="#1e0000" d="M774 502L630 346l-28 312z"/><path fill="#b39236" d="M418 498l136 36-120 156z"/><path fill="#ac9286" d="M566 974l104-292 92 404z"/><path fill="#390000" d="M174 394l308-52L54 546z"/><path fill="#c5ffff" d="M782 498L682 330l80 76z"/><path fill="#000d1a" d="M-62 154l364 180 48-224z"/><path fill="#160000" d="M650 690l-360 16 244 380z"/><path fill="#dce1d6" d="M442 670l144-32v56z"/><path fill="#2a0000" d="M570 370L62 534l276 84z"/><path fill="#395971" d="M234 542L-62 734l316-12z"/><path fill="#361a05" d="M550 222l-208 88 152 64z"/><path fill="#0c3352" d="M734 934l164 48-84-212z"/><path fill="#ffefe9" d="M506 386l-60 20-72-44z"/><path fill="#a0f7ff" d="M734 626l4-100 88 12z"/><path fill="#98eef8" d="M-62 614l152-24-56-92z"/><path fill="#c0eefd" d="M134 394L66 494l172-148z"/><path fill="#27416d" d="M266 314L70 274l24 156z"/><path fill="#a26b14" d="M898 478l-64 300-120-40z"/><path fill="#530b0f" d="M310 638l-104 372 256-8z"/><path fill="#a87148" d="M326 162l164-92-72 324z"/><path fill="#9ae3ff" d="M342 342l-88 12 96-88z"/><path fill="#ecede2" d="M318 670l52 24-4-60z"/><path fill="#1e0e01" d="M730 186l-64-92-276 76z"/></g></svg>