<svg xmlns="http://www.w3.org/2000/svg" width="228" height="278" viewBox="0 0 836 1024"><path fill="#7d4a28" d="M0 0h836v1024H0z"/><path fill="#d6d7e4" fill-opacity=".969" d="M622.096 987.393l106.094-56.857L792.468 1086 150.103 982.762z"/><path fill="#2b0005" fill-opacity=".839" d="M406.01 945.32l264.957-224.556 7.52 117.41-143.74 155.809z"/><path fill="#9b8418" d="M153.249 984.65l-13.87-429.487L294.683 723.97l-21.192 284.531z"/><path fill="#342f0d" fill-opacity=".639" d="M-62 15.472L649.958-62 898 638.133 528.635 163.548z"/><path fill="#9f1622" fill-opacity=".545" d="M659.261 690.537L17.8 405.713 511.722 248.43l159.77 90.219z"/><path fill="#ffacac" fill-opacity=".365" d="M667.001 340.134l32.623 370.488L342 719.134l456.882-91.185z"/><path fill="#bbc7ff" fill-opacity=".239" d="M504.972 720.685l-113.58-1.842-24.466-167.671 147.552-180.064z"/><path fill="#94000d" fill-opacity=".588" d="M275.56 609.839L514.431 815.28l-48.12 159.556-168.635-7.86z"/><path fill="#dddcf0" fill-opacity=".824" d="M284.227 973.906l68.346 2.334 419.456 28.493L294.375 1086z"/><path fill="#b3ff32" fill-opacity=".267" d="M754.385 538.563L898 824.483 798.905 1086l-91.178-206.837z"/><path fill="#9b6a4d" fill-opacity=".98" d="M385.585 278.289l-135.642-59.75 27.098-140.451 114.47-.011z"/><path fill="#470400" fill-opacity=".643" d="M271.55 527.593L102.659 621.78l10.4-148.296 59.288-66.476z"/><path fill="#ea0514" fill-opacity=".475" d="M712.36 800.512l9.812 140.511-199.979 60.36 5.468 3.404z"/><path fill="#771812" fill-opacity=".976" d="M713.688 526.089L511.485 689.432l-18.646-80.47-270.857 19.035z"/><path fill="#030711" fill-opacity=".624" d="M485.243 156.164l21.084-71.743L282.943-62l150.744 247.45z"/><path fill="#2c3708" fill-opacity=".486" d="M259.021-62H-62l16.286 330.635 144.46 5.692z"/><path fill="#8f8a02" fill-opacity=".525" d="M253.48 106.29l18.32 169.296L106.958 416.52l5.29-287.418z"/><path fill="#917703" fill-opacity=".592" d="M474.973 259.05l8.649-47.092 36.466-177.097 155.139 244.925z"/><path fill="#062e30" fill-opacity=".494" d="M58.005 1086l127.12-131.474 179.268 108.983-399.681-107.664z"/><path fill="#292103" fill-opacity=".796" d="M898 366.884L711.358 419.99l-42.995-76.518L898 294.078z"/><path fill="#3b0501" fill-opacity=".733" d="M647.89 657.169l-82.788-227.604 13.343-25.842 72.114 146.282z"/><path fill="#4c430b" fill-opacity=".765" d="M44.228 918.657L-62 785.016 8.563 112.23l32.26 541.253z"/><path fill="#f7e5fb" fill-opacity=".349" d="M482.213 599.117l-140.652 45.44 123.158-18.74 67.272 153.726z"/><path fill="#f0ebfc" fill-opacity=".573" d="M745.162 532.19l-13.067 79.045 40.96-15.244-15.955-66.928z"/><path fill="#b3b0e1" fill-opacity=".318" d="M324.84 598.973l-74.705-55.607 345.158-38.991-95.427-3.76z"/><path fill="#d8d2d4" fill-opacity=".788" d="M433.679 719.639l9.009-26.178-40.24-14.393 18.797-56.513z"/><path fill="#791418" fill-opacity=".788" d="M426.178 679.458l56.767-61.719L341.604 917.8l244.768-87.577z"/><path fill="#bd8167" fill-opacity=".631" d="M43.582 776.96l73.307 213.178 32.438-95.733-43.1-31.967z"/><path fill="#e90000" fill-opacity=".255" d="M468.593 239.43l167.028 57.36 88.164 248.814-271.968-161.37z"/><path fill="#dbdee4" fill-opacity=".525" d="M318.574 496.955l-.843 3.264-28.4-50.548-22.578 37.19z"/><path fill="#74581a" fill-opacity=".988" d="M876.74 361.12L660.254 179.05 770.638-62H898z"/><path fill="#ab9074" fill-opacity=".58" d="M48.674 616.536l71.956-239.077-18.379 132.808-62.368 199.467z"/><path fill="#3f1e0b" fill-opacity=".749" d="M430.314 262.18L326.279 366.379l-45.024 12.087-3.336-49.775z"/><path fill="#761d1c" fill-opacity=".902" d="M422.084 466.729l91.07 31.47-157.604 33.473-195.063 19.79z"/><path fill="#adcedc" fill-opacity=".498" d="M530.497 545.225l34.361-6.165 15.776.355-33.07-62.865z"/><path fill="#dc241e" fill-opacity=".447" d="M283.327 977.142l-1.567-142.33 155.994 51.66-16.826 82.064z"/><path fill="#f0de2f" fill-opacity=".337" d="M391.198 300.317l18.284 177.395-41.15-6.543 2.528-48.449z"/><path fill="#a76352" fill-opacity=".749" d="M618.28 757.18l175.605-160.69-311.539 117.63 93.68 74.422z"/><path fill="#e0761b" fill-opacity=".635" d="M753.35 504.451l-102.781 50.96-9.87-30.56 77.195-57.772z"/><path fill="#e8f0ff" fill-opacity=".416" d="M428.972 728.65l14.239-54.152-38.258 64.582-41.215-59.6z"/><path fill="#6f1921" fill-opacity=".702" d="M349.317 543.648l-4.267 173.836 62.105-174.223 40.728 132.876z"/><path fill="#ab9616" fill-opacity=".533" d="M214.98 989.33L107.912 646.851l152.076-19.703 42.298 180.41z"/><path fill="#121111" fill-opacity=".722" d="M230.255 66.956l166.79 8.103 115.623 122.309L356.616-1.309z"/><path fill="#f10816" fill-opacity=".267" d="M303.87 442.17L269.833 294.5l-129.546 71.427-40.644 81.75z"/><path fill="#6a4a20" fill-opacity=".514" d="M667.66 776.446L898 834.602 647.095 588.425l93.155-83.936z"/><path fill="#a1981d" fill-opacity=".667" d="M755.56 997.656l-69.735-219.008-1.284.533L898 864.984z"/><path fill="#110808" fill-opacity=".416" d="M721.809 783.396l-254.025 73.28-35.183 132.439 129.391-44.08z"/><path fill="#791813" fill-opacity=".89" d="M395.013 681.509l-95.79 140.09-12.034-78.982-41.378-189.238z"/><path fill="#ebecfc" fill-opacity=".725" d="M765.218 1051.674l-306.396-2.042 276.807-114.754 20.81 70.365z"/><path fill="#dbeea5" fill-opacity=".255" d="M491.15 542.47l45.614 49.208-81.208-163.724 40.808-76.908z"/><path fill="#c28e8a" fill-opacity=".184" d="M-62 361.489l321.261-75.438-158.16 177.867L70.05 222.81z"/><path fill="#ae7560" d="M96.454 812.456l34.472 172.42L270.688 1086 120.07 997.112z"/><path fill="#eff9fb" fill-opacity=".514" d="M442.987 646.268l30.278-46.105-54.033 51.076-44.951-37.58z"/><path fill="#dbe2d8" fill-opacity=".443" d="M642.16 692.865l-13.25 48.23-2.508-1.289-27.4-58.846z"/><path fill="#bc8b8d" fill-opacity=".78" d="M649.044 404.142l34.074 39.59-3.147 14.338-9.617-66.355z"/><path fill="#434733" fill-opacity=".765" d="M-57.712 1013.96l233.429 9.877 99.768-63.343L289.45 1086z"/><path fill="#80911c" fill-opacity=".592" d="M83.696 972.647l-24.702-70.463-33.437-27.575L-62 933.718z"/><path fill="#6a181b" fill-opacity=".808" d="M486.497 505.421l25.292 143.793-49.504-56.149 27.87-90.579z"/><path fill="#a50502" fill-opacity=".38" d="M513.457 680.405l40.248-135.58 115.76 205.802 24.614-92.708z"/><path fill="#1e1718" fill-opacity=".278" d="M527.833 221.197L762.52 67.522 756.775-62H733.09z"/><path fill="#fbfcfe" fill-opacity=".384" d="M474.56 594.223l24.93 89.612-39.694-14.3 28.41-37.551z"/><path fill="#a3637c" fill-opacity=".184" d="M898 42.983L687.822 240.579 617.894-14.926 531.361 142.28z"/><path fill="#6e6d61" fill-opacity=".91" d="M898 962.908L806.11 1086l-64.993-19.11 35.476-72.424z"/><path fill="#5d4b36" fill-opacity=".604" d="M119.762 390.013l-26.879 85.4-111.147 24.764 60.67-177.061z"/><path fill="#682223" fill-opacity=".973" d="M386.138 600.754l90.218-25.847-56.937 66.114-19.044-135.86z"/><path fill="#716019" fill-opacity=".624" d="M898 387.851l-48.52 511.111-72.762-260.096-82.425 105.902z"/><path fill="#011f00" fill-opacity=".161" d="M93.686 593.613l149.739 32.79 97.4 13.86L189.429 452z"/><path fill="#cefeff" fill-opacity=".208" d="M387.35 603.028l-48.466-83.798 132.84 102.07-85.16-108.02z"/><path fill="#6a7b75" fill-opacity=".365" d="M-62 65.084v72.173L45.841 151.53l44.882-51.35z"/><path fill="#ffe7b0" fill-opacity=".118" d="M287.792 303.975l182.696 32.143-246.036-167.64 179.565-1.626z"/><path fill="#594c00" fill-opacity=".404" d="M227.691 253.97L94.172 35.281l276.494 138.303-116.508-11.062z"/><path fill="#5f5000" fill-opacity=".561" d="M886.845 338.105l-247.352-30.657-108.907-46.746 135.674-78.354z"/><path fill="#ffe0fd" fill-opacity=".322" d="M367.417 684.57l4.309-68.652.74 6.408 32.063 2.264z"/><path fill="#d6c9c9" fill-opacity=".549" d="M273.214 86.537l27.011 10.585-26.813 33.409-6.974-7.324z"/><path fill="#6e0000" fill-opacity=".392" d="M489.456 501.965l106.57-124.364 26.318 91.234 185.478 7.08z"/><path fill="#eefdff" fill-opacity=".365" d="M397.35 665.757l100.108 38.604 7.804-55.885-20.57 71.514z"/><path fill="#efecfe" fill-opacity=".663" d="M454.93 1086h110.952l-207.98-118.06-54.473 15.525z"/><path fill="#9f644d" fill-opacity=".455" d="M43.489 848.307l40.883-335.84 11.663 144.534 12.052 325.01z"/><path fill="#e1e2fd" fill-opacity=".49" d="M336.475 536.476l-29.408 3.951 45.553 28.235-17.371 36.154z"/><path fill="#c5f5ff" fill-opacity=".333" d="M460.115 524.709l-54.877-1.874 31.215-9.18 43.787 70.067z"/><path fill="#170005" fill-opacity=".302" d="M130.627 265.521l-16.644-63.56-142.009-13.35L8.1 262.747z"/><path fill="#781d1f" fill-opacity=".843" d="M333.947 565.199l-3.83 30.15-33.17-39.622 18.403-5.933z"/><path fill="#4c5000" fill-opacity=".702" d="M137.123 763.94l-3.778 112.047-30.927-14.733 7.8-102.105z"/><path fill="#958910" fill-opacity=".549" d="M249.827 602.409L129.03 687.515l1.369 191.758 145.814-202.232z"/><path fill="#872020" fill-opacity=".984" d="M374.696 663.289l27.795-25.213-6.211 58.179-130.062-53.485z"/><path fill="#8e5732" fill-opacity=".804" d="M441.607 249.369L338.182 371.62l45.527 5.111 56.705-30.543z"/><path fill="#bee3f4" fill-opacity=".325" d="M468.873 580.35l-55.718-.676 42.714-12.517 10.395-61.442z"/><path fill="#6c5d02" fill-opacity=".667" d="M23.151 702.313L-62 862.49 40.564 492.66l46.794 3.359z"/><path fill="#5e0e0f" fill-opacity=".675" d="M430.039 589.394l-77.862 52.365 103.364-93.946-27.501-17.558z"/><path fill="#8a7300" fill-opacity=".663" d="M760.359 298.101l50.625 13.067 48.246-54.956-81.95-59.077z"/><path fill="#641417" fill-opacity=".831" d="M449 681.008l-22.626-21.139 25.849-12.954 26.225 45.848z"/><path fill="#791414" fill-opacity=".859" d="M500.133 618.316l55.196-216.969-39.364 206.002-92.357-175.069z"/><path fill="#e0bb2f" fill-opacity=".188" d="M557.938 286.983l-96.153-33.537 34.51-42.742 7.496-157.376z"/><path fill="#88563a" fill-opacity=".863" d="M267.855 174.616l124.477-89.759 18.478 95.288-45.113-22.725z"/><path fill="#2a0200" fill-opacity=".282" d="M288.392 326.17l-23.632 69.2 221.75-210.952-25.108 82.627z"/><path fill="#af9ea4" fill-opacity=".933" d="M531.177 553.547l15.45-52.98-2.215 53.12-20.169 4.006z"/><path fill="#623c23" d="M290.38 548.792l-2.652 47.255-79.78-93.707-52.836 87.617z"/><path fill="#7b1818" fill-opacity=".773" d="M632.291 778.045l-201.193 55.974 182.834-100.351L493.43 858.95z"/><path fill="#e0befa" fill-opacity=".235" d="M278.11 586.257l53.799-59.824-55.33 24.252 50.756 50.526z"/><path fill="#f4fdff" fill-opacity=".404" d="M436.977 692.269l-20.798-68.465-.555 2.596 4.44 102.506z"/><path fill="#fef33d" fill-opacity=".733" d="M391.995 406.774l10.022-2.678-3.742 52.52-5-33.504z"/><path fill="#c09d73" fill-opacity=".329" d="M457.396 370.32l77.789 71.418-17.872 26.497-67.222 5.569z"/><path fill="#6f1719" fill-opacity=".847" d="M431.838 652.26l34.466 78.774 38.622-18.021-31.857 166.008z"/><path fill="#ffe8fc" fill-opacity=".161" d="M40.747 729.557L51.87 606.09l66.677-151.623-65.191 186.919z"/><path fill="#b9bdd1" fill-opacity=".757" d="M428.897 979.589L502.822 1086l28.648-90.059 42.823-3.337z"/><path fill="#f0fdfc" fill-opacity=".424" d="M501.622 628.453l-53.41-22.722 40.28 34.868-28.883 46.388z"/><path fill="#a87606" fill-opacity=".408" d="M200.759 664.129L89.922 502.137l-57.644 32.267 201.19 80.827z"/><path fill="#eae3ff" fill-opacity=".247" d="M777.698 592.35l-5.078 34.054-55.775-97.94 39.026-2.74z"/><path fill="#57461d" fill-opacity=".388" d="M312.013 1004.901l-153.879-72.363-39.358 69.013L-62 962.454z"/><path fill="#ea2d2f" fill-opacity=".722" d="M389.84 1080.975l172.627-2.867-221.847-58.821-29.667 10.951z"/><path fill="#292f29" fill-opacity=".89" d="M146.483 1019.267L-62 954.75l29.175 109.543 273.904 14.622z"/><path fill="#921614" fill-opacity=".706" d="M463.723 326.874l-60.154 41.904-201.21 39.398 334.143-32.869z"/><path fill="#96820d" fill-opacity=".671" d="M133.022 359.824l2.738-212.697 22.652 4.57 50.48 161.766z"/><path fill="#4b0e12" fill-opacity=".475" d="M541.9 963.43l36.913 25.387-39.202 3.435-225.248-84.042z"/><path fill="#80241c" fill-opacity=".953" d="M390.563 518.678l-16.585-204.826 24.366 164.224 147.522 12.388z"/><path fill="#7d1a18" d="M426.426 776.729L264.628 546.253l132.53 273.388 178.605-124.83z"/><path fill="#2c0a07" fill-opacity=".467" d="M664.694 643.467l-69.68-229.289-26.732 1.199 74.445 221.431z"/><path fill="#1d140c" fill-opacity=".4" d="M-60.54 725.495l91.72 18.64L46.743 863.79l-102.666-22.937z"/><path fill="#f5fb45" fill-opacity=".345" d="M746.121 476.81l-3.793 30.68-27.41 5.098-73.904 43.776z"/><path fill="#593d1e" fill-opacity=".992" d="M267.234 113.797L143.71 102.074 399.68-21.371 256.23-39.887z"/></svg>