<svg xmlns="http://www.w3.org/2000/svg" width="228" height="278" viewBox="0 0 836 1024"><path fill="#727490" d="M0 0h836v1024H0z"/><g fill-opacity=".502"><path fill="#000039" d="M898 1058L454 246l-292 840z"/><path fill="#c9f5ff" d="M82 906l340-708L-62-62z"/><path fill="#ffb799" d="M718 930l180-460L538-62z"/><path fill="#000058" d="M574 1086l144-664-484 328z"/><path fill="#8bd6fa" d="M526-62l124 604 96-508z"/><path fill="#ff8e54" d="M774 930l124-616-220 16z"/><path fill="#b79477" d="M502 474L198 238 518 38z"/><path fill="#c7e6fa" d="M-62 798l372-108-48-232z"/><path fill="#212f16" d="M194 862L54 758l68 292z"/><path fill="#561000" d="M746 1086l152-288-200-12z"/><path fill="#212786" d="M410 330L262 438l148 536z"/><path fill="#2014b5" d="M466 354l140 168 12-232z"/><path fill="#95e8ff" d="M670 706l228 52-228 28z"/><path fill="#2c3439" d="M694 290l48-144 144 184z"/><path fill="#b4c7d3" d="M-62-50l260-8 304 492z"/><path fill="#2b1e01" d="M358 74L462-62l84 128z"/><path fill="#8bbdd2" d="M102 942l240-120-8 76z"/><path fill="#ff7243" d="M706 886l192-8-228-72z"/><path fill="#010619" d="M486 494l4 288 212-244z"/><path fill="#c2def3" d="M722 78L562 50l-28 276z"/><path fill="#5c5152" d="M458 342l228 12-440-248z"/><path fill="#a7beb5" d="M382 526l-116 68 224-36z"/><path fill="#fff" d="M-34 770l152-108 32 112z"/><path fill="#4334c1" d="M730 946l-56-132-152 180z"/><path fill="#4693da" d="M666 642l152 40 80-44z"/><path fill="#91bad6" d="M246 294l60 344-128 216z"/><path fill="#00181d" d="M714 882l184 56-148 148z"/><path fill="#ff9159" d="M898 630L718 310l-24 320z"/><path d="M30 786l68-8 32 36z"/><path fill="#a9e6f6" d="M102 930l-36 156-20-184z"/><path fill="#2948d0" d="M714 470L542 362l-60 116z"/><path fill="#3d3c21" d="M246 854l-308-4 200 76z"/><path fill="#000447" d="M334 798l16 288 152-64z"/><path fill="#ffe3d8" d="M326 182l160 204-160-92z"/><path fill="#7a919d" d="M306-62L202 254l116 124z"/><path fill="#6c97ae" d="M70 162l36 396-168 356z"/><path fill="#54310e" d="M302 338l96 48 20-60z"/><path fill="#ff7c4a" d="M670 726l-8-52 200 24z"/><path fill="#c69c84" d="M550 314L514 62 350 74z"/><path fill="#aecdea" d="M74 462l228-20L110-62z"/></g></svg>