<svg xmlns="http://www.w3.org/2000/svg" width="228" height="278" viewBox="0 0 836 1024"><path fill="#585c76" d="M0 0h836v1024H0z"/><g fill-opacity=".502"><path fill="#fff" d="M270 1086l-16-240 536 148z"/><path fill="#3a0000" d="M898 34L-34 402 10-62z"/><path fill="#fff" d="M486 202l412 284-476-36z"/><path fill="#0047f9" d="M174 222l136 692 380 4z"/><path fill="#f2f0ea" d="M310 90L70 470l16 544z"/><path fill="#070200" d="M570 414l328 212-100 460z"/><path fill="#f5faf2" d="M586 1050l-44-568 216 604z"/><path fill="#180907" d="M294 18l604 468-28-548z"/><path fill="#0044b5" d="M142 562l468 352-132-624z"/><path fill="#fff" d="M274 918l20-200-80-140z"/><path fill="#34020a" d="M-62-38l76 952L186-6z"/><path fill="#fff" d="M374 1086L258 918l468 8zm180-656L426 234l264 60z"/><path fill="#d27a53" d="M442 142l-244-40 96 280z"/><path fill="#fffff1" d="M42 1066l112-240-52-272z"/><path fill="#fff" d="M114 514L90 378l168-100z"/><path fill="#0577ee" d="M178 310l44 256 296-80z"/><path fill="#c1c2b0" d="M506 522l104-176 8 544z"/><path fill="#2c0000" d="M242 286L178 14 74 362z"/><path fill="#fff9ea" d="M250 354l100 56 124-32z"/><path fill="#0038af" d="M294 906l96-540 240 532z"/><path d="M718 718l-36 188-72-280z"/><path fill="#322d34" d="M442 226L686-62l188 408z"/><path fill="#0022b1" d="M642 510l112-164-4 80z"/><path fill="#34241b" d="M290 1086l-76-316-180 316z"/><path fill="#1a0000" d="M354 378l-80-116 124-20z"/><path fill="#000004" d="M866 834L722 986l104 100z"/><path fill="#fff" d="M250 646l-4 220 64 20z"/><path fill="#f1c7b8" d="M-22 1066l192-332-48 204z"/><path fill="#004fcf" d="M238 550l312 376-232-24z"/><path fill="#44454c" d="M-18 858l132-344-128-260z"/><path fill="#001665" d="M514 498l-116 76 164 240z"/><path fill="#002eb5" d="M270 286l-56 220-20-136z"/><path fill="#493f33" d="M130 554l124 296-40-300z"/><path fill="#fff" d="M242 726l-24-164 44 88z"/><path fill="#f6b2a4" d="M218 114l132-12-136 100z"/><path fill="#fff" d="M102 370l104 160-20-212z"/><path fill="#004ae6" d="M414 230l84 104-80 32z"/><path fill="#e5996d" d="M882 422l-180 68 196 112z"/><path fill="#fff" d="M622 278l108 104-92 52z"/></g></svg>