<svg xmlns="http://www.w3.org/2000/svg" width="228" height="278" viewBox="0 0 836 1024"><path fill="#897637" d="M0 0h836v1024H0z"/><path fill="#f8e644" fill-opacity=".725" d="M133.04 377.904l440.534-86.41 288.845 313.83-605.88 447.54z"/><path fill="#050009" fill-opacity=".918" d="M461.528 233.302L898 517.77V-24.045L417.978-38.86z"/><path fill="#281f04" fill-opacity=".808" d="M-62 322.675l267.916 35.356L373.825-36.49-62-62z"/><path fill="#2e201e" fill-opacity=".961" d="M321.125 1086l296.219-27.844 28.987-126.507-353.586 44.03z"/><path fill="#f0e883" fill-opacity=".984" d="M149.03 394.976l122.082 114.08 219.884-37.808-238.323-164.757z"/><path fill="#846b6c" fill-opacity=".996" d="M898 1017.424l-234.61 60.901-47.024-247.359 172.41-231.517z"/><path fill="#baa050" fill-opacity=".992" d="M60.567 467.857L244.503 578.11l48.337 341.375L15.853 544.351z"/><path fill="#fdffb5" fill-opacity=".624" d="M387.495 428.359l82.93-158.662 123.79 37.76 71.755 62.29z"/><path fill="#dad424" fill-opacity=".996" d="M577.806 889.27L259.444 441.277l13.222 499.305 81.185 40.257z"/><path fill="#150812" fill-opacity=".529" d="M767.896 222.687l-539.95-28.492L54.734 532.14 215.964 306z"/><path fill="#814cf3" fill-opacity=".251" d="M159.191 871.414L58.764 966.737-62 647.314 86.342 375.141z"/><path fill="#160f0f" fill-opacity=".769" d="M725.539 441.687l39.098 85.326L898 376.698l-284.107-56.197z"/><path fill="#ffd593" fill-opacity=".569" d="M659.462 863.472L442.14 732.965l191.937-26.655 61.34-95.975z"/><path fill="#ecca4b" fill-opacity=".529" d="M-10.315 832.116l294.196 86.98 387.098-30.375-526.208 99.823z"/><path fill="#9d1800" fill-opacity=".29" d="M698.346 545.49L592.131 431.206l-33.696 49.079 32.969 341.106z"/><path fill="#bb653a" fill-opacity=".945" d="M358.577 400.862L468.8 302.807l-149.433-36.925-57.546 34.28z"/><path fill="#161834" fill-opacity=".725" d="M-23.483 989.076l88.408-37.935 102.25 70.306-33.71 64.553z"/><path fill="#d5be10" fill-opacity=".776" d="M201.068 645.913l398.165-79.488-425.895-74.035-86.351 168.886z"/><path fill="#ffa9c2" fill-opacity=".318" d="M272.11 188.142l21.502-102.634 132.27-37.774 29.776 120.037z"/><path fill="#4c063c" fill-opacity=".357" d="M218.997 712.252l23.787-179.436 28.041 333.536-204.853-34.775z"/><path fill="#1a1c1c" fill-opacity=".984" d="M585.019 909.39l-82.793 136.957-284.328 20.9 279.739-144.395z"/><path fill="#010511" fill-opacity=".529" d="M412.369 60.941l-452.127 1.897L37.8-56.252 886.935 44.82z"/><path fill="#f8fe84" fill-opacity=".749" d="M124.668 606.96l-6.03 62.862 25.495 72.078 77.264-61.27z"/><path fill="#71680a" fill-opacity=".522" d="M419.154 14.383L321.48-25.205 202.214 221.183-62 128.658z"/><path fill="#f8ff53" fill-opacity=".482" d="M540.352 922.003l-59.601-3.324-93.953-331.838 187.668-16.089z"/><path fill="#251a01" fill-opacity=".451" d="M793.078 701.69L672.193 826.02 667.5 765.3l85.305-108.181z"/><path fill="#110915" fill-opacity=".486" d="M-62 599.313L94.743 662.54-62 781.196 8.705 442.825z"/><path fill="#831027" fill-opacity=".498" d="M776.922 174.168l-35.762 41.086L898 426.434V151.5z"/><path fill="#e8ba0a" fill-opacity=".729" d="M898 742.537V519.61l-116.278-5.52-.823 113.69z"/><path fill="#7a80bb" fill-opacity=".655" d="M747.736 987.974l-74.528-159.448 69.277-20.274 44.128 138.17z"/><path fill="#cacf11" fill-opacity=".698" d="M447.244 939.229L299.44 622.575l-45.848 233.24 131.15 133.48z"/><path fill="#f3ff6a" fill-opacity=".569" d="M741.725 519l-82.009 108.7 7.698 148.83 141.52-242.07z"/><path fill="#f4f3a1" fill-opacity=".918" d="M167.826 381.306l120.229-91.094 13.396 131.092-146.946-7.502z"/><path fill="#d1d500" fill-opacity=".58" d="M720.888 588.642l-53.143-176.727-116.642-39.125 4.784 103.088z"/><path fill="#e5e4bd" fill-opacity=".698" d="M672.616 380.583l5.798 27.677 21.114 41.717-177.081-181.632z"/><path fill="#070809" fill-opacity=".78" d="M542.504 279.724l58.639 41.679L898-62 368.69 263.091z"/><path fill="#a92128" fill-opacity=".639" d="M656.03 798.225l-171.107 274.172 90.79-51.304 33.17-164.994z"/><path fill="#926c02" fill-opacity=".627" d="M-62 368.474l130.898-63.277 96.983 71.59-36.238 72.455z"/><path fill="#9ca8a9" fill-opacity=".616" d="M164.086 549.975L53.684 459.356l21.815 182.821L151.2 429.012z"/><path fill="#4b351f" fill-opacity=".675" d="M369.436 345.165l30.292-230.947-60.196 15.279 119.423 81.71z"/><path fill="#c698c7" fill-opacity=".38" d="M266.826 878.715l28.353 116.839-70.103 50.197 15.891-149.135z"/><path fill="#eef89d" fill-opacity=".522" d="M351.258 973.514l55.053-2.967 150.568-91.705-111.317 45.893z"/><path fill="#f4742a" fill-opacity=".353" d="M161.63 584.692l401.48-57.619-46.906-38.059-130.843-21.438z"/><path fill="#d2ae00" fill-opacity=".714" d="M227.735 937.303l-92.87-47.473-23.567 68.083 53.335 51.146z"/><path fill="#140c0d" fill-opacity=".584" d="M67.752 266.705L-62 311.964l187.988-185.156 31.008 260.138z"/><path fill="#f3ed7c" fill-opacity=".498" d="M542.488 477.706l10.54-199.474-366.91 210 138.436 23.278z"/><path fill="#c569fb" fill-opacity=".204" d="M-22.104 880.924l127.287 47.287-12.559-189.624-63.268 7.443z"/><path fill="#c15d55" fill-opacity=".631" d="M446.824 428.81l-2.63-43.715 40.464 1.805-9.532 54.474z"/><path fill="#c6493c" fill-opacity=".992" d="M431.569 261.102l39.449 7.633-43.948 69.633-53.33 44.31z"/><path fill="#ad7b47" fill-opacity=".714" d="M367.347 298.93l-51.108 58.914-9.124-130.794-43.012-117.737z"/><path fill="#694f49" fill-opacity=".678" d="M138.67 414.615l-8.863 170.274-33.554-113.892L-62 450.998z"/><path fill="#ffc1b0" fill-opacity=".353" d="M457.403 149.812L315.448 76.528l126.199-20.341-105.06 166.598z"/><path fill="#fbb6a4" fill-opacity=".576" d="M599.094 805.994l-59.452 63.477 129.792-96.756-98.816-62.754z"/><path fill="#050a35" fill-opacity=".231" d="M680.167 569.772l-6.625 28.82-104.192-96.216 4.095-43.702z"/><path fill="#211915" fill-opacity=".647" d="M203.268 328.915l85.848-33.809 21.401-57.988-49.533-88.551z"/><path fill="#6075f5" fill-opacity=".212" d="M264.368 59.238l35.884-42.07 68.249-14.722 70.136 23.697z"/><path fill="#ebd83b" fill-opacity=".671" d="M589.89 803.443l-46.002 102.136 122.323 15.739-317.047-120.46z"/><path fill="#684b4e" fill-opacity=".518" d="M3.62 586.973l103.6 184.581 64.013 121.634 71.777-79.567z"/><path fill="#f7f4c1" fill-opacity=".561" d="M682.623 414.328L429.225 258.044l104.643 38.501 93.44 36.184z"/><path fill="#c3aa00" fill-opacity=".42" d="M390.888 903.53L172.86 627.935l128.63-71.9-191.927-154.15z"/><path fill="#e1ffbd" fill-opacity=".314" d="M142.802 425.332l18.07-45.168-1.672 204.31-32.568 28.766z"/><path fill="#000700" fill-opacity=".38" d="M367.313 265.854l.448 33.69 94.361-46.973-177.03-55.258z"/><path fill="#875a58" fill-opacity=".82" d="M834.764 666.3l46.912 234.235-121.423-49.476-46.51-95.128z"/><path fill="#f3f270" fill-opacity=".773" d="M555.413 590.13l38.066 167.69-53.242-77.249L420.08 827.172z"/><path fill="#e5732f" fill-opacity=".973" d="M573.232 683.608l30.046 51.93 21.845-21.601-25.104-195.395z"/><path fill="#080c06" fill-opacity=".78" d="M308.773 1086l96.297-108.396-51.958-2.88-53.878 20.612z"/><path fill="#96888a" fill-opacity=".533" d="M849.822 1086L898 888.181l-263.22 28.555 17.399 45.736z"/><path fill="#807003" fill-opacity=".42" d="M148.082 166.777L201.771 23.2l123.293 177.318 5.389-99.78z"/><path fill="#bf0000" fill-opacity=".133" d="M560.601 757.321l-3.544 118.687 140.35 71.427L640.78 792.53z"/><path fill="#f9ff74" fill-opacity=".373" d="M777.348 548.828l-150.632-78.5 128.169 1.036-48.45-44.828z"/><path fill="#dfe215" fill-opacity=".459" d="M391.387 844.763L248.075 637.948 435.48 521.582l67.624 180.088z"/><path fill="#bc7547" fill-opacity=".494" d="M355.397 1086l-202.43-195.697 119.304-74.891-93.75 181.533z"/><path fill="#f3c2b0" fill-opacity=".694" d="M259.167 715.112l-19.188 2.833-76.195-18.379 24.573-16.804z"/><path fill="#ff1234" fill-opacity=".576" d="M308.08 354.68l-25.367-56.834 87.152 82.08-51.6-20.28z"/><path fill="#6e4017" fill-opacity=".373" d="M795.109 564.547l40.109-227.632L898 539.933l-174.222-77.822z"/><path fill="#e2e51b" fill-opacity=".51" d="M521.445 580.065L541.8 636.55l40.572-86.753-33.998-194.419z"/><path fill="#ffe4f7" fill-opacity=".239" d="M417.135 142.869l33.088 1.738-2.024 66.597-20.391 26.942z"/><path fill="#1b1617" fill-opacity=".651" d="M299.91 1033.244l332.37-83.274-86.08-35.692-61.468 10.27z"/><path fill="#1f170f" fill-opacity=".463" d="M492.519 52.371l-108.737 97.19-28.02-41.145 72.683 30.519z"/><path fill="#f0f977" fill-opacity=".529" d="M381.235 551.417l-74.89-191.257L546.11 466.674l-298.797 3.748z"/><path fill="#d56a00" fill-opacity=".373" d="M442.445 491.668l91.551-9.167-9.116 77.646-86.706-17.34z"/><path fill="#c18460" fill-opacity=".631" d="M277.137 133.183l115.913 18.366-107.507 32.426-24.602-39.735z"/><path fill="#040509" fill-opacity=".549" d="M734.263 487.163l33.346 12.772L356.173-62l498.311 489.85z"/><path fill="#fb0033" fill-opacity=".294" d="M398.572 546.876l-21.226-95.483-5.212 117.241 26.698-26.36z"/><path fill="#e7ff00" fill-opacity=".247" d="M147.73 574.8l-74.944 54.052 130.797-1.297-7.199-263.776z"/><path fill="#06070a" d="M665.924 310.566l121.63-336.167-339.923 37.746 4.64 252.145z"/><path fill="#f8ff95" fill-opacity=".486" d="M412.896 773.375l51.336-45.386-67.506 36.737-29.835 64.28z"/><path fill="#f07a53" fill-opacity=".357" d="M339.698 526.758L231.04 458.883l69.945-45.86-75.398 125.122z"/><path fill="#72670d" fill-opacity=".51" d="M429.842 305.266l-94.104-51.172 33.317 100.24 28.446-13.89z"/><path fill="#f2ffc3" fill-opacity=".416" d="M446.473 932.682l58.118-11.759 75.721-17.18-39.193-11.508z"/><path fill="#0002ff" fill-opacity=".11" d="M784.616 843.67L741.272 935 636.483 721.974l84.931 89.54z"/><path fill="#130d05" fill-opacity=".761" d="M-21.475 89.551l239.893-45.47 325.98-96.23L-31.808-62z"/><path fill="#002848" fill-opacity=".224" d="M77.164 850.474L73.57 773.42l123.49 106.568 24.242-102.286z"/><path fill="#26002d" fill-opacity=".337" d="M250.391 607.403l-16.368-53.383-3.656 96.905 10.722 1.607z"/><path fill="#eac54d" fill-opacity=".996" d="M603.706 608.995L465.349 309.98l121.466 258.905 29.495 210.166z"/><path fill="#fddacb" fill-opacity=".4" d="M445.786 101.838l-5.021 23.289-1.232-48.678-94.027 38.057z"/><path fill="#202625" fill-opacity=".431" d="M305.626 31.289l148.28 9.429-107.56 27.855L237.9 169.827z"/><path fill="#ec7a8a" fill-opacity=".255" d="M134.499 797.672l-8.863-38.132 129.186-121.7-57.002 127.698z"/><path fill="#eff759" fill-opacity=".494" d="M168.66 386.414l172.51 170.068-133.163-85.851-67.807-14.462z"/><path fill="#bb9c00" fill-opacity=".631" d="M43.222 368.377l-60.914-40.258L-62 436.395l104.144-24.767z"/><path fill="#0d109d" fill-opacity=".173" d="M679.555 575.038l-34.569 108.828-26.615-17.057 71.282-131.945z"/><path fill="#4b3120" fill-opacity=".643" d="M207.464 313.288l-97.156 36.977 36.3 40.5 52.02-34.432z"/><path fill="#f7fb86" fill-opacity=".643" d="M481.166 846.04l103.8-121.972-43.71 68.432-121.82 72.849z"/><path fill="#948aa6" fill-opacity=".318" d="M81.453 461.893L-62 658.282v15.334L176.712 516.16z"/><path fill="#f7f8a6" fill-opacity=".525" d="M486.686 278.286l71.859 10.56L688.806 405.87l-170.815-41.423z"/><path fill="#9e6331" fill-opacity=".875" d="M264.046 840.941l13.95 91.874 1.292-41.517-49.176-284.633z"/><path fill="#523d00" fill-opacity=".549" d="M-4.811 103.1L-62 160.764 58.063 217.31 232.024 31.06z"/><path fill="#9d6f45" fill-opacity=".686" d="M306.593 116.579l86.346 118.487 57.185-27.56L349.62 221.08z"/><path fill="#616b80" fill-opacity=".584" d="M693.99 1024.548L562.595 1086l58.025-18.803 29.94-169.115z"/><path fill="#faffd1" fill-opacity=".204" d="M734.67 659.147L587.755 828.369l23.67-99.005 56.216-80.092z"/><path fill="#cc001a" fill-opacity=".302" d="M264.159 561.097l-28.118-82.18 18.845 16.598 28.478 86.031z"/><path fill="#faffd9" fill-opacity=".243" d="M757.342 505.361l25.498 60.655-9.515 32.941-76.82-185.214z"/><path fill="#e3e314" fill-opacity=".529" d="M611.02 380.749l-15.985-20.238-85.28 53.76 215.695 69.328z"/><path fill="#aac400" fill-opacity=".745" d="M282.538 920.756l97.165-.103-7.867 13.209-66.115 11.567z"/><path fill="#f0c700" fill-opacity=".49" d="M762.182 501.197l13.557 44.856 38.664 73.84L898 567.551z"/><path fill="#be6f11" fill-opacity=".792" d="M602.83 471.123l-36.803 146.488 43.94-47.538 4.01-45.69z"/><path fill="#d0ca06" fill-opacity=".788" d="M458.415 576.714l107.765-16.459-23 45.001-77.524-99.836z"/><path fill="#613047" fill-opacity=".353" d="M115.475 267.938L59.431 370.263l7.574 11.964-40.668-113.295z"/><path fill="#c6c002" fill-opacity=".765" d="M254.699 719.66l26.848 183.209 47.241-190.631 51.868-48.018z"/><path fill="#6b372d" fill-opacity=".624" d="M42.385 1031.514l-13.838-44.02 35.626-58.405L-62 1013.337z"/></svg>