<svg xmlns="http://www.w3.org/2000/svg" width="228" height="278" viewBox="0 0 836 1024"><path fill="#a37f8c" d="M0 0h836v1024H0z"/><g fill-opacity=".502"><path fill="#340000" d="M462 638L218 50 426-62z"/><path fill="#dcfcff" d="M690 386l-68 616 276-16z"/><path fill="#7d0000" d="M526 270l40 636 76-336z"/><path fill="#8ebcea" d="M782 394L898-50 414 210z"/><path fill="#a60000" d="M422 506l28 572 64-292z"/><path fill="#ec0004" d="M814 522l84-84-412-172z"/><path fill="#f8ffff" d="M326 534l64-156 36 412z"/><path fill="#e6ffff" d="M150 654l-20-236 208 456z"/><path fill="#7b0000" d="M278 238l4 400 96-328z"/><path fill="#ca0000" d="M398 862l-56 220-16-444z"/><path fill="#eff" d="M494 730l44-268-96-252z"/><path fill="#b40000" d="M210 646l20-308-92-32z"/><path fill="#c2d9ff" d="M586 578l56 440 256-264z"/><path fill="#faffff" d="M594 454l-12-124 248 220z"/><path fill="#9e0000" d="M594 742l56 344-88-104z"/><path fill="#f6ffff" d="M450 842l-76-160 24 404z"/><path fill="#d3f2ff" d="M570 1086l-36-544-56 276z"/><path fill="#894000" d="M82 926l100 156 16-452z"/><path fill="#fff" d="M178 1014l116 68 56-224z"/><path fill="#515e50" d="M46 554l268-444-376 284z"/><path fill="#9ea3e5" d="M86 1086L-62 810 90 410z"/><path fill="#e20000" d="M278 598l68 24-24-256z"/><path fill="#000700" d="M362-18l96 144-236-52z"/><path fill="#900" d="M502 734l-92-64 76 352z"/><path fill="#e10000" d="M570 322v232l-84-284z"/><path fill="#f30009" d="M398 310l12 300 68-52z"/><path fill="#353733" d="M6 118L134-62l-4 208z"/><path fill="#011d02" d="M246 274l164-52-52 184z"/><path fill="#ff0702" d="M162 714l-40-208-32 148z"/><path fill="#371115" d="M706 518l-164-40 4 156z"/><path fill="#efffff" d="M398 430l-44 228-20-268zm76-220l-64 148 76-28z"/><path fill="#e7f4ff" d="M270 626l4-292-56 92z"/><path fill="#a6b8d8" d="M790 430L478-62l-36 228z"/><path fill="#425682" d="M642 66L298-10l600-28z"/><path fill="#acabbb" d="M602 438l288 204-284 84z"/><path fill="#b4b5b9" d="M186 82l160 56-408 124z"/><path d="M718 1086l24-80-220 16z"/><path fill="#e4edff" d="M498 750l72 264-76 12z"/><path fill="#ff0f25" d="M118 414l108-88 64 60z"/></g></svg>