<svg xmlns="http://www.w3.org/2000/svg" width="228" height="278" viewBox="0 0 836 1024"><path fill="#d58a85" d="M0 0h836v1024H0z"/><path fill="#b10b0b" fill-opacity=".831" d="M87.543 434.156l634.005-22.39-15.516 586.204-528.32 88.03z"/><path fill="#feffff" fill-opacity=".945" d="M737.759 537.536l101.288 524.896 4.314-1100.908L436.564-62z"/><path fill="#feffff" fill-opacity=".969" d="M90.16 508.346L20.939 1086-62 .811l402.346-3.216z"/><path fill="#fff" fill-opacity=".969" d="M-62 505.267V.817l280.438-12.475 111 354.798zM482.82 334.54L601.117-47.49 898 463.973 513.728 354.76z"/><path fill="#fefefd" fill-opacity=".992" d="M774.032 421.052l-6.346 463.895L613.59 1079.23 898 1028.868z"/><path fill="#fcfcfb" fill-opacity=".969" d="M-62 1033.887V431.876L99.237 909.58l133.428 170.202z"/><path fill="#9e2f25" fill-opacity=".698" d="M476.25 339.427l245.994 618.536 56.496-326.87-70.863-210.978z"/><path fill="#130f00" fill-opacity=".71" d="M449.352 11.613l69.805 58.303-215.922-17.082L384.645 3.2z"/><path fill="#e3dbc7" fill-opacity=".725" d="M593.692 584.317l-62.346 18.576-40.343-96.798 108.179-.448z"/><path fill="#c10b11" fill-opacity=".898" d="M183.39 404.425l89.739-33.475 360.07 303.68-589.333 6.19z"/><path fill="#c8feee" fill-opacity=".498" d="M613.281 923.342l86.004-179.693 128.786-118.506-191.088 82.855z"/><path fill="#e3e6ec" fill-opacity=".282" d="M258.31 685.796l309.176-12.292-21.849 82.45-262.157 27.621z"/><path fill="#a65a32" fill-opacity=".882" d="M86.245 890.503l132.993 169.512-34.112-384.312L69.928 781.347z"/><path fill="#95532f" fill-opacity=".992" d="M760.233 710.365l3.257 166.69-88.807 122.97-34.503-275.49z"/><path fill="#b37d31" fill-opacity=".459" d="M484.56 356.693l35.382-294.016L272.9 51.884l65.834 320.812z"/><path fill="#f0edec" fill-opacity=".82" d="M-31.352 706.455l204.065 44.178 10.922-28.702-157.708-40.68z"/><path fill="#b40000" fill-opacity=".69" d="M179.11 914.144l14.13 121.83 465.43 3.857-82.453-333.55z"/><path fill="#b20007" fill-opacity=".733" d="M762.037 639.555L472.344 422.212l58.554-60.124 133.365 39.27z"/><path fill="#e2b8ab" fill-opacity=".976" d="M309.342 401.1l219.542-31.93-70.834 56.932-95.612 4.553z"/><path fill="#dabbbb" d="M88.584 535.849L44.679 656.153l49.97-35.194 5.346-67.377z"/><path fill="#8d0808" fill-opacity=".737" d="M58.81 682.403l-7.605-39.558 115.83-49.394 122.894 168.91z"/><path fill="#effbfe" fill-opacity=".604" d="M634.91 891.379l-13.879 1.79 9.958-182.412 28.875 134.13z"/><path fill="#8e0609" fill-opacity=".816" d="M544.612 728.596l191.981-251.47-78.258-84.168 111.108 259.104z"/><path fill="#1c1200" fill-opacity=".365" d="M443.598 9.501l83.97 229.985 2.101-54.076-36.022-155.58z"/><path fill="#f9f8fe" fill-opacity=".443" d="M643.004 716.412l196.124-26.786-143.793-212.78 74.592 168.577z"/><path fill="#d4e1dd" fill-opacity=".565" d="M246.758 585.082l38.356-29.86-1.428-21.394-43.672 6.981z"/><path fill="#4f2d0a" fill-opacity=".576" d="M596.232 928.816l63.676 143.078 2.148-346.782 33.53 86.319z"/><path fill="#3d1603" fill-opacity=".612" d="M421.507 337.17l49.009-31.973-123.112 11.398 53.312 18.803z"/><path fill="#eceffe" fill-opacity=".592" d="M197.318 770.113l4.172 116.94-.015-9.17-19.921-45.728z"/><path fill="#1a0d01" fill-opacity=".435" d="M499.95 39.372l-164.938-9.834-63.18 190.347 30.049-169.248z"/><path fill="#f7fefd" fill-opacity=".588" d="M486.496 292.934l8.006-69.592 80.645 60.122L498.05 394.95z"/><path fill="#ca0911" fill-opacity=".957" d="M150.605 480.291l418.209-79.822-59.535 11.216-4.837 217.027z"/><path fill="#fff" fill-opacity=".839" d="M862.93-5.025L508.21-62l6.431 211.151 361.015 170.082z"/><path fill="#fefefe" fill-opacity=".855" d="M67.09 737.29l7.615 47.109L21.742 1086 5.482 449.83z"/><path fill="#af040a" fill-opacity=".741" d="M695.82 420.402l47.352 71.151-143.49 173.543-33.952-46.242z"/><path fill="#de976c" fill-opacity=".882" d="M331.303 295.758L456.304 63.802 356.292 53.094l-80.14 153.653z"/><path fill="#a80000" fill-opacity=".361" d="M110.97 453.442l-32.132 92.4L294.74 952.585 201.07 384.89z"/><path fill="#310000" fill-opacity=".471" d="M675.642 533.297l-59.495 126.881 62.573 175.35-37.383-59.898z"/><path fill="#de8485" fill-opacity=".514" d="M363.415 952.938l-14.597-350.489L642.69 483.785 360.394 596.609z"/><path fill="#fefefe" fill-opacity=".925" d="M219.681-5.286L544.022-60.27 329.163 26.676-62 476.939z"/><path fill="#f6f7f4" fill-opacity=".702" d="M305.132 394.568L291.594 218.04l27.224 45.628 2.518 126.542z"/><path fill="#c70003" fill-opacity=".612" d="M364.772 755.508l-7.08-171.941 36.172 226.875-238.716 96.393z"/><path fill="#5b0f0a" fill-opacity=".494" d="M200.172 774.678l-76.805-229.127 90.337 69.067-73.88 279.223z"/><path fill="#e4f4fb" fill-opacity=".416" d="M579.378 525.32l-74.053 4.658.894-29.346 105.769 2.858z"/><path fill="#fdffff" fill-opacity=".443" d="M716.3 553.599l87.456 120.019-83.609 373.873L898 463.594z"/><path fill="#98070a" fill-opacity=".686" d="M646.08 563.07l122.406 42.904-4.348 49.547-92.891 30.462z"/><path fill="#c16767" fill-opacity=".714" d="M467.549 933.996L454.7 643.012l4.727 406.997 10.435-152.14z"/><path fill="#d09493" fill-opacity=".851" d="M520.99 735.601l-144.277 3.533 156.48-13.72-4.697 50.836z"/><path fill="#a90c0e" fill-opacity=".843" d="M338.536 464.042l-67.73-32.502-143.897.15 164.335-66z"/><path fill="#b5662c" fill-opacity=".435" d="M66.841 741.722L78.12 887.964 238.462 1086 91.23 720.915z"/><path fill="#190e09" fill-opacity=".455" d="M508.825 68.879l4.282 122.754-45.78-172.18-155.198 11.088z"/><path fill="#dc986e" fill-opacity=".776" d="M310.834 346.465l184.572-11.775-1.501 40.145-97.306 44.864z"/><path fill="#c3c1bc" fill-opacity=".451" d="M262.15 681.553l-8.459-148.145 1.518 200.681 15.655-7.481z"/><path fill="#834110" fill-opacity=".431" d="M213.848 907.799l-24.57 111.494-81.397-91.432 61.868-113.895z"/><path fill="#c97e7b" fill-opacity=".435" d="M452.137 447.79l2.324 249.891 9.318-69.78-4.961-239.217z"/><path fill="#a60707" fill-opacity=".761" d="M620.702 841.267l2.028 192.221-152.07-3.425 168.92-372.966z"/><path fill="#d3010e" fill-opacity=".773" d="M389.704 442.872l58.082 150.175-45.6 133.928-41.56-111.433z"/><path fill="#ccfdf9" fill-opacity=".2" d="M555.622 714.733l-.982-41.04-134.465 10.963-16.522 34.248z"/><path fill="#f0fafc" fill-opacity=".467" d="M366.712 431.64l100.221-7.53-156.586-23.377-32.523-82.531z"/><path fill="#fefefe" fill-opacity=".812" d="M301.19 10.64L-19.02 465.199l319.873-103.281-50.66-30.794z"/><path fill="#c8575b" fill-opacity=".506" d="M365.75 969.374l-1.64-169.835-1.665-222.676-7.086 323.131z"/><path fill="#c6918d" fill-opacity=".667" d="M256.91 629.706l-.77-73.674 6.06-130.773 5.576-19.945z"/><path fill="#f0fbfd" fill-opacity=".176" d="M293.749 657.237l122.596 104.376 140.67-2.36-167.363 13.878z"/><path fill="#bc605f" fill-opacity=".714" d="M269.955 857.975l1.007 182.051 7.275 45.974-.74-347.253z"/><path fill="#f4f7f6" fill-opacity=".729" d="M560.01 85.417L366.419-58.318 542.91-62 493.47 62.817z"/><path fill="#be0001" fill-opacity=".867" d="M275.36 781.042l81.741 26.118-130.848-67.77-9.197 346.61z"/><path fill="#f1efee" fill-opacity=".557" d="M637.695 695.553l41.984 26.851 42.515-22.561L898 655.359z"/><path fill="#eeeffe" fill-opacity=".471" d="M546.888 593.273l35.025-11.953-75.245-26.947 12.945 29.357z"/><path fill="#be0709" fill-opacity=".965" d="M360.307 777.032l-38.561-54.645 21.781-16.947-24.197 304.81z"/><path fill="#fcfefe" fill-opacity=".698" d="M631.831 778.527L642.611 760l6.73 97.993-28.367 38.907z"/><path fill="#be0004" fill-opacity=".486" d="M466.952 415.107l218.083-8.99 45.027 53.592-240.857 46.612z"/><path fill="#fffefe" fill-opacity=".886" d="M780.928 666.447l-42.651-166.743-45.535-147.351 204.342-103.694z"/><path fill="#a7653d" fill-opacity=".753" d="M765.298 847.843l-91.661 64.037 52.024-206.906 41.044 6.264z"/><path fill="#b00000" fill-opacity=".549" d="M509.257 728.626l61.926-12.057-121.447-.917-66.562 11.26z"/><path fill="#d7fff8" fill-opacity=".388" d="M359.69 829.818l-5.847-105.095 7.356-199.3-7.2-100.575z"/><path fill="#0e0006" fill-opacity=".161" d="M398.337 153.59l-75.01 17.03-22.701-125.693-15.487 60.732z"/><path fill="#f3fdfd" fill-opacity=".286" d="M108.267 573.142l-16.581 63.204-149.523-24.924L69.151 490.445z"/><path fill="#b7fff9" fill-opacity=".22" d="M349.94 740.526l-19.56 43.721-9.078-31.522-76.919-34.479z"/><path fill="#e3e9eb" fill-opacity=".49" d="M431.35 426.136l72.044-27.515 17.558-51.251-112.73 83.116z"/><path fill="#cf0d18" fill-opacity=".467" d="M109.084 460.137l168.398-3.515-203.709 95.379 8.5 30.895z"/><path fill="#cf030d" fill-opacity=".976" d="M448.506 452.831l6.385 80.167-14.292 178.524-80.432-216.608z"/><path fill="#7d390c" fill-opacity=".643" d="M668.269 911.943l12.867-118.28L602.016 1086l131.772-166.574z"/><path fill="#ac5757" d="M551.742 424.123l.963 119.281 8.505 35.051-26.572-211.357z"/><path fill="#f7f8ff" fill-opacity=".373" d="M198.706 765.135l-5.493 45.698 14.634 60.146-28.017-32.575z"/><path fill="#bc7b78" fill-opacity=".404" d="M690.292 454.469L898 368.337l-219.937 91.094 66.62 300.514z"/><path fill="#fefefe" fill-opacity=".882" d="M896.693 564.261L685.76 411.303l-128.522-53.491-27.067-201.151z"/><path fill="#c99090" fill-opacity=".451" d="M155.14 443.142l34.412 116.228-24.234-102.964 6.272-83.222z"/><path fill="#cc0811" fill-opacity=".812" d="M482.383 698.098l32.776 8.267-43.581-109.693 150.14-4.412z"/><path fill="#d1020c" fill-opacity=".835" d="M262.106 601.807l88.744-171.822 3.501 277.301-39.111-34.546z"/><path fill="#d3989a" fill-opacity=".659" d="M253.128 697.319l72.148-29.558-33.653 34.697-9.726-4.3z"/><path fill="#b10d0d" fill-opacity=".529" d="M230.5 736.378l-32.479-77.107L299.45 765.588l103-7.234z"/><path fill="#97fef7" fill-opacity=".133" d="M559.812 602.337L549.224 1086l-5.476-305.34 1.198-41.156z"/><path fill="#310a05" fill-opacity=".557" d="M663.548 753.158l-3.227 77.762-22.476-114.72 21.819 19.883z"/><path fill="#581500" fill-opacity=".439" d="M173.946 881.02l-28.305-62.292 26.327-51.454 27.93-39.904z"/><path fill="#d7fef8" fill-opacity=".322" d="M313.05 785.722l42.05-67.853 1.443-319.996.207 346.797z"/><path fill="#c90105" fill-opacity=".718" d="M182.485 407.146l-12.738 13.669 87.505 167.232-50.098 164.384z"/><path fill="#ae0000" fill-opacity=".694" d="M543 711.76l13.98 5.202 78.762-290.437-54.082 543.489z"/><path fill="#e7f1ed" fill-opacity=".753" d="M685.651-12.141L438.585-62h-93.724l74.3 72.514z"/><path fill="#df9a72" fill-opacity=".976" d="M404.3 296.618l-39.062 3.489-92.567-96.65 7.161-54.972z"/><path fill="#ac633b" fill-opacity=".482" d="M513.915 226.989l16.237-69.084-168.028 12.786 118.003-62.698z"/><path fill="#fefefe" fill-opacity=".682" d="M301.638 230.584l21.002 77.942L155.6 419.962-62 543.265z"/><path fill="#e4fefc" fill-opacity=".235" d="M473.421 680.468l32.196 86.698-54.226 1.15 57.07-33.592z"/><path fill="#1c0800" fill-opacity=".196" d="M432.096 348.454l68.682-86.042L382.9 328.846l78.022 10.12z"/><path fill="#bb0001" fill-opacity=".788" d="M462.93 1086l16.925-365.518-23.86-15.605 95.98 148.569z"/><path fill="#c10409" fill-opacity=".914" d="M435.471 1031.162l-75.002-373.32 2.504 170.338 91.111-50.507z"/><path fill="#101e18" fill-opacity=".278" d="M360.5 16.25l-49.152 21.798-23.476 50.735L424.822-12.13z"/><path fill="#b60004" fill-opacity=".639" d="M521.191 363.666l-41.11 62.45 135.569-34.429 15.962 196.836z"/><path fill="#aa4c4a" fill-opacity=".592" d="M117.661 530.013L85.45 572.477l11.454 12.062 8.105 110.652z"/><path fill="#fdffff" fill-opacity=".478" d="M841.156 184.585l29.339 409.543-130.271-1.547-9.597-3.881z"/><path fill="#daa7a5" fill-opacity=".412" d="M629.56 246.806l10.316 172.587-12.359 100.868 12.466 45.417z"/><path fill="#f2f2f0" fill-opacity=".467" d="M5.372 668.249l-6.284 38.92 182.664 38.114 8.487-17.3z"/><path fill="#c28382" d="M292.049 697.952l1.828 75.553 9.088-35.148 40.636 15.79z"/><path fill="#ffc092" fill-opacity=".388" d="M382.457 165.567l-66.28-104.228-5.71 51.892 123.64 7.09z"/><path fill="#fff" fill-opacity=".792" d="M105.592 938.23L1.282 686.83-62 1068.36 257.262 1086z"/><path fill="#be6835" fill-opacity=".878" d="M79.975 729.433l-2.346 102.115 85.905 84.934-36.447-160.4z"/><path fill="#c8fef9" fill-opacity=".267" d="M356.758 704.053l7.78 381.947 1.943-11.654-2.283-266.827z"/><path fill="#b96d3b" fill-opacity=".443" d="M303.226 52.042L486.83 93.303l35.709 157.188-60.844-195.195z"/><path fill="#e5ffff" fill-opacity=".227" d="M402.815 720.466l14.66-37.01 57.97 31.472 30.824-40.897z"/><path fill="#938a95" fill-opacity=".894" d="M749.378 542.61l-25.814 7.149-5.03-24.695 20.788-19.686z"/></svg>