<svg xmlns="http://www.w3.org/2000/svg" width="228" height="278" viewBox="0 0 836 1024"><path fill="#50493c" d="M0 0h836v1024H0z"/><path fill="#f8cb6d" fill-opacity=".741" d="M898 19.117l-81.939 289.917-275.478-13.195L603.578-62z"/><path fill="#04080e" fill-opacity=".6" d="M711.538 311.347l31.745 768.105L318.891 1086 149.337 321.609z"/><path fill="#cdfeb7" fill-opacity=".263" d="M-62 691.365L26.834 1086l304.554-173.88-133.48-285.358z"/><path fill="#e7abba" fill-opacity=".333" d="M408.29 236.835l-206.831-2.19L-62 670.918 183.938-62z"/><path fill="#7f7e70" fill-opacity=".69" d="M633.057 821.17L851.47 1086l-16.255-967.4-86.689 684.289z"/><path fill="#fae859" fill-opacity=".49" d="M478.31 523.92l-47.233 32.759-53.946-44.817 51.803-90.907z"/><path fill="#201a15" fill-opacity=".984" d="M355.74-15.892l113.065 91.868-7.09 116.453L244.95 63.921z"/><path fill="#f5e903" fill-opacity=".765" d="M782.333-62H587.1l50.301 226.07 61.088-1.667z"/><path fill="#e2e8f5" fill-opacity=".42" d="M457.343 652.882l19.423 22.486-183.05 6.362-5.815-37.857z"/><path fill="#ffac8c" fill-opacity=".427" d="M314.236 342.371L253.94 237.812l16.284-132.266 104.515 16.87z"/><path fill="#d2d9e7" fill-opacity=".525" d="M663.883 648.24l7.436 23.922 7.628 96.044-57.69-135.652z"/><path fill="#a180ad" fill-opacity=".463" d="M873.21 266.264L556.997 105.469l-21.853 186.182 65.608 29.025z"/><path fill="#151822" fill-opacity=".784" d="M36.913 648.871l147.7-18.507-29.32-130.146-91.946-37.572z"/><path fill="#c7beff" fill-opacity=".345" d="M217.06 625.95L-62 735.026l222.21-9.44 57.11 36.67z"/><path fill="#ff4580" fill-opacity=".404" d="M898 287.888L782.944 124.56l-61.367 49.606 31.127 234.271z"/><path fill="#c5cde3" fill-opacity=".49" d="M773.25 621.847l2.912 7.573L898 712.779l-128.648 47.623z"/><path fill="#000001" fill-opacity=".596" d="M497.551 451.933l148.55-89.039-22.802 452.708-206.05 64.737z"/><path fill="#2c3032" fill-opacity=".671" d="M417.238-62L230.098 65.16l139.346 690.395L162.32 206.702z"/><path fill="#e8ce6d" fill-opacity=".627" d="M389.368 2.647l72.4 49.955 32.113-23.836L518.77-62z"/><path fill="#131414" fill-opacity=".953" d="M198.88 547.978l48.1 267.984 499.767-14.988L279.123 667.1z"/><path fill="#010000" fill-opacity=".404" d="M166.857 75.03L48.413 173.116 15.329 66.643 173.399-62z"/><path fill="#241b10" fill-opacity=".322" d="M433.708 124.142l-257.471 76.306 470.857-36.01-535.436 538.831z"/><path fill="#18191b" fill-opacity=".863" d="M703.584 478.833L743.551 1086h-99.63L774.11 700.493z"/><path fill="#98494e" fill-opacity=".984" d="M-10.466 814.158L-62 415.038l88.74-4.313 31.058 16.701z"/><path fill="#6e7a50" fill-opacity=".749" d="M329.795 850.7L-62 896.837 250.383 1086l48.701-381.892z"/><path fill="#7a7da1" fill-opacity=".353" d="M112.164 191.175L188.843 508.6 74.678 441.299-9.564 156.007z"/><path fill="#4e5465" fill-opacity=".8" d="M646.933 404.777l105.884 169.268 119.496 124.128-30.189-285.196z"/><path fill="#dbd754" fill-opacity=".592" d="M216.51 492.118l47.038 10.235-15.385-50.67-28.605 38.705z"/><path fill="#fca797" fill-opacity=".596" d="M723.886 813.843l-32.259-8.512-55.917 24.789 50.533 26.886z"/><path fill="#85878b" fill-opacity=".78" d="M364.553 638.08l-26.272-32.493-26.517 5.022-1.928-78.258z"/><path fill="#e3fbf4" fill-opacity=".243" d="M898 227.729l-303.933 65.18-67.417-34.999 14.04-45.864z"/><path fill="#e5d223" fill-opacity=".988" d="M898 296.826V-27.54L574.582 18.58l214.534 1.426z"/><path fill="#817668" fill-opacity=".643" d="M600.28 129.34l78.085 76.932-152.23 27.402 56.459-274.44z"/><path fill="#fdbda5" fill-opacity=".608" d="M321.812 166.12l-69.707-.982 9.083-62.54 71.704 8.67z"/><path fill="#9f6147" fill-opacity=".557" d="M403.432 146.867l47.866 17.43-86.841 200.57 41.119-32.559z"/><path fill="#920001" fill-opacity=".294" d="M723.094 415.133l-55.777-130.395 174.604 10.396-22.245 108.728z"/><path fill="#110f11" fill-opacity=".545" d="M246.458 43.206l149.839 125.707L557.485-46.323 551.053 91.83z"/><path fill="#979d9f" fill-opacity=".365" d="M68.943 344.91L220.106-62l406.72 28.353-353.642 53.862z"/><path fill="#070908" fill-opacity=".804" d="M269.53 520.592l292.784 175.835 144.825-146.74-310.48-2.467z"/><path fill="#000107" fill-opacity=".502" d="M251.519 982.958L289.844 1086l313.9-76.369-165.319-59.26z"/><path fill="#1a1718" fill-opacity=".961" d="M449.475 308.064L730.157 408.45 424.361 245.468l-11.294 107.94z"/><path fill="#898c92" fill-opacity=".761" d="M468.161 675.18l-125.844 1.727 28.092-27.424 79.82-6.473z"/><path fill="#000313" fill-opacity=".208" d="M606.012 837.69L13.934 786.96l127.437-76.756 14.624 41.733z"/><path fill="#ff8a7f" fill-opacity=".38" d="M331.111 802.274l-88.977 26.432-7.675 58.321 61.425-39.325z"/><path fill="#e3e3ec" fill-opacity=".302" d="M207.388 619.38l-55.884 88.201 80.577 40.339-11.366-57.707z"/><path fill="#a2983b" fill-opacity=".757" d="M384.84 467.69l69.556-14.23 23.083 45.02-84.6 37.616z"/><path fill="#040013" fill-opacity=".569" d="M40.188 398.69l-1.734-70.475-96.159-.923.707 90.71z"/><path fill="#fd9700" fill-opacity=".255" d="M37.765 154.408l3.419 67.092L-62 285.967-33.797-62z"/><path fill="#e8efff" fill-opacity=".2" d="M616.82 692.352l-49.649 9.755 93.009-51.116 33.55 63.75z"/><path fill="#39363a" fill-opacity=".78" d="M223.533 242.757l76.903-7.38-154.909 147.165-41.99-15.731z"/><path fill="#ffc3a5" fill-opacity=".318" d="M362.988 240.963l-74.2 107.962 62.325-167.42-113.899 41.06z"/><path fill="#c4000d" fill-opacity=".486" d="M-39.674 369.046L56.14 472.744l-8.792 45.158L-62 531.642z"/><path fill="#131516" fill-opacity=".988" d="M432.321 624.696l-18.446 53.597-38.282-199.259-117.673 3.345z"/><path fill="#fe9ba5" fill-opacity=".529" d="M699.332 159.718L898 222.81l-56.364-40.453-79.834 132.118z"/><path fill="#070501" fill-opacity=".412" d="M416.745 206.723L201.383 513.67l-42.208-114.976 209.12-19.758z"/><path fill="#ffec00" fill-opacity=".302" d="M673.966 211.157l65.361-95.577-104.68-148.459-33.084 175.864z"/><path fill="#1d1713" fill-opacity=".58" d="M789.181 1063.913L730.456 939.92l17.064-237.574L647.804 1086z"/><path fill="#777881" fill-opacity=".6" d="M141.461 749.436L-62 757.358l79.645-242.33L44.543 706.33z"/><path fill="#68774e" fill-opacity=".961" d="M794.052 1086L898 773.04l-131.517-4.299-41.276 133.49z"/><path fill="#e4d794" fill-opacity=".416" d="M807.53 29.478L693.066 25.69l70.308 86.73 65.474-30.815z"/><path fill="#0d0e10" fill-opacity=".584" d="M641.386 679.07l8.852 152.405-269.298-167.75-94.975 282.302z"/><path fill="#b7a495" fill-opacity=".29" d="M157.612 329.872l-80.675-91.989 17.782-89.945 103.38 150.582z"/><path fill="#ebf4ff" fill-opacity=".114" d="M288.14 546.168l1.97 213.635 41.658-237.012 78.58 166.526z"/><path fill="#050808" fill-opacity=".702" d="M306.961 636.619L204.056 622.51l.758-148.04 67.69 89.167z"/><path fill="#777388" fill-opacity=".306" d="M887.634 162.885L773.32 116.57 898 473.689 716.988 602.356z"/><path fill="#211200" fill-opacity=".369" d="M232.176 166.48l81.618 30.325 47.05-26.488L184.92 165.9z"/><path fill="#171d29" fill-opacity=".584" d="M820.394 547.477l-13.564 64.93L898 711.74V553.31z"/><path fill="#4f3b39" fill-opacity=".682" d="M237.92 894.142l36.16-50.651 119.225 70.91 186.675-28.95z"/><path fill="#2c1c0e" fill-opacity=".557" d="M364.87 285.005l-99.009 68.364 140.154-52.709L390.482-6.73z"/><path fill="#2d80fd" fill-opacity=".106" d="M150.318 378.785l-130.88-18.406 183.623 298.07-7.154-167.219z"/><path fill="#fdb59a" fill-opacity=".486" d="M411.871 221.975l-12.446-18.678 48.957-33.412 3.41-4.697z"/><path fill="#130e19" fill-opacity=".302" d="M193.432 471.01L19.959 560.47l23.622-105.856L151.99 689.056z"/><path fill="#96695a" fill-opacity=".992" d="M709.702 896.918l-4.225-8.475-23.357-11.449-6.761 18.266z"/><path fill="#f4898d" fill-opacity=".31" d="M119.37-62L-62 14.416 50.313 45.92l16.51-70.398z"/><path fill="#e8aa92" fill-opacity=".455" d="M376.508 168.64l-57.634 93.312-50.69-101.509-11.259 79.207z"/><path fill="#201c15" fill-opacity=".749" d="M260.128 38.847l-21.54 19.395 35.492 46.366L345.853 2.443z"/><path fill="#323036" fill-opacity=".788" d="M99.286 342.801l215.172 61.793-53.288-141.331 68.572 4.8z"/><path fill="#3d3e45" fill-opacity=".486" d="M515.284 767.4l-147.592-75.355 42.731 31.55 190.739 14.01z"/><path fill="#78924a" fill-opacity=".686" d="M162.981 945.358L-62 908.292l30.439-147.296 118.376 45.286z"/><path fill="#202c47" fill-opacity=".255" d="M303.453 460.434l293.575-14.1-23.126-154.339-14.054-40.139z"/><path fill="#f4b9aa" fill-opacity=".263" d="M243.266 278.193l15.018-29.654 36.688 77.902 68.065-43.024z"/><path fill="#f7b080" fill-opacity=".278" d="M416.149 328.09l-1.43-31.83 5.548-25.327-51.972 79.13z"/><path fill="#101111" fill-opacity=".784" d="M305.66 793.305l-69.786 22.323-16.221-299.067 9.493 1.73z"/><path fill="#787b7f" fill-opacity=".671" d="M274.81 662.209l8.923-33.696-19.25 1.762 69.909 22.997z"/><path fill="#151413" fill-opacity=".745" d="M71.567 106.705L168.907-62l-84.8 44.112-55.008 144.855z"/><path fill="#050605" fill-opacity=".816" d="M372.805 638.95l107.02 7.946 117.203-140.123L367.112 571.7z"/><path fill="#f9b2a2" fill-opacity=".447" d="M671.429 850.232l-33.003-1.151 13.26-23.938 74.909-22.51z"/><path fill="#668d9a" fill-opacity=".243" d="M85.434 133.832l122.157 57.034 43.257-125.437-145.587 4.89z"/><path fill="#ff1d0d" fill-opacity=".243" d="M825.33 279.703l-58.715-3.984-40.686 108.22 61.05-17.646z"/><path fill="#020a03" fill-opacity=".196" d="M488.033 366.93l197.936 4.653 48.165 368.828-11.196-464.265z"/><path fill="#000412" fill-opacity=".361" d="M543.185-23.004l-97.437 207.041-31.21-164.45 127.48 129.133z"/><path fill="#d2b876" fill-opacity=".137" d="M520.015-48.551l-83.878 304.516 61.24 28.84-27.606-60.874z"/><path fill="#aaafb7" fill-opacity=".392" d="M626.813 667.317l6.461-47.464 48.385 70.68-10.391 40.383z"/><path fill="#585d74" fill-opacity=".329" d="M199.728 568.418l16.084 55.573-142.62 2.406 81.068 142.328z"/><path fill="#615621" fill-opacity=".565" d="M680.07 560.019l-2.286-87.281-45.004 21.238 39.344 58.234z"/><path fill="#7f7651" fill-opacity=".592" d="M175.434 1086l108.805-134.783-5.61-70.278 58.182-31.7z"/><path fill="#c9c565" fill-opacity=".314" d="M606.967-62l38.121 223.92-65.747-108.502-36.727 12.98z"/><path fill="#bf930e" fill-opacity=".173" d="M686.213 305.121l-49.41 25.103L715.09 23.369 772.769-62z"/><path fill="#7ed0f4" fill-opacity=".18" d="M591.207 184.941l-52.874 54.006 40.761 80.435 62.325-19.435z"/><path fill="#040706" fill-opacity=".529" d="M388.164 896.348l-70.51-191.052 320.118 89.756-149.86 85.516z"/><path fill="#040504" fill-opacity=".878" d="M436.814 1006.736L461.6 950.84l58.28 120.582 87.202-112.028z"/><path fill="#a6644c" fill-opacity=".447" d="M327.615 164.99L316.04 97.597l35.321 14.625 34.723 92.103z"/><path fill="#aaadb5" fill-opacity=".463" d="M898 608.463v185.94l-126.585-63.87-7.21-30.759z"/><path fill="#7a8d53" fill-opacity=".678" d="M747.209 958.802l48.063-238.346-75.02 124.818 14.01-2.194z"/><path fill="#f5f6fd" fill-opacity=".259" d="M300.417 630.326l16.777-6.877-11.234-65.314 35.523 1.21z"/><path fill="#1a0d05" fill-opacity=".549" d="M452.582 186.948l-54.838 45.74 58.51 12.152-51.014 138.668z"/><path fill="#11141a" fill-opacity=".455" d="M325.383 399.056l-60.888-4.282 3.885 177.14 138.042-65.604z"/><path fill="#667151" fill-opacity=".965" d="M-1.545 1086l285.968-117.592-265.637-27.935L-62 1030.388z"/><path fill="#1c1a19" fill-opacity=".647" d="M458.983 526.661l34.944-104.31 249.729-98.745-289.533 176.692z"/><path fill="#1e1f23" fill-opacity=".827" d="M443.697 995.628L274.112 962.19l-28.128 111.84 171.035-31.01z"/><path fill="#5b230c" fill-opacity=".161" d="M45.277 168.601l292.33 2.506L98.404 220.1-13.162 380.76z"/><path fill="#a9758b" fill-opacity=".322" d="M778.667 315.585L711.193 203.73l-63.57-40.384 73.209 169.573z"/><path fill="#060707" fill-opacity=".745" d="M535.453 697.682l-88.825-25.669-84.221 21.513 161.237 51.875z"/><path fill="#cbcdfc" fill-opacity=".161" d="M96.876 750.45l-52.035-9.835-11.49-29.845 54.698-83.453z"/><path fill="#4f5f37" fill-opacity=".31" d="M133.258 909.205L-9.074 654.674-62 797.562l246.138-7.125z"/><path fill="#eef0fd" fill-opacity=".306" d="M317.595 675.176l35.923-1.996-3.974 20.626-27.351-47.431z"/><path fill="#292a33" fill-opacity=".525" d="M633.296 954.553l-320.503 2.113 199.74-87.037 182.165-10.28z"/><path fill="#121414" fill-opacity=".965" d="M368.359 612.064l-28.989 64.164-15.469-44.274 436.604-17.233z"/><path fill="#090764" fill-opacity=".118" d="M521.023 193.246l122.181 12.646-29.641-27.171-98.495-239.294z"/><path fill="#23252d" fill-opacity=".631" d="M666.379 770.52l59.485-208.188L774.2 679.034 624.83 855.541z"/></svg>