<svg xmlns="http://www.w3.org/2000/svg" width="228" height="278" viewBox="0 0 836 1024"><path fill="#6d5a51" d="M0 0h836v1024H0z"/><g fill-opacity=".502"><path d="M706 1086L-62 874l812-148z"/><path fill="#bec4c1" d="M294-10L-62 334l960-8z"/><path d="M470 698l168-20-28-296z"/><path fill="#fff" d="M618 610l148-24-24 168z"/><path fill="#e3d2c6" d="M578 742l-208 28 48-252z"/><path fill="#afcfd9" d="M522 218l376-68v292z"/><path fill="#6b3018" d="M398 266l100 372 72-700z"/><path fill="#e8b100" d="M250 830L54 774l196-148z"/><path fill="#171c15" d="M202 326l-264 56 460 236z"/><path fill="#0a353c" d="M2 674l280 316-280 92z"/><path fill="#0d0000" d="M358 790l300 296 28-340z"/><path d="M590 398L462 682l176 4z"/><path fill="#ffa55b" d="M770 838l28 248 100-232z"/><path fill="#6b1428" d="M262 178L22 126 242-62z"/><path fill="#f6cd95" d="M250 494L10 662l236-84z"/><path fill="#a5bdc5" d="M414 306l-476 16V82z"/><path fill="#ffcfd2" d="M318 530l-8-120 108 72z"/><path fill="#ffd8a8" d="M626 738l-172-28 340-52z"/><path fill="#d1bcc8" d="M518 258l188 236-84-232z"/><path fill="#be9600" d="M242 502L118 602l-180-92z"/><path fill="#000d13" d="M738 518l-80-160 92-24z"/><path fill="#621628" d="M342 34l556 136L682-62z"/><path fill="#fae5c5" d="M498 422l68-12-8 104z"/><path fill="#200000" d="M266 1050l372-320 92 296z"/><path fill="#8c2835" d="M378 746l-160 340 264-196z"/><path fill="#720415" d="M630 598L526 286l216 296z"/><path fill="#cff9f7" d="M446 550l-80 28 120 88z"/><path fill="#c6ced7" d="M350 250l-4-312H226z"/><path fill="#364c57" d="M326 946l-176 44 252-512z"/><path fill="#dbe1ec" d="M22 106l-84 68L30-62z"/><path fill="#6b000b" d="M430 406l-80 188 148-112z"/><path fill="#2e2902" d="M146 606L-46 762l364-160z"/><path fill="#fff" d="M734 586l-104 40 128 20z"/><path fill="#bf9617" d="M754 606l144-68-188-36z"/><path fill="#dbdce9" d="M898 30l-108 8-56-100z"/><path fill="#ac8951" d="M814 750l-232-8 160-104z"/><path fill="#30585f" d="M698 782l32 220 168-416z"/><path fill="#040000" d="M466 622l176 48-56-212z"/><path fill="#ad7c5e" d="M362 478V42l156 28z"/><path fill="#d4f0eb" d="M386 634l56 60 60-52z"/></g></svg>