<svg xmlns="http://www.w3.org/2000/svg" width="228" height="278" viewBox="0 0 836 1024"><path fill="#96988c" d="M0 0h836v1024H0z"/><path fill="#d1d0d3" fill-opacity=".773" d="M217.951 391.45l455.453-1.073 179.192 659.19-455.793-341.724z"/><path fill="#26412a" fill-opacity=".753" d="M833.52-62L-62 21.988l360.103 87.348 547.4-41.864z"/><path fill="#010001" fill-opacity=".808" d="M506.271 931.977L334.073 760.443l128.9-4.983 114.622 95.24z"/><path fill="#ffeff2" fill-opacity=".545" d="M499.568 917.953L176.53 638.231 78.1 984.013l691.01 51.82z"/><path fill="#0a0201" fill-opacity=".635" d="M274.236 675.59L167.072 491.657l60.266-72.26L386.172 688.12z"/><path fill="#004124" fill-opacity=".298" d="M898 235.392l-384.887 40.531 284.952 489.414L898 664.407z"/><path fill="#013428" fill-opacity=".373" d="M-62 312.167l160.257-25.36 64.515 470.386L-62 722.872z"/><path fill="#842700" fill-opacity=".467" d="M274.654-62L433.922 83.06l-40.228 319.684-98.536-24.712z"/><path fill="#e8e7ea" fill-opacity=".855" d="M747.77 608.94L619.544 809.922 498.066 944.505l254.368-37.597z"/><path fill="#646a66" fill-opacity=".722" d="M379.146 690.06l364.277-63.69-96.027 56.551-250.643 50.676z"/><path fill="#d2d3d2" fill-opacity=".929" d="M153.194 664.618l276.16 354.112-178.786-380.952L136.46 454.436z"/><path fill="#030303" fill-opacity=".525" d="M740.75 928.497l-105.35-10.45-82.728 87.917 198.843-73.004z"/><path fill="#e8efcd" fill-opacity=".455" d="M415.6 76.186l415.765 15.309L898 161.076l-434.476-.118z"/><path fill="#4c4023" fill-opacity=".631" d="M137.318 1024.147L-62 998.946l94.496-177.102 37.406 110.912z"/><path fill="#fdfdff" fill-opacity=".604" d="M271.134 549.667l207.091-192.614 74.765 19.004 70.47 72.22z"/><path fill="#ffdab2" fill-opacity=".435" d="M288.26 177.65L-62 145.577l53.094-48.36 382.563-4.496z"/><path fill="#aeb5b3" fill-opacity=".984" d="M758.623 634.346L654.67 389.154l33.36 77.414-343.58 220.908z"/><path fill="#55462a" fill-opacity=".439" d="M262.36 1047.897L487.14 1086 314.38 983.09l-46.263-222.484z"/><path fill="#f8f4f5" fill-opacity=".627" d="M180.354 457.34l-51.297 95.474 8.885-111.82 179.557-108.26z"/><path fill="#e8e8ea" fill-opacity=".89" d="M738.313 1041.271l-14.97-85.432-54.951 9.513-190.159 102.072z"/><path fill="#dfd1d2" fill-opacity=".8" d="M55.603 888.541l38.45-94.635 99.918-92.023L265.137 1086z"/><path fill="#374c3b" fill-opacity=".722" d="M149.666-62L-62 30.214l96.174 49.078 439.577-2.82z"/><path fill="#fafbff" fill-opacity=".612" d="M340.735 764.883l132.644-31.295-207.373 3.385 78.323 272.1z"/><path fill="#554c4d" fill-opacity=".729" d="M226.17 653.343L94.992 759.318l-115.326-62.622 274.996-3.773z"/><path fill="#e0c8cd" fill-opacity=".902" d="M898 1064.37L703.601 852.163 898 691.515l-86.476 188.392z"/><path fill="#6e896d" fill-opacity=".855" d="M-33.352 167.78l308.95 150.028L-62 604.116l267.81-442.738z"/><path fill="#452001" fill-opacity=".569" d="M222.672 199.407l136.67 27.354-17.978-59.33-15.892-12.143z"/><path fill="#232525" fill-opacity=".78" d="M478.05 1064.47l240.348-3.855-396.027-39.419 174.122-8.278z"/><path fill="#fff1f2" fill-opacity=".545" d="M413.915 714.58l9.78-209.594L215.06 376.424l66.588 139.448z"/><path fill="#c17b6e" fill-opacity=".741" d="M233.267 561.152l144.054-12.743 19.729-19.63-168.573 3.874z"/><path fill="#e8bbab" fill-opacity=".996" d="M518.065 926.93l-61.785 23.629L537.394 1086l71.538-157.846z"/><path fill="#717377" fill-opacity=".851" d="M514.966 334.745L336.901 477.012l100.427-117.85 1.86-66.556z"/><path fill="#dfb99a" fill-opacity=".573" d="M407.14 323.777l-42.59-130.852 282.815 199.723-201.72-112.367z"/><path fill="#5a637b" fill-opacity=".863" d="M652.54 605.807l111.83-76.759-35.894-11.255-82.38 48.484z"/><path fill="#180704" fill-opacity=".565" d="M228.104 79.327l168.57-65.88 42.082 109.311-100.924-33.54z"/><path fill="#848e83" fill-opacity=".651" d="M436.635 480.292l207.008 256.234-67.886-207.795-102.03 74.734z"/><path fill="#f9f9fe" fill-opacity=".565" d="M609.729 650.703l52.358-218.019 50.982 95.112-68.237 26.573z"/><path fill="#101010" fill-opacity=".737" d="M437.502 747.685l124.847 118.16-64.352 62.245L370.58 804.505z"/><path fill="#e0a985" fill-opacity=".804" d="M269.469 194.762l45.837 40.495-107.762-22.608 96.354 176.6z"/><path fill="#535a69" fill-opacity=".882" d="M746.877 608.376L767.11 781.89l117.271-169.382-197.137 25.876z"/><path fill="#bbc1be" fill-opacity=".671" d="M458.678 757.276L699.183 605.05 584.434 708.818l-14.167 144.628z"/><path fill="#23211f" fill-opacity=".871" d="M229.975 422.832l-4.057 96.294-58.537-5.349 12.716-64.62z"/><path fill="#ebeded" fill-opacity=".714" d="M305.838 972.533l-31.461-240.819L458.119 998.68l-79.44 19.304z"/><path fill="#b9bdb9" fill-opacity=".988" d="M384.336 670.233l-217.248 29.07 79.853 7.414 228.46-34.316z"/><path fill="#edf1f3" fill-opacity=".537" d="M733.618 556.504l-124.324 74.423 37.705 25.72 72.91-37.639z"/><path fill="#16001b" fill-opacity=".306" d="M491.113 339.76l111.644 56.073 59.614 121.433-80.497-119.345z"/><path fill="#bfddc4" fill-opacity=".271" d="M-37.474 127.592l230.2 50.817 45.788-162.745L459.417-20.2z"/><path fill="#1b1a19" fill-opacity=".596" d="M385.829 673.32l-58.125-73.006-56.993-106.84 9.455 186.206z"/><path fill="#d6b2b6" fill-opacity=".647" d="M36.787 743.767l167.482 166.895L-5.993 810.9l-40.27-70.203z"/><path fill="#597b5b" fill-opacity=".612" d="M465.36 260.903L898 265.657l-139.85 339.24-141.524-273.886z"/><path fill="#ececeb" fill-opacity=".957" d="M195.352 1069.848l-33.728-262.59 10.33-171.294L225.484 1086z"/><path fill="#1e2324" fill-opacity=".612" d="M673.46 964.512l60.885-65.863 2.966 36.977-135.635 9.553z"/><path fill="#06372d" fill-opacity=".137" d="M255.73 723.607L217.303 1086l-1.988-337.942-64.802-90.419z"/><path fill="#d6d8d6" fill-opacity=".675" d="M346.691 409.494l119.742-87.422-82.926 95.996-41.407 25.933z"/><path fill="#e8e3fc" fill-opacity=".294" d="M607.292 362.79l-72.816-43.916 42.9 61.412 158.283 149.632z"/><path fill="#685000" fill-opacity=".212" d="M243.966 152.675l480.59 25.452-278.428 36.766L101.01 182.34z"/><path fill="#323002" fill-opacity=".298" d="M269.648 690.337l-5.118 10.577 145.156-13.726-102.927 59.638z"/><path fill="#eeedee" fill-opacity=".882" d="M202.023 410.803l58.846-49.118 58.32 222.2 31.8-122.64z"/><path fill="#000503" fill-opacity=".286" d="M537.032 676.765l90.412 12.848 127.85-64.5-236.828 75.389z"/><path fill="#ee8754" fill-opacity=".416" d="M349.704 160.416l60.572 209.538L364.911 78.57l-166.185 96.452z"/><path fill="#e4e9eb" fill-opacity=".545" d="M662.621 942.983l40.741-9.725 63.924-219.048L647.1 679.9z"/><path fill="#707070" fill-opacity=".525" d="M273.79 385.698l15.82 36.477 51.23 22.395 50.15 23.618z"/><path fill="#d8d9d9" fill-opacity=".918" d="M404.053 702.893l-13.073 49.269-114.57-9.407 163.592-2.346z"/><path fill="#e2e3e4" fill-opacity=".98" d="M342.563 770.075l25.6 36.44-42.767 195.38-3.274-309.412z"/><path fill="#0a0f0a" fill-opacity=".537" d="M505.359 695.671l1.513 12.155-39.771-.918-3.01-23.532z"/><path fill="#444667" fill-opacity=".553" d="M-62 690.02l29.75-82.815 170.963 23.716L167.4 732.214z"/><path fill="#2e0000" fill-opacity=".557" d="M269.728 311.52l57.807-9.817-28.798-14.666-12.832 5.672z"/><path fill="#010802" fill-opacity=".337" d="M670.475 965.992L594.79 992.11l1.894-19.39 53.777-80.693z"/><path fill="#afb6b1" d="M630.382 768.925l-90.359-166.088-29.444 115.32-20.211-103.384z"/><path fill="#2c5c45" fill-opacity=".537" d="M898 85.938L755.63-62 340.29 30.124 706.717 82.61z"/><path fill="#988e5e" fill-opacity=".6" d="M-62 1005.504l149.292-.5-34.575-104.407L228.29 1086z"/><path fill="#4f473a" fill-opacity=".753" d="M41.63 834.49l16.488 146.684-83.128-7.4L-62 861.813z"/><path fill="#2d2f30" fill-opacity=".314" d="M363.03 460.603l-73.518-51.694 72.34 30.031 142.04-125.867z"/><path fill="#dce0e1" fill-opacity=".525" d="M574.644 601.23L563.22 377.135l-98.317-26.634-34.222 42.414z"/><path fill="#b2ac7b" fill-opacity=".675" d="M263.53 516.23l-16.375 3.98-28.86 46.55 46.403-20.547z"/><path fill="#002500" fill-opacity=".094" d="M617.64 673.814L497.012 560.976l-87.866-10.184 184.996-67.443z"/><path fill="#ff021b" fill-opacity=".455" d="M377.333 530.96l-48.195 2.607 15.448 20.11 48.09-7.523z"/><path fill="#322618" fill-opacity=".353" d="M439.855 350.796l15.134-68.925-96.462-193.243L413.6 3.585z"/><path fill="#f7f9f7" fill-opacity=".443" d="M424.64 517.007l46.927 234.868-101.892-291.247 181.194-89.65z"/><path fill="#d3d5d3" fill-opacity=".71" d="M146.392 688.389l21.83-212.845-38.132 53.965 108.726 141.829z"/><path fill="#f6f8fc" fill-opacity=".565" d="M693.098 666.72l-91.2 289.155-75.886-43.493 74.788-65.916z"/><path fill="#e4e5e8" fill-opacity=".753" d="M395.208 752.076l-24.112-18.703-7.928-45.918 6.769-1.54z"/><path fill="#5b3d15" fill-opacity=".275" d="M343.155 410.011l-34.58-46.898L71.29 416.71l355.116-99.51z"/><path fill="#67866a" fill-opacity=".706" d="M-62 270.81l314.592 35.966-110.577 139.942L-52.33 664.627z"/><path fill="#00080a" fill-opacity=".302" d="M196.906 696.665l95.245-43.325-89.422 30.256-69.013-24.73z"/><path fill="#8ea277" fill-opacity=".569" d="M403.479 218.11l37.552 62.282L898 256.352 715.08 152.74z"/><path fill="#02040b" fill-opacity=".478" d="M541.855 363.227l-97.718-13.286 26.76-1.661-26.447-15.8z"/><path fill="#97a686" fill-opacity=".741" d="M-62 292.75l3.754-80.155 295.288.978-36.528 76.378z"/><path fill="#040402" fill-opacity=".369" d="M565.85 701.783l-43.018-8.156 3.056-54.345 29.093 56.227z"/><path fill="#febda2" fill-opacity=".443" d="M266.042 179.224l50.859 83.003-73.52-21.048 48.114 203.893z"/><path fill="#361c13" fill-opacity=".596" d="M262.662 106.366l139.854-85.79-128.222 16.858-48.389 55.073z"/><path fill="#817969" fill-opacity=".463" d="M867.282 1010.941l-173.368-55.98 32.248-17.084L740.995 1086z"/><path fill="#ffcaba" fill-opacity=".396" d="M287.306 123.365L200.694 82.1l28.742-46.637-10.077 142.389z"/><path fill="#05000f" fill-opacity=".247" d="M450.858 480.13l16.943 7.024-8.22 80.03-6.517-2.657z"/><path fill="#ddc8cb" fill-opacity=".694" d="M755.288 1052.975l15.64-85.08L898 923.286l-157.639-27.49z"/><path fill="#cdcfcb" fill-opacity=".965" d="M611.178 558.996l13.18 110.063 51.197-22.564-30.05-71.384z"/><path fill="#010017" fill-opacity=".369" d="M543.47 328.144l-83.478-7.638 104.076 37.784-67.513-35.971z"/><path fill="#3d495b" fill-opacity=".31" d="M835.538 762.472L734.022 606.39 563.493 735.099 862.84 557.583z"/><path fill="#7c7e82" fill-opacity=".831" d="M585.04 355.699l33.61 46.832-13.742-34.526 67.372 134.622z"/><path fill="#b8969b" fill-opacity=".573" d="M897.138 713.822L738.392 830.2l-21.624-12.132 79.101-73.97z"/><path fill="#cfd3d2" fill-opacity=".992" d="M391.35 565.699l184.705 110.579-75.414-73.744 3.069 8.267z"/><path fill="#f5f7f7" fill-opacity=".573" d="M130.667 522.958l91.706-133.736-83.821 53.524 20.805 166.981z"/><path fill="#010600" fill-opacity=".318" d="M399.252 660.14l32.462 51.569 22.875 7.124-27.295 13.682z"/><path fill="#fa9661" fill-opacity=".263" d="M432.548 355.508l2.753-261.43-75.958 287.421-35.04-136.705z"/><path fill="#3b0b02" fill-opacity=".188" d="M173.606 920.549l-36.572-32 6.44.467 17.001-69.85z"/><path fill="#7a987d" fill-opacity=".435" d="M873.535 101.454L677.93 68.024l-265.333 8.822 129.478 18.348z"/><path fill="#5f5d5d" fill-opacity=".62" d="M455.876 487.208l52.467 18.639-.08 18.645-26.409-39.075z"/><path fill="#1e243d" fill-opacity=".314" d="M734.603 1058.045l4.545-173.073-17.6 83.875 37.666 71.921z"/><path fill="#000517" fill-opacity=".38" d="M191.32 408.925l74.719-55.627-58.315 33.814-39.951 28.711z"/><path fill="#262829" fill-opacity=".647" d="M404.05 1023.304l89.638-14.035L389.26 1086l-66.815-83.395z"/><path fill="#e2e2e3" fill-opacity=".761" d="M530.317 370.877l48.624 114.612-122.294 15.107 17.603 52.966z"/><path fill="#3a5c48" fill-opacity=".925" d="M-62 77.935l276.484-5.863L247.442-62h-304.04z"/><path fill="#131113" fill-opacity=".435" d="M259.182 651.786L176.15 491.822l188.97 251.046-9.507-40.836z"/><path fill="#ecedf1" fill-opacity=".376" d="M751.283 613.934L672.844 677.5l-37.663 117.654 127.43-2.077z"/><path fill="#812c1e" fill-opacity=".125" d="M174.693 695.542l-22.48 82.132L30.04 879.44l33.19-202.157z"/><path fill="#d0816a" fill-opacity=".498" d="M489.339 981.064l-36.652 14.74 40.763-46.083L579.025 1086z"/><path fill="#e6e7e7" fill-opacity=".914" d="M285.21 700.242l15.46 115.315-58.872-183.874 14.496 124.893z"/><path fill="#c8c8b4" fill-opacity=".863" d="M444.468 112.093l-20.921 37.12 386.43-1.246 74.425-30.32z"/><path fill="#e2e5e9" fill-opacity=".549" d="M583.972 768.648l-103.746-7.104 74.206 39.176-80.396-105.024z"/><path fill="#e2e6e6" fill-opacity=".573" d="M417.253 520.286l-82.836 84.64 74.645 46.058 30.458 76.234z"/></svg>