<svg xmlns="http://www.w3.org/2000/svg" width="228" height="278" viewBox="0 0 836 1024"><path fill="#694f49" d="M0 0h836v1024H0z"/><path fill="#280806" fill-opacity=".686" d="M196.834 1086l484.969-420.025-275.94-352.67-242.635 231.477z"/><path fill="#f9cdaa" fill-opacity=".584" d="M118.747 571.559l27.787 471.36L-62 1021.662V717.088z"/><path fill="#f2dcc3" fill-opacity=".514" d="M691.769 531.4l40.388 554.6H898V857.738z"/><path fill="#ddc3a1" fill-opacity=".349" d="M897.69 554.475L409.687 82.84 541.162-45.91 642.228 88.738z"/><path fill="#2e1513" fill-opacity=".776" d="M131.976 1086l132.159-724.455 242.793 407.92 27.394 258.908z"/><path fill="#fcccc3" fill-opacity=".627" d="M186.057 388.647l-64.353 147.1 81.567-21.038 42.537-83.947z"/><path fill="#e0fff9" fill-opacity=".161" d="M529.346 1086l15.085-214.763L392.084 491.98 898 971.8z"/><path fill="#3e1411" fill-opacity=".792" d="M535.036 658.63l-70.047-182.362 209.22-115.033 79.81 145.832z"/><path fill="#8ab1c8" fill-opacity=".227" d="M159.665-62L-62 489.018l150.782 17.478 108.577 48.32z"/><path fill="#fdf8ed" fill-opacity=".376" d="M586.288 379.438l-60.819 77.657-30.507-29.793-52.426-67.508z"/><path fill="#d68962" fill-opacity=".478" d="M206.487 716.043l12.908-57.425L82.06 561.115 41.167 919.357z"/><path fill="#501b0a" fill-opacity=".655" d="M633.128 217.534L500.391 408.867l-87.203-173.744-232.226 298.044z"/><path fill="#fbcaa2" fill-opacity=".49" d="M558.924 2.626L439.828 47.951l201.834 79.903 1.716-48.544z"/><path fill="#c2f2ff" fill-opacity=".537" d="M656.543 577.49l45.948 58.537 19.313-15.694 4.788-90.59z"/><path fill="#584d39" fill-opacity=".596" d="M811.394 672.514l-100.62 52.045-474.425-32.864L743.6 619.041z"/><path fill="#463836" fill-opacity=".761" d="M441.072-37.382l-210.767-8.05-10.054 187.037 190.26 106.926z"/><path fill="#80757c" fill-opacity=".929" d="M623.685 192.222L898 361.758v146.51l-156.694-65.415z"/><path fill="#cffbe2" fill-opacity=".373" d="M487.735 595.785L471.3 698.036l-21.353-26.368-7.155-65.915z"/><path fill="#491412" fill-opacity=".855" d="M539.165 780.478l41.412-108.286-403.492 199.964L491.574 971.3z"/><path fill="#8a6542" fill-opacity=".984" d="M583.37 144.483l103.445-11.864-243.147 142.533-28.702-216.771z"/><path fill="#8a5e5f" fill-opacity=".996" d="M412.875 239.658L88.418 488.731l152.69-150.05-82.788-74.71z"/><path fill="#62595a" fill-opacity=".863" d="M782.107 339.694L898 47.767 651.511-62l-7.14 253.85z"/><path fill="#77baf9" fill-opacity=".302" d="M-62 968.892l125.688 24.623-21.67-257.945L7.663 618.049z"/><path fill="#270e0c" fill-opacity=".624" d="M200.019 541.698L437.815 1086l-111.8-514.094-235.89-105.782z"/><path fill="#fefbf0" fill-opacity=".804" d="M774.93 917.442l-4.954 39.779-48.383-1.837 11.166-42.33z"/><path fill="#d7e5fe" fill-opacity=".412" d="M455.623 336.505l-16.17 29.271 58.043 62.923 41.014 15.005z"/><path fill="#deadd6" fill-opacity=".165" d="M694.107 879.992l-125.63-447.92 46.216 348.783-145 134.986z"/><path fill="#73060a" fill-opacity=".498" d="M123.486 837.486l82.758-186.277 33.707 15.809-98.507 282.608z"/><path fill="#4a1d10" fill-opacity=".667" d="M514.263 595.413l119.113-373.867-158.95 75.409 219.691 73.663z"/><path fill="#182e2d" fill-opacity=".647" d="M538.157 1017.52l-310.479-143.9-88.294 19.48 20.503 192.9z"/><path fill="#3f2200" fill-opacity=".506" d="M512.416 437.18l-103.712-62.22L721.38 683.369l-1.767 112.953z"/><path fill="#2a0e08" fill-opacity=".62" d="M504.774 471.065l-75.818 157.967-331.204-85.405 69.512 89.766z"/><path fill="#969091" fill-opacity=".784" d="M755.436 695.294l26.03 259.362 76.621-10.664L898 669.982z"/><path fill="#e60015" fill-opacity=".247" d="M434.555 237.088l-124.85 48.936-110.457 101.118 71.7 51.95z"/><path fill="#ffc9c9" fill-opacity=".318" d="M139.201 473.896L43.943 643.495l155.2-216.32 71.463-119.25z"/><path fill="#dfa072" fill-opacity=".576" d="M703.181 924.03l71.554-11.231 2.464-63.204-44.385-228.03z"/><path fill="#2b3035" fill-opacity=".525" d="M633.6 69.057L511.808-62 726.692 47.622l-59.416 111.835z"/><path fill="#826e75" fill-opacity=".639" d="M633 557.245l-67.477-.62 46.09-67.623 11.296 39.66z"/><path fill="#7ecdab" fill-opacity=".208" d="M328.602 631.81l108.736 23.285 189.334-2.547-298.58 41.787z"/><path fill="#2f484c" fill-opacity=".357" d="M763.048 1030.619l-66.856-113.205-148.255-5.233L753.339 1086z"/><path fill="#565760" fill-opacity=".808" d="M-60.738 326.845L166.684 39.273-62-59.135 61.822 377.7z"/><path fill="#234553" fill-opacity=".333" d="M102.848 539.427L69.563 603.04 11.678 716.986-62 482.345z"/><path fill="#d6ddfa" fill-opacity=".427" d="M588.58 358.479l-13.668 39.19-31.287 41.785 28.39-80.662z"/><path fill="#868687" fill-opacity=".506" d="M761.423 27.5L898 53.055l-41.354 89.783-104.502 3.483z"/><path fill="#644c02" fill-opacity=".471" d="M548.465 254.541l-13.721 158.185-85.383-79.287 42.078-162.567z"/><path fill="#93e3ff" fill-opacity=".122" d="M-62 545.683l184.438-141.126-5.577-97.372-39.857-48.763z"/><path fill="#822524" fill-opacity=".686" d="M539.309 748.489l-42.932 195.908-204.26-34.364 232.415 68.68z"/><path fill="#b11125" fill-opacity=".318" d="M736.815 448.081L578.133 361.24l46.593-57.074 75.697 44.01z"/><path fill="#c8aea8" fill-opacity=".694" d="M132.142 512.28l54.228 43.794 3.096-18.526-33.085-24.45z"/><path fill="#cacafa" fill-opacity=".188" d="M429.023 510l-59.076-35.423-6.61 53.535 34.444 9.993z"/><path fill="#83424e" fill-opacity=".525" d="M765.786 729.39l44.971-47.325 35.215-252.02-128.826 96.224z"/><path fill="#251712" fill-opacity=".749" d="M456.26 658.057l322.45-187.928-197.153 141.388-22.527 30.49z"/><path fill="#f7ac7d" fill-opacity=".318" d="M652.626 227.725l-12.992-33.342 9.32-18.32-196.539 4.578z"/><path fill="#871a1a" fill-opacity=".541" d="M99.383 538.703l27.045-16.81 124.997 55.5-55.472 12.817z"/><path fill="#90a398" fill-opacity=".459" d="M497.295 559.225l-27.235 15.432 55.31-4.821-1.837 41.594z"/><path fill="#2f120e" fill-opacity=".659" d="M493.397 459.35l84.257-48.561-11.453 332.5-30.118-89.055z"/><path fill="#83928f" fill-opacity=".514" d="M752.936 1086H537.462l27.035-369.52-36.343 221.144z"/><path fill="#92603c" fill-opacity=".522" d="M701.513 743.926l-54.065-22.094L704.3 958l44.924-432.6z"/><path fill="#160a04" fill-opacity=".451" d="M124.209 674.365l192.844-243.158 144.733 231.974-212.456-62.956z"/><path fill="#493616" fill-opacity=".8" d="M540.091 169.849l25.423-28.339 49.131 4.909-23.088 30.687z"/><path fill="#978caa" fill-opacity=".49" d="M133.991 771.099l8.058-95.29 44.553-41.508-23.814 110.632z"/><path fill="#fff5f1" fill-opacity=".588" d="M177.045 465.466l34.828-70.197-70.728 89.63 8.946 10.869z"/><path fill="#c6f2ff" fill-opacity=".369" d="M694.185 634.128l-38.782-13.456 69.256-54.35.918 60.63z"/><path fill="#9b99a4" fill-opacity=".404" d="M845.626 430.506l-68.591-126.66-55.47 88.896 12.05 65.466z"/><path fill="#6f5f5e" fill-opacity=".729" d="M-62 115.905l367.496 131.483L91.915 545.59l40.7-210.912z"/><path fill="#091900" fill-opacity=".498" d="M488.334 256.518l55.277 101.494-22.078-20.665 91.603-16.947z"/><path fill="#f1ffef" fill-opacity=".208" d="M427.425 612.625l11.436 16.561 67.838 49.967 53.849-16.078z"/><path fill="#2d0e0b" fill-opacity=".71" d="M131.592 808.53l431.484-124.214L454.25 821.392l-312.26 6.509z"/><path fill="#fbb166" fill-opacity=".298" d="M437.24 261.363l21.631 96.325 12.204-65.173L448.9 191.548z"/><path fill="#d4a27d" fill-opacity=".984" d="M56.295 624.157l-8.443 120.577 70.364-44.8-23.87-133.906z"/><path fill="#ffb783" fill-opacity=".243" d="M494.902 71.327l111.451-47.684 42.954 109.424-146.54 10.247z"/><path fill="#7e2a28" fill-opacity=".627" d="M106.262 879.047l125.684.1 265.564 98.175-247.573-115.767z"/><path fill="#ffb571" fill-opacity=".176" d="M16.136 1066.292L242.145 1086 128.136 912.8l-4.473-118.422z"/><path fill="#726b6e" fill-opacity=".616" d="M700.095 223.996l-119.97 47.035L722.26 372.144l39.338-51.523z"/><path fill="#fd4518" fill-opacity=".478" d="M245.444 419.078l-68.147 34.017 33.972 14.817 26.251-45.521z"/><path fill="#141e1c" fill-opacity=".678" d="M451.932 342.998l-19.793-107.474-16.462 35.855 15.845 81.946z"/><path fill="#000a08" fill-opacity=".38" d="M357.326 1034.937l-75.74-122.025 283.289 79.658-181.897.313z"/><path fill="#752503" fill-opacity=".525" d="M779.718 1039.708l16.475-42.24 90.46 88.532-219.204-21.399z"/><path fill="#5a0910" fill-opacity=".337" d="M222.782 467.713l150.542-213.288 80.314 124.208 66.987 139.52z"/><path fill="#280000" fill-opacity=".333" d="M737.68 517.098l-81.883 68.071 9.358-133.053 53.533-60.434z"/><path fill="#343437" fill-opacity=".588" d="M235.361 90.918L739.804-62 589.633 18.81 285.766-54.393z"/><path fill="#ffc19f" fill-opacity=".573" d="M745.825 937.629L898 1028.665l-161.879-53.853 77.864 107.58z"/><path fill="#a21920" fill-opacity=".267" d="M240.597 540.402L68.84 458.965l129.95 83.954-53.99 353.59z"/><path fill="#fff" fill-opacity=".09" d="M-27.207 507.322l237.629-115.934-.25 134.96-219.937-152.02z"/><path fill="#858f7b" fill-opacity=".894" d="M496.005 636.214l-17.37 8.632 14.999-78.99-26.202 51.445z"/><path fill="#fffae8" fill-opacity=".129" d="M800.373 1013.251l-78.599-339.876L898 808.795 724.868 855.08z"/><path fill="#1c251f" fill-opacity=".443" d="M-62 511.861l220.425 47.71 70.14 82.007-134.389-75.306z"/><path fill="#c8c8d0" fill-opacity=".576" d="M546.444 430.687l-50-2.196-53.855-79.013 12.806 3.363z"/><path fill="#002128" fill-opacity=".2" d="M176.931 339.071l58.696 1.325-50.832 72.52-86.904-42.63z"/><path fill="#2d3002" fill-opacity=".431" d="M668.584 777.04l12.095-78.25-33.025-134.416-31.428 37.565z"/><path fill="#2b2019" fill-opacity=".976" d="M453.637 691.979l-205.02-40.676 154.252 21.732 80.082 13.773z"/><path fill="#604f59" fill-opacity=".51" d="M565.74 814.535l-29.617-28.96 73.01-209.12 34.395 143.748z"/><path fill="#7b1f20" fill-opacity=".518" d="M296.294 874.105l76.69-6.462-187.706-90.924 113.761 76.044z"/><path fill="#5e4d49" fill-opacity=".494" d="M432.408 258.552l.966-114.678-208.236-37.484-106.122 125.573z"/><path fill="#a8621b" fill-opacity=".176" d="M72.466 943.935L24.77 681.457l150.176 214.581-55.392-165.32z"/><path fill="#835a30" fill-opacity=".757" d="M658.04 221.23l-140.572-5.741 32.34 72.839 28.792-51.146z"/><path fill="#581a19" fill-opacity=".533" d="M582.575 280.135l10.32 265.101 33.885-80.688 123.251 17.469z"/><path fill="#545e69" fill-opacity=".278" d="M787.121 755.012L898 605.828l-175.036 11.65 51.984 147.151z"/><path fill="#2e3737" fill-opacity=".655" d="M313.647 955.228L369.902 1086l-223.326-68.906 147.18-91.704z"/><path fill="#fff" fill-opacity=".282" d="M834.236 1025.065L898 984.588l-186.204-40.362 43.43-37.054z"/><path fill="#1d0c09" fill-opacity=".714" d="M403.915 776.331L231.088 672.703l163.699 31.882 135.688 31.146z"/><path fill="#411a16" fill-opacity=".627" d="M491.013 435.102l97.853 22.785-142.736 25.666 15.223 162.03z"/><path fill="#fffbed" fill-opacity=".431" d="M232.28 431.31l-28.567 77.109 36.52-79.671-58.468-35.764z"/><path fill="#9d744d" fill-opacity=".918" d="M548.273 355.28l-21.436 49.347 33.657-4.975 8.131-79.277z"/><path fill="#63666a" fill-opacity=".659" d="M583.326 844.924l43.946 124.017-65.224 13.975-40.905-11.414z"/><path fill="#a48b92" fill-opacity=".447" d="M655.752 795.175l-1.541-87.655-64.378 140.108 108.547 47.45z"/><path fill="#ccfef2" fill-opacity=".384" d="M198.605 521.892L160.1 456.59l63.53 25.751-5.25-13.015z"/><path fill="#debaa6" fill-opacity=".518" d="M485.461 52.79l104.634-25.833 20.214 12.99 30.301 50.78z"/><path fill="#6c5012" fill-opacity=".549" d="M143.168 595.855l-6.827 82.225 7.39-5.33 49.427-49.309z"/><path fill="#f35e6c" fill-opacity=".282" d="M613.25 308.01l29.137-.965 74.16 70.845-46.793-22.298z"/><path fill="#2a0d0c" fill-opacity=".831" d="M391.562 726.316l-230.786 11.655L349.5 858.71 181.946 592.048z"/><path fill="#fec7d1" fill-opacity=".106" d="M246.51 282.484l240.283-57.914-181.035 65.598-69.77 81.324z"/><path fill="#7d2526" fill-opacity=".565" d="M248.156 418.71l115.482-46.062 23.594-61.58L190.21 398.98z"/><path fill="#1a0d0a" fill-opacity=".761" d="M274.507 620.483l229.276 30.781-74.804 4.55L306.49 440.71z"/><path fill="#726260" fill-opacity=".722" d="M212.702 167.974L190.18 57.49-62 208.194l68.562 65.603z"/><path fill="#9c7348" fill-opacity=".329" d="M678.448 102.711L497.98 185.458 485.379-2.71l-79.313 110.88z"/><path fill="#777978" fill-opacity=".384" d="M830.241 861.734L898 801.54 784.958 974.6l-16.484-120.231z"/><path fill="#3a435e" fill-opacity=".592" d="M7.142 100.285l32.553-67.012 64.499 17.362-30.995 75.002z"/><path fill="#b1abb3" fill-opacity=".439" d="M46.895 1086H-62l86.442-344.707L72.94 925.65z"/><path fill="#ee8a56" fill-opacity=".302" d="M731.39 958.717l143.562 44.435-101.926 11.689-21.426 54.13z"/></svg>