<svg xmlns="http://www.w3.org/2000/svg" width="228" height="278" viewBox="0 0 836 1024"><path fill="#7e4d2f" d="M0 0h836v1024H0z"/><g fill-opacity=".502"><path fill="#f77b31" d="M-62 1010l476-860 180 936z"/><path fill="#00000f" d="M14-62l-76 572L434 30z"/><path fill="#00000d" d="M578 1086l256-328-272-288z"/><path fill="#d9ff68" d="M-62 922l268 56 4-388z"/><path fill="#194459" d="M422 42l404 580 72-684z"/><path fill="#ff0" d="M898 982l-180 104 112-364z"/><path fill="#fa5e3a" d="M434 234l312 224-800-12z"/><path fill="#8d7e78" d="M598 82L374 398 350-62z"/><path fill="#001a19" d="M418 238L-62 386 58-62z"/><path fill="#b32812" d="M118 358l284 728 188-548z"/><path fill="#e1ff3e" d="M190 974L-62 682l292 76z"/><path fill="#000e16" d="M714 1086l-156-84 268-340z"/><path fill="#ff6e34" d="M466 346l392 348-232-352z"/><path fill="#c4786c" d="M-58 546l296 240-72-300z"/><path fill="#3c3937" d="M394 238l456-48-444 172z"/><path fill="#000048" d="M386 598l36-84 16 104z"/><path fill="#000c12" d="M898 718L550 846l24-196z"/><path fill="#ff7f41" d="M142 326L26 446l300-164z"/><path fill="#ff440f" d="M138 670l-172-64-24-276z"/><path fill="#ebbda5" d="M470 150l68-40-192-48z"/><path fill="#002931" d="M214 598l-72 36 48-140z"/><path fill="#c9f127" d="M206 926L-62 594l80 364z"/><path fill="#c23d22" d="M594 946l-84-268-480 408z"/><path fill="#151e1a" d="M-62-2l456-60-92 352z"/><path fill="#031624" d="M30 750l-12 84 44 4z"/><path fill="#671d26" d="M234 686l64 76-84 248z"/><path fill="#011a06" d="M-6 674l80-24 36 100z"/><path fill="#7c160c" d="M630 442l-160-16 352 320z"/><path fill="#ff592c" d="M898 642l-156-76 24 120z"/><path fill="#ddfe0d" d="M742 1058l156-52-48-324z"/><path fill="#e2f4a8" d="M226 722l-4 116-112 24z"/><path fill="#ff9062" d="M478 334l156 32-144-92z"/><path fill="#b3b2b3" d="M158 490l24 72-140-36z"/><path fill="#182424" d="M830 694L546 842l148 244z"/><path fill="#333535" d="M878 650l20-496-384 64z"/><path fill="#e6582b" d="M370 582L194 318l360 44z"/><path fill="#a38472" d="M378 290l96-320L350 70z"/><path fill="#df5026" d="M242 1086h340L238 774z"/><path fill="#6c0c00" d="M214 490l-32-64-208 72z"/><path fill="#171065" d="M534 426l-20 84-44-64z"/></g></svg>