<svg xmlns="http://www.w3.org/2000/svg" width="228" height="278" viewBox="0 0 836 1024"><path fill="#636672" d="M0 0h836v1024H0z"/><path fill="#0d0e11" fill-opacity=".886" d="M898 379.082l-386.487-107.46-74.628-285L898-5.003z"/><path fill="#e8f3ff" fill-opacity=".31" d="M830.408 532.62L323.145 2.667 88.043 1056.966l140.237-23.19z"/><path fill="#090200" fill-opacity=".647" d="M-29.306 782.327L-62-62l412.397 40.225L64.14 682.316z"/><path fill="#0d2e5a" fill-opacity=".996" d="M552.76 535.068l118.342 426.558-6.513-386.629-121.545-152.88z"/><path fill="#b1b3c3" fill-opacity=".992" d="M684.213 1086L578.297 623.911l-59.665 339.286 379.368.91z"/><path fill="#dde8ff" fill-opacity=".631" d="M651.154 329.365l-194.077-71.507-19.6 130.291L898 660.588z"/><path fill="#0b3474" fill-opacity=".824" d="M364.813 607.251l107.348 26.812-20.478-207.683-107.012 69.886z"/><path fill="#cbd2e8" fill-opacity=".62" d="M334.7 481.796L92.739 802.47 203.18 403.74l102.209-79.924z"/><path fill="#2f1905" fill-opacity=".498" d="M-62 137.125l757.73 187.449L484.528 174.55l-62.401 203.575z"/><path fill="#003991" fill-opacity=".749" d="M282.406 1057.06L499.01 748.164l22.71 189.946 210.607 129.55z"/><path fill="#e0eaff" fill-opacity=".663" d="M404.733 915.393l5.55-226.694L286.05 916.37l227.042 50.171z"/><path fill="#cda582" fill-opacity=".714" d="M889.869 439.46L754.945 742.285 693.208 1086l165.167-12.866z"/><path fill="#35507c" fill-opacity=".988" d="M343.787 673.293l-19.483 81.444-92.687-231.784 9.72-60.555z"/><path fill="#daaa85" fill-opacity=".659" d="M459.091 296.616l9.225-231.422-178.462 14.144L313.71 273.16z"/><path fill="#6e5a60" fill-opacity=".651" d="M396.061 226.275L188.604 417.347l-15.3 279.786-102.84-399.382z"/><path fill="#f5f8ff" fill-opacity=".435" d="M561.676 520.584l-146.11 144.589 51.626-28.46-21.257-443.304z"/><path fill="#0b448d" fill-opacity=".851" d="M616.883 952.257l132.522 1.27-25.97 2.223-39.423-219.143z"/><path fill="#4c4847" fill-opacity=".851" d="M153.563 899.257l11.259-145.853-113.39 97.058L93.443 1086z"/><path fill="#aab4b6" fill-opacity=".969" d="M343.873 984.429L124.991 1086-62 811.895l3.68 238.73z"/><path fill="#c8e0ff" fill-opacity=".592" d="M733.88 900.368l-74.94-377.946 1.752 53.493 14.478 157.663z"/><path fill="#40363a" fill-opacity=".761" d="M682.385 296.793l199.823-1.244L898 647.581 720.014 420.587z"/><path fill="#c6d1ea" fill-opacity=".749" d="M631.375 967.178L478.49 955.753l165.665-118.468L476.82 729.644z"/><path fill="#a28864" fill-opacity=".788" d="M115.871 1086l166.59-166.585 25.763-241.745-111.29 28.025z"/><path fill="#002c70" fill-opacity=".71" d="M522.56 790.105l10.363 144.84-147.14-6.559 48.674-140.96z"/><path fill="#00459f" fill-opacity=".667" d="M239.25 858.46l24.925 137.331 431.15 11.172-407.297-87.098z"/><path fill="#605146" d="M249.129 74.116L434.086-62l51.948 329.818-1.895-203.9z"/><path fill="#130e10" fill-opacity=".537" d="M696.232 633.385l-7.941 89.278 90.749-36.406.39-92.275z"/><path fill="#dae0f5" fill-opacity=".62" d="M398.654 514.927L453.21 328.11l-70.173 124.267-31.55-42.113z"/><path fill="#133870" fill-opacity=".792" d="M316.246 413.543l68.672 224.723 97.627-11.98L353.792 438.84z"/><path fill="#c9d6ee" fill-opacity=".624" d="M339.488 296.777l-35.233 63.852 83.82 339.455-186.05-301.393z"/><path fill="#0e3370" fill-opacity=".478" d="M190.857 689.867l-14.874-40.715 52.14 74.702 414.832-83.399z"/><path fill="#e5eafe" fill-opacity=".42" d="M191.732 399.836l-19.62 277.7 77.967 20.851 21.705-37.296z"/><path fill="#092549" fill-opacity=".796" d="M546.124 439.495l10.266 114.173 68.207 226.728-20.759-308.105z"/><path fill="#403634" fill-opacity=".686" d="M-62 295.86l319.325-91.992 43.038-161.285-2.638 275.698z"/><path fill="#a4eaf3" fill-opacity=".435" d="M219.587 953.213l97.446 24.945L378.418 1086l-177.609-84.213z"/><path fill="#e0e9fe" fill-opacity=".624" d="M381.784 782.763L426.91 891.32l-101.003-128.8 35.416-75.101z"/><path fill="#1075d0" fill-opacity=".557" d="M604.416 375.588l-46.039-43.258 64.574-3.62 22.526 20.762z"/><path fill="#000610" fill-opacity=".455" d="M-33.244 660.683l96.475 70.573 72.079-167.628L-6.855 338.311z"/><path fill="#101316" fill-opacity=".91" d="M.345-48.377L-13.38 217.12l137.866 17.19L336.925-62z"/><path fill="#9d8d92" fill-opacity=".698" d="M192.595 729.354l-11.884-183.62-91 159.887L-62 868.826z"/><path fill="#14141a" fill-opacity=".706" d="M661.11 344.795l-174.592-99.026-1.457-209.967 70.097 83.034z"/><path fill="#32210e" fill-opacity=".498" d="M342.73 146.151l-21.225 25.698 120.837.612-3.897-14.663z"/><path fill="#023c91" fill-opacity=".792" d="M245.716 921.031L650.452 1086l29.812-107.265-110.638-7.597z"/><path fill="#d3ddf4" fill-opacity=".612" d="M726.915 624.053l73.871-60.81-12.764-57.278-115.938 32.02z"/><path fill="#4f2d01" fill-opacity=".306" d="M397.99 207.201l-32.83 7.648 17.677 210.006 79.913-130.432z"/><path fill="#f4effa" fill-opacity=".416" d="M427.347 953.061l-64.21-30.316 422.02 55.938-412.86-31.295z"/><path fill="#152e4a" fill-opacity=".6" d="M641.316 854.503l123.43-68.44-5.02 67.233-52.75-18.375z"/><path fill="#a0856f" fill-opacity=".992" d="M333.327 298.036l44.501 38.484 20.583 97.275-77.84-55.334z"/><path fill="#ffd7c3" fill-opacity=".471" d="M452.175 91.273l-50.03-23.758-128.124 37.92 187.473 45.54z"/><path fill="#9cacc9" fill-opacity=".737" d="M422.592 791.65l-60.81-75.56 214.042-27.733 37.789 82.147z"/><path fill="#febc91" fill-opacity=".322" d="M214.076 636.768L109.644 1040.69l39.566 9.108 54.163-112.132z"/><path fill="#6a88b2" fill-opacity=".882" d="M404.572 547.12l-125.46-85.922-5.558 45.48 161.41 12.878z"/><path fill="#12458c" fill-opacity=".631" d="M883.312 490.226L898 398.638l-92.686 194.026-90.81 51.304z"/><path fill="#435d8a" fill-opacity=".584" d="M579.355 678.903l-70.854 20.987-133.986 11.743 187.983-82.447z"/><path fill="#b9b1a9" fill-opacity=".988" d="M898 628.838L785.06 971.196l-11.821 112.147L898 1086z"/><path fill="#cfdcf3" fill-opacity=".404" d="M457.044 290.808l79.077 307.603-40.774 86.455-43.195-180.61z"/><path fill="#013687" fill-opacity=".616" d="M402.89 469.248l51.798 75.34-1.779-182.193-25.38 66.805z"/><path fill="#085283" fill-opacity=".498" d="M338.073 842.943l-28.394 22.863-59.673 80.428 92.283-174.825z"/><path fill="#ffefed" fill-opacity=".412" d="M266.697 404.414l151.155 58.122L290.586 340.45 155.968 489.487z"/><path fill="#fffbff" fill-opacity=".459" d="M695.29 771.996l-37.075-148.973 17.434-89.132 22.043 231.293z"/><path fill="#fffbfd" fill-opacity=".549" d="M898 669.288L665.005 346.6l26.625 127.213 48.684-1.604z"/><path fill="#afb384" fill-opacity=".969" d="M268.756 872.901l47.705-38.689 8.781-7.664-25.79-153.307z"/><path fill="#f0d1b1" fill-opacity=".38" d="M522.412-62L297.574 34.847l124.305.122L267.047-62z"/><path fill="#f0f0fa" fill-opacity=".824" d="M477.428 272.485l56.523 14.362 75.332 31.169-123.289 31.177z"/><path fill="#736371" fill-opacity=".533" d="M144.032 660.7l-19.754-421.122 125.298 89.455-55.111 105.503z"/><path fill="#ffca7f" fill-opacity=".173" d="M163.887 168.664l57.181 51.584 4.795-142.547L409.807-31.362z"/><path fill="#03204a" fill-opacity=".224" d="M396.595 639.126L275.681 793.105l-19.31 266.992-5.932-383.241z"/><path fill="#9ecbff" fill-opacity=".337" d="M733.45 864.891l29.695-22.878-59.631 193.127 6.41-223z"/><path fill="#d8b08d" fill-opacity=".529" d="M283.263 223.188l-18.496-69.05 67.095 138.127L399.44 169.48z"/><path fill="#e0e5f5" fill-opacity=".871" d="M380.698 906.758l-84.864 18.35 102.069-177.646 16.37 64.91z"/><path fill="#c6fd68" fill-opacity=".373" d="M163.3 1082.013L232 934.118l24.879-11.055 24.766 13.096z"/><path fill="#bd7b41" fill-opacity=".365" d="M788.992 859.93L898 785.08l-78.294-215.567-56.565 72.731z"/><path fill="#071c31" fill-opacity=".733" d="M562.036 569.567l81.645 38.19 20.044-55.109-70.22-52.79z"/><path fill="#babbb3" fill-opacity=".561" d="M737.569 787.242l40.687-37.469-1.88-49.165-47.738 39.93z"/><path fill="#101418" fill-opacity=".769" d="M613.61 233.976L407.87 6.789l-231.147 3.859L898-32.737z"/><path fill="#012152" fill-opacity=".639" d="M306.666 592.918l-76.528-109.67-3.101 33.773 91.894 121.474z"/><path fill="#022a66" fill-opacity=".435" d="M542.374 703.52L420.562 937.412l121.499-48.242-42-160.898z"/><path fill="#2a4301" fill-opacity=".482" d="M257.35 931.011l38.312-45.107-31.197-15.283-33.387 73.978z"/><path fill="#200f00" fill-opacity=".404" d="M264.216 89.543l182.142-38.551-115.986-13.73-73.795 64.434z"/><path fill="#32251b" fill-opacity=".38" d="M713.754 745.536l93.463-116.7-30.169 79.023-99.353-133.004z"/><path fill="#fff7e2" fill-opacity=".267" d="M63.725 994.564L-62 1086l86.807-160.066 74.078 62.53z"/><path fill="#05275b" fill-opacity=".816" d="M471.142 604.332l-74.644 31.913-47.893-89.796 104.234-1.181z"/><path fill="#033275" fill-opacity=".588" d="M650.617 814.238l79.545 127.802-88.69 18.821-11.629-73.018z"/><path fill="#baceec" fill-opacity=".439" d="M435.399 661.406l-99.95-22.523 155.394-16.54 29.946 5.297z"/><path fill="#bbc8e3" fill-opacity=".576" d="M506.334 944.736l40.41-43.522-39.247-149.622 128.19 191.937z"/><path fill="#f0f4fd" fill-opacity=".506" d="M228.596 438.278l-37.305 220.72 9.446-247.689 140.235-117.038z"/><path fill="#1a5497" fill-opacity=".216" d="M653.995 559.653l102.957-64.993-133.136-7.393 87.3 483.726z"/><path fill="#282014" fill-opacity=".71" d="M328.421 289.21L207.102 122.67l90.045-21.557-47.165 165.596z"/><path fill="#ffd4be" fill-opacity=".208" d="M337.402 285.006l113.364 21.545-93.298-163.858 149.6 57.885z"/><path fill="#0e4896" fill-opacity=".686" d="M410.116 857.331l10.609-71.919 159.663 108.656-116.602-51.249z"/><path fill="#006ce4" fill-opacity=".525" d="M345.563 971.116l-9.3-51.058-84.213 28.964-1.322 31.265z"/><path fill="#e3e8f7" fill-opacity=".682" d="M583.3 333.895l25.566 114.4-117.238-125.931 59 32.343z"/><path fill="#dfe8fd" fill-opacity=".569" d="M651.763 973.616l25.802 14.73 53.1-23.153-338.522-28.778z"/><path fill="#3182da" fill-opacity=".443" d="M733.107 875.192l-83.515-9.573 40.49-25.976-18.077-139.352z"/><path fill="#19171c" fill-opacity=".667" d="M458.435 259.273l79.18-111.841 84.019 148.649-99.387-14.335z"/><path fill="#182d50" fill-opacity=".455" d="M224.208 730.782l152.017-94.976-143.096 74.538-54.985-56.5z"/><path fill="#69543f" fill-opacity=".686" d="M371.843 158.58l-60.94-4.137 134.997-12.3-24.575 36.28z"/><path fill="#cfd7ed" fill-opacity=".561" d="M343.802 495.91l9.92 44.973-44.389 34.686-46.927-50.778z"/><path fill="#deb4a1" fill-opacity=".325" d="M304.02 600.662l-21.917 152.274 8.726 80.295 23.196-161.351z"/><path fill="#0061c3" fill-opacity=".349" d="M621.87 330.573l28.225 46.169-106.848-31.233-30.578-4.938z"/><path fill="#363337" fill-opacity=".333" d="M81.793 848.767l89.577-116.506-15.019 166.547L-62 950.08z"/><path fill="#073780" fill-opacity=".773" d="M628.48 985.51L283.79 1086l271.636-123.33 130.347 15.676z"/><path fill="#5d6365" fill-opacity=".6" d="M799.322 962.737l66.89 38.608-26.474-13.27-50.36 11.541z"/><path fill="#77525e" fill-opacity=".412" d="M708.543 285.128l18.084 102.73-27.767-3.43-89.117-79.808z"/><path fill="#2e2a14" fill-opacity=".404" d="M333.09 302.25l123.566 10.556-64.03 89.887-1.027-67.587z"/><path fill="#f1e1d5" fill-opacity=".549" d="M436.08 131.455l25.671 112.618-3.696-142.442-54.039-23.792z"/><path fill="#232223" fill-opacity=".6" d="M394.705 42.455l266.668 24.358L379.033-62l82.072 156.053z"/><path fill="#0d4391" fill-opacity=".565" d="M310.49 766.002l44.667-77.016 10.101-51.638-48.597 34.182z"/><path fill="#2b272f" fill-opacity=".361" d="M95.73 692.036L168.501 9.093l-1.846 24.705-97.248 24.055z"/><path fill="#485d06" fill-opacity=".165" d="M525.94 451.001l-4.881 62.19-42.514-9.67-5.493-52.103z"/><path fill="#b4bfd9" fill-opacity=".788" d="M428.025 746.07l21.089-55.358-69.64 97.477 91.236 2.38z"/><path fill="#dde7ff" fill-opacity=".384" d="M379.691 448.281l-26.793-15.21 45.86 61.425 54.618-131.915z"/><path fill="#ffc5ab" fill-opacity=".325" d="M629.42 1086l-87.015-20.404L898 1060.179 699.894 948.194z"/><path fill="#a8b4cc" d="M532.833 848.003l82.667-59.335 22.931 77.829-87.417-207.529z"/><path fill="#b89c88" fill-opacity=".471" d="M376.029 41.54l9.28-37.722 88.096 89.46-44.33-72.248z"/><path fill="#1f2127" fill-opacity=".631" d="M766.781 440.169l100.164-51.17L898 474.42l-22.424 51.34z"/><path fill="#093276" fill-opacity=".569" d="M426.668 853.225l-33.656 75.765 113.303 15.659 22.598-11.808z"/><path fill="#000504" fill-opacity=".153" d="M518.948 652.99l-50.914 133.676-47.21 142.824 146.397-300.558z"/><path fill="#defd75" fill-opacity=".298" d="M284.598 795.786l43.794 10.173-87.754 106.274 5.133-24.252z"/><path fill="#8d6d79" fill-opacity=".494" d="M-60.418 707.129l228.108 47.006-132.763 88.847-82.78-37.026z"/></svg>