<svg xmlns="http://www.w3.org/2000/svg" width="228" height="278" viewBox="0 0 836 1024"><path fill="#574d51" d="M0 0h836v1024H0z"/><g fill-opacity=".502"><path fill="#e1e6f5" d="M770 734l100 336-912-44z"/><path d="M858 750l40-732L410-2z"/><path fill="#c1ffff" d="M118 290l256-44-436 428z"/><path fill="#c8ffff" d="M550 302l176 604-4-408z"/><path fill="#4e0010" d="M790 966L170 630l-52 296z"/><path fill="#fff" d="M106 934l500 36-304 116zm108-348l144-48 180 116z"/><path fill="#2d0000" d="M490 106l-4 436-416 16z"/><path fill="#000007" d="M62 26l284 80-408 376z"/><path d="M630 162l160 676 108-616z"/><path fill="#a7ffff" d="M42 642l140-4-228-212z"/><path fill="#c5ffff" d="M690 838l208 236-252-560z"/><path d="M518 778l84-384 28 360z"/><path fill="#a6b6b1" d="M-62 762l76 300 148-288z"/><path d="M78 558l196 72L74 394z"/><path fill="#d1ffff" d="M30 390l344-96-132-40z"/><path fill="#fff" d="M470 934L-6 1054l676 32z"/><path fill="#160100" d="M350 294l216 156L418-62z"/><path d="M258 726l-320 48 92-164zM-62 226v156l384-164z"/><path fill="#ab712e" d="M442 118l168-60-56 284z"/><path fill="#4e6c6e" d="M518 978l124-216 192 316z"/><path fill="#fff7ff" d="M274 546l260 56-36 60z"/><path fill="#96f5ff" d="M742 602l-88 108-40-356z"/><path d="M898 158v236L378 290z"/><path fill="#f8cfff" d="M334 434l-36 40-44-64z"/><path fill="#c9fdff" d="M218 418l8-140L50 394z"/><path fill="#812927" d="M534 970L154 594l384 68z"/><path fill="#4d0b1e" d="M230 322l316-36-312 152z"/><path fill="#fff" d="M670 422l-124-60v-48z"/><path fill="#030000" d="M778 794l120-140-184-32z"/><path fill="#aeffff" d="M198 606L-6 550l132 84z"/><path fill="#b2dbe6" d="M898 814l-252-72 176 316z"/><path fill="#480000" d="M626 426l-32 104-40-164z"/><path fill="#fff" d="M550 970l-420-40 180 156z"/><path fill="#757a72" d="M2 218l288-28-352-60z"/><path fill="#f7f1f5" d="M346 586l-108-56-8 64z"/><path fill="#fbb0a2" d="M494 438l28 96 48-84z"/><path d="M794 766L626 230l272 12zM178 214l-240 4 4 308z"/></g></svg>