<svg xmlns="http://www.w3.org/2000/svg" width="228" height="278" viewBox="0 0 836 1024"><path fill="#898b93" d="M0 0h836v1024H0z"/><path fill="#343347" fill-opacity=".69" d="M48.538 885.55L649.755 1086 543.072 169.131 164.042 371.99z"/><path fill="#e5f4fd" fill-opacity=".796" d="M370.73 248.124L-8.87 438.798-62-7.455l443.594-33.123z"/><path fill="#e9e7ec" fill-opacity=".655" d="M898 20.161L749.211 1024.94l-74.373 7.727L567.72-62z"/><path fill="#6b5561" fill-opacity=".988" d="M456.558-62l160.454 853.3 153.673-397.795-412.607-206.19z"/><path fill="#a19f96" d="M199.809 1086L99.553 957.961l110.934-303.17 26.574 222.893z"/><path fill="#1b0900" fill-opacity=".6" d="M79.55 716.967l126.935-393.724 87.25 171.104L93.821 925.41z"/><path fill="#475476" d="M235.065 881.357l-29.642 182.741 442.989-73.392-299.107-616.193z"/><path fill="#ffdacf" fill-opacity=".314" d="M427.005 321.91l193.601 145.18-26.505 162.256L166.874 37.23z"/><path fill="#fffffd" fill-opacity=".729" d="M624.971 739.271l29.886 317.431L743.564 1086l7.71-513.31z"/><path fill="#d7e6f3" fill-opacity=".882" d="M167.255 331.452L486.633-62-62 324.347 141.328 504.46z"/><path fill="#dee9f0" fill-opacity=".886" d="M652.615-62L546.722 290.7 898 422.837l-16.53-447.77z"/><path fill="#4b2100" fill-opacity=".396" d="M493.611-42.453L594.34 170.42 423.72 444.186 375.24 73.257z"/><path fill="#878e71" fill-opacity=".627" d="M-56.983 181.672L39.67 63.412 276.148-54.074 204.047 39.44z"/><path fill="#e3eae2" fill-opacity=".486" d="M507.723 718.975l-70.543-97.88-96.76 25.694 2.697 41.576z"/><path fill="#5a4745" fill-opacity=".996" d="M733.568 391.516l-10.549 136.726-195.593 255.131 190.938-175.021z"/><path fill="#412006" fill-opacity=".769" d="M41.267 963.283L-30.436 1086H85.597l19.261-124.55z"/><path fill="#180900" fill-opacity=".498" d="M637.413 778.686L433.865 398.21l-208.78-87.317 134.412 115.975z"/><path fill="#b5b8ac" fill-opacity=".984" d="M32.131 873.314L6.425 340.488l2.812 637.824 150.302-62.364z"/><path fill="#dae9f5" fill-opacity=".98" d="M341.366 275.837L-62 198.744 299.982-.146 407.21 266.118z"/><path fill="#eaf1f4" fill-opacity=".82" d="M775.554-62l-21.517 397.65L544.26 31.64l-75.395-43.122z"/><path fill="#0f1f3c" fill-opacity=".612" d="M232.1 793.055L373.763 1086H201.307l39.872-221.68z"/><path fill="#799f68" fill-opacity=".482" d="M833.354 1072.11l-79.638-387.783 1.495-169.582L898 489.555z"/><path fill="#8f675c" fill-opacity=".918" d="M297.847 264.132l234.544 91.412-153.279 31.746-106.906-93.754z"/><path fill="#4f5086" fill-opacity=".733" d="M753.232 379.5l-211.407 83.905-60.046-110.322 201.32-19.723z"/><path fill="#6e795b" fill-opacity=".992" d="M136.816 552.723l-22.609 80.85-82.135-20.51-12.76-84.875z"/><path fill="#1d1a3a" fill-opacity=".537" d="M151.081 390.813l39.4-61.503 87.06-27.585 24.73 552.084z"/><path fill="#cadae5" d="M775.654-62l-23.028 513.994 90.78 42.555-8.688-492.397z"/><path fill="#000607" fill-opacity=".471" d="M500.652 274.364l-97.068 53.577 7.73-305.248-48.61 91.962z"/><path fill="#955b6f" fill-opacity=".996" d="M451.855 830.833l14.404-181.544 16.812 193.749L554.781 1086z"/><path fill="#c7cbc6" fill-opacity=".941" d="M657.37 930.122l6.285-224.274-26.515-8.758-17.75 249.174z"/><path fill="#1b3559" fill-opacity=".553" d="M644.13 652.588l13.451 51.466-167.822 18.388 108.848 296.81z"/><path fill="#d8eafd" fill-opacity=".475" d="M298.412 476.413l124.419-40.384-126.724 21.344-8.896.137z"/><path fill="#a8b2ba" fill-opacity=".918" d="M443.543 556.632l-26.513 54.156-11.894-38.947 8.543-14.946z"/><path fill="#1b151d" fill-opacity=".855" d="M102.526 524.114l76.726-71.84 86.97 31.936-64.056 117.749z"/><path fill="#edfaed" fill-opacity=".416" d="M324.792 611.536l-24.763 8.277-15.243-3.37 17.21 86.051z"/><path fill="#b2b2ae" fill-opacity=".729" d="M742.118 1022.783l58.154-20.259 19.583-468.456-23.828-85.166z"/><path fill="#99b5ff" fill-opacity=".475" d="M664.544 453.59l-107.786 63.624-13.29-85.122 207.472 98.57z"/><path fill="#dceaf7" fill-opacity=".941" d="M529.926 3.047l-237.24-36.26-133.988 175.065L460.408 4.95z"/><path fill="#89665a" fill-opacity=".784" d="M496.547 19.553l81.64 326.414-58.856-110.454-37.451 28.861z"/><path fill="#ea8a32" fill-opacity=".227" d="M657.47 681.019l1.15-85.594L354.853 287.28l193.284 338.554z"/><path fill="#324467" fill-opacity=".902" d="M219.195 782.031L203.912 589.25l286.295 319.378-268.923-117.204z"/><path fill="#191301" fill-opacity=".392" d="M553.905 614.874l105.128 102.368-160.155-63.734-126.882-15.245z"/><path fill="#fbfcfa" fill-opacity=".969" d="M758.494-62L686.02 153.325l-1.786 158.496 75.724 81.585z"/><path fill="#5a3557" fill-opacity=".71" d="M694.887 348.128L599.89 554.705l-1.238-32.211 54.589-202.175z"/><path fill="#219c38" fill-opacity=".4" d="M824.647 1082.241L898 1036.878l-69.118-438.442-20.313 462.92z"/><path fill="#54321b" fill-opacity=".725" d="M63.839 887.107l116.64-241.088-125.192 20.234L84.761 683.9z"/><path fill="#fdf5c9" fill-opacity=".357" d="M7.376 689.255l-8.298 18.45 70.756 73.574 14.753-101.624z"/><path fill="#fefdf7" fill-opacity=".714" d="M753.74 591.594l2.776-180.222-86.832 454.132 8.832-226.291z"/><path fill="#fdfff0" fill-opacity=".353" d="M215.967 919.227l-26.47-200.832 52.649 139.974-15.235 64.822z"/><path fill="#adb9bb" fill-opacity=".576" d="M681.128-62l-7.188 398.73-15.036-25.7.418-304.742z"/><path fill="#29211b" fill-opacity=".62" d="M444.538 240.449L430.919 49.265l-12.382-19.843-52.117 163.205z"/><path fill="#fffffa" fill-opacity=".725" d="M79.748 887.55l.94 61.016-33.517 7.458 6.093-67.418z"/><path fill="#b6c8c7" fill-opacity=".69" d="M128.182 378.757L110.06 555.675 65.466 440.692-62 382.145z"/><path fill="#6d3740" fill-opacity=".702" d="M265.402 355.72l-14.07 84.04-56.938-106.222 226.566-71.435z"/><path fill="#0e0502" fill-opacity=".529" d="M462.148 437.485L288.968 324.4l-38.786 28.549 30.357 30.242z"/><path fill="#a5b0b9" fill-opacity=".757" d="M291.315 695.058l230.25 11.878-71.096-17.796 30.214-44.792z"/><path fill="#273558" fill-opacity=".631" d="M302.097 748.714l64.665-92.951-2.97 26.357 127.853 253.44z"/><path fill="#201b00" fill-opacity=".247" d="M142.468 964.276l-19.57-173.634L76.56 846.18l136.22 46.277z"/><path fill="#d5e6f7" fill-opacity=".733" d="M672.584-62L577.672 50.66l8.782 253.872 45.535 29.027z"/><path fill="#4b6396" fill-opacity=".71" d="M229 706.368l20.404 127.366L543.934 1086 266.989 772.728z"/><path fill="#102b56" fill-opacity=".439" d="M411.448 631.066L266.966 438.7l.156 269.68-51.752-103.812z"/><path fill="#afc1c8" fill-opacity=".749" d="M461.87 594.606l-.906 13.424-20.483 16.22 14.034-55.55z"/><path fill="#405175" fill-opacity=".835" d="M412.832 868.513l-34.313-475.627 53.01 99.68-46.979 177.485z"/><path fill="#02030f" fill-opacity=".765" d="M490.64 1003.65l119.626 30.961-283.37 25.62L543.614 1086z"/><path fill="#ccd1c1" fill-opacity=".62" d="M2.34 348.408l25.524 111.233-13.036 540.495-4.189-599.391z"/><path fill="#843256" fill-opacity=".647" d="M664.979 464.297l-37.916-136.173 114.954 43.744.964 93.669z"/><path fill="#9a998e" fill-opacity=".984" d="M35.072 979.014l-20.015-94.925 30.417-63.937 30.45-54.219z"/><path fill="#ecfde1" fill-opacity=".286" d="M236.33 541.269l-57.883 204.409 28.422 33.624 14.937-193.329z"/><path fill="#e1fcdc" fill-opacity=".349" d="M-10.86 637.391l106.607 14.066 35.906-106.499-9.408 56.106z"/><path fill="#04121c" fill-opacity=".592" d="M525.209 756.262l-25.454-41.469 115.421 11.902-64.192 41.724z"/><path fill="#d0c8bd" fill-opacity=".839" d="M133.375 986.17l75.518-12.24-97.59-23.706L127.415 1086z"/><path fill="#f4f8f8" fill-opacity=".337" d="M386.558 667.698l104.372-7.767-166.34-28.482 62.424 47.058z"/><path fill="#161000" fill-opacity=".565" d="M171.18 769.694l72.89-317.17-83.087 152.261-52.9 296.778z"/><path fill="#deecf8" fill-opacity=".776" d="M368.277 186.01l8.12-152.201-193.793 274.886 225.438-66.584z"/><path fill="#1a253b" fill-opacity=".588" d="M261.315 902.178l-42.27 142.626 7.296-121.496 258.09 19.443z"/><path fill="#eefdf6" fill-opacity=".243" d="M517.01 660.551l-81.66 42.333-25.21-104.906 103.4 144.658z"/><path fill="#16121d" fill-opacity=".733" d="M432.528 526.488l-29.711-159.647 84.553 205.94-53.188-15.2z"/><path fill="#018feb" fill-opacity=".157" d="M650.012 384.416L402.735 316.63 534.03 434.104l95.641 37.99z"/><path fill="#5572ae" fill-opacity=".439" d="M471.942 932.355l-149.017 69.94 166.445-5.587-235.592-289.82z"/><path fill="#34384e" fill-opacity=".506" d="M406.226 613.451l13.453 97.616 38.11-257.53-16.978 210.332z"/><path fill="#b6847c" fill-opacity=".557" d="M500.68 333.184l-18.976 52.44 89.55 175.622-168.549-203.191z"/><path fill="#9fa69c" d="M115.048 893.456l-21.146-1.104 21.802 65.664 24.74-106.181z"/><path fill="#585800" fill-opacity=".18" d="M19.768 805.447l35.242-349.29.659 338.966-19.229 38.11z"/><path fill="#2e5087" fill-opacity=".408" d="M268.223 370.043l112.11 46.105 35.632 24.856-185.48 17.863z"/><path fill="#744e3f" fill-opacity=".624" d="M575.162 293.672l-141.618 8.841-143.282-30.394 237.395 81.84z"/><path fill="#877767" fill-opacity=".51" d="M770.656 717.196l-3.304-235.042-10.023 41.442-1.928 225.064z"/><path fill="#e1f0f8" fill-opacity=".592" d="M89.618 438.2L197.76 295.036l-42.892 95.269-28.325 115.82z"/><path fill="#fdfff6" fill-opacity=".349" d="M118.187 860.994l89.257 13.861 26.521 25.431 1.65-58.074z"/><path fill="#3f511b" fill-opacity=".184" d="M121.613 66.68L240.4 15.364 113.795 2.79l11.209.706z"/><path fill="#19222d" fill-opacity=".541" d="M519.81 597.535l19.552 36.496-74.02 33.207-4.052 54.127z"/><path fill="#5ad278" fill-opacity=".592" d="M808.512 791.27l-4.82 18.517 91.056-199.447L851.577 1086z"/><path fill="#151518" fill-opacity=".212" d="M654.918 1004.914L269.353 895.062l306.895 106.307 78.948-66.151z"/><path fill="#fffffe" fill-opacity=".647" d="M676.639 710.61l4.035 375.39 66.676-123.5-2.811-379.839z"/><path fill="#6e5951" fill-opacity=".541" d="M570.853 53.432l9.78 61.02-40.829 239.138-24.081-329.166z"/><path fill="#ebf8fd" fill-opacity=".525" d="M349.058 448.227l-34.34 28.184-21.299-35.11 6.49 36.94z"/><path fill="#b4968d" fill-opacity=".51" d="M484.302 96.264l66.64-60.614 14.495 10.72L460.5 57.85z"/><path fill="#162a00" fill-opacity=".188" d="M38.765 532.827l-49.985 4.462L-62 643.443l173.048-76.845z"/><path fill="#261d27" fill-opacity=".922" d="M156.79 386.216l-.192 137.332L89.02 675.562l160.559-233.09z"/><path fill="#0f213f" fill-opacity=".463" d="M265.484 497.35l-41.593 124.972 136.858 267.511-102.855-141.057z"/><path fill="#c9d6b5" fill-opacity=".608" d="M-1.912 526.055l102.408 13.113 37.099 41.034-32.639-58.316z"/><path fill="#e1edff" fill-opacity=".522" d="M668.861 333.707l-66.4-17.542-22.54 5.403-13.319-116.81z"/><path fill="#6076b0" fill-opacity=".365" d="M508.03 1004.934L650.37 1037l-252.715-97.11-121.685 37.488z"/><path fill="#fa7078" fill-opacity=".439" d="M471.027 752.262l7.77 146.985-8.787-15.068-17.846-149.62z"/><path fill="#0f0400" fill-opacity=".29" d="M428.683 313.7L559.8 253.837l-133.366-13.105-49.237 55.118z"/><path fill="#d6f7f5" fill-opacity=".231" d="M392.506 559.504l89.108 23.289 12.447 59.093-33-79.734z"/><path fill="#a89587" fill-opacity=".827" d="M767.907 979.682l-16.5-82.537-3.079 124.302L844.994 1086z"/><path fill="#553b2a" fill-opacity=".894" d="M42.022 944.918l-52.598 128.17 65.387-52.756 26.298 8.299z"/><path fill="#1a091e" fill-opacity=".255" d="M818.649 929.887l-19.564 119.008-4.048-1.222 56.613 1.03z"/><path fill="#fdbba4" fill-opacity=".157" d="M519.438 125.036l3.9 128.76-90.28-8.062 158.374-104.527z"/><path fill="#f1fbff" fill-opacity=".42" d="M296.756 608.71l-8.241 16.42 16.744 70.137 7.35 8.486z"/><path fill="#73837f" fill-opacity=".624" d="M572.783 691.63l-12.566 26.384 100.695 9.43-134.178-34.05z"/><path fill="#fefef5" fill-opacity=".259" d="M83.693 685.94l-39.72 14.827 18.662 27.821-17.036 198.7z"/><path fill="#9375ee" fill-opacity=".298" d="M644.556 457.298l56.36 3.143 24.593 82.45-93.202-60.468z"/><path fill="#bcdefd" fill-opacity=".337" d="M559.366 456.83l46.33-13.558-2.537 71.546-32.815-11.375z"/><path fill="#faffff" fill-opacity=".31" d="M393.67 614.37l27.702-52.115 6.335 154.609 4.321-104.887z"/><path fill="#fcfbfa" fill-opacity=".961" d="M721.989-62l39.48 489.477-7.575-25.038L682.04 163.36z"/><path fill="#353026" fill-opacity=".643" d="M616.588 743l56.104-88.33-127.96 67.165 86.423-24.013z"/><path fill="#e88353" fill-opacity=".169" d="M109.16 655.097l11.458 104.694 38.313-83.978-30.54-54.385z"/><path fill="#1d2832" fill-opacity=".992" d="M521.1 792.01l11.946-141.296-12.843-27.06-1.66 104.77z"/><path fill="#432101" fill-opacity=".286" d="M34.105 932.08l-10.583-48.537 82.43 8.535-1.04-195.23z"/></svg>