<svg xmlns="http://www.w3.org/2000/svg" width="228" height="278" viewBox="0 0 836 1024"><path fill="#7c595e" d="M0 0h836v1024H0z"/><g fill-opacity=".502"><path fill="#b9e8f7" d="M-62 806l876 224-660-448z"/><path fill="#730000" d="M138 510l668 64L410 30z"/><path fill="#c80000" d="M26 1082l524-68-388-172z"/><path fill="#adcfda" d="M542 810l100-296 256 436z"/><path fill="#1c4f4e" d="M18-62l880 264-960 236z"/><path fill="#af0000" d="M614 562l-84 276-276-204z"/><path fill="#af0004" d="M266 282l460 112L50 606z"/><path fill="#a50000" d="M798 522L678 762l92 20z"/><path fill="#a4eaf6" d="M198 434l-260-20v188z"/><path fill="#fffff7" d="M406 6l96-44 96 144z"/><path fill="#8bafb5" d="M-42 766l76 320 256-584z"/><path fill="#99c8bb" d="M898 1074l-60-504-160 516z"/><path fill="#acd5da" d="M898 754l-52-308-120-12z"/><path fill="#306768" d="M522-26l376-12v700z"/><path fill="#190902" d="M526 38L354 58l64 436z"/><path fill="#c0d4d3" d="M294 586l228-36-16 68z"/><path fill="#8c0000" d="M550 946l-8 140L98 934z"/><path fill="#95c5b9" d="M542 1086l48-420 60 396z"/><path fill="#a30002" d="M702 398L502 802l32-516z"/><path fill="#a0b3c2" d="M-62 610l320-8 64 324z"/><path fill="#b10002" d="M678 370l144 288-72 136z"/><path fill="#910000" d="M586 634l-68 192-272-232z"/><path fill="#240f02" d="M630 958l24-144 84 88z"/><path fill="#9f0002" d="M154 598L22 546l432-176z"/><path fill="#ecfcf9" d="M34 614l-60-124 80 84z"/><path fill="#f65158" d="M674 338l-180-76 288 272z"/><path fill="#93bbc8" d="M742 622l-80-76-136 348z"/><path fill="#ffffec" d="M518 22l-160 8 88-52z"/><path fill="#9baba8" d="M466 434l24 64 60-72z"/><path fill="#b6020e" d="M-30 1086l440-84-216-152z"/><path fill="#a89e9f" d="M494 554l-204-44-148 92z"/><path fill="#485f61" d="M898 454L614-18 506 266z"/><path fill="#576f71" d="M-2 26l364 272-8-344z"/><path fill="#97ad80" d="M542 1086l12-188 344 112z"/><path fill="#8598a2" d="M98 1002l128-408-288 32z"/><path fill="#def3ef" d="M650 738l68 136 24-76z"/><path fill="#7a0003" d="M806 626L650 362l-88 116z"/><path fill="#8f0312" d="M538 550L322 278 142 494z"/><path fill="#acb2c3" d="M318 922l184 24-260-336z"/><path fill="#1d1411" d="M542 90L386 350l108-12z"/></g></svg>