<svg xmlns="http://www.w3.org/2000/svg" width="228" height="278" viewBox="0 0 836 1024"><path fill="#84898d" d="M0 0h836v1024H0z"/><g fill-opacity=".502"><path fill="azure" d="M570 278l48 808H-2z"/><path fill="#1c0b0c" d="M390 38L898-62l-96 508z"/><path fill="#f6fefb" d="M218 246l600 196L2 574z"/><path fill="#072b56" d="M438 38L-62 558 2-62z"/><path d="M778 714l-148 372 12-532zm-552 32L-62 866l268-360z"/><path fill="#401800" d="M494 410l136-208-248 52z"/><path fill="#5d7f7a" d="M394 762L170 470l496 204z"/><path fill="#dff1f9" d="M898 642L478 410l224-76z"/><path fill="#87b8fd" d="M178 38l-32 172L378 22z"/><path fill="#fcc090" d="M366 298l24-220 172 4z"/><path fill="#ffae67" d="M750 1086l148-304-116-236z"/><path d="M702 1074l56-124-168 52z"/><path fill="#f3f8ff" d="M674 894l-204 192L54 986z"/><path fill="#cdd6d5" d="M294 358l-76 392 392-324z"/><path fill="#262a2f" d="M-22 358l424-136-464-84z"/><path fill="#060e1d" d="M674 330L898 98 530 254z"/><path fill="#00000d" d="M202 510L90 762l140-36z"/><path fill="#00021c" d="M622 834l148-72-108-208z"/><path fill="#e3f0fa" d="M150 330l264-96-448 428z"/><path fill="#685159" d="M182 866l-220 204 56-476z"/><path fill="#ab7350" d="M438 306l-28-160 304-40z"/><path fill="#006ec6" d="M234 110l120-40-12 168z"/><path fill="#26a4d9" d="M202 370l164-100 12 84z"/><path fill="#789bc3" d="M730 26l168 212-36-300z"/><path fill="#d5e4f8" d="M50 922l520-88-484 252z"/><path fill="#99e3ff" d="M542 366l4-92 196 88z"/><path fill="#58726b" d="M294 662l304 32 60-136z"/><path fill="#0c1f27" d="M106-62h160L74 218z"/><path fill="#5b4320" d="M370 218l72 180 104-32z"/><path fill="#472d06" d="M802 726l12-84-124 24z"/><path fill="#070d0b" d="M526 58L742-62 566 146z"/><path fill="#000109" d="M702 170l196 88L734 74z"/><path fill="#1a2c2d" d="M886 610l-32-164-92-28z"/><path fill="#b4b7af" d="M222 718l424 192-60-224z"/><path fill="#aa817e" d="M-62 306l92 160 104-104z"/><path fill="#d9e8ed" d="M890 598l-92-100-64 156z"/><path fill="#9c8c4f" d="M342 538l44-152h-76z"/><path fill="#f1a056" d="M-62 550l20 160 152-168z"/><path fill="#fbf6f3" d="M290 262l88-4 80 84z"/></g></svg>