<svg xmlns="http://www.w3.org/2000/svg" width="228" height="278" viewBox="0 0 836 1024"><path fill="#323337" d="M0 0h836v1024H0z"/><g fill-opacity=".502"><path fill="#a7bd98" d="M898 1074l-232-68-116-616z"/><path fill="#8fb889" d="M158 610l196 476-416-132z"/><path fill="#d8a981" d="M486 410l-8-292-224 44z"/><path fill="#190000" d="M226-58l672 4-72 556z"/><path fill="#01001a" d="M546 590L66 678-22-62z"/><path fill="#1839a0" d="M786 570L606 250 230 562z"/><path fill="#b6b500" d="M298 762l360-196-444 96z"/><path fill="#000025" d="M254 1062l460-20-360-436z"/><path fill="#c0c0e3" d="M78 902l4-208-144 168z"/><path fill="#c4c534" d="M350 750l264-60-48-76z"/><path fill="#290800" d="M410-30L-62-14v652z"/><path fill="#f7feff" d="M54 582l-116 64L62 514z"/><path fill="#000003" d="M618 630l48-136 232 316z"/><path fill="#acb2d2" d="M734 682L606 886l124 28z"/><path fill="#92724c" d="M318 374l-76-168L482 70z"/><path fill="#000031" d="M618 690v396L242 794z"/><path fill="#bfa9d0" d="M506 462l84 68 20-104z"/><path fill="#4560c0" d="M666 350l156 296-368-388z"/><path fill="#72a62b" d="M-62 1002l292-116 56 200z"/><path fill="#000014" d="M-62 758l324-440-28 340z"/><path fill="#00001f" d="M774 914l124-124-160-200z"/><path fill="#001746" d="M34 642l84-264 592 184z"/><path fill="#1b0800" d="M898 394L462 274 646-62z"/><path d="M322 262l-32-40 132-20z"/><path fill="#dfc7b0" d="M486 330L378 134l60-4z"/><path fill="#000116" d="M206 702l428 204-284 132z"/><path fill="#c8c100" d="M242 630l144 116-144-8z"/><path fill="#599141" d="M898 874l-332 76 248 136z"/><path fill="#284995" d="M74 462L50 598l184-256z"/><path fill="#39392f" d="M430 626h244l-268 96z"/><path fill="#0c2978" d="M614 686l64 380-144 20z"/><path fill="#050100" d="M334 154l76-100-460-84z"/><path fill="#e4d458" d="M250 546l8 24 76-44z"/><path fill="#9f8b9d" d="M702 642l-84 124 144 12z"/><path fill="#a58c78" d="M526 326l-96 72-92-188z"/><path fill="#031d69" d="M618 534l-52-200 308 380z"/><path d="M262 770L98 566l76-68z"/><path fill="#180000" d="M662 470l72 184-112 20z"/><path fill="#244769" d="M214 938L78 786l132-40z"/><path fill="#43302a" d="M602 142l-4 176L242-62z"/></g></svg>