<svg xmlns="http://www.w3.org/2000/svg" width="228" height="278" viewBox="0 0 836 1024"><path fill="#616678" d="M0 0h836v1024H0z"/><g fill-opacity=".502"><path fill="#b3d7ff" d="M266 314l484 40-460 732z"/><path fill="#120602" d="M886 402L830-62-62 14z"/><path fill="#a0cbff" d="M294 606l336 284-444 196z"/><path fill="#033a8d" d="M482 534l-20 524-132-560z"/><path fill="#c2cff6" d="M794 534L602 274 98 470z"/><path fill="#412d25" d="M682-62L442 382-62 74z"/><path fill="#233450" d="M586 722l-12-300 324 416z"/><path fill="#bdc9e4" d="M530 1038l-68-416 184 44z"/><path fill="#e3e8ff" d="M354 266L178 382l152 156z"/><path fill="#cf9a86" d="M466 70l120 284L302 90z"/><path fill="#10202b" d="M302-62l40 280-404 408z"/><path fill="#4e2d1f" d="M114 494L-62 666l600-124z"/><path fill="#623528" d="M562 982l204 104V518z"/><path fill="#000c18" d="M654 302l244 112-152 32z"/><path fill="#eae7fe" d="M294 906l-16-412 92 156z"/><path fill="#d7f6ff" d="M686 362L518 238l-40 156z"/><path fill="#c77954" d="M634 946l196-280-48-168z"/><path fill="#313531" d="M30 1086l216-248-308 12z"/><path fill="#712f0d" d="M510 322l-144 52 20-300z"/><path fill="#13528f" d="M602 870l140-200-168-228z"/><path fill="#4a8ae1" d="M494 886l48 200-340-228z"/><path fill="#d4d1ca" d="M750 934l148 32-88-132z"/><path fill="#efe3eb" d="M646 638V394l48 116z"/><path fill="#9dceff" d="M254 810l176 256-236-16z"/><path fill="#fdf6ff" d="M186 494l56-152-132 156z"/><path fill="#2c242d" d="M534 594l-172 4 156-68z"/><path fill="#031c41" d="M542 1034l308-16-136-92z"/><path fill="#4a4947" d="M254 414L-30 714l304 36z"/><path fill="#bb8260" d="M338 66l108 188-116-52z"/><path fill="#3885ed" d="M454 534l-4-196-100 148z"/><path fill="#525559" d="M98 562l116-452-276 240z"/><path fill="#1e364d" d="M898 474l-40-340-400 64z"/><path fill="#8c3b11" d="M754 506v160l-80-124z"/><path fill="#252b35" d="M898 742L682 926l124-236z"/><path fill="#171b2a" d="M46 118L-62-54l684 80z"/><path fill="#ede0e9" d="M462 378l4 216 44-96z"/><path fill="#ffedee" d="M358 722l-60 112 92 32z"/><path fill="#4478c0" d="M382 838l208 240-236-544z"/><path fill="#4d5d75" d="M226 430l128-24-108-16z"/><path fill="#fff" d="M582 870l-12 56-108-88z"/></g></svg>