<svg xmlns="http://www.w3.org/2000/svg" width="228" height="278" viewBox="0 0 836 1024"><path fill="#929496" d="M0 0h836v1024H0z"/><g fill-opacity=".502"><path fill="#edf6ff" d="M798 406l-860 40 524 640z"/><path fill="#1a1e16" d="M-62 410L38-62l860 344z"/><path fill="#16323c" d="M506-62h340l-4 760z"/><path fill="#fff" d="M650 1078l-712-64 680-304z"/><path fill="#240000" d="M146 1042L54 770l144-44z"/><path fill="#3a0000" d="M786 766l-120 320-40-360z"/><path fill="#363334" d="M266 658l12 124 368-124z"/><path fill="#350f18" d="M518 162L414 542 274-62z"/><path fill="#d9d3ee" d="M810 734l-236-8L450-6z"/><path fill="#ffff80" d="M898 986l-212 100 120-420z"/><path fill="#ecf6ff" d="M122 410l168-84-44 684z"/><path fill="#ffff7c" d="M-6 1058l180 20-216-496z"/><path fill="#3b5558" d="M-34 782L274-62-26-2z"/><path fill="#45464d" d="M334 762l220-4-4-104z"/><path fill="#090724" d="M334 238l200 156-236 20z"/><path fill="#d9e0fc" d="M214 354L6 774l480-184z"/><path fill="#e3e7ff" d="M138 1086l528-232-456-116z"/><path fill="#faffff" d="M466 290l308 308-56-192z"/><path fill="#505c57" d="M898 442L522 318 626-62z"/><path fill="#5a84dc" d="M606 586l-96-4-24-328z"/><path fill="#ff0700" d="M722 694l72-16-72-88z"/><path fill="#4e2600" d="M198 718l-48 276-92-128z"/><path fill="#ffff9e" d="M114 1086L-62 886 42 698z"/><path fill="#173f63" d="M318-62l148 168-528-8z"/><path fill="#583300" d="M646 1030l8-288 120 148z"/><path fill="#ffff9a" d="M898 762l-152 324 24-380z"/><path fill="#efe3dc" d="M446-62l-88 24 216 248z"/><path fill="#dee4fc" d="M82 1030l564-232-28 220z"/><path fill="#2b4d65" d="M758 434l128 252-100 20z"/><path fill="#074de4" d="M382 406l-80 28-28-128z"/><path fill="#dee8ff" d="M754 498L618 354 418 510z"/><path fill="#41220d" d="M422 450L274 182l228 164z"/><path fill="#004ee5" d="M426 554l-48-152 56 48z"/><path fill="#416022" d="M-2 634l104-12-92 92z"/><path fill="#3d3321" d="M622 746l148-24-8 144z"/><path fill="#636458" d="M722 410L898 86 390 214z"/><path fill="#533808" d="M50 730l52 212 100-164z"/><path fill="#ddded6" d="M58 730l60-312 140 324z"/><path fill="#fefb8d" d="M878 1054l-56-244-172 256z"/><path fill="#e7eaff" d="M566 654l-288-16 192-128z"/></g></svg>