<svg xmlns="http://www.w3.org/2000/svg" width="228" height="278" viewBox="0 0 836 1024"><path fill="#655255" d="M0 0h836v1024H0z"/><g fill-opacity=".502"><path fill="#f4dff6" d="M358 866L190 434l280-16z"/><path fill="#c9a092" d="M214-2l304 356-276 732z"/><path fill="#400" d="M806 1086l92-420-616 284z"/><path fill="#ffd8a7" d="M358 878l360-304 44 144z"/><path fill="#2b0000" d="M382 814l148-448 92 340z"/><path fill="#f6e2b9" d="M186 158L330-62 502 98z"/><path fill="#9e0013" d="M334 606l104-256-192 88z"/><path fill="#0a2b38" d="M834-62l64 976L442 30z"/><path fill="#213743" d="M-62 754l428 16-428-640z"/><path fill="#fff" d="M634 434l64 132-128-80z"/><path fill="#a9b0aa" d="M42 1086L-62 898l620-132z"/><path fill="#fff" d="M502 322l76 36-208 152z"/><path fill="#0b2d3a" d="M254 410L154-62-62 206z"/><path fill="#400000" d="M430 506l256 44-264 244z"/><path fill="#cff" d="M274 662l136-20-204-160z"/><path fill="#ffd5ad" d="M242 762l296 48-300 72z"/><path fill="#380000" d="M282 878l376 164 64-220z"/><path fill="#c4ffff" d="M530 338L338 690l48-224z"/><path fill="#fff" d="M238 406l24 104-84-36z"/><path fill="#435d6d" d="M254 682l-316 40 268 364z"/><path fill="#e5f5ff" d="M302 1018l-220 68-144-104z"/><path fill="#1a0000" d="M310 750l32-52-164-92z"/><path fill="#adffff" d="M594 646l120-72 16 60z"/><path fill="#483a34" d="M314 62l148 316 176-204z"/><path fill="#fcebd8" d="M190 142l52 156 8-244z"/><path fill="#d8143b" d="M574 338L462 454l184-12z"/><path fill="#78cbf5" d="M314 666l72 140 40-288z"/><path fill="#22383e" d="M134 498l208-204-252 48z"/><path fill="#1c303a" d="M-2-14l-60 192L470-62z"/><path fill="#290000" d="M626 694l-216-96 88-188z"/><path fill="#d39f7d" d="M230 1086l132-152-108-228z"/><path fill="#ac3246" d="M514 302L246 402l52 196z"/><path fill="#8e0f22" d="M270 874l140 212 220-84z"/><path fill="#510003" d="M570 734l-152 72-20-176z"/><path fill="#f9ffff" d="M682 510l-100-48 48 84z"/><path fill="#ffdcbc" d="M614 754l-132 52 216-176z"/><path fill="#ae8355" d="M438 102l-64 416L266 42z"/><path fill="#856321" d="M442 866l228-164 112 40z"/><path fill="#f6edd2" d="M442 18l36 64-204-64z"/><path fill="#7f0117" d="M514 410l156 176-68 56z"/></g></svg>