<svg xmlns="http://www.w3.org/2000/svg" width="228" height="278" viewBox="0 0 836 1024"><path fill="#73744e" d="M0 0h836v1024H0z"/><path fill="#d8e789" fill-opacity=".992" d="M588.976 248.466L201.707 451.567 514.806 1086l280.165-56.755z"/><path fill="#1a151b" fill-opacity=".992" d="M898-35.914L847.589 930.71l-208.04-591.86-316.8-337.245z"/><path fill="#13000f" fill-opacity=".631" d="M106.144 797.134L-62 718.251 13.964-62 331.11 256.71z"/><path fill="#c6cf75" d="M136.33 881.722l74.523-10.019 299.169-389.677-275.62 22.323z"/><path fill="#0a010d" fill-opacity=".643" d="M458.652 1011.124L-62 1050.264l295.22-181.73 102.85-152.47z"/><path fill="#7b7122" fill-opacity=".624" d="M516.32 547.08l-205.813-87.068 19.79 175.112 565.853-143.95z"/><path fill="#fefdd3" fill-opacity=".533" d="M638.927 327.635l-247.98-35.081-169.222 190.584 457.098 9.34z"/><path fill="#09162c" fill-opacity=".851" d="M458.038-62L172.024 108.361l-58.489 237.281L-62 7.208z"/><path fill="#bc886a" fill-opacity=".71" d="M450.79 52.89l-.83 230.116L347.559 398.16l-92.851-276.184z"/><path fill="#feffe1" fill-opacity=".533" d="M159.705 791.085l190.223-498.94L183.617 877.14-62 754.085z"/><path fill="#06070d" fill-opacity=".831" d="M455.173 151.443l15.78 106.406 405.803 63.82L821.442-62z"/><path fill="#694831" fill-opacity=".918" d="M-41.056 520.145L53.08 387.428l291.087-49.933-191.244 236.044z"/><path fill="#322825" fill-opacity=".961" d="M126.576 337.98l89.12 189.941L175.74 760.69l-64.398 58.935z"/><path fill="#b8cd9f" fill-opacity=".847" d="M45.517 950.506L28.141 795.242-62 921.288l291.052-90.599z"/><path fill="#8ca950" d="M681.6 487.045l164.086 579.878L611.26 516.75l49.813 34.498z"/><path fill="#edfa98" d="M445.194 1010.495L628.29 563.869 739.444 1086l-336.672-6.459z"/><path fill="#8bac29" fill-opacity=".545" d="M419.123 958.457l314.472-78.525L744.061 1086 893.48 784.519z"/><path fill="#eef9af" fill-opacity=".859" d="M315.517 427.91l-99.353 109.848-48.232 357.878 134.974-322.578z"/><path fill="#302532" fill-opacity=".678" d="M854.301 281.469l-224.28-49.24 71.06 349.336L898 1031.113z"/><path fill="#191511" fill-opacity=".694" d="M423.323 922.622l46.1 3.007L330.794 1086l-16.49-400.458z"/><path fill="#000a0a" fill-opacity=".675" d="M42.475 904.96L89.47 1086 12.93 920.477l45.072-94.88z"/><path fill="#504742" fill-opacity=".898" d="M320.433 92.408L533.673-62 145.94 100.129l104.721 75.56z"/><path fill="#b9c989" fill-opacity=".965" d="M428.32 300.556l112.57 59.427 77.192-56.06-111.015-36.52z"/><path fill-opacity=".541" d="M300.331 236.279l31.272 137.61-137.862-49.342 28.59-160.875z"/><path fill="#db94b6" fill-opacity=".259" d="M19.697 511.051L57.084 392.34l100.072 122.227-27.744 42.384z"/><path fill="#9ac62a" fill-opacity=".659" d="M361.332 632.512L123.407 952.316l164.704-153.183 51.106-173.759z"/><path fill="#dfff80" fill-opacity=".682" d="M513.637 566.984l140.843 51.845-224.952 319.103L326.86 658.517z"/><path fill="#e1fde8" fill-opacity=".698" d="M47.775 841.155L-15.14 941.203-62 761.11l50.338 29.533z"/><path fill="#cc957c" fill-opacity=".725" d="M253.95 192.93l96.025-134.98 54.647 189.43-105.462-25.495z"/><path fill="#74611b" fill-opacity=".529" d="M374.554 530.142L310.521 666.36l125.102-66.34 77.65-25.395z"/><path fill="#575145" fill-opacity=".396" d="M250.038 1058.91L-62 685.757l90.593 138.116 314.785 75.392z"/><path fill="#f4ffa4" fill-opacity=".549" d="M262.349 772.408L153.394 903.916l-27.106-72.006 109.596-156.233z"/><path fill="#212222" fill-opacity=".902" d="M129.897 569.586l-5.985 245.078L-52.67 673.832l232.528 103.934z"/><path fill="#ecfebb" fill-opacity=".635" d="M672.779 397.784l-101.362-77.566L482.09 534.86l174.085-30.14z"/><path fill="#e8f8ff" fill-opacity=".478" d="M53.273 763.868l-43.458 6.267 44.026 53.216 80.592 1.23z"/><path fill="#f58b48" fill-opacity=".592" d="M475.952 580.343l21.908-68.678-73.06-6.826-103.87-48.742z"/><path fill="#1a0700" fill-opacity=".573" d="M-62 205.99l210.599-13.845-6.689 110.514-179.038 126.624z"/><path fill="#d6fc75" fill-opacity=".549" d="M764.939 859.846L597.368 635.893 768.455 765.53l-91.004-232.89z"/><path fill="#11223a" fill-opacity=".737" d="M691.35 403.491l98.767-107.741-344.257-32.848 19.052-131.294z"/><path fill="#720f03" fill-opacity=".435" d="M805.793 257.827l91.313 225.002-114.078 1.636-47.977-83.852z"/><path fill="#faffbc" fill-opacity=".773" d="M535.373 902.718l156.916-26.5-120.305-93.304-109.732 29.963z"/><path fill="#ffd" fill-opacity=".62" d="M445.214 326.655l-189.37 110.107 120.877 41 45.616 34.609z"/><path fill="#9b7216" fill-opacity=".51" d="M322.543 377.414l-137.082-20.08-12.622 116.828 75.085-17.245z"/><path fill="#a9d1a3" fill-opacity=".475" d="M86.973 846.298L30.74 914.36l46.467 58.087 49.402-61.8z"/><path fill="#c3ef57" fill-opacity=".553" d="M212.391 726.442l29.724-48.102-13.081-90.218 182.996 105.78z"/><path fill="#020f00" fill-opacity=".455" d="M45.588 969.432l-77.591 24.999 213.744 44.352L-62 855.483z"/><path fill="#092d5b" fill-opacity=".6" d="M87.44-21.072l-49.53 220.52 49.78-37.119L213.277 19.3z"/><path fill="#626d3d" fill-opacity=".678" d="M898 986.5L716.225 865.65l125.067-50.28L829.61 1086z"/><path fill="#026c03" fill-opacity=".133" d="M637.478 593.914L526.617 533.49l123.857-47.607L769.436 820.62z"/><path fill="#010d1e" fill-opacity=".525" d="M-26.401 706.354l75.994 144.399 77.006 8.9L10.05 809.54z"/><path fill="#283c4e" fill-opacity=".776" d="M754.827 497.538l-3.121 236.822-55.999-197.616-22.947-75.424z"/><path fill="#2a5b0a" fill-opacity=".2" d="M494.158 499.775l-35.38-115.785-13.658 14.78-23.062 37.488z"/><path fill="#766c1e" fill-opacity=".522" d="M423.206 255.163l49.06 37.394-54.5 15.87L303.6 242.802z"/><path fill="#fef8f7" fill-opacity=".294" d="M204.593 543.105L342.745 332.18l-42.87 146.883 58.228 55.864z"/><path fill="#fafcd1" fill-opacity=".761" d="M119.035 823.804l60.937-58.524 46.247 38.181-47.63 55.704z"/><path fill="#c2e640" fill-opacity=".502" d="M790.18 900.205l1.869 131.933-174.853-145.281-183.088 58.367z"/><path fill="#8f8174" fill-opacity=".553" d="M343.812 11.289l78.99 4.904 32.622 69.811-21.134-38.561z"/><path fill="#060303" fill-opacity=".608" d="M487.728 52.802L245.129-62h629.4l-4.384 381.765z"/><path fill="#3e1f0d" fill-opacity=".635" d="M210.952 554.077l10.133 18.832-73.461-241.662-144.027-51.16z"/><path fill="#f2fd3c" fill-opacity=".573" d="M524.826 977.646l-77.82 82.668 26.414-17.94 148.675-82.6z"/><path fill="#85b023" fill-opacity=".557" d="M244.833 850.166l-96.798 74.998-36.286-122.252 30.38 65.05z"/><path fill="#5e504e" fill-opacity=".898" d="M212.41 972.508L315.133 1086h13.142-222.121z"/><path fill="#7e5f54" fill-opacity=".745" d="M346.771 103.886l-9.902 36.127 114.092 4.061-7.647-31.067z"/><path fill="#e6a690" fill-opacity=".541" d="M247.504 148.86l173.027 1.797-29.356-64.75-13.501 112.126z"/><path fill="#0d0d0a" fill-opacity=".659" d="M804.61 710.117l-35.69-175.535 111.407 25.522L898 856.568z"/><path fill="#15100f" fill-opacity=".71" d="M332.926 335.632L256.65 186.268l.402-72.962-68.98 127.436z"/><path fill="#bef053" fill-opacity=".208" d="M7.448 925.6L-62 1067.749l201.04-122.788L8.151 1061.292z"/><path fill="#251b18" fill-opacity=".62" d="M315.682 38.034l338.214 21.74-353.09 13.856 15.87-2.806z"/><path fill="#9c9d38" fill-opacity=".6" d="M281.692 458.597l75.817 11.133 86.764 134.31-86.15-79.391z"/><path fill="#283200" fill-opacity=".353" d="M313.468 687.128l-58.968 23.63 79.587 18.51-57.183 172.012z"/><path fill="#c2d99e" fill-opacity=".792" d="M590.179 283.877l22.372 19.22 43.003 80.746-57.238 35.627z"/><path fill="#f4ffa9" fill-opacity=".502" d="M619.884 663.189l116.549 102.358-72.255 59.715L427.545 583.53z"/><path fill="#fffec3" fill-opacity=".871" d="M443.225 1015.966L413.068 1086 633.25 955.064 630.671 1086z"/><path fill="#d6f86f" fill-opacity=".824" d="M456.067 697.5l280.484 188.85 21.11 79.628-242.913-298.76z"/><path fill="#1b1617" fill-opacity=".8" d="M-18.982 761.85l122.434 10.419-64.938-49.33-59.665-292.424z"/><path fill="#513f32" fill-opacity=".671" d="M725.034 663.508L782.438 784.7l61.894 72.857-69.255-228.44z"/><path fill="#ffffd6" fill-opacity=".447" d="M492.38 997.522l-69.627-129.176 72.99 27.375L414.204 1086z"/><path fill="#d8f579" fill-opacity=".933" d="M305.227 568.253l9.782 53.855 126.059 284.411-167.239-291.312z"/><path fill="#9d5e6b" fill-opacity=".153" d="M101.947 307.055l10.222 418.955-60.407-8.179-34.686-298.548z"/><path fill="#0d0d0f" fill-opacity=".518" d="M264.444 1086l185.36-144.372 5.377 65.382-59.37-156.94z"/><path fill="#000019" fill-opacity=".294" d="M280.145 818.074L6.315 1071.778 88.59 1086l286.577-339.509z"/><path fill="#f5fca0" fill-opacity=".525" d="M440.847 255.82l-2.611 97.773-125 68.368 156.531-153.487z"/><path fill="#592709" fill-opacity=".349" d="M528.061 572.182l73.188-14.197-188.126 39.355 14.577-52.706z"/><path fill="#140a09" fill-opacity=".58" d="M371.423-59.028L229.38-62l-2.262 144.508 23.176 1.377z"/><path fill="#fec7ae" fill-opacity=".224" d="M446.685 105.528l-162.163-8.945 30.191-78.324-52.038 48.334z"/><path fill="#fffde3" fill-opacity=".51" d="M644.604 445.16l-180.56 67.119 80.607 17.962 15.476-179.165z"/><path fill="#101821" fill-opacity=".518" d="M2.3 929.884l36.197-11.05 35.201-81.06L-62 988.163z"/><path fill="#031b36" fill-opacity=".482" d="M576.796 241.293l197.403-2.39-54.538 75.201 17.647 198.868z"/><path fill="#a2ba00" fill-opacity=".369" d="M729.186 869.82l-116.997 48.197-185.596 23.873 325.351-86.366z"/><path fill="#c2ff71" fill-opacity=".365" d="M489.129 547.798l31.157 18.975 139.018-38.132 10.933-76.502z"/><path fill="#f9f9cf" fill-opacity=".412" d="M242.39 598.365l95.378-28.88-104.372-89.845-51.09 253.373z"/><path fill="#bac4ad" fill-opacity=".596" d="M128.498 864.2l-62.332-3.598-27.451 61.739 58.827 20.636z"/><path fill="#c7ff66" fill-opacity=".31" d="M697.376 626.948l-1.205-3.23-38.786-223.33 55.127 190.85z"/><path fill="#9bb87b" fill-opacity=".435" d="M692.495 670.733l87.26 102.742 44.43 78.068-45.373-32.791z"/><path fill="#dfed92" fill-opacity=".914" d="M550.4 474.63l-158.028 31.452 125.629-53.437-6.566-148.205z"/><path fill="#1e211c" fill-opacity=".694" d="M171.713 775.145l-46.643 32.107-179.967-108.838 213.267 49.65z"/><path fill="#302827" fill-opacity=".671" d="M319.786 1069.122L199.614 927.274l228.307 141.716 23.371-146.554z"/><path fill="#d7e4e6" fill-opacity=".435" d="M72.444 837.165l19.385-7.413 7.8-39.804-108.483-32.717z"/><path fill="#99bc32" fill-opacity=".906" d="M306.005 759.856l-71.144 107.845 64.93-138.794-77.9 17.74z"/><path fill="#070000" fill-opacity=".251" d="M146.344 866.859l-19.92 93.905 4.2-132.054-49.574 13.308z"/><path fill="#354b43" fill-opacity=".459" d="M794.4 1062.501l2.759-166.558 46.06 88.87L898 647.84z"/><path fill="#faff91" fill-opacity=".459" d="M762.197 932.4l-44.7-17.653-31.184-64.293-84.095 162.329z"/><path fill="#cfff64" fill-opacity=".502" d="M769.693 815.08l-92.611 72.815 40.281-160.157-222.089-200.355z"/><path fill="#543931" fill-opacity=".424" d="M390.305 827.695l-95.97 125.698-62.54 5.551 129.512-191.1z"/><path fill="#082452" fill-opacity=".329" d="M94.832 602.407l99.534 82.088-22.874-100.4-69.552-57.435z"/><path fill="#bef588" fill-opacity=".306" d="M817.804 880.385l-16.344-73.417 23.621 194.757 10.647 21.921z"/><path fill="#759e0a" fill-opacity=".298" d="M326.481 742.264l-21.809-83.835-95.808-77.009 66.522 69.137z"/><path fill="#101d25" fill-opacity=".612" d="M76.409 856.207L30.67 798.198-62 759.5v-13.229z"/><path fill="#0e1501" fill-opacity=".212" d="M618.829 535.347l190.359-120.425-173.491 131.049 57.456 158.224z"/><path fill="#bdcf08" fill-opacity=".353" d="M706.528 910.585l48.426-42.646-126.333 100.445 183.68-101.588z"/><path fill="#02010a" fill-opacity=".671" d="M9.62 71.685L83.124 4.891l105.286-6.21-230.29-10.173z"/><path fill="#e4ff71" fill-opacity=".38" d="M295.858 701.353l-142.98 192.503-27.45-31.235 105.362-15.867z"/><path fill="#6a5f56" fill-opacity=".569" d="M237.094 115.046L409.19-59.837 313.503 58.328l-15.07 110.49z"/><path fill="#e7f793" d="M235.638 798.559l-11.26-125.274 70.963 17.517-104.61 33.62z"/><path fill="#14120d" fill-opacity=".467" d="M196.964 269.036l104.602 129.783 30.29-61.76-76.233-157.56z"/><path fill="#130c08" fill-opacity=".443" d="M708.532 209.088L655.853 21.336 415.074 150.543l-9.212-27.431z"/><path fill="#cfdfd4" fill-opacity=".906" d="M-62 785.786l92.123-9.374-69.849-26.359 82.284 118.151z"/><path fill="#e7ff85" fill-opacity=".58" d="M596.334 571.568l-158.742 20.496-46.9 80.735 171.09 23.13z"/><path fill="#fb7e34" fill-opacity=".494" d="M411.028 520.067l66.575-19.887 23.934 68.741-62.822-24.347z"/><path fill="#7b8d8b" fill-opacity=".514" d="M508.157 493.1l-73.097 10.288 4.14.52 48.147-28.863z"/></svg>