<svg xmlns="http://www.w3.org/2000/svg" width="228" height="278" viewBox="0 0 836 1024"><path fill="#634b4b" d="M0 0h836v1024H0z"/><g fill-opacity=".502"><path fill="#ffcdd6" d="M462 1006L186 362l444 12z"/><path fill="#000507" d="M-62-46L6 1058 374-22z"/><path fill="#fff" d="M254 1018l116-520 16 328zm4-372l-68 408-36-180z"/><path fill="#001623" d="M430 22l412 532 24-616z"/><path fill="#910000" d="M474 782l-148 228 132-564z"/><path fill="#fffbff" d="M218 338l104-44-68 324z"/><path fill="#490000" d="M518 838l116-480 148 208z"/><path d="M546 1086l44-168-452 92z"/><path fill="#980000" d="M262 490l32 356 108-612z"/><path fill="#f6e5ed" d="M478 774l192-424-120-48z"/><path fill="#fff" d="M366 422l96-56-76 368z"/><path fill="#c54938" d="M62 566l216-316-120 396z"/><path fill="#e2f9ff" d="M546 782l20-312-172 500z"/><path fill="#c20f16" d="M562 290l-92 416-16-320z"/><path fill="#e0af70" d="M526 930l276-340-24 176z"/><path fill="#b5bcb1" d="M586 582L254 458l-12 108z"/><path fill="#f5ffff" d="M290 834l16 180 104-376z"/><path fill="#630000" d="M558 638l188-76-80-320z"/><path fill="#00283f" d="M618 982l208-8 68-344z"/><path fill="#222c28" d="M242 478l-304 528 216-12z"/><path fill="#bd935c" d="M586 170L374 22l-48 188z"/><path fill="#c6ced1" d="M210 650l24 180 56-336z"/><path fill="#a00000" d="M470 954l100-4 16-316z"/><path fill="#b50000" d="M290 850l-24-188-52 344z"/><path fill="#800" d="M402 930l-4-256 92-36z"/><path fill="#5a7889" d="M126 910l88-156-192-16z"/><path fill="#640000" d="M230 330l-12 388-80-320z"/><path fill="#e4f3f0" d="M422 1014l-52-28-40 68z"/><path fill="#0f170d" d="M562 122l-56 148 160 76z"/><path fill="#d0b28c" d="M210 502L58 602l28-84z"/><path fill="#fff" d="M150 978l52 16 4-196z"/><path fill="#d2c37b" d="M418 366l92-56-184-16z"/><path d="M350 346l132 20-76 20z"/><path fill="#aeaba1" d="M566 522H238l320 96z"/><path fill="#fff" d="M458 946l56-112-128 112z"/><path fill="#03080a" d="M-62 218V-22l532-8z"/><path fill="#fff" d="M230 506l20-172h76z"/><path fill="#103f49" d="M634 822l176-308-228 180z"/><path fill="#000002" d="M126 1010l308-64-168 128z"/></g></svg>