<svg xmlns="http://www.w3.org/2000/svg" width="228" height="278" viewBox="0 0 836 1024"><path fill="#445a6a" d="M0 0h836v1024H0z"/><g fill-opacity=".502"><path fill="#8e9087" d="M486 66l212 800-336-288z"/><path fill="#8da899" d="M-62 674l196 384 32-472z"/><path fill="#06286f" d="M422 10l400 548 76-612z"/><path fill="#0c0400" d="M374-14l-56 172 220-96z"/><path fill="#183b87" d="M46 498L-62-6l508-56z"/><path d="M666 434l-68 56 148 268z"/><path fill="#00100d" d="M30 678l220-192-16-140z"/><path fill="#9ca88a" d="M898 606l-140-12 56 492z"/><path fill="#858f97" d="M622 690l-44 340-220-188z"/><path fill="#0b1400" d="M774 870l-184 216 12-220z"/><path fill="#1a302c" d="M-62 906l296-8 300-220z"/><path fill="#cd9a55" d="M510 102l-20 256L386 98z"/><path fill="#76a3b6" d="M-62 402v376l216-368z"/><path fill="#000f0e" d="M526 950l-284-24 188 100z"/><path fill="#9db8d0" d="M86 1042l352 28L94 918z"/><path fill="#0e1c0a" d="M-62 822l116 264 28-212z"/><path fill="#bad1c7" d="M602 614l-156-68-164 24z"/><path fill="#7b907c" d="M258 882l-36-352-284 292z"/><path fill="#26444e" d="M170 538l292-52 156 96z"/><path fill="#eeb579" d="M810 858l-56 56 144 172z"/><path fill="#664816" d="M470 334L386 46l-24 296z"/><path fill="#608093" d="M550 242L278 478l432-64z"/><path fill="#021c19" d="M766 870l4-188-120-168z"/><path fill="#362c0b" d="M678 986l172 84-112-184z"/><path fill="#869aa5" d="M702 446l-28 92 100 88z"/><path fill="#2b4e56" d="M202 570l328 88-28 248z"/><path fill="#c95561" d="M554 758l44 136 4-272z"/><path fill="#b7bcaf" d="M286 534l156 52-180-8z"/><path fill="#1f2a27" d="M150 1010l-4-160 88-4z"/><path fill="#1e3b6f" d="M346 106l-408-4 408 244z"/><path fill="#152627" d="M266 418l-108-12 112 264z"/><path fill="#1c1508" d="M482 146l-96 24 112 12z"/><path fill="#618974" d="M594 874l64-292 76 224z"/><path fill="#f0818d" d="M374 470l68-32-8 76z"/><path fill="#7697a4" d="M534 958l112 100-208-80z"/><path fill="#60889b" d="M278 930l-60-96 292 96z"/><path fill="#c8d2f6" d="M134 906l-8 160-36-152z"/><path fill="#ffc697" d="M38 786l-28 52-56-164z"/><path fill="#0a1004" d="M530 98l-208-4 80-84z"/><path fill="#1b3c47" d="M70 522L30 742l84-144z"/></g></svg>