<svg xmlns="http://www.w3.org/2000/svg" width="228" height="278" viewBox="0 0 836 1024"><path fill="#585f6d" d="M0 0h836v1024H0z"/><g fill-opacity=".502"><path d="M866 322L878-2-62 2z"/><path fill="#fcffff" d="M530 1086l76-288-668 196z"/><path fill="#fff" d="M350 574l116-424 184 200z"/><path fill="#0c0000" d="M518 790l316 52 56-680z"/><path fill="#ebffff" d="M814 1086L626 986l272-196z"/><path fill="#c3ddff" d="M298 674l268-36-320 296z"/><path fill="#fff" d="M-62 974l180 112-40-356z"/><path fill="#aed4ff" d="M218 550l4-296 324 268z"/><path fill="#00257c" d="M390 330L-42 430l760 40z"/><path fill="#060000" d="M54-62L-62 158h936z"/><path fill="#fff" d="M262 214l-324-8 252-64z"/><path fill="#000064" d="M262 914l160 60 264-96z"/><path fill="#000042" d="M666 754L382 854l-132-96z"/><path fill="#0a0000" d="M466-62L226 242l168 112z"/><path fill="#00001e" d="M234 546l480 48-504 84z"/><path fill="#fff" d="M654 370l-264-24 124-116z"/><path fill="#200" d="M182 1006l116-256-68-236z"/><path fill="#fff" d="M570 954L46 978l484 108zM270 270L150 382l176-52zm104 644l-116-64 360-8z"/><path fill="#1a1111" d="M506 502l332 188-88 292z"/><path fill="#fff" d="M266 438l96 108-152-32z"/><path fill="#000100" d="M334-62L898 2 654 274z"/><path fill="#efefef" d="M574 718l-300-76 36 108z"/><path fill="#200" d="M602 814v272l112-312z"/><path fill="#fff" d="M730 1086l168-72-76-176z"/><path fill="#cdcfd2" d="M358 338l-420-76 88 104z"/><path fill="#c0eaff" d="M646 966l56-108 40 228z"/><path fill="#fff" d="M630 366l-96 44-100-272zM246 858l132 24-96-96z"/><path fill="#2f3028" d="M178 326l32 180-272-28z"/><path fill="#fff" d="M554 1014l-396 68 68-164z"/><path fill="#00297b" d="M442 914l-260-36 208 88z"/><path fill="#aba9c1" d="M534 518l172-60-8 100z"/><path fill="#000f4e" d="M210 602l452-84-216 136z"/><path fill="#fff" d="M366 462l76 96 56-104z"/><path fill="#1d4e92" d="M318 382l164-164-152 308z"/><path fill="#d8f8ff" d="M162 1070L42 806l-60 268z"/><path fill="#0c0200" d="M362 18l-56 352 128-96z"/><path fill="#000d3c" d="M650 370l-176 72 108 60z"/></g></svg>