<svg xmlns="http://www.w3.org/2000/svg" width="228" height="278" viewBox="0 0 836 1024"><path fill="#583845" d="M0 0h836v1024H0z"/><path fill="#c0b7d0" fill-opacity=".918" d="M430.466 1086l-207.59-493.287-24.846 289.166L898 877.906z"/><path fill="#010107" fill-opacity=".749" d="M352.834-22.553l117.224 241.722 387.104 137.886-4.724-395.546z"/><path fill="#574dda" fill-opacity=".875" d="M256.578 940.213L356.476 1086l50.514-220.75-64.878-243.117z"/><path fill="#3f0100" fill-opacity=".784" d="M531.26 804.296L162.74 520.703l12.024-305.133 496.603 151.05z"/><path fill="#f43342" fill-opacity=".518" d="M591.357 473.826L721.235 916.15l-167.852-44.99-45.641-326.634z"/><path fill="#fdbf80" fill-opacity=".435" d="M296.129 289.213L237.8 115.805 370.013 68.2l133.285 223.485z"/><path fill="#dccfaf" fill-opacity=".533" d="M177.642 777.515l194.399-91.29-20.127-100.448-195.44 86.547z"/><path fill="#f8ddc6" fill-opacity=".51" d="M172.1 360.377L-23.782 181.486l153.734-32.953-19.103 461.49z"/><path fill="#f3eff3" fill-opacity=".753" d="M722.449 957.588L603.662 1086l-29.657-252.522L302.535 1086z"/><path fill="#dacacb" fill-opacity=".592" d="M8.698 698.464l52.531-9.182 2.015-266.964-41.342 4.413z"/><path fill="#f95e71" fill-opacity=".761" d="M618.851 286.983L661.264 397.2 898 414.293l-57.132-56.874z"/><path fill="#010500" fill-opacity=".584" d="M675.586 49.031L-62-62l53.158 239.173L698.428-62z"/><path fill="#010001" fill-opacity=".6" d="M898 430.916l-456.688-51.012 217.06 132.328 163.346 237.947z"/><path fill="#010354" fill-opacity=".773" d="M269.944 939.544l-116.235-80.628L4.48 1072.35 321.245 1086z"/><path fill="#fff7f8" fill-opacity=".306" d="M501.423 938.903l235.23-235.309 146.54 81.66-99.516 2.36z"/><path fill="#0c1205" fill-opacity=".333" d="M713.612 836.826L634 851.892 534.124 1086l72.884-.61z"/><path fill="#2d0809" fill-opacity=".929" d="M185.613 123.964l277.88 464.926-210.406 7.476-87.247 78.287z"/><path fill="#cfc7e4" fill-opacity=".902" d="M299.644 869.783l-11.096 16.224-92.69 19.373 80.728-117.76z"/><path fill="#d5b173" fill-opacity=".635" d="M96.437 326.862L54.26 162.138l63.226-15.454 55.88 117.974z"/><path fill="#242324" fill-opacity=".525" d="M200.95 878.049L-62 817.604l278.707-53.643 44.724 21.462z"/><path fill="#100508" fill-opacity=".89" d="M602.604 495.225l19.054-294.976-114.133 106.276-90.475-20.782z"/><path fill="#47000c" fill-opacity=".541" d="M477.6 875.553l130.793-112.155-67.838-149.656-208.599 114.482z"/><path fill="#655e8e" fill-opacity=".765" d="M133.682 802.417L49.598 1034.54-62 797.201l220.466 135.422z"/><path fill="#ddd7ff" fill-opacity=".596" d="M247.705 695.388l-75.61 60.67-2.633-74.989 78.52-87.359z"/><path fill="#ff3239" fill-opacity=".518" d="M201.623 623.408l-153.929 70.12L67.762 631.4l59.004-49.272z"/><path fill="#b8a8c3" fill-opacity=".796" d="M409.555 853.28l-92.33-151.967 169.04 229.322L356.43 1086z"/><path fill="#ada4f4" fill-opacity=".6" d="M172.567 349.07l-31.657-60.05-28.575 194.053 1.417 74.628z"/><path fill="#1a001a" fill-opacity=".62" d="M240.393 470.737L36.71 614.204l300.11-79.97-75.133 171.478z"/><path fill="#f9f7fc" fill-opacity=".855" d="M563.783 852.574l61.032 23.09-92.286 200.803-106.252-62.843z"/><path fill="#191625" fill-opacity=".816" d="M124.074 354.218L-62 241.338l12.943 312.695 190.632-282.018z"/><path fill="#322319" fill-opacity=".867" d="M178.332 186.765l167.434-2.223 6.926-16.951L25.695 106.51z"/><path fill="#9e96c3" fill-opacity=".741" d="M646.178 900.078L888.4 834.926l-58.99 102.598-196.448-25.55z"/><path fill="#1d1514" fill-opacity=".784" d="M872.158 803.736l-88.48-12.124-150.016 108.27 69.861-10.858z"/><path fill="#ecfaff" fill-opacity=".604" d="M508.451 255.235l-37.344 51.824 62.159-25.004L539 280.22z"/><path fill="#001a01" fill-opacity=".549" d="M898 1006.043l-199.522 4.209 22.209-76.04 136.403 11.67z"/><path fill="#f9d4a9" fill-opacity=".396" d="M242.994 78.38l137.303 135.145L353.91 60.31l-124.554 85.948z"/><path fill="#f03148" fill-opacity=".62" d="M412.37 214.466l49.126.982-68.603 130.646-32.751-9.946z"/><path fill="#73523b" fill-opacity=".973" d="M-4.915 261.164l142.476-43.887-182.346-16.278 65.077-49.94z"/><path fill="#dcede7" fill-opacity=".467" d="M658.5 535.441l-4.404 11.677-45.073-12.504 64.312-48.947z"/><path fill="#fcffff" fill-opacity=".494" d="M773.131 853.6l-132.369 218.042 37.877-155.546-57.766 19.026z"/><path fill="#ca4e58" fill-opacity=".631" d="M674.183 819.345L417.09 863.729l9.762-147.808 17.79 183.421z"/><path fill="#d1ccce" d="M685.059 795.13l45.253 39.782 20.112-50.593-36.06 17.364z"/><path fill="#070594" fill-opacity=".51" d="M334.967 676.82L300.35 814.363l-14.581 16.76-8.592-92.168z"/><path fill="#0007a4" fill-opacity=".424" d="M53.043 428.186l141.33-152.28-81.133 150.086 1.303 100.185z"/><path fill="#03080b" fill-opacity=".647" d="M744.904 754.23l-7.738 31.092-14.43 17.773-29.931-33.756z"/><path fill="#e0a827" fill-opacity=".282" d="M164.596 791.142l39.116 67.86 148.006-208.769-14.796-74.44z"/><path fill="#d1d5ff" fill-opacity=".306" d="M-27.953 553.088l228.678-41.601-139.877 7.821-4.71-127.871z"/><path fill="#ed2e45" fill-opacity=".447" d="M678.976 714.362l-55.312-118.06-55.023 251.297 106.26 37.587z"/><path fill="#490200" fill-opacity=".384" d="M15.07 647.444l52.885-92.075 679.01-215.271L183.274 602.13z"/><path fill="#796f8b" fill-opacity=".851" d="M83.91 699.927l61.083 157.8-29.678-144.593 20.123-21.917z"/><path fill="#cebfd4" fill-opacity=".561" d="M144.398 880.43l-2.896 12.713-50.485 30.544 35.091-84.934z"/><path fill="#a8b0a7" fill-opacity=".471" d="M681.936 623.202l9.143-41.232 38.13 97.776-110.611-65.573z"/><path fill="#01002c" fill-opacity=".545" d="M169.294 1016.145l-52.99-341.87 32.905-22.795L226.357 1086z"/><path fill="#e3f0fd" fill-opacity=".698" d="M460.208 246.758l27.273 9.05-18.626 22.371-25.74 4.585z"/><path fill="#1a1315" fill-opacity=".988" d="M872.343 542.277l17.156 256.972L720.808 582.89l-36.56 89.68z"/><path fill="#e2ab8e" fill-opacity=".839" d="M32.123 675.33l36.791 10.36 17.73-42.667-148.644.472z"/><path fill="#00085a" fill-opacity=".639" d="M360.757 734.988l52.57 109.864 14.463-93.328-37.68-65.037z"/><path fill="#160c10" fill-opacity=".937" d="M399.975 318.594l85.975-47.56-60.036-326.09 76.542 331.871z"/><path fill="#890007" fill-opacity=".373" d="M512.676 631.989L338.92 437.854l77.286-120.235L546.12 495.35z"/><path fill="#4d3e30" fill-opacity=".741" d="M190.77 283.192l49.926-55.667 57.25-1.395 48.37 85.816z"/><path fill="#bfbabe" fill-opacity=".969" d="M589.372 887.989l49.755 74.076-50.75 69.84 47.678-18.36z"/><path fill="#010406" fill-opacity=".588" d="M652.134 938.11l90.43-99.116-56.728-20.902-6.86 112.324z"/><path fill="#af1e2f" fill-opacity=".569" d="M590.337 357.848l99.234 63.504-85.785-164.639 69.583 40.628z"/><path fill="#010f0d" fill-opacity=".427" d="M62.177 773.451l53.113 81.247-147.76 6.33 128.082-210.68z"/><path fill="#eaf9ff" fill-opacity=".49" d="M367.231 763.851l37.15 64.75-53.577-54.782-12.013-87.364z"/><path fill="#0115a4" fill-opacity=".463" d="M261.808 675.03l39.14-50.095-35.666-70.167-32.336 39.89z"/><path fill="#030907" fill-opacity=".518" d="M-43.544 523.797l182.638-251.784 174.829 373.225-129.395-396.744z"/><path fill="#ffb7c2" fill-opacity=".278" d="M602.073 370.626l139.23 49.969-21.938-106.388L898 394.248z"/><path fill="#100" fill-opacity=".529" d="M429.674 410.219L644.97 519.887l15.31-177.567 26.994 41.388z"/><path fill="#f4f2f5" fill-opacity=".592" d="M708.11 957.11l23.509-21.983-98.23-16.179-.12-40.03z"/><path fill="#ffeecd" fill-opacity=".404" d="M230.25 758.564l-105.587-3.149 143.305-42.745 27.228 178.992z"/><path fill="#0b0500" fill-opacity=".506" d="M424.004 294.315L659.76-62H422.945l22.431 282.74z"/><path fill="#020000" fill-opacity=".278" d="M652.4 938.677l-77.975 46.718 7.465 44.9 29.011-148.565z"/><path fill="#dee8dd" fill-opacity=".471" d="M748.129 769.723l35.127-17.673-70.811-69.894 3.853-27.737z"/><path fill="#2819d8" fill-opacity=".341" d="M230.596 912.338L333.777 1086l96.557-313.677-22.98 52.531z"/><path fill="#f0bd94" fill-opacity=".392" d="M297.302 191.17l-25.364-25.834-26.124 92.737 13.98 1.816z"/><path fill="#5a89fe" fill-opacity=".322" d="M60.679 746.085l64.245 2.24-.142 40.074-80.465 4.477z"/><path fill="#c4fae5" fill-opacity=".251" d="M646.643 553.73l-22.39 31.405 77.146 18.135 11.267 56.072z"/><path fill="#ffc59e" fill-opacity=".294" d="M132.036 592.738l51.702-139.097-79.783 3.26 60.38-106.326z"/><path fill="#fffdfe" fill-opacity=".498" d="M632.317 973.176l120.799-93.57-85.526 82.836-82.116-52.084z"/><path fill="#020500" fill-opacity=".573" d="M731.15 693.364l-11.668 47.874-30.867-29.349-37.693-6.328z"/><path fill="#18121d" fill-opacity=".592" d="M615.851 993.817l20.733-.658 26.695-25.199-62.832 19.934z"/><path fill="#ae8b55" fill-opacity=".361" d="M360.553 55.392l5.667 281.039 66.567-152.949-.578-105.709z"/><path fill="#2b2679" fill-opacity=".639" d="M438.864 1019.713L190.627 1086 39.192 881.987l1.57 184.404z"/><path fill="#7a0a04" fill-opacity=".373" d="M672.486 676.923L511.9 870.08l-80.292-11.92 5.652-127.016z"/><path fill="#fcca91" fill-opacity=".384" d="M156.776 279.042l8.22-5.848 8.24-41.3-182.47 22.267z"/><path fill="#221b39" fill-opacity=".545" d="M898 36.195L679.483 280.798 898 390.31 620.137 103.227z"/><path fill="#3f0c01" fill-opacity=".702" d="M59.94 718.628l-84.394 1.436 74.238-28.046 184.912-76.081z"/><path fill="#8e7ab2" fill-opacity=".804" d="M732.83 953.714l-1.708-5.173L898 894.394l-148.786-43.341z"/><path fill="#170100" fill-opacity=".294" d="M381.799 648.177l-113.88 92.654L467.627 486.7l6.437 237.74z"/><path fill="#93030a" fill-opacity=".404" d="M711.1 383.732l-11.624 21.136L898 470.97v-55.688z"/><path fill="#d2e5c7" fill-opacity=".212" d="M345.078 764.48l-8.196-18.797 51.604-68.963-78.445-132.478z"/><path fill="#000007" fill-opacity=".757" d="M218.051 1086l102.203-2.22-96.983-93.084-87.718-60.613z"/><path fill="#070301" fill-opacity=".62" d="M606.902 573.446l37.865 35.959 61.524-53.458-33.047 69.752z"/><path fill="#180602" fill-opacity=".816" d="M396.177 361.372l-149.715-90.575-63.543 34.683-21.558 96.35z"/><path fill="#1e170a" fill-opacity=".655" d="M227.56 182.79l25.143 104.323L144.04 211.41l-27.196-92.244z"/><path fill="#510000" fill-opacity=".533" d="M649.948 740.295l-214.435 67.118 203.839 21.683-151.573 17.366z"/><path fill="#211600" fill-opacity=".424" d="M358.215 230.06L296.92 404.402l70.846-105.596-81.427-139.495z"/><path fill="#c9d4cf" fill-opacity=".475" d="M691.631 755.073l-8.543-40.873 88.354 58.981-44.612-54.015z"/><path fill="#878ee8" fill-opacity=".263" d="M-62 840.47l188.707 23.182-114.545 215.83 66.896-174.88z"/><path fill="#e1dde0" fill-opacity=".604" d="M581.431 908.794l25.194-32.738-19.518 142.722 27.383 3.923z"/><path fill="#140b0b" fill-opacity=".761" d="M573.986 436.314l27.61-497.355-139.812 284.398 173.096 77.385z"/><path fill="#2c0000" fill-opacity=".698" d="M641.752 720.081l-177.838 41.35-18.786 22.473 94.142-18.92z"/><path fill="#ff5f78" fill-opacity=".545" d="M557.398 801.487l-24.042 28.728 162.602-25.008-84.062-8.857z"/><path fill="#43240b" fill-opacity=".671" d="M202.645 783.821l37.192-9.558 3.907 45.072-38.856-35.277z"/><path fill="#9f606f" fill-opacity=".478" d="M252.14 424.93l-19.307 10.458 69.878 12.22-8.61-23.82z"/><path fill="#fb415d" fill-opacity=".612" d="M638.633 312.589l-33.683-57.332 121.668 89.077-110.817 9.88z"/><path fill="#df2e44" fill-opacity=".412" d="M616.412 560.335l-95.342-10.281 181.375 288.145-36.56-133.927z"/><path fill="#f4c696" fill-opacity=".482" d="M49.72 171.144l18.062 94.004 36.215-114.085 33.656 65.595z"/><path fill="#231119" fill-opacity=".698" d="M729.756 788.676l17.13-19.888-62.484 12.503-6.603-42.661z"/><path fill="#0a0400" fill-opacity=".612" d="M45.595 335.037l63.537 1.854-49.704 103.92 50.67-5.656z"/><path fill="#000105" fill-opacity=".302" d="M360.596 49.966L239.81 134.563 331.394-62-24.597 105.983z"/><path fill="#f9f1fe" fill-opacity=".224" d="M61.666 435.05l-18.282-41.86-22.766 155.29 36.635 66.874z"/><path fill="#e6faff" fill-opacity=".122" d="M172.613 159.568l158.26-87.466 84.475 71.597-240.313-72.195z"/><path fill="#e4e6ff" fill-opacity=".298" d="M189.69 667.62L66.163 706.075l197.673-20.257-26.287-73.976z"/><path fill="#191c17" fill-opacity=".612" d="M766.29 845.313l-17.143-65.748L898 817.435l-92.09 44.097z"/><path fill="#dffff3" fill-opacity=".314" d="M695.166 692.58l-63.46-89.965 38.57 21.477 6.603 65.285z"/><path fill="#f96d69" fill-opacity=".275" d="M562.712 732.946l-127.055 9.478-31.855 126.236 45.352-100.14z"/><path fill="#507e0d" fill-opacity=".498" d="M898 1000.168l-174.014-.916-171.197 81.092L708.426 1086z"/><path fill="#283009" fill-opacity=".396" d="M65.84 951.18l-79.834 133.556 44.227-114.493 21.33-105.372z"/></svg>