<svg xmlns="http://www.w3.org/2000/svg" width="228" height="278" viewBox="0 0 836 1024"><path fill="#817e4d" d="M0 0h836v1024H0z"/><g fill-opacity=".502"><path fill="#000025" d="M430-62L70-54-62 694z"/><path fill="#83c0fd" d="M622 1042l276-24L830 6z"/><path fill="#d1bc10" d="M270 1086l-44-788 672 228z"/><path fill="#fdffd2" d="M386 1086l-448-60 188-260z"/><path fill="#00002c" d="M370 30l272-76-16 356z"/><path fill="#ffff43" d="M290 294l60 148-404 12z"/><path fill="#ffff29" d="M762 522L638 298l-216-44z"/><path fill="#003a8a" d="M-62 1006L98 814 66 354z"/><path fill="#00528a" d="M866 782L750 374l-8 704z"/><path fill="#000216" d="M22 302L94 94l380 200z"/><path fill="#fff" d="M646 846l20 240 84-200z"/><path fill="#605700" d="M686 666L-2 494l464 304z"/><path fill="#ffbbe2" d="M290 874l420-188-244 200z"/><path fill="#f1e100" d="M190 1058l12-244 292 184z"/><path fill="#5d5500" d="M550 1082l220-420-432 328z"/><path fill="#e5d6df" d="M898 238L762-62l52 716z"/><path fill="#000009" d="M330 890L178 778l96-24z"/><path fill="#ceffff" d="M62 1086L-62 946l164-96z"/><path fill="#341629" d="M342 254L618 90l160 184z"/><path fill="#ff5d58" d="M866-62L662 194 614 66z"/><path fill="#ecf21b" d="M746 390l-448 84 100 116z"/><path fill="#002c73" d="M142 1086h80l-84-220z"/><path fill="#001328" d="M122-62l252 48L70 494z"/><path fill="#bcc2d1" d="M46 354l88 108-196-48z"/><path fill="#ffc5b0" d="M290 90l160-28-40 88z"/><path d="M482 970l148 12 16-116z"/><path fill="#ead500" d="M178 650l-64-60 80-208z"/><path fill="#17112b" d="M794 402l-40 156-44-196z"/><path fill="#323300" d="M154 502l176 244-100-316z"/><path fill="#542e00" d="M398 594l200-68 24 112z"/><path fill="#ffff2d" d="M298 270L110 418l212 36z"/><path fill="#ffff37" d="M474 766l-244-24 152 96z"/><path fill="#ffff40" d="M698 362L490 254l-28 92z"/><path fill="#000024" d="M198 890l-4 40 108-4z"/><path fill="#809ecb" d="M-62 102L42 258 54-62z"/><path fill="#fffe0d" d="M618 630l-8-268 88 236z"/><path fill="#ba9289" d="M450 874l352-360 56 152z"/><path d="M654 686l-116 24-56 72z"/><path fill="#584723" d="M338 386l280 8-352-180z"/><path fill="#4491d8" d="M254 706l-88 156 72-292z"/></g></svg>