<svg xmlns="http://www.w3.org/2000/svg" width="228" height="278" viewBox="0 0 836 1024"><path fill="#2b2a31" d="M0 0h836v1024H0z"/><g fill-opacity=".502"><path fill="#ffcdae" d="M418 58l-224 56 224 304z"/><path fill="#ffe0ba" d="M538 810l360-404-152 316z"/><path fill="#fff" d="M518 1086l-324-64 436-40z"/><path fill="#c8d3e3" d="M630 294l116 144-352-196z"/><path fill="#000005" d="M898 550L830-62 318 30zM-58-62l28 772L310-62z"/><path fill="#888783" d="M162 670l332-92-404-16z"/><path fill="#000912" d="M186 998l48-416 520 340z"/><path fill="#050f14" d="M558 270L122 538l624 48z"/><path fill="#9e918f" d="M378 222L118 330l524-12z"/><path fill="#db9d88" d="M698 710l-232 44 184 48z"/><path fill="#ffffd2" d="M470 406l-40 56 52 12z"/><path fill="#fff" d="M702 386l-52 88 64-60z"/><path fill="#b6c6ce" d="M490 614l-24-56-144 44z"/><path fill="#cb9e8e" d="M218 50l40 260 172-156z"/><path fill="#f4af9b" d="M806 506l92 36-288 204z"/><path fill="#000406" d="M118 394l36 140 248-292z"/><path fill="#a8bbce" d="M122 346l56-40-80 164z"/><path fill="#f4ffff" d="M486 1006l-256 80-40-72z"/><path fill="#a89b95" d="M494 258L354 394l-68-48z"/><path fill="#000810" d="M402 814l288-212-432 8z"/><path fill="#030a1e" d="M898 542L634 818l264 268z"/><path fill="#00060e" d="M434 286l136 36 20 392z"/><path fill="#9a7d6b" d="M182 518l-64 92 100 144z"/><path d="M74 510L-46 682l184 8z"/><path fill="#000001" d="M442 122l-36 88 252 112z"/><path fill="#534334" d="M246 106l212-68-240-60z"/><path fill="#e2faff" d="M266 414l8 32h-48z"/><path fill="#483e49" d="M550 778l112-8-4 316z"/><path fill="#0d1937" d="M442 1086l-40-64 268-20z"/><path fill="#fff" d="M546 1022l60-32-156 8z"/><path fill="#e9bca8" d="M318 58l8 156 128 68z"/><path fill="#121119" d="M338 158L2 122l-40 96z"/><path fill="#000108" d="M258 278L190 62l-64 252z"/><path fill="#081119" d="M426 586l-192-40 216-236z"/><path fill="#cbd2de" d="M686 414l-48-96h-56z"/><path fill="#01070d" d="M674 414l-88-84-168 424z"/><path fill="#0a1119" d="M366 1014l-156-8 224-444z"/><path fill="#e5d79d" d="M438 414l12 56 44-40z"/><path fill="#f6feff" d="M442 614l-12-40 44 36z"/></g></svg>