<svg xmlns="http://www.w3.org/2000/svg" width="228" height="278" viewBox="0 0 836 1024"><path fill="#8f8e8d" d="M0 0h836v1024H0z"/><path fill="#1e2319" fill-opacity=".62" d="M830.422-62H-62l40.653 330.39 910.37-21.824z"/><path fill="#d4ddef" fill-opacity=".678" d="M644.364 445.823L129.732 262.889l216.548 784.877 344.271-88.65z"/><path fill="#e5dffc" fill-opacity=".624" d="M-62 1008.86V646.79l181.685 141.55 91.767 205.128z"/><path fill="#7a6251" fill-opacity=".996" d="M460.408 382.695l-104.61-62.12L345.23-12.573l358.958 279.48z"/><path fill="#291000" fill-opacity=".576" d="M820.308 852.248l-82.593-301.01-56.212-65.426-46.592 118.532z"/><path fill="#101519" fill-opacity=".953" d="M318.186 1061.204l305.838-82.803 66.835-14.136L752.239 1086z"/><path fill="#bcc2ce" fill-opacity=".949" d="M115.53 767.85l500.088-484.174 107.805 109.862L520.886 775.19z"/><path fill="#c9cfdd" fill-opacity=".902" d="M704.366 688.39l61.864 105.368-235.42 209.57-391.315-414.756z"/><path fill="#250010" fill-opacity=".286" d="M351.701 840.04L405.953 1086 297.67 938.577l-331.343-71.274z"/><path fill="#8d714c" fill-opacity=".741" d="M18.562 570.315L137 384.487l194.524-144.172L-62 275.919z"/><path fill="#f8fafc" fill-opacity=".498" d="M792.832 699.575L746.197 532.81 898 527.204V1086z"/><path fill="#757c7f" fill-opacity=".996" d="M83.71 633.27l202.565-97.874-43.338-79.459-33.881 13.547z"/><path fill="#848055" fill-opacity=".988" d="M898 220.672L768.608 554.386l-62.931-232.062-220.574-29.036z"/><path fill="#192523" fill-opacity=".341" d="M356.22 556.92l2.231 42.373 253.195-10.116 153.31-49.985z"/><path fill="#d7e2ee" fill-opacity=".529" d="M166.513 337.794l475.976 50.405-409.313 75.022-183.24 92.55z"/><path fill="#c14302" fill-opacity=".373" d="M28.076 710.098l262.557 230.866-59.762-128.587L50.699 592.305z"/><path fill="#001521" fill-opacity=".376" d="M-29.538 1.078l68.8 221.015 178.114 14.908L460.957-55.272z"/><path fill="#510200" fill-opacity=".4" d="M672.659 874.704l10.28 83.323 88.214-30.87 40.698-122.85z"/><path fill="#ffc7b5" fill-opacity=".38" d="M516.988 75.07l-109.093 47.647-47.038 146.286L350.762 47.3z"/><path fill="#e2e4f8" fill-opacity=".678" d="M-62 981.12l309.808-64.27L345.794 1086 221.45 959.714z"/><path fill="#170800" fill-opacity=".361" d="M572.536 364.024l-180.239-3.871L704.052-62 452.719-39.368z"/><path fill="#e2e7f4" fill-opacity=".608" d="M281.01 306.465l16.682 192.266 212.952 50.155-157.288-249.581z"/><path fill="#0a1616" fill-opacity=".486" d="M510.423 454.097l-62.89 7.72 31.163-46.175 38.031 4.878z"/><path fill="#ead7ff" fill-opacity=".435" d="M862.334 983.08L593.46 960.175l198.31-23.643 51.063-283.866z"/><path fill="#000b15" fill-opacity=".498" d="M314.2 254.453l43.331 60.756 58.406 48.571 48.34-7.33z"/><path fill="#dfdfba" fill-opacity=".592" d="M65.474 613.15l-50.997 56.144-59.324-96.863 84.806-33.315z"/><path fill="#c4d4ea" fill-opacity=".733" d="M647.065 486.552l-108.792 66.28 187.57-205.37-160.996-57.528z"/><path fill="#4e5e60" fill-opacity=".996" d="M647.08 261.689l83.572-204.284-135.698 22.603-35.517 168.063z"/><path fill="#0c0c0b" fill-opacity=".749" d="M467.79 8.569l-81.75 36.744 130.942 23.56 73.027-23.125z"/><path fill="#421f17" fill-opacity=".651" d="M248.475 852.985l65.323 46.358-107.879 13.46-28.902-31.458z"/><path fill="#aa9b4a" fill-opacity=".678" d="M723.878 559.921l-1.804-123.283L898 354.821l-8.104 146.54z"/><path fill="#e9e6f5" fill-opacity=".773" d="M-62 680.244l16.953 159.048 200.158-13.324-35.737-37.642z"/><path fill="#fec2a1" fill-opacity=".424" d="M362.09 155.831l143.634 27.5-81.117 23.698-89.415-21.468z"/><path fill="#464138" fill-opacity=".71" d="M568.774 130.934l-408.771 48.8L420.541-62l-71.63 178.915z"/><path fill="#ddeafc" fill-opacity=".494" d="M585.702 984.83l-219.98 55.567L542.667 844.84l164.75 81.127z"/><path fill="#01751d" fill-opacity=".518" d="M71.736 521.238l36.488 117.525 29.079-3.767-85.46-64.389z"/><path fill="#061710" fill-opacity=".204" d="M566.034 451.915l9.495-62.169 55.837-1.608-18.738 117.38z"/><path fill="#cfcecf" fill-opacity=".376" d="M413.57 961.462L194.325 566.23l82.985-87.76L103.658 651.9z"/><path fill="#9492ab" fill-opacity=".631" d="M-49.152 897.055l241.552 40.62-34.128-101.91-165.652 27.93z"/><path fill="#ba7d69" fill-opacity=".898" d="M117.112 719.615l156.079 79.05 28.477 81.151-163.871-95.091z"/><path fill="#b0b7c4" d="M109.143 489.408L337.877 336.52l.211-63.697L140.896 546.52z"/><path fill="#c1cedf" fill-opacity=".82" d="M656.416 591.6L575.38 913.318 460.828 528.054l-1.205 82.873z"/><path fill="#f6fdfc" fill-opacity=".576" d="M367.777 70.267l36.603-24.509-31.093 60.693-19.653 5.718z"/><path fill="#fff0ff" fill-opacity=".384" d="M742.429 746.615l-8.092 148.757 31.786-75.399-233.404-54.652z"/><path fill="#969daa" fill-opacity=".757" d="M413.458 820.907l162.36-100.748-200.462 101.077-149.37 129.004z"/><path fill="#d7e0f1" fill-opacity=".616" d="M624.218 335.807l-115.582 31.655L633.833 548.4l-160.356-50.83z"/><path fill="#9ba1a6" fill-opacity=".976" d="M353.073 459.238l437.238 49.56-295.02-26.542-122.881-12.209z"/><path fill="#676745" fill-opacity=".894" d="M762.087 389.132L669.66 313.81 898 319.008l-71.409 58.464z"/><path fill="#392a22" fill-opacity=".255" d="M692.497 411.21l-49.18 164.91 29.198 90.022 162.97 181.617z"/><path fill="#4d5c67" fill-opacity=".341" d="M320.624 955.88l289.4-163.328-316.96 147.663-116.256-95.108z"/><path fill="#e37d4f" fill-opacity=".29" d="M428.782 43.555l118.846 62.82L403.445 227.18l78.479 65.26z"/><path fill="#497402" fill-opacity=".384" d="M797.543 987.617L509.5 1074.97 797.626 1086 898 999.945z"/><path fill="#5d2a2b" fill-opacity=".349" d="M791.354 875.316l-119.096-51.13-5.318 49.633 90.751 70.958z"/><path fill="#75858d" fill-opacity=".816" d="M113.32 469.219l44.545-36.476-40.027 97.903-14.326 20.488z"/><path fill="#e6e7ef" fill-opacity=".463" d="M393.299 486.391L248.442 772.832l-17.46-207.445 281.986-28.101z"/><path fill="#0b0d0f" fill-opacity=".792" d="M554.311 344.863l-43.902 22.706 48.118-62.993 11.808 18.7z"/><path fill="#948776" fill-opacity=".51" d="M470.881 400.121l69.758-150.68 114.973 72.02-96.587-18.721z"/><path fill="#00070c" fill-opacity=".592" d="M369.302 288.911l42.052 73.763-72.568-81.026 39.139-27.954z"/><path fill="#c6d2ec" fill-opacity=".271" d="M776.76 870.409L156.622 1086l106.456-106.109 132.654-54.74z"/><path fill="#69876f" fill-opacity=".545" d="M117.452 243.955L-62 287.854l483.411-17.952-94.646-30.679z"/><path fill="#3bfe6a" fill-opacity=".459" d="M26.87 593.246l66.851-12.866 23.902 31.852-46.108 4.415z"/><path fill="#e5eaf8" fill-opacity=".647" d="M243.085 493.11l154.153-140.92 14.003 107.847 113.864-56.809z"/><path fill="#a6afb6" fill-opacity=".953" d="M631.542 521.713l24.744 96.44 35.869 107.344-48.949-23.537z"/><path fill="#ddd8eb" fill-opacity=".882" d="M20.673 997.018l181.66-25.956 36.395-26.88L-62 932.258z"/><path fill="#c0c7d3" d="M504.034 675.873l-23.754-171.61 47.265 195.965-2.513-215.164z"/><path fill="#a3abb6" fill-opacity=".855" d="M297.122 291.571l-79.04 23.236-48.907 86.94 191.55-146.919z"/><path fill="#5c3616" fill-opacity=".353" d="M82.315 763.035l56.368 2.71-162.366-129.28 4.439 14.286z"/><path fill="#c6bfa7" fill-opacity=".337" d="M711.9 507.648l-32.965 18.239 205.141-9.449-145.331 94.017z"/><path fill="#484b4e" fill-opacity=".506" d="M393.167 594.056l-26.262 10.957-7.365-63.244 23.574 5.457z"/><path fill="#a7a9b2" fill-opacity=".737" d="M244.46 745.616l4.835 3.213 246.32-195.506-209.957 145.001z"/><path fill="#798d54" fill-opacity=".8" d="M84.544 1013.248l127.527-6.635L302.744 1086l-356.703-67.282z"/><path fill="#eff5f5" fill-opacity=".639" d="M128.352 458.176l68.77-125.672-51.465 55.777-31.992 52.21z"/><path fill="#7e97a6" fill-opacity=".337" d="M605.296 140.345L569.773 25.017l63.568 52.679-6.157 89.01z"/><path fill="#c78b68" fill-opacity=".471" d="M91.715 619.659L308.27 906.087 160.532 738.975-49.93 650.216z"/><path fill="#a09b64" fill-opacity=".745" d="M220.84 291.358L107.731 434.799l26.476-161.385 214.084-1.972z"/><path fill="#300a01" fill-opacity=".376" d="M486.025 152.477l-68.712 18.548-11.424-54.33 55.12 1.498z"/><path fill="#0d0d0c" fill-opacity=".506" d="M580.704 174.553l7.842-27.78-1.429-68.732-76.168-89.937z"/><path fill="#c7f6fb" fill-opacity=".294" d="M90.643 587.084l-25.56-71.36 13.393-11.249 69.922 81.549z"/><path fill="#212b3a" fill-opacity=".192" d="M217.602 431.602l-107.2 224 130.41-151.608 11.911-57.122z"/><path fill="#915343" fill-opacity=".345" d="M34.654 564.191L-62 289.023l174.666 7.131 17.432 113.887z"/><path fill="#d7dcea" fill-opacity=".576" d="M342.445 422.61l78.516-48.466-65.544-62.782-136.325 231.85z"/><path fill="#36403a" fill-opacity=".965" d="M898 34.436l-268.848 29.27L347.16-62h342.998z"/><path fill="#d8e0f0" fill-opacity=".706" d="M758.012 761.31L396.506 902.794l5.597 47.4L608.229 846.38z"/><path fill="#0e1c25" fill-opacity=".525" d="M249.051 45.649l-280.8 30.625-12.777-36.347L212.116-62z"/><path fill="#869e83" fill-opacity=".345" d="M794.792 229.114L898 279.703 521.73 301.37l43.689-40.264z"/><path fill="#949eaf" fill-opacity=".514" d="M465.584 912.845l5.458 11.02 145.953-1.64-121.76-15.32z"/><path fill="#140700" fill-opacity=".373" d="M786.82 878.391l-33.19 66.55-59.819-12.081 2.35 20.186z"/><path fill="#6d737b" fill-opacity=".988" d="M496.712 556.296l-34.31.005-47.726 13.174 81.166-28.73z"/><path fill="#ffd5b6" fill-opacity=".259" d="M387.75 290.358l58.724 3.344-70.433 26.915-25.016-191.806z"/><path fill="#4d575e" fill-opacity=".408" d="M528.247 598.847l66.148-19.651 42.294-30.424-106.507 4.47z"/><path fill="#0c5546" fill-opacity=".208" d="M712.449 109.862L898 90.786l-57.42 166.722-292.546-12.352z"/><path fill="#483c3e" fill-opacity=".212" d="M136.561 592.315l204.832-76.569-140.87 13.788 148.855-79.113z"/><path fill="#c8c9ce" fill-opacity=".439" d="M214.1 998.695l-177.08 13.777 231.972-73.646-96.337-43.106z"/><path fill="#3f4d3f" fill-opacity=".682" d="M452.266 250.03l-78.11 12.216-51.006-155.982L147.785 217.14z"/><path fill="#f7aa8e" fill-opacity=".29" d="M517.733 171.556l-138.954-5.772 16.223-175.948 11.334 201.221z"/><path fill="#c8d9ef" fill-opacity=".682" d="M712.285 413.074l-164.08-56.445 105.18-44.618 64.094 47.797z"/><path fill="#805d44" fill-opacity=".671" d="M707.11 490.92l46.233 175.348 59.546 140.654-56.245-215.54z"/><path fill="#e4eaf8" fill-opacity=".843" d="M327.946 370.142l-84.547 62.67 86.809 26.965 149.729 9.159z"/><path fill="#ebf4ff" fill-opacity=".333" d="M428.798 532.305l47.914 45.608 3.83-26.71-121.3 20.429z"/><path fill="#b5babb" fill-opacity=".867" d="M226.385 579.84l-55.834-1.639-18.855 24.24 62.398 96.816z"/><path fill="#b7aac0" fill-opacity=".796" d="M710.854 984.809L898 977.972l-69.315-180.676-67.128 149.889z"/><path fill="#a18d8c" fill-opacity=".843" d="M230.076 777.067l9.315 128.805-5.724-105.407 106.01-83.592z"/><path fill="#e9f3ff" fill-opacity=".533" d="M392.77 894.124l228.085-113.658-63.957 21.731-218.365 96.997z"/><path fill="#2483b1" fill-opacity=".235" d="M670.394 420.658l3.594 132.922 45.695-33.866-12.284-117.13z"/><path fill="#e3edfc" fill-opacity=".671" d="M539.467 996.927l28.546-51.418 96.623-62.853-.906 79.689z"/><path fill="#021720" fill-opacity=".282" d="M232.693 981.506l-24.58-9.032 25.756-16.961L276.353 1086z"/><path fill="#364544" fill-opacity=".929" d="M71.868 57.742L83.13 209.693l128.985 9.213L-62 272.292z"/><path fill="#185402" fill-opacity=".439" d="M135.77 626.01l-44.89-14.597-29.744 7.401 65.301 13.624z"/><path fill="#d8e4f5" fill-opacity=".427" d="M658.265 535.127l2.62-125.25L555.548 558.46l-184.374-31.58z"/><path fill="#6f7a97" fill-opacity=".259" d="M319.192 1030.69l278.146-65.033-178.528 27.451-125.822-139.577z"/><path fill="#342a23" fill-opacity=".482" d="M756.063 758.511l18.94-13.672-111.357-237.42-18.605 81.527z"/><path fill="#020001" fill-opacity=".42" d="M529.013 364.659l-52.91 7.33-126.623-77.207 58.529 66.849z"/><path fill="#e5e3e7" fill-opacity=".298" d="M248 792.245l26.093-295.194-72.344 228.473-95.668-48.54z"/><path fill="#121e23" fill-opacity=".094" d="M380.515 630.539l-57.898 40.422 140.302-15.668 103.78-15.027z"/><path fill="#8a563c" fill-opacity=".486" d="M596.468 174.42l-35.945-12.917-41.856 212.81-59.678-.985z"/><path fill-opacity=".271" d="M477.645 459.4l-21.1-11.825 34.617-38.082 27.054 32.458z"/><path fill="#091929" fill-opacity=".267" d="M258.101 346.53l37.09 10.942-13.29 20.577-21.998-29.795z"/><path fill="#ced7e7" fill-opacity=".961" d="M569.117 480.68l-98.637-97.56 195.384 6.502L561.06 346.15z"/><path fill="#d1d6e1" fill-opacity=".596" d="M227.04 1014.233L295.22 1086 180.19 928.004l57.533 65.312z"/><path fill="#c2d3e7" fill-opacity=".792" d="M628.49 743.268l20.19-182.307 2.357-111.438-41.824 319.163z"/></svg>