<svg xmlns="http://www.w3.org/2000/svg" width="228" height="278" viewBox="0 0 836 1024"><path fill="#7a7d7b" d="M0 0h836v1024H0z"/><path fill="#d0d5e2" fill-opacity=".702" d="M681.401 344.186L898 1009.329 224.788 1086l27.25-681.282z"/><path fill="#2d2d19" fill-opacity=".8" d="M2.601-3.456l.078 405.664L898 308.752 849.104-29.033z"/><path fill="#3c4b3d" fill-opacity=".675" d="M-62 551.993l678.907 142.939-340.478 42.066L71.2 103.164z"/><path fill="#172313" fill-opacity=".745" d="M898 672.44l-379.03-505.3L546.511-62l263.33 186.87z"/><path fill="#fff3f2" fill-opacity=".357" d="M676.408 677.24L534.943 296.877 464.154-8.018 358.066 576.938z"/><path fill="#f5f6f8" fill-opacity=".765" d="M622.224 390.704l38.646 660.833-253.987-302.776 201.738-49.164z"/><path fill="#ab948e" fill-opacity=".992" d="M619.273 523.22l220.787 507.676L898 537.738 735.001 647.715z"/><path fill="#c2cbe2" fill-opacity=".608" d="M188.024 922.158l-72.058 126.558-.622-309.294 69.52-105.05z"/><path fill="#dce7f7" fill-opacity=".675" d="M551.962 323.529L289.95 533.759l377.464-38.457-26.235-154.278z"/><path fill="#551704" fill-opacity=".4" d="M31.836 839.094l-2.834-132.13L137.11 592.767 67.84 1086z"/><path fill="#aa604d" fill-opacity=".541" d="M387.685 399.534L326.31 220.716 529.77 50.618l-29.612 342.67z"/><path fill="#c0cee6" fill-opacity=".62" d="M84.633 593.38L-55.435 927.59l90.292 1.529-49.381-341.56z"/><path fill="#4c5054" fill-opacity=".737" d="M353.215 673.623l284.75-47.113-471.758 30.51 460.797-7.675z"/><path fill="#1d2519" d="M544.138 128.777L476.46-62 898 401.85l-413.2-96.444z"/><path fill="#8b9ead" fill-opacity=".612" d="M212.793 1086l24.341-734.198 61.804 356.256 203.967 111.356z"/><path fill="#23311e" fill-opacity=".624" d="M-39.57 548.266L206.89 45.1l214.587-1.643L83.224 548.934z"/><path fill="#fdfcff" fill-opacity=".349" d="M868.716 1027.616L784.688 721.55l-83-172.697L898 646.608z"/><path fill="#ffc5ad" fill-opacity=".49" d="M478.789 402.617l33.476-268.972-64.342 11.69 40.284 420.297z"/><path fill="#687a9a" fill-opacity=".643" d="M366.934 309.063l-195.776 93.611L42.07 666.51l245.89-261.988z"/><path fill="#01072c" fill-opacity=".173" d="M883.31 1086L630.488 555.276l29.385-70.83-41.906-161.075z"/><path fill="#2a3722" fill-opacity=".627" d="M754.485 551.418l66.76 40.578L898-62H615.814z"/><path fill="#4f5d64" fill-opacity=".639" d="M173.294 638.928l-42.588 74.674-52.912-113.15 298.023-61.34z"/><path fill="#020404" fill-opacity=".78" d="M324.662 659.471l-21.603-17.364-8.784 67.223 30.072 15.281z"/><path fill="#d9e2ec" fill-opacity=".714" d="M228.497 454.672l425.765 197.18L349.61 371.706l-94.056 65.08z"/><path fill="#e3e9ef" fill-opacity=".675" d="M538.09 1086l140.474-84.985 8.66-50.76-220.25-2.955z"/><path fill="#72483f" fill-opacity=".612" d="M329.668 366.798l57.583 31.34 66.47.342 4.214-444.363z"/><path fill="#9eb6dc" fill-opacity=".784" d="M620.16 339.975l-136.204-36.813 41.538 62.113 194.938 69.191z"/><path fill="#1e1a0d" fill-opacity=".369" d="M596.68 692.45l24.475-29.781-56.325-31.04 55.805-12.972z"/><path fill="#3c4e5b" fill-opacity=".263" d="M626.653 540.329l-59.127 42.76-52.81-44.92 63.475-51.095z"/><path fill="#4c5834" fill-opacity=".702" d="M215.259 300.636L-62 317.205-29.217-62l155.692 189.139z"/><path fill="#b5d0f0" fill-opacity=".604" d="M672.91 358.54l73.956 137.744 4.807 70.526-35.138 65.998z"/><path fill="#fffefd" fill-opacity=".62" d="M637.194 412.045l.402 630.256-31.481-535.277-139.752-127.275z"/><path fill="#ccd1d8" fill-opacity=".914" d="M447.555 672.404l-27.152-6.671 223.345 295.775L415.312 744.62z"/><path fill="#ec5800" fill-opacity=".18" d="M773.011 872.634L898 1084.814 758.64 601.297l-68.02 120.808z"/><path fill="#001d16" fill-opacity=".392" d="M242.608-53.655l106.53 412.788-106.523-55.495L127.352 72.724z"/><path fill="#685748" fill-opacity=".996" d="M474.327 68.782L459.334-62 71.137 18.486 133.583-62z"/><path fill="#9dadba" fill-opacity=".902" d="M240.26 511.105l131.306 132.342-96.489 3.935L233.16 532.71z"/><path fill="#140c01" fill-opacity=".322" d="M472.778 664.997l118.453-23.41-35.665 96.563 11.598-77.96z"/><path fill="#d1d7e0" fill-opacity=".878" d="M489.975 746.107l12.534-91.625L538.9 845.06 336.692 718.43z"/><path fill="#5d6974" fill-opacity=".988" d="M294.04 786.696l-70.137-266.55-152.61 167.916 95.898-261.542z"/><path fill="#b2bac7" fill-opacity=".89" d="M23.94 746.142l36.743-110.068L-62 668.575l90.39 212.356z"/><path fill="#040015" fill-opacity=".31" d="M421.876 658.493l-79.173 9.623 157.485 27.073-154.574 19.988z"/><path fill="#97a4af" d="M373.75 669.217l14.223 150.076-59.095-140.24 7.935 100.5z"/><path fill="#3c1915" fill-opacity=".365" d="M475.337 194.716l154.946-86.787-378.62 126.964 13.57-252.455z"/><path fill="#697e94" fill-opacity=".769" d="M119.16 963.9l16.194 62.55L308.156 1086l-78.314-121.107z"/><path fill="#34b1fd" fill-opacity=".176" d="M820.025 721.374L898 450.604l-251.05 273.69 2.518-314.88z"/><path fill="#fefdfe" fill-opacity=".353" d="M514.254 844.342l-77.633-148.814 245.788 266.471-141.55-317.836z"/><path fill="#fcb798" fill-opacity=".416" d="M432.978 320.078l53.388 92.12-14.611-29.927 40.797-216.573z"/><path fill="#fd8355" fill-opacity=".396" d="M58.301 991.276l20.708 51.568 76.713 26.871-43.126-110.28z"/><path fill="#526972" fill-opacity=".596" d="M188.08 423.543l52.174 17.544-23.33 328.533L203.156 1086z"/><path fill="#94a4af" fill-opacity=".549" d="M460.402 1005.002l-115.832-6.073-74.861-258.238L496.392 845.04z"/><path fill="#c3cad1" fill-opacity=".992" d="M396.484 655.233l-77.294 1.444 90.29 4.082 240.447-25.108z"/><path fill="#637fae" fill-opacity=".675" d="M57.052 1086L39.056 893.649l-93.446 89.285L-62 1081.7z"/><path fill="#030002" fill-opacity=".302" d="M263.714 715.716l154.596.449 73.482-4.757 103.778-15.476z"/><path fill="#e8eaff" fill-opacity=".188" d="M215.718 647.69l8.586-33.925 61.665 166.062L273.046 1086z"/><path fill="#764d43" fill-opacity=".886" d="M302.648 179.49l124.461 23.402 51 83.238-159.298-52.64z"/><path fill="#826554" fill-opacity=".765" d="M521.876 142.622l-7.419-82.534L331.057-62 543.085 91.217z"/><path fill="#32302f" fill-opacity=".439" d="M28.343 789.57l93.665 71.34-60.303 1.778-6.48 189.503z"/><path fill="#b1bac7" fill-opacity=".98" d="M803.298 925.476L632.108 723.62 700.61 1086l128.583-56.862z"/><path fill="#f9ffff" fill-opacity=".431" d="M639.676 603.233l-20.488-42.036L410.29 635.83l161.483-4.959z"/><path fill="#352a21" fill-opacity=".349" d="M242.115 535.047l-120.828 187.67-26.4 26.098 58.489-134.173z"/><path fill="#bbc2ca" fill-opacity=".984" d="M448.513 667.49l223.792-10.145-295.472 22.583-47.141-.347z"/><path fill="#10160e" fill-opacity=".408" d="M506.985 326.24l3.83-174.895L618.324-2.93 736.2 211.39z"/><path fill="#253626" fill-opacity=".941" d="M350.63 251.602l-43.097 77.302L73.968 458.626 235.07 239.298z"/><path fill="#c9cdd3" fill-opacity=".984" d="M428.77 723.009l282.907-37.19-260.88 36.73-6.96-58.004z"/><path fill="#eaebee" fill-opacity=".647" d="M385.218 405.79l209.713 118.584-31.937 39.65L551.6 380.037z"/><path fill="#3d4d34" fill-opacity=".639" d="M794.203 585.61l58.31-204.761-127.8-1.763L754.4 565.818z"/><path fill="#274c7f" fill-opacity=".886" d="M362.028 375.182l-46.367-46.54 9.755 57.534 34.294-17.7z"/><path fill="#7b574a" fill-opacity=".671" d="M40.709 708.037l33.159-73.254 45.507 183.843-24.153 207.117z"/><path fill="#ffb99e" fill-opacity=".302" d="M504.914 207.566l-101.788-62.404 90.99-26.45-38.899 93.913z"/><path fill="#000006" fill-opacity=".427" d="M298.382 569.113l-13.733-8.866 84.789-21.982-55.43 22.127z"/><path fill="#afb7c3" fill-opacity=".929" d="M652.545 618.194l-17.52 89.687 10.632 153.372 63.855-174.588z"/><path fill="#b0c4e1" fill-opacity=".929" d="M715.235 442.833l-49.308-87.342-144.132-39.329L750.91 531.767z"/><path fill="#ffbc99" fill-opacity=".514" d="M898 931.84l-7.593-231.742-53.224 236.578-87.303-329.404z"/><path fill="#011f58" fill-opacity=".314" d="M574.51 495.396l-40.38 51.66 29.492 29.997-27.178-68.734z"/><path fill="#fff" fill-opacity=".322" d="M574.181 614.94l125.535 405.654-320.177-145.14 257.998 163.476z"/><path fill="#cadbe9" fill-opacity=".412" d="M408.351 387.701l-3.34-17.002-79.39 277.035 208.166-19.277z"/><path fill="#131405" fill-opacity=".353" d="M646.997 1086h44.989l-8.124-77.002-18.064-2.955z"/><path fill="#77849f" fill-opacity=".78" d="M320.347 337.402l-40.86 12.2-95.204 50.31 108.827 9.911z"/><path fill="#bfcce0" fill-opacity=".302" d="M174.998 645.954l-27.959 425.379L199.594 1086l-93.432-336.475z"/><path fill="#340004" fill-opacity=".31" d="M390.292 193.834L335.426-.152l95.237 87.892.862 88.562z"/><path fill="#020304" fill-opacity=".494" d="M527.281 636.05l-238.266 25.874 17.5 28.097 26.942-39.563z"/><path fill="#030002" fill-opacity=".443" d="M462.713 711.792l7.125-44.487-21.043 39.099 130.414-6.76z"/><path fill="#826557" fill-opacity=".396" d="M716.607 764.732l-19.759-115.414 64.346 16.055L773.29 879.38z"/><path fill="#c8daee" fill-opacity=".576" d="M279.005 966.417l101.354 37.7L898 1086l-595.318-77.607z"/><path fill="#3f4c31" fill-opacity=".914" d="M111.493 535.68L68.91 551.67l-126.493-12.625 101.51-264.097z"/><path fill="#7d8c96" fill-opacity=".471" d="M23.406 559.742l144.917 8.739 47.173.092L-62 633.24z"/><path fill="#dfe1e7" fill-opacity=".988" d="M499.326 673.142l47.159 122.043-71.47 2.395 35.207-120.264z"/><path fill="#c2cedb" fill-opacity=".514" d="M389.919 765.973l64.65 54.98 42.68-29.745-98.236-89.674z"/><path fill="#0e3d48" fill-opacity=".165" d="M277.542 976.888L226.414 1086l-46.366-118.478 29.806-22.277z"/><path fill="#97a6b2" fill-opacity=".757" d="M296.019 688.59l-11.19-76.79-55.566-202.613 41.54 301.527z"/><path fill="#222d1f" fill-opacity=".875" d="M602.393 242.555l288.89 71.053-176.391 52.808-103.124-29.82z"/><path fill="#030008" fill-opacity=".275" d="M503.193 651.596l-176.47 19.314 74.444 2.814 185.237-22.182z"/><path fill="#0a0702" fill-opacity=".408" d="M590.932 635.735l-9.103 20.985 41.086-32.477-221.289 26.294z"/><path fill="#e7ebf1" fill-opacity=".631" d="M471.714 390.902l51.827-29.526 81.287 51.885-99.78 168.284z"/><path fill-opacity=".369" d="M460.729 679.083l10.182 36.176-72.387-18.27 33.43 23.531z"/><path fill="#d7e0f7" fill-opacity=".282" d="M713.958 421.629l59.038 189.561-53.005 36.303-21.424-89.83z"/><path fill="#141a10" fill-opacity=".612" d="M756.586-62H372.903l105.34 87.236 87.302 55.1z"/><path fill="#003270" fill-opacity=".18" d="M659.418 537.438l13.045-6.448-48.82-4.993L726.2 748.12z"/><path fill="#e8b39a" fill-opacity=".529" d="M479.76 220.778l25.205-72.165 5.866 77.86-49.54 113.753z"/><path fill="#012328" fill-opacity=".329" d="M26.838 812.587l23.5 8.667 75.604 14.234-40.824-36.809z"/><path fill="#d9e0e8" fill-opacity=".906" d="M563.689 624.627L515.42 476.519 281.947 582.847l87.885-43.971z"/><path fill="#ededed" fill-opacity=".91" d="M646.46 644.587l-3.056-26.273-54.786 46.776-70.898.318z"/><path fill="#9aadcd" fill-opacity=".804" d="M660.5 398.649l44.64 90.232-2.562 115.597-50.481-90.876z"/><path fill="#01235c" fill-opacity=".396" d="M561.63 569.947l-23.055-49.424 9.717 31.032 50.129 15.616z"/><path fill="#0e2730" fill-opacity=".129" d="M560.445 943.68l81.925 25.547-37.625 6.081-56.117-21.9z"/><path fill="#819da8" fill-opacity=".247" d="M320.662 960.534l212.2 21.807 76.722 30.526-108.65 5.444z"/><path fill="#eb9b77" fill-opacity=".212" d="M46.796 791.87l33.016-73.885 43.633 98.802-22.362-10.31z"/><path fill="#283325" fill-opacity=".682" d="M700.874 265.912l60.213 278.479-38.627-104.073-112.379-177.112z"/><path fill="#070500" fill-opacity=".318" d="M578.48 709.285l-28.692-56.67-83.552 6.586 117.857 3.74z"/><path fill="#020118" fill-opacity=".294" d="M341.622 686.68l-11.66-38.691 22.863 94.249 8.006-80.084z"/><path fill="#a8b4c4" fill-opacity=".788" d="M373.147 676.096l-43.842-2.42 25.42 7.063 27.453 81.438z"/><path fill="#efb094" fill-opacity=".584" d="M444.254 360.078l52.265-5.15-30.874-167.48 39.989 4.992z"/><path fill="#03070a" fill-opacity=".439" d="M295.973 562.457l-3.51-31.094 11.497 37.757 22.7-15.423z"/><path fill="#6e4739" fill-opacity=".659" d="M139.958 681.776l-77.493-32.063-43.07 143.223 92.098-73.296z"/><path fill="#e4effe" fill-opacity=".306" d="M261.03 668.629l145.187-17.366 165.57-9.87-39.432 10.549z"/><path fill="#030000" fill-opacity=".31" d="M534.596 658l-12.508 5.789-17.789 53.214 25.228-16.756z"/><path fill="#664635" fill-opacity=".506" d="M367.8 377.665L355.91 115.68l74.13 280.452 59.392-12.304z"/><path fill-opacity=".427" d="M361.78 689.293l-11.185-21.219-7.77 51.671 12.194-1.706z"/><path fill="#fbfbfb" fill-opacity=".71" d="M628.12 617.63L562.709 848.8l45.079 52.415 43.23 49.059z"/></svg>