<svg xmlns="http://www.w3.org/2000/svg" width="228" height="278" viewBox="0 0 836 1024"><path fill="#6b7377" d="M0 0h836v1024H0z"/><g fill-opacity=".502"><path fill="#d1f0fe" d="M622 1086l48-564-732 328z"/><path d="M-62 750L350-62-10-6zm960-416L594-62 398 178z"/><path fill="#fcffff" d="M898 374L470 206l-16 132z"/><path d="M778 798L658 462l240-36z"/><path fill="#cde0ea" d="M38 858L-62 654l308-420z"/><path fill="#ff6331" d="M642 790l148 224 108-256z"/><path fill="#010000" d="M-10 386l392-196L-30-30z"/><path d="M690 178l148 184 40-424zm-80 752l288 36-192 120zm-672 76l220-92 148 172z"/><path fill="#a9cfe2" d="M494 534l28-192-372 4z"/><path fill="#cce0e9" d="M490 1034L258 538l-24 500z"/><path d="M270 726l-72-188-92 116z"/><path fill="#dbfaff" d="M746 422l152-40-276-136z"/><path d="M622-2l12 260L406-42z"/><path fill="#d8aa6f" d="M258 198l232-88L310-62z"/><path fill="#c6d2e8" d="M630 658l-280 416 404-264z"/><path fill="#55797f" d="M642 646L314 422l16 440z"/><path fill="#4e2600" d="M350 354l100-12L298 26z"/><path fill="#09212f" d="M394 602l176-72-268-32z"/><path d="M898 474L758 690l-32-212z"/><path fill="#ff481b" d="M706 966l28-192 164 168z"/><path d="M-62 546l40 152 72-156z"/><path fill="#908e7b" d="M254 958L94 734-62 910z"/><path fill="#99b5b8" d="M170 410l156-228-56 544z"/><path fill="#000c1b" d="M134 518L-62 398 90 198z"/><path d="M290 258l-136-24 72-296z"/><path fill="#e8f2ff" d="M-14 726l104 48-44-212z"/><path fill="#c3d8fd" d="M454 306l444 120-128-132z"/><path fill="#f5ffff" d="M106 434l96-156-36 164z"/><path fill="#bb996f" d="M466 318L290 26l184-8z"/><path fill="#010809" d="M658 254L482-62v276z"/><path fill="#91c2d1" d="M498 454l160 120 8-108z"/><path fill="#a3bfc4" d="M526 618l-316-52 88 168z"/><path fill="#000001" d="M710 90l156 192 32-200z"/><path fill="#3667cf" d="M506 274v-52l172 68z"/><path fill="#75948a" d="M826 38L626-62l32 184z"/><path fill="#c7d5e2" d="M246 994l-20-244 380 252z"/><path fill="#141619" d="M314-30L150 366-62-42z"/></g></svg>