<svg xmlns="http://www.w3.org/2000/svg" width="228" height="278" viewBox="0 0 836 1024"><path fill="#406252" d="M0 0h836v1024H0z"/><g fill-opacity=".502"><path fill="#dcaaaf" d="M94 350L-62 66l960 16z"/><path fill="#0d0009" d="M346 786L86 226-62 798z"/><path d="M898 254l-60 408-172-384z"/><path fill="#a2ddc4" d="M586 414l-68 216-248-44z"/><path fill="#029156" d="M786 910l-420 176-116-556z"/><path fill="#aa9698" d="M898 158L410 346 522 46z"/><path fill="#120013" d="M750 34L-62 86 278-62z"/><path fill="#005d34" d="M654 342L462 742l428 160z"/><path fill="#199861" d="M686 322l-748-8 600 232z"/><path fill="#ffff60" d="M770 1086l52-204 76 60z"/><path fill="#322530" d="M-62 1042l368-44-96-728z"/><path fill="#df7b5f" d="M310 34l160 68-100 200z"/><path fill="#4e231e" d="M370 402l-68-216 172 24z"/><path fill="#1f000a" d="M750 734l-12 236-112-460z"/><path fill="#020001" d="M494 102L406-62l52 224z"/><path fill="#a8a7aa" d="M-62 314l52-248 404 108z"/><path fill="#040809" d="M54 654l184-224-300-76z"/><path fill="#d7d5dd" d="M282 330l-16 44 144 32z"/><path fill="#dbe3e4" d="M334 502l144 36-172 4z"/><path fill="#2cb276" d="M898 946L734 426l12 344z"/><path fill="#06653f" d="M226 474l364 80L98 274z"/><path fill="#050016" d="M462 6l316-68L878 46z"/><path fill="#0a0009" d="M714 286l184 28v632z"/><path fill="#09051a" d="M82-62L462 50H-62z"/><path fill="#fbeefb" d="M498 626l48-32-176-16z"/><path fill="#29a572" d="M686 786l48 300H450z"/><path fill="#837e84" d="M826 266l72-224-412 32z"/><path fill="#f3d2be" d="M578 466l-44 28-4-104z"/><path fill="#1ea26b" d="M518 246l192 132-268 68z"/><path fill="#f7e8f3" d="M418 546l120 32-8-36z"/><path fill="#0f6744" d="M398 306L-62 406l208-132z"/><path fill="#d98063" d="M414 350l76-20-12-184z"/><path fill="#f1b9aa" d="M370 238l28 36-136 4z"/><path fill="#f4fcfe" d="M330 550l120 68-128-32z"/><path fill="#ffbe9a" d="M306 54l36 76 88-60z"/><path fill="#4b474a" d="M350 766L42 614l-104 472z"/><path fill="#007944" d="M242 534l196 44-220-116z"/><path fill="#9fbebb" d="M378 422l-88-4 64-76z"/><path fill="#126f48" d="M654 686L274 578l404 460z"/><path fill="#361a2f" d="M706 942V658l112 296z"/></g></svg>