<svg xmlns="http://www.w3.org/2000/svg" width="228" height="278" viewBox="0 0 836 1024"><path fill="#8e6e6f" d="M0 0h836v1024H0z"/><g fill-opacity=".502"><path d="M614 874l-44 212-632-88z"/><path fill="#000c0f" d="M354-62L102 498-62 86z"/><path fill="#fff" d="M810-6l88 364-340-244z"/><path fill="#e6f0ee" d="M622 1086l252-20-180-588z"/><path fill="#fff5fb" d="M398 74L254 86l108 524z"/><path fill="#2f0000" d="M562-62L298 302l268 40z"/><path fill="#dc9da3" d="M714 38L498 902l-356-92z"/><path fill="#88110e" d="M298 574l-344 500L78 454z"/><path fill="#7f0000" d="M502 774l-4-240-116 444z"/><path fill="#840000" d="M386 774l-84 160 56-384z"/><path d="M590 978l-320 108-104-216z"/><path fill="#fff" d="M250 350l172-44-272 200z"/><path fill="#f9ffff" d="M434 334l32 264 56-256z"/><path fill="#000714" d="M58-62l520 84-312 56z"/><path fill="#fff" d="M898 82l-320 96-8-100z"/><path fill="#ff002c" d="M398 302l-260 72 224-152z"/><path fill="#5e4b3c" d="M806 746L618 602l-36 296z"/><path fill="#eaffff" d="M418 870l-80 48 76-296z"/><path fill="#920001" d="M606 270l-92 228-4-240z"/><path fill="#e1e4e9" d="M174 954l-124 60 60-132z"/><path fill="#f6cfd7" d="M594 870l-148 24 84-240z"/><path fill="#e2f9ff" d="M298 586l36 252-76 64z"/><path fill="#829c9f" d="M830 1086l68-884-244-56z"/><path fill="#fff" d="M398 90L286 74l-8 224z"/><path fill="#eeedef" d="M670 414l-112-76 4 204z"/><path fill="#f2ebf1" d="M622 878l212-72-136 280z"/><path fill="#0b1318" d="M278 238L66 158l-84 248z"/><path fill="#f8edf6" d="M430 310l-108 32-20 220z"/><path fill="#ef0000" d="M386 506l64-116-52-76z"/><path fill="#ff2946" d="M-62 642l176 44-28 172z"/><path fill="#9f0000" d="M514 862l36-136 4 192z"/><path fill="#031000" d="M570 342l-172-44 112-144z"/><path fill="#ff0422" d="M614 262l-56 76 148 80z"/><path fill="#060100" d="M606 510l24 164 44-92z"/><path fill="#587475" d="M314 494l56 136 204-96z"/><path fill="#b01e26" d="M266 798l-52-304 88-20z"/><path fill="#d10800" d="M738-62L550 54l108 24z"/><path fill="#100d13" d="M14 798l-76 180 140 108z"/><path fill="#980000" d="M374 810l-24-192-52 316z"/><path fill="#ca000d" d="M326 402l-4-108-40 168z"/></g></svg>