<svg xmlns="http://www.w3.org/2000/svg" width="228" height="278" viewBox="0 0 836 1024"><path fill="#8d8184" d="M0 0h836v1024H0z"/><g fill-opacity=".502"><path fill="#fff" d="M230 314l-56 772 684-388z"/><path fill="#0b0000" d="M898 10L2-62l-32 576z"/><path fill="#00000b" d="M894 18L430 270l468 212z"/><path fill="#fff" d="M758 418L446 298l-268 788zm-36 664l20-460 156 420z"/><path fill="#6c1709" d="M-62 198l276 572-152 316z"/><path fill="#fff" d="M586 1006L198 742l464 132z"/><path fill="#fffdff" d="M174 370l488 4L50 630z"/><path d="M710 722l-120 364 132-112z"/><path fill="#33353f" d="M214 542l268-20v96z"/><path fill="#e69f74" d="M282 166l244 88-68-228z"/><path fill="#1d1725" d="M-14 782L6-62l268 172z"/><path d="M314 1086h444L450 938z"/><path fill="#892b15" d="M626 222L290 322l80 84z"/><path fill="#2d5a47" d="M574 850l188-12-204-140z"/><path fill="#f9f9ff" d="M286 586l328 212-480 196z"/><path fill="#55373d" d="M798 238L698 550l200 252z"/><path fill="#fffcff" d="M758 482l-556 40 316-204z"/><path fill="#fff" d="M610 862l12 160-356-212z"/><path fill="#9c4132" d="M-62 678l252 212 24-336z"/><path fill="#f1f1f8" d="M694 598l-488 32v384z"/><path fill="#83859d" d="M778 134L534-62l120 240z"/><path fill="#005578" d="M634 682l100-16-32-44z"/><path fill="#fff" d="M622 658l-12 144 144-92z"/><path fill="#101322" d="M386-46l512 384-244-16z"/><path fill="#051641" d="M754 610l-140-28 172-48z"/><path fill="#fff" d="M42 1050l-4-116-100-8z"/><path fill="#ffd3af" d="M346 58l132 16 16 64z"/><path fill="#d28d61" d="M266 1086l212-168-140-16z"/><path fill="#00233d" d="M570 786l48-96-68 36z"/><path fill="#191c33" d="M166 354l284-48-188-140z"/><path fill="#f5f7ff" d="M334 322L182 522l-24-120z"/><path fill="#f6f8ff" d="M898 814l-172 44 72 228z"/><path fill="#868f8c" d="M422 518l-288 12-88 144z"/><path fill="#062d28" d="M738 770l-84 4 12 312z"/><path fill="#c0784a" d="M798 466l-8 376 108-52z"/><path fill="#3b1413" d="M138 958l44 128-236-28z"/><path fill="#43424d" d="M234 326l-296 16 92 204z"/><path fill="#ac7948" d="M110 738L38 942-62 674z"/><path fill="#4d3b3e" d="M62 222l424-88-344-56z"/></g></svg>