<svg xmlns="http://www.w3.org/2000/svg" width="228" height="278" viewBox="0 0 836 1024"><path fill="#606685" d="M0 0h836v1024H0z"/><g fill-opacity=".502"><path fill="#faffff" d="M114 450l208-244 448 228z"/><path fill="#90b0ff" d="M594 438L190 646l576 320z"/><path fill="#342c1e" d="M854 458L-62 18l896-80z"/><path fill="#28252d" d="M210 1086L-62 942l280-532z"/><path fill="#2144ba" d="M210 690l120 396 420-244z"/><path fill="#4e6ee2" d="M442 630l336-184-304-168z"/><path fill="#fff" d="M418 466L298 230l168 36z"/><path fill="#3d3f34" d="M366 190L2-62l-12 516z"/><path fill="#ffc388" d="M898 522l-92 316-56-324z"/><path fill="#e5eafc" d="M566 738l-332-24 340-132z"/><path fill="#9b6b45" d="M522 378L342 78l236-28z"/><path fill="#4a6ee0" d="M206 314L70 618l256-24z"/><path fill="#572b13" d="M726 878l160 24-244-364z"/><path fill="#8baff4" d="M602 1086l296-84-208-172z"/><path fill="#fff" d="M658 822l56-8-64-160z"/><path fill="#0b2465" d="M502 398L302 526l168 68z"/><path fill="#93958a" d="M242 650L6 862l204 12z"/><path fill="#6a3805" d="M190 690L-22 526l-40 352z"/><path fill="#000a45" d="M722 46L294-62-62 58z"/><path fill="#fff" d="M346 470l-76-216-48 92z"/><path fill="#4c6ce1" d="M386 582l364-160 20 244z"/><path d="M450 250l92-12-32 104z"/><path fill="#000b3c" d="M234 910l-296-12 240 188z"/><path fill="#000336" d="M634 526l60-32-36 192z"/><path fill="#092369" d="M630 986l-236 76 284-248z"/><path fill="#3a2000" d="M778 522l-48-128 148 124z"/><path fill="#00104d" d="M898 14L614 114 482-62z"/><path fill="#fff" d="M442 250l-20 196-136-208z"/><path fill="#38362e" d="M66 414L298 74l-76 276z"/><path fill="#79726a" d="M834 234l-520-12L834 94z"/><path fill="#425cb9" d="M274 750l-76 336 460-352z"/><path fill="#8fa8ff" d="M666 350L498 530l260-68z"/><path fill="#000938" d="M194 670l36-172-68-16z"/><path fill="#869ef7" d="M270 794l80-248-140 4z"/><path fill="#cdd5ed" d="M298 590l268 144-4-120z"/><path fill="#6e6f6d" d="M-62 278L470 62 14 94z"/><path fill="#fff" d="M262 982l8 72 28-64z"/><path fill="#dad9e8" d="M894 962l-240-36 172-20z"/><path fill="#9aaefe" d="M122 446l24 80-84 112z"/><path fill="#966e4b" d="M790 766l-156 96 264-4z"/></g></svg>