<svg xmlns="http://www.w3.org/2000/svg" width="228" height="278" viewBox="0 0 836 1024"><path fill="#9e5450" d="M0 0h836v1024H0z"/><path fill="#fa3c42" fill-opacity=".784" d="M14.127 418.282l156.088-89.068 485.76-69.928L566.071 1086z"/><path fill="#474b30" fill-opacity=".843" d="M877.605 153.09L868.327-62 5.789-19.195-62 380.185z"/><path fill="#6e9ba6" fill-opacity=".635" d="M896.236 1086H681.939l-20.876-590.812L898 597.115z"/><path fill="#a197a1" fill-opacity=".698" d="M526.219 1036.11l-557.368 30.357 198.766-601.029 173.401 513.293z"/><path fill="#b57564" d="M223.374 163.354l102.608 201.024 130.393 39.089-71.787-338.845z"/><path fill="#f2282e" fill-opacity=".804" d="M250.988 957.396l41.573-208.412L644.033 557.72l-10.778 505.328z"/><path fill="#efefee" fill-opacity=".482" d="M255.838 612.2l43.414 40.259 278.996-51.352-9.838-55.727z"/><path fill="#52636d" fill-opacity=".773" d="M-54.572 556.54L-62 1011.05l162.287 50.853 10.695-526.901z"/><path fill="#635c41" fill-opacity=".925" d="M575.427-62L898 18.339v550.813l-127.971 6.972z"/><path fill="#fdedf3" fill-opacity=".851" d="M538.073 1051.705l-309.847-33.3 77.676-29.283 78.853.423z"/><path fill="#e11d24" fill-opacity=".886" d="M194.435 302.126l113.831 25.653-84.238 233.849L27.127 477.94z"/><path fill="#010408" fill-opacity=".522" d="M701.63 236.805L364.813 77.194 242.192 91.283 291.769-62z"/><path fill="#bbc9bf" fill-opacity=".663" d="M101.785 556.48L117.228 1086l24.52-29.758-.628-547.364z"/><path fill="#00201c" fill-opacity=".463" d="M-30.235 475.056l-11.81-322.846 184.786 4.042 66.471 97.879z"/><path fill="#8f0004" fill-opacity=".506" d="M677.598 998.002l-128.558-9.728 93.987-355.86 46.071 333.597z"/><path fill="#cbccc8" fill-opacity=".514" d="M898 849.47L691.247 628.288l175.306-2.23L700.464 838.68z"/><path fill="#322922" fill-opacity=".663" d="M602.473-3.88L410.253-62l71.57 380.25-116.553 36.758z"/><path fill="#25132f" fill-opacity=".329" d="M667.007 656.846L559.554 386.983l135.128 118.101L898 470.805z"/><path fill="#b7b9a4" fill-opacity=".416" d="M581.995 225.042l17.287 145.894 267.282-57.25-67.545 99.32z"/><path fill="#fa9ea2" fill-opacity=".706" d="M252.34 1086l30.716-98.562-100.543-450.925 97.353 218.78z"/><path fill="#f2b3ae" fill-opacity=".447" d="M460.796 411.615l94.942 42.733-21.514-97.96-281.452-15.757z"/><path fill="#eef5f8" fill-opacity=".612" d="M269.42 470.779l-5.79-18.483 30.16-28.751 39.731 35.202z"/><path fill="#f52933" fill-opacity=".812" d="M536.473 236.052l-50.02 26.969-160.74 321.951 256.103-337.8z"/><path fill="#e9bfc0" fill-opacity=".584" d="M477.28 509.163l-104.83 9.839 6.653 31.29 84.654 1.617z"/><path fill="#00495c" fill-opacity=".263" d="M139.174 525.58l26.569-123.85 46.683 628.442L159.044 1086z"/><path fill="#fdbc99" fill-opacity=".424" d="M-27.992 540.152L75.105 356.976l-51.324 9.235 46.917 160.318z"/><path fill="#494f59" fill-opacity=".49" d="M669.413 832.455l-18.97 115.377L898 977.615v-97.056z"/><path fill="#d1876e" fill-opacity=".671" d="M308.065 362.075l54.169-161.407L406.73 85.952 277.828 80.22z"/><path fill="#a1a2a6" fill-opacity=".925" d="M747.335 971.177l-219.98 83.224 198.302-40.662 172.343 4.22z"/><path fill="#fe6566" fill-opacity=".627" d="M672.255 462.794l-51.607-21.78 26.029-57.178L781.029 552.31z"/><path fill="#ff3b41" fill-opacity=".796" d="M407.124 996.564l-70.301-9.432-79.103-274.2 291.91-115.556z"/><path fill="#0e1d14" fill-opacity=".561" d="M270.148-62L-62 142.896l85.704 231.987-26.57-359.86z"/><path fill="#ffb7be" fill-opacity=".498" d="M280.967 751.012L261.66 919.32l4.592 15.812-78.445-48.354z"/><path fill="#fff1ff" fill-opacity=".431" d="M455.405 345.673L384.2 368.948l-98.772-45.898 104.867 84.653z"/><path fill="#7c4f43" fill-opacity=".835" d="M315.832 196.718l106.12-71.493 39.997 101.16L222.517 104.61z"/><path fill="#d6141a" fill-opacity=".765" d="M121.817 345.037L40.13 456.297l31.579 61.837 175.12 16.575z"/><path fill="#696b74" fill-opacity=".816" d="M708.608 484.116l2.617 408.653-51.763-63.4-10.102-279.993z"/><path fill="#820f14" fill-opacity=".831" d="M657.724 506.28l27.743-81.184-82.584 93.552-23.693-132.145z"/><path fill="#f23037" fill-opacity=".91" d="M479.43 404.183l-77.612-13.922-297.538-57.249 535.833 245.935z"/><path fill="#5c0003" fill-opacity=".51" d="M768.145 543.507l-35.615-59.394 133.28-50.523L898 549.548z"/><path fill="#7cfdff" fill-opacity=".314" d="M552.93 393.106l-52.485-3.44-10.113 33.209 47.48 36.32z"/><path fill="#57482a" fill-opacity=".804" d="M769.708 98.135l8.107 50.836-156.79 151.604-12.563-11.4z"/><path fill="#999a95" fill-opacity=".765" d="M101.508 362.101l-26.337 35.55 3.077-.958L-62 378.125z"/><path fill="#f31116" fill-opacity=".631" d="M245.184 836.03L223.925 703.2l25.904 65.766-9.502 35.658z"/><path fill="#666d75" fill-opacity=".788" d="M873.38 700.571l-171.43-.975-32.53 22.82 125.493 37.781z"/><path fill="#97050e" fill-opacity=".612" d="M600.746 488.03l52.215 158.506 10.635 384.626-50.877-446.558z"/><path fill="#f93139" fill-opacity=".498" d="M460.56 989.798l112.025-433.59-345.59 397.066 59.727 32.875z"/><path fill="#defff2" fill-opacity=".569" d="M746.038 525.735l-36.893-65.286-11.44 8.554 3.472 16.892z"/><path fill="#bbbcb9" fill-opacity=".533" d="M797.887 841.585L898 740.265l-188.605 13.063 8.459 102.155z"/><path fill="#f2bcbc" fill-opacity=".561" d="M275.077 574.298l98.299 39.576 150.387-54.106-249.977 42.068z"/><path fill="#fc2d32" fill-opacity=".655" d="M186.323 546.257L300.03 772.35l-16.347-165.143L255.3 419.112z"/><path fill="#f0a489" fill-opacity=".722" d="M611.356 304.15l9.658-8.887 76.35 27.695-34.565 44.24z"/><path fill="#616773" fill-opacity=".753" d="M883.49 592.18l-176.43 15.59-41.828 58.03-54.182-185.083z"/><path fill="#8eaa67" fill-opacity=".255" d="M841.563-.806L586.2 114.9l311.8-4.942L767.424-62z"/><path fill="#5b4a3c" fill-opacity=".655" d="M373.047 163.052l8.65 132.046L437.306-62l41.933 121.043z"/><path fill="#faac91" fill-opacity=".314" d="M395.232 327.361L217.365 195.418l217.343-13.58-126.714 107.36z"/><path fill="#5b0100" fill-opacity=".282" d="M486.832 291.746l2.333-68.773-85.583 151.02-84.977-41.408z"/><path fill="#2f3625" fill-opacity=".639" d="M630.356 183.533l-52.601 63.978-37.295-14.355L473.414-62z"/><path fill="#f7373a" fill-opacity=".792" d="M634.903 487.717l-74.992-189.75 104.803 104.817-29.037 93.773z"/><path fill="#f43037" fill-opacity=".827" d="M340.685 517.544l-42.034-218.405-165.257 33.459 472.482 134.256z"/><path fill="#6d6968" fill-opacity=".996" d="M692.47 342.027l41.601 38.6L898 484.198V377.906z"/><path fill="#d71a21" fill-opacity=".451" d="M454.087 942.708L607.447 1086l56.193-240.546-423.732 161.784z"/><path fill="#daa0a8" d="M263.566 1046.517l21.131-104.396-27 24.653-16.997 73.93z"/><path fill="#0c0a0d" fill-opacity=".698" d="M251.113 65.345l79.883-107.36 83.29 81.27 26.767 40.199z"/><path fill="#581a07" fill-opacity=".584" d="M28.827 857.019l-3.734 64.516L-62 841.783v-6.948z"/><path fill="#3d0900" fill-opacity=".357" d="M158.122 464.56l-10.57 44.56L-62 573.355l28.089 54.91z"/><path fill="#fd4348" fill-opacity=".996" d="M340.446 831.659l-15.028-245.876-26.69 43.395 172.312 63.258z"/><path fill="#e12930" fill-opacity=".992" d="M575.776 380.71L533.23 460.6l61.859 150.578-16.32-361.824z"/><path fill="#050001" fill-opacity=".18" d="M284.52 910.976l-62.727 125.28 82.74 36.705-108.226-104.896z"/><path fill="#bcbdbd" fill-opacity=".592" d="M799.022 666.76L898 702.929l-202.17-31.752 89.62-74.902z"/><path fill="#f5fdfb" fill-opacity=".322" d="M416.882 631.002l-55.016-138.434 53.142 83.734 4.146 64.609z"/><path fill="#22281c" fill-opacity=".588" d="M-8.087 177.276l-3.637 185.168 102.602-10.762 150.815-68.98z"/><path fill="#42502b" fill-opacity=".494" d="M252.34 159.12l25.407 25.045L182.293-62l-92.71 402.353z"/><path fill="#fefffe" fill-opacity=".4" d="M341.55 372.482l-43.762-49.06 85.86 44.795 12.49 22.95z"/><path fill="#dd242f" fill-opacity=".616" d="M712.217 960.14l-63.199 46.321L293.017 1086l271.072-97.381z"/><path fill="#df8b7f" fill-opacity=".647" d="M602.079 277.687l70.91-56.488-111.406 51.858 53.849-65.534z"/><path fill="#545629" fill-opacity=".522" d="M773.76 78.79l-166.866 65.706 34.491 81.992L898 258.68z"/><path fill="#f33c42" fill-opacity=".992" d="M384.476 436.698l40.138 156.661 72.226 491.46-59.763-392.502z"/><path fill="#647343" fill-opacity=".486" d="M327.547-62l-32.06 68.41L41.325 97.116l15.76 74.734z"/><path fill="#be818f" fill-opacity=".749" d="M230.11 906.772l16.396 20.03-60.263 26.036 38.446-305.222z"/><path fill="#e4a2ad" fill-opacity=".455" d="M62.125 536.789l-40.776-106.1 61.771-64.818-50.115 66.933z"/><path fill="#e82e33" fill-opacity=".635" d="M558.777 771.371L418.972 375.49l79.955 257.625 123.269-62.857z"/><path fill="#ddfffe" fill-opacity=".212" d="M579.73 537.263l-77.188 66.105-65.194 34.15 49.026-79.479z"/><path fill="#f5fefc" fill-opacity=".263" d="M264.466 582.37l31.04 79.034 7.518-69.546 26.227-4.116z"/><path fill="#fe3d47" fill-opacity=".545" d="M176.02 312.62l7.584-9.456 47.527 78.79L89.24 366.836z"/><path fill="#e62d32" fill-opacity=".973" d="M512.086 606.044l-3.974-44.698 92.781 250.434 27.234-108.483z"/><path fill="#6e070b" fill-opacity=".749" d="M695.509 492.93l-8.562-8.223-15.489-19.878-62.87 28.858z"/><path fill="#fcfaff" fill-opacity=".514" d="M393.608 992.496l50.602 15.119L211.036 1086l118.819-100.858z"/><path fill="#e1fbf9" fill-opacity=".22" d="M238.67 658.358l27.513 283.44-8.3-21.04 21.75-129.713z"/><path fill="#ffd4dc" fill-opacity=".282" d="M663.99 569.23l-8.422 115.754 1.037 24.897 8.847 57.202z"/><path fill="#ffcbd7" fill-opacity=".192" d="M767.335 346.133l-41.181-18.955-100.82 190.284 29.237-94.695z"/><path fill="#4a0003" fill-opacity=".212" d="M513.716 232.99l-101.004 53.97-47.968-143.518 42.597 225.873z"/><path fill="#676d77" fill-opacity=".71" d="M787.949 576.553L898 474.5l-86.568 143.427 2.179 104.54z"/><path fill="#f7dee3" fill-opacity=".243" d="M777.459 1043.105L659.845 908.596l29.86 56.377 103.099 23.758z"/><path fill="#73030c" fill-opacity=".639" d="M685.945 958.78l-37.973-46.744-9.113 110.284 12.335-26.67z"/><path fill="#e26a6f" fill-opacity=".98" d="M260.048 845.89l-15.919 96.207-15.612 6.678L296.49 684.3z"/><path fill="#f9474c" fill-opacity=".914" d="M391.964 575.384l27.525 198.23-65.326-210.298 113.775 246.79z"/><path fill="#de9d87" fill-opacity=".631" d="M615.998 305.078l63.056-57.323-40.022 108.839-31.936-12.694z"/><path fill="#f4ffff" fill-opacity=".192" d="M345.3 647.43l9.184-3.448 97.113-15.383-151.84-54.519z"/><path fill="#fc464b" fill-opacity=".6" d="M553.155 576.778l-130.42-88.32 75.772-74.502 38.401 196.355z"/><path fill="#22221d" fill-opacity=".455" d="M411.368 67.364l185.09 68.312-232.999 34.386 73.664-48.142z"/><path fill="#fc3b41" fill-opacity=".776" d="M260.905 566.932l28.509 372.889-15.602 56.576 135.932-43.035z"/><path fill="#97544d" fill-opacity=".565" d="M425.738 136.449l-47.982 4.277 8.502-72.23 29.426 12.232z"/><path fill="#6d717e" fill-opacity=".733" d="M151.488 594.764l10.431-86.825 33.335 120.36L198.643 1086z"/><path fill="#fc4146" fill-opacity=".941" d="M246.542 642.777L389.266 802.18l-42.579-228.865 1.5 88.792z"/><path fill="#dfece9" fill-opacity=".302" d="M174.493 576.057l62.737 80.696 54.672 186.507-107.034-315.367z"/><path fill="#c1786b" fill-opacity=".482" d="M392.495 197.3l28.518 103.314 14.138-116.386-150.824-15.507z"/><path fill="#dd1c22" fill-opacity=".773" d="M266.96 492.31l-133.015-97.895 198.367-15.896-221.009 161.003z"/><path fill="#efd3c9" fill-opacity=".306" d="M159.063 581.86L20.171 486.021l94.592 49.097-.842 71.527z"/><path fill="#f0f1fd" fill-opacity=".427" d="M366.404 394l90.03-62.947-10.751 17.344-4.44 11.275z"/><path fill="#dc9d87" fill-opacity=".804" d="M368.515 153.187l-45.553-.802-12.736-59.426 32.19-10.052z"/><path fill="#ff383f" fill-opacity=".686" d="M297.377 582.87l-53.354-1.823 123.184-194.703 5.539 200.542z"/><path fill="#5c4932" fill-opacity=".976" d="M668.618 290.869l95.553-169.529-84.123 176.012-25.397 25.561z"/><path fill="#f83f44" fill-opacity=".714" d="M464.934 736.238l-40.022-225.053 64.73 211.935-135.096 117.474z"/><path fill="#f32b36" fill-opacity=".898" d="M448.218 1009.277L557.601 1086l-13.733-91.62-281.18-63.948z"/><path fill="#72573a" fill-opacity=".522" d="M227.186 8.633l42.902 209.994-22.312 54.896 54.69 47.156z"/><path fill="#9a4d31" fill-opacity=".404" d="M673.931 410.276l-78.734-67.956 164.01 81.936 25.785 145.295z"/><path fill="#ee3d43" d="M570.487 355.235l-26.242 227.952 20.197 7.93-31.58-56.708z"/><path fill="#bf1516" fill-opacity=".435" d="M563.742 724.268l64.467 39.152L584.92 1086h-18.912z"/><path fill="#f3dadc" fill-opacity=".698" d="M248.268 864.441l5.55-62.081-26.375 103.764 6.63 14.436z"/></svg>