<svg xmlns="http://www.w3.org/2000/svg" width="228" height="278" viewBox="0 0 836 1024"><path fill="#775b65" d="M0 0h836v1024H0z"/><g fill-opacity=".502"><path fill="#390000" d="M78 526l584-256-100 816z"/><path fill="#b4d0d1" d="M438-62L-62-34l84 692z"/><path fill="#ffc9db" d="M10 778l484 308-556-24z"/><path fill="#a9c1c1" d="M898-50L502-62l380 844z"/><path d="M738 394L546 270l244 560z"/><path fill="#620c1e" d="M578 1002L554-62 122 938z"/><path fill="#8cc7ff" d="M-62 774l188 76 64-272z"/><path fill="#d5d5c2" d="M650 522l92 392-148 172z"/><path fill="#000003" d="M458-26L578 94l-248 24z"/><path fill="#3d0415" d="M218 846l-80-464 188-76z"/><path fill="#dbffff" d="M58 1066l188-116 376 136z"/><path fill="#0e1519" d="M710 490l40 596 64-316z"/><path fill="#c7ccbb" d="M794 1086l104-196-100-316z"/><path fill="#250010" d="M370 734l248 156 8-388z"/><path fill="#bebcb9" d="M654 150L546 270l260 132z"/><path fill="#97a6ad" d="M-62 450L330-62l40 320z"/><path d="M-62 890V634l124 16z"/><path fill="#b54302" d="M178 990l-44-180 96-172z"/><path fill="#c4c4d0" d="M122 62l84 172-96 320z"/><path d="M698 586l-88-88 124-84z"/><path fill="#905045" d="M238 454L514 78 370 558z"/><path fill="#ffa295" d="M138 850l-200-4 224 96z"/><path fill="#8cacf8" d="M158 582L2 762l172-4z"/><path fill="#c8c4dc" d="M634 518l-8 108 84 16z"/><path fill="#a45368" d="M362 886l-156-36-256 236z"/><path fill="#040617" d="M254 522l-52-56L22 690z"/><path fill="#70172b" d="M526 1062L322 342 198 834z"/><path fill="#762b42" d="M606 542l52-184-568 64z"/><path fill="#00121d" d="M370 34l184 12-196 96z"/><path fill="#7b8487" d="M898 74L678 218 454-62z"/><path fill="#ffcd58" d="M342 254l-12 56 36 44z"/><path fill="#3f6161" d="M526 326L458 94l144 24z"/><path fill="#b1a499" d="M566 986l140 100 4-364z"/><path fill="#fff" d="M314 986l-96-28-164 128z"/><path fill="#fffff8" d="M90 454h60l-48 72z"/><path fill="#518bac" d="M66 942l28 144 60-152z"/><path fill="#7c7c87" d="M70 434l188-60L406-62z"/><path fill="#430014" d="M178 746l-16 164-32-116z"/><path fill="#86888c" d="M142 366L-62 42l76 620z"/><path fill="#8c9499" d="M730 74L602 326 558 74z"/></g></svg>