<svg xmlns="http://www.w3.org/2000/svg" width="228" height="278" viewBox="0 0 836 1024"><path fill="#785a68" d="M0 0h836v1024H0z"/><path fill="#06020b" fill-opacity=".757" d="M163.669 1086h430.823L423.906 897.836 164.147 740.757z"/><path fill="#7a263d" d="M168.697 644.758l-6.83-297.905L649.09 361.94l-83.631 514.65z"/><path fill="#c1fdff" fill-opacity=".318" d="M449.918 1086l248.405-281.058L757.093-62 898 975.726z"/><path fill="#ffb8a2" fill-opacity=".506" d="M483.263 790.29l-290.954-9.015-53.337-350.442-116.005 215.73z"/><path fill="#578ac0" fill-opacity=".847" d="M708.248 225.173l118.456 8.543L848.372-62H667.947z"/><path fill="#61839e" fill-opacity=".584" d="M21.072 412.591L29.008-7.806l297.792-15.2-79.79 326.934z"/><path fill="#ff817b" fill-opacity=".357" d="M579.657 244.705l-403.423 212.43 19.019-137.187L610.412 82.665z"/><path fill="#7993a8" fill-opacity=".729" d="M192.695 1045.78L31.318 618.051l-81.93 422.004 130.785-93.38z"/><path fill="#d8e1e8" fill-opacity=".404" d="M684.433 706.718L612.891 488.3l6.488 301.054L898 781.704z"/><path fill="#001822" fill-opacity=".478" d="M436.486 848.068L-62 1029.88 289.642 1086l366.254-275.253z"/><path fill="#091201" fill-opacity=".49" d="M456.404 200.521l-104.6-10.785 51.031-134.13 90.403-2.13z"/><path fill="#b7bbb9" fill-opacity=".435" d="M439.573 643.984l-143.481-19.561 81.546-31.105 313.323-59.857z"/><path fill="#08374c" fill-opacity=".596" d="M893.072 858.038l-129.44 21.951L802.327 1086H898z"/><path fill="#f4ffec" fill-opacity=".384" d="M460.675 974.484l292.337-69.594 9.516 181.11L487.95 871.813z"/><path fill="#420316" fill-opacity=".62" d="M132.31 585.31l117.625-161.847 139.654 118.21-158.514 158.01z"/><path fill="#69222a" fill-opacity=".635" d="M690.29 773.437l19.65-376.923-327.197-162.537L644.54 505.219z"/><path fill="#dfa58c" fill-opacity=".682" d="M277.417 804.011l-218.9-189.698 328.877 157.284 81.837 63.151z"/><path fill="#fd9098" fill-opacity=".294" d="M739.792 231.322l-24.82 366.241 90.839-91.253-326.83-292.358z"/><path fill="#931838" fill-opacity=".612" d="M721.151 889.437L620.726 776.692l8.31-128.548-251.28 126.832z"/><path fill="#58b19d" fill-opacity=".631" d="M590.503 440.921l18.09 57.151-76.136 14.413 10.3-65.345z"/><path fill="#938586" fill-opacity=".831" d="M626.526-29.66l-326.83 75.02 263.457 8.929 180.081 151.8z"/><path fill="#dfb2b7" fill-opacity=".635" d="M122.605 456.986l64.11 31.76-37.612 84.503-67.82-37.018z"/><path fill="#f1f9fa" fill-opacity=".549" d="M418.008 473.723l-54.616 9.594-8.743 16.367 60.97 2.69z"/><path fill="#b41546" fill-opacity=".471" d="M105.124 455.063l68.763-114.032 172.27-83.798 77.138 222.913z"/><path fill="#5c241d" fill-opacity=".373" d="M440.63 860.32l-234.542 88.468L30.98 672.015l138.03 54.688z"/><path fill="#002128" fill-opacity=".486" d="M601.474 858.64L100.065 1086l460.989-179.444 2.12 151.721z"/><path fill="#e0e9f2" fill-opacity=".631" d="M397.364 329.102l8.17 31.702-47.06-56.935 17.102-70.164z"/><path fill="#6cb9f4" fill-opacity=".392" d="M63.838 251.416l164.805-16.471-17.468 86.586-95.91 16.415z"/><path fill="#7f5951" fill-opacity=".91" d="M694.66 917.479l-83.245-62.829 60.116-102.332 24.284 9.672z"/><path fill="#bae9fc" fill-opacity=".306" d="M725.483 1064.544L493.372 871.579l19.395 45.012-40.658 41.315z"/><path fill="#d8b59b" fill-opacity=".396" d="M289.305 750.74l90.296 126.803-70.138-34.38L-22.74 489.712z"/><path fill="#76c6fa" fill-opacity=".275" d="M40.656 818.04l81.832 198.411 56.577 20.236-25.968-159.126z"/><path fill="#870104" fill-opacity=".2" d="M553.346 320.28L755.66 758.863 732.772 437.17 898 416.245z"/><path fill="#daf3d4" fill-opacity=".333" d="M577.188 93.702L545.27 135.62l30.52 174.517 16.405-95.503z"/><path fill="#00405b" fill-opacity=".235" d="M428.523 182.787L898 147.33 635.917 307.356l-44.91-101.227z"/><path fill="#a1b5c7" fill-opacity=".718" d="M808.482 715.007l-137.353 9.618 81.27 123.644L898 857.288z"/><path fill="#2d2c27" fill-opacity=".596" d="M338.572 109.45l29.427 39.541 221.118-68.234-41.376-21.23z"/><path fill="#951f41" fill-opacity=".631" d="M145.908 568.57l-99.106-24.334 135.781 92.601 46.653-154.987z"/><path fill="#3d0115" fill-opacity=".518" d="M188.656 633.317l-39.993 12.641 224.251 55.247 158.572-63.239z"/><path fill="#c5b5ad" fill-opacity=".631" d="M587.764 875.405l28.969-14.163L841.598 1086l-219.983-56.374z"/><path fill="#d6edfe" fill-opacity=".655" d="M161.33 617.362l-86.255-42.169-4.814 16.005 97.993 47.638z"/><path fill="#000910" fill-opacity=".49" d="M313.155 1086l218.963-258.364-76.536 6.545-268.147 124.136z"/><path fill="#837171" fill-opacity=".745" d="M133.641 199.364L145.472-62 19.984-38.565-49.17 287.66z"/><path fill="#b07f5e" fill-opacity=".447" d="M42.16 582.567L-62 981.918l159.935-293.35 274.083 173.705z"/><path fill="#9b7364" fill-opacity=".8" d="M614.379 269.121L510.753 382.566l16.845-59.337-149.24-151.555z"/><path fill="#0f5a83" fill-opacity=".431" d="M-62 1013.363L180.665 1086 129.09 966l-44.924-34.53z"/><path fill="#203e47" fill-opacity=".549" d="M521.956 1056.869L421.52 861.162 437.845 1086l108.04-180.302z"/><path fill="#a6c2c9" fill-opacity=".447" d="M610.436 576.917l.322 81.12 54.804 92.089L651.2 481.273z"/><path fill="#877f98" fill-opacity=".722" d="M726.394 204.866L898 237.633l-103.137 148.55-127.964-79.699z"/><path fill="#f3fefe" fill-opacity=".447" d="M511.893 953.33l11.356-78.457-61.503 23.822 75.172 3.49z"/><path fill="#1c040e" fill-opacity=".318" d="M224.723 695.95l-60.315-56.028 94.794-255.313 65.953 75.99z"/><path fill="#7ba4d3" fill-opacity=".71" d="M826.613-59.316L811.076 69.445l-94.222 73.32 5.483-196.491z"/><path fill="#787277" fill-opacity=".847" d="M8.88 222.833l88.29 162.24-50.95 281.778-37.585-37.469z"/><path fill="#cea1b5" fill-opacity=".506" d="M253.717 331.153l-58.025 77.523L317.41 289.013l26.117 37.939z"/><path fill="#004d57" fill-opacity=".306" d="M92.767 659.677L72.256 790.19l91.143 104.271-5.296-88.163z"/><path fill="#c32e57" fill-opacity=".584" d="M434.99 826.494l164.144 7.224 38.656-152.351-75.428 108.935z"/><path fill="#2d5883" fill-opacity=".302" d="M141.674 231.68L161.307-62l158.26 27.184-16.583 227.506z"/><path fill="#ffddaf" fill-opacity=".255" d="M482.202 310.476l111.803-100.829-129.468-89.136 113.84-15.61z"/><path fill="#6d5337" fill-opacity=".58" d="M437.378 186.02l79.64 118.226.342 76.965-109.057-3.189z"/><path fill="#7f6f71" fill-opacity=".714" d="M321.01 575.33l-2.335 30.982 321.806-2.613-124.693-20.532z"/><path fill="#ffa84f" fill-opacity=".22" d="M691.533 875.867l-9.16-103.89 54.415-437.37-3.085 513.069z"/><path fill="#ca4776" fill-opacity=".675" d="M701.11 406.718L562.243 265.2l151.212 56.184 10.291 101.38z"/><path fill="#edfeff" fill-opacity=".463" d="M462.538 948.574l52.963-18.048-13.367 21.894 58.462 44.15z"/><path fill="#c8acaa" fill-opacity=".639" d="M767.345 534.555l-48.999-61.44 5.667-32.135L898 461.308z"/><path fill="#092f35" fill-opacity=".38" d="M576.164 1086l8.818-266.452-113.895 53.113 83.612 22.571z"/><path fill="#410b1b" fill-opacity=".867" d="M308.123 734.926l104.145-20.08-104.054-4.425-45.742 2.91z"/><path fill="#6b575f" fill-opacity=".431" d="M785.959 364.679L898 709.77l-117.521-95.553L898 340.791z"/><path fill="#640923" fill-opacity=".435" d="M605.605 406.617l-210.326-42.98 44.897 257.377-50.201-51.857z"/><path fill="#fed7e5" fill-opacity=".349" d="M438.737 580.723l6.455 59.38-122.71-16.025 110.483-8.707z"/><path fill="#ff5686" fill-opacity=".239" d="M197.626 307.852l280.419 277.099-197.123-252.097 86.555-95.741z"/><path fill="#dfaca3" fill-opacity=".839" d="M467.046 841.352L163.99 691.674l165.818 54.452 48.905 13.108z"/><path fill="#2d2820" fill-opacity=".427" d="M656.553 496.186l21.26 255.75 20.208-279.395-100.77-30.58z"/><path fill="#cb3e5b" fill-opacity=".529" d="M130.477 714.227l89.101-1.369 174.814-58.472-80.78 51.23z"/><path fill="#f4ff9d" fill-opacity=".129" d="M481.767 82.866L335.039 79.2 499.18-62l34.761 84.331z"/><path fill="#640220" fill-opacity=".384" d="M371.518 750.73L578.68 645.138l-95.847 207.035-116.897-106.168z"/><path fill="#cabfca" fill-opacity=".992" d="M600.93 302.546l10.037 22.43-23.545-1.22-5.64-19.504z"/><path fill="#891635" fill-opacity=".694" d="M163.039 382.869l-21.678-2.757-22.075 68.649 115.065 68.36z"/><path fill="#e47571" d="M170.74 534.149l-3.438-35.217-14.527-28.627-29.087 41.27z"/><path fill="#226ab0" fill-opacity=".424" d="M853.166 218.147L898 313.697 854.242 57.753 688.615 213.825z"/><path fill="#40081d" fill-opacity=".647" d="M160.067 922.173l-1.195-38.903 34.153-135.319 172.17 143.719z"/><path fill="#8c8294" fill-opacity=".494" d="M749.72 176.13l-162.48-32.504-9.329-120.566 138.763 23.943z"/><path fill="#000b12" fill-opacity=".369" d="M382.782 1002.713l158.379-96.865-378.98 22.746L192.728 1086z"/><path fill="#ff5d89" fill-opacity=".216" d="M304.36 533.574l-26.027 30.23 174.94-24.8 132.598 56.681z"/><path fill="#48251a" fill-opacity=".282" d="M568.636 797.712l55.282-7.95 34.46 130.829 76.368-65.67z"/><path fill="#2f4961" fill-opacity=".404" d="M7.762 1070.805l-34.402-231.62 66.357-25.626L8.504 946.637z"/><path fill="#e13c63" fill-opacity=".365" d="M504.23 685.9l-173.593 77.954 328.998-199.067-177.473 123.217z"/><path fill="#531527" fill-opacity=".918" d="M507.528 571.917l-16.265 55.003-266.738 40.883 286.121-29.284z"/><path fill="#f4fcff" fill-opacity=".145" d="M452.862 614.031l1.294-15.97 201.662-85.482-109.135 95.488z"/><path fill="#fcb395" fill-opacity=".376" d="M124.095 716.445l163.91 15.159-120.439-73.328-32.384 10.234z"/><path fill="#e9fcff" fill-opacity=".369" d="M645.321 758.542l83.607-48.174 5.108 18.71-.462 27.732z"/><path fill="#4190ca" fill-opacity=".267" d="M898 888.738L841.55 797.1l-148.388 84.103 56.078 18.303z"/><path fill="#7b1b39" d="M544.283 425.481l33.883-98.406 47.336 7.411 49.289 124.677z"/><path fill="#5f0f25" d="M439.941 575.498L237.39 419.008l124.24 156.689 118.287-8.938z"/><path fill="#baf8ff" fill-opacity=".408" d="M177.707 510.993l-39.385 63.892-44.886-53.85 63.641 9.05z"/><path fill="#f0f4f5" fill-opacity=".749" d="M527.764 909.215l-28.975-27.125 36.775 49.885-48.147 20.272z"/><path fill="#886a60" fill-opacity=".733" d="M408.125 226.45l-108.369 44.96 37.609-300.159 33.57 239.523z"/><path fill="#9a2745" fill-opacity=".969" d="M330.062 251.343l6.65 74.396-16.532 5.815 123.905 139.73z"/><path fill="#c7d0f7" fill-opacity=".161" d="M12.712 1008.094L113.45 815.852l-160.583-18.206L77.541 706.81z"/><path fill="#dde5fb" fill-opacity=".494" d="M380.85 350.281l-24.378-79.522 40.871-28.884-12.045 24.315z"/><path fill="#141419" fill-opacity=".6" d="M353.2 153.669l138.793-66.5-112.091 104.03-24.476-40.08z"/><path fill="#ad9c95" fill-opacity=".643" d="M627.46 887.436l51.71-282.69-80.112 355.502 86.485-82.65z"/><path fill="#283a44" fill-opacity=".898" d="M440.14 971.095l49.594-11.613 31.095 24.462 34.532 89.746z"/><path fill="#823838" fill-opacity=".573" d="M450.996 844.124l-184.502 56.101 128.362-36.858-35.723-77.499z"/><path fill="#122f2d" fill-opacity=".239" d="M583.144 247.543l92.089-40.348-91.235-99.257 9.55 113.31z"/><path fill="#574b2f" fill-opacity=".565" d="M297.616 817.255L55.16 709.165l106.406-76.847-68.249 65.797z"/><path fill="#3b3630" fill-opacity=".333" d="M478.467-62l167.068 37.439-216.48 154.183 164.693-43.684z"/><path fill="#f5d8bd" fill-opacity=".325" d="M551.337 201.646l43.667.306-92.07 31.584-47.251-25.068z"/><path fill="#020005" fill-opacity=".239" d="M643.217 807.928l-40.755-14.906-39.654 183.041 50.623-127.321z"/><path fill="#392e25" fill-opacity=".667" d="M492.12 358.987l-20.247-43.79 96.171 18.088-100.24 15.98z"/><path fill="#ac274d" fill-opacity=".569" d="M193.164 600.478L74.23 531.62l-2.797 34.377 59.463 37z"/><path fill="#2b0715" fill-opacity=".706" d="M234.596 611.736l38.622-189.004-81.88 201.643 262.548 34.611z"/><path fill="#a21a47" fill-opacity=".498" d="M684.706 382.616l-101.85-105.772 107.468 48.75-143.87 41.416z"/><path fill="#700927" fill-opacity=".475" d="M602.847 482.99l35.615 37.684-361.516-10.603 312.307 54.48z"/><path fill="#e0d7ae" fill-opacity=".259" d="M767.348 945.764L781.936 1086h-63.95L696.31 831.01z"/><path fill="#931d40" fill-opacity=".725" d="M619.98 529.731l-7.205-62.347-13.56 345.785L537.52 657.8z"/><path fill="#312e05" fill-opacity=".365" d="M569.9 183.592l-70.928-10.486 19.632 16.851 4.818 16.763z"/><path fill="#932842" fill-opacity=".894" d="M269.75 592.741l-6.17 17.366 13.593 8.568 74.05 15.78z"/><path fill="#815c46" fill-opacity=".51" d="M198.415 838.436L51.56 625.525l62.259-8.351-51.117-28.33z"/><path fill="#ae2149" fill-opacity=".471" d="M125.282 398.035l235.51-119.568-170.683 59.741L84.313 531.131z"/><path fill="#afc3c6" fill-opacity=".749" d="M541.132 1034.307L460.874 1086l99.83-71.654-27.101-53.753z"/></svg>