<svg xmlns="http://www.w3.org/2000/svg" width="228" height="278" viewBox="0 0 836 1024"><path fill="#7d7170" d="M0 0h836v1024H0z"/><path fill="#d1eafb" fill-opacity=".722" d="M-62-38.365l348.376-6.81 7.853 259.427L-62 226.414z"/><path fill="#0a0f0d" fill-opacity=".749" d="M-62 311.627l74.81-75.675 212.02-.386-88.764 221.762z"/><path fill="#e67959" fill-opacity=".918" d="M600.911 941.02L825.607 1086 898 755.684l-320.64 3.211z"/><path fill="#013889" fill-opacity=".71" d="M408.064 1086l-23.916-532.99-78.811 30.4-17.608 468.771z"/><path fill="#124897" fill-opacity=".741" d="M501.392 972.658l-4.134-483.33L645.866 1086 156.045 952.253z"/><path fill="#ef9406" fill-opacity=".541" d="M486.841 341.908l-108.751 56.46 31.803 570.13 80.525-64.165z"/><path fill="#0439a8" fill-opacity=".565" d="M476.702 459.081L558.124-62l77.763 97.538-78.834 467.144z"/><path fill="#bf7c25" fill-opacity=".71" d="M253.396 285.41l-89.042 48.852L270.79 995.37l37.93-179.012z"/><path fill="#adb4c7" fill-opacity=".98" d="M32.76 878.94l398.645 92.793 264.561-37.955-291.774 10.154z"/><path fill="#0552b3" fill-opacity=".62" d="M226.788 199.612l137.907 133.63 17.223 151.915-87.007 8.19z"/><path fill="#a26f3e" fill-opacity=".996" d="M662.464 315.767l26.051 573.947-120-168.482 21.172-431.207z"/><path fill="#537bbf" fill-opacity=".996" d="M-62 1066.578L110.512 1086 86.074 817.163-62 773.703z"/><path fill="#00070f" fill-opacity=".565" d="M730.184 742.161l87.103 22.892-52.643-172.949-64.086-6.073z"/><path fill="#ad938b" fill-opacity=".824" d="M102.677 981.411l-50.195-579 64.312 87.754 100.616 513.861z"/><path fill="#93571c" fill-opacity=".992" d="M171.849 397.808l74.557 48.388 60.79 161.772L153.7 584.313z"/><path fill="#b9a077" fill-opacity=".984" d="M555.559 546.692l19.37-48.157-235.496-4.6-55.818 57.168z"/><path fill="#1b4f98" fill-opacity=".941" d="M643.719 989.4l-168.213-13.85-255.07-46.331-1.865 141.572z"/><path fill="#352b1d" fill-opacity=".62" d="M-62 360.612l352.571-139.595 132.707 122.322 26.25-107.47z"/><path fill="#1b4588" d="M515.94 942.603l68.467-35.404-25.816-322.276-74.026-26.167z"/><path fill="#ffc853" fill-opacity=".659" d="M593.953 385.98l-22.986-101.718 91.825 31.564-17.364 82.317z"/><path fill="#173e55" fill-opacity=".239" d="M898 931.962L624.298 292.036 466.177 251.17l241.35-309.865z"/><path fill="#a7aaab" fill-opacity=".965" d="M150.189 480.497L-33.678 362.682l26.64 72.03 144.798 90.246z"/><path fill="#868486" fill-opacity=".98" d="M165.73 1058.653l86.662-359.348L230.985 557.6l-45.554 105.79z"/><path fill="#bf8d72" fill-opacity=".416" d="M272.659 9.384l283.69 133.785-13.506 70.33-279.266-11.195z"/><path fill="#431700" fill-opacity=".235" d="M665.709 432.894l-147.855 4.161-28.63 154.73 159.377 117.704z"/><path fill="#b49793" fill-opacity=".682" d="M686.114 400.354L660.245 1086l45.534-23.697 15.026-308.947z"/><path fill="#2868ba" fill-opacity=".824" d="M482.15 335.603l109.508 120.41-18.37-154.797-71.816-63.847z"/><path fill="#edbd5a" fill-opacity=".851" d="M170.191 357.414l86.036 13.878-3.153-77.436-64.908 28.047z"/><path fill="#d2892d" fill-opacity=".722" d="M235.503 771.026l62.62-184.974-3.795 334.555-82.436-14.918z"/><path fill="#e48722" fill-opacity=".522" d="M565.386 566.425l21.796 367.334 78.33-28.433-52.318-111.103z"/><path fill="#c2e2fe" fill-opacity=".529" d="M713.19 549.999l-17.39 35.775-58.889 9.424-18.784-11.673z"/><path fill="#ff5f2a" fill-opacity=".643" d="M718.63 764.513l-5.697 201.34 69.265 9.729-.152-233.275z"/><path fill="#b77622" fill-opacity=".773" d="M395.215 945.105l96.455-.76 17.138-12.042-36.865-428.041z"/><path fill="#f5f5f8" fill-opacity=".459" d="M338.439 418.534l20.66 49.555-55.323-8.374 4.466-23.46z"/><path fill="#2a497c" fill-opacity=".937" d="M155.992 525.768l-8.284-180.08 36.997 9.746L128.01 579.57z"/><path fill="#143164" fill-opacity=".925" d="M293.203 568.53l12.351 129.088 89.264-28.934-24.935-102.243z"/><path fill="#391600" fill-opacity=".388" d="M467.749 43.097L503.08 90.49 320.09 52.23l33.216-27.11z"/><path fill="#79868f" fill-opacity=".678" d="M194.623 601.56L-62 365.574l122.543 494.3 60.311-247.372z"/><path fill="#bfad9e" fill-opacity=".718" d="M238.166 15.31l192.33 15.224 70.836 10.739-65.101-33.21z"/><path fill="#eaa68d" fill-opacity=".498" d="M142.682 982.657l34.665 68.487-64.841-465.322-12.61 369.944z"/><path fill="#d59937" fill-opacity=".925" d="M485.617 404.095l.809 101.115-103.147-.057-1.602-141.441z"/><path fill="#d0e7ff" fill-opacity=".514" d="M470.158 957.028l-72.755 8.534-76.93-19.882-128.328-43.97z"/><path fill="#a86e24" fill-opacity=".925" d="M248.806 572.968l-.817 30.453 80.5-53.093 346.149 4.565z"/><path fill="#d7e5ff" fill-opacity=".412" d="M639.191 911.632l-44.998 43.797-86.523 10.407-34.932-6.473z"/><path fill="#aab4b1" fill-opacity=".545" d="M898 53.16L674.982-25.818 898 144.029l-39.86-16.965z"/><path fill="#2a3f93" fill-opacity=".8" d="M609.183 282.898l-59.09-247.956L399.566 3.515 602.945-62z"/><path fill="#4b1e03" fill-opacity=".4" d="M103.693 596.454l86.06 75.917 73.41-268.052L210.54 614.13z"/><path fill="#0c4da4" fill-opacity=".624" d="M675.463 311.236l4.762 180.612 26.958 50.535-32.279 27.937z"/><path fill="#454e62" fill-opacity=".608" d="M599.751 600.988l1.506 139.54 27.224 59.568-17.49-297.587z"/><path fill="#3a4e7a" fill-opacity=".992" d="M582.867 501.272l10.636-72.481-81.938-53.872-25.98 115.954z"/><path fill="#a4a9ae" fill-opacity=".58" d="M232.165 155.34l245.534 5.754-497.71 59.177 327.722 13.92z"/><path fill="#f15132" fill-opacity=".675" d="M611.199 825.118l22.653-51.794 26.772 90.656-27.356 135.003z"/><path fill="#493020" fill-opacity=".537" d="M397.799 147.86l40.48-9.484-30.583-18.328-105.586 11.914z"/><path fill="#89c4ef" fill-opacity=".439" d="M324.446 259.004l-88.87 43.677 119.83-19.183 6.95 41.36z"/><path fill="#e8f1fe" fill-opacity=".522" d="M160.987 583.73l38.268 25.008-67.142-14.387-17.856-23.725z"/><path fill="#cb8e32" fill-opacity=".796" d="M550.87 494.36l-283.24 24.606-7.77-161.077 16.349 138.233z"/><path fill="#4e1400" fill-opacity=".322" d="M451.454 684.271l112.853 91.05L418.304 590.04l-30.321.354z"/><path fill="#ff9495" fill-opacity=".494" d="M865.25 711.908l-67.067 304.51-26.368-220.775L898 749.574z"/><path fill="#815048" fill-opacity=".451" d="M519.839.621L438.747 90.41l79.018 148.839 45.142-75.983z"/><path fill="#cbdff8" fill-opacity=".235" d="M587.558 553.594L342.03 546.09l-2.39-38.04 240.06 6.63z"/><path fill="#dadfcc" fill-opacity=".404" d="M460.106 357.625l21.368-99.643 202.4 57.513-182.41-45.377z"/><path fill="#19509f" fill-opacity=".686" d="M287.023 490.324L255.2 333.778l71.152-66.633 26.86 59.586z"/><path fill="#404966" fill-opacity=".996" d="M411.28 366.506l-108.701-70.87 124.3 86.273 57.982-39.315z"/><path fill="#742f01" fill-opacity=".69" d="M605.196 469.294l-3.737 112.789 43.493-15.253-15.973-149.82z"/><path fill="#1c1e25" fill-opacity=".737" d="M720.76 752.171l32.6-2.546 13.25-89.69-52.218-78.922z"/><path fill="#f49f20" fill-opacity=".373" d="M189.545 360.92l-20.164 74.5 107.89 7.406-29.247-138.479z"/><path fill="#da9e2a" fill-opacity=".471" d="M566.992 661.763l34.196 298.476-6.352-184.813 6.687-416.247z"/><path fill="#2b2b27" fill-opacity=".604" d="M96.03 370.496l41.94 36.509 92.69-187.202 45.489 54.953z"/><path fill="#104187" fill-opacity=".443" d="M646.98 953.16l-162.653 11.56-273.417 5.387L605.132 1086z"/><path fill="#3a0200" fill-opacity=".384" d="M249.947 522.72l-11.69-69.639-23.445 11.035-6.58 130.775z"/><path fill="#deac9b" fill-opacity=".514" d="M399.31 67.025l-75.27 41.295 110.127 86.217-98.593-19.184z"/><path fill="#c4774c" fill-opacity=".373" d="M138.992 858.288L123.66 625.194l73.976 28.251-35.654 182.5z"/><path fill="#ff6f4f" fill-opacity=".616" d="M853.098 970.745l-227.38 77.193 9.946-48.006L898 1086z"/><path fill="#2a0700" fill-opacity=".361" d="M304.25 871.662l193.6 62.43-164.893-35.668-115.553-55.98z"/><path fill="#626564" fill-opacity=".686" d="M898 138.586L773.673 734.167 898 831.793 692.014 509.13z"/><path fill="#45a3ff" fill-opacity=".314" d="M697.484 572.252l7.43-4.631-15.01-182.483-38.151-94.292z"/><path fill="#235faa" fill-opacity=".773" d="M172.323 1009.734L231.252 1086l-23.583-154.962 214.077 52.583z"/><path fill="#01001f" fill-opacity=".286" d="M225.553 803.047l230.915 90.81-150.006-124.99 58.04 58.139z"/><path fill="#856354" fill-opacity=".992" d="M338.292 270.969l28.977.407 70.054-27.998-90.592-61.288z"/><path fill="#1f2c8a" fill-opacity=".482" d="M606.98 296.346l-136.094-52.914 145.936-58.473 14.225 74.848z"/><path fill="#c26c00" fill-opacity=".357" d="M680.602 446.275l-27.257-101.138-67.905 34.419 64.162 187.132z"/><path fill="#184285" fill-opacity=".863" d="M399.951 785.258l-7.796-74.525-80.439-73.897L299.01 835.53z"/><path fill="#084194" fill-opacity=".451" d="M115.136 569.209l31.898-.175 19.845-65.554-10.127-28.134z"/><path fill="#ffcc62" fill-opacity=".573" d="M628.968 298.88l22.336 11.02 8.876 63.304-77.457-87.063z"/><path fill="#090e09" fill-opacity=".325" d="M154.295 384.373l-22.065 73.026L-62 328.075V157.64z"/><path fill="#40272c" fill-opacity=".263" d="M677.517 648.058l-38.81 25.847-20.921-63.709 151.633-60.703z"/><path fill="#0b0004" fill-opacity=".376" d="M265.218 351.148l125.86 29.039-14.24-19.648-101.289-10.366z"/><path fill="#e8f0ff" fill-opacity=".435" d="M105.875 533.574l41.734-25.399-3.532-49.825-14.59 35.516z"/><path fill="#011844" fill-opacity=".529" d="M539.713 566.017l41.546 7.965-62.8 43.442-44.168-38.174z"/><path fill="#cbddec" fill-opacity=".435" d="M-62 211.292l215.917-21.439 43.96-219.567L-62 122.344z"/><path fill="#043893" fill-opacity=".416" d="M654.897 332.272l19.581 101.385 2.86 66.315 10.367-106.735z"/><path fill="#123c7f" fill-opacity=".608" d="M220.213 924.298l258.394 137.74-230.32-85.61 61.392-34.08z"/><path fill="#b77b73" fill-opacity=".612" d="M707.972 526.635L628.23 1048.2 898 940.865l-223.937 54.622z"/><path fill="#185cb2" fill-opacity=".565" d="M584.39 401.123l-3.166-107.021-90.262 175.258-6.856-124.727z"/><path fill="#3b0f00" fill-opacity=".322" d="M493.903 804.458l-83.434-50.396-104.897-47.283 129.171 85.34z"/><path fill="#c4a195" fill-opacity=".573" d="M403.522 66.994l44.343 132.041-.47-79.636-156.189-4.756z"/><path fill="#f7fef9" fill-opacity=".51" d="M682.915 498.407l2.601-38.277 7.014-20.008 7.593 63.959z"/><path fill="#2266c1" fill-opacity=".341" d="M499.512 676.55l94.636 152.142L542.119 630.8l-51.156-19.32z"/><path fill="#ffc049" fill-opacity=".341" d="M496.792 825.509l-101.164-183.1L505.13 793.474l-122.462 29.462z"/><path fill="#476167" fill-opacity=".384" d="M294.954 74.295l32.674 14.675-61.553 156.898 70.22 13.653z"/><path fill="#96b4bd" fill-opacity=".337" d="M216.63-62l79.298 307.624L309.082 88.58l20.273-59.266z"/><path fill="#6e96d4" fill-opacity=".914" d="M-62 992.411l128.826-1.875 117.762 89.636L-62 1075.703z"/><path fill="#d19535" fill-opacity=".525" d="M557.536 499.358L378.1 473.172l207.513 60.566 3.653-34.342z"/><path fill="#280a00" fill-opacity=".353" d="M495.101 918.531l112.519-14.616-275.078 6.023 91.27 6.327z"/><path fill="#f1f8fc" fill-opacity=".29" d="M471.152 388.624L364.6 321.373l-44.4-89.663 49.342 85.284z"/><path fill="#c4eeff" fill-opacity=".278" d="M193.989 930.848l137.124-14.044-132.43-19.32 23.115 37.295z"/><path fill="#4566a8" fill-opacity=".671" d="M87.875 858.796L9.39 969.042l82.389 37.107 11.168-99.13z"/><path fill="#646b6a" fill-opacity=".58" d="M605.59-44.644l20.159-15.588-23.055 180.01L898 146.114z"/><path fill="#b47222" fill-opacity=".863" d="M179.275 584.801l-6.25-131.39 7.34-17.532-31.918 146.162z"/><path fill="#0b173d" fill-opacity=".38" d="M531.193 733.46l64.41 43.283-112.477-6.296 50.621-25.766z"/><path fill="#4b270c" fill-opacity=".31" d="M443.05 194.829l-11.37 168.869-81.32-81.657 116.583-32.89z"/><path fill="#1f0707" fill-opacity=".357" d="M324.647 223.687l46.242-10.925 26.036 11.022-122.992 7.676z"/><path fill="#173e78" fill-opacity=".529" d="M629.908 937.672l-3.122-7.987L617.982 1086 535.4 969.52z"/><path fill="#dedbe2" fill-opacity=".4" d="M435.275 351.214l14.3-4.29 23.302-21.759 33.292-64.526z"/><path fill="#af5e00" fill-opacity=".31" d="M407.763 566.486l273.319 7.778-21.348-132.196-36.159 103.582z"/><path fill="#cb7605" fill-opacity=".333" d="M292.823 552.457l-32.336-117.756-15.986 162.569 17.162 126.417z"/><path fill="#ff7e42" fill-opacity=".573" d="M719.202 785.756l78.249 179.87-14.278-92.258 18.293-125.497z"/><path fill="#cd9c83" fill-opacity=".286" d="M430.38 90.827l-53.911 180.01 127.376-168.969-30.923 175.245z"/><path fill="#ca9b8d" fill-opacity=".757" d="M94.956 744.606l7.25 228.272 72.32-34.216 58.381 92.197z"/><path fill="#fee68b" fill-opacity=".408" d="M252.912 326.377l9.045-34.445-76.75 36.313-24.608 20.709z"/></svg>