<svg xmlns="http://www.w3.org/2000/svg" width="228" height="278" viewBox="0 0 836 1024"><path fill="#68738b" d="M0 0h836v1024H0z"/><path fill="#7fafe6" fill-opacity=".91" d="M239.675 338.73l330.224-35.937L695.154 1086H357.87z"/><path fill="#2e1000" fill-opacity=".478" d="M843.764 1037.708L898 653.678 579.22 471.88l69.479 330.278z"/><path fill="#211c25" fill-opacity=".455" d="M39.926-14.974l823.234-9.667L898 357.773 119.738 66.424z"/><path fill="#3c8bdd" d="M306.078 1086l1.504-216.697 271.057-93.66 111.996 159.719z"/><path fill="#30121e" fill-opacity=".478" d="M159.2 754.879L-62 759.514l294.703-563.647-105.815 441.658z"/><path fill="#fdf9f8" fill-opacity=".549" d="M479.074 539.659l26.8 316.856-158.858-418.658 282.205-40.26z"/><path fill="#70636a" fill-opacity=".984" d="M-32.6 60.786l464.136 40.756 351.963 139.21L7.145 357.478z"/><path fill="#cdd8e9" fill-opacity=".945" d="M579.46 296.948l16.38 268.44 11.728 293.4L496.032 271.91z"/><path fill="#c8d4e6" fill-opacity=".992" d="M383.02 903.919l-92.16-593.122-69.118 44.976 59.165 159.22z"/><path fill="#045cc4" fill-opacity=".631" d="M375.165 764.941l83.231 137.538-56.793-370.596-62.923 1.001z"/><path fill="#135cb0" fill-opacity=".659" d="M526.372 12.612L504.296 214.81l255.43-59.294 37.883-70.144z"/><path fill="#1d6cc8" fill-opacity=".753" d="M468.865 542.553l111.274 472.132-36.137-465.106-76.033-48.93z"/><path fill="#649fe8" fill-opacity=".659" d="M584.189 408.291l5.775-158.49 184.73 224.756-94.217 60.804z"/><path fill="#171100" fill-opacity=".541" d="M434.736 40.77l107.252 74.025-416.216-49.639L78.44-35.511z"/><path fill="#cfa899" fill-opacity=".706" d="M185.7 727.157L76.656 868.421-35.042 973.14l122.814 12.42z"/><path fill="#571b1c" fill-opacity=".573" d="M290.91 991.846l-185.443 13.004 9.257-113.351 190.379 52.928z"/><path fill="#f0c4a7" fill-opacity=".686" d="M791.641 595.527l-50.158-95.04 29.257-34.599L898 556.557z"/><path fill="#391304" fill-opacity=".522" d="M877.926 492.246L757.278-62l109.44 51.209-103.066 470.58z"/><path fill="#655164" fill-opacity=".996" d="M201.664 292.952l-73.012 341.93L-51.97 416.926l39.642-365.351z"/><path fill="#afd4ff" fill-opacity=".545" d="M217.867 328.558l-2.55 312.877 42.017-.981-8.165-281.395z"/><path fill="#dee4f0" fill-opacity=".796" d="M549.375 640.685l26.509-48.169 95.936 248.691-65.798-19.3z"/><path fill="#151102" fill-opacity=".51" d="M273.558 781.024L293.874 647.7l-102.253-7.522-7.99-21.81z"/><path fill="#fcf0f5" fill-opacity=".659" d="M394.146 444.841l-27.637-99.96 67.296-24.612 26.835 121.04z"/><path fill="#437bc9" fill-opacity=".992" d="M305.709 437.694l.093-165.814 75.126 92.52-8.463 63.15z"/><path fill="#ecf0f9" fill-opacity=".588" d="M288.11 630.245l52.507 2.61 51.603 199.589-68.521 17.121z"/><path fill="#b2ffff" fill-opacity=".255" d="M297.871 83.316l-133.78 198.002-42.59-147.08 146.953-78.782z"/><path fill="#154198" fill-opacity=".753" d="M709.845 873.936L530.93 842.143l.385 112.734-130.86-89.332z"/><path fill="#120000" fill-opacity=".294" d="M501.034 420.768L309.378 239.91l-7.65-69.421 154.995 99.259z"/><path fill="#7d4020" fill-opacity=".518" d="M-59.754 797.98l4.843 168.516 99.733-64.454 135.199-192.918z"/><path fill="#cbbdc5" fill-opacity=".271" d="M165.016 576.046l137.492 344.826-119.23 58.661-45.01-403.65z"/><path fill="#0044b1" fill-opacity=".647" d="M213.578 650.338l-.02-276.224-34.979 54.059L176.195 627z"/><path fill="#d6dff3" fill-opacity=".965" d="M453.973 803.03l-63.116-306.682 59.558 40.314 77.048 281.086z"/><path fill="#002155" fill-opacity=".569" d="M311.288 597.393L266.98 475.665l-26.692-26.887 32.076 113.076z"/><path fill="#040d26" fill-opacity=".655" d="M730.44 643.302L588.56 419.148l38.84 164.276 76.232 36.871z"/><path fill="#01101a" fill-opacity=".561" d="M146.68 731.663L105.89 598.71l-87.355 5.852L55.73 715.96z"/><path fill="#f6b984" fill-opacity=".176" d="M180.325-62L816.92 362.87l-212.2 350.443L898 550.495z"/><path fill="#c1c8da" fill-opacity=".635" d="M582.717 355.071L706.16 494.138l16.068 1.519-49.544 46.877z"/><path fill="#594c46" fill-opacity=".549" d="M245.716 802.863l99.401-19.931-73.073-72.04L64.14 979.335z"/><path fill="#bdd1e3" fill-opacity=".98" d="M235.18 417.057l333.179 87.722 20.606 2.012-284.587 34.664z"/><path fill="#ff0d16" fill-opacity=".302" d="M294.671 1013.295l22.912-144.115-77.968 75.203-26.673 70.097z"/><path fill="#6e4637" fill-opacity=".714" d="M898 308.226l-82.776-179.115-26.675 32.976L650.26 293.88z"/><path fill="#0062d2" fill-opacity=".494" d="M576.36 317.777L709.855 498.99l52.28-8.08-118.52-167.07z"/><path fill="#3670bd" fill-opacity=".8" d="M585.001 500.25l27.396-238.764L595.79 382.46l37.732 357.416z"/><path fill="#5086d6" fill-opacity=".741" d="M447.438 426.897l82.166-12.65-25.89-137.657-26.716-6.89z"/><path fill="#53baff" fill-opacity=".561" d="M292.76 985.768L482.816 1086l1.384-183.388-83.723-10.246z"/><path fill="#101a21" fill-opacity=".522" d="M898 956.383v-51.619L714.287 767.297l76.022 223.327z"/><path fill="#cf8944" fill-opacity=".286" d="M517.006 116.985l-201.39-32.878L352.54 247.59l127.005 6.698z"/><path fill="#5d4a51" fill-opacity=".929" d="M281.607 241.326L88.127 497.033l49.44-121.982L403.118-62z"/><path fill="#d37d67" fill-opacity=".294" d="M634.64 601.043l159.55 213.202 10.895-140.418-167.457 65.792z"/><path fill="#000106" fill-opacity=".561" d="M337.516-62L186.194 89.966l-58.69-4.202L133.764-62z"/><path fill="#4ca1eb" fill-opacity=".804" d="M666.126 801.158l-45.031 104.274L439.075 1086l245.704-140.575z"/><path fill="#fbffff" fill-opacity=".455" d="M231.246 364.832l120.496-96.72-55.272 80.055-31.94 124.998z"/><path fill="#756b67" fill-opacity=".894" d="M772.37 961.635l-17.805-80.05-70.308-25.87-9.25 230.285z"/><path fill="#22170c" fill-opacity=".522" d="M400.98 195.15l-33.034-27.729 34.51-2.174 100.87 23.602z"/><path fill="#051976" fill-opacity=".427" d="M479.23 876.576L524.855 1086l-5.84-120.029 40.814-45.217z"/><path fill="#032828" fill-opacity=".522" d="M113.957 925.625l46.257-54.1 4.986 139.485-58.882-19.814z"/><path fill="#3894ec" fill-opacity=".69" d="M579.3 890.995L365.721 729.622l38.846 217.143-61.405-96.343z"/><path fill="#0f86c5" fill-opacity=".388" d="M520.285 111.81L494.79-2.005l90.943 95.935-136.916 276.64z"/><path fill="#1c52a7" fill-opacity=".8" d="M387.32 530.55l-57.428 18.115-.915-10.197 22.597 113.872z"/><path fill="#97b4ff" fill-opacity=".365" d="M198.052 882.328l38.748-75.406 84.374 19.355-35.832 91.038z"/><path fill="#140f3d" fill-opacity=".435" d="M484.934 807.677l12.246.32 145.58 22.905-81.685-.669z"/><path fill="#4490dc" fill-opacity=".937" d="M200.552 417.335l-16.443-27.468 44.295-19.228 23.818 89.088z"/><path fill="#e9fff9" fill-opacity=".235" d="M763.744 309.237l-43.458 133.934 137.665 111.094-206.237-215.182z"/><path fill="#edcbaa" fill-opacity=".267" d="M-62 1004.97l375.277 80.785 76.46-114.037-219.799 49.745z"/><path fill="#503f94" fill-opacity=".392" d="M286.052 330.222l-270.464 32.21-52.412-116.828 214.098-14.352z"/><path fill="#b5b3b2" fill-opacity=".498" d="M189.185 694.488l-19.697-219.552-6.803 376.022-134.25 91.38z"/><path fill="#0c46b1" fill-opacity=".396" d="M-62 719.67l112.022 5.705-10.736-188.152L-62 606.082z"/><path fill="#030043" fill-opacity=".561" d="M557.245 748.933l-38.681-1.29 6.806-13.357 73.253 5.314z"/><path fill="#dbe5f5" fill-opacity=".761" d="M610.895 832.416l-54.06-190.14 105.962 166.11 2.615-40.775z"/><path fill="#000021" fill-opacity=".227" d="M875.722 91.765L491.634-62l114.625 199.374L752.049-62z"/><path fill="#967334" fill-opacity=".282" d="M-1.755 150.433l148.562 65.845-6.649-169.175L4.518-62z"/><path fill="#7e6b76" fill-opacity=".545" d="M534.175 290.053l-81.467-44.363 225.605-93.2 67.275 170.62z"/><path fill="#070402" fill-opacity=".243" d="M739.172 735.56l-121.28-269.151-2.407 205.177 103.46-181.277z"/><path fill="#060700" fill-opacity=".271" d="M898 465.229L783.54 673.085 898 646.531l-183.74-538.87z"/><path fill="#91addc" d="M519.109 402.41l-39.105-18.215 11.535-44.67 78.02 19.955z"/><path fill="#fffdd6" fill-opacity=".11" d="M121.31 204.031l19.145-105.457 365.302 52.272-46.664 12.966z"/><path fill="#c05e3b" fill-opacity=".357" d="M-62 957.153l6.174 57.898 159.252-10.026 4.45-85.941z"/><path fill="#201203" fill-opacity=".475" d="M9.043 929.848l76.798-78.762L8.117 878.88-62 923.246z"/><path fill="#cdd5d8" fill-opacity=".655" d="M638.53 972.027l-77.142-41.374 73.22 65.734L460.287 1086z"/><path fill="#6f5c4d" fill-opacity=".796" d="M725.561 421.543l31.913-30.269L898 485.215l-86.578 13z"/><path fill="#b89367" fill-opacity=".31" d="M411.885 66.19L408.55-62 526.471 51.813 406.314 53.94z"/><path fill="#1f337c" fill-opacity=".529" d="M366.07 891.886l-97.403 110.712 142.79-145.609 91.178 35.687z"/><path fill="#040113" fill-opacity=".38" d="M283.158 526.551l-31.591-69.33 36.257 255.908-15.545-168.192z"/><path fill="#474ece" fill-opacity=".204" d="M610.172 2.373l40.876 201.298 176.871-36.039-30.846-98.998z"/><path fill="#512600" fill-opacity=".341" d="M368.763 271.252l-2.403 57.708 88.811-18.974 8.915-99.898z"/><path fill="#edf5ff" fill-opacity=".525" d="M328.692 712.489l23.29-58.426 25.564 170.917-48.745 52.523z"/><path fill="#1c52a6" fill-opacity=".718" d="M483.605 605.056l73.593 3.564-53.744 58.407-1.82 39.499z"/><path fill="#080b02" fill-opacity=".42" d="M204.584 638.421l-7.614 65.533 85.634-72.944 3.073 16.857z"/><path fill="#7d6a7c" fill-opacity=".667" d="M143.789 582.112l-91.49-2.216L-62 425.59l214.354 111.224z"/><path fill="#845f55" fill-opacity=".639" d="M-62 502.79l177.35-161.749 42.144 216.174 27.201-141.148z"/><path fill="#32333d" fill-opacity=".62" d="M611.693 742.497l199.38 125.761-147.206-5.122 30.062-109.769z"/><path fill="#e3e2f1" fill-opacity=".494" d="M441.946 321.67l11.508 119.482-73.722-24.916-8.994-97.53z"/><path fill="#feffff" fill-opacity=".373" d="M582.474 398.09L471.816 273.508l100.919 21.142 13.94 75.55z"/><path fill="#483c26" fill-opacity=".243" d="M309.99 311.153l-27.472-186.31L175.35 94.95 421.147-62z"/><path fill="#76828d" fill-opacity=".522" d="M828.402 986.543L898 1050.541l-581.938-30.085 287.615-3.106z"/><path fill="#0b57c9" fill-opacity=".478" d="M493.524 293.445l10.424 12.179-43.19 100.127-23.575-87.447z"/><path fill="#c1cbe0" fill-opacity=".682" d="M618.705 459.405L601.13 353.528l89.632 147.36-4.184-28.372z"/><path fill="#fad5d3" fill-opacity=".49" d="M-24.938 932.474l86.082-12.331L82.78 854.34-25.216 992.37z"/><path fill="#336ac1" fill-opacity=".984" d="M371.894 425.634l-54.805 16.122 32.038-118.779 21.727.228z"/><path fill="#419ff2" fill-opacity=".898" d="M505.5 827.757l-137.758-40.736 104.008 74.35 193.207-24z"/><path fill="#0e1804" fill-opacity=".373" d="M45.404 410.055l-5.819-22.807L-62 264.108l50.907 165.454z"/><path fill="#1c0800" fill-opacity=".365" d="M444.29 26.768l83.346 63.117-47.292 20.49-77.447-6.498z"/><path fill="#043298" fill-opacity=".455" d="M565.052 890.837l-198.912-23.2 5.143-36.991 116.148 78.868z"/><path fill="#f5fbfa" fill-opacity=".584" d="M291.251 457.892l132.49-43.19 110.74 16.36-32.463 7.23z"/><path fill="#0065cf" fill-opacity=".42" d="M605.041 798.863l-39.328-70.637-10.986-54 9.513 135.679z"/><path fill="#555f65" fill-opacity=".459" d="M189.423 810.104l33.208 207.892L99.586 882.95l218.676-110.43z"/><path fill="#aab5c9" fill-opacity=".596" d="M180.98 638.925L164.575 495.96l2.485 254.831 35.337-112.523z"/><path fill="#c2a99e" fill-opacity=".635" d="M359.81 318.422l-12.448-63.347-19.699 53.034 76.446 29.872z"/><path fill="#00207e" fill-opacity=".29" d="M596.174 379.387l-8.733 78.962 63.531-88.98 51.91 105.006z"/><path fill="#f5fafa" fill-opacity=".604" d="M398.723 528.586l-46.22-23.21 102.077-4.881 124.457-.334z"/><path fill="#0e3595" fill-opacity=".467" d="M383.598 815.764l8.44-33.073 66.328 9.38-18.163-33.74z"/><path fill="#18254f" fill-opacity=".718" d="M619.647 633.404l-1.978-150.48 9.456 192.113-33.914-61.593z"/><path fill="#120016" fill-opacity=".482" d="M781.47-62h-58.83l152.437 296.307L898 182.911z"/><path fill="#dda573" fill-opacity=".184" d="M272.988 736.999L113.932 767.09-62 839.001l226.923 7.752z"/><path fill="#8c715a" fill-opacity=".412" d="M666.391 566.477l69.51-74.8 55.93 71.535 83.396 53.002z"/><path fill="#d7dce5" fill-opacity=".737" d="M526.474 458.956l37.014 202.821 32.926-51.115-9.57-131.835z"/><path fill="#2b64b0" fill-opacity=".686" d="M535.8 548.883l6.618 9.12-11.067-44.259-55.855 5.164z"/><path fill="#6398d4" fill-opacity=".957" d="M317.339 804.054l17.954-14.611-31.261-56.962 19.606 89.601z"/><path fill="#6ea2cd" fill-opacity=".365" d="M348.487 480.968l220.713-.744-271.692 30.388-49.844 154.978z"/><path fill="#cfdbf2" fill-opacity=".839" d="M321.995 772.902L298.386 563.3l26.6-13.044 31.72 123.251z"/></svg>