<svg xmlns="http://www.w3.org/2000/svg" width="228" height="278" viewBox="0 0 836 1024"><path fill="#492e2c" d="M0 0h836v1024H0z"/><g fill-opacity=".502"><path fill="#f18b8f" d="M198 330l456-12-324 680z"/><path d="M898 10L506-62l320 1148z"/><path fill="#fff" d="M582 1002l36-232 64 228z"/><path fill="#ffc3cf" d="M466 794L262 938l260 52z"/><path fill="#100000" d="M270 446L606-62 462 430z"/><path fill="#000a16" d="M2 698L-26-62l400 24z"/><path fill="#f16574" d="M598 286L246 590l464-44z"/><path fill="#e9ffff" d="M338 450l72 300 8-292z"/><path fill="#f4ffff" d="M214 382l52 220 24-232z"/><path fill="#560000" d="M442 938l-92-256 32 404z"/><path fill="#000203" d="M898 58L210-62l460 440z"/><path fill="#aa3716" d="M262 98l48 576 104-564z"/><path fill="#ae0400" d="M594 774l48-440-112 72z"/><path fill="#d5f4ff" d="M466 526l80 96-28-284z"/><path fill="#fff" d="M318 794l60 136-88 24z"/><path fill="#0e0000" d="M294 678L182 402l-44 376z"/><path fill="#dd8644" d="M566 590l132 12-136 168z"/><path fill="#000104" d="M830-62L646 838l252 228z"/><path fill="#a10000" d="M498 358l-56 304-24-248z"/><path fill="#cbecff" d="M606 438l60 120 12-116z"/><path fill="#692b05" d="M622 802H186l516-164z"/><path fill="#001616" d="M174 1086L2 862l780 224z"/><path fill="#c3dce6" d="M406 794l104 84-48 124z"/><path fill="#ffb9c7" d="M494 482l8-200 88 24z"/><path fill="#120c00" d="M258 254l124 204 96-80z"/><path fill="#f2c6d8" d="M158 358l136-64v56z"/><path fill="#400300" d="M554 1086L446 646l128 16z"/><path fill="#8f0000" d="M346 274l-72 260 76 76z"/><path fill="#fff" d="M590 886l8 92 72-28z"/><path fill="#af5f3b" d="M686 738l4-92-304 112z"/><path fill="#975c31" d="M502 170L298 350l-44-248z"/><path fill="#df0109" d="M666 358l8 76-188-72z"/><path d="M554 1042l200-88 40 132z"/><path fill="#f6ffff" d="M354 450l68 12-72 172z"/><path fill="#acb5b8" d="M362 546l96 176-76 4z"/><path fill="#142835" d="M-62 342l112 704 152-864z"/><path fill="#090804" d="M106 886l192 56-60-172z"/><path fill="#fff" d="M330 714l-28-8-16-80z"/><path fill="#420000" d="M534 478l176 88-140 28z"/><path fill="#820000" d="M438 834l-64 148-8-176z"/></g></svg>