<svg xmlns="http://www.w3.org/2000/svg" width="228" height="278" viewBox="0 0 836 1024"><path fill="#5e5060" d="M0 0h836v1024H0z"/><path fill="#d1c49c" fill-opacity=".522" d="M365.405 1086L-62 1005.731 39.209-62l125.066 943.668z"/><path fill="#141709" fill-opacity=".584" d="M892.547 131.878L840.526-8.112 240.37 45.8l-65.678 180.632z"/><path fill="#0f0055" fill-opacity=".498" d="M557.942 481.707l-231.11 537.272 104.528 59.523L898 455.164z"/><path fill="#ff9042" fill-opacity=".388" d="M616.062 697.795L898 647.456l-16.763 95.632L734.43 1086z"/><path fill="#e6eaf7" fill-opacity=".894" d="M197.288 1086l-39.324-148.153 81.865 11.884L328.96 1086z"/><path fill="#95674d" d="M285.554 268.61l104.95-131.377 110.856 54.862-76.995 205.873z"/><path fill="#140273" fill-opacity=".451" d="M300.487 1086L154.625 436.49l379.058-65.785-195.545 240.159z"/><path fill="#f6e3c0" fill-opacity=".682" d="M514.597 527.03l-9.539 75.842-56.8-.328 5.363-83.433z"/><path fill="#68f787" fill-opacity=".529" d="M135.264 773.943l-4.55-397.84 32.022 286.741 86.543 48.947z"/><path fill="#88859a" fill-opacity=".996" d="M335.54 599.337l84.481-23.236 13.309 209.946-62.486-4.71z"/><path fill="#35246d" fill-opacity=".741" d="M238.624 955.97L698.059 1086 234.512 674.207 131.655 901.494z"/><path fill="#d6d4ef" fill-opacity=".667" d="M486.317 331.943l47.429 44.613 68.003 38.404 87.228 30.585z"/><path fill="#757473" fill-opacity=".98" d="M81.379 279.24L-62 243.733-56.355-62h256.532z"/><path fill="#c27d4e" fill-opacity=".882" d="M105.455 484.109L82.314 343.16l-100.99-117.43-28.686 286.3z"/><path fill="#141301" fill-opacity=".416" d="M590.012 106.458L37.568-60.626l423.606 224.41 99.695 188.581z"/><path fill="#787f85" fill-opacity=".914" d="M732.625 865.91L597.237 1086l.918-212.568 12.858-46.357z"/><path fill="#796553" fill-opacity=".573" d="M552.088-62l153.604 327.971L490.737 48.366l-238.22-33.75z"/><path fill="#4b2f8d" fill-opacity=".812" d="M720.386 477.34L499.17 368.364 397.02 538.791l106.741-30.6z"/><path fill="#15140e" fill-opacity=".667" d="M216.816 249.066l-29.889-119.53 177.537-75.678-24.425 175.461z"/><path fill="#979c93" fill-opacity=".576" d="M-62 553.045l165.886 407.52 70.737-502.528 214.973-125.169z"/><path fill="#6b6683" d="M284.233 762.613l2.894-56.769 161.112-18.833 24.428 42.337z"/><path fill="#1c1635" fill-opacity=".737" d="M414.373 652.496l239.31-135.213L740 747.006 542.09 593.308z"/><path fill="#fef1e0" fill-opacity=".62" d="M159.388 893.451l-71.036-5.372 14.993-40.27 13.382-28.797z"/><path fill="#2a0e00" fill-opacity=".298" d="M512.979 319.236L450.093 443l-149.876 34.433 7.564-137.386z"/><path fill="#1f1d45" fill-opacity=".659" d="M155.89 669.56l249.7 56.546-126.893-62.686-97.944-139.893z"/><path fill="#7f3927" fill-opacity=".565" d="M147.09 954.71l-86.788-44.69-17.593 42.835 31.98 43.635z"/><path fill="#d9f4fe" fill-opacity=".49" d="M620.532 745.584l19.27 4.292-20.361-86.936-7.961 14.136z"/><path fill="#b07753" fill-opacity=".549" d="M369.52 379.67l-84.772-156.92 223.116 59.054-83.796 116.098z"/><path fill="#c77341" fill-opacity=".376" d="M692.557 1086l95.52-510.918 45.619-43.186 24.425 212.17z"/><path fill="#73695c" fill-opacity=".549" d="M53.13 289.158l52.512 255.494 209.975-204.554L93.614 85.1z"/><path fill="#89a08e" fill-opacity=".259" d="M639.56 135.566L898 191.43 632.454 403.426 898 471.936z"/><path fill="#3d3164" fill-opacity=".898" d="M379.497 739.135l-78.199-430.724 86.645 388.073-6.74 276.153z"/><path fill="#41eb6c" fill-opacity=".639" d="M153.26 661.6l71.676 30.278-18.533 60.418-74.872 6.902z"/><path fill="#322464" fill-opacity=".792" d="M588.49 1086L401.426 535.534 586.62 739.593l14.49 62.472z"/><path fill="#a697fc" fill-opacity=".22" d="M898 827.525L773.094 597.896 686.257 476.3l-91.066-84.1z"/><path fill="#e9d9ff" fill-opacity=".243" d="M403.048 717.513l-185.707-70.57 210.995 43.353-7.703-115.524z"/><path fill="#38266b" fill-opacity=".808" d="M351.55 1086L129.766 801.045l83.154-47.662 379.995 66.366z"/><path fill="#ecebff" fill-opacity=".357" d="M593.186 981.05l9.191-10.838 34.297-156.954-29.71 40.55z"/><path fill="#514741" fill-opacity=".78" d="M709.851 244.838L332.627 221.35l160.854 47.873 73.608 99.226z"/><path fill="#f7fff5" fill-opacity=".306" d="M323.05 807.794l19.21-135.355 4.128-117.903 12.737 121.954z"/><path fill="#14222f" fill-opacity=".686" d="M898 46.668L796.635 151.512 659.48 113.374 631.993-62z"/><path fill="#f3fff6" fill-opacity=".49" d="M447.956 745.24l16.13-35.472-6.625-25.009-13.089-4.506z"/><path fill="#fab896" fill-opacity=".29" d="M485.19 212.913L356.9 293.73l134.19 22.085-126.14-190.71z"/><path fill="#0a0227" fill-opacity=".431" d="M398.56 690.209l-7.266-99.296 15.91 29.2 4.362 63.831z"/><path fill="#243203" fill-opacity=".294" d="M856.64 503.855l-218.55-83.823 179.635 194.65L898 374.478z"/><path fill="#28241d" fill-opacity=".792" d="M500.301 265L522.4 51.98l85.553 117.924-70.703 79.158z"/><path fill="#282011" fill-opacity=".463" d="M280.86 301.16l49.93-60.98 8.52 98.909-93.059-161.834z"/><path fill="#f4eaff" fill-opacity=".337" d="M421.769 576.342l25.01 37.627-112.288-23.254-21.449 25.569z"/><path fill="#412a7d" fill-opacity=".612" d="M315.19 567.894l158.251 32.238-175.132-202.494-129.389 89.724z"/><path fill="#160d20" fill-opacity=".455" d="M659.578 698.42l-65.481 121.53-13.378-189.452 56.03 211.382z"/><path fill="#d6bcff" fill-opacity=".212" d="M422.601 745.548l162.023 29.234-211.837 10.684 1.192-40.3z"/><path fill="#870300" fill-opacity=".259" d="M653.457 660.445l-29.019 254.773 110.494-252.641 12.247 100.328z"/><path fill="#69777a" fill-opacity=".576" d="M650.649 1043.523l58.767-61.593 21.347-181.464L598.07 923.953z"/><path fill="#966d43" fill-opacity=".404" d="M298.821-62L171.253 115.27 322.581 10.694l304.017 60.402z"/><path fill="#fcfff9" fill-opacity=".357" d="M387.836 549.512l7.68 149.526 29.114-12.573-47.239 5.027z"/><path fill="#0a0b30" fill-opacity=".435" d="M140.284 561.784L484.75 402.473l5.5-71.65-68.72 67.732z"/><path fill="#bd8877" fill-opacity=".792" d="M138.311 879.402l-95.61 20.347L96.69 930.88l80.095 34.991z"/><path fill="#a0af47" fill-opacity=".553" d="M-55.856 234.401l108.58 15.638 28.505 87.582-99.785 30.978z"/><path fill="#475342" fill-opacity=".588" d="M898 1086l-20.011-153.687-83.687-78.695L772.872 1086z"/><path fill="#7a7e75" fill-opacity=".71" d="M119.363 810.205l-170.817 42.058L162.66 1086l-164.488-42.593z"/><path fill="#8f968d" fill-opacity=".922" d="M113.675 493.175L-62 838.949l155.9-5.506 74.508-226.023z"/><path fill="#966a56" fill-opacity=".749" d="M142.72 750.66l9.762 244.586 8.285-172.675-56.44-6.797z"/><path fill="#493384" fill-opacity=".906" d="M265.761 984.013L322.851 1086l244.09-103.121-57.573 28.87z"/><path fill="#2e2058" fill-opacity=".714" d="M166.536 511.47l-16.44 64.25 39.302 98.276 164.327-22.925z"/><path fill="#ffe6b9" fill-opacity=".259" d="M524.6 543.965l-45.773 84.224-40.86-58.245 12.063-57.817z"/><path fill="#412e79" fill-opacity=".588" d="M195.423 950.006l-54.872-51.233 82.936-113.439 171.36 151.648z"/><path fill="#cfcde4" fill-opacity=".635" d="M157.915 761.656l39.41-12.184 16.89-20.88-41.62 23.846z"/><path fill="#464e5a" fill-opacity=".647" d="M565.071 48.385L365.221-54.25 643.39-62l-8.168 246.534z"/><path fill="#fdffff" fill-opacity=".4" d="M573.215 403.692l60.398 21.287-147.447-104.068 104.083 98.856z"/><path fill="#fca3a1" fill-opacity=".165" d="M790.292 992.283L738.264 1086l-25.262-325.223-92.383 41.808z"/><path fill="#ff1347" fill-opacity=".22" d="M-62 414.7l147.982-44.676 18.82 32.226-11.372 76.68z"/><path fill="#2c2e35" fill-opacity=".776" d="M449.111 738.07l-19.134-2.144-216.754-61.147 169.898 33.007z"/><path fill="#faffee" fill-opacity=".325" d="M272.639 769.595l34.207-29.315-.335-53.267-13.961 47.873z"/><path fill="#f7fcff" fill-opacity=".561" d="M206.935 1054.033l91.553-10.01-59.05-96.66-88.4 90.359z"/><path fill="#2a2415" fill-opacity=".31" d="M392.786 269.263L181.38-2.352l6.922 203.462 253.16 23.225z"/><path fill="#fdb88a" fill-opacity=".212" d="M390.725 213.869l154.519 24.05-207.246-75.715 43.997-27.599z"/><path fill="#453476" fill-opacity=".984" d="M351.595 789.737l22.14-128.248-50.413 140.898 290.612 128.728z"/><path fill="#fafff5" fill-opacity=".361" d="M407.19 612.116l-32.777-23.31 51.633 2.647-.754 124.58z"/><path fill="#2b2253" fill-opacity=".773" d="M469.464 676.349l-106.293 46.953 236.722-138.436 16.576 126.319z"/><path fill="#000317" fill-opacity=".224" d="M391.522 987.752l213.929 63.525-32.377-61.173-347.516-69.695z"/><path fill="#071d36" fill-opacity=".255" d="M128.804 1080.059l-9.719 5.941-4.772-156.126 35.719 51.283z"/><path fill="#1f1160" fill-opacity=".357" d="M782.322 673.8l-294.31-158.91 62.81-52.024 170.385 94.725z"/><path fill="#241b4a" fill-opacity=".714" d="M508.99 945.101l-169.1-112.332-95.07-106.753 76.118 59.035z"/><path fill="#432e77" fill-opacity=".773" d="M452.534 479.36l-16.37 45.931 10.648 175.44-75.363-266.087z"/><path fill="#828c86" fill-opacity=".349" d="M824.097 331.704l67.818 139.174-90.227 14.414-42.292-92.5z"/><path fill="#7a838b" fill-opacity=".596" d="M-36.629 31.306l53.607 26.9L160.378-62 94.997 179.805z"/><path fill="#403662" fill-opacity=".533" d="M402.68 723.293l-6.159 164.233 20.806-151.952-42.395-54.615z"/><path fill="#12132c" fill-opacity=".463" d="M452.296 774.89l177.461 48.134-28.304-159.263 5.16 118.504z"/><path fill="#46404a" fill-opacity=".71" d="M512.192 275.803L657.37 430.47l-86.811-57.017-95.98-52.679z"/><path fill="#8e6be2" fill-opacity=".204" d="M665.373 973.036L348.819 866.732l102.266 61.375-5.042-54.003z"/><path fill="#eaeae1" fill-opacity=".749" d="M91.212 870.14l-7.591 23.704 65.098-34.727-35.681-22.644z"/><path fill="#fdfffa" fill-opacity=".306" d="M350.38 692.138l-40.36 94.692 59.162-106.003-27.446-96.722z"/><path fill="#040710" fill-opacity=".447" d="M600.414 951.308l-159.83-41.193 129.977 55.703-23.247-27.778z"/><path fill="#6f5c56" fill-opacity=".569" d="M172.516 274.503l41.898-116.9L-62 201.4l69.459 47.75z"/><path fill="#121724" fill-opacity=".514" d="M639.683 710.332l-23.231-76.543-60.241-100.092 134.83 79.847z"/><path fill="#1a1917" fill-opacity=".741" d="M322.712 278.223l-31.146 8.746-7.142-257.354-59.623 197.61z"/><path fill="#f4feed" fill-opacity=".247" d="M408.245 671.485L391.8 830.217l-3.281-229.916 7.833 124.834z"/><path fill="#624033" fill-opacity=".835" d="M381.206 328.51L363.78 429.781l-61.69-82.791 177.49-5.51z"/><path fill="#0a0730" fill-opacity=".42" d="M334.597 307.15l-7.407 115.88 2.567 14.237-30.574-40.295z"/><path fill="#32235f" fill-opacity=".659" d="M149.295 843.069L422.887 1086l-255.38-321.717 93.54-33.915z"/><path fill="#f2feeb" fill-opacity=".282" d="M464.71 674.749l4.989 11.603-52.51 71.6 46.968-94.115z"/><path fill="#d83237" fill-opacity=".333" d="M662.736 817.475l-12.848-67.591 24.139-43.59 57.336 50.966z"/><path fill="#a783ff" fill-opacity=".098" d="M324.485 433.84L170.61 550.122l-8.972-68.162 122.513-139.116z"/><path fill="#fea578" fill-opacity=".31" d="M304.201 263.673l19.065-24.6-6.933-35.923-32.238 33.057z"/><path fill="#1f1742" fill-opacity=".647" d="M271.6 818.193l274.3 181.598-217.418-114.844 31.763 3.374z"/><path fill="#5f5856" fill-opacity=".639" d="M627.854 390.927L573.79 216.583l264.726 37.158L898 305.642z"/><path fill="#edf4fe" fill-opacity=".267" d="M593.787 949.738l9.57 40.969 24.763-191.925 5.558 68.478z"/><path fill="#c60115" fill-opacity=".275" d="M801.287 597.1l91.371 133.322L898 517.385l-97.01 46.319z"/><path fill="#4b3423" fill-opacity=".616" d="M298.352 12.015l125.993 18.086 161.398 50.433-309.008-44.218z"/><path fill="#5a6468" fill-opacity=".557" d="M632.12 1034.144l68.647 36.156-57.653-216.77-38.8 75.777z"/><path fill="#9060ff" fill-opacity=".184" d="M562.877 982.366L370.893 1086 513.02 978.656l-62.208-58.608z"/><path fill="#dffff5" fill-opacity=".22" d="M628.948 765.805l-10.622-5.155 1.872-133.53 17.392 100.296z"/><path fill="#aab6cb" fill-opacity=".533" d="M160.21 1011.848l-1.191-97.453 32.57 98.27L3.95 1086z"/><path fill="#110f2e" fill-opacity=".459" d="M586.532 651.051l-138.514.165-38.792 59.055 109.896-84.339z"/><path fill="#b68e57" fill-opacity=".188" d="M444.313 399.656L237.38 297.562l-25.072-61.164 49.844 15.412z"/><path fill="#6b4ce9" fill-opacity=".243" d="M456.315 566.553l14.186 52.994 123.379 8.784-111.577-40.42z"/><path fill="#02051b" fill-opacity=".2" d="M291.659 795.023l327 139.76-303.526-108.328 41.294-219.03z"/><path fill="#feffff" fill-opacity=".408" d="M610.958 402.144l-99.28-53.858 26.194 25.678 110.32 61.57z"/><path fill="#f2fff4" fill-opacity=".349" d="M422.603 738.85l19.409 9.28-34.649-1.012 35.002 46.14z"/><path fill="#c37d66" fill-opacity=".38" d="M214.813 904.197L93.71 814.082l51.692-46.629 9.83 104.659z"/></svg>