<svg xmlns="http://www.w3.org/2000/svg" width="228" height="278" viewBox="0 0 836 1024"><path fill="#4b4549" d="M0 0h836v1024H0z"/><g fill-opacity=".502"><path fill="#001928" d="M378 922l392-428-448-296z"/><path fill="#ffc0d4" d="M134 1086L-62 982l292-112z"/><path fill="#1264bc" d="M66 398l416 204-232-368z"/><path fill="#bb5a57" d="M898 266l-444 8L746-62z"/><path fill="#d6e694" d="M766 838l-108 248-16-284z"/><path fill="#0d69d0" d="M730 374l-296 76 80-196z"/><path fill="#ba1c28" d="M-62 398l236-116L-22-62z"/><path fill="#003a96" d="M594 1086l68-180-512 104z"/><path fill="#aa9480" d="M10 878l132-396-200 136z"/><path fill="#f59200" d="M398 922l64 56-44-252z"/><path fill="#e8ffff" d="M818 510l-104-64-16-64z"/><path fill="#312c19" d="M78 778l580 44-484-420z"/><path fill="#3a2400" d="M490 102l-228 72 200 252z"/><path fill="#0f345d" d="M122 458l644-100-368 328z"/><path fill="#542c12" d="M898 958l-88-780-120 604z"/><path fill="#c1cfd3" d="M226 474l48-84 28 104z"/><path fill="#ca7e06" d="M486 934l68-8-40-224z"/><path fill="#7f6166" d="M70 942l164-444v412z"/><path fill="#002353" d="M626 1014l-4-536-96 368z"/><path fill="#ee8f00" d="M314 826l44-24 4 172z"/><path fill="#ffc61d" d="M486 314l24-112-76 144z"/><path fill="#00306b" d="M198 934l412 44-456 100z"/><path fill="#000a1b" d="M766 486L458 666l180-288z"/><path fill="#3ba4ff" d="M162 294l156-56-148 116z"/><path fill="#fff93a" d="M318 302l-16 36-4-100z"/><path fill="#ad5c00" d="M534 786l36-200-56 88z"/><path fill="#251c22" d="M754 202l-148 64 292 324z"/><path fill="#7fa0cf" d="M730 934l-264 144 220 8z"/><path fill="#6e8875" d="M290 82L70 158 162-2z"/><path fill="#52abff" d="M526 266l136 68-52 40z"/><path fill="#668c8a" d="M762-18l-88 96 224 108z"/><path fill="#ffc81a" d="M618 686l28 8 4 80z"/><path fill="#ffcd25" d="M90 498l100 28-48 16z"/><path fill="#997467" d="M142 318l-76 40 20 188z"/><path fill="#247bdc" d="M226 882l-96 204 112-128z"/><path fill="#b82f36" d="M898 246L590 130l-32 120z"/><path fill="#25240e" d="M190 766l276 216-192-16z"/><path fill="#100f00" d="M794 554l-184-48 200 160z"/><path fill="#774f42" d="M782 654l-28 432-116-560z"/><path fill="#001f4f" d="M98 490l176 32-76-176z"/></g></svg>