<svg xmlns="http://www.w3.org/2000/svg" width="228" height="278" viewBox="0 0 836 1024"><path fill="#877d45" d="M0 0h836v1024H0z"/><g fill-opacity=".502"><path fill="#d9ffff" d="M242 522L78 958l248 128z"/><path fill="#a5c7ff" d="M-2 1082l140-700-200-148z"/><path fill="#a5a600" d="M186 318l184 768 384-768z"/><path fill="#392537" d="M898 226L46-62l100 392z"/><path fill="#372700" d="M710 978L610 470 466 766z"/><path fill="#d1f0ff" d="M746 790l152-228-144-4z"/><path fill="#f2f900" d="M326 294L110 638l36-256z"/><path fill="#532e3f" d="M898 666L558 154 898-58z"/><path fill="#c9e4ff" d="M294 942l-60-400-104 544z"/><path fill="#e0b5a0" d="M310 42l-16 204L430 38z"/><path fill="#bba500" d="M278 1086V878l476 112z"/><path fill="#1a0203" d="M350 174l40 232 104-76z"/><path fill="#d0d620" d="M586 214l136 204-428 140z"/><path fill="#c25f8a" d="M658 1086l132-436 108 344z"/><path fill="#715806" d="M74 530l164-112-164 584z"/><path d="M522 750l76 32 164-204z"/><path fill="#0e1306" d="M702 938l-260 64 244-152z"/><path fill="#e9fcff" d="M26 1046l-88-276 104 28z"/><path fill="#948c00" d="M278 854l300-508 184 236z"/><path fill="#f7f428" d="M382 482l-84-180-148 76z"/><path fill="#25213b" d="M10 306l-72-204 172 8z"/><path fill="#5c4e16" d="M638 570l-408-24 72 168z"/><path fill="#29282e" d="M354 198H154l-44 232z"/><path fill="#99a2c3" d="M122 118L-6 354l132 172z"/><path fill="#bb8356" d="M430 910l148 44 140-264z"/><path fill="#b6f3fc" d="M746 946l148 140H674z"/><path fill="#ccdff5" d="M130 806l184-48-124-128z"/><path fill="#2e4206" d="M466 818l-176-16 32 100z"/><path fill="#1d2329" d="M66 18l408 28L362-62z"/><path fill="#334852" d="M98 574l-76-16 56-152z"/><path fill="#ffff38" d="M702 354L482 254l48 84z"/><path fill="#4e7f89" d="M190 814L86 906l32 180z"/><path fill="#5e705d" d="M538 334l100 68-228 12z"/><path fill="#b3815a" d="M586 194L558 82l-224 92z"/><path fill="#d2d900" d="M190 386L94 614l64 36z"/><path fill="#fffe00" d="M314 886l-40 68 140-4z"/><path fill="#bcdcf7" d="M758 690l140 4-160-164z"/><path fill="#364d27" d="M278 966l-4 60 140-72z"/><path fill="#c2b100" d="M218 1034l480 44 8-136z"/><path fill="#945e69" d="M746 582l152-164-216-164z"/></g></svg>