<svg xmlns="http://www.w3.org/2000/svg" width="228" height="278" viewBox="0 0 836 1024"><path fill="#7a7c8e" d="M0 0h836v1024H0z"/><path fill="#1d203a" fill-opacity=".992" d="M478.62 217.928L358.812 102.82 198.036 638.187 30.865 468.09z"/><path fill="#d7eafd" fill-opacity=".671" d="M215.142 847.562l-129.164.826 295.453-541.22-55.657 322.453z"/><path fill="#07000c" fill-opacity=".702" d="M740.667 482.627l-73.366 132.875L898 677.821 676.784 219.135z"/><path fill="#ccd1e2" fill-opacity=".863" d="M614.61 631.707l181.123 361.008L898 684.593l-438.33 324.563z"/><path fill="#d3e4f4" fill-opacity=".639" d="M588.381 468.118l-94.929-87.654-170.898 563.828 92.018-33.042z"/><path fill="#060f4c" fill-opacity=".675" d="M395.971 941.636l122.13-264.5 81.73-2.996-180.598 389.154z"/><path fill="#2a62dd" fill-opacity=".643" d="M-16.183 757.61l70.597 295.951L537.012 1086l-71.365-93.463z"/><path fill="#04064a" fill-opacity=".545" d="M427.886 661.531l-98.99-30.327-108.708 227.18 49.81 98.637z"/><path fill="#ffc270" fill-opacity=".349" d="M459.39 348.905L452.177-7.884 898-62v260.122z"/><path fill="#040c2f" fill-opacity=".604" d="M75.368 295.453l55.372-18.807L94.963-30.277-7.212-48.565z"/><path fill="#020327" fill-opacity=".42" d="M351.793 326.354L457.888 672.89 434.76 74.873 88.221 449.393z"/><path fill="#400f11" fill-opacity=".357" d="M661.257 376.576L898 492.698 515.874 55.433l53.93 473.519z"/><path fill="#dff0fe" fill-opacity=".631" d="M655.487 516.685l-7.782-160.397 101.393 104.56L593.232 681.89z"/><path fill="#caecff" fill-opacity=".325" d="M-12.123 460.827l88.391 345.548L-46.499 1086l336.94-296.901z"/><path fill="#c9d5e6" fill-opacity=".824" d="M327.692 506.734l-84.958-22.498 40.17-139.74 89.475-17.497z"/><path fill="#93653d" fill-opacity=".722" d="M657.968 993.032L528.37 1086l299.922-517.306 57.511 22.088z"/><path fill="#fff0e7" fill-opacity=".42" d="M10.926 75.039L-62 669.81l189.752-375.392-62.79 14.734z"/><path fill="#112273" fill-opacity=".471" d="M8.252 902.283L-62 658.69l284.899 25.818 52.229-381.073z"/><path fill="#d2ebe7" fill-opacity=".408" d="M898-62L259.31 127.783 604.98-62l275.08 382.74z"/><path fill="#050000" fill-opacity=".51" d="M99.784 446.951l193.85-117.421-63.475 160.946-253.08 129.876z"/><path fill="#061056" fill-opacity=".8" d="M102.41 983.244l9.258 5.554 252.431 35.779-246.936 1.142z"/><path fill="#d1d2ea" fill-opacity=".506" d="M750.777 626.282L561.141 801.885 898 903.93l-211.434 60.932z"/><path fill="#35386b" fill-opacity=".965" d="M419.099 556.386l-78.748-14.657 59.602-249.838 68.698 85.557z"/><path fill="#96a3a5" fill-opacity=".886" d="M265.46 511.27l68.49 132.527 334.518 50.731L471.05 573.752z"/><path fill="#9cb0ff" fill-opacity=".306" d="M55.82 842.132L23.5 610.367l194.524-113.938-6.972 184.15z"/><path fill="#a0765e" fill-opacity=".804" d="M716.216 73.413L580.55 18.11 456.443 416.853l267.402-167.299z"/><path fill="#001257" fill-opacity=".416" d="M642.828 316.027l-82.859 61.494 3.836 208.933 72.214 5.97z"/><path fill="#cfd9ef" fill-opacity=".816" d="M462.806 372.133l.45 232.365 98-193.212L454.87 371.89z"/><path fill="#9ba08f" fill-opacity=".576" d="M109.683 205.47l263.994-42.027 105.767-139.48-405.77 66.951z"/><path fill="#3b2600" fill-opacity=".353" d="M-3.482 65.916l316.424-3.659L437.85-50.277-62-59.964z"/><path fill="#c2cee1" fill-opacity=".906" d="M514.195 669.568l-75.744-.835L301.8 905.686l98.004 28.178z"/><path fill="#02000e" fill-opacity=".62" d="M639.048 310.057l160.06 134.948-19.782 291.075-45.623-291.601z"/><path fill="#47529f" fill-opacity=".725" d="M677.058 548.925l-55.634 174.963 124.65-78.306 4.36-17.838z"/><path fill="#191b00" fill-opacity=".427" d="M262.51 196.443l190.432-65.582 32.52 110.805-193.672 25.893z"/><path fill="#162865" fill-opacity=".788" d="M-62 906.025l153.775-54.128-34.187-13.424-47.77-192.094z"/><path fill="#b59a86" fill-opacity=".957" d="M-37.164 390.463l220.095-155.128 21.063 82.235L55.91 393.048z"/><path fill="#4f230b" fill-opacity=".6" d="M694.287 966.25l-65.591-62.695-58.678 64.602 40.488 35.575z"/><path fill="#dcedff" fill-opacity=".584" d="M-37.676 640.427l145.303 17.882 12.715-85.727-33.75-3.889z"/><path fill="#d3dcf0" fill-opacity=".78" d="M898 946.469V383.374l-71.739 328.223L699.22 906.743z"/><path fill="#ffdbc9" fill-opacity=".247" d="M574.288 209.357L340.4 377.051l254.455-264.698L879.28 240.88z"/><path fill="#222058" fill-opacity=".314" d="M291.37 509.374l-63.708-20.379-95.33 95.548 12.99 174.808z"/><path fill="#6098ff" fill-opacity=".604" d="M244.735 951.303L98.326 822.073-62 985.091l430.136 3.853z"/><path fill="#dae3ea" fill-opacity=".573" d="M141.02 814.234l73.965 44.624L352.88 552.416l-157.197 98.399z"/><path fill="#f2f4f4" fill-opacity=".298" d="M560.25 532.138l150.567-2.15-41.315-29.931-358.462-42.31z"/><path fill="#09003b" fill-opacity=".263" d="M612.056 634.321l-26.165-20.788-369.728-69.149 234.58 79.91z"/><path fill="#594145" fill-opacity=".557" d="M548.652 204.892l211.192 42.721-10.44 190.65-91.687-167.404z"/><path fill="#091912" fill-opacity=".239" d="M559.565 34.816l-16.188-21.578 201.044 92.37-55.25 56.743z"/><path fill="#e7fff4" fill-opacity=".408" d="M803.836 543.618l-8.986-112.311L898 597.13l-15.723-174.623z"/><path fill="#000006" fill-opacity=".788" d="M823.919 593.738L780.005 411.77l-72.91 140.5-1.512 38.22z"/><path fill="#e3fbff" fill-opacity=".459" d="M635.508 346.018l-3.492 32.286 51.882 84.01 57.985-19.895z"/><path fill="#ee914b" fill-opacity=".431" d="M-62 635.398l93.642-145.696 48.81 89.4-6.438-7.373z"/><path fill="#cfdce4" fill-opacity=".455" d="M554.256 1064.055l46.95-440.816-133.801-46.972 188.113 19.8z"/><path fill="#040634" fill-opacity=".486" d="M354.643 436.066l110.653 4.382-19.837 99.887-70.681-148.996z"/><path fill="#31365f" d="M341.739 265.396L158.067 378.902l280.23-75.108-3.618-49.219z"/><path fill="#300" fill-opacity=".216" d="M490.389 287.332l-56.336 102.72 280.948-25.45-27.454-46.978z"/><path fill="#233fa3" fill-opacity=".694" d="M329.163 977.672L137.599 822.257l235.274 134.477 72.314 43.304z"/><path fill="#120f2e" fill-opacity=".482" d="M378.156 752.126l-80.06-37.661 19.518-84.014 97.307 28.804z"/><path fill="#08062c" fill-opacity=".565" d="M528.5 583.806l21.517-12.812 88.323-42.97-7.31 52.53z"/><path fill="#040423" fill-opacity=".675" d="M103.492 572.536L274.627 388.4l-104.684-27.735-124.992 166.41z"/><path fill="#bdcfff" fill-opacity=".447" d="M41.348 95.87l-67.935-21.592 36.704 298.954 30.567-225.905z"/><path fill="#00012f" fill-opacity=".482" d="M63.752 284.988L51.318 140.823l106.866 105.83L53.208 290.97z"/><path fill="#b5b1bb" fill-opacity=".635" d="M96.7 447.267l87.613-118.036-173.25 157.736 18.485-97.665z"/><path fill="#def0fd" fill-opacity=".365" d="M486.765 900.606l173.964-9.363-59.348-255.876L467.217 1086z"/><path fill="#00105c" fill-opacity=".408" d="M609.005 315.06l65.413 160.427-122.1-65.724 155.888-73.61z"/><path fill="#7a8c7a" fill-opacity=".925" d="M800.126 942.626l-86.765 45.103-356.835 59.817L881.798 1086z"/><path fill="#6f7ebf" fill-opacity=".545" d="M290.685 387.332L477.24 443.27l-90.672-73.081-49.047 65.494z"/><path fill="#a8dbf8" fill-opacity=".471" d="M-62 939.765L-3.892 1086l90.634-151.067-87.855-36.37z"/><path fill="#030310" fill-opacity=".859" d="M254.965 542.484l-94.242-114.392 104.584-63.385-48.662 210.857z"/><path fill="#e3bd97" fill-opacity=".592" d="M534.509 157.274L432.696 298.786l6.825 44.855 15.586-9.06z"/><path fill="#b2866b" fill-opacity=".69" d="M717.58 908.148l-186.115-18.192 71.68 39.322L743.66 746.352z"/><path fill="#773f02" fill-opacity=".322" d="M154.431 338.928L44.064 366.752l39.97 47.26 40.262-11.649z"/><path fill="#bdc9db" fill-opacity=".604" d="M197.844 558.464l185.928 96.086 48.781-91.324 4.368 61.567z"/><path fill="#2d3263" fill-opacity=".698" d="M8.25 453.983l23.523 3.394 21.903 90.21 82.904-76.429z"/><path fill="#06012a" fill-opacity=".396" d="M556.016 789.918l-7.82-115.434-65.737 80.248-49.386 147.044z"/><path fill="#3c4385" fill-opacity=".608" d="M285.946 685.2L335.8 846.61l-49.721 109.265-71.075-32.358z"/><path fill="#ced9f1" fill-opacity=".576" d="M469.898 401.342l10.915 237.305 80.59-170.21-1.833-74.494z"/><path fill="#847565" fill-opacity=".694" d="M898 293.643l-167.435-55.638L741.6 365.866 898 479.028z"/><path fill="#acaec3" fill-opacity=".992" d="M643.249 714.835l124.97-55.572-100.878 157.51-58.582-154.014z"/><path fill="#042c99" fill-opacity=".333" d="M-62 837.281l87.876-247.216L-62 700.078l219.593-53.275z"/><path fill="#747b9a" fill-opacity=".596" d="M295.47 319.05l53.58-49.893-172.64 45.89 54.005-2.272z"/><path fill="#2e150a" fill-opacity=".471" d="M852.128 479.506L800.35 667.057l-55.202-5.533 12.376-47.545z"/><path fill="#b8c3cf" fill-opacity=".827" d="M657.81 607.659l-326.575-66.28-45.538 20.14 232.668 28.671z"/><path fill="#b2bbd2" fill-opacity=".988" d="M283.361 494.99l-31.332-40.764 175.28 18.606-188.52 21.618z"/><path fill="#d0e0d0" fill-opacity=".239" d="M418.088 122.278l187.801-83.251L898 27.756 441.677-62z"/><path fill="#fbffe6" fill-opacity=".192" d="M62.64 717.644l212.067 26.785-117.014 81.374-116.158 19.258z"/><path fill="#666c8f" d="M94.902 778.065l189.373-291.55-161.283 248.782-21.895 75.504z"/><path fill="#0c0a2c" fill-opacity=".647" d="M284.348 759.749l67.769 41.2 14.508-38.887-96.255-27.772z"/><path fill="#455093" fill-opacity=".745" d="M183.576 507.74l-25.338 220.533 46.913-61.184L104.81 566.555z"/><path fill="#f0fefd" fill-opacity=".682" d="M289.302 354.075l80.967-20.946-11.748 64.431-68.095-25.249z"/><path fill="#9d6645" fill-opacity=".62" d="M638.961 297.445L459.81 337.09l-5.62 32.9 81.965 31.917z"/><path fill="#86868e" d="M597.23 488.561l-7.408 71.207-43.924-6.99 16.88-51.415z"/><path fill="#0b1c55" fill-opacity=".51" d="M630.745 351.167l169.181 97.067-63.87-107.046-110.852-23.24z"/><path fill="#00034b" fill-opacity=".435" d="M93.992 1001.817l175.357 6.13 85.904-17.98-86.915 93.457z"/><path fill="#3d415c" fill-opacity=".38" d="M563.543 637.97l-221.606-65.798 92.671 32.85 245.14 6.54z"/><path fill="#98c159" fill-opacity=".639" d="M387.073 642.614l118.339 27.38 101.817-32.305-104.419 7.964z"/><path fill="#5880d9" fill-opacity=".976" d="M421.57 995.497l-59.626 9.423-62.496 81.08H661.04z"/><path fill="#265ced" fill-opacity=".255" d="M233.52 857.41l74.889 103.934-271.326-14.01 100.73-120.343z"/><path fill="#a0a6b3" fill-opacity=".894" d="M676.655 566.906l37.793-98.244-156.591-21.552 170.446 46.07z"/><path fill="#a3a9a4" fill-opacity=".545" d="M833.04 235.026l-45.767-181.05-115.895 176.716 130.766 37.579z"/><path fill="#010027" fill-opacity=".404" d="M329.965 538.92l110.897 19.197-103.496-72.393 122.478 23.356z"/><path fill="#a87852" fill-opacity=".427" d="M765.12 656.725l-56.814 92.168-19.379 173.735 187.75-290.95z"/><path fill="#111c31" fill-opacity=".459" d="M134.539 36.488L-17.325 82.532-62-62l187.182 34.014z"/><path fill="#414f85" fill-opacity=".502" d="M136.324 92.423l-186.89-81.155 78.17 89.778 69.013 50.126z"/><path fill="#daedff" fill-opacity=".341" d="M370.272 837.523l37.51-157.016-98.375 242.218 114.486-.226z"/><path fill="#2b2f59" fill-opacity=".937" d="M483.531 240.555l-42.521 15.181-151.515 64.479 46.838 18.011z"/><path fill="#bac6d0" fill-opacity=".827" d="M621.33 639.798l-231.523 63.395L640.88 657.18l27.705-243.684z"/><path fill="#fdcead" fill-opacity=".231" d="M-62 377.797v-45.815l167.098-52.687 173.721 17.193z"/><path fill="#b2bad5" fill-opacity=".502" d="M218.862 570.545l39.316 53.505 50.795 42.408 43.667-162.571z"/><path fill="#6561be" fill-opacity=".31" d="M898 887.908l-241.653 82.427 138.708 25.663L898 926.844z"/><path fill="#8f8765" fill-opacity=".341" d="M141.86 223.299l314.73-117.033L394.083-62 257.481 315.36z"/><path fill="#531d01" fill-opacity=".49" d="M606.17 207.25l62.331 42.964-85.153-13.815-14.613-28.096z"/><path fill="#892b00" fill-opacity=".235" d="M530.148 163.774l49.275-42.928-71.928-40.211-32.926 91.08z"/><path fill="#ce9e86" fill-opacity=".576" d="M582.898 288.654l56.419-55.45-.434 57.148-106.18-16.274z"/><path fill="#565c76" d="M348.507 555.78l47.84 42.054-7.915 5.776-44.399-10.352z"/><path fill="#08082b" fill-opacity=".749" d="M399.588 960.13l67.678.19-25.472-27.583-50.378 14.673z"/><path fill="#bbc1cf" fill-opacity=".776" d="M529.594 838.22l-17.382 157.187-47.042-19.873 117.493-31.255z"/><path fill="#e0f1ff" fill-opacity=".259" d="M818.86 579.008L898 598.142 721.625 989.665 839.761 639.59z"/><path fill="#3d4b95" fill-opacity=".478" d="M745.655 609.176L677.97 585.45l-69.432 119.36 105.046-53.135z"/><path fill="#778187" fill-opacity=".824" d="M489.047 1085.075l104.246-102.77-74.494-49.201 25.178-55.642z"/><path fill="#d6e2e9" fill-opacity=".667" d="M118.979 711.263l-8.403 116.047 123.132-210.907-17.66 245.79z"/></svg>