<svg xmlns="http://www.w3.org/2000/svg" width="228" height="278" viewBox="0 0 836 1024"><path fill="#6d6063" d="M0 0h836v1024H0z"/><g fill-opacity=".502"><path fill="#fff" d="M86 1086L-62 758l248 8z"/><path fill="#fff2ec" d="M898 1046l-76-296-304 168z"/><path fill="#1c1c10" d="M150 86L898-42 486 366z"/><path fill="#e2fbff" d="M626 382L450 754l76-444z"/><path fill="#0f1016" d="M82 546l304-56L-62 2z"/><path fill="#00184c" d="M574 898L158 782l240 304z"/><path fill="#b7d8f5" d="M366 198l72 252-124 336z"/><path d="M558 538l128 208-8-388z"/><path fill="#ffd6dc" d="M734 630l-64-184 76-232z"/><path fill="#1f1e15" d="M754 990l-12-260-104 332z"/><path fill="#810000" d="M518 518l-56-264-120 568z"/><path fill="#f7ffff" d="M462 614l-72 208 68 28z"/><path fill="#fff7ff" d="M-62 970L58 746l108 216z"/><path fill="#690000" d="M306 162l68 412-120 72z"/><path fill="#ffffd7" d="M642 830l-120 180 124 76z"/><path fill="#fff" d="M814 770L710 902l188 108zm-308-8l16 124 36-108z"/><path fill="#d3e7ff" d="M370 722l-92 36 40-176z"/><path fill="#d2d066" d="M370 1086l-432-84 344-44z"/><path fill="#445762" d="M558-62H-14l-32 608z"/><path fill="#000005" d="M254 286L22 550l228-84z"/><path fill="#f1eaff" d="M550 702l68 8-16-124z"/><path fill="#ff3a5c" d="M186 270l184-56-32 124z"/><path fill="#89b1d4" d="M138 178l-164-48 184-76z"/><path fill="#ff3925" d="M138 758l-24 216-20-128z"/><path fill="#e5707e" d="M618 490l-72-252 128 84z"/><path fill="#b1dbf1" d="M550 298l60 100-148 224z"/><path fill="#00173e" d="M610 694l80 180-120-88z"/><path fill="#bfcceb" d="M734 430l164 208-224-148z"/><path fill="#de0005" d="M510 870l-56-28 48-200z"/><path fill="#38301b" d="M58 730L2 530l304 264z"/><path fill="#342917" d="M514 374L402-46l316 16z"/><path fill="#ccb2a7" d="M230 634L50 554l212 200z"/><path fill="#02262f" d="M742 562l72 212 80-124z"/><path fill="#6c7663" d="M482 158l416 396-120-448z"/><path fill="#fff" d="M218 802l100-16 8 32z"/><path fill="#200d07" d="M702 566L574 446l84 360z"/><path fill="#d91e3a" d="M90 370L14 538l128-108z"/><path fill="#00385d" d="M390 818l168 232-348-112z"/><path fill="#570000" d="M286 722l60-296-104 192z"/></g></svg>