<svg xmlns="http://www.w3.org/2000/svg" width="228" height="278" viewBox="0 0 836 1024"><path fill="#69363a" d="M0 0h836v1024H0z"/><path fill="#b5e8fe" fill-opacity=".475" d="M736.017 693.081L554.606 743.44l14.98-251.588 244.305-18.403z"/><path fill="#edba9b" fill-opacity=".557" d="M253.159 86.114l170.018 58.28 15.683 193.38-45.05 231.605z"/><path fill="#de2e32" fill-opacity=".533" d="M542.143 574.928L367.54 778.99 351.075 1086l270.543-15.597z"/><path fill="#0c0509" fill-opacity=".584" d="M316.946 992.108l-7.36-268.262L.343 905.706l-57.848 96.72z"/><path fill="#8f9dba" fill-opacity=".6" d="M179.886 410.045L42.407 557.627-62 432.055l146.758-54.43z"/><path fill="#442427" d="M635.794 500.836L478.438-52.42 888.08-3.239 866.207 411.64z"/><path fill="#36151b" fill-opacity=".792" d="M208.292-62L-62 365.622l292.184 11.598 13.541-42.479z"/><path fill="#d24f4c" fill-opacity=".416" d="M200.047 610.975l46.275-11.646 42.48-399.936L675.72 372.556z"/><path fill="#1b090f" fill-opacity=".647" d="M223.483 564.994L-14.295 908.951-62 828.41l283.147-423.473z"/><path fill="#cf3331" fill-opacity=".78" d="M27.78 852.776l64.015 12.607 138.191-120.322-50.639-112.988z"/><path fill="#86d3f7" fill-opacity=".294" d="M557.478 829.879l134.755-15.772-3.77 167.594L620.916 1086z"/><path fill="#ddd1ab" fill-opacity=".486" d="M406.156 287.824l6.47-136.228-187.713 6.202 31 108.33z"/><path fill="#7a0000" fill-opacity=".384" d="M466.878 334.016l153.482 65.93L416.609 894.48l-191.057 116.183z"/><path fill="#a6b6bc" fill-opacity=".635" d="M112.672 1086L-62 1047.116l117.805-41.198 294.807 4.12z"/><path fill="#ddf5f9" fill-opacity=".384" d="M272.144 561.012l-46.45-27.597 182.268-40.302 9.433 47.368z"/><path fill="#f7eae2" fill-opacity=".451" d="M341.079 669.076l-8.332-67.512-29.308-30.844-1.062 140.623z"/><path fill="#4d060f" fill-opacity=".565" d="M715.495 742.962l-16.24 279.648L898 977.937V565.48z"/><path fill="#531619" fill-opacity=".859" d="M345.759 791.062L206.636 435.255l-29.698 141.947 100.846 420.075z"/><path fill="#0d0700" fill-opacity=".282" d="M-51.212 339.428l396.286 46.291 100.289-30.297L219.82 229.751z"/><path fill="#342b26" fill-opacity=".91" d="M391.852 104.518l-9.826-75.246L88.278 7.204l28.377 55.806z"/><path fill="#080002" fill-opacity=".357" d="M605.154 333.807l-215.862-93.696L639.274 212.5l172.838 299.646z"/><path fill="#c42325" fill-opacity=".373" d="M305.04 299.883l450.154 112.7 8.991-97.383 50.858 166.065z"/><path fill="#ff5b5e" fill-opacity=".396" d="M507.872 990.853L650.867 1086 559.75 825.988l-70.874 15.072z"/><path fill="#dafcfd" fill-opacity=".455" d="M345.906 400.196l94.306-10.335-53.088-26.705-48.14 37.596z"/><path fill="#3b0a09" fill-opacity=".722" d="M464.817 499.22l26.675-39.534 274.624-46.96 9.41 52.311z"/><path fill="#868294" fill-opacity=".443" d="M572.658 757.457l195.59-66.557 31.713-79.636 9.118-189.414z"/><path fill="#67536a" fill-opacity=".616" d="M-62 846.933L49.866 597.225l236.756-267.029L-47.12 551.603z"/><path fill="#eadfe8" fill-opacity=".631" d="M402.841 329.152l53.224-37.825 1.739-3.6-9.41-15.03z"/><path fill="#caa890" fill-opacity=".969" d="M255.714 94.42l-4.623 33.792 110.26-30.218-7.513 29.412z"/><path fill="#5b2f36" fill-opacity=".733" d="M686.562 174.265l-247.948 90.82-39.92-53.757L783.435-62z"/><path fill="#9b292d" fill-opacity=".769" d="M213.104 393.606l387.621-48.292-233.518-19.133-83.656 216.78z"/><path fill="#1e1a1d" fill-opacity=".961" d="M-.647 827.343l-28.12 236.665 252.99-317.01-40.67 195.089z"/><path fill="#2d3c25" fill-opacity=".38" d="M318.169 99.69l73.198 70.516 40.503-64.75-140.238 59.41z"/><path fill="#2f0002" fill-opacity=".475" d="M502.218 610.21l-15.194 64.807-40.997-152.328L594 430.317z"/><path fill="#b5909f" fill-opacity=".541" d="M663.283 370.509l-72.67 11.858-13.47-60.759-39.134-11.504z"/><path fill="#55222a" fill-opacity=".937" d="M258.768 93.314l20.913-9.728L-62 82.117l89.987 221.19z"/><path fill="#ffb6b4" fill-opacity=".247" d="M754.535 310.732l50.295 144.252-62.363-106.522-29.955-102.928z"/><path fill="#591a27" fill-opacity=".4" d="M743.396 822.052l-187.579 20.476-20.161-137.059 269.077 65.405z"/><path fill="#a1282e" d="M556.84 359.515L340.662 500.106l105.011-11.135 3.677-197.883z"/><path fill="#adaaff" fill-opacity=".161" d="M8.151 15.13l53.644 105.96 47.4-6.987L67.163-62z"/><path fill="#d9fad2" fill-opacity=".416" d="M19.012 853.103l6.516-6.38 50.076 21.262-10.702-44.16z"/><path fill="#7d1a1d" fill-opacity=".765" d="M344.047 604.313l-35.864-49.338 179.359-31.064-181.45 328.216z"/><path fill="#a89798" fill-opacity=".722" d="M262.61 586.833l-18.77-64.584 7.327-26.167 33.605 29.373z"/><path fill="#e7fbb3" fill-opacity=".227" d="M369.72 329.294l-115.506 37.398 17.591-23.714L429.3 262.061z"/><path fill="#f3ccb6" fill-opacity=".4" d="M391.203 304.035l42.784-162.808-109.083 68.038L363.1 98.04z"/><path fill="#9fa4b7" fill-opacity=".573" d="M-58.905 527.148l21.006-81.814 141.91-45.745 25.059 32.58z"/><path fill="#161a14" fill-opacity=".369" d="M-62 356.145l361.928-74.006 80.097-30.376-89.735 89.4z"/><path fill="#042324" fill-opacity=".286" d="M169.459-59.365L495.985 60.124 891.77 43.197 765.128-62z"/><path fill="#8fa7ae" fill-opacity=".396" d="M761.946 1086L898 988.07l-372.07 76.844 104.21-68.654z"/><path fill="#9a9faa" fill-opacity=".373" d="M774.246 640.334l-14.652-110.633L563.47 479.46l-9.306 259.073z"/><path fill="#2e0402" fill-opacity=".51" d="M327.76 521.007l-13.415 46.875-147.507 42.434 102.617 49.303z"/><path fill="#26181c" fill-opacity=".89" d="M104.992 751.69L21.315 853.242-62 840.073l233.61-217.624z"/><path fill="#a51e25" fill-opacity=".439" d="M742.947 432.035L424.242 311.61l1.262 245.681 78.03-100.13z"/><path fill="#1f100d" fill-opacity=".573" d="M709.938 455.313l17.73-149.036L782.07 469.55l-50.072 17.987z"/><path fill="#aa2e32" fill-opacity=".851" d="M522.103 631.6l42.45-110.603-9.308 152.066-245.437 295.702z"/><path fill="#84272b" fill-opacity=".784" d="M253.544 339.178l-60.428 109.278 148.881-88.693 27.36 134.851z"/><path fill="#a21313" fill-opacity=".537" d="M137.6 831.438l44.324-112.83.967-125.048 61.378 120.77z"/><path fill="#d1ccc8" fill-opacity=".486" d="M298 595.441l7.439 40.494 33.015 28.228-10.328-80.658z"/><path fill="#861f22" fill-opacity=".549" d="M427.933 826.798l-109.435 254.099-14.18-47.816L372.13 503.42z"/><path fill="#2c181a" fill-opacity=".761" d="M851.936 375.447l-63.6.18-79.823-187.297 85.207 3.578z"/><path fill="#e6bda1" fill-opacity=".475" d="M226.528 165.674l10.316 65.384 56.444-82.758 101.857 45.475z"/><path fill="#effeff" fill-opacity=".267" d="M248.466 502.77l3.54 23.357 158.352-30.36-12.606 47.396z"/><path fill="#c6383f" fill-opacity=".808" d="M478.74 335.545l98.679 39.364 20.477-31.452-135.26-55.453z"/><path fill="#e84242" fill-opacity=".506" d="M186.859 622.776L43.478 840.854 174.51 771.55l-17.642-85.34z"/><path fill="#472d3c" fill-opacity=".659" d="M56.525 713.974L34.762 594.125 248.42 388.732 97.17 602.154z"/><path fill="#989ba9" fill-opacity=".792" d="M783.863 492.977L681.377 474.94l-55.835 45.733 125.89 9.143z"/><path fill="#e3fcfd" fill-opacity=".322" d="M374.615 485.388l-7.509-113.313 73.902 9.657-93.191.946z"/><path fill="#8c2025" fill-opacity=".506" d="M507.108 193.583L319.591 380.342l28.603 210.113-42.952-145.051z"/><path fill="#39080a" fill-opacity=".439" d="M468.798 489.987l84.365 29.165 68.95-127.573L312.53 706.058z"/><path fill="#a5373a" fill-opacity=".922" d="M397.833 472.192L253.97 425.608l-33.989 34.431 26.935 43.506z"/><path fill="#17190c" fill-opacity=".463" d="M244.589 33.789l100.69 122.091-45.542-17.933L324.79 43.86z"/><path fill="#9f7f68" d="M292.088 311.924l-19.075-27.297 62.01-65.844-107.768-24.688z"/><path fill="#24cfa0" fill-opacity=".306" d="M414.13 956.403l53.117 18.033 4.853-30.813-21.531.416z"/><path fill="#edddaf" fill-opacity=".298" d="M377.282 101.922l-20.163 9.372-128.312 21.219 37.632-32.654z"/><path fill="#771d22" fill-opacity=".655" d="M437.632 328.125l178.043 73.735 22.811 97.482 10.108 10.997z"/><path fill="#491a26" fill-opacity=".51" d="M421.422 197.678l470-6.89L491.73 297.906l-86.31-38.973z"/><path fill="#625f57" fill-opacity=".686" d="M319.852-62L433.787 87.776 310.823-3.507l-90.41 61.227z"/><path fill="#74dbdc" fill-opacity=".161" d="M38.874 989.215L-30.695 1086h438.57l-130.739-83.176z"/><path fill="#00d5d8" fill-opacity=".125" d="M757.082 365.478l-58.847-31.25-1.74-78.53 54.392 24.247z"/><path fill="#6d1c1f" fill-opacity=".718" d="M344.182 931.352l33.825-89.592-68.18-183.831 13.223-14.546z"/><path fill="#0c2235" fill-opacity=".208" d="M19.231 169.695l63.693 109.197L214.446 383.35-62 410.596z"/><path fill="#261111" fill-opacity=".831" d="M760.263 436.95l1.889 40.728-195.571-1.242 68.794 19.823z"/><path fill="#2b1314" fill-opacity=".533" d="M136.676 207.654l1.74 168.848 106.619-251.899 39.184 18.82z"/><path fill="#6a0f19" fill-opacity=".341" d="M826.018 370.292l-35.448 546.5L898 304.22 770.089 573.05z"/><path fill="#48463f" fill-opacity=".78" d="M380.002 166.574l-5.651-139.87 65.176 79.304 4.118 2.574z"/><path fill="#67353f" fill-opacity=".702" d="M441.394 269.44L567.32 126.074l9.48-23.438L411.313.835z"/><path fill="#621b21" d="M850.427 653.708L558.394 821.635l-12.364-56.178 304.738 51.273z"/><path fill="#fe4948" fill-opacity=".322" d="M751.442 328.168l27.245 27.94 16.845 52.368-6.394 73.542z"/><path fill="#0a1517" fill-opacity=".545" d="M559.449 314.234l26.438 3.58 110.976-61.67 4.41 126.745z"/><path fill="#6d1719" fill-opacity=".961" d="M310.158 969.123l175.632-200.24-169.077 234.6-45.821-235.38z"/><path fill="#c7fed6" fill-opacity=".298" d="M419.924 387.59l-31.458-16.386 15.372 93.214 17.517-32.864z"/><path fill="#7f2b2d" fill-opacity=".357" d="M286.248 352.04l-18.1 259.908 25.987-91.407 29.65 149.3z"/><path fill="#735061" fill-opacity=".345" d="M550.026 712.881l260.326-50.222-43.69 52.995L539.4 762.775z"/><path fill="#3a0201" fill-opacity=".337" d="M220.577 688.43l.245-355.87 26.272 235.063 66.14 64.714z"/><path fill="#574555" fill-opacity=".522" d="M728.07 838.211l-60.975 227.593 8.932-265.861-135.649 14.851z"/><path fill="#bb2d33" fill-opacity=".439" d="M361.462 646.295L349.674 724.1l213.468-107.327-31.614 252.053z"/><path fill="#371d28" fill-opacity=".463" d="M271.065 677.605l43.314 325.02-76.197-2.574-44.057-206.459z"/><path fill="#530b15" fill-opacity=".29" d="M175.517 392.428l111.6-180.522L101.87 262.45 245.099-62z"/><path fill="#5d1312" fill-opacity=".596" d="M560.571 1005.02l-79.834 21.423L776.694 1086l-329.904-70.88z"/><path fill="#ad2d32" fill-opacity=".875" d="M440.645 524.352L420.23 413.59l20.7-97.93 37.294 164.621z"/><path fill="#150b0c" fill-opacity=".329" d="M122.147 696.366L54.994 588.751l116.709-49.13 12.637 102.113z"/><path fill="#f7f1ff" fill-opacity=".341" d="M446.321 281.807l-40.558 37.815 44.418 23.992-28.623-13.3z"/><path fill="#442c2f" fill-opacity=".765" d="M91.843-9.528l9.56 104.634 92.19-58.039 222.265-71.539z"/><path fill="#ac1614" fill-opacity=".49" d="M701.86 390.391l17.041 2.547-30.908 58.928-48.955-41.072z"/><path fill="#c73f44" fill-opacity=".596" d="M463.3 845.382l-96.655 164.104-60.376 15.593 168.708-127.175z"/><path fill="#f5faff" fill-opacity=".396" d="M405.702 530.297l6.997-8.739-22.713-26.897-19.27 52.56z"/><path fill="#4d3936" fill-opacity=".522" d="M701.158-39.504l89.328 119.346-9.655 29.846-231.598-20.814z"/><path fill="#ac302e" fill-opacity=".322" d="M182.058 797.417l80.132-147.49 75.353 170.768-49.728-164.015z"/><path fill="#697e93" fill-opacity=".259" d="M667.897 782.513l-90.418 67.012 36.976 158.786 47.032-23.946z"/><path fill="#847f98" fill-opacity=".267" d="M87.822 561.652l5.775-2.046 42.542-38.085L-62 437.706z"/><path fill="#fafdfd" fill-opacity=".247" d="M363.446 507.196l-14.453-2.354 30.995 43.346-57.013-2.594z"/><path fill="#c2a58f" fill-opacity=".549" d="M379.276 237.764l-90.854 43.193-38.39-50.785 178.154 10.88z"/><path fill="#721c1b" fill-opacity=".525" d="M288.06 365.905l-9.479 334.44.235-226.442 95.642-124.066z"/><path fill="#292227" fill-opacity=".612" d="M871.602-62l-93.608 401.6L898 341.16 766.184 49.334z"/><path fill="#1d1a19" fill-opacity=".718" d="M647.615 383.158l94.145-62.45-22.877 58.823-59.914 28.83z"/><path fill="#400c00" fill-opacity=".439" d="M317.487 187.047l-33.74 9.461-14.95-5.213-2.614-3.87z"/><path fill="#b49fa6" fill-opacity=".439" d="M241.817 446.936l40.092-23.13-30.415 35.203-15.002-22.848z"/><path fill="#e3c0ab" fill-opacity=".627" d="M234.344 176.019l130.647 13.373-17.606-83.42 32.288 48.464z"/><path fill="#74020c" fill-opacity=".325" d="M515.973 895.918l-21.601-10.587-50.66 38.288 73.99 7.44z"/><path fill="#d4b498" fill-opacity=".357" d="M417.262 272.753l-83.654 95.343 38.566-123-4.813-114.597z"/></svg>