<svg xmlns="http://www.w3.org/2000/svg" width="228" height="278" viewBox="0 0 836 1024"><path fill="#4e333c" d="M0 0h836v1024H0z"/><path fill="#e8cbbc" fill-opacity=".808" d="M705.09 441.285l-80.452 326.867 85.998 26.698 76.16-159.383z"/><path fill="#d4b798" fill-opacity=".757" d="M548.416 267.414l-178.21 95.779L392.225 11.4l161.427 71.481z"/><path fill="#d49498" fill-opacity=".749" d="M-62 1017.125L66.512 914.742l81.813-406.21 68.75 558.746z"/><path fill="#d71a2d" fill-opacity=".525" d="M206.402 322.678l142.042-10.534L494.258 1086H289.342z"/><path fill="#000e11" fill-opacity=".596" d="M-5.109-28.743l355.96 31.395 10.626 281.443L4.019 406.159z"/><path fill="#000c12" fill-opacity=".686" d="M483.409-56.363L898-62l-9.733 991.637-142.75-395.671z"/><path fill="#d8f8fc" fill-opacity=".431" d="M295.156 648.347l-10.9 59.397 229.762-2.312 61.92-65.625z"/><path fill="#001127" fill-opacity=".773" d="M898 927.725L488.316 1086l-66.095-396.537 141.73 48.437z"/><path fill="#101529" fill-opacity=".706" d="M701.277 646.27l39.424-41.263L622.17 728.393 315.206 309.09z"/><path fill="#252432" fill-opacity=".91" d="M-24.583 905.997L225.09 461.104l-87.987-256.882L-62 158.263z"/><path fill="#d22a3f" fill-opacity=".718" d="M661.223 603.758l61.496-138.838-75.42-111.946-49.367 43.25z"/><path fill="#880c20" fill-opacity=".745" d="M336.455 1086l-206.19-154.17 11.214-101.098 333.999 62.493z"/><path fill="#ecccfc" fill-opacity=".573" d="M-46.385 1024.241l75.156-31.79 53.645-81.46L307.809 1086z"/><path fill="#efb2a8" fill-opacity=".525" d="M506.705 541.732l44.33-130.237-70.693 16.22-7.147 42.592z"/><path fill="#101228" fill-opacity=".882" d="M489.15 666.748l-9.232 22.239-96.975-155.027 270.315-56.214z"/><path fill="#0c161b" fill-opacity=".765" d="M889.41 974.81l-85.296-351.08-165.67 265.043 142.313 122.272z"/><path fill="#0c1019" fill-opacity=".761" d="M148.672 512.755l72.03-23.06 39.265 112.928 7.86 160.001z"/><path fill="#07152f" fill-opacity=".694" d="M485.448 359.04l-95.379 104.718 250.449-97.275L413.243 256.29z"/><path fill="#fffddc" fill-opacity=".525" d="M783.647 658.303l-72.823 80.559-63.936-184.253 106.604-4.843z"/><path fill="#c8b280" fill-opacity=".537" d="M106.908 664.347l80.432-59.055 21.379 142.885-127.7 92.371z"/><path fill="#f4f0f5" fill-opacity=".573" d="M325.249 442.656l10.624 27.77-51.585 16.252-21.285-29.3z"/><path fill="#fcdcc4" fill-opacity=".514" d="M436.197 52.999l-53.6 181.452-30.457-67.758 220.788-40.403z"/><path fill="#b29690" fill-opacity=".627" d="M704.25 796.64l-65.183 13.075-37.525-87.168-98.566-127.257z"/><path fill="#3c4758" fill-opacity=".788" d="M207.637 719.39L135.51 896.692l115.565-11.774 31.154-157.411z"/><path fill="#0e1223" fill-opacity=".835" d="M689.93 52.428l-218.746 595.53 185.369-34.786-61.78-186.46z"/><path fill="#5893ff" fill-opacity=".408" d="M857.208 1086H715.459l-35.417-98.37L898 1010.486z"/><path fill="#0e1426" fill-opacity=".667" d="M456.61 884.04l239.715-243.232-59.48-73.77L473.1 962.043z"/><path fill="#c7ac89" fill-opacity=".478" d="M403.294 403.192l-35.675-115.223 7.68-64.349 95.427 144.043z"/><path fill="#e7002c" fill-opacity=".525" d="M72.237 890.693l-83.566 7.004L-62 965.101l124.822 4.23z"/><path fill="#d41b39" fill-opacity=".561" d="M335.625 298.76l-143.578 31.854 31.721 173.474 125.229-95.937z"/><path fill="#6d6951" fill-opacity=".706" d="M296.427 106.062L465.32 59.636l95.587 4.67-132.92-79.763z"/><path fill="#eafeff" fill-opacity=".475" d="M585.01 692.923l-27.525-66.591-122.298 112.136 87.573-101.14z"/><path fill="#fe1b57" fill-opacity=".349" d="M261.9 1071.187L119.168 949.181 149.8 909.4l217.224 94.558z"/><path fill="#80040e" fill-opacity=".545" d="M478.235 1086L456.26 819.692l-123.328-146.37-61.602 166.967z"/><path fill="#111318" fill-opacity=".486" d="M480.439 239.598l93.682-23.715L521.382-62l320.94 536.46z"/><path fill="#e7c0b9" fill-opacity=".671" d="M546.62 229.159l-137.438-49.344 127.32-25.707 24.085 25.025z"/><path fill="#9ea7a7" fill-opacity=".408" d="M348.468 615.212l-98.207-60.083 107.34-27.853 28.38 58.896z"/><path fill="#c3a59a" fill-opacity=".71" d="M161.097 431.458l-16.395 318.277-21.181-73.332 49.058-212.244z"/><path fill="#ba979c" fill-opacity=".906" d="M282.559 670.3l144.557-15.532 8.567 50.583-154.522-84.588z"/><path fill="#fee4d8" fill-opacity=".6" d="M772.354 601.425L602.569 750.86l34.683-54.284 70.507 93.687z"/><path fill="#061230" fill-opacity=".686" d="M395.737 460.308l3.996-69.633 73.21 6.037L436.38 709.33z"/><path fill="#10120a" fill-opacity=".255" d="M-62 144.934l862.085 26.817-405.527-43.223L408.3-62z"/><path fill="#131c39" fill-opacity=".922" d="M542.894 768.064l119.15 1.408-127.035 116.16-89.12-205.09z"/><path fill="#a61125" fill-opacity=".733" d="M386.145 400.117l24.005 184.238-21.651 2.53-56.03-155.593z"/><path fill="#f3d8be" fill-opacity=".424" d="M415.6 171.681l-10.012-110.65 155.522 10.8-121.802 101.396z"/><path fill="#7e0d1b" fill-opacity=".612" d="M302.28 576.01l-92.178 85.414 202.206-71.965-53.559 98.334z"/><path fill="#fffffd" fill-opacity=".49" d="M460.781 654.732l-61.388-14.101 114.857 58.842-61.24-7.87z"/><path fill="#7a6b62" fill-opacity=".729" d="M122.803 894.34l141.603-167.652 14.355 98.83-161.02-39.698z"/><path fill="#971928" fill-opacity=".729" d="M263.656 690.397L410.34 711.18l-6.508-79.534-105.298 357.666z"/><path fill="#0f1830" fill-opacity=".886" d="M629.922 704.492l-44.562 2.365-44.416-54.866-78.617 294.075z"/><path fill="#f7fffe" fill-opacity=".537" d="M344.42 669.932l12.973 5.38 50.156-35.217-39.521 77.239z"/><path fill="#232025" fill-opacity=".749" d="M72.257 900.772l15.306-95.62-38.599-49.3L-53.11 866.02z"/><path fill="#ca9d8e" fill-opacity=".651" d="M540.128 238.445l-76.809 27.42 71.29 44.693 4.133-48.64z"/><path fill="#f7fffd" fill-opacity=".569" d="M428.734 717.6l-18.486-13.442-2.445-53.443 18.435-4.348z"/><path fill="#0c0c2b" fill-opacity=".38" d="M141.814 897.92l108.776 12.542 19.047-8.07-73.13-138.424z"/><path fill="#fdeefc" fill-opacity=".416" d="M774.842 648.998L727.354 530.55l-43.959-12.292 53.028-30.194z"/><path fill="#9a0317" fill-opacity=".498" d="M618.757 518.24l121.617-26.575-146.623-83.546 14.316 80.396z"/><path fill="#72798c" fill-opacity=".361" d="M473.725 535.449l76.89-93.702-2.654 86.129-23.07 23.416z"/><path fill="#1a181d" fill-opacity=".694" d="M363.561 210.065l14.11 143.789-21.17 71.378-39.938-319.065z"/><path fill="#23202d" fill-opacity=".765" d="M898 258.566L707.242 498.421l-2.165-61.879L854.28 758.781z"/><path fill="#1f0005" fill-opacity=".471" d="M242.318 644.62l13.742-99.044-165.167 41.227 265.827 82.94z"/><path fill="#181325" fill-opacity=".69" d="M536.763 636.832l-151.801 8.471 176.151-70.432-163.507 321.888z"/><path fill="#f1fdf4" fill-opacity=".733" d="M119.626 970.584L60.694 959.02l18.142-43.742 34.365 18.11z"/><path fill="#e8d5c5" fill-opacity=".984" d="M480.788 89.537l-7.955 20.664 89.132 36.312-38.04-79.65z"/><path fill="#141d3b" fill-opacity=".82" d="M423.05 773.107l21.085-193.968-50.15 19.4L734.773 1086z"/><path fill="#d2f9ff" fill-opacity=".392" d="M487.543 423.34l-10.726 23.78 62.022-6.296 18.521-20.365z"/><path fill="#e3fcfe" fill-opacity=".463" d="M578.108 694.202l29.872-7.969-10.536.718-73.709-64.735z"/><path fill="#151e3c" fill-opacity=".882" d="M437.365 426.857l130.75-6.186 70.045-72.406-167.116-16.306z"/><path fill="#141419" d="M373.65-15.495l165.202 51.728 46.862 159.7 297.66-213.535z"/><path fill="#000005" fill-opacity=".416" d="M469.307 601.406l167.055-154.151 2.362 255.918L392.85 514.748z"/><path fill="#4c3a3a" d="M505.24 208.447l54.316-7.084 147.858 23.964-200.453-29.77z"/><path fill="#9f7a52" fill-opacity=".427" d="M207.625 732.017l9.4-135.993-124.701 217.06 34.914 123.03z"/><path fill="#fbffff" fill-opacity=".435" d="M484.717 687.683l-69.979-66.812 72.671 95.87 25.843-89.186z"/><path fill="#8c2004" fill-opacity=".255" d="M424.72 305.511l295.3 49.083-333.172-92.162 89.76-73.456z"/><path fill="#ac182b" fill-opacity=".533" d="M629.446 526.292L627.95 306.26l28.742 199.138 107.182 43.969z"/><path fill="#e8c7a8" fill-opacity=".631" d="M745.429 539.733l-97.879 8.376 3.074 38.435 75.703 89.314z"/><path fill="#db998b" fill-opacity=".447" d="M718.304 778.617l-35.7 31.146-58.681-4.205 78.969-95.204z"/><path fill="#08020f" fill-opacity=".455" d="M659.475 1046.834L396.373 872.867l35.386 54.937 141.377 152.05z"/><path fill="#ffe08d" fill-opacity=".204" d="M115.998 1086l4.733-236.263 56.354-422.927-131.92 619.915z"/><path fill="#d8baa3" fill-opacity=".592" d="M179.214 635.888l-85.08 116.06 21.643-95.376 40.931-51.152z"/><path fill="#b57fff" fill-opacity=".259" d="M237.388 991.69l-87.453-52.421L85.263 1086l145.405-71.89z"/><path fill="#fc4551" fill-opacity=".478" d="M526.347 506.103l-38.953-70.674-4.872 46.78 8.323 33.099z"/><path fill="#edfffb" fill-opacity=".38" d="M469.85 708.552L559 614.011l-58.295 113.635 32.37-91.444z"/><path fill="#1b191f" fill-opacity=".78" d="M483.846 139.759l-24.227 20.712 277.4-40.37 157.317 157.297z"/><path fill="#fffdbe" fill-opacity=".141" d="M348.94 39.692L482.607-6.622 375.482 74.804 324.73 96.83z"/><path fill="#9e1729" fill-opacity=".941" d="M321.582 564.39L209.914 397.375l-3.732 35.032 32.607 108.867z"/><path fill="#ffeee0" fill-opacity=".51" d="M735.525 693.909L615.99 763.617l151.94-185.52 5.507 56.29z"/><path fill="#180001" fill-opacity=".259" d="M324.42 700.31l37.072 69.641 162.551 112.207-148.48-173.096z"/><path fill="#dc2f4d" fill-opacity=".475" d="M631.523 336.239l18.627 21.228 47.08 54.515-12.062 135.441z"/><path fill="#fcd4c7" fill-opacity=".451" d="M506.97 221.528l-103.778-67.135 130.841 21.097L523.9 49.334z"/><path fill="#d82846" fill-opacity=".545" d="M510.546 284.52l99.93 49.384-47.86-1.69-44.751-44.412z"/><path fill="#af283b" fill-opacity=".933" d="M347.154 606.98l-9.495 24.329 21.457 54.172 30.51-44.965z"/><path fill="#d4f6f1" fill-opacity=".259" d="M259.012 563.447l45.636 17.661 31.378-14.155-94.642-21.033z"/><path fill="#1e2e49" fill-opacity=".729" d="M519.039 1067.762l181.596.045-45.489-283.83-11.898 236.835z"/><path fill="#b2fef0" fill-opacity=".165" d="M373.822 728.613l-81.612-71.32-19.74 54.568 272.326 9.327z"/><path fill="#312901" fill-opacity=".431" d="M492.877 294.32l-79.158-11.63 100.038 66.446-102.16 13.161z"/><path fill="#c5a890" fill-opacity=".655" d="M402.453 384.431l25.406-49.85-50.243-70.53-13.135 18.89z"/><path fill="#000d18" fill-opacity=".486" d="M262.378 681.47l-92.345-404.384 48.945 407.654-17.203 70.773z"/><path fill="#23212a" fill-opacity=".718" d="M812.508 633.612l-93.686 111.06 55.534 70.112L898 683.422z"/><path fill="#151935" fill-opacity=".831" d="M136.378 614.969L-42.823 726.274l6.974-152.69 185.498-45.448z"/><path fill="#cc79f9" fill-opacity=".353" d="M16.812 962.322l56.362-11.997L10.126 1086l-56.138-57.658z"/><path fill="#c1243c" fill-opacity=".847" d="M191.454 360.176L361.36 476.978l26.424-32.312-104.522-124.243z"/><path fill="#18171b" fill-opacity=".988" d="M265.583 218.924L-62 .425l519.711-20.277L343.606 41.93z"/><path fill="#8c1424" fill-opacity=".835" d="M326.44 481.327l37.098 77.808-55.322 2.913 106.503-52.622z"/><path fill="#e0f8f5" fill-opacity=".482" d="M292.152 693.782l37.508-28.816-30.64-2.8 32.356 33.969z"/><path fill="#0e152f" fill-opacity=".565" d="M431.965 670.77l47.967-167.824 2.86-82.586-99.708-46.266z"/><path fill="#1e1826" fill-opacity=".8" d="M477.05 773.874L580.628 511.43l36.73-99.344L488.53 728.708z"/><path fill="#78694d" fill-opacity=".647" d="M427.76 52.774l-71.16 105.84 48.015 11.95L390.328 16.05z"/><path fill="#961524" fill-opacity=".722" d="M414.112 855.677l-95.487-237.394 32.635 157.923-43.372 162.246z"/><path fill="#510000" fill-opacity=".427" d="M309.277 638.02l-177.324-40.487 276.702-4.226-136.088-19.731z"/><path fill="#eaffff" fill-opacity=".341" d="M251.917 465.479l59.916-20.516 19.014 19.422-34.604 14.82z"/><path fill="#ffebdb" fill-opacity=".459" d="M683.156 494.218l85.427 91.838-114.498-5.238 91.531-63.01z"/><path fill="#8f776e" fill-opacity=".247" d="M655.585 581.303l-26.95 46.88 55.456 40.666 47.278-13.21z"/><path fill="#c6a18c" fill-opacity=".525" d="M475.189 347.17l-77.487 30.64-27.659-190.08 55.01 210.614z"/><path fill="#2f2e3d" d="M562.72 716.135l-175.502-2.562 121.674-8.994 114.097-.314z"/><path fill="#d30001" fill-opacity=".204" d="M145.974 861.346l-3.795 100.55 101.703 31.448-27.711-101.241z"/><path fill="#68a5d6" fill-opacity=".255" d="M217.522 832.478l25.037-79.855 31.03-5.168-5.638 76.57z"/><path fill="#010510" fill-opacity=".565" d="M656.758 653.802l-68.373 98.958 58.502 100.181-62.376-195.192z"/><path fill="#68614f" fill-opacity=".686" d="M449.198 49.688l137.155 42.751-38.069 24.949-9.771-71.939z"/><path fill="#242127" fill-opacity=".729" d="M699.882 406.406l-171.747-184.9-26.437 29.207 133.644-31.16z"/></svg>