<svg xmlns="http://www.w3.org/2000/svg" width="228" height="278" viewBox="0 0 836 1024"><path fill="#70655c" d="M0 0h836v1024H0z"/><path fill="#f8fbf9" fill-opacity=".737" d="M246.953 1000.641L367.53 886.24l270.48 66.024L616.93 1086z"/><path fill="#221e10" fill-opacity=".722" d="M-62 104.893V364.94l304.04-166.79L572.27-62z"/><path fill="#7cb9d2" fill-opacity=".71" d="M898 238.266L611.158 427.474l57.785 167.872 216.552 25.284z"/><path fill="#041210" fill-opacity=".678" d="M878.583 1086H705.84l-27.031-437.657L898 771.373z"/><path fill="#302015" fill-opacity=".624" d="M740.626 208.208L898 2.805 320.037-14.4 764.44 349.24z"/><path fill="#a6927d" fill-opacity=".988" d="M-22.145 943.8L258.11 627.262l-31.236 283.361 119.612 126.598z"/><path fill="#fcb879" fill-opacity=".404" d="M370.025 62.491l105.438 32.474 45.01 275.316-260.719 75.962z"/><path fill="#aaaaa0" fill-opacity=".976" d="M620.16 1018.97l44.703-48.436 18.155-277.517-95.001 21.246z"/><path fill="#d5c9c6" fill-opacity=".545" d="M489.2 528.512l-138.368 28.499 27.079 134.061 192.892-18.041z"/><path fill="#c6af98" fill-opacity=".655" d="M-60.948 726.51l394.527-457.732-209.157 197.41-5.57 312.138z"/><path fill="#26110f" fill-opacity=".427" d="M604.042 317.487l55.445 350.615-392.011 121.785 319.583 161.29z"/><path fill="#0e0000" fill-opacity=".416" d="M-62 241.305V625.43l267.365-212.62 183.533 293.93z"/><path fill="#692500" fill-opacity=".353" d="M154.936 911.34l80.928-425.716L60.704 735.56-62 834.643z"/><path fill="#eeedff" fill-opacity=".455" d="M319.674 311.9l96.162 120.687L543.445 244.62l-61.133 147.812z"/><path fill="#41321c" fill-opacity=".478" d="M237.109 121.894L224.8 365.403l204.317-151.284 29.105 150.538z"/><path fill="#ff9a66" fill-opacity=".345" d="M857.097 614.064L618.622 689.91l50.55-304.15 116.286 348.26z"/><path fill="#b1a1a1" fill-opacity=".914" d="M198.485 414.943L404.95 282.63 197.79 352.4 95.29 633.055z"/><path fill="#360a00" fill-opacity=".592" d="M199.174 1086L-62 995.091l221.315-20.105 31.661-36.378z"/><path fill="#351214" fill-opacity=".631" d="M309.068 509.142l-28.867-93.833L201.53 519.42l-77.004 159.767z"/><path fill="#e9ece8" fill-opacity=".769" d="M277.9 674.82l19.98 246.614 260.796 43.086-223.507 103.196z"/><path fill="#992830" fill-opacity=".824" d="M414.483 434.9l7.372 167.18-60.408-97.835 13.782-138.377z"/><path fill="#36201b" fill-opacity=".686" d="M282.19 559.37l118.992 336.19-60.242-373.897-28.955 378.067z"/><path fill="#a18565" d="M898 302.514l-42.41-129.847-114.48 12.703 84.344 192.787z"/><path fill="#046d95" fill-opacity=".745" d="M688.603 443.57L741.2 575.065l23.056-50.242-22.33-95.359z"/><path fill="#f0efed" fill-opacity=".514" d="M387.29 949.324l-73.945-262.352 17.5-96.92 8.561 234.84z"/><path fill="#f1dbfb" fill-opacity=".247" d="M554.437 564.17L483.39 276.653l101.281 16.417 8.811 100.246z"/><path fill="#c8f0fd" fill-opacity=".31" d="M170.95 870.816l78-307.266 3.364 133.04L218.505 1086z"/><path fill="#bcb6b1" fill-opacity=".894" d="M471.39 1086l-73.495-317.098-48.837-422.1 34.78 418.657z"/><path fill="#b6b7b2" fill-opacity=".961" d="M442.822 740.884l91.418 338.535L725.214 1086l-254.23-183.093z"/><path fill="#e7eae8" fill-opacity=".718" d="M475.262 372.624l14.927 118.188 13.313 95.875-44.264-216.719z"/><path fill="#004233" fill-opacity=".502" d="M268.677 625.672L248.61 507.989l20.775 504.905 33.18-82.506z"/><path fill="#262922" fill-opacity=".604" d="M558.062 517.819l18.712 331.993 58.64-437.457-15.403 62.634z"/><path fill="#a4000f" fill-opacity=".498" d="M513.23 374.44l-25.585 2.65 4.079 184.285 58.958-23.304z"/><path fill="#e7a643" fill-opacity=".518" d="M145.166 1004.597l-16.304-294.072-53.202-111.31 4.957 206.208z"/><path fill="#c3bab3" fill-opacity=".98" d="M451.559 635.444L405.1 326.25l.4 61.002 39.823 337.153z"/><path fill="#59d4ff" fill-opacity=".384" d="M801.188 544.182l-162.125-176.76 142.7-37.86L898 500.479z"/><path fill="#42392c" fill-opacity=".875" d="M6.672-62l-55.039 260.55 231.6 126.505-19.815-98.512z"/><path fill="#5d5041" d="M503.275-10.97l50.65-22.764 92.585 348.947-112.61-31.674z"/><path fill="#756460" d="M274.71 777.087l-36.316 201.438 88.105 60.717-113.944-171.114z"/><path fill="#9da095" fill-opacity=".839" d="M211.276 498.617L151.125 615.04l-20.918-6.12 57.085-136.508z"/><path fill="#84000c" fill-opacity=".549" d="M303.793 856.927l26.731 62.297 31.697-12.2-76.593-264.043z"/><path fill="#e5b77a" fill-opacity=".655" d="M452.599 124.848L335.424 147.24l4.214-54.99 111.49.854z"/><path fill="#211f12" fill-opacity=".545" d="M3.102 263.128L375.67 75.436l195.942 16.669L253.055-62z"/><path fill="#044635" fill-opacity=".682" d="M417.236 386.177l41.983 18.294 25.137 123.242-43.512-5.367z"/><path fill="#19382c" fill-opacity=".918" d="M354.125 826.348l29.031 72.18 22.087-32.739-86.287-364.847z"/><path fill="#970105" fill-opacity=".298" d="M487.912 313.335l172.73 81.835 37.836 208.095-92.005-262.635z"/><path fill="#c5b3b4" fill-opacity=".714" d="M228.026 349.907l3.808 113.053 31.242 40.821-12.143 16.327z"/><path fill="#acc6a9" fill-opacity=".239" d="M611.588 573.256l98.574 239.593 178.473-251.597-301.82 268.054z"/><path fill="#31190f" fill-opacity=".404" d="M462.94 159.75L46.917 185.12 898 69.035 720.205-62z"/><path fill="#cde1e6" fill-opacity=".376" d="M-27.14 1086l-8.702-230.955 146.346 54.244-76.914 40.325z"/><path fill="#d5e6f2" fill-opacity=".439" d="M-49.464 723.596l134.53-101.418 75.052-208.041L.283 790.453z"/><path fill="#f8ac69" fill-opacity=".396" d="M367.793 242.307l-50.387-61.746 230.879-23.109 24.714 38.912z"/><path fill="#623a39" fill-opacity=".878" d="M410.292 807.103l17.85-190.448-92.734 24.797 105.444-10.12z"/><path fill="#731f32" fill-opacity=".604" d="M336.367 366.48l-98.673 57.106-1.976-35.348 90.16-50.988z"/><path fill="#804a00" fill-opacity=".384" d="M378.001 311.061L522.543 131.68 477.98 316.154l-66.77 51.89z"/><path fill="#ada8a1" fill-opacity=".8" d="M556.004 584.748l5.541 128.607-90.625-254.258 17.49 76.06z"/><path fill="#401a23" fill-opacity=".702" d="M81.994 872.32L-62 814.165l137.824-54.937 13.451 94.622z"/><path fill="#1d0b00" fill-opacity=".322" d="M571.366 578.466L536.174 883.86l70.558-361.652 156.334 175.107z"/><path fill="#bccef7" fill-opacity=".329" d="M327.114 624.313l-43.788-239.067 119.248-17.535-123.772 89.236z"/><path fill="#94998f" fill-opacity=".71" d="M561.366 716.769l-81.077-12.086 46.925 228.734-35.132-245.688z"/><path fill="#5f0611" fill-opacity=".329" d="M514.508 641.791l25.64-29.968-157.528-57.52-48.52-115.506z"/><path fill="#f6f3f1" fill-opacity=".416" d="M324.408 655.53l9.16 126.742 24.27 112.834 5.1-5.925z"/><path fill="#7a1319" fill-opacity=".639" d="M285.828 417.176l55.653 436.427-70.234-349.93L227.7 394.059z"/><path fill="#b4c9d2" fill-opacity=".878" d="M667.07 402.33l-40.75-86.89 53.723 138.96 68.226-118.95z"/><path fill="#efeefc" fill-opacity=".416" d="M358.506 357.27l1.361 132.335-33.196-199.307 106.35 121.622z"/><path fill="#ecece8" fill-opacity=".694" d="M356.374 1086l230.574-115.593-305.186-7.488-37.256-46.524z"/><path fill="#f4cedc" fill-opacity=".361" d="M349.085 461.244l66.927 176-68.171-126.099-57.04-.17z"/><path fill="#060406" fill-opacity=".478" d="M898 860.665l-87.967 198.045-82.152-70.785-18.779-144.569z"/><path fill="#cbb9ba" fill-opacity=".596" d="M619.522 308.97l53.65 83.613-26.438-51.657-194.897-41.123z"/><path fill="#933136" fill-opacity=".953" d="M374.086 391.248l6.043 208.86 30.531-203.553-75.06-46.045z"/><path fill="#f8f2f1" fill-opacity=".329" d="M580.322 721.269l14.693-289.93-26.33-81.108 31.173 158.115z"/><path fill="#c8cdf2" fill-opacity=".212" d="M172.935-6.556L121.975-62 52.506 85.899l56.556 9.293z"/><path fill="#157c91" fill-opacity=".545" d="M877.09 602.675l-125.048-7.866 1.116 41.64 78.125-2.278z"/><path fill="#00261e" fill-opacity=".541" d="M451.574 718.878l41.085 16.02-.424 198.186-34.782-159.834z"/><path fill="#d8e3f8" fill-opacity=".173" d="M372.272 282.33L64.026 404.82l8.353-141.28 81.471 92.227z"/><path fill="#68171c" fill-opacity=".682" d="M439.8 720.463l-51.345 7.453 39.862 158.422 29.352 16.681z"/><path fill="#0d4f3c" fill-opacity=".643" d="M533.654 413.219l7.28 19.43 41.343-9.561-12.326-28.443z"/><path fill="#310d0e" fill-opacity=".737" d="M531.71 724.796l13.983 216.857-46.032-188.828 22.874-32.916z"/><path fill="#34161a" fill-opacity=".655" d="M104.626 613.749l17.35.434 39.99-85.077 47.49-121.26z"/><path fill="#17362c" fill-opacity=".545" d="M312.133 523.482l56.582-30.48-7.646-33.029-14.51 249.827z"/><path fill="#b9b8b0" fill-opacity=".851" d="M262.743 1056.357l22.68-63.628-74.418 64.48-27.043-256.498z"/><path fill="#ffeef2" fill-opacity=".29" d="M288.734 588.969l1.677 314.141-15.981-354.948 26.327 76.15z"/><path fill="#06100b" fill-opacity=".525" d="M221.402 398.993l-5.882 64.043-40.552 156.97 76.51-78.5z"/><path fill="#dcc4bc" fill-opacity=".471" d="M682.037 552.669l-58.488 91.983 40.77-12.623-34.023-219.852z"/><path fill="#312724" fill-opacity=".561" d="M32.506 540.596l117.417-102.98-9.703-34.249L-62 328.557z"/><path fill="#a89ea1" fill-opacity=".855" d="M602.014 514.121l-2.628-71.383-62.806 79.92 26.916-110.165z"/><path fill="#aeab9e" fill-opacity=".792" d="M370.034 712.732l-11.25-8.352 185.47 4.83-124.01 13.387z"/><path fill="#460004" fill-opacity=".427" d="M533.614 353.399l-29.649-27.524-7.345-4.513 132.159 14.168z"/><path fill="#f3fcfc" fill-opacity=".525" d="M475.64 381.628l8.35-15.807-128.644-6.129 55.22 37.757z"/><path fill="#e1fcf5" fill-opacity=".141" d="M156.223 742.021l120.813 79.6-58.618-149.197-125.224-69.028z"/><path fill="#dbdfd1" fill-opacity=".408" d="M898 605.625l-142.89-78.271-11.35 117.52-22.661-65.127z"/><path fill="#effffa" fill-opacity=".349" d="M481.56 569.797l87.537 117.864-59.395-93.223-34.313-189.536z"/><path fill="#00090c" fill-opacity=".259" d="M767.11 269.07l-77.595-26.843 50.166 69.948L898 381.336z"/><path fill="#1e4237" fill-opacity=".439" d="M212.1 921.732l24.303-97.216 58.729-6.226 4.348 33.778z"/><path fill="#918c8f" fill-opacity=".49" d="M735.847 253.524l-5.926-43.744 36.524-79.9 31.96 129.157z"/><path fill="#877979" fill-opacity=".996" d="M89.328 551.679l23.306-29.355L-62 614.837l129.236 30.971z"/><path fill="#420006" fill-opacity=".306" d="M653.951 595.259l-174.986 46.475L604.78 539.06l-4.452-179.252z"/><path fill="#3f2518" fill-opacity=".635" d="M896.276 164.833L730.807-62l86.495 186.074-30.79 51.87z"/><path fill="#b3a4a3" fill-opacity=".827" d="M634.36 464.586l93.381 71.908-109.633-123.145-3.398-121.244z"/><path fill="#e8fbef" fill-opacity=".431" d="M408.22 553.637l-52.855 74.696 6.35-137.621 17.85 158.448z"/><path fill="#84292e" fill-opacity=".973" d="M480.542 394.033l31.185-56.295-13.888 215.275 48.261 2.17z"/><path fill="#0f061b" fill-opacity=".341" d="M113.803 546.248l31.46-57.943-67.352 166.904 56.024-171.164z"/><path fill="#fefff7" fill-opacity=".4" d="M303.073 520.702l-1.866 22.66 23.295 95.847 12.693-3.239z"/><path fill="#254b41" fill-opacity=".827" d="M301.956 420.81l4.89 61.433 34.982-66.922 11.234 49.117z"/><path fill="#beb2b2" fill-opacity=".984" d="M300.453 410.803l4.994 73.793-13.404-26.253-3.852-80.51z"/><path fill="#eff1ec" fill-opacity=".671" d="M428.245 892.53L334.11 912.6 302.956 1086l246.847-43.353z"/><path fill="#e2e2db" fill-opacity=".506" d="M411.882 547.873L532.356 558.7l-31.408 37.874-26.167-71.156z"/><path fill="#261f14" fill-opacity=".788" d="M466.486 39.43l54.513 123.142-20.516 5.947L437.309 15.33z"/><path fill="#fdfcf8" fill-opacity=".302" d="M547.388 569.73l18.097-5.765-14.617-60.866-21.328-88.863z"/><path fill="#403f3b" fill-opacity=".447" d="M490.212 610.44l-46.648 8.152-105.306 58.566L491.039 574.6z"/><path fill="#061f16" fill-opacity=".655" d="M548.31 790.91l3.195-98.28 36.726 203.438-7.854 24.24z"/><path fill="#442026" fill-opacity=".635" d="M155.913 1086L81.058 942.359-59.642 1086H523.22z"/><path fill="#8d9589" fill-opacity=".58" d="M699.155 1028.061L675.39 856.552l-33.612 114.826-131.842-40.727z"/><path fill="#4b2929" fill-opacity=".745" d="M514.326 567.76l12.291 12.885-6.47 65.188-1.943 177.474z"/><path fill="#f2fff4" fill-opacity=".478" d="M460.559 524.408l13.534 163.698-30.027-87.17 35.797 37.162z"/><path fill="#f1ffef" fill-opacity=".306" d="M562.567 628.003l-38.763 69.085 1.354-150.744 34.764 166.54z"/><path fill="#dea459" fill-opacity=".506" d="M101.05 980.669l2.2-.715 74.418-15.815-98.676-248.304z"/><path fill="#dfeedf" fill-opacity=".29" d="M146.079 628.663l-196.792 85.168 128.991 31.566-.894-137.477z"/><path fill="#3a2828" fill-opacity=".404" d="M794.395 125.586L473.223 252.819l147.491 64.829L750.228-57.86z"/><path fill="#c2904e" fill-opacity=".647" d="M421.825 290.797l-68.097 25.943-13.959-167.061-29.894 36.366z"/></svg>