<svg xmlns="http://www.w3.org/2000/svg" width="228" height="278" viewBox="0 0 836 1024"><path fill="#70655c" d="M0 0h836v1024H0z"/><g fill-opacity=".502"><path fill="#fff" d="M678 914l-96 172-644-188z"/><path d="M-62 106l24 260L598-62z"/><path fill="#6ce0ff" d="M602 458l200-168 96 400z"/><path d="M682 590l28 496 188-152z"/><path fill="#231104" d="M626 302L346-62l552 72z"/><path fill="#cf9878" d="M298 338l488 252L362 66z"/><path fill="#b0957a" d="M-38 690l324 396-104-692z"/><path fill="#d1cab9" d="M586 742l52 308 72-572z"/><path fill="#fff" d="M254 1086l360-104-256-104z"/><path fill="#d7ccc9" d="M578 542L418 726l-76-160z"/><path fill="#2c211f" d="M606 946l-20-256-360 128z"/><path fill="#130000" d="M302 542L118 686l140-280z"/><path fill="#0d0100" d="M26 558l128-132-216-132z"/><path fill="#deeae6" d="M158 934l88-356 4 196z"/><path fill="#51413f" d="M426 774l-200 264 48-620z"/><path fill="#3f211c" d="M698 706L594 330l-32 324z"/><path fill="#000809" d="M686 890l132 196 80-488z"/><path fill="#d8bec1" d="M350 294l140 96-328-12z"/><path fill="#d68d2f" d="M206 970L62 618l44 356z"/><path fill="#302d1a" d="M350 286l-388-4L254-62z"/><path fill="#2a0000" d="M-62 814l144-68 8 124z"/><path fill="#c58c4a" d="M338 66l272 80-252 184z"/><path fill="#d09c92" d="M638 670l4-352 108 300z"/><path fill="#cfd9dd" d="M50 738l-112 48 180-272z"/><path fill="#260000" d="M-62 994l304 92-60-112z"/><path fill="#edefe4" d="M414 678l144-8 4-56z"/><path fill="#e9b173" d="M818 326l-76-132 140-36z"/><path fill="#004b85" d="M682 442l72 140-4-148z"/><path fill="#4b392e" d="M838 326L670 170l-324 84z"/><path fill="#6accfc" d="M658 390l240 208-108-284z"/><path fill="#5d131d" d="M134 550l64-136 168-96z"/><path fill="#8f0001" d="M554 566l-52-228-12 188z"/><path fill="#e3d9e8" d="M574 302l-108 72 32-100z"/><path fill="#af0000" d="M362 498l64 84-44-208z"/><path fill="#530000" d="M434 634l-44 108 52 100z"/><path fill="#f8fcf7" d="M502 1042l-68 4-36-244z"/><path fill="#fff" d="M426 542l84 28-20-48z"/><path fill="#ceb0b1" d="M326 830l52 64-48-172z"/><path fill="#c7cac0" d="M-62 846l52 156 116-108z"/><path fill="#d6e8e4" d="M262 1086l-56-248-8 196z"/></g></svg>