<svg xmlns="http://www.w3.org/2000/svg" width="228" height="278" viewBox="0 0 836 1024"><path fill="#947373" d="M0 0h836v1024H0z"/><g fill-opacity=".502"><path fill="#fff" d="M150 466L-6 894l904-416z"/><path d="M26-62l4 676L674 46z"/><path fill="#fff" d="M74 486l752 396-92-380zm632 500L66 1086l264-180z"/><path fill="#160919" d="M898 466L14-62l64 468z"/><path fill="#ff3c38" d="M506 410l392-80L574-62z"/><path fill="#710000" d="M410 670l-212 44-88 372z"/><path fill="#fff" d="M102 526l276-156L74 886z"/><path fill="#4a0b16" d="M542 634l356 452-352-172z"/><path fill="#0c4387" d="M-46 930l828-16-372-132z"/><path fill="#ffffeb" d="M34 362l-96 332 88 328z"/><path fill="#1d0900" d="M494 498l-160-72L558 26z"/><path fill="#031130" d="M26 274l8 524L290-62z"/><path fill="#fff" d="M614 930l-416 8 32 148z"/><path fill="#fffaf8" d="M610 526L418 878 242 434z"/><path fill="#f8ecc6" d="M898 894l-196 4-184-528z"/><path fill="#e94434" d="M826-62l72 344L478 22z"/><path fill="#fff" d="M174 466L30 814l556-276z"/><path fill="#ff4b4d" d="M562 674l172 164-612-100z"/><path fill="#101300" d="M178 890l24 196L26 862z"/><path fill="#ffffeb" d="M22 610l-84-292 80-208z"/><path fill="#232520" d="M670 1026L558 818l340 144z"/><path fill="#a9b1d2" d="M262 874l352 16-196-80z"/><path fill="#fff" d="M38 850l88-352 68 384z"/><path fill="#ffffef" d="M674 1086l-48-144-408 16z"/><path fill="#000053" d="M554 814l-164 24-28-52z"/><path fill="#fff" d="M398 710h152l-204 68z"/><path fill="#000d56" d="M642 474l256-84-404 4z"/><path fill="#fff" d="M322 414l272 296-440-228z"/><path fill="#c79743" d="M706 450l164 544 28-536z"/><path fill="#f3000f" d="M190 806l32-80 180 72z"/><path fill="#61462a" d="M306 14l256 212-224 188z"/><path fill="#090400" d="M530 102L478-30 294 106z"/><path fill="#9e6466" d="M642 638l-84-52-48 152z"/><path fill="#e4958f" d="M562 82v280l92-324z"/><path fill="#001652" d="M186 854l-28 104 216-48z"/><path fill="#b90000" d="M634 854L510 674l140 72z"/><path fill="#db140c" d="M810 394l80-80-348 24z"/><path fill="#222423" d="M166 238l404 160-136 116z"/><path fill="#e99757" d="M782 1038l-120 48 60-168z"/></g></svg>