<svg xmlns="http://www.w3.org/2000/svg" width="228" height="278" viewBox="0 0 836 1024"><path fill="#5e6380" d="M0 0h836v1024H0z"/><g fill-opacity=".502"><path fill="#030c23" d="M682 654L302 986-62 206z"/><path fill="#ecdbd6" d="M626 1086l272-668-212-236z"/><path fill="#eff" d="M846 854l-704 232h668z"/><path fill="#f4e8e1" d="M10 970l260-364-36 400z"/><path fill="#fff" d="M102 610L62 782-62 402z"/><path fill="#000015" d="M622 862L226 966l420 12z"/><path fill="#ffb663" d="M374 834l60 96 352-188z"/><path fill="#201317" d="M378 486L278 206l360 20z"/><path fill="#130614" d="M630 702l-692 16 356 160z"/><path fill="#4269d9" d="M314 518L-62 6l392-68z"/><path fill="#1d50c1" d="M746 666L618 310 250 510z"/><path fill="#ffb87a" d="M490 74l12 320L370 62z"/><path fill="azure" d="M294 1086L162 962l500 44z"/><path fill="#c2dfff" d="M498 282l400 228-112 144z"/><path fill="#c4d8e2" d="M250 610l296 68-156 20z"/><path fill="#021348" d="M682 494L362 622l372 72z"/><path fill="#050000" d="M510 54L438-62 306 90z"/><path fill="#e4ecff" d="M-62 42L390 6 78-62z"/><path fill="#d57334" d="M490 862l288-36V630z"/><path fill="#010b21" d="M830-62l-64 268L626-42z"/><path fill="#110d00" d="M-62 506L94 246l100 180z"/><path fill="#cbe9f9" d="M898 850l-156 236-128-224z"/><path d="M-62 1010l232 60 24-88z"/><path fill="#cae7f4" d="M34 982l236 8-148-208z"/><path fill="#000026" d="M434 970l-204-4 72-356z"/><path fill="#a9bfe9" d="M534 570l24-256-92 224z"/><path fill="#000019" d="M270 662l352 96-132 68z"/><path fill="#3e1e00" d="M746 786l-140 52 232 4z"/><path fill="#be9bac" d="M226 634l-12 252 112-344z"/><path fill="#925d36" d="M-62 554l48 532 128-296z"/><path fill="#271403" d="M246 406l16 204L34 890z"/><path fill="#fff" d="M82 746L-58 474 90 606z"/><path fill="#b3a99d" d="M898 118L614 342l172 112z"/><path fill="#ffb89a" d="M490 898l124-84-252 4z"/><path d="M626 350L458 238l136 4z"/><path fill="#263e8b" d="M-62 158l484 404-128-396z"/><path fill="#3c60c5" d="M758 246l-236-24 24-284z"/><path fill="#36240e" d="M298 62l136 380-24-308z"/><path fill="#a2956c" d="M134 266l-4 88 196-64z"/><path fill="#d6e1dd" d="M538 702l-16-48-136-8z"/></g></svg>