<svg xmlns="http://www.w3.org/2000/svg" width="228" height="278" viewBox="0 0 836 1024"><path fill="#a96561" d="M0 0h836v1024H0z"/><path fill="#d9d0d8" fill-opacity=".91" d="M609.175 108L462.273 424.522 455.228 1086h78.902z"/><path fill="#eaebf3" fill-opacity=".898" d="M323.005 329.626l-94.352 26.154 31.308 568.36 81.2 66.42z"/><path fill="#740300" fill-opacity=".686" d="M749.563 673.941l-189.78 133.662-.356-206.403 79.675-231.6z"/><path fill="#c60107" fill-opacity=".62" d="M463.302 520.313l-90.898-384.351-43.372 579.3L438.389 1086z"/><path fill="#7b110c" fill-opacity=".882" d="M118.029 484.638l84-89.182 26.943 184.984L89.25 789.32z"/><path fill="#af929d" fill-opacity=".961" d="M437.444 239.574l368.903-157.28L898 281.951l-363.23 57.1z"/><path fill="#844934" fill-opacity=".765" d="M510.556 147.39L339.088 460.977 223.714-38.048 866.18 6.287z"/><path fill="#760000" fill-opacity=".498" d="M256.926 1086l279.632-136.41-246.79 4.416-226.429-87.533z"/><path fill="#681207" fill-opacity=".749" d="M556.9 910.979l14.07 170.772 82.047 4.249-2.818-183.622z"/><path fill="#794639" fill-opacity=".565" d="M898 829.033l-232.38 44.973 59.013-538.58L898 279.826z"/><path fill="#fefefe" fill-opacity=".82" d="M455.02 446.275l68.389-121.548 75.435 34.402-23.624 142.278z"/><path fill="#15130b" fill-opacity=".655" d="M404.343 6.936L274.956 44.255l-21.208 57.17L459.422 52.51z"/><path fill="#1a0000" fill-opacity=".294" d="M638.001 529.005l-139.88-33.759-6.71 48.987 219.83 183.689z"/><path fill="#a73d32" fill-opacity=".478" d="M-35.646 501.475l265.546-50.81 30.935-458.32L-17.405-62z"/><path fill="#ba0d19" fill-opacity=".788" d="M341.314 775.327l7.469 237.881 96.93 39.242 10.582-328.854z"/><path fill="#cdd1e8" fill-opacity=".545" d="M556.566 1044.755L391.05 1086h39.765l135.947-587.673z"/><path fill="#fffaef" fill-opacity=".51" d="M237.932 384.793l-28.148 156.964 130.191-40.86-23.217-203.672z"/><path fill="#fd1928" fill-opacity=".518" d="M579.77 533.374l120.951-126.495-186.525-109.42 81.475 56.039z"/><path fill="#1fb1ff" fill-opacity=".275" d="M674.09 191.986l129.038-19.071L898 311.768 757.519 341.51z"/><path fill="#8c9296" fill-opacity=".671" d="M90.707 776.1l17.138 136.487-119.425 88.154L-1.295 792.2z"/><path fill="#afcff4" fill-opacity=".682" d="M692.135 415.036l41.508 101.488-48.878-13.632-5.596-85.218z"/><path fill="#d8242f" fill-opacity=".729" d="M207.153 594.756l35.86-5.708 1.899 293.931-24.58-45.482z"/><path fill="#f74742" fill-opacity=".635" d="M464.586 420.793l-135.015-39.915 6.653 172.196 116.263-28.756z"/><path fill="#d79576" fill-opacity=".494" d="M377.827 68.536l-94.088 20.878-60.93 85.504 219.268-63.983z"/><path fill="#c61825" fill-opacity=".682" d="M560.743 851.54l-1.328-226.801 42.525-72.865 2.246 242.357z"/><path fill="#ffe49b" fill-opacity=".306" d="M729.9 745.349L511.055 978.076 598.09 788.96l155.93-80.84z"/><path fill="#edebf6" fill-opacity=".8" d="M321.249 893.288l19.305-275.206-93.034 230.482 5.845 60.173z"/><path fill="#001700" fill-opacity=".157" d="M214.351 618.53l201.404 21.345-279.08-121.51L69.316 1086z"/><path fill="#601900" fill-opacity=".212" d="M898 285.353l-415.336 10.9 199.315 95.42 94.028 81.932z"/><path fill="#f6a08d" fill-opacity=".384" d="M491.628 401.407l8.9-268.78 240.049 41.141-350.322 245.178z"/><path fill="#6e4325" fill-opacity=".702" d="M360.4 117.981l-34.674 120.55 52.962 178.435 84.087-59.146z"/><path fill="#ff082a" fill-opacity=".361" d="M138.74 407.947l-23.794 90.297 106.364 21.763 11.96-166.596z"/><path fill="#bfb8c3" d="M246.987 619.568l-25.244-91.659 47.878-27.421 32.772 8.891z"/><path fill="#242911" fill-opacity=".341" d="M244.716 953.783L28.019 1086l174.91-210.505L429.642 1086z"/><path fill="#b75053" fill-opacity=".443" d="M414.222-62L898-50.023 660.821 182.008l-169.492-4.337z"/><path fill="#000200" fill-opacity=".361" d="M745.725 660.534L583.7 639.989l35.506-173.543 40.929 281.712z"/><path fill="#d9def3" fill-opacity=".573" d="M309.014 974.898l-59.382-61.086 99.393-77.22-18.109 156.076z"/><path fill="#d7000f" fill-opacity=".604" d="M361.641 1053.285l-176.11-28.899 52.896-86.045 1.233 2.205z"/><path fill="#5b9fc1" fill-opacity=".239" d="M658.103 855.345l105.023-64.469L898 932.586 695.826 955.06z"/><path fill="#d3d9ea" fill-opacity=".592" d="M453.647 864.126L538.924 686.8l32.383-74.336-112.175-92.587z"/><path fill="#deb647" fill-opacity=".839" d="M351.136 422.289l-12.551 9.379-24.535-41.01-13.499-82.911z"/><path fill="#fadd3d" fill-opacity=".612" d="M474.873 414.563l24.36-50.807 19.885-78.612-77.26 147.649z"/><path fill="#dffe5b" fill-opacity=".239" d="M710.082 641.358L733.299 524.9l-75.556 64.212-24.623-3.75z"/><path fill="#302a00" fill-opacity=".553" d="M642.775 847.563l45.909-11.282 65.059-42.735-42.214-13.517z"/><path fill="#8f5942" fill-opacity=".694" d="M249.414 915.678l-82.231-247.367L102.885 1086 83.972 604.716z"/><path fill="#241000" fill-opacity=".537" d="M272.597 185.639l-5.711-21.461 86.909-18.188 69.283 18.671z"/><path fill="#cf8e76" fill-opacity=".376" d="M145.95 238.376l233.186-34.05L673.5 347.623l-233.113-182.96z"/><path fill="#996151" fill-opacity=".647" d="M629.401 765.004l260.023-12.282-226.85-39.81-43.317-103.579z"/><path fill="#290800" fill-opacity=".557" d="M86.036 664.514l130.679-120.77-32.093 103.17-37.257 35.888z"/><path fill="#e65233" fill-opacity=".353" d="M558.047 560.17l-21.078-99.772-48.475 49.705 4.227 41.833z"/><path fill="#a0000e" fill-opacity=".6" d="M745.707 512.446L641.62 599.099l40.539-197.134-106.799 115.02z"/><path fill="#fefae7" fill-opacity=".345" d="M134.17 419.896l-4.037 31.731-32.81 97.259 10.704-75.187z"/><path fill="#820003" fill-opacity=".569" d="M93.183 540.858l-6.98 5.719 96.863-119.43 61.012 189.515z"/><path fill="#f4f4fa" fill-opacity=".749" d="M328.494 471.19l-106.712 52.607 10.523-151.006L335.94 414.77z"/><path fill="#d40f1f" fill-opacity=".463" d="M407.705 837.328l57.419-263.593-75.503-119.57-64.588 333.574z"/><path fill="#f7fafd" fill-opacity=".773" d="M544.695 328.083l-73.465 82.94-13.516 96.784 15.548 57.174z"/><path fill="#03000a" fill-opacity=".322" d="M455.13 1086h142.067l-226.625-96.353-106.123-7.102z"/><path fill="#d0212b" fill-opacity=".914" d="M458.896 985.203l2.835-65.196-132.647 33.87 110.143 16.743z"/><path fill="#ff5f60" fill-opacity=".584" d="M137.158 393.037l112.51-37.568-56.49 82.808-55.943-24.692z"/><path fill="#ffbb75" fill-opacity=".29" d="M139.858 875.545l-17.683-129.246 66.19 88.939 76.184 40.536z"/><path fill="#5e1837" fill-opacity=".216" d="M357.826 911.032l164.805-46.92 87.24-142.407-88.516 174.382z"/><path fill="#d24041" fill-opacity=".22" d="M676.373 369.97L898 456.914l-95.528 413.435-85.204-397.483z"/><path fill="#e8e5f4" fill-opacity=".894" d="M555.574 1002.98l-83.99 12.548-135.105 66.724 246.145-25.445z"/><path fill="#bd947b" fill-opacity=".62" d="M898 138.367L764.763 49.375l-61.762 46.188-6.638 50.798z"/><path fill="#a75b49" fill-opacity=".678" d="M149.272 591.628l-43.245 31.143-131.073-46.133 41.39-134.482z"/><path fill="#310109" fill-opacity=".282" d="M857.431 336.918l-102.316 8.16-14.97 70.782 130.556 4.594z"/><path fill="#080801" fill-opacity=".267" d="M465.254 57.913l-6.458 138.898 27.867-38.478L366.237 2.685z"/><path fill="#91040d" fill-opacity=".922" d="M330.17 693.585l121.046 18.42-1.304 26.764-26.731-5.38z"/><path fill="#f3f8ff" fill-opacity=".486" d="M500.66 386.139l74.107 182.624 5.697-71.826 11.935-157.114z"/><path fill="#012644" fill-opacity=".471" d="M292.054 962.418L418.778 1086 237.603 937.063l9.47-24.188z"/><path fill="#00170a" fill-opacity=".102" d="M69.102 49.62l215.295 38.214-41.583 71.089L-62 132.513z"/><path fill="#ff4b4f" fill-opacity=".624" d="M689.27 372.86l-91.958 59.862-6.78-80.779 27.638 3.309z"/><path fill="#fffcff" fill-opacity=".561" d="M546.247 903.723l18.862 21.452-73.817 14.313-48.799-30.128z"/><path fill="#c20217" fill-opacity=".616" d="M610.429 1086l2.124-123.425-29.125-2.682L546.026 1086z"/><path fill="#955346" fill-opacity=".675" d="M-62 174.727l509.627 93.999-143.106 50.716-334.059-56.846z"/><path fill="#f0eef7" fill-opacity=".651" d="M290.89 643.034l-44.618 206.25 107.388 44.26L233.93 653.36z"/><path fill="#d38978" fill-opacity=".435" d="M318.271 189.965l-92.898 11.374 137.868 23.365-61-92.464z"/><path fill="#8b5743" fill-opacity=".655" d="M-62 1064.992l204.319-149.53 67.151 65.934-45.004 88.201z"/><path fill="#e8e8f4" fill-opacity=".678" d="M473.093 869.582l49.28-17.53 33.773-38.743 11.686-45.661z"/><path fill="#b91621" fill-opacity=".859" d="M552.193 648.01l1.164 8.728 38.982 89.655 7.93-154.205z"/><path fill="#e9b3f5" fill-opacity=".18" d="M501.133 282.396l72.06-164.084 66.63 77.552 137.383 13.921z"/><path fill-opacity=".141" d="M669.337 938.42l-211.797 7.34 147.229 61.081-.892 79.159z"/><path fill="#ba524b" fill-opacity=".761" d="M898 1030.647l-33.467-62.565-194.226 2.232-29.009 46.974z"/><path fill="#131500" fill-opacity=".463" d="M615.576 601.716l39.107-18.412 29.541 126.314-17.758 20.224z"/><path fill="#af8046" fill-opacity=".404" d="M363.419 427.717l176.953-196.081-100.233 204.618L301.272 335.56z"/><path fill="#b10111" fill-opacity=".541" d="M450.109 583.291l-109.595 45.454-7.17-104.964 119.4 37.957z"/><path fill="#3b1700" fill-opacity=".329" d="M320.875 308.413l73.652-17.726 31.338 93.754-64.548-26.35z"/><path fill="#c32d33" fill-opacity=".42" d="M187.084 720.145l78.002 55.709-67.905 49.588 61.148-254.415z"/><path fill="#470000" fill-opacity=".525" d="M585.091 512.694l35.884 259.917 3.604-191.888 40.543-90.646z"/><path fill="#f8faff" fill-opacity=".404" d="M307.209 322.387l-57.694 28.162 90.98 315.045-17.909-225.722z"/><path fill="#ff4d4f" fill-opacity=".667" d="M476.862 604.512l-117.806 45.29 108.09 20.834-103.733-54.326z"/><path fill="#fdb788" fill-opacity=".412" d="M658.803 812.358l-104.302 62.138 34.467-67.359 58.193-37.534z"/><path fill="#cf8f74" fill-opacity=".494" d="M359.898 123.15l-118.692 50.897 27.458-36.146 177.563 7.184z"/><path fill="#950d15" fill-opacity=".824" d="M454.64 970.725L315.761 958.28 498.625 1086l-150.63-93.664z"/><path fill="#55efff" fill-opacity=".09" d="M692.978 353.878l19.1-148.762 65.906-97.29 60.58 237.1z"/><path fill="#107c51" fill-opacity=".176" d="M641.568 616.157l122.057 139.936-8.678-92.166-33.351-83.039z"/><path fill="#6d4b23" fill-opacity=".427" d="M556.802 894.122l-2.033 73.048 102.64-8.196 14.072-60.711z"/><path fill="#b1d1ff" fill-opacity=".2" d="M-62 784.316L-58.981 1086 47.822 878.061l63.766 17.742z"/><path fill="#e3c200" fill-opacity=".537" d="M679.264 580.134l51.203-11.749-7.818 7.528-75.7 30.378z"/><path fill="#915549" fill-opacity=".518" d="M313.97 115.395l395.446-67.312-39.906 86.345-170.034 15.825z"/><path fill="#9c6e5d" fill-opacity=".545" d="M512.97 319.433l159.72-44.623 84.066 53.354-66.062 52.773z"/><path fill="#f8faff" fill-opacity=".431" d="M479.603 735.31l84.428-64.098-105.365-30.89-4.267 46.953z"/><path fill="#0b0700" fill-opacity=".396" d="M305.976 28.028l74.028 42.213-131.915 18.912 13.644 39.112z"/><path fill="#bb141d" fill-opacity=".733" d="M450.04 844.255l4.78 115.262-122.602-120.26 20.78-82.74z"/><path fill="#710000" fill-opacity=".392" d="M429.097 833.878l-88.01-54.958-9.763-18.878 138.518 61.428z"/><path fill="#b3b0be" fill-opacity=".965" d="M516.874 593.02l63.612-92.939 5.255-41.287L562.66 600.89z"/><path fill="#d9d7e8" fill-opacity=".655" d="M235.222 495.813L291.2 604.475l-57.485-43.75-14.818-22.744z"/><path fill="#574f45" fill-opacity=".549" d="M547.665-62H376.416L245.256 64.648l117.664-34.57z"/><path fill="#502513" fill-opacity=".494" d="M374.988 206.655l35.705 26.988-116.317 27.889-9.99-24.082z"/><path fill="#310006" fill-opacity=".682" d="M620.071 570.404l-15.843 9.267 5.711 195.312 11.62-.027z"/><path fill="#f690b7" fill-opacity=".4" d="M728.81 537.363l-44.082 18.69 29.664 12.281 1.102 6.07z"/><path fill="#ff4146" fill-opacity=".631" d="M334.63 687.529l129.267 18.802-7.493-20.032-106.127-13.642z"/><path fill="#ff4e54" fill-opacity=".506" d="M470.991 865.647l-59-13.145-92.875-70.277 109.317 55.55z"/><path fill="#ecebf4" fill-opacity=".922" d="M274.066 672.73l26.22.414-60.458 85.544 98.105 48.955z"/><path fill="#8b8079" fill-opacity=".318" d="M3.511 720.383l38.995 319.32 108.788-178.435L42.411 702.897z"/><path fill="#ebe9f5" fill-opacity=".663" d="M341.831 924.63l-1.655 27.758-97.147-49.276 99.876-59.33z"/><path fill="#02052e" fill-opacity=".141" d="M508.464 602.192l19.699 30.293-22.807 2.926-103.41 11.915z"/><path fill="#c0825a" fill-opacity=".608" d="M653.309 792.196L555.097 952.15l-.592-79.651 114.865 26.916z"/><path fill="#acafc8" fill-opacity=".871" d="M673.06 455.425l9.617-11.816 15.278-31.156 19.805 113.79z"/><path fill="#e7e3ee" fill-opacity=".961" d="M239.837 692.325l25.942-67.576 74.472 56.064-72.319 42.953z"/></svg>