<svg xmlns="http://www.w3.org/2000/svg" width="228" height="278" viewBox="0 0 836 1024"><path fill="#8a847b" d="M0 0h836v1024H0z"/><g fill-opacity=".502"><path fill="#fff" d="M274 1086L118 278l780 576z"/><path d="M898 414L-62 22l900-84z"/><path d="M-62 274L30-62l448 376z"/><path fill="#f2f8ff" d="M118 970l612 116-64-576z"/><path fill="#431c00" d="M194 502L-62 202l168 792z"/><path fill="#fff" d="M634 258l160 304-384-292z"/><path fill="#ffb000" d="M102 270l360 256 8-180z"/><path fill="#151310" d="M502 58l396 628-60-748z"/><path fill="#ff7e1a" d="M86 638l-148-24 120 460z"/><path fill="#005021" d="M602 658L462 330l148 92z"/><path fill="#e7e3f8" d="M550 638L114 282 66 430z"/><path fill="#1a1f20" d="M22 378L-10-22l452 32z"/><path fill="#4a2b1e" d="M562 134L354 382 206 170z"/><path fill="#211d30" d="M786 526l112 144-236 12z"/><path fill="#caccd9" d="M686 614l-548-60 40 364z"/><path fill="#ff1539" d="M262 390l60-152-168 68z"/><path fill="#e6e6ff" d="M810 518L486 230l220 340z"/><path fill="#abba69" d="M238 806l-300 228 292 52z"/><path fill="#160d08" d="M94 546l80 280-76 72z"/><path fill="#005411" d="M578 582l-104-52-4-156z"/><path fill="#976552" d="M474 70H270l220 300z"/><path fill="#fcdd02" d="M458 514l16-188-212 68z"/><path fill="#392d13" d="M-18 646l172-24L54 290z"/><path fill="#46463d" d="M718 206l-416-68 436 220z"/><path fill="#fffaff" d="M238 270L86 370l32-76z"/><path fill="#7a91a5" d="M898 870l-196 92 16-340z"/><path fill="#ede9f7" d="M266 1006l-32-264 664 340z"/><path fill="#ffb6d8" d="M390 366l172-84-92-52z"/><path fill="#000002" d="M454 302l-148 4 52 44z"/><path fill="#d6dcf1" d="M274 426l300 156-360 84z"/><path fill="#ff7328" d="M38 898l48-184-148-148z"/><path fill="#f80000" d="M446 334l40-96 4 60z"/><path fill="#231e20" d="M810 530l88-108-236-112z"/><path fill="#00301c" d="M526 426l100-4-92 144z"/><path fill="#ada187" d="M130 690l64-208 40 472z"/><path fill="#edf2ff" d="M654 314l-164-48 296 256z"/><path fill="#d87252" d="M230 554l-8-112 44 4z"/><path fill="#769b96" d="M646 494l120 12-260 88z"/><path fill="#495c6e" d="M682 566l216 136-228-12z"/><path fill="#242323" d="M90 706L66 486l116-20z"/></g></svg>