<svg xmlns="http://www.w3.org/2000/svg" width="228" height="278" viewBox="0 0 836 1024"><path fill="#584742" d="M0 0h836v1024H0z"/><path fill="#230008" fill-opacity=".749" d="M344.933 1065.551l-.231-239.207L718.137 709.47l132.977 292.542z"/><path fill="#ffedad" fill-opacity=".255" d="M832.664 597.728l-596.544 63.87L-53.256 503.57-62 1054.37z"/><path fill="#35050e" fill-opacity=".643" d="M571.978 620.833l-414.615-91.677 77.228-173.87 377.192-49.847z"/><path fill="#bb8269" fill-opacity=".894" d="M617.225 507.788l-80.482 207.81 156.522-4.723 26.383-201z"/><path fill="#f8b194" fill-opacity=".427" d="M384.774 133.744l73.882 158.07L555.82 205.1 491.07 81.106z"/><path fill="#525a5d" fill-opacity=".804" d="M112.551 549.144L376.015 143.06 4.387-62l-62.812 759.171z"/><path fill="#746a2e" fill-opacity=".878" d="M898 326.934l-22.58 681.532-137.083-241.48 16.844-369.123z"/><path fill="#200004" fill-opacity=".553" d="M509.475 542.156L744.871 389.18l.416 499.562-51.836-400.468z"/><path fill="#e69989" fill-opacity=".49" d="M316.794 832.201l322.709-198.64-404.051 156.746 11.38 171.677z"/><path fill="#565355" fill-opacity=".945" d="M164.204 806.599l322.18-108.688-102.423 4.076-200.803-165.159z"/><path fill="#c77c7a" fill-opacity=".51" d="M512.147 311.72l34.737-80.892-101.24 239.597 51.02 42.501z"/><path fill="#1a4962" fill-opacity=".369" d="M898 4.123L512.968-24.963l36.961 273.079L898 385.531z"/><path fill="#020400" fill-opacity=".549" d="M541.764 82.763l-200.167 24.8-2.398-65.26 104.566-23.64z"/><path fill="#928f5f" fill-opacity=".855" d="M49.297 977.137l53.156-370.36 87.661-222.742L-62 770.278z"/><path fill="#c7cafe" fill-opacity=".369" d="M618.246 356.611l53.498 43.348-34.626 65.97-52.992-54.022z"/><path fill="#f9ebeb" fill-opacity=".549" d="M345.988 528.54l-11.878-56.365-31.436 36.699 9.117 5.854z"/><path fill="#e3e3fb" fill-opacity=".722" d="M469.159 1086l-173.043-86.328-29.15 79.912-103.139-50.065z"/><path fill="#9e1f2a" fill-opacity=".596" d="M729.888 1031.468l27.501-5.43-64.397-333.346-5.394 149.02z"/><path fill="#e5a390" fill-opacity=".478" d="M366.85 252.623l40.634 11.69-82.548-68.137 217.053-6.715z"/><path fill="#af898f" fill-opacity=".765" d="M426.896 574.104l-43.664 2.747 7.623 47.728 65.028-25.174z"/><path fill="#7c7e8c" fill-opacity=".388" d="M581.157-32.284L642.61 154.53l106.753-1.314L757.282-62z"/><path fill="#526c5c" fill-opacity=".643" d="M-62 1078.204L299.616 566.05l-116.94 321.78 119.754 150.93z"/><path fill="#4f1f24" fill-opacity=".984" d="M350.082 561.494l66.587 94.317-110.524-24.214-92.455-201.42z"/><path fill="#00000a" fill-opacity=".443" d="M564.206 214.618l36.198 225.16-27.795 207.744-72.843-199.39z"/><path fill="#5d131d" fill-opacity=".6" d="M327.883 840.38l76.876-74.253L450.379 1086l-162.48-98.897z"/><path fill="#221002" fill-opacity=".565" d="M381.87 206.162l89.32-67.445 16.84 47.783-147.216-23.571z"/><path fill="#78222d" fill-opacity=".788" d="M595.676 361.553l-11.284-117.028 142.553 101.46 21.85 66.256z"/><path fill="#170b10" fill-opacity=".808" d="M689.608 766.091l107.883 98.916-56.596 123.958-17.782-481.12z"/><path fill="#331518" fill-opacity=".804" d="M262.833 318.08l236.973 351.316-54.096-279.48-66.648-101.458z"/><path fill="#ba8369" fill-opacity=".733" d="M692.691 489.727l32.592 61.329-138.11 179.948L581.22 527.6z"/><path fill="#211b1e" fill-opacity=".796" d="M669.44 261.502l-23.326 22.741-5.345 24.025 105.78 335.9z"/><path fill="#cd3d20" fill-opacity=".247" d="M410.026 745.936L504.69 956.12l7.993-174.356 191.354-90.968z"/><path fill="#02090f" fill-opacity=".851" d="M573.638 1086l44.44-51.266-53.719-232.95-60.907-13.464z"/><path fill="#020f14" fill-opacity=".686" d="M389.485 339.512l-50.063 210.592 57.503 147.352-14.22 29.145z"/><path fill="#141700" fill-opacity=".471" d="M222.904 504.197l-19.53-36.61-108.12 191.984 123.78-101.053z"/><path fill="#70111b" fill-opacity=".867" d="M453.536 496.434l61.38 13.618L565.8 625.045l-55.372 12.153z"/><path fill="#d3aaa9" fill-opacity=".451" d="M120.223 504.263L-3.041 730.703l135.026-273.897 91.62-62.105z"/><path fill="#73bb4c" fill-opacity=".427" d="M113.752 864.655l5.244 82.73L-62 1001.09l5.396-419.729z"/><path fill="#b77d74" fill-opacity=".655" d="M18.439 653.983l168.3 29.62-38.45 108.31-75.64-28.96z"/><path fill="#545c5e" fill-opacity=".804" d="M99.15 673.242l203.66-5.71-28.245-146.283-27.869-3.506z"/><path fill="#52050a" fill-opacity=".557" d="M480.262 699.836l-82.979 22.703-74.06 33.613-11.287-52.718z"/><path fill="#ebb097" fill-opacity=".353" d="M330.83 163.246l9.629-8.44 96.185-62.38 73.57 52.552z"/><path fill="#483113" fill-opacity=".506" d="M117.043 801.247l36.384-12.96-84.732 7.06-61.423-108.42z"/><path fill="#7d464b" d="M464.742 587.28l6.75 128.35-64.406-151.844-5.5 103.183z"/><path fill="#07161c" fill-opacity=".659" d="M340.233 1017.678l15.374-99.236 4.284-117.945 42.701 274.214z"/><path fill="#ffe6de" fill-opacity=".22" d="M516.784 489.736l-48.35 13.189 8.412-144.457 31.582 129.17z"/><path fill="#64161b" fill-opacity=".765" d="M565.373 301.914l-77.688 101.067 13.162-128.654 53.457 191.819z"/><path fill="#0b0f13" fill-opacity=".867" d="M605.46 757.952l74.106 255.093 49.77 72.955-69.285-346.571z"/><path fill="#c59583" fill-opacity=".796" d="M348.956 804.927l-166.85 15.019 282.343-115.898 212.707-138.32z"/><path fill="#010d13" fill-opacity=".757" d="M406.65 810.667l17.525-22.232 74.956 220.794L464.19 1086z"/><path fill="#313b3f" fill-opacity=".733" d="M891.387 141.955l-110.926 207.4L561.039 238.87l-7.801-47.062z"/><path fill="#fd2830" fill-opacity=".2" d="M153.555 429.277l126.78 120.564-24.419-268.047-36.837 191.324z"/><path fill="#021016" fill-opacity=".561" d="M300.629 354.558l-33.759 59.614 31.434 226.187 18.927-323.727z"/><path fill="#ff1f2e" fill-opacity=".227" d="M302.442 466.842l38.08 29.203 41.185-149.662-57.316 49.211z"/><path fill="#000e14" fill-opacity=".694" d="M802.03 878.878l14.913 94.925-48.646 58.656-55.263-282.463z"/><path fill="#565347" fill-opacity=".796" d="M813.316 987.684l-30.272 27.371L847.328 1086l-4.31-615.17z"/><path fill="#ad3538" fill-opacity=".498" d="M771.155 541.525l-86.928-126.193 63.382-48.004-67.622-36.55z"/><path fill="#f50618" fill-opacity=".212" d="M677.843 1023.053l-29.152-111.726-38.262-3.18 5.217 170.625z"/><path fill="#f0c0ff" fill-opacity=".184" d="M460.38 644.14l-128.066 11.069-.37 49.807 117.08-12.174z"/><path fill="#4e5356" fill-opacity=".98" d="M343.313 37.074L170.016 429.54-62-11.648 626.158-62z"/><path fill="#926861" fill-opacity=".569" d="M207.523 803.516L171.274 930.47l99.163 26.31 70.128-117.487z"/><path fill="#ed181b" fill-opacity=".165" d="M322.95 675.475l-27.153-225.413 56.626 165.086L444.562 1086z"/><path fill="#020c02" fill-opacity=".455" d="M336.837 477.246l132.747-75.673 58.459-141.26 19.029-19.135z"/><path fill="#5a1119" fill-opacity=".702" d="M408.243 421.81l-30.422 126.707 118.683-90.401-66.256-18.28z"/><path fill="#ebf7ff" fill-opacity=".314" d="M460.977 425.551l20.396-5.757 16.843 7.125-44.102 26.931z"/><path fill="#c71626" fill-opacity=".388" d="M330.797 885.465l14.438.841.767 129.857-43.31-22.817z"/><path fill="#070c11" fill-opacity=".647" d="M587.113 625.51l-30.12 9.977-39.964-149.654-1.164-157.777z"/><path fill="#5d6569" fill-opacity=".725" d="M203.75 998.422l109.518-143.149L279.298 1086l-194.665-62.219z"/><path fill="#d32a36" fill-opacity=".392" d="M595.843 372.193l53.756.976-7.63-82.998-35.918-19.498z"/><path fill="#edc3c4" fill-opacity=".294" d="M151.79 867.578l63.745-7.393-1.487-57.07 164.769-71.323z"/><path fill="#070d16" fill-opacity=".506" d="M501.616 615.719l-77.938-213.82 13.938 141.644 48.105 108.005z"/><path fill="#42301f" d="M341.327 256.8l44.58 134.087 43.817-1.721-66.596-135.024z"/><path fill="#0e0f16" fill-opacity=".69" d="M672.98 404.624l-5.998 52.497-62.898 21.256 126.788 22.022z"/><path fill="#6c3a2a" fill-opacity=".451" d="M136.538 773.107l21.756-60.967-71.672-6.33 2.51-12.18z"/><path fill="#b5adae" fill-opacity=".616" d="M318.111 518.318l33.452 2.784-26.429-46.496-25.229 31.856z"/><path fill="#ba6b66" fill-opacity=".271" d="M175.05 428.092L-62 812.098 172.766 516.02l70.936-199.405z"/><path fill="#b58674" fill-opacity=".765" d="M482.24 252.693l5.611 64.787-82.332-141.393 5.891-11.187z"/><path fill="#345f07" fill-opacity=".263" d="M-62 1086V835.045l83.3 110 117.455 2.576z"/><path fill="#c4e1fb" fill-opacity=".424" d="M511.137 638.106l2.222 37.814-30.81-31.287 1.782 41.954z"/><path fill="#77111a" fill-opacity=".392" d="M658.475 743.6l43.56 192.415 25.668-284.413 25.355 101.132z"/><path fill="#cdebec" fill-opacity=".22" d="M464.355 611.4l-40.898 11.41-1.088-36.167 35.628-17.536z"/><path fill="#cf9075" fill-opacity=".267" d="M408.835 233.168l-14.182 53.41-83.484-102.218 269.543 24.555z"/><path fill="#2c0106" fill-opacity=".427" d="M432.517 689.62l19.547-33.543 40.687 33.104-71-39.279z"/><path fill="#9d6c50" fill-opacity=".682" d="M338.358 808.124l147.944-26.032 99.54-40.867-39.083-55.329z"/><path fill="#090f15" fill-opacity=".522" d="M351.598 698.78l51.937 27.638-60.34-145.767 62.012 129.81z"/><path fill="#a49295" fill-opacity=".8" d="M396.975 645.997l-48.885 7.114-6.167-7.019.627 45.05z"/><path fill="#001d24" fill-opacity=".408" d="M403.424 648.305l30.846 89.449-78.182-112.137 52.607 78.302z"/><path fill="#d0a088" fill-opacity=".302" d="M580.183 593.782l23.844-89.027 97.138 156.336 21.491-133.9z"/><path fill="#181d22" fill-opacity=".949" d="M347.318 546.499l42.61 90.168 22.812 46.791-1.35-23.76z"/><path fill="#e2faff" fill-opacity=".345" d="M380.04 576.453l54.31 138.13-40.952-125.117 17.68 5.617z"/><path fill="#6c151d" fill-opacity=".976" d="M440.449 975.328L381.91 1086l11.175-131.563-23.502-172.662z"/><path fill="#87a4bd" fill-opacity=".325" d="M596.45 381.356l52.062-20.631 27.91 69.966-71.377 13.207z"/><path fill="#def7ff" fill-opacity=".365" d="M366.158 703.562l2.225 4.268 6.604-62.107 9.27 58.9z"/><path fill="#411312" fill-opacity=".431" d="M304.652 838.723l103.79-43.904 47.516-6.5-128.849 81.824z"/><path fill="#24414b" fill-opacity=".349" d="M-62 456.362l145.456 25.802L.22 683.516l57.617-72.198z"/><path fill="#952b37" fill-opacity=".675" d="M748.084 990.017L815.411 1086H692.378l52.798-136.01z"/><path fill="#575d5e" fill-opacity=".855" d="M201.068 607.576l149.876 79.205-104.566 82.357-129.307 156.848z"/><path fill="#a26f5e" fill-opacity=".565" d="M506.406 340.707l43.035-165.049-27.203 97.117 25.273 15.618z"/><path fill="#0e0000" fill-opacity=".243" d="M328.256 186.916l145.884-.682 19.563-18.964-11.107-19.736z"/><path fill="#e5b6a1" fill-opacity=".478" d="M130.087 701.274L70.484 655.83l-7.489 26.652-15.301 7.53z"/><path fill="#5e7c86" fill-opacity=".38" d="M61.134 790.195l82.544 14.273-6.433 99.248-87.763-44.801z"/><path fill="#5c1519" fill-opacity=".396" d="M334.663 745.524l-5.758-113.142 36.492 108.492 2.192-116.858z"/><path fill="#58382f" fill-opacity=".824" d="M439.873 346.599l-42.82-112.333 59.987-9.454-29.416 27.39z"/><path fill="#521820" fill-opacity=".737" d="M456.164 642.989l88.073-18.808-101.11 10.805L380.18 391.52z"/><path fill="#0c0600" fill-opacity=".204" d="M320.85 72.536l218.324-48.097-68.644 87.766-146.854 6.461z"/><path fill="#db9b8f" fill-opacity=".376" d="M78.518 771.094L58.155 606.65l-32.941 49.005L151.16 785.71z"/><path fill="#161114" fill-opacity=".745" d="M721.457 490.516l-.379-7.935 36.548-45.192-18.882-52.477z"/><path fill="#fc1230" fill-opacity=".145" d="M208.35 320.497l125.987-4.605-36.41 24.007-35.038 83.37z"/><path fill="#000911" fill-opacity=".392" d="M282.462 371.692l-41.658-20.596 116.314-4.552-112.767 173.702z"/><path fill="#ffe7d6" fill-opacity=".169" d="M369.748 746.265l-135.537 47.673-1.419 4.472 98.598 35.956z"/><path fill="#b88674" fill-opacity=".592" d="M390.704 122.988l79.085 158.07-68.57 22.302 91.834-6.617z"/><path fill="#505558" fill-opacity=".996" d="M266.248 80.019l95.728 228.757-58.419-11.397L-62 469.89z"/><path fill="#bc8671" fill-opacity=".631" d="M199.362 819.202l446.593-164.361-119.116-28.803-.318 101.923z"/><path fill="#160000" fill-opacity=".506" d="M423.679 289.521l35.946-.501 1.083-21.263-64.574 11.87z"/><path fill="#60615e" fill-opacity=".812" d="M136.703 695.587L84.584 670.68l-5.09-9.223 94.573-64.793z"/><path fill="#a52a30" fill-opacity=".631" d="M753.153 438.97l1.731 21.965-17.017 44.948-13.553-3.563z"/><path fill="#471b00" fill-opacity=".184" d="M-62 625.688L94.275 719.69l-45.647 3.412 54.492 94.271z"/><path fill="#7e7134" fill-opacity=".514" d="M844.193 575.292L730.638 670.47l28.295-204.072.779-121.313z"/><path fill="#555d5f" fill-opacity=".847" d="M7.403 602.297l93.24-92.283L-62 377.615l280.398 2.827z"/><path fill="#112228" fill-opacity=".6" d="M460.857 632.562l37.657-.467-6.244 55.57 13.562-29.871z"/></svg>