<svg xmlns="http://www.w3.org/2000/svg" width="228" height="278" viewBox="0 0 836 1024"><path fill="#6c3332" d="M0 0h836v1024H0z"/><path fill="#e6aadb" fill-opacity=".996" d="M200.208 1086l-226.58-116.412 91.718-87.914 78.936 58.612z"/><path fill="#0b0f1c" fill-opacity=".725" d="M898 453.398L753.983 696.377 563.829 582.879l16.976-233.516z"/><path fill="#c98964" fill-opacity=".671" d="M390.776 316.652l-58.258 527.694-14.086-670.402 227.813 8.387z"/><path fill="#f32145" fill-opacity=".898" d="M658.248 847.473L680.825 1086l86.64-39.588 7.655-181.13z"/><path fill="#0a0e1f" fill-opacity=".761" d="M201.76 375.445l64.64 353.878L59.92 679.82l61.97-199.056z"/><path fill="#cddbe7" fill-opacity=".557" d="M248.389 649.553l342.215-12.661-117.687-42.8-228.839 29.66z"/><path fill="#3f0a03" fill-opacity=".718" d="M-62-6.332l960 8.76-486.6 89.884L43.172 265.484z"/><path fill="#ff0d3b" fill-opacity=".773" d="M225.14 1086L77.416 869.99l171.666-4.146 4.701-29.698z"/><path fill="#ff6e46" fill-opacity=".431" d="M459.408 253.02l-58.955 425.522 175.339-345.584L548.4 1028.36z"/><path fill="#fda5ab" fill-opacity=".337" d="M246.96 263.42l-23.212 743.133 64.69-612.987L-62 311.92z"/><path fill="#876a55" fill-opacity=".945" d="M130.165 733.817L17.485 617.839-62 964.187l128.157-71.049z"/><path fill="#000b1f" fill-opacity=".792" d="M489.803 1086l26.432-110.063-25.732-398.869-26.625 269.239z"/><path fill="#8f7c62" fill-opacity=".643" d="M516.197 74.756l22.292 190.775-320.752 99.643 152.387-273.71z"/><path fill="#ff5b32" fill-opacity=".596" d="M467.708 995.853L444.87 1086l-32.31-267.328L452.186 345.7z"/><path fill="#a5ecfa" fill-opacity=".18" d="M838.136 1086l16.947-287.188-194.345-177.114 28.317 237.38z"/><path fill="#00061a" fill-opacity=".643" d="M367.742 869.908l12.716-287.057 40.018 216.027L415.97 1086z"/><path fill="#5d1611" fill-opacity=".824" d="M785.686-2.254L898 8.856l-90.97 578.781-323.28-553.23z"/><path fill="#120c09" fill-opacity=".671" d="M511.394 430.08l22.204-52.31 110.122-21.453-288.755-70.937z"/><path fill="#030817" fill-opacity=".757" d="M548.556 673.661l51.684-157.195-12.787 103.3 9.81 429.198z"/><path fill="#fb4113" fill-opacity=".475" d="M262.011 815.159L293.516 1086l69.58-556.618 10.266 471.288z"/><path fill="#18162b" fill-opacity=".835" d="M351.301 1086L283.85 355.275l55.13-35.176-50.877 516.35z"/><path fill="#fd3d00" fill-opacity=".51" d="M620.09 1067.469l1.863-594.073-27.969 126.764-7.167 57.854z"/><path fill="#ff1b53" fill-opacity=".918" d="M-11.27 940.657l101.528 102.196L40.642 1086-62 1070.47z"/><path fill="#abbbcb" fill-opacity=".627" d="M766.997 495.93l-19.566 16.223 4.272 34.569 46.887-7.073z"/><path fill="#ff703f" fill-opacity=".565" d="M279.92 380.744l-30.842 1.228-9.996 86.95 45.03 404.226z"/><path fill="#000e24" fill-opacity=".502" d="M692.686 732.084l-54.992 305.718-21.637-479.644 46.152 137.507z"/><path fill="#6c667d" fill-opacity=".773" d="M158.957 754.226l47.989-76.375 47.477 41.811L260.6 849.05z"/><path fill="#d34624" fill-opacity=".792" d="M513.614 1031.107l12.8-409.976 32.58 188.339L564.31 1086z"/><path fill="#855f45" fill-opacity=".992" d="M898 481.66L894.244 1086H759.92l23.499-428.957z"/><path fill="#2c2534" fill-opacity=".941" d="M366.645 577.837l55.308 8.389-24.945 303.584 27.864-579.148z"/><path fill="#b7e6ff" fill-opacity=".341" d="M427.85 598.416L264.626 656.63l292.748-21.53 14.559-23.39z"/><path fill="#64130d" fill-opacity=".82" d="M340.316 249.467L202.188 59.171l-203.599.65-31.075 172.537z"/><path fill="#050e0c" fill-opacity=".765" d="M430.242-62L297.925 81.076l22.604 21.767 190.07-45.52z"/><path fill="#121b3a" fill-opacity=".439" d="M492.307 495.797l2.656-192.285-38.828 316.672 69.809-31.28z"/><path fill="#ececfe" fill-opacity=".808" d="M171.07 1086L18.3 953.512l28.852-47.355 78.565 57.334z"/><path fill="#010611" fill-opacity=".839" d="M728.183 687.798l90.894-93.511-164.388-128.949-31.657 130.002z"/><path fill="#77393d" fill-opacity=".816" d="M679.024 196.265l33.046 93.219-54.52 83.37L415.005 262.66z"/><path fill="#597294" fill-opacity=".447" d="M-62 553.402l186.029 3.26-44.976 38.332L-62 1037.69z"/><path fill="#a496b6" fill-opacity=".859" d="M512.41 477.056l30.158 17.807-11.545 33.463-45.794-28.342z"/><path fill="#fe8554" fill-opacity=".478" d="M481.512 371.143l-21.847 213.744-34.243-186.454-95.426-36.26z"/><path fill="#000711" fill-opacity=".675" d="M172.16 523.39L34.068 636.504l129.18 102.976 57.761-94.385z"/><path fill="#ff6041" fill-opacity=".58" d="M370.665 569.351l8.964-177.487-43.557-30.32-14.738 292.4z"/><path fill="#865874" fill-opacity=".51" d="M-5.541 379.912L-62 248.991l458.129 24.461-181.779 116.94z"/><path fill="#5a1b19" d="M275.997 733.085l-22.046-89.261-60.004-151.27-11.549 74.326z"/><path fill="#4a0000" fill-opacity=".369" d="M62.986 348.748l3.128-197.816L141.2 539.159-62 544.71z"/><path fill="#1c1d39" fill-opacity=".831" d="M131.545 442.577l105.09 99.28-1.912-118.484 25.956-72.522z"/><path fill="#130e1c" fill-opacity=".867" d="M491.547 640.716l-27.415 16.252L473.804 1086l42.483-424.48z"/><path fill="#100f21" fill-opacity=".757" d="M574.268 832.589L553.128 1086l120.536-86.572L615.998 1086z"/><path fill="#5c5a97" fill-opacity=".365" d="M665.39 621.347L800.508 810.81 674.86 884.667l-28.784-186.261z"/><path fill="#010012" fill-opacity=".592" d="M241.208 1086l6.636-174.066L252.981 882l30.46-5.427z"/><path fill="#c8441e" fill-opacity=".906" d="M620.871 881.008l-22.26 67.744 14.862 107.7L646.156 1086z"/><path fill="#02091d" fill-opacity=".616" d="M520.873 471.14l-49.322-10.047 35.037-182.232 19.82 39.534z"/><path fill="#d1d8f2" fill-opacity=".592" d="M245.082 538.112l61.444-29.43-70.446 6.372 13.479 10.906z"/><path fill="#ff0629" fill-opacity=".482" d="M785.446 890.13l-54.149 193.763 10.008 2.107-111.059-159.921z"/><path fill="#282843" fill-opacity=".863" d="M278.128 563.927l1.765 43.645 36.39 16.465 20.262-323.077z"/><path fill="#c13a1b" fill-opacity=".91" d="M332.872 1086h10.708l35.319-79.817-7.567-169.652z"/><path fill="#0d0d1d" fill-opacity=".678" d="M298.771 548.507L346.681 1086h-84.392l48.61-87.764z"/><path fill="#501b00" fill-opacity=".271" d="M278.505 826.401L224 892.453 52.686 872.128l30.13-180.862z"/><path fill="#d64b2b" fill-opacity=".882" d="M264.303 1086l13.46-206.752 34.855 101.542L264.262 1086z"/><path fill="#101022" fill-opacity=".706" d="M373.146 645.037l49.273-7.92-10.395 55.184L387.57 1086z"/><path fill="#abdff9" fill-opacity=".318" d="M317.97 647.737l-58.375 8.225-22.371-46.586 158.654 10.351z"/><path fill="#5b1309" fill-opacity=".592" d="M845.22-62L412.617 193.027l7.35-55.345 190.807 84.165z"/><path fill="#2a2739" fill-opacity=".996" d="M386.255 361.22l-11.657 252.162 22.272-8.065 21.996 14.682z"/><path fill="#d0cb93" fill-opacity=".318" d="M489.322 305.235L347.045 191.784l127.888-21.41-54.543 150.568z"/><path fill="#3a1f18" fill-opacity=".71" d="M858.394-21.254L788.346 263.15l-9.488 194.12 103.3 296.532z"/><path fill="#f0522a" fill-opacity=".506" d="M558.908 608.613l-52.507-26.94 75.461-183.949-48.182-46.91z"/><path fill="#fee891" fill-opacity=".235" d="M390.38 135.024l50.002-56.062 97.083 31.212-69.363 42.519z"/><path fill="#e057c7" fill-opacity=".655" d="M157.05 960.485L73.5 875.752l116.7 180.53L208.713 1086z"/><path fill="#010a24" fill-opacity=".647" d="M497.25 1086l141.275-57.535 10.403-73.603L719.205 1086z"/><path fill="#e2fbff" fill-opacity=".263" d="M121.717 548.427l-9.833 3.444-34.86 9.732 8.548 41.532z"/><path fill="#8c7e90" fill-opacity=".769" d="M75.872 697.544L-62 912.924V741.878l123.94-75.3z"/><path fill="#05122c" fill-opacity=".592" d="M614.816 469.653l-71.81-159.114 116.37 75.19L763.5 556.62z"/><path fill="#1a1223" fill-opacity=".953" d="M313.385 903.578l18 107.687-40.863-340.8 37.868-16.199z"/><path fill="#f36b4d" fill-opacity=".561" d="M470.491 384.578l-35.582 27.341-13.742 77.288 44.357 126.408z"/><path fill="#c83e1a" fill-opacity=".596" d="M284.27 671.902l15.553 22.012-22.187 174.226-13.113-293.94z"/><path fill="#c23412" fill-opacity=".635" d="M506.464 674.519l12.755-41.817 31.69 35.055-31.598 275.19z"/><path fill="#ed4829" fill-opacity=".439" d="M323.32 782.005l8.515-120.942 44.622-20.284-26.29 281.124z"/><path fill="#ff0620" fill-opacity=".427" d="M211.794 1086l-54.562-144.742 52.23-84.206 49.229-4.633z"/><path fill="#c93211" fill-opacity=".506" d="M417.281 608.912l50.997 311.314L429.804 1086 410.42 722.91z"/><path fill="#9084b4" fill-opacity=".424" d="M708.662 674.087l-58.56 44.02 3.13-42.164 9.486-47.274z"/><path fill="#05050d" fill-opacity=".569" d="M671.945 579.293l-63.325 18.863 10.882 48.723 9.955 129.452z"/><path fill="#38cbff" fill-opacity=".098" d="M727.427 479.784l69.384-6.518L898 722.523 777.435 605.508z"/><path fill="#9a220a" fill-opacity=".698" d="M603.54 577.011l38.048-7.892-12.978-31.676-2.981-84.348z"/><path fill="#f94227" fill-opacity=".369" d="M190.098 545.734l2.472-101.318 14.867 96.227-2.929 48.035z"/><path fill="#201b1e" fill-opacity=".541" d="M-62 24.959L51.304-62 667.132-2.276 260.513 34.525z"/><path fill="#2e2e1c" fill-opacity=".247" d="M786.969 698.846l18.338 195.29-139.271-222.598-24.744 162.46z"/><path fill="#947f51" fill-opacity=".753" d="M337.089 353.985l31.977-44.701 70.124 77.97-44.062 8.547z"/><path fill="#c7c2ca" fill-opacity=".455" d="M482.827 641.84l32.278-52.867 21.66 53.44-143.238-70.721z"/><path fill="#524246" fill-opacity=".678" d="M-25.181 558.494l116.789-20.888-40.415 143.243-91.083-71.9z"/><path fill="#190e1a" fill-opacity=".71" d="M601.349 756.852l-33.034 230.964-15.697-344.836 9.57 8.316z"/><path fill="#121b42" fill-opacity=".365" d="M624.369 424.298L458.554 584.755l45.275 22.26 9.442-46.932z"/><path fill="#b59d7a" fill-opacity=".506" d="M444.063 171.268l57.687 21.865 23.182-29.66-6.972 115.879z"/><path fill="#ddc2cd" fill-opacity=".471" d="M356.531 480.846L288.974 508.5l-47.008 10.876 2.055 19.14z"/><path fill="#090004" fill-opacity=".69" d="M662.81 925.463l-36.577 2.736 1.847-113.32 27.168 61.493z"/><path fill="#151300" fill-opacity=".486" d="M425.976 369.693l-96.467-137.341 93.715 100.982 111.194-21.436z"/><path fill="#091128" fill-opacity=".698" d="M219.664 374.946L107.614 679.32l20.498-209.773 190.825-133.863z"/><path fill="#976575" fill-opacity=".6" d="M325.419 332.495L80.134 368.117l290.89-127.652-88.921 143.24z"/><path fill="#b78725" fill-opacity=".255" d="M-62 984.238l206.375-215.23-57-71.099-43.967 42.42z"/><path fill="#09161d" fill-opacity=".239" d="M115.315 673.781l137 170.838-150.25-5.976 34.1-62.178z"/><path fill="#120b1a" fill-opacity=".808" d="M432.475 1086l-21.904-162.26L350.712 1086l-111.147-66.149z"/><path fill="#fa54c7" fill-opacity=".694" d="M140 1086l48.371-19.232-93.445 4.672-122.762-163.164z"/><path fill="#a473f4" fill-opacity=".161" d="M716.245 686.142l61.376 186.633-111.567-27.48 99.277-125.221z"/><path fill="#65110b" fill-opacity=".565" d="M524.27 277.335l16-242.256L898 41.964 531.642 257.329z"/><path fill="#003310" fill-opacity=".243" d="M319.107 127.484l20.245-54.808 77.43 129.844 59.467-46.785z"/><path fill="#eb4d25" fill-opacity=".498" d="M583.584 403.774l-17.524 63.614-40.864-3.33 9.866-95.878z"/><path fill="#5e120b" fill-opacity=".827" d="M308.763 148.765l8.692-115.268-169.602 43.191 141.77 151.658z"/><path fill="#5e1610" fill-opacity=".627" d="M-22.115 396.782l1.954 78.945 97.3 92.256 89.662-166.627z"/><path fill="#330001" fill-opacity=".447" d="M316.104 650.762L128.99 690.375l256.529-45.204-129.106 60.32z"/><path fill="#f1734f" fill-opacity=".655" d="M548.738 979.395l-68.765 92.856 80.09-28.972 2.37-43.825z"/><path fill="#b3bbe3" fill-opacity=".173" d="M168.56 701.749l94.037 129.49-17.582-125.174 3.73 9.485z"/><path fill="#d03c17" fill-opacity=".51" d="M484.926 379.129L425.8 452.255l5.248-52.824 53.676-54.588z"/><path fill="#2a253a" fill-opacity=".647" d="M366.013 379.947l44.403 20.78 8.773 258.848-37.003-227.261z"/><path fill="#a4704e" fill-opacity=".808" d="M725.515 1067.96L887.017 1086 898 953.47l-114.99 14.845z"/><path fill="#833c44" fill-opacity=".325" d="M-28.873 221.935L127.24 430.782l-18.616-149.52 310.98-34.61z"/><path fill="#fe8963" fill-opacity=".388" d="M568.055 477.663l-12.562 140.984-27.191-77.653-22.344 86.19z"/><path fill="#1d2544" fill-opacity=".533" d="M572.188 487.193L554.835 627.33l101.854-240.375-51.457-5.836z"/><path fill="#ef6334" fill-opacity=".478" d="M282.374 508.27l-40.766-42.776-2.928-82.043 48.594 21.674z"/><path fill="#1d0000" fill-opacity=".247" d="M563.795 986.194l35.403-148.91-2.786 104.312-218.882 27.608z"/><path fill="#fee1eb" fill-opacity=".345" d="M787.028 521.257l-42.08-12.62 9.817 23.524 1.103 10.833z"/><path fill="#b6122b" fill-opacity=".467" d="M69.356 881.674l49.836-35.114 179.32 19.148-198.472 40.81z"/></svg>