<svg xmlns="http://www.w3.org/2000/svg" width="228" height="278" viewBox="0 0 836 1024"><path fill="#6c3332" d="M0 0h836v1024H0z"/><g fill-opacity=".502"><path fill="#fffcff" d="M242 1086l-304-48L70 854z"/><path fill="#000921" d="M898 490L558 326l100 468z"/><path fill="#a68e79" d="M526 294l-8-236-580 340z"/><path fill="#bd847d" d="M238 654l336-28-336-264z"/><path fill="#260000" d="M-54-62L898 2-38 190z"/><path fill="#000c24" d="M238 366l-20 388-280-172z"/><path fill="#ff3f69" d="M710 754l164 332-228-104z"/><path fill="#ff0038" d="M250 862l-24 216L74 862z"/><path fill="#550200" d="M822 534L486 38l412-68z"/><path fill="#fff" d="M226 1086L70 886l-72 68z"/><path fill="#9f9a7a" d="M-62 1050l184-288-172-316z"/><path fill="#ff866a" d="M542 690l-44-200 80-128z"/><path fill="#6d768c" d="M654 622l28 244 216-40z"/><path fill="#ff8156" d="M410 510l68-176-24 388z"/><path fill="#610100" d="M-62 226l408 36L190-2z"/><path fill="#ff541f" d="M502 886l60 200-8-388z"/><path fill="#000012" d="M482 1086l48-220-68-200z"/><path fill="#00001a" d="M422 398l-64 208 60-4z"/><path fill="#000032" d="M278 474l40 156 8-304z"/><path fill="#ff8d4d" d="M326 382l64-84-32 284z"/><path fill="#bee0f4" d="M434 590l-140 44 292 4z"/><path d="M562 326l-48 84-160-124z"/><path fill="#fe4618" d="M482 1046l-36-380-40 236z"/><path fill="#00000d" d="M430 850l-32 208-32-284z"/><path fill="#7f8bad" d="M246 666l-84 60 100 128z"/><path fill="#ff0030" d="M658 846l40 240 88-176z"/><path fill="#f84c23" d="M374 1010l-68-224 60-204z"/><path fill="#00000a" d="M274 838l44-188 24 388z"/><path fill="#ff000b" d="M126 1078L-46 906l-16 100z"/><path fill="#000005" d="M622 634l180 12-148-288z"/><path fill="#8e8848" d="M754 1046l144-44-84-428z"/><path fill="#e8f8ff" d="M798 530l-44-40 4 56z"/><path d="M270 670l-148 44-8-264z"/><path fill="#000003" d="M594 530l-52 180 48 180z"/><path fill="#aa9d66" d="M402 318L510 74 358 94z"/><path fill="#000017" d="M410 926l-48-188 52-124z"/><path fill="#ff5f23" d="M262 1086l16-204 36 84z"/><path fill="#98658a" d="M370 286l-432-16 260 116z"/><path fill="#fb4412" d="M514 614l-4 276 52-172z"/><path fill="#000400" d="M442-62l56 120-220 48z"/></g></svg>