<svg xmlns="http://www.w3.org/2000/svg" width="228" height="278" viewBox="0 0 836 1024"><path fill="#6d6a6b" d="M0 0h836v1024H0z"/><path fill="#dcd6db" fill-opacity=".639" d="M261.674 250.661L80.82 707.271 626.24 1086l-3.684-776.318z"/><path fill="#081014" fill-opacity=".58" d="M880.991 1014.431L857.927 90.348 598.357-62l94.382 1117.48z"/><path fill="#3a3335" fill-opacity=".843" d="M-53.211 1050.892l347.11-904.414L782.054 4.105-62-38.634z"/><path fill="#260c00" fill-opacity=".302" d="M-15.633 800.814l554.344-277.966-54.093 256.066L-62 1086z"/><path fill="#c0ced7" fill-opacity=".678" d="M654.64 1051.395L207.5 1086l19.234-260.407 388.682-30.32z"/><path fill="#282623" fill-opacity=".6" d="M442.627 412.006L326.602 262.414l448.235 61.523L549.661-62z"/><path fill="#d0d5e0" fill-opacity=".984" d="M595.633 523.236L291.651 320.093 180.03 448.987 96.748 664.746z"/><path fill="#8f8579" fill-opacity=".91" d="M311.906 913.912l174.222-134.539-200.722-265.999-76.059 218.491z"/><path fill="#31363a" fill-opacity=".953" d="M-58.485 725.048l234.123 86.38 56.86 263.541L-62 1086z"/><path fill="#dfeeff" fill-opacity=".584" d="M659.194 436.595l-215.837-14.488 45.296-122.47 122.959 6.693z"/><path fill="#591d00" fill-opacity=".388" d="M659.082 1006.448l-61.28-241.497 18.38-400.533L698.908 1086z"/><path fill="#ead3ab" fill-opacity=".431" d="M335.54-62L498.517 51.873 340.34 26.663 236.707 108.09z"/><path fill="#a68b82" fill-opacity=".576" d="M95.401 153.195l5.484 141.574 65.152-5.638-2.684-119.73z"/><path fill="#986348" fill-opacity=".639" d="M515.463 61.743l-46.487 321.318-99.245 15.026-92.274-253.059z"/><path fill="#eab197" fill-opacity=".588" d="M567.699 736.8L141.79 759.785l-64.645 8.275 9.98-72.602z"/><path fill="#4a2229" fill-opacity=".82" d="M228.633 384.062L244.1 361.29l-49.442-191.44-72.904 334.252z"/><path fill="#593005" fill-opacity=".529" d="M71.055 816.421l118.703-71.317-67.785-2.607 316.589 38.97z"/><path fill="#262a2d" fill-opacity=".506" d="M403.29 518.557l-36.48 8.746-17.875-23.277 34.275-29.448z"/><path fill="#e6ecff" fill-opacity=".51" d="M235.773 424.218l230.782 173.74-64.373 30.42-114.34-411.617z"/><path fill="#b81830" fill-opacity=".537" d="M474.064 645.448l57.328-41.63-56.11-67.918-31.183 49.966z"/><path fill="#cdd6ea" fill-opacity=".682" d="M414.831 1046.367l226.689-73.473-38.53-192.668-11.305-143.437z"/><path fill="#eaeffb" fill-opacity=".545" d="M107.624 639.715l55.074-162.139 84.554-115.97-16.532 329.783z"/><path fill="#526888" fill-opacity=".741" d="M517.966 691l65.464-49.388-183.796 32.06L272 720.564z"/><path fill="#313637" fill-opacity=".843" d="M67.887-62L-62 85.747l338.82 125.32 59.9-63.194z"/><path fill="#2c3235" fill-opacity=".745" d="M758.535-62H468.327l43.235 271.764L812.41 522.653z"/><path fill="#8d6149" fill-opacity=".722" d="M655.232 835.67l-64.493-236.768 63.16-200.415 5.818 66.94z"/><path fill="#34393d" fill-opacity=".988" d="M670.406 1086l-50.34-252.552 156.964-110.17L898 1029.797z"/><path fill="#ccd0f6" fill-opacity=".341" d="M343.447 285.4l-130.33 49.47 29.144-87.798 47.415-38.043z"/><path fill="#e4b9b4" fill-opacity=".604" d="M406.325 743.773l97.13-52.528L272.703 735.2l108.024 37.835z"/><path fill="#d2daeb" fill-opacity=".671" d="M478.181 311.56l172.18 56.241-341.476 48.266 290.076 198.909z"/><path fill="#98a39e" fill-opacity=".624" d="M372.266 949.87l-113.624 17.51-27.125-153.999 292.008-16.045z"/><path fill="#213238" fill-opacity=".431" d="M-27.847 386.5l330.807-53.94-118.458 59.864L19.744 908.62z"/><path fill="#824824" fill-opacity=".51" d="M65.445 651.284l96.373 13.786 27.008 7.383 41.655 40.165z"/><path fill="#b78b7e" fill-opacity=".565" d="M502.267 145.27L474.8 102.381l-115.974-14.64 16.181 72.848z"/><path fill="#eef9ff" fill-opacity=".545" d="M500.18 309.007l7-8.38 70.875-11.944 72.88 92.416z"/><path fill="#13514a" fill-opacity=".157" d="M264.868 615.493L236.52 499.342l219.862 212.855-267.887-24.66z"/><path fill="#bcc4d4" fill-opacity=".741" d="M540.854 585.235l81.503-249.795-32.151 292.184-133.436-58.29z"/><path fill="#e6cda4" fill-opacity=".369" d="M268.048 161.349l-10.32-72.752 21.048-73.739 13.055-4.257z"/><path fill="#2b3030" fill-opacity=".733" d="M152.673 817.67l57.156 130.076L231.7 825.9l-5.1-41.406z"/><path fill="#7c3c25" fill-opacity=".427" d="M400.809 817.5l70.566-25.124 27.186-40.578-125.374 12.418z"/><path fill="#86898f" fill-opacity=".741" d="M437.989 1086l152.98-78.21-37.89-12.813-61.375 37.463z"/><path fill="#ebf0fa" fill-opacity=".608" d="M307.847 309.357L192.617 428.45l-28.682 57.755 245.323-62.363z"/><path fill="#950813" fill-opacity=".29" d="M43.817 219.221l-7.037 132.58 215.204-130.287-37.854 136.411z"/><path fill="#b1babf" fill-opacity=".969" d="M212.137 991.557l18.755-184.39 27.937 170.631.121 91.712z"/><path fill="#362810" fill-opacity=".345" d="M738.362 157.661l-451.677-8.1 27.444-129.04 93.338 153.745z"/><path fill="#a8b6bb" fill-opacity=".478" d="M225.971 469.124l238.13 165.009 68.338 8.247-111.572 37.003z"/><path fill="#ffc0ca" fill-opacity=".251" d="M379.748 193.854l-53.274 14.184 167.286-40.563 16.027 44.96z"/><path fill="#4f0201" fill-opacity=".384" d="M482.252 634.283l-60.06-10.416 89.506-33.207 24.774 11.702z"/><path fill="#69474c" fill-opacity=".38" d="M190.61 539.578l9.363-27.518L-62 510.997l144.807-5.114z"/><path fill="#b3b4aa" fill-opacity=".576" d="M527.468 520.96l125.885-83.597-70.68-45.536-78.297 44.421z"/><path fill="#ae7550" fill-opacity=".537" d="M94.288 729.224l259.467 31.247-280 17.642 80.773-66.167z"/><path fill="#221801" fill-opacity=".322" d="M395.119 86.511l136.485 10.37L364.32 15.906l-77.997 110.598z"/><path fill="#34393d" fill-opacity=".89" d="M477.16 293.426l48.148-213.298 200.884 506.36-16.569-290.8z"/><path fill="#90553f" fill-opacity=".42" d="M769.579 281.803L898 277.77l-80.778-56.174-61.278 23.5z"/><path fill="#000505" fill-opacity=".216" d="M354.697 516.202l39.737 11.193-62.936-43.616 80.651-4.816z"/><path fill="#c3c9d6" fill-opacity=".824" d="M459.29 927.542l-167.984 106.04 114.298-47.094 144.644 92.82z"/><path fill="#d6dfea" fill-opacity=".812" d="M602.934 793.024l31.325 100.687-70.658 71.714 78.594 35.471z"/><path fill="#a96f5b" fill-opacity=".522" d="M619.981 814.997l-30.948-228.882 96.837 181.727-8.762 5.968z"/><path fill="#a1a9b4" fill-opacity=".71" d="M578.59 560.846l18.337 11.857-51.845 76.469-99.88 18.338z"/><path fill="#956a49" fill-opacity=".494" d="M366.65 372.163l67.529 33.953-74.97-308.222-30.61 239.89z"/><path fill="#33396c" fill-opacity=".329" d="M469.535 721.765l104.08-97.103-2.384 46.42-84.744 28.027z"/><path fill="#543c20" fill-opacity=".714" d="M339.06 763.516l-3.865 19.798-137.2 26.496-127.521-21.823z"/><path fill="#1e1300" fill-opacity=".239" d="M677.252 217.095l86.3 178.449 56.743-299.47-100.308-33.34z"/><path fill="#c85844" fill-opacity=".282" d="M898 40.345l-54.713-87.149L768.52 51.48l36.987 48.001z"/><path fill="#ccdaec" fill-opacity=".486" d="M264.008 237.094l57.876 137.186 5.42-121.065-25.713-21.479z"/><path fill="#956e78" fill-opacity=".435" d="M261.156 357.614l-27.785 12.417-19.717-62.435 87.456 12.21z"/><path fill="#ccd4e4" fill-opacity=".514" d="M372.587 618.968l-41.202-285.192-90.579 152.65 236.15 118.8z"/><path fill="#293033" fill-opacity=".753" d="M245.347 172.259L139.369 47.52 346.968 1.043 279.194-62z"/><path fill="#bfc7cd" fill-opacity=".675" d="M239.498 845.059l-33.772 133.438 30.86 52.86-8.572-76.888z"/><path fill="#32383b" fill-opacity=".318" d="M634.16 1028.777l-48.12-41.106 143.71 10.844-23.261-303.055z"/><path fill="#b4bec3" fill-opacity=".722" d="M248.37 877.68l128.096-85.174-40.966 38.09-114.557 83.92z"/><path fill="#222c30" fill-opacity=".518" d="M-21.041 343.22L-62-13.804 67.369 35.523l10.027 186.31z"/><path fill="#ff153f" fill-opacity=".275" d="M534.674 557.03l-68.712-8.766-30.58 38.516 36.821 16.965z"/><path fill="#3f471d" fill-opacity=".184" d="M217.84 936.828l210.578-155.326-35.003 12.18L238.99 898.646z"/><path fill="#b1b9c8" fill-opacity=".553" d="M501.792 851.406l-134.887 179.582 186.548-134.362 14.318-278.012z"/><path fill="#e6f0fe" fill-opacity=".467" d="M634.966 399.249l-118.824-96.553 67.42-10.533 56.11 62.636z"/><path fill="#d2ddf1" fill-opacity=".729" d="M251.592 405.095l339.44 161.262 22.5-113.565-87.126 108.558z"/><path fill="#878b81" fill-opacity=".776" d="M239.98 717.871l95.654 6.158 93.214-123.136-88.113 45.69z"/><path fill="#b0d4d7" fill-opacity=".204" d="M126.274 202.6l-22.237 48.587 14.159 55.614 52.301-67.359z"/><path fill="#dee5f2" fill-opacity=".855" d="M515.985 983.204l55.136-36.899 16.31 105.828 24.383-47.44z"/><path fill="#797d80" fill-opacity=".475" d="M898 973.485V774.7l-77.817 90.39.072 49.111z"/><path fill="#8d624f" d="M491.94 221.368L292.44 175.7l171.459 148.845 22.358-21.63z"/><path fill="#34393d" d="M641.285 391.857l16.763 73.994L898 810.143 792.094 412.172z"/><path fill="#d8a992" fill-opacity=".784" d="M133.95 672.048l186.804 86.39-217.885-47.131-9.26-41.227z"/><path fill="#32458c" fill-opacity=".443" d="M783.297 59.386L737.798 48.45l-48.355-92.829L790.843-62z"/><path fill="#393d40" fill-opacity=".933" d="M621.595 8.314l-317.57-20.362 131.091 25.517L887.939-8.035z"/><path fill="#333639" fill-opacity=".706" d="M419.124 265.7l307.631-83.745-258.816-30.639 100.183 110.525z"/><path fill="#ffeed3" fill-opacity=".161" d="M451.747 1.434l54.11 67.736-175.652-96.802 24.122 67.784z"/><path fill="#e9f0ff" fill-opacity=".439" d="M219.442 672.396l-15.35-132.627L95.407 648.776l53.601 15.487z"/><path fill="#aeb6c4" fill-opacity=".933" d="M502.283 687.232l81.904-11.571-50.724 133.868-23.365-175.305z"/><path fill="#c87766" fill-opacity=".373" d="M447.951 792.081l-69.87-34.389 113.58-63.869 14.349 3.797z"/><path fill="#7b610b" fill-opacity=".259" d="M569.492 461.331l-16.223 29.293 37.345 6.71-18.103-82.16z"/><path fill="#4d4d28" fill-opacity=".153" d="M221.943 700.234l97.32-246.992-52.522 273.493-199.414-64.869z"/><path fill="#040709" fill-opacity=".416" d="M394.332 486.543l-2.7 18.904-33.025-7.093-.013-10.272z"/><path fill="#774b45" fill-opacity=".373" d="M220.096 251.807l-135.516-82.4-3.16 198.184 42.968-278.715z"/><path fill="#2c3134" fill-opacity=".737" d="M-62 665.97v-114.9l324.963-205.624-97.966 104.874z"/><path fill="#e2caa9" fill-opacity=".337" d="M274.27 25.538l50.744-17.4-73.29 87.85 15.29 17.849z"/><path fill="#694f3c" fill-opacity=".792" d="M475.204 794.452l-20.235 11.04-110.473-20.92 126.279 2.439z"/><path fill="#c4c9d3" fill-opacity=".706" d="M188.015 554.577l-35.645 15.298 64.543-51.598 215.135-18.523z"/><path fill="#f9b5ac" fill-opacity=".216" d="M380.78 170.733l-53.413 34.407 166.597-28.212 2.622 40.316z"/><path fill="#f1d3d6" fill-opacity=".357" d="M435.17 728.896l-72.463 16.574 77.34-44.43 46.633 45.613z"/><path fill="#c9dbf6" fill-opacity=".455" d="M566.323 763.306l77.379 257.274-51.616-254.674 4.56-458.109z"/><path fill="#4f0007" fill-opacity=".286" d="M199.943 284.638L75.676 345.506 38.92 263.02l171.5 145.296z"/><path fill="#8b968b" fill-opacity=".773" d="M386.387 795.308l-60.258-12.563-95.804 27.817 16.004 34.463z"/><path fill="#353b3f" fill-opacity=".729" d="M465.738 58.32L567.45 45.76l97.945 199.312-131.821-19.095z"/><path fill="#6f715e" fill-opacity=".278" d="M356.59 915.686l-68.615 46.38-41.087 18.526L436.763 834.4z"/><path fill="#443623" fill-opacity=".455" d="M307.247 226.252L270.58 114.901l107.552 50.781-139.327 14.576z"/><path fill="#bcc6cd" fill-opacity=".431" d="M205.408 1046.983l114.47-136.5-117.051 69.255 227.884-49.297z"/><path fill="#2f3438" fill-opacity=".749" d="M657.936 548.195l186.538 74.752L660.476 723.53l-7.378-90.777z"/><path fill="#fffffe" fill-opacity=".38" d="M318.596 314.911l5.274 22.63-181.533 195.906 65.241-131.294z"/><path fill="#dae1f0" fill-opacity=".804" d="M421.716 410.707l-72.97-45.435-25.686-42.912 14.212 187.08z"/><path fill="#a3a9b2" fill-opacity=".694" d="M481.627 665.807l26.778 133.745-47.693 69.668 91.32-96.664z"/><path fill="#d2def7" fill-opacity=".353" d="M335.106 531.69l197.778 103.98-163.031-71.13 221-50.855z"/><path fill="#32446a" fill-opacity=".537" d="M437.416 708.675l-86.808-19.956 29.86-21.179 37.978 23.307z"/><path fill="#a99091" fill-opacity=".439" d="M486.837 102.617l3.666-25.433-84.336 65.436 82.202-2.653z"/><path fill="#d3d9eb" fill-opacity=".776" d="M567.029 533.712l-55.794 52.55 40.655-3.985-223.945-142.06z"/><path fill="#acacaa" fill-opacity=".341" d="M319.28 455.073l-74.478 85.161 95.054 59.784-25.617-133.293z"/><path fill="#d0d8e8" fill-opacity=".784" d="M482.774 320.329l-13.736-1.348 46.724 168.094-108.468 129.602z"/><path fill="#010103" fill-opacity=".216" d="M529.204 1032.893l57.4-36.844L512.768 1086H242.545z"/><path fill="#e4e8ff" fill-opacity=".271" d="M451.227 949.619l139.6-156.264-171.617 264.087 168.644-187.856z"/></svg>