<svg xmlns="http://www.w3.org/2000/svg" width="228" height="278" viewBox="0 0 836 1024"><path fill="#63343b" d="M0 0h836v1024H0z"/><path fill="#a30b1a" fill-opacity=".796" d="M288.622 246.952L215.887 1086h461.978l-22.786-457.865z"/><path fill="#106381" fill-opacity=".553" d="M300.362 174.065L-22.698 848.64-62-26.362l361.134-25.783z"/><path fill="#6baeb4" fill-opacity=".627" d="M219.36 1086l-53.87-326.653-144.356 85.124-34.575 175.194z"/><path fill="#050a13" fill-opacity=".788" d="M695.153 207.988L739.85-13.088 517.84-62l-19.889 185.304z"/><path fill="#ae343a" fill-opacity=".859" d="M430.478 676.683l299.194-391.495-489.72 37.25-91.302 92.027z"/><path fill="#08161e" fill-opacity=".937" d="M699.557 367.232L898 804.432l-22.053-499.095-149.97-10.878z"/><path fill="#92aaa8" fill-opacity=".639" d="M210.932 359.952l-265.954-79.563 259.403 4.223 171.471-23.84z"/><path fill="#002344" fill-opacity=".792" d="M220.585 949.389l-91.479 1.15 127.542-415.244-26.25 355.02z"/><path fill="#81b4b3" fill-opacity=".596" d="M762.687 255.414l-82.038 93.505-100.048-56.512 153.526-95.18z"/><path fill="#00183d" fill-opacity=".871" d="M-20.797 301.156l198.193 66.083-17.242 132.249L-62 414.375z"/><path fill="#b5c5db" fill-opacity=".71" d="M478.417 461.386l51.84-43.467 66.375 47.272-51.829 31.05z"/><path fill="#86b7b6" fill-opacity=".549" d="M681.223 578.93l28.385 419.545-23.403-30.622-43.493-448.815z"/><path fill="#6b010e" fill-opacity=".769" d="M285.675 837.678L706.64 348.86 581.963 767.771 402.478 896.5z"/><path fill="#ece145" fill-opacity=".588" d="M413.624 629.143l-6.024-91.88 36.988-7.656 90.445 73.212z"/><path fill="#730001" fill-opacity=".659" d="M165.33 392.175l161.998 154.403L81.66 809.37l60.512-139.416z"/><path fill="#c3f699" fill-opacity=".231" d="M490.819 53.894L12.024-25.652l323.97 102.369-45.664 262.94z"/><path fill="#032348" fill-opacity=".98" d="M46.789 735.718L-62 767.22l4.878-169.842 203.207 2.489z"/><path fill="#00120f" fill-opacity=".537" d="M687.016 600.335L621.507 461.03 766.25 602.158l-50.13 323.276z"/><path fill="#708c8d" fill-opacity=".706" d="M20.336 577.033l26.843-130.951 110.443 90.025-25.386 59.63z"/><path fill="#102900" fill-opacity=".545" d="M493.303 333.141l.857-167.766L370.542 272.7l30.334 74.958z"/><path fill="#0f1b1f" fill-opacity=".906" d="M841.633 370.232L898 1009.241l-68.74-26.774-18.499-178.981z"/><path fill="#b40010" fill-opacity=".427" d="M679.195 347.53l-227.697-41.291 300.604 300.327 15.518-88.276z"/><path fill="#618c83" fill-opacity=".592" d="M624.112 166.67l-6.476 70.385-110.708 28.558 3.9-79.977z"/><path fill="#a5c5b1" fill-opacity=".592" d="M139.328 614.09L45.593 750.104l21.702-7.652 39.796-39.568z"/><path fill="#6b3203" fill-opacity=".361" d="M23.733 61.392l144.424-21.37-8.783 241.87-135.457-131.17z"/><path fill="#006898" fill-opacity=".4" d="M243.814 287.93l97.033-13.932-156.711-140.405L-56.426 276.65z"/><path fill="#dd0024" fill-opacity=".361" d="M175.446 375.322l168.376-97.039 35.577 97.072-250.325 266.096z"/><path fill="#898482" fill-opacity=".549" d="M44.615-62L9.903 154.747 85.496 49.439l197.83-31.287z"/><path fill="#ed002f" fill-opacity=".38" d="M654.835 933.69L585.402 1086 242.087 879.205l-59.312 194.95z"/><path fill="#739276" fill-opacity=".475" d="M656.48 913.589l117.45-75.342 47.509 18.996-144.09 173.714z"/><path fill="#2b210c" fill-opacity=".627" d="M208.154 729.877l-89.964 58.256L4.9 808.782l263.523-257.965z"/><path fill="#b37c74" fill-opacity=".569" d="M312.376 606.527l236.411 11.16 3.173-66.705-48.56 12.973z"/><path fill="#002017" fill-opacity=".447" d="M344.153 46.797L890.062 31.32 898-62H161.996z"/><path fill="#effff1" fill-opacity=".18" d="M-12.874 1075.943l267.92-173.862-32.221 139.64L-62 916.123z"/><path fill="#c9253a" fill-opacity=".69" d="M516.705 388.135l-20.827-133.49 146.598 64.761 61.585 48.204z"/><path fill="#4a0001" fill-opacity=".243" d="M746.755 415.016L281.481 591.435l162.131-232.22 58.036 346.256z"/><path fill="#7e000d" fill-opacity=".557" d="M401.157 1086l298.269-306.989-296.242-164.216-104.626.252z"/><path fill="#ee0" fill-opacity=".671" d="M445.862 634.406l-15.446-6.865 30.028-89.083-56.828-3.032z"/><path fill="#001f42" fill-opacity=".643" d="M193.264 335.241l-154.25 55.036-20.663 303.44L-62 315.645z"/><path fill="#5a563e" fill-opacity=".733" d="M819.823 724.467l-20.655-114.614-81.41 41.863L809.152 1086z"/><path fill="#00232c" fill-opacity=".573" d="M741.176 756.165l7.7 128.168-40.629 14.108-23.639-344.778z"/><path fill="#262f23" fill-opacity=".373" d="M898 193.033l-255.02-83.545-355.198 5.417 489.495 126.922z"/><path fill="#583d08" fill-opacity=".498" d="M115.756 204.282l33.165-28.843 20.058 103.45-62.061 5.524z"/><path fill="#80ddd0" fill-opacity=".353" d="M858.77 305.3l-66.951-24.714L898 131.895V71.06z"/><path fill="#d5f79c" fill-opacity=".212" d="M491.492 164.79l-204.733-24.396 166.17 51.056L466.272-8.33z"/><path fill="#bd0a25" fill-opacity=".78" d="M268.654 815.18l103.664-78.992-119.854-96.075-6.143 56.283z"/><path fill="#749090" fill-opacity=".498" d="M180.939 746.638L20.929 865.653l89.353 195.052 82.798-286.247z"/><path fill="#9ebebb" fill-opacity=".431" d="M688.017 248.83l13.478 135.973-43.064-64.617-51.445-27.99z"/><path fill="#011f47" fill-opacity=".698" d="M247.283 809.485l1.434-129.338-65.84 50.82 32.04 225.847z"/><path fill="#dffdff" fill-opacity=".255" d="M667.512 964.23l37.6-59.74-24.367-96.038-18.316 154.22z"/><path fill="#c2fbd1" fill-opacity=".314" d="M325.495 612.192l-10.57-69.59 37.214 53.175 157.302 13.025z"/><path fill="#001315" fill-opacity=".671" d="M750.433 1086l-.168-94.914-105.259 43.048 31.93 1.75z"/><path fill="#005794" fill-opacity=".588" d="M-62 155.203v127.041l160.08 6.511 12.072-72.966z"/><path fill="#ac182b" fill-opacity=".792" d="M508.859 343.413l94.351 93.834-101.271-10-341.356-3.152z"/><path fill="#130102" fill-opacity=".306" d="M15.175 169.541l28.396 47.773 104.917-74.701 47.295-81.553z"/><path fill="#a60f25" fill-opacity=".659" d="M561.987 628.369l62.793 242.197 52.36-88.444-16.49-103.837z"/><path fill="#e6feec" fill-opacity=".318" d="M374.77 33.603l-39.29 96.975 12.661-52.657-16.63-15.866z"/><path fill="#5b5032" fill-opacity=".718" d="M437.023 384.27l-88.412-68.44 83.57-80.976-155.765-102.827z"/><path fill="#532934" fill-opacity=".565" d="M653.665 80.033L597.143-62l6.804 203.066 30.427 74.989z"/><path fill="#5e000a" fill-opacity=".592" d="M412.486 957.213l260.06-118.675-17.104 145.718-39.242-78.95z"/><path fill="#4d6174" fill-opacity=".992" d="M205.127-62l-31.279 191.954-12.11 15.265 72.23 20.308z"/><path fill="#4d0006" fill-opacity=".38" d="M535.835 602.025l8 201.95-157.865 18.493 34.039-191.655z"/><path fill="#576238" fill-opacity=".408" d="M898 28.148L708.608 43.584l40.16 262.537 56.624-25.8z"/><path fill="#3e0000" fill-opacity=".557" d="M656.677 482.224l-88.32-36.17L751.53 639.112l22.397-28.585z"/><path fill="#005f95" fill-opacity=".812" d="M166.966 287.298l2.49 1.744 13.175-144.451 77.457 126.403z"/><path fill="#00060f" fill-opacity=".843" d="M515.632 26.838L653.462-62h-25.093l-87.936 250.031z"/><path fill="#aee6ea" fill-opacity=".157" d="M25.704 74.361l-52.715 250.572 397.964-34.275-401.126-20.287z"/><path fill="#afbfd1" fill-opacity=".533" d="M502.389 487.944l1.334-54.05 63.04-3.55-9.987 72.86z"/><path fill="#d2f9ff" fill-opacity=".345" d="M486.966 68.318l-5.556-11.146-27.894-2.078 8.298 53.641z"/><path fill="#329bfe" fill-opacity=".31" d="M731.151 459.36l-14.778 3.997 8.682 46.577 29.064-45.603z"/><path fill="#cad3c3" fill-opacity=".596" d="M59.408 53.325L33.66 45.579l-8.967-10.246L47.694 15.59z"/><path fill="#e11a38" fill-opacity=".498" d="M610.382 749.984l-15.16 7.423-93.485 103.213-102.897 41.207z"/><path fill="#8ee3c4" fill-opacity=".29" d="M792.22 557.21l18.926 111.462-3.694-8.626-31.896-48.73z"/><path fill="#063d56" fill-opacity=".639" d="M13.78 830.072L-62 997.594l88.008-94.711-2.94-5.441z"/><path fill="#c0d3bc" fill-opacity=".725" d="M818.384 1010.984l-.3 5.657-40.629 58.96 113.784-10.362z"/><path fill="#506271" fill-opacity=".788" d="M143.782 23.608l152.545 258.09-15.573-234.93-26.891 122.704z"/><path fill="#ff6164" fill-opacity=".361" d="M298.39 291.706l84.912.395-193.236 58.945-20.632 75.49z"/><path fill="#8ca5a5" fill-opacity=".596" d="M642.956 540.85l11.157.18 25.313 15.195-4.366 198.816z"/><path fill="#072f53" fill-opacity=".851" d="M20.207 26.282L185.054-62-62-7.946 24.351 101.26z"/><path fill="#ccd7ed" fill-opacity=".373" d="M310.324 475.469l27.21-12.75-8.02 21.542-48.19 5.974z"/><path fill="#3c5e63" fill-opacity=".604" d="M735.473 903.353l-31.114 44.11-13.87-408.928-12.55 263.157z"/><path fill="#be3d44" fill-opacity=".961" d="M520.433 587.421l-35.615-44.434-35.28 38.063 47.571 12.155z"/><path fill="#6e000e" fill-opacity=".725" d="M596.72 399.336l57.579-16.882 78.99 67.291-29.637 50.854z"/><path fill="#00000d" fill-opacity=".592" d="M726.824-62L691.6 173.117l-49.041 64.936L671.829-62z"/><path fill="#5f7072" fill-opacity=".859" d="M172.84 202.664l-67.046-10.74-1.858-23.045 57.144-3.705z"/><path fill="#8d0218" fill-opacity=".537" d="M320.724 713.16l-6.308-152.23 261.34-58.405L220.98 487.07z"/><path fill="#3e0003" fill-opacity=".729" d="M225.38 490.913l37.316 56.927-14.304 61.515-37.776 100.656z"/><path fill="#010302" fill-opacity=".506" d="M441.263 335.9l-91.59-95.006 30.009 47.696 82.23-37.414z"/><path fill="#e1faa5" fill-opacity=".157" d="M25.642 765.718l138.996-164.22-84.946 155.818L-62 738.662z"/><path fill="#a0041b" fill-opacity=".992" d="M543.228 936.721l-237.895 28.316L440.343 1086H428.67z"/><path fill="#022360" fill-opacity=".635" d="M276.632 85.345l-3.03-22.308-33.345 44.099-37.883-96.353z"/><path fill="#4c0001" fill-opacity=".525" d="M585.846 827.758L307.815 950.381l198.71-78.804 127.643-134.082z"/><path fill="#a6855a" fill-opacity=".325" d="M396.826 165.009L355.364 28.835l68.569-19.788-7.362 36.404z"/><path fill="#7e6447" fill-opacity=".988" d="M430.948 137.442l-80.945 97.29 9.815-56.682 140.197-25.812z"/><path fill="#ee103a" fill-opacity=".412" d="M489.755 909.429l39.535-10.62 52.723-36.83 25.907-56.085z"/><path fill="#393828" fill-opacity=".651" d="M516.63-62l-43.868 207.58-175.92-24.759 218.065-10.407z"/><path fill="#810e1d" fill-opacity=".769" d="M629.33 475.057l49.891-14.77-251.35 63.768 101.082 42.272z"/><path fill="#9bd3bc" fill-opacity=".137" d="M635.624 157.1l-92.892 124.957 93.84 46.972-143.408-153.264z"/><path fill="#ff0026" fill-opacity=".212" d="M750.62 583.097l-95.313-110.95 83.169 21.419 42.508 22.864z"/><path fill="#2c5150" fill-opacity=".478" d="M872.37 299.43l-175.598-19.054-1.574 90.478 43.732-66.87z"/><path fill="#8188a2" fill-opacity=".737" d="M226.68 33.718l40.502 27.21 21.352-20.894-63.01-44.078z"/><path fill="#ebfb00" fill-opacity=".369" d="M452.587 637.195l15.826-26.244-4.152-3.347-76.99 4.524z"/><path fill="#85000a" fill-opacity=".651" d="M195.296 408.628l39.567 169.382-50.193 64.698-38.694-105.736z"/><path fill="#895840" fill-opacity=".318" d="M155.69 32.993L41.02 38.146l-12.763 98.858L50.47 175.38z"/><path fill="#032347" fill-opacity=".992" d="M45.913 737.823l35.077-35.476 26.47-45.134L-62 521.101z"/><path fill="#c8ffff" fill-opacity=".133" d="M336.976 617.376l210.525-9.529-21.906-65.949 40.127 38.605z"/><path fill="#343e07" fill-opacity=".506" d="M560.98 238.931l69.429-6.327 12.909 2.974-24.862 48.815z"/><path fill="#6c0006" fill-opacity=".635" d="M211.873 905.174l136.086 5.877 92.448-13.663 32.46 52.882z"/><path fill="#fefbe3" fill-opacity=".161" d="M151.094 579.853l-93.976-26.37 107.605 35.828L45.074 782.212z"/><path fill="#d41f39" fill-opacity=".459" d="M252.241 872.792l-20.574-20.93 17.419-32.904 95.827 54.398z"/><path fill="#171715" fill-opacity=".98" d="M757.722-62l-46.827 94.521 114.388-10.114L898 63.55z"/><path fill="#4c2d15" fill-opacity=".773" d="M74.193 788.7L-62 728.608l71.797 99.548L203.702 586.84z"/><path fill="#474b42" fill-opacity=".655" d="M377.318 308.436L289.039 32.903l-5.196 253.345 41.82-88.007z"/><path fill="#6b5c41" fill-opacity=".545" d="M706.194 1003.028l177.02-29.382-33.392 52.062-80.716-272.213z"/><path fill="#667a7f" fill-opacity=".675" d="M236.012 953.057L1.107 925.034l196.186 50.586 5.872 15.468z"/><path fill="#001d40" fill-opacity=".714" d="M156.139 439.447l-189.482 41.662L101.414 335.14l85.874 34.212z"/><path fill="#7a929f" fill-opacity=".361" d="M701.528 347.945l-62.087-102.858 115.958-56.4-49.268 87.791z"/><path fill="#00141e" fill-opacity=".455" d="M709.635 666.506l-23.866 117.252 60.642 79.168 6.338-50.06z"/><path fill="#7c0513" fill-opacity=".776" d="M514.577 606.538l-151.7 48.693-3.488-56.835 99.978 97.897z"/><path fill="#640b15" fill-opacity=".694" d="M406.385 534.77l-103.967 68.855L316.079 622l31.077-71.36z"/></svg>