<svg xmlns="http://www.w3.org/2000/svg" width="228" height="278" viewBox="0 0 836 1024"><path fill="#6e414b" d="M0 0h836v1024H0z"/><g fill-opacity=".502"><path fill="#ffbfc6" d="M330 94l168 900-264 92z"/><path fill="#ff7c8b" d="M210 366l396 76-348 568z"/><path fill="#02303f" d="M194-62l704 684-8-664z"/><path fill="red" d="M206 370L34 598l240 92z"/><path fill="#690000" d="M850 526L574 882 450 222z"/><path fill="#04394e" d="M2-62l-64 840L358 46z"/><path fill="#092538" d="M202 538l60 408-324 60z"/><path fill="#b70000" d="M442 818l-20 220-72-400z"/><path fill="#160000" d="M482-62l44 428-176 80z"/><path fill="#fff" d="M262 602l8-212-48 44z"/><path fill="#efa46d" d="M390 354L258 190 406 74z"/><path fill="#ff975f" d="M634 962l152-260-248 220z"/><path fill="#f4f8f4" d="M442 522l48-144 8 320z"/><path fill="#0a232c" d="M898 942l-52-292-288 436z"/><path fill="#ff000b" d="M286 542l52-240-72 44z"/><path fill="#faffff" d="M566 470l-44-56 44 164z"/><path fill="#8e0000" d="M414 562l136 248-36 204z"/><path fill="#f3ffff" d="M294 502l44 148-4-300z"/><path fill="#caffff" d="M398 410l48 392-80-172z"/><path fill="#d30007" d="M618 358l-108 64 360 292z"/><path fill="#a70000" d="M402 750l-48-316-24 164z"/><path fill="#cb0000" d="M414 554l20-168 44 288z"/><path fill="#fcffff" d="M382 1074l-44-332 72 172z"/><path fill="#f70000" d="M346 890l-64 196 88-132z"/><path fill="#d5f4ff" d="M490 870l-92-136 80 276z"/><path fill="#190000" d="M762 450L614 818l-4-288z"/><path fill="#d40000" d="M442 1086l-64-292 76 144z"/><path fill="#e9fbff" d="M326 746l-44 144-16-304z"/><path fill="#c3dfe9" d="M614 730l-40-172-4 120z"/><path fill="#fff" d="M342 866l-52 44-8 136z"/><path fill="#980000" d="M202 454L-2 802l264-172z"/><path fill="#455c7a" d="M454 306l72-192 372 144z"/><path fill="#060000" d="M302 70L446-38l88 172z"/><path fill="#f4a4b6" d="M722 546l96-60-44 88z"/><path fill="#386a88" d="M-62 1030l312 56-20-248z"/><path fill="#d90000" d="M294 918l-64-176 16 188z"/><path fill="#f00002" d="M314 678l36 172-48 16z"/><path fill="#180000" d="M386 290l32 116 364-80z"/><path fill="#031114" d="M190 370l-252-60 404-20z"/><path fill="#ff0013" d="M274 318L126 670l-80-92z"/></g></svg>