<svg xmlns="http://www.w3.org/2000/svg" width="228" height="278" viewBox="0 0 836 1024"><path fill="#2e3234" d="M0 0h836v1024H0z"/><g fill-opacity=".502"><path d="M658 418l-172 668-548-644z"/><path fill="#7e7270" d="M-62 458l612-328L-42-14z"/><path fill="#88878c" d="M538 146l316 708 44-400z"/><path fill="#486c71" d="M298 1082l-52-372-308 296z"/><path fill="#030307" d="M-62 842l272-536 372-28z"/><path fill="#6d6762" d="M898 986l-220 100-52-388z"/><path fill="#86898f" d="M102 202l152-8L94 494z"/><path fill="#000003" d="M530 662l184-112 120 304z"/><path fill="#000105" d="M242 890l416-48-284 244z"/><path fill="#5c3827" d="M554 90L150 46l288 256z"/><path fill="#aca7a5" d="M614 542l68 28 32-92z"/><path fill="#a59faf" d="M538 406l-48 52-12-108z"/><path fill="#757173" d="M678 186l4 192-244-200z"/><path fill="#020409" d="M570 586l100-176-160-192z"/><path fill="#000005" d="M578 702l76 264-128 120z"/><path fill="#4c6669" d="M42 1082l92-400-188 196z"/><path fill="#102329" d="M166-62l64 240L442 18z"/><path fill="#7e2612" d="M742 1086l-20-144 176-148z"/><path fill="#203439" d="M-14 702l176-252-164-80z"/><path fill="#10292d" d="M494 194l404-4L546 26z"/><path fill="#828085" d="M870 574l-180-52 200 268z"/><path fill="#33474c" d="M694 238l-4 292 208-328z"/><path fill="#aa5e42" d="M482 226l20-60-160 8z"/><path fill="#37626b" d="M766 862l-88-148-32 372z"/><path fill="#a46d59" d="M474 86l-32 56-120-64z"/><path fill="#080b0f" d="M506 426l-204 660-72-620z"/><path fill="#181b20" d="M214 450l56-232 432 416z"/><path fill="#050000" d="M470 22l16 64-160-36z"/><path fill="#aca289" d="M898 930l-48-20-80 132z"/><path fill="#767b82" d="M6 358l88 8-156-264z"/><path fill="#242e32" d="M198 1022l-60-316-32 380z"/><path fill="#25373b" d="M350 150l-8-192-180 184z"/><path fill="#436067" d="M670 726l-88 80 152 88z"/><path fill="#7e7f8b" d="M490 1022l12 64 48-124z"/><path fill="#1a1f25" d="M638 470l-36 400-192 32z"/><path fill="#09090a" d="M494 258L302 362h304z"/><path fill="#45444b" d="M898 506l-224-88-48 88z"/><path fill="#2d4548" d="M490 6l408 40-392 76z"/><path fill="#445e62" d="M150 734l132 352-28-352z"/><path fill="#bab5c4" d="M530 382l-36 44 36 4z"/></g></svg>