<svg xmlns="http://www.w3.org/2000/svg" width="228" height="278" viewBox="0 0 836 1024"><path fill="#836067" d="M0 0h836v1024H0z"/><path fill="#a0ceff" fill-opacity=".443" d="M611.323 383.59l-25.458-108.478L-39 590.455l26.33 477.607z"/><path fill="#b90100" fill-opacity=".655" d="M493.136 1086L118.222 850.376l163.364-69.805 389.502 150.358z"/><path fill="#d6e0e9" fill-opacity=".886" d="M77.724 462.183l-43.293-6.99 82.685-121.809 206.65-101.833z"/><path fill="#370700" fill-opacity=".325" d="M898-13.745l-3.341 117.504-484.447 275.63L-62 .188z"/><path fill="#e8ffff" fill-opacity=".486" d="M554.892 272.93l235.296 321.144-270.445-185.068 21.805-137.508z"/><path fill="#d5e0ec" fill-opacity=".71" d="M442.602 630.898l87.827 130.597-31.69 95.127-47.946-13.905z"/><path fill="#4a0b0a" fill-opacity=".851" d="M570.595 423.02l149.006 163.808-78.052-57.007-54.348 232.294z"/><path fill="#c9c1c9" d="M290.847 505.617l196.004-204.318-30.454 216.922-143.105-208.938z"/><path fill="#c4d0b3" fill-opacity=".561" d="M651.694 959.934L510.517 543.708l92.293 182.098 206.763 108.325z"/><path fill="#090008" fill-opacity=".467" d="M-62 529.43l204.91-104.405 41.928-62.227 59.67 173.928z"/><path fill="#3b4b7c" fill-opacity=".867" d="M-62 785.03l298.732 13.94-94.349 95.013L-62 890.523z"/><path fill="#d3e4ee" fill-opacity=".745" d="M241.063 255.842l-42.182 55.334 28.236 161.844 64.52-223.059z"/><path fill="#ccd2dc" fill-opacity=".816" d="M297.577 396.006l40.705-111.09-1.05 527.741 63.864-1.254z"/><path fill="#951112" fill-opacity=".816" d="M354.936 419.213l-4.565 100.389 49.842-1.377 7.094-108.927z"/><path fill="#9e1a1a" fill-opacity=".824" d="M508.999 1036.488l11.659-413.469 84.584 171.352-.537 251.116z"/><path fill="#932326" fill-opacity=".988" d="M323.444 237.283l-38.54 279.488-38.725-36.731 35.493-184.178z"/><path fill="#5c4f42" fill-opacity=".98" d="M817.385 493.488L604.11 710.498l130.55 28.341L898 967.86z"/><path fill="#bbeff8" fill-opacity=".439" d="M-62 776.868l91.955-225.34 138.994 7.676 59.65 209.359z"/><path fill="#6b0900" fill-opacity=".49" d="M405.502 158.42l-10.354 246.686 152.13-151.8-41.903 208.398z"/><path fill="#181700" fill-opacity=".502" d="M714.362 865.116l1.76 220.884 104.542-88.236L748.11 863.82z"/><path fill="#ffeaee" fill-opacity=".404" d="M624.585 295.408l-95 205.702 8.888-245.071L898 608.446z"/><path fill="#a01412" fill-opacity=".631" d="M410.758 1086H325.25l-58.492-458.936 38.194-8.93z"/><path fill="#8d0d10" fill-opacity=".788" d="M458.994 770.686l-55.428 132.512-24.03-279.411 34.405 25z"/><path fill="#e9fcfa" fill-opacity=".776" d="M799.445 819.672l-75.956-4.522 13.122 37.124 57.206 32.47z"/><path fill="#80935b" fill-opacity=".914" d="M739.383 600.153l33.947 15.836-45.526 245.813-86.144.845z"/><path fill="#564021" fill-opacity=".58" d="M208.797 867.443L48.782 1074.788l401.24-37.46-128.23-55.354z"/><path fill="#fbe9f9" fill-opacity=".627" d="M598.973 844.513l16.353 68.142 29.94-86.518.379-118.714z"/><path fill="#610000" fill-opacity=".631" d="M515.927 467.75l-55.765 31.514 3.744 23.3 69.208 5.908z"/><path fill="#4375a8" fill-opacity=".506" d="M139.06 460.927l341.164 206.675 105.99-168.635-383.51 147.117z"/><path fill="#480807" fill-opacity=".773" d="M189.217 457.626l27.868-110.167L87.34 461.22-62 593.326z"/><path fill="#c4d4d9" fill-opacity=".765" d="M773.512 524.45l36.64-18.636-83.25 71.264-86.065-83.17z"/><path fill="#a5b0fd" fill-opacity=".643" d="M895.606 907.11L802.967 1086l14.27-82.134-24.871-117.12z"/><path fill="#211b0d" fill-opacity=".702" d="M454.248 263.504l2.26 67.1-103.559 40.249-5.265-148.209z"/><path fill="#000612" fill-opacity=".569" d="M581.86-62L898 18.483 663.123 44.32l-84.097-9.342z"/><path fill="#d4e7ed" fill-opacity=".675" d="M467.836 412.395L414.122 559.75l-12.438-78.698 92.705-250.738z"/><path fill="#a10009" fill-opacity=".604" d="M715.588 472.29l-46.256-93.492-95.316-63.952 51.643 69.468z"/><path fill="#4c2a34" fill-opacity=".714" d="M93.363 263.126L-45.136 93.306l425.92-72.739L79.893-62z"/><path fill="#9f1a1d" fill-opacity=".804" d="M675.64 711.842l-46.992-104.82-48.952 36.302 13.572 95.155z"/><path fill="#701114" fill-opacity=".933" d="M530.2 617.918l54.743 237.52-18.954-27.172-85.271-183.974z"/><path fill="#a4a3f9" fill-opacity=".525" d="M54.833 871.148L-62 974.066-52.582 1086l150.195-54.258z"/><path fill="#4789fb" fill-opacity=".345" d="M719.84 1086l-18.155-196.568-63.86 44.255L618.735 1086z"/><path fill="#9ad3ff" fill-opacity=".42" d="M760.665 592.94L636.572 614.6l-2.195-84.84L761.608 651.3z"/><path fill="#ce0f08" fill-opacity=".353" d="M440.305 530.82L506.76 223.6l20.65 192.01-61.867 26.65z"/><path fill="#a6b1c1" fill-opacity=".808" d="M277.961 773.004l55.046-171.895 37.81 37.475-211.661 130.015z"/><path fill="#ffb5c6" fill-opacity=".145" d="M484.645 286.241L452.222 40.713 563.34 24.738l10.923 229.033z"/><path fill="#252024" fill-opacity=".643" d="M442.108 16.366L61.724-51.463-62 4.043l508.28 47.169z"/><path fill="#000b24" fill-opacity=".22" d="M657.688 339.477l225.92 85.679L756.97 1086 898 593.441z"/><path fill="#dce5ef" fill-opacity=".388" d="M501.716 866.452l-66.769-27.403 50.951-176.632 41.74 97.883z"/><path fill="#d7eff4" fill-opacity=".518" d="M291.935 533.578l43.847-290.563 18.552 150.681-7.278 139.165z"/><path fill="#b01e1f" fill-opacity=".886" d="M197.846 828.868l448.848 68.068-29.769 142.69-73.59 46.374z"/><path fill="#493032" fill-opacity=".537" d="M697.33 564.123l-52.387 342.124 3.486-158.958 96.459-46.302z"/><path fill="#3955b1" fill-opacity=".678" d="M235.886 705.43l-37.755 4.295 20.012-185.25 32.23 28.953z"/><path fill="#b0c8cf" fill-opacity=".62" d="M313.528 528.512l-125.666-74.959 50.358-74.11 16.97 174.344z"/><path fill="#1e1f0c" fill-opacity=".612" d="M39.958 444.308l26.354 71.67-108.064 96.802 2.796-152.461z"/><path fill="#7e4d53" fill-opacity=".741" d="M611.275 329.81L655.42 35.476 898 69.913 705.329 336.876z"/><path fill="#cfeaf6" fill-opacity=".318" d="M400.17 459.247l268.51-29.815-112.193-110.58 22.149 176.3z"/><path fill="#260a0f" fill-opacity=".282" d="M583.148 765.386l-190.615-33.162-71.154-3.441-24.238-42.299z"/><path fill="#5879ae" fill-opacity=".643" d="M573.786 605.634L74.643 493.183l32.171 12.251-82.87 42.557z"/><path fill="#835157" fill-opacity=".624" d="M329.085-62L81.59 406.539-62 357.6l372.65-114.268z"/><path fill="#34569a" fill-opacity=".384" d="M114.96 739.724l65.751 53.2-52.685 187.763L58.866 1086z"/><path fill="#1a0001" fill-opacity=".525" d="M622.879 620.611l8.311-147.864-63.443-49.756 25.06 145.07z"/><path fill="#808f9a" fill-opacity=".757" d="M558.354 566.025l28.325 103.933-184.29-131.353 34.563 152.026z"/><path fill="#bfece1" fill-opacity=".416" d="M471.89 122.178L453.405 13.297l28.197 37.684 3.422 25.183z"/><path fill="#1e1b0b" fill-opacity=".753" d="M476.187 128.326l-7.472 16.474-134.02-18.096 61.436-12.075z"/><path fill="#dfffff" fill-opacity=".369" d="M80.1 501.408l-47.208-72.61 180.04-118.04L87.07 466.74z"/><path fill="#3c455a" fill-opacity=".851" d="M32.736 877.017l-53.664 75.1L-62 821.21l249.397 22.89z"/><path fill="#d2b9cd" fill-opacity=".169" d="M160.295 133.91L-62-35.252V155.1L182.273 11.664z"/><path fill="#ebf3ff" fill-opacity=".663" d="M394.14 759.789l-18.427 55.88-35.841-38.694 48.245-48.467z"/><path fill="#8d0507" fill-opacity=".337" d="M768.658 538.908L590.64 344.472l180.856 148.953 22.527 11.699z"/><path fill="#6d0004" fill-opacity=".494" d="M390.036 775.71l-7.8 187.539-201.073 113.01 239.627-45.032z"/><path fill="#b1c3cb" fill-opacity=".596" d="M513.092 540.643l-155.5 26.623L503.188 409.78l-61.752 106.946z"/><path fill="#001e38" fill-opacity=".553" d="M851.224 744.933l-64.169 128.919 81.816 5.392-18.754-146.97z"/><path fill="#712d38" fill-opacity=".561" d="M243.525 30.898l-24.578 267.636L69.181-26.792 34.703 275.913z"/><path fill="#dde0f6" fill-opacity=".271" d="M745.045 458.963l-81.51 73.724 97.642 14.203-124.963-235.054z"/><path fill="#26536e" fill-opacity=".404" d="M517.114 632.397l74.863-145.045L401.801 616.17l6.951-64.525z"/><path fill="#4d3d2e" fill-opacity=".976" d="M782.163 537.998l-55.955 42.94L898 704.874l-142.858 5.497z"/><path fill="#470506" fill-opacity=".565" d="M379.576 684.136l-13.428-58.878 52.791 16.888 13.969 56.053z"/><path fill="#d7e3ec" fill-opacity=".82" d="M549.245 268.057l54.038 47.718-53.94 100.684-29.106-39.635z"/><path fill="#edffff" fill-opacity=".302" d="M811.517 832.514L668.374 905.53l29.116 65.87 36.624-175.562z"/><path fill="#31000b" fill-opacity=".341" d="M596.175 785.935l-66.423 8.963-82.126-13.636 163.687-8.686z"/><path fill="#def4fb" fill-opacity=".424" d="M799.766 485.908l74.77 126.777-17.607-29.349L752.794 443.71z"/><path fill="#b8afb8" fill-opacity=".914" d="M471.653 242.937l-13.275-10.998 34.842 13.228-6.416 62.425z"/><path fill="#a42123" fill-opacity=".624" d="M301.836 246.05l-56.052 175.786 69.177-74.405 25.054-139.213z"/><path fill="#ffe5fe" fill-opacity=".31" d="M641.75 761.307l-.586 148.738-38.99-125.931 70.77-121.75z"/><path fill="#fefff1" fill-opacity=".278" d="M292.77 533.859l-14.412 51.297 132.257 129.241-87.988-24.142z"/><path fill="#90b245" fill-opacity=".502" d="M760.794 740.1l-100.62-27.136 18.246 156.311 32.639 25.048z"/><path fill="#b0292d" fill-opacity=".557" d="M671.566 809.565l-29.514 101.133 18.713-263.306-22.139 15.187z"/><path fill="#4d0405" fill-opacity=".553" d="M294.57 615.553l41.606 116.723-3.182-1.036-58.347-117.256z"/><path fill="#d12a2d" fill-opacity=".506" d="M310.617 737.018l44.926 76.746-70.624 82.707-125.367-25.944z"/><path fill="#830406" fill-opacity=".388" d="M535.242 477.903l-81.206 4.94 58.748 39.91 9.166-117.4z"/><path fill="#dce5ea" fill-opacity=".651" d="M371.35 357.772l77.006 78.637 28.132-108.403-98.848 93.144z"/><path fill="#241c17" fill-opacity=".898" d="M798.27 1043.937l-27.347-85.196-54.58 21.084L807.08 1086z"/><path fill="#846a50" fill-opacity=".506" d="M252.586 1036.515l60.057-55.479-56.88-78.655-100.975-43.236z"/><path fill="#a30008" fill-opacity=".333" d="M554.779 260.718l-94.542 209.419 33.711-178.883 1.914-24.112z"/><path fill="#650000" fill-opacity=".153" d="M747.082 495.598l-53.976-328.606-416.655-29.58 489.164-43.285z"/><path fill="#7395ce" fill-opacity=".329" d="M739.475 591.7l33.55 19.536-21.954 87.285-77.441-117.006z"/><path fill="#b8bf71" fill-opacity=".306" d="M376.82 189.073l-60.159-63.168 137.52 59.081-38.163-62.723z"/><path fill="#8d1517" fill-opacity=".576" d="M665.076 740.294l-18.702-111.77-35.02 146.01-40.912-185.728z"/><path fill="#e1f8fc" fill-opacity=".373" d="M234.507 533.927l23.958-241.886L34.83 441.989 199.541 289.78z"/><path fill="#7f7ba3" d="M795.467 1086l-8.229-118.746 19.909 55.17 75.019-45.067z"/><path fill="#911317" fill-opacity=".627" d="M361.597 515.307l35.946 10.564-4.252-100.465-41.006-26.246z"/><path fill="#aa7a62" d="M566.65 861.154l-6.39-42.567-21.82 63.747 187.303-144.8z"/><path fill="#624938" d="M726.986 867.242l57.108 10.34 4.65 49.893-82.905 36.955z"/><path fill="#5a4531" fill-opacity=".82" d="M745.166 809.581l80.387-1.365L898 547.94l-118.445 28.2z"/><path fill="#c52b31" fill-opacity=".51" d="M592.39 353.277l130.62 80.542-64.81-72.83-64.605-33.404z"/><path fill="#4674ff" fill-opacity=".22" d="M134.922 754.952L-62 806.98l293.552 12.038 30.534-42.609z"/><path fill="#6e0002" fill-opacity=".443" d="M210.548 431.375l-11.423-75.755L61.941 485.509l44.824 5.874z"/><path fill="#affcc3" fill-opacity=".102" d="M491.313 120.275l-5.114-50.693L-62 41.379l387.768 60.842z"/><path fill="#9296a0" d="M495.643 688.22l-74.22-74.958 10.785 76.218 61.576 6.362z"/><path fill="#776664" fill-opacity=".671" d="M645.351 325.206l252.649.34-69.57-64.069-321.58-6.363z"/><path fill="#01402b" fill-opacity=".314" d="M726.11 737.9L712 626.46l-39.403-8.974-5.896 122.604z"/><path fill="#400e12" fill-opacity=".867" d="M590.847 484.182l110.985 103.904 15.017-6.55-139.155-116.44z"/><path fill="#dbdeea" fill-opacity=".733" d="M394.26 727.504l-23.505 91.788-34.288-31.752 7.046-48.128z"/><path fill="#8d99a4" fill-opacity=".804" d="M380.884 556.375l-42.159 82.612 229.381-27.328-305.94 4.95z"/><path fill="#a7bed0" fill-opacity=".353" d="M215.396 788.732L-62 729.691 46.71 531.08l160.896 24.491z"/><path fill="#a81a1c" fill-opacity=".886" d="M381.105 808.096l11.874-2.499 116.803 72.806L429.298 1086z"/><path fill="#843c41" fill-opacity=".62" d="M691.406 376.933l22.217-58.492 99.227 84.249-60.108 38.867z"/><path fill="#26321e" fill-opacity=".365" d="M461.442 239.783L337.519 167.97l5.77 164.514 130.475-12.778z"/><path fill="#a5bac5" fill-opacity=".784" d="M265.056 502.64l168.657 29.398-20.088 36.175-188.51-49.166z"/><path fill="#fff5fa" fill-opacity=".306" d="M804.324 483.996L589.757 300.751 823.9 518.894l-59.564-68.783z"/></svg>