<svg xmlns="http://www.w3.org/2000/svg" width="228" height="278" viewBox="0 0 836 1024"><path fill="#35435d" d="M0 0h836v1024H0z"/><g fill-opacity=".502"><path fill="#ffffd0" d="M-62 1042l308-68-292-544z"/><path fill="#0042b2" d="M686 1086l-96-812-556 92z"/><path fill="#3a1300" d="M898 14L10 390-30-62z"/><path fill="#f39f77" d="M698 1002l88-464 72 416z"/><path fill="#000743" d="M590 610L98 750l408 336z"/><path fill="#ee9c7c" d="M258 50L390-2 278 338z"/><path fill="#358cde" d="M-46 370l524 132-156-212z"/><path d="M-30 334l16-396 300 256z"/><path fill="#2f1b0f" d="M778 954L578 434l188 112z"/><path fill="#52381c" d="M354 346L322-42l576 232z"/><path fill="#ffddca" d="M86 886L6 658l68-96z"/><path d="M198 418l56 164-176 72z"/><path fill="#0455cd" d="M694 338l-240-92 316 316z"/><path fill="#3c3114" d="M882 774L662 290 842-62z"/><path fill="#a0d4ea" d="M-58 958l332-88-16 116z"/><path fill="#002254" d="M766 890L462 638 38 906z"/><path fill="#cdc8d3" d="M666 946l232-112-212 192z"/><path fill="#816643" d="M154 302L-46 782 6 342z"/><path fill="#165fb8" d="M254 814l364-484-392 116z"/><path fill="#209fff" d="M66 602l76-212 20 120z"/><path fill="#000f49" d="M370 498l424-72-296 184z"/><path fill="#a2afa8" d="M334 586l152-4-104 92z"/><path fill="#0861e1" d="M722 1086l-68-172-184 80z"/><path fill="#00144d" d="M518 514l-292 572 376-144z"/><path fill="#ffe0d2" d="M362 74l-64-36-48 72z"/><path fill="#000002" d="M522 102L870-30 406-62z"/><path fill="#024bc4" d="M674 950l-72-428-84 132z"/><path fill="#5b5030" d="M190 594l48 316L46 646z"/><path fill="#ffab9b" d="M46 606l16 268 92-12z"/><path fill="#f1875f" d="M470 262l-40 64-12-152z"/><path fill="#057996" d="M318 926l-380 120 360 40z"/><path fill="#6a493b" d="M806 950l-40-440-120 256z"/><path fill="#511800" d="M418 362L282 238 430 74z"/><path fill="#000841" d="M758 630l-96-236-160-80z"/><path fill="#3691f5" d="M686 330l-168-56-80 48z"/><path fill="#b6957a" d="M322-42L454 78l24-40z"/><path fill="#167af3" d="M314 846l148-108-104 40z"/><path d="M538 198L438 90l36 176z"/><path fill="#febdb0" d="M798 894l68 52-76-236z"/><path fill="#7f1c00" d="M54 910l56-72 44 64z"/></g></svg>