<svg xmlns="http://www.w3.org/2000/svg" width="228" height="278" viewBox="0 0 836 1024"><path fill="#35435d" d="M0 0h836v1024H0z"/><path fill="#dcd0b8" fill-opacity=".686" d="M-62 1086l362.093-158.34-138.847-50.013L15.964 504.244z"/><path fill="#3e1e00" fill-opacity=".545" d="M898-27.991L-46.718-62l27.465 390.843L898 224.853z"/><path fill="#005dd8" fill-opacity=".459" d="M88.896 447.113l210.77 328.22 386.775-465.01-508.486-9.199z"/><path fill="#f0ac93" fill-opacity=".553" d="M632.173 1028.534l156.565-196.22-21.963-327.815L896.4 952.73z"/><path fill="#f9a289" fill-opacity=".533" d="M301.756 18.59l-46.832 85.206 32.05 222.617 67.001-260.04z"/><path fill="#00256c" fill-opacity=".757" d="M231.331 851.324L288.8 1086l393.665-18.923-6.631-757.5z"/><path fill="#0d1b38" fill-opacity=".992" d="M217.64 414.81l36.669 448.374-66.205-276.594-117.721 79.94z"/><path fill="#000005" fill-opacity=".522" d="M193.038-34.38L-26.115-62-62 353.296l357.93-149.305z"/><path fill="#2079ff" fill-opacity=".329" d="M654.647 843.516L740.9 998.802 548.576 1086l46.87-620.229z"/><path fill="#4f2700" fill-opacity=".506" d="M659.826 756.319L786.3 762.22l-10.407-167.799L603 444.086z"/><path fill="#2e95ff" fill-opacity=".384" d="M324.422 291.877L453.23 494.732l-344.219-65.54 33.652-95.885z"/><path fill="#886256" d="M47.22 906.253l133.947-134.818-25.183 135.759-71.475 9.59z"/><path fill="#783d1f" fill-opacity=".549" d="M231.128 184.409l154.764 177.495 76.484-45.718L457.508-62z"/><path fill="#ffc5bf" fill-opacity=".486" d="M190.502 825.366L41.18 873.183l65.665-361.262-113.04 202.424z"/><path fill="#3b3b38" fill-opacity=".988" d="M848.215-22.196l20.725 757.54-301.113-613.94L898-25.288z"/><path fill="#64fbff" fill-opacity=".282" d="M315.972 961.442L-18.048 1086-62 950.648l327.466-68.162z"/><path fill="#3186ff" fill-opacity=".447" d="M665.606 319.185l99.346 221.904-133.018-178.853L372.567 235.42z"/><path fill="#000c36" fill-opacity=".51" d="M474.282 602.696l118.207 199.54 32.104 118.186L295.381 1086z"/><path fill="#bcc6ba" fill-opacity=".4" d="M349.847 586.978l152.423-3.345-118.854 89.115-59.098-92.71z"/><path fill="#226ec6" fill-opacity=".906" d="M180.713 333.35L61.647 595.14l29.854 13.14 49.277-84.36z"/><path fill="#030708" fill-opacity=".639" d="M511.943 236.308L466.228-62 800.33 15.485 372.285 119.588z"/><path fill="#000119" fill-opacity=".549" d="M313.213 247.91l100.734 94.557 205.427-14.23-211.737 57.643z"/><path fill="#826b50" fill-opacity=".431" d="M166.992 320.783L-62 350.135l1.994 489.511 142.003-352.2z"/><path fill="#fcf9fb" fill-opacity=".263" d="M798.017 829.428l71.515 61.63-319.406 77.57 198.628 13.648z"/><path fill="#ffd3c6" fill-opacity=".435" d="M369.501 82.702L246.46 121.475l9.963-2.563 25.033-86.514z"/><path fill="#ff814b" fill-opacity=".259" d="M754.74 494.928l51.7 120.93 38.639 408.066-97.084-259.7z"/><path fill="#00061f" fill-opacity=".663" d="M612.668 562.157l4.634-96.129 53.211-23.949 84.966 174.085z"/><path fill="#3b2000" fill-opacity=".278" d="M86.282 726.386L62.047 605.735l187.448-130.577-63.075 373.825z"/><path fill="#571300" fill-opacity=".443" d="M657.1 1086l138.975-136.029-7.776-62.958 100.631 118.305z"/><path fill="#a56a53" fill-opacity=".867" d="M479.362 276.09L425.9 318.192l-5.665-86.273 13.001-25.637z"/><path fill="#2e2a25" fill-opacity=".675" d="M723.407 443.542l79.365 142.667 45.396 420.909 36.43-703.938z"/><path fill="#478cd6" fill-opacity=".718" d="M231.332 458.91l297.03-60.055 6.683 52.747-309.332-45.751z"/><path fill="#000027" fill-opacity=".443" d="M197.496 392.784l-46.466 30.612 91.892 241.855-7.959-171.11z"/><path fill="#009560" fill-opacity=".533" d="M53.404 997.247l-18.27 37.285L350.548 1086l-190.684-95.904z"/><path fill="#021840" fill-opacity=".91" d="M471.026 722.308L215.931 837.225l197.826-178.98 36.899.797z"/><path fill="#f0b3b6" fill-opacity=".137" d="M481.713 63.488l-47.236-75.172-319.893 94.648 2.474 52.334z"/><path fill="#ffcfc0" fill-opacity=".604" d="M99.986 762.955L62.298 865.583 20.45 631.609-62 426.804z"/><path fill="#170005" fill-opacity=".353" d="M812.498 815.95l-53.769 87.678-107.61-39.39-7.45-47.846z"/><path fill="#3b1d0b" fill-opacity=".694" d="M422.668 337.256L409.871 36.533 333.238 288.5l39.045 60.995z"/><path fill="#454540" fill-opacity=".992" d="M524.974 277.142l243.483 70.388-13.758-226.227-233.134 2.4z"/><path fill="#ffd0c2" fill-opacity=".22" d="M321.693 287.952l-37.281-142.113 65.59.923-132.879 182.215z"/><path fill="#000133" fill-opacity=".294" d="M573.712 559.819l-348.831 23.816 145.969-83.71 72.27-19.188z"/><path fill="#000d27" fill-opacity=".545" d="M484.383 996.263l-116.096-82.66L143.52 660.768l240.326 373.653z"/><path fill="#0c54ae" fill-opacity=".522" d="M463.782 719.515l-92.368 155.617 102.088-80.113-210.677 61.716z"/><path fill="#003ca9" fill-opacity=".533" d="M714.633 556.365l-66.24-159.443 34.72-61.896 76.605 192.408z"/><path fill="#0452c7" fill-opacity=".478" d="M612.782 752.756l10.233-210.178-49.743 7.27-52.162 114.171z"/><path fill="#57564e" fill-opacity=".624" d="M643.02 660.187l92.735-41.11 36.039 234.664L668.74 809z"/><path fill="#237cff" fill-opacity=".475" d="M233.528 891.068l31.335-25.365 15.81 141.993-23.705 34.238z"/><path fill="#165fc6" fill-opacity=".635" d="M467.688 1086h283.918l-123.1-150.993-97.676 41.219z"/><path fill="#b4c7c2" fill-opacity=".949" d="M22.217 894.323l67.85 22.952 164.037 26.78L-62 998.812z"/><path fill="#011132" fill-opacity=".898" d="M532.76 727.174l-4.45-34.213-215.033 169.642-61.429 63.564z"/><path fill="#003995" fill-opacity=".569" d="M343.622 571.386L234.67 927.385l17.419-204.327-65.084-3.506z"/><path fill="#4b0b00" fill-opacity=".451" d="M186.648 918.619l-114.36-14.117-17.713-26.578 63.163 6.318z"/><path fill="#69685a" fill-opacity=".424" d="M103.472 686.31l60.537 7.775 46.394-37.21-16.268-123.46z"/><path fill="#fbd0c0" fill-opacity=".353" d="M809.026 711.902L785.66 522.63l10.43 365.938 34.793 35.523z"/><path fill="#4e4b42" fill-opacity=".722" d="M-58.803 348.505L52.394 377.42 230.1 307.98l96.386-63.024z"/><path fill="#678b71" fill-opacity=".471" d="M-62 489.872l105.606 280.58 3.025 77.19-39.849 79.756z"/><path fill="#cfa399" fill-opacity=".675" d="M258.735 196.723l-8.558-6.5 37.554-150.538-11.041 86.058z"/><path fill="#00144d" fill-opacity=".596" d="M70.506 579.85L22.278 601.1l104.236-157.014-19.114 37.87z"/><path fill="#5b7796" fill-opacity=".808" d="M337.229 606.848l102.003 47.578 28.439-50.377-69.502-58.692z"/><path fill="#167d54" fill-opacity=".498" d="M137.54 890.868l84.087 14.212-46.068-135.463-8.901 77.254z"/><path fill="#2987f5" fill-opacity=".333" d="M493.416 265.17l190.15 64.515-173.08-2.938-82.157 21.196z"/><path fill="#ff745f" fill-opacity=".29" d="M35.942 898.129l123.3-48.637L50.07 582.868l41.932 220.823z"/><path fill="#015ac3" fill-opacity=".412" d="M457.428 454.996L247.734 565.752 234.17 460.73l319.177-110.897z"/><path fill="#0a0d0f" fill-opacity=".992" d="M-62 340.696L239.249 192.3l27.592-60.171-218.1 14.372z"/><path fill="#000c4a" fill-opacity=".478" d="M444.896 379.119l-15.1 34.293-93.87-38.013 217.053-53.086z"/><path fill="#090b10" fill-opacity=".624" d="M717.636-62l-169.51 168.052L427.392 4.176 69.336 18.847z"/><path fill="#ffefbd" fill-opacity=".216" d="M456.656 85.672L381.957-62l-249.871 3.863 352.31 105.286z"/><path fill="#e0f2ff" fill-opacity=".318" d="M222.126 458.082l-15.353-17.056 87.362-2.639 3.387 9.647z"/><path fill="#0447c2" fill-opacity=".369" d="M475.22 891.837l98.929-3.45 154.533 21.293-142.506-64.343z"/><path fill="#ffd6c5" fill-opacity=".604" d="M93.087 865.624l-67.69-280.233 48.858 20.27-52.998 82.512z"/><path fill="#053688" fill-opacity=".706" d="M610.56 509.81l-283.688 63.514 218.255-130.96 58.396-122.052z"/><path fill="#170b02" fill-opacity=".376" d="M629.754 485.166l-11.894 214.33 31.043-87.47 137.615-20.658z"/><path fill="#4a91de" fill-opacity=".533" d="M159.715 389.884L88.593 569.416l60.61-225.406 94.475-44.404z"/><path fill="#000301" fill-opacity=".463" d="M173.063 1039.576l297.029-47.947L296.042 1086l-63.188-92.028z"/><path fill="#000315" fill-opacity=".349" d="M259.393 690.013l127.412-48.121-258.552 122.591 117.554 22.199z"/><path fill="#381e1e" fill-opacity=".549" d="M216.235 99.065L131.642-62 593.52 157.788 329.25 8.026z"/><path fill="#abf0fd" fill-opacity=".243" d="M790.634 959.154l-73.948-68.028-10.643-14.092 21.617 110.188z"/><path fill="#000b43" fill-opacity=".537" d="M202.192 462.862L71.755 616.434l43.893 2.676 47.084-3.807z"/><path fill="#68321e" fill-opacity=".843" d="M251.528 227.973l199.913-25.147-5.363-74.035-100.966 126.137z"/><path fill="#84c3ff" fill-opacity=".263" d="M582.033 429.909l-79.201-16.956-28.17 62.806-160.49 29.521z"/><path fill="#001952" fill-opacity=".749" d="M664.875 470.824l66.507-5.92-147.848-57.088 43.377-53.361z"/><path fill-opacity=".169" d="M39.53 690.26l150.38-150 275.6-40.222-250.026-19.307z"/><path fill="#ffe5d9" fill-opacity=".255" d="M791.541 576.72l23.662 162.573-22.217-111.735-78.717-197.7z"/><path fill="#4d1405" fill-opacity=".282" d="M755.911 796.007l42.134-130.502-84.256-132.252L811.646 884.1z"/><path fill="#45443f" fill-opacity=".608" d="M827.861 435.644L898 860.37l-120.88-47.002 39.7.494z"/><path fill="#0f0700" fill-opacity=".635" d="M507.109 262.157l-43.305-14.945 47.302-93.524 9.405 57.53z"/><path fill="#1c8afd" fill-opacity=".267" d="M261.965 864.79l251.87-166.916L324.3 845.955l-2.574-3.967z"/><path fill="#f4c4c6" fill-opacity=".651" d="M817.183 870.389l78.47 68.043-79.79-17.816-24.39-49.214z"/><path fill="#0b3890" fill-opacity=".659" d="M470.627 1007.075l208.414 14.572-206.5-66.17 128.65-70.687z"/><path fill="#ffc5b7" fill-opacity=".459" d="M289.277 154.11l40.47-1.957-15.257 32.863-17.84-6.562z"/><path fill="#0d1d50" fill-opacity=".749" d="M500.706 950.632l203.089-17.636 12.304-23.71-59.113 19.435z"/><path fill="#000926" fill-opacity=".467" d="M495.445 538.494L448.98 673.959 242.653 817.301l329.786-267.57z"/><path fill="#217cdf" fill-opacity=".478" d="M256.24 658.969l49.968-4.12-85.67 63.378 65.313-134.83z"/><path fill="#ffded6" fill-opacity=".514" d="M258.197 123.516L316.08 59.32l-36.726 4.514-13.107 24.746z"/><path fill="#046cf5" fill-opacity=".176" d="M351.744 855.755l76.978 76.448-79.67-12.411 146.125-146.183z"/><path fill="#947e85" fill-opacity=".624" d="M-62 867.795L39.923 785.36l-76.87-254.179 97.913-4.108z"/><path fill="#7c644a" fill-opacity=".78" d="M528.614 236.339l5.906-98.685-33.971 6.755 60.668 53.131z"/><path fill="#8da6a0" fill-opacity=".522" d="M250.622 915.782l-128.647-38.366 126.438 96.894-145.785 40.153z"/><path fill="#6eb4f4" fill-opacity=".408" d="M333.71 332.34l11.092-37.02-193.568 52.416 121.88-55.179z"/><path fill="#02143b" fill-opacity=".808" d="M724.882 514.168l-165.77-70.556-12.717-20.543 152.729 68.658z"/><path fill="#003fa6" fill-opacity=".631" d="M250.847 957.275l50.364-15.207 63.36 1.457-105.59 58.569z"/><path fill="#451905" fill-opacity=".259" d="M329.814 124.908L301.282-62l61.161 209.572-278.596 1.385z"/><path fill="#093698" fill-opacity=".718" d="M102.107 521.405l7.477-123.871 68.038-35.308-43.16-2.86z"/><path fill="#042a6e" fill-opacity=".875" d="M441.306 695.992L234.81 748.37l151.827-70.837-34.765 76.035z"/><path fill="#4e5f5a" fill-opacity=".867" d="M112.71 773l89.063 12.274 27.827 38.964-26.64 18.167z"/><path fill="#030004" fill-opacity=".396" d="M96.546 521.929l15.414-21.959-31.4-11.889-36.377 104.215z"/><path fill="#001629" fill-opacity=".373" d="M174.748 878.875L279.554 756.56l-121.877-50.988 112.052 160.35z"/><path fill="#7d594a" fill-opacity=".71" d="M786.171 795.15l-83.698-210.796-2.433 18.218 41.317 139.99z"/><path fill="#000120" fill-opacity=".506" d="M349.974 513.247l72.68-2.767 66.87-21.59-28.5-4.667z"/><path fill="#441a0a" fill-opacity=".608" d="M125.403 895.429l-12.392 17.846-42.04-1.692 50.154-53.221z"/><path fill="#00095e" fill-opacity=".478" d="M706.765 931.559l12.309-55.147-49.89-80.869-39.654 29.066z"/><path fill="#88cdfe" fill-opacity=".22" d="M689.082 358.678l11.332 40.768-48.195-91.166-166.693-27.975z"/><path fill="#abb4d2" fill-opacity=".263" d="M228.695 1001.9l40.98-134.674-131.384 45.688 120.662 70.026z"/><path fill="#48a0fb" fill-opacity=".169" d="M326.412 599.09l-100.949 26.447L507.18 497.656l-144.284 24.61z"/><path fill="#053dad" fill-opacity=".4" d="M593.521 796.213l-80.515 57.305L644.966 674.6l18.737 320.893z"/><path fill="#0048c9" fill-opacity=".294" d="M356.249 719.122l-5.778-87.263-93.032 97.075 7.82 57.937z"/><path fill="#8197b1" fill-opacity=".651" d="M389.906 624.47l39.554-3.537-102.82-30.132 56.573 77.415z"/><path fill="#0941a5" fill-opacity=".62" d="M191.23 355.978l-38.24 71.991-16.334-50.09 109.353 124.79z"/><path fill="#1d92ff" fill-opacity=".322" d="M574.544 398.365l-21.026-22.266-142.005-6.817 129.603 24.564z"/></svg>