<svg xmlns="http://www.w3.org/2000/svg" width="228" height="278" viewBox="0 0 836 1024"><path fill="#6e603a" d="M0 0h836v1024H0z"/><g fill-opacity=".502"><path fill="#ffe819" d="M578 1086H70l332-944z"/><path fill="#00000a" d="M-62 14L50 546 666-62z"/><path fill="#000853" d="M898 942l-396-32L774-62z"/><path fill="#fbdf49" d="M74 574l296-336 300 288z"/><path fill="#4f68a5" d="M582 650l316-160L618 50z"/><path fill="#ffee3b" d="M478 430l36 412 116-504z"/><path fill="#000014" d="M-62 518l528-324L-26 2z"/><path fill="#dda1a2" d="M-62 1034l196-548-24 436z"/><path fill="#704b00" d="M582 582l-444 64 216-200z"/><path fill="#441516" d="M898 14L670-58l24 652z"/><path fill="#fde76e" d="M702 946l-384 140-84-180z"/><path fill="#070000" d="M898 794l-368-92 4 244z"/><path fill="#f9fdd6" d="M258 474l28-180-92 140z"/><path d="M130 730l80-48-92 232z"/><path fill="#b8d6f9" d="M566 366l80-256 36 88z"/><path fill="#170610" d="M542 410L410 234l208-8z"/><path fill="#9ea1d6" d="M870 1010l28-80-316 12z"/><path fill="#e8ffff" d="M898 466V310l-128 80z"/><path fill="#ffff89" d="M622 390l-56-72 24 232z"/><path fill="#a1706d" d="M118 802l68-252-248-164z"/><path fill="#000414" d="M898 194L874-62 614 74z"/><path fill="#a15e4e" d="M814 230l-96 108-12-328z"/><path fill="#e8b920" d="M194 1086l208-584 168 584z"/><path fill="#00368d" d="M694 278l-52 344-40-348z"/><path fill="#693432" d="M682 462l108 248-100 376z"/><path fill="#0d0a0f" d="M294 266l-136-8L22 686z"/><path fill="#0d52ae" d="M742 370l8 360 148-252z"/><path d="M898 494l-64 440-120-20z"/><path fill="#9eadec" d="M714 982l-184-60 4 56z"/><path fill="#8e7a7b" d="M870 690l-276-64-56 76z"/><path fill="#eee874" d="M226 358l192-128-272 312z"/><path fill="#213648" d="M46 594L34 894l-84-24z"/><path fill="#bb746a" d="M418 154L518 54l144 64z"/><path fill="#f5c754" d="M238 710l-84 376-52-144z"/><path fill="#261e09" d="M258 726l-8-124 52-96z"/><path fill="#1e1a16" d="M198 970l40-108 8 112z"/><path fill="#040b12" d="M470-54l-72 284-296 216z"/><path fill="#201f49" d="M586 1086l312-84-324-24z"/><path fill="#f1de1d" d="M234 594l-100-88 168-60z"/><path fill="#002368" d="M594 626l24-184 88 236z"/></g></svg>