<svg xmlns="http://www.w3.org/2000/svg" width="228" height="278" viewBox="0 0 836 1024"><path fill="#545e80" d="M0 0h836v1024H0z"/><path fill="#c7baa7" fill-opacity=".643" d="M895.344 326.46l-101.512 751.086-153.301-200.768 74.58-490.465z"/><path fill="#2c231e" fill-opacity=".737" d="M759.14 10.942l-391.644 264.58 292.944 69.484L898 51.91z"/><path fill="#0a0702" fill-opacity=".612" d="M-32.78-31.524l368.253-4.57-44.019 234.338L-62 171.929z"/><path fill="#ebeed7" fill-opacity=".545" d="M-62 508.676V381.608l291.79-11.885-80.502 148.552z"/><path fill="#ffab46" fill-opacity=".325" d="M389.648 482.619l141.94-369.54L843.48-26.603 288.258 60.191z"/><path fill="#0034c8" fill-opacity=".42" d="M642.079 1024.579L268.439 1086l-73.713-700.223 468.422-63.715z"/><path fill="#dab59d" fill-opacity=".525" d="M106.667 911.466L163.413 1086l-214.505-3.968 249.69-573.297z"/><path fill="#1a0303" fill-opacity=".251" d="M839.874 946.223L699.882 466.641 595.67 440.32l-84.213 124.27z"/><path fill="#e4f1fd" fill-opacity=".718" d="M418.41 469.256l-21.69 29.514-20.874-111.862 44.36-16.103z"/><path fill="#d6d9d9" fill-opacity=".459" d="M866.2 386.063l-186.75-34.841 99.353 378.126L898 898.02z"/><path fill="#d8f5ff" fill-opacity=".514" d="M650.347 663.94L651.74 1086l45.234-282.81-19.341-85.8z"/><path fill="#171000" fill-opacity=".349" d="M462.796 263.588l-198.537-27.432L-.953 344.797l243.51 14.38z"/><path fill="#211d1a" fill-opacity=".396" d="M568.934 339.36L381.71-62l205.726 227.932L898 343.704z"/><path fill="#4f3303" fill-opacity=".416" d="M275.375 628.455l-11.154-4.166-138.202 126.992-46.498 264.38z"/><path fill="#e0e7ea" fill-opacity=".631" d="M236.834 630.849l-.085-32.547-71.812-13.922-36.894 24.23z"/><path fill="#ffc0ad" fill-opacity=".392" d="M365.764 157.176l52.408-111.66-110.664 15.336 37.433 320.972z"/><path fill="#f5d262" fill-opacity=".196" d="M-2.526 198.075L-62 323.47l328.022-74.37-136.551-147.667z"/><path fill="#4c8dc5" fill-opacity=".502" d="M249.583 1023.099L139.296 1086l-11.89-134.153 163.81-351.698z"/><path fill="#fec882" fill-opacity=".329" d="M898 285.094l-177.288-16.99 32.782-89.95 93.894 21.018z"/><path fill="#92755f" fill-opacity=".792" d="M732.366 578.571l-94.612 6.887 118.022 431.903 63.728 19.369z"/><path fill="#6e6483" fill-opacity=".69" d="M528.98 677.043l-275.33 34.425 62.545-104.183 181.123-1.567z"/><path fill="#251b10" fill-opacity=".424" d="M301.543 359.931l8.067-294.314 314.372-56.94-521.78-68.661z"/><path fill="#315cba" fill-opacity=".871" d="M343.9 560.519l-194.967 20.64 34.095-147.837L332.264 313.54z"/><path fill="#1b46b6" fill-opacity=".545" d="M468.749 264.054l240.116 329.538 2.955-119.028 25.286-23.18z"/><path fill="#5981ab" fill-opacity=".647" d="M898 1000.292L627.965 888.148 689.427 1086 898 654.439z"/><path fill="#9a8f97" d="M810.672 545.413L631.64 323.566l95.29 150.4 20.884 179.796z"/><path fill="#000865" fill-opacity=".255" d="M438.886 673.315l15.564 241.86 193.099-16.901-5.097-465.06z"/><path fill="#0977b9" fill-opacity=".298" d="M47.35 908.115L-3.96 1086-62 537.873l224.095 13.646z"/><path fill="#ffb984" fill-opacity=".255" d="M5.315 1082.537l216.004-439.823-83.49-2.69-58.29 141.473z"/><path fill="#ad826c" fill-opacity=".769" d="M394.95 387.009l-60.541-48.767 167.959-22.955-23.957-72.092z"/><path fill="#a9a494" fill-opacity=".553" d="M436.611 635.149L524.081 541l-52.675-69.068 91.603 8.813z"/><path fill="#010a38" fill-opacity=".49" d="M231.153 514l12.2 85.414-71.344-63.37 153.854-82.217z"/><path fill="#e4f6fe" fill-opacity=".4" d="M769.335 641.721l39.368 235.847-8.928-46.567L898 545.288z"/><path fill="#0c64ff" fill-opacity=".161" d="M293.893 1005.45l-43.997-225.401 25.19-104.387 477.518 317.742z"/><path fill="#ff4535" fill-opacity=".553" d="M302.575 707.227L289.42 656.94l35.887-52.114-21.691 116.428z"/><path fill="#0c1635" fill-opacity=".647" d="M625.19 506.015l27.412 272.79 3.201 25.498-75.725-302.858z"/><path fill="#5d5444" fill-opacity=".631" d="M524.302 167.766L774.47-62 898 63.934 796.354 28.142z"/><path fill="#a2a1b0" fill-opacity=".992" d="M754.24 554.504L898 647.574l-123.34-85.066-174.624 42.83z"/><path fill="#3b3743" fill-opacity=".682" d="M209.892 153.177L126.044 70.65l-152.43 116.787 111.154 25.55z"/><path fill="#1e1608" fill-opacity=".298" d="M379.553 268.998l-217.24-127.235 269.171 184.364 45.855-164.423z"/><path fill="#080700" fill-opacity=".251" d="M123.047 763.075l78.544 17.435 82.74-175.25-59.354 36.86z"/><path fill="#7d5b4a" fill-opacity=".992" d="M344.405 107.05l-18.734 34.71 150.943-60.328-69.006 56.6z"/><path fill="#e9f3ea" fill-opacity=".216" d="M50.59 437.593l212.505-71.435-72.763 62.345-33.32 132.519z"/><path fill="#13181f" fill-opacity=".49" d="M842.935 211.325l-12.069 127.503L898 119.84 683.008-40.707z"/><path fill="#d1dee6" fill-opacity=".475" d="M641.43 671.825l42.944 58.496 17.45 78.396-8.764 133.604z"/><path fill="#2449ae" fill-opacity=".686" d="M456.095 446.842l243.544-34.21L512.47 286.15l-70.166 66.22z"/><path fill="#ffcbc2" fill-opacity=".275" d="M485.976 79.271l-191.473 38.955 54.023-82.094 8.45 8.788z"/><path fill="#604938" fill-opacity=".6" d="M638.343 644.984l-8.084-36.45 79.014 83.215 4.78 112.034z"/><path fill="#a6adc5" fill-opacity=".537" d="M288.92 486.106l47.853-7.398.872 40.132-43.384 10.104z"/><path fill="#ffeba5" fill-opacity=".129" d="M254.191 330.37l-26.573-172.556L-62 362.82-.497 206.69z"/><path fill="#564e4c" fill-opacity=".549" d="M653.033 362.904l-33.941-26.48 97.885-115.442 131.333 80.636z"/><path fill="#140f06" fill-opacity=".545" d="M497.974 121.534L425.612 16.87l-42.413 10.798 109.013 30.467z"/><path fill="#e6f3fe" fill-opacity=".576" d="M386.446 397.663l26.613-11.56.143 83.671-28.953 17.306z"/><path fill="#2f557f" fill-opacity=".78" d="M66.72 519.696L-62 621.744l181.785 42.622 34.5-75.772z"/><path fill="#223d8e" fill-opacity=".988" d="M647.67 584.303l83.64-22.781-9.376-8.995-78.58-153.234z"/><path fill="#587da9" fill-opacity=".894" d="M810.298 1086h21.653L898 684.874l-98.874 147.941z"/><path fill="#2343a2" d="M236.953 1037.319l379.372-382.944-18.692 151.051-355.541 187.72z"/><path fill="#a48067" fill-opacity=".706" d="M738.486 912.75l3.48 173.25 55.32-62.687 4.582-154.937z"/><path fill="#ea4742" fill-opacity=".576" d="M308.678 622.572l-21.238 68.12 55.715 14.417-36.789-47.662z"/><path fill="#2b313d" fill-opacity=".863" d="M335.727 303.537L303.534 124.3 309.132-62l-38.256 414.938z"/><path fill="#063760" fill-opacity=".369" d="M198.742 342.53l-175.2 17.53 29.84-40.439 19.62-75.707z"/><path fill="#a66f51" fill-opacity=".451" d="M588.425 76.732l14.47 43.514-251.628 40.537 10.696 113.721z"/><path fill="#6287ae" fill-opacity=".843" d="M756.602 1080.453L633.694 1086l52.012-189.701 31.224-15.634z"/><path fill="#2642a0" fill-opacity=".898" d="M337.87 617.278l4.613-136.993 73.314 2.888 142.768 52.339z"/><path fill="#071652" fill-opacity=".573" d="M261.951 901.474l-18.255-7.53 21.44-17.536 91.77-6.103z"/><path fill="#1a1c2c" fill-opacity=".643" d="M633.538 350.773l-6.75-199.758-153.17 52.235 67.911 107.354z"/><path fill="#b0deff" fill-opacity=".129" d="M107.112 766.617L-62 724.184-15.117 1086 56.57 941.15z"/><path fill="#08114c" fill-opacity=".506" d="M417.978 358.688l79.887 13.447 22.357-60.117-70.745 90.249z"/><path fill="#83897c" fill-opacity=".482" d="M-23.864 371.845l319.015-25.44-84.12 46.467-272.84-.256z"/><path fill="#ffc7a1" fill-opacity=".286" d="M383.878 419.29l-8.299-130.328-34.819-7.857-3.048 49.5z"/><path fill="#ffbf8c" fill-opacity=".243" d="M243.928 653.484l-59.967 54.988-21.588 15.203-24.333-87.404z"/><path fill="#dcf5ed" fill-opacity=".208" d="M832.948 508.634L898 421.45l-152.157-20.402-186.33-77.056z"/><path fill="#5f5a4e" fill-opacity=".435" d="M148.406 893.583l57.421-74.564-116.39-4.088-3.713 91.849z"/><path fill="#7e8f9d" fill-opacity=".624" d="M161.143 512.711L-62 548.584v-41.527l183.336-18.938z"/><path fill="#faa288" fill-opacity=".384" d="M33.626 1086L48.69 901.238l90.823 127.254-34.624-99.233z"/><path fill="#738c74" fill-opacity=".263" d="M717.055 50.466L636.785-4.53 455.56 19.666l112.37 146.498z"/><path fill="#694638" fill-opacity=".431" d="M264.929 184.898l-52.003.043 9.956 161.843 57.684 13.457z"/><path fill="#bfd5fc" fill-opacity=".431" d="M702.28 464.128l42.367 80.943-17.944 43.481-12.272-64.249z"/><path fill="#c5d098" fill-opacity=".212" d="M528.8 691.47l-124.873 2.356 117.392-44.367 11.111-70.2z"/><path fill="#001b3d" fill-opacity=".424" d="M-62-16.238v318.436L75.557 62.04l311.5-59.084z"/><path fill="#2d60cc" fill-opacity=".565" d="M152.276 518.249l235.265-98.701-56.189-82.276-134.607 78.14z"/><path fill="#5b191a" fill-opacity=".576" d="M355.161 209.187l-7.988-7.325 52.814-11.276-3.394 23.151z"/><path fill="#ddedd7" fill-opacity=".224" d="M-62 282.431v-99.257l104.462 64.19-18.956 88.277z"/><path fill="#101a61" fill-opacity=".471" d="M553.833 830.07l33.742-40.836-52.937 93.107-117.29 62.513z"/><path fill="#675f52" fill-opacity=".627" d="M719.088 905.041L704.97 851.04l98.068 49.733-23.534-90.462z"/><path fill="#0d1e62" fill-opacity=".6" d="M413.601 830.033l70.308-54.21 113.254-138.266-73.304 63.422z"/><path fill="#fbe69c" fill-opacity=".153" d="M467.265 454.054l95.118 30.5-112.705 144.52 110.926-188.663z"/><path fill="#99725f" fill-opacity=".671" d="M478.172 159.858l46.166-20.09-130.642 227.204 91.124-46.124z"/><path fill="#5095fd" fill-opacity=".22" d="M230.161 826.549l156.416-196.782-142.412 242.734 175.989-126.425z"/><path fill="#00020e" fill-opacity=".235" d="M283.004 642.108l-101.794-22.73 91.977 62.595-133.584 107.17z"/><path fill="#b18d71" fill-opacity=".494" d="M719.65 775.45l11.447 103.454 50.28-157.976-63.247-135.985z"/><path fill="#305bba" fill-opacity=".741" d="M610.675 350.674l40.665 13.585 61.58 74.154-15.61 54.203z"/><path fill="#ffe5c4" fill-opacity=".157" d="M801.356 162.918l-36.543 10.38 94.6 65.724-99.897 44.493z"/><path fill="#3258c3" fill-opacity=".51" d="M124.804 636.86l15.675-26.134 80.25 20.02-9.03 12.16z"/><path fill="#02112d" fill-opacity=".243" d="M784.069 105.224L849.209-.994 898 157.393l-464.546 7.887z"/><path fill="#2f63c7" fill-opacity=".596" d="M290.732 724.045l-14.272-8.772 32.595-192.32-74.685-8.851z"/><path fill="#5e82aa" fill-opacity=".631" d="M205.003 1086l58.399-289.313-144.297 279.317-53.313-112.878z"/><path fill="#2244ac" fill-opacity=".596" d="M649.984 848.517l-40.852 9.539L441.754 1086l207.474-66.635z"/><path fill="#d9aa94" fill-opacity=".667" d="M336.856 138.4l35.532 127.543-53.163-79.383-8.103-19.386z"/><path fill="#f8b7a0" fill-opacity=".275" d="M419.25 213.29l-50.71-89.57-62.53 58.705 124.28-54.368z"/><path fill="#01042a" fill-opacity=".365" d="M295.114 466.414L237.9 521.777l-19.152 34.991-2.423-43.192z"/><path fill="#dccb8f" fill-opacity=".463" d="M525.929 950.909l6.596-14.313-23.208 3.223 11.654 23.953z"/><path fill="#89968e" fill-opacity=".416" d="M707.187 347.686l190.695 4.634-150.529 52.405-109.688-39.33z"/><path fill="#56504d" fill-opacity=".557" d="M171.853 894.502l12.883-181.886-61.597 5.053 32.224 76.614z"/><path fill="#27201b" fill-opacity=".6" d="M402.9 41.24l-163.027-.348 217.08-14.168 44.668 37.026z"/><path fill="#957471" fill-opacity=".502" d="M785.85 515.57l-77.656-38.1 39.902 65.31-49.958 288.829z"/><path fill="#213d8b" fill-opacity=".545" d="M665.745 405.853l-55.972-7.949L434.03 681.751l55.514-22.713z"/><path fill="#d9edff" fill-opacity=".271" d="M676.501 584.91l-17.539 13.982-56.091-1.42 178.108-42.413z"/><path fill="#d3dadd" fill-opacity=".706" d="M692.913 754.93l-43.05-70.632 4.593 86.957-3.585 154.818z"/><path fill="#04050a" fill-opacity=".271" d="M652.305 635.793l-79.523-118.38 56.88 133.838 4.463 161.21z"/><path fill="#152461" fill-opacity=".486" d="M645.486 1013.734l6.07 26.182-44.369-46.41-196.284 8.92z"/><path fill="#b6b6af" fill-opacity=".541" d="M743.723 374.978l86.53 198.54-103.943-98.87-50.435-100.193z"/><path fill="#faf3d9" fill-opacity=".302" d="M260.83 632.912l-26.837-27.534-74.118-25.26 33.63 38.339z"/><path fill="#c2aaa8" fill-opacity=".384" d="M337.671 700.499l-39.138 3.872 141.313-50.204-97.794 47.2z"/><path fill="#5e83a9" fill-opacity=".824" d="M-62 947.68L77.728 818.612 12.683 985.976 65.903 1086z"/><path fill="#c6907c" fill-opacity=".353" d="M339.653 47.3l84.093 62.956 56.826-.874-27.8-62.09z"/><path fill="#2d58bb" fill-opacity=".643" d="M258.862 910.447l222.22 29.223 148.26 56.75-392.603 1.157z"/><path fill="#67635b" fill-opacity=".914" d="M446.686 16.224l105.817 33.73-133.085-51.95-54.371 19.28z"/><path fill="#36566d" fill-opacity=".329" d="M603.125 323.143l29.11-39.159 226.216 55.653-194.978 28.295z"/><path fill="#441605" fill-opacity=".294" d="M396.419 182.655l-11.603-69.461 39.704-10.02-60.735 73.455z"/></svg>