<svg xmlns="http://www.w3.org/2000/svg" width="228" height="278" viewBox="0 0 836 1024"><path fill="#2c3955" d="M0 0h836v1024H0z"/><path fill="#2967cb" fill-opacity=".698" d="M426.827 576.919L53.635 307.01l648.2 85.728L422.714 1086z"/><path fill="#6e7984" d="M28.062 668.76l125.455-166.844 8.835-220.22L-62 412.36z"/><path fill="#271d05" fill-opacity=".576" d="M819.33 307.994l-562.473-52.239L-62 18.717 874.157-62z"/><path fill="#002f9f" fill-opacity=".62" d="M80.58 804.682l432.447-65.597 39.386 289.643L27.175 1086z"/><path fill="#000003" fill-opacity=".6" d="M373.836 673.203l-173.677 182.5-164.77-200.64L301.721 640.1z"/><path fill="#1d1b0f" fill-opacity=".718" d="M586.248 559.83L541.53 978.234l240.636 77.006L898 995.47z"/><path fill="#4a3525" d="M342.724 111.484l75.799 258.482 98.01 40.84 111.393-308.86z"/><path fill="#7a1914" fill-opacity=".855" d="M685.234 388.156l31.364 93.325 109.225 77.557L898 340.767z"/><path fill="#f8902a" fill-opacity=".341" d="M479.794 672.525l24.39-73.27-132.078-32.162-332.272 63.882z"/><path fill="#478fec" fill-opacity=".553" d="M715.537 438.828l-119.67 135.064-296.333-93.766 316.682-140.831z"/><path fill="#1151bc" fill-opacity=".608" d="M402.715 267.507l-219.69 57.584-57.323 109.374L155.4 590.682z"/><path fill="#3676d7" fill-opacity=".682" d="M525.715 851.971l68.56-285.264-136.878 397.041 103.197 120.132z"/><path fill="#ffe0b2" fill-opacity=".698" d="M595.014 497.234l8.393 55.855-32.769 15.681-24.428-44.743z"/><path fill="#ddceda" fill-opacity=".671" d="M133.081 445.574l-77.547 105.19 66.403-1.838 27.807-79.206z"/><path fill="#000754" fill-opacity=".573" d="M329.503 497.234l-122.61-112.073-24.638 218.522 301.799-58.25z"/><path fill="#c78a63" fill-opacity=".282" d="M692.126 665.249l-127.3 310.938-21.028 30.22-.046-178.643z"/><path fill="#555750" fill-opacity=".698" d="M260.847 262.827L-62 205.467l23.822 177.32 128.95 31.073z"/><path fill="#061e5e" fill-opacity=".502" d="M691.627 525.372L341.841 854.973l-263.725 77.88 58.571-130.393z"/><path fill="#070500" fill-opacity=".796" d="M381.666 104.62l56.187-74.799 115.39-8.598 67.293 79.094z"/><path fill="#4c2f08" fill-opacity=".42" d="M94.358 671.903L28.121 1086-62 603.382l481.836 58.458z"/><path fill="#000914" fill-opacity=".69" d="M711.897 230.672L898 246.038 777.775-62 689.16 57.483z"/><path fill="#b32d1c" fill-opacity=".302" d="M775.263 736.393l43.002-423.533L898 784.184v263.363z"/><path fill="#022c87" fill-opacity=".722" d="M661.144 616.675L713.401 447.4 526.196 625.913l-189.68-128.516z"/><path fill="#f6b179" fill-opacity=".31" d="M546.628 280.104l-29.083-47.194-152.622-38.833 227.159 8.623z"/><path fill="#020000" fill-opacity=".42" d="M515.591 173.968l-144.57 233.391 184.956-72.38-124.88-182.754z"/><path fill="#a1dbfe" fill-opacity=".275" d="M228.554 298.119l66.236-1.472 157.672-44.133-344.609 130.12z"/><path fill="#00111b" fill-opacity=".796" d="M732.106 902.25l50.307-142.075-117.49-31.088-84.288 230.505z"/><path fill="#2b6fd0" fill-opacity=".914" d="M260.359 434.561l280.013-43.202 23.565-70.646L709.56 468.505z"/><path fill="#001735" fill-opacity=".663" d="M-62 215.552l39.197-144.157L124.431 15.71l-7.582 166.422z"/><path fill="#697b77" fill-opacity=".569" d="M502.107 655.93l-86.62-71.15-44.451 104.911 101.538 21.59z"/><path fill="#1349a4" fill-opacity=".933" d="M343.676 420.478l-95.038-112.696 136.92-21.398 36.975 126.313z"/><path fill="#3f91f9" fill-opacity=".592" d="M42.022 593.55l38.692.068 43.786-39.286-58.734-15.024z"/><path fill="#05236d" fill-opacity=".761" d="M449.46 1049.58L52.654 778.66l487.558-34.664-407.772 224.44z"/><path fill="#4a493a" fill-opacity=".529" d="M562.05 330.878l13.31-130.358L898 370.604 707.165 411.49z"/><path fill="#755947" fill-opacity=".773" d="M393.746 327.227l15.685-147.105 25.28-70.809 38.772-34.903z"/><path fill="#346b85" fill-opacity=".475" d="M774.053 690.791l-62.256 61.836-82.983-23.463 56.46-87.994z"/><path fill="#7f6251" fill-opacity=".624" d="M91.119 638.44L310.2 618.654l-340-38.15 72.276 105.52z"/><path fill="#00000e" fill-opacity=".596" d="M380.562 751.105l-242.286 19.618-99.638-74.975 217.428-52.173z"/><path fill="#00005b" fill-opacity=".384" d="M698.37 460.887l-79.018 14.354 46.142 144.496-108.78 31.744z"/><path fill="#02254e" fill-opacity=".635" d="M868.287 325.726l-33.47-131.815-87.2 22.196-9.288 98.426z"/><path fill="#1549b2" fill-opacity=".38" d="M494.13 1059.018l16.95-283.003-221.467-1.4L432.709 1086z"/><path fill="#00042c" fill-opacity=".725" d="M222.15 567.132l-83.782 43.176 211.369-47.522-113.058-98.108z"/><path fill="#0b0000" fill-opacity=".447" d="M649.313 541.212L590.354 833.58l-20.485 16.426 15.24-234.855z"/><path fill="#293032" fill-opacity=".761" d="M526.76 924.044l-48.365 3.845 246.712 70.096L580.117 1086z"/><path fill="#6fb3ff" fill-opacity=".569" d="M175.709 338.404l-23.5 23.006-83.424 191.47 62.052-105.421z"/><path fill="#feb46e" fill-opacity=".204" d="M501.496 138.22l79.233-52.638-4.276 157.611-9.827-73.192z"/><path fill="#185ac3" fill-opacity=".616" d="M146.488 912.928l-33.59 53.43 147.058-52.288 162.266 25.106z"/><path fill="#083d9b" fill-opacity=".62" d="M220.908 336.937l-99.209 205.7-34.545 40.766 123.922-20.457z"/><path fill="#000a36" fill-opacity=".408" d="M-62 931.172l357.605 63.72-33.328-71.19-314.357 128.504z"/><path fill="#2d3935" fill-opacity=".478" d="M392.113 252.088l-218.357 80.97L88.83-62 411.897 4.01z"/><path fill="#70757f" fill-opacity=".525" d="M418.943 743.997l72.209-11.37-105.895-13.138-53.988 15.084z"/><path fill="#050a11" fill-opacity=".643" d="M862.832 933.098l-141.975-67.633L752.676 1086h107.258z"/><path fill="#2c1400" fill-opacity=".439" d="M407.269 345.55l68.738 64.37 77.018-36.587L414.855 215z"/><path fill="#342126" fill-opacity=".463" d="M798.284 516.013L693.55 401.638l58.532 253.01 60.728 41.21z"/><path fill="#77553a" fill-opacity=".529" d="M696.925 554.007l-93.852 344.616-50.852 79.219 22.445-114.651z"/><path fill="#8c0100" fill-opacity=".725" d="M736.23 427.632l151.398-34.487L898 526.293l-149.592-46.412z"/><path fill="#3c95fe" fill-opacity=".494" d="M557.333 1032.83l-97.505-36.133 34.311-33.74 43.791 2.774z"/><path fill="#9fb0b5" fill-opacity=".51" d="M490.834 653.79l-85.724-17.957 121.242-23.944L392.88 600.87z"/><path fill="#6689ac" fill-opacity=".333" d="M796.712 612.905l21.72-87.77L898 516.11l-50.649 144.494z"/><path fill="#0c0d1f" fill-opacity=".459" d="M483.29 683.27l-272.546-29 203.832 65.293-111.908-92.02z"/><path fill="#278fff" fill-opacity=".212" d="M509.132 467.992L390.48 595.463 256.15 301.617l-60.29 34.25z"/><path fill="#c39ea1" d="M119.031 452.407l37.71 17.028-36.411 55.767-9.142-65.485z"/><path fill="#4a90f0" fill-opacity=".384" d="M492.081 828.1l47.347 41.613-145.197 67.666 147.032-13.871z"/><path fill="#8b695a" fill-opacity=".914" d="M191.694 624.935l145.667-56.291 34.353 5.522 76.817.602z"/><path fill="#605b14" fill-opacity=".373" d="M671.756 899.32l73.737 63.891-44.943 47.29-69.845-4.01z"/><path fill="#3f1201" fill-opacity=".42" d="M347.614 539.297l-1.795 37.057 196.135 29.987-195.352-14.138z"/><path fill="#080905" fill-opacity=".851" d="M416.467 95.614L565.74 27.006l22.258 131.96 32.657-78.135z"/><path fill="#3e5560" fill-opacity=".298" d="M110.8 105.326L64.605 504.05l90.64-137.226 53.043-377.663z"/><path fill="#061f67" fill-opacity=".973" d="M120.012 905.114l-89.064 108.842L139.562 830.48l285.682 81.673z"/><path fill="#800e11" fill-opacity=".553" d="M898 613.006l-109.63 87.176 19.295 54.794 70.75 24.492z"/><path fill="#060c2f" fill-opacity=".827" d="M131.162 566.467l75.166 30.674-86.49-1.996-19.625-26.695z"/><path fill="#025ede" fill-opacity=".282" d="M394.985 969.757l-287.103 20.467L76.965 1086l183.734-87.875z"/><path fill="#50a2ff" fill-opacity=".224" d="M521.283 939.765l-3.917-306.7-120.618 14.344 172.395 18.346z"/><path fill="#020932" fill-opacity=".624" d="M196.123 819.078l243.98-74.354 1.33 24.686-32.661-1.166z"/><path fill="#f0dabc" fill-opacity=".255" d="M601.155 475.787l10.24 87.515-47.294 17.03-21.963-70.774z"/><path fill="#464d50" fill-opacity=".855" d="M68.109 799.805l34.414-80.994-40.89 3.98-46.283 15.853z"/><path fill="#4c625e" fill-opacity=".506" d="M896.194 719.762L765.476 835.541l25.693 43.338 47.786-4.55z"/><path fill="#c0e8ff" fill-opacity=".29" d="M236.723 311.087l37.801-19.135 64.102-5.37-185.332 56.644z"/><path fill="#e8f8fd" fill-opacity=".561" d="M95.04 551.446l-16.917-24.647 19.964-40.056 31.483 38.108z"/><path fill="#3693ff" fill-opacity=".314" d="M542.175 487.417l15.495-171.908L623.922 578.7l36.352-71.555z"/><path fill="#112f72" fill-opacity=".706" d="M411.317 616.128l156.273 26.238-73.41-74.411 16.709 87.224z"/><path fill="#3c91ff" fill-opacity=".482" d="M500.485 853.923l-4.56-9.866-133.43 39.92 89.29-10.755z"/><path fill="#000654" fill-opacity=".302" d="M513.895 914.196l35.302 39.838-342.913 7.27 62.328 25.735z"/><path fill="#1a0d04" fill-opacity=".886" d="M463.83 157.54l80.219 48.205 22.564-34.987-131.763 4.776z"/><path fill="#4e96fb" fill-opacity=".518" d="M699.24 486.12l-84.778-121.345 16.235 6.794 76.301 71.658z"/><path fill="#b36735" fill-opacity=".275" d="M402.544 217.982l44.622-136.324 115.033 84.225-175.05-15.611z"/><path fill="#6a5550" fill-opacity=".529" d="M577.452 670.955L562.039 887.49l-19.014-78.527 29.269-146.576z"/><path fill="#602500" fill-opacity=".294" d="M443.027 588.565l-331.806 54.58-65.1-27.265 2.912 98.839z"/><path fill="#361d0a" fill-opacity=".545" d="M526.031 893.463l50.4 81.094-11.79-87.918-21.324-14.786z"/><path fill="#838475" fill-opacity=".514" d="M-24.175 690.938l87.599-136.954 27.981-168.869L-62 383.031z"/><path fill="#002b8d" fill-opacity=".341" d="M312.435 556.803l-8.91-61.73 71.598-4.633 260.352 121.688z"/><path fill="#021151" fill-opacity=".886" d="M323.41 853.875l-219.166 38.641 189.837-17.691L397.384 859.7z"/><path fill="#040612" fill-opacity=".361" d="M470.366 719.38L368.91 629.49l121.53 77.401-417.325-25.49z"/><path fill="#0b3f9b" fill-opacity=".337" d="M383.715 328.043L628.19 534.082l-137.657-85.376-192.43-143.641z"/><path fill="#90cbff" fill-opacity=".4" d="M303.221 295.772l99.263-24.692-20.96-5.018-22.61 30.797z"/><path fill="#030e15" fill-opacity=".761" d="M550.738 996.586L669.57 780.85l90.565 18.8-202.476 225.921z"/><path fill="#593f27" fill-opacity=".996" d="M543.434 313.668l-18.096 19.722-51.01 71.276 48.282-21.232z"/><path fill="#5a697c" fill-opacity=".349" d="M660.057 616.944l23.237-92.394L898 649.556l-47.666-106.745z"/><path fill="#0b0a06" fill-opacity=".796" d="M457.572 37.446l-60.203 44.83 3.733 60.247 19.67-5.195z"/><path fill="#ea9953" fill-opacity=".141" d="M588.295 174.562l-33.22 98.512L401.811 160.67l34.824 110.876z"/><path fill="#d66f19" fill-opacity=".169" d="M302.05 670.826l-44.995-78.64 112.342 7.326 75.14 29.85z"/><path fill="#080805" fill-opacity=".592" d="M477.733 379.709l-67.6-161.898 26.394 80.719 119.75-1.507z"/><path fill="#001757" fill-opacity=".506" d="M78.062 838.693l18.394-99.233 187.32 68.641 37.361 18.758z"/><path fill="#6d4132" fill-opacity=".831" d="M486.653 297.439l-94.98-160.446L471.415 274.5l69.673 16.08z"/><path fill="#292d29" fill-opacity=".812" d="M369.832-62l31.593 347.477-72.76-72.599-161.221-96.855z"/><path fill="#a8bdba" fill-opacity=".482" d="M434.5 599.041l-28.253 2.353 109.36 32.742-14.723-15.076z"/><path fill="#385fa4" fill-opacity=".502" d="M94.687 756.511l-15.572 42.093-29.55 161.82 12.246-1.054z"/><path fill="#f1cab1" fill-opacity=".298" d="M321.993 468.56l2.524 5.92 73.267 11.265-86.705 3.693z"/><path fill="#1a68e1" fill-opacity=".435" d="M187.61 576.41l-58.294-54.268 28.8-15.424 14.117 87.727z"/><path fill="#3c91f8" fill-opacity=".357" d="M327.776 435.44l140.972-34.114-73.6-.916L527.84 575.68z"/><path fill="#070a37" fill-opacity=".506" d="M102.356 956.65l85.11 20.706-54.129.468-49.718 49.717z"/><path fill="#185cbe" fill-opacity=".714" d="M545.352 590.12l-1.624-48.046-195.319-199.687 91.9 110.895z"/><path fill="#1448ad" fill-opacity=".843" d="M538.679 711.273l-40.216-43.487-19.773 85.891 38.778-1.424z"/><path fill="#03368b" fill-opacity=".42" d="M147.178 427.013l33.653-86.056 96.509 90.481 68.966 51.565z"/><path fill="#2258b6" d="M542.275 309.314l83.657 73-30.471 32.158-21.551-56.904z"/><path fill="#1c0710" fill-opacity=".349" d="M177.322-62L108.303 64.467-62 143.87-7.755-62z"/><path fill="#254ea4" fill-opacity=".631" d="M343.954 871.344L210.31 886.936l410.183 19.86-341.862-10.77z"/><path fill="#7bb9f8" fill-opacity=".506" d="M477.991 910.191l64.959 19.459-19.338-33.889-58.54 21.608z"/><path fill="#5f5d5a" fill-opacity=".353" d="M98.588 494.762L-62 309.922l286.92 8.999-113.193-138.885z"/><path fill="#013393" fill-opacity=".71" d="M665.089 532.398L469.39 726.375l229.345-257.993-83.089 7.101z"/></svg>