<svg xmlns="http://www.w3.org/2000/svg" width="228" height="278" viewBox="0 0 836 1024"><path fill="#7b3e3d" d="M0 0h836v1024H0z"/><path fill="#f7e7e6" fill-opacity=".624" d="M840.35 940.469L-18.654 930.37-62 1039.72 873.537 1086z"/><path fill="#b91018" d="M682.2 903.044L329.07 1030.95 142.24 451.733 555.608 315.67z"/><path fill="#182837" fill-opacity=".867" d="M898 371.82L630.75 487.125 459.426-62 898 8.55z"/><path fill="#caaba2" fill-opacity=".918" d="M351.049 239.132l-196.86 235.565-104.457 557.622 59.09-600.814z"/><path fill="#152f1e" fill-opacity=".682" d="M115.801 453.326L12.438 886.366-62 27.148 406.895-62z"/><path fill="#ece8ec" fill-opacity=".929" d="M711.636 917.151L774.016 1086H213.457l403.41-161.297z"/><path fill="#700406" fill-opacity=".839" d="M70.787 611.554L46.729 744.806l169.365-344.88 190.921 459.84z"/><path fill="#bab673" fill-opacity=".729" d="M-62 971.556l170.258-63.504 64.596-254.445-60.617 5.117z"/><path fill="#4afefd" fill-opacity=".176" d="M846.662 410.866L560.54 581.357l81.177 253.825 218.116-25.402z"/><path fill="#b7b6b1" fill-opacity=".592" d="M334.65 633.021l-28.313-94.456L341.26 515.1l51.867 110.313z"/><path fill="#013149" fill-opacity=".643" d="M871.98 828.366L723.912 707.031l14.354 216L898 933.333z"/><path fill="#ebe3eb" fill-opacity=".831" d="M274.202 362.967l-37.351-38.235-111.463 103.031-2.256 33.3z"/><path fill="#fd936f" fill-opacity=".565" d="M689.299 919.715L586.083 482.01 720.95 829.165l-62.912 89.477z"/><path fill="#ffc382" fill-opacity=".302" d="M511.166 261.133l32.13-167.379-127.175 8.192 114.071 500.13z"/><path fill="#0a2336" fill-opacity=".78" d="M898 64.453L558.596 328.101l-76.044-24.75 92.9-219.796z"/><path fill="#533021" fill-opacity=".996" d="M145.422 121.376l176.807 47.494L294.5 282.374 106.617 387.948z"/><path fill="#ff0211" fill-opacity=".322" d="M736.396 906.486l-244.434 44.925-219.395-640.533 191.415 102.894z"/><path fill="#56230a" fill-opacity=".573" d="M561.456 548.77l39.455-301.457 49.61.493 59.377 330.28z"/><path fill="#b3f8fc" fill-opacity=".51" d="M518.089 406.387l5.014 61.785-51.74-36.883-3.526-31.35z"/><path fill="#ba8d5d" fill-opacity=".769" d="M297.66 351.48l62.853-154.33-38.21-103.265-6.964 79.697z"/><path fill="#620000" fill-opacity=".431" d="M489.71 819.974l-328.074-4.101 27.307-295.414 118.153 31.399z"/><path fill="#e0e9e3" fill-opacity=".639" d="M585.165 337.047l-87.118-24.28-70.949-15.884 137.97 45.717z"/><path fill="#c70715" fill-opacity=".824" d="M267.203 370.919l309.329-8.601-363.853 156.378-35.344-79.964z"/><path fill="#002311" fill-opacity=".714" d="M-62 177.613l186.35-11.307-152.346 457.512L-62 278.422z"/><path fill="#d6000f" fill-opacity=".635" d="M617.23 470.09L417.332 338.376l31.592-20.338 157.818 33.607z"/><path fill="#4ed76a" fill-opacity=".424" d="M318.572 910.902L-62 943.472l77.408-169.743 85.004 179.781z"/><path fill="#3d3d5d" fill-opacity=".612" d="M898 679.641L788.648 234.454l-194.481 9.842 120.2 143.69z"/><path fill="#865200" fill-opacity=".396" d="M373.913 12.2L525.98 232.668 355.606 417.03l-24.602-303.777z"/><path fill="#e7fea4" fill-opacity=".353" d="M427.066-18.635l45.297 61.552-122.923-17.29-24.728 65.59z"/><path fill="#6ff" fill-opacity=".102" d="M76.629 226.077l124.052 109.729L58.685 812.469l5.885-521.514z"/><path fill="#adffed" fill-opacity=".29" d="M355.435 1086l-51.686-108.684L-7.546 904.87-62 1014.831z"/><path fill="#002132" fill-opacity=".345" d="M162.987 917.357l-11.489-169.07 49.18 49.499L347.56 908.337z"/><path fill="#1c221a" fill-opacity=".569" d="M104.055 612.355L-62 635.22 43.202 837.743l4.317-29.514z"/><path fill="#ffc47c" fill-opacity=".42" d="M658.761 648.54l-11.73-16.447-53.528-99.984L579.13 672.27z"/><path fill="#ffc0b4" fill-opacity=".537" d="M60.38 735.756l-7.657 65.955 12.852 51.459 87.705-56.041z"/><path fill="#fdda9d" fill-opacity=".435" d="M521.51 113.662l11.639 60.664-13.103 19.91-90.452-88.12z"/><path fill="#b70002" fill-opacity=".569" d="M523.08 779.927L418.041 625.481 282.085 911.646l71.6 137.412z"/><path fill="#d5d6d5" fill-opacity=".498" d="M335.507 476.611l-60.657-13.919-4.706-5.227 9.723 26.11z"/><path fill="#3a2c30" fill-opacity=".992" d="M803.934 30.792L367.438-62l26.05 24.921 140.5 135.477z"/><path fill="#cdce8c" fill-opacity=".282" d="M659.395 660.435l50.856 185.597L657 861.598 606.862 749.74z"/><path fill="#ad8c02" fill-opacity=".275" d="M373.343 300.461l-31.537 85.903L92.26 206.724l6.605 124.284z"/><path fill="#e91c0e" fill-opacity=".169" d="M147.942 747.948L88.654 977.839l-6.34-426.48 196.621 162.045z"/><path fill="#07040c" fill-opacity=".404" d="M314.879 158.435l.795 71.614-59.095 109.123-38.464-126.07z"/><path fill="#ee0c1d" fill-opacity=".863" d="M616.9 750.845l-23.116-100.026-193.072-70.066 123.273 203.681z"/><path fill="#2a3e5b" fill-opacity=".29" d="M699.814 738.854l8.664 199.119L898 718.607 595.354 526.963z"/><path fill="#002344" fill-opacity=".627" d="M898 509.943v-361.37L769.128-62l22.74 444.752z"/><path fill="#dafdf8" fill-opacity=".404" d="M309.994 570.264l77.224 24.076-84.477-63.651 55.155-11.615z"/><path fill="#9c0000" fill-opacity=".38" d="M585.96 552.71l15.492 48.174-286.873 107.34 130.145-202.673z"/><path fill="#eddae9" fill-opacity=".506" d="M128.8 426.556l41.368 17.78-52.432 147.097-21.743-36.108z"/><path fill="#a57375" fill-opacity=".349" d="M712.225 422.274l86.848-39.073 13.574 243.575-68.12 14.985z"/><path fill="#768e8e" fill-opacity=".545" d="M898 937.426l-115.697 27.007-75.296-21.378 30.975-32.195z"/><path fill="#f8000b" fill-opacity=".239" d="M441.074 1002.064L230.6 782.164 761.995 883.57 570.19 939.393z"/><path fill="#dd0a1a" fill-opacity=".792" d="M323.108 559.226l235.268-28.56 29.152-178.243-53.849 97.047z"/><path fill="#c48163" fill-opacity=".533" d="M287.8 152.426l240.524 99.242-24.868-109.663 3.223 69.151z"/><path fill="#819a97" fill-opacity=".443" d="M12.312 947.658l196.433-41.408 85.704 16.125 8.465 42.977z"/><path fill="#eaf8ff" fill-opacity=".333" d="M596.618 348.244l-153.512-63.008 43.01 31.96-48.016-4.546z"/><path fill="#643a36" fill-opacity=".773" d="M98.262 582.065L-36.093 466.126-62 592.564l215.841 5.743z"/><path fill="#531900" fill-opacity=".51" d="M394.87 389.937l64.155-73.148-4.345-7.27-122.975-70.8z"/><path fill="#8b1b15" fill-opacity=".859" d="M635.53 816.407l-20.076 38.844 55.679-74.524-100.764 36.486z"/><path fill="#79000d" fill-opacity=".557" d="M176.008 295.746l97.392 40.031-70.176-141.52-46.98 30.13z"/><path fill="#750003" fill-opacity=".784" d="M611.233 363.188l14.555 152.398-71.434 54.64 26.313-147.767z"/><path fill="#5f3c22" fill-opacity=".937" d="M539.33 125.602l3.857 78.179 1.382-130.67-177.964-31.807z"/><path fill="#f2ffff" fill-opacity=".267" d="M548.596 949.673l44.21-24.52L898 996.06 780.365 1086z"/><path fill="#17160e" fill-opacity=".604" d="M605.626 369.783l-36.258-248.086-51.95 83.916 37.048 103.316z"/><path fill="#8f614a" fill-opacity=".678" d="M63.449 911.013l108.186 8.929-18.923-107.639-78.4 42.865z"/><path fill="#fbdeb8" fill-opacity=".247" d="M246.093 369.129l101.142-22.96-47.802-23.521 34.471-124.739z"/><path fill="#03325e" fill-opacity=".267" d="M122.708 382.861L79.587 711.654 24.949 454.262l37.597-138.319z"/><path fill="#680308" fill-opacity=".494" d="M292.158 563.943l76.292 31.292-251.775 28.713 52.317-182.394z"/><path fill="#060015" fill-opacity=".247" d="M898 897.367L723.068 770.962l-38.562 91.716 14.903 30.37z"/><path fill="#e5a981" fill-opacity=".486" d="M178.544 868.456l-51.303-29.507 28.756-125.52L55.31 733.34z"/><path fill="#292529" d="M550.602-62L44.34 70.468l253.86 39.568 61.907-87.305z"/><path fill="#c7bbb8" fill-opacity=".529" d="M532.585 438.17l-30.39 23.483-33.055-17.491 46.373-40.306z"/><path fill="#d6f9f0" fill-opacity=".4" d="M320.606 619.37l61.274-20.382-39.536-44.449 23.306 70.748z"/><path fill="#af040c" fill-opacity=".788" d="M292.17 367.904L175.398 493.859l180.547-104.47-117.549-79.096z"/><path fill="#169000" fill-opacity=".259" d="M74.523 345.815L39.682 258.69l119.646-117.073-23.817 153.152z"/><path fill="#22351f" fill-opacity=".345" d="M747.259 266.826l-12.795 202.691-115.943 99.494 1.504-222.258z"/><path fill="#a81200" fill-opacity=".463" d="M594.434 677.444l50.62 75.334 11.684-48.77-25.383-38.278z"/><path fill="#002a52" fill-opacity=".541" d="M523.025 63.629l110.772 183.007 64.034-99.532-98.178-69.912z"/><path fill="#302000" fill-opacity=".227" d="M443.447 143.392L721.429 318.18l-392.22-197.945 58.29-90.193z"/><path fill="#f9f8f8" fill-opacity=".702" d="M658.956 918.026l38.256-2.852 84.275 160.212-166.077-61.484z"/><path fill="#ff1a2f" fill-opacity=".545" d="M737.043 906.396L578.467 931.43l-11.195-70.57 71.54 3.513z"/><path fill="#e4d5df" fill-opacity=".6" d="M98.392 513.767l173.781-169.484-19.392-13.374-1.12-21.742z"/><path fill="#930005" fill-opacity=".427" d="M544.725 970.313l-280.513-92.78 120.867 125.239 138.477-35.44z"/><path fill="#440202" fill-opacity=".584" d="M201.86 511.422l159.919 302.34-86.79-102.77-71.59-120.517z"/><path fill="#58801b" fill-opacity=".431" d="M60.177 909.775l-5.18-31.643-69.126-75.475 61.53-60.905z"/><path fill="#1d53ac" fill-opacity=".208" d="M247.169 790.32l51.827 160.77-58.388-12.865-13.097-142.556z"/><path fill="#7a6751" fill-opacity=".4" d="M79.782 143.835l-4.8-55.295-52.73-7.39 6.76 72.799z"/><path fill="#feff8d" fill-opacity=".165" d="M479.503 67.611L362.927 15.198l54.71-13.434L549.47 95.666z"/><path fill="#c9ac84" fill-opacity=".502" d="M315.064 264.138l23.16-27.258 8.298 69.03-26.516-221.924z"/><path fill="#f1f7ff" fill-opacity=".216" d="M85.68 683.075L51.667 831.47l85.312 6.548-57.138-55.196z"/><path fill="#985b35" fill-opacity=".902" d="M507.391 261.456L367.88 220.702l-9.423 20.398 95.303 68.622z"/><path fill="#5b4f31" fill-opacity=".337" d="M591.49 251.483l155.453 6.107-135.23 120.148-43.371-75.572z"/><path fill="#950106" fill-opacity=".788" d="M371.628 585.331l35.187.063-121.496 116.715 141.776 45.372z"/><path fill="#e1081e" fill-opacity=".769" d="M609.89 375.988l-124.796 18.605-152.55 129.724 130.08-206.179z"/><path fill="#ffb48a" fill-opacity=".251" d="M328.032 131.708l198.926 106.478-18.358-48.251-35.55 47.301z"/><path fill="#65e058" fill-opacity=".494" d="M54.213 862.388l11.203 56.94L-62 921.309l56.47-120.147z"/><path fill="#660302" fill-opacity=".427" d="M163.896 697.605l97.806-119.952 117.746 231.302-230.052-34.275z"/><path fill="#513b34" fill-opacity=".757" d="M261.92 183.127l57.718-20.502-13.99-62.264-195.354 37.53z"/><path fill="#0c1415" fill-opacity=".545" d="M-4.126 599.045L-28.54 743.37l104.285-31.103 14.379-40.945z"/><path fill="#ffc4b9" fill-opacity=".263" d="M643.918 660.353l27.615 138.898 40.549 29.187-75.947-238.644z"/><path fill="#e28b68" fill-opacity=".804" d="M558.972 609.34l75.011 5.434-27.185 55.003-32.986-47.765z"/><path fill="#152876" fill-opacity=".227" d="M812.89 552.998l39.26 246.804 43.516-486.717-156.911-142.348z"/><path fill="#e00716" fill-opacity=".851" d="M500.653 610.958l-130.99-75.737-36.7 4.958 238.354 201.894z"/><path fill="#dedbe1" fill-opacity=".835" d="M574.6 968.327l-184.604 37.218L281.98 1086h442.135z"/><path fill="#b97947" fill-opacity=".678" d="M135.576 641.294L86.55 711.068l66.478 28.697 25.983-78.701z"/><path fill="#950a0f" fill-opacity=".812" d="M167.204 613.556l-85.807 6.196 20.007 25.586 50.186-78.049z"/><path fill="#7b5145" fill-opacity=".561" d="M708.767 421.57l34.154 231.026 17.482 7.094-99.934-69.198z"/><path fill="#513032" fill-opacity=".478" d="M732.498-47.947L416.521-1.739 394.935-62l311.52 184.272z"/><path fill="#507581" fill-opacity=".361" d="M649.628 651.227L898 780.087l-82.744 46.34-217.689-294.215z"/><path fill="#b36c2f" fill-opacity=".475" d="M478.288 87.694l-59.145 6.037 81.629 75.461-148.62 39.703z"/><path fill="#fbf8ff" fill-opacity=".216" d="M335.517 528.773l-10.558-76.959-24.373 14.556 57.828 70.271z"/><path fill="#081a24" fill-opacity=".565" d="M794.553 199.504l79.434 31.231L772.589-14.877 722.223 67.32z"/><path fill="#0f1321" fill-opacity=".498" d="M460.602-62L609.06 176.894l-62.626-80.576-82.391-62.102z"/><path fill="#873752" fill-opacity=".31" d="M754.684 894.68l-23.826-159.85-32.119 171.059 30.263 65.426z"/><path fill="#fa1e30" fill-opacity=".529" d="M518.178 337.986l-3.67 7.002 55.404 129.56-38.731 66.253z"/><path fill="#2d1400" fill-opacity=".294" d="M484.687 166.144l-48.525 32.009-56.025-3.68 156.185 2.998z"/><path fill="#eadae3" fill-opacity=".643" d="M158.283 406.912l91.283-76.922 27.827 22.484-122.51 101.645z"/><path fill="#000017" fill-opacity=".337" d="M48.973 468.946L-3.582 41.475-62 517.056l165.704-21.191z"/><path fill="#362720" fill-opacity=".722" d="M197.426 759.606l-46.399 166.147 51.258-80.216-61.248-12.647z"/><path fill="#a20003" fill-opacity=".624" d="M295.16 904.598l282.516-122.6-66.627 1.602-151.032 58.736z"/></svg>