<svg xmlns="http://www.w3.org/2000/svg" width="228" height="278" viewBox="0 0 836 1024"><path fill="#948e8b" d="M0 0h836v1024H0z"/><g fill-opacity=".502"><path fill="#e7faff" d="M666 290l-184 796L58 394z"/><path fill="#100000" d="M206 74l-260 56 36 784z"/><path fill="#320200" d="M582 1086l316-564-320-40z"/><path fill="#f8ffff" d="M246 258l-52 828L30 666z"/><path fill="#f0fbff" d="M898 450l-724 64 364-248z"/><path fill="#e3f5ff" d="M562 1074l-372-16 380-364z"/><path fill="#6f4419" d="M142 102l276 296 84-280z"/><path fill="#70280d" d="M858 1030l-12-404-264 460z"/><path fill="#817f73" d="M618 530L158 766l56-256z"/><path fill="#591a01" d="M146 910L26 1086-6 746z"/><path fill="#0a3f2d" d="M898-62l-68 472-96-448z"/><path fill="#fff" d="M138 378l172-108 84 352z"/><path fill="#2b150a" d="M94 410l212-168-280-64z"/><path fill="#414b4c" d="M338 218l328-8 232 192z"/><path fill="#fff" d="M206 910L66 798l28-304z"/><path fill="#52412b" d="M550 470l36-84-104 20z"/><path fill="#5c726f" d="M386-62L210 294-62 18z"/><path fill="#fff" d="M638 306l244 128-500-68z"/><path fill="#e9f7ff" d="M318 990l-268 96 92-168z"/><path fill="#3e0300" d="M218 882l136 68-172-16z"/><path fill="#2a3131" d="M322 26l576 4-256-92z"/><path fill="#b2bfd4" d="M178 734l428-192-168 544z"/><path fill="#4f2618" d="M-46 542l88 264 56-476z"/><path fill="#e3996b" d="M266 190l232 8-88-260z"/><path fill="#e7edff" d="M110 418L50 798l264-520z"/><path fill="#000d35" d="M898 438L710 338l188-4z"/><path fill="#feffff" d="M442 450l28-188 140 64z"/><path fill="#432b1d" d="M582 678l316-40-228-212z"/><path fill="#9bb5c3" d="M614 398l-28 140 160-120z"/><path fill="#96a0b2" d="M238 862l-88-400 368 348z"/><path fill="#e2eaf5" d="M310 886l244-76 36 272z"/><path fill="#502d0c" d="M450 162l-164-20 208-36z"/><path fill="#390200" d="M186 670l-28 96 32-8z"/><path fill="#fefeff" d="M274 838L62 694l88 196z"/><path fill="#ffd6b0" d="M398 134l68-76-156-8z"/><path fill="#694122" d="M382 398l-84-200 172 12z"/><path fill="#d9e4ff" d="M602 514l-416-16 76-208z"/><path fill="#736439" d="M258 542l-56 48h196z"/><path fill="#ddf0ff" d="M734 350l-52 128 216-12z"/><path fill="#bed0e4" d="M294 606l272 168 24-208z"/></g></svg>