<svg xmlns="http://www.w3.org/2000/svg" width="228" height="278" viewBox="0 0 836 1024"><path fill="#8f594b" d="M0 0h836v1024H0z"/><path fill="#f1f7ff" fill-opacity=".918" d="M452.516 903.404L228.603 771.773 154.81 1086h536.11z"/><path fill="#0c261c" fill-opacity=".682" d="M-62 384.63l960-88.752L843.3-62H-62z"/><path fill="#ff6a54" fill-opacity=".612" d="M502.526 118.338L376.948 89.716 33.835 664.276l565.604 327.598z"/><path fill="#ff5346" fill-opacity=".655" d="M888.725 306.847L898 722.215 127.626 428.422l548.324-51.656z"/><path fill="#1a221e" fill-opacity=".89" d="M80.69 581.15L321.463 60.984-12.347-62-62 480.916z"/><path fill="#e9e0e5" fill-opacity=".588" d="M506.216 698.181l-271.05-29.354 46.417-61.115 269.589 8.756z"/><path fill="#c4cfa4" fill-opacity=".659" d="M898 413.522l-231.516 86.032 40.04-165.387 103.799-26.841z"/><path fill="#c4090b" fill-opacity=".596" d="M541.773 900.77L683.25 508.484l-24.293-91.131-242.235 452.954z"/><path fill="#9cc67a" fill-opacity=".541" d="M260.545 771.227L59.182 900.007 36.808 571.771l161.877 91.312z"/><path fill="#051314" fill-opacity=".639" d="M502.484 322.834L620.99-62 898 136.058 661.91 390.31z"/><path fill="#799e5f" fill-opacity=".475" d="M421.768 93.608L114.171 343.594l381.48 43.76 53.736-210.839z"/><path fill="#f54038" fill-opacity=".867" d="M501.855 602.209L321.763 326.198l-166.304 97.865-31.111 184.711z"/><path fill="#ec2828" fill-opacity=".631" d="M291.652 822.328l302.689 150.796-9.956-273.398-357.878-10.398z"/><path fill="#02362f" fill-opacity=".471" d="M-62 860.134l254.27 102.613-9.35 62.792L40.575 1086z"/><path fill="#92a564" fill-opacity=".631" d="M781.154 634.465l-178.9 84.736-.348 91.559L898 865.453z"/><path fill="#ea3f2c" fill-opacity=".898" d="M882.558 982.576L766.873 808.317l.276 68.645 16.05 203.11z"/><path fill="#870000" fill-opacity=".604" d="M715.02 722.921l-21.07-199.843-224.086 97.138 174.175.574z"/><path fill="#c9b393" fill-opacity=".706" d="M451.162 121.052l-60.645-30.848-56.783 87.671 36.239 110.062z"/><path fill="#530900" fill-opacity=".38" d="M219.086 487.034l-102.603 242.63 91.472-83.044 49.688 55.7z"/><path fill="#f0c9b1" fill-opacity=".624" d="M93.637 751.133l-58.26-53.972 34.865-51.764 81.78-229.278z"/><path fill="#f7392e" fill-opacity=".804" d="M536.467 339.554l97.5 50.195 84.322 175.157-271.827-110.065z"/><path fill="#000410" fill-opacity=".384" d="M286.4 59.66L-50.564-38.644l112.68 286.657 350.773-81.62z"/><path fill="#d1b199" fill-opacity=".482" d="M523.667 725.046l40.16-206.592-26.84-27.15-47.087 5.857z"/><path fill="#828f49" fill-opacity=".682" d="M223.266 591.6l-96.543 131.617L153.389 1086l84.62-368.517z"/><path fill="#4b5a23" fill-opacity=".51" d="M337.811 182.318l18.058 133.631L53.198 432.647 50.926 288.64z"/><path fill="#4d6045" fill-opacity=".647" d="M694.293 967.14l73.042-129.258L595.89 797.99l20.626 171.266z"/><path fill="#1b0003" fill-opacity=".357" d="M406.309 389.95l122.44-142.228 22.924 83.083-140.63-92.633z"/><path fill="#eff4fb" fill-opacity=".718" d="M521.29 941.004L311.156 829.337l-83.96-85.022L232.722 1086z"/><path fill="#d30201" fill-opacity=".545" d="M12.431 620.785L64.167 788.76-62 833.854l70.572-79.532z"/><path fill="#eab49a" fill-opacity=".239" d="M546.506 206.853l31.296-54.912-202.055 40.453-62.632 214.263z"/><path fill="#ff483c" fill-opacity=".871" d="M898 371.354L878.015 799.73l-79.761-112.218L755.25 511.99z"/><path fill="#99994c" fill-opacity=".871" d="M723.416 787.366L642.532 612.79l-22.834 43.768-36.819 150.507z"/><path fill="#565c37" fill-opacity=".776" d="M95.482 536.153l-73.25 14.714 22.755 122.035 51.98-101.642z"/><path fill="#ffdfcb" fill-opacity=".533" d="M34.081 564.097L-62 599.787l103.46 23.449L-21.738 536z"/><path fill="#c4feb6" fill-opacity=".384" d="M420.73 418.044l56.75-35.557-143.21-13.448 63.653 41.163z"/><path fill="#ef4d43" fill-opacity=".922" d="M381.562 649.032L586.049 391.93 400.502 648.48 485.36 806.8z"/><path fill="#ffffd1" fill-opacity=".302" d="M516.82 105.15l-170.546.18 24.26 34.95 93.447 8.48z"/><path fill="#f2d3b3" fill-opacity=".486" d="M336.569 144.928l118.62 69.973 75.981-47.082-170.473 44.833z"/><path fill="#0e0500" fill-opacity=".412" d="M515.317 154.497l-164.305-6.35 149.415 37.135-14.72-33.194z"/><path fill="#e3feff" fill-opacity=".525" d="M254.04 510.926l19.67 11.458 36.79 3.29-64.885 15.178z"/><path fill="#ada1a1" fill-opacity=".596" d="M611.67 959.825l-17.887-157.95-8.19 258.368-100.976-19.336z"/><path fill="#0e0000" fill-opacity=".408" d="M627.275 611.252l-67.534 7.634 77.735-68.256 37.661 117.403z"/><path fill="#ed2b24" fill-opacity=".588" d="M245.318 501.823l-62.194-43.05 6.12 182.276-122.907-43.392z"/><path fill="#f5fbfe" fill-opacity=".49" d="M382.414 652.487l-109.726 23.946 65.375 14.311 58.857-96.366z"/><path fill="#b3826d" fill-opacity=".702" d="M808.047 436.257l-108.485 107.26 84.723 102.873-85.68-228.416z"/><path fill="#f74b42" fill-opacity=".898" d="M351.304 411.598l195.552 211.054-163.059-23.736-32.22 57.075z"/><path fill="#00040c" fill-opacity=".443" d="M632.819-62L606.031 60.216 382.523 28.788l38.376 91.797z"/><path fill="#d4d9d6" fill-opacity=".514" d="M534.009 698.189l2.877-7.686.404-63.683-170.916 47.875z"/><path fill="#df5b54" fill-opacity=".996" d="M309.32 671.783L296.618 559.57l-2.584-15.464 5.265 175.722z"/><path fill="#e5cccd" fill-opacity=".365" d="M781.809 809.824l59.626 40.108-75.88-253.734 62.41 140.63z"/><path fill="#ef413a" fill-opacity=".937" d="M480.51 663.336L315.386 827.69 362.678 630l21.251 208.825z"/><path fill="#21080e" fill-opacity=".408" d="M364.567 271.373l64.125-53.592-41.814-8.128 45.988 50.508z"/><path fill="#0c1416" fill-opacity=".561" d="M502.358 238.43l13.689 86.98L822.295-62l19.68 332.58z"/><path fill="#e52d28" fill-opacity=".663" d="M667.956 446.81L684.382 680l126.81-71.09-83.121.722z"/><path fill="#edc499" fill-opacity=".482" d="M41.218 677.817L52.964 806.64l93.52-167.09-43.225-28.999z"/><path fill="#ecf2fd" fill-opacity=".561" d="M676.76 468.723l20.706 37.545 7.954-47.536-49.463-12.601z"/><path fill="#8b897b" fill-opacity=".51" d="M491.198 37.25l-16.58-30.563-60.408 4.495-34.58 7.695z"/><path fill="#9cb144" fill-opacity=".384" d="M703.229 718.196l53.112 83.446 25.182 169.486-52.9 21.655z"/><path fill="#d9302e" fill-opacity=".667" d="M594.448 943.858l-20.617 66.44-143.74-199.331 66.931-138.594z"/><path fill="#488054" fill-opacity=".302" d="M581.559 345.394l99.514 67.43 77.044-179.945 96.225 84.332z"/><path fill="#d2ebff" fill-opacity=".514" d="M93.392 571.7l30.764-5.15 3.703 9.559 7.403-104.786z"/><path fill="#edffff" fill-opacity=".247" d="M439.01 595.6l11.025 37.603-217.494-33.866 103.91 89.191z"/><path fill="#ecf5fa" fill-opacity=".608" d="M214.067 827.709l378.004 182.48-389.301 73.266-11.97-184.839z"/><path fill="#e42925" fill-opacity=".71" d="M561.202 615.306l-188.538-10.124 140.695 2.73 111.238-124.67z"/><path fill="#716f42" fill-opacity=".553" d="M203.017 990.656l-229.246-98.24 233-39.641-98.64-141.284z"/><path fill="#0c2377" fill-opacity=".208" d="M712.794 659.557l71.391 102.464 53.155-6.52-79.161-109.194z"/><path fill="#000b0f" fill-opacity=".424" d="M331.788 226.56l-159.68-95.467-30.885 18.468 208.082-113.9z"/><path fill="#f4f8fb" fill-opacity=".8" d="M447.144 894.306L479.152 1086 191.65 979.952l356.18-7.765z"/><path fill="#b00109" fill-opacity=".451" d="M224.69 609.432l43.635 216.809-41.605-324.65-53.706 29.193z"/><path fill="#f84e44" fill-opacity=".996" d="M476.92 670.306l-5.072-35.87-180.783-278.913 205.513 128.638z"/><path fill="#401200" fill-opacity=".475" d="M455.054 322.442l-91.538-19.827 25.976 11.662 38.192 53.222z"/><path fill="#f94035" fill-opacity=".733" d="M713.326 450.601l-324.388-21.01 191.035-72.197 112.026 69.262z"/><path fill="#e13533" fill-opacity=".745" d="M289.409 810.031l-14.015-7.557-32.392-54.72 26.889-116.212z"/><path fill="#e8eef7" fill-opacity=".914" d="M191.93 1025.538l38.45-233.205-1.557-75.689 96.404 224.799z"/><path fill="#d7b3ac" fill-opacity=".569" d="M521.51 514.225l-35.697 31.184 31.774 49.717 42.585-39.554z"/><path fill="#ffdeab" fill-opacity=".294" d="M898 414.92l-108.655 46.066-57.786-160.549L897.765 411.38z"/><path fill="#947455" d="M526.491 165.821l24.966-8.9-48.566 105.707-85.013 35.528z"/><path fill="#141c1d" fill-opacity=".784" d="M141.373 450.975L-62 449.304 62.145 542.86 194.5 358.983z"/><path fill="#960306" fill-opacity=".4" d="M329.215 862.916l86.195-119.594 163.878-47.532-112.407 19.934z"/><path fill="#aceef4" fill-opacity=".235" d="M653.423 850.11l-78.472 107.666L604.78 841.26l-3.639 54.192z"/><path fill="#f6ddd0" fill-opacity=".478" d="M30.028 603.771l-73.192-18.233 50.17 170.438-27.73-262.27z"/><path fill="#1f2723" fill-opacity=".878" d="M636.002 354.451l-6.91-195.36L521.617-50.433l33.929 269.677z"/><path fill="#283727" fill-opacity=".333" d="M603.95 1049.788l-71.188 20.77-17.094-57.633 39.977 7.64z"/><path fill="#1d3136" fill-opacity=".31" d="M-62 985.41l194.23-82.231 35.75 56.24-53.806 107.234z"/><path fill="#f7fbfa" fill-opacity=".408" d="M449.648 604.163l-45.487 56.683 103.77-51.29-4.352 52.011z"/><path fill="#b01615" fill-opacity=".616" d="M513.761 604.335l77.148 55.722-29.846-93.258-51.961 76.24z"/><path fill="#843a3f" fill-opacity=".471" d="M712.18 935.643L576.527 945.8l19.976 57.753-9.594 66.837z"/><path fill="#e1cfa9" fill-opacity=".38" d="M367.545 85.64L333.35 233.943l13.165-93.687 147.338 5.671z"/><path fill="#728336" fill-opacity=".565" d="M354.972 307.26l6.457-99.974L189.69 319.01l13.995 60.496z"/><path fill="#9e8a62" fill-opacity=".502" d="M66.517 733.165l82.439 137.813L-62 922.975l230.308-269.328z"/><path fill="#745437" fill-opacity=".561" d="M685.75 668.04l79.242 156.933 80.37 86.544L683.53 658.755z"/><path fill="#d3a55e" fill-opacity=".443" d="M491.618 305.487l7.901 43.612 19.77 44.956 27.498-51.778z"/><path fill="#fff" fill-opacity=".365" d="M416.463 719.693l-110.47-110.875 8.713 98.294 14.401-97.921z"/><path fill="#070905" fill-opacity=".427" d="M514.04 51.44L322.201 80.407l90.55 20.2 76.723-9.808z"/><path fill="#ce6d67" d="M431.573 657.793l173.748 68.07-155.225-61.125-4.077-36.987z"/><path fill="#480000" fill-opacity=".42" d="M536.385 649.139l126.206-75.515-48.325-33.58-13.944 21.132z"/><path fill="#cb0b0d" fill-opacity=".408" d="M442.336 449.531l-129.725 77.21 187.796-76.285 53.506 28.503z"/><path fill="#ac839f" fill-opacity=".463" d="M-62 1086h173.308l68.19-131.573L208.285 1086z"/><path fill="#f43c34" fill-opacity=".776" d="M441.457 823.13l-196.26-130.09 157.621-6.519 1.832-60.23z"/><path fill="#ff4b3b" fill-opacity=".592" d="M299.365 346.22l-130.247 51.07-22.06 133.231 211.363-213.275z"/><path fill="#dec09d" fill-opacity=".373" d="M517.378 168.079l-118.376 19.728 20.987-67.74 24.286 123.292z"/><path fill="#34453a" fill-opacity=".247" d="M590.076 844.926l79.688 94.912 63.827-113.175-84.685-47.537z"/><path fill="#121716" fill-opacity=".725" d="M507.028 314.86l61.739 35.582 17.092-75.88-68.968-55.036z"/><path fill="#f5d3d9" fill-opacity=".173" d="M397.148 887.597l104.485 19.422-218.705 128.703 279.58-278.17z"/><path fill="#d3e4ef" fill-opacity=".376" d="M257.434 619.345l-24.777-29.038 27.409 89.568 1.462-29.013z"/><path fill="#b61613" fill-opacity=".376" d="M543.361 592.569l-16.918 287.626 49.349-42.337 45.75-222.592z"/><path fill="#edfffb" fill-opacity=".498" d="M508.963 697.28l-53.14-72.03-12.606 70.834 60.814-77.446z"/><path fill="#ffdcb4" fill-opacity=".114" d="M838.979 739.339l-104.923 323.037 39.255-262.792-25.89-17.24z"/><path fill="#e24e44" fill-opacity=".714" d="M493.556 482.097l-6.83 131.017 13.36-65.802-48.527 242.225z"/><path fill="#202123" fill-opacity=".592" d="M310.572 29.424L82.292 8.094l335.815 154.443-38.32 10.337z"/><path fill="#e7dadc" fill-opacity=".671" d="M145.394 448.868l.536 39.251-17.55 26.8-26.45 45.907z"/><path fill="#ce766e" fill-opacity=".639" d="M710.18 475.725l8.398 151.991 43.552-81.547-83.079-171.684z"/><path fill="#f9cd89" fill-opacity=".212" d="M386.317 293.74l2.749 117.026-95.405-78.784 180.602-37.673z"/><path fill="#35352c" fill-opacity=".486" d="M-13.534 194.098l215.549 177.728-99.883 103.576L-62 315.016z"/><path fill="#ff5d4a" fill-opacity=".537" d="M589.33 544.897l23.215-90.26L255.73 563.65l188.251-93.03z"/><path fill="#559350" fill-opacity=".263" d="M786.974 450.634l-162.471-68.759 53.59-20.937 63.824 134.498z"/><path fill="#0d0002" fill-opacity=".416" d="M374.582 247.887l36.554 19.67 37.976-16.995-2.605-1.292z"/><path fill="#df423b" fill-opacity=".467" d="M327.946 615.316l-4.296 50.386L586.436 777.5l-238.55-84.491z"/><path fill="#a20406" fill-opacity=".482" d="M412.666 873.454l103.711-86.011-71.795 41.622-41.885 33.249z"/><path fill="#fcfefc" fill-opacity=".671" d="M433.502 607.573l-1.31 79.714-7.748 1.056-9.087-56.34z"/></svg>