<svg xmlns="http://www.w3.org/2000/svg" width="228" height="278" viewBox="0 0 836 1024"><path fill="#3a3a4d" d="M0 0h836v1024H0z"/><g fill-opacity=".502"><path fill="#ffff51" d="M706 858l-68-304-28 532z"/><path fill="#ffc87d" d="M506 70l-4 292-212-204z"/><path fill="#010c09" d="M458-62L898 74v708z"/><path fill="#ffefb9" d="M218 778l76 132-148-68z"/><path fill="#4a57a7" d="M506 730L218 330l460-28z"/><path fill="#000042" d="M106 694l448 392-288-736z"/><path fill="#90877a" d="M-10 406l48 436 164-448z"/><path fill="#ffffd0" d="M750 918l68-8 76 176z"/><path fill="#01012e" d="M690 462l208 388-232 112z"/><path fill="#ff7" d="M658 750l-48 220 64 116z"/><path fill="#fbf6e3" d="M202 370l128-16 52-72z"/><path fill="#252625" d="M426 170L90-14-62 502z"/><path fill="#10116d" d="M146 966l480-260-16 380z"/><path fill="#9c8689" d="M426 750l-108-96 332 8z"/><path fill="#e3bf81" d="M310 66l176-40-36-84z"/><path fill="#f2f5fd" d="M142 1038l48-36 8-108z"/><path fill="#f8cda7" d="M426 86l64 300 28-248z"/><path fill="#fef7ed" d="M498 274l60 48h100z"/><path fill="#00003c" d="M706 538L502 662l188-296z"/><path fill="#fffce8" d="M22 786l52 12-8-108z"/><path fill="#000320" d="M182 438l-12 280 288-108z"/><path fill="#45e2cd" d="M438 678l8-100 108-28z"/><path fill="#85602f" d="M502 386l-132-60-72-336z"/><path fill="#ffeb4d" d="M634 878l-4-312 56 148z"/><path fill="#201e6f" d="M382 330l240 272-492-180z"/><path fill="#3e322f" d="M478 46l420 344-340-100z"/><path fill="#ffffea" d="M338 506l68-16-28-32z"/><path fill="#353c87" d="M302 766l-188 72-40-164z"/><path fill="#022646" d="M-62 1006h212l12-304z"/><path fill="#3c2600" d="M898 902L770 574l40 372z"/><path fill="#fff66b" d="M658 1086l8-276-56 168z"/><path fill="#02121a" d="M94-14l172 348 92-52z"/><path fill="#c3b4c0" d="M602 414l-60 44 68 28z"/><path fill="#98e5f8" d="M142 558l32-120-56 92z"/><path fill="#00001c" d="M686 730l12-256-68 12z"/><path fill="#543e25" d="M198 74l60 136L526 26z"/><path fill="#000e18" d="M662 1038l76-16-60-216z"/><path fill="#d0a585" d="M150 858l112-88-20 140z"/><path fill="#250220" d="M242 722l132-48 152 32z"/><path fill="ivory" d="M862 1038l24-76-104-24z"/></g></svg>