<svg xmlns="http://www.w3.org/2000/svg" width="228" height="278" viewBox="0 0 836 1024"><path fill="#7c8578" d="M0 0h836v1024H0z"/><g fill-opacity=".502"><path fill="#000900" d="M666 1070l-440-40 76-744z"/><path fill="#fdf8ee" d="M898 2L530-30l264 808z"/><path fill="#f1ede5" d="M434 166L22 98l-84 652z"/><path fill="#001c04" d="M654 818L98 534l576-36z"/><path fill="#101708" d="M22 690l520-332-72-208z"/><path fill="#cdfff2" d="M398 366l208 136-236 12z"/><path fill="#cbd3c7" d="M158 598l148-36-168 524z"/><path d="M678 614l-108-12 80-296zM202 490L66 682l44 104z"/><path fill="#d3b599" d="M-62 402l292 628-292-124z"/><path fill="#aeafae" d="M602 1086L778 98l120 900z"/><path fill="#854021" d="M554-62l-32 564L390 86z"/><path d="M578 906l-372 44 396 136z"/><path fill="#17b95f" d="M198 930l108-380-4 368z"/><path fill="#d2c8b4" d="M442 302L374-58 262 150z"/><path fill="#d39882" d="M566 590l-8 312 116 128z"/><path fill="#043f23" d="M586 830L242 346l76 552z"/><path fill="#0f674a" d="M590 278l76 124-352 48z"/><path fill="#1653ad" d="M46 74L230-62 330 98z"/><path fill="#c8ffeb" d="M518 498l96-40-64-156z"/><path fill="#d5ceba" d="M742 470L478 62l404-24z"/><path fill="#1f9f56" d="M350 878l100 48V510z"/><path fill="#000202" d="M482 830l-8-276 92-72z"/><path fill="#a8b3b4" d="M686 734l212-188-240-248z"/><path fill="#0f1019" d="M118 522l28 260-76-8z"/><path fill="#0a010d" d="M346 498l-56-148-176 236z"/><path fill="#ffd81a" d="M194 874l-68 212 100-32z"/><path fill="#32d58a" d="M366 306l112 168-20-144z"/><path fill="#3eac74" d="M502 770l96-212-60 376z"/><path fill="#080009" d="M602 478l-4 344 84-184z"/><path fill="#141016" d="M490 254l172 136-16-80z"/><path fill="#efe8dc" d="M618 286l-72 4 40-156z"/><path fill="#99aeb7" d="M18 1006l-80-552 168-28z"/><path fill="#a75f36" d="M582 114l-176-4 32 228z"/><path fill="#b1bac1" d="M274 714l-12-188-108 132z"/><path fill="#cecebd" d="M186 110L-62 422l432-120z"/><path fill="#070612" d="M10 1086h136l-12-120z"/><path fill="#fdf7ff" d="M154 534l-40-32 76-24z"/><path fill="#160813" d="M378 1086l-4-436-120 436z"/><path fill="#eeede9" d="M374 498l12-68 164 76z"/></g></svg>