<svg xmlns="http://www.w3.org/2000/svg" width="228" height="278" viewBox="0 0 836 1024"><path fill="#353946" d="M0 0h836v1024H0z"/><path fill="#f3a67b" fill-opacity=".749" d="M665.64 679.326l.74 112.913-260.585 234.464L228.322 1086z"/><path fill="#fba678" fill-opacity=".659" d="M366.235 115.021L501.82 186.54l-48.48 221.535-164.576-187.466z"/><path fill="#d3b752" fill-opacity=".655" d="M11.661 814.831l182.304 41.854L121.08 1086-62 999.453z"/><path fill="#7e8c95" fill-opacity=".694" d="M316.418 751.606L367.21 596.45l90.138 58.014 100.19 147.443z"/><path fill="#09172f" fill-opacity=".631" d="M481.74 141.854L-62 12.174 833.1-62 898 873.503z"/><path fill="#182843" fill-opacity=".988" d="M-62 181.246L298.408 38.478l-42.98 644.111-72.083 203.775z"/><path fill="#0d1b34" fill-opacity=".906" d="M296.04 474.874l275.017 307.181L669.349-62 504.624 539.236z"/><path fill="#0a172a" fill-opacity=".8" d="M358.686 966.826l-84.38-90.871 33.269-135.427 214.979 84.496z"/><path fill="#c4d8e7" fill-opacity=".631" d="M658.378 953.41l-8.96 22.818-71.742 9.306-26.323-24.896z"/><path fill="#f7eefb" fill-opacity=".196" d="M571.483 764.207l51.246-41.058 57.586 14.034-7.977-347.343z"/><path fill="#cde4f0" fill-opacity=".353" d="M261.243 521.84l72.218-1.316-22.278-45.102 44.59-161.972z"/><path fill="#cd8d6a" fill-opacity=".588" d="M483.268 354.528l-80.997 39.9-107.215-257.08 127.122-36.866z"/><path fill="#6a92bd" fill-opacity=".655" d="M260.156 902.217L144.218 1086l123.048-134.039 78.653-19.742z"/><path fill="#da9e81" d="M496.585 924.902l-93.6 159.769-45.952-123.378L632.489 779.91z"/><path fill="#152540" fill-opacity=".91" d="M287.879 739.274l326.627-474.637-230.875 165.497-53.396-7.481z"/><path fill="#000f26" fill-opacity=".588" d="M454.703 1061.155l231.23-199.527-30.048-28.357-184.302 115.597z"/><path fill="#100a00" fill-opacity=".494" d="M580.205-62L460.469 212.084 407.655 102.25 46.558 210.418z"/><path fill="#92bdfb" fill-opacity=".384" d="M529.768 508.5l-11.563-60.23-58.707 45.989 26.898 44.067z"/><path fill="#d4bfb1" fill-opacity=".475" d="M204.845 849.735l75.366-242.697-1.435 45.462-68.251 200.687z"/><path fill="#7a5236" fill-opacity=".592" d="M381.37 326.356l84.21-49.462-81.99 173.468L231.016-9.348z"/><path fill="#a4a4cf" fill-opacity=".62" d="M78.062 991.38l41.479-34.084L35.135 1086l-78.778-151.717z"/><path fill="#b08118" fill-opacity=".298" d="M180.047 1031.923L-62 899.135 91.935 701.56l130.004 263.055z"/><path fill="#e48f5c" fill-opacity=".439" d="M436.743 978.208l211.57-148.639 26.8-120.372-57.984-37.054z"/><path fill="#020a1a" fill-opacity=".533" d="M485.144 588.068l-6.93 139.683 130.124-37.756 133.226-9.46z"/><path fill="#102443" fill-opacity=".78" d="M535.02 942.269l327.27-173.6-35.333 305.252-59.784-122.057z"/><path fill="#061730" fill-opacity=".831" d="M-62 409.713L71.208 63.93 395.691 2.078-62-62z"/><path fill="#424c56" fill-opacity=".965" d="M489.849 782.139l-145.997-153.83 147.56 107.784-261.863-59.714z"/><path fill="#d9eefd" fill-opacity=".514" d="M484.025 714.65l-14.25-45.455-131.333 34.996 14.86-31.604z"/><path fill="#fef" fill-opacity=".094" d="M-62 232.963v58.923l131.22 4.61 541.395-93.444z"/><path fill="#df9d7e" fill-opacity=".6" d="M467.863 346.189L336.096 245.346l101.373-94.363 57.93 174.887z"/><path fill="#13120a" fill-opacity=".49" d="M150.933 128.47l164.61 87.451 64.326-54.878 11.414 41.9z"/><path fill="#28528d" fill-opacity=".529" d="M610.12 980.769l163.987-30.049 7.236 135.28H404.427z"/><path fill="#060404" fill-opacity=".757" d="M199.805 864.052l51.845 6.147-16.326 58.999-56.71-24.652z"/><path fill="#1b335a" fill-opacity=".49" d="M805.675 201.052l-65.772 204.356L578.025 525.5 467.258 248.836z"/><path fill="#21314e" fill-opacity=".992" d="M-18.485 706.512L-62 416.299l200.617-24.566-11.09 288.432z"/><path fill="#e4dbe5" fill-opacity=".471" d="M167.275 906.427l-58.84 55.147-32.961 51.46 109.56-105.624z"/><path fill="#7385a1" fill-opacity=".549" d="M279.762 358.866l16.29 30.367 4.596-10.388-91.218 70.802z"/><path fill="#543934" fill-opacity=".678" d="M746.752 439.78l11.82 72.702 38.594 57.651 69.856-136.408z"/><path fill="#0d1d32" fill-opacity=".976" d="M237.775 539.007l400.513 70.27-246.605 6.387-105.567 10.828z"/><path fill="#704e0d" fill-opacity=".463" d="M184.508 895.571l86.066-178.63 6.74 149.824L-62 804.758z"/><path fill="#000d25" fill-opacity=".353" d="M359.493 444.988L194.154-62l-60.093 495.123L410.123 319.61z"/><path fill="#0d1c2e" fill-opacity=".663" d="M678.73 661.287l14.959-245.065L834.86 672.106 623.335 638.82z"/><path fill="#8f9195" d="M469.531 755.24l77.087 64.113-3.2 17.425-12.709-96.539z"/><path fill="#b0c6f9" fill-opacity=".094" d="M794.025 54.488L783.362 173.97 373.954-19.277 536.77 133.586z"/><path fill="#000919" fill-opacity=".51" d="M747.23 571.485l-106.753-56.663-100.7 290.8-15.287-314.864z"/><path fill="#002a66" fill-opacity=".569" d="M191.731 1086l74.599-169.638 2.843 5.021 81.957 42.797z"/><path fill="#0a1526" fill-opacity=".655" d="M259.505 899.086l230.001-137.308 36.576 66.606-246.788-25.389z"/><path fill="#ef854b" fill-opacity=".345" d="M446.065 392.407l-65.106 43.18-8.972-68.111 122.136-71.625z"/><path fill="#b7d6ec" fill-opacity=".42" d="M676.389 606.656l-52.326-34.137 16.227-17.157 30.524 11.192z"/><path fill="#e0c17f" fill-opacity=".184" d="M299.57 42.727l-55.508 53.936L524.198-40.079l-62.603 12.795z"/><path fill="#b2dbff" fill-opacity=".298" d="M639.079 467.528l16.345 86.38 20.33-77.978-71.753-6.35z"/><path fill="#60595d" fill-opacity=".392" d="M898 707.52l-217.787 93.566 109.49 54.203L650.835 663.83z"/><path fill="#f6fdff" fill-opacity=".231" d="M426.64 650.202l-73.596 43.084-41.28 17.106 86.054-97.015z"/><path fill="#f7b491" fill-opacity=".38" d="M663.147 752.924L345.54 1082.028l332.38-394.313-125.48 5.726z"/><path fill="#ffefff" fill-opacity=".082" d="M416.599 312.65l22.745-123.118-218.924 17.519.469 73.998z"/><path fill="#758ea8" fill-opacity=".263" d="M143.838 40.24l.686 80.162-56.912 13.57L74.333 56.89z"/><path fill="#c9eaff" fill-opacity=".29" d="M602.276 639.777l94.151.467-114.821-32.933 4.437-7.896z"/><path fill="#cde7f5" fill-opacity=".196" d="M454.959 670.561l-110.534 80.3L462.541 906.7l-99.04-146.091z"/><path fill="#5b515f" fill-opacity=".337" d="M770.215 229.548l-357.88 69.196 81.342-79.71 290.014 95.213z"/><path fill="#061329" fill-opacity=".541" d="M540.174 446.558l-285.979-27.784 160.51 82.888-123.541-1.33z"/><path fill="#040201" fill-opacity=".761" d="M476.123 37.735L293.733 114.9l178.927-14.445 29.691 28.123z"/><path fill="#689eff" fill-opacity=".125" d="M429.008 420.858l-16.893-81.218 76.734 254.175 39.298-285.139z"/><path fill="#d2edff" fill-opacity=".2" d="M271.98 545.816l13.902-117.761 56 20.59-1.836-90.03z"/><path fill="#000914" fill-opacity=".588" d="M340.447 805.498l-32.44 2.235 65.179-98.84-34.822-10.362z"/><path fill="#dcb19e" fill-opacity=".659" d="M489.46 933.967l-169.14 65.112 53.652-55.183 48.756 78.735z"/><path fill="#1b252f" fill-opacity=".592" d="M416.241 682.146l16.301 177.913-16.132-153.385-146.246-147.609z"/><path fill="#e4dbdf" fill-opacity=".122" d="M57.959 665.196l76.96-4.01 4.85-65.965-77.517 8.489z"/><path fill="#714d3c" fill-opacity=".831" d="M319.585 300.217l68.791-16.406-107.704-33.414 51.71-5.44z"/><path fill="#c7e5f8" fill-opacity=".278" d="M296.577 937.035l-53.78-54.906 108.135 57.435 9.162-8.838z"/><path fill="#d1eeff" fill-opacity=".29" d="M255.919 531.984l10.182-29.413 49.241-.316 10.41 19.586z"/><path fill="#91617d" fill-opacity=".439" d="M105.193 1086l74.346-141.583-87.736 30.58-65.305-15.572z"/><path fill="#33292b" fill-opacity=".718" d="M500.42 187.561l-21.998 69.961 97.981-54.232-87.48-147.135z"/><path fill="#fbffff" fill-opacity=".263" d="M570.827 971.724l81.954-34.01-13.56 36.22-53.191 6.249z"/><path fill="#c5d0ff" fill-opacity=".086" d="M-26.716 415.468l125.742 72.926 248.051-133.312-177.541 60.691z"/><path fill="#0a1428" fill-opacity=".824" d="M401.923 1055.955l21.305-11.753 210.913 37.324-151.005-106.43z"/><path fill="#130d09" fill-opacity=".471" d="M569.76 626.081L491.724 771.17l-10.705-33.253 98.482 11.676z"/><path fill="#000c17" fill-opacity=".42" d="M172.724 280.743L169.374-62l93.04 286.459L397.1-62z"/><path fill="#dedbd2" fill-opacity=".212" d="M289.305 171.773l4.575 66.252 20.782-123.032-15.315 9.671z"/><path fill="#081d3b" fill-opacity=".408" d="M688.342 618.249L-62 450.009 30.516 742.85l22.937-155.692z"/><path fill="#ecf0ff" fill-opacity=".255" d="M295.967 54.41l-33.15 70.527 1.811-46.351 38.73-28.068z"/><path fill="#a5aeb0" fill-opacity=".353" d="M427.012 626.18l24.519 99.134-88.149-109.996-35.48 54.06z"/><path fill="#071a32" fill-opacity=".686" d="M627.175 285.613L611.775-62l-27.158 413.488L898 421.052z"/><path fill="#1c293c" d="M369.923 771.087l74.438 103.868-62.125-116.025 16.692-69.71z"/><path fill="#b4bf0d" fill-opacity=".259" d="M-47.446 920.593l140.124 38.566 77.007-78.444-147.653-51.398z"/><path fill="#b37453" fill-opacity=".627" d="M554.838 826.457l74.808-135.237L341.8 1028.518l7.527-20.843z"/><path fill="#001734" fill-opacity=".482" d="M898-62l-86.137 544.19-22.322-397.733L453.134 22z"/><path fill="#081626" fill-opacity=".514" d="M304.851 882.95l-13.375-300.416 61.927 267.847 132.991-175.218z"/><path fill="#0d2445" fill-opacity=".42" d="M688.966 1023.828l11.93-31.702 18.892-224.314-124.96 94.458z"/><path fill="#142236" fill-opacity=".627" d="M246.395 1036.595l279.76-262.48-7.008-54.28-12.568 122.74z"/><path fill="#eaf4ff" fill-opacity=".259" d="M502.909 727.53l-72.584 12.688 125.383 6.222-49.874 10.47z"/><path fill="#fcf2ff" fill-opacity=".149" d="M105.16 952.722l-16.213 68.09 175.195-285.963L153.58 959.234z"/><path fill="#311700" fill-opacity=".365" d="M419.266 395.387l-144.911 53.136 90.15-3.71-27.489-97.33z"/><path fill="#061a33" fill-opacity=".639" d="M-62 215.582l278.136 5.033-16.51-80.502L-62 105.27z"/><path fill="#6d2d2c" fill-opacity=".282" d="M127.996 1013.383L42.96 1086l344.099-84.878 91.82 84.878z"/><path fill="#593016" fill-opacity=".533" d="M277.626 813.443l10.103-203.928-60.088 216.759 7.395 66.542z"/><path fill="#16294a" fill-opacity=".973" d="M499.433 465.212l98.917-128.15-149.643 98.78 324.666-39.146z"/><path fill="#d2e5f2" fill-opacity=".537" d="M385.979 672.437l-4.323-.573-42.106.134 51.125 26.768z"/><path fill="#2a3e73" fill-opacity=".318" d="M781.161 73.077l36.23 54.623-179.423 9.034.58-84.305z"/><path fill="#0a1f3a" fill-opacity=".722" d="M-62 394.878l264.74 9.95 163.006-72.22-376.38-34.943z"/><path fill="#d48f69" fill-opacity=".494" d="M462.9 298.734l36.526-140.347-86.152 84.399-66.614 90.355z"/><path fill="#b6774f" fill-opacity=".718" d="M665.41 798.636l-84.754 81.223-52.503 36.398L664.15 744.144z"/><path fill="#30272b" fill-opacity=".686" d="M679.906 662.864l-17.387 132.654 113.793-267.216L898 531.547z"/><path fill="#c7eeff" fill-opacity=".302" d="M217.122 965.35L173.172 1086l24.09-87.804 58.178-36.235z"/><path fill="#c5aca8" fill-opacity=".251" d="M385.916 995.02l61.9 83.007-95.144-212.343-4.102 10.141z"/><path fill="#dff0f5" fill-opacity=".275" d="M240.426 427.121l22.464-47.676 44.509.26-32.514 10.625z"/><path fill="#040b1b" fill-opacity=".243" d="M245.146 882.109l-66.453 68.963 9.199-709.653-65.373 572.838z"/><path fill="#f1ffff" fill-opacity=".235" d="M456.558 775.142l16.315-2.507-66.909-17.418-114.78-7.653z"/><path fill="#9b6045" fill-opacity=".529" d="M299.223 119.443l101.795 118.985L346.3 132.375l95.479-17.037z"/><path fill="#010004" fill-opacity=".639" d="M560.18 495.687l12.909 271.407-40.48-49.635 11.147-176.928z"/><path fill="#e1a588" fill-opacity=".373" d="M313.813 169.46l124.319-.625-22.952-59.25-45.64 23.78z"/><path fill="#301900" fill-opacity=".322" d="M317.091 333.42l14.984 9.99 135.437-30.318-77.62 42.331z"/><path fill="#0d2243" fill-opacity=".647" d="M642.822 521.655L490.34 436.612l90.687 80.302-4.423 165.226z"/><path fill="#65a6f9" fill-opacity=".176" d="M230.475 958.135l159.805 85.798-163.785-58.06 28.883-84.978z"/><path fill="#001124" fill-opacity=".459" d="M331.637 397.829l-96.76 57.45 5.953 21.962 78.717-110.888z"/><path fill="#c67c58" fill-opacity=".467" d="M442.064 243.4l-25.187 171.814 84.365-99.851-48.281-97.681z"/><path fill="#d1eefd" fill-opacity=".298" d="M537.568 733.577l-16.783 8 1.777 37.713 9.333 31.555z"/><path fill="#684239" fill-opacity=".643" d="M186.527 906.683l67.329 42.379-119.75 9.934-20.005 45.494z"/><path fill="#121d30" fill-opacity=".518" d="M828.313 768.808L776.906 742.8l-4.045 212.85 72.026-4.2z"/><path fill="#333f4a" fill-opacity=".992" d="M440.608 650.172l-47.14 29.75-23.251 157.956 27.113-148.756z"/><path fill="#edb29c" fill-opacity=".733" d="M374.89 220.576l-26.856-35.424-21.078 61.816 115.985-36.431z"/></svg>