<svg xmlns="http://www.w3.org/2000/svg" width="228" height="278" viewBox="0 0 836 1024"><path fill="#1d4b30" d="M0 0h836v1024H0z"/><g fill-opacity=".502"><path fill="#11f994" d="M898 442L-62 742l272-436z"/><path fill="#a7a990" d="M790 486l-224 600 332-80z"/><path d="M898-26v720L422-58z"/><path d="M-62-62l36 704L498-62z"/><path fill="#b9a582" d="M582 682L510 30 334 74z"/><path fill="#020000" d="M410 890l-472 188 304-596z"/><path fill="#0de98f" d="M430 314l164 448 84-396z"/><path d="M478 262l420 240-84-564zm-76 8L6-62l-8 516z"/><path fill="#fff" d="M746 846L578 746l164 20z"/><path fill="#525362" d="M798 930L458 598l-520 8z"/><path fill="#00c93c" d="M194 1014l276-208 72 280z"/><path fill="#bdfadd" d="M746 562l152 128-220-324z"/><path fill="#00b542" d="M854 726l-104 92-68-404z"/><path d="M-62 726l128 360 336-296z"/><path fill="#150104" d="M806 626L658 770l-52-260z"/><path fill="#00dc7a" d="M322 318L102 462l520 192z"/><path fill="#8a4520" d="M342 54l212 260-212 36z"/><path fill="#b23d50" d="M898 734l-64 320-208-140z"/><path fill="#f8b3e0" d="M510 466l-12 100 104-32z"/><path fill="#deffff" d="M138 718l-56-52 92-28z"/><path d="M-10 642L-62-38l492-12z"/><path d="M826 578L422-62h476z"/><path fill="#d8988a" d="M438 42l96 44-48 260z"/><path d="M622-58L498 294l396 172z"/><path fill="#00e884" d="M786 794l112-272-188 232z"/><path fill="#0ff5a7" d="M470 498l28-188 196 80z"/><path fill="#030000" d="M442 426l-16 100 92-184z"/><path fill="#101c04" d="M414 638L194 510l-60 124z"/><path fill="#9c0000" d="M66 650l-128-64 92-60z"/><path fill="#88898e" d="M302 614l-72 108-20-136z"/><path fill="#00450c" d="M542 978L290 754l420 100z"/><path fill="#006c1d" d="M646 466l136 156-284 8z"/><path fill="#136ff1" d="M402 782l-72-40 204 4z"/><path fill="#290100" d="M506 146l-160-4 124-32z"/><path fill="#00be50" d="M290 450l-152-44-92 328z"/><path fill="#000001" d="M-62 454l392-148-64-368z"/><path fill="#009b38" d="M682 1002l-488-84v168z"/><path d="M434 322l40-44-88-8zM898-14L522-62l8 376z"/></g></svg>