<svg xmlns="http://www.w3.org/2000/svg" width="228" height="278" viewBox="0 0 836 1024"><path fill="#82765e" d="M0 0h836v1024H0z"/><path fill="#081833" fill-opacity=".675" d="M369.938 239.28l-130.015 783.29L523.536 1086l49.41-345.97z"/><path fill="#f2edbd" fill-opacity=".788" d="M407.602 234.208L56.666 509.058l34.944-278.03L321.75 69.32z"/><path fill="#d2d7b0" fill-opacity=".596" d="M898 97.716L532.886 77.08l122.323 287.434L814.984 1086z"/><path fill="#0d101d" fill-opacity=".718" d="M-62 311.79L231.99 90.724 898 17.622 17.955-62z"/><path fill="#eaab3c" fill-opacity=".682" d="M330.44 548.369l-27.69-326.255L-62 707.21l289.843 258.115z"/><path fill="#535252" fill-opacity=".992" d="M639.475 300.665L357.71 505.508l-24.485 156.664 351.28 20.95z"/><path fill="#c2c6b9" fill-opacity=".655" d="M-62 262.314L-59.831 1086 210.21 504.286 166.087 816.97z"/><path fill="#26282e" fill-opacity=".722" d="M550.121 447.906l169.655 237.126L343.46 464.845l-55.693-210.686z"/><path fill="#eaf3e2" fill-opacity=".694" d="M186.171 339.773l186.831-182.855 13.552-68.132-188.216 1.282z"/><path fill="#cdcece" fill-opacity=".396" d="M622.209 602.592l36.814 116.212-311.117-71.693-8.312-84.64z"/><path fill="#e69700" fill-opacity=".659" d="M645.635 638.209l19.946-262.355 55.123 16.539 18.637 220.835z"/><path fill="#1c283f" fill-opacity=".906" d="M769.101 1084.44l-563.526-3.87-56.718-127.702 236.24-50.082z"/><path fill="#5f1e00" fill-opacity=".431" d="M240.366 641.337L83.56 476.105l-29.473 258.13 233.596-323.388z"/><path fill="#f5ffe7" fill-opacity=".741" d="M819.802 155.282L898 105.4 559.09 90.263l35.53 52.333z"/><path fill="#e6f9ef" fill-opacity=".286" d="M563.43 800.84l62.107-185.462 56.606 328.204-120.121 97.37z"/><path fill="#3a3430" fill-opacity=".992" d="M611.935 76.407L898 84.835 822.806-17.43 391.027-27.886z"/><path fill="#301300" fill-opacity=".478" d="M449.891 215.473L386.592-56.895l50.356 376.158L671.932 375.4z"/><path fill="#ecb735" fill-opacity=".929" d="M167.94 861.241l132.673-308.513-52.69 382.69-144.555 3.566z"/><path fill="#413e49" fill-opacity=".522" d="M711.644 307.154l92.916 2.48 7.932 176.346-9.672 11.078z"/><path fill="#151e30" fill-opacity=".863" d="M582.644 706.445L265.194 1086l1.543-297.705 73.968-154.04z"/><path fill="#ffface" fill-opacity=".518" d="M612.18 540.432l-28.524-75.337 27.845-33.768 33.516 36.783z"/><path fill="#e0b763" fill-opacity=".663" d="M409.842 220.787l59.249 182.278-118.155-132.369-171.057 58.296z"/><path fill="#0b1621" fill-opacity=".494" d="M-62 121.15l220.017 79.348 44.772-18.566L208.875-62z"/><path fill="#e3fae3" fill-opacity=".541" d="M121.083 636.624l-.469 94.758 45.18 70.987 42.943-258.983z"/><path fill="#ffb400" fill-opacity=".416" d="M123.564 531.075l198.845-16.595-8.484-221.513-130.08 42.458z"/><path fill="#6f3301" fill-opacity=".565" d="M680.032 453.125L576.39 660.119l163.487-49.653-89.263 197.362z"/><path fill="#bdb69c" fill-opacity=".894" d="M591.479 149.39l-31.887 149.575 171.224 63.166-189.437-197.25z"/><path fill="#1a3060" fill-opacity=".69" d="M-62 969.329l171.304-1.01 14.996 98.575-186.3-52.978z"/><path fill="#17233e" fill-opacity=".773" d="M499.13 509.136L658.982 395.79l-47.063-81.087-55.455 5.708z"/><path fill="#ae6000" fill-opacity=".608" d="M324.225 575.748L186.932 753.185l17.245-210.867 51.033-128z"/><path fill="#252a33" fill-opacity=".98" d="M652.156 567.504l-325.512-.795-10.547-294.653 45.35 246.131z"/><path fill="#bdd9bf" fill-opacity=".471" d="M734.385 911.621l-2.79-277.318.973-254.365L898 837.878z"/><path fill="#9a4622" fill-opacity=".314" d="M387.377 212.464l160.904 94.553 45.976-220.814-344.3 84.223z"/><path fill="#ba8572" fill-opacity=".78" d="M-47.067 914.99l212.921-28.855L57.452 453.187 43.958 881.17z"/><path fill="#001a3c" fill-opacity=".576" d="M100.706 506.474l57.277 47.107 33.333 53.47-147.13-120.135z"/><path fill="#938938" fill-opacity=".639" d="M355.907 511.045l-13.278-31.334 132.82 12.127 89.762 34.782z"/><path fill="#ff5a22" fill-opacity=".267" d="M730.71 634.55l14.647 285.304L673.422 1086l-28.09-387.762z"/><path fill="#d4a63c" fill-opacity=".757" d="M542.22 373.205l5.402-54.585-121.225 43.47 73.79 43.9z"/><path fill="#f2fff8" fill-opacity=".267" d="M43.018 177.367l85.669 226.088 88.378-92.307 198.832-54.573z"/><path fill="#7e7d7e" fill-opacity=".925" d="M894.612 1086l-55.808-194.189-99.5 2.013L714.752 1086z"/><path fill="#ebfefe" fill-opacity=".424" d="M118.992 965.504l58.687 7.15-9.374-9.528L151.687 1086z"/><path fill="#fccd3b" fill-opacity=".773" d="M694.538 363.46l-44.197-30.404 12.988 147.03 60.915-13.681z"/><path fill="#121b2d" fill-opacity=".714" d="M598.6 656.847l-26.514-17.764-153.325-31.453 20.491 16.394z"/><path fill="#53514f" fill-opacity=".824" d="M27.651 460.203l43.673-180.947-16.5-89.659-62.115-19.655z"/><path fill="#9c927c" fill-opacity=".804" d="M440.878 162.043l136.885 14.471 254.211-28.169 56.803 150.014z"/><path fill="#252222" fill-opacity=".694" d="M385.446 118.678l37.349 41.214L472.087-10.4 393.062-62z"/><path fill="#2f3136" fill-opacity=".957" d="M620.37 530.543L495.495 1086 598.85 668.462l50.093-171.372z"/><path fill="#ecb835" fill-opacity=".875" d="M310.813 603.426L126.617 944.413l138.159-14.297 3.276-152.361z"/><path fill="#3c1b0c" fill-opacity=".369" d="M547.16 277.003l-49.014 109.802-75.792-61.874 146.003-139.336z"/><path fill="#fcf7fc" fill-opacity=".302" d="M518.014 686.072l-92.894-30.91 90.599-14.523 90.842 67.105z"/><path fill="#a8aaa8" d="M370.012 559.579l-.945 91.094 19.297-3.215 21.516-76.94z"/><path fill="#60442d" fill-opacity=".992" d="M588.008 129.15l-17.18 21.073-89.663 12.99-6.82-47.093z"/><path fill="#ffa178" fill-opacity=".365" d="M510.22 109.89l-90.44-48.607 149.59-10.067-18.89 108.99z"/><path fill="#161f2f" fill-opacity=".694" d="M427.916 690.839l-4.93-65.66-181.603 227.888 294.673 77.42z"/><path fill="#b4704c" fill-opacity=".749" d="M152.792 900.176l64.255-76.737-145.42-89.412 15.295-209.612z"/><path fill="#1c2436" d="M485.461 516.785L371.558 285.7l-32.721 3.725-47.082-.564z"/><path fill="#adbea5" fill-opacity=".757" d="M57.028 930.163L-8.733 466.76l108.99 80.385L-62 713.555z"/><path fill="#7b716c" fill-opacity=".486" d="M340.544 32.472l-121.7-86.908L329.746 94.897 180.75 96.145z"/><path fill="#ffbf1d" fill-opacity=".486" d="M191.835 575.229L65.09 477.43 331.7 375.394l-71.035-100.829z"/><path fill="#210100" fill-opacity=".404" d="M233.143 568.725l39.212-102.623-111.6 125.088-38.487-43.696z"/><path fill="#c0c2a6" fill-opacity=".765" d="M378.796 180.793l37.203 90.983-137.858 20.037 8.216-155.095z"/><path fill="#1c2433" fill-opacity=".965" d="M578.752 508.45l-157.183 45.226 166.946 45.37 53.484-65.086z"/><path fill="#fdfff1" fill-opacity=".725" d="M213.42 107.844l173.22 10.745-99.986 23.476-69.685 163.067z"/><path fill="#e7dfcd" fill-opacity=".824" d="M607.304 125.434L553.812 51.47l-22.148 15.116 96.25 84.76z"/><path fill="#a7aca0" fill-opacity=".616" d="M47.867 509.73l41.83-37.23 11.14-279.105-47.445 178.329z"/><path fill="#9c9c9d" fill-opacity=".78" d="M502.46 625.185l72.145-29.508-117.62-27.356-30.05-10.245z"/><path fill="#da9a1c" fill-opacity=".988" d="M331.5 561.02l-95.525 77.461 25.526-53.871 32.857-145.036z"/><path fill="#1a2228" fill-opacity=".6" d="M575.483 649.563l128.402-18.927L742.15 581.8l-27.385 66.868z"/><path fill="#3e4c69" fill-opacity=".655" d="M608.904 1046.099l7.34-75.841L486.082 1086 519 888.198z"/><path fill="#abaf97" fill-opacity=".773" d="M540.168 917.873l74.902-293.53 30.594 55.337-.18 159.055z"/><path fill="#ffd22c" fill-opacity=".435" d="M299.352 286.995l30.708 154.99-177.071-69.513 73.378-79.143z"/><path fill="#212935" fill-opacity=".749" d="M448.412 555.075l-112.915-61.68 91.637 91.082-.525 62.419z"/><path fill="#88733e" d="M355.032 443.335l81.371-1.286-107.324 17.42-50.804 30.157z"/><path fill="#ffa844" fill-opacity=".278" d="M397.002 336.712l95.038 70.394-96.557-217.012 98.605-108.351z"/><path fill="#1e2940" fill-opacity=".89" d="M503.766 404.321l-187.904-35.724 261.108 176.61 22.642-203.058z"/><path fill="#162033" fill-opacity=".769" d="M586.031 708.324L127.284 1086l61.84-119.36L563.81 817.072z"/><path fill="#ebedc6" fill-opacity=".702" d="M141.061 605.418l19.6-1.992 42.12-48.682-34.941 252.178z"/><path fill="#542402" fill-opacity=".514" d="M652.324 658.962l11.023 100.39 52.49-33.405-103.84-170.085z"/><path fill="#001116" fill-opacity=".525" d="M122.212 507.99l-24.677 5.222-35.992 22.12-3.894-34.81z"/><path fill="#fffa90" fill-opacity=".4" d="M185.782 933.928l-67.894 14.937 4.006-24.205-7.213-57.428z"/><path fill="#270800" fill-opacity=".451" d="M233.412 643.23l86.802-47.495 7.897 3.869 55.219-70.787z"/><path fill="#625444" fill-opacity=".471" d="M739.526 62.019L594.473 98.534l-95.688-120.29-11.467-32.618z"/><path fill="#ffbe22" fill-opacity=".569" d="M373.962 274.486L511.6 415.81l-68.255-45.043-49.08-44.814z"/><path fill="#a45c00" fill-opacity=".42" d="M704.948 430.906l3.95 145.837-103.232 60.253 29.602-83.55z"/><path fill="#bc8865" fill-opacity=".82" d="M735.15 984.91l5.532-256.904-45.81 266.205L722.886 1086z"/><path fill="#666d71" fill-opacity=".624" d="M-62 891.642l2.955 92.207 166.714-4.468 21.476-64.754z"/><path fill="#fdc32d" fill-opacity=".514" d="M259.042 641.601L151.767 812.713l107.728-19.823 62.467-189.082z"/><path fill="#feffd6" fill-opacity=".212" d="M708.191 313.25L542.05 297.47l134.49 47.595 95.74 247.158z"/><path fill="#030713" fill-opacity=".298" d="M246.593 82.63L850.245-62 802.496 82.364 485.677-62z"/><path fill="#fefdfd" fill-opacity=".388" d="M348.831 638.835l99.582-.253-80.317 5.597-32.234-54.834z"/><path fill="#fee23f" fill-opacity=".239" d="M528.745 492.3l1.375 47.795-122.903-32.368 6.305 21.652z"/><path fill="#adb69e" fill-opacity=".937" d="M49.349 902.749l21.497-99.789-42.182-109.662L-62 907.47z"/><path fill="#20212c" fill-opacity=".788" d="M217.268 937.631l79.055-2.333 4.566 87.139-184.282-71.696z"/><path fill="#1d2127" fill-opacity=".71" d="M24.346-62L-62 188.153l244.12-7.135 8.426-42.672z"/><path fill="#2e323f" fill-opacity=".714" d="M458.874 581.252l-22.33 36.185 45.252 3.401-20.644 28.57z"/><path fill="#af5700" fill-opacity=".576" d="M175.094 771.525l17.22-101.103 18.011-168.567 30.045 192.614z"/><path fill="#fcfcff" fill-opacity=".318" d="M475.592 674.277l-49.32-18.241 36.095-129.972-31.494 99.238z"/><path fill="#c3bfa4" fill-opacity=".631" d="M644.735 491.2l-16.955 32.056-40.034-52.656 31.388-43.014z"/><path fill="#1a2439" fill-opacity=".871" d="M527.98 443.213l-199.291-22.475-13.71-104.165 96.663 30.693z"/><path fill="#313132" fill-opacity=".851" d="M46.795 309.353L19.24 218.96l31 14.476 18.22 54.246z"/><path fill="#04112d" fill-opacity=".106" d="M700.167 265.396l129.57 230.053-95.73-333.38L898 172.035z"/><path fill="#de8e62" fill-opacity=".392" d="M535.621 146.045l75.704 75.857-163.966-76.975 42.552 119.316z"/><path fill="#4a4c53" fill-opacity=".698" d="M479.451 611.982l6.873-57.05 38.153 99.524-22.961-83.262z"/><path fill="#202531" fill-opacity=".867" d="M325.878 354.516l-6.58 170.053 15.957-4.336 17.319-45.263z"/><path fill="#edf1da" fill-opacity=".38" d="M139.71 432.304L65.405 374.29l64.21-114.155 54.124 136.594z"/><path fill="#f2ce4d" fill-opacity=".667" d="M698.31 356.724l-41.437-19.172 4.803 67.836-12.339 123.265z"/><path fill="#fffc65" fill-opacity=".353" d="M481.23 405.17l65.925-21.65-5.137-73.62-15.552 40.532z"/><path fill="#f9ffe8" fill-opacity=".455" d="M597.56 152.235L560.706 94.68l322.295 26.953-262.09 34.099z"/><path fill="#a5b5a4" fill-opacity=".6" d="M159.4 586.917l-33.796 165.879-16.236-70.92 8.8-48.853z"/><path fill="#f9b826" fill-opacity=".565" d="M744.508 580.362l-54.117 55.002 4.3-78.094 39.21-26.751z"/><path fill="#232835" fill-opacity=".773" d="M611.557 325.654l-105.99-33.943 151.61 112.238-14.237-80.89z"/><path fill="#b47200" fill-opacity=".345" d="M140.208 439.32l56.905-40.686 106.467 22.84-12.897 54.449z"/><path fill="#1c2536" fill-opacity=".98" d="M564.111 880.303l-301.061 8.379 334.223 108.187-283.92-46.27z"/><path fill="#a2b0a1" fill-opacity=".42" d="M852.737 327.71L723.666 635.544l-52.004 31.777 223.118-27.444z"/><path fill="#8a8783" fill-opacity=".788" d="M505.528 925.531l157.126 25-1.05 135.469-41.614-100.389z"/><path fill="#dc9f7c" fill-opacity=".498" d="M36.314 605.26l69.822-38.024 31.818 15.37-40.663-60.858z"/><path fill="#aca48e" fill-opacity=".514" d="M898 306.083l-177.627 15.185-171.87-97.586 41.958-68.517z"/><path fill="#110206" fill-opacity=".463" d="M520.257 242.936l39.247 14.974 1.478-27.54-54.496-1.664z"/><path fill="#feffff" fill-opacity=".243" d="M369.336 538.927l69.33 63.709-33.539 44.636 10.135-60.57z"/><path fill="#1d2330" fill-opacity=".973" d="M408.564 560.854l-17.767-105.168-.841 52.597-62.73 50.894z"/></svg>