<svg xmlns="http://www.w3.org/2000/svg" width="228" height="278" viewBox="0 0 836 1024"><path fill="#736670" d="M0 0h836v1024H0z"/><path fill="#502e28" fill-opacity=".953" d="M898 164.915L426.913 354.222-62 53.094 806.014-62z"/><path fill="#c8cae9" fill-opacity=".769" d="M599.401 1052.9l23.078-158.55-462.87-55.837-41.054 240.874z"/><path fill="#e6e6e8" fill-opacity=".941" d="M-62 774.185l174.843 36.528-22.127-39.568-43.782-335.839z"/><path fill="#9facd1" fill-opacity=".737" d="M898 474.194L514.869 241.109 390.267 1086l-3.893-682.623z"/><path fill="#9aa0b5" fill-opacity=".992" d="M227.385 407.356L-62 427.732l420.398-213.67L245.391 1086z"/><path fill="#b83f1d" fill-opacity=".992" d="M781.812 395.225L898 588.102v-374.55l-415.194 15.512z"/><path fill="#f3f2ee" fill-opacity=".722" d="M898 697.87L761.785 918.69l-46.64-52.058L878.02 481.02z"/><path fill="#300414" fill-opacity=".525" d="M604.303 564.362l92.812-152.59L804.77 546.573 642.057 1086z"/><path fill="#174593" fill-opacity=".655" d="M406.177 670.476L283.055 985.7l-46.245 6.754 138.132-707.45z"/><path fill="#13150f" fill-opacity=".878" d="M898 695.792l-96.505 169.735L682.715 1086 898 1054.45z"/><path fill="#432927" fill-opacity=".996" d="M356.611-62L-4.895 79.015-62 146.694l13.243 258.464z"/><path fill="#01348c" fill-opacity=".686" d="M53.627 527.944l192.827-4.907-84.02 422.31 64.711-619.852z"/><path fill="#fceff5" fill-opacity=".471" d="M463.004 913.161L607.672 576.21l-72.147 458.14L94.922 1086z"/><path fill="#244e96" fill-opacity=".639" d="M561.183 602.723l-78.728 303.333-95.675 53.01 150.541-685.862z"/><path fill="#f1eeff" fill-opacity=".718" d="M726.002 358.495l142.796 166.287L562.641 337l-20.312-50.086z"/><path fill="#392419" fill-opacity=".867" d="M-62 624.113L114.836 1086l15.541-231.727L13.735 1086z"/><path fill="#eff2ff" fill-opacity=".698" d="M343.937 282.618l-197.075 95.416L-62 648.726 153.524 305.15z"/><path fill="#1c0700" fill-opacity=".447" d="M400.036 446.089l-102.562-53.282L525.611-62l-10.108 312.391z"/><path fill="#ccd0cc" fill-opacity=".506" d="M169.082 524.85l50.23 95.387-48.736 90.526-70.313-115.585z"/><path fill="#002368" fill-opacity=".792" d="M665.862 499.9l94.293 127.593 60.261-77.186-175.02-162.074z"/><path fill="#943623" fill-opacity=".937" d="M683.004 538.862l-70.646 195.845 142.612 9.696L776.45 642.6z"/><path fill="#629407" fill-opacity=".49" d="M147.094 323.183l180.804-102.036-279.106 7.73-23.075 210.01z"/><path fill="#4e1300" fill-opacity=".522" d="M80.722 607.682L169.8 749.495l-37.76 113.247L81.16 741.72z"/><path fill="#fefdff" fill-opacity=".514" d="M492.905 483.74l-9.224 91.64-81.568-45.13-28.264-59.14z"/><path fill="#f3f7fb" fill-opacity=".506" d="M180.037 1086l72.334-164.887-21.83-187.483L113.197 1086z"/><path fill="#f2feff" fill-opacity=".212" d="M671.327 604.701L501.09 501.977l161.582-133.561-82.823 702.152z"/><path fill="#0b48bd" fill-opacity=".631" d="M317.13 327.915L103.81 478.123l5.29-55.047 69.084-71.883z"/><path fill="#566a97" fill-opacity=".996" d="M368.756 552.67l-33.888 21.953L364.95 740.79l174.777-158.18z"/><path fill="#f31a10" fill-opacity=".416" d="M493.675 918.463l40.279 101.384 70.993-88.585-56.348-7.63z"/><path fill="#894e2d" fill-opacity=".584" d="M336.258 320.316l-53.016-221.8 155.42 7.234 27.22 113.894z"/><path fill="#b9b9b1" fill-opacity=".576" d="M432.713 852.043L255.66 1086l141.711-404.856 80.753 4.593z"/><path fill="#faf3f2" fill-opacity=".427" d="M74.726 878.61l-60.661-54.315 123.422-538.092-81.522 239.243z"/><path fill="#764430" fill-opacity=".886" d="M765.02 900.495l-48.23-19.32L531.825 1086l216.623-23.018z"/><path fill="#1150c5" fill-opacity=".616" d="M752.15 445.463l-153.42-82.427-81.37-12.056 247.6 135.934z"/><path fill="#020000" fill-opacity=".714" d="M497.935 140.35l28.35-82.876-155.96-20.333-46.428 44.47z"/><path fill="#b9b5b8" fill-opacity=".639" d="M839.57 489.678l-93.204 249.766 136.857-83.993-172.439-254.044z"/><path fill="#c05830" fill-opacity=".506" d="M141.532 972.248l-30.618-178.063-71.355 33.187L23.033 936.83z"/><path fill="#1e010e" fill-opacity=".431" d="M680.121 656.99l81.87 78.871-22.86 93.796-122.823 75.112z"/><path fill="#012668" fill-opacity=".694" d="M222.663 473.154L118.145 568.16l-66.427-62.58 121.645-67.268z"/><path fill="#0146b3" fill-opacity=".478" d="M494.898 896.429l104.903-7.57 47.282-384.52L553.64 883.89z"/><path fill="#00021f" fill-opacity=".349" d="M375.697 779.137l150.691-58.83-8.894 46.955-34.995 59.595z"/><path fill="#9199a4" fill-opacity=".698" d="M26.498 658.438l105.166-62.458L-62 364.179l155.316 50.98z"/><path fill="#f0f1ff" fill-opacity=".639" d="M163.62 338.761l4.611-38.199 148.781-42.277 18.86 66.622z"/><path fill="#0d429c" fill-opacity=".455" d="M140.921 954.043l46.785-301.346L241.4 566.37l-22.813 216.713z"/><path fill="#002888" fill-opacity=".675" d="M284.576 603.329l42.634 25.959 216.052 26.006-74.948-45.548z"/><path fill="#0b3078" fill-opacity=".596" d="M544.434 458.571L287.559 330.565l72.556 87.835 226.858-5.584z"/><path fill="#2e191b" fill-opacity=".608" d="M631.753 178.291L864.385-62h-30.024l23.285 295.062z"/><path fill="#000740" fill-opacity=".263" d="M306.047 897.14l.522-234.112 82.258 127.791L157.02 907.815z"/><path fill="#0e130e" fill-opacity=".765" d="M685.38-52.275L427.52 3.66l123.424 23.59 50.823 46.254z"/><path fill="#e4d8e3" d="M508.602 887.347l-34.483-18.4 75.196 82.935-2.809 72.531z"/><path fill="#fffefe" fill-opacity=".651" d="M95.566 795.578L7.931 552.56-62 681.026 40.023 825.627z"/><path fill="#d64616" fill-opacity=".776" d="M898 273.662l-410.798-34.706 45.136 34.862 187.457 52.171z"/><path fill="#000104" fill-opacity=".459" d="M118.985 933.982l-61.302 89.305-53.191-261.34-39.327 258.833z"/><path fill="#e9e7ea" fill-opacity=".616" d="M744.182 817.136l39.057-158.36 16.467 181.892-112.718 52.178z"/><path fill="#a5a3a9" fill-opacity=".761" d="M322.938 310.95l-26.402 486.938-58.624 1.876-14.537-113.247z"/><path fill="#999ea6" fill-opacity=".565" d="M590.19 724.244l52.08 147.227-114.13-182.94 95.694-290.996z"/><path fill="#613d3b" fill-opacity=".765" d="M389.481 9.552l-176.339 40.36L59.651 242.79l124.343 1.78z"/><path fill="#013aaa" fill-opacity=".369" d="M336.158 321.862l-23.113 3.013 4.332 295.043 81.445-136.91z"/><path fill="#cdd6d6" fill-opacity=".424" d="M510.471 293.997L401.743 508.202l-46.029-19.544 160.452-105.052z"/><path fill="#002b7d" fill-opacity=".498" d="M559.749 561.681L394.634 947.33l65.409-38.298 80.255-240.447z"/><path fill="#cfe2ff" fill-opacity=".329" d="M248.029 976.955l254.26-154.992-169.187 26.439 99.67 60.641z"/><path fill="#f8f4ff" fill-opacity=".522" d="M550.877 1086l-302.635-6.826 300.08-216.937L473 863.58z"/><path fill="#00364d" fill-opacity=".659" d="M643.145 1086H539.75l67.394-93.736 40.36-32.622z"/><path fill="#dfe2ed" fill-opacity=".6" d="M343.06 728.574l-14.44 1.885 155.705-17.905-39.074 30.593z"/><path fill="#744b45" fill-opacity=".918" d="M642.378 43.88L685.478-62l60.299 87.26-76.392 99.892z"/><path fill="#ca0301" fill-opacity=".478" d="M552.57 973.043l-8.014 99.914-14.427 9.034 61.53-161.433z"/><path fill="#002a9c" fill-opacity=".353" d="M575.041 409.91L506.07 239.27l19.118 152.227-26.822 168.601z"/><path fill="#0f0400" fill-opacity=".439" d="M490.072 297.595l-3.653 35.151-137.276 86.737-8.187-72.718z"/><path fill="#ffede2" fill-opacity=".314" d="M654.534 478.538l-24.725-86.313-69.929-8.005 20.184 55.708z"/><path fill="#21060c" fill-opacity=".635" d="M143.713 80.596L30.005 92.838l7.153 155.491 94.872-118.493z"/><path fill="#b5827e" fill-opacity=".278" d="M352.783 172.261l87.307-75.05 19.332 41.875-254.712-87.22z"/><path fill="#bfbbc2" fill-opacity=".576" d="M291.095 414.693L246.571 585.65l-29.923-175.985 29.392-45.708z"/><path fill="#f7f8ff" fill-opacity=".506" d="M787.522 405.506l-108.914-10.27-132.804-53.06-5.285-63.638z"/><path fill="#7a5b53" fill-opacity=".49" d="M751.222 756.077l-6.613-157.225L898 600.783 775.211 672.09z"/><path fill="#8a5559" fill-opacity=".329" d="M820.346 170.928L626.44 276.053 523.431-62l6.792 323.26z"/><path fill="#a19aa4" fill-opacity=".91" d="M528.224 525.631l10.46-71.58 28.66 132.867 84.128-66.337z"/><path fill="#fffffa" fill-opacity=".549" d="M143.424 328.985L80.14 402.94l127.215-59.338 71.583-94.482z"/><path fill="#b9d3ff" fill-opacity=".384" d="M601.562 888.447l-46.87 156.842 80.177-71.822 11.73-51.526z"/><path fill="#c0bfbe" fill-opacity=".639" d="M188.805 518.017L170.833 622l-56.721-25.317 65.081-95.87z"/><path fill="#533221" fill-opacity=".412" d="M163.213 652.79L82.181 759.926l55.843 67.739L53.38 608.66z"/><path fill="#2f1100" fill-opacity=".525" d="M533.823 93.457L411.49 162.036l-97.836 34.911 189.944 23.725z"/><path fill="#d4aa9c" fill-opacity=".455" d="M4.5 834.384l41.293-62.207-20.508 146.064 83.683-69.757z"/><path fill="#b93c18" fill-opacity=".875" d="M738.938 609.185l-58.994-79.105-31.604 130.583 52.52-12.936z"/><path fill="#d9e7fe" fill-opacity=".51" d="M588.13 732.551L477.837 843.916l101.536-76.417 23.636-36.462z"/><path fill="#07214f" fill-opacity=".812" d="M142.459 436.66l94.1 105.877-26.226-84.633-83.795 100.225z"/><path fill="#c9c1ca" fill-opacity=".549" d="M859.527 489.884l-51.412 39.09-40.865-21.836-34.542-120.77z"/><path fill="#001540" fill-opacity=".784" d="M765.079 471.001l-85.087 10.83-26.126 19.442 91.181 100.93z"/><path fill="#a5a9b4" fill-opacity=".929" d="M418.557 691.029L283.925 654.29l11.383-63.269-57.437 67.747z"/><path fill="#002b4f" fill-opacity=".404" d="M595.797 584.773l6.342 171.294 42.305-197.688-111.543 31.543z"/><path fill="#3e393d" fill-opacity=".298" d="M536.99 434.406l121.1-22.634-52.596-5.232-381.158 50.292z"/><path fill="#a25e48" fill-opacity=".855" d="M692.079 881.042l-14.599 66.67L691.084 1086l31.08-205.382z"/><path fill="#102c64" fill-opacity=".788" d="M217.616 714.013l4.303-108.506-55.55 148.869 47.44 7.817z"/><path fill="#265fce" fill-opacity=".6" d="M60.22 516.998l73.045 22.574 2.344 5.926-104.217-97.08z"/><path fill="#7b7f83" fill-opacity=".996" d="M467.654 781.613l-82.229 59.002-47.683-1.692 112.578-57.269z"/><path fill="#df7974" fill-opacity=".514" d="M348.314 311.89l50.176 4.388-27.68 20.911-50.42-13.7z"/><path fill="#cfcac5" fill-opacity=".914" d="M836.448 776.89l-61.845 138.337-79.013-64.356 24.76 34.554z"/><path fill="#bbcfff" fill-opacity=".353" d="M226.64 819.705l139.975-43.25-116.153 8.302-89.58 36.265z"/><path fill="#525356" fill-opacity=".694" d="M-62 71.962L265.694-62 120.315 57.237 79.953 72.07z"/><path fill="#001a76" fill-opacity=".227" d="M300.072 671.187l53.935 13.028-49.314 308.23-41.813 2.385z"/><path fill="#d00006" fill-opacity=".345" d="M516.207 926.01l88.816 16.326-129.303-24.642 58.049 72z"/><path fill="#972300" fill-opacity=".42" d="M659.036 320.082L898 302.746l-75.238 176.94-36.59-74.882z"/><path fill="#5f8322" fill-opacity=".431" d="M86.352 228.346l230.766 5.83-203.615 102.318-151.692 21.23z"/><path fill="#fa9c6d" fill-opacity=".341" d="M388.743 264.001l-29.518-83.322-31.526 119.495 16.047-37.201z"/><path fill="#010003" fill-opacity=".702" d="M882.98 900.569l-1.954 72.355-125.2 26.576 3.176-77.528z"/><path fill="#eaf2ff" fill-opacity=".298" d="M109.846 1066.253l75.97-210.009-22.197 33.93 112.561 69.801z"/><path fill="#f6fdff" fill-opacity=".408" d="M295.491 888.886l23.333-4.588 103.32-12.06-113.237 38.275z"/><path fill="#012572" fill-opacity=".604" d="M761.717 575.212l-48.19-152.728 92.76 154.305 69.052-87.86z"/><path fill="#cdcfe7" fill-opacity=".702" d="M74.54 500.232l16.251-16 14.354-35.719-43.576 11.705z"/><path fill="#322437" fill-opacity=".906" d="M662.485 941.169l-42.627-42.82 8.115-85.9 121.196-40.714z"/><path fill="#72878b" fill-opacity=".537" d="M676.105 544.713l-15.354-18.012-35.304 106.492 45.628-44.164z"/><path fill="#8b3d3a" fill-opacity=".635" d="M787.144 244.594l-247.677-5.245-91.337-27.39 428.332 1.194z"/><path fill="#000e2c" fill-opacity=".337" d="M361.618 899.74l125.175-54.198-48.666 49.293-41.116 4.523z"/><path fill="#001f62" fill-opacity=".353" d="M559.373 655.041L425.31 715.374l93.776 1.383-15.692-325.237z"/><path fill="#5d001a" fill-opacity=".447" d="M375.188 517.758l21.324 14.949-111.57-96.7-9.11 4.93z"/><path fill="#77797e" fill-opacity=".698" d="M196.48 484.447l12.12 31.727 7.964 135.353-39.353-6.944z"/><path fill="#281e37" fill-opacity=".373" d="M314.673 231.965l-1.707-93.444-115.37 20.138-27.774 89.443z"/><path fill="#d90406" fill-opacity=".592" d="M590.892 941.806l-27.506-21.261-35.92 14.791 40.779 3.022z"/><path fill="#ebf2ff" fill-opacity=".333" d="M439.08 514.327l83.119 57.676-91.242-19.246-72.623-64.76z"/><path fill="#838779" fill-opacity=".682" d="M40.027 470.742l-73.054 49.016L-62 285.15l153.302 97.217z"/><path fill="#071102" fill-opacity=".298" d="M475.822 757.64l-247.797 62.14 94.384 14.623 19.55-37.957z"/></svg>