<svg xmlns="http://www.w3.org/2000/svg" width="228" height="278" viewBox="0 0 836 1024"><path fill="#886b4f" d="M0 0h836v1024H0z"/><path fill="#1a0f16" fill-opacity=".659" d="M498.656 637.387L898 595.42l-97.692-288.867-248.49 198.088z"/><path fill="#0c1d36" fill-opacity=".573" d="M469.185-62L368.557 284.312l99.469 45.802L898 58.382z"/><path fill="#7092c3" fill-opacity=".522" d="M421.417 174.406L-62 607.516.253-62 430.79 4.08z"/><path fill="#b63913" fill-opacity=".694" d="M84.226 580.424l178.077-202.388 310.912 641.163L190.5 1086z"/><path fill="#ffd55f" fill-opacity=".431" d="M395.884 758.814l-73.388-322.56L-62 301.527l747.595-23.384z"/><path fill="#041300" fill-opacity=".506" d="M-62 544.86L5.585 721.834 88.97 610.609l355.576-175.006z"/><path fill="#7fadfd" fill-opacity=".286" d="M642.992 408.626L572.65 67.084 727.602-8.202 898 386.226z"/><path fill="#c8ff76" fill-opacity=".365" d="M174.217 676.5L-62 718.683v304.268l297.146 42.948z"/><path fill="#ff3738" fill-opacity=".749" d="M874.372 607.001l-237.421-5.303 12.444 102.363L898 727.083z"/><path fill="#a4ff78" fill-opacity=".455" d="M893.143 702.462l-200.07-2.92-12.656 353.176 180.076-22.79z"/><path fill="#261409" fill-opacity=".788" d="M510.328 59.778L384.76 312.36l106.102 31.084L576.1 195.48z"/><path fill="#1e1404" fill-opacity=".635" d="M693.864 1017.196l-20.427-194.172-116.552-373.567-13.955 144.76z"/><path fill="#ffe768" fill-opacity=".329" d="M520.449 561.84l96.468 268.216 9.196 252.65L421.518 820.74z"/><path fill="#b4bbb5" fill-opacity=".784" d="M552.294 474.2l-214.945 37.519-17.843 81.456 185.65 12.183z"/><path fill="#d38a00" fill-opacity=".49" d="M302.478 238.94L176.21 426.324l444.793 98.023 12.71-111.686z"/><path fill="#282c45" fill-opacity=".631" d="M384.178-57.84L115.892-62l49.578 179.535 194.968-30.822z"/><path fill="#ffffa8" fill-opacity=".294" d="M-62 287.865l452.842-40.255-188.973 161.875-44.326 136.726z"/><path fill="#653c00" fill-opacity=".62" d="M258.755 754.374l-77.331-290.885 125.434-110.596 59.597 409.563z"/><path fill="#d73a1d" fill-opacity=".506" d="M567.745 683.32l-19.524-54.922-444.71 152.354 204.491 122.257z"/><path fill="#ffd359" fill-opacity=".816" d="M495.448 422.345l149.061-51.08-60.676-89.182-63.366-8.638z"/><path fill="#f14141" fill-opacity=".651" d="M472.991 948.977L602.42 1086 477.05 809.94l-309.754-39.902z"/><path fill="#4f0006" fill-opacity=".78" d="M365.041 1032.616l-19.43-118.112 2.973-53.81L467.327 1086z"/><path fill="#ff5d4c" fill-opacity=".725" d="M235.781 611.655L104.302 723.482l-57.205-51.087 56.677-65.5z"/><path fill="#d5ae01" fill-opacity=".565" d="M223.395 418.619l-94.904-12.916-40.957 59.948 73.859 75.676z"/><path fill="#e2e3f7" fill-opacity=".42" d="M344.211 703.729L465.43 490.283l-92.51 8.43 75.37 157.884z"/><path fill="#7fcb6e" fill-opacity=".557" d="M543.65 954.216L623.018 1086l.6-319.494-124.808-48.3z"/><path fill="#241e10" fill-opacity=".455" d="M462.786 2.826L653.382 150.29l40.106 55.02L423.352 328.6z"/><path fill="#b03026" fill-opacity=".827" d="M156.255 731.606l151.674 110.35-185.64-.478 67.332 186.575z"/><path fill="#a9abb5" fill-opacity=".769" d="M186.881 307.772L51.45 222.542-62 402.078l275.727-7.04z"/><path fill="#d0dedd" fill-opacity=".616" d="M371.225 55.479L394.52-62l33.94 90.943-28.866 98.38z"/><path fill="#6c0000" fill-opacity=".443" d="M465.325 591.46l37.36 6.788-84.427 204.693 36.894-254.878z"/><path fill="#d2e02a" fill-opacity=".361" d="M183.986 605.622l33.753-118.827 9.813 196.674-136.025 133.51z"/><path fill="#51002c" fill-opacity=".478" d="M309.97 961.857l-1.033-73.396-94.288-53.195 45.847 248.925z"/><path fill="#223263" fill-opacity=".369" d="M310.508 251.627L93.805 135.014l33.215 187.56 94.845-271.378z"/><path fill="#2c180f" fill-opacity=".561" d="M527.573 593.154l136.32 298.24-46.611 74.713 22.469-342.292z"/><path fill="#0e0a08" fill-opacity=".639" d="M-62 801.712l208.527-265.75-60.351-60.73.302 30.216z"/><path fill="#ea4e4a" fill-opacity=".996" d="M324.608 789.535L370.822 1086l-67.579-43.708 8.173-55.426z"/><path fill="#4c5a67" fill-opacity=".859" d="M90.967 524.456L-39.538 342.248l3.479 262.988L-62 688.613z"/><path fill="#151d23" fill-opacity=".624" d="M625.192 404.85l7.082 169.787 237.04-.233L898 430.054z"/><path fill="#520602" fill-opacity=".329" d="M387.68 541.604l-35.124 257.801-112.848-183.844-94.75 186.617z"/><path fill="#8a8ea2" fill-opacity=".537" d="M898 177.304L531.346 46.252 700.123 163.47l-86.104 241.772z"/><path fill="#000d37" fill-opacity=".416" d="M792.252-62l-44.283 227.092L898 130.522V113.19z"/><path fill="#e4c946" fill-opacity=".745" d="M378.781 290.503l-61.617 78.512-119.445-37.84L343.03 226.778z"/><path fill="#5a617e" fill-opacity=".996" d="M441.043 219.348L350.173 44.48l5.265 122.897-31.568 51.852z"/><path fill="#7d3613" fill-opacity=".675" d="M260.655 472.893l154.947-49.226-23.053 83.633-69.99-94.513z"/><path fill="#f3c325" fill-opacity=".624" d="M178.361 945.17L219.046 1086l7.97-131.692-36.51-122.098z"/><path fill="#febe43" fill-opacity=".596" d="M426.849 868.185l-32.534-112.93 22.015-90.833 4.205 125.152z"/><path fill="#d5f5fb" fill-opacity=".192" d="M721.469 273.61l23.973 128.329-232.365-100.49 117.955-58.92z"/><path fill="#ff4a28" fill-opacity=".557" d="M527.396 603.304l-29.453-9.668-23.53 72.078L580.064 725z"/><path fill="#a9181b" fill-opacity=".718" d="M412.313 1001.82L596.118 1086 363.94 821.323l16.16 97.887z"/><path fill="#451a1e" fill-opacity=".294" d="M730.088 245.487l102.414 384.195-237.686-2.25 233.33-285.496z"/><path fill="#ff7058" fill-opacity=".318" d="M683.44 741.484l179.43-21.85-258.6-161.298 77.878 258.967z"/><path fill="#eca820" fill-opacity=".584" d="M605.286 410.635l-250.33-42.117 283.77-27.213-20.7 186.08z"/><path fill="#72ea80" fill-opacity=".255" d="M-37.9 1055.725L163.668 1086l-38.475-354.261L-62 707.462z"/><path fill="#cb93f9" fill-opacity=".4" d="M264.618 131.715l39.071 62.803 47.918-10.618-7.103-67.696z"/><path fill="#e9e4d3" fill-opacity=".682" d="M543.529 500.908l-45.97-3.527-6.799 15.692 24.671 85.187z"/><path fill="#92b464" fill-opacity=".898" d="M739.426 1086L898 769.448l-254.447-54.82-.195-26.595z"/><path fill="#1e1413" fill-opacity=".204" d="M449.29 602.677l-141.366 30.436 287.018-95.811-159.741-2.042z"/><path fill="#97b465" fill-opacity=".757" d="M506.389 824.603L733.71 1086H562.023l-15.62-114.54z"/><path fill="#65000f" fill-opacity=".502" d="M446.544 338.527l-65.681-31.118-26.01-92.454 134.803 132.429z"/><path fill="#1d1916" fill-opacity=".557" d="M367.343 33.375l-60.615 54.272-14.472-39.124L330.035-62z"/><path fill="#e6b945" fill-opacity=".824" d="M120.638 787.247l26.304-132.355 6.047 174.112-26.353 8.84z"/><path fill="#514d59" fill-opacity=".737" d="M683.966-62l-19.363 211.694-120.326-37.602L898-5.816z"/><path fill="#944315" fill-opacity=".388" d="M509.034 501.791L283.11 442.625l46.705 66.833 375.317-123.356z"/><path fill="#ff3d3a" fill-opacity=".573" d="M546.618 964.834l-59.259-149.759-10.82 69.93-103.686 48.83z"/><path fill="#2c1d12" fill-opacity=".749" d="M654.432 779.98l-116.87-252.417 145.684 439.214-24.274 52.725z"/><path fill="#92b365" fill-opacity=".773" d="M599.036 736.988l36.722 102.819-156.302-11.792 6.14-98.555z"/><path fill="#868397" fill-opacity=".498" d="M187.026 116.502l46.729 129.04-57.596 125.154-80.727 77.675z"/><path fill="#e0fe07" fill-opacity=".18" d="M260.488 739.661l-25.275 9.732 50.995-194.876 21.356 102.59z"/><path fill="#878188" fill-opacity=".498" d="M600.02 138.986l42.36 137.522 20.788 114.321-76.79-120.223z"/><path fill="#5c0003" fill-opacity=".502" d="M332.996 710.743L317.398 504.73l-22.977 187.04-99.881 127.49z"/><path fill="#9a8b0b" fill-opacity=".518" d="M135.886 528.127l69.51-12.534 16.178-184.3 86.784 22.421z"/><path fill="#120d06" fill-opacity=".427" d="M444.322 345.646L361.96 214.681l218.504 64.804 24.695-91.213z"/><path fill="#ff001a" fill-opacity=".216" d="M866.746 688.641l-216.262-8.165 15.897-92.356L898 587.079z"/><path fill="#5b68a0" fill-opacity=".392" d="M221.634 35.457L-62 27.545 278.434-60.13l22.836 329.309z"/><path fill="#9693a1" d="M788.307 265.439l13.653-78.012L898 147.264l-10.174 238.918z"/><path fill="#ffff97" fill-opacity=".384" d="M570.241 430.218l-47.264-150.97 75.036.87-84.349 251.226z"/><path fill="#a8e5e7" fill-opacity=".278" d="M402.574 610.035l-44.166-117.434-22.86 35.084-11.473 64.093z"/><path fill="#d2d4d6" fill-opacity=".388" d="M-59.465 335.872l157.327 69.426 52.295-41.906-65.557-59.29z"/><path fill="#cf8615" fill-opacity=".745" d="M477.616 743.871l-29.132 68.213 7.232-110.477 69.67-131.536z"/><path fill="#fcffd1" fill-opacity=".349" d="M374.596 743.653l-5.502 11.733 7.234-116.183 34.565-27.373z"/><path fill="#27190b" fill-opacity=".729" d="M622.66 499.634l13.774 31.979-94.832-29.017-11.636 83.085z"/><path fill="#fba760" fill-opacity=".459" d="M273.883 797.535l217.646-1.309-146.383 25.525-73.486-65.287z"/><path fill="#cfebff" fill-opacity=".165" d="M718.017 171.472L586.713 45.086l-31.62 44.895 181.592-7.546z"/><path fill="#500003" fill-opacity=".502" d="M232.115 745.944l20.814-297.8 27 22.084-14.666 158.141z"/><path fill="#4f0000" fill-opacity=".455" d="M483.498 883.147L338.224 941.78l94.563 30.64-86.123-69.636z"/><path fill="#7000b3" fill-opacity=".216" d="M511.232 385.323l-.315 99.04 9.249 19.148 38.33-83.453z"/><path fill="#11091b" fill-opacity=".373" d="M150.506 589.087l32.726 12.516 18.65-68.566-138.802-.343z"/><path fill="#c5cec2" fill-opacity=".525" d="M468.792 621.193L341.35 507.02l78.388-13.665 38.555 158.216z"/><path fill="#5c84b9" fill-opacity=".302" d="M54.727-62l148.677 203.778L65.58 217.939-30.271-62z"/><path fill="#7a0e00" fill-opacity=".525" d="M430.444 684.939l63.343-94.637-19.74 93.314-59.217 77.165z"/><path fill="#a35e06" fill-opacity=".941" d="M604.742 511.345l1.37-109.79-36.354 27.364-25.655 75.539z"/><path fill="#ff8a16" fill-opacity=".345" d="M493.15 487.53l-141.24-71.873 119.05-61.189 44.427-67.145z"/><path fill="#010729" fill-opacity=".18" d="M199.436 113.11l28.813 118.164 70.923-6.77L128.196-62z"/><path fill="#903614" fill-opacity=".992" d="M382.723 596.937L282.699 764.974l-59.305 11.335 134.773-44.451z"/><path fill="#ff0743" fill-opacity=".267" d="M188.959 623.117l-58.073 75.471-67.608-71.501 77.397-57.794z"/><path fill="#9d94fc" fill-opacity=".231" d="M44.207 724.838L-62 767.512l89.806-68.518 80.49-110.177z"/><path fill="#384045" fill-opacity=".788" d="M766.633 301.449l-10.662 94.035-116.88 12.868 209.422 17.055z"/><path fill="#696d56" fill-opacity=".525" d="M619.646 551.833l96.688 518.184-105.39-467.39-22.68-94.536z"/><path fill="#092751" fill-opacity=".192" d="M467.906 561.602l.015-40.533-68.405 67.328-75.762-41.292z"/><path fill="#ea4643" fill-opacity=".839" d="M340.5 828.718l-38.385-40.366 115.942 114.809-154.907-62.407z"/><path fill="#90b162" fill-opacity=".965" d="M864.455 1086l-280.86-100.382 66.034 42.337 138.348-208.472z"/><path fill="#614e38" fill-opacity=".42" d="M534.025 184.994L637.178 38.431l-58.494 220.628 145.672-46.84z"/><path fill="#ffff63" fill-opacity=".2" d="M340.494 462.268l25.119 5.55-32.279 268.578 1.678-84.964z"/><path fill="#d6b31e" fill-opacity=".2" d="M248.612 732.891l-123.442-34.95L260.913 528.38l-88.49 326.955z"/><path fill="#cec2bd" fill-opacity=".427" d="M446.111 586.693l-90.588 110.178 104.064-46.094-24.79 31.4z"/><path fill="#3a4149" fill-opacity=".518" d="M410.36 118.57l40.186-172.65L735.603 3.139 549.827 69.397z"/><path fill="#130500" fill-opacity=".267" d="M526.676 81.038l103.039 104.045-106.475 15.51 194.58 3.25z"/><path fill="#fafff9" fill-opacity=".282" d="M389.849 539.389l22.903-41.834 93.936-6.88 38.923 40.876z"/><path fill="#170000" fill-opacity=".227" d="M398.277 822.635l-15.331 67.566-16.06-37.307-17.288-33.454z"/><path fill="#bc0415" fill-opacity=".282" d="M462.197 402.12l17.912 50.157-41.339 69.502 5.802-113.42z"/><path fill="#212122" fill-opacity=".655" d="M435.38 37.384L606.444-62H407.475L601.88 54.487z"/><path fill="#c09e22" fill-opacity=".98" d="M95.268 478.717l35.337 41.876 11.09 1.004L254.53 382.635z"/><path fill="#543800" fill-opacity=".49" d="M342.142 498.244l-97.35-91.065-60.366 114.75 139.894 21.44z"/><path fill="#86100f" fill-opacity=".522" d="M172.336 722.996l-26.599 173.928L268.255 537.35l-33.65 193.99z"/><path fill="#292111" fill-opacity=".494" d="M638.814 959.473l16.375-79.82-18.867-32.566-22.193 18.767z"/><path fill="#ffea7c" fill-opacity=".286" d="M220.042 335.688L96.906 474.395l57.13 46.096-83.809-51.959z"/><path fill="#9e1b1d" fill-opacity=".816" d="M241.663 885.665l-2.733 155.588-28.571-183.868 81.297-38.154z"/><path fill="#6b0000" fill-opacity=".357" d="M360.574 957.053l131.397 40.194 11.536 43.532 12.455-82.624z"/><path fill="#3e0000" fill-opacity=".322" d="M542.323 519.452l-41.372 144.083 27.046-51.525 107.451 193.605z"/></svg>