<svg xmlns="http://www.w3.org/2000/svg" width="228" height="278" viewBox="0 0 836 1024"><path fill="#35312b" d="M0 0h836v1024H0z"/><path fill="#bf7d50" fill-opacity=".8" d="M366.29 90.728L497.238 62.06l-20.995 268.957-83.992 35.562z"/><path fill="#7e77a0" fill-opacity=".561" d="M55.181 836.645L-62 1077.393l289.924-39.604 14.794-268.153z"/><path fill="#a7c7ff" fill-opacity=".212" d="M220.824 19.45L-62 227.128v229.72L82.177 368.87z"/><path fill="#8c8d5a" fill-opacity=".475" d="M293.153 540.39l237.195 61.56L194.66 715.46l-57.76-43.034z"/><path fill="#0d0a01" fill-opacity=".655" d="M898 928.53L519.267-62l112.095 740.646-.38 271.03z"/><path fill="#fdb680" fill-opacity=".537" d="M777.421 542.26L898 641.98l-78.829 19.567-73.07-99.082z"/><path fill="#040600" fill-opacity=".733" d="M7.013 611.924L-6.983 449.45l201.793-25.978 74.34 188.818z"/><path fill="#17191a" fill-opacity=".788" d="M395.374 304.322L-62 262.451l313.004-47.013 211.508 58.863z"/><path fill="#1d1203" fill-opacity=".616" d="M863.004-62L452.806-5.047l305.4 493.102L875.63 653.108z"/><path fill="#744a49" fill-opacity=".992" d="M173.904 916.526L7.226 960.16-53.11 775.259l126.497 1.49z"/><path fill="#3c69dd" fill-opacity=".4" d="M642.905 1034.232l191.948-100.605L842.66 1086 617.221 934.512z"/><path fill="#6d6768" fill-opacity=".612" d="M678.535 620.984l36.03 36.97-94.569 67.97-9.28-114.58z"/><path fill="#f1a262" fill-opacity=".576" d="M392.9 366.474l-39.058-16.349-6.757-42.182 145.177-5.733z"/><path fill="#f0e2ab" fill-opacity=".337" d="M82.918 353.783l-96.906-24.954 53.94-67.289 50.658 19.558z"/><path fill="#0f0c01" fill-opacity=".792" d="M137.883 528.27l39.118 274.467-74.802 16.97-30.914-56.03z"/><path fill="#2e1502" fill-opacity=".612" d="M200.218-35.693L82.2-62l251.186 229.205 97.422-28.82z"/><path fill="#1c326a" fill-opacity=".616" d="M92.35 9.523L179.5 25.76l-39.64 90.48L-62 381.238z"/><path fill="#1c1e1a" fill-opacity=".957" d="M231.142 444.084L368.596 266.82l-3.721-85.235L77.642 265.45z"/><path fill="#00051e" fill-opacity=".396" d="M332.348 1086l-176.58-201.764 233.202-150.62-159.25-37.873z"/><path fill="#000100" fill-opacity=".408" d="M565.54 248.576l-111.222 5.003 123.57 209.764L898 990.352z"/><path fill="#ff9e8c" fill-opacity=".125" d="M674.12 101.32l71.591 179.483L212.674 136.57l391.819 32.828z"/><path fill="#434b48" fill-opacity=".494" d="M416.517 905.253L262.007 409.93l333.133-26.812-69.758 572.72z"/><path fill="#c9eecd" fill-opacity=".239" d="M225.174 1010.926L-59.635 905.508l20.544 177.546 206.532-165.55z"/><path fill="#5b86e1" fill-opacity=".208" d="M63.518 637.485l42.363-20.58-49.194 253.827L-62 651.142z"/><path fill="#f7e974" fill-opacity=".212" d="M147.574 645.737l101.11-46.482 60.108-100.843-56.373 214.813z"/><path fill="#99784a" fill-opacity=".647" d="M364.184 31.973l9.372-75.005 100.263 80.195-361.652-75.808z"/><path fill="#f4b076" fill-opacity=".753" d="M394.194 78.996l72.423-.615 28.062 21.174-56.87 34.228z"/><path fill="#5e3215" fill-opacity=".635" d="M809.312 588.223l-88.028-38.775 67.06 157.073 25.575-94.208z"/><path fill="#1a59ce" fill-opacity=".255" d="M232.77 1083.72l-143.9-11.84 134.307-372.775 17.104 66.627z"/><path fill="#ffad38" fill-opacity=".114" d="M267.733 168.606L90.325 243.083l-45.054-34.58L362.951-62z"/><path fill="#e1fcdc" fill-opacity=".412" d="M846.852 630.626l10.317 6.062-56.746 49.807 27.872-107.88z"/><path fill="#00000c" fill-opacity=".416" d="M50.343-62l40.244 184.249 86.035 68.174L-62 123.232z"/><path fill="#110800" fill-opacity=".725" d="M305.707 50.46l11.504 88.217 130.606-113.81-40.453-4.418z"/><path fill="#00041a" fill-opacity=".349" d="M689.354 1054.954L780.41 1086l-90.53-374.126-136.28-34.855z"/><path fill="#fb8" fill-opacity=".302" d="M448.434 141.704L422.4 367.435l42.533-46.249L492.9 166.13z"/><path fill="#e8db9a" fill-opacity=".333" d="M359.917 652.185l24.24-29.362-117.823-24.015 113.03-10.574z"/><path fill="#362c1b" d="M720.461 508.37l-66.097-142.587 49.706-53.399 131.548 130.94z"/><path fill="#683424" fill-opacity=".694" d="M391.358 253.365l60.589-68.026-15.471-12.17-8.369-50.854z"/><path fill="#624a2c" fill-opacity=".518" d="M-62 327.673l286.41 35.47-48.735 31.433-54.565 60.283z"/><path fill="#000100" fill-opacity=".408" d="M845.767 502.366l-273.48 143.808 22.773-204.289L898 470.576z"/><path fill="#6d3d2d" fill-opacity=".518" d="M781.293 208.118L898 184.513l-111.258-76.985-25.34 27.079z"/><path fill="#000808" fill-opacity=".447" d="M510.398 119.922l28.228 56.606L788.033 34.112 467.303-62z"/><path fill="#0e160f" fill-opacity=".42" d="M497.885 977.48l-223.18-148.184-16.623-234.428 52.315 176.988z"/><path fill="#0e110b" fill-opacity=".549" d="M269.731 602.36l-1.528-116.55-157.92 163.766L388.73 538.084z"/><path fill="#c0ebf6" fill-opacity=".157" d="M136.684 181.491l22.74-7.559L-62 192.86l188.01 45.623z"/><path fill="#ebd485" fill-opacity=".4" d="M241.229 588.347l63.923-57.13 2.698 22.551-24.587 27.851z"/><path fill="#5d615b" fill-opacity=".537" d="M386.683 850.6l36.769.466 89.42-4.885-27.304 104.086z"/><path fill="#8a8f99" fill-opacity=".478" d="M350.237 420.23l-43.843 12.144-85.14-5.487 123.036-18.43z"/><path fill="#f4fdcf" fill-opacity=".18" d="M620.96 854.789l-5.663 44.076 16.492 161.154 9.075-70.416z"/><path fill="#99a4ab" fill-opacity=".122" d="M319.31 313.444l-86.51 38.652-24.742-304.031-136.083-17.57z"/><path fill="#34372b" fill-opacity=".667" d="M278.229 609.387l65.203 2.674 142.86 279.155-144.831-118.818z"/><path fill="#d6cec9" fill-opacity=".369" d="M482.622 418.275l9.811 10.367 24.795-36.365 22.5 30.718z"/><path fill="#636e69" fill-opacity=".494" d="M420.58 1017.371l-57.012-3.85 14.71-31.047 127.256 21.258z"/><path fill="#010605" fill-opacity=".627" d="M875.363 397.98L767.29 380.33l-37.235-72.442 166.274-83.29z"/><path fill="#0b0d0b" fill-opacity=".761" d="M223.634 1086l58.001-319.502 177.866 173.551-204.264-224.572z"/><path fill="#5c0d18" fill-opacity=".333" d="M-62 955.966l118.934-33.152 130.29-53.812L-62 836.598z"/><path fill="#d7c270" fill-opacity=".208" d="M40.706 856.063l150.8-62.995-23.602 70.264-141.026-69.696z"/><path fill="#ff7b42" fill-opacity=".239" d="M763.72 528.53L898 644.75v-48.2l-174.107 1.105z"/><path fill="#3f1c00" fill-opacity=".318" d="M203.87 185.296L90.384 139.37l250.297.46 76.567 196.388z"/><path fill="#f9da9c" fill-opacity=".2" d="M273.72-62L500.148 43.545l-18.26 199.215-1.522-186.592z"/><path fill="#c9af64" fill-opacity=".216" d="M217.03 969.604L-62 938.878-28.593 1086 139.21 884.907z"/><path fill="#000e47" fill-opacity=".467" d="M95.784 695.55l-21.451 95.313 17.224-15.592L-62 750.547z"/><path fill="#0e100b" fill-opacity=".714" d="M245.355 501.727l28.963 65.547-66.813 62.273-.28-144.698z"/><path fill="#d9c84b" fill-opacity=".169" d="M337.687 675.17l-209.768 34.441 33.03-62.779 185.526 72.737z"/><path fill="#141814" fill-opacity=".702" d="M536.378 1011.958l-294.612 11.437L779.337 1086l-200.332-89.141z"/><path fill="#8fa5ec" fill-opacity=".259" d="M898 950.994L822.858 1086l-38.845-90.152 11.698-19.256z"/><path fill="#090707" fill-opacity=".451" d="M441.08 130.08l26.517 16.045L580.72 76.941l34.481 33.455z"/><path fill="#b8b27b" fill-opacity=".137" d="M-62 726.553l199.566-165.27-2.855-155.11-39.246 270.78z"/><path fill="#0c0d03" fill-opacity=".553" d="M628.48 839.086L713.034 657.7 898 685.228V816.2z"/><path fill="#201b0f" fill-opacity=".792" d="M523.651 527.337l109.466-312.872L659.285-62 637.065-.176z"/><path fill="#44abe5" fill-opacity=".137" d="M581.186 159.568l23.653 50.023-91.078 33.86-33.62-54.398z"/><path fill="#111817" fill-opacity=".369" d="M532.021 540.524l-231.11-230.965L89.333 453.54l260.075-46.776z"/><path fill="#d96f58" fill-opacity=".341" d="M303.424 120.434l26.04 20.309-45.113-6.438 44.051 67.998z"/><path fill="#092e82" fill-opacity=".498" d="M116.316 981.114l-71.804 62.623L77.678 1086l97.874-70.075z"/><path fill="#ff9432" fill-opacity=".122" d="M752.029 917.291l-18.328-77.23 65.704-10.436 12.161 64.988z"/><path fill="#feab6f" fill-opacity=".078" d="M674.588 601.595l-79.62-3.48 42.58 88.863 203.083 10.088z"/><path fill="#a5765a" fill-opacity=".157" d="M742.452 313.34l-3.369 34.81-248.79-48.633 244.131 97.038z"/><path fill="#010c10" fill-opacity=".345" d="M173.775 452.668l-20.827-250.294 208.184 95.407-79.864-171.289z"/><path fill="#241c00" fill-opacity=".655" d="M107.291 828.852l85.554-39.776-2.667-53.678-41.059-74.563z"/><path fill="#030c23" fill-opacity=".494" d="M17.3 155.888L98.117 30.927l142.941-11.345L77.76-62z"/><path fill="#19211d" fill-opacity=".388" d="M631.225 853.093l-51.607-604.924-24.523 562.885L573.909 1086z"/><path fill="#001c71" fill-opacity=".298" d="M764.332 932.428l-107.835 99.741 86.899 29.232 72.225-137.994z"/><path fill="#281701" fill-opacity=".784" d="M460.842 274.547l-117.987-7.474L320.1 63.405l69.109 248.19z"/><path fill="#090d09" fill-opacity=".502" d="M626.658 756.493l197.239-159.188-61.318 88.586-52.285 372.221z"/><path fill="#f1f6ff" fill-opacity=".376" d="M156.47 666.114l16.06-31.351-.598 83 3.72-23.46z"/><path fill="#333631" fill-opacity=".804" d="M523.468 281.594L237.262 501.123l292.32-138.975-264.147 247.658z"/><path fill="#111611" fill-opacity=".455" d="M483.657 237.9l-15.873 25.798 33.533 135.083L655.864 223.68z"/><path fill="#48290f" fill-opacity=".816" d="M488.917 78.013l4.386-7.573-51.534-40.713-35.965 33.384z"/><path fill="#454944" fill-opacity=".741" d="M335.443 564.514l201.052 176.622 32.911-23.813-131.08-253.454z"/><path fill="#5a6995" fill-opacity=".471" d="M250.4 804.024L160.6 846.1l37.84-83.786 30.76-33.854z"/><path fill="#cdba91" fill-opacity=".522" d="M411.488 12.403L390.034-62h107.142l-144.69 83.99z"/><path fill="#8c4128" fill-opacity=".224" d="M708.634 250.693l-50.624.922-42.63-141.975 46.26-40.52z"/><path fill="#121005" fill-opacity=".875" d="M738.689 206.93l19.556-146.514L686.47-57.887l5.827 169.54z"/><path fill="#f5e6a9" fill-opacity=".165" d="M121.864 307.465l-20.803 44.546-47.595-78.195-38.112 80.371z"/><path fill="#e39a61" fill-opacity=".435" d="M482.039 93.522l-.743 32.731-113.78-8.47 38.058-45.052z"/><path fill="#00154f" fill-opacity=".259" d="M249.677 300.993L-62 268.79l98.557 118.033-71.074-186.332z"/><path fill="#2e3330" fill-opacity=".718" d="M195.05 478.317l176.17 104.029-76.089-142.247-105.076-16.038z"/><path fill="#fff8dc" fill-opacity=".157" d="M291.46 618.43l-4.823-82.548-31.063 63.435 106.485-8.562z"/><path fill="#e18648" fill-opacity=".267" d="M320.4 339.308l83.377 19.683 15.065-35.18-56.672-31.382z"/><path fill="#0b56ff" fill-opacity=".098" d="M62.182 123.434l105.481 4.501 25.83-91.432L46.629 52.207z"/><path fill="#050808" fill-opacity=".533" d="M483.129 32.24l61.934 143.041 77.302-114.982L267.914-62z"/><path fill="#ecf5d0" fill-opacity=".255" d="M772.176 529.999l56.98 87.371-31.579 25.066 96.58 19.143z"/><path fill="#080600" fill-opacity=".463" d="M261.162 716.83l4.062-184.749 10.34 265.212-44.665-79.842z"/><path fill="#202420" fill-opacity=".784" d="M276.363 902.34l-29.991-150.562 96.897 226.64L192.694 1086z"/><path fill="#593e24" fill-opacity=".714" d="M402.823-13.02l-86.77 25.359-94.683 187.247-77.61-13.863z"/><path fill="#a2cee7" fill-opacity=".094" d="M607.27 747.586l79.754-55.005-61.325-72.806 2.153 462.063z"/><path fill="#3b370c" fill-opacity=".722" d="M216.994 724.235l-86.655-44.605 47.963 80.438-.2-103.101z"/><path fill="#7d8187" fill-opacity=".482" d="M351.506 406.072l14.797 25.233-107.882-6.934-24.215 23.242z"/><path fill="#fcef68" fill-opacity=".376" d="M364.159 631.7l-12.298 7.335 24.56 12.265 8.735-15.104z"/><path fill="#4f5b5f" fill-opacity=".278" d="M403.409 892.618l-2.794-6.084-94.858-96.818-11.603 55.26z"/><path fill="#735030" fill-opacity=".431" d="M65.608 410.27l-72.351 16.018 85.711-106.534 70.07 101.684z"/><path fill="#646138" fill-opacity=".878" d="M239.197 638.814l112.73 62.401-49.284 15.442-63.302-115.174z"/><path fill="#080a07" fill-opacity=".808" d="M79.65 443.107L-62 612.56l251.804-46.266-33.38 93.281z"/><path fill="#f7f5d3" fill-opacity=".184" d="M288.638 662.1l-60.572-32.634-48.222 1.763-25.462 13.996z"/><path fill="#230006" fill-opacity=".314" d="M455.015 229.001l-17.748-56.536-19.076 13.375 52.598 14.17z"/><path fill="#111616" fill-opacity=".686" d="M433.472 960.345l73.399-6.686-26.477 41.301-71.909-21.82z"/><path fill="#ffc8af" fill-opacity=".231" d="M491.932 185.94l-3.488-58.14-64.26 154.802 5.744-82.89z"/><path fill="#fbcb8a" fill-opacity=".298" d="M474.111 25.744l-90.01-17.56 61.62 3.203 49.415 58.769z"/><path fill="#002a61" fill-opacity=".239" d="M503.809 70.142L487.83 214.279l-20.767 78.112 81.644-128.806z"/><path fill="#583520" fill-opacity=".514" d="M294.144 65.152l70.969 261.611-36.96 14.462 3.543-107.926z"/></svg>