<svg xmlns="http://www.w3.org/2000/svg" width="228" height="278" viewBox="0 0 836 1024"><path fill="#4d534a" d="M0 0h836v1024H0z"/><path fill="#dce8fa" fill-opacity=".62" d="M610.647 543.383L125.757 435.12l11.887-42.719 471.843 78.566z"/><path fill="#d5d9e4" fill-opacity=".549" d="M673.9 1086l-608.718-78.6 417.406-15.128 195.313-238.798z"/><path fill="#e2d6d3" fill-opacity=".545" d="M357.501 180.427l169.093 15.59L182.42 324.975 425.683 381.8z"/><path fill="#829195" fill-opacity=".996" d="M654.319 895.985l-471.52-191.32 400.68 42.411L404 945.651z"/><path fill="#f3b7a0" fill-opacity=".463" d="M441.602 562.717l-202.466 13.42L-62 616.66l662.176 49.945z"/><path fill="#050000" fill-opacity=".451" d="M118.122 343.827L898 25.727 10.737-62-62 289.324z"/><path fill="#232624" fill-opacity=".937" d="M898 654.532L748.927 950.077l-89.83-164.494-70.528-241.227z"/><path fill="#012614" fill-opacity=".694" d="M77.114 771.159L394.23 885.137l185.941-22.944-19.21-50.441z"/><path fill="#d0875d" fill-opacity=".592" d="M140.696 508.233l-70.568-15.581L-62 624.456 66.93 820.072z"/><path fill="#bac3d0" fill-opacity=".702" d="M513.507 386.303l177.878 35.463-156.433-117.76 7.139 54.84z"/><path fill="#262d29" fill-opacity=".992" d="M254.87 665.225L-21.973 931.158-24.01 1086H82.344z"/><path fill="#cceaff" fill-opacity=".306" d="M190.332 928.106l-22.347-85.61 399.373 56.512-100.743 36.62z"/><path fill="#002b12" fill-opacity=".71" d="M364.94 629.147l-189.955 64.449 306.248 38.055 145.537-13.07z"/><path fill="#7a6a5f" fill-opacity=".992" d="M543.904 841.856L721.164 1086h72.717L898 981.674z"/><path fill="#00361e" fill-opacity=".627" d="M588.144 536.928L272.027 496.25l46.778-165.024-153.493 257.696z"/><path fill="#2f332a" fill-opacity=".78" d="M820.853-62L431.96 429.84l49.995-183.312L898 551.901z"/><path fill="#9aa5ad" fill-opacity=".824" d="M453.82 807.666l134.338-15.713-315.573-91.507-65.869 63.173z"/><path fill="#c8d9e1" fill-opacity=".843" d="M160.681 976.102l228.494 50.972-152.355-16.623-93.875 75.402z"/><path fill="#ffbfa0" fill-opacity=".329" d="M416.324 143.2l-56.274 6.173L330.604 402.1l182.841-182.522z"/><path fill="#8a9598" fill-opacity=".788" d="M184.85 318.885L320.889 499.75l-184.52-76.114-15.309-20.804z"/><path fill="#e1e8f3" fill-opacity=".882" d="M334.13 310.043l14.96-72.77 3.295 14.643 76.623 87.631z"/><path fill="#adc9e0" fill-opacity=".553" d="M505.588 587.622l69.962 23.574-21.134 57.149-147.223-16.104z"/><path fill="#01462a" fill-opacity=".647" d="M252.095 994.152L91.641 905.663l449.605 54.713-193.059 44.567z"/><path fill="#bec5c2" fill-opacity=".725" d="M669.535 798.929l-60.309 35.02L469.8 906.934l230.222-38.049z"/><path fill="#e0e3f9" fill-opacity=".404" d="M319.902 422.467L256.5 493.364l305.925 15.13 130.084-11.075z"/><path fill="#003b29" fill-opacity=".498" d="M250.469 177.817l99.573 130.522-157.056 32.999 109.968 126.984z"/><path fill="#2c1800" fill-opacity=".294" d="M280.227 427.914L-5.598 682.134l166.335 12.438 52.048 153.755z"/><path fill="#d7e2fb" fill-opacity=".396" d="M477.03 1086H357.32l218.493-183.019 98.62 128.396z"/><path fill="#e3efff" fill-opacity=".565" d="M147.174 372.214l73.458-76.811 86.287 67.658-36.081-69.975z"/><path fill="#48413d" fill-opacity=".992" d="M666.184 980.406L573.52 901.15l37.713.179-29.753-115.98z"/><path fill="#f8b18b" fill-opacity=".294" d="M182.132 670.943L-62 461.718l5.477 175.73 549.407-77.04z"/><path fill="#12392b" fill-opacity=".788" d="M606.811 884.105L449.088 992.25l-53.153-12.33 162.196-83.417z"/><path fill="#a4adba" fill-opacity=".627" d="M424.408 579.864l-137.49 13.986-44.937 2.904-26.224-32.549z"/><path fill="#451100" fill-opacity=".29" d="M448.654 214.677l-117.695 8.218 116.589 130.516 122.664 16.498z"/><path fill="#704e0b" fill-opacity=".592" d="M-25.524 303.502l118.42 17.24 8.535 85.236L-1.354 529.21z"/><path fill="#c9e7f0" fill-opacity=".376" d="M169.075 942.18l9.858-84.207 137.953 76.493-137.53-19.478z"/><path fill="#012c1a" fill-opacity=".592" d="M199.544 427.823l-15.737 15.117 7.138 159.789 93.663-58.98z"/><path fill="#7d9790" fill-opacity=".992" d="M192.11 500.42L89.824 465.529l148.64-83.889-105.52 71.072z"/><path fill="#283d2e" fill-opacity=".655" d="M580.507 474.19l102.728 17.965L552.94 610.09l158.172-240.2z"/><path fill="#27452e" fill-opacity=".98" d="M396.813 548.06l180.65 55.121-11.542 246.175 34.703-306.583z"/><path fill="#b18870" fill-opacity=".298" d="M37.68 683.338l182.153 110.898-162.837 26.57-95.197 115.393z"/><path fill="#99a686" fill-opacity=".196" d="M898 292.58L691.527 594.794 648.18 489.85l139.985-173.52z"/><path fill="#092113" fill-opacity=".788" d="M201.821 842.085l31.985-68.537 251.493 45.95-110.067 51.953z"/><path fill="#0e5135" fill-opacity=".686" d="M568.701 458.198l-217.178-70.759L228.8 320.104l30.76 94.2z"/><path fill="#a2bfd4" fill-opacity=".518" d="M499.836 399.975l2.819 39.232-102.901-94.51-210.734-36.545z"/><path fill="#eaefff" fill-opacity=".361" d="M262.065 456.048l-70.413-43.542 29.536-50.567 52.773 85.386z"/><path fill="#f3f0ff" fill-opacity=".29" d="M565.243 374.316l69.673-21.233 47.889 106.239L523.138 281.27z"/><path fill="#010a13" fill-opacity=".31" d="M251.542 163.201L204.007 22.768-44.58 109.837l147.83 335.792z"/><path fill="#b4bac2" fill-opacity=".596" d="M578.649 781.35l-10.769-45.591-133.937 10.14 80.923 58.983z"/><path fill="#18250d" fill-opacity=".353" d="M290.451 663.662l-349.998 3.278 489.627 61.654-35.899-152.793z"/><path fill="#ffbf91" fill-opacity=".263" d="M700.032 881.522L552.696 754.195l97.313 161.494 144.265 118.43z"/><path fill="#4e635d" d="M472.397 404.413l-107.44-74.571 147.364 31.993-202.242 26.895z"/><path fill="#eaf2fe" fill-opacity=".412" d="M253.145 786.475l65.26-81.343 5.746.625-90.17 12.34z"/><path fill="#51270d" fill-opacity=".529" d="M598.89 768.918l66.46 50.546-91.502-196.728-10.52 180.897z"/><path fill="#de9f70" fill-opacity=".353" d="M415.358 301.631l12.458-217.474-72.304 160.152 154.25-40.878z"/><path fill="#1a4130" fill-opacity=".682" d="M418.161 379.524l-193.81-21.31-42.64 70.008-2.86-53.775z"/><path fill="#47402f" fill-opacity=".749" d="M685.898 70.923L413.097 190.299 437.187 76.1l136.81 265.606z"/><path fill="#16271b" fill-opacity=".388" d="M898 443.006l-159.974 50.96L887.623 1086l-77.798-528.45z"/><path fill="#033924" fill-opacity=".616" d="M189.844 670.68l52.319 24.504L211.92 810.61l-28.358 96.29z"/><path fill="#120c06" fill-opacity=".467" d="M481.945 12.959l92.17 124.654-49.443 76.352L402.085 34.616z"/><path fill="#b8c0cc" fill-opacity=".675" d="M536.182 632.463L365.51 649.048l205.599 10.9-2.69-34.104z"/><path fill="#dadfe8" fill-opacity=".761" d="M445.009 353.167L345.844 246.39l-21.307 43.542 30.661 12.511z"/><path fill="#545e55" fill-opacity=".718" d="M139.805 929.318L89.83 966.343l28.64 83.153 48.842 5.438z"/><path fill="#272d2a" fill-opacity=".945" d="M898 276.176l-116.634 8.451L582.951-62 840.429 41.998z"/><path fill="#c5a089" fill-opacity=".702" d="M-62 642.518L76.664 489.465l47.196 17.063-101.28 60.387z"/><path fill="#6d8f87" fill-opacity=".561" d="M609.763 506.898L539.052 439l28.306-87.219 23.177 29.709z"/><path fill="#2b2f36" fill-opacity=".573" d="M678.626 786.017l182.867-36.566-97.897 231.023-43.297-67.86z"/><path fill="#255f47" fill-opacity=".612" d="M474.821 605.045l68.354 35.077L396.32 505.833l178.35 26.004z"/><path fill="#b66535" fill-opacity=".365" d="M-62 500.879l124.301 46.9 60.063 124.143 211.597-16.628z"/><path fill="#1b2126" fill-opacity=".486" d="M371.397 208.815L-62 49.865l365.569 276.913-17.903 26.444z"/><path fill="#daebff" fill-opacity=".467" d="M482.01 1086l-3.607-70.436-217.499 1.447 116.667-21.841z"/><path fill="#c2cbe3" fill-opacity=".612" d="M335.85 364.881l53.922 12.482 2.126-26.138-180.23-47.223z"/><path fill="#5e331e" fill-opacity=".624" d="M725.035 979.925l47.212 23.797 34.157 66.502-125.576-83.975z"/><path fill="#7d7974" fill-opacity=".706" d="M890.268 791.592L898 978.088 774.13 1086l23.4-167.958z"/><path fill="#3a5354" fill-opacity=".325" d="M94.948 847.367l330.206 25.952-44.06 92.445-274.049-258.136z"/><path fill="#032713" fill-opacity=".6" d="M659.652 425.679l38.828-103.67-70.88 171.309-24.53-87.001z"/><path fill="#14130d" fill-opacity=".62" d="M495.892 381.416l52.748-124.227-28.322 54.125 32.188 42.241z"/><path fill="#cdd7f1" fill-opacity=".431" d="M619.182 860.018l11.549-7.884-164.314 89.087 5.356-60.484z"/><path fill="#000501" fill-opacity=".141" d="M515.894 1012.035l65.935-10.72-63.145-70.943-304.717 63.05z"/><path fill="#ffad80" fill-opacity=".208" d="M581.27 222.97l3.198-114.03-33.203 89.497-151.482 64.94z"/><path fill="#f1b397" fill-opacity=".333" d="M629.68 755.958l-24.058-122.69 25.245 74.719 37.507 94.273z"/><path fill="#401c01" fill-opacity=".278" d="M117.105 533.282l118.901 88.72 77.216-13.245-238.84-49.192z"/><path fill="#ced3de" fill-opacity=".816" d="M675.517 1056.343l-75.584-132.95-54.707 19.457L725.83 1086z"/><path fill="#eafefa" fill-opacity=".384" d="M189.712 350.75l-23.42-12.667 93.155-44.863 8.69 5.239z"/><path fill="#ceffff" fill-opacity=".094" d="M427.781-48.634l233.296 164.678L293.627-62l158.216 90.48z"/><path fill="#1a1d1a" fill-opacity=".855" d="M898 714.168l-299.366-97.105 73.797 178.38 32.913-41.784z"/><path fill="#d5daea" fill-opacity=".592" d="M532.698 525.192l27.366 3.442-11.11-68.422-213.107-22.557z"/><path fill="#1b1413" fill-opacity=".384" d="M180.538 847.912l-14.273 66.496L-42.93 1086 63.033 801.445z"/><path fill="#19734c" fill-opacity=".647" d="M77.445 462.612l118.741 94.579-4.837-20.673 23.245-29.597z"/><path fill="#d3ddfa" fill-opacity=".282" d="M67.866 595.139L-62 572.012l92.476-48.047L1.921 634.594z"/><path fill="#eae6fc" fill-opacity=".239" d="M220.591 816.841l-12.722 77.253 193.874 54.047-221.286-40.115z"/><path fill="#f0f8fe" fill-opacity=".682" d="M367.396 330.053l-32.917-36.904 15.154-55.29 8.106-1.774z"/><path fill="#0f452a" fill-opacity=".655" d="M579.606 790.937l9.858 57.395-148.312 32.102-36.08-47.359z"/><path fill="#fc8105" fill-opacity=".133" d="M404.02-62L246.758 55.397 89.488-29.038l348.836 56.254z"/><path fill="#845234" fill-opacity=".392" d="M372.75 300.712l164.492-157.97-211.691 10.797 169.867-36.623z"/><path fill="#252f2e" fill-opacity=".933" d="M171.047 76.593l150.156 228.14L97.69 189.296l254.944 133.126z"/><path fill="#0b351d" fill-opacity=".725" d="M393.22 499.642l15.77 62.004-35.435 13.819-134.881-71.648z"/><path fill="#0b492c" fill-opacity=".463" d="M188.05 350.033l46.671-35.515 124.952 90.312-70.121 15.73z"/><path fill="#3c3e30" fill-opacity=".647" d="M898 648.638l-302.274-43.859-53.035 126.747 66.59-205.039z"/><path fill="#121c09" fill-opacity=".231" d="M711.45 934.589l-58.083-43.395-188.194 52.882 220.39-78.197z"/><path fill="#db9d7c" fill-opacity=".459" d="M367.448 573.597l-91.533 51.248 3.143 40.305L442.76 553.657z"/><path fill="#709196" fill-opacity=".537" d="M352.396 389.037l-13.128-9.764 127.98 10.139-58.781 17.763z"/><path fill="#23262c" fill-opacity=".725" d="M374.09 219.041L274.073 79.528 113.881 369.254l118.386-73.746z"/><path fill="#aeb3c1" fill-opacity=".8" d="M297.962 428.967l160.288 68.25-145.628-.005-32.318-49.85z"/><path fill="#0d3822" fill-opacity=".702" d="M534.84 735.72l-65.076-9.753L319.23 638.56l239.62 34.804z"/><path fill="#f2ffff" fill-opacity=".337" d="M181.59 972.48L122.743 1086h62.803l31.264-109.572z"/><path fill="#16593a" fill-opacity=".655" d="M129.366 902.078l32.735 77.49 35.667-10.258 231.239-8.581z"/><path fill="#40382e" fill-opacity=".757" d="M730.177 423.245l-69.544 2.083 25.236 45.62-87.843-217.833z"/><path fill="#473935" fill-opacity=".639" d="M45.016 536.422l90.587-197.888L-62 584.225l75.333-64.384z"/><path fill="#d5a58a" fill-opacity=".639" d="M500.968 228.978l-6.97-47.974-19.853 8.687-25.347 64.096z"/><path fill="#080d00" fill-opacity=".404" d="M143.743 673.472L-62 657.462l276.285 47.178-9.745 52.79z"/><path fill="#ffe8e0" fill-opacity=".259" d="M748.091 996.167l22.422-31.394-26.385-4.361-67.72-121.538z"/><path fill="#55615b" fill-opacity=".655" d="M186.665 794.596L168.963 663.61l-11.179 20.004-77.8 114.292z"/><path fill="#601101" fill-opacity=".282" d="M307.004 644.045l62.341 9.492 44.906-58.46 56.776 26.796z"/><path fill="#085433" fill-opacity=".553" d="M499.267 386.273l49.896 7.687-15.747 54.32-33.756.73z"/><path fill="#eeedfd" fill-opacity=".322" d="M531.291 289.215l108.171 130.16-112.169-97.136 5.08-22.856z"/><path fill="#61493e" fill-opacity=".875" d="M368.312 245.027l62.925 91.208 76.477-36.526-147.13-35.722z"/><path fill="#a78417" fill-opacity=".173" d="M119.289 360.383L-62 498.938 47.996 285.765l62.299 32.436z"/><path fill="#c7cdbd" fill-opacity=".675" d="M635.145 894.538l53.378-54.133-25.108-39.626-46.398 25.335z"/><path fill="#45574c" fill-opacity=".584" d="M90.665 959.592l125.48 31.458-11.723 9.684-80.231-89.822z"/></svg>