<svg xmlns="http://www.w3.org/2000/svg" width="228" height="278" viewBox="0 0 836 1024"><path fill="#89817a" d="M0 0h836v1024H0z"/><path fill="#e7eff2" fill-opacity=".694" d="M333.535 1079.988L197.113 337.066l481.209-12.352L671 1004.533z"/><path fill="#463732" fill-opacity=".976" d="M242.99-1.85L-42.975-3.153-62 1086h167.368z"/><path fill="#200e00" fill-opacity=".282" d="M824.84-62L710.221 644.543 377.323 911.371 898 1028.375z"/><path fill="#6e4840" fill-opacity=".773" d="M118.313 388.84L-56.562-62 898 15.545 569.859 250.909z"/><path fill="#9e8864" d="M291.47 632.485L-62 632.278l260.345 125.378 110.729 240.907z"/><path fill="#dee7eb" fill-opacity=".808" d="M202.027 378.256l-18.205 218.077 354.145 209-165.082-514.415z"/><path fill="#d9e3e5" fill-opacity=".757" d="M394.988 1086l274.974-274.224 29.909 195.106-477.523-68.623z"/><path fill="#fee5af" fill-opacity=".345" d="M580.105 141.038l294.063 15.565-531.832 43.02-16.935-145z"/><path fill="#c3d2d5" fill-opacity=".839" d="M715.498 592.553l-11.653-233.93L528.69 271.9 269.4 596.222z"/><path fill="#817a6a" fill-opacity=".996" d="M-62 143.993l477.782 7.194L-62 291.543l440.372-8.837z"/><path fill="#5d292d" fill-opacity=".843" d="M898-62l-1.468 192.84-362.023 20.588L446.637-29.59z"/><path fill="#041312" fill-opacity=".69" d="M142.89 301.421l-166.015-6.019-35.868 324.705 183.215 14.58z"/><path fill="#414236" fill-opacity=".98" d="M807.933 404.968l-55.347 569.488-163.572 70.966 223.829 1.966z"/><path fill="#000f0e" fill-opacity=".639" d="M127.564 1086l-188.4-19.984L-62 699.243l181.438 26.613z"/><path fill="#9f6843" fill-opacity=".62" d="M415.2 899.478l63.003 42.656 323.43-255.23-2.899-108.56z"/><path fill="#e5ebef" fill-opacity=".808" d="M274.482 1006.16l71.683-389.674 152.327-17.55-121.045 421.108z"/><path fill="#92a9ad" fill-opacity=".635" d="M711.532 413.784l-309.43 171.027 380.816 16.2-20.307-97.638z"/><path fill="#a68163" fill-opacity=".824" d="M365.457 352.18l114.887-4.979 11.733-292.326-151.374 31.27z"/><path fill="#021c22" fill-opacity=".267" d="M679.115 343.43l-302.71-153.468 336.17 22.789L898 789.34z"/><path fill="#7c0017" fill-opacity=".592" d="M-16.99 69.135l222.53 104.698 31.315-14.623L224.866-62z"/><path fill="#50584d" fill-opacity=".678" d="M233.021 351.199l-53.64 117.523-112.32-310.068 300.495 92.007z"/><path fill="#6c6d57" fill-opacity=".663" d="M292.789 667.47l-165.881 364.595-8.046-288.503 143.403-136.048z"/><path fill="#e8eef1" fill-opacity=".808" d="M383.51 365.219l-169.1 6.123-17.326 253.782 464.649-290.111z"/><path fill="#081e0d" fill-opacity=".384" d="M733.567 710.087l-57.386 78.007 1.64 129.743 42.569 155.133z"/><path fill="#c4ffeb" fill-opacity=".329" d="M867.02 176.045l-339.257.982 154.374-77.583 17.298 47.934z"/><path fill="#9f8d4b" fill-opacity=".71" d="M268.535 593.408l-47.248 336.74 36.293 134.815 54.629-239.744z"/><path fill="#c7c6af" fill-opacity=".694" d="M187.325 151.74l-43.848 19.452-136.514.958L-62 141.84z"/><path fill="#5a7376" fill-opacity=".996" d="M695.898 495.36l17.363-12.907L815.405 353.02l-82.016 242.492z"/><path fill="#171e21" fill-opacity=".784" d="M168.766 1085.095l114.45-75.76 225.503 48.974L280.81 1086z"/><path fill="#cae2d7" fill-opacity=".392" d="M.356 295.89l140.352-13.925 17.225-12.76L-62 252.216z"/><path fill="#161900" fill-opacity=".38" d="M665.417 602.26l60.66 12.666-8.578 20.712-52.751 51.232z"/><path fill="#bac2c4" fill-opacity=".914" d="M751.598 596.534l33.146-51.257-57.253 26.353-266.708 84.752z"/><path fill="#d0b192" fill-opacity=".349" d="M-62 673.463l127.161-22.597 295.32-125.78L93.584 715.915z"/><path fill="#00060e" fill-opacity=".455" d="M545.647 265.99l25.26-93.6-74.725 15.054-.858 69.579z"/><path fill="#0d1213" fill-opacity=".714" d="M795.83 43.028L670.076 22.491l-7.054 29.278 79.613 30.86z"/><path fill="#51312d" fill-opacity=".729" d="M388.677-62H260.433l1.942 176.882 54.119 29.184z"/><path fill="#4f2b27" fill-opacity=".502" d="M679.569 24.44L425 165.928l-171.686-43.58 363.206 28.73z"/><path fill="#d0dbe2" fill-opacity=".71" d="M649.257 796.909l-179.568 237.02 230.695-29.828-36.02-165.407z"/><path fill="#f5f4fa" fill-opacity=".455" d="M539.291 525.898l-221.665 30.397 343.257-158.377L501.6 258.513z"/><path fill="#be856e" fill-opacity=".776" d="M569.095 824.372l86.557-77.73-244.835 102.007 17.434 43.731z"/><path fill="#010d18" fill-opacity=".639" d="M852.78 1086l-407.068-45.869 150.753-21.817 63.036-1.553z"/><path fill="#fdf7cf" fill-opacity=".294" d="M197.695 169.2l154.45-31.267 27.543 55.445-68.099-18.11z"/><path fill="#976e53" fill-opacity=".792" d="M490.26 331.908l10.266-153.468-103.093 22.38 10.203 170.554z"/><path fill="#e2e8eb" d="M303.814 757.264l17.647 251.284 186.896-384.185-234.705-14.902z"/><path fill="#30a77a" fill-opacity=".588" d="M512.527 435.202l5.49 36.225-47.897-4.356 15.564-35.205z"/><path fill="#212820" fill-opacity=".439" d="M129.436 907.723l173.401 13.516-260.086 44.25 84.864-268.852z"/><path fill="#594b31" fill-opacity=".827" d="M600.84 816.463l157.754-134.279 36.527 4.891 21.798 37.863z"/><path fill="#152729" fill-opacity=".643" d="M811.554 409.632L770.04 511.755l23.666 93.872 29.205-82.132z"/><path fill="#027995" fill-opacity=".263" d="M364.985 556.454l131.635 6.094 24.145 34.232-240.57-15.678z"/><path fill="#00110a" fill-opacity=".569" d="M62.548 172.087L-62 327.617l1.849-94.138L80.65 261.763z"/><path fill="#837872" fill-opacity=".78" d="M579.919 318.906l16.619-130.451L898 186.597 518.378 329.494z"/><path fill="#fcddb2" fill-opacity=".216" d="M486.008 71.208L323.491 81.432l66.422 311.906 8.828-250.176z"/><path fill="#041314" fill-opacity=".592" d="M345.024 199.285l-27.589-27.66 8.527 82.171 29.362 6.804z"/><path fill="#302a1c" fill-opacity=".471" d="M10.181 751.924l289.472-21.987-52.89-22.257-304.885 21.804z"/><path fill="#8ba093" fill-opacity=".486" d="M753.483 1000.688L729.97 1086l2.21-181.548 6.211-227.18z"/><path fill="#504f4b" fill-opacity=".714" d="M898 276.161L599.924 303.5l.216-28.82 103.507 93.032z"/><path fill="#1e2e28" fill-opacity=".631" d="M320.633 310.726l-127.295 58.138 57.739-79.904 47.146 4.543z"/><path fill="#cdced5" fill-opacity=".635" d="M494.728 821.601L649.22 713.67l17.25-33.381L538.654 472.53z"/><path fill="#7e0f1d" fill-opacity=".682" d="M898 182.01l-138.464-62.833 38.841-105.355 63.256 5.497z"/><path fill="#7d887c" fill-opacity=".918" d="M819.648 837.201L822.974 1086 898 666.012l-74.387 94.69z"/><path fill="#cdd5d6" fill-opacity=".788" d="M668.63 420.062l57.814 39.31-64.435 80.414 1.137 17.781z"/><path fill="#6c5a54" fill-opacity=".337" d="M659.504 575.144l43.597 90.582-88.164-211.316-26.67 66.505z"/><path fill="#b2b7b8" fill-opacity=".784" d="M638.355 606.015l-89.893 45.688 192.623-153.649 22.576 4.776z"/><path fill="#ddd5c4" fill-opacity=".314" d="M826.478 237.148L760.387 143 898 159.185l-159.63 32.79z"/><path fill="#261e04" fill-opacity=".282" d="M282.052 208.476l90.443-80.434 99.145-2.668-205.415 64.683z"/><path fill="#e8ecf1" fill-opacity=".941" d="M559.35 291.8L434.128 511.254l-104.369 17.674 199.124-250.37z"/><path fill="#c09362" fill-opacity=".392" d="M141.163 689.24l18.141-185.877 14.621 89.302 81.147 119.847z"/><path fill="#031b17" fill-opacity=".376" d="M68.471 140.118l-.615-79.24L-62 88.147v65.326z"/><path fill="#c08561" fill-opacity=".525" d="M544.34 866.759l-59.541-14.32 274.225-247.957 32.72 6.012z"/><path fill="#9bb0b4" fill-opacity=".498" d="M617.351 825.966L439.952 973.89l115.618-11.457L685.697 771.17z"/><path fill="#b8c9be" fill-opacity=".216" d="M898 107.642L785.932 357.371l-69.989-36.724 68.245 101.28z"/><path fill="#794c44" fill-opacity=".624" d="M699.533 150.848L510.084-62l295.494 203.986 16.143 2.355z"/><path fill="#7d0014" fill-opacity=".545" d="M519.159 155.8l34.756-26.06L554.957-62l-53.165 42.536z"/><path fill="#c7c8b3" fill-opacity=".58" d="M505.364 181.123l369.234-19.587-354.274-9.696-19.587 44.884z"/><path fill="#001b28" fill-opacity=".325" d="M801.684 557.571l1.844-82.837-67.33 106.988-40.835-93.187z"/><path fill="#696c5b" fill-opacity=".765" d="M272.08 199.81l-87.158-5.042-1.129 413.54-38.52-10.116z"/><path fill="#90afa7" d="M635.504 345.32l96.75 106.856 47.836 106.161L673.843 373.56z"/><path fill="#e5ecf1" fill-opacity=".827" d="M429.783 1039.648l-83.668-25.612 361.424-35.425-21.706 25.813z"/><path fill="#bddaad" fill-opacity=".137" d="M125.186 967.713l230.01-244.92-235.742 31.965 78.072 313.634z"/><path fill="#161b12" fill-opacity=".369" d="M761.795 1086h81.539l-32.52-104.819-54.363-193.724z"/><path fill="#240c00" fill-opacity=".306" d="M164.798 259.765L13.652 244.108l114.066-18.495 63.732-68.483z"/><path fill="#ecf4f6" fill-opacity=".733" d="M353.75 313.195l-89.636 25.74-37.14 22.3 162.588 117.868z"/><path fill="#15100c" fill-opacity=".251" d="M515.146 178.224l84.08-4.71-196.869 116.382 39.456 32.431z"/><path fill="#00041f" fill-opacity=".125" d="M498.995 928.13l-85.943 3.415 64.279-62.791 144.44-9.194z"/><path fill="#4b3d26" fill-opacity=".765" d="M382.5 42.849l111.669-7.364-87.903 27.965-98.826 11.074z"/><path fill="#380008" fill-opacity=".549" d="M90.148 25.41L284.568-62 239.46-50.076 227.636 37.49z"/><path fill="#fcf9e2" fill-opacity=".188" d="M429.486 172.924l-198.78-28.677 34.593 151.127-54.441-125.23z"/><path fill="#d2dbdd" d="M279.455 593.868l-97.984 6.716 39.523 26.533 11.927-161.412z"/><path fill="#c8a286" fill-opacity=".557" d="M449.055 39.86L379.109 199.6l13.274-107.205 96.128 46.238z"/><path fill="#343a0f" fill-opacity=".192" d="M217.25 981.692l93.204-191.746-24.347 160.411-228.726-74.694z"/><path fill="#4a685f" fill-opacity=".549" d="M706.17 255.503l8.704 205.61-37.375-46.907 85.399 19.847z"/><path fill="#73373d" d="M65.912 66.011L-62 11.421 107.116-16.58 76.924 152.125z"/><path fill="#73c4a5" fill-opacity=".996" d="M651.396 334.744l2.071-10.387-65.225 4.145 16.825 9.05z"/><path fill="#30b2b4" fill-opacity=".29" d="M775.816 23.935l-50.119 20.838-14.04-28.147 43.338-18.722z"/><path fill="#32352b" fill-opacity=".757" d="M680.099 922.074l37.718 101.797 7.542-1.105-10.71-227.95z"/><path fill="#e3b444" fill-opacity=".271" d="M287.201 988.774l-42.741 51.684-7.16-148.298 12.726-184.354z"/><path fill="#250204" fill-opacity=".396" d="M421.418 227.68l-18.996 5.2-39.206-8.507 63.751-6.754z"/><path fill="#dee3e7" fill-opacity=".655" d="M585.759 750.58l-244.147-163.2 83.572 352.07-138.107-9.994z"/><path fill="#8c1425" fill-opacity=".729" d="M99.666 54.568L231.56 43.207l-.862 99.186-135.741 5.03z"/><path fill="#d3e8e9" fill-opacity=".529" d="M743.573 588.117l-19.637 1.994 39.969-44.539 21.833 24.586z"/><path fill="#3a483f" fill-opacity=".525" d="M344.968 335.553L129.61 316.19l-5.108 103.34 139.563-105.593z"/><path fill="#1e1300" fill-opacity=".255" d="M470.677 136.652L379.41 158.65l-99.682-19.459 153.594-10.44z"/><path fill="#37512c" fill-opacity=".498" d="M800.384 574.075l-30.775 19.64-109.152 83.828 24.736-59.157z"/><path fill="#786861" d="M782.641 319.49L682.239 176l114.423 4.533-170.878 42.18z"/><path fill="#d1ffdf" fill-opacity=".129" d="M751.88 906.862l-56.612-138.01-121.41 131.743 179.887-162.466z"/><path fill="#7e6851" fill-opacity=".663" d="M479.02-24.323l-6.273 157.726 46.875 53.339-30.355-223.065z"/><path fill="#797153" fill-opacity=".831" d="M205.701 630.167l59.037-6.293 36.57 121.326 1.603 13.598z"/><path fill="#bd997b" fill-opacity=".98" d="M-61.24 616.398l27.042 53.95 220.403-50.261 5.781 39.393z"/><path fill="#594441" fill-opacity=".839" d="M332.34 174.116l-83.295.782L279.319 278.7l9.363-87.09z"/><path fill="#51524b" fill-opacity=".647" d="M724.683 289.449l158.103-5.5-224.321 39.757-126.368-43.937z"/><path fill="#8a3a47" fill-opacity=".91" d="M545.526-62L262.56 10.05 786.412-62 599.88 56.888z"/><path fill="#020b11" fill-opacity=".302" d="M734.496-62L595.072 158.965l-19.808-81.31 132.328-14.21z"/><path fill="#3a4649" fill-opacity=".49" d="M716.731 332.433l132.598 410.44-131.354-342.506-42.711-67.006z"/><path fill="#09ac6f" fill-opacity=".439" d="M601.033 310.828l-32.548-5.937-6.274 6.915-5.982 16.945z"/><path fill="#f3c8a0" fill-opacity=".298" d="M407.843 166.277l-74.816-76.402 29.591-16.658 35.152 21.359z"/><path fill="#4c3819" fill-opacity=".243" d="M616.368 778.297l-48.815 26.094 280.51-140.99L559.88 858.6z"/><path fill="#ceebdf" fill-opacity=".373" d="M708.196 377.276l19.655 90.408-62.845-136.065 48.936 55.266z"/><path fill="#4b4134" fill-opacity=".816" d="M105.175 190.58L-62 173.092l191.35 1.427.295 76.116z"/><path fill="#86b6aa" fill-opacity=".408" d="M367.76 468.262l-47.652-17.985-67.25 10.744 112.354 8.458z"/><path fill="#071319" fill-opacity=".494" d="M728.774 1005.088l-89.826 10.877-84.664 8.508L477.256 1086z"/></svg>