<svg xmlns="http://www.w3.org/2000/svg" width="228" height="278" viewBox="0 0 836 1024"><path fill="#9a8543" d="M0 0h836v1024H0z"/><g fill-opacity=".502"><path fill="#ffff24" d="M42 470l664-268-128 808z"/><path fill="#210139" d="M14-62l-76 556L898 62z"/><path fill="#fcfa31" d="M898 934L134 222l188 732z"/><path fill="#c4d7ff" d="M822 1086L690 602l208 56z"/><path d="M782 950l-480 48 460 88z"/><path fill="#181e55" d="M350 38l548 440-64-540z"/><path fill="#ffff68" d="M338 562l504-316-404-12z"/><path fill="#bb9d9b" d="M306 338L78 282 230 26z"/><path fill="#827b00" d="M598 366l124 384-248 32z"/><path fill="#260000" d="M118 634l116-48-60 260z"/><path fill="#1e0025" d="M114 406L58 618-62 442z"/><path fill="#001" d="M810 1006l-376-56-200 136z"/><path fill="#110002" d="M794 630l-256-88 344 20z"/><path fill="#ffff2f" d="M794 442l-108 68-252-272z"/><path fill="#962318" d="M74 322l384-104-80 176z"/><path fill="#aa4c73" d="M374 1002L-62 410l8 672z"/><path fill="#ffff68" d="M154 366l420 64L82 638z"/><path fill="#120e0e" d="M394 38l4 200 500-72z"/><path fill="#dde3ff" d="M806 1086l-56-320 148 28z"/><path fill="#7a6ba8" d="M898 194L754 346 578 234z"/><path fill="#c3de01" d="M778 946l-248 36 172-324z"/><path fill="#a5497a" d="M758 562l-316-40 76-80z"/><path fill="#ffff46" d="M278 638l208 292-116 40z"/><path fill="#cd9d60" d="M166 90l152-8-88 304z"/><path fill="#000004" d="M766 938l56 148-296-72z"/><path fill="#814500" d="M130 690l-80 344 256-456z"/><path fill="#1e0a21" d="M58 238L-62 74 226-46z"/><path fill="#d98fa1" d="M114 714l-176-24 68 396z"/><path fill="#4a73cd" d="M238 286L70 238l88-92z"/><path fill="#670021" d="M506 366l-44 20 48 32z"/><path fill="#88506a" d="M234 654l116 260-252 172z"/><path fill="#c6d203" d="M594 550L362 714l264 268z"/><path fill="#ffff4c" d="M778 446l-144-76 44 152z"/><path fill="#855122" d="M206 174l176 208 8-284z"/><path fill="#665067" d="M898 738l-144 28 84-556z"/><path fill="#ffff5e" d="M94 462l152-144 20 328z"/><path fill="#64333c" d="M226 330L-62 594l4-492z"/><path fill="#b4afff" d="M98 646l28-60-40-76z"/><path fill="#d4aaba" d="M670 534l108-60 92 52z"/><path fill="#96000d" d="M258 366l104 28 80-116z"/></g></svg>