<svg xmlns="http://www.w3.org/2000/svg" width="228" height="278" viewBox="0 0 836 1024"><path fill="#9a8543" d="M0 0h836v1024H0z"/><path fill="#eee333" fill-opacity=".8" d="M744.62 435.458L596.163 229.86 90.973 446.205 424.52 994.417z"/><path fill="#11013e" fill-opacity=".533" d="M-62-34.9l8.752 293.684 924.075-36.527L898-51.598z"/><path fill="#c1c9e8" fill-opacity=".741" d="M694.894 592.122L898 737.72 821.688 1086 685.25 623.461z"/><path fill="#080f13" fill-opacity=".851" d="M780.68 969.29l-378.473-1.485L273.72 1086l522.4-19.23z"/><path fill="#bbba1b" d="M586.554 303.366l192.05 624.913-168.66 56.46-147.383-30.702z"/><path fill="#875d4c" fill-opacity=".996" d="M362.88 401.296L14.206 313.429 217.684 8.879l233.133 270.059z"/><path fill="#683a2f" fill-opacity=".871" d="M231.013 600.295l-56.701 305.283L-10.453 7.292l11.64 643.362z"/><path fill="#fffe5c" fill-opacity=".718" d="M85.691 498.264l12.5 143.202 396.033-165.064L210.56 340.319z"/><path fill="#430040" fill-opacity=".42" d="M898 590.467l-6.32 62.132-391.058-96.518-.118-112.314z"/><path fill="#db60be" fill-opacity=".392" d="M5.109 1086l-53.407-493.24 181.302-29.677-44.732 287.21z"/><path fill="#6e6479" fill-opacity=".722" d="M794.522 783.22l76.014-603.712-284.137 53.895L898 514.983z"/><path fill="#2c2126" fill-opacity=".902" d="M614.637 235.89l180.83-126.58-410.023-81.743 10.902 209.71z"/><path fill="#f9ff4f" fill-opacity=".788" d="M592.672 244.673l109.583 78.881-310.358 65.79 59.554-150.911z"/><path fill="#250837" fill-opacity=".435" d="M102.561-62l15.729 389.764 106.64 9.568L16.57 540.858z"/><path fill="#f3fa2c" fill-opacity=".592" d="M461.935 944.55l208.673 24.69-379.126-451.09 55.367 468.633z"/><path fill="#965d5e" fill-opacity=".914" d="M191.661 826.204l44.91-228.666L336.395 1086H-31.45z"/><path fill="#92bcf4" fill-opacity=".325" d="M68.977 272.185L184.179 93.839l54.532 3.775-32.488 206.328z"/><path fill="#ff6" fill-opacity=".459" d="M799.042 527.183l-90.369 18.278-99.514-136.808 183.206 10.749z"/><path fill="#dae0fa" fill-opacity=".788" d="M743.01 791.284l154.99 9.42-110.485 198.284-32.027-188.885z"/><path fill="#8d380d" fill-opacity=".529" d="M258.733 375.934l118.088 21.15 70.295-127.393-132.477-225.77z"/><path fill="#101413" fill-opacity=".859" d="M792.38 1051.672l-23.497-117.607L433.836 1086 461.7 944.32z"/><path fill="#2b1400" fill-opacity=".192" d="M702.234 668.083L898 765.926l-339.54-27.343 80.345-290.953z"/><path fill="#4d383b" fill-opacity=".741" d="M889.893 156.51L898 552.578 720.428 339.89l139.011-42.795z"/><path fill="#d68f2f" d="M282.163 820.494l-49.625-223.272 79.064 175.15 60.709 203.962z"/><path fill="#3e270a" fill-opacity=".851" d="M625.605 578.619l154.814 45.077L898 582.37l-296.787-25.072z"/><path fill="#e0ac61" fill-opacity=".373" d="M278.603 167.704L245.3 407.977l-82.592-327.99 167.814-1.706z"/><path fill="#b38986" fill-opacity=".639" d="M801.623 473.161l28.993 54.048-154.007 36.124-87.961-32.87z"/><path fill="#060a00" fill-opacity=".6" d="M130.718 668.055l65.047 11.025 45.28-41.093-143.67-2.917z"/><path fill="#853901" fill-opacity=".455" d="M204.752 801.737l-26.758-159.662-78.452 172.043L17.522 1086z"/><path fill="#d0e023" fill-opacity=".725" d="M767.753 861.319l-43.792-127.98L617.3 979.195l161.534-43.382z"/><path fill="#a19aaa" fill-opacity=".545" d="M774.109 218.632l-109.168 8.15 20.941 132.121 123.282-79.418z"/><path fill="#c9d200" fill-opacity=".502" d="M497.434 557.815l-123.67 222.536 219.216 63.945-15.188-298.885z"/><path fill="#140726" fill-opacity=".282" d="M560.637 109.707l-374.669 62.202L79.147-62-62 257.243z"/><path fill="#961b35" fill-opacity=".541" d="M523.14 421.435l-51.008-67.942-7.154 30.957 8.776 31.115z"/><path fill="#ff5d45" fill-opacity=".51" d="M355.184 914.324L350.306 1086l-146.843-17.896 31.305-84.647z"/><path fill="#90868b" fill-opacity=".878" d="M802.438 626.11L898 768.036l-114.563.745-34.38-153.923z"/><path fill="#d07c86" fill-opacity=".537" d="M600.117 507.97l-217.371-2.696L539.9 445.578 683.266 546.88z"/><path fill="#f7f84d" fill-opacity=".824" d="M184.897 372.429l-86.84 89.106 32.44 143.564 449.194-180.21z"/><path fill="#272b28" fill-opacity=".976" d="M283.114 1086l111.063-115.905 68.372-23.521 96.133 132.081z"/><path fill="#fffeb0" fill-opacity=".337" d="M18.574 974.342L-62 870.547 11.387 1086l130.732-509.863z"/><path fill="#2a7eff" fill-opacity=".278" d="M71.113 225.425l53.03-75.39 45.869 22.569 67.685 113.41z"/><path fill="#ff0857" fill-opacity=".216" d="M295.968 650.656l-55.134-101.531 162.054 41.122-152.03-130.141z"/><path fill="#412b2a" fill-opacity=".725" d="M116.78 402.057l-159.46 8.81L79.041 559.71l24.138-100.34z"/><path fill="#944a4d" fill-opacity=".71" d="M74.776 757.482L-62 440.795l174.906 185.94-2.626 61.441z"/><path fill="#b6d3e9" fill-opacity=".604" d="M125.072 571.925l.98 69.673-39.526-50.749-.05-66.465z"/><path fill="#f4f842" fill-opacity=".714" d="M220.877 561.562l40.034 27.845 109.184 378.876 131.19-21.713z"/><path fill="#a8818b" fill-opacity=".431" d="M360.564 897.915l-65.787 94.436-185.605-31.883 49.092-92.76z"/><path fill="#012d50" fill-opacity=".325" d="M208.434 1086h178.157l-336.698-15.12 157.705-152.548z"/><path fill="#ff382f" fill-opacity=".463" d="M399.565 498.312l55.347 43.839 5.959-57.84-33.124 119.858z"/><path fill="#6b7270" fill-opacity=".753" d="M711.798 417.704l74.437-51.895-108.556 10.433 29.348 33.37z"/><path fill="#f7ff2a" fill-opacity=".506" d="M814.978 422.758L488.74 451.855l143.628-189.248 52.246 257.556z"/><path fill="#271e21" fill-opacity=".337" d="M281.985 88.02l59.923-36.84-201.964-62.51L-41.284 97.165z"/><path fill="#547db2" fill-opacity=".286" d="M898 72.434L407.296-61.64 583.174 55.253 791.329-37.65z"/><path fill="#47060c" fill-opacity=".333" d="M-62 824.91l113.924 22.441-19.773 77.325L-62 966.941z"/><path fill="#8a6341" fill-opacity=".686" d="M377.008 219.991l-98.221-109.03 61.11-56.956 55.669 79.43z"/><path fill="#d80800" fill-opacity=".624" d="M365.96 399.565l7.977-24.61-134.492-23.74 50.766 29.214z"/><path fill="#f9f566" fill-opacity=".855" d="M259.53 421.135L93.142 496.963l26.868-58.85 126.852-117.25z"/><path fill="#dceb00" fill-opacity=".502" d="M198.818 518.011l-18.587 75.11-30.66 39.62-56.192-127.618z"/><path fill="#836400" fill-opacity=".616" d="M76.74 655.361l218.437-38.102 28.957 27.1-126.338-49.199z"/><path fill="#0e110f" fill-opacity=".827" d="M779.88 1086L545.236 977.67l94.034 1.657 139.071-42.149z"/><path fill="#ff84b4" fill-opacity=".18" d="M65.602 886.564L-62 708.303l107.461-7.648 163.7 115.779z"/><path fill="#b9c8ed" fill-opacity=".6" d="M684.933 631.991l19.39 63.712 79.046-64.338-67.581-15.794z"/><path fill="#fbff30" fill-opacity=".525" d="M549.206 608.169L302.324 724.267 406.88 585.223l-147.168-80.812z"/><path fill="#382608" fill-opacity=".506" d="M190.118 186.224l128.958-44.972 8.456 36.547-90.675 15.815z"/><path fill="#b60004" fill-opacity=".698" d="M369.73 392.202l-12.97 3.808 80.571-164.491-9.317 73.36z"/><path fill="#3b4154" fill-opacity=".651" d="M872.944 194.524L822.141 50.356l-204.1 208.083-89.344-30.92z"/><path fill="#826a00" fill-opacity=".686" d="M617.34 507.909l53.615 6.134-30.385-40.268-40.354-59.44z"/><path fill="#f6ba7d" fill-opacity=".38" d="M166.447 158.142l20.388-55.445 37.09-9.88-16.812 146.8z"/><path fill="#d0d91c" fill-opacity=".537" d="M468.271 954.047l179.399 23.494 60.045-214.168-205.907 9.824z"/><path fill="#878200" fill-opacity=".341" d="M695.1 574.816l-8.851 76.436-28.429 107.925-206.369-43.716z"/><path fill="#733a3d" fill-opacity=".545" d="M-62 409.99l80.956-250.332 169.582 202.18 50.773 8.394z"/><path fill="#171d00" fill-opacity=".208" d="M339 377.754l-72.268-133.907L501.07 126.122 375.657 254.278z"/><path fill="#5b4848" fill-opacity=".545" d="M627.515 264.069L898 404.775V638.17L764.205 379.884z"/><path fill="#f9ff4b" fill-opacity=".761" d="M487.034 449.283l-25.615-67.438 32.562-129.272-272.363 318.723z"/><path fill="#d2d508" fill-opacity=".459" d="M640.804 604.267l-314.026 46.995 209.578 77.692-15.63-215.053z"/><path fill="#ffc98a" fill-opacity=".259" d="M270.359 132.707l-4.837 215.574 45.874 16.23-73.255-137.764z"/><path fill="#6d4c47" fill-opacity=".729" d="M268.57 781.015l-46.229 27.343-36.307 42.221 114.74 11.14z"/><path fill="#8a023e" fill-opacity=".349" d="M511.263 427.725l2.338-91.343-4.523 10.023-38.732 46.994z"/><path fill="#f9fd4f" fill-opacity=".851" d="M525.625 871.154l21.38-19.068-206.481-15.46 1.03 55.073z"/><path fill="#ff2341" fill-opacity=".235" d="M392.967 497.183l-22.397 84.945 139.394-25.798-163.76 60.875z"/><path fill="#aca600" fill-opacity=".349" d="M461.317 930.532l210.592-90.314-290.56 58.885 248.201 61.202z"/><path fill="#ff1118" fill-opacity=".482" d="M306.712 645.993l-10.892.805-39.323-79.038 8.708-8.131z"/><path fill="#8393aa" fill-opacity=".545" d="M118.738 933.383l-43.341 75.538-37.705 70.933 75.571-3.603z"/><path fill="#cf9891" fill-opacity=".455" d="M595.015 506.546l189.731 21.645-287.29 1.549 49.378 16.49z"/><path fill="#743f02" fill-opacity=".663" d="M137.067 693.63l-27.97 82.214 90.689-23.94 28.108-100.416z"/><path fill="#b90a2d" fill-opacity=".271" d="M264.426 470.51l-25.358 52.593 76.555-30.384-31.733-5.741z"/><path fill="#f6f249" fill-opacity=".863" d="M367.782 997.674l-32.53-70.637 7.04 32.494 78.56-50.81z"/><path fill="#fff2b8" fill-opacity=".204" d="M455.84 206.76L703.468 346.1l89.903 80.133L658.84 275.422z"/><path fill="#d9af87" fill-opacity=".675" d="M74.65 759.554l49.234-75.1-76.37 255.65-.886-82.391z"/><path fill="#8b92b8" fill-opacity=".467" d="M787.961 1027.867l-20.575-136.4L852.892 1086l-5.135-19.391z"/><path fill="#f53c33" fill-opacity=".388" d="M462.196 494.062l-28.719 68.797 60.239-88.314 33.444 92.397z"/><path fill="#030400" fill-opacity=".663" d="M157.794 684.93l-39.656-42.977 122.43-2.854-30.592 13.943z"/><path fill="#777369" fill-opacity=".494" d="M166.46 121.64l8.338-73.524L346.094-62 205.256 65.31z"/><path fill="#e8e92f" fill-opacity=".98" d="M615.998 964.095l-272.84-55.247 245.304 69.42 108.607-14.258z"/><path fill="#c6190c" fill-opacity=".69" d="M268.226 344.267l-21.734-44.938 9.097 65.947 86.309 33.332z"/><path fill="#3d2a0e" fill-opacity=".698" d="M772.136 619.906l-29.266 1.818-192.427-79.595 291.79 69.866z"/><path fill="#9d9900" fill-opacity=".584" d="M481.725 792l114.553 6.64 145.894 28.596-59.55-.783z"/><path fill="#f4f91d" fill-opacity=".451" d="M802.608 469.124l-26.916-62.9-85.005 125.228-67.808-78.714z"/><path fill="#591512" fill-opacity=".427" d="M356.086-62L96.346-51.662l8.853 202.11L204.182 25.86z"/><path fill="#d6290f" fill-opacity=".612" d="M331.883 837.45l3.136 162.88-3.745-132.527-46.415-153.092z"/><path fill="#cbf7d1" fill-opacity=".125" d="M416.486 247.434L293.739 130.828l94.024 137.516 9.414 55.069z"/><path fill="#9e1600" fill-opacity=".227" d="M324.424 1044.579l59.35-99.068L201.07 1086l-26.347-105.054z"/><path fill="#f82933" fill-opacity=".478" d="M406.958 491.33l42.748 87.174-3.591.754-26.668-15.584z"/><path fill="#4f080a" fill-opacity=".482" d="M517.667 517.955l-5.112-11.07 45.068 21.847 22.486-28.517z"/><path fill="#6b626f" fill-opacity=".404" d="M-23.95 323.19L-62 549.638l189.185-334.563 32.909 95.75z"/><path fill="#ce2517" fill-opacity=".624" d="M270.075 716.843l64.84 208.847-70.352-201.738 5.3-15.036z"/><path fill="#f7fa4d" fill-opacity=".796" d="M545.743 348.88l-115.834 3.74 11.195-111.938 101.928 15.636z"/><path fill="#483412" fill-opacity=".49" d="M723.33 408.313l150.594 3.373-131.145-8.089-64.986-59.026z"/><path fill="#dce1ff" fill-opacity=".482" d="M862.906 1026.882l-89.673-88.741-5.988-129.715L898 839.533z"/><path fill="#8f6c63" fill-opacity=".616" d="M764.362 471.238L648.091 543.8 898 423.323v132.413z"/><path fill="#2d1515" fill-opacity=".435" d="M592.498 109.256l-4.123 126.936-200.673 3.44-5.345-62.15z"/><path fill="#f8ff59" fill-opacity=".824" d="M773.511 455.161l-35.858-28.372-67.714-6.296 46.345 72.756z"/><path fill="#f6e243" fill-opacity=".988" d="M334.09 553.019l-29.91 74.695-28.435-65.866 127.256-47.028z"/><path fill="#f1c9af" fill-opacity=".506" d="M501.603 495.111l56.03-.339-85.691 26.558 33.778-28.078z"/><path fill="#f8f040" fill-opacity=".463" d="M260.574 654.94l44.958 165.973-7.115-16.842 30.075 53.457z"/><path fill="#643a21" fill-opacity=".647" d="M812.432 585.448l52.354 34.942-56.549-84.522-129.098 36.02z"/><path fill="#433300" fill-opacity=".416" d="M257.851 640.78l-87.811 17.41 34.863-62.562 18.365 5.699z"/><path fill="#292d34" fill-opacity=".333" d="M792.061 142.74l-12.87-86.405-603.47-30.854 489.662 187.717z"/><path fill="#8ecffd" fill-opacity=".341" d="M-16.565 1086l36.333-105.694 9.533-28.287-49.697-41.223z"/><path fill="#f0f82e" fill-opacity=".722" d="M668.316 302.545l25.367 125.596-145.997-153.506-27.92 172.098z"/></svg>