<svg xmlns="http://www.w3.org/2000/svg" width="228" height="278" viewBox="0 0 836 1024"><path fill="#80787e" d="M0 0h836v1024H0z"/><g fill-opacity=".502"><path fill="#060000" d="M246 558l256 528 152-940z"/><path fill="#fff" d="M474-62L334 534-62 342zm112 548L806-50l92 452z"/><path fill="#ff000d" d="M190 654l-92 348 372 84z"/><path fill="#002f7f" d="M898 874l-92-508-432 420z"/><path fill="#f2ffff" d="M106-10L34 630-62 18z"/><path fill="#1f0000" d="M606 414L550-10 394 534z"/><path fill="#1d8555" d="M150 34l24 764-196-44z"/><path fill="#f8ffff" d="M222 778l96-840-176 348z"/><path fill="#fff" d="M550 58l76 192 44-208z"/><path d="M254 302l76 12 16-152z"/><path fill="#fff" d="M598 478L786 26l112 292zM202 650l28 100 180 32z"/><path fill="#edffff" d="M166-2l240 280-28-340z"/><path fill="#001c38" d="M670 142l24-168 204-16z"/><path fill="#000400" d="M482 546l416-16-132-72z"/><path fill="#003b2d" d="M-62 626l284-8-80 148z"/><path fill="#63312f" d="M258 650l304 436 96-396z"/><path fill="#fff" d="M174 442l276-248-128 260z"/><path fill="#f3ffff" d="M90 454l-152 20L58 42z"/><path fill="#004eb1" d="M898 794l-312 20 216-304z"/><path fill="#ffe9b2" d="M602 674l28 60-96-20z"/><path fill="#b76f52" d="M494-62l-24 484-84-332z"/><path fill="#3f342a" d="M714 114l-64 224-400 196z"/><path fill="#1a0700" d="M258 514l152 24 64 436z"/><path fill="#eaf3f3" d="M66 622l-128-48 152-40z"/><path fill="#f62a48" d="M462 906L178 698 78 1026z"/><path fill="#dec2cb" d="M294 766l148 320-24-176z"/><path fill="#322316" d="M582-62L462 74l60 324z"/><path fill="#575063" d="M758 1086l140-244-564-116z"/><path fill="#fff" d="M198 658l180 116-92 4z"/><path fill="#f7ffff" d="M898 14L674 486l48-392z"/><path fill="#583836" d="M166 782L42 858l20 228z"/><path fill="#fff" d="M570 50l100 20-80 124z"/><path fill="#e36a71" d="M494 306l-24-112-136 164z"/><path fill="#2f5c39" d="M98-62l108 176-44 104z"/><path fill="#0255c2" d="M702 798l-240-52v72z"/><path fill="#2c9ede" d="M602 622l296-52-268-24z"/><path fill="#1170b9" d="M866 2L574-58 522 46z"/><path d="M406 1074l-244-88-76 100z"/></g></svg>