<svg xmlns="http://www.w3.org/2000/svg" width="228" height="278" viewBox="0 0 836 1024"><path fill="#35314d" d="M0 0h836v1024H0z"/><path fill="#334f9c" fill-opacity=".996" d="M137.998 356.804L286.548 555.8 706.54 445.725l-95.148-132.224z"/><path fill="#b98d94" fill-opacity=".914" d="M780.661 1083.018L745.42 828.262l132.982-147.817L898 969.302z"/><path fill="#e3903e" fill-opacity=".463" d="M616.862 150.135l-324.824 90.362-5.617-160.09 154.498-40.29z"/><path fill="#002ba1" fill-opacity=".533" d="M671.625 1008.353L247.395 1086l-28.803-485.319 50.986-91.27z"/><path fill="#2987ee" fill-opacity=".569" d="M705.617 636.591l-49.823-307.4 157.19 413.918L541.1 665.946z"/><path fill="#290d00" fill-opacity=".718" d="M276.04-62l25.89 319.872-339.11 266.963L-62-38.985z"/><path fill="#2d5da7" d="M56.244 738.952l59.972-97.29 340.018 101.664-310.72 5.733z"/><path fill="#b6c2d3" fill-opacity=".824" d="M628.244 339.442l-121.188-44.095-27.454 30.052 194.081 69.808z"/><path fill="#562021" fill-opacity=".922" d="M233.163 729.684l-260.248 79.374L3.082 1086l216.108-77.844z"/><path fill="#261108" fill-opacity=".816" d="M898 196.33V-61.615L493.415 3.065l303.02 338.41z"/><path fill="#00044b" fill-opacity=".475" d="M605.27 347.92L422.75 658.56 405.144 1086 715.92 766.077z"/><path fill="#f8f8e4" fill-opacity=".588" d="M445.83 483.35l99.576 14.582-26.634-87.646-56.595 15.511z"/><path fill="#4a311e" fill-opacity=".675" d="M791.655 425.613L109.574 97.573l287.775 335.54 194.425-378.08z"/><path fill="#d0e3f5" fill-opacity=".616" d="M145.661 382.015l47.731-32.798 146.833-55.97-70.077 46.7z"/><path fill="#0e121d" fill-opacity=".878" d="M692.582 850.223L346.735 633.647l55.104-151.603 160.532 199.409z"/><path fill="#54473f" fill-opacity=".945" d="M818.98 775.697L898 366.727l-453.176-266.07 382.019 474.758z"/><path fill="#e74246" fill-opacity=".796" d="M220.128 465.05l53.752 40.346-46.417 47.482-25.128-38.59z"/><path fill="#77361f" fill-opacity=".529" d="M656.283 741.675l153.078 184.244-59.052 138.792L639.495 1086z"/><path fill="#03090a" fill-opacity=".816" d="M121.123 901.597l97.95-73.63-106.303-61.963-75.207 65.43z"/><path fill="#0f7edd" fill-opacity=".878" d="M795.391 695.38l-114.906 4.868-93.242-30.446-22.713-37.27z"/><path fill="#010b42" fill-opacity=".933" d="M239.642 582.064L146.337 404.95l6.196 239.089 54.448 39.585z"/><path fill="#103aa2" fill-opacity=".784" d="M277.846 465.966l-166.924-68.931 418.011-40.299-290.058 325.107z"/><path fill="#7d819b" fill-opacity=".361" d="M265.247 750.118l215.944-4.096 12.868-51.155-263.207-91.317z"/><path fill="#3c1b0d" fill-opacity=".596" d="M-62 759.69l121.843-12.448L156.74 339.18-62 563.335z"/><path fill="#fab192" fill-opacity=".443" d="M481.702 113.206L333.218 96.444l44.585-53.274 142.925 22.363z"/><path fill="#000006" fill-opacity=".498" d="M504.156 317.606l-110.92 82.003-16.298-106.232-46.189-66.17z"/><path fill="#1aa4fb" fill-opacity=".604" d="M152.806 583.567L63.01 727.628l51.894 28.027 30.492-157.018z"/><path fill="#e3e8ff" fill-opacity=".314" d="M610.919 353.005l-.089-9.964 57.909 36.335 119.928 302.949z"/><path fill="#efa97e" fill-opacity=".494" d="M500.333 156.231l-225.079-3.111 197.948 34.204 9.879 69.192z"/><path fill="#9b5215" fill-opacity=".545" d="M369.46 385.436l35.853-32.03L269.86 121.22l68.813 248.248z"/><path fill="#b92930" fill-opacity=".349" d="M70.197 885.419l151.191 9.787-181.07 187.65-45.882-353.668z"/><path fill="#000d64" fill-opacity=".639" d="M632.75 657.33l50.857-215.806-50.546-11.007-203.674 107.02z"/><path fill="#0c0300" fill-opacity=".51" d="M372.274 147.355l13.501-36.595 39.783 1.576 147.58 11.908z"/><path fill="#eed3e4" fill-opacity=".584" d="M898 816.172l-109.918 203.997L883.488 1086l-78.755-301.576z"/><path fill="#0144b8" fill-opacity=".522" d="M617.854 1086l-40.469-250.077 56.256 1.115L644.1 1086z"/><path fill="#3f291b" fill-opacity=".651" d="M725.379 518.862l-97.451-223.037L898 664.284l-81.382 63.063z"/><path fill="#000527" fill-opacity=".561" d="M329.04 758.496l397.87-37.485 66.837 62.324-215.363 38.817z"/><path fill="#2c1614" fill-opacity=".851" d="M209.135-36.323L25.17 266.497 364.661 46.42l159.198 3.509z"/><path fill="#1b5ac7" fill-opacity=".824" d="M287.046 990.928l-19.068 1.33-42.304-20.252-23.394 82.588z"/><path fill="#e1e5dd" fill-opacity=".49" d="M320.554 604.581l-6.527-44.413-3.641 119.363 12.025 18.78z"/><path fill="#0b0b36" fill-opacity=".725" d="M693.883 1007.755L173.58 865.652l188.195 76.885-70.472-8.01z"/><path fill="#0734ab" fill-opacity=".667" d="M490.327 276.093l-43.068 76.3 157.33 4.294-53.146 131.463z"/><path fill="#1e78fe" fill-opacity=".486" d="M332.59 306.433l-33.453 50.323-168.584 64.424 33.865-44.757z"/><path fill="#000018" fill-opacity=".682" d="M642.07 978.487l-331.934 38.447-61.747-1.322 145.729-27.532z"/><path fill="#fba791" fill-opacity=".396" d="M266.87 466.908l-70.493 44.578 29.573-84.416 1.34 7.044z"/><path fill="#003ea3" fill-opacity=".525" d="M789.566 695.818L614.33 532.579l205.312 241.106-262.288-91.276z"/><path fill="#36d6ff" fill-opacity=".471" d="M736.78 549.806l7.019-9.695 41.543 144.87-48.013-56.575z"/><path fill="#673134" fill-opacity=".835" d="M140.793 817.531l9.579-8.516 72.781-13.926 17.94-118.524z"/><path fill="#391a00" fill-opacity=".443" d="M383.791 390.958l-64.745-216.963 356.49 196.972-243.964-196.928z"/><path fill="#f7beb1" fill-opacity=".133" d="M786.884 483.833L898 580.603v-315.48L624.944 582.199z"/><path fill="#e8ffff" fill-opacity=".322" d="M709.457 430.624L465.608 282.992l103.12 31.342 53.84 35.622z"/><path fill="#1548b0" fill-opacity=".839" d="M239.545 871.749l-7.928-293.933 33.482 91.381 3.316 216.99z"/><path fill="#ffc645" fill-opacity=".376" d="M762.427 574.955l-13.671 16.127-100.07 43.26 46.114-33.135z"/><path fill="#564642" fill-opacity=".792" d="M501.511 133.22l223.401 196.448-176.169-284.65-63.814-15.173z"/><path fill="#cf8d67" fill-opacity=".749" d="M479.069 186.769l-149.545-50.79 72.838 69.813 47.863-89.134z"/><path fill="#71635d" fill-opacity=".498" d="M762.211 801.136l-104.533-28.93-39.177-19.262 179.064 199.72z"/><path fill="#0049c1" fill-opacity=".494" d="M155.816 485.445l-57.8 270.109 123.23-40.37-68.043-69.604z"/><path fill="#c8ced1" fill-opacity=".498" d="M543.458 470.726l-7.953-43.608-90.906 2.69 40.283 79.63z"/><path fill="#003" fill-opacity=".408" d="M550.903 575.676l218.071 98.172-119.565-15.712-104.465-292.807z"/><path fill="#00000b" fill-opacity=".49" d="M449.666 605.256L253.529 590.52l148.782 49.092-18.097 134.016z"/><path fill="#0c101d" fill-opacity=".643" d="M45.595 762.727l324.18 113.975-233.901-63.657 77.182-64.966z"/><path fill="#0c2b8d" fill-opacity=".835" d="M455.444 539.789l114.276 5.066-301.853-162.17 51.491-45.123z"/><path fill="#694a8d" fill-opacity=".847" d="M718.009 479.95l-65.459 51.317 90.761 54.804-78.03-108.343z"/><path fill="#311514" fill-opacity=".965" d="M192.217 351.783l125.877-61.31L215.641-2.015l-64.6 93.985z"/><path fill="#a0a7bd" fill-opacity=".553" d="M254.17 602.505l46.765 102.46 91.963 27.569-123.013-52.536z"/><path fill="#f2f3cc" fill-opacity=".416" d="M351.564 676.771l37.435 73.779-27.794-57.724-8.622-113.33z"/><path fill="#9e5d35" fill-opacity=".737" d="M304.982 213.298L430.013 60.082 273.77 148.289l3.553 48.627z"/><path fill="#000917" fill-opacity=".231" d="M649.357 1026.36l-22.37-198.754-306.706-24.114 460.52-94.177z"/><path fill="#82482b" fill-opacity=".698" d="M403.928 189.852l1.632 75.536 92.992-29.767-143.722-.537z"/><path fill="#1049d2" fill-opacity=".302" d="M653.498 996.375L375.29 828.237l251.53 32.473-270.608 8.891z"/><path fill="#555e55" fill-opacity=".42" d="M583.976 639.045l-35.05-29.053-123.078-65.385 31.756 65.429z"/><path fill="#070804" fill-opacity=".675" d="M406.038 662.329l160.007 46.229-195.56-185.224-30.36 84.432z"/><path fill="#110f68" fill-opacity=".804" d="M745.444 572.136l-180.879 4.087 156.403-35.584-121.776 103.196z"/><path fill="#00208e" fill-opacity=".514" d="M216.062 539.705l-92.529-131.703 99.85 16.99-20.646 57.123z"/><path fill="#110200" fill-opacity=".537" d="M404.25 108.773l-6.288 55.38 78.537-54.158 19.421 47.004z"/><path fill="#c1f4f1" fill-opacity=".365" d="M275.186 486.66L208.9 429.875l60.423 32.602-13.699 85.446z"/><path fill="#fcfaea" fill-opacity=".38" d="M297.989 316.524L261.214 342.8l-125.81 37.28 106.252-51.104z"/><path fill="#e8c5ae" fill-opacity=".235" d="M434.87 163.504l80.471-14.622-32.908 107.62-37.18-198.58z"/><path fill="#0735ab" fill-opacity=".678" d="M666.828 415.074l-87.706-55.612-246.974 41.574L669.83 422.04z"/><path fill="#ce4453" fill-opacity=".235" d="M38.302 938.517l193.199-43.481 8.553-242.904L208.3 854.314z"/><path fill="#1888e1" fill-opacity=".639" d="M753.897 615.165l43.754 169.81 7.099-45.15-87.92-145.6z"/><path fill="#c62e33" fill-opacity=".255" d="M794.481 1055.354l-64.215 20.726-102.526-92.845 126.561-49.23z"/><path fill="#0f267a" d="M384.764 862.498l-61.909-209.555 7.42-120.841 7.91 381.629z"/><path fill="#030735" fill-opacity=".918" d="M233.503 969.827l211.337 24.7-202.778-37.63.102 4.48z"/><path fill="#fff59d" fill-opacity=".2" d="M428.393 707.733l-16.283 56.982-5.984-103.855-51.424-13.75z"/><path fill="#a4ffdc" fill-opacity=".224" d="M129.86 645.887L31.68 755.082l-6.357-68.565 4.28 116.525z"/><path fill="#48282b" fill-opacity=".918" d="M73.534 714.44l-95.02 91.883L-62 640.603l201.318-74.814z"/><path fill="#0957ee" fill-opacity=".314" d="M212.501 963.92l47.183-53.202 92.08 58.62-76.318-14.843z"/><path fill="#e33233" fill-opacity=".525" d="M227.751 465.428l38.959 28.44-30.915 40.971-41.451-40.074z"/><path fill="#2988fe" fill-opacity=".333" d="M681.062 1086l-88.396-65.237 58.004-52.14-62.345-58.943z"/><path fill="#c8cbe7" fill-opacity=".435" d="M453.967 55.885l31.071 6.178 19.553 55.76-22.29-8.645z"/><path fill="#02092c" fill-opacity=".608" d="M458.481 697.414l-1.413 84.187-67.949-188.351 15.28 71.752z"/><path fill="#000129" fill-opacity=".592" d="M410.08 868.399l-80.385-54.282 70.435 31.433 137.913 40.047z"/><path fill="#071453" fill-opacity=".796" d="M383.723 781.594l21.346-116.29 13.949 159.332 199.65-142.072z"/><path fill="#e6b717" fill-opacity=".451" d="M516.03 465.198l-11.906-30.678-17.893 7.732-5.923 12.208z"/><path fill="#129efe" fill-opacity=".49" d="M695.635 694.655l98.299 7.175-75.199-34.93-148.088-22.236z"/><path fill="#e7f8fd" fill-opacity=".357" d="M268.345 642.642l10.621 63.089-19.181-69.175 42.682-25.157z"/><path fill="#3f2314" fill-opacity=".408" d="M766.263 443.457L822.89 811.97l-61.284-246.79-67.884-104.972z"/><path fill="#241a19" fill-opacity=".592" d="M-62 371.849L47.098 4.323l93.717 338.636-9.198 249.14z"/><path fill="#0f359e" fill-opacity=".749" d="M553.381 999.242l-160.223 37.612-275.52 1.614 299.29-30.914z"/><path fill="#453c3f" fill-opacity=".882" d="M203.978 772.748L13.265 816.714 37.82 773.39l112.166 24.822z"/><path fill="#aec0e3" fill-opacity=".667" d="M464.596 490.982l-18.895-39.272 34.374-37.34-3.828 91.56z"/><path fill="#1e60d0" fill-opacity=".816" d="M304.014 370.42l9.386-76.836-21.872 35.208-157.725 64.515z"/><path fill="#825227" fill-opacity=".718" d="M314.76 315.485l.562-92.855 67.935 86.11-57.077 56.554z"/><path fill="#1241b2" fill-opacity=".796" d="M231.862 870.777l41.759-13.606 35.627 17.603 51.393 43.535z"/><path fill="#050003" fill-opacity=".31" d="M457.652 372.684L329.234 254.21l258.038 51.401-81.174-113.63z"/><path fill="#000019" fill-opacity=".471" d="M174.935 498.636l50.677 68.435-2.436 109.119-59.593-.524z"/><path fill="#011e80" fill-opacity=".588" d="M403.524 697.336l-192.541 4.454 152.97-17.168-3.973-32.781z"/><path fill="#030f66" fill-opacity=".42" d="M304.117 421.113l89.213-23.689 85.197-47.22-274.747 47.61z"/><path fill="#1647b4" fill-opacity=".878" d="M214.733 560.716l257.562-159.522-209.609 93.45 11.122 49.693z"/><path fill="#402c27" fill-opacity=".725" d="M767.159 340.607L898 292.097l-144.34-15.71L440.582-62z"/><path fill="#021055" fill-opacity=".537" d="M599.513 816.513l-43.422 116.268 130.365-46.012-422.471-112.076z"/><path fill="#9c7372" fill-opacity=".408" d="M747.637 932.76l62.83-212.48L898 767.747l-178.97 43.317z"/><path fill="#a21923" fill-opacity=".604" d="M97.97 889.041l80.908 25.282L69.365 945.01 38.426 841.59z"/><path fill="#192e82" fill-opacity=".898" d="M311.576 606.929l-1.598 82.9-30.03-25.526-8.582-15.744z"/><path fill="#60292b" fill-opacity=".655" d="M18.376 702.107L-62 1015.59 315.058 1086 29.648 907.826z"/><path fill="#1463f8" fill-opacity=".263" d="M615.328 981.901l26.353-43.433-146.275 35.667-167.242 5.63z"/><path fill="#000013" fill-opacity=".373" d="M599.412 443.911l27.055 169.426-6.994 42.883-51.215-141.409z"/><path fill="#e2f5ff" fill-opacity=".118" d="M309.045 545.956l50.72 128.815-12.373-152.055-37.068 163.296z"/><path fill="#1344b1" fill-opacity=".584" d="M478.458 418.417l-292.762-7.56L422.183 553.69l-55.166-74.426z"/></svg>