<svg xmlns="http://www.w3.org/2000/svg" width="228" height="278" viewBox="0 0 836 1024"><path fill="#6b5e69" d="M0 0h836v1024H0z"/><path fill="#f1f5f5" fill-opacity=".882" d="M105.128 1086l89.706-281.348 244.584 178.196L898 1013.314z"/><path fill="#3a0119" fill-opacity=".745" d="M516.202 933.068l90.1-386.25-351.26-381.973-95.401 654.758z"/><path fill="#e9fffd" fill-opacity=".529" d="M862.67 607.026L525.479 366.922l-4.584 158.574L681.56 308.542z"/><path fill="#66d6ff" fill-opacity=".631" d="M549.367 161.658l286.586 7.265 27.41-145.565-237.928 11.9z"/><path fill="#83d8fa" fill-opacity=".565" d="M5.753 165.06L-62 31.382l457.834 9.332-30.803 100.989z"/><path fill="#928f91" fill-opacity=".988" d="M711.921 582.001L269.43 526.53l11.23 37.303 216.5 42.721z"/><path fill="#b8e2f2" fill-opacity=".659" d="M119.031 429.272L-62 447.44l243.193-181.804 101.979-19.088z"/><path fill="#490428" fill-opacity=".957" d="M711.366 753.74L725.373 966 898 1038.88V768.443z"/><path fill="#0c1728" fill-opacity=".749" d="M269.274 213.782L47.659 167.44-62 493.522 49.101 350.439z"/><path fill="#a5a8a0" fill-opacity=".769" d="M506.157 1086h92.732l112.968-639.105-145.94 293.261z"/><path fill="#3a0d15" fill-opacity=".741" d="M646.9 328.2L431.625 458.645l-14.83-270.6L634.85 457.762z"/><path fill="#ff8d49" fill-opacity=".369" d="M580.828 228.85l-325.785 54.71 20.304-147.744 326.885-49.24z"/><path fill="#170106" fill-opacity=".988" d="M584.432 635.649L438.5 844.76 245.381 657.404l107.723-75.491z"/><path fill="#f8f8fa" fill-opacity=".671" d="M261.537 827.118l-126.265 35.913 8.694 123.101 380.948 94.428z"/><path fill="#ebf0f6" fill-opacity=".839" d="M640.9 1049.73l24.307-93.493 54.31 16.77 151.854 64.735z"/><path fill="#e7fbf3" fill-opacity=".671" d="M715.772 746.385l13.806-37.994L898 716.451l-42.377 40.776z"/><path fill="#dabdff" fill-opacity=".302" d="M209.153 774.176L188.476 647.98l25.734-170.106L17.155 623.818z"/><path fill="#00243e" fill-opacity=".475" d="M898 145.967l-82.857 118.867-242.038 8.613 27.497-124.936z"/><path fill="#002204" fill-opacity=".455" d="M392.542 16.947L-62 18.02 693.478-62 384.83 157.679z"/><path fill="#b9e2f3" fill-opacity=".765" d="M754.692 445.957l-98.608-156.283-9.517 129.16-19.167 92.63z"/><path fill="#58012c" fill-opacity=".596" d="M321.01 789.508l274.318 3.56-106.97 199.465-111.273-40.514z"/><path fill="#552800" fill-opacity=".518" d="M602.846 811.122l247.32-369.263L694.47 566.13l21.555 223.155z"/><path fill="#555" fill-opacity=".929" d="M205.301 1075.543l-167.443-24.265-71.226-611.005 146.362 490.881z"/><path fill="#2ba3b6" fill-opacity=".592" d="M219.46 434.96L82.824 471.357l23.172-111.123 116.075-41.47z"/><path fill="#41061e" fill-opacity=".867" d="M597.324 598.843L514.82 461.222l11.697 85.279L639.62 429.417z"/><path fill="#4c102b" fill-opacity=".827" d="M680.724 683.08L898 725.637l-92.494-106.9-67.4 45.126z"/><path fill="#303139" fill-opacity=".784" d="M23.01 197.371l21.935 321.561 148.836-41.899L52.28 438.28z"/><path fill="#cdd09c" fill-opacity=".992" d="M517.018 421.593l76.075 18.709-5.006 44.033-47.16 21.345z"/><path fill="#9a024c" fill-opacity=".467" d="M231.2 548.507l-32.28 55.61-75.99 172.953 180.48 92.257z"/><path fill="#feccac" fill-opacity=".663" d="M843.47 647.938L898 584.652l-116.237-78.958-.043 62.295z"/><path fill="#0077ad" fill-opacity=".525" d="M165.792 136.452l3.486 65.611L-62 207.155l85.48-74.785z"/><path fill="#0c0002" fill-opacity=".631" d="M216.028 238.598l10.474 7.381-11.297 276.472 108.972-7.406z"/><path fill="#dbf1fc" fill-opacity=".62" d="M46.845 352.464l86.784-48.125 123.126-60.698L52.38 420.974z"/><path fill="#ddf1f0" fill-opacity=".514" d="M349.903 426.477l4.976-12.152-73.343-13.865 68.103 48.22z"/><path fill="#ffad70" fill-opacity=".404" d="M665.41 717.294l-34.871 96.083 101.274 29.268-230.874 101.1z"/><path fill="#edbe83" fill-opacity=".682" d="M828.638 340.14l-42.839.018-2.985 52.53L898 409.963z"/><path fill="#0094d0" fill-opacity=".467" d="M815.408 124.119L898 181.703l-316.38 7.342 20.378-38.44z"/><path fill="#6ac0d5" fill-opacity=".51" d="M654.748 449.765l-17.534 240.337 38.545 25.09 46.91-285.977z"/><path fill="#962d50" fill-opacity=".627" d="M216.824 298.679l139.732 34.563 28.445-140.87-101.997-35.04z"/><path fill="#cbaa76" fill-opacity=".639" d="M383.614 203.037L492.535 65.186l7.78 199.325 100.736-70.483z"/><path fill="#50707e" fill-opacity=".588" d="M710.717 835.92L627.502 1086h-11.03l-18.86-179.718z"/><path fill="#0b0600" fill-opacity=".765" d="M462.188 410.052L419.305 213l69.321 103.411 61.049 5.848z"/><path fill="#1f2b22" fill-opacity=".596" d="M554.708 29.429l58.955 80.042-89.066-14.545L450.29 41.06z"/><path fill="#71305a" fill-opacity=".957" d="M491.053 392.959l17.129 41.598L601.953 217.3l33.52 188.638z"/><path fill="#d0d8e1" fill-opacity=".612" d="M714.47 642.566l13.259-30.201 53.847 19.591-22.7 23.084z"/><path fill="#b4b4b2" fill-opacity=".733" d="M282.838 516.373l-3.853 14.161 90.609 31.357 243.029 36.542z"/><path fill="#6f4a06" fill-opacity=".447" d="M733.842 422.22l45.424-97.803L898 622.28l-96.755-111.712z"/><path fill="#e7f3ff" fill-opacity=".525" d="M633.137 290.15l116.377 230.83 30.656-24.562-76.712-162.216z"/><path fill="#b21a70" fill-opacity=".431" d="M681.759 973.095l125.605-9.006-70.16-88.99-9.348-156.401z"/><path fill="#ffc96c" fill-opacity=".376" d="M394.29 222.088l-22.35-10.939 11.254 90.538 63.37 49.884z"/><path fill="#aee1f8" fill-opacity=".318" d="M898 102.722L557.744 13.73l72.246 93.702-209.857 54.533z"/><path fill="#000800" fill-opacity=".349" d="M597.062 494.67L325.26 545.33l452.939-28.008-47 65.62z"/><path fill="#3e2e2b" fill-opacity=".725" d="M898 217.348L463.109 177.12l62.727-26.775 151.316 115.874z"/><path fill="#f8f7fa" fill-opacity=".682" d="M158.735 852.342l60.985-25.866 143.4 81.435-219.538 43.424z"/><path fill="#180007" fill-opacity=".69" d="M765.763 762.185l-27.159 44.814 92.089 130.09L898 756.608z"/><path fill="#002133" fill-opacity=".514" d="M51.673 827.752L-62 706.848v-111.88L73.99 755.82z"/><path fill="#2c000d" fill-opacity=".671" d="M427.842 861.725L261.308 687.447l258.426 200.854 88.661-370.797z"/><path fill="#d9bb9d" fill-opacity=".71" d="M581.975 239.124L471.391 195.12l91.799-15.442 18.61 6.957z"/><path fill="#230610" fill-opacity=".953" d="M597.187 552.706l-108.76 6.316-216.269-52.407 183.327 8.19z"/><path fill="#754d1c" fill-opacity=".42" d="M898 257.556L548.997 284.69l-25.781 52.352-111.184-117.7z"/><path fill="#b8b6bd" fill-opacity=".753" d="M296.576 405.287l46.273 30.875 12.203-32.642-60.993 40.716z"/><path fill="#b4bacd" fill-opacity=".431" d="M57.227 94.525l316.105 64.354 1.255-96.199-196.478 1.847z"/><path fill="#c0c2bf" d="M548.512 601.187L522.8 588.66l39.762-37.83 13.396 16.93z"/><path fill="#0b0000" fill-opacity=".851" d="M533.825 793.984l38.304-120.12-93.83-83.394L366.75 696.027z"/><path fill="#560d34" fill-opacity=".804" d="M507.702 1000.595L321.4 756.945l-144.043 16.464 54.01 46.796z"/><path fill="#ffb050" fill-opacity=".435" d="M-62 450.542v-9.797l98.508-56.57 11.708 86.767z"/><path fill="#9c6069" fill-opacity=".459" d="M86.352 686.312l110.61 43.951 4.37 16.246-114.435 279.39z"/><path fill="#dcebff" fill-opacity=".239" d="M550.767 793.858l1.193 156.08 320.577 64.555-353.417-27.135z"/><path fill="#22151e" fill-opacity=".545" d="M281.76 251.34L-62 197.217l73.553 183.537 252.39-192.313z"/><path fill="#e3cbeb" fill-opacity=".302" d="M602.159 580.306l-11.96 150.726-38.68 70.867 37.7-198.84z"/><path fill="#553100" fill-opacity=".62" d="M-62 614.54L50.382 410.593l24.882 55.042L-62 550.706z"/><path fill="#77cff6" fill-opacity=".235" d="M108.045 715.178l65.447-110.001-99.872-73.17-18.098 139.454z"/><path fill="#9dcffe" fill-opacity=".192" d="M616.392 564.283l88.538-326.254 50.239 12.36 11.056 68.585z"/><path fill="#232000" fill-opacity=".361" d="M435.643 197.648L387.67 56.643l90.63-9.69-61.858 180.803z"/><path fill="#131102" fill-opacity=".525" d="M774.696 447.276l24.61 71.415L898 568.755 776.659 451.32z"/><path fill="#901155" fill-opacity=".537" d="M532.5 995.789l-73.531-15.827 12.708-138.826 51.688 78.968z"/><path fill="#a77c4e" fill-opacity=".824" d="M742.355 441.072l-.182-20.626L898 427.539l-73.22 35.866z"/><path fill="#0d5e60" fill-opacity=".259" d="M2.81 47.325L-62 4.58 426.35-62 414.553 47.35z"/><path fill="#3f6469" fill-opacity=".576" d="M720.864-62L382.038 24.771l205.406 12.136L898 35.513z"/><path fill="#7f1249" fill-opacity=".608" d="M122.325 863.566l121.104-46.617-98.37-79.296 126.23-157.375z"/><path fill="#d41800" fill-opacity=".404" d="M281.125 184.811l3.47 62.88 75.45-10.144 21.81-58.687z"/><path fill="#a5eaff" fill-opacity=".329" d="M693.897 705.035l-59.092-28.05 24.493-125.623 26.54-9.399z"/><path fill="#a06516" fill-opacity=".298" d="M663.333 893.517l-161.544 88.27 245.08-228.613-137.023-1.151z"/><path fill="#607684" fill-opacity=".624" d="M592.037 576.716L605.3 734.923l77.197-268.154 62.847 60.156z"/><path fill="#5bcdfd" fill-opacity=".314" d="M40.594 143.374L-62 63.464l267.418-10.08-49.852 86.768z"/><path fill="#3a0618" fill-opacity=".549" d="M658.523 815.227l82.086-148.304-46.56-42.055 40.611-85.157z"/><path fill="#34101f" fill-opacity=".922" d="M299.861 582.508l40.868 81.987-27.805-152.121 143.93-191.87z"/><path fill="#f7d4b5" fill-opacity=".612" d="M596.623 130.728l-80.227 1.76 24.13 24.194 57.096 2.591z"/><path fill="#1b0009" fill-opacity=".388" d="M384.96 556.883l-170.805-142.8-7.959 182.256 289.967-306.79z"/><path fill="#561a3c" fill-opacity=".949" d="M310.033 418.878l21.513 5.902 65.825-98.683-25.479-66.735z"/><path fill="#e3f6b7" fill-opacity=".188" d="M26.668 818.507l19.443 76.327-85.736 190.906L-62 776.727z"/><path fill="#ba7f07" fill-opacity=".29" d="M898 682.7l-166.952-73.178 50.405-91.106L898 786.141z"/><path fill="#a6bdff" fill-opacity=".251" d="M168.377 323.522l53.606 48.392-11.338-114.176 146.623-13.628z"/><path fill="#90d5e3" fill-opacity=".525" d="M70.925 332.856L105.71 448.14l105.742.231-134.988 7.825z"/><path fill="#0c0000" fill-opacity=".396" d="M194.413 446.583l136.81-115.506-95.983-17.863 68.727 355.752z"/><path fill="#a9829d" fill-opacity=".631" d="M377.453 959.37l83.046 33.898 39.802-2.318-100.73-44.382z"/><path fill="#98838e" fill-opacity=".557" d="M390.48 147.245l-248.214 16.882 109.009-62.944 177.089 46.234z"/><path fill="#c25f97" fill-opacity=".49" d="M653.442 287.22l-148.577-12.71 101.076 32.498 39.207 35.485z"/><path fill="#260a16" fill-opacity=".584" d="M426.737 570.757l69.52-67.254-1.851 77.899-67.967-100.498z"/><path fill="#e3fded" fill-opacity=".373" d="M420.084 551.327l43.867 55.957-74.376-61.503-65.162 44.94z"/><path fill="#430e2d" fill-opacity=".792" d="M310.644 499.423l214.673 29.72-6.938-125.53 37.613-79.124z"/><path fill="#590027" fill-opacity=".518" d="M642.827 430.44L538.404 783.194l56.129-328.758-2.969-54.704z"/><path fill="#180305" fill-opacity=".992" d="M561.277 710.369l-22.475-117.274-220.275 121.823 112.37-129.106z"/><path fill="#313e51" fill-opacity=".584" d="M246.135 250.19l-83.487 21.083-29.318-96.977 121.36 9.571z"/><path fill="#fff828" fill-opacity=".427" d="M561.874 401.836l5.405 88.76-16.333-6.74-16.849-19.635z"/><path fill="#eff0f5" fill-opacity=".522" d="M35.844 375.07l163.603-116.983 23.106 44.615-143.544 28.291z"/><path fill="#033038" fill-opacity=".294" d="M44.93 551.023l-33.384-.01 33.703-84.106 203.92-21.898z"/><path fill="#cededa" fill-opacity=".639" d="M559.336 498.016l-41.159-106.437 6.762 79.545-.677 17.24z"/><path fill="#250512" fill-opacity=".851" d="M421.692 932.815l-54.155-22.642 70.722 43.995 73.123 6.03z"/><path fill="#0d0e00" fill-opacity=".408" d="M500.399 390.027l29.612-24.678-101.062-154.316-25.111 61.811z"/><path fill="#280715" fill-opacity=".71" d="M543.864 565.891l-169.156-58.068 292.373 24.468-148.819-43.027z"/><path fill="#32414a" fill-opacity=".675" d="M609.433 927.586l29.049 30.69 30.975-51.332-13.741-29.106z"/><path fill="#608391" fill-opacity=".569" d="M269.74 29.73L76.605 31.917 391.92 49.225l60.873-33.762z"/><path fill="#303e35" fill-opacity=".702" d="M366.792.184L898-2.358l-43.843 12.72-264.64 4.498z"/><path fill="#becbe0" fill-opacity=".682" d="M580.315 484.384l10.749-87.362-74.05 3.362 53.96 34.122z"/><path fill="#ffdb8e" fill-opacity=".384" d="M35.782 382.984l-49.8 176.711 38.868-31.192-48.01-87.931z"/><path fill="#ffccb8" fill-opacity=".353" d="M651.5 866.165l-5.874-36.281L508.08 956.38l93.476-146.52z"/><path fill="#e5ab7c" fill-opacity=".349" d="M457.082 152.194l-44.383 80.938-73.716-53.37 235.006 57.535z"/><path fill="#921e62" fill-opacity=".498" d="M297.39 806.048l149.861 85.391-30.965 1.737-34.725-6.836z"/><path fill="#2d0818" fill-opacity=".78" d="M380.067 556.345l-67.754 99.767 160.303-35.7-103.263-10.65z"/></svg>