<svg xmlns="http://www.w3.org/2000/svg" width="228" height="278" viewBox="0 0 836 1024"><path fill="#486979" d="M0 0h836v1024H0z"/><g fill-opacity=".502"><path fill="#bfb5b0" d="M294 1086l84-992-440 584z"/><path fill="#00172f" d="M-22 422L898 22 6-62z"/><path fill="#ffb76f" d="M354 438L306 58l120 88z"/><path fill="#002c5d" d="M898 442L438 230 822-62z"/><path fill="#d6ae99" d="M622 582l52 428 224-44z"/><path fill="#711200" d="M374 450l148-80-76-432z"/><path fill="#e4f8f9" d="M342 286L42 638l96-268z"/><path fill="#221615" d="M86 638l112-152-8 324z"/><path fill="#520b00" d="M742 662L626 470l100 476z"/><path fill="#55a0d3" d="M2 674l-20 308 344 36z"/><path fill="#60a7d6" d="M898 502l-188 4 88 580z"/><path fill="#f87c41" d="M38 694l48-160 240 480z"/><path fill="#1b2b26" d="M362 710l-92-112 516-56z"/><path fill="#004373" d="M334 34L-42 714-62 18z"/><path fill="#469abc" d="M598 630L326 510l352-260z"/><path fill="#ffe6a7" d="M686 914V646l-64 48z"/><path fill="#b1dfe0" d="M230 474l152 392-112-4z"/><path fill="#ffd4a1" d="M302 182l36-148 48 312z"/><path fill="#265571" d="M286 866L94 662l92-228z"/><path fill="#1e87a1" d="M642 1050l-52-524-272 560z"/><path fill="#16130a" d="M482-50l28 188L-62-10z"/><path fill="#004469" d="M478 126L834-62l20 604z"/><path fill="#830000" d="M490 370l-184-36 84 96z"/><path fill="#912706" d="M318 850l88 100-116 36z"/><path fill="#cdeaf8" d="M666 330l-164-32 196 96z"/><path fill="#7bb2c7" d="M266 330L118 490l376 16z"/><path fill="#00466f" d="M338 286L202-62-62 414z"/><path fill="#7a0000" d="M158 614l-28 132-56-192z"/><path fill="#ffffc9" d="M106 778L70 566 42 682z"/><path fill="#6a1c05" d="M722 874l-44 204 108 8z"/><path fill="#7d5231" d="M502 94l-8 212-156-128z"/><path fill="#1f638f" d="M142 282L10 766l-72-476z"/><path fill="#2a7292" d="M490 406l328 224 52-352z"/><path fill="#fba87c" d="M270 958l80-88-196-52z"/><path fill="#4e99ca" d="M142 662l72-80 44 252z"/><path fill="#cc8b68" d="M314 106L422-22l-92 48z"/><path fill="#0d1b26" d="M-62 1026l312 48 4-84z"/><path fill="#00324f" d="M898 18L482-62l60 352z"/><path fill="#004b75" d="M622 94L466 262l164 68z"/><path fill="#bde3e1" d="M282 462l-44 100-84-108z"/></g></svg>