<svg xmlns="http://www.w3.org/2000/svg" width="228" height="278" viewBox="0 0 836 1024"><path fill="#49415f" d="M0 0h836v1024H0z"/><path fill="#9c9fe8" fill-opacity=".973" d="M379.58 448.401l198.904 45.194 219.683 514.268L444.653 1086z"/><path fill="#020003" fill-opacity=".624" d="M678.982 757.102l218.012 293.967L834.572 9.979 516.191-43.924z"/><path fill="#d8cef3" fill-opacity=".988" d="M773.084 1059.537L309.454 1086l161.214-233.112 290.504 20.353z"/><path fill="#475cd5" fill-opacity=".753" d="M610.193 893.242L444.399 574.917l-40.057-395.779L621.58 376.892z"/><path fill="#1b0c03" fill-opacity=".655" d="M-26.042 177.175L-62 349.243l220.266 367.603L348.37 353.933z"/><path fill="#ffae7b" fill-opacity=".584" d="M325.292 45.705l156.83 62.262-9.031 217.225-175.192-94.724z"/><path fill-opacity=".655" d="M411.816 750.814l-201.36 139.233L181.066 1086l278.142-202.91z"/><path fill="#150c08" fill-opacity=".737" d="M189.176 234.768L-62-7.267l845.347 8.724-605.821 44.877z"/><path fill="#201925" fill-opacity=".745" d="M-33.466 1072.888L-62 913.927V724.792l453.815-102.678z"/><path fill="#ffe7fa" fill-opacity=".518" d="M497.655 692.191l10.777 174.893-183.695-347.406 92.447-53.958z"/><path fill="#0d20eb" fill-opacity=".357" d="M301.46 839.377l-125.215 44.509 164.35-295.876 110.594 73.03z"/><path fill="#fc996e" fill-opacity=".525" d="M191.553 844.317l30.478 52.84-45.58 76.988-98.056-24.337z"/><path fill="#2b1d20" fill-opacity=".816" d="M379.67-47.34L297.786 78.8 538.47-5.833l109.606 472.42z"/><path fill="#454598" fill-opacity=".537" d="M883.662 341.614L783.443 537.768l-75.199-135.842 37.009-114.51z"/><path fill="#2b2e8a" d="M497.24 456.58l-71.979-168.77-281.363-85.748-8.361 35.902z"/><path fill="#455fdd" fill-opacity=".624" d="M645.754 503.242l-197.04-83.055L529.84 846.98l128.718 12.472z"/><path fill="#ff934f" fill-opacity=".455" d="M152.099 221.838l-76.727 22.216-107.94-151.673 149.055 69.086z"/><path fill="#140901" fill-opacity=".62" d="M292.129 154.812l5.481 84.383-96.88-19.3-146.481-89.581z"/><path fill="#100d0f" fill-opacity=".596" d="M781.552 961.431L752.248 1086 898 958.343 555.832-62z"/><path fill="#171522" fill-opacity=".714" d="M277.141 956.472L-62 1001.86 365.332 1086l34.606-379.26z"/><path fill="#6e7bd9" fill-opacity=".984" d="M572.896 802.951l98.77-186.812L436.239 1086l66.522-66.204z"/><path fill="#100f20" fill-opacity=".863" d="M488.56 394.58l-83.502 65.499-23.41-95.816-353.36-44.137z"/><path fill="#cdb9d2" fill-opacity=".647" d="M789.02 968.405l-41.52-33.62L601.69 676.51l1.996-68.269z"/><path fill="#eb8c5f" fill-opacity=".216" d="M435.454 65.315l122.38 163.228-413.781-94.26 79.902-102.865z"/><path fill="#f9b5f8" fill-opacity=".122" d="M234.75 672.068L-62 354.119l170.21 279.688 289.228-302.082z"/><path fill="#00000a" fill-opacity=".514" d="M326.427 480.695L-62 222.27l191.56 17.908 188.94 97.32z"/><path fill="#ddcef4" fill-opacity=".953" d="M495.694 893.73l-74.776-205.532-32.789-273.571 125.959 334.191z"/><path fill="#5d6fd4" fill-opacity=".988" d="M464.012 794.552l-15.148 97.063-20.726-69.862-31.85-149.323z"/><path fill="#4f63d1" fill-opacity=".82" d="M406.913 245.345l180.604 107.58-8.957 327.354-28.104-427.56z"/><path fill="#442d19" fill-opacity=".455" d="M656.206 743.775l149.1-25.932-187.101-52.961 7.2 32.492z"/><path fill="#4b4eb1" fill-opacity=".976" d="M158.857 881.276l65.457-81.3 95.78-152.75-62.99 164.46z"/><path fill="#00043b" fill-opacity=".337" d="M356.827 589.785l66.676 68.086L316.32 725.08l35.11-349.685z"/><path fill="#b0b6ff" fill-opacity=".557" d="M322.595 516.168l-2.565-28.88 1.126-45.57 36.198-75.72z"/><path fill="#0d0c0c" fill-opacity=".627" d="M20.719 621.477l-47.815 433.118L221.107 806.07-62 855.275z"/><path fill="#e9defc" fill-opacity=".953" d="M474.49 1086l174.738-104.865 67.848-121.946-154.557.208z"/><path fill="#674032" fill-opacity=".565" d="M173.226 391.877L71.497 560.292l-127.294 34.36L142.117 325.23z"/><path fill="#7568a7" fill-opacity=".384" d="M718.549 959.167l22.84-197.917-2.731 324.75-135.907-34.434z"/><path fill="#efe9ff" fill-opacity=".318" d="M459.726 269.054l36.6 45.369-62.913-19.215-160.733-44.405z"/><path fill="#3d3261" fill-opacity=".816" d="M117.582 808.197l44.557-36.14-53.563-190.148L-62 558.93z"/><path fill="#485fe3" fill-opacity=".757" d="M538.081 678.856L501.39 848.655l177.917 11.238-.71-45.613z"/><path fill="#f9d7d3" fill-opacity=".31" d="M445.189 369.886l-30.002 9.12 80.51 25.904 12.507-48.325z"/><path fill="#d2c0d4" fill-opacity=".824" d="M447.191 555.63L354.15 492.1l9.054-56.84 15.66 180.502z"/><path fill="#eadffa" fill-opacity=".902" d="M490.21 812.397l23.57 75.479-45.259 133.84L329.818 1086z"/><path fill="#1f1722" fill-opacity=".573" d="M465.08 238.05L577.904 56.453l-198.325-40.04 304.54 288.693z"/><path fill="#020300" fill-opacity=".565" d="M23.034 463.398l71.777-46.313L-62 304.605l31.314 394.847z"/><path fill="#c68463" fill-opacity=".518" d="M364.732 51.436l-66.358 217.36 196.486-67.088-11.98-100.274z"/><path fill="#3240c5" fill-opacity=".631" d="M399.69 448.65l37.587-7.993 128.696-98.923-107.35 194.51z"/><path fill="#0e0c0c" fill-opacity=".729" d="M630.95 481.836l51.787 221.767L893.73 898.008 898 597.563z"/><path fill="#2a30a1" fill-opacity=".941" d="M512.425 298.236l53.724 90.842-379.62-178.695L363.3 364.497z"/><path fill="#cbc3fe" fill-opacity=".42" d="M790.661 963.364L688.264 858.447 651.47 724.71l71.234 85.329z"/><path fill="#262232" fill-opacity=".894" d="M214.386 1086L109.258 931.279l-22.233 77.94 337.987-85.177z"/><path fill="#8b9aff" fill-opacity=".392" d="M337.247 382.65l-18.415 127.077 43.107 75.242-36.926 16.479z"/><path fill="#080810" fill-opacity=".631" d="M563.344 315.882L898 25.692l-17.91 94.927L672.086 367.44z"/><path fill="#010100" fill-opacity=".475" d="M296.418 810.571l151.29 60.47-25.899 55.923-205.823 5.939z"/><path fill="#3c1a00" fill-opacity=".396" d="M-62 102.11L183.147-62-62 275.03l162.066-149.51z"/><path fill="#ffae89" fill-opacity=".341" d="M75.31 148.89l51.66 18.113-83.59 74.3 12.314-79.34z"/><path fill="#6f74f3" fill-opacity=".235" d="M240.06 51.633l32.113 45.12-97.268 69.88-16.758-75.711z"/><path fill="#382429" fill-opacity=".396" d="M371.403 111.919l11.198 40.794L-62 63.364l340.123 112.605z"/><path fill="#392b36" fill-opacity=".353" d="M821.108 554.978l-209.306-256.17-6.083 208.439 20.05 12.785z"/><path fill="#0c093b" fill-opacity=".427" d="M306.407 538.804l57.3 162.639 41.553-83.61-115.106-32.993z"/><path fill="#bcb3cf" fill-opacity=".953" d="M481.202 288.652l13.86-17.834-41.39 59.799-43.312-79.182z"/><path fill="#ffb07d" fill-opacity=".102" d="M898 237.232l-71.793 190.973-63.993-7.951 45.01-212.464z"/><path fill="#100900" fill-opacity=".584" d="M488.868 58.709l34.762 21.675-3.685 87.18L382.969-.44z"/><path fill="#bd8472" fill-opacity=".725" d="M462.867 244.608l-129.144 34.975L294.4 174.459l206.462-7.382z"/><path fill="#ee9d7e" fill-opacity=".427" d="M206.725 870.981l-97.263 35.533 15.157-16.202-54.57 82.742z"/><path fill="#d4c9ea" fill-opacity=".616" d="M643.458 744.663l-45.171-77.37 63.517 2.282-61.696-52.374z"/><path fill="#b1b4f4" fill-opacity=".525" d="M328.978 436.951l49.916-49.694-6.763-7.727-26.03-4.619z"/><path fill="#0d15fe" fill-opacity=".184" d="M398.706 739.413l-190 169.579 4.692-90.737 90.19-116.688z"/><path fill="#3540c2" fill-opacity=".729" d="M537.034 292.917l-48.26-56.881-47.356 9.362 94.115 91.496z"/><path fill="#000100" fill-opacity=".267" d="M414.138 372.774l-46.05-37.72 3.118 138.006 104.397-54.283z"/><path fill="#c3d4ff" fill-opacity=".227" d="M530.223 363.429l-90.088 1.71 155.037 18.673-47.41-97.385z"/><path fill="#5c372c" fill-opacity=".498" d="M251.137 201.523l112.316 22.993-64.997 19.719 2.331-246.38z"/><path fill="#ffa642" fill-opacity=".149" d="M187.881 722.368l35.034-15.456 62.918 1.603-45.627 103.273z"/><path fill="#4a302e" fill-opacity=".992" d="M515.686 183.155l-60.66 45.369 122.757-15.753-40.767-99.813z"/><path fill="#424cb9" fill-opacity=".718" d="M394.286 708.623l19.34-74.143-22.325-38.298-9.468 33.016z"/><path fill="#5c3f2f" fill-opacity=".718" d="M796.146 51.965L814.053-62 898 37.91l-14.54 58.937z"/><path fill="#3341a4" fill-opacity=".976" d="M574.136 556.349l78.32 106.29 14.702-16.212-300.475-289.92z"/><path fill="#2d293c" fill-opacity=".455" d="M720.379 874.897L898 917.003 758.793 1086l42.49-234.873z"/><path fill="#0b0b0f" fill-opacity=".729" d="M174.955 366.118l186.275-5.24-58.112 76.366-99.29 12.4z"/><path fill="#553c50" fill-opacity=".655" d="M322.804 555.134l-214.586 43.738 83.13 50.21 100.104-198.37z"/><path fill="#d5946f" fill-opacity=".471" d="M392.989 52.474L348.05 250.369l71.416-31.223 25.777-151.381z"/><path fill="#3a2a2a" fill-opacity=".82" d="M325.565 79.283L220.38 3.334 455.134 72.26l-76.475-49.67z"/><path fill="#161a63" fill-opacity=".588" d="M86.998 218.572l131.6 87.411 122.001 58.73 90.827 11.02z"/><path fill="#151123" fill-opacity=".533" d="M304.869 679.464L286.8 696.5l-41.671-1.917 78.286-127.1z"/><path fill="#1c1f45" fill-opacity=".667" d="M590.858 366.99L516.56 216.121l134.733 36.148-52.124 58.784z"/><path fill="#4f69e7" fill-opacity=".733" d="M471.814 638.844l-28.699-144.872L609.576 623.36l-85.44 132.278z"/><path fill="#3034ad" fill-opacity=".588" d="M144.219 197.042L440.604 302.49l-1.236 36.872-306.766-103.719z"/><path fill="#14216c" fill-opacity=".325" d="M732.97 282.386l-53.122 145.6 89.446 105.647 66.576-9.668z"/><path fill="#fca077" fill-opacity=".388" d="M131.74 935.46l1.377-26.427-3.203 61.287 62.29 10.66z"/><path fill="#734c21" fill-opacity=".204" d="M47.384 869.55l4.05-161.774 92.547 45.527 131.285-31.951z"/><path fill="#1d1a26" fill-opacity=".816" d="M120.946 938.264l28.855 126.598L-55.33 840.785-21.248 1086z"/><path fill="#cfcbee" fill-opacity=".349" d="M363.708 378.248l10.207 15.187-2.724 16.636-13.014 65.628z"/><path fill="#0e0b12" fill-opacity=".659" d="M313.012 251.736l-144.405-45.879-36.45-18.685-39.307-107.7z"/><path fill="#3a0703" fill-opacity=".455" d="M177.71 934.778l-1.112-1.26-30.152.654 16.475-33.467z"/><path fill="#00055b" fill-opacity=".373" d="M348.276 382.538l35.314 85.71-11.408-49.123-44.295 95.166z"/><path fill="#0c080d" fill-opacity=".333" d="M231.894 649.728L140.129 892.34l94.957-113.21-132.92-130.864z"/><path fill="#e7dcf6" fill-opacity=".686" d="M491.668 848.983l-53.362 189.506 39.81-54.086-104.197-3.968z"/><path fill="#ecddc8" fill-opacity=".271" d="M541.48 276.95l1.155 33.858 36.698 42.745-26.891-74.01z"/><path fill="#000133" fill-opacity=".349" d="M324.75 641.37l34.457-59.194 49.393 163.15 23.013 72.276z"/><path fill="#1c1445" fill-opacity=".341" d="M721.634 48.074L404.312 92.526l265.725 26.496 100.595 122.171z"/><path fill="#d48973" fill-opacity=".42" d="M186.973 943.45l-2.417-90.249-125.2 132.174 160.27-111.716z"/><path fill="#dccff8" fill-opacity=".51" d="M724.013 916.562l-47.784-178.47-60.85-14.398 13.535-13.25z"/><path fill="#8988ff" fill-opacity=".133" d="M827.975 369.555l-51.434 59.43-38.176-77.778 41.17-24.758z"/><path fill="#8190ec" fill-opacity=".345" d="M326.786 547.281l-20.303 129.41 22.951-26.08-.853-211.938z"/><path fill="#e7d4b5" fill-opacity=".184" d="M631.018 475.825l19.407 92.092 3.277 200.707-14.877-214.818z"/><path fill="#decef8" fill-opacity=".678" d="M435.844 709.747l48.949 199.44-29.497-346.21-54.324-118.555z"/><path fill="#cfc4d8" fill-opacity=".973" d="M395.753 272.086l46.585 22.572 10.459 31.662 42.037-33.806z"/><path fill="#5b77ea" fill-opacity=".867" d="M643.918 744.292L453.457 498.95l203.908 314.372 12.512-28.874z"/><path fill="#e6c8bd" fill-opacity=".506" d="M351.592 76.708l5.36-.719-36.35 8.474-12.7 41.224z"/><path fill="#0f0a04" fill-opacity=".494" d="M52.113 312.607L-60.08-37.64 57.373 17.585-45.81 181.095z"/><path fill="#141018" fill-opacity=".686" d="M435.106 864.494l-193.99-4.693 138.88-72.092 22.028-58.985z"/><path fill="#cb9ccb" fill-opacity=".145" d="M203.844 152.091l4.147-82.258 118.22-13.218-117.37 99.164z"/><path fill="#221818" fill-opacity=".871" d="M771.74 721.122L745.193 850.33l-74.677-177.39-38.959 3.5z"/><path fill="#5e4e87" fill-opacity=".518" d="M188.842 621.737l71.095 45.693 20.663-68.096-59.918-41.427z"/><path fill="#573730" fill-opacity=".51" d="M400.862 139.633L383.739 116.4l-167.121 22.742 170.348-10.511z"/><path fill="#070708" fill-opacity=".643" d="M39.766 265.572L315.07 425.61 122.64 256.82l29.786-35.235z"/><path fill="#9c6356" fill-opacity=".224" d="M167.737 407.86l-39.064-34.118-78.465 214.77-19.042-97.494z"/><path fill="#4c6eeb" fill-opacity=".478" d="M607.481 481.89l-17.74-118.863-44.893 35.314-27.225 29.019z"/><path fill="#daa48f" fill-opacity=".404" d="M298.014 195.81l129.683-54.587-46.562 113.719-80.176-122.036z"/><path fill="#020302" fill-opacity=".29" d="M599.585 46.344l184.48 261.36-156.3 63.948 40.275-89.978z"/></svg>