<svg xmlns="http://www.w3.org/2000/svg" width="228" height="278" viewBox="0 0 836 1024"><path fill="#656349" d="M0 0h836v1024H0z"/><path fill="#ddb7f2" fill-opacity=".8" d="M884.367 1035.446l-170.02 44.33 3.944-186.937L898 878.142z"/><path fill="#d2b6db" fill-opacity=".722" d="M-62 1059.55l76.27-176.417L241.575 1086l36.21-214.288z"/><path fill="#d0c409" fill-opacity=".706" d="M339.995 1016.867l97.208-998.932 4.983 706.779-63.459 332.77z"/><path fill="#dfdb01" fill-opacity=".737" d="M490.851 305.01l101.7 94.986 71.465 299.938.451 180.43z"/><path fill="#c6c221" fill-opacity=".859" d="M242.164 347.551l-102.697 506.25-82.153 188.15-16.723-83.305z"/><path fill="#152024" fill-opacity=".898" d="M261.534 373.509L224.968 496.23 81.739 1086l196.563-423.378z"/><path fill="#beccf9" fill-opacity=".475" d="M83.148 404.934l-69.56-161.482 154.875-30.124 52.846 211.765z"/><path fill="#09183e" fill-opacity=".475" d="M825.73-62l20.07 556.197L426.108 64.77 166.162-62z"/><path fill="#040c12" fill-opacity=".631" d="M325.062 698.021l-29.96 376.29 94.868-358.017-41.317-477.243z"/><path fill="#b18a6c" fill-opacity=".937" d="M434.42 63.314L290.24 45.459l129.103 356.743 72.49-196.044z"/><path fill="#e6e566" fill-opacity=".918" d="M476.303 1003.82l-145.15 18.228 185.926 10.102-28.933-255.692z"/><path fill="#000d1b" fill-opacity=".635" d="M398.728 1085.532L460.1 522.85l157.657 326.727-50.81-311.953z"/><path fill="#bdb803" fill-opacity=".702" d="M327.059 394.69l-33.925-42.724-23.74 215.022 56.748 259.116z"/><path fill="#dbda00" fill-opacity=".71" d="M549.766 587.28l-37.396-85.561.744 300.038 30.035-125.685z"/><path fill="#fed3c3" fill-opacity=".545" d="M603.265 786.305l-4.613 216.826-252.254 9.62L667.91 1086z"/><path fill="#00103c" fill-opacity=".616" d="M509.835 1018.566l-3.911-194.086 79.072-239.347-.369 414.792z"/><path fill="#cca9fa" fill-opacity=".569" d="M255 1086H73.015L196.04 859.687l60.465 47.53z"/><path fill="#01113c" fill-opacity=".592" d="M651.752 1045.668L697.7 1086l24.753-251.966-37.083-280.983z"/><path fill="#000f48" fill-opacity=".302" d="M800.342 916.854L666.162 646.88 566.53 342.739 898 726.939z"/><path fill="#000e51" fill-opacity=".31" d="M-62 140.525L38.593-62l299.262 351.261-17.31 37.19z"/><path fill="#b8b309" fill-opacity=".886" d="M637.463 753.055l-11.308 328.092 21.398-64.75 22.048-140.786z"/><path fill="#172224" fill-opacity=".698" d="M545.796 359.899l-187.97 38.723 104.986-65.03-22.568 190.551z"/><path fill="#3f4462" fill-opacity=".498" d="M-25.11 222.918l213.28 305.04-45.904 158.965L-62 1036.615z"/><path fill="#c0bc05" fill-opacity=".871" d="M392.381 418.61l67.99-65.177-42.5 268.75-47.436-17.57z"/><path fill="#e0df1d" fill-opacity=".82" d="M497.145 888.705l-31.316 96.652 26.495-188.049 50.86-174.102z"/><path fill="#fbc4b6" fill-opacity=".161" d="M791.103 377.778L898 676.858l-288.003-287.24-211.693-123.802z"/><path fill="#b6ae00" fill-opacity=".686" d="M284.922 1086l-18.855-129.201 48.14-250.563L289.235 1086z"/><path fill="#dfdc13" fill-opacity=".757" d="M515.36 401.552l147.328 275.816-85.371-299.634-77.236 133.449z"/><path fill="#172232" fill-opacity=".969" d="M409.829 860.686l5.215 148.354 57.268-10.006 4.93-313.245z"/><path fill="#b2ad28" fill-opacity=".914" d="M151.281 829.665l30.81-375.943 29.113-56.456 17.665 19.69z"/><path fill="#131e27" fill-opacity=".89" d="M508.304 578.106l-79.272-34.094 28.566 190.99 61.739-65.941z"/><path fill="#876f5f" fill-opacity=".553" d="M241.394-62l201.423 352.785-195.3-115.22L-3 276.217z"/><path fill="#d1ce00" fill-opacity=".675" d="M342.828 1063.799L399.06 1086l10.076-496.258L345.403 903.6z"/><path fill="#101919" fill-opacity=".851" d="M605.757 706.23l-53.438-188.572-28.127-65.486 64.3 399.375z"/><path fill="#22292e" fill-opacity=".549" d="M537.012 271.946L385.635 425.7 315.81 665.26l14.73-245.284z"/><path fill="#f9f735" fill-opacity=".427" d="M686.582 581.82l29.046 71.329-48.286-203.036-8.282-9.545z"/><path fill="#131c23" fill-opacity=".824" d="M336.412 1036.353l29.78-423.489L297.77 904.24l6.615 181.76z"/><path fill="#111b23" fill-opacity=".698" d="M194.747 650.92l-130.18 431.61 201.699-451.733-63.786-145.853z"/><path fill="#efa6aa" fill-opacity=".592" d="M566.88 883.718l54.454-43.527 12.845 110.252-12.19 36.318z"/><path fill="#f9c491" fill-opacity=".302" d="M204.943 390.41l36.19-15.416 254.676-96.608-91.503 96.762z"/><path fill="#2a3340" fill-opacity=".973" d="M590.13 347.554l108.795 259.934-37.273 200.136 2.564-115.05z"/><path fill="#a39d74" fill-opacity=".514" d="M-58.404 566.888L68.45 582.83l5.752 108.589-54.166-7.731z"/><path fill="#f6c7a4" fill-opacity=".518" d="M433.84 74.912L376.204 188.27l110.718 12.145L299.157 60.943z"/><path fill="#c4b1ee" fill-opacity=".318" d="M739.456 1086L898 881.145l-153.804-11.177-41.199-239.287z"/><path fill="#c5d0ff" fill-opacity=".537" d="M599.764 1038.024l-286.033 4.415 147.366-43.453 162.708 12.481z"/><path fill="#4f6781" fill-opacity=".655" d="M227.697 769.231l49.914-108.18 1.24 231.607-96.047-2.83z"/><path fill="#272d33" fill-opacity=".51" d="M310.84 333.75l89.24 144.551-245.795-308.284 266.134 133.188z"/><path fill="#222f3c" fill-opacity=".533" d="M615.932 301.62L725.221 34.723 447.29-62l20.519 200.673z"/><path fill="#a9b2c5" fill-opacity=".259" d="M-.763 323.33l89.288-131.468 156.17 84.37-119.989 161.3z"/><path fill="#ad8cee" fill-opacity=".478" d="M-62 742.36l36.293 148.786 99.43-6.622L-2.87 1086z"/><path fill="#dee422" fill-opacity=".514" d="M726.136 967.367l-2.12-275.79L709.738 1086l19.581-141.433z"/><path fill="#f0eb00" fill-opacity=".345" d="M186.614 700.519l15.18-177.772-168.43 479.162 39.544 11.092z"/><path fill="#2b3540" fill-opacity=".663" d="M184.89-62L48.678 188.839-62 404.472V-58.394z"/><path fill="#7c5a43" fill-opacity=".957" d="M318.042 170.325l111.862-50.997 56.12 42.44-155.791-41.88z"/><path fill="#19242b" fill-opacity=".831" d="M218.254 490.804l44.707 60.78 21.442-145.713-47.66-6.967z"/><path fill="#1f2821" fill-opacity=".816" d="M566.292 383.262L445.137 345.11l64.23 73.284-39.633-15.62z"/><path fill="#143475" fill-opacity=".267" d="M243.811 366.625l73.025-23.568-52.215-125.925-237.367 388.83z"/><path fill="#e1df25" fill-opacity=".624" d="M591.53 500.097l-60.055-178.093 74.946 122.242 39.661 165.269z"/><path fill="#1f2831" fill-opacity=".973" d="M375.885 527.806l15.987-138.903-67.024 13.884 4.12-63.417z"/><path fill="#070e00" fill-opacity=".337" d="M640.814 716.37L531.73 740.414l39.388-171.32 64.853 292.098z"/><path fill="#131d35" fill-opacity=".518" d="M67.737 1013.024l174.271-265.916L82.994 1086l-64.03-79.23z"/><path fill="#f6ed14" fill-opacity=".365" d="M302.765 358.415l-33.89 182.728 51.413 17.174 11.025-122.88z"/><path fill="#192548" fill-opacity=".478" d="M516.885 950.237l81.56-241.816-40.402 298.403L504.568 1086z"/><path fill="#fbdd7b" fill-opacity=".18" d="M299.507 529.018l91.948-57.1 73.015 101.018 77.426-92.208z"/><path fill="#f5b38d" fill-opacity=".325" d="M469.964 230.067l13.693-87.917-214.403 72.003 47.525-62.737z"/><path fill="#a59f31" fill-opacity=".886" d="M582.75 888.861l8.584 105.38L776.874 1086H643.507z"/><path fill="#152028" fill-opacity=".929" d="M498.346 476.512L446.02 453.71l10.479-59.502 62.518-26.716z"/><path fill="#b3b005" fill-opacity=".941" d="M443.323 666.245l-18.5-184.82L378 746.327l60.474 23.855z"/><path fill="#8f855a" fill-opacity=".533" d="M437.667 189.395l62.423 103.793-19.144 64.069 207.527 23.671z"/><path fill="#f4f205" fill-opacity=".467" d="M503.52 937.237l11.194 62.03-45.235-3.396 41.225-247.628z"/><path fill="#09141f" fill-opacity=".678" d="M378.627 702.372l-3.441 83.64-53.765-209.979 53.206-50.92z"/><path fill="#0e1c43" fill-opacity=".498" d="M566.367 379.693l15.132-34.552 63.451 79.353 5.563 47.847z"/><path fill="#906245" fill-opacity=".522" d="M393.53 298.05L333.044-62l21.363 460.061-44.03-138.877z"/><path fill="#54534c" fill-opacity=".643" d="M786.76 528.125l93.636-378.682L723.57 32.883l64.902 266.647z"/><path fill="#000f0a" fill-opacity=".212" d="M266.324 498.718l-3.135 523.712 44.93-415.612-159.212 149.526z"/><path fill="#303642" fill-opacity=".459" d="M119.991 413.894l2.997 295.243-153.992-359.924 207.64 129.353z"/><path fill="#bfba00" fill-opacity=".455" d="M220.218 455.893l-24.392-18.84 20.448 86.264 21.662 28.177z"/><path fill="#c9c40a" fill-opacity=".839" d="M469.89 354.648L394.513 409.6l36.735 153.436 9.454-114.361z"/><path fill="#d8551b" fill-opacity=".412" d="M588.248 885.797l39.777-18.426 12.143-50.562-40.716-11.811z"/><path fill="#4b5663" fill-opacity=".376" d="M898 550.482v-37.884L563.13 148.38l-96.51 44.034z"/><path fill="#a89e04" fill-opacity=".294" d="M316.147 835.991l-55.843-201.567-29.942 116.068 106.611-90.623z"/><path fill="#dbddff" fill-opacity=".094" d="M257.552 309.353L239.39 362.95l-79.112 224.542-73.167-323.69z"/><path fill="#072139" fill-opacity=".373" d="M-34.634 673.164l44.903 127.12 47.817-14.632 15.595-65.319z"/><path fill="#18232d" fill-opacity=".988" d="M404.05 937.441l20.583-143.504 35.284 58.56-51.381 138.197z"/><path fill="#000b67" fill-opacity=".137" d="M898 915.964L706.701 612.565 843.2 602.188l-187.288 304.31z"/><path fill="#f7f212" fill-opacity=".275" d="M613.181 460.899l-37.389 147.965 76.6 106.74 13.528-22.987z"/><path fill="#d4d209" fill-opacity=".718" d="M491.865 354.556l-28.47-8.185 17.442-2.727L585.15 390.78z"/><path fill="#bf84a8" fill-opacity=".792" d="M236.474 1022.741L-4.445 1053.2l65.081 32.8 75.26-108.843z"/><path fill="#d8b1f4" fill-opacity=".596" d="M626.508 899.553l-1.601 112.821-38-133.68 7.071 10.318z"/><path fill="#57626b" fill-opacity=".533" d="M355.203 334.782l-93.36 80.054-54.249-56.568-83.432 101.817z"/><path fill="#fbc79d" fill-opacity=".247" d="M395.363 57.9l86.045 35.843-95.99 51.63-90.939-86.206z"/><path fill="#d1cd05" fill-opacity=".667" d="M350.18 918.43l4.327-92.038 75.12-116.966-37.95 280.744z"/><path fill="#c0be00" fill-opacity=".529" d="M547.332 555.82l2.745 106.228-43.394-127.238-2.315-39.725z"/><path fill="#dee832" fill-opacity=".369" d="M704.035 600.009l8.755 156.628 23.02 95.815-44.796-279.181z"/><path fill="#121d2a" fill-opacity=".671" d="M520.852 636.952l-14.824-90.4-42.24 14.094-32.273 256.734z"/><path fill="#50535b" fill-opacity=".773" d="M722.981 732.504L898 557.786 756.699 854.952l-26.982 11.4z"/><path fill="#fcf9ff" fill-opacity=".565" d="M509.566 1051.053l-145.178-26.259 65.409-10.963 82.996-19.754z"/><path fill="#020c00" fill-opacity=".361" d="M512.864 511.298l67.34 108.925-14.572-66.717-28.512-86.531z"/><path fill="#c5c000" fill-opacity=".482" d="M620.72 751.167l-62.395-224.165-39.883-93.382 46.301-81.43z"/><path fill="#cbbdfd" fill-opacity=".514" d="M147.025 941.551l95.306 70.722 23.31-91.038-94.018-12.378z"/><path fill="#5f5b54" fill-opacity=".706" d="M297.023 76.164L463.433-62h-242.97l75.563 225.613z"/><path fill="#ecea25" fill-opacity=".902" d="M477.093 986.213l2.222-136.996 18.156-72.022 6.222 219.219z"/><path fill="#fdfa8e" fill-opacity=".322" d="M238.96 360.883l-43.996 106.564-22.92 95.794 21.12-133.726z"/><path fill="#b8b87a" fill-opacity=".6" d="M559.817 370.413l33.357-20.156-6.873-5.379-73.2-17.973z"/><path fill="#4f4f51" fill-opacity=".635" d="M149.26 70.005l55.788 152.85L29.866 120.427l12.66-68.315z"/><path fill="#111f42" fill-opacity=".31" d="M500.242 292.32l-35.598 67.571 40.096-238.383-49.042 149.837z"/><path fill="#6e757f" fill-opacity=".486" d="M97.088 435.426L43.78 210.278l201.228 42.686-271.512-34.784z"/><path fill="#fad097" fill-opacity=".349" d="M472.587 295.729l-67.193-99.145 32.158-25.866-8.996 184.421z"/><path fill="#7e6641" fill-opacity=".647" d="M410.144 319.21l46.677-78.958-136.12 115.719-50.05-4.93z"/><path fill="#dcd90c" fill-opacity=".471" d="M520.979 754.914l-11.593-296.395 38.795 205.844-49.578 163.596z"/><path fill="#b1aa01" fill-opacity=".537" d="M265.499 613.43l16.016-170.164 54.489 233.785-72.492-90.516z"/><path fill="#23313e" fill-opacity=".514" d="M259.57 160.038l-47.914 72.241 31.702 90.174 81.304-16.893z"/><path fill="#fefe0c" fill-opacity=".373" d="M722.443 886.517l-1.242 191.066 26.502 8.417-41.423-67.242z"/><path fill="#060909" fill-opacity=".435" d="M248.701 562.348l-52.258-52.373 89.437 188.222 12.091-34.558z"/><path fill="#cecc03" fill-opacity=".463" d="M20.9 1005.713l71.796 12.402-16.559-5.55 47.277-122.474z"/><path fill="#0b0302" fill-opacity=".369" d="M365.79 123.282l-33.51 9.207-15.225 14.262 57.504 5.81z"/><path fill="#f3eff9" fill-opacity=".184" d="M67.049 858.36l87.523-169.31 29.938-95.858-11.267 2.883z"/><path fill="#654b40" d="M324.388 215.663l43.493 27.77-152.067 15.755 204.878-24.697z"/><path fill="#001521" fill-opacity=".251" d="M694.925 229.258l.685 128.982 31.584 30.742 51.775-167.946z"/><path fill="#404867" fill-opacity=".369" d="M-25.505 823.273l141.222-161.63-48.348 238.43-53.623 13.583z"/></svg>