<svg xmlns="http://www.w3.org/2000/svg" width="228" height="278" viewBox="0 0 836 1024"><path fill="#7b5b63" d="M0 0h836v1024H0z"/><g fill-opacity=".502"><path fill="#fff" d="M630 1038L498 198l-96 888z"/><path fill="#ff000d" d="M434 1078l-292-92 208-852z"/><path fill="#fffcff" d="M282 714l-80-432-212 368z"/><path fill="#000009" d="M170 370L478-62-62 18z"/><path d="M638 1086l260-124-324-388z"/><path fill="#fff" d="M710 334l-276 76 112 248z"/><path fill="#00231e" d="M878 670L546 110 862-62z"/><path fill="#ff2f46" d="M298 282l188 232-364 168z"/><path fill="#00101f" d="M462 314l-524-88L82-62z"/><path fill="#ecd7b9" d="M550 82L382 358 350 54z"/><path fill="#000006" d="M790 1058l76-612-288 640z"/><path fill="#e8ffff" d="M410 1086l244-152-196-248z"/><path fill="#012f36" d="M274 714l-336 356V690z"/><path fill="#fff" d="M542 334l204 52-308 156z"/><path fill="#e1e1e2" d="M426 274L154 434l-216-40z"/><path fill="#ecffff" d="M122 718l72-380L18 606z"/><path fill="#ff0001" d="M614 614l112-64-60-156z"/><path fill="#e4ddd0" d="M806 554l-152 16 28 132z"/><path fill="#a10008" d="M122 802l304 48 36-288z"/><path fill="#235262" d="M146 134l236 164-440 64z"/><path fill="#6b0000" d="M130 602l76 28 64-120z"/><path fill="#606760" d="M898 106L402 230l36 200z"/><path fill="#000814" d="M-62-62L322 50l48 292z"/><path fill="#5d666f" d="M322 706l192-120-4 132z"/><path fill="#001829" d="M578 582l292 504-280-232z"/><path fill="#f34" d="M202 334l164 340 84-268z"/><path fill="#960000" d="M642 518l40 240-104-192z"/><path fill="#b88c82" d="M726 242L626-62l168 256z"/><path fill="#fe0a24" d="M442 690L142 982l256 36z"/><path fill="#081a20" d="M898 338L482 50l312 372z"/><path fill="#cfe7ff" d="M222 342L22 650l216-128z"/><path fill="#a2a19b" d="M270-62l364 336-280-84z"/><path d="M-62 22L50 250 206-58z"/><path fill="#e3ffff" d="M302 502l36-40 20 36z"/><path fill="#112c2c" d="M518 42L382-42 302 94z"/><path fill="#739697" d="M10 446l132 36 12-348z"/><path fill="#002230" d="M34 474L2 702l-36-204z"/><path fill="#d9ecff" d="M406 906l160-232 52 412z"/><path fill="#59777d" d="M898 470l-88 124-260-344z"/><path fill="#cebead" d="M178 654l104-80 24 116z"/></g></svg>