<svg xmlns="http://www.w3.org/2000/svg" width="228" height="278" viewBox="0 0 836 1024"><path fill="#908d90" d="M0 0h836v1024H0z"/><path fill="#fdeaec" fill-opacity=".71" d="M317.228 420.581l-180.23-98.269L-62 288.495 218.363-62z"/><path fill="#0f1e29" fill-opacity=".565" d="M-3.599 923.994l313.327-29.417L254.863 1086l.78-656.931z"/><path fill="#142530" fill-opacity=".667" d="M725.387 639.833l-36.724-187.85-57.603-34.345-87.586 306.552z"/><path fill="#def4ff" fill-opacity=".392" d="M527.45 331.8L139.179 726.158l395.324 1.259 110.323-347.588z"/><path fill="#1b282e" fill-opacity=".816" d="M898 905.283l-256.773 7.676 115.1-139.924 92.12-51.006z"/><path fill="#53483b" fill-opacity=".745" d="M374.235 109.549L318.651 303.23 262.226-62l436.458 99.453z"/><path fill="#020b13" fill-opacity=".427" d="M413.11 323.438l-35.854-74.116 320.925-21.818-29.116 129.084z"/><path fill="#fed9c1" fill-opacity=".702" d="M168.648 436.073l-9.55 156.815L-62 1008.215 41.893 653.034z"/><path fill="#feddce" fill-opacity=".659" d="M502.36 567.155L486.062 1086 893.5 548.593 543.155 917.01z"/><path fill="#011723" fill-opacity=".647" d="M314.838 1086l65.394-93.244 22.516-300.006-44.861 135.335z"/><path fill="#030c0f" fill-opacity=".4" d="M898 676.218L724.025 543.04 898 218.408 748.934-.252z"/><path fill="#3b4c56" fill-opacity=".988" d="M415.558 405.008l-23.278 120.28 49.028 30.208 20.711-163.619z"/><path fill="#474b54" fill-opacity=".859" d="M118.244 328.746L-62 567.626l327.49-205.298-.078 359.896z"/><path fill="#182731" fill-opacity=".698" d="M439.015 879.355l-15.017 124.641 62.552-49.006-3.633-244.23z"/><path fill="#dfeff6" fill-opacity=".698" d="M429.917 360.648l-206.66 609.279 145.594-575.902 4.593-133.86z"/><path fill="#edebec" fill-opacity=".757" d="M234.797 101.901L-13.046 235.264l339.833 100.329L270.48 693.47z"/><path fill="#e4f5ff" fill-opacity=".725" d="M377.167 962.502L357.354 1086l79.976-145.565.087-218.137z"/><path fill="#cde5fe" fill-opacity=".529" d="M663.797 445.573L606.773 1086 898 958.023 559.973 917.27z"/><path fill="#b2d9fe" fill-opacity=".631" d="M3.156 1054.458L-42.142 940.74l233.053-15.484L307.629 1086z"/><path fill="#27323b" fill-opacity=".725" d="M534.06 348.524l-22.369 94.35 33.781 57.205L579.99 382.31z"/><path fill="#000910" fill-opacity=".506" d="M587.769 528.092l-45.852 311.753-22.807 97.475 55.244-31.358z"/><path fill="#ebf8ff" fill-opacity=".725" d="M324.694 989.263l35.29-199.005-29.038.386-58.268 224.746z"/><path fill="#e8f8ff" fill-opacity=".675" d="M490.18 311.449l242.318 169.523 1.555 229.538-40.964-312.074z"/><path fill="#243037" fill-opacity=".914" d="M294.66 950.644L254.84 1086l-5.19-192.18 65.79-131.111z"/><path fill="#162935" fill-opacity=".569" d="M369.84 313.939l-49.223 61.209-27.6 151.403 49.711 8.167z"/><path fill="#ddab9d" fill-opacity=".816" d="M628.96-62l83.562 13.385 67.759 283.794-67.695 13.613z"/><path fill="#e7ebed" fill-opacity=".933" d="M159.96 459.113l98.23-123.24-56.014 23.884-47.613 79.528z"/><path fill="#ffccb2" fill-opacity=".58" d="M525.777 101.559L301.8 285.669l223.09-63.035-180.315-114.749z"/><path fill="#6f554c" fill-opacity=".627" d="M462.562 73.988L624.284-60.457l96.485 405.095 135.409 36.685z"/><path fill="#e1f8ff" fill-opacity=".808" d="M477.965 600.878l-29.107-52.093 23.615-188.148 48.322-12.915z"/><path fill="#00263a" fill-opacity=".475" d="M697.67 723.074l-74.274 99.576 62.576-364.92 35.332 166.061z"/><path fill="#fcede9" fill-opacity=".353" d="M675.208 590.74l-90.077 57.85-3.232 86.353L551.03 1086z"/><path fill="#e6ab88" fill-opacity=".498" d="M697.587 860.173L898 591.343l-96.97 6.376-312.198 404.175z"/><path fill="#fafcff" fill-opacity=".765" d="M638.671 393.556l-66.397 179.228-8.588-48.216 18.31-163.77z"/><path fill="#dae5ef" fill-opacity=".663" d="M472.943 459.01l26.716 448.138 19.402 175.07 27.712-371.474z"/><path fill="#d0aba0" fill-opacity=".831" d="M-29.248 120.968l231.486-172.7-57.17 189.46-199.167 85.203z"/><path fill="#221917" fill-opacity=".404" d="M254.314 920.036L214.276 796.08l-82.818-96.797-104.059 224.21z"/><path fill="#d8e1eb" d="M283.327 829.854L269.186 519.6l82.32 22.633-94.391 173.83z"/><path fill="#14001a" fill-opacity=".208" d="M114.848 295.435l199.269 21.127L-62 456.967l54.947 291.26z"/><path fill="#3c4a55" fill-opacity=".945" d="M269.504 368.498l-18.69 156.456 9.704 214.868-96.299-275.435z"/><path fill="#f7b09b" fill-opacity=".384" d="M542.94 13.95l-1.34 252.93 77.568-23.687-9.518-170.169z"/><path fill="#6d8895" d="M619.13 666.018l27.342-187.511 29.232 171.037 69.258 21.336z"/><path fill="#2f3c4b" fill-opacity=".831" d="M718.106 450.604l42.72 145.14 6.274 35.474 65.576-136.108z"/><path fill="#140000" fill-opacity=".306" d="M289.607 155.453L460.57 278.438l100.782-84.806-118.85 162.273z"/><path fill="#00000e" fill-opacity=".243" d="M613.921 613.473l60.2 149.208-38.802-255.307-200.445 199.922z"/><path fill="#63bfdb" fill-opacity=".91" d="M520.905 377.895l-158.374-18.82 87.984 31.629L556.471 292.4z"/><path fill="#aed7e3" fill-opacity=".416" d="M229.895 389.397l-35.908 197.401L61.711 473.864l170.135 85.017z"/><path fill="#739cb8" fill-opacity=".675" d="M152.421 691.587l100.05 142.686-8.135-115.615-43.758-59.956z"/><path fill="#ffa587" fill-opacity=".42" d="M702.616 393.157l51.954 106.498 64.894-91.304-83.868-68.948z"/><path fill="#1d1308" fill-opacity=".447" d="M540.502 57.093L319.178 72.598l198.746 38.369 2.516 167.563z"/><path fill="#0d1921" fill-opacity=".651" d="M494.708 529.56l55.414 22.856-16.675 9.723-30.54-6.58z"/><path fill="#e7e3db" fill-opacity=".596" d="M767.347 611.207L662.02 792.122l79.596-64.891-12.462-185.354z"/><path fill="#edbfa8" fill-opacity=".478" d="M354.816 180.378l45.509 80.342 50.269 3.766 169.504-84.477z"/><path fill="#edebed" fill-opacity=".773" d="M463.47 1002.414l26.897-111.307 11.728-102.557 20.476 131.424z"/><path fill="#da9b8b" fill-opacity=".686" d="M-62 831.375v58.747l107.897 1.862L67.25 799.57z"/><path fill="#edf1f1" fill-opacity=".788" d="M205.248 347.357l92.112 23.19 123.945-71.074-170.586 50.735z"/><path fill="#4c403a" fill-opacity=".435" d="M636.703 110.948l-277.604 66.846L619.79 163.7l103.946 193.433z"/><path fill="#f6fbfe" fill-opacity=".753" d="M403.812 453.5l-17.689 108.25-43.77-43.179 35.506-182.587z"/><path fill="#73726c" fill-opacity=".984" d="M872.753 498.22l-96.785-154.142-170.634 22.116 229.757-154.04z"/><path fill="#030b10" fill-opacity=".557" d="M254.87 713.68l-5.943 21.99-12.98-289.101 36.133 160.603z"/><path fill="#a8c3df" fill-opacity=".788" d="M847.65 927.74l17.833 93.458L607.12 1086l33.23-158.78z"/><path fill="#9ea9b6" d="M530.86 756.79l-23.94 41.259-151.708-37.263 62.486 50z"/><path fill="#000201" fill-opacity=".384" d="M739.03 781.946L898 912.324l-27.17-128.097-95.394-66.704z"/><path fill="#010306" fill-opacity=".561" d="M688.261 462.557l27.01 129.14-29.851 74.699-45.912-250.615z"/><path fill="#020e14" fill-opacity=".455" d="M549.864 705.612l22.184-58.508 12.627 116.776-49.65 182.738z"/><path fill="#c1c0b7" fill-opacity=".988" d="M579.053-25.559L898-42.907l-40.707 302.392L827.038 36.95z"/><path fill="#202a34" fill-opacity=".722" d="M428.138 1004.75l30.752-299.048-20.55 51.072 50.873 57.595z"/><path fill="#1b242c" fill-opacity=".973" d="M286.976 764.687l1.917 168.304 24.533-151.605 19.245-8.092z"/><path fill="#adc2d9" d="M-62 952.477L227.913 1086l39.692-275.462-38.694 149.627z"/><path fill="#fff8ec" fill-opacity=".259" d="M55.084 456.343l80.901 159.655 75.21-372.878 67.108 112.647z"/><path fill="#21afd7" fill-opacity=".659" d="M713.791 668.261l-49.656 6.071 125.244-59.157-10.5 35.305z"/><path fill="#92d5ea" fill-opacity=".761" d="M373.691 1007.629l-185.915 77.074 174.038-12.412 99.013-75.318z"/><path fill="#000f17" fill-opacity=".427" d="M155.392 520.425l70.914 35.85-48.475-126.929 91.933-35.084z"/><path fill="#514438" fill-opacity=".502" d="M114.22 625.656l57.75 295.927L65.535 779.688l140.08-222.05z"/><path fill="#e3ecf4" fill-opacity=".608" d="M416.858 1030.925l-39.883-33.108 24.526-212.146 4.281-240.746z"/><path fill="#3f4245" fill-opacity=".733" d="M343.209 173.421L301.67 244.98l-22.277-62.007L433.03-4.977z"/><path fill="#fffff2" fill-opacity=".204" d="M514.704 151.544l-36.615-37.297L130.004 70.03l119.559 90.057z"/><path fill="#f1f5f9" fill-opacity=".831" d="M328.281 357.418l-63.898 209.02-9.596-95.896 10.408-63.529z"/><path fill="#9b4543" fill-opacity=".616" d="M413.73 683.288l-83.79-14.534 82.27-8.998 63.56 45.817z"/><path fill="#3e2c28" fill-opacity=".314" d="M345.943 326.819L486.33 144.988l-50.916 115.436-189.468 77.954z"/><path fill="#edabc9" fill-opacity=".51" d="M-62 211.076l233.263 42.013-25.68-2.563-74.4 126.023z"/><path fill="#2a3b54" fill-opacity=".494" d="M669.246 381.287l-123.263-42.57 153.933-193.285-51.606 4.642z"/><path fill="#405f6a" fill-opacity=".722" d="M617.025 918.765l43.135-22.896L534.366 1086l75.543-.909z"/><path fill="#d7e0e9" fill-opacity=".659" d="M528.872 633.865l-149.134-95.68 209.756 44.284 31.97-154.954z"/><path fill="#161402" fill-opacity=".42" d="M450.683 300.492l-64.999-16.1 85.711 79.035 63.067-166.673z"/><path fill="#433751" fill-opacity=".486" d="M-62 445.88l88.815-131.95.071 210.8 154.996-202.538z"/><path fill="#324b67" fill-opacity=".565" d="M302.557 724.25l105.724 44.57-107.486-65.288 180.94 34.94z"/><path fill="#081118" fill-opacity=".475" d="M351.58 1022.224l51.497-219.746-33.713-34.561-41.017 231.125z"/><path fill="#fafdff" fill-opacity=".565" d="M647.223 709.46l-77.061 138.9.238 77.255 49.589-108.123z"/><path fill="#010607" fill-opacity=".537" d="M562.89 645.246l26.695-43.97 34.022-174.889 14.92 153.835z"/><path fill="#451b01" fill-opacity=".412" d="M404.03 184.326l81.37-34.449 12.184 32.99-143.81-39.467z"/><path fill="#d5e7f6" fill-opacity=".557" d="M325.207 757.996l-57.444 1.465 106.044 10.2-73.144 120.706z"/><path fill="#fffdfd" fill-opacity=".275" d="M676.363 646.452L628.72 381.845l37.434 9.748-34.749 176.961z"/><path fill="#ffddda" fill-opacity=".376" d="M384.01 285.183l-175.77 47.54 225.543-106.617-93.012-99.528z"/><path fill="#b58e83" fill-opacity=".765" d="M721.409 153.264L597.67 125.743l96.896-57.986L570.612-62z"/><path fill="#f0c0b0" fill-opacity=".71" d="M553.661 1086l-74.65-125.946-47.772 68.013 191.675-172.122z"/><path fill="#b9c5c7" fill-opacity=".725" d="M274.386-38.854L220.743-62 120.584 19.282l123.281 90.283z"/><path fill="#e5eef8" fill-opacity=".655" d="M330.66 729.375l17.41-6.646-50.113-47.948 110.549 17.403z"/><path fill="#c8a492" fill-opacity=".992" d="M676.656 681.777L898 752.403l-106.723-133.37 102.768 18.883z"/><path fill="#15aad6" fill-opacity=".498" d="M360.117 324.93l63.813 83.817 97.566-48.811-83.61 19.786z"/><path fill="#353131" fill-opacity=".749" d="M21.887 817.71l234.277 50.653-30.301 41.871-101.933 1.481z"/><path fill="#fff6fd" fill-opacity=".263" d="M201.5 490.265l51.476 85.078-28.866-82.051 12.595-73.41z"/><path fill="#4f3622" fill-opacity=".298" d="M716.8 23.9L898 380.345 807.767 109.24l4.234-63.251z"/><path fill="#140b07" fill-opacity=".208" d="M635.737 180.088l-71.284-60.923L682.575 73.2 549.323-45.892z"/><path fill="#edf5fa" fill-opacity=".6" d="M540.867 329.302l187.798 159.562-25.475-66.746-60.524-39.544z"/><path fill="#d9e4ee" fill-opacity=".788" d="M259.44 779.28l2.883-88.072 60.22-40.757-64.895 205.672z"/><path fill="#031d2c" fill-opacity=".29" d="M296.57 145.493l85.264-85.543-25.182 134.158L428.9 316.633z"/><path fill="#ffe8d4" fill-opacity=".357" d="M44.362 632.01l131.774-179.997L58.63 725.954l-84.106-33.702z"/><path fill="#790606" fill-opacity=".357" d="M364.483 603.388l38.15-37.614-86.848 37.818 13.881-7.707z"/><path fill="#ffdac5" fill-opacity=".518" d="M395.951 96.5l37.905 91.945 52.66-82.838-76.243-8.52z"/><path fill="#f4edfb" fill-opacity=".314" d="M431.78 741.02l76.919-47.898-187.437-49.006 177.156-14.203z"/><path fill="#45494d" fill-opacity=".671" d="M332.317 321.182l87.79-53.221 41.092-.732-242.052 70.644z"/><path fill="#325e7b" fill-opacity=".459" d="M592.243 888.931l32.156-89.204 71.791-198-51.933 213.213z"/><path fill="#cfdbe6" fill-opacity=".706" d="M458.044 725.142l107.626-102.52 3.42 24.9-47.943 76.622z"/><path fill="#700103" fill-opacity=".341" d="M357.74 623.778l2.8 28.715 11.609-16.858 35.107-26.731z"/><path fill="#798288" fill-opacity=".514" d="M566.973 493.346l-18.14 77.478-55.448-82.73 70.39-52.4z"/><path fill="#343e45" fill-opacity=".808" d="M414.218 1002.786l27.949 2.852 40.227-79.187 14.513-145.63z"/><path fill="#11100f" fill-opacity=".518" d="M707.992 439.097l42.164 55.489-3.632 64.707-27.066-142.087z"/><path fill="#015674" fill-opacity=".286" d="M95.85 556.938l-47.21-16.716-63.47 114.592 58.834-22.812z"/><path fill="#6391b4" fill-opacity=".486" d="M83.599 952.526l188.97-22.696-233.276-19.247L-62 930.96z"/></svg>