<svg xmlns="http://www.w3.org/2000/svg" width="228" height="278" viewBox="0 0 836 1024"><path fill="#8d867e" d="M0 0h836v1024H0z"/><path fill="#120d17" fill-opacity=".616" d="M898-62H-13.31L-62 282.628l903.09 1.99z"/><path fill="#deedf1" fill-opacity=".447" d="M776.254 676.577l-22.439-238.854-785.731-171.418L262.613 1086z"/><path fill="#d3d8d8" fill-opacity=".992" d="M586.59 1077.048l-496.167-8.11 4.782-177.597 462.574-18.988z"/><path fill="#000b1f" fill-opacity=".337" d="M86.164 491.676l459.455 225.33 108.542-178.694 2.575 447.96z"/><path fill="#5f4632" fill-opacity=".996" d="M450.436 394.973l-48.205-248.159L752.446-62 554.64 437.086z"/><path fill="#d0d4d0" fill-opacity=".98" d="M173.168 442.638l317.085 134.513-75.73-286.708-460.435 28.003z"/><path fill="#f6f1d9" fill-opacity=".498" d="M772.099 306.5l-183.609 6.78 104.251 436.835 72.342 2.167z"/><path fill="#19142d" fill-opacity=".6" d="M95.077 819.459L89.98 1086l-111.8-222.177 67.631-96.053z"/><path fill="#d79734" fill-opacity=".788" d="M742.717 1083.386l44.136-593.446-149.804-130.884 260.951.64z"/><path fill="#d09743" fill-opacity=".627" d="M-62 393.822l300.72 320.029L-62 666.698l215.312-307.975z"/><path fill="#03041d" fill-opacity=".373" d="M407.385 659.686L573.69 783.121l-3.602 214.864 134.866-230.044z"/><path fill="#1a1718" fill-opacity=".988" d="M546.9 95.45l-211.45-.858L546.599-9.93l181.403 201.289z"/><path fill="#a7adad" fill-opacity=".773" d="M556.013 893.557l31.045-124.411L132.75 632.958l208.97 279.873z"/><path fill="#9e663b" fill-opacity=".604" d="M594.353 1086l71.245-351.8 198.639 67.489-3.868 218.706z"/><path fill="#fcc093" fill-opacity=".271" d="M580.418 85.355l18.914 146.36-185.055 36.232 18.615-165.31z"/><path fill="#d6dee1" fill-opacity=".757" d="M21.54 498.207l247.18-207.985-172.685 293.2-33.078-16.086z"/><path fill="#726553" fill-opacity=".565" d="M-26.785 692.943l50.71-150.218 313.25 162.293-120.25-213.731z"/><path fill="#cdd5dc" fill-opacity=".922" d="M746.855 456.78L503.482 639.624l10.219-115.041-242.878-133.036z"/><path fill="#17253d" fill-opacity=".698" d="M898 578.702L792.187 858.105l25.65 67.45 80.028 82.331z"/><path fill="#000104" fill-opacity=".424" d="M506.774 430.598l258.607-330.183-238.132 218.96-116.655-3.261z"/><path fill="#cf9350" fill-opacity=".565" d="M137.97 735.73l86.284 140.088L-62 725.959l252.884-172.52z"/><path fill="#8bbdce" fill-opacity=".263" d="M272.789 87.204l70.22 348.545-9.052-451.638-102.594 57.53z"/><path fill="#521405" fill-opacity=".302" d="M189.539 759.05l-89.297 122.386 305.865 71.575-209.962-58.765z"/><path fill="#ffffcd" fill-opacity=".251" d="M602.615 287.62l261.372-21.534L898 332.688 600.119 439.833z"/><path fill="#162147" fill-opacity=".435" d="M-37.704-62h290.491l-12.64 340.08-242.38 20.6z"/><path fill="#cbd5dd" fill-opacity=".749" d="M420.425 507.346l93.172 205.302-78.617-56.316-170.336-84.335z"/><path fill="#0e2440" fill-opacity=".188" d="M443.367 832.92l301.329-227.013-170.48-70.434L683.584 773.92z"/><path fill="#16201f" fill-opacity=".325" d="M124.87 692.288l-20.708 35.67 316.295-14.115-243.663 36.522z"/><path fill="#d49a1e" fill-opacity=".365" d="M488.19-62l226.738 182.812 19.306-84.035L590-62z"/><path fill="#dadbd9" fill-opacity=".918" d="M177.317 732.407l-38.55 18.408-5.156-19.182 29.266-73.545z"/><path fill="#becbd6" fill-opacity=".58" d="M486.971 612.818l92.656 80.746 191.585-185.167-2.433 106.188z"/><path fill="#cad0d1" fill-opacity=".835" d="M205.363 782.454l365.722 69.425-372.342-20.53 37.554 207.826z"/><path fill="#9c5946" fill-opacity=".761" d="M99.064 1007.99L-35.582 882.546-62 1086H73.483z"/><path fill="#cb964b" fill-opacity=".627" d="M792.663 825.972L898 560.995 687.05 925.033l121.571 74.56z"/><path fill="#4d5247" fill-opacity=".514" d="M386.082 842.96l108.392 14.31-11.1 25.046-208.078-47.13z"/><path fill="#020546" fill-opacity=".294" d="M550.288 939.859l60.527-246.46 31.89 25.89-26.664 342.573z"/><path fill="#2a2b39" fill-opacity=".992" d="M898 244.388V-3.828L773.304-.434 669.14 228.636z"/><path fill="#e3a232" fill-opacity=".427" d="M3.898 521.645l152.944-155.94L-62 362.22l74.672 715.674z"/><path fill="#842834" fill-opacity=".831" d="M890.629 1086l-165.74-21.783 18.391-74.625L898 971.265z"/><path fill="#ebeeef" fill-opacity=".918" d="M455.287 1086h167.07l-47.4-98.565-102.717-81z"/><path fill="#030301" fill-opacity=".702" d="M600.902 42.094l-64.09-15.244 74.038 159.36 20.166-122.876z"/><path fill="#29233b" fill-opacity=".722" d="M498.64 177.801L345.038 113.44 346.33-62l112.335 276.119z"/><path fill="#00192a" fill-opacity=".204" d="M160.123 485.995L360.81 535.14-62 591.536l258.197-24.344z"/><path fill="#bbc5cc" fill-opacity=".667" d="M311.662 637.055L278.213 306.06 241.95 562.786l161.274 103.612z"/><path fill="#d0d8de" fill-opacity=".957" d="M767.02 611.889l-.826-127.557-134.78-127.204L510.38 499.31z"/><path fill="#bf9a80" fill-opacity=".745" d="M77.26 789.595L-62 638.14l270.403 147.09-117.537 77.303z"/><path fill="#f7fcfe" fill-opacity=".478" d="M105.384 911.736l284.662-55.692-158.925-7.433-86.101 120.5z"/><path fill="#ffc195" fill-opacity=".204" d="M652.98 204.89l-267.85-2.619 169.304 70.985 77.634-125.261z"/><path fill="#cbdae6" fill-opacity=".616" d="M650.2 675.624l1.533 70.701 113.021 9.094-11.92-125.315z"/><path fill="#785643" fill-opacity=".8" d="M596.994 409.138l4.591-121.599 21.472-9.249-100.552 152.761z"/><path fill="#020406" fill-opacity=".439" d="M654.278 560.385l-54.457-2.55 33.51 50.406-37.84-19.757z"/><path fill="#050700" fill-opacity=".22" d="M185.729 650.854l53.321 72.057 144.637-8.714-181.926 29.322z"/><path fill="#031c39" fill-opacity=".349" d="M-45.726 672.113L91.13 879.23l-64.666 79.947 28.388-189.573z"/><path fill="#d7a24a" fill-opacity=".98" d="M48.286 614.743l128.332-41.79-8.757 85.808-83.521 45.115z"/><path fill="#0c1608" fill-opacity=".22" d="M461.608 953.914l-237.224-23.658-6.616 25.687 109.314-31.996z"/><path fill="#f5f9ff" fill-opacity=".302" d="M152.775 374.048l-20.962 54.991 329.82-166.183L51.905 382.537z"/><path fill="#00318e" fill-opacity=".196" d="M449.868 622.07l13.14-103.505 45.564-19.024-10.478 86.78z"/><path fill="#d19a41" fill-opacity=".804" d="M826.455 781.032L898 384.379l-243.976-22.433 144.018 157.087z"/><path fill="#010203" fill-opacity=".38" d="M374.386 173.8l107.279 248.865 189.878-211.102L512.049 363.38z"/><path fill="#f9feff" fill-opacity=".243" d="M341.568 749.472l211.86 63.562 13.596 156.489-31.91-116.64z"/><path fill="#6d845c" fill-opacity=".259" d="M-60.641 281.512l542.776-73.363-144.54 101.012-134.083 5.943z"/><path fill="#b3b0a7" d="M122.403 470.887l2.805-55.266-69.793 45.893 25.121 28.09z"/><path fill="#402b1f" fill-opacity=".706" d="M512.32 153.802l33.327-8.286 24.06 37.642-54.5 15.394z"/><path fill="#866935" fill-opacity=".612" d="M791.893 601.127l-25.013 86.69-.84-49.65 19.08-208.99z"/><path fill="#562816" fill-opacity=".525" d="M40.103 560.642l70.43 36.765-58.37 12.066-5.368 26.667z"/><path fill="#545c5c" fill-opacity=".769" d="M641.803 711.09l-134.78 99.673 58.702-96.214 84.178-64.664z"/><path fill="#f3f5f5" fill-opacity=".78" d="M120.475 940.687L250.93 921.48l-153.4-42.406-3.61 25.796z"/><path fill="#ffeba9" fill-opacity=".357" d="M172.668 293.796L-62 315.075l47.926 80.568 241.64-62.61z"/><path fill="#e9f1fb" fill-opacity=".459" d="M416.372 721.416l-197.126-14.01-36.214-111.002 61.752 100.77z"/><path fill="#1a2619" fill-opacity=".161" d="M187.263 650.306l227.31 2.745 265.196 139.78-290.079-84.514z"/><path fill="#00000b" fill-opacity=".471" d="M375.156 529.929l-50.76 3.95-24.077-14.448 16.41 27.586z"/><path fill="#777e79" fill-opacity=".506" d="M306.97 799.553l-123.886-42.53 113.843 14.529 119.918 73.067z"/><path fill="#ab8464" fill-opacity=".592" d="M412.644 157.49l155.594-55.356-113.955-3.323-40.556 16.708z"/><path fill="#b7c0c4" fill-opacity=".765" d="M234.17 552.547l102.86 82.155-108.927-52.412 410.772 39.592z"/><path fill="#01000b" fill-opacity=".353" d="M391.677 133.392l55.815-36.278 209.563-19.992L373.97-23.763z"/><path fill="#f0f7ff" fill-opacity=".384" d="M308.304 752.286l173.991 111.701-169.357-85.073-92.014-31.72z"/><path fill="#eef4f3" fill-opacity=".275" d="M36.298 475.89L4.88 537.5l182.175 8.491-25.464-40.65z"/><path fill="#808385" fill-opacity=".341" d="M208.2 1013.168l-54.007-9.66 333.536 7.67-198.552 6.685z"/><path fill="#a78665" fill-opacity=".714" d="M724.774 1086l20.479-240.264-92.266 55.403L619.48 955.6z"/><path fill="#0c1108" fill-opacity=".165" d="M-62 739.81l171.42 138.76 205.4 57.204-190.694-85.993z"/><path fill="#d2c69e" fill-opacity=".737" d="M847.204 358.106l-237.677 3.499 117.453-60.026 162.884-3.532z"/><path fill="#253351" fill-opacity=".741" d="M584.297 814.988L641.17 640.96l-12.896 315.563-68.6-122.157z"/><path fill="#000009" fill-opacity=".18" d="M289.995 287.178L190.15 143.986 70.138-62l94.682 354.42z"/><path fill="#cfd4d6" fill-opacity=".592" d="M530.333 852.451l49.9 93.38-233.679-76.656 173.627 13.481z"/><path fill="#b1aab1" fill-opacity=".427" d="M320.829 50.612l-50.655-24.03-20.121 32.863 29.494 14.698z"/><path fill="#313337" d="M898 285.29L657.892 107.603 640.056 212.91l27.702-18.604z"/><path fill="#c8d0d7" fill-opacity=".729" d="M425.605 351.438l100.508 134.181-448.956-31.417 339.918-175.405z"/><path fill="#61625c" fill-opacity=".592" d="M186.616 627.204l26.743 77.282-39.01-54.863 8.456-139.053z"/><path fill="#eaeeef" fill-opacity=".745" d="M307.238 1000.26l273.389-6.92-479.415-28.929 94.649 32.555z"/><path fill="#26324e" fill-opacity=".976" d="M22.997 811.04l58.334-8.327 11.1 168.819-67.772-47.516z"/><path fill="#0c1512" fill-opacity=".165" d="M269.06 715.41l206.856 118.11L227.78 720.837l13.538-2.123z"/><path fill="#ced6dc" fill-opacity=".965" d="M629.76 505.403l-380.499 13.815 208.65-104.13L581.07 609.644z"/><path fill="#151701" fill-opacity=".204" d="M250.977 707.676l-20.205 26.014 108.44-23.168 68.71 37.192z"/><path fill="#747874" fill-opacity=".671" d="M353.474 834.951l106.27 26.844 127.073-15.838-137.275 41.039z"/><path fill="#1d0701" fill-opacity=".482" d="M185.68 870.082l-79.653 4.491 16.796 15.83 3.458 1.79z"/><path fill="#030407" fill-opacity=".329" d="M603.33 580.601l7.994-27.135 38.697 8.883 7.324 15.545z"/><path fill="#e2ebec" fill-opacity=".333" d="M219.775 882.483L174.96 742.22l74.969 107.08-123.619 49.533z"/><path fill="#031004" fill-opacity=".306" d="M222.639 551.722l-60.404 39.358 71.38-80.147 7.652 67.024z"/><path fill="#875758" fill-opacity=".835" d="M645.53 941.155L571.207 1086h112.504l-125.78-111.301z"/><path fill="#2a315a" fill-opacity=".361" d="M203 121.075l222.018 101.813-47.725-126.235L534.759-62z"/><path fill="#815442" fill-opacity=".635" d="M508.168 345.418l29.008-25.17 18.316-31.511-92.73 15.998z"/><path fill="#131301" fill-opacity=".208" d="M329.767 831.885l-168.994 19.97 125.737-3.31 135.154-2.485z"/><path fill="#2f0f0a" fill-opacity=".549" d="M489.626 252.618l75.67 37.595-96.664 4.855 35.354-41.111z"/><path fill="#a0abb2" fill-opacity=".471" d="M529.505 551.116l233.738 96.92L539.96 679.96l141.252-91.077z"/><path fill="#9b7a57" fill-opacity=".992" d="M652.58 744.666l80.82 141.028 48.07-164.068-24.596 34.31z"/><path fill="#020b23" fill-opacity=".227" d="M130.808 734.166l29.576-67.995-56.3 50.887 16.085 32.59z"/><path fill="#010005" fill-opacity=".376" d="M627.42 608.592l22.52.155 2.601-4.244 10.583-34.205z"/><path fill="#95a9b5" fill-opacity=".294" d="M228.9 415.78l107.084 8.635L99.822 597.361l-41.567-41.844z"/><path fill="#826236" fill-opacity=".482" d="M802.21 954.211l-24.865-130.496L898 613.09l-86.433 202.972z"/><path fill="#ecf4f6" fill-opacity=".149" d="M604.277 774.899l-189.288 254.536 184.283-283.547-235.686 21.622z"/><path fill="#89949a" fill-opacity=".616" d="M232.305 561.344l43.75 136.564-89.54-83.932 8.067-48.704z"/><path fill="#acb1b0" fill-opacity=".984" d="M207.1 815.406l-40.27-131.498 70.008 39.788-75.566 2.707z"/><path fill="#656f63" fill-opacity=".604" d="M851.456 265.013l-228.894 13.34-6.348 14.871 149.216-1.258z"/><path fill="#845f2e" fill-opacity=".361" d="M733.658 144.34l36.973-66.314L387.916-62l326.39 154.76z"/><path fill="#131b08" fill-opacity=".224" d="M381.83 825.718l-55.53-40.072-157.673-21.475 91.745 2.123z"/><path fill="#f5f9fc" fill-opacity=".427" d="M221.644 883.787l313.989 51.188-57.036 11.927-158.983-20.666z"/><path fill="#899195" fill-opacity=".988" d="M388.436 723.143l-17.06-72.84-19.4 71.304-14.108-35.376z"/><path fill="#b5bdc4" fill-opacity=".98" d="M394.84 373.127l141.674 63.835 90.976-35.567-135.925 44.003z"/><path fill="#e6f0ff" fill-opacity=".216" d="M136.476 702.693l255.31 19.356-97.035-43.845-159.794 83.3z"/><path fill="#939ca0" fill-opacity=".663" d="M520.485 767.831l-69.962 67.544 38.81-110.008-139.228-106.074z"/></svg>