<svg xmlns="http://www.w3.org/2000/svg" width="228" height="278" viewBox="0 0 836 1024"><path fill="#5b5a5e" d="M0 0h836v1024H0z"/><path fill="#d9e0ea" fill-opacity=".78" d="M274.323 669.445l309.505 108.289L709.208 1086l-414-27.6z"/><path fill="#c1ccdc" fill-opacity=".702" d="M670.67 598.802l-137.5-313.353-326.87 48.475 19.617 267.45z"/><path fill="#313135" d="M-62 17.894l618.74 309.47 283.027 640.18L843.72-62z"/><path fill="#1c1f25" fill-opacity=".671" d="M417.668 326.391L-30.009-62 8.522 1086l217.744-763.396z"/><path fill="#c5d7e8" fill-opacity=".863" d="M389.003 289.753L215.97 442.292l344.324-92.606L414.515 239.35z"/><path fill="#572109" fill-opacity=".427" d="M649.723 528.621l149.66 327.192L120.117 470.53l288.598 317.953z"/><path fill="#d7d7dd" d="M584.362 1086l-324.5-420.443 69.783 267.765-116.518 140.756z"/><path fill="#00b0f6" fill-opacity=".361" d="M199.672 504.503l145.879 25.911 90.572-30.636-37.65-187.319z"/><path fill="#52382b" d="M468.829 64.382L328.483 339.474l-51.62-1.055L222.33 93.497z"/><path fill="#3d2f34" fill-opacity=".51" d="M750.33 841.617L457.472 503.688l-65.327-51.074L664.64 874.318z"/><path fill="#524a4a" fill-opacity=".922" d="M273.763 765.868L200.844 451.5l-217.808 591.048 325.088-95.118z"/><path fill="#e2e8ec" fill-opacity=".702" d="M218.655 405.44l-.25-61.083 49.391-35.011 94.642 161.284z"/><path fill="#4288b4" fill-opacity=".537" d="M451.313 698.54l133.731 141.527L627.51 1086 482.317 741.78z"/><path fill="#ab5640" fill-opacity=".573" d="M171.46 582.66l9.815 65.86 258.432.414-74.64-100.477z"/><path fill="#ba6064" fill-opacity=".643" d="M500.015 522.12l55.565-38.292-39.57-130.762-57.882 40.446z"/><path fill="#ffeee9" fill-opacity=".514" d="M477.741 299.583l74.838 35.788 65.08 124.52 28.98 111.131z"/><path fill="#241804" fill-opacity=".384" d="M398.299 737.002l-89.8 12.94 117.825-108.165 293.236 65.104z"/><path fill="#cfcdce" fill-opacity=".745" d="M309.224 663.066l-17.711 134.372-46.849-127.597 129.18 33.376z"/><path fill="#040000" fill-opacity=".4" d="M275.823 359.911l109.648-55.98 21.238-71.735-140.276 2.585z"/><path fill="#e5e2f1" fill-opacity=".51" d="M399.205 615.196l-24.989-88.56 133.851 78.974-28.226 3.79z"/><path fill="#f8e9ee" fill-opacity=".608" d="M370.905 414.374l84.67 9.264 74.196-99.27-67.828-48.46z"/><path fill="#92593f" fill-opacity=".765" d="M628.085 570.915l63.264 78.053-308.498 12.325 40.794-19.86z"/><path fill="#030003" fill-opacity=".271" d="M-62 856.315l326.25-194.792 327.263 65.584-579.36-175.952z"/><path fill="#f7ffff" fill-opacity=".239" d="M97.176 1046.405L391.886 1086l293.906-190.9-20.87-46.958z"/><path fill="#ecba8a" fill-opacity=".235" d="M860.817 905.694L733.547 1086l-13.47-188.966 69.536-72.302z"/><path fill="#b5b3b7" fill-opacity=".733" d="M274.787 728.427l314.064 50.127-30.406-63.466-149.173 155.49z"/><path fill="#04548d" fill-opacity=".427" d="M437.218 505.774l-75.134 27.9-65.926-2.73 122.762-95.282z"/><path fill="#212c3f" fill-opacity=".471" d="M625.214 750.481L898 477.928l-71.731 368.29-247.415 1.962z"/><path fill="#ffa682" fill-opacity=".184" d="M414.674 271.661l5.709-158.519-26.649-48.927L267.64 73.14z"/><path fill="#6b6b69" fill-opacity=".835" d="M202.904 786.671l65.511 43.49 45.51 96.194L222.603 1086z"/><path fill="#3d5466" fill-opacity=".443" d="M629.8 419.54l268.2.202V262.488l-222.141-24.34z"/><path fill="#222428" fill-opacity=".839" d="M604.86-62l206.067 254.919L-41.788-62l236.46 175.45z"/><path fill="#2d2833" fill-opacity=".788" d="M717.737 919.095L687.155 1086l-25.278-151.031 21.336-16.002z"/><path fill="#5ec0eb" fill-opacity=".886" d="M425.144 287.572l-184.54 248.23-21.792-100.137 154.535-24.589z"/><path fill="#6a7b75" fill-opacity=".482" d="M342.931 677.565l-33.047 61.603 219.915 24.797 35.989-26.953z"/><path fill="#3a3c41" fill-opacity=".89" d="M-62 456.446l233.062 151.03 30.191-120.63 24.534-70.008z"/><path fill="#e3dee4" fill-opacity=".831" d="M694.284 1086l-64.042-215.002-47.51-43.461L661.082 1086z"/><path fill="#cdcfd3" fill-opacity=".8" d="M589.343 474.475l-79.49 47.208 113.89 45.72-82.524 39.266z"/><path fill="#ffe0e0" fill-opacity=".416" d="M221.586 520.883l113.08 89.023 2.068 29.201-37.085-126.344z"/><path fill="#21242c" fill-opacity=".706" d="M745.758 67.291L406.749-62l10.942 239.415 164.66 195.208z"/><path fill="#a8885f" fill-opacity=".384" d="M662.968 741.92l43.194-108.386-148.443-99.828 64.488-27.112z"/><path fill="#e8e7e8" fill-opacity=".51" d="M310.393 912.325l-46.856-208.479 114.386 9.33-83.872-43.518z"/><path fill="#00080c" fill-opacity=".239" d="M387.09 357.195l-125.7-180.328 20.39 168.665 161.624-49.184z"/><path fill="#85503c" fill-opacity=".733" d="M118.704 658.329l71.522 4.56-7.73-97.072 424.508 86.443z"/><path fill="#f8fbff" fill-opacity=".435" d="M275.615 324.585l-19.907-20.855-45.238 64.185 13.594 101.625z"/><path fill="#060000" fill-opacity=".227" d="M521.97 733.75l128.143-102.874-176.125 47.138 64.214 186.285z"/><path fill="#5a7683" fill-opacity=".239" d="M1.39 1064.715L179.658 1086 74.461 746.632l-54.49 39.336z"/><path fill="#cec3ca" fill-opacity=".584" d="M475.128 293.654l19.482 71.881 39.787 135.667-34.64-37.576z"/><path fill="#693f34" fill-opacity=".812" d="M185.65 863.836l-58.67-161.832 124.932 1.273 11.022 3.263z"/><path fill="#0386d0" fill-opacity=".282" d="M583.523 1021.554l30.568 20.127-43.789-224.398 72.773 209.52z"/><path fill="#231e1b" fill-opacity=".957" d="M354.012 86.913L199.218 31.57l509.298-61.927L494.486-62z"/><path fill="#c4cfc8" fill-opacity=".573" d="M350.398 393.551l-43.306 76.584 33.152 37.077 21.11-66.726z"/><path fill="#433f49" fill-opacity=".902" d="M596.573 842.12l269.55 19.304-217.439-130.428-70.726.569z"/><path fill="#f88c58" fill-opacity=".243" d="M225.533 193.381l-6.978-25.304 176.9 14.37-8.573 22.791z"/><path fill="#ede5ec" fill-opacity=".388" d="M502.21 1086l-99.415-286.66 87.927 17.818 50.989 68.929z"/><path fill="#353943" d="M123.384 186.074l82.06 117.515 12.82 234.619L68.793 308.507z"/><path fill="#1c242a" fill-opacity=".49" d="M-62 704.128L229.325 820.16l-102.167 4.948 44.132-291.794z"/><path fill="#fdeaeb" fill-opacity=".263" d="M403.047 398.592l77.764 238.59-34.289-140.156-22.562-282.271z"/><path fill="#252b30" fill-opacity=".478" d="M733.198 803.1l116.229-34.207L898 567.38 608.805 446.406z"/><path fill="#221004" fill-opacity=".494" d="M295.53 168.323l27.495-26.19 96.212 11.052-33.01 19.71z"/><path fill="#14486b" fill-opacity=".278" d="M527.039 602.862l-48.87 10.14 1.044-58.2-52.537-125.715z"/><path fill="#f8f8ff" fill-opacity=".184" d="M410.527 109.151l-15.823-42.528-36.02-8.592 56.08 82.808z"/><path fill="#384658" fill-opacity=".498" d="M221.193 880.49l-107.07-124.175-2.98 231.84 83.82 35.147z"/><path fill="#92161a" fill-opacity=".255" d="M473.941 365.033l15.31 127.121 36.094 30.462L455.2 395.687z"/><path fill="#716e78" fill-opacity=".388" d="M37.591 524.5L-62 607.195V348.068L43.247 483.172z"/><path fill="#3f2921" fill-opacity=".718" d="M259.126 651.478l206.968 4.442-329.95 29.371L-.99 717.15z"/><path fill="#dcd9df" fill-opacity=".769" d="M245.454 362.136l101.826-29.91-18.721 70.44-111.642 27.044z"/><path fill="#d5d1d9" fill-opacity=".729" d="M431.519 547.258l-93.113 9.684-75.161-9.828 84.777-14.312z"/><path fill="#cecac6" fill-opacity=".702" d="M651.403 565.655l-55.234 13.892 32.037-24.388-68.29-209.777z"/><path fill="#ccced2" fill-opacity=".996" d="M511.386 1056.019l-193.7-156.284-24.737 79.73 23.544-45.525z"/><path fill="#5fc5ef" fill-opacity=".698" d="M224.979 526.165l152.646-177.59-103.906 175.453-55.615-99.93z"/><path fill="#134c77" fill-opacity=".471" d="M548.089 812.275l36.476 67.026 1.39-36.378-22.367 36.721z"/><path fill="#262930" fill-opacity=".757" d="M105.002 210.796L-56.829 523.619-17.63-62 280.594 89.826z"/><path fill="#935f53" d="M350.778 553.71l-199.964 67.112 111.751-68.073-112.444 31.666z"/><path fill="#181811" fill-opacity=".341" d="M259.71 157.461l-62.575 204.765 84.716-74.554 74.706 17.276z"/><path fill="#898884" fill-opacity=".4" d="M505.057 908.165l-49.794-27.578-152.281-180.452 62.285 105.02z"/><path fill="#a84549" fill-opacity=".31" d="M530.833 501.517l-39.04-138.967 13.52-10.406 64.714 144.405z"/><path fill="#d4b7c4" fill-opacity=".365" d="M475.423 626.501l1.043-66.444-100.178 49.102-98.367-45.743z"/><path fill="#b5b2b8" fill-opacity=".839" d="M413.47 742.27l82.442 19.597 27.1 69.348-155.016-91.221z"/><path fill="#e3d5dd" fill-opacity=".435" d="M388.826 286.525l112.619 118.703 3.504-30.469-88.385-146.35z"/><path fill="#e2e2e6" fill-opacity=".678" d="M316.791 876.689l11.028 129.697-55.312-251.414 65.49 87.067z"/><path fill="#c4e0f0" fill-opacity=".388" d="M504.693 523.555l46.324 81.261-25.54 8.068 69.09-135.474z"/><path fill="#fff7ff" fill-opacity=".267" d="M557.217 582.51l15.7-50.296-66.6-241.289L582.7 388.6z"/><path fill="#2b2b16" fill-opacity=".4" d="M458.744 740.026l-59.843-39.14-48.175-48.425 40.309 82.451z"/><path fill="#743317" fill-opacity=".373" d="M678.617 711.137l-245.72-46.772-203.558-6.058 405.908-20.196z"/><path fill="#9f816d" fill-opacity=".667" d="M731.675 1078.359l17.718-201.546 36.124 37.952-1.49 171.235z"/><path fill="#0073c2" fill-opacity=".349" d="M393.925 333.816l16.735-30.978-49.945 40.298-22.52 49.204z"/><path fill="#737371" fill-opacity=".514" d="M-62 1010.756L162.954 1086l86.143-291.562 29.08 214.248z"/><path fill="#0168a5" fill-opacity=".333" d="M359.03 503.224l66.171 3.755-9.585-90.154-46.855 31.182z"/><path fill="#3797ce" fill-opacity=".412" d="M571.067 913.707L594.799 1086l-72.423-26.892 96.63 26.892z"/><path fill="#20120d" fill-opacity=".514" d="M655.328 696.335l-12.504 27.864-150.58-12.127-214.753-52.005z"/><path fill="#ffb189" fill-opacity=".176" d="M348.565 138.639l31.623 47.997-76.117 66.086 63.343-106.197z"/><path fill="#e69d79" fill-opacity=".243" d="M294.568 139.345l-20.783-50.618L285.5 67.334l25.93 9.644z"/><path fill="#4d565d" fill-opacity=".525" d="M728.055 820.49L898 870.65 808.455 1086l-5.331-172.873z"/><path fill="#000c1b" fill-opacity=".267" d="M380.686 501.981l32.977-21.098 104.433 103.205-75.215-68.385z"/><path fill="#dfa78c" fill-opacity=".365" d="M156.05 745.975l-1.63 19.904-19.976-23.749 27.878-19.658z"/><path fill="#b4b3b9" fill-opacity=".439" d="M371.123 822.196l-61.515-14.545 133.484 123.835L406 915.734z"/><path fill="#7d4123" fill-opacity=".459" d="M340.428 119.518l-114.167 95.167-7.939-86.129 25.352 12.255z"/><path fill="#484c56" fill-opacity=".643" d="M293.787 969.634l15.094-43.016-30.751-92.178-.107 131.857z"/><path fill="#dcd6d7" fill-opacity=".408" d="M588.12 791.52l-19.313-49.024-52.426 39.944 66.573 49.498z"/><path fill="#935440" fill-opacity=".384" d="M425.428 126.51l-38.117 148.47-44.77-22.977 31.972-9.185z"/><path fill="#efeff4" fill-opacity=".957" d="M334.398 1055.244L376.346 1086l-137.551-2.562 74.075-146.392z"/><path fill="#baa569" fill-opacity=".447" d="M590.288 491.862l-12.758 19.343 7.327 82.26 35.979-64.563z"/><path fill="#54cdff" fill-opacity=".439" d="M335.674 395.997l28.868-21.26 54.214 102.05-86.64-67.68z"/><path fill="#ede6eb" fill-opacity=".451" d="M289.625 353.553L246.15 317.13l-35.14 39.73 1.279 37.917z"/><path fill="#1e2f41" fill-opacity=".447" d="M486.674 608.383l9.119 83.176-14.852-145.883 21.46 8.907z"/><path fill="#670002" fill-opacity=".212" d="M507.646 436.604l36.08 44.188-58.121 19.256 82.478-6.034z"/><path fill="#33393f" fill-opacity=".675" d="M599.705 347.43l23.915 156.548L898 437.476l-106.9-60.22z"/><path fill="#804e3e" fill-opacity=".498" d="M272.478 633.507L198.06 496.951l77.343 76.239-134.797 107.695z"/><path fill="#85bede" fill-opacity=".4" d="M515.024 582.41l-83.926 31.883 148.066-37.088-42.733-65.346z"/><path fill="#392a26" fill-opacity=".494" d="M250.814 680.569l23.31 73.309-15.662 56.498-4.593-28.696z"/><path fill="#313135" fill-opacity=".706" d="M204.296 506.698l23.412 59.773-16.922-2.445L-62 583.7z"/><path fill="#b4776b" fill-opacity=".235" d="M623.599 698.818l6.283-107.41 75.752 27.576-17.16 32.082z"/><path fill="#d9d6e2" fill-opacity=".584" d="M472.024 615.352l-25.83-11.688-106.544-86.428 78.524 90.644z"/><path fill="#d4d4d7" fill-opacity=".416" d="M346.87 686.03l-81.192 24.728-16.463-36.689 84.112-1.504z"/><path fill="#a04545" fill-opacity=".541" d="M357.631 608.786l27.355-49.012-37.11-12.954 29.43 141.97z"/><path fill="#ecfbff" fill-opacity=".333" d="M233.04 528.506l-.215-5.37 86.27-10.967-40.211 55.887z"/><path fill="#221b15" fill-opacity=".514" d="M290.891 241.983l-3.853 112.269 71.495-35.283 41.17-43.597z"/><path fill="#2a2e38" fill-opacity=".761" d="M457.852 274.97l69.912 12.199-38.322-199.724-88.02 129.614z"/><path fill="#367aa8" fill-opacity=".627" d="M510.138 765.93l-24.752-55.017 77.567 223.274-26.875-107.068z"/></svg>