<svg xmlns="http://www.w3.org/2000/svg" width="228" height="278" viewBox="0 0 836 1024"><path fill="#814b42" d="M0 0h836v1024H0z"/><g fill-opacity=".502"><path fill="#9dbab0" d="M830 1086L486 962l376-780z"/><path fill="#fff" d="M54 1002l100-188 228 260z"/><path fill="#3d150f" d="M706 378l104 452L50-62z"/><path fill="#2d000f" d="M222 798L-62 598l384-384z"/><path fill="#ab0000" d="M550 706l-612 16 580 364z"/><path fill="#ff3800" d="M198 306L50-62-62 298z"/><path fill="#9bc0ad" d="M574 242l236 316L686-50z"/><path fill="#000302" d="M898 274l-204 24 80-272z"/><path fill="#182316" d="M410 26l84 636L602-14z"/><path fill="#ff3228" d="M10 846l544 164-340-224z"/><path fill="#ff2623" d="M630 366l-84-96 24 380z"/><path fill="#002846" d="M526 582l-64 372-48-136z"/><path fill="#a60900" d="M242 454L22 1066l-84-436z"/><path fill="#ff3a36" d="M274 690l144-508-144 240z"/><path fill="red" d="M498 354l-68 304-24-212z"/><path fill="#00173d" d="M290 754l56 156 36-240z"/><path fill="#fff" d="M142 886l152 48-236 52z"/><path fill="#000d33" d="M662 330L542 698l196-200z"/><path fill="#d6b8b1" d="M270 690l256 12-260-108z"/><path fill="#c6d4cc" d="M814 718L694 990l204-4z"/><path fill="#002d57" d="M314 222L78 450l192 28z"/><path fill="#c3e3da" d="M90 474l-132 48 228-204z"/><path fill="#bbc3bb" d="M638 558l-96 324 144-48z"/><path fill="#8c1d00" d="M618-62L138 158-62 10z"/><path fill="#002952" d="M442 282L322 494l52 148z"/><path fill="#d80000" d="M314 1086l244-108-248-112z"/><path fill="#750000" d="M-62 538l36-196 200-28z"/><path fill="#aaa085" d="M586 314l-52-212 224-48z"/><path fill="#390000" d="M602 714l-56 108-32-328z"/><path fill="#214575" d="M226 786l44-220-156 228z"/><path fill="#978640" d="M166 366L358 6 150 134z"/><path fill="#000b00" d="M414 34l376-80-280 148z"/><path fill="#828480" d="M314 702l256-116-240-44z"/><path fill="#fff" d="M542 482l-16-32 44 4z"/><path fill="#b0b4b0" d="M786 550l112-252-232 20z"/><path fill="#ff4b0b" d="M174 166L-62 66l164 280z"/><path fill="#420000" d="M358 642l120 16-40 28z"/><path fill="#ff3229" d="M514 762l-56 324 88-84z"/><path fill="#000800" d="M278 922l-116-40 44-12z"/><path fill="#46331b" d="M802 718L654 510l64 356z"/></g></svg>