<svg xmlns="http://www.w3.org/2000/svg" width="228" height="278" viewBox="0 0 836 1024"><path fill="#a26d71" d="M0 0h836v1024H0z"/><path fill="#aa1a1e" fill-opacity=".69" d="M272.516 45.404l-99.731 953.633 404.75-13.775-1.955-606.44z"/><path fill="#f2fefe" fill-opacity=".475" d="M228.706 900.087L129.465 284.17-62 245.648l40.034 734.793z"/><path fill="#dafcff" fill-opacity=".49" d="M840.763 447.199L577.55 656.918l-3.394 298.046L898 976.338z"/><path fill="#d0effe" fill-opacity=".725" d="M461.982-1.732l76.45 82.693L863.097 200.09 815.876-62z"/><path fill="#4a5050" fill-opacity=".847" d="M-62 267.218l960 1.603L57.394-62H-43.254z"/><path fill="#9e1b0d" fill-opacity=".494" d="M680.746 382.762l101.94 606.898-211.971-497.98-81.129-222.485z"/><path fill="#ceebfb" fill-opacity=".706" d="M879.59 712.618L703.641 530.042l91.096-235.534-182.084-19.228z"/><path fill="#aa070e" fill-opacity=".58" d="M230.093 331.58L50.183 544.908l132.9 25.034 279.14 429.494z"/><path fill="#2f3737" fill-opacity=".859" d="M758.406 479.574l60.687-254.646L898 125.058V482z"/><path fill="#f9f4fc" fill-opacity=".898" d="M574.545 988.235L632.951 1086l-382.476-33.494 106.655-26.582z"/><path fill="#022027" fill-opacity=".427" d="M644.516 89.143l101.071 36.144L628.238 323.36l-97.366-105.71z"/><path fill="#ffc08c" fill-opacity=".373" d="M445.383 23.818L333.164 159.646 533.89 274.288l22.58-207.007z"/><path fill="#df2035" fill-opacity=".706" d="M445.172 704.486L556.62 628.46l31.096 361.653-352.691 38.245z"/><path fill="#c4d2e1" fill-opacity=".549" d="M3.648 678.379L-62 418.195l487.625-175.4-214.52 19.824z"/><path fill="#ba7258" fill-opacity=".718" d="M357.965 640.487L533.4 658.056l83.67-261.587-279.62 123.733z"/><path fill="#dbe7f9" fill-opacity=".871" d="M591.902 938.48l170.963 11.497-68.186-141.35-117.465 34.334z"/><path fill="#0f4363" fill-opacity=".612" d="M-14.858 1086l168.068-56.181 14.034-61.342-218.604-23.263z"/><path fill="#d8ecff" fill-opacity=".745" d="M218.278 714.166L126.542 898.96-62 901.446l230.67 57.216z"/><path fill="#09394e" fill-opacity=".612" d="M759.567 1049.418l1.365-69.28-157.428-20.99L580.06 1086z"/><path fill="#212e2e" fill-opacity=".561" d="M508.066 252.622l-48.4 116.464-191.25-296.81L53.167 234.878z"/><path fill="#a01720" fill-opacity=".776" d="M198.804 467.63l304.131 292.694-328.003 245.006 35.908-227.478z"/><path fill="#f52e3f" fill-opacity=".545" d="M132.25 622.869l-.56-237.141 86.356-63.842 121.952-67.19z"/><path fill="#daeaff" fill-opacity=".682" d="M690.92 548.499l97.909 152.928 69.601-188.725-97.548-30.626z"/><path fill="#d3f3ff" fill-opacity=".404" d="M321.016 246.467L176.755 359.941 62.793 230.333-62 452.658z"/><path fill="#d9cfdd" fill-opacity=".984" d="M196.383 647.47L89.89 669.736l89.537-115.226 12.065 1.45z"/><path fill="#551814" fill-opacity=".725" d="M201.54 602.626l144.716-111.272-93.313-55.602-68.652 113.903z"/><path fill="#cfe1fd" fill-opacity=".722" d="M596.658 578.11L638.4 682.976l-52.565 74.126-10.74-102.29z"/><path fill="#5e0002" fill-opacity=".463" d="M667.636 403.902L682.86 705.75l-99.571-176.902-15.028 85.97z"/><path fill="#da996f" fill-opacity=".475" d="M89.354 483.896L20.49 618.508 98.993 967.8l43.957-419.92z"/><path fill="#c4946f" fill-opacity=".553" d="M824.49 1086l-45.184-391.496-91.382-178.77 24.78 329.026z"/><path fill="#6595db" fill-opacity=".365" d="M143.657-20.699L52.203 50.906l92.01 63.19 75.647-47.571z"/><path fill="#ebf9ff" fill-opacity=".431" d="M246.67 749.428L-62 810.6 63.796 933.366 35.129 728.67z"/><path fill="#d8e2f4" fill-opacity=".729" d="M179.329 1086h492.026l-497.32-78.162-22.268 3.362z"/><path fill="#ecfcff" fill-opacity=".38" d="M611.565-62L447.867 120.105l164.94.482-23.65-42.704z"/><path fill="#8f6851" fill-opacity=".776" d="M288.961-62l146.22 417.418-101.339-68.557 101.945-171.135z"/><path fill="#88675e" fill-opacity=".651" d="M50.752 859.45l36.074 43.905 58.347-29.159-41.735-46.698z"/><path fill="#fff2fe" fill-opacity=".255" d="M737.587 325.24l-290.712-78.053 229.624 120.396 39.949 158.558z"/><path fill="#cde9ff" fill-opacity=".4" d="M898 177.425L756.682 218.8 642.093-62h61.402z"/><path fill="#304860" fill-opacity=".384" d="M-62 529.03V423.026L54.651 447.06l32.341 2.341z"/><path fill="#468092" fill-opacity=".353" d="M844.97 180.752l-88.407 320.73-10.427-382.78-47.545 90.622z"/><path fill="#f70326" fill-opacity=".447" d="M378.275 522.516l106.398-30.064 129.917 9.096-12.618 45.347z"/><path fill="#fade8f" fill-opacity=".282" d="M567.687 488.063l11.273 8.155 76.36-66.485-410.323 107.604z"/><path fill="#e2f3ff" fill-opacity=".478" d="M792.72 782.138l25.345 253.21 45.564-181.419L898 945.723z"/><path fill="#ff0025" fill-opacity=".263" d="M707.155 455.602L665.107 343.1l-126.685-50.171 149.116 282.059z"/><path fill="#274d6c" fill-opacity=".29" d="M898 682.616l-88.613 86.642 8.64-90.616-24.517-99.63z"/><path fill="#deedff" fill-opacity=".62" d="M192.215 877.148l20.378-169.464-55.946 63.37 25.568 103.226z"/><path fill="#e6ebf8" fill-opacity=".569" d="M44.76 537.861l97.184-91.31-178.501 81.003L9.62 674.805z"/><path fill="#bd212e" fill-opacity=".8" d="M412.609 959.904l-61.82 68.704-163.466-25.353 2.922-141.12z"/><path fill="#b7e0ff" fill-opacity=".424" d="M-8.246 850.954l40.376 113.76 129.762-2.621L18.828 841.93z"/><path fill="#001517" fill-opacity=".361" d="M850.6 336.998l-92.84 110.59-51.99 39.77 172.76-31.11z"/><path fill="#d4d287" fill-opacity=".439" d="M316.45 447.7l-6.753 25.237 57.357-2.02 20.064-28.475z"/><path fill="#7191ad" fill-opacity=".286" d="M559.8 824.45l193.887 12.493-109.485-49.26 46.755-277.676z"/><path fill="#fdccb8" fill-opacity=".42" d="M390.824 151.167l158.59 35.716-36.375-56.377-36.008 55.2z"/><path fill="#6a4123" fill-opacity=".4" d="M353.495 56.05l97.025 174.587 82.67-47.98-91.036 275.577z"/><path fill="#2a3237" fill-opacity=".478" d="M531.687 117.022l76.747 204.736 20.286-58.096 75.688-113.77z"/><path fill="#ed344a" fill-opacity=".694" d="M391.85 1012.72l201.293-44.255-28.32-209.72-52.478 173.875z"/><path fill="#bf835f" fill-opacity=".78" d="M70.66 636.622l49.67-105.232 51.57 16.41-73.277 107.77z"/><path fill="#962731" fill-opacity=".718" d="M363.867 492.76l178.577-22.643-324.55-133.976 345.51-2.154z"/><path fill="#ad0518" fill-opacity=".322" d="M351.509-41.695L245.602 74.84l-76.07-97.169L425.18 24.126z"/><path fill="#dbb6a8" fill-opacity=".831" d="M763.35 959.131l16.38 64.26 40.087-124.66-74.347 28.027z"/><path fill="#2d3000" fill-opacity=".212" d="M649.267 643.367l-80.554-46.235 174.375 17.542-29.536 70.82z"/><path fill="#0a1426" fill-opacity=".294" d="M103.494 257.454l175.48-14.541L122.99 78.749l-19.136 97.377z"/><path fill="#a59ea4" fill-opacity=".976" d="M898 58.736l-56.118-82.734L760.996-62l40.772 103.787z"/><path fill="#ff7075" fill-opacity=".349" d="M146.659 383.329l1.869-34.799 216.208-106.232 19.705 51.119z"/><path fill="#b599a3" fill-opacity=".945" d="M199.13 641.637l9.477 79.295-135.868 27.69 62.166-77.145z"/><path fill="#c2e7ec" fill-opacity=".259" d="M641.855 345.488l-15.25-76.18 142.626-4.637-4.52 187.986z"/><path fill="#be9385" fill-opacity=".969" d="M139.437 770.19l-91.671 41.98 44.15-11.938 69.43 64.62z"/><path fill="#af1420" fill-opacity=".475" d="M319.942 257.643l-76.156 160.914-161.429 72.216 114.65 61.99z"/><path fill="#303c41" fill-opacity=".471" d="M-62 306.53V-62L76.74-41.982 18.523 282.803z"/><path fill="#85b2f0" fill-opacity=".447" d="M603.98 471.78l-56.425-6.778-3.128 30.114 43.869-1.564z"/><path fill="#9f6c4d" fill-opacity=".639" d="M326.045 564.125l249.01-31.292-52.792 116.793-182.513-11.538z"/><path fill="#d9f7ff" fill-opacity=".259" d="M551.42 984.064L58.257 1086 .243 1013.122l570.292 22.852z"/><path fill="#568692" fill-opacity=".255" d="M76.255 469.81l47.397-143.606L102.06 285.3l149.33-48.767z"/><path fill="#3c4756" fill-opacity=".698" d="M4.978 131.356l336.586-75.719 8.507 158.19 9.732-26.062z"/><path fill="#ff5b74" fill-opacity=".651" d="M689.83 382.062l-180.888-81.04 28.137-15.331 101.94 49.706z"/><path fill="#250004" fill-opacity=".255" d="M599.031 549.816l39.708-69.365 52.79-41.456-68.636 200.403z"/><path fill="#9aa7b1" fill-opacity=".482" d="M492.32 126.923L639.493 81.72l138.943 20.724-161.858 27.094z"/><path fill="#c9dffd" fill-opacity=".353" d="M660.667 713.86l80.409 247.226L603.23 672.213l-18.103-137.456z"/><path fill="#c01d29" fill-opacity=".675" d="M275.57 651.512l247.74 9.086 115.39-241.25-124.454 399.22z"/><path fill="#ffca9b" fill-opacity=".412" d="M-35.663 677.696L105.874 835.76 46.21 655.828l52.252-168.126z"/><path fill="#0d1a0b" fill-opacity=".42" d="M518.088 289.337l-75.574 30.288.15-17.833-55.241-64.401z"/><path fill="#bee5ff" fill-opacity=".302" d="M-6.764 307.34L-62 381.268l190.912 88.73-11.885-218.748z"/><path fill="#f5bf78" fill-opacity=".694" d="M81.734 531.919l-14.975.437 6.923-28.19 111.068 60.436z"/><path fill="#dfedff" fill-opacity=".576" d="M58.086 800.84L4.92 863.98l106.777 92.486-155.682-251.95z"/><path fill="#89171c" fill-opacity=".42" d="M188.715 554.707l406.048 69.272-295.656-18.243-51.542 346.46z"/><path fill="#2e1804" fill-opacity=".333" d="M136.65 973.447l56.648 12.409-207.663 20.81.322-38.038z"/><path fill="#8da3b9" fill-opacity=".396" d="M589.232 973.558l298.385-5.407-256.261-38.4-13.748 8.265z"/><path fill="#ae7b5e" fill-opacity=".725" d="M711.837 851.882L667.13 722.017l8.276-59.476 97.763 141.97z"/><path fill="#472b12" fill-opacity=".475" d="M404.324 156.275l99.018-14.973-26.188-19.26-3.326 2.73z"/><path fill="#ecfaff" fill-opacity=".231" d="M636.545 594.68l164.293 18.422 94.221-58.9-113.201-57.233z"/><path fill="#d2c686" fill-opacity=".376" d="M521.114 442.192l134.262-4.947-54.83 25.37-59.265-57.144z"/><path fill="#464548" fill-opacity=".435" d="M829.385 389.658L688.392 101.25 570.41 284.58 898 198.469z"/><path fill="#799fb1" fill-opacity=".396" d="M898 470.676l-198.832 8.788 113.52-200.41-82.509 238.118z"/><path fill="#daa86f" fill-opacity=".302" d="M339.777 88.825l37.056 183.383-44.5 16.877 68.098-107.93z"/><path fill="#bbbd65" fill-opacity=".188" d="M432.725 356.544L294.528 249.33l154.453 57.345 113.489-7.804z"/><path fill="#bb9984" fill-opacity=".51" d="M515.775 140.414l-92.598-55.2L387.174-62 522.09 48.65z"/><path fill="#ddb19e" fill-opacity=".388" d="M423.44 174.74l126.496 21.52-6.757-49.823-136.824 7.311z"/><path fill="#eaf6ff" fill-opacity=".584" d="M570.051 856.028l119.365-10.517 69.717 83.896-167.73-22.793z"/><path fill="#cc2c3c" fill-opacity=".706" d="M572.974 825.305l-61.83-354.39-4.776 120.544 70.984 16.24z"/><path fill="#e0e9fc" fill-opacity=".561" d="M199.197 630.461L92.3 655.77l16.202-9.62 68.48-88.592z"/><path fill="#a32c38" fill-opacity=".855" d="M525.26 308.915l123.73 59.288 2.85 60.676-180.723-18.145z"/><path fill="#dc2739" fill-opacity=".6" d="M283.488 869.861l41.721-1.986 257.787 129.28-22.193-241.273z"/><path fill="#b89c66" fill-opacity=".553" d="M443.754 510.95l-74.737 92.112-13.63-108.022 55.697 101.498z"/><path fill="#e6eefe" fill-opacity=".631" d="M108.365 906.961L6.14 899.895 182 936.235l5.18-80.685z"/><path fill="#32505f" fill-opacity=".29" d="M583.374 788.423l33.335-26.297 20.669 57.997-42.789-12.47z"/><path fill="#e0e9f3" fill-opacity=".592" d="M556.967 112.75L449.257-62l160.638 91.93-16.275 71.787z"/><path fill="#620005" fill-opacity=".18" d="M338.241 302.253l148.72 57.556-234.848 21.307 11.146-91.21z"/><path fill="#cdfba3" fill-opacity=".255" d="M506.664 529.141l-3.466 64.812-65.215-1.735 4.229-3.13z"/><path fill="#84a1b4" fill-opacity=".259" d="M749.531 288.267l-135.368 32.216 225.07-129.97-152.401-111.5z"/><path fill="#e0eeff" fill-opacity=".443" d="M778.824 576.533l25.78 194.304L696.14 487.675 898 544.215z"/><path fill="#9d714b" fill-opacity=".275" d="M70.918 890.467l63.224-24.02L-62 680.342l70.661 2.428z"/><path fill="#3a66af" fill-opacity=".58" d="M165.104 1012.345l.844.862-188.216-10.143L57.716 1086z"/><path fill="#aae2e1" fill-opacity=".22" d="M472.585 281.308l124.562 28.289 137.1 82.526-190.51-136.53z"/><path fill="#ffe53b" fill-opacity=".192" d="M295.965 539.26l-47.21-11.97 94.571-19.191 243.66-42.884z"/><path fill="#a90e1d" fill-opacity=".384" d="M537.99 433.715l70.142 40.199 67.185 98.45 33.493-82.6z"/><path fill="#320105" fill-opacity=".165" d="M336.018 574.623l-136.488 50.84-7.099-69.076 101.49-184.777z"/><path fill="#ff4765" fill-opacity=".537" d="M214.95 324.778l85.622-42.442-142.424 145.062-33.702-25.466z"/><path fill="#d41b2b" fill-opacity=".494" d="M91.353 543.3l-7.259-12.446 77.49 37.412-6.555 21.717z"/><path fill="#0a1214" fill-opacity=".208" d="M481.167 322.675l103.284-145.24 137.895 101.713-40.88-142.197z"/><path fill="#f2e4ff" fill-opacity=".349" d="M574.445 922.261l9.302-344.959 33.98 156.19-43.832 33.687z"/></svg>