<svg xmlns="http://www.w3.org/2000/svg" width="228" height="278" viewBox="0 0 836 1024"><path fill="#596567" d="M0 0h836v1024H0z"/><path fill="#97a2a4" fill-opacity=".847" d="M207.066 1086h592.327L898 540.435 372.178 208.753z"/><path fill="#00040d" fill-opacity=".6" d="M3.81 244.982l130.158 260.77L898 19.52-62-62z"/><path fill="#fff82d" fill-opacity=".561" d="M649.308 563.493l161.866-108.517L898 1004.269l-201.462 64.594z"/><path fill="#00131c" fill-opacity=".722" d="M395.654 75.315l478.881 452.211L898 63.964 765.199-62z"/><path fill="#6c78a1" fill-opacity=".902" d="M334.443 119.37l100.46-34.609L694.33 923.806l-446.885 23.05z"/><path fill="#c5d2ea" fill-opacity=".988" d="M247.153 943.11l436.67 47.759-38.014 70.85L21.933 1086z"/><path fill="#012338" fill-opacity=".651" d="M236.982 939.416l41.834-91.463-29.605-394.211L97.693 822.378z"/><path fill="#d0ac3e" fill-opacity=".718" d="M-16.95 193.97l173.501 403.192-54.11 70.471L-62 277.811z"/><path fill="#001951" fill-opacity=".565" d="M637.876 627.876l16.88 339.33-68.367-209.073-259.114 2.226z"/><path fill="#ee8949" fill-opacity=".4" d="M302.361 105.202l224.745 69.356-60.642 213.622-104.328 3.43z"/><path fill="#748cc8" fill-opacity=".596" d="M319.86 671.64L217.627 442.298l52.037-61.812 516.739-49.923z"/><path fill="#6e90d0" fill-opacity=".91" d="M427.38 1001.253l221.673-60.435-74.178-199.575-345.939 181.212z"/><path fill="#001e2e" fill-opacity=".659" d="M376.675 331.592l71.935 18.894-349.415 60.726L-25.873-62z"/><path fill="#040807" fill-opacity=".369" d="M147.557 1070.666L-62 125.059l87.183 664.065-41.181 289.819z"/><path fill="#bb8b5b" fill-opacity=".655" d="M397.329 654.1L260.77 576.263 898 634.635l-399.975 38.193z"/><path fill="#7d644f" fill-opacity=".925" d="M704.093 530.688l72.969-104.786-30.54-79.588-110.49-23.78z"/><path fill="#0a2633" fill-opacity=".863" d="M834.845 351.756l-274.144-23.197-75.476-44.835L866.099 36.522z"/><path fill="#002884" fill-opacity=".561" d="M486.716 630.827l18.605 386.227-84.534-358.484L569.89 988.89z"/><path fill="#f4ffff" fill-opacity=".494" d="M518.966 990.324L475.85 754.93l118.366 219.637-51.784-215.7z"/><path fill="#ccdcff" fill-opacity=".627" d="M635.532 369.112l86.466 220.64-156.883-51.657 77.912-62.708z"/><path fill="#a0795c" fill-opacity=".784" d="M67.054 869.247L194.699 525.37-62 598.387 71.45 639.6z"/><path fill="#dadc3d" fill-opacity=".78" d="M-62 495.621l128.352-36.033 20.703-90.391L-62 313.869z"/><path fill="#c4d6ed" fill-opacity=".757" d="M464.947 1086h-25.758l-89.15-439.753 37.556 91.35z"/><path fill="#dee8f6" fill-opacity=".592" d="M471.113 1003.572l204.593-58.601L521.136 1086 386.129 559.797z"/><path fill="#003398" fill-opacity=".576" d="M330.385 636.112l43.054 296.774 11.15-279.84 109.445 420.958z"/><path fill="#021d28" fill-opacity=".722" d="M373.994-62L213.505 493.085l-82.287 53.548L-51.608-62z"/><path fill="#f7f8fc" fill-opacity=".522" d="M426.92 413.671l-65.445-20.358 189.007-85.339-102.888 98.593z"/><path fill="#183e94" fill-opacity=".671" d="M522.892 585.108L464.313 423.25l109.31 165.923-33.557-311.109z"/><path fill="#e1dd41" fill-opacity=".686" d="M-39.313 620.174l61.66 135.454-14.585 157.62L-62 965.583z"/><path fill="#2956b8" fill-opacity=".996" d="M609.727 560.258l-25.585-205.323-70.85 2.241 51.149 26.045z"/><path fill="#1d2e30" fill-opacity=".808" d="M233.852 615.926l-112.984 113.84-1.962-86.833L-62 650.515z"/><path fill="#b4c8e5" fill-opacity=".867" d="M425.463 1072.004l-61.318-205.27-58.895-292.113 30.168 260.64z"/><path fill="#00339e" fill-opacity=".722" d="M617.67 926.537l-12.873 36.703-47.274-126.974-29.307-143.735z"/><path fill="#afd1fd" fill-opacity=".529" d="M171.019 540.436l45.465 7.852 29.08-100.475-65.092 83.255z"/><path fill="#161009" fill-opacity=".525" d="M718.815 100.554L-62 125.511 39.125-62 898 5.825z"/><path fill="#eff8ff" fill-opacity=".545" d="M562.973 705.91l58.243 156.91 43.17 223.18-91.838-293.654z"/><path fill="#23180a" fill-opacity=".416" d="M464.833 656.741L660.3 654.95l-4.377 27.2-161.219 80.394z"/><path fill="#142d76" fill-opacity=".969" d="M679.533 890.456L563.418 680.344 664.99 795.866l10.29 159.887z"/><path fill="#d6e6fe" fill-opacity=".675" d="M572.942 326.223l32.43 12.732-1.082 28.808 11.68 145.463z"/><path fill="#7d6d00" fill-opacity=".369" d="M861.795 1048.204l-91.553-46.019L898 609.327l-99.49-1.22z"/><path fill="#d4d963" fill-opacity=".612" d="M898 537.927l-166.904-88.69-89.638 258.552 4.866 76.767z"/><path fill="#0036a2" fill-opacity=".686" d="M322.243 856.102l46.154 124.017 7.698-10.996-68.013-249.374z"/><path fill="#b08572" fill-opacity=".996" d="M542.707 639.392l29.49-94.531 106.038 30.168-17.903 78.568z"/><path fill="#b9cff1" fill-opacity=".843" d="M552.78 365.434l15.11 118.856 2.776 98.177 34.256-44.89z"/><path fill-opacity=".267" d="M-62 379.397l138.619 91.832 3.911 73.58-130.43 66.424z"/><path fill="#d19270" fill-opacity=".537" d="M84.607 634.898L47.372 778.651l32.99 17.649 59.447-23.892z"/><path fill="#f5fff9" fill-opacity=".341" d="M478.548 701.093l-37.972-67.505 54.438 241.893 62.205 155.65z"/><path fill="#c7d6ea" fill-opacity=".725" d="M448.95 1053.719l-53.876-275.254-38.377-160.884 6.096 123.613z"/><path fill="#c8e4ff" fill-opacity=".647" d="M298.81 704.967l29.255 208.597-25.324-60.621-16.285-164.556z"/><path fill="#02339c" fill-opacity=".533" d="M373.629 457.063l47.646 76.171 7.893-136.827-81.33 198.721z"/><path fill="#033094" fill-opacity=".725" d="M361.281 823.064l67.146 225.323-43.558-191.064-46.1-243.629z"/><path fill="#002a88" fill-opacity=".682" d="M395.11 669.786l66.934 344.67-39.804-127.34-61.108-271.21z"/><path fill="#bcd9ff" fill-opacity=".365" d="M331.558 580.481l1.299-134.033-93.832 109.934 40.386-178.01z"/><path fill="#3257ab" fill-opacity=".988" d="M445.421 514.61L489.3 622.338l-19.001-119.11 68.257-181.862z"/><path fill="#093fab" fill-opacity=".804" d="M567.593 950.23l-23.07-78.7-57.662-157.669 60.005 266.378z"/><path fill="#a2756b" fill-opacity=".729" d="M445.323 369.382l-78.046 3.954-32.775-99.714 194.856-112.618z"/><path fill="#d9eaff" fill-opacity=".6" d="M468.74 473.632l12.984 111.577 27.734 20.324-13.336-92.989z"/><path fill="#e6e565" fill-opacity=".718" d="M828 728.184l-47.84 200.625-86.7 67.173-37.933-287.01z"/><path fill="#062d45" fill-opacity=".631" d="M327.498 395.661l-59.621 66.068 74.994-195.372L-62 231.874z"/><path fill="#a7b1ca" fill-opacity=".647" d="M445.559 663.486l-67.306-247.121 30.078 324.972 34.256-267.54z"/><path fill="#dce7f7" fill-opacity=".718" d="M585.18 1017.342l45.666 55.08-93.012-303.395-19.112-10.053z"/><path fill="#dce3f2" fill-opacity=".667" d="M627.946 995.066L173.821 977.31l-89.565 92.041L770.996 1086z"/><path fill="#002485" fill-opacity=".506" d="M328.2 483.403l48.073-96.63-52.094 205.164 7.83-51.972z"/><path fill="#004cea" fill-opacity=".392" d="M644.618 946.129L586.1 721.659l141.591 363.916-27.683-2.866z"/><path fill="#ebe7f7" fill-opacity=".427" d="M468.303 328.152l12.564 160.786 21.393-183.143 73.29 45.932z"/><path fill="#062e3c" fill-opacity=".714" d="M-14.578 646.677l46.786-14.799L86.09 769.353l-74.846-44.834z"/><path fill="#c2d3ec" fill-opacity=".929" d="M367.876 1086l-66.197-279.202 52.725 137.696-4.854 34.269z"/><path fill="#0140a6" fill-opacity=".627" d="M273.793 681.665l44.865 238.773 6.334 44.74-33.574-121.829z"/><path fill="#033a53" fill-opacity=".439" d="M898 316.549l-188.717-55.51 66.86 199.092 38.548 48.096z"/><path fill="#000e3c" fill-opacity=".384" d="M404.703 617.196l58.344 219.83 16.97-192.164 48.736 168.549z"/><path fill="#b9d4fa" fill-opacity=".6" d="M664.263 997.232l4.76-78.651-4.007-64.281-18.31-10.507z"/><path fill="#343a45" fill-opacity=".482" d="M266.536 928.236L6.043 1086l4.312-247.176 100.134-42.848z"/><path fill="#4a473d" fill-opacity=".631" d="M442.255 26.306l108.01 79.46-97.532-127.468L268.022 67.75z"/><path fill="#29211b" fill-opacity=".42" d="M532.062 60.564l23.351 111.644-384.693 14.494 247.408 25.489z"/><path fill="#bb9087" fill-opacity=".761" d="M498.18 659.41l-181.4-36.21-12.23-89.257 44.814 30.024z"/><path fill="#002f9d" fill-opacity=".443" d="M387.633 420.078l92.386 93.895 4.963 121.586-74.437-236.504z"/><path fill="#013552" fill-opacity=".522" d="M52.155 250.026l67.58 247.68 89.654 20.324 31.748-75.664z"/><path fill="#013db8" fill-opacity=".612" d="M587.84 413.519l25.358 104.542-22.473 7.715-19.5-168.845z"/><path fill="#6f594c" fill-opacity=".804" d="M342.307 624.751l239.167 55.595-181.686-16.288 10.396 5.873z"/><path fill="#003aaf" fill-opacity=".588" d="M524.054 971.524l-9.715 22.85-25.773-44.812-35.303-191.836z"/><path fill="#012c91" fill-opacity=".549" d="M538.697 596.824l-11.377 10.658-28.332-61.386-7.346-143.231z"/><path fill="#d5cb25" fill-opacity=".545" d="M851.545 831.41l-69.933-279.296 18.84 268.511L735.086 1086z"/><path fill="#e6e57d" fill-opacity=".8" d="M66.725 453.975l17.685-80.332-68.88-33.982 42.374 85.944z"/><path fill="#062d6d" fill-opacity=".376" d="M587.648 251.787l88.781 139.868-88.93-68.528 70.479 164.764z"/><path fill="#f0a58e" fill-opacity=".239" d="M723.706 310.302l14.95 101.455-111.001 42.946 56.614-129.124z"/><path fill="#001e7e" fill-opacity=".686" d="M629.443 807.47l14.989-134.212-52.667 17.076 95.923 378.996z"/><path fill="#282a1d" fill-opacity=".643" d="M190.333 549.113l-7.942 72.153 89.86 38.695-10.193-95.978z"/><path fill="#aa7d2b" fill-opacity=".58" d="M475.424 443.536l-25.084 20.435-17.732-14.813 24.178-38.98z"/><path fill="#355bba" fill-opacity=".824" d="M626.699 513.967l17.318 31.295 8.324-13.17 2.936-12.122z"/><path fill="#b4d2f1" fill-opacity=".616" d="M271.23 621.915l24.267-181.18 32.137-26.606-36.191 92.83z"/><path fill="#053b9f" fill-opacity=".647" d="M294.648 666.54l29.07 70.985-3.468 89.391-29.51-154.122z"/><path fill="#d0e1f3" fill-opacity=".58" d="M227.045 974.26l89.324 37.488-52.705-281.908 49.456 203.233z"/><path fill="#be8d7f" fill-opacity=".592" d="M336.819 123.262l32.522 124.92-25.517-18.044 101.82-128.776z"/><path fill="#d5e8ff" fill-opacity=".427" d="M504.543 395.818l25.224 73.325-13.587 38.573-9.082-34.76z"/><path fill="#d4e8fa" fill-opacity=".549" d="M437.79 483.732l13.001 48.611-18.395 9.3-11.292-84.285z"/><path fill="#d7e0f1" fill-opacity=".761" d="M588.832 1086l-74.246-205.934 2.574 108.212 143.53-17.046z"/><path fill="#132649" fill-opacity=".525" d="M544.795 588.184l3.067-100.502 22.432 97.343-63.696 15.797z"/><path fill="#d0e9ff" fill-opacity=".475" d="M343.044 561.47l15.648-118.658 29.812-40.105-41.424 154.07z"/><path fill="#0038a2" fill-opacity=".486" d="M294.789 556.772l2.302-64.176 52.549-115.438-7.845 27.47z"/><path fill="#003758" fill-opacity=".396" d="M110.816 674.547l187.855 227.524-12.239 65.798-28.293-363.672z"/><path fill="#0a1215" fill-opacity=".827" d="M471.377 204.027l-12.74-105.149L898 127.934 657.405-62z"/><path fill="#001549" fill-opacity=".694" d="M550.376 702.015l23.596 112.556-51.5-126.34 6.478-8.586z"/><path fill="#b28277" fill-opacity=".945" d="M428.483 112.74l81.4 212.444-64.308 40.564 8.33-83.808z"/><path fill="#e5eefb" fill-opacity=".545" d="M587.844 500.71l-21.861-83.032-21.916-35.81 41.614 183.553z"/><path fill="#2c262c" fill-opacity=".341" d="M674.147 515.606l35.743 22.572-37.57-99.025 115.56.88z"/><path fill="#d9e301" fill-opacity=".353" d="M26.073 283.263l27.83 181.71L7.629 483.48-62 179.698z"/><path fill="#04283a" fill-opacity=".808" d="M43.109 354.996l293.088 40.58L-62 225.188 1.884 86.59z"/><path fill="#9b7569" fill-opacity=".8" d="M509.646 187.709l-78.944 159.48-122.808-177.105 30.118 134.795z"/><path fill="#112a38" fill-opacity=".737" d="M607.344 323.537l-122.32-63.079 89.501-151.848 80.359 280.149z"/><path fill="#f8f0ee" fill-opacity=".427" d="M309.546 537.887l-2.48 32.831 22.31-83.636-11.699-35.484z"/><path fill="#c8d4e4" fill-opacity=".553" d="M703.094 526.16l-34.049-28.568-85.634 59.19 76.15-144.279z"/><path fill="#003cb4" fill-opacity=".404" d="M499.127 376.394l-14.496 127.144 47.313-168.684L369.602 486.66z"/><path fill="#00329d" fill-opacity=".698" d="M340.407 481.77l-11.383 25.584 56.61 70.542-31.723-9.91z"/><path fill="#dddd74" fill-opacity=".929" d="M659.976 614.577L898 565.074l-48.032-45.03-81.53-21.95z"/><path fill="#bed3ee" fill-opacity=".718" d="M313.485 706.613l-1.306-36.755 12.78-9.358 54.86 288.128z"/><path fill="#d7e6f9" fill-opacity=".592" d="M434.76 390.627l-70.152-21.472-52.018 136.041L373.803 378z"/><path fill="#97b0d8" fill-opacity=".957" d="M546.544 484.458l-11.135-25.935-3.815-27.975 17.49 31.01z"/><path fill="#5476af" fill-opacity=".678" d="M270.243 535.26l-.36 225.084 53.301-210.297-12.503 134.873z"/><path fill="#1f1e1b" fill-opacity=".627" d="M406.123 24.352L203.664 214.4 448.836 56.309l-69.924 84.261z"/><path fill="#476c96" fill-opacity=".384" d="M399.681 989.509l201.747-27.61-132.689 34.105-34.286.71z"/></svg>