<svg xmlns="http://www.w3.org/2000/svg" width="228" height="278" viewBox="0 0 836 1024"><path fill="#716e4a" d="M0 0h836v1024H0z"/><g fill-opacity=".502"><path fill="#f4ff91" d="M110 1086L142-62l496 1148z"/><path fill="#000010" d="M894 1086L790-62 494 914z"/><path fill="#ffffa3" d="M290 246l204 512 116-304z"/><path d="M-62 482L102-62 86 1058z"/><path fill="#fff" d="M102 34l160-96-80 656z"/><path fill="#295c00" d="M210 678l-4-296 404 392z"/><path fill="#000002" d="M606-62L250-18l4 336z"/><path fill="#601b15" d="M334 154L898-62 614 530z"/><path fill="#ffff9a" d="M526 682L258 302l160-76z"/><path fill="#e2ff74" d="M134 926l428 160-68-412z"/><path fill="#000020" d="M-62 990l192 92-96-732z"/><path fill="#000017" d="M-62 418L14-62l112 232z"/><path fill="#2d4a00" d="M442 646L214 422l220 408z"/><path fill="#090b39" d="M794 1002l-248 72-24-412z"/><path fill="#1c1a28" d="M898-54l-276-8 200 952z"/><path fill="#ffecfd" d="M130-62L254 50 122 510z"/><path fill="#ab553f" d="M750 218L590 442 398-62z"/><path fill="#efff88" d="M514 678l92-172-320-44z"/><path fill="#b796bc" d="M106 1002l128-444-132-236z"/><path fill="#e5ff77" d="M254 1086l-40-388 328 136z"/><path fill="#98c00e" d="M218 418l-20 296 196 64z"/><path fill="#151423" d="M522 714l328 8-168-416z"/><path fill="#5c3e00" d="M626 114l-28 320-128 80z"/><path d="M314 358l12-36-44-16z"/><path fill="#5b8304" d="M238 998l-108 48 36-168z"/><path fill="#140615" d="M418 234L366-62 238 282z"/><path fill="#ffff94" d="M506 410l-184-60 56-108z"/><path fill="#e8af79" d="M510 14l112 80-80 28z"/><path fill="#1d171c" d="M734 10L562 310l80-372z"/><path fill="#9ed955" d="M330 894l196 60 4-144z"/><path fill="#ffe3d8" d="M214 434L98 254 258-58z"/><path fill="#767bca" d="M670 1054l-132-20-12-144z"/><path fill="#d39347" d="M458 258l-68-12 112 120z"/><path fill="#4c3e55" d="M122-62l12 336L30-62z"/><path fill="#3f454b" d="M898 342L774 98 670 266z"/><path fill="#c1e44c" d="M346 682l-160 28-44 280z"/><path fill="#0d0f19" d="M-62 718l180 64-68-356z"/><path fill="#00000c" d="M678 366l-48-8-44-84z"/><path fill="#92b70f" d="M210 398l32-76 136 252z"/><path fill="#302b1b" d="M494 666l52 220 244-380z"/></g></svg>