<svg xmlns="http://www.w3.org/2000/svg" width="228" height="278" viewBox="0 0 836 1024"><path fill="#56586f" d="M0 0h836v1024H0z"/><g fill-opacity=".502"><path fill="#eaffff" d="M-62 986l276-408 92 508z"/><path fill="#120c3d" d="M766 462l-388 624L-30 30z"/><path fill="#ffef9e" d="M806 702l-164-88 64 472z"/><path fill="#8ea7b3" d="M898 654L246-62l600 364z"/><path d="M202 630l-64-236L10 774z"/><path fill="#8abbc0" d="M242 174L-62 474v332z"/><path fill="#fff" d="M898 1002l-112-64-216 148z"/><path fill="#000014" d="M630 466l172 172-688-80z"/><path fill="#692f00" d="M530 94l-276 44 132 288z"/><path fill="#9ba28b" d="M598 126L34 58 854-62z"/><path fill="#f2f8ff" d="M306 762l32 44 152-28z"/><path fill="#270d5b" d="M898 886l-656 200 52-296z"/><path fill="#dee6ae" d="M630 818l36-252 152 212z"/><path fill="#e3f5ff" d="M242 1086l28-284-280 256z"/><path fill="#090000" d="M702 538l196 188-64 80z"/><path fill="#535d8f" d="M290-62L70 234l244 288z"/><path fill="#6d92a2" d="M214 542l44 284-140-28z"/><path fill="#5b4dbd" d="M490 758l220 328-52-292z"/><path fill="#802d0f" d="M878 962l-172-20 192-408z"/><path fill="#cbe6ff" d="M142 918L34 850l88-172z"/><path fill="#8a4e3c" d="M54 966l-116-56L46 622z"/><path d="M586 406l40 356 44-256z"/><path fill="#f6fffb" d="M294 634l36-48-40 108z"/><path fill="#050424" d="M462 734l104 164-180 68z"/><path fill="#001" d="M162 678l48-344L50 674z"/><path fill="#dea6aa" d="M490 74l-208-4L398-46z"/><path fill="#7f9dc4" d="M890 390l8 180-452-352z"/><path fill="#3c2685" d="M450 322l220 8 208 352z"/><path fill="#eab7c3" d="M342 430l20 56 40-36z"/><path fill="#cad2d0" d="M426 598l-52 80 68-48z"/><path fill="#6da8d5" d="M666 582l-20 104 148 12z"/><path fill="#3e635f" d="M762 298L442 102l456-12z"/><path fill="#180d1b" d="M526 282L338 450l-12-160z"/><path fill="#010016" d="M222 574l48 264 28-268z"/><path fill="#ada0e7" d="M206 338l-48-24 140-48z"/><path fill="#366055" d="M190 310L22-62l-84 428z"/><path fill="#606b7c" d="M258 742L74 714l116 132z"/><path fill="#e9c865" d="M810 762l-176-44 72 196z"/><path fill="#403475" d="M558 506L298 670l220-424z"/><path fill="#a0a2ad" d="M446 710l-128 24 84 16z"/></g></svg>