<svg xmlns="http://www.w3.org/2000/svg" width="228" height="278" viewBox="0 0 836 1024"><path fill="#535c60" d="M0 0h836v1024H0z"/><g fill-opacity=".502"><path fill="#bed6f9" d="M658 354l-436 732 220-876z"/><path d="M838 562L230-62l668 4z"/><path fill="#8bc3ff" d="M474 1086L118 922l780-180z"/><path fill="#100500" d="M502 22L-62 442 2-22z"/><path fill="#fbff5d" d="M786 602l72 484-220-432z"/><path fill="#beb5af" d="M26 394l296-180 72 428z"/><path fill="#1c211f" d="M34 838l-96-364 748 256z"/><path fill="#0c53a3" d="M642 482L306 846l412 240z"/><path fill="#f5f5f9" d="M274 870l-36 208 496 8z"/><path fill="#c3ebff" d="M362 598l216-328 76 208z"/><path fill="#165281" d="M482 338l-76 228L66 314z"/><path fill="#130407" d="M598 18l60 560 196 20z"/><path fill="#ffa670" d="M78 438l464 132-96 96z"/><path fill="#c27c53" d="M350 382l-92-256 240 44z"/><path fill="#a4e6ff" d="M206 302l84-96 36 216z"/><path fill="#343800" d="M262 482L154 186 62 306z"/><path fill="#7bcaff" d="M666 722l-40-396-144-88z"/><path fill="#56a0fa" d="M310 894l208 164-192-432z"/><path d="M898 538l-40 252-92-108z"/><path fill="#7a740f" d="M66 554L-62 338l508 332z"/><path fill="#ffbe98" d="M342 590L150 370 2 366z"/><path fill="#21373f" d="M486 878L350 774l280-304z"/><path fill="#c9c952" d="M738 958l160-112-216-228z"/><path fill="#0a080f" d="M310 710L54 586-58 754z"/><path fill="#0c0c10" d="M474 198L898 30 718 410z"/><path fill="#6f656d" d="M234 982l100-276-396 264z"/><path fill="#1e1b20" d="M50 242L434-62 166 354z"/><path fill="#7ac6fa" d="M702 982l100 104-348-56z"/><path fill="#ffd2a6" d="M510 1086l-264-68 64-112z"/><path fill="#2c6cc9" d="M426 542l-144-32 4-204z"/><path fill="#5f391f" d="M482 242l-164 80 80 56z"/><path fill="#120b0c" d="M254 954l-112 24 84 108z"/><path fill="#b5f5ff" d="M542 574L442 434l140 60z"/><path fill="#ffa3c0" d="M898 794l-176-84 56 104z"/><path d="M406 218l12-32-120 20z"/><path fill="#e8b99d" d="M274 186l96-52 84 52z"/><path fill="#779712" d="M194 366l-76-56-180 56z"/><path fill="#5096f6" d="M726 894l-32-144-96 188z"/><path fill="#031e26" d="M554 570l-68 84 184 68z"/><path fill="#6e2000" d="M458 434l-32 52-36-76z"/></g></svg>