<svg xmlns="http://www.w3.org/2000/svg" width="228" height="278" viewBox="0 0 836 1024"><path fill="#334061" d="M0 0h836v1024H0z"/><path fill="#6087c8" fill-opacity=".925" d="M253.602 737.379l452.7-361.24-576.27 14.102L63.55 1086z"/><path fill="#20222b" d="M-62 16.749L836.305-62l29.105 946.991-213.03-486.513z"/><path fill="#dcdcf9" fill-opacity=".518" d="M817.606 1077.749l-81.481-51.983-108.345-670.68L798 736.185z"/><path fill="#07080f" fill-opacity=".984" d="M122.232 417.056L18.321 1086l-78.518-925.6 398.12 50.435z"/><path fill="#0032ab" fill-opacity=".729" d="M268.789 1086h271.064l-64.56-546.385L192.996 404.18z"/><path fill="#6c5046" fill-opacity=".922" d="M245.143 85.158l48.734 311.871 240.27-277.998-193.916-87.816z"/><path fill="#afb0ce" fill-opacity=".871" d="M221.238 764.024L103.738 1086l-44.164-72.821 96.132-629.905z"/><path fill="#b4b7d6" fill-opacity=".706" d="M678.534 443.938l-58.944-66.89-140.338-41.694 39.63 236.688z"/><path fill="#a3a4c1" fill-opacity=".506" d="M647.894 1086l-26.002-256.455-116.678-207.778L532.108 1086z"/><path fill="#001" fill-opacity=".663" d="M719.324 643.522l-179.82-11.388L898 473.622 698.384 113.686z"/><path fill="#c5d5fc" fill-opacity=".655" d="M228.969 1086h285.674l-231.307-80.995-42.093-111.82z"/><path fill="#040823" fill-opacity=".741" d="M214.257 662.673L113.35 645.7 76.296 876.73-62 450.44z"/><path fill-opacity=".596" d="M281.682 188.2l598.058-15.447L898 478.48 388.278 299.23z"/><path fill="#1c0807" fill-opacity=".725" d="M642.817 1070.172L708.543 1086l23.66-136.017-109.407-366.934z"/><path fill="#ffdfcf" fill-opacity=".467" d="M415.027 407.544l-131.88-112.719 2.783 122.204 37.37 68.964z"/><path fill="#e7e6f8" fill-opacity=".467" d="M133.864 576.041l105.12-211.631-102.782 23.983-40.326 162.542z"/><path fill="#001160" fill-opacity=".627" d="M374.165 993.556l151.92-87.364-20.679-167.217-1.276-409.453z"/><path fill="#1264ca" fill-opacity=".988" d="M302.442 588.317l-121.228 65.699 13.379-245.185 82.436-72.055z"/><path fill="#6f6d66" fill-opacity=".439" d="M898 128.602l-553.457-74.75L-62 153.362l753.796 18.187z"/><path fill="#05123c" fill-opacity=".894" d="M230.83 795.699l-.098 212.791L125.108 1086l96.748-344.6z"/><path fill="#121116" fill-opacity=".98" d="M898 721.564L822.744 1086l-21.96-292.824-17.554-80.757z"/><path fill="#0c4dad" fill-opacity=".894" d="M523.263 436.995L459.754 302.64 359.527 529.715l10.999-89.451z"/><path fill="#050200" fill-opacity=".698" d="M413.286 361.041l-24.162-109.143-213.82 136.794L37.75 178.406z"/><path fill="#fba697" fill-opacity=".341" d="M396.81 58.061l-68.3-15.295-19.424 286.957-56.851-169.073z"/><path fill="#bbbdde" fill-opacity=".678" d="M730.92 706.11l53.605 298.171-27.977 55.338-70.322-292.185z"/><path fill="#573b32" fill-opacity=".996" d="M384.629 44.538l-103.915 201.73 170.998-97.554-34.377 209.992z"/><path fill="#0c68ca" fill-opacity=".894" d="M197.35 552.482L399.777 437.32l74.703 140.01L288.792 600z"/><path fill="#4c5062" fill-opacity=".431" d="M630.62 443.985L746.465 685.03 550.688 844.582l-53.421-252.165z"/><path fill="#b8bed8" fill-opacity=".62" d="M613.3 367.761l-138.125 11.09 11.227-45.144 244.765 230.65z"/><path fill="#dfe5fe" fill-opacity=".329" d="M43.97 1086l93.463-554.509 7.934 356.957L39.058 1056.94z"/><path fill="#002d9c" fill-opacity=".651" d="M205.547 647.614L383.107 1086l60.401-523.678-337.24 83.75z"/><path fill="#0a0d20" d="M-2.612 524.77l122.345 41.721 4.144 40.457L2.39 1086z"/><path fill="#818d96" fill-opacity=".627" d="M438.18 420.239l80.465 167.628 80.762-65.7-201.116 5.192z"/><path fill="#bbc4ed" fill-opacity=".416" d="M577.722 988.95l12.812-93.774-63.14-67.453-1.82 147.376z"/><path fill="#010208" fill-opacity=".941" d="M712.304 513.341l-42.195-84.428L471.75 208.06 898 191.91z"/><path fill="#aeb8db" fill-opacity=".722" d="M281.23 1086l-47.574-229.146 20.722-26.968L226.485 1086z"/><path fill="#001f74" fill-opacity=".427" d="M753.535 597.356l49.702 179.274L898 449.244 643.025 605.836z"/><path fill="#adb6d0" fill-opacity=".639" d="M789.68 742.977l24.545 255.196-99.33-461.603 36.116 86.161z"/><path fill="#00044b" fill-opacity=".608" d="M454.092 762.054l34.769-202.638 28.697 276.501-196.763 63.214z"/><path fill="#bdcae9" fill-opacity=".506" d="M172.936 383.508l44.257 135.725 69.176-57.888-178.965 55.512z"/><path fill="#000100" fill-opacity=".69" d="M-45.352 197.69L85.773 734.838l27.366-285.444 148.496-273.4z"/><path fill="#98b7ea" fill-opacity=".208" d="M544.809 472.391L761.34 596.068 315.174 494.906l-3.905 72.74z"/><path fill="#0d1b31" fill-opacity=".973" d="M-2.878 51.795L364.015-62 273.523 80.335l-271.171 13z"/><path fill="#0142af" fill-opacity=".91" d="M252.595 983.76l72.595 23.939 108.796-141.724L268.44 929.03z"/><path fill="#1e1e29" fill-opacity=".878" d="M631.068 592.44l63.928 204.67-53.906 92.115-30.879-108.182z"/><path fill="#bdc5df" fill-opacity=".51" d="M212.216 373.09l53.533-30.576-23.157 44.944-115.012 7.888z"/><path fill="#cbcbe6" fill-opacity=".443" d="M547.827 483.036L604.023 375.9l-82.733-11.163-23.496 251.416z"/><path fill="#c4cae8" fill-opacity=".573" d="M285.602 381.873l136.443 12.353-79.694 84.648-69.726-66.674z"/><path fill="#575f51" fill-opacity=".4" d="M264.488 186.677l-13.896-80.238L6.05 81.965-62 189.831z"/><path fill="#0a070b" fill-opacity=".698" d="M110.368 732.896l-33.38 88.672-14.943 52.338-9.335-210.43z"/><path fill="#bbbdd9" fill-opacity=".808" d="M717.533 1012.92L732.19 1086h103.477l-89.7-101.978z"/><path fill="#154828" fill-opacity=".761" d="M469.684 509.93l9.576-27.156 1.425-15.504-39.536 42.013z"/><path fill="#3a0000" fill-opacity=".322" d="M56.011 1012.056l154.357-21.175L151.445 1086-62 973.589z"/><path fill="#8c5f50" fill-opacity=".545" d="M422.876 166.618L271.03 308.425l120.788 103.849-92.278-159.62z"/><path fill="#b8acaa" fill-opacity=".667" d="M409.403 441.59l33.016 69.838 49.281-70.086-123.301-4.216z"/><path fill="#9ca5c7" d="M189.092 659.748l-82.15 75.206 100.516-92.751 36.22 172.79z"/><path fill="#ffb597" fill-opacity=".2" d="M289.006 51.083l218.367-8.076-253.673 77.65 43.592 197.452z"/><path fill="#020302" fill-opacity=".831" d="M268.995 339.934l13.546-80.387-32.688-82.478-118.68 218.636z"/><path fill="#0046af" fill-opacity=".643" d="M508.623 596.186l-80.038 8.06 91.848-215.953-28.592 183.524z"/><path fill="#00183c" fill-opacity=".38" d="M467.767 202.682L475.245-62 837.363 69.234 544.23 94.146z"/><path fill="#00074b" fill-opacity=".6" d="M423.074 993.66l88.204-46.927-250.063-9.477 269.423-25.686z"/><path fill="#097cff" fill-opacity=".298" d="M569.481 876.376l-133.8 28.25-47.523 5.776 8.86 38.055z"/><path fill="#010204" fill-opacity=".867" d="M575.596 373.64l-151.748-98.32 15.906-50.986 457.968-27.698z"/><path fill="#007dfe" fill-opacity=".337" d="M351.388 856.876L183.234 917.63 458.28 873.6l-157.446 63.098z"/><path fill="#0266d2" fill-opacity=".765" d="M430.508 581.397l-41.742-138.796-113.653 64.774-23.062-114.85z"/><path fill="#20060c" fill-opacity=".855" d="M623.882 1071.85l27.195-133.114 60.554-32.65 26.641 70.835z"/><path fill="#00014f" fill-opacity=".243" d="M289.758 887.453L235.905 768.01l436.45-13.698-314.052 81.631z"/><path fill="#0038a9" fill-opacity=".761" d="M380.436 757.06L121.224 602.52l21.258 52.67 254.816 10.412z"/><path fill="#5e607d" fill-opacity=".992" d="M644.655 938.242l-70.465 7.449-15.066-7.804 77.157-58.234z"/><path fill="#114a31" fill-opacity=".698" d="M451.624 517.859l-40.699-19.495-1.071-39.056 31.43 51.343z"/><path fill="#341408" fill-opacity=".553" d="M349.766 89.894l18.51 297.151 59.064-19.495L320.908 161.5z"/><path fill="#131e37" fill-opacity=".635" d="M518.955 604.066l206.595-3.006-112.69 71.58-19.746-118.076z"/><path fill="#9fa0c3" fill-opacity=".518" d="M824.964 1086l-39.702-298.856-83.157 63.697-38.801-208.363z"/><path fill="#8a7763" fill-opacity=".573" d="M412.539 47.04l3.05 128.961 15.444 165.168-20.91 1.755z"/><path fill="#b5bbda" fill-opacity=".557" d="M176.527 593.05l22.247-190.111-56.825 216.365 63.902 18.53z"/><path fill="#b6bddf" fill-opacity=".918" d="M244.79 988.198l92.866 36.883-140.77 8.017-5.65 52.902z"/><path fill="#ffc89d" fill-opacity=".243" d="M310.386 555.117l15.962-73.603 26.212 68.881-56.585 12.62z"/><path fill="#b5b9d7" fill-opacity=".498" d="M676.685 424.932L565.507 440.8l-95.658-75.536 41.976-27.443z"/><path fill="#3b312d" fill-opacity=".608" d="M36.136 1086L20.967 881.471l64.624-65.906-14.453 111.146z"/><path fill="#b5b9da" fill-opacity=".451" d="M538.752 937.96l-20.715 50.605 128.18-33.75-74.42-14.526z"/><path fill="#8396b8" fill-opacity=".765" d="M695.148 535.29l52.745 76.077-40.143-98.99L551.536 390.5z"/><path fill="#0061d1" fill-opacity=".729" d="M195.703 470.008l-19.106 123.626 15.029-26.772 126.459 61.325z"/><path fill="#0054a7" fill-opacity=".612" d="M700.228 627.185l36.208-51.183-11.502-23.286-27.067 12.52z"/><path fill="#00063d" fill-opacity=".416" d="M292.273 376.986l-51.932 58.893-3.414-30 44.1-18.35z"/><path fill="#bfc3df" fill-opacity=".561" d="M114.83 439.955l77.009-70.778-13.596 221.62-67.653-23.09z"/><path fill="#001777" fill-opacity=".502" d="M420.515 411.972l80.033 8.365-63.204-103.218-24.88 64.614z"/><path fill="#0043ba" fill-opacity=".702" d="M554.047 1021.344l-20.234 13.161-29.946-67.432-177.794 14.905z"/><path fill="#061746" fill-opacity=".91" d="M239.885 970.994l-17.028-162.796-84.343 177.725 85.942 42.603z"/><path fill="#0f0f21" fill-opacity=".333" d="M402.142 1010.972l177.756-3.277-21.784-34.787-49.425 45.324z"/><path fill="#221511" fill-opacity=".992" d="M316.236 205.091l-17.577 5.856 1.865 15.724 100.355-18.299z"/><path fill="#36404c" fill-opacity=".588" d="M614.56 562.604l-36.85 260.085-.809-246.415-77.309-44.6z"/><path fill="#a09a9d" fill-opacity=".357" d="M611.303 683.97l-19.982 61.613 53.299 231.551-36.967-214.107z"/><path fill="#212126" fill-opacity=".875" d="M422.81 25.958l-299.4 60.496 149.99 7.874L341.408-62z"/><path fill="#4f4134" fill-opacity=".969" d="M464.894 190.012l-68.086-167.62 72.176 30.943-42.106 182.045z"/><path fill="#31635c" fill-opacity=".2" d="M874.04 178.677l14.452-90.147-454.645 9.027 63.05 97.525z"/><path fill="#003bad" fill-opacity=".631" d="M195.244 584.105l62.278 235.418 65.537-98.782 93.89-127.884z"/><path fill="#0d1d5a" fill-opacity=".329" d="M37.49 495.073l-27.74 11.26L-62 878.2l90.04 23.113z"/><path fill="#c9c6e7" fill-opacity=".275" d="M663.123 560.572l54.736-29.832-54.562 48.112-163.732-68.904z"/><path fill="#13261c" fill-opacity=".408" d="M59.305 165.818l167.512-.054 54.115 42.71-302.02-.742z"/><path fill="#191416" fill-opacity=".569" d="M206.682 833.414l10.262-94.184 6.759 4.926 16.24 101.842z"/><path fill="#cecde2" fill-opacity=".341" d="M123.95 600.35l-59.14 449.126-13.24-74.596 85.477 55.346z"/><path fill="#00183b" fill-opacity=".686" d="M462.53 54.873l191.709 3.94 10.568-77.539-277.73 16.072z"/><path fill="#af6b52" fill-opacity=".329" d="M298.04 389.711l124.429-3.782-60.48-37.896-85.536-46.301z"/><path fill="#f8fbfa" fill-opacity=".337" d="M730.533 570.691l25.162 107.15 47.231 162.303-16.314-103.386z"/><path fill="#ab807a" fill-opacity=".6" d="M350.254 225.298l-43.509 61.51L271.026 86.84l8.766 158.177z"/><path fill="#0065d2" fill-opacity=".725" d="M369.812 448.725l33.72-27.637 6.565 168.11-88.733 3.91z"/><path fill="#c3c8e0" fill-opacity=".38" d="M210.553 794.011l-27.378 83.428L122.9 998.23l65.324-221.284z"/><path fill="#b6bed4" fill-opacity=".937" d="M676.846 454.242l13.146 51.937 19.635 39.907-100-160.282z"/><path fill="#ecf8ff" fill-opacity=".255" d="M229.624 778.744l31.154 28.97-29.395 44.655 34.23 60.566z"/><path fill="#000e57" fill-opacity=".757" d="M441.714 879.46l44.01-197.002 42.11 207.154-140.303 18.398z"/><path fill="#9a7779" fill-opacity=".969" d="M-46.951 1086H89.106l53.319-86.03-53.389 1.77z"/><path fill="#020215" fill-opacity=".643" d="M262.866 1086l-93.62-138.143-33.193 66.158L154.88 1086z"/><path fill="#00013b" fill-opacity=".392" d="M485.675 675.092l-91.207-19.425 109.789-77.286-17.783 283.379z"/><path fill="#af7c6e" fill-opacity=".82" d="M327.76 43.59l57.846 49.722-101.812-3.332 3.61-21.01z"/><path fill="#03020f" fill-opacity=".729" d="M129.19 588.079L59.707 495.5l-22.976-13.094 17.306 347.015z"/><path fill="#362417" fill-opacity=".565" d="M406.077 294.677L358.215 161.83l94.62 48.232-144.871 46.908z"/><path fill="#9ea7cd" fill-opacity=".984" d="M204.357 640.237l20.28 82.746L177.59 562.42l-69.423-70.452z"/><path fill="#927f72" fill-opacity=".961" d="M312.16 202.363l-9.227-3.496 5.723-5.352 39.031 7.392z"/><path fill="#000038" fill-opacity=".498" d="M346.962 919.088l167.032 18.428 9.382-26.284-211.215 36.162z"/><path fill="#62688b" fill-opacity=".243" d="M619.807 397.31l-44.41 57.131 67.587 161.56 59.421-42.74z"/></svg>