<svg xmlns="http://www.w3.org/2000/svg" width="228" height="278" viewBox="0 0 836 1024"><path fill="#535c60" d="M0 0h836v1024H0z"/><path fill="#c2dcf5" fill-opacity=".675" d="M489.538 249.767l-117.79 451.53 271.386-231.619-15.686-146.65z"/><path fill="#93b2d8" fill-opacity=".961" d="M333.255 694.19l74.588 202.982L710.389 1086h-488.53z"/><path fill="#080000" fill-opacity=".592" d="M-62 19.344l579.438 167.112 367.513 558.316L898-62z"/><path fill="#c09780" fill-opacity=".996" d="M30.897 401.744L429.794 675.02l83.713-53.247-447.932-279.02z"/><path fill="#ced765" fill-opacity=".702" d="M645.873 676.94l61.365-70.358 190.406 259.132-77.813 207.9z"/><path fill="#0066db" fill-opacity=".369" d="M291.583 886.92L732.967 1086l-4.351-132-87.701-448.614z"/><path fill="#2d2b2a" fill-opacity=".973" d="M-22.205-26.451l432.278 1.066-219.388 354.169-215.17 18.862z"/><path fill="#0f0b0a" fill-opacity=".576" d="M273.131 763.772l47.616-160.208L-62 577.396l29.415 197.559z"/><path fill="#658db7" fill-opacity=".996" d="M376.438 552.643l-93.702-48.558-88.416-189.537 97.778-102.42z"/><path fill="#ffc599" fill-opacity=".282" d="M430.71 154.198l-79.802-48.424-147.984 203.54 355.164 32.175z"/><path fill="#0e0f00" fill-opacity=".314" d="M492.455 855.45L353.822 660.873l220.024-71.316 99.323 129.611z"/><path fill="#dbcac2" fill-opacity=".976" d="M245.341 1086l7.858-145.385 20.195-66.874 175.048 162.19z"/><path fill="#181718" fill-opacity=".729" d="M898 62.275L672.109 666.439l-21.83-131.806-33.043-391.4z"/><path fill="#3164a3" fill-opacity=".576" d="M201.993 462.934L467.198 303.96l52.93 85.533L361.28 529.876z"/><path fill="#696512" fill-opacity=".518" d="M408.746 659.077L184.114 497.453l-206.93-131.201-23.146 195.876z"/><path fill="#579dfc" fill-opacity=".451" d="M733.254 887.077l-34.251-112.234-219.61 108.31 116.269 63.018z"/><path fill="#16181c" fill-opacity=".918" d="M679.228 359.123L898 202.073 475.544 141.02l13.31 100.117z"/><path fill="#ffc1c0" fill-opacity=".439" d="M724.047 772.32l104.515-207.299-94.399 63.93L835.13 829.835z"/><path fill="#170d00" fill-opacity=".686" d="M858.694 620.245l-92.565 57.91 35.349 72.384L898 737.669z"/><path fill="#63bbff" fill-opacity=".478" d="M496.07 227.155L419.073 364.07l215.663-18.966 25.68 395.642z"/><path fill="#e6ae91" fill-opacity=".804" d="M287.721 561.572l-110.016-71.526L529.8 575.173l-49.059 75.5z"/><path fill="#b0cdf8" fill-opacity=".259" d="M75.794 961.942l-95.942-58.368 340.574-45.082 96.325 86.05z"/><path fill="#5b7412" fill-opacity=".631" d="M127.608 375.843L-62 347.355l253.921-24.288L276.196 507.1z"/><path fill="#b2e0ff" fill-opacity=".667" d="M429.163 497.022l117.069 79.263 44.457-82.402-107.48-71.588z"/><path fill="#493224" fill-opacity=".851" d="M389.679 234.054l10.162-7.622-211.82-26.55 238.834-6.047z"/><path fill="#eab5a0" fill-opacity=".651" d="M149.681 372.844l47.26 77.35L435.2 604.588 6.809 373.674z"/><path fill="#78c2fa" fill-opacity=".584" d="M470.514 1053.354L338.925 911.206 765.352 1086l-53.74-102.744z"/><path fill="#b5ff3a" fill-opacity=".333" d="M755.923 605.08l-91.23 7.171-1.137 69.873 94.98 300.17z"/><path fill="#3c72bb" fill-opacity=".463" d="M325.844 630.26l65.34 45.819 63.285 257.41-149.63-65.205z"/><path fill="#ffa275" fill-opacity=".329" d="M370.95 143.07l-124.256 36.634 227.338 35.775 12.962-50.036z"/><path fill="#a7e1ff" fill-opacity=".353" d="M285.526 380.893l30.014-9.336-23.636-177.277-100.1 123.576z"/><path fill="#a5e0fd" fill-opacity=".612" d="M626.136 424.908L436.899 214.376l107.486 62.205 81.713 58.026z"/><path fill="#282428" fill-opacity=".667" d="M252.056 951.387L237.888 1086-62 959.15 23.83 1086z"/><path fill="#6b4630" fill-opacity=".643" d="M369.331 262.097l69.558 58.192-44.748 54.083-94.386-37.967z"/><path fill="#624b46" fill-opacity=".996" d="M401.39 451.998l25.018 49.896 33.292-75.702-19.584-3.491z"/><path fill="#012a3f" fill-opacity=".541" d="M541.197 659.551l82.28-154.403-35.029-4.74-119.7 209.912z"/><path fill="#3f6ea8" fill-opacity=".984" d="M404.797 444.986l18.247 73.984-116.801 3.632-81.887-168.227z"/><path fill="#47464a" fill-opacity=".702" d="M92.653 154.588L134.388-62l83.455 255.496 123.28 63.319z"/><path fill="#ffbb91" fill-opacity=".251" d="M544.362 273.174L414.16 551.366l33.287 153.13L567.504 359.68z"/><path fill="#44444b" fill-opacity=".71" d="M310.808 810.57L2.726 889.146-62 739.792l376.694 10.52z"/><path fill="#254a71" fill-opacity=".62" d="M665.613 890.81l-274.436-59.413-2.57-183.872 151.207 275.25z"/><path fill="#513b36" fill-opacity=".38" d="M894.985 260.344l-144.141 83.31-72.959 314.688 142.596-72.598z"/><path fill="#211f1e" fill-opacity=".553" d="M-62 84.643L282.523 468.01l-64.53-19.592-27.395-225.073z"/><path fill="#0c1617" fill-opacity=".318" d="M-21.254 54.021l-34.517 680.124 376.47-1.19L63.207 598.622z"/><path fill="#68a9fe" fill-opacity=".498" d="M669.993 925.646l-84.828 18.616 127.675-135.09 8.845 57.845z"/><path fill="#74491b" fill-opacity=".494" d="M529.098 709.485l-143.484 4.459-.378-36.964L203.57 538.724z"/><path fill="#558eda" fill-opacity=".635" d="M369.66 492.494l122.715-191.423-12.155 112.005-221.672 39.262z"/><path fill="#626033" fill-opacity=".31" d="M821.51 1086L684.989 948.332 898 733.694 787.512 914.897z"/><path fill="#7d9b2e" fill-opacity=".537" d="M-11.367 349.89L88.984 527.577l148.9 44.492-102.018-76.67z"/><path fill="#fdabd8" fill-opacity=".224" d="M850.582 836.48L729.22 582.002l90.923 29.417-77.07 144.342z"/><path fill="#ff9c72" fill-opacity=".302" d="M390.696 293.356l103.095-97.284-214.482 49.993 4.596-39.953z"/><path fill="#1f1b1e" fill-opacity=".706" d="M211.472 69.834l63.157-49.322 3.158 210.053-56.547 38.5z"/><path fill="#11365b" fill-opacity=".533" d="M419.984 394.068l-36.864 35.09-146.92-69.133-24.407 35.979z"/><path fill="#d08d64" fill-opacity=".451" d="M440.19 512.971l96.826 65.907-55.646 78.52-102.72 2.851z"/><path fill="#383632" fill-opacity=".427" d="M449.713 209.835L160.673-62 898-15.42 280.535 234.32z"/><path fill="#60bfff" fill-opacity=".4" d="M553.522 549.001l-59.004-18.508 109.455-197.826 31.55 116.915z"/><path fill="#000002" fill-opacity=".165" d="M505.685 590.024l11.143-42.459 144.591 158.893 48.432 143.725z"/><path fill="#e3f4ff" fill-opacity=".624" d="M525.71 452.636l-61.265-9.177-33.28 55.255 88.343 1.213z"/><path fill="#363e3f" fill-opacity=".988" d="M756.665 971.827l16.975 95.962-48.634-70.7-17.167-65.405z"/><path fill="#4a7cb6" fill-opacity=".839" d="M413.996 899.05l171.271 35.993-96.338 22.465 366.002 122.444z"/><path fill="#092c40" fill-opacity=".275" d="M507.59 409.917l-11.25-37.648 30.31 13.05 44.655 40.443z"/><path fill="#81baed" fill-opacity=".431" d="M349.059 892.138l-99.385 53.951 99.398-252.365-32.525-50.03z"/><path fill="#5b3a0b" fill-opacity=".176" d="M192.866 574.462L106.093 405.46l285.673 91.7-227.83-34.636z"/><path fill="#fda162" fill-opacity=".271" d="M396.88 970.33l-61.586-29.453L323.554 1086l142.942-49.096z"/><path fill="#052549" fill-opacity=".522" d="M636.931 946.713l-176.507-8.288 229.862 34.401-2.25-10.03z"/><path fill="#61a6e8" fill-opacity=".404" d="M646.087 422.225l3.606 267.387-87.65-113.49 59.036 63.711z"/><path fill="#ffcab5" fill-opacity=".431" d="M283.505 560.992l177.444-37.32-14.476 63.212-276.949-120.509z"/><path fill="#19191f" fill-opacity=".69" d="M794.348 467.283L663.887 324.62l-31.163 97.12 33.278 106.148z"/><path fill="#544f51" fill-opacity=".49" d="M255.58 891.29l64.323-106.74 4.887-167.856-56.852-24.715z"/><path fill="#ffdfd3" fill-opacity=".737" d="M330.62 1043.675l-85.115-5.339 13.755-83.031 81.74-5.929z"/><path fill="#ffdcce" fill-opacity=".467" d="M32.734 381.097l30.433-13.955 60.136 4.734 54.707 37.393z"/><path fill="#6f8c26" fill-opacity=".482" d="M199.733 464.209L166.07 349.396l-184.956 38.37L97.92 298.86z"/><path fill="#c27108" fill-opacity=".278" d="M825.105 758.142L898 818.255 734.616 713.13l29.587-54.354z"/><path fill="#c1ecfa" fill-opacity=".506" d="M228.144 272.06l-27.408 37.39 106.198-47.126-22.893-35.215z"/><path fill="#001029" fill-opacity=".525" d="M458.673 261.563l3.117 25.4 41.072-125.574-42.362 93.619z"/><path fill="#9b787a" fill-opacity=".282" d="M44.155 864.796l142.227 32.944L73.349 1086 32.697 920.025z"/><path fill="#abc6d9" fill-opacity=".765" d="M704.582 995.898l91.813 69.089 23.117 11.412-135.927-70.417z"/><path fill="#57a1e9" fill-opacity=".639" d="M214.098 358.835l95.204 12.01 4.488-62.043-111.38 15.591z"/><path fill="#a6e545" fill-opacity=".357" d="M718.716 849.04l5.26 101.31 70.837-60.665L685.265 645z"/><path fill="#85c7e2" fill-opacity=".525" d="M718.663 803.261l-10.756-12.218 8.499 41.882-71.626-167.939z"/><path fill="#a18365" fill-opacity=".565" d="M359.863 368.125l-90.32-198.969 23.085-5.791 37.12 206.35z"/><path fill="#b89da3" fill-opacity=".498" d="M527.174 281.726l-35.68 154.496 55.582 21.908-84.39-154.055z"/><path fill="#6597d6" fill-opacity=".706" d="M368.13 374.303l-102.46 28.71 61.319 27.477-79.087-80.053z"/><path fill="#ffaca7" fill-opacity=".314" d="M879.314 780.793l-112.616 53.574-52.01-150.905 92.903 69.387z"/><path fill="#111212" fill-opacity=".627" d="M80.795-62L-32.864-32.09-62 224.34l106.599-93.413z"/><path fill="#ace5fa" fill-opacity=".329" d="M737.56 640.857l52.23 27.338 17.237-56.057-48.673 10.523z"/><path fill="#221d05" fill-opacity=".357" d="M310.647 317.129l68.5 61.338 50.842-40.646-117.985 14.63z"/><path fill="#fbbea0" fill-opacity=".173" d="M491.203 188.263l-51.277 97.047-13.191-153.606-195.52 58.295z"/><path fill="#91d7ff" fill-opacity=".459" d="M334.604 943.417l135.083 32.3-98.71-83.247-140.608 76.432z"/><path fill="#6cb6ff" fill-opacity=".478" d="M484.867 300.592l-65.73 57.157 67.061-113.969-19.834-16.605z"/><path fill="#153e5f" fill-opacity=".451" d="M624.357 827.95l-40.217 27.9-27.635-8.82-58.258-168.556z"/><path fill="#5583b6" fill-opacity=".6" d="M314.594 638.696l152.269 89.742-115.181-52.252 25.732 195.227z"/><path fill="#543f3b" fill-opacity=".604" d="M657.1 574.186l102.068-76.718 68.704 95.48L653.5 613.046z"/><path fill="#1b1c22" fill-opacity=".973" d="M473.322 231.743l127.5 72.801 133.297 194.247-184.17-404.695z"/><path fill="#3e7ef1" fill-opacity=".325" d="M493.222 833.08l112.611 110.987-176.913-76.681 143.303-10.09z"/><path fill="#caffff" fill-opacity=".4" d="M546.254 317.335l-3.881-38.113 78.508 43.704-1.528 42.993z"/><path fill="#02214c" fill-opacity=".42" d="M386.479 429.48l-119.514-3.53 106.421-12.98 83.333-62.255z"/><path fill="#2a2626" fill-opacity=".51" d="M189.996 354.641L315.312 23.125l254.224 50.564-455.924 136.077z"/><path fill="#e1b7a9" fill-opacity=".545" d="M353.73 204.929l-13.124 61.592-78.218 4.096 109.51-6.258z"/><path fill="#a77f6b" fill-opacity=".514" d="M482.97 195.32l-17.714-58.914-54.928 92.583-16.807 117.89z"/><path fill="#3d4134" fill-opacity=".631" d="M-30.117 624.51l358.061-1.75L42.79 567.512-3.995 225.454z"/><path fill="#787e85" fill-opacity=".467" d="M898 1086l-443.801-64.674 326.24 21.9-31.445-141.575z"/><path fill="#092a83" fill-opacity=".424" d="M358.319 886.184l-4.897-14.356 143.52 70.743-63.611-21.657z"/><path fill="#184d6d" fill-opacity=".549" d="M612.45 1003.621L779.734 1086l-213.847-89.628 106.057-8.74z"/><path fill="#81b9ff" fill-opacity=".337" d="M303.176 422.6l16.358-1.513 48.34-11.925-113.73-9.538z"/><path fill="#2a69a5" fill-opacity=".459" d="M509.774 732.72l-70.97-4.985 163.283-61.231-72.772 6.363z"/><path fill="#ff9bb1" fill-opacity=".337" d="M22.939 382.418L71.83 431.68l68.23 54.662-65.023-106.21z"/><path fill="#1b0503" fill-opacity=".176" d="M120.77 996.58l243.518-92.911-153.438 46.08 47.36 109.82z"/><path fill="#271200" fill-opacity=".42" d="M337.504 202.603l-46.376 16.118 102.578 1.343 31.978-33.853z"/><path fill="#89c3eb" fill-opacity=".694" d="M637.208 502.621l15.057-15.595-49.313-153.724-4.247-18.062z"/><path fill="#122322" fill-opacity=".475" d="M487.895 710.738l-67.083-15.355 174.305-84.108-44.92-34.31z"/><path fill="#265491" fill-opacity=".455" d="M415.93 547.318l-126.012-32.28-9-43.08 112.529 8.51z"/><path fill="#22496e" fill-opacity=".725" d="M505.85 837.78l-159.66-82.394L459.5 866.478 339.874 698.061z"/><path fill="#0c0e0f" fill-opacity=".627" d="M788.239 697.774L898 422.997l-18.126 380.576L898 833.903z"/><path fill="#5395f2" fill-opacity=".404" d="M629.807 819.728l-16.478 64.614-128.058-45.482 225.867 22.354z"/><path fill="#b06b51" fill-opacity=".341" d="M470.446 626.156l-272.658-99.47 246.16 159.585-21.01-74.26z"/><path fill="#6b94ae" fill-opacity=".706" d="M697.6 974.724l20.283 10.205-14.505-47.115L637.213 1086z"/><path fill="#d9cecd" fill-opacity=".51" d="M204.075 322.773l35.392-64.01 34.204 40.406-39.23 23.455z"/><path fill="#5c382c" fill-opacity=".647" d="M344.466 267.4l-2.383-3.715 24.202 117.467 16.745-113.62z"/><path fill="#569fff" fill-opacity=".357" d="M493.779 455.555l-75.823-51.925-5.162 2.557 78.013-67.495z"/></svg>