<svg xmlns="http://www.w3.org/2000/svg" width="228" height="278" viewBox="0 0 836 1024"><path fill="#864b46" d="M0 0h836v1024H0z"/><path fill="#630109" fill-opacity=".733" d="M765.185 505.04L632.18 978.857 223.348 929.86l438.026-579.108z"/><path fill="#d6ae87" fill-opacity=".702" d="M898 611.535L741.464 471.968l-56.133-279.634 44.762-111.118z"/><path fill="#a4bace" fill-opacity=".635" d="M438.053-62L431.15 44.982 86.1 99.061 627.9 133.9z"/><path fill="#f4fefc" fill-opacity=".82" d="M898 954.592l-153.862-47.105 41.37-68.609L898 851.737z"/><path fill="#b97780" fill-opacity=".973" d="M312.3 384.582l116.612 67.336-292.68-6.955L175.666-11.95z"/><path fill="#f1ff9e" fill-opacity=".333" d="M263.191 675.12l22.228 132.425L320.333 1086-62 1065.28z"/><path fill="#001706" fill-opacity=".565" d="M245.385 152.11l223.93-29.287-52.847 274.96-82.044 10.138z"/><path fill="#f6da70" fill-opacity=".675" d="M-62 845.821V577.173l183.916 17.364-88.807 220.949z"/><path fill="#6b0008" fill-opacity=".655" d="M731.875 533.207l-482.657 98.001L73.52 905.436l77.783-479.315z"/><path fill="#f4f9ff" fill-opacity=".588" d="M457.813 318.89l24.647-177.727 3.849 194.463-142.002 178.988z"/><path fill="#b7a9ab" fill-opacity=".729" d="M269.474 676.009l317.57-32.417-38.767-82.738L446.294 687.15z"/><path fill="#e1d2b8" fill-opacity=".525" d="M720.343 759.132l-21.846-202.375 90.374 61.997-11.604 185.367z"/><path fill="#ff2443" fill-opacity=".569" d="M715.824 1086l-527.97-10.295 69.318-112.704 448.513-28.005z"/><path fill="#003d71" fill-opacity=".318" d="M5.647 34.828L494.61-62 182.577 137.878 86.944 468.232z"/><path fill="#fe1130" fill-opacity=".42" d="M730.068 360.35l-74.6-42.862-158.673-34.284-89.399 273.562z"/><path fill="#fd294a" fill-opacity=".38" d="M84.824 478.517l161.178-133.61L438.236 538.92l-172.339 23.172z"/><path fill="#d4d2da" fill-opacity=".729" d="M731.907 433.24L898 360.147 769.937 591.942l99.149-89.156z"/><path fill="#052d28" fill-opacity=".341" d="M302.842 959.157l-214.44-80.083L-62 1008.82l192.68-361.706z"/><path fill="#001f17" fill-opacity=".51" d="M898 925.742v-344.92L781.45 559.35l9.219 241.127z"/><path fill="#8c93a6" fill-opacity=".431" d="M104.817 506.293L156.39 36.917 301.37-62l-10.804 222.524z"/><path fill="#79030e" fill-opacity=".686" d="M737.737 906.454l6.626 138.91-337.319-382.016 308.789 52.92z"/><path fill="#ffb086" fill-opacity=".353" d="M421.123 262.585l69.025-65.002 290.068 157.115-171.094 7.152z"/><path fill="#f1d26c" fill-opacity=".553" d="M103.143 890.75l125.752 69.372L135.86 1086 1.813 944.006z"/><path fill="#302730" fill-opacity=".737" d="M718.508-30.358L898 34.742l-77.411 125.515L711.974 37.2z"/><path fill="#edf6ff" fill-opacity=".541" d="M394.864 447.297l-125.166-99.469 64.847 99.292 143.7-94.274z"/><path fill="#f1f6f6" fill-opacity=".698" d="M685.26 1012.088L776.911 1086l-191.168-71.204 58.8-8.777z"/><path fill="#510003" fill-opacity=".643" d="M767.272 838.889l-437.175 13.17-88.267-254.192 80.74 93.764z"/><path fill="#a07c4e" fill-opacity=".584" d="M662.805-62L570.23 29.855l-22.21 94.915L898 469.374z"/><path fill="#2f0000" fill-opacity=".588" d="M594.845 486.499l-22.392 123.588L757.172 579.9l63.315-74.784z"/><path fill="#a2a19e" fill-opacity=".604" d="M218.874 687.59l27.318-63.079 48.896 217.807-145.246-33.85z"/><path fill="#dae5fb" fill-opacity=".486" d="M293.34 501.43l-61.736 61.372 57.929 3.757-1.822-63.506z"/><path fill="#282a26" fill-opacity=".855" d="M285.921 47.509L418.93 58.048l20.558-23.658-105.254-48.982z"/><path fill="#f9ffae" fill-opacity=".282" d="M526.797 680.812l-17.373-220.46 42.571-18.768 19.618 165.16z"/><path fill="#260600" fill-opacity=".647" d="M252.573 605.998l-143.77 271.994L164.57 569.9l88.298 42.671z"/><path fill="#ecf8e2" fill-opacity=".478" d="M102.923 714.484l-37.351-35.936-3.655-10.331 99.378 42.955z"/><path fill="#95dded" fill-opacity=".231" d="M467.213 623.614l-201.27 33.33 12.156-50.76 300.5-27.058z"/><path fill="#7a0b15" fill-opacity=".765" d="M472.403 536.492l54.714 164.891-26.338-254.807-328.017 57.73z"/><path fill="#351c1a" fill-opacity=".671" d="M15.923 28.332l-54.878 33.034 151.842 74.15L94.98 384.108z"/><path fill="#dabcd3" fill-opacity=".765" d="M113.001 504.427L100 614.709l2.263 1.206 22.392-34.171z"/><path fill="#9eb8fc" fill-opacity=".459" d="M522.806 131.816l19.879-105.003L455.87 37.1l13.568 134.85z"/><path fill="#0641ff" fill-opacity=".349" d="M79.998-62l108.29 144.636 64.128-5.401L241.23-62z"/><path fill="#700001" fill-opacity=".592" d="M732.895 388.571l13.345 62.537-158.236 54.837-62.227-118.622z"/><path fill="#a097a5" fill-opacity=".565" d="M-62 57.753v141.67L19.614 356 37.5 162.875z"/><path fill="#e2d6de" fill-opacity=".694" d="M465.144 371.101l-76.085 89.865-20.447-3.384-29.427-15.896z"/><path fill="#e1c300" fill-opacity=".427" d="M222.508 1086l-60.909-64.788-32.805-117.456 90.84-.594z"/><path fill="#775e56" fill-opacity=".957" d="M355.675 229.45L241.963 357.445l85.92-154.494 17.516 2.006z"/><path fill="#0c0c07" fill-opacity=".506" d="M381.093 428.13l65.528-82.817-15.85-88.346-135.513 102.852z"/><path fill="#820310" fill-opacity=".392" d="M553.28 997.727l137.989-196.232-474.964 82.854 177.688 105.66z"/><path fill="#7f756a" fill-opacity=".812" d="M809.458 946.063l77.023-152.609L824.26 1086l-93.33-130.636z"/><path fill="#ff475f" fill-opacity=".773" d="M238.261 1010.558l59.442-75.924 119.576 56.528-139.354 23.597z"/><path fill="#1e2d34" fill-opacity=".545" d="M19.6 511.664L-62 565.521V363.777l126.493 37.367z"/><path fill="#ff394c" fill-opacity=".698" d="M707.93 953.75l-246.147 18.612 10.305-3.615 221.626-42.261z"/><path fill="#454956" fill-opacity=".549" d="M215.054 869.53l38.89-57.044 33.348 110.469-48.675 83.661z"/><path fill="#ab9ca1" fill-opacity=".525" d="M368.597 655.798l-92.623 44.294 94.494-4.405 116.301-53.939z"/><path fill="#edc73d" fill-opacity=".902" d="M59.258 732.598L-62 750.16l98.567-126.554 56.923 6.972z"/><path fill="#edf4ff" fill-opacity=".553" d="M496.703 247.35l-2.192 29.69-44.514-22.402 15.638 115.902z"/><path fill="#440103" fill-opacity=".878" d="M611.122 692.141l-275.155 74.251-31.216 101.316 173.342-46.299z"/><path fill="#350000" fill-opacity=".404" d="M606.944 509.002l-364.822 58.04 443.809 10.596.851-177.95z"/><path fill="#9a0111" fill-opacity=".549" d="M135.808 501.618L97.006 699.692l191.692-283.005 74.7 30.843z"/><path fill="#c4c7c6" fill-opacity=".894" d="M567.045 629.859l-32.171 29.787-14.635-40.652 48.576-49.602z"/><path fill="#45181a" fill-opacity=".671" d="M473.486 637.175l33.867-1.633-147.428-2.373-109.21 47.152z"/><path fill="#ff4c63" fill-opacity=".482" d="M281.374 305.614l19.713 169.541-11.03-18.546-163.072-.462z"/><path fill="#928fb2" fill-opacity=".431" d="M75.806 824.109l-76.91 28.718-12.64-102.496 68.844-1.347z"/><path fill="#910d1c" fill-opacity=".557" d="M308.855 702.716l-40.511-80.81 27.817 207.189 231.238-165.78z"/><path fill="#ce283d" fill-opacity=".522" d="M309.561 870.424l194.88-14.9-66.535 35.487-142.98 18.065z"/><path fill="#3b0001" fill-opacity=".714" d="M661.875 874.385L522.4 858.187 355.285 951.76l-70.251-30.207z"/><path fill="#af1d30" fill-opacity=".851" d="M502.077 291.588l-47.335 96.645-72.74 82.205 224.728-39.465z"/><path fill="#627159" fill-opacity=".376" d="M476.717 253.283l233.047-97.439-439.93-27.517 188.55-65.89z"/><path fill="#f6f6ff" fill-opacity=".259" d="M228.14 59.077l18.484-101.422 21.874 180.583L342.383 58.3z"/><path fill="#fff08f" fill-opacity=".388" d="M799.835 396.354l-135.707-91.138 147.907 170.86-95.949-11.43z"/><path fill="#906d67" fill-opacity=".525" d="M188.868 335.911L-37.03 581.49l-.182 42.044L77.25 602.526z"/><path fill="#2d1b03" fill-opacity=".514" d="M62.527 911.506l-87.994 51.607 171.009-239.82 23.467 61.714z"/><path fill="#d1af8b" fill-opacity=".396" d="M689.919 541.946l114.577 107.816-39.848 91.51-41.927-16.902z"/><path fill="#fafab8" fill-opacity=".337" d="M468.685 92.582L384.64-18.88 286.61 5.98l165.648-2.52z"/><path fill="#372818" fill-opacity=".765" d="M391.418 270.1l96.364-83.624-92.652-63.585-98.967 3.409z"/><path fill="#d24922" fill-opacity=".192" d="M-62 191.625L84.309 15.577l156.754 134.83L-62 167.273z"/><path fill="#b996a2" fill-opacity=".416" d="M-10.042 966.14l117.56 39.346 44.643-120.43-35.985-23.798z"/><path fill="#f3f4f3" fill-opacity=".961" d="M870.804 868.924l-99.22 39.904-1.085-64.965 29.901-7.893z"/><path fill="#af0215" fill-opacity=".506" d="M786.352 556.711l34.772-71.493-134.753 41.995 19.744-23.154z"/><path fill="#efedf4" fill-opacity=".714" d="M304.445 412.944l-17.167-38.093-.665-38.98 6.52-24.182z"/><path fill="#1c150b" fill-opacity=".871" d="M898 672.554l-139.168-78.18 59.003-19.868L898 871.014z"/><path fill="#720609" fill-opacity=".529" d="M647.569 992.916L459.856 1086l-301.883-8.504 362.416-54.765z"/><path fill="#3d4b6f" fill-opacity=".431" d="M743.004 874.79L898 719.31l-66.718 65.61-115.696-20.027z"/><path fill="#5b4939" fill-opacity=".733" d="M832.267-4.683l50.201 359.725-104.278-84.416 10.031 18.786z"/><path fill="#6c869f" fill-opacity=".345" d="M473.715-62l45.1 131.9-74.175 184.328L605.75 54.309z"/><path fill="#bfccdd" fill-opacity=".455" d="M898 455.492L786.14 591.51l-11.619-27.219 117.903-105.596z"/><path fill="#710710" fill-opacity=".804" d="M188.544 571.637l26.861 39.057 166.179-.14 58.913-59.968z"/><path fill="#6f5940" fill-opacity=".592" d="M413.894 303.119l-106.336-6.462-66.046-119.226 14.43 144.408z"/><path fill="#ebf0f5" fill-opacity=".514" d="M387.198 426.873l30.934-47.466-31.184 92.261-95.431-73.47z"/><path fill="#873143" fill-opacity=".478" d="M657.855 146.811l-82.927 130.956 27.354 34.796 115.686-47.936z"/><path fill="#2a0000" fill-opacity=".565" d="M699.456 602.734l-24.247-93.915-30.974-15.222 81.969 330.75z"/><path fill="#d89f3b" fill-opacity=".447" d="M668.95 275.806l27.904.742 113.426 61.924-91.256 50.888z"/><path fill="#fca636" fill-opacity=".518" d="M553.481 492.893l-18.15 49.035-19.96-90.206 42.28-9.897z"/><path fill="#bdb8bc" fill-opacity=".212" d="M198.503 697.71L171.14 864.552 333.544 733.48 105.16 717.151z"/><path fill="#ff1248" fill-opacity=".294" d="M732.514 375.533l-60.108-38.37-179.163-20.515 262.046 113.725z"/><path fill="#8a7479" fill-opacity=".757" d="M164.858-62L88.574 40.7l-41.812-3.717L-44.793-62z"/><path fill="#ff9b93" fill-opacity=".357" d="M250.228 354.94L122.464 456.083 110.47 565.297l78.068-282.45z"/><path fill="#b97771" fill-opacity=".471" d="M806.726 215.49L753.99 93.67l-84.314 22.307 46.024 166.06z"/><path fill="#c7d9d5" fill-opacity=".494" d="M507.02 658.043l-20.648-66.606-175.23 34.84 179.682-39.605z"/><path fill="#ff819b" fill-opacity=".545" d="M486.29 284.362l237.374 77.8-56.566-38.564-142.438-37.335z"/><path fill="#d42032" fill-opacity=".592" d="M452.966 932.212l-61.612.915 83.856-24.604 48.443 25.848z"/><path fill="#f33246" fill-opacity=".824" d="M453.912 971.336l-170.795-15.923 89.525-4.869 148.944 16.93z"/><path fill="#981c29" fill-opacity=".635" d="M573.768 790.983l116.484-186.43-126.984 158.984-120.968 24.13z"/><path fill="#a99528" fill-opacity=".478" d="M660.752-62L584.625 64.802l28.121 76.865 65.58-56.066z"/><path fill="#2b1e17" fill-opacity=".463" d="M815.92 563.493l-30.63 239.33L898 522.921l-33.417-78.841z"/><path fill="#0e1602" fill-opacity=".459" d="M82.706 697.085l76.15 52.303-61.937-.211-22.94 31.406z"/><path fill="#4a0000" fill-opacity=".682" d="M323.058 944.224l170.42 11.502 100.303-2.857-108.417-19.065z"/><path fill="#6d0004" fill-opacity=".49" d="M233.163 534.983l-33.882-61.877-88.99 44.38 180.33 160.366z"/><path fill="#f1e8ff" fill-opacity=".439" d="M85.324 661.61l34.91 40.385-1.279 2.195-47.263-13.1z"/><path fill="#780001" fill-opacity=".325" d="M415.65 976.737l263.44-20.657-296.376 66.819-13.48-5.714z"/><path fill="#aacdd8" fill-opacity=".506" d="M658.668 614.982l8.741-4.261-11.944 54.797-3.2-4.98z"/><path fill="#2f2123" fill-opacity=".478" d="M121.61 293.392l-31.977 89.806-44.749-147.15L66.98 42.37z"/><path fill="#180f00" fill-opacity=".553" d="M292.223 199.397l-47.87-20.15 95.956-24.978 104.698 51.769z"/><path fill="#272110" fill-opacity=".494" d="M751.335 1005.092l81.531 33.437L713.404 1086l14.868-155.693z"/><path fill="#715354" fill-opacity=".486" d="M21.586 255.866L-62 352.808l186.628 109.808 41.376-58.894z"/><path fill="#520002" fill-opacity=".694" d="M242.213 487.388l116.915-.32 99.3-11.374-99.839-7.719z"/><path fill="#aa8f92" fill-opacity=".882" d="M504.405 653.963l-2.312 2.42-167.47 35.557-36.965-22.783z"/><path fill="#312820" fill-opacity=".663" d="M450.647 251.727l-183.25-16.208 194.518 57.179-39.863 79.977z"/><path fill="#f2fffd" fill-opacity=".675" d="M575.994 1056.512l118.495-47.872-31.12 77.36-39.724-84.885z"/><path fill="#4a090d" fill-opacity=".792" d="M495.697 602.28l55.897 132.864-57.199-179.672 58.192 4.073z"/></svg>