<svg xmlns="http://www.w3.org/2000/svg" width="228" height="278" viewBox="0 0 836 1024"><path fill="#948b90" d="M0 0h836v1024H0z"/><path fill="#eaf2fc" fill-opacity=".576" d="M160.963 671.684l130.701-522.552 335.743 866.907-330.878 39.427z"/><path fill="#151600" fill-opacity=".455" d="M477.264 387.184L-62-6.162l925.649 47.974-327.174 192.742z"/><path fill="#c6c9d1" fill-opacity=".992" d="M590.674 423.96L110.21 279.576l173.095 448.392L898 680.795z"/><path fill="#882a33" fill-opacity=".961" d="M-25.672 1086h268.966l-2.853-237.896-299.472 12.882z"/><path fill="#870a15" fill-opacity=".725" d="M842.04 1028.711l-204 57.289-39.894-231.685L898 847.918z"/><path fill="#d1cfda" fill-opacity=".945" d="M61.683 493.498l382.708-122.832-210.318-119.808-270.666 199.514z"/><path fill="#021002" fill-opacity=".376" d="M222.965 598.424L28.28 690.499-62 512.98l255.862-19.991z"/><path fill="#6e6d6c" fill-opacity=".996" d="M172.17 109.328l102.949 131.316L-30.835 394.6l.761-336.662z"/><path fill="#367cd3" fill-opacity=".812" d="M-62 833.163l189.543 7.047-36.109-173.06-144.937 14.908z"/><path fill="#000106" fill-opacity=".639" d="M542.069 109.392L350.983 93.117l15.549-50.113L500.072-62z"/><path fill="#222821" fill-opacity=".49" d="M694.233 341.948l180.223-43.946L898 209.595l-287.804 51.139z"/><path fill="#b0b0be" fill-opacity=".984" d="M788.647 454.848l-153.218-57.66-147.296 618.872 65.744-815.02z"/><path fill="#432700" fill-opacity=".514" d="M779.592 432.502L898 630.634l-77.5-10.088-113.11-121.439z"/><path fill="#dcd9e2" fill-opacity=".882" d="M261.115 776.51l-21.798 198.096L282.63 1086l289.862-79.433z"/><path fill="#999a9b" fill-opacity=".631" d="M400.125-6.139L338 64.015 162.353 65.76l64-56.658z"/><path fill="#22180e" fill-opacity=".506" d="M576.626 384.77l-92.198-.755L556.687 64.81 402.073 352.616z"/><path fill="#6f747f" fill-opacity=".659" d="M260.752 772.375l-12.673 93.41L127.93 848.38 94.6 722.944z"/><path fill="#dce1e6" fill-opacity=".965" d="M586.471 689.303l37.12-228.06 80.166 42.858 183.264 188.525z"/><path fill="#6c706d" fill-opacity=".533" d="M512.141-62h309.613L898 255.326l-332.926 3.837z"/><path fill="#49516e" fill-opacity=".302" d="M632.963 1034.96L511.266 895.826l89.459-414.99-24.42 385.543z"/><path fill="#47443a" fill-opacity=".58" d="M41.404 559.945l-101.696-68.573L187.33 248.975l-223.399 42.424z"/><path fill="#d8d5dc" fill-opacity=".741" d="M380.892 648.52L355.65 839.308 81.785 675.534l198.734-90.059z"/><path fill="#577172" fill-opacity=".545" d="M571.004 390.95l-82.365-46.877-25.272 19.707 65.98 125.205z"/><path fill="#43433f" fill-opacity=".627" d="M235.52 479.57l-61.625-25.144L60.839 669.483 37.258 531.04z"/><path fill="#3db96c" fill-opacity=".322" d="M273.115 510.161l89.35-51.492 30.687 114.184-84.894 21.264z"/><path fill="#e6f2f0" fill-opacity=".302" d="M340.193 361.652L114.03 309.514l247.673-91.548-46.668-121.488z"/><path fill="#825d38" fill-opacity=".667" d="M358.183 312.436l42.552-214.592 77.205 3.738 30.275 138.553z"/><path fill="#211601" fill-opacity=".235" d="M471.23 192.584L368.778 209.13 609.48 66.95l.405 206.515z"/><path fill="#d7d1ca" fill-opacity=".18" d="M194.094 239.148l20.805-120.199-169.574 8.51-86.793 112.998z"/><path fill="#f9f2ff" fill-opacity=".278" d="M574.004 339.486l-.25-85.751 87.068 44.415-144.191 393.475z"/><path fill="#304656" fill-opacity=".302" d="M898 677.415L785.49 830.642l-168.036-9.974 120.02-46.649z"/><path fill="#012444" fill-opacity=".294" d="M648.578 441.73l35.148-50.743-83.005 52.671 179.158 105.44z"/><path fill="#84817f" fill-opacity=".992" d="M-62 145.979l50.185-197.897L47.032-62l1.843 96.283z"/><path fill="#010d16" fill-opacity=".259" d="M98.652-62l46.674 164.252-193.041 38.133 87.124-59.813z"/><path fill="#939395" fill-opacity=".478" d="M578.49 59.956L454.803-1.654 826.86-9.372l-86.3 52.479z"/><path fill="#005f21" fill-opacity=".427" d="M384.591 327.135l-76.217-44.944 76.686-69.576-36.366 5.4z"/><path fill="#dfe4ff" fill-opacity=".388" d="M738.718 478.396l-61.764 1.383 18.049-40.148 59.778-44.622z"/><path fill="#bab4a4" fill-opacity=".376" d="M136.676 776.17l55.729-230.42-84.04 56.44L253.87 769.1z"/><path fill="#cccad9" fill-opacity=".788" d="M505.429 367.234l138.975-9.23 38.453-27.402-85.121-63.728z"/><path fill="#888581" fill-opacity=".765" d="M806.14 210.07l-218.674 41.87 55.416-132.347 122.19-20.999z"/><path fill="#100a01" fill-opacity=".337" d="M707.007 485.26l77.54 41.688-28.072-134.93-12.57 137.06z"/><path fill="#341e02" fill-opacity=".482" d="M63.495 511.605l-116.864 94.647 71.3-117.257L-62 443.138z"/><path fill="#a2a2b3" fill-opacity=".922" d="M569.064 1061.813l-15-190.313 13.68-20.376 52.436 67.267z"/><path fill="#0c100f" fill-opacity=".353" d="M436.466 42.926l207.597-97.543-287.739 204.034-8.022-109.082z"/><path fill="#f6f4fc" fill-opacity=".361" d="M47.16 505.874L-61.006 356.162 86.581 504.016l-5.115 14.035z"/><path fill="#b3b3b7" fill-opacity=".416" d="M598.008 964.818l-8.78-287.81 164.603 12.334-300.84 258.056z"/><path fill="#dcdce6" fill-opacity=".541" d="M163.459 293.999l-89.26 56.433 168.836-13.88 100.37-111.396z"/><path fill="#01080c" fill-opacity=".624" d="M478.06 358.304l-32.274-3.24-42.043-48.422 98.641 6.333z"/><path fill="#2a3339" fill-opacity=".227" d="M602.029 533.098l-19.946 171.408-24.248-109.021 43.61-75.423z"/><path fill="#686869" fill-opacity=".729" d="M336.255 48.414l25.14 125.017L148.513-62l-.575 189.737z"/><path fill="#7782a5" fill-opacity=".788" d="M554.757 303.498l-12.275-103.465-41.6 109.05 11.044 59.093z"/><path fill="#e4e7e9" fill-opacity=".51" d="M205.244 532.273l90.37 24.694-205.841 134.39 145.381 20.217z"/><path fill="#17263c" fill-opacity=".239" d="M436.914 850.954l112.616 48.508 62.684 34.85-12.88-31.518z"/><path fill="#01382e" fill-opacity=".357" d="M526.213 466.293l21.117-85.98-105.809-49.24 132.602 73.586z"/><path fill="#464d5b" fill-opacity=".251" d="M63.611 574.836l47.997 263.997 141.728-83.604-102.42 14.972z"/><path fill="#878276" fill-opacity=".51" d="M861.732 283.607l-145.162 56.6 144.815 310.308L898 613.325z"/><path fill="#cdcfd5" d="M328.273 603.341l-17.229-256.784-32.305 43.373 34.728 197.331z"/><path fill="#cac5d0" fill-opacity=".58" d="M473.515 578.934l70.96-200.306-46.656 15.905 83.332 167.948z"/><path fill="#ac7e51" fill-opacity=".337" d="M500.509 217.915l-103.253 81.137 115.738-198.685-126.281 1.605z"/><path fill="#404149" fill-opacity=".412" d="M871.082 120.68L649.321 79.525l39.575-27.727L898 67.363z"/><path fill="#bdbcc9" fill-opacity=".816" d="M75.371 483.783l316.252-138.249-275.558 56.5 91.629 60.328z"/><path fill="#dae6f1" fill-opacity=".514" d="M880.916 530.108L898 440.083v31.466l-106.302-14.225z"/><path fill="#394b63" fill-opacity=".302" d="M558.788 833.325l6.467-33.413-144.384-73.526 213.432 86.525z"/><path fill="#3b4046" fill-opacity=".502" d="M103.985 303.707l123.406-30.08-21.813-22.086-151.37 60.024z"/><path fill="#97a9c3" fill-opacity=".545" d="M-6.975 844.753l-2.37-14.654 211.91-3.698 136.161 17.933z"/><path fill="#000405" fill-opacity=".2" d="M589.52 180.704l68.558-127.897-180.664 157.069-112.947-50.803z"/><path fill="#86ae91" fill-opacity=".592" d="M306.907 290.243l22.676-3.29 15.73-68.166-33.325-60.804z"/><path fill="#454542" fill-opacity=".635" d="M722.733 316.29l-21.696 41.038-58.294-75.547 251.476-31.356z"/><path fill="#8e2c36" fill-opacity=".765" d="M578.72 1094.04L898 866.205l-306.097 3.426 43.355 96.246z"/><path fill="#484b48" fill-opacity=".42" d="M210.513 285.074L348.74 103.962-62 49.094l280.688 77.814z"/><path fill="#8e7052" fill-opacity=".38" d="M428.674 263.786L309.12 175.092l177.62 30.828 188.036-32.679z"/><path fill="#0bb045" fill-opacity=".294" d="M303.31 601.782l6.152-44.134-45.405-78.028 28.642-9.19z"/><path fill="#029a3e" fill-opacity=".231" d="M284.042 571.34l106.264 19.353-32.195-131.544 12.87 114.752z"/><path fill="#c1bfcd" fill-opacity=".792" d="M494.948 872.745L606.94 956.89l-62.344 7.915-216.552-78.927z"/><path fill="#604a3b" fill-opacity=".988" d="M433.335 269.678l-35.172 68.785-29.701-34.166 121.9 4.314z"/><path fill="#eeedf1" fill-opacity=".325" d="M336.243 1043.805L496.393 1086l136.47-91.374-325.229-47.58z"/><path fill="#707884" fill-opacity=".51" d="M29.142 645.278l115.934 12.206L-62 719.5l81.395-181.427z"/><path fill="#030c0f" fill-opacity=".337" d="M758.331 533.868l-71.445-37.137 52.82-16.075L768.8 499.75z"/><path fill="#5a324b" fill-opacity=".302" d="M563.368 986.023L711.35 850.022l-29.626-2.737-88.976 151.398z"/><path fill="#dde3e8" fill-opacity=".69" d="M690.48 493.67l-74.361 169.868 176.227 31.347-51.063-164.57z"/><path fill="#011f33" fill-opacity=".2" d="M610.818 462.751l27.366-37.877 18.692 47.916 33.567 22.6z"/><path fill="#e0e4fc" fill-opacity=".263" d="M723.752 456.456l-91.142-25.092 129.169-4.758-30.255 53.79z"/><path fill="#01b13e" fill-opacity=".216" d="M332.714 509.066l34.447 32.24 8.135-69.86-54.039 111.819z"/><path fill="#010719" fill-opacity=".216" d="M517.492 465.95l-42.963-152.385 2.578 54.753 6.902-233.445z"/><path fill="#2f3f55" fill-opacity=".318" d="M264.734 857.259l-32.315 4.692L-62 866.548v-23.961z"/><path fill="#c2bbb0" fill-opacity=".435" d="M258.436 772.228l-66.962-8.343L65.23 676.348l180.242 36.806z"/><path fill="#475360" fill-opacity=".435" d="M146.77 478.502l57.828-22.14-13.245 70.326-100.417-45.789z"/><path fill="#d2cedb" fill-opacity=".584" d="M639.833 496.295L526.74 572.028 166.258 360.134l345.62 122.434z"/><path fill="#1283fa" fill-opacity=".251" d="M90.787 706.803l-71.106-12.044-.026 120.313 79.897 11.318z"/><path fill="#716f6d" fill-opacity=".714" d="M298.932 249.517L111.12 261.858l172.043-62.364 72.413-124.783z"/><path fill="#838297" fill-opacity=".392" d="M472.778 894.836l-134.41-81.106 150.12 76.17 49.83 27.285z"/><path fill="#2c1300" fill-opacity=".216" d="M347.582 312.322l41.036-131.773 63.8 32.059-92.4-156.868z"/><path fill="#b9b7c0" fill-opacity=".875" d="M584.163 475.26l-136.875-59.353 151.762 96.938-100.216-110.967z"/><path fill="#312f2b" fill-opacity=".49" d="M754.6 557.513l10.52-71.648-58.807 7.076L816.73 614.79z"/><path fill="#b9b6c6" fill-opacity=".753" d="M408.412 733.39l155.7 74.279-34.129 37.755-2.098 40.785z"/><path fill="#cdcbd6" fill-opacity=".949" d="M501.111 1006.977l-22.474-18.276 116.88-61.136 13.965 15.724z"/><path fill="#052e4c" fill-opacity=".114" d="M518.703 710.803L626.888 870.99l-98.233-16.567 71.737-150.42z"/><path fill="#004733" fill-opacity=".306" d="M571.308 441.029l-39.897-14.683 27.134-50.272-26.441-5.131z"/><path fill-opacity=".255" d="M532.694 129.073l-180.89-82.802 118.001 8.889 68.248-26.993z"/><path fill="#7a8090" fill-opacity=".439" d="M60.178 524.269l132.81-50.144L74.39 444.967l125.8 6.315z"/><path fill="#61605a" fill-opacity=".725" d="M-62 541.29l76.688-125.855 143.237-128.633L-62 375.63z"/><path fill="#696965" fill-opacity=".729" d="M702.209 256.733l-171.88-23.205 17.094-80.496 70.43 126.601z"/><path fill="#272b30" d="M355.001 44.116l41.225-31.169 53.45-2.014 52.93 28.112z"/><path fill="#bab8c6" fill-opacity=".804" d="M600.395 644.276l-51.134-31.561 45.214-21.133-264.42.636z"/><path fill="#949faf" fill-opacity=".816" d="M745.603 843.037l-167.797 4.53-27.838-16.38 343.171.235z"/><path fill="#9d9b9a" fill-opacity=".404" d="M241.199 14.158L487.21 6.354l-42.047-20.313-129.561 75.31z"/><path fill="#cec7d9" fill-opacity=".471" d="M488.699 412.13l-75.033 453.378-41.902-420.006 132.344-74.77z"/><path fill="#8e2a32" fill-opacity=".592" d="M369.118 1086L-62 958.914l309.305-85.042L208.24 986.84z"/><path fill="#ffc683" fill-opacity=".106" d="M326.13 232.2l110.3-131.289 78.685 66.153-92.392 2.39z"/><path fill="#e1e0e6" fill-opacity=".906" d="M270.589 259.634l141.777 94.652-20.688 3.154-162.662-91.508z"/><path fill="#000c12" fill-opacity=".204" d="M580.361 616.282l-71.707 10.398 71.868-21.4 22.138-13.994z"/><path fill="#d9d7e2" fill-opacity=".678" d="M89.69 352.02l61.664-58.657L44.2 491.912 10.822 426.24z"/><path fill="#9294b0" fill-opacity=".38" d="M630.128 321.652l67.679 40.134 8.9 133.196-86.721-109.857z"/><path fill="#3a2d11" fill-opacity=".251" d="M94.947 541.057L-62 411.768l54.587 4.813 92.595 238.262z"/><path fill="#9b6f41" fill-opacity=".525" d="M774.56 497.52l56.163.6 67.168 103.37.109 82.61z"/><path fill="#192930" fill-opacity=".165" d="M595.679 463.416l-71.933 4.012 33.273-79.88-50.684 108.02z"/><path fill="#171800" fill-opacity=".192" d="M277.943 106.66l-36.936 46.6 11.174 37.456 55.887 4.158z"/><path fill="#8b888a" fill-opacity=".753" d="M643 714.356l142.357 63.185-161.884 39.316L898 700.688z"/><path fill="#967a88" fill-opacity=".427" d="M153.96 837.176l116.245 135.885 66.317 1.942-83.3-25.031z"/><path fill="#5c6478" fill-opacity=".608" d="M791.816 807.318l-3.157-5.062-225.776 21.982 332.094.589z"/></svg>