<svg xmlns="http://www.w3.org/2000/svg" width="228" height="278" viewBox="0 0 836 1024"><path fill="#755c58" d="M0 0h836v1024H0z"/><g fill-opacity=".502"><path fill="#000218" d="M786 834l-84-484-632 736z"/><path fill="#fca" d="M14 826l328-672-404 16z"/><path fill="#f1b298" d="M338 130L734-62l164 584z"/><path fill="#000114" d="M626 334l-392-8L10 930z"/><path fill="#fff" d="M410 242L270 346l-332-84z"/><path fill="#ffcc98" d="M898 838l-92 248-292-124z"/><path fill="#ff7657" d="M526 702l16-160-268 4z"/><path fill="#cb420d" d="M110 222l708 20 80-208z"/><path fill="#fff" d="M498 262l204 96 196-132z"/><path fill="#c0f3ff" d="M614 110L898-62H402z"/><path fill="#0c2738" d="M462 1086L130 658l576 24z"/><path fill="#e1632a" d="M350 102l156 188-568-112z"/><path fill="#000d15" d="M562 310l76 576 112-504z"/><path fill="#72858c" d="M194 506L66 742-62 246z"/><path fill="#3a3856" d="M622 154L310 66l588 4z"/><path fill="#ff6c56" d="M322 530l-8 136 252-4z"/><path fill="#b9a4a7" d="M718 358l140 540 40-424z"/><path fill="#bbb4ac" d="M430-62L306 62-62 42z"/><path fill="#2f100c" d="M-62 86l204 72 276-88z"/><path fill="#273a4c" d="M534 714L-62 886l580 200z"/><path fill="#b59894" d="M274 570L138 838l116-80z"/><path fill="#010f18" d="M506 490l88 180 304-32z"/><path fill="#040e14" d="M818 726L678 930 546 754z"/><path fill="#ff9caa" d="M682 678l208 36-108-64z"/><path d="M270 354l232-100-116 132z"/><path fill="#010002" d="M210 410L66 926l212-356z"/><path fill="#f6ece8" d="M350 322l4-92-332 80z"/><path fill="#d49b93" d="M278 1086l-228-48-104-180z"/><path fill="#e79d6b" d="M898 618l-100 468-92-172z"/><path fill="#d29f9e" d="M614 882l-140 204 276-104z"/><path fill="#614c44" d="M778 410l120-80-252-4z"/><path fill="#4b4b50" d="M330 142l112 24-64 148z"/><path fill="#c39f85" d="M558 162L430 298l-80-112z"/><path fill="#f15612" d="M330 230l-272 8-96-132z"/><path fill="#ffc3a2" d="M202 126l68-4-32 228z"/><path fill="#f9ffff" d="M766 566l-28 20-16-60z"/><path fill="#c3bdce" d="M30 802l-92-120 212-80z"/><path fill="#010911" d="M218 1018l68-492 52 216z"/><path fill="#fbd9c9" d="M518 486l36-72 44 76z"/><path fill="#28485e" d="M334 370l-76 172 312-4z"/></g></svg>