<svg xmlns="http://www.w3.org/2000/svg" width="228" height="278" viewBox="0 0 836 1024"><path fill="#817572" d="M0 0h836v1024H0z"/><g fill-opacity=".502"><path d="M326-62L682 962 254 854z"/><path fill="#fff" d="M802 1086L526 302l372 188z"/><path fill="#fff" d="M246 1066l592-12-628-208z"/><path d="M530 658L90 426l444-136z"/><path fill="#d4fcff" d="M154 582L10 862l-72-512z"/><path fill="#fff3e6" d="M822 378L382 730l516 28z"/><path fill="#1c0000" d="M470 210L154-42l432-20z"/><path fill="#5bf7ff" d="M706 602L546-22l-8 616z"/><path fill="#040000" d="M246 818l464-92-164 252z"/><path fill="#fff6ff" d="M898 790l-88-376-192 672z"/><path fill="#9a4316" d="M654 778L150 434l-20 320z"/><path fill="#c5cebf" d="M534 358V34h364z"/><path fill="#ffd3bb" d="M74 642l16 100 360-40z"/><path fill="#00feff" d="M166 422l200-152-164 24z"/><path fill="#c5d0d4" d="M-50 286l8-272 344 64z"/><path fill="#5d1c0e" d="M-62 382l484-168 88-276z"/><path fill="#000908" d="M286 670l308 4-348-324z"/><path fill="#2f0000" d="M610 770l244 236-684-272z"/><path fill="#e0f9ff" d="M598 1086l152-156-524 60z"/><path fill="#00000c" d="M74 254l-136 72 80 136z"/><path fill="#542c2b" d="M850 398l-164 24-116-176z"/><path fill="#00c0e5" d="M594 594l12-272-92-12z"/><path fill="#d8815c" d="M642 594l-260 40 348 172z"/><path fill="#832e2a" d="M38 738l-12 348 168-372z"/><path fill="#c2ba81" d="M346 202l456 124 12-156z"/><path fill="#edd4e3" d="M94 726L10 502l148-104z"/><path fill="#2b0a00" d="M150 690l-8-284 76 136z"/><path d="M562 398l-48 276-336-304z"/><path fill="#c47862" d="M734 1086l-56-236 204 136z"/><path fill="#00c8f0" d="M170 382l152-24 24-104z"/><path fill="#eaa8bb" d="M230 934l-128-28 164-160z"/><path fill="#e6f8ff" d="M522 978L294 858l-12 196z"/><path fill="#f90000" d="M214 666l72 8-36-208z"/><path fill="#ac4c34" d="M290 954l-148 132-204-152z"/><path fill="#000a04" d="M626-62L342 10l556 8z"/><path fill="#679782" d="M526 634l-240-44 56 68z"/><path fill="#9c3527" d="M282 30l-40 212 268 100z"/><path fill="#eef6ff" d="M870 486l-240-52 64 320z"/><path d="M254 746l208 196 224-140z"/><path fill="#a56b6a" d="M42 10l140 400L74 510z"/></g></svg>