<svg xmlns="http://www.w3.org/2000/svg" width="228" height="278" viewBox="0 0 836 1024"><path fill="#714a47" d="M0 0h836v1024H0z"/><path fill="#e1e8e9" fill-opacity=".655" d="M225.271 959.452L329.522 332.38l217.268 83.464-27.221 542.264z"/><path fill="#171215" fill-opacity=".718" d="M480.726 110.124L898 14.836-4.87-62-62 479.022z"/><path fill="#8e0000" fill-opacity=".6" d="M775.744 596.718l-437.836 88.289-94.76-465.91L71.364 547.785z"/><path fill="#461d1e" fill-opacity=".996" d="M882.953 530.258l-258.127 3.029L595.207 43.46l238.667-9.329z"/><path fill="#0a1215" fill-opacity=".984" d="M156.84 975.732l444.15-24.695L598.674 1086H144.776z"/><path fill="#8d0308" fill-opacity=".91" d="M326.53 220.516l-81.294 641.736-72.575-24.32 9.687-501.09z"/><path fill="#b6d6da" fill-opacity=".561" d="M595.299 596.361l32.94-240.969-64.852-41.302-152.37 245.029z"/><path fill="#e6a26d" fill-opacity=".533" d="M69.009 460.459l70.911 459.024-36.946 16.304-151.395-363.51z"/><path fill="#b7b9bb" fill-opacity=".835" d="M315.685 373.794l112.322-188.906-85.275 407.422-63.738-42.852z"/><path fill="#def3f3" fill-opacity=".635" d="M512.307 858.69l34.15 90.082-280.312 24.449-17.967-93.795z"/><path fill="#642921" fill-opacity=".98" d="M379.384 320.596l83.723 97.316 20.356 2.526L705.269 148.9z"/><path fill="#b17c5a" fill-opacity=".835" d="M676.78 499.097l-1.738 261.097L761.7 946.887l80.59 72.72z"/><path fill="#551f21" fill-opacity=".639" d="M510.645 847.609l33.761-208.294 263.642 401.852-241.202-69.827z"/><path fill="#e3e5f9" fill-opacity=".459" d="M143.19 455.254l-13.267-99.752-141.88 214.66 96.086-110.76z"/><path fill="#750d0f" fill-opacity=".949" d="M703.5 508.873l-43.172-280.13-52.655 294.641-39.64 90.009z"/><path fill="#191e24" fill-opacity=".961" d="M373.295 133.628l29.948 92.366-191.39 60.422L-62-9.5z"/><path fill="#c0040f" fill-opacity=".655" d="M148.255 427.81l223.7-115.953-26.184-60.497-242.432 80.154z"/><path fill="#00282b" fill-opacity=".478" d="M295.114 469.33L217.529 1086l63.012-664.892 119.76 57.079z"/><path fill="#04171a" fill-opacity=".745" d="M898 479.448l-36.77-212.994-176.5 60.667 31.135 159.27z"/><path fill="#a7735d" fill-opacity=".675" d="M601.785 198.879l-97.376 64.717L449.48 81.66l123.867 3.818z"/><path fill="#492a2a" fill-opacity=".996" d="M88.31 414.781L-35.794 599.953-62 218.76l243.347 67.53z"/><path fill="#ff6158" fill-opacity=".38" d="M222.687 931.824l-34.772-253.61-87.483 235.911-18.391-26.452z"/><path fill="#c7dce0" fill-opacity=".506" d="M584.122 543.398l-207.83-212.76-69.325 20.432 164.39 276.587z"/><path fill="#820000" fill-opacity=".373" d="M404.285 536.618l61.794 48.984-60.098 19.158-177.433-8.989z"/><path fill="#dcd4d7" fill-opacity=".914" d="M383.194 285.488l-3.784-45.596-21.133 2.696 23.053 99.268z"/><path fill="#5c1d20" fill-opacity=".459" d="M548.225 513.274L527.44 405.63l348.109 409.836L898 442.516z"/><path fill="#c7cdc8" fill-opacity=".878" d="M524.854 659.57l-244.459 80.635-46.424 137.1 292.243-58.651z"/><path fill="#4b160e" fill-opacity=".408" d="M109.793 811.483L67.584 630.157l-9.656-65.609 178.56-99.607z"/><path fill="#0f1206" fill-opacity=".604" d="M429.683 287.617l124.947 62.37L394.568 116.49 495.736-62z"/><path fill="#cc936d" fill-opacity=".42" d="M453.403 309.64l24.732 14.772-67.314 18.896L366.524 47.82z"/><path fill="#460e0d" fill-opacity=".973" d="M236.583 921.72l-93.973 46.602 43.466 13.154 51.844-7.993z"/><path fill="#950308" fill-opacity=".812" d="M666.694 318.427l34.886 94.49-27.205 83.44-94.668-208.006z"/><path fill="#b3ddde" fill-opacity=".467" d="M622.395 408.58l-98.94 305.27 7.262-90.95 74.93-93.139z"/><path fill="#37300c" fill-opacity=".396" d="M617.152 481.055l-25.991 89.037-108.592 13.82L721.522 675.8z"/><path fill="#bbc9cc" fill-opacity=".871" d="M617.686 350.786L284.82 521.526l37.164-194.022-2.115 240.978z"/><path fill="#cd0004" fill-opacity=".455" d="M276.205 587.728l-74.21 306.058-17.576-229.723 5.723-118.249z"/><path fill="#45342e" fill-opacity=".741" d="M617.146 134.575L862.731-62l19.344 245.978-457.973-27.94z"/><path fill="#fdfaeb" fill-opacity=".18" d="M546.323 203.206l45.304 47.647 22.186-174.106-63.848 32.042z"/><path fill="#9e0409" fill-opacity=".761" d="M453.205 412.854l-84.669-110.462 95.53 65.753 63.985 6.613z"/><path fill="#f5fef2" fill-opacity=".388" d="M74.89 443.874L-4.081 548.74l17.436 157.598-19.538-81.75z"/><path fill="#a56a44" fill-opacity=".71" d="M682.32 655.882l-98.68-1.1 126.057 177.826-23.02-403.243z"/><path fill="#cad8db" fill-opacity=".537" d="M403.006 431.947l211.227-34.632-60.318-66.657L388.92 558.924z"/><path fill="#dee7e7" fill-opacity=".392" d="M754.723 735.844l-68.736-185.54 58.86 197.06 48.741 162.657z"/><path fill="#e0e7e7" fill-opacity=".965" d="M529.233 901.455l-293.051 64.362 312.078-17.835-25.673-72.161z"/><path fill="#000a0f" fill-opacity=".337" d="M392.862 452.975l-28.513-11.326 7.034 52.988-17.806 32.74z"/><path fill="#d8dbd5" fill-opacity=".494" d="M249.867 977.686l18.474-262.851 23.487-102.461 74.083 65.332z"/><path fill="#c3846f" fill-opacity=".8" d="M103.423 900.797l125.498-6.522-35.574-46.305-81.936 3.726z"/><path fill="#750000" fill-opacity=".796" d="M157.87 385.04l-32.667 73.468-36.688 12.7 192.12 109.777z"/><path fill="#dde1e7" fill-opacity=".706" d="M320.967 339.6l-10.202 28.378 118.328 19.844-60.29-74.625z"/><path fill="#020e11" fill-opacity=".592" d="M793.536 1060.656l-447.423-99.103-120.434 7.592-99.4 31.53z"/><path fill="#010603" fill-opacity=".69" d="M427.983 40.165L404.173 76.2l199.836-3.808L513.147 8.37z"/><path fill="#ab0c12" fill-opacity=".78" d="M462.663 616.642l-39.359 47.353-58.75 7.45-24.668-18.879z"/><path fill="#562022" fill-opacity=".855" d="M655.992 335.894L770.005 185.08 615.134-62 570.316 3.043z"/><path fill="#080700" fill-opacity=".408" d="M628.892 522.777l-.82 134.791-37.73-177.514-62.272 18.426z"/><path fill="#ff5676" fill-opacity=".416" d="M112.083 361.672l73.769-57.745 40.713-22.343-54.879 74.489z"/><path fill="#7bbcc1" fill-opacity=".298" d="M288.57 611.703l-3.97-134.07 81.824 175.485 98.549-48.77z"/><path fill="#75797a" d="M607.394 428.59l-43.874-18.269-41.176 22.645 36.502 52.792z"/><path fill="#c3d1d2" fill-opacity=".769" d="M301.777 532.39l290.649 29.314 26.266-91.033-36.87 45.44z"/><path fill="#511e23" d="M618.41 856.724l-74.757-105.268-31.688 103.501L597.81 977.59z"/><path fill="#0e161a" fill-opacity=".784" d="M189.141-55.468L76.274 174.407-62 236.983-18.343 30.67z"/><path fill="#492723" fill-opacity=".949" d="M129.995-62L295.38 96.906l41.008-.928L589.153-62z"/><path fill="#030306" fill-opacity=".408" d="M303.192 339.425l17.856-14.215-11.636 78.53-61.262 199.132z"/><path fill="#150b0e" fill-opacity=".482" d="M231.426 899.636l3.783-3.511-20.871-34.35 56.745-147.232z"/><path fill="#b10009" fill-opacity=".675" d="M149.678 818.435l111.802-240.19-25.63 229.39-18.628 67.272z"/><path fill="#996045" fill-opacity=".627" d="M104.092 493.591L76.673 408.88l-16.87 167.338 87.374-48.126z"/><path fill="#b10000" fill-opacity=".714" d="M356.324 568.257l88.039 27.015-33.916-32.742-27.102-1.284z"/><path fill="#b7beb8" fill-opacity=".475" d="M480.832 612.956L323.122 750.93l-33.18-62.426 173.237 260.365z"/><path fill="#020306" fill-opacity=".435" d="M295.634 419.86l-62.43 419.336 60.545-267.478-29.601-66.51z"/><path fill="#b97174" d="M317.82 659.743l90.065 25.563-47.003-.166-37.512-71.767z"/><path fill="#121208" fill-opacity=".718" d="M445.62 277.654l51.905 63.325 73.953-22.113-137.051-65.631z"/><path fill="#7d3b39" fill-opacity=".718" d="M-1.003 657.568l82.706 260.524 108.481 61.422-240.972 55.356z"/><path fill="#2e0a00" fill-opacity=".431" d="M104.861 626.027l-40.8-58.903 154.657-57.562-11.621-68.639z"/><path fill="#e6956c" fill-opacity=".486" d="M428.42 176.248l-33.585-37.886 17.171 85.593 24.911-11.87z"/><path fill="#9a0000" fill-opacity=".655" d="M259.48 516.904l63.914-270.463 56.623 63.395-243.292 74.783z"/><path fill="#c0cccf" fill-opacity=".859" d="M482.747 484.662l126.06-142.895 8.841 84.267-93.33-53.189z"/><path fill="#693934" fill-opacity=".969" d="M843.588 1004.988l-223.858-7.47 54.063-234.65 79.783 198.67z"/><path fill="#8a7876" fill-opacity=".349" d="M584.688 566.165l51.189 131.293L521.23 578.59l-197.082-46.38z"/><path fill="#6f2a2a" fill-opacity=".498" d="M857.24 1013.737l-91.563-215.769-55.163-279.977 105.591.122z"/><path fill="#6d0d0e" fill-opacity=".969" d="M674.862 540.082L599.435 271.33l-35.955 44.76 48.033 27.972z"/><path fill="#e2f3ff" fill-opacity=".243" d="M720.207 660.224l-34.38-139.3-14.816 8.042 13.205 35.392z"/><path fill="#7f030b" fill-opacity=".259" d="M455.712 595.155l119.567-1.466-30.773 10.229-34.401 66.6z"/><path fill="#004b3a" fill-opacity=".176" d="M437.818 839.177l109.318-5.968-291.677 40.12 210.947-.341z"/><path fill="#703838" fill-opacity=".878" d="M179.574 527l10.73 150.937-47.253 153.219-36.447-64.31z"/><path fill="#49271b" fill-opacity=".565" d="M471.441 181.165l156.703-54.36 5.652 69.484-106.25-65.65z"/><path fill="#d37958" fill-opacity=".282" d="M467.857 197.4l-30.99-83.752 58.151-46.166-.173 156.345z"/><path fill="#b67b69" fill-opacity=".898" d="M898 1019.93l-134.621-57.146-11.01-28.288L898 965.316z"/><path fill="#211f27" fill-opacity=".471" d="M124.118 388.189l-20.872 52.096-62.925-77.916-75.992 184.176z"/><path fill="#d7f8fd" fill-opacity=".376" d="M136.234 402.529l-3.737 32.28-29.054 35.349 18.138-99.498z"/><path fill="#d9e4e4" fill-opacity=".533" d="M243.024 966.515l69.269-.55 138.383-10.146-212.73-99.723z"/><path fill="#6d3535" fill-opacity=".82" d="M577.78 579.929l-52.364 167.904 135.028 68.933-54.675-144.162z"/><path fill="#9ba4a8" d="M621.174 371.277l-78.368-37.84-3.414 6.115-.04 33.136z"/><path fill="#020004" fill-opacity=".392" d="M629.244 434.304l-14.55 147.33 5.148-253.503 10.748 26.593z"/><path fill="#cce0ed" fill-opacity=".494" d="M446.69 458.681l166.309 18.982.45-25.823-42.159 11.838z"/><path fill="#d8e7ed" fill-opacity=".651" d="M292.33 492.946l20.452-54.633 221.58-9.062-216.865-20.305z"/><path fill="#c28e6b" fill-opacity=".792" d="M37.398 654.695l17.593 184.451 5.744 11.696 42.992-49.218z"/><path fill="#c87463" fill-opacity=".557" d="M878.79 962.36l-82.257 80.83-16.046-39.112 77.015 3.717z"/><path fill="#1c4a40" fill-opacity=".322" d="M746.005-35.829l-46.977 91.596L898 220.554V-3.836z"/><path fill="#3a2b1f" fill-opacity=".992" d="M593.924 501.315l-44.347 2.744-17.601-12.926 18.975-7.49z"/><path fill="#02221c" fill-opacity=".173" d="M185.96 405.379l237.133-2.972-35.199-18.369-97.431 4.493z"/><path fill="#b2bdbb" fill-opacity=".537" d="M467.327 629.875l68.675-2.37-63.718 333.987 82.966-354.175z"/><path fill="#8f0207" fill-opacity=".82" d="M534.404 348.136L479.357 421.8l-29.656-17.31-27.563-29.716z"/><path fill="#ffcfd1" fill-opacity=".239" d="M599.89 219.1l2.214-39.996-45.178 7.078-112.311-12.305z"/><path fill="#010003" fill-opacity=".376" d="M323.882 484.107l20.084-27.46-5.479-21.773-18.607 25.149z"/><path fill="#ab0005" fill-opacity=".482" d="M434.597 581.977l-104.557 29.4 38.635-47.222 13.197 62.418z"/><path fill="#121e2a" fill-opacity=".8" d="M405.2 233.79l-1.693-25.789-53.788-84.393-149.547 139.068z"/><path fill="#b36c48" fill-opacity=".431" d="M396.286 323.567l40.83 27.374 49.284-3.58-105.87-99.34z"/><path fill="#f2f5f3" fill-opacity=".38" d="M356.191 820.288L257.6 830.363l136.979-56.451-131.071-48.001z"/><path fill="#c5a5a6" fill-opacity=".604" d="M357.685 636.584l-.855-5.801 42.76-77.967-10.668 30.47z"/><path fill="#fe2a45" fill-opacity=".522" d="M134.255 950.955l3.532 36.637 44.78-15.598-46.499-11.822z"/><path fill="#061113" fill-opacity=".737" d="M563.423 946.622L645.713 1086 168.27 977.559l254-14.133z"/><path fill="#ff4a6e" fill-opacity=".231" d="M191.525 670.346L180.89 522.73l25.287 176.263-90.463 248.634z"/><path fill="#cee1e5" fill-opacity=".408" d="M302.878 402.066L430.56 547.067l-121.381-27.353 72.567-118.607z"/><path fill="#7c411b" fill-opacity=".62" d="M707.246 635.435l-61.933-118.362-7.926 108.052-39.418 52.58z"/><path fill="#5c2825" fill-opacity=".557" d="M499.696 776.537l172.054 17.234 92.492 180.94-223.152-176.09z"/><path fill="#9d8279" fill-opacity=".459" d="M-62 658.487L248.284 835.83l200.727-27.773-176.464 41.713z"/><path fill="#9d0003" fill-opacity=".549" d="M641.458 541.662l37.539-14.396 23.46-122.532L628.055 290.9z"/><path fill="#021a1e" fill-opacity=".278" d="M860.552 280.6L577.05 557.873l87.829-72.254 170.928 21.995z"/><path fill="#717575" fill-opacity=".424" d="M667.84 410.763L441.015 450.32l-78.79-2.738 260.137-27.925z"/><path fill="#9c0001" fill-opacity=".329" d="M464.339 606.25l-17.02 55.865-51.943 26.417 25.282-59.478z"/><path fill="#b7908f" fill-opacity=".996" d="M453.02 645.318l-26.5 23.989-46.708 11.354-68.457 35.712z"/></svg>