<svg xmlns="http://www.w3.org/2000/svg" width="228" height="278" viewBox="0 0 836 1024"><path fill="#979167" d="M0 0h836v1024H0z"/><g fill-opacity=".502"><path d="M534 462L242 94 662-62z"/><path fill="#ffffa7" d="M622-14L898-2 750 938z"/><path fill="#dbd815" d="M110 930l348 156 20-712z"/><path fill="#bcdaff" d="M50 650L-62 374l472-56z"/><path fill="#516919" d="M234 418l560 308L50 846z"/><path fill="#000002" d="M698 138L370-62l-32 320z"/><path fill="#f6eaff" d="M458 746l112 8-80 328z"/><path fill="#2e000a" d="M62 910l88-356 16 532z"/><path fill="#e9ef78" d="M362 554l168 76L850 78z"/><path fill="#200" d="M698 646l-80 220-124-240z"/><path fill="#be9dd4" d="M858 1070L670 782l228-416z"/><path fill="#0fab6d" d="M366 554l100-284L66 634z"/><path fill="#e6c8ff" d="M-62 702l44 328L90 770z"/><path fill="#fff57d" d="M898-62v856L606-42z"/><path fill="#717962" d="M574 138l-156-4 248 456z"/><path fill="#8d89a6" d="M-62 546L378 38 34-62z"/><path fill="#cf3d59" d="M546 1086l-20-252 372 36z"/><path fill="#c5ba2c" d="M182 1086l-20-400 492-196z"/><path d="M642 238L434-58 638 54z"/><path fill="#132204" d="M430 394l204 36-196-184z"/><path fill="#f5ec60" d="M462 794l-264 216 304 76z"/><path fill="#fff29d" d="M606 230l-40 136 332-196z"/><path fill="#9b9d9a" d="M586 294l312 316-168 168z"/><path fill="#f1fcff" d="M114 490l148-84-236-44z"/><path fill="#f45074" d="M70 790l-116 296 152-124z"/><path d="M338 250L598 26 306 98z"/><path fill="#002600" d="M302 606l76-84-104-48z"/><path fill="#c2deff" d="M898 782l-264-44 104 108z"/><path fill="#6e5352" d="M178 158L-34 34l264 380z"/><path fill="#3f344f" d="M94 786L2 634l220-8z"/><path fill="#adb5a0" d="M206 270l260 284L214-58z"/><path fill="#0ba13d" d="M586 642l24-240 52 112z"/><path fill="#c2d0fd" d="M242 554l-72 68 52 20z"/><path fill="#100000" d="M630 222l40-88-168 76z"/><path fill="#c09795" d="M442 170l172 16-76-56z"/><path fill="#6a1e02" d="M466 674l96-40-220-16z"/><path fill="#da242e" d="M714 1086l88-92-12-164z"/><path fill="#c4cdff" d="M546 722l40 116-136 28z"/><path fill="#27140d" d="M146 802l12 244-92 40z"/><path fill="#fef781" d="M398 458l160 100V410z"/></g></svg>