<svg xmlns="http://www.w3.org/2000/svg" width="228" height="278" viewBox="0 0 836 1024"><path fill="#2c1b2c" d="M0 0h836v1024H0z"/><g fill-opacity=".502"><path fill="#c3b6a9" d="M606 586L458 686l-160-84z"/><path fill="#e9ecd2" d="M34 950L-6 798l52-120z"/><path d="M898-62L738 318 314 26z"/><path fill="#364fc3" d="M458 254l276 44 164 200z"/><path fill="#132a9c" d="M434 1086l180-20-8-612z"/><path fill="#6076cb" d="M102 410l132-128L54 618z"/><path d="M490 830L338 942 146 390z"/><path fill="#b51a02" d="M830 1086l-52-204-188 116z"/><path fill="#565773" d="M-22 914l260-120-76 284z"/><path fill="#ffb34f" d="M582 430l-60 32 48 68z"/><path fill="#000a5e" d="M206 274L50 666l300-200z"/><path fill="#360014" d="M354 670l544-68-584 388z"/><path fill="#150401" d="M506 482L-38 230 62-26z"/><path fill="#583f25" d="M114 82l396 288 20-252z"/><path fill="#000f6d" d="M490 222l116 248 192-24z"/><path fill="#5d3a1b" d="M62 1006l152-412L26 754z"/><path fill="#001773" d="M254 1086l12-428-144 420z"/><path d="M314 494l60 384-224-404z"/><path fill="#513416" d="M882 1086L686 882l172-620z"/><path fill="#858eaa" d="M102 594L30 722l56-240z"/><path fill="#5e0026" d="M338 418l136 192 68-276z"/><path fill="#062a8b" d="M634 922l-48-316-60 224z"/><path fill="#030400" d="M498 202l396 176L538-62z"/><path d="M250 402l180-36 40-140z"/><path fill="#0c0800" d="M166 886L66 618l152 152z"/><path fill="#ffd300" d="M326 526l72-40-80 20z"/><path fill="#00135e" d="M162 662l108-400L46 634z"/><path fill="#2b0000" d="M610 586l28 404 144-396z"/><path fill="#b7b6b2" d="M610 562l-152 68 116-8z"/><path fill="#341c08" d="M-62 310L54 586l124-360z"/><path fill="#000a56" d="M502 938l-328 72 320 76z"/><path fill="#dad9d6" d="M46 910L2 798l24-68z"/><path d="M14 918l-76 124L6 766z"/><path fill="#a4968b" d="M290 186l40 72 16-72z"/><path fill="#8b5347" d="M222 670l-88 40 72-152z"/><path fill="#e7e6d6" d="M102 462L66 566l40-56z"/><path fill="#d5dcdb" d="M314 98l20-4-32 48z"/><path d="M238 170l124-32 88 44z"/><path fill="#7770a4" d="M714 298l32 88 152 72z"/><path fill="#060606" d="M610 578l232-96-152-52z"/></g></svg>