<svg xmlns="http://www.w3.org/2000/svg" width="228" height="278" viewBox="0 0 836 1024"><path fill="#af6b5b" d="M0 0h836v1024H0z"/><g fill-opacity=".502"><path fill="#6e0200" d="M410 730l144 356-616-96z"/><path fill="#ff3c56" d="M678 350l-76 736L66 446z"/><path fill="#000e17" d="M222 166L342-62l184 184z"/><path fill="#d2cfb1" d="M898 354l-68 704-148-708z"/><path fill="#bcc86e" d="M898 250L566-62 342 426z"/><path fill="#690000" d="M142 430l172 408L86 582z"/><path fill="#f6c5ca" d="M654 642l-364 80 456 52z"/><path fill="#1d4c19" d="M322 1082L110 830l-172 180z"/><path fill="#930000" d="M618 650l120-148-140-84z"/><path fill="#879888" d="M-62 74l416 368L210-62z"/><path fill="#ffaab0" d="M502 542L382 110l212 324z"/><path fill="#ff5157" d="M390 950l316 80-92-420z"/><path fill="#d5ebff" d="M86 602l-32 48 148 104z"/><path fill="#fff" d="M666 646l64-128 52 52z"/><path fill="#b0bab1" d="M798 1086L626 810l68-148z"/><path fill="#a8a059" d="M782 538L450 170 850-62z"/><path fill="#531c0c" d="M754 674l20 208-96-248z"/><path fill="#c71b29" d="M526 722l-208 364-64-328z"/><path fill="#cabbc8" d="M286 758l212-48-92-88z"/><path fill="#d4c4b4" d="M-62 1002l88-356 32 220z"/><path fill="#192528" d="M462-18l16 176-264-84z"/><path fill="#89754a" d="M-38 590l24-468 364 148z"/><path fill="#eadaff" d="M278 326l40 72-84 20z"/><path fill="#2c1b03" d="M166 718l-76 72-20-88z"/><path fill="#ba1a21" d="M402 514l284 32-504 116z"/><path fill="#a60005" d="M690 958l-380 64 268 48z"/><path fill="#5d6f47" d="M254 1086L122 838l160-8z"/><path fill="#593a2f" d="M402 382L298 190v184z"/><path fill="#a69f86" d="M486 198l8-260 404 176z"/><path fill="#4e0000" d="M210 686l-40-180-84 92z"/><path fill="#ff4c57" d="M398 434l336 44-140-148z"/><path fill="#d4ffff" d="M298 494v32l-76-16z"/><path fill="#ccbf79" d="M234 770l-24-84L46 842z"/><path fill="#ba9936" d="M710 406l176-232-504 64z"/><path fill="#a6c9d5" d="M366 546l-64-8-92 64z"/><path fill="#cc3740" d="M110 418l144 304 148-40z"/><path fill="#e0b7d5" d="M362 430l112-140 76 60z"/><path fill="#320000" d="M578 546h76l-4 76z"/><path fill="#c7a651" d="M390 182l-240 64-212-72z"/><path fill="#fdffff" d="M490 682l72 48-80-12z"/></g></svg>