<svg xmlns="http://www.w3.org/2000/svg" width="228" height="278" viewBox="0 0 836 1024"><path fill="#785352" d="M0 0h836v1024H0z"/><g fill-opacity=".502"><path fill="#fff" d="M658 682L378 254l520 220z"/><path fill="#7c0200" d="M214 1086l104-864 496 728z"/><path fill="#f9f2ff" d="M290 302L-62 438l184 156z"/><path fill="#f4e4ab" d="M358 802l404-144-316 224z"/><path d="M-62 554L42 846l132-232z"/><path fill="#002425" d="M602 814l124 272 172-504z"/><path fill="#f1000c" d="M158 406l40 184 296-216z"/><path fill="#284048" d="M898-62L798 410 246-2z"/><path fill="#e8ffff" d="M606 342l-208-24 388 356z"/><path fill="#fbddb5" d="M246 734l-64-88L46 878z"/><path fill="#480000" d="M454 454L262 790l384-124z"/><path fill="#8e958b" d="M470 602l-304 24 260 52z"/><path fill="#780000" d="M778 1086L234 710l52 296z"/><path fill="#ffd4b2" d="M378 54l12 88-144-84z"/><path fill="#364743" d="M-62 26l392-88L82 390z"/><path fill="#cd6660" d="M458 150L330 366l96 172z"/><path d="M818 846l-64-280 144 104z"/><path fill="#dbc1a4" d="M526 802l-184-52 60 140z"/><path fill="#cc9e5f" d="M782 706l-64-128-196 196z"/><path fill="#000909" d="M170 582l-52 224-180-184z"/><path fill="#c4f0f3" d="M50 466l112-72 24 232z"/><path fill="#5e0000" d="M478 378l88 360-128 44z"/><path fill="#667b7b" d="M702 450l196-32-520-228z"/><path fill="#062b0c" d="M250 298l124 24 24-132z"/><path fill="#f4ffff" d="M682 482L486 274l-76 72z"/><path fill="#930611" d="M250 622l-84-80 316-300z"/><path fill="#ff1628" d="M598 822l-8 188 108 76z"/><path fill="#ebc29a" d="M314 198l-80-56h188z"/><path fill="#9e847b" d="M46 1086l-72-248 476 248z"/><path fill="#e01c2b" d="M286 342l-124 80 12 108z"/><path fill="#79869e" d="M250 346v-96L-62 426z"/><path fill="#000500" d="M414 18L262 30l240 64z"/><path fill="#6b6c72" d="M814 170L226-62h596z"/><path fill="#5c5460" d="M738 1086l-96-140 256-168z"/><path fill="#fff" d="M290 342l-68-4-80 76z"/><path fill="#a0c0ca" d="M482 430l244 84-156 72z"/><path fill="#e50b20" d="M250 862l100 184-136 40z"/><path fill="#fff7ea" d="M42 870l120-88-100 36z"/><path fill="#fff4d8" d="M342 98l-84-24-12 32z"/><path fill="#bf8ea1" d="M630 498l268-168v292z"/></g></svg>