<svg xmlns="http://www.w3.org/2000/svg" width="228" height="278" viewBox="0 0 836 1024"><path fill="#4e567a" d="M0 0h836v1024H0z"/><path fill="#baa68f" fill-opacity=".671" d="M-62 8.865v429.83l663.74-202.12-75.226-168.171z"/><path fill="#facea2" fill-opacity=".573" d="M133.9 726.15L-62 845.465v234.452L187.218 1086z"/><path fill="#00217f" fill-opacity=".643" d="M536.448 1026.477l251.394-612.05-600.738-71.525-12.136 723.186z"/><path fill="#c5b2a4" fill-opacity=".894" d="M747.656 900.986l-184.92 74.89-18.57 96.5L898 1045.273z"/><path fill="#4a77f5" fill-opacity=".471" d="M390.385 584.456l339.986-136.813L612.244 343.73 108.192 237.837z"/><path fill="#302820" fill-opacity=".616" d="M822.394-62l-485.28 171.918L390.343-62 898 456.986z"/><path fill="#061235" fill-opacity=".686" d="M166.507 717.455l287.766-76.12 291.202-133.098-256.213 416.964z"/><path fill="#091001" fill-opacity=".714" d="M-62 792.808L113.468 430.9-62 392.966v260.129z"/><path fill="#82603b" fill-opacity=".698" d="M645.15 176.096L503.61 395.498l-111.599-34.333 15.195-155.497z"/><path fill="#2c67ea" fill-opacity=".753" d="M774.886 686.15l-89.4 81.677 39.195 141.572 141.176-78.975z"/><path fill="#d1c4aa" fill-opacity=".631" d="M-62 313.312l50.278-167.096 132.947 29.826 46.404 297.475z"/><path fill="#ef602f" fill-opacity=".698" d="M118.763 873.936l48.888-42.48 18.813-88.108-127.324 1.89z"/><path fill="#fedace" fill-opacity=".851" d="M409.382 130.317l156.238.502-79.105-71.95-68.835 20.779z"/><path fill="#2765f1" fill-opacity=".659" d="M129.88 396.189l-82.602 166.19-57.468 211.795 56.535 37.574z"/><path fill="#071c57" fill-opacity=".592" d="M427.115 969.997l-345.5-318.855-18.01-85.002L206.02 397.845z"/><path fill="#fd471a" fill-opacity=".541" d="M38.702 61.257L121.913-62l64.234 115.823-76.332 83.291z"/><path fill="#f7f078" fill-opacity=".267" d="M430.336 513.167l84.718 143.705L277.66 612.54l100.665-92.676z"/><path fill="#584a49" fill-opacity=".643" d="M179.729 305.214l204.375-39.188L429.4-62 286.817 240.117z"/><path fill="#1e54e1" fill-opacity=".714" d="M255.322 1086h268.752l7.986-175.317-28.539-12.685z"/><path fill="#000c47" fill-opacity=".643" d="M762.434 711.462l-51.078 52.69L597.444 495.04l82.321-33.962z"/><path fill="#4a4743" fill-opacity=".757" d="M809.072 644.854L898 416.205 473.892-56.501l298.706 632.77z"/><path fill="#8c898f" fill-opacity=".816" d="M596.9 771.503l30.631-57.483 100.196 152.366L602.9 819.88z"/><path fill="#2968ff" fill-opacity=".541" d="M135.508 373.889l195.108 84.001 64.064-69.811-9.897-132.41z"/><path fill="#ffc2a8" fill-opacity=".608" d="M443.123 187.115l138.148 6.037-207.987-63.526-9.598 82.089z"/><path fill="#23468a" fill-opacity=".58" d="M190.47 963.749l104.78-228.523-266.2 198.033L-62 853.574z"/><path fill="#a55e00" fill-opacity=".373" d="M185.28 267.863L-14.988 427.15l130.413 6.822 99.693-136.809z"/><path fill="#d1d8e6" fill-opacity=".553" d="M501.408 510.302l33.22-58.928 47.539 38.947-29.382 33.99z"/><path fill="#83a9ff" fill-opacity=".443" d="M492.52 240.68l286.803 337.28-70.095-151.047-272.293-186.158z"/><path fill="#b0a89c" fill-opacity=".525" d="M863.729 599.364l13.337 225.218-74.857-57.753-41.824-117.281z"/><path fill="#6ecdfa" fill-opacity=".286" d="M274.761 116.881l29.466 117.71L-62 288.162V173.04z"/><path fill="#eac0b6" fill-opacity=".984" d="M-9.505 866.284l-49.44-58.072 131.202-16.786L84.24 890.94z"/><path fill="#001d92" fill-opacity=".592" d="M608.86 372.217L337.009 500.692l205.47 39.484L375.297 372.04z"/><path fill="#a5fcff" fill-opacity=".38" d="M150.133 1051.648L-26.33 1086-62 943.991l255.84 11.494z"/><path fill="#69715b" fill-opacity=".498" d="M115.205 182.794L570.381-5.547-62 6.283l235.873 7.983z"/><path fill="#6b714d" fill-opacity=".388" d="M90.107 726.901l84.89 50.717 40.177-281.031-71.163 67.92z"/><path fill="#c9dcff" fill-opacity=".616" d="M156.66 473.885L159.008 360l-51.814 105.086-4.771-14.083z"/><path fill="#4a4f34" fill-opacity=".525" d="M603.754 586.188l72.76 58.419 14.46 137.299-96.503-33.82z"/><path fill="#f8dadc" fill-opacity=".765" d="M686.735 952.198l88.779 16.659 2.834-28.78-61.901-38.173z"/><path fill="#05113a" fill-opacity=".612" d="M411.116 575.164l-157.671 305.32 271.54-65.893-199.27-269.989z"/><path fill="#0d33bb" fill-opacity=".42" d="M265.477 611.594L175.3 886.214l445.225-32.716-353.595 128.21z"/><path fill="#0442e7" fill-opacity=".329" d="M665.104 738.019l125.895 229.786-110.962-586.01 110.47 316.745z"/><path fill="#874c29" fill-opacity=".753" d="M751.755 1063.696L648.465 1086l101.793-99.189 30.879 2.009z"/><path fill="#031240" fill-opacity=".765" d="M106.298 600.862L239.6 482.372l-55.132-68.322-95.845 155.1z"/><path fill="#724d24" fill-opacity=".486" d="M283.552 122.198l223.278 6.837 91.764 31.74-127.27-1.23z"/><path fill="#2862ff" fill-opacity=".569" d="M645.305 437.624l92.724 32.532-196.211-163.854 2.704 105.47z"/><path fill="#110e01" fill-opacity=".329" d="M647.282 451.54l-231.325-48.594 44.584-117.993 56.402 114.302z"/><path fill="#dde7e3" fill-opacity=".545" d="M340.039 448.297l2.94 25.51-55.784-16.545 41.673-20.538z"/><path fill="#764900" fill-opacity=".6" d="M-55.488 818.855L-62 821.75l128.817 93.36-47.82 14.256z"/><path fill="#ffba8b" fill-opacity=".439" d="M457.66 338.607l-67.45-62.993-6.877 59.343 31.584 27.898z"/><path fill="#0829a6" fill-opacity=".545" d="M140.897 602.132l-37.26-26.553-30.76-35.27L42.715 806.59z"/><path fill="#599aff" fill-opacity=".78" d="M367.195 272.412l-70.213 70.64-134.94 19.503 64.436-56.055z"/><path fill="#8ca39a" fill-opacity=".816" d="M309.202 600.1l57.666 28.62 8.771-40.443-77.76-20.624z"/><path fill="#ffc8b4" fill-opacity=".529" d="M548.49 235.02l-21.278-41.662-163.738-34.555 213.768 2.382z"/><path fill="#03070e" fill-opacity=".49" d="M183.746 839.898l-7.827-168.206 30.446 4.936 55.186-62.757z"/><path fill="#2e2827" fill-opacity=".561" d="M898 80.257l-168.485-13.52-488.21-88.242L800.141-62z"/><path fill="#4183ff" fill-opacity=".545" d="M151.483 491.229l-37.174-59.783L-62 1021.326l115.193-480.7z"/><path fill="#000611" fill-opacity=".322" d="M524.593 875.747l-223.365 67.116L715.48 846.52l-139.426 96.23z"/><path fill="#fcd9d0" fill-opacity=".624" d="M437.91 58.176l110.387 32.091 9.277 33.193-147.575 12.263z"/><path fill="#00051c" fill-opacity=".302" d="M605.209 713.508l155.386-53.596L388.33 581.79l390.837-47.774z"/><path fill="#ffc28b" fill-opacity=".498" d="M-62 287.646l188.615 20.272-3.958 66.608L-62 404.24z"/><path fill="#616c73" fill-opacity=".62" d="M-62 139.903l180.311-16.147-50.446-17.745L40.837-62z"/><path fill="#0a2ba6" fill-opacity=".525" d="M251.791 368.17l41.632 66.514 93.602 162.362-236.707-195.419z"/><path fill="#1947fa" fill-opacity=".263" d="M498.467 849.655l131.449-129.09L307.94 976.69 212.023 1086z"/><path fill="#c0ffff" fill-opacity=".263" d="M709.448 441.165l-190.783-134.99 113.999 36.001 8.902 6.282z"/><path fill="#0a1845" fill-opacity=".765" d="M302.44 599.043l-8.362-44.236-29.842 59.92 347.872 213.515z"/><path fill="#000a0b" fill-opacity=".384" d="M392.227 50.804l-53.214 171.284 11.866-73.765 63.22-24.614z"/><path fill="#747f87" fill-opacity=".922" d="M604.56 926.81l87.866-6.127-3.855 49.672-106.247-17.184z"/><path fill="#010c4b" fill-opacity=".392" d="M403.671 947.14l-251.847-148.8 335.848 155.844-345.607 68.695z"/><path fill="#95a0c1" fill-opacity=".639" d="M341.624 500.884l125.243 32.184-18.741 39.92-67.092-12.865z"/><path fill="#4680f5" fill-opacity=".718" d="M729.149 903.753l44.992-.872 16.2-146.24-55.035 69.912z"/><path fill="#2156cb" fill-opacity=".69" d="M200.738 913.032l-21.191 63.331 1.914-95.81 69.578-213.156z"/><path fill="#12160d" fill-opacity=".322" d="M-12.578 456.747l160.367-78.896L25.4 601.69-62 935.004z"/><path fill="#4e433c" fill-opacity=".514" d="M555.726 321.748l-35.313-140.8-71.973 44.703 290.841 85.81z"/><path fill="#c9f1ff" fill-opacity=".498" d="M791.666 998.961L695.702 1086 898 1049.028 725.145 925.204z"/><path fill="#fec0b1" fill-opacity=".463" d="M521.608 240.33l-14.715 21.27-58.497 27.64 4.106-50.557z"/><path fill="#1345f8" fill-opacity=".349" d="M590.031 783.79l-130.06-59.255 127.98 23.69-4.361 39.839z"/><path fill="#0d39d2" fill-opacity=".396" d="M525.247 482.52L359.516 305.59l-30.954 227.024 77.002-45.15z"/><path fill="#001031" fill-opacity=".31" d="M546.869 967.582l110.203-169.457-95.185 200.822-129.005 15.01z"/><path fill="#7b918f" fill-opacity=".51" d="M89.121 321.105l211.365-38.325-109.076-51.165L267.827-62z"/><path fill="#7a7c6b" fill-opacity=".902" d="M322.952 193.612L217.188-62h122.29L353.72 94.264z"/><path fill="#fad5c8" fill-opacity=".584" d="M494.507 67.216l-126.35 134.808 91.426-136.96 39.844 138.299z"/><path fill="#4e2f05" fill-opacity=".349" d="M449.041 177.904l83.727 46.253-142.303 44.119 44.438-25.064z"/><path fill="#7a6d6c" fill-opacity=".349" d="M780.885 256.21L593.24 354.053l-44.63-228.365 225.867 287.228z"/><path fill="#0927a0" fill-opacity=".573" d="M420.232 593.082l145.649-82.606 33.881-85.18 29.916 116.66z"/><path fill="#3b7bfe" fill-opacity=".467" d="M741.64 617.846l-48.44-31.025 56.636-5.452 51.016 177.772z"/><path fill="#3d3f3c" fill-opacity=".584" d="M898 625.271l-98.622-236.078-94.487 4.736 77.46 230.681z"/><path fill="#5e4777" fill-opacity=".486" d="M677.023 94.241l11.063 78.508 77.254-18.842 23.144-73.882z"/><path fill="#735723" fill-opacity=".49" d="M412.652 280.744l47.4 95.107 41.17-1.672 38.64-109.06z"/><path fill="#b6aab1" fill-opacity=".298" d="M693.11 769.057l-91.478 84.508-2-144.868 97.223 163.64z"/><path fill="#2f61fa" fill-opacity=".447" d="M362.653 937.012l60.846-24.13-62.034 54.453-96.08-22.134z"/><path fill="#c5d6e4" fill-opacity=".486" d="M718.782 454.945l6.309 16.514 40.406 96.457-22.01-22.016z"/><path fill="#2a554d" fill-opacity=".353" d="M773.53 944.73l19.148 36.928 68.573-108.525-82.97-33.296z"/><path fill="#3171ff" fill-opacity=".349" d="M578.125 928.524l-336.14 127.35 191.65-27.194 136.788-134.944z"/><path fill="#ff7440" fill-opacity=".298" d="M61.074 833.764l89.12 30.013 31.801-104.131-98.95-44.902z"/><path fill="#000018" fill-opacity=".455" d="M471.628 891.373l-107.44 99.266-153.569-58.093 135.034 37.713z"/><path fill="#b7d477" fill-opacity=".2" d="M496.98 655.282l-122.006-24.927L395.51 597.9l122.017 10.521z"/><path fill="#0e0f00" fill-opacity=".294" d="M240.78 594.715l-6.445-187.623L170.28 513.64l51.608 72.044z"/><path fill="#1637af" fill-opacity=".569" d="M262.354 646.998l-29.072 48.008 173.291-36.165 34.183 20.69z"/><path fill="#0020b7" fill-opacity=".302" d="M420.635 447.662L564.74 326.479l-4.304 82.933 199.54 78.573z"/><path fill="#4b2903" fill-opacity=".49" d="M450.475 127.997L425.1 150.723l141.526-3.287-44.414 16.038z"/><path fill="#131219" fill-opacity=".255" d="M898 145.393l-238.03 36.102-11.906 181.008 64.101-103.37z"/><path fill="#ff5e3c" fill-opacity=".42" d="M170.945 97.1L124.909-25.537 72.853 61.058l58.433 68.603z"/><path fill="#8ba3a2" fill-opacity=".624" d="M141.154 974.373L-62 944.358l139.19-28.722 23.14-46.594z"/><path fill="#091c64" fill-opacity=".686" d="M637.7 535.625l-93.153 88.752-359.02-97.786 257.156 51.482z"/><path fill="#f6f8f9" fill-opacity=".247" d="M567.307 460.79l-71.83.815L526.31 519.5l26.739 1.122z"/><path fill="#b6e8f5" fill-opacity=".129" d="M320.496 65.513l-8.02 88.43-111.099 114.321-41.098-132.088z"/><path fill="#082fb0" fill-opacity=".608" d="M155.733 466.294l-40.837-1.29-14.358 80.084 40.81-37.515z"/><path fill="#bfffff" fill-opacity=".2" d="M120.38 430.27L36.008 588.307l-21.98 274.677L-62 850.937z"/><path fill="#0b206a" fill-opacity=".929" d="M196.235 889.896l94.648 52.905-67.656-110.067 219.238-50.167z"/><path fill="#011808" fill-opacity=".345" d="M454.623 336.973l56.007-24.865-94.545-16.143-3.8-72.164z"/><path fill="#000a17" fill-opacity=".176" d="M117.923 854.734l2.794 117.71 87.347-183.838 8.42-36.203z"/><path fill="#5d4952" fill-opacity=".675" d="M344.394 110.818l48.455 154.732-117.23 19.58 42.824-72.302z"/><path fill="#f2810d" fill-opacity=".224" d="M83.9 420.917l74.738-40.246-.9-31.576-58.085-83.7z"/><path fill="#d9b282" fill-opacity=".694" d="M562.495 963.48l73.26 24.453 40.271 88.34-110.542-4.065z"/><path fill="#ecd56f" fill-opacity=".161" d="M775.326 622.544l5.551 17.332.422 144.09L898 566.884z"/><path fill="#386eff" fill-opacity=".537" d="M352.499 354.967L160.633 376.04 380.42 275.054l22.392 111.442z"/><path fill="#1130b0" fill-opacity=".533" d="M772.06 758.656l-67.602 67.635-17.463-72.528 80.867-85.217z"/><path fill="#410d00" fill-opacity=".263" d="M207.547-62L202.36 52.346l-14.946 9.681-84.896-65.726z"/><path fill="#849791" fill-opacity=".635" d="M788.196 987.26l4.323-47.24 30.553-11.57L898 986.361z"/><path fill="#154aef" fill-opacity=".49" d="M236.141 1086l28.803-8.71 96.73-86.142-70.303 17.944z"/></svg>