<svg xmlns="http://www.w3.org/2000/svg" width="228" height="278" viewBox="0 0 836 1024"><path fill="#593439" d="M0 0h836v1024H0z"/><g fill-opacity=".502"><path fill="#ff8a82" d="M770 686L506 30 54 670z"/><path fill="#00060d" d="M-62 730L434 30 10-62z"/><path fill="#001" d="M538 74l316 816 28-828z"/><path fill="#480000" d="M502 1066L290 382 30 1086z"/><path fill="#ffeee5" d="M522-62l-76 516 148 100z"/><path fill="#ff2525" d="M442 326l112 604-180 28z"/><path fill="#001228" d="M898 434L610-62l-92 360z"/><path fill="#ffffbd" d="M722 582l36 288 100 40z"/><path fill="#000025" d="M582 514l-64 256 324 316z"/><path d="M530 1062L-30 586l156 468z"/><path fill="#f01d28" d="M218 330l464 276-584-76z"/><path fill="#fff" d="M262 486L138 654l-28-84z"/><path fill="#b77c69" d="M578 578L306 794 82 690z"/><path fill="#ffffce" d="M546 30l4 172L418-22z"/><path fill="#ffa8b8" d="M678 482l-28-140-336-16z"/><path fill="#0046a7" d="M718 94L354-46l544 56z"/><path fill="#001c24" d="M-62-38l472-8L22 674z"/><path fill="#cf0000" d="M666 678l-96-124 100-124z"/><path fill="#6f0000" d="M162 638l268-44-120-160z"/><path fill="#fff" d="M750 626l-76-96 4 116z"/><path fill="#000914" d="M898 974L550 870v216z"/><path fill="#d5ffff" d="M454 370L334 262l40 112z"/><path fill="#114075" d="M110 1086L-62 902 42 318z"/><path fill="#001c29" d="M570 42l-40 248 368 212z"/><path fill="#ff5b60" d="M498 930l-72-260 156-312z"/><path fill="#843200" d="M810 942L638 626l128 120z"/><path fill="#e7e4e6" d="M538 618l-224-16 192 68z"/><path fill="#380000" d="M414 682l-104-20 156 176z"/><path fill="#bd0000" d="M390 402l56 68 76-132z"/><path fill="#020d0d" d="M358 54l-420 80 376 244z"/><path fill="#4f3712" d="M434 342l36-300-112 228z"/><path fill="#001824" d="M898 866L834-62 690 526z"/><path fill="#ff818c" d="M294 342l252 188-264-100z"/><path fill="#fff" d="M794 854l-8-80 112 168z"/><path fill="#ba9ae4" d="M62 1002l32-112-64 8z"/><path fill="#b7d3e6" d="M174 498l-64-8 104-76z"/><path fill="#fffffe" d="M522 302l-80 92 92-268z"/><path fill="#9f0000" d="M378 382l-200-32 136-56z"/><path fill="#d3a199" d="M542 854l-44 140 52 40z"/><path fill="#ffd2de" d="M438 342l36 152 116 60z"/></g></svg>