<svg xmlns="http://www.w3.org/2000/svg" width="228" height="278" viewBox="0 0 836 1024"><path fill="#bfaf76" d="M0 0h836v1024H0z"/><path fill="#929bb5" fill-opacity=".682" d="M-48.285 292.504L898 339.759v-357.4L-62-62z"/><path fill="#e6c223" fill-opacity=".882" d="M238 939.98l-70.613-577.11 518.382 76.338-85.958 582.301z"/><path fill="#000005" fill-opacity=".722" d="M898 1071.403l-588.451-113.62-5.897 5.29L119.996 1062z"/><path fill="#8e4f2a" fill-opacity=".612" d="M455.495 420.923l182.74-362.421L323.963-62l85.615 449.415z"/><path fill="#effffd" fill-opacity=".408" d="M424.846 459.736L-62 340.945l2.555-395.513L252.353 67.01z"/><path fill="#bfd6ff" fill-opacity=".616" d="M626.3 1086l214.066-119.986-157.51-377.768-35.167 22.966z"/><path fill="#ffffe4" fill-opacity=".38" d="M526.382 435.698l207.672 131.51 26.839-346.36-272.315-41.688z"/><path fill="#b29400" fill-opacity=".773" d="M160.61 522.906L-62 612.062l271.208-273.484 207.107 404.12z"/><path fill="#281f2a" fill-opacity=".62" d="M772.481 19.648L708.8 188.584 898 147.19 856.36-6.597z"/><path fill="#cfd2be" fill-opacity=".871" d="M152.713 531.316l-124.38 57.352L200.808 1086l5.147-493.715z"/><path fill="#3a0f2c" fill-opacity=".561" d="M-62 1086L8.28 734.917l41.69-10.22 3.674 349.636z"/><path fill="#08001f" fill-opacity=".42" d="M898 892.367V718.554L740.108 864.932l11.65 33.328z"/><path fill="#030f10" fill-opacity=".431" d="M420.184 33.616l-67.363 94.26L600.097 20.991l50.18 170.806z"/><path fill="#bbccd4" fill-opacity=".984" d="M-62 600.389L38.044-62 392.56 264.042l-244.387 66.065z"/><path fill="#ffdf5d" fill-opacity=".71" d="M578.619 556.969l-188.06 22.587-274.908-270.884L723.972 492.36z"/><path fill="#b05932" fill-opacity=".753" d="M477.293 433.038l73.785-108.204L399.876 183.3l-52.88 151.968z"/><path fill="#5e1407" fill-opacity=".463" d="M236.683 961.53l-54.552-531.033 30.499 20.253 28.304 249.683z"/><path fill="#fadad9" fill-opacity=".714" d="M895.435 700.074l-61.755 67.082-119.074-261.993 23.679-4.819z"/><path fill="#f9c5a6" fill-opacity=".533" d="M383.197-62l167.947 206.072-151.066 2.549L585.842-62z"/><path fill="#c7a001" fill-opacity=".776" d="M668.72 485.496l-30.066 236.812-102.008 35.605-24.305-141.399z"/><path fill="#5c8fe6" fill-opacity=".243" d="M769.514 552.167L555.636-62 898 265.957l-11.07 452.488z"/><path fill="#ffff25" fill-opacity=".349" d="M70.07 520.245L446.736 243.62 143.053 350.28 40.666 456.546z"/><path fill="#ebffa0" fill-opacity=".518" d="M12.337 847.178L174.4 988.095l43.595-189.303-112.422-35.904z"/><path fill="#fffd82" fill-opacity=".62" d="M694.992 398.32l-158.37-124.266-14.237 163.654 224.555 56.6z"/><path fill="#2c0029" fill-opacity=".42" d="M146.585 560.188l-132.499-55.08 2.643 87.603 79.499-47.982z"/><path fill="#f8e05e" fill-opacity=".914" d="M218.656 992.403l38.198-143.637-33.42 17.875 163.835 71.916z"/><path fill="#6c2a03" fill-opacity=".447" d="M779.705 720.362l-122.91-141.236 137.016-65.754-111.594 42.795z"/><path fill="#5c275b" fill-opacity=".306" d="M-62 747.01l183.304-77.717-161.017 355.337L194.662 1086z"/><path fill="#663c44" fill-opacity=".4" d="M898 560.052l-164.643-152.01 29.15 126.108 28.266 43.047z"/><path fill="#ffee5b" fill-opacity=".592" d="M646.96 1024.348L435.356 876.403l-230.081-60.626 370.64 47.308z"/><path fill="#cf5800" fill-opacity=".514" d="M218.754 796.155L194.633 971.56l15.357 100.232 25.499-136.96z"/><path fill="#fff184" fill-opacity=".8" d="M483.009 478.908L312.857 278.117l10.06 6.579L157.722 330.1z"/><path fill="#a9bcc9" fill-opacity=".561" d="M-62-3.107l430.62 261.732-9.12-148.217 39.843-86.458z"/><path fill="#1d1302" fill-opacity=".604" d="M396.96 38.78l11.991 76.135-41.113 56.793-9.987-37.964z"/><path fill="#b1cbe5" fill-opacity=".478" d="M520.946 291.81l41.52-123.626L898 416.453l-202.326-28.812z"/><path fill="#2f3330" fill-opacity=".361" d="M661.412 146.616l-86.263 59.078-39.221-90.338-2.242-162.279z"/><path fill="#e3bf00" fill-opacity=".369" d="M628 815.812L252.15 389.857l-50.47-33 57.674 428.357z"/><path fill="#bc6c20" fill-opacity=".89" d="M640.121 770.862l-7.563 17.565-31.088 113.122 19.735 63.626z"/><path fill="#c0bcf2" fill-opacity=".431" d="M60.314 550.971l113.308 201.296-1.635-242.962L-62 867.274z"/><path fill="#96452f" fill-opacity=".718" d="M383.862 370.877l-30.77-92.719 136.398-12.644-24.1 161.047z"/><path fill="#fab49a" fill-opacity=".537" d="M379.068 182.43l175.685-12.16-4.229 26.265-116.928 17.985z"/><path fill="#92213b" fill-opacity=".545" d="M529.549 488.746l21.272-26.715 23.992 28.908-11.948 27.75z"/><path fill="#aac5d1" fill-opacity=".757" d="M757.345-62l-46.962 173.365-24.01 30.578-91.106-176.141z"/><path fill="#ff8c63" fill-opacity=".384" d="M436.056 619.666l170.42-32.582-288.7-88.278-15.92 45.097z"/><path fill="#ffeb64" fill-opacity=".741" d="M552.721 334.964L528.675 525l-194.93 29.3 196.703-185.823z"/><path fill="#fff" fill-opacity=".184" d="M545.28 1001.59L683.015 764.3l34.943 321.7-53.587-59.45z"/><path fill="#ccdced" fill-opacity=".424" d="M789.561 798.754l-63.136-129.168-74.097-106.325-14.9 296.404z"/><path fill="#5d4500" fill-opacity=".212" d="M118.191 543.715l111.857 37.026 5.437-188.471-109.563 24.836z"/><path fill="#c1a500" fill-opacity=".502" d="M526.862 759.691l144.07-183.438 23.512-122.626-50.516 5.26z"/><path fill="#e67854" fill-opacity=".424" d="M819.352 819.531l-43.62-38.639-80.908-228.08 106.29 93.622z"/><path fill="#26181e" fill-opacity=".235" d="M36.036 1079.802L-62 864.239l183.295-129.775-101.856-30.979z"/><path fill="#590300" fill-opacity=".259" d="M-23.494 750.106l-32.843-213.94 177.434.352-72.679 30.826z"/><path fill="#a88a76" fill-opacity=".761" d="M532.698 74.214l8.42-133.25L238.01 22.286l323.365 30.286z"/><path fill="#ffc8b1" fill-opacity=".522" d="M529.794 105.34l-53.198 71.891-34.548-82.054 55.517-.83z"/><path fill="#fcffee" fill-opacity=".255" d="M758.56 491.578L554.24 315.096l-119.018-36.579 215.586 3.819z"/><path fill="#fff5ff" fill-opacity=".239" d="M841.777 674.319L898 646.025 730.247 505.387l-77.314 32.838z"/><path fill="#ffdf39" fill-opacity=".616" d="M92.022 529.919l35.957-160.95 122.186-10.815-229.698 115.81z"/><path fill="#093a38" fill-opacity=".204" d="M813.318 141.13L781.166-62l-84.463 245.442 62.957 17.86z"/><path fill="#cf9b79" fill-opacity=".325" d="M51.533 1039.021l157.23-113.571-30.82 143.452L22.927 728.075z"/><path fill="#181815" fill-opacity=".839" d="M365.94 993.344l281.958 26.596 11.078 66.06-191.812-53.132z"/><path fill="#d40123" fill-opacity=".388" d="M417.83 407.395l133.26-67.946-84.167 87.435L352.28 299.09z"/><path fill="#e8eae9" fill-opacity=".271" d="M-14.674 557.06L147.72 347.69l186.22-30.385L-62 232.635z"/><path fill="#7c580e" fill-opacity=".51" d="M620.105 550.701l145.676 114.42-5.297 58.041L659.54 556.617z"/><path fill="#f6d816" fill-opacity=".306" d="M449.48 962.775l-211.67-75.07 272.84-318.392 109.708 273.59z"/><path fill="#361900" fill-opacity=".333" d="M404.05 178.36l23.861-36.334 13.422-2.211 85.994 14.77z"/><path fill="#db053e" fill-opacity=".369" d="M299.641 634.766l16.902-138.91 19.201 90.125-32.09 17.494z"/><path fill="#644512" fill-opacity=".792" d="M465.767 350.49l-2.498 48.835-42.81-113.538 73.108 14.68z"/><path fill="#b8b1b0" fill-opacity=".808" d="M898 1006.259l-209.392 11.752L898 910.781l-181.469-31.57z"/><path fill="#c7ccdb" fill-opacity=".561" d="M39.893 566.843l161.865-9.162 1.43 109.681-103.369 49.339z"/><path fill="#becdd5" fill-opacity=".851" d="M345.382 131.211l35.527 116.62L2.842 387.547l283.856-175.195z"/><path fill="#c38159" fill-opacity=".635" d="M360.112 182.358l-.303-49.453 70.64 237.165-37.033-19.257z"/><path fill="#310100" fill-opacity=".094" d="M342.862 693.174L76.186 790.756 94.77 578.815l-59.497 135.69z"/><path fill="#e29b68" fill-opacity=".663" d="M522.485 334.362l24.205-202.364-67.948 239.046 14.862 10.211z"/><path fill="#c75e3a" fill-opacity=".169" d="M727.262 433.102l26.882-173.112 80.43 30.02-74.226 240.22z"/><path fill="#cdd6e9" fill-opacity=".357" d="M795.85 419.666l90.901 157.246-86.575-392.508 40.854-3.822z"/><path fill="#6ea1b7" fill-opacity=".302" d="M775.785-62L586.837 335.233 538.136 179.95l215.668-50.866z"/><path fill="#707a8c" fill-opacity=".318" d="M304.799-62l45.218 135.656-44.046 94.865-40.995 8.98z"/><path fill="#d6b910" fill-opacity=".816" d="M519.924 1001.365l-92.407-73.02 178.926 29.767-173.85 26.326z"/><path fill="#ffdfca" fill-opacity=".6" d="M777.461 718.858l51.904 66.033L898 475.537l-104.12 280.94z"/><path fill="#ffdb1f" fill-opacity=".314" d="M615.024 530.834l-92.603 72.544 205.41-103.732-114.92-123.074z"/><path fill="#edd500" fill-opacity=".333" d="M264.29 361.056l50.74 210.987-100.01-114.235-128.013-42.265z"/><path fill="#5c6b80" fill-opacity=".263" d="M716.26 903.764l124.047 6.79-39.512-129.385-83.228 65.305z"/><path fill="#e2f0a8" fill-opacity=".545" d="M204.167 938.386L102.85 955.587 70.415 802.975l145.791-61.424z"/><path fill="#ffed79" fill-opacity=".42" d="M270.037 804.107l-37.501-50.064 124.444 97.614-162.9-32.506z"/><path fill="#668200" fill-opacity=".212" d="M138.741 471.61l263.134 251.25-221.781-328.308 5.072 4.263z"/><path fill="#1d1d19" fill-opacity=".549" d="M117.136 1086l.987-10.747 283.373-103.896-120.854-3.831z"/><path fill="#e97d40" fill-opacity=".663" d="M323.543 480.138l49.361-4.733-18.097-32.964-26.773 6.46z"/><path fill="#b7cfd9" fill-opacity=".533" d="M723.988 367.793l-211.375-77.748 133.662-107.3 62.167 18.977z"/><path fill="#3d2b19" fill-opacity=".216" d="M636.876 77.503l-30.68 130.623-139.14-186.09-108.421 82.284z"/><path fill="#c0920b" fill-opacity=".729" d="M405.265 576.781l115.298 130.812-18.892-16.884 47.777 18.581z"/><path fill="#ffef7a" fill-opacity=".51" d="M293.138 955.535l-72.509-47.608 248.419 35.917-240.887 30.253z"/><path fill="#794609" fill-opacity=".541" d="M178.323 515.966l-45.279-14.156 93.44 7.985 5.715 156.68z"/><path fill="#63352b" fill-opacity=".51" d="M518.742 250.931l-92.612 8.916-.505.329 68.195-24.736z"/><path fill="#c0784f" fill-opacity=".647" d="M16.911 547.11l46.643-55.897L-62 531.253l76.705 153.893z"/><path fill="#ba5d09" fill-opacity=".478" d="M624.107 966.25L636.3 821.964l-3.915-7.484-37.1 90.572z"/><path fill="#fa2e45" fill-opacity=".529" d="M451.773 604.99l-2.665-31.059 9.814-46.188 10.8 33.218z"/><path fill="#590400" fill-opacity=".235" d="M898 123.952l-146.067 27.881 31.257-102.61L898-5.85z"/><path fill="#fff381" fill-opacity=".596" d="M413.728 923.715l190.241 24.569-4.373 50.523 16.368-76.262z"/><path fill="#d178a7" fill-opacity=".435" d="M184.942 517.364l-26.849-6.756-38.667 38.738 78.608 40.838z"/><path fill="#d2dee1" fill-opacity=".733" d="M657.207 574.094L686.185 773.3l1.368 312.7-60.695-96.2z"/><path fill="#ffff65" fill-opacity=".455" d="M500.615 949.817l16.139 38.324 103.366 30.12-15.122-44.059z"/><path fill="#b4c9d3" fill-opacity=".839" d="M87.916 397.514L273.914 57.003l-57.63-46.215-145.87 136.774z"/><path fill="#a95b58" fill-opacity=".247" d="M710.22 1025.78l39.307-66.83L879.7 1086l-358.906-72.383z"/><path fill="#d3bc00" fill-opacity=".706" d="M254.37 690.578l-25.597-67.87 2.747-65.663L430.49 749.06z"/><path fill="#fffd70" fill-opacity=".271" d="M500.896 671.923L270.802 409.52l-4.615 100.182 140.637 6.339z"/><path fill="#341b0f" fill-opacity=".282" d="M822.774 879.05l50.682-154.14-97.373 136.936-5.196 14.22z"/><path fill="#8d0100" fill-opacity=".118" d="M596.326 639.146l-94.823-11.357 27.73-49.244 205.002-32.178z"/><path fill="#fff183" fill-opacity=".58" d="M590.36 341.653l159.261 125.65-93.192-27.268-261.821 30.832z"/><path fill="#c7aa00" fill-opacity=".439" d="M116.086 564.233l105.52-181.954L67.02 448.377l9.878 3.755z"/><path fill="#c1ccd8" fill-opacity=".631" d="M60.76 610.553l49.112-71.361-75.74 50.283L6.13 751.103z"/><path fill="#000208" fill-opacity=".145" d="M-.42 1047.168l204.59-28.768-159.55-23.324-93.367-236.57z"/><path fill="#f3074e" fill-opacity=".306" d="M431.262 602.692l-19.782 4.72-22.35-36.415-4.816-35.671z"/><path fill="#718788" fill-opacity=".396" d="M677.86 134.444L547.643-62 631.5 170.522l153.53 24.002z"/><path fill="#e4b70b" fill-opacity=".859" d="M613.05 686.674l-82.988 86.61 101.475 24.207 10.332-48.02z"/><path fill="#cab1a4" fill-opacity=".463" d="M409.863 9.972L486.17 6.92 322.79 85.742l17.232 47.146z"/><path fill="#280f00" fill-opacity=".314" d="M363.939 187.664l7.093 6.62 69.86-157.082-83.195 103.03z"/><path fill="#fbaa88" fill-opacity=".431" d="M817.37 655.408l-11.488 89.951-106.218-181.554 27.958-16.862z"/><path fill="#f9e45e" fill-opacity=".761" d="M307.34 864.978l95.968 51.337-24.716-4.878-125.578-58.571z"/><path fill="#c9d2d4" fill-opacity=".667" d="M898 898.805l-152.564 35.259-111.58-5.806 244.012 83.21z"/><path fill="#eaae94" fill-opacity=".62" d="M472.566 86.297L414.88 104.79l131.33 112.816-71.535-13.187z"/></svg>