<svg xmlns="http://www.w3.org/2000/svg" width="228" height="278" viewBox="0 0 836 1024"><path fill="#796e81" d="M0 0h836v1024H0z"/><g fill-opacity=".502"><path fill="#fffffe" d="M-62 42v436l960-316z"/><path fill="#000032" d="M710 326l-92 760-496-140z"/><path fill="#ffffd2" d="M874-2l-24 480-400-364z"/><path fill="#000042" d="M10 790l360-516L62 442z"/><path fill="#7a0f56" d="M538-54L198 554l300 528z"/><path fill="#fffffe" d="M362 182L22 66l-84 524z"/><path fill="#001577" d="M454 254l420 168-4 356z"/><path fill="#fff" d="M106 598l116-36-40 312z"/><path fill="#050000" d="M654-30L322 166l12-208z"/><path fill="#0031c9" d="M386 1086H178l84-768z"/><path fill="#000007" d="M570 414l120 412-208 260z"/><path fill="#fff2c9" d="M98 74l388 140-84 200z"/><path fill="#00093a" d="M-62 930l196-472-52 412z"/><path fill="#ffe3b0" d="M730 526l-136-24 68 108z"/><path fill="#000444" d="M22 518l260 68-92-232z"/><path fill="#f8f0cf" d="M898 366L530-42v320z"/><path fill="#dde291" d="M618 1034l84-356 36 364z"/><path fill="#ffffe8" d="M26 346L14 914l-76-296z"/><path d="M630 614l188-28 80 124z"/><path fill="#ffffe9" d="M142 562L90 790l152-104z"/><path fill="#053aa7" d="M130 390l192 252V302z"/><path fill="#ca0044" d="M354 706l120 296-44-648z"/><path fill="#fdfede" d="M342 30l-404 96L62 486z"/><path fill="#003cba" d="M550 282l176 80-164 208z"/><path fill="#1a2711" d="M470 278l68 160-8-356z"/><path fill="#0b000c" d="M682 602l-372 484 304-60z"/><path fill="#454516" d="M478 94L782-62-18-2z"/><path fill="#ebe1c5" d="M506 14l252 392L898 86z"/><path fill="#7f8e3d" d="M750 1086l-68-456 216 96z"/><path fill="#0032a1" d="M538 330l264 300 96-132z"/><path fill="#ffcc7a" d="M550 442l-96 24 100 76z"/><path fill="#938f53" d="M186 758l-248 280 256 48z"/><path fill="#000218" d="M242 490L38 514 22 670z"/><path fill="#67207e" d="M286 774l96-376 72 688z"/><path fill="#c89c81" d="M510 98l-68 316-140-248z"/><path d="M494 382l92-92-156 48z"/><path fill="#001a63" d="M54 478l52 408-92-164z"/><path fill="#1c1404" d="M490-6L306 114l220-8z"/><path fill="#beb682" d="M-62 62l444-48-188 88z"/><path fill="#fffff2" d="M210 570l-60 4 60 204z"/></g></svg>