<svg xmlns="http://www.w3.org/2000/svg" width="228" height="278" viewBox="0 0 836 1024"><path fill="#515971" d="M0 0h836v1024H0z"/><path fill="#60a2e5" fill-opacity=".659" d="M12.174 633.056l351.942-385.157 303.69 819.065-314.853-30.582z"/><path fill="#2b1927" fill-opacity=".749" d="M898 723.9L894.17-62l-408.995 5.95 177.593 735.153z"/><path fill="#f5f7fa" fill-opacity=".769" d="M532.04 777.864L418.049 1086l102.345-52.164 95.91-99.426z"/><path fill="#2d63a6" fill-opacity=".996" d="M348.65 377.782l-17.022 484.34 264.786-105.341-31.92-422.934z"/><path fill="#a74200" fill-opacity=".357" d="M-62 454.245L40.11-62h441.368l91.258 316.469z"/><path fill="#c8d4fa" fill-opacity=".675" d="M339.752 865.795L407.899 1086 223.486 829.894 328.248 317.97z"/><path fill="#39060d" fill-opacity=".565" d="M-62 45.555l91.5 529.181 165.354-175.673L33.33-62z"/><path fill="#0262b6" fill-opacity=".8" d="M274.758 390.36L67.538 697.028l136.176 253.548 87.849-555.932z"/><path fill="#febd9a" fill-opacity=".561" d="M373.704 63.51l120.484 202.696 45.939-99.171-28.938-110.58z"/><path fill="#150f0e" fill-opacity=".643" d="M718.266 1086L605.064 903.258 898 862.056 828.633 1086z"/><path fill="#291402" fill-opacity=".482" d="M258.913 865.895L64.595 929.28-62 1054.656l425.27 17.574z"/><path fill="#a1d7f6" fill-opacity=".545" d="M505.111 333.466l-21.402 90.928 86.302 111.732 48.296-118.09z"/><path fill="#93949c" fill-opacity=".745" d="M388.288 724.629l41.421-167.545 61.076-20.033 18.963 192.018z"/><path fill="#f1f4fe" fill-opacity=".718" d="M415.133 416.026l-86.354-113.76 11.142-21.915 84.668 95.89z"/><path fill="#a37e48" fill-opacity=".522" d="M29.29 1086L-62 619.087l206.289-142.224-68.597 215.469z"/><path fill="#0f5eb9" fill-opacity=".992" d="M539.839 790.625l70.437 107.76 64.178-16.75L538.603 644.99z"/><path fill="#a8bdd9" fill-opacity=".886" d="M524.624 917.254L408.793 1086l-158-181.101-17.978 38.876z"/><path fill="#d3d3d2" fill-opacity=".753" d="M238.334 370.466l-28.91 142.167-68.772-10.577 67.526-105.9z"/><path fill="#052d7a" fill-opacity=".941" d="M416.078 627.612l-72.932-136.344-7.435 342.998 121.8-347.856z"/><path fill="#0a0304" fill-opacity=".518" d="M346.484 283.635l113.212 124.24-57.719 6.134L515.28 270.321z"/><path fill="#0a1638" fill-opacity=".718" d="M896.237 645.145L553.299 601.49l59.376-178.348 249.54-11.576z"/><path fill="#c3c4fd" fill-opacity=".345" d="M579.809 730.053l76.337 142.555 40.309-3.074 57.98-87.607z"/><path fill="#0059bd" fill-opacity=".831" d="M398.037 632.405l-99.731-325.138-125.191 95.285 173.904-61.813z"/><path fill="#07173f" fill-opacity=".714" d="M197.706 703.09L304.29 430.123l-50.058 152.713-22.79 201.145z"/><path fill="#c5c8d1" fill-opacity=".722" d="M104.556 601.22l26.996-24.144 79.24 41.47 17.594 22.81z"/><path fill="#7a7997" fill-opacity=".616" d="M662.3 11.974l37.204 93.723-80.331 20.801-34.027-62.551z"/><path fill="#003585" fill-opacity=".537" d="M530.597 719.75l-138.047-2.666-52.37-47.819-.746 272.573z"/><path fill="#131006" fill-opacity=".596" d="M374.389 19.342L853.626-62 337.083 79.838l-3.278-18.516z"/><path fill="#826e56" fill-opacity=".765" d="M537.757 140.467l-88.944-18.851L101.36-62l96.032 384.969z"/><path fill="#544158" fill-opacity=".992" d="M638.578 410l13.116-195.389-134.369 1.273-17.479 116.044z"/><path fill="#293067" fill-opacity=".549" d="M347.614 625.199l141.294 16.732L898 794.967V521.884z"/><path fill="#1586d6" d="M640.19 979.839l-30.61-22.945-80.513 70.155 196.269 43.85z"/><path fill="#e4ebf2" fill-opacity=".882" d="M518.531 772.021l13.786-86.926 7.676 125.564 15.655 164.979z"/><path fill="#e3eaf8" fill-opacity=".984" d="M334.997 453.995L306.63 364.87l-18.281 4.244 49.432 191.2z"/><path fill="#025dc5" fill-opacity=".722" d="M501.58 414.913L397.855 616.019 287.567 285.733l269.046 316.902z"/><path fill="#0081e5" fill-opacity=".722" d="M167.325 873.258l84.09-.808-101.667-261.823-62.018-6.03z"/><path fill="#c0f2ff" fill-opacity=".392" d="M473.87 464.526l61.04-101.2-168.694 123.12 3.592-67.979z"/><path fill="#490800" fill-opacity=".38" d="M637.27 265.17L898 276.654l-93.893 237.418-203.606-47.202z"/><path fill="#f3b396" fill-opacity=".553" d="M367.983 67.022l-25.839 51.161 161.174 9.243 7.735-60.868z"/><path fill="#026ccf" fill-opacity=".745" d="M276.182 384.31l-66.741 15.634 71.932 109.592 24.867 1.537z"/><path fill="#0569c4" fill-opacity=".945" d="M143.567 507.05l72.138 4.179 35.528 62.868-145.002 8.707z"/><path fill="#fef4f9" fill-opacity=".553" d="M602.425 444.98l-27.128-131.32 12.274 52.067-23.254 183.88z"/><path fill="#edeff2" fill-opacity=".376" d="M405.004 918.258L219 926.14l123.977 54.477-122.01-162.035z"/><path fill="#835933" fill-opacity=".459" d="M40.23 973.742l29.46-269.41 50.878 99.288 82.143 130.572z"/><path fill="#0c131f" fill-opacity=".624" d="M269.47 1086l-79.507-158.432 136.389 43.335L331.791 1086z"/><path fill="#035fb8" fill-opacity=".663" d="M421.984 345.247l116.952 41.884 19.653 151.478 21.977-119.713z"/><path fill="#023a83" fill-opacity=".373" d="M424.533 979.543l-197.557 42.516 179.72-58.656 119.902-33.16z"/><path fill="#4a1a0c" fill-opacity=".51" d="M551.528 122.776l-172.74 3.791-2.081 50.46 191.68-69.655z"/><path fill="#faa88c" fill-opacity=".443" d="M525.503 162.366l16.594 35.781-207.251 18.56 16.248-31.7z"/><path fill="#5cadfd" fill-opacity=".369" d="M225.34 989.817l-35.744-55.424-6.212 146.283 43.41-4.28z"/><path fill="#e4ebf5" fill-opacity=".737" d="M383.532 1086l5.882-53.074 205.608-161.344 24.156 78.901z"/><path fill="#78a5c8" fill-opacity=".976" d="M390.296 916.001l53.126-35.996 79.976-81.952-12.822 105.045z"/><path fill="#fffef4" fill-opacity=".333" d="M463.005 50.426l5.12 7.7 65.162 131.131L519.48 69.05z"/><path fill="#001049" fill-opacity=".529" d="M250.781 562.423l3.625-28.992-19.852-58.632 65.13 30.652z"/><path fill="#44bbf6" fill-opacity=".506" d="M566.114 710.752L549.93 610.46l32.307 70.272 63.189 165.975z"/><path fill="#ffbdc3" fill-opacity=".086" d="M777.885 146.1L898 179.44 579.35 415.507l-45.744-74.85z"/><path fill="#050208" fill-opacity=".4" d="M271.403 912.216l-62.908-44.08L170.885 1086l-121.91-79.049z"/><path fill="#00070f" fill-opacity=".478" d="M607.24 932.244l43.442-50.882L820.352 1086l-82.318-3.946z"/><path fill="#0050b8" fill-opacity=".761" d="M494.424 554.495l-45.5-160.048-78.962 200.326-34.938-152.121z"/><path fill="#12344d" fill-opacity=".459" d="M-6.074-62L-62 199.144l129.58-58.742L111.305-48.08z"/><path fill="#fff3d7" fill-opacity=".325" d="M477.59 635.984l17.213-88.8-55.236-.426-1.971 35.55z"/><path fill="#4c424f" fill-opacity=".729" d="M656.047 891.754l118.875-69.062L898 878.98l-180.397 55.594z"/><path fill="#abbce9" fill-opacity=".757" d="M229.1 797.008l15.562-107.975 15.97-135.731 74.454 174.762z"/><path fill="#d8dfee" fill-opacity=".725" d="M327.133 290.546l12.791-26.295 80.377 131.654-61.483-44.717z"/><path fill="#fbfff4" fill-opacity=".439" d="M600.685 441.171l-50.014-8.525-89.533-.292 41.662-27.199z"/><path fill="#524353" fill-opacity=".6" d="M613.702 764.661l264.492-92.94 14.72 42.538-332.763-118.773z"/><path fill="#c1d2f5" fill-opacity=".576" d="M341.793 1086l159.589-117.125-139.885 24.585-79.606-324.678z"/><path fill="#0048a7" fill-opacity=".506" d="M471.286 450.528l63.872-58.944-23.22-7.646 77.303 459.229z"/><path fill="#1c0f00" fill-opacity=".302" d="M898 145.913L728.106 21.563l-60.222 261.33-151.746-160.526z"/><path fill="#68000d" fill-opacity=".294" d="M216.604 299.578L96.94 167.612-62 237.994 80.279 441.31z"/><path fill="#0061b0" fill-opacity=".584" d="M340.654 846.635L530.58 700.729 513.613 801.28l-92.578 57.799z"/><path fill="#022967" fill-opacity=".584" d="M507.882 697.956l-13.634-169.509 30.587 75.85 96.345-109.354z"/><path fill="#021b38" fill-opacity=".443" d="M328.316 924.425l139.686-8.124-102.183 20.825-22.918-5.85z"/><path fill="#2b0500" fill-opacity=".38" d="M411.149 245.043l60.111-39.204 5.721 152.88-70.016-35.455z"/><path fill="#e7e4de" fill-opacity=".612" d="M394.277 708.674l12.94-70.015 5.473 81.442 34.809-52.543z"/><path fill="#5e5846" fill-opacity=".616" d="M-62 394.441l83.358 210.265 305.875-445.002-200.688 353.623z"/><path fill="#ffedde" fill-opacity=".49" d="M372.908 471.841l15.893 4.473 35.801-38.822-20.883-1.213z"/><path fill="#00297d" fill-opacity=".745" d="M351.999 804.544l169.418-86.502-180.674 8.658L455.82 487.786z"/><path fill="#e29e7c" fill-opacity=".596" d="M488.99 43.693L403.845 69.89l.203 25.701 40.168 74.352z"/><path fill="#0471d4" fill-opacity=".933" d="M354.01 461.081l71.904-34.944-132.095-82.362 46.426 77.392z"/><path fill="#0066bd" fill-opacity=".588" d="M518.587 387.915L503.48 318.36 347.14 452.293l74.547-57.956z"/><path fill="#ffab7e" fill-opacity=".31" d="M558.623 473.666l-32.087-69.834-6.305 37.929.671 73.096z"/><path fill="#787984" fill-opacity=".533" d="M618.845 947.932l68.533 19.128-129.966-42.41 33.146-21.258z"/><path fill="#e6d9d7" fill-opacity=".427" d="M203.626 612.714l20.166 41.363-11.86-7.33-138.558-92.334z"/><path fill="#c7703d" fill-opacity=".255" d="M521.851 254.004l-40.62 93.751L347.817 88.608l-2.138 162.097z"/><path fill="#bcc0c1" fill-opacity=".745" d="M157.157 461.444l-6.752 43.594 81.67-57.57-22.043-61.382z"/><path fill="#12181c" fill-opacity=".596" d="M832.531 447.28L898 497.17l-311.345 35.032 32.366-153.707z"/><path fill="#260000" fill-opacity=".318" d="M498.933 104.9l-102.76 78.362-10.622-60.75 118.276 51.177z"/><path fill="#fffeff" fill-opacity=".647" d="M577.48 958.436l-61.597 3.693 12.491-207.771 28.864 106.678z"/><path fill="#faffff" fill-opacity=".337" d="M552.56 338.638l51.798 144.044 1.64-65.53-38.036-48.256z"/><path fill="#94816c" fill-opacity=".482" d="M124.506 815.994L80.034 714.081l28.482-184.937L-62 714.12z"/><path fill="#2e1b1b" fill-opacity=".439" d="M500.09-61.33l38.195 254.068-42.95 123.325L611.6 192.467z"/><path fill="#116bc2" fill-opacity=".984" d="M249.276 332.254L293.22 496.49l10.292-18.014-7.427-66.488z"/><path fill="#315a8d" fill-opacity=".878" d="M539.692 675.036L443.7 683.53l-68.777-20.256-26.835-1.611z"/><path fill="#63e5ff" fill-opacity=".486" d="M703.326 1066.606l-33.603-21.29-59.502-77.538 36.583 10.78z"/><path fill="#023f9c" fill-opacity=".647" d="M624.462 889.835l-5.558 30.338-78.047-130.08-2.775-152.334z"/><path fill="#0e315e" fill-opacity=".573" d="M240.248 702.375l-23.333 199.008 10.563-92.23-48.227-152.773z"/><path fill="#359ce1" fill-opacity=".988" d="M474.421 380.908l104.926 1.425-61.625-35.27 63.195 67.185z"/><path fill="#87a0d9" fill-opacity=".843" d="M261.276 700.368l40.676-228.83 40.05 154.12-85.139-76.64z"/><path fill="#2cb2f7" fill-opacity=".561" d="M273.198 887.442l-35.453-22.34-58.803-205.939-12.337 69.052z"/><path fill="#ede6e4" fill-opacity=".722" d="M239.046 1086l-21.826-99.248-6.372 99.248H34.103z"/><path fill="#ebdabe" fill-opacity=".341" d="M397.037 634.5l112.333 8.834-14.849 20.325-83.994 5.08z"/><path fill="#646853" fill-opacity=".341" d="M319.81-62L39.032 45.21l73.354 174.373 240.248-104.856z"/><path fill="#000844" fill-opacity=".294" d="M395.448 559.881l-54.973 4.84-3.105 98.023 109.895-57.996z"/><path fill="#071e58" fill-opacity=".643" d="M826.224 640.733L873.66 1086 898 532.549l-327.258 10.927z"/><path fill="#cbd8e7" fill-opacity=".82" d="M370.48 970.389l183.258-77.685-56.233 12.699-181.337 73.008z"/><path fill="#aec9e1" fill-opacity=".867" d="M231.665 373.648l2.923 14.223-23.633 14.756 51.998-18.708z"/><path fill="#dee7fd" fill-opacity=".576" d="M337.312 505.821l-37.978-144.75 3.116 121.437 35.5 129.75z"/><path fill="#daad99" fill-opacity=".604" d="M454.267 169.016l-10.788 37.062 97.039-69.309-4.729 72.669z"/><path fill="#1a1a20" fill-opacity=".839" d="M314.558 1086h-84.119l-6.704-98.957 39.629-55.47z"/><path fill="#fffbfb" fill-opacity=".427" d="M335.802 932.087l22.84 42.93-123.625-60.374 46.118 42.855z"/><path fill="#0147a9" fill-opacity=".729" d="M360.52 370.652l-108.416-12.716 68.874-51.81 16.966 34.36z"/><path fill="#70aecd" fill-opacity=".663" d="M524.143 754.726L401.55 885.436l-159.478-99.253L411.64 899.026z"/><path fill="#c1d0f6" fill-opacity=".675" d="M332.85 704.594l6.9-98.674-64.327 108.337 57.627 186.547z"/><path fill="#00154c" fill-opacity=".792" d="M471.104 354.224l24.61-6.762-122.597-38.911 43.356 54.203z"/><path fill="#021838" fill-opacity=".627" d="M474.493 410.514l-27.719-8.198-9.701-16.224-54.893 23.052z"/><path fill="#ffe6e7" fill-opacity=".345" d="M447.876 420.193l65.297-23.16-49.72 71.321 16.917 3.684z"/><path fill="#fdf9fb" fill-opacity=".49" d="M473.954 550.732l-38.097 8.347 24.766-21.485 41.112 28.904z"/><path fill="#0773d4" fill-opacity=".706" d="M481.067 458.766l6.806-78.476-48.088-13.103 122.788 183.159z"/><path fill="#0068c6" fill-opacity=".914" d="M193.269 889.874l58.248-20.338-143.625-121.812 18.99 58.17z"/></svg>