<svg xmlns="http://www.w3.org/2000/svg" width="228" height="278" viewBox="0 0 836 1024"><path fill="#605764" d="M0 0h836v1024H0z"/><g fill-opacity=".502"><path fill="#00002a" d="M-26 462l696-136 80 760z"/><path fill="#fcfff9" d="M362 182l472-24 64 340z"/><path fill="#f4f5e6" d="M698 562l108 524 92-468z"/><path fill="#d3c2b3" d="M-62 958l360-300 44 428z"/><path fill="#000030" d="M286 1086l312-772 196 772z"/><path fill="#ddb48c" d="M662-62L194 382l52-284z"/><path fill="#cbb19c" d="M-38 854l148-432 60 664z"/><path fill="#311400" d="M274-62L-50 274l216 112z"/><path fill="#86422e" d="M342 814L314-62l184 224z"/><path fill="#beb8ad" d="M562 626L394 734l-144-52z"/><path fill="#4d270c" d="M14 722l228 116 12 168z"/><path fill="#000f66" d="M218 282l-4 464-112-72z"/><path fill="#000135" d="M494 286l-96 168 456 124z"/><path fill="#efffff" d="M898 210l-360-52-56 140z"/><path fill="#959ca3" d="M874-62L362 6l432 188z"/><path fill="#290015" d="M418 1082l204-344-324-12z"/><path d="M222 62L330-2l108 80z"/><path fill="#d5854b" d="M250 582l244-88-12 76z"/><path fill="#466681" d="M778 550L598 322l300-32z"/><path fill="#c8986d" d="M438 314L382 86l-272 44z"/><path fill="#d7bca1" d="M178 246l152 192-40-256z"/><path fill="#0042a3" d="M134 390l128-52-140 384z"/><path fill="#cfd5d8" d="M826 642l-120-8 16 196z"/><path fill="#002664" d="M598 1086l-72-564 268 440z"/><path d="M162 470l100 168-72 124z"/><path fill="#000116" d="M718 378l-28 248H362z"/><path fill="#d3d7e5" d="M254 650l76 176-128-36z"/><path fill="#cfd5e8" d="M26 602l100-104-8 120z"/><path fill="#da0649" d="M646 726l68 84-64-192z"/><path fill="#c7d2e3" d="M250 1074l-180-40 64-180z"/><path fill="#585551" d="M426 226l236-112L546-30z"/><path fill="#402920" d="M290-38L74 70l24 440z"/><path fill="#002f7d" d="M470 286l24 180 176-120z"/><path fill="#bad0ed" d="M454 122L398-6l136-48z"/><path fill="#6c0259" d="M486 454L282 598l-32-204z"/><path fill="#231f00" d="M346 382l52-88-128-4z"/><path fill="#0a0700" d="M114 854l-76-40 156 24z"/><path fill="#a39c8e" d="M566 238l280 304 52-232z"/><path fill="#000455" d="M782 434l36 52-88 104z"/><path fill="#fecfab" d="M258 146l-12-72 152 20z"/></g></svg>