<svg xmlns="http://www.w3.org/2000/svg" width="228" height="278" viewBox="0 0 836 1024"><path fill="#5a796f" d="M0 0h836v1024H0z"/><g fill-opacity=".502"><path fill="#004e0e" d="M238 990L98 734 446 94z"/><path fill="#0c0c00" d="M594-6L270 126l316 268z"/><path fill="#ebbfc3" d="M498 50l316 112 84 344z"/><path fill="#cbbfe1" d="M886 686L714 466 418 690z"/><path fill="#b9dedd" d="M290 766l176-600 40 280z"/><path fill="#c0c4ee" d="M98 774L-62 530l260-92z"/><path fill="#001200" d="M82 398l300-92-16 232z"/><path fill="#000d00" d="M354 782l236-308-88-52z"/><path fill="#00000a" d="M126 94L-46-62 74 370z"/><path fill="#f7b2ac" d="M230 354L78-62 262 62z"/><path fill="#3ee8ac" d="M330 606L194 854l236 232z"/><path fill="#040" d="M478 1086l-80-440-44 180z"/><path fill="#00501c" d="M626 502l84-236 96 236z"/><path fill="#2ef3b7" d="M414 330l56-136-224 56z"/><path fill="#ece5ff" d="M370-18l128-40-60 168z"/><path fill="#d6ddce" d="M582 570l8-268 84 4z"/><path fill="#2b260c" d="M590 318L234 146l412-48z"/><path fill="#004217" d="M182 922l88-696 116 224z"/><path fill="#00002a" d="M898 254L770-18l-72 40z"/><path fill="#e6d2d1" d="M898 526L794 186l-12 376z"/><path fill="#008956" d="M86 738l104-200 144 548z"/><path fill="#c5e5ff" d="M346 66l-96 48L350-62z"/><path fill="#898097" d="M494 1086l404-260-464-168z"/><path fill="#c7bebe" d="M194 362L2 370l300-112z"/><path fill="#ffdcfe" d="M306 750l-8-104 88 120z"/><path fill="#eecbc8" d="M794 154l-136 72-136-56z"/><path fill="#005b42" d="M114 174L-62 398l288-120z"/><path fill="#721f00" d="M-18 518l204-168-168 44z"/><path fill="#dcd8f0" d="M486 486l12-196-104 24z"/><path fill="#00a763" d="M770 326l-164-88 204 280z"/><path fill="#002127" d="M430 190L382 14 250 206z"/><path fill="#04ac74" d="M498 286l-284 28 260-128z"/><path fill="#105b18" d="M506 358l-20 68 220-28z"/><path fill="#9b9bb6" d="M118 410l28 200 116-176z"/><path fill="#d7aeb2" d="M806 534l-132-80-36 244z"/><path fill="#a55c5f" d="M734 46L478 98l348 64z"/><path fill="#00a572" d="M206 758l240 8-244 112z"/><path fill="#94e2cc" d="M274 246l152-40-20 60z"/><path fill="#003100" d="M366 686l172-104 56-168z"/><path fill="#2f1b20" d="M718 46L458 86l56-148z"/></g></svg>