<svg xmlns="http://www.w3.org/2000/svg" width="228" height="278" viewBox="0 0 836 1024"><path fill="#756d73" d="M0 0h836v1024H0z"/><path fill="#210c1a" fill-opacity=".745" d="M195.862 1078.802l535.561-83.931-70.502-669.653-477.37 79.23z"/><path fill="#fff4ea" fill-opacity=".545" d="M276.226-62l152.695 189.915L-62 899.912 91.624 74.094z"/><path fill="#b2dffd" fill-opacity=".667" d="M898 546.807L791.995 1086 679.894 602.429l22.455-156.565z"/><path fill="#fff7f6" fill-opacity=".525" d="M898 360.529l-300.273-12.396-59.653-253.225 210.83 1.838z"/><path fill="#fff5f4" fill-opacity=".576" d="M114.04 1043.47l72.33-43.595-17.157-332.772L-62 791.677z"/><path fill="#eaa1a5" fill-opacity=".647" d="M384.135 585.768l-17.288 188.208 107.727-2.147 43.224-183.167z"/><path fill="#7491a3" d="M722.749 1082.597L572.995 757.92 613.348 1086 898 889.472z"/><path fill="#530900" fill-opacity=".396" d="M478.015-62l-92.444 345.887L-62 402.778l736.1 84.568z"/><path fill="#fffdec" fill-opacity=".475" d="M156.216 167.814l278.16 235.495-138.26-438.492-50.726-13.471z"/><path fill="#0db0fc" fill-opacity=".455" d="M135.673 186.227L98.16 202.754-62 76.997 211.727-62z"/><path fill="#180001" fill-opacity=".745" d="M131.663 557.13l183.926-181.26L247.796 1086l-78.313-507.852z"/><path fill="#0f0c05" fill-opacity=".631" d="M676.245 800.507l-289.163-583.27L684.738 389.34l6.198 83.848z"/><path fill="#34301d" fill-opacity=".635" d="M353.368 97.504l197.145-7.918L450.718-26.66 312.526 66.224z"/><path fill="#fdfbef" fill-opacity=".357" d="M843.994 222.647l-290.338-50.265-37.756 111.01 165.439 86.274z"/><path fill="#080711" fill-opacity=".973" d="M564.074 772.511L605.178 1086 446.06 985.09l12.234-199.875z"/><path fill="#ffe1c6" fill-opacity=".588" d="M-37.388 820.652l-4.019-544.462 144.545 564.204L262.866 1086z"/><path fill="#af1034" fill-opacity=".533" d="M179.14 363.53l257.547-118.367-307.965 338.331 98.479-183.851z"/><path fill="#6f504c" fill-opacity=".741" d="M592.712 576.477L408.973 626.72l69.87 153.306 76.436-5.221z"/><path fill="#3b1e00" fill-opacity=".561" d="M96.605 705.452l249.36-256.235L58.652 698.594l51.805 162.245z"/><path fill="#fdc496" fill-opacity=".478" d="M320.433 109.351l135.934-36.355-15.154 170.97-104.337-11.35z"/><path fill="#ffe1d7" fill-opacity=".416" d="M287.48 171.302L163.243 388.853 7.232 657.824l119.6-6.696z"/><path fill="#90949e" fill-opacity=".757" d="M898 273.796L865.13 28.44 530.67 80.594l349.263 194.322z"/><path fill="#00316e" fill-opacity=".596" d="M379.655 346.91l-18.885 661.52-70.201-145.755 23.85-490.7z"/><path fill="#9c8779" fill-opacity=".718" d="M123.962 464.21l76.451-130.456L26.121 186.041-62 472.211z"/><path fill="#00000a" fill-opacity=".69" d="M325.789 1086L161.8 849.35l34.038-22.366 211.959 147.13z"/><path fill="#fd4461" fill-opacity=".341" d="M369.345 306.147L500.738 444l-45.364 72.433-70.54 5.679z"/><path fill="#141600" fill-opacity=".569" d="M450.025 161.32l79.554-134.846 21.987 179.375-201.214-27.627z"/><path fill="#91aad1" fill-opacity=".925" d="M197.253 794.788l-41.34 114.554-65.108-191.879 79.272-75.038z"/><path fill="#dde3dd" fill-opacity=".878" d="M205.106-62l35.11 409.367 93.327-316.04L457.33-4.67z"/><path fill="#001300" fill-opacity=".302" d="M718.623 1086l138.544-80.303-99.41-61.804-212.251-319.808z"/><path fill="#ebfffd" fill-opacity=".482" d="M365.13 771.089l195.686-15.154-167.491-3.859-2.875-194.467z"/><path fill="#7d9ab2" fill-opacity=".973" d="M40.135 876.038L119.043 1086H-21.98l-28.357-179.009z"/><path fill="#d40017" fill-opacity=".729" d="M455.817 750.666l49.198-23.603-107.766-16.965-24.645 35.264z"/><path fill="#bfcfdc" fill-opacity=".745" d="M750.581 969.339l-10.2-56.806 80.482-142.96L898 925.19z"/><path fill="#cfdcdd" fill-opacity=".663" d="M686.336 543.335l5.4 113.596 10.822 64.859L898 575.078z"/><path fill="#ac274f" fill-opacity=".675" d="M301.353 913.059l-50.698-94.756 45.102-64.053-2.378 76.451z"/><path fill="#031200" fill-opacity=".325" d="M624.777 883.253l88.427 128.654 36.145-263.648-178.148-84.653z"/><path fill="#bad4f1" fill-opacity=".439" d="M644.716 955.233l-82.123 2.602 43.627 17.63-18.539-218.926z"/><path fill="#6792d1" fill-opacity=".655" d="M898 664.109L738.643 846.698l12.882 124.172-44.883-256.688z"/><path fill="#cefffb" fill-opacity=".384" d="M373.145 673.106l-2.716 14.068 73.024 7.793 162.297-7.433z"/><path fill="#413717" fill-opacity=".753" d="M523.18 201.08l-49.504-94.046-59.958 293.13 110.715-17.141z"/><path fill="#230001" fill-opacity=".427" d="M152.59 553.434l63.915-108.712 74.77 248.27L75.537 524.101z"/><path fill="#0e0c1b" fill-opacity=".706" d="M614.624 335.943L675.97 593.26l-239.853-.896 26.403-98.71z"/><path fill="#728a96" fill-opacity=".612" d="M583.368 322.589L898 518.172 686.161 482.3l61.926-152.983z"/><path fill="#ecede1" fill-opacity=".518" d="M311.643 117.663l-128.767 135.88 249.303 46.03-59.161 47.024z"/><path fill="#0e0808" fill-opacity=".882" d="M687.038 496.116L571.091 805.91 540.9 787.55l126.775-405.96z"/><path fill="#ffebde" fill-opacity=".725" d="M113.62 839.562l21.57 116.585-38.968 97.35L39.67 812.06z"/><path fill="#e3abfa" fill-opacity=".361" d="M357.502 374.108l-9.553 83.985-17.845-184.862 39.726 150.301z"/><path fill="#8b0016" fill-opacity=".396" d="M423.095 779.43l39.826 118.485-90.449 112.612-3.136-245.327z"/><path fill="#ffcfa1" fill-opacity=".541" d="M174.342 579.774l-227.18 216.345L93.52 831.327 53.623 553.143z"/><path fill="#77fff0" fill-opacity=".318" d="M374.156 591.643l215.625-.5-4.91 27.756-193.639-.281z"/><path fill="#45749c" fill-opacity=".518" d="M607.482 532.993l18.298-51.269-53.407-13.988-7.885-9.938z"/><path fill="#f41a5d" fill-opacity=".255" d="M315.828 470.41L110.52 415.125l138.595-87.238 45.227 293.841z"/><path fill="#9cd3f5" fill-opacity=".49" d="M-62 382.495v399.75L60.354 562.936l6.79-56.548z"/><path fill="#f7faff" fill-opacity=".38" d="M764.47 291.221l-18.603-109.49-112.264-19.333-13.281 130.959z"/><path fill="#c4d9dc" fill-opacity=".541" d="M129.152 107.977l99.094 241.667 82.9-61.16-128.952-292.4z"/><path fill="#d0fffa" fill-opacity=".384" d="M453.159 780.626l91.536-15.309-141.542-20.304-45.624 13.726z"/><path fill="#f6fbff" fill-opacity=".569" d="M167.311 425.583L91.027 530.417l46.242 24.13 55.723-78.046z"/><path fill="#1c000a" fill-opacity=".4" d="M580.2 724.084l-135.963-8.168 82.67 164.44-180.34-56.919z"/><path fill="#0072a1" fill-opacity=".729" d="M199.87-15.844L92.832-45.004 28.11 32.166 47.952 68.05z"/><path fill="#bf998e" fill-opacity=".431" d="M775.518 330.957L525.614 301.81 898 419.796 831.549-62z"/><path fill="#f8e1d0" fill-opacity=".506" d="M379.664 167.071L199.485 74.782l221.066 30.242-59.974 218.294z"/><path fill="#6c6175" fill-opacity=".769" d="M176.344 955.354l-15.967-129.91L220.137 1086h106.897z"/><path fill="#1a0404" fill-opacity=".416" d="M337.585 358.697L77.498 732.2l227.783-234.928-31.055-172.299z"/><path fill="#533118" fill-opacity=".349" d="M340.905 191.935l-8.834-29.022 11.535 2.98 317.847-16.39z"/><path fill="#541020" fill-opacity=".992" d="M398.484 401.333l-61.41-110.788 77.972 184.931-.17-41.068z"/><path fill="#f5e9fa" fill-opacity=".216" d="M341.88 468.802l-74.892 56.36 124.214-54.703 5.284 59.891z"/><path fill="#7e8ea7" fill-opacity=".467" d="M528.173 43.127l292.462 29.128-150.23 61.065-98.957 83.459z"/><path fill="#b6c5d7" fill-opacity=".561" d="M599.543 901.561l-2.164 65.167 43.354-52.37-75.393-118.227z"/><path fill="#afb3a6" fill-opacity=".514" d="M36.324 214.573L11.99 318.953l214.03 31.171-56.495-210.517z"/><path fill="#a4081a" fill-opacity=".494" d="M423.806 626.052l17.215-25.044-54.614 72.476 128.656-10.6z"/><path fill="#f3ffff" fill-opacity=".447" d="M390.49 672.525l-13.173 39.934 13.082-127.373 38.457 4.483z"/><path fill="#120d1c" fill-opacity=".792" d="M523.329 514.502l-232.644 12.342 211.717 30.002-66.912-146.013z"/><path fill="#3a2f1b" fill-opacity=".808" d="M635.328 639.623l92.195 360.352 20.564-49.992-56.693-272.985z"/><path fill="#221a2e" fill-opacity=".169" d="M46.897 337.366L-62 398.828l163.261 76.95 49.703-20.498z"/><path fill="#3e7188" fill-opacity=".675" d="M696.033 984.319l-150.302 22.271 352.02-45.418L780.397 1086z"/><path fill="#9f2740" fill-opacity=".647" d="M248.8 320.716l27.262 132.262-93.1-14.842 49.707 77.626z"/><path fill="#000206" fill-opacity=".647" d="M283.56 609.47l-115.528-47.32L292.499 1086l-106.83-159.638z"/><path fill="#ffdda7" fill-opacity=".404" d="M449.955 273.42l-4.068-76.787-30.106-13.036 12.257 62.254z"/><path fill="#fccacd" fill-opacity=".573" d="M465.01 680.557l-88.29 31.215 91.271.652-95.529-31.447z"/><path fill="#4b5258" fill-opacity=".592" d="M733.794 380.892l69.173 64.97-113.283 12.039 13.443-57.396z"/><path fill="#000e15" fill-opacity=".298" d="M377.018 19.825L313.732 59.54 477.277 4.33l86.185 113.892z"/><path fill="#6b85b8" fill-opacity=".573" d="M138.26 888.84l31.26 21.446 32.156-27.43-91.667-63.869z"/><path fill="#583712" fill-opacity=".475" d="M391.323 295.473l-1.202-41.175 5.266-102.854 41.126 123.754z"/><path fill="#ff2b75" fill-opacity=".318" d="M406.953 885.131l-50.207-39.365 85.817 8.97-6.559 27.996z"/><path fill="#020009" fill-opacity=".725" d="M393.882 961.87l196.041 52.733L248.95 990l164.35 96z"/><path fill="#f9b69d" fill-opacity=".529" d="M128.263 1086L97.967 984.969l71.778-81.587 22.902 86.511z"/><path fill="#ffcaab" fill-opacity=".561" d="M380.027 250.688l13.636-110.626-54.244 165.077 67.442-37.986z"/><path fill="#cacdce" fill-opacity=".6" d="M176.857 624.488l5.768 82.76-55.812-20.183-12.026 13.614z"/><path fill="#a0d3ed" fill-opacity=".322" d="M786.202 466.343l-30.898 73.274 93.488 517.968L898 491.897z"/><path fill="#930028" fill-opacity=".369" d="M333.663 374.587l-139.709-2.26-39.708 16.413 177.979-104.41z"/><path fill="#772800" fill-opacity=".212" d="M84.137 817.05L50.855 709.326l37.211-73.034 26.546 207.169z"/><path fill="#0076f4" fill-opacity=".255" d="M491.49 1009.552l-117.566-.68 166.82 76.187-10.794.941z"/><path fill="#665f59" fill-opacity=".902" d="M687.408 70.333l-41.312-29.192L420.115-.317 671.587-22.2z"/><path fill="#4986ff" fill-opacity=".204" d="M362.828 837.92L289.7 891.463l75.83 91.133-88.928-168.224z"/><path fill="#7bc4ee" fill-opacity=".243" d="M269.255-62L153.66 227.768l-37.713-104.386L-62 123.35z"/><path fill="#2b2408" fill-opacity=".604" d="M390.948 323.006l125.46-32.317-45.03-82.174 4.942 162.604z"/><path fill="#b9000e" fill-opacity=".463" d="M388.749 701.661l-6.583-11.74 185.814 16.213-147.548-1.815z"/><path fill="#98acae" fill-opacity=".51" d="M452.427 696.504l56.38 15.268-31.05 5.275-43.375-128.141z"/><path fill="#cca998" fill-opacity=".537" d="M767.511 195.137l-217.565-41.664 20.099 144.033 72.236-182.022z"/><path fill="#02020d" fill-opacity=".647" d="M412.608 837.876l-173.385-49.931-18.565 59.146-35.621-108.735z"/><path fill="#141505" fill-opacity=".549" d="M601.052 571.994l128.85 478.718-113.143-181.596-12.05-47.821z"/><path fill="#4c79c6" fill-opacity=".702" d="M338.195 461.527l21.188-55.262-.831-55.193-8.978 31.148z"/><path fill="#fedec5" fill-opacity=".867" d="M-50.584 861.014L68.338 656.278l51.655-93.202-51.504-17.458z"/><path fill="#ffe4ba" fill-opacity=".216" d="M382.516 162.043l-39.203-38.314L491.267 59.71 450.398 155z"/><path fill="#004257" fill-opacity=".173" d="M-62 185.23l171.906-60.834 5.182 53.434-28.938 46.5z"/><path fill="#032146" fill-opacity=".616" d="M383.2 594.117l-46.364-130.422-25.817 98.767 43.466 293.282z"/><path fill="#fffafc" fill-opacity=".463" d="M426.768 755.928l37.262 19.84-100.343-11.573 5.533-28.27z"/><path fill="#e20117" fill-opacity=".157" d="M409.28 477.923l2.854-185.817 49.926 310.61-84.785-24.004z"/><path fill="#eaeae6" fill-opacity=".475" d="M297.707-60.006l-55.899 399.831 69.84-40.273 33.678-22.78z"/><path fill="#cbd6e4" fill-opacity=".463" d="M898 818.967l-174.531 18.832 24.169 82.154L898 931.147z"/><path fill="#e6dfd3" fill-opacity=".467" d="M694.74 581.107l-8.613-61.743 68.104 169.667-75.102-45.493z"/><path fill="#71a6fd" fill-opacity=".459" d="M590.201 755.862l11.384 61.998 1.63 36.765L570.3 832.92z"/><path fill="#08030a" fill-opacity=".741" d="M230.141 797.118l98 151.408L311.01 1086 170.139 849.345z"/><path fill="#908075" fill-opacity=".663" d="M898 131.944l-127.827 86.843 27.756-113.243L697.623-62z"/><path fill="#4e2f26" fill-opacity=".627" d="M223.118 1086l-12.812-137.71 105.365 99.406-142.469-133.387z"/><path fill="#110d1a" fill-opacity=".733" d="M416.705 910.508l138.602-17.189 47.115 60.912-33.838-160z"/><path fill="#5d0003" fill-opacity=".757" d="M531.119 719.255l19.503 25.192-79.465 7.824-15.121-34.796z"/><path fill="#514d43" fill-opacity=".518" d="M324.201 135.264l15.336-53.804L587.08-62 325.11 61.596z"/><path fill="#003952" fill-opacity=".275" d="M542.018 614.767l-93.427-.25 23.72-89.185-29.079-106.469z"/></svg>