<svg xmlns="http://www.w3.org/2000/svg" width="228" height="278" viewBox="0 0 836 1024"><path fill="#454e46" d="M0 0h836v1024H0z"/><g fill-opacity=".502"><path fill="#bed3ce" d="M134 306l572 44-184 388z"/><path fill="#fff" d="M458 942L50 814l44 116zM250 810l-60-96 328 80z"/><path fill="#080604" d="M322 1038l576-140-52-528z"/><path fill="#fcffff" d="M342 562l160 144-256-60z"/><path d="M-62 750l256-436L18-62z"/><path fill="#001e00" d="M702 498l-456-56 392-56z"/><path fill="#fff" d="M494 386l-364 24 216-100zm-260 80L86 478l120 48z"/><path fill="#291208" d="M686-50L238-62l260 504z"/><path d="M898 26l-92 468L670-62z"/><path fill="#fff" d="M350 546l304-52-332-36z"/><path fill="#dfe6e4" d="M574 346l200 160-64-168z"/><path fill="#fff" d="M46 878l40-64 176 136z"/><path fill="#001700" d="M-34 1086l540-88-444-84z"/><path fill="#000300" d="M142 694l356 72-308-156z"/><path fill="#ecffff" d="M502 922l-144-8 128-32z"/><path fill="#00030a" d="M-62 22l364 88L730-62z"/><path fill="#004716" d="M314 430l-40-120 136 152z"/><path fill="#001000" d="M322 282l172 96 208-140z"/><path fill="#7f7a68" d="M450 38L242 274l280-72z"/><path fill="#aec1bb" d="M290 810l196 36 44-84z"/><path fill="#021304" d="M510 590L94 574l160-72z"/><path fill="#002301" d="M178 694h412l-120 80z"/><path fill="#002500" d="M322 902l212-56-468-48z"/><path fill="#fff8fd" d="M614 598l-188 84 124 4z"/><path fill="#fff" d="M394 322L266 430l-84-60zm164-212l48-4-40-60z"/><path fill="#849e94" d="M294 1078l604 8-288-140z"/><path fill="#fff" d="M694 498l36 20 28-104z"/><path fill="#bba49c" d="M210 294l-36 192L22 618z"/><path fill="#d8dadf" d="M554 338l128 68-188-4z"/><path fill="#feffff" d="M406 774l-100 44-84-100z"/><path fill="#dfe4ef" d="M254 570l32 80 132-24z"/><path fill="#001b0c" d="M246 506l44-56-124-84z"/><path fill="#a05a3c" d="M22 626l76-100 40 340z"/><path fill="#010b0c" d="M54 882L-54 546 82 750z"/><path fill="#101914" d="M498 578l276-60-128 96z"/><path fill="#2dcd7d" d="M214 998L98 910l-36 56z"/><path fill="#001407" d="M634 410l56-4-36 192z"/></g></svg>