<svg xmlns="http://www.w3.org/2000/svg" width="228" height="278" viewBox="0 0 836 1024"><path fill="#90813d" d="M0 0h836v1024H0z"/><g fill-opacity=".502"><path fill="#f9eb19" d="M494 1086l224-780-560 136z"/><path fill="#e6ffff" d="M898 1002L734 742l-124 344z"/><path fill="#16081f" d="M898-62L-62 10l868 284z"/><path fill="#eaffff" d="M-62 1014l232 72 88-248z"/><path fill="#09001a" d="M-62 958V-18l236 464z"/><path fill="#c8dcf4" d="M382-14l252 128 60-172z"/><path fill="#fbffa9" d="M842 598L478 314l192 4z"/><path fill="#6e3d00" d="M738 534l120 160-692-24z"/><path fill="#ffff5c" d="M166 454l532-28-328 196z"/><path fill="#a6aad9" d="M158 502l168-244-192-12z"/><path fill="#fff" d="M58 938l308-4-428 152z"/><path fill="#703407" d="M758 30L310 286l68 168z"/><path fill="#4c8d9c" d="M454 270l424-28 20 196z"/><path fill="#6b3700" d="M342 742L230 602-26 994z"/><path fill="#000008" d="M898 186l-236 68 36-316z"/><path fill="#dfce00" d="M618 586L202 890l464-124z"/><path fill="#fff" d="M898 882l-112 204-144-116z"/><path fill="#440c00" d="M258 210L-62 322 394-38z"/><path fill="#005b6a" d="M98 906l268 24-148-100z"/><path fill="#0d0c23" d="M610 498l160 184-76 112z"/><path fill="#f3f00d" d="M642 950l-436-28 124 92z"/><path fill="#d3a700" d="M126 218l88-176-276 44z"/><path fill="#ec875c" d="M250 210l268 16L358 58z"/><path fill="#d6b300" d="M838 594L558 338l168 304z"/><path fill="#237e90" d="M854 914l16-156-200 148z"/><path fill="#2b4200" d="M658 782l-80 104-168-68z"/><path fill="#423e00" d="M206 998l460-28-256 116z"/><path fill="#052320" d="M642 374l-128-8 112 60z"/><path fill="#f0e118" d="M214 658L114 766l52-336z"/><path fill="#e58b74" d="M898 590L674 954l-20-144z"/><path fill="#797799" d="M94 550l72 124-228 328z"/><path fill="#ffff3c" d="M326 798l184 120-308-80z"/><path fill="#000010" d="M494 1086H150l84-108z"/><path fill="#150100" d="M498 142l48-100-248-16z"/><path fill="#00152a" d="M-62 438l192 4-152 372z"/><path fill="#fff" d="M782 558l-32-120-92-88z"/><path fill="#2a2800" d="M310 866l-92 56 240-4z"/><path fill="#8c310b" d="M-58 402l212-8L2 34z"/><path fill="#ffff90" d="M298 450l-152 36 128-96z"/><path fill="#ffff6c" d="M462 378l24-68 204 40z"/></g></svg>