<svg xmlns="http://www.w3.org/2000/svg" width="228" height="278" viewBox="0 0 836 1024"><path fill="#6e696b" d="M0 0h836v1024H0z"/><g fill-opacity=".502"><path fill="#fff" d="M78 302l596 40-152 744z"/><path d="M-62 18l896-80 64 540z"/><path fill="#fff" d="M170 1086l56-332 460 244z"/><path fill="#0e0008" d="M898 978L790-62 606 1082z"/><path fill="#0c0408" d="M198 934l-260 120L18-14z"/><path fill="#eef2f9" d="M282 258l472 232L22 598z"/><path fill="#010c17" d="M366 238L6-62l88 420z"/><path fill="#382921" d="M258 558l212 72-532 416z"/><path fill="#e9f6f8" d="M618 1038l-524 48 496-472z"/><path fill="#00000c" d="M598 562l176-100-172 280z"/><path fill="#fdf6fd" d="M710 434L486 638l24-352z"/><path fill="#8d5525" d="M582-62L466 374 326 266z"/><path fill="#ae9186" d="M34 686l68-280 472 236z"/><path fill="#0d1726" d="M874-6L542-62l356 1148z"/><path fill="#a2704d" d="M702 498L570 918l152-92z"/><path fill="#dbe3ed" d="M158 322l224-72-276 320z"/><path fill="#3d1e06" d="M-62 474l252 132-80 52z"/><path fill="#e1e7ee" d="M326 286l4 316 380-88z"/><path fill="#0c1120" d="M178 1014l24-352-264 160z"/><path fill="#afbebd" d="M190 810l448 152-216-264z"/><path fill="#11111c" d="M278 286L526-58 54-42z"/><path fill="#642729" d="M646 1038l-72-232 288 208z"/><path fill="#574f3d" d="M306 538L106 802l280-64z"/><path fill="#151423" d="M26 622l128-320-216 240z"/><path fill="#9c6642" d="M350 134l236 40-12-136z"/><path fill="#fff" d="M614 1086L490 886l132 40z"/><path fill="#060000" d="M594 602l76 104-32-200z"/><path fill="#d4e9ef" d="M166 598L50 514l140-40z"/><path fill="#f8fdff" d="M690 522l-12-140-168-88z"/><path fill="#fff" d="M146 642l64-32-36 72z"/><path fill="#b32530" d="M490 598l132 48-264-16z"/><path fill="#e0f0f3" d="M214 778l-36 308 144-84z"/><path fill="#f1f3f7" d="M370 634l232 156-16-132z"/><path fill="#030f1e" d="M646 962l252-84-160-120z"/><path fill="#9d7458" d="M490 838l228-68-44 108z"/><path fill="#211e26" d="M790 410L898-30 422 258z"/><path fill="#958c8b" d="M174 702l192-84 108 60z"/><path fill="#d8d4da" d="M394 250l-248 76-52 128z"/><path fill="#dad9e0" d="M590 618l-208-32 208-216z"/><path fill="#3b4044" d="M306 102L-62 42 46 478z"/></g></svg>