<svg xmlns="http://www.w3.org/2000/svg" width="228" height="278" viewBox="0 0 836 1024"><path fill="#9894a5" d="M0 0h836v1024H0z"/><g fill-opacity=".502"><path fill="#fff" d="M-62 1014l280 72L54-6z"/><path fill="#003ce1" d="M462 1086l80-776-408 56z"/><path fill="#774920" d="M898 78L118-62 70 450z"/><path fill="#fff" d="M522 278l56 808 304-80z"/><path d="M662 762l236 4-168-216zM306 130l292-8-92-184zm32 956H182l36-264z"/><path fill="#fff" d="M898 378L794 606 522 374z"/><path fill="#9b683c" d="M898 366L794-62 342 358z"/><path fill="#fff" d="M182 1042l-244-28 228-660zm500 44l216-264-372-116z"/><path fill="#1d4cc4" d="M482 466l-304 68 228 552z"/><path fill="#e7ffff" d="M378 214l-88-36 8 160z"/><path fill="#eb7542" d="M158 750l192 336-84-460z"/><path fill="#1f2128" d="M598 682l300-112-148 208z"/><path fill="#4586fe" d="M618 606L198 410l148-144z"/><path fill="#fefbf0" d="M190 430l-36 552-204-548z"/><path d="M594 22L386 34l-20 164z"/><path fill="#2e0511" d="M178 574v236l60-180z"/><path fill="#fff" d="M542 770l292 316 4-316z"/><path fill="#000015" d="M354 250l128 76-52 60z"/><path fill="#f38756" d="M526 686l124 400-140-120z"/><path fill="#f4a796" d="M590 190L450 94l4 240z"/><path fill="#154acd" d="M498 1086L314 910l192-168z"/><path fill="#fff" d="M58 314L98-22l-88 4z"/><path fill="#edeee3" d="M562 742l280-356-288 4z"/><path fill="#70a2fa" d="M498 874l-68-436 140-76z"/><path fill="#001549" d="M-62 694l92 72-12-112z"/><path fill="#ac8364" d="M146 470L82-62 374 98z"/><path fill="#00000f" d="M194 1022l156 64-128-196z"/><path fill="#fdffff" d="M130 670l88 248-280 92z"/><path fill="#5d5c3c" d="M30 422L10 150l-72 332z"/><path fill="#e1ffff" d="M326 302l40-116-84 20z"/><path fill="#fff" d="M582 1058l-72 28-4-132z"/><path d="M586 78l-64-68 24 184z"/><path fill="#43685d" d="M734 378l28-440-84 248z"/><path fill="#0334c1" d="M250 346l120-80 36 88z"/><path fill="#552414" d="M238 918l-80-160 56 8z"/><path fill="#ea9063" d="M194 650l108 8-108 148z"/><path fill="#ad836c" d="M506 402l220-240L626-54z"/></g></svg>