<svg xmlns="http://www.w3.org/2000/svg" width="228" height="278" viewBox="0 0 836 1024"><path fill="#816659" d="M0 0h836v1024H0z"/><g fill-opacity=".502"><path fill="#5b000b" d="M46 1086L-62 510l960 380z"/><path fill="#9dcd9c" d="M898-26L-62 30l500 756z"/><path fill="#903" d="M898 858L766 474 146 850z"/><path fill="#fcd0e4" d="M382 770l228-248-64-400z"/><path fill="#33993c" d="M-42 670L10-62l352 200z"/><path fill="#5dd764" d="M814-62l84 628-364-156z"/><path fill="#fff" d="M446 642l-196-68-8-148z"/><path fill="#3f000c" d="M-18 926l860 160-872-432z"/><path fill="#b0184f" d="M-34 586l256-116 280 560z"/><path fill="#80e2dc" d="M-6 970l152 28 4-112z"/><path fill="#be7688" d="M270 86l340 188-156 396z"/><path fill="#fff" d="M418 550l36 200-56-4z"/><path fill="#6c000e" d="M394 618l8 140-156-136z"/><path fill="#74162b" d="M898 646l-284 440-172-460z"/><path fill="#fff" d="M614 462l-52 132-176 56z"/><path fill="#d9175b" d="M898 578l-368 92 96-212z"/><path fill="#10000b" d="M462 482l-140-72 60 92z"/><path fill="#4f9852" d="M6 570l344-180L-10-6z"/><path fill="#fff" d="M234 486l36 76 36-204z"/><path fill="#87eda4" d="M762 938l-56 56-8-172z"/><path fill="#3a0000" d="M738 914l16-304 144 232z"/><path fill="#060000" d="M-62 966l164-44 20-296z"/><path fill="#fed6d6" d="M558 290l-260-12 236 112z"/><path fill="#6fa29b" d="M694 678l-76 96-52-128z"/><path fill="#342023" d="M538 266l-172-48-44 48z"/><path fill="#fcffff" d="M242 694l-72-44 36-16z"/><path fill="#dcc7c1" d="M610 86L454-42 306 62z"/><path fill="#7d5552" d="M422 26L262 170l336-4z"/><path fill="#5a0115" d="M722 978l-564 108-12-260z"/><path fill="#f8ffff" d="M350 622l-92-72 280 56z"/><path fill="#8d5769" d="M306 534l140 56-196-464z"/><path fill="#bc99ac" d="M146 722l204-20-80 60z"/><path fill="#640012" d="M454 738l-12-124 92 44z"/><path fill="#6fb763" d="M518-62h380l-60 652z"/><path fill="#00130e" d="M-62 1010l156-48 44 96z"/><path fill="#b6144a" d="M190 478L26 566l368 128z"/><path fill="#f1ffff" d="M750 946l96-48 52 24z"/><path fill="#fff" d="M598 538l-128 96 120-212z"/><path fill="#f73f7a" d="M810 530l-152-60 240 268z"/><path fill="#eeabb3" d="M434 274l124-96-156 12z"/></g></svg>