<svg xmlns="http://www.w3.org/2000/svg" width="228" height="278" viewBox="0 0 836 1024"><path fill="#60474f" d="M0 0h836v1024H0z"/><g fill-opacity=".502"><path fill="#f5dcb4" d="M586-30l236 672 76-540z"/><path fill="#fff" d="M646 682l-12 236-132-336z"/><path fill="#00000d" d="M762 610L486 134-62 454z"/><path fill="#c9baa9" d="M-62 366l472-228L18-62z"/><path fill="#25060e" d="M-62 378l444 372-340 328z"/><path fill="#fffff8" d="M246 542l188 100 60-80z"/><path fill="#ff4b5b" d="M690 590l-88 220 136 244z"/><path fill="#00012f" d="M330 778l176 308 224-128z"/><path fill="#e7ffff" d="M590 858l64 68 184-24z"/><path fill="#e1c7bd" d="M534-62L246 62-62 10z"/><path fill="#fff" d="M470 458l60 8 8-72z"/><path fill="#940c23" d="M642 846l-496 20 20-332z"/><path fill="#fcffff" d="M610 838L510 622l68-40z"/><path fill="#f00000" d="M662 338l132 284-176-204z"/><path fill="#101322" d="M898 882H670l92-332z"/><path fill="#461622" d="M10 266l184-124 72 740z"/><path fill="#72abc2" d="M94 814L46 658l68-36z"/><path fill="#001644" d="M186 150l32-100-144 4z"/><path fill="#e5c29d" d="M898 142l-128 92L498 90z"/><path fill="#ff0f16" d="M602 830l84 48 28-268z"/><path fill="#0b2e50" d="M722 170l-208 16 36 300z"/><path fill="#2a4755" d="M618-62l72 184-456-44z"/><path fill="#ccebf9" d="M94 254l-16 64 136-120z"/><path fill="#ebffff" d="M286 418l-32-48 96 44z"/><path fill="#ebc08f" d="M122 426l-8 132-48-112z"/><path fill="#002051" d="M718 18l120-80-72 212z"/><path fill="#f3bc9d" d="M-26 198L66 10l88 176z"/><path fill="#ff1920" d="M166 678l-8 204 68-20z"/><path fill="#d3c2b0" d="M682 350l148 76 36-488z"/><path d="M766 242l124 64-60-84z"/><path fill="#2277b0" d="M498 566l144 116 68-100z"/><path fill="#ff0d1d" d="M490 778l84 72-100-228z"/><path fill="#001d3c" d="M594 1086L370 898l-68-240z"/><path fill="#feffff" d="M282 882l-48 60-8-52z"/><path fill="#9a8c8a" d="M214 486l216 188-180-16z"/><path fill="#070000" d="M898 370v80l-168 40z"/><path fill="#d20000" d="M162 654l88-204-52-52z"/><path fill="#001d40" d="M218 562l88 372-96-116z"/><path fill="#000d17" d="M30 806l208 280-24-192z"/><path fill="#001840" d="M542 886l-96-92-16-192z"/></g></svg>