<svg xmlns="http://www.w3.org/2000/svg" width="228" height="278" viewBox="0 0 836 1024"><path fill="#804236" d="M0 0h836v1024H0z"/><g fill-opacity=".502"><path fill="#ff4c00" d="M498 1086l184-744-636 40z"/><path fill="#003464" d="M898 518L-62 2l940-8z"/><path fill="#000032" d="M618 1086l-20-524 272 188z"/><path fill="#ff550a" d="M646 1006l-436 80 16-460z"/><path fill="#f44f1b" d="M418 90L70 646l788-12z"/><path fill="#12526c" d="M-62 18l312 128-264 744z"/><path fill="#001837" d="M618 530l280 548-288 8z"/><path fill="#ff4d15" d="M626 1086L202 958l364-396z"/><path fill="#00265b" d="M674-62l164 584-324-216z"/><path fill="#eaffff" d="M778 202l104 12-136 132z"/><path fill="#053c5e" d="M210 566l4 504-136-72z"/><path fill="#000200" d="M670 22L310-2 194 214z"/><path fill="#797d6f" d="M390 90l244 164L46 370z"/><path fill="#ea8651" d="M74 1086l-136-88 204-496z"/><path fill="#7f2318" d="M246 766l108-244 128 288z"/><path fill="#d4eeff" d="M574 194l-76 124 16-120z"/><path fill="#ff490a" d="M654 358l244 392-448-392z"/><path fill="#fff" d="M782-2l-44 48-32-108z"/><path fill="#d4f9ff" d="M286 218l-92 92 52-128z"/><path fill="#00163b" d="M370 30l392 228L898 66z"/><path fill="#005d7b" d="M450 454l40 68 52-92z"/><path fill="#001c42" d="M786 550l112-160-284-108z"/><path fill="#bc0b00" d="M226 654L82 730l84-300z"/><path fill="#020408" d="M-62 858l104 88 36-68z"/><path fill="#ff7a3e" d="M234 570l132-284-232 112z"/><path fill="#413f3d" d="M470 330l-452 8 328-116z"/><path fill="#727f80" d="M774 878l96 84-24-412z"/><path fill="#001830" d="M626 1086l-20-520 220 180z"/><path fill="#ff853b" d="M302 902l-84 60 4-296z"/><path fill="#c67744" d="M230 374L490 90l32 104z"/><path fill="#ff5419" d="M582 966l-188-16 208-372z"/><path fill="#060000" d="M426-42L298 58l40 160z"/><path fill="#000004" d="M-42 106L118-62-62 306z"/><path fill="#b6887e" d="M66 958l8-168 132-128z"/><path fill="#ff4a10" d="M326 314l272 364-364-144z"/><path fill="#3a5167" d="M98 542L82-42l240-8z"/><path fill="#920a00" d="M854 738L570 554l104-20z"/><path fill="#c9d6da" d="M122 966l44-52-40 96z"/><path fill="#12305c" d="M522 330l272 76L650 6z"/><path fill="#b1aba4" d="M74 570L-62 834l20-156z"/></g></svg>