<svg xmlns="http://www.w3.org/2000/svg" width="228" height="278" viewBox="0 0 836 1024"><path fill="#8f878d" d="M0 0h836v1024H0z"/><g fill-opacity=".502"><path fill="#000007" d="M282 242l-100 844 508-296z"/><path fill="#fff" d="M794-62L638 834l260 252z"/><path fill="#e5dfd8" d="M374 74L-62-62 38 1086z"/><path fill="#31243b" d="M70 626l584-328 16 564z"/><path fill="#321400" d="M526-62l-56 440L298 86z"/><path fill="#fff" d="M898 578l-140 508-112-612zM146 710l72-180v276z"/><path fill="#12082b" d="M594 874L198 510l152 576z"/><path fill="#fff" d="M202 898L-62 650l72 292z"/><path fill="#542d20" d="M150 826l-4-284L34 750z"/><path fill="#f6ffff" d="M242 302L-62 622l308-100z"/><path fill="#bdb9ba" d="M798 578L454-62l444 44z"/><path fill="#9791b6" d="M326 514l400-4-388-232z"/><path fill="#fff" d="M614 750l-20 152 72 124z"/><path fill="#433441" d="M670 842l4-272-404-320z"/><path fill="#ffa452" d="M222 986L42 878l-96 208z"/><path fill="#2f102a" d="M206 570L82 546l44 172z"/><path fill="#ecefe7" d="M374 366l-96-196 48-184z"/><path fill="#fff" d="M-62 470l152 52-124 516z"/><path fill="#27153f" d="M226 1058l-48-252 352 208z"/><path fill="#fffffe" d="M662-38l236 4-68 212z"/><path fill="#2d170a" d="M346 182l44 128 184 40z"/><path fill="#fff" d="M454 394l108-156 12 72zm212 112l232 208-208 168zM226 638l-96 52 92 92z"/><path fill="#240a72" d="M334 246l-28 232-64-176z"/><path fill="#fff" d="M586 402l-40 76 64 12z"/><path fill="#532409" d="M614 862l104 196 36-52z"/><path fill="#d4dad6" d="M578 630H438l28 36z"/><path fill="#190d39" d="M650 470l28-104-172-44z"/><path fill="#fff" d="M474 398l-84-64 124 20z"/><path fill="#000304" d="M418-54l80 116H346z"/><path fill="#959da1" d="M634 482l176-324 88 352z"/><path fill="#0b0300" d="M650 518l-100 36 88 136z"/><path fill="#ebedf4" d="M694 962l-188 8 148 60z"/><path fill="#090a0f" d="M370 854L218 586l80-176z"/><path fill="#fff" d="M150 818l-212-68 232 188z"/><path fill="#d9deea" d="M470 546l40-32-56-28z"/><path fill="#fff" d="M334 234l72 88-56 16z"/><path fill="#aea79e" d="M90 494L402-46l-464 4z"/></g></svg>