<svg xmlns="http://www.w3.org/2000/svg" width="228" height="278" viewBox="0 0 836 1024"><path fill="#714b59" d="M0 0h836v1024H0z"/><path fill="#bdf6fa" fill-opacity=".431" d="M-62 755.638l395.146-.048 35.334 286.23L-62 1086z"/><path fill="#470001" fill-opacity=".749" d="M525.204 1053.46L413.538 528.626l174.54 21.236 193.052 351.91z"/><path fill="#f16879" fill-opacity=".643" d="M435.612 214.364l64.771 323.183 373.102-22.393 9.186-198.029z"/><path fill="#03192e" fill-opacity=".533" d="M-62 204.23L-51.642-62l852.223 4.396-41.661 290.616z"/><path fill="#e57482" fill-opacity=".58" d="M-62 257.399l251.144 3.955 203.954 245.918L-62 493.707z"/><path fill="#7b3134" fill-opacity=".855" d="M182.654.412l377.972 330.53-119.917 155.482-194.697-57.18z"/><path fill="#58d9ff" fill-opacity=".235" d="M537.06 379.888l235.847 498.96L849.31 1086l19.489-508.553z"/><path fill="#18668e" fill-opacity=".388" d="M390.692 807.298l-437.428-23.474 25.683-270.156 306.778 32.795z"/><path fill="#8c030d" fill-opacity=".729" d="M356.706 975.517l452.65-2.155-48.03-98.384-358.774-33.817z"/><path fill="#cba79a" fill-opacity=".792" d="M614.285 560.397l-379.32-90.287 240.475 15.15 136.273-102.932z"/><path fill="#b3a9b2" fill-opacity=".647" d="M503.729 789.885l-123.557-13.104-6.728-44.647 115.442-16.884z"/><path fill="#4b191b" fill-opacity=".851" d="M366.677 219.674l133.689 259.559-123.517-1.422-124.85-180.05z"/><path fill="#fe2d43" fill-opacity=".455" d="M321.408 373.296l88.157 55.034-42.27-300.661 247.312 208.49z"/><path fill="#ffd3c5" fill-opacity=".353" d="M303.57 1086L42.065 977.747l157.823-72.293 322.459 104.013z"/><path fill="#fcffe5" fill-opacity=".31" d="M293.978 159.318l16.214-66.195-146.62 38.577 62.19 61.595z"/><path fill="#87b9fb" fill-opacity=".525" d="M741.265 1032.092l-109.48 27.132 11.135-91.492 62.553-6.29z"/><path fill="#0e0003" fill-opacity=".514" d="M398.556 714.36l285.15 58.948-98.995-199.945-204.95 109.873z"/><path fill="#a11421" fill-opacity=".804" d="M697.885 822.645l57.49 259.97 53.24-66.37L609.548 522.14z"/><path fill="#0e1936" fill-opacity=".463" d="M583.79 286.702L415.31 125.571 173.586 72.408 842.801-62z"/><path fill="#9498a3" fill-opacity=".851" d="M782.53 884.042L839.756 1086 898 809.389l-190.745-61.072z"/><path fill="#dff383" fill-opacity=".498" d="M799.423 171.206l-9.244-62.646L898 22.536l-50.66 212.688z"/><path fill="#7b808a" d="M58.87 927.911l498.58-139.823-79.074 49.584-538.727 19.519z"/><path fill="#caa3a6" fill-opacity=".996" d="M305.426 497.196L135.782 376.509l231.793 118.88-36.307-76.164z"/><path fill="#001318" fill-opacity=".698" d="M600.008 867.805L422.012 498.56 531.91 849.726l4.233 36.47z"/><path fill="#bf101f" fill-opacity=".616" d="M327.092 845.392l64.848 123.233 145.905 53.493-53.646-105.557z"/><path fill="#18233a" fill-opacity=".573" d="M-62-38.141l164.523 16.173L240.648 242.85-62 235.743z"/><path fill="#997465" fill-opacity=".475" d="M428.341 95.105l-304.913 221.13 257.42-93.026 8.729 55.399z"/><path fill="#651518" fill-opacity=".706" d="M708.163 979.843L533.998 621.656l-229.462-18.07 92.612-92.884z"/><path fill="#23040d" fill-opacity=".498" d="M354 723.272l-15.704 168.587 67.194-8.437-30.562-134.047z"/><path fill="#373b52" fill-opacity=".925" d="M729.14 158.542L898 270.089l-488.843-63.044-4.223-43.767z"/><path fill="#ddb0c0" fill-opacity=".737" d="M395.068 882.456L248.413 1086l-13.638-8.038 52.423-135.274z"/><path fill="#00080e" fill-opacity=".741" d="M494.94 524.537l154.989 211.42 42.922 86.177-41.47 42.148z"/><path fill="#240f17" fill-opacity=".796" d="M428.046 885.394l34.785-97.637-43.477 22.751 118.415 98.153z"/><path fill="#2c2414" fill-opacity=".702" d="M314.656 613.326L237.97 483.518l333.05 125.841-292.498-94.66z"/><path fill="#aa091d" fill-opacity=".71" d="M417.228 326.394l58.399 77.854 98.961 1.92 49.626 8.161z"/><path fill="#3b5274" fill-opacity=".486" d="M634.621 565.349l204.018-34.691 29.026 242.116-171.504-51.473z"/><path fill="#a2fcff" fill-opacity=".345" d="M346.426 585.616l-66.43-66.802 64.513 12.93 17.56 12.262z"/><path fill="#0c0204" fill-opacity=".549" d="M330.831 249.056l54.035 42.902-96.228 144.976 32.043 29.457z"/><path fill="#bd8d93" fill-opacity=".875" d="M219.637 465.108l60.342 25.92 1.01-100.268 67.12-21.593z"/><path fill="#b9c1d6" fill-opacity=".647" d="M187.634 349.876l73.58-20.4 5.97-.887 20.585 10.66z"/><path fill="#7a8cc7" fill-opacity=".161" d="M111.594 140.108L215.584-62l10.326 272.345-287.741-15.82z"/><path fill="#271e24" d="M475.437 61.037L421.29 7.89 247.73 40.685l-51.858 72.764z"/><path fill="#f0afb6" fill-opacity=".278" d="M398.312 807.831L343.33 673.478l161.108 105.277-60.098-101.619z"/><path fill="#21000e" fill-opacity=".408" d="M261.839 341.765l-41.329 94.711 80.485-53.503-131.867-11.526z"/><path fill="#a7ccd5" fill-opacity=".424" d="M399.69 664.933l75.492-29.311-8.278-10.298-146.507 46.316z"/><path fill="#c25d5f" fill-opacity=".478" d="M394.296 806.587l-61.936 72.362 63.088 172.956-90.426-40.643z"/><path fill="#2c1310" fill-opacity=".682" d="M421.754 611.834L401.41 552.5l249.72 24.122-326.283 87.593z"/><path fill="#300001" fill-opacity=".831" d="M511.16 949.866L755.381 1086H469.04h112.775z"/><path fill="#fe1a38" fill-opacity=".486" d="M485.488 210.944L378.612 416.165l15.204-89.915 206.874 20.145z"/><path fill="#130000" fill-opacity=".624" d="M421.255 384.148l-1.5-60.883 53.151 73.684-4.404 73.701z"/><path fill="#b7d1dc" fill-opacity=".416" d="M311.116 645.393l90.53-24.929 62.063-23.066-159.927 31.517z"/><path fill="#962b23" fill-opacity=".565" d="M392.348 519.82l193.797 33.46 67.69 129.111-20.154-137.23z"/><path fill="#d05b71" fill-opacity=".671" d="M-62 301.802l297.487-29.096 29.858 18.344L65.019 488.758z"/><path fill="#ffe4eb" fill-opacity=".627" d="M577.055 351.428l18.647 26.506-64.826-4.417-.465-4.72z"/><path fill="#f33f56" fill-opacity=".553" d="M644.786 645.326l82.782 123.007 17.94 59.264-66.735-95.66z"/><path fill="#1f37a2" fill-opacity=".42" d="M610.705-1.241l-90.691-49.524-23.032 113.61 95.415 21.284z"/><path fill="#01040b" fill-opacity=".435" d="M147.017-59.943l-40.84 179.696L-62 118.42 2.36 23.958z"/><path fill="#071114" fill-opacity=".843" d="M351.428 446.414l5.48 22.257 44.846-4.213-13.796-59.788z"/><path fill="#491b23" fill-opacity=".992" d="M833.596 1086l-26.763-54.47-32.777-126.718 3.79-38.901z"/><path fill="#d3fddb" fill-opacity=".22" d="M272.836 486.855L391.886 379.5l-47.057 81.486 93.101 68.958z"/><path fill="#161615" fill-opacity=".565" d="M433.41 295.257l-183.71 39.08 12.831-86.009 172.38 64.377z"/><path fill="#c3000c" fill-opacity=".306" d="M598.537 862.63l196.252 15.824-159.358-49.316-160.724-269.987z"/><path fill="#a38796" fill-opacity=".565" d="M546.83 809.53l-204.262 48.485 213.898-71.09-4.964-6.551z"/><path fill="#d0697e" fill-opacity=".875" d="M635.037 365.947L898 430.152l-261.433 74.953-58.728-201.31z"/><path fill="#778496" fill-opacity=".486" d="M354.284 813.988L231.922 693.516l-248.57 162.27 322.898 37.945z"/><path fill="#d19a9f" fill-opacity=".557" d="M168.614 460.744l97.662-52.742 6.752 30.06-164.755-72.135z"/><path fill="#f6252a" fill-opacity=".216" d="M413.005 691.05l-72.769-216.928 76.916 139.118 165.537 406.091z"/><path fill="#352118" fill-opacity=".675" d="M224.06 200.836l69.465-35.996 88.978 220.411-3.997-164.27z"/><path fill="#9b1017" fill-opacity=".596" d="M421.201 487.996l-57.24-121.034 248.551-17.351-184.018-21.356z"/><path fill="#b14b5e" fill-opacity=".647" d="M860.925 326.546l-16.706 76.736L548.242 257.6l311.378 16.174z"/><path fill="#0e1415" fill-opacity=".647" d="M345.716 528.347l34.29 11.914-56.713 73.015 54.77 4.49z"/><path fill="#180000" fill-opacity=".447" d="M380.475 667.885l-77.13 16.734 185.893 14.644 172.558-77.005z"/><path fill="#f0f4fc" fill-opacity=".294" d="M430.493 752.417l-51.712 47.884 23.335-64.062L301.973 609.6z"/><path fill="#00061a" fill-opacity=".431" d="M473.682 128.51l140.797 13.694L797.975 35.57 702.31 24.4z"/><path fill="#eb566d" fill-opacity=".537" d="M400.301 282.371l-17.037 98.205 33.498-49.56 17.125-72.164z"/><path fill="#8a6a57" fill-opacity=".294" d="M358.067 510.736L898 504.814l-484.1 57.698-45.948 33.083z"/><path fill="#04040d" fill-opacity=".376" d="M193.891 351.755l7.214 69.822 10.158-125.691 12.959-11.685z"/><path fill="#3d1117" fill-opacity=".506" d="M577.894 773.96l-196.08 22.43 157.374-46.984-187.797 87.372z"/><path fill="#cff6ff" fill-opacity=".42" d="M521.575 764.509L473.1 786.667l-38.031 7.857-27.188 2.667z"/><path fill="#b88680" fill-opacity=".494" d="M230.198 261.911l30.446 34.546-32.29-87.232 106.324 25.46z"/><path fill="#dfb694" fill-opacity=".247" d="M288.741 71.755l-90.43 113.312 30.238-77.109 112.687 87.022z"/><path fill="#281721" fill-opacity=".718" d="M344.038 779.96l54.393-28.345-61.51 111.81 65.882-54.02z"/><path fill="#f11b31" fill-opacity=".412" d="M273.42 462.117l1.92-140.935 23.374 26.97-1.853 103.22z"/><path fill="#cba59c" fill-opacity=".718" d="M620.217 418.747l3.6 125.662-115.633-52.957-29.659-54.59z"/><path fill="#d3f4fa" fill-opacity=".263" d="M135.586 421.853l84.006-2.979 10.319-43.641 73.75-9.45z"/><path fill="#fffff2" fill-opacity=".271" d="M812.423 995.429l33.748 89.623L898 861.927l-98.94 73.71z"/><path fill="#a0bec4" fill-opacity=".318" d="M45.71 894.772l286.884 16.929 91.158-10.593L36.875 1086z"/><path fill="#e72032" fill-opacity=".404" d="M393.289 792.502L433.4 981.523 326.52 960.15l118.375-91.308z"/><path fill="#f82f49" fill-opacity=".573" d="M515.138 368.905l-56.321 44.373 103.797-21.69 108.98 24.711z"/><path fill="#001316" fill-opacity=".369" d="M433.464 710.307l-4.652 61.23-31.037-75.198 212.802 41.673z"/><path fill="#4d121a" fill-opacity=".847" d="M793.452 911.834L640.415 736.007l-66.12-192.553L712.1 789.532z"/><path fill="#d2e4ff" fill-opacity=".38" d="M285.188 404.491l-6.14-8.768 19.639-17.823 32.868 14.095z"/><path fill="#b1c4d3" fill-opacity=".471" d="M487.125 734.536l-15.727-22.088-23.792 67.854 52.676-33.025z"/><path fill="#8a94a2" fill-opacity=".51" d="M528.901 811.394l-160.57 19.823 3.032 18.833 106.934-14.513z"/><path fill="#814a3a" fill-opacity=".894" d="M345.14 365.333l-15.586 60.853 53.634-6.396 2.91-53.686z"/><path fill="#c49175" fill-opacity=".263" d="M411.023 236.09L398.826 42.577 358.38 172.902l41.005 61.284z"/><path fill="#018e86" fill-opacity=".259" d="M501.361 407.8l67.775-9.875 64.938 9.786-149.29 27.616z"/><path fill="#55627d" fill-opacity=".988" d="M229.061 597.876L-62 608.984l375.846 56.963 9.827-54.441z"/><path fill="#915474" fill-opacity=".396" d="M630.981 466.265l-17.453 91.066L898 533.019l-7.95-33.334z"/><path fill="#ff0206" fill-opacity=".298" d="M302.478 569.291l-1.412-33.117L352.6 650.412l5.394 51.374z"/><path fill="#110d15" fill-opacity=".671" d="M500.158 848.507l-56.243 64.005 7.263-113.155-8.21 35.499z"/><path fill="#6a050a" fill-opacity=".898" d="M612.03 896.757l134.444-11.41-112.923 102.97L592.028 1086z"/><path fill="#fc96b9" fill-opacity=".4" d="M404.268 566.542l-1.049-.59-32.532-6.393-12.595 29.043z"/><path fill="#413814" fill-opacity=".361" d="M195.555 495.45l22.512-17.857 309.672 66.568 81.165 63.394z"/><path fill="#1c0e16" fill-opacity=".494" d="M389.615 871.565l-61.509-215.504 37.963 90.517 1.986-48.688z"/><path fill="#ff4667" fill-opacity=".612" d="M481.206 238.54l15.74-23.346 88.693 65.74-32.845 50.397z"/><path fill="#8b0209" fill-opacity=".525" d="M439.437 962.92l116.66 90.48-74.002-216.566 46.112-19.672z"/><path fill="#848c9b" d="M734.205 762.49l113.358 16.11 11.608 154.89-113.967-86.325z"/><path fill="#dfcbc4" fill-opacity=".42" d="M264.406 486.574l-1.178-66.195-45.09 24.946-9.828-82.772z"/><path fill="#ceaeaf" fill-opacity=".718" d="M388.892 513.405L226.91 461.872l-48.927 33.33 157.92-45.152z"/><path fill="#e2bbb2" fill-opacity=".51" d="M499.552 525.242l-133.42-53.03 12.9 38.285 139.74-43.65z"/><path fill="#64040b" fill-opacity=".51" d="M451.757 200.895l-229 249.392 61.751-85.555 71.893-27.44z"/><path fill="#1c1303" fill-opacity=".388" d="M361.306 21.296l6.536 278.817-10.356-129.74-97.354-118.25z"/><path fill="#99556b" fill-opacity=".675" d="M-62 433.809l324.269 76.106-92.382 14.132L-62 506.717z"/><path fill="#7a2c23" fill-opacity=".525" d="M898 14.517L791.024 68.07 711.911-62l26.818 29.433z"/><path fill="#5a4869" fill-opacity=".549" d="M148.626-62L249.382 50.718l-45.035 50.57-31.906 83.106z"/><path fill="#7d0c14" fill-opacity=".984" d="M478.029 480.179l-54.346.512-35.482-71.596 10.041-19.932z"/><path fill="#0d0006" fill-opacity=".471" d="M281.103 370.748l-35.1 65.346-18.182-30.941 32.601-23.065z"/><path fill="#313c53" fill-opacity=".345" d="M782.813 71.562L512.225 223.047l111.273 60.757 165.705-44.322z"/><path fill="#00060f" fill-opacity=".596" d="M305.373 402.11l9.882 61.232 18.546-61.287 141.35-.508z"/></svg>