<svg xmlns="http://www.w3.org/2000/svg" width="228" height="278" viewBox="0 0 836 1024"><path fill="#797d83" d="M0 0h836v1024H0z"/><g fill-opacity=".502"><path fill="#fff" d="M678 314l-180 772L54 398z"/><path d="M898-10l-68 868L426-26zM414-62L-34 718l20-752z"/><path fill="#fcffff" d="M290 1050l-88-736 540 612z"/><path fill="#fdf9ff" d="M662 598L110 358l552-28z"/><path fill="#009cff" d="M290 1078L50 762l-112 240z"/><path fill="#c0edff" d="M806 1086l92-236-420-8z"/><path fill="#001235" d="M186-62L-62 470l408-208z"/><path fill="#fff" d="M154 338l36 300-124-16z"/><path fill="red" d="M646 946l-240 84 272-8z"/><path fill="#001734" d="M698-62l180 472-440-148z"/><path fill="#240200" d="M146 746l112 88-40-292z"/><path fill="#031120" d="M134 250L-62 662 38 830z"/><path fill="#f03600" d="M442 502l-136 88 252-44z"/><path fill="#192937" d="M606 838l292-16-92-884z"/><path fill="#c07d30" d="M502 42l-60 348L246 74z"/><path fill="#ef933a" d="M50 778l32-168 236 404z"/><path fill="#fdb167" d="M670 578l-80 100 168 104z"/><path fill="#191a00" d="M886 50L14 62 446-62z"/><path fill="#dfeffc" d="M606 954l-364 104 352-584z"/><path fill="#0b264a" d="M-62 134l80 440 296-464z"/><path fill="#f2e0e5" d="M474 282L322 586l316-256z"/><path fill="#d6aa8c" d="M354 930L174 826l20 260z"/><path fill="#007ac4" d="M742 886l-140-80 296 4z"/><path fill="#bd6d40" d="M206 338l268-128v144z"/><path fill="#0084c7" d="M-38 750l232 164-92 172z"/><path fill="#092046" d="M706 702l-68-524 260-32z"/><path fill="#feffff" d="M62 622l48-116 80 132z"/><path fill="#7f5b37" d="M730 794l-128-44 8-248z"/><path fill="#262d28" d="M-62-2l360 280 24-324z"/><path fill="#d3dfe8" d="M238 866l252-308 212 412z"/><path fill="#1294db" d="M690 1086h72V850z"/><path fill="#fbce99" d="M314 62l152 12-144 52z"/><path fill="#ece5ff" d="M806 1086l92-260-124 76z"/><path fill="#f1e3ec" d="M450 514L294 302 114 450z"/><path fill="#4a1700" d="M310 966l-60 44-36-36z"/><path fill="#121908" d="M238 538l-28 24v-72z"/><path fill="#855623" d="M226 658L94 626l20 116z"/><path fill="#f8ffff" d="M314 1078l136-72H170z"/><path fill="#ff2" d="M446 598l20-88-44-4z"/></g></svg>