<svg xmlns="http://www.w3.org/2000/svg" width="228" height="278" viewBox="0 0 836 1024"><path fill="#475262" d="M0 0h836v1024H0z"/><path fill="#fef1ea" fill-opacity=".459" d="M802.562 1007.658L164.382 1086 520.52 941.138 898 720.773z"/><path fill="#28252c" fill-opacity=".929" d="M-62-62L898 1.326V258.95l-960 3.501z"/><path fill="#d3d9fe" fill-opacity=".267" d="M619.412 91.307L350.015 591.38 164.279 353.506l351.053-289.65z"/><path fill="#83bcfa" fill-opacity=".51" d="M605.26 296.178l116.953 83.606 31.406 90.301-243.691 25.464z"/><path fill="#bca07d" fill-opacity=".545" d="M-62 738.409l370.32 152.928-199.816 141.286L-62 908.213z"/><path fill="#1462b8" fill-opacity=".455" d="M127.106 696.347l258.61 319.605 239.417-105.427-123.771-525.3z"/><path fill="#7b5541" fill-opacity=".988" d="M540.22 390.148l-137.155-30.465 51.798-317.027 154.83 54.647z"/><path fill="#603d0b" fill-opacity=".412" d="M587.745 793.186l24.437-176.792L898 374.122l-203.485 681.619z"/><path fill="#99420b" fill-opacity=".475" d="M-50.504 556.28L82.258 806.7 277.016 1086 76.624 451.927z"/><path fill="#638ab9" fill-opacity=".898" d="M463.408 460.745l-359.96-73.094L235.285 284.8l146.048-42.826z"/><path fill="#c2d4fc" fill-opacity=".776" d="M597.612 919.841l-230.401 130.07 342.417 21.822L631.15 936.31z"/><path fill="#002142" fill-opacity=".525" d="M519.113 640.83L216.58 757.465l39.78-403.163L78.302 576.784z"/><path fill="#00051c" fill-opacity=".439" d="M821.302 481.181L622.157 286.8 568.074-62 898-33.533z"/><path fill="#0c1930" fill-opacity=".6" d="M-31.643-59.907l528.886 2.753-98.856 308.767-430.929 72.09z"/><path fill="#b08e7e" fill-opacity=".49" d="M715.273 674.917l-65.265 294.546-81.385-190.151 323.182 92.51z"/><path fill="#1e0e00" fill-opacity=".518" d="M582.916 271.833l-20.364 128.535-133.03 6.044 19.448-92.585z"/><path fill="#f7f1ec" fill-opacity=".369" d="M232.516 304.421l-21.047 3.354L72.53 440.422-62 615.564z"/><path fill="#487cba" fill-opacity=".659" d="M192.823 824.45l161.704 124.798 251.504-22.21-9.959-121.36z"/><path fill="#dde7fc" fill-opacity=".663" d="M729.592 1003.286l-30.125-73.198 60.798-18.221 40.327 93.455z"/><path fill="#001433" fill-opacity=".384" d="M807.21 521.57l-34.393-146.558-195.323 289.803 71.754 108.583z"/><path fill="#0c0a0d" fill-opacity=".475" d="M329.524 981.573l141.787-38.328L142.39 963.88 248.117 1086z"/><path fill="#93a8a9" fill-opacity=".624" d="M141.163 896.672L166.342 1086 30.319 904.682l27.66-165.162z"/><path fill="#a7765f" fill-opacity=".725" d="M580.309 63.868L467.48 67.213l-60.429 118.939 30.887 82.374z"/><path fill="#356596" fill-opacity=".549" d="M526.932 724.51l174.015-236.895-231.048-24.508-330.01-65.828z"/><path fill="#06213e" fill-opacity=".58" d="M556.357 657.398L436.22 770.031l-308.527-17.338 256.96-22.264z"/><path fill="#8b8246" fill-opacity=".553" d="M731.614 785.832l79.162 279.867-187.259-107.244L898 1059.532z"/><path fill="#7f1f00" fill-opacity=".267" d="M774.783 896.563l-77.647 41.581L602.68 692.84l82.58-76.286z"/><path fill="#021b38" fill-opacity=".447" d="M474.003 790.661l-157.962 13.848 145.456 24.712-241.612 48.315z"/><path fill="#051628" fill-opacity=".541" d="M158.622 753.076l99.998-67.54 172.264-61.017-263.765 172.104z"/><path fill="#ffdab8" fill-opacity=".165" d="M127.13 335.94l-142.982-5.42 147.764 164.164L-62 668.761z"/><path fill="#72b0fe" fill-opacity=".329" d="M428.927 793.414l-174.982-65.31 137.156-9.148-145.27 67.129z"/><path fill="#c5d2e6" fill-opacity=".333" d="M459.78 436.562l-86.362-114.56 4.88-1.877-84.286 109.306z"/><path fill="#a3c7f1" fill-opacity=".404" d="M693.552 492.497l-18.405-167.86 78.504 124.53-220.604-56.976z"/><path fill="#204e7f" fill-opacity=".678" d="M542.033 629.822l-351.513 43.9 58.026-308.18-113.844 64.083z"/><path fill="#0f0a02" fill-opacity=".369" d="M684.457 193.316l-412.208-70.643L-15.574-62l507.76 194.46z"/><path fill="#667f31" fill-opacity=".722" d="M-62 1086H64.28l59.774-110.494L-62 947.375z"/><path fill="#a06652" fill-opacity=".725" d="M171.652 898.146l138.886 148.74L140.93 769.972 321.815 950.48z"/><path fill="#1d2c4c" fill-opacity=".753" d="M551.63 282.931l231.159-134.106 95.023 317.955-220.738-141.747z"/><path fill="#4f582b" fill-opacity=".718" d="M793.082 749.913l-6.896-252.916L898 274.315l-16.75 542.546z"/><path fill="#4c7dbb" fill-opacity=".894" d="M319.821 261.802l-146.775 68.546 185.308 4.85 66.253-101.214z"/><path fill="#00071f" fill-opacity=".247" d="M254.077 389.188l68.089 64.297-237.888-37.442 131.658 180.316z"/><path fill="#121113" fill-opacity=".71" d="M514.982 55.091L898 74.431 561.773-62 178.955 155.376z"/><path fill="#4e77a3" fill-opacity=".561" d="M285.223 492.474l304.21-86.383-44.775 112.7-358.834 45.724z"/><path fill="#1d2c4d" fill-opacity=".686" d="M212.342 301.71L-62 313.303V178.116l468.662 3.668z"/><path fill="#706f3a" fill-opacity=".992" d="M898 972.381L665.759 1086l32.598-149.477 32.143 83.765z"/><path fill="#4f84c4" fill-opacity=".678" d="M262.226 825.754l-81.995-42.503 51.741 76.967 284.733-60.386z"/><path fill="#ffb890" fill-opacity=".184" d="M612.752 86.312l-167.073 14.39 142.25 167.739-173.572-48.335z"/><path fill="#b4c0e0" d="M342.171 1076.89l2.294-65.933 64.877-10.34 186.18.892z"/><path fill="#3294fd" fill-opacity=".345" d="M164.086 366.464l6.759 96.266-98.185 3.164L121.123 529z"/><path fill="#534f56" fill-opacity=".816" d="M99.875 588.446l84.181-69.45.644 169.542-34.606 39.491z"/><path fill="#e4f9ff" fill-opacity=".373" d="M208.243 354.27l-64.354 38.952 26.236-65.082 33.439-11.613z"/><path fill="#083a6a" fill-opacity=".447" d="M724.423 610.896l-24.038-158.83 83.784 61.395-496.28 148.693z"/><path fill="#5b95da" fill-opacity=".459" d="M551.973 658.407l71.01-58.893-72.04 34.359-234.845 109.503z"/><path fill="#a89482" fill-opacity=".396" d="M710.178 540.604l-19.2 102.032L898 1031.414 715.588 824.24z"/><path fill="#b9cae1" fill-opacity=".847" d="M128.943 1011.328l90.216 53.057L65.379 1086l57.28-98.794z"/><path fill="#36669d" fill-opacity=".922" d="M334.853 918.038l209.769-42.831 59.615-151.614-43.162-24.263z"/><path fill="#663310" fill-opacity=".251" d="M-62 649.716L134.914 523.74l54.3 501.516-58.873-171.692z"/><path fill="#031e45" fill-opacity=".435" d="M300.864 1001.737l157.309-49.243-3.15 45.412 52.507-32.41z"/><path fill="#4e78a8" d="M571.207 283.458l16.62 106.682 70.702-50.824-93.053-59.56z"/><path fill="#5e6874" d="M577.878 527.889l71.59-56.513 3.591 12.303-128.846-20.068z"/><path fill="#4076b7" fill-opacity=".365" d="M183.924 536.54l.584 204.934L305.345 583.48 158.16 610.91z"/><path fill="#000507" fill-opacity=".337" d="M615.088 621.902l96.953-121.618-55.345 215.965-26.33 54.048z"/><path fill="#654027" fill-opacity=".616" d="M521.95 356.223l113.562-158.37-115.597 52.391-65.917-.584z"/><path fill="#477ab3" fill-opacity=".714" d="M155.306 978.552L222.593 1086l-96.895-84.765 5.308-64.93z"/><path fill="#0c0a06" fill-opacity=".42" d="M136.47 1003.689l171.114-50.76-60.382-25.162 8.047 90.377z"/><path fill="#000b13" fill-opacity=".463" d="M178.394 533.46L63.087 591.534 234.685 462.74l-40.377 155.588z"/><path fill="#60666a" fill-opacity=".667" d="M103.007 333.226l-160.102-54.075 17.517 135.876 213.844-15.702z"/><path fill="#20130d" fill-opacity=".345" d="M537.632 414.428l84.835 43.925-210.533-79.072 81.833-69.047z"/><path fill="#c28f85" fill-opacity=".325" d="M635.154 765.762l-50.452-2.022 21.44 115.722 59.526-6.38z"/><path fill="#669ce5" fill-opacity=".322" d="M602.637 926.976L582.244 826.48l-54.134 55.976-256.019 37.421z"/><path fill="#04244e" fill-opacity=".604" d="M218.028 790.863l242.183 7.281-140.523 20.385-72.54-17.313z"/><path fill="#73acf1" fill-opacity=".537" d="M476.514 867.14l-23.086-12.87-40.504 26.672 126.397-14.041z"/><path fill="#ceddff" fill-opacity=".424" d="M94.203 504.117l-27.51-45.527 9.222-16.426 15.604-26.558z"/><path fill="#121216" d="M898-50.078L594.901 36.94l39.522 172.078L802.475 84.17z"/><path fill="#a97661" fill-opacity=".663" d="M569.166 143.629l-136.628-23.514 95.945-59.029 82.43 35.4z"/><path fill="#925837" fill-opacity=".545" d="M207.117 876.844L-29.758 589.432l97.381-125.445-3.053 187.516z"/><path fill="#2a4566" fill-opacity=".38" d="M276.777 459.786l96.243-181.752 17.038 56.73-62.518-20.68z"/><path fill="#000b18" fill-opacity=".302" d="M217.316 711.388l316.58 2.858L396.64 740.17l16.8-62.61z"/><path fill="#6a96c4" fill-opacity=".435" d="M267.501 450.847l162.365 14.523-88.646 123.173 31.323-65.54z"/><path fill="#0b1221" fill-opacity=".443" d="M430.88 218.46L299.104 48.085l-101.466 59.43 218.047 142.102z"/><path fill="#61a4ec" fill-opacity=".463" d="M623.021 379.616l119.954 50.878-40.627-73.607-54.854-34.201z"/><path fill="#001e3b" fill-opacity=".416" d="M312.83 851.414l159.195-47.339 65.099-9.379-252.114 79.508z"/><path fill="#97a091" fill-opacity=".494" d="M792.238 755.34l-50.1 33.652L885.547 1086 898 734.683z"/><path fill="#324b57" fill-opacity=".373" d="M799.537 786.907l-59.348-46.773-44.951-160.61 109.506-197.302z"/><path fill="#02275b" fill-opacity=".471" d="M547.024 882.9l-150.202-3.916-18.866-7.202-37.653 25.956z"/><path fill="#72b0fd" fill-opacity=".298" d="M253.828 783.562l174.335-21.89-71.68 36.23-150.67-43.078z"/><path fill="#e1e6ff" fill-opacity=".471" d="M745.42 918.923l22.848-2.534 17.689 46.062-59.141 84.475z"/><path fill="#2b1200" fill-opacity=".506" d="M534.85 134.406l39.839 21.814-48.999 5.474-19.958-28.732z"/><path fill="#366292" fill-opacity=".878" d="M416.526 558.724L605.41 626.31 487.085 428.224l-20.326-29.225z"/><path fill="#0e3055" fill-opacity=".69" d="M291.437 769.235l147.462-9.33 110.698-58.358L250.2 755.172z"/><path fill="#a86f5b" fill-opacity=".631" d="M145.495 887.12l3.748 84.45 28.616-1.843 106.97-72.796z"/><path fill="#497fb3" fill-opacity=".471" d="M692.969 1074.242l-49.829-72.38-28.62-9.305 1.776 25.899z"/><path fill="#906046" fill-opacity=".514" d="M728.53 621.574l-82.975 345.969 121.125-70.516-76.393-268.77z"/><path fill="#1f5a96" fill-opacity=".439" d="M167.041 388.383L116.152 508.84l11.393 35.866L235.779 355.96z"/><path fill="#80ade1" fill-opacity=".365" d="M334.232 883.23l-96.447 10.667 214.915-66.11-49.185 35.061z"/><path fill="#dae5ff" fill-opacity=".357" d="M547.265 926.767l100.47 12.01-5.718 39.118-85.697 88.6z"/><path fill="#0b2238" fill-opacity=".722" d="M202.236 526.402l-58.53-.888 94.71-2.59 50.744-55.121z"/><path fill="#220002" fill-opacity=".624" d="M498.049 250.93l-25.208-4.814-29.453 7.412 78.12 18.242z"/><path fill="#112235" fill-opacity=".675" d="M253.024 915.885l46.399 97.334 141.315-44.191-117.93 18.879z"/><path fill="#b2846e" fill-opacity=".533" d="M560.177 238.34l-41.54 31.391-26.934-121.636-80.823 32.974z"/><path fill="#f3dac3" fill-opacity=".141" d="M667.133 513.072L614.76 385.63l-58.69 174.505 132.39-172.523z"/><path fill="#14385d" fill-opacity=".741" d="M386.521 594.616l-38.084-28.015-159.11 174.776 93.127-83.302z"/><path fill="#79c1fd" fill-opacity=".337" d="M597.48 536.632l11.32 19.747 15.889 1.317 42.152-11.542z"/><path fill="#425770" fill-opacity=".737" d="M517.059 413.975l55.992 10.406-119.703-73.017L728.227 517.85z"/><path fill="#5184c5" fill-opacity=".533" d="M207.87 356.042l25.737 45.042 178.048-164.783-215.264 66.17z"/><path fill="#4a3f2b" fill-opacity=".482" d="M3.912 816.335l-5.115-183.239 187.174 282.17L34.048 719.64z"/><path fill="#76b9ff" fill-opacity=".239" d="M382.986 932.806l159.563-42.486-247.397 102.928 76.855-19.1z"/><path fill="#7b4d32" fill-opacity=".655" d="M595.646 242.052l31.792-8.587-24.51-23.188-162.428 2.26z"/><path fill="#365c88" fill-opacity=".659" d="M386.9 288.228l31.229 103.971 77.945 66.18 81.37 177.584z"/><path fill="#8f9cb3" fill-opacity=".482" d="M267.241 344.167l-13.43 88.242 25.642-11.81 37.922-59.203z"/><path fill="#b1b2a8" fill-opacity=".373" d="M53.617 928.63l22.827-155.123 60.041 114.62-7.542 51.316z"/><path fill="#6ca0d2" fill-opacity=".475" d="M588.206 772.9l-26.789 28.647-25.128 19.307-16.258-14.867z"/><path fill="#677c35" fill-opacity=".698" d="M811.416 1086L898 930.225l-27.505 77.448-86.974-53.446z"/><path fill="#3e7bb5" fill-opacity=".42" d="M576.223 700.438l-90.338 7.485 71.546-34.456 53.778-131.958z"/><path fill="#435d81" fill-opacity=".996" d="M457.55 963.97l-143.86 50.787 166.122-31.418-74.163 5.075z"/><path fill="#99b2cf" fill-opacity=".259" d="M565.924 602.748l-59.701-162.356 90.908-61.93-67.922 64.458z"/><path fill="#1d0803" fill-opacity=".161" d="M394.804 458.826L370.75 388l-17.683 76.901-93.964-48.238z"/><path fill="#14171f" fill-opacity=".894" d="M264.926 14.521L-27.004-62-62 315.27 70.17 51.233z"/><path fill="#546913" fill-opacity=".392" d="M687.21 1009.175L777.979 1086 687.85 948.557l-41.982 11.038z"/><path fill="#341500" fill-opacity=".529" d="M101.27 544.36l44.93 1.685-76.483 50.306 4.19-51.592z"/></svg>