<svg xmlns="http://www.w3.org/2000/svg" width="228" height="278" viewBox="0 0 836 1024"><path fill="#907f61" d="M0 0h836v1024H0z"/><path fill="#c8d4e2" fill-opacity=".816" d="M495.73-62h346.985l47.077 128.922-311.353 297.51z"/><path fill="#ecf1fa" fill-opacity=".753" d="M-62 182.195V8.6L400.445-62l-99.279 180.702z"/><path fill="#f0f3f8" fill-opacity=".804" d="M-3.402 703.701L-43.848 1086l168.842-10.99 29.044-256.158z"/><path fill="#614626" fill-opacity=".796" d="M898 948.41L725.166 583.422l-752.592 20.841 358.479 327.124z"/><path fill="#1b0007" fill-opacity=".482" d="M293.89 211.113L458.344 445.16l113.111-204.254L354.303 18.877z"/><path fill="#f6d700" fill-opacity=".302" d="M481.904 1080.37L146.86 335.93l467.7 13.471.573 26.072z"/><path fill="#020e44" fill-opacity=".498" d="M668.535 366.653L898 452.556l-127.582-292.45-109.787 41.987z"/><path fill="#674f50" fill-opacity=".988" d="M168.524 362.154l358.832-253.477L-62 331.727 32.089 732.62z"/><path fill="#c5a300" fill-opacity=".612" d="M657.937 1086L290.428 841.507l-128.786-84.892-35.545 310.116z"/><path fill="#f8feff" fill-opacity=".396" d="M486.562 358.09l148.716-82.076 80.715 178.951-37.911 61.62z"/><path fill="#0c0459" fill-opacity=".404" d="M574.12 929.425l40.259-194.13L898 610.24v322.346z"/><path fill="#fbff74" fill-opacity=".38" d="M70.471 740.281l83.207-373.315 205.018-128.338-203.843 345.17z"/><path fill="#8a750c" fill-opacity=".882" d="M261.104 431.158l74.957 31.083 91.896 239.335-282.472-105.423z"/><path fill="#9f9aa4" fill-opacity=".843" d="M85.58 162.333L229.366 2.606 107.818 321.548-62 140.551z"/><path fill="#3b2b1d" fill-opacity=".875" d="M473.76 443.727l27.894-168.074-185.983-71.151 34.837 118.683z"/><path fill="#010000" fill-opacity=".251" d="M237.144 1032.616l-25.798-252.581L-62 614.193l505.632 200.964z"/><path fill="#dbc940" fill-opacity=".737" d="M520.615 328.514l66.159 96.656 37.252 175.787-229.52-48.086z"/><path fill="#d5bcff" fill-opacity=".353" d="M859.767 583.031L670.533 756.78l29.42-93.115L898 371.7z"/><path fill="#412b06" fill-opacity=".573" d="M363.941 592.991l-22.623 88.62 230.88-122.335 74.292 236.64z"/><path fill="#f7fcff" fill-opacity=".584" d="M898 219.788L829.51-62H694.82l116.97 249.383z"/><path fill="#b7c5ff" fill-opacity=".647" d="M159.316 432.796l-22.95 89.04 64.3 9.893 14.142-93.015z"/><path fill="#8f6b80" fill-opacity=".588" d="M148.188 664.794l306.965 98.349 152.279-19.057-119.106 109.456z"/><path fill="#ead618" fill-opacity=".435" d="M284.162 283.102l-79.305 148.034 288.76 82.02L332.819 270.59z"/><path fill="#6f4b3a" fill-opacity=".863" d="M713.862 423.907l101.595 77.81-91.602 90.925-54.497 22.522z"/><path fill="#483f00" fill-opacity=".306" d="M146.61 227.45l133.818 256.02L204.16 89.58l-87.5 72.226z"/><path fill="#fddf3d" fill-opacity=".518" d="M389.606 845.188l-18.515-18.497 107.495 36.048 64.984 157.692z"/><path fill="#ffeb38" fill-opacity=".4" d="M225.145 814.51l-2.55 271.49-95.337-69.857 26.372-254.105z"/><path fill="#7e5f58" fill-opacity=".98" d="M354.693 179.92l19.114 136.103L415.53-62l103.537 291.519z"/><path fill="#9ea2b5" fill-opacity=".71" d="M168.839 742.14l-1.113 15.246L-62 683.387l198.301 156.398z"/><path fill="#446bf1" fill-opacity=".463" d="M508.815 516.846l13.92-60.887 33.457 56.967-17.813 53.42z"/><path fill="#c4b823" fill-opacity=".714" d="M206.572 514.615l64.35 29.61-41.037 73.23-146.772-32.63z"/><path fill="#e7eef0" fill-opacity=".745" d="M671.383 19.303L219.987-6.812l14.381 96.043L533.431-62z"/><path fill="#342f2f" fill-opacity=".702" d="M322.22 73.021L483.037-62h-21.749L326.41 256.586z"/><path fill="#202017" fill-opacity=".725" d="M232.513 944.234L230.47 1086l17.844-149.785-26.495-300.748z"/><path fill="#a17a01" fill-opacity=".557" d="M239.16 817.275l90.429 1.5 173.762 152.711-257.58 38.479z"/><path fill="#768597" fill-opacity=".502" d="M636.339 391.845L637.55 191.7l51.063-28.51 128.1-32.64z"/><path fill="#131236" fill-opacity=".4" d="M-41.279 191.197l177.748 166.24L382.835 224.83-62 339.872z"/><path fill="#564112" fill-opacity=".784" d="M-15.842 552.664l245.625 71.669 95.151-164.569-47.572 209.89z"/><path fill="#f4edff" fill-opacity=".208" d="M556.425 122.605L370.7 83.125 644.677-62l-29.406 503.296z"/><path fill="#7d727f" fill-opacity=".522" d="M52.937 437.108l195.321 45.471-95.716-73.748L-2.451 148.278z"/><path fill="#ddf0f4" fill-opacity=".412" d="M898 488.797L739.557 560.47l69.248 37.816 85.522 106.22z"/><path fill="#160e26" fill-opacity=".325" d="M174.102 693.539L16.054 704.227l629.444 212.897-221.418-115.39z"/><path fill="#1e0809" fill-opacity=".447" d="M477.974 106.214l-19.425 54.425 91.91-51.177-5.091 50.19z"/><path fill="#9c6d81" fill-opacity=".8" d="M896.9 1086H514.936l20.454-147.048L898 955.613z"/><path fill="#fff" fill-opacity=".314" d="M89.648 283.905L-51.912-62l200.075 45.21-27.855 111.87z"/><path fill="#000015" fill-opacity=".306" d="M802.326 400.103l-167.62-63.042 228.473-79.076-72.184-64.017z"/><path fill="#bebfc1" fill-opacity=".506" d="M318.7 160.572L306.326 97.59 127.902-45.293l80.068 210.476z"/><path fill="#f7d51f" fill-opacity=".439" d="M487.557 762.082l1.961-103.041-82.337-12.338-2.952 15.342z"/><path fill="#844a55" fill-opacity=".494" d="M627.29 600.121l-26.628-120.34L898 714.395l-69.853 108.521z"/><path fill="#362609" fill-opacity=".592" d="M740.841 537.461l-30.317 121.91-52.947 83.896-54.852 35.23z"/><path fill="#cbac01" fill-opacity=".294" d="M605.685 546.506l-301.014-38.97 92.815 113.19 267.621-5.937z"/><path fill="#885561" fill-opacity=".443" d="M23.768 472.73L-62 754.494l329.253-78.636-135.633-48.969z"/><path fill="#091010" fill-opacity=".58" d="M459.712 441.293l-67.635-88.209-97.095-140.991L449.879 369.92z"/><path fill="#3f3f42" fill-opacity=".843" d="M314.75 69.76l190.217-44.197-265.674-86.451 298.135 8.49z"/><path fill="#e9d84f" fill-opacity=".969" d="M527.136 465.642L490.374 331.46l56.28 21.535 53.944 85.738z"/><path fill="#1b253e" fill-opacity=".549" d="M594.085 896.543L898 902.22 757.038 785.298l-120.06-28.236z"/><path fill="#bebbc3" fill-opacity=".639" d="M726.285 407.27l-47.725 89.983-142.513-150.621 14.175-23.5z"/><path fill="#2a1400" fill-opacity=".333" d="M554.604 327.87L334.032 363.1l13.44-51.758 226.734-22.478z"/><path fill="#362f2b" fill-opacity=".749" d="M194.122 245.249l-66.387 75.503L265.41 346.96l-42.11 22.826z"/><path fill="#f3d238" fill-opacity=".624" d="M548.617 1034.878l-162.797-33.28L496.185 1086 433.65 940.437z"/><path fill="#fff" fill-opacity=".286" d="M170.602 957.07L37.35 707.58l-51.236 212.46 40.174 73.756z"/><path fill="#905b6c" fill-opacity=".518" d="M587.594 897.004l17.049-83.958-71.938-129.74-42.401 130.812z"/><path fill="#ebdd4b" fill-opacity=".545" d="M177.78 349.326l127.983-75.403 84.328 209.972-105.998-160.05z"/><path fill="#332000" fill-opacity=".369" d="M366.49 861.203L27.336 689.165l323.08 99.253 141.957 192.104z"/><path fill="#73395a" fill-opacity=".522" d="M513.54 817.088l-16.302 97.652L898 932.638l-327.437 37.319z"/><path fill="#dbcf36" fill-opacity=".639" d="M88.872 624.603l97.751-269.448 120.12 50.5-160.94 2.436z"/><path fill="#4a3214" fill-opacity=".824" d="M612.74 638.72l-234.56-24.67 151.832 58.731 72.755 125.001z"/><path fill="#0e2269" fill-opacity=".231" d="M83.306 475.148L12.9 528.045-62 148.893l75.084 36.241z"/><path fill="#a66356" fill-opacity=".353" d="M424.697 336.818l-48.55-42.465-38.763-121.714 19.097-40.637z"/><path fill="#4a5c7e" fill-opacity=".263" d="M623.245 357.923L898 159.016l-269.741 68.426 142.864 241.18z"/><path fill="#d1d6d9" fill-opacity=".98" d="M331.227-62l190.81 93.265 288.938-34.86L340.978 6.13z"/><path fill="#320009" fill-opacity=".263" d="M693.658 271.707l172.204 267.196-63.961-204.635-119.549-21.68z"/><path fill="#683b00" fill-opacity=".557" d="M415.858 677.525l56.059 70.83-8.65 18.738L263.534 565.62z"/><path fill="#c79687" fill-opacity=".467" d="M506.23 813.598l-10.545-15.248-121.367-34.33 205.5-12.094z"/><path fill="#c6b120" fill-opacity=".447" d="M251.604 1086l49.41-159.82L466.006 1086 244.885 860.578z"/><path fill="#c59700" fill-opacity=".322" d="M253.686 704.385l52.74-62.28 118.129 62.252 20.687 59.911z"/><path fill="#886d39" fill-opacity=".349" d="M177.39 258.49l147.674 1.224L180.007 84.078l-44.815 73.682z"/><path fill="#e4ffff" fill-opacity=".42" d="M122.533 499.311l39.308 42.843 47.77-33.863-39.73-44.415z"/><path fill="#feff63" fill-opacity=".443" d="M254.53 311.73l-104.078 106.2 18.513-51.31 38.051-40.076z"/><path fill="#e7de38" fill-opacity=".635" d="M122.488 484.024l-15.533 108.724 24.92-22.555 39.824-2.037z"/><path fill="#f8ffff" fill-opacity=".18" d="M512.934 234.942l83.873.658 69.32 73.323-22.439 61.139z"/><path fill="#34302d" fill-opacity=".471" d="M198.781 415.241l62.868-85.374-111.77-45.107 130.115-44.097z"/><path fill="#755503" fill-opacity=".729" d="M474.185 1015.526L319.379 815.072l-90.794-17.716 76.013 49.177z"/><path fill="#02090d" fill-opacity=".518" d="M235.284 988.974L205.33 1086h46.765l-21.468-356.252z"/><path fill="#f6fcfb" fill-opacity=".376" d="M312.056 122.998L189.357 43.233 479.157-62 320.867 56.894z"/><path fill="#9f7a8f" fill-opacity=".529" d="M627.517 592.391l60.697-58.965-122.248-177.863 108.376 257.42z"/><path fill="#150415" fill-opacity=".302" d="M638.37 599.895L529.357 661.25l34.826 93.553-64.523-5.832z"/><path fill="#4a0a00" fill-opacity=".118" d="M-62 979.103l105.225 25.568 214.047-12L48.015 1086z"/><path fill="#efdc45" fill-opacity=".62" d="M445.628 896.139l6.826 15.981 36.66-39.872 41.816 152.98z"/><path fill="#9299c8" fill-opacity=".231" d="M132.642 304.115l48.405-62.243L38.536 106.26-2.716 259.181z"/><path fill="#9fa8ab" fill-opacity=".416" d="M759.45 31.379L580.3 258.439l196.348-83.658L628.457 55.41z"/><path fill="#d7c034" fill-opacity=".898" d="M638.017 601.994l-40.807 6.992-40.775-184.693-28.658-60.268z"/><path fill="#1b306c" fill-opacity=".51" d="M522.816 476.784l23.706 1.34-26.32 37.328-5.017 1.425z"/><path fill="#1a1812" fill-opacity=".482" d="M366.357 147.902l26.371 60.982-4.69-169.08-61.89 105.162z"/><path fill="#543f40" fill-opacity=".843" d="M51.732 626.777L27.785 678.92l62.449 41.824-1.018-92.317z"/><path fill="#96595e" fill-opacity=".643" d="M93.538 552.633l-57.522-33.011-97.085 118.207 169.574-23.858z"/><path fill="#7c776c" fill-opacity=".333" d="M173.416 623.64l-39.892-13.397L306.625 770.44l176.026 65.475z"/><path fill="#9a841b" fill-opacity=".576" d="M326.547 347.27l14.385-64.696 79.908 115.143-36.646 13.614z"/><path fill="#9b7a00" fill-opacity=".42" d="M611.93 615.25l-38.49-121.939-23.197 70.495 21.956 80.761z"/><path fill="#00131a" fill-opacity=".365" d="M286.042 644.288l-233.181-68.78 124.697 54.989-11.007-2.611z"/><path fill="#d1c22f" fill-opacity=".639" d="M257.47 438.179l102.06-73.337-31.819-33.48-198.504 86.37z"/><path fill="#2467ab" fill-opacity=".153" d="M721.541 616.391L654.65 757.534l17.67 119.978 67.584-8.742z"/><path fill="#f8df4b" fill-opacity=".565" d="M172.339 924.916l-38.967 127.887 5.433-148.14 23.556-74.972z"/><path fill="#9b6e68" fill-opacity=".443" d="M393.757 150.617l8.117 39.735 78.906 62.652 42.202-96.461z"/><path fill="#465173" fill-opacity=".494" d="M898 198.248v159.386l-207.812-91.105-24.752 5.177z"/><path fill="#2a1520" fill-opacity=".341" d="M139.378 433.408l26.101-61.822 103.696-137.55-88.396 31.74z"/><path fill="#6d611d" fill-opacity=".557" d="M202.425 505.538l240.562-16.945-12.165 18.623-62.68-3.69z"/><path fill="#dcc541" fill-opacity=".78" d="M549.248 581.417L431.1 410.987l-103.32 73.852 98.178 3.132z"/><path fill="#908caf" fill-opacity=".271" d="M97.348 599.952l35.319 214.956-61.57 32.02L89.942 651.16z"/><path fill="#8a7167" fill-opacity=".341" d="M-23.466 403.26l135.107-120.763 31.237 72.101 2.396 78.55z"/><path fill="#453f23" fill-opacity=".702" d="M420.927 633.97l84.573 11.363-164.238 3.071 23.69-57.729z"/><path fill="#a19614" fill-opacity=".537" d="M245.85 400.347l-36.61 136.72-74.981 14.186 214.651-95.814z"/><path fill="#000909" fill-opacity=".333" d="M308.008 234.515l51.005-35.357-8.078 144.7 48.961-29.896z"/><path fill="#3f0010" fill-opacity=".267" d="M592.006 943.752L487.19 795.28l20.692 126.047 148.332-80.997z"/><path fill="#83746b" fill-opacity=".592" d="M360.567 165.007l-167.18-16.838 99.378 74.413 36.294-43.45z"/><path fill="#9d7770" fill-opacity=".929" d="M509.82 82.616l-95.48-23.678 24.577 121.107-42.525-24.42z"/><path fill="#c9cfe0" fill-opacity=".314" d="M872.29 244.08l-80.128-59.384-66.36-143.38L898 161.039z"/><path fill="#f4cbe1" fill-opacity=".145" d="M823.689 577.579L695.563 685.326l33.978-98.96 100.64-97.514z"/><path fill="#271111" fill-opacity=".263" d="M445.655 100.546l15.33 340.387-77.197-177.047 124.63-122.048z"/><path fill="#878471" fill-opacity=".737" d="M326.468 1011.67l-7.416-10.873-14.147-3.326-27.461 73.04z"/></svg>