<svg xmlns="http://www.w3.org/2000/svg" width="228" height="278" viewBox="0 0 836 1024"><path fill="#4d4551" d="M0 0h836v1024H0z"/><path fill="#d1d1b3" fill-opacity=".62" d="M521.45 1042.064l124.922-496.383 106.935 65.373L863.57 1086z"/><path fill="#d5d4c0" fill-opacity=".502" d="M210.742 603.91l-10.597 139.22L-16.26 1086-62 723.255z"/><path fill="#ebbc81" fill-opacity=".576" d="M350.007 169.145l49.871 194.07 169.865-293.71-129.19-24.576z"/><path fill="#00003f" fill-opacity=".525" d="M594.039 800.754l-90.189 254.032-467.325-18.59L330.25 495.852z"/><path fill="#060201" fill-opacity=".631" d="M898 827.29L724.872 960.765l60.113-210.484-15.307-332.656z"/><path fill="#251a0d" fill-opacity=".714" d="M549.001 298.903l32.776-316.477L896.09-62 898 394.155z"/><path fill="#d3cbb9" fill-opacity=".498" d="M262.704 396.912L-62 362.894 4.176 489.677l151.398 33.547z"/><path fill="#221200" fill-opacity=".573" d="M478.552.944L-35.9-25.286-62 386.645l286.206-85.191z"/><path fill="#0a0935" fill-opacity=".541" d="M408.279 1086l90.99-791.279L898 557.663l-241.575 13.758z"/><path fill="#9698a0" fill-opacity=".78" d="M894.881 442.217l-61.978 52.364-266.76-168.374-12.372-32.738z"/><path fill="#3b3571" fill-opacity=".996" d="M312.55 655.196l197.948 54.231-318.393-375.403 531.525 49.338z"/><path fill="#cac4f3" fill-opacity=".627" d="M232.377 306.778l-22.15-9.07 193.418-18.356-49.781 49.938z"/><path fill="#171425" fill-opacity=".941" d="M262.468 472.799L25.341 620.048l17.745 50.513 63.132-20.255z"/><path fill="#181634" fill-opacity=".984" d="M250.345 604.359l166.883 55.558-189.51-194.381-44.156 439.993z"/><path fill="#867a74" d="M35.923 406.711L-62 861.27l199.58 77.455L30.12 638.47z"/><path fill="#443a30" fill-opacity=".98" d="M798.286 114.316l-366.182 27.547-12.053 17.494 354.295 41.015z"/><path fill="#b0b1a2" fill-opacity=".863" d="M850.37 1071.357l-330.35-48.204 279.95-104.64L898 735.215z"/><path fill="#c7c0da" fill-opacity=".824" d="M341.958 436.863l-48.797 38.154 67.918 13.922-21.036-26.855z"/><path fill="#241e6f" fill-opacity=".765" d="M39.888 556.38l12.864 102.87 208.861-413.118L147.081 443.41z"/><path fill="#5b3cfc" fill-opacity=".224" d="M-62 1086l207.563-115.024 238.85-67.669L183.729 789.2z"/><path fill="#d8ae89" fill-opacity=".569" d="M357.559 207.107l208.128 14.794 1.759-40.8-224.3-26.655z"/><path fill="#5f6065" fill-opacity=".996" d="M639.171 722.26L253.05 653.736l24.193 127.31-30.644-161.82z"/><path fill="#67f6c9" fill-opacity=".498" d="M474.973 568.323l-14.739 29.24-89.703-.421 9.464-44.417z"/><path fill="#aead9d" fill-opacity=".553" d="M782.83 643.948l-124.84-133.7-118.026 459.763L697.359 1086z"/><path fill-opacity=".231" d="M648.161 624.74l241.657 16.136-258.397-274.532-136.575 316.42z"/><path fill="#aea893" fill-opacity=".549" d="M213.827 678.536l-79.918 178.581-76.431-110 127.898-195.286z"/><path fill="#331911" fill-opacity=".663" d="M-62 14.748l960-38.507-264.746 145.406L519.99 58.504z"/><path fill="#080812" fill-opacity=".329" d="M754.116 277.755L247.6 908.967l-39.802-258.549 387.383 26.615z"/><path fill="#a6bef5" fill-opacity=".722" d="M18.712 1038.624l42.826-92.776L-2.536 930.3l-12.18 135.28z"/><path fill="#f0f269" fill-opacity=".161" d="M497.651 783.568L451.79 641.194l100.474 60.564-268.874-5.572z"/><path fill="#dfbb94" fill-opacity=".443" d="M598.767 148.685l-194.43-90.473L388.64 349.84l49.62-224.296z"/><path fill="#a79bc1" fill-opacity=".341" d="M502.418 537.733l78.442-4.432-.003-74.272-72.809-5.249z"/><path fill="#62f0fa" fill-opacity=".42" d="M176.184 396.213L139.685 463.3l-39.679 19 46.283-115.865z"/><path fill="#111026" fill-opacity=".914" d="M578.956 797.348l62.149-288.586-44.454 159.782-273.536 196.763z"/><path fill="#271300" fill-opacity=".388" d="M435.56 236.583L609.396 389.52l-198.399-2.397 123.518-174.846z"/><path fill="#3e362e" fill-opacity=".82" d="M384.753 265.896L270.46 286.053-51.405 122.972l373.852-27.033z"/><path fill="#da9071" fill-opacity=".576" d="M240.546 387.061l18.277 36.26-138.086 119.68 80.3-162.573z"/><path fill="#543c22" fill-opacity=".749" d="M750.685 948.068l19.83-2.29 101.252-122.236-126.507 1.378z"/><path fill="#ddffb0" fill-opacity=".212" d="M743.857 462.978L898 455.834V330.698l-203.31 71.477z"/><path fill="#c2a064" fill-opacity=".416" d="M543.903 277.187l15.828-69.5-146.99 157.842-31.152-125.25z"/><path fill="#a19687" fill-opacity=".51" d="M779.597 708.388l-11.795-128.71-122.887-24.035-68.262 248.88z"/><path fill="#302371" fill-opacity=".808" d="M146.114 384.705l36.428-81.48 100.895 11.857 201.106 60.334z"/><path fill="#246152" fill-opacity=".871" d="M355.922 630.912l108.884 38.898-22.27-80.97-65.538 10.004z"/><path fill="#00020c" fill-opacity=".533" d="M832.113 834.827l34.365-267.836-240.625-49.67 84.894-91.196z"/><path fill="#2d2267" fill-opacity=".961" d="M225.479 462.456l60.532 94.71 113.692-24.674 132.059-3.676z"/><path fill="#9e9d90" fill-opacity=".902" d="M31.169 655.555l-12.766-94.737L-62 736.328l193.143-18.518z"/><path fill="#0f1515" fill-opacity=".557" d="M643.102 347.285L868.2 302.697l-23.188-91.888-228.881 11.858z"/><path fill="#151d19" fill-opacity=".561" d="M184.839 344.427l-21.63-149.506L-62 206.353l24.137 133.678z"/><path fill="#080a07" fill-opacity=".58" d="M363.69 761.185L238.044 643.594l-46.904 78.71 57.683 38.085z"/><path fill="#b1b8ad" fill-opacity=".302" d="M778.206 845.26l-252.47 205.7 96.786-435.246 164.32 66.128z"/><path fill="#d1beaa" fill-opacity=".698" d="M538.286 126.154l10.858 5.308 15.645-7.966-20.092-60.57z"/><path fill="#87685d" fill-opacity=".875" d="M-47.394 643.986L-62 477.008l135.796 14.607 48.816-29.915z"/><path fill="#e1e0e9" fill-opacity=".255" d="M390.337 673.139l-137.925-25.864-7.474-3.068 6.952-22.843z"/><path fill="#c8befe" fill-opacity=".325" d="M539.81 319.507l106.643 53.371 61.783-31.3-11.246 5.702z"/><path fill="#020709" fill-opacity=".541" d="M62.38 673.534l-5.593-52.864 106.843-65.775-32.386 86.564z"/><path fill="#998471" fill-opacity=".757" d="M170.33 642.183l46.513-139.814-14.91 191.012 7.3-31.966z"/><path fill="#cbb388" fill-opacity=".514" d="M386.803 327.286L374.3 137.417l67.536 210.862-24.343 13.575z"/><path fill="#0b0921" fill-opacity=".639" d="M362.136 956.709L570.6 810.213 323.592 930.98l-154.436 149.004z"/><path fill="#3c2b88" fill-opacity=".773" d="M44.048 1086l2.16-97 85.985-107.65L194.14 886z"/><path fill="#2f1e78" fill-opacity=".557" d="M298.437 448.157l406.206-15.468-45.08-62.798-68.82-13.22z"/><path fill="#e2ffd2" fill-opacity=".204" d="M-62 419.928l103.582 52.168-73.822 53.532 215.267-133.413z"/><path fill="#8d705c" fill-opacity=".718" d="M770.79 597.105l-112.083-65.473-24.65 56.825 139.735 51.955z"/><path fill="#875428" fill-opacity=".447" d="M256.76 436.79l-65.155 97.737-49.015 10.567 101.59-158.296z"/><path fill="#59401f" fill-opacity=".416" d="M486.63 204.702l61.64 104.724-118.801 71.126 8.085-123.13z"/><path fill="#1a153d" fill-opacity=".953" d="M479.323 757.959l-47.713 46.97-320.156 71.415 274.099-136.9z"/><path fill="#1e146a" fill-opacity=".537" d="M112.408 451.936L20.036 646.88l96.736-65.927 13.731-33.063z"/><path fill="#a5ab93" fill-opacity=".263" d="M437.342 696.763l-10.2-29.175 126.07-4.532 15.715 35.132z"/><path fill="#6a6058" fill-opacity=".525" d="M116.246 911.237L40.178 741.453l-2.084 180.8 38.78 16.008z"/><path fill="#3b2982" fill-opacity=".596" d="M405.58 793.403l-269.457 51.273 70.71-75.18 52.922 36.474z"/><path fill="#3d1b14" fill-opacity=".463" d="M361.213 137.87L-62 71.752 410.285-62l-16.272 221.89z"/><path fill="#1b1540" d="M557.176 810.23L122.258 926.268l228.502-80.893-70.94 72.868z"/><path fill="#b7987e" fill-opacity=".82" d="M500.365 155.317l-150.676 143.87L593.09 148.138l-64.845 50.291z"/><path fill="#d1a38a" fill-opacity=".741" d="M206.46 441.47l-8.932-47.728-71.207 140.172 10.636 11.746z"/><path fill="#171b1c" fill-opacity=".824" d="M404.03 664.656l-2.887-10.767 161.437-24.88-315.94 89.454z"/><path fill="#262731" fill-opacity=".992" d="M303.681 649.483l23.631 61.778 55.855-104.151-105.863 119.774z"/><path fill="#080b1e" fill-opacity=".463" d="M749.627 576.595L573.137 430.38 813.7 514.976l-17.823-83.059z"/><path fill="#2e226c" fill-opacity=".976" d="M503.442 452.582l7.978 27.642L310.36 338.13l61.649-19.133z"/><path fill="#000520" fill-opacity=".439" d="M556.77 351.233l6.16 27.58-108.665 9.31 94.569-111.07z"/><path fill="#eceaff" fill-opacity=".341" d="M221.587 321.027l52.784-15.993 57.249 25.94-85.593-48.015z"/><path fill="#626b57" fill-opacity=".604" d="M157.915 380.713l-38.063-22.925-172.695-14.414 8.848 60.364z"/><path fill="#dbd2ff" fill-opacity=".396" d="M527.4 506.064l38.605-4.697-1.134-7.932-31.113-14.084z"/><path fill="#4cfcdf" fill-opacity=".212" d="M768.646 513.232l8.994-108.816-33.215 31.595-4.426 25.746z"/><path fill="#241000" fill-opacity=".333" d="M420.231 140.318l34.071 40.72 7.239-.802 40.687-50.215z"/><path fill="#e8e5ff" fill-opacity=".388" d="M676.738 384.314l5.804-13.898-68.495-9.564-47.27-38.095z"/><path fill="#1a1635" fill-opacity=".659" d="M561.08 486.631l-46.264-24.028 57.182 1.276 7.961 298.78z"/><path fill="#332770" fill-opacity=".965" d="M239.162 347.85L223.983 283l-72.176 164.19 35.632-44.437z"/><path fill="#b7b6ae" fill-opacity=".49" d="M831.489 512.427L898 467.28l-191.766-79.309 92.792 63.465z"/><path fill="#b08f68" fill-opacity=".376" d="M578.185 198.303l-17.59-97.227-30.807 208.653-5.856-121.778z"/><path fill="#22190c" fill-opacity=".443" d="M770.294 950.503l124.834-277.467-159.146 268.579-19.906-23.48z"/><path fill="#26111a" fill-opacity=".769" d="M561.469 737.074l-59.936-34.378-278.614-45.889 168.193 45.873z"/><path fill="#3c2987" fill-opacity=".608" d="M419.062 516.885l-168.757-170.81 25.694 174.189 102.485-235.96z"/><path fill="#4f369b" fill-opacity=".467" d="M289.018 879.851l-192.26 85.036 289.403-75.769-63.5 49.44z"/><path fill="#99c9fd" fill-opacity=".145" d="M469.083 636.303l-204.826 71.35 197.612-95.157 41.188.662z"/><path fill="#33372f" fill-opacity=".694" d="M381.767 221.759l.728 32.295-218.5-20.569-78.896 131.858z"/><path fill="#d1a07c" fill-opacity=".22" d="M356.596 111.255l152.601 34.052 48.915-92.282-133.32-2.21z"/><path fill="#171045" fill-opacity=".596" d="M534.265 970.802l-314.707-48.468L94.782 1086h427.8z"/><path fill="#47435a" d="M614.363 348.982l-21.866-12.77 63.461 16.847-201.134-20.213z"/><path fill="#0e0b40" fill-opacity=".431" d="M545.051 539.872l-96.95-24.43 48.125 182.528 93.807-135.962z"/><path fill="#000912" fill-opacity=".482" d="M223.286 612.606l1.291 25.189 129.82-89.769 35.057 49.626z"/><path fill="#2a215b" fill-opacity=".788" d="M678.778 331.918l-13.038-8.82 44.951 31.795-10.937 80.888z"/><path fill="#0e101e" fill-opacity=".776" d="M487.601 641.663l261.16-214.312-5.811 23.705-198.46 185.956z"/><path fill="#dfedc9" fill-opacity=".141" d="M510.917 734.298l-140.044-35.25-10.474-49.481-31.827 70.87z"/><path fill="#b7fdff" fill-opacity=".275" d="M442.28 584.974l42.357-23.159-101.535-2.878 19.246-6.93z"/><path fill="#3b2a1a" fill-opacity=".718" d="M438.177 248.695l48.157 12.413 44.614 8.881-9.253-47.755z"/><path fill="#8c6953" fill-opacity=".647" d="M757.206 878.973l-28.902-47.582 53.85-44.775-67.206 172.943z"/><path fill="#0f0f15" fill-opacity=".988" d="M51.624 655.21l44.157-42.921 97.58-50.637 15.085-42.811z"/><path fill="#171428" fill-opacity=".859" d="M345.988 828.338l-27.95 6.805 80.305-81.447 9.11-98.292z"/><path fill="#525848" fill-opacity=".447" d="M698.073 351.011l82.534 66.171 54.501-69.786-61.322 4.849z"/><path fill="#110900" fill-opacity=".404" d="M524.56 180.614l10.109-1.384 52.09-44.93-84.496 18.552z"/><path fill="#c2f6fe" fill-opacity=".573" d="M134.874 383.435l35.915 7.546-16.735 35.95-15.228-19.337z"/><path fill="#a07a6e" fill-opacity=".663" d="M516.574 277.644l-152.928 8.072 29.522 7.663 86.943-34.854z"/><path fill="#a4a69b" fill-opacity=".565" d="M210.57 688.83L92.206 663.487l32.262 215.29 33.76-68.375z"/><path fill="#b4b5a6" fill-opacity=".588" d="M668.052 1067.607l85.725-270.9-149.882 39.52L500.7 1086z"/><path fill="#080a17" fill-opacity=".671" d="M774.752 658.562l89.63-140.063-89.485 292.242L898 835.995z"/><path fill="#ffd6ff" fill-opacity=".133" d="M226.82 406.055l156.152 66.71-65.76 14.451-59.923-31.23z"/><path fill="#ffe4bd" fill-opacity=".278" d="M716.303 356.728l2.53 10.803 73.039 81.739-87.056-35.515z"/><path fill="#2b2063" fill-opacity=".596" d="M256.922 985.888l147.346-5.649L641.414 1086l-183.092-26.01z"/><path fill="#a3a498" fill-opacity=".996" d="M778.305 676.613l-161.282-19.327-49.231 204.638 217.39-117.87z"/><path fill="#d5ac8f" fill-opacity=".333" d="M350.57 128.048l127.117 82.902 127.46-25.516-251.48 16.09z"/><path fill="#5a76c0" fill-opacity=".271" d="M-62 917.43l134.57 57.492 40.374-42.783L-62 829z"/></svg>