<svg xmlns="http://www.w3.org/2000/svg" width="228" height="278" viewBox="0 0 836 1024"><path fill="#3f303e" d="M0 0h836v1024H0z"/><g fill-opacity=".502"><path fill="#b1766a" d="M634 238L450 6 66 562z"/><path fill="#acd4ff" d="M714 498l88 260 96-304z"/><path fill="#000008" d="M594 1042l-472 44 68-692z"/><path fill="#efa294" d="M382 582l204 200H314z"/><path d="M-22 778l220-616L2-62z"/><path fill="#eb8393" d="M162 854l-172 28 44-272z"/><path fill="#0c000f" d="M46 674l512-96-184-328z"/><path fill="#b78e8b" d="M666 1086L518 898l360 52z"/><path d="M714 634L430 982l264-688z"/><path fill="#003b8c" d="M698 1038l200-348-248-16z"/><path fill="#f7d0c6" d="M406 622l156 4-36 104z"/><path fill="#937567" d="M862-62L554 326H158z"/><path fill="#f6f6f2" d="M186 402l-80 120 44 40z"/><path fill="#000003" d="M166 354L58 618 2-62z"/><path fill="#a07452" d="M790 510l84-212-168-8z"/><path fill="#ebb376" d="M554 10l-88 8 200 72z"/><path fill="#162251" d="M410 634L294 450l128-340z"/><path fill="#26000c" d="M354 606l244 24-92-356z"/><path fill="#611031" d="M190 1002L46 678l152-200z"/><path fill="#f6cdaf" d="M-62 870l236-64-104-28z"/><path fill="#cf8d65" d="M378 190l184 188 20-172z"/><path fill="#351b00" d="M550 26l128 152-256-96z"/><path fill="#000006" d="M222 414l16 672 136-536z"/><path fill="#736e76" d="M86 926L-62 738l80 348z"/><path d="M454 894L202 730l348 100z"/><path fill="#e3ffff" d="M582 558l44-48h-44z"/><path fill="#ac0000" d="M442 766l-124-44 196 12z"/><path fill="#655157" d="M150 34l28 416L286-62z"/><path fill="#003663" d="M874 1002L714 434l-56 396z"/><path fill="#030a10" d="M226 118L518-62 270 206z"/><path fill="#d4ffff" d="M382 754l16 32 96-12z"/><path fill="#497ec3" d="M874-10L722 78 678-62z"/><path fill="#e3987c" d="M702 1006l-64-112-64 192z"/><path fill="#a30941" d="M670 902l-24-216-72 64z"/><path fill="#e4ffff" d="M390 534l-52-52 36 8z"/><path fill="#000314" d="M598 254l152 4-204 168z"/><path fill="#9486bb" d="M190 414l156-132-64-56z"/><path fill="#002156" d="M714 66L898-6v260z"/><path fill="#9ba1be" d="M746 670l152 56-116-284z"/><path fill="#fec984" d="M490 6l16 32-116 32z"/></g></svg>