<svg xmlns="http://www.w3.org/2000/svg" width="228" height="278" viewBox="0 0 836 1024"><path fill="#877f8b" d="M0 0h836v1024H0z"/><g fill-opacity=".502"><path fill="#f0feff" d="M878 534L94 626l136-264z"/><path fill="#14233d" d="M138-62h748L646 458z"/><path fill="#f6ffff" d="M158 918l356-268-12 436z"/><path fill="#6f0000" d="M238 690l332-16-284-112z"/><path fill="#620000" d="M730 914l116 172-20-416z"/><path fill="#000816" d="M850 570l32 192-280-180z"/><path fill="#e9f0ff" d="M-2 234L202 58-50-22z"/><path fill="#6f3716" d="M266-62l344 164-172 380z"/><path fill="#fff" d="M-62 1038l88-392 68 236z"/><path fill="#a53427" d="M754 1070l-220-24 12-468z"/><path fill="#001c30" d="M402 298l-164 88-300-72z"/><path fill="#9d4220" d="M34 1030l104-396 88 332z"/><path fill="#cde1f4" d="M266 1086l-60-500 348 448z"/><path fill="#000d17" d="M34 558l-96 48 336 132z"/><path fill="#e0f1ff" d="M614 598L322 334 146 478z"/><path fill="#34639a" d="M558-62l340 76-260 608z"/><path fill="#edfdff" d="M518 382l96 324 8-284z"/><path fill="#a50000" d="M254 518l-28 68-72-40z"/><path fill="#f7ffff" d="M234 670L98 638l56-136z"/><path fill="#910409" d="M262 594l260 100 36-112z"/><path fill="#e1e4f2" d="M782 694l-12 164-132-148z"/><path fill="#775f62" d="M602 266L86 230 242-18z"/><path fill="#c3d7e6" d="M558 894L258 682l260 12z"/><path fill="#1f2525" d="M390 386l232-116 276 52z"/><path fill="#c7001f" d="M850 1086L482 894l88 192z"/><path d="M358 122l240 8-188-76z"/><path fill="#fff" d="M238 1086H102l32-132z"/><path fill="#3c0000" d="M726 890l92-76 12 264z"/><path d="M650 694l-124 32 32 36z"/><path fill="#210c01" d="M518 438l-96-4-88-124z"/><path fill="#7caed6" d="M-62 290l524 20-260-84z"/><path fill="#6c0000" d="M246 674l44-96 164 112z"/><path fill="#3c3e51" d="M362 230l-128-84-296 96z"/><path fill="#c89293" d="M558 1062l340-368-236 104z"/><path fill="#b7ddf2" d="M634 694l-20-152-80 176z"/><path fill="#8ba0a8" d="M682 338L566 574l332-4z"/><path fill="#d3d9eb" d="M618 578l-312 12 248-212z"/><path fill="#000e13" d="M882 598l-264-20 16 68z"/><path fill="#adb8c4" d="M574 686l-428 60 132 200z"/><path fill="#b37867" d="M514 138L382 374l-4-248z"/></g></svg>