<svg xmlns="http://www.w3.org/2000/svg" width="228" height="278" viewBox="0 0 836 1024"><path fill="#877f8b" d="M0 0h836v1024H0z"/><path fill="#404050" fill-opacity=".753" d="M253.302-62l587.445 26.94L725.07 341.635l-296.83 94.942z"/><path fill="#d7e6f2" fill-opacity=".663" d="M249.398 683.79l278.367 18.18L512.122 1086l-288.499-80.557z"/><path fill="#dde9f7" fill-opacity=".624" d="M898 547.564L211.414 373.768 86.068 661.878l259.894-68.066z"/><path fill="#840105" fill-opacity=".639" d="M545.853 587.139l-299.207 10.549 23.168 92.765 279.5 2.639z"/><path fill="#573740" fill-opacity=".894" d="M672.16 1086L898 816.564 603.696 581.772l282.605-5.91z"/><path fill="#e4eff8" fill-opacity=".663" d="M65.195 669.056l8.294 259.825-107.297 80.44L-54 723.944z"/><path fill="#d4d6fc" fill-opacity=".627" d="M-62 247.893l175.17-80.327 73.346-119.123L-62-21.41z"/><path fill="#9f453e" fill-opacity=".604" d="M589.954 1086L898 992.138 588.364 736.73l-97.916 200.544z"/><path fill="#454854" fill-opacity=".992" d="M270.86 353.272l-325.985 10.213 25.401-55.69 631.6 8.878z"/><path fill="#cdd3df" fill-opacity=".91" d="M402.68 584.999l138.053-227.346 88.839 110.974-10.524 119.943z"/><path fill="#c5c3d0" fill-opacity=".992" d="M101.815 617.612L202.278 409.9l159.81-77.856L241.2 699.156z"/><path fill="#a70906" fill-opacity=".639" d="M199.994 509.124l61.884 28.718-32.524 51.884-58.26-30.954z"/><path fill="#00121a" fill-opacity=".537" d="M-62 604.918l157.451-50.434 9.536 71.98 182.15 129.266z"/><path fill="#74462d" fill-opacity=".62" d="M598.048 120.464L344.909-62l-1.542 404.174 130.476 130.5z"/><path fill="#e4fbf5" fill-opacity=".353" d="M805.124 721.37l-188.2-52.223L818.88 1086 643.194 932.568z"/><path fill="#265ea2" fill-opacity=".494" d="M876.97 360.83l-142.026 6.158-256.363-388.51L868.613-62z"/><path fill="#b12f00" fill-opacity=".365" d="M54.368 960.902L-62 1081.652l281.67-126.991-82.51-329.755z"/><path fill="#62171e" fill-opacity=".984" d="M812.717 789.781L728.76 907.343l101.297 170.109 20.364-65.278z"/><path fill="#776265" fill-opacity=".992" d="M388.668 344.218L239.375 111.553-7.972 250.67l562.403-33.467z"/><path fill="#0c292c" fill-opacity=".529" d="M654.835 573.19l-36.557 212.769-111.754-41.194L898 594.138z"/><path fill="#301f17" fill-opacity=".988" d="M328.086 83.793l181.023 67.013 41.157 95.172 28.44-162.01z"/><path fill="#303a46" fill-opacity=".918" d="M885.004 339.738l-20.52-34.595-301.028-5.453-89.68 57.602z"/><path fill="#bec9d6" fill-opacity=".898" d="M574.137 712.903l17.566-301.924 28.624 195.068 12.293 89.361z"/><path fill="#d9ebfd" fill-opacity=".749" d="M111.022 1086l21.066-133.557L235.54 1086l274.607-22.026z"/><path fill="#d2e2f3" fill-opacity=".58" d="M139.153 495.716l85.161-80.058 113.682-84.482 207.008 256.038z"/><path fill="#c2112d" fill-opacity=".671" d="M499.375 936.346l49.802 7.093 174.478 66.201L570.89 1086z"/><path fill="#bec8d7" fill-opacity=".635" d="M175.831 745.26l402.067 102.32L272.258 1086l-96.904-305.903z"/><path fill="#4c0002" fill-opacity=".439" d="M378.16 644.085L125.67 756.818l115.113-69.027 58.275-135.321z"/><path fill="#83c4f1" fill-opacity=".455" d="M12.07 254.79L-62 301.656l393.04-5.432 49.793-49.893z"/><path fill="#afc6d0" fill-opacity=".243" d="M659.104 642.217l180.789-13.607-71.073 193.145-189.392 234.037z"/><path fill="#d7dfeb" fill-opacity=".859" d="M454.148 874.946l-134.446 42.303-28.698 94.03 254.982 17.496z"/><path fill="#ea9d83" fill-opacity=".251" d="M387.061 128.184l109.435 10.535 81.187 116.067-249.15 38.43z"/><path fill="#d6f6ff" fill-opacity=".376" d="M719.358 274.964l84.443 16.167L898 270.26l-164.87-51.023z"/><path fill="#dae4f2" fill-opacity=".894" d="M176.45 452.435l31.04-32.282-62.466 223.545-56.597 15.697z"/><path fill="#8ea4b2" fill-opacity=".749" d="M580.614 565.821l60.775-120.996 197.346 44.34 11.869 83.49z"/><path fill="#ff2531" fill-opacity=".396" d="M898 921.132l-71.118-171.264-41.264-20.604-32.84 137.607z"/><path fill="#223a4e" fill-opacity=".475" d="M372.948 302.987L185.4 433.557l28.845-67.028L-62 330.877z"/><path fill="#99674a" fill-opacity=".698" d="M251.664 1086l44.125-14.097L76.802 711.367l6.04 187.051z"/><path fill="#001830" fill-opacity=".416" d="M311.91 178.949l51.662 193.962-9.945-193.352 101.62-148.846z"/><path fill="#647182" fill-opacity=".898" d="M696.725 351.73l8.703 102.961-194.878-75.925 5.187-9.487z"/><path fill="#211813" fill-opacity=".408" d="M524.606 424.075l-200.843-99.811 113.624 119.244 50.253-8.38z"/><path fill="#061318" fill-opacity=".49" d="M246.195 714.695l-97.264-69.043-89.317 28.855 27.263 1.08z"/><path fill="#8e1f31" fill-opacity=".706" d="M71.289 1086l67.693-213.336-94.485 122.782L-62 948.522z"/><path fill="#1f140e" fill-opacity=".565" d="M528.402 725.874l-10.934 12.54 43.99 21.259 89.523-60.229z"/><path fill="#1a1e36" fill-opacity=".38" d="M423.605-57.282l-69.65 116.914L67.592-23.277 79.47 37.591z"/><path fill="#b0bbc6" fill-opacity=".651" d="M223.386 677.899l287.365 38.113 39.302 113.425-285.887 92.787z"/><path fill="#4569a5" fill-opacity=".533" d="M477.883.335l292.532-10.36-170.569 279.761-45.89-264.435z"/><path fill="#944b50" fill-opacity=".992" d="M549.534 675.482l38.499-82.985-168.03 28.562 11.717 9.527z"/><path fill="#001d4e" fill-opacity=".427" d="M785.941 11.938l-75.852 108.34-15.487 135.832 134.29-215.277z"/><path fill="#003f72" fill-opacity=".275" d="M220.1 174.59l127.11 43.11 5.357 26.566L-62 250.871z"/><path fill="#906949" fill-opacity=".522" d="M534.258 754.541l38.48 160.762 159.93 85.09-121.72-272.963z"/><path fill="#406079" fill-opacity=".627" d="M614.502 602.122L898 688.493l-241.257 9.064-14.287-6.376z"/><path fill="#113a4f" fill-opacity=".376" d="M-62 564.085l182.388 5.212-55.836 133.31-97.896-70.696z"/><path fill="#ced7e4" fill-opacity=".855" d="M636.03 457.84l-409.699-42.197 270.721 96.507 23.222-139.3z"/><path fill="#d1d1dc" fill-opacity=".525" d="M94.49 855.722L-62 568.162-1.582 980.77l58.303-6.977z"/><path fill="#88a1af" fill-opacity=".573" d="M153.77 364.551L-62 344.375l191.617 224.372L-62 567.462z"/><path fill="#000e19" fill-opacity=".459" d="M784.122 1006.293l29.28-30.511 27.723-30.69-124.112-64.839z"/><path fill="#8e8b8d" fill-opacity=".412" d="M-53.524 663.99l508.557 116.2-396.965-8.042 40.199-155.362z"/><path fill="#916a51" fill-opacity=".49" d="M313.928 138.123L502.636-.799l116.76 158.05L428.364-18.89z"/><path fill-opacity=".114" d="M348.73 581.595l-57.84-69.428-133.05 62.317 121.783 67.907z"/><path fill="#8b5948" fill-opacity=".404" d="M221.307-62l-37.89 260.296 67.354-8.472L346.436-62z"/><path fill="#2a2e3e" fill-opacity=".459" d="M419.471 536.286l-34.563-44.833-12.926 20.958 47.196 6.912z"/><path fill="#001621" fill-opacity=".427" d="M781.458 593.007l-157.728-8.14 241.088 140.462-64.686-.031z"/><path fill="#990110" fill-opacity=".694" d="M652.546 947.22l1.31 25.58-38.992 76.364L774.137 1086z"/><path fill="#c8bbc9" fill-opacity=".298" d="M779.302 693.755l15.5 144.157-146.1 39.351 19.924-180.344z"/><path fill="#5f0d36" fill-opacity=".337" d="M487.618 881.756l113.633 67.361-72.892 24.145-44.721-57.375z"/><path fill="#0e0906" fill-opacity=".475" d="M576.112 127.926l-205.384-.912-31.875-7.933 91.909-60.564z"/><path fill="#687c8a" fill-opacity=".588" d="M603.104 418.552l290.682-104.48 2.042 150.827-271.761 24.124z"/><path fill="#cbd9e8" fill-opacity=".757" d="M172.985 666.183l-69.617-51.53 139.308-6.841-29.91 81.234z"/><path fill="#b28498" fill-opacity=".596" d="M895.592 906.075l-80.16 6.624 46.42-171.104-59.032-6.465z"/><path fill="#385575" fill-opacity=".808" d="M708.612 300.777l4.201-105.303-129.943 19.869-53.056 100.92z"/><path fill="#ad7a5d" fill-opacity=".533" d="M166.005 849.435L57.08 787.53l34.642-106.658 89.181 4.915z"/><path fill="#54353d" fill-opacity=".196" d="M48.056 906.47l84.249-48.233 143.912-48.729-181.055 206.553z"/><path fill="#2f180b" fill-opacity=".557" d="M494.18 132.77L541.019 244l26.977-31.405 12.098-122.614z"/><path fill="#649ac6" fill-opacity=".255" d="M-23.826 240.689l384.25-9.132.104 79.076-299.61 14.522z"/><path fill="#820001" fill-opacity=".616" d="M790.337 912.958l36.532-61.12 2.26-67.698-107.093 122.733z"/><path fill="#c69da5" fill-opacity=".243" d="M528.6 134.937l-152.008 3.766-49.668 165.202 71.39-107.308z"/><path fill="#0f1316" fill-opacity=".604" d="M106.888 579.767l2.896 20.048-87.073 22.016L-62 580.961z"/><path fill="#c2ccd6" fill-opacity=".482" d="M306.673 846.145l154.253-162.894 29.914 4.335 70.132 153.95z"/><path fill="#000912" fill-opacity=".549" d="M130.624 649.106l115.57 58.063-29.542 13.003-82.935-49.62z"/><path fill="#714630" fill-opacity=".518" d="M518.817 447.676L484.98 186.84l-114.385 37.385 69.34 6.735z"/><path fill="#6e7890" fill-opacity=".569" d="M263.847 437.04l8.438 22.681 1.843 18.139-39.946-48.073z"/><path fill="#caa9b4" fill-opacity=".71" d="M152.874 498.774l67.268 53.636-50.414 4.533 52.477-31.573z"/><path fill="#70cccd" fill-opacity=".337" d="M328.236 657.013l50.505-14.685 14.287-30.463 9.668 37.903z"/><path fill="#f897c5" fill-opacity=".357" d="M619.072 936.475l33.266 25.008-54.5 48.588-14.13-58.927z"/><path fill="#cfaf8a" fill-opacity=".286" d="M898 975.57l-178.32 69.592-74.235-298.512 164.754 307.995z"/><path fill="#f68b66" fill-opacity=".18" d="M399.524 402.978l116.46-161.125-154.33-13.5-15.696 33.192z"/><path fill="#a10b09" fill-opacity=".788" d="M218.105 587.225l26.108-23.021-64.64-1.009 14.37 12.272z"/><path fill="#06151a" fill-opacity=".42" d="M651.764 586.137l-36.398-12.94 21.115 62.382L898 597.435z"/><path fill="#7a0005" fill-opacity=".49" d="M364.01 684.109l-75.928-90.494-23.153 43.07-29.184 47.734z"/><path fill="#96a3af" fill-opacity=".643" d="M588.069 717.313l-93.485-2.332 103.704-72.903 24.475 60.946z"/><path fill="#5d696a" fill-opacity=".459" d="M431.543 773.02l-132.53-9.626-57.432 33.988 115.005-47.08z"/><path fill="#e9f2fd" fill-opacity=".631" d="M196.46 423.23l97.87-57.324 19.227-.582 12.565 73.228z"/><path fill="#6e7b77" fill-opacity=".353" d="M308.392 890.788L415.586 850.5l71.741-14.144-74.323 44.921z"/><path fill="#750005" fill-opacity=".525" d="M449.22 645.463l50.03-22.26-30.245 62.878-96.226 11.327z"/><path fill="#b19ea5" fill-opacity=".467" d="M470.178 625.644l160.942 23.824-109.934-40.863-82.428 3.827z"/><path fill="#361f21" fill-opacity=".369" d="M152.6 243.756l14.213-24.364 93.596-.34-23.145-89.165z"/><path fill="#e1e8f1" fill-opacity=".486" d="M624.224 487.085l-13.373 181.179-20.681-147.93-17.217-123.174z"/><path fill="#3b5e84" fill-opacity=".282" d="M755.193 930.624l-41.858-40.436-56.821-129.691 48.665 20.075z"/><path fill="#8793bd" fill-opacity=".259" d="M280.157 311.402l85.685-259.49-36.85 54.564L266.015-62z"/><path fill="#7a858d" fill-opacity=".976" d="M216.423 381.757l-73.338 131.898L-62 521.073l84.055-92.63z"/><path fill="#880108" fill-opacity=".588" d="M564.45 603.158l-11.813-13.94-110.835 16.901 140.654 10.603z"/><path fill="#032240" fill-opacity=".475" d="M268.542-52.98l80.25 118.032 33.964-50.665 93.46-13.047z"/><path fill="#634036" fill-opacity=".871" d="M410.241 284.122l70.845-9.651-73.63 49.346L551.9 367.013z"/><path fill="#9cafda" fill-opacity=".525" d="M201.09 49.438l-57.372 97.979L101.605 30.12l77.822-5.05z"/><path fill="#ea0113" fill-opacity=".416" d="M798.93 828.777l-22.507-70.699 31.524-9.384 16.493 53.954z"/><path fill="#000f1c" fill-opacity=".451" d="M511.648 405.431l-59.102 38.048-59.604-35.279 107.147 28.698z"/><path fill="#2e5e9f" fill-opacity=".718" d="M877.768 181.11l-76.31-30.06-55.16 5.647L832.315 39.13z"/><path fill="#4d7089" fill-opacity=".333" d="M898 700.445v-83.912l-176.525 8.424-107.952 79.878z"/><path fill="#d7e0f0" fill-opacity=".616" d="M282.717 732.486L445.99 695.57l-185.88 69.447 113.382-14.335z"/><path fill="#f7d7dd" fill-opacity=".18" d="M761.46 160.914l42.377 57.76 34.4-34.317-45.086-52.652z"/><path fill="#dce1ee" fill-opacity=".851" d="M621.607 614.754l-86.066-33.848-152.327 6.907 112.406-56.739z"/><path fill="#b5000f" fill-opacity=".404" d="M528.956 941.041l5.3 95.41 47.386-74.346 21.229-32.912z"/><path fill="#feffff" fill-opacity=".208" d="M344.9 869.95l-172.292 33.708 48.22 53.887 79.507-128.75z"/><path fill="#9896ac" fill-opacity=".506" d="M538.366 848.051l29.88 64.645-81.862-10.916-98.187 55.665z"/><path fill="#5a0102" fill-opacity=".388" d="M571.02 636.684L546.683 671.3l-57.548-35.69 48.612-.293z"/><path fill="#b2808c" fill-opacity=".369" d="M41.823 199.793l40.446 1.973 130.496-51.936 5.1-97.54z"/><path fill="#d7d4e9" fill-opacity=".345" d="M-62 230.818L17.792-62 72.57 72.789l110.315-2.674z"/><path fill="#543623" fill-opacity=".69" d="M199.055 717.079l-37.816 37.308 2.185-15.611 22.418-54.036z"/><path fill="#00050a" fill-opacity=".604" d="M532.29 718.99l-7.721 26.432 54.712-7.777 34.492-5.613z"/></svg>