<svg xmlns="http://www.w3.org/2000/svg" width="228" height="278" viewBox="0 0 836 1024"><path fill="#6f6e69" d="M0 0h836v1024H0z"/><g fill-opacity=".502"><path fill="#fff" d="M526 626L14 506l256-204z"/><path fill="#070000" d="M586-62L450 482 62-2z"/><path fill="#fff" d="M394 518l168-228 224 156z"/><path fill="#c2c7d3" d="M198 666l468 304-480 104z"/><path fill="#171b17" d="M274 654l84 208 400-336z"/><path d="M898 742l-100 56-160-316z"/><path fill="#2b1004" d="M218 1050L90 638l-152 448z"/><path fill="#fff" d="M834 618l-84-20-52-224z"/><path fill="#cde423" d="M650 582l-40 256 212-16z"/><path fill="#1b2013" d="M626 974l192 112 80-392z"/><path fill="#ede3f3" d="M158 362l168-4-356 340z"/><path fill="#999fa2" d="M574 734l-312 20 384 268z"/><path fill="#4c3d3d" d="M114 566L26 270l-80 224z"/><path fill="#110300" d="M350 430L490-62l-4 508z"/><path fill="#5b5f62" d="M330 282L-62 486 258 18z"/><path fill="#f3f5ff" d="M690 370l136 244-312-316z"/><path fill="#d7dcee" d="M326 298l36 348-260-236z"/><path fill="#240a00" d="M610 514l252 292-172-356z"/><path fill="#c9cbd5" d="M322 1086l284-260 20 148z"/><path fill="#444941" d="M494 914H350l248-180z"/><path fill="#170200" d="M26 806l104-96-112-52z"/><path fill="#070a07" d="M290 650l308-20-316 120z"/><path fill="#4f5353" d="M898 18L566 310 474-62z"/><path fill="#373323" d="M734 414l88 188 76-108z"/><path fill="#b5b7bd" d="M226 510l104 480-156-24z"/><path fill="#b0b3c0" d="M434 602l-188 48 304-312z"/><path fill="#d0d7dc" d="M106 698L6 634l56-88z"/><path fill="#1a1f24" d="M526 70l-588-4L62-62z"/><path fill="#3c3831" d="M658 1086l196-108-240-196z"/><path fill="#626463" d="M150 110l172 276-44-356z"/><path fill="#d2d3e4" d="M734 430l-176 92-40-232z"/><path fill="#c7e255" d="M706 602l-92 88 136 32z"/><path fill="#fff" d="M786 630l36-20-96-104z"/><path fill="#3a3f35" d="M366 926l-96-4 192-68z"/><path fill="#2b1f1e" d="M194 786l-112-4 84 144z"/><path fill="#d6d8e6" d="M410 778l-100-20 184-12z"/><path fill="#b1b4bb" d="M614 566l-128 68 24-56z"/><path fill="#989da6" d="M250 450l16 136-164-56z"/><path fill="#080400" d="M762 754l-40-168 176 116z"/><path fill="#aeb3b8" d="M54 870l-72-168-44 156z"/></g></svg>