<svg xmlns="http://www.w3.org/2000/svg" width="228" height="278" viewBox="0 0 836 1024"><path fill="#6b666e" d="M0 0h836v1024H0z"/><path fill="#b6d7f4" fill-opacity=".49" d="M70.28 1086l11.267-283.83 314.78-566.399L510.924 1086z"/><path fill="#c3d4ee" fill-opacity=".659" d="M452.502 586.487l381.855-103.1-100.07-115.265-116.734-67.8z"/><path fill="#110300" fill-opacity=".494" d="M766.563 67.313L423.777 45.955l32.552 365.99 406.39-168.575z"/><path fill="#0d0000" fill-opacity=".349" d="M871.203 529.893l-127.206 531.388L586.12 1086 282.247 607.308z"/><path fill="#bcc5d9" fill-opacity=".992" d="M368 298.683L86.092 354.606l-17.258 71.421L459.7 400.054z"/><path fill="#0f0000" fill-opacity=".369" d="M18.48-62L-62 857.297 173.868 703.17l3.937-162.654z"/><path fill="#d7e1fe" fill-opacity=".518" d="M77.884 1086l5.831-357.848 185.126 215.894 277.964 77.512z"/><path fill="#677982" fill-opacity=".8" d="M311.472 565.702l237.374 98.356-77.385 255.735-239.125-41.116z"/><path fill="#5f2f2b" fill-opacity=".698" d="M78.311-62l69.882 244.967 402.2 102.236-599.64 55.71z"/><path fill="#cad5e7" fill-opacity=".557" d="M81.548 440.125l48.145 49.194L268.4 300.88 74.12 366.12z"/><path fill="#d5def0" fill-opacity=".714" d="M577.807 352.63l240.15 164.023-95.483-160.565-103.106-52.822z"/><path fill="#2e2421" d="M644.558 154.262l-209.7 46.97 59.191 278.1 74.49-86.848z"/><path fill="#a4b3cd" fill-opacity=".573" d="M518.369 533.754l219.069 34.35-355.76 16.15 66.938-204.869z"/><path fill="#5d5355" d="M643.147 77.186l-2.273 201.007L813.519-62 552.2-5.661z"/><path fill="#020500" fill-opacity=".525" d="M65.353 392.825L-62 501.065l313.391-16.601-117.071 79.941z"/><path fill="#777a88" fill-opacity=".992" d="M537.023 501.78l166.204-30.336-45.135 136.269-73.202-176.926z"/><path fill="#32282a" fill-opacity=".702" d="M491.109 1086l240.433-577.807 157.112 195.729-58.439-8.933z"/><path fill="#2b1d21" fill-opacity=".486" d="M850.369 328.972l-74.063 97.298-98.13-128.34 86.884-188.023z"/><path fill="#faa6b9" fill-opacity=".176" d="M346.687 1.354L171.777-13.94l-106.2 209.32 388.11-11.034z"/><path fill="#c1cde6" fill-opacity=".553" d="M239.182 597.453L65.168 815.98l44.321 186.956L280.63 595.579z"/><path fill="#b8c3da" fill-opacity=".714" d="M310.81 1032.583l-4.752 34.752L525.632 1086 465.88 858.32z"/><path fill="#d4e1e3" fill-opacity=".424" d="M848.735-62l-58.838 80.79-3.69 33.224L898 226.582z"/><path fill="#6a7480" fill-opacity=".965" d="M280.917 481.022L167.415 603.657 273.99 417.94l186.714 83.472z"/><path fill="#6a3a2c" fill-opacity=".6" d="M-62 1086H49.431l39.854-207.954L3.81 856.264z"/><path fill="#152243" fill-opacity=".647" d="M786.334 1086l-248.716-19.632-65.84-173.405L729.724 1001.1z"/><path fill="#0b0702" fill-opacity=".776" d="M652.854 103.394l-232.18 5.358 34.949-35.981 139.371-5.147z"/><path fill="#925920" fill-opacity=".584" d="M436.415 592.657L528.33 559.1l38.452 59.141-155.8 40.955z"/><path fill="#8e414a" fill-opacity=".565" d="M227.622 338.991l118.692-152.32-184.995-23.344 124.623 244.307z"/><path fill="#634743" fill-opacity=".988" d="M898 832.896L717.707 982.638l-98.4-79.443 208.557-95.132z"/><path fill="#aa6e2b" fill-opacity=".502" d="M434.757 37.539l-18.723 69.811L547.73-62 665.088 79.15z"/><path fill="#12191c" fill-opacity=".404" d="M177.662 535.953L28.932 408.222l80.39 296.586 44.954 32.905z"/><path fill="#066e82" fill-opacity=".486" d="M312.426 651.414l92.073 1.04-2.167-60.117-122.624-33.912z"/><path fill="#baceef" fill-opacity=".373" d="M433.51 438.652l-19.332-115.968 43.424-67.342-268.962 162.54z"/><path fill="#3c332f" fill-opacity=".898" d="M-62 16.489V184.2L107.65 40.723l34.25-63.74z"/><path fill="#3a3444" fill-opacity=".671" d="M288.746 305.45l20.556 14.033 145.528-49.08 6.895-93.276z"/><path fill="#766462" fill-opacity=".816" d="M743.99 362.712L898 661.899 738.923 508.79l81.121-31.654z"/><path fill="#cfe0fb" fill-opacity=".294" d="M619.746 601.746L766.84 428.1 898 684.554 846.753 427.1z"/><path fill="#a8b5d0" fill-opacity=".761" d="M486.008 577.465L183.774 565.77l-20.641 224.738 162.22-299.757z"/><path fill="#0233a4" fill-opacity=".518" d="M898 802.688v198.179l-103.907 76.823 32.05-210.451z"/><path fill="#5e6669" fill-opacity=".71" d="M681.882 447.133L329.623 902.46 571.038 700l11.516-52.747z"/><path fill="#f4f9fe" fill-opacity=".627" d="M228.938 310.733l128.397 13.54-77.523 56.56-14.143-30.931z"/><path fill="#050e18" fill-opacity=".573" d="M413.354 341.297l125.127 90.621-104.788-54.744-20.677-124.187z"/><path fill="#b1bcd6" fill-opacity=".557" d="M525.176 680.686l-164.717-2.163 41.605 16.108 81.583 3.738z"/><path fill="#fffef4" fill-opacity=".235" d="M51.765 361.747l158.115-22.118-228.313 77.055-12.985-18.99z"/><path fill="#dac1ff" fill-opacity=".165" d="M799.549 925.396L663.768 892.65l138.26 152.568 29.95-104.33z"/><path fill="#c2daf9" fill-opacity=".384" d="M481.293 494.642l15.959-81.273-78.722 115.746 121.246-37.804z"/><path fill="#808999" fill-opacity=".451" d="M350.383 1012.422L93.993 839.85 361.42 957.866 84.99 214.267z"/><path fill="#c1fcff" fill-opacity=".106" d="M611.091 117.163l-271.613-2.984 325.491 74.684 43.896-72.374z"/><path fill="#758894" fill-opacity=".431" d="M105.436 476.806l27.806-73.625 232.837-1.986-221.88 92.33z"/><path fill="#1b1c1e" fill-opacity=".773" d="M558.997 331.376l-31.014-7.589-42.64 167.499 25.381 2.227z"/><path fill="#3a2f2d" fill-opacity=".588" d="M124.761 732.134L49.607 817.59 177.55 523.956l.702 135.95z"/><path fill="#16192a" fill-opacity=".329" d="M898 969.697L662.156 584.75l-48.93 62.482 132.846 204.755z"/><path fill="#68463c" fill-opacity=".525" d="M677.71 660.742L471.842 878.358l273.52-39.943-105.19 142.227z"/><path fill="#26252e" fill-opacity=".804" d="M729.038 359.798l-26.253-220.333 114.58 55.246-176.528 111.644z"/><path fill="#7d343b" fill-opacity=".286" d="M325.813 108.722l-141.577 200.53-77.567 98.71L260.294 37.468z"/><path fill="#634d49" fill-opacity=".51" d="M749.875 502.82l-104.75 85.199 113.999 63.605 71.225-173.527z"/><path fill="#443c3f" fill-opacity=".882" d="M681.896 57.658L536.974-16.569 617.668-62l231.876 16.738z"/><path fill="#0c29ac" fill-opacity=".557" d="M829.32 737.176l68.68.933-78.711-59.115-23.787 43.821z"/><path fill="#e4f0ff" fill-opacity=".435" d="M683.05 357.465l54.813 159.441 32.355-93.993-27.358-51.615z"/><path fill="#2a2502" fill-opacity=".447" d="M351.51 586.31l73.25 18.18 15.202-1.208 51.532-21.757z"/><path fill="#ceddfe" fill-opacity=".392" d="M363.228 567.55l-3.876 14.808 94.806 2.581 130.276-45.606z"/><path fill="#4c5554" fill-opacity=".506" d="M539.823 443.767l-190.153-9.652-183.78 6.145 229.154 9.143z"/><path fill="#785249" fill-opacity=".518" d="M506.452 242.413l49.724-29.833 26.907 52.687-62.555-7.941z"/><path fill="#e8effa" fill-opacity=".565" d="M225.534 313.716l-146.663 62.34 61.062-19.805 95.905 37.104z"/><path fill="#a4fffa" fill-opacity=".11" d="M318.71 214.53l150.234-24.905L171.139-62l205.03 49.992z"/><path fill="#9ca1b9" fill-opacity=".643" d="M678.729 379.448L577.612 501.091l140.608 27.156-90.032 38.868z"/><path fill="#060c0c" fill-opacity=".443" d="M451.59 384.567l44.232 32.805 39.609-18.288-105.518-109.709z"/><path fill="#cddaf6" fill-opacity=".522" d="M446.166 933.556l26.113 124.015-136.56-50.856 221.093 49.163z"/><path fill-opacity=".114" d="M649.435 511.845l-84.636 118.192 99.625-214.77L753.76 586.23z"/><path fill="#1f181c" fill-opacity=".357" d="M629.22 962.715L865.946 1086H561.373l-19.505-384.25z"/><path fill="#e3eeff" fill-opacity=".525" d="M83.448 363.375l37.245-12.834-29.033 83.973-19.598-26.418z"/><path fill="#ccd6ed" fill-opacity=".408" d="M265.851 981.638l-55.77-94.162 212.826 39.797-304.646-19.027z"/><path fill="#321b11" fill-opacity=".298" d="M-.873 234.521l241.202-25.087L38.97 364.888-62 98.228z"/><path fill="#0f0a00" fill-opacity=".325" d="M796.769 594.838L657.888 784.454l32.674-2.826 149.08-111.842z"/><path fill="#91a0ba" fill-opacity=".557" d="M184.553 525.619l112.598 62.663 8.943 197.374-126.732-184.624z"/><path fill="#c5683a" fill-opacity=".361" d="M797.138 746.45L898 757.668l-29.786 67.952-76.238 5.526z"/><path fill="#abbac9" fill-opacity=".275" d="M677.692 90.672l-22.425 147.442-15.847-48.003 11.65-69.007z"/><path fill="#804444" fill-opacity=".42" d="M140.687 31.193l-58.382 53.1L-47.639 214.46l214.283.372z"/><path fill="#5399f8" fill-opacity=".125" d="M-62 605.04l167.64 9.448-14.478-86.448-140.02 1.554z"/><path fill="#231912" fill-opacity=".816" d="M656.106 98.367l-75.35 196.196 62.545-155.665-61.207-87.63z"/><path fill="#f7faff" fill-opacity=".318" d="M131.858 754.401L69.84 896.94l8.778-99.47 34.42-59.372z"/><path fill="#858d9c" d="M543.989 557.73l47.597-31.96-54.968 65.227-24.113-26.2z"/><path fill="#724d46" fill-opacity=".663" d="M84.485 331.424L359.117 193.97l10.62 64.866-103.855 54.513z"/><path fill="#c9e7fb" fill-opacity=".286" d="M434.896 351.07l-23.132-62.366 35.329-12.517.89-46.294z"/><path fill="#553d3c" fill-opacity=".525" d="M581.597 307.324l186.814-47.2 46.195-127.235L898 333.602z"/><path fill="#2c3c6a" fill-opacity=".573" d="M554.683 1065.075l15.93-111.943-92.307-98.65 18.097 128.267z"/><path fill="#646c77" fill-opacity=".38" d="M198.56 747.91l129.57 164.42 63.222-6.659L470.6 787.737z"/><path fill="#725555" fill-opacity=".616" d="M111.445 702.808l-4.11 16.986L30.08 918.949-62 835.907z"/><path fill="#a4b0c7" fill-opacity=".745" d="M385.229 658.241l-198.015-17.377-87.73 176.942L213.967 669.33z"/><path fill="#603d15" fill-opacity=".31" d="M384.099 10.315l287.027 58.054L370.988 85.87 524.855-62z"/><path fill="#c4d0ea" d="M386.274 382.595l16.535-73.453 39.1 100.313-284.797-34.751z"/><path fill="#d5e2ff" fill-opacity=".322" d="M68.705 816.25l113.239-28.296-3.02-203.749L203.2 885.974z"/><path fill="#818da0" fill-opacity=".996" d="M213.023 595.274l89.891-135.208 177.66 73.228-222.856-53.77z"/><path fill="#897e7e" fill-opacity=".361" d="M739.61 105.905L773.646-62l83.182 296.36L898 116.99z"/><path fill="#c0c9f6" fill-opacity=".137" d="M224.37-60.295L119.7 45.635l158.43 97.666-90.197 35.89z"/><path fill="#b6c2dc" fill-opacity=".78" d="M449.85 512.067l-26.57-46.943 47.135 19.59 64.609 12.707z"/><path fill="#becce8" fill-opacity=".486" d="M605.26 407.795l-1.878-112.075 59.431 71.993 193.43 142.782z"/><path fill="#000b1a" fill-opacity=".231" d="M563.309 468.999l29.818 12.01-32.529 42.993-26.956-24.832z"/><path fill="#050302" fill-opacity=".349" d="M726.933 519.486l63.373-34.39-74.69 75.05-4.788-16.138z"/><path fill="#558aff" fill-opacity=".204" d="M769.61 1002.614L746.07 1086l75.164-90.858-6.802-137.194z"/><path fill="#7c93b4" fill-opacity=".624" d="M474.636 653.346l-27.551-1.833 6.391-39.525 24.365 45.579z"/><path fill="#9f7e76" fill-opacity=".404" d="M759.811 647.792l-8.984-5.597-4.254-8.743 116.142-255.926z"/><path fill="#949caa" fill-opacity=".537" d="M259.748 1008.804l200.394-98.527 40.57-132.997-43.434 72.982z"/><path fill="#788291" fill-opacity=".769" d="M367.335 577.828l-41.64-4.9 3.071 67.55 18.712-16.53z"/><path fill="#9e764e" fill-opacity=".557" d="M502.646-37.609l160.32 96.6-172.848-22.343-74.453 57.746z"/><path fill="#553637" fill-opacity=".694" d="M-62 980.658l89.935-26.628 51.669 60.473-3.28 71.497z"/><path fill="#355654" fill-opacity=".216" d="M177.067 68.22l237.944 63.056L473.671-62 359.266 62.062z"/><path fill="#9ca7b9" fill-opacity=".784" d="M339.238 983.685l-140.881-18.33 143.731 37.73 116.41-29.359z"/><path fill="#2f3451" fill-opacity=".937" d="M419.25 331.517l-39.607-91.87 77.872 15.176-41.55 23.381z"/><path fill="#e2eefa" fill-opacity=".561" d="M761.374 470.438l66.004 18.243-57.4.764-62.716 39.446z"/><path fill="#221c17" fill-opacity=".808" d="M445.943 179.62l-12.045-80.475 53.968-6.654-4.79-62.816z"/><path fill="#363335" fill-opacity=".329" d="M124.16 466.12l140.533 36.499L-62 661.43l201.746 72.396z"/><path fill="#726473" fill-opacity=".596" d="M658.715 588.803l75.03-1.95-37.788-54.585-107.971 63.39z"/><path fill="#291e44" fill-opacity=".427" d="M583.18 779.114l-95.573 47.834 77.045-153.32 4.03 41.776z"/><path fill="#1b1411" fill-opacity=".702" d="M72.227 373.064L43.763 449.78l-79.502 35.178L84.51 506.63z"/><path fill="#788597" fill-opacity=".867" d="M338.836 912.878l-108.35-184.356 67.57 16.319-96.054 128.717z"/><path fill="#261e1a" fill-opacity=".714" d="M498.388 488.458l112.279-322.466 24.473 63.957-48.659 118.64z"/><path fill="#7e2420" fill-opacity=".267" d="M58.492 163.002l138.901 23.826L363.44 300.814-62 214.224z"/><path fill="#bdcae0" fill-opacity=".38" d="M467.084 426.4l29.015.301-149.955-113.085 38.424-21.732z"/><path fill="#48424e" fill-opacity=".349" d="M169.3 336.447l-61.192 47.492 46.297-10.773-123.768-142.89z"/></svg>