<svg xmlns="http://www.w3.org/2000/svg" width="228" height="278" viewBox="0 0 836 1024"><path fill="#6b666e" d="M0 0h836v1024H0z"/><g fill-opacity=".502"><path fill="#b4d1ed" d="M10 986l496 100-108-864z"/><path fill="#ddf5ff" d="M630 298L430 590l420-112z"/><path fill="#0e0100" d="M438 6l460 168-448 248z"/><path fill="#261e1d" d="M898 574l-620 8 348 504z"/><path fill="#f3ffff" d="M510 438L278 298l-288 92z"/><path fill="#251314" d="M18-62l164 736-244 180z"/><path fill="#d1ddf9" d="M554 1030l-468 56-8-320z"/><path fill="#d9e9ff" d="M446 282L74 358l32 120z"/><path fill="#5f1a14" d="M602 282L50 322l-96-200z"/><path fill="#6f787d" d="M734 450l-432 600-108-312z"/><path fill="#511000" d="M-62 926l116 160 32-216z"/><path fill="#3a2425" d="M754 478l-272 608 368-176z"/><path fill="#f6feff" d="M742 358l12 136-180-196z"/><path fill="#3d302d" d="M734-62L422 126l476 360z"/><path fill="#020000" d="M502 482l-56-140 196-116z"/><path fill="#aec2e6" d="M418 578l-12-252 132 224z"/><path fill="#cbd9f4" d="M78 794l52 240 136-472z"/><path fill="#040d0b" d="M186 486l-16 132-232-208z"/><path fill="#9198a7" d="M646 118l72-60-76 220z"/><path fill="#01143d" d="M474 882l288 132-216 72z"/><path fill="#3f1f11" d="M-62 26l188-72-24 204z"/><path fill="#6b7886" d="M430 514L70 414l416-16z"/><path fill="#9d7783" d="M466 194L50 178 270-62z"/><path fill="#68737d" d="M470 614l68 260-368 12z"/><path fill="#b17735" d="M414 78l88-140 132 96z"/><path fill="#c4ced0" d="M778 38l72-100 36 256z"/><path fill="#97afcc" d="M178 682l4-140 396-68z"/><path fill="#956559" d="M818 942L702 842l-88 120z"/><path fill="#c3cfe9" d="M550 1086H130l332-188z"/><path fill="#030000" d="M642 86l-232 24 72-72z"/><path fill="#50596e" d="M702 522l-8-60-212 16z"/><path fill="#cad5f5" d="M454 394L50 406l324-108z"/><path fill="#d7defe" d="M774 402l-200-20 40-88z"/><path fill="#8f4906" d="M434 582l-12 84 200-96z"/><path fill="#508695" d="M314 690l-28-136 292 132z"/><path fill="#312a29" d="M346 286l388 24-240-176z"/><path fill="#dbeaff" d="M706 522V346l96 116z"/><path fill="#fdffff" d="M118 346l-44 32 16 60z"/><path fill="#121418" d="M694 814l204-220-224 68z"/><path fill="#0c0c0a" d="M230 338l28 36 4-36z"/></g></svg>