<svg xmlns="http://www.w3.org/2000/svg" width="228" height="278" viewBox="0 0 836 1024"><path fill="#79667d" d="M0 0h836v1024H0z"/><g fill-opacity=".502"><path fill="#fff" d="M210 594l96 492-368-88z"/><path fill="#005" d="M658 1086L254 910l356-632z"/><path fill="#dc0600" d="M258 1078l232 8-232-840z"/><path fill="#f3c3b2" d="M22 358l576-252-300 444z"/><path fill="#002a23" d="M750 410L898 10 470-62z"/><path fill="#fff" d="M-62 870l328-132-16 348z"/><path fill="#ffb082" d="M786 666l-160 52 160 368z"/><path fill="#c6ffff" d="M58 350l-8 356 136-436z"/><path d="M30 526l60-308-152 52z"/><path fill="#420001" d="M586 298l96 384 200 36z"/><path fill="#0035a2" d="M474 1086l128-828-236 144z"/><path fill="#c8e7d5" d="M-62 178l360 4L50-62z"/><path d="M426 114L350-62 190 94z"/><path fill="#fff3e8" d="M738 566l-80-272 176 232z"/><path fill="#0036bf" d="M130 334l72 264L46 842z"/><path fill="#9c0906" d="M370 454l84 632-304-588z"/><path fill="#ccf2e6" d="M418 258l188 32L422-58z"/><path fill="#ae0001" d="M186 442l-80-64 332-96z"/><path fill="#fff" d="M62 798l236 248-360-32z"/><path fill="#001f9c" d="M582 506l-140 536 272 44z"/><path fill="#0009ad" d="M830 914l68-444-136 88z"/><path fill="#ffcb11" d="M426 442l92 84 24-108z"/><path fill="red" d="M614 298l-16 176 132-44z"/><path fill="#fff" d="M234 682L54 598l12 56z"/><path fill="#ff7e39" d="M250 818l-64-192L82 802z"/><path fill="#0036cb" d="M-54 870l148-84-80-328z"/><path fill="#84d2ff" d="M714 918l-92-152 28-236z"/><path fill="#b5763c" d="M458 126L342 382 154 94z"/><path fill="#ff9169" d="M694 1030l28-372 144 392z"/><path fill="#564900" d="M222 238L-22 374 6 214z"/><path fill="#fff" d="M250 414l-108 72 228-36z"/><path fill="#410000" d="M350 782L190 522l112 376z"/><path fill="#000004" d="M786 202L722-62 898 38z"/><path fill="#0038ce" d="M362 510l136-244 132 36z"/><path fill="#fff" d="M282 838H-62l196 248zM94 302l72 60 136-60z"/><path fill="#d1fcff" d="M834 494l-92 80-120-4z"/><path fill="#f9ffff" d="M346 398l108-56 64-160z"/><path fill="#000632" d="M658 698l4-128 236 20z"/><path fill="#ff6447" d="M802 886l-12-208-116-12z"/></g></svg>