<svg xmlns="http://www.w3.org/2000/svg" width="228" height="278" viewBox="0 0 836 1024"><path fill="#805459" d="M0 0h836v1024H0z"/><g fill-opacity=".502"><path fill="#eaffff" d="M262-62l-4 504L-62 30z"/><path d="M414 6l484 96-196 564z"/><path fill="#fff" d="M818 518L666 666l232 296z"/><path d="M418 1062l284-248-440 68z"/><path fill="#fadad8" d="M38 1086l256-60 28-396z"/><path fill="#e32f3d" d="M278 810L6 1086-62 2z"/><path fill="#cdeeff" d="M494 606l48-312 64 564z"/><path fill="#900000" d="M542 246l180 68-96 632z"/><path fill="#fff" d="M698 694l96 224-80-12z"/><path fill="#f6d0e6" d="M602 286l-104-60-16 232z"/><path fill="#c1ded2" d="M426-62L10 278-30-62z"/><path fill="#000002" d="M678 794L246 910l372 92z"/><path fill="#831115" d="M166 622L-62 354l296-112z"/><path fill="#2d0000" d="M510 302l-196-92-40 220z"/><path fill="#590000" d="M430 598l88 328 4-420z"/><path fill="#a8cbde" d="M382 698l4-252 116 452z"/><path d="M246 890l248 196-92-284z"/><path fill="#021618" d="M898 422L650-62 454 134z"/><path fill="#c1e9f8" d="M214 946l80-292 76 120z"/><path fill="#000a0c" d="M694 614L554 394l300 64z"/><path fill="#450000" d="M314 714l4-292 108 420z"/><path fill="#eb6b6e" d="M778 446l120-32-336-160z"/><path fill="#ecffff" d="M898 970l-92-468-84 144z"/><path d="M298 222l12-180-64 72z"/><path fill="#a4b2b7" d="M698 314l68-84-88-20z"/><path fill="#cedffb" d="M598 726l-36 128-68-316z"/><path fill="#f1c3b5" d="M262 906l-324 64 496 116z"/><path fill="#a5d7f0" d="M410 394l-68-24 12 180z"/><path fill="#671516" d="M718 690l80 292 8-160z"/><path fill="#6a0000" d="M434 598l-28-272 88-44z"/><path fill="#fffff7" d="M606 1014l-96-32-96 104z"/><path fill="#c90003" d="M610 798l100 36-92-368z"/><path fill="#dba79c" d="M462 146l-12 76-256-44z"/><path fill="#030d00" d="M230 438l-64 136-24-212z"/><path fill="#690000" d="M302 582l40-156-80-136z"/><path fill="#10180e" d="M698 870l116 216H642z"/><path fill="#bc3843" d="M-62 474l364 124-84 320z"/><path fill="#edffff" d="M422 854l28-96 20 88z"/><path fill="#d10011" d="M486 302l240 76-28-80z"/><path fill="#c3eee2" d="M514 26l176-88-440 40z"/></g></svg>