<svg xmlns="http://www.w3.org/2000/svg" width="228" height="278" viewBox="0 0 836 1024"><path fill="#5f7787" d="M0 0h836v1024H0z"/><path fill="#3c1b06" fill-opacity=".545" d="M796.183 224.457L836.288-62H-62l23.978 473.337z"/><path fill="#bde4fe" fill-opacity=".537" d="M627.251 370.94L472.974 268.576l-.328 761.512 391.66 12.254z"/><path fill="#004165" fill-opacity=".486" d="M777.665 518.96L214.36 580.712 13.292 846.735l150.389 26.4z"/><path fill="#c0def8" fill-opacity=".404" d="M408.127 402.874l321.44-206.983-144.97 404.01L14.165 462.894z"/><path fill="#7cbeff" fill-opacity=".447" d="M-62 973.962l313.778-896.39L48.046 849.995 700.516 1086z"/><path fill="#22373e" fill-opacity=".475" d="M598.08 455.456l-4.414 392.125L830.248 22.858l16.735 484.907z"/><path fill="#afdaf3" fill-opacity=".71" d="M568.753 306.692l181.974 196.282L898 843.842l-158.989-285.28z"/><path fill="#312a26" fill-opacity=".925" d="M375.077 396.788L267.33 349.27l147.31-88.293 42.634 100.898z"/><path fill="#7eb7d4" fill-opacity=".757" d="M273.51 313.26L109.44 420.906 64.033 643.562l72.334 58.256z"/><path fill="#bed0e0" fill-opacity=".929" d="M600.46 1086l287.39-31.376-7.98-128.845-191.71-161.93z"/><path fill="#2e89c5" fill-opacity=".541" d="M12.887 1027.78l339.148-342.892 170.41-26.123L472.828 1086z"/><path fill="#001516" fill-opacity=".337" d="M300.872 802.586L191.73 503.841l140.817-34.26L-6.049 840.028z"/><path fill="#b2d1e6" fill-opacity=".898" d="M560.055 310.773l16.912 45.667 22.918 607.955-61.014-171.432z"/><path fill="#766045" fill-opacity=".969" d="M446.675-62l31.614 336.097L207.682 96.341l107.127 263.583z"/><path fill="#23152c" fill-opacity=".451" d="M-62 77.52v466.908l145.52-71.062 94.467-533.984z"/><path fill="#4d1a00" fill-opacity=".624" d="M898 885.24l-22.868-148.322-98.145 20.579 9.991 94.85z"/><path fill="#d2e0c2" fill-opacity=".459" d="M385.552-40.037l-154.797 89.97 174.338-21.605 52.75 41.203z"/><path fill="#59656d" fill-opacity=".996" d="M341.929 680l137.12-149.347 64.344 48.885 3.634 54.497z"/><path fill="#1d1a0e" fill-opacity=".412" d="M888.728 333.52L686.162 35.275 239.848 115.06l51.8-91.153z"/><path fill="#438ba9" fill-opacity=".635" d="M686.108 438.853l-104.68 75.125 73.12 148.84 185.448 92.063z"/><path fill="#4d71bc" fill-opacity=".976" d="M178.959 730.692l21.53 173.202L186.784 1086l-144.527-30.048z"/><path fill="#002031" fill-opacity=".733" d="M370.585 582.846l23.164 91.755-203.494 11.974 21.402 169.04z"/><path fill="#dee7ff" fill-opacity=".306" d="M-38.616 1063.287L97.34 963.855-16.88 661.921l77.769-13.342z"/><path fill="#b6dffb" fill-opacity=".337" d="M333.567 584.526l-41.048 5.831L488.67 310.125l198.233 128.664z"/><path fill="#f85804" fill-opacity=".263" d="M232.285 608.049l-65.62 5.912L227.9 465.899l80.27 33.169z"/><path fill="#ffecc1" fill-opacity=".188" d="M56.805 708.24l31.23-385.352 272.784 24.007-192.262 50.421z"/><path fill="#5d9cc4" fill-opacity=".667" d="M416.521 1047.566l287.827-86.148-280.986-59.95-420.546 180.58z"/><path fill="#196386" fill-opacity=".965" d="M405.64 840.748l-168.88 48.177L419.013 743.12 247.448 972.228z"/><path fill="#353a42" fill-opacity=".933" d="M776.481 482.208l90.681-44.783L777.01 68.917l-73.971-101.99z"/><path fill="#33a9ef" fill-opacity=".298" d="M216.454 359.217l216.591 37.648 100.574 55.57-246.785 71.821z"/><path fill="#938895" fill-opacity=".427" d="M718.77 156.488L559.353 278.753l110.75 143.437 78.282-106.805z"/><path fill="#036594" fill-opacity=".725" d="M600.983 476.377l60.026 77.022 78.64 54.876-47.384-138.51z"/><path fill="#60a0c1" fill-opacity=".996" d="M142.303 468.943l-85.2 300.414 130.342-159.49 13.461-225.338z"/><path fill="#99aba6" fill-opacity=".561" d="M771.673 647.372l-82.211-59.39L531.067 800.92l243.187-48.017z"/><path fill="#525f60" fill-opacity=".745" d="M341.091 115.174L18.14 403.245l223.194-83.505-115.881-187.487z"/><path fill="#56412b" fill-opacity=".98" d="M427.771 158.189l-169.662 2.88 303.66 125.542-254.613 12.517z"/><path fill="#ffd8c7" fill-opacity=".447" d="M429.531 150.728l-14.764-44.332 20.312-20.175 40.027 51.102z"/><path fill="#ffcaa9" fill-opacity=".396" d="M465.153 296.222l7.403-119.192-51.883 31.263 13.89 6.357z"/><path fill="#101004" fill-opacity=".557" d="M246.93 122.557l4.892-46.212 89.029-35.46 124.136 14.637z"/><path fill="#edecff" fill-opacity=".647" d="M372.548 1074.278L652.562 974.1l10.75 111.9-127.418-15.142z"/><path fill="#b5d7eb" fill-opacity=".537" d="M835.761 675.394L697.683 429.082l91.473 231.278L898 877.005z"/><path fill="#4671f9" fill-opacity=".239" d="M898 216.415L795.518 205.47l-16.822-31.919 3.157-217.929z"/><path fill="#008dbf" fill-opacity=".235" d="M301.391 854.448l-87.577-217.75 88.197-102.844L364.709 557z"/><path fill="#077694" fill-opacity=".384" d="M47.762 665.414l158.496-127.647L17.55 798.497l204.306-71.813z"/><path fill="#d5ebf3" fill-opacity=".365" d="M126.261 697.892l73.844-129.575-152.319 160.04L-62 744.209z"/><path fill="#5483bc" fill-opacity=".894" d="M592.483 804.29l51.852 170.302-21.909-137.644-4.101-49.696z"/><path fill="#4d1401" fill-opacity=".322" d="M439.2 529.733l-24.136 16.063-69.857 53.026 188.957-30.604z"/><path fill="#9dd1ee" fill-opacity=".227" d="M404.164 643.154l85.783-16.165-81.961 340.609 170.531-50.08z"/><path fill="#bac6d2" fill-opacity=".302" d="M523.735 600.185l-142.41 28.518L634.84 413.54l-359.66 32.994z"/><path fill="#146d98" fill-opacity=".627" d="M441.275 477.409l-92.417 4.656 173.896-34.478-78.077 29.899z"/><path fill="#002667" fill-opacity=".388" d="M356.63 414.93l105.823-11.88-26.279-16.49-172.705-56.113z"/><path fill="#1a52b7" fill-opacity=".655" d="M154.095 789.97l-91.873 76.856 77.251 31.326 40.803 32.125z"/><path fill="#70686d" fill-opacity=".694" d="M74.36 598.942l41.195-218.497L-20.32 488.592-62 618.54z"/><path fill="#6d7c80" fill-opacity=".459" d="M622.003 519.23l-29.372-41.8-4.763 215.762 175.432-9.319z"/><path fill="#94b1d2" fill-opacity=".725" d="M170.83 1086l71.265-151.3-59.83-8.998 44.587-44.482z"/><path fill="#ffe696" fill-opacity=".122" d="M614.709-58.572l169.263 88.533L176.085-1.042l54.63 85.133z"/><path fill="#000925" fill-opacity=".361" d="M273.5 628.52l-92.689 56.272 28.148 215.543 28.108-60.502z"/><path fill="#046793" fill-opacity=".443" d="M417.174 946.165l46.244-60.432-131.424 102.192 217.058-27.912z"/><path fill="#a6dafd" fill-opacity=".302" d="M364.74 400.316l-230.266 13.833 122.177-91.57 6.884 30.894z"/><path fill="#001f46" fill-opacity=".325" d="M5.759 387l180.67-311.02-209.012 17.577 235.839 162.878z"/><path fill="#fef0e3" fill-opacity=".29" d="M149.57 578.77l74.73-93.915L48.371 660.17l58.272-135.527z"/><path fill="#146d99" fill-opacity=".765" d="M408.207 384.537l-17.135 24.734-122.368 16.685-121.258 11.654z"/><path fill="#664927" fill-opacity=".796" d="M400.75 71.325l-91.467 21.218-48.69 154.736L461.102 65.256z"/><path fill="#106487" fill-opacity=".639" d="M243.495 987.72l-12.574-21.835 20.759-29.418 231.032-162.075z"/><path fill="#050a1b" fill-opacity=".302" d="M546 649.11l-8.368-72.22-29.577 69.187-187.414 44.583z"/><path fill="#c6d4fc" fill-opacity=".216" d="M643.617 334.243l65.626 21.028 34.808-66.996-116.12-65.646z"/><path fill="#c7d7e1" fill-opacity=".812" d="M732.04 747.872L677.356 977.72 891.15 831.3l-38.14 125.294z"/><path fill="#424b63" fill-opacity=".42" d="M405.597 303.213l146.417-15.195 62.434 59.25 12.973-133.272z"/><path fill="#519dc2" fill-opacity=".624" d="M325.301 894.06l-43.063-5.737 66.732-59.912 147.982-89.785z"/><path fill="#000928" fill-opacity=".255" d="M396.295 49.868L513.42 178.712 898-29.912 771.174 132.006z"/><path fill="#115dab" fill-opacity=".467" d="M518.756 983.877l77.237-22.552 18.37 22.96-97.774 29.446z"/><path fill="#191500" fill-opacity=".435" d="M361.749 271.371l70.491 110.184-42.026 13.822-90.666-174.05z"/><path fill="#b0cce0" fill-opacity=".718" d="M365.368 549.58l-53.671-101.923 57.237 43.661 353.834-57.668z"/><path fill="#002e33" fill-opacity=".443" d="M655.724 527.693l-64.105-53.204 48.251-9.342 18.651 26.54z"/><path fill="#452000" fill-opacity=".427" d="M254.684 516.701l-44.588 127.71-15.647-75.227 108.326-41.897z"/><path fill="#bbd7e0" fill-opacity=".525" d="M651.812 488.943l16.893-32.216 47.092 1.011-133.093-133.026z"/><path fill="#027aaf" fill-opacity=".573" d="M816.662 741.4L898 698.736l-116.046 61.267-9.867-131.02z"/><path fill="#493c29" fill-opacity=".545" d="M778.776 163.146l-271.569-20.884-178.7 23.706 487.169 65.552z"/><path fill="#022a53" fill-opacity=".643" d="M348.255 389.404l-77.938-35.102-4.918-91.413 46.873 97.526z"/><path fill="#556168" fill-opacity=".565" d="M854.741 483.42L683.355 376.66 810.19 630.697 898 755.086z"/><path fill="#dfe5e8" fill-opacity=".329" d="M-62 1019.462l87.157-315.607L-62 757.216 70.448 930.64z"/><path fill="#01404b" fill-opacity=".855" d="M73.814 857.582l82.776-80.869 59.068-179.379-152.21 246.397z"/><path fill="#fffef9" fill-opacity=".251" d="M122.416 392.907L90.478 556.929-1.845 791.136l165.754-391.47z"/><path fill="#e7e6c8" fill-opacity=".204" d="M251.835 192.133l55.25-57.042-31.872-7.824-37.042-10.611z"/><path fill="#003b4f" fill-opacity=".439" d="M449.984 773.687l-43.596-19.457-112.766 124.847 42.447-79z"/><path fill="#4767be" fill-opacity=".584" d="M-62 1004.251l7.367 39.912 262.34-42.995-28.525-56.149z"/><path fill="#003f87" fill-opacity=".365" d="M297.273 454.167l-13.014 61.84-18.768.931 72.669-16.893z"/><path fill="#1a7793" fill-opacity=".388" d="M19.86 839.487l31.187 8.398-20.988-90.154 304.512-214.633z"/><path fill="#7d7a70" fill-opacity=".69" d="M70.63 433.637l-4.667 5.96 168.653-95.215-89.562-27.314z"/><path fill="#0e95b0" fill-opacity=".267" d="M264.598 751.975l92.718-106.967-9.454 159.313-159.688 58.575z"/><path fill="#024c6d" fill-opacity=".475" d="M224.488 910.366l-3.417 28.137 269.596-246.035-236.91 188.371z"/><path fill="#544941" fill-opacity=".859" d="M898 770.33v45.922l-87.735 72.436 1.631-14.112z"/><path fill="#0e0000" fill-opacity=".361" d="M370.642 585.689l29.238 136.487-17.96-18.604-42.451-69.696z"/><path fill="#c1d0e3" fill-opacity=".463" d="M588.945 604.367l2.259-163.041L551.46 287.83l-85.57 10.86z"/><path fill="#8fb6da" fill-opacity=".443" d="M294.544 813.111l-89.985 121.377-28.35-172.254 4.652 153.96z"/><path fill="#432b26" fill-opacity=".502" d="M798.216 875.643l8.596-80.811-19.873-33.49-18.436 8.613z"/><path fill="#a5d0ef" fill-opacity=".416" d="M614.822 945.344l-73.019 32.79-14.726-304.009 40.305-72.619z"/><path fill="#537bb8" fill-opacity=".953" d="M147.577 931.192l-61.249-49.007-125.113-73.013-15.503-81.353z"/><path fill="#e98600" fill-opacity=".145" d="M453.427 192.584l-100.973 8.762 12.749 165.82-77.707-15.052z"/><path fill="#495558" fill-opacity=".604" d="M241.942 332.568l-.018-303.878-122.938 280.636 104.263 46.064z"/><path fill="#000505" fill-opacity=".318" d="M515.49 604.913l-117.45 17.32 84.345 5.67 73.464-19.628z"/><path fill="#d2effe" fill-opacity=".259" d="M452.803 996.365l124.83-12.84-73.572 23.224-109.396 44.988z"/><path fill="#1fa9ff" fill-opacity=".173" d="M669.21 420.685l-.249-27.088-.128 180.997L829.078 725.04z"/><path fill="#7fddf6" fill-opacity=".251" d="M367.68 770.35l-7.443-35.238 101.672-25.683-174.19 132.006z"/><path fill="#f7dce3" fill-opacity=".235" d="M298.095 454.358l-48.187 35.327 79.671 78.456-92.056-129.892z"/><path fill="#565f01" fill-opacity=".384" d="M115.406 662.123l-65.002.906-10.92-.61 32.502 20.372z"/><path fill="#fdc39b" fill-opacity=".361" d="M470.632 178.395L425.1 204.459l-7.014-66.037 39.253 116.851z"/><path fill="#240000" fill-opacity=".329" d="M-62 331.704l120.829 26.172 46.759-114.013-123.642 29.233z"/><path fill="#9d4942" fill-opacity=".227" d="M-60.861 129.686l145.658 59.188-141.451 211.925L42.163-62z"/><path fill="#8e9498" fill-opacity=".565" d="M467.596 614.042l-81.705 59.324 142.138-32.011-76.453-19.934z"/><path fill="#2c0c00" fill-opacity=".325" d="M416.976 282.132l29.204-60.6-95.422-35.218 38.366-63.18z"/><path fill="#2545c5" fill-opacity=".102" d="M603.458 930.3l84.416 120.386L784.176 1086l-163.09-281.084z"/><path fill="#fed792" fill-opacity=".153" d="M303.498 209.216l17.7 91.868-88.203-163.325 77.559 210.14z"/><path fill="#eff7fc" fill-opacity=".318" d="M245.076 339.472l-77.057 46.155 88.59-32.036 11.318-60.479z"/><path fill="#8b5b57" fill-opacity=".961" d="M402.717 281.06l68.02 20.291-14.54-4.838 11.024-31.594z"/><path fill="#b37a60" fill-opacity=".451" d="M246.595 462.314l-60.65 57.036.205 86.345 82.337-141.141z"/><path fill="#c2e5f4" fill-opacity=".267" d="M5.349 711.846L88.427 724.3l107.977-131.23-113.099 88.01z"/><path fill="#fba67e" fill-opacity=".259" d="M213.653 641.912l12.514 2.947 44.172-118.389-29.397 45.112z"/><path fill="#0273a6" fill-opacity=".592" d="M195.67 559.225l-68.827 81.254 36.444-80.98-53.21 48.51z"/><path fill="#87b6d4" fill-opacity=".902" d="M444.188 947.897L628.1 928.118l-126.089 28.233 62.867-267.334z"/></svg>