<svg xmlns="http://www.w3.org/2000/svg" width="228" height="278" viewBox="0 0 836 1024"><path fill="#494e55" d="M0 0h836v1024H0z"/><g fill-opacity=".502"><path fill="#f5fdff" d="M754 1042L466 826l128-196z"/><path fill="#fff" d="M306-38l32 356L458-62z"/><path fill="#000c1e" d="M606 1086L178 314 10 1046z"/><path fill="#c6c8c9" d="M898 738L662 262l164 820z"/><path fill="#d9d650" d="M290 698V586l316 128z"/><path fill="#c4cad7" d="M-62 354l224-28-44 164z"/><path fill="#9fa5a5" d="M762 458L598 350l44-384z"/><path fill="#1f0800" d="M626 242l-368 36 300 172z"/><path fill="#171a13" d="M802 214l-32 484 128-12z"/><path fill="#4177c3" d="M406 358l-48 236 300-8z"/><path fill="#040000" d="M698 858l-84-236 104-144z"/><path fill="#252929" d="M-62 54L294-62l-12 552z"/><path fill="#d6dde4" d="M306 270l96-20-40-312z"/><path fill="#000002" d="M410 598L30 470 10 594z"/><path fill="#83909a" d="M150 554L-62 774l148 8z"/><path fill="#24241b" d="M674 302l48-364 176 348z"/><path fill="#193f7a" d="M510 898l-348 16 108-304z"/><path fill="#fff" d="M626 570l-40 48-8-84z"/><path fill="#210700" d="M402 86l12 288L538-62z"/><path fill="#e4e2df" d="M766 746l72 296 60-316z"/><path fill="#100e0a" d="M530 890l-376 156 600 4z"/><path fill="#bec3c9" d="M770 354l-208-48 132 128z"/><path fill="#9e583f" d="M494 298l148-100L474 50z"/><path fill="#fff" d="M146 454l-16-48-76 80z"/><path fill="#032248" d="M418 630l24-176 184 192z"/><path fill="#663a2f" d="M846 1086L714 594l-36 272z"/><path fill="#c2bd4d" d="M386 622l-16 80 224-48z"/><path fill="#fff9ef" d="M362 486l16 48 32-32z"/><path fill="#825a52" d="M26 894l220 96-52 96z"/><path fill="#080300" d="M430 50l188 32-68-88z"/><path fill="#0b0e15" d="M226 762L38 946l148-528z"/><path fill="#0c1528" d="M-34 642l260-272 184 108z"/><path fill="#dce6f1" d="M490 766l72-72-40 188z"/><path fill="#d0d0cb" d="M690 894l68 88-200-68z"/><path fill="#1a58bd" d="M274 498l76-116-40 196z"/><path fill="#012a6b" d="M662 566l40-148-192 12z"/><path fill="#ffff79" d="M354 570l-36-20h72z"/><path fill="#e0e9f0" d="M454 2l-68 108-16-128z"/><path fill="#a3acb6" d="M602 630L470 898l200-108z"/><path fill="#04367c" d="M462 862l48-136-104-12z"/></g></svg>