<svg xmlns="http://www.w3.org/2000/svg" width="228" height="278" viewBox="0 0 836 1024"><path fill="#3c3439" d="M0 0h836v1024H0z"/><g fill-opacity=".502"><path fill="#fff" d="M438 974l356 112 104-176zm-332-36l-168 8 144 140z"/><path fill="#f7b877" d="M354 394l204-248-216-64z"/><path fill="#fff" d="M534 926l364 56-352 104z"/><path fill="#fa7749" d="M878 750L706 630l-80 328z"/><path fill="#00090a" d="M406-62l464 16 28 884z"/><path fill="#010301" d="M-22-38l508-4-548 616z"/><path fill="#bac9ca" d="M242 742l292 16-276-92z"/><path fill="#fff" d="M-6 514l88-44 36-80z"/><path fill="#000006" d="M10 938l-72-280 356-288z"/><path fill="#112031" d="M610 726L-62 858l556 228z"/><path fill="#fff" d="M78 1086l24-132H-62zm820-152l-388 64 260 88z"/><path fill="#889395" d="M378 606l176 124-160 44z"/><path fill="#875a33" d="M534 190L294 322l172 144z"/><path fill="#d22434" d="M798 838L674 942l-80-200z"/><path fill="#0b0e0f" d="M614 498l224 72-324 204z"/><path fill="#e7bb92" d="M330 210l32-104 148-4z"/><path fill="#071a32" d="M426 586L270 734l68-408z"/><path fill="#251515" d="M666 746l160 188 72-100z"/><path fill="#0d100f" d="M-62 142l300-20 212 224z"/><path fill="#fff" d="M330 550l-48 20-40-20z"/><path fill="#fbc49c" d="M522 230l-188-8 208-48z"/><path fill="#c7a969" d="M646 750l116-80 136 92z"/><path fill="#adaac3" d="M506 558l32 52 20-84z"/><path fill="#262434" d="M418 478L746 94l-4 516z"/><path fill="#0b2241" d="M230 910l52-544-132 252z"/><path fill="#373222" d="M570 54L314-62l68 180z"/><path fill="#45270e" d="M438 210l-88-36 144-4z"/><path fill="#89b21d" d="M538 754l-44 88 32 48z"/><path fill="#f3bf99" d="M446 226l-104 8-20-68z"/><path fill="#061c32" d="M466 706l96-40-124-272z"/><path fill="#0e110e" d="M818 430L542 202l-64 104z"/><path fill="#fff" d="M98 406l-20 64-40 4z"/><path fill="#be7d5a" d="M362 270l-48 72 116 84z"/><path fill="#f2f6ff" d="M898 998l-332 88-32-144z"/><path fill="#4e1329" d="M66 478l104 76 164-284z"/><path fill="#212b45" d="M78 1086l460-96-332-300z"/><path fill="#444851" d="M598 294h192l-92-144z"/><path fill="#151613" d="M670 922l-172 16 60-164z"/></g></svg>