<svg xmlns="http://www.w3.org/2000/svg" width="228" height="278" viewBox="0 0 836 1024"><path fill="#2b2a32" d="M0 0h836v1024H0z"/><path fill="#db9660" fill-opacity=".635" d="M328.864 75.65l219.887-26.671 16.66 204.358-197.965 104.21z"/><path fill="#a8fc74" fill-opacity=".918" d="M664.552 276.916l-.296 119.057 100.86-.906-5.578-111.781z"/><path fill="#9dafc1" fill-opacity=".584" d="M598.339 619.472L412.676 728.741l-79.766-15.303 255.608-149.934z"/><path fill="#966da3" fill-opacity=".608" d="M184.563 510.571l37.311-190.021-52.287 67.277L-62 908.052z"/><path fill="#e9b96c" fill-opacity=".467" d="M205.522 974.202L8.838 936.434 115.274 1086h175.018z"/><path fill="#e4edd6" fill-opacity=".435" d="M195.03 872.971l-43.027-118.454 52.408-39.758 17.347 100.173z"/><path fill="#77a9f2" fill-opacity=".714" d="M513.095 430.737l61.381 36.483 4.005-73.178-60.737 2.922z"/><path fill="#00071c" fill-opacity=".514" d="M232.18 831.07L898 472.413l-51.55 570.579-620.62 2.307z"/><path fill="#00001e" fill-opacity=".608" d="M369.412 544.513l-13.355 262.832-305.06-130.246 331.794-368.707z"/><path fill="#6b707d" fill-opacity=".784" d="M52.097 840.087l9.518-209.816-19.287-41.617-66.643 256.42z"/><path fill="#000201" fill-opacity=".584" d="M119.991 458.256L-19.567-62l665.644 11.267-289.6 145.626z"/><path fill="#0f0f12" fill-opacity=".91" d="M898 68.853l-25.877 165.079L388.563-6.655 863.911-.719z"/><path fill="#ad8b0d" fill-opacity=".635" d="M87.713 465.521L-62 544.374v-154.94L69.974 420.56z"/><path fill="#bf8259" fill-opacity=".659" d="M499.241 384.746l-142.94-39.108 227.965-198.603-275.69 4.583z"/><path fill="#ac7f9a" fill-opacity=".439" d="M502.466 923.438l-29.298-28.028 60.603-348.93-61.829 20.958z"/><path fill="#d6e6f7" fill-opacity=".612" d="M366.045 524.634l-7.637-15.28 26.42 32.575L448.846 504z"/><path fill="#c6cdd3" fill-opacity=".816" d="M384.138 736.384l-3.639-80.37-21.255 7.431 10.507 65.604z"/><path fill="#0c0815" fill-opacity=".478" d="M695.978 761.337l-35.286-517.124-44.365-43.916-113.34 6.155z"/><path fill="#e6ffed" fill-opacity=".416" d="M148.167 558.999l-42.13-20.365 30.106-74.532 50.686 46.548z"/><path fill="#001740" fill-opacity=".769" d="M197.939 959.807l-83.068 24.936-65.878-291.56 47.962-83.396z"/><path fill="#0d236b" fill-opacity=".529" d="M588.55 481.955l-224.21 40.104-46.555-139.52 63.137-51.003z"/><path fill="#d3976c" fill-opacity=".522" d="M519.488 56.943l-3.51 120.872-152.083 20.68L426.19 38.448z"/><path fill="#240c0b" fill-opacity=".627" d="M504.922 293.384l154.675-2.368-130.348 75.386-146.87-106.857z"/><path fill="#3b4244" fill-opacity=".608" d="M765.79 102.065l-336.09 3.021 159.859 56.25 172.103 129.522z"/><path fill="#47001d" fill-opacity=".412" d="M118.247 471.176l60.514 12.106-6.234 206.516 220.07-414.056z"/><path fill="#00143c" fill-opacity=".561" d="M487.61 1012.203L383.798 545.127l104.82-58.803-270.015 585.02z"/><path fill="#111213" fill-opacity=".847" d="M110.973 431.593l-150.75-57.608 298.684-198.82 100.337 29.93z"/><path fill="#a71933" fill-opacity=".596" d="M485.054 1086l11.315-386.134-32.252 339.308 26.565 17.258z"/><path fill="#f5af76" fill-opacity=".282" d="M544.584 41.679L429.825 247.25l197.35 32.001-145.042 19.929z"/><path fill="#39312f" fill-opacity=".773" d="M666.947 791.221l-109.618-46.108 20.016-136.54L612.062 563z"/><path fill="#a1afb6" fill-opacity=".529" d="M618.679 550.307l-244.756 177.07 86.5-20.867 47.854-22.564z"/><path fill="#87432c" fill-opacity=".573" d="M505.066 537.34l-8.786-194.381-105.3-111.528 33.231-48.851z"/><path fill="#011025" fill-opacity=".812" d="M755.52 271.847l27.037 133.439L898 406.629l-20.832-124.934z"/><path fill="#dbffb5" fill-opacity=".612" d="M766.264 324.262l-1.352 38.898-74.432-69.757 62.6-16.343z"/><path fill="#00112b" fill-opacity=".584" d="M486.38 643.692l147.71 339.132L439.034 513.86 110.856 684.842z"/><path fill="#86ef4d" fill-opacity=".98" d="M661.402 339.41l107.91 54.637-95.452 8.168-9.68-98.05z"/><path fill="#000617" fill-opacity=".725" d="M287.274 457.912l-75.819 130.647 19.62 414.131L312.04 1086z"/><path fill="#686cff" fill-opacity=".345" d="M182.909 371.908l111.102-60.029 93.28-58.386-139.24 60.179z"/><path fill="#050a0a" fill-opacity=".663" d="M609.59 948.404L601.878 1086H898l-40.456-282.24z"/><path fill="#9aa397" fill-opacity=".294" d="M155.24 735.286l13.708 122.837 54 2.778-12.146-189.971z"/><path fill="#ffffd1" fill-opacity=".125" d="M279.606 138.083l383.87 8.442-77.359 88.496-34.95-59.49z"/><path fill="#001a4c" fill-opacity=".424" d="M527.687 552.878l-218.009 68.356L675.326 391.66 513.717 661.07z"/><path fill="#f09e36" fill-opacity=".09" d="M709.192 497.744l45.385-97.831 44.426 467.718-91.498-37.589z"/><path fill="#040b0a" fill-opacity=".655" d="M689.082 569.78l-51.014 81.553-6.168-245.365 89.742-1.77z"/><path fill="#e1f2fc" fill-opacity=".325" d="M351.652 658.455l93.085 23.34 14.047-22.415 52.037-8.44z"/><path fill="#c47e4d" fill-opacity=".51" d="M160.762 972.35l45.358-11.379L274.99 1086l-304.025-20.979z"/><path fill="#adfefa" fill-opacity=".271" d="M488.492 558.945l-8.79 12.038-12.571 60.51 72.529-62.738z"/><path fill="#101e3c" fill-opacity=".98" d="M477.692 802.26l83.688-168.826-5.598 336.862L447.945 636.58z"/><path fill="#412407" fill-opacity=".392" d="M446.727 92.185l104.437 55.146 9.13-33.546-138.543 32.754z"/><path fill="#a2b59a" fill-opacity=".247" d="M144.082 1066.565L-62 707.367l113.092 54.745L5.29 953.898z"/><path fill="#99b7ee" fill-opacity=".141" d="M51.138 126.227l28.648 128.091-51.897 65.556-35.025-36.015z"/><path fill="#1e2a3a" fill-opacity=".929" d="M527.206 618.618l-146.457 58.205 133.524-80.146L704.37 1039.14z"/><path fill="#65183c" fill-opacity=".447" d="M187.876 638.606l3.657-22.271 1.334-78.945L4.181 615.47z"/><path fill="#182341" fill-opacity=".89" d="M428.192 698.21l49.564 63.52 4.236 160.44-45.573-264.682z"/><path fill="#990065" fill-opacity=".298" d="M111.838 502.314l138.044-102.096 34.623-74.117-56.972 6.234z"/><path fill="#243853" fill-opacity=".808" d="M898 271.153l-232.67 10.792 25.417-118.937 96.592 86.777z"/><path fill="#f2a26b" fill-opacity=".525" d="M519.327 116.112l36.918-36.247-89.992-27.947 52.327 103.98z"/><path fill="#181718" fill-opacity=".784" d="M140.249 373.36l75.434-422.59 110.38 212.77 39.589 89.343z"/><path fill="#0a1b3b" fill-opacity=".733" d="M479.285 683.667l153.249 382.678-160.981-3.676 32.421-231.34z"/><path fill="#000f31" fill-opacity=".655" d="M512.542 304.843l-28.7 147.166 50.672-81.002 119.15 115.236z"/><path fill="#fafcf4" fill-opacity=".294" d="M565.026 613.196l39.518-58.368L461.13 668.43l-49.49 1.245z"/><path fill="#c69778" fill-opacity=".455" d="M337.95 170.343l-10.46-82.231 64.366 168.146-9.47 63.449z"/><path fill="#033b96" fill-opacity=".333" d="M69.008 773.023l40.26 189.868-73.231-216.322 37.589-149.867z"/><path fill="#051937" fill-opacity=".655" d="M526 685.377L215.72 785.55l13.81 146.518-133.272 73.57z"/><path fill="#8bb5f8" fill-opacity=".396" d="M550.915 452.314l-31.762-40.555 24.355-30.7 47.968 63.175z"/><path fill="#272540" fill-opacity=".949" d="M461.695 718.419l70.926 84.016-63.205-163.37 18.493 85.837z"/><path fill="#384741" fill-opacity=".31" d="M425.851-59.207l-13.56 157.743-102.151 83.226 35.776-162.948z"/><path fill="#d596b6" fill-opacity=".478" d="M387.2 364.552l-20.585-28.707-44.916-64.738 22.422 23.86z"/><path fill="#f2f8ff" fill-opacity=".467" d="M378.93 537.405l-8.614-13.361.99-4.142 75.487-5.415z"/><path fill="#08080b" fill-opacity=".831" d="M173.879-62H-26.855l1.88 178.928 224.12-.63z"/><path fill="#f7112d" fill-opacity=".247" d="M506.817 681.564L473.95 823.995l16.318 73.711 18.662-185.17z"/><path fill="#272318" fill-opacity=".624" d="M151.169 525.355l-191.933-26.542L-62 648.384l217.843-141.688z"/><path fill="#e9fdfc" fill-opacity=".431" d="M182.92 491.838l-59.825 15.869-2.885 60.514 38.198-95.189z"/><path fill="#2f3541" fill-opacity=".941" d="M576.227 557.47l28.57 221.898L541.8 583.894l35.121 223.212z"/><path fill="#eab490" fill-opacity=".494" d="M515.453 200.198l-117.429-89.3-9.192 42.207 120.396 63.093z"/><path fill="#b6c5c8" fill-opacity=".58" d="M525.414 562.49l-17.323 29.076 32.472 21.62-14.72 14.46z"/><path fill="#a7735e" fill-opacity=".992" d="M506.225 241.83l43.631-18.933-8.733-83.835 7.946 107.88z"/><path fill="#030709" fill-opacity=".451" d="M650.562-62L533.326 57.58l39.9 56.976 135.128 40.54z"/><path fill="#ffd535" fill-opacity=".086" d="M727.725 523.436l128.312-47.566-130.396-163.25 8.792 83.902z"/><path fill="#825327" fill-opacity=".639" d="M505.796 357.769L391.501 258.68l67.126-92.078L412.27 313.27z"/><path fill="#fafcff" fill-opacity=".514" d="M417.211 682.56l-6.692-26.197 11.842 10.652 8.107 58.784z"/><path fill="#070000" fill-opacity=".467" d="M266.666 694.603l58.338-403.24-91.657 295.912L109.718 670.3z"/><path fill="#57535c" fill-opacity=".588" d="M65.316 1021.214L94.542 1086-30.44 889.725l87.579 35.213z"/><path fill="#04070b" fill-opacity=".416" d="M755.747 20.622L842.577-62 898 226.353 753.153 273.14z"/><path fill="#4f3916" fill-opacity=".494" d="M149.877 436.383L-62 352.663l134.29 97.82L-62 571.608z"/><path fill="#26000d" fill-opacity=".282" d="M490.963 241.93l49.374-73.034-50.295-.998 62.489 52.194z"/><path fill="#24314b" d="M432.63 658.998l63.511-29.665-7.747-159.5-1.175 147.345z"/><path fill="#081b3a" fill-opacity=".902" d="M480.214 770.056L454.62 1070.51l-38.709-389.488-30.871 7.556z"/><path fill="#f7ffff" fill-opacity=".243" d="M471.952 706.145l28.592-13.537-1.867-17.25-140.25 53.118z"/><path fill="#82283f" fill-opacity=".655" d="M526.242 510.046l-30.233 45.09-25.234-232.346 34.901 208.84z"/><path fill="#2c4360" fill-opacity=".576" d="M220.202 864.427l-37.76-47.837 2.122 98.586 22.364 55.475z"/><path fill="#0f1f3d" fill-opacity=".851" d="M610.15 541.847l-40.34 44.259-21.9-62.86 80.295-197.149z"/><path fill="#95ff55" fill-opacity=".455" d="M669.773 413.45l100.808-31.177-4.801-45.81-86.74-19.935z"/><path fill="#01132f" fill-opacity=".671" d="M362.583 708.02l-37.76-409.624-52.124 610.695 162.134-46.365z"/><path fill="#9f8b98" fill-opacity=".533" d="M668.568 281.31l-39.589-3.49-164.93-1.788 307.835 13.108z"/><path fill="#5d5245" fill-opacity=".471" d="M50.367 706.524L69.87 567.408l-43.824-11.096L.486 750.135z"/><path fill="#acb42e" fill-opacity=".561" d="M76.661 977.127l29.691-6.243 13.24 40.29-46.406 61.203z"/><path fill="#112555" fill-opacity=".91" d="M452.783 498.753l9.183-121.402-136.13-.07 64.135 146.614z"/><path fill="#d4b315" fill-opacity=".4" d="M17.18 424.266l-77.79 52.294 90.637 8.087 10.7-46.738z"/><path fill="#0c1d3f" fill-opacity=".984" d="M522.968 487.623L376.272 554.22l103.732 103.93-23.643-91.226z"/><path fill="#2e1b23" fill-opacity=".733" d="M394.4 368.69l-15.13-57.373-119.063-159.211 126.685 201.906z"/><path fill="#f3ffff" fill-opacity=".416" d="M494.985 687.718L484.1 663.671l-11.162-82.61 6.101-11.375z"/><path fill="#f1feff" fill-opacity=".306" d="M398.562 685.964l-46.24-25.892 53.174-9.552-45.534 44.554z"/><path fill="#b79d8c" fill-opacity=".8" d="M384.962 257.16l-32.445 24.351 19.026-77.593 3.488 57.545z"/><path fill="#221800" fill-opacity=".216" d="M724.418 894.41l-.467-217.157-102.653-126.618-47.258 418.472z"/><path fill="#e3a462" fill-opacity=".51" d="M417.114 359.142l33.489 3.142 4.193-13.252-71.338-19.839z"/><path fill="#0f101d" fill-opacity=".427" d="M479.478 418.754l78.05-68.644 18.82-216.428-45.456 174.446z"/><path fill="#f0ffed" fill-opacity=".2" d="M214.845 826.777l-2.778-110.553-34.905 55.656 1.09 9.016z"/><path fill="#051939" fill-opacity=".729" d="M167.479 814.686l-38.695 180.181-72.231-224.013L140 661.67z"/><path fill="#c9f7a9" fill-opacity=".529" d="M733.077 353.946l-77.084-71.05 43.183 1.087 61.704-7.933z"/><path fill="#a57633" fill-opacity=".4" d="M429.285 363.965l-36-91.57 94.46 117.868 22.226-86.871z"/><path fill="#080809" fill-opacity=".686" d="M515.928-62l-68.57 109.573-191.438 20.44-1.57 58.207z"/><path fill="#effffd" fill-opacity=".259" d="M129.049 570.709l-28.09-48.189 93.853 19.204-24.674-6.15z"/><path fill="#e0986f" fill-opacity=".569" d="M567.864 185.373l-140.384-49.23 42.798 47.307 86.844-48.566z"/><path fill="#000913" fill-opacity=".604" d="M100.786 183.434l63.034 209.229-27.794 61.727-90.254-106.12z"/><path fill="#010613" fill-opacity=".765" d="M239.636 852.318l29.154 40.59-74.708 60.56L309.75 1086z"/><path fill="#151515" fill-opacity=".616" d="M764.771 516.363L898 469.385l-64.869 365.704-86.29-200.095z"/><path fill="#d59162" fill-opacity=".482" d="M560.312 105.28l-70.601-63.004-91.331 28.156 99.036 38.836z"/><path fill="#fcfeff" fill-opacity=".255" d="M579.269 631.8l-2.472-23.338-.045-16.657-38.786 39.441z"/><path fill="#9292b3" fill-opacity=".427" d="M39.741 731.998l-79.348 59.989 28.529 64.014 63.888-84.403z"/></svg>