<svg xmlns="http://www.w3.org/2000/svg" width="228" height="278" viewBox="0 0 836 1024"><path fill="#897d8c" d="M0 0h836v1024H0z"/><path fill="#2f3d56" fill-opacity=".992" d="M724.103 482.52l-215.27 255.315L-62 923.937 487.528 1086z"/><path fill="#d5d5de" fill-opacity=".698" d="M99.758 449.423L3.523 860.226 44.953-62l397.225 335.326z"/><path fill="#6bbcfe" fill-opacity=".627" d="M862.63 568.817L701.7 321.668 60.226 467.84l732.918 124.35z"/><path fill="#14100e" fill-opacity=".882" d="M383.3 160.692l143.58-80.947 158.045 30.519L473.46-62z"/><path fill="#f8c55c" fill-opacity=".894" d="M898 900.723l-330.814-23.967L495.891 1086H820.63z"/><path fill="#cfd6d9" fill-opacity=".824" d="M600.517 353.329l95.305 30.44L717.58-62h-46.452z"/><path fill="#af2021" fill-opacity=".522" d="M550.962 880.923l123.826-273.428 187.735 28.177 26.123 282.183z"/><path fill="#a4b8d1" d="M377.403 447.285l-201.58-47.221L339.662 17.355 404.979-62z"/><path fill="#2c1700" fill-opacity=".518" d="M578.023 413.81L407.728 26.237 396.363 136.64l80.076 265.027z"/><path fill="#e2001d" fill-opacity=".4" d="M717.63 96.381L862.794-62 898 551.262 708.413 376.626z"/><path fill="#001e36" fill-opacity=".557" d="M229.221 411.93l-55.018-36.815L52.21 722.284 234.1 493.138z"/><path fill="#effbff" fill-opacity=".894" d="M18.058 1008.105L211.413 1086l-26.528-78.654-113.433-42.567z"/><path fill="#3b4c70" fill-opacity=".902" d="M256.353 684.182l180.161 227.9L269.081 900.3-41.94 1007.598z"/><path fill="#002553" fill-opacity=".514" d="M824.535 684.228L898 703.436 655.113 515.127l-150.545 95.78z"/><path fill="#99283a" fill-opacity=".533" d="M331.046-62L172.728 74.141l92.5 205.399-88.348 74.42z"/><path fill="#55acf9" fill-opacity=".463" d="M591.761 580.514l-219.108 28.63-241.146-217.576 228.465-94.797z"/><path fill="#ff4832" fill-opacity=".275" d="M107.707 803.747l119.03-197.886L-62 500.767l78.45 457.038z"/><path fill="#fbf3da" fill-opacity=".345" d="M646.366 231.524L83.24 259.727l-29.588-116.26 647.209 75.552z"/><path fill="#f5ebf0" fill-opacity=".718" d="M218.29 906.832l-54.669-39.162-8.81 30.207 31.894 25.016z"/><path fill="#e05377" fill-opacity=".647" d="M898 808.679v-59.682L696.909 618.473 587.344 794.91z"/><path fill="#eafffc" fill-opacity=".353" d="M183.619-62L73.294-22.879 18.504 845.54l127.95-533.077z"/><path fill="#f78485" fill-opacity=".494" d="M514.984 714.429l11.561-104.57-241.298-22.877 20.569 97.09z"/><path fill="#7bb8ff" fill-opacity=".631" d="M166.157 803.236l95.397-227.045-174.76 247.661 20.575-14.4z"/><path fill="#ddd6d6" fill-opacity=".659" d="M306.918-62l40.464 366.4 60.94-277.57L514.863-1.205z"/><path fill="#212a42" fill-opacity=".659" d="M192.935 932.926L-62 806.449l19.765 93.815L369.383 1086z"/><path fill="#130701" fill-opacity=".573" d="M615.054 130.068l1.013 65.968 37.15-98.274L531.344-62z"/><path fill="#c7edfe" fill-opacity=".38" d="M478.52 775l74.034-17.277-308.749-53 44.81 35.737z"/><path fill="#634221" fill-opacity=".4" d="M424.124 256.93l3.602 138.52 146.642-19.546 66.215-153.416z"/><path fill="#d8f8ff" fill-opacity=".286" d="M669.135 478.599l-265.238 58.122L696.11 338.067l201.516 218.02z"/><path fill="#d4d8dc" fill-opacity=".729" d="M533.122-50.687L898-62l-97.866 29.283-120.577 140.665z"/><path fill="#ffac66" fill-opacity=".325" d="M619.316 122.51l-87.66 224.401-78.29-173.985 78.97-93.743z"/><path fill="#060707" fill-opacity=".635" d="M511.875 18.216l-56.654 158.74-61.52-16.58 5.432-114.358z"/><path fill="#1d2939" fill-opacity=".941" d="M374.563 953.205l333.823-377.9L408.464 1086H47.25z"/><path fill="#c9ffbb" fill-opacity=".412" d="M513.962 995.701l-39.945 7.756-37.665-38.005 77.112-22.102z"/><path fill="#edf0fb" fill-opacity=".494" d="M150.977 602.834l73.082-85.302 20.807-.262-2.584 80.791z"/><path fill="#2e528d" fill-opacity=".655" d="M501.857 739.81l32.98-166.66 120.156-63.19-137.32 335.149z"/><path fill="#864651" fill-opacity=".478" d="M168.377 297.317l196.91-1.042-83.952-51.133L198.752 234z"/><path fill="#e8607c" fill-opacity=".478" d="M35.085-22.9l8.22 472.017-66.814 537.405L-62-62z"/><path fill="#0a1102" fill-opacity=".506" d="M795.162 601.85l101.657 131.267-253.634-149.361-40.326 86.232z"/><path fill="#00141c" fill-opacity=".275" d="M238.062 501.704l21.79-72.193-49.553-41.665L54.907 724.422z"/><path fill="#3a669c" fill-opacity=".514" d="M292.036 907.487l4.169-424.017-108.922 255.188 301.327 34.4z"/><path fill="#413120" fill-opacity=".671" d="M635.697 151.081l-11.495 54.614-118.017-54.663 36.182 47.454z"/><path fill="#d6d3d5" fill-opacity=".969" d="M335.42 581.514l-.177 66.795 23.134 18.306L368.957 592z"/><path fill="#2e2b00" fill-opacity=".341" d="M898 884.702l-387.565-24.845 195.839-42.516 126.95 11.993z"/><path fill="#b7354a" fill-opacity=".4" d="M214.792-62L345.445 45.219 299.9 133.895l-113.569 30.917z"/><path fill="#80bbed" fill-opacity=".663" d="M136.494 454.505l233.863 42.215 14.116-70.757L88.168 505.44z"/><path fill="#ddb6a9" fill-opacity=".671" d="M64.888 880.132l6.697-102.633L30.23 665.374l-76.927 55.136z"/><path fill="#010b19" fill-opacity=".612" d="M450.094 298.26l118.579 55.75-37.654 49.448-94.785-122.905z"/><path fill="#151f3d" fill-opacity=".435" d="M52.92 840.208l159.332-59.135L442.749 1086 165.166 859.403z"/><path fill="#d53f69" fill-opacity=".565" d="M164.743 729.722l-78.292 74.06-40.685-77.486 183.475-138.31z"/><path fill="#2c6cb3" fill-opacity=".467" d="M185.241 688.165l224.508 2.37 138.582 53.598-85.455-5.817z"/><path fill="#276ccf" fill-opacity=".404" d="M593.907 423.564l7.392-133.24-49.994 94.752-409.603-10.601z"/><path fill="#ffc9a4" fill-opacity=".424" d="M501.093 149.167l102.637 12.555-7.806-59.557-112.072-15.21z"/><path fill="#6fbcff" fill-opacity=".459" d="M898 486.744L765.426 627.168 598.279 321.03l81.6 267.912z"/><path fill="#161a15" fill-opacity=".576" d="M625.678 715.85l45.737-81.73-65.573 14.786L486.611 1086z"/><path fill="#1a4570" fill-opacity=".788" d="M253.649 424.79l-113.496 4.684-45.08 18.096 32.675 9.693z"/><path fill="#a99d2f" fill-opacity=".424" d="M864.66 872.526L898 920.903l-339.662-13.768 13.898-48.98z"/><path fill="#723b47" fill-opacity=".271" d="M684.426 277.57l5.085-162.702L857.379-62 728.377 281.404z"/><path fill="#7ec3fa" fill-opacity=".502" d="M410.756 361.136l-15.366-83.685-221.323 51.085 304.64 89.56z"/><path fill="#d3dce1" fill-opacity=".498" d="M326.44 375.984l90.886-370.72-176.4 199.198 160.81 54.476z"/><path fill="#dee7e7" fill-opacity=".275" d="M533.4 352.227l-19.457-62.248 246.484 158.564-75.614-206.88z"/><path fill="#b73b41" fill-opacity=".561" d="M463.136 616.309l49.563 18.722-150.269 19.02 14.518-50.263z"/><path fill="#021e3e" fill-opacity=".208" d="M485.736 441.317l-266.32-124.6 99.99 14.746-68.29 20.575z"/><path fill="#cc997b" fill-opacity=".639" d="M54.925 595.497L7.594 801.667 116.435 573.89l-20.369-61.726z"/><path fill="#836552" fill-opacity=".902" d="M452.765 254.605l-53.617-95.203 198.735 132.63-28.59 4.059z"/><path fill="#edf7fb" fill-opacity=".831" d="M51.782 982.215L-.598 1086h252.58l-90.244-98.056z"/><path fill="#f2ebe7" fill-opacity=".588" d="M19.243 764.878L46.69 593.515l-95.647 242.091 77.245-76.82z"/><path fill="#81addf" fill-opacity=".984" d="M324.068 522.715L653.1 477.49l-99.395 85.22-199.707-28.215z"/><path fill="#cfe8f2" fill-opacity=".447" d="M158.122 334.824L120.612-62 58.887 493.03l205.504-195.782z"/><path fill="#011d36" fill-opacity=".478" d="M253.775 480.614L113.03 616.44l29.105-46.074-46.518-61.483z"/><path fill="#0e0b09" fill-opacity=".804" d="M629.774 132.863L649.9 81.407l-140.081 4.32-7.34-78.586z"/><path fill="#b31117" fill-opacity=".49" d="M484.864 631.424l12.653 3.567 10.414 28.552-34.49 40.373z"/><path fill="#1e68b1" fill-opacity=".337" d="M181.565 449.112l-12.421-157.941 88.02 273.423 124.85 15z"/><path fill="#543f33" fill-opacity=".616" d="M586.316 327.075l-11.348-68.735-6.9-18.55 64.925 11.089z"/><path fill="#bbbac0" fill-opacity=".98" d="M454.162 745.344l-17.689 26.299-55.071-12.496-103.568-24.426z"/><path fill="#685146" d="M501.054 185.514l32.307-33.337 48.373 23.932-21.722 1.593z"/><path fill="#a2b3bb" fill-opacity=".361" d="M241.69 210.074L161.585-47.57l-22.76 303.29 213.689 6.689z"/><path fill="#a75e6b" fill-opacity=".537" d="M627.457 4.938l-217.525-19.36 58.526 24.433 126.193 7.68z"/><path fill="#6c472d" fill-opacity=".404" d="M95.637 816.534l-81.187 241.68L50.29 768.04-62 1018.008z"/><path fill="#c4a9b0" fill-opacity=".839" d="M289.356 658.864l246.838 55.387-171.59-23.964-71.723-18.194z"/><path fill="#ebb8a6" fill-opacity=".537" d="M591.701 198.883l-101.275-15.869-.848 38.937 148.034 28.023z"/><path fill="#ffd4bb" fill-opacity=".263" d="M898 421.063l-93.327 65.053 2.6 168.334L898 590.067z"/><path fill="#ffec92" fill-opacity=".282" d="M518.477 943.114l28.849 137.626 183.641-151.682-297.703 76.566z"/><path fill="#ce5b76" fill-opacity=".69" d="M708.751 783.631L573.53 835.786l85.966-175.618 35.812-29.546z"/><path fill="#121a2a" fill-opacity=".71" d="M196.14 890.929l198.02 43.001L297.626 1086l220.005-61.719z"/><path fill="#88d2ff" fill-opacity=".541" d="M725.614 404.843l157.135 206.77-274.725-223.071L470.29 470.59z"/><path fill="#ae9da3" fill-opacity=".447" d="M741.644 428.694l-67.738-104.74L766.558-12.6l-83.946 80.689z"/><path fill="#bd516b" fill-opacity=".482" d="M-62 245.6L10.626-29.61l20.13 654.199-78.995 241.591z"/><path fill="#273f6a" fill-opacity=".792" d="M88.892 976.713l-8.931-85.445L254.317 1086 211.45 979.604z"/><path fill="#cd4468" fill-opacity=".263" d="M730.889 540.568l113.73-357.8 46.788 297.064-207.283-14.142z"/><path fill="#7d0b21" fill-opacity=".325" d="M205.34 301.566l15.041-35.49 84.944 5.209 15.132 22.338z"/><path fill="#cbccd5" fill-opacity=".663" d="M153.717 597.007l3.45-22.628 98.433-34.103-21.504-27.739z"/><path fill="#daf9f7" fill-opacity=".412" d="M458.071 679.903l57.275-75.994 5.966 38.721-65.225-7.455z"/><path fill="#d4e0e6" fill-opacity=".863" d="M589.892 318.749l72.853 55.426-30.757-182.258 47.901 8.77z"/><path fill="#080a10" fill-opacity=".718" d="M600.122 757.503l23.544-136.42 98.374 10.978-20.54-43.63z"/><path fill="#9c7a62" fill-opacity=".643" d="M454.038 397.257l52.907-32.432-53.624-37.693-64.013-191.076z"/><path fill="#cc3744" fill-opacity=".459" d="M320.589 669.444l207.42 24.985-225.034-45.376 22.912-93.72z"/><path fill="#192331" fill-opacity=".98" d="M561.337 833.37l-27.149 109.594-136.042-17.984L354.125 1086z"/><path fill="#88c2ec" fill-opacity=".714" d="M399.617 412.015l-14.339 63.548L259.4 493.487l46.473-122.14z"/><path fill="#cbabb8" fill-opacity=".365" d="M18.696 585.838l70.038-422.87L32.66-62 19.706 248.527z"/><path fill="#583e34" fill-opacity=".839" d="M570.93 261.641l-115.311 9.656 175.485-2.626-87.49-38.88z"/><path fill="#d1dce0" fill-opacity=".702" d="M495.713-49.25L361.718.014l39.239 174.335-57.966-60.385z"/><path fill="#4979b7" fill-opacity=".502" d="M773.027 546.988l-27.242-58.461-299.593 137.551 224.694-136.792z"/><path fill="#1f7bd9" fill-opacity=".361" d="M178.03 501.86l-15.53-8.854-35.507 42.533-51.523-79.992z"/><path fill="#79c1ff" fill-opacity=".431" d="M76.075 848.785l102.707-88.473 30.313-53.103 42.912-103.796z"/><path fill="#314876" fill-opacity=".314" d="M542.112 798.033l-398.31-62.41 81.14 163.907 270.44 5.533z"/><path fill="#0e0c0c" fill-opacity=".655" d="M391.476 107.276l38.675-78.365 154.153-10.805 55.533 44.857z"/><path fill="#33477a" fill-opacity=".584" d="M466.752 732.47l-147.996-20.58 198.702-1.403 31.534 38.368z"/><path fill="#16264c" fill-opacity=".58" d="M50.764 925.773L164.818 803.26l-57.347 12.73 78.482 125.343z"/><path fill="#044aa5" fill-opacity=".216" d="M520.25 426.78l65.778-118.573 75.734 90.63-26.85-18.594z"/><path fill="#4470ae" d="M356.686 535.718l2.814 7.03 295.884 54.396-279.726-42.356z"/><path fill="#ca9ca9" fill-opacity=".51" d="M295.298 110.308l-116.35 84.84 156.334-53.754L336.257-62z"/><path fill="#0042a5" fill-opacity=".294" d="M468.038 424.589l-194.704-69.942 27.121 45.859-105.293-57.09z"/><path fill="#cc0109" fill-opacity=".333" d="M498.8 686.533l-79.146-23.56 28.098-48.156-1.309 79.312z"/><path fill="#cfd7d4" fill-opacity=".447" d="M518.828 612.97l-289.426-43.685 252.955 46.85 32.975 26.375z"/><path fill="#322a16" fill-opacity=".506" d="M47.349 720.337L180.376 513.91l-47.143 125.812-31.871 26.817z"/><path fill="#9b4154" fill-opacity=".6" d="M208.204-62l91.612 108.88-26.552 85.128-74.143 24.194z"/><path fill="#160c09" fill-opacity=".561" d="M755.2 641.679l32.932 46.05L898 658.474v33.443z"/><path fill="#cdd4da" fill-opacity=".471" d="M362.138 320.95l6.026-204.53L51.92 243.55l393.263-35.47z"/><path fill="#647a95" fill-opacity=".435" d="M318.88 910.932l126.743-51.128-160.855 29.54-80.34-4.99z"/></svg>