<svg xmlns="http://www.w3.org/2000/svg" width="228" height="278" viewBox="0 0 836 1024"><path fill="#8c5956" d="M0 0h836v1024H0z"/><path fill="#dde3e7" fill-opacity=".831" d="M-62 758.356l241.689-127.854L621.848 1086H110.853z"/><path fill="#821b10" fill-opacity=".663" d="M581.89 901.309L-62 444.516 562.317-62l256.21 910.82z"/><path fill="#b9bfd4" fill-opacity=".788" d="M73.871 310.758l81.796-40.614L243.097-62 37.228 45.617z"/><path fill="#04251b" fill-opacity=".486" d="M366.859 430.638l214.074-17.35L179.09 1.947 898 5.765z"/><path fill="#faffff" fill-opacity=".4" d="M220.225 635.072l329.715 66.025-354.53-172.454L30.257 931.521z"/><path fill="#ff1e17" fill-opacity=".62" d="M514.295 443.14l115.158-189.708 119.744 97.605-18.06 332.257z"/><path fill="#f1120d" fill-opacity=".596" d="M-41.655 332.015l386.92-124.588 90.478 327.469 250.915-23.957z"/><path fill="#033b46" fill-opacity=".365" d="M-62 245.338l274.27 219.56L48.195 885.731l-8.203-158.33z"/><path fill="#a4ada8" fill-opacity=".69" d="M229.877 721.008l243.339 121.83 111.457-31.754L481.183 1086z"/><path fill="#524840" fill-opacity=".588" d="M898 652.322l-300.434-10.669-84.236 439.28L849.655 1086z"/><path fill="#5cdaff" fill-opacity=".678" d="M807.21 581.17l-39.613-136.94-24.735 18.537-5.297 109.187z"/><path fill="#a40302" fill-opacity=".741" d="M426.051 813.515L557.05 748.05 193.132 609.09l67.446 118.497z"/><path fill="#616163" fill-opacity=".973" d="M898 35.818l-314.594 162.03 168.25 153.915 85.242 406.03z"/><path fill="#555553" fill-opacity=".761" d="M-42.524 193.558l2.38 13.867 516.616 2.832-43.852-97.845z"/><path fill="#e3eaf3" fill-opacity=".761" d="M66.02 1086l18.877-240.735 90.453-285.671 90.58 248.615z"/><path fill="#ff4441" fill-opacity=".773" d="M171.645 207.76l9.627-3.912 200.48 20.83-238.037 103.597z"/><path fill="#450200" fill-opacity=".647" d="M458.348 861.708l213.075-344.54-20.706-39.491-71.424 80.152z"/><path fill="#ce060a" fill-opacity=".376" d="M187.15 565.213l356.93 66.767-245.293-416.11-107.968 93.88z"/><path fill="#fb3a32" fill-opacity=".749" d="M659.79 648.231l138.262-1.549 18.837-56.641-158.644-35.971z"/><path fill="#020c0c" fill-opacity=".678" d="M440.099 146.132l183.53-6.78L600.55 23.814 426.18 29.03z"/><path fill="#c5b1ad" fill-opacity=".384" d="M319.75 507.328l72.822-23.779-169.656-71.834 5.597 79.761z"/><path fill="#a1daff" fill-opacity=".31" d="M-36.05 90.393L230.136 7.096l9.126 139.882-131.073 48.382z"/><path fill="#a08172" fill-opacity=".827" d="M157.348 544.221l302.138 150.963 59.862 11.157 15.183-57.188z"/><path fill="#251804" fill-opacity=".741" d="M596.553 887.82l-41.602-20.907 238.845-66.422-5.33 63.68z"/><path fill="#f0f0fe" fill-opacity=".149" d="M678.246 333.305L898 215.83l-265.491-88.237-32.65 167.682z"/><path fill="#ffded1" fill-opacity=".631" d="M130.08 295.704l67.1-90.359-111.679 18.989-23.146 67.682z"/><path fill="#2e3035" fill-opacity=".761" d="M802.55 260.101l-14.433 274.395L890.85 687.6 731.524 327.333z"/><path fill="#1f0a00" fill-opacity=".337" d="M296.033 421.327l90.81-135.56 194.339 36.881-42.03 114.829z"/><path fill="#242627" fill-opacity=".863" d="M181.888 410.52l10.551 117.852-114.021-12.518 19.818-149.083z"/><path fill="#ebdade" fill-opacity=".525" d="M-62 716.007L97.884 876.4-62 969.14 99.26 678.71z"/><path fill="#765044" d="M544.033 873.939l11.949-179.707 330.22 57.004-367.721 97.634z"/><path fill="#ff1d16" fill-opacity=".306" d="M316.207 935.067l-175.451 23.884 72.575-61.737 77.408 74.438z"/><path fill="#e9edf0" fill-opacity=".976" d="M80.337 1063.81L38.28 842.282 289.693 1086l30.626-122.94z"/><path fill="#7d4e2b" fill-opacity=".686" d="M539.686 334.784l-59.718 56.165-108.652-198.543 143.188 71.804z"/><path fill="#fd4038" fill-opacity=".58" d="M47.443 373.887L34.43 251.042l103.889-72.644-71.444 84.615z"/><path fill="#0d5877" fill-opacity=".267" d="M26.378 274.306l67.037-78.285-69.7-225.167L-62 57.144z"/><path fill="#a70705" fill-opacity=".667" d="M394.742 610.684l-5.144 54.55 124.26-105.945-188.784-277.363z"/><path fill="#3a3027" fill-opacity=".78" d="M679.559 114.292l197.796 3.03L898-62 674.46 35.721z"/><path fill="#5d494a" fill-opacity=".8" d="M-62 124.837l46.49 529.249 148.873 40.851 14.926-60.005z"/><path fill="#f5fffe" fill-opacity=".255" d="M477.386 860.452L487.613 1086l39.794-128.218 59.11-64.395z"/><path fill="#490101" fill-opacity=".365" d="M34.545 844.81l35.2-13.028L89.18 774.51l-50.906 10.317z"/><path fill="#ccfd9c" fill-opacity=".282" d="M527.512 499.314l-24.214 56.563 77.976 5.62-3.589-70.703z"/><path fill="#c21e1b" fill-opacity=".941" d="M198.974 602.91l43.67-19.905-19.412-22.411 59.979 184.14z"/><path fill="#ff473c" fill-opacity=".682" d="M571.595 253.664l117.088 40.227 60.208 62.802L767.85 460.64z"/><path fill="#d6deff" fill-opacity=".471" d="M98.046 27.102L41.62 124.435l93.954 15.006 78.77-62.264z"/><path fill="#73585c" fill-opacity=".902" d="M72.135 1086L-62 972.704l29.586-46.77 85.192 6.995z"/><path fill="#96a5b0" fill-opacity=".553" d="M898 308.883l-85.637-80.933L898 577.128l-110.214-138.2z"/><path fill="#233136" fill-opacity=".38" d="M220.184 2.078l48.613 210.33 91.767 13.813 90.654-137.15z"/><path fill="#a70b09" fill-opacity=".706" d="M312.28 677.949l87.024 126.607-68.34-299.658 288.08-132.252z"/><path fill="#690a07" fill-opacity=".871" d="M537.886 816.545l.52-73.59-20.918-53.545-89.474 130.7z"/><path fill="#f2f5f8" fill-opacity=".561" d="M-53.58 841.202l350.79 12.439-49.068 191.819-27.519-148.604z"/><path fill="#cac8d2" fill-opacity=".522" d="M196.91 625.815l122.363 193.306-203.912-70.377L-.562 778.64z"/><path fill="#5f0200" fill-opacity=".655" d="M655.9 575.942L507.66 636.38l-7.455 36.428-49.027-80.544z"/><path fill="#dce5f0" fill-opacity=".718" d="M109.853 850.138l78.367-321.097 5.413-67.895.435 370.956z"/><path fill="#8e0d0a" fill-opacity=".796" d="M506.661 561.575L307.1 507.555l-29.764 178.802-.407-153.939z"/><path fill="#869186" fill-opacity=".42" d="M539.015 821.284l-170.968 4.274L501.094 1086l-168.078-76.027z"/><path fill="#d5fde7" fill-opacity=".514" d="M386.266 678.968l-20.11-23.384-.058-51.865 36.091 66.839z"/><path fill="#d0ffec" fill-opacity=".275" d="M225.699 474.492l35.772 29.359-42.96-92.463 63.154 7.506z"/><path fill="#e5ffff" fill-opacity=".243" d="M205.433 586.063l4.776-58.437 131.474 128.83-51.485-2.807z"/><path fill="#854748" fill-opacity=".671" d="M647.445 83.179L477.8-62 313.071 34.153l367.198-54.96z"/><path fill="#a11" fill-opacity=".784" d="M479.543 441.364L247.367 394.73l51.684 101.017-94.337-40.704z"/><path fill="#d6ac8c" fill-opacity=".408" d="M391.072 245.22l60.02-99.642-2.265-15.878-24.086-2.89z"/><path fill="#ba100c" fill-opacity=".706" d="M234.806 556.433l55.62 23.44-140.03-255.514 92.737 282.174z"/><path fill="#5d3310" fill-opacity=".592" d="M420.275 157.58l149.639 199.047 59.79-144.091-70.019-72.273z"/><path fill="#9d735e" fill-opacity=".937" d="M603.796 779.23l83.655 4.244-87.048 36.16-119.267 126.294z"/><path fill="#b10b08" fill-opacity=".565" d="M753.104 549.008l-115.94-106.431-41.709-183.106-20.812 271.257z"/><path fill="#ff0300" fill-opacity=".294" d="M169.38 959.845l61.8-58.851-69.006-15.456 17.823 27.249z"/><path fill="#8a0d0b" fill-opacity=".757" d="M414.808 811.2l-9.425-174.528 46.725 68.376L293.9 741.03z"/><path fill="#000100" fill-opacity=".329" d="M484.58 467.532l-98.653-208.189 31.733 183.143 171.726-128.181z"/><path fill="#68474b" fill-opacity=".878" d="M700.414 736.429L549.912 713.54l73.822-118.398 13.148-22.57z"/><path fill="#f7281d" fill-opacity=".498" d="M547.943 387.854l-21.485 144.041-136.535.88 221.735-89.448z"/><path fill="#604144" fill-opacity=".831" d="M891.008 471.65l2.374-294.54-55.064 692.398-45.781-337.718z"/><path fill="#f12520" fill-opacity=".408" d="M412.273 241.398L252.156 344.862 58.37 308.487l312.86-90.127z"/><path fill="#f6241e" fill-opacity=".565" d="M632.262 433.835l-39.684-172.652 178.883 162.984-51.142 65.312z"/><path fill="#673d24" fill-opacity=".776" d="M779.036 643.764l-48.732-2.962-74.372 221.945 161.445-199.503z"/><path fill="#f4c030" fill-opacity=".353" d="M564.8 376.444l16.44 13.99 5.409-39.173 32.479-130.166z"/><path fill="#67494d" fill-opacity=".976" d="M179.436 570.262L102.405 682.23-62 690.249l238.32-165.454z"/><path fill="#787d90" fill-opacity=".58" d="M36.412-62L48.787 49.665l155.418-73.162 38.74 91.442z"/><path fill="#ddffe8" fill-opacity=".384" d="M463.81 622.72l-1.722 72.97 15.452-8.03 18.086-30.146z"/><path fill="#e4f2e9" fill-opacity=".639" d="M309.667 505.033l-51.552-10.158-25.842-13.049L243 478.635z"/><path fill="#97e5ff" fill-opacity=".376" d="M794.946 574.631l-59.512-81.103 3.335-21.167 31.556-46.51z"/><path fill="#162a30" fill-opacity=".333" d="M779.108 475.21L733.76 260.68l78.034 43.196L796.65 574.51z"/><path fill="#b4b7bc" fill-opacity=".694" d="M238.475 810.397l-25.682-109.012 110.938 56.641 13.776 15.719z"/><path fill="#232628" fill-opacity=".478" d="M-62-62h233.078L29.095 29.155-62 265.622z"/><path fill="#740c00" fill-opacity=".604" d="M187.348 381.62L38.355 369.836-9.27 358.688l4.817-28.581z"/><path fill="#d37e4e" fill-opacity=".427" d="M529.822 302.144L485.2 254.123l-5.477 52.248 60.966 5.052z"/><path fill="#b9ffe4" fill-opacity=".275" d="M320.366 662.473l-29.522-18.646 9.937-71.769 57.371 36.84z"/><path fill="#532e13" fill-opacity=".843" d="M557.298 817.148l174.571 17.373-190.945 34.105 279.518-72.51z"/><path fill="#8f9f9f" fill-opacity=".184" d="M460.55-7.563l-65.47 88.549 16.085 210.104L357.21-2.508z"/><path fill="#a80c09" fill-opacity=".863" d="M245.007 508.72l-29.173 139.526 29.368-85.434 280.371 69.88z"/><path fill="#dfdbdc" fill-opacity=".976" d="M197.435 929.58l92.76-55.632 32.923 70.393-129.417-9.888z"/><path fill="#cdcec8" fill-opacity=".722" d="M504.489 868.14l-6.268 72.917-88.318-5.21 127.793 105.078z"/><path fill="#271809" fill-opacity=".627" d="M597.149 202.259l-47.739 74.807-129.656-78.769 29.558 57.418z"/><path fill="#ecf1f6" fill-opacity=".996" d="M235.876 1046.314l-133.882-24.926L196.71 898.9l-83.332-.138z"/><path fill="#3a0401" fill-opacity=".51" d="M631.468 598.197L521.07 626.41l26.243-36.88 109.557-95.212z"/><path fill="#b1c3ad" fill-opacity=".604" d="M386.73 624.517l38.588-11.74-54.753-5.452 10.269 77.387z"/><path fill="#9d1100" fill-opacity=".302" d="M264.234 930.074l8.738 28.44 20.672 4.297 31.945.497z"/><path fill="#f9504a" fill-opacity=".878" d="M306.12 225.855l-130.318-25.158-3.84 50.302 55.955 12.22z"/><path fill="#ff3830" fill-opacity=".412" d="M61.578 208.99l4.34 167.96-37.554-104.17 108.773-70.063z"/><path fill="#235553" fill-opacity=".306" d="M72.881 532.254L-62 461.21l30.782-132.835 159.81 72.767z"/><path fill="#878279" fill-opacity=".408" d="M-24.398 231.598l325.966-90.899-207.358 9.707L26.362 315.65z"/><path fill="#74efa5" fill-opacity=".231" d="M483.725 707.836l91.61-97.321-77.514 34.326 16.81 66.232z"/><path fill="#844b41" fill-opacity=".71" d="M314.08 622.43l-59.856-9.586 74.24 19.605.257-64.435z"/><path fill="#2e383c" fill-opacity=".416" d="M-62 229.884l178.386-28.537 268.995 17.72-224.654-41.973z"/><path fill="#6b4c52" fill-opacity=".792" d="M552.352 1086L898 889.874 674.089 866.41l-153.968 78.196z"/><path fill="#d6fff0" fill-opacity=".29" d="M263.596 460.609l-66.645-42.588 43.123 7.166 18.2-16.19z"/><path fill="#b3d0d5" fill-opacity=".576" d="M770.157 422.776l18.607 159.431-48.803-2.852 32.111-16.18z"/><path fill="#5e5149" fill-opacity=".561" d="M878.361 118.724l-215.465 71.892-37.201-81.359 238.744-12.574z"/><path fill="#121310" fill-opacity=".549" d="M386.62 92.677l229.858-46.93 13.298 93.784-136.414 26.17z"/><path fill="#c41311" fill-opacity=".694" d="M239.896 696.043l89.82 61.495 7.423-85.893-138.442-46.174z"/><path fill="#fa2b0b" fill-opacity=".173" d="M232.749 931.193l-45.755 77.86 42.147 2.658 10.049-72.136z"/><path fill="#955836" fill-opacity=".329" d="M370.541 352.976l9.126-175.56 257.887-2.134-189.614-33.046z"/><path fill="#dee3ed" fill-opacity=".694" d="M231.197 552.02l-21.426-10.21-18.778 169.614-123.21 127.438z"/><path fill="#721713" fill-opacity=".8" d="M438.844 812.793l110.522-257.711-35.52 51.82 15.43-41.592z"/><path fill="#e9ebf1" fill-opacity=".769" d="M96.116 951.703l48.06-192.514-159.753 168.128-31.637-275.105z"/><path fill="#757d82" fill-opacity=".588" d="M839.961 153.265l-4.543 135.595-223.886-25.618 52.726-78.36z"/><path fill="#b00e0b" fill-opacity=".804" d="M190.634 435.954l-61.681-88.858 594.921 179.527-460.669-123.275z"/><path fill="#b51410" fill-opacity=".929" d="M198.762 355.942l20.33 81.166 33.88 15.117-55.665 75.606z"/><path fill="#01516f" fill-opacity=".494" d="M730.741 548.061l29.876-11.967 26.804 30.642-35.495-13.208z"/><path fill="#d22420" fill-opacity=".549" d="M207.483 430.358l2.134 88.583-7.86 113.14-10.547-115.818z"/></svg>