<svg xmlns="http://www.w3.org/2000/svg" width="228" height="278" viewBox="0 0 836 1024"><path fill="#718390" d="M0 0h836v1024H0z"/><g fill-opacity=".502"><path fill="#0085cd" d="M814 866L186 182l68 904z"/><path fill="#f47659" d="M834-62l36 504L-62 18z"/><path fill="#20b9f6" d="M786 666L582 234 150 502z"/><path fill="#9f2d29" d="M-62 202l8 820 320-764z"/><path fill="#ffffdb" d="M270 886l-332 184 176-316z"/><path fill="#003774" d="M630 378l-336 640 352-136z"/><path fill="#6d0e0c" d="M898 666V226l-304 12z"/><path fill="#e3ffb6" d="M678 874l-288 212 508-84z"/><path fill="#dfe4d8" d="M502 466L242 614l284-4z"/><path fill="#ffd8cf" d="M890 726l-272 4 212-176z"/><path fill="#052437" d="M358 662L102 806l12-208z"/><path fill="#77541a" d="M430 354l-208-24L502 30z"/><path fill="#72f3ff" d="M686 350l60 232-284-320z"/><path fill="#c8a59a" d="M-62 218l612 8L174-62z"/><path fill="#ffa6a8" d="M394-18L898 2 798 202z"/><path fill="#007ebf" d="M182 562l136 488 280-316z"/><path fill="#471900" d="M718 890l180 12V666z"/><path fill="#2bd1f9" d="M758 706l-68 324-60-220z"/><path fill="#566a2f" d="M434 1062l-384-48 16-128z"/><path fill="#003f72" d="M574 966l-20-536 144 96z"/><path fill="#fff" d="M186 794l96 120-228-32z"/><path fill="#99d0ea" d="M78 606l152-264 132-16z"/><path fill="#002810" d="M686 918l32 168-76-76z"/><path fill="#f74252" d="M-62 722l228-188L34 426z"/><path fill="#e5e4ff" d="M898 894l-104 192-92-156z"/><path fill="#fd2c17" d="M702 42l-48 88-172-60z"/><path fill="#13243d" d="M174 474V374l-236-40z"/><path fill="#c92b2c" d="M-62-58l232 192 52-68z"/><path fill="#cceae6" d="M290 530l256 72-248 24z"/><path fill="#354e39" d="M490 38L302-30l208 196z"/><path fill="#faf43e" d="M678 918l-24 128-200-16z"/><path fill="#1ca8e7" d="M338 314L150 550l332-16z"/><path fill="#e2dedc" d="M202 202l56-124 172-40z"/><path fill="#32341d" d="M454 354l-68 36-108-264z"/><path fill="#00204d" d="M298 758l-68-8 28-232z"/><path fill="#907d66" d="M862 238L722 378 246 110z"/><path fill="#17d0ff" d="M246 814l-56-24 48-172z"/><path fill="#850000" d="M894 510l-184-64 88-132z"/><path d="M158 978l44 12 40-92z"/><path fill="#27b6f8" d="M502 266l236 272-320-116z"/></g></svg>