<svg xmlns="http://www.w3.org/2000/svg" width="228" height="278" viewBox="0 0 836 1024"><path fill="#364d42" d="M0 0h836v1024H0z"/><g fill-opacity=".502"><path fill="#bd9182" d="M770 254L198 70l76 332z"/><path fill="#ffd3b7" d="M534 646l-320 80 164-184z"/><path fill="#000b00" d="M686 486L326 774l572 124z"/><path fill="#ea9f70" d="M66 790l164-4-92 300z"/><path fill="#00926a" d="M246 646L70 438l720-172z"/><path fill="#00824b" d="M766 1086L606 674 170 966z"/><path fill="#c6c9ae" d="M606 274l200 332-188-128z"/><path fill="#0c0012" d="M618-62l280 352-136 244z"/><path fill="#23000d" d="M158 42L-62 286l332 80z"/><path fill="#001e0c" d="M14 750l124-292 132 272z"/><path fill="#a2b4cf" d="M646 402l68-184-124-52z"/><path fill="#280005" d="M898 642l-300 16 208 428z"/><path fill="#ffb99d" d="M354 62l-148 68 164 24z"/><path fill="#00754a" d="M714 918l-400 168-112-400z"/><path fill="#2d101a" d="M858-62l-32 200-656-88z"/><path fill="#00593f" d="M166 450l308-132 276 100z"/><path fill="#9fdadc" d="M278 326l-88 104-112 28z"/><path fill="#e7a287" d="M466 546L322 718l-44-124z"/><path fill="#2e65b1" d="M-62 22l284-84-88 172z"/><path fill="#002910" d="M722 498l-236 36 96 296z"/><path fill="#604459" d="M638 174L310-26l248 328z"/><path d="M270 322l112-44-68 84z"/><path fill="#8a4c62" d="M-62 758l184-28L6 1086z"/><path fill="#c9f2ff" d="M450 322l-4-44 156 36z"/><path fill="#e4ab85" d="M214 190l28 76 212-96z"/><path fill="#007c55" d="M538 570L70 482l552-144z"/><path fill="#ffbba3" d="M614 518l20-100 84 40z"/><path fill="#fff" d="M262 538l-56 24 28-48z"/><path fill="#92052b" d="M786 866l-96-12 60 232z"/><path fill="#ffffe6" d="M402 26l-96-12 52-8z"/><path fill="#ce7941" d="M710 550l96 12 12 104z"/><path fill="#0c0308" d="M430 46L226 2l-72 104z"/><path fill="#005434" d="M510 1086L218 738l356-92z"/><path fill="#0ac79f" d="M594 938l92-64 32 120z"/><path fill="#cb9d8b" d="M442 574l76 80-244 64z"/><path fill="#0f1e24" d="M590 294H486l92-104z"/><path fill="#170b01" d="M410 186l-52-56 52-192z"/><path fill="#00040f" d="M890 154L670 366l64 116z"/><path fill="#032214" d="M274 634L-6 482l152 304z"/><path fill="#57576f" d="M210 634l52 236-84 64z"/></g></svg>