<svg xmlns="http://www.w3.org/2000/svg" width="228" height="278" viewBox="0 0 836 1024"><path fill="#8d4848" d="M0 0h836v1024H0z"/><path fill="#cdf691" fill-opacity=".439" d="M633.152 499.384L700.548 1086 898 991.512 761.886 491.886z"/><path fill="#324e67" fill-opacity=".627" d="M-13.043-51.85L892.859-62l-50.65 354.672-888.248-10.03z"/><path fill="#c30215" fill-opacity=".561" d="M214.984 619.165L686.14 898.938l2.015 181.806L171.342 1086z"/><path fill="#850d1a" fill-opacity=".702" d="M427.264 736.514l165.582-39.365 95.783-316.406-711.368 103.462z"/><path fill="#a37061" fill-opacity=".996" d="M308.622 433.771l199.188-6.805 10.98-347.22-197.093 45.719z"/><path fill="#ff505e" fill-opacity=".651" d="M-62 294.596l440.34 11.63-276.668 148.69L-5.056 985.311z"/><path fill="#a9f06d" fill-opacity=".51" d="M199.508 703.49l-32.843 340.316L-9.35 1086l97.396-347.752z"/><path fill="#d0d5ec" fill-opacity=".49" d="M344.964 274.958L141.3 360.513l179.702-9.501L408.553 1086z"/><path fill="#d19b7c" fill-opacity=".682" d="M892.61 626.285L425.322 848.156l-48.572-14.513 21.077-82.281z"/><path fill="#a6b1f7" fill-opacity=".471" d="M106.28 28.892L-62 64.817l96.495 119.46 90.623-42.838z"/><path fill="#efb1cd" fill-opacity=".549" d="M836.147 708.448L621.348 583.821l15.575-52.095 88.664-61.57z"/><path fill="#b31b2b" fill-opacity=".937" d="M336.546 409.363l16.15 141.971-238.692 176.043L285.73 357.13z"/><path fill="#620001" fill-opacity=".741" d="M220.015 366.633l6.112 209.283-161.314-17.862 89.617-162.526z"/><path fill="#001d43" fill-opacity=".42" d="M-20.95 270.254L282.403-62l21.55 2.466-12.776 327.817z"/><path fill="#721c22" fill-opacity=".98" d="M521.982 324.721l157.952 349.804-59.52 20.18L363.2 655.854z"/><path fill="#b63c48" fill-opacity=".945" d="M898 336.25l-48.525 483.056-46.605-224.248-226.865-277.085z"/><path fill="#d8829d" fill-opacity=".675" d="M287.367 954.097l-26.62 54.308 5.51-262.724 1.136-311.096z"/><path fill="#c8bf91" fill-opacity=".592" d="M89.163 567.273L1.437 925.422-62 869.907 68.456 540.605z"/><path fill="#f1d6fc" fill-opacity=".388" d="M630.387 365.515l-131.97-43.038 1.531-49.683 180.566 61.724z"/><path fill="#f60220" fill-opacity=".475" d="M-61.049 311.133l260.57-11.936L49.02 546.054-37.658 872.4z"/><path fill="#0c1a29" fill-opacity=".506" d="M763.369-2.084l-225.602.59 94.213 102.593L898 78.902z"/><path fill="#780b05" fill-opacity=".4" d="M898 693.73l-298.204 58.137L202.823 1086l505.346-299.069z"/><path fill="#583117" fill-opacity=".643" d="M470.412 370.777l-3.368-119.392-55.5 22.539-9.981 136.252z"/><path fill="#ce6d85" fill-opacity=".867" d="M648.83 1021.448l-52.866-203.505 39.806 45.189 28.346 205.193z"/><path fill="#a27078" fill-opacity=".914" d="M465.34 549.73l72.697 535.497-38.165-406.833-40.82-329.965z"/><path fill="#c8afca" fill-opacity=".647" d="M228.476 518.803l-1.097-144.947 11.923 45.25 9.695 163.02z"/><path fill="#9b0a18" fill-opacity=".957" d="M618.872 534.205l-95.267-200.04 119.756 39.396 62.91 118.183z"/><path fill="#a18493" fill-opacity=".565" d="M549.853 481.042l-82.136 42.632 109.297-7.119-8.265-165.587z"/><path fill="#00133f" fill-opacity=".361" d="M638.519 311.992L514.894 262.11l13.01-90.898 321.52 18.67z"/><path fill="#f64e51" fill-opacity=".475" d="M140.651 599.336l-38.308 129.178 116.424 32.865 6.659-192.838z"/><path fill="#9d000e" fill-opacity=".839" d="M387.837 1086l-112.61-30.728 24.05-463.598 87.364 312.51z"/><path fill="#8d0007" fill-opacity=".698" d="M389.904 812.828L620.563 1086l8.333-223.44L424.107 1086z"/><path fill="#8584a1" fill-opacity=".529" d="M577.559 164.492l44.964-36.686-58.534-63.311-165.108-83.42z"/><path fill="#442300" fill-opacity=".459" d="M220.621 49.563l255.424-13.511 26.513 55.46-90.254 16.26z"/><path fill="#cc0013" fill-opacity=".722" d="M234.238 1078.123l39.776-243.5-90.088 5.297-9.463 92.651z"/><path fill="#11ef00" fill-opacity=".149" d="M862.203 1086L898 692.82l-234.432 87.23L712.776 1086z"/><path fill="#ce99a7" fill-opacity=".933" d="M353.105 449.7l11.833-114.414-196.205 48.897 108.829-90.652z"/><path fill="#a80415" fill-opacity=".769" d="M236.695 389.347l30.455 254.125 39.296-297.383-112.826 35.784z"/><path fill="#fff6ff" fill-opacity=".267" d="M732.19 593.958l-69.62-227.382 49.814 38.72 47.236 160.291z"/><path fill="#bfcff4" fill-opacity=".392" d="M389.167 1019.458l-3.95 66.542 22.39-126.196-20.1-147.715z"/><path fill="#bba7bc" fill-opacity=".612" d="M503.064 901.039l35.312 27.01L520.647 1086 516.1 826.374z"/><path fill="#490000" fill-opacity=".62" d="M646.382 686.86L490.92 620.912l12.673-35.372L609.11 463.745z"/><path fill="#3d1c05" fill-opacity=".604" d="M437.68 159.384l-40.881-12.01-47.836 42.935 72.342-3.48z"/><path fill="#6cd0b5" fill-opacity=".325" d="M415.164 602.49l-113.072 15.277 139.002 74.435-134.473-7.907z"/><path fill="#c7eae8" fill-opacity=".392" d="M200.708 534.06l49.48 10.313 51.173-41.466 23.757 43.859z"/><path fill="#810005" fill-opacity=".749" d="M369.202 449.778l66.155-13.618 52.106 226.142-108.346-65.139z"/><path fill="#d40d1d" fill-opacity=".682" d="M653.697 903.31l-66.315-111.925 73.845 11.52L694.837 1086z"/><path fill="#98a857" fill-opacity=".973" d="M221.378 1068.41l-39.945-95.827-28.947-227.406L28.59 1086z"/><path fill="#e8e3cb" fill-opacity=".494" d="M96.475 492.94l25.368-76.59 2.227-18.285 11.413 41.225z"/><path fill="#b590a2" fill-opacity=".996" d="M469.452 382.208l-1.297 168.3 11.186-149.582 49.815-126.162z"/><path fill="#dce2ff" fill-opacity=".408" d="M289.933 279.5l54.66 147.066 98.73 5.687-94.201-43.906z"/><path fill="#3c0a00" fill-opacity=".561" d="M69.92 615.576l134.169-85.218-66.108-102.702-20.549 236.8z"/><path fill="#cd866a" fill-opacity=".529" d="M762.054 692.074l-13.717-130.71-59.194 26.979-83.329 212.14z"/><path fill="#4c6ed1" fill-opacity=".145" d="M776.912 71.694L898 434.999 661.657 213.705l-181.91-86.553z"/><path fill="#a0000c" fill-opacity=".753" d="M656.214 1086L528.146 941.5l-2.519-105.977 59.541-70.309z"/><path fill="#d2d4ff" fill-opacity=".337" d="M626.401 599.367l122.247-32.68 1.626-60.74-121.202 13.541z"/><path fill="#e89b80" fill-opacity=".439" d="M522.243 166.476l-225.74 60.486 4.46-58.753 192.579 81.66z"/><path fill="#2d354f" fill-opacity=".82" d="M145.799-62l200.339 343.537 18.786-2.12-219.061-3.42z"/><path fill="#9a9f60" fill-opacity=".651" d="M218.966 769.055L125.93 905.177-62 1008.708l277.037-310.082z"/><path fill="#3d0301" fill-opacity=".38" d="M491.38 698.119l-122.463-64.232 12.526 127.123 11.481 2.138z"/><path fill="#8f8c87" fill-opacity=".659" d="M304.177 601.387L393.019 804.1l-19.75-122.495-51.317 3.282z"/><path fill="#cd916f" fill-opacity=".663" d="M337.61 103.146l13.055 291.764 9.927-252.439 175.475-30.199z"/><path fill="#cc0317" fill-opacity=".804" d="M185.015 926.388l60.98-334.479 22.146 141.562-14.751 135.443z"/><path fill="#fee6ff" fill-opacity=".396" d="M279.14 890.58l-15.303-92.306 6.923-164.936 6.778 144.169z"/><path fill="#9d0010" fill-opacity=".749" d="M337.941 409.946l18.184 211.764-25.15-82.321-109.683-166.302z"/><path fill="#a7222d" fill-opacity=".42" d="M675.098 508.557l214.187-242.561L856.5 741.53 738.934 506.828z"/><path fill="#929ada" fill-opacity=".251" d="M16.038 89.336l62 109.726 81.33-64.361-36.672-99.24z"/><path fill="#c45063" fill-opacity=".839" d="M248.858 354.974l83.999-35.744-187.124 51.291-124.306 15.56z"/><path fill="#cc917c" fill-opacity=".729" d="M578.56 752.548l267.077-70.165-237.556 27.85-21.024-67.809z"/><path fill="#88fce1" fill-opacity=".259" d="M378.766 617.1l47.938 47.221-37.213 44.632 22.978-100.568z"/><path fill="#811d4b" fill-opacity=".408" d="M333.5 285.013L51.4 269.417-62 311.407l257.34 13.173z"/><path fill="#7f6364" d="M498.901 656.775l4.138 40.504-41.594-13.297-13.587-23.566z"/><path fill="#640003" fill-opacity=".537" d="M513.09 711.587l78.607 3.712-38.66-155.242-79.896-54.175z"/><path fill="#885854" fill-opacity=".616" d="M508.092 545.225l-29.105-76.645 58.924-16.309 40.277 64.604z"/><path fill="#f0e9f4" fill-opacity=".678" d="M306.476 318.655l6.33 42.668 30.727-78.522-23.835 5.22z"/><path fill="#c6cedf" fill-opacity=".376" d="M56.404 521.237l-9.99 119.734 10.571-61.845 54.548 8.25z"/><path fill="#8a020b" fill-opacity=".886" d="M495.578 843.14l-57.776-11.174-34.325 92.481L522.932 1086z"/><path fill="#be96aa" fill-opacity=".749" d="M405.955 993.187L400.807 1086l-17.098-207.848-4.585-157.644z"/><path fill="#810009" fill-opacity=".776" d="M552.36 469.663l-69.96-50.339 37.985-99.572 41.301 43.323z"/><path fill="#ffcb82" fill-opacity=".212" d="M356.696 10.756l103.683-26.89 57.936 236.08-13.956-164.04z"/><path fill="#7d5212" fill-opacity=".357" d="M124.177 643.782l-95.46 263.68 3.032-202.577 16.246-52.248z"/><path fill="#f7dffb" fill-opacity=".271" d="M278.492 611l-11.58 5.624L271.149 1086l8.233-415.375z"/><path fill="#401e07" fill-opacity=".471" d="M490.035 177.827l-2.337-45.067-114.278 53.757 9.14-39.767z"/><path fill="#d60218" fill-opacity=".565" d="M266.728 367.01l-17.341 18.458-147.958 1.876 60.478 47.013z"/><path fill="#ffdefd" fill-opacity=".322" d="M606.181 837.41l-4.925-23.963 43.196 82.888-7.67 26.703z"/><path fill="#f8dafe" fill-opacity=".392" d="M561.412 483.97l5.939-137.06 3.03 211.542-.096-25.371z"/><path fill="#523f2d" fill-opacity=".451" d="M225.707-7.255l250.355 34.67-147.364 44.866 11.565 152.48z"/><path fill="#68030b" fill-opacity=".976" d="M418.945 719.362l-8.266-143.237 29.796-48.05 24.56 199.102z"/><path fill="#a0343a" d="M661.017 664.404l-14.402-24.802-10.543-44.114 60.24 63.24z"/><path fill="#d4947a" fill-opacity=".722" d="M402.428 767.202l211.613-74.224-77.222 104.207-67.612-71.502z"/><path fill="#dbeedc" fill-opacity=".286" d="M360.476 723.187l-16.01-122.223 36.05 61.82.71-15.682z"/><path fill="#90020f" fill-opacity=".804" d="M363.67 515.013l96.913 68.079 4.844-170.881-79.971 41.202z"/><path fill="#be0013" fill-opacity=".514" d="M285.557 777.433l-9.479-287.325 29.63 307.718-50.725 71.493z"/><path fill="#e9e2ff" fill-opacity=".329" d="M178.396 303.882l4.268 64.252 162.857-33.116-187.636 52.595z"/><path fill="#8d837c" fill-opacity=".914" d="M354.975 697.1l49.44 35.331-74.81-9.16 37.494-12.616z"/><path fill="#490105" fill-opacity=".675" d="M67.919 546.477l53.96-91.561 103.204 94.906-68.57 33.735z"/><path fill="#8e9258" fill-opacity=".733" d="M898 822.705l-244.435-43.194 14.869 85.79 180.138-171.638z"/><path fill="#e4e3ff" fill-opacity=".471" d="M629.135 937.537l10.92 16.59 38.747 111.37-46.898-101.128z"/><path fill="#010000" fill-opacity=".216" d="M560.028 938.916l20.41-23.877-261.769 28.828 120.814 16.8z"/><path fill="#580001" fill-opacity=".357" d="M378.968 856.107l-56.655-117.042 20.74-48.389-29.777-242.617z"/><path fill="#825f94" fill-opacity=".42" d="M895.382 331.488l-172.69-13.095-12.192-24.818 113.055-58.202z"/><path fill="#5f4222" fill-opacity=".918" d="M725.012 771.32l-170.931 4.614 84.389 8.806 75.83-4.75z"/><path fill="#cdccff" fill-opacity=".251" d="M395.468 425.79l80.55-50.959-13.856 140.815 27.193-108.707z"/><path fill="#c10110" fill-opacity=".427" d="M727.103 442.38l-60.99-12.874 9.899-122.083-105.61 192.122z"/><path fill="#8f000b" fill-opacity=".741" d="M289.01 605.66l-83.956 34.398 132.232-102.153 11.744 73.181z"/><path fill="#a9794f" fill-opacity=".412" d="M465.073 268.659l-135.901 33.616 2.015 59.11 47.503 49.83z"/><path fill="#bb0b1e" fill-opacity=".831" d="M627.891 901.25L690.254 1086l-30.118-188.063-74.455 76.946z"/><path fill="#af6f56" d="M461.76 842.221l-66.458-14.844-7.92-51.81 134.33 19.332z"/><path fill="#bb7263" fill-opacity=".71" d="M17.42 982.027L-62 870.968l117.027 78.496L40.32 1086z"/><path fill="#090016" fill-opacity=".106" d="M622.558-62l12.077 371.584L723.31 410.08l38.394-135.93z"/><path fill="#611320" fill-opacity=".376" d="M492.738 304.984l31.798 4.635 110.385 42.05-56.833-15.31z"/><path fill="#4b301a" fill-opacity=".49" d="M399.907 305.935l45.616 92.453-41.69 12.527 81.21-99.837z"/><path fill="#d72433" fill-opacity=".733" d="M136.316 610.093l-3.591 55.277 99.15 34.088-16.479-139.966z"/><path fill="#f3f3fe" fill-opacity=".435" d="M694.544 586.114l4.43-20.075 69.824 13.702-29.461-81.143z"/><path fill="#dcd7f1" fill-opacity=".286" d="M528.317 859.572L494.73 792.02l41.354 179.563-40.743-93.993z"/><path fill="#f8f3fd" fill-opacity=".322" d="M516.226 277.345l-57.84-39.291 35.114-2.079 7.611 118.107z"/><path fill="#dbcef0" fill-opacity=".427" d="M345.397 364.112l6.58 203.093 12.06 46.836 1.62-86.094z"/><path fill="#2c313f" fill-opacity=".851" d="M456.998-62L308.191 40.639l-66.063 133.61L188.644-6.506z"/><path fill="#846553" fill-opacity=".769" d="M387.348 94.172l-94.289 34.382-2.812-65.874 20.334 37.636z"/><path fill="#6b626c" fill-opacity=".353" d="M725.522 536.922l-203.338 113.75 8.276 23.725 155.075-148.4z"/></svg>