<svg xmlns="http://www.w3.org/2000/svg" width="228" height="278" viewBox="0 0 836 1024"><path fill="#594b49" d="M0 0h836v1024H0z"/><g fill-opacity=".502"><path fill="#fff" d="M338 962L18 1086l-80-452z"/><path fill="#000116" d="M210 210L94 746l804-148z"/><path fill="#ffba4e" d="M54 1026l96-764-212-56z"/><path fill="#fff" d="M214 1086l108-224-384 80z"/><path fill="#000829" d="M710 1050l-84-688-412 724z"/><path fill="#fff" d="M766 398L474 290l224-16z"/><path fill="#ffab90" d="M898 926l-200 120-8-448z"/><path fill="#d6b292" d="M578-62L326 158l92 244z"/><path fill="#00010c" d="M898 562L550 70l264-44z"/><path fill="#050407" d="M-62 54l296 268 40-384z"/><path fill="#883a19" d="M-62 942l324-296 16 188z"/><path fill="#909e9b" d="M338 630v144l284-52z"/><path fill="#fff" d="M298 854l-56 232-304-104zm600-108L790 906l60 180zm-184 268l76 68-96-216z"/><path fill="#000a1a" d="M650 906l-540-56 308-96z"/><path fill="#c44624" d="M746 990l152-344-208-16z"/><path fill="#ff8175" d="M194 758l108 60-56-168z"/><path fill="#0c1419" d="M682 170L394 62l152 196z"/><path fill="#b5d0ec" d="M310-62l244 168 20-164z"/><path fill="#efdf33" d="M22 538l128-240-212-72z"/><path fill="#ecf0ff" d="M550 302l156-8 48 128z"/><path fill="#150920" d="M790 466L626 822 482 318z"/><path fill="#ff3341" d="M130 642L-62 922l28-300z"/><path d="M722 906l76 180-4-124z"/><path fill="#55445e" d="M98 634l148-364-280 356z"/><path fill="#97a8c5" d="M490 482l-52 80 96 12z"/><path fill="#a06b3c" d="M550 270L222 62l116 360z"/><path fill="#0c0400" d="M198 74l168 52 120-64z"/><path fill="#ffdeba" d="M430 170l-144-8 152-60z"/><path fill="#feffff" d="M262 994l-324 52 212-192z"/><path fill="#000711" d="M494 694l84-84-268 104z"/><path fill="#091b31" d="M618 698L274 974l456 80z"/><path fill="#ff6f67" d="M714 898l96-260-116 24z"/><path fill="#dbb29a" d="M122 722L-62 866l172 8z"/><path fill="#0d0100" d="M246 622l-96-140v396z"/><path fill="#c7cac6" d="M466 706l116-36-100 80z"/><path fill="#f3ffff" d="M-62 942l356 8 4-96z"/><path fill="#0b0d16" d="M554 746l-232 268-24-232z"/><path fill="#0a141f" d="M570 134l24-196 304 460z"/></g></svg>