<svg xmlns="http://www.w3.org/2000/svg" width="228" height="278" viewBox="0 0 836 1024"><path fill="#8b5634" d="M0 0h836v1024H0z"/><g fill-opacity=".502"><path fill="#ff6800" d="M198 870l24-672 676 368z"/><path fill="#d2f7fa" d="M710 674l180 396-540 16z"/><path fill="#000008" d="M334 1086L42 898l620-184z"/><path fill="#000010" d="M-62 178L446-62 2 558z"/><path fill="#00000f" d="M838-62L482-6l416 516z"/><path fill="#ffbe3b" d="M738 266l96 352-452-460z"/><path fill="#fff" d="M162 938l-12 148-212-100z"/><path fill="#000a21" d="M162 958l48-444-272 328z"/><path fill="#ffbe5b" d="M178 310l400-164-640 528z"/><path fill="#ff5e01" d="M-62 646l316-292 524 20z"/><path fill="#2c210e" d="M590 1050L478 898l252 116z"/><path fill="#4e5146" d="M398 26L-62-26l552 424z"/><path fill="#000206" d="M290 246L14 134-6 434z"/><path fill="#f8d4b2" d="M458 98l104-32 16 184z"/><path fill="#000a13" d="M534 786l-380 64 224 236z"/><path fill="#001a29" d="M898 366L506 158l360-88z"/><path fill="#ff580c" d="M242 850l32-532 532 336z"/><path fill="#5da0ff" d="M658 474l-116 48 36-108z"/><path fill="#00030e" d="M410 838l248-180-32 144z"/><path fill="#ffbd25" d="M530 446l44-240 196 172z"/><path fill="#f1ffff" d="M150 1086L-62 958l220 8z"/><path fill="#f9ffff" d="M386 1086l296-148-236 32z"/><path fill="#516b6c" d="M686 870l212-452-40 564z"/><path fill="#000939" d="M654 458l60 96-36 84z"/><path fill="#d8f2f2" d="M114 510l76-184L34 518z"/><path d="M570 882l-36 40 32 112zm216-508l112 140-44 336z"/><path fill="#9e0b00" d="M126 462l424 160-316 12z"/><path fill="#fff" d="M694 894l124 192 76-72z"/><path fill="#ff821d" d="M826 554l-68 180-156-80z"/><path fill="#ffaf2c" d="M350 222L138 366l280 152z"/><path fill="#f1e9cf" d="M682 686l32 148-188 176z"/><path fill="#110c02" d="M206-62L434 94l-40 116z"/><path fill="#769185" d="M198-62L-22-10l-4 260z"/><path fill="#fffffa" d="M590 810l-32 84-68 4z"/><path fill="#e2f5ff" d="M798 446l-56-120 4 108z"/><path fill="#ffab45" d="M194 822l96 8-84-216z"/><path fill="#381300" d="M526 322l-88 68-68-160z"/><path fill="#cf1c00" d="M-62 562l24 184 324-288z"/><path fill="#886c57" d="M566 310L202 58l-60 132z"/></g></svg>