<svg xmlns="http://www.w3.org/2000/svg" width="228" height="278" viewBox="0 0 836 1024"><path fill="#7e838f" d="M0 0h836v1024H0z"/><g fill-opacity=".502"><path fill="#111213" d="M30-30l-60 488L898-14z"/><path fill="#f4f9ff" d="M262 278l636 228-916 84z"/><path fill="#e5ffff" d="M46 858l624-204-188 432z"/><path fill="#1a0000" d="M762 626l-108 52 164 360z"/><path d="M218 1042L114 886l-152 184z"/><path fill="#7d4715" d="M326 242l168 228L658 66z"/><path fill="#e4f4ff" d="M898 786L534 454l96-192z"/><path fill="#000513" d="M834-62L706 278l176-4z"/><path fill="#dae9f9" d="M-30 290l440 104-12-120z"/><path fill="#0e1a13" d="M598 630l-280 72-4-108z"/><path fill="#130249" d="M610 322l288 20v156z"/><path fill="#0c1c25" d="M-62 266L342-62l-4 352z"/><path fill="#b7d7f4" d="M94 834l804 192-636 60z"/><path fill="#b5ecff" d="M90 690L62 514l240 244z"/><path fill="#c8a992" d="M450 210l40-176 320 184z"/><path fill="#c4d1e0" d="M274 582l376 44-24-292z"/><path fill="#2e53a1" d="M814 966L522 794l100 292z"/><path d="M630 286l4-68 188 28z"/><path fill="#e7fdff" d="M690 94l44-156 16 140z"/><path fill="#f6faff" d="M746 590l68 204 84-244z"/><path fill="#341900" d="M522 258L422 402l132 12z"/><path fill="#395448" d="M250 470l-80 68 32 248z"/><path fill="#4d1600" d="M-14 698l96-56-68-84z"/><path d="M730 562l132-4-120-32z"/><path fill="#5362e0" d="M-62 766l212 72-208 248z"/><path fill="#f5fafb" d="M506 814l-268 188 348-44z"/><path fill="#382676" d="M230 322l-236 4-20 224z"/><path fill="#abbac2" d="M222 1086l264-372-260-32z"/><path fill="#432c0d" d="M798 1042L686 846l88-196z"/><path fill="#caebff" d="M742 234l4-88-128 32z"/><path fill="#608ef6" d="M746 866l-28 220-264-24z"/><path fill="#fff" d="M574 466l168-44-156-112z"/><path fill="#101915" d="M554 682l-64 44-160-60z"/><path d="M266 1086L114 910l-176 172z"/><path fill="#ba4a41" d="M218 770l-260 44 12-156z"/><path fill="#3c2104" d="M494 174L414 74l228 104z"/><path fill="#a5c7f2" d="M606 574l100 232-188-12z"/><path fill="#52585a" d="M530 482l92 40-88 64z"/><path fill="#e0e8e5" d="M578 302l164 32 156-56z"/><path fill="#a7bec6" d="M306 702l32-220-132 120z"/></g></svg>