<svg xmlns="http://www.w3.org/2000/svg" width="228" height="278" viewBox="0 0 836 1024"><path fill="#2f272c" d="M0 0h836v1024H0z"/><path fill="#e2ac83" fill-opacity=".584" d="M595.343 1012.184L898 606.692V481.255l-427.95 527.698z"/><path fill="#cfa87e" fill-opacity=".431" d="M509.45 171.741L327.78 401.226l-83.073-289.414 197.727-35.144z"/><path fill="#a8899b" fill-opacity=".69" d="M-62 434.763l66.274 410.36 47.755-353.08 181.816-156.567z"/><path fill="#020006" fill-opacity=".714" d="M448.49 1086l313.424-712.647-591.604 20.152-45.537 131.368z"/><path fill="#b76f93" fill-opacity=".725" d="M642.453 288.978l-368.9-99.213 117.767.449 337.683 198.663z"/><path fill="#e58bc3" fill-opacity=".639" d="M843.907 598.672l-83.044-109.647-12.06-34.195 70 43.57z"/><path fill="#383a48" fill-opacity=".996" d="M165.897 585.872l81.417 87.057-16.854 368.817L-62 1020.137z"/><path fill="#ac9d79" fill-opacity=".498" d="M514.468 582.193l43.928 3.821 17.39-81.53-84.89 8.3z"/><path fill="#0a050d" fill-opacity=".71" d="M228.918 1086H374.66l309.672-315.463-416.866-238.171z"/><path fill="#07040a" fill-opacity=".757" d="M489.492 277.137l-56.024 138.816 376.19 209.838L654.415 337.39z"/><path fill="#cfaa93" fill-opacity=".608" d="M640.3 988.711l-106.355-74.415 83.638-60.577 63.82 24.062z"/><path fill="#d5fff2" fill-opacity=".341" d="M-62 531.658l4.12-189.2-4.12 37.94 200.223 42.361z"/><path fill="#000009" fill-opacity=".541" d="M307.065 315.703L-62 599.858l108.662-35.133L68.328 736.26z"/><path fill="#5b413b" fill-opacity=".992" d="M425.358 230.926l75.519 25.077-57.73 122.807-80.244-130.349z"/><path fill="#d242a8" fill-opacity=".549" d="M161.715 356.639l126.625-53.722-33.39 50.606-117.391 34.992z"/><path fill="#bd9776" fill-opacity=".659" d="M786.967 569.732l36.632-30.336L898 684.976 769.42 602.97z"/><path fill="#19181e" fill-opacity=".592" d="M482.903 145.597l-139.942-7.105L898 354.608 814.324-62z"/><path fill="#d9bf96" fill-opacity=".412" d="M336.889 171.37l24.703 113.198-90.925-127.3L386.45 66.752z"/><path fill="#1a1a24" fill-opacity=".886" d="M718.17-62l-77.65 185.531-221.154-30.503L-62 18.864z"/><path fill="#ff7ac8" fill-opacity=".31" d="M480.726 275.422l.357-192.69-54.478 132.967 266.55 110.011z"/><path fill="#9fa4a7" fill-opacity=".443" d="M210.29 645.051l37.328 81.26-27.902 128.334-7.219-61.36z"/><path fill="#22212b" fill-opacity=".686" d="M60.202 406.123l89.835-22.18L318.838 48.112-35.394-62z"/><path fill="#c09c6c" fill-opacity=".404" d="M380.263 354.784l-10.901 53.868-37.793-9.478-39.033-127.897z"/><path fill="#fd80da" fill-opacity=".514" d="M56.57 573.797l-31.147-11.821L-62 807.416l57.575-153.198z"/><path fill="#f8ebb7" fill-opacity=".318" d="M463.388 230.627L477.86 86.55l-106.716 42.168 109.413 13.39z"/><path fill="#1c1310" fill-opacity=".388" d="M180.294 346.81l113.84-129.858 144.803 264.916-26.817-243.646z"/><path fill="#160700" fill-opacity=".549" d="M408.29 138.922l-11.43 53.872-36.295-10-22.995-28.248z"/><path fill="#0a060e" fill-opacity=".757" d="M76.676 702.013L-39.79 612.556l45.7 35.44 281.278-325.034z"/><path fill="#fcb9ff" fill-opacity=".439" d="M701.23 354.32l-11.864-25.947-59.059-33.125-7.418 20.674z"/><path fill="#946451" d="M551.205 941.224l90.217 21.066-22.005 51.869-123.432-16.708z"/><path fill="#352841" fill-opacity=".616" d="M128.67 488.774l-39.815-64.761-20.12 36.933-88.112 156.129z"/><path fill="#262230" fill-opacity=".878" d="M714.46 484.066L898 426.072 732.775 253.27l-41.054 103.26z"/><path fill="#dedb80" fill-opacity=".251" d="M438.93 430.339l32.36-144.949-90.635-102.809 83.833 12.6z"/><path fill="#6d4f2c" fill-opacity=".722" d="M42.215 740.027L-62 989.484V765.306L41.149 661.862z"/><path fill="#30353d" fill-opacity=".588" d="M716.317 828.648L578.24 1086h184.624l29.85-347.386z"/><path fill="#d881c2" fill-opacity=".725" d="M94.482 439.528l29.204-16.46 62.986-53.054-33.903-.729z"/><path fill="#c79b83" fill-opacity=".498" d="M523.25 932.048l5.92 62.82-24.456 63.592 206.572-296.2z"/><path fill="#08060b" fill-opacity=".757" d="M740.751 607.876L481.68 477.448l-15.444-213.484L815.8 548.377z"/><path fill="#22222e" fill-opacity=".933" d="M616.358 824.144L677.98 528.05l61.912 117.59-46.937 107.634z"/><path fill="#0b070f" fill-opacity=".757" d="M146.366 406.816l28.305-23.688 139.925-55.734-69.658 407.136z"/><path fill="#a17e63" fill-opacity=".624" d="M352.497 305.321l112.983-21.91-103.06-6.704-19.565-163.943z"/><path fill="#db84c2" fill-opacity=".435" d="M862.906 607.304l-46.873-83.645-29.987-56.51-37.496 14.106z"/><path fill="#8a6442" fill-opacity=".749" d="M799.497 654.558l49.765 35.9-77.881 96.45-43.97-52.256z"/><path fill="#b2358e" fill-opacity=".725" d="M488.248 245.952l-7.036 33.553 153.098 20.258-56.539-30.08z"/><path fill="#2a292f" fill-opacity=".914" d="M434.105 140.976l-6.008 55.345 152.46-108.432 8.992 132.844z"/><path fill="#400a22" fill-opacity=".62" d="M395.29 759.359l128.402-114.166 4.114 88.86-118.869-49.346z"/><path fill="#1b1724" fill-opacity=".576" d="M671.312 308.903l182.523-117.358-428.998 69.647 55.151-30.849z"/><path fill="#221717" fill-opacity=".745" d="M489.324 555.365l73.85-89.692L310.51 273.018l198.471 223.468z"/><path fill="#a08b71" fill-opacity=".906" d="M303.139 312.854l-.197-180.008-10.016-10.321 33.181 250.92z"/><path fill="#1b1021" fill-opacity=".988" d="M712.392 402.621L618.8 312.982l-46.782-13.122-57.268-12.041z"/><path fill="#333540" fill-opacity=".792" d="M173.747 567.4L-13.42 839.008-25.903 1086l224.079-402.592z"/><path fill="#020408" fill-opacity=".447" d="M386.443 679.2l109.792 337.51-274.6-95.569 15.228-135.492z"/><path fill="#b49783" fill-opacity=".545" d="M285.822 216.15L391.487 98.862 351.919 83.8l-84.893 128.66z"/><path fill="#bd9e86" fill-opacity=".651" d="M381.94 227.432l51.366-20.543-23.077-53.957-24.46 73.296z"/><path fill="#543a31" d="M537.96 971.33l-20.358 49.387 224.723-35.242-262.784 43.606z"/><path fill="#bad0c2" fill-opacity=".459" d="M-62 455.798l39.912-34.845 106.157 9.075-26.115 57.55z"/><path fill="#1f1524" fill-opacity=".761" d="M282.745 217.488l-4.417 329.182 62.043-136.806-24.669-55.886z"/><path fill="#d6ac98" fill-opacity=".439" d="M490.345 984.384l-5.705 68.6 50.526-132.086 108.927-72.765z"/><path fill="#31303c" fill-opacity=".58" d="M145.615 57.567l101.782 257.806L266.43 129.51l76.584-28.505z"/><path fill="#fbfac5" fill-opacity=".165" d="M559.675 510.726l8.343 28.766-65.276 26.681-1.25-45.701z"/><path fill="#20242e" fill-opacity=".769" d="M545.597 253.989l-81.365-11.003 28.546-64.364-34.96-114.533z"/><path fill="#e491d6" fill-opacity=".494" d="M570.841 269.58l127.372 74.808-20.276 21.592-62.559-78.465z"/><path fill="#411e0a" fill-opacity=".482" d="M618.317 970.553L496.92 1086l61.889-97.129 29.814 77.358z"/><path fill="#41314d" fill-opacity=".784" d="M831.208 530.181l2.442-6.106-36.735-72.186L655.68 291.301z"/><path fill="#d861b3" fill-opacity=".435" d="M250.82 321.886l46.57-39.8-38.303 54.031-44.979 23.26z"/><path fill="#ee83ce" fill-opacity=".49" d="M45.425 580.526l.745 14.92-66.395 77.2L-8.3 619.639z"/><path fill="#292937" fill-opacity=".541" d="M302.803 269.026L237.046 115.51 93.597 429.42l109.677-105.971z"/><path fill="#222532" fill-opacity=".616" d="M667.94 932.786l209.192-15.637L898 699.05 679.273 877.053z"/><path fill="#2e1502" fill-opacity=".373" d="M803.578 627.81l-40.532-63.227-31.544 96.165-19.867 18.314z"/><path fill="#08060b" fill-opacity=".89" d="M763.6 445.623L536.43 586.99l-353.24 20.706 382.453 65.825z"/><path fill="#e6f3fe" fill-opacity=".137" d="M218.295 778.255l48.333 2.196-77.226-166.48 39.788 54.175z"/><path fill="#b9946c" fill-opacity=".435" d="M670.55 796.236l10.295 60.928 92.518-207.614-38.048 22.282z"/><path fill="#c4a18c" fill-opacity=".706" d="M518.81 944.533l45.397-53.63 102.054 31.175-4.56 21.672z"/><path fill="#5e5055" fill-opacity=".549" d="M479.23 88.036l1.168 16.094-11.476-55.689-41.711 22.855z"/><path fill="#fdaf47" fill-opacity=".169" d="M407.66 368.477l28.71 23.971 28.708-48.679-2.757-56.01z"/><path fill="#080000" fill-opacity=".345" d="M404.892 270.25l-14.824-43.436 47.929 23.737 11.78 29.99z"/><path fill="#a69875" fill-opacity=".631" d="M481.455 190.542l-50.942 122.146 42.09-153.417 5.379 13.25z"/><path fill="#b79384" fill-opacity=".463" d="M831.092 498.028L813.926 676.96l54.928-65.633-80.985-28.78z"/><path fill="#100715" fill-opacity=".612" d="M241.143 331.893l-87.109 6.124 141.587-44.84 5.709-38.988z"/><path fill="#9b8055" fill-opacity=".525" d="M383.439 257.37l-131.061-75.396 41.374 5.749 105.226 2.115z"/><path fill="#473d4d" fill-opacity=".533" d="M-12.848 466.951l-7.703 187.493 78.916-140.893-114.701-4.197z"/><path fill="#b263a9" fill-opacity=".204" d="M361.57 1013.065L260.826 1086l-37.62-149.1-23.774 130.674z"/><path fill="#3e2c11" fill-opacity=".612" d="M-26.779 747.583L-62 746.996l116.42-67.48 29.182 26.415z"/><path fill="#f3c167" fill-opacity=".22" d="M45.313 678.355L-62 737.903l90.143 56.477L-62 604.813z"/><path fill="#0d0000" fill-opacity=".396" d="M358.433 136.14l10.344 53.914 3.254 13.965 32.347-37.284z"/><path fill="#6d7072" fill-opacity=".549" d="M132.876 395.118L104.048 406l-84.347 10.923L-62 389.651z"/><path fill="#000917" fill-opacity=".227" d="M60.942 282.915L86.186-62-62 61.982 258.767 324.28z"/><path fill="#120e15" fill-opacity=".925" d="M488.15 1069.841l3.972-109.331-172.482-88.44 136.574 114.57z"/><path fill="#e6c7bd" fill-opacity=".231" d="M338.945 131.443l24.271-3.424 126.505-12.724-47.506 23.997z"/><path fill="#fa9ee6" fill-opacity=".337" d="M98.709 455.184l40.704-47.665 13.264-25.51-36.446 20.633z"/><path fill="#251919" fill-opacity=".635" d="M374.708 22.068l32.668 87.04 33.703-15.83 36.61 6.36z"/><path fill="#d17ebb" fill-opacity=".494" d="M778.715 437.47l-7.47 26.429 64.193 101.471-81.576-77z"/><path fill="#130c1a" fill-opacity=".682" d="M638.292 638.187l-26.827 208.86-17.44 23.649-70.799-35.084z"/><path fill="#1f1020" fill-opacity=".698" d="M361.516 533.236l98.796-175.525-116.18 244.358-102.295-17.122z"/><path fill="#1a1121" fill-opacity=".706" d="M176.862 389.088l-50.934 34.685-77.508 163.51 137.13-146.641z"/><path fill="#612d11" fill-opacity=".498" d="M526.677 492.14l-34.917 14.448 23.338 1.826 65.591-7.248z"/><path fill="#1f1815" fill-opacity=".89" d="M479.98 213.818l-39.092 86.337-224.224 343.078 234.774-348.701z"/><path fill="#040507" fill-opacity=".616" d="M180.685 571.869l93.986 189.746-50.997-399.91L41.416 711.381z"/><path fill="#a58764" fill-opacity=".475" d="M311.673 256.593l2.667 6.167 52.34 149.14-56.648-62.456z"/><path fill="#131521" fill-opacity=".584" d="M407.086-53.18L671.693-62 596.13 280.499l147.83 33.666z"/><path fill="#030407" fill-opacity=".51" d="M762.034 614.91l-22.748-276.588-6.57 137.7-287.871-81.868z"/><path fill="#544d63" fill-opacity=".376" d="M640.165 786.113l50.069 82.839-84.553-56.128-4.373 28.89z"/><path fill="#9f683f" fill-opacity=".349" d="M366.744 72.562l45.49 23.708 10.539 76.454-55.371-64.57z"/><path fill="#121827" fill-opacity=".631" d="M780.59 170.952L898 616.927 779.653 434.708 898 363.262z"/><path fill="#422443" fill-opacity=".259" d="M340.656 673.874l116.322-41.541-140.896 24.501 44.247 112.006z"/><path fill="#ffebc6" fill-opacity=".137" d="M415.356 323.486l7.337-45.999 49.035-9.741-31.627 38.245z"/><path fill="#dae3ff" fill-opacity=".176" d="M356.604 89.607l-26.818-7.617 16.336 54.67 11.388 7.06z"/><path fill="#524c5e" fill-opacity=".624" d="M246.636 856.587l-21.316-21.419-21.817-135.293 4.577 185.622z"/><path fill="#282530" fill-opacity=".969" d="M303.64 281.856l-3.687-51.509-1.304-8.171-52.023-10.332z"/><path fill="#2b1700" fill-opacity=".392" d="M466.869 139.001l-99.052 24.689 48.837-2.349 25.781 44.623z"/><path fill="#c1ac94" fill-opacity=".467" d="M670.91 909.62l-52.709 98.357 17.334-66.118-3.267-51.748z"/><path fill="#c8a08c" fill-opacity=".514" d="M526.422 958.557l-46.116 38.04 69.275-89.847 82.725-61.836z"/><path fill="#cdbc99" fill-opacity=".294" d="M377.84 201.787l103.434-23.83-82.085 58.382 25.438-67.47z"/><path fill="#b74595" fill-opacity=".6" d="M291.315 300.952L189.406 359.33l-51.017 38.608 119.24-54.098z"/><path fill="#41324f" fill-opacity=".635" d="M728.444 367.266l-12.755 78.038-20.87-111.786 91.817 114.836z"/><path fill="#22182b" fill-opacity=".482" d="M61.354 676.513l-12.229-61.472 4.61-125.45 45.821-69.635z"/><path fill="#0b080f" fill-opacity=".918" d="M420.335 422.628l44.577-72.92 8.544-88.947 77.174 103.885z"/><path fill="#161826" fill-opacity=".51" d="M245.624 150.476l40.535-13.821L242.447-62l24.888 285.47z"/><path fill="#1f1812" fill-opacity=".596" d="M301.774 227.422L474.429 498.99l-67.791-165.751-69.844-34.598z"/><path fill="#610d32" fill-opacity=".349" d="M432.895 729.147l40.389 18.445-60.999-2.822-23.803-70.69z"/></svg>