<svg xmlns="http://www.w3.org/2000/svg" width="228" height="278" viewBox="0 0 836 1024"><path fill="#75743e" d="M0 0h836v1024H0z"/><path fill="#cbe342" fill-opacity=".741" d="M156.966 1086l145.261-642.723 430.386-43.962L611.843 1086z"/><path fill="#100522" fill-opacity=".588" d="M381.68 336.566L-55.46 604.883 8.324-62 549.67 25.107z"/><path fill="#01003f" fill-opacity=".486" d="M582.6 73.518l297.115-42.986L898 494.262 540.165 350.33z"/><path fill="#e5fe6b" fill-opacity=".639" d="M365.647 418.437l-222.503 279.08-44.27-158.178 186.704-151.467z"/><path fill="#182e00" fill-opacity=".51" d="M231.064 537.068l158.984 126.407-61.87 207.225L183.381 677z"/><path fill="#cedb54" fill-opacity=".882" d="M721.243 408.56l-148.79-38.017-60.114 149.296 303.767 136.515z"/><path fill="#1b0200" fill-opacity=".6" d="M586.982 393.348l-124.19 69.606-137.546-90.69 84.053-74.141z"/><path fill="#1b2533" fill-opacity=".918" d="M810.972 658.263l-53.95-204.436 94.764-239.672L832.865 1086z"/><path fill="#0f222a" fill-opacity=".659" d="M667.151 569.098l24.015-6.963 45.212 135.273-85.757 17.93z"/><path fill="#1e1a18" fill-opacity=".682" d="M-24.48 131.782L218.285-35.643 39.275 709.935 10.043 986.481z"/><path fill="#fcc4de" fill-opacity=".137" d="M141.12 453.8l191.415-157.014 549.292-89.828L231.939 53.802z"/><path fill="#fc928b" fill-opacity=".502" d="M831.523 600.218l-40.11 196.381L644.726 1086l-4.976-117.305z"/><path fill="#010c00" fill-opacity=".263" d="M601.633 693.37l32.767-89.32-305.183 9.101-166.672 56.199z"/><path fill="#25211b" fill-opacity=".961" d="M317.572-62l40.322 242.611 68.901-63.091 213.292-6.824z"/><path fill="#e4fa67" fill-opacity=".788" d="M274.964 890.595l5.005 77.55L898 1065.78l-800.763-12.708z"/><path fill="#2e242b" fill-opacity=".694" d="M837.256 681.871L687.66 1031.233 731.12 1086 898 668.918z"/><path fill="#5757ba" fill-opacity=".459" d="M552.132 38.898l-76.03-42.322L851.466 3.73 605.943 122.079z"/><path fill="#a57765" fill-opacity=".863" d="M25.88 772.48l34.36-101.865L240.407 906.54 95.962 920.167z"/><path fill="#dcd6f1" fill-opacity=".463" d="M176.442 569.76l-42.73-104.073L38.077 648.27l51.346-59.77z"/><path fill="#d9e750" fill-opacity=".647" d="M305.362 627.628L199.526 432.316l560.476 53.635-139.494 87.764z"/><path fill="#4c3f47" fill-opacity=".82" d="M-43.572 716.752L105.334 916.72l110.98 13.707-173 155.573z"/><path fill="#edfe5c" fill-opacity=".494" d="M441.35 750.599l142.53-41.131 65.94-78.985 17.257 323.42z"/><path fill="#3d3328" fill-opacity=".918" d="M144.36 597.976L14.973 531.325l152.08-317L58.28 687.764z"/><path fill="#252416" fill-opacity=".843" d="M171.132 406.378L720.24 313.27 337.853 446.16l29.396-148.695z"/><path fill="#bc644b" fill-opacity=".471" d="M498.384 438.219l-90.558-276.404 77.026-61.363 82.517 117.402z"/><path fill="#99b126" fill-opacity=".898" d="M323.55 908.556l123.633-24.307-81.597-209.696-38.911 5.038z"/><path fill="#b16a9c" fill-opacity=".635" d="M625.848 492.39l-29.19 62.834-40.572-60.382 62.158-28.353z"/><path fill="#d6e957" fill-opacity=".827" d="M142.258 574.056l68.11 36.988-61.756 94.012-34.542-42.69z"/><path fill="#4572b7" fill-opacity=".357" d="M330.206 51.046l-93.642-11.21-40.094 94.71 97.695 35.255z"/><path fill="#e1f85b" fill-opacity=".58" d="M304.832 457.686l35.068 139.92L203.5 428.22l152.086-53.611z"/><path fill="#daf059" fill-opacity=".667" d="M539.152 936.602L523.786 1086 625.57 870.069l-400.824 77.285z"/><path fill="#d9eb5b" fill-opacity=".961" d="M710.14 403.833l67.296 123.477-220.615-74.704L569 376.836z"/><path fill="#070f0a" fill-opacity=".365" d="M430.258 196.633L410.64 59.647l-113.773 97.608 372.992 12.183z"/><path fill="#feb8a4" fill-opacity=".439" d="M498.335 217.865l71.07-98.775-104.778-7.882 96.887 140.744z"/><path fill="#000700" fill-opacity=".278" d="M380.527 821.775l-167.136-137.38-79.245 59.333 97.556-175.703z"/><path fill="#592404" fill-opacity=".451" d="M468.088 266.785L343.08 166.04l132.703 256.45 48.763-148.139z"/><path fill="#201407" fill-opacity=".302" d="M816.713 375.85l-150.01-240.438L616.977-62l260.54 325.186z"/><path fill="#2e3120" fill-opacity=".824" d="M183.617 514.344l-63.025-50.473L447.379 293.36 168.896 463.379z"/><path fill="#a2cb01" fill-opacity=".384" d="M669.304 570.577l44.73 92.584 70.47-24.062-66.438-207.227z"/><path fill="#931f2a" fill-opacity=".267" d="M537.704 946.516l115.668-59.811L839.721 508.58 653.556 991.555z"/><path fill="#ccdf5a" fill-opacity=".702" d="M57.2 632.275l-17.294 3.736 62.256-109.227-9.735 47.004z"/><path fill="#424f60" fill-opacity=".847" d="M646.957 34.59l-89.296 84.873 35.554 177.31 113.68-10.394z"/><path fill="#906452" fill-opacity=".89" d="M75.87 652.36l147.466 93.588-32.195 126.588-135.802-82.803z"/><path fill="#030b02" fill-opacity=".302" d="M706.6 261.75L332.485 442.056l64.393-123.086 327.43 93.127z"/><path fill="#2d2f32" fill-opacity=".914" d="M705.178 737.705l67.492-95.757-114.961 52.316 7.962-74.622z"/><path fill="#030d19" fill-opacity=".459" d="M370.332 521.9l-63.624-26.128 17.152-9.96 39.957 27.482z"/><path fill="#849bca" fill-opacity=".573" d="M338.676-35.89L433.278-62 608.804 75.754 639.717-62z"/><path fill="#c9dd49" fill-opacity=".996" d="M370.656 884.887l303.14-102.6L392.73 860.03l-211.703 12.038z"/><path fill="#486a00" fill-opacity=".616" d="M346.284 903.27l131.547-33.442-52.627 5.025-131.569 18.098z"/><path fill="#b57346" fill-opacity=".6" d="M436.68 437.586l66.792-74.82 27.422-25.917-35.026 102.531z"/><path fill="#0b2336" fill-opacity=".678" d="M770.763 566.03l14.694-134.978 70.433-150.364L898 738.939z"/><path fill="#19241a" fill-opacity=".655" d="M546.783 437.17l-66.488-2.032-5.784 19.636 92.669-103.38z"/><path fill="#624d4f" fill-opacity=".753" d="M822.8 1083.099l75.2-257.85-123.807 77.282-26.423 138.585z"/><path fill="#709800" fill-opacity=".329" d="M168.66 551.23l87.12-69.969-80.521-94.656 164.218 272.118z"/><path fill="#9ab026" fill-opacity=".902" d="M272.154 734.705l-57.113 34.547 112.064 65.81-28.925 47.725z"/><path fill="#cfb1ff" fill-opacity=".424" d="M135.91 578.834L88.952 563.63l58.212-71.976 37.007 6.99z"/><path fill="#6c403d" fill-opacity=".467" d="M137.33 493.09l50.411 40.014-150.368-34.456L143.22 360.96z"/><path fill="#cf8b76" fill-opacity=".447" d="M808.297 720.133l4.237-126.178-64.473 115.58-31.504 263.598z"/><path fill="#d7ea50" fill-opacity=".808" d="M574.382 622.725l116.21-213.081-32.024 242.744-34.265-52.866z"/><path fill="#edff5c" fill-opacity=".471" d="M370.821 702.161l121.894-13.823 5.193 6.69L308.194 754.3z"/><path fill="#f7cdab" fill-opacity=".424" d="M532.458 215.672l-19.042 46.753 42.214 10.912 10.914-72.03z"/><path fill="#0a0b09" fill-opacity=".459" d="M611.77 235.191L556.187 41.653 309.634 95.464l241.017 7.976z"/><path fill="#6a3739" fill-opacity=".729" d="M891.14-62l-5.873 267.638L771.529 74.932 816.042-62z"/><path fill="#f6863f" fill-opacity=".165" d="M515.382 313.746l-203.24-73.903 217.84-155.557-114.93 41.167z"/><path fill="#afb9ff" fill-opacity=".42" d="M759.757 454.937l13.728 76.485-3.706 44.288-24.38-97.357z"/><path fill="#2e445e" fill-opacity=".714" d="M20.963 1067.485l118.601-15.733-1.028-46.06-58.641-79.711z"/><path fill="#d4e646" fill-opacity=".792" d="M554.707 421.945l-9.686 290.177-12.802-109.518-210.81-6.04z"/><path fill="#e9f76b" fill-opacity=".471" d="M629.479 966.551L388.087 1086l-279.11-114.021 153.043 20.19z"/><path fill="#304869" fill-opacity=".839" d="M898 669.848v-71.464l-105.958-7.998 24.517 81.483z"/><path fill="#c09c8d" fill-opacity=".392" d="M108.934 960.977l-71.4-173.497L245.499 976.3 143.994 835.655z"/><path fill="#59614a" fill-opacity=".659" d="M397.109 298.03l-197.353-46.017-7.183 216.743-28.865-75.013z"/><path fill="#e4f767" fill-opacity=".839" d="M431.967 939.964l-31.765 4.775-124.614-28.047-52.077-31.81z"/><path fill="#070b08" fill-opacity=".459" d="M37.79 177.453L-61.844-21.126l36.58-8.953 214.027 240.032z"/><path fill="#0a1a26" fill-opacity=".62" d="M772.161 443.458l111.42-30.309-38.152 171.585-142.84-187.558z"/><path fill="#823115" fill-opacity=".463" d="M156.058 978.678l-57-24.213 57.207-64.878 56.837 54.097z"/><path fill="#0b1514" fill-opacity=".549" d="M338.627 370.866L182.08 445.613l199.564-139.601 15.728 123.335z"/><path fill="#202428" fill-opacity=".933" d="M32.1 849.87L-62 753.381l4.217 158.83L34.35 689.214z"/><path fill="#494eb1" fill-opacity=".18" d="M223.056 642.973l-90.82 72.708 1.097 173.337 84.662-55.215z"/><path fill="#839d02" fill-opacity=".384" d="M365.421 946.3l-218.97-67.076 274.654 105.005-171.376-12.041z"/><path fill="#fdbd9f" fill-opacity=".247" d="M672.44 717.95l7.173-109.84-36.68 261.976 52.373-60.829z"/><path fill="#445905" fill-opacity=".906" d="M223.442 552.713l51.665 185.385 72.748-129.937 25.663 70.691z"/><path fill="#0f1520" fill-opacity=".357" d="M54.68 629.901l-42.838 28.851 87.345 3.227 50.833-89.769z"/><path fill="#cd9079" fill-opacity=".502" d="M647.508 945.13L630.542 1086l120.276-254.547-198.537 163.19z"/><path fill="#ddedfd" fill-opacity=".486" d="M112.582 588.59l-10.046-49.95 22.064-36.86 36.457 75.97z"/><path fill="#673d25" fill-opacity=".427" d="M87.654 280.559L-62 251.764l92.005-73.959 62.551 26.222z"/><path fill="#c56213" fill-opacity=".361" d="M115.05 853.003l26.337-163.764-56.438-14.312-15.476 100.979z"/><path fill="#799310" fill-opacity=".588" d="M329.213 860.772l-22.099-225.06 65.799 183.523 149.172-76.297z"/><path fill="#568903" fill-opacity=".459" d="M367.23 975.25l202.641-29.717-98.939 33.015-101.038 2.995z"/><path fill="#323734" fill-opacity=".894" d="M526.344 345.537l46.566 85.79-20.583-33.68 34.742-219.524z"/><path fill="#bdccf8" fill-opacity=".255" d="M33.458 818.35l22.562 30.139-2.067-145.322-15.159 17.944z"/><path fill="#d6e958" fill-opacity=".914" d="M165.308 553.685l42.63 39.936-38.958 84.918-68.396-14.053z"/><path fill="#527207" fill-opacity=".506" d="M455.078 741.34l106.195-29.023 51.512-16.929-123.982 28.624z"/><path fill="#232c62" fill-opacity=".486" d="M718.688 661.002l-49-62.067-9.587 18.299 38.674 154.17z"/><path fill="#c5da3f" fill-opacity=".761" d="M446.112 758.936l173.513 196.329-114.576-198.218L272.92 857.941z"/><path fill="#58720b" fill-opacity=".612" d="M543.964 692.85l-87.818 26.129-72.522 20.221 82.29-31.21z"/><path fill="#ead57c" fill-opacity=".592" d="M209.869 843.144l43.514 67.567-33.735-29.16-46.529-10.096z"/><path fill="#ebfe66" fill-opacity=".431" d="M342.688 770.706l267.661-89.296-188.472 46.892-157.782 66.484z"/><path fill="#833800" fill-opacity=".361" d="M764.46 644.447l-22.138 140.154-62.804 134.081-15.084-27.032z"/><path fill="#7d9126" fill-opacity=".98" d="M480.957 672.717l-76.41-77.92 69.955 90.693-253.332 45.972z"/><path fill="#303e48" fill-opacity=".537" d="M225.306 141.75l152.524 13.995-217.268 135.832L202.62 44.542z"/><path fill="#cfe751" fill-opacity=".757" d="M208.98 936.334l55.159-18.975-98.08 57.789 325.264-18.918z"/><path fill="#859b1d" fill-opacity=".639" d="M502.215 922.919l100.558-68.446 35.445-18.54-167.522 113.764z"/><path fill="#92b200" fill-opacity=".388" d="M465.132 899.111L650.644 769.4 499.26 847.48l-64.891 21.535z"/><path fill="#010a09" fill-opacity=".357" d="M398.21 626.985l-1.111 67.604-10.793-88.032 49.87 8.754z"/><path fill="#ff582b" fill-opacity=".09" d="M732.634 204.997l90.32 159.1-91.92 45.434-89.016-270.638z"/><path fill="#20241c" fill-opacity=".525" d="M47.056 602.448L-62 489.097l217.703-1.169 20.517-60.208z"/><path fill="#daed58" fill-opacity=".753" d="M349.895 370.511l-63.114 193.002 98.411 84.89-150.42-226.414z"/><path fill="#ddf05b" fill-opacity=".706" d="M596.972 687.631l31.974 188.936 22.025 26.974 22.031-176.991z"/><path fill="#d7ea52" fill-opacity=".82" d="M229.84 487.256l313.678-2.8-148.413-51.341-95.615 16.924z"/><path fill="#2d2d30" fill-opacity=".447" d="M652.314 62.284L539.531 214.049l-16.504-44.655 312.253-63.616z"/><path fill="#1d0204" fill-opacity=".361" d="M480.288 242.442l47.446 4.675 13.209-18.487-26.61 1.139z"/><path fill="#010600" fill-opacity=".533" d="M243.843 610.23l.441 104.016-32.93-81.947 12.338-58.053z"/><path fill="#482f09" fill-opacity=".58" d="M898 974.223l-89.386-78.633-6.228-108.275 9.127-88.696z"/><path fill="#17201d" fill-opacity=".635" d="M229.58 422.453l-87.708 55.235 20.329 26.034 87.808-133.472z"/><path fill="#493d32" fill-opacity=".929" d="M421.83-62l40.348 45.79 41.436 33.637L385.04 33.932z"/><path fill="#cbdf3f" fill-opacity=".561" d="M390.707 717.82l-41.886-182.684 179.2-111.32-140.19 164.861z"/><path fill="#bfe9ff" fill-opacity=".376" d="M610.911 532.55l-12.748-33.445-5.535-18.601-15.265 74.333z"/><path fill="#af5257" fill-opacity=".671" d="M583.416 514.014l-25-.058 51.172-42.596-43.833 9.265z"/><path fill="#608aa9" fill-opacity=".184" d="M667.919 287.88l-75.305-31.195 26.202-136.13 83.455 28.263z"/><path fill="#00050a" fill-opacity=".231" d="M589.213 627.102l-158.268 37.776 69.568-42.517 10.408 48.308z"/></svg>