<svg xmlns="http://www.w3.org/2000/svg" width="228" height="278" viewBox="0 0 836 1024"><path fill="#525775" d="M0 0h836v1024H0z"/><g fill-opacity=".502"><path fill="#e6ffff" d="M658 594l240-48-76 540z"/><path fill="#e5dae2" d="M670 342l-444 16 412 196z"/><path fill="#090003" d="M766 558l-8-620H390z"/><path fill="#1e0703" d="M150 434L-62 18l372-72z"/><path fill="#4a7ff2" d="M502 694l-180 392-88-800z"/><path fill="#8f6134" d="M506 642L234 102 470-62z"/><path fill="#00208a" d="M670 466l-332 536 340-32z"/><path fill="#fff" d="M786 1086L646 982l-300 60z"/><path fill="#e0cda8" d="M406 1026l-468-8 236-80z"/><path fill="#00154f" d="M158 926l112-380-332 404z"/><path fill="#fff" d="M534 358l116-16-120 200z"/><path fill="#73a0d4" d="M26 494l164-32L78 770z"/><path fill="#ffd088" d="M258 626l-92 284 88-124z"/><path fill="#080f1e" d="M638 638L490 534l-168 68z"/><path fill="#593d24" d="M274 994l-152 92 176-476z"/><path fill="#061978" d="M522 302l-112 24 104 148z"/><path fill="#1f1818" d="M898 102L454 254 686-62z"/><path fill="#8f2c4c" d="M-62 458l36-320 216 204z"/><path fill="#605f7c" d="M826 238L662 426l52-396z"/><path fill="#c5dafd" d="M898 778L726 554l-48 228z"/><path fill="#16162a" d="M606 558l160-32 88-292z"/><path fill="#84a9e4" d="M374 310l-116 64 8 308z"/><path fill="#e3d7ab" d="M430 38l-40-48-116 60z"/><path fill="#153078" d="M734 870L390 742l216-184z"/><path fill="#96c3ff" d="M290 946l-36 108 332 32z"/><path fill="#41424c" d="M250 114L-26 506l380-188z"/><path fill="#78a3bf" d="M898 1038L666 646l112 440z"/><path fill="#122e5c" d="M-34 426l-28 500 208 40z"/><path fill="#c6d1dd" d="M634 326l40 160-136 64z"/><path fill="#71531f" d="M342 390l148 204 116-32z"/><path fill="#c59c84" d="M490 282l-108-44 64-144z"/><path fill="#ebb8a2" d="M226 946l-92 44 44-120z"/><path fill="#dfe6c9" d="M178 1034L26 962l-88 72z"/><path fill="#e5c097" d="M370 158l-60-44-8 116z"/><path fill="#12141a" d="M582 278L394 38l324 192z"/><path fill="#0c1753" d="M374 1030l132-196 96 124z"/><path fill="#0d0e02" d="M110 46l68 88L354-18z"/><path fill="#0f0300" d="M278 82l148 16-32 36z"/><path fill="#294595" d="M658 994l112-168-472-164z"/><path fill="#f4ffff" d="M466 1026l204-40 44 100z"/></g></svg>