<svg xmlns="http://www.w3.org/2000/svg" width="228" height="278" viewBox="0 0 836 1024"><path fill="#90918c" d="M0 0h836v1024H0z"/><g fill-opacity=".502"><path fill="#fff" d="M202 1082l620 4-596-892z"/><path d="M834-62L550 162l348 772z"/><path fill="#280d0a" d="M-62 562l52-624L626 42z"/><path fill="#faffff" d="M686 350L38 486l688 152z"/><path fill="#efffff" d="M766 1054L182 342l60 728z"/><path d="M78 698l128-140-8 248z"/><path fill="#00fb8d" d="M654 882l96 204 36-176z"/><path fill="#a9703d" d="M530 146L246 86l200 400z"/><path fill="#fff" d="M390 378H154L-6 666z"/><path fill="#0e0000" d="M614 790l96-132-124-24z"/><path fill="#00f172" d="M82 862L-62 978l208 108z"/><path fill="#00030f" d="M-10 678l-52-404L94 458z"/><path fill="#060710" d="M706 566L818-62l80 820z"/><path fill="#f9ffff" d="M710 470L426 634l100-340z"/><path fill="#5f4a4a" d="M290-62l424 520 56-496z"/><path fill="#f0f8fb" d="M-62 834l772-48-92 300z"/><path fill="#c97637" d="M-42 674l292 412L74 594z"/><path fill="#f0c5a2" d="M342 358l56-260-100 64z"/><path fill="#8aa17f" d="M246 602l440-8-352 108z"/><path fill="#00000f" d="M50 802L-62 398v372z"/><path fill="#e6904d" d="M642 666l204 352-76-348z"/><path fill="#0d213b" d="M186 170L-22-62l176 476z"/><path fill="#6c4c1c" d="M206 898l-104 60 132 124z"/><path fill="#1c1b23" d="M254 494l116-4-88-28z"/><path fill="#43331f" d="M470 378l-40 100-76-236z"/><path fill="#fa9325" d="M606 598l-112 72-100-64z"/><path fill="#ebf7ff" d="M566 562l100 524-144-232z"/><path fill="#121312" d="M222 706L54 602l104 200z"/><path fill="#555750" d="M638 526l108 244-160-152z"/><path fill="#fff" d="M282 310l112 100-248-8z"/><path fill="#3d2622" d="M558 326l236-112-60 212z"/><path fill="#00d88c" d="M682 1086l44-224 92 220z"/><path fill="#849ab5" d="M506 90l112 60 32-212z"/><path fill="#e6f5ff" d="M218 358L34 578l76 60z"/><path fill="#00ba63" d="M-62 906l144 180 28-172z"/><path fill="#75dafe" d="M370 710L206 574l216 44z"/><path d="M334 358l48 8 44 52z"/><path fill="#f0ad78" d="M14 638l104 40 16 284z"/><path fill="#bec9e0" d="M462 334l36-116 108 40z"/><path fill="#fecea6" d="M774 866l124-76-108 244z"/></g></svg>