<svg xmlns="http://www.w3.org/2000/svg" width="228" height="278" viewBox="0 0 836 1024"><path fill="#8b6f85" d="M0 0h836v1024H0z"/><path fill="#3b0b26" fill-opacity=".702" d="M137.445 691.865l201.817-406.33L558.178 1086l-367.856-60.51z"/><path fill="#3671fc" fill-opacity=".933" d="M132.256 434.898L138.537-62H-52.56L-62 1038.63z"/><path fill="#c3e6db" fill-opacity=".486" d="M877.493-43.343L898 365.561 609.972 1086 538.895-62z"/><path fill="#ddb5ab" fill-opacity=".875" d="M52.891 618.593l82.93-119.287 20.899 538.94L-12.6 1086z"/><path fill="#963e45" fill-opacity=".894" d="M460.597 284.358l168.186 91.952-41.98 274.364-395.466 312.524z"/><path fill="#baa9a6" fill-opacity=".992" d="M456.175 786.803l207.596 230.761L790.6 832.292 594.002 595.079z"/><path fill="#b95448" fill-opacity=".729" d="M159.147 365.483L560.95 230.669l5.34-151.664L155.444-62z"/><path fill="#002768" fill-opacity=".737" d="M453.935 1086L180.08 951.125l324.708-96.487 114.453 120.7z"/><path fill="#242918" fill-opacity=".647" d="M549.15 159.12L540.423 14.9 422.97 43.416l-57.905 110.588z"/><path fill="#36101f" fill-opacity=".847" d="M247.81 922.176l156.353-360.492 22.828 238.174 84.004-219.345z"/><path fill="#e0ddbf" fill-opacity=".918" d="M797.88 26.996l-25.073 518.188 62.658 48.75L887.428-62z"/><path fill="#001131" fill-opacity=".678" d="M140.913 424.537l94.547 43.753-92.645 402.833 213.264-495.99z"/><path fill="#e4edf3" fill-opacity=".545" d="M563.135 585.69l-218.478-47.972 6.913 37.519 176.938 32.483z"/><path fill="#170103" fill-opacity=".686" d="M813.944 817.305l-30.172-203.473-16.97 51.323-6.756 119.395z"/><path fill="#ff3a2f" fill-opacity=".678" d="M209.858 936.43l-46.394-92.275 186.577-416.333-212.675 543.62z"/><path fill="#ea4d51" fill-opacity=".973" d="M244.784 926.77l59.521-23.706-73.71-68.123 223.02-428.13z"/><path fill="#fe4847" fill-opacity=".678" d="M402.212 772.123l-73.268 151.444 49.324-210.051L528.74 425.084z"/><path fill="#ff7a85" fill-opacity=".675" d="M810.458 499.469l-13.422 436.96L589.302 1086 898 1014.849z"/><path fill="#ddf5f7" fill-opacity=".565" d="M169.188 428.83l-13.697 56.376 56.803 32.148 55.333-10.578z"/><path fill="#011741" fill-opacity=".686" d="M389.15 503.426L95.267 527.1l110.748 72.587 160.81-295.821z"/><path fill="#4a1a0a" fill-opacity=".71" d="M607.915 853.155l-21.891-28.737 80.92-14.557-40.728 57.124z"/><path fill="#ffc7b4" fill-opacity=".424" d="M728.512 779.274L228.416 906.1l168.578-26.165 36.25-111.932z"/><path fill="#f0faf4" fill-opacity=".416" d="M644.665 386.383l-105.624-57.12 37.126-368.066 33.168 101.775z"/><path fill="#010c16" fill-opacity=".678" d="M520.596 654.659l109.431-223.727-39.383-86.01L601.171 590.2z"/><path fill="#8d9ec8" fill-opacity=".859" d="M-62 987.07L91.936 1086 35.958 618.618l1.648 113.64z"/><path fill="#c46c81" fill-opacity=".992" d="M392.532 501.46l195.274-76.793 5.072 80.92-206.74-131.867z"/><path fill="#010e37" fill-opacity=".604" d="M444.194 393.45l-82.02-150.494 68.05 200.79 17.342 162.827z"/><path fill="#f92a22" fill-opacity=".671" d="M274.53 528.43L158.48 961.768l-5.407-88.502 172.361-357.523z"/><path fill="#1a62e2" fill-opacity=".396" d="M376.631 406.027l-197.15 41.79 60.11-107.19 106.555-55.337z"/><path fill="#dbbca5" fill-opacity=".733" d="M626.464-33.864L351.39-62l18.174 355.658 5.25-242.363z"/><path fill="#060315" fill-opacity=".82" d="M390.982 417.516L303.767 667.45 179.798 906.517l88.624-272.481z"/><path fill="#d29276" fill-opacity=".918" d="M404.053 316.202l-56.064-119.065 155.365 52.02 75.786 35.416z"/><path fill="#778da5" fill-opacity=".596" d="M673.543-61.674l95.494 32.857-35.092 846.808-71.842-47.246z"/><path fill="#00163d" fill-opacity=".62" d="M478.797 337.474l45.525 139.62-10.328 110.314-14.177-15.986z"/><path fill="#ffb185" fill-opacity=".557" d="M195.048 569.636L30.88 635.245l148.23 403.952-38.15-308.822z"/><path fill="#fcffdd" fill-opacity=".525" d="M512.285 745.056l14.394-104.7-67.264 173.614 163.747 86.574z"/><path fill="#f85555" fill-opacity=".659" d="M525.735 533.85L403.69 906.12l157.986-398.48-54.07-269.877z"/><path fill="#051a45" fill-opacity=".682" d="M198.538 1025.262L67.504 1086l238.11-3.6L201.6 785.929z"/><path fill="#eedfd6" fill-opacity=".988" d="M699.061 1049.745L446.464 1086l124.397-71.79 33.366-19.147z"/><path fill="#010010" fill-opacity=".62" d="M381.271 860.344l20.03-33.375 80.542-150.347 4.554-120.134z"/><path fill="#d23700" fill-opacity=".341" d="M885.673 741.955l-172.53 271.256 21.416-129.445 47.849-105.844z"/><path fill="#bd826f" fill-opacity=".847" d="M591.7 591.311l-27.776 111.253 40.4 154.198-112.77-149.473z"/><path fill="#041131" fill-opacity=".698" d="M416.444 553.204l39.879-106.83-11.031-22.952 21.432 121.8z"/><path fill="#cd535d" fill-opacity=".698" d="M362.419 203.718L360.699-62H161.225l-10.787 516.451z"/><path fill="#225ef2" fill-opacity=".537" d="M-62 446.008l264.06 57.753-185.927 57.946L69.86 900.77z"/><path fill="#000009" fill-opacity=".592" d="M144.448 856.95l88.96-165.373 45.808-231.84L156.973 700.31z"/><path fill="#010c2a" fill-opacity=".565" d="M277.961 829.277l26.043 102.309-21.44 17.82L445.07 564.634z"/><path fill="#ed595d" fill-opacity=".898" d="M321.171 829.237l4.575 49.659 43.063 8.356.416-111.935z"/><path fill="#581300" fill-opacity=".322" d="M581.261 353.5l-137.318-74.29-108.811 31.7 15.576 44.768z"/><path fill="#0e0300" fill-opacity=".58" d="M547.416 575.535l-1.96 87.662 61.851-139.93-51.337-11.002z"/><path fill="#fe685f" fill-opacity=".631" d="M475.258 385.47l-22.155 265.674 44.963-148.65-122.26-248.31z"/><path fill="#e0f5fc" fill-opacity=".412" d="M498.335 601.117L338.75 570.52l16.99-30.72 54.454 4.365z"/><path fill="#fe3a34" fill-opacity=".58" d="M310.69 634.8l-43.884 135.422 41.7 20.669 94.708-256.354z"/><path fill="#a6aebb" fill-opacity=".588" d="M700.851 1086L538.033 819.467l243.947 206.444 31.393-180.359z"/><path fill="#0d0800" fill-opacity=".443" d="M367.145 126.371l.683-20.23 205.265 9.317-64.598 59.537z"/><path fill="#ebebd2" fill-opacity=".698" d="M512.042-1.896l38.3 41.126 33.355 163.121-4.076-221.771z"/><path fill="#ffd6c5" fill-opacity=".557" d="M48.47 777.627l115.695-199.339-54.333-49.276-71.577 114.5z"/><path fill="#262200" fill-opacity=".549" d="M465.345 212.428l-42.216-7.253 37.233 34.46 112.281-37.07z"/><path fill="#925ed5" fill-opacity=".502" d="M128.363 16.046l-11.455 503.143 45.491-62.33L144.89-62z"/><path fill="#a3b1cf" fill-opacity=".729" d="M651.103-62l16.734 882.017-81.143-200.513 36.475-167.678z"/><path fill="#f56e76" fill-opacity=".702" d="M255.603 799.336l-27.289 44.005 14.689 70.149 56.689 6.705z"/><path fill="#1c111d" fill-opacity=".694" d="M812.695 804.118l-22.258-126.446 10.348-94.509-49.363 189.106z"/><path fill="#fed3c3" fill-opacity=".561" d="M765.014 869.323l-195.84-101.23 11.551-170.12L611.8 739.476z"/><path fill="#1e3065" fill-opacity=".78" d="M140.914 480.195l90.582 59.725-35.095 50.373-77.81-51.125z"/><path fill="#182b64" fill-opacity=".89" d="M303.229 863.908L599.523 1086 404.022 844.08 254.618 1086z"/><path fill-opacity=".404" d="M342.578 552.949l-187.201-124.1 193.525 22.426 44.496 52.91z"/><path fill="#071134" fill-opacity=".941" d="M416.05 1034.36l-150.421-68.885 106.884 22.108 108.013-152.475z"/><path fill="#030316" fill-opacity=".722" d="M290.079 877.995l66.769-218.604 51.833-77.153 25.716 14.755z"/><path fill="#fd0905" fill-opacity=".369" d="M523.194 610.912l-58.631 175.283-68.397 83.936 17.872-61.947z"/><path fill="#ffb697" fill-opacity=".667" d="M67.304 1073.436l152.966 7.756-32.555-72.17-75.374-145.085z"/><path fill="#ff7f8b" fill-opacity=".529" d="M447.488 467.92l-59.238 34.33 7.778-65.95-48.734-184.46z"/><path fill="#243f85" fill-opacity=".647" d="M651.06 1010.727l-121.663-147.96-98.81 124.752 185.075 9.26z"/><path fill="#ffd29a" fill-opacity=".278" d="M353.668 174.121l245.293 2.54-172.478 43.915-81.007 79.661z"/><path fill="#fd3029" fill-opacity=".639" d="M441.019 692.718l24.363-112.185-80.607 134.977 10.614 70.622z"/><path fill="#031a3e" fill-opacity=".612" d="M598.433 424.395l-32.522-82.978 60.794 48.037-21.538 138.186z"/><path fill="#241f51" fill-opacity=".639" d="M507.302 853.733l-65.888-24.681 21.459-91.315 4.907 259.646z"/><path fill="#ede2c9" fill-opacity=".357" d="M482.424 232.852l83.649 113.755 68.368 41.472-87.278-159.455z"/><path fill="#f4e2eb" fill-opacity=".608" d="M393.298 471.534l5.94 22.735 69.32-38.842-14.267 5.005z"/><path fill="#ff7d8c" fill-opacity=".616" d="M572.62 437.647l-22.7-75.65 36.883 17.773-5.146 160.734z"/><path fill="#ad8f8e" fill-opacity=".757" d="M796.893 1086l-71.13-197.678-60.091-64.197-35.48 46.17z"/><path fill="#fe6788" fill-opacity=".627" d="M784.027 674.353l96.518-206.85-65.21 290.54-28.543-93.403z"/><path fill="#090f27" fill-opacity=".804" d="M257.99 968.62l-93.963-14.459 44.154 87.146 25.46-52.127z"/><path fill="#ff3e51" fill-opacity=".624" d="M806.396 999.198l48.576-22.76L898 551.832l-74.192 256.605z"/><path fill="#ff2c27" fill-opacity=".6" d="M386.118 491.06l-15.193 60.278 46.365-24.628 25.108-49.324z"/><path fill="#bec8d2" fill-opacity=".49" d="M545.666 602.753l-217.563-39.214 73.246.957 157.309 10.508z"/><path fill="#ced5d8" fill-opacity=".537" d="M253.931 495.126l-92.118-58.999-11.563 50.244 73.89 42.508z"/><path fill="#2a65f6" fill-opacity=".835" d="M46.844 782.955l-75.283 28.643 141.06-332.651L-7.178 377.342z"/><path fill="#ff6556" fill-opacity=".392" d="M194.922 890.541l24.651 41.584-46.182 29.64-69.48-197.384z"/><path fill="#dfceff" fill-opacity=".227" d="M373.228 212.642l79.44 29.976-233.117 99.29 96.431 10.743z"/><path fill="#010b25" fill-opacity=".639" d="M345.826 765.122l66.334-187.964 44.534-28.462 5.567-93.598z"/><path fill="#ede6cb" fill-opacity=".729" d="M522.25-62l61.318 96.735-245.777-93.619 55.78 104.061z"/><path fill="#796254" fill-opacity=".686" d="M360.472 100.052l230.084 9.261-105.509-21.54-71.274-63.6z"/><path fill="#0f0004" fill-opacity=".486" d="M349.146 818.003l103.474-64.446 63.57-188.473-120.636 251.661z"/><path fill="#fe9a78" fill-opacity=".255" d="M41.75 825.163l105.783-291.66 2.936 252.546 129.72 14.039z"/><path fill="#f80000" fill-opacity=".384" d="M261.813 556.355l32.12-26.75 52.015-46.178-99.029 190.432z"/><path fill="#001c74" fill-opacity=".38" d="M536.16 357.86l.004-10.811 38.721 77.253-27.369 33.654z"/><path fill="#000736" fill-opacity=".357" d="M395.142 286.191l41.064 119.194-97.578-131.927 7.366 129.944z"/><path fill="#975734" fill-opacity=".816" d="M133.162 663.635l52.326-60.798 32.225-1.036-70.727 67.018z"/><path fill="#1d1d13" fill-opacity=".4" d="M429.792 135.518l-37.674 68.536-22.374-118.463 210.442 45.429z"/><path fill="#a4afcb" fill-opacity=".733" d="M608.862 276.785L598.614-30.833l82.997 77.465-39.98 475.83z"/><path fill="#ff6f7b" fill-opacity=".38" d="M586.902 544.78l15.394-175.075-75.669 240.205-15.067-262.177z"/><path fill="#122353" fill-opacity=".651" d="M391.147 462.357l-4.854-60.286-218.763 28.64 41.705 35.937z"/><path fill="#070004" fill-opacity=".286" d="M772.032 605.035l44.272 173.834-58.902 1.499 59.011-196.854z"/><path fill="#eaefce" fill-opacity=".655" d="M767.232 595.768l45.582-138.541 51.741 91.359-56.277 33.148z"/><path fill="#96a5b9" fill-opacity=".682" d="M729.394 876.85l-145.78 5.96-48.776 14.911 151.877 85.39z"/><path fill="#d3e5ff" fill-opacity=".561" d="M814.788 734.014l-13.463 13.476L898 783.613l-17.906-69.775z"/><path fill="#a3a4b0" fill-opacity=".961" d="M65.551 1086L-62 949.317 79.616 845.97l12.712 102.842z"/><path fill="#3658ae" fill-opacity=".486" d="M351.742 973.865l53.365-46.104-95.272 6.884-47.381 24.134z"/><path fill="#0d0c23" fill-opacity=".592" d="M332.912 579.571l14.567-29.474-91.085 240.376-73.992 56.278z"/><path fill="#f8977c" fill-opacity=".408" d="M769.888 846.244L699.103 1086l33.156-263.34 35.267-58.15z"/><path fill="#8b9cad" fill-opacity=".537" d="M622.138 779.986l-24.929-109.642 153.093-59.922 29.025 108.566z"/><path fill="#731c0a" fill-opacity=".529" d="M467.826 772.07L526 601.966l37.437 33.472-49.125 28.777z"/><path fill="#f3fcdc" fill-opacity=".435" d="M473.7 802.697l154.723 81.32-117.569-138.454-15.862-43.995z"/><path fill="#e6d7f6" fill-opacity=".525" d="M560.066 486.063l21.495-39.326 4.637 60.613-8.363-10.588z"/><path fill="#a16a37" fill-opacity=".318" d="M555.42 272.8l20.61-143.703-110.27 240.738 27.813 25.684z"/><path fill="#000820" fill-opacity=".514" d="M506.302 507.582l14.444 52.045-25.266 6.754-29.652 57.833z"/><path fill="#3d0106" fill-opacity=".216" d="M898 687.927L812.818 394.8 898 354.778l-71.196 368.754z"/><path fill="#0b030f" fill-opacity=".62" d="M202.107 772.708l88.506-284.166-112.621 155.634-11.937 168.372z"/><path fill="#6d2d1a" fill-opacity=".851" d="M442.593 363.066l93.982-69.01-44.763 10.585 29.177 44.443z"/><path fill="#826955" fill-opacity=".659" d="M520.674 8.598l-62.628-2.702 42.712 57.394 53.685-27.581z"/></svg>