<svg xmlns="http://www.w3.org/2000/svg" width="228" height="278" viewBox="0 0 836 1024"><path fill="#656538" d="M0 0h836v1024H0z"/><g fill-opacity=".502"><path fill="#f4ff43" d="M598 418L202 266 46 1086z"/><path d="M458 34L-6-62l-12 636z"/><path fill="#00001b" d="M858 1086L466 194l432 192z"/><path fill="#d0cdf9" d="M790-62l108 248-452-20z"/><path fill="#000003" d="M426 790l60 296 412-184z"/><path fill="#d3db15" d="M442 1086l12-476-392 440z"/><path fill="#d9ed6b" d="M174 358l172-140 484 608z"/><path fill="#3a3d00" d="M106 894l108-120 404 72z"/><path fill="#e8be93" d="M754 714l-416 60 328 40z"/><path fill="#00000f" d="M126 714L-62 142l204 72z"/><path fill="#212050" d="M454 514l-80 108 224 184z"/><path fill="#00000e" d="M778 810l-360 64 416 212z"/><path fill="#ffff65" d="M586 526l-60-188-96-32z"/><path fill="#71333e" d="M418 394L302 206 590-62z"/><path fill="#adb4bb" d="M658 218L554-62 894-6z"/><path fill="#655e7b" d="M794 406l104-208L338 10z"/><path fill="#000215" d="M726 710l-56-500-184 64z"/><path fill="#fff72a" d="M582 682l-60-228 180 220z"/><path fill="#dcda43" d="M502 806L126 438l124 328z"/><path fill="#000110" d="M114 422L478-26-62 338z"/><path fill="#00001c" d="M562-34L366-62l228 180z"/><path fill="#9c8d00" d="M614 726L482 574l52-148z"/><path fill="#ece637" d="M126 438l68-104-44 208z"/><path fill="#929eff" d="M226 538l28 96 40-36z"/><path fill="#00011b" d="M518 626l-88 120 164-24z"/><path fill="#ab877c" d="M698 234L462 42l-68 132z"/><path fill="#000005" d="M898 646L558 426l72 164z"/><path fill="#d5cd1b" d="M198 826l208 168-216 92z"/><path fill="#d5d636" d="M426 794l52-164-328 52z"/><path fill="#0a162a" d="M834 210L690 714l184-20z"/><path fill="#32783f" d="M138 1086l64-144-52-144z"/><path fill="#f1ffbf" d="M706 674l-56-68 8 136z"/><path fill="#7b6d6e" d="M-62 598L54 994l80-348z"/><path fill="#ffff74" d="M758 798l-4-28h-80z"/><path fill="#b5ea8e" d="M314 254l-116 68 344 180z"/><path fill="#b6a90f" d="M294 766l-164 68 8-416z"/><path fill="#071643" d="M90 1086L26 874l-88 112z"/><path fill="#121924" d="M174 222L-62 486 94 622z"/><path fill="#151a2a" d="M506 1086l392-72-492-196z"/><path fill="#bdb301" d="M294 426l116 96-104 264z"/></g></svg>