<svg xmlns="http://www.w3.org/2000/svg" width="228" height="278" viewBox="0 0 836 1024"><path fill="#766863" d="M0 0h836v1024H0z"/><g fill-opacity=".502"><path fill="#fcf6e1" d="M898 22L10-62l-52 532z"/><path fill="#100" d="M454-62L710 974 54 934z"/><path fill="#fff" d="M826-62L498 218l400 260z"/><path fill="#f6fdf9" d="M266 422l172 296 64-164z"/><path fill="#fff" d="M174 1086l492-72-408-76z"/><path fill="#1b0000" d="M898 622L654 274 538 518z"/><path fill="#fff" d="M626 806l128-8-80-328z"/><path fill="#542c15" d="M318-62l16 748L542 54z"/><path fill="#1d0000" d="M134 406L-38 814l392-504z"/><path fill="#100" d="M666 486l-88 512-424-100z"/><path fill="#edf5f8" d="M342 262L198-62-62 522z"/><path fill="#000002" d="M826 890l-44-356-124 552z"/><path fill="#f7ffff" d="M110 638l12 184-112-20z"/><path fill="#0b1414" d="M-62 778l312 160-220 148z"/><path fill="#fff" d="M566 350l16 104-84-92zM430 510l-92 64 176 68z"/><path fill="#dfd3ca" d="M322 178L898 66l-32 324z"/><path d="M418-38L314 70l220 4z"/><path fill="#d3dcdb" d="M470-6l428-56-48 568z"/><path fill="#fff" d="M334 946l-156 84 396-16z"/><path fill="#7b686f" d="M238 282l-8 232 180-8z"/><path d="M94 730l140-192 244-72z"/><path fill="#0c0000" d="M634 402L474 586l168 404z"/><path fill="#2d0000" d="M786 534l-192-76-8-216z"/><path fill="#afb7b2" d="M362 614l168 72-176 24z"/><path fill="#a35a32" d="M326 58l180 268 40-188z"/><path fill="#cfdad5" d="M-62 498l148 28L26 90z"/><path fill="#fff" d="M582 1002l68 84 8-120z"/><path fill="#1c0000" d="M102 602l92-300 32 200z"/><path fill="#cddde4" d="M762 738l-100 96 28-336z"/><path d="M250 590l188 88H246z"/><path fill="#d4e6ec" d="M202 530L82 658l60-8z"/><path fill="#f4faf0" d="M434 666l-88-40 172-28z"/><path fill="#1a0002" d="M638 562l-244-60-28-252z"/><path fill="#3f060c" d="M314 502L206 946l200 4z"/><path fill="#e9e1bc" d="M2 210L502-62 226-30z"/><path fill="#1d090b" d="M590 986l256-116-636-216z"/><path fill="#e1e0de" d="M762-62l136 384-132 152z"/><path fill="#9e9e9a" d="M734-62L634 306l120-68z"/><path fill="#fff" d="M294 1086l92-136-172 8z"/></g></svg>