<svg xmlns="http://www.w3.org/2000/svg" width="228" height="278" viewBox="0 0 836 1024"><path fill="#6c6a75" d="M0 0h836v1024H0z"/><g fill-opacity=".502"><path fill="#e7faff" d="M146 1022l508-900-80 964z"/><path d="M682 1086l196-376-256-560z"/><path fill="#fff" d="M274 310L126 446l336 240z"/><path d="M150 1086L14 146l228 520z"/><path fill="#0f0000" d="M606-62L166-46-26 310z"/><path fill="#e0ecff" d="M658 994L250 702l-96 384z"/><path fill="#021022" d="M242 682l576-88 60 248z"/><path fill="#d5e9ff" d="M214 654l320-36-332-316z"/><path fill="#3e364b" d="M826 570L310-62h588z"/><path d="M-54 594l232-76 52 328z"/><path fill="#fff" d="M670 342L478 558l40-268z"/><path fill="#ffcea7" d="M110 782L-62 646l128 440z"/><path fill="#c97c51" d="M114 142l388-88-24 352z"/><path fill="#3f0000" d="M26 278L262-62l20 340z"/><path fill="#8990a1" d="M582 526l-236 80 352 456z"/><path fill="#000003" d="M646 338l8 296 208-108z"/><path d="M374 454l136-80-100 120z"/><path fill="#2b4c68" d="M278 326L-62 122l40 384z"/><path fill="#000009" d="M610 710l120 372 80-624z"/><path fill="#fff" d="M150 422l52 124 112-252z"/><path fill="#5f6583" d="M898 450L474 254 658 22z"/><path fill="#d1c5ce" d="M390 90l-108 4 12 212z"/><path d="M162 1086l56-420L90 970z"/><path fill="#dabbb9" d="M54 450l68 52-96 88z"/><path fill="#f5ffff" d="M634 470l-260 56 260-204z"/><path fill="#0c121b" d="M602 742l16 172-52-28z"/><path fill="#e0ebfc" d="M666 862l-116 152 72-204z"/><path fill="#6b4018" d="M578 510l-60-4 16 184z"/><path d="M146 378l80 436L74 662zm164-44l-4 56 88 84z"/><path fill="#9ca9bf" d="M634 622L258 918l304-32z"/><path fill="#262823" d="M378 46l200 112 88-220z"/><path fill="#5f687e" d="M286 826l120-92-216-188z"/><path fill="#031e51" d="M722 274l-248 28 28-80z"/><path fill="#718cb4" d="M330 302L62 362l-124-88z"/><path fill="#966460" d="M794 250l12-140-528 56z"/><path d="M274 90L94 118 214-62z"/><path fill="#f5fdff" d="M522 586L146 426l100-72z"/><path fill="#c7340c" d="M210 278l108-116-144-40z"/><path fill="#d6e0ff" d="M214 1086l-16-216 108-196z"/></g></svg>