<svg xmlns="http://www.w3.org/2000/svg" width="228" height="278" viewBox="0 0 836 1024"><path fill="#4c433f" d="M0 0h836v1024H0z"/><g fill-opacity=".502"><path fill="#fd9296" d="M658 318l112 432-524-100z"/><path fill="#fff" d="M690 934l-448 108 480 44z"/><path fill="#51f5ff" d="M334 290L86 770l76-380z"/><path fill="#000c00" d="M402-10L-42-2l40 724z"/><path fill="#c4aaa9" d="M774 690L470 42 314 166z"/><path fill="#00140c" d="M862 1022L898-26l-344-4z"/><path fill="#911221" d="M650 954l-24-592-396 20z"/><path fill="#ffdec9" d="M746 682l-216 404 232-184z"/><path fill="#d6ffff" d="M678 366l40 260-148-324z"/><path fill="#f6e4dc" d="M358 570l280 16-480 116z"/><path fill="#3a0000" d="M414 634l260 296-736 56z"/><path fill="#00150d" d="M550-26l148 392-196-100z"/><path fill="#fff" d="M722 1086l-480-60 448-64z"/><path fill="#003520" d="M626 462l-32 340 120 56z"/><path fill="#27c7ff" d="M106 586l116 32 40-308z"/><path fill="#ffccb3" d="M458 390L438 58l84 88z"/><path fill="#ff3140" d="M610 554L378 790l212-40z"/><path fill="#1e3b0f" d="M-58 634l92 452 380-316z"/><path fill="#d4ffff" d="M750 698l-96-360-44 132z"/><path fill="#d49691" d="M258 686L90 706l32-136z"/><path fill="#b2ffff" d="M530 286l-16 44 140 48z"/><path fill="#590915" d="M158 662l332-336 152 60z"/><path fill="#000801" d="M774 1082l112-64-132-368z"/><path fill="#fff" d="M578 566l-152 40 128 32z"/><path fill="#1a0010" d="M390 350l-128 28-28 320z"/><path fill="#d7223a" d="M642 826l40 96-172 60z"/><path fill="#5cf" d="M210 346l204-48-272 152z"/><path fill="#011a0f" d="M-62 366L74 718l104-364z"/><path fill="#ffc9aa" d="M362 326l156-48-60 76z"/><path fill="#fff" d="M666 934l-272 108 340 44z"/><path fill="#102916" d="M-62 570L162-62l200 296z"/><path fill="#062f29" d="M898 442L518-62l-16 336z"/><path fill="#ffc094" d="M670 550l72 268V606z"/><path fill="#6c0810" d="M566 550l-124 40-108-292z"/><path fill="#46051f" d="M606 738l-384 288 352-56z"/><path fill="#9c605c" d="M606 558l116 252-12-212z"/><path fill="#d5ecef" d="M506 430l68 4-68 32z"/><path fill="#bab0c5" d="M374 486l-64-32v48z"/><path fill="#121e14" d="M514 66l-576 36L238-62z"/><path fill="#b4ffff" d="M690 422l-40-80-128-56z"/></g></svg>