<svg xmlns="http://www.w3.org/2000/svg" width="228" height="278" viewBox="0 0 836 1024"><path fill="#387555" d="M0 0h836v1024H0z"/><g fill-opacity=".502"><path fill="#8affe9" d="M602 250l192 836L74 466z"/><path d="M830-62L-62 22l960 444z"/><path fill="#71ffc3" d="M350 1086l548-88-492-716z"/><path fill="#120000" d="M-62 426L-2-62l900 88z"/><path d="M586 550l288 64-4 316z"/><path fill="#000001" d="M62 946l304 140-208-572z"/><path fill="#a9fdba" d="M426 438l-24-324 388 408z"/><path fill="#69ffc1" d="M-62 778l88 308 156-808z"/><path d="M390 26l508-88-104 612z"/><path fill="#874012" d="M550 102L154 266l168 172z"/><path d="M-62-62h448L-2 510z"/><path fill="#ffe1de" d="M-62 990l340 96L46 934z"/><path fill="#4ee798" d="M26 462l160-184 460 616z"/><path fill="#08e283" d="M710 626L542 478l356-12z"/><path fill="#009644" d="M346 914l152-140L38 446z"/><path d="M898 950L650 650l224-80z"/><path fill="#60eeaa" d="M898 966L326 350l60 736z"/><path fill="#7debb5" d="M586 266L118 522l600-40z"/><path d="M898 314l-440-76L790-62z"/><path fill="#002600" d="M358 370L254 222l-20 212z"/><path fill="#0bc17b" d="M338 918l292 88-300-380z"/><path fill="#ffa66e" d="M498 186l-72 64-76-108z"/><path fill="#020032" d="M418 1086L54 942l60-288z"/><path fill="#9cfac4" d="M698 734L558 478l-284 96z"/><path fill="#f7dbef" d="M210 342L66 402l96-96z"/><path fill="#010000" d="M-62 510L14-62l252 268z"/><path fill="#003e08" d="M322 906L122 562l172 80z"/><path fill="#006723" d="M582 514l108 152-108-304z"/><path fill="#89ebb1" d="M738 750l-132 284 292-12z"/><path fill="#00a55b" d="M174 346l-92 72 268-4z"/><path fill="#beffd2" d="M482 946l-112 44 324 96z"/><path fill="#140000" d="M478 158l420 268-140 48z"/><path fill="#ca8750" d="M262 158l28 40-88 120z"/><path fill="#030000" d="M826 234l36-296-624 184z"/><path fill="#00c784" d="M766 778l-276 88 60-88z"/><path fill="#9efed3" d="M570 270l116 300 44-88z"/><path fill="#033880" d="M82 742l88 72L66 978z"/><path fill="#029650" d="M-2 594l44 124 64-320z"/><path fill="#009b4b" d="M690 914l88 172-68-20z"/><path fill="#0c0507" d="M86 930l144 156 92-192z"/></g></svg>