<svg xmlns="http://www.w3.org/2000/svg" width="228" height="278" viewBox="0 0 836 1024"><path fill="#69453f" d="M0 0h836v1024H0z"/><g fill-opacity=".502"><path fill="#fff" d="M726 778l72 212-592 96z"/><path fill="#082603" d="M890 566L878-2 194-6z"/><path fill="#d9213c" d="M518 170L86 398l628 416z"/><path fill="#3c0507" d="M-62 466l600 484L138-62z"/><path fill="#779d84" d="M10 1062l436-20-508-568z"/><path fill="#9bac96" d="M846 1086L618 590l280-16z"/><path fill="#dff6ff" d="M798 986l-360-8 268-204z"/><path fill="#7b0001" d="M702 782L310 542l64 436z"/><path fill="#022b0e" d="M222 202L10-62l-56 760z"/><path fill="#ab4b53" d="M122 326l476 208L74 682z"/><path fill="#0d1302" d="M534 434l68 148 288-16z"/><path fill="#b6dad4" d="M-62 654l216 16-16-92z"/><path fill="#410b0f" d="M574 646L122 442l76 380z"/><path fill="#cc8977" d="M366 622l148-444 20 368z"/><path fill="#b20826" d="M602 426L82 502l112-220z"/><path fill="#bfc2c0" d="M414 1078l-96-56-8-232z"/><path fill="#c1bfc5" d="M582 586l48 76 268-52z"/><path fill="#dbffff" d="M298 434l-20 60 68-36z"/><path fill="#ff3a59" d="M542 386l-20-180-172-4z"/><path fill="#a9ce98" d="M398 474l-92 124 236-164z"/><path fill="#c50c34" d="M510 554l200 208-140 116z"/><path fill="#dfeaff" d="M718 790l64 164-216 132z"/><path fill="#000300" d="M178 230l156 108-24-116z"/><path fill="#2c1907" d="M542 458V294l196 144z"/><path fill="#464d3f" d="M718 802l-28-160 200 40z"/><path fill="#0c290c" d="M586 190l-272-72 20 88z"/><path fill="#90a4c4" d="M630 906l76 180-384-96z"/><path fill="#121109" d="M182 746l244-216-172 276z"/><path fill="#bbeaec" d="M146 558l-44-52 24 84z"/><path fill="#112918" d="M-2 590l128 4-88-220z"/><path fill="#001910" d="M46-62l196 84-124 68z"/><path fill="#69453f" d="M194 714l96-188 204 4z"/><path fill="#7c000f" d="M90 482l152 200 52-252z"/><path fill="#5c000c" d="M362 958l280-476-312 180z"/><path fill="#575b4e" d="M330 734L98 950l196 16z"/><path fill="#e33451" d="M374 198l44 220 120-188z"/><path fill="#85655f" d="M142 66l128-24 108 232z"/><path fill="#cf354e" d="M614 594l136 220-104-32z"/><path fill="#8b011b" d="M458 938l152-96-104-272z"/><path fill="#131a1b" d="M610 1070l-32-96-16 84z"/></g></svg>