<svg xmlns="http://www.w3.org/2000/svg" width="228" height="278" viewBox="0 0 836 1024"><path fill="#638582" d="M0 0h836v1024H0z"/><path fill="#64ceed" fill-opacity=".871" d="M542.786 343.229L156.642 303.05l200.868 729.74 153.301 37.33z"/><path fill="#ced4d0" fill-opacity=".996" d="M155.822 10.26L264.678-62l1.051 172.79-99.104 241.368z"/><path fill="#512b00" fill-opacity=".341" d="M218.407 208.874l99.766-222.246L898 56.172l-76.392 503.107z"/><path fill="#004975" fill-opacity=".592" d="M272.114 431.7l37.29 554.217L141.473 1086l3.906-436.107z"/><path fill="#983200" fill-opacity=".29" d="M182.397 682.47L209.132 1086l-214.852-8.39L-62 276.348z"/><path fill="#150505" fill-opacity=".49" d="M146.01 51.877L-62 40.897v141.037l115.839 97.373z"/><path fill="#ffcbaa" fill-opacity=".49" d="M574.808 624.745l117.673 220.99-185.672-126.86-289.445-46.002z"/><path fill="#e89e77" fill-opacity=".616" d="M509.677 35.916l25.337 131.572-138.199 21.021-23.598-152.997z"/><path fill="#190404" fill-opacity=".616" d="M694.437 962.738L524.096 759.857l-15.952-32.896L741.34 926.416z"/><path fill="#1f0c00" fill-opacity=".616" d="M398.472-9.258L337.47 302.986l185.443-5.344L274.903 79.76z"/><path fill="#0e5004" fill-opacity=".345" d="M562.215 363.495l318.578 20.76L737.26 676.631l-168.732-17.73z"/><path fill="#7dd6ef" fill-opacity=".835" d="M557.957 356.521l-93.514-40.986-58.331 215.307 156.702 89.11z"/><path fill="#c3bacd" fill-opacity=".447" d="M648.723 359.235L898 342.023l-62.608-130.851-146.81 25.022z"/><path fill="#2c9fc8" fill-opacity=".827" d="M205.721 725.519l76.718 235.554 55.728-387.892-33.77-63.863z"/><path fill="#4fc1e3" fill-opacity=".675" d="M67.038 556.744l105.993 42.349L364.948 293.64 211.79 313.91z"/><path fill="#ffb889" fill-opacity=".537" d="M164.495 803.305L38.24 695.465l79.055-160.571 12.28 155.54z"/><path fill="#230f02" fill-opacity=".569" d="M43.784 650.774l-79.213 28.071 266.842 268.012L61.841 718.669z"/><path fill="#eae8dc" fill-opacity=".851" d="M825.007 1010.73L719.269 1086l8.992-77.797-19.923-18.17z"/><path fill="#041c3e" fill-opacity=".584" d="M347.214 1013.645l-51.88-85.597-166.05 2.29 6.514 59.466z"/><path fill="#c33b00" fill-opacity=".145" d="M523.222 626.494L898 548.546 833.006 962.11 530.39 1086z"/><path fill="#5f3121" fill-opacity=".584" d="M358.16 472.683l-10.59 59.707 53.854 4.57 2.147-48.102z"/><path fill="#fae5da" fill-opacity=".635" d="M358.37 965.096l-81.035-80.147 69.582 1.353 19.7 27.23z"/><path fill="#021f19" fill-opacity=".357" d="M548.791 248.285l-158.315 10.998 230.098 56.733L898-.994z"/><path fill="#4b5d4f" fill-opacity=".882" d="M-55.907 837.746l152.9-347.25 44.544-93.804-136.636 4.93z"/><path fill="#0e2014" fill-opacity=".498" d="M100.329 659.64l84.626-69.372 28.183 96.609-13.85 102.346z"/><path fill="#3a4d48" fill-opacity=".816" d="M310.788 24.907l-29.944 260.867-64.874 42.278 16.374-124.561z"/><path fill="#bc9795" fill-opacity=".349" d="M143.067 434.042L-62 335.109l297.672-186.594-20.369 196.924z"/><path fill="#41a35c" fill-opacity=".549" d="M565.109 193.627L443.834-62l247.674 163.76-24.086 113.108z"/><path fill="#004386" fill-opacity=".596" d="M685.176 835.728l34.196 225.08-44.16-95.732 120.213 35.117z"/><path fill="#ffb894" fill-opacity=".482" d="M588.637 821.358l-24.495-201.911 26.842 42.648 93.355 190.93z"/><path fill="#c6edf8" fill-opacity=".792" d="M470.192 637.494l-123.812-10.48-35.227 61.067 137.01 18.829z"/><path fill="#56ccec" fill-opacity=".71" d="M539.724 1077.04L271.131 815.184l-9.206-188.904 242.96 230.314z"/><path fill="#01728b" fill-opacity=".647" d="M214.878 440.695L336.84 609.25l-155.673-34.095 71.056 286.337z"/><path fill="#ffa088" fill-opacity=".455" d="M535.565 187.645l-96.691 13.539 58.149 61.5 14.067-2.988z"/><path fill="#000714" fill-opacity=".569" d="M686.287 825.554l-58.112 79 158.06 96.6-76.417-28z"/><path fill="#262121" fill-opacity=".376" d="M163.028 361.956l-58.566 85.005 27.652-109.187L131.844-62z"/><path fill="#54ba6e" fill-opacity=".388" d="M679.353 458.785l-168.111 27.116 30.338 140.526 109.43 55.745z"/><path fill="#f0f5f3" fill-opacity=".804" d="M189.856 150.016l77.49-24.832L251.021-62h-64.454z"/><path fill="#090100" fill-opacity=".631" d="M459.27 22.203L322.45 49.48l133.011-80.525 9.325 70.988z"/><path fill="#0f062c" fill-opacity=".384" d="M551.505 363.036L898 465.918l-145.386-124.03L651.049 463.51z"/><path fill="#edeee5" fill-opacity=".498" d="M251.4 972.6l50.58 113.4 114.335-39.182L221.66 984.18z"/><path fill="#957a6c" fill-opacity=".439" d="M286.384 153.093l167.33 205.978-69.258-24.655-119.185-104.398z"/><path fill="#62825e" fill-opacity=".859" d="M761.29 654.816l98.06 35.526L898 466.42l-153.81 2.59z"/><path fill="#ffbf9a" fill-opacity=".604" d="M394.994 70.673l123.384 3.36-51.452-42.967-55.495 3.065z"/><path fill="#1d61fc" fill-opacity=".361" d="M261.516 843.696l53.41-7.606-64.65 150.151-69.222-110.2z"/><path fill="#898c88" fill-opacity=".996" d="M95.393 152.284l-35.534-19.251L42.46-2.07l.74 112.103z"/><path fill="#efb689" fill-opacity=".514" d="M73.919 583.825l96.179 1.294L61.497 689.406l108.431 92.634z"/><path fill="#54d3f6" fill-opacity=".596" d="M204.15 341.258l70.063 189.39 219.636-131.39L306.71 279.491z"/><path fill="#133040" fill-opacity=".945" d="M189.618 874.303L206.243 1086l-53.978-237.277 114.996-19.367z"/><path fill="#2f9bfe" fill-opacity=".616" d="M715.815 947.327l57.228-14.487-8.978-27.012 8.183 84.2z"/><path fill="#251000" fill-opacity=".388" d="M427.334 345.914l-37.472-248.54-66.413 192.503 200.41-37.852z"/><path fill="#167bb3" fill-opacity=".984" d="M174.258 777.22l-34.764 50.595 106.861-73.369 20.723 83.857z"/><path fill="#0075cd" fill-opacity=".58" d="M407.755 1000.331l-96.26-40.189 17.229 51.34 89.984 5.486z"/><path fill="#2b2500" fill-opacity=".278" d="M279.826-49.527l-8.725 76.853L487.334 88.86 263.58 154.85z"/><path fill="#faf8ff" fill-opacity=".196" d="M439.317 403.21l118.34-78.15-72.857-55.605-13.468 27.575z"/><path fill="#818778" fill-opacity=".569" d="M70.586 1086L-62 783.464V629.073l216.42 270.275z"/><path fill="#abc3c6" fill-opacity=".592" d="M349.343 320.727L207.856 351.05 99.829 517.265l75.893-195.697z"/><path fill="#070406" fill-opacity=".682" d="M316.998 948.593l-17.191-13.944-30.033 69.61 40.233 3.464z"/><path fill="#3c693f" fill-opacity=".667" d="M898 83.867L626.35 39.96l-52.733 28.714 231.519 147.475z"/><path fill="#fde1dc" fill-opacity=".443" d="M125.608 209.57l-1.917 88.61-15.234-168.47 13.587-18.82z"/><path fill="#9d6d57" d="M326.177 125.672l-18.01 41.82 58.112 28.538.027-24.443z"/><path fill="#69442f" fill-opacity=".4" d="M525.354 626.827l40.204-3.15 1.55-11.362-50.412 214.295z"/><path fill="#1b2c26" fill-opacity=".298" d="M696.49 685.57l-78.645-509.649L563.91 444.83l202.785 82.812z"/><path fill="#758a71" fill-opacity=".835" d="M389.61-41.693l133.853 89.12L898 36.89 794.856-62z"/><path fill="#7c7e6c" fill-opacity=".976" d="M840.799 1086l-1.06-421.024-200.892 86.283L767.83 945.794z"/><path fill="#b3b1b8" fill-opacity=".624" d="M166.841 835.492l-12.885-.928 47.251-45.383 13.023 14.727z"/><path fill="#ced8d5" fill-opacity=".494" d="M89.291 545.276l98.973-175.5-9.218-386.117 52.943 269.486z"/><path fill="#6b6072" fill-opacity=".408" d="M708.58 408.816l99.814-81.338-349.907-42.322 97.377 84.707z"/><path fill="#101311" fill-opacity=".824" d="M575.852 805.984l51.652 57.78 116.594 70.929-60.217 18.56z"/><path fill="#252725" fill-opacity=".408" d="M63.35 118.131l46.58 69.69-14.543 71.961L-43.39 199.31z"/><path fill="#f4e3e3" fill-opacity=".6" d="M486.279 524.111l13.139 35.662-67.082-11.77L442 517.479z"/><path fill="#6bd1ec" fill-opacity=".765" d="M396.062 698.799l122.78 4.375-.272 357.699-116.36-217.94z"/><path fill="#53cdf5" fill-opacity=".663" d="M176.464 594.893l7.62-48.5-68.595.3-61.214 8.74z"/><path fill="#e1dfdd" fill-opacity=".169" d="M671.997 402.265l220.535-240.407L898 456.148l-191.335-259.65z"/><path fill="#10a0c0" fill-opacity=".424" d="M348.019 539.48l53.05 101.696-204.086-80.291 16.244 143.063z"/><path fill="#ffaf82" fill-opacity=".282" d="M463.361 108.522l-107.92 18.338 19.672-94.428 77.403 197.559z"/><path fill="#005f7f" fill-opacity=".18" d="M6.174 564.34l236.367-152.005 50.224 87.09L-62 594.542z"/><path fill="#3fc1e5" fill-opacity=".569" d="M362.613 673.43l59.96 359.952-94.863-207.396 99.45-265.21z"/><path fill="#d57e4c" fill-opacity=".353" d="M86.298 769.79l61.711 39.51-83.787-226.705-41.625 77.111z"/><path fill="#eff2ea" fill-opacity=".788" d="M808.532 1082.357l-87.81-73.36 3.82-20.008 14.36-5.142z"/><path fill="#a1a19e" fill-opacity=".659" d="M49.764 267.176L-62 195.977l175.78 136.488-124.432 71.26z"/><path fill="#dec3a9" fill-opacity=".518" d="M204.118 889.557l4.427 3.942-8.107-36.733 34.94 49.243z"/><path fill="#1c1725" fill-opacity=".533" d="M294.726 856.816l2.764 9.123 13.173 26.204 18.114-20.364z"/><path fill="#010703" fill-opacity=".404" d="M293.11 155.642l199.914 118.671 2.433-12.158-58.907 53.622z"/><path fill="#139dd5" fill-opacity=".635" d="M549.12 559.782l.29-.979 19.494 50.796-49.097 25.397z"/><path fill="#9ba19b" fill-opacity=".58" d="M187.444 358.248l-29.121-2.144-5.325-102.128L158.271-62z"/><path fill="#6d472e" fill-opacity=".482" d="M378.298 165.16l40.411 72.368 65.638-122.675 33.25 42.756z"/><path fill="#a28463" fill-opacity=".745" d="M411.795 336.764l46.098 12.905-52.873-54.724-71.981 5.088z"/><path fill="#dc93a9" fill-opacity=".408" d="M509.28 464.464l7.422 68.231 36.187 15.47-3.938-72.803z"/><path fill="#74735e" fill-opacity=".537" d="M555.215 1086l-49.682-336.33 152.202 162.55 89.947 137.58z"/><path fill="#9da29c" d="M37.923 127.479L-62 180.733 76.693 313.808-40.582 195.16z"/><path fill="#6df" fill-opacity=".557" d="M572.584 449.773l-147.777 56.19L233.863 381.97l306.695-21.564z"/><path fill="#fca93f" fill-opacity=".482" d="M516.416 648.94l-13.977-8.837-29.735 41.66-17.008 31.489z"/><path fill="#000b18" fill-opacity=".204" d="M389.017-5.056L278.844 138.347l-41.231 11.116-28.17 198.617z"/><path fill="#3cb6df" fill-opacity=".435" d="M364.6 687.584L153.194 875.021l78.368-49.673 170.984 77.935z"/><path fill="#ecb898" fill-opacity=".322" d="M689.73 839.048l-58.774-94.672-74.053-145.859 73.511 269.3z"/><path fill="#94a9c2" fill-opacity=".255" d="M354.513 273.73l-12.152-47.152-65.392-53.832L258.72 239.6z"/><path fill="#a4a7a3" d="M115.36 163.138L298.101-62l-190.21 234.616-63.071-66.578z"/><path fill="#f5f0e1" fill-opacity=".557" d="M325.309 857.568l50.384 76.326-34.762 26.859-21.895-63.15z"/><path fill="#000602" fill-opacity=".337" d="M82.235 36.988L-62 217.283V-62L85.76 127.589z"/><path fill="#0e3040" fill-opacity=".933" d="M181.534 856.908l18.098 63.827 26.787-24.518L166.424 1086z"/><path fill="#62d0ed" fill-opacity=".769" d="M451.115 619.312l114.228-73.372-129.009 17.297-11.052 182.855z"/><path fill="#00b0c7" fill-opacity=".412" d="M285.37 1050.416l-17.327-39.707-66.08-32.652-4.179 14.756z"/><path fill="#fecaa8" fill-opacity=".38" d="M416.354 105.8l27.438 77.368 31.748-80.383 93.471 47.744z"/><path fill="#556b4f" fill-opacity=".525" d="M522.951-28.679L262.298-55.633l4.962 210.596 75.834-130.719z"/><path fill="#0d0900" fill-opacity=".404" d="M96.4 812.964l-30.623-30.06-87.566-117.018L204.26 885.272z"/><path fill="#1d91fb" fill-opacity=".482" d="M672.159 964.405l65.697-25.14 52.48 36.993-30.49-13.063z"/><path fill="#074f61" fill-opacity=".616" d="M203.332 556.632l92.982 21.254-54.328-82.403-38.71 72.012z"/><path fill="#dda97f" fill-opacity=".553" d="M172.012 780.972l-36.103 20.739-38.604-58.135-6.489-94.917z"/><path fill="#000001" fill-opacity=".518" d="M346.05 108.686l9.147-93.806-40.9 32.633.74 87.224z"/><path fill="#000001" fill-opacity=".333" d="M174.913 881.264l74.902-90.255-69.174 39.494 73.686-4.807z"/><path fill="#148bff" fill-opacity=".365" d="M751.382 922.56l-41.427-32.62-31.29-68.286 19.332 82.539z"/><path fill="#1db4df" fill-opacity=".357" d="M448.744 350.691l-63.314 45.993-87.794-56.66 22.9-33.169z"/><path fill="#003239" fill-opacity=".671" d="M170.413 772.224l8.767-159.96 30.494-.221-2.274 162.792z"/><path fill="#284d5e" fill-opacity=".471" d="M115.054 343.879l66.673-5.501L90.561 455.53l42.628-18.162z"/><path fill="#210026" fill-opacity=".22" d="M242.455 297.176l152.906-52.444 269.01 76.347-15.442-97.358z"/><path fill="#454a4f" fill-opacity=".776" d="M106.953 79.664l41.016 55.075 2.377-165.69-40.59 129.755z"/><path fill="#110026" fill-opacity=".176" d="M749.351 366.114l-78.874 73.053 195.463 19.735-97.843-175.234z"/><path fill="#41ac57" fill-opacity=".278" d="M548.476 441.49l115.853-12.658 4.033 233.28-91.146-16.917z"/><path fill="#fff9f2" fill-opacity=".447" d="M522.5 707.02l-94.48-31.129-.528-47.846-71.066 66.48z"/></svg>