<svg xmlns="http://www.w3.org/2000/svg" width="228" height="278" viewBox="0 0 836 1024"><path fill="#786b3c" d="M0 0h836v1024H0z"/><path fill="#d5e8ff" fill-opacity=".51" d="M50.356 639.671L-62 784.684l316.82 285.251 74.676-124.874z"/><path fill="#adc22c" fill-opacity=".702" d="M802.9 1086L497.21 351.052 248.953 280.74 294.398 1086z"/><path fill="#390111" fill-opacity=".769" d="M540.902 203.501L898 773.389 887.37-.89 570.775-62z"/><path fill="#bcc5ff" fill-opacity=".761" d="M898 1045.912l-182.244 9.901-89.894-239.147 42.01-28.999z"/><path fill="#431022" fill-opacity=".663" d="M-22.17-2.476L.95 672.565l154.63-53.025L284.262-62z"/><path fill="#000930" fill-opacity=".529" d="M628.654 740.718l204.74-14.19L898 1010.826 611.005 755.213z"/><path fill="#96b1fd" fill-opacity=".624" d="M898 728.76l-216.562-.09 42.087-63.233L898 660.353z"/><path fill="#92ad12" fill-opacity=".753" d="M569.609 277.523l-375.622 91.8 258.774 680.24 222.307-658.47z"/><path fill="#852149" fill-opacity=".478" d="M164.778 864.006l402.62 110.92 81.75-296.406-210.281 211.714z"/><path fill="#6c6458" fill-opacity=".816" d="M182.906 767.262L-62 947.457 286.967 513.1l-2.3 438.003z"/><path fill="#afcbfd" fill-opacity=".58" d="M162.943 726.687l117.23-1.19 34.052-62.342-115.147 10.39z"/><path fill="#516f3a" fill-opacity=".933" d="M513.169 608.237l-246.75-24.649-98.884-38.411 338.854 4.78z"/><path fill="#a89296" fill-opacity=".502" d="M408.615-62l130.12 53.823 1.98 289.967-121.997-51.288z"/><path fill="#e4fb25" fill-opacity=".38" d="M270.901 890.212L150.798 1086l238.949-9.513-78.587-551.291z"/><path fill="#b2c0fc" fill-opacity=".541" d="M232.505 797.75l-24.729 219.947-134.908-129.77 61.198-121.16z"/><path fill="#b2c0fb" fill-opacity=".549" d="M-62 938.317V657.66l173.465 5.678 58.227-38.995z"/><path fill="#1c293d" fill-opacity=".58" d="M262.413 1086l-319.33-279.092-2.581 151.834L79.484 1086z"/><path fill="#57251e" fill-opacity=".62" d="M387.35 239.9l-169.535-58.39 144.577 186.28 73.513-36.105z"/><path fill="#500116" fill-opacity=".522" d="M196.968 862.356l187.18 67.828 176.145-24.124-209.35-23.577z"/><path fill="#554304" fill-opacity=".706" d="M274.967 498.207l13.402 119.91-142.377 97.803 94.817-263.465z"/><path fill="#3c2726" fill-opacity=".725" d="M449.446 127.748L335.464 45.34 200.342 79.71 357.405-62z"/><path fill="#3f0404" fill-opacity=".514" d="M626.364 551.656l89.871-39.764L630.79 659.98l-91.64-232.55z"/><path fill="#c5e22e" fill-opacity=".561" d="M199.655 361.66l31.778-62.042 87.939-9.995 40.567 224.81z"/><path fill="#d6d7be" fill-opacity=".353" d="M577.18 308.839l199.81 307.24-111.374-218.985L609 307.264z"/><path fill="#4e1219" fill-opacity=".914" d="M694.225 659.052l63.132-12.244-20.219-353.873L898 648.765z"/><path fill="#cb786c" fill-opacity=".431" d="M345.696 46.331l-93.734 31.06-.352 115.661 200.012 14.957z"/><path fill="#e4f94b" fill-opacity=".443" d="M445.618 1086l254.04-27.2-71.977-149.282-26.772 1.84z"/><path fill="#a46c4a" fill-opacity=".859" d="M473.314 951.266l245.726-440.21 44.015 92.643-31.75 66.319z"/><path fill="#a9c21a" fill-opacity=".922" d="M572.777 342.223l22.084 37.764-332.165 127.459 212.185-225.223z"/><path fill="#c5e600" fill-opacity=".29" d="M280.293 591.155l94.487 312.993 170.648-100.927 78.21-176.721z"/><path fill="#001a21" fill-opacity=".286" d="M233.571 949.789l-15.886-234.282-185.883 125.44 266.845-114.688z"/><path fill="#70004f" fill-opacity=".6" d="M649.822 909.755l-96.006-6.436 123.131-39.635-17.567 6.003z"/><path fill="#775934" fill-opacity=".698" d="M462.85 566.292l26.883-114.73-54.588-25.85-23.158 49.158z"/><path fill="#422d2a" fill-opacity=".875" d="M889.843 252.435L666.893 361.99l-122.36-97.402-4.604-89.697z"/><path fill="#a88f6b" d="M234.51 426.477l-65.615 194.976-48.244 72.966 23.654-69.18z"/><path fill="#687ba3" fill-opacity=".573" d="M645.402 807.482L898 1041.955l-80.472-114.368-171.18-162.657z"/><path fill="#443c32" fill-opacity=".624" d="M-62 203.629l181.775-47.768 309.14 93.423L229.09 313.15z"/><path fill="#e9efff" fill-opacity=".376" d="M609.928 1086l58.82-90.623 88.476-65.537 109.184 106.366z"/><path fill="#b8620f" fill-opacity=".361" d="M133.44 776.966l72.815-143.12L26.904 809.06l60.46 41.728z"/><path fill="#d8fe31" fill-opacity=".49" d="M619.235 494.72l11.466-85.033 41.625-10.957 17.7 49.192z"/><path fill="#f8caa3" fill-opacity=".216" d="M580.505 762.958l-135.977 98.194 74.552 20.41 163.736-10.244z"/><path fill="#5e78b5" fill-opacity=".431" d="M-43.433 782.32l41.539 79.376L251.418 1076.5 92.821 896.703z"/><path fill="#46382a" fill-opacity=".596" d="M238.382 156.208L440.47 86.626 394.847-.848l-55.66 157.043z"/><path fill="#598d00" fill-opacity=".506" d="M611.361 454.197l7.58 149.02-35.905 35.673-62.806-241.378z"/><path fill="#d2df59" fill-opacity=".898" d="M294.206 1086L282.74 895.268l-46.55 29.292L183.58 1086z"/><path fill="#5e2e2a" fill-opacity=".784" d="M-5.872 619.208L212.53 508.129l-6.16-148.48-189.886-94.71z"/><path fill="#b70126" fill-opacity=".631" d="M624.78 574.206l118.548-78.197-25.565 33.614-33.483 35.501z"/><path fill="#5b774b" fill-opacity=".643" d="M629.943 359.583l-14.57 57.426-94.348-172.537-61.358 29.15z"/><path fill="#bffb3e" fill-opacity=".475" d="M720.332 469.947l1.135-5.056-26.712 44.471-102.674 45.608z"/><path fill="#cc724e" fill-opacity=".459" d="M396.786 149.622l87.941 96.354-87.195 95.934L444.95 91.46z"/><path fill="#c6d2d8" fill-opacity=".392" d="M473.269 476.603l-66.859 2.01 44.948-30.682 37.85 38.434z"/><path fill="#2c3f69" fill-opacity=".4" d="M141.383 624.625L-62 653.555l117.465 22.212 73.731-8.43z"/><path fill="#729176" fill-opacity=".643" d="M712.36 1086l-26.356-131.782-42.537-56.105-4.764 31.35z"/><path fill="#a29f89" fill-opacity=".859" d="M231.68-62l221.681 3.29L432.67 65.046l-24.426-42.86z"/><path fill="#91cf0f" fill-opacity=".439" d="M211.056 498.34l71.34 18.058-21.111-185.113-51.03 20.176z"/><path fill="#fcd2c7" fill-opacity=".247" d="M246.517 109.786l75.02 62.172-41.828 55.752.532-207.73z"/><path fill="#aec824" fill-opacity=".612" d="M493.394 940.937L177.724 1086l124.74-128.618 89.724-38.755z"/><path fill="#100008" fill-opacity=".424" d="M491.053 925.49l12.325-80.822-11.053 46.792-190.096-3.714z"/><path fill="#1e1900" fill-opacity=".588" d="M408.81 231.309l-41.936 69.623-51.598-21.277 85.64-60.928z"/><path fill="#0039c1" fill-opacity=".329" d="M674.869 462.148l24.347-10.008 1.79 42.164-80.38 4.868z"/><path fill="#fdf37a" fill-opacity=".227" d="M204.72 339.603l113.243 26.01 33.203-66.67-68.118-25.401z"/><path fill="#482f1a" fill-opacity=".643" d="M218.151 501.537l45.556 141.32 32.665 32.347-18.457-156.188z"/><path fill="#001004" fill-opacity=".196" d="M859.433 735.526l-215.33-26.32 122.055 152.989L898 1054.183z"/><path fill="#cbde9f" fill-opacity=".31" d="M651.13 370.824l-44.17-61.596-121.943-74.772 21.202 26.48z"/><path fill="#bb0217" fill-opacity=".341" d="M493.237 238.683l-70.44 100.04-119.25-27.307 63.78 63.374z"/><path fill="#2a3c35" fill-opacity=".392" d="M290.514 726.683l-31.485 211.7-32.042-157.945-90.815-30.53z"/><path fill="#89ac02" fill-opacity=".616" d="M538.303 1086l-67.974-161.491-71.168 62.014-144.294-44.44z"/><path fill="#819e00" fill-opacity=".6" d="M590.212 801.596L433.49 611.11l-78.813-14.07 2.958 16.884z"/><path fill="#511115" fill-opacity=".725" d="M703.418 469.967l103.54 181.227L898 366.885l-275.402-50.159z"/><path fill="#8db200" fill-opacity=".722" d="M521.427 365.578l46.396 190.81-174.962-4.59 79.46-37.243z"/><path fill="#8296c4" fill-opacity=".4" d="M231.904 945.769l8.693-152.383-31.15-25.381-59.06 2.453z"/><path fill="#bfd946" fill-opacity=".612" d="M308.062 860.158l-28.356-378.36 31.13 175.5 45.065 220.52z"/><path fill="#c8d833" fill-opacity=".42" d="M547.902 764.175l80.935-262.602-29.543 183.771-116.599-34.716z"/><path fill="#a50012" fill-opacity=".631" d="M466.275 915.37l-79.093 9.645-145.749-48.353 110.058 21.784z"/><path fill="#90a7dc" fill-opacity=".384" d="M266.257 728.505l41.011-69.521-97.462 1.267-21.375 75.123z"/><path fill="#d4f853" fill-opacity=".439" d="M651.256 793.928l-27.009 91.68-29.682-44.566 38.743-57.701z"/><path fill="#2c246c" fill-opacity=".486" d="M728.848 495.052l-128.58 60.597 38.062 3.574 77.43-44.963z"/><path fill="#7b8571" fill-opacity=".329" d="M443.034 206.753l225.75 215.186-115.855-168.451 7.297-144.691z"/><path fill="#bdc4e4" fill-opacity=".49" d="M13.826 852.873l132.115 13.516 59.656-93.483 13.455 210.556z"/><path fill="#224c87" fill-opacity=".471" d="M710.651 670.597l37.835-19.567L898 645.216l-45.728 22.01z"/><path fill="#bfd1f8" fill-opacity=".376" d="M898 719.674v-40.55l-164.768.698-37.932 28.746z"/><path fill="#73472e" fill-opacity=".576" d="M72.775 856.858l-37.857.748 54.69-65.693 19.912 46.06z"/><path fill="#0f0022" fill-opacity=".188" d="M491.485 480.048l-63.393 154.804 11.585-101.662-25.942-60.311z"/><path fill="#410008" fill-opacity=".345" d="M579.694-33.315L836.209-62 898 221.71l-342.739-30.26z"/><path fill="#835833" fill-opacity=".694" d="M696.717 716.353L579.672 842.32l148.396-225.172 13.085 14.902z"/><path fill="#ffe4fc" fill-opacity=".133" d="M135.183 668.825L-62 733.988l87.707 124.005 85.933-91.162z"/><path fill="#051d00" fill-opacity=".224" d="M586.552 504.388l-25.491-89.769-41.633 25.415 146.426 195.461z"/><path fill="#332721" fill-opacity=".498" d="M406.963 54.213L328.839 40.63l-51.146 49.406L265.068-62z"/><path fill="#0060a2" fill-opacity=".216" d="M274.392 573.546l69.153 23.3 119.278 5.551-102.619-58.504z"/><path fill="#533832" fill-opacity=".741" d="M249.587 199.922l-82.453 303.405 2.221-330.585 99.191-43.65z"/><path fill="#003db7" fill-opacity=".212" d="M284.082 443.258l21.32 47.749-46.86-13.63-15.821 33.401z"/><path fill="#f2ff7c" fill-opacity=".435" d="M690.512 457.726L601.9 317.054l34.884 24.038 30.258 121.629z"/><path fill="#b1c921" fill-opacity=".835" d="M505.972 427.304l-266.31-12.13 22.728 50.382 189.096-158.648z"/><path fill="#eef777" fill-opacity=".259" d="M272.676 887.738l163.683 86.333-160.229-23.868L152.62 1086z"/><path fill="#6faf00" fill-opacity=".424" d="M505.61 837.8l-33.697 30.493-171.683 15.206 203.664 12.608z"/><path fill="#061f00" fill-opacity=".2" d="M224.012 368.911l54.758 176.144-89.534-75.186 55.368 99.015z"/><path fill="#424942" fill-opacity=".608" d="M223.995 930.885l41.263-173.541 21.41 55.323-36.555 89.16z"/><path fill="#290000" fill-opacity=".192" d="M611.853 722.2L626.9 534.194l39.43 68.241-149.26 211.3z"/><path fill="#87a806" fill-opacity=".765" d="M500.707 510.831l2.342 161.652-55.512-159.835 34.12 134.504z"/><path fill="#101114" fill-opacity=".302" d="M-17.166 213.093l252.21-3.14 64.772 26.478L-62 247.734z"/><path fill="#c6c9ed" fill-opacity=".529" d="M881.585 1057.558L789.051 1086 651.459 908.855l4.099-62.682z"/><path fill="#c1e74d" fill-opacity=".318" d="M266.422 875.667l132.405 15.44-120.59-169.512 63.313-63.536z"/><path fill="#98ba00" fill-opacity=".58" d="M534.372 359.678l145.582 101.095-52.47 24.218-108.501-91.77z"/><path fill="#cda6a9" fill-opacity=".439" d="M214.726 508.661L94.06 740.955l97.196-217.033 19.027-28.409z"/><path fill="#ab7854" fill-opacity=".98" d="M512.403 816.142l63.115-51.494 50.874 30.139L494.132 934.3z"/><path fill="#875f37" fill-opacity=".937" d="M603.27 905.496l-70.543-29.518-42.015 111.615-6.724 2.51z"/><path fill="#3c0e08" fill-opacity=".318" d="M359.883 144.509l5.048 10.244-417.84 3.086 180.674-32.164z"/><path fill="#e8bfa4" fill-opacity=".235" d="M250.49 131.143l105.182-8.18 12.235 3.832L252.19 59.56z"/><path fill="#50637d" fill-opacity=".522" d="M654.344 731.846l236.103 12.053L898 693.27l-2.422 23.404z"/><path fill="#c5ff35" fill-opacity=".29" d="M633.999 516.177l-33.579 70.584-10.623-21.667 138.516-80.72z"/><path fill="#e20024" fill-opacity=".58" d="M662.212 890.457l-73.461 12.37 24.94 6.47 41.402-10.278z"/><path fill="#96ba0e" fill-opacity=".831" d="M356.146 539.29l72.997 18.496-16.305-114.257-140.353 63.181z"/><path fill="#5b4e44" fill-opacity=".557" d="M323.397 206.647L-62 202.593v-35.51l233.568 2.31z"/><path fill="#402220" fill-opacity=".843" d="M857.395 353.641l-234.002-28.025-81.271-59.407L898 272.851z"/><path fill="#f4f98e" fill-opacity=".267" d="M637.799 948.523L747.009 1086l-102.412-71.362-47.678-38.832z"/><path fill="#7d512f" fill-opacity=".506" d="M319.693 237.96l86.575-82.661.041 92.255-161.303 8.022z"/><path fill="#92a30e" fill-opacity=".596" d="M556.724 952.506L736.186 1086l-131.964-88.743-72.447-36.499z"/><path fill="#ffb3b9" fill-opacity=".169" d="M704.92 555.234l-10.562 79.07 63.573-52.216-25.959-66.31z"/><path fill="#090d3e" fill-opacity=".349" d="M472.089 904.174L331.6 898.567l-93.71-43.171 63.265 23.409z"/><path fill="#caad90" fill-opacity=".478" d="M453.483 278.442l-21.959-79.3 33.567 35.704 8.74-30.871z"/></svg>