<svg xmlns="http://www.w3.org/2000/svg" width="228" height="278" viewBox="0 0 836 1024"><path fill="#52585a" d="M0 0h836v1024H0z"/><path fill="#a5bdd8" fill-opacity=".694" d="M629.928 349.5l-519.266 99.194L764.887 1086 598.994 600.736z"/><path fill="#11120c" fill-opacity=".725" d="M182.943-62L691.15 455.666l188.18 169.467L859.267-9.088z"/><path fill="#ceeeff" fill-opacity=".561" d="M105.246 719.973L351.846 1086l-114.31-770.835-23.165 415.031z"/><path fill="#151a1c" fill-opacity=".988" d="M-47.582 800.581L-62-38.245 225.732-7.803l22.53 314.412z"/><path fill="#b9c9d2" fill-opacity=".831" d="M352.822 391.036l71.353 647.771 86.96 2.921-81.342-746.104z"/><path fill="#0b1849" fill-opacity=".91" d="M573.029 945.302l-71.825 42.856-24.462-353.473 68.802 12.028z"/><path fill="#dcf2fc" fill-opacity=".718" d="M637.04 774.615l82.755 216.43-146.608 5.78-43.382-705.829z"/><path fill="#00002b" fill-opacity=".482" d="M411.024 1086L265.831 531.509l5.405-316.364 72.45 53.34z"/><path fill="#222d3a" fill-opacity=".992" d="M667.49 787.677l81.32-298.305-124.347-169.424-6.628 424.552z"/><path fill="#e2f2ff" fill-opacity=".765" d="M164.387 430.197l64.892-57.021 52.796 2.57-93.507 188.522z"/><path fill="#000c47" fill-opacity=".557" d="M535.414 253.669l-65.34-23.998-27.738 185.635 80.076 155.916z"/><path fill="#94a9a4" d="M515.199 636.458l8.693-94.432-279.922 30.04 22.453 97.296z"/><path fill="#34100f" fill-opacity=".839" d="M143.287 340.773l-55.53 341.341 140.446 8.021-52.768-173.197z"/><path fill="#def4ff" fill-opacity=".706" d="M511.18 332.922l107.275 37.453 9.193 118.186-43.786 47.624z"/><path fill="#72835d" fill-opacity=".867" d="M-38.908 650.017l294.103 219.436 57.064 205.038L-62 1077.17z"/><path fill="#ba7b43" fill-opacity=".451" d="M461.36 358.456L434.111 67.497l-172.058-12.67-53.985 119.284z"/><path fill="#05123b" fill-opacity=".824" d="M304.844 725.77l46.3 360.23 64.045-124.23-40.18-314.273z"/><path fill="#ce9d71" fill-opacity=".592" d="M898 1017.575l-84.834-440.218-64.136-78.273 75.131 353.03z"/><path fill="#fd2e11" fill-opacity=".576" d="M150.866 647.444l-82.445-42.107 19.96-46.052 91.457 30.084z"/><path fill="#3b270d" fill-opacity=".49" d="M155.869 361.8l38.944-157.52 171.64-12.354 56.646 189.61z"/><path fill="#6b8a48" fill-opacity=".992" d="M663.36 1002.775l53.691-20.118 57.183-92.518L881.585 1086z"/><path fill="#2e8cff" fill-opacity=".408" d="M5.236 657.236L-6.737 863.038l-17.575 11.32 125.125 3.805z"/><path fill="#010a55" fill-opacity=".4" d="M464.697 597.714l-201.223 16.123 26.043-16.72 315.287-48.118z"/><path fill="#1c2226" d="M459.432 310.26l64.167 32.63L898 366.34 431.823 210.777z"/><path fill="#e3ebf1" fill-opacity=".471" d="M370.764 617.999l-159.298 3.388 72.608 276.486 15.728-241.424z"/><path fill="#eec18c" fill-opacity=".29" d="M297.322 389.917l150.86-39.67-19.895-267.44-27.914 152.873z"/><path fill="#122156" fill-opacity=".851" d="M583.954 916.467l-64.283 167.73-19.387-48.63 56.547-192.276z"/><path fill="#131819" fill-opacity=".804" d="M-62 73.498l352.25 328.171L153.565-62 340.009 63.435z"/><path fill="#d0e0ec" fill-opacity=".961" d="M175.377 537.243l87.108 36.081 5.19-189.396-89.295 21.18z"/><path fill="#1b3069" fill-opacity=".984" d="M280.2 1086l338.484-92.937 93.922.672-8.84 63.525z"/><path fill="#6b6d6d" fill-opacity=".918" d="M679.634 924.066l-56.314 7.517 6.032 23.236 42.696-4.022z"/><path fill="#d9ebfa" fill-opacity=".667" d="M356.307 386.33l11.042 194.415 89.868-22.332-20.848-169.817z"/><path fill="#b34b1a" fill-opacity=".333" d="M64.542 798.941L220.12 1086l-81.353-373.88L48.57 611.947z"/><path fill="#1a2b64" fill-opacity=".808" d="M251.002 283.76L349.6 408.449l8.857 138.522-66.048 19.052z"/><path fill="#cfe3ef" fill-opacity=".961" d="M702.304 870.51l-139.02-97.13 89.29-1.76 60.12 222.272z"/><path fill="#332000" fill-opacity=".514" d="M595.854 520.11l85.253-34.258 105.188 103.601-176.066 63.849z"/><path fill="#1d2a5f" fill-opacity=".753" d="M544.527 495.603l-88.036 18.85 4.271 33.27 72.078-14.863z"/><path fill="#286d9e" fill-opacity=".486" d="M613.521 688.874l16.759 40.4L770.116 929.87l3.87-209.194z"/><path fill="#3480c0" fill-opacity=".329" d="M275.039 932.413l-43.492-233.662-91.929-44.479 22.011 190.563z"/><path fill="#985823" fill-opacity=".424" d="M860.802 1086l-58.795-428.636-51.173-150.98-44.04 85.578z"/><path fill="#e2fbfc" fill-opacity=".706" d="M612.456 982.173l-55.894-395.396-105.693 58.697 148.408-23.032z"/><path fill="#010511" fill-opacity=".929" d="M184.202 574.928l-66.838 2.53-10.119-34.463 37.168-160.607z"/><path fill="#f6d1b0" fill-opacity=".443" d="M320.675 97.93l-96.343 43.704 16.364-46.44 39.738-33.446z"/><path fill="#c3d3d8" fill-opacity=".988" d="M310.023 988.574L362.176 1086h-85.284l4.243-93.448z"/><path fill="#b9c7d8" fill-opacity=".851" d="M430.388 455.488l-243.796 60.298 97.18-9.952 128.848-60.78z"/><path fill="#000821" fill-opacity=".639" d="M390.495 962.47l45.128 34.237L407.208 1086l-125.73-16.151z"/><path fill="#0d2600" fill-opacity=".2" d="M304.014 862.976L-62 986.8l167.871-186.203 34.9 220.319z"/><path fill="#121f55" fill-opacity=".631" d="M469.653 654.407l74.133-20.759 25.353 148.463-79.689 38.907z"/><path fill="#8088a0" fill-opacity=".996" d="M537.132 460.489l-60.08 70.944-4.632-25.227-29.054-41.177z"/><path fill="#e7ffff" fill-opacity=".4" d="M557.23 888.263l47.642-394.796-172.433 76.195 128.909-10.594z"/><path fill="#75a531" fill-opacity=".565" d="M-62 988.797L283.746 1086 270.86 896.57l-90.282 76.006z"/><path fill="#171b24" fill-opacity=".898" d="M337.949 301.717L129.297 439.092l-146.233 14.265 408.486-228.63z"/><path fill="#000520" fill-opacity=".694" d="M613.904 521.227l34.16-140.443 92.612 209.224-57.053-21.78z"/><path fill="#fcd6ff" fill-opacity=".188" d="M122.771 952.827l133.363-155.982 55.325-113.579-197.148 194.157z"/><path fill="#0d1413" fill-opacity=".8" d="M-62 101.461L44.39 300.55l239.186-183.272 24.382 35.737z"/><path fill="#b3c7d8" fill-opacity=".776" d="M409.261 711.167l82.522 119.84-22.032 140.673-60.625-10.093z"/><path fill="#10205e" fill-opacity=".69" d="M470.931 422.125l57.543-11.602-19.66-132.032-82.874 99.342z"/><path fill="#2d362e" fill-opacity=".875" d="M717.036 562.211l-115.5 26.587-3.97 43.094 127.167 73.849z"/><path fill="#1d0601" fill-opacity=".42" d="M258.922 558.772l-147.568 99.507 112.997-34.534L89.577 546z"/><path fill="#52607c" fill-opacity=".941" d="M550.956 576.54l-277.67 13.98 5.286 29.66 27.725.227z"/><path fill="#b6a389" fill-opacity=".863" d="M430.537 378.206l-27.458 16.22 14.365-191.174 43.384 116.88z"/><path fill="#19302d" fill-opacity=".482" d="M-62 509.866v226.15l260.841-111.523 42.424 98.423z"/><path fill="#2c3127" fill-opacity=".98" d="M665.479 370.781L791.122 539.15l52.635 135.939 26.06-288.926z"/><path fill="#8b6c45" fill-opacity=".616" d="M347.671 391.028l80.794-5.967-32.235-42.028-113.87-5.842z"/><path fill="#f5fbe5" fill-opacity=".282" d="M729.895 544.543l19.127-24.608L862.634 743.94 783.34 532.983z"/><path fill="#3c528e" fill-opacity=".498" d="M660.035 403.91l-58.56-79.485 54.38 26.062 73.71 147.193z"/><path fill="#93f11a" fill-opacity=".388" d="M415.995 649.776L304.08 647.06l205.774-31.203 29.498-37.037z"/><path fill="#ff6e4d" fill-opacity=".596" d="M120.745 589.15l-28.392 34.477-.601-90.166 28.457 49.388z"/><path fill="#dff4ff" fill-opacity=".549" d="M584.702 1003.676l18.87-90.169-43.172 38.795 163.433-2.831z"/><path fill="#739446" fill-opacity=".949" d="M729.64 916.86l-20.473 16.43L720.28 1086l174.374-69.936z"/><path fill="#040b34" fill-opacity=".396" d="M617.142 1082.462L493.326 938.404 476.5 635.313l75.695 292.831z"/><path fill="#b5c4d1" fill-opacity=".447" d="M344.46 962.642L243.98 705.824l91.668 194.541-72.824 97.416z"/><path fill="#e1f9fe" fill-opacity=".439" d="M555.432 626.843l71.11-198.25-303.307-12.23 227.75 20.245z"/><path fill="#1d405d" fill-opacity=".596" d="M627.645 684.9l-22.483 55.87 150.496-21.473-34.632-72.533z"/><path fill="#470204" fill-opacity=".349" d="M181.668 906.23l-59.891 80.612 45.293 6.566-8.719-167.614z"/><path fill="#080b07" fill-opacity=".247" d="M898-48.688l-1.43 459.44L496.021 193.71 281.068-62z"/><path fill="#aa7b63" fill-opacity=".573" d="M409.02 155.396L224.134 177.81l-.517 37.891 26.023-20.039z"/><path fill="#a97857" fill-opacity=".639" d="M88.21 824.98L67.817 645.785l-23.781 73.07 188.659 203.597z"/><path fill="#223b7e" fill-opacity=".973" d="M539.688 456.069l-74.174-159.281 61.957 125.023-75.609 25.542z"/><path fill="#c3d6dc" fill-opacity=".612" d="M391.9 503.984L357.466 634.57l-17.71-73.276 140.24-7.505z"/><path fill="#3d6a87" fill-opacity=".733" d="M697.374 863.263l87.91-34.437-29.358-121.611-95.516 120.367z"/><path fill="#7dbadb" fill-opacity=".529" d="M49.099 770.414L-62 713.388v87.818l80.383 48.197z"/><path fill="#0f2164" fill-opacity=".494" d="M535.39 539.09l-63.444-3.844 54.892-57.793 21.914 52.121z"/><path fill="#080b18" fill-opacity=".392" d="M509.615 957.73l-177.973 52.244 216.529-70.998-33.04 105.43z"/><path fill="#040f3a" fill-opacity=".557" d="M379.192 676.484l-80.519-17.994 6.997 149.59 86.945 67.373z"/><path fill="#d6e6f2" fill-opacity=".741" d="M174.532 416.855l56.325-47.204 26.44 1.727 11.896 193.212z"/><path fill="#c3d3e2" fill-opacity=".522" d="M349.352 350.533l13.66 192.084 97.79-87.822L417.03 610.37z"/><path fill="#0c1b4e" fill-opacity=".737" d="M577.106 312.802l97.934 95.4 60.409 124.561-153.543-196.798z"/><path fill="#dbefed" fill-opacity=".584" d="M571.691 533.153L272.32 571.987l296.404-11.912 51.856 142.902z"/><path fill="#563a13" fill-opacity=".71" d="M64.799 709.738l9.455-57.685 108.364 1.03-69.73 54.708z"/><path fill="#759c3b" fill-opacity=".627" d="M-15.693 1061.589l3.284-124.542 119.213-6.483L178.995 1086z"/><path fill="#5f3c2a" fill-opacity=".847" d="M804.625 961.29L791.7 870.64 898 895.912l-15.995 89.347z"/><path fill="#d3e9f5" fill-opacity=".925" d="M700.09 930.562l-115.655-36.579-27.01-240.212 100.176 155.613z"/><path fill="#000a53" fill-opacity=".18" d="M522.714 560.658l-249.373 32.3 79.87 20.649 200.563-29.527z"/><path fill="#986239" fill-opacity=".243" d="M270.605 234.422l-52.563 99.147 237.597-182.477-167.208-105.17z"/><path fill="#0e1b4f" fill-opacity=".624" d="M261.661 511.245l36.412 54.714 70.69-9.072-14.544-48.18z"/><path fill="#0c163e" fill-opacity=".588" d="M568.728 783.898L481.37 673.04l-11.754-57.656 32.485 289.505z"/><path fill="#544a21" fill-opacity=".639" d="M594.65 526.606l52.627 20.949 42.484 63.915-63.14 22.331z"/><path fill="#140f00" fill-opacity=".545" d="M281.688 290.96l42.036-53.569 47.31 40.703-92.116 88.307z"/><path fill="#171916" fill-opacity=".98" d="M-62 .52l256.385 159.86L267.72 47.384l379.205 5.142z"/><path fill="#0f1a42" fill-opacity=".796" d="M121.281 396.432l48.202 79-5.267-52.477 100.731-92.794z"/><path fill="#e7fafe" fill-opacity=".239" d="M244.299 809.98l36.574-100.526-70.705-90.555 7.077-210.456z"/><path fill="#1c446b" fill-opacity=".361" d="M-62 933.017l142.066-93.992-82.642-202.717 123.815 251.608z"/><path fill="#00000a" fill-opacity=".678" d="M695.198 574.249l-92.91-54.983 37.059-11.717 119.131-8.7z"/><path fill="#d29959" fill-opacity=".302" d="M741.458 688.001l19.222-17.342 15.66-45.797-67.33-30.795z"/><path fill="#ddf2fb" fill-opacity=".592" d="M725.595 1000.722l-158.241-37.28 121.436-15.52 19.694 33.977z"/><path fill="#ae8e63" fill-opacity=".392" d="M55.011 694.717l19.566 84.48L181.85 623.973l-50.242 114.371z"/><path fill="#effff9" fill-opacity=".204" d="M898 967.94l-90.976-388.91 21.195 217.472L898 809.194z"/><path fill="#010307" fill-opacity=".694" d="M109.704 497.185l78.584 99.346 20.746 44.636.683-75.77z"/><path fill="#87e119" fill-opacity=".431" d="M372.108 645.914l118.609-40.198 38.836-2.302-74.47 33.34z"/><path fill="#bbc7d4" fill-opacity=".38" d="M230.326 704.423l27.06-244.42 37.28 226.692L347.769 1086z"/><path fill="#28458f" fill-opacity=".761" d="M305.494 351.347L293.77 476.645l-28.7-3.63 3.698-90.331z"/><path fill="#d6eff8" fill-opacity=".396" d="M630.608 411.822l-3.962 44.08-87.43 174.58 25.59-286.23z"/><path fill="#0f1845" fill-opacity=".412" d="M470.585 507.281l-35.921-123.046 152.733-76.5-130.012-9.285z"/><path fill="#b1c7b6" fill-opacity=".722" d="M348.13 658.462L213.9 633.294l180.432 5.802-48.493-57.589z"/><path fill="#203677" fill-opacity=".792" d="M563.78 730.94l-30.059-102.908-20.954 120.618 36.606-5.75z"/><path fill="#505146" fill-opacity=".451" d="M358.57 164.637l97.852-20.664-26.912-76.952-100.15-22.054z"/><path fill="#e7fcfc" fill-opacity=".702" d="M523.351 609.784l96.187 45.456-16.71 177.838-8.476-272.903z"/><path fill="#b70300" fill-opacity=".498" d="M169.582 641.03l-84.29-18.374 50.226-42.742 57.277 11.997z"/><path fill="#e6fdec" fill-opacity=".467" d="M480.135 600.834l-61.22 4.172-22.08-21.374 67.845 35.192z"/></svg>