<svg xmlns="http://www.w3.org/2000/svg" width="228" height="278" viewBox="0 0 836 1024"><path fill="#8b868a" d="M0 0h836v1024H0z"/><path fill="#b5dbe6" fill-opacity=".592" d="M307.796 1086L172.854 401.905l404.72-106.267 228.09 266.167z"/><path fill="#503b33" fill-opacity=".553" d="M-10.685 277.057L405.783 408.76 779.739 1.593l-799.155-8.58z"/><path fill="#025e31" fill-opacity=".522" d="M439.695 800.884l3.432 101.079 111.556 69.095-71.565-491.062z"/><path fill="#e5e9ec" fill-opacity=".647" d="M106.49 740.912l26.55 250.552 544.15 44.722L-62 1025.68z"/><path fill="#dfeeff" fill-opacity=".702" d="M181.8 420.76l158.4-86.57 81.166 212.716-268.305 82.035z"/><path fill="#fffff4" fill-opacity=".38" d="M425.582 18.714L252.476 94.211l476.16 349.7-236.702 90.084z"/><path fill="#584553" fill-opacity=".612" d="M647.466 302.756l2.583-314.329 199.72 9.115L898 891.026z"/><path fill="#32001c" fill-opacity=".259" d="M-57.758 254.025l391.086 401.621-86.424 108.804L-62 730.688z"/><path fill="#973f32" fill-opacity=".541" d="M664.808 714.864L532.356 505.54 763.587 1086 898 644.062z"/><path fill="#8d4640" fill-opacity=".549" d="M252.446 816.005l15.43-219.591 352.661 50.702L-62 684.593z"/><path fill="#fffcf3" fill-opacity=".294" d="M714.78 863.196l-170.406 177.39-7.247-266.106 229.43-20.016z"/><path fill="#001928" fill-opacity=".427" d="M58.376-34.561L-2.55 48.392l251.182 127.087 82.5-74.025z"/><path fill="#b6cfd7" fill-opacity=".992" d="M707.065 515.96l11.843-86.875 62.308 258.377-126.452 8.827z"/><path fill="#302922" fill-opacity=".757" d="M536.56 300.404l16.215-189.16L450.297.129l45.664 275.221z"/><path fill="#d5f9fc" fill-opacity=".506" d="M638.818 210.018l-94.545-35.346 8.49 264.743-308.174 108.893z"/><path fill="#c5cee0" fill-opacity=".663" d="M471.584 859.886L259.577 634.013l10.561 188.446L-62 938.699z"/><path fill="#492400" fill-opacity=".416" d="M-62 891.518l23.577-145.099L65.95 830.685l157.746 17.483z"/><path fill="#cbe6f5" fill-opacity=".51" d="M168.112 427.44l185.287-112.78-144.077 344.344-59.482-5.223z"/><path fill="#707d8b" fill-opacity=".678" d="M294.362 669.474L597.058 535.58l104.215 311.603-145.005-184.86z"/><path fill="#236cbb" fill-opacity=".596" d="M44.476 517.75L-62 574.912l219.89 56.416 4.382-127.721z"/><path fill="#c40825" fill-opacity=".4" d="M282.094 947.682l-16.264-85.07-161.362 110.25 140.116 23.859z"/><path fill="#4f3347" fill-opacity=".741" d="M563.714 312.19l95.458 64.743 97.982 110.45-18.52-161.538z"/><path fill="#b9cde3" fill-opacity=".745" d="M442.28 890.791L477.043 1086l-226.41-65.95 79.073-209.584z"/><path fill="#723e15" fill-opacity=".592" d="M586.491 1002.009l226.573-185.265L577.98 1086l-262.284-20.606z"/><path fill="#f4b794" fill-opacity=".51" d="M203.58 814.333L-62 780.683l202.51-52.27 20.715-49.456z"/><path fill="#1f2c0e" fill-opacity=".451" d="M330.463 409.57l71.657 2.767-107.342-143.032 138.56-43.9z"/><path fill="#014e36" fill-opacity=".529" d="M549.04 946.44l-43.381 8.49-46.973-254.363 53.49-11.281z"/><path fill="#977869" fill-opacity=".922" d="M498.388 217.578l-300.802 52.554 212.787-106.229 110.753-8.363z"/><path fill="#6ab5a4" fill-opacity=".839" d="M407.034 543.975l64.547 54.11 31.17-186.339-20.797-18.599z"/><path fill="#993e4e" fill-opacity=".827" d="M760.03 583.018L823.65 942.2 898 599.01l-135.216-31.1z"/><path fill="#1f2a04" fill-opacity=".357" d="M187.902 855.403l14.715-180.983 66.61-47.707-17.818 179.338z"/><path fill="#adbcd2" fill-opacity=".722" d="M448.244 668.114L593.02 639.36l-21.607 409.455-56.767-343.494z"/><path fill="#aa3045" fill-opacity=".62" d="M-37.352 723.73l-14.495-110.303 219.164 34.032-80.593 117.677z"/><path fill="#434345" fill-opacity=".486" d="M-62 603.134L146.006 497.83l-85.113-34.86L10.411-14.645z"/><path fill="#d5e3e8" fill-opacity=".929" d="M74.758 907.532L-62 827.504-47.437 1086l125.002-67.871z"/><path fill="#124c20" fill-opacity=".494" d="M670.25 776.088l-9.433-58.61 139.79-48.503 5.041-1.014z"/><path fill="#473f39" fill-opacity=".953" d="M517.563 67.586l-83.446 148.995 44.126-263.077-299.86 35.12z"/><path fill="#ffd6c1" fill-opacity=".557" d="M446.575 76.379l-146.41 15.597 37.717-51.046 106.946 9.924z"/><path fill="#69af80" fill-opacity=".792" d="M417.593 716.252L488.997 1086l6.13-187.79-33.888-243.205z"/><path fill="#d6d4e2" fill-opacity=".212" d="M550.328 302.79l6.388-268.428 92.63-6.196-33.76 260.541z"/><path fill="#096650" fill-opacity=".69" d="M659.198 475.998l53.707 19.921-9.743 22.873-42.449-15.598z"/><path fill="#d1cfe1" fill-opacity=".706" d="M898 985.872L579.844 1086l108.997-117.508L742.93 1086z"/><path fill="#ffc6ca" fill-opacity=".263" d="M30.277 380.846l94.49-69.447 97.758 10.63L99.087 442.307z"/><path fill="#eef9ff" fill-opacity=".576" d="M661.271 400.78L467.06 527.105l77.61-214.043-106.271 62.031z"/><path fill="#b68366" fill-opacity=".522" d="M433.29 381.733l80.162-90.035L238.39 118.212l191.322-41.748z"/><path fill="#cd905a" fill-opacity=".478" d="M782.348 702.757l-72.253 44.222L530.35 1086l267.593-298.347z"/><path fill="#71434c" fill-opacity=".573" d="M294.228 354.278l-191.76 71.525 55.206 49.401 95.692-210.91z"/><path fill="#ebf3ff" fill-opacity=".439" d="M254.964 355.747l191.02 106.694-75.415 156.348-167.742-173.503z"/><path fill="#d9dee6" fill-opacity=".455" d="M267.947 764.745l75.862 50.54L-62 919.441l228.464 18.97z"/><path fill="#0d2b39" fill-opacity=".388" d="M166.473 43.874l76.399-96.006 32.324 269.56-84.675-40.71z"/><path fill="#c2fff6" fill-opacity=".333" d="M596.846 849.28l17.693 140.522L344.6 907.953l203.454 103.35z"/><path fill="#684939" fill-opacity=".765" d="M355.68 85.255l57.6 24.198-65.586 15.796-7.765-26.927z"/><path fill="#3b2106" fill-opacity=".573" d="M50.112 881.607l-104.596-32.534L54.493 799.05l-58.337-10.226z"/><path fill="#8881a8" fill-opacity=".42" d="M829.04 364.013l-11.9 151.912L709.541 279.32l62.083-13.738z"/><path fill="#000500" fill-opacity=".302" d="M561.449 141.157L516.087 305.83 527.45 11.303l-105.149 176.84z"/><path fill="#016330" fill-opacity=".251" d="M369.176 959.8l167.969 28.922-63.788 25.092L322.03 945.09z"/><path fill="#a4374e" fill-opacity=".584" d="M697.805 964.46l196.732-332.81L750.587 1086l-65.761-162.473z"/><path fill="#b6c2d6" fill-opacity=".953" d="M388.17 672.168l-10.387-64.341-100.145 397.193-1.42-336.38z"/><path fill="#772f53" fill-opacity=".341" d="M-51.732 303.585l377.89 66.715-41.96-75.048-168.334-59.2z"/><path fill="#6889bd" fill-opacity=".278" d="M240.857 202.646l-49.54 59.763 93.742 37.299L315.385-62z"/><path fill="#6ab6cb" d="M728.323 596.46l7.07-10.969-9.818-30.049-68.389 21.84z"/><path fill="#7a6b50" fill-opacity=".98" d="M375.04 306.621l-31.112 70.842 21.653 39.8 99.577-73.415z"/><path fill="#fce8d0" fill-opacity=".29" d="M161.507 731.388l-83.905 179.04-31.83-67.479L146.36 709.187z"/><path fill="#e0b7aa" fill-opacity=".576" d="M334.41 119.03l117.866 42.157L292.334 147.6l42.182-58.076z"/><path fill="#b9a6b0" fill-opacity=".992" d="M780.898 1038.096l44.587-104.433L898 974.046l-24.622 9.076z"/><path fill="#7ac6b7" fill-opacity=".831" d="M559.434 366.044l-49.289-6.087 77.51-29.47 1.376 26.25z"/><path fill="#6e849a" fill-opacity=".349" d="M225.006 643.714l40.957 54.366-31.825-207.857-45.798 19.855z"/><path fill="#001f3a" fill-opacity=".125" d="M491.225 465.407l4.634 213.706 174.386-181.158-235.277 85.485z"/><path fill="#4f4c52" fill-opacity=".404" d="M746.303 405.326L690.205-62l-28.763 350.693-132.253 11.99z"/><path fill="#b3cfe1" fill-opacity=".341" d="M567.162 559.973L256.927 604.65l231.096-114.9-98.48 170.446z"/><path fill="#58beaa" fill-opacity=".627" d="M610.432 411.128l76.963 50.485-21.638-43.946-26.27-4.783z"/><path fill="#0a0202" fill-opacity=".298" d="M511.033 298.91l50.654-124.431-17.721.688-79.129 54.808z"/><path fill="#e0f1f4" fill-opacity=".761" d="M450.53 356.686l78.815-50.542L723.823 450.94 596.712 335.173z"/><path fill="#e5f7fe" fill-opacity=".525" d="M675.34 483.055l47.93-24.731-16.89-31.876-27.497-15.814z"/><path fill="#030707" fill-opacity=".376" d="M272.825 258.707l169.344-8.722-67.417 56.607-42.666-9.209z"/><path fill="#a95163" fill-opacity=".29" d="M124.44 1002.435l132.61 26.723-1.788-169.681-167.795 99.269z"/><path fill="#837870" fill-opacity=".678" d="M751.658-62L724.611 2.958l26.169 192.455 60.246-100.196z"/><path fill="#696f73" fill-opacity=".51" d="M535.055 112.546l83.77 115.529 140.003-96.984-99.309-43.484z"/><path fill="#30464f" fill-opacity=".243" d="M433.044 625.892l-82.735 83.994-97.613-.99 343.565-96.593z"/><path fill="#272300" fill-opacity=".341" d="M740.23 912.065L558.596 1086l90.125-118.071 67.607-59.032z"/><path fill="#b7c5ff" fill-opacity=".231" d="M573.498 157.118l-43.91 102.617 77.74 51.764 32.565-79.45z"/><path fill="#26966b" fill-opacity=".337" d="M275.541 847.802L504.86 961.898l-16.956 51.259 66.038-47.551z"/><path fill="#4e4531" fill-opacity=".424" d="M70.466 851.498l180.189-41.967-91.035 58.113-59.978-4.463z"/><path fill="#a3b3ca" fill-opacity=".667" d="M671.347 796.484l-51.945 137.08-72.69 40.207-14.386-222.527z"/><path fill="#9d7252" fill-opacity=".51" d="M422.878 390.475l85.096-87.612-73.358-171.795-23.323 252.716z"/><path fill="#8e0318" fill-opacity=".373" d="M324.515 608.633l-20 71.06-9.614-17.152 70.078-75.49z"/><path fill="#e8b696" fill-opacity=".314" d="M431.393 45.732l-25.456 30.582-80.035 190.846L470.128 74.127z"/><path fill="#d7b3a6" d="M-62 777.019V710.02l96.158 38.959 50.466 41.246z"/><path fill="#e4f7ff" fill-opacity=".29" d="M783.256 658.344l-73.824 44.613L560.76 280.735l145.58 317.617z"/><path fill="#d6e7fa" fill-opacity=".6" d="M297.224 913.395l43.06 110.189 104.531 30.742-193.659-30.31z"/><path fill="#ffd6be" fill-opacity=".424" d="M579.278 934.705l-25.167 29.409-57.73 51.091 115.772-23.573z"/><path fill="#bac5e5" fill-opacity=".478" d="M456.901 670.23L276.34 740.291l258.145-58.531-16.588-27.357z"/><path fill="#00431f" fill-opacity=".259" d="M618.834 706.355l171.268-7.625-102.05 39.048-73.503 22.165z"/><path fill="#002e34" fill-opacity=".145" d="M571.244 831.35l-181.752 3.086-118.872-74.754 150.915 55.22z"/><path fill="#054434" fill-opacity=".2" d="M523.267 724.1l23.478 254.558-74.573-217.932-167.77-23.292z"/><path fill="#2c1b17" fill-opacity=".635" d="M356.29 187.354l-58.649 8.144 13.854 13.552 45.427-2.593z"/><path fill="#fffdff" fill-opacity=".282" d="M356.129 307.068l-139.11 176.957 44.196 33.158 102.008-174.675z"/><path fill="#d5e3ff" fill-opacity=".157" d="M204.11 651.053L41.22 601.514l105.997-43.786 26.788-128.2z"/><path fill="#e3f4ff" fill-opacity=".188" d="M89.23 396.227l36.77 7.347 61.993-75.19-73.949-19.488z"/><path fill="#d7e0f2" fill-opacity=".494" d="M258.944 828.363l-.473-146.78 159.423-15.778-131.989 30.634z"/><path fill="#ab6d72" fill-opacity=".243" d="M119.43 97.604l95.91 45.706L-62 88.852 262.632 300.63z"/><path fill="#0f3116" fill-opacity=".416" d="M132.07 666.349l89.816 10.582 35.506 108.88-1.05-124.488z"/><path fill="#9aa4af" d="M757.766 611.04l-92.405 48.134L898 408.777 701.99 620.024z"/><path fill="#625a53" fill-opacity=".988" d="M430.146 14.988L250.22 73.296 525.28-47.066 569.487 64.4z"/><path fill="#b59fb2" fill-opacity=".988" d="M359.175 618.543l-4.591 43.316-23.389-26.3 2.492-16.06z"/><path fill="#005292" fill-opacity=".235" d="M-62 394.47l77.837 227.018 145.333-160.16 4.402 126.72z"/><path fill="#e2ecf9" fill-opacity=".835" d="M367.621 528.558l75.434-125.867-281.492 76.36 46.477-96.502z"/><path fill="#005d30" fill-opacity=".333" d="M479.673 534.88l10.198 42.775-80.811-12.79 16.243-2.915z"/><path fill="#a17353" fill-opacity=".459" d="M171.03 753.676l-50.433 94.614 104.198-50.182-87.172-210.825z"/><path fill="#fae4da" fill-opacity=".255" d="M335.599 210.521l45.412.462-40.215 44.599-57.819-41.06z"/><path fill="#d6e1e8" fill-opacity=".42" d="M266.14 806.309L91.68 910.982l-16.376-49.293 231.763 17.116z"/><path fill="#bccee6" fill-opacity=".412" d="M271.494 629.476l-77.49-169.75 312.217 172.01-220.311-59.042z"/><path fill="#14955f" fill-opacity=".427" d="M461.063 521.245l-44.641-10.303 29.34-27.909 25.21 22.471z"/><path fill="#007255" fill-opacity=".337" d="M702.71 527.286l-8.042-84.333 22.676 52.397-50.6 6.517z"/><path fill="#9f7251" fill-opacity=".302" d="M100.47 499.243L-62 271.585l168.857 121.046 83.39 25.26z"/><path fill="#192027" fill-opacity=".329" d="M.673 17.472L290.931 188.91l-96.813 7.213L229.032 78.39z"/><path fill="#4d6567" fill-opacity=".314" d="M157.212 363.522l160.696-.318-66.985-408.399 3.217 441.845z"/><path fill="#482c40" fill-opacity=".635" d="M642.54 373.366l98.92-5.646 1.178 130.318-31.298-70.91z"/><path fill="#dfecff" fill-opacity=".498" d="M686.77 490.693L555.464 371.317l-70.8 153.235 228.221-93.734z"/><path fill="#d80313" fill-opacity=".333" d="M353.638 649.196l-69.554 11.73 74 9.545 11.914-37.156z"/></svg>