<svg xmlns="http://www.w3.org/2000/svg" width="228" height="278" viewBox="0 0 836 1024"><path fill="#69666a" d="M0 0h836v1024H0z"/><g fill-opacity=".502"><path fill="#fff" d="M50 382l612-84-120 788z"/><path d="M426-50L-10-62l-52 688zm-4-12l400 948 76-920z"/><path fill="#ecfaff" d="M530 274l368 140-960 204z"/><path fill="#f0faff" d="M578 634L218 974l532 112z"/><path d="M30-62l-92 528 396-192z"/><path fill="#020000" d="M586 578l168 508 116-692z"/><path d="M678-62L458 270l440 92zM-62 766l272 60 52-276z"/><path fill="#d0dbf1" d="M898 362l-700-32-260 336z"/><path fill="#c4837e" d="M282 38l200 16v700z"/><path fill="#b6c1d2" d="M310 234l428 808-496 44z"/><path d="M386-62L2 542-62 14zm512 168L550 282 422-62z"/><path fill="#ca984c" d="M770 742L650 890l248-4z"/><path fill="#350700" d="M446 266l4 108-296-116z"/><path fill="#f2ffff" d="M-42 730l384-424-212 64z"/><path fill="#a4b6cf" d="M-14 570l560 20 352-248z"/><path d="M614 494l4 260 280-80z"/><path fill="#101117" d="M114 970l144 8-12-212z"/><path fill="#5d5f71" d="M302 718l288-64-328-20z"/><path fill="#f8f8ff" d="M510 974l216 112-80-296z"/><path d="M354-62l544 20-92 400z"/><path fill="#020000" d="M678 954l220 64-4-160z"/><path d="M114-62l204 372-380 84z"/><path fill="#071724" d="M182 542L-62 874l352-272z"/><path fill="#e08d77" d="M322 366L454 30 274 58z"/><path fill="#f4f1fd" d="M842 402l-244 44-72-168z"/><path fill="#144d98" d="M570 390l-28 96 72 60z"/><path fill="#acb5bc" d="M226 638l368 288-316 28z"/><path d="M506 278l392 40L466-50z"/><path fill="#dde7f2" d="M326 298l104 316L38 482z"/><path fill="#a58c65" d="M-62 898l276-12-4-136z"/><path d="M-2 554l68-60v44z"/><path fill="#bec7cd" d="M358 1070L86 974l-148 68z"/><path fill="#ffd0c8" d="M306 74l84-40 100 52z"/><path fill="#c4c9dd" d="M446 610l204-144-52 156z"/><path fill="#0c3b7c" d="M334 490l24 56-56-4z"/><path fill="#fca99c" d="M418 122l60 164 16-136z"/><path fill="#000f1c" d="M162 738l-180 76 60-184z"/></g></svg>