<svg xmlns="http://www.w3.org/2000/svg" width="228" height="278" viewBox="0 0 836 1024"><path fill="#826258" d="M0 0h836v1024H0z"/><path fill="#eed8c5" fill-opacity=".792" d="M898 583.567L568.056 234.919 635.116-62H898z"/><path fill="#040d12" fill-opacity=".78" d="M677.272 1001.705L-62 1086l171.838-469.588 141.913 217.506z"/><path fill="#d3af9c" d="M666.927 850.944l-57.44 183.837L898 1022.32 713.91 448.528z"/><path fill="#a71c0b" fill-opacity=".718" d="M9.995-62l-70.54 693.696 229.248-247.937L590.714 70.097z"/><path fill="#eef6fd" fill-opacity=".741" d="M89.265 646.23l64.854-149.955L302.457 365.84l-2.711 81.734z"/><path fill="#dee2e8" fill-opacity=".816" d="M662.466 410.015L805.182 606.14 567.218 429.928l23.657-56.695z"/><path fill="#c3e8f2" fill-opacity=".498" d="M529.964 912.067l-49.367 15.264-25.813-462.229 70.813-69.94z"/><path fill="#001314" fill-opacity=".49" d="M507.164 686.688l267.984-257.533-364.996 245.64-3.454 410.61z"/><path fill="#000504" fill-opacity=".71" d="M484.596 396.707l-276.292-16.204 158.533-117.355 53.77 392.731z"/><path fill="#000e0d" fill-opacity=".631" d="M465.964 423.74l117.468-160.785L898 630.136 607.47 369.058z"/><path fill="#07120b" fill-opacity=".71" d="M640.888 456.133l46.993 192.15-144.075 52.647 2.052 385.07z"/><path fill="#2c3323" fill-opacity=".702" d="M293.875 53.826L500.11 5.418l131.216 102.428-270.548 94.007z"/><path fill="#cbf3fe" fill-opacity=".467" d="M422.939 730.397l-65.245-368.205-11 498.721 43.244 40.602z"/><path fill="#001417" fill-opacity=".596" d="M241.257 1086l62.98-459.961-28.15-111.76 114.214 120.598z"/><path fill="#1e2422" fill-opacity=".765" d="M64.418 622.735l-52.032-14.92 134.561-179.67 139.511-91.378z"/><path fill="#cbdfea" fill-opacity=".647" d="M278.252 584.739l-45.399 213.232 46.03 42.976 17.83-228.316z"/><path fill="#f5bf8b" fill-opacity=".62" d="M89.796 648.125L-52.088 534.48l-3.856 338.988 338.41-430.075z"/><path fill="#000b04" fill-opacity=".58" d="M162.637 1086l455.27-56.923 14.826-402.069 65.298 258.395z"/><path fill="#382c27" fill-opacity=".965" d="M271.721 627.167l-54.525 208.817L65.862 601.25l107.753 58.554z"/><path fill="#252420" fill-opacity=".91" d="M708.415 464.929l2.113-85.883 164.735 192.593-73.123 28.999z"/><path fill="#f9f2ff" fill-opacity=".627" d="M32.216 556.003l30.959-60.4 139.039-140.445-180.45 234.137z"/><path fill="#d69577" fill-opacity=".835" d="M696.206 516.182L898 800.135l-2.085 32.78-243.965-65.838z"/><path fill="#d9cbc4" fill-opacity=".941" d="M699.872 1086L587.51 822.627l-15.944 85.703L898 927.277z"/><path fill="#718e95" fill-opacity=".918" d="M361.498 644.382l-2.36 70.25 138.68-.771 157.917-62.333z"/><path fill="#eaf4fe" fill-opacity=".49" d="M355.417 438.976L323.684 638.02l70.303-59.079 7.599-139.046z"/><path fill="#eaa262" fill-opacity=".471" d="M603.626 264.881l-148.918 68.982-122.57-112.598 195.506-75.881z"/><path fill="#000f13" fill-opacity=".565" d="M295.15 598.408l-5.636-43.664 28.253-267.828 44.897 159.502z"/><path fill="#f6d49a" fill-opacity=".631" d="M381.452-62l-5.809 101.528L635.961-62l-27.9 130.812z"/><path fill="#edf3fd" fill-opacity=".431" d="M350.715 544.294l-167.646-88.02 51.25-135.509-48.667 49.937z"/><path fill="#161510" fill-opacity=".965" d="M546.203 773.123L584.236 1086 93.622 804.978l419.817 129.274z"/><path fill="#d4fdfd" fill-opacity=".325" d="M630.872 631.758l-64.66-321.095 55.479 530.973-56.123 44.89z"/><path fill="#fffbff" fill-opacity=".459" d="M529.262 391.436l-52.536 236.912-27.273-183.932 91.883-54.534z"/><path fill="#ef2e21" fill-opacity=".341" d="M220.333 329.824L270.73-.427 13.664-4.335l-58.157 625.153z"/><path fill="#0a1412" fill-opacity=".635" d="M455.101 597.283l2.845-161.26-80.54 191.242 120.14 14.322z"/><path fill="#e6eaf0" fill-opacity=".667" d="M90.802 608.822L246.954 397.01 145.436 646.853l-32.26-13.818z"/><path fill="#121310" fill-opacity=".984" d="M422.91 721.636l39.685-10.769 24.287 38.754L373.755 1086z"/><path fill="#7b3733" fill-opacity=".925" d="M275.373 615.296l-155.906 79.561 83.169-165.072 46.038-47.46z"/><path fill="#f8f6f3" fill-opacity=".506" d="M557.735 249.327l16.523-17.677 82.456 88.117-25.464 10.171z"/><path fill="#2b2b1d" fill-opacity=".965" d="M699.982 534.97l-79.42 92.827-1.223-177.279 36.59 44.346z"/><path fill="#e0dfe2" fill-opacity=".875" d="M628.324 382.19l-55.89-20.088 186.053 251.262 29.631-31.4z"/><path fill="#080e0e" fill-opacity=".592" d="M565.284 439.313l35.405-163.7-40.351-5.233-45.814 218.717z"/><path fill="#d2d4d7" fill-opacity=".624" d="M455.783 920.466l28.373-128.56 63.287-57.699-33.52 191.502z"/><path fill="#e7e4e7" fill-opacity=".925" d="M898 612.587l-14.603-78.598-217.246-215.982 99.615 119.648z"/><path fill="#cdcfd4" fill-opacity=".647" d="M620.048 448.381l-10.376 62.745-46.66-54.925 151.591-115.302z"/><path fill="#050a07" fill-opacity=".831" d="M588.655 557.555l-59.248 10.913 2.836 80.354 55.352-18.76z"/><path fill="#4d1902" fill-opacity=".494" d="M325.498-15.905l48.95 450.342 150.295-27.58-283.715-132.292z"/><path fill="#d7af92" fill-opacity=".78" d="M799.887 604.669L898 571.182 668.053 877.897 898 863.686z"/><path fill="#131311" fill-opacity=".863" d="M353.572 670.179L330.17 914.961l-68.034-15.496L310.3 677.75z"/><path fill="#674728" fill-opacity=".816" d="M560.765 262.485l-155.132-11.101 170.463-34.995-20.682-250.03z"/><path fill="#25293b" fill-opacity=".741" d="M20.548 835.277L65.72 680.926l153.305 368.911L-62 971.347z"/><path fill="#413327" fill-opacity=".949" d="M897.94 502.54L715.945 645.832l41.196-32.748 17.814 30.908z"/><path fill="#eff3f8" fill-opacity=".604" d="M301.832 458.67l.041-57.906-68.504 21.394 44.457 124.795z"/><path fill="#747f7d" fill-opacity=".663" d="M642.957 729.361l25.767 195.015 38.179-27.722-33.424-263.475z"/><path fill="#fffbf6" fill-opacity=".392" d="M328.754 850.22l54.782-101.068 24.403 112.194-24.452 31.099z"/><path fill="#f4e9ff" fill-opacity=".392" d="M132.785 428.165l163.822-121.042-69.3 32.225-87.577 56.684z"/><path fill="#546e71" fill-opacity=".702" d="M455.05 709.556l-17.855-83.61-159.102-33.944 18.604 74.672z"/><path fill="#3b2d1b" fill-opacity=".694" d="M545.758 161.12l35.897 8.463-12.717-147.206L311.26 175.162z"/><path fill="#1c1e1c" fill-opacity=".631" d="M170.134 481.633l-67.856 116.38-74.557-12.028 259.29-240.12z"/><path fill="#010b0d" fill-opacity=".553" d="M678.716 911.492L624.1 708.176l.013 110.444-15.901 53.218z"/><path fill="#f3f9f7" fill-opacity=".471" d="M201.142 1086l.988-85.119-27.539.95 1.06 36.118z"/><path fill="#c93b38" fill-opacity=".733" d="M244.319 616.605l-73.056 6.149 65.677-106.066 25.906 76.977z"/><path fill="#f6ab79" fill-opacity=".455" d="M529.31 246.803l.927-91.31L408.52 188.74l31.008 35.473z"/><path fill="#251e17" fill-opacity=".702" d="M84.885 638.463l94.274 43.908L38.797 565.305 5.33 574.391z"/><path fill="#090a04" fill-opacity=".898" d="M634.449 931.323L588.256 1086l-62.987-159.626 33.89 8.864z"/><path fill="#504e55" fill-opacity=".71" d="M610.77 422.866l9.387 48.043 5.21-176.695-.142 23.749z"/><path fill="#ffac62" fill-opacity=".408" d="M126.855 672.893l-75.583 42.2L-62 1041.625v-510.65z"/><path fill="#fefefe" fill-opacity=".553" d="M271.636 747.606l-2.79-91.044 5.114 165.62-56.479-22.732z"/><path fill="#111208" fill-opacity=".659" d="M724.888 584.362l-44.383-53.548L649 714.698l-30.075-265.764z"/><path fill="#b4babb" fill-opacity=".667" d="M623.474 804.288L607.6 916.168l-41.588 18.264 52.16-226.147z"/><path fill="#ffb791" fill-opacity=".573" d="M508.425 269.595l5.313-18.109-104.055 29.595 113.18 32.642z"/><path fill="#de7c51" fill-opacity=".675" d="M749.492 813.402l-4.418-209.779-64.13-68.732-11.589 65.97z"/><path fill="#dcc4b2" fill-opacity=".988" d="M761.656 327.722l-55.388-.454-98.205-280.746-3.816 262.086z"/><path fill="#031717" fill-opacity=".58" d="M162.756 617.459l48.353-90.86 57.7-44.672-144.9 193.375z"/><path fill="#131211" fill-opacity=".937" d="M462.232 613.573l-64.602-6.399 3.754-154.025 44.692-39.446z"/><path fill="#79969e" fill-opacity=".969" d="M510.106 684.937l-33.522 69.537 123.674-95.646 5.886-52.49z"/><path fill="#fff5fa" fill-opacity=".592" d="M15.85 559.823l38.142-40.754 118.643-140.735L48.84 558.19z"/><path fill="#151512" fill-opacity=".812" d="M461.232 907.492l19.383-139.374L356.26 1086 108.305 921.16z"/><path fill="#161615" fill-opacity=".69" d="M291.382 302.607l-76.66 128.83 162.151-133.123 16.146 134.003z"/><path fill="#93150b" fill-opacity=".518" d="M89.941 471.503L6.867 206.547l22.04-58.428 77.571-6.204z"/><path fill="#f2f0f4" fill-opacity=".557" d="M568.54 474.149l2.899-85.99 188.047 149.324-113.542-139.12z"/><path fill="#ebd0bd" fill-opacity=".745" d="M761.262 919.032l-150.331 112.49 30.351-124.377L898 925.932z"/><path fill="#221b0a" fill-opacity=".561" d="M318.77 715.728l141.054 6.735 88.257-16.547-77.365 31.723z"/><path fill="#d8d5dc" fill-opacity=".467" d="M397.286 500.127l-47.061-122.674 15.747 207.237 31.324 75.953z"/><path fill="#322619" fill-opacity=".549" d="M387.609 235.48l77.548-124.29-83.707-46.549L312.463-62z"/><path fill="#020400" fill-opacity=".651" d="M272.6 556.077l26.508-31.933 19.072 2.647 19.163 91.651z"/><path fill="#d43729" fill-opacity=".569" d="M127.234 414.919l102.88-79.342L198.14 132.04 57.884-62z"/><path fill="#dad6d9" fill-opacity=".624" d="M459.875 461.949l81.844-85.323-44.737 115.766 16.858 136.356z"/><path fill="#feeeea" fill-opacity=".506" d="M336.061 695.65L447.46 713.1l-40.641 4.395-29.07-.848z"/><path fill="#130c00" fill-opacity=".471" d="M608.49 322.046l-146.515-12.39 161.2 63.08 56.35-26.143z"/><path fill="#f4f7fb" fill-opacity=".655" d="M172.196 596.926l14.823-36.071-66.655 3.367-5.715 67.044z"/><path fill="#4f361a" fill-opacity=".302" d="M18.186 835.546l112.172-55.196 154.356-155.435-239.427 53.2z"/><path fill="#010202" fill-opacity=".573" d="M545.781 710.628l3.68 133.067 46.162-63.276 7.434-102.3z"/><path fill="#293f2f" fill-opacity=".341" d="M778.466 648.59l-87.252-117.396-162.459 40.052 100.448-85.119z"/><path fill="#373635" fill-opacity=".737" d="M572.454 379.145l-7.996 135.78-38.471-106.148-12.271 75.28z"/><path fill="#842413" fill-opacity=".498" d="M200.151 204.082L393.613-62l-82.58 372.416-62.42 12.676z"/><path fill="#af774a" fill-opacity=".431" d="M517.562 363.613l-46.407 41.496L352.642 138.85l-9.046 133.437z"/><path fill="#1b1b17" fill-opacity=".522" d="M683.292 361.697l97.813 216.916 100.428 9.892-172.815-213.958z"/><path fill="#c94037" fill-opacity=".8" d="M62.416 425.9l-97.86 328.162L4.123 276.205-62 287.476z"/><path fill="#ffba67" fill-opacity=".514" d="M866.99 557.244L768.399 644.4 898 649.438v-10.761z"/><path fill="#e1a890" fill-opacity=".984" d="M776.49 729.664l-35.188-111.655L898 738.237v203.549z"/><path fill="#171714" fill-opacity=".914" d="M596.128 771.035l-70.715 44.787 50.83 106.035-9.104-221.072z"/><path fill="#b4b6b9" d="M194.356 367.167l25.915 29.212-9.191-10.269-8.746 35.988z"/><path fill="#0f1012" fill-opacity=".898" d="M359.008 275.338l-24.1 30.823 38.814 122.983 18.287 9.03z"/><path fill="#fffeff" fill-opacity=".494" d="M461.638 846.484l77.81-6.452-15.018 14.245-52.511 19.233z"/><path fill="#cac6ca" fill-opacity=".906" d="M458.71 490.89l3.59 85.386 11.532 32.248 61.224.597z"/><path fill="#1d0300" fill-opacity=".29" d="M426.337 233.797l27.74 33.105 117.235-18.907-148.254-23.974z"/><path fill="#171713" fill-opacity=".651" d="M302.38 791.932l-168.866 209.44 37.228-270.995 122.594 145.246z"/><path fill="#171817" fill-opacity=".58" d="M638.86 377l28.653-65.263-191.546 110.337 50.446-77.205z"/><path fill="#975c1a" fill-opacity=".412" d="M554.738 299.136l-43.367 48.308-92.377 76.874-47.634-97.884z"/><path fill="#222120" fill-opacity=".765" d="M293.889 504.607l67.253-123.393-166.831-1.211L358.965 275.26z"/><path fill="#091f5f" fill-opacity=".459" d="M79.405 978.22l20.553-137.39-144.316 40.483L-62 1047.176z"/><path fill="#a1a5a3" fill-opacity=".608" d="M541.499 816.462l4.543-98.387-61.257 43.581-7.628-72.49z"/><path fill="#1d1b1a" fill-opacity=".447" d="M507.589 770.485L295.82 721.789l-17.671 53.12 47.139-33.331z"/><path fill="#e3e0e3" fill-opacity=".792" d="M617.328 432.312l25.566 51.465 84.994 11.392-44.52-56.34z"/><path fill="#d8bb9f" fill-opacity=".788" d="M898 3.957L488.473-62 598.227 68.097 699.71 134.07z"/><path fill="#e7e6e8" fill-opacity=".761" d="M195.83 452.648l74.036-61.187 13.748 98.876 52.75 37.903z"/><path fill="#232323" fill-opacity=".875" d="M340.738 524.703l-40.893-27.398 63.617-171.33-37.193 252.68z"/><path fill="#4c4233" fill-opacity=".643" d="M601.689 139.495L390.904 74.239l78.928-83.855 137.089 91.011z"/><path fill="#585d42" fill-opacity=".573" d="M646.036 783.71l-6.995-260.742-38.06 62.049 72.795 177.667z"/><path fill="#161001" fill-opacity=".616" d="M445.959 404.609l-12.621 80.363 68.528-96.47-57.335-8.46z"/></svg>