<svg xmlns="http://www.w3.org/2000/svg" width="228" height="278" viewBox="0 0 836 1024"><path fill="#a9898b" d="M0 0h836v1024H0z"/><path fill="#7e1613" fill-opacity=".702" d="M689.659-62L-62 568.72l180.557 449.007L-61.362 7.205z"/><path fill="#d1deed" fill-opacity=".71" d="M536.581 986.118l55.63-621.12-307.386-89.123-76.03 773.92z"/><path fill="#d9e3ee" fill-opacity=".714" d="M513.634 231.307l-267.452 73.946L3.925 525.327l69.512 124.12z"/><path fill="#822925" fill-opacity=".671" d="M385.477 819.099l-440.187 149.7L11.28 556.05l159.16 236.99z"/><path fill="#999ca2" fill-opacity=".992" d="M306.24 520.464l239.534 7.073 247.312-580.53-81.537 811.719z"/><path fill="#bd2a27" fill-opacity=".565" d="M897.616 899.59l-190.61 36.222 94.246-516.82L898 241.247z"/><path fill="#e4e1e1" fill-opacity=".851" d="M623.021 954.933l221.512-8.309L898 1086H579.912z"/><path fill="#7b0000" fill-opacity=".549" d="M169.683 646.22l74.27 124.037 4.06-251.046-113.5 37.378z"/><path fill="#6f4f32" fill-opacity=".6" d="M584.578 324.483L690.46-19.425 582.672.781l-101.479 355.19z"/><path fill="#dde2e8" fill-opacity=".725" d="M677.51 664.705l89.594-17.468-89.747 245.643-37.23-57.401z"/><path fill="#e5ffff" fill-opacity=".459" d="M-62 1039.078L335.672 1086l99.911-199.387-442.278 87.169z"/><path fill="#914a45" fill-opacity=".992" d="M435.058 233.512L518.826-62 261.673 296.254l53.518-1.874z"/><path fill="#d9e2ea" fill-opacity=".659" d="M44.919 470.4l186.374 275.318-31.26 48.735-114.52-117.171z"/><path fill="#ad7d74" fill-opacity=".933" d="M379.639 893.272L198.23 863.695l21.416-105.63 79.486 43.083z"/><path fill="#46588d" fill-opacity=".537" d="M417.468 482.645l214.588 97.82-189.191 16.287-78.503-91.059z"/><path fill="#fef2ee" fill-opacity=".424" d="M454 407.897L239.858 719.244l51.152-252.47 227.653-356.025z"/><path fill="#c5cbd4" fill-opacity=".871" d="M693.927 386.06l-72.045 108.036-71.804-180.42 28.034 19.264z"/><path fill="#883232" fill-opacity=".898" d="M145.644 343.89L-30.915 610.872-44.977-62l492.701 301.942z"/><path fill="#e1e0e9" fill-opacity=".859" d="M244.726 766.603l142.759 73.746 23.5-188.374-82.38-256.446z"/><path fill="#925448" fill-opacity=".784" d="M588.77 957.563l-47.766-82.589 39.255-13.106 162.561 23.757z"/><path fill="#dfae75" fill-opacity=".396" d="M526.021-18.042l34.881 262.758-115.217 71.332-9.663-277.69z"/><path fill="#858f87" fill-opacity=".667" d="M601.242 339.203l45.592-391.988L898 9.058 794.74 429.459z"/><path fill="#59726f" fill-opacity=".486" d="M213.656 965.144l16.95-162.277-111.943 79.218L-62 938.282z"/><path fill="#b4b9c3" fill-opacity=".91" d="M530.398 859.584l60.932-9.11 3.066-212.664-124.806-49.86z"/><path fill="#ecebf1" fill-opacity=".976" d="M228.604 840.69l133.17 115.69-90.5 129.62-44.24-191.85z"/><path fill="#8e2e2e" fill-opacity=".976" d="M176.349 772.878L117.13 904.876l-178.204-53.15L-62 531.428z"/><path fill="#19307b" fill-opacity=".486" d="M399.048 410.532l-22.323 34.295 39.484 2.564 17.347 1.668z"/><path fill="#0b3582" fill-opacity=".71" d="M607.208 452.313l-3.591 44.283-34.11-8.607 6.358-24.254z"/><path fill="#f2f2f6" fill-opacity=".706" d="M15.123 550.308l35.395 30.181 111.614-136.243-69.864-6.4z"/><path fill="#f8f8fc" fill-opacity=".702" d="M227.728 324.974l-40.84 39.517-5.518 43.062 277.597-114.467z"/><path fill="#839aca" d="M295.841 297.264l-29.657 22.453 128.165-28.246-11.01-29.434z"/><path fill="#1c3067" fill-opacity=".616" d="M435.062 578.412l185.999 53.165-61.254-16.824-86.896-46.812z"/><path fill="#fec3a4" fill-opacity=".455" d="M542.228 123.2l86.596-4.469-99.752-58.539L453.5 180.444z"/><path fill="#c3c7d6" fill-opacity=".667" d="M399.852 511.472L381.66 553.24l218.334-193.03-43.665 191.639z"/><path fill="#a25347" fill-opacity=".396" d="M328.206 802.165l55.189 29.79-92.547 72.687-64.966-74.087z"/><path fill="#694f3e" fill-opacity=".624" d="M632.86 97.377l-31.242-145.66-252.889 200.17 200.93-95.72z"/><path fill="#531b00" fill-opacity=".298" d="M614.113 270.424L452.99 304.788l82.705 62.493 83.658-271.87z"/><path fill="#9ba1a9" fill-opacity=".561" d="M292.789 514.07l-12.338-72.744-146.4 74.15-32.723 56.013z"/><path fill="#b24747" fill-opacity=".706" d="M898 508.123l-84.619 324.461-73.666-285.374 47.135-82.432z"/><path fill="#aebec7" fill-opacity=".596" d="M321.55 1006.841l228.235-104.69 81.393 98.41-94.109 2.395z"/><path fill="#002e86" fill-opacity=".596" d="M392.632 481.007l49.314 25.69-60.907 10.62-3.46 42.588z"/><path fill="#451600" fill-opacity=".529" d="M512.004 140.78l48.776 17.877 69.075-21.972-79.645-8.342z"/><path fill="#b1b6be" fill-opacity=".675" d="M637.54 388.646l74.266 60.317 49.752 198.499-3.744 63.127z"/><path fill="#cbccd3" fill-opacity=".643" d="M35.724 545.458l169.784 278.896-13.144-128.335-48.58-112.577z"/><path fill="#b65758" fill-opacity=".937" d="M713.501 811.567l54.444-82.7L898 918.81l-217.13 9.685z"/><path fill="#ba3d2c" fill-opacity=".318" d="M587.76 897.507l-15.233-33.88 78.937-47.227 19.962-178.345z"/><path fill="#eff3ff" fill-opacity=".447" d="M397.113 251.874l97.294 111.363-34.737 156.766-66.916-151.548z"/><path fill="#d2937e" fill-opacity=".757" d="M582.499 146.6l1.234 15.1-164.056 11.719 205.69 11.578z"/><path fill="#808684" fill-opacity=".961" d="M418.204 1015.113l-9.07-19.89 147.175 17.817-80.203 22.505z"/><path fill="#e0e1ea" fill-opacity=".596" d="M259.562 545.52l-11.238 213.682L498.64 505.76l-56.627 80.18z"/><path fill="#da9696" fill-opacity=".435" d="M898 877.106v79.11l-232.225 15.478-68.25-15.737z"/><path fill="#3aa5e5" fill-opacity=".506" d="M151.511 388.593l-14.94 27.742-7.748 16.302 68.489-44.841z"/><path fill="#d7d9e5" fill-opacity=".71" d="M325.404 975.837l110.202-299.835-14.836 198.922 78.38 80.852z"/><path fill="#fffbfa" fill-opacity=".29" d="M595.597 899.333L703.35 779.998l-4.028-207.972-55.783 258.02z"/><path fill="#59617f" fill-opacity=".992" d="M563.867 581.708L439.08 528.636l159.851 34.902-18.518 55.06z"/><path fill="#818b9b" fill-opacity=".843" d="M630.504 298.073l-68.554-21.062-10.794 48.765 100.784 36.97z"/><path fill="#dfcab1" fill-opacity=".267" d="M416.911 47.262l94.15-63.291-22.533 244.607L567.304 67.17z"/><path fill="#a6babf" fill-opacity=".506" d="M246.483 944.011l.034 85.211L-62 950.602l250.645-5.313z"/><path fill="#8f3333" fill-opacity=".941" d="M17.336 379.163L233.595-62h201.5l-25.89 280.712z"/><path fill="#b67051" fill-opacity=".455" d="M587.364 157.548l-121.971 84.839 14.148 101.057 94.49-106.38z"/><path fill="#8f3131" fill-opacity=".788" d="M244.554 741.589l5.595-154.953-41.387-58.371-61.024 62.56z"/><path fill="#00308e" fill-opacity=".537" d="M450.112 496.516l-84.097 25.869 33.7 47.22-21.422-72.896z"/><path fill="#9f9990" fill-opacity=".459" d="M827.707 116.039L898 282.124 739.393 559.928l-84.914-243.781z"/><path fill="#39446e" fill-opacity=".749" d="M511.452 510.218l-10.532 8.063-3.448 77.201 3.086-7.925z"/><path fill="#011b5d" fill-opacity=".533" d="M472.21 567.947l-45.112 18.426 98.847 4.86 20.666 30.043z"/><path fill="#d8d8e2" fill-opacity=".855" d="M403.859 683.587L333.905 321.85 255.06 646.83l-6.383-117.251z"/><path fill="#bcbcca" fill-opacity=".4" d="M568.096 589.707l-41.093-15.556-134.11-24.567 176.304 48.715z"/><path fill="#c1bfca" fill-opacity=".902" d="M240.006 757.976l-22.634 20.604-72.024-202.156-64.653-12.579z"/><path fill="#033133" fill-opacity=".094" d="M678.744 148.258l116.825-90.747L725.684-62 538.316 36.178z"/><path fill="#d8d8e4" fill-opacity=".71" d="M383.7 1086l-24.344-181.942 55.08 63.5-134.702-115.45z"/><path fill="#822c2b" fill-opacity=".824" d="M58.143 865.416l-111.387-5.094 164.607-134.724-72.877-144.83z"/><path fill="#92835f" fill-opacity=".251" d="M585.601 681.657l69.94 128.629 8.659-304.591-57.05 18.281z"/><path fill="#371a00" fill-opacity=".325" d="M520.704 344.299l.049-117.112 36.027 61.148-15.673 52.852z"/><path fill="#6d504f" fill-opacity=".557" d="M-62 927.244l208.563 4.41 23.401-171.013 37.863 84.843z"/><path fill="#f5c9ad" fill-opacity=".561" d="M457.024 191.894L410.337 309.39l112.118-190.01-20.692 130.317z"/><path fill="#772e2f" fill-opacity=".796" d="M-29.054 438.9l68.687 260.467-63.207-444.139L225.384-62z"/><path fill="#fffcfd" fill-opacity=".416" d="M157.88 376.721l101.426-73.65 46.374 31.023-96.527 32.417z"/><path fill="#d7dfe8" fill-opacity=".471" d="M546.332 325.592l125.075 47.183L538.91 477.797l75.588-42.647z"/><path fill="#3c1b1d" fill-opacity=".329" d="M-62 21.95L115.513-62-2.381 133.344-62 88.918z"/><path fill="#191218" fill-opacity=".114" d="M645.891-25.87L332.716 47.626 76.42 466.444 313.017-62z"/><path fill="#cfd1df" fill-opacity=".569" d="M498.575 498.53l102.12 24.494-110.147-185.203-99.04 147.966z"/><path fill="#8e6e55" fill-opacity=".588" d="M569.704 9.428l-89.77 123.51-3.104-4.346-69.691-68.576z"/><path fill="#eeeef4" fill-opacity=".788" d="M27.161 524.037l31.554-43.756 50.798-54.042 80.97 27.976z"/><path fill="#ddfdff" fill-opacity=".29" d="M252.538 997.648l199.196 36.543L898 968.569V1086z"/><path fill="#834e45" fill-opacity=".788" d="M604.618 953.378l69.838-46.57-106.537-11.335-13.947 16.325z"/><path fill="#d7997c" fill-opacity=".431" d="M606.964 125.772l-.999-49.756-109.033-15.472-6.483 64.37z"/><path fill="#c4c7d6" fill-opacity=".494" d="M349.124 289.788L285.875 531.07l-35.237-159.095 151.71-99.967z"/><path fill="#c89585" fill-opacity=".788" d="M552.056 894.283L675.008 865.6l-38.382-27.105-70.863 67.417z"/><path fill="#695554" fill-opacity=".506" d="M242.475 758.528l-26.534-35.413 33.358-132.29-1.988 189.256z"/><path fill="#a23737" fill-opacity=".553" d="M-62 587.222l174.24-367.093 80.41-176.783L333.7-62z"/><path fill="#023482" fill-opacity=".529" d="M610.219 446.561l-36.369 15.667 9.307 36.099 25.81-25.685z"/><path fill="#901408" fill-opacity=".231" d="M480.54 177.376l3.036 69.053L396.47 18.77 268.048-62z"/><path fill="#853a31" fill-opacity=".388" d="M357.364 883.322l-90.102-84.874 74.746 101.06-89.668-71.493z"/><path fill="#001761" fill-opacity=".384" d="M474.671 566.936l64.269 40.071-150.544-40.973 64.602 35.202z"/><path fill="#7c83b1" fill-opacity=".953" d="M315.439 300.13l78.54-10.293-18.485 14.352-156.552-8.107z"/><path fill="#e2e4ef" fill-opacity=".561" d="M470.35 568.235l-18.91-45.986 10.87-17.598-14.008 62.842z"/><path fill="#c5c9d8" fill-opacity=".478" d="M593.262 617.213l-186.687-22.047 38.348-49.169-66.61 232.192z"/><path fill="#efeff4" fill-opacity=".851" d="M220.642 972.37l63.776-59.987-60.698-40.76 6.589 143.136z"/><path fill="#ccd3d2" fill-opacity=".769" d="M-25.51 1017.581l126.505-38.474 43.504-.695 10.547 78.377z"/><path fill="#9b3434" fill-opacity=".953" d="M387.55 87.03L243.747 312.932l-60.235 35.503 141.49-292.38z"/><path fill="#331401" fill-opacity=".447" d="M537.638 136.338l61.227 14.474 9.241 29.611 16.866-49.716z"/><path fill="#c4cccd" fill-opacity=".384" d="M658.855 830.012L761.08 688.195 696.776 853.21l-158.397 5.046z"/><path fill="#65776b" fill-opacity=".435" d="M600.118 981.597l8.171 77.343.536-102.55-54.766 29.244z"/><path fill="#a02222" fill-opacity=".341" d="M228.098 526.082l-70.22 86.836 51.835 107.963 46.904-104.944z"/><path fill="#ededf5" fill-opacity=".659" d="M449.235 359.573l-30.16-104.547-16.39.13-46.545 203.707z"/><path fill="#aa776b" fill-opacity=".984" d="M533.638 931.96l134.54-61.434-41.978 54.162 60.541-47.3z"/><path fill="#908285" fill-opacity=".808" d="M191.212 584.62l-24.895-25.116-21.396 16.158-33.467-73.731z"/><path fill="#fefcff" fill-opacity=".31" d="M245.082 717.344l14.693-116.421 77.416 118.48-62.777 81.966z"/><path fill="#728682" fill-opacity=".373" d="M135.771 966.695L-62 949.888l289.715-35.456-36.062-118.75z"/><path fill="#a74141" fill-opacity=".745" d="M446.75 228.19l-85.499 46.187-5.18-28.701 85.295-92.548z"/><path fill="#787e92" fill-opacity=".992" d="M580.111 523.618l-20.703-13.077 5.225 113.872 11.404-96.753z"/><path fill="#299be0" fill-opacity=".22" d="M115.436 417.344l36.079 27.672 38.01-75.144-20.775 11.738z"/><path fill="#085bff" fill-opacity=".22" d="M242.064 1076.71l5.77-134.01-19.13 38.139L249.41 1086z"/><path fill="#e7ecff" fill-opacity=".294" d="M392.088 526.328l78.552 5.604-64.161-25.606-21.78 149.096z"/><path fill="#c1c6d2" fill-opacity=".965" d="M556.137 937.663l-62.87-265.02-59.137 154.188 174.783 135.466z"/><path fill="#a2a5a8" fill-opacity=".627" d="M236.545 515.178l40.085 64.926-1.607-127.332-147.767 122.554z"/><path fill="#a94d4d" fill-opacity=".769" d="M698.512 850.715l64.252 1.493 66.68-115.913 62.314-326.118z"/><path fill="#0036ab" fill-opacity=".294" d="M424.437 586.46l-45.173-47.873 18.513-28.133-35.914 39.158z"/><path fill="#3f1103" fill-opacity=".282" d="M600.703 860.792l12.185 11.124-70.709 16.252 2.696-13.202z"/><path fill="#a8adb4" fill-opacity=".816" d="M584.272 527.28l66.707-121.69 30.36 49.767-149.818 121.334z"/></svg>