<svg xmlns="http://www.w3.org/2000/svg" width="228" height="278" viewBox="0 0 836 1024"><path fill="#7e8584" d="M0 0h836v1024H0z"/><path fill="#c3cfeb" fill-opacity=".788" d="M640.304 236.382L354.098 1086 173.112 138.593 423.88 399.2z"/><path fill="#1f0f00" fill-opacity=".482" d="M898 3.819L434.243 369.61-62-13.03l883.145.367z"/><path fill="#121400" fill-opacity=".71" d="M-62 847.454l92.055-285.65 281.216 117.211-29.768 163.522z"/><path fill="#c8dbff" fill-opacity=".549" d="M738.66 760.053L742.375 1086l-628.492-16.388 230.673-307.995z"/><path fill="#1a1818" fill-opacity=".773" d="M-62 296.127l163.666-66.598 74.198 101.614-99.171 157.005z"/><path fill="#dee1ed" fill-opacity=".765" d="M-5.294 620.063L164.142 466.98l311.95 73.856-209.21-351.575z"/><path fill="#c3ab6e" fill-opacity=".992" d="M686.895 772.664l153.365 88.403L898 488.695l-214.654-34.037z"/><path fill="#3b5a7e" fill-opacity=".624" d="M495.275 528.277l285.271-175.516L674.575 497.07 526.42 1057.504z"/><path fill="#00142e" fill-opacity=".318" d="M329.49 595.707l222.53 32.313-387.15-163.948L-7.14 906.319z"/><path fill="#7cac1d" fill-opacity=".537" d="M222.84 963.648L-17.198 1086-62 788.055l340.948 59.45z"/><path fill="#dfe7ff" fill-opacity=".6" d="M212.03 523.65l378.664-44.092 110.06-146.342-66.682-27.743z"/><path fill="#120900" fill-opacity=".651" d="M381.944 97.188L-62-62l519.145 16.229 11.547 445.04z"/><path fill="#9b9791" fill-opacity=".718" d="M167.264 369.128L329.699 218.62l24.6-145.406-181.04 95.768z"/><path fill="#142270" fill-opacity=".427" d="M261.485 707.639l394.65-44.018-61.687 84.116-219.976 15.532z"/><path fill="#9fb2de" fill-opacity=".294" d="M898 503.614L502.171 266.25l-65.055-161.713L898 165.826z"/><path fill="#e7edff" fill-opacity=".718" d="M37.137 562.81l-77.16 1.87 190.937-109.485-6.012 109.636z"/><path fill="#a6c5fb" fill-opacity=".506" d="M697.113 853.692l-79.67-125.169 34.614-241.564 55.683-29.418z"/><path fill="#d9e1ef" fill-opacity=".937" d="M115.174 1076.746L356.57 1086l-26.54-354.16-76.827 174.58z"/><path fill="#879201" fill-opacity=".475" d="M733.29 1030.961l31.879-294.43L898 640.894 830.863 1086z"/><path fill="#a57b5a" fill-opacity=".937" d="M290.246 213.488l55.421 141.57 38.804 12.424 11.646-161.675z"/><path fill="#000d10" fill-opacity=".341" d="M118.644 67.315L898-62l-81.753 253.871-70.06-103.952z"/><path fill="#596a7f" fill-opacity=".98" d="M492.775 953.87l-35.768-68.79 139.109 90.89-27.343-159.739z"/><path fill="#33211b" fill-opacity=".737" d="M559.788 256.518l-113.65 119.405-79.764-11.077 37.05-116.22z"/><path fill="#404f46" fill-opacity=".522" d="M441.595-62L-62 52.24l254.144 308.911-67.023-190.176z"/><path fill="#e4e8f3" fill-opacity=".686" d="M241.086 312.82l103.219 292.475 137.816-179.232-3.32-24.015z"/><path fill="#071625" fill-opacity=".569" d="M173.826 459.365l129.358 131.633-11.16-80.501-149.54 33.861z"/><path fill="#d4d9f6" fill-opacity=".525" d="M898 48.337l-20.57 500.27-87.29-258.348-72.918 113.246z"/><path fill="#a1b1cd" fill-opacity=".537" d="M583.008 880.427l-208.101-401.82 198.577 173.564-158.29 260.389z"/><path fill="#022079" fill-opacity=".725" d="M634.464 285.487l106.14 21.563-11.687 31.722-105.466-35.216z"/><path fill="#b5c3dd" fill-opacity=".98" d="M707.988 1086L271.525 925.908l355.153 45.442 125.418-91.282z"/><path fill="#e0eaff" fill-opacity=".439" d="M189.82 346.723l36.854 242.66L311.8 418.848l-231.538 82.03z"/><path fill="#687e81" fill-opacity=".522" d="M816.971 214.917l-299.849 71.43 95.069-193.365 158.307-22.86z"/><path fill="#000101" fill-opacity=".529" d="M144.576 668.65l145.157 109.988-186.36 9.315L7.138 600.481z"/><path fill="#ffd6c0" fill-opacity=".353" d="M468.312 71.563l3.984 225.163 12.104-33.972 21.259-7.026z"/><path fill="#805c4b" fill-opacity=".804" d="M-23.746 629.73l64.737-79.125L-62 860.047 60.867 681.519z"/><path fill="#6b86a9" fill-opacity=".565" d="M594.613 759.67l-104.34 18.76 92.821 126.089 175.42-23.817z"/><path fill="#c1d4f9" fill-opacity=".467" d="M529.209 666.253l-224.537 51.19L256.997 580.4l61.048 7.922z"/><path fill="#6b2e01" fill-opacity=".467" d="M447.051 66.675L340.99 272.43 290.222 52.406l-17.024 117.967z"/><path fill="#131a00" fill-opacity=".365" d="M483.63 561.621l94.221-85.563 7.355 84.543-45.049 28.756z"/><path fill="#a06139" fill-opacity=".659" d="M528.143 683.462l-44.86 6.33-79.53 100.008 90.446-64.922z"/><path fill="#000c3a" fill-opacity=".788" d="M605.49 745.246l-21.017-66.945-9.644-6.803-55.866 70.605z"/><path fill="#0a45ca" fill-opacity=".824" d="M334.36 714.16l2.542 33.38 38.643 4.197-23.034-73.018z"/><path fill="#94582e" fill-opacity=".702" d="M60.155 555.811l61.983 33.524-62.757 24.943-44.27-46.122z"/><path fill="#0d0e0e" fill-opacity=".424" d="M-62 300.288l61.42 21.08 213.42-2.521L90.49 435.079z"/><path fill="#d9e0f2" fill-opacity=".773" d="M513.473 820.026L407.791 932.982l-154.276-34.107 74.802-76.602z"/><path fill="#f99e5f" fill-opacity=".318" d="M281.532 277.666l20.002-196.921 100.03-.526-66.793 82.342z"/><path fill="#c28f44" fill-opacity=".729" d="M851.199 785.13l-100.174 47.66-58.805-122.9L898 640.07z"/><path fill="#d72d00" fill-opacity=".49" d="M813.095 346.028l-59.184-39.763 21.69 56.28 38.417-4.4z"/><path fill="#281400" fill-opacity=".384" d="M502.439 22.572l-9.522 206.839 74.504-117.588L390.058 85.2z"/><path fill="#043ab9" fill-opacity=".416" d="M422.75 785.01l-13.18-99.88-30.497 81.942L257.86 622.321z"/><path fill="#426198" fill-opacity=".498" d="M549.727 320.34l-76.802 57.96-58.217 49.304 126.416-176.533z"/><path fill="#0c4bbc" fill-opacity=".427" d="M450.082 601.23l-125.671-25.486 153.176-12.19-135.847 50.494z"/><path fill="#000d10" fill-opacity=".498" d="M534.643 882.914l89.032.252-53.876 19.553-56.248 22.626z"/><path fill="#9fbfe3" fill-opacity=".161" d="M205.19 494.106L101.023 224.12l41.552-136.872L340.23 210.23z"/><path fill="#667a8e" fill-opacity=".792" d="M146.502 517.288L304 698.53l-73.112-194.205-118.855 109.98z"/><path fill="#002b3b" fill-opacity=".306" d="M761.37 362.016l-38.636 85.226-94.836 36.254-46.323-17.552z"/><path fill="#d6def0" fill-opacity=".514" d="M279.103 652.84L470.13 712.6l-49.946 52.209.469-165.118z"/><path fill="#fafeff" fill-opacity=".282" d="M-28.622 652.857L232.9 308.022 102.56 575.547 4.951 442.872z"/><path fill="#486635" fill-opacity=".502" d="M-39.523 846.044l40.83-46.988 303.955 1.092-53.021 77.077z"/><path fill="#002a9c" fill-opacity=".416" d="M471.433 679.956l-34.146 27.163 43.573 29.34 40.355 77.746z"/><path fill="#95aac9" d="M401.698 1019.1l-86.01-92.04 118.98 48.775 155.94 15.616z"/><path fill="#404647" fill-opacity=".58" d="M85.364 578.47l221.443 195.775-29.986-121.02-8.607-45.189z"/><path fill="#a0c5ff" fill-opacity=".247" d="M775.856 461.69L898 506.295l-228.376 28.989L898 249.042z"/><path fill="#ced9f2" fill-opacity=".694" d="M393.57 762.755l-59.657-126.392-31.482 141.38 69.566-154.117z"/><path fill="#946415" fill-opacity=".404" d="M436.593 516.944l-77.108-1.487 21.583 7.611 19.906 27.5z"/><path fill="#615c58" fill-opacity=".557" d="M209.84 321.02L81.524 170.76-62 331.073l147.219-59.395z"/><path fill="#b4c2de" fill-opacity=".933" d="M580.744 877.001l106.274-22.81-86.932-3.413-96.831 26.95z"/><path fill="#ebf0f6" fill-opacity=".973" d="M163.471 989.903L121.455 1086l121.18-76.375 46.667-31.228z"/><path fill="#000002" fill-opacity=".49" d="M374.27-62L502.677 93.076l-188.251-19.11-76.01 98.63z"/><path fill="#283027" fill-opacity=".565" d="M267.726 560.159l.378-48.567 36.78 2.474 12.402 75.709z"/><path fill="#bbc9e2" fill-opacity=".667" d="M286.669 609.952l83.088-80.66-109.692 25.972 142.73 4.214z"/><path fill="#000b1b" fill-opacity=".549" d="M145.473 497.953l35.642-36.764 36.287 43.576-53.966 51.677z"/><path fill="#d4dcef" fill-opacity=".769" d="M683.84 1086l31.482-178.059-127.634 31.01 158.622 21.151z"/><path fill="#000b20" fill-opacity=".212" d="M13.637 321.9l161.714-53.564-207.274 340.82 163.734-185.83z"/><path fill="#a5b6d2" fill-opacity=".941" d="M639.445 740.882l-177.174 36.37-28.49 62.258L361 777.37z"/><path fill="#76973d" fill-opacity=".718" d="M643 1086l255-87.225-158.384-196.669 9.454 189.139z"/><path fill="#fafcff" fill-opacity=".337" d="M526.048 406.483L362.971 457.22l41.154-3.681 64.924 169.972z"/><path fill="#d8e3ff" fill-opacity=".42" d="M683.606 828.834l5.641-321.225 22.12 109.154-10.597 159.484z"/><path fill="#fdd7ba" fill-opacity=".357" d="M369.858 277.176l21.928-119.672 7.137 83.75-151.855 66.567z"/><path fill="#93a8cf" fill-opacity=".745" d="M731.849 223.352L605.606 418.085l157.588-57.76-101.277-44.782z"/><path fill="#000100" fill-opacity=".561" d="M446.03 370.378l51.264-45.906 5.117-61.795-89.26 97.184z"/><path fill="#200c00" fill-opacity=".506" d="M340.042 158.596l.796 78.495 43.278-46.953 85.935-30.248z"/><path fill="#2462d1" fill-opacity=".604" d="M428.99 569.717l27.277 6.75-5.11 33.118-19.394 10.637z"/><path fill="#d9bf56" fill-opacity=".435" d="M710.507 667.611l106.72 56.74 77.725-125.745-200.505-114.104z"/><path fill="#dfdff6" fill-opacity=".408" d="M211.41 332.96l-94.185 73.772 67.854 40.85L270.76 569.64z"/><path fill="#8ca3c0" fill-opacity=".627" d="M751.922 997.046l-61.133-146.52-170.252 112.948 227.17-93.162z"/><path fill="#02172e" fill-opacity=".349" d="M573.248 966.024l-82.071-14.97 107.605 4.411-37.3-76.003z"/><path fill="#617759" fill-opacity=".722" d="M240.184 929.64L-62 724.703l329.941 223.566-16.75 18.828z"/><path fill="#c6d1f4" fill-opacity=".349" d="M554.204 232.215l75.233 90.956 63.402 5.172-117.018 164.925z"/><path fill="#221914" fill-opacity=".725" d="M52.655 644.087L91.51 570.42l23.328 17.862L54.7 796.217z"/><path fill="#2b382d" fill-opacity=".447" d="M-54.436 209.507L-2.688-62 368.415 81.295 61.577 45.518z"/><path fill="#2b506f" fill-opacity=".353" d="M573.864 545.867l127.247-105.124 185.85 49.949L659.443 384.84z"/><path fill="#07344e" fill-opacity=".286" d="M536.119 837.266l-52.237 21.483 225.767-33.158-27.402 23.413z"/><path fill="#4a5967" fill-opacity=".502" d="M21.542 379.261l59.03 74.544 16.272 52.488-133.296-117.198z"/><path fill="#b7d1ff" fill-opacity=".38" d="M898 436.807L791.052 464.92 898 237.88l-99.402 13.887z"/><path fill="#455e6e" d="M636.868 477.565l132.762-87.498-37.706 71.207 60.98-86.052z"/><path fill="#577894" fill-opacity=".624" d="M611.3 787.265l-26.783-305.98 42.913-56.226 10.898 260.632z"/><path fill="#dfe6f8" fill-opacity=".369" d="M289.653 845.68l16.395-117.945 175.318 196.63-15.342 57.457z"/><path fill="#001f40" fill-opacity=".2" d="M657.551 796.981l3.668-58.372 28.534 21.172-164.441 60.983z"/><path fill="#b7bcd5" fill-opacity=".584" d="M744.549 342.65L898 178.304 713.657 399.543l30.303-106.948z"/><path fill="#ba7b43" fill-opacity=".475" d="M274.277 191.606l22.39 62.24 59.952 74.941-42.913-205.64z"/><path fill="#5b3c24" fill-opacity=".773" d="M501.85 269.773l-158.328 34.91 80.6-55.771-85.171 6.138z"/><path fill="#e77000" fill-opacity=".392" d="M513.612 706.57l-89.845 40.53 44.743 10.276 38.852-94.828z"/><path fill="#bfc9e7" fill-opacity=".396" d="M546.756 821.389l182.697 13.287 11.615-37.508-56.489-18.35z"/><path fill="#adbccd" fill-opacity=".388" d="M355.25 169.883L211.879 394.227l19.498-229.793 58.188 65.804z"/><path fill="#d1d8f0" fill-opacity=".494" d="M536.338 944.472l47.352-9.39L467.98 1086h310.004z"/><path fill="#0128a8" fill-opacity=".659" d="M396.204 767.346l-2.44-79.342 27.122 7.964-11.948 53.388z"/><path fill="#85a448" fill-opacity=".918" d="M-62 938.11l324.285-38.584-113.607 106.109-6.323 80.365z"/><path fill="#515c59" fill-opacity=".561" d="M506.756 103.12l246.231-49.154-142.614 111.288L524.328 188z"/><path fill="#1e321b" fill-opacity=".373" d="M293.665 814.426L-62 828.009 307.421 709.21l-10.458 78.079z"/><path fill="#350800" fill-opacity=".451" d="M-62 615.252l9.193 32.876 64.497 44.91 38.342-94.483z"/><path fill="#a6b6c6" fill-opacity=".651" d="M506.383 462.76l91.06-6.7-100.518 70.008 23.954 51.019z"/><path fill="#eeebf7" fill-opacity=".204" d="M310.675 95.366l21.408-17.99 37.634 92.579-64.02-59.964z"/><path fill="#6f8bb6" fill-opacity=".647" d="M125.437 605.847l-9.501-36.58 30.938-50.333 25.041 47.925z"/><path fill="#687671" fill-opacity=".565" d="M277.941 118.767l9.496 40.772-260.004 39.653-17.204-57.395z"/><path fill="#002f8d" fill-opacity=".447" d="M346.645 571.613l32.132 47.3-5.178-36.813 77.722-7.14z"/><path fill="#d2def2" fill-opacity=".416" d="M461.128 547.265L261.62 550.33l32.427-8.419 58.901 38.72z"/><path fill="#b79791" fill-opacity=".333" d="M55.084 679.722l-22.202-24.264-29.32 157.85L-62 765.36z"/><path fill="#8198bc" fill-opacity=".757" d="M754.033 332.941l-79.61 70.755 56.066-158.101-51.022 190.579z"/><path fill="#9da38c" fill-opacity=".263" d="M643.679 271.438l-171.461-41.026 227.668-80.509 126.523 178.57z"/></svg>