<svg xmlns="http://www.w3.org/2000/svg" width="228" height="278" viewBox="0 0 836 1024"><path fill="#8a8887" d="M0 0h836v1024H0z"/><g fill-opacity=".502"><path fill="#fff" d="M218 230l680 624-632 232z"/><path fill="#090400" d="M830-62L-62 26l960 460z"/><path fill="#111919" d="M14 1086L258-10l-320-4z"/><path fill="#fff" d="M598 310L-62 590l864-16z"/><path fill="#000202" d="M754 326l60 760 84-448z"/><path fill="#f7f9ff" d="M646 1034l-20-616-440 660z"/><path fill="#131c25" d="M-62 30l620 300-496-60z"/><path fill="#fbf9fb" d="M194 866L70 850l108-440z"/><path fill="#f8c590" d="M418 94l116 4 40 292z"/><path fill="#000002" d="M114 1086l112-20 8-344z"/><path fill="#2c2118" d="M662 1082l100 4-112-364z"/><path fill="#7f8177" d="M-2 346l400 320-460-44z"/><path fill="#0a2143" d="M646 710l180-140-188 16z"/><path fill="#f6f5fc" d="M118 506l96-160 536 112z"/><path fill="#fff" d="M654 686l136 264-8-292z"/><path fill="#da7839" d="M114 1050L-62 910l248-36z"/><path fill="#573b1b" d="M546 302l-156 76-52-440z"/><path fill="#000b1b" d="M98 678L-62 566 54 930z"/><path fill="#7b808b" d="M606 606l-116 84-152-96z"/><path fill="#121c1e" d="M702-62L-34-10l680 136z"/><path fill="#8f8888" d="M298 378L58 358l484-220z"/><path fill="#f2f4fd" d="M786 570l-312 32 236-200z"/><path fill="#f1f2fb" d="M686 1086L546 562l-108 480z"/><path fill="#061113" d="M782 1086l116-148-96-144z"/><path fill="#3b413c" d="M850 494L834-62 506 278z"/><path fill="#efeef1" d="M674 382l-152-80-148 284z"/><path fill="#5b5224" d="M546 458l-48 72 44 16z"/><path fill="#322b1c" d="M450 390l48-88-244-140z"/><path fill="#3b4038" d="M-62 390l188 232 12-92z"/><path fill="#bfbfc4" d="M258 722l244 364-272-12z"/><path fill="#c78f4e" d="M578 282L378 390l104 4z"/><path fill="#4d4f4a" d="M898 202l-44 676-144-580z"/><path fill="#f0eef1" d="M254 362l108-48 56 348z"/><path fill="#e1e1ec" d="M786 914l-104 8 4-144z"/><path fill="#5e6771" d="M626 670l228-8 44-172z"/><path fill="#bab6b4" d="M206 814L74 594l124-24z"/><path fill="#ebb185" d="M538 234l-188-52h196z"/><path fill="#e8e7f0" d="M274 694l360-36 4 424z"/><path fill="#f2f1f8" d="M78 834l48-180 60 224z"/><path fill="#9c6535" d="M666 910l104 176 28-160z"/></g></svg>