<svg xmlns="http://www.w3.org/2000/svg" width="228" height="278" viewBox="0 0 836 1024"><path fill="#424349" d="M0 0h836v1024H0z"/><g fill-opacity=".502"><path fill="#7f9fc3" d="M298 26l592 732-644 188z"/><path d="M802 790l96-820-432-4zM50 698L386 18-62-62z"/><path fill="#ee8b46" d="M666 922l-276 164 412-580z"/><path d="M518 886l-36-512-72 200z"/><path fill="#2d9aff" d="M474 270l200 156-128 488z"/><path fill="#ba723f" d="M134 194l348 220 24-320z"/><path fill="#e99a66" d="M-58 874l116 60 236-408z"/><path fill="#46b4ff" d="M342 950l104-344 8 340z"/><path d="M126 850l-172 236 444-108z"/><path fill="#a4eaff" d="M338 654l188-348-148 92z"/><path d="M142 706L-62-62l336 520z"/><path fill="#cbfce3" d="M642 414l92 220-120 56z"/><path d="M346 654l-28 284 76-140z"/><path fill="#140500" d="M758-18l16 600L370 46z"/><path d="M438 986l108-88-48-176z"/><path fill="#77cdff" d="M350 290l-56 272-44-220z"/><path d="M342 402l4 248-40-108z"/><path fill="#8a5934" d="M822 522L514 918l340-28z"/><path fill="#269fff" d="M558 978l80-80 16 164z"/><path fill="#060000" d="M678 842l220 124-228 56z"/><path fill="#51c1ff" d="M346 770l-64 160 28-284z"/><path fill="#ab6a3a" d="M362 454L286 62l240 112z"/><path d="M418 542l84 236-16-388z"/><path fill="#050000" d="M2-62l-60 284L490 70z"/><path fill="#36210a" d="M250 866l56-116-40-184z"/><path fill="#02040d" d="M-62 538l356-176-72 220z"/><path fill="#73a8e9" d="M410 802l12-392-80 120z"/><path fill="#42505e" d="M218 110l132 180-204 36z"/><path fill="#94cbff" d="M258 566l84 112-64-240z"/><path fill="#d7885a" d="M678 718l-148 364-136-12z"/><path d="M610 770l20-60-40-60z"/><path fill="#715851" d="M50 578L-62 906l224-228z"/><path fill="#fffff7" d="M342 1034l104-72-104 36z"/><path fill="#fffeff" d="M318 354l8 52h108z"/><path d="M426 1086L-62 970l328-56z"/><path fill="#ffe600" d="M702 598l-64 20 44-84z"/><path fill="#6bb1ff" d="M346 950l132-160-36 156z"/><path d="M306 910l52 32V754zM-62 50l4 760L218 34z"/></g></svg>