<svg xmlns="http://www.w3.org/2000/svg" width="228" height="278" viewBox="0 0 836 1024"><path fill="#7c767c" d="M0 0h836v1024H0z"/><g fill-opacity=".502"><path fill="#fff" d="M254 310l612 88-608 688z"/><path fill="#120000" d="M-62 62l960 392-72-516z"/><path fill="#dcf1ff" d="M494 1086l144-800L2 1038z"/><path fill="#210700" d="M682 538l216 524-416 24z"/><path fill="#0f0503" d="M14-50l540 384-616-116z"/><path fill="#4a2427" d="M318 474L-62 694l216 260z"/><path fill="#ddefff" d="M762 434L270 310 74 554z"/><path fill="#a9969a" d="M86 438l84-472 96 200z"/><path fill="#261912" d="M558 262L270-62l-60 408z"/><path fill="#472d33" d="M142 402l-204-28 44 712z"/><path fill="#e3efff" d="M150 950l324 136-124-548z"/><path fill="#d2630d" d="M566 614l148-52-228-36z"/><path d="M170 162L-62 310 26-62z"/><path fill="#f2ffff" d="M774 658l-48-248-152-104z"/><path fill="#2b0f00" d="M542 414l48-212-124 64z"/><path fill="#e8f4ff" d="M306 322L86 522l88 64z"/><path fill="#65555d" d="M882 378l-148-72 72 580z"/><path fill="#ccd8d9" d="M230 306L74 238 26 374z"/><path fill="#9b6a4f" d="M394 338L606 94 434 46z"/><path fill="#3da4cf" d="M474 610l20-84-284-56z"/><path fill="#898491" d="M402 746l124-80 196 240z"/><path fill="#e3f0ff" d="M190 398l244-116 52 132z"/><path fill="#0b0707" d="M174-62l196 316L470-14z"/><path fill="#523945" d="M306 446l-52 264-124-92z"/><path fill="#32241f" d="M34 594l224-276-156 108z"/><path fill="#cbcff2" d="M-54 1018l136 56 28-196z"/><path fill="#bbcdf0" d="M426 382L258 558l228 528z"/><path fill="#7687a2" d="M714 482l-96 140 136 40z"/><path fill="#0c2e6a" d="M38 706l-100 352 172-272z"/><path fill="#452b1a" d="M898 194L522-58l96 392z"/><path fill="#e4eaff" d="M670 554l28-204-348 140z"/><path fill="#cbdcff" d="M646 630l-216-36 180 160z"/><path fill="#2c2c2d" d="M390 410l80 12-96 12z"/><path fill="#7f4b33" d="M770 646L550 890l308 12z"/><path fill="#371100" d="M86 682l68-88-72-76z"/><path fill="#6b4946" d="M550 242l248 216-92-372z"/><path fill="#6c5254" d="M230 366l112-116L82-62z"/><path fill="#191f22" d="M618 758l112 60-56-272z"/><path fill="#0e1a22" d="M866 950l-272-24 136 160z"/><path fill="#fff" d="M574 378l160 16-140-72z"/></g></svg>