<svg xmlns="http://www.w3.org/2000/svg" width="228" height="278" viewBox="0 0 836 1024"><path fill="#615555" d="M0 0h836v1024H0z"/><g fill-opacity=".502"><path fill="#f3ffff" d="M-2 1086L6 62l244 708z"/><path d="M866 550L430 158l-296 928z"/><path fill="#2ac2ff" d="M582 1086l92-596 224 260z"/><path fill="#ff6559" d="M450-26l384 568L870 2z"/><path d="M250 282l140 88-452 344zM114-62l408 96-420 192z"/><path fill="#c3f6ff" d="M-62 726l196 248 120-492z"/><path fill="#ff9587" d="M478 194l-504 52-36 268z"/><path fill="#1d0000" d="M674 410l-68 512-456 140z"/><path fill="#cad685" d="M626 774l272 240-324 72z"/><path fill="#e1edd7" d="M294 562l276 16-144 60z"/><path d="M258 362l-20 412 96-92z"/><path fill="#078ee7" d="M250 494l-8 332-100-144z"/><path fill="#ffcc8b" d="M550 546l52-84H474z"/><path fill="#006cc2" d="M898 902L766 494 666 914z"/><path fill="#fff" d="M-62 326l184 140 44-116z"/><path fill="#fa0000" d="M898 282L734-62 658 50z"/><path d="M454 386l444 232-248-300z"/><path fill="#d27b49" d="M462 434L378 70 274 190z"/><path fill="#360000" d="M-58 722l28-136 300-136z"/><path fill="#ff4941" d="M898 430l-76-152-316-20z"/><path fill="#b2aba3" d="M614-62L490 154l244 32z"/><path fill="#bdd5cf" d="M550 986l-112 100 8-172z"/><path fill="#3d1100" d="M502 550L358-42l156 88z"/><path fill="#000001" d="M66 174L190-62 502 46z"/><path fill="#9cc150" d="M110 1086L-62 942l208-44z"/><path fill="#ff3932" d="M194 350l72-92-328 24z"/><path fill="#afdee0" d="M790 478l108-52-196-32z"/><path fill="#407190" d="M86 226l44-288-180 184z"/><path fill="#f6eeff" d="M-62 770l216-220-4 324z"/><path fill="#4d0000" d="M458 854l180-164-76 328z"/><path fill="#3b605c" d="M898 254L618 150l-132 76z"/><path d="M258 570l356 136-372 32zm340-24l-228 20-172-100z"/><path fill="#393e36" d="M362 514L194 330l168-68z"/><path fill="#fffffa" d="M386 586l-72-4-12-44z"/><path fill="#aa1d22" d="M538 858l-260 52 276 24z"/><path fill="#cacbff" d="M722 822l-108 72 12-124z"/><path fill="#210b00" d="M782 550l32-104 84 296z"/><path fill="#000100" d="M726 362l-360-76 372 244z"/></g></svg>