<svg xmlns="http://www.w3.org/2000/svg" width="228" height="278" viewBox="0 0 836 1024"><path fill="#756531" d="M0 0h836v1024H0z"/><path fill="#f2d73f" fill-opacity=".714" d="M277.414 321.547l439.43 59.183L503.26 1086 46.284 705.514z"/><path fill="#29231f" fill-opacity=".957" d="M-62 896.727L-16.088-62h755.722L217.988 401.378z"/><path fill="#06091f" fill-opacity=".573" d="M630.055-28.97L783.71 1086l86.324-6.08L875.598-62z"/><path fill="#171a1e" fill-opacity=".78" d="M185.56 961.33L296.23 1086l-285.77-78.958L-62 446.706z"/><path fill="#edc430" fill-opacity=".8" d="M294.406 725.245l287.24-32.285-2.286 353.431-423.056-84.448z"/><path fill="#ac8f7b" fill-opacity=".737" d="M299.292 376.12L189.917 720.346 363.665 1086 53.482 720.012z"/><path fill="#907c59" fill-opacity=".996" d="M739.446 637.327l-361.02-45.214 14.848 80.044 344.747 53.05z"/><path fill="#000c27" fill-opacity=".647" d="M580.254 854.625l6.593 216.767 85.54-281.083-58.849-127.438z"/><path fill="#c7846c" fill-opacity=".725" d="M642.006 925.672l30.357 21.826 65.25-25.219-8.711-476.842z"/><path fill="#494a2f" fill-opacity=".788" d="M725.864 265.169l-183.717 130.46-84.513-13.026L370.58 255.58z"/><path fill="#ffea3c" fill-opacity=".741" d="M665.776 609.007L395.225 299.341l13.66-6.488-175.472 82.73z"/><path fill="#000b28" fill-opacity=".573" d="M738.333 945.168l-2.603-311.515L898 1000.378 462.622 1086z"/><path fill="#d3896b" fill-opacity=".467" d="M408.526 193.3L530.363 90.404l93.403 20.537 5.972 137.736z"/><path fill="#7c7303" fill-opacity=".451" d="M441.288 492.319L277.774 595.213 36.173 557.63 255.68 764.21z"/><path fill="#dff9ff" fill-opacity=".467" d="M245.896 591.165l-103.81-45.923 83.292-81.256 58.007 29.756z"/><path fill="#d79573" fill-opacity=".988" d="M234.146 1067.48l24.3-51.957 129.43 61.155-158.49-271.013z"/><path fill="#171a18" fill-opacity=".753" d="M451.152 239.458L62.038 162.054l181.276 187.14 123.98-34.136z"/><path fill="#29241d" fill-opacity=".996" d="M643.974 115.599L462.639 56.542 882.643-50.541l-103.91 416.392z"/><path fill="#262a0c" fill-opacity=".894" d="M424.857 1085.316l353.7.684-316.622-70.573-123.545-13.418z"/><path fill="#f4e135" fill-opacity=".557" d="M718.054 434.901l-503.356 10.002 427.821 197.396-50.426-331.86z"/><path fill="#eee453" fill-opacity=".941" d="M138.586 606.045l176.167-284.327L98.654 602.373l33.412 19.329z"/><path fill="#927d4d" fill-opacity=".278" d="M898 809.672L611.743 471.1 898 274.907l-37.582 476.732z"/><path fill="#f5dc34" fill-opacity=".788" d="M233.029 686.013l-39.968-38.078 42.085-60.487 187.983-258.03z"/><path fill="#016c34" fill-opacity=".659" d="M223.718 602.113l-53.246 65.111 57.794 25.313-90.945-125.19z"/><path fill="#0b944b" fill-opacity=".624" d="M312.31 423.125l-71.927-7.298 4.204 1.155 62.577 48.703z"/><path fill="#6c4e3d" fill-opacity=".561" d="M96.584 21.328l75.82 19.645-14.311 75.761L-62 207.443z"/><path fill="#007947" fill-opacity=".796" d="M385.348 294.005l25.927-19.902 95.363 92.835-16.33 23.56z"/><path fill="#cd8f71" fill-opacity=".992" d="M646.912 869.429l62.86-94.645 38.116 155.265-110.29-41.673z"/><path fill="#0d9368" fill-opacity=".498" d="M424.364 507.337l33.884-36.51 21.68 65.86 2.103-22.741z"/><path fill="#f0ea5b" fill-opacity=".961" d="M190.06 451.95l67.06-85.356 138.103-68.577-210.447 191.798z"/><path fill="#000710" fill-opacity=".518" d="M114.707 981.432l71.636-71.19-62.468-72.705L-62 802.402z"/><path fill="#454031" fill-opacity=".553" d="M609.361 193.954l202.61 560.284-125.78-596.621-224.043 11.762z"/><path fill="#b87357" fill-opacity=".42" d="M460.659 312.414l207.757-98.422-238.832-70.073-15.096 2.501z"/><path fill="#c9926d" fill-opacity=".984" d="M91.657 615.168l74.514 50.412 103.538 235.677L55.525 700.765z"/><path fill="#f8dd39" fill-opacity=".631" d="M615.472 340.854l52.086 41.45 39.204 84.405-26.304 74.836z"/><path fill="#895b40" fill-opacity=".722" d="M177.553 903.334L61.17 744.244l-3.566-55.587 208.089 286.069z"/><path fill="#004078" fill-opacity=".251" d="M205.726 490.74l118.844-60.27-1.429-.992-61.36 100.735z"/><path fill="#096263" fill-opacity=".341" d="M597.56 444.523l51.478-4.991 2.947 155.571 13.312-21.699z"/><path fill="#c26f00" fill-opacity=".282" d="M198.562 734.34l57.768 148.846 168.223-307.401-86.836-50.08z"/><path fill="#adcae0" fill-opacity=".467" d="M485.786 650.397l-115.82 11.032 263.357.135-65.215-23.943z"/><path fill="#070c0d" fill-opacity=".463" d="M141.853 114.626L-62 359.312l245.272 157.73-92.123-164.59z"/><path fill="#f6d931" fill-opacity=".624" d="M586.821 391.568l-146.26 231.249 75.735-6.032 130.112-50.454z"/><path fill="#9f663b" fill-opacity=".922" d="M653.21 747.611l-8.193-159.5 65.33 30.772-18.83 157.824z"/><path fill="#010806" fill-opacity=".239" d="M437.953 592.331l34.514 100.446-128.979-141.54-60.033 64.934z"/><path fill="#424130" fill-opacity=".871" d="M243.38 699.962L76.631 604.815l108.691-115.47-197.196 30.097z"/><path fill="#f2d32b" fill-opacity=".663" d="M279.012 864.778l52.885 128.486 260.903 45.477L558.215 896.6z"/><path fill="#40322c" fill-opacity=".988" d="M754.688 1004.301l-141.263-51.447-42.08-13.764 47.45 146.91z"/><path fill="#594335" fill-opacity=".953" d="M-54.874 998.424L84.732 1086l-17.31-127.742-98.209-33.73z"/><path fill="#331e10" fill-opacity=".306" d="M448.13-19.706l80.406 344.18 206.886-25.495-241.29 90.396z"/><path fill="#141916" fill-opacity=".678" d="M429.779 297.109L284.142-62l127.426 97.455 25.894 248.029z"/><path fill="#e2a479" fill-opacity=".365" d="M513.13 80.36l95.621 20.96 51.433 51.111-135.896-9.914z"/><path fill="#112032" fill-opacity=".765" d="M590.419 754.743l49.72 100.963 30.634-15.586.153-57.336z"/><path fill="#3a2f23" fill-opacity=".929" d="M760.06 21.829l9 94.965-127.372 125.359 23.015-201.21z"/><path fill="#f8d22c" fill-opacity=".749" d="M309.665 475.608l-37.857 35 273.468-41.77-16.361-91.972z"/><path fill="#e4c522" fill-opacity=".541" d="M589.887 775.387l-272.991-146.97-1.646 222.397 261.26 128.64z"/><path fill="#d1e2e7" fill-opacity=".804" d="M259.626 541.492l-51.357-45.846-28.645 56.84 46.787 29.193z"/><path fill="#7a4636" fill-opacity=".592" d="M731.167 973.737l-23.722 54.201-48.102 46.648 17.434-209.59z"/><path fill="#164723" fill-opacity=".961" d="M242.515 1086l-58.405-6.36-21.302-114.878 66.732 17.964z"/><path fill="#463c2b" fill-opacity=".745" d="M817.951 291.503l-158.126 328.6-1.973-73.884 113.8-28.685z"/><path fill="#0c7733" fill-opacity=".506" d="M163.13 413.029l15.945 143.743-42.084 56.837 50.73 7.813z"/><path fill="#01121f" fill-opacity=".459" d="M751.551 712.562l-23.215 45.942L762.512 1086 898 784.38z"/><path fill="#8ec7ff" fill-opacity=".333" d="M412.04 287.182l-126.134 76.114 6.85-31.501 69.761-12.439z"/><path fill="#e5ac8b" fill-opacity=".333" d="M649.339 194.857l-34.715 3.966-29.225-78.336 30.048 174.954z"/><path fill="#fff546" fill-opacity=".612" d="M249.843 382.819l72.503 63.075 96.414-7.423-34.175-129.417z"/><path fill="#cfab29" fill-opacity=".996" d="M630.115 717.266l-77.965-30.99-98.684 76.135-287.362 25.658z"/><path fill="#8e584a" fill-opacity=".565" d="M869.869 734.713L898 561.403 795.591 621.84l-13.404 30.219z"/><path fill="#b58362" fill-opacity=".729" d="M740.44 709.16L729.8 551.276l-30.505-48.682 6.817 357.815z"/><path fill="#59602a" fill-opacity=".78" d="M898 453.498L602.682 317.726l116.627 112.753L898 290.919z"/><path fill="#694124" fill-opacity=".655" d="M544.14 314.432l48.95-77.615 21.928-3.402-71.127 211.224z"/><path fill="#09834b" fill-opacity=".631" d="M278.848 491.579l-50.383-28.871 14.006-2.533 41.798 18.41z"/><path fill="#ffa98f" fill-opacity=".086" d="M202.174 339.2L88.067 394.557l-19.397-77.5 135.078-51.94z"/><path fill="#f7e748" fill-opacity=".796" d="M238.526 398.141l-89.254 197.866L88.58 611.77l45.289-31.777z"/><path fill="#3b372e" fill-opacity=".667" d="M740.447 639.066l78.815-53.61-47.235-225.084-67.85 72.774z"/><path fill="#050e14" fill-opacity=".31" d="M562.47 145.334l302.74 181.544-134.567-175.59-215.136 38.795z"/><path fill="#a06a02" fill-opacity=".561" d="M503.649 694.017L300.095 706.33l109.394 4.598 50.158-4.47z"/><path fill="#45342b" fill-opacity=".976" d="M92.894 802.178l-38.302-125.24 18.106-17.32-50.683 129.646z"/><path fill="#038646" fill-opacity=".424" d="M186.533 616.145l-44.022-27.077 59.525 59.437 38.213-76.214z"/><path fill="#e37a59" fill-opacity=".243" d="M448.229 315.13l-13.351-170.8 79.201 240.698-74.827-96.342z"/><path fill="#eac516" fill-opacity=".416" d="M292.378 510.12L514.91 640.207l20.757-39.91-164.495-100.532z"/><path fill="#008d6e" fill-opacity=".259" d="M435.363 485.727l27.433-3.83 20.214 62.286-51.845-11.727z"/><path fill="#2380f8" fill-opacity=".125" d="M589.431 608.628l35.887 58.818-125.487 32.239-85.816-61.976z"/><path fill="#1d1f26" fill-opacity=".659" d="M644.735 914.602L590.008 1086l-6.581-158.952 40.796-265.84z"/><path fill="#1c3539" fill-opacity=".333" d="M437.679 590.202l-6.942 81.187-27.068-82.697-14.058 89.89z"/><path fill="#4a423c" fill-opacity=".569" d="M487.992 21.69l-69.178 84.214L439.357-62 635.67 49.481z"/><path fill="#22201d" fill-opacity=".965" d="M336.349 275.385l-99.116 110.74-95.711 111.492-103.2-53.124z"/><path fill="#1b190d" fill-opacity=".518" d="M420.246 109.348l54.222-53.974 67.96-15.011-62.85 137.239z"/><path fill="#ffe943" fill-opacity=".537" d="M651.295 428.956L398.041 529.415l197.44-38.206-3.967-145.132z"/><path fill="#ded8d8" fill-opacity=".737" d="M246.627 474.801l45.575 49.318-7.39-22.913-63.102-23.286z"/><path fill="#fae52c" fill-opacity=".373" d="M151.669 631.22l70.603 42.665 136.546 24.59-239.56-90.292z"/><path fill="#e7a48a" fill-opacity=".698" d="M286.026 930.398l67.798 78.953-116.983 5.009-8.794-34.276z"/><path fill="#ec936e" fill-opacity=".227" d="M506.235 295.46L652.401 86.738 563.216 272.07l55.518 33.946z"/><path fill="#cdaf2e" fill-opacity=".753" d="M154.48 947.215l46.994-32.254-27.876-18.732 25.497 81.283z"/><path fill="#5a8a4e" fill-opacity=".557" d="M611.534 469.004l-6.143-28.386 36.3 96.853 28.122-47.74z"/><path fill="#fce73b" fill-opacity=".506" d="M424.444 740.499l98.398-33.827 66.122 93.413 16.36-28.02z"/><path fill="#2f270c" fill-opacity=".757" d="M540.88 364.05l-36.238-58.446 108.377 50.111-81.048 3.136z"/><path fill="#834c00" fill-opacity=".298" d="M393.478 526.344l-80.483 36.462-66.33 129.925 7.03 41.936z"/><path fill-opacity=".286" d="M305.794 1017.843l-62.283 4.964L-62 1086l561.93-64.499z"/><path fill="#0c8053" fill-opacity=".82" d="M437.005 323.098l-21.571-81.847-18.233 46.936-9.248 3.028z"/><path fill="#0d441c" fill-opacity=".361" d="M178.057 678.092l-54.978-64.175 82.05 53.696-29.238 25.12z"/><path fill="#5d4030" fill-opacity=".404" d="M234.373 128.214l47.862-79.544L346.2 95.748l-32.746 55.822z"/><path fill="#fff260" fill-opacity=".404" d="M623.519 717.823l-155.86 4.787 123.509-29.822-159.595-11.86z"/><path fill="#04091e" fill-opacity=".275" d="M517.28 686.55l43.49-9.93-99.91 6.991-120.112-36.74z"/><path fill="#fedf34" fill-opacity=".635" d="M324.737 778.131l255.968 104.952-256.289-45.033 142.187-79.466z"/><path fill="#a06a2b" fill-opacity=".357" d="M798.694 405.008l10.166 65.076L898 613.991V256.445z"/><path fill="#a2a5a2" d="M546.01 683.206l-9.921-65.729 42.045 68.408-10.42-74.541z"/><path fill="#fee138" fill-opacity=".404" d="M307.802 644.564l184.96 49.894-137.61 2.959 53.591-77.738z"/><path fill="#897700" fill-opacity=".325" d="M436.87 370.479l-38.315-72.61 90.226 98.484 7.908 35.188z"/><path fill="#afbb9a" fill-opacity=".627" d="M476.172 665.49l-58.007-5.43 10.294-78.962-19.831 72.955z"/><path fill="#008a48" fill-opacity=".549" d="M254.926 427.991l50.383 21.201-12.241-38.59-32.703 10.365z"/><path fill="#6b4a00" fill-opacity=".227" d="M514.455 790.375l127.674 21.183-304.16-18.91 114.428-4.731z"/><path fill="#524d00" fill-opacity=".278" d="M441.169 688.683l37.5-89.76-150.441-12.285 123.56 26.418z"/><path fill="#030c02" fill-opacity=".6" d="M692.83 1076.762l-227.49-61.314-72.856-5.16-41.408 3.695z"/><path fill="#101310" fill-opacity=".737" d="M770.065-62L477.175 6.413 898-15.261l-99.14 152.75z"/><path fill="#b59118" fill-opacity=".475" d="M542.218 501.726l-18.733 7.107 107.281-18.931-295.65 91.142z"/><path fill="#151714" fill-opacity=".718" d="M397.762 193.171L-40.795 322.683 43.125-62-62 199.036z"/><path fill="#e4d13a" fill-opacity=".788" d="M597.117 638.676l28.05-21.91 44.81-89.46-105.58 55.038z"/><path fill="#a67005" fill-opacity=".506" d="M387.73 762.335L203.49 797.11l174.394-45.517 127.564 3.63z"/><path fill="#fefe5e" fill-opacity=".455" d="M597.921 1078.725l-16.148-86.877-123.889-54.706 85.998 55.326z"/><path fill="#b85d8a" fill-opacity=".4" d="M208.934 467.131l67.268 40.444 19.707 4.445-32.352 26.915z"/><path fill="#190204" fill-opacity=".698" d="M577.758 279.831l-29.799-8.023 52.283-.974 5.609 15.672z"/></svg>