<svg xmlns="http://www.w3.org/2000/svg" width="228" height="278" viewBox="0 0 836 1024"><path fill="#586589" d="M0 0h836v1024H0z"/><path fill="#522c03" fill-opacity=".624" d="M640.32-62L387.121 56.619l6.989 246.762 132.587 49.696z"/><path fill="#12328f" fill-opacity=".859" d="M512.86 994.273L67.538 429.649l346.228-195.844-25.654 357.882z"/><path fill="#c5d9fd" fill-opacity=".478" d="M534.724 726.28l-93.97-346.152 223.803 555.224L438.955 1086z"/><path fill="#dffaec" fill-opacity=".612" d="M120.186 937.48l384.616 89.557L107.149 1086 96.004 927.174z"/><path fill="#fabd6a" fill-opacity=".392" d="M216.332 736.214l45.16-248.285L-62 711.792l86.622 197.996z"/><path fill="#e0eedc" fill-opacity=".659" d="M155.965 232.246L80.3 320.553-62 157.134l180.592 11.693z"/><path fill="#131508" fill-opacity=".541" d="M183.49 162.51l-122.025.568L-28.128 7.36l342.633-56.04z"/><path fill="#316adc" fill-opacity=".588" d="M871.326 389.87L898 738.865 306.292 406.91l492.652-199.968z"/><path fill="#c5e8fe" fill-opacity=".592" d="M234.974 202.94l107.068 16.484 47.199-112.065-128.618-47.553z"/><path fill="#dcf2fa" fill-opacity=".631" d="M420.595 518.027l-38.445 93.959 154.363 34.725 19.974-90.484z"/><path fill="#000004" fill-opacity=".424" d="M514.39 672.427L51.888 701.048l598.73 54.764 18.108-311.893z"/><path fill="#e6f6fe" fill-opacity=".349" d="M572.85 41.682l217.17-24.978 43.677 205.389-212.7-105.676z"/><path fill="#0534b8" fill-opacity=".58" d="M477.312 995.08l-332.878-40.594L148.547 819l388.758 65.924z"/><path fill="#ffa628" fill-opacity=".263" d="M800.657 940.55L898 1029.393l-368.791 48.832 162.076-516.239z"/><path fill="#776051" fill-opacity=".827" d="M268.814 871.267L-62 488.402l432.84 325.87-28.188 95.874z"/><path fill="#5a4816" fill-opacity=".537" d="M-62 319.352l308.003-43.676-187.39 216.835 219.966 159.893z"/><path fill="#c0c8d2" fill-opacity=".847" d="M576.917 292.92l-86.614 92.04-76.961-65.429 141.902 67.22z"/><path fill="#432400" fill-opacity=".502" d="M81.17 1073.917l-106.14-44.12L-62 912.173l185.153-63.491z"/><path fill="#fff9ec" fill-opacity=".294" d="M-51.02 686.812l203.798 73.166-11.604 198.444-133.039-97.72z"/><path fill="#acc7ff" fill-opacity=".278" d="M668.57 632.916l48.023 232.834 146.52-146.96-91.215-345.844z"/><path fill="#01428d" fill-opacity=".647" d="M898 457.876L647.914 229.16l92.96-143.807-211.843 169.789z"/><path fill="#361e09" fill-opacity=".514" d="M677.82 967.343l-75.408-204.296-47.375-242.35 104.378 76.265z"/><path fill="#1e61f6" fill-opacity=".42" d="M370.8 1014.24l210.164-22.233-73.148-81.627 78.13-367.532z"/><path fill="#000f62" fill-opacity=".369" d="M489.964 823.414L276.408 761.43l-107.15-121.86 103.997-308.064z"/><path fill="#e4f8ff" fill-opacity=".51" d="M574.48 530.013l26.609-1.801 21.513-78.112-55.136-39.789z"/><path fill="#2652d1" fill-opacity=".545" d="M299.628 363.696L165 360.656 385.123 230.88l178.589 376.763z"/><path fill="#0b329e" fill-opacity=".773" d="M335.539 436.773l49.284 72.404 229.27 47.39-83.68-76.939z"/><path fill="#f2ffe9" fill-opacity=".22" d="M624.454 891.095L502.617 1086l17.177-325.895 47.743-142.51z"/><path fill="#42321b" fill-opacity=".698" d="M613.391 99.842L350.719 335.278l58.992-42.747 103.68 79.857z"/><path fill="#675f65" fill-opacity=".843" d="M714.202 263.619l-68.586-77.107 46.135-102.108 46.419 34.026z"/><path fill="#796643" fill-opacity=".506" d="M-25.231 146.335l124.985 333.46 98.365 190.343L-62 654.086z"/><path fill="#675e54" fill-opacity=".678" d="M257.58-62L131.596 365.642 267.467 78.793l324.913 76.755z"/><path fill="#003e8d" fill-opacity=".502" d="M898 220.31l-29.808-75.872-183.74 214.234-125.66 266.884z"/><path fill="#9a6247" fill-opacity=".42" d="M684.66 409.957l62.967-43.153L898 450.503 746.712 468.56z"/><path fill="#f4fafd" fill-opacity=".851" d="M541.598 1086l4.708-71.697-43.283-16.026-110.526 25.997z"/><path fill="#000c4d" fill-opacity=".337" d="M414.814 1005.428L97.112 819.248l-105.04 222.799 202.21-261.76z"/><path fill="#000715" fill-opacity=".612" d="M175.89 274.269l-49.383 57.15 13.258 56.963 70.215-54.144z"/><path fill="#ca4135" fill-opacity=".392" d="M768.362 40.596L865.41 2.78 566.735-62l1.1 111.943z"/><path fill="#6397ff" fill-opacity=".424" d="M97.774 425.78L87.648 536.693l141.606-270.54 135.07-3.604z"/><path fill="#b09382" fill-opacity=".655" d="M144.942 670.817l3.778-28.074 155.635 146.803-66.816 34.302z"/><path fill="#b0d9fd" fill-opacity=".498" d="M821.347 120.155l-35.56 111.431L710.322 51.18l48.617 3.06z"/><path fill="#001966" fill-opacity=".584" d="M216.38 622.766l39.933 134.114 297.915-83.08-61.343 125.146z"/><path fill="#effcf4" fill-opacity=".478" d="M422.204 442.972l-57.014 5.28 25.06-33.9 21.948-14.476z"/><path fill="#d9fbfa" fill-opacity=".439" d="M244.516 620.917l15.2-134.067-13.248 38.39-11.273 34.772z"/><path fill="#000012" fill-opacity=".341" d="M340.52 391.688l-222.426 147.65-33.332 55.256 275.419-163.206z"/><path fill="#9b825a" fill-opacity=".278" d="M-62 353.658l136.912 8.187 522.229-221.498-417.652 58.936z"/><path fill="#3a71fb" fill-opacity=".31" d="M329.31 587.508l212.454 65.984-15.654 32.532L244.34 665.8z"/><path fill="#b5dcff" fill-opacity=".482" d="M365.079 203.13l-2.094-125.992-62.48 6.401-51.77 87.027z"/><path fill="#f3ffff" fill-opacity=".4" d="M469.981 369.372l118.946 2.219-23.657-94.08-43.26 120.028z"/><path fill="#254fc7" fill-opacity=".776" d="M432.635 419.84l191.435-73.873 72.643 27.56-282.13 117.668z"/><path fill="#ddf0ff" fill-opacity=".678" d="M126.238 985.258L90.541 1086l37.909-203.516 22.914-110.992z"/><path fill="#1d0c02" fill-opacity=".259" d="M513.553 1081.232l181.62-118.406L696.914 1086 567.38 958.426z"/><path fill="#b6deff" fill-opacity=".329" d="M657.993 176.202l-62.827-53.264 43.817-98.937 38.561 30.31z"/><path fill="#001618" fill-opacity=".4" d="M589.73 55.577l22.505 164.774-27.04-64.616L442.54 30.628z"/><path fill="#eefeff" fill-opacity=".439" d="M88.467 275.425l-131.482-93.729 4.237-3.975 153.548 13.806z"/><path fill="#a3887e" d="M318.121 776.836l-77.318-19.154 142.556 67.21-14.386-26.982z"/><path fill="#0f45cd" fill-opacity=".49" d="M410.178 771.313l58.481-18.824 54.019 124.036 27.927 97.98z"/><path fill="#0a3757" fill-opacity=".259" d="M760.214 962.82l39.356-319.287-96.85 84.435L898 825.319z"/><path fill="#0243c3" fill-opacity=".369" d="M114.976 1086l48.49-309.157 17.04-27.537 58.734 80.524z"/><path fill="#3e78ff" fill-opacity=".396" d="M697.905 470.584l-24.108 26.635 113.284 260.303 51.31-262.008z"/><path fill="#070c1c" fill-opacity=".561" d="M225.09 27.681L-19.168 60.897-62 44.02 175-62z"/><path fill="#fef4e3" fill-opacity=".216" d="M673.97 688.45l40.13-123.07L898 813.167V565.793z"/><path fill="#77563f" fill-opacity=".765" d="M52.357 873.952l73.017-46.513 5.093 47.646-56.148 116.643z"/><path fill="#cfc6c3" fill-opacity=".725" d="M37.96 855.036l128.02-112.865-5.96 71.475L-62 705.317z"/><path fill="#8eaba2" fill-opacity=".22" d="M30.96 177.784l127.488 16.184-140.31 401.224 139.42-615.159z"/><path fill="#4f3d18" fill-opacity=".51" d="M217.191 796.803L41.926 616.748l58.32-71.568-16.312 66.067z"/><path fill="#182d41" fill-opacity=".51" d="M848.966 467.086l-31.03-453.517L898 280.146l-93.555 149.99z"/><path fill="#82837b" fill-opacity=".718" d="M121.358 576.777L-62 528.753v-33.905l156.862-24.41z"/><path fill="#0048ff" fill-opacity=".165" d="M721.819 648.954l-9.122-337.991-121.53-141.832-32.132 216.52z"/><path fill="#7a947e" fill-opacity=".671" d="M396.192 997.628l-61.185 52.077-47.073-82.775-155.459-22.649z"/><path fill="#402e2a" fill-opacity=".671" d="M293.882 891.785l-7.737-11.363 76.33-50.132 29.017 40.726z"/><path fill="#00286f" fill-opacity=".69" d="M713.238 407.972l-173.755 217.47 28.85-87.668 59.482 54.252z"/><path fill="#908a88" fill-opacity=".333" d="M490.518 179.232L243.654 45.324l288.67 41.21-233.581 109.188z"/><path fill="#3a65ea" fill-opacity=".475" d="M399.879 1001.769l184.215-4.358-275.89-83.547 225.274-73.166z"/><path fill="#1952ef" fill-opacity=".416" d="M140.534 511.883l70.488-57.262-33.322-58.72-93.522 61.396z"/><path fill="#000a2d" fill-opacity=".588" d="M308.547 672.444l223.156 18.3-21.121 18.414-298.86 8.675z"/><path fill="#caddde" fill-opacity=".596" d="M421.968 617.743l-9.494-108.839-32.788 97.435 173.438-61.458z"/><path fill="#042070" fill-opacity=".671" d="M421.053 513.764L180.99 373.883 372.41 635.02l29.568-99.128z"/><path fill="#373834" fill-opacity=".592" d="M263.022 256.843l13.684-18.51 200.507-13.622-202.006 45.143z"/><path fill="#0a0900" fill-opacity=".188" d="M455.83 336.139L357.569-62l-47.12 102.224 229.891 319.2z"/><path fill="#d3ba8b" fill-opacity=".322" d="M682.019 921.082l77.644-19.53 7.73-121.248-84.622-1.818z"/><path fill="#3857ad" fill-opacity=".565" d="M423.767 596.05L207.923 716.143 443.04 556.258l-18.266-28.44z"/><path fill="#e9fbf6" fill-opacity=".549" d="M211.724 988.348l-28.295-32.42L120.94 1086l135.724-113.645z"/><path fill="#2d312e" fill-opacity=".38" d="M108.881 86.686l104.616 231.73L70.45 480.92 234.055 99.722z"/><path fill="#86968e" fill-opacity=".475" d="M157.255 556.536l21.114 77.757 55.674-84.166-14.414-39.715z"/><path fill="#1f2d3c" fill-opacity=".765" d="M-62 801.471L48.88 931.293 82.11 1086-62 1000.408z"/><path fill="#f5fcfc" fill-opacity=".631" d="M549.46 580.182l-58.6 44.612-25.282 11.268-18.68-12.31z"/><path fill="#ddfdff" fill-opacity=".165" d="M521.015 305.883l10.246-33.242 105.799 37.762 112.517 88.524z"/><path fill="#202122" fill-opacity=".592" d="M719.718 138.318l-6.321-33.524-36.043 24.777 25.037 39.172z"/><path fill="#e5a07b" fill-opacity=".408" d="M46.116 726.773L39.647 609.11l25.843 25.613 50.533 72.58z"/><path fill="#f4ffee" fill-opacity=".498" d="M429.624 613.994l-48.992-47.531 20.892 54.911 19.468-3.87z"/><path fill="#dfbe9c" fill-opacity=".255" d="M512.172 752.394l71.654-130.516-57.247 266.008 176.049 89.083z"/><path fill="#5089ff" fill-opacity=".576" d="M306.754 310.879l-109.639 22.797 78.123-61.387 80.96-23.75z"/><path fill="#93908e" fill-opacity=".561" d="M206.977 291.924L248.712 55.58l20.634 217.075-39.402 36.153z"/><path fill="#032471" fill-opacity=".416" d="M583.673 391.973l103.125 53.434 75.488 32.007-93.464-92.063z"/><path fill="#7d8d92" fill-opacity=".588" d="M898 977.95l-73.787 79.14-116.329-35.783 28.082-122.299z"/><path fill="#5f4d3b" fill-opacity=".784" d="M511.393 363.527l27.228-11.475 5.365-165.478 60.638-81.494z"/><path fill="#0c338f" fill-opacity=".671" d="M493.51 702.191l42.367 101.36-38.598-15.271-118.256 82.203z"/><path fill="#05247f" fill-opacity=".549" d="M385.383 307.93l26.456-37.96 30.117 93.207 126.601 81.637z"/><path fill="#f9fffa" fill-opacity=".506" d="M546.088 351.532l-53.028 36.024 71.794-14.2-7.789-110.037z"/><path fill="#f0ffe8" fill-opacity=".439" d="M535.113 543.709L469.32 578.57l-58.074 32.707 158.516-61.47z"/><path fill="#956e4e" fill-opacity=".408" d="M276.607 73.57L410.841-62 582.569 41.232 238.06-15.375z"/><path fill="#fff9d0" fill-opacity=".157" d="M346.245 233.252l212.962 211.79L399.22 270.817l60.209-22.357z"/><path fill="#ffffb9" fill-opacity=".11" d="M672.592 290.525l152.291 22.654-83.392-57.166-40.104-121.817z"/><path fill="#80441f" fill-opacity=".337" d="M611.907 1086h110.127l-61.168-347.602-2.94 206.575z"/><path fill="#200e00" fill-opacity=".392" d="M157.156 572.477L92.14 550.36l28.15-49.972 45.073 36.533z"/><path fill="#0b3db0" fill-opacity=".271" d="M544.18 650.969L367.913 409.265l209.682 269.2-220.448-63.182z"/><path fill="#03175a" fill-opacity=".847" d="M344.48 399.049L243.645 611.022l99.278-79.86-138.611-62.986z"/><path fill="#553e2b" fill-opacity=".694" d="M581.54 711.34l-7.593-52.618 83.075 4.756 11.665 275.943z"/><path fill="#654700" fill-opacity=".247" d="M763.115 824.518l92.516-28.926-9.468 118.176-45.64 4.57z"/><path fill="#554d39" fill-opacity=".667" d="M106.418 432.508l1.31 15.623-70.898 3.832L.707 268.977z"/><path fill="#fbffff" fill-opacity=".49" d="M103.994 920.739l33.717 29.573-25.244 75.943-12.013-31.058z"/><path fill="#eff" fill-opacity=".22" d="M619.526 405.052l-7.313 67.294-56.583 29.43 14.46-86.347z"/><path fill="#00237e" fill-opacity=".565" d="M311.906 950.872l98.068 6.752-140.936-86.341-75.414 27.698z"/><path fill="#061210" fill-opacity=".29" d="M580.795 74.706l20.47 162.442L501.94 43.042 339.55 71.093z"/><path fill="#90a0b7" fill-opacity=".502" d="M478.597 681.482l-62.766-10.307 49.108-32.137 50.485 37.544z"/><path fill="#8da8b6" fill-opacity=".729" d="M-62-10.672L6.653 92.513l21.938 68.515L-62 224.718z"/><path fill="#1c3a92" fill-opacity=".925" d="M445.963 608.048l-83.809 53.724 58.618 3.35-26.607 51.271z"/><path fill="#a09c6f" fill-opacity=".306" d="M122.57 387.29l4.181-19.626L-1.622 187.26 62.2 394.698z"/><path fill="#030916" fill-opacity=".49" d="M168.165 373.503l-54.6-56.465 104.336-12.47-28.192 44.564z"/></svg>