<svg xmlns="http://www.w3.org/2000/svg" width="228" height="278" viewBox="0 0 836 1024"><path fill="#5a5857" d="M0 0h836v1024H0z"/><g fill-opacity=".502"><path fill="#edeee8" d="M-18 978l560 64-232-876z"/><path d="M882 410L-62 102 822-62z"/><path d="M-62-6l548-56-540 676zm820 1092L646 394 450 818z"/><path fill="#cccfd0" d="M826 570L46 446l604-144z"/><path fill="#fff" d="M806 710l-72-248v496z"/><path fill="#cecfc5" d="M102 998l112-720L30 550z"/><path d="M898 734L854-62l-344 4zM694 442L474 558l96 528z"/><path fill="#fefaf9" d="M442 698l-168 388h276z"/><path fill="#210900" d="M306 834l-164 248 236-168z"/><path fill="#44493d" d="M442 550L278 394l-84 152z"/><path fill="#141407" d="M94 682l136 100-120-212z"/><path d="M6-62l236 268-304 480z"/><path fill="#220d00" d="M470 374L134 126l512 12z"/><path fill="#040000" d="M506 894l152 192 100-588z"/><path fill="#b1b5b1" d="M618 254L386 942 222 526z"/><path d="M62 682L-62 494l36 584zm824 352l-116 20 76-400z"/><path fill="#fcfbff" d="M706 926l56 16 12-216z"/><path fill="#fffdff" d="M510 298l140 28 116 140z"/><path fill="#282c24" d="M366 574l208-20-272-68z"/><path fill="#756767" d="M358 158L198 386l240-196z"/><path fill="#fff" d="M306 234L162 362l60-92z"/><path fill="#010000" d="M530 230L802 66l96 476z"/><path fill="#fffffb" d="M78 674l-64-68 64-136z"/><path fill="#cfd1d2" d="M290 850L138 718l-156 368z"/><path fill="#e2e3ec" d="M342 270l152 216-220-156z"/><path d="M718 906L610 458l132 228z"/><path fill="#bab9c3" d="M802 530l-44 276-80-484z"/><path fill="#424a32" d="M430 682l32 56-160-8z"/><path fill="#3a0d01" d="M226 854l120 4 44 96z"/><path fill="#080509" d="M478 682l72 404 60-628z"/><path d="M506 210L358 314l148 48z"/><path fill="#f5f3f0" d="M486 1062L306 790l156-16z"/><path fill="#f7f9fe" d="M174 678l228 4-160 56z"/><path fill="#1d1e17" d="M382 386l16 68-72-24z"/><path fill="#5f7060" d="M282 1086L126 982l144-88z"/><path fill="#fff" d="M226 490l-80-116-36 52z"/><path d="M174 282l188-76-352-72z"/></g></svg>