<svg xmlns="http://www.w3.org/2000/svg" width="228" height="278" viewBox="0 0 836 1024"><path fill="#8e939e" d="M0 0h836v1024H0z"/><path fill="#d3d4dc" fill-opacity=".788" d="M193.16 422.877L315.895 1086h385.963L568.24 318.698z"/><path fill="#59390b" fill-opacity=".467" d="M898 14.328L344.6 426.307 269.648 88.045 320.425 1.56z"/><path fill="#036ca0" fill-opacity=".816" d="M665.122 337.103L445.268 228.528 898 143.595v596.298z"/><path fill="#13003f" fill-opacity=".345" d="M197.13 558.465L123.296 721.68l-38.055 362.197 413.334-461.735z"/><path fill="#1d2d47" fill-opacity=".996" d="M56.45 584.814l-77.504 277.695L-62 232.243l110.48 71.12z"/><path fill="#ffeae2" fill-opacity=".525" d="M320.486 221.446l-177.49 456.017-124.698 48.36L183.472 130.63z"/><path fill="#00353d" fill-opacity=".643" d="M272.669 135.504L63.782-62-62 63.34l91.52 9.84z"/><path fill="#582501" fill-opacity=".49" d="M711.212 633.223l138.587 437.756-137.292-650.03L596.586 583.64z"/><path fill="#0a239f" fill-opacity=".702" d="M680.086 1052.648L898 1049.565 752.257 899.388l-68.621 5.929z"/><path fill="#e7edff" fill-opacity=".612" d="M670.563 477.331l-218.759 98.353L99.942 462.217l595.06-113.673z"/><path fill="#cbd2de" fill-opacity=".988" d="M307.253 783.518l-30.288-66.153L227.728 1086l80.603-96.72z"/><path fill="#293e98" fill-opacity=".969" d="M204.418 1086l58.968-266.742-78.149-187.815-78.956 128.762z"/><path fill="#31419d" fill-opacity=".898" d="M621.052 682.645l33.115 132.174 98.18 4.888-12.461-92.926z"/><path fill="#d46714" fill-opacity=".718" d="M386.09 598.533l-96.84 71.617 124.84 28.096 95.22-57.644z"/><path fill="#f69950" fill-opacity=".58" d="M64.498 683.33l88.432 306.013L91.996 1086 3.598 757.535z"/><path fill="#e5823d" fill-opacity=".373" d="M505.316 325.924L480.451 64.828 319.614 115.3 172.381 418.856z"/><path fill="#160f00" fill-opacity=".737" d="M480.417 68.327L363.179-34.795 387.417-62 278.441 77.337z"/><path fill="#c1c9c1" fill-opacity=".878" d="M274.375 330.655l26.51-145.837L37.24 89.526-57.638 188.4z"/><path fill="#e8f2ff" fill-opacity=".588" d="M805.196 820.557l-149.384 25.856-102.96-406.03-52.298 608.192z"/><path fill="#fc8a2f" fill-opacity=".404" d="M703.812 609.324l60.529-126.042 78.387 438.508-43.281 75.721z"/><path fill="#3c6365" fill-opacity=".749" d="M139.102 352.682l17.12-63.882-205.663-47.371 74.187 94.54z"/><path fill="#2a439d" fill-opacity=".91" d="M53.675 940.592L-62 620.535l96.197-23.303-55.004 385.264z"/><path fill="#012e5e" fill-opacity=".608" d="M609.308 613.224l75.449 11.178 31.369-167.545-31.988-19.815z"/><path fill="#edeff5" fill-opacity=".753" d="M106.658 473.202l68.879 137.184-36.14 86.006-107.908-7.337z"/><path fill="#0d6290" fill-opacity=".627" d="M597.148 310.372l126.8-143.33-223.807-8.863-29.368 114.494z"/><path fill="#e1e6f3" fill-opacity=".945" d="M338.708 510.454l-53.036-152.93-105.526 72.53L243.7 536.891z"/><path fill="#d3e2ee" fill-opacity=".369" d="M743.302 667.58L292.745 786.47l15.412-82.578 289.451-91.94z"/><path fill="#95a9b6" fill-opacity=".561" d="M423.169 983.384l74.14-278.937-200.366 12.428-2.796 262.898z"/><path fill="#d9e7ff" fill-opacity=".231" d="M442.978 73.956L898 185.197 502.091 146.35l-55.79 259.395z"/><path fill="#980600" fill-opacity=".196" d="M155.916 335.685l-1.01 155.8L379.884 208.68 592.86 337.681z"/><path fill="#e4b18e" fill-opacity=".718" d="M26.598 712.119l-11.605 119.67 191.674 118.755-157.899-11.015z"/><path fill="#b7374e" fill-opacity=".796" d="M611.018 702.92l3.352-53.051 40.054 126.414-9.721-17.756z"/><path fill="#000606" fill-opacity=".698" d="M-62 336.015l80.106 279.226L46.32 473.96 28.666 325.58z"/><path fill="#bf8045" fill-opacity=".725" d="M83.145 911.11l40.338-201.146-5.886-12.228-72.733-12.514z"/><path fill="#d298a5" fill-opacity=".851" d="M645.559 335.307l-28.651 62.209-99.466-44.739-17.943-70.512z"/><path fill="#c7cec2" fill-opacity=".647" d="M285.487 38.77l-14.331 60.324L152.404-9.278 456.08-62z"/><path fill="#0329a5" fill-opacity=".557" d="M898 718.488L832.366 822.64l-28.574-107.48L898 683.836z"/><path fill="#936c2a" fill-opacity=".612" d="M287.171 67.005l159.145 286.227-52.339 54.629-75.445-17.09z"/><path fill="#451f00" fill-opacity=".243" d="M154.39 651.518l110.811-96.011-125.303-65.421 112.847 220.027z"/><path fill="#e7f4ff" fill-opacity=".337" d="M442.45 312.607l276.724 115.868-82.03-103.27-358.236 311.703z"/><path fill="#074a76" fill-opacity=".694" d="M812.656 621.55l-21.038-54.118L871.026-62 898 592.27z"/><path fill="#763d4b" fill-opacity=".498" d="M531.766 480.488l-2.36 12.452-84.195 17.454 23.958-25.52z"/><path fill="#eaf1f7" fill-opacity=".827" d="M689.786 1086L513.29 621.515l97.163-85.201 2.49 192.947z"/><path fill="#e7c09e" fill-opacity=".722" d="M816.642 770.758l36.775 158.118-68.89-157.326 11.75-201.417z"/><path fill="#631605" fill-opacity=".404" d="M749.498 853.58l7.498 3.186 52.47 134.072L898 948.016z"/><path fill="#fbd8c8" fill-opacity=".494" d="M803.98 666.725l54.932 57.473L693.88 411.995l96.28 126.68z"/><path fill="#f0ff0c" fill-opacity=".518" d="M410.404 692.267l-61.613-82.582 70.798-7.076-24.955 100.893z"/><path fill="#e9ebf1" fill-opacity=".969" d="M270.961 863.85l-47.945 150.768L301.703 1086h-27.39z"/><path fill="#a2001a" fill-opacity=".518" d="M494.569 620.23l-40.486 54.99-118.465-39.126-66.885 59.754z"/><path fill="#1f0154" fill-opacity=".302" d="M156.592 1006.623L25.57 995.99 215.747 1086 93.32 807.747z"/><path fill="#2289ba" fill-opacity=".698" d="M762.284 147.097l14.058 275.114-69.461 8.738-50.437-97.115z"/><path fill="#532800" fill-opacity=".62" d="M738.682 593.126l2.455-72.036-92.406-16.174-3.286 15.376z"/><path fill="#442401" fill-opacity=".467" d="M489.582 131.579l-103.277-2.673-23.412 27.47 110.498 7.535z"/><path fill="#242700" fill-opacity=".361" d="M579.685 985.846l58.029-12.518 12.436 28.772-24.077-1.165z"/><path fill="#ffd1a0" fill-opacity=".435" d="M350.619 110.773l31.576 21.923 86.635-75.964 23.097 68z"/><path fill="#dfdce2" fill-opacity=".737" d="M646.154 336.546l42.062 45.508 4.519 51.793-39.274 70.247z"/><path fill="#d5dbe8" fill-opacity=".98" d="M529.87 958.541l140.234-135.305-398.147 237.706L799.187 1086z"/><path fill="#7392a1" fill-opacity=".533" d="M750.188 105.164l147.322 90.215-386.941-32.395 218.998-51.672z"/><path fill="#436a84" fill-opacity=".949" d="M618.383 577.507l-12.14-76.738 7.805-2.915 70.166 55.995z"/><path fill="#4c6374" fill-opacity=".263" d="M599.982 819.436l-32.554 62.595-439.42 133.073 355.657-118.376z"/><path fill="#233e9b" d="M268.1 841.375l-31.375-123.238-71.085-72.97-54.961 237.317z"/><path fill="#d6b091" fill-opacity=".522" d="M425.597 119.821l30.847 125.294-3.468 103.788 42.777-158.987z"/><path fill="#c0c8c2" fill-opacity=".804" d="M83.788 444.137l219.534-185.082-5.105-22.614L68.13 386.632z"/><path fill="#b1b9fd" fill-opacity=".616" d="M-4.73 1085.777l55.947-86.938-7.937-9.245-105.255-113.558z"/><path fill="#af6742" fill-opacity=".596" d="M54.867 947.858l-5.761 73.62 119.9 64.522-64.731-162.787z"/><path fill="#314749" fill-opacity=".4" d="M22.702 634.705l15.896-204.802 22.135-37.612L71.389 611.8z"/><path fill="#b7b1ff" fill-opacity=".435" d="M715.813 694.887L698.39 609.04l-63.316 24.063-10.939 72.06z"/><path fill="#858e91" fill-opacity=".89" d="M164.576 459.431l88.363 277.92 62.437-26.773-64.537-111.566z"/><path fill="#647578" fill-opacity=".675" d="M808.482 21.875l-186.93 62.173L337.09-19.189 898-1.325z"/><path fill="#500900" fill-opacity=".506" d="M160.293 629.09l80.176 89.604-12.366-58.847-75.868-36.298z"/><path fill="#45330f" fill-opacity=".388" d="M468.92 239.103L337.799 271.56l43.727 31.965-16.242 71.093z"/><path fill="#766d7e" d="M149.753 725.34l46.864-141.186 119.53-60.298-110.79 35.981z"/><path fill="#292003" fill-opacity=".365" d="M294.368 28.1l-15.042 69.934 47.504 38.933L407.344-22.11z"/><path fill="#b5cadd" fill-opacity=".396" d="M253.73 555.912l293.05-61.907-35.584 133.2-266.311-31.696z"/><path fill="#2d41a0" fill-opacity=".808" d="M191.693 1050.414l-91.639 32.91 138.271-202.102 12.768 55.058z"/><path fill="#c84250" fill-opacity=".898" d="M264.681 369.806l-25.19-51.139-11.225 39.101-15.616 41.464z"/><path fill="#b78660" fill-opacity=".741" d="M700.43 649.65l159.733 352.499-75.627-228.084L680.29 550.259z"/><path fill="#9198fd" fill-opacity=".404" d="M751.354 822.466l-103.716-3.661 29.736 97.702 75.6-12.416z"/><path fill="#003441" fill-opacity=".404" d="M-62 175.535L46.862 52.857l157.456 46.218L30.692-62z"/><path fill="#c4121e" fill-opacity=".639" d="M414.033 636.144l69.068-14.894 26.582 33.493-107.094-17.682z"/><path fill="#990023" fill-opacity=".204" d="M607.045 393.912L535.76 283.304l-76.815 26.631 17.833 7.69z"/><path fill="#1741aa" fill-opacity=".435" d="M641.22 733.019l10.326 96.494 112.794-18.086-47.6-126.485z"/><path fill="#eef3f8" fill-opacity=".616" d="M687.354 989.9l-73.467-21.122-12.265-307.224 72.51 244.073z"/><path fill="#ffc88d" fill-opacity=".475" d="M706.236 515.955l7.246-30.051 10.181-42.896 46.516 67.775z"/><path fill="#ffe2c4" fill-opacity=".275" d="M18.929 713.548l75.79 266.297-34.986 4.458-46.765-219.747z"/><path fill="#bed2ee" fill-opacity=".427" d="M580.23 838.44l-170.168 30.012 183.59-216.662-174.278 7.98z"/><path fill="#8d4153" fill-opacity=".694" d="M615.471 631.916l10.508-39.932-9.55-107.426-6.704 98.967z"/><path fill="#f6f7ff" fill-opacity=".596" d="M249.403 936.19l64.121 48.03L592.001 1086 235.577 984.229z"/><path fill="#e5eef9" fill-opacity=".686" d="M459.347 891.898l-193.202-4.783 45.715 16.043 93.672 1.166z"/><path fill="#360b00" fill-opacity=".675" d="M794.703 960.243L898 944.383v31.633l-91.354 5.39z"/><path fill="#e4effc" fill-opacity=".439" d="M236.127 587.064l-33.482-190.4 384.9 50.2-404.39 57.61z"/><path fill="#b0b5c8" fill-opacity=".62" d="M395.722 1073.13l158.454-156.568-160.742 90.442 123.425 1.105z"/><path fill="#082d2f" fill-opacity=".129" d="M529.434 867.332L287.95 903.44l70.522 12.228-91.047-50.052z"/><path fill="#2e49ac" fill-opacity=".58" d="M-62 671.944L54.321 597.89l-6.604 38.018L-62 971.188z"/><path fill="#69817f" fill-opacity=".663" d="M-62 33.98l332.06 127.034L86.174-45.266 297.762 142.39z"/><path fill="#410b23" fill-opacity=".153" d="M872.54 85.38L898-62 772.147 49.216 336.438 151.26z"/><path fill="#e0e4f1" fill-opacity=".729" d="M348.372 492.285l-101.06-177.822 45.495 133.398L584.18 315.609z"/><path fill="#cf9a5e" fill-opacity=".553" d="M259.43 308.128l21.032 67.62 51.495 39.425 47.56-2.367z"/><path fill="#bec1ff" fill-opacity=".514" d="M898 830.542l-74.708 32.315L898 571.97l-94.342 74.103z"/><path fill="#456d6b" fill-opacity=".302" d="M41.694 371.264l120.836-21.195 9.158-69.836-200.63-14.14z"/><path fill="#a9652a" fill-opacity=".38" d="M777.732 558.611L713.1 487.65l29.687 182.36 40.664 243.882z"/><path fill="#ce8b55" fill-opacity=".545" d="M333.784 213.26l28.73-140.453L464.38 84.78l-166.998 94.425z"/><path fill="#020914" fill-opacity=".569" d="M671.389 464.325l20.018 72.251-47.339-18.605 50.373-64.697z"/><path fill="#2641a6" fill-opacity=".486" d="M775.154 907.23l-96.817-14.465 5.95 180.539 152.429-.397z"/><path fill="#1f4858" fill-opacity=".584" d="M489.603 203.09l44.835 27.08 81.17-50.238-121.125-22.892z"/><path fill="#edf0f3" fill-opacity=".851" d="M114.612 555.043l-72.97 88.259 32.836 46.8 72.724 9.38z"/><path fill="#53594a" fill-opacity=".671" d="M634.259 986.409l-41.038-12.235 2.544 20.99 13.915.135z"/><path fill="#bfcad9" fill-opacity=".925" d="M363.38 805.363l-35.03 17.908-54.095 7.63L423.37 746.82z"/><path fill="#eddd02" fill-opacity=".525" d="M374.133 697.412l-4.734-9.493 60.468-14.78-1.887 21.575z"/><path fill="#243e9b" fill-opacity=".788" d="M262.37 765.137L151.903 914.168l-45.125-35.302 49.321-231.84z"/><path fill="#a2afba" fill-opacity=".62" d="M287.388 590.312l263.454 22.783-157.573-60.973-127.116 134.227z"/><path fill="#949aa7" fill-opacity=".749" d="M256.16 999.962l68.715 58.269 96.813-4.278-135.903-55.548z"/><path fill="#5f7275" fill-opacity=".322" d="M277.365 815.133l69.433 38.846 121.305-125.607-128.874 99.997z"/><path fill="#0b6da2" fill-opacity=".431" d="M898 322.484l-327.996-15.508-102.909-37.547 155.942-100.775z"/><path fill="#6e3910" fill-opacity=".341" d="M112.686 734.674l41.558-33.796-88.964-8.138 53.674 65.389z"/><path fill="#11193c" fill-opacity=".431" d="M813.793 621.482l14.599-70.171L898 703.394 776.878 513.99z"/><path fill="#dde4ef" fill-opacity=".953" d="M510.811 566.226l79.577-112.571 65.233 48.501 36.917-89.696z"/><path fill="#967637" fill-opacity=".502" d="M267.494 329.688l169.29-20.563 10.494 43.035-38.895 48.21z"/><path fill="#71000c" fill-opacity=".286" d="M286.216 713.098l46.754-107.254 48.2 69.906-62.046.114z"/><path fill="#676c64" fill-opacity=".557" d="M415.457 931.051l-83.74 22.449-31.565-11.847 44.997.193z"/></svg>