<svg xmlns="http://www.w3.org/2000/svg" width="228" height="278" viewBox="0 0 836 1024"><path fill="#7b5c5d" d="M0 0h836v1024H0z"/><path fill="#d4f2fb" fill-opacity=".749" d="M608.214 1086l268.303-59.91L898 862.245l-314.085-5.067z"/><path fill="#c2dae3" fill-opacity=".749" d="M275.145 1064.88L228.499 925.6-9.615 822.576-62 1020.683z"/><path fill="#8f1d2f" fill-opacity=".925" d="M535.345 1065.831l168.63-732.257-539.732-.832L290.785 1086z"/><path fill="#ffcc9b" fill-opacity=".451" d="M306.829 77.465l24.932 220.031 267.743 205.059L450.996 68.332z"/><path fill="#006b6a" fill-opacity=".412" d="M.097-62L898 21.367 363.182 82.444-62 774.624z"/><path fill="#587276" fill-opacity=".945" d="M872.95 476.157L826.01-62 483.903 78.15 488.4 245.7z"/><path fill="#c8bf75" fill-opacity=".553" d="M92.45 567.79l103.564 492.086-40.29-629.531L-62 447.47z"/><path fill="#dbdadc" fill-opacity=".506" d="M556.883 551.232l14.149-36.951-253.385-17.786 5.559 43.75z"/><path fill="#4a1217" fill-opacity=".631" d="M148.114 508.05l41.82 201.49L462.2 772.138 210.034 372.01z"/><path fill="#534e3f" d="M716.75 496.872l-102.967-4.252-50.476 240.53 13.718 143.684z"/><path fill="#e7c883" fill-opacity=".541" d="M811.784 420.766l55.012 55.842-183.688 86.042 4.435 265.795z"/><path fill="#020203" fill-opacity=".702" d="M402.624-62l122.294 180.891-97.253-67.282-121.113 29.954z"/><path fill="#39554c" fill-opacity=".945" d="M105.447 645.079l40.895 213.795L-62 642.08l192.312-116.822z"/><path fill="#ebedec" fill-opacity=".596" d="M452.84 651.42l20.129-85.66-19.166 2.6-30.69 153.519z"/><path fill="#d20928" fill-opacity=".659" d="M573.673 948.995l-339.974-.952L284.061 1086l333.533-21.397z"/><path fill="#b11833" fill-opacity=".973" d="M296.474 517.569l340.732-187.804-55.573-34.186-221.77 137.619z"/><path fill="#2e0008" fill-opacity=".439" d="M627.819 195.132l92.652 382.764-166.046-93.462 192.843-137.698z"/><path fill="#e2c5aa" fill-opacity=".443" d="M104.565 591.13l165.942 324.427-214.705-92.349 109.003 130.055z"/><path fill="#3d805b" fill-opacity=".565" d="M259.203 855.465l-76.58-177.096 58.026-169.342 31.817 229.03z"/><path fill="#9fb4ab" fill-opacity=".545" d="M895.5 92.66L653.55 49.837l-19.804 94.414L898 177.936z"/><path fill="#249943" fill-opacity=".294" d="M862.772 887.952l-275.142-16.11 134.435-156.67 103.99-323.947z"/><path fill="#d0a98a" fill-opacity=".937" d="M433.757 286.44l81.09-127.946-73.06-87.51L323.98 85.956z"/><path fill="#ffddc2" fill-opacity=".447" d="M567.577 478.414l-65.82-1.294 7.408-96.002 80.322 23.653z"/><path fill="#265463" fill-opacity=".525" d="M245.468 49.596L176.24 341.6l245.813-71.871-30.849 91.433z"/><path fill="#850019" fill-opacity=".639" d="M261.774 1041.988l297.823-179.854 18.817-219.882-313.039 130.362z"/><path fill="#0b4d5b" fill-opacity=".529" d="M726.637 462.017L654.533 328.82l-187.458-67.773 249.968-36.38z"/><path fill="#8acdff" fill-opacity=".239" d="M85.243 351.507L51.154 248.063l114.896-25.415 43.625 162.68z"/><path fill="#c7d9e1" fill-opacity=".718" d="M-62 958.871l194.412-114.869L232.407 1086l12.45-175.236z"/><path fill="#b50927" fill-opacity=".651" d="M703.25 553.188l58.38-53.274-212.745-119.15-9.259-108.517z"/><path fill="#73687e" fill-opacity=".525" d="M205.434 1086l-166.155-62.197 5.437-39.168 90.282-32.492z"/><path fill="#ad1934" fill-opacity=".831" d="M186.366 369.012l115.66-70.037 245.47 188.282L413.417 520z"/><path fill="#c9a4a8" fill-opacity=".718" d="M347.306 563.803l-3.482-88.975 25.296 11.338 32.595 59.726z"/><path fill="#36000a" fill-opacity=".714" d="M151.038 593.947l103.498-64.138L401.38 663.646l-214.053-251.97z"/><path fill="#d7adb2" fill-opacity=".647" d="M296.87 431.566l24.667 16.772-14.809-.43 94.308-28.325z"/><path fill="#9ee0ff" fill-opacity=".302" d="M349.967 363.374l-82.394-183.242 71.46-108.286-18.47 160.514z"/><path fill="#b0b877" fill-opacity=".271" d="M592.463 904.07l-40.244-126.26 184.344-150.735-.542 240.171z"/><path fill="#e7bf9b" fill-opacity=".635" d="M438.254 366.244l56.054-14.118-42.52-281.093L422.33 220.26z"/><path fill="#5c0800" fill-opacity=".353" d="M339.17 398.243l-133.546-22.929 219.043-65.744-48.362-107.09z"/><path fill="#54875c" fill-opacity=".486" d="M-52.213 886.728l116.428-38.21 133.75 71.24L-62 591.696z"/><path fill="#003f5d" fill-opacity=".325" d="M2.088 271.715L-62 62.436l434.214 64.784-177.768 55.568z"/><path fill="#274948" fill-opacity=".541" d="M720.336 679.677l37.05 57.563L898 728.761V470.133z"/><path fill="#85946e" fill-opacity=".569" d="M737.404 463.875l37.063-273.552 82.154 332.213-108.286 28.189z"/><path fill="#c81f36" fill-opacity=".698" d="M579.915 860.367l25.117 218.286-127.504-270.96 95.406 83.39z"/><path fill="#9caa5e" fill-opacity=".573" d="M113.309 553.256l-98.796-6.158L-62 406.56l242.35 41.84z"/><path fill="#33759a" fill-opacity=".58" d="M651.29 179.535l36.97-38.973-195.842-60.86 31.702 121.187z"/><path fill="#ff0437" fill-opacity=".29" d="M671.7 342.375L569.473 557.278l18.968-256.873-202.745-37.035z"/><path fill="#8b0019" fill-opacity=".639" d="M504.234 562.12l99.64-35.081-37.948 186.007-148.9-193.79z"/><path fill="#f2eceb" fill-opacity=".463" d="M440.413 667.365l27.86-94.383-50.967 3.955 24.045 27.819z"/><path fill="#ff9d74" fill-opacity=".392" d="M740.648 464.334l-91.849 258.717 88.947-74.309 35.178-50.26z"/><path fill="#8e051f" fill-opacity=".486" d="M389.32 730.146l66.359-124.874-201.345-94.401 27.494 384.146z"/><path fill="#b37242" fill-opacity=".576" d="M175.545 883.17l29.398 8.598-81.707-265.138 75.242-11.033z"/><path fill="#e3ecff" fill-opacity=".2" d="M898 839.248l-327.452 16.899L794.818 1086 898 1050.147z"/><path fill="#b79271" fill-opacity=".737" d="M309.47 94.794l120.83-37.81-.663 100.77-118.058-6.176z"/><path fill="#28180e" fill-opacity=".188" d="M327.467 121.464l302.337-14.377-45.421-99.29L349.295 166.87z"/><path fill="#b91d36" fill-opacity=".784" d="M507.68 507.695l-5.16-249.397 39.8 119.707-240.132 106.357z"/><path fill="#defffd" fill-opacity=".322" d="M585.027 419.346l1.64-63.66-3.999 20.084-86.712 27.588z"/><path fill="#6d7b4b" fill-opacity=".812" d="M621.368 722.252l-54.917 11.503 5.249 101.842 291.59-13.127z"/><path fill="#ffc3ca" fill-opacity=".443" d="M160.037 405.163l32.563-47.359-51.022 123.267 32.175-6.575z"/><path fill="#72000c" fill-opacity=".396" d="M631.433 342.55l-91.28 239.136 82.248-65.802 122.761 24.158z"/><path fill="#ffb49d" fill-opacity=".318" d="M255.627 835.472l13.005-21.28-22.638 109.707-111.921-122.36z"/><path fill="#96142c" fill-opacity=".753" d="M325.248 266.598l111.923 146.018-38.01 140.833-19.122-146.867z"/><path fill="#cfa28b" fill-opacity=".796" d="M738.828 724.286L722.4 756.425l-46.015-70.718 15.588-129.36z"/><path fill="#641219" fill-opacity=".329" d="M163.475 844.31l3.58 77.331 246.681-41.103-136.601 60.401z"/><path fill="#31464b" fill-opacity=".561" d="M277.749 312.726l-51.76-268.499-76.618 434.93-6.848-126.857z"/><path fill="#455559" fill-opacity=".639" d="M672.558 187.34l-193.836 88.983 4.533-87.833 231.982 70.582z"/><path fill="#e83048" fill-opacity=".514" d="M530.718 280.723l107.537 83.468 71.053 55.977-79.794-99.537z"/><path fill="#3d5137" fill-opacity=".384" d="M-62 571.936l49.472 257.595 132.612-254.189 33.385-66.292z"/><path fill="#700019" fill-opacity=".647" d="M453.857 744.392l26.74 107.599 25.671-23.813-19.206-335.904z"/><path fill="#caab80" fill-opacity=".506" d="M302.365 117.769l51.055 181.937 116.055 78.403-78.713-22.956z"/><path fill="#cdd8dd" fill-opacity=".475" d="M-50.923 1064.328L197.48 794.194l-71.262 146.735L-.173 873.235z"/><path fill="#b10629" fill-opacity=".82" d="M533.768 727.346l-3.595-229.495-16.42 111.628-38.267 33.327z"/><path fill="#ffe6d2" fill-opacity=".318" d="M344.957 73.699l-45.588 45.027 90.152-7.094 52.056 171.058z"/><path fill="#e9fffa" fill-opacity=".349" d="M562.835 506.492l-16.128-2.69-59.152 33.188 44.02 17.476z"/><path fill="#f72644" fill-opacity=".357" d="M365.235 878.264l-33.914-45.062L684.908 1086l-235.97-142.025z"/><path fill="#c9484e" fill-opacity=".8" d="M271.79 740.421L259.497 957.21l57.389 15.498-78.363-13.284z"/><path fill="#7b051b" fill-opacity=".929" d="M333.766 775.5l98.042 128.961 155.79 66.65-15.881-19.374z"/><path fill="#010007" fill-opacity=".231" d="M340.909 571.82l140.386 107.224-178.037-152.762 59.488 416.829z"/><path fill="#9aaab4" fill-opacity=".553" d="M584.878 1044.221l20.76-61.212-40.174-55.57 149.049 90.03z"/><path fill="#24574f" fill-opacity=".412" d="M561.341 715.923l67.948-200.837 25.752 231.727-82.702-6.294z"/><path fill="#134e54" fill-opacity=".384" d="M712.36 429.801l55.888 1.381-80.222-201.977-79.869 42.372z"/><path fill="#f9c9ce" fill-opacity=".271" d="M108.336 615.307l15.512 147.052 6.336-94.299 35.23-179.376z"/><path fill="#5e4707" fill-opacity=".4" d="M364.254 295.665l81.307 65.266-31.607-61.347 60.775-36.717z"/><path fill="#ae0f2b" fill-opacity=".765" d="M584.16 390.666l-8.006-72.741L403.32 385.04l37.246.893z"/><path fill="#377286" fill-opacity=".357" d="M174.418 20.306l-84.445-38.03-76.648 289.657 35.992 83.74z"/><path fill="#22799f" fill-opacity=".341" d="M292.684 118.356l-58.659 66.054 44.11 111.413 68.89-15.816z"/><path fill="#1e4a59" fill-opacity=".647" d="M-26.864-62h145.03L49.716 45.32 6.442 298.138z"/><path fill="#660516" fill-opacity=".894" d="M473.12 809.39l103.109 38.826-276.255-259.477 255.934 218.607z"/><path fill="#f22043" fill-opacity=".435" d="M538.984 960.223l-186.109-179.84 143.485 152.01 24.224 61.09z"/><path fill="#fe4750" fill-opacity=".18" d="M296.33 591.942l16.647 274.33-65.055-248.885 39.694-30.09z"/><path fill="#c40829" fill-opacity=".839" d="M304.142 1057.806l278.542-75.592L550.695 1086 385.128 920.082z"/><path fill="#f13547" fill-opacity=".333" d="M601.846 388.528l9.27 61.953-90.945-29.448 4.276 109.985z"/><path fill="#c2fffa" fill-opacity=".192" d="M365.882 560.256l1.681-89.524-53.718 73.963 32.046 12.694z"/><path fill="#fd7b7f" fill-opacity=".416" d="M174.606 367.327l50.187-41.385-15.734 26.873L155.62 457.87z"/><path fill="#3a020c" fill-opacity=".898" d="M641.73 460.484l41.813 97.6-58.259-41.066-23.469-39.355z"/><path fill="#f5fff9" fill-opacity=".396" d="M418.334 688.949l16.454.776 16.426-104.003 13.61 41.124z"/><path fill="#960b26" fill-opacity=".953" d="M724.743 502.173l-68.087-26.332 49.013-65.663-75.008-43.912z"/><path fill="#c2d0d8" fill-opacity=".773" d="M248.634 853.708L221.229 1086 113.97 856.082l116.404 104.736z"/><path fill="#8c9b98" fill-opacity=".294" d="M665.39-62L600.437 75.957l45.372 88.02 126.845 16.644z"/><path fill="#79041c" fill-opacity=".718" d="M524.062 561.594l-2.556-58.935 15.545 78.593-318.635-21.973z"/><path fill="#1e1405" fill-opacity=".353" d="M409.075 241.74l-53.915-.724 39.235-22.42 26.199 18.359z"/><path fill="#8a0423" fill-opacity=".694" d="M319.27 295.086l36.148 117.24 44.123-52.958-211.14 42.757z"/><path fill="#e6b78e" fill-opacity=".361" d="M517.29 98.949L442.239 393.08l61.911-105.935-121.699-6.118z"/><path fill="#69724e" fill-opacity=".894" d="M272.498 791.713l-15.827-72.353-73.302 40.032 58.088 90.126z"/><path fill="#df2842" fill-opacity=".357" d="M519.19 799.949l-278.934-168.83 193.92 105.502-31.937-44.495z"/><path fill="#325158" fill-opacity=".965" d="M154.442 415.751l87.029-163.164-86.305 120.178L-62 393.182z"/><path fill="#2d4e53" fill-opacity=".706" d="M117.035 840.664L48.158 671.565l30.618-91.17 73.772 262.147z"/><path fill="#738ba3" fill-opacity=".247" d="M573.519 830.16l37.13 60.915L898 896.522l-103.299-52.48z"/><path fill="#9ebae3" fill-opacity=".137" d="M207.603 219.57l-107.276 42.457 1.54 120.563 118.866-124.124z"/><path fill="#40585b" fill-opacity=".71" d="M720.977 53.899l152.384-18.954-66.563-83.186-70.455 79.002z"/><path fill="#5a663c" fill-opacity=".565" d="M898 630.432l-163.236-151.34 35.758 76.386 1.993 89.182z"/><path fill="#9fb459" fill-opacity=".384" d="M860.667 515.414l-95.858 1.964-57.893-76.449 109.688 10.755z"/><path fill="#370008" fill-opacity=".373" d="M226.85 370.129L173.004 407.5l-13.288 207.47 105.081-114.78z"/><path fill="#050000" fill-opacity=".373" d="M313.722 33.507l38.594 43.417 136.63-37.886-54.328-29.761z"/><path fill="#e1122d" fill-opacity=".455" d="M731.158 533.943l-23.14-49.595 20.599-28.436 23.077 59.335z"/><path fill="#6d7774" fill-opacity=".616" d="M689.09 463.9l43.574-41.055 11.66-280.497L898 415.986z"/><path fill="#720019" fill-opacity=".612" d="M496.77 432.448l-19.692-15.678-91.55 2.653L504.54 392.62z"/><path fill="#87a8b0" fill-opacity=".494" d="M150.887 841.948l-14.824.969L-62 856.379l196.337 36.793z"/><path fill="#e7f7ff" fill-opacity=".18" d="M300.41 287.35l38.584 41.236L302.96 52.582l48.474 225.683z"/><path fill="#fd6a70" fill-opacity=".278" d="M626.788 992.87l-93.095-26.503-133.323 3.478 88.303 23.597z"/><path fill="#670015" fill-opacity=".729" d="M354.899 910.271l-31.04-80.991 44.88 65.19 138.665 89.936z"/></svg>