<svg xmlns="http://www.w3.org/2000/svg" width="228" height="278" viewBox="0 0 836 1024"><path fill="#796628" d="M0 0h836v1024H0z"/><path fill="#caa90f" fill-opacity=".941" d="M162.839 362.44l473.121-43.496L662.105 1086 44.439 761.033z"/><path fill="#151432" fill-opacity=".933" d="M874.774 830.879l-167.84-471.86L-62 18.786 833.91-62z"/><path fill="#060e3f" fill-opacity=".827" d="M-62 .967L18.116 1027.52 83.204 558.7 324.964-62z"/><path fill="#ecd5ff" fill-opacity=".725" d="M147.555 798.329l-50.387 178.25 176.021 33.05L-62 1086z"/><path fill="#fbcf39" fill-opacity=".749" d="M676.842 922.587l92.144-395.151 45.961 166.166-70.804 267.3z"/><path fill="#855a49" fill-opacity=".988" d="M325.878 358.537l159.043 6.027 50.343-215.86L311.05 79.135z"/><path fill="#192f6d" fill-opacity=".494" d="M297.796 591.08l-15.241 103.827 264.322 23.65-101.189-107.732z"/><path fill="#e1c518" fill-opacity=".933" d="M560.228 303.266l142.12 69.663 49.42 80.463L210.474 596.31z"/><path fill="#07193d" fill-opacity=".557" d="M245.225 850.88l-37.827-290.563-42.653 282.877 11.198 33.095z"/><path fill="#151716" fill-opacity=".965" d="M898 891.897L796.697 770.176 770.57 882.532 794.015 1086z"/><path fill="#f4c749" fill-opacity=".612" d="M81.147 844.763l-14.084-45.778-14.561-105.253L358.782 1086z"/><path fill="#da84fd" fill-opacity=".278" d="M693.641 812.857l-57.64-100.573 5.673 348.481 155.615-82.816z"/><path fill="#05128a" fill-opacity=".412" d="M520.592 546.084l50.533-5.643 10.966-91.995-65.26 12.084z"/><path fill="#111014" fill-opacity=".91" d="M663.141 356.33l-153.092-73.892L646.183-62l74.22 421.833z"/><path fill="#e6c204" fill-opacity=".62" d="M320.177 314.782L170.19 354.784 68.443 598.708l508.725-17.065z"/><path fill="#322d31" fill-opacity=".992" d="M42.146 423.754L65.24 800.065l25.213 93.212L-62 1020.727z"/><path fill="#4d3e28" fill-opacity=".784" d="M210.102 70.876l222.854 329.156-19.51-137.135-262.298 112.412z"/><path fill="#c59300" fill-opacity=".698" d="M707.09 905.021l72.88-249.975-38.751-198.068-67.072-50.302z"/><path fill="#040209" fill-opacity=".694" d="M693.625 653.776l-9.161 30.097-41.918 13.11 2.648-118.513z"/><path fill="#e1cd13" fill-opacity=".784" d="M259.627 936.86l-18.502 2.676L376.004 1086H158.03z"/><path fill="#ffff9a" fill-opacity=".435" d="M530.444 321.154l-54.342-72.026 246.949 153.416 26.34 55.123z"/><path fill="#f5d61c" fill-opacity=".392" d="M193.197 675.405L101.732 949.03l-51.328-234.7 429.177 106.707z"/><path fill="#dacaff" fill-opacity=".812" d="M80.876 922.01l56.08 74.625 116.467-9.72-291.959 76.578z"/><path fill="#ffdc05" fill-opacity=".459" d="M642.4 904.049l-62.03 160.736-63.307-163.216 122.296-325.75z"/><path fill="#020032" fill-opacity=".42" d="M179.025 771.877L163 838.472l25.173 150.66 50.758-198.601z"/><path fill="#6b5402" fill-opacity=".769" d="M225.896 829.44L335.7 1070.137 597.163 942.93l-120.577 100.779z"/><path fill="#9c5600" fill-opacity=".502" d="M149.661 502.544l-32.747 252.11 112.53-150.17-25.71-100.936z"/><path fill="#b84ef6" fill-opacity=".243" d="M238.595 968.275l-24.832-92.05-71.987-11.315L-62 966.976z"/><path fill="#9f91ff" fill-opacity=".596" d="M677.874 778.022l16.382 54.105-48.42 23.718-10.484-82.372z"/><path fill="#bf9a00" fill-opacity=".698" d="M622.038 704.257l75.821-288.775-239.987 237.58-246.09-31.083z"/><path fill="#030e40" fill-opacity=".957" d="M275.811-62L-62 729.688 3.65 84.575l320.66 25.588z"/><path fill="#000937" fill-opacity=".808" d="M763.587 508.454L707.394 319.52 820.74-62 898 758.738z"/><path fill="#150a00" fill-opacity=".635" d="M305.837 59.999L515.377-62 381.455 188.236l82.929-1.58z"/><path fill="#eedcef" fill-opacity=".227" d="M327.138 259.044L312.675 131.36l37.048-70.18 19.694 274.756z"/><path fill="#e4df79" fill-opacity=".616" d="M105.797 486.952L172.153 367.7l-18.437 57.578-60.436 111.3z"/><path fill="#daaa00" fill-opacity=".502" d="M236.237 634.668l128.443 113.13L551.82 1086 241.46 850.828z"/><path fill="#ffff74" fill-opacity=".314" d="M762.98 875.367L898 612.814 710.376 831.089l68.98 189.361z"/><path fill="#737f7d" fill-opacity=".482" d="M270.027 504.167l-64.614-15.41 145.36-6.257 21.772 24.254z"/><path fill="#e29374" fill-opacity=".275" d="M498.602 314.104l-13.053-1.94-59.428-208.977 93.717-12.88z"/><path fill="#52472c" fill-opacity=".765" d="M159.94 382.039L143.391 194.01l281.99-42.374-104.75 48.704z"/><path fill="#4d5454" fill-opacity=".988" d="M469.434 618.826l-155.39-25.465 15.521 46.171 140.76 5.984z"/><path fill="#3a2f00" fill-opacity=".435" d="M320.588 1018.343l-77.82-66.609 64.905-33.737 145.775 40.762z"/><path fill="#8e5700" fill-opacity=".533" d="M760.943 712.375l-22.64-107.9-77.79-195.524-15.398 173.11z"/><path fill="#d6ae12" fill-opacity=".843" d="M675.098 914.774l-29.785-67.816L466.27 1079.53l190.81-143.474z"/><path fill="#0941be" fill-opacity=".659" d="M442.591 1086H722.58l-83.756-69.135-37.754 2.886z"/><path fill="#ffef33" fill-opacity=".267" d="M797.547 655.371L492.192 768.948l306.63-7.432-82.324-387.78z"/><path fill="#574c42" fill-opacity=".651" d="M92.94 554.586L-62 517.01 60.346 751.868l-111.374 82.234z"/><path fill="#414c5f" fill-opacity=".667" d="M339.388 664.11l-17.813 27.853 193.65 20.667 26.432-34.486z"/><path fill="#8f977a" d="M768.945 533.208l-26.476-52.895-5.823 63.577 28.46-5.066z"/><path fill="#f4d302" fill-opacity=".525" d="M562.639 298.288l-282.393 358.27 48.675-154 158.904 136.276z"/><path fill="#000607" fill-opacity=".549" d="M62.388 788.85l-121.219 13.96 90.719 131.742 49.862-73.78z"/><path fill="#500e18" fill-opacity=".38" d="M711.466 963.96L591.34 1086l284.023-60.595-278.041-50.748z"/><path fill="#e3b70a" fill-opacity=".863" d="M110.184 845.811l-35.15-246.486L95.61 540.26l68.593 321.616z"/><path fill="#f1cf15" fill-opacity=".753" d="M685.483 865.445l.304 19.621 46.133 6.354 68.4-223.491z"/><path fill="#f5e963" fill-opacity=".631" d="M99.762 797.393l24.955 22.008-32.869 86.554L60.625 750.48z"/><path fill="#120a06" fill-opacity=".431" d="M141.456 199.052l148.979-83.032 69.21 241.134L165.934-62z"/><path fill="#141420" fill-opacity=".725" d="M795.117 597.305l14.239 113.124L898 421.818l-53.379 52.921z"/><path fill="#000a41" fill-opacity=".863" d="M755.987 161.735L821.838-62 505.213 67.967 599.085-62z"/><path fill="#3b0025" fill-opacity=".396" d="M134.124 991.607l41.364-60.177 44.424 8.314 9.149 43.31z"/><path fill="#ddafa5" fill-opacity=".961" d="M717.795 925.058l18.132-34.424 26.321 19.25 17.151 59.938z"/><path fill="#c79f00" fill-opacity=".776" d="M442.876 716.715l178.56 16.975L438.7 1012.715l36.853-340.863z"/><path fill="#000b43" fill-opacity=".678" d="M76.426-62L-62 636.517l267.142-301.671-70.122 34.856z"/><path fill="#feda0c" fill-opacity=".361" d="M211.082 942.623l137.082-246.568 79.31 7.127-85.05 127.94z"/><path fill="#fdb4b5" fill-opacity=".282" d="M320.907 153.221l7.333-55.765 8.185-7.693 126.156 69.705z"/><path fill="#b1837a" fill-opacity=".788" d="M349.675 305.88l32.247-102.67-65.056-23.652 8.35 56.21z"/><path fill="#010e7a" fill-opacity=".341" d="M683.198 849.815l-35.627-22.644 9.278 45.596 36.792 67.143z"/><path fill="#e9ffc4" fill-opacity=".298" d="M815.195 697.31L698.428 365.28l-189.169-77.396 219.917 121.432z"/><path fill="#000004" fill-opacity=".651" d="M653.393 247.863l-160.546-25.314 34.64 67.085 203.126 86.905z"/><path fill="#f8da0f" fill-opacity=".447" d="M627.743 578.728l18.875 122.813-23.903 269.038-50.947-311.025z"/><path fill="#04279a" fill-opacity=".294" d="M534.855 976.994l-60.93 7.535 53.028 22.66 45.492-24.085z"/><path fill="#42422f" fill-opacity=".435" d="M738.477 122.8l-187.315 65.565 63.655 32.133 151.393-24.81z"/><path fill="#685601" fill-opacity=".894" d="M254.005 212.318l48.42-14.796 7.823 69.527-88.513 17.755z"/><path fill="#002cf7" fill-opacity=".275" d="M507.849 538.91l9.498-17.442 54.578-6.457-6.819 33.648z"/><path fill="#02124b" fill-opacity=".941" d="M840.028 567.818l-32.604-46.114 70.225-193.711-177.315 41.89z"/><path fill="#151717" fill-opacity=".757" d="M838.38 1080.376L898 787.21l-112.556 6.451-19.057 130.665z"/><path fill="#c4bb33" fill-opacity=".624" d="M361.716 364.535l-33.323-66.222-97.845 42.304 102.038-12.254z"/><path fill="#fff76f" fill-opacity=".357" d="M350.886 814.417l-11.876 17.778-171.745 244.76 47.3-94.408z"/><path fill="#e6c708" fill-opacity=".98" d="M127.695 475.474l402.428-83.638-6.676-97.6-85.552 194.07z"/><path fill="#836aec" fill-opacity=".49" d="M-25.62 616.257L12.082 1086l43.454-166.04L-62 1054.677z"/><path fill="#ffffd9" fill-opacity=".478" d="M239.426 905.475l-43.068 3.06-3.786 11.12 36.653 16.664z"/><path fill="#00083b" fill-opacity=".749" d="M530.554 185.743L507.1-62l99.06.74-10.083 206.877z"/><path fill="#6b2f11" fill-opacity=".263" d="M405.034 401.11L529.5 355.374 422.313 182.697l-55.782 71.987z"/><path fill="#050a0e" fill-opacity=".537" d="M212.491 879.76l21.895-74.597-58.607-42.779-9.667 101.072z"/><path fill="#87a265" fill-opacity=".467" d="M229.833 762.621l-58.3 11.503 6.616-85.553 57.75-22.395z"/><path fill="#050300" fill-opacity=".616" d="M301.884 94.406l68.344-58.16L428.53 21.29l91.256 59.697z"/><path fill="#f9d80c" fill-opacity=".557" d="M591.163 470.671l96.033-59.928-139.662-95.357-12.295 127.168z"/><path fill="#e7d657" fill-opacity=".741" d="M92.618 613.71L83.695 741.9l5.726 143.293-27.248-171.884z"/><path fill="#b28c00" fill-opacity=".443" d="M542.96 608.029l101.18-200.797 96.78 47.232-231.404 312.388z"/><path fill="#f4d70b" fill-opacity=".416" d="M515.504 483.86L362.259 673.87l42.168-88.686-191.618-65.616z"/><path fill="#ba7b00" fill-opacity=".725" d="M691.377 862.237l51.23-118.025 13.462-137.167-44.063 138.335z"/><path fill="#9c4f00" fill-opacity=".322" d="M278.483 568.098L90.312 691.751l74.125 56.268 6.152-185.875z"/><path fill="#c3ac26" fill-opacity=".918" d="M448.326 623.001l5.288 23.25-17.071 61.9-22.449 130.056z"/><path fill="#4c2927" fill-opacity=".596" d="M334.238 199.01l135.127-28.444-34.87 29.125-103.026-52.918z"/><path fill="#feff88" fill-opacity=".518" d="M760.237 558.8l37.162 54.034-11.211 175.038 19.018-86.445z"/><path fill="#2d2b2a" fill-opacity=".816" d="M-62 664.247l115.933 58.316 10.11-30.177 24.27-53.323z"/><path fill="#8d5309" fill-opacity=".537" d="M322.336 733.938l-119.37 175.356 85.491-22.237-80.887-23.836z"/><path fill="#b39ced" fill-opacity=".804" d="M185.658 983.653l-91.621 44.377 111.443-2.682 15.252 26.693z"/><path fill="#e9e0ff" fill-opacity=".729" d="M102.268 919.071l-8.374 119.536-54.366-29.356 19.706-77.396z"/><path fill="#002466" fill-opacity=".259" d="M296.704 299.68L93.686 413.519l220.137-148.745 24.395 99.886z"/><path fill="#03145a" fill-opacity=".482" d="M251.528 165.396l24.265 11.507 41.827 11.83L315.415-31z"/><path fill="#c68272" fill-opacity=".78" d="M633.712 968.098l75.87-83.724-32.026 156.944 57.138-145.039z"/><path fill="#957300" fill-opacity=".616" d="M366.405 977.669l194.409-150.497-198.902 190.368 133.435-12.592z"/><path fill="#c38e00" fill-opacity=".765" d="M658.47 890.26l-241.587 118.23 214.45-81.837 36.12 4.566z"/><path fill="#f9db1a" fill-opacity=".392" d="M467.065 670.251l-110.789-11.535 111.005-8.9 41.7-14.912z"/><path fill="#414958" fill-opacity=".863" d="M330.263 590.61l-8.734 8.339 73.591 19.802 61.94 5.958z"/><path fill="#92544e" fill-opacity=".976" d="M740.845 941.738l-52.116 58.675 56.17 5.025 41.66 80.562z"/><path fill="#000644" fill-opacity=".388" d="M333.876 654.607l-29.05-19.316-5.829 51.418-25.643-37.313z"/><path fill="#002" fill-opacity=".29" d="M696.195 707.622l-34.144 10.996-17.652 14.56 8.952-202.777z"/><path fill="#835400" fill-opacity=".655" d="M608.381 584.627l73.138 28.144 54.66 50.352-38.718-131.114z"/><path fill="#e2f7ff" fill-opacity=".373" d="M324.584 90.123l28.31 26.586-37.01 16.576 13.413-43.439z"/><path fill="#cca000" fill-opacity=".694" d="M346.958 569.293l-110.84 157.471-24.907-147.62-20.554-10.542z"/><path fill="#ba7d78" fill-opacity=".8" d="M236.139 868.029l-38.522 31.502-59.99-39.917-48.38 54.903z"/><path fill="#b29613" fill-opacity=".788" d="M367.136 661.06l-30.132-18.712-47.83 51.393 83.216-60.41z"/><path fill="#d4af03" fill-opacity=".643" d="M140.635 441.567L70.36 614.826l41.965 72.295 61.396-103.213z"/><path fill="#efd413" fill-opacity=".784" d="M398.69 1059.238l211.563-42.022-38.97-41.959-91.47 68.96z"/><path fill="#dc9e8f" fill-opacity=".318" d="M359.256 226.124L311.3 324.947l83.975-119.071-36.543-62.24z"/><path fill="#a29979" fill-opacity=".851" d="M528.292 978.396l18.298 16.107 12.571-25.27-15.006-4.807z"/><path fill="#ca9f00" fill-opacity=".533" d="M176.258 378.98l379.772 39.059-243.677-82.86 12.716-24.64z"/><path fill="#08020c" fill-opacity=".541" d="M33.488 557.155l-64.33-79.78 78.768-34.189 21.083 36.394z"/><path fill="#f8ee74" fill-opacity=".698" d="M557.496 310.21l148.668 68.17 31.123 51.301-215.422-137.116z"/></svg>