<svg xmlns="http://www.w3.org/2000/svg" width="228" height="278" viewBox="0 0 836 1024"><path fill="#6a403a" d="M0 0h836v1024H0z"/><path fill="#f3987f" fill-opacity=".647" d="M349.093 528.92l251.531 103.875-352.46-8.436L424.761-41.16z"/><path fill="#101311" fill-opacity=".98" d="M507.07 847.355l-308.868 91.85L160.83 1086h437.412z"/><path fill="#ff7053" fill-opacity=".706" d="M431.926 338.318L397.07 825.87l41.765-3.542L515.65 252.67z"/><path fill="#e5957c" fill-opacity=".396" d="M241.805 894.04l28.14-261.722L-62 689.774 84.594 1086z"/><path fill="#09151a" fill-opacity=".827" d="M591.5 659.975l163.084-53.828-52.759-184.913-67.785-84.391z"/><path fill="#120102" fill-opacity=".463" d="M898 131.92L694.878-62-62 246.277 19.788-62z"/><path fill="#c72f1a" fill-opacity=".984" d="M617.726 384.036l-59.852-24.63-35.406 360.82 57.27 16.798z"/><path fill="#ad9072" fill-opacity=".725" d="M537.836 58.877L515.92 224.6l-183.833-25.387L355.656 62.76z"/><path fill="#000a0b" fill-opacity=".776" d="M237.76 554.965l.832 93.997-111.614-32.483 31.905-198.139z"/><path fill="#ff5d3e" fill-opacity=".757" d="M279.192 529.198l73.393-310.245-11.193 498.9-24.208 213.08z"/><path fill="#af9278" fill-opacity=".678" d="M898 648.584l-295.112 87.708-183.506 19.96 19.143 88.493z"/><path fill="#f1fff3" fill-opacity=".518" d="M497.881 636.57l-176.219-14.488-59.376-38.56 228.962-6.082z"/><path fill="#262739" fill-opacity=".812" d="M529.463 702.507L565.17 64.253l-61.76 301.158-9.315 398.654z"/><path fill="#ec4b30" fill-opacity=".988" d="M229.154 506.45l20.139-160.62-46.498 19.26-11.292 95.76z"/><path fill="#93514c" fill-opacity=".875" d="M505.986 915.644l59.313 54.414 312.195 13.572-31.386-274.781z"/><path fill="#2e3b53" fill-opacity=".992" d="M393.255 583.975l-48.783-18.898 22.65-180.217 56.869-7.69z"/><path fill="#0d0400" fill-opacity=".537" d="M626.873 818.23l113.724-32.937-167.265-13.024-308.28 313.62z"/><path fill="#002653" fill-opacity=".647" d="M342.349 986.243l4.005-344.05 49.508-21.289 4.024 225.741z"/><path fill="#02224a" fill-opacity=".565" d="M276.102 1086L245.85 437.956l45.53 280.096-3.815 174.836z"/><path fill="#432322" fill-opacity=".616" d="M512.13 371.002l19.944-316.018L858.03-25.403 898 274.64z"/><path fill="#362727" fill-opacity=".49" d="M355.24 268.659l125.548 59.681L192.852 16.941l70.664 442.988z"/><path fill="#e5331e" fill-opacity=".678" d="M256.782 930.519l-12.737-72.056 19.024-301.746-69.292 364.756z"/><path fill="#c4a17b" fill-opacity=".675" d="M145.369 610.337l25.046 22.425 29.51 209.857-89.602-55.384z"/><path fill="#f02203" fill-opacity=".565" d="M604.08 987.416l-82.188-52.691-2.403-44.669 81.464-19.307z"/><path fill="#c5b48d" fill-opacity=".765" d="M453.186 342.642l-87.16-57.476-22.603 9.252 33.363 55.504z"/><path fill="#a77b71" d="M512.086 450.445l-2.672-32.628-71.622-3.787 30.692 95.555z"/><path fill="#b2a387" fill-opacity=".361" d="M519.406 832.356l-73.241-84.913 350.141 17.655-54.667-156.307z"/><path fill="#fc3c22" fill-opacity=".529" d="M346.662 423.57l-5.292 467.975-26.783 7.247-23.423-59.003z"/><path fill="#eb452d" fill-opacity=".898" d="M535.711 504.389l76.725-26.34 9.965-61.822-55.93-83.451z"/><path fill="#2d1b18" fill-opacity=".478" d="M409.74 155.935L323.803-62-62 51.972l682.922 101.952z"/><path fill="#d9a890" d="M331.113 542.086L256.7 534.97l49.9 94.884 16.48-18.006z"/><path fill="#0b1515" fill-opacity=".702" d="M270.426 1086l-28.764-307.521 79.18 131.932L644.9 1014.478z"/><path fill="#ff351b" fill-opacity=".588" d="M471.936 778.677l-5.587-148.69-55.317 5.953-10.855 97.217z"/><path fill="#201715" fill-opacity=".757" d="M-62-62L898 9.028 552.836 18.79 74.058 39.407z"/><path fill="#e6b894" fill-opacity=".38" d="M556.762 183.836l-227.694-39.763 108.033 132.444 7.147-75.29z"/><path fill="#003a69" fill-opacity=".424" d="M255.129 544.603l-26.855-56.387 47.78-193.26 17.471 235.251z"/><path fill="#002b5b" fill-opacity=".447" d="M460.348 739.027l93.605-276.812-98.516-2.158 80.474 262.145z"/><path fill="#dff6fc" fill-opacity=".439" d="M277.616 436.903l-34.06-6.89 15.527 31.466 45.63-26.593z"/><path fill="#011015" fill-opacity=".365" d="M553.805 594.895l118.697-251.158-190.47-68.944 261.505 212.453z"/><path fill="#f95738" fill-opacity=".816" d="M415.314 474.512l25.319-137.334 18.742 243.993-52.53-13.25z"/><path fill="#1e2225" fill-opacity=".831" d="M354.626 278.726L161.844 389.56l-14.371 187.268 64.37-242.91z"/><path fill="#ff5836" fill-opacity=".647" d="M374.52 349.121l-39.896 196-50.382-29.417 40.347-230.446z"/><path fill="#73515b" fill-opacity=".549" d="M79.938 1086l15.083-556.72L-62 774.356v261.953z"/><path fill="#f2fdbb" fill-opacity=".133" d="M364.018 37.969l-30.966 69.103 202.498 38.034-37.194-120.519z"/><path fill="#5e464a" fill-opacity=".325" d="M617.42 332.442L409.302 220.967 898 235.243 844.543 903.96z"/><path fill="#532b29" fill-opacity=".596" d="M-35.048 41.072L386.25 69.55 48.54 346.192-62 69.147z"/><path fill="#2e0000" fill-opacity=".384" d="M195.427 779.177l14.636-206.282 17.788-96.832 15.357 142.17z"/><path fill="#141211" fill-opacity=".643" d="M597.977 565.415l-9.166 117.86 167.954-75.11L604.298 476.89z"/><path fill="#171c21" fill-opacity=".78" d="M324.844 320.1l-38.368 97.344-39.728-20.575 28.891-101.094z"/><path fill="#071a20" fill-opacity=".58" d="M531.479 283.398l57.617 33.999-71.743 114.642-33.96-24.462z"/><path fill="#1e2730" fill-opacity=".635" d="M353.668 486.727L440.02 354l-66.14-7.675-6.26 20.974z"/><path fill="#e0fcc2" fill-opacity=".278" d="M138.297 976.915l-46.312-26.933L59.317 1086l75.854-37.845z"/><path fill="#8c5c4a" fill-opacity=".69" d="M494.727 786.119l-121.567-2.275L436.008 884.4l75.63-54.358z"/><path fill="#dfb396" fill-opacity=".596" d="M494.482 795.287l18.783 33.209 33.876-72.271-94.974-9.7z"/><path fill="#161601" fill-opacity=".494" d="M462.295 310.322l35.73-52.279-55.618 24.171-48.914 48.643z"/><path fill="#102142" fill-opacity=".722" d="M473.283 637.352l51.261-1.96-6.633 108.754-51.433 6.216z"/><path fill="#ae220f" fill-opacity=".753" d="M627.468 677.263l-11.042-50.991-90.772-20.282 19.294-143.447z"/><path fill="#580300" fill-opacity=".659" d="M512.344 840.306l100.645-40.783-9.617 71.588-69.42 18.957z"/><path fill="#7b5c61" fill-opacity=".384" d="M610.262 1086l-16.45-265.593 273.923-51.308-6.18 304.355z"/><path fill="#fb2e0e" fill-opacity=".384" d="M235.45 377.474l4.637 308.375 18.348-116.886-69.523-92.176z"/><path fill="#fb5334" fill-opacity=".827" d="M424.425 492.826l86.443-175.967-30.291-5.377-50.601 72.486z"/><path fill="#0c100c" fill-opacity=".631" d="M533.464 939.509l91.963 67.179-411.696-66.009 176.276-66.318z"/><path fill="#193b6f" fill-opacity=".573" d="M246.588 811.653l11.144 26.907 34.788-28.083-9.172-218.13z"/><path fill="#b9a282" fill-opacity=".494" d="M511.418 221.35L439.904 111.7l71.083 165.28-61.999 78.871z"/><path fill="#f8fef5" fill-opacity=".353" d="M343.74 584.19l-7.656 51.314 190.842-61.294-95.325 60.943z"/><path fill="#1e396a" fill-opacity=".596" d="M343.953 632.19l-3.266 125.214 64.977-11.34-5.517-121.871z"/><path fill="#eb3c23" fill-opacity=".678" d="M338.35 838.754l-32.39-236.488-16.198 143.283L321.4 914.146z"/><path fill="#39486f" fill-opacity=".635" d="M-62 957.812L93.87 1086l66.249-107.75L223.113 1086z"/><path fill="#ffd7c4" fill-opacity=".38" d="M515.197 456.593l-26.709 11.854-33.865-5.956 50.829-47.331z"/><path fill="#795a4e" fill-opacity=".659" d="M801.369 763.368l-138.417-62.159-55.093-60.826-6.103 96.499z"/><path fill="#614241" fill-opacity=".51" d="M366.789 172.194L-52.495 323.689l384.76-17.92 55.456-109.155z"/><path fill="#564261" d="M700.054 508.137l-4.542 37.723 53.558-20.331-29.834-19.816z"/><path fill="#482220" fill-opacity=".714" d="M808.105-62L898 180.283l-399.617-51.939-13.753 41.701z"/><path fill="#324261" fill-opacity=".914" d="M348.297 572.702l11.945-124.87 53.686 2.045-7.604 128.848z"/><path fill="#652b1f" fill-opacity=".98" d="M446.317 859.078l2.69 26.59-61.399-8.079 115.39-65.312z"/><path fill="#eb4027" fill-opacity=".694" d="M198.064 943.643l63.318-29.836-21.123-18.001 12.494-266.525z"/><path fill="#91655c" fill-opacity=".663" d="M-54.466 771.772L209.665 885.69l20.759-59.346L-62 996.373z"/><path fill="#f14a2e" fill-opacity=".686" d="M199.343 434.032l-6.224-59.684 59.726-33.797 4.097 21.643z"/><path fill="#2c0000" fill-opacity=".471" d="M281.716 862.205l-111.606 43.55 167.016-43.746 141.297 58.416z"/><path fill="#e9462f" fill-opacity=".749" d="M210.234 806.321l15.694 67.975 33.787-139.965 6.07-46.378z"/><path fill="#fdcfa9" fill-opacity=".259" d="M486.424 206.535l-28.502-70.393-65.71 126.168-9.742-114.478z"/><path fill="#1d2d48" fill-opacity=".765" d="M516.745 607.693L559.23 349.03l-22.707 53.523-69.624 141.01z"/><path fill="#fa4a2e" fill-opacity=".686" d="M541.576 512.059l19.578-161.063 42.98 10.84 10.823 67.726z"/><path fill="#192125" fill-opacity=".718" d="M604.459 370.274L491.143 251.653 661.119 357.41l28.428 163.878z"/><path fill="#bcb18b" fill-opacity=".616" d="M341.964 304.619l3.946 4.255 25.564 32.68-.76-115.663z"/><path fill="#f1ded5" fill-opacity=".592" d="M269.828 448.24l-15.203-4.964 65.664-11.996 11.367-.636z"/><path fill="#64423c" fill-opacity=".482" d="M426.4 194.392l62.348 69.508 291.057 143.568-161.786-185.015z"/><path fill="#585039" fill-opacity=".353" d="M413.278-26.221L554.791 75.366 408.99 71.011l-78.101 103.37z"/><path fill="#31364f" fill-opacity=".545" d="M444.591 479.89L545.3 518.333l-60.388 28.29-35.663-111.496z"/><path fill="#f53d22" fill-opacity=".624" d="M470.436 733.335L406.82 599.656l20.877-13.946-24.937 186.773z"/><path fill="#cb9e81" fill-opacity=".647" d="M391.788 118.921l117.718 11.675 20.046-43.703-113.68-13.897z"/><path fill="#fb5536" fill-opacity=".737" d="M472.315 493.481l-1.245 93.173-15.154 1.035-29.227-100.529z"/><path fill="#ec4027" fill-opacity=".918" d="M280.473 840.947l55.397-105.583-51.708-125.098 46.587 250.656z"/><path fill="#f3fffe" fill-opacity=".337" d="M466.354 621.267l-84.372-50.742-75.303 23.785 175.03-14.344z"/><path fill="#764443" fill-opacity=".663" d="M141.546 610.176L-62 420.798v260.87l183.256 27.717z"/><path fill="#f8e9b3" fill-opacity=".212" d="M421.647 262.65l43.026 9.86 73.058-159.661-41.745 125.36z"/><path fill="#c6b08c" fill-opacity=".486" d="M102.737 779.923l43.77-154.387 31.753 155.366-54.938-43.298z"/><path fill="#bf9b82" fill-opacity=".682" d="M330.215 629.024l-60.527-3.362-3.656-60.05 46.787 15.207z"/><path fill="#584754" fill-opacity=".976" d="M598.877 988.312l50.672 17.578 248.451 8.7L611.74 1086z"/><path fill="#273a6c" d="M512.387 284.223l20.442-5.738 6.693 14.172-28.159 16.112z"/><path fill="#ba8b71" fill-opacity=".565" d="M365.77 347.14l-9.62-147.736-30.816-45.317 30.051-74.03z"/><path fill="#855251" fill-opacity=".565" d="M749.704 624.843l-14.923 200.84L898 874.459V665.016z"/><path fill="#bcd4a3" fill-opacity=".373" d="M401.531 350.67l94.335-67.029 8.955 7.276-50 48.427z"/><path fill="#051619" fill-opacity=".443" d="M137.535 492.226l43.873 9.779L202.28 340.87l-27.863 36.126z"/><path fill="#d0ae96" fill-opacity=".376" d="M385.408 789.758l83.3-45.818 54.353 25.638-55.712 20.919z"/><path fill="#0c0806" fill-opacity=".463" d="M655.009 706.55L604.99 604.754l-10.177-135.595 50.96 115.416z"/><path fill="#b59f7b" fill-opacity=".349" d="M667.4 673.437l-5.715 32.013 80.797-38.793 5.778 113.94z"/><path fill="#fff0d8" fill-opacity=".247" d="M356.588 634.768L321.8 531.181l-53.26 38.422 160.948 13.947z"/><path fill="#dd371e" fill-opacity=".792" d="M323.01 901.253L303.743 655.78l15.912 224.365 52.476-.355z"/><path fill="#391b19" fill-opacity=".549" d="M898 17.14L566.656-59.35 491.661 9.938l50.468 97.28z"/><path fill="#a81b09" fill-opacity=".71" d="M596.686 491.73l-75.606 93.732 53.143 79.836 28.366-74.413z"/><path fill="#3e2421" fill-opacity=".51" d="M444.27 470.73l9.297-54.21 107.931-50.297-102.776 58.55z"/><path fill="#011f04" fill-opacity=".271" d="M700.44 755.098L416.67 877.896l271.374-84.377 41.58-10.238z"/><path fill="#822626" fill-opacity=".271" d="M415.248 548.26l-28.761 46.48 17.079 6.522-40.538-3.862z"/><path fill="#cb2f17" fill-opacity=".757" d="M585.013 709.471L528.6 751.174l3.098-63.063.795-90.016z"/><path fill="#1b3b69" fill-opacity=".447" d="M243.037 536.113l-9.357-98.102 44.78 21.901 9.466 78.695z"/><path fill="#f04b30" fill-opacity=".494" d="M594.673 991.63l4.587-118.244-62.14 62.288 76.507 59.86z"/><path fill="#ec462c" fill-opacity=".694" d="M416.85 699.827l60.06-87.23-12.338 58.071-19.605-57.825z"/><path fill="#746552" fill-opacity=".776" d="M544.455 769.353l1.28 24.08 186.31-43.996-207.85 22.344z"/><path fill="#861b12" fill-opacity=".922" d="M585.05 935.44l-104.92-59.242 126.898 67.828-2.934 51.035z"/></svg>