<svg xmlns="http://www.w3.org/2000/svg" width="228" height="278" viewBox="0 0 836 1024"><path fill="#251c1d" d="M0 0h836v1024H0z"/><g fill-opacity=".502"><path fill="#ffffb5" d="M158 834l240 56-56-196z"/><path fill="#ffc18e" d="M370 190l112 260L614 98z"/><path fill="#ffff8f" d="M638 902l256-120-76 192z"/><path fill="#c48263" d="M386 386l212-84-64-364z"/><path fill="#000001" d="M358 286l244 404-664 68z"/><path fill="#fff" d="M166 482l-40-24-24 124z"/><path d="M610 578l64 440-460 68z"/><path fill="#ffdcee" d="M546 602l56 4-40-120z"/><path fill="#ffff8e" d="M286 718l116 16-192 124z"/><path d="M-18 1058l76-292 456 248z"/><path fill="#ffff75" d="M838 938l60-172-224 152z"/><path fill="#1f0001" d="M898 2L698 322 490-18z"/><path fill="#41528b" d="M94 190L42-62-62 282z"/><path fill="#000003" d="M-34 870l-28-532 328 432z"/><path fill="#000410" d="M390 746L26 310l588 124z"/><path fill="#f9b78b" d="M386 330l168 24-104 44z"/><path fill="#0e0111" d="M174-50l236 288-472 388z"/><path fill="#250009" d="M818 354l8 264-360-332z"/><path fill="#a6b9d6" d="M386 526l24 44-64-4z"/><path fill="#e2e48a" d="M346 746l60 132-224-72z"/><path fill="#bf8664" d="M570 74l-96-16-56 320z"/><path fill="#fffff1" d="M158 458l-36 108-12-40z"/><path d="M674 286l-148-56 128-16zm-384-68L418 30l244-92zm208 852l-356-68 132-176z"/><path fill="#0a0711" d="M758 862l140-612-516 568z"/><path fill="#eeb9b6" d="M586 306l-88-64 88 8z"/><path fill="#dadc30" d="M186 790l104 76h-80z"/><path fill="#000007" d="M378 638l24 296 392 92z"/><path fill="#000002" d="M198 334l60 448-176 8z"/><path d="M386 290l44-56-108-28z"/><path fill="#3a2119" d="M482 134l52 24V78z"/><path fill="#230009" d="M450 2l-4 184L-18-14z"/><path fill="#5a1b21" d="M626 362l248 108-136-204z"/><path fill="#c0b308" d="M650 910l116-4 8 60z"/><path fill="#deb9a3" d="M586 118L486 70h64z"/><path fill="#030c17" d="M362 346l240 132-184 136z"/><path fill="#ffb6bb" d="M542 558l44 56-8-88z"/><path fill="#26000b" d="M898 22L478-62l176 288z"/><path fill="#d9d8d7" d="M878 886l-84-24-12 92z"/></g></svg>