<svg xmlns="http://www.w3.org/2000/svg" width="228" height="278" viewBox="0 0 836 1024"><path fill="#675a52" d="M0 0h836v1024H0z"/><g fill-opacity=".502"><path fill="#d2b7c0" d="M898 422l-604 664-120-780z"/><path d="M838-62l60 484L-62 14z"/><path d="M6-62L-6 470l372-232zm212 520l28 540-272-44z"/><path fill="#dbf3ff" d="M578 1086l108-248-460 52z"/><path fill="#ede3e9" d="M202 334L-62 542l848-160z"/><path fill="#c78858" d="M454 426L294 110l260-24z"/><path fill="#f0e8f4" d="M486 330l184-28 228 324z"/><path fill="#020000" d="M898-42l-16 604L394-10z"/><path fill="#f3ffff" d="M346 858l-92-368-20 448z"/><path fill="#820000" d="M526 550L234 402l-16 84z"/><path d="M254 522l-56 408L10 546z"/><path fill="#720905" d="M338 858l72-356 48 400z"/><path d="M506 1086L330 942l-228-32z"/><path fill="#430e00" d="M426 410L298 262l304-16z"/><path fill="#6b670b" d="M586 410l140 676 172-308z"/><path fill="#fffd7d" d="M18 870l-80-260 140 24z"/><path fill="#fff" d="M134 490l136-168-312 172z"/><path fill="#ff6a32" d="M710 738l176-128-28 368z"/><path fill="#090000" d="M566-38L26 342-62 2z"/><path fill="#002" d="M670 502l136 168-112 52z"/><path fill="#a8b2b3" d="M426 662l240 424 8-220z"/><path fill="#83030c" d="M630 418L346 530l264-20z"/><path fill="#600" d="M734 486l-12-60 68 68z"/><path fill="#dbe5f0" d="M306 498l420-120-148-88z"/><path fill="#27a400" d="M882 1010L678 778l-8 308z"/><path fill="#4f0000" d="M490 578l48 80-32 116z"/><path fill="#be8f6a" d="M394 310L530 94H318z"/><path fill="#b6c8c6" d="M178 458l108 156 188-36z"/><path fill="#a3a6af" d="M742 798L482 386l4 188z"/><path fill="#fff" d="M230 706l8 132 84-156z"/><path d="M190 918l60-340-272 336z"/><path fill="#fdfbff" d="M374 294l-172 96 52-68z"/><path fill="#7d231d" d="M414 614l-76-12 12 212z"/><path d="M898 618L722 346l88-176zm-488 468L270 930l200 100z"/><path fill="#ecf4fb" d="M302 318l224 148-116 16z"/><path fill="#8e0000" d="M298 502l188-20-64 72z"/><path d="M738 350L550 146l-16 120z"/><path fill="#714b20" d="M-62 666l120-72-48-264z"/></g></svg>