<svg xmlns="http://www.w3.org/2000/svg" width="228" height="278" viewBox="0 0 836 1024"><path fill="#d9adac" d="M0 0h836v1024H0z"/><g fill-opacity=".502"><path fill="#a00" d="M210 1086L462-62l300 984z"/><path fill="#fff" d="M-62 22l272 912L418-62zm588-84l300 1148L898-54z"/><path d="M318 1038L22 566l-84 124z"/><path fill="#001207" d="M594 66L462 410 378-62z"/><path fill="#fff" d="M-62-2l496-4-488 680zm0 676l376 404-304-24z"/><path fill="#e9ffff" d="M578 710l216 204-120 160z"/><path fill="#f41819" d="M682 1086L322 310l-16 692z"/><path fill="#fff" d="M550-10l292-52-4 1080z"/><path fill="#04200f" d="M658 594l-92 88 236 192z"/><path fill="#fff" d="M766-62L602 582l296 156zm-804 0l-24 276 592 180z"/><path fill="#f9ffff" d="M102 710l68-548 116 740z"/><path fill="#fff" d="M526 326l372-4L662-62z"/><path fill="#4e3f29" d="M438 938l-76 120L66 826z"/><path fill="#ff4548" d="M630 326l-320 52 252 524z"/><path fill="#122821" d="M426 330L538 2 386 62z"/><path fill="#fff" d="M82-62l340 284-476 400z"/><path fill="#210400" d="M770 1030l52-80-20-80z"/><path fill="#120b00" d="M114 638l-80 76-8-152z"/><path fill="#fff" d="M-14 750l-12 336 284-88z"/><path fill="#413d31" d="M366 142l216-68-60 288z"/><path fill="#e7d4d5" d="M406 710l-28-80 220 40z"/><path fill="#f02022" d="M254 694l316 4-264 216z"/><path fill="#f3ffff" d="M-62 146l212 648 184-172z"/><path fill="#100d2e" d="M166 430l28 32 28-60z"/><path fill="#fdffff" d="M750 814l44 88-164 16z"/><path fill="#fff" d="M618 522l280 452L826-62z"/><path fill="#4d2d22" d="M690 882L570 594l136 64z"/><path fill="#e1ffff" d="M494 398l-116-88 148 60z"/><path fill="#fff" d="M-54-38l24 196L666-62z"/><path fill="#f63032" d="M398 334L278 542l340-52z"/><path fill="#afd3e7" d="M126 442l260-100 28-120z"/><path fill="#fff" d="M294 838l-36 60-120-124zm292-152l64 128-52-4z"/><path fill="#0f0b09" d="M474-10l84 52 24 124z"/><path fill="#27322c" d="M498 370l-112-96 180-60z"/><path fill="#000916" d="M738 918l-72 32-20-32z"/><path fill="#fff" d="M670-58l228 476-364-112z"/></g></svg>