<svg xmlns="http://www.w3.org/2000/svg" width="228" height="278" viewBox="0 0 836 1024"><path fill="#625e5a" d="M0 0h836v1024H0z"/><path fill="#c7d1db" fill-opacity=".682" d="M518.718 994.596l24.285-851.458L665.18 429.144l-302.755-81.739z"/><path fill="#131415" fill-opacity=".976" d="M344.598 1086l47.295-513.01 72.842 354.336 361.264 10.302z"/><path fill="#dae0e5" fill-opacity=".753" d="M637.933 915.753l48.36 21.94L576.53 230.028l36.564 606.816z"/><path fill="#c8ced5" fill-opacity=".8" d="M185.376 413.08L45.764 503.66l188.333-197.98 83.974 257.865z"/><path fill="#1d0e01" fill-opacity=".804" d="M183.145 443.894L-62 938.324l260.792-364.106 98.968 16.396z"/><path fill="#141515" fill-opacity=".988" d="M524.64 608.46l67.554-1.174L638.7 1086l-78.693-117.063z"/><path fill="#c7d0d4" fill-opacity=".725" d="M369.516 920.463l-28.208-286.01-61.617 252.805 6.17 40.829z"/><path fill="#1b1102" fill-opacity=".655" d="M247.728 359.474l66.383 162.691 73.447-2.252L326.21 98.297z"/><path fill="#b4b8bc" fill-opacity=".984" d="M515.04 554.52l-73.925 134 21.063 251.536 87.883-25.347z"/><path fill="#14110b" fill-opacity=".851" d="M898 346.191l-309.782-88.846 70.285 118.937L898 393.227z"/><path fill="#131211" fill-opacity=".545" d="M403.173 182.864l98.24 288.575 86.305-28.092-23.11-91.26z"/><path fill="#0e0e0e" fill-opacity=".961" d="M271.68 1086L268 931.915l348.194-2.698 86.362 84.303z"/><path fill="#e8e6ec" fill-opacity=".667" d="M180.008 347.968L58.245 570.581l31.698 35.778 7.031 9.341z"/><path fill="#a5b1ba" fill-opacity=".875" d="M369.593 512.667l76.418 158.038 169.626-103.566 3.034-124.128z"/><path fill="#c9cdd4" fill-opacity=".89" d="M569.062 267.94l170.428-19.795-273.504-20.99 142.73 170.248z"/><path fill="#c1c2c5" fill-opacity=".49" d="M48.284 849.002l100.086 20.673 129.97-233.638-139.301 91.268z"/><path fill="#1c1d1c" d="M684.186 862.041l-10.16 175.581 105.03-137.346-12.895-48.543z"/><path fill="#100c0c" fill-opacity=".569" d="M675.39 480.88l92.444 112.14 89.19-166.471-96.713 2.933z"/><path fill="#0b0400" fill-opacity=".318" d="M46.417 935.203L299.286 701.2l-27.527 224.873L119.645 1086z"/><path fill="#2f231e" fill-opacity=".871" d="M662.329 778.765l146.436 1.205-75.066-105.577-87.09 40.855z"/><path fill="#0d0e0e" fill-opacity=".98" d="M433.926 644.373l19.629 198.45-86.696.256-17.944-186.469z"/><path fill="#c4a383" fill-opacity=".631" d="M898 1086V723.515l-98.866 66.626L761.939 1086z"/><path fill="#844106" fill-opacity=".408" d="M200.626 60.649l142.057 302.616L482.5 318.009 349.957-25.4z"/><path fill="#0e0d0c" fill-opacity=".98" d="M227.805 548.136L97.36 634.766l53.768-181.333 40.004-55.01z"/><path fill="#0d140a" fill-opacity=".533" d="M891.976 120.878l-182.778 44.19-46.154-33.596 56.682-82.4z"/><path fill="#8c7f6e" fill-opacity=".533" d="M562.966 20.22L269.278 56.098l163.683 192.44 161.39-19.564z"/><path fill="#442c14" fill-opacity=".961" d="M161.584 610.344l-190.04 164.254L-62 999.355 95.24 776.01z"/><path fill="#ffddc3" fill-opacity=".255" d="M270.552 1016.943l-26.601-162.988-118.169-107.084 122.541 294.174z"/><path fill="#cecfd2" fill-opacity=".635" d="M347.196 351.58l101.978-4.134 67.986 157.917-83.5 33.36z"/><path fill="#dbecff" fill-opacity=".243" d="M272.86 159.13l-68.901 65.608-1.397 236.399 46.445 75.745z"/><path fill="#fd7c55" fill-opacity=".635" d="M61.204 973.618L17.748 1086l-55.267-75.62L-62 864.3z"/><path fill="#91a2af" fill-opacity=".396" d="M868.2 584.148L898 743.513 725.417 623.684l-503.05-104.722z"/><path fill="#898373" fill-opacity=".706" d="M770.092 301.463l15.479 64.939L898 123.306 669.044 252.455z"/><path fill="#7896a5" fill-opacity=".655" d="M413.458 641.768l-108.003 10.748 115.542-108.467 192.93-71.627z"/><path fill="#120e01" fill-opacity=".494" d="M477.043 241.418L394.746 368.35 267.142 232.966l300.76 149.966z"/><path fill="#e2e8fb" fill-opacity=".224" d="M508.23 426.545l-11.625-76.012L898 403.388l-275.903 2.856z"/><path fill="#4b403d" fill-opacity=".847" d="M246.871 310.957l-85.867 54.905L-62 318.629v-55.251z"/><path fill="#462711" fill-opacity=".424" d="M187.896 185.798l111.397-26.966 137.42-24.027-326.743-80.01z"/><path fill="#e7e8f0" fill-opacity=".533" d="M268.65 341.31l-140.944 45.028-16.035 132.823 127.701-216.226z"/><path fill="#51423a" fill-opacity=".702" d="M23.374 710.61L-62 558.03l169.236-107.836-53.078 156.742z"/><path fill="#080c09" fill-opacity=".737" d="M263.503 518.483l-122.176 6.75 54.871-43.168 93.381 203z"/><path fill="#6a9eaa" fill-opacity=".51" d="M546.359 1086L898 1014.29l-200.818-59.762 11.073 57.556z"/><path fill="#f3d3b9" fill-opacity=".459" d="M438.605 147.657L395.826 89.37 377.43 33.805l34.358 8.071z"/><path fill="#f5fdff" fill-opacity=".38" d="M620.117 685.937l72.062 159.933-45.714 93.856-40.482-168.434z"/><path fill="#101518" fill-opacity=".565" d="M275.415 258.137l8.795-37 119.33 276.118-104.862 43.974z"/><path fill="#ebeef2" fill-opacity=".525" d="M709.757 265.742l-55.004-29.062-83.608 2.643 214.185 51.105z"/><path fill="#ced2d9" fill-opacity=".686" d="M627.304 314.374l-16.95 169.25-93.08-246.551 37.663-11.08z"/><path fill="#185c67" fill-opacity=".498" d="M437.44 563.283l-163.26-21.135-2.298 37.834 90.772 52.905z"/><path fill="#000609" fill-opacity=".467" d="M252.64 785.629l-51.94-20.324 95.734-49.319-22.685 247.067z"/><path fill="#0b0d0e" fill-opacity=".675" d="M602.986 253.787l174.57 48.005-47.75 84.644-45.28-7.658z"/><path fill="#e0eef5" fill-opacity=".588" d="M266.7 1012.79l-9.342-71.812-33.682 133.85-39.34 11.172z"/><path fill="#171819" fill-opacity=".988" d="M663.594 1067.195L627.86 868.901l-89.32-44.373 4.96 39.018z"/><path fill="#0a1318" fill-opacity=".31" d="M39.595 972.473l12.54-110.748 96.189 169.13 85.75-202.391z"/><path fill="#888d8b" fill-opacity=".706" d="M294.568 651.31l-188.08 46.345 247.076-77.71-58.922 252.334z"/><path fill="#c8ced2" fill-opacity=".792" d="M518.958 756.871l32.12 175.322-98.73-15.34 88.068-100.801z"/><path fill="#b05f26" fill-opacity=".333" d="M57.145 639.146l-66.82-98.623 141.802 85.81L-62 839.042z"/><path fill="#e1e8ef" fill-opacity=".459" d="M344.4 924.709l24.246-98.093-79.702 20.206-.127 80.5z"/><path fill="#70726f" fill-opacity=".702" d="M277.185 313.152L70.583 55.458-62 110.548l241.773 194.27z"/><path fill="#b3b6ba" fill-opacity=".882" d="M522.665 514.716l91.117-45.794-3.681-30.872-310.13 103.327z"/><path fill="#252324" fill-opacity=".275" d="M704.955 787.317l32.15-209.304-133.457-199.275 217.064 143.584z"/><path fill="#6d7077" fill-opacity=".957" d="M86.225 475.764l71.753-103.79-117.257-.228-54.392 97.635z"/><path fill="#ffd1b2" fill-opacity=".2" d="M837.362 795.69L898 887.709l-237.78-66.714-18.152-26.558z"/><path fill="#666d69" fill-opacity=".765" d="M449.33 41.65L730.526-62 585.84 230.726l-136.399 5.08z"/><path fill="#80726a" fill-opacity=".494" d="M212.806 530.11L107.813 755.09l177.79-55.146-17.859-63.952z"/><path fill="#feefeb" fill-opacity=".29" d="M388.13 592.574l104.721 47.586 133.4-144.305-3.447 94.53z"/><path fill="#bc7042" fill-opacity=".329" d="M449.678 273.122l-.2 81.317L317.377 62.762l72.56-38.406z"/><path fill="#afb4b7" fill-opacity=".478" d="M261.657 530.78l-47.83-62.481 48.369-94.468 39.783 146.956z"/><path fill="#191a1b" fill-opacity=".937" d="M458.766 362.582l-4.683-128.18 57.38 54.596 43.06 58.451z"/><path fill="#c4c7cc" fill-opacity=".647" d="M400.728 523.383l89.74-96.636-50.384-103.729-27.151 35.75z"/><path fill="#b7aa6b" fill-opacity=".525" d="M347.763 441.974l17.734 7.632-32.373.705-49.114-5.802z"/><path fill="#d4d7de" fill-opacity=".537" d="M233.178 513.064l-16.334-8.766 38.094-198.535-77.81 63.242z"/><path fill="#d4d4d9" fill-opacity=".671" d="M93.98 572.221l-16.947-19.405 45.614-135.784 82.018-81.835z"/><path fill="#0a0b0c" fill-opacity=".396" d="M759.62 847.945l-95.053 2.157 23.175-36.591-17.626 232.119z"/><path fill="#725747" fill-opacity=".49" d="M615.745 419.888l31.693 316.253 20.898-151.851 82.646-204.862z"/><path fill="#b1b6b6" fill-opacity=".396" d="M62.835 828.95l102.252 28.024 3.497-140.094L-62 1013.791z"/><path fill="#222528" fill-opacity=".812" d="M497.278 426.37l14.622 43.664 69.667-24.247 9.234-9.076z"/><path fill="#442e11" fill-opacity=".702" d="M413.874 374.08l-128.47-165.33 146.616 14.763-73.889 20.13z"/><path fill="#020001" fill-opacity=".365" d="M153.901 453.792l-35.909 59.304 18.821 121.354 70.428-31.502z"/><path fill="#d9e3fe" fill-opacity=".251" d="M787.612 611.61l16.028 44.064L898 670.183l-55.305-105.019z"/><path fill="#311f01" fill-opacity=".529" d="M288.013 144.334l113.492-32.073 25.01 14.452-132.344 34.297z"/><path fill="#1b1c1d" fill-opacity=".839" d="M444.046 319.96l52.782 120.029-56.15-222.288 122.68 146.6z"/><path fill="#fe7f5b" fill-opacity=".525" d="M860.237 708.553l-2.023 296.311-41.784-117.793 3.968-102.037z"/><path fill="#583a28" fill-opacity=".467" d="M857.107 742.855l-54.237 66.007-31.232-49.413-80.39-109.252z"/><path fill="#565d49" fill-opacity=".38" d="M800.114 969.331l5.875-165.263-57.725 136.174-54.115 68.375z"/><path fill="#cdd1da" fill-opacity=".682" d="M498.358 273.608l56.179-44.875 84.954 119.751-15.501 58.656z"/><path fill="#f7f8fc" fill-opacity=".271" d="M817.75 307.027l-111.558-33.711-76.908-38.906 110.789 35.251z"/><path fill="#d6d8dc" fill-opacity=".286" d="M894.194 402.446l-126.116 14.75-10.875-34.343L898 399.516z"/><path fill="#c38c68" fill-opacity=".592" d="M421.493 134.578l29.841-26.978-2.306 50.946-107.431 36.73z"/><path fill="#333737" fill-opacity=".494" d="M300.5 836.72l1.432-23.146 70.82 8.925-184.48-52.29z"/><path fill="#1e1f20" fill-opacity=".843" d="M479.057 254.496l-19.477 42.196 108.392 86.09-23.229-58.522z"/><path fill="#060705" fill-opacity=".365" d="M430.633 269.789l-96.967 32.152-81.962 47.835 28.855 87.904z"/><path fill="#101111" fill-opacity=".796" d="M557.182 873.381l56.258-150.636-38.287-48.799-50.434-47.801z"/><path fill="#c48969" fill-opacity=".255" d="M370.658 129.13l47.676-49.283-249.125-62.775L299.46 120.796z"/><path fill="#926531" fill-opacity=".592" d="M808.527 347.155l-39.232 11.9 9.989-54.002 43.288 22.12z"/><path fill="#022b4f" fill-opacity=".231" d="M236.79 108.673l16.811 138.167-95.118-85.15L357.957-62z"/><path fill="#121517" fill-opacity=".498" d="M587.902 262.074l76.06 115.642 36.548-121.823-25.425 7.716z"/><path fill="#111212" d="M591.526 905.52l9.062-207.136-12.872-108.872-64.596 28.24z"/><path fill="#929290" fill-opacity=".345" d="M667.829 656.059l51.657-1.235 4.154-115.478-78.67 2.528z"/><path fill="#1d1919" fill-opacity=".545" d="M672.107 783.317l-27.59-25.886 73.728-40.463 74.925 60.37z"/><path fill="#565452" fill-opacity=".8" d="M275.357 804.384l-11.601-3.369L44.189 915.69l208.705-46.475z"/><path fill="#c2c7cb" fill-opacity=".655" d="M357.555 857.247l2.962-89.838 2.528 161.668-33.047-3.838z"/><path fill="#c3c1c1" fill-opacity=".463" d="M413.919 591.588l251.462-23.315-248.492 70.5-31.917-112.735z"/><path fill="#0c0c0c" fill-opacity=".608" d="M540.907 934.507L240.729 1086l60.718-161.646-58.176-2.95z"/><path fill="#2a4436" fill-opacity=".914" d="M249.106 532.568l119.496 42.53-5.286-9.538-71.947 27.168z"/><path fill="#191816" fill-opacity=".745" d="M778.463 558.161l-50.477-40.577 43.375-82.81 30.548 22.435z"/><path fill="#725121" fill-opacity=".769" d="M470.597 279.765l-48.11 73.103-78.01 1.082 31.949-10.945z"/><path fill="#371d0e" fill-opacity=".463" d="M107.926 769.679L23.074 621.134-62 702.83l197.62-59.937z"/><path fill="#b7bbbf" fill-opacity=".929" d="M460.384 863.697l68.177-208.674 11.128 135.88-4.934 30.413z"/><path fill="#191f1c" fill-opacity=".388" d="M210.33 770.032l24.264 49.723 82.925-64.757 73.05 10.514z"/><path fill="#0c0c0c" fill-opacity=".835" d="M367.628 645.91l69.934-4.5-48.174 105.1-48.623-89.82z"/><path fill="#919596" fill-opacity=".835" d="M495.782 379.329l-2.985 401.562 2.505-352.907 55.075-61.574z"/><path fill="#848990" fill-opacity=".447" d="M281.544 688.147L121.098 881.459l102.935-258.07 42.041 33.114z"/><path fill="#936143" fill-opacity=".451" d="M246.909-15.966L161.969-62l49.564 194.358 33.763-30.752z"/><path fill="#6c8d9b" fill-opacity=".451" d="M662.419 355.56L558.808 509.37l-234.8 51.566 241.617-5.833z"/><path fill="#655446" fill-opacity=".576" d="M129.589 681.221l59.076-111.776 34.996-17.663 36.536 74.526z"/><path fill="#0d0f12" fill-opacity=".216" d="M173.766 1086L7.55 1027.954l213.56-66.604L14.433 842.112z"/><path fill="#d5dbdf" fill-opacity=".906" d="M682.792 880.71l-72.687-28.41 12.525-21.252-13.307-139.595z"/><path fill="#9e5034" fill-opacity=".51" d="M46.527 932.19L14.512 1086l69.795-116.465-5.981-9.873z"/><path fill="#191e17" fill-opacity=".318" d="M455.348 770.492l106.588.205-90.038 7.662-172.857-15.355z"/><path fill="#444b40" fill-opacity=".357" d="M779.397-62l-128.63 296.48-89.79 5.035 21.793-51.729z"/></svg>