<svg xmlns="http://www.w3.org/2000/svg" width="228" height="278" viewBox="0 0 836 1024"><path fill="#1a2b1f" d="M0 0h836v1024H0z"/><path fill="#79da9c" fill-opacity=".29" d="M725.765 517.178L483.797 1086 250.12 373.02 426.048-38.175z"/><path fill="#ffcad7" fill-opacity=".322" d="M147.547 520.717l618.57 61.102-682.01 35.648 46.434-135.04z"/><path fill="#76fed0" fill-opacity=".459" d="M376.08 1085.517l57.406-114.484L610.04 860.605 567.584 1086z"/><path fill="#000500" fill-opacity=".427" d="M-62 651.603l82.44 429.695 872.12-411.97-558.462-84.59z"/><path fill="#fe6173" fill-opacity=".424" d="M463.842 338.23L343.384 69.547 488.17 45.545l54.54 108.056z"/><path fill="#070404" fill-opacity=".949" d="M-22.728 667.53l316.534-457.395 118.778-232.48L-62-51.438z"/><path fill="#050001" fill-opacity=".82" d="M485.324 235.184L830.24-62l31.141 1145.201-200.243-743.633z"/><path fill="#ff7b89" fill-opacity=".471" d="M693.997 438.321l18.014 82.905-23.684 131.636-79.187-43.993z"/><path fill="#087340" fill-opacity=".584" d="M323.54 996.604L599.23 484.61 588.996 1086l-73.274-140.58z"/><path fill="#24754c" d="M677.017 350.262L275.496 298.87l-95.288 49.148 391.894 235.098z"/><path fill="#0a0503" fill-opacity=".929" d="M368.833 263.42L6.936 392.87 41.855 96.055l292.06-9.23z"/><path fill="#f7e1ff" fill-opacity=".478" d="M512.1 942.66l-12.857 135.322L371.66 1086l64.38-109.26z"/><path fill="#090006" fill-opacity=".663" d="M591.481 592.788L898 788.082 847.434 1086l-237.84-35.31z"/><path fill="#004e24" fill-opacity=".573" d="M350.682 554.638l348.683-28.125-507.462-106.307L340.19 562.197z"/><path fill="#094322" fill-opacity=".729" d="M268.126 941.386l169.334.764 193.312-387.941L252.06 790.812z"/><path fill="#5e3e36" fill-opacity=".851" d="M406.754 98.116l-61.137 43.26 43.279 213.045 85.162 23.353z"/><path fill="#6bffde" fill-opacity=".192" d="M327.243 581.556l204.022-50.968 32.065 401.234 46.518-244.234z"/><path fill="#0b0606" fill-opacity=".871" d="M549.483-62l-21.017 344.187 78.671 40.477L898 38.336z"/><path fill="#070003" fill-opacity=".553" d="M-62 434.204l277.515 247.038L303.846 1086l-351.221-2.972z"/><path fill="#d3838b" fill-opacity=".467" d="M274.785 452.683L185.567 629.51 87.009 555.2l91.785 20.11z"/><path fill="#d4e2ea" fill-opacity=".392" d="M270.31 429.747l1.29-18.157 97.648-.968 11.384 22.288z"/><path fill="#133e23" fill-opacity=".949" d="M624.55 410.446l57.145-50.086L652.6 543.341l-59.557-19.5z"/><path fill="#8fc8b4" fill-opacity=".404" d="M158.664 389.759l162.095-96.555-28.562-4.988-75.9 42.303z"/><path fill="#feb1ac" fill-opacity=".298" d="M525.264 110.67l-49.818-50.083-106.494-16.612 2.141 60.645z"/><path fill="#b36366" fill-opacity=".482" d="M690.224 583.203l-105.14 94.066 45.162-146.205 82.461 109.927z"/><path fill="#b0776e" fill-opacity=".694" d="M504.51 146.967l-162.732-1.683 114.532 37.023 40.947 128.085z"/><path fill="#140509" fill-opacity=".592" d="M495.574 63.253l191.668 323.41L538.738-62 179.621-8.314z"/><path fill="#003013" fill-opacity=".612" d="M413.44 659.688L248.018 539.84l105.85 304.26 120.596 77.705z"/><path fill="#083f22" fill-opacity=".784" d="M376.073 376.088l112.841 4.066L346.71 278.395l40.14 74.788z"/><path fill="#8b4c49" fill-opacity=".753" d="M264.718 490.312l-17.73-15.179-53.397 135.559 58.542 13.02z"/><path fill="#377f61" fill-opacity=".996" d="M583.68 463.875l-65.03-220.16-14.256 65.025 12.715 154.386z"/><path fill="#230e0b" fill-opacity=".49" d="M487.467 139.35l-9.203-18.854-73.724-16.716-66.648 29.068z"/><path fill="#c8e5f1" fill-opacity=".227" d="M528.466 606.313l-243.424-49.874 224.243-4.547 100.03 3.09z"/><path fill="#b28989" fill-opacity=".584" d="M378.668 172.367l-9.223-108.853-19.258 132.956 29.488-38.095z"/><path fill="#337c5b" fill-opacity=".867" d="M424.406 1027.712l43.56-22.477-19.296-32.803 102.14-214.809z"/><path fill="#0a0a0b" fill-opacity=".965" d="M750.445 424.089L643.964 850.655l-82.348 199.637 307.208-132.606z"/><path fill="#00240f" fill-opacity=".639" d="M168.11 383.054l263.294 203.24-184.248-119.971-75.248 109.757z"/><path fill="#aca4b2" fill-opacity=".494" d="M93.773 554.074l74.347-23.111-43.666-35.43 3.186 92.885z"/><path fill="#1e8656" fill-opacity=".616" d="M604.646 950.746L508.647 1086l31.925-399.373 62.007 139.349z"/><path fill="#040505" fill-opacity=".996" d="M-30.691 135.093l217.204 199.045L68.367 627.987 11.318 891.685z"/><path fill="#07572b" fill-opacity=".62" d="M406.422 580.423l29.215-24.914-43.005 137.865 163.451-15.786z"/><path fill="#b37a6d" fill-opacity=".486" d="M450.304 163.808l17.653 165.918-53.7-8.484 135.719-187.883z"/><path fill="#177444" fill-opacity=".729" d="M204.17 422.941l370.44 147.631 31.662-65.909-115.514-47.312z"/><path fill="#7bffd6" fill-opacity=".22" d="M707.111 548.922l-32.595-185.947-60.321-52.572 53.948 92.525z"/><path fill="#1b794a" fill-opacity=".635" d="M244.476 313.83l270.868 137.027-348.635-77.695-29.207 96.873z"/><path fill="#2f0003" fill-opacity=".294" d="M591.048 657.655l15.122-196.413 75.595 58.733L489.674 709.91z"/><path fill="#1a1e14" fill-opacity=".784" d="M495.344 288.393l16.4-96.117 33.777 40.555-112.81 152.366z"/><path fill="#021b0c" fill-opacity=".592" d="M224.078 1000.303L670.15 721.379 322.973 958.825l163.013 123.868z"/><path fill="#b27b75" fill-opacity=".722" d="M704.038 634.546l-91.714-87.984 97.456-8.789-15.396 23.984z"/><path fill="#dbe0f0" fill-opacity=".584" d="M500.612 1086l1.13-143.157 23.993 30.834-63.324-13.847z"/><path fill="#187a4e" fill-opacity=".855" d="M517.27 950.06l26.668 41.53-16.654-101.61-211.654 93.758z"/><path fill="#0f5932" fill-opacity=".506" d="M485.897 974.375l34.568-432.266-104.145 344.27 135.259 144.601z"/><path fill="#387b5a" fill-opacity=".482" d="M346.256 922.098l-91.987-62.976 37.172-33.45-29.053 85.261z"/><path fill="#19170b" fill-opacity=".529" d="M404.209 342.426l52.333 39.246-66.246-136.339 54.402 10.962z"/><path fill="#37ac73" fill-opacity=".671" d="M596.436 729.539l2.13-65.874-42.997 61.314 3.703 30.115z"/><path fill="#0e4828" fill-opacity=".894" d="M603.038 753.109l-183.406 88.19 139.487 41.657-114.082 18.26z"/><path fill="#c58983" fill-opacity=".471" d="M511.748 204.356l15.092-10.211 15.941-25.815-75.264-83.03z"/><path fill="#a3c2c4" fill-opacity=".345" d="M368.757 602.43l54.188-64.253-120.768 60.827-2.193-67.063z"/><path fill="#001f09" fill-opacity=".424" d="M276.107 544.301l-33.125-25.494 67.35-53.77 49.393 88.36z"/><path fill="#a76666" fill-opacity=".698" d="M583.636 563.2l124.397 53.284-17.714 19.307-112.405-58.916z"/><path fill="#f8d4fb" fill-opacity=".259" d="M285.351 329.053l9.86-24.624-82.218 22.832 109.91-48.785z"/><path fill="#178750" fill-opacity=".573" d="M667.232 352.155l-208.308 80.668 67.479-113.34 107.134-2.32z"/><path fill="#b19195" fill-opacity=".698" d="M133.288 563.263l21.373 4.496 42.918 7.852-35.553 45.5z"/><path fill="#db95ce" fill-opacity=".404" d="M582.036 440.548l-54.286-17.664 6.4-3.05 4.76 26.568z"/><path fill="#250301" fill-opacity=".459" d="M116.275 531.79l111.754 46.024-30.31-6.268-48.17-7.096z"/><path fill="#140705" fill-opacity=".576" d="M649.013 125.626L521.189 32.042l-14.21 98.563 247.212 102.656z"/><path fill="#03461f" fill-opacity=".522" d="M496.79 763.663L398.027 597l-193.162-.828 175.144 47.38z"/><path fill="#e19291" fill-opacity=".388" d="M228.393 530.204l39.252 5.722 36.242 26.782-95.769-30.043z"/><path fill="#105a32" fill-opacity=".992" d="M506.102 547.365l68.19-3.6-272.609-71.255 162.278 82.13z"/><path fill="#a5b5b7" fill-opacity=".58" d="M544.755 601.081l-102.432-7.088-.296-28.945-9.725-24.87z"/><path fill="#a0dbf3" fill-opacity=".286" d="M693.497 490.587l-54.447 34.894 53.963-73.141-3.93-11.438z"/><path fill="#aa6d63" fill-opacity=".275" d="M468.034 41.314L386.077 234.47l147.583-8.296-190.446 41.497z"/><path fill="#32f699" fill-opacity=".114" d="M469.266 879.658l140.026-66.192-148.402-25.872 128.273-92.362z"/><path fill="#362624" fill-opacity=".886" d="M447.78-17.25L323.864 87.807l111.712-56.35 52.497 5.564z"/><path fill="#040505" fill-opacity=".718" d="M696.688 496.023L846.84-43.472l-35.25 860.29-120.997-400.86z"/><path fill="#110604" fill-opacity=".886" d="M228.252 210.65L92.77 112.72l268.98-69.577-1.675 90.657z"/><path fill="#060707" fill-opacity=".675" d="M599.015 665.793l-5.371 174.395 302.62-104.707L882.52 580.64z"/><path fill="#e7ebff" fill-opacity=".318" d="M413.333 55.233l-41.32 36.27-15.84 5.703 32.154-43.211z"/><path fill="#00270b" fill-opacity=".435" d="M607.552 665.306l-26.053-54.23-26.386-45.188-15.34 120.774z"/><path fill="#002711" fill-opacity=".776" d="M238.634 510.975l-5.536-136.782-38.397 2.957-59.357 111.66z"/><path fill="#fcebff" fill-opacity=".31" d="M470.283 950.196l61.922 6.904-52.633 18.026L428.22 1086z"/><path fill="#cbd8df" fill-opacity=".412" d="M522.751 578.944l-3.389-29.8 25.992 5.762-14.059 54.992z"/><path fill="#120104" fill-opacity=".525" d="M619.692 574.554l-19.827-103.83 8.223 146.777 15.286-56.77z"/><path fill="#360d12" fill-opacity=".565" d="M447.608 174.927l-39.107-4.488 41.367 40.84-55.191 1.462z"/><path fill="#f4f0ff" fill-opacity=".161" d="M90.307 624.568l3.9-90.414 88.21 13.708-47.351-56.653z"/><path fill="#77fdb7" fill-opacity=".231" d="M237.206 298.775l.371 13.546-8.338 36.596-59.541 34.031z"/><path fill="#0d4d29" fill-opacity=".745" d="M478.23 600.78l-81.464 89-20.208-180.542L397.407 617.4z"/><path fill="#6a8885" fill-opacity=".71" d="M553.586 837.34l-37.525 32.245-5.992-2.101 35.54-.964z"/><path fill="#000d04" fill-opacity=".808" d="M331.771 992.896L203.32 1086l150.055-3.481L423.6 980.911z"/><path fill="#c67375" fill-opacity=".278" d="M369.896 241.931l13.693 66.846 111.163-36.607-40.635 75.412z"/><path fill="#000803" fill-opacity=".388" d="M39.388 821.055l388.487-93.74-176.993-111.397-202.689 23.065z"/><path fill="#318b59" fill-opacity=".565" d="M595.213 500.018l-7.848 113.855-53.923-46.205 39.025-36.13z"/><path fill="#060806" fill-opacity=".949" d="M13.089 396.12l105.034 47.773 159.288-203.25 72.22 29.692z"/><path fill="#106136" fill-opacity=".545" d="M460.524 568.19l105.118 290.765L449.248 613.53l54.8-139.65z"/><path fill="#e8eaff" fill-opacity=".208" d="M697.805 455.836l-2.087 33.734-57.94 29.392 47.178-43.146z"/><path fill="#f5e3ff" fill-opacity=".357" d="M391.684 1086l24.824-52.996 44.325-80.758-32.676 33.075z"/><path fill="#1c6d48" fill-opacity=".988" d="M380.283 984.99l153.357-47.348-216.215 47.41 45.344-46.904z"/><path fill="#0c6436" fill-opacity=".682" d="M201.37 364.925l152.38-40.111-91.694-10.419L179.52 403z"/><path fill="#040e06" fill-opacity=".678" d="M207.337 536.59l26.92-26.77 8.279-62.678-79.521 70.995z"/><path fill="#040605" fill-opacity=".929" d="M124.778 510.741l-8.118 22.246L-62 666.621l243.383-460.953z"/><path fill="#004920" fill-opacity=".471" d="M536.873 519.566l148.913-46.32-69.807-97.523-9.539 107.623z"/><path fill="#0f100f" fill-opacity=".675" d="M342.809 918.228L236.059 1086-62 1003.275l341.702-83.599z"/><path fill="#f98ccf" fill-opacity=".255" d="M139.882 451.122l25.112-40.469-2.116 30.279-8.216 9.214z"/><path fill="#290806" fill-opacity=".396" d="M665.648 530.546l-78.91 9.968 75.571-29.884 29.303-13.367z"/><path fill="#cf8a73" fill-opacity=".522" d="M673.71 511.21l-6.204 25.233 40.295-37.63-12.536 85.245z"/><path fill="#fec7f8" fill-opacity=".204" d="M311.876 300.282l.584-9.777-78.125 20.768 78.544 8.198z"/><path fill="#96ddc9" fill-opacity=".208" d="M640.897 327.453L538.284 310.22l-58.371 57.921 47.336-69.066z"/><path fill="#012911" fill-opacity=".49" d="M259.89 599.974l-.787-31.739 183.65 109.806-194.772 120.906z"/><path fill="#32b176" fill-opacity=".271" d="M520.122 439.65l-58.725 22.691-138.278 3.102-42.236-36.992z"/><path fill="#050606" fill-opacity=".855" d="M694.367 595.939l97.197 76.23L892.27 698.94 898 147.18z"/><path fill="#afb9c1" fill-opacity=".353" d="M363.926 593.092l39.15-54.422 19.595 33.438-124.773-9.762z"/><path fill="#0d4023" fill-opacity=".925" d="M382.963 557.541l29.753-36.138 33.544 22.4-128.039-1.723z"/><path fill="#b67c71" fill-opacity=".565" d="M461.213 191.785l51.004-66.386-80.712 51.137L405.54 57.062z"/><path fill="#0f0705" fill-opacity=".686" d="M359.467 297.547l12.363-95.196L-62 83.791l421.032 156.576z"/><path fill="#00552c" fill-opacity=".506" d="M651.68 353.013L531.687 328l10.113-51.273 19.798 32.384z"/><path fill="#f000ab" fill-opacity=".098" d="M515.02 408.533l71.604-11.003-37.927 89.417-42.13-39.186z"/><path fill="#033c1a" fill-opacity=".647" d="M505.956 470.823l13.16-5.57-128.313 2.845 24.99 8.084z"/><path fill="#a55b4f" fill-opacity=".161" d="M95.288 644.467l.887-83.76 112.078 77.741 54.567-45.695z"/><path fill="#0e6b39" fill-opacity=".51" d="M485.954 817.049l84.701-117.762-190.337-103.485 158.909 10.194z"/><path fill="#e7edfb" fill-opacity=".224" d="M404.4 616.611l98.422-41.33-48.426-12.638 55.097-14.95z"/></svg>