<svg xmlns="http://www.w3.org/2000/svg" width="228" height="278" viewBox="0 0 836 1024"><path fill="#655c55" d="M0 0h836v1024H0z"/><g fill-opacity=".502"><path fill="#000005" d="M610 1082L218 970 94 154z"/><path fill="#fffff6" d="M174 506l-60 580-176-500z"/><path fill="#ff7832" d="M874 190l-16 524-300-216z"/><path fill="#bad59a" d="M346 330l260 756 264-52z"/><path fill="#00000b" d="M410 582l236 88-56-388z"/><path fill="#0b0a16" d="M178 322L502-62l-40 408z"/><path fill="#ff5614" d="M658 642l240-164-292-188z"/><path fill="#cfed9d" d="M238 1086L-2 510l-52 508z"/><path fill="#cdd2d5" d="M826-34L542 158 482 54z"/><path fill="#00000c" d="M150 886l32-448 352 648z"/><path fill="#bcbab9" d="M366 250L126 78l228-44z"/><path fill="#061329" d="M22 274l512 336-596-132z"/><path fill="#000312" d="M898 146L762 50 386 266z"/><path fill="#8ed3f5" d="M518 638l-208 4-52-92z"/><path fill="#c3aeb6" d="M854 234l44 276-288-320z"/><path fill="#fff" d="M198 386l92 12-48-76z"/><path fill="#e2c9d2" d="M454 830l152-180 4 244z"/><path fill="#2f2428" d="M670 934l120-312-180-8z"/><path fill="#000016" d="M238 562l64-248 124 240z"/><path fill="#000c26" d="M466-2L-62-62V90z"/><path fill="#fff" d="M450 518l52-148-100 144z"/><path fill="#95c457" d="M858 758l24 252-536 76z"/><path fill="#00061a" d="M394 1086l88-396-320-116z"/><path fill="#b8beed" d="M438 538l-44-280-60 112z"/><path fill="#040e1b" d="M450 366L258 142 94 174z"/><path fill="#dbe8f4" d="M58 1086l280-108 44 108z"/><path fill="#88c432" d="M270 1086l-332-96 172-120z"/><path fill="#95a2b2" d="M870 990l-88-356 108-360z"/><path fill="#c6ada6" d="M474 558l176 180-76-140z"/><path fill="#e4cbed" d="M22 906l-84-388 132 12z"/><path fill="#300809" d="M646 610H486l32 72z"/><path fill="#cb1320" d="M50 614l56 88 28-96z"/><path fill="#ff6d2c" d="M598 550l188-256 24 332z"/><path fill="#77898e" d="M22 90l-68 216 220-12z"/><path fill="#000919" d="M454 526l144 84-56-324z"/><path fill="#000109" d="M362 74l36-128 380-8z"/><path fill="#dad5d8" d="M898 2L714-58l184 204z"/><path fill="#fff" d="M334 226l76 60-32 4z"/><path fill="#050000" d="M322 194l128 136-8-156z"/><path fill="#838b93" d="M686 182L410 318l488-32z"/></g></svg>