<svg xmlns="http://www.w3.org/2000/svg" width="228" height="278" viewBox="0 0 836 1024"><path fill="#59413d" d="M0 0h836v1024H0z"/><g fill-opacity=".502"><path fill="#c0aca1" d="M-30 1086l44-752 364 656z"/><path fill="#d7cdbd" d="M674 474l224-12-52 624z"/><path fill="#350000" d="M698 690l-276 396L190-62z"/><path fill="#5b1308" d="M2 1086l236-720 264-36z"/><path fill="azure" d="M174 914l176 132-388 40z"/><path fill="#0e2428" d="M898 2L-62-50l828 492z"/><path fill="#67c9c4" d="M386 858L258 630l-80 240z"/><path d="M562 970l200-152 72 268z"/><path fill="#e5e2d9" d="M142 614l16-152-216 76z"/><path fill="#943227" d="M270 230l628 744-288-624z"/><path fill="#0d0203" d="M270 1070l396-648-168 632z"/><path fill="#cbe4c8" d="M898 574l-292 8 200-108z"/><path fill="#cf935f" d="M758 742L558 942l152-296z"/><path fill="#881d28" d="M-62 422l696-56-232 216z"/><path fill="#1b0400" d="M274 590l-116-96 4 380z"/><path fill="#4b4441" d="M574 238L-62 510l36-476z"/><path fill="#d5e7fe" d="M234 1086l-176-84 292-64z"/><path fill="#7b8582" d="M374 954l-60-356-188 356z"/><path fill="#260103" d="M358 642l252 208 8-400z"/><path fill="#d3936f" d="M274 206l-92-4 4-92z"/><path fill="#e4ad86" d="M614 998l-116 88 24-124z"/><path fill="#ea7e85" d="M426 518l-72-20 20 80z"/><path fill="#8b9485" d="M374 734l-48-128 92 120z"/><path fill="#a26758" d="M-30 610l212 36-184 412z"/><path fill="#7f5d46" d="M822 942l76-176-284-200z"/><path fill="#ae2c3c" d="M610 362l96 188-332-284z"/><path fill="#2c333b" d="M2-62l208 284-272 236z"/><path fill="#67070f" d="M418 566l280-32-272-228z"/><path fill="#0e1816" d="M306 1022l320-84-256-24z"/><path fill="#dcf6ff" d="M830 1066l-24-120 92 92z"/><path fill="#bd8361" d="M258 262l-32 72-32-96z"/><path fill="#593a20" d="M210 166l132 352 108-404z"/><path fill="#230000" d="M302 642l-24 28 44 40z"/><path fill="#250c0a" d="M666 730L478 498 362 874z"/><path fill="#d0a686" d="M118 694L-26 970 90 846z"/><path fill="#0a0a07" d="M550 1086l184-236 72 160z"/><path fill="#2d3a43" d="M898 206L774 438 394 258z"/><path fill="#b9ada6" d="M42 634l124-164-228 12z"/><path fill="#ad704b" d="M546 910l172-168-84 204z"/><path fill="#5ea7a2" d="M354 758l-96-104-80 200z"/></g></svg>