<svg xmlns="http://www.w3.org/2000/svg" width="228" height="278" viewBox="0 0 836 1024"><path fill="#604947" d="M0 0h836v1024H0z"/><path fill="#eafbfe" fill-opacity=".565" d="M134.495 370.624L92.775 814.78-62 819.21.999 337.67z"/><path fill="#dededd" fill-opacity=".49" d="M834.062 346.752l-204.04 301.42 15.594 203.3L898 818.881z"/><path fill="#33090d" fill-opacity=".851" d="M3.797 1030.621L496.07 314.082 681.386 352.3 540.832 1086z"/><path fill="#160e0b" fill-opacity=".988" d="M693.171 869.265L517.137 999.934 817.16 1086 898 854.933z"/><path fill="#eaffe1" fill-opacity=".196" d="M845.681-62L-62 4.605l760.884 372.253L898 767.44z"/><path fill="#a19190" fill-opacity=".976" d="M231.846 537.657l-25.493 280.757L-62 823l225.17-185.205z"/><path fill="#401418" fill-opacity=".988" d="M357.972 355.15l409.84 185.028-649.877 31.607 36.262-232.247z"/><path fill="#160000" fill-opacity=".678" d="M736.011 643.721L600.632 456.226l85.278-90.576 70.885 125.414z"/><path fill="#eaeef6" fill-opacity=".518" d="M634.517 493.748l74.918 144.359-151.346 279.442 80.06-87.237z"/><path fill="#cdcfdb" fill-opacity=".627" d="M349.258 273.696l66.276 122.827-98.845-87.466-134.857 14.157z"/><path fill="#161610" fill-opacity=".929" d="M189.993 869.591L-62 839.004v137.373l280.721 90.005z"/><path fill="#869594" fill-opacity=".525" d="M258.886 573.523l270.386 6.893 55.909 39.87-191.451 6.38z"/><path fill="#d9e2f7" fill-opacity=".518" d="M398.366 379.592l23.346 8.45L540.65 282.555l-40.739-15.08z"/><path fill="#d6faec" fill-opacity=".208" d="M157.602 377.634L-.71 770.126-62 126.105l266.087 182.84z"/><path fill="#b4bdc1" fill-opacity=".757" d="M807.204 842.971l3.154-268.567L683.06 346.88 898 429.092z"/><path fill="#a57773" fill-opacity=".925" d="M622.964 933.467l-25.435-108.465-54.125-18.84 188.424-32.594z"/><path fill="#ddf4fd" fill-opacity=".545" d="M158.83 639.737l-8.229 71.312 72.315-18.217-1.672-121.95z"/><path fill="#33080c" fill-opacity=".976" d="M230.754 607.562L189.06 1086l295.647-89.842L204.631 486.78z"/><path fill="#130000" fill-opacity=".604" d="M204.275 591.725l50.37-108.816-70.48-109.187-87.627 154.25z"/><path fill="#946858" fill-opacity=".659" d="M680.42 757.33l26.704 86.784 118.293-234.62-93.36-52.486z"/><path fill="#2d2d2d" fill-opacity=".635" d="M350.162 76.061L497.259-62 289.636 74.49l60.847 102.453z"/><path fill="#fbbdbb" fill-opacity=".459" d="M362.715 124.112l-3.93-66.602 143.662 14.9-1.69 33.41z"/><path fill="#80877d" fill-opacity=".545" d="M527.53 430.503L503.8 489.03l-14.1 32.615 76.775 3.575z"/><path fill="#0d0b00" fill-opacity=".247" d="M323.955 250.527l348.906 38.746-159.246-177.07-54.468 228.993z"/><path fill="#9d6c5e" fill-opacity=".502" d="M130.25 861.475l74.05-12.302-83.963-315.22L46.99 660.105z"/><path fill="#d8ddf4" fill-opacity=".541" d="M578.57 316.875l74.047 10.846-153.114-64.243-28.23 4.25z"/><path fill="#601421" fill-opacity=".945" d="M484.267 365.185l25.14-70.059 155.804 40.906-3.778 33.954z"/><path fill="#e2effe" fill-opacity=".471" d="M256.68 487.863l7.577-14.27 58.714-4.846-28.336 15.918z"/><path fill="#d3e1f4" fill-opacity=".404" d="M792.38 496.29l49.261 264.48 36.98-264.764L659.273 622.47z"/><path fill="#540c17" fill-opacity=".776" d="M201.13 430.34l179.118 26.587-53.79-157.732-158.58 43.474z"/><path fill="#320409" fill-opacity=".675" d="M627.254 609.067l-281.328 50.25-147.167 202.085 445.656-72.571z"/><path fill="#37383d" fill-opacity=".741" d="M435.21 62.248L328.938 41.832 437.681 2.29l76.066 56.055z"/><path fill="#766f5d" fill-opacity=".475" d="M108.071 397.488L-62 348.28l50.087-202.037L273.571 283.77z"/><path fill="#1f0507" fill-opacity=".827" d="M587.095 513.826l176.493 20.38-3.77-47.966-145.896-106.014z"/><path fill="#d5eeff" fill-opacity=".31" d="M192.41 599.582L-62 548.567 78.608 821.718 32.446 514.19z"/><path fill="#c7d5dc" fill-opacity=".659" d="M718.122 636.099l-72.368-109.466-18.067 158.827 47.272 39.066z"/><path fill="#c3d1d7" fill-opacity=".569" d="M736.305 782.384L898 771.888l-108.22-270.92 108.22 8.1z"/><path fill="#461100" fill-opacity=".286" d="M453.048 172.192l-98.852 20.932-1.665 134.172 131.33-34.222z"/><path fill="#430f16" fill-opacity=".847" d="M617.986 1086l13.401-126.07 23.788-56.09L231.461 1086z"/><path fill="#6e6566" d="M289.286 635.046l-41.102-91.637 93.044 35.115-26.355-8.322z"/><path fill="#dfefff" fill-opacity=".424" d="M357.562 374.12l-27.113-84.966-146.544 44.104 157.343-68.151z"/><path fill="#ffa994" fill-opacity=".314" d="M352.328 135.504l30.13 103.002 66.841-94.85 110.107 60.375z"/><path fill="#92907b" fill-opacity=".416" d="M671.609 213.095L446.102-35.649 523.802-62 898 137.965z"/><path fill="#41190c" fill-opacity=".498" d="M513.954 118.75l-141.34 1.076 15.128 22.27 100.286 1.456z"/><path fill="#030600" fill-opacity=".337" d="M234.13 492.302l-96.925 204.884-1.352-49.925-13.14-44.186z"/><path fill="#c8d0d9" fill-opacity=".537" d="M137.506 361.638l25.758 2.743L-62 794.447l161.045-240.89z"/><path fill="#b4b9c9" fill-opacity=".522" d="M361.085 356.318l17.762 16.649 69.568-.199-128.57-62.428z"/><path fill="#a0a3a0" fill-opacity=".804" d="M801.813 512.32L660.572 335.87l87.206 27.901 144.588 35.681z"/><path fill="#472422" fill-opacity=".678" d="M174.539 736.479l-10.137-12.242 59.569-32.834 199.907-129.485z"/><path fill="#74615d" fill-opacity=".447" d="M162.31 763.623l75.437 68.06-47.524 11.003L-62 832.764z"/><path fill="#2d0b0e" fill-opacity=".851" d="M253.534 609.075l19.835-107.296-166.541 42.458 32.99-134.481z"/><path fill="#b17a71" fill-opacity=".647" d="M600.895 822.04L549.06 930.605l161.121-141.586 105.687-220.58z"/><path fill="#6b6252" fill-opacity=".596" d="M324.284 288.088l-9.246-241.04L-62 32.185l431.17 212.722z"/><path fill="#625c51" fill-opacity=".671" d="M735.965 349.13l64.746 83.69L489.235 41.98l55.334 237.511z"/><path fill="#ccc8cd" fill-opacity=".498" d="M229.747 565.841l-109.3 175.467 43.194-7.242 58.432-188.17z"/><path fill="#183832" fill-opacity=".231" d="M862.574 572.931L637.427 895.382l195.279-81.31-136.905 16.25z"/><path fill="#2b070a" fill-opacity=".902" d="M315.567 547.821l17.244 86.956L467.803 731 235.529 898.58z"/><path fill="#460b12" fill-opacity=".894" d="M470.774 569.214l-215.432-22.67L438.036 372.93l73.679-48.283z"/><path fill="#cfe0fe" fill-opacity=".427" d="M512.724 254.7l-40.766 79.869-54.723 51.926 75.94-54.369z"/><path fill="#1a0708" fill-opacity=".78" d="M657.896 419.48l84.87 127.99-59.852 34.133-109.903-173.19z"/><path fill="#7e7c7c" fill-opacity=".435" d="M338.385 573.837l236.425 8.257-270.524 18.847 48.614 31.225z"/><path fill="#80584d" fill-opacity=".914" d="M391.818 245.646l-42.74-34.466 138.104 29.829-52.779 30.408z"/><path fill="#100201" fill-opacity=".639" d="M415.368 404.403l-22.384-26.817-119.903-10.263-71.82 8.12z"/><path fill="#020800" fill-opacity=".259" d="M494.984 206.62l-56.81 145.582-70.041-102.646 122.622 26.778z"/><path fill="#b58b80" fill-opacity=".753" d="M95.214 739.298l60.797 40.442-58.1-212.247-38.008 51.312z"/><path fill="#070b06" fill-opacity=".596" d="M678.12 863.786l97.184-7.716L898 979.19 587.63 1086z"/><path fill="#b8becc" fill-opacity=".718" d="M770.268 513.48l-45.7 73.057 76.333-55.968-97.136-150.6z"/><path fill="#565763" fill-opacity=".682" d="M545.196 986.887l23.545 3.003 38.665 6.571.028-23.19z"/><path fill="#2d0700" fill-opacity=".361" d="M436.252 198.097l42.872 5.95-98.287 18.514 129.795 8.81z"/><path fill="#2b1204" fill-opacity=".345" d="M734.832 637.224l42.081-69.027-62.453 20.51L666.403 533z"/><path fill="#c0c9db" fill-opacity=".439" d="M10.727 516.24l51.626-11.665 100.042 95.596-21.579.37z"/><path fill="#ba867b" fill-opacity=".682" d="M492.83 196.535l-50.206-70.144-42.739 58.626-48.825-60.508z"/><path fill="#260307" fill-opacity=".725" d="M400.182 950.217l194.723-136.565-55.355 130.48 95.572 5.232z"/><path fill="#160506" fill-opacity=".718" d="M199.743 578.233l-47.692 5.185-42.059-37.28 147.982-82.435z"/><path fill="#5b1c01" fill-opacity=".282" d="M103.094 627.732L90.062 550.84l27.386 37.458 58.916 49.847z"/><path fill="#370b10" fill-opacity=".733" d="M225.42 527.282l2.256-91.895 70.602 296.38-81.263 85.18z"/><path fill="#c9d1d9" fill-opacity=".706" d="M-52.28 848.62L-62 507.506l156.602 18.057 27.33-36.066z"/><path fill="#809a9f" fill-opacity=".345" d="M690.523 841.184l160.284 11.385 27.583-95.8-122.068-21.39z"/><path fill="#230305" fill-opacity=".627" d="M512.869 543.106l33.883 60.128 81.55-39.845 24.11-93.532z"/><path fill="#450b12" fill-opacity=".635" d="M632.355 702.54l3.527-181.357L478.6 764.254l147.68 37.186z"/><path fill="#daeeff" fill-opacity=".337" d="M691.91 339.908l-109.315-31.484-109.751-21.177 75.297-4.498z"/><path fill="#30291f" fill-opacity=".745" d="M6.337 1054.92l135.873 22.392-23.086-77.685L-62 896.167z"/><path fill="#c2ced4" fill-opacity=".525" d="M722.342 623.461l-41.437 95.947-39.79 60.763-5.55-255.336z"/><path fill="#d1a1a7" fill-opacity=".247" d="M657.675 916.981l22.968-115.199-84.315-1.81 14.888 111.74z"/><path fill="#a06f62" fill-opacity=".541" d="M672.791 764.415l145.247-167.583-30.755-72.527L642.714 789.12z"/><path fill="#6d685d" fill-opacity=".451" d="M510.98 119.027l123.845 188.31 71.89 61.246L898 397.293z"/><path fill="#4f523b" fill-opacity=".376" d="M7.369 76.499l140.839 50.793 240.665 92.803L35.785 257.62z"/><path fill="#5faab0" fill-opacity=".208" d="M-11.998 740.529l-42.267 84.736 209.09 25.36L70.39 733.921z"/><path fill="#402e2e" fill-opacity=".886" d="M624.433 591.225l-225.73 14.035-29.105-17.302 102.606 21.768z"/><path fill="#989b9d" fill-opacity=".341" d="M82.009 347.492L-62 529.682l88.692-28.767 165.973-167.283z"/><path fill="#000702" fill-opacity=".173" d="M211.701 1086l-17.13-306.63-123.224 83.608-38.96 12.122z"/><path fill="#c5ffff" fill-opacity=".094" d="M296.58 626.208l306.54-25.578-153.91 35.155 82.913-61.58z"/><path fill="#1d1400" fill-opacity=".298" d="M417.069 355.42l-98.37-305.812 50.994 242.25 82.157-18.875z"/><path fill="#573b2e" fill-opacity=".875" d="M562.177 511.618l-69.542-83.2-3.37 96.981 63.02-106.239z"/><path fill="#e1f9fb" fill-opacity=".408" d="M289.702 618.186l-22.99-21.152 34.817 9.146 1.392-41.889z"/><path fill="#c4a8a8" fill-opacity=".498" d="M205.241 757.023l12.47-66.274-44.387 82.43L42.935 658.742z"/><path fill="#833f3a" fill-opacity=".459" d="M509.143 962.608l133.581-91.062 10.407-24.398-66.61 28.82z"/><path fill="#b6493b" fill-opacity=".259" d="M109.95 789.056l23.385 39.829 101.885 13.118-85.011-105.316z"/><path fill="#745e4b" fill-opacity=".49" d="M504.237 283.142l-132.682 64.493L308.643 175.1l112.272 181.404z"/><path fill="#040b0c" fill-opacity=".337" d="M349.3 144.621l4.596-21.21-8.491-87.003-35.387 86.007z"/><path fill="#c3d0d6" fill-opacity=".525" d="M155.025 669.588l-13.556 51.958 85.228-78.913-40.158-50.285z"/><path fill="#dff3ff" fill-opacity=".337" d="M346.953 297.112l-124.78 21.239 34.498-20.603 20.24-9.505z"/><path fill="#bfc4cc" fill-opacity=".435" d="M672.871 339.476l103.05 165.378-48.171-64.343 48.488 5.396z"/><path fill="#ca9ea1" fill-opacity=".314" d="M495.855 65.757l-151.664-.508 146.87 58.768 27.214 153.357z"/><path fill="#31060b" fill-opacity=".706" d="M506.992 1022.263L345.336 581.639 562.35 950.387l21.49 20.662z"/><path fill="#a2d0f8" fill-opacity=".184" d="M524.155 482.894l13.434-10.95 4.651 60.962-52.757-18.164z"/><path fill="#5b0e19" fill-opacity=".612" d="M256.509 443.787l243.37-55.849 174.936 5.642-332.523 51.52z"/><path fill="#ffbad9" fill-opacity=".125" d="M287.742 496.02l-2.066-19.31 69.84-9.583-152.62-16.937z"/><path fill="#65594a" fill-opacity=".694" d="M332.114 276.99l-46.905 16.579 46.204-282.681-76.136 137.642z"/><path fill="#defffc" fill-opacity=".239" d="M631.396 881.06l-34.171 8.435-25.154-17.018 55.024 38.505z"/><path fill="#b1becf" fill-opacity=".486" d="M419.716 394.69l-77.465-54.75.622-14.67 84.941 45.333z"/><path fill="#5c0e1b" fill-opacity=".604" d="M672.638 348.753L573.064 309.3l-70.697 44.474L713.52 409.18z"/><path fill="#3f1015" d="M393.35 582.296l-27.435-35.018 13.372 61.873 12.082-121.219z"/><path fill="#757d8c" fill-opacity=".384" d="M400.154 25.52L207.744-62 367.705 3.397l144.076-6.185z"/><path fill="#170000" fill-opacity=".231" d="M521.968 130.345L390.016 119.95l57.552 20.974 6.852 12.31z"/><path fill="#b3babd" fill-opacity=".616" d="M132.147 449.045l-62.38 98.798 6.312-169.673 66.202 2.542z"/><path fill="#2f1d07" fill-opacity=".137" d="M811.618 589.458l7.969 59.186L639.82 891.819 754.38 745.62z"/><path fill="#d9e6fd" fill-opacity=".541" d="M494.334 289.556l-5.434-29.325 92.251 44.476-47.651-10.184z"/><path fill="#5c5246" fill-opacity=".569" d="M482.867 224.983l65.407-34.673 78.812 85.452-20.585 38.364z"/><path fill="#110505" fill-opacity=".4" d="M368.878 422.939l87.41-63.744-21.468 14.784 115.203-4.492z"/></svg>